{
  "header": {
    "keySignatures": [
      {
        "key": "C",
        "scale": "major",
        "ticks": 0
      }
    ],
    "meta": [
      {
        "text": "标记 ##",
        "ticks": 0,
        "type": "marker"
      }
    ],
    "name": "",
    "ppq": 480,
    "tempos": [
      {
        "bpm": 80.00512032770098,
        "ticks": 0
      }
    ],
    "timeSignatures": [
      {
        "ticks": 0,
        "timeSignature": [
          4,
          4
        ],
        "measures": 0
      }
    ]
  },
  "tracks": [
    {
      "channel": 0,
      "controlChanges": {
        "0": [
          {
            "number": 0,
            "ticks": 505,
            "time": 0.7890119999999999,
            "value": 0
          }
        ],
        "32": [
          {
            "number": 32,
            "ticks": 510,
            "time": 0.796824,
            "value": 0
          }
        ]
      },
      "pitchBends": [],
      "instrument": {
        "family": "piano",
        "number": 0,
        "name": "acoustic grand piano"
      },
      "name": "       ",
      "notes": [],
      "endOfTrackTicks": 218880
    },
    {
      "channel": 1,
      "controlChanges": {
        "7": [
          {
            "number": 7,
            "ticks": 520,
            "time": 0.812448,
            "value": 0.8267716535433071
          }
        ],
        "10": [
          {
            "number": 10,
            "ticks": 520,
            "time": 0.812448,
            "value": 0.5039370078740157
          }
        ],
        "11": [
          {
            "number": 11,
            "ticks": 520,
            "time": 0.812448,
            "value": 0.6377952755905512
          },
          {
            "number": 11,
            "ticks": 8775,
            "time": 13.710059999999999,
            "value": 0.6456692913385826
          },
          {
            "number": 11,
            "ticks": 8795,
            "time": 13.741308,
            "value": 0.6535433070866141
          },
          {
            "number": 11,
            "ticks": 8835,
            "time": 13.803804,
            "value": 0.6614173228346457
          },
          {
            "number": 11,
            "ticks": 8875,
            "time": 13.866299999999999,
            "value": 0.6692913385826772
          },
          {
            "number": 11,
            "ticks": 8895,
            "time": 13.897547999999999,
            "value": 0.6771653543307087
          },
          {
            "number": 11,
            "ticks": 8935,
            "time": 13.960043999999998,
            "value": 0.6850393700787402
          },
          {
            "number": 11,
            "ticks": 8955,
            "time": 13.991292,
            "value": 0.6929133858267716
          },
          {
            "number": 11,
            "ticks": 8995,
            "time": 14.053787999999999,
            "value": 0.7007874015748031
          },
          {
            "number": 11,
            "ticks": 9015,
            "time": 14.085035999999999,
            "value": 0.7086614173228346
          },
          {
            "number": 11,
            "ticks": 9055,
            "time": 14.147531999999998,
            "value": 0.7165354330708661
          },
          {
            "number": 11,
            "ticks": 9095,
            "time": 14.210028,
            "value": 0.7244094488188977
          },
          {
            "number": 11,
            "ticks": 9115,
            "time": 14.241275999999997,
            "value": 0.7322834645669292
          },
          {
            "number": 11,
            "ticks": 9155,
            "time": 14.303772,
            "value": 0.7401574803149606
          },
          {
            "number": 11,
            "ticks": 9175,
            "time": 14.335019999999998,
            "value": 0.7480314960629921
          },
          {
            "number": 11,
            "ticks": 9215,
            "time": 14.397516,
            "value": 0.7559055118110236
          },
          {
            "number": 11,
            "ticks": 9235,
            "time": 14.428763999999997,
            "value": 0.7637795275590551
          },
          {
            "number": 11,
            "ticks": 9275,
            "time": 14.49126,
            "value": 0.7716535433070866
          },
          {
            "number": 11,
            "ticks": 9315,
            "time": 14.553756,
            "value": 0.7795275590551181
          },
          {
            "number": 11,
            "ticks": 9335,
            "time": 14.585004,
            "value": 0.7874015748031497
          },
          {
            "number": 11,
            "ticks": 9375,
            "time": 14.647499999999999,
            "value": 0.7952755905511811
          },
          {
            "number": 11,
            "ticks": 9395,
            "time": 14.678748,
            "value": 0.8031496062992126
          },
          {
            "number": 11,
            "ticks": 9425,
            "time": 14.72562,
            "value": 0.8110236220472441
          },
          {
            "number": 11,
            "ticks": 9435,
            "time": 14.741243999999998,
            "value": 0.8188976377952756
          },
          {
            "number": 11,
            "ticks": 9495,
            "time": 14.834988,
            "value": 0.8267716535433071
          },
          {
            "number": 11,
            "ticks": 9535,
            "time": 14.897483999999999,
            "value": 0.8346456692913385
          },
          {
            "number": 11,
            "ticks": 9555,
            "time": 14.928731999999998,
            "value": 0.84251968503937
          },
          {
            "number": 11,
            "ticks": 9595,
            "time": 14.991227999999998,
            "value": 0.8503937007874016
          },
          {
            "number": 11,
            "ticks": 9625,
            "time": 15.038099999999998,
            "value": 0.8582677165354331
          },
          {
            "number": 11,
            "ticks": 9655,
            "time": 15.084971999999999,
            "value": 0.8661417322834646
          },
          {
            "number": 11,
            "ticks": 9675,
            "time": 15.116219999999998,
            "value": 0.8740157480314961
          },
          {
            "number": 11,
            "ticks": 9715,
            "time": 15.178715999999998,
            "value": 0.8818897637795275
          },
          {
            "number": 11,
            "ticks": 9755,
            "time": 15.241211999999999,
            "value": 0.889763779527559
          },
          {
            "number": 11,
            "ticks": 9775,
            "time": 15.272459999999999,
            "value": 0.8976377952755905
          },
          {
            "number": 11,
            "ticks": 9815,
            "time": 15.334956,
            "value": 0.905511811023622
          },
          {
            "number": 11,
            "ticks": 9835,
            "time": 15.366203999999998,
            "value": 0.9133858267716536
          },
          {
            "number": 11,
            "ticks": 9875,
            "time": 15.4287,
            "value": 0.9212598425196851
          },
          {
            "number": 11,
            "ticks": 9895,
            "time": 15.459947999999999,
            "value": 0.9291338582677166
          },
          {
            "number": 11,
            "ticks": 9935,
            "time": 15.522444,
            "value": 0.937007874015748
          },
          {
            "number": 11,
            "ticks": 9965,
            "time": 15.569316,
            "value": 0.9448818897637795
          },
          {
            "number": 11,
            "ticks": 9975,
            "time": 15.58494,
            "value": 0.952755905511811
          },
          {
            "number": 11,
            "ticks": 10035,
            "time": 15.678683999999999,
            "value": 0.9606299212598425
          },
          {
            "number": 11,
            "ticks": 10055,
            "time": 15.709932,
            "value": 0.968503937007874
          },
          {
            "number": 11,
            "ticks": 10085,
            "time": 15.756804,
            "value": 0.9921259842519685
          },
          {
            "number": 11,
            "ticks": 10090,
            "time": 15.764615999999998,
            "value": 1
          }
        ],
        "91": [
          {
            "number": 91,
            "ticks": 525,
            "time": 0.82026,
            "value": 0.03937007874015748
          }
        ],
        "93": [
          {
            "number": 93,
            "ticks": 525,
            "time": 0.82026,
            "value": 0.07874015748031496
          }
        ]
      },
      "pitchBends": [],
      "instrument": {
        "family": "bass",
        "number": 35,
        "name": "fretless bass"
      },
      "name": "",
      "notes": [
        {
          "duration": 0.23436000000000057,
          "durationTicks": 150,
          "midi": 41,
          "name": "F2",
          "ticks": 8760,
          "time": 13.686623999999998,
          "velocity": 0.6929133858267716
        },
        {
          "duration": 0.1796760000000006,
          "durationTicks": 115,
          "midi": 46,
          "name": "A#2",
          "ticks": 8880,
          "time": 13.874111999999998,
          "velocity": 0.7165354330708661
        },
        {
          "duration": 0.17967599999999884,
          "durationTicks": 115,
          "midi": 48,
          "name": "C3",
          "ticks": 9000,
          "time": 14.061599999999999,
          "velocity": 0.7007874015748031
        },
        {
          "duration": 0.7577640000000017,
          "durationTicks": 485,
          "midi": 46,
          "name": "A#2",
          "ticks": 9120,
          "time": 14.249087999999999,
          "velocity": 0.7637795275590551
        },
        {
          "duration": 1.2108599999999985,
          "durationTicks": 775,
          "midi": 34,
          "name": "A#1",
          "ticks": 9600,
          "time": 14.999039999999999,
          "velocity": 0.7401574803149606
        },
        {
          "duration": 0.14061599999999785,
          "durationTicks": 90,
          "midi": 34,
          "name": "A#1",
          "ticks": 10440,
          "time": 16.311456,
          "velocity": 0.7401574803149606
        },
        {
          "duration": 1.2342960000000005,
          "durationTicks": 790,
          "midi": 34,
          "name": "A#1",
          "ticks": 10560,
          "time": 16.498943999999998,
          "velocity": 0.7401574803149606
        },
        {
          "duration": 0.14061599999999785,
          "durationTicks": 90,
          "midi": 34,
          "name": "A#1",
          "ticks": 11400,
          "time": 17.81136,
          "velocity": 0.7401574803149606
        },
        {
          "duration": 1.093679999999999,
          "durationTicks": 700,
          "midi": 46,
          "name": "A#2",
          "ticks": 11520,
          "time": 17.998848,
          "velocity": 0.7165354330708661
        },
        {
          "duration": 0.1640519999999981,
          "durationTicks": 105,
          "midi": 41,
          "name": "F2",
          "ticks": 12240,
          "time": 19.123776,
          "velocity": 0.6299212598425197
        },
        {
          "duration": 0.14842800000000267,
          "durationTicks": 95,
          "midi": 43,
          "name": "G2",
          "ticks": 12360,
          "time": 19.311263999999998,
          "velocity": 0.7165354330708661
        },
        {
          "duration": 1.3983479999999986,
          "durationTicks": 895,
          "midi": 41,
          "name": "F2",
          "ticks": 12480,
          "time": 19.498752,
          "velocity": 0.7874015748031497
        },
        {
          "duration": 1.1171159999999993,
          "durationTicks": 715,
          "midi": 34,
          "name": "A#1",
          "ticks": 13440,
          "time": 20.998655999999997,
          "velocity": 0.7480314960629921
        },
        {
          "duration": 0.18748800000000188,
          "durationTicks": 120,
          "midi": 34,
          "name": "A#1",
          "ticks": 14160,
          "time": 22.123583999999997,
          "velocity": 0.6062992125984252
        },
        {
          "duration": 0.18748799999999832,
          "durationTicks": 120,
          "midi": 34,
          "name": "A#1",
          "ticks": 14280,
          "time": 22.311072,
          "velocity": 0.6062992125984252
        },
        {
          "duration": 1.4999040000000008,
          "durationTicks": 960,
          "midi": 36,
          "name": "C2",
          "ticks": 14400,
          "time": 22.498559999999998,
          "velocity": 0.7165354330708661
        },
        {
          "duration": 1.1171160000000029,
          "durationTicks": 715,
          "midi": 38,
          "name": "D2",
          "ticks": 15360,
          "time": 23.998464,
          "velocity": 0.7007874015748031
        },
        {
          "duration": 0.3749760000000002,
          "durationTicks": 240,
          "midi": 38,
          "name": "D2",
          "ticks": 16080,
          "time": 25.123392,
          "velocity": 0.6929133858267716
        },
        {
          "duration": 1.3046040000000012,
          "durationTicks": 835,
          "midi": 41,
          "name": "F2",
          "ticks": 16320,
          "time": 25.498368,
          "velocity": 0.6929133858267716
        },
        {
          "duration": 0.18748800000000188,
          "durationTicks": 120,
          "midi": 41,
          "name": "F2",
          "ticks": 17160,
          "time": 26.810783999999998,
          "velocity": 0.6850393700787402
        },
        {
          "duration": 1.1171159999999993,
          "durationTicks": 715,
          "midi": 34,
          "name": "A#1",
          "ticks": 17280,
          "time": 26.998272,
          "velocity": 0.7480314960629921
        },
        {
          "duration": 0.17967600000000417,
          "durationTicks": 115,
          "midi": 34,
          "name": "A#1",
          "ticks": 18000,
          "time": 28.123199999999997,
          "velocity": 0.6062992125984252
        },
        {
          "duration": 0.18748799999999832,
          "durationTicks": 120,
          "midi": 34,
          "name": "A#1",
          "ticks": 18120,
          "time": 28.310688,
          "velocity": 0.6062992125984252
        },
        {
          "duration": 1.4999040000000008,
          "durationTicks": 960,
          "midi": 36,
          "name": "C2",
          "ticks": 18240,
          "time": 28.498175999999997,
          "velocity": 0.7165354330708661
        },
        {
          "duration": 1.1171160000000029,
          "durationTicks": 715,
          "midi": 38,
          "name": "D2",
          "ticks": 19200,
          "time": 29.998079999999998,
          "velocity": 0.7007874015748031
        },
        {
          "duration": 0.3749760000000002,
          "durationTicks": 240,
          "midi": 38,
          "name": "D2",
          "ticks": 19920,
          "time": 31.123008,
          "velocity": 0.6929133858267716
        },
        {
          "duration": 0.5624640000000021,
          "durationTicks": 360,
          "midi": 41,
          "name": "F2",
          "ticks": 20160,
          "time": 31.497984,
          "velocity": 0.6929133858267716
        },
        {
          "duration": 0.1796760000000006,
          "durationTicks": 115,
          "midi": 29,
          "name": "F1",
          "ticks": 20520,
          "time": 32.060448,
          "velocity": 0.6850393700787402
        },
        {
          "duration": 0.7499520000000004,
          "durationTicks": 480,
          "midi": 29,
          "name": "F1",
          "ticks": 20640,
          "time": 32.247935999999996,
          "velocity": 0.6850393700787402
        },
        {
          "duration": 1.1171160000000029,
          "durationTicks": 715,
          "midi": 34,
          "name": "A#1",
          "ticks": 21120,
          "time": 32.997887999999996,
          "velocity": 0.7480314960629921
        },
        {
          "duration": 0.18748799999999477,
          "durationTicks": 120,
          "midi": 34,
          "name": "A#1",
          "ticks": 21840,
          "time": 34.122816,
          "velocity": 0.6062992125984252
        },
        {
          "duration": 0.18748800000000188,
          "durationTicks": 120,
          "midi": 34,
          "name": "A#1",
          "ticks": 21960,
          "time": 34.310303999999995,
          "velocity": 0.6062992125984252
        },
        {
          "duration": 1.4999040000000008,
          "durationTicks": 960,
          "midi": 36,
          "name": "C2",
          "ticks": 22080,
          "time": 34.497792,
          "velocity": 0.7165354330708661
        },
        {
          "duration": 1.1171160000000029,
          "durationTicks": 715,
          "midi": 38,
          "name": "D2",
          "ticks": 23040,
          "time": 35.997696,
          "velocity": 0.7007874015748031
        },
        {
          "duration": 0.18748800000000188,
          "durationTicks": 120,
          "midi": 38,
          "name": "D2",
          "ticks": 23760,
          "time": 37.122623999999995,
          "velocity": 0.6929133858267716
        },
        {
          "duration": 0.18748800000000188,
          "durationTicks": 120,
          "midi": 38,
          "name": "D2",
          "ticks": 23880,
          "time": 37.310112,
          "velocity": 0.6929133858267716
        },
        {
          "duration": 1.3046039999999977,
          "durationTicks": 835,
          "midi": 41,
          "name": "F2",
          "ticks": 24000,
          "time": 37.4976,
          "velocity": 0.6929133858267716
        },
        {
          "duration": 0.18748800000000188,
          "durationTicks": 120,
          "midi": 41,
          "name": "F2",
          "ticks": 24840,
          "time": 38.810016,
          "velocity": 0.6850393700787402
        },
        {
          "duration": 1.1171160000000029,
          "durationTicks": 715,
          "midi": 34,
          "name": "A#1",
          "ticks": 24960,
          "time": 38.997504,
          "velocity": 0.7480314960629921
        },
        {
          "duration": 0.18748800000000188,
          "durationTicks": 120,
          "midi": 34,
          "name": "A#1",
          "ticks": 25680,
          "time": 40.122431999999996,
          "velocity": 0.6062992125984252
        },
        {
          "duration": 0.18748800000000188,
          "durationTicks": 120,
          "midi": 34,
          "name": "A#1",
          "ticks": 25800,
          "time": 40.30992,
          "velocity": 0.6062992125984252
        },
        {
          "duration": 1.4999039999999937,
          "durationTicks": 960,
          "midi": 36,
          "name": "C2",
          "ticks": 25920,
          "time": 40.497408,
          "velocity": 0.7165354330708661
        },
        {
          "duration": 1.3046040000000048,
          "durationTicks": 835,
          "midi": 38,
          "name": "D2",
          "ticks": 26880,
          "time": 41.997311999999994,
          "velocity": 0.7007874015748031
        },
        {
          "duration": 0.18748799999999477,
          "durationTicks": 120,
          "midi": 38,
          "name": "D2",
          "ticks": 27720,
          "time": 43.309728,
          "velocity": 0.6929133858267716
        },
        {
          "duration": 1.4999040000000008,
          "durationTicks": 960,
          "midi": 41,
          "name": "F2",
          "ticks": 27840,
          "time": 43.497215999999995,
          "velocity": 0.6929133858267716
        },
        {
          "duration": 1.4920920000000066,
          "durationTicks": 955,
          "midi": 36,
          "name": "C2",
          "ticks": 28800,
          "time": 44.997119999999995,
          "velocity": 0.8503937007874016
        },
        {
          "duration": 1.507716000000002,
          "durationTicks": 965,
          "midi": 38,
          "name": "D2",
          "ticks": 29760,
          "time": 46.497023999999996,
          "velocity": 0.7322834645669292
        },
        {
          "duration": 1.3046039999999977,
          "durationTicks": 835,
          "midi": 39,
          "name": "D#2",
          "ticks": 30720,
          "time": 47.996928,
          "velocity": 0.7952755905511811
        },
        {
          "duration": 0.09374400000000094,
          "durationTicks": 60,
          "midi": 39,
          "name": "D#2",
          "ticks": 31560,
          "time": 49.309343999999996,
          "velocity": 0.7795275590551181
        },
        {
          "duration": 1.507716000000002,
          "durationTicks": 965,
          "midi": 38,
          "name": "D2",
          "ticks": 31680,
          "time": 49.496832,
          "velocity": 0.7480314960629921
        },
        {
          "duration": 1.2655439999999984,
          "durationTicks": 810,
          "midi": 36,
          "name": "C2",
          "ticks": 32640,
          "time": 50.996736,
          "velocity": 0.7795275590551181
        },
        {
          "duration": 0.09374400000000094,
          "durationTicks": 60,
          "midi": 36,
          "name": "C2",
          "ticks": 33480,
          "time": 52.309152,
          "velocity": 0.7480314960629921
        },
        {
          "duration": 1.218671999999998,
          "durationTicks": 780,
          "midi": 36,
          "name": "C2",
          "ticks": 33600,
          "time": 52.49664,
          "velocity": 0.7952755905511811
        },
        {
          "duration": 0.09374400000000094,
          "durationTicks": 60,
          "midi": 36,
          "name": "C2",
          "ticks": 34440,
          "time": 53.809056,
          "velocity": 0.7637795275590551
        },
        {
          "duration": 1.1171159999999958,
          "durationTicks": 715,
          "midi": 41,
          "name": "F2",
          "ticks": 34560,
          "time": 53.996544,
          "velocity": 0.7952755905511811
        },
        {
          "duration": 0.2812320000000028,
          "durationTicks": 180,
          "midi": 53,
          "name": "F3",
          "ticks": 35280,
          "time": 55.121472,
          "velocity": 0.7874015748031497
        },
        {
          "duration": 0.18748799999999477,
          "durationTicks": 120,
          "midi": 48,
          "name": "C3",
          "ticks": 35400,
          "time": 55.30896,
          "velocity": 0.6771653543307087
        },
        {
          "duration": 1.1249280000000041,
          "durationTicks": 720,
          "midi": 41,
          "name": "F2",
          "ticks": 35520,
          "time": 55.496447999999994,
          "velocity": 0.6535433070866141
        },
        {
          "duration": 0.37497599999999665,
          "durationTicks": 240,
          "midi": 36,
          "name": "C2",
          "ticks": 36240,
          "time": 56.621376,
          "velocity": 0.7007874015748031
        },
        {
          "duration": 1.1718000000000046,
          "durationTicks": 750,
          "midi": 34,
          "name": "A#1",
          "ticks": 36480,
          "time": 56.996351999999995,
          "velocity": 0.8503937007874016
        },
        {
          "duration": 0.10936799999999636,
          "durationTicks": 70,
          "midi": 34,
          "name": "A#1",
          "ticks": 37320,
          "time": 58.30876799999999,
          "velocity": 0.7874015748031497
        },
        {
          "duration": 0.9843120000000027,
          "durationTicks": 630,
          "midi": 34,
          "name": "A#1",
          "ticks": 37440,
          "time": 58.496255999999995,
          "velocity": 0.7716535433070866
        },
        {
          "duration": 0.15623999999998972,
          "durationTicks": 100,
          "midi": 34,
          "name": "A#1",
          "ticks": 38160,
          "time": 59.621184,
          "velocity": 0.7401574803149606
        },
        {
          "duration": 0.1406160000000014,
          "durationTicks": 90,
          "midi": 43,
          "name": "G2",
          "ticks": 38280,
          "time": 59.808671999999994,
          "velocity": 0.8346456692913385
        },
        {
          "duration": 0.11717999999999762,
          "durationTicks": 75,
          "midi": 46,
          "name": "A#2",
          "ticks": 38400,
          "time": 59.996159999999996,
          "velocity": 0.7401574803149606
        },
        {
          "duration": 0.257795999999999,
          "durationTicks": 165,
          "midi": 48,
          "name": "C3",
          "ticks": 38520,
          "time": 60.183648,
          "velocity": 0.7401574803149606
        },
        {
          "duration": 1.5780240000000063,
          "durationTicks": 1010,
          "midi": 48,
          "name": "C3",
          "ticks": 38760,
          "time": 60.558623999999995,
          "velocity": 0.7244094488188977
        },
        {
          "duration": 0.23435999999999524,
          "durationTicks": 150,
          "midi": 48,
          "name": "C3",
          "ticks": 39840,
          "time": 62.246016,
          "velocity": 0.7559055118110236
        },
        {
          "duration": 0.22654799999999398,
          "durationTicks": 145,
          "midi": 43,
          "name": "G2",
          "ticks": 39960,
          "time": 62.433504,
          "velocity": 0.7716535433070866
        },
        {
          "duration": 0.10936799999999636,
          "durationTicks": 70,
          "midi": 41,
          "name": "F2",
          "ticks": 40080,
          "time": 62.620991999999994,
          "velocity": 0.7401574803149606
        },
        {
          "duration": 0.2031119999999973,
          "durationTicks": 130,
          "midi": 39,
          "name": "D#2",
          "ticks": 40200,
          "time": 62.808479999999996,
          "velocity": 0.6535433070866141
        },
        {
          "duration": 1.1327400000000054,
          "durationTicks": 725,
          "midi": 41,
          "name": "F2",
          "ticks": 40320,
          "time": 62.995968,
          "velocity": 0.8188976377952756
        },
        {
          "duration": 0.14842800000000977,
          "durationTicks": 95,
          "midi": 41,
          "name": "F2",
          "ticks": 41160,
          "time": 64.30838399999999,
          "velocity": 0.7716535433070866
        },
        {
          "duration": 1.1327400000000125,
          "durationTicks": 725,
          "midi": 29,
          "name": "F1",
          "ticks": 41280,
          "time": 64.49587199999999,
          "velocity": 0.8503937007874016
        },
        {
          "duration": 0.18748800000000188,
          "durationTicks": 120,
          "midi": 29,
          "name": "F1",
          "ticks": 42120,
          "time": 65.80828799999999,
          "velocity": 0.7874015748031497
        },
        {
          "duration": 1.2811679999999939,
          "durationTicks": 820,
          "midi": 34,
          "name": "A#1",
          "ticks": 42240,
          "time": 65.99577599999999,
          "velocity": 0.8976377952755905
        },
        {
          "duration": 0.18748800000000188,
          "durationTicks": 120,
          "midi": 29,
          "name": "F1",
          "ticks": 43080,
          "time": 67.30819199999999,
          "velocity": 0.7244094488188977
        },
        {
          "duration": 0.5780879999999939,
          "durationTicks": 370,
          "midi": 34,
          "name": "A#1",
          "ticks": 43200,
          "time": 67.49568,
          "velocity": 0.9448818897637795
        },
        {
          "duration": 0.19530000000000314,
          "durationTicks": 125,
          "midi": 29,
          "name": "F1",
          "ticks": 43560,
          "time": 68.058144,
          "velocity": 0.7244094488188977
        },
        {
          "duration": 0.7733879999999971,
          "durationTicks": 495,
          "midi": 33,
          "name": "A1",
          "ticks": 43680,
          "time": 68.245632,
          "velocity": 0.8346456692913385
        },
        {
          "duration": 1.2421080000000018,
          "durationTicks": 795,
          "midi": 31,
          "name": "G1",
          "ticks": 44160,
          "time": 68.995584,
          "velocity": 0.9212598425196851
        },
        {
          "duration": 0.1015560000000022,
          "durationTicks": 65,
          "midi": 31,
          "name": "G1",
          "ticks": 45000,
          "time": 70.30799999999999,
          "velocity": 0.7874015748031497
        },
        {
          "duration": 1.4295960000000036,
          "durationTicks": 915,
          "midi": 38,
          "name": "D2",
          "ticks": 45120,
          "time": 70.495488,
          "velocity": 0.6614173228346457
        },
        {
          "duration": 1.2264839999999992,
          "durationTicks": 785,
          "midi": 39,
          "name": "D#2",
          "ticks": 46080,
          "time": 71.995392,
          "velocity": 0.7401574803149606
        },
        {
          "duration": 0.10936800000000346,
          "durationTicks": 70,
          "midi": 39,
          "name": "D#2",
          "ticks": 46920,
          "time": 73.307808,
          "velocity": 0.8110236220472441
        },
        {
          "duration": 1.4608440000000087,
          "durationTicks": 935,
          "midi": 38,
          "name": "D2",
          "ticks": 47040,
          "time": 73.495296,
          "velocity": 0.8818897637795275
        },
        {
          "duration": 1.218671999999998,
          "durationTicks": 780,
          "midi": 36,
          "name": "C2",
          "ticks": 48000,
          "time": 74.9952,
          "velocity": 0.9212598425196851
        },
        {
          "duration": 0.09374400000000094,
          "durationTicks": 60,
          "midi": 36,
          "name": "C2",
          "ticks": 48840,
          "time": 76.307616,
          "velocity": 0.7401574803149606
        },
        {
          "duration": 1.4686559999999957,
          "durationTicks": 940,
          "midi": 41,
          "name": "F2",
          "ticks": 48960,
          "time": 76.495104,
          "velocity": 0.8818897637795275
        },
        {
          "duration": 1.1171159999999958,
          "durationTicks": 715,
          "midi": 34,
          "name": "A#1",
          "ticks": 49920,
          "time": 77.995008,
          "velocity": 0.8582677165354331
        },
        {
          "duration": 0.18748800000000188,
          "durationTicks": 120,
          "midi": 34,
          "name": "A#1",
          "ticks": 50760,
          "time": 79.307424,
          "velocity": 0.7637795275590551
        },
        {
          "duration": 0.9296279999999939,
          "durationTicks": 595,
          "midi": 34,
          "name": "A#1",
          "ticks": 50880,
          "time": 79.494912,
          "velocity": 0.8110236220472441
        },
        {
          "duration": 0.1015560000000022,
          "durationTicks": 65,
          "midi": 41,
          "name": "F2",
          "ticks": 51480,
          "time": 80.432352,
          "velocity": 0.7874015748031497
        },
        {
          "duration": 0.18748800000000188,
          "durationTicks": 120,
          "midi": 43,
          "name": "G2",
          "ticks": 51600,
          "time": 80.61984,
          "velocity": 0.5748031496062992
        },
        {
          "duration": 1.1171159999999958,
          "durationTicks": 715,
          "midi": 34,
          "name": "A#1",
          "ticks": 51840,
          "time": 80.994816,
          "velocity": 0.7480314960629921
        },
        {
          "duration": 0.19530000000000314,
          "durationTicks": 125,
          "midi": 41,
          "name": "F2",
          "ticks": 52560,
          "time": 82.119744,
          "velocity": 0.8582677165354331
        },
        {
          "duration": 0.1796759999999864,
          "durationTicks": 115,
          "midi": 43,
          "name": "G2",
          "ticks": 52680,
          "time": 82.307232,
          "velocity": 0.8582677165354331
        },
        {
          "duration": 1.312415999999999,
          "durationTicks": 840,
          "midi": 41,
          "name": "F2",
          "ticks": 52800,
          "time": 82.49472,
          "velocity": 0.8110236220472441
        },
        {
          "duration": 1.11711600000001,
          "durationTicks": 715,
          "midi": 34,
          "name": "A#1",
          "ticks": 53760,
          "time": 83.99462399999999,
          "velocity": 0.7480314960629921
        },
        {
          "duration": 0.18748800000000188,
          "durationTicks": 120,
          "midi": 34,
          "name": "A#1",
          "ticks": 54480,
          "time": 85.119552,
          "velocity": 0.6062992125984252
        },
        {
          "duration": 0.18748799999998766,
          "durationTicks": 120,
          "midi": 34,
          "name": "A#1",
          "ticks": 54600,
          "time": 85.30704,
          "velocity": 0.6062992125984252
        },
        {
          "duration": 1.4999040000000008,
          "durationTicks": 960,
          "midi": 36,
          "name": "C2",
          "ticks": 54720,
          "time": 85.49452799999999,
          "velocity": 0.7165354330708661
        },
        {
          "duration": 1.1093040000000087,
          "durationTicks": 710,
          "midi": 38,
          "name": "D2",
          "ticks": 55680,
          "time": 86.99443199999999,
          "velocity": 0.7007874015748031
        },
        {
          "duration": 0.37497599999998954,
          "durationTicks": 240,
          "midi": 38,
          "name": "D2",
          "ticks": 56400,
          "time": 88.11936,
          "velocity": 0.6929133858267716
        },
        {
          "duration": 1.3046039999999977,
          "durationTicks": 835,
          "midi": 41,
          "name": "F2",
          "ticks": 56640,
          "time": 88.49433599999999,
          "velocity": 0.6929133858267716
        },
        {
          "duration": 0.18748800000000188,
          "durationTicks": 120,
          "midi": 41,
          "name": "F2",
          "ticks": 57480,
          "time": 89.80675199999999,
          "velocity": 0.6850393700787402
        },
        {
          "duration": 1.1171159999999958,
          "durationTicks": 715,
          "midi": 34,
          "name": "A#1",
          "ticks": 57600,
          "time": 89.99423999999999,
          "velocity": 0.7480314960629921
        },
        {
          "duration": 0.18748800000000188,
          "durationTicks": 120,
          "midi": 34,
          "name": "A#1",
          "ticks": 58320,
          "time": 91.11916799999999,
          "velocity": 0.6062992125984252
        },
        {
          "duration": 0.18748800000000188,
          "durationTicks": 120,
          "midi": 34,
          "name": "A#1",
          "ticks": 58440,
          "time": 91.30665599999999,
          "velocity": 0.6062992125984252
        },
        {
          "duration": 1.4999040000000008,
          "durationTicks": 960,
          "midi": 36,
          "name": "C2",
          "ticks": 58560,
          "time": 91.49414399999999,
          "velocity": 0.7165354330708661
        },
        {
          "duration": 1.1171159999999958,
          "durationTicks": 715,
          "midi": 38,
          "name": "D2",
          "ticks": 59520,
          "time": 92.99404799999999,
          "velocity": 0.7007874015748031
        },
        {
          "duration": 0.37497600000000375,
          "durationTicks": 240,
          "midi": 38,
          "name": "D2",
          "ticks": 60240,
          "time": 94.11897599999999,
          "velocity": 0.6929133858267716
        },
        {
          "duration": 0.5624640000000056,
          "durationTicks": 360,
          "midi": 41,
          "name": "F2",
          "ticks": 60480,
          "time": 94.493952,
          "velocity": 0.6929133858267716
        },
        {
          "duration": 0.18748800000000188,
          "durationTicks": 120,
          "midi": 29,
          "name": "F1",
          "ticks": 60840,
          "time": 95.056416,
          "velocity": 0.6850393700787402
        },
        {
          "duration": 0.7499519999999933,
          "durationTicks": 480,
          "midi": 29,
          "name": "F1",
          "ticks": 60960,
          "time": 95.243904,
          "velocity": 0.6850393700787402
        },
        {
          "duration": 1.11711600000001,
          "durationTicks": 715,
          "midi": 34,
          "name": "A#1",
          "ticks": 61440,
          "time": 95.993856,
          "velocity": 0.7480314960629921
        },
        {
          "duration": 0.18748800000000188,
          "durationTicks": 120,
          "midi": 34,
          "name": "A#1",
          "ticks": 62160,
          "time": 97.11878399999999,
          "velocity": 0.6062992125984252
        },
        {
          "duration": 0.17967600000001482,
          "durationTicks": 115,
          "midi": 34,
          "name": "A#1",
          "ticks": 62280,
          "time": 97.30627199999999,
          "velocity": 0.6062992125984252
        },
        {
          "duration": 1.4999040000000008,
          "durationTicks": 960,
          "midi": 36,
          "name": "C2",
          "ticks": 62400,
          "time": 97.49376,
          "velocity": 0.7165354330708661
        },
        {
          "duration": 1.11711600000001,
          "durationTicks": 715,
          "midi": 38,
          "name": "D2",
          "ticks": 63360,
          "time": 98.993664,
          "velocity": 0.7007874015748031
        },
        {
          "duration": 0.18748800000000188,
          "durationTicks": 120,
          "midi": 38,
          "name": "D2",
          "ticks": 64080,
          "time": 100.11859199999999,
          "velocity": 0.6929133858267716
        },
        {
          "duration": 0.1796760000000006,
          "durationTicks": 115,
          "midi": 38,
          "name": "D2",
          "ticks": 64200,
          "time": 100.30608,
          "velocity": 0.6929133858267716
        },
        {
          "duration": 1.312415999999999,
          "durationTicks": 840,
          "midi": 41,
          "name": "F2",
          "ticks": 64320,
          "time": 100.493568,
          "velocity": 0.6929133858267716
        },
        {
          "duration": 0.18748800000000188,
          "durationTicks": 120,
          "midi": 41,
          "name": "F2",
          "ticks": 65160,
          "time": 101.805984,
          "velocity": 0.6850393700787402
        },
        {
          "duration": 1.11711600000001,
          "durationTicks": 715,
          "midi": 34,
          "name": "A#1",
          "ticks": 65280,
          "time": 101.993472,
          "velocity": 0.7480314960629921
        },
        {
          "duration": 0.18748800000000188,
          "durationTicks": 120,
          "midi": 34,
          "name": "A#1",
          "ticks": 66000,
          "time": 103.1184,
          "velocity": 0.6062992125984252
        },
        {
          "duration": 0.18748800000000188,
          "durationTicks": 120,
          "midi": 34,
          "name": "A#1",
          "ticks": 66120,
          "time": 103.305888,
          "velocity": 0.6062992125984252
        },
        {
          "duration": 1.4999040000000008,
          "durationTicks": 960,
          "midi": 36,
          "name": "C2",
          "ticks": 66240,
          "time": 103.493376,
          "velocity": 0.7165354330708661
        },
        {
          "duration": 1.3046039999999977,
          "durationTicks": 835,
          "midi": 38,
          "name": "D2",
          "ticks": 67200,
          "time": 104.99328,
          "velocity": 0.7007874015748031
        },
        {
          "duration": 0.1796760000000006,
          "durationTicks": 115,
          "midi": 38,
          "name": "D2",
          "ticks": 68040,
          "time": 106.305696,
          "velocity": 0.6929133858267716
        },
        {
          "duration": 1.4999040000000008,
          "durationTicks": 960,
          "midi": 41,
          "name": "F2",
          "ticks": 68160,
          "time": 106.493184,
          "velocity": 0.6929133858267716
        },
        {
          "duration": 1.4999039999999866,
          "durationTicks": 960,
          "midi": 36,
          "name": "C2",
          "ticks": 69120,
          "time": 107.993088,
          "velocity": 0.8503937007874016
        },
        {
          "duration": 1.5155280000000175,
          "durationTicks": 970,
          "midi": 38,
          "name": "D2",
          "ticks": 70080,
          "time": 109.49299199999999,
          "velocity": 0.7322834645669292
        },
        {
          "duration": 1.2967919999999964,
          "durationTicks": 830,
          "midi": 39,
          "name": "D#2",
          "ticks": 71040,
          "time": 110.99289599999999,
          "velocity": 0.7952755905511811
        },
        {
          "duration": 0.08593200000001389,
          "durationTicks": 55,
          "midi": 39,
          "name": "D#2",
          "ticks": 71880,
          "time": 112.30531199999999,
          "velocity": 0.7795275590551181
        },
        {
          "duration": 1.507716000000002,
          "durationTicks": 965,
          "midi": 38,
          "name": "D2",
          "ticks": 72000,
          "time": 112.49279999999999,
          "velocity": 0.7480314960629921
        },
        {
          "duration": 1.2655440000000056,
          "durationTicks": 810,
          "midi": 36,
          "name": "C2",
          "ticks": 72960,
          "time": 113.99270399999999,
          "velocity": 0.7795275590551181
        },
        {
          "duration": 0.09374400000000094,
          "durationTicks": 60,
          "midi": 36,
          "name": "C2",
          "ticks": 73800,
          "time": 115.30511999999999,
          "velocity": 0.7480314960629921
        },
        {
          "duration": 1.210860000000011,
          "durationTicks": 775,
          "midi": 36,
          "name": "C2",
          "ticks": 73920,
          "time": 115.49260799999999,
          "velocity": 0.7952755905511811
        },
        {
          "duration": 0.09374400000000094,
          "durationTicks": 60,
          "midi": 36,
          "name": "C2",
          "ticks": 74760,
          "time": 116.80502399999999,
          "velocity": 0.7637795275590551
        },
        {
          "duration": 1.11711600000001,
          "durationTicks": 715,
          "midi": 41,
          "name": "F2",
          "ticks": 74880,
          "time": 116.99251199999999,
          "velocity": 0.7952755905511811
        },
        {
          "duration": 0.2812320000000028,
          "durationTicks": 180,
          "midi": 53,
          "name": "F3",
          "ticks": 75600,
          "time": 118.11743999999999,
          "velocity": 0.7874015748031497
        },
        {
          "duration": 0.18748800000000188,
          "durationTicks": 120,
          "midi": 48,
          "name": "C3",
          "ticks": 75720,
          "time": 118.30492799999999,
          "velocity": 0.6771653543307087
        },
        {
          "duration": 1.124927999999997,
          "durationTicks": 720,
          "midi": 41,
          "name": "F2",
          "ticks": 75840,
          "time": 118.49241599999999,
          "velocity": 0.6535433070866141
        },
        {
          "duration": 0.37497600000000375,
          "durationTicks": 240,
          "midi": 36,
          "name": "C2",
          "ticks": 76560,
          "time": 119.61734399999999,
          "velocity": 0.7007874015748031
        },
        {
          "duration": 1.1718000000000046,
          "durationTicks": 750,
          "midi": 34,
          "name": "A#1",
          "ticks": 76800,
          "time": 119.99231999999999,
          "velocity": 0.8503937007874016
        },
        {
          "duration": 0.10936800000000346,
          "durationTicks": 70,
          "midi": 34,
          "name": "A#1",
          "ticks": 77640,
          "time": 121.30473599999999,
          "velocity": 0.7874015748031497
        },
        {
          "duration": 0.9843120000000027,
          "durationTicks": 630,
          "midi": 34,
          "name": "A#1",
          "ticks": 77760,
          "time": 121.492224,
          "velocity": 0.7716535433070866
        },
        {
          "duration": 0.15624000000001104,
          "durationTicks": 100,
          "midi": 34,
          "name": "A#1",
          "ticks": 78480,
          "time": 122.61715199999999,
          "velocity": 0.7401574803149606
        },
        {
          "duration": 0.13280400000000725,
          "durationTicks": 85,
          "midi": 43,
          "name": "G2",
          "ticks": 78600,
          "time": 122.80463999999999,
          "velocity": 0.8346456692913385
        },
        {
          "duration": 0.11718000000000472,
          "durationTicks": 75,
          "midi": 46,
          "name": "A#2",
          "ticks": 78720,
          "time": 122.992128,
          "velocity": 0.7401574803149606
        },
        {
          "duration": 0.24998399999999776,
          "durationTicks": 160,
          "midi": 48,
          "name": "C3",
          "ticks": 78840,
          "time": 123.179616,
          "velocity": 0.7401574803149606
        },
        {
          "duration": 1.5780239999999992,
          "durationTicks": 1010,
          "midi": 48,
          "name": "C3",
          "ticks": 79080,
          "time": 123.55459199999999,
          "velocity": 0.7244094488188977
        },
        {
          "duration": 0.23436000000000945,
          "durationTicks": 150,
          "midi": 48,
          "name": "C3",
          "ticks": 80160,
          "time": 125.24198399999999,
          "velocity": 0.7559055118110236
        },
        {
          "duration": 0.2265480000000082,
          "durationTicks": 145,
          "midi": 43,
          "name": "G2",
          "ticks": 80280,
          "time": 125.42947199999999,
          "velocity": 0.7716535433070866
        },
        {
          "duration": 0.10936800000000346,
          "durationTicks": 70,
          "midi": 41,
          "name": "F2",
          "ticks": 80400,
          "time": 125.61695999999999,
          "velocity": 0.7401574803149606
        },
        {
          "duration": 0.2031120000000044,
          "durationTicks": 130,
          "midi": 39,
          "name": "D#2",
          "ticks": 80520,
          "time": 125.804448,
          "velocity": 0.6535433070866141
        },
        {
          "duration": 1.1405519999999996,
          "durationTicks": 730,
          "midi": 41,
          "name": "F2",
          "ticks": 80640,
          "time": 125.991936,
          "velocity": 0.8188976377952756
        },
        {
          "duration": 0.14842799999999556,
          "durationTicks": 95,
          "midi": 41,
          "name": "F2",
          "ticks": 81480,
          "time": 127.304352,
          "velocity": 0.7716535433070866
        },
        {
          "duration": 1.132739999999984,
          "durationTicks": 725,
          "midi": 29,
          "name": "F1",
          "ticks": 81600,
          "time": 127.49184,
          "velocity": 0.8503937007874016
        },
        {
          "duration": 0.19530000000000314,
          "durationTicks": 125,
          "midi": 29,
          "name": "F1",
          "ticks": 82440,
          "time": 128.80425599999998,
          "velocity": 0.7874015748031497
        },
        {
          "duration": 1.281168000000008,
          "durationTicks": 820,
          "midi": 34,
          "name": "A#1",
          "ticks": 82560,
          "time": 128.99174399999998,
          "velocity": 0.8976377952755905
        },
        {
          "duration": 0.18748800000000188,
          "durationTicks": 120,
          "midi": 29,
          "name": "F1",
          "ticks": 83400,
          "time": 130.30416,
          "velocity": 0.7244094488188977
        },
        {
          "duration": 0.5780880000000082,
          "durationTicks": 370,
          "midi": 34,
          "name": "A#1",
          "ticks": 83520,
          "time": 130.491648,
          "velocity": 0.9448818897637795
        },
        {
          "duration": 0.19529999999997472,
          "durationTicks": 125,
          "midi": 29,
          "name": "F1",
          "ticks": 83880,
          "time": 131.054112,
          "velocity": 0.7244094488188977
        },
        {
          "duration": 0.7733879999999829,
          "durationTicks": 495,
          "midi": 33,
          "name": "A1",
          "ticks": 84000,
          "time": 131.2416,
          "velocity": 0.8346456692913385
        },
        {
          "duration": 1.2421080000000018,
          "durationTicks": 795,
          "midi": 31,
          "name": "G1",
          "ticks": 84480,
          "time": 131.99155199999998,
          "velocity": 0.9212598425196851
        },
        {
          "duration": 0.10155599999998799,
          "durationTicks": 65,
          "midi": 31,
          "name": "G1",
          "ticks": 85320,
          "time": 133.303968,
          "velocity": 0.7874015748031497
        },
        {
          "duration": 1.4295960000000036,
          "durationTicks": 915,
          "midi": 38,
          "name": "D2",
          "ticks": 85440,
          "time": 133.491456,
          "velocity": 0.6614173228346457
        },
        {
          "duration": 1.2264839999999992,
          "durationTicks": 785,
          "midi": 39,
          "name": "D#2",
          "ticks": 86400,
          "time": 134.99136,
          "velocity": 0.7401574803149606
        },
        {
          "duration": 0.10936799999998925,
          "durationTicks": 70,
          "midi": 39,
          "name": "D#2",
          "ticks": 87240,
          "time": 136.303776,
          "velocity": 0.8110236220472441
        },
        {
          "duration": 1.4608439999999803,
          "durationTicks": 935,
          "midi": 38,
          "name": "D2",
          "ticks": 87360,
          "time": 136.491264,
          "velocity": 0.8818897637795275
        },
        {
          "duration": 1.218671999999998,
          "durationTicks": 780,
          "midi": 36,
          "name": "C2",
          "ticks": 88320,
          "time": 137.991168,
          "velocity": 0.9212598425196851
        },
        {
          "duration": 0.09374399999998673,
          "durationTicks": 60,
          "midi": 36,
          "name": "C2",
          "ticks": 89160,
          "time": 139.303584,
          "velocity": 0.7401574803149606
        },
        {
          "duration": 1.4608439999999803,
          "durationTicks": 935,
          "midi": 41,
          "name": "F2",
          "ticks": 89280,
          "time": 139.491072,
          "velocity": 0.8818897637795275
        },
        {
          "duration": 1.3124160000000131,
          "durationTicks": 840,
          "midi": 34,
          "name": "A#1",
          "ticks": 90240,
          "time": 140.990976,
          "velocity": 0.8582677165354331
        },
        {
          "duration": 0.1796760000000006,
          "durationTicks": 115,
          "midi": 34,
          "name": "A#1",
          "ticks": 91080,
          "time": 142.303392,
          "velocity": 0.7637795275590551
        },
        {
          "duration": 0.27341999999998734,
          "durationTicks": 175,
          "midi": 46,
          "name": "A#2",
          "ticks": 91200,
          "time": 142.49088,
          "velocity": 0.7637795275590551
        },
        {
          "duration": 0.281232000000017,
          "durationTicks": 180,
          "midi": 46,
          "name": "A#2",
          "ticks": 91440,
          "time": 142.86585599999998,
          "velocity": 0.7637795275590551
        },
        {
          "duration": 0.281232000000017,
          "durationTicks": 180,
          "midi": 45,
          "name": "A2",
          "ticks": 91680,
          "time": 143.24083199999998,
          "velocity": 0.7480314960629921
        },
        {
          "duration": 0.3906000000000063,
          "durationTicks": 250,
          "midi": 45,
          "name": "A2",
          "ticks": 91920,
          "time": 143.615808,
          "velocity": 0.8110236220472441
        },
        {
          "duration": 1.1952359999999942,
          "durationTicks": 765,
          "midi": 32,
          "name": "G#1",
          "ticks": 92160,
          "time": 143.990784,
          "velocity": 0.7244094488188977
        },
        {
          "duration": 0.09374399999998673,
          "durationTicks": 60,
          "midi": 32,
          "name": "G#1",
          "ticks": 93000,
          "time": 145.3032,
          "velocity": 0.7165354330708661
        },
        {
          "duration": 0.7499520000000075,
          "durationTicks": 480,
          "midi": 32,
          "name": "G#1",
          "ticks": 93120,
          "time": 145.49068799999998,
          "velocity": 0.7165354330708661
        },
        {
          "duration": 0.7577640000000088,
          "durationTicks": 485,
          "midi": 32,
          "name": "G#1",
          "ticks": 93600,
          "time": 146.24063999999998,
          "velocity": 0.7165354330708661
        },
        {
          "duration": 1.1483639999999866,
          "durationTicks": 735,
          "midi": 34,
          "name": "A#1",
          "ticks": 94080,
          "time": 146.990592,
          "velocity": 0.7165354330708661
        },
        {
          "duration": 0.07812000000001262,
          "durationTicks": 50,
          "midi": 34,
          "name": "A#1",
          "ticks": 94920,
          "time": 148.30300799999998,
          "velocity": 0.7086614173228346
        },
        {
          "duration": 0.12499199999999178,
          "durationTicks": 80,
          "midi": 34,
          "name": "A#1",
          "ticks": 95040,
          "time": 148.49049599999998,
          "velocity": 0.7086614173228346
        },
        {
          "duration": 0.632772000000017,
          "durationTicks": 405,
          "midi": 34,
          "name": "A#1",
          "ticks": 95280,
          "time": 148.86547199999998,
          "velocity": 0.7086614173228346
        },
        {
          "duration": 0.3671640000000025,
          "durationTicks": 235,
          "midi": 34,
          "name": "A#1",
          "ticks": 95760,
          "time": 149.615424,
          "velocity": 0.7086614173228346
        },
        {
          "duration": 1.218671999999998,
          "durationTicks": 780,
          "midi": 32,
          "name": "G#1",
          "ticks": 96000,
          "time": 149.9904,
          "velocity": 0.7244094488188977
        },
        {
          "duration": 0.09374400000001515,
          "durationTicks": 60,
          "midi": 32,
          "name": "G#1",
          "ticks": 96840,
          "time": 151.30281599999998,
          "velocity": 0.7165354330708661
        },
        {
          "duration": 0.7499520000000075,
          "durationTicks": 480,
          "midi": 32,
          "name": "G#1",
          "ticks": 96960,
          "time": 151.49030399999998,
          "velocity": 0.7165354330708661
        },
        {
          "duration": 0.7577640000000088,
          "durationTicks": 485,
          "midi": 32,
          "name": "G#1",
          "ticks": 97440,
          "time": 152.240256,
          "velocity": 0.7165354330708661
        },
        {
          "duration": 1.1483639999999866,
          "durationTicks": 735,
          "midi": 34,
          "name": "A#1",
          "ticks": 97920,
          "time": 152.990208,
          "velocity": 0.7165354330708661
        },
        {
          "duration": 0.07812000000001262,
          "durationTicks": 50,
          "midi": 34,
          "name": "A#1",
          "ticks": 98760,
          "time": 154.30262399999998,
          "velocity": 0.7086614173228346
        },
        {
          "duration": 0.12499199999999178,
          "durationTicks": 80,
          "midi": 34,
          "name": "A#1",
          "ticks": 98880,
          "time": 154.49011199999998,
          "velocity": 0.7086614173228346
        },
        {
          "duration": 0.632772000000017,
          "durationTicks": 405,
          "midi": 34,
          "name": "A#1",
          "ticks": 99120,
          "time": 154.865088,
          "velocity": 0.7086614173228346
        },
        {
          "duration": 0.3671640000000025,
          "durationTicks": 235,
          "midi": 34,
          "name": "A#1",
          "ticks": 99600,
          "time": 155.61504,
          "velocity": 0.7086614173228346
        },
        {
          "duration": 1.1249279999999828,
          "durationTicks": 720,
          "midi": 31,
          "name": "G1",
          "ticks": 99840,
          "time": 155.990016,
          "velocity": 0.8582677165354331
        },
        {
          "duration": 0.08593200000001389,
          "durationTicks": 55,
          "midi": 31,
          "name": "G1",
          "ticks": 100680,
          "time": 157.30243199999998,
          "velocity": 0.6535433070866141
        },
        {
          "duration": 1.398348000000027,
          "durationTicks": 895,
          "midi": 38,
          "name": "D2",
          "ticks": 100800,
          "time": 157.48991999999998,
          "velocity": 0.8110236220472441
        },
        {
          "duration": 1.2342960000000005,
          "durationTicks": 790,
          "midi": 39,
          "name": "D#2",
          "ticks": 101760,
          "time": 158.989824,
          "velocity": 0.7244094488188977
        },
        {
          "duration": 0.11718000000001894,
          "durationTicks": 75,
          "midi": 39,
          "name": "D#2",
          "ticks": 102600,
          "time": 160.30223999999998,
          "velocity": 0.6771653543307087
        },
        {
          "duration": 1.3436639999999898,
          "durationTicks": 860,
          "midi": 38,
          "name": "D2",
          "ticks": 102720,
          "time": 160.48972799999999,
          "velocity": 0.7007874015748031
        },
        {
          "duration": 1.11711600000001,
          "durationTicks": 715,
          "midi": 36,
          "name": "C2",
          "ticks": 103680,
          "time": 161.989632,
          "velocity": 0.7637795275590551
        },
        {
          "duration": 0.11717999999999051,
          "durationTicks": 75,
          "midi": 39,
          "name": "D#2",
          "ticks": 104520,
          "time": 163.30204799999998,
          "velocity": 0.7244094488188977
        },
        {
          "duration": 0.382788000000005,
          "durationTicks": 245,
          "midi": 36,
          "name": "C2",
          "ticks": 104640,
          "time": 163.489536,
          "velocity": 0.5196850393700787
        },
        {
          "duration": 0.19530000000000314,
          "durationTicks": 125,
          "midi": 39,
          "name": "D#2",
          "ticks": 104880,
          "time": 163.864512,
          "velocity": 0.5196850393700787
        },
        {
          "duration": 0.11717999999999051,
          "durationTicks": 75,
          "midi": 41,
          "name": "F2",
          "ticks": 105000,
          "time": 164.052,
          "velocity": 0.5196850393700787
        },
        {
          "duration": 0.6093359999999848,
          "durationTicks": 390,
          "midi": 36,
          "name": "C2",
          "ticks": 105120,
          "time": 164.239488,
          "velocity": 0.7401574803149606
        },
        {
          "duration": 0.42965999999998417,
          "durationTicks": 275,
          "midi": 41,
          "name": "F2",
          "ticks": 105600,
          "time": 164.98944,
          "velocity": 0.8582677165354331
        },
        {
          "duration": 0.4452840000000151,
          "durationTicks": 285,
          "midi": 41,
          "name": "F2",
          "ticks": 105960,
          "time": 165.55190399999998,
          "velocity": 0.7716535433070866
        },
        {
          "duration": 0.9218160000000069,
          "durationTicks": 590,
          "midi": 41,
          "name": "F2",
          "ticks": 106320,
          "time": 166.11436799999998,
          "velocity": 0.7165354330708661
        },
        {
          "duration": 0.08593200000001389,
          "durationTicks": 55,
          "midi": 29,
          "name": "F1",
          "ticks": 106920,
          "time": 167.051808,
          "velocity": 0.8976377952755905
        },
        {
          "duration": 0.7890120000000138,
          "durationTicks": 505,
          "midi": 29,
          "name": "F1",
          "ticks": 107040,
          "time": 167.239296,
          "velocity": 0.8818897637795275
        },
        {
          "duration": 1.11711600000001,
          "durationTicks": 715,
          "midi": 34,
          "name": "A#1",
          "ticks": 107520,
          "time": 167.98924799999998,
          "velocity": 0.7480314960629921
        },
        {
          "duration": 0.1796760000000006,
          "durationTicks": 115,
          "midi": 34,
          "name": "A#1",
          "ticks": 108240,
          "time": 169.114176,
          "velocity": 0.6062992125984252
        },
        {
          "duration": 0.18748800000000188,
          "durationTicks": 120,
          "midi": 34,
          "name": "A#1",
          "ticks": 108360,
          "time": 169.301664,
          "velocity": 0.6062992125984252
        },
        {
          "duration": 1.4999039999999866,
          "durationTicks": 960,
          "midi": 36,
          "name": "C2",
          "ticks": 108480,
          "time": 169.489152,
          "velocity": 0.7165354330708661
        },
        {
          "duration": 1.11711600000001,
          "durationTicks": 715,
          "midi": 38,
          "name": "D2",
          "ticks": 109440,
          "time": 170.98905599999998,
          "velocity": 0.7007874015748031
        },
        {
          "duration": 0.37497600000000375,
          "durationTicks": 240,
          "midi": 38,
          "name": "D2",
          "ticks": 110160,
          "time": 172.113984,
          "velocity": 0.6929133858267716
        },
        {
          "duration": 1.3124159999999847,
          "durationTicks": 840,
          "midi": 41,
          "name": "F2",
          "ticks": 110400,
          "time": 172.48896,
          "velocity": 0.6929133858267716
        },
        {
          "duration": 0.18748800000000188,
          "durationTicks": 120,
          "midi": 41,
          "name": "F2",
          "ticks": 111240,
          "time": 173.80137599999998,
          "velocity": 0.6850393700787402
        },
        {
          "duration": 1.11711600000001,
          "durationTicks": 715,
          "midi": 34,
          "name": "A#1",
          "ticks": 111360,
          "time": 173.98886399999998,
          "velocity": 0.7480314960629921
        },
        {
          "duration": 0.18748800000000188,
          "durationTicks": 120,
          "midi": 34,
          "name": "A#1",
          "ticks": 112080,
          "time": 175.113792,
          "velocity": 0.6062992125984252
        },
        {
          "duration": 0.18748800000000188,
          "durationTicks": 120,
          "midi": 34,
          "name": "A#1",
          "ticks": 112200,
          "time": 175.30128,
          "velocity": 0.6062992125984252
        },
        {
          "duration": 1.4920920000000137,
          "durationTicks": 955,
          "midi": 36,
          "name": "C2",
          "ticks": 112320,
          "time": 175.488768,
          "velocity": 0.7165354330708661
        },
        {
          "duration": 1.11711600000001,
          "durationTicks": 715,
          "midi": 38,
          "name": "D2",
          "ticks": 113280,
          "time": 176.98867199999998,
          "velocity": 0.7007874015748031
        },
        {
          "duration": 0.37497600000000375,
          "durationTicks": 240,
          "midi": 38,
          "name": "D2",
          "ticks": 114000,
          "time": 178.1136,
          "velocity": 0.6929133858267716
        },
        {
          "duration": 0.5546520000000044,
          "durationTicks": 355,
          "midi": 41,
          "name": "F2",
          "ticks": 114240,
          "time": 178.488576,
          "velocity": 0.6929133858267716
        },
        {
          "duration": 0.18748800000000188,
          "durationTicks": 120,
          "midi": 29,
          "name": "F1",
          "ticks": 114600,
          "time": 179.05104,
          "velocity": 0.6850393700787402
        },
        {
          "duration": 0.7499519999999791,
          "durationTicks": 480,
          "midi": 29,
          "name": "F1",
          "ticks": 114720,
          "time": 179.238528,
          "velocity": 0.6850393700787402
        },
        {
          "duration": 1.1093040000000087,
          "durationTicks": 710,
          "midi": 34,
          "name": "A#1",
          "ticks": 115200,
          "time": 179.98847999999998,
          "velocity": 0.7480314960629921
        },
        {
          "duration": 0.18748800000000188,
          "durationTicks": 120,
          "midi": 34,
          "name": "A#1",
          "ticks": 115920,
          "time": 181.113408,
          "velocity": 0.6062992125984252
        },
        {
          "duration": 0.18748800000000188,
          "durationTicks": 120,
          "midi": 34,
          "name": "A#1",
          "ticks": 116040,
          "time": 181.300896,
          "velocity": 0.6062992125984252
        },
        {
          "duration": 1.4920919999999853,
          "durationTicks": 955,
          "midi": 36,
          "name": "C2",
          "ticks": 116160,
          "time": 181.488384,
          "velocity": 0.7165354330708661
        },
        {
          "duration": 1.11711600000001,
          "durationTicks": 715,
          "midi": 38,
          "name": "D2",
          "ticks": 117120,
          "time": 182.98828799999998,
          "velocity": 0.7007874015748031
        },
        {
          "duration": 0.18748800000000188,
          "durationTicks": 120,
          "midi": 38,
          "name": "D2",
          "ticks": 117840,
          "time": 184.113216,
          "velocity": 0.6929133858267716
        },
        {
          "duration": 0.18748800000000188,
          "durationTicks": 120,
          "midi": 38,
          "name": "D2",
          "ticks": 117960,
          "time": 184.300704,
          "velocity": 0.6929133858267716
        },
        {
          "duration": 1.3124159999999847,
          "durationTicks": 840,
          "midi": 41,
          "name": "F2",
          "ticks": 118080,
          "time": 184.488192,
          "velocity": 0.6929133858267716
        },
        {
          "duration": 0.18748800000000188,
          "durationTicks": 120,
          "midi": 41,
          "name": "F2",
          "ticks": 118920,
          "time": 185.80060799999998,
          "velocity": 0.6850393700787402
        },
        {
          "duration": 1.11711600000001,
          "durationTicks": 715,
          "midi": 34,
          "name": "A#1",
          "ticks": 119040,
          "time": 185.98809599999998,
          "velocity": 0.7480314960629921
        },
        {
          "duration": 0.18748800000000188,
          "durationTicks": 120,
          "midi": 34,
          "name": "A#1",
          "ticks": 119760,
          "time": 187.113024,
          "velocity": 0.6062992125984252
        },
        {
          "duration": 0.18748800000000188,
          "durationTicks": 120,
          "midi": 34,
          "name": "A#1",
          "ticks": 119880,
          "time": 187.300512,
          "velocity": 0.6062992125984252
        },
        {
          "duration": 1.4999039999999866,
          "durationTicks": 960,
          "midi": 36,
          "name": "C2",
          "ticks": 120000,
          "time": 187.488,
          "velocity": 0.7165354330708661
        },
        {
          "duration": 1.3046040000000119,
          "durationTicks": 835,
          "midi": 38,
          "name": "D2",
          "ticks": 120960,
          "time": 188.987904,
          "velocity": 0.7007874015748031
        },
        {
          "duration": 0.18748800000000188,
          "durationTicks": 120,
          "midi": 38,
          "name": "D2",
          "ticks": 121800,
          "time": 190.30032,
          "velocity": 0.6929133858267716
        },
        {
          "duration": 1.4999039999999866,
          "durationTicks": 960,
          "midi": 41,
          "name": "F2",
          "ticks": 121920,
          "time": 190.487808,
          "velocity": 0.6929133858267716
        },
        {
          "duration": 1.4920919999999853,
          "durationTicks": 955,
          "midi": 36,
          "name": "C2",
          "ticks": 122880,
          "time": 191.987712,
          "velocity": 0.8503937007874016
        },
        {
          "duration": 1.515527999999989,
          "durationTicks": 970,
          "midi": 38,
          "name": "D2",
          "ticks": 123840,
          "time": 193.48761599999997,
          "velocity": 0.7322834645669292
        },
        {
          "duration": 1.2889800000000093,
          "durationTicks": 825,
          "midi": 39,
          "name": "D#2",
          "ticks": 124800,
          "time": 194.98752,
          "velocity": 0.7952755905511811
        },
        {
          "duration": 0.09374400000001515,
          "durationTicks": 60,
          "midi": 39,
          "name": "D#2",
          "ticks": 125640,
          "time": 196.29993599999997,
          "velocity": 0.7795275590551181
        },
        {
          "duration": 1.5077160000000163,
          "durationTicks": 965,
          "midi": 38,
          "name": "D2",
          "ticks": 125760,
          "time": 196.48742399999998,
          "velocity": 0.7480314960629921
        },
        {
          "duration": 1.2655440000000056,
          "durationTicks": 810,
          "midi": 36,
          "name": "C2",
          "ticks": 126720,
          "time": 197.987328,
          "velocity": 0.7795275590551181
        },
        {
          "duration": 0.09374400000001515,
          "durationTicks": 60,
          "midi": 36,
          "name": "C2",
          "ticks": 127560,
          "time": 199.29974399999998,
          "velocity": 0.7480314960629921
        },
        {
          "duration": 1.218671999999998,
          "durationTicks": 780,
          "midi": 36,
          "name": "C2",
          "ticks": 127680,
          "time": 199.48723199999998,
          "velocity": 0.7952755905511811
        },
        {
          "duration": 0.09374399999998673,
          "durationTicks": 60,
          "midi": 36,
          "name": "C2",
          "ticks": 128520,
          "time": 200.799648,
          "velocity": 0.7637795275590551
        },
        {
          "duration": 1.1171159999999816,
          "durationTicks": 715,
          "midi": 41,
          "name": "F2",
          "ticks": 128640,
          "time": 200.987136,
          "velocity": 0.7952755905511811
        },
        {
          "duration": 0.281232000000017,
          "durationTicks": 180,
          "midi": 53,
          "name": "F3",
          "ticks": 129360,
          "time": 202.11206399999998,
          "velocity": 0.7874015748031497
        },
        {
          "duration": 0.1796760000000006,
          "durationTicks": 115,
          "midi": 48,
          "name": "C3",
          "ticks": 129480,
          "time": 202.29955199999998,
          "velocity": 0.6771653543307087
        },
        {
          "duration": 1.1249280000000113,
          "durationTicks": 720,
          "midi": 41,
          "name": "F2",
          "ticks": 129600,
          "time": 202.48703999999998,
          "velocity": 0.6535433070866141
        },
        {
          "duration": 0.37497600000000375,
          "durationTicks": 240,
          "midi": 36,
          "name": "C2",
          "ticks": 130320,
          "time": 203.611968,
          "velocity": 0.7007874015748031
        },
        {
          "duration": 1.1717999999999904,
          "durationTicks": 750,
          "midi": 34,
          "name": "A#1",
          "ticks": 130560,
          "time": 203.986944,
          "velocity": 0.8503937007874016
        },
        {
          "duration": 0.09374400000001515,
          "durationTicks": 60,
          "midi": 34,
          "name": "A#1",
          "ticks": 131400,
          "time": 205.29935999999998,
          "velocity": 0.7874015748031497
        },
        {
          "duration": 0.984312000000017,
          "durationTicks": 630,
          "midi": 34,
          "name": "A#1",
          "ticks": 131520,
          "time": 205.48684799999998,
          "velocity": 0.7716535433070866
        },
        {
          "duration": 0.1562399999999684,
          "durationTicks": 100,
          "midi": 34,
          "name": "A#1",
          "ticks": 132240,
          "time": 206.611776,
          "velocity": 0.7401574803149606
        },
        {
          "duration": 0.1406159999999943,
          "durationTicks": 90,
          "midi": 43,
          "name": "G2",
          "ticks": 132360,
          "time": 206.799264,
          "velocity": 0.8346456692913385
        },
        {
          "duration": 0.11717999999999051,
          "durationTicks": 75,
          "midi": 46,
          "name": "A#2",
          "ticks": 132480,
          "time": 206.986752,
          "velocity": 0.7401574803149606
        },
        {
          "duration": 0.2577959999999848,
          "durationTicks": 165,
          "midi": 48,
          "name": "C3",
          "ticks": 132600,
          "time": 207.17424,
          "velocity": 0.7401574803149606
        },
        {
          "duration": 1.5780240000000276,
          "durationTicks": 1010,
          "midi": 48,
          "name": "C3",
          "ticks": 132840,
          "time": 207.54921599999997,
          "velocity": 0.7244094488188977
        },
        {
          "duration": 0.23436000000000945,
          "durationTicks": 150,
          "midi": 48,
          "name": "C3",
          "ticks": 133920,
          "time": 209.236608,
          "velocity": 0.7559055118110236
        },
        {
          "duration": 0.22654799999997977,
          "durationTicks": 145,
          "midi": 43,
          "name": "G2",
          "ticks": 134040,
          "time": 209.424096,
          "velocity": 0.7716535433070866
        },
        {
          "duration": 0.10936799999998925,
          "durationTicks": 70,
          "midi": 41,
          "name": "F2",
          "ticks": 134160,
          "time": 209.611584,
          "velocity": 0.7401574803149606
        },
        {
          "duration": 0.20311199999997598,
          "durationTicks": 130,
          "midi": 39,
          "name": "D#2",
          "ticks": 134280,
          "time": 209.799072,
          "velocity": 0.6535433070866141
        },
        {
          "duration": 1.1327400000000125,
          "durationTicks": 725,
          "midi": 41,
          "name": "F2",
          "ticks": 134400,
          "time": 209.98656,
          "velocity": 0.8188976377952756
        },
        {
          "duration": 0.1406159999999943,
          "durationTicks": 90,
          "midi": 41,
          "name": "F2",
          "ticks": 135240,
          "time": 211.29897599999998,
          "velocity": 0.7716535433070866
        },
        {
          "duration": 1.1327400000000125,
          "durationTicks": 725,
          "midi": 29,
          "name": "F1",
          "ticks": 135360,
          "time": 211.48646399999998,
          "velocity": 0.8503937007874016
        },
        {
          "duration": 0.19530000000000314,
          "durationTicks": 125,
          "midi": 29,
          "name": "F1",
          "ticks": 136200,
          "time": 212.79888,
          "velocity": 0.7874015748031497
        },
        {
          "duration": 1.2811679999999797,
          "durationTicks": 820,
          "midi": 34,
          "name": "A#1",
          "ticks": 136320,
          "time": 212.986368,
          "velocity": 0.8976377952755905
        },
        {
          "duration": 0.18748800000000188,
          "durationTicks": 120,
          "midi": 29,
          "name": "F1",
          "ticks": 137160,
          "time": 214.29878399999998,
          "velocity": 0.7244094488188977
        },
        {
          "duration": 0.5780879999999797,
          "durationTicks": 370,
          "midi": 34,
          "name": "A#1",
          "ticks": 137280,
          "time": 214.48627199999999,
          "velocity": 0.9448818897637795
        },
        {
          "duration": 0.19530000000000314,
          "durationTicks": 125,
          "midi": 29,
          "name": "F1",
          "ticks": 137640,
          "time": 215.048736,
          "velocity": 0.7244094488188977
        },
        {
          "duration": 0.7733879999999829,
          "durationTicks": 495,
          "midi": 33,
          "name": "A1",
          "ticks": 137760,
          "time": 215.236224,
          "velocity": 0.8346456692913385
        },
        {
          "duration": 1.2421079999999733,
          "durationTicks": 795,
          "midi": 31,
          "name": "G1",
          "ticks": 138240,
          "time": 215.986176,
          "velocity": 0.9212598425196851
        },
        {
          "duration": 0.10155600000001641,
          "durationTicks": 65,
          "midi": 31,
          "name": "G1",
          "ticks": 139080,
          "time": 217.29859199999999,
          "velocity": 0.7874015748031497
        },
        {
          "duration": 1.4295960000000036,
          "durationTicks": 915,
          "midi": 38,
          "name": "D2",
          "ticks": 139200,
          "time": 217.48608,
          "velocity": 0.6614173228346457
        },
        {
          "duration": 1.2264840000000277,
          "durationTicks": 785,
          "midi": 39,
          "name": "D#2",
          "ticks": 140160,
          "time": 218.98598399999997,
          "velocity": 0.7401574803149606
        },
        {
          "duration": 0.10155600000001641,
          "durationTicks": 65,
          "midi": 39,
          "name": "D#2",
          "ticks": 141000,
          "time": 220.2984,
          "velocity": 0.8110236220472441
        },
        {
          "duration": 1.4686559999999815,
          "durationTicks": 940,
          "midi": 38,
          "name": "D2",
          "ticks": 141120,
          "time": 220.485888,
          "velocity": 0.8818897637795275
        },
        {
          "duration": 1.2264840000000277,
          "durationTicks": 785,
          "midi": 36,
          "name": "C2",
          "ticks": 142080,
          "time": 221.98579199999998,
          "velocity": 0.9212598425196851
        },
        {
          "duration": 0.09374399999998673,
          "durationTicks": 60,
          "midi": 36,
          "name": "C2",
          "ticks": 142920,
          "time": 223.298208,
          "velocity": 0.7401574803149606
        },
        {
          "duration": 1.4608440000000087,
          "durationTicks": 935,
          "midi": 41,
          "name": "F2",
          "ticks": 143040,
          "time": 223.485696,
          "velocity": 0.8818897637795275
        },
        {
          "duration": 1.3124160000000131,
          "durationTicks": 840,
          "midi": 34,
          "name": "A#1",
          "ticks": 144000,
          "time": 224.98559999999998,
          "velocity": 0.8582677165354331
        },
        {
          "duration": 0.18748800000000188,
          "durationTicks": 120,
          "midi": 34,
          "name": "A#1",
          "ticks": 144840,
          "time": 226.298016,
          "velocity": 0.7637795275590551
        },
        {
          "duration": 0.7890119999999854,
          "durationTicks": 505,
          "midi": 34,
          "name": "A#1",
          "ticks": 144960,
          "time": 226.485504,
          "velocity": 0.8582677165354331
        },
        {
          "duration": 0.8046359999999879,
          "durationTicks": 515,
          "midi": 33,
          "name": "A1",
          "ticks": 145440,
          "time": 227.235456,
          "velocity": 0.8582677165354331
        },
        {
          "duration": 1.1639879999999891,
          "durationTicks": 745,
          "midi": 36,
          "name": "C2",
          "ticks": 145920,
          "time": 227.98540799999998,
          "velocity": 0.9133858267716536
        },
        {
          "duration": 0.10936799999998925,
          "durationTicks": 70,
          "midi": 36,
          "name": "C2",
          "ticks": 146760,
          "time": 229.297824,
          "velocity": 0.8503937007874016
        },
        {
          "duration": 0.9764999999999873,
          "durationTicks": 625,
          "midi": 36,
          "name": "C2",
          "ticks": 146880,
          "time": 229.485312,
          "velocity": 0.8346456692913385
        },
        {
          "duration": 0.14842800000002399,
          "durationTicks": 95,
          "midi": 36,
          "name": "C2",
          "ticks": 147600,
          "time": 230.61023999999998,
          "velocity": 0.8031496062992126
        },
        {
          "duration": 0.1406159999999943,
          "durationTicks": 90,
          "midi": 45,
          "name": "A2",
          "ticks": 147720,
          "time": 230.79772799999998,
          "velocity": 0.8976377952755905
        },
        {
          "duration": 0.11718000000001894,
          "durationTicks": 75,
          "midi": 48,
          "name": "C3",
          "ticks": 147840,
          "time": 230.98521599999998,
          "velocity": 0.8031496062992126
        },
        {
          "duration": 0.24998399999998355,
          "durationTicks": 160,
          "midi": 50,
          "name": "D3",
          "ticks": 147960,
          "time": 231.17270399999998,
          "velocity": 0.8031496062992126
        },
        {
          "duration": 1.5780240000000276,
          "durationTicks": 1010,
          "midi": 50,
          "name": "D3",
          "ticks": 148200,
          "time": 231.54767999999999,
          "velocity": 0.7874015748031497
        },
        {
          "duration": 0.23436000000000945,
          "durationTicks": 150,
          "midi": 50,
          "name": "D3",
          "ticks": 149280,
          "time": 233.23507199999997,
          "velocity": 0.8188976377952756
        },
        {
          "duration": 0.2265480000000082,
          "durationTicks": 145,
          "midi": 45,
          "name": "A2",
          "ticks": 149400,
          "time": 233.42255999999998,
          "velocity": 0.8346456692913385
        },
        {
          "duration": 0.10936799999998925,
          "durationTicks": 70,
          "midi": 43,
          "name": "G2",
          "ticks": 149520,
          "time": 233.61004799999998,
          "velocity": 0.8031496062992126
        },
        {
          "duration": 0.21092400000000566,
          "durationTicks": 135,
          "midi": 41,
          "name": "F2",
          "ticks": 149640,
          "time": 233.79753599999998,
          "velocity": 0.7165354330708661
        },
        {
          "duration": 1.1327400000000125,
          "durationTicks": 725,
          "midi": 43,
          "name": "G2",
          "ticks": 149760,
          "time": 233.98502399999998,
          "velocity": 0.8818897637795275
        },
        {
          "duration": 0.14842799999999556,
          "durationTicks": 95,
          "midi": 43,
          "name": "G2",
          "ticks": 150600,
          "time": 235.29744,
          "velocity": 0.8346456692913385
        },
        {
          "duration": 1.1327400000000125,
          "durationTicks": 725,
          "midi": 31,
          "name": "G1",
          "ticks": 150720,
          "time": 235.484928,
          "velocity": 0.9133858267716536
        },
        {
          "duration": 0.19530000000003156,
          "durationTicks": 125,
          "midi": 31,
          "name": "G1",
          "ticks": 151560,
          "time": 236.79734399999998,
          "velocity": 0.8503937007874016
        },
        {
          "duration": 1.2733560000000068,
          "durationTicks": 815,
          "midi": 36,
          "name": "C2",
          "ticks": 151680,
          "time": 236.98483199999998,
          "velocity": 0.9606299212598425
        },
        {
          "duration": 0.18748800000000188,
          "durationTicks": 120,
          "midi": 31,
          "name": "G1",
          "ticks": 152520,
          "time": 238.297248,
          "velocity": 0.7874015748031497
        },
        {
          "duration": 0.5780879999999797,
          "durationTicks": 370,
          "midi": 36,
          "name": "C2",
          "ticks": 152640,
          "time": 238.484736,
          "velocity": 1
        },
        {
          "duration": 0.18748800000000188,
          "durationTicks": 120,
          "midi": 31,
          "name": "G1",
          "ticks": 153000,
          "time": 239.04719999999998,
          "velocity": 0.7874015748031497
        },
        {
          "duration": 0.7812000000000126,
          "durationTicks": 500,
          "midi": 35,
          "name": "B1",
          "ticks": 153120,
          "time": 239.23468799999998,
          "velocity": 0.8976377952755905
        },
        {
          "duration": 1.085868000000005,
          "durationTicks": 695,
          "midi": 33,
          "name": "A1",
          "ticks": 153600,
          "time": 239.98463999999998,
          "velocity": 0.8110236220472441
        },
        {
          "duration": 0.1406159999999943,
          "durationTicks": 90,
          "midi": 33,
          "name": "A1",
          "ticks": 154320,
          "time": 241.109568,
          "velocity": 0.7007874015748031
        },
        {
          "duration": 0.13280399999996462,
          "durationTicks": 85,
          "midi": 36,
          "name": "C2",
          "ticks": 154440,
          "time": 241.297056,
          "velocity": 0.8110236220472441
        },
        {
          "duration": 1.4295960000000036,
          "durationTicks": 915,
          "midi": 40,
          "name": "E2",
          "ticks": 154560,
          "time": 241.48454399999997,
          "velocity": 0.8818897637795275
        },
        {
          "duration": 1.2264839999999992,
          "durationTicks": 785,
          "midi": 41,
          "name": "F2",
          "ticks": 155520,
          "time": 242.984448,
          "velocity": 0.8031496062992126
        },
        {
          "duration": 0.10155600000001641,
          "durationTicks": 65,
          "midi": 41,
          "name": "F2",
          "ticks": 156360,
          "time": 244.29686399999997,
          "velocity": 0.8740157480314961
        },
        {
          "duration": 1.46865600000001,
          "durationTicks": 940,
          "midi": 40,
          "name": "E2",
          "ticks": 156480,
          "time": 244.48435199999997,
          "velocity": 0.9448818897637795
        },
        {
          "duration": 1.218671999999998,
          "durationTicks": 780,
          "midi": 38,
          "name": "D2",
          "ticks": 157440,
          "time": 245.984256,
          "velocity": 0.984251968503937
        },
        {
          "duration": 0.09374400000001515,
          "durationTicks": 60,
          "midi": 38,
          "name": "D2",
          "ticks": 158280,
          "time": 247.29667199999997,
          "velocity": 0.8031496062992126
        },
        {
          "duration": 1.4608440000000371,
          "durationTicks": 935,
          "midi": 43,
          "name": "G2",
          "ticks": 158400,
          "time": 247.48415999999997,
          "velocity": 0.9448818897637795
        },
        {
          "duration": 1.3046039999999834,
          "durationTicks": 835,
          "midi": 36,
          "name": "C2",
          "ticks": 159360,
          "time": 248.984064,
          "velocity": 0.9212598425196851
        },
        {
          "duration": 0.18748800000000188,
          "durationTicks": 120,
          "midi": 36,
          "name": "C2",
          "ticks": 160200,
          "time": 250.29647999999997,
          "velocity": 0.8267716535433071
        },
        {
          "duration": 0.6874560000000258,
          "durationTicks": 440,
          "midi": 36,
          "name": "C2",
          "ticks": 160320,
          "time": 250.48396799999998,
          "velocity": 0.9212598425196851
        },
        {
          "duration": 0.734328000000005,
          "durationTicks": 470,
          "midi": 35,
          "name": "B1",
          "ticks": 160800,
          "time": 251.23391999999998,
          "velocity": 0.9212598425196851
        },
        {
          "duration": 1.1639879999999891,
          "durationTicks": 745,
          "midi": 38,
          "name": "D2",
          "ticks": 161280,
          "time": 251.983872,
          "velocity": 0.9133858267716536
        },
        {
          "duration": 0.09374400000001515,
          "durationTicks": 60,
          "midi": 38,
          "name": "D2",
          "ticks": 162120,
          "time": 253.29628799999998,
          "velocity": 0.8503937007874016
        },
        {
          "duration": 0.9764999999999873,
          "durationTicks": 625,
          "midi": 38,
          "name": "D2",
          "ticks": 162240,
          "time": 253.48377599999998,
          "velocity": 0.8346456692913385
        },
        {
          "duration": 0.1562399999999684,
          "durationTicks": 100,
          "midi": 38,
          "name": "D2",
          "ticks": 162960,
          "time": 254.608704,
          "velocity": 0.8031496062992126
        },
        {
          "duration": 0.1406159999999943,
          "durationTicks": 90,
          "midi": 35,
          "name": "B1",
          "ticks": 163080,
          "time": 254.796192,
          "velocity": 0.8976377952755905
        },
        {
          "duration": 0.11717999999999051,
          "durationTicks": 75,
          "midi": 38,
          "name": "D2",
          "ticks": 163200,
          "time": 254.98368,
          "velocity": 0.8031496062992126
        },
        {
          "duration": 0.2577959999999848,
          "durationTicks": 165,
          "midi": 40,
          "name": "E2",
          "ticks": 163320,
          "time": 255.171168,
          "velocity": 0.8031496062992126
        },
        {
          "duration": 1.5780240000000276,
          "durationTicks": 1010,
          "midi": 40,
          "name": "E2",
          "ticks": 163560,
          "time": 255.54614399999997,
          "velocity": 0.7874015748031497
        },
        {
          "duration": 0.23436000000003787,
          "durationTicks": 150,
          "midi": 40,
          "name": "E2",
          "ticks": 164640,
          "time": 257.23353599999996,
          "velocity": 0.8188976377952756
        },
        {
          "duration": 0.22654799999997977,
          "durationTicks": 145,
          "midi": 35,
          "name": "B1",
          "ticks": 164760,
          "time": 257.421024,
          "velocity": 0.8346456692913385
        },
        {
          "duration": 0.10936800000001767,
          "durationTicks": 70,
          "midi": 33,
          "name": "A1",
          "ticks": 164880,
          "time": 257.60851199999996,
          "velocity": 0.8031496062992126
        },
        {
          "duration": 0.21092399999997724,
          "durationTicks": 135,
          "midi": 31,
          "name": "G1",
          "ticks": 165000,
          "time": 257.796,
          "velocity": 0.7165354330708661
        },
        {
          "duration": 1.1327400000000125,
          "durationTicks": 725,
          "midi": 33,
          "name": "A1",
          "ticks": 165120,
          "time": 257.98348799999997,
          "velocity": 0.8818897637795275
        },
        {
          "duration": 0.14842799999996714,
          "durationTicks": 95,
          "midi": 33,
          "name": "A1",
          "ticks": 165960,
          "time": 259.295904,
          "velocity": 0.8346456692913385
        },
        {
          "duration": 1.1327400000000125,
          "durationTicks": 725,
          "midi": 33,
          "name": "A1",
          "ticks": 166080,
          "time": 259.483392,
          "velocity": 0.9133858267716536
        },
        {
          "duration": 0.20311199999997598,
          "durationTicks": 130,
          "midi": 33,
          "name": "A1",
          "ticks": 166920,
          "time": 260.79580799999997,
          "velocity": 0.8503937007874016
        },
        {
          "duration": 1.2733559999999784,
          "durationTicks": 815,
          "midi": 38,
          "name": "D2",
          "ticks": 167040,
          "time": 260.983296,
          "velocity": 0.9606299212598425
        },
        {
          "duration": 0.1874880000000303,
          "durationTicks": 120,
          "midi": 33,
          "name": "A1",
          "ticks": 167880,
          "time": 262.295712,
          "velocity": 0.7874015748031497
        },
        {
          "duration": 0.5780879999999797,
          "durationTicks": 370,
          "midi": 38,
          "name": "D2",
          "ticks": 168000,
          "time": 262.4832,
          "velocity": 1
        },
        {
          "duration": 0.18748799999997345,
          "durationTicks": 120,
          "midi": 33,
          "name": "A1",
          "ticks": 168360,
          "time": 263.045664,
          "velocity": 0.7874015748031497
        },
        {
          "duration": 0.7812000000000126,
          "durationTicks": 500,
          "midi": 37,
          "name": "C#2",
          "ticks": 168480,
          "time": 263.23315199999996,
          "velocity": 0.8976377952755905
        },
        {
          "duration": 1.085868000000005,
          "durationTicks": 695,
          "midi": 35,
          "name": "B1",
          "ticks": 168960,
          "time": 263.98310399999997,
          "velocity": 0.8110236220472441
        },
        {
          "duration": 0.14061600000002272,
          "durationTicks": 90,
          "midi": 35,
          "name": "B1",
          "ticks": 169680,
          "time": 265.108032,
          "velocity": 0.7007874015748031
        },
        {
          "duration": 0.05468400000000884,
          "durationTicks": 35,
          "midi": 38,
          "name": "D2",
          "ticks": 169800,
          "time": 265.29552,
          "velocity": 0.8110236220472441
        },
        {
          "duration": 1.4295960000000036,
          "durationTicks": 915,
          "midi": 42,
          "name": "F#2",
          "ticks": 169920,
          "time": 265.483008,
          "velocity": 0.8818897637795275
        },
        {
          "duration": 1.2264839999999708,
          "durationTicks": 785,
          "midi": 43,
          "name": "G2",
          "ticks": 170880,
          "time": 266.982912,
          "velocity": 0.8031496062992126
        },
        {
          "duration": 0.10936799999996083,
          "durationTicks": 70,
          "midi": 43,
          "name": "G2",
          "ticks": 171720,
          "time": 268.295328,
          "velocity": 0.8740157480314961
        },
        {
          "duration": 1.4530320000000074,
          "durationTicks": 930,
          "midi": 42,
          "name": "F#2",
          "ticks": 171840,
          "time": 268.48281599999996,
          "velocity": 0.9448818897637795
        },
        {
          "duration": 1.2186720000000264,
          "durationTicks": 780,
          "midi": 40,
          "name": "E2",
          "ticks": 172800,
          "time": 269.98272,
          "velocity": 0.984251968503937
        },
        {
          "duration": 0.09374400000001515,
          "durationTicks": 60,
          "midi": 40,
          "name": "E2",
          "ticks": 173640,
          "time": 271.29513599999996,
          "velocity": 0.8031496062992126
        },
        {
          "duration": 1.4608440000000087,
          "durationTicks": 935,
          "midi": 33,
          "name": "A1",
          "ticks": 173760,
          "time": 271.482624,
          "velocity": 0.9448818897637795
        },
        {
          "duration": 1.3046039999999834,
          "durationTicks": 835,
          "midi": 38,
          "name": "D2",
          "ticks": 174720,
          "time": 272.982528,
          "velocity": 0.9212598425196851
        },
        {
          "duration": 0.19530000000003156,
          "durationTicks": 125,
          "midi": 38,
          "name": "D2",
          "ticks": 175560,
          "time": 274.294944,
          "velocity": 0.8267716535433071
        },
        {
          "duration": 0.5702760000000353,
          "durationTicks": 365,
          "midi": 38,
          "name": "D2",
          "ticks": 175680,
          "time": 274.48243199999996,
          "velocity": 1
        },
        {
          "duration": 0.18748799999997345,
          "durationTicks": 120,
          "midi": 33,
          "name": "A1",
          "ticks": 176040,
          "time": 275.044896,
          "velocity": 0.7874015748031497
        },
        {
          "duration": 0.7733880000000113,
          "durationTicks": 495,
          "midi": 37,
          "name": "C#2",
          "ticks": 176160,
          "time": 275.23238399999997,
          "velocity": 0.8976377952755905
        },
        {
          "duration": 1.085868000000005,
          "durationTicks": 695,
          "midi": 35,
          "name": "B1",
          "ticks": 176640,
          "time": 275.982336,
          "velocity": 0.8110236220472441
        },
        {
          "duration": 0.14061600000002272,
          "durationTicks": 90,
          "midi": 35,
          "name": "B1",
          "ticks": 177360,
          "time": 277.107264,
          "velocity": 0.7007874015748031
        },
        {
          "duration": 0.0624960000000101,
          "durationTicks": 40,
          "midi": 38,
          "name": "D2",
          "ticks": 177480,
          "time": 277.29475199999996,
          "velocity": 0.8110236220472441
        },
        {
          "duration": 1.4217840000000024,
          "durationTicks": 910,
          "midi": 42,
          "name": "F#2",
          "ticks": 177600,
          "time": 277.48224,
          "velocity": 0.8818897637795275
        },
        {
          "duration": 1.2264839999999708,
          "durationTicks": 785,
          "midi": 43,
          "name": "G2",
          "ticks": 178560,
          "time": 278.982144,
          "velocity": 0.8031496062992126
        },
        {
          "duration": 0.10936799999996083,
          "durationTicks": 70,
          "midi": 43,
          "name": "G2",
          "ticks": 179400,
          "time": 280.29456,
          "velocity": 0.8740157480314961
        },
        {
          "duration": 1.4608440000000087,
          "durationTicks": 935,
          "midi": 42,
          "name": "F#2",
          "ticks": 179520,
          "time": 280.48204799999996,
          "velocity": 0.9448818897637795
        },
        {
          "duration": 1.2186720000000264,
          "durationTicks": 780,
          "midi": 40,
          "name": "E2",
          "ticks": 180480,
          "time": 281.981952,
          "velocity": 0.984251968503937
        },
        {
          "duration": 0.09374400000001515,
          "durationTicks": 60,
          "midi": 40,
          "name": "E2",
          "ticks": 181320,
          "time": 283.29436799999996,
          "velocity": 0.8031496062992126
        },
        {
          "duration": 1.4608440000000087,
          "durationTicks": 935,
          "midi": 33,
          "name": "A1",
          "ticks": 181440,
          "time": 283.481856,
          "velocity": 0.9448818897637795
        },
        {
          "duration": 1.3046039999999834,
          "durationTicks": 835,
          "midi": 38,
          "name": "D2",
          "ticks": 182400,
          "time": 284.98176,
          "velocity": 0.9212598425196851
        },
        {
          "duration": 0.19529999999997472,
          "durationTicks": 125,
          "midi": 38,
          "name": "D2",
          "ticks": 183240,
          "time": 286.294176,
          "velocity": 0.8267716535433071
        },
        {
          "duration": 0.5702760000000353,
          "durationTicks": 365,
          "midi": 38,
          "name": "D2",
          "ticks": 183360,
          "time": 286.48166399999997,
          "velocity": 1
        },
        {
          "duration": 0.18748799999997345,
          "durationTicks": 120,
          "midi": 33,
          "name": "A1",
          "ticks": 183720,
          "time": 287.044128,
          "velocity": 0.7874015748031497
        },
        {
          "duration": 0.7733880000000113,
          "durationTicks": 495,
          "midi": 37,
          "name": "C#2",
          "ticks": 183840,
          "time": 287.231616,
          "velocity": 0.8976377952755905
        },
        {
          "duration": 1.085868000000005,
          "durationTicks": 695,
          "midi": 35,
          "name": "B1",
          "ticks": 184320,
          "time": 287.981568,
          "velocity": 0.8110236220472441
        },
        {
          "duration": 0.14061599999996588,
          "durationTicks": 90,
          "midi": 35,
          "name": "B1",
          "ticks": 185040,
          "time": 289.106496,
          "velocity": 0.7007874015748031
        },
        {
          "duration": 0.0624960000000101,
          "durationTicks": 40,
          "midi": 38,
          "name": "D2",
          "ticks": 185160,
          "time": 289.29398399999997,
          "velocity": 0.8110236220472441
        },
        {
          "duration": 1.4217839999999455,
          "durationTicks": 910,
          "midi": 42,
          "name": "F#2",
          "ticks": 185280,
          "time": 289.481472,
          "velocity": 0.8818897637795275
        },
        {
          "duration": 1.2264840000000277,
          "durationTicks": 785,
          "midi": 43,
          "name": "G2",
          "ticks": 186240,
          "time": 290.98137599999995,
          "velocity": 0.8031496062992126
        },
        {
          "duration": 0.10936799999996083,
          "durationTicks": 70,
          "midi": 43,
          "name": "G2",
          "ticks": 187080,
          "time": 292.293792,
          "velocity": 0.8740157480314961
        },
        {
          "duration": 1.4608440000000087,
          "durationTicks": 935,
          "midi": 42,
          "name": "F#2",
          "ticks": 187200,
          "time": 292.48127999999997,
          "velocity": 0.9448818897637795
        },
        {
          "duration": 1.2186719999999696,
          "durationTicks": 780,
          "midi": 40,
          "name": "E2",
          "ticks": 188160,
          "time": 293.981184,
          "velocity": 0.984251968503937
        },
        {
          "duration": 0.09374400000001515,
          "durationTicks": 60,
          "midi": 40,
          "name": "E2",
          "ticks": 189000,
          "time": 295.29359999999997,
          "velocity": 0.8031496062992126
        },
        {
          "duration": 1.4608440000000087,
          "durationTicks": 935,
          "midi": 33,
          "name": "A1",
          "ticks": 189120,
          "time": 295.481088,
          "velocity": 0.9448818897637795
        },
        {
          "duration": 1.2108600000000251,
          "durationTicks": 775,
          "midi": 38,
          "name": "D2",
          "ticks": 190080,
          "time": 296.98099199999996,
          "velocity": 0.7874015748031497
        },
        {
          "duration": 0.0937439999999583,
          "durationTicks": 60,
          "midi": 38,
          "name": "D2",
          "ticks": 190920,
          "time": 298.293408,
          "velocity": 0.7637795275590551
        },
        {
          "duration": 1.3046039999999834,
          "durationTicks": 835,
          "midi": 33,
          "name": "A1",
          "ticks": 191040,
          "time": 298.480896,
          "velocity": 0.7480314960629921
        },
        {
          "duration": 1.2186719999999696,
          "durationTicks": 780,
          "midi": 38,
          "name": "D2",
          "ticks": 192000,
          "time": 299.9808,
          "velocity": 0.7874015748031497
        },
        {
          "duration": 0.09374400000001515,
          "durationTicks": 60,
          "midi": 38,
          "name": "D2",
          "ticks": 192840,
          "time": 301.293216,
          "velocity": 0.7637795275590551
        },
        {
          "duration": 1.3046039999999834,
          "durationTicks": 835,
          "midi": 33,
          "name": "A1",
          "ticks": 192960,
          "time": 301.480704,
          "velocity": 0.7480314960629921
        },
        {
          "duration": 1.2186720000000264,
          "durationTicks": 780,
          "midi": 38,
          "name": "D2",
          "ticks": 193920,
          "time": 302.98060799999996,
          "velocity": 0.7874015748031497
        },
        {
          "duration": 0.0937439999999583,
          "durationTicks": 60,
          "midi": 38,
          "name": "D2",
          "ticks": 194760,
          "time": 304.293024,
          "velocity": 0.7637795275590551
        },
        {
          "duration": 1.3046039999999834,
          "durationTicks": 835,
          "midi": 33,
          "name": "A1",
          "ticks": 194880,
          "time": 304.480512,
          "velocity": 0.7480314960629921
        },
        {
          "duration": 1.2108599999999683,
          "durationTicks": 775,
          "midi": 38,
          "name": "D2",
          "ticks": 195840,
          "time": 305.980416,
          "velocity": 0.7874015748031497
        },
        {
          "duration": 0.09374400000001515,
          "durationTicks": 60,
          "midi": 38,
          "name": "D2",
          "ticks": 196680,
          "time": 307.292832,
          "velocity": 0.7637795275590551
        },
        {
          "duration": 1.2967919999999822,
          "durationTicks": 830,
          "midi": 33,
          "name": "A1",
          "ticks": 196800,
          "time": 307.48032,
          "velocity": 0.7480314960629921
        },
        {
          "duration": 1.2186720000000264,
          "durationTicks": 780,
          "midi": 38,
          "name": "D2",
          "ticks": 197760,
          "time": 308.98022399999996,
          "velocity": 0.7874015748031497
        },
        {
          "duration": 0.0937439999999583,
          "durationTicks": 60,
          "midi": 38,
          "name": "D2",
          "ticks": 198600,
          "time": 310.29264,
          "velocity": 0.7637795275590551
        },
        {
          "duration": 1.3046039999999834,
          "durationTicks": 835,
          "midi": 33,
          "name": "A1",
          "ticks": 198720,
          "time": 310.480128,
          "velocity": 0.7480314960629921
        },
        {
          "duration": 1.2108599999999683,
          "durationTicks": 775,
          "midi": 38,
          "name": "D2",
          "ticks": 199680,
          "time": 311.980032,
          "velocity": 0.7874015748031497
        },
        {
          "duration": 0.09374400000001515,
          "durationTicks": 60,
          "midi": 38,
          "name": "D2",
          "ticks": 200520,
          "time": 313.292448,
          "velocity": 0.7637795275590551
        },
        {
          "duration": 1.3046040000000403,
          "durationTicks": 835,
          "midi": 33,
          "name": "A1",
          "ticks": 200640,
          "time": 313.47993599999995,
          "velocity": 0.7480314960629921
        },
        {
          "duration": 1.2108600000000251,
          "durationTicks": 775,
          "midi": 38,
          "name": "D2",
          "ticks": 201600,
          "time": 314.97983999999997,
          "velocity": 0.7874015748031497
        },
        {
          "duration": 0.09374400000001515,
          "durationTicks": 60,
          "midi": 38,
          "name": "D2",
          "ticks": 202440,
          "time": 316.29225599999995,
          "velocity": 0.7637795275590551
        },
        {
          "duration": 1.3046039999999834,
          "durationTicks": 835,
          "midi": 33,
          "name": "A1",
          "ticks": 202560,
          "time": 316.479744,
          "velocity": 0.7480314960629921
        },
        {
          "duration": 1.2108599999999683,
          "durationTicks": 775,
          "midi": 38,
          "name": "D2",
          "ticks": 203520,
          "time": 317.979648,
          "velocity": 0.7874015748031497
        },
        {
          "duration": 0.09374400000001515,
          "durationTicks": 60,
          "midi": 38,
          "name": "D2",
          "ticks": 204360,
          "time": 319.292064,
          "velocity": 0.7637795275590551
        },
        {
          "duration": 1.296792000000039,
          "durationTicks": 830,
          "midi": 33,
          "name": "A1",
          "ticks": 204480,
          "time": 319.47955199999996,
          "velocity": 0.7480314960629921
        },
        {
          "duration": 1.2108599999999683,
          "durationTicks": 775,
          "midi": 38,
          "name": "D2",
          "ticks": 205440,
          "time": 320.97945599999997,
          "velocity": 0.7874015748031497
        },
        {
          "duration": 0.09374400000001515,
          "durationTicks": 60,
          "midi": 38,
          "name": "D2",
          "ticks": 206280,
          "time": 322.29187199999996,
          "velocity": 0.7637795275590551
        },
        {
          "duration": 1.3046039999999834,
          "durationTicks": 835,
          "midi": 33,
          "name": "A1",
          "ticks": 206400,
          "time": 322.47936,
          "velocity": 0.7480314960629921
        },
        {
          "duration": 1.2186719999999696,
          "durationTicks": 780,
          "midi": 38,
          "name": "D2",
          "ticks": 207360,
          "time": 323.979264,
          "velocity": 0.7874015748031497
        },
        {
          "duration": 0.09374400000001515,
          "durationTicks": 60,
          "midi": 38,
          "name": "D2",
          "ticks": 208200,
          "time": 325.29168,
          "velocity": 0.7637795275590551
        },
        {
          "duration": 1.3046039999999834,
          "durationTicks": 835,
          "midi": 33,
          "name": "A1",
          "ticks": 208320,
          "time": 325.47916799999996,
          "velocity": 0.7480314960629921
        },
        {
          "duration": 1.2108599999999683,
          "durationTicks": 775,
          "midi": 38,
          "name": "D2",
          "ticks": 209280,
          "time": 326.979072,
          "velocity": 0.7874015748031497
        },
        {
          "duration": 0.09374400000001515,
          "durationTicks": 60,
          "midi": 38,
          "name": "D2",
          "ticks": 210120,
          "time": 328.29148799999996,
          "velocity": 0.7637795275590551
        },
        {
          "duration": 1.3046039999999834,
          "durationTicks": 835,
          "midi": 33,
          "name": "A1",
          "ticks": 210240,
          "time": 328.478976,
          "velocity": 0.7480314960629921
        },
        {
          "duration": 1.2108599999999683,
          "durationTicks": 775,
          "midi": 38,
          "name": "D2",
          "ticks": 211200,
          "time": 329.97888,
          "velocity": 0.7874015748031497
        },
        {
          "duration": 0.09374400000001515,
          "durationTicks": 60,
          "midi": 38,
          "name": "D2",
          "ticks": 212040,
          "time": 331.291296,
          "velocity": 0.7637795275590551
        },
        {
          "duration": 1.296792000000039,
          "durationTicks": 830,
          "midi": 33,
          "name": "A1",
          "ticks": 212160,
          "time": 331.47878399999996,
          "velocity": 0.7480314960629921
        },
        {
          "duration": 2.796695999999997,
          "durationTicks": 1790,
          "midi": 38,
          "name": "D2",
          "ticks": 213120,
          "time": 332.978688,
          "velocity": 0.8110236220472441
        },
        {
          "duration": 0.18748799999997345,
          "durationTicks": 120,
          "midi": 38,
          "name": "D2",
          "ticks": 214920,
          "time": 335.791008,
          "velocity": 0.44881889763779526
        },
        {
          "duration": 2.9919960000000287,
          "durationTicks": 1915,
          "midi": 38,
          "name": "D2",
          "ticks": 215040,
          "time": 335.97849599999995,
          "velocity": 0.6535433070866141
        }
      ]
    },
    {
      "channel": 0,
      "controlChanges": {
        "0": [
          {
            "number": 0,
            "ticks": 555,
            "time": 0.8671319999999999,
            "value": 0
          }
        ],
        "32": [
          {
            "number": 32,
            "ticks": 560,
            "time": 0.8749439999999999,
            "value": 0
          }
        ]
      },
      "pitchBends": [],
      "instrument": {
        "family": "piano",
        "number": 0,
        "name": "acoustic grand piano"
      },
      "name": "       ",
      "notes": [],
      "endOfTrackTicks": 216960
    },
    {
      "channel": 3,
      "controlChanges": {
        "6": [
          {
            "number": 6,
            "ticks": 1040,
            "time": 1.624896,
            "value": 0.5433070866141733
          },
          {
            "number": 6,
            "ticks": 1055,
            "time": 1.6483319999999997,
            "value": 0.6771653543307087
          }
        ],
        "7": [
          {
            "number": 7,
            "ticks": 570,
            "time": 0.8905679999999999,
            "value": 0.8661417322834646
          }
        ],
        "10": [
          {
            "number": 10,
            "ticks": 570,
            "time": 0.8905679999999999,
            "value": 0.5039370078740157
          }
        ],
        "11": [
          {
            "number": 11,
            "ticks": 570,
            "time": 0.8905679999999999,
            "value": 1
          },
          {
            "number": 11,
            "ticks": 190105,
            "time": 297.02005199999996,
            "value": 1
          },
          {
            "number": 11,
            "ticks": 190150,
            "time": 297.09036,
            "value": 0.984251968503937
          },
          {
            "number": 11,
            "ticks": 190190,
            "time": 297.152856,
            "value": 0.9763779527559056
          },
          {
            "number": 11,
            "ticks": 190230,
            "time": 297.215352,
            "value": 0.968503937007874
          },
          {
            "number": 11,
            "ticks": 190245,
            "time": 297.238788,
            "value": 0.9606299212598425
          },
          {
            "number": 11,
            "ticks": 190270,
            "time": 297.27784799999995,
            "value": 0.952755905511811
          },
          {
            "number": 11,
            "ticks": 190290,
            "time": 297.30909599999995,
            "value": 0.9448818897637795
          },
          {
            "number": 11,
            "ticks": 190335,
            "time": 297.37940399999997,
            "value": 0.9291338582677166
          },
          {
            "number": 11,
            "ticks": 190370,
            "time": 297.434088,
            "value": 0.9212598425196851
          },
          {
            "number": 11,
            "ticks": 190390,
            "time": 297.465336,
            "value": 0.9133858267716536
          },
          {
            "number": 11,
            "ticks": 190430,
            "time": 297.527832,
            "value": 0.905511811023622
          },
          {
            "number": 11,
            "ticks": 190455,
            "time": 297.566892,
            "value": 0.8976377952755905
          },
          {
            "number": 11,
            "ticks": 190470,
            "time": 297.590328,
            "value": 0.889763779527559
          },
          {
            "number": 11,
            "ticks": 190490,
            "time": 297.621576,
            "value": 0.8818897637795275
          },
          {
            "number": 11,
            "ticks": 190525,
            "time": 297.67625999999996,
            "value": 0.8740157480314961
          },
          {
            "number": 11,
            "ticks": 190550,
            "time": 297.71532,
            "value": 0.8661417322834646
          },
          {
            "number": 11,
            "ticks": 190575,
            "time": 297.75437999999997,
            "value": 0.8582677165354331
          },
          {
            "number": 11,
            "ticks": 190590,
            "time": 297.777816,
            "value": 0.8503937007874016
          },
          {
            "number": 11,
            "ticks": 190630,
            "time": 297.840312,
            "value": 0.84251968503937
          },
          {
            "number": 11,
            "ticks": 190650,
            "time": 297.87156,
            "value": 0.8346456692913385
          },
          {
            "number": 11,
            "ticks": 190670,
            "time": 297.902808,
            "value": 0.8267716535433071
          },
          {
            "number": 11,
            "ticks": 190690,
            "time": 297.93405599999994,
            "value": 0.8188976377952756
          },
          {
            "number": 11,
            "ticks": 190730,
            "time": 297.996552,
            "value": 0.8110236220472441
          },
          {
            "number": 11,
            "ticks": 190750,
            "time": 298.02779999999996,
            "value": 0.8031496062992126
          },
          {
            "number": 11,
            "ticks": 190770,
            "time": 298.05904799999996,
            "value": 0.7952755905511811
          },
          {
            "number": 11,
            "ticks": 190790,
            "time": 298.090296,
            "value": 0.7874015748031497
          },
          {
            "number": 11,
            "ticks": 190825,
            "time": 298.14498,
            "value": 0.7795275590551181
          },
          {
            "number": 11,
            "ticks": 190850,
            "time": 298.18404,
            "value": 0.7716535433070866
          },
          {
            "number": 11,
            "ticks": 190870,
            "time": 298.215288,
            "value": 0.7559055118110236
          },
          {
            "number": 11,
            "ticks": 190935,
            "time": 298.316844,
            "value": 0.7480314960629921
          },
          {
            "number": 11,
            "ticks": 190950,
            "time": 298.34028,
            "value": 0.7401574803149606
          },
          {
            "number": 11,
            "ticks": 190970,
            "time": 298.371528,
            "value": 0.7322834645669292
          },
          {
            "number": 11,
            "ticks": 190990,
            "time": 298.40277599999996,
            "value": 0.7244094488188977
          },
          {
            "number": 11,
            "ticks": 191025,
            "time": 298.45745999999997,
            "value": 0.7165354330708661
          },
          {
            "number": 11,
            "ticks": 191055,
            "time": 298.504332,
            "value": 0.7007874015748031
          },
          {
            "number": 11,
            "ticks": 191090,
            "time": 298.559016,
            "value": 0.6929133858267716
          },
          {
            "number": 11,
            "ticks": 191130,
            "time": 298.621512,
            "value": 0.6850393700787402
          },
          {
            "number": 11,
            "ticks": 191145,
            "time": 298.644948,
            "value": 0.9212598425196851
          },
          {
            "number": 11,
            "ticks": 191150,
            "time": 298.65276,
            "value": 1
          }
        ],
        "91": [
          {
            "number": 91,
            "ticks": 575,
            "time": 0.89838,
            "value": 0.47244094488188976
          }
        ],
        "93": [
          {
            "number": 93,
            "ticks": 575,
            "time": 0.89838,
            "value": 0.07874015748031496
          }
        ],
        "98": [
          {
            "number": 98,
            "ticks": 1035,
            "time": 1.617084,
            "value": 0.07086614173228346
          },
          {
            "number": 98,
            "ticks": 1050,
            "time": 1.64052,
            "value": 0.8031496062992126
          }
        ],
        "99": [
          {
            "number": 99,
            "ticks": 1030,
            "time": 1.609272,
            "value": 0.007874015748031496
          },
          {
            "number": 99,
            "ticks": 1045,
            "time": 1.632708,
            "value": 0.007874015748031496
          }
        ],
        "100": [
          {
            "number": 100,
            "ticks": 1065,
            "time": 1.663956,
            "value": 1
          }
        ],
        "101": [
          {
            "number": 101,
            "ticks": 1060,
            "time": 1.656144,
            "value": 1
          }
        ]
      },
      "pitchBends": [],
      "instrument": {
        "family": "reed",
        "number": 65,
        "name": "alto sax"
      },
      "name": "",
      "notes": [
        {
          "duration": 0.3827879999999979,
          "durationTicks": 245,
          "midi": 53,
          "name": "F3",
          "ticks": 12960,
          "time": 20.248704,
          "velocity": 0.8503937007874016
        },
        {
          "duration": 0.19529999999999959,
          "durationTicks": 125,
          "midi": 55,
          "name": "G3",
          "ticks": 13200,
          "time": 20.62368,
          "velocity": 0.7401574803149606
        },
        {
          "duration": 0.8749439999999993,
          "durationTicks": 560,
          "midi": 58,
          "name": "A#3",
          "ticks": 13320,
          "time": 20.811168,
          "velocity": 0.7244094488188977
        },
        {
          "duration": 0.3749760000000002,
          "durationTicks": 240,
          "midi": 53,
          "name": "F3",
          "ticks": 13920,
          "time": 21.748607999999997,
          "velocity": 0.8031496062992126
        },
        {
          "duration": 0.1718640000000029,
          "durationTicks": 110,
          "midi": 58,
          "name": "A#3",
          "ticks": 14160,
          "time": 22.123583999999997,
          "velocity": 0.7401574803149606
        },
        {
          "duration": 0.9140039999999985,
          "durationTicks": 585,
          "midi": 60,
          "name": "C4",
          "ticks": 14280,
          "time": 22.311072,
          "velocity": 0.8503937007874016
        },
        {
          "duration": 0.3749760000000002,
          "durationTicks": 240,
          "midi": 58,
          "name": "A#3",
          "ticks": 14880,
          "time": 23.248511999999998,
          "velocity": 0.7559055118110236
        },
        {
          "duration": 0.16405200000000164,
          "durationTicks": 105,
          "midi": 60,
          "name": "C4",
          "ticks": 15120,
          "time": 23.623488,
          "velocity": 0.7401574803149606
        },
        {
          "duration": 0.578088000000001,
          "durationTicks": 370,
          "midi": 62,
          "name": "D4",
          "ticks": 15240,
          "time": 23.810976,
          "velocity": 0.7244094488188977
        },
        {
          "duration": 0.13280400000000014,
          "durationTicks": 85,
          "midi": 63,
          "name": "D#4",
          "ticks": 15600,
          "time": 24.37344,
          "velocity": 0.7086614173228346
        },
        {
          "duration": 0.5468399999999995,
          "durationTicks": 350,
          "midi": 65,
          "name": "F4",
          "ticks": 15720,
          "time": 24.560927999999997,
          "velocity": 0.8031496062992126
        },
        {
          "duration": 0.3827879999999979,
          "durationTicks": 245,
          "midi": 62,
          "name": "D4",
          "ticks": 16080,
          "time": 25.123392,
          "velocity": 0.8031496062992126
        },
        {
          "duration": 0.929628000000001,
          "durationTicks": 595,
          "midi": 60,
          "name": "C4",
          "ticks": 16320,
          "time": 25.498368,
          "velocity": 0.7244094488188977
        },
        {
          "duration": 0.1796760000000006,
          "durationTicks": 115,
          "midi": 53,
          "name": "F3",
          "ticks": 16920,
          "time": 26.435807999999998,
          "velocity": 0.7086614173228346
        },
        {
          "duration": 0.15624000000000038,
          "durationTicks": 100,
          "midi": 55,
          "name": "G3",
          "ticks": 17040,
          "time": 26.623296,
          "velocity": 0.7559055118110236
        },
        {
          "duration": 0.8983799999999995,
          "durationTicks": 575,
          "midi": 58,
          "name": "A#3",
          "ticks": 17160,
          "time": 26.810783999999998,
          "velocity": 0.7559055118110236
        },
        {
          "duration": 0.3827879999999979,
          "durationTicks": 245,
          "midi": 53,
          "name": "F3",
          "ticks": 17760,
          "time": 27.748223999999997,
          "velocity": 0.8031496062992126
        },
        {
          "duration": 0.17186399999999935,
          "durationTicks": 110,
          "midi": 58,
          "name": "A#3",
          "ticks": 18000,
          "time": 28.123199999999997,
          "velocity": 0.6929133858267716
        },
        {
          "duration": 0.5546520000000008,
          "durationTicks": 355,
          "midi": 60,
          "name": "C4",
          "ticks": 18120,
          "time": 28.310688,
          "velocity": 0.8976377952755905
        },
        {
          "duration": 0.3827879999999979,
          "durationTicks": 245,
          "midi": 63,
          "name": "D#4",
          "ticks": 18480,
          "time": 28.873151999999997,
          "velocity": 0.6929133858267716
        },
        {
          "duration": 0.35153999999999996,
          "durationTicks": 225,
          "midi": 62,
          "name": "D4",
          "ticks": 18720,
          "time": 29.248127999999998,
          "velocity": 0.7401574803149606
        },
        {
          "duration": 0.14842799999999912,
          "durationTicks": 95,
          "midi": 60,
          "name": "C4",
          "ticks": 18960,
          "time": 29.623103999999998,
          "velocity": 0.6456692913385826
        },
        {
          "duration": 0.5624639999999985,
          "durationTicks": 360,
          "midi": 67,
          "name": "G4",
          "ticks": 19080,
          "time": 29.810592,
          "velocity": 0.7401574803149606
        },
        {
          "duration": 1.632708000000001,
          "durationTicks": 1045,
          "midi": 65,
          "name": "F4",
          "ticks": 19440,
          "time": 30.373056,
          "velocity": 0.7244094488188977
        },
        {
          "duration": 0.23436000000000234,
          "durationTicks": 150,
          "midi": 53,
          "name": "F3",
          "ticks": 20640,
          "time": 32.247935999999996,
          "velocity": 0.8503937007874016
        },
        {
          "duration": 0.39841200000000043,
          "durationTicks": 255,
          "midi": 55,
          "name": "G3",
          "ticks": 20760,
          "time": 32.435424,
          "velocity": 0.8503937007874016
        },
        {
          "duration": 0.8749439999999922,
          "durationTicks": 560,
          "midi": 58,
          "name": "A#3",
          "ticks": 21000,
          "time": 32.8104,
          "velocity": 0.7637795275590551
        },
        {
          "duration": 0.37497600000000375,
          "durationTicks": 240,
          "midi": 53,
          "name": "F3",
          "ticks": 21600,
          "time": 33.74784,
          "velocity": 0.8031496062992126
        },
        {
          "duration": 0.1796760000000006,
          "durationTicks": 115,
          "midi": 58,
          "name": "A#3",
          "ticks": 21840,
          "time": 34.122816,
          "velocity": 0.7401574803149606
        },
        {
          "duration": 0.9140040000000056,
          "durationTicks": 585,
          "midi": 60,
          "name": "C4",
          "ticks": 21960,
          "time": 34.310303999999995,
          "velocity": 0.8503937007874016
        },
        {
          "duration": 0.18748800000000188,
          "durationTicks": 120,
          "midi": 58,
          "name": "A#3",
          "ticks": 22560,
          "time": 35.247744,
          "velocity": 0.7559055118110236
        },
        {
          "duration": 0.37497599999999665,
          "durationTicks": 240,
          "midi": 60,
          "name": "C4",
          "ticks": 22680,
          "time": 35.435232,
          "velocity": 0.7401574803149606
        },
        {
          "duration": 0.5702759999999998,
          "durationTicks": 365,
          "midi": 62,
          "name": "D4",
          "ticks": 22920,
          "time": 35.810207999999996,
          "velocity": 0.6299212598425197
        },
        {
          "duration": 0.13280400000000725,
          "durationTicks": 85,
          "midi": 63,
          "name": "D#4",
          "ticks": 23280,
          "time": 36.372671999999994,
          "velocity": 0.7086614173228346
        },
        {
          "duration": 0.5702759999999998,
          "durationTicks": 365,
          "midi": 65,
          "name": "F4",
          "ticks": 23400,
          "time": 36.560159999999996,
          "velocity": 0.8031496062992126
        },
        {
          "duration": 0.18748800000000188,
          "durationTicks": 120,
          "midi": 62,
          "name": "D4",
          "ticks": 23760,
          "time": 37.122623999999995,
          "velocity": 0.8031496062992126
        },
        {
          "duration": 0.929628000000001,
          "durationTicks": 595,
          "midi": 60,
          "name": "C4",
          "ticks": 23880,
          "time": 37.310112,
          "velocity": 0.7244094488188977
        },
        {
          "duration": 0.1796760000000006,
          "durationTicks": 115,
          "midi": 53,
          "name": "F3",
          "ticks": 24600,
          "time": 38.43504,
          "velocity": 0.7086614173228346
        },
        {
          "duration": 0.14842800000000267,
          "durationTicks": 95,
          "midi": 55,
          "name": "G3",
          "ticks": 24720,
          "time": 38.622527999999996,
          "velocity": 0.7559055118110236
        },
        {
          "duration": 0.898379999999996,
          "durationTicks": 575,
          "midi": 58,
          "name": "A#3",
          "ticks": 24840,
          "time": 38.810016,
          "velocity": 0.7559055118110236
        },
        {
          "duration": 0.19529999999999603,
          "durationTicks": 125,
          "midi": 53,
          "name": "F3",
          "ticks": 25440,
          "time": 39.747456,
          "velocity": 0.7244094488188977
        },
        {
          "duration": 0.37497600000000375,
          "durationTicks": 240,
          "midi": 58,
          "name": "A#3",
          "ticks": 25560,
          "time": 39.934943999999994,
          "velocity": 0.6929133858267716
        },
        {
          "duration": 0.546839999999996,
          "durationTicks": 350,
          "midi": 60,
          "name": "C4",
          "ticks": 25800,
          "time": 40.30992,
          "velocity": 0.8976377952755905
        },
        {
          "duration": 0.17186399999999935,
          "durationTicks": 110,
          "midi": 63,
          "name": "D#4",
          "ticks": 26160,
          "time": 40.872384,
          "velocity": 0.6929133858267716
        },
        {
          "duration": 0.5546519999999973,
          "durationTicks": 355,
          "midi": 62,
          "name": "D4",
          "ticks": 26280,
          "time": 41.059872,
          "velocity": 0.7401574803149606
        },
        {
          "duration": 0.3827879999999979,
          "durationTicks": 245,
          "midi": 60,
          "name": "C4",
          "ticks": 26640,
          "time": 41.622336,
          "velocity": 0.6456692913385826
        },
        {
          "duration": 0.5312160000000077,
          "durationTicks": 340,
          "midi": 67,
          "name": "G4",
          "ticks": 26880,
          "time": 41.997311999999994,
          "velocity": 0.7401574803149606
        },
        {
          "duration": 1.5780239999999992,
          "durationTicks": 1010,
          "midi": 65,
          "name": "F4",
          "ticks": 27240,
          "time": 42.559776,
          "velocity": 0.6299212598425197
        },
        {
          "duration": 0.08593200000000678,
          "durationTicks": 55,
          "midi": 58,
          "name": "A#3",
          "ticks": 28320,
          "time": 44.247167999999995,
          "velocity": 0.8031496062992126
        },
        {
          "duration": 0.578088000000001,
          "durationTicks": 370,
          "midi": 58,
          "name": "A#3",
          "ticks": 28440,
          "time": 44.434656,
          "velocity": 0.7795275590551181
        },
        {
          "duration": 0.49215600000000137,
          "durationTicks": 315,
          "midi": 67,
          "name": "G4",
          "ticks": 29040,
          "time": 45.372096,
          "velocity": 0.7244094488188977
        },
        {
          "duration": 0.5546520000000044,
          "durationTicks": 355,
          "midi": 70,
          "name": "A#4",
          "ticks": 29400,
          "time": 45.93456,
          "velocity": 0.6771653543307087
        },
        {
          "duration": 0.5312160000000006,
          "durationTicks": 340,
          "midi": 69,
          "name": "A4",
          "ticks": 29760,
          "time": 46.497023999999996,
          "velocity": 0.7559055118110236
        },
        {
          "duration": 0.39841200000000043,
          "durationTicks": 255,
          "midi": 65,
          "name": "F4",
          "ticks": 30120,
          "time": 47.059487999999995,
          "velocity": 0.7559055118110236
        },
        {
          "duration": 0.1015559999999951,
          "durationTicks": 65,
          "midi": 65,
          "name": "F4",
          "ticks": 30480,
          "time": 47.621952,
          "velocity": 0.7086614173228346
        },
        {
          "duration": 0.14842800000000267,
          "durationTicks": 95,
          "midi": 65,
          "name": "F4",
          "ticks": 30600,
          "time": 47.809439999999995,
          "velocity": 0.6929133858267716
        },
        {
          "duration": 0.3046679999999995,
          "durationTicks": 195,
          "midi": 67,
          "name": "G4",
          "ticks": 30720,
          "time": 47.996928,
          "velocity": 0.8031496062992126
        },
        {
          "duration": 0.15623999999999683,
          "durationTicks": 100,
          "midi": 65,
          "name": "F4",
          "ticks": 30960,
          "time": 48.371903999999994,
          "velocity": 0.7401574803149606
        },
        {
          "duration": 0.33591600000000454,
          "durationTicks": 215,
          "midi": 67,
          "name": "G4",
          "ticks": 31080,
          "time": 48.559391999999995,
          "velocity": 0.8976377952755905
        },
        {
          "duration": 0.1796759999999935,
          "durationTicks": 115,
          "midi": 58,
          "name": "A#3",
          "ticks": 31320,
          "time": 48.934368,
          "velocity": 0.7086614173228346
        },
        {
          "duration": 0.13280400000000014,
          "durationTicks": 85,
          "midi": 60,
          "name": "C4",
          "ticks": 31440,
          "time": 49.121855999999994,
          "velocity": 0.8031496062992126
        },
        {
          "duration": 0.37497600000000375,
          "durationTicks": 240,
          "midi": 62,
          "name": "D4",
          "ticks": 31560,
          "time": 49.309343999999996,
          "velocity": 0.7401574803149606
        },
        {
          "duration": 0.8202599999999975,
          "durationTicks": 525,
          "midi": 65,
          "name": "F4",
          "ticks": 31800,
          "time": 49.68432,
          "velocity": 0.7244094488188977
        },
        {
          "duration": 0.09374400000000094,
          "durationTicks": 60,
          "midi": 62,
          "name": "D4",
          "ticks": 32400,
          "time": 50.621759999999995,
          "velocity": 0.8031496062992126
        },
        {
          "duration": 0.08593199999999968,
          "durationTicks": 55,
          "midi": 62,
          "name": "D4",
          "ticks": 32520,
          "time": 50.809248,
          "velocity": 0.7086614173228346
        },
        {
          "duration": 0.1796759999999935,
          "durationTicks": 115,
          "midi": 62,
          "name": "D4",
          "ticks": 32640,
          "time": 50.996736,
          "velocity": 0.7559055118110236
        },
        {
          "duration": 0.2812320000000028,
          "durationTicks": 180,
          "midi": 60,
          "name": "C4",
          "ticks": 32760,
          "time": 51.18422399999999,
          "velocity": 0.6929133858267716
        },
        {
          "duration": 1.9295640000000063,
          "durationTicks": 1235,
          "midi": 60,
          "name": "C4",
          "ticks": 33000,
          "time": 51.5592,
          "velocity": 0.7401574803149606
        },
        {
          "duration": 0.1015560000000022,
          "durationTicks": 65,
          "midi": 55,
          "name": "G3",
          "ticks": 34320,
          "time": 53.621567999999996,
          "velocity": 0.7244094488188977
        },
        {
          "duration": 0.08593199999999257,
          "durationTicks": 55,
          "midi": 55,
          "name": "G3",
          "ticks": 34440,
          "time": 53.809056,
          "velocity": 0.6929133858267716
        },
        {
          "duration": 0.14842800000000267,
          "durationTicks": 95,
          "midi": 55,
          "name": "G3",
          "ticks": 34560,
          "time": 53.996544,
          "velocity": 0.7401574803149606
        },
        {
          "duration": 0.2656080000000074,
          "durationTicks": 170,
          "midi": 53,
          "name": "F3",
          "ticks": 34680,
          "time": 54.184031999999995,
          "velocity": 0.6771653543307087
        },
        {
          "duration": 1.0780559999999966,
          "durationTicks": 690,
          "midi": 53,
          "name": "F3",
          "ticks": 34920,
          "time": 54.559008,
          "velocity": 0.6929133858267716
        },
        {
          "duration": 0.37497600000000375,
          "durationTicks": 240,
          "midi": 53,
          "name": "F3",
          "ticks": 36000,
          "time": 56.246399999999994,
          "velocity": 0.7559055118110236
        },
        {
          "duration": 0.2656080000000074,
          "durationTicks": 170,
          "midi": 63,
          "name": "D#4",
          "ticks": 36000,
          "time": 56.246399999999994,
          "velocity": 0.7401574803149606
        },
        {
          "duration": 0.19530000000000314,
          "durationTicks": 125,
          "midi": 55,
          "name": "G3",
          "ticks": 36240,
          "time": 56.621376,
          "velocity": 0.7401574803149606
        },
        {
          "duration": 0.10936799999999636,
          "durationTicks": 70,
          "midi": 63,
          "name": "D#4",
          "ticks": 36240,
          "time": 56.621376,
          "velocity": 0.7244094488188977
        },
        {
          "duration": 2.0623679999999993,
          "durationTicks": 1320,
          "midi": 58,
          "name": "A#3",
          "ticks": 36360,
          "time": 56.808864,
          "velocity": 0.7401574803149606
        },
        {
          "duration": 2.124863999999995,
          "durationTicks": 1360,
          "midi": 62,
          "name": "D4",
          "ticks": 36360,
          "time": 56.808864,
          "velocity": 0.7559055118110236
        },
        {
          "duration": 0.2421720000000036,
          "durationTicks": 155,
          "midi": 62,
          "name": "D4",
          "ticks": 37920,
          "time": 59.246207999999996,
          "velocity": 0.8503937007874016
        },
        {
          "duration": 0.2421720000000036,
          "durationTicks": 155,
          "midi": 65,
          "name": "F4",
          "ticks": 37920,
          "time": 59.246207999999996,
          "velocity": 0.8503937007874016
        },
        {
          "duration": 0.10936799999999636,
          "durationTicks": 70,
          "midi": 62,
          "name": "D4",
          "ticks": 38160,
          "time": 59.621184,
          "velocity": 0.7401574803149606
        },
        {
          "duration": 0.08593199999999257,
          "durationTicks": 55,
          "midi": 65,
          "name": "F4",
          "ticks": 38160,
          "time": 59.621184,
          "velocity": 0.7401574803149606
        },
        {
          "duration": 0.08593199999999968,
          "durationTicks": 55,
          "midi": 62,
          "name": "D4",
          "ticks": 38280,
          "time": 59.808671999999994,
          "velocity": 0.7244094488188977
        },
        {
          "duration": 0.07030800000000426,
          "durationTicks": 45,
          "midi": 65,
          "name": "F4",
          "ticks": 38280,
          "time": 59.808671999999994,
          "velocity": 0.7244094488188977
        },
        {
          "duration": 0.09374400000000094,
          "durationTicks": 60,
          "midi": 62,
          "name": "D4",
          "ticks": 38400,
          "time": 59.996159999999996,
          "velocity": 0.7559055118110236
        },
        {
          "duration": 0.1015560000000022,
          "durationTicks": 65,
          "midi": 65,
          "name": "F4",
          "ticks": 38400,
          "time": 59.996159999999996,
          "velocity": 0.7086614173228346
        },
        {
          "duration": 0.19530000000000314,
          "durationTicks": 125,
          "midi": 63,
          "name": "D#4",
          "ticks": 38520,
          "time": 60.183648,
          "velocity": 0.7244094488188977
        },
        {
          "duration": 0.19530000000000314,
          "durationTicks": 125,
          "midi": 67,
          "name": "G4",
          "ticks": 38520,
          "time": 60.183648,
          "velocity": 0.8031496062992126
        },
        {
          "duration": 2.0076839999999976,
          "durationTicks": 1285,
          "midi": 63,
          "name": "D#4",
          "ticks": 38760,
          "time": 60.558623999999995,
          "velocity": 0.8503937007874016
        },
        {
          "duration": 1.9061280000000025,
          "durationTicks": 1220,
          "midi": 67,
          "name": "G4",
          "ticks": 38760,
          "time": 60.558623999999995,
          "velocity": 0.8031496062992126
        },
        {
          "duration": 0.3671639999999954,
          "durationTicks": 235,
          "midi": 60,
          "name": "C4",
          "ticks": 40080,
          "time": 62.620991999999994,
          "velocity": 0.7401574803149606
        },
        {
          "duration": 0.27342000000000155,
          "durationTicks": 175,
          "midi": 67,
          "name": "G4",
          "ticks": 40080,
          "time": 62.620991999999994,
          "velocity": 0.8503937007874016
        },
        {
          "duration": 0.4609079999999963,
          "durationTicks": 295,
          "midi": 65,
          "name": "F4",
          "ticks": 40320,
          "time": 62.995968,
          "velocity": 0.8031496062992126
        },
        {
          "duration": 0.4687199999999976,
          "durationTicks": 300,
          "midi": 70,
          "name": "A#4",
          "ticks": 40320,
          "time": 62.995968,
          "velocity": 0.7244094488188977
        },
        {
          "duration": 0.43747199999999964,
          "durationTicks": 280,
          "midi": 65,
          "name": "F4",
          "ticks": 40680,
          "time": 63.558431999999996,
          "velocity": 0.8503937007874016
        },
        {
          "duration": 0.41403599999999585,
          "durationTicks": 265,
          "midi": 70,
          "name": "A#4",
          "ticks": 40680,
          "time": 63.558431999999996,
          "velocity": 0.7086614173228346
        },
        {
          "duration": 0.35153999999999996,
          "durationTicks": 225,
          "midi": 65,
          "name": "F4",
          "ticks": 41040,
          "time": 64.120896,
          "velocity": 0.8976377952755905
        },
        {
          "duration": 0.31247999999999365,
          "durationTicks": 200,
          "midi": 70,
          "name": "A#4",
          "ticks": 41040,
          "time": 64.120896,
          "velocity": 0.7086614173228346
        },
        {
          "duration": 0.45309600000000216,
          "durationTicks": 290,
          "midi": 63,
          "name": "D#4",
          "ticks": 41280,
          "time": 64.49587199999999,
          "velocity": 0.7559055118110236
        },
        {
          "duration": 0.43747199999999964,
          "durationTicks": 280,
          "midi": 67,
          "name": "G4",
          "ticks": 41280,
          "time": 64.49587199999999,
          "velocity": 0.8031496062992126
        },
        {
          "duration": 0.43747199999999964,
          "durationTicks": 280,
          "midi": 63,
          "name": "D#4",
          "ticks": 41640,
          "time": 65.058336,
          "velocity": 0.8031496062992126
        },
        {
          "duration": 0.4999679999999955,
          "durationTicks": 320,
          "midi": 67,
          "name": "G4",
          "ticks": 41640,
          "time": 65.058336,
          "velocity": 0.8031496062992126
        },
        {
          "duration": 0.33591599999999744,
          "durationTicks": 215,
          "midi": 65,
          "name": "F4",
          "ticks": 42000,
          "time": 65.6208,
          "velocity": 0.8031496062992126
        },
        {
          "duration": 0.3046679999999924,
          "durationTicks": 195,
          "midi": 70,
          "name": "A#4",
          "ticks": 42000,
          "time": 65.6208,
          "velocity": 0.6456692913385826
        },
        {
          "duration": 0.29685600000000534,
          "durationTicks": 190,
          "midi": 63,
          "name": "D#4",
          "ticks": 42240,
          "time": 65.99577599999999,
          "velocity": 0.8031496062992126
        },
        {
          "duration": 0.33591600000001165,
          "durationTicks": 215,
          "midi": 67,
          "name": "G4",
          "ticks": 42240,
          "time": 65.99577599999999,
          "velocity": 0.8976377952755905
        },
        {
          "duration": 0.2421719999999965,
          "durationTicks": 155,
          "midi": 62,
          "name": "D4",
          "ticks": 42480,
          "time": 66.370752,
          "velocity": 0.8503937007874016
        },
        {
          "duration": 0.1796760000000006,
          "durationTicks": 115,
          "midi": 65,
          "name": "F4",
          "ticks": 42480,
          "time": 66.370752,
          "velocity": 0.7086614173228346
        },
        {
          "duration": 0.13280399999999304,
          "durationTicks": 85,
          "midi": 62,
          "name": "D4",
          "ticks": 42720,
          "time": 66.745728,
          "velocity": 0.7559055118110236
        },
        {
          "duration": 0.1640519999999981,
          "durationTicks": 105,
          "midi": 65,
          "name": "F4",
          "ticks": 42720,
          "time": 66.745728,
          "velocity": 0.7401574803149606
        },
        {
          "duration": 0.31247999999999365,
          "durationTicks": 200,
          "midi": 63,
          "name": "D#4",
          "ticks": 42840,
          "time": 66.933216,
          "velocity": 0.7559055118110236
        },
        {
          "duration": 0.31247999999999365,
          "durationTicks": 200,
          "midi": 67,
          "name": "G4",
          "ticks": 42840,
          "time": 66.933216,
          "velocity": 0.8503937007874016
        },
        {
          "duration": 0.8749440000000135,
          "durationTicks": 560,
          "midi": 62,
          "name": "D4",
          "ticks": 43080,
          "time": 67.30819199999999,
          "velocity": 0.8031496062992126
        },
        {
          "duration": 0.8827560000000005,
          "durationTicks": 565,
          "midi": 65,
          "name": "F4",
          "ticks": 43080,
          "time": 67.30819199999999,
          "velocity": 0.7559055118110236
        },
        {
          "duration": 0.3202919999999949,
          "durationTicks": 205,
          "midi": 62,
          "name": "D4",
          "ticks": 43680,
          "time": 68.245632,
          "velocity": 0.984251968503937
        },
        {
          "duration": 0.3281039999999962,
          "durationTicks": 210,
          "midi": 67,
          "name": "G4",
          "ticks": 43680,
          "time": 68.245632,
          "velocity": 0.7401574803149606
        },
        {
          "duration": 0.4218480000000113,
          "durationTicks": 270,
          "midi": 65,
          "name": "F4",
          "ticks": 43920,
          "time": 68.62060799999999,
          "velocity": 0.9448818897637795
        },
        {
          "duration": 0.3671640000000025,
          "durationTicks": 235,
          "midi": 69,
          "name": "A4",
          "ticks": 43920,
          "time": 68.62060799999999,
          "velocity": 0.7401574803149606
        },
        {
          "duration": 0.37497599999998954,
          "durationTicks": 240,
          "midi": 67,
          "name": "G4",
          "ticks": 44640,
          "time": 69.745536,
          "velocity": 0.8976377952755905
        },
        {
          "duration": 0.2890440000000041,
          "durationTicks": 185,
          "midi": 74,
          "name": "D5",
          "ticks": 44640,
          "time": 69.745536,
          "velocity": 0.7559055118110236
        },
        {
          "duration": 0.24998399999999776,
          "durationTicks": 160,
          "midi": 70,
          "name": "A#4",
          "ticks": 44880,
          "time": 70.12051199999999,
          "velocity": 0.7401574803149606
        },
        {
          "duration": 0.47653200000000595,
          "durationTicks": 305,
          "midi": 69,
          "name": "A4",
          "ticks": 45000,
          "time": 70.30799999999999,
          "velocity": 0.9448818897637795
        },
        {
          "duration": 0.47653200000000595,
          "durationTicks": 305,
          "midi": 72,
          "name": "C5",
          "ticks": 45000,
          "time": 70.30799999999999,
          "velocity": 0.7086614173228346
        },
        {
          "duration": 0.6171480000000003,
          "durationTicks": 395,
          "midi": 65,
          "name": "F4",
          "ticks": 45360,
          "time": 70.870464,
          "velocity": 0.8503937007874016
        },
        {
          "duration": 0.47653200000000595,
          "durationTicks": 305,
          "midi": 69,
          "name": "A4",
          "ticks": 45360,
          "time": 70.870464,
          "velocity": 0.7086614173228346
        },
        {
          "duration": 0.09374400000000094,
          "durationTicks": 60,
          "midi": 65,
          "name": "F4",
          "ticks": 45840,
          "time": 71.62041599999999,
          "velocity": 0.7559055118110236
        },
        {
          "duration": 0.09374400000000094,
          "durationTicks": 60,
          "midi": 67,
          "name": "G4",
          "ticks": 45840,
          "time": 71.62041599999999,
          "velocity": 0.7559055118110236
        },
        {
          "duration": 0.10936800000000346,
          "durationTicks": 70,
          "midi": 65,
          "name": "F4",
          "ticks": 45960,
          "time": 71.807904,
          "velocity": 0.7559055118110236
        },
        {
          "duration": 0.11718000000000472,
          "durationTicks": 75,
          "midi": 67,
          "name": "G4",
          "ticks": 45960,
          "time": 71.807904,
          "velocity": 0.7559055118110236
        },
        {
          "duration": 0.3202919999999949,
          "durationTicks": 205,
          "midi": 67,
          "name": "G4",
          "ticks": 46080,
          "time": 71.995392,
          "velocity": 0.8503937007874016
        },
        {
          "duration": 0.2968559999999911,
          "durationTicks": 190,
          "midi": 70,
          "name": "A#4",
          "ticks": 46080,
          "time": 71.995392,
          "velocity": 0.7401574803149606
        },
        {
          "duration": 0.2031119999999902,
          "durationTicks": 130,
          "midi": 65,
          "name": "F4",
          "ticks": 46320,
          "time": 72.370368,
          "velocity": 0.7559055118110236
        },
        {
          "duration": 0.35153999999999996,
          "durationTicks": 225,
          "midi": 67,
          "name": "G4",
          "ticks": 46320,
          "time": 72.370368,
          "velocity": 0.8031496062992126
        },
        {
          "duration": 0.2890440000000041,
          "durationTicks": 185,
          "midi": 70,
          "name": "A#4",
          "ticks": 46440,
          "time": 72.557856,
          "velocity": 0.7401574803149606
        },
        {
          "duration": 0.2031120000000044,
          "durationTicks": 130,
          "midi": 58,
          "name": "A#3",
          "ticks": 46680,
          "time": 72.93283199999999,
          "velocity": 0.6614173228346457
        },
        {
          "duration": 0.09374400000000094,
          "durationTicks": 60,
          "midi": 70,
          "name": "A#4",
          "ticks": 46680,
          "time": 72.93283199999999,
          "velocity": 0.6771653543307087
        },
        {
          "duration": 0.1796760000000006,
          "durationTicks": 115,
          "midi": 60,
          "name": "C4",
          "ticks": 46800,
          "time": 73.12031999999999,
          "velocity": 0.8503937007874016
        },
        {
          "duration": 0.10936800000000346,
          "durationTicks": 70,
          "midi": 70,
          "name": "A#4",
          "ticks": 46800,
          "time": 73.12031999999999,
          "velocity": 0.6929133858267716
        },
        {
          "duration": 0.4062240000000088,
          "durationTicks": 260,
          "midi": 62,
          "name": "D4",
          "ticks": 46920,
          "time": 73.307808,
          "velocity": 0.8031496062992126
        },
        {
          "duration": 0.23435999999999524,
          "durationTicks": 150,
          "midi": 69,
          "name": "A4",
          "ticks": 46920,
          "time": 73.307808,
          "velocity": 0.7559055118110236
        },
        {
          "duration": 0.7499519999999933,
          "durationTicks": 480,
          "midi": 65,
          "name": "F4",
          "ticks": 47160,
          "time": 73.682784,
          "velocity": 0.8503937007874016
        },
        {
          "duration": 0.8124479999999892,
          "durationTicks": 520,
          "midi": 69,
          "name": "A4",
          "ticks": 47160,
          "time": 73.682784,
          "velocity": 0.8031496062992126
        },
        {
          "duration": 0.1015560000000022,
          "durationTicks": 65,
          "midi": 62,
          "name": "D4",
          "ticks": 47760,
          "time": 74.620224,
          "velocity": 0.7559055118110236
        },
        {
          "duration": 0.08593199999999968,
          "durationTicks": 55,
          "midi": 65,
          "name": "F4",
          "ticks": 47760,
          "time": 74.620224,
          "velocity": 0.8976377952755905
        },
        {
          "duration": 0.09374400000000094,
          "durationTicks": 60,
          "midi": 62,
          "name": "D4",
          "ticks": 47880,
          "time": 74.807712,
          "velocity": 0.7401574803149606
        },
        {
          "duration": 0.07811999999999841,
          "durationTicks": 50,
          "midi": 65,
          "name": "F4",
          "ticks": 47880,
          "time": 74.807712,
          "velocity": 0.7559055118110236
        },
        {
          "duration": 0.21092399999999145,
          "durationTicks": 135,
          "midi": 62,
          "name": "D4",
          "ticks": 48000,
          "time": 74.9952,
          "velocity": 0.8031496062992126
        },
        {
          "duration": 0.14842799999999556,
          "durationTicks": 95,
          "midi": 65,
          "name": "F4",
          "ticks": 48000,
          "time": 74.9952,
          "velocity": 0.7559055118110236
        },
        {
          "duration": 0.23435999999999524,
          "durationTicks": 150,
          "midi": 60,
          "name": "C4",
          "ticks": 48120,
          "time": 75.182688,
          "velocity": 0.8503937007874016
        },
        {
          "duration": 0.23435999999999524,
          "durationTicks": 150,
          "midi": 63,
          "name": "D#4",
          "ticks": 48120,
          "time": 75.182688,
          "velocity": 0.8031496062992126
        },
        {
          "duration": 0.4921560000000085,
          "durationTicks": 315,
          "midi": 60,
          "name": "C4",
          "ticks": 48360,
          "time": 75.55766399999999,
          "velocity": 0.8503937007874016
        },
        {
          "duration": 0.4296600000000126,
          "durationTicks": 275,
          "midi": 63,
          "name": "D#4",
          "ticks": 48360,
          "time": 75.55766399999999,
          "velocity": 0.7401574803149606
        },
        {
          "duration": 0.3671640000000025,
          "durationTicks": 235,
          "midi": 62,
          "name": "D4",
          "ticks": 48720,
          "time": 76.120128,
          "velocity": 0.8031496062992126
        },
        {
          "duration": 0.3437279999999987,
          "durationTicks": 220,
          "midi": 65,
          "name": "F4",
          "ticks": 48720,
          "time": 76.120128,
          "velocity": 0.8031496062992126
        },
        {
          "duration": 0.5234039999999993,
          "durationTicks": 335,
          "midi": 63,
          "name": "D#4",
          "ticks": 48960,
          "time": 76.495104,
          "velocity": 0.8503937007874016
        },
        {
          "duration": 0.47653200000000595,
          "durationTicks": 305,
          "midi": 67,
          "name": "G4",
          "ticks": 48960,
          "time": 76.495104,
          "velocity": 0.8976377952755905
        },
        {
          "duration": 0.5546520000000044,
          "durationTicks": 355,
          "midi": 62,
          "name": "D4",
          "ticks": 49320,
          "time": 77.05756799999999,
          "velocity": 0.8031496062992126
        },
        {
          "duration": 0.5155920000000123,
          "durationTicks": 330,
          "midi": 65,
          "name": "F4",
          "ticks": 49320,
          "time": 77.05756799999999,
          "velocity": 0.8503937007874016
        },
        {
          "duration": 0.3671640000000025,
          "durationTicks": 235,
          "midi": 60,
          "name": "C4",
          "ticks": 49680,
          "time": 77.620032,
          "velocity": 0.8503937007874016
        },
        {
          "duration": 0.33591599999999744,
          "durationTicks": 215,
          "midi": 63,
          "name": "D#4",
          "ticks": 49680,
          "time": 77.620032,
          "velocity": 0.7086614173228346
        },
        {
          "duration": 1.507716000000002,
          "durationTicks": 965,
          "midi": 58,
          "name": "A#3",
          "ticks": 49920,
          "time": 77.995008,
          "velocity": 0.6771653543307087
        },
        {
          "duration": 1.4295959999999894,
          "durationTicks": 915,
          "midi": 62,
          "name": "D4",
          "ticks": 49920,
          "time": 77.995008,
          "velocity": 0.8031496062992126
        },
        {
          "duration": 0.382788000000005,
          "durationTicks": 245,
          "midi": 53,
          "name": "F3",
          "ticks": 53280,
          "time": 83.244672,
          "velocity": 0.8503937007874016
        },
        {
          "duration": 0.19530000000000314,
          "durationTicks": 125,
          "midi": 55,
          "name": "G3",
          "ticks": 53520,
          "time": 83.619648,
          "velocity": 0.7401574803149606
        },
        {
          "duration": 0.8749439999999993,
          "durationTicks": 560,
          "midi": 58,
          "name": "A#3",
          "ticks": 53640,
          "time": 83.807136,
          "velocity": 0.7244094488188977
        },
        {
          "duration": 0.37497600000000375,
          "durationTicks": 240,
          "midi": 53,
          "name": "F3",
          "ticks": 54240,
          "time": 84.744576,
          "velocity": 0.8031496062992126
        },
        {
          "duration": 0.1796759999999864,
          "durationTicks": 115,
          "midi": 58,
          "name": "A#3",
          "ticks": 54480,
          "time": 85.119552,
          "velocity": 0.7401574803149606
        },
        {
          "duration": 0.9140039999999914,
          "durationTicks": 585,
          "midi": 60,
          "name": "C4",
          "ticks": 54600,
          "time": 85.30704,
          "velocity": 0.8503937007874016
        },
        {
          "duration": 0.3671639999999883,
          "durationTicks": 235,
          "midi": 58,
          "name": "A#3",
          "ticks": 55200,
          "time": 86.24448,
          "velocity": 0.7559055118110236
        },
        {
          "duration": 0.1640519999999981,
          "durationTicks": 105,
          "midi": 60,
          "name": "C4",
          "ticks": 55440,
          "time": 86.619456,
          "velocity": 0.7401574803149606
        },
        {
          "duration": 0.5780879999999939,
          "durationTicks": 370,
          "midi": 62,
          "name": "D4",
          "ticks": 55560,
          "time": 86.806944,
          "velocity": 0.7244094488188977
        },
        {
          "duration": 0.13280399999999304,
          "durationTicks": 85,
          "midi": 63,
          "name": "D#4",
          "ticks": 55920,
          "time": 87.36940799999999,
          "velocity": 0.7086614173228346
        },
        {
          "duration": 0.5468400000000031,
          "durationTicks": 350,
          "midi": 65,
          "name": "F4",
          "ticks": 56040,
          "time": 87.556896,
          "velocity": 0.8031496062992126
        },
        {
          "duration": 0.3827879999999908,
          "durationTicks": 245,
          "midi": 62,
          "name": "D4",
          "ticks": 56400,
          "time": 88.11936,
          "velocity": 0.8031496062992126
        },
        {
          "duration": 0.9218160000000069,
          "durationTicks": 590,
          "midi": 60,
          "name": "C4",
          "ticks": 56640,
          "time": 88.49433599999999,
          "velocity": 0.7244094488188977
        },
        {
          "duration": 0.18748800000000188,
          "durationTicks": 120,
          "midi": 53,
          "name": "F3",
          "ticks": 57240,
          "time": 89.431776,
          "velocity": 0.7086614173228346
        },
        {
          "duration": 0.15623999999998262,
          "durationTicks": 100,
          "midi": 55,
          "name": "G3",
          "ticks": 57360,
          "time": 89.619264,
          "velocity": 0.7559055118110236
        },
        {
          "duration": 0.8905680000000018,
          "durationTicks": 570,
          "midi": 58,
          "name": "A#3",
          "ticks": 57480,
          "time": 89.80675199999999,
          "velocity": 0.7559055118110236
        },
        {
          "duration": 0.382788000000005,
          "durationTicks": 245,
          "midi": 53,
          "name": "F3",
          "ticks": 58080,
          "time": 90.744192,
          "velocity": 0.8031496062992126
        },
        {
          "duration": 0.17186400000001356,
          "durationTicks": 110,
          "midi": 58,
          "name": "A#3",
          "ticks": 58320,
          "time": 91.11916799999999,
          "velocity": 0.6929133858267716
        },
        {
          "duration": 0.5468400000000031,
          "durationTicks": 350,
          "midi": 60,
          "name": "C4",
          "ticks": 58440,
          "time": 91.30665599999999,
          "velocity": 0.8976377952755905
        },
        {
          "duration": 0.382788000000005,
          "durationTicks": 245,
          "midi": 63,
          "name": "D#4",
          "ticks": 58800,
          "time": 91.86912,
          "velocity": 0.6929133858267716
        },
        {
          "duration": 0.35153999999999996,
          "durationTicks": 225,
          "midi": 62,
          "name": "D4",
          "ticks": 59040,
          "time": 92.244096,
          "velocity": 0.7401574803149606
        },
        {
          "duration": 0.14842800000000977,
          "durationTicks": 95,
          "midi": 60,
          "name": "C4",
          "ticks": 59280,
          "time": 92.61907199999999,
          "velocity": 0.6456692913385826
        },
        {
          "duration": 0.5624640000000056,
          "durationTicks": 360,
          "midi": 67,
          "name": "G4",
          "ticks": 59400,
          "time": 92.80655999999999,
          "velocity": 0.7401574803149606
        },
        {
          "duration": 1.6327079999999938,
          "durationTicks": 1045,
          "midi": 65,
          "name": "F4",
          "ticks": 59760,
          "time": 93.369024,
          "velocity": 0.7244094488188977
        },
        {
          "duration": 0.22654799999999398,
          "durationTicks": 145,
          "midi": 53,
          "name": "F3",
          "ticks": 60960,
          "time": 95.243904,
          "velocity": 0.8503937007874016
        },
        {
          "duration": 0.4062240000000088,
          "durationTicks": 260,
          "midi": 55,
          "name": "G3",
          "ticks": 61080,
          "time": 95.43139199999999,
          "velocity": 0.8503937007874016
        },
        {
          "duration": 0.8749439999999993,
          "durationTicks": 560,
          "midi": 58,
          "name": "A#3",
          "ticks": 61320,
          "time": 95.80636799999999,
          "velocity": 0.7637795275590551
        },
        {
          "duration": 0.37497600000000375,
          "durationTicks": 240,
          "midi": 53,
          "name": "F3",
          "ticks": 61920,
          "time": 96.74380799999999,
          "velocity": 0.8031496062992126
        },
        {
          "duration": 0.17186399999999935,
          "durationTicks": 110,
          "midi": 58,
          "name": "A#3",
          "ticks": 62160,
          "time": 97.11878399999999,
          "velocity": 0.7401574803149606
        },
        {
          "duration": 0.9140040000000056,
          "durationTicks": 585,
          "midi": 60,
          "name": "C4",
          "ticks": 62280,
          "time": 97.30627199999999,
          "velocity": 0.8503937007874016
        },
        {
          "duration": 0.18748800000000188,
          "durationTicks": 120,
          "midi": 58,
          "name": "A#3",
          "ticks": 62880,
          "time": 98.24371199999999,
          "velocity": 0.7559055118110236
        },
        {
          "duration": 0.37497600000000375,
          "durationTicks": 240,
          "midi": 60,
          "name": "C4",
          "ticks": 63000,
          "time": 98.43119999999999,
          "velocity": 0.7401574803149606
        },
        {
          "duration": 0.5702759999999927,
          "durationTicks": 365,
          "midi": 62,
          "name": "D4",
          "ticks": 63240,
          "time": 98.806176,
          "velocity": 0.6299212598425197
        },
        {
          "duration": 0.13280400000000725,
          "durationTicks": 85,
          "midi": 63,
          "name": "D#4",
          "ticks": 63600,
          "time": 99.36864,
          "velocity": 0.7086614173228346
        },
        {
          "duration": 0.5702759999999927,
          "durationTicks": 365,
          "midi": 65,
          "name": "F4",
          "ticks": 63720,
          "time": 99.55612799999999,
          "velocity": 0.8031496062992126
        },
        {
          "duration": 0.17967600000001482,
          "durationTicks": 115,
          "midi": 62,
          "name": "D4",
          "ticks": 64080,
          "time": 100.11859199999999,
          "velocity": 0.8031496062992126
        },
        {
          "duration": 0.9296280000000081,
          "durationTicks": 595,
          "midi": 60,
          "name": "C4",
          "ticks": 64200,
          "time": 100.30608,
          "velocity": 0.7244094488188977
        },
        {
          "duration": 0.17967600000001482,
          "durationTicks": 115,
          "midi": 53,
          "name": "F3",
          "ticks": 64920,
          "time": 101.43100799999999,
          "velocity": 0.7086614173228346
        },
        {
          "duration": 0.14842799999999556,
          "durationTicks": 95,
          "midi": 55,
          "name": "G3",
          "ticks": 65040,
          "time": 101.618496,
          "velocity": 0.7559055118110236
        },
        {
          "duration": 0.8983799999999889,
          "durationTicks": 575,
          "midi": 58,
          "name": "A#3",
          "ticks": 65160,
          "time": 101.805984,
          "velocity": 0.7559055118110236
        },
        {
          "duration": 0.19529999999998893,
          "durationTicks": 125,
          "midi": 53,
          "name": "F3",
          "ticks": 65760,
          "time": 102.74342399999999,
          "velocity": 0.7244094488188977
        },
        {
          "duration": 0.37497600000000375,
          "durationTicks": 240,
          "midi": 58,
          "name": "A#3",
          "ticks": 65880,
          "time": 102.93091199999999,
          "velocity": 0.6929133858267716
        },
        {
          "duration": 0.5468399999999889,
          "durationTicks": 350,
          "midi": 60,
          "name": "C4",
          "ticks": 66120,
          "time": 103.305888,
          "velocity": 0.8976377952755905
        },
        {
          "duration": 0.17186399999999935,
          "durationTicks": 110,
          "midi": 63,
          "name": "D#4",
          "ticks": 66480,
          "time": 103.86835199999999,
          "velocity": 0.6929133858267716
        },
        {
          "duration": 0.5624640000000056,
          "durationTicks": 360,
          "midi": 62,
          "name": "D4",
          "ticks": 66600,
          "time": 104.05583999999999,
          "velocity": 0.7401574803149606
        },
        {
          "duration": 0.3827879999999908,
          "durationTicks": 245,
          "midi": 60,
          "name": "C4",
          "ticks": 66960,
          "time": 104.618304,
          "velocity": 0.6456692913385826
        },
        {
          "duration": 0.5390279999999876,
          "durationTicks": 345,
          "midi": 67,
          "name": "G4",
          "ticks": 67200,
          "time": 104.99328,
          "velocity": 0.7401574803149606
        },
        {
          "duration": 1.5780239999999992,
          "durationTicks": 1010,
          "midi": 65,
          "name": "F4",
          "ticks": 67560,
          "time": 105.55574399999999,
          "velocity": 0.6299212598425197
        },
        {
          "duration": 0.08593200000001389,
          "durationTicks": 55,
          "midi": 58,
          "name": "A#3",
          "ticks": 68640,
          "time": 107.24313599999999,
          "velocity": 0.7874015748031497
        },
        {
          "duration": 0.6015240000000119,
          "durationTicks": 385,
          "midi": 58,
          "name": "A#3",
          "ticks": 68760,
          "time": 107.430624,
          "velocity": 0.7637795275590551
        },
        {
          "duration": 0.4921560000000085,
          "durationTicks": 315,
          "midi": 67,
          "name": "G4",
          "ticks": 69360,
          "time": 108.36806399999999,
          "velocity": 0.7244094488188977
        },
        {
          "duration": 0.5624639999999914,
          "durationTicks": 360,
          "midi": 70,
          "name": "A#4",
          "ticks": 69720,
          "time": 108.930528,
          "velocity": 0.6771653543307087
        },
        {
          "duration": 0.5390280000000018,
          "durationTicks": 345,
          "midi": 69,
          "name": "A4",
          "ticks": 70080,
          "time": 109.49299199999999,
          "velocity": 0.7559055118110236
        },
        {
          "duration": 0.4062239999999946,
          "durationTicks": 260,
          "midi": 65,
          "name": "F4",
          "ticks": 70440,
          "time": 110.05545599999999,
          "velocity": 0.7559055118110236
        },
        {
          "duration": 0.10155599999998799,
          "durationTicks": 65,
          "midi": 65,
          "name": "F4",
          "ticks": 70800,
          "time": 110.61792,
          "velocity": 0.7086614173228346
        },
        {
          "duration": 0.14842799999998135,
          "durationTicks": 95,
          "midi": 65,
          "name": "F4",
          "ticks": 70920,
          "time": 110.805408,
          "velocity": 0.6929133858267716
        },
        {
          "duration": 0.3046680000000066,
          "durationTicks": 195,
          "midi": 67,
          "name": "G4",
          "ticks": 71040,
          "time": 110.99289599999999,
          "velocity": 0.8031496062992126
        },
        {
          "duration": 0.15624000000001104,
          "durationTicks": 100,
          "midi": 65,
          "name": "F4",
          "ticks": 71280,
          "time": 111.36787199999999,
          "velocity": 0.7401574803149606
        },
        {
          "duration": 0.33591599999999744,
          "durationTicks": 215,
          "midi": 67,
          "name": "G4",
          "ticks": 71400,
          "time": 111.55536,
          "velocity": 0.8976377952755905
        },
        {
          "duration": 0.18748800000000188,
          "durationTicks": 120,
          "midi": 58,
          "name": "A#3",
          "ticks": 71640,
          "time": 111.930336,
          "velocity": 0.7086614173228346
        },
        {
          "duration": 0.12499199999999178,
          "durationTicks": 80,
          "midi": 60,
          "name": "C4",
          "ticks": 71760,
          "time": 112.117824,
          "velocity": 0.8031496062992126
        },
        {
          "duration": 0.37497600000000375,
          "durationTicks": 240,
          "midi": 62,
          "name": "D4",
          "ticks": 71880,
          "time": 112.30531199999999,
          "velocity": 0.7401574803149606
        },
        {
          "duration": 0.8124480000000034,
          "durationTicks": 520,
          "midi": 65,
          "name": "F4",
          "ticks": 72120,
          "time": 112.68028799999999,
          "velocity": 0.7244094488188977
        },
        {
          "duration": 0.09374399999998673,
          "durationTicks": 60,
          "midi": 62,
          "name": "D4",
          "ticks": 72720,
          "time": 113.617728,
          "velocity": 0.8031496062992126
        },
        {
          "duration": 0.08593200000001389,
          "durationTicks": 55,
          "midi": 62,
          "name": "D4",
          "ticks": 72840,
          "time": 113.80521599999999,
          "velocity": 0.7086614173228346
        },
        {
          "duration": 0.17967600000001482,
          "durationTicks": 115,
          "midi": 62,
          "name": "D4",
          "ticks": 72960,
          "time": 113.99270399999999,
          "velocity": 0.7559055118110236
        },
        {
          "duration": 0.2812320000000028,
          "durationTicks": 180,
          "midi": 60,
          "name": "C4",
          "ticks": 73080,
          "time": 114.18019199999999,
          "velocity": 0.6929133858267716
        },
        {
          "duration": 1.929563999999985,
          "durationTicks": 1235,
          "midi": 60,
          "name": "C4",
          "ticks": 73320,
          "time": 114.555168,
          "velocity": 0.7401574803149606
        },
        {
          "duration": 0.10936800000001767,
          "durationTicks": 70,
          "midi": 55,
          "name": "G3",
          "ticks": 74640,
          "time": 116.61753599999999,
          "velocity": 0.7244094488188977
        },
        {
          "duration": 0.08593200000001389,
          "durationTicks": 55,
          "midi": 55,
          "name": "G3",
          "ticks": 74760,
          "time": 116.80502399999999,
          "velocity": 0.6929133858267716
        },
        {
          "duration": 0.14842799999999556,
          "durationTicks": 95,
          "midi": 55,
          "name": "G3",
          "ticks": 74880,
          "time": 116.99251199999999,
          "velocity": 0.7401574803149606
        },
        {
          "duration": 0.2656079999999861,
          "durationTicks": 170,
          "midi": 53,
          "name": "F3",
          "ticks": 75000,
          "time": 117.17999999999999,
          "velocity": 0.6771653543307087
        },
        {
          "duration": 1.0702440000000024,
          "durationTicks": 685,
          "midi": 53,
          "name": "F3",
          "ticks": 75240,
          "time": 117.554976,
          "velocity": 0.6929133858267716
        },
        {
          "duration": 0.37497599999998954,
          "durationTicks": 240,
          "midi": 53,
          "name": "F3",
          "ticks": 76320,
          "time": 119.242368,
          "velocity": 0.7559055118110236
        },
        {
          "duration": 0.2656079999999861,
          "durationTicks": 170,
          "midi": 63,
          "name": "D#4",
          "ticks": 76320,
          "time": 119.242368,
          "velocity": 0.7401574803149606
        },
        {
          "duration": 0.19530000000000314,
          "durationTicks": 125,
          "midi": 55,
          "name": "G3",
          "ticks": 76560,
          "time": 119.61734399999999,
          "velocity": 0.7401574803149606
        },
        {
          "duration": 0.10936800000001767,
          "durationTicks": 70,
          "midi": 63,
          "name": "D#4",
          "ticks": 76560,
          "time": 119.61734399999999,
          "velocity": 0.7244094488188977
        },
        {
          "duration": 2.0623680000000064,
          "durationTicks": 1320,
          "midi": 58,
          "name": "A#3",
          "ticks": 76680,
          "time": 119.80483199999999,
          "velocity": 0.7401574803149606
        },
        {
          "duration": 2.1248640000000023,
          "durationTicks": 1360,
          "midi": 62,
          "name": "D4",
          "ticks": 76680,
          "time": 119.80483199999999,
          "velocity": 0.7559055118110236
        },
        {
          "duration": 0.2421719999999965,
          "durationTicks": 155,
          "midi": 62,
          "name": "D4",
          "ticks": 78240,
          "time": 122.24217599999999,
          "velocity": 0.8503937007874016
        },
        {
          "duration": 0.2421719999999965,
          "durationTicks": 155,
          "midi": 65,
          "name": "F4",
          "ticks": 78240,
          "time": 122.24217599999999,
          "velocity": 0.8503937007874016
        },
        {
          "duration": 0.10936800000000346,
          "durationTicks": 70,
          "midi": 62,
          "name": "D4",
          "ticks": 78480,
          "time": 122.61715199999999,
          "velocity": 0.7401574803149606
        },
        {
          "duration": 0.08593200000001389,
          "durationTicks": 55,
          "midi": 65,
          "name": "F4",
          "ticks": 78480,
          "time": 122.61715199999999,
          "velocity": 0.7401574803149606
        },
        {
          "duration": 0.08593200000001389,
          "durationTicks": 55,
          "midi": 62,
          "name": "D4",
          "ticks": 78600,
          "time": 122.80463999999999,
          "velocity": 0.7244094488188977
        },
        {
          "duration": 0.07030799999999715,
          "durationTicks": 45,
          "midi": 65,
          "name": "F4",
          "ticks": 78600,
          "time": 122.80463999999999,
          "velocity": 0.7244094488188977
        },
        {
          "duration": 0.09374400000000094,
          "durationTicks": 60,
          "midi": 62,
          "name": "D4",
          "ticks": 78720,
          "time": 122.992128,
          "velocity": 0.7559055118110236
        },
        {
          "duration": 0.10936800000000346,
          "durationTicks": 70,
          "midi": 65,
          "name": "F4",
          "ticks": 78720,
          "time": 122.992128,
          "velocity": 0.7086614173228346
        },
        {
          "duration": 0.19529999999998893,
          "durationTicks": 125,
          "midi": 63,
          "name": "D#4",
          "ticks": 78840,
          "time": 123.179616,
          "velocity": 0.7244094488188977
        },
        {
          "duration": 0.2031120000000044,
          "durationTicks": 130,
          "midi": 67,
          "name": "G4",
          "ticks": 78840,
          "time": 123.179616,
          "velocity": 0.8031496062992126
        },
        {
          "duration": 1.9998719999999963,
          "durationTicks": 1280,
          "midi": 63,
          "name": "D#4",
          "ticks": 79080,
          "time": 123.55459199999999,
          "velocity": 0.8503937007874016
        },
        {
          "duration": 1.9061279999999954,
          "durationTicks": 1220,
          "midi": 67,
          "name": "G4",
          "ticks": 79080,
          "time": 123.55459199999999,
          "velocity": 0.8031496062992126
        },
        {
          "duration": 0.359351999999987,
          "durationTicks": 230,
          "midi": 60,
          "name": "C4",
          "ticks": 80400,
          "time": 125.61695999999999,
          "velocity": 0.7401574803149606
        },
        {
          "duration": 0.27342000000000155,
          "durationTicks": 175,
          "midi": 67,
          "name": "G4",
          "ticks": 80400,
          "time": 125.61695999999999,
          "velocity": 0.8503937007874016
        },
        {
          "duration": 0.4609080000000034,
          "durationTicks": 295,
          "midi": 65,
          "name": "F4",
          "ticks": 80640,
          "time": 125.991936,
          "velocity": 0.8031496062992126
        },
        {
          "duration": 0.4687199999999905,
          "durationTicks": 300,
          "midi": 70,
          "name": "A#4",
          "ticks": 80640,
          "time": 125.991936,
          "velocity": 0.7244094488188977
        },
        {
          "duration": 0.43747200000001385,
          "durationTicks": 280,
          "midi": 65,
          "name": "F4",
          "ticks": 81000,
          "time": 126.55439999999999,
          "velocity": 0.8503937007874016
        },
        {
          "duration": 0.41403600000001006,
          "durationTicks": 265,
          "midi": 70,
          "name": "A#4",
          "ticks": 81000,
          "time": 126.55439999999999,
          "velocity": 0.7086614173228346
        },
        {
          "duration": 0.35153999999999996,
          "durationTicks": 225,
          "midi": 65,
          "name": "F4",
          "ticks": 81360,
          "time": 127.11686399999999,
          "velocity": 0.8976377952755905
        },
        {
          "duration": 0.3202920000000091,
          "durationTicks": 205,
          "midi": 70,
          "name": "A#4",
          "ticks": 81360,
          "time": 127.11686399999999,
          "velocity": 0.7086614173228346
        },
        {
          "duration": 0.45309599999998795,
          "durationTicks": 290,
          "midi": 63,
          "name": "D#4",
          "ticks": 81600,
          "time": 127.49184,
          "velocity": 0.7559055118110236
        },
        {
          "duration": 0.43747199999999964,
          "durationTicks": 280,
          "midi": 67,
          "name": "G4",
          "ticks": 81600,
          "time": 127.49184,
          "velocity": 0.8031496062992126
        },
        {
          "duration": 0.43747199999998543,
          "durationTicks": 280,
          "midi": 63,
          "name": "D#4",
          "ticks": 81960,
          "time": 128.054304,
          "velocity": 0.8031496062992126
        },
        {
          "duration": 0.4999679999999955,
          "durationTicks": 320,
          "midi": 67,
          "name": "G4",
          "ticks": 81960,
          "time": 128.054304,
          "velocity": 0.8031496062992126
        },
        {
          "duration": 0.33591599999999744,
          "durationTicks": 215,
          "midi": 65,
          "name": "F4",
          "ticks": 82320,
          "time": 128.61676799999998,
          "velocity": 0.8031496062992126
        },
        {
          "duration": 0.3046680000000208,
          "durationTicks": 195,
          "midi": 70,
          "name": "A#4",
          "ticks": 82320,
          "time": 128.61676799999998,
          "velocity": 0.6456692913385826
        },
        {
          "duration": 0.29685600000001955,
          "durationTicks": 190,
          "midi": 63,
          "name": "D#4",
          "ticks": 82560,
          "time": 128.99174399999998,
          "velocity": 0.8031496062992126
        },
        {
          "duration": 0.3281039999999962,
          "durationTicks": 210,
          "midi": 67,
          "name": "G4",
          "ticks": 82560,
          "time": 128.99174399999998,
          "velocity": 0.8976377952755905
        },
        {
          "duration": 0.2421720000000107,
          "durationTicks": 155,
          "midi": 62,
          "name": "D4",
          "ticks": 82800,
          "time": 129.36672,
          "velocity": 0.8503937007874016
        },
        {
          "duration": 0.1796760000000006,
          "durationTicks": 115,
          "midi": 65,
          "name": "F4",
          "ticks": 82800,
          "time": 129.36672,
          "velocity": 0.7086614173228346
        },
        {
          "duration": 0.13280400000002146,
          "durationTicks": 85,
          "midi": 62,
          "name": "D4",
          "ticks": 83040,
          "time": 129.741696,
          "velocity": 0.7559055118110236
        },
        {
          "duration": 0.1640519999999981,
          "durationTicks": 105,
          "midi": 65,
          "name": "F4",
          "ticks": 83040,
          "time": 129.741696,
          "velocity": 0.7401574803149606
        },
        {
          "duration": 0.3046679999999924,
          "durationTicks": 195,
          "midi": 63,
          "name": "D#4",
          "ticks": 83160,
          "time": 129.929184,
          "velocity": 0.7559055118110236
        },
        {
          "duration": 0.31247999999999365,
          "durationTicks": 200,
          "midi": 67,
          "name": "G4",
          "ticks": 83160,
          "time": 129.929184,
          "velocity": 0.8503937007874016
        },
        {
          "duration": 0.8827560000000005,
          "durationTicks": 565,
          "midi": 62,
          "name": "D4",
          "ticks": 83400,
          "time": 130.30416,
          "velocity": 0.8031496062992126
        },
        {
          "duration": 0.8827560000000005,
          "durationTicks": 565,
          "midi": 65,
          "name": "F4",
          "ticks": 83400,
          "time": 130.30416,
          "velocity": 0.7559055118110236
        },
        {
          "duration": 0.3202919999999949,
          "durationTicks": 205,
          "midi": 62,
          "name": "D4",
          "ticks": 84000,
          "time": 131.2416,
          "velocity": 0.984251968503937
        },
        {
          "duration": 0.335915999999969,
          "durationTicks": 215,
          "midi": 67,
          "name": "G4",
          "ticks": 84000,
          "time": 131.2416,
          "velocity": 0.7401574803149606
        },
        {
          "duration": 0.41403600000001006,
          "durationTicks": 265,
          "midi": 65,
          "name": "F4",
          "ticks": 84240,
          "time": 131.61657599999998,
          "velocity": 0.9448818897637795
        },
        {
          "duration": 0.3671640000000309,
          "durationTicks": 235,
          "midi": 69,
          "name": "A4",
          "ticks": 84240,
          "time": 131.61657599999998,
          "velocity": 0.7401574803149606
        },
        {
          "duration": 0.37497600000000375,
          "durationTicks": 240,
          "midi": 67,
          "name": "G4",
          "ticks": 84960,
          "time": 132.741504,
          "velocity": 0.8976377952755905
        },
        {
          "duration": 0.2812319999999886,
          "durationTicks": 180,
          "midi": 74,
          "name": "D5",
          "ticks": 84960,
          "time": 132.741504,
          "velocity": 0.7559055118110236
        },
        {
          "duration": 0.24998400000001197,
          "durationTicks": 160,
          "midi": 70,
          "name": "A#4",
          "ticks": 85200,
          "time": 133.11648,
          "velocity": 0.7401574803149606
        },
        {
          "duration": 0.47653199999999174,
          "durationTicks": 305,
          "midi": 69,
          "name": "A4",
          "ticks": 85320,
          "time": 133.303968,
          "velocity": 0.9448818897637795
        },
        {
          "duration": 0.47653199999999174,
          "durationTicks": 305,
          "midi": 72,
          "name": "C5",
          "ticks": 85320,
          "time": 133.303968,
          "velocity": 0.7086614173228346
        },
        {
          "duration": 0.617147999999986,
          "durationTicks": 395,
          "midi": 65,
          "name": "F4",
          "ticks": 85680,
          "time": 133.866432,
          "velocity": 0.8503937007874016
        },
        {
          "duration": 0.47653199999999174,
          "durationTicks": 305,
          "midi": 69,
          "name": "A4",
          "ticks": 85680,
          "time": 133.866432,
          "velocity": 0.7086614173228346
        },
        {
          "duration": 0.09374400000001515,
          "durationTicks": 60,
          "midi": 65,
          "name": "F4",
          "ticks": 86160,
          "time": 134.61638399999998,
          "velocity": 0.7559055118110236
        },
        {
          "duration": 0.09374400000001515,
          "durationTicks": 60,
          "midi": 67,
          "name": "G4",
          "ticks": 86160,
          "time": 134.61638399999998,
          "velocity": 0.7559055118110236
        },
        {
          "duration": 0.10936800000001767,
          "durationTicks": 70,
          "midi": 65,
          "name": "F4",
          "ticks": 86280,
          "time": 134.80387199999998,
          "velocity": 0.7559055118110236
        },
        {
          "duration": 0.11718000000001894,
          "durationTicks": 75,
          "midi": 67,
          "name": "G4",
          "ticks": 86280,
          "time": 134.80387199999998,
          "velocity": 0.7559055118110236
        },
        {
          "duration": 0.32029200000002334,
          "durationTicks": 205,
          "midi": 67,
          "name": "G4",
          "ticks": 86400,
          "time": 134.99136,
          "velocity": 0.8503937007874016
        },
        {
          "duration": 0.29685600000001955,
          "durationTicks": 190,
          "midi": 70,
          "name": "A#4",
          "ticks": 86400,
          "time": 134.99136,
          "velocity": 0.7401574803149606
        },
        {
          "duration": 0.2031120000000044,
          "durationTicks": 130,
          "midi": 65,
          "name": "F4",
          "ticks": 86640,
          "time": 135.366336,
          "velocity": 0.7559055118110236
        },
        {
          "duration": 0.35153999999999996,
          "durationTicks": 225,
          "midi": 67,
          "name": "G4",
          "ticks": 86640,
          "time": 135.366336,
          "velocity": 0.8031496062992126
        },
        {
          "duration": 0.28904399999998986,
          "durationTicks": 185,
          "midi": 70,
          "name": "A#4",
          "ticks": 86760,
          "time": 135.553824,
          "velocity": 0.7401574803149606
        },
        {
          "duration": 0.21092400000000566,
          "durationTicks": 135,
          "midi": 58,
          "name": "A#3",
          "ticks": 87000,
          "time": 135.9288,
          "velocity": 0.6614173228346457
        },
        {
          "duration": 0.09374399999998673,
          "durationTicks": 60,
          "midi": 70,
          "name": "A#4",
          "ticks": 87000,
          "time": 135.9288,
          "velocity": 0.6771653543307087
        },
        {
          "duration": 0.1796760000000006,
          "durationTicks": 115,
          "midi": 60,
          "name": "C4",
          "ticks": 87120,
          "time": 136.116288,
          "velocity": 0.8503937007874016
        },
        {
          "duration": 0.10936799999998925,
          "durationTicks": 70,
          "midi": 70,
          "name": "A#4",
          "ticks": 87120,
          "time": 136.116288,
          "velocity": 0.6929133858267716
        },
        {
          "duration": 0.4062239999999804,
          "durationTicks": 260,
          "midi": 62,
          "name": "D4",
          "ticks": 87240,
          "time": 136.303776,
          "velocity": 0.8031496062992126
        },
        {
          "duration": 0.23435999999998103,
          "durationTicks": 150,
          "midi": 69,
          "name": "A4",
          "ticks": 87240,
          "time": 136.303776,
          "velocity": 0.7559055118110236
        },
        {
          "duration": 0.7499519999999791,
          "durationTicks": 480,
          "midi": 65,
          "name": "F4",
          "ticks": 87480,
          "time": 136.678752,
          "velocity": 0.8503937007874016
        },
        {
          "duration": 0.8124479999999892,
          "durationTicks": 520,
          "midi": 69,
          "name": "A4",
          "ticks": 87480,
          "time": 136.678752,
          "velocity": 0.8031496062992126
        },
        {
          "duration": 0.10155599999998799,
          "durationTicks": 65,
          "midi": 62,
          "name": "D4",
          "ticks": 88080,
          "time": 137.61619199999998,
          "velocity": 0.7559055118110236
        },
        {
          "duration": 0.08593200000001389,
          "durationTicks": 55,
          "midi": 65,
          "name": "F4",
          "ticks": 88080,
          "time": 137.61619199999998,
          "velocity": 0.8976377952755905
        },
        {
          "duration": 0.09374400000001515,
          "durationTicks": 60,
          "midi": 62,
          "name": "D4",
          "ticks": 88200,
          "time": 137.80367999999999,
          "velocity": 0.7401574803149606
        },
        {
          "duration": 0.0781199999999842,
          "durationTicks": 50,
          "midi": 65,
          "name": "F4",
          "ticks": 88200,
          "time": 137.80367999999999,
          "velocity": 0.7559055118110236
        },
        {
          "duration": 0.21092400000000566,
          "durationTicks": 135,
          "midi": 62,
          "name": "D4",
          "ticks": 88320,
          "time": 137.991168,
          "velocity": 0.8031496062992126
        },
        {
          "duration": 0.14842799999999556,
          "durationTicks": 95,
          "midi": 65,
          "name": "F4",
          "ticks": 88320,
          "time": 137.991168,
          "velocity": 0.7559055118110236
        },
        {
          "duration": 0.23436000000000945,
          "durationTicks": 150,
          "midi": 60,
          "name": "C4",
          "ticks": 88440,
          "time": 138.178656,
          "velocity": 0.8503937007874016
        },
        {
          "duration": 0.2421719999999823,
          "durationTicks": 155,
          "midi": 63,
          "name": "D#4",
          "ticks": 88440,
          "time": 138.178656,
          "velocity": 0.8031496062992126
        },
        {
          "duration": 0.49215599999999426,
          "durationTicks": 315,
          "midi": 60,
          "name": "C4",
          "ticks": 88680,
          "time": 138.553632,
          "velocity": 0.8503937007874016
        },
        {
          "duration": 0.43747200000001385,
          "durationTicks": 280,
          "midi": 63,
          "name": "D#4",
          "ticks": 88680,
          "time": 138.553632,
          "velocity": 0.7401574803149606
        },
        {
          "duration": 0.3671640000000025,
          "durationTicks": 235,
          "midi": 62,
          "name": "D4",
          "ticks": 89040,
          "time": 139.116096,
          "velocity": 0.8031496062992126
        },
        {
          "duration": 0.3437279999999987,
          "durationTicks": 220,
          "midi": 65,
          "name": "F4",
          "ticks": 89040,
          "time": 139.116096,
          "velocity": 0.8031496062992126
        },
        {
          "duration": 0.5234039999999709,
          "durationTicks": 335,
          "midi": 63,
          "name": "D#4",
          "ticks": 89280,
          "time": 139.491072,
          "velocity": 0.8503937007874016
        },
        {
          "duration": 0.484343999999993,
          "durationTicks": 310,
          "midi": 67,
          "name": "G4",
          "ticks": 89280,
          "time": 139.491072,
          "velocity": 0.8976377952755905
        },
        {
          "duration": 0.5546520000000044,
          "durationTicks": 355,
          "midi": 62,
          "name": "D4",
          "ticks": 89640,
          "time": 140.05353599999998,
          "velocity": 0.8031496062992126
        },
        {
          "duration": 0.515591999999998,
          "durationTicks": 330,
          "midi": 65,
          "name": "F4",
          "ticks": 89640,
          "time": 140.05353599999998,
          "velocity": 0.8503937007874016
        },
        {
          "duration": 0.3671640000000025,
          "durationTicks": 235,
          "midi": 60,
          "name": "C4",
          "ticks": 90000,
          "time": 140.61599999999999,
          "velocity": 0.8503937007874016
        },
        {
          "duration": 0.33591599999999744,
          "durationTicks": 215,
          "midi": 63,
          "name": "D#4",
          "ticks": 90000,
          "time": 140.61599999999999,
          "velocity": 0.7086614173228346
        },
        {
          "duration": 1.5077159999999878,
          "durationTicks": 965,
          "midi": 58,
          "name": "A#3",
          "ticks": 90240,
          "time": 140.990976,
          "velocity": 0.6771653543307087
        },
        {
          "duration": 1.9061279999999954,
          "durationTicks": 1220,
          "midi": 62,
          "name": "D4",
          "ticks": 90240,
          "time": 140.990976,
          "velocity": 0.8031496062992126
        },
        {
          "duration": 0.15623999999999683,
          "durationTicks": 100,
          "midi": 65,
          "name": "F4",
          "ticks": 91920,
          "time": 143.615808,
          "velocity": 0.8740157480314961
        },
        {
          "duration": 0.11717999999999051,
          "durationTicks": 75,
          "midi": 67,
          "name": "G4",
          "ticks": 92040,
          "time": 143.803296,
          "velocity": 0.8740157480314961
        },
        {
          "duration": 0.24998400000001197,
          "durationTicks": 160,
          "midi": 68,
          "name": "G#4",
          "ticks": 92160,
          "time": 143.990784,
          "velocity": 0.8976377952755905
        },
        {
          "duration": 0.09374399999998673,
          "durationTicks": 60,
          "midi": 68,
          "name": "G#4",
          "ticks": 92400,
          "time": 144.36576,
          "velocity": 0.7244094488188977
        },
        {
          "duration": 0.484343999999993,
          "durationTicks": 310,
          "midi": 68,
          "name": "G#4",
          "ticks": 92520,
          "time": 144.553248,
          "velocity": 0.7401574803149606
        },
        {
          "duration": 0.08593199999998546,
          "durationTicks": 55,
          "midi": 67,
          "name": "G4",
          "ticks": 92880,
          "time": 145.115712,
          "velocity": 0.8031496062992126
        },
        {
          "duration": 0.45309599999998795,
          "durationTicks": 290,
          "midi": 65,
          "name": "F4",
          "ticks": 93000,
          "time": 145.3032,
          "velocity": 0.8661417322834646
        },
        {
          "duration": 0.09374400000001515,
          "durationTicks": 60,
          "midi": 63,
          "name": "D#4",
          "ticks": 93360,
          "time": 145.86566399999998,
          "velocity": 0.7559055118110236
        },
        {
          "duration": 0.3671640000000025,
          "durationTicks": 235,
          "midi": 63,
          "name": "D#4",
          "ticks": 93480,
          "time": 146.05315199999998,
          "velocity": 0.8188976377952756
        },
        {
          "duration": 0.09374400000001515,
          "durationTicks": 60,
          "midi": 62,
          "name": "D4",
          "ticks": 93720,
          "time": 146.428128,
          "velocity": 0.8031496062992126
        },
        {
          "duration": 0.1406159999999943,
          "durationTicks": 90,
          "midi": 62,
          "name": "D4",
          "ticks": 93840,
          "time": 146.615616,
          "velocity": 0.8031496062992126
        },
        {
          "duration": 0.18748800000000188,
          "durationTicks": 120,
          "midi": 62,
          "name": "D4",
          "ticks": 93960,
          "time": 146.803104,
          "velocity": 0.7401574803149606
        },
        {
          "duration": 0.28904399999998986,
          "durationTicks": 185,
          "midi": 63,
          "name": "D#4",
          "ticks": 94080,
          "time": 146.990592,
          "velocity": 0.8031496062992126
        },
        {
          "duration": 0.10155599999998799,
          "durationTicks": 65,
          "midi": 65,
          "name": "F4",
          "ticks": 94320,
          "time": 147.365568,
          "velocity": 0.8661417322834646
        },
        {
          "duration": 1.7108279999999922,
          "durationTicks": 1095,
          "midi": 65,
          "name": "F4",
          "ticks": 94440,
          "time": 147.553056,
          "velocity": 0.9606299212598425
        },
        {
          "duration": 0.15623999999999683,
          "durationTicks": 100,
          "midi": 65,
          "name": "F4",
          "ticks": 95760,
          "time": 149.615424,
          "velocity": 0.7716535433070866
        },
        {
          "duration": 0.10936800000001767,
          "durationTicks": 70,
          "midi": 67,
          "name": "G4",
          "ticks": 95880,
          "time": 149.802912,
          "velocity": 0.8031496062992126
        },
        {
          "duration": 0.24998400000001197,
          "durationTicks": 160,
          "midi": 68,
          "name": "G#4",
          "ticks": 96000,
          "time": 149.9904,
          "velocity": 0.8188976377952756
        },
        {
          "duration": 0.09374399999998673,
          "durationTicks": 60,
          "midi": 68,
          "name": "G#4",
          "ticks": 96240,
          "time": 150.365376,
          "velocity": 0.7244094488188977
        },
        {
          "duration": 0.47653199999999174,
          "durationTicks": 305,
          "midi": 68,
          "name": "G#4",
          "ticks": 96360,
          "time": 150.552864,
          "velocity": 0.7401574803149606
        },
        {
          "duration": 0.09374400000001515,
          "durationTicks": 60,
          "midi": 67,
          "name": "G4",
          "ticks": 96720,
          "time": 151.11532799999998,
          "velocity": 0.8031496062992126
        },
        {
          "duration": 0.4530960000000164,
          "durationTicks": 290,
          "midi": 65,
          "name": "F4",
          "ticks": 96840,
          "time": 151.30281599999998,
          "velocity": 0.8661417322834646
        },
        {
          "duration": 0.09374400000001515,
          "durationTicks": 60,
          "midi": 63,
          "name": "D#4",
          "ticks": 97200,
          "time": 151.86527999999998,
          "velocity": 0.7559055118110236
        },
        {
          "duration": 0.3671640000000025,
          "durationTicks": 235,
          "midi": 63,
          "name": "D#4",
          "ticks": 97320,
          "time": 152.052768,
          "velocity": 0.8188976377952756
        },
        {
          "duration": 0.10155599999998799,
          "durationTicks": 65,
          "midi": 62,
          "name": "D4",
          "ticks": 97560,
          "time": 152.427744,
          "velocity": 0.8031496062992126
        },
        {
          "duration": 0.13280399999999304,
          "durationTicks": 85,
          "midi": 62,
          "name": "D4",
          "ticks": 97680,
          "time": 152.615232,
          "velocity": 0.8031496062992126
        },
        {
          "duration": 0.18748800000000188,
          "durationTicks": 120,
          "midi": 62,
          "name": "D4",
          "ticks": 97800,
          "time": 152.80272,
          "velocity": 0.7401574803149606
        },
        {
          "duration": 0.28904399999998986,
          "durationTicks": 185,
          "midi": 63,
          "name": "D#4",
          "ticks": 97920,
          "time": 152.990208,
          "velocity": 0.8031496062992126
        },
        {
          "duration": 0.09374399999998673,
          "durationTicks": 60,
          "midi": 65,
          "name": "F4",
          "ticks": 98160,
          "time": 153.365184,
          "velocity": 0.8661417322834646
        },
        {
          "duration": 1.7108279999999922,
          "durationTicks": 1095,
          "midi": 65,
          "name": "F4",
          "ticks": 98280,
          "time": 153.552672,
          "velocity": 0.9606299212598425
        },
        {
          "duration": 0.31247999999999365,
          "durationTicks": 200,
          "midi": 65,
          "name": "F4",
          "ticks": 99600,
          "time": 155.61504,
          "velocity": 0.8818897637795275
        },
        {
          "duration": 0.28904399999998986,
          "durationTicks": 185,
          "midi": 67,
          "name": "G4",
          "ticks": 99840,
          "time": 155.990016,
          "velocity": 0.9606299212598425
        },
        {
          "duration": 0.6015240000000119,
          "durationTicks": 385,
          "midi": 67,
          "name": "G4",
          "ticks": 100440,
          "time": 156.92745599999998,
          "velocity": 0.9763779527559056
        },
        {
          "duration": 0.2265480000000082,
          "durationTicks": 145,
          "midi": 65,
          "name": "F4",
          "ticks": 100800,
          "time": 157.48991999999998,
          "velocity": 0.8346456692913385
        },
        {
          "duration": 0.6640199999999936,
          "durationTicks": 425,
          "midi": 62,
          "name": "D4",
          "ticks": 100920,
          "time": 157.67740799999999,
          "velocity": 0.7559055118110236
        },
        {
          "duration": 0.23435999999998103,
          "durationTicks": 150,
          "midi": 55,
          "name": "G3",
          "ticks": 101520,
          "time": 158.614848,
          "velocity": 0.7874015748031497
        },
        {
          "duration": 0.2187359999999785,
          "durationTicks": 140,
          "midi": 58,
          "name": "A#3",
          "ticks": 101640,
          "time": 158.802336,
          "velocity": 0.8818897637795275
        },
        {
          "duration": 0.3984119999999791,
          "durationTicks": 255,
          "midi": 62,
          "name": "D4",
          "ticks": 101760,
          "time": 158.989824,
          "velocity": 0.9291338582677166
        },
        {
          "duration": 0.19529999999997472,
          "durationTicks": 125,
          "midi": 60,
          "name": "C4",
          "ticks": 102000,
          "time": 159.3648,
          "velocity": 0.7716535433070866
        },
        {
          "duration": 0.14842799999999556,
          "durationTicks": 95,
          "midi": 58,
          "name": "A#3",
          "ticks": 102120,
          "time": 159.55228799999998,
          "velocity": 0.7559055118110236
        },
        {
          "duration": 0.1640519999999981,
          "durationTicks": 105,
          "midi": 60,
          "name": "C4",
          "ticks": 102240,
          "time": 159.73977599999998,
          "velocity": 0.8346456692913385
        },
        {
          "duration": 0.3593520000000012,
          "durationTicks": 230,
          "midi": 55,
          "name": "G3",
          "ticks": 102360,
          "time": 159.92726399999998,
          "velocity": 0.8818897637795275
        },
        {
          "duration": 0.9452520000000106,
          "durationTicks": 605,
          "midi": 60,
          "name": "C4",
          "ticks": 102600,
          "time": 160.30223999999998,
          "velocity": 0.8346456692913385
        },
        {
          "duration": 0.19529999999997472,
          "durationTicks": 125,
          "midi": 55,
          "name": "G3",
          "ticks": 103440,
          "time": 161.614656,
          "velocity": 0.7874015748031497
        },
        {
          "duration": 0.18748800000000188,
          "durationTicks": 120,
          "midi": 58,
          "name": "A#3",
          "ticks": 103560,
          "time": 161.802144,
          "velocity": 0.7716535433070866
        },
        {
          "duration": 0.3671640000000025,
          "durationTicks": 235,
          "midi": 62,
          "name": "D4",
          "ticks": 103680,
          "time": 161.989632,
          "velocity": 0.9291338582677166
        },
        {
          "duration": 0.10936800000001767,
          "durationTicks": 70,
          "midi": 60,
          "name": "C4",
          "ticks": 103920,
          "time": 162.36460799999998,
          "velocity": 0.9291338582677166
        },
        {
          "duration": 0.19530000000000314,
          "durationTicks": 125,
          "midi": 60,
          "name": "C4",
          "ticks": 104040,
          "time": 162.55209599999998,
          "velocity": 0.8818897637795275
        },
        {
          "duration": 0.1640519999999981,
          "durationTicks": 105,
          "midi": 58,
          "name": "A#3",
          "ticks": 104280,
          "time": 162.92707199999998,
          "velocity": 0.6929133858267716
        },
        {
          "duration": 0.1796760000000006,
          "durationTicks": 115,
          "midi": 55,
          "name": "G3",
          "ticks": 104400,
          "time": 163.11455999999998,
          "velocity": 0.8346456692913385
        },
        {
          "duration": 0.15624000000002525,
          "durationTicks": 100,
          "midi": 58,
          "name": "A#3",
          "ticks": 104520,
          "time": 163.30204799999998,
          "velocity": 0.7874015748031497
        },
        {
          "duration": 0.37497600000000375,
          "durationTicks": 240,
          "midi": 62,
          "name": "D4",
          "ticks": 104640,
          "time": 163.489536,
          "velocity": 0.9291338582677166
        },
        {
          "duration": 0.10936800000001767,
          "durationTicks": 70,
          "midi": 60,
          "name": "C4",
          "ticks": 104880,
          "time": 163.864512,
          "velocity": 0.9291338582677166
        },
        {
          "duration": 0.3046679999999924,
          "durationTicks": 195,
          "midi": 60,
          "name": "C4",
          "ticks": 105000,
          "time": 164.052,
          "velocity": 0.9291338582677166
        },
        {
          "duration": 0.4999679999999671,
          "durationTicks": 320,
          "midi": 51,
          "name": "D#3",
          "ticks": 105600,
          "time": 164.98944,
          "velocity": 0.8818897637795275
        },
        {
          "duration": 0.49215599999999426,
          "durationTicks": 315,
          "midi": 55,
          "name": "G3",
          "ticks": 105600,
          "time": 164.98944,
          "velocity": 1
        },
        {
          "duration": 0.33591599999999744,
          "durationTicks": 215,
          "midi": 51,
          "name": "D#3",
          "ticks": 105960,
          "time": 165.55190399999998,
          "velocity": 0.7716535433070866
        },
        {
          "duration": 0.5546520000000044,
          "durationTicks": 355,
          "midi": 58,
          "name": "A#3",
          "ticks": 105960,
          "time": 165.55190399999998,
          "velocity": 1
        },
        {
          "duration": 1.1561759999999879,
          "durationTicks": 740,
          "midi": 51,
          "name": "D#3",
          "ticks": 106320,
          "time": 166.11436799999998,
          "velocity": 0.7244094488188977
        },
        {
          "duration": 1.085868000000005,
          "durationTicks": 695,
          "midi": 60,
          "name": "C4",
          "ticks": 106320,
          "time": 166.11436799999998,
          "velocity": 0.952755905511811
        },
        {
          "duration": 0.3827879999999766,
          "durationTicks": 245,
          "midi": 53,
          "name": "F3",
          "ticks": 107040,
          "time": 167.239296,
          "velocity": 0.8503937007874016
        },
        {
          "duration": 0.19529999999997472,
          "durationTicks": 125,
          "midi": 55,
          "name": "G3",
          "ticks": 107280,
          "time": 167.614272,
          "velocity": 0.7401574803149606
        },
        {
          "duration": 0.867131999999998,
          "durationTicks": 555,
          "midi": 58,
          "name": "A#3",
          "ticks": 107400,
          "time": 167.80176,
          "velocity": 0.7244094488188977
        },
        {
          "duration": 0.37497600000000375,
          "durationTicks": 240,
          "midi": 53,
          "name": "F3",
          "ticks": 108000,
          "time": 168.73919999999998,
          "velocity": 0.8031496062992126
        },
        {
          "duration": 0.1796760000000006,
          "durationTicks": 115,
          "midi": 58,
          "name": "A#3",
          "ticks": 108240,
          "time": 169.114176,
          "velocity": 0.7401574803149606
        },
        {
          "duration": 0.9140040000000056,
          "durationTicks": 585,
          "midi": 60,
          "name": "C4",
          "ticks": 108360,
          "time": 169.301664,
          "velocity": 0.8503937007874016
        },
        {
          "duration": 0.3671640000000025,
          "durationTicks": 235,
          "midi": 58,
          "name": "A#3",
          "ticks": 108960,
          "time": 170.239104,
          "velocity": 0.7559055118110236
        },
        {
          "duration": 0.1640519999999981,
          "durationTicks": 105,
          "midi": 60,
          "name": "C4",
          "ticks": 109200,
          "time": 170.61408,
          "velocity": 0.7401574803149606
        },
        {
          "duration": 0.5780879999999797,
          "durationTicks": 370,
          "midi": 62,
          "name": "D4",
          "ticks": 109320,
          "time": 170.801568,
          "velocity": 0.7244094488188977
        },
        {
          "duration": 0.13280400000002146,
          "durationTicks": 85,
          "midi": 63,
          "name": "D#4",
          "ticks": 109680,
          "time": 171.36403199999998,
          "velocity": 0.7086614173228346
        },
        {
          "duration": 0.5468400000000031,
          "durationTicks": 350,
          "midi": 65,
          "name": "F4",
          "ticks": 109800,
          "time": 171.55151999999998,
          "velocity": 0.8031496062992126
        },
        {
          "duration": 0.382788000000005,
          "durationTicks": 245,
          "midi": 62,
          "name": "D4",
          "ticks": 110160,
          "time": 172.113984,
          "velocity": 0.8031496062992126
        },
        {
          "duration": 0.9296280000000081,
          "durationTicks": 595,
          "midi": 60,
          "name": "C4",
          "ticks": 110400,
          "time": 172.48896,
          "velocity": 0.7244094488188977
        },
        {
          "duration": 0.1796760000000006,
          "durationTicks": 115,
          "midi": 53,
          "name": "F3",
          "ticks": 111000,
          "time": 173.4264,
          "velocity": 0.7086614173228346
        },
        {
          "duration": 0.15623999999999683,
          "durationTicks": 100,
          "midi": 55,
          "name": "G3",
          "ticks": 111120,
          "time": 173.613888,
          "velocity": 0.7559055118110236
        },
        {
          "duration": 0.8983800000000031,
          "durationTicks": 575,
          "midi": 58,
          "name": "A#3",
          "ticks": 111240,
          "time": 173.80137599999998,
          "velocity": 0.7559055118110236
        },
        {
          "duration": 0.382788000000005,
          "durationTicks": 245,
          "midi": 53,
          "name": "F3",
          "ticks": 111840,
          "time": 174.73881599999999,
          "velocity": 0.8031496062992126
        },
        {
          "duration": 0.17186399999999935,
          "durationTicks": 110,
          "midi": 58,
          "name": "A#3",
          "ticks": 112080,
          "time": 175.113792,
          "velocity": 0.6929133858267716
        },
        {
          "duration": 0.5546520000000044,
          "durationTicks": 355,
          "midi": 60,
          "name": "C4",
          "ticks": 112200,
          "time": 175.30128,
          "velocity": 0.8976377952755905
        },
        {
          "duration": 0.3827879999999766,
          "durationTicks": 245,
          "midi": 63,
          "name": "D#4",
          "ticks": 112560,
          "time": 175.863744,
          "velocity": 0.6929133858267716
        },
        {
          "duration": 0.35153999999999996,
          "durationTicks": 225,
          "midi": 62,
          "name": "D4",
          "ticks": 112800,
          "time": 176.23872,
          "velocity": 0.7401574803149606
        },
        {
          "duration": 0.14842799999999556,
          "durationTicks": 95,
          "midi": 60,
          "name": "C4",
          "ticks": 113040,
          "time": 176.61369599999998,
          "velocity": 0.6456692913385826
        },
        {
          "duration": 0.5624640000000056,
          "durationTicks": 360,
          "midi": 67,
          "name": "G4",
          "ticks": 113160,
          "time": 176.80118399999998,
          "velocity": 0.7401574803149606
        },
        {
          "duration": 1.632708000000008,
          "durationTicks": 1045,
          "midi": 65,
          "name": "F4",
          "ticks": 113520,
          "time": 177.36364799999998,
          "velocity": 0.7244094488188977
        },
        {
          "duration": 0.22654799999997977,
          "durationTicks": 145,
          "midi": 53,
          "name": "F3",
          "ticks": 114720,
          "time": 179.238528,
          "velocity": 0.8503937007874016
        },
        {
          "duration": 0.4062240000000088,
          "durationTicks": 260,
          "midi": 55,
          "name": "G3",
          "ticks": 114840,
          "time": 179.42601599999998,
          "velocity": 0.8503937007874016
        },
        {
          "duration": 0.867131999999998,
          "durationTicks": 555,
          "midi": 58,
          "name": "A#3",
          "ticks": 115080,
          "time": 179.80099199999998,
          "velocity": 0.7637795275590551
        },
        {
          "duration": 0.37497600000000375,
          "durationTicks": 240,
          "midi": 53,
          "name": "F3",
          "ticks": 115680,
          "time": 180.738432,
          "velocity": 0.8031496062992126
        },
        {
          "duration": 0.1796760000000006,
          "durationTicks": 115,
          "midi": 58,
          "name": "A#3",
          "ticks": 115920,
          "time": 181.113408,
          "velocity": 0.7401574803149606
        },
        {
          "duration": 0.9140040000000056,
          "durationTicks": 585,
          "midi": 60,
          "name": "C4",
          "ticks": 116040,
          "time": 181.300896,
          "velocity": 0.8503937007874016
        },
        {
          "duration": 0.17967600000002903,
          "durationTicks": 115,
          "midi": 58,
          "name": "A#3",
          "ticks": 116640,
          "time": 182.23833599999998,
          "velocity": 0.7559055118110236
        },
        {
          "duration": 0.37497600000000375,
          "durationTicks": 240,
          "midi": 60,
          "name": "C4",
          "ticks": 116760,
          "time": 182.42582399999998,
          "velocity": 0.7401574803149606
        },
        {
          "duration": 0.5702760000000069,
          "durationTicks": 365,
          "midi": 62,
          "name": "D4",
          "ticks": 117000,
          "time": 182.80079999999998,
          "velocity": 0.6299212598425197
        },
        {
          "duration": 0.13280400000002146,
          "durationTicks": 85,
          "midi": 63,
          "name": "D#4",
          "ticks": 117360,
          "time": 183.363264,
          "velocity": 0.7086614173228346
        },
        {
          "duration": 0.5702759999999785,
          "durationTicks": 365,
          "midi": 65,
          "name": "F4",
          "ticks": 117480,
          "time": 183.550752,
          "velocity": 0.8031496062992126
        },
        {
          "duration": 0.18748800000000188,
          "durationTicks": 120,
          "midi": 62,
          "name": "D4",
          "ticks": 117840,
          "time": 184.113216,
          "velocity": 0.8031496062992126
        },
        {
          "duration": 0.9296280000000081,
          "durationTicks": 595,
          "midi": 60,
          "name": "C4",
          "ticks": 117960,
          "time": 184.300704,
          "velocity": 0.7244094488188977
        },
        {
          "duration": 0.17967600000002903,
          "durationTicks": 115,
          "midi": 53,
          "name": "F3",
          "ticks": 118680,
          "time": 185.42563199999998,
          "velocity": 0.7086614173228346
        },
        {
          "duration": 0.15624000000002525,
          "durationTicks": 100,
          "midi": 55,
          "name": "G3",
          "ticks": 118800,
          "time": 185.61311999999998,
          "velocity": 0.7559055118110236
        },
        {
          "duration": 0.8905680000000018,
          "durationTicks": 570,
          "midi": 58,
          "name": "A#3",
          "ticks": 118920,
          "time": 185.80060799999998,
          "velocity": 0.7559055118110236
        },
        {
          "duration": 0.19529999999997472,
          "durationTicks": 125,
          "midi": 53,
          "name": "F3",
          "ticks": 119520,
          "time": 186.738048,
          "velocity": 0.7244094488188977
        },
        {
          "duration": 0.37497600000000375,
          "durationTicks": 240,
          "midi": 58,
          "name": "A#3",
          "ticks": 119640,
          "time": 186.925536,
          "velocity": 0.6929133858267716
        },
        {
          "duration": 0.5468399999999747,
          "durationTicks": 350,
          "midi": 60,
          "name": "C4",
          "ticks": 119880,
          "time": 187.300512,
          "velocity": 0.8976377952755905
        },
        {
          "duration": 0.17186399999999935,
          "durationTicks": 110,
          "midi": 63,
          "name": "D#4",
          "ticks": 120240,
          "time": 187.86297599999997,
          "velocity": 0.6929133858267716
        },
        {
          "duration": 0.5546520000000044,
          "durationTicks": 355,
          "midi": 62,
          "name": "D4",
          "ticks": 120360,
          "time": 188.05046399999998,
          "velocity": 0.7401574803149606
        },
        {
          "duration": 0.382788000000005,
          "durationTicks": 245,
          "midi": 60,
          "name": "C4",
          "ticks": 120720,
          "time": 188.61292799999998,
          "velocity": 0.6456692913385826
        },
        {
          "duration": 0.5468400000000031,
          "durationTicks": 350,
          "midi": 67,
          "name": "G4",
          "ticks": 120960,
          "time": 188.987904,
          "velocity": 0.7401574803149606
        },
        {
          "duration": 1.5780239999999992,
          "durationTicks": 1010,
          "midi": 65,
          "name": "F4",
          "ticks": 121320,
          "time": 189.550368,
          "velocity": 0.6299212598425197
        },
        {
          "duration": 0.07030800000001136,
          "durationTicks": 45,
          "midi": 58,
          "name": "A#3",
          "ticks": 122400,
          "time": 191.23775999999998,
          "velocity": 0.7637795275590551
        },
        {
          "duration": 0.5624640000000056,
          "durationTicks": 360,
          "midi": 58,
          "name": "A#3",
          "ticks": 122520,
          "time": 191.42524799999998,
          "velocity": 0.7401574803149606
        },
        {
          "duration": 0.49215599999999426,
          "durationTicks": 315,
          "midi": 67,
          "name": "G4",
          "ticks": 123120,
          "time": 192.362688,
          "velocity": 0.7244094488188977
        },
        {
          "duration": 0.5624639999999772,
          "durationTicks": 360,
          "midi": 70,
          "name": "A#4",
          "ticks": 123480,
          "time": 192.925152,
          "velocity": 0.6771653543307087
        },
        {
          "duration": 0.5390280000000018,
          "durationTicks": 345,
          "midi": 69,
          "name": "A4",
          "ticks": 123840,
          "time": 193.48761599999997,
          "velocity": 0.7559055118110236
        },
        {
          "duration": 0.39841200000000754,
          "durationTicks": 255,
          "midi": 65,
          "name": "F4",
          "ticks": 124200,
          "time": 194.05007999999998,
          "velocity": 0.7559055118110236
        },
        {
          "duration": 0.10155600000001641,
          "durationTicks": 65,
          "midi": 65,
          "name": "F4",
          "ticks": 124560,
          "time": 194.61254399999999,
          "velocity": 0.7086614173228346
        },
        {
          "duration": 0.14842800000002399,
          "durationTicks": 95,
          "midi": 65,
          "name": "F4",
          "ticks": 124680,
          "time": 194.800032,
          "velocity": 0.6929133858267716
        },
        {
          "duration": 0.3046679999999924,
          "durationTicks": 195,
          "midi": 67,
          "name": "G4",
          "ticks": 124800,
          "time": 194.98752,
          "velocity": 0.8031496062992126
        },
        {
          "duration": 0.14842799999999556,
          "durationTicks": 95,
          "midi": 65,
          "name": "F4",
          "ticks": 125040,
          "time": 195.362496,
          "velocity": 0.7401574803149606
        },
        {
          "duration": 0.3281039999999962,
          "durationTicks": 210,
          "midi": 67,
          "name": "G4",
          "ticks": 125160,
          "time": 195.549984,
          "velocity": 0.8976377952755905
        },
        {
          "duration": 0.19530000000000314,
          "durationTicks": 125,
          "midi": 58,
          "name": "A#3",
          "ticks": 125400,
          "time": 195.92496,
          "velocity": 0.7086614173228346
        },
        {
          "duration": 0.12499199999999178,
          "durationTicks": 80,
          "midi": 60,
          "name": "C4",
          "ticks": 125520,
          "time": 196.112448,
          "velocity": 0.8031496062992126
        },
        {
          "duration": 0.37497600000000375,
          "durationTicks": 240,
          "midi": 62,
          "name": "D4",
          "ticks": 125640,
          "time": 196.29993599999997,
          "velocity": 0.7401574803149606
        },
        {
          "duration": 0.8124479999999892,
          "durationTicks": 520,
          "midi": 65,
          "name": "F4",
          "ticks": 125880,
          "time": 196.67491199999998,
          "velocity": 0.7244094488188977
        },
        {
          "duration": 0.09374399999998673,
          "durationTicks": 60,
          "midi": 62,
          "name": "D4",
          "ticks": 126480,
          "time": 197.612352,
          "velocity": 0.8031496062992126
        },
        {
          "duration": 0.08593199999998546,
          "durationTicks": 55,
          "midi": 62,
          "name": "D4",
          "ticks": 126600,
          "time": 197.79984,
          "velocity": 0.7086614173228346
        },
        {
          "duration": 0.1796759999999722,
          "durationTicks": 115,
          "midi": 62,
          "name": "D4",
          "ticks": 126720,
          "time": 197.987328,
          "velocity": 0.7559055118110236
        },
        {
          "duration": 0.2812319999999886,
          "durationTicks": 180,
          "midi": 60,
          "name": "C4",
          "ticks": 126840,
          "time": 198.174816,
          "velocity": 0.6929133858267716
        },
        {
          "duration": 1.9295639999999992,
          "durationTicks": 1235,
          "midi": 60,
          "name": "C4",
          "ticks": 127080,
          "time": 198.549792,
          "velocity": 0.7401574803149606
        },
        {
          "duration": 0.10936799999998925,
          "durationTicks": 70,
          "midi": 55,
          "name": "G3",
          "ticks": 128400,
          "time": 200.61216,
          "velocity": 0.7244094488188977
        },
        {
          "duration": 0.08593199999998546,
          "durationTicks": 55,
          "midi": 55,
          "name": "G3",
          "ticks": 128520,
          "time": 200.799648,
          "velocity": 0.6929133858267716
        },
        {
          "duration": 0.14842799999999556,
          "durationTicks": 95,
          "midi": 55,
          "name": "G3",
          "ticks": 128640,
          "time": 200.987136,
          "velocity": 0.7401574803149606
        },
        {
          "duration": 0.2656080000000145,
          "durationTicks": 170,
          "midi": 53,
          "name": "F3",
          "ticks": 128760,
          "time": 201.174624,
          "velocity": 0.6771653543307087
        },
        {
          "duration": 1.0780559999999753,
          "durationTicks": 690,
          "midi": 53,
          "name": "F3",
          "ticks": 129000,
          "time": 201.5496,
          "velocity": 0.6929133858267716
        },
        {
          "duration": 0.37497600000000375,
          "durationTicks": 240,
          "midi": 53,
          "name": "F3",
          "ticks": 130080,
          "time": 203.236992,
          "velocity": 0.7559055118110236
        },
        {
          "duration": 0.2656080000000145,
          "durationTicks": 170,
          "midi": 63,
          "name": "D#4",
          "ticks": 130080,
          "time": 203.236992,
          "velocity": 0.7401574803149606
        },
        {
          "duration": 0.20311199999997598,
          "durationTicks": 130,
          "midi": 55,
          "name": "G3",
          "ticks": 130320,
          "time": 203.611968,
          "velocity": 0.7401574803149606
        },
        {
          "duration": 0.10936799999998925,
          "durationTicks": 70,
          "midi": 63,
          "name": "D#4",
          "ticks": 130320,
          "time": 203.611968,
          "velocity": 0.7244094488188977
        },
        {
          "duration": 2.062367999999992,
          "durationTicks": 1320,
          "midi": 58,
          "name": "A#3",
          "ticks": 130440,
          "time": 203.799456,
          "velocity": 0.7401574803149606
        },
        {
          "duration": 2.124863999999974,
          "durationTicks": 1360,
          "midi": 62,
          "name": "D4",
          "ticks": 130440,
          "time": 203.799456,
          "velocity": 0.7559055118110236
        },
        {
          "duration": 0.2421720000000107,
          "durationTicks": 155,
          "midi": 62,
          "name": "D4",
          "ticks": 132000,
          "time": 206.2368,
          "velocity": 0.8503937007874016
        },
        {
          "duration": 0.2421720000000107,
          "durationTicks": 155,
          "midi": 65,
          "name": "F4",
          "ticks": 132000,
          "time": 206.2368,
          "velocity": 0.8503937007874016
        },
        {
          "duration": 0.10936799999998925,
          "durationTicks": 70,
          "midi": 62,
          "name": "D4",
          "ticks": 132240,
          "time": 206.611776,
          "velocity": 0.7401574803149606
        },
        {
          "duration": 0.08593199999998546,
          "durationTicks": 55,
          "midi": 65,
          "name": "F4",
          "ticks": 132240,
          "time": 206.611776,
          "velocity": 0.7401574803149606
        },
        {
          "duration": 0.07812000000001262,
          "durationTicks": 50,
          "midi": 62,
          "name": "D4",
          "ticks": 132360,
          "time": 206.799264,
          "velocity": 0.7244094488188977
        },
        {
          "duration": 0.07030799999998294,
          "durationTicks": 45,
          "midi": 65,
          "name": "F4",
          "ticks": 132360,
          "time": 206.799264,
          "velocity": 0.7244094488188977
        },
        {
          "duration": 0.09374399999998673,
          "durationTicks": 60,
          "midi": 62,
          "name": "D4",
          "ticks": 132480,
          "time": 206.986752,
          "velocity": 0.7559055118110236
        },
        {
          "duration": 0.10155600000001641,
          "durationTicks": 65,
          "midi": 65,
          "name": "F4",
          "ticks": 132480,
          "time": 206.986752,
          "velocity": 0.7086614173228346
        },
        {
          "duration": 0.19530000000000314,
          "durationTicks": 125,
          "midi": 63,
          "name": "D#4",
          "ticks": 132600,
          "time": 207.17424,
          "velocity": 0.7244094488188977
        },
        {
          "duration": 0.20311199999997598,
          "durationTicks": 130,
          "midi": 67,
          "name": "G4",
          "ticks": 132600,
          "time": 207.17424,
          "velocity": 0.8031496062992126
        },
        {
          "duration": 1.999872000000039,
          "durationTicks": 1280,
          "midi": 63,
          "name": "D#4",
          "ticks": 132840,
          "time": 207.54921599999997,
          "velocity": 0.8503937007874016
        },
        {
          "duration": 1.9061280000000238,
          "durationTicks": 1220,
          "midi": 67,
          "name": "G4",
          "ticks": 132840,
          "time": 207.54921599999997,
          "velocity": 0.8031496062992126
        },
        {
          "duration": 0.36716399999997407,
          "durationTicks": 235,
          "midi": 60,
          "name": "C4",
          "ticks": 134160,
          "time": 209.611584,
          "velocity": 0.7401574803149606
        },
        {
          "duration": 0.27341999999998734,
          "durationTicks": 175,
          "midi": 67,
          "name": "G4",
          "ticks": 134160,
          "time": 209.611584,
          "velocity": 0.8503937007874016
        },
        {
          "duration": 0.4609079999999892,
          "durationTicks": 295,
          "midi": 65,
          "name": "F4",
          "ticks": 134400,
          "time": 209.98656,
          "velocity": 0.8031496062992126
        },
        {
          "duration": 0.4687199999999905,
          "durationTicks": 300,
          "midi": 70,
          "name": "A#4",
          "ticks": 134400,
          "time": 209.98656,
          "velocity": 0.7244094488188977
        },
        {
          "duration": 0.43747199999998543,
          "durationTicks": 280,
          "midi": 65,
          "name": "F4",
          "ticks": 134760,
          "time": 210.54902399999997,
          "velocity": 0.8503937007874016
        },
        {
          "duration": 0.41403600000001006,
          "durationTicks": 265,
          "midi": 70,
          "name": "A#4",
          "ticks": 134760,
          "time": 210.54902399999997,
          "velocity": 0.7086614173228346
        },
        {
          "duration": 0.35153999999999996,
          "durationTicks": 225,
          "midi": 65,
          "name": "F4",
          "ticks": 135120,
          "time": 211.11148799999998,
          "velocity": 0.8976377952755905
        },
        {
          "duration": 0.3124800000000221,
          "durationTicks": 200,
          "midi": 70,
          "name": "A#4",
          "ticks": 135120,
          "time": 211.11148799999998,
          "velocity": 0.7086614173228346
        },
        {
          "duration": 0.4530960000000164,
          "durationTicks": 290,
          "midi": 63,
          "name": "D#4",
          "ticks": 135360,
          "time": 211.48646399999998,
          "velocity": 0.7559055118110236
        },
        {
          "duration": 0.43747199999998543,
          "durationTicks": 280,
          "midi": 67,
          "name": "G4",
          "ticks": 135360,
          "time": 211.48646399999998,
          "velocity": 0.8031496062992126
        },
        {
          "duration": 0.43747199999998543,
          "durationTicks": 280,
          "midi": 63,
          "name": "D#4",
          "ticks": 135720,
          "time": 212.048928,
          "velocity": 0.8031496062992126
        },
        {
          "duration": 0.49996800000002395,
          "durationTicks": 320,
          "midi": 67,
          "name": "G4",
          "ticks": 135720,
          "time": 212.048928,
          "velocity": 0.8031496062992126
        },
        {
          "duration": 0.33591599999999744,
          "durationTicks": 215,
          "midi": 65,
          "name": "F4",
          "ticks": 136080,
          "time": 212.611392,
          "velocity": 0.8031496062992126
        },
        {
          "duration": 0.3046679999999924,
          "durationTicks": 195,
          "midi": 70,
          "name": "A#4",
          "ticks": 136080,
          "time": 212.611392,
          "velocity": 0.6456692913385826
        },
        {
          "duration": 0.2968559999999627,
          "durationTicks": 190,
          "midi": 63,
          "name": "D#4",
          "ticks": 136320,
          "time": 212.986368,
          "velocity": 0.8031496062992126
        },
        {
          "duration": 0.3281039999999962,
          "durationTicks": 210,
          "midi": 67,
          "name": "G4",
          "ticks": 136320,
          "time": 212.986368,
          "velocity": 0.8976377952755905
        },
        {
          "duration": 0.24217200000003913,
          "durationTicks": 155,
          "midi": 62,
          "name": "D4",
          "ticks": 136560,
          "time": 213.36134399999997,
          "velocity": 0.8503937007874016
        },
        {
          "duration": 0.1796760000000006,
          "durationTicks": 115,
          "midi": 65,
          "name": "F4",
          "ticks": 136560,
          "time": 213.36134399999997,
          "velocity": 0.7086614173228346
        },
        {
          "duration": 0.13280399999999304,
          "durationTicks": 85,
          "midi": 62,
          "name": "D4",
          "ticks": 136800,
          "time": 213.73631999999998,
          "velocity": 0.7559055118110236
        },
        {
          "duration": 0.1640519999999981,
          "durationTicks": 105,
          "midi": 65,
          "name": "F4",
          "ticks": 136800,
          "time": 213.73631999999998,
          "velocity": 0.7401574803149606
        },
        {
          "duration": 0.3046679999999924,
          "durationTicks": 195,
          "midi": 63,
          "name": "D#4",
          "ticks": 136920,
          "time": 213.92380799999998,
          "velocity": 0.7559055118110236
        },
        {
          "duration": 0.3124800000000221,
          "durationTicks": 200,
          "midi": 67,
          "name": "G4",
          "ticks": 136920,
          "time": 213.92380799999998,
          "velocity": 0.8503937007874016
        },
        {
          "duration": 0.8827560000000005,
          "durationTicks": 565,
          "midi": 62,
          "name": "D4",
          "ticks": 137160,
          "time": 214.29878399999998,
          "velocity": 0.8031496062992126
        },
        {
          "duration": 0.8827560000000005,
          "durationTicks": 565,
          "midi": 65,
          "name": "F4",
          "ticks": 137160,
          "time": 214.29878399999998,
          "velocity": 0.7559055118110236
        },
        {
          "duration": 0.3202919999999665,
          "durationTicks": 205,
          "midi": 62,
          "name": "D4",
          "ticks": 137760,
          "time": 215.236224,
          "velocity": 0.984251968503937
        },
        {
          "duration": 0.33591599999999744,
          "durationTicks": 215,
          "midi": 67,
          "name": "G4",
          "ticks": 137760,
          "time": 215.236224,
          "velocity": 0.7401574803149606
        },
        {
          "duration": 0.41403599999998164,
          "durationTicks": 265,
          "midi": 65,
          "name": "F4",
          "ticks": 138000,
          "time": 215.6112,
          "velocity": 0.9448818897637795
        },
        {
          "duration": 0.36716399999997407,
          "durationTicks": 235,
          "midi": 69,
          "name": "A4",
          "ticks": 138000,
          "time": 215.6112,
          "velocity": 0.7401574803149606
        },
        {
          "duration": 0.37497600000000375,
          "durationTicks": 240,
          "midi": 67,
          "name": "G4",
          "ticks": 138720,
          "time": 216.73612799999998,
          "velocity": 0.8976377952755905
        },
        {
          "duration": 0.281232000000017,
          "durationTicks": 180,
          "midi": 74,
          "name": "D5",
          "ticks": 138720,
          "time": 216.73612799999998,
          "velocity": 0.7559055118110236
        },
        {
          "duration": 0.24998399999998355,
          "durationTicks": 160,
          "midi": 70,
          "name": "A#4",
          "ticks": 138960,
          "time": 217.11110399999998,
          "velocity": 0.7401574803149606
        },
        {
          "duration": 0.47653200000002016,
          "durationTicks": 305,
          "midi": 69,
          "name": "A4",
          "ticks": 139080,
          "time": 217.29859199999999,
          "velocity": 0.9448818897637795
        },
        {
          "duration": 0.47653200000002016,
          "durationTicks": 305,
          "midi": 72,
          "name": "C5",
          "ticks": 139080,
          "time": 217.29859199999999,
          "velocity": 0.7086614173228346
        },
        {
          "duration": 0.6171480000000145,
          "durationTicks": 395,
          "midi": 65,
          "name": "F4",
          "ticks": 139440,
          "time": 217.861056,
          "velocity": 0.8503937007874016
        },
        {
          "duration": 0.47653200000002016,
          "durationTicks": 305,
          "midi": 69,
          "name": "A4",
          "ticks": 139440,
          "time": 217.861056,
          "velocity": 0.7086614173228346
        },
        {
          "duration": 0.09374399999998673,
          "durationTicks": 60,
          "midi": 65,
          "name": "F4",
          "ticks": 139920,
          "time": 218.611008,
          "velocity": 0.7559055118110236
        },
        {
          "duration": 0.09374399999998673,
          "durationTicks": 60,
          "midi": 67,
          "name": "G4",
          "ticks": 139920,
          "time": 218.611008,
          "velocity": 0.7559055118110236
        },
        {
          "duration": 0.11717999999999051,
          "durationTicks": 75,
          "midi": 65,
          "name": "F4",
          "ticks": 140040,
          "time": 218.798496,
          "velocity": 0.7559055118110236
        },
        {
          "duration": 0.11717999999999051,
          "durationTicks": 75,
          "midi": 67,
          "name": "G4",
          "ticks": 140040,
          "time": 218.798496,
          "velocity": 0.7559055118110236
        },
        {
          "duration": 0.3202919999999949,
          "durationTicks": 205,
          "midi": 67,
          "name": "G4",
          "ticks": 140160,
          "time": 218.98598399999997,
          "velocity": 0.8503937007874016
        },
        {
          "duration": 0.2968559999999911,
          "durationTicks": 190,
          "midi": 70,
          "name": "A#4",
          "ticks": 140160,
          "time": 218.98598399999997,
          "velocity": 0.7401574803149606
        },
        {
          "duration": 0.2031120000000044,
          "durationTicks": 130,
          "midi": 65,
          "name": "F4",
          "ticks": 140400,
          "time": 219.36095999999998,
          "velocity": 0.7559055118110236
        },
        {
          "duration": 0.35935200000002965,
          "durationTicks": 230,
          "midi": 67,
          "name": "G4",
          "ticks": 140400,
          "time": 219.36095999999998,
          "velocity": 0.8031496062992126
        },
        {
          "duration": 0.2890440000000183,
          "durationTicks": 185,
          "midi": 70,
          "name": "A#4",
          "ticks": 140520,
          "time": 219.54844799999998,
          "velocity": 0.7401574803149606
        },
        {
          "duration": 0.21092400000000566,
          "durationTicks": 135,
          "midi": 58,
          "name": "A#3",
          "ticks": 140760,
          "time": 219.92342399999998,
          "velocity": 0.6614173228346457
        },
        {
          "duration": 0.09374400000001515,
          "durationTicks": 60,
          "midi": 70,
          "name": "A#4",
          "ticks": 140760,
          "time": 219.92342399999998,
          "velocity": 0.6771653543307087
        },
        {
          "duration": 0.1796760000000006,
          "durationTicks": 115,
          "midi": 60,
          "name": "C4",
          "ticks": 140880,
          "time": 220.11091199999998,
          "velocity": 0.8503937007874016
        },
        {
          "duration": 0.10155600000001641,
          "durationTicks": 65,
          "midi": 70,
          "name": "A#4",
          "ticks": 140880,
          "time": 220.11091199999998,
          "velocity": 0.6929133858267716
        },
        {
          "duration": 0.41403599999998164,
          "durationTicks": 265,
          "midi": 62,
          "name": "D4",
          "ticks": 141000,
          "time": 220.2984,
          "velocity": 0.8031496062992126
        },
        {
          "duration": 0.23436000000000945,
          "durationTicks": 150,
          "midi": 69,
          "name": "A4",
          "ticks": 141000,
          "time": 220.2984,
          "velocity": 0.7559055118110236
        },
        {
          "duration": 0.7421399999999778,
          "durationTicks": 475,
          "midi": 65,
          "name": "F4",
          "ticks": 141240,
          "time": 220.673376,
          "velocity": 0.8503937007874016
        },
        {
          "duration": 0.8124479999999892,
          "durationTicks": 520,
          "midi": 69,
          "name": "A4",
          "ticks": 141240,
          "time": 220.673376,
          "velocity": 0.8031496062992126
        },
        {
          "duration": 0.10155599999998799,
          "durationTicks": 65,
          "midi": 62,
          "name": "D4",
          "ticks": 141840,
          "time": 221.610816,
          "velocity": 0.7559055118110236
        },
        {
          "duration": 0.08593199999998546,
          "durationTicks": 55,
          "midi": 65,
          "name": "F4",
          "ticks": 141840,
          "time": 221.610816,
          "velocity": 0.8976377952755905
        },
        {
          "duration": 0.09374400000001515,
          "durationTicks": 60,
          "midi": 62,
          "name": "D4",
          "ticks": 141960,
          "time": 221.79830399999997,
          "velocity": 0.7401574803149606
        },
        {
          "duration": 0.07812000000001262,
          "durationTicks": 50,
          "midi": 65,
          "name": "F4",
          "ticks": 141960,
          "time": 221.79830399999997,
          "velocity": 0.7559055118110236
        },
        {
          "duration": 0.21092400000000566,
          "durationTicks": 135,
          "midi": 62,
          "name": "D4",
          "ticks": 142080,
          "time": 221.98579199999998,
          "velocity": 0.8031496062992126
        },
        {
          "duration": 0.14842800000002399,
          "durationTicks": 95,
          "midi": 65,
          "name": "F4",
          "ticks": 142080,
          "time": 221.98579199999998,
          "velocity": 0.7559055118110236
        },
        {
          "duration": 0.2265480000000082,
          "durationTicks": 145,
          "midi": 60,
          "name": "C4",
          "ticks": 142200,
          "time": 222.17327999999998,
          "velocity": 0.8503937007874016
        },
        {
          "duration": 0.2421720000000107,
          "durationTicks": 155,
          "midi": 63,
          "name": "D#4",
          "ticks": 142200,
          "time": 222.17327999999998,
          "velocity": 0.8031496062992126
        },
        {
          "duration": 0.49215599999999426,
          "durationTicks": 315,
          "midi": 60,
          "name": "C4",
          "ticks": 142440,
          "time": 222.54825599999998,
          "velocity": 0.8503937007874016
        },
        {
          "duration": 0.4296600000000126,
          "durationTicks": 275,
          "midi": 63,
          "name": "D#4",
          "ticks": 142440,
          "time": 222.54825599999998,
          "velocity": 0.7401574803149606
        },
        {
          "duration": 0.36716399999997407,
          "durationTicks": 235,
          "midi": 62,
          "name": "D4",
          "ticks": 142800,
          "time": 223.11072,
          "velocity": 0.8031496062992126
        },
        {
          "duration": 0.3437279999999987,
          "durationTicks": 220,
          "midi": 65,
          "name": "F4",
          "ticks": 142800,
          "time": 223.11072,
          "velocity": 0.8031496062992126
        },
        {
          "duration": 0.5234039999999993,
          "durationTicks": 335,
          "midi": 63,
          "name": "D#4",
          "ticks": 143040,
          "time": 223.485696,
          "velocity": 0.8503937007874016
        },
        {
          "duration": 0.47653200000002016,
          "durationTicks": 305,
          "midi": 67,
          "name": "G4",
          "ticks": 143040,
          "time": 223.485696,
          "velocity": 0.8976377952755905
        },
        {
          "duration": 0.5546519999999759,
          "durationTicks": 355,
          "midi": 62,
          "name": "D4",
          "ticks": 143400,
          "time": 224.04816,
          "velocity": 0.8031496062992126
        },
        {
          "duration": 0.515591999999998,
          "durationTicks": 330,
          "midi": 65,
          "name": "F4",
          "ticks": 143400,
          "time": 224.04816,
          "velocity": 0.8503937007874016
        },
        {
          "duration": 0.3671640000000025,
          "durationTicks": 235,
          "midi": 60,
          "name": "C4",
          "ticks": 143760,
          "time": 224.61062399999997,
          "velocity": 0.8503937007874016
        },
        {
          "duration": 0.33591600000002586,
          "durationTicks": 215,
          "midi": 63,
          "name": "D#4",
          "ticks": 143760,
          "time": 224.61062399999997,
          "velocity": 0.7086614173228346
        },
        {
          "duration": 1.515527999999989,
          "durationTicks": 970,
          "midi": 58,
          "name": "A#3",
          "ticks": 144000,
          "time": 224.98559999999998,
          "velocity": 0.6771653543307087
        },
        {
          "duration": 1.4217840000000024,
          "durationTicks": 910,
          "midi": 62,
          "name": "D4",
          "ticks": 144000,
          "time": 224.98559999999998,
          "velocity": 0.8031496062992126
        },
        {
          "duration": 0.37497599999997533,
          "durationTicks": 240,
          "midi": 55,
          "name": "G3",
          "ticks": 145440,
          "time": 227.235456,
          "velocity": 0.8031496062992126
        },
        {
          "duration": 0.2656080000000145,
          "durationTicks": 170,
          "midi": 65,
          "name": "F4",
          "ticks": 145440,
          "time": 227.235456,
          "velocity": 0.7874015748031497
        },
        {
          "duration": 0.2031120000000044,
          "durationTicks": 130,
          "midi": 57,
          "name": "A3",
          "ticks": 145680,
          "time": 227.61043199999997,
          "velocity": 0.7874015748031497
        },
        {
          "duration": 0.10936799999998925,
          "durationTicks": 70,
          "midi": 65,
          "name": "F4",
          "ticks": 145680,
          "time": 227.61043199999997,
          "velocity": 0.7716535433070866
        },
        {
          "duration": 2.0623680000000206,
          "durationTicks": 1320,
          "midi": 60,
          "name": "C4",
          "ticks": 145800,
          "time": 227.79791999999998,
          "velocity": 0.7874015748031497
        },
        {
          "duration": 2.1248640000000023,
          "durationTicks": 1360,
          "midi": 64,
          "name": "E4",
          "ticks": 145800,
          "time": 227.79791999999998,
          "velocity": 0.8031496062992126
        },
        {
          "duration": 0.24217200000003913,
          "durationTicks": 155,
          "midi": 64,
          "name": "E4",
          "ticks": 147360,
          "time": 230.23526399999997,
          "velocity": 0.8503937007874016
        },
        {
          "duration": 0.24217200000003913,
          "durationTicks": 155,
          "midi": 67,
          "name": "G4",
          "ticks": 147360,
          "time": 230.23526399999997,
          "velocity": 0.8503937007874016
        },
        {
          "duration": 0.10936799999998925,
          "durationTicks": 70,
          "midi": 64,
          "name": "E4",
          "ticks": 147600,
          "time": 230.61023999999998,
          "velocity": 0.7401574803149606
        },
        {
          "duration": 0.08593199999998546,
          "durationTicks": 55,
          "midi": 67,
          "name": "G4",
          "ticks": 147600,
          "time": 230.61023999999998,
          "velocity": 0.7401574803149606
        },
        {
          "duration": 0.07812000000001262,
          "durationTicks": 50,
          "midi": 64,
          "name": "E4",
          "ticks": 147720,
          "time": 230.79772799999998,
          "velocity": 0.7244094488188977
        },
        {
          "duration": 0.07030800000001136,
          "durationTicks": 45,
          "midi": 67,
          "name": "G4",
          "ticks": 147720,
          "time": 230.79772799999998,
          "velocity": 0.7244094488188977
        },
        {
          "duration": 0.09374400000001515,
          "durationTicks": 60,
          "midi": 64,
          "name": "E4",
          "ticks": 147840,
          "time": 230.98521599999998,
          "velocity": 0.7559055118110236
        },
        {
          "duration": 0.10155600000001641,
          "durationTicks": 65,
          "midi": 67,
          "name": "G4",
          "ticks": 147840,
          "time": 230.98521599999998,
          "velocity": 0.7086614173228346
        },
        {
          "duration": 0.19530000000003156,
          "durationTicks": 125,
          "midi": 65,
          "name": "F4",
          "ticks": 147960,
          "time": 231.17270399999998,
          "velocity": 0.7244094488188977
        },
        {
          "duration": 0.20311199999997598,
          "durationTicks": 130,
          "midi": 69,
          "name": "A4",
          "ticks": 147960,
          "time": 231.17270399999998,
          "velocity": 0.8031496062992126
        },
        {
          "duration": 1.9998720000000105,
          "durationTicks": 1280,
          "midi": 65,
          "name": "F4",
          "ticks": 148200,
          "time": 231.54767999999999,
          "velocity": 0.8503937007874016
        },
        {
          "duration": 1.9061280000000238,
          "durationTicks": 1220,
          "midi": 69,
          "name": "A4",
          "ticks": 148200,
          "time": 231.54767999999999,
          "velocity": 0.8031496062992126
        },
        {
          "duration": 0.37497600000000375,
          "durationTicks": 240,
          "midi": 62,
          "name": "D4",
          "ticks": 149520,
          "time": 233.61004799999998,
          "velocity": 0.7401574803149606
        },
        {
          "duration": 0.27341999999998734,
          "durationTicks": 175,
          "midi": 69,
          "name": "A4",
          "ticks": 149520,
          "time": 233.61004799999998,
          "velocity": 0.8503937007874016
        },
        {
          "duration": 0.4530960000000164,
          "durationTicks": 290,
          "midi": 67,
          "name": "G4",
          "ticks": 149760,
          "time": 233.98502399999998,
          "velocity": 0.8031496062992126
        },
        {
          "duration": 0.4687199999999905,
          "durationTicks": 300,
          "midi": 72,
          "name": "C5",
          "ticks": 149760,
          "time": 233.98502399999998,
          "velocity": 0.7244094488188977
        },
        {
          "duration": 0.43747199999998543,
          "durationTicks": 280,
          "midi": 67,
          "name": "G4",
          "ticks": 150120,
          "time": 234.547488,
          "velocity": 0.8503937007874016
        },
        {
          "duration": 0.41403599999998164,
          "durationTicks": 265,
          "midi": 72,
          "name": "C5",
          "ticks": 150120,
          "time": 234.547488,
          "velocity": 0.7086614173228346
        },
        {
          "duration": 0.35153999999999996,
          "durationTicks": 225,
          "midi": 67,
          "name": "G4",
          "ticks": 150480,
          "time": 235.109952,
          "velocity": 0.8976377952755905
        },
        {
          "duration": 0.31247999999999365,
          "durationTicks": 200,
          "midi": 72,
          "name": "C5",
          "ticks": 150480,
          "time": 235.109952,
          "velocity": 0.7086614173228346
        },
        {
          "duration": 0.4530960000000164,
          "durationTicks": 290,
          "midi": 65,
          "name": "F4",
          "ticks": 150720,
          "time": 235.484928,
          "velocity": 0.7559055118110236
        },
        {
          "duration": 0.43747199999998543,
          "durationTicks": 280,
          "midi": 69,
          "name": "A4",
          "ticks": 150720,
          "time": 235.484928,
          "velocity": 0.8031496062992126
        },
        {
          "duration": 0.43747199999998543,
          "durationTicks": 280,
          "midi": 65,
          "name": "F4",
          "ticks": 151080,
          "time": 236.04739199999997,
          "velocity": 0.8031496062992126
        },
        {
          "duration": 0.49996800000002395,
          "durationTicks": 320,
          "midi": 69,
          "name": "A4",
          "ticks": 151080,
          "time": 236.04739199999997,
          "velocity": 0.8031496062992126
        },
        {
          "duration": 0.33591600000002586,
          "durationTicks": 215,
          "midi": 67,
          "name": "G4",
          "ticks": 151440,
          "time": 236.60985599999998,
          "velocity": 0.8031496062992126
        },
        {
          "duration": 0.3046679999999924,
          "durationTicks": 195,
          "midi": 72,
          "name": "C5",
          "ticks": 151440,
          "time": 236.60985599999998,
          "velocity": 0.6456692913385826
        },
        {
          "duration": 0.2968559999999911,
          "durationTicks": 190,
          "midi": 65,
          "name": "F4",
          "ticks": 151680,
          "time": 236.98483199999998,
          "velocity": 0.8031496062992126
        },
        {
          "duration": 0.3281039999999962,
          "durationTicks": 210,
          "midi": 69,
          "name": "A4",
          "ticks": 151680,
          "time": 236.98483199999998,
          "velocity": 0.8976377952755905
        },
        {
          "duration": 0.2421720000000107,
          "durationTicks": 155,
          "midi": 64,
          "name": "E4",
          "ticks": 151920,
          "time": 237.359808,
          "velocity": 0.8503937007874016
        },
        {
          "duration": 0.1796759999999722,
          "durationTicks": 115,
          "midi": 67,
          "name": "G4",
          "ticks": 151920,
          "time": 237.359808,
          "velocity": 0.7086614173228346
        },
        {
          "duration": 0.13280399999999304,
          "durationTicks": 85,
          "midi": 64,
          "name": "E4",
          "ticks": 152160,
          "time": 237.734784,
          "velocity": 0.7559055118110236
        },
        {
          "duration": 0.1640519999999981,
          "durationTicks": 105,
          "midi": 67,
          "name": "G4",
          "ticks": 152160,
          "time": 237.734784,
          "velocity": 0.7401574803149606
        },
        {
          "duration": 0.3046679999999924,
          "durationTicks": 195,
          "midi": 65,
          "name": "F4",
          "ticks": 152280,
          "time": 237.922272,
          "velocity": 0.7559055118110236
        },
        {
          "duration": 0.31247999999999365,
          "durationTicks": 200,
          "midi": 69,
          "name": "A4",
          "ticks": 152280,
          "time": 237.922272,
          "velocity": 0.8503937007874016
        },
        {
          "duration": 0.8749439999999993,
          "durationTicks": 560,
          "midi": 64,
          "name": "E4",
          "ticks": 152520,
          "time": 238.297248,
          "velocity": 0.8031496062992126
        },
        {
          "duration": 0.8827559999999721,
          "durationTicks": 565,
          "midi": 67,
          "name": "G4",
          "ticks": 152520,
          "time": 238.297248,
          "velocity": 0.7559055118110236
        },
        {
          "duration": 0.3202919999999949,
          "durationTicks": 205,
          "midi": 64,
          "name": "E4",
          "ticks": 153120,
          "time": 239.23468799999998,
          "velocity": 0.984251968503937
        },
        {
          "duration": 0.3281039999999962,
          "durationTicks": 210,
          "midi": 69,
          "name": "A4",
          "ticks": 153120,
          "time": 239.23468799999998,
          "velocity": 0.7401574803149606
        },
        {
          "duration": 0.41403599999998164,
          "durationTicks": 265,
          "midi": 67,
          "name": "G4",
          "ticks": 153360,
          "time": 239.60966399999998,
          "velocity": 0.9448818897637795
        },
        {
          "duration": 0.3671640000000025,
          "durationTicks": 235,
          "midi": 71,
          "name": "B4",
          "ticks": 153360,
          "time": 239.60966399999998,
          "velocity": 0.7401574803149606
        },
        {
          "duration": 0.37497600000000375,
          "durationTicks": 240,
          "midi": 69,
          "name": "A4",
          "ticks": 154080,
          "time": 240.734592,
          "velocity": 0.8976377952755905
        },
        {
          "duration": 0.2812319999999886,
          "durationTicks": 180,
          "midi": 76,
          "name": "E5",
          "ticks": 154080,
          "time": 240.734592,
          "velocity": 0.7559055118110236
        },
        {
          "duration": 0.24998399999998355,
          "durationTicks": 160,
          "midi": 72,
          "name": "C5",
          "ticks": 154320,
          "time": 241.109568,
          "velocity": 0.7401574803149606
        },
        {
          "duration": 0.47653199999999174,
          "durationTicks": 305,
          "midi": 71,
          "name": "B4",
          "ticks": 154440,
          "time": 241.297056,
          "velocity": 0.9448818897637795
        },
        {
          "duration": 0.47653199999999174,
          "durationTicks": 305,
          "midi": 74,
          "name": "D5",
          "ticks": 154440,
          "time": 241.297056,
          "velocity": 0.7086614173228346
        },
        {
          "duration": 0.6171480000000145,
          "durationTicks": 395,
          "midi": 67,
          "name": "G4",
          "ticks": 154800,
          "time": 241.85951999999997,
          "velocity": 0.8503937007874016
        },
        {
          "duration": 0.5624640000000056,
          "durationTicks": 360,
          "midi": 71,
          "name": "B4",
          "ticks": 154800,
          "time": 241.85951999999997,
          "velocity": 0.7086614173228346
        },
        {
          "duration": 0.09374400000001515,
          "durationTicks": 60,
          "midi": 67,
          "name": "G4",
          "ticks": 155280,
          "time": 242.60947199999998,
          "velocity": 0.7559055118110236
        },
        {
          "duration": 0.10936799999998925,
          "durationTicks": 70,
          "midi": 67,
          "name": "G4",
          "ticks": 155400,
          "time": 242.79695999999998,
          "velocity": 0.7559055118110236
        },
        {
          "duration": 0.3202919999999949,
          "durationTicks": 205,
          "midi": 69,
          "name": "A4",
          "ticks": 155520,
          "time": 242.984448,
          "velocity": 0.8503937007874016
        },
        {
          "duration": 0.2968559999999911,
          "durationTicks": 190,
          "midi": 72,
          "name": "C5",
          "ticks": 155520,
          "time": 242.984448,
          "velocity": 0.7401574803149606
        },
        {
          "duration": 0.21092400000000566,
          "durationTicks": 135,
          "midi": 67,
          "name": "G4",
          "ticks": 155760,
          "time": 243.359424,
          "velocity": 0.7559055118110236
        },
        {
          "duration": 0.18748800000000188,
          "durationTicks": 120,
          "midi": 69,
          "name": "A4",
          "ticks": 155760,
          "time": 243.359424,
          "velocity": 0.8031496062992126
        },
        {
          "duration": 0.31247999999999365,
          "durationTicks": 200,
          "midi": 69,
          "name": "A4",
          "ticks": 155880,
          "time": 243.546912,
          "velocity": 0.8976377952755905
        },
        {
          "duration": 0.2890440000000183,
          "durationTicks": 185,
          "midi": 72,
          "name": "C5",
          "ticks": 155880,
          "time": 243.546912,
          "velocity": 0.7401574803149606
        },
        {
          "duration": 0.20311199999997598,
          "durationTicks": 130,
          "midi": 60,
          "name": "C4",
          "ticks": 156120,
          "time": 243.921888,
          "velocity": 0.6614173228346457
        },
        {
          "duration": 0.09374399999998673,
          "durationTicks": 60,
          "midi": 72,
          "name": "C5",
          "ticks": 156120,
          "time": 243.921888,
          "velocity": 0.6771653543307087
        },
        {
          "duration": 0.1796759999999722,
          "durationTicks": 115,
          "midi": 62,
          "name": "D4",
          "ticks": 156240,
          "time": 244.109376,
          "velocity": 0.8503937007874016
        },
        {
          "duration": 0.10936799999996083,
          "durationTicks": 70,
          "midi": 72,
          "name": "C5",
          "ticks": 156240,
          "time": 244.109376,
          "velocity": 0.6929133858267716
        },
        {
          "duration": 0.4062240000000372,
          "durationTicks": 260,
          "midi": 64,
          "name": "E4",
          "ticks": 156360,
          "time": 244.29686399999997,
          "velocity": 0.8031496062992126
        },
        {
          "duration": 0.23436000000000945,
          "durationTicks": 150,
          "midi": 71,
          "name": "B4",
          "ticks": 156360,
          "time": 244.29686399999997,
          "velocity": 0.7559055118110236
        },
        {
          "duration": 0.7499520000000075,
          "durationTicks": 480,
          "midi": 67,
          "name": "G4",
          "ticks": 156600,
          "time": 244.67183999999997,
          "velocity": 0.8503937007874016
        },
        {
          "duration": 0.8124479999999892,
          "durationTicks": 520,
          "midi": 71,
          "name": "B4",
          "ticks": 156600,
          "time": 244.67183999999997,
          "velocity": 0.8031496062992126
        },
        {
          "duration": 0.10155600000001641,
          "durationTicks": 65,
          "midi": 64,
          "name": "E4",
          "ticks": 157200,
          "time": 245.60927999999998,
          "velocity": 0.7559055118110236
        },
        {
          "duration": 0.08593199999998546,
          "durationTicks": 55,
          "midi": 67,
          "name": "G4",
          "ticks": 157200,
          "time": 245.60927999999998,
          "velocity": 0.8976377952755905
        },
        {
          "duration": 0.10155600000001641,
          "durationTicks": 65,
          "midi": 64,
          "name": "E4",
          "ticks": 157320,
          "time": 245.796768,
          "velocity": 0.7401574803149606
        },
        {
          "duration": 0.07812000000001262,
          "durationTicks": 50,
          "midi": 67,
          "name": "G4",
          "ticks": 157320,
          "time": 245.796768,
          "velocity": 0.7559055118110236
        },
        {
          "duration": 0.21092400000000566,
          "durationTicks": 135,
          "midi": 64,
          "name": "E4",
          "ticks": 157440,
          "time": 245.984256,
          "velocity": 0.8031496062992126
        },
        {
          "duration": 0.14842800000002399,
          "durationTicks": 95,
          "midi": 67,
          "name": "G4",
          "ticks": 157440,
          "time": 245.984256,
          "velocity": 0.7559055118110236
        },
        {
          "duration": 0.23435999999998103,
          "durationTicks": 150,
          "midi": 62,
          "name": "D4",
          "ticks": 157560,
          "time": 246.171744,
          "velocity": 0.8503937007874016
        },
        {
          "duration": 0.23435999999998103,
          "durationTicks": 150,
          "midi": 65,
          "name": "F4",
          "ticks": 157560,
          "time": 246.171744,
          "velocity": 0.8031496062992126
        },
        {
          "duration": 0.49215599999999426,
          "durationTicks": 315,
          "midi": 62,
          "name": "D4",
          "ticks": 157800,
          "time": 246.54672,
          "velocity": 0.8503937007874016
        },
        {
          "duration": 0.43747199999998543,
          "durationTicks": 280,
          "midi": 65,
          "name": "F4",
          "ticks": 157800,
          "time": 246.54672,
          "velocity": 0.7401574803149606
        },
        {
          "duration": 0.37497600000000375,
          "durationTicks": 240,
          "midi": 64,
          "name": "E4",
          "ticks": 158160,
          "time": 247.10918399999997,
          "velocity": 0.8031496062992126
        },
        {
          "duration": 0.3437279999999987,
          "durationTicks": 220,
          "midi": 67,
          "name": "G4",
          "ticks": 158160,
          "time": 247.10918399999997,
          "velocity": 0.8031496062992126
        },
        {
          "duration": 0.5234040000000277,
          "durationTicks": 335,
          "midi": 65,
          "name": "F4",
          "ticks": 158400,
          "time": 247.48415999999997,
          "velocity": 0.8503937007874016
        },
        {
          "duration": 0.47653200000002016,
          "durationTicks": 305,
          "midi": 69,
          "name": "A4",
          "ticks": 158400,
          "time": 247.48415999999997,
          "velocity": 0.8976377952755905
        },
        {
          "duration": 0.5624640000000056,
          "durationTicks": 360,
          "midi": 64,
          "name": "E4",
          "ticks": 158760,
          "time": 248.04662399999998,
          "velocity": 0.8031496062992126
        },
        {
          "duration": 0.515591999999998,
          "durationTicks": 330,
          "midi": 67,
          "name": "G4",
          "ticks": 158760,
          "time": 248.04662399999998,
          "velocity": 0.8503937007874016
        },
        {
          "duration": 0.36716399999997407,
          "durationTicks": 235,
          "midi": 62,
          "name": "D4",
          "ticks": 159120,
          "time": 248.60908799999999,
          "velocity": 0.8503937007874016
        },
        {
          "duration": 0.33591600000002586,
          "durationTicks": 215,
          "midi": 65,
          "name": "F4",
          "ticks": 159120,
          "time": 248.60908799999999,
          "velocity": 0.7086614173228346
        },
        {
          "duration": 1.515527999999989,
          "durationTicks": 970,
          "midi": 60,
          "name": "C4",
          "ticks": 159360,
          "time": 248.984064,
          "velocity": 0.6771653543307087
        },
        {
          "duration": 1.421783999999974,
          "durationTicks": 910,
          "midi": 64,
          "name": "E4",
          "ticks": 159360,
          "time": 248.984064,
          "velocity": 0.8031496062992126
        },
        {
          "duration": 0.37497600000000375,
          "durationTicks": 240,
          "midi": 57,
          "name": "A3",
          "ticks": 160800,
          "time": 251.23391999999998,
          "velocity": 0.8976377952755905
        },
        {
          "duration": 0.2656080000000145,
          "durationTicks": 170,
          "midi": 67,
          "name": "G4",
          "ticks": 160800,
          "time": 251.23391999999998,
          "velocity": 0.8818897637795275
        },
        {
          "duration": 0.20311199999997598,
          "durationTicks": 130,
          "midi": 59,
          "name": "B3",
          "ticks": 161040,
          "time": 251.608896,
          "velocity": 0.8818897637795275
        },
        {
          "duration": 0.10936799999998925,
          "durationTicks": 70,
          "midi": 67,
          "name": "G4",
          "ticks": 161040,
          "time": 251.608896,
          "velocity": 0.8661417322834646
        },
        {
          "duration": 2.062367999999992,
          "durationTicks": 1320,
          "midi": 62,
          "name": "D4",
          "ticks": 161160,
          "time": 251.796384,
          "velocity": 0.8818897637795275
        },
        {
          "duration": 2.124863999999974,
          "durationTicks": 1360,
          "midi": 66,
          "name": "F#4",
          "ticks": 161160,
          "time": 251.796384,
          "velocity": 0.8976377952755905
        },
        {
          "duration": 0.2421720000000107,
          "durationTicks": 155,
          "midi": 66,
          "name": "F#4",
          "ticks": 162720,
          "time": 254.23372799999999,
          "velocity": 0.8503937007874016
        },
        {
          "duration": 0.2421720000000107,
          "durationTicks": 155,
          "midi": 69,
          "name": "A4",
          "ticks": 162720,
          "time": 254.23372799999999,
          "velocity": 0.8503937007874016
        },
        {
          "duration": 0.10936799999998925,
          "durationTicks": 70,
          "midi": 66,
          "name": "F#4",
          "ticks": 162960,
          "time": 254.608704,
          "velocity": 0.7401574803149606
        },
        {
          "duration": 0.09374399999998673,
          "durationTicks": 60,
          "midi": 69,
          "name": "A4",
          "ticks": 162960,
          "time": 254.608704,
          "velocity": 0.7401574803149606
        },
        {
          "duration": 0.07812000000001262,
          "durationTicks": 50,
          "midi": 66,
          "name": "F#4",
          "ticks": 163080,
          "time": 254.796192,
          "velocity": 0.7244094488188977
        },
        {
          "duration": 0.07030799999998294,
          "durationTicks": 45,
          "midi": 69,
          "name": "A4",
          "ticks": 163080,
          "time": 254.796192,
          "velocity": 0.7244094488188977
        },
        {
          "duration": 0.09374399999998673,
          "durationTicks": 60,
          "midi": 66,
          "name": "F#4",
          "ticks": 163200,
          "time": 254.98368,
          "velocity": 0.7559055118110236
        },
        {
          "duration": 0.10155600000001641,
          "durationTicks": 65,
          "midi": 69,
          "name": "A4",
          "ticks": 163200,
          "time": 254.98368,
          "velocity": 0.7086614173228346
        },
        {
          "duration": 0.19530000000000314,
          "durationTicks": 125,
          "midi": 67,
          "name": "G4",
          "ticks": 163320,
          "time": 255.171168,
          "velocity": 0.7244094488188977
        },
        {
          "duration": 0.20311199999997598,
          "durationTicks": 130,
          "midi": 71,
          "name": "B4",
          "ticks": 163320,
          "time": 255.171168,
          "velocity": 0.8031496062992126
        },
        {
          "duration": 1.999872000000039,
          "durationTicks": 1280,
          "midi": 67,
          "name": "G4",
          "ticks": 163560,
          "time": 255.54614399999997,
          "velocity": 0.8503937007874016
        },
        {
          "duration": 1.9061280000000238,
          "durationTicks": 1220,
          "midi": 71,
          "name": "B4",
          "ticks": 163560,
          "time": 255.54614399999997,
          "velocity": 0.8031496062992126
        },
        {
          "duration": 0.3671640000000025,
          "durationTicks": 235,
          "midi": 64,
          "name": "E4",
          "ticks": 164880,
          "time": 257.60851199999996,
          "velocity": 0.7401574803149606
        },
        {
          "duration": 0.27341999999998734,
          "durationTicks": 175,
          "midi": 71,
          "name": "B4",
          "ticks": 164880,
          "time": 257.60851199999996,
          "velocity": 0.8503937007874016
        },
        {
          "duration": 0.4530960000000164,
          "durationTicks": 290,
          "midi": 69,
          "name": "A4",
          "ticks": 165120,
          "time": 257.98348799999997,
          "velocity": 0.8031496062992126
        },
        {
          "duration": 0.4687200000000189,
          "durationTicks": 300,
          "midi": 74,
          "name": "D5",
          "ticks": 165120,
          "time": 257.98348799999997,
          "velocity": 0.7244094488188977
        },
        {
          "duration": 0.437471999999957,
          "durationTicks": 280,
          "midi": 69,
          "name": "A4",
          "ticks": 165480,
          "time": 258.545952,
          "velocity": 0.8503937007874016
        },
        {
          "duration": 0.4140359999999532,
          "durationTicks": 265,
          "midi": 74,
          "name": "D5",
          "ticks": 165480,
          "time": 258.545952,
          "velocity": 0.7086614173228346
        },
        {
          "duration": 0.35153999999999996,
          "durationTicks": 225,
          "midi": 69,
          "name": "A4",
          "ticks": 165840,
          "time": 259.108416,
          "velocity": 0.8976377952755905
        },
        {
          "duration": 0.31247999999999365,
          "durationTicks": 200,
          "midi": 74,
          "name": "D5",
          "ticks": 165840,
          "time": 259.108416,
          "velocity": 0.7086614173228346
        },
        {
          "duration": 0.4530960000000164,
          "durationTicks": 290,
          "midi": 67,
          "name": "G4",
          "ticks": 166080,
          "time": 259.483392,
          "velocity": 0.7559055118110236
        },
        {
          "duration": 0.43747200000001385,
          "durationTicks": 280,
          "midi": 71,
          "name": "B4",
          "ticks": 166080,
          "time": 259.483392,
          "velocity": 0.8031496062992126
        },
        {
          "duration": 0.4452840000000151,
          "durationTicks": 285,
          "midi": 67,
          "name": "G4",
          "ticks": 166440,
          "time": 260.04585599999996,
          "velocity": 0.8031496062992126
        },
        {
          "duration": 0.49996800000002395,
          "durationTicks": 320,
          "midi": 71,
          "name": "B4",
          "ticks": 166440,
          "time": 260.04585599999996,
          "velocity": 0.8031496062992126
        },
        {
          "duration": 0.33591599999999744,
          "durationTicks": 215,
          "midi": 69,
          "name": "A4",
          "ticks": 166800,
          "time": 260.60832,
          "velocity": 0.8031496062992126
        },
        {
          "duration": 0.3046679999999924,
          "durationTicks": 195,
          "midi": 74,
          "name": "D5",
          "ticks": 166800,
          "time": 260.60832,
          "velocity": 0.6456692913385826
        },
        {
          "duration": 0.28904399999998986,
          "durationTicks": 185,
          "midi": 67,
          "name": "G4",
          "ticks": 167040,
          "time": 260.983296,
          "velocity": 0.8031496062992126
        },
        {
          "duration": 0.33591599999999744,
          "durationTicks": 215,
          "midi": 71,
          "name": "B4",
          "ticks": 167040,
          "time": 260.983296,
          "velocity": 0.8976377952755905
        },
        {
          "duration": 0.23435999999998103,
          "durationTicks": 150,
          "midi": 66,
          "name": "F#4",
          "ticks": 167280,
          "time": 261.358272,
          "velocity": 0.8503937007874016
        },
        {
          "duration": 0.1796759999999722,
          "durationTicks": 115,
          "midi": 69,
          "name": "A4",
          "ticks": 167280,
          "time": 261.358272,
          "velocity": 0.7086614173228346
        },
        {
          "duration": 0.13280399999996462,
          "durationTicks": 85,
          "midi": 66,
          "name": "F#4",
          "ticks": 167520,
          "time": 261.733248,
          "velocity": 0.7559055118110236
        },
        {
          "duration": 0.16405199999996967,
          "durationTicks": 105,
          "midi": 69,
          "name": "A4",
          "ticks": 167520,
          "time": 261.733248,
          "velocity": 0.7401574803149606
        },
        {
          "duration": 0.3046679999999924,
          "durationTicks": 195,
          "midi": 67,
          "name": "G4",
          "ticks": 167640,
          "time": 261.920736,
          "velocity": 0.7559055118110236
        },
        {
          "duration": 0.31247999999999365,
          "durationTicks": 200,
          "midi": 71,
          "name": "B4",
          "ticks": 167640,
          "time": 261.920736,
          "velocity": 0.8503937007874016
        },
        {
          "duration": 0.8749440000000277,
          "durationTicks": 560,
          "midi": 66,
          "name": "F#4",
          "ticks": 167880,
          "time": 262.295712,
          "velocity": 0.8031496062992126
        },
        {
          "duration": 0.8827559999999721,
          "durationTicks": 565,
          "midi": 69,
          "name": "A4",
          "ticks": 167880,
          "time": 262.295712,
          "velocity": 0.7559055118110236
        },
        {
          "duration": 0.3202919999999949,
          "durationTicks": 205,
          "midi": 66,
          "name": "F#4",
          "ticks": 168480,
          "time": 263.23315199999996,
          "velocity": 0.984251968503937
        },
        {
          "duration": 0.3281039999999962,
          "durationTicks": 210,
          "midi": 71,
          "name": "B4",
          "ticks": 168480,
          "time": 263.23315199999996,
          "velocity": 0.7401574803149606
        },
        {
          "duration": 0.41403600000001006,
          "durationTicks": 265,
          "midi": 69,
          "name": "A4",
          "ticks": 168720,
          "time": 263.60812799999997,
          "velocity": 0.9448818897637795
        },
        {
          "duration": 0.3671640000000025,
          "durationTicks": 235,
          "midi": 73,
          "name": "C#5",
          "ticks": 168720,
          "time": 263.60812799999997,
          "velocity": 0.7401574803149606
        },
        {
          "duration": 0.37497600000000375,
          "durationTicks": 240,
          "midi": 71,
          "name": "B4",
          "ticks": 169440,
          "time": 264.733056,
          "velocity": 0.8976377952755905
        },
        {
          "duration": 0.2812319999999886,
          "durationTicks": 180,
          "midi": 78,
          "name": "F#5",
          "ticks": 169440,
          "time": 264.733056,
          "velocity": 0.7559055118110236
        },
        {
          "duration": 0.24998399999998355,
          "durationTicks": 160,
          "midi": 74,
          "name": "D5",
          "ticks": 169680,
          "time": 265.108032,
          "velocity": 0.7401574803149606
        },
        {
          "duration": 0.4765319999999633,
          "durationTicks": 305,
          "midi": 73,
          "name": "C#5",
          "ticks": 169800,
          "time": 265.29552,
          "velocity": 0.9448818897637795
        },
        {
          "duration": 0.4765319999999633,
          "durationTicks": 305,
          "midi": 76,
          "name": "E5",
          "ticks": 169800,
          "time": 265.29552,
          "velocity": 0.7086614173228346
        },
        {
          "duration": 0.6093359999999848,
          "durationTicks": 390,
          "midi": 69,
          "name": "A4",
          "ticks": 170160,
          "time": 265.857984,
          "velocity": 0.8503937007874016
        },
        {
          "duration": 0.47653200000002016,
          "durationTicks": 305,
          "midi": 73,
          "name": "C#5",
          "ticks": 170160,
          "time": 265.857984,
          "velocity": 0.7086614173228346
        },
        {
          "duration": 0.09374400000001515,
          "durationTicks": 60,
          "midi": 69,
          "name": "A4",
          "ticks": 170640,
          "time": 266.607936,
          "velocity": 0.7559055118110236
        },
        {
          "duration": 0.10936800000001767,
          "durationTicks": 70,
          "midi": 69,
          "name": "A4",
          "ticks": 170760,
          "time": 266.79542399999997,
          "velocity": 0.7559055118110236
        },
        {
          "duration": 0.3202919999999949,
          "durationTicks": 205,
          "midi": 71,
          "name": "B4",
          "ticks": 170880,
          "time": 266.982912,
          "velocity": 0.8503937007874016
        },
        {
          "duration": 0.2968559999999911,
          "durationTicks": 190,
          "midi": 74,
          "name": "D5",
          "ticks": 170880,
          "time": 266.982912,
          "velocity": 0.7401574803149606
        },
        {
          "duration": 0.21092399999997724,
          "durationTicks": 135,
          "midi": 69,
          "name": "A4",
          "ticks": 171120,
          "time": 267.357888,
          "velocity": 0.7559055118110236
        },
        {
          "duration": 0.19529999999997472,
          "durationTicks": 125,
          "midi": 71,
          "name": "B4",
          "ticks": 171120,
          "time": 267.357888,
          "velocity": 0.8031496062992126
        },
        {
          "duration": 0.3046679999999924,
          "durationTicks": 195,
          "midi": 71,
          "name": "B4",
          "ticks": 171240,
          "time": 267.545376,
          "velocity": 0.8976377952755905
        },
        {
          "duration": 0.2890440000000467,
          "durationTicks": 185,
          "midi": 74,
          "name": "D5",
          "ticks": 171240,
          "time": 267.545376,
          "velocity": 0.7401574803149606
        },
        {
          "duration": 0.20311199999997598,
          "durationTicks": 130,
          "midi": 62,
          "name": "D4",
          "ticks": 171480,
          "time": 267.920352,
          "velocity": 0.6614173228346457
        },
        {
          "duration": 0.09374400000001515,
          "durationTicks": 60,
          "midi": 74,
          "name": "D5",
          "ticks": 171480,
          "time": 267.920352,
          "velocity": 0.6771653543307087
        },
        {
          "duration": 0.1796759999999722,
          "durationTicks": 115,
          "midi": 64,
          "name": "E4",
          "ticks": 171600,
          "time": 268.10784,
          "velocity": 0.8503937007874016
        },
        {
          "duration": 0.10155599999995957,
          "durationTicks": 65,
          "midi": 74,
          "name": "D5",
          "ticks": 171600,
          "time": 268.10784,
          "velocity": 0.6929133858267716
        },
        {
          "duration": 0.41403600000001006,
          "durationTicks": 265,
          "midi": 66,
          "name": "F#4",
          "ticks": 171720,
          "time": 268.295328,
          "velocity": 0.8031496062992126
        },
        {
          "duration": 0.23435999999998103,
          "durationTicks": 150,
          "midi": 73,
          "name": "C#5",
          "ticks": 171720,
          "time": 268.295328,
          "velocity": 0.7559055118110236
        },
        {
          "duration": 0.7499520000000075,
          "durationTicks": 480,
          "midi": 69,
          "name": "A4",
          "ticks": 171960,
          "time": 268.670304,
          "velocity": 0.8503937007874016
        },
        {
          "duration": 0.8124479999999608,
          "durationTicks": 520,
          "midi": 73,
          "name": "C#5",
          "ticks": 171960,
          "time": 268.670304,
          "velocity": 0.8031496062992126
        },
        {
          "duration": 0.10155600000001641,
          "durationTicks": 65,
          "midi": 66,
          "name": "F#4",
          "ticks": 172560,
          "time": 269.60774399999997,
          "velocity": 0.7559055118110236
        },
        {
          "duration": 0.08593200000001389,
          "durationTicks": 55,
          "midi": 69,
          "name": "A4",
          "ticks": 172560,
          "time": 269.60774399999997,
          "velocity": 0.8976377952755905
        },
        {
          "duration": 0.0937439999999583,
          "durationTicks": 60,
          "midi": 66,
          "name": "F#4",
          "ticks": 172680,
          "time": 269.795232,
          "velocity": 0.7401574803149606
        },
        {
          "duration": 0.07812000000001262,
          "durationTicks": 50,
          "midi": 69,
          "name": "A4",
          "ticks": 172680,
          "time": 269.795232,
          "velocity": 0.7559055118110236
        },
        {
          "duration": 0.21092400000003408,
          "durationTicks": 135,
          "midi": 66,
          "name": "F#4",
          "ticks": 172800,
          "time": 269.98272,
          "velocity": 0.8031496062992126
        },
        {
          "duration": 0.14842800000002399,
          "durationTicks": 95,
          "midi": 69,
          "name": "A4",
          "ticks": 172800,
          "time": 269.98272,
          "velocity": 0.7559055118110236
        },
        {
          "duration": 0.23435999999998103,
          "durationTicks": 150,
          "midi": 64,
          "name": "E4",
          "ticks": 172920,
          "time": 270.170208,
          "velocity": 0.8503937007874016
        },
        {
          "duration": 0.23435999999998103,
          "durationTicks": 150,
          "midi": 67,
          "name": "G4",
          "ticks": 172920,
          "time": 270.170208,
          "velocity": 0.8031496062992126
        },
        {
          "duration": 0.49215599999996584,
          "durationTicks": 315,
          "midi": 64,
          "name": "E4",
          "ticks": 173160,
          "time": 270.545184,
          "velocity": 0.8503937007874016
        },
        {
          "duration": 0.4296600000000126,
          "durationTicks": 275,
          "midi": 67,
          "name": "G4",
          "ticks": 173160,
          "time": 270.545184,
          "velocity": 0.7401574803149606
        },
        {
          "duration": 0.3671640000000025,
          "durationTicks": 235,
          "midi": 66,
          "name": "F#4",
          "ticks": 173520,
          "time": 271.107648,
          "velocity": 0.8031496062992126
        },
        {
          "duration": 0.3437279999999987,
          "durationTicks": 220,
          "midi": 69,
          "name": "A4",
          "ticks": 173520,
          "time": 271.107648,
          "velocity": 0.8031496062992126
        },
        {
          "duration": 0.5234040000000277,
          "durationTicks": 335,
          "midi": 67,
          "name": "G4",
          "ticks": 173760,
          "time": 271.482624,
          "velocity": 0.8503937007874016
        },
        {
          "duration": 0.4843439999999646,
          "durationTicks": 310,
          "midi": 71,
          "name": "B4",
          "ticks": 173760,
          "time": 271.482624,
          "velocity": 0.8976377952755905
        },
        {
          "duration": 0.5546519999999759,
          "durationTicks": 355,
          "midi": 66,
          "name": "F#4",
          "ticks": 174120,
          "time": 272.04508799999996,
          "velocity": 0.8031496062992126
        },
        {
          "duration": 0.5234040000000277,
          "durationTicks": 335,
          "midi": 69,
          "name": "A4",
          "ticks": 174120,
          "time": 272.04508799999996,
          "velocity": 0.8503937007874016
        },
        {
          "duration": 0.36716399999994564,
          "durationTicks": 235,
          "midi": 64,
          "name": "E4",
          "ticks": 174480,
          "time": 272.607552,
          "velocity": 0.8503937007874016
        },
        {
          "duration": 0.33591599999999744,
          "durationTicks": 215,
          "midi": 67,
          "name": "G4",
          "ticks": 174480,
          "time": 272.607552,
          "velocity": 0.7086614173228346
        },
        {
          "duration": 1.5077160000000163,
          "durationTicks": 965,
          "midi": 62,
          "name": "D4",
          "ticks": 174720,
          "time": 272.982528,
          "velocity": 0.6771653543307087
        },
        {
          "duration": 1.523339999999962,
          "durationTicks": 975,
          "midi": 66,
          "name": "F#4",
          "ticks": 174720,
          "time": 272.982528,
          "velocity": 0.6771653543307087
        },
        {
          "duration": 0.3202919999999949,
          "durationTicks": 205,
          "midi": 66,
          "name": "F#4",
          "ticks": 176160,
          "time": 275.23238399999997,
          "velocity": 0.984251968503937
        },
        {
          "duration": 0.3281039999999962,
          "durationTicks": 210,
          "midi": 71,
          "name": "B4",
          "ticks": 176160,
          "time": 275.23238399999997,
          "velocity": 0.7401574803149606
        },
        {
          "duration": 0.41403600000001006,
          "durationTicks": 265,
          "midi": 69,
          "name": "A4",
          "ticks": 176400,
          "time": 275.60735999999997,
          "velocity": 0.9448818897637795
        },
        {
          "duration": 0.3671640000000025,
          "durationTicks": 235,
          "midi": 73,
          "name": "C#5",
          "ticks": 176400,
          "time": 275.60735999999997,
          "velocity": 0.7401574803149606
        },
        {
          "duration": 0.37497600000000375,
          "durationTicks": 240,
          "midi": 71,
          "name": "B4",
          "ticks": 177120,
          "time": 276.732288,
          "velocity": 0.8976377952755905
        },
        {
          "duration": 0.2812319999999886,
          "durationTicks": 180,
          "midi": 78,
          "name": "F#5",
          "ticks": 177120,
          "time": 276.732288,
          "velocity": 0.7559055118110236
        },
        {
          "duration": 0.24998399999998355,
          "durationTicks": 160,
          "midi": 74,
          "name": "D5",
          "ticks": 177360,
          "time": 277.107264,
          "velocity": 0.7401574803149606
        },
        {
          "duration": 0.47653200000002016,
          "durationTicks": 305,
          "midi": 73,
          "name": "C#5",
          "ticks": 177480,
          "time": 277.29475199999996,
          "velocity": 0.9448818897637795
        },
        {
          "duration": 0.47653200000002016,
          "durationTicks": 305,
          "midi": 76,
          "name": "E5",
          "ticks": 177480,
          "time": 277.29475199999996,
          "velocity": 0.7086614173228346
        },
        {
          "duration": 0.6093359999999848,
          "durationTicks": 390,
          "midi": 69,
          "name": "A4",
          "ticks": 177840,
          "time": 277.857216,
          "velocity": 0.8503937007874016
        },
        {
          "duration": 0.47653200000002016,
          "durationTicks": 305,
          "midi": 73,
          "name": "C#5",
          "ticks": 177840,
          "time": 277.857216,
          "velocity": 0.7086614173228346
        },
        {
          "duration": 0.0937439999999583,
          "durationTicks": 60,
          "midi": 69,
          "name": "A4",
          "ticks": 178320,
          "time": 278.607168,
          "velocity": 0.7559055118110236
        },
        {
          "duration": 0.11718000000001894,
          "durationTicks": 75,
          "midi": 69,
          "name": "A4",
          "ticks": 178440,
          "time": 278.794656,
          "velocity": 0.7559055118110236
        },
        {
          "duration": 0.31247999999999365,
          "durationTicks": 200,
          "midi": 71,
          "name": "B4",
          "ticks": 178560,
          "time": 278.982144,
          "velocity": 0.8503937007874016
        },
        {
          "duration": 0.2968559999999343,
          "durationTicks": 190,
          "midi": 74,
          "name": "D5",
          "ticks": 178560,
          "time": 278.982144,
          "velocity": 0.7401574803149606
        },
        {
          "duration": 0.2187359999999785,
          "durationTicks": 140,
          "midi": 69,
          "name": "A4",
          "ticks": 178800,
          "time": 279.35712,
          "velocity": 0.7559055118110236
        },
        {
          "duration": 0.35153999999999996,
          "durationTicks": 225,
          "midi": 71,
          "name": "B4",
          "ticks": 178800,
          "time": 279.35712,
          "velocity": 0.8031496062992126
        },
        {
          "duration": 0.28904399999998986,
          "durationTicks": 185,
          "midi": 74,
          "name": "D5",
          "ticks": 178920,
          "time": 279.544608,
          "velocity": 0.7401574803149606
        },
        {
          "duration": 0.21092399999997724,
          "durationTicks": 135,
          "midi": 62,
          "name": "D4",
          "ticks": 179160,
          "time": 279.919584,
          "velocity": 0.6614173228346457
        },
        {
          "duration": 0.09374400000001515,
          "durationTicks": 60,
          "midi": 74,
          "name": "D5",
          "ticks": 179160,
          "time": 279.919584,
          "velocity": 0.6771653543307087
        },
        {
          "duration": 0.17967600000002903,
          "durationTicks": 115,
          "midi": 64,
          "name": "E4",
          "ticks": 179280,
          "time": 280.10707199999996,
          "velocity": 0.8503937007874016
        },
        {
          "duration": 0.10936800000001767,
          "durationTicks": 70,
          "midi": 74,
          "name": "D5",
          "ticks": 179280,
          "time": 280.10707199999996,
          "velocity": 0.6929133858267716
        },
        {
          "duration": 0.4140359999999532,
          "durationTicks": 265,
          "midi": 66,
          "name": "F#4",
          "ticks": 179400,
          "time": 280.29456,
          "velocity": 0.8031496062992126
        },
        {
          "duration": 0.23435999999998103,
          "durationTicks": 150,
          "midi": 73,
          "name": "C#5",
          "ticks": 179400,
          "time": 280.29456,
          "velocity": 0.7559055118110236
        },
        {
          "duration": 0.7499520000000075,
          "durationTicks": 480,
          "midi": 69,
          "name": "A4",
          "ticks": 179640,
          "time": 280.669536,
          "velocity": 0.8503937007874016
        },
        {
          "duration": 0.8124479999999608,
          "durationTicks": 520,
          "midi": 73,
          "name": "C#5",
          "ticks": 179640,
          "time": 280.669536,
          "velocity": 0.8031496062992126
        },
        {
          "duration": 0.10155600000001641,
          "durationTicks": 65,
          "midi": 66,
          "name": "F#4",
          "ticks": 180240,
          "time": 281.606976,
          "velocity": 0.7559055118110236
        },
        {
          "duration": 0.08593200000001389,
          "durationTicks": 55,
          "midi": 69,
          "name": "A4",
          "ticks": 180240,
          "time": 281.606976,
          "velocity": 0.8976377952755905
        },
        {
          "duration": 0.0937439999999583,
          "durationTicks": 60,
          "midi": 66,
          "name": "F#4",
          "ticks": 180360,
          "time": 281.794464,
          "velocity": 0.7401574803149606
        },
        {
          "duration": 0.07812000000001262,
          "durationTicks": 50,
          "midi": 69,
          "name": "A4",
          "ticks": 180360,
          "time": 281.794464,
          "velocity": 0.7559055118110236
        },
        {
          "duration": 0.21092399999997724,
          "durationTicks": 135,
          "midi": 66,
          "name": "F#4",
          "ticks": 180480,
          "time": 281.981952,
          "velocity": 0.8031496062992126
        },
        {
          "duration": 0.14842800000002399,
          "durationTicks": 95,
          "midi": 69,
          "name": "A4",
          "ticks": 180480,
          "time": 281.981952,
          "velocity": 0.7559055118110236
        },
        {
          "duration": 0.22654799999997977,
          "durationTicks": 145,
          "midi": 64,
          "name": "E4",
          "ticks": 180600,
          "time": 282.16944,
          "velocity": 0.8503937007874016
        },
        {
          "duration": 0.2421719999999823,
          "durationTicks": 155,
          "midi": 67,
          "name": "G4",
          "ticks": 180600,
          "time": 282.16944,
          "velocity": 0.8031496062992126
        },
        {
          "duration": 0.4921560000000227,
          "durationTicks": 315,
          "midi": 64,
          "name": "E4",
          "ticks": 180840,
          "time": 282.54441599999996,
          "velocity": 0.8503937007874016
        },
        {
          "duration": 0.4296600000000126,
          "durationTicks": 275,
          "midi": 67,
          "name": "G4",
          "ticks": 180840,
          "time": 282.54441599999996,
          "velocity": 0.7401574803149606
        },
        {
          "duration": 0.3671640000000025,
          "durationTicks": 235,
          "midi": 66,
          "name": "F#4",
          "ticks": 181200,
          "time": 283.10688,
          "velocity": 0.8031496062992126
        },
        {
          "duration": 0.3437279999999987,
          "durationTicks": 220,
          "midi": 69,
          "name": "A4",
          "ticks": 181200,
          "time": 283.10688,
          "velocity": 0.8031496062992126
        },
        {
          "duration": 0.5234040000000277,
          "durationTicks": 335,
          "midi": 67,
          "name": "G4",
          "ticks": 181440,
          "time": 283.481856,
          "velocity": 0.8503937007874016
        },
        {
          "duration": 0.47653200000002016,
          "durationTicks": 305,
          "midi": 71,
          "name": "B4",
          "ticks": 181440,
          "time": 283.481856,
          "velocity": 0.8976377952755905
        },
        {
          "duration": 0.5546519999999759,
          "durationTicks": 355,
          "midi": 66,
          "name": "F#4",
          "ticks": 181800,
          "time": 284.04431999999997,
          "velocity": 0.8031496062992126
        },
        {
          "duration": 0.5234040000000277,
          "durationTicks": 335,
          "midi": 69,
          "name": "A4",
          "ticks": 181800,
          "time": 284.04431999999997,
          "velocity": 0.8503937007874016
        },
        {
          "duration": 0.36716399999994564,
          "durationTicks": 235,
          "midi": 64,
          "name": "E4",
          "ticks": 182160,
          "time": 284.606784,
          "velocity": 0.8503937007874016
        },
        {
          "duration": 0.33591599999999744,
          "durationTicks": 215,
          "midi": 67,
          "name": "G4",
          "ticks": 182160,
          "time": 284.606784,
          "velocity": 0.7086614173228346
        },
        {
          "duration": 1.5155279999999607,
          "durationTicks": 970,
          "midi": 62,
          "name": "D4",
          "ticks": 182400,
          "time": 284.98176,
          "velocity": 0.6771653543307087
        },
        {
          "duration": 1.523339999999962,
          "durationTicks": 975,
          "midi": 66,
          "name": "F#4",
          "ticks": 182400,
          "time": 284.98176,
          "velocity": 0.6771653543307087
        },
        {
          "duration": 0.3202919999999949,
          "durationTicks": 205,
          "midi": 66,
          "name": "F#4",
          "ticks": 183840,
          "time": 287.231616,
          "velocity": 0.984251968503937
        },
        {
          "duration": 0.3281039999999962,
          "durationTicks": 210,
          "midi": 71,
          "name": "B4",
          "ticks": 183840,
          "time": 287.231616,
          "velocity": 0.7401574803149606
        },
        {
          "duration": 0.41403600000001006,
          "durationTicks": 265,
          "midi": 69,
          "name": "A4",
          "ticks": 184080,
          "time": 287.606592,
          "velocity": 0.9448818897637795
        },
        {
          "duration": 0.35153999999999996,
          "durationTicks": 225,
          "midi": 73,
          "name": "C#5",
          "ticks": 184080,
          "time": 287.606592,
          "velocity": 0.7401574803149606
        },
        {
          "duration": 0.37497600000000375,
          "durationTicks": 240,
          "midi": 71,
          "name": "B4",
          "ticks": 184800,
          "time": 288.73152,
          "velocity": 0.8976377952755905
        },
        {
          "duration": 0.2812319999999886,
          "durationTicks": 180,
          "midi": 78,
          "name": "F#5",
          "ticks": 184800,
          "time": 288.73152,
          "velocity": 0.7559055118110236
        },
        {
          "duration": 0.24998399999998355,
          "durationTicks": 160,
          "midi": 74,
          "name": "D5",
          "ticks": 185040,
          "time": 289.106496,
          "velocity": 0.7401574803149606
        },
        {
          "duration": 0.47653200000002016,
          "durationTicks": 305,
          "midi": 73,
          "name": "C#5",
          "ticks": 185160,
          "time": 289.29398399999997,
          "velocity": 0.9448818897637795
        },
        {
          "duration": 0.47653200000002016,
          "durationTicks": 305,
          "midi": 76,
          "name": "E5",
          "ticks": 185160,
          "time": 289.29398399999997,
          "velocity": 0.7086614173228346
        },
        {
          "duration": 0.617147999999986,
          "durationTicks": 395,
          "midi": 69,
          "name": "A4",
          "ticks": 185520,
          "time": 289.856448,
          "velocity": 0.8503937007874016
        },
        {
          "duration": 0.46871999999996206,
          "durationTicks": 300,
          "midi": 73,
          "name": "C#5",
          "ticks": 185520,
          "time": 289.856448,
          "velocity": 0.7086614173228346
        },
        {
          "duration": 0.0937439999999583,
          "durationTicks": 60,
          "midi": 69,
          "name": "A4",
          "ticks": 186000,
          "time": 290.6064,
          "velocity": 0.7559055118110236
        },
        {
          "duration": 0.10936799999996083,
          "durationTicks": 70,
          "midi": 69,
          "name": "A4",
          "ticks": 186120,
          "time": 290.793888,
          "velocity": 0.7559055118110236
        },
        {
          "duration": 0.3124800000000505,
          "durationTicks": 200,
          "midi": 71,
          "name": "B4",
          "ticks": 186240,
          "time": 290.98137599999995,
          "velocity": 0.8503937007874016
        },
        {
          "duration": 0.2968559999999911,
          "durationTicks": 190,
          "midi": 74,
          "name": "D5",
          "ticks": 186240,
          "time": 290.98137599999995,
          "velocity": 0.7401574803149606
        },
        {
          "duration": 0.21092400000003408,
          "durationTicks": 135,
          "midi": 69,
          "name": "A4",
          "ticks": 186480,
          "time": 291.35635199999996,
          "velocity": 0.7559055118110236
        },
        {
          "duration": 0.38278800000006186,
          "durationTicks": 245,
          "midi": 71,
          "name": "B4",
          "ticks": 186480,
          "time": 291.35635199999996,
          "velocity": 0.8031496062992126
        },
        {
          "duration": 0.28904399999998986,
          "durationTicks": 185,
          "midi": 74,
          "name": "D5",
          "ticks": 186600,
          "time": 291.54384,
          "velocity": 0.7401574803149606
        },
        {
          "duration": 0.21092399999997724,
          "durationTicks": 135,
          "midi": 62,
          "name": "D4",
          "ticks": 186840,
          "time": 291.918816,
          "velocity": 0.6614173228346457
        },
        {
          "duration": 0.09374400000001515,
          "durationTicks": 60,
          "midi": 74,
          "name": "D5",
          "ticks": 186840,
          "time": 291.918816,
          "velocity": 0.6771653543307087
        },
        {
          "duration": 0.17967600000002903,
          "durationTicks": 115,
          "midi": 64,
          "name": "E4",
          "ticks": 186960,
          "time": 292.10630399999997,
          "velocity": 0.8503937007874016
        },
        {
          "duration": 0.10155600000001641,
          "durationTicks": 65,
          "midi": 74,
          "name": "D5",
          "ticks": 186960,
          "time": 292.10630399999997,
          "velocity": 0.6929133858267716
        },
        {
          "duration": 0.4140359999999532,
          "durationTicks": 265,
          "midi": 66,
          "name": "F#4",
          "ticks": 187080,
          "time": 292.293792,
          "velocity": 0.8031496062992126
        },
        {
          "duration": 0.23435999999998103,
          "durationTicks": 150,
          "midi": 73,
          "name": "C#5",
          "ticks": 187080,
          "time": 292.293792,
          "velocity": 0.7559055118110236
        },
        {
          "duration": 0.7499520000000075,
          "durationTicks": 480,
          "midi": 69,
          "name": "A4",
          "ticks": 187320,
          "time": 292.668768,
          "velocity": 0.8503937007874016
        },
        {
          "duration": 0.8124479999999608,
          "durationTicks": 520,
          "midi": 73,
          "name": "C#5",
          "ticks": 187320,
          "time": 292.668768,
          "velocity": 0.8031496062992126
        },
        {
          "duration": 0.10155600000001641,
          "durationTicks": 65,
          "midi": 66,
          "name": "F#4",
          "ticks": 187920,
          "time": 293.606208,
          "velocity": 0.7559055118110236
        },
        {
          "duration": 0.08593200000001389,
          "durationTicks": 55,
          "midi": 69,
          "name": "A4",
          "ticks": 187920,
          "time": 293.606208,
          "velocity": 0.8976377952755905
        },
        {
          "duration": 0.10155600000001641,
          "durationTicks": 65,
          "midi": 66,
          "name": "F#4",
          "ticks": 188040,
          "time": 293.79369599999995,
          "velocity": 0.7401574803149606
        },
        {
          "duration": 0.07812000000001262,
          "durationTicks": 50,
          "midi": 69,
          "name": "A4",
          "ticks": 188040,
          "time": 293.79369599999995,
          "velocity": 0.7559055118110236
        },
        {
          "duration": 0.21092399999997724,
          "durationTicks": 135,
          "midi": 66,
          "name": "F#4",
          "ticks": 188160,
          "time": 293.981184,
          "velocity": 0.8031496062992126
        },
        {
          "duration": 0.14842800000002399,
          "durationTicks": 95,
          "midi": 69,
          "name": "A4",
          "ticks": 188160,
          "time": 293.981184,
          "velocity": 0.7559055118110236
        },
        {
          "duration": 0.2265480000000366,
          "durationTicks": 145,
          "midi": 64,
          "name": "E4",
          "ticks": 188280,
          "time": 294.16867199999996,
          "velocity": 0.8503937007874016
        },
        {
          "duration": 0.24217200000003913,
          "durationTicks": 155,
          "midi": 67,
          "name": "G4",
          "ticks": 188280,
          "time": 294.16867199999996,
          "velocity": 0.8031496062992126
        },
        {
          "duration": 0.4921560000000227,
          "durationTicks": 315,
          "midi": 64,
          "name": "E4",
          "ticks": 188520,
          "time": 294.54364799999996,
          "velocity": 0.8503937007874016
        },
        {
          "duration": 0.4296600000000126,
          "durationTicks": 275,
          "midi": 67,
          "name": "G4",
          "ticks": 188520,
          "time": 294.54364799999996,
          "velocity": 0.7401574803149606
        },
        {
          "duration": 0.36716399999994564,
          "durationTicks": 235,
          "midi": 66,
          "name": "F#4",
          "ticks": 188880,
          "time": 295.106112,
          "velocity": 0.8031496062992126
        },
        {
          "duration": 0.3437279999999987,
          "durationTicks": 220,
          "midi": 69,
          "name": "A4",
          "ticks": 188880,
          "time": 295.106112,
          "velocity": 0.8031496062992126
        },
        {
          "duration": 0.5234039999999709,
          "durationTicks": 335,
          "midi": 67,
          "name": "G4",
          "ticks": 189120,
          "time": 295.481088,
          "velocity": 0.8503937007874016
        },
        {
          "duration": 0.47653200000002016,
          "durationTicks": 305,
          "midi": 71,
          "name": "B4",
          "ticks": 189120,
          "time": 295.481088,
          "velocity": 0.8976377952755905
        },
        {
          "duration": 0.5546519999999759,
          "durationTicks": 355,
          "midi": 66,
          "name": "F#4",
          "ticks": 189480,
          "time": 296.043552,
          "velocity": 0.8031496062992126
        },
        {
          "duration": 0.5155920000000265,
          "durationTicks": 330,
          "midi": 69,
          "name": "A4",
          "ticks": 189480,
          "time": 296.043552,
          "velocity": 0.8503937007874016
        },
        {
          "duration": 0.3671640000000025,
          "durationTicks": 235,
          "midi": 64,
          "name": "E4",
          "ticks": 189840,
          "time": 296.60601599999995,
          "velocity": 0.8503937007874016
        },
        {
          "duration": 0.3359160000000543,
          "durationTicks": 215,
          "midi": 67,
          "name": "G4",
          "ticks": 189840,
          "time": 296.60601599999995,
          "velocity": 0.7086614173228346
        },
        {
          "duration": 1.5077160000000163,
          "durationTicks": 965,
          "midi": 62,
          "name": "D4",
          "ticks": 190080,
          "time": 296.98099199999996,
          "velocity": 0.6771653543307087
        },
        {
          "duration": 1.5077160000000163,
          "durationTicks": 965,
          "midi": 66,
          "name": "F#4",
          "ticks": 190080,
          "time": 296.98099199999996,
          "velocity": 0.6771653543307087
        },
        {
          "duration": 0.1796759999999722,
          "durationTicks": 115,
          "midi": 64,
          "name": "E4",
          "ticks": 191760,
          "time": 299.605824,
          "velocity": 0.7795275590551181
        },
        {
          "duration": 0.17967600000002903,
          "durationTicks": 115,
          "midi": 62,
          "name": "D4",
          "ticks": 191880,
          "time": 299.79331199999996,
          "velocity": 0.7795275590551181
        },
        {
          "duration": 0.14842800000002399,
          "durationTicks": 95,
          "midi": 64,
          "name": "E4",
          "ticks": 192000,
          "time": 299.9808,
          "velocity": 0.7795275590551181
        },
        {
          "duration": 0.3202919999999949,
          "durationTicks": 205,
          "midi": 62,
          "name": "D4",
          "ticks": 192120,
          "time": 300.16828799999996,
          "velocity": 0.7716535433070866
        },
        {
          "duration": 1.0155600000000504,
          "durationTicks": 650,
          "midi": 62,
          "name": "D4",
          "ticks": 192360,
          "time": 300.54326399999997,
          "velocity": 0.7716535433070866
        },
        {
          "duration": 0.17186400000002777,
          "durationTicks": 110,
          "midi": 52,
          "name": "E3",
          "ticks": 193680,
          "time": 302.60563199999996,
          "velocity": 0.7637795275590551
        },
        {
          "duration": 0.18748799999997345,
          "durationTicks": 120,
          "midi": 50,
          "name": "D3",
          "ticks": 193800,
          "time": 302.79312,
          "velocity": 0.7637795275590551
        },
        {
          "duration": 0.17186400000002777,
          "durationTicks": 110,
          "midi": 52,
          "name": "E3",
          "ticks": 193920,
          "time": 302.98060799999996,
          "velocity": 0.7637795275590551
        },
        {
          "duration": 0.2812319999999886,
          "durationTicks": 180,
          "midi": 50,
          "name": "D3",
          "ticks": 194040,
          "time": 303.168096,
          "velocity": 0.7637795275590551
        },
        {
          "duration": 1.031183999999996,
          "durationTicks": 660,
          "midi": 50,
          "name": "D3",
          "ticks": 194280,
          "time": 303.543072,
          "velocity": 0.7559055118110236
        },
        {
          "duration": 0.18748799999997345,
          "durationTicks": 120,
          "midi": 64,
          "name": "E4",
          "ticks": 195600,
          "time": 305.60544,
          "velocity": 0.7480314960629921
        },
        {
          "duration": 0.21092400000003408,
          "durationTicks": 135,
          "midi": 62,
          "name": "D4",
          "ticks": 195720,
          "time": 305.79292799999996,
          "velocity": 0.7480314960629921
        },
        {
          "duration": 0.18748799999997345,
          "durationTicks": 120,
          "midi": 64,
          "name": "E4",
          "ticks": 195840,
          "time": 305.980416,
          "velocity": 0.7480314960629921
        },
        {
          "duration": 0.2890440000000467,
          "durationTicks": 185,
          "midi": 62,
          "name": "D4",
          "ticks": 195960,
          "time": 306.16790399999996,
          "velocity": 0.7480314960629921
        },
        {
          "duration": 0.9764999999999873,
          "durationTicks": 625,
          "midi": 62,
          "name": "D4",
          "ticks": 196200,
          "time": 306.54287999999997,
          "velocity": 0.7401574803149606
        },
        {
          "duration": 0.37497600000000375,
          "durationTicks": 240,
          "midi": 57,
          "name": "A3",
          "ticks": 197760,
          "time": 308.98022399999996,
          "velocity": 0.7637795275590551
        },
        {
          "duration": 0.1796759999999722,
          "durationTicks": 115,
          "midi": 59,
          "name": "B3",
          "ticks": 198000,
          "time": 309.35519999999997,
          "velocity": 0.7637795275590551
        },
        {
          "duration": 0.382788000000005,
          "durationTicks": 245,
          "midi": 62,
          "name": "D4",
          "ticks": 198120,
          "time": 309.542688,
          "velocity": 0.6377952755905512
        },
        {
          "duration": 0.3046679999999924,
          "durationTicks": 195,
          "midi": 64,
          "name": "E4",
          "ticks": 198360,
          "time": 309.917664,
          "velocity": 0.7165354330708661
        },
        {
          "duration": 0.3984119999999507,
          "durationTicks": 255,
          "midi": 64,
          "name": "E4",
          "ticks": 198600,
          "time": 310.29264,
          "velocity": 0.7322834645669292
        },
        {
          "duration": 1.0858680000000618,
          "durationTicks": 695,
          "midi": 66,
          "name": "F#4",
          "ticks": 198840,
          "time": 310.66761599999995,
          "velocity": 0.7637795275590551
        },
        {
          "duration": 0.37497600000000375,
          "durationTicks": 240,
          "midi": 57,
          "name": "A3",
          "ticks": 199680,
          "time": 311.980032,
          "velocity": 0.7637795275590551
        },
        {
          "duration": 0.1796759999999722,
          "durationTicks": 115,
          "midi": 59,
          "name": "B3",
          "ticks": 199920,
          "time": 312.355008,
          "velocity": 0.7637795275590551
        },
        {
          "duration": 0.382788000000005,
          "durationTicks": 245,
          "midi": 62,
          "name": "D4",
          "ticks": 200040,
          "time": 312.54249599999997,
          "velocity": 0.6377952755905512
        },
        {
          "duration": 0.31247999999999365,
          "durationTicks": 200,
          "midi": 64,
          "name": "E4",
          "ticks": 200280,
          "time": 312.917472,
          "velocity": 0.7165354330708661
        },
        {
          "duration": 0.4062240000000088,
          "durationTicks": 260,
          "midi": 64,
          "name": "E4",
          "ticks": 200520,
          "time": 313.292448,
          "velocity": 0.7322834645669292
        },
        {
          "duration": 1.0936800000000062,
          "durationTicks": 700,
          "midi": 66,
          "name": "F#4",
          "ticks": 200760,
          "time": 313.667424,
          "velocity": 0.7637795275590551
        },
        {
          "duration": 0.37497600000000375,
          "durationTicks": 240,
          "midi": 57,
          "name": "A3",
          "ticks": 201600,
          "time": 314.97983999999997,
          "velocity": 0.7637795275590551
        },
        {
          "duration": 0.1874880000000303,
          "durationTicks": 120,
          "midi": 59,
          "name": "B3",
          "ticks": 201840,
          "time": 315.35481599999997,
          "velocity": 0.7637795275590551
        },
        {
          "duration": 0.382788000000005,
          "durationTicks": 245,
          "midi": 62,
          "name": "D4",
          "ticks": 201960,
          "time": 315.542304,
          "velocity": 0.6377952755905512
        },
        {
          "duration": 0.3046679999999924,
          "durationTicks": 195,
          "midi": 64,
          "name": "E4",
          "ticks": 202200,
          "time": 315.91728,
          "velocity": 0.7165354330708661
        },
        {
          "duration": 0.40622400000006564,
          "durationTicks": 260,
          "midi": 64,
          "name": "E4",
          "ticks": 202440,
          "time": 316.29225599999995,
          "velocity": 0.7322834645669292
        },
        {
          "duration": 1.0936800000000062,
          "durationTicks": 700,
          "midi": 66,
          "name": "F#4",
          "ticks": 202680,
          "time": 316.66723199999996,
          "velocity": 0.7637795275590551
        },
        {
          "duration": 0.37497600000000375,
          "durationTicks": 240,
          "midi": 57,
          "name": "A3",
          "ticks": 203520,
          "time": 317.979648,
          "velocity": 0.7637795275590551
        },
        {
          "duration": 0.1796759999999722,
          "durationTicks": 115,
          "midi": 59,
          "name": "B3",
          "ticks": 203760,
          "time": 318.354624,
          "velocity": 0.7637795275590551
        },
        {
          "duration": 0.382788000000005,
          "durationTicks": 245,
          "midi": 62,
          "name": "D4",
          "ticks": 203880,
          "time": 318.542112,
          "velocity": 0.6377952755905512
        },
        {
          "duration": 0.31247999999999365,
          "durationTicks": 200,
          "midi": 64,
          "name": "E4",
          "ticks": 204120,
          "time": 318.917088,
          "velocity": 0.7165354330708661
        },
        {
          "duration": 0.39841200000000754,
          "durationTicks": 255,
          "midi": 64,
          "name": "E4",
          "ticks": 204360,
          "time": 319.292064,
          "velocity": 0.7322834645669292
        },
        {
          "duration": 1.085868000000005,
          "durationTicks": 695,
          "midi": 66,
          "name": "F#4",
          "ticks": 204600,
          "time": 319.66704,
          "velocity": 0.7637795275590551
        },
        {
          "duration": 0.37497600000000375,
          "durationTicks": 240,
          "midi": 57,
          "name": "A3",
          "ticks": 205440,
          "time": 320.97945599999997,
          "velocity": 0.7637795275590551
        },
        {
          "duration": 0.1796759999999722,
          "durationTicks": 115,
          "midi": 59,
          "name": "B3",
          "ticks": 205680,
          "time": 321.354432,
          "velocity": 0.7637795275590551
        },
        {
          "duration": 0.382788000000005,
          "durationTicks": 245,
          "midi": 62,
          "name": "D4",
          "ticks": 205800,
          "time": 321.54192,
          "velocity": 0.6377952755905512
        },
        {
          "duration": 0.30466800000004923,
          "durationTicks": 195,
          "midi": 64,
          "name": "E4",
          "ticks": 206040,
          "time": 321.91689599999995,
          "velocity": 0.7165354330708661
        },
        {
          "duration": 0.39841200000000754,
          "durationTicks": 255,
          "midi": 64,
          "name": "E4",
          "ticks": 206280,
          "time": 322.29187199999996,
          "velocity": 0.7322834645669292
        },
        {
          "duration": 1.0858680000000618,
          "durationTicks": 695,
          "midi": 66,
          "name": "F#4",
          "ticks": 206520,
          "time": 322.66684799999996,
          "velocity": 0.7637795275590551
        },
        {
          "duration": 0.37497600000000375,
          "durationTicks": 240,
          "midi": 57,
          "name": "A3",
          "ticks": 207360,
          "time": 323.979264,
          "velocity": 0.7637795275590551
        },
        {
          "duration": 0.1796759999999722,
          "durationTicks": 115,
          "midi": 59,
          "name": "B3",
          "ticks": 207600,
          "time": 324.35424,
          "velocity": 0.7637795275590551
        },
        {
          "duration": 0.382788000000005,
          "durationTicks": 245,
          "midi": 62,
          "name": "D4",
          "ticks": 207720,
          "time": 324.541728,
          "velocity": 0.6377952755905512
        },
        {
          "duration": 0.3046679999999924,
          "durationTicks": 195,
          "midi": 64,
          "name": "E4",
          "ticks": 207960,
          "time": 324.916704,
          "velocity": 0.7165354330708661
        },
        {
          "duration": 0.4062240000000088,
          "durationTicks": 260,
          "midi": 64,
          "name": "E4",
          "ticks": 208200,
          "time": 325.29168,
          "velocity": 0.7322834645669292
        },
        {
          "duration": 1.085868000000005,
          "durationTicks": 695,
          "midi": 66,
          "name": "F#4",
          "ticks": 208440,
          "time": 325.666656,
          "velocity": 0.7637795275590551
        },
        {
          "duration": 0.37497600000000375,
          "durationTicks": 240,
          "midi": 57,
          "name": "A3",
          "ticks": 209280,
          "time": 326.979072,
          "velocity": 0.7637795275590551
        },
        {
          "duration": 0.1796759999999722,
          "durationTicks": 115,
          "midi": 59,
          "name": "B3",
          "ticks": 209520,
          "time": 327.354048,
          "velocity": 0.7637795275590551
        },
        {
          "duration": 0.38278800000006186,
          "durationTicks": 245,
          "midi": 62,
          "name": "D4",
          "ticks": 209640,
          "time": 327.54153599999995,
          "velocity": 0.6377952755905512
        },
        {
          "duration": 0.3124800000000505,
          "durationTicks": 200,
          "midi": 64,
          "name": "E4",
          "ticks": 209880,
          "time": 327.91651199999995,
          "velocity": 0.7165354330708661
        },
        {
          "duration": 0.39841200000000754,
          "durationTicks": 255,
          "midi": 64,
          "name": "E4",
          "ticks": 210120,
          "time": 328.29148799999996,
          "velocity": 0.7322834645669292
        },
        {
          "duration": 1.0780560000000037,
          "durationTicks": 690,
          "midi": 66,
          "name": "F#4",
          "ticks": 210360,
          "time": 328.66646399999996,
          "velocity": 0.7637795275590551
        },
        {
          "duration": 0.3749759999999469,
          "durationTicks": 240,
          "midi": 57,
          "name": "A3",
          "ticks": 211200,
          "time": 329.97888,
          "velocity": 0.7637795275590551
        },
        {
          "duration": 0.17967600000002903,
          "durationTicks": 115,
          "midi": 59,
          "name": "B3",
          "ticks": 211440,
          "time": 330.35385599999995,
          "velocity": 0.7637795275590551
        },
        {
          "duration": 0.382788000000005,
          "durationTicks": 245,
          "midi": 62,
          "name": "D4",
          "ticks": 211560,
          "time": 330.541344,
          "velocity": 0.6377952755905512
        },
        {
          "duration": 0.3046679999999924,
          "durationTicks": 195,
          "midi": 64,
          "name": "E4",
          "ticks": 211800,
          "time": 330.91632,
          "velocity": 0.7165354330708661
        },
        {
          "duration": 0.39841200000000754,
          "durationTicks": 255,
          "midi": 64,
          "name": "E4",
          "ticks": 212040,
          "time": 331.291296,
          "velocity": 0.7322834645669292
        },
        {
          "duration": 1.085868000000005,
          "durationTicks": 695,
          "midi": 66,
          "name": "F#4",
          "ticks": 212280,
          "time": 331.666272,
          "velocity": 0.7637795275590551
        },
        {
          "duration": 0.35153999999999996,
          "durationTicks": 225,
          "midi": 57,
          "name": "A3",
          "ticks": 213120,
          "time": 332.978688,
          "velocity": 0.7874015748031497
        },
        {
          "duration": 0.18748799999997345,
          "durationTicks": 120,
          "midi": 59,
          "name": "B3",
          "ticks": 213360,
          "time": 333.353664,
          "velocity": 0.7874015748031497
        },
        {
          "duration": 0.37497600000000375,
          "durationTicks": 240,
          "midi": 62,
          "name": "D4",
          "ticks": 213480,
          "time": 333.54115199999995,
          "velocity": 0.7637795275590551
        },
        {
          "duration": 0.3124800000000505,
          "durationTicks": 200,
          "midi": 64,
          "name": "E4",
          "ticks": 213720,
          "time": 333.91612799999996,
          "velocity": 0.7401574803149606
        },
        {
          "duration": 0.39841200000000754,
          "durationTicks": 255,
          "midi": 64,
          "name": "E4",
          "ticks": 213960,
          "time": 334.29110399999996,
          "velocity": 0.7559055118110236
        },
        {
          "duration": 2.054555999999991,
          "durationTicks": 1315,
          "midi": 66,
          "name": "F#4",
          "ticks": 214200,
          "time": 334.66607999999997,
          "velocity": 0.7874015748031497
        }
      ]
    },
    {
      "channel": 0,
      "controlChanges": {
        "0": [
          {
            "number": 0,
            "ticks": 580,
            "time": 0.9061919999999999,
            "value": 0
          }
        ],
        "32": [
          {
            "number": 32,
            "ticks": 585,
            "time": 0.9140039999999999,
            "value": 0
          }
        ]
      },
      "pitchBends": [],
      "instrument": {
        "family": "piano",
        "number": 0,
        "name": "acoustic grand piano"
      },
      "name": "       ",
      "notes": [],
      "endOfTrackTicks": 216960
    },
    {
      "channel": 0,
      "controlChanges": {
        "0": [
          {
            "number": 0,
            "ticks": 755,
            "time": 1.1796119999999999,
            "value": 0
          }
        ],
        "7": [
          {
            "number": 7,
            "ticks": 595,
            "time": 0.9296279999999999,
            "value": 0.6299212598425197
          }
        ],
        "10": [
          {
            "number": 10,
            "ticks": 595,
            "time": 0.9296279999999999,
            "value": 0.3858267716535433
          }
        ],
        "11": [
          {
            "number": 11,
            "ticks": 595,
            "time": 0.9296279999999999,
            "value": 1
          }
        ],
        "32": [
          {
            "number": 32,
            "ticks": 760,
            "time": 1.1874239999999998,
            "value": 0
          }
        ],
        "91": [
          {
            "number": 91,
            "ticks": 600,
            "time": 0.9374399999999999,
            "value": 0.3937007874015748
          }
        ],
        "93": [
          {
            "number": 93,
            "ticks": 600,
            "time": 0.9374399999999999,
            "value": 0.31496062992125984
          }
        ]
      },
      "pitchBends": [],
      "instrument": {
        "family": "ensemble",
        "number": 49,
        "name": "string ensemble 2"
      },
      "name": "",
      "notes": []
    },
    {
      "channel": 0,
      "controlChanges": {
        "6": [
          {
            "number": 6,
            "ticks": 1080,
            "time": 1.687392,
            "value": 0.1889763779527559
          },
          {
            "number": 6,
            "ticks": 1095,
            "time": 1.7108279999999998,
            "value": 0.4566929133858268
          },
          {
            "number": 6,
            "ticks": 1110,
            "time": 1.7342639999999998,
            "value": 0.6220472440944882
          },
          {
            "number": 6,
            "ticks": 1230,
            "time": 1.921752,
            "value": 0.6220472440944882
          },
          {
            "number": 6,
            "ticks": 1230,
            "time": 1.921752,
            "value": 0.48031496062992124
          },
          {
            "number": 6,
            "ticks": 1245,
            "time": 1.945188,
            "value": 0.2047244094488189
          }
        ],
        "7": [
          {
            "number": 7,
            "ticks": 770,
            "time": 1.203048,
            "value": 0.6299212598425197
          },
          {
            "number": 7,
            "ticks": 770,
            "time": 1.203048,
            "value": 0.8267716535433071
          },
          {
            "number": 7,
            "ticks": 216960,
            "time": 338.978304,
            "value": 0.8267716535433071
          }
        ],
        "10": [
          {
            "number": 10,
            "ticks": 770,
            "time": 1.203048,
            "value": 0.3858267716535433
          },
          {
            "number": 10,
            "ticks": 770,
            "time": 1.203048,
            "value": 0.9448818897637795
          },
          {
            "number": 10,
            "ticks": 216960,
            "time": 338.978304,
            "value": 0.9448818897637795
          }
        ],
        "11": [
          {
            "number": 11,
            "ticks": 770,
            "time": 1.203048,
            "value": 1
          },
          {
            "number": 11,
            "ticks": 838,
            "time": 1.3092911999999999,
            "value": 0.9921259842519685
          },
          {
            "number": 11,
            "ticks": 907,
            "time": 1.4170968,
            "value": 0.984251968503937
          },
          {
            "number": 11,
            "ticks": 975,
            "time": 1.52334,
            "value": 0.9763779527559056
          },
          {
            "number": 11,
            "ticks": 1044,
            "time": 1.6311455999999998,
            "value": 0.968503937007874
          },
          {
            "number": 11,
            "ticks": 1112,
            "time": 1.7373888,
            "value": 0.9606299212598425
          },
          {
            "number": 11,
            "ticks": 1181,
            "time": 1.8451944,
            "value": 0.952755905511811
          },
          {
            "number": 11,
            "ticks": 1249,
            "time": 1.9514375999999998,
            "value": 0.9448818897637795
          },
          {
            "number": 11,
            "ticks": 1318,
            "time": 2.0592431999999996,
            "value": 0.937007874015748
          },
          {
            "number": 11,
            "ticks": 1386,
            "time": 2.1654864,
            "value": 0.9291338582677166
          },
          {
            "number": 11,
            "ticks": 1455,
            "time": 2.2732919999999996,
            "value": 0.9212598425196851
          },
          {
            "number": 11,
            "ticks": 1523,
            "time": 2.3795352,
            "value": 0.9133858267716536
          },
          {
            "number": 11,
            "ticks": 1592,
            "time": 2.4873408,
            "value": 0.905511811023622
          },
          {
            "number": 11,
            "ticks": 1660,
            "time": 2.593584,
            "value": 0.8976377952755905
          },
          {
            "number": 11,
            "ticks": 1729,
            "time": 2.7013895999999997,
            "value": 0.889763779527559
          },
          {
            "number": 11,
            "ticks": 1797,
            "time": 2.8076328,
            "value": 0.8818897637795275
          },
          {
            "number": 11,
            "ticks": 1866,
            "time": 2.9154383999999998,
            "value": 0.8740157480314961
          },
          {
            "number": 11,
            "ticks": 1934,
            "time": 3.0216816,
            "value": 0.8661417322834646
          },
          {
            "number": 11,
            "ticks": 2003,
            "time": 3.1294872,
            "value": 0.8582677165354331
          },
          {
            "number": 11,
            "ticks": 2071,
            "time": 3.2357303999999996,
            "value": 0.8503937007874016
          },
          {
            "number": 11,
            "ticks": 2140,
            "time": 3.3435359999999994,
            "value": 0.84251968503937
          },
          {
            "number": 11,
            "ticks": 2208,
            "time": 3.4497791999999996,
            "value": 0.8346456692913385
          },
          {
            "number": 11,
            "ticks": 2277,
            "time": 3.5575848,
            "value": 0.8267716535433071
          },
          {
            "number": 11,
            "ticks": 2345,
            "time": 3.663828,
            "value": 0.8188976377952756
          },
          {
            "number": 11,
            "ticks": 2414,
            "time": 3.7716336,
            "value": 0.8110236220472441
          },
          {
            "number": 11,
            "ticks": 2482,
            "time": 3.8778767999999997,
            "value": 0.8031496062992126
          },
          {
            "number": 11,
            "ticks": 2551,
            "time": 3.9856823999999995,
            "value": 0.7952755905511811
          },
          {
            "number": 11,
            "ticks": 2619,
            "time": 4.0919256,
            "value": 0.7874015748031497
          },
          {
            "number": 11,
            "ticks": 2688,
            "time": 4.1997311999999996,
            "value": 0.7795275590551181
          },
          {
            "number": 11,
            "ticks": 2756,
            "time": 4.305974399999999,
            "value": 0.7716535433070866
          },
          {
            "number": 11,
            "ticks": 2825,
            "time": 4.41378,
            "value": 0.7637795275590551
          },
          {
            "number": 11,
            "ticks": 2893,
            "time": 4.5200232,
            "value": 0.7559055118110236
          },
          {
            "number": 11,
            "ticks": 2962,
            "time": 4.6278288,
            "value": 0.7480314960629921
          },
          {
            "number": 11,
            "ticks": 3030,
            "time": 4.734071999999999,
            "value": 0.7401574803149606
          },
          {
            "number": 11,
            "ticks": 3099,
            "time": 4.841877599999999,
            "value": 0.7322834645669292
          },
          {
            "number": 11,
            "ticks": 3167,
            "time": 4.9481208,
            "value": 0.7244094488188977
          },
          {
            "number": 11,
            "ticks": 3236,
            "time": 5.0559264,
            "value": 0.7165354330708661
          },
          {
            "number": 11,
            "ticks": 3304,
            "time": 5.1621696,
            "value": 0.7086614173228346
          },
          {
            "number": 11,
            "ticks": 3373,
            "time": 5.2699752,
            "value": 0.7007874015748031
          },
          {
            "number": 11,
            "ticks": 3441,
            "time": 5.3762184,
            "value": 0.6929133858267716
          },
          {
            "number": 11,
            "ticks": 3510,
            "time": 5.484024,
            "value": 0.6850393700787402
          },
          {
            "number": 11,
            "ticks": 3578,
            "time": 5.5902671999999995,
            "value": 0.6771653543307087
          },
          {
            "number": 11,
            "ticks": 3647,
            "time": 5.698072799999999,
            "value": 0.6692913385826772
          },
          {
            "number": 11,
            "ticks": 3715,
            "time": 5.804315999999999,
            "value": 0.6614173228346457
          },
          {
            "number": 11,
            "ticks": 3784,
            "time": 5.9121216,
            "value": 0.6535433070866141
          },
          {
            "number": 11,
            "ticks": 3852,
            "time": 6.0183648,
            "value": 0.6456692913385826
          },
          {
            "number": 11,
            "ticks": 3921,
            "time": 6.1261703999999995,
            "value": 0.6377952755905512
          },
          {
            "number": 11,
            "ticks": 3989,
            "time": 6.2324136,
            "value": 0.6299212598425197
          },
          {
            "number": 11,
            "ticks": 4058,
            "time": 6.3402192,
            "value": 0.6220472440944882
          },
          {
            "number": 11,
            "ticks": 4126,
            "time": 6.4464624,
            "value": 0.6141732283464567
          },
          {
            "number": 11,
            "ticks": 4195,
            "time": 6.554268,
            "value": 0.6062992125984252
          },
          {
            "number": 11,
            "ticks": 4263,
            "time": 6.660511199999999,
            "value": 0.5984251968503937
          },
          {
            "number": 11,
            "ticks": 4332,
            "time": 6.7683168,
            "value": 0.5905511811023622
          },
          {
            "number": 11,
            "ticks": 4400,
            "time": 6.874559999999999,
            "value": 0.5826771653543307
          },
          {
            "number": 11,
            "ticks": 4469,
            "time": 6.9823656,
            "value": 0.5748031496062992
          },
          {
            "number": 11,
            "ticks": 4537,
            "time": 7.0886087999999985,
            "value": 0.5669291338582677
          },
          {
            "number": 11,
            "ticks": 4606,
            "time": 7.196414399999999,
            "value": 0.5590551181102362
          },
          {
            "number": 11,
            "ticks": 4674,
            "time": 7.3026576,
            "value": 0.5511811023622047
          },
          {
            "number": 11,
            "ticks": 4743,
            "time": 7.4104632,
            "value": 0.5433070866141733
          },
          {
            "number": 11,
            "ticks": 4811,
            "time": 7.5167063999999995,
            "value": 0.5354330708661418
          },
          {
            "number": 11,
            "ticks": 4880,
            "time": 7.624511999999999,
            "value": 0.5275590551181102
          },
          {
            "number": 11,
            "ticks": 4948,
            "time": 7.7307552,
            "value": 0.5196850393700787
          },
          {
            "number": 11,
            "ticks": 5017,
            "time": 7.838560799999999,
            "value": 0.5118110236220472
          },
          {
            "number": 11,
            "ticks": 5085,
            "time": 7.9448039999999995,
            "value": 0.5039370078740157
          },
          {
            "number": 11,
            "ticks": 5154,
            "time": 8.0526096,
            "value": 0.49606299212598426
          },
          {
            "number": 11,
            "ticks": 5222,
            "time": 8.1588528,
            "value": 0.4881889763779528
          },
          {
            "number": 11,
            "ticks": 5291,
            "time": 8.266658399999999,
            "value": 0.48031496062992124
          },
          {
            "number": 11,
            "ticks": 5359,
            "time": 8.372901599999999,
            "value": 0.47244094488188976
          },
          {
            "number": 11,
            "ticks": 5428,
            "time": 8.4807072,
            "value": 0.4645669291338583
          },
          {
            "number": 11,
            "ticks": 5496,
            "time": 8.5869504,
            "value": 0.4566929133858268
          },
          {
            "number": 11,
            "ticks": 5565,
            "time": 8.694756,
            "value": 0.44881889763779526
          },
          {
            "number": 11,
            "ticks": 5633,
            "time": 8.8009992,
            "value": 0.4409448818897638
          },
          {
            "number": 11,
            "ticks": 5702,
            "time": 8.908804799999999,
            "value": 0.4330708661417323
          },
          {
            "number": 11,
            "ticks": 5770,
            "time": 9.015048,
            "value": 0.4251968503937008
          },
          {
            "number": 11,
            "ticks": 5775,
            "time": 9.02286,
            "value": 0.5039370078740157
          },
          {
            "number": 11,
            "ticks": 5790,
            "time": 9.046296,
            "value": 0.4330708661417323
          },
          {
            "number": 11,
            "ticks": 5810,
            "time": 9.077544,
            "value": 0.4409448818897638
          },
          {
            "number": 11,
            "ticks": 5810,
            "time": 9.077544,
            "value": 0.5118110236220472
          },
          {
            "number": 11,
            "ticks": 5825,
            "time": 9.10098,
            "value": 0.47244094488188976
          },
          {
            "number": 11,
            "ticks": 5830,
            "time": 9.108792,
            "value": 0.4566929133858268
          },
          {
            "number": 11,
            "ticks": 5845,
            "time": 9.132228,
            "value": 0.5039370078740157
          },
          {
            "number": 11,
            "ticks": 5850,
            "time": 9.140039999999999,
            "value": 0.5196850393700787
          },
          {
            "number": 11,
            "ticks": 5865,
            "time": 9.163476,
            "value": 0.48031496062992124
          },
          {
            "number": 11,
            "ticks": 5870,
            "time": 9.171287999999999,
            "value": 0.4645669291338583
          },
          {
            "number": 11,
            "ticks": 5870,
            "time": 9.171287999999999,
            "value": 0.5275590551181102
          },
          {
            "number": 11,
            "ticks": 5885,
            "time": 9.194723999999999,
            "value": 0.4881889763779528
          },
          {
            "number": 11,
            "ticks": 5890,
            "time": 9.202536,
            "value": 0.47244094488188976
          },
          {
            "number": 11,
            "ticks": 5905,
            "time": 9.225972,
            "value": 0.48031496062992124
          },
          {
            "number": 11,
            "ticks": 5910,
            "time": 9.233784,
            "value": 0.5354330708661418
          },
          {
            "number": 11,
            "ticks": 5925,
            "time": 9.25722,
            "value": 0.5039370078740157
          },
          {
            "number": 11,
            "ticks": 5930,
            "time": 9.265032,
            "value": 0.4881889763779528
          },
          {
            "number": 11,
            "ticks": 5930,
            "time": 9.265032,
            "value": 0.5433070866141733
          },
          {
            "number": 11,
            "ticks": 5945,
            "time": 9.288467999999998,
            "value": 0.5118110236220472
          },
          {
            "number": 11,
            "ticks": 5950,
            "time": 9.29628,
            "value": 0.49606299212598426
          },
          {
            "number": 11,
            "ticks": 5970,
            "time": 9.327528,
            "value": 0.5039370078740157
          },
          {
            "number": 11,
            "ticks": 5970,
            "time": 9.327528,
            "value": 0.5511811023622047
          },
          {
            "number": 11,
            "ticks": 5985,
            "time": 9.350964,
            "value": 0.5275590551181102
          },
          {
            "number": 11,
            "ticks": 5990,
            "time": 9.358775999999999,
            "value": 0.5118110236220472
          },
          {
            "number": 11,
            "ticks": 6005,
            "time": 9.382211999999999,
            "value": 0.5275590551181102
          },
          {
            "number": 11,
            "ticks": 6010,
            "time": 9.390024,
            "value": 0.5669291338582677
          },
          {
            "number": 11,
            "ticks": 6040,
            "time": 9.436895999999999,
            "value": 0.5433070866141733
          },
          {
            "number": 11,
            "ticks": 6050,
            "time": 9.45252,
            "value": 0.5354330708661418
          },
          {
            "number": 11,
            "ticks": 6070,
            "time": 9.483768,
            "value": 0.5433070866141733
          },
          {
            "number": 11,
            "ticks": 6070,
            "time": 9.483768,
            "value": 0.5748031496062992
          },
          {
            "number": 11,
            "ticks": 6090,
            "time": 9.515016,
            "value": 0.5826771653543307
          },
          {
            "number": 11,
            "ticks": 6105,
            "time": 9.538452,
            "value": 0.5590551181102362
          },
          {
            "number": 11,
            "ticks": 6110,
            "time": 9.546263999999999,
            "value": 0.5511811023622047
          },
          {
            "number": 11,
            "ticks": 6130,
            "time": 9.577512,
            "value": 0.5590551181102362
          },
          {
            "number": 11,
            "ticks": 6130,
            "time": 9.577512,
            "value": 0.5905511811023622
          },
          {
            "number": 11,
            "ticks": 6145,
            "time": 9.600948,
            "value": 0.5669291338582677
          },
          {
            "number": 11,
            "ticks": 6150,
            "time": 9.60876,
            "value": 0.5984251968503937
          },
          {
            "number": 11,
            "ticks": 6165,
            "time": 9.632195999999999,
            "value": 0.5748031496062992
          },
          {
            "number": 11,
            "ticks": 6190,
            "time": 9.671256,
            "value": 0.5905511811023622
          },
          {
            "number": 11,
            "ticks": 6190,
            "time": 9.671256,
            "value": 0.6062992125984252
          },
          {
            "number": 11,
            "ticks": 6230,
            "time": 9.733751999999999,
            "value": 0.5984251968503937
          },
          {
            "number": 11,
            "ticks": 6230,
            "time": 9.733751999999999,
            "value": 0.6141732283464567
          },
          {
            "number": 11,
            "ticks": 6250,
            "time": 9.765,
            "value": 0.6062992125984252
          },
          {
            "number": 11,
            "ticks": 6250,
            "time": 9.765,
            "value": 0.6220472440944882
          },
          {
            "number": 11,
            "ticks": 6270,
            "time": 9.796247999999999,
            "value": 0.6141732283464567
          },
          {
            "number": 11,
            "ticks": 6285,
            "time": 9.819683999999999,
            "value": 0.6220472440944882
          },
          {
            "number": 11,
            "ticks": 6290,
            "time": 9.827495999999998,
            "value": 0.6299212598425197
          },
          {
            "number": 11,
            "ticks": 6310,
            "time": 9.858744,
            "value": 0.6299212598425197
          },
          {
            "number": 11,
            "ticks": 6310,
            "time": 9.858744,
            "value": 0.6377952755905512
          },
          {
            "number": 11,
            "ticks": 6325,
            "time": 9.88218,
            "value": 0.6377952755905512
          },
          {
            "number": 11,
            "ticks": 6350,
            "time": 9.92124,
            "value": 0.6456692913385826
          },
          {
            "number": 11,
            "ticks": 6350,
            "time": 9.92124,
            "value": 0.6456692913385826
          },
          {
            "number": 11,
            "ticks": 6365,
            "time": 9.944676,
            "value": 0.6614173228346457
          },
          {
            "number": 11,
            "ticks": 6390,
            "time": 9.983735999999999,
            "value": 0.6535433070866141
          },
          {
            "number": 11,
            "ticks": 6410,
            "time": 10.014983999999998,
            "value": 0.6692913385826772
          },
          {
            "number": 11,
            "ticks": 6410,
            "time": 10.014983999999998,
            "value": 0.6614173228346457
          },
          {
            "number": 11,
            "ticks": 6430,
            "time": 10.046232,
            "value": 0.6771653543307087
          },
          {
            "number": 11,
            "ticks": 6445,
            "time": 10.069668,
            "value": 0.6850393700787402
          },
          {
            "number": 11,
            "ticks": 6450,
            "time": 10.07748,
            "value": 0.6692913385826772
          },
          {
            "number": 11,
            "ticks": 6470,
            "time": 10.108728,
            "value": 0.6929133858267716
          },
          {
            "number": 11,
            "ticks": 6470,
            "time": 10.108728,
            "value": 0.6771653543307087
          },
          {
            "number": 11,
            "ticks": 6490,
            "time": 10.139975999999999,
            "value": 0.7007874015748031
          },
          {
            "number": 11,
            "ticks": 6510,
            "time": 10.171223999999999,
            "value": 0.7086614173228346
          },
          {
            "number": 11,
            "ticks": 6510,
            "time": 10.171223999999999,
            "value": 0.6850393700787402
          },
          {
            "number": 11,
            "ticks": 6525,
            "time": 10.194659999999999,
            "value": 0.7086614173228346
          },
          {
            "number": 11,
            "ticks": 6530,
            "time": 10.202471999999998,
            "value": 0.7165354330708661
          },
          {
            "number": 11,
            "ticks": 6530,
            "time": 10.202471999999998,
            "value": 0.6929133858267716
          },
          {
            "number": 11,
            "ticks": 6545,
            "time": 10.225907999999999,
            "value": 0.7165354330708661
          },
          {
            "number": 11,
            "ticks": 6550,
            "time": 10.23372,
            "value": 0.7322834645669292
          },
          {
            "number": 11,
            "ticks": 6565,
            "time": 10.257156,
            "value": 0.7086614173228346
          },
          {
            "number": 11,
            "ticks": 6570,
            "time": 10.264968,
            "value": 0.7007874015748031
          },
          {
            "number": 11,
            "ticks": 6585,
            "time": 10.288404,
            "value": 0.7244094488188977
          },
          {
            "number": 11,
            "ticks": 6590,
            "time": 10.296216,
            "value": 0.7401574803149606
          },
          {
            "number": 11,
            "ticks": 6610,
            "time": 10.327463999999999,
            "value": 0.7480314960629921
          },
          {
            "number": 11,
            "ticks": 6610,
            "time": 10.327463999999999,
            "value": 0.7086614173228346
          },
          {
            "number": 11,
            "ticks": 6625,
            "time": 10.3509,
            "value": 0.7401574803149606
          },
          {
            "number": 11,
            "ticks": 6630,
            "time": 10.358711999999999,
            "value": 0.7559055118110236
          },
          {
            "number": 11,
            "ticks": 6630,
            "time": 10.358711999999999,
            "value": 0.7165354330708661
          },
          {
            "number": 11,
            "ticks": 6645,
            "time": 10.382147999999999,
            "value": 0.7480314960629921
          },
          {
            "number": 11,
            "ticks": 6650,
            "time": 10.389959999999999,
            "value": 0.7637795275590551
          },
          {
            "number": 11,
            "ticks": 6670,
            "time": 10.421208,
            "value": 0.7716535433070866
          },
          {
            "number": 11,
            "ticks": 6670,
            "time": 10.421208,
            "value": 0.7244094488188977
          },
          {
            "number": 11,
            "ticks": 6685,
            "time": 10.444644,
            "value": 0.7795275590551181
          },
          {
            "number": 11,
            "ticks": 6690,
            "time": 10.452456,
            "value": 0.7322834645669292
          },
          {
            "number": 11,
            "ticks": 6705,
            "time": 10.475892,
            "value": 0.7716535433070866
          },
          {
            "number": 11,
            "ticks": 6710,
            "time": 10.483704,
            "value": 0.7874015748031497
          },
          {
            "number": 11,
            "ticks": 6730,
            "time": 10.514952,
            "value": 0.7952755905511811
          },
          {
            "number": 11,
            "ticks": 6730,
            "time": 10.514952,
            "value": 0.7401574803149606
          },
          {
            "number": 11,
            "ticks": 6745,
            "time": 10.538388,
            "value": 0.7637795275590551
          },
          {
            "number": 11,
            "ticks": 6760,
            "time": 10.561824,
            "value": 0.7874015748031497
          },
          {
            "number": 11,
            "ticks": 6770,
            "time": 10.577447999999999,
            "value": 0.8031496062992126
          },
          {
            "number": 11,
            "ticks": 6770,
            "time": 10.577447999999999,
            "value": 0.7480314960629921
          },
          {
            "number": 11,
            "ticks": 6785,
            "time": 10.600883999999999,
            "value": 0.7952755905511811
          },
          {
            "number": 11,
            "ticks": 6790,
            "time": 10.608696,
            "value": 0.8110236220472441
          },
          {
            "number": 11,
            "ticks": 6790,
            "time": 10.608696,
            "value": 0.7559055118110236
          },
          {
            "number": 11,
            "ticks": 6805,
            "time": 10.632132,
            "value": 0.8031496062992126
          },
          {
            "number": 11,
            "ticks": 6810,
            "time": 10.639944,
            "value": 0.8188976377952756
          },
          {
            "number": 11,
            "ticks": 6830,
            "time": 10.671192,
            "value": 0.8267716535433071
          },
          {
            "number": 11,
            "ticks": 6830,
            "time": 10.671192,
            "value": 0.7637795275590551
          },
          {
            "number": 11,
            "ticks": 6845,
            "time": 10.694627999999998,
            "value": 0.8110236220472441
          },
          {
            "number": 11,
            "ticks": 6850,
            "time": 10.70244,
            "value": 0.8346456692913385
          },
          {
            "number": 11,
            "ticks": 6850,
            "time": 10.70244,
            "value": 0.7716535433070866
          },
          {
            "number": 11,
            "ticks": 6865,
            "time": 10.725876,
            "value": 0.8188976377952756
          },
          {
            "number": 11,
            "ticks": 6870,
            "time": 10.733687999999999,
            "value": 0.84251968503937
          },
          {
            "number": 11,
            "ticks": 6890,
            "time": 10.764935999999999,
            "value": 0.8503937007874016
          },
          {
            "number": 11,
            "ticks": 6890,
            "time": 10.764935999999999,
            "value": 0.7795275590551181
          },
          {
            "number": 11,
            "ticks": 6905,
            "time": 10.788371999999999,
            "value": 0.84251968503937
          },
          {
            "number": 11,
            "ticks": 6910,
            "time": 10.796184,
            "value": 0.8661417322834646
          },
          {
            "number": 11,
            "ticks": 6910,
            "time": 10.796184,
            "value": 0.7874015748031497
          },
          {
            "number": 11,
            "ticks": 6925,
            "time": 10.81962,
            "value": 0.8188976377952756
          },
          {
            "number": 11,
            "ticks": 6940,
            "time": 10.843055999999999,
            "value": 0.8503937007874016
          },
          {
            "number": 11,
            "ticks": 6950,
            "time": 10.85868,
            "value": 0.8740157480314961
          },
          {
            "number": 11,
            "ticks": 6950,
            "time": 10.85868,
            "value": 0.7952755905511811
          },
          {
            "number": 11,
            "ticks": 6965,
            "time": 10.882115999999998,
            "value": 0.8582677165354331
          },
          {
            "number": 11,
            "ticks": 6970,
            "time": 10.889928,
            "value": 0.8818897637795275
          },
          {
            "number": 11,
            "ticks": 6990,
            "time": 10.921175999999999,
            "value": 0.889763779527559
          },
          {
            "number": 11,
            "ticks": 6990,
            "time": 10.921175999999999,
            "value": 0.8031496062992126
          },
          {
            "number": 11,
            "ticks": 7005,
            "time": 10.944612,
            "value": 0.8740157480314961
          },
          {
            "number": 11,
            "ticks": 7010,
            "time": 10.952423999999999,
            "value": 0.8976377952755905
          },
          {
            "number": 11,
            "ticks": 7010,
            "time": 10.952423999999999,
            "value": 0.8110236220472441
          },
          {
            "number": 11,
            "ticks": 7025,
            "time": 10.975859999999999,
            "value": 0.8818897637795275
          },
          {
            "number": 11,
            "ticks": 7030,
            "time": 10.983672,
            "value": 0.905511811023622
          },
          {
            "number": 11,
            "ticks": 7050,
            "time": 11.01492,
            "value": 0.9133858267716536
          },
          {
            "number": 11,
            "ticks": 7050,
            "time": 11.01492,
            "value": 0.8188976377952756
          },
          {
            "number": 11,
            "ticks": 7065,
            "time": 11.038355999999999,
            "value": 0.889763779527559
          },
          {
            "number": 11,
            "ticks": 7070,
            "time": 11.046167999999998,
            "value": 0.9212598425196851
          },
          {
            "number": 11,
            "ticks": 7070,
            "time": 11.046167999999998,
            "value": 0.8267716535433071
          },
          {
            "number": 11,
            "ticks": 7085,
            "time": 11.069603999999998,
            "value": 0.937007874015748
          },
          {
            "number": 11,
            "ticks": 7100,
            "time": 11.093039999999998,
            "value": 0.8818897637795275
          },
          {
            "number": 11,
            "ticks": 7110,
            "time": 11.108664,
            "value": 0.8346456692913385
          },
          {
            "number": 11,
            "ticks": 7125,
            "time": 11.1321,
            "value": 0.9133858267716536
          },
          {
            "number": 11,
            "ticks": 7130,
            "time": 11.139911999999999,
            "value": 0.9448818897637795
          },
          {
            "number": 11,
            "ticks": 7150,
            "time": 11.17116,
            "value": 0.952755905511811
          },
          {
            "number": 11,
            "ticks": 7150,
            "time": 11.17116,
            "value": 0.84251968503937
          },
          {
            "number": 11,
            "ticks": 7165,
            "time": 11.194595999999999,
            "value": 0.9606299212598425
          },
          {
            "number": 11,
            "ticks": 7170,
            "time": 11.202408,
            "value": 0.8503937007874016
          },
          {
            "number": 11,
            "ticks": 7185,
            "time": 11.225843999999999,
            "value": 0.937007874015748
          },
          {
            "number": 11,
            "ticks": 7190,
            "time": 11.233655999999998,
            "value": 0.968503937007874
          },
          {
            "number": 11,
            "ticks": 7210,
            "time": 11.264904,
            "value": 1
          },
          {
            "number": 11,
            "ticks": 7210,
            "time": 11.264904,
            "value": 0.8582677165354331
          },
          {
            "number": 11,
            "ticks": 7230,
            "time": 11.296152,
            "value": 0.8661417322834646
          },
          {
            "number": 11,
            "ticks": 7260,
            "time": 11.343024,
            "value": 0.8740157480314961
          },
          {
            "number": 11,
            "ticks": 7270,
            "time": 11.358648,
            "value": 0.8818897637795275
          },
          {
            "number": 11,
            "ticks": 7325,
            "time": 11.444579999999998,
            "value": 0.889763779527559
          },
          {
            "number": 11,
            "ticks": 7370,
            "time": 11.514888,
            "value": 0.8976377952755905
          },
          {
            "number": 11,
            "ticks": 7390,
            "time": 11.546135999999999,
            "value": 0.905511811023622
          },
          {
            "number": 11,
            "ticks": 7430,
            "time": 11.608631999999998,
            "value": 0.9133858267716536
          },
          {
            "number": 11,
            "ticks": 7450,
            "time": 11.63988,
            "value": 0.9212598425196851
          },
          {
            "number": 11,
            "ticks": 7490,
            "time": 11.702376,
            "value": 0.9291338582677166
          },
          {
            "number": 11,
            "ticks": 7530,
            "time": 11.764871999999999,
            "value": 0.937007874015748
          },
          {
            "number": 11,
            "ticks": 7550,
            "time": 11.796119999999998,
            "value": 0.9448818897637795
          },
          {
            "number": 11,
            "ticks": 7590,
            "time": 11.858616,
            "value": 0.952755905511811
          },
          {
            "number": 11,
            "ticks": 7610,
            "time": 11.889864,
            "value": 0.9606299212598425
          },
          {
            "number": 11,
            "ticks": 7640,
            "time": 11.936735999999998,
            "value": 0.984251968503937
          },
          {
            "number": 11,
            "ticks": 7650,
            "time": 11.952359999999999,
            "value": 1
          },
          {
            "number": 11,
            "ticks": 7670,
            "time": 11.983607999999998,
            "value": 0.9763779527559056
          },
          {
            "number": 11,
            "ticks": 8168,
            "time": 12.761683199999998,
            "value": 0.968503937007874
          },
          {
            "number": 11,
            "ticks": 8665,
            "time": 13.538195999999997,
            "value": 0.9606299212598425
          },
          {
            "number": 11,
            "ticks": 9163,
            "time": 14.3162712,
            "value": 0.952755905511811
          },
          {
            "number": 11,
            "ticks": 9660,
            "time": 15.092783999999998,
            "value": 0.9448818897637795
          },
          {
            "number": 11,
            "ticks": 10158,
            "time": 15.8708592,
            "value": 0.937007874015748
          },
          {
            "number": 11,
            "ticks": 10655,
            "time": 16.647372,
            "value": 0.9291338582677166
          },
          {
            "number": 11,
            "ticks": 11153,
            "time": 17.425447199999997,
            "value": 0.9212598425196851
          },
          {
            "number": 11,
            "ticks": 11650,
            "time": 18.20196,
            "value": 0.9133858267716536
          },
          {
            "number": 11,
            "ticks": 12148,
            "time": 18.9800352,
            "value": 0.905511811023622
          },
          {
            "number": 11,
            "ticks": 12645,
            "time": 19.756548,
            "value": 0.8976377952755905
          },
          {
            "number": 11,
            "ticks": 13143,
            "time": 20.5346232,
            "value": 0.889763779527559
          },
          {
            "number": 11,
            "ticks": 13640,
            "time": 21.311136,
            "value": 0.8818897637795275
          },
          {
            "number": 11,
            "ticks": 14138,
            "time": 22.089211199999998,
            "value": 0.8740157480314961
          },
          {
            "number": 11,
            "ticks": 14635,
            "time": 22.865723999999997,
            "value": 0.8661417322834646
          },
          {
            "number": 11,
            "ticks": 15134,
            "time": 23.645361599999998,
            "value": 0.8582677165354331
          },
          {
            "number": 11,
            "ticks": 15631,
            "time": 24.421874399999997,
            "value": 0.8503937007874016
          },
          {
            "number": 11,
            "ticks": 16128,
            "time": 25.1983872,
            "value": 0.84251968503937
          },
          {
            "number": 11,
            "ticks": 16626,
            "time": 25.9764624,
            "value": 0.8346456692913385
          },
          {
            "number": 11,
            "ticks": 17123,
            "time": 26.752975199999998,
            "value": 0.8267716535433071
          },
          {
            "number": 11,
            "ticks": 17621,
            "time": 27.531050399999998,
            "value": 0.8188976377952756
          },
          {
            "number": 11,
            "ticks": 18118,
            "time": 28.307563199999997,
            "value": 0.8110236220472441
          },
          {
            "number": 11,
            "ticks": 18616,
            "time": 29.085638399999997,
            "value": 0.8031496062992126
          },
          {
            "number": 11,
            "ticks": 19113,
            "time": 29.8621512,
            "value": 0.7952755905511811
          },
          {
            "number": 11,
            "ticks": 19611,
            "time": 30.6402264,
            "value": 0.7874015748031497
          },
          {
            "number": 11,
            "ticks": 20108,
            "time": 31.4167392,
            "value": 0.7795275590551181
          },
          {
            "number": 11,
            "ticks": 20606,
            "time": 32.1948144,
            "value": 0.7716535433070866
          },
          {
            "number": 11,
            "ticks": 21103,
            "time": 32.9713272,
            "value": 0.7637795275590551
          },
          {
            "number": 11,
            "ticks": 21601,
            "time": 33.749402399999994,
            "value": 0.7559055118110236
          },
          {
            "number": 11,
            "ticks": 22099,
            "time": 34.5274776,
            "value": 0.7480314960629921
          },
          {
            "number": 11,
            "ticks": 22596,
            "time": 35.303990399999996,
            "value": 0.7401574803149606
          },
          {
            "number": 11,
            "ticks": 23094,
            "time": 36.08206559999999,
            "value": 0.7322834645669292
          },
          {
            "number": 11,
            "ticks": 23591,
            "time": 36.8585784,
            "value": 0.7244094488188977
          },
          {
            "number": 11,
            "ticks": 24089,
            "time": 37.6366536,
            "value": 0.7165354330708661
          },
          {
            "number": 11,
            "ticks": 24586,
            "time": 38.413166399999994,
            "value": 0.7086614173228346
          },
          {
            "number": 11,
            "ticks": 25084,
            "time": 39.1912416,
            "value": 0.7007874015748031
          },
          {
            "number": 11,
            "ticks": 25581,
            "time": 39.9677544,
            "value": 0.6929133858267716
          },
          {
            "number": 11,
            "ticks": 26079,
            "time": 40.74582959999999,
            "value": 0.6850393700787402
          },
          {
            "number": 11,
            "ticks": 26576,
            "time": 41.5223424,
            "value": 0.6771653543307087
          },
          {
            "number": 11,
            "ticks": 27074,
            "time": 42.300417599999996,
            "value": 0.6692913385826772
          },
          {
            "number": 11,
            "ticks": 27571,
            "time": 43.076930399999995,
            "value": 0.6614173228346457
          },
          {
            "number": 11,
            "ticks": 28069,
            "time": 43.8550056,
            "value": 0.6535433070866141
          },
          {
            "number": 11,
            "ticks": 28566,
            "time": 44.6315184,
            "value": 0.6456692913385826
          },
          {
            "number": 11,
            "ticks": 29064,
            "time": 45.409593599999994,
            "value": 0.6377952755905512
          },
          {
            "number": 11,
            "ticks": 29562,
            "time": 46.1876688,
            "value": 0.6299212598425197
          },
          {
            "number": 11,
            "ticks": 30059,
            "time": 46.964181599999996,
            "value": 0.6220472440944882
          },
          {
            "number": 11,
            "ticks": 30557,
            "time": 47.7422568,
            "value": 0.6141732283464567
          },
          {
            "number": 11,
            "ticks": 31054,
            "time": 48.5187696,
            "value": 0.6062992125984252
          },
          {
            "number": 11,
            "ticks": 31552,
            "time": 49.296844799999995,
            "value": 0.5984251968503937
          },
          {
            "number": 11,
            "ticks": 32049,
            "time": 50.073357599999994,
            "value": 0.5905511811023622
          },
          {
            "number": 11,
            "ticks": 32547,
            "time": 50.8514328,
            "value": 0.5826771653543307
          },
          {
            "number": 11,
            "ticks": 33044,
            "time": 51.6279456,
            "value": 0.5748031496062992
          },
          {
            "number": 11,
            "ticks": 33542,
            "time": 52.40602079999999,
            "value": 0.5669291338582677
          },
          {
            "number": 11,
            "ticks": 34039,
            "time": 53.1825336,
            "value": 0.5590551181102362
          },
          {
            "number": 11,
            "ticks": 34537,
            "time": 53.960608799999996,
            "value": 0.5511811023622047
          },
          {
            "number": 11,
            "ticks": 35034,
            "time": 54.737121599999995,
            "value": 0.5433070866141733
          },
          {
            "number": 11,
            "ticks": 35532,
            "time": 55.5151968,
            "value": 0.5354330708661418
          },
          {
            "number": 11,
            "ticks": 36030,
            "time": 56.293271999999995,
            "value": 0.5275590551181102
          },
          {
            "number": 11,
            "ticks": 36527,
            "time": 57.069784799999994,
            "value": 0.5196850393700787
          },
          {
            "number": 11,
            "ticks": 37025,
            "time": 57.84786,
            "value": 0.5118110236220472
          },
          {
            "number": 11,
            "ticks": 37522,
            "time": 58.624372799999996,
            "value": 0.5039370078740157
          },
          {
            "number": 11,
            "ticks": 38020,
            "time": 59.40244799999999,
            "value": 0.49606299212598426
          },
          {
            "number": 11,
            "ticks": 38517,
            "time": 60.1789608,
            "value": 0.4881889763779528
          },
          {
            "number": 11,
            "ticks": 39015,
            "time": 60.957035999999995,
            "value": 0.48031496062992124
          },
          {
            "number": 11,
            "ticks": 39512,
            "time": 61.733548799999994,
            "value": 0.47244094488188976
          },
          {
            "number": 11,
            "ticks": 40010,
            "time": 62.511624,
            "value": 0.4645669291338583
          },
          {
            "number": 11,
            "ticks": 40507,
            "time": 63.2881368,
            "value": 0.4566929133858268
          },
          {
            "number": 11,
            "ticks": 41005,
            "time": 64.066212,
            "value": 0.44881889763779526
          },
          {
            "number": 11,
            "ticks": 41502,
            "time": 64.8427248,
            "value": 0.4409448818897638
          },
          {
            "number": 11,
            "ticks": 42000,
            "time": 65.6208,
            "value": 0.4330708661417323
          },
          {
            "number": 11,
            "ticks": 42497,
            "time": 66.3973128,
            "value": 0.4251968503937008
          },
          {
            "number": 11,
            "ticks": 42995,
            "time": 67.175388,
            "value": 0.41732283464566927
          },
          {
            "number": 11,
            "ticks": 43015,
            "time": 67.20663599999999,
            "value": 0.4409448818897638
          },
          {
            "number": 11,
            "ticks": 43030,
            "time": 67.23007199999999,
            "value": 0.4645669291338583
          },
          {
            "number": 11,
            "ticks": 43035,
            "time": 67.237884,
            "value": 0.47244094488188976
          },
          {
            "number": 11,
            "ticks": 43055,
            "time": 67.269132,
            "value": 0.49606299212598426
          },
          {
            "number": 11,
            "ticks": 43075,
            "time": 67.30037999999999,
            "value": 0.5196850393700787
          },
          {
            "number": 11,
            "ticks": 43090,
            "time": 67.323816,
            "value": 0.5433070866141733
          },
          {
            "number": 11,
            "ticks": 43095,
            "time": 67.331628,
            "value": 0.5511811023622047
          },
          {
            "number": 11,
            "ticks": 43115,
            "time": 67.362876,
            "value": 0.5748031496062992
          },
          {
            "number": 11,
            "ticks": 43135,
            "time": 67.39412399999999,
            "value": 0.5984251968503937
          },
          {
            "number": 11,
            "ticks": 43150,
            "time": 67.41756,
            "value": 0.6377952755905512
          },
          {
            "number": 11,
            "ticks": 43155,
            "time": 67.425372,
            "value": 0.6535433070866141
          },
          {
            "number": 11,
            "ticks": 43185,
            "time": 67.47224399999999,
            "value": 0.6692913385826772
          },
          {
            "number": 11,
            "ticks": 43195,
            "time": 67.48786799999999,
            "value": 0.6771653543307087
          },
          {
            "number": 11,
            "ticks": 43215,
            "time": 67.519116,
            "value": 0.7007874015748031
          },
          {
            "number": 11,
            "ticks": 43230,
            "time": 67.542552,
            "value": 0.7244094488188977
          },
          {
            "number": 11,
            "ticks": 43235,
            "time": 67.550364,
            "value": 0.7322834645669292
          },
          {
            "number": 11,
            "ticks": 43255,
            "time": 67.58161199999999,
            "value": 0.7559055118110236
          },
          {
            "number": 11,
            "ticks": 43275,
            "time": 67.61286,
            "value": 0.7795275590551181
          },
          {
            "number": 11,
            "ticks": 43290,
            "time": 67.636296,
            "value": 0.8031496062992126
          },
          {
            "number": 11,
            "ticks": 43295,
            "time": 67.644108,
            "value": 0.8110236220472441
          },
          {
            "number": 11,
            "ticks": 43315,
            "time": 67.675356,
            "value": 0.8346456692913385
          },
          {
            "number": 11,
            "ticks": 43330,
            "time": 67.698792,
            "value": 0.8740157480314961
          },
          {
            "number": 11,
            "ticks": 43335,
            "time": 67.706604,
            "value": 0.889763779527559
          },
          {
            "number": 11,
            "ticks": 43365,
            "time": 67.75347599999999,
            "value": 0.905511811023622
          },
          {
            "number": 11,
            "ticks": 43375,
            "time": 67.7691,
            "value": 0.9133858267716536
          },
          {
            "number": 11,
            "ticks": 43395,
            "time": 67.800348,
            "value": 0.937007874015748
          },
          {
            "number": 11,
            "ticks": 43410,
            "time": 67.82378399999999,
            "value": 0.9606299212598425
          },
          {
            "number": 11,
            "ticks": 43415,
            "time": 67.831596,
            "value": 0.968503937007874
          },
          {
            "number": 11,
            "ticks": 43530,
            "time": 68.01127199999999,
            "value": 0.9606299212598425
          },
          {
            "number": 11,
            "ticks": 43550,
            "time": 68.04252,
            "value": 0.937007874015748
          },
          {
            "number": 11,
            "ticks": 43575,
            "time": 68.08158,
            "value": 0.9212598425196851
          },
          {
            "number": 11,
            "ticks": 43590,
            "time": 68.10501599999999,
            "value": 0.8976377952755905
          },
          {
            "number": 11,
            "ticks": 43605,
            "time": 68.128452,
            "value": 0.8740157480314961
          },
          {
            "number": 11,
            "ticks": 43610,
            "time": 68.136264,
            "value": 0.8661417322834646
          },
          {
            "number": 11,
            "ticks": 43625,
            "time": 68.1597,
            "value": 0.8346456692913385
          },
          {
            "number": 11,
            "ticks": 43630,
            "time": 68.16751199999999,
            "value": 0.8188976377952756
          },
          {
            "number": 11,
            "ticks": 43645,
            "time": 68.19094799999999,
            "value": 0.7716535433070866
          },
          {
            "number": 11,
            "ticks": 43655,
            "time": 68.206572,
            "value": 0.7322834645669292
          },
          {
            "number": 11,
            "ticks": 43670,
            "time": 68.230008,
            "value": 0.6850393700787402
          },
          {
            "number": 11,
            "ticks": 43675,
            "time": 68.23781999999999,
            "value": 0.6614173228346457
          },
          {
            "number": 11,
            "ticks": 43690,
            "time": 68.26125599999999,
            "value": 0.6850393700787402
          },
          {
            "number": 11,
            "ticks": 43695,
            "time": 68.26906799999999,
            "value": 0.7007874015748031
          },
          {
            "number": 11,
            "ticks": 43725,
            "time": 68.31594,
            "value": 0.7165354330708661
          },
          {
            "number": 11,
            "ticks": 43735,
            "time": 68.33156399999999,
            "value": 0.7244094488188977
          },
          {
            "number": 11,
            "ticks": 43755,
            "time": 68.36281199999999,
            "value": 0.7401574803149606
          },
          {
            "number": 11,
            "ticks": 43775,
            "time": 68.39406,
            "value": 0.7559055118110236
          },
          {
            "number": 11,
            "ticks": 43795,
            "time": 68.42530799999999,
            "value": 0.7795275590551181
          },
          {
            "number": 11,
            "ticks": 43815,
            "time": 68.45655599999999,
            "value": 0.7952755905511811
          },
          {
            "number": 11,
            "ticks": 43835,
            "time": 68.487804,
            "value": 0.8188976377952756
          },
          {
            "number": 11,
            "ticks": 43855,
            "time": 68.51905199999999,
            "value": 0.8346456692913385
          },
          {
            "number": 11,
            "ticks": 43870,
            "time": 68.54248799999999,
            "value": 0.8582677165354331
          },
          {
            "number": 11,
            "ticks": 43875,
            "time": 68.5503,
            "value": 0.8740157480314961
          },
          {
            "number": 11,
            "ticks": 43905,
            "time": 68.597172,
            "value": 0.8818897637795275
          },
          {
            "number": 11,
            "ticks": 43915,
            "time": 68.61279599999999,
            "value": 0.889763779527559
          },
          {
            "number": 11,
            "ticks": 43935,
            "time": 68.644044,
            "value": 0.9133858267716536
          },
          {
            "number": 11,
            "ticks": 43955,
            "time": 68.675292,
            "value": 0.9291338582677166
          },
          {
            "number": 11,
            "ticks": 43975,
            "time": 68.70653999999999,
            "value": 0.952755905511811
          },
          {
            "number": 11,
            "ticks": 43990,
            "time": 68.729976,
            "value": 0.984251968503937
          },
          {
            "number": 11,
            "ticks": 43995,
            "time": 68.737788,
            "value": 1
          },
          {
            "number": 11,
            "ticks": 44526,
            "time": 69.5674224,
            "value": 0.9921259842519685
          },
          {
            "number": 11,
            "ticks": 45058,
            "time": 70.3986192,
            "value": 0.984251968503937
          },
          {
            "number": 11,
            "ticks": 45589,
            "time": 71.2282536,
            "value": 0.9763779527559056
          },
          {
            "number": 11,
            "ticks": 46120,
            "time": 72.05788799999999,
            "value": 0.968503937007874
          },
          {
            "number": 11,
            "ticks": 46652,
            "time": 72.88908479999999,
            "value": 0.9606299212598425
          },
          {
            "number": 11,
            "ticks": 47183,
            "time": 73.7187192,
            "value": 0.952755905511811
          },
          {
            "number": 11,
            "ticks": 47714,
            "time": 74.5483536,
            "value": 0.9448818897637795
          },
          {
            "number": 11,
            "ticks": 48246,
            "time": 75.3795504,
            "value": 0.937007874015748
          },
          {
            "number": 11,
            "ticks": 48777,
            "time": 76.2091848,
            "value": 0.9291338582677166
          },
          {
            "number": 11,
            "ticks": 49309,
            "time": 77.0403816,
            "value": 0.9212598425196851
          },
          {
            "number": 11,
            "ticks": 49840,
            "time": 77.87001599999999,
            "value": 0.9133858267716536
          },
          {
            "number": 11,
            "ticks": 50371,
            "time": 78.6996504,
            "value": 0.905511811023622
          },
          {
            "number": 11,
            "ticks": 50903,
            "time": 79.5308472,
            "value": 0.8976377952755905
          },
          {
            "number": 11,
            "ticks": 51434,
            "time": 80.3604816,
            "value": 0.889763779527559
          },
          {
            "number": 11,
            "ticks": 51965,
            "time": 81.190116,
            "value": 0.8818897637795275
          },
          {
            "number": 11,
            "ticks": 52497,
            "time": 82.0213128,
            "value": 0.8740157480314961
          },
          {
            "number": 11,
            "ticks": 53028,
            "time": 82.8509472,
            "value": 0.8661417322834646
          },
          {
            "number": 11,
            "ticks": 53559,
            "time": 83.6805816,
            "value": 0.8582677165354331
          },
          {
            "number": 11,
            "ticks": 54091,
            "time": 84.5117784,
            "value": 0.8503937007874016
          },
          {
            "number": 11,
            "ticks": 54622,
            "time": 85.3414128,
            "value": 0.84251968503937
          },
          {
            "number": 11,
            "ticks": 55153,
            "time": 86.1710472,
            "value": 0.8346456692913385
          },
          {
            "number": 11,
            "ticks": 55685,
            "time": 87.002244,
            "value": 0.8267716535433071
          },
          {
            "number": 11,
            "ticks": 56216,
            "time": 87.8318784,
            "value": 0.8188976377952756
          },
          {
            "number": 11,
            "ticks": 56747,
            "time": 88.6615128,
            "value": 0.8110236220472441
          },
          {
            "number": 11,
            "ticks": 57279,
            "time": 89.4927096,
            "value": 0.8031496062992126
          },
          {
            "number": 11,
            "ticks": 57810,
            "time": 90.322344,
            "value": 0.7952755905511811
          },
          {
            "number": 11,
            "ticks": 58341,
            "time": 91.15197839999999,
            "value": 0.7874015748031497
          },
          {
            "number": 11,
            "ticks": 58873,
            "time": 91.98317519999999,
            "value": 0.7795275590551181
          },
          {
            "number": 11,
            "ticks": 59404,
            "time": 92.8128096,
            "value": 0.7716535433070866
          },
          {
            "number": 11,
            "ticks": 59936,
            "time": 93.6440064,
            "value": 0.7637795275590551
          },
          {
            "number": 11,
            "ticks": 60467,
            "time": 94.47364079999998,
            "value": 0.7559055118110236
          },
          {
            "number": 11,
            "ticks": 60998,
            "time": 95.30327519999999,
            "value": 0.7480314960629921
          },
          {
            "number": 11,
            "ticks": 61530,
            "time": 96.13447199999999,
            "value": 0.7401574803149606
          },
          {
            "number": 11,
            "ticks": 62061,
            "time": 96.96410639999999,
            "value": 0.7322834645669292
          },
          {
            "number": 11,
            "ticks": 62592,
            "time": 97.7937408,
            "value": 0.7244094488188977
          },
          {
            "number": 11,
            "ticks": 63124,
            "time": 98.62493759999998,
            "value": 0.7165354330708661
          },
          {
            "number": 11,
            "ticks": 63655,
            "time": 99.454572,
            "value": 0.7086614173228346
          },
          {
            "number": 11,
            "ticks": 64186,
            "time": 100.28420639999999,
            "value": 0.7007874015748031
          },
          {
            "number": 11,
            "ticks": 64718,
            "time": 101.1154032,
            "value": 0.6929133858267716
          },
          {
            "number": 11,
            "ticks": 65249,
            "time": 101.94503759999999,
            "value": 0.6850393700787402
          },
          {
            "number": 11,
            "ticks": 65780,
            "time": 102.77467199999998,
            "value": 0.6771653543307087
          },
          {
            "number": 11,
            "ticks": 66312,
            "time": 103.6058688,
            "value": 0.6692913385826772
          },
          {
            "number": 11,
            "ticks": 66843,
            "time": 104.43550319999999,
            "value": 0.6614173228346457
          },
          {
            "number": 11,
            "ticks": 67374,
            "time": 105.2651376,
            "value": 0.6535433070866141
          },
          {
            "number": 11,
            "ticks": 67906,
            "time": 106.09633439999999,
            "value": 0.6456692913385826
          },
          {
            "number": 11,
            "ticks": 68437,
            "time": 106.92596879999998,
            "value": 0.6377952755905512
          },
          {
            "number": 11,
            "ticks": 68969,
            "time": 107.7571656,
            "value": 0.6299212598425197
          },
          {
            "number": 11,
            "ticks": 69500,
            "time": 108.58679999999998,
            "value": 0.6220472440944882
          },
          {
            "number": 11,
            "ticks": 70031,
            "time": 109.4164344,
            "value": 0.6141732283464567
          },
          {
            "number": 11,
            "ticks": 70563,
            "time": 110.24763119999999,
            "value": 0.6062992125984252
          },
          {
            "number": 11,
            "ticks": 71094,
            "time": 111.0772656,
            "value": 0.5984251968503937
          },
          {
            "number": 11,
            "ticks": 71625,
            "time": 111.9069,
            "value": 0.5905511811023622
          },
          {
            "number": 11,
            "ticks": 72157,
            "time": 112.73809679999998,
            "value": 0.5826771653543307
          },
          {
            "number": 11,
            "ticks": 72688,
            "time": 113.5677312,
            "value": 0.5748031496062992
          },
          {
            "number": 11,
            "ticks": 73219,
            "time": 114.39736559999999,
            "value": 0.5669291338582677
          },
          {
            "number": 11,
            "ticks": 73751,
            "time": 115.2285624,
            "value": 0.5590551181102362
          },
          {
            "number": 11,
            "ticks": 74282,
            "time": 116.05819679999999,
            "value": 0.5511811023622047
          },
          {
            "number": 11,
            "ticks": 74813,
            "time": 116.88783120000001,
            "value": 0.5433070866141733
          },
          {
            "number": 11,
            "ticks": 75345,
            "time": 117.719028,
            "value": 0.5354330708661418
          },
          {
            "number": 11,
            "ticks": 75876,
            "time": 118.54866239999998,
            "value": 0.5275590551181102
          },
          {
            "number": 11,
            "ticks": 76407,
            "time": 119.3782968,
            "value": 0.5196850393700787
          },
          {
            "number": 11,
            "ticks": 76939,
            "time": 120.20949359999999,
            "value": 0.5118110236220472
          },
          {
            "number": 11,
            "ticks": 77470,
            "time": 121.039128,
            "value": 0.5039370078740157
          },
          {
            "number": 11,
            "ticks": 78001,
            "time": 121.8687624,
            "value": 0.49606299212598426
          },
          {
            "number": 11,
            "ticks": 78533,
            "time": 122.6999592,
            "value": 0.4881889763779528
          },
          {
            "number": 11,
            "ticks": 79064,
            "time": 123.5295936,
            "value": 0.48031496062992124
          },
          {
            "number": 11,
            "ticks": 79596,
            "time": 124.36079039999998,
            "value": 0.47244094488188976
          },
          {
            "number": 11,
            "ticks": 80127,
            "time": 125.1904248,
            "value": 0.4645669291338583
          },
          {
            "number": 11,
            "ticks": 80658,
            "time": 126.02005919999999,
            "value": 0.4566929133858268
          },
          {
            "number": 11,
            "ticks": 81190,
            "time": 126.85125599999999,
            "value": 0.44881889763779526
          },
          {
            "number": 11,
            "ticks": 81721,
            "time": 127.6808904,
            "value": 0.4409448818897638
          },
          {
            "number": 11,
            "ticks": 82252,
            "time": 128.51052479999998,
            "value": 0.4330708661417323
          },
          {
            "number": 11,
            "ticks": 82784,
            "time": 129.3417216,
            "value": 0.4251968503937008
          },
          {
            "number": 11,
            "ticks": 83315,
            "time": 130.17135599999997,
            "value": 0.41732283464566927
          },
          {
            "number": 11,
            "ticks": 83335,
            "time": 130.202604,
            "value": 0.4409448818897638
          },
          {
            "number": 11,
            "ticks": 83350,
            "time": 130.22604,
            "value": 0.4645669291338583
          },
          {
            "number": 11,
            "ticks": 83355,
            "time": 130.23385199999998,
            "value": 0.47244094488188976
          },
          {
            "number": 11,
            "ticks": 83375,
            "time": 130.2651,
            "value": 0.49606299212598426
          },
          {
            "number": 11,
            "ticks": 83395,
            "time": 130.296348,
            "value": 0.5196850393700787
          },
          {
            "number": 11,
            "ticks": 83410,
            "time": 130.319784,
            "value": 0.5433070866141733
          },
          {
            "number": 11,
            "ticks": 83415,
            "time": 130.327596,
            "value": 0.5511811023622047
          },
          {
            "number": 11,
            "ticks": 83435,
            "time": 130.35884399999998,
            "value": 0.5748031496062992
          },
          {
            "number": 11,
            "ticks": 83455,
            "time": 130.390092,
            "value": 0.5984251968503937
          },
          {
            "number": 11,
            "ticks": 83470,
            "time": 130.41352799999999,
            "value": 0.6377952755905512
          },
          {
            "number": 11,
            "ticks": 83475,
            "time": 130.42134,
            "value": 0.6535433070866141
          },
          {
            "number": 11,
            "ticks": 83505,
            "time": 130.468212,
            "value": 0.6692913385826772
          },
          {
            "number": 11,
            "ticks": 83515,
            "time": 130.483836,
            "value": 0.6771653543307087
          },
          {
            "number": 11,
            "ticks": 83535,
            "time": 130.515084,
            "value": 0.7007874015748031
          },
          {
            "number": 11,
            "ticks": 83550,
            "time": 130.53852,
            "value": 0.7244094488188977
          },
          {
            "number": 11,
            "ticks": 83555,
            "time": 130.54633199999998,
            "value": 0.7322834645669292
          },
          {
            "number": 11,
            "ticks": 83575,
            "time": 130.57758,
            "value": 0.7559055118110236
          },
          {
            "number": 11,
            "ticks": 83595,
            "time": 130.608828,
            "value": 0.7795275590551181
          },
          {
            "number": 11,
            "ticks": 83610,
            "time": 130.632264,
            "value": 0.8031496062992126
          },
          {
            "number": 11,
            "ticks": 83615,
            "time": 130.640076,
            "value": 0.8110236220472441
          },
          {
            "number": 11,
            "ticks": 83635,
            "time": 130.671324,
            "value": 0.8346456692913385
          },
          {
            "number": 11,
            "ticks": 83650,
            "time": 130.69476,
            "value": 0.8740157480314961
          },
          {
            "number": 11,
            "ticks": 83655,
            "time": 130.702572,
            "value": 0.889763779527559
          },
          {
            "number": 11,
            "ticks": 83685,
            "time": 130.74944399999998,
            "value": 0.905511811023622
          },
          {
            "number": 11,
            "ticks": 83695,
            "time": 130.76506799999999,
            "value": 0.9133858267716536
          },
          {
            "number": 11,
            "ticks": 83715,
            "time": 130.796316,
            "value": 0.937007874015748
          },
          {
            "number": 11,
            "ticks": 83730,
            "time": 130.819752,
            "value": 0.9606299212598425
          },
          {
            "number": 11,
            "ticks": 83735,
            "time": 130.827564,
            "value": 0.968503937007874
          },
          {
            "number": 11,
            "ticks": 83850,
            "time": 131.00724,
            "value": 0.9606299212598425
          },
          {
            "number": 11,
            "ticks": 83870,
            "time": 131.03848799999997,
            "value": 0.937007874015748
          },
          {
            "number": 11,
            "ticks": 83895,
            "time": 131.07754799999998,
            "value": 0.9212598425196851
          },
          {
            "number": 11,
            "ticks": 83910,
            "time": 131.10098399999998,
            "value": 0.8976377952755905
          },
          {
            "number": 11,
            "ticks": 83925,
            "time": 131.12442,
            "value": 0.8740157480314961
          },
          {
            "number": 11,
            "ticks": 83930,
            "time": 131.132232,
            "value": 0.8661417322834646
          },
          {
            "number": 11,
            "ticks": 83945,
            "time": 131.155668,
            "value": 0.8346456692913385
          },
          {
            "number": 11,
            "ticks": 83950,
            "time": 131.16348,
            "value": 0.8188976377952756
          },
          {
            "number": 11,
            "ticks": 83965,
            "time": 131.186916,
            "value": 0.7716535433070866
          },
          {
            "number": 11,
            "ticks": 83975,
            "time": 131.20253999999997,
            "value": 0.7322834645669292
          },
          {
            "number": 11,
            "ticks": 83990,
            "time": 131.22597599999997,
            "value": 0.6850393700787402
          },
          {
            "number": 11,
            "ticks": 83995,
            "time": 131.233788,
            "value": 0.6614173228346457
          },
          {
            "number": 11,
            "ticks": 84010,
            "time": 131.257224,
            "value": 0.6850393700787402
          },
          {
            "number": 11,
            "ticks": 84015,
            "time": 131.26503599999998,
            "value": 0.7007874015748031
          },
          {
            "number": 11,
            "ticks": 84045,
            "time": 131.311908,
            "value": 0.7165354330708661
          },
          {
            "number": 11,
            "ticks": 84055,
            "time": 131.327532,
            "value": 0.7244094488188977
          },
          {
            "number": 11,
            "ticks": 84075,
            "time": 131.35878,
            "value": 0.7401574803149606
          },
          {
            "number": 11,
            "ticks": 84095,
            "time": 131.39002799999997,
            "value": 0.7559055118110236
          },
          {
            "number": 11,
            "ticks": 84115,
            "time": 131.421276,
            "value": 0.7795275590551181
          },
          {
            "number": 11,
            "ticks": 84135,
            "time": 131.45252399999998,
            "value": 0.7952755905511811
          },
          {
            "number": 11,
            "ticks": 84155,
            "time": 131.483772,
            "value": 0.8188976377952756
          },
          {
            "number": 11,
            "ticks": 84175,
            "time": 131.51502,
            "value": 0.8346456692913385
          },
          {
            "number": 11,
            "ticks": 84190,
            "time": 131.538456,
            "value": 0.8582677165354331
          },
          {
            "number": 11,
            "ticks": 84195,
            "time": 131.546268,
            "value": 0.8740157480314961
          },
          {
            "number": 11,
            "ticks": 84225,
            "time": 131.59314,
            "value": 0.8818897637795275
          },
          {
            "number": 11,
            "ticks": 84235,
            "time": 131.608764,
            "value": 0.889763779527559
          },
          {
            "number": 11,
            "ticks": 84255,
            "time": 131.64001199999998,
            "value": 0.9133858267716536
          },
          {
            "number": 11,
            "ticks": 84275,
            "time": 131.67126,
            "value": 0.9291338582677166
          },
          {
            "number": 11,
            "ticks": 84295,
            "time": 131.702508,
            "value": 0.952755905511811
          },
          {
            "number": 11,
            "ticks": 84310,
            "time": 131.725944,
            "value": 0.984251968503937
          },
          {
            "number": 11,
            "ticks": 84315,
            "time": 131.733756,
            "value": 1
          },
          {
            "number": 11,
            "ticks": 85028,
            "time": 132.84774720000001,
            "value": 0.9921259842519685
          },
          {
            "number": 11,
            "ticks": 85741,
            "time": 133.9617384,
            "value": 0.984251968503937
          },
          {
            "number": 11,
            "ticks": 86454,
            "time": 135.0757296,
            "value": 0.9763779527559056
          },
          {
            "number": 11,
            "ticks": 87167,
            "time": 136.18972079999998,
            "value": 0.968503937007874
          },
          {
            "number": 11,
            "ticks": 87880,
            "time": 137.303712,
            "value": 0.9606299212598425
          },
          {
            "number": 11,
            "ticks": 88593,
            "time": 138.41770319999998,
            "value": 0.952755905511811
          },
          {
            "number": 11,
            "ticks": 89306,
            "time": 139.5316944,
            "value": 0.9448818897637795
          },
          {
            "number": 11,
            "ticks": 90019,
            "time": 140.64568559999998,
            "value": 0.937007874015748
          },
          {
            "number": 11,
            "ticks": 90732,
            "time": 141.7596768,
            "value": 0.9291338582677166
          },
          {
            "number": 11,
            "ticks": 91445,
            "time": 142.87366799999998,
            "value": 0.9212598425196851
          },
          {
            "number": 11,
            "ticks": 92158,
            "time": 143.9876592,
            "value": 0.9133858267716536
          },
          {
            "number": 11,
            "ticks": 92871,
            "time": 145.10165039999998,
            "value": 0.905511811023622
          },
          {
            "number": 11,
            "ticks": 93584,
            "time": 146.2156416,
            "value": 0.8976377952755905
          },
          {
            "number": 11,
            "ticks": 94297,
            "time": 147.32963279999998,
            "value": 0.889763779527559
          },
          {
            "number": 11,
            "ticks": 95010,
            "time": 148.443624,
            "value": 0.8818897637795275
          },
          {
            "number": 11,
            "ticks": 95723,
            "time": 149.5576152,
            "value": 0.8740157480314961
          },
          {
            "number": 11,
            "ticks": 96436,
            "time": 150.6716064,
            "value": 0.8661417322834646
          },
          {
            "number": 11,
            "ticks": 97149,
            "time": 151.7855976,
            "value": 0.8582677165354331
          },
          {
            "number": 11,
            "ticks": 97861,
            "time": 152.8980264,
            "value": 0.8503937007874016
          },
          {
            "number": 11,
            "ticks": 98574,
            "time": 154.0120176,
            "value": 0.84251968503937
          },
          {
            "number": 11,
            "ticks": 99288,
            "time": 155.12757119999998,
            "value": 0.8346456692913385
          },
          {
            "number": 11,
            "ticks": 100000,
            "time": 156.24,
            "value": 0.8267716535433071
          },
          {
            "number": 11,
            "ticks": 100714,
            "time": 157.35555359999998,
            "value": 0.8188976377952756
          },
          {
            "number": 11,
            "ticks": 101426,
            "time": 158.46798239999998,
            "value": 0.8110236220472441
          },
          {
            "number": 11,
            "ticks": 102139,
            "time": 159.5819736,
            "value": 0.8031496062992126
          },
          {
            "number": 11,
            "ticks": 102852,
            "time": 160.69596479999998,
            "value": 0.7952755905511811
          },
          {
            "number": 11,
            "ticks": 103566,
            "time": 161.81151839999998,
            "value": 0.7874015748031497
          },
          {
            "number": 11,
            "ticks": 104278,
            "time": 162.9239472,
            "value": 0.7795275590551181
          },
          {
            "number": 11,
            "ticks": 104992,
            "time": 164.03950079999998,
            "value": 0.7716535433070866
          },
          {
            "number": 11,
            "ticks": 105704,
            "time": 165.1519296,
            "value": 0.7637795275590551
          },
          {
            "number": 11,
            "ticks": 106418,
            "time": 166.2674832,
            "value": 0.7559055118110236
          },
          {
            "number": 11,
            "ticks": 107130,
            "time": 167.379912,
            "value": 0.7480314960629921
          },
          {
            "number": 11,
            "ticks": 107843,
            "time": 168.4939032,
            "value": 0.7401574803149606
          },
          {
            "number": 11,
            "ticks": 108556,
            "time": 169.6078944,
            "value": 0.7322834645669292
          },
          {
            "number": 11,
            "ticks": 109270,
            "time": 170.723448,
            "value": 0.7244094488188977
          },
          {
            "number": 11,
            "ticks": 109982,
            "time": 171.8358768,
            "value": 0.7165354330708661
          },
          {
            "number": 11,
            "ticks": 110695,
            "time": 172.949868,
            "value": 0.7086614173228346
          },
          {
            "number": 11,
            "ticks": 111408,
            "time": 174.0638592,
            "value": 0.7007874015748031
          },
          {
            "number": 11,
            "ticks": 112121,
            "time": 175.17785039999998,
            "value": 0.6929133858267716
          },
          {
            "number": 11,
            "ticks": 112834,
            "time": 176.29184159999997,
            "value": 0.6850393700787402
          },
          {
            "number": 11,
            "ticks": 113547,
            "time": 177.40583279999998,
            "value": 0.6771653543307087
          },
          {
            "number": 11,
            "ticks": 114260,
            "time": 178.51982399999997,
            "value": 0.6692913385826772
          },
          {
            "number": 11,
            "ticks": 114973,
            "time": 179.6338152,
            "value": 0.6614173228346457
          },
          {
            "number": 11,
            "ticks": 115686,
            "time": 180.74780639999997,
            "value": 0.6535433070866141
          },
          {
            "number": 11,
            "ticks": 116399,
            "time": 181.8617976,
            "value": 0.6456692913385826
          },
          {
            "number": 11,
            "ticks": 117112,
            "time": 182.97578879999998,
            "value": 0.6377952755905512
          },
          {
            "number": 11,
            "ticks": 117825,
            "time": 184.08978,
            "value": 0.6299212598425197
          },
          {
            "number": 11,
            "ticks": 118538,
            "time": 185.2037712,
            "value": 0.6220472440944882
          },
          {
            "number": 11,
            "ticks": 119251,
            "time": 186.3177624,
            "value": 0.6141732283464567
          },
          {
            "number": 11,
            "ticks": 119964,
            "time": 187.4317536,
            "value": 0.6062992125984252
          },
          {
            "number": 11,
            "ticks": 120677,
            "time": 188.5457448,
            "value": 0.5984251968503937
          },
          {
            "number": 11,
            "ticks": 121390,
            "time": 189.65973599999998,
            "value": 0.5905511811023622
          },
          {
            "number": 11,
            "ticks": 122103,
            "time": 190.7737272,
            "value": 0.5826771653543307
          },
          {
            "number": 11,
            "ticks": 122816,
            "time": 191.88771839999998,
            "value": 0.5748031496062992
          },
          {
            "number": 11,
            "ticks": 123529,
            "time": 193.00170959999997,
            "value": 0.5669291338582677
          },
          {
            "number": 11,
            "ticks": 124241,
            "time": 194.1141384,
            "value": 0.5590551181102362
          },
          {
            "number": 11,
            "ticks": 124955,
            "time": 195.229692,
            "value": 0.5511811023622047
          },
          {
            "number": 11,
            "ticks": 125667,
            "time": 196.34212079999998,
            "value": 0.5433070866141733
          },
          {
            "number": 11,
            "ticks": 126381,
            "time": 197.45767439999997,
            "value": 0.5354330708661418
          },
          {
            "number": 11,
            "ticks": 127093,
            "time": 198.57010319999998,
            "value": 0.5275590551181102
          },
          {
            "number": 11,
            "ticks": 127807,
            "time": 199.6856568,
            "value": 0.5196850393700787
          },
          {
            "number": 11,
            "ticks": 128519,
            "time": 200.79808559999998,
            "value": 0.5118110236220472
          },
          {
            "number": 11,
            "ticks": 129232,
            "time": 201.9120768,
            "value": 0.5039370078740157
          },
          {
            "number": 11,
            "ticks": 129946,
            "time": 203.02763040000002,
            "value": 0.49606299212598426
          },
          {
            "number": 11,
            "ticks": 130658,
            "time": 204.14005919999997,
            "value": 0.4881889763779528
          },
          {
            "number": 11,
            "ticks": 131372,
            "time": 205.2556128,
            "value": 0.48031496062992124
          },
          {
            "number": 11,
            "ticks": 132084,
            "time": 206.3680416,
            "value": 0.47244094488188976
          },
          {
            "number": 11,
            "ticks": 132797,
            "time": 207.48203279999998,
            "value": 0.4645669291338583
          },
          {
            "number": 11,
            "ticks": 133510,
            "time": 208.59602399999997,
            "value": 0.4566929133858268
          },
          {
            "number": 11,
            "ticks": 134224,
            "time": 209.71157759999997,
            "value": 0.44881889763779526
          },
          {
            "number": 11,
            "ticks": 134936,
            "time": 210.8240064,
            "value": 0.4409448818897638
          },
          {
            "number": 11,
            "ticks": 135649,
            "time": 211.9379976,
            "value": 0.4330708661417323
          },
          {
            "number": 11,
            "ticks": 136362,
            "time": 213.05198879999998,
            "value": 0.4251968503937008
          },
          {
            "number": 11,
            "ticks": 137075,
            "time": 214.16598,
            "value": 0.41732283464566927
          },
          {
            "number": 11,
            "ticks": 137095,
            "time": 214.19722799999997,
            "value": 0.4409448818897638
          },
          {
            "number": 11,
            "ticks": 137110,
            "time": 214.22066399999997,
            "value": 0.48031496062992124
          },
          {
            "number": 11,
            "ticks": 137115,
            "time": 214.22847599999997,
            "value": 0.49606299212598426
          },
          {
            "number": 11,
            "ticks": 137145,
            "time": 214.27534799999998,
            "value": 0.5118110236220472
          },
          {
            "number": 11,
            "ticks": 137155,
            "time": 214.29097199999998,
            "value": 0.5196850393700787
          },
          {
            "number": 11,
            "ticks": 137170,
            "time": 214.314408,
            "value": 0.5433070866141733
          },
          {
            "number": 11,
            "ticks": 137175,
            "time": 214.32222,
            "value": 0.5511811023622047
          },
          {
            "number": 11,
            "ticks": 137195,
            "time": 214.353468,
            "value": 0.5748031496062992
          },
          {
            "number": 11,
            "ticks": 137215,
            "time": 214.38471599999997,
            "value": 0.5984251968503937
          },
          {
            "number": 11,
            "ticks": 137230,
            "time": 214.40815199999997,
            "value": 0.6220472440944882
          },
          {
            "number": 11,
            "ticks": 137235,
            "time": 214.41596399999997,
            "value": 0.6299212598425197
          },
          {
            "number": 11,
            "ticks": 137255,
            "time": 214.447212,
            "value": 0.6535433070866141
          },
          {
            "number": 11,
            "ticks": 137275,
            "time": 214.47845999999998,
            "value": 0.6771653543307087
          },
          {
            "number": 11,
            "ticks": 137290,
            "time": 214.50189599999996,
            "value": 0.7165354330708661
          },
          {
            "number": 11,
            "ticks": 137295,
            "time": 214.509708,
            "value": 0.7322834645669292
          },
          {
            "number": 11,
            "ticks": 137325,
            "time": 214.55658,
            "value": 0.7480314960629921
          },
          {
            "number": 11,
            "ticks": 137335,
            "time": 214.57220399999997,
            "value": 0.7559055118110236
          },
          {
            "number": 11,
            "ticks": 137355,
            "time": 214.60345199999998,
            "value": 0.7795275590551181
          },
          {
            "number": 11,
            "ticks": 137370,
            "time": 214.62688799999998,
            "value": 0.8031496062992126
          },
          {
            "number": 11,
            "ticks": 137375,
            "time": 214.6347,
            "value": 0.8110236220472441
          },
          {
            "number": 11,
            "ticks": 137395,
            "time": 214.665948,
            "value": 0.8346456692913385
          },
          {
            "number": 11,
            "ticks": 137415,
            "time": 214.697196,
            "value": 0.8582677165354331
          },
          {
            "number": 11,
            "ticks": 137430,
            "time": 214.720632,
            "value": 0.8818897637795275
          },
          {
            "number": 11,
            "ticks": 137435,
            "time": 214.728444,
            "value": 0.889763779527559
          },
          {
            "number": 11,
            "ticks": 137455,
            "time": 214.75969199999997,
            "value": 0.9133858267716536
          },
          {
            "number": 11,
            "ticks": 137470,
            "time": 214.78312799999998,
            "value": 0.952755905511811
          },
          {
            "number": 11,
            "ticks": 137475,
            "time": 214.79093999999998,
            "value": 0.968503937007874
          },
          {
            "number": 11,
            "ticks": 137543,
            "time": 214.89718319999997,
            "value": 0.9763779527559056
          },
          {
            "number": 11,
            "ticks": 137610,
            "time": 215.00186399999998,
            "value": 0.984251968503937
          },
          {
            "number": 11,
            "ticks": 137615,
            "time": 215.009676,
            "value": 0.9448818897637795
          },
          {
            "number": 11,
            "ticks": 137635,
            "time": 215.04092399999996,
            "value": 0.937007874015748
          },
          {
            "number": 11,
            "ticks": 137650,
            "time": 215.06435999999997,
            "value": 0.9133858267716536
          },
          {
            "number": 11,
            "ticks": 137655,
            "time": 215.072172,
            "value": 0.8976377952755905
          },
          {
            "number": 11,
            "ticks": 137685,
            "time": 215.11904399999997,
            "value": 0.8740157480314961
          },
          {
            "number": 11,
            "ticks": 137690,
            "time": 215.126856,
            "value": 0.8661417322834646
          },
          {
            "number": 11,
            "ticks": 137705,
            "time": 215.150292,
            "value": 0.84251968503937
          },
          {
            "number": 11,
            "ticks": 137710,
            "time": 215.15810399999998,
            "value": 0.8346456692913385
          },
          {
            "number": 11,
            "ticks": 137725,
            "time": 215.18153999999998,
            "value": 0.8110236220472441
          },
          {
            "number": 11,
            "ticks": 137730,
            "time": 215.18935199999999,
            "value": 0.7952755905511811
          },
          {
            "number": 11,
            "ticks": 137745,
            "time": 215.212788,
            "value": 0.7322834645669292
          },
          {
            "number": 11,
            "ticks": 137750,
            "time": 215.2206,
            "value": 0.7086614173228346
          },
          {
            "number": 11,
            "ticks": 137765,
            "time": 215.244036,
            "value": 0.6692913385826772
          },
          {
            "number": 11,
            "ticks": 137775,
            "time": 215.25966,
            "value": 0.6377952755905512
          },
          {
            "number": 11,
            "ticks": 137790,
            "time": 215.28309599999997,
            "value": 0.6850393700787402
          },
          {
            "number": 11,
            "ticks": 137795,
            "time": 215.290908,
            "value": 0.7007874015748031
          },
          {
            "number": 11,
            "ticks": 137815,
            "time": 215.32215599999998,
            "value": 0.7244094488188977
          },
          {
            "number": 11,
            "ticks": 137830,
            "time": 215.34559199999998,
            "value": 0.7480314960629921
          },
          {
            "number": 11,
            "ticks": 137835,
            "time": 215.35340399999998,
            "value": 0.7559055118110236
          },
          {
            "number": 11,
            "ticks": 137865,
            "time": 215.400276,
            "value": 0.7716535433070866
          },
          {
            "number": 11,
            "ticks": 137875,
            "time": 215.41589999999997,
            "value": 0.7795275590551181
          },
          {
            "number": 11,
            "ticks": 137895,
            "time": 215.447148,
            "value": 0.7952755905511811
          },
          {
            "number": 11,
            "ticks": 137915,
            "time": 215.478396,
            "value": 0.8188976377952756
          },
          {
            "number": 11,
            "ticks": 137935,
            "time": 215.50964399999998,
            "value": 0.8346456692913385
          },
          {
            "number": 11,
            "ticks": 137955,
            "time": 215.54089199999999,
            "value": 0.8582677165354331
          },
          {
            "number": 11,
            "ticks": 137975,
            "time": 215.57214,
            "value": 0.8740157480314961
          },
          {
            "number": 11,
            "ticks": 137995,
            "time": 215.60338799999997,
            "value": 0.889763779527559
          },
          {
            "number": 11,
            "ticks": 138010,
            "time": 215.62682399999997,
            "value": 0.9133858267716536
          },
          {
            "number": 11,
            "ticks": 138015,
            "time": 215.63463599999997,
            "value": 0.9291338582677166
          },
          {
            "number": 11,
            "ticks": 138045,
            "time": 215.68150799999998,
            "value": 0.9448818897637795
          },
          {
            "number": 11,
            "ticks": 138055,
            "time": 215.69713199999998,
            "value": 0.952755905511811
          },
          {
            "number": 11,
            "ticks": 138070,
            "time": 215.720568,
            "value": 0.984251968503937
          },
          {
            "number": 11,
            "ticks": 138075,
            "time": 215.72838,
            "value": 1
          },
          {
            "number": 11,
            "ticks": 138269,
            "time": 216.03148559999997,
            "value": 0.9921259842519685
          },
          {
            "number": 11,
            "ticks": 138463,
            "time": 216.33459119999998,
            "value": 0.984251968503937
          },
          {
            "number": 11,
            "ticks": 138657,
            "time": 216.63769679999996,
            "value": 0.9763779527559056
          },
          {
            "number": 11,
            "ticks": 138851,
            "time": 216.9408024,
            "value": 0.968503937007874
          },
          {
            "number": 11,
            "ticks": 139045,
            "time": 217.24390799999998,
            "value": 0.9606299212598425
          },
          {
            "number": 11,
            "ticks": 139239,
            "time": 217.54701359999999,
            "value": 0.952755905511811
          },
          {
            "number": 11,
            "ticks": 139433,
            "time": 217.85011919999997,
            "value": 0.9448818897637795
          },
          {
            "number": 11,
            "ticks": 139627,
            "time": 218.1532248,
            "value": 0.937007874015748
          },
          {
            "number": 11,
            "ticks": 139821,
            "time": 218.45633039999998,
            "value": 0.9291338582677166
          },
          {
            "number": 11,
            "ticks": 140016,
            "time": 218.76099839999998,
            "value": 0.9212598425196851
          },
          {
            "number": 11,
            "ticks": 140210,
            "time": 219.064104,
            "value": 0.9133858267716536
          },
          {
            "number": 11,
            "ticks": 140404,
            "time": 219.36720959999997,
            "value": 0.905511811023622
          },
          {
            "number": 11,
            "ticks": 140598,
            "time": 219.6703152,
            "value": 0.8976377952755905
          },
          {
            "number": 11,
            "ticks": 140792,
            "time": 219.97342079999999,
            "value": 0.889763779527559
          },
          {
            "number": 11,
            "ticks": 140986,
            "time": 220.2765264,
            "value": 0.8818897637795275
          },
          {
            "number": 11,
            "ticks": 141180,
            "time": 220.57963199999998,
            "value": 0.8740157480314961
          },
          {
            "number": 11,
            "ticks": 141374,
            "time": 220.88273759999996,
            "value": 0.8661417322834646
          },
          {
            "number": 11,
            "ticks": 141568,
            "time": 221.1858432,
            "value": 0.8582677165354331
          },
          {
            "number": 11,
            "ticks": 141762,
            "time": 221.48894879999997,
            "value": 0.8503937007874016
          },
          {
            "number": 11,
            "ticks": 141956,
            "time": 221.79205439999998,
            "value": 0.84251968503937
          },
          {
            "number": 11,
            "ticks": 142150,
            "time": 222.09515999999996,
            "value": 0.8346456692913385
          },
          {
            "number": 11,
            "ticks": 142344,
            "time": 222.3982656,
            "value": 0.8267716535433071
          },
          {
            "number": 11,
            "ticks": 142538,
            "time": 222.70137119999998,
            "value": 0.8188976377952756
          },
          {
            "number": 11,
            "ticks": 142732,
            "time": 223.0044768,
            "value": 0.8110236220472441
          },
          {
            "number": 11,
            "ticks": 142926,
            "time": 223.30758239999997,
            "value": 0.8031496062992126
          },
          {
            "number": 11,
            "ticks": 143120,
            "time": 223.610688,
            "value": 0.7952755905511811
          },
          {
            "number": 11,
            "ticks": 143314,
            "time": 223.9137936,
            "value": 0.7874015748031497
          },
          {
            "number": 11,
            "ticks": 143509,
            "time": 224.21846159999998,
            "value": 0.7795275590551181
          },
          {
            "number": 11,
            "ticks": 143703,
            "time": 224.5215672,
            "value": 0.7716535433070866
          },
          {
            "number": 11,
            "ticks": 143897,
            "time": 224.82467279999997,
            "value": 0.7637795275590551
          },
          {
            "number": 11,
            "ticks": 144091,
            "time": 225.1277784,
            "value": 0.7559055118110236
          },
          {
            "number": 11,
            "ticks": 144285,
            "time": 225.430884,
            "value": 0.7480314960629921
          },
          {
            "number": 11,
            "ticks": 144479,
            "time": 225.73398959999997,
            "value": 0.7401574803149606
          },
          {
            "number": 11,
            "ticks": 144673,
            "time": 226.03709519999998,
            "value": 0.7322834645669292
          },
          {
            "number": 11,
            "ticks": 144867,
            "time": 226.34020079999996,
            "value": 0.7244094488188977
          },
          {
            "number": 11,
            "ticks": 145061,
            "time": 226.6433064,
            "value": 0.7165354330708661
          },
          {
            "number": 11,
            "ticks": 145255,
            "time": 226.94641199999998,
            "value": 0.7086614173228346
          },
          {
            "number": 11,
            "ticks": 145449,
            "time": 227.2495176,
            "value": 0.7007874015748031
          },
          {
            "number": 11,
            "ticks": 145643,
            "time": 227.55262319999997,
            "value": 0.6929133858267716
          },
          {
            "number": 11,
            "ticks": 145837,
            "time": 227.8557288,
            "value": 0.6850393700787402
          },
          {
            "number": 11,
            "ticks": 146031,
            "time": 228.1588344,
            "value": 0.6771653543307087
          },
          {
            "number": 11,
            "ticks": 146225,
            "time": 228.46194,
            "value": 0.6692913385826772
          },
          {
            "number": 11,
            "ticks": 146419,
            "time": 228.76504559999998,
            "value": 0.6614173228346457
          },
          {
            "number": 11,
            "ticks": 146613,
            "time": 229.0681512,
            "value": 0.6535433070866141
          },
          {
            "number": 11,
            "ticks": 146807,
            "time": 229.37125679999997,
            "value": 0.6456692913385826
          },
          {
            "number": 11,
            "ticks": 147001,
            "time": 229.6743624,
            "value": 0.6377952755905512
          },
          {
            "number": 11,
            "ticks": 147196,
            "time": 229.9790304,
            "value": 0.6299212598425197
          },
          {
            "number": 11,
            "ticks": 147390,
            "time": 230.28213599999998,
            "value": 0.6220472440944882
          },
          {
            "number": 11,
            "ticks": 147584,
            "time": 230.58524159999996,
            "value": 0.6141732283464567
          },
          {
            "number": 11,
            "ticks": 147778,
            "time": 230.8883472,
            "value": 0.6062992125984252
          },
          {
            "number": 11,
            "ticks": 147972,
            "time": 231.19145279999998,
            "value": 0.5984251968503937
          },
          {
            "number": 11,
            "ticks": 148166,
            "time": 231.4945584,
            "value": 0.5905511811023622
          },
          {
            "number": 11,
            "ticks": 148360,
            "time": 231.79766399999997,
            "value": 0.5826771653543307
          },
          {
            "number": 11,
            "ticks": 148554,
            "time": 232.1007696,
            "value": 0.5748031496062992
          },
          {
            "number": 11,
            "ticks": 148748,
            "time": 232.4038752,
            "value": 0.5669291338582677
          },
          {
            "number": 11,
            "ticks": 148942,
            "time": 232.7069808,
            "value": 0.5590551181102362
          },
          {
            "number": 11,
            "ticks": 149136,
            "time": 233.01008639999998,
            "value": 0.5511811023622047
          },
          {
            "number": 11,
            "ticks": 149330,
            "time": 233.313192,
            "value": 0.5433070866141733
          },
          {
            "number": 11,
            "ticks": 149524,
            "time": 233.61629759999997,
            "value": 0.5354330708661418
          },
          {
            "number": 11,
            "ticks": 149718,
            "time": 233.9194032,
            "value": 0.5275590551181102
          },
          {
            "number": 11,
            "ticks": 149912,
            "time": 234.22250879999999,
            "value": 0.5196850393700787
          },
          {
            "number": 11,
            "ticks": 150106,
            "time": 234.5256144,
            "value": 0.5118110236220472
          },
          {
            "number": 11,
            "ticks": 150300,
            "time": 234.82871999999998,
            "value": 0.5039370078740157
          },
          {
            "number": 11,
            "ticks": 150494,
            "time": 235.13182559999996,
            "value": 0.49606299212598426
          },
          {
            "number": 11,
            "ticks": 150689,
            "time": 235.43649359999998,
            "value": 0.4881889763779528
          },
          {
            "number": 11,
            "ticks": 150883,
            "time": 235.7395992,
            "value": 0.48031496062992124
          },
          {
            "number": 11,
            "ticks": 151077,
            "time": 236.04270479999997,
            "value": 0.47244094488188976
          },
          {
            "number": 11,
            "ticks": 151271,
            "time": 236.34581039999998,
            "value": 0.4645669291338583
          },
          {
            "number": 11,
            "ticks": 151465,
            "time": 236.64891599999996,
            "value": 0.4566929133858268
          },
          {
            "number": 11,
            "ticks": 151659,
            "time": 236.9520216,
            "value": 0.44881889763779526
          },
          {
            "number": 11,
            "ticks": 151853,
            "time": 237.25512719999998,
            "value": 0.4409448818897638
          },
          {
            "number": 11,
            "ticks": 152047,
            "time": 237.55823279999998,
            "value": 0.4330708661417323
          },
          {
            "number": 11,
            "ticks": 152241,
            "time": 237.86133839999997,
            "value": 0.4251968503937008
          },
          {
            "number": 11,
            "ticks": 152435,
            "time": 238.164444,
            "value": 0.41732283464566927
          },
          {
            "number": 11,
            "ticks": 152455,
            "time": 238.19569199999998,
            "value": 0.4409448818897638
          },
          {
            "number": 11,
            "ticks": 152470,
            "time": 238.21912799999998,
            "value": 0.4645669291338583
          },
          {
            "number": 11,
            "ticks": 152475,
            "time": 238.22693999999998,
            "value": 0.47244094488188976
          },
          {
            "number": 11,
            "ticks": 152495,
            "time": 238.258188,
            "value": 0.49606299212598426
          },
          {
            "number": 11,
            "ticks": 152515,
            "time": 238.28943599999997,
            "value": 0.5196850393700787
          },
          {
            "number": 11,
            "ticks": 152530,
            "time": 238.31287199999997,
            "value": 0.5433070866141733
          },
          {
            "number": 11,
            "ticks": 152535,
            "time": 238.32068399999997,
            "value": 0.5511811023622047
          },
          {
            "number": 11,
            "ticks": 152555,
            "time": 238.351932,
            "value": 0.5748031496062992
          },
          {
            "number": 11,
            "ticks": 152575,
            "time": 238.38317999999998,
            "value": 0.5984251968503937
          },
          {
            "number": 11,
            "ticks": 152590,
            "time": 238.40661599999996,
            "value": 0.6377952755905512
          },
          {
            "number": 11,
            "ticks": 152595,
            "time": 238.414428,
            "value": 0.6535433070866141
          },
          {
            "number": 11,
            "ticks": 152625,
            "time": 238.4613,
            "value": 0.6692913385826772
          },
          {
            "number": 11,
            "ticks": 152635,
            "time": 238.47692399999997,
            "value": 0.6771653543307087
          },
          {
            "number": 11,
            "ticks": 152655,
            "time": 238.50817199999997,
            "value": 0.7007874015748031
          },
          {
            "number": 11,
            "ticks": 152670,
            "time": 238.53160799999998,
            "value": 0.7244094488188977
          },
          {
            "number": 11,
            "ticks": 152675,
            "time": 238.53942,
            "value": 0.7322834645669292
          },
          {
            "number": 11,
            "ticks": 152695,
            "time": 238.57066799999998,
            "value": 0.7559055118110236
          },
          {
            "number": 11,
            "ticks": 152715,
            "time": 238.601916,
            "value": 0.7795275590551181
          },
          {
            "number": 11,
            "ticks": 152730,
            "time": 238.625352,
            "value": 0.8031496062992126
          },
          {
            "number": 11,
            "ticks": 152735,
            "time": 238.633164,
            "value": 0.8110236220472441
          },
          {
            "number": 11,
            "ticks": 152755,
            "time": 238.66441199999997,
            "value": 0.8346456692913385
          },
          {
            "number": 11,
            "ticks": 152770,
            "time": 238.68784799999997,
            "value": 0.8740157480314961
          },
          {
            "number": 11,
            "ticks": 152775,
            "time": 238.69565999999998,
            "value": 0.889763779527559
          },
          {
            "number": 11,
            "ticks": 152805,
            "time": 238.74253199999998,
            "value": 0.905511811023622
          },
          {
            "number": 11,
            "ticks": 152815,
            "time": 238.75815599999996,
            "value": 0.9133858267716536
          },
          {
            "number": 11,
            "ticks": 152835,
            "time": 238.789404,
            "value": 0.937007874015748
          },
          {
            "number": 11,
            "ticks": 152850,
            "time": 238.81284,
            "value": 0.9606299212598425
          },
          {
            "number": 11,
            "ticks": 152855,
            "time": 238.820652,
            "value": 0.968503937007874
          },
          {
            "number": 11,
            "ticks": 152970,
            "time": 239.000328,
            "value": 0.9606299212598425
          },
          {
            "number": 11,
            "ticks": 152990,
            "time": 239.031576,
            "value": 0.937007874015748
          },
          {
            "number": 11,
            "ticks": 153015,
            "time": 239.07063599999998,
            "value": 0.9212598425196851
          },
          {
            "number": 11,
            "ticks": 153030,
            "time": 239.09407199999998,
            "value": 0.8976377952755905
          },
          {
            "number": 11,
            "ticks": 153045,
            "time": 239.117508,
            "value": 0.8740157480314961
          },
          {
            "number": 11,
            "ticks": 153050,
            "time": 239.12532,
            "value": 0.8661417322834646
          },
          {
            "number": 11,
            "ticks": 153065,
            "time": 239.148756,
            "value": 0.8346456692913385
          },
          {
            "number": 11,
            "ticks": 153070,
            "time": 239.15656799999996,
            "value": 0.8188976377952756
          },
          {
            "number": 11,
            "ticks": 153085,
            "time": 239.18000399999997,
            "value": 0.7716535433070866
          },
          {
            "number": 11,
            "ticks": 153095,
            "time": 239.195628,
            "value": 0.7322834645669292
          },
          {
            "number": 11,
            "ticks": 153110,
            "time": 239.219064,
            "value": 0.6850393700787402
          },
          {
            "number": 11,
            "ticks": 153115,
            "time": 239.22687599999998,
            "value": 0.6614173228346457
          },
          {
            "number": 11,
            "ticks": 153130,
            "time": 239.25031199999998,
            "value": 0.6850393700787402
          },
          {
            "number": 11,
            "ticks": 153140,
            "time": 239.265936,
            "value": 0.7007874015748031
          },
          {
            "number": 11,
            "ticks": 153170,
            "time": 239.312808,
            "value": 0.7165354330708661
          },
          {
            "number": 11,
            "ticks": 153175,
            "time": 239.32061999999996,
            "value": 0.7244094488188977
          },
          {
            "number": 11,
            "ticks": 153195,
            "time": 239.351868,
            "value": 0.7401574803149606
          },
          {
            "number": 11,
            "ticks": 153215,
            "time": 239.383116,
            "value": 0.7559055118110236
          },
          {
            "number": 11,
            "ticks": 153235,
            "time": 239.41436399999998,
            "value": 0.7795275590551181
          },
          {
            "number": 11,
            "ticks": 153255,
            "time": 239.44561199999998,
            "value": 0.7952755905511811
          },
          {
            "number": 11,
            "ticks": 153275,
            "time": 239.47686,
            "value": 0.8188976377952756
          },
          {
            "number": 11,
            "ticks": 153295,
            "time": 239.50810799999996,
            "value": 0.8346456692913385
          },
          {
            "number": 11,
            "ticks": 153310,
            "time": 239.53154399999997,
            "value": 0.8582677165354331
          },
          {
            "number": 11,
            "ticks": 153315,
            "time": 239.539356,
            "value": 0.8740157480314961
          },
          {
            "number": 11,
            "ticks": 153345,
            "time": 239.58622799999998,
            "value": 0.8818897637795275
          },
          {
            "number": 11,
            "ticks": 153355,
            "time": 239.60185199999998,
            "value": 0.889763779527559
          },
          {
            "number": 11,
            "ticks": 153375,
            "time": 239.63309999999998,
            "value": 0.9133858267716536
          },
          {
            "number": 11,
            "ticks": 153395,
            "time": 239.664348,
            "value": 0.9291338582677166
          },
          {
            "number": 11,
            "ticks": 153415,
            "time": 239.69559599999997,
            "value": 0.952755905511811
          },
          {
            "number": 11,
            "ticks": 153430,
            "time": 239.71903199999997,
            "value": 0.984251968503937
          },
          {
            "number": 11,
            "ticks": 153435,
            "time": 239.72684399999997,
            "value": 1
          },
          {
            "number": 11,
            "ticks": 153629,
            "time": 240.02994959999995,
            "value": 0.9921259842519685
          },
          {
            "number": 11,
            "ticks": 153823,
            "time": 240.3330552,
            "value": 0.984251968503937
          },
          {
            "number": 11,
            "ticks": 154017,
            "time": 240.63616079999997,
            "value": 0.9763779527559056
          },
          {
            "number": 11,
            "ticks": 154211,
            "time": 240.93926639999998,
            "value": 0.968503937007874
          },
          {
            "number": 11,
            "ticks": 154405,
            "time": 241.24237199999996,
            "value": 0.9606299212598425
          },
          {
            "number": 11,
            "ticks": 154599,
            "time": 241.5454776,
            "value": 0.952755905511811
          },
          {
            "number": 11,
            "ticks": 154793,
            "time": 241.84858319999998,
            "value": 0.9448818897637795
          },
          {
            "number": 11,
            "ticks": 154987,
            "time": 242.1516888,
            "value": 0.937007874015748
          },
          {
            "number": 11,
            "ticks": 155181,
            "time": 242.45479439999997,
            "value": 0.9291338582677166
          },
          {
            "number": 11,
            "ticks": 155376,
            "time": 242.7594624,
            "value": 0.9212598425196851
          },
          {
            "number": 11,
            "ticks": 155570,
            "time": 243.062568,
            "value": 0.9133858267716536
          },
          {
            "number": 11,
            "ticks": 155764,
            "time": 243.36567359999998,
            "value": 0.905511811023622
          },
          {
            "number": 11,
            "ticks": 155958,
            "time": 243.6687792,
            "value": 0.8976377952755905
          },
          {
            "number": 11,
            "ticks": 156152,
            "time": 243.97188479999997,
            "value": 0.889763779527559
          },
          {
            "number": 11,
            "ticks": 156346,
            "time": 244.2749904,
            "value": 0.8818897637795275
          },
          {
            "number": 11,
            "ticks": 156540,
            "time": 244.578096,
            "value": 0.8740157480314961
          },
          {
            "number": 11,
            "ticks": 156734,
            "time": 244.88120159999997,
            "value": 0.8661417322834646
          },
          {
            "number": 11,
            "ticks": 156928,
            "time": 245.18430719999998,
            "value": 0.8582677165354331
          },
          {
            "number": 11,
            "ticks": 157122,
            "time": 245.48741279999996,
            "value": 0.8503937007874016
          },
          {
            "number": 11,
            "ticks": 157316,
            "time": 245.7905184,
            "value": 0.84251968503937
          },
          {
            "number": 11,
            "ticks": 157510,
            "time": 246.09362399999998,
            "value": 0.8346456692913385
          },
          {
            "number": 11,
            "ticks": 157704,
            "time": 246.3967296,
            "value": 0.8267716535433071
          },
          {
            "number": 11,
            "ticks": 157898,
            "time": 246.69983519999997,
            "value": 0.8188976377952756
          },
          {
            "number": 11,
            "ticks": 158092,
            "time": 247.0029408,
            "value": 0.8110236220472441
          },
          {
            "number": 11,
            "ticks": 158286,
            "time": 247.30604639999999,
            "value": 0.8031496062992126
          },
          {
            "number": 11,
            "ticks": 158480,
            "time": 247.609152,
            "value": 0.7952755905511811
          },
          {
            "number": 11,
            "ticks": 158674,
            "time": 247.91225759999998,
            "value": 0.7874015748031497
          },
          {
            "number": 11,
            "ticks": 158869,
            "time": 248.21692559999997,
            "value": 0.7795275590551181
          },
          {
            "number": 11,
            "ticks": 159063,
            "time": 248.5200312,
            "value": 0.7716535433070866
          },
          {
            "number": 11,
            "ticks": 159257,
            "time": 248.8231368,
            "value": 0.7637795275590551
          },
          {
            "number": 11,
            "ticks": 159451,
            "time": 249.1262424,
            "value": 0.7559055118110236
          },
          {
            "number": 11,
            "ticks": 159645,
            "time": 249.42934799999998,
            "value": 0.7480314960629921
          },
          {
            "number": 11,
            "ticks": 159839,
            "time": 249.73245359999996,
            "value": 0.7401574803149606
          },
          {
            "number": 11,
            "ticks": 160033,
            "time": 250.0355592,
            "value": 0.7322834645669292
          },
          {
            "number": 11,
            "ticks": 160227,
            "time": 250.33866479999998,
            "value": 0.7244094488188977
          },
          {
            "number": 11,
            "ticks": 160421,
            "time": 250.64177039999998,
            "value": 0.7165354330708661
          },
          {
            "number": 11,
            "ticks": 160615,
            "time": 250.94487599999997,
            "value": 0.7086614173228346
          },
          {
            "number": 11,
            "ticks": 160809,
            "time": 251.2479816,
            "value": 0.7007874015748031
          },
          {
            "number": 11,
            "ticks": 161003,
            "time": 251.55108719999998,
            "value": 0.6929133858267716
          },
          {
            "number": 11,
            "ticks": 161197,
            "time": 251.8541928,
            "value": 0.6850393700787402
          },
          {
            "number": 11,
            "ticks": 161391,
            "time": 252.15729839999997,
            "value": 0.6771653543307087
          },
          {
            "number": 11,
            "ticks": 161585,
            "time": 252.460404,
            "value": 0.6692913385826772
          },
          {
            "number": 11,
            "ticks": 161779,
            "time": 252.7635096,
            "value": 0.6614173228346457
          },
          {
            "number": 11,
            "ticks": 161973,
            "time": 253.0666152,
            "value": 0.6535433070866141
          },
          {
            "number": 11,
            "ticks": 162167,
            "time": 253.36972079999998,
            "value": 0.6456692913385826
          },
          {
            "number": 11,
            "ticks": 162361,
            "time": 253.6728264,
            "value": 0.6377952755905512
          },
          {
            "number": 11,
            "ticks": 162556,
            "time": 253.9774944,
            "value": 0.6299212598425197
          },
          {
            "number": 11,
            "ticks": 162750,
            "time": 254.2806,
            "value": 0.6220472440944882
          },
          {
            "number": 11,
            "ticks": 162944,
            "time": 254.58370559999997,
            "value": 0.6141732283464567
          },
          {
            "number": 11,
            "ticks": 163138,
            "time": 254.88681119999998,
            "value": 0.6062992125984252
          },
          {
            "number": 11,
            "ticks": 163332,
            "time": 255.18991679999996,
            "value": 0.5984251968503937
          },
          {
            "number": 11,
            "ticks": 163526,
            "time": 255.4930224,
            "value": 0.5905511811023622
          },
          {
            "number": 11,
            "ticks": 163720,
            "time": 255.79612799999998,
            "value": 0.5826771653543307
          },
          {
            "number": 11,
            "ticks": 163914,
            "time": 256.0992336,
            "value": 0.5748031496062992
          },
          {
            "number": 11,
            "ticks": 164108,
            "time": 256.4023392,
            "value": 0.5669291338582677
          },
          {
            "number": 11,
            "ticks": 164302,
            "time": 256.7054448,
            "value": 0.5590551181102362
          },
          {
            "number": 11,
            "ticks": 164496,
            "time": 257.0085504,
            "value": 0.5511811023622047
          },
          {
            "number": 11,
            "ticks": 164690,
            "time": 257.31165599999997,
            "value": 0.5433070866141733
          },
          {
            "number": 11,
            "ticks": 164884,
            "time": 257.61476159999995,
            "value": 0.5354330708661418
          },
          {
            "number": 11,
            "ticks": 165078,
            "time": 257.9178672,
            "value": 0.5275590551181102
          },
          {
            "number": 11,
            "ticks": 165272,
            "time": 258.22097279999997,
            "value": 0.5196850393700787
          },
          {
            "number": 11,
            "ticks": 165466,
            "time": 258.5240784,
            "value": 0.5118110236220472
          },
          {
            "number": 11,
            "ticks": 165660,
            "time": 258.827184,
            "value": 0.5039370078740157
          },
          {
            "number": 11,
            "ticks": 165854,
            "time": 259.13028959999997,
            "value": 0.49606299212598426
          },
          {
            "number": 11,
            "ticks": 166049,
            "time": 259.43495759999996,
            "value": 0.4881889763779528
          },
          {
            "number": 11,
            "ticks": 166243,
            "time": 259.7380632,
            "value": 0.48031496062992124
          },
          {
            "number": 11,
            "ticks": 166437,
            "time": 260.0411688,
            "value": 0.47244094488188976
          },
          {
            "number": 11,
            "ticks": 166631,
            "time": 260.34427439999996,
            "value": 0.4645669291338583
          },
          {
            "number": 11,
            "ticks": 166825,
            "time": 260.64737999999994,
            "value": 0.4566929133858268
          },
          {
            "number": 11,
            "ticks": 167019,
            "time": 260.9504856,
            "value": 0.44881889763779526
          },
          {
            "number": 11,
            "ticks": 167213,
            "time": 261.25359119999996,
            "value": 0.4409448818897638
          },
          {
            "number": 11,
            "ticks": 167407,
            "time": 261.5566968,
            "value": 0.4330708661417323
          },
          {
            "number": 11,
            "ticks": 167601,
            "time": 261.8598024,
            "value": 0.4251968503937008
          },
          {
            "number": 11,
            "ticks": 167795,
            "time": 262.162908,
            "value": 0.41732283464566927
          },
          {
            "number": 11,
            "ticks": 167815,
            "time": 262.19415599999996,
            "value": 0.4409448818897638
          },
          {
            "number": 11,
            "ticks": 167830,
            "time": 262.21759199999997,
            "value": 0.4645669291338583
          },
          {
            "number": 11,
            "ticks": 167835,
            "time": 262.22540399999997,
            "value": 0.47244094488188976
          },
          {
            "number": 11,
            "ticks": 167855,
            "time": 262.256652,
            "value": 0.49606299212598426
          },
          {
            "number": 11,
            "ticks": 167875,
            "time": 262.2879,
            "value": 0.5196850393700787
          },
          {
            "number": 11,
            "ticks": 167890,
            "time": 262.311336,
            "value": 0.5590551181102362
          },
          {
            "number": 11,
            "ticks": 167895,
            "time": 262.319148,
            "value": 0.5748031496062992
          },
          {
            "number": 11,
            "ticks": 167925,
            "time": 262.36602,
            "value": 0.5905511811023622
          },
          {
            "number": 11,
            "ticks": 167935,
            "time": 262.381644,
            "value": 0.5984251968503937
          },
          {
            "number": 11,
            "ticks": 167950,
            "time": 262.40507999999994,
            "value": 0.6220472440944882
          },
          {
            "number": 11,
            "ticks": 167955,
            "time": 262.412892,
            "value": 0.6299212598425197
          },
          {
            "number": 11,
            "ticks": 167975,
            "time": 262.44414,
            "value": 0.6535433070866141
          },
          {
            "number": 11,
            "ticks": 167995,
            "time": 262.47538799999995,
            "value": 0.6771653543307087
          },
          {
            "number": 11,
            "ticks": 168015,
            "time": 262.50663599999996,
            "value": 0.7007874015748031
          },
          {
            "number": 11,
            "ticks": 168030,
            "time": 262.53007199999996,
            "value": 0.7244094488188977
          },
          {
            "number": 11,
            "ticks": 168035,
            "time": 262.537884,
            "value": 0.7322834645669292
          },
          {
            "number": 11,
            "ticks": 168055,
            "time": 262.56913199999997,
            "value": 0.7559055118110236
          },
          {
            "number": 11,
            "ticks": 168070,
            "time": 262.59256799999997,
            "value": 0.7952755905511811
          },
          {
            "number": 11,
            "ticks": 168075,
            "time": 262.60038,
            "value": 0.8110236220472441
          },
          {
            "number": 11,
            "ticks": 168105,
            "time": 262.647252,
            "value": 0.8267716535433071
          },
          {
            "number": 11,
            "ticks": 168115,
            "time": 262.662876,
            "value": 0.8346456692913385
          },
          {
            "number": 11,
            "ticks": 168135,
            "time": 262.694124,
            "value": 0.8582677165354331
          },
          {
            "number": 11,
            "ticks": 168150,
            "time": 262.71756,
            "value": 0.8818897637795275
          },
          {
            "number": 11,
            "ticks": 168155,
            "time": 262.725372,
            "value": 0.889763779527559
          },
          {
            "number": 11,
            "ticks": 168175,
            "time": 262.75661999999994,
            "value": 0.9133858267716536
          },
          {
            "number": 11,
            "ticks": 168195,
            "time": 262.787868,
            "value": 0.937007874015748
          },
          {
            "number": 11,
            "ticks": 168210,
            "time": 262.811304,
            "value": 0.9606299212598425
          },
          {
            "number": 11,
            "ticks": 168215,
            "time": 262.819116,
            "value": 0.968503937007874
          },
          {
            "number": 11,
            "ticks": 168330,
            "time": 262.998792,
            "value": 0.9606299212598425
          },
          {
            "number": 11,
            "ticks": 168350,
            "time": 263.03004,
            "value": 0.937007874015748
          },
          {
            "number": 11,
            "ticks": 168375,
            "time": 263.0691,
            "value": 0.905511811023622
          },
          {
            "number": 11,
            "ticks": 168395,
            "time": 263.100348,
            "value": 0.889763779527559
          },
          {
            "number": 11,
            "ticks": 168410,
            "time": 263.123784,
            "value": 0.8661417322834646
          },
          {
            "number": 11,
            "ticks": 168415,
            "time": 263.13159599999994,
            "value": 0.8503937007874016
          },
          {
            "number": 11,
            "ticks": 168430,
            "time": 263.15503199999995,
            "value": 0.8188976377952756
          },
          {
            "number": 11,
            "ticks": 168435,
            "time": 263.162844,
            "value": 0.8031496062992126
          },
          {
            "number": 11,
            "ticks": 168450,
            "time": 263.18628,
            "value": 0.7480314960629921
          },
          {
            "number": 11,
            "ticks": 168460,
            "time": 263.20190399999996,
            "value": 0.7086614173228346
          },
          {
            "number": 11,
            "ticks": 168475,
            "time": 263.22533999999996,
            "value": 0.6850393700787402
          },
          {
            "number": 11,
            "ticks": 168490,
            "time": 263.24877599999996,
            "value": 0.6535433070866141
          },
          {
            "number": 11,
            "ticks": 168495,
            "time": 263.25658799999997,
            "value": 0.6377952755905512
          },
          {
            "number": 11,
            "ticks": 168510,
            "time": 263.28002399999997,
            "value": 0.6850393700787402
          },
          {
            "number": 11,
            "ticks": 168515,
            "time": 263.28783599999997,
            "value": 0.7007874015748031
          },
          {
            "number": 11,
            "ticks": 168535,
            "time": 263.319084,
            "value": 0.7244094488188977
          },
          {
            "number": 11,
            "ticks": 168555,
            "time": 263.350332,
            "value": 0.7401574803149606
          },
          {
            "number": 11,
            "ticks": 168575,
            "time": 263.38158,
            "value": 0.7559055118110236
          },
          {
            "number": 11,
            "ticks": 168595,
            "time": 263.412828,
            "value": 0.7795275590551181
          },
          {
            "number": 11,
            "ticks": 168610,
            "time": 263.436264,
            "value": 0.8031496062992126
          },
          {
            "number": 11,
            "ticks": 168615,
            "time": 263.444076,
            "value": 0.8188976377952756
          },
          {
            "number": 11,
            "ticks": 168645,
            "time": 263.490948,
            "value": 0.8267716535433071
          },
          {
            "number": 11,
            "ticks": 168655,
            "time": 263.50657199999995,
            "value": 0.8346456692913385
          },
          {
            "number": 11,
            "ticks": 168675,
            "time": 263.53782,
            "value": 0.8582677165354331
          },
          {
            "number": 11,
            "ticks": 168695,
            "time": 263.569068,
            "value": 0.8740157480314961
          },
          {
            "number": 11,
            "ticks": 168715,
            "time": 263.60031599999996,
            "value": 0.889763779527559
          },
          {
            "number": 11,
            "ticks": 168735,
            "time": 263.63156399999997,
            "value": 0.9133858267716536
          },
          {
            "number": 11,
            "ticks": 168755,
            "time": 263.662812,
            "value": 0.9291338582677166
          },
          {
            "number": 11,
            "ticks": 168775,
            "time": 263.69406,
            "value": 0.952755905511811
          },
          {
            "number": 11,
            "ticks": 168790,
            "time": 263.717496,
            "value": 0.984251968503937
          },
          {
            "number": 11,
            "ticks": 168795,
            "time": 263.725308,
            "value": 1
          },
          {
            "number": 11,
            "ticks": 168977,
            "time": 264.0096648,
            "value": 0.9921259842519685
          },
          {
            "number": 11,
            "ticks": 169158,
            "time": 264.2924592,
            "value": 0.984251968503937
          },
          {
            "number": 11,
            "ticks": 169341,
            "time": 264.57837839999996,
            "value": 0.9763779527559056
          },
          {
            "number": 11,
            "ticks": 169522,
            "time": 264.8611728,
            "value": 0.968503937007874
          },
          {
            "number": 11,
            "ticks": 169704,
            "time": 265.1455296,
            "value": 0.9606299212598425
          },
          {
            "number": 11,
            "ticks": 169885,
            "time": 265.428324,
            "value": 0.952755905511811
          },
          {
            "number": 11,
            "ticks": 170067,
            "time": 265.7126808,
            "value": 0.9448818897637795
          },
          {
            "number": 11,
            "ticks": 170249,
            "time": 265.99703759999994,
            "value": 0.937007874015748
          },
          {
            "number": 11,
            "ticks": 170430,
            "time": 266.279832,
            "value": 0.9291338582677166
          },
          {
            "number": 11,
            "ticks": 170613,
            "time": 266.5657512,
            "value": 0.9212598425196851
          },
          {
            "number": 11,
            "ticks": 170794,
            "time": 266.84854559999997,
            "value": 0.9133858267716536
          },
          {
            "number": 11,
            "ticks": 170976,
            "time": 267.1329024,
            "value": 0.905511811023622
          },
          {
            "number": 11,
            "ticks": 171157,
            "time": 267.4156968,
            "value": 0.8976377952755905
          },
          {
            "number": 11,
            "ticks": 171339,
            "time": 267.7000536,
            "value": 0.889763779527559
          },
          {
            "number": 11,
            "ticks": 171521,
            "time": 267.9844104,
            "value": 0.8818897637795275
          },
          {
            "number": 11,
            "ticks": 171702,
            "time": 268.26720479999994,
            "value": 0.8740157480314961
          },
          {
            "number": 11,
            "ticks": 171884,
            "time": 268.55156159999996,
            "value": 0.8661417322834646
          },
          {
            "number": 11,
            "ticks": 172066,
            "time": 268.8359184,
            "value": 0.8582677165354331
          },
          {
            "number": 11,
            "ticks": 172248,
            "time": 269.1202752,
            "value": 0.8503937007874016
          },
          {
            "number": 11,
            "ticks": 172429,
            "time": 269.4030696,
            "value": 0.84251968503937
          },
          {
            "number": 11,
            "ticks": 172611,
            "time": 269.6874264,
            "value": 0.8346456692913385
          },
          {
            "number": 11,
            "ticks": 172793,
            "time": 269.97178319999995,
            "value": 0.8267716535433071
          },
          {
            "number": 11,
            "ticks": 172974,
            "time": 270.2545776,
            "value": 0.8188976377952756
          },
          {
            "number": 11,
            "ticks": 173157,
            "time": 270.54049679999997,
            "value": 0.8110236220472441
          },
          {
            "number": 11,
            "ticks": 173338,
            "time": 270.82329119999997,
            "value": 0.8031496062992126
          },
          {
            "number": 11,
            "ticks": 173519,
            "time": 271.1060856,
            "value": 0.7952755905511811
          },
          {
            "number": 11,
            "ticks": 173702,
            "time": 271.3920048,
            "value": 0.7874015748031497
          },
          {
            "number": 11,
            "ticks": 173883,
            "time": 271.6747992,
            "value": 0.7795275590551181
          },
          {
            "number": 11,
            "ticks": 174065,
            "time": 271.959156,
            "value": 0.7716535433070866
          },
          {
            "number": 11,
            "ticks": 174246,
            "time": 272.24195039999995,
            "value": 0.7637795275590551
          },
          {
            "number": 11,
            "ticks": 174429,
            "time": 272.5278696,
            "value": 0.7559055118110236
          },
          {
            "number": 11,
            "ticks": 174610,
            "time": 272.810664,
            "value": 0.7480314960629921
          },
          {
            "number": 11,
            "ticks": 174791,
            "time": 273.0934584,
            "value": 0.7401574803149606
          },
          {
            "number": 11,
            "ticks": 174974,
            "time": 273.37937759999994,
            "value": 0.7322834645669292
          },
          {
            "number": 11,
            "ticks": 175155,
            "time": 273.662172,
            "value": 0.7244094488188977
          },
          {
            "number": 11,
            "ticks": 175337,
            "time": 273.94652879999995,
            "value": 0.7165354330708661
          },
          {
            "number": 11,
            "ticks": 175518,
            "time": 274.2293232,
            "value": 0.7086614173228346
          },
          {
            "number": 11,
            "ticks": 175700,
            "time": 274.51368,
            "value": 0.7007874015748031
          },
          {
            "number": 11,
            "ticks": 175715,
            "time": 274.53711599999997,
            "value": 0.7322834645669292
          },
          {
            "number": 11,
            "ticks": 175735,
            "time": 274.568364,
            "value": 0.7559055118110236
          },
          {
            "number": 11,
            "ticks": 175755,
            "time": 274.599612,
            "value": 0.7795275590551181
          },
          {
            "number": 11,
            "ticks": 175770,
            "time": 274.623048,
            "value": 0.8031496062992126
          },
          {
            "number": 11,
            "ticks": 175775,
            "time": 274.63086,
            "value": 0.8110236220472441
          },
          {
            "number": 11,
            "ticks": 175795,
            "time": 274.662108,
            "value": 0.8346456692913385
          },
          {
            "number": 11,
            "ticks": 175810,
            "time": 274.685544,
            "value": 0.8740157480314961
          },
          {
            "number": 11,
            "ticks": 175815,
            "time": 274.693356,
            "value": 0.889763779527559
          },
          {
            "number": 11,
            "ticks": 175845,
            "time": 274.740228,
            "value": 0.905511811023622
          },
          {
            "number": 11,
            "ticks": 175855,
            "time": 274.75585199999995,
            "value": 0.9133858267716536
          },
          {
            "number": 11,
            "ticks": 175875,
            "time": 274.7871,
            "value": 0.937007874015748
          },
          {
            "number": 11,
            "ticks": 175890,
            "time": 274.81053599999996,
            "value": 0.9606299212598425
          },
          {
            "number": 11,
            "ticks": 175895,
            "time": 274.818348,
            "value": 0.968503937007874
          },
          {
            "number": 11,
            "ticks": 176010,
            "time": 274.998024,
            "value": 0.9606299212598425
          },
          {
            "number": 11,
            "ticks": 176030,
            "time": 275.029272,
            "value": 0.937007874015748
          },
          {
            "number": 11,
            "ticks": 176055,
            "time": 275.068332,
            "value": 0.9212598425196851
          },
          {
            "number": 11,
            "ticks": 176070,
            "time": 275.091768,
            "value": 0.8976377952755905
          },
          {
            "number": 11,
            "ticks": 176085,
            "time": 275.115204,
            "value": 0.8740157480314961
          },
          {
            "number": 11,
            "ticks": 176090,
            "time": 275.123016,
            "value": 0.8661417322834646
          },
          {
            "number": 11,
            "ticks": 176105,
            "time": 275.146452,
            "value": 0.8346456692913385
          },
          {
            "number": 11,
            "ticks": 176110,
            "time": 275.15426399999996,
            "value": 0.8188976377952756
          },
          {
            "number": 11,
            "ticks": 176125,
            "time": 275.17769999999996,
            "value": 0.7716535433070866
          },
          {
            "number": 11,
            "ticks": 176135,
            "time": 275.193324,
            "value": 0.7322834645669292
          },
          {
            "number": 11,
            "ticks": 176150,
            "time": 275.21676,
            "value": 0.6850393700787402
          },
          {
            "number": 11,
            "ticks": 176155,
            "time": 275.22457199999997,
            "value": 0.6614173228346457
          },
          {
            "number": 11,
            "ticks": 176170,
            "time": 275.24800799999997,
            "value": 0.6850393700787402
          },
          {
            "number": 11,
            "ticks": 176180,
            "time": 275.263632,
            "value": 0.7007874015748031
          },
          {
            "number": 11,
            "ticks": 176210,
            "time": 275.310504,
            "value": 0.7165354330708661
          },
          {
            "number": 11,
            "ticks": 176215,
            "time": 275.318316,
            "value": 0.7244094488188977
          },
          {
            "number": 11,
            "ticks": 176235,
            "time": 275.349564,
            "value": 0.7401574803149606
          },
          {
            "number": 11,
            "ticks": 176255,
            "time": 275.380812,
            "value": 0.7559055118110236
          },
          {
            "number": 11,
            "ticks": 176275,
            "time": 275.41205999999994,
            "value": 0.7795275590551181
          },
          {
            "number": 11,
            "ticks": 176295,
            "time": 275.443308,
            "value": 0.7952755905511811
          },
          {
            "number": 11,
            "ticks": 176315,
            "time": 275.474556,
            "value": 0.8188976377952756
          },
          {
            "number": 11,
            "ticks": 176335,
            "time": 275.50580399999996,
            "value": 0.8346456692913385
          },
          {
            "number": 11,
            "ticks": 176350,
            "time": 275.52923999999996,
            "value": 0.8582677165354331
          },
          {
            "number": 11,
            "ticks": 176355,
            "time": 275.53705199999996,
            "value": 0.8740157480314961
          },
          {
            "number": 11,
            "ticks": 176385,
            "time": 275.58392399999997,
            "value": 0.8818897637795275
          },
          {
            "number": 11,
            "ticks": 176395,
            "time": 275.59954799999997,
            "value": 0.889763779527559
          },
          {
            "number": 11,
            "ticks": 176415,
            "time": 275.630796,
            "value": 0.9133858267716536
          },
          {
            "number": 11,
            "ticks": 176435,
            "time": 275.662044,
            "value": 0.9291338582677166
          },
          {
            "number": 11,
            "ticks": 176455,
            "time": 275.693292,
            "value": 0.952755905511811
          },
          {
            "number": 11,
            "ticks": 176470,
            "time": 275.716728,
            "value": 0.984251968503937
          },
          {
            "number": 11,
            "ticks": 176475,
            "time": 275.72454,
            "value": 1
          },
          {
            "number": 11,
            "ticks": 176678,
            "time": 276.04170719999996,
            "value": 0.9921259842519685
          },
          {
            "number": 11,
            "ticks": 176881,
            "time": 276.3588744,
            "value": 0.984251968503937
          },
          {
            "number": 11,
            "ticks": 177085,
            "time": 276.677604,
            "value": 0.9763779527559056
          },
          {
            "number": 11,
            "ticks": 177288,
            "time": 276.9947712,
            "value": 0.968503937007874
          },
          {
            "number": 11,
            "ticks": 177491,
            "time": 277.3119384,
            "value": 0.9606299212598425
          },
          {
            "number": 11,
            "ticks": 177694,
            "time": 277.6291056,
            "value": 0.952755905511811
          },
          {
            "number": 11,
            "ticks": 177898,
            "time": 277.9478352,
            "value": 0.9448818897637795
          },
          {
            "number": 11,
            "ticks": 178101,
            "time": 278.26500239999996,
            "value": 0.937007874015748
          },
          {
            "number": 11,
            "ticks": 178304,
            "time": 278.5821696,
            "value": 0.9291338582677166
          },
          {
            "number": 11,
            "ticks": 178507,
            "time": 278.8993368,
            "value": 0.9212598425196851
          },
          {
            "number": 11,
            "ticks": 178711,
            "time": 279.2180664,
            "value": 0.9133858267716536
          },
          {
            "number": 11,
            "ticks": 178914,
            "time": 279.53523359999997,
            "value": 0.905511811023622
          },
          {
            "number": 11,
            "ticks": 179117,
            "time": 279.8524008,
            "value": 0.8976377952755905
          },
          {
            "number": 11,
            "ticks": 179320,
            "time": 280.16956799999997,
            "value": 0.889763779527559
          },
          {
            "number": 11,
            "ticks": 179524,
            "time": 280.48829759999995,
            "value": 0.8818897637795275
          },
          {
            "number": 11,
            "ticks": 179727,
            "time": 280.8054648,
            "value": 0.8740157480314961
          },
          {
            "number": 11,
            "ticks": 179930,
            "time": 281.122632,
            "value": 0.8661417322834646
          },
          {
            "number": 11,
            "ticks": 180133,
            "time": 281.4397992,
            "value": 0.8582677165354331
          },
          {
            "number": 11,
            "ticks": 180336,
            "time": 281.75696639999995,
            "value": 0.8503937007874016
          },
          {
            "number": 11,
            "ticks": 180540,
            "time": 282.075696,
            "value": 0.84251968503937
          },
          {
            "number": 11,
            "ticks": 180743,
            "time": 282.39286319999997,
            "value": 0.8346456692913385
          },
          {
            "number": 11,
            "ticks": 180946,
            "time": 282.7100304,
            "value": 0.8267716535433071
          },
          {
            "number": 11,
            "ticks": 181149,
            "time": 283.02719759999997,
            "value": 0.8188976377952756
          },
          {
            "number": 11,
            "ticks": 181353,
            "time": 283.3459272,
            "value": 0.8110236220472441
          },
          {
            "number": 11,
            "ticks": 181556,
            "time": 283.6630944,
            "value": 0.8031496062992126
          },
          {
            "number": 11,
            "ticks": 181759,
            "time": 283.98026159999995,
            "value": 0.7952755905511811
          },
          {
            "number": 11,
            "ticks": 181962,
            "time": 284.2974288,
            "value": 0.7874015748031497
          },
          {
            "number": 11,
            "ticks": 182166,
            "time": 284.61615839999996,
            "value": 0.7795275590551181
          },
          {
            "number": 11,
            "ticks": 182369,
            "time": 284.9333256,
            "value": 0.7716535433070866
          },
          {
            "number": 11,
            "ticks": 182572,
            "time": 285.2504928,
            "value": 0.7637795275590551
          },
          {
            "number": 11,
            "ticks": 182775,
            "time": 285.56766,
            "value": 0.7559055118110236
          },
          {
            "number": 11,
            "ticks": 182979,
            "time": 285.8863896,
            "value": 0.7480314960629921
          },
          {
            "number": 11,
            "ticks": 183182,
            "time": 286.2035568,
            "value": 0.7401574803149606
          },
          {
            "number": 11,
            "ticks": 183385,
            "time": 286.520724,
            "value": 0.7322834645669292
          },
          {
            "number": 11,
            "ticks": 183415,
            "time": 286.567596,
            "value": 0.7559055118110236
          },
          {
            "number": 11,
            "ticks": 183435,
            "time": 286.598844,
            "value": 0.7795275590551181
          },
          {
            "number": 11,
            "ticks": 183450,
            "time": 286.62228,
            "value": 0.8031496062992126
          },
          {
            "number": 11,
            "ticks": 183455,
            "time": 286.630092,
            "value": 0.8110236220472441
          },
          {
            "number": 11,
            "ticks": 183475,
            "time": 286.66134,
            "value": 0.8346456692913385
          },
          {
            "number": 11,
            "ticks": 183495,
            "time": 286.692588,
            "value": 0.8582677165354331
          },
          {
            "number": 11,
            "ticks": 183510,
            "time": 286.716024,
            "value": 0.8818897637795275
          },
          {
            "number": 11,
            "ticks": 183515,
            "time": 286.723836,
            "value": 0.889763779527559
          },
          {
            "number": 11,
            "ticks": 183535,
            "time": 286.75508399999995,
            "value": 0.9133858267716536
          },
          {
            "number": 11,
            "ticks": 183550,
            "time": 286.77851999999996,
            "value": 0.952755905511811
          },
          {
            "number": 11,
            "ticks": 183555,
            "time": 286.78633199999996,
            "value": 0.968503937007874
          },
          {
            "number": 11,
            "ticks": 183623,
            "time": 286.89257519999995,
            "value": 0.9763779527559056
          },
          {
            "number": 11,
            "ticks": 183690,
            "time": 286.997256,
            "value": 0.984251968503937
          },
          {
            "number": 11,
            "ticks": 183695,
            "time": 287.005068,
            "value": 0.9448818897637795
          },
          {
            "number": 11,
            "ticks": 183715,
            "time": 287.03631599999994,
            "value": 0.937007874015748
          },
          {
            "number": 11,
            "ticks": 183730,
            "time": 287.05975199999995,
            "value": 0.9133858267716536
          },
          {
            "number": 11,
            "ticks": 183735,
            "time": 287.067564,
            "value": 0.8976377952755905
          },
          {
            "number": 11,
            "ticks": 183765,
            "time": 287.11443599999996,
            "value": 0.8740157480314961
          },
          {
            "number": 11,
            "ticks": 183770,
            "time": 287.122248,
            "value": 0.8661417322834646
          },
          {
            "number": 11,
            "ticks": 183785,
            "time": 287.145684,
            "value": 0.84251968503937
          },
          {
            "number": 11,
            "ticks": 183790,
            "time": 287.15349599999996,
            "value": 0.8346456692913385
          },
          {
            "number": 11,
            "ticks": 183805,
            "time": 287.17693199999997,
            "value": 0.8110236220472441
          },
          {
            "number": 11,
            "ticks": 183810,
            "time": 287.18474399999997,
            "value": 0.7952755905511811
          },
          {
            "number": 11,
            "ticks": 183825,
            "time": 287.20817999999997,
            "value": 0.7322834645669292
          },
          {
            "number": 11,
            "ticks": 183830,
            "time": 287.21599199999997,
            "value": 0.7086614173228346
          },
          {
            "number": 11,
            "ticks": 183845,
            "time": 287.239428,
            "value": 0.6692913385826772
          },
          {
            "number": 11,
            "ticks": 183855,
            "time": 287.255052,
            "value": 0.6377952755905512
          },
          {
            "number": 11,
            "ticks": 183870,
            "time": 287.278488,
            "value": 0.6850393700787402
          },
          {
            "number": 11,
            "ticks": 183875,
            "time": 287.2863,
            "value": 0.7007874015748031
          },
          {
            "number": 11,
            "ticks": 183895,
            "time": 287.317548,
            "value": 0.7244094488188977
          },
          {
            "number": 11,
            "ticks": 183910,
            "time": 287.340984,
            "value": 0.7480314960629921
          },
          {
            "number": 11,
            "ticks": 183915,
            "time": 287.348796,
            "value": 0.7559055118110236
          },
          {
            "number": 11,
            "ticks": 183945,
            "time": 287.395668,
            "value": 0.7716535433070866
          },
          {
            "number": 11,
            "ticks": 183955,
            "time": 287.41129199999995,
            "value": 0.7795275590551181
          },
          {
            "number": 11,
            "ticks": 183975,
            "time": 287.44254,
            "value": 0.7952755905511811
          },
          {
            "number": 11,
            "ticks": 183995,
            "time": 287.473788,
            "value": 0.8188976377952756
          },
          {
            "number": 11,
            "ticks": 184015,
            "time": 287.50503599999996,
            "value": 0.8346456692913385
          },
          {
            "number": 11,
            "ticks": 184035,
            "time": 287.53628399999997,
            "value": 0.8582677165354331
          },
          {
            "number": 11,
            "ticks": 184055,
            "time": 287.56753199999997,
            "value": 0.8740157480314961
          },
          {
            "number": 11,
            "ticks": 184075,
            "time": 287.59878,
            "value": 0.889763779527559
          },
          {
            "number": 11,
            "ticks": 184090,
            "time": 287.622216,
            "value": 0.9133858267716536
          },
          {
            "number": 11,
            "ticks": 184095,
            "time": 287.630028,
            "value": 0.9291338582677166
          },
          {
            "number": 11,
            "ticks": 184125,
            "time": 287.6769,
            "value": 0.9448818897637795
          },
          {
            "number": 11,
            "ticks": 184135,
            "time": 287.692524,
            "value": 0.952755905511811
          },
          {
            "number": 11,
            "ticks": 184150,
            "time": 287.71596,
            "value": 0.984251968503937
          },
          {
            "number": 11,
            "ticks": 184155,
            "time": 287.723772,
            "value": 1
          }
        ],
        "91": [
          {
            "number": 91,
            "ticks": 775,
            "time": 1.2108599999999998,
            "value": 0.3937007874015748
          },
          {
            "number": 91,
            "ticks": 775,
            "time": 1.2108599999999998,
            "value": 0.6299212598425197
          }
        ],
        "93": [
          {
            "number": 93,
            "ticks": 775,
            "time": 1.2108599999999998,
            "value": 0.31496062992125984
          },
          {
            "number": 93,
            "ticks": 775,
            "time": 1.2108599999999998,
            "value": 0
          }
        ],
        "98": [
          {
            "number": 98,
            "ticks": 1075,
            "time": 1.67958,
            "value": 0.25984251968503935
          },
          {
            "number": 98,
            "ticks": 1090,
            "time": 1.703016,
            "value": 0.7795275590551181
          },
          {
            "number": 98,
            "ticks": 1105,
            "time": 1.726452,
            "value": 0.8031496062992126
          },
          {
            "number": 98,
            "ticks": 1225,
            "time": 1.91394,
            "value": 0.8031496062992126
          },
          {
            "number": 98,
            "ticks": 1225,
            "time": 1.91394,
            "value": 0.25196850393700787
          },
          {
            "number": 98,
            "ticks": 1240,
            "time": 1.937376,
            "value": 0.25984251968503935
          }
        ],
        "99": [
          {
            "number": 99,
            "ticks": 1070,
            "time": 1.6717679999999997,
            "value": 0.007874015748031496
          },
          {
            "number": 99,
            "ticks": 1085,
            "time": 1.6952039999999997,
            "value": 0.007874015748031496
          },
          {
            "number": 99,
            "ticks": 1100,
            "time": 1.7186399999999997,
            "value": 0.007874015748031496
          },
          {
            "number": 99,
            "ticks": 1220,
            "time": 1.9061279999999998,
            "value": 0.007874015748031496
          },
          {
            "number": 99,
            "ticks": 1235,
            "time": 1.9295639999999998,
            "value": 0.007874015748031496
          }
        ],
        "100": [
          {
            "number": 100,
            "ticks": 1120,
            "time": 1.7498879999999999,
            "value": 1
          },
          {
            "number": 100,
            "ticks": 1255,
            "time": 1.960812,
            "value": 1
          }
        ],
        "101": [
          {
            "number": 101,
            "ticks": 1115,
            "time": 1.7420759999999997,
            "value": 1
          },
          {
            "number": 101,
            "ticks": 1249,
            "time": 1.9514375999999998,
            "value": 1
          }
        ]
      },
      "pitchBends": [],
      "instrument": {
        "family": "ensemble",
        "number": 48,
        "name": "string ensemble 1"
      },
      "name": "",
      "notes": [
        {
          "duration": 5.991803999999998,
          "durationTicks": 3835,
          "midi": 46,
          "name": "A#2",
          "ticks": 5760,
          "time": 8.999424,
          "velocity": 0.5196850393700787
        },
        {
          "duration": 11.983607999999998,
          "durationTicks": 7670,
          "midi": 46,
          "name": "A#2",
          "ticks": 5760,
          "time": 8.999424,
          "velocity": 0.23622047244094488
        },
        {
          "duration": 1.468656000000001,
          "durationTicks": 940,
          "midi": 58,
          "name": "A#3",
          "ticks": 5760,
          "time": 8.999424,
          "velocity": 0.5039370078740157
        },
        {
          "duration": 1.4061599999999999,
          "durationTicks": 900,
          "midi": 62,
          "name": "D4",
          "ticks": 5760,
          "time": 8.999424,
          "velocity": 0.4566929133858268
        },
        {
          "duration": 1.429596,
          "durationTicks": 915,
          "midi": 55,
          "name": "G3",
          "ticks": 6720,
          "time": 10.499327999999998,
          "velocity": 0.5669291338582677
        },
        {
          "duration": 1.5311520000000023,
          "durationTicks": 980,
          "midi": 63,
          "name": "D#4",
          "ticks": 6720,
          "time": 10.499327999999998,
          "velocity": 0.47244094488188976
        },
        {
          "duration": 1.5702119999999997,
          "durationTicks": 1005,
          "midi": 57,
          "name": "A3",
          "ticks": 7680,
          "time": 11.999232,
          "velocity": 0.5354330708661418
        },
        {
          "duration": 1.4920919999999995,
          "durationTicks": 955,
          "midi": 65,
          "name": "F4",
          "ticks": 7680,
          "time": 11.999232,
          "velocity": 0.49606299212598426
        },
        {
          "duration": 1.5545880000000007,
          "durationTicks": 995,
          "midi": 55,
          "name": "G3",
          "ticks": 8640,
          "time": 13.499136,
          "velocity": 0.5511811023622047
        },
        {
          "duration": 1.5702119999999997,
          "durationTicks": 1005,
          "midi": 63,
          "name": "D#4",
          "ticks": 8640,
          "time": 13.499136,
          "velocity": 0.5118110236220472
        },
        {
          "duration": 6.023051999999998,
          "durationTicks": 3855,
          "midi": 46,
          "name": "A#2",
          "ticks": 9600,
          "time": 14.999039999999999,
          "velocity": 0.5196850393700787
        },
        {
          "duration": 1.4686559999999975,
          "durationTicks": 940,
          "midi": 58,
          "name": "A#3",
          "ticks": 9600,
          "time": 14.999039999999999,
          "velocity": 0.5039370078740157
        },
        {
          "duration": 1.4061600000000016,
          "durationTicks": 900,
          "midi": 62,
          "name": "D4",
          "ticks": 9600,
          "time": 14.999039999999999,
          "velocity": 0.4566929133858268
        },
        {
          "duration": 1.4217839999999988,
          "durationTicks": 910,
          "midi": 55,
          "name": "G3",
          "ticks": 10560,
          "time": 16.498943999999998,
          "velocity": 0.5669291338582677
        },
        {
          "duration": 1.538964,
          "durationTicks": 985,
          "midi": 63,
          "name": "D#4",
          "ticks": 10560,
          "time": 16.498943999999998,
          "velocity": 0.47244094488188976
        },
        {
          "duration": 1.5624000000000002,
          "durationTicks": 1000,
          "midi": 57,
          "name": "A3",
          "ticks": 11520,
          "time": 17.998848,
          "velocity": 0.5354330708661418
        },
        {
          "duration": 1.4920919999999995,
          "durationTicks": 955,
          "midi": 65,
          "name": "F4",
          "ticks": 11520,
          "time": 17.998848,
          "velocity": 0.49606299212598426
        },
        {
          "duration": 1.5467759999999977,
          "durationTicks": 990,
          "midi": 55,
          "name": "G3",
          "ticks": 12480,
          "time": 19.498752,
          "velocity": 0.5511811023622047
        },
        {
          "duration": 1.570211999999998,
          "durationTicks": 1005,
          "midi": 63,
          "name": "D#4",
          "ticks": 12480,
          "time": 19.498752,
          "velocity": 0.5118110236220472
        },
        {
          "duration": 1.4686559999999993,
          "durationTicks": 940,
          "midi": 62,
          "name": "D4",
          "ticks": 13440,
          "time": 20.998655999999997,
          "velocity": 0.31496062992125984
        },
        {
          "duration": 1.4608440000000016,
          "durationTicks": 935,
          "midi": 63,
          "name": "D#4",
          "ticks": 14400,
          "time": 22.498559999999998,
          "velocity": 0.30708661417322836
        },
        {
          "duration": 1.5077159999999985,
          "durationTicks": 965,
          "midi": 65,
          "name": "F4",
          "ticks": 15360,
          "time": 23.998464,
          "velocity": 0.2992125984251969
        },
        {
          "duration": 1.4686559999999993,
          "durationTicks": 940,
          "midi": 63,
          "name": "D#4",
          "ticks": 16320,
          "time": 25.498368,
          "velocity": 0.29133858267716534
        },
        {
          "duration": 1.4686559999999993,
          "durationTicks": 940,
          "midi": 62,
          "name": "D4",
          "ticks": 17280,
          "time": 26.998272,
          "velocity": 0.31496062992125984
        },
        {
          "duration": 1.4686560000000028,
          "durationTicks": 940,
          "midi": 63,
          "name": "D#4",
          "ticks": 18240,
          "time": 28.498175999999997,
          "velocity": 0.30708661417322836
        },
        {
          "duration": 1.4999040000000008,
          "durationTicks": 960,
          "midi": 65,
          "name": "F4",
          "ticks": 19200,
          "time": 29.998079999999998,
          "velocity": 0.2992125984251969
        },
        {
          "duration": 1.4686559999999993,
          "durationTicks": 940,
          "midi": 63,
          "name": "D#4",
          "ticks": 20160,
          "time": 31.497984,
          "velocity": 0.29133858267716534
        },
        {
          "duration": 1.4686560000000028,
          "durationTicks": 940,
          "midi": 62,
          "name": "D4",
          "ticks": 21120,
          "time": 32.997887999999996,
          "velocity": 0.31496062992125984
        },
        {
          "duration": 1.4686560000000028,
          "durationTicks": 940,
          "midi": 63,
          "name": "D#4",
          "ticks": 22080,
          "time": 34.497792,
          "velocity": 0.30708661417322836
        },
        {
          "duration": 1.507715999999995,
          "durationTicks": 965,
          "midi": 65,
          "name": "F4",
          "ticks": 23040,
          "time": 35.997696,
          "velocity": 0.2992125984251969
        },
        {
          "duration": 1.4608439999999945,
          "durationTicks": 935,
          "midi": 63,
          "name": "D#4",
          "ticks": 24000,
          "time": 37.4976,
          "velocity": 0.29133858267716534
        },
        {
          "duration": 1.476467999999997,
          "durationTicks": 945,
          "midi": 62,
          "name": "D4",
          "ticks": 24960,
          "time": 38.997504,
          "velocity": 0.31496062992125984
        },
        {
          "duration": 1.4686559999999957,
          "durationTicks": 940,
          "midi": 63,
          "name": "D#4",
          "ticks": 25920,
          "time": 40.497408,
          "velocity": 0.30708661417322836
        },
        {
          "duration": 1.4999040000000008,
          "durationTicks": 960,
          "midi": 65,
          "name": "F4",
          "ticks": 26880,
          "time": 41.997311999999994,
          "velocity": 0.2992125984251969
        },
        {
          "duration": 1.4686560000000028,
          "durationTicks": 940,
          "midi": 63,
          "name": "D#4",
          "ticks": 27840,
          "time": 43.497215999999995,
          "velocity": 0.29133858267716534
        },
        {
          "duration": 2.984184000000006,
          "durationTicks": 1910,
          "midi": 50,
          "name": "D3",
          "ticks": 36480,
          "time": 56.996351999999995,
          "velocity": 0.3700787401574803
        },
        {
          "duration": 2.6092080000000024,
          "durationTicks": 1670,
          "midi": 58,
          "name": "A#3",
          "ticks": 36480,
          "time": 56.996351999999995,
          "velocity": 0.5354330708661418
        },
        {
          "duration": 2.6170199999999966,
          "durationTicks": 1675,
          "midi": 62,
          "name": "D4",
          "ticks": 36480,
          "time": 56.996351999999995,
          "velocity": 0.2992125984251969
        },
        {
          "duration": 2.8123199999999997,
          "durationTicks": 1800,
          "midi": 77,
          "name": "F5",
          "ticks": 36480,
          "time": 56.996351999999995,
          "velocity": 0.4251968503937008
        },
        {
          "duration": 7.491707999999996,
          "durationTicks": 4795,
          "midi": 60,
          "name": "C4",
          "ticks": 37440,
          "time": 58.496255999999995,
          "velocity": 0.4881889763779528
        },
        {
          "duration": 5.983992000000008,
          "durationTicks": 3830,
          "midi": 51,
          "name": "D#3",
          "ticks": 38400,
          "time": 59.996159999999996,
          "velocity": 0.4094488188976378
        },
        {
          "duration": 0.18748800000000188,
          "durationTicks": 120,
          "midi": 74,
          "name": "D5",
          "ticks": 38400,
          "time": 59.996159999999996,
          "velocity": 0.4094488188976378
        },
        {
          "duration": 0.18748799999999477,
          "durationTicks": 120,
          "midi": 75,
          "name": "D#5",
          "ticks": 38520,
          "time": 60.183648,
          "velocity": 0.4330708661417323
        },
        {
          "duration": 2.4295319999999947,
          "durationTicks": 1555,
          "midi": 63,
          "name": "D#4",
          "ticks": 38760,
          "time": 60.558623999999995,
          "velocity": 0.3779527559055118
        },
        {
          "duration": 2.242044,
          "durationTicks": 1435,
          "midi": 75,
          "name": "D#5",
          "ticks": 38760,
          "time": 60.558623999999995,
          "velocity": 0.3779527559055118
        },
        {
          "duration": 1.476468000000004,
          "durationTicks": 945,
          "midi": 63,
          "name": "D#4",
          "ticks": 40320,
          "time": 62.995968,
          "velocity": 0.4251968503937008
        },
        {
          "duration": 1.476468000000004,
          "durationTicks": 945,
          "midi": 65,
          "name": "F4",
          "ticks": 40320,
          "time": 62.995968,
          "velocity": 0.4409448818897638
        },
        {
          "duration": 1.4764680000000112,
          "durationTicks": 945,
          "midi": 63,
          "name": "D#4",
          "ticks": 41280,
          "time": 64.49587199999999,
          "velocity": 0.4566929133858268
        },
        {
          "duration": 1.4842800000000125,
          "durationTicks": 950,
          "midi": 65,
          "name": "F4",
          "ticks": 41280,
          "time": 64.49587199999999,
          "velocity": 0.4566929133858268
        },
        {
          "duration": 2.046744000000004,
          "durationTicks": 1310,
          "midi": 50,
          "name": "D3",
          "ticks": 42240,
          "time": 65.99577599999999,
          "velocity": 0.3700787401574803
        },
        {
          "duration": 2.054556000000005,
          "durationTicks": 1315,
          "midi": 58,
          "name": "A#3",
          "ticks": 42240,
          "time": 65.99577599999999,
          "velocity": 0.3937007874015748
        },
        {
          "duration": 2.054556000000005,
          "durationTicks": 1315,
          "midi": 62,
          "name": "D4",
          "ticks": 42240,
          "time": 65.99577599999999,
          "velocity": 0.3937007874015748
        },
        {
          "duration": 0.7812000000000126,
          "durationTicks": 500,
          "midi": 58,
          "name": "A#3",
          "ticks": 43200,
          "time": 67.49568,
          "velocity": 0.6299212598425197
        },
        {
          "duration": 0.7577639999999946,
          "durationTicks": 485,
          "midi": 57,
          "name": "A3",
          "ticks": 43680,
          "time": 68.245632,
          "velocity": 0.6299212598425197
        },
        {
          "duration": 1.4686559999999957,
          "durationTicks": 940,
          "midi": 55,
          "name": "G3",
          "ticks": 44160,
          "time": 68.995584,
          "velocity": 0.5275590551181102
        },
        {
          "duration": 1.4530320000000074,
          "durationTicks": 930,
          "midi": 67,
          "name": "G4",
          "ticks": 44160,
          "time": 68.995584,
          "velocity": 0.6692913385826772
        },
        {
          "duration": 1.4999040000000008,
          "durationTicks": 960,
          "midi": 79,
          "name": "G5",
          "ticks": 44160,
          "time": 68.995584,
          "velocity": 0.4015748031496063
        },
        {
          "duration": 1.3749119999999948,
          "durationTicks": 880,
          "midi": 82,
          "name": "A#5",
          "ticks": 44160,
          "time": 68.995584,
          "velocity": 0.4330708661417323
        },
        {
          "duration": 1.4920919999999995,
          "durationTicks": 955,
          "midi": 53,
          "name": "F3",
          "ticks": 45120,
          "time": 70.495488,
          "velocity": 0.4881889763779528
        },
        {
          "duration": 1.4842799999999983,
          "durationTicks": 950,
          "midi": 69,
          "name": "A4",
          "ticks": 45120,
          "time": 70.495488,
          "velocity": 0.5748031496062992
        },
        {
          "duration": 1.4608440000000087,
          "durationTicks": 935,
          "midi": 81,
          "name": "A5",
          "ticks": 45120,
          "time": 70.495488,
          "velocity": 0.5118110236220472
        },
        {
          "duration": 1.4842799999999983,
          "durationTicks": 950,
          "midi": 51,
          "name": "D#3",
          "ticks": 46080,
          "time": 71.995392,
          "velocity": 0.4881889763779528
        },
        {
          "duration": 1.5623999999999967,
          "durationTicks": 1000,
          "midi": 70,
          "name": "A#4",
          "ticks": 46080,
          "time": 71.995392,
          "velocity": 0.5748031496062992
        },
        {
          "duration": 1.4608440000000087,
          "durationTicks": 935,
          "midi": 79,
          "name": "G5",
          "ticks": 46080,
          "time": 71.995392,
          "velocity": 0.44881889763779526
        },
        {
          "duration": 1.4920919999999995,
          "durationTicks": 955,
          "midi": 82,
          "name": "A#5",
          "ticks": 46080,
          "time": 71.995392,
          "velocity": 0.4645669291338583
        },
        {
          "duration": 1.4920919999999995,
          "durationTicks": 955,
          "midi": 50,
          "name": "D3",
          "ticks": 47040,
          "time": 73.495296,
          "velocity": 0.4881889763779528
        },
        {
          "duration": 1.4999040000000008,
          "durationTicks": 960,
          "midi": 69,
          "name": "A4",
          "ticks": 47040,
          "time": 73.495296,
          "velocity": 0.6220472440944882
        },
        {
          "duration": 1.515527999999989,
          "durationTicks": 970,
          "midi": 77,
          "name": "F5",
          "ticks": 47040,
          "time": 73.495296,
          "velocity": 0.44881889763779526
        },
        {
          "duration": 1.476467999999997,
          "durationTicks": 945,
          "midi": 81,
          "name": "A5",
          "ticks": 47040,
          "time": 73.495296,
          "velocity": 0.4645669291338583
        },
        {
          "duration": 1.4842799999999983,
          "durationTicks": 950,
          "midi": 48,
          "name": "C3",
          "ticks": 48000,
          "time": 74.9952,
          "velocity": 0.49606299212598426
        },
        {
          "duration": 1.4530319999999932,
          "durationTicks": 930,
          "midi": 67,
          "name": "G4",
          "ticks": 48000,
          "time": 74.9952,
          "velocity": 0.6220472440944882
        },
        {
          "duration": 2.882627999999997,
          "durationTicks": 1845,
          "midi": 75,
          "name": "D#5",
          "ticks": 48000,
          "time": 74.9952,
          "velocity": 0.3858267716535433
        },
        {
          "duration": 2.9998080000000016,
          "durationTicks": 1920,
          "midi": 79,
          "name": "G5",
          "ticks": 48000,
          "time": 74.9952,
          "velocity": 0.4645669291338583
        },
        {
          "duration": 7.483896000000001,
          "durationTicks": 4790,
          "midi": 53,
          "name": "F3",
          "ticks": 48960,
          "time": 76.495104,
          "velocity": 0.3779527559055118
        },
        {
          "duration": 1.538963999999993,
          "durationTicks": 985,
          "midi": 63,
          "name": "D#4",
          "ticks": 48960,
          "time": 76.495104,
          "velocity": 0.6220472440944882
        },
        {
          "duration": 6.007428000000004,
          "durationTicks": 3845,
          "midi": 46,
          "name": "A#2",
          "ticks": 49920,
          "time": 77.995008,
          "velocity": 0.4409448818897638
        },
        {
          "duration": 4.390343999999999,
          "durationTicks": 2810,
          "midi": 70,
          "name": "A#4",
          "ticks": 49920,
          "time": 77.995008,
          "velocity": 0.4409448818897638
        },
        {
          "duration": 1.437408000000005,
          "durationTicks": 920,
          "midi": 74,
          "name": "D5",
          "ticks": 49920,
          "time": 77.995008,
          "velocity": 0.4881889763779528
        },
        {
          "duration": 4.484088,
          "durationTicks": 2870,
          "midi": 82,
          "name": "A#5",
          "ticks": 49920,
          "time": 77.995008,
          "velocity": 0.4251968503937008
        },
        {
          "duration": 1.515527999999989,
          "durationTicks": 970,
          "midi": 75,
          "name": "D#5",
          "ticks": 50880,
          "time": 79.494912,
          "velocity": 0.4330708661417323
        },
        {
          "duration": 1.437408000000005,
          "durationTicks": 920,
          "midi": 74,
          "name": "D5",
          "ticks": 51840,
          "time": 80.994816,
          "velocity": 0.4881889763779528
        },
        {
          "duration": 1.5311519999999916,
          "durationTicks": 980,
          "midi": 77,
          "name": "F5",
          "ticks": 51840,
          "time": 80.994816,
          "velocity": 0.4251968503937008
        },
        {
          "duration": 1.3592879999999923,
          "durationTicks": 870,
          "midi": 72,
          "name": "C5",
          "ticks": 52800,
          "time": 82.49472,
          "velocity": 0.4015748031496063
        },
        {
          "duration": 1.4061599999999999,
          "durationTicks": 900,
          "midi": 75,
          "name": "D#5",
          "ticks": 52800,
          "time": 82.49472,
          "velocity": 0.4094488188976378
        },
        {
          "duration": 1.249920000000003,
          "durationTicks": 800,
          "midi": 79,
          "name": "G5",
          "ticks": 52800,
          "time": 82.49472,
          "velocity": 0.4251968503937008
        },
        {
          "duration": 1.4608440000000087,
          "durationTicks": 935,
          "midi": 62,
          "name": "D4",
          "ticks": 53760,
          "time": 83.99462399999999,
          "velocity": 0.31496062992125984
        },
        {
          "duration": 1.11711600000001,
          "durationTicks": 715,
          "midi": 70,
          "name": "A#4",
          "ticks": 53760,
          "time": 83.99462399999999,
          "velocity": 0.3228346456692913
        },
        {
          "duration": 1.4686559999999957,
          "durationTicks": 940,
          "midi": 63,
          "name": "D#4",
          "ticks": 54720,
          "time": 85.49452799999999,
          "velocity": 0.30708661417322836
        },
        {
          "duration": 1.4999040000000008,
          "durationTicks": 960,
          "midi": 65,
          "name": "F4",
          "ticks": 55680,
          "time": 86.99443199999999,
          "velocity": 0.2992125984251969
        },
        {
          "duration": 1.4686559999999957,
          "durationTicks": 940,
          "midi": 63,
          "name": "D#4",
          "ticks": 56640,
          "time": 88.49433599999999,
          "velocity": 0.29133858267716534
        },
        {
          "duration": 1.4608440000000087,
          "durationTicks": 935,
          "midi": 62,
          "name": "D4",
          "ticks": 57600,
          "time": 89.99423999999999,
          "velocity": 0.31496062992125984
        },
        {
          "duration": 1.4686559999999957,
          "durationTicks": 940,
          "midi": 63,
          "name": "D#4",
          "ticks": 58560,
          "time": 91.49414399999999,
          "velocity": 0.30708661417322836
        },
        {
          "duration": 1.4999040000000008,
          "durationTicks": 960,
          "midi": 65,
          "name": "F4",
          "ticks": 59520,
          "time": 92.99404799999999,
          "velocity": 0.2992125984251969
        },
        {
          "duration": 1.4686559999999957,
          "durationTicks": 940,
          "midi": 63,
          "name": "D#4",
          "ticks": 60480,
          "time": 94.493952,
          "velocity": 0.29133858267716534
        },
        {
          "duration": 1.4608439999999945,
          "durationTicks": 935,
          "midi": 62,
          "name": "D4",
          "ticks": 61440,
          "time": 95.993856,
          "velocity": 0.31496062992125984
        },
        {
          "duration": 1.46865600000001,
          "durationTicks": 940,
          "midi": 63,
          "name": "D#4",
          "ticks": 62400,
          "time": 97.49376,
          "velocity": 0.30708661417322836
        },
        {
          "duration": 1.4920919999999995,
          "durationTicks": 955,
          "midi": 65,
          "name": "F4",
          "ticks": 63360,
          "time": 98.993664,
          "velocity": 0.2992125984251969
        },
        {
          "duration": 1.46865600000001,
          "durationTicks": 940,
          "midi": 63,
          "name": "D#4",
          "ticks": 64320,
          "time": 100.493568,
          "velocity": 0.29133858267716534
        },
        {
          "duration": 1.476467999999997,
          "durationTicks": 945,
          "midi": 62,
          "name": "D4",
          "ticks": 65280,
          "time": 101.993472,
          "velocity": 0.31496062992125984
        },
        {
          "duration": 1.4686559999999957,
          "durationTicks": 940,
          "midi": 63,
          "name": "D#4",
          "ticks": 66240,
          "time": 103.493376,
          "velocity": 0.30708661417322836
        },
        {
          "duration": 1.4999040000000008,
          "durationTicks": 960,
          "midi": 65,
          "name": "F4",
          "ticks": 67200,
          "time": 104.99328,
          "velocity": 0.2992125984251969
        },
        {
          "duration": 1.4686559999999957,
          "durationTicks": 940,
          "midi": 63,
          "name": "D#4",
          "ticks": 68160,
          "time": 106.493184,
          "velocity": 0.29133858267716534
        },
        {
          "duration": 2.984183999999999,
          "durationTicks": 1910,
          "midi": 50,
          "name": "D3",
          "ticks": 76800,
          "time": 119.99231999999999,
          "velocity": 0.3700787401574803
        },
        {
          "duration": 2.6092079999999953,
          "durationTicks": 1670,
          "midi": 58,
          "name": "A#3",
          "ticks": 76800,
          "time": 119.99231999999999,
          "velocity": 0.5354330708661418
        },
        {
          "duration": 2.617020000000011,
          "durationTicks": 1675,
          "midi": 62,
          "name": "D4",
          "ticks": 76800,
          "time": 119.99231999999999,
          "velocity": 0.2992125984251969
        },
        {
          "duration": 2.8123199999999997,
          "durationTicks": 1800,
          "midi": 77,
          "name": "F5",
          "ticks": 76800,
          "time": 119.99231999999999,
          "velocity": 0.4251968503937008
        },
        {
          "duration": 7.49951999999999,
          "durationTicks": 4800,
          "midi": 60,
          "name": "C4",
          "ticks": 77760,
          "time": 121.492224,
          "velocity": 0.4881889763779528
        },
        {
          "duration": 5.983991999999986,
          "durationTicks": 3830,
          "midi": 51,
          "name": "D#3",
          "ticks": 78720,
          "time": 122.992128,
          "velocity": 0.4094488188976378
        },
        {
          "duration": 0.1796760000000006,
          "durationTicks": 115,
          "midi": 74,
          "name": "D5",
          "ticks": 78720,
          "time": 122.992128,
          "velocity": 0.4094488188976378
        },
        {
          "duration": 0.1796760000000006,
          "durationTicks": 115,
          "midi": 75,
          "name": "D#5",
          "ticks": 78840,
          "time": 123.179616,
          "velocity": 0.4330708661417323
        },
        {
          "duration": 2.429532000000009,
          "durationTicks": 1555,
          "midi": 63,
          "name": "D#4",
          "ticks": 79080,
          "time": 123.55459199999999,
          "velocity": 0.3779527559055118
        },
        {
          "duration": 2.242044000000007,
          "durationTicks": 1435,
          "midi": 75,
          "name": "D#5",
          "ticks": 79080,
          "time": 123.55459199999999,
          "velocity": 0.4251968503937008
        },
        {
          "duration": 1.476467999999997,
          "durationTicks": 945,
          "midi": 63,
          "name": "D#4",
          "ticks": 80640,
          "time": 125.991936,
          "velocity": 0.4251968503937008
        },
        {
          "duration": 1.476467999999997,
          "durationTicks": 945,
          "midi": 65,
          "name": "F4",
          "ticks": 80640,
          "time": 125.991936,
          "velocity": 0.4409448818897638
        },
        {
          "duration": 1.4764679999999828,
          "durationTicks": 945,
          "midi": 63,
          "name": "D#4",
          "ticks": 81600,
          "time": 127.49184,
          "velocity": 0.4566929133858268
        },
        {
          "duration": 1.484279999999984,
          "durationTicks": 950,
          "midi": 65,
          "name": "F4",
          "ticks": 81600,
          "time": 127.49184,
          "velocity": 0.4566929133858268
        },
        {
          "duration": 2.0467439999999897,
          "durationTicks": 1310,
          "midi": 50,
          "name": "D3",
          "ticks": 82560,
          "time": 128.99174399999998,
          "velocity": 0.4566929133858268
        },
        {
          "duration": 2.0467439999999897,
          "durationTicks": 1310,
          "midi": 58,
          "name": "A#3",
          "ticks": 82560,
          "time": 128.99174399999998,
          "velocity": 0.4566929133858268
        },
        {
          "duration": 2.0545560000000194,
          "durationTicks": 1315,
          "midi": 62,
          "name": "D4",
          "ticks": 82560,
          "time": 128.99174399999998,
          "velocity": 0.4566929133858268
        },
        {
          "duration": 0.7811999999999841,
          "durationTicks": 500,
          "midi": 58,
          "name": "A#3",
          "ticks": 83520,
          "time": 130.491648,
          "velocity": 0.6299212598425197
        },
        {
          "duration": 0.7577639999999803,
          "durationTicks": 485,
          "midi": 57,
          "name": "A3",
          "ticks": 84000,
          "time": 131.2416,
          "velocity": 0.6299212598425197
        },
        {
          "duration": 1.46865600000001,
          "durationTicks": 940,
          "midi": 55,
          "name": "G3",
          "ticks": 84480,
          "time": 131.99155199999998,
          "velocity": 0.5275590551181102
        },
        {
          "duration": 1.4530320000000074,
          "durationTicks": 930,
          "midi": 67,
          "name": "G4",
          "ticks": 84480,
          "time": 131.99155199999998,
          "velocity": 0.6850393700787402
        },
        {
          "duration": 1.5077159999999878,
          "durationTicks": 965,
          "midi": 79,
          "name": "G5",
          "ticks": 84480,
          "time": 131.99155199999998,
          "velocity": 0.41732283464566927
        },
        {
          "duration": 1.3749120000000232,
          "durationTicks": 880,
          "midi": 82,
          "name": "A#5",
          "ticks": 84480,
          "time": 131.99155199999998,
          "velocity": 0.44881889763779526
        },
        {
          "duration": 1.4920919999999853,
          "durationTicks": 955,
          "midi": 53,
          "name": "F3",
          "ticks": 85440,
          "time": 133.491456,
          "velocity": 0.4881889763779528
        },
        {
          "duration": 1.484279999999984,
          "durationTicks": 950,
          "midi": 69,
          "name": "A4",
          "ticks": 85440,
          "time": 133.491456,
          "velocity": 0.5905511811023622
        },
        {
          "duration": 1.4608439999999803,
          "durationTicks": 935,
          "midi": 81,
          "name": "A5",
          "ticks": 85440,
          "time": 133.491456,
          "velocity": 0.5275590551181102
        },
        {
          "duration": 1.484279999999984,
          "durationTicks": 950,
          "midi": 51,
          "name": "D#3",
          "ticks": 86400,
          "time": 134.99136,
          "velocity": 0.4881889763779528
        },
        {
          "duration": 1.5545879999999954,
          "durationTicks": 995,
          "midi": 70,
          "name": "A#4",
          "ticks": 86400,
          "time": 134.99136,
          "velocity": 0.5905511811023622
        },
        {
          "duration": 1.4608440000000087,
          "durationTicks": 935,
          "midi": 79,
          "name": "G5",
          "ticks": 86400,
          "time": 134.99136,
          "velocity": 0.4645669291338583
        },
        {
          "duration": 1.4920920000000137,
          "durationTicks": 955,
          "midi": 82,
          "name": "A#5",
          "ticks": 86400,
          "time": 134.99136,
          "velocity": 0.48031496062992124
        },
        {
          "duration": 1.4999039999999866,
          "durationTicks": 960,
          "midi": 50,
          "name": "D3",
          "ticks": 87360,
          "time": 136.491264,
          "velocity": 0.4881889763779528
        },
        {
          "duration": 1.4999039999999866,
          "durationTicks": 960,
          "midi": 69,
          "name": "A4",
          "ticks": 87360,
          "time": 136.491264,
          "velocity": 0.6377952755905512
        },
        {
          "duration": 1.515527999999989,
          "durationTicks": 970,
          "midi": 77,
          "name": "F5",
          "ticks": 87360,
          "time": 136.491264,
          "velocity": 0.4645669291338583
        },
        {
          "duration": 1.484279999999984,
          "durationTicks": 950,
          "midi": 81,
          "name": "A5",
          "ticks": 87360,
          "time": 136.491264,
          "velocity": 0.48031496062992124
        },
        {
          "duration": 1.484279999999984,
          "durationTicks": 950,
          "midi": 48,
          "name": "C3",
          "ticks": 88320,
          "time": 137.991168,
          "velocity": 0.49606299212598426
        },
        {
          "duration": 1.4530320000000074,
          "durationTicks": 930,
          "midi": 67,
          "name": "G4",
          "ticks": 88320,
          "time": 137.991168,
          "velocity": 0.6377952755905512
        },
        {
          "duration": 2.882628000000011,
          "durationTicks": 1845,
          "midi": 75,
          "name": "D#5",
          "ticks": 88320,
          "time": 137.991168,
          "velocity": 0.4015748031496063
        },
        {
          "duration": 2.9919960000000003,
          "durationTicks": 1915,
          "midi": 79,
          "name": "G5",
          "ticks": 88320,
          "time": 137.991168,
          "velocity": 0.48031496062992124
        },
        {
          "duration": 4.484087999999986,
          "durationTicks": 2870,
          "midi": 53,
          "name": "F3",
          "ticks": 89280,
          "time": 139.491072,
          "velocity": 0.3779527559055118
        },
        {
          "duration": 1.538963999999993,
          "durationTicks": 985,
          "midi": 63,
          "name": "D#4",
          "ticks": 89280,
          "time": 139.491072,
          "velocity": 0.6377952755905512
        },
        {
          "duration": 2.976371999999998,
          "durationTicks": 1905,
          "midi": 46,
          "name": "A#2",
          "ticks": 90240,
          "time": 140.990976,
          "velocity": 0.4409448818897638
        },
        {
          "duration": 2.9998080000000016,
          "durationTicks": 1920,
          "midi": 70,
          "name": "A#4",
          "ticks": 90240,
          "time": 140.990976,
          "velocity": 0.4409448818897638
        },
        {
          "duration": 1.437408000000005,
          "durationTicks": 920,
          "midi": 74,
          "name": "D5",
          "ticks": 90240,
          "time": 140.990976,
          "velocity": 0.4881889763779528
        },
        {
          "duration": 2.9919960000000003,
          "durationTicks": 1915,
          "midi": 77,
          "name": "F5",
          "ticks": 90240,
          "time": 140.990976,
          "velocity": 0.6456692913385826
        },
        {
          "duration": 2.9998080000000016,
          "durationTicks": 1920,
          "midi": 82,
          "name": "A#5",
          "ticks": 90240,
          "time": 140.990976,
          "velocity": 0.4251968503937008
        },
        {
          "duration": 1.5233399999999904,
          "durationTicks": 975,
          "midi": 75,
          "name": "D#5",
          "ticks": 91200,
          "time": 142.49088,
          "velocity": 0.4330708661417323
        },
        {
          "duration": 2.976371999999998,
          "durationTicks": 1905,
          "midi": 60,
          "name": "C4",
          "ticks": 92160,
          "time": 143.990784,
          "velocity": 0.4094488188976378
        },
        {
          "duration": 2.984183999999999,
          "durationTicks": 1910,
          "midi": 63,
          "name": "D#4",
          "ticks": 92160,
          "time": 143.990784,
          "velocity": 0.3937007874015748
        },
        {
          "duration": 2.851380000000006,
          "durationTicks": 1825,
          "midi": 75,
          "name": "D#5",
          "ticks": 92160,
          "time": 143.990784,
          "velocity": 0.5905511811023622
        },
        {
          "duration": 2.4842160000000035,
          "durationTicks": 1590,
          "midi": 80,
          "name": "G#5",
          "ticks": 92160,
          "time": 143.990784,
          "velocity": 0.5905511811023622
        },
        {
          "duration": 0.39841200000000754,
          "durationTicks": 255,
          "midi": 79,
          "name": "G5",
          "ticks": 93840,
          "time": 146.615616,
          "velocity": 0.6062992125984252
        },
        {
          "duration": 2.8357560000000035,
          "durationTicks": 1815,
          "midi": 58,
          "name": "A#3",
          "ticks": 94080,
          "time": 146.990592,
          "velocity": 0.4094488188976378
        },
        {
          "duration": 2.8279440000000022,
          "durationTicks": 1810,
          "midi": 62,
          "name": "D4",
          "ticks": 94080,
          "time": 146.990592,
          "velocity": 0.2992125984251969
        },
        {
          "duration": 3.007620000000003,
          "durationTicks": 1925,
          "midi": 74,
          "name": "D5",
          "ticks": 94080,
          "time": 146.990592,
          "velocity": 0.4645669291338583
        },
        {
          "duration": 2.8591920000000073,
          "durationTicks": 1830,
          "midi": 77,
          "name": "F5",
          "ticks": 94080,
          "time": 146.990592,
          "velocity": 0.5118110236220472
        },
        {
          "duration": 2.9919960000000003,
          "durationTicks": 1915,
          "midi": 60,
          "name": "C4",
          "ticks": 96000,
          "time": 149.9904,
          "velocity": 0.4094488188976378
        },
        {
          "duration": 2.9919960000000003,
          "durationTicks": 1915,
          "midi": 63,
          "name": "D#4",
          "ticks": 96000,
          "time": 149.9904,
          "velocity": 0.3937007874015748
        },
        {
          "duration": 2.8591920000000073,
          "durationTicks": 1830,
          "midi": 75,
          "name": "D#5",
          "ticks": 96000,
          "time": 149.9904,
          "velocity": 0.5433070866141733
        },
        {
          "duration": 2.499840000000006,
          "durationTicks": 1600,
          "midi": 80,
          "name": "G#5",
          "ticks": 96000,
          "time": 149.9904,
          "velocity": 0.5905511811023622
        },
        {
          "duration": 0.39841200000000754,
          "durationTicks": 255,
          "midi": 79,
          "name": "G5",
          "ticks": 97680,
          "time": 152.615232,
          "velocity": 0.6062992125984252
        },
        {
          "duration": 2.8357560000000035,
          "durationTicks": 1815,
          "midi": 58,
          "name": "A#3",
          "ticks": 97920,
          "time": 152.990208,
          "velocity": 0.4094488188976378
        },
        {
          "duration": 2.820132000000001,
          "durationTicks": 1805,
          "midi": 62,
          "name": "D4",
          "ticks": 97920,
          "time": 152.990208,
          "velocity": 0.2992125984251969
        },
        {
          "duration": 2.8357560000000035,
          "durationTicks": 1815,
          "midi": 74,
          "name": "D5",
          "ticks": 97920,
          "time": 152.990208,
          "velocity": 0.4645669291338583
        },
        {
          "duration": 2.8591920000000073,
          "durationTicks": 1830,
          "midi": 77,
          "name": "F5",
          "ticks": 97920,
          "time": 152.990208,
          "velocity": 0.5118110236220472
        },
        {
          "duration": 1.4452200000000062,
          "durationTicks": 925,
          "midi": 58,
          "name": "A#3",
          "ticks": 99840,
          "time": 155.990016,
          "velocity": 0.5984251968503937
        },
        {
          "duration": 1.4061599999999999,
          "durationTicks": 900,
          "midi": 67,
          "name": "G4",
          "ticks": 99840,
          "time": 155.990016,
          "velocity": 0.6377952755905512
        },
        {
          "duration": 1.484279999999984,
          "durationTicks": 950,
          "midi": 79,
          "name": "G5",
          "ticks": 99840,
          "time": 155.990016,
          "velocity": 0.5826771653543307
        },
        {
          "duration": 1.5155280000000175,
          "durationTicks": 970,
          "midi": 57,
          "name": "A3",
          "ticks": 100800,
          "time": 157.48991999999998,
          "velocity": 0.5590551181102362
        },
        {
          "duration": 1.437408000000005,
          "durationTicks": 920,
          "midi": 65,
          "name": "F4",
          "ticks": 100800,
          "time": 157.48991999999998,
          "velocity": 0.5826771653543307
        },
        {
          "duration": 1.4842800000000125,
          "durationTicks": 950,
          "midi": 77,
          "name": "F5",
          "ticks": 100800,
          "time": 157.48991999999998,
          "velocity": 0.5039370078740157
        },
        {
          "duration": 1.4920919999999853,
          "durationTicks": 955,
          "midi": 55,
          "name": "G3",
          "ticks": 101760,
          "time": 158.989824,
          "velocity": 0.5590551181102362
        },
        {
          "duration": 1.4764679999999828,
          "durationTicks": 945,
          "midi": 63,
          "name": "D#4",
          "ticks": 101760,
          "time": 158.989824,
          "velocity": 0.7007874015748031
        },
        {
          "duration": 1.4920919999999853,
          "durationTicks": 955,
          "midi": 79,
          "name": "G5",
          "ticks": 101760,
          "time": 158.989824,
          "velocity": 0.5039370078740157
        },
        {
          "duration": 1.4608440000000087,
          "durationTicks": 935,
          "midi": 53,
          "name": "F3",
          "ticks": 102720,
          "time": 160.48972799999999,
          "velocity": 0.5590551181102362
        },
        {
          "duration": 1.46865600000001,
          "durationTicks": 940,
          "midi": 62,
          "name": "D4",
          "ticks": 102720,
          "time": 160.48972799999999,
          "velocity": 0.5905511811023622
        },
        {
          "duration": 1.5389640000000213,
          "durationTicks": 985,
          "midi": 77,
          "name": "F5",
          "ticks": 102720,
          "time": 160.48972799999999,
          "velocity": 0.4881889763779528
        },
        {
          "duration": 3.1013639999999896,
          "durationTicks": 1985,
          "midi": 51,
          "name": "D#3",
          "ticks": 103680,
          "time": 161.989632,
          "velocity": 0.5118110236220472
        },
        {
          "duration": 2.86700399999998,
          "durationTicks": 1835,
          "midi": 60,
          "name": "C4",
          "ticks": 103680,
          "time": 161.989632,
          "velocity": 0.7244094488188977
        },
        {
          "duration": 2.7810719999999947,
          "durationTicks": 1780,
          "midi": 75,
          "name": "D#5",
          "ticks": 103680,
          "time": 161.989632,
          "velocity": 0.5196850393700787
        },
        {
          "duration": 2.7498239999999896,
          "durationTicks": 1760,
          "midi": 60,
          "name": "C4",
          "ticks": 105600,
          "time": 164.98944,
          "velocity": 0.6141732283464567
        },
        {
          "duration": 2.757635999999991,
          "durationTicks": 1765,
          "midi": 63,
          "name": "D#4",
          "ticks": 105600,
          "time": 164.98944,
          "velocity": 0.4566929133858268
        },
        {
          "duration": 2.9138759999999877,
          "durationTicks": 1865,
          "midi": 63,
          "name": "D#4",
          "ticks": 105600,
          "time": 164.98944,
          "velocity": 0.6141732283464567
        },
        {
          "duration": 1.46865600000001,
          "durationTicks": 940,
          "midi": 62,
          "name": "D4",
          "ticks": 107520,
          "time": 167.98924799999998,
          "velocity": 0.3858267716535433
        },
        {
          "duration": 1.11711600000001,
          "durationTicks": 715,
          "midi": 70,
          "name": "A#4",
          "ticks": 107520,
          "time": 167.98924799999998,
          "velocity": 0.3937007874015748
        },
        {
          "duration": 1.46865600000001,
          "durationTicks": 940,
          "midi": 63,
          "name": "D#4",
          "ticks": 108480,
          "time": 169.489152,
          "velocity": 0.3779527559055118
        },
        {
          "duration": 1.499904000000015,
          "durationTicks": 960,
          "midi": 65,
          "name": "F4",
          "ticks": 109440,
          "time": 170.98905599999998,
          "velocity": 0.3700787401574803
        },
        {
          "duration": 1.46865600000001,
          "durationTicks": 940,
          "midi": 63,
          "name": "D#4",
          "ticks": 110400,
          "time": 172.48896,
          "velocity": 0.36220472440944884
        },
        {
          "duration": 1.4764680000000112,
          "durationTicks": 945,
          "midi": 62,
          "name": "D4",
          "ticks": 111360,
          "time": 173.98886399999998,
          "velocity": 0.3858267716535433
        },
        {
          "duration": 1.46865600000001,
          "durationTicks": 940,
          "midi": 63,
          "name": "D#4",
          "ticks": 112320,
          "time": 175.488768,
          "velocity": 0.3779527559055118
        },
        {
          "duration": 1.499904000000015,
          "durationTicks": 960,
          "midi": 65,
          "name": "F4",
          "ticks": 113280,
          "time": 176.98867199999998,
          "velocity": 0.3700787401574803
        },
        {
          "duration": 1.46865600000001,
          "durationTicks": 940,
          "midi": 63,
          "name": "D#4",
          "ticks": 114240,
          "time": 178.488576,
          "velocity": 0.36220472440944884
        },
        {
          "duration": 11.85080400000001,
          "durationTicks": 7585,
          "midi": 58,
          "name": "A#3",
          "ticks": 115200,
          "time": 179.98847999999998,
          "velocity": 0.28346456692913385
        },
        {
          "duration": 5.812128000000001,
          "durationTicks": 3720,
          "midi": 70,
          "name": "A#4",
          "ticks": 115200,
          "time": 179.98847999999998,
          "velocity": 0.4094488188976378
        },
        {
          "duration": 1.4608439999999803,
          "durationTicks": 935,
          "midi": 75,
          "name": "D#5",
          "ticks": 116160,
          "time": 181.488384,
          "velocity": 0.4566929133858268
        },
        {
          "duration": 1.5155280000000175,
          "durationTicks": 970,
          "midi": 77,
          "name": "F5",
          "ticks": 117120,
          "time": 182.98828799999998,
          "velocity": 0.4094488188976378
        },
        {
          "duration": 1.390535999999969,
          "durationTicks": 890,
          "midi": 75,
          "name": "D#5",
          "ticks": 118080,
          "time": 184.488192,
          "velocity": 0.5039370078740157
        },
        {
          "duration": 5.8199400000000026,
          "durationTicks": 3725,
          "midi": 70,
          "name": "A#4",
          "ticks": 119040,
          "time": 185.98809599999998,
          "velocity": 0.5196850393700787
        },
        {
          "duration": 1.5233399999999904,
          "durationTicks": 975,
          "midi": 75,
          "name": "D#5",
          "ticks": 120000,
          "time": 187.488,
          "velocity": 0.5433070866141733
        },
        {
          "duration": 1.5233399999999904,
          "durationTicks": 975,
          "midi": 77,
          "name": "F5",
          "ticks": 120960,
          "time": 188.987904,
          "velocity": 0.4409448818897638
        },
        {
          "duration": 1.3436639999999898,
          "durationTicks": 860,
          "midi": 75,
          "name": "D#5",
          "ticks": 121920,
          "time": 190.487808,
          "velocity": 0.4409448818897638
        },
        {
          "duration": 3.0154319999999757,
          "durationTicks": 1930,
          "midi": 60,
          "name": "C4",
          "ticks": 126720,
          "time": 197.987328,
          "velocity": 0.4881889763779528
        },
        {
          "duration": 2.991995999999972,
          "durationTicks": 1915,
          "midi": 67,
          "name": "G4",
          "ticks": 126720,
          "time": 197.987328,
          "velocity": 0.4566929133858268
        },
        {
          "duration": 2.820132000000001,
          "durationTicks": 1805,
          "midi": 70,
          "name": "A#4",
          "ticks": 128640,
          "time": 200.987136,
          "velocity": 0.4094488188976378
        },
        {
          "duration": 2.80450799999997,
          "durationTicks": 1795,
          "midi": 75,
          "name": "D#5",
          "ticks": 128640,
          "time": 200.987136,
          "velocity": 0.3858267716535433
        },
        {
          "duration": 2.820132000000001,
          "durationTicks": 1805,
          "midi": 77,
          "name": "F5",
          "ticks": 128640,
          "time": 200.987136,
          "velocity": 0.3779527559055118
        },
        {
          "duration": 2.984183999999999,
          "durationTicks": 1910,
          "midi": 50,
          "name": "D3",
          "ticks": 130560,
          "time": 203.986944,
          "velocity": 0.3700787401574803
        },
        {
          "duration": 2.6092079999999953,
          "durationTicks": 1670,
          "midi": 58,
          "name": "A#3",
          "ticks": 130560,
          "time": 203.986944,
          "velocity": 0.5354330708661418
        },
        {
          "duration": 2.617019999999968,
          "durationTicks": 1675,
          "midi": 62,
          "name": "D4",
          "ticks": 130560,
          "time": 203.986944,
          "velocity": 0.3858267716535433
        },
        {
          "duration": 2.9294999999999902,
          "durationTicks": 1875,
          "midi": 62,
          "name": "D4",
          "ticks": 130560,
          "time": 203.986944,
          "velocity": 0.2992125984251969
        },
        {
          "duration": 2.8123199999999997,
          "durationTicks": 1800,
          "midi": 77,
          "name": "F5",
          "ticks": 130560,
          "time": 203.986944,
          "velocity": 0.4251968503937008
        },
        {
          "duration": 7.499520000000018,
          "durationTicks": 4800,
          "midi": 60,
          "name": "C4",
          "ticks": 131520,
          "time": 205.48684799999998,
          "velocity": 0.4881889763779528
        },
        {
          "duration": 5.983992000000001,
          "durationTicks": 3830,
          "midi": 51,
          "name": "D#3",
          "ticks": 132480,
          "time": 206.986752,
          "velocity": 0.4094488188976378
        },
        {
          "duration": 2.952935999999994,
          "durationTicks": 1890,
          "midi": 63,
          "name": "D#4",
          "ticks": 132480,
          "time": 206.986752,
          "velocity": 0.3858267716535433
        },
        {
          "duration": 0.18748800000000188,
          "durationTicks": 120,
          "midi": 74,
          "name": "D5",
          "ticks": 132480,
          "time": 206.986752,
          "velocity": 0.4094488188976378
        },
        {
          "duration": 0.18748800000000188,
          "durationTicks": 120,
          "midi": 75,
          "name": "D#5",
          "ticks": 132600,
          "time": 207.17424,
          "velocity": 0.4330708661417323
        },
        {
          "duration": 2.4295319999999947,
          "durationTicks": 1555,
          "midi": 63,
          "name": "D#4",
          "ticks": 132840,
          "time": 207.54921599999997,
          "velocity": 0.3779527559055118
        },
        {
          "duration": 2.242043999999993,
          "durationTicks": 1435,
          "midi": 75,
          "name": "D#5",
          "ticks": 132840,
          "time": 207.54921599999997,
          "velocity": 0.4251968503937008
        },
        {
          "duration": 1.4686559999999815,
          "durationTicks": 940,
          "midi": 63,
          "name": "D#4",
          "ticks": 134400,
          "time": 209.98656,
          "velocity": 0.4251968503937008
        },
        {
          "duration": 1.4764679999999828,
          "durationTicks": 945,
          "midi": 65,
          "name": "F4",
          "ticks": 134400,
          "time": 209.98656,
          "velocity": 0.3858267716535433
        },
        {
          "duration": 2.9607479999999953,
          "durationTicks": 1895,
          "midi": 65,
          "name": "F4",
          "ticks": 134400,
          "time": 209.98656,
          "velocity": 0.4409448818897638
        },
        {
          "duration": 1.4842800000000125,
          "durationTicks": 950,
          "midi": 63,
          "name": "D#4",
          "ticks": 135360,
          "time": 211.48646399999998,
          "velocity": 0.4566929133858268
        },
        {
          "duration": 1.4842800000000125,
          "durationTicks": 950,
          "midi": 65,
          "name": "F4",
          "ticks": 135360,
          "time": 211.48646399999998,
          "velocity": 0.4566929133858268
        },
        {
          "duration": 2.0467439999999897,
          "durationTicks": 1310,
          "midi": 50,
          "name": "D3",
          "ticks": 136320,
          "time": 212.986368,
          "velocity": 0.4566929133858268
        },
        {
          "duration": 2.0467439999999897,
          "durationTicks": 1310,
          "midi": 58,
          "name": "A#3",
          "ticks": 136320,
          "time": 212.986368,
          "velocity": 0.4566929133858268
        },
        {
          "duration": 1.3514759999999626,
          "durationTicks": 865,
          "midi": 62,
          "name": "D4",
          "ticks": 136320,
          "time": 212.986368,
          "velocity": 0.3858267716535433
        },
        {
          "duration": 2.0545559999999625,
          "durationTicks": 1315,
          "midi": 62,
          "name": "D4",
          "ticks": 136320,
          "time": 212.986368,
          "velocity": 0.4566929133858268
        },
        {
          "duration": 0.7733880000000113,
          "durationTicks": 495,
          "midi": 58,
          "name": "A#3",
          "ticks": 137280,
          "time": 214.48627199999999,
          "velocity": 0.6535433070866141
        },
        {
          "duration": 0.718703999999974,
          "durationTicks": 460,
          "midi": 57,
          "name": "A3",
          "ticks": 137760,
          "time": 215.236224,
          "velocity": 0.6535433070866141
        },
        {
          "duration": 1.4686559999999815,
          "durationTicks": 940,
          "midi": 55,
          "name": "G3",
          "ticks": 138240,
          "time": 215.986176,
          "velocity": 0.5511811023622047
        },
        {
          "duration": 1.453031999999979,
          "durationTicks": 930,
          "midi": 67,
          "name": "G4",
          "ticks": 138240,
          "time": 215.986176,
          "velocity": 0.7322834645669292
        },
        {
          "duration": 1.5155279999999607,
          "durationTicks": 970,
          "midi": 79,
          "name": "G5",
          "ticks": 138240,
          "time": 215.986176,
          "velocity": 0.4645669291338583
        },
        {
          "duration": 1.3749119999999664,
          "durationTicks": 880,
          "midi": 82,
          "name": "A#5",
          "ticks": 138240,
          "time": 215.986176,
          "velocity": 0.49606299212598426
        },
        {
          "duration": 1.4842800000000125,
          "durationTicks": 950,
          "midi": 53,
          "name": "F3",
          "ticks": 139200,
          "time": 217.48608,
          "velocity": 0.5118110236220472
        },
        {
          "duration": 1.4764680000000112,
          "durationTicks": 945,
          "midi": 69,
          "name": "A4",
          "ticks": 139200,
          "time": 217.48608,
          "velocity": 0.6377952755905512
        },
        {
          "duration": 1.4608440000000087,
          "durationTicks": 935,
          "midi": 81,
          "name": "A5",
          "ticks": 139200,
          "time": 217.48608,
          "velocity": 0.5748031496062992
        },
        {
          "duration": 1.4842800000000125,
          "durationTicks": 950,
          "midi": 51,
          "name": "D#3",
          "ticks": 140160,
          "time": 218.98598399999997,
          "velocity": 0.5118110236220472
        },
        {
          "duration": 1.5545880000000238,
          "durationTicks": 995,
          "midi": 70,
          "name": "A#4",
          "ticks": 140160,
          "time": 218.98598399999997,
          "velocity": 0.6377952755905512
        },
        {
          "duration": 1.4530320000000074,
          "durationTicks": 930,
          "midi": 79,
          "name": "G5",
          "ticks": 140160,
          "time": 218.98598399999997,
          "velocity": 0.5118110236220472
        },
        {
          "duration": 1.4920919999999853,
          "durationTicks": 955,
          "midi": 82,
          "name": "A#5",
          "ticks": 140160,
          "time": 218.98598399999997,
          "velocity": 0.5275590551181102
        },
        {
          "duration": 1.4920919999999853,
          "durationTicks": 955,
          "midi": 50,
          "name": "D3",
          "ticks": 141120,
          "time": 220.485888,
          "velocity": 0.5118110236220472
        },
        {
          "duration": 1.4999039999999866,
          "durationTicks": 960,
          "midi": 69,
          "name": "A4",
          "ticks": 141120,
          "time": 220.485888,
          "velocity": 0.6850393700787402
        },
        {
          "duration": 1.5233399999999904,
          "durationTicks": 975,
          "midi": 77,
          "name": "F5",
          "ticks": 141120,
          "time": 220.485888,
          "velocity": 0.5118110236220472
        },
        {
          "duration": 1.4842800000000125,
          "durationTicks": 950,
          "midi": 81,
          "name": "A5",
          "ticks": 141120,
          "time": 220.485888,
          "velocity": 0.5275590551181102
        },
        {
          "duration": 1.4842800000000125,
          "durationTicks": 950,
          "midi": 48,
          "name": "C3",
          "ticks": 142080,
          "time": 221.98579199999998,
          "velocity": 0.5196850393700787
        },
        {
          "duration": 1.4530320000000074,
          "durationTicks": 930,
          "midi": 67,
          "name": "G4",
          "ticks": 142080,
          "time": 221.98579199999998,
          "velocity": 0.6850393700787402
        },
        {
          "duration": 2.882628000000011,
          "durationTicks": 1845,
          "midi": 75,
          "name": "D#5",
          "ticks": 142080,
          "time": 221.98579199999998,
          "velocity": 0.44881889763779526
        },
        {
          "duration": 2.9998080000000016,
          "durationTicks": 1920,
          "midi": 79,
          "name": "G5",
          "ticks": 142080,
          "time": 221.98579199999998,
          "velocity": 0.5275590551181102
        },
        {
          "duration": 4.476275999999984,
          "durationTicks": 2865,
          "midi": 53,
          "name": "F3",
          "ticks": 143040,
          "time": 223.485696,
          "velocity": 0.4015748031496063
        },
        {
          "duration": 1.538963999999993,
          "durationTicks": 985,
          "midi": 63,
          "name": "D#4",
          "ticks": 143040,
          "time": 223.485696,
          "velocity": 0.6850393700787402
        },
        {
          "duration": 2.9685599999999965,
          "durationTicks": 1900,
          "midi": 46,
          "name": "A#2",
          "ticks": 144000,
          "time": 224.98559999999998,
          "velocity": 0.4645669291338583
        },
        {
          "duration": 2.93731200000002,
          "durationTicks": 1880,
          "midi": 70,
          "name": "A#4",
          "ticks": 144000,
          "time": 224.98559999999998,
          "velocity": 0.4409448818897638
        },
        {
          "duration": 2.898251999999985,
          "durationTicks": 1855,
          "midi": 72,
          "name": "C5",
          "ticks": 144000,
          "time": 224.98559999999998,
          "velocity": 0.3700787401574803
        },
        {
          "duration": 2.9451239999999927,
          "durationTicks": 1885,
          "midi": 74,
          "name": "D5",
          "ticks": 144000,
          "time": 224.98559999999998,
          "velocity": 0.4881889763779528
        },
        {
          "duration": 2.9998080000000016,
          "durationTicks": 1920,
          "midi": 77,
          "name": "F5",
          "ticks": 144000,
          "time": 224.98559999999998,
          "velocity": 0.4251968503937008
        },
        {
          "duration": 2.9919960000000003,
          "durationTicks": 1915,
          "midi": 82,
          "name": "A#5",
          "ticks": 144000,
          "time": 224.98559999999998,
          "velocity": 0.4251968503937008
        },
        {
          "duration": 2.9841840000000275,
          "durationTicks": 1910,
          "midi": 52,
          "name": "E3",
          "ticks": 145920,
          "time": 227.98540799999998,
          "velocity": 0.4330708661417323
        },
        {
          "duration": 2.6092080000000237,
          "durationTicks": 1670,
          "midi": 60,
          "name": "C4",
          "ticks": 145920,
          "time": 227.98540799999998,
          "velocity": 0.5984251968503937
        },
        {
          "duration": 2.6092080000000237,
          "durationTicks": 1670,
          "midi": 64,
          "name": "E4",
          "ticks": 145920,
          "time": 227.98540799999998,
          "velocity": 0.4251968503937008
        },
        {
          "duration": 2.93731200000002,
          "durationTicks": 1880,
          "midi": 64,
          "name": "E4",
          "ticks": 145920,
          "time": 227.98540799999998,
          "velocity": 0.36220472440944884
        },
        {
          "duration": 2.788883999999996,
          "durationTicks": 1785,
          "midi": 76,
          "name": "E5",
          "ticks": 145920,
          "time": 227.98540799999998,
          "velocity": 0.6535433070866141
        },
        {
          "duration": 2.8045079999999984,
          "durationTicks": 1795,
          "midi": 79,
          "name": "G5",
          "ticks": 145920,
          "time": 227.98540799999998,
          "velocity": 0.4881889763779528
        },
        {
          "duration": 7.49951999999999,
          "durationTicks": 4800,
          "midi": 62,
          "name": "D4",
          "ticks": 146880,
          "time": 229.485312,
          "velocity": 0.5511811023622047
        },
        {
          "duration": 5.983992000000029,
          "durationTicks": 3830,
          "midi": 53,
          "name": "F3",
          "ticks": 147840,
          "time": 230.98521599999998,
          "velocity": 0.47244094488188976
        },
        {
          "duration": 2.952935999999994,
          "durationTicks": 1890,
          "midi": 65,
          "name": "F4",
          "ticks": 147840,
          "time": 230.98521599999998,
          "velocity": 0.4251968503937008
        },
        {
          "duration": 0.18748800000000188,
          "durationTicks": 120,
          "midi": 76,
          "name": "E5",
          "ticks": 147840,
          "time": 230.98521599999998,
          "velocity": 0.5984251968503937
        },
        {
          "duration": 0.1796760000000006,
          "durationTicks": 115,
          "midi": 77,
          "name": "F5",
          "ticks": 147960,
          "time": 231.17270399999998,
          "velocity": 0.6141732283464567
        },
        {
          "duration": 2.4295319999999947,
          "durationTicks": 1555,
          "midi": 65,
          "name": "F4",
          "ticks": 148200,
          "time": 231.54767999999999,
          "velocity": 0.4409448818897638
        },
        {
          "duration": 2.1482999999999777,
          "durationTicks": 1375,
          "midi": 77,
          "name": "F5",
          "ticks": 148200,
          "time": 231.54767999999999,
          "velocity": 0.6692913385826772
        },
        {
          "duration": 0.37497599999997533,
          "durationTicks": 240,
          "midi": 86,
          "name": "D6",
          "ticks": 149040,
          "time": 232.860096,
          "velocity": 0.5826771653543307
        },
        {
          "duration": 0.37497600000000375,
          "durationTicks": 240,
          "midi": 88,
          "name": "E6",
          "ticks": 149280,
          "time": 233.23507199999997,
          "velocity": 0.5669291338582677
        },
        {
          "duration": 0.37497600000000375,
          "durationTicks": 240,
          "midi": 89,
          "name": "F6",
          "ticks": 149520,
          "time": 233.61004799999998,
          "velocity": 0.7244094488188977
        },
        {
          "duration": 1.4842800000000125,
          "durationTicks": 950,
          "midi": 65,
          "name": "F4",
          "ticks": 149760,
          "time": 233.98502399999998,
          "velocity": 0.4881889763779528
        },
        {
          "duration": 1.4842800000000125,
          "durationTicks": 950,
          "midi": 67,
          "name": "G4",
          "ticks": 149760,
          "time": 233.98502399999998,
          "velocity": 0.48031496062992124
        },
        {
          "duration": 2.9607480000000237,
          "durationTicks": 1895,
          "midi": 67,
          "name": "G4",
          "ticks": 149760,
          "time": 233.98502399999998,
          "velocity": 0.5039370078740157
        },
        {
          "duration": 2.242043999999993,
          "durationTicks": 1435,
          "midi": 91,
          "name": "G6",
          "ticks": 149760,
          "time": 233.98502399999998,
          "velocity": 0.6850393700787402
        },
        {
          "duration": 1.4999039999999866,
          "durationTicks": 960,
          "midi": 65,
          "name": "F4",
          "ticks": 150720,
          "time": 235.484928,
          "velocity": 0.5196850393700787
        },
        {
          "duration": 1.4999039999999866,
          "durationTicks": 960,
          "midi": 67,
          "name": "G4",
          "ticks": 150720,
          "time": 235.484928,
          "velocity": 0.5196850393700787
        },
        {
          "duration": 1.1249280000000113,
          "durationTicks": 720,
          "midi": 89,
          "name": "F6",
          "ticks": 151200,
          "time": 236.23487999999998,
          "velocity": 0.5826771653543307
        },
        {
          "duration": 2.046744000000018,
          "durationTicks": 1310,
          "midi": 52,
          "name": "E3",
          "ticks": 151680,
          "time": 236.98483199999998,
          "velocity": 0.5196850393700787
        },
        {
          "duration": 2.046744000000018,
          "durationTicks": 1310,
          "midi": 60,
          "name": "C4",
          "ticks": 151680,
          "time": 236.98483199999998,
          "velocity": 0.5196850393700787
        },
        {
          "duration": 1.351475999999991,
          "durationTicks": 865,
          "midi": 64,
          "name": "E4",
          "ticks": 151680,
          "time": 236.98483199999998,
          "velocity": 0.4251968503937008
        },
        {
          "duration": 2.046744000000018,
          "durationTicks": 1310,
          "midi": 64,
          "name": "E4",
          "ticks": 151680,
          "time": 236.98483199999998,
          "velocity": 0.5196850393700787
        },
        {
          "duration": 1.9686240000000055,
          "durationTicks": 1260,
          "midi": 88,
          "name": "E6",
          "ticks": 151920,
          "time": 237.359808,
          "velocity": 0.5354330708661418
        },
        {
          "duration": 0.7812000000000126,
          "durationTicks": 500,
          "midi": 60,
          "name": "C4",
          "ticks": 152640,
          "time": 238.484736,
          "velocity": 0.7795275590551181
        },
        {
          "duration": 0.7265160000000037,
          "durationTicks": 465,
          "midi": 59,
          "name": "B3",
          "ticks": 153120,
          "time": 239.23468799999998,
          "velocity": 0.7559055118110236
        },
        {
          "duration": 1.4686559999999815,
          "durationTicks": 940,
          "midi": 57,
          "name": "A3",
          "ticks": 153600,
          "time": 239.98463999999998,
          "velocity": 0.6850393700787402
        },
        {
          "duration": 1.4530320000000074,
          "durationTicks": 930,
          "midi": 69,
          "name": "A4",
          "ticks": 153600,
          "time": 239.98463999999998,
          "velocity": 0.7952755905511811
        },
        {
          "duration": 1.5077160000000163,
          "durationTicks": 965,
          "midi": 81,
          "name": "A5",
          "ticks": 153600,
          "time": 239.98463999999998,
          "velocity": 0.5275590551181102
        },
        {
          "duration": 1.3749119999999948,
          "durationTicks": 880,
          "midi": 84,
          "name": "C6",
          "ticks": 153600,
          "time": 239.98463999999998,
          "velocity": 0.5590551181102362
        },
        {
          "duration": 1.4920919999999853,
          "durationTicks": 955,
          "midi": 55,
          "name": "G3",
          "ticks": 154560,
          "time": 241.48454399999997,
          "velocity": 0.5511811023622047
        },
        {
          "duration": 1.484280000000041,
          "durationTicks": 950,
          "midi": 71,
          "name": "B4",
          "ticks": 154560,
          "time": 241.48454399999997,
          "velocity": 0.7007874015748031
        },
        {
          "duration": 1.4608440000000371,
          "durationTicks": 935,
          "midi": 83,
          "name": "B5",
          "ticks": 154560,
          "time": 241.48454399999997,
          "velocity": 0.6377952755905512
        },
        {
          "duration": 1.4842800000000125,
          "durationTicks": 950,
          "midi": 53,
          "name": "F3",
          "ticks": 155520,
          "time": 242.984448,
          "velocity": 0.5511811023622047
        },
        {
          "duration": 1.5545880000000238,
          "durationTicks": 995,
          "midi": 72,
          "name": "C5",
          "ticks": 155520,
          "time": 242.984448,
          "velocity": 0.7007874015748031
        },
        {
          "duration": 1.4530320000000074,
          "durationTicks": 930,
          "midi": 81,
          "name": "A5",
          "ticks": 155520,
          "time": 242.984448,
          "velocity": 0.5748031496062992
        },
        {
          "duration": 1.4920919999999853,
          "durationTicks": 955,
          "midi": 84,
          "name": "C6",
          "ticks": 155520,
          "time": 242.984448,
          "velocity": 0.5905511811023622
        },
        {
          "duration": 1.499904000000015,
          "durationTicks": 960,
          "midi": 52,
          "name": "E3",
          "ticks": 156480,
          "time": 244.48435199999997,
          "velocity": 0.5511811023622047
        },
        {
          "duration": 1.499904000000015,
          "durationTicks": 960,
          "midi": 71,
          "name": "B4",
          "ticks": 156480,
          "time": 244.48435199999997,
          "velocity": 0.7480314960629921
        },
        {
          "duration": 1.5233400000000188,
          "durationTicks": 975,
          "midi": 79,
          "name": "G5",
          "ticks": 156480,
          "time": 244.48435199999997,
          "velocity": 0.5748031496062992
        },
        {
          "duration": 1.4920919999999853,
          "durationTicks": 955,
          "midi": 83,
          "name": "B5",
          "ticks": 156480,
          "time": 244.48435199999997,
          "velocity": 0.5905511811023622
        },
        {
          "duration": 1.4842800000000125,
          "durationTicks": 950,
          "midi": 50,
          "name": "D3",
          "ticks": 157440,
          "time": 245.984256,
          "velocity": 0.5590551181102362
        },
        {
          "duration": 1.4530320000000074,
          "durationTicks": 930,
          "midi": 69,
          "name": "A4",
          "ticks": 157440,
          "time": 245.984256,
          "velocity": 0.7480314960629921
        },
        {
          "duration": 2.8748159999999814,
          "durationTicks": 1840,
          "midi": 77,
          "name": "F5",
          "ticks": 157440,
          "time": 245.984256,
          "velocity": 0.5118110236220472
        },
        {
          "duration": 2.991995999999972,
          "durationTicks": 1915,
          "midi": 81,
          "name": "A5",
          "ticks": 157440,
          "time": 245.984256,
          "velocity": 0.5905511811023622
        },
        {
          "duration": 4.476276000000013,
          "durationTicks": 2865,
          "midi": 55,
          "name": "G3",
          "ticks": 158400,
          "time": 247.48415999999997,
          "velocity": 0.4409448818897638
        },
        {
          "duration": 1.5467760000000226,
          "durationTicks": 990,
          "midi": 65,
          "name": "F4",
          "ticks": 158400,
          "time": 247.48415999999997,
          "velocity": 0.7480314960629921
        },
        {
          "duration": 2.968559999999968,
          "durationTicks": 1900,
          "midi": 48,
          "name": "C3",
          "ticks": 159360,
          "time": 248.984064,
          "velocity": 0.5039370078740157
        },
        {
          "duration": 2.93731200000002,
          "durationTicks": 1880,
          "midi": 72,
          "name": "C5",
          "ticks": 159360,
          "time": 248.984064,
          "velocity": 0.5039370078740157
        },
        {
          "duration": 2.898251999999985,
          "durationTicks": 1855,
          "midi": 74,
          "name": "D5",
          "ticks": 159360,
          "time": 248.984064,
          "velocity": 0.4330708661417323
        },
        {
          "duration": 2.9294999999999902,
          "durationTicks": 1875,
          "midi": 76,
          "name": "E5",
          "ticks": 159360,
          "time": 248.984064,
          "velocity": 0.5511811023622047
        },
        {
          "duration": 2.9998080000000016,
          "durationTicks": 1920,
          "midi": 79,
          "name": "G5",
          "ticks": 159360,
          "time": 248.984064,
          "velocity": 0.4881889763779528
        },
        {
          "duration": 2.991995999999972,
          "durationTicks": 1915,
          "midi": 84,
          "name": "C6",
          "ticks": 159360,
          "time": 248.984064,
          "velocity": 0.4881889763779528
        },
        {
          "duration": 2.976371999999998,
          "durationTicks": 1905,
          "midi": 54,
          "name": "F#3",
          "ticks": 161280,
          "time": 251.983872,
          "velocity": 0.4330708661417323
        },
        {
          "duration": 2.6092079999999953,
          "durationTicks": 1670,
          "midi": 62,
          "name": "D4",
          "ticks": 161280,
          "time": 251.983872,
          "velocity": 0.5984251968503937
        },
        {
          "duration": 2.6092079999999953,
          "durationTicks": 1670,
          "midi": 66,
          "name": "F#4",
          "ticks": 161280,
          "time": 251.983872,
          "velocity": 0.48031496062992124
        },
        {
          "duration": 2.93731200000002,
          "durationTicks": 1880,
          "midi": 66,
          "name": "F#4",
          "ticks": 161280,
          "time": 251.983872,
          "velocity": 0.36220472440944884
        },
        {
          "duration": 2.788883999999996,
          "durationTicks": 1785,
          "midi": 78,
          "name": "F#5",
          "ticks": 161280,
          "time": 251.983872,
          "velocity": 0.6535433070866141
        },
        {
          "duration": 2.80450799999997,
          "durationTicks": 1795,
          "midi": 81,
          "name": "A5",
          "ticks": 161280,
          "time": 251.983872,
          "velocity": 0.4881889763779528
        },
        {
          "duration": 7.499520000000018,
          "durationTicks": 4800,
          "midi": 64,
          "name": "E4",
          "ticks": 162240,
          "time": 253.48377599999998,
          "velocity": 0.5511811023622047
        },
        {
          "duration": 5.991804000000002,
          "durationTicks": 3835,
          "midi": 55,
          "name": "G3",
          "ticks": 163200,
          "time": 254.98368,
          "velocity": 0.47244094488188976
        },
        {
          "duration": 2.9529359999999656,
          "durationTicks": 1890,
          "midi": 67,
          "name": "G4",
          "ticks": 163200,
          "time": 254.98368,
          "velocity": 0.48031496062992124
        },
        {
          "duration": 0.1796759999999722,
          "durationTicks": 115,
          "midi": 78,
          "name": "F#5",
          "ticks": 163200,
          "time": 254.98368,
          "velocity": 0.5984251968503937
        },
        {
          "duration": 0.18748800000000188,
          "durationTicks": 120,
          "midi": 79,
          "name": "G5",
          "ticks": 163320,
          "time": 255.171168,
          "velocity": 0.6141732283464567
        },
        {
          "duration": 2.4295319999999947,
          "durationTicks": 1555,
          "midi": 67,
          "name": "G4",
          "ticks": 163560,
          "time": 255.54614399999997,
          "velocity": 0.4409448818897638
        },
        {
          "duration": 2.1561120000000074,
          "durationTicks": 1380,
          "midi": 79,
          "name": "G5",
          "ticks": 163560,
          "time": 255.54614399999997,
          "velocity": 0.6692913385826772
        },
        {
          "duration": 0.3749759999999469,
          "durationTicks": 240,
          "midi": 88,
          "name": "E6",
          "ticks": 164400,
          "time": 256.85856,
          "velocity": 0.5826771653543307
        },
        {
          "duration": 0.37497600000000375,
          "durationTicks": 240,
          "midi": 90,
          "name": "F#6",
          "ticks": 164640,
          "time": 257.23353599999996,
          "velocity": 0.5669291338582677
        },
        {
          "duration": 0.37497600000000375,
          "durationTicks": 240,
          "midi": 91,
          "name": "G6",
          "ticks": 164880,
          "time": 257.60851199999996,
          "velocity": 0.7244094488188977
        },
        {
          "duration": 1.4842800000000125,
          "durationTicks": 950,
          "midi": 67,
          "name": "G4",
          "ticks": 165120,
          "time": 257.98348799999997,
          "velocity": 0.4881889763779528
        },
        {
          "duration": 1.4842800000000125,
          "durationTicks": 950,
          "midi": 69,
          "name": "A4",
          "ticks": 165120,
          "time": 257.98348799999997,
          "velocity": 0.5354330708661418
        },
        {
          "duration": 2.9607480000000237,
          "durationTicks": 1895,
          "midi": 69,
          "name": "A4",
          "ticks": 165120,
          "time": 257.98348799999997,
          "velocity": 0.5039370078740157
        },
        {
          "duration": 2.23423200000002,
          "durationTicks": 1430,
          "midi": 93,
          "name": "A6",
          "ticks": 165120,
          "time": 257.98348799999997,
          "velocity": 0.6850393700787402
        },
        {
          "duration": 1.499904000000015,
          "durationTicks": 960,
          "midi": 67,
          "name": "G4",
          "ticks": 166080,
          "time": 259.483392,
          "velocity": 0.5196850393700787
        },
        {
          "duration": 1.499904000000015,
          "durationTicks": 960,
          "midi": 69,
          "name": "A4",
          "ticks": 166080,
          "time": 259.483392,
          "velocity": 0.5196850393700787
        },
        {
          "duration": 1.1171159999999531,
          "durationTicks": 715,
          "midi": 91,
          "name": "G6",
          "ticks": 166560,
          "time": 260.233344,
          "velocity": 0.5826771653543307
        },
        {
          "duration": 2.0389319999999884,
          "durationTicks": 1305,
          "midi": 54,
          "name": "F#3",
          "ticks": 167040,
          "time": 260.983296,
          "velocity": 0.5196850393700787
        },
        {
          "duration": 2.0467439999999897,
          "durationTicks": 1310,
          "midi": 62,
          "name": "D4",
          "ticks": 167040,
          "time": 260.983296,
          "velocity": 0.5196850393700787
        },
        {
          "duration": 1.3592879999999923,
          "durationTicks": 870,
          "midi": 66,
          "name": "F#4",
          "ticks": 167040,
          "time": 260.983296,
          "velocity": 0.48031496062992124
        },
        {
          "duration": 2.0467439999999897,
          "durationTicks": 1310,
          "midi": 66,
          "name": "F#4",
          "ticks": 167040,
          "time": 260.983296,
          "velocity": 0.5196850393700787
        },
        {
          "duration": 1.9608119999999758,
          "durationTicks": 1255,
          "midi": 90,
          "name": "F#6",
          "ticks": 167280,
          "time": 261.358272,
          "velocity": 0.5354330708661418
        },
        {
          "duration": 0.7812000000000126,
          "durationTicks": 500,
          "midi": 62,
          "name": "D4",
          "ticks": 168000,
          "time": 262.4832,
          "velocity": 0.8267716535433071
        },
        {
          "duration": 0.7187040000000025,
          "durationTicks": 460,
          "midi": 61,
          "name": "C#4",
          "ticks": 168480,
          "time": 263.23315199999996,
          "velocity": 0.8110236220472441
        },
        {
          "duration": 1.46865600000001,
          "durationTicks": 940,
          "midi": 59,
          "name": "B3",
          "ticks": 168960,
          "time": 263.98310399999997,
          "velocity": 0.7401574803149606
        },
        {
          "duration": 1.4530320000000074,
          "durationTicks": 930,
          "midi": 71,
          "name": "B4",
          "ticks": 168960,
          "time": 263.98310399999997,
          "velocity": 0.7952755905511811
        },
        {
          "duration": 1.499904000000015,
          "durationTicks": 960,
          "midi": 83,
          "name": "B5",
          "ticks": 168960,
          "time": 263.98310399999997,
          "velocity": 0.5275590551181102
        },
        {
          "duration": 1.3671000000000504,
          "durationTicks": 875,
          "midi": 86,
          "name": "D6",
          "ticks": 168960,
          "time": 263.98310399999997,
          "velocity": 0.5590551181102362
        },
        {
          "duration": 1.492091999999957,
          "durationTicks": 955,
          "midi": 57,
          "name": "A3",
          "ticks": 169920,
          "time": 265.483008,
          "velocity": 0.6062992125984252
        },
        {
          "duration": 1.4842800000000125,
          "durationTicks": 950,
          "midi": 73,
          "name": "C#5",
          "ticks": 169920,
          "time": 265.483008,
          "velocity": 0.7007874015748031
        },
        {
          "duration": 1.46865600000001,
          "durationTicks": 940,
          "midi": 85,
          "name": "C#6",
          "ticks": 169920,
          "time": 265.483008,
          "velocity": 0.6377952755905512
        },
        {
          "duration": 1.4842800000000125,
          "durationTicks": 950,
          "midi": 55,
          "name": "G3",
          "ticks": 170880,
          "time": 266.982912,
          "velocity": 0.6062992125984252
        },
        {
          "duration": 1.5623999999999683,
          "durationTicks": 1000,
          "midi": 74,
          "name": "D5",
          "ticks": 170880,
          "time": 266.982912,
          "velocity": 0.7007874015748031
        },
        {
          "duration": 1.4608440000000087,
          "durationTicks": 935,
          "midi": 83,
          "name": "B5",
          "ticks": 170880,
          "time": 266.982912,
          "velocity": 0.5748031496062992
        },
        {
          "duration": 1.492091999999957,
          "durationTicks": 955,
          "midi": 86,
          "name": "D6",
          "ticks": 170880,
          "time": 266.982912,
          "velocity": 0.5905511811023622
        },
        {
          "duration": 1.499904000000015,
          "durationTicks": 960,
          "midi": 54,
          "name": "F#3",
          "ticks": 171840,
          "time": 268.48281599999996,
          "velocity": 0.6062992125984252
        },
        {
          "duration": 1.499904000000015,
          "durationTicks": 960,
          "midi": 73,
          "name": "C#5",
          "ticks": 171840,
          "time": 268.48281599999996,
          "velocity": 0.7480314960629921
        },
        {
          "duration": 1.5155280000000175,
          "durationTicks": 970,
          "midi": 81,
          "name": "A5",
          "ticks": 171840,
          "time": 268.48281599999996,
          "velocity": 0.5748031496062992
        },
        {
          "duration": 1.4842800000000125,
          "durationTicks": 950,
          "midi": 85,
          "name": "C#6",
          "ticks": 171840,
          "time": 268.48281599999996,
          "velocity": 0.5905511811023622
        },
        {
          "duration": 1.4842800000000125,
          "durationTicks": 950,
          "midi": 52,
          "name": "E3",
          "ticks": 172800,
          "time": 269.98272,
          "velocity": 0.6141732283464567
        },
        {
          "duration": 1.4530320000000074,
          "durationTicks": 930,
          "midi": 71,
          "name": "B4",
          "ticks": 172800,
          "time": 269.98272,
          "velocity": 0.7480314960629921
        },
        {
          "duration": 2.882628000000011,
          "durationTicks": 1845,
          "midi": 79,
          "name": "G5",
          "ticks": 172800,
          "time": 269.98272,
          "velocity": 0.5118110236220472
        },
        {
          "duration": 2.991995999999972,
          "durationTicks": 1915,
          "midi": 83,
          "name": "B5",
          "ticks": 172800,
          "time": 269.98272,
          "velocity": 0.5905511811023622
        },
        {
          "duration": 2.9841840000000275,
          "durationTicks": 1910,
          "midi": 57,
          "name": "A3",
          "ticks": 173760,
          "time": 271.482624,
          "velocity": 0.49606299212598426
        },
        {
          "duration": 1.5077160000000163,
          "durationTicks": 965,
          "midi": 67,
          "name": "G4",
          "ticks": 173760,
          "time": 271.482624,
          "velocity": 0.7480314960629921
        },
        {
          "duration": 1.468655999999953,
          "durationTicks": 940,
          "midi": 50,
          "name": "D3",
          "ticks": 174720,
          "time": 272.982528,
          "velocity": 0.5590551181102362
        },
        {
          "duration": 2.4217199999999934,
          "durationTicks": 1550,
          "midi": 74,
          "name": "D5",
          "ticks": 174720,
          "time": 272.982528,
          "velocity": 0.5039370078740157
        },
        {
          "duration": 2.429531999999938,
          "durationTicks": 1555,
          "midi": 76,
          "name": "E5",
          "ticks": 174720,
          "time": 272.982528,
          "velocity": 0.4330708661417323
        },
        {
          "duration": 2.4217199999999934,
          "durationTicks": 1550,
          "midi": 78,
          "name": "F#5",
          "ticks": 174720,
          "time": 272.982528,
          "velocity": 0.5511811023622047
        },
        {
          "duration": 2.4217199999999934,
          "durationTicks": 1550,
          "midi": 81,
          "name": "A5",
          "ticks": 174720,
          "time": 272.982528,
          "velocity": 0.4881889763779528
        },
        {
          "duration": 2.429531999999938,
          "durationTicks": 1555,
          "midi": 86,
          "name": "D6",
          "ticks": 174720,
          "time": 272.982528,
          "velocity": 0.4881889763779528
        },
        {
          "duration": 0.710892000000058,
          "durationTicks": 455,
          "midi": 62,
          "name": "D4",
          "ticks": 175680,
          "time": 274.48243199999996,
          "velocity": 0.8110236220472441
        },
        {
          "duration": 0.7187040000000025,
          "durationTicks": 460,
          "midi": 61,
          "name": "C#4",
          "ticks": 176160,
          "time": 275.23238399999997,
          "velocity": 0.8110236220472441
        },
        {
          "duration": 1.46865600000001,
          "durationTicks": 940,
          "midi": 59,
          "name": "B3",
          "ticks": 176640,
          "time": 275.982336,
          "velocity": 0.7401574803149606
        },
        {
          "duration": 1.4920920000000137,
          "durationTicks": 955,
          "midi": 71,
          "name": "B4",
          "ticks": 176640,
          "time": 275.982336,
          "velocity": 0.7952755905511811
        },
        {
          "duration": 1.4920920000000137,
          "durationTicks": 955,
          "midi": 83,
          "name": "B5",
          "ticks": 176640,
          "time": 275.982336,
          "velocity": 0.5275590551181102
        },
        {
          "duration": 1.3046039999999834,
          "durationTicks": 835,
          "midi": 86,
          "name": "D6",
          "ticks": 176640,
          "time": 275.982336,
          "velocity": 0.5590551181102362
        },
        {
          "duration": 1.4842800000000125,
          "durationTicks": 950,
          "midi": 57,
          "name": "A3",
          "ticks": 177600,
          "time": 277.48224,
          "velocity": 0.6062992125984252
        },
        {
          "duration": 1.499904000000015,
          "durationTicks": 960,
          "midi": 73,
          "name": "C#5",
          "ticks": 177600,
          "time": 277.48224,
          "velocity": 0.7007874015748031
        },
        {
          "duration": 1.499904000000015,
          "durationTicks": 960,
          "midi": 85,
          "name": "C#6",
          "ticks": 177600,
          "time": 277.48224,
          "velocity": 0.6377952755905512
        },
        {
          "duration": 1.4842800000000125,
          "durationTicks": 950,
          "midi": 55,
          "name": "G3",
          "ticks": 178560,
          "time": 278.982144,
          "velocity": 0.6062992125984252
        },
        {
          "duration": 1.4999039999999582,
          "durationTicks": 960,
          "midi": 74,
          "name": "D5",
          "ticks": 178560,
          "time": 278.982144,
          "velocity": 0.7007874015748031
        },
        {
          "duration": 1.492091999999957,
          "durationTicks": 955,
          "midi": 83,
          "name": "B5",
          "ticks": 178560,
          "time": 278.982144,
          "velocity": 0.5748031496062992
        },
        {
          "duration": 1.492091999999957,
          "durationTicks": 955,
          "midi": 86,
          "name": "D6",
          "ticks": 178560,
          "time": 278.982144,
          "velocity": 0.5905511811023622
        },
        {
          "duration": 1.499904000000015,
          "durationTicks": 960,
          "midi": 54,
          "name": "F#3",
          "ticks": 179520,
          "time": 280.48204799999996,
          "velocity": 0.6062992125984252
        },
        {
          "duration": 1.499904000000015,
          "durationTicks": 960,
          "midi": 73,
          "name": "C#5",
          "ticks": 179520,
          "time": 280.48204799999996,
          "velocity": 0.7480314960629921
        },
        {
          "duration": 1.4920920000000137,
          "durationTicks": 955,
          "midi": 81,
          "name": "A5",
          "ticks": 179520,
          "time": 280.48204799999996,
          "velocity": 0.5748031496062992
        },
        {
          "duration": 1.4920920000000137,
          "durationTicks": 955,
          "midi": 85,
          "name": "C#6",
          "ticks": 179520,
          "time": 280.48204799999996,
          "velocity": 0.5905511811023622
        },
        {
          "duration": 1.4842800000000125,
          "durationTicks": 950,
          "midi": 52,
          "name": "E3",
          "ticks": 180480,
          "time": 281.981952,
          "velocity": 0.6141732283464567
        },
        {
          "duration": 1.4920920000000137,
          "durationTicks": 955,
          "midi": 71,
          "name": "B4",
          "ticks": 180480,
          "time": 281.981952,
          "velocity": 0.7480314960629921
        },
        {
          "duration": 2.8045079999999984,
          "durationTicks": 1795,
          "midi": 79,
          "name": "G5",
          "ticks": 180480,
          "time": 281.981952,
          "velocity": 0.5118110236220472
        },
        {
          "duration": 2.991995999999972,
          "durationTicks": 1915,
          "midi": 83,
          "name": "B5",
          "ticks": 180480,
          "time": 281.981952,
          "velocity": 0.5905511811023622
        },
        {
          "duration": 2.9841840000000275,
          "durationTicks": 1910,
          "midi": 57,
          "name": "A3",
          "ticks": 181440,
          "time": 283.481856,
          "velocity": 0.49606299212598426
        },
        {
          "duration": 1.499904000000015,
          "durationTicks": 960,
          "midi": 67,
          "name": "G4",
          "ticks": 181440,
          "time": 283.481856,
          "velocity": 0.7480314960629921
        },
        {
          "duration": 1.468655999999953,
          "durationTicks": 940,
          "midi": 50,
          "name": "D3",
          "ticks": 182400,
          "time": 284.98176,
          "velocity": 0.5590551181102362
        },
        {
          "duration": 2.617019999999968,
          "durationTicks": 1675,
          "midi": 74,
          "name": "D5",
          "ticks": 182400,
          "time": 284.98176,
          "velocity": 0.5039370078740157
        },
        {
          "duration": 2.609207999999967,
          "durationTicks": 1670,
          "midi": 78,
          "name": "F#5",
          "ticks": 182400,
          "time": 284.98176,
          "velocity": 0.5511811023622047
        },
        {
          "duration": 2.617019999999968,
          "durationTicks": 1675,
          "midi": 81,
          "name": "A5",
          "ticks": 182400,
          "time": 284.98176,
          "velocity": 0.4881889763779528
        },
        {
          "duration": 2.617019999999968,
          "durationTicks": 1675,
          "midi": 86,
          "name": "D6",
          "ticks": 182400,
          "time": 284.98176,
          "velocity": 0.4881889763779528
        },
        {
          "duration": 0.7108920000000012,
          "durationTicks": 455,
          "midi": 62,
          "name": "D4",
          "ticks": 183360,
          "time": 286.48166399999997,
          "velocity": 0.8110236220472441
        },
        {
          "duration": 0.7187040000000025,
          "durationTicks": 460,
          "midi": 61,
          "name": "C#4",
          "ticks": 183840,
          "time": 287.231616,
          "velocity": 0.8110236220472441
        },
        {
          "duration": 1.46865600000001,
          "durationTicks": 940,
          "midi": 59,
          "name": "B3",
          "ticks": 184320,
          "time": 287.981568,
          "velocity": 0.7401574803149606
        },
        {
          "duration": 1.4920920000000137,
          "durationTicks": 955,
          "midi": 71,
          "name": "B4",
          "ticks": 184320,
          "time": 287.981568,
          "velocity": 0.7952755905511811
        },
        {
          "duration": 1.499904000000015,
          "durationTicks": 960,
          "midi": 83,
          "name": "B5",
          "ticks": 184320,
          "time": 287.981568,
          "velocity": 0.5275590551181102
        },
        {
          "duration": 1.3046039999999834,
          "durationTicks": 835,
          "midi": 86,
          "name": "D6",
          "ticks": 184320,
          "time": 287.981568,
          "velocity": 0.5590551181102362
        },
        {
          "duration": 1.4764680000000112,
          "durationTicks": 945,
          "midi": 57,
          "name": "A3",
          "ticks": 185280,
          "time": 289.481472,
          "velocity": 0.6062992125984252
        },
        {
          "duration": 1.4999039999999582,
          "durationTicks": 960,
          "midi": 73,
          "name": "C#5",
          "ticks": 185280,
          "time": 289.481472,
          "velocity": 0.7007874015748031
        },
        {
          "duration": 1.492091999999957,
          "durationTicks": 955,
          "midi": 85,
          "name": "C#6",
          "ticks": 185280,
          "time": 289.481472,
          "velocity": 0.6377952755905512
        },
        {
          "duration": 1.4842800000000125,
          "durationTicks": 950,
          "midi": 55,
          "name": "G3",
          "ticks": 186240,
          "time": 290.98137599999995,
          "velocity": 0.6062992125984252
        },
        {
          "duration": 1.4920920000000137,
          "durationTicks": 955,
          "midi": 74,
          "name": "D5",
          "ticks": 186240,
          "time": 290.98137599999995,
          "velocity": 0.7007874015748031
        },
        {
          "duration": 1.4920920000000137,
          "durationTicks": 955,
          "midi": 83,
          "name": "B5",
          "ticks": 186240,
          "time": 290.98137599999995,
          "velocity": 0.5748031496062992
        },
        {
          "duration": 1.499904000000015,
          "durationTicks": 960,
          "midi": 86,
          "name": "D6",
          "ticks": 186240,
          "time": 290.98137599999995,
          "velocity": 0.5905511811023622
        },
        {
          "duration": 1.499904000000015,
          "durationTicks": 960,
          "midi": 54,
          "name": "F#3",
          "ticks": 187200,
          "time": 292.48127999999997,
          "velocity": 0.6062992125984252
        },
        {
          "duration": 1.499904000000015,
          "durationTicks": 960,
          "midi": 73,
          "name": "C#5",
          "ticks": 187200,
          "time": 292.48127999999997,
          "velocity": 0.7480314960629921
        },
        {
          "duration": 1.4920920000000137,
          "durationTicks": 955,
          "midi": 81,
          "name": "A5",
          "ticks": 187200,
          "time": 292.48127999999997,
          "velocity": 0.5748031496062992
        },
        {
          "duration": 1.4920920000000137,
          "durationTicks": 955,
          "midi": 85,
          "name": "C#6",
          "ticks": 187200,
          "time": 292.48127999999997,
          "velocity": 0.5905511811023622
        },
        {
          "duration": 1.4842800000000125,
          "durationTicks": 950,
          "midi": 52,
          "name": "E3",
          "ticks": 188160,
          "time": 293.981184,
          "velocity": 0.6141732283464567
        },
        {
          "duration": 1.492091999999957,
          "durationTicks": 955,
          "midi": 71,
          "name": "B4",
          "ticks": 188160,
          "time": 293.981184,
          "velocity": 0.7480314960629921
        },
        {
          "duration": 2.8045079999999984,
          "durationTicks": 1795,
          "midi": 79,
          "name": "G5",
          "ticks": 188160,
          "time": 293.981184,
          "velocity": 0.5118110236220472
        },
        {
          "duration": 2.991995999999972,
          "durationTicks": 1915,
          "midi": 83,
          "name": "B5",
          "ticks": 188160,
          "time": 293.981184,
          "velocity": 0.5905511811023622
        },
        {
          "duration": 1.4842800000000125,
          "durationTicks": 950,
          "midi": 57,
          "name": "A3",
          "ticks": 189120,
          "time": 295.481088,
          "velocity": 0.49606299212598426
        },
        {
          "duration": 1.4999039999999582,
          "durationTicks": 960,
          "midi": 67,
          "name": "G4",
          "ticks": 189120,
          "time": 295.481088,
          "velocity": 0.7480314960629921
        },
        {
          "duration": 35.95082400000001,
          "durationTicks": 23010,
          "midi": 57,
          "name": "A3",
          "ticks": 190080,
          "time": 296.98099199999996,
          "velocity": 0.47244094488188976
        },
        {
          "duration": 35.974260000000015,
          "durationTicks": 23025,
          "midi": 69,
          "name": "A4",
          "ticks": 190080,
          "time": 296.98099199999996,
          "velocity": 0.3779527559055118
        },
        {
          "duration": 35.974260000000015,
          "durationTicks": 23025,
          "midi": 74,
          "name": "D5",
          "ticks": 190080,
          "time": 296.98099199999996,
          "velocity": 0.3779527559055118
        },
        {
          "duration": 35.95082400000001,
          "durationTicks": 23010,
          "midi": 78,
          "name": "F#5",
          "ticks": 190080,
          "time": 296.98099199999996,
          "velocity": 0.36220472440944884
        },
        {
          "duration": 0.07812000000001262,
          "durationTicks": 50,
          "midi": 81,
          "name": "A5",
          "ticks": 190080,
          "time": 296.98099199999996,
          "velocity": 0.5984251968503937
        },
        {
          "duration": 35.966448000000014,
          "durationTicks": 23020,
          "midi": 86,
          "name": "D6",
          "ticks": 190080,
          "time": 296.98099199999996,
          "velocity": 0.3937007874015748
        },
        {
          "duration": 0.08593199999995704,
          "durationTicks": 55,
          "midi": 81,
          "name": "A5",
          "ticks": 190200,
          "time": 297.16848,
          "velocity": 0.5984251968503937
        },
        {
          "duration": 0.08593200000001389,
          "durationTicks": 55,
          "midi": 81,
          "name": "A5",
          "ticks": 190320,
          "time": 297.35596799999996,
          "velocity": 0.5984251968503937
        },
        {
          "duration": 0.09374400000001515,
          "durationTicks": 60,
          "midi": 81,
          "name": "A5",
          "ticks": 190440,
          "time": 297.543456,
          "velocity": 0.5984251968503937
        },
        {
          "duration": 0.09374400000001515,
          "durationTicks": 60,
          "midi": 81,
          "name": "A5",
          "ticks": 190560,
          "time": 297.73094399999997,
          "velocity": 0.5984251968503937
        },
        {
          "duration": 0.0937439999999583,
          "durationTicks": 60,
          "midi": 81,
          "name": "A5",
          "ticks": 190680,
          "time": 297.918432,
          "velocity": 0.5984251968503937
        },
        {
          "duration": 0.09374400000001515,
          "durationTicks": 60,
          "midi": 81,
          "name": "A5",
          "ticks": 190800,
          "time": 298.10591999999997,
          "velocity": 0.5905511811023622
        },
        {
          "duration": 0.0937439999999583,
          "durationTicks": 60,
          "midi": 81,
          "name": "A5",
          "ticks": 190920,
          "time": 298.293408,
          "velocity": 0.5905511811023622
        },
        {
          "duration": 0.08593200000001389,
          "durationTicks": 55,
          "midi": 81,
          "name": "A5",
          "ticks": 191040,
          "time": 298.480896,
          "velocity": 0.5905511811023622
        },
        {
          "duration": 0.0937439999999583,
          "durationTicks": 60,
          "midi": 81,
          "name": "A5",
          "ticks": 191160,
          "time": 298.668384,
          "velocity": 0.5905511811023622
        },
        {
          "duration": 0.09374400000001515,
          "durationTicks": 60,
          "midi": 81,
          "name": "A5",
          "ticks": 191280,
          "time": 298.855872,
          "velocity": 0.5905511811023622
        },
        {
          "duration": 0.08593199999995704,
          "durationTicks": 55,
          "midi": 81,
          "name": "A5",
          "ticks": 191400,
          "time": 299.04336,
          "velocity": 0.5905511811023622
        },
        {
          "duration": 0.09374400000001515,
          "durationTicks": 60,
          "midi": 81,
          "name": "A5",
          "ticks": 191520,
          "time": 299.230848,
          "velocity": 0.5826771653543307
        },
        {
          "duration": 0.09374400000001515,
          "durationTicks": 60,
          "midi": 81,
          "name": "A5",
          "ticks": 191640,
          "time": 299.41833599999995,
          "velocity": 0.5826771653543307
        },
        {
          "duration": 0.08593199999995704,
          "durationTicks": 55,
          "midi": 81,
          "name": "A5",
          "ticks": 191760,
          "time": 299.605824,
          "velocity": 0.5826771653543307
        },
        {
          "duration": 0.09374400000001515,
          "durationTicks": 60,
          "midi": 81,
          "name": "A5",
          "ticks": 191880,
          "time": 299.79331199999996,
          "velocity": 0.5826771653543307
        },
        {
          "duration": 0.08593199999995704,
          "durationTicks": 55,
          "midi": 81,
          "name": "A5",
          "ticks": 192000,
          "time": 299.9808,
          "velocity": 0.5984251968503937
        },
        {
          "duration": 0.07812000000001262,
          "durationTicks": 50,
          "midi": 81,
          "name": "A5",
          "ticks": 192120,
          "time": 300.16828799999996,
          "velocity": 0.5984251968503937
        },
        {
          "duration": 0.08593199999995704,
          "durationTicks": 55,
          "midi": 81,
          "name": "A5",
          "ticks": 192240,
          "time": 300.355776,
          "velocity": 0.5984251968503937
        },
        {
          "duration": 0.08593200000001389,
          "durationTicks": 55,
          "midi": 81,
          "name": "A5",
          "ticks": 192360,
          "time": 300.54326399999997,
          "velocity": 0.5984251968503937
        },
        {
          "duration": 0.0937439999999583,
          "durationTicks": 60,
          "midi": 81,
          "name": "A5",
          "ticks": 192480,
          "time": 300.730752,
          "velocity": 0.5984251968503937
        },
        {
          "duration": 0.09374400000001515,
          "durationTicks": 60,
          "midi": 81,
          "name": "A5",
          "ticks": 192600,
          "time": 300.91823999999997,
          "velocity": 0.5984251968503937
        },
        {
          "duration": 0.0937439999999583,
          "durationTicks": 60,
          "midi": 81,
          "name": "A5",
          "ticks": 192720,
          "time": 301.105728,
          "velocity": 0.5905511811023622
        },
        {
          "duration": 0.09374400000001515,
          "durationTicks": 60,
          "midi": 81,
          "name": "A5",
          "ticks": 192840,
          "time": 301.293216,
          "velocity": 0.5905511811023622
        },
        {
          "duration": 0.08593199999995704,
          "durationTicks": 55,
          "midi": 81,
          "name": "A5",
          "ticks": 192960,
          "time": 301.480704,
          "velocity": 0.5905511811023622
        },
        {
          "duration": 0.09374400000001515,
          "durationTicks": 60,
          "midi": 81,
          "name": "A5",
          "ticks": 193080,
          "time": 301.668192,
          "velocity": 0.5905511811023622
        },
        {
          "duration": 0.0937439999999583,
          "durationTicks": 60,
          "midi": 81,
          "name": "A5",
          "ticks": 193200,
          "time": 301.85568,
          "velocity": 0.5905511811023622
        },
        {
          "duration": 0.09374400000001515,
          "durationTicks": 60,
          "midi": 81,
          "name": "A5",
          "ticks": 193320,
          "time": 302.043168,
          "velocity": 0.5905511811023622
        },
        {
          "duration": 0.09374400000001515,
          "durationTicks": 60,
          "midi": 81,
          "name": "A5",
          "ticks": 193440,
          "time": 302.23065599999995,
          "velocity": 0.5826771653543307
        },
        {
          "duration": 0.09374400000001515,
          "durationTicks": 60,
          "midi": 81,
          "name": "A5",
          "ticks": 193560,
          "time": 302.418144,
          "velocity": 0.5826771653543307
        },
        {
          "duration": 0.09374400000001515,
          "durationTicks": 60,
          "midi": 81,
          "name": "A5",
          "ticks": 193680,
          "time": 302.60563199999996,
          "velocity": 0.5826771653543307
        },
        {
          "duration": 0.09374400000001515,
          "durationTicks": 60,
          "midi": 81,
          "name": "A5",
          "ticks": 193800,
          "time": 302.79312,
          "velocity": 0.5826771653543307
        },
        {
          "duration": 0.08593200000001389,
          "durationTicks": 55,
          "midi": 81,
          "name": "A5",
          "ticks": 193920,
          "time": 302.98060799999996,
          "velocity": 0.5984251968503937
        },
        {
          "duration": 0.09374400000001515,
          "durationTicks": 60,
          "midi": 81,
          "name": "A5",
          "ticks": 194040,
          "time": 303.168096,
          "velocity": 0.5984251968503937
        },
        {
          "duration": 0.08593200000001389,
          "durationTicks": 55,
          "midi": 81,
          "name": "A5",
          "ticks": 194160,
          "time": 303.35558399999996,
          "velocity": 0.5984251968503937
        },
        {
          "duration": 0.08593199999995704,
          "durationTicks": 55,
          "midi": 81,
          "name": "A5",
          "ticks": 194280,
          "time": 303.543072,
          "velocity": 0.5984251968503937
        },
        {
          "duration": 0.09374400000001515,
          "durationTicks": 60,
          "midi": 81,
          "name": "A5",
          "ticks": 194400,
          "time": 303.73055999999997,
          "velocity": 0.5984251968503937
        },
        {
          "duration": 0.0937439999999583,
          "durationTicks": 60,
          "midi": 81,
          "name": "A5",
          "ticks": 194520,
          "time": 303.918048,
          "velocity": 0.5984251968503937
        },
        {
          "duration": 0.09374400000001515,
          "durationTicks": 60,
          "midi": 81,
          "name": "A5",
          "ticks": 194640,
          "time": 304.105536,
          "velocity": 0.5905511811023622
        },
        {
          "duration": 0.0937439999999583,
          "durationTicks": 60,
          "midi": 81,
          "name": "A5",
          "ticks": 194760,
          "time": 304.293024,
          "velocity": 0.5905511811023622
        },
        {
          "duration": 0.08593200000001389,
          "durationTicks": 55,
          "midi": 81,
          "name": "A5",
          "ticks": 194880,
          "time": 304.480512,
          "velocity": 0.5905511811023622
        },
        {
          "duration": 0.0937439999999583,
          "durationTicks": 60,
          "midi": 81,
          "name": "A5",
          "ticks": 195000,
          "time": 304.668,
          "velocity": 0.5905511811023622
        },
        {
          "duration": 0.09374400000001515,
          "durationTicks": 60,
          "midi": 81,
          "name": "A5",
          "ticks": 195120,
          "time": 304.855488,
          "velocity": 0.5905511811023622
        },
        {
          "duration": 0.09374400000001515,
          "durationTicks": 60,
          "midi": 81,
          "name": "A5",
          "ticks": 195240,
          "time": 305.04297599999995,
          "velocity": 0.5905511811023622
        },
        {
          "duration": 0.09374400000001515,
          "durationTicks": 60,
          "midi": 81,
          "name": "A5",
          "ticks": 195360,
          "time": 305.230464,
          "velocity": 0.5826771653543307
        },
        {
          "duration": 0.09374400000001515,
          "durationTicks": 60,
          "midi": 81,
          "name": "A5",
          "ticks": 195480,
          "time": 305.41795199999996,
          "velocity": 0.5826771653543307
        },
        {
          "duration": 0.08593199999995704,
          "durationTicks": 55,
          "midi": 81,
          "name": "A5",
          "ticks": 195600,
          "time": 305.60544,
          "velocity": 0.5826771653543307
        },
        {
          "duration": 0.09374400000001515,
          "durationTicks": 60,
          "midi": 81,
          "name": "A5",
          "ticks": 195720,
          "time": 305.79292799999996,
          "velocity": 0.5826771653543307
        },
        {
          "duration": 0.07812000000001262,
          "durationTicks": 50,
          "midi": 81,
          "name": "A5",
          "ticks": 195840,
          "time": 305.980416,
          "velocity": 0.5984251968503937
        },
        {
          "duration": 0.08593200000001389,
          "durationTicks": 55,
          "midi": 81,
          "name": "A5",
          "ticks": 195960,
          "time": 306.16790399999996,
          "velocity": 0.5984251968503937
        },
        {
          "duration": 0.0937439999999583,
          "durationTicks": 60,
          "midi": 81,
          "name": "A5",
          "ticks": 196080,
          "time": 306.355392,
          "velocity": 0.5984251968503937
        },
        {
          "duration": 0.08593200000001389,
          "durationTicks": 55,
          "midi": 81,
          "name": "A5",
          "ticks": 196200,
          "time": 306.54287999999997,
          "velocity": 0.5984251968503937
        },
        {
          "duration": 0.0937439999999583,
          "durationTicks": 60,
          "midi": 81,
          "name": "A5",
          "ticks": 196320,
          "time": 306.730368,
          "velocity": 0.5984251968503937
        },
        {
          "duration": 0.09374400000001515,
          "durationTicks": 60,
          "midi": 81,
          "name": "A5",
          "ticks": 196440,
          "time": 306.917856,
          "velocity": 0.5984251968503937
        },
        {
          "duration": 0.0937439999999583,
          "durationTicks": 60,
          "midi": 81,
          "name": "A5",
          "ticks": 196560,
          "time": 307.105344,
          "velocity": 0.5905511811023622
        },
        {
          "duration": 0.09374400000001515,
          "durationTicks": 60,
          "midi": 81,
          "name": "A5",
          "ticks": 196680,
          "time": 307.292832,
          "velocity": 0.5905511811023622
        },
        {
          "duration": 0.08593199999995704,
          "durationTicks": 55,
          "midi": 81,
          "name": "A5",
          "ticks": 196800,
          "time": 307.48032,
          "velocity": 0.5905511811023622
        },
        {
          "duration": 0.08593200000001389,
          "durationTicks": 55,
          "midi": 81,
          "name": "A5",
          "ticks": 196920,
          "time": 307.667808,
          "velocity": 0.5905511811023622
        },
        {
          "duration": 0.09374400000001515,
          "durationTicks": 60,
          "midi": 81,
          "name": "A5",
          "ticks": 197040,
          "time": 307.85529599999995,
          "velocity": 0.5905511811023622
        },
        {
          "duration": 0.09374400000001515,
          "durationTicks": 60,
          "midi": 81,
          "name": "A5",
          "ticks": 197160,
          "time": 308.042784,
          "velocity": 0.5905511811023622
        },
        {
          "duration": 0.09374400000001515,
          "durationTicks": 60,
          "midi": 81,
          "name": "A5",
          "ticks": 197280,
          "time": 308.23027199999996,
          "velocity": 0.5826771653543307
        },
        {
          "duration": 0.08593199999995704,
          "durationTicks": 55,
          "midi": 81,
          "name": "A5",
          "ticks": 197400,
          "time": 308.41776,
          "velocity": 0.5826771653543307
        },
        {
          "duration": 0.09374400000001515,
          "durationTicks": 60,
          "midi": 81,
          "name": "A5",
          "ticks": 197520,
          "time": 308.60524799999996,
          "velocity": 0.5826771653543307
        },
        {
          "duration": 0.09374400000001515,
          "durationTicks": 60,
          "midi": 81,
          "name": "A5",
          "ticks": 197640,
          "time": 308.792736,
          "velocity": 0.5826771653543307
        },
        {
          "duration": 0.08593200000001389,
          "durationTicks": 55,
          "midi": 81,
          "name": "A5",
          "ticks": 197760,
          "time": 308.98022399999996,
          "velocity": 0.5984251968503937
        },
        {
          "duration": 0.0937439999999583,
          "durationTicks": 60,
          "midi": 81,
          "name": "A5",
          "ticks": 197880,
          "time": 309.167712,
          "velocity": 0.5984251968503937
        },
        {
          "duration": 0.09374400000001515,
          "durationTicks": 60,
          "midi": 81,
          "name": "A5",
          "ticks": 198000,
          "time": 309.35519999999997,
          "velocity": 0.5984251968503937
        },
        {
          "duration": 0.08593199999995704,
          "durationTicks": 55,
          "midi": 81,
          "name": "A5",
          "ticks": 198120,
          "time": 309.542688,
          "velocity": 0.5984251968503937
        },
        {
          "duration": 0.09374400000001515,
          "durationTicks": 60,
          "midi": 81,
          "name": "A5",
          "ticks": 198240,
          "time": 309.730176,
          "velocity": 0.5984251968503937
        },
        {
          "duration": 0.0937439999999583,
          "durationTicks": 60,
          "midi": 81,
          "name": "A5",
          "ticks": 198360,
          "time": 309.917664,
          "velocity": 0.5984251968503937
        },
        {
          "duration": 0.09374400000001515,
          "durationTicks": 60,
          "midi": 81,
          "name": "A5",
          "ticks": 198480,
          "time": 310.105152,
          "velocity": 0.5905511811023622
        },
        {
          "duration": 0.0937439999999583,
          "durationTicks": 60,
          "midi": 81,
          "name": "A5",
          "ticks": 198600,
          "time": 310.29264,
          "velocity": 0.5905511811023622
        },
        {
          "duration": 0.08593200000001389,
          "durationTicks": 55,
          "midi": 81,
          "name": "A5",
          "ticks": 198720,
          "time": 310.480128,
          "velocity": 0.5905511811023622
        },
        {
          "duration": 0.09374400000001515,
          "durationTicks": 60,
          "midi": 81,
          "name": "A5",
          "ticks": 198840,
          "time": 310.66761599999995,
          "velocity": 0.5905511811023622
        },
        {
          "duration": 0.09374400000001515,
          "durationTicks": 60,
          "midi": 81,
          "name": "A5",
          "ticks": 198960,
          "time": 310.855104,
          "velocity": 0.5905511811023622
        },
        {
          "duration": 0.09374400000001515,
          "durationTicks": 60,
          "midi": 81,
          "name": "A5",
          "ticks": 199080,
          "time": 311.04259199999996,
          "velocity": 0.5905511811023622
        },
        {
          "duration": 0.08593199999995704,
          "durationTicks": 55,
          "midi": 81,
          "name": "A5",
          "ticks": 199200,
          "time": 311.23008,
          "velocity": 0.5826771653543307
        },
        {
          "duration": 0.09374400000001515,
          "durationTicks": 60,
          "midi": 81,
          "name": "A5",
          "ticks": 199320,
          "time": 311.41756799999996,
          "velocity": 0.5826771653543307
        },
        {
          "duration": 0.08593199999995704,
          "durationTicks": 55,
          "midi": 81,
          "name": "A5",
          "ticks": 199440,
          "time": 311.605056,
          "velocity": 0.5826771653543307
        },
        {
          "duration": 0.09374400000001515,
          "durationTicks": 60,
          "midi": 81,
          "name": "A5",
          "ticks": 199560,
          "time": 311.79254399999996,
          "velocity": 0.5826771653543307
        },
        {
          "duration": 0.07812000000001262,
          "durationTicks": 50,
          "midi": 81,
          "name": "A5",
          "ticks": 199680,
          "time": 311.980032,
          "velocity": 0.5984251968503937
        },
        {
          "duration": 0.09374400000001515,
          "durationTicks": 60,
          "midi": 81,
          "name": "A5",
          "ticks": 199800,
          "time": 312.16751999999997,
          "velocity": 0.5984251968503937
        },
        {
          "duration": 0.0937439999999583,
          "durationTicks": 60,
          "midi": 81,
          "name": "A5",
          "ticks": 199920,
          "time": 312.355008,
          "velocity": 0.5984251968503937
        },
        {
          "duration": 0.07812000000001262,
          "durationTicks": 50,
          "midi": 81,
          "name": "A5",
          "ticks": 200040,
          "time": 312.54249599999997,
          "velocity": 0.5984251968503937
        },
        {
          "duration": 0.0937439999999583,
          "durationTicks": 60,
          "midi": 81,
          "name": "A5",
          "ticks": 200160,
          "time": 312.729984,
          "velocity": 0.5984251968503937
        },
        {
          "duration": 0.08593200000001389,
          "durationTicks": 55,
          "midi": 81,
          "name": "A5",
          "ticks": 200280,
          "time": 312.917472,
          "velocity": 0.5984251968503937
        },
        {
          "duration": 0.0937439999999583,
          "durationTicks": 60,
          "midi": 81,
          "name": "A5",
          "ticks": 200400,
          "time": 313.10496,
          "velocity": 0.5905511811023622
        },
        {
          "duration": 0.08593200000001389,
          "durationTicks": 55,
          "midi": 81,
          "name": "A5",
          "ticks": 200520,
          "time": 313.292448,
          "velocity": 0.5905511811023622
        },
        {
          "duration": 0.08593200000001389,
          "durationTicks": 55,
          "midi": 81,
          "name": "A5",
          "ticks": 200640,
          "time": 313.47993599999995,
          "velocity": 0.5905511811023622
        },
        {
          "duration": 0.09374400000001515,
          "durationTicks": 60,
          "midi": 81,
          "name": "A5",
          "ticks": 200760,
          "time": 313.667424,
          "velocity": 0.5905511811023622
        },
        {
          "duration": 0.09374400000001515,
          "durationTicks": 60,
          "midi": 81,
          "name": "A5",
          "ticks": 200880,
          "time": 313.85491199999996,
          "velocity": 0.5905511811023622
        },
        {
          "duration": 0.08593199999995704,
          "durationTicks": 55,
          "midi": 81,
          "name": "A5",
          "ticks": 201000,
          "time": 314.0424,
          "velocity": 0.5905511811023622
        },
        {
          "duration": 0.09374400000001515,
          "durationTicks": 60,
          "midi": 81,
          "name": "A5",
          "ticks": 201120,
          "time": 314.22988799999996,
          "velocity": 0.5826771653543307
        },
        {
          "duration": 0.08593199999995704,
          "durationTicks": 55,
          "midi": 81,
          "name": "A5",
          "ticks": 201240,
          "time": 314.417376,
          "velocity": 0.5826771653543307
        },
        {
          "duration": 0.09374400000001515,
          "durationTicks": 60,
          "midi": 81,
          "name": "A5",
          "ticks": 201360,
          "time": 314.60486399999996,
          "velocity": 0.5826771653543307
        },
        {
          "duration": 0.0937439999999583,
          "durationTicks": 60,
          "midi": 81,
          "name": "A5",
          "ticks": 201480,
          "time": 314.792352,
          "velocity": 0.5826771653543307
        },
        {
          "duration": 0.07812000000001262,
          "durationTicks": 50,
          "midi": 81,
          "name": "A5",
          "ticks": 201600,
          "time": 314.97983999999997,
          "velocity": 0.5984251968503937
        },
        {
          "duration": 0.08593199999995704,
          "durationTicks": 55,
          "midi": 81,
          "name": "A5",
          "ticks": 201720,
          "time": 315.167328,
          "velocity": 0.5984251968503937
        },
        {
          "duration": 0.08593200000001389,
          "durationTicks": 55,
          "midi": 81,
          "name": "A5",
          "ticks": 201840,
          "time": 315.35481599999997,
          "velocity": 0.5984251968503937
        },
        {
          "duration": 0.08593199999995704,
          "durationTicks": 55,
          "midi": 81,
          "name": "A5",
          "ticks": 201960,
          "time": 315.542304,
          "velocity": 0.5984251968503937
        },
        {
          "duration": 0.09374400000001515,
          "durationTicks": 60,
          "midi": 81,
          "name": "A5",
          "ticks": 202080,
          "time": 315.729792,
          "velocity": 0.5984251968503937
        },
        {
          "duration": 0.0937439999999583,
          "durationTicks": 60,
          "midi": 81,
          "name": "A5",
          "ticks": 202200,
          "time": 315.91728,
          "velocity": 0.5984251968503937
        },
        {
          "duration": 0.09374400000001515,
          "durationTicks": 60,
          "midi": 81,
          "name": "A5",
          "ticks": 202320,
          "time": 316.104768,
          "velocity": 0.5905511811023622
        },
        {
          "duration": 0.09374400000001515,
          "durationTicks": 60,
          "midi": 81,
          "name": "A5",
          "ticks": 202440,
          "time": 316.29225599999995,
          "velocity": 0.5905511811023622
        },
        {
          "duration": 0.07812000000001262,
          "durationTicks": 50,
          "midi": 81,
          "name": "A5",
          "ticks": 202560,
          "time": 316.479744,
          "velocity": 0.5905511811023622
        },
        {
          "duration": 0.09374400000001515,
          "durationTicks": 60,
          "midi": 81,
          "name": "A5",
          "ticks": 202680,
          "time": 316.66723199999996,
          "velocity": 0.5905511811023622
        },
        {
          "duration": 0.09374400000001515,
          "durationTicks": 60,
          "midi": 81,
          "name": "A5",
          "ticks": 202800,
          "time": 316.85472,
          "velocity": 0.5905511811023622
        },
        {
          "duration": 0.09374400000001515,
          "durationTicks": 60,
          "midi": 81,
          "name": "A5",
          "ticks": 202920,
          "time": 317.04220799999996,
          "velocity": 0.5905511811023622
        },
        {
          "duration": 0.09374400000001515,
          "durationTicks": 60,
          "midi": 81,
          "name": "A5",
          "ticks": 203040,
          "time": 317.229696,
          "velocity": 0.5826771653543307
        },
        {
          "duration": 0.09374400000001515,
          "durationTicks": 60,
          "midi": 81,
          "name": "A5",
          "ticks": 203160,
          "time": 317.41718399999996,
          "velocity": 0.5826771653543307
        },
        {
          "duration": 0.0937439999999583,
          "durationTicks": 60,
          "midi": 81,
          "name": "A5",
          "ticks": 203280,
          "time": 317.604672,
          "velocity": 0.5826771653543307
        },
        {
          "duration": 0.09374400000001515,
          "durationTicks": 60,
          "midi": 81,
          "name": "A5",
          "ticks": 203400,
          "time": 317.79215999999997,
          "velocity": 0.5826771653543307
        },
        {
          "duration": 0.08593199999995704,
          "durationTicks": 55,
          "midi": 81,
          "name": "A5",
          "ticks": 203520,
          "time": 317.979648,
          "velocity": 0.5984251968503937
        },
        {
          "duration": 0.09374400000001515,
          "durationTicks": 60,
          "midi": 81,
          "name": "A5",
          "ticks": 203640,
          "time": 318.16713599999997,
          "velocity": 0.5984251968503937
        },
        {
          "duration": 0.0937439999999583,
          "durationTicks": 60,
          "midi": 81,
          "name": "A5",
          "ticks": 203760,
          "time": 318.354624,
          "velocity": 0.5984251968503937
        },
        {
          "duration": 0.07812000000001262,
          "durationTicks": 50,
          "midi": 81,
          "name": "A5",
          "ticks": 203880,
          "time": 318.542112,
          "velocity": 0.5984251968503937
        },
        {
          "duration": 0.0937439999999583,
          "durationTicks": 60,
          "midi": 81,
          "name": "A5",
          "ticks": 204000,
          "time": 318.7296,
          "velocity": 0.5984251968503937
        },
        {
          "duration": 0.08593200000001389,
          "durationTicks": 55,
          "midi": 81,
          "name": "A5",
          "ticks": 204120,
          "time": 318.917088,
          "velocity": 0.5984251968503937
        },
        {
          "duration": 0.09374400000001515,
          "durationTicks": 60,
          "midi": 81,
          "name": "A5",
          "ticks": 204240,
          "time": 319.10457599999995,
          "velocity": 0.5905511811023622
        },
        {
          "duration": 0.09374400000001515,
          "durationTicks": 60,
          "midi": 81,
          "name": "A5",
          "ticks": 204360,
          "time": 319.292064,
          "velocity": 0.5905511811023622
        },
        {
          "duration": 0.08593200000001389,
          "durationTicks": 55,
          "midi": 81,
          "name": "A5",
          "ticks": 204480,
          "time": 319.47955199999996,
          "velocity": 0.5905511811023622
        },
        {
          "duration": 0.09374400000001515,
          "durationTicks": 60,
          "midi": 81,
          "name": "A5",
          "ticks": 204600,
          "time": 319.66704,
          "velocity": 0.5905511811023622
        },
        {
          "duration": 0.09374400000001515,
          "durationTicks": 60,
          "midi": 81,
          "name": "A5",
          "ticks": 204720,
          "time": 319.85452799999996,
          "velocity": 0.5905511811023622
        },
        {
          "duration": 0.09374400000001515,
          "durationTicks": 60,
          "midi": 81,
          "name": "A5",
          "ticks": 204840,
          "time": 320.042016,
          "velocity": 0.5905511811023622
        },
        {
          "duration": 0.08593200000001389,
          "durationTicks": 55,
          "midi": 81,
          "name": "A5",
          "ticks": 204960,
          "time": 320.22950399999996,
          "velocity": 0.5826771653543307
        },
        {
          "duration": 0.0937439999999583,
          "durationTicks": 60,
          "midi": 81,
          "name": "A5",
          "ticks": 205080,
          "time": 320.416992,
          "velocity": 0.5826771653543307
        },
        {
          "duration": 0.09374400000001515,
          "durationTicks": 60,
          "midi": 81,
          "name": "A5",
          "ticks": 205200,
          "time": 320.60447999999997,
          "velocity": 0.5826771653543307
        },
        {
          "duration": 0.0937439999999583,
          "durationTicks": 60,
          "midi": 81,
          "name": "A5",
          "ticks": 205320,
          "time": 320.791968,
          "velocity": 0.5826771653543307
        },
        {
          "duration": 0.08593200000001389,
          "durationTicks": 55,
          "midi": 81,
          "name": "A5",
          "ticks": 205440,
          "time": 320.97945599999997,
          "velocity": 0.5984251968503937
        },
        {
          "duration": 0.0937439999999583,
          "durationTicks": 60,
          "midi": 81,
          "name": "A5",
          "ticks": 205560,
          "time": 321.166944,
          "velocity": 0.5984251968503937
        },
        {
          "duration": 0.08593200000001389,
          "durationTicks": 55,
          "midi": 81,
          "name": "A5",
          "ticks": 205680,
          "time": 321.354432,
          "velocity": 0.5984251968503937
        },
        {
          "duration": 0.08593199999995704,
          "durationTicks": 55,
          "midi": 81,
          "name": "A5",
          "ticks": 205800,
          "time": 321.54192,
          "velocity": 0.5984251968503937
        },
        {
          "duration": 0.09374400000001515,
          "durationTicks": 60,
          "midi": 81,
          "name": "A5",
          "ticks": 205920,
          "time": 321.729408,
          "velocity": 0.5984251968503937
        },
        {
          "duration": 0.09374400000001515,
          "durationTicks": 60,
          "midi": 81,
          "name": "A5",
          "ticks": 206040,
          "time": 321.91689599999995,
          "velocity": 0.5984251968503937
        },
        {
          "duration": 0.09374400000001515,
          "durationTicks": 60,
          "midi": 81,
          "name": "A5",
          "ticks": 206160,
          "time": 322.104384,
          "velocity": 0.5905511811023622
        },
        {
          "duration": 0.09374400000001515,
          "durationTicks": 60,
          "midi": 81,
          "name": "A5",
          "ticks": 206280,
          "time": 322.29187199999996,
          "velocity": 0.5905511811023622
        },
        {
          "duration": 0.08593199999995704,
          "durationTicks": 55,
          "midi": 81,
          "name": "A5",
          "ticks": 206400,
          "time": 322.47936,
          "velocity": 0.5905511811023622
        },
        {
          "duration": 0.09374400000001515,
          "durationTicks": 60,
          "midi": 81,
          "name": "A5",
          "ticks": 206520,
          "time": 322.66684799999996,
          "velocity": 0.5905511811023622
        },
        {
          "duration": 0.09374400000001515,
          "durationTicks": 60,
          "midi": 81,
          "name": "A5",
          "ticks": 206640,
          "time": 322.854336,
          "velocity": 0.5905511811023622
        },
        {
          "duration": 0.09374400000001515,
          "durationTicks": 60,
          "midi": 81,
          "name": "A5",
          "ticks": 206760,
          "time": 323.04182399999996,
          "velocity": 0.5905511811023622
        },
        {
          "duration": 0.0937439999999583,
          "durationTicks": 60,
          "midi": 81,
          "name": "A5",
          "ticks": 206880,
          "time": 323.229312,
          "velocity": 0.5826771653543307
        },
        {
          "duration": 0.09374400000001515,
          "durationTicks": 60,
          "midi": 81,
          "name": "A5",
          "ticks": 207000,
          "time": 323.41679999999997,
          "velocity": 0.5826771653543307
        },
        {
          "duration": 0.0937439999999583,
          "durationTicks": 60,
          "midi": 81,
          "name": "A5",
          "ticks": 207120,
          "time": 323.604288,
          "velocity": 0.5826771653543307
        },
        {
          "duration": 0.09374400000001515,
          "durationTicks": 60,
          "midi": 81,
          "name": "A5",
          "ticks": 207240,
          "time": 323.79177599999997,
          "velocity": 0.5826771653543307
        },
        {
          "duration": 0.07812000000001262,
          "durationTicks": 50,
          "midi": 81,
          "name": "A5",
          "ticks": 207360,
          "time": 323.979264,
          "velocity": 0.5984251968503937
        },
        {
          "duration": 0.09374400000001515,
          "durationTicks": 60,
          "midi": 81,
          "name": "A5",
          "ticks": 207480,
          "time": 324.166752,
          "velocity": 0.5984251968503937
        },
        {
          "duration": 0.0937439999999583,
          "durationTicks": 60,
          "midi": 81,
          "name": "A5",
          "ticks": 207600,
          "time": 324.35424,
          "velocity": 0.5984251968503937
        },
        {
          "duration": 0.08593200000001389,
          "durationTicks": 55,
          "midi": 81,
          "name": "A5",
          "ticks": 207720,
          "time": 324.541728,
          "velocity": 0.5984251968503937
        },
        {
          "duration": 0.09374400000001515,
          "durationTicks": 60,
          "midi": 81,
          "name": "A5",
          "ticks": 207840,
          "time": 324.72921599999995,
          "velocity": 0.5984251968503937
        },
        {
          "duration": 0.09374400000001515,
          "durationTicks": 60,
          "midi": 81,
          "name": "A5",
          "ticks": 207960,
          "time": 324.916704,
          "velocity": 0.5984251968503937
        },
        {
          "duration": 0.09374400000001515,
          "durationTicks": 60,
          "midi": 81,
          "name": "A5",
          "ticks": 208080,
          "time": 325.10419199999995,
          "velocity": 0.5905511811023622
        },
        {
          "duration": 0.09374400000001515,
          "durationTicks": 60,
          "midi": 81,
          "name": "A5",
          "ticks": 208200,
          "time": 325.29168,
          "velocity": 0.5905511811023622
        },
        {
          "duration": 0.08593200000001389,
          "durationTicks": 55,
          "midi": 81,
          "name": "A5",
          "ticks": 208320,
          "time": 325.47916799999996,
          "velocity": 0.5905511811023622
        },
        {
          "duration": 0.09374400000001515,
          "durationTicks": 60,
          "midi": 81,
          "name": "A5",
          "ticks": 208440,
          "time": 325.666656,
          "velocity": 0.5905511811023622
        },
        {
          "duration": 0.08593200000001389,
          "durationTicks": 55,
          "midi": 81,
          "name": "A5",
          "ticks": 208560,
          "time": 325.85414399999996,
          "velocity": 0.5905511811023622
        },
        {
          "duration": 0.08593199999995704,
          "durationTicks": 55,
          "midi": 81,
          "name": "A5",
          "ticks": 208680,
          "time": 326.041632,
          "velocity": 0.5905511811023622
        },
        {
          "duration": 0.09374400000001515,
          "durationTicks": 60,
          "midi": 81,
          "name": "A5",
          "ticks": 208800,
          "time": 326.22911999999997,
          "velocity": 0.5826771653543307
        },
        {
          "duration": 0.0937439999999583,
          "durationTicks": 60,
          "midi": 81,
          "name": "A5",
          "ticks": 208920,
          "time": 326.416608,
          "velocity": 0.5826771653543307
        },
        {
          "duration": 0.09374400000001515,
          "durationTicks": 60,
          "midi": 81,
          "name": "A5",
          "ticks": 209040,
          "time": 326.60409599999997,
          "velocity": 0.5826771653543307
        },
        {
          "duration": 0.0937439999999583,
          "durationTicks": 60,
          "midi": 81,
          "name": "A5",
          "ticks": 209160,
          "time": 326.791584,
          "velocity": 0.5826771653543307
        },
        {
          "duration": 0.08593200000001389,
          "durationTicks": 55,
          "midi": 81,
          "name": "A5",
          "ticks": 209280,
          "time": 326.979072,
          "velocity": 0.5984251968503937
        },
        {
          "duration": 0.0937439999999583,
          "durationTicks": 60,
          "midi": 81,
          "name": "A5",
          "ticks": 209400,
          "time": 327.16656,
          "velocity": 0.5984251968503937
        },
        {
          "duration": 0.09374400000001515,
          "durationTicks": 60,
          "midi": 81,
          "name": "A5",
          "ticks": 209520,
          "time": 327.354048,
          "velocity": 0.5984251968503937
        },
        {
          "duration": 0.08593200000001389,
          "durationTicks": 55,
          "midi": 81,
          "name": "A5",
          "ticks": 209640,
          "time": 327.54153599999995,
          "velocity": 0.5984251968503937
        },
        {
          "duration": 0.08593199999995704,
          "durationTicks": 55,
          "midi": 81,
          "name": "A5",
          "ticks": 209760,
          "time": 327.729024,
          "velocity": 0.5984251968503937
        },
        {
          "duration": 0.09374400000001515,
          "durationTicks": 60,
          "midi": 81,
          "name": "A5",
          "ticks": 209880,
          "time": 327.91651199999995,
          "velocity": 0.5984251968503937
        },
        {
          "duration": 0.09374400000001515,
          "durationTicks": 60,
          "midi": 81,
          "name": "A5",
          "ticks": 210000,
          "time": 328.104,
          "velocity": 0.5905511811023622
        },
        {
          "duration": 0.09374400000001515,
          "durationTicks": 60,
          "midi": 81,
          "name": "A5",
          "ticks": 210120,
          "time": 328.29148799999996,
          "velocity": 0.5905511811023622
        },
        {
          "duration": 0.08593199999995704,
          "durationTicks": 55,
          "midi": 81,
          "name": "A5",
          "ticks": 210240,
          "time": 328.478976,
          "velocity": 0.5905511811023622
        },
        {
          "duration": 0.09374400000001515,
          "durationTicks": 60,
          "midi": 81,
          "name": "A5",
          "ticks": 210360,
          "time": 328.66646399999996,
          "velocity": 0.5905511811023622
        },
        {
          "duration": 0.0937439999999583,
          "durationTicks": 60,
          "midi": 81,
          "name": "A5",
          "ticks": 210480,
          "time": 328.853952,
          "velocity": 0.5905511811023622
        },
        {
          "duration": 0.09374400000001515,
          "durationTicks": 60,
          "midi": 81,
          "name": "A5",
          "ticks": 210600,
          "time": 329.04143999999997,
          "velocity": 0.5905511811023622
        },
        {
          "duration": 0.08593199999995704,
          "durationTicks": 55,
          "midi": 81,
          "name": "A5",
          "ticks": 210720,
          "time": 329.228928,
          "velocity": 0.5826771653543307
        },
        {
          "duration": 0.09374400000001515,
          "durationTicks": 60,
          "midi": 81,
          "name": "A5",
          "ticks": 210840,
          "time": 329.41641599999997,
          "velocity": 0.5826771653543307
        },
        {
          "duration": 0.0937439999999583,
          "durationTicks": 60,
          "midi": 81,
          "name": "A5",
          "ticks": 210960,
          "time": 329.603904,
          "velocity": 0.5826771653543307
        },
        {
          "duration": 0.09374400000001515,
          "durationTicks": 60,
          "midi": 81,
          "name": "A5",
          "ticks": 211080,
          "time": 329.791392,
          "velocity": 0.5826771653543307
        },
        {
          "duration": 0.07030799999995452,
          "durationTicks": 45,
          "midi": 81,
          "name": "A5",
          "ticks": 211200,
          "time": 329.97888,
          "velocity": 0.5984251968503937
        },
        {
          "duration": 0.09374400000001515,
          "durationTicks": 60,
          "midi": 81,
          "name": "A5",
          "ticks": 211320,
          "time": 330.166368,
          "velocity": 0.5984251968503937
        },
        {
          "duration": 0.08593200000001389,
          "durationTicks": 55,
          "midi": 81,
          "name": "A5",
          "ticks": 211440,
          "time": 330.35385599999995,
          "velocity": 0.5984251968503937
        },
        {
          "duration": 0.07812000000001262,
          "durationTicks": 50,
          "midi": 81,
          "name": "A5",
          "ticks": 211560,
          "time": 330.541344,
          "velocity": 0.5984251968503937
        },
        {
          "duration": 0.09374400000001515,
          "durationTicks": 60,
          "midi": 81,
          "name": "A5",
          "ticks": 211680,
          "time": 330.72883199999995,
          "velocity": 0.5984251968503937
        },
        {
          "duration": 0.09374400000001515,
          "durationTicks": 60,
          "midi": 81,
          "name": "A5",
          "ticks": 211800,
          "time": 330.91632,
          "velocity": 0.5984251968503937
        },
        {
          "duration": 0.09374400000001515,
          "durationTicks": 60,
          "midi": 81,
          "name": "A5",
          "ticks": 211920,
          "time": 331.10380799999996,
          "velocity": 0.5905511811023622
        },
        {
          "duration": 0.09374400000001515,
          "durationTicks": 60,
          "midi": 81,
          "name": "A5",
          "ticks": 212040,
          "time": 331.291296,
          "velocity": 0.5905511811023622
        },
        {
          "duration": 0.08593200000001389,
          "durationTicks": 55,
          "midi": 81,
          "name": "A5",
          "ticks": 212160,
          "time": 331.47878399999996,
          "velocity": 0.5905511811023622
        },
        {
          "duration": 0.0937439999999583,
          "durationTicks": 60,
          "midi": 81,
          "name": "A5",
          "ticks": 212280,
          "time": 331.666272,
          "velocity": 0.5905511811023622
        },
        {
          "duration": 0.08593200000001389,
          "durationTicks": 55,
          "midi": 81,
          "name": "A5",
          "ticks": 212400,
          "time": 331.85375999999997,
          "velocity": 0.5905511811023622
        },
        {
          "duration": 0.0937439999999583,
          "durationTicks": 60,
          "midi": 81,
          "name": "A5",
          "ticks": 212520,
          "time": 332.041248,
          "velocity": 0.5905511811023622
        },
        {
          "duration": 0.09374400000001515,
          "durationTicks": 60,
          "midi": 81,
          "name": "A5",
          "ticks": 212640,
          "time": 332.22873599999997,
          "velocity": 0.5826771653543307
        },
        {
          "duration": 0.0937439999999583,
          "durationTicks": 60,
          "midi": 81,
          "name": "A5",
          "ticks": 212760,
          "time": 332.416224,
          "velocity": 0.5826771653543307
        },
        {
          "duration": 0.09374400000001515,
          "durationTicks": 60,
          "midi": 81,
          "name": "A5",
          "ticks": 212880,
          "time": 332.603712,
          "velocity": 0.5826771653543307
        },
        {
          "duration": 0.08593199999995704,
          "durationTicks": 55,
          "midi": 81,
          "name": "A5",
          "ticks": 213000,
          "time": 332.7912,
          "velocity": 0.5826771653543307
        },
        {
          "duration": 5.765256000000022,
          "durationTicks": 3690,
          "midi": 50,
          "name": "D3",
          "ticks": 213120,
          "time": 332.978688,
          "velocity": 0.1732283464566929
        },
        {
          "duration": 5.132483999999977,
          "durationTicks": 3285,
          "midi": 57,
          "name": "A3",
          "ticks": 213120,
          "time": 332.978688,
          "velocity": 0.2677165354330709
        },
        {
          "duration": 5.593391999999994,
          "durationTicks": 3580,
          "midi": 57,
          "name": "A3",
          "ticks": 213120,
          "time": 332.978688,
          "velocity": 0.5826771653543307
        },
        {
          "duration": 5.609015999999997,
          "durationTicks": 3590,
          "midi": 62,
          "name": "D4",
          "ticks": 213120,
          "time": 332.978688,
          "velocity": 0.3228346456692913
        },
        {
          "duration": 5.132483999999977,
          "durationTicks": 3285,
          "midi": 66,
          "name": "F#4",
          "ticks": 213120,
          "time": 332.978688,
          "velocity": 0.3937007874015748
        },
        {
          "duration": 5.757443999999964,
          "durationTicks": 3685,
          "midi": 86,
          "name": "D6",
          "ticks": 213120,
          "time": 332.978688,
          "velocity": 0.1732283464566929
        }
      ]
    },
    {
      "channel": 0,
      "controlChanges": {
        "0": [
          {
            "number": 0,
            "ticks": 530,
            "time": 0.828072,
            "value": 0
          }
        ],
        "6": [
          {
            "number": 6,
            "ticks": 970,
            "time": 1.515528,
            "value": 0.33858267716535434
          },
          {
            "number": 6,
            "ticks": 985,
            "time": 1.538964,
            "value": 0.5669291338582677
          },
          {
            "number": 6,
            "ticks": 1000,
            "time": 1.5624,
            "value": 0.5826771653543307
          },
          {
            "number": 6,
            "ticks": 1015,
            "time": 1.585836,
            "value": 0.6456692913385826
          }
        ],
        "7": [
          {
            "number": 7,
            "ticks": 620,
            "time": 0.968688,
            "value": 0.7874015748031497
          },
          {
            "number": 7,
            "ticks": 216960,
            "time": 338.978304,
            "value": 0.7874015748031497
          }
        ],
        "10": [
          {
            "number": 10,
            "ticks": 620,
            "time": 0.968688,
            "value": 0.5039370078740157
          },
          {
            "number": 10,
            "ticks": 216960,
            "time": 338.978304,
            "value": 0.5039370078740157
          }
        ],
        "11": [
          {
            "number": 11,
            "ticks": 620,
            "time": 0.968688,
            "value": 1
          }
        ],
        "32": [
          {
            "number": 32,
            "ticks": 535,
            "time": 0.8358839999999998,
            "value": 0
          }
        ],
        "91": [
          {
            "number": 91,
            "ticks": 625,
            "time": 0.9764999999999999,
            "value": 0.6692913385826772
          },
          {
            "number": 91,
            "ticks": 625,
            "time": 0.9764999999999999,
            "value": 0.3937007874015748
          }
        ],
        "93": [
          {
            "number": 93,
            "ticks": 625,
            "time": 0.9764999999999999,
            "value": 0.5511811023622047
          },
          {
            "number": 93,
            "ticks": 625,
            "time": 0.9764999999999999,
            "value": 0.07874015748031496
          }
        ],
        "98": [
          {
            "number": 98,
            "ticks": 965,
            "time": 1.5077159999999998,
            "value": 0.06299212598425197
          },
          {
            "number": 98,
            "ticks": 980,
            "time": 1.5311519999999998,
            "value": 0.07086614173228346
          },
          {
            "number": 98,
            "ticks": 995,
            "time": 1.5545879999999999,
            "value": 0.07874015748031496
          },
          {
            "number": 98,
            "ticks": 1010,
            "time": 1.5780239999999999,
            "value": 0.8031496062992126
          }
        ],
        "99": [
          {
            "number": 99,
            "ticks": 960,
            "time": 1.499904,
            "value": 0.007874015748031496
          },
          {
            "number": 99,
            "ticks": 975,
            "time": 1.52334,
            "value": 0.007874015748031496
          },
          {
            "number": 99,
            "ticks": 990,
            "time": 1.546776,
            "value": 0.007874015748031496
          },
          {
            "number": 99,
            "ticks": 1005,
            "time": 1.570212,
            "value": 0.007874015748031496
          }
        ],
        "100": [
          {
            "number": 100,
            "ticks": 1025,
            "time": 1.6014599999999999,
            "value": 1
          }
        ],
        "101": [
          {
            "number": 101,
            "ticks": 1020,
            "time": 1.593648,
            "value": 1
          }
        ]
      },
      "pitchBends": [],
      "instrument": {
        "family": "piano",
        "number": 0,
        "name": "acoustic grand piano"
      },
      "name": "       ",
      "notes": [
        {
          "duration": 0.671832000000002,
          "durationTicks": 430,
          "midi": 46,
          "name": "A#2",
          "ticks": 13440,
          "time": 20.998655999999997,
          "velocity": 0.6456692913385826
        },
        {
          "duration": 0.6796440000000032,
          "durationTicks": 435,
          "midi": 50,
          "name": "D3",
          "ticks": 13440,
          "time": 20.998655999999997,
          "velocity": 0.44881889763779526
        },
        {
          "duration": 0.671832000000002,
          "durationTicks": 430,
          "midi": 53,
          "name": "F3",
          "ticks": 13440,
          "time": 20.998655999999997,
          "velocity": 0.5748031496062992
        },
        {
          "duration": 0.6483960000000017,
          "durationTicks": 415,
          "midi": 62,
          "name": "D4",
          "ticks": 13440,
          "time": 20.998655999999997,
          "velocity": 0.48031496062992124
        },
        {
          "duration": 1.3280400000000014,
          "durationTicks": 850,
          "midi": 62,
          "name": "D4",
          "ticks": 13440,
          "time": 20.998655999999997,
          "velocity": 0.3937007874015748
        },
        {
          "duration": 0.6483960000000017,
          "durationTicks": 415,
          "midi": 65,
          "name": "F4",
          "ticks": 13440,
          "time": 20.998655999999997,
          "velocity": 0.4881889763779528
        },
        {
          "duration": 0.6249600000000015,
          "durationTicks": 400,
          "midi": 46,
          "name": "A#2",
          "ticks": 13920,
          "time": 21.748607999999997,
          "velocity": 0.6456692913385826
        },
        {
          "duration": 0.6015240000000013,
          "durationTicks": 385,
          "midi": 50,
          "name": "D3",
          "ticks": 13920,
          "time": 21.748607999999997,
          "velocity": 0.49606299212598426
        },
        {
          "duration": 0.6171480000000038,
          "durationTicks": 395,
          "midi": 53,
          "name": "F3",
          "ticks": 13920,
          "time": 21.748607999999997,
          "velocity": 0.5748031496062992
        },
        {
          "duration": 0.578088000000001,
          "durationTicks": 370,
          "midi": 62,
          "name": "D4",
          "ticks": 13920,
          "time": 21.748607999999997,
          "velocity": 0.3937007874015748
        },
        {
          "duration": 0.5859000000000023,
          "durationTicks": 375,
          "midi": 65,
          "name": "F4",
          "ticks": 13920,
          "time": 21.748607999999997,
          "velocity": 0.47244094488188976
        },
        {
          "duration": 0.6718319999999984,
          "durationTicks": 430,
          "midi": 48,
          "name": "C3",
          "ticks": 14400,
          "time": 22.498559999999998,
          "velocity": 0.6456692913385826
        },
        {
          "duration": 0.6405840000000005,
          "durationTicks": 410,
          "midi": 51,
          "name": "D#3",
          "ticks": 14400,
          "time": 22.498559999999998,
          "velocity": 0.5748031496062992
        },
        {
          "duration": 0.6327719999999992,
          "durationTicks": 405,
          "midi": 55,
          "name": "G3",
          "ticks": 14400,
          "time": 22.498559999999998,
          "velocity": 0.5905511811023622
        },
        {
          "duration": 0.6327719999999992,
          "durationTicks": 405,
          "midi": 63,
          "name": "D#4",
          "ticks": 14400,
          "time": 22.498559999999998,
          "velocity": 0.4881889763779528
        },
        {
          "duration": 1.3124160000000025,
          "durationTicks": 840,
          "midi": 63,
          "name": "D#4",
          "ticks": 14400,
          "time": 22.498559999999998,
          "velocity": 0.48031496062992124
        },
        {
          "duration": 0.6249600000000015,
          "durationTicks": 400,
          "midi": 67,
          "name": "G4",
          "ticks": 14400,
          "time": 22.498559999999998,
          "velocity": 0.5354330708661418
        },
        {
          "duration": 0.6015240000000013,
          "durationTicks": 385,
          "midi": 48,
          "name": "C3",
          "ticks": 14880,
          "time": 23.248511999999998,
          "velocity": 0.6456692913385826
        },
        {
          "duration": 0.609335999999999,
          "durationTicks": 390,
          "midi": 51,
          "name": "D#3",
          "ticks": 14880,
          "time": 23.248511999999998,
          "velocity": 0.5275590551181102
        },
        {
          "duration": 0.593712,
          "durationTicks": 380,
          "midi": 55,
          "name": "G3",
          "ticks": 14880,
          "time": 23.248511999999998,
          "velocity": 0.5433070866141733
        },
        {
          "duration": 0.593712,
          "durationTicks": 380,
          "midi": 63,
          "name": "D#4",
          "ticks": 14880,
          "time": 23.248511999999998,
          "velocity": 0.3779527559055118
        },
        {
          "duration": 0.5702759999999998,
          "durationTicks": 365,
          "midi": 67,
          "name": "G4",
          "ticks": 14880,
          "time": 23.248511999999998,
          "velocity": 0.4409448818897638
        },
        {
          "duration": 0.671832000000002,
          "durationTicks": 430,
          "midi": 50,
          "name": "D3",
          "ticks": 15360,
          "time": 23.998464,
          "velocity": 0.6456692913385826
        },
        {
          "duration": 0.6483960000000017,
          "durationTicks": 415,
          "midi": 53,
          "name": "F3",
          "ticks": 15360,
          "time": 23.998464,
          "velocity": 0.5590551181102362
        },
        {
          "duration": 0.6562079999999995,
          "durationTicks": 420,
          "midi": 57,
          "name": "A3",
          "ticks": 15360,
          "time": 23.998464,
          "velocity": 0.5748031496062992
        },
        {
          "duration": 0.6405839999999969,
          "durationTicks": 410,
          "midi": 65,
          "name": "F4",
          "ticks": 15360,
          "time": 23.998464,
          "velocity": 0.5196850393700787
        },
        {
          "duration": 1.3202279999999966,
          "durationTicks": 845,
          "midi": 65,
          "name": "F4",
          "ticks": 15360,
          "time": 23.998464,
          "velocity": 0.48031496062992124
        },
        {
          "duration": 0.6327719999999992,
          "durationTicks": 405,
          "midi": 69,
          "name": "A4",
          "ticks": 15360,
          "time": 23.998464,
          "velocity": 0.5039370078740157
        },
        {
          "duration": 0.6483960000000017,
          "durationTicks": 415,
          "midi": 50,
          "name": "D3",
          "ticks": 15840,
          "time": 24.748416,
          "velocity": 0.6456692913385826
        },
        {
          "duration": 0.609335999999999,
          "durationTicks": 390,
          "midi": 53,
          "name": "F3",
          "ticks": 15840,
          "time": 24.748416,
          "velocity": 0.5748031496062992
        },
        {
          "duration": 0.578088000000001,
          "durationTicks": 370,
          "midi": 57,
          "name": "A3",
          "ticks": 15840,
          "time": 24.748416,
          "velocity": 0.4645669291338583
        },
        {
          "duration": 0.5858999999999988,
          "durationTicks": 375,
          "midi": 65,
          "name": "F4",
          "ticks": 15840,
          "time": 24.748416,
          "velocity": 0.5039370078740157
        },
        {
          "duration": 0.578088000000001,
          "durationTicks": 370,
          "midi": 69,
          "name": "A4",
          "ticks": 15840,
          "time": 24.748416,
          "velocity": 0.4566929133858268
        },
        {
          "duration": 0.5858999999999988,
          "durationTicks": 375,
          "midi": 48,
          "name": "C3",
          "ticks": 16320,
          "time": 25.498368,
          "velocity": 0.6377952755905512
        },
        {
          "duration": 0.5937119999999965,
          "durationTicks": 380,
          "midi": 51,
          "name": "D#3",
          "ticks": 16320,
          "time": 25.498368,
          "velocity": 0.44881889763779526
        },
        {
          "duration": 0.6015240000000013,
          "durationTicks": 385,
          "midi": 55,
          "name": "G3",
          "ticks": 16320,
          "time": 25.498368,
          "velocity": 0.4330708661417323
        },
        {
          "duration": 0.5702759999999962,
          "durationTicks": 365,
          "midi": 63,
          "name": "D#4",
          "ticks": 16320,
          "time": 25.498368,
          "velocity": 0.33070866141732286
        },
        {
          "duration": 1.3202279999999966,
          "durationTicks": 845,
          "midi": 63,
          "name": "D#4",
          "ticks": 16320,
          "time": 25.498368,
          "velocity": 0.48031496062992124
        },
        {
          "duration": 0.5702759999999962,
          "durationTicks": 365,
          "midi": 67,
          "name": "G4",
          "ticks": 16320,
          "time": 25.498368,
          "velocity": 0.3779527559055118
        },
        {
          "duration": 0.5234039999999958,
          "durationTicks": 335,
          "midi": 48,
          "name": "C3",
          "ticks": 16800,
          "time": 26.24832,
          "velocity": 0.6299212598425197
        },
        {
          "duration": 0.515591999999998,
          "durationTicks": 330,
          "midi": 51,
          "name": "D#3",
          "ticks": 16800,
          "time": 26.24832,
          "velocity": 0.49606299212598426
        },
        {
          "duration": 0.5077800000000003,
          "durationTicks": 325,
          "midi": 55,
          "name": "G3",
          "ticks": 16800,
          "time": 26.24832,
          "velocity": 0.49606299212598426
        },
        {
          "duration": 0.578088000000001,
          "durationTicks": 370,
          "midi": 63,
          "name": "D#4",
          "ticks": 16800,
          "time": 26.24832,
          "velocity": 0.4094488188976378
        },
        {
          "duration": 0.5937119999999965,
          "durationTicks": 380,
          "midi": 67,
          "name": "G4",
          "ticks": 16800,
          "time": 26.24832,
          "velocity": 0.4566929133858268
        },
        {
          "duration": 0.6796439999999997,
          "durationTicks": 435,
          "midi": 46,
          "name": "A#2",
          "ticks": 17280,
          "time": 26.998272,
          "velocity": 0.6456692913385826
        },
        {
          "duration": 0.6718319999999984,
          "durationTicks": 430,
          "midi": 50,
          "name": "D3",
          "ticks": 17280,
          "time": 26.998272,
          "velocity": 0.44881889763779526
        },
        {
          "duration": 0.6718319999999984,
          "durationTicks": 430,
          "midi": 53,
          "name": "F3",
          "ticks": 17280,
          "time": 26.998272,
          "velocity": 0.5748031496062992
        },
        {
          "duration": 0.6483959999999982,
          "durationTicks": 415,
          "midi": 62,
          "name": "D4",
          "ticks": 17280,
          "time": 26.998272,
          "velocity": 0.3937007874015748
        },
        {
          "duration": 1.3280400000000014,
          "durationTicks": 850,
          "midi": 62,
          "name": "D4",
          "ticks": 17280,
          "time": 26.998272,
          "velocity": 0.48031496062992124
        },
        {
          "duration": 0.6483959999999982,
          "durationTicks": 415,
          "midi": 65,
          "name": "F4",
          "ticks": 17280,
          "time": 26.998272,
          "velocity": 0.4881889763779528
        },
        {
          "duration": 0.6249600000000015,
          "durationTicks": 400,
          "midi": 46,
          "name": "A#2",
          "ticks": 17760,
          "time": 27.748223999999997,
          "velocity": 0.6456692913385826
        },
        {
          "duration": 0.6015240000000048,
          "durationTicks": 385,
          "midi": 50,
          "name": "D3",
          "ticks": 17760,
          "time": 27.748223999999997,
          "velocity": 0.49606299212598426
        },
        {
          "duration": 0.6249600000000015,
          "durationTicks": 400,
          "midi": 53,
          "name": "F3",
          "ticks": 17760,
          "time": 27.748223999999997,
          "velocity": 0.5748031496062992
        },
        {
          "duration": 0.5780880000000046,
          "durationTicks": 370,
          "midi": 62,
          "name": "D4",
          "ticks": 17760,
          "time": 27.748223999999997,
          "velocity": 0.3937007874015748
        },
        {
          "duration": 0.5859000000000023,
          "durationTicks": 375,
          "midi": 65,
          "name": "F4",
          "ticks": 17760,
          "time": 27.748223999999997,
          "velocity": 0.47244094488188976
        },
        {
          "duration": 0.671832000000002,
          "durationTicks": 430,
          "midi": 48,
          "name": "C3",
          "ticks": 18240,
          "time": 28.498175999999997,
          "velocity": 0.6456692913385826
        },
        {
          "duration": 0.6483960000000017,
          "durationTicks": 415,
          "midi": 51,
          "name": "D#3",
          "ticks": 18240,
          "time": 28.498175999999997,
          "velocity": 0.5748031496062992
        },
        {
          "duration": 0.6327719999999992,
          "durationTicks": 405,
          "midi": 55,
          "name": "G3",
          "ticks": 18240,
          "time": 28.498175999999997,
          "velocity": 0.5905511811023622
        },
        {
          "duration": 0.6327719999999992,
          "durationTicks": 405,
          "midi": 63,
          "name": "D#4",
          "ticks": 18240,
          "time": 28.498175999999997,
          "velocity": 0.4881889763779528
        },
        {
          "duration": 1.3124160000000025,
          "durationTicks": 840,
          "midi": 63,
          "name": "D#4",
          "ticks": 18240,
          "time": 28.498175999999997,
          "velocity": 0.48031496062992124
        },
        {
          "duration": 0.6249600000000015,
          "durationTicks": 400,
          "midi": 67,
          "name": "G4",
          "ticks": 18240,
          "time": 28.498175999999997,
          "velocity": 0.5354330708661418
        },
        {
          "duration": 0.6015240000000013,
          "durationTicks": 385,
          "midi": 48,
          "name": "C3",
          "ticks": 18720,
          "time": 29.248127999999998,
          "velocity": 0.6456692913385826
        },
        {
          "duration": 0.609335999999999,
          "durationTicks": 390,
          "midi": 51,
          "name": "D#3",
          "ticks": 18720,
          "time": 29.248127999999998,
          "velocity": 0.5275590551181102
        },
        {
          "duration": 0.593712,
          "durationTicks": 380,
          "midi": 55,
          "name": "G3",
          "ticks": 18720,
          "time": 29.248127999999998,
          "velocity": 0.5433070866141733
        },
        {
          "duration": 0.578088000000001,
          "durationTicks": 370,
          "midi": 63,
          "name": "D#4",
          "ticks": 18720,
          "time": 29.248127999999998,
          "velocity": 0.3779527559055118
        },
        {
          "duration": 0.5702759999999998,
          "durationTicks": 365,
          "midi": 67,
          "name": "G4",
          "ticks": 18720,
          "time": 29.248127999999998,
          "velocity": 0.4409448818897638
        },
        {
          "duration": 0.6640199999999972,
          "durationTicks": 425,
          "midi": 50,
          "name": "D3",
          "ticks": 19200,
          "time": 29.998079999999998,
          "velocity": 0.6456692913385826
        },
        {
          "duration": 0.6562079999999995,
          "durationTicks": 420,
          "midi": 53,
          "name": "F3",
          "ticks": 19200,
          "time": 29.998079999999998,
          "velocity": 0.5590551181102362
        },
        {
          "duration": 0.6562079999999995,
          "durationTicks": 420,
          "midi": 57,
          "name": "A3",
          "ticks": 19200,
          "time": 29.998079999999998,
          "velocity": 0.5748031496062992
        },
        {
          "duration": 0.6483960000000017,
          "durationTicks": 415,
          "midi": 65,
          "name": "F4",
          "ticks": 19200,
          "time": 29.998079999999998,
          "velocity": 0.5196850393700787
        },
        {
          "duration": 1.3358519999999992,
          "durationTicks": 855,
          "midi": 65,
          "name": "F4",
          "ticks": 19200,
          "time": 29.998079999999998,
          "velocity": 0.48031496062992124
        },
        {
          "duration": 0.6327719999999992,
          "durationTicks": 405,
          "midi": 69,
          "name": "A4",
          "ticks": 19200,
          "time": 29.998079999999998,
          "velocity": 0.5039370078740157
        },
        {
          "duration": 0.6562079999999995,
          "durationTicks": 420,
          "midi": 50,
          "name": "D3",
          "ticks": 19680,
          "time": 30.748032,
          "velocity": 0.6456692913385826
        },
        {
          "duration": 0.609335999999999,
          "durationTicks": 390,
          "midi": 53,
          "name": "F3",
          "ticks": 19680,
          "time": 30.748032,
          "velocity": 0.5748031496062992
        },
        {
          "duration": 0.578088000000001,
          "durationTicks": 370,
          "midi": 57,
          "name": "A3",
          "ticks": 19680,
          "time": 30.748032,
          "velocity": 0.4645669291338583
        },
        {
          "duration": 0.5937119999999965,
          "durationTicks": 380,
          "midi": 65,
          "name": "F4",
          "ticks": 19680,
          "time": 30.748032,
          "velocity": 0.5039370078740157
        },
        {
          "duration": 0.578088000000001,
          "durationTicks": 370,
          "midi": 69,
          "name": "A4",
          "ticks": 19680,
          "time": 30.748032,
          "velocity": 0.4566929133858268
        },
        {
          "duration": 0.5858999999999988,
          "durationTicks": 375,
          "midi": 48,
          "name": "C3",
          "ticks": 20160,
          "time": 31.497984,
          "velocity": 0.6377952755905512
        },
        {
          "duration": 0.593712,
          "durationTicks": 380,
          "midi": 51,
          "name": "D#3",
          "ticks": 20160,
          "time": 31.497984,
          "velocity": 0.44881889763779526
        },
        {
          "duration": 0.6015240000000013,
          "durationTicks": 385,
          "midi": 55,
          "name": "G3",
          "ticks": 20160,
          "time": 31.497984,
          "velocity": 0.4330708661417323
        },
        {
          "duration": 0.5702759999999962,
          "durationTicks": 365,
          "midi": 63,
          "name": "D#4",
          "ticks": 20160,
          "time": 31.497984,
          "velocity": 0.33070866141732286
        },
        {
          "duration": 1.2889799999999987,
          "durationTicks": 825,
          "midi": 63,
          "name": "D#4",
          "ticks": 20160,
          "time": 31.497984,
          "velocity": 0.48031496062992124
        },
        {
          "duration": 0.5702759999999962,
          "durationTicks": 365,
          "midi": 67,
          "name": "G4",
          "ticks": 20160,
          "time": 31.497984,
          "velocity": 0.3779527559055118
        },
        {
          "duration": 0.5234039999999993,
          "durationTicks": 335,
          "midi": 48,
          "name": "C3",
          "ticks": 20640,
          "time": 32.247935999999996,
          "velocity": 0.6299212598425197
        },
        {
          "duration": 0.5155920000000052,
          "durationTicks": 330,
          "midi": 51,
          "name": "D#3",
          "ticks": 20640,
          "time": 32.247935999999996,
          "velocity": 0.49606299212598426
        },
        {
          "duration": 0.5077800000000039,
          "durationTicks": 325,
          "midi": 55,
          "name": "G3",
          "ticks": 20640,
          "time": 32.247935999999996,
          "velocity": 0.49606299212598426
        },
        {
          "duration": 0.578088000000001,
          "durationTicks": 370,
          "midi": 63,
          "name": "D#4",
          "ticks": 20640,
          "time": 32.247935999999996,
          "velocity": 0.4094488188976378
        },
        {
          "duration": 0.5937120000000036,
          "durationTicks": 380,
          "midi": 67,
          "name": "G4",
          "ticks": 20640,
          "time": 32.247935999999996,
          "velocity": 0.4566929133858268
        },
        {
          "duration": 0.6796440000000032,
          "durationTicks": 435,
          "midi": 46,
          "name": "A#2",
          "ticks": 21120,
          "time": 32.997887999999996,
          "velocity": 0.6456692913385826
        },
        {
          "duration": 0.6796440000000032,
          "durationTicks": 435,
          "midi": 50,
          "name": "D3",
          "ticks": 21120,
          "time": 32.997887999999996,
          "velocity": 0.44881889763779526
        },
        {
          "duration": 0.671832000000002,
          "durationTicks": 430,
          "midi": 53,
          "name": "F3",
          "ticks": 21120,
          "time": 32.997887999999996,
          "velocity": 0.5748031496062992
        },
        {
          "duration": 0.6483960000000053,
          "durationTicks": 415,
          "midi": 62,
          "name": "D4",
          "ticks": 21120,
          "time": 32.997887999999996,
          "velocity": 0.3937007874015748
        },
        {
          "duration": 1.3280400000000014,
          "durationTicks": 850,
          "midi": 62,
          "name": "D4",
          "ticks": 21120,
          "time": 32.997887999999996,
          "velocity": 0.48031496062992124
        },
        {
          "duration": 0.6483960000000053,
          "durationTicks": 415,
          "midi": 65,
          "name": "F4",
          "ticks": 21120,
          "time": 32.997887999999996,
          "velocity": 0.4881889763779528
        },
        {
          "duration": 0.6249600000000015,
          "durationTicks": 400,
          "midi": 46,
          "name": "A#2",
          "ticks": 21600,
          "time": 33.74784,
          "velocity": 0.6456692913385826
        },
        {
          "duration": 0.6015240000000048,
          "durationTicks": 385,
          "midi": 50,
          "name": "D3",
          "ticks": 21600,
          "time": 33.74784,
          "velocity": 0.49606299212598426
        },
        {
          "duration": 0.6249600000000015,
          "durationTicks": 400,
          "midi": 53,
          "name": "F3",
          "ticks": 21600,
          "time": 33.74784,
          "velocity": 0.5748031496062992
        },
        {
          "duration": 0.578088000000001,
          "durationTicks": 370,
          "midi": 62,
          "name": "D4",
          "ticks": 21600,
          "time": 33.74784,
          "velocity": 0.3937007874015748
        },
        {
          "duration": 0.5859000000000023,
          "durationTicks": 375,
          "midi": 65,
          "name": "F4",
          "ticks": 21600,
          "time": 33.74784,
          "velocity": 0.47244094488188976
        },
        {
          "duration": 0.671832000000002,
          "durationTicks": 430,
          "midi": 48,
          "name": "C3",
          "ticks": 22080,
          "time": 34.497792,
          "velocity": 0.6456692913385826
        },
        {
          "duration": 0.6483960000000053,
          "durationTicks": 415,
          "midi": 51,
          "name": "D#3",
          "ticks": 22080,
          "time": 34.497792,
          "velocity": 0.5748031496062992
        },
        {
          "duration": 0.6327720000000028,
          "durationTicks": 405,
          "midi": 55,
          "name": "G3",
          "ticks": 22080,
          "time": 34.497792,
          "velocity": 0.5905511811023622
        },
        {
          "duration": 0.6327720000000028,
          "durationTicks": 405,
          "midi": 63,
          "name": "D#4",
          "ticks": 22080,
          "time": 34.497792,
          "velocity": 0.4881889763779528
        },
        {
          "duration": 1.312415999999999,
          "durationTicks": 840,
          "midi": 63,
          "name": "D#4",
          "ticks": 22080,
          "time": 34.497792,
          "velocity": 0.48031496062992124
        },
        {
          "duration": 0.6249600000000015,
          "durationTicks": 400,
          "midi": 67,
          "name": "G4",
          "ticks": 22080,
          "time": 34.497792,
          "velocity": 0.5354330708661418
        },
        {
          "duration": 0.6015240000000048,
          "durationTicks": 385,
          "midi": 48,
          "name": "C3",
          "ticks": 22560,
          "time": 35.247744,
          "velocity": 0.6456692913385826
        },
        {
          "duration": 0.609335999999999,
          "durationTicks": 390,
          "midi": 51,
          "name": "D#3",
          "ticks": 22560,
          "time": 35.247744,
          "velocity": 0.5275590551181102
        },
        {
          "duration": 0.5937119999999965,
          "durationTicks": 380,
          "midi": 55,
          "name": "G3",
          "ticks": 22560,
          "time": 35.247744,
          "velocity": 0.5433070866141733
        },
        {
          "duration": 0.5937119999999965,
          "durationTicks": 380,
          "midi": 63,
          "name": "D#4",
          "ticks": 22560,
          "time": 35.247744,
          "velocity": 0.3779527559055118
        },
        {
          "duration": 0.5702759999999998,
          "durationTicks": 365,
          "midi": 67,
          "name": "G4",
          "ticks": 22560,
          "time": 35.247744,
          "velocity": 0.4409448818897638
        },
        {
          "duration": 0.671832000000002,
          "durationTicks": 430,
          "midi": 50,
          "name": "D3",
          "ticks": 23040,
          "time": 35.997696,
          "velocity": 0.6456692913385826
        },
        {
          "duration": 0.6483959999999982,
          "durationTicks": 415,
          "midi": 53,
          "name": "F3",
          "ticks": 23040,
          "time": 35.997696,
          "velocity": 0.5590551181102362
        },
        {
          "duration": 0.6562079999999995,
          "durationTicks": 420,
          "midi": 57,
          "name": "A3",
          "ticks": 23040,
          "time": 35.997696,
          "velocity": 0.5748031496062992
        },
        {
          "duration": 0.6405839999999969,
          "durationTicks": 410,
          "midi": 65,
          "name": "F4",
          "ticks": 23040,
          "time": 35.997696,
          "velocity": 0.5196850393700787
        },
        {
          "duration": 1.3202280000000002,
          "durationTicks": 845,
          "midi": 65,
          "name": "F4",
          "ticks": 23040,
          "time": 35.997696,
          "velocity": 0.48031496062992124
        },
        {
          "duration": 0.6327720000000028,
          "durationTicks": 405,
          "midi": 69,
          "name": "A4",
          "ticks": 23040,
          "time": 35.997696,
          "velocity": 0.5039370078740157
        },
        {
          "duration": 0.6562079999999995,
          "durationTicks": 420,
          "midi": 50,
          "name": "D3",
          "ticks": 23520,
          "time": 36.747648,
          "velocity": 0.6456692913385826
        },
        {
          "duration": 0.609335999999999,
          "durationTicks": 390,
          "midi": 53,
          "name": "F3",
          "ticks": 23520,
          "time": 36.747648,
          "velocity": 0.5748031496062992
        },
        {
          "duration": 0.578088000000001,
          "durationTicks": 370,
          "midi": 57,
          "name": "A3",
          "ticks": 23520,
          "time": 36.747648,
          "velocity": 0.4645669291338583
        },
        {
          "duration": 0.5859000000000023,
          "durationTicks": 375,
          "midi": 65,
          "name": "F4",
          "ticks": 23520,
          "time": 36.747648,
          "velocity": 0.5039370078740157
        },
        {
          "duration": 0.578088000000001,
          "durationTicks": 370,
          "midi": 69,
          "name": "A4",
          "ticks": 23520,
          "time": 36.747648,
          "velocity": 0.4566929133858268
        },
        {
          "duration": 0.5859000000000023,
          "durationTicks": 375,
          "midi": 48,
          "name": "C3",
          "ticks": 24000,
          "time": 37.4976,
          "velocity": 0.6377952755905512
        },
        {
          "duration": 0.5937119999999965,
          "durationTicks": 380,
          "midi": 51,
          "name": "D#3",
          "ticks": 24000,
          "time": 37.4976,
          "velocity": 0.44881889763779526
        },
        {
          "duration": 0.5937119999999965,
          "durationTicks": 380,
          "midi": 55,
          "name": "G3",
          "ticks": 24000,
          "time": 37.4976,
          "velocity": 0.4330708661417323
        },
        {
          "duration": 0.5702759999999998,
          "durationTicks": 365,
          "midi": 63,
          "name": "D#4",
          "ticks": 24000,
          "time": 37.4976,
          "velocity": 0.33070866141732286
        },
        {
          "duration": 1.3202280000000002,
          "durationTicks": 845,
          "midi": 63,
          "name": "D#4",
          "ticks": 24000,
          "time": 37.4976,
          "velocity": 0.48031496062992124
        },
        {
          "duration": 0.5702759999999998,
          "durationTicks": 365,
          "midi": 67,
          "name": "G4",
          "ticks": 24000,
          "time": 37.4976,
          "velocity": 0.3779527559055118
        },
        {
          "duration": 0.5234039999999993,
          "durationTicks": 335,
          "midi": 48,
          "name": "C3",
          "ticks": 24480,
          "time": 38.247552,
          "velocity": 0.6299212598425197
        },
        {
          "duration": 0.515591999999998,
          "durationTicks": 330,
          "midi": 51,
          "name": "D#3",
          "ticks": 24480,
          "time": 38.247552,
          "velocity": 0.49606299212598426
        },
        {
          "duration": 0.4999679999999955,
          "durationTicks": 320,
          "midi": 55,
          "name": "G3",
          "ticks": 24480,
          "time": 38.247552,
          "velocity": 0.49606299212598426
        },
        {
          "duration": 0.578088000000001,
          "durationTicks": 370,
          "midi": 63,
          "name": "D#4",
          "ticks": 24480,
          "time": 38.247552,
          "velocity": 0.4094488188976378
        },
        {
          "duration": 0.5937119999999965,
          "durationTicks": 380,
          "midi": 67,
          "name": "G4",
          "ticks": 24480,
          "time": 38.247552,
          "velocity": 0.4566929133858268
        },
        {
          "duration": 0.6796439999999961,
          "durationTicks": 435,
          "midi": 46,
          "name": "A#2",
          "ticks": 24960,
          "time": 38.997504,
          "velocity": 0.6456692913385826
        },
        {
          "duration": 0.6796439999999961,
          "durationTicks": 435,
          "midi": 50,
          "name": "D3",
          "ticks": 24960,
          "time": 38.997504,
          "velocity": 0.44881889763779526
        },
        {
          "duration": 0.671832000000002,
          "durationTicks": 430,
          "midi": 53,
          "name": "F3",
          "ticks": 24960,
          "time": 38.997504,
          "velocity": 0.5748031496062992
        },
        {
          "duration": 0.6483959999999982,
          "durationTicks": 415,
          "midi": 62,
          "name": "D4",
          "ticks": 24960,
          "time": 38.997504,
          "velocity": 0.3937007874015748
        },
        {
          "duration": 1.3280400000000014,
          "durationTicks": 850,
          "midi": 62,
          "name": "D4",
          "ticks": 24960,
          "time": 38.997504,
          "velocity": 0.48031496062992124
        },
        {
          "duration": 0.6483959999999982,
          "durationTicks": 415,
          "midi": 65,
          "name": "F4",
          "ticks": 24960,
          "time": 38.997504,
          "velocity": 0.4881889763779528
        },
        {
          "duration": 0.6249600000000015,
          "durationTicks": 400,
          "midi": 46,
          "name": "A#2",
          "ticks": 25440,
          "time": 39.747456,
          "velocity": 0.6456692913385826
        },
        {
          "duration": 0.6015239999999977,
          "durationTicks": 385,
          "midi": 50,
          "name": "D3",
          "ticks": 25440,
          "time": 39.747456,
          "velocity": 0.49606299212598426
        },
        {
          "duration": 0.6171479999999931,
          "durationTicks": 395,
          "midi": 53,
          "name": "F3",
          "ticks": 25440,
          "time": 39.747456,
          "velocity": 0.5748031496062992
        },
        {
          "duration": 0.578088000000001,
          "durationTicks": 370,
          "midi": 62,
          "name": "D4",
          "ticks": 25440,
          "time": 39.747456,
          "velocity": 0.3937007874015748
        },
        {
          "duration": 0.5858999999999952,
          "durationTicks": 375,
          "midi": 65,
          "name": "F4",
          "ticks": 25440,
          "time": 39.747456,
          "velocity": 0.47244094488188976
        },
        {
          "duration": 0.671832000000002,
          "durationTicks": 430,
          "midi": 48,
          "name": "C3",
          "ticks": 25920,
          "time": 40.497408,
          "velocity": 0.6456692913385826
        },
        {
          "duration": 0.6483959999999982,
          "durationTicks": 415,
          "midi": 51,
          "name": "D#3",
          "ticks": 25920,
          "time": 40.497408,
          "velocity": 0.5748031496062992
        },
        {
          "duration": 0.6327719999999957,
          "durationTicks": 405,
          "midi": 55,
          "name": "G3",
          "ticks": 25920,
          "time": 40.497408,
          "velocity": 0.5905511811023622
        },
        {
          "duration": 0.6327719999999957,
          "durationTicks": 405,
          "midi": 63,
          "name": "D#4",
          "ticks": 25920,
          "time": 40.497408,
          "velocity": 0.4881889763779528
        },
        {
          "duration": 1.312415999999999,
          "durationTicks": 840,
          "midi": 63,
          "name": "D#4",
          "ticks": 25920,
          "time": 40.497408,
          "velocity": 0.48031496062992124
        },
        {
          "duration": 0.6249600000000015,
          "durationTicks": 400,
          "midi": 67,
          "name": "G4",
          "ticks": 25920,
          "time": 40.497408,
          "velocity": 0.5354330708661418
        },
        {
          "duration": 0.6015239999999977,
          "durationTicks": 385,
          "midi": 48,
          "name": "C3",
          "ticks": 26400,
          "time": 41.24736,
          "velocity": 0.6456692913385826
        },
        {
          "duration": 0.609335999999999,
          "durationTicks": 390,
          "midi": 51,
          "name": "D#3",
          "ticks": 26400,
          "time": 41.24736,
          "velocity": 0.5275590551181102
        },
        {
          "duration": 0.5937119999999965,
          "durationTicks": 380,
          "midi": 55,
          "name": "G3",
          "ticks": 26400,
          "time": 41.24736,
          "velocity": 0.5433070866141733
        },
        {
          "duration": 0.578088000000001,
          "durationTicks": 370,
          "midi": 63,
          "name": "D#4",
          "ticks": 26400,
          "time": 41.24736,
          "velocity": 0.3779527559055118
        },
        {
          "duration": 0.5702759999999927,
          "durationTicks": 365,
          "midi": 67,
          "name": "G4",
          "ticks": 26400,
          "time": 41.24736,
          "velocity": 0.4409448818897638
        },
        {
          "duration": 0.6640200000000007,
          "durationTicks": 425,
          "midi": 50,
          "name": "D3",
          "ticks": 26880,
          "time": 41.997311999999994,
          "velocity": 0.6456692913385826
        },
        {
          "duration": 0.6562080000000066,
          "durationTicks": 420,
          "midi": 53,
          "name": "F3",
          "ticks": 26880,
          "time": 41.997311999999994,
          "velocity": 0.5590551181102362
        },
        {
          "duration": 0.6483960000000053,
          "durationTicks": 415,
          "midi": 57,
          "name": "A3",
          "ticks": 26880,
          "time": 41.997311999999994,
          "velocity": 0.5748031496062992
        },
        {
          "duration": 0.6483960000000053,
          "durationTicks": 415,
          "midi": 65,
          "name": "F4",
          "ticks": 26880,
          "time": 41.997311999999994,
          "velocity": 0.5196850393700787
        },
        {
          "duration": 1.343664000000004,
          "durationTicks": 860,
          "midi": 65,
          "name": "F4",
          "ticks": 26880,
          "time": 41.997311999999994,
          "velocity": 0.48031496062992124
        },
        {
          "duration": 0.6327720000000028,
          "durationTicks": 405,
          "midi": 69,
          "name": "A4",
          "ticks": 26880,
          "time": 41.997311999999994,
          "velocity": 0.5039370078740157
        },
        {
          "duration": 0.6562080000000066,
          "durationTicks": 420,
          "midi": 50,
          "name": "D3",
          "ticks": 27360,
          "time": 42.747263999999994,
          "velocity": 0.6456692913385826
        },
        {
          "duration": 0.6093360000000061,
          "durationTicks": 390,
          "midi": 53,
          "name": "F3",
          "ticks": 27360,
          "time": 42.747263999999994,
          "velocity": 0.5748031496062992
        },
        {
          "duration": 0.5780880000000082,
          "durationTicks": 370,
          "midi": 57,
          "name": "A3",
          "ticks": 27360,
          "time": 42.747263999999994,
          "velocity": 0.4645669291338583
        },
        {
          "duration": 0.6015240000000048,
          "durationTicks": 385,
          "midi": 65,
          "name": "F4",
          "ticks": 27360,
          "time": 42.747263999999994,
          "velocity": 0.5039370078740157
        },
        {
          "duration": 0.5780880000000082,
          "durationTicks": 370,
          "midi": 69,
          "name": "A4",
          "ticks": 27360,
          "time": 42.747263999999994,
          "velocity": 0.4566929133858268
        },
        {
          "duration": 0.5859000000000023,
          "durationTicks": 375,
          "midi": 48,
          "name": "C3",
          "ticks": 27840,
          "time": 43.497215999999995,
          "velocity": 0.6377952755905512
        },
        {
          "duration": 0.5937120000000036,
          "durationTicks": 380,
          "midi": 51,
          "name": "D#3",
          "ticks": 27840,
          "time": 43.497215999999995,
          "velocity": 0.44881889763779526
        },
        {
          "duration": 0.6015240000000048,
          "durationTicks": 385,
          "midi": 55,
          "name": "G3",
          "ticks": 27840,
          "time": 43.497215999999995,
          "velocity": 0.4330708661417323
        },
        {
          "duration": 0.5702759999999998,
          "durationTicks": 365,
          "midi": 63,
          "name": "D#4",
          "ticks": 27840,
          "time": 43.497215999999995,
          "velocity": 0.33070866141732286
        },
        {
          "duration": 1.2889800000000022,
          "durationTicks": 825,
          "midi": 63,
          "name": "D#4",
          "ticks": 27840,
          "time": 43.497215999999995,
          "velocity": 0.48031496062992124
        },
        {
          "duration": 0.5702759999999998,
          "durationTicks": 365,
          "midi": 67,
          "name": "G4",
          "ticks": 27840,
          "time": 43.497215999999995,
          "velocity": 0.3779527559055118
        },
        {
          "duration": 0.5234039999999993,
          "durationTicks": 335,
          "midi": 48,
          "name": "C3",
          "ticks": 28320,
          "time": 44.247167999999995,
          "velocity": 0.6299212598425197
        },
        {
          "duration": 0.5155920000000052,
          "durationTicks": 330,
          "midi": 51,
          "name": "D#3",
          "ticks": 28320,
          "time": 44.247167999999995,
          "velocity": 0.49606299212598426
        },
        {
          "duration": 0.5077800000000039,
          "durationTicks": 325,
          "midi": 55,
          "name": "G3",
          "ticks": 28320,
          "time": 44.247167999999995,
          "velocity": 0.49606299212598426
        },
        {
          "duration": 0.578088000000001,
          "durationTicks": 370,
          "midi": 63,
          "name": "D#4",
          "ticks": 28320,
          "time": 44.247167999999995,
          "velocity": 0.4094488188976378
        },
        {
          "duration": 0.5937120000000036,
          "durationTicks": 380,
          "midi": 67,
          "name": "G4",
          "ticks": 28320,
          "time": 44.247167999999995,
          "velocity": 0.4566929133858268
        },
        {
          "duration": 1.3280400000000014,
          "durationTicks": 850,
          "midi": 60,
          "name": "C4",
          "ticks": 28800,
          "time": 44.997119999999995,
          "velocity": 0.5826771653543307
        },
        {
          "duration": 1.1327399999999983,
          "durationTicks": 725,
          "midi": 62,
          "name": "D4",
          "ticks": 28800,
          "time": 44.997119999999995,
          "velocity": 0.5196850393700787
        },
        {
          "duration": 1.3046040000000048,
          "durationTicks": 835,
          "midi": 63,
          "name": "D#4",
          "ticks": 28800,
          "time": 44.997119999999995,
          "velocity": 0.7480314960629921
        },
        {
          "duration": 1.4686560000000028,
          "durationTicks": 940,
          "midi": 63,
          "name": "D#4",
          "ticks": 28800,
          "time": 44.997119999999995,
          "velocity": 0.5826771653543307
        },
        {
          "duration": 1.3592879999999994,
          "durationTicks": 870,
          "midi": 67,
          "name": "G4",
          "ticks": 28800,
          "time": 44.997119999999995,
          "velocity": 0.7244094488188977
        },
        {
          "duration": 0.5390280000000018,
          "durationTicks": 345,
          "midi": 70,
          "name": "A#4",
          "ticks": 29400,
          "time": 45.93456,
          "velocity": 0.7244094488188977
        },
        {
          "duration": 1.3671000000000006,
          "durationTicks": 875,
          "midi": 62,
          "name": "D4",
          "ticks": 29760,
          "time": 46.497023999999996,
          "velocity": 0.47244094488188976
        },
        {
          "duration": 0.4687199999999976,
          "durationTicks": 300,
          "midi": 65,
          "name": "F4",
          "ticks": 29760,
          "time": 46.497023999999996,
          "velocity": 0.84251968503937
        },
        {
          "duration": 1.4061599999999999,
          "durationTicks": 900,
          "midi": 65,
          "name": "F4",
          "ticks": 29760,
          "time": 46.497023999999996,
          "velocity": 0.48031496062992124
        },
        {
          "duration": 0.5312160000000006,
          "durationTicks": 340,
          "midi": 69,
          "name": "A4",
          "ticks": 29760,
          "time": 46.497023999999996,
          "velocity": 0.6771653543307087
        },
        {
          "duration": 0.9530639999999977,
          "durationTicks": 610,
          "midi": 65,
          "name": "F4",
          "ticks": 30120,
          "time": 47.059487999999995,
          "velocity": 0.6456692913385826
        },
        {
          "duration": 0.9765000000000015,
          "durationTicks": 625,
          "midi": 69,
          "name": "A4",
          "ticks": 30120,
          "time": 47.059487999999995,
          "velocity": 0.5196850393700787
        },
        {
          "duration": 0.960875999999999,
          "durationTicks": 615,
          "midi": 72,
          "name": "C5",
          "ticks": 30120,
          "time": 47.059487999999995,
          "velocity": 0.6141732283464567
        },
        {
          "duration": 1.2733560000000068,
          "durationTicks": 815,
          "midi": 51,
          "name": "D#3",
          "ticks": 30720,
          "time": 47.996928,
          "velocity": 0.33070866141732286
        },
        {
          "duration": 1.343664000000004,
          "durationTicks": 860,
          "midi": 63,
          "name": "D#4",
          "ticks": 30720,
          "time": 47.996928,
          "velocity": 0.9291338582677166
        },
        {
          "duration": 1.4686559999999957,
          "durationTicks": 940,
          "midi": 63,
          "name": "D#4",
          "ticks": 30720,
          "time": 47.996928,
          "velocity": 0.4251968503937008
        },
        {
          "duration": 1.2811679999999939,
          "durationTicks": 820,
          "midi": 67,
          "name": "G4",
          "ticks": 30720,
          "time": 47.996928,
          "velocity": 0.4881889763779528
        },
        {
          "duration": 1.343664000000004,
          "durationTicks": 860,
          "midi": 70,
          "name": "A#4",
          "ticks": 30720,
          "time": 47.996928,
          "velocity": 0.5354330708661418
        },
        {
          "duration": 0.2421720000000036,
          "durationTicks": 155,
          "midi": 58,
          "name": "A#3",
          "ticks": 31320,
          "time": 48.934368,
          "velocity": 0.7007874015748031
        },
        {
          "duration": 0.21873600000000692,
          "durationTicks": 140,
          "midi": 60,
          "name": "C4",
          "ticks": 31440,
          "time": 49.121855999999994,
          "velocity": 0.6141732283464567
        },
        {
          "duration": 1.4686559999999957,
          "durationTicks": 940,
          "midi": 50,
          "name": "D3",
          "ticks": 31560,
          "time": 49.309343999999996,
          "velocity": 0.33070866141732286
        },
        {
          "duration": 1.4999040000000008,
          "durationTicks": 960,
          "midi": 62,
          "name": "D4",
          "ticks": 31560,
          "time": 49.309343999999996,
          "velocity": 0.6771653543307087
        },
        {
          "duration": 1.507716000000002,
          "durationTicks": 965,
          "midi": 62,
          "name": "D4",
          "ticks": 31680,
          "time": 49.496832,
          "velocity": 0.36220472440944884
        },
        {
          "duration": 1.249920000000003,
          "durationTicks": 800,
          "midi": 65,
          "name": "F4",
          "ticks": 31680,
          "time": 49.496832,
          "velocity": 0.4409448818897638
        },
        {
          "duration": 1.3358519999999956,
          "durationTicks": 855,
          "midi": 69,
          "name": "A4",
          "ticks": 31680,
          "time": 49.496832,
          "velocity": 0.5354330708661418
        },
        {
          "duration": 1.187423999999993,
          "durationTicks": 760,
          "midi": 65,
          "name": "F4",
          "ticks": 31800,
          "time": 49.68432,
          "velocity": 0.6299212598425197
        },
        {
          "duration": 2.984184000000006,
          "durationTicks": 1910,
          "midi": 48,
          "name": "C3",
          "ticks": 32520,
          "time": 50.809248,
          "velocity": 0.4409448818897638
        },
        {
          "duration": 2.9373119999999986,
          "durationTicks": 1880,
          "midi": 60,
          "name": "C4",
          "ticks": 32640,
          "time": 50.996736,
          "velocity": 0.4251968503937008
        },
        {
          "duration": 0.6483959999999911,
          "durationTicks": 415,
          "midi": 62,
          "name": "D4",
          "ticks": 32640,
          "time": 50.996736,
          "velocity": 0.6771653543307087
        },
        {
          "duration": 2.851379999999992,
          "durationTicks": 1825,
          "midi": 63,
          "name": "D#4",
          "ticks": 32640,
          "time": 50.996736,
          "velocity": 0.36220472440944884
        },
        {
          "duration": 2.7810719999999947,
          "durationTicks": 1780,
          "midi": 67,
          "name": "G4",
          "ticks": 32640,
          "time": 50.996736,
          "velocity": 0.5433070866141733
        },
        {
          "duration": 2.3904720000000026,
          "durationTicks": 1530,
          "midi": 60,
          "name": "C4",
          "ticks": 33000,
          "time": 51.5592,
          "velocity": 0.7480314960629921
        },
        {
          "duration": 1.351475999999991,
          "durationTicks": 865,
          "midi": 53,
          "name": "F3",
          "ticks": 34560,
          "time": 53.996544,
          "velocity": 0.6850393700787402
        },
        {
          "duration": 1.351475999999991,
          "durationTicks": 865,
          "midi": 58,
          "name": "A#3",
          "ticks": 34560,
          "time": 53.996544,
          "velocity": 0.7716535433070866
        },
        {
          "duration": 1.382723999999996,
          "durationTicks": 885,
          "midi": 60,
          "name": "C4",
          "ticks": 34560,
          "time": 53.996544,
          "velocity": 0.7322834645669292
        },
        {
          "duration": 1.3592879999999994,
          "durationTicks": 870,
          "midi": 63,
          "name": "D#4",
          "ticks": 34560,
          "time": 53.996544,
          "velocity": 0.6850393700787402
        },
        {
          "duration": 1.4061599999999999,
          "durationTicks": 900,
          "midi": 53,
          "name": "F3",
          "ticks": 35520,
          "time": 55.496447999999994,
          "velocity": 0.6377952755905512
        },
        {
          "duration": 1.3671000000000078,
          "durationTicks": 875,
          "midi": 58,
          "name": "A#3",
          "ticks": 35520,
          "time": 55.496447999999994,
          "velocity": 0.7716535433070866
        },
        {
          "duration": 1.3905360000000044,
          "durationTicks": 890,
          "midi": 60,
          "name": "C4",
          "ticks": 35520,
          "time": 55.496447999999994,
          "velocity": 0.7322834645669292
        },
        {
          "duration": 1.3671000000000078,
          "durationTicks": 875,
          "midi": 63,
          "name": "D#4",
          "ticks": 35520,
          "time": 55.496447999999994,
          "velocity": 0.6377952755905512
        },
        {
          "duration": 2.859192,
          "durationTicks": 1830,
          "midi": 46,
          "name": "A#2",
          "ticks": 36480,
          "time": 56.996351999999995,
          "velocity": 0.7086614173228346
        },
        {
          "duration": 0.5390280000000018,
          "durationTicks": 345,
          "midi": 58,
          "name": "A#3",
          "ticks": 36480,
          "time": 56.996351999999995,
          "velocity": 0.6771653543307087
        },
        {
          "duration": 0.5390280000000018,
          "durationTicks": 345,
          "midi": 62,
          "name": "D4",
          "ticks": 36480,
          "time": 56.996351999999995,
          "velocity": 0.6771653543307087
        },
        {
          "duration": 0.5468400000000031,
          "durationTicks": 350,
          "midi": 65,
          "name": "F4",
          "ticks": 36480,
          "time": 56.996351999999995,
          "velocity": 0.6771653543307087
        },
        {
          "duration": 0.5624639999999985,
          "durationTicks": 360,
          "midi": 58,
          "name": "A#3",
          "ticks": 36960,
          "time": 57.746303999999995,
          "velocity": 0.6771653543307087
        },
        {
          "duration": 0.5546519999999973,
          "durationTicks": 355,
          "midi": 62,
          "name": "D4",
          "ticks": 36960,
          "time": 57.746303999999995,
          "velocity": 0.6771653543307087
        },
        {
          "duration": 0.5624639999999985,
          "durationTicks": 360,
          "midi": 65,
          "name": "F4",
          "ticks": 36960,
          "time": 57.746303999999995,
          "velocity": 0.6771653543307087
        },
        {
          "duration": 0.6483959999999982,
          "durationTicks": 415,
          "midi": 58,
          "name": "A#3",
          "ticks": 37440,
          "time": 58.496255999999995,
          "velocity": 0.6771653543307087
        },
        {
          "duration": 0.5546519999999973,
          "durationTicks": 355,
          "midi": 62,
          "name": "D4",
          "ticks": 37440,
          "time": 58.496255999999995,
          "velocity": 0.6771653543307087
        },
        {
          "duration": 0.5546519999999973,
          "durationTicks": 355,
          "midi": 65,
          "name": "F4",
          "ticks": 37440,
          "time": 58.496255999999995,
          "velocity": 0.6771653543307087
        },
        {
          "duration": 0.5546519999999973,
          "durationTicks": 355,
          "midi": 58,
          "name": "A#3",
          "ticks": 37920,
          "time": 59.246207999999996,
          "velocity": 0.8346456692913385
        },
        {
          "duration": 0.5624639999999985,
          "durationTicks": 360,
          "midi": 60,
          "name": "C4",
          "ticks": 37920,
          "time": 59.246207999999996,
          "velocity": 0.8346456692913385
        },
        {
          "duration": 0.5624639999999985,
          "durationTicks": 360,
          "midi": 65,
          "name": "F4",
          "ticks": 37920,
          "time": 59.246207999999996,
          "velocity": 0.8346456692913385
        },
        {
          "duration": 0.07030799999999715,
          "durationTicks": 45,
          "midi": 46,
          "name": "A#2",
          "ticks": 38400,
          "time": 59.996159999999996,
          "velocity": 0.7716535433070866
        },
        {
          "duration": 0.17186400000000646,
          "durationTicks": 110,
          "midi": 58,
          "name": "A#3",
          "ticks": 38400,
          "time": 59.996159999999996,
          "velocity": 0.8740157480314961
        },
        {
          "duration": 0.17186400000000646,
          "durationTicks": 110,
          "midi": 60,
          "name": "C4",
          "ticks": 38400,
          "time": 59.996159999999996,
          "velocity": 0.8267716535433071
        },
        {
          "duration": 0.17186400000000646,
          "durationTicks": 110,
          "midi": 65,
          "name": "F4",
          "ticks": 38400,
          "time": 59.996159999999996,
          "velocity": 0.7795275590551181
        },
        {
          "duration": 0.10936799999999636,
          "durationTicks": 70,
          "midi": 48,
          "name": "C3",
          "ticks": 38520,
          "time": 60.183648,
          "velocity": 0.6141732283464567
        },
        {
          "duration": 0.17186399999999935,
          "durationTicks": 110,
          "midi": 60,
          "name": "C4",
          "ticks": 38520,
          "time": 60.183648,
          "velocity": 0.7795275590551181
        },
        {
          "duration": 0.17186399999999935,
          "durationTicks": 110,
          "midi": 63,
          "name": "D#4",
          "ticks": 38520,
          "time": 60.183648,
          "velocity": 0.7322834645669292
        },
        {
          "duration": 0.17186399999999935,
          "durationTicks": 110,
          "midi": 67,
          "name": "G4",
          "ticks": 38520,
          "time": 60.183648,
          "velocity": 0.7795275590551181
        },
        {
          "duration": 2.1014279999999985,
          "durationTicks": 1345,
          "midi": 48,
          "name": "C3",
          "ticks": 38760,
          "time": 60.558623999999995,
          "velocity": 0.5905511811023622
        },
        {
          "duration": 1.632708000000001,
          "durationTicks": 1045,
          "midi": 60,
          "name": "C4",
          "ticks": 38760,
          "time": 60.558623999999995,
          "velocity": 0.7637795275590551
        },
        {
          "duration": 1.632708000000001,
          "durationTicks": 1045,
          "midi": 63,
          "name": "D#4",
          "ticks": 38760,
          "time": 60.558623999999995,
          "velocity": 0.6535433070866141
        },
        {
          "duration": 1.6561439999999976,
          "durationTicks": 1060,
          "midi": 67,
          "name": "G4",
          "ticks": 38760,
          "time": 60.558623999999995,
          "velocity": 0.9212598425196851
        },
        {
          "duration": 1.3671000000000006,
          "durationTicks": 875,
          "midi": 53,
          "name": "F3",
          "ticks": 40320,
          "time": 62.995968,
          "velocity": 0.8031496062992126
        },
        {
          "duration": 0.39841200000000043,
          "durationTicks": 255,
          "midi": 60,
          "name": "C4",
          "ticks": 40320,
          "time": 62.995968,
          "velocity": 0.8031496062992126
        },
        {
          "duration": 1.3749119999999877,
          "durationTicks": 880,
          "midi": 63,
          "name": "D#4",
          "ticks": 40320,
          "time": 62.995968,
          "velocity": 0.8031496062992126
        },
        {
          "duration": 0.8436959999999942,
          "durationTicks": 540,
          "midi": 60,
          "name": "C4",
          "ticks": 40680,
          "time": 63.558431999999996,
          "velocity": 0.7637795275590551
        },
        {
          "duration": 1.343664000000004,
          "durationTicks": 860,
          "midi": 53,
          "name": "F3",
          "ticks": 41280,
          "time": 64.49587199999999,
          "velocity": 0.8267716535433071
        },
        {
          "duration": 0.4062240000000088,
          "durationTicks": 260,
          "midi": 60,
          "name": "C4",
          "ticks": 41280,
          "time": 64.49587199999999,
          "velocity": 0.8267716535433071
        },
        {
          "duration": 1.343664000000004,
          "durationTicks": 860,
          "midi": 63,
          "name": "D#4",
          "ticks": 41280,
          "time": 64.49587199999999,
          "velocity": 0.7165354330708661
        },
        {
          "duration": 0.7968240000000009,
          "durationTicks": 510,
          "midi": 60,
          "name": "C4",
          "ticks": 41640,
          "time": 65.058336,
          "velocity": 0.7637795275590551
        },
        {
          "duration": 1.3358520000000027,
          "durationTicks": 855,
          "midi": 53,
          "name": "F3",
          "ticks": 42240,
          "time": 65.99577599999999,
          "velocity": 0.7322834645669292
        },
        {
          "duration": 1.3514760000000052,
          "durationTicks": 865,
          "midi": 58,
          "name": "A#3",
          "ticks": 42240,
          "time": 65.99577599999999,
          "velocity": 0.8740157480314961
        },
        {
          "duration": 1.3592880000000065,
          "durationTicks": 870,
          "midi": 62,
          "name": "D4",
          "ticks": 42240,
          "time": 65.99577599999999,
          "velocity": 0.6062992125984252
        },
        {
          "duration": 0.6483960000000053,
          "durationTicks": 415,
          "midi": 53,
          "name": "F3",
          "ticks": 43200,
          "time": 67.49568,
          "velocity": 0.8267716535433071
        },
        {
          "duration": 0.6952679999999987,
          "durationTicks": 445,
          "midi": 58,
          "name": "A#3",
          "ticks": 43200,
          "time": 67.49568,
          "velocity": 0.9212598425196851
        },
        {
          "duration": 0.742139999999992,
          "durationTicks": 475,
          "midi": 62,
          "name": "D4",
          "ticks": 43200,
          "time": 67.49568,
          "velocity": 0.6692913385826772
        },
        {
          "duration": 0.6483959999999911,
          "durationTicks": 415,
          "midi": 53,
          "name": "F3",
          "ticks": 43680,
          "time": 68.245632,
          "velocity": 0.8267716535433071
        },
        {
          "duration": 0.7030799999999999,
          "durationTicks": 450,
          "midi": 57,
          "name": "A3",
          "ticks": 43680,
          "time": 68.245632,
          "velocity": 0.9212598425196851
        },
        {
          "duration": 0.6171480000000003,
          "durationTicks": 395,
          "midi": 62,
          "name": "D4",
          "ticks": 43680,
          "time": 68.245632,
          "velocity": 0.6692913385826772
        },
        {
          "duration": 1.3280399999999872,
          "durationTicks": 850,
          "midi": 53,
          "name": "F3",
          "ticks": 49920,
          "time": 77.995008,
          "velocity": 0.7716535433070866
        },
        {
          "duration": 1.4139720000000011,
          "durationTicks": 905,
          "midi": 55,
          "name": "G3",
          "ticks": 50880,
          "time": 79.494912,
          "velocity": 0.7716535433070866
        },
        {
          "duration": 1.4217839999999882,
          "durationTicks": 910,
          "midi": 57,
          "name": "A3",
          "ticks": 51840,
          "time": 80.994816,
          "velocity": 0.905511811023622
        },
        {
          "duration": 1.2967919999999964,
          "durationTicks": 830,
          "midi": 55,
          "name": "G3",
          "ticks": 52800,
          "time": 82.49472,
          "velocity": 0.7716535433070866
        },
        {
          "duration": 0.6796440000000104,
          "durationTicks": 435,
          "midi": 46,
          "name": "A#2",
          "ticks": 53760,
          "time": 83.99462399999999,
          "velocity": 0.6456692913385826
        },
        {
          "duration": 0.6718320000000091,
          "durationTicks": 430,
          "midi": 50,
          "name": "D3",
          "ticks": 53760,
          "time": 83.99462399999999,
          "velocity": 0.44881889763779526
        },
        {
          "duration": 0.6718320000000091,
          "durationTicks": 430,
          "midi": 53,
          "name": "F3",
          "ticks": 53760,
          "time": 83.99462399999999,
          "velocity": 0.5748031496062992
        },
        {
          "duration": 0.6483960000000053,
          "durationTicks": 415,
          "midi": 62,
          "name": "D4",
          "ticks": 53760,
          "time": 83.99462399999999,
          "velocity": 0.3937007874015748
        },
        {
          "duration": 1.3280400000000014,
          "durationTicks": 850,
          "midi": 62,
          "name": "D4",
          "ticks": 53760,
          "time": 83.99462399999999,
          "velocity": 0.48031496062992124
        },
        {
          "duration": 0.6483960000000053,
          "durationTicks": 415,
          "midi": 65,
          "name": "F4",
          "ticks": 53760,
          "time": 83.99462399999999,
          "velocity": 0.4881889763779528
        },
        {
          "duration": 0.6249600000000015,
          "durationTicks": 400,
          "midi": 46,
          "name": "A#2",
          "ticks": 54240,
          "time": 84.744576,
          "velocity": 0.6456692913385826
        },
        {
          "duration": 0.6015239999999977,
          "durationTicks": 385,
          "midi": 50,
          "name": "D3",
          "ticks": 54240,
          "time": 84.744576,
          "velocity": 0.49606299212598426
        },
        {
          "duration": 0.6171480000000003,
          "durationTicks": 395,
          "midi": 53,
          "name": "F3",
          "ticks": 54240,
          "time": 84.744576,
          "velocity": 0.5748031496062992
        },
        {
          "duration": 0.5780879999999939,
          "durationTicks": 370,
          "midi": 62,
          "name": "D4",
          "ticks": 54240,
          "time": 84.744576,
          "velocity": 0.3937007874015748
        },
        {
          "duration": 0.5858999999999952,
          "durationTicks": 375,
          "midi": 65,
          "name": "F4",
          "ticks": 54240,
          "time": 84.744576,
          "velocity": 0.47244094488188976
        },
        {
          "duration": 0.6718320000000091,
          "durationTicks": 430,
          "midi": 48,
          "name": "C3",
          "ticks": 54720,
          "time": 85.49452799999999,
          "velocity": 0.6456692913385826
        },
        {
          "duration": 0.6483960000000053,
          "durationTicks": 415,
          "midi": 51,
          "name": "D#3",
          "ticks": 54720,
          "time": 85.49452799999999,
          "velocity": 0.5748031496062992
        },
        {
          "duration": 0.6327720000000028,
          "durationTicks": 405,
          "midi": 55,
          "name": "G3",
          "ticks": 54720,
          "time": 85.49452799999999,
          "velocity": 0.5905511811023622
        },
        {
          "duration": 0.6327720000000028,
          "durationTicks": 405,
          "midi": 63,
          "name": "D#4",
          "ticks": 54720,
          "time": 85.49452799999999,
          "velocity": 0.4881889763779528
        },
        {
          "duration": 1.3124160000000131,
          "durationTicks": 840,
          "midi": 63,
          "name": "D#4",
          "ticks": 54720,
          "time": 85.49452799999999,
          "velocity": 0.48031496062992124
        },
        {
          "duration": 0.6249600000000015,
          "durationTicks": 400,
          "midi": 67,
          "name": "G4",
          "ticks": 54720,
          "time": 85.49452799999999,
          "velocity": 0.5354330708661418
        },
        {
          "duration": 0.6015239999999977,
          "durationTicks": 385,
          "midi": 48,
          "name": "C3",
          "ticks": 55200,
          "time": 86.24448,
          "velocity": 0.6456692913385826
        },
        {
          "duration": 0.609335999999999,
          "durationTicks": 390,
          "midi": 51,
          "name": "D#3",
          "ticks": 55200,
          "time": 86.24448,
          "velocity": 0.5275590551181102
        },
        {
          "duration": 0.5937119999999965,
          "durationTicks": 380,
          "midi": 55,
          "name": "G3",
          "ticks": 55200,
          "time": 86.24448,
          "velocity": 0.5433070866141733
        },
        {
          "duration": 0.5937119999999965,
          "durationTicks": 380,
          "midi": 63,
          "name": "D#4",
          "ticks": 55200,
          "time": 86.24448,
          "velocity": 0.3779527559055118
        },
        {
          "duration": 0.5702760000000069,
          "durationTicks": 365,
          "midi": 67,
          "name": "G4",
          "ticks": 55200,
          "time": 86.24448,
          "velocity": 0.4409448818897638
        },
        {
          "duration": 0.6640200000000078,
          "durationTicks": 425,
          "midi": 50,
          "name": "D3",
          "ticks": 55680,
          "time": 86.99443199999999,
          "velocity": 0.6456692913385826
        },
        {
          "duration": 0.6483960000000053,
          "durationTicks": 415,
          "midi": 53,
          "name": "F3",
          "ticks": 55680,
          "time": 86.99443199999999,
          "velocity": 0.5590551181102362
        },
        {
          "duration": 0.6562080000000066,
          "durationTicks": 420,
          "midi": 57,
          "name": "A3",
          "ticks": 55680,
          "time": 86.99443199999999,
          "velocity": 0.5748031496062992
        },
        {
          "duration": 0.640584000000004,
          "durationTicks": 410,
          "midi": 65,
          "name": "F4",
          "ticks": 55680,
          "time": 86.99443199999999,
          "velocity": 0.5196850393700787
        },
        {
          "duration": 1.3202280000000144,
          "durationTicks": 845,
          "midi": 65,
          "name": "F4",
          "ticks": 55680,
          "time": 86.99443199999999,
          "velocity": 0.48031496062992124
        },
        {
          "duration": 0.6327720000000028,
          "durationTicks": 405,
          "midi": 69,
          "name": "A4",
          "ticks": 55680,
          "time": 86.99443199999999,
          "velocity": 0.5039370078740157
        },
        {
          "duration": 0.6562079999999924,
          "durationTicks": 420,
          "midi": 50,
          "name": "D3",
          "ticks": 56160,
          "time": 87.744384,
          "velocity": 0.6456692913385826
        },
        {
          "duration": 0.609335999999999,
          "durationTicks": 390,
          "midi": 53,
          "name": "F3",
          "ticks": 56160,
          "time": 87.744384,
          "velocity": 0.5748031496062992
        },
        {
          "duration": 0.5780879999999939,
          "durationTicks": 370,
          "midi": 57,
          "name": "A3",
          "ticks": 56160,
          "time": 87.744384,
          "velocity": 0.4645669291338583
        },
        {
          "duration": 0.5858999999999952,
          "durationTicks": 375,
          "midi": 65,
          "name": "F4",
          "ticks": 56160,
          "time": 87.744384,
          "velocity": 0.5039370078740157
        },
        {
          "duration": 0.5780879999999939,
          "durationTicks": 370,
          "midi": 69,
          "name": "A4",
          "ticks": 56160,
          "time": 87.744384,
          "velocity": 0.4566929133858268
        },
        {
          "duration": 0.5859000000000094,
          "durationTicks": 375,
          "midi": 48,
          "name": "C3",
          "ticks": 56640,
          "time": 88.49433599999999,
          "velocity": 0.6377952755905512
        },
        {
          "duration": 0.5937120000000107,
          "durationTicks": 380,
          "midi": 51,
          "name": "D#3",
          "ticks": 56640,
          "time": 88.49433599999999,
          "velocity": 0.44881889763779526
        },
        {
          "duration": 0.6015239999999977,
          "durationTicks": 385,
          "midi": 55,
          "name": "G3",
          "ticks": 56640,
          "time": 88.49433599999999,
          "velocity": 0.4330708661417323
        },
        {
          "duration": 0.5702760000000069,
          "durationTicks": 365,
          "midi": 63,
          "name": "D#4",
          "ticks": 56640,
          "time": 88.49433599999999,
          "velocity": 0.33070866141732286
        },
        {
          "duration": 1.3202280000000144,
          "durationTicks": 845,
          "midi": 63,
          "name": "D#4",
          "ticks": 56640,
          "time": 88.49433599999999,
          "velocity": 0.48031496062992124
        },
        {
          "duration": 0.5702760000000069,
          "durationTicks": 365,
          "midi": 67,
          "name": "G4",
          "ticks": 56640,
          "time": 88.49433599999999,
          "velocity": 0.3779527559055118
        },
        {
          "duration": 0.5234039999999993,
          "durationTicks": 335,
          "midi": 48,
          "name": "C3",
          "ticks": 57120,
          "time": 89.244288,
          "velocity": 0.6299212598425197
        },
        {
          "duration": 0.515591999999998,
          "durationTicks": 330,
          "midi": 51,
          "name": "D#3",
          "ticks": 57120,
          "time": 89.244288,
          "velocity": 0.49606299212598426
        },
        {
          "duration": 0.5077799999999968,
          "durationTicks": 325,
          "midi": 55,
          "name": "G3",
          "ticks": 57120,
          "time": 89.244288,
          "velocity": 0.49606299212598426
        },
        {
          "duration": 0.5780879999999939,
          "durationTicks": 370,
          "midi": 63,
          "name": "D#4",
          "ticks": 57120,
          "time": 89.244288,
          "velocity": 0.4094488188976378
        },
        {
          "duration": 0.5937119999999965,
          "durationTicks": 380,
          "midi": 67,
          "name": "G4",
          "ticks": 57120,
          "time": 89.244288,
          "velocity": 0.4566929133858268
        },
        {
          "duration": 0.6796440000000104,
          "durationTicks": 435,
          "midi": 46,
          "name": "A#2",
          "ticks": 57600,
          "time": 89.99423999999999,
          "velocity": 0.6456692913385826
        },
        {
          "duration": 0.6796440000000104,
          "durationTicks": 435,
          "midi": 50,
          "name": "D3",
          "ticks": 57600,
          "time": 89.99423999999999,
          "velocity": 0.44881889763779526
        },
        {
          "duration": 0.6718319999999949,
          "durationTicks": 430,
          "midi": 53,
          "name": "F3",
          "ticks": 57600,
          "time": 89.99423999999999,
          "velocity": 0.5748031496062992
        },
        {
          "duration": 0.6483960000000053,
          "durationTicks": 415,
          "midi": 62,
          "name": "D4",
          "ticks": 57600,
          "time": 89.99423999999999,
          "velocity": 0.3937007874015748
        },
        {
          "duration": 1.3280400000000014,
          "durationTicks": 850,
          "midi": 62,
          "name": "D4",
          "ticks": 57600,
          "time": 89.99423999999999,
          "velocity": 0.48031496062992124
        },
        {
          "duration": 0.6483960000000053,
          "durationTicks": 415,
          "midi": 65,
          "name": "F4",
          "ticks": 57600,
          "time": 89.99423999999999,
          "velocity": 0.4881889763779528
        },
        {
          "duration": 0.6171480000000003,
          "durationTicks": 395,
          "midi": 46,
          "name": "A#2",
          "ticks": 58080,
          "time": 90.744192,
          "velocity": 0.6456692913385826
        },
        {
          "duration": 0.6015239999999977,
          "durationTicks": 385,
          "midi": 50,
          "name": "D3",
          "ticks": 58080,
          "time": 90.744192,
          "velocity": 0.49606299212598426
        },
        {
          "duration": 0.6249599999999873,
          "durationTicks": 400,
          "midi": 53,
          "name": "F3",
          "ticks": 58080,
          "time": 90.744192,
          "velocity": 0.5748031496062992
        },
        {
          "duration": 0.5780879999999939,
          "durationTicks": 370,
          "midi": 62,
          "name": "D4",
          "ticks": 58080,
          "time": 90.744192,
          "velocity": 0.3937007874015748
        },
        {
          "duration": 0.5858999999999952,
          "durationTicks": 375,
          "midi": 65,
          "name": "F4",
          "ticks": 58080,
          "time": 90.744192,
          "velocity": 0.47244094488188976
        },
        {
          "duration": 0.6718319999999949,
          "durationTicks": 430,
          "midi": 48,
          "name": "C3",
          "ticks": 58560,
          "time": 91.49414399999999,
          "velocity": 0.6456692913385826
        },
        {
          "duration": 0.6483960000000053,
          "durationTicks": 415,
          "midi": 51,
          "name": "D#3",
          "ticks": 58560,
          "time": 91.49414399999999,
          "velocity": 0.5748031496062992
        },
        {
          "duration": 0.6327720000000028,
          "durationTicks": 405,
          "midi": 55,
          "name": "G3",
          "ticks": 58560,
          "time": 91.49414399999999,
          "velocity": 0.5905511811023622
        },
        {
          "duration": 0.6327720000000028,
          "durationTicks": 405,
          "midi": 63,
          "name": "D#4",
          "ticks": 58560,
          "time": 91.49414399999999,
          "velocity": 0.4881889763779528
        },
        {
          "duration": 1.312415999999999,
          "durationTicks": 840,
          "midi": 63,
          "name": "D#4",
          "ticks": 58560,
          "time": 91.49414399999999,
          "velocity": 0.48031496062992124
        },
        {
          "duration": 0.6249600000000015,
          "durationTicks": 400,
          "midi": 67,
          "name": "G4",
          "ticks": 58560,
          "time": 91.49414399999999,
          "velocity": 0.5354330708661418
        },
        {
          "duration": 0.6015239999999977,
          "durationTicks": 385,
          "midi": 48,
          "name": "C3",
          "ticks": 59040,
          "time": 92.244096,
          "velocity": 0.6456692913385826
        },
        {
          "duration": 0.609335999999999,
          "durationTicks": 390,
          "midi": 51,
          "name": "D#3",
          "ticks": 59040,
          "time": 92.244096,
          "velocity": 0.5275590551181102
        },
        {
          "duration": 0.5937119999999965,
          "durationTicks": 380,
          "midi": 55,
          "name": "G3",
          "ticks": 59040,
          "time": 92.244096,
          "velocity": 0.5433070866141733
        },
        {
          "duration": 0.5780879999999939,
          "durationTicks": 370,
          "midi": 63,
          "name": "D#4",
          "ticks": 59040,
          "time": 92.244096,
          "velocity": 0.3779527559055118
        },
        {
          "duration": 0.5702759999999927,
          "durationTicks": 365,
          "midi": 67,
          "name": "G4",
          "ticks": 59040,
          "time": 92.244096,
          "velocity": 0.4409448818897638
        },
        {
          "duration": 0.6640200000000078,
          "durationTicks": 425,
          "midi": 50,
          "name": "D3",
          "ticks": 59520,
          "time": 92.99404799999999,
          "velocity": 0.6456692913385826
        },
        {
          "duration": 0.6562080000000066,
          "durationTicks": 420,
          "midi": 53,
          "name": "F3",
          "ticks": 59520,
          "time": 92.99404799999999,
          "velocity": 0.5590551181102362
        },
        {
          "duration": 0.6562080000000066,
          "durationTicks": 420,
          "midi": 57,
          "name": "A3",
          "ticks": 59520,
          "time": 92.99404799999999,
          "velocity": 0.5748031496062992
        },
        {
          "duration": 0.6483959999999911,
          "durationTicks": 415,
          "midi": 65,
          "name": "F4",
          "ticks": 59520,
          "time": 92.99404799999999,
          "velocity": 0.5196850393700787
        },
        {
          "duration": 1.3358520000000027,
          "durationTicks": 855,
          "midi": 65,
          "name": "F4",
          "ticks": 59520,
          "time": 92.99404799999999,
          "velocity": 0.48031496062992124
        },
        {
          "duration": 0.6327720000000028,
          "durationTicks": 405,
          "midi": 69,
          "name": "A4",
          "ticks": 59520,
          "time": 92.99404799999999,
          "velocity": 0.5039370078740157
        },
        {
          "duration": 0.6483959999999911,
          "durationTicks": 415,
          "midi": 50,
          "name": "D3",
          "ticks": 60000,
          "time": 93.744,
          "velocity": 0.6456692913385826
        },
        {
          "duration": 0.6015239999999977,
          "durationTicks": 385,
          "midi": 53,
          "name": "F3",
          "ticks": 60000,
          "time": 93.744,
          "velocity": 0.5748031496062992
        },
        {
          "duration": 0.5780879999999939,
          "durationTicks": 370,
          "midi": 57,
          "name": "A3",
          "ticks": 60000,
          "time": 93.744,
          "velocity": 0.4645669291338583
        },
        {
          "duration": 0.5937119999999965,
          "durationTicks": 380,
          "midi": 65,
          "name": "F4",
          "ticks": 60000,
          "time": 93.744,
          "velocity": 0.5039370078740157
        },
        {
          "duration": 0.5780879999999939,
          "durationTicks": 370,
          "midi": 69,
          "name": "A4",
          "ticks": 60000,
          "time": 93.744,
          "velocity": 0.4566929133858268
        },
        {
          "duration": 0.5937120000000107,
          "durationTicks": 380,
          "midi": 48,
          "name": "C3",
          "ticks": 60480,
          "time": 94.493952,
          "velocity": 0.6377952755905512
        },
        {
          "duration": 0.5937120000000107,
          "durationTicks": 380,
          "midi": 51,
          "name": "D#3",
          "ticks": 60480,
          "time": 94.493952,
          "velocity": 0.44881889763779526
        },
        {
          "duration": 0.6015239999999977,
          "durationTicks": 385,
          "midi": 55,
          "name": "G3",
          "ticks": 60480,
          "time": 94.493952,
          "velocity": 0.4330708661417323
        },
        {
          "duration": 0.5702760000000069,
          "durationTicks": 365,
          "midi": 63,
          "name": "D#4",
          "ticks": 60480,
          "time": 94.493952,
          "velocity": 0.33070866141732286
        },
        {
          "duration": 0.19530000000000314,
          "durationTicks": 125,
          "midi": 65,
          "name": "F4",
          "ticks": 60480,
          "time": 94.493952,
          "velocity": 0.6692913385826772
        },
        {
          "duration": 0.3437279999999987,
          "durationTicks": 220,
          "midi": 67,
          "name": "G4",
          "ticks": 60480,
          "time": 94.493952,
          "velocity": 0.3779527559055118
        },
        {
          "duration": 0.39059999999999206,
          "durationTicks": 250,
          "midi": 67,
          "name": "G4",
          "ticks": 60600,
          "time": 94.68144,
          "velocity": 0.6220472440944882
        },
        {
          "duration": 0.9530639999999977,
          "durationTicks": 610,
          "midi": 63,
          "name": "D#4",
          "ticks": 60720,
          "time": 94.868928,
          "velocity": 0.5275590551181102
        },
        {
          "duration": 0.5234039999999993,
          "durationTicks": 335,
          "midi": 48,
          "name": "C3",
          "ticks": 60960,
          "time": 95.243904,
          "velocity": 0.6299212598425197
        },
        {
          "duration": 0.515591999999998,
          "durationTicks": 330,
          "midi": 51,
          "name": "D#3",
          "ticks": 60960,
          "time": 95.243904,
          "velocity": 0.49606299212598426
        },
        {
          "duration": 0.5077799999999968,
          "durationTicks": 325,
          "midi": 55,
          "name": "G3",
          "ticks": 60960,
          "time": 95.243904,
          "velocity": 0.49606299212598426
        },
        {
          "duration": 0.6874559999999974,
          "durationTicks": 440,
          "midi": 63,
          "name": "D#4",
          "ticks": 60960,
          "time": 95.243904,
          "velocity": 0.4094488188976378
        },
        {
          "duration": 0.5937119999999965,
          "durationTicks": 380,
          "midi": 67,
          "name": "G4",
          "ticks": 60960,
          "time": 95.243904,
          "velocity": 0.4566929133858268
        },
        {
          "duration": 0.6796439999999961,
          "durationTicks": 435,
          "midi": 46,
          "name": "A#2",
          "ticks": 61440,
          "time": 95.993856,
          "velocity": 0.6456692913385826
        },
        {
          "duration": 0.6796439999999961,
          "durationTicks": 435,
          "midi": 50,
          "name": "D3",
          "ticks": 61440,
          "time": 95.993856,
          "velocity": 0.44881889763779526
        },
        {
          "duration": 0.6718320000000091,
          "durationTicks": 430,
          "midi": 53,
          "name": "F3",
          "ticks": 61440,
          "time": 95.993856,
          "velocity": 0.5748031496062992
        },
        {
          "duration": 0.6483960000000053,
          "durationTicks": 415,
          "midi": 62,
          "name": "D4",
          "ticks": 61440,
          "time": 95.993856,
          "velocity": 0.3937007874015748
        },
        {
          "duration": 1.3280400000000014,
          "durationTicks": 850,
          "midi": 62,
          "name": "D4",
          "ticks": 61440,
          "time": 95.993856,
          "velocity": 0.48031496062992124
        },
        {
          "duration": 0.6483960000000053,
          "durationTicks": 415,
          "midi": 65,
          "name": "F4",
          "ticks": 61440,
          "time": 95.993856,
          "velocity": 0.4881889763779528
        },
        {
          "duration": 0.6249600000000157,
          "durationTicks": 400,
          "midi": 46,
          "name": "A#2",
          "ticks": 61920,
          "time": 96.74380799999999,
          "velocity": 0.6456692913385826
        },
        {
          "duration": 0.6015240000000119,
          "durationTicks": 385,
          "midi": 50,
          "name": "D3",
          "ticks": 61920,
          "time": 96.74380799999999,
          "velocity": 0.49606299212598426
        },
        {
          "duration": 0.6171480000000003,
          "durationTicks": 395,
          "midi": 53,
          "name": "F3",
          "ticks": 61920,
          "time": 96.74380799999999,
          "velocity": 0.5748031496062992
        },
        {
          "duration": 0.5780880000000082,
          "durationTicks": 370,
          "midi": 62,
          "name": "D4",
          "ticks": 61920,
          "time": 96.74380799999999,
          "velocity": 0.3937007874015748
        },
        {
          "duration": 0.5859000000000094,
          "durationTicks": 375,
          "midi": 65,
          "name": "F4",
          "ticks": 61920,
          "time": 96.74380799999999,
          "velocity": 0.47244094488188976
        },
        {
          "duration": 0.6718320000000091,
          "durationTicks": 430,
          "midi": 48,
          "name": "C3",
          "ticks": 62400,
          "time": 97.49376,
          "velocity": 0.6456692913385826
        },
        {
          "duration": 0.6483960000000053,
          "durationTicks": 415,
          "midi": 51,
          "name": "D#3",
          "ticks": 62400,
          "time": 97.49376,
          "velocity": 0.5748031496062992
        },
        {
          "duration": 0.6327720000000028,
          "durationTicks": 405,
          "midi": 55,
          "name": "G3",
          "ticks": 62400,
          "time": 97.49376,
          "velocity": 0.5905511811023622
        },
        {
          "duration": 0.6405839999999898,
          "durationTicks": 410,
          "midi": 63,
          "name": "D#4",
          "ticks": 62400,
          "time": 97.49376,
          "velocity": 0.4881889763779528
        },
        {
          "duration": 1.312415999999999,
          "durationTicks": 840,
          "midi": 63,
          "name": "D#4",
          "ticks": 62400,
          "time": 97.49376,
          "velocity": 0.48031496062992124
        },
        {
          "duration": 0.6249600000000015,
          "durationTicks": 400,
          "midi": 67,
          "name": "G4",
          "ticks": 62400,
          "time": 97.49376,
          "velocity": 0.5354330708661418
        },
        {
          "duration": 0.6015240000000119,
          "durationTicks": 385,
          "midi": 48,
          "name": "C3",
          "ticks": 62880,
          "time": 98.24371199999999,
          "velocity": 0.6456692913385826
        },
        {
          "duration": 0.609335999999999,
          "durationTicks": 390,
          "midi": 51,
          "name": "D#3",
          "ticks": 62880,
          "time": 98.24371199999999,
          "velocity": 0.5275590551181102
        },
        {
          "duration": 0.5937119999999965,
          "durationTicks": 380,
          "midi": 55,
          "name": "G3",
          "ticks": 62880,
          "time": 98.24371199999999,
          "velocity": 0.5433070866141733
        },
        {
          "duration": 0.5937119999999965,
          "durationTicks": 380,
          "midi": 63,
          "name": "D#4",
          "ticks": 62880,
          "time": 98.24371199999999,
          "velocity": 0.3779527559055118
        },
        {
          "duration": 0.5702759999999927,
          "durationTicks": 365,
          "midi": 67,
          "name": "G4",
          "ticks": 62880,
          "time": 98.24371199999999,
          "velocity": 0.4409448818897638
        },
        {
          "duration": 0.6718320000000091,
          "durationTicks": 430,
          "midi": 50,
          "name": "D3",
          "ticks": 63360,
          "time": 98.993664,
          "velocity": 0.6456692913385826
        },
        {
          "duration": 0.6562079999999924,
          "durationTicks": 420,
          "midi": 53,
          "name": "F3",
          "ticks": 63360,
          "time": 98.993664,
          "velocity": 0.5590551181102362
        },
        {
          "duration": 0.6562079999999924,
          "durationTicks": 420,
          "midi": 57,
          "name": "A3",
          "ticks": 63360,
          "time": 98.993664,
          "velocity": 0.5748031496062992
        },
        {
          "duration": 0.6483960000000053,
          "durationTicks": 415,
          "midi": 65,
          "name": "F4",
          "ticks": 63360,
          "time": 98.993664,
          "velocity": 0.5196850393700787
        },
        {
          "duration": 1.320227999999986,
          "durationTicks": 845,
          "midi": 65,
          "name": "F4",
          "ticks": 63360,
          "time": 98.993664,
          "velocity": 0.48031496062992124
        },
        {
          "duration": 0.6405839999999898,
          "durationTicks": 410,
          "midi": 69,
          "name": "A4",
          "ticks": 63360,
          "time": 98.993664,
          "velocity": 0.5039370078740157
        },
        {
          "duration": 0.6483960000000053,
          "durationTicks": 415,
          "midi": 50,
          "name": "D3",
          "ticks": 63840,
          "time": 99.74361599999999,
          "velocity": 0.6456692913385826
        },
        {
          "duration": 0.6015240000000119,
          "durationTicks": 385,
          "midi": 53,
          "name": "F3",
          "ticks": 63840,
          "time": 99.74361599999999,
          "velocity": 0.5748031496062992
        },
        {
          "duration": 0.5780880000000082,
          "durationTicks": 370,
          "midi": 57,
          "name": "A3",
          "ticks": 63840,
          "time": 99.74361599999999,
          "velocity": 0.4645669291338583
        },
        {
          "duration": 0.5859000000000094,
          "durationTicks": 375,
          "midi": 65,
          "name": "F4",
          "ticks": 63840,
          "time": 99.74361599999999,
          "velocity": 0.5039370078740157
        },
        {
          "duration": 0.5780880000000082,
          "durationTicks": 370,
          "midi": 69,
          "name": "A4",
          "ticks": 63840,
          "time": 99.74361599999999,
          "velocity": 0.4566929133858268
        },
        {
          "duration": 0.5858999999999952,
          "durationTicks": 375,
          "midi": 48,
          "name": "C3",
          "ticks": 64320,
          "time": 100.493568,
          "velocity": 0.6377952755905512
        },
        {
          "duration": 0.5937119999999965,
          "durationTicks": 380,
          "midi": 51,
          "name": "D#3",
          "ticks": 64320,
          "time": 100.493568,
          "velocity": 0.44881889763779526
        },
        {
          "duration": 0.6015239999999977,
          "durationTicks": 385,
          "midi": 55,
          "name": "G3",
          "ticks": 64320,
          "time": 100.493568,
          "velocity": 0.4330708661417323
        },
        {
          "duration": 0.5702759999999927,
          "durationTicks": 365,
          "midi": 63,
          "name": "D#4",
          "ticks": 64320,
          "time": 100.493568,
          "velocity": 0.33070866141732286
        },
        {
          "duration": 1.320227999999986,
          "durationTicks": 845,
          "midi": 63,
          "name": "D#4",
          "ticks": 64320,
          "time": 100.493568,
          "velocity": 0.48031496062992124
        },
        {
          "duration": 0.5702759999999927,
          "durationTicks": 365,
          "midi": 67,
          "name": "G4",
          "ticks": 64320,
          "time": 100.493568,
          "velocity": 0.3779527559055118
        },
        {
          "duration": 0.5234039999999993,
          "durationTicks": 335,
          "midi": 48,
          "name": "C3",
          "ticks": 64800,
          "time": 101.24351999999999,
          "velocity": 0.6299212598425197
        },
        {
          "duration": 0.515591999999998,
          "durationTicks": 330,
          "midi": 51,
          "name": "D#3",
          "ticks": 64800,
          "time": 101.24351999999999,
          "velocity": 0.49606299212598426
        },
        {
          "duration": 0.507780000000011,
          "durationTicks": 325,
          "midi": 55,
          "name": "G3",
          "ticks": 64800,
          "time": 101.24351999999999,
          "velocity": 0.49606299212598426
        },
        {
          "duration": 0.5780880000000082,
          "durationTicks": 370,
          "midi": 63,
          "name": "D#4",
          "ticks": 64800,
          "time": 101.24351999999999,
          "velocity": 0.4094488188976378
        },
        {
          "duration": 0.5937119999999965,
          "durationTicks": 380,
          "midi": 67,
          "name": "G4",
          "ticks": 64800,
          "time": 101.24351999999999,
          "velocity": 0.4566929133858268
        },
        {
          "duration": 0.6796439999999961,
          "durationTicks": 435,
          "midi": 46,
          "name": "A#2",
          "ticks": 65280,
          "time": 101.993472,
          "velocity": 0.6456692913385826
        },
        {
          "duration": 0.6796439999999961,
          "durationTicks": 435,
          "midi": 50,
          "name": "D3",
          "ticks": 65280,
          "time": 101.993472,
          "velocity": 0.44881889763779526
        },
        {
          "duration": 0.6718320000000091,
          "durationTicks": 430,
          "midi": 53,
          "name": "F3",
          "ticks": 65280,
          "time": 101.993472,
          "velocity": 0.5748031496062992
        },
        {
          "duration": 0.6483960000000053,
          "durationTicks": 415,
          "midi": 62,
          "name": "D4",
          "ticks": 65280,
          "time": 101.993472,
          "velocity": 0.3937007874015748
        },
        {
          "duration": 1.3280400000000014,
          "durationTicks": 850,
          "midi": 62,
          "name": "D4",
          "ticks": 65280,
          "time": 101.993472,
          "velocity": 0.48031496062992124
        },
        {
          "duration": 0.6483960000000053,
          "durationTicks": 415,
          "midi": 65,
          "name": "F4",
          "ticks": 65280,
          "time": 101.993472,
          "velocity": 0.4881889763779528
        },
        {
          "duration": 0.6249600000000157,
          "durationTicks": 400,
          "midi": 46,
          "name": "A#2",
          "ticks": 65760,
          "time": 102.74342399999999,
          "velocity": 0.6456692913385826
        },
        {
          "duration": 0.6015240000000119,
          "durationTicks": 385,
          "midi": 50,
          "name": "D3",
          "ticks": 65760,
          "time": 102.74342399999999,
          "velocity": 0.49606299212598426
        },
        {
          "duration": 0.6171480000000003,
          "durationTicks": 395,
          "midi": 53,
          "name": "F3",
          "ticks": 65760,
          "time": 102.74342399999999,
          "velocity": 0.5748031496062992
        },
        {
          "duration": 0.5780880000000082,
          "durationTicks": 370,
          "midi": 62,
          "name": "D4",
          "ticks": 65760,
          "time": 102.74342399999999,
          "velocity": 0.3937007874015748
        },
        {
          "duration": 0.5859000000000094,
          "durationTicks": 375,
          "midi": 65,
          "name": "F4",
          "ticks": 65760,
          "time": 102.74342399999999,
          "velocity": 0.47244094488188976
        },
        {
          "duration": 0.6718320000000091,
          "durationTicks": 430,
          "midi": 48,
          "name": "C3",
          "ticks": 66240,
          "time": 103.493376,
          "velocity": 0.6456692913385826
        },
        {
          "duration": 0.6483960000000053,
          "durationTicks": 415,
          "midi": 51,
          "name": "D#3",
          "ticks": 66240,
          "time": 103.493376,
          "velocity": 0.5748031496062992
        },
        {
          "duration": 0.6327719999999886,
          "durationTicks": 405,
          "midi": 55,
          "name": "G3",
          "ticks": 66240,
          "time": 103.493376,
          "velocity": 0.5905511811023622
        },
        {
          "duration": 0.6327719999999886,
          "durationTicks": 405,
          "midi": 63,
          "name": "D#4",
          "ticks": 66240,
          "time": 103.493376,
          "velocity": 0.4881889763779528
        },
        {
          "duration": 1.312415999999999,
          "durationTicks": 840,
          "midi": 63,
          "name": "D#4",
          "ticks": 66240,
          "time": 103.493376,
          "velocity": 0.48031496062992124
        },
        {
          "duration": 0.6249600000000015,
          "durationTicks": 400,
          "midi": 67,
          "name": "G4",
          "ticks": 66240,
          "time": 103.493376,
          "velocity": 0.5354330708661418
        },
        {
          "duration": 0.6015240000000119,
          "durationTicks": 385,
          "midi": 48,
          "name": "C3",
          "ticks": 66720,
          "time": 104.24332799999999,
          "velocity": 0.6456692913385826
        },
        {
          "duration": 0.609335999999999,
          "durationTicks": 390,
          "midi": 51,
          "name": "D#3",
          "ticks": 66720,
          "time": 104.24332799999999,
          "velocity": 0.5275590551181102
        },
        {
          "duration": 0.5937119999999965,
          "durationTicks": 380,
          "midi": 55,
          "name": "G3",
          "ticks": 66720,
          "time": 104.24332799999999,
          "velocity": 0.5433070866141733
        },
        {
          "duration": 0.5780880000000082,
          "durationTicks": 370,
          "midi": 63,
          "name": "D#4",
          "ticks": 66720,
          "time": 104.24332799999999,
          "velocity": 0.3779527559055118
        },
        {
          "duration": 0.5702759999999927,
          "durationTicks": 365,
          "midi": 67,
          "name": "G4",
          "ticks": 66720,
          "time": 104.24332799999999,
          "velocity": 0.4409448818897638
        },
        {
          "duration": 0.6640199999999936,
          "durationTicks": 425,
          "midi": 50,
          "name": "D3",
          "ticks": 67200,
          "time": 104.99328,
          "velocity": 0.6456692913385826
        },
        {
          "duration": 0.6562079999999924,
          "durationTicks": 420,
          "midi": 53,
          "name": "F3",
          "ticks": 67200,
          "time": 104.99328,
          "velocity": 0.5590551181102362
        },
        {
          "duration": 0.6483960000000053,
          "durationTicks": 415,
          "midi": 57,
          "name": "A3",
          "ticks": 67200,
          "time": 104.99328,
          "velocity": 0.5748031496062992
        },
        {
          "duration": 0.6483960000000053,
          "durationTicks": 415,
          "midi": 65,
          "name": "F4",
          "ticks": 67200,
          "time": 104.99328,
          "velocity": 0.5196850393700787
        },
        {
          "duration": 1.3358519999999885,
          "durationTicks": 855,
          "midi": 65,
          "name": "F4",
          "ticks": 67200,
          "time": 104.99328,
          "velocity": 0.48031496062992124
        },
        {
          "duration": 0.6327719999999886,
          "durationTicks": 405,
          "midi": 69,
          "name": "A4",
          "ticks": 67200,
          "time": 104.99328,
          "velocity": 0.5039370078740157
        },
        {
          "duration": 0.6562080000000066,
          "durationTicks": 420,
          "midi": 50,
          "name": "D3",
          "ticks": 67680,
          "time": 105.74323199999999,
          "velocity": 0.6456692913385826
        },
        {
          "duration": 0.609335999999999,
          "durationTicks": 390,
          "midi": 53,
          "name": "F3",
          "ticks": 67680,
          "time": 105.74323199999999,
          "velocity": 0.5748031496062992
        },
        {
          "duration": 0.5780880000000082,
          "durationTicks": 370,
          "midi": 57,
          "name": "A3",
          "ticks": 67680,
          "time": 105.74323199999999,
          "velocity": 0.4645669291338583
        },
        {
          "duration": 0.5937119999999965,
          "durationTicks": 380,
          "midi": 65,
          "name": "F4",
          "ticks": 67680,
          "time": 105.74323199999999,
          "velocity": 0.5039370078740157
        },
        {
          "duration": 0.5780880000000082,
          "durationTicks": 370,
          "midi": 69,
          "name": "A4",
          "ticks": 67680,
          "time": 105.74323199999999,
          "velocity": 0.4566929133858268
        },
        {
          "duration": 0.5858999999999952,
          "durationTicks": 375,
          "midi": 48,
          "name": "C3",
          "ticks": 68160,
          "time": 106.493184,
          "velocity": 0.6377952755905512
        },
        {
          "duration": 0.5937119999999823,
          "durationTicks": 380,
          "midi": 51,
          "name": "D#3",
          "ticks": 68160,
          "time": 106.493184,
          "velocity": 0.44881889763779526
        },
        {
          "duration": 0.6015239999999977,
          "durationTicks": 385,
          "midi": 55,
          "name": "G3",
          "ticks": 68160,
          "time": 106.493184,
          "velocity": 0.4330708661417323
        },
        {
          "duration": 0.5624639999999914,
          "durationTicks": 360,
          "midi": 63,
          "name": "D#4",
          "ticks": 68160,
          "time": 106.493184,
          "velocity": 0.33070866141732286
        },
        {
          "duration": 1.2889799999999951,
          "durationTicks": 825,
          "midi": 63,
          "name": "D#4",
          "ticks": 68160,
          "time": 106.493184,
          "velocity": 0.48031496062992124
        },
        {
          "duration": 0.5702759999999927,
          "durationTicks": 365,
          "midi": 67,
          "name": "G4",
          "ticks": 68160,
          "time": 106.493184,
          "velocity": 0.3779527559055118
        },
        {
          "duration": 0.5234039999999993,
          "durationTicks": 335,
          "midi": 48,
          "name": "C3",
          "ticks": 68640,
          "time": 107.24313599999999,
          "velocity": 0.6299212598425197
        },
        {
          "duration": 0.515591999999998,
          "durationTicks": 330,
          "midi": 51,
          "name": "D#3",
          "ticks": 68640,
          "time": 107.24313599999999,
          "velocity": 0.49606299212598426
        },
        {
          "duration": 0.507780000000011,
          "durationTicks": 325,
          "midi": 55,
          "name": "G3",
          "ticks": 68640,
          "time": 107.24313599999999,
          "velocity": 0.49606299212598426
        },
        {
          "duration": 0.5780880000000082,
          "durationTicks": 370,
          "midi": 63,
          "name": "D#4",
          "ticks": 68640,
          "time": 107.24313599999999,
          "velocity": 0.4094488188976378
        },
        {
          "duration": 0.5937119999999965,
          "durationTicks": 380,
          "midi": 67,
          "name": "G4",
          "ticks": 68640,
          "time": 107.24313599999999,
          "velocity": 0.4566929133858268
        },
        {
          "duration": 1.3280400000000014,
          "durationTicks": 850,
          "midi": 60,
          "name": "C4",
          "ticks": 69120,
          "time": 107.993088,
          "velocity": 0.5826771653543307
        },
        {
          "duration": 0.8436959999999942,
          "durationTicks": 540,
          "midi": 62,
          "name": "D4",
          "ticks": 69120,
          "time": 107.993088,
          "velocity": 0.5196850393700787
        },
        {
          "duration": 1.3046039999999977,
          "durationTicks": 835,
          "midi": 63,
          "name": "D#4",
          "ticks": 69120,
          "time": 107.993088,
          "velocity": 0.7480314960629921
        },
        {
          "duration": 1.476467999999997,
          "durationTicks": 945,
          "midi": 63,
          "name": "D#4",
          "ticks": 69120,
          "time": 107.993088,
          "velocity": 0.5826771653543307
        },
        {
          "duration": 1.3592879999999923,
          "durationTicks": 870,
          "midi": 67,
          "name": "G4",
          "ticks": 69120,
          "time": 107.993088,
          "velocity": 0.7244094488188977
        },
        {
          "duration": 0.4609080000000034,
          "durationTicks": 295,
          "midi": 62,
          "name": "D4",
          "ticks": 69720,
          "time": 108.930528,
          "velocity": 0.5669291338582677
        },
        {
          "duration": 0.5390280000000018,
          "durationTicks": 345,
          "midi": 70,
          "name": "A#4",
          "ticks": 69720,
          "time": 108.930528,
          "velocity": 0.7244094488188977
        },
        {
          "duration": 0.45309600000000216,
          "durationTicks": 290,
          "midi": 60,
          "name": "C4",
          "ticks": 70080,
          "time": 109.49299199999999,
          "velocity": 0.5669291338582677
        },
        {
          "duration": 1.5155280000000175,
          "durationTicks": 970,
          "midi": 62,
          "name": "D4",
          "ticks": 70080,
          "time": 109.49299199999999,
          "velocity": 0.47244094488188976
        },
        {
          "duration": 0.46090800000001764,
          "durationTicks": 295,
          "midi": 65,
          "name": "F4",
          "ticks": 70080,
          "time": 109.49299199999999,
          "velocity": 0.84251968503937
        },
        {
          "duration": 1.4061599999999999,
          "durationTicks": 900,
          "midi": 65,
          "name": "F4",
          "ticks": 70080,
          "time": 109.49299199999999,
          "velocity": 0.48031496062992124
        },
        {
          "duration": 0.5390280000000018,
          "durationTicks": 345,
          "midi": 69,
          "name": "A4",
          "ticks": 70080,
          "time": 109.49299199999999,
          "velocity": 0.6771653543307087
        },
        {
          "duration": 0.9452519999999964,
          "durationTicks": 605,
          "midi": 60,
          "name": "C4",
          "ticks": 70440,
          "time": 110.05545599999999,
          "velocity": 0.49606299212598426
        },
        {
          "duration": 0.960875999999999,
          "durationTicks": 615,
          "midi": 65,
          "name": "F4",
          "ticks": 70440,
          "time": 110.05545599999999,
          "velocity": 0.6456692913385826
        },
        {
          "duration": 0.9843120000000027,
          "durationTicks": 630,
          "midi": 69,
          "name": "A4",
          "ticks": 70440,
          "time": 110.05545599999999,
          "velocity": 0.5196850393700787
        },
        {
          "duration": 0.960875999999999,
          "durationTicks": 615,
          "midi": 72,
          "name": "C5",
          "ticks": 70440,
          "time": 110.05545599999999,
          "velocity": 0.6141732283464567
        },
        {
          "duration": 1.2655440000000056,
          "durationTicks": 810,
          "midi": 51,
          "name": "D#3",
          "ticks": 71040,
          "time": 110.99289599999999,
          "velocity": 0.33070866141732286
        },
        {
          "duration": 1.343664000000004,
          "durationTicks": 860,
          "midi": 63,
          "name": "D#4",
          "ticks": 71040,
          "time": 110.99289599999999,
          "velocity": 0.9291338582677166
        },
        {
          "duration": 1.4608439999999945,
          "durationTicks": 935,
          "midi": 63,
          "name": "D#4",
          "ticks": 71040,
          "time": 110.99289599999999,
          "velocity": 0.4251968503937008
        },
        {
          "duration": 1.2889800000000093,
          "durationTicks": 825,
          "midi": 67,
          "name": "G4",
          "ticks": 71040,
          "time": 110.99289599999999,
          "velocity": 0.4881889763779528
        },
        {
          "duration": 1.343664000000004,
          "durationTicks": 860,
          "midi": 70,
          "name": "A#4",
          "ticks": 71040,
          "time": 110.99289599999999,
          "velocity": 0.5354330708661418
        },
        {
          "duration": 0.23435999999999524,
          "durationTicks": 150,
          "midi": 58,
          "name": "A#3",
          "ticks": 71640,
          "time": 111.930336,
          "velocity": 0.7007874015748031
        },
        {
          "duration": 0.2265480000000082,
          "durationTicks": 145,
          "midi": 60,
          "name": "C4",
          "ticks": 71760,
          "time": 112.117824,
          "velocity": 0.6141732283464567
        },
        {
          "duration": 1.46865600000001,
          "durationTicks": 940,
          "midi": 50,
          "name": "D3",
          "ticks": 71880,
          "time": 112.30531199999999,
          "velocity": 0.33070866141732286
        },
        {
          "duration": 1.4920920000000137,
          "durationTicks": 955,
          "midi": 62,
          "name": "D4",
          "ticks": 71880,
          "time": 112.30531199999999,
          "velocity": 0.6771653543307087
        },
        {
          "duration": 1.4999040000000008,
          "durationTicks": 960,
          "midi": 62,
          "name": "D4",
          "ticks": 72000,
          "time": 112.49279999999999,
          "velocity": 0.36220472440944884
        },
        {
          "duration": 1.2421080000000018,
          "durationTicks": 795,
          "midi": 65,
          "name": "F4",
          "ticks": 72000,
          "time": 112.49279999999999,
          "velocity": 0.4409448818897638
        },
        {
          "duration": 1.3358520000000027,
          "durationTicks": 855,
          "midi": 69,
          "name": "A4",
          "ticks": 72000,
          "time": 112.49279999999999,
          "velocity": 0.5354330708661418
        },
        {
          "duration": 1.1874240000000071,
          "durationTicks": 760,
          "midi": 65,
          "name": "F4",
          "ticks": 72120,
          "time": 112.68028799999999,
          "velocity": 0.6299212598425197
        },
        {
          "duration": 2.984183999999999,
          "durationTicks": 1910,
          "midi": 48,
          "name": "C3",
          "ticks": 72840,
          "time": 113.80521599999999,
          "velocity": 0.4409448818897638
        },
        {
          "duration": 2.9373119999999915,
          "durationTicks": 1880,
          "midi": 60,
          "name": "C4",
          "ticks": 72960,
          "time": 113.99270399999999,
          "velocity": 0.4251968503937008
        },
        {
          "duration": 0.6405839999999898,
          "durationTicks": 410,
          "midi": 62,
          "name": "D4",
          "ticks": 72960,
          "time": 113.99270399999999,
          "velocity": 0.6771653543307087
        },
        {
          "duration": 2.851380000000006,
          "durationTicks": 1825,
          "midi": 63,
          "name": "D#4",
          "ticks": 72960,
          "time": 113.99270399999999,
          "velocity": 0.36220472440944884
        },
        {
          "duration": 2.7732599999999934,
          "durationTicks": 1775,
          "midi": 67,
          "name": "G4",
          "ticks": 72960,
          "time": 113.99270399999999,
          "velocity": 0.5433070866141733
        },
        {
          "duration": 2.3904720000000026,
          "durationTicks": 1530,
          "midi": 60,
          "name": "C4",
          "ticks": 73320,
          "time": 114.555168,
          "velocity": 0.7480314960629921
        },
        {
          "duration": 1.3514760000000052,
          "durationTicks": 865,
          "midi": 53,
          "name": "F3",
          "ticks": 74880,
          "time": 116.99251199999999,
          "velocity": 0.6850393700787402
        },
        {
          "duration": 1.3514760000000052,
          "durationTicks": 865,
          "midi": 58,
          "name": "A#3",
          "ticks": 74880,
          "time": 116.99251199999999,
          "velocity": 0.7716535433070866
        },
        {
          "duration": 1.382723999999996,
          "durationTicks": 885,
          "midi": 60,
          "name": "C4",
          "ticks": 74880,
          "time": 116.99251199999999,
          "velocity": 0.7322834645669292
        },
        {
          "duration": 1.3592880000000065,
          "durationTicks": 870,
          "midi": 63,
          "name": "D#4",
          "ticks": 74880,
          "time": 116.99251199999999,
          "velocity": 0.6850393700787402
        },
        {
          "duration": 1.4061599999999999,
          "durationTicks": 900,
          "midi": 53,
          "name": "F3",
          "ticks": 75840,
          "time": 118.49241599999999,
          "velocity": 0.6377952755905512
        },
        {
          "duration": 1.3670999999999935,
          "durationTicks": 875,
          "midi": 58,
          "name": "A#3",
          "ticks": 75840,
          "time": 118.49241599999999,
          "velocity": 0.7716535433070866
        },
        {
          "duration": 1.3905359999999973,
          "durationTicks": 890,
          "midi": 60,
          "name": "C4",
          "ticks": 75840,
          "time": 118.49241599999999,
          "velocity": 0.7322834645669292
        },
        {
          "duration": 1.3670999999999935,
          "durationTicks": 875,
          "midi": 63,
          "name": "D#4",
          "ticks": 75840,
          "time": 118.49241599999999,
          "velocity": 0.6377952755905512
        },
        {
          "duration": 2.851380000000006,
          "durationTicks": 1825,
          "midi": 46,
          "name": "A#2",
          "ticks": 76800,
          "time": 119.99231999999999,
          "velocity": 0.7086614173228346
        },
        {
          "duration": 0.5468399999999889,
          "durationTicks": 350,
          "midi": 58,
          "name": "A#3",
          "ticks": 76800,
          "time": 119.99231999999999,
          "velocity": 0.6771653543307087
        },
        {
          "duration": 0.5390280000000018,
          "durationTicks": 345,
          "midi": 62,
          "name": "D4",
          "ticks": 76800,
          "time": 119.99231999999999,
          "velocity": 0.6771653543307087
        },
        {
          "duration": 0.5468399999999889,
          "durationTicks": 350,
          "midi": 65,
          "name": "F4",
          "ticks": 76800,
          "time": 119.99231999999999,
          "velocity": 0.6771653543307087
        },
        {
          "duration": 0.5546520000000186,
          "durationTicks": 355,
          "midi": 58,
          "name": "A#3",
          "ticks": 77280,
          "time": 120.74227199999999,
          "velocity": 0.6771653543307087
        },
        {
          "duration": 0.5546520000000186,
          "durationTicks": 355,
          "midi": 62,
          "name": "D4",
          "ticks": 77280,
          "time": 120.74227199999999,
          "velocity": 0.6771653543307087
        },
        {
          "duration": 0.5624640000000056,
          "durationTicks": 360,
          "midi": 65,
          "name": "F4",
          "ticks": 77280,
          "time": 120.74227199999999,
          "velocity": 0.6771653543307087
        },
        {
          "duration": 0.6483960000000053,
          "durationTicks": 415,
          "midi": 58,
          "name": "A#3",
          "ticks": 77760,
          "time": 121.492224,
          "velocity": 0.6771653543307087
        },
        {
          "duration": 0.5468399999999889,
          "durationTicks": 350,
          "midi": 62,
          "name": "D4",
          "ticks": 77760,
          "time": 121.492224,
          "velocity": 0.6771653543307087
        },
        {
          "duration": 0.5546520000000044,
          "durationTicks": 355,
          "midi": 65,
          "name": "F4",
          "ticks": 77760,
          "time": 121.492224,
          "velocity": 0.6771653543307087
        },
        {
          "duration": 0.5546520000000186,
          "durationTicks": 355,
          "midi": 58,
          "name": "A#3",
          "ticks": 78240,
          "time": 122.24217599999999,
          "velocity": 0.8346456692913385
        },
        {
          "duration": 0.5624640000000056,
          "durationTicks": 360,
          "midi": 60,
          "name": "C4",
          "ticks": 78240,
          "time": 122.24217599999999,
          "velocity": 0.8346456692913385
        },
        {
          "duration": 0.5624640000000056,
          "durationTicks": 360,
          "midi": 65,
          "name": "F4",
          "ticks": 78240,
          "time": 122.24217599999999,
          "velocity": 0.8346456692913385
        },
        {
          "duration": 0.07030799999999715,
          "durationTicks": 45,
          "midi": 46,
          "name": "A#2",
          "ticks": 78720,
          "time": 122.992128,
          "velocity": 0.7716535433070866
        },
        {
          "duration": 0.17186399999998514,
          "durationTicks": 110,
          "midi": 58,
          "name": "A#3",
          "ticks": 78720,
          "time": 122.992128,
          "velocity": 0.8740157480314961
        },
        {
          "duration": 0.1640519999999981,
          "durationTicks": 105,
          "midi": 60,
          "name": "C4",
          "ticks": 78720,
          "time": 122.992128,
          "velocity": 0.8267716535433071
        },
        {
          "duration": 0.17186399999998514,
          "durationTicks": 110,
          "midi": 65,
          "name": "F4",
          "ticks": 78720,
          "time": 122.992128,
          "velocity": 0.7795275590551181
        },
        {
          "duration": 0.11717999999999051,
          "durationTicks": 75,
          "midi": 48,
          "name": "C3",
          "ticks": 78840,
          "time": 123.179616,
          "velocity": 0.6141732283464567
        },
        {
          "duration": 0.1640519999999981,
          "durationTicks": 105,
          "midi": 60,
          "name": "C4",
          "ticks": 78840,
          "time": 123.179616,
          "velocity": 0.7795275590551181
        },
        {
          "duration": 0.17186399999998514,
          "durationTicks": 110,
          "midi": 63,
          "name": "D#4",
          "ticks": 78840,
          "time": 123.179616,
          "velocity": 0.7322834645669292
        },
        {
          "duration": 0.17186399999998514,
          "durationTicks": 110,
          "midi": 67,
          "name": "G4",
          "ticks": 78840,
          "time": 123.179616,
          "velocity": 0.7795275590551181
        },
        {
          "duration": 2.1014280000000127,
          "durationTicks": 1345,
          "midi": 48,
          "name": "C3",
          "ticks": 79080,
          "time": 123.55459199999999,
          "velocity": 0.5905511811023622
        },
        {
          "duration": 1.632708000000008,
          "durationTicks": 1045,
          "midi": 60,
          "name": "C4",
          "ticks": 79080,
          "time": 123.55459199999999,
          "velocity": 0.7637795275590551
        },
        {
          "duration": 1.632708000000008,
          "durationTicks": 1045,
          "midi": 63,
          "name": "D#4",
          "ticks": 79080,
          "time": 123.55459199999999,
          "velocity": 0.6535433070866141
        },
        {
          "duration": 1.6561440000000118,
          "durationTicks": 1060,
          "midi": 67,
          "name": "G4",
          "ticks": 79080,
          "time": 123.55459199999999,
          "velocity": 0.9212598425196851
        },
        {
          "duration": 1.374912000000009,
          "durationTicks": 880,
          "midi": 53,
          "name": "F3",
          "ticks": 80640,
          "time": 125.991936,
          "velocity": 0.8031496062992126
        },
        {
          "duration": 0.3984119999999933,
          "durationTicks": 255,
          "midi": 60,
          "name": "C4",
          "ticks": 80640,
          "time": 125.991936,
          "velocity": 0.8031496062992126
        },
        {
          "duration": 1.374912000000009,
          "durationTicks": 880,
          "midi": 63,
          "name": "D#4",
          "ticks": 80640,
          "time": 125.991936,
          "velocity": 0.8031496062992126
        },
        {
          "duration": 0.8436960000000084,
          "durationTicks": 540,
          "midi": 60,
          "name": "C4",
          "ticks": 81000,
          "time": 126.55439999999999,
          "velocity": 0.7637795275590551
        },
        {
          "duration": 1.3436639999999898,
          "durationTicks": 860,
          "midi": 53,
          "name": "F3",
          "ticks": 81600,
          "time": 127.49184,
          "velocity": 0.8267716535433071
        },
        {
          "duration": 0.4062239999999946,
          "durationTicks": 260,
          "midi": 60,
          "name": "C4",
          "ticks": 81600,
          "time": 127.49184,
          "velocity": 0.8267716535433071
        },
        {
          "duration": 1.3436639999999898,
          "durationTicks": 860,
          "midi": 63,
          "name": "D#4",
          "ticks": 81600,
          "time": 127.49184,
          "velocity": 0.7165354330708661
        },
        {
          "duration": 0.7968239999999867,
          "durationTicks": 510,
          "midi": 60,
          "name": "C4",
          "ticks": 81960,
          "time": 128.054304,
          "velocity": 0.7637795275590551
        },
        {
          "duration": 1.335852000000017,
          "durationTicks": 855,
          "midi": 53,
          "name": "F3",
          "ticks": 82560,
          "time": 128.99174399999998,
          "velocity": 0.7322834645669292
        },
        {
          "duration": 1.3436639999999898,
          "durationTicks": 860,
          "midi": 58,
          "name": "A#3",
          "ticks": 82560,
          "time": 128.99174399999998,
          "velocity": 0.8740157480314961
        },
        {
          "duration": 1.3592880000000207,
          "durationTicks": 870,
          "midi": 62,
          "name": "D4",
          "ticks": 82560,
          "time": 128.99174399999998,
          "velocity": 0.6062992125984252
        },
        {
          "duration": 0.6483959999999911,
          "durationTicks": 415,
          "midi": 53,
          "name": "F3",
          "ticks": 83520,
          "time": 130.491648,
          "velocity": 0.8267716535433071
        },
        {
          "duration": 0.6952679999999987,
          "durationTicks": 445,
          "midi": 58,
          "name": "A#3",
          "ticks": 83520,
          "time": 130.491648,
          "velocity": 0.9212598425196851
        },
        {
          "duration": 0.7421400000000062,
          "durationTicks": 475,
          "midi": 62,
          "name": "D4",
          "ticks": 83520,
          "time": 130.491648,
          "velocity": 0.6692913385826772
        },
        {
          "duration": 0.6483959999999911,
          "durationTicks": 415,
          "midi": 53,
          "name": "F3",
          "ticks": 84000,
          "time": 131.2416,
          "velocity": 0.8267716535433071
        },
        {
          "duration": 0.7030799999999999,
          "durationTicks": 450,
          "midi": 57,
          "name": "A3",
          "ticks": 84000,
          "time": 131.2416,
          "velocity": 0.9212598425196851
        },
        {
          "duration": 0.6093359999999848,
          "durationTicks": 390,
          "midi": 62,
          "name": "D4",
          "ticks": 84000,
          "time": 131.2416,
          "velocity": 0.6692913385826772
        },
        {
          "duration": 1.663956000000013,
          "durationTicks": 1065,
          "midi": 53,
          "name": "F3",
          "ticks": 90240,
          "time": 140.990976,
          "velocity": 0.7716535433070866
        },
        {
          "duration": 1.0389959999999974,
          "durationTicks": 665,
          "midi": 60,
          "name": "C4",
          "ticks": 92160,
          "time": 143.990784,
          "velocity": 0.8031496062992126
        },
        {
          "duration": 1.0389959999999974,
          "durationTicks": 665,
          "midi": 63,
          "name": "D#4",
          "ticks": 92160,
          "time": 143.990784,
          "velocity": 0.6299212598425197
        },
        {
          "duration": 1.382723999999996,
          "durationTicks": 885,
          "midi": 68,
          "name": "G#4",
          "ticks": 92160,
          "time": 143.990784,
          "velocity": 0.6929133858267716
        },
        {
          "duration": 0.2265480000000082,
          "durationTicks": 145,
          "midi": 60,
          "name": "C4",
          "ticks": 92880,
          "time": 145.115712,
          "velocity": 0.6377952755905512
        },
        {
          "duration": 0.27341999999998734,
          "durationTicks": 175,
          "midi": 63,
          "name": "D#4",
          "ticks": 92880,
          "time": 145.115712,
          "velocity": 0.5511811023622047
        },
        {
          "duration": 1.4295960000000036,
          "durationTicks": 915,
          "midi": 60,
          "name": "C4",
          "ticks": 93120,
          "time": 145.49068799999998,
          "velocity": 0.6771653543307087
        },
        {
          "duration": 1.4295960000000036,
          "durationTicks": 915,
          "midi": 63,
          "name": "D#4",
          "ticks": 93120,
          "time": 145.49068799999998,
          "velocity": 0.7086614173228346
        },
        {
          "duration": 1.3514760000000194,
          "durationTicks": 865,
          "midi": 68,
          "name": "G#4",
          "ticks": 93120,
          "time": 145.49068799999998,
          "velocity": 0.6141732283464567
        },
        {
          "duration": 0.6562079999999924,
          "durationTicks": 420,
          "midi": 58,
          "name": "A#3",
          "ticks": 94080,
          "time": 146.990592,
          "velocity": 0.6456692913385826
        },
        {
          "duration": 0.6718319999999949,
          "durationTicks": 430,
          "midi": 62,
          "name": "D4",
          "ticks": 94080,
          "time": 146.990592,
          "velocity": 0.5826771653543307
        },
        {
          "duration": 0.6796439999999961,
          "durationTicks": 435,
          "midi": 65,
          "name": "F4",
          "ticks": 94080,
          "time": 146.990592,
          "velocity": 0.7086614173228346
        },
        {
          "duration": 0.6562079999999924,
          "durationTicks": 420,
          "midi": 58,
          "name": "A#3",
          "ticks": 94560,
          "time": 147.740544,
          "velocity": 0.6929133858267716
        },
        {
          "duration": 0.6562079999999924,
          "durationTicks": 420,
          "midi": 62,
          "name": "D4",
          "ticks": 94560,
          "time": 147.740544,
          "velocity": 0.5984251968503937
        },
        {
          "duration": 0.6796439999999961,
          "durationTicks": 435,
          "midi": 65,
          "name": "F4",
          "ticks": 94560,
          "time": 147.740544,
          "velocity": 0.6614173228346457
        },
        {
          "duration": 0.6874559999999974,
          "durationTicks": 440,
          "midi": 58,
          "name": "A#3",
          "ticks": 95040,
          "time": 148.49049599999998,
          "velocity": 0.6614173228346457
        },
        {
          "duration": 0.7187040000000309,
          "durationTicks": 460,
          "midi": 62,
          "name": "D4",
          "ticks": 95040,
          "time": 148.49049599999998,
          "velocity": 0.5196850393700787
        },
        {
          "duration": 0.7108920000000012,
          "durationTicks": 455,
          "midi": 65,
          "name": "F4",
          "ticks": 95040,
          "time": 148.49049599999998,
          "velocity": 0.6771653543307087
        },
        {
          "duration": 0.47653199999999174,
          "durationTicks": 305,
          "midi": 58,
          "name": "A#3",
          "ticks": 95520,
          "time": 149.240448,
          "velocity": 0.8031496062992126
        },
        {
          "duration": 0.4687199999999905,
          "durationTicks": 300,
          "midi": 62,
          "name": "D4",
          "ticks": 95520,
          "time": 149.240448,
          "velocity": 0.5826771653543307
        },
        {
          "duration": 0.49215599999999426,
          "durationTicks": 315,
          "midi": 65,
          "name": "F4",
          "ticks": 95520,
          "time": 149.240448,
          "velocity": 0.8031496062992126
        },
        {
          "duration": 1.05462,
          "durationTicks": 675,
          "midi": 60,
          "name": "C4",
          "ticks": 96000,
          "time": 149.9904,
          "velocity": 0.8031496062992126
        },
        {
          "duration": 1.05462,
          "durationTicks": 675,
          "midi": 63,
          "name": "D#4",
          "ticks": 96000,
          "time": 149.9904,
          "velocity": 0.6299212598425197
        },
        {
          "duration": 1.3983479999999986,
          "durationTicks": 895,
          "midi": 68,
          "name": "G#4",
          "ticks": 96000,
          "time": 149.9904,
          "velocity": 0.6929133858267716
        },
        {
          "duration": 0.2265480000000082,
          "durationTicks": 145,
          "midi": 60,
          "name": "C4",
          "ticks": 96720,
          "time": 151.11532799999998,
          "velocity": 0.6377952755905512
        },
        {
          "duration": 0.2656080000000145,
          "durationTicks": 170,
          "midi": 63,
          "name": "D#4",
          "ticks": 96720,
          "time": 151.11532799999998,
          "velocity": 0.5511811023622047
        },
        {
          "duration": 1.4295960000000036,
          "durationTicks": 915,
          "midi": 60,
          "name": "C4",
          "ticks": 96960,
          "time": 151.49030399999998,
          "velocity": 0.6771653543307087
        },
        {
          "duration": 1.4295960000000036,
          "durationTicks": 915,
          "midi": 63,
          "name": "D#4",
          "ticks": 96960,
          "time": 151.49030399999998,
          "velocity": 0.7086614173228346
        },
        {
          "duration": 1.3514760000000194,
          "durationTicks": 865,
          "midi": 68,
          "name": "G#4",
          "ticks": 96960,
          "time": 151.49030399999998,
          "velocity": 0.6141732283464567
        },
        {
          "duration": 0.6562079999999924,
          "durationTicks": 420,
          "midi": 58,
          "name": "A#3",
          "ticks": 97920,
          "time": 152.990208,
          "velocity": 0.6456692913385826
        },
        {
          "duration": 0.6718319999999949,
          "durationTicks": 430,
          "midi": 62,
          "name": "D4",
          "ticks": 97920,
          "time": 152.990208,
          "velocity": 0.5826771653543307
        },
        {
          "duration": 0.6796439999999961,
          "durationTicks": 435,
          "midi": 65,
          "name": "F4",
          "ticks": 97920,
          "time": 152.990208,
          "velocity": 0.7086614173228346
        },
        {
          "duration": 0.6640199999999936,
          "durationTicks": 425,
          "midi": 58,
          "name": "A#3",
          "ticks": 98400,
          "time": 153.74016,
          "velocity": 0.6929133858267716
        },
        {
          "duration": 0.6562079999999924,
          "durationTicks": 420,
          "midi": 62,
          "name": "D4",
          "ticks": 98400,
          "time": 153.74016,
          "velocity": 0.5984251968503937
        },
        {
          "duration": 0.687455999999969,
          "durationTicks": 440,
          "midi": 65,
          "name": "F4",
          "ticks": 98400,
          "time": 153.74016,
          "velocity": 0.6614173228346457
        },
        {
          "duration": 0.6874559999999974,
          "durationTicks": 440,
          "midi": 58,
          "name": "A#3",
          "ticks": 98880,
          "time": 154.49011199999998,
          "velocity": 0.6614173228346457
        },
        {
          "duration": 0.7187040000000025,
          "durationTicks": 460,
          "midi": 62,
          "name": "D4",
          "ticks": 98880,
          "time": 154.49011199999998,
          "velocity": 0.5196850393700787
        },
        {
          "duration": 0.7108920000000012,
          "durationTicks": 455,
          "midi": 65,
          "name": "F4",
          "ticks": 98880,
          "time": 154.49011199999998,
          "velocity": 0.6771653543307087
        },
        {
          "duration": 0.47653199999999174,
          "durationTicks": 305,
          "midi": 58,
          "name": "A#3",
          "ticks": 99360,
          "time": 155.240064,
          "velocity": 0.8031496062992126
        },
        {
          "duration": 0.4687199999999905,
          "durationTicks": 300,
          "midi": 62,
          "name": "D4",
          "ticks": 99360,
          "time": 155.240064,
          "velocity": 0.5826771653543307
        },
        {
          "duration": 0.49215599999999426,
          "durationTicks": 315,
          "midi": 65,
          "name": "F4",
          "ticks": 99360,
          "time": 155.240064,
          "velocity": 0.8031496062992126
        },
        {
          "duration": 0.2656079999999861,
          "durationTicks": 170,
          "midi": 58,
          "name": "A#3",
          "ticks": 99840,
          "time": 155.990016,
          "velocity": 0.6929133858267716
        },
        {
          "duration": 0.35153999999999996,
          "durationTicks": 225,
          "midi": 62,
          "name": "D4",
          "ticks": 99840,
          "time": 155.990016,
          "velocity": 0.5039370078740157
        },
        {
          "duration": 0.6093359999999848,
          "durationTicks": 390,
          "midi": 67,
          "name": "G4",
          "ticks": 99840,
          "time": 155.990016,
          "velocity": 0.6456692913385826
        },
        {
          "duration": 1.0155599999999936,
          "durationTicks": 650,
          "midi": 58,
          "name": "A#3",
          "ticks": 100080,
          "time": 156.364992,
          "velocity": 0.6456692913385826
        },
        {
          "duration": 0.8436959999999942,
          "durationTicks": 540,
          "midi": 62,
          "name": "D4",
          "ticks": 100200,
          "time": 156.55248,
          "velocity": 0.4094488188976378
        },
        {
          "duration": 0.4687200000000189,
          "durationTicks": 300,
          "midi": 67,
          "name": "G4",
          "ticks": 100440,
          "time": 156.92745599999998,
          "velocity": 0.6929133858267716
        },
        {
          "duration": 0.3593520000000012,
          "durationTicks": 230,
          "midi": 57,
          "name": "A3",
          "ticks": 100800,
          "time": 157.48991999999998,
          "velocity": 0.5984251968503937
        },
        {
          "duration": 0.4687200000000189,
          "durationTicks": 300,
          "midi": 60,
          "name": "C4",
          "ticks": 100800,
          "time": 157.48991999999998,
          "velocity": 0.5511811023622047
        },
        {
          "duration": 0.4843440000000214,
          "durationTicks": 310,
          "midi": 65,
          "name": "F4",
          "ticks": 100800,
          "time": 157.48991999999998,
          "velocity": 0.5511811023622047
        },
        {
          "duration": 0.8827560000000005,
          "durationTicks": 565,
          "midi": 57,
          "name": "A3",
          "ticks": 101160,
          "time": 158.052384,
          "velocity": 0.4566929133858268
        },
        {
          "duration": 0.8358840000000214,
          "durationTicks": 535,
          "midi": 60,
          "name": "C4",
          "ticks": 101160,
          "time": 158.052384,
          "velocity": 0.5354330708661418
        },
        {
          "duration": 0.43747200000001385,
          "durationTicks": 280,
          "midi": 65,
          "name": "F4",
          "ticks": 101160,
          "time": 158.052384,
          "velocity": 0.29133858267716534
        },
        {
          "duration": 0.2656079999999861,
          "durationTicks": 170,
          "midi": 65,
          "name": "F4",
          "ticks": 101520,
          "time": 158.614848,
          "velocity": 0.6456692913385826
        },
        {
          "duration": 0.42965999999998417,
          "durationTicks": 275,
          "midi": 55,
          "name": "G3",
          "ticks": 101760,
          "time": 158.989824,
          "velocity": 0.6929133858267716
        },
        {
          "duration": 0.4999679999999955,
          "durationTicks": 320,
          "midi": 58,
          "name": "A#3",
          "ticks": 101760,
          "time": 158.989824,
          "velocity": 0.5984251968503937
        },
        {
          "duration": 0.4999679999999955,
          "durationTicks": 320,
          "midi": 63,
          "name": "D#4",
          "ticks": 101760,
          "time": 158.989824,
          "velocity": 0.4566929133858268
        },
        {
          "duration": 0.8905680000000018,
          "durationTicks": 570,
          "midi": 55,
          "name": "G3",
          "ticks": 102120,
          "time": 159.55228799999998,
          "velocity": 0.6929133858267716
        },
        {
          "duration": 0.47653200000002016,
          "durationTicks": 305,
          "midi": 58,
          "name": "A#3",
          "ticks": 102120,
          "time": 159.55228799999998,
          "velocity": 0.5669291338582677
        },
        {
          "duration": 0.3046680000000208,
          "durationTicks": 195,
          "midi": 63,
          "name": "D#4",
          "ticks": 102120,
          "time": 159.55228799999998,
          "velocity": 0.41732283464566927
        },
        {
          "duration": 0.46090800000001764,
          "durationTicks": 295,
          "midi": 63,
          "name": "D#4",
          "ticks": 102360,
          "time": 159.92726399999998,
          "velocity": 0.5354330708661418
        },
        {
          "duration": 0.31247999999999365,
          "durationTicks": 200,
          "midi": 58,
          "name": "A#3",
          "ticks": 102480,
          "time": 160.11475199999998,
          "velocity": 0.6929133858267716
        },
        {
          "duration": 0.4218480000000113,
          "durationTicks": 270,
          "midi": 53,
          "name": "F3",
          "ticks": 102720,
          "time": 160.48972799999999,
          "velocity": 0.6929133858267716
        },
        {
          "duration": 0.5077800000000252,
          "durationTicks": 325,
          "midi": 57,
          "name": "A3",
          "ticks": 102720,
          "time": 160.48972799999999,
          "velocity": 0.7401574803149606
        },
        {
          "duration": 0.4999679999999955,
          "durationTicks": 320,
          "midi": 62,
          "name": "D4",
          "ticks": 102720,
          "time": 160.48972799999999,
          "velocity": 0.47244094488188976
        },
        {
          "duration": 0.5468400000000031,
          "durationTicks": 350,
          "midi": 53,
          "name": "F3",
          "ticks": 103080,
          "time": 161.052192,
          "velocity": 0.6456692913385826
        },
        {
          "duration": 0.39841200000000754,
          "durationTicks": 255,
          "midi": 57,
          "name": "A3",
          "ticks": 103080,
          "time": 161.052192,
          "velocity": 0.5354330708661418
        },
        {
          "duration": 0.12499199999999178,
          "durationTicks": 80,
          "midi": 62,
          "name": "D4",
          "ticks": 103080,
          "time": 161.052192,
          "velocity": 0.5118110236220472
        },
        {
          "duration": 0.27342000000001576,
          "durationTicks": 175,
          "midi": 62,
          "name": "D4",
          "ticks": 103320,
          "time": 161.427168,
          "velocity": 0.3937007874015748
        },
        {
          "duration": 0.10936799999998925,
          "durationTicks": 70,
          "midi": 57,
          "name": "A3",
          "ticks": 103440,
          "time": 161.614656,
          "velocity": 0.5511811023622047
        },
        {
          "duration": 0.4999679999999955,
          "durationTicks": 320,
          "midi": 60,
          "name": "C4",
          "ticks": 103680,
          "time": 161.989632,
          "velocity": 0.5984251968503937
        },
        {
          "duration": 0.49215599999999426,
          "durationTicks": 315,
          "midi": 63,
          "name": "D#4",
          "ticks": 103680,
          "time": 161.989632,
          "velocity": 0.5511811023622047
        },
        {
          "duration": 0.4609079999999892,
          "durationTicks": 295,
          "midi": 67,
          "name": "G4",
          "ticks": 103680,
          "time": 161.989632,
          "velocity": 0.4094488188976378
        },
        {
          "duration": 0.41403600000001006,
          "durationTicks": 265,
          "midi": 60,
          "name": "C4",
          "ticks": 104040,
          "time": 162.55209599999998,
          "velocity": 0.6456692913385826
        },
        {
          "duration": 0.6249600000000157,
          "durationTicks": 400,
          "midi": 63,
          "name": "D#4",
          "ticks": 104040,
          "time": 162.55209599999998,
          "velocity": 0.5511811023622047
        },
        {
          "duration": 0.8358840000000214,
          "durationTicks": 535,
          "midi": 67,
          "name": "G4",
          "ticks": 104040,
          "time": 162.55209599999998,
          "velocity": 0.6456692913385826
        },
        {
          "duration": 0.3281039999999962,
          "durationTicks": 210,
          "midi": 60,
          "name": "C4",
          "ticks": 104400,
          "time": 163.11455999999998,
          "velocity": 0.5511811023622047
        },
        {
          "duration": 0.15624000000002525,
          "durationTicks": 100,
          "midi": 63,
          "name": "D#4",
          "ticks": 104520,
          "time": 163.30204799999998,
          "velocity": 0.4566929133858268
        },
        {
          "duration": 0.4687199999999905,
          "durationTicks": 300,
          "midi": 60,
          "name": "C4",
          "ticks": 104640,
          "time": 163.489536,
          "velocity": 0.5511811023622047
        },
        {
          "duration": 0.4843440000000214,
          "durationTicks": 310,
          "midi": 63,
          "name": "D#4",
          "ticks": 104640,
          "time": 163.489536,
          "velocity": 0.5354330708661418
        },
        {
          "duration": 1.2577320000000043,
          "durationTicks": 805,
          "midi": 67,
          "name": "G4",
          "ticks": 104640,
          "time": 163.489536,
          "velocity": 0.7165354330708661
        },
        {
          "duration": 0.5702759999999785,
          "durationTicks": 365,
          "midi": 60,
          "name": "C4",
          "ticks": 105000,
          "time": 164.052,
          "velocity": 0.5354330708661418
        },
        {
          "duration": 0.5546520000000044,
          "durationTicks": 355,
          "midi": 63,
          "name": "D#4",
          "ticks": 105000,
          "time": 164.052,
          "velocity": 0.4566929133858268
        },
        {
          "duration": 0.42965999999998417,
          "durationTicks": 275,
          "midi": 55,
          "name": "G3",
          "ticks": 105600,
          "time": 164.98944,
          "velocity": 0.5669291338582677
        },
        {
          "duration": 0.45309599999998795,
          "durationTicks": 290,
          "midi": 58,
          "name": "A#3",
          "ticks": 105600,
          "time": 164.98944,
          "velocity": 0.6141732283464567
        },
        {
          "duration": 0.4452839999999867,
          "durationTicks": 285,
          "midi": 65,
          "name": "F4",
          "ticks": 105600,
          "time": 164.98944,
          "velocity": 0.905511811023622
        },
        {
          "duration": 0.4999679999999955,
          "durationTicks": 320,
          "midi": 55,
          "name": "G3",
          "ticks": 105960,
          "time": 165.55190399999998,
          "velocity": 0.6141732283464567
        },
        {
          "duration": 0.4843440000000214,
          "durationTicks": 310,
          "midi": 58,
          "name": "A#3",
          "ticks": 105960,
          "time": 165.55190399999998,
          "velocity": 0.6299212598425197
        },
        {
          "duration": 0.4843440000000214,
          "durationTicks": 310,
          "midi": 65,
          "name": "F4",
          "ticks": 105960,
          "time": 165.55190399999998,
          "velocity": 0.6456692913385826
        },
        {
          "duration": 1.6405200000000093,
          "durationTicks": 1050,
          "midi": 55,
          "name": "G3",
          "ticks": 106320,
          "time": 166.11436799999998,
          "velocity": 0.6299212598425197
        },
        {
          "duration": 1.6483320000000106,
          "durationTicks": 1055,
          "midi": 58,
          "name": "A#3",
          "ticks": 106320,
          "time": 166.11436799999998,
          "velocity": 0.6614173228346457
        },
        {
          "duration": 1.6170840000000055,
          "durationTicks": 1035,
          "midi": 67,
          "name": "G4",
          "ticks": 106320,
          "time": 166.11436799999998,
          "velocity": 0.8661417322834646
        },
        {
          "duration": 0.6796440000000246,
          "durationTicks": 435,
          "midi": 46,
          "name": "A#2",
          "ticks": 107520,
          "time": 167.98924799999998,
          "velocity": 0.6456692913385826
        },
        {
          "duration": 0.6796440000000246,
          "durationTicks": 435,
          "midi": 50,
          "name": "D3",
          "ticks": 107520,
          "time": 167.98924799999998,
          "velocity": 0.44881889763779526
        },
        {
          "duration": 0.6718320000000233,
          "durationTicks": 430,
          "midi": 53,
          "name": "F3",
          "ticks": 107520,
          "time": 167.98924799999998,
          "velocity": 0.5748031496062992
        },
        {
          "duration": 0.6405840000000182,
          "durationTicks": 410,
          "midi": 62,
          "name": "D4",
          "ticks": 107520,
          "time": 167.98924799999998,
          "velocity": 0.3937007874015748
        },
        {
          "duration": 1.3280400000000157,
          "durationTicks": 850,
          "midi": 62,
          "name": "D4",
          "ticks": 107520,
          "time": 167.98924799999998,
          "velocity": 0.5118110236220472
        },
        {
          "duration": 0.6483960000000195,
          "durationTicks": 415,
          "midi": 65,
          "name": "F4",
          "ticks": 107520,
          "time": 167.98924799999998,
          "velocity": 0.4881889763779528
        },
        {
          "duration": 0.6249600000000157,
          "durationTicks": 400,
          "midi": 46,
          "name": "A#2",
          "ticks": 108000,
          "time": 168.73919999999998,
          "velocity": 0.6456692913385826
        },
        {
          "duration": 0.6015240000000119,
          "durationTicks": 385,
          "midi": 50,
          "name": "D3",
          "ticks": 108000,
          "time": 168.73919999999998,
          "velocity": 0.49606299212598426
        },
        {
          "duration": 0.6249600000000157,
          "durationTicks": 400,
          "midi": 53,
          "name": "F3",
          "ticks": 108000,
          "time": 168.73919999999998,
          "velocity": 0.5748031496062992
        },
        {
          "duration": 0.5780880000000082,
          "durationTicks": 370,
          "midi": 62,
          "name": "D4",
          "ticks": 108000,
          "time": 168.73919999999998,
          "velocity": 0.3937007874015748
        },
        {
          "duration": 0.5859000000000094,
          "durationTicks": 375,
          "midi": 65,
          "name": "F4",
          "ticks": 108000,
          "time": 168.73919999999998,
          "velocity": 0.47244094488188976
        },
        {
          "duration": 0.6718319999999949,
          "durationTicks": 430,
          "midi": 48,
          "name": "C3",
          "ticks": 108480,
          "time": 169.489152,
          "velocity": 0.6456692913385826
        },
        {
          "duration": 0.6483960000000195,
          "durationTicks": 415,
          "midi": 51,
          "name": "D#3",
          "ticks": 108480,
          "time": 169.489152,
          "velocity": 0.5748031496062992
        },
        {
          "duration": 0.6327719999999886,
          "durationTicks": 405,
          "midi": 55,
          "name": "G3",
          "ticks": 108480,
          "time": 169.489152,
          "velocity": 0.5905511811023622
        },
        {
          "duration": 0.6327719999999886,
          "durationTicks": 405,
          "midi": 63,
          "name": "D#4",
          "ticks": 108480,
          "time": 169.489152,
          "velocity": 0.4881889763779528
        },
        {
          "duration": 1.3124160000000131,
          "durationTicks": 840,
          "midi": 63,
          "name": "D#4",
          "ticks": 108480,
          "time": 169.489152,
          "velocity": 0.5118110236220472
        },
        {
          "duration": 0.6249600000000157,
          "durationTicks": 400,
          "midi": 67,
          "name": "G4",
          "ticks": 108480,
          "time": 169.489152,
          "velocity": 0.5354330708661418
        },
        {
          "duration": 0.6015240000000119,
          "durationTicks": 385,
          "midi": 48,
          "name": "C3",
          "ticks": 108960,
          "time": 170.239104,
          "velocity": 0.6456692913385826
        },
        {
          "duration": 0.6093359999999848,
          "durationTicks": 390,
          "midi": 51,
          "name": "D#3",
          "ticks": 108960,
          "time": 170.239104,
          "velocity": 0.5275590551181102
        },
        {
          "duration": 0.5937119999999823,
          "durationTicks": 380,
          "midi": 55,
          "name": "G3",
          "ticks": 108960,
          "time": 170.239104,
          "velocity": 0.5433070866141733
        },
        {
          "duration": 0.5937119999999823,
          "durationTicks": 380,
          "midi": 63,
          "name": "D#4",
          "ticks": 108960,
          "time": 170.239104,
          "velocity": 0.3779527559055118
        },
        {
          "duration": 0.5702759999999785,
          "durationTicks": 365,
          "midi": 67,
          "name": "G4",
          "ticks": 108960,
          "time": 170.239104,
          "velocity": 0.4409448818897638
        },
        {
          "duration": 0.6640199999999936,
          "durationTicks": 425,
          "midi": 50,
          "name": "D3",
          "ticks": 109440,
          "time": 170.98905599999998,
          "velocity": 0.6456692913385826
        },
        {
          "duration": 0.6562080000000208,
          "durationTicks": 420,
          "midi": 53,
          "name": "F3",
          "ticks": 109440,
          "time": 170.98905599999998,
          "velocity": 0.5590551181102362
        },
        {
          "duration": 0.6483960000000195,
          "durationTicks": 415,
          "midi": 57,
          "name": "A3",
          "ticks": 109440,
          "time": 170.98905599999998,
          "velocity": 0.5748031496062992
        },
        {
          "duration": 0.6405840000000182,
          "durationTicks": 410,
          "midi": 65,
          "name": "F4",
          "ticks": 109440,
          "time": 170.98905599999998,
          "velocity": 0.5196850393700787
        },
        {
          "duration": 1.3202280000000144,
          "durationTicks": 845,
          "midi": 65,
          "name": "F4",
          "ticks": 109440,
          "time": 170.98905599999998,
          "velocity": 0.5118110236220472
        },
        {
          "duration": 0.632772000000017,
          "durationTicks": 405,
          "midi": 69,
          "name": "A4",
          "ticks": 109440,
          "time": 170.98905599999998,
          "velocity": 0.5039370078740157
        },
        {
          "duration": 0.6562079999999924,
          "durationTicks": 420,
          "midi": 50,
          "name": "D3",
          "ticks": 109920,
          "time": 171.73900799999998,
          "velocity": 0.6456692913385826
        },
        {
          "duration": 0.6093360000000132,
          "durationTicks": 390,
          "midi": 53,
          "name": "F3",
          "ticks": 109920,
          "time": 171.73900799999998,
          "velocity": 0.5748031496062992
        },
        {
          "duration": 0.5780880000000082,
          "durationTicks": 370,
          "midi": 57,
          "name": "A3",
          "ticks": 109920,
          "time": 171.73900799999998,
          "velocity": 0.4645669291338583
        },
        {
          "duration": 0.5859000000000094,
          "durationTicks": 375,
          "midi": 65,
          "name": "F4",
          "ticks": 109920,
          "time": 171.73900799999998,
          "velocity": 0.5039370078740157
        },
        {
          "duration": 0.5780880000000082,
          "durationTicks": 370,
          "midi": 69,
          "name": "A4",
          "ticks": 109920,
          "time": 171.73900799999998,
          "velocity": 0.4566929133858268
        },
        {
          "duration": 0.5859000000000094,
          "durationTicks": 375,
          "midi": 48,
          "name": "C3",
          "ticks": 110400,
          "time": 172.48896,
          "velocity": 0.6377952755905512
        },
        {
          "duration": 0.5937119999999823,
          "durationTicks": 380,
          "midi": 51,
          "name": "D#3",
          "ticks": 110400,
          "time": 172.48896,
          "velocity": 0.44881889763779526
        },
        {
          "duration": 0.6015240000000119,
          "durationTicks": 385,
          "midi": 55,
          "name": "G3",
          "ticks": 110400,
          "time": 172.48896,
          "velocity": 0.4330708661417323
        },
        {
          "duration": 0.5702759999999785,
          "durationTicks": 365,
          "midi": 63,
          "name": "D#4",
          "ticks": 110400,
          "time": 172.48896,
          "velocity": 0.33070866141732286
        },
        {
          "duration": 1.320227999999986,
          "durationTicks": 845,
          "midi": 63,
          "name": "D#4",
          "ticks": 110400,
          "time": 172.48896,
          "velocity": 0.5118110236220472
        },
        {
          "duration": 0.5702759999999785,
          "durationTicks": 365,
          "midi": 67,
          "name": "G4",
          "ticks": 110400,
          "time": 172.48896,
          "velocity": 0.3779527559055118
        },
        {
          "duration": 0.5234039999999709,
          "durationTicks": 335,
          "midi": 48,
          "name": "C3",
          "ticks": 110880,
          "time": 173.238912,
          "velocity": 0.6299212598425197
        },
        {
          "duration": 0.515591999999998,
          "durationTicks": 330,
          "midi": 51,
          "name": "D#3",
          "ticks": 110880,
          "time": 173.238912,
          "velocity": 0.49606299212598426
        },
        {
          "duration": 0.5077799999999968,
          "durationTicks": 325,
          "midi": 55,
          "name": "G3",
          "ticks": 110880,
          "time": 173.238912,
          "velocity": 0.49606299212598426
        },
        {
          "duration": 0.5780880000000082,
          "durationTicks": 370,
          "midi": 63,
          "name": "D#4",
          "ticks": 110880,
          "time": 173.238912,
          "velocity": 0.4094488188976378
        },
        {
          "duration": 0.5937119999999823,
          "durationTicks": 380,
          "midi": 67,
          "name": "G4",
          "ticks": 110880,
          "time": 173.238912,
          "velocity": 0.4566929133858268
        },
        {
          "duration": 0.6796440000000246,
          "durationTicks": 435,
          "midi": 46,
          "name": "A#2",
          "ticks": 111360,
          "time": 173.98886399999998,
          "velocity": 0.6456692913385826
        },
        {
          "duration": 0.6796440000000246,
          "durationTicks": 435,
          "midi": 50,
          "name": "D3",
          "ticks": 111360,
          "time": 173.98886399999998,
          "velocity": 0.44881889763779526
        },
        {
          "duration": 0.6718320000000233,
          "durationTicks": 430,
          "midi": 53,
          "name": "F3",
          "ticks": 111360,
          "time": 173.98886399999998,
          "velocity": 0.5748031496062992
        },
        {
          "duration": 0.6483960000000195,
          "durationTicks": 415,
          "midi": 62,
          "name": "D4",
          "ticks": 111360,
          "time": 173.98886399999998,
          "velocity": 0.3937007874015748
        },
        {
          "duration": 1.3280400000000157,
          "durationTicks": 850,
          "midi": 62,
          "name": "D4",
          "ticks": 111360,
          "time": 173.98886399999998,
          "velocity": 0.5118110236220472
        },
        {
          "duration": 0.6483960000000195,
          "durationTicks": 415,
          "midi": 65,
          "name": "F4",
          "ticks": 111360,
          "time": 173.98886399999998,
          "velocity": 0.4881889763779528
        },
        {
          "duration": 0.6249600000000157,
          "durationTicks": 400,
          "midi": 46,
          "name": "A#2",
          "ticks": 111840,
          "time": 174.73881599999999,
          "velocity": 0.6456692913385826
        },
        {
          "duration": 0.6015240000000119,
          "durationTicks": 385,
          "midi": 50,
          "name": "D3",
          "ticks": 111840,
          "time": 174.73881599999999,
          "velocity": 0.49606299212598426
        },
        {
          "duration": 0.6249600000000157,
          "durationTicks": 400,
          "midi": 53,
          "name": "F3",
          "ticks": 111840,
          "time": 174.73881599999999,
          "velocity": 0.5748031496062992
        },
        {
          "duration": 0.5780880000000082,
          "durationTicks": 370,
          "midi": 62,
          "name": "D4",
          "ticks": 111840,
          "time": 174.73881599999999,
          "velocity": 0.3937007874015748
        },
        {
          "duration": 0.5859000000000094,
          "durationTicks": 375,
          "midi": 65,
          "name": "F4",
          "ticks": 111840,
          "time": 174.73881599999999,
          "velocity": 0.47244094488188976
        },
        {
          "duration": 0.6718319999999949,
          "durationTicks": 430,
          "midi": 48,
          "name": "C3",
          "ticks": 112320,
          "time": 175.488768,
          "velocity": 0.6456692913385826
        },
        {
          "duration": 0.6483959999999911,
          "durationTicks": 415,
          "midi": 51,
          "name": "D#3",
          "ticks": 112320,
          "time": 175.488768,
          "velocity": 0.5748031496062992
        },
        {
          "duration": 0.6327719999999886,
          "durationTicks": 405,
          "midi": 55,
          "name": "G3",
          "ticks": 112320,
          "time": 175.488768,
          "velocity": 0.5905511811023622
        },
        {
          "duration": 0.6327719999999886,
          "durationTicks": 405,
          "midi": 63,
          "name": "D#4",
          "ticks": 112320,
          "time": 175.488768,
          "velocity": 0.4881889763779528
        },
        {
          "duration": 1.3124159999999847,
          "durationTicks": 840,
          "midi": 63,
          "name": "D#4",
          "ticks": 112320,
          "time": 175.488768,
          "velocity": 0.5118110236220472
        },
        {
          "duration": 0.6249600000000157,
          "durationTicks": 400,
          "midi": 67,
          "name": "G4",
          "ticks": 112320,
          "time": 175.488768,
          "velocity": 0.5354330708661418
        },
        {
          "duration": 0.6015239999999835,
          "durationTicks": 385,
          "midi": 48,
          "name": "C3",
          "ticks": 112800,
          "time": 176.23872,
          "velocity": 0.6456692913385826
        },
        {
          "duration": 0.6093359999999848,
          "durationTicks": 390,
          "midi": 51,
          "name": "D#3",
          "ticks": 112800,
          "time": 176.23872,
          "velocity": 0.5275590551181102
        },
        {
          "duration": 0.5937119999999823,
          "durationTicks": 380,
          "midi": 55,
          "name": "G3",
          "ticks": 112800,
          "time": 176.23872,
          "velocity": 0.5433070866141733
        },
        {
          "duration": 0.5780880000000082,
          "durationTicks": 370,
          "midi": 63,
          "name": "D#4",
          "ticks": 112800,
          "time": 176.23872,
          "velocity": 0.3779527559055118
        },
        {
          "duration": 0.5702759999999785,
          "durationTicks": 365,
          "midi": 67,
          "name": "G4",
          "ticks": 112800,
          "time": 176.23872,
          "velocity": 0.4409448818897638
        },
        {
          "duration": 0.6718320000000233,
          "durationTicks": 430,
          "midi": 50,
          "name": "D3",
          "ticks": 113280,
          "time": 176.98867199999998,
          "velocity": 0.6456692913385826
        },
        {
          "duration": 0.6483960000000195,
          "durationTicks": 415,
          "midi": 53,
          "name": "F3",
          "ticks": 113280,
          "time": 176.98867199999998,
          "velocity": 0.5590551181102362
        },
        {
          "duration": 0.6562080000000208,
          "durationTicks": 420,
          "midi": 57,
          "name": "A3",
          "ticks": 113280,
          "time": 176.98867199999998,
          "velocity": 0.5748031496062992
        },
        {
          "duration": 0.6405839999999898,
          "durationTicks": 410,
          "midi": 65,
          "name": "F4",
          "ticks": 113280,
          "time": 176.98867199999998,
          "velocity": 0.5196850393700787
        },
        {
          "duration": 1.335852000000017,
          "durationTicks": 855,
          "midi": 65,
          "name": "F4",
          "ticks": 113280,
          "time": 176.98867199999998,
          "velocity": 0.5118110236220472
        },
        {
          "duration": 0.632772000000017,
          "durationTicks": 405,
          "midi": 69,
          "name": "A4",
          "ticks": 113280,
          "time": 176.98867199999998,
          "velocity": 0.5039370078740157
        },
        {
          "duration": 0.6562079999999924,
          "durationTicks": 420,
          "midi": 50,
          "name": "D3",
          "ticks": 113760,
          "time": 177.738624,
          "velocity": 0.6456692913385826
        },
        {
          "duration": 0.6015240000000119,
          "durationTicks": 385,
          "midi": 53,
          "name": "F3",
          "ticks": 113760,
          "time": 177.738624,
          "velocity": 0.5748031496062992
        },
        {
          "duration": 0.5780880000000082,
          "durationTicks": 370,
          "midi": 57,
          "name": "A3",
          "ticks": 113760,
          "time": 177.738624,
          "velocity": 0.4645669291338583
        },
        {
          "duration": 0.7421400000000062,
          "durationTicks": 475,
          "midi": 65,
          "name": "F4",
          "ticks": 113760,
          "time": 177.738624,
          "velocity": 0.5039370078740157
        },
        {
          "duration": 0.5702760000000069,
          "durationTicks": 365,
          "midi": 69,
          "name": "A4",
          "ticks": 113760,
          "time": 177.738624,
          "velocity": 0.4566929133858268
        },
        {
          "duration": 0.585899999999981,
          "durationTicks": 375,
          "midi": 48,
          "name": "C3",
          "ticks": 114240,
          "time": 178.488576,
          "velocity": 0.6377952755905512
        },
        {
          "duration": 0.585899999999981,
          "durationTicks": 375,
          "midi": 51,
          "name": "D#3",
          "ticks": 114240,
          "time": 178.488576,
          "velocity": 0.44881889763779526
        },
        {
          "duration": 0.5937119999999823,
          "durationTicks": 380,
          "midi": 55,
          "name": "G3",
          "ticks": 114240,
          "time": 178.488576,
          "velocity": 0.4330708661417323
        },
        {
          "duration": 0.5624640000000056,
          "durationTicks": 360,
          "midi": 63,
          "name": "D#4",
          "ticks": 114240,
          "time": 178.488576,
          "velocity": 0.33070866141732286
        },
        {
          "duration": 0.5702759999999785,
          "durationTicks": 365,
          "midi": 67,
          "name": "G4",
          "ticks": 114240,
          "time": 178.488576,
          "velocity": 0.3779527559055118
        },
        {
          "duration": 0.21092400000000566,
          "durationTicks": 135,
          "midi": 82,
          "name": "A#5",
          "ticks": 114240,
          "time": 178.488576,
          "velocity": 0.5196850393700787
        },
        {
          "duration": 0.15623999999999683,
          "durationTicks": 100,
          "midi": 79,
          "name": "G5",
          "ticks": 114360,
          "time": 178.676064,
          "velocity": 0.49606299212598426
        },
        {
          "duration": 1.05462,
          "durationTicks": 675,
          "midi": 75,
          "name": "D#5",
          "ticks": 114480,
          "time": 178.863552,
          "velocity": 0.4015748031496063
        },
        {
          "duration": 0.5234039999999709,
          "durationTicks": 335,
          "midi": 48,
          "name": "C3",
          "ticks": 114720,
          "time": 179.238528,
          "velocity": 0.6299212598425197
        },
        {
          "duration": 0.515591999999998,
          "durationTicks": 330,
          "midi": 51,
          "name": "D#3",
          "ticks": 114720,
          "time": 179.238528,
          "velocity": 0.49606299212598426
        },
        {
          "duration": 0.4999679999999671,
          "durationTicks": 320,
          "midi": 55,
          "name": "G3",
          "ticks": 114720,
          "time": 179.238528,
          "velocity": 0.49606299212598426
        },
        {
          "duration": 0.5780879999999797,
          "durationTicks": 370,
          "midi": 63,
          "name": "D#4",
          "ticks": 114720,
          "time": 179.238528,
          "velocity": 0.4094488188976378
        },
        {
          "duration": 0.5937119999999823,
          "durationTicks": 380,
          "midi": 67,
          "name": "G4",
          "ticks": 114720,
          "time": 179.238528,
          "velocity": 0.4566929133858268
        },
        {
          "duration": 0.6796439999999961,
          "durationTicks": 435,
          "midi": 46,
          "name": "A#2",
          "ticks": 115200,
          "time": 179.98847999999998,
          "velocity": 0.6456692913385826
        },
        {
          "duration": 0.6796439999999961,
          "durationTicks": 435,
          "midi": 50,
          "name": "D3",
          "ticks": 115200,
          "time": 179.98847999999998,
          "velocity": 0.44881889763779526
        },
        {
          "duration": 0.6718320000000233,
          "durationTicks": 430,
          "midi": 53,
          "name": "F3",
          "ticks": 115200,
          "time": 179.98847999999998,
          "velocity": 0.5748031496062992
        },
        {
          "duration": 0.6405839999999898,
          "durationTicks": 410,
          "midi": 62,
          "name": "D4",
          "ticks": 115200,
          "time": 179.98847999999998,
          "velocity": 0.3937007874015748
        },
        {
          "duration": 1.3280400000000157,
          "durationTicks": 850,
          "midi": 62,
          "name": "D4",
          "ticks": 115200,
          "time": 179.98847999999998,
          "velocity": 0.48031496062992124
        },
        {
          "duration": 0.6483960000000195,
          "durationTicks": 415,
          "midi": 65,
          "name": "F4",
          "ticks": 115200,
          "time": 179.98847999999998,
          "velocity": 0.4881889763779528
        },
        {
          "duration": 0.617147999999986,
          "durationTicks": 395,
          "midi": 46,
          "name": "A#2",
          "ticks": 115680,
          "time": 180.738432,
          "velocity": 0.6456692913385826
        },
        {
          "duration": 0.6015240000000119,
          "durationTicks": 385,
          "midi": 50,
          "name": "D3",
          "ticks": 115680,
          "time": 180.738432,
          "velocity": 0.49606299212598426
        },
        {
          "duration": 0.6249600000000157,
          "durationTicks": 400,
          "midi": 53,
          "name": "F3",
          "ticks": 115680,
          "time": 180.738432,
          "velocity": 0.5748031496062992
        },
        {
          "duration": 0.5780880000000082,
          "durationTicks": 370,
          "midi": 62,
          "name": "D4",
          "ticks": 115680,
          "time": 180.738432,
          "velocity": 0.3937007874015748
        },
        {
          "duration": 0.5859000000000094,
          "durationTicks": 375,
          "midi": 65,
          "name": "F4",
          "ticks": 115680,
          "time": 180.738432,
          "velocity": 0.47244094488188976
        },
        {
          "duration": 0.6718319999999949,
          "durationTicks": 430,
          "midi": 48,
          "name": "C3",
          "ticks": 116160,
          "time": 181.488384,
          "velocity": 0.6456692913385826
        },
        {
          "duration": 0.6405839999999898,
          "durationTicks": 410,
          "midi": 51,
          "name": "D#3",
          "ticks": 116160,
          "time": 181.488384,
          "velocity": 0.5748031496062992
        },
        {
          "duration": 0.6327719999999886,
          "durationTicks": 405,
          "midi": 55,
          "name": "G3",
          "ticks": 116160,
          "time": 181.488384,
          "velocity": 0.5905511811023622
        },
        {
          "duration": 0.6327719999999886,
          "durationTicks": 405,
          "midi": 63,
          "name": "D#4",
          "ticks": 116160,
          "time": 181.488384,
          "velocity": 0.4881889763779528
        },
        {
          "duration": 1.3124159999999847,
          "durationTicks": 840,
          "midi": 63,
          "name": "D#4",
          "ticks": 116160,
          "time": 181.488384,
          "velocity": 0.48031496062992124
        },
        {
          "duration": 0.6249599999999873,
          "durationTicks": 400,
          "midi": 67,
          "name": "G4",
          "ticks": 116160,
          "time": 181.488384,
          "velocity": 0.5354330708661418
        },
        {
          "duration": 0.6015240000000119,
          "durationTicks": 385,
          "midi": 48,
          "name": "C3",
          "ticks": 116640,
          "time": 182.23833599999998,
          "velocity": 0.6456692913385826
        },
        {
          "duration": 0.6093360000000132,
          "durationTicks": 390,
          "midi": 51,
          "name": "D#3",
          "ticks": 116640,
          "time": 182.23833599999998,
          "velocity": 0.5275590551181102
        },
        {
          "duration": 0.5937120000000107,
          "durationTicks": 380,
          "midi": 55,
          "name": "G3",
          "ticks": 116640,
          "time": 182.23833599999998,
          "velocity": 0.5433070866141733
        },
        {
          "duration": 0.5937120000000107,
          "durationTicks": 380,
          "midi": 63,
          "name": "D#4",
          "ticks": 116640,
          "time": 182.23833599999998,
          "velocity": 0.3779527559055118
        },
        {
          "duration": 0.5702760000000069,
          "durationTicks": 365,
          "midi": 67,
          "name": "G4",
          "ticks": 116640,
          "time": 182.23833599999998,
          "velocity": 0.4409448818897638
        },
        {
          "duration": 0.6640199999999936,
          "durationTicks": 425,
          "midi": 50,
          "name": "D3",
          "ticks": 117120,
          "time": 182.98828799999998,
          "velocity": 0.6456692913385826
        },
        {
          "duration": 0.6562079999999924,
          "durationTicks": 420,
          "midi": 53,
          "name": "F3",
          "ticks": 117120,
          "time": 182.98828799999998,
          "velocity": 0.5590551181102362
        },
        {
          "duration": 0.6483960000000195,
          "durationTicks": 415,
          "midi": 57,
          "name": "A3",
          "ticks": 117120,
          "time": 182.98828799999998,
          "velocity": 0.5748031496062992
        },
        {
          "duration": 0.6483960000000195,
          "durationTicks": 415,
          "midi": 65,
          "name": "F4",
          "ticks": 117120,
          "time": 182.98828799999998,
          "velocity": 0.5196850393700787
        },
        {
          "duration": 1.320227999999986,
          "durationTicks": 845,
          "midi": 65,
          "name": "F4",
          "ticks": 117120,
          "time": 182.98828799999998,
          "velocity": 0.48031496062992124
        },
        {
          "duration": 0.632772000000017,
          "durationTicks": 405,
          "midi": 69,
          "name": "A4",
          "ticks": 117120,
          "time": 182.98828799999998,
          "velocity": 0.5039370078740157
        },
        {
          "duration": 0.6562079999999924,
          "durationTicks": 420,
          "midi": 50,
          "name": "D3",
          "ticks": 117600,
          "time": 183.73824,
          "velocity": 0.6456692913385826
        },
        {
          "duration": 0.6015240000000119,
          "durationTicks": 385,
          "midi": 53,
          "name": "F3",
          "ticks": 117600,
          "time": 183.73824,
          "velocity": 0.5748031496062992
        },
        {
          "duration": 0.5780880000000082,
          "durationTicks": 370,
          "midi": 57,
          "name": "A3",
          "ticks": 117600,
          "time": 183.73824,
          "velocity": 0.4645669291338583
        },
        {
          "duration": 0.5859000000000094,
          "durationTicks": 375,
          "midi": 65,
          "name": "F4",
          "ticks": 117600,
          "time": 183.73824,
          "velocity": 0.5039370078740157
        },
        {
          "duration": 0.5780880000000082,
          "durationTicks": 370,
          "midi": 69,
          "name": "A4",
          "ticks": 117600,
          "time": 183.73824,
          "velocity": 0.4566929133858268
        },
        {
          "duration": 0.585899999999981,
          "durationTicks": 375,
          "midi": 48,
          "name": "C3",
          "ticks": 118080,
          "time": 184.488192,
          "velocity": 0.6377952755905512
        },
        {
          "duration": 0.5937119999999823,
          "durationTicks": 380,
          "midi": 51,
          "name": "D#3",
          "ticks": 118080,
          "time": 184.488192,
          "velocity": 0.44881889763779526
        },
        {
          "duration": 0.5937119999999823,
          "durationTicks": 380,
          "midi": 55,
          "name": "G3",
          "ticks": 118080,
          "time": 184.488192,
          "velocity": 0.4330708661417323
        },
        {
          "duration": 0.5702759999999785,
          "durationTicks": 365,
          "midi": 63,
          "name": "D#4",
          "ticks": 118080,
          "time": 184.488192,
          "velocity": 0.33070866141732286
        },
        {
          "duration": 1.320227999999986,
          "durationTicks": 845,
          "midi": 63,
          "name": "D#4",
          "ticks": 118080,
          "time": 184.488192,
          "velocity": 0.48031496062992124
        },
        {
          "duration": 0.5702759999999785,
          "durationTicks": 365,
          "midi": 67,
          "name": "G4",
          "ticks": 118080,
          "time": 184.488192,
          "velocity": 0.3779527559055118
        },
        {
          "duration": 0.5234039999999993,
          "durationTicks": 335,
          "midi": 48,
          "name": "C3",
          "ticks": 118560,
          "time": 185.23814399999998,
          "velocity": 0.6299212598425197
        },
        {
          "duration": 0.515591999999998,
          "durationTicks": 330,
          "midi": 51,
          "name": "D#3",
          "ticks": 118560,
          "time": 185.23814399999998,
          "velocity": 0.49606299212598426
        },
        {
          "duration": 0.5077800000000252,
          "durationTicks": 325,
          "midi": 55,
          "name": "G3",
          "ticks": 118560,
          "time": 185.23814399999998,
          "velocity": 0.49606299212598426
        },
        {
          "duration": 0.5780880000000082,
          "durationTicks": 370,
          "midi": 63,
          "name": "D#4",
          "ticks": 118560,
          "time": 185.23814399999998,
          "velocity": 0.4094488188976378
        },
        {
          "duration": 0.5937120000000107,
          "durationTicks": 380,
          "midi": 67,
          "name": "G4",
          "ticks": 118560,
          "time": 185.23814399999998,
          "velocity": 0.4566929133858268
        },
        {
          "duration": 0.6718320000000233,
          "durationTicks": 430,
          "midi": 46,
          "name": "A#2",
          "ticks": 119040,
          "time": 185.98809599999998,
          "velocity": 0.6456692913385826
        },
        {
          "duration": 0.6796439999999961,
          "durationTicks": 435,
          "midi": 50,
          "name": "D3",
          "ticks": 119040,
          "time": 185.98809599999998,
          "velocity": 0.44881889763779526
        },
        {
          "duration": 0.6718320000000233,
          "durationTicks": 430,
          "midi": 53,
          "name": "F3",
          "ticks": 119040,
          "time": 185.98809599999998,
          "velocity": 0.5748031496062992
        },
        {
          "duration": 0.6483960000000195,
          "durationTicks": 415,
          "midi": 62,
          "name": "D4",
          "ticks": 119040,
          "time": 185.98809599999998,
          "velocity": 0.3937007874015748
        },
        {
          "duration": 1.3280400000000157,
          "durationTicks": 850,
          "midi": 62,
          "name": "D4",
          "ticks": 119040,
          "time": 185.98809599999998,
          "velocity": 0.48031496062992124
        },
        {
          "duration": 0.6483960000000195,
          "durationTicks": 415,
          "midi": 65,
          "name": "F4",
          "ticks": 119040,
          "time": 185.98809599999998,
          "velocity": 0.4881889763779528
        },
        {
          "duration": 0.6249600000000157,
          "durationTicks": 400,
          "midi": 46,
          "name": "A#2",
          "ticks": 119520,
          "time": 186.738048,
          "velocity": 0.6456692913385826
        },
        {
          "duration": 0.6015240000000119,
          "durationTicks": 385,
          "midi": 50,
          "name": "D3",
          "ticks": 119520,
          "time": 186.738048,
          "velocity": 0.49606299212598426
        },
        {
          "duration": 0.6249600000000157,
          "durationTicks": 400,
          "midi": 53,
          "name": "F3",
          "ticks": 119520,
          "time": 186.738048,
          "velocity": 0.5748031496062992
        },
        {
          "duration": 0.5780880000000082,
          "durationTicks": 370,
          "midi": 62,
          "name": "D4",
          "ticks": 119520,
          "time": 186.738048,
          "velocity": 0.3937007874015748
        },
        {
          "duration": 0.5859000000000094,
          "durationTicks": 375,
          "midi": 65,
          "name": "F4",
          "ticks": 119520,
          "time": 186.738048,
          "velocity": 0.47244094488188976
        },
        {
          "duration": 0.6718319999999949,
          "durationTicks": 430,
          "midi": 48,
          "name": "C3",
          "ticks": 120000,
          "time": 187.488,
          "velocity": 0.6456692913385826
        },
        {
          "duration": 0.6405839999999898,
          "durationTicks": 410,
          "midi": 51,
          "name": "D#3",
          "ticks": 120000,
          "time": 187.488,
          "velocity": 0.5748031496062992
        },
        {
          "duration": 0.6327719999999886,
          "durationTicks": 405,
          "midi": 55,
          "name": "G3",
          "ticks": 120000,
          "time": 187.488,
          "velocity": 0.5905511811023622
        },
        {
          "duration": 0.6327719999999886,
          "durationTicks": 405,
          "midi": 63,
          "name": "D#4",
          "ticks": 120000,
          "time": 187.488,
          "velocity": 0.4881889763779528
        },
        {
          "duration": 1.3046039999999834,
          "durationTicks": 835,
          "midi": 63,
          "name": "D#4",
          "ticks": 120000,
          "time": 187.488,
          "velocity": 0.48031496062992124
        },
        {
          "duration": 0.6249599999999873,
          "durationTicks": 400,
          "midi": 67,
          "name": "G4",
          "ticks": 120000,
          "time": 187.488,
          "velocity": 0.5354330708661418
        },
        {
          "duration": 0.6015240000000119,
          "durationTicks": 385,
          "midi": 48,
          "name": "C3",
          "ticks": 120480,
          "time": 188.23795199999998,
          "velocity": 0.6456692913385826
        },
        {
          "duration": 0.6093360000000132,
          "durationTicks": 390,
          "midi": 51,
          "name": "D#3",
          "ticks": 120480,
          "time": 188.23795199999998,
          "velocity": 0.5275590551181102
        },
        {
          "duration": 0.5937120000000107,
          "durationTicks": 380,
          "midi": 55,
          "name": "G3",
          "ticks": 120480,
          "time": 188.23795199999998,
          "velocity": 0.5433070866141733
        },
        {
          "duration": 0.5780880000000082,
          "durationTicks": 370,
          "midi": 63,
          "name": "D#4",
          "ticks": 120480,
          "time": 188.23795199999998,
          "velocity": 0.3779527559055118
        },
        {
          "duration": 0.5702760000000069,
          "durationTicks": 365,
          "midi": 67,
          "name": "G4",
          "ticks": 120480,
          "time": 188.23795199999998,
          "velocity": 0.4409448818897638
        },
        {
          "duration": 0.6640199999999936,
          "durationTicks": 425,
          "midi": 50,
          "name": "D3",
          "ticks": 120960,
          "time": 188.987904,
          "velocity": 0.6456692913385826
        },
        {
          "duration": 0.6562079999999924,
          "durationTicks": 420,
          "midi": 53,
          "name": "F3",
          "ticks": 120960,
          "time": 188.987904,
          "velocity": 0.5590551181102362
        },
        {
          "duration": 0.6483960000000195,
          "durationTicks": 415,
          "midi": 57,
          "name": "A3",
          "ticks": 120960,
          "time": 188.987904,
          "velocity": 0.5748031496062992
        },
        {
          "duration": 0.6405839999999898,
          "durationTicks": 410,
          "midi": 65,
          "name": "F4",
          "ticks": 120960,
          "time": 188.987904,
          "velocity": 0.5196850393700787
        },
        {
          "duration": 1.3358519999999885,
          "durationTicks": 855,
          "midi": 65,
          "name": "F4",
          "ticks": 120960,
          "time": 188.987904,
          "velocity": 0.48031496062992124
        },
        {
          "duration": 0.6327719999999886,
          "durationTicks": 405,
          "midi": 69,
          "name": "A4",
          "ticks": 120960,
          "time": 188.987904,
          "velocity": 0.5039370078740157
        },
        {
          "duration": 0.6562079999999924,
          "durationTicks": 420,
          "midi": 50,
          "name": "D3",
          "ticks": 121440,
          "time": 189.737856,
          "velocity": 0.6456692913385826
        },
        {
          "duration": 0.6093359999999848,
          "durationTicks": 390,
          "midi": 53,
          "name": "F3",
          "ticks": 121440,
          "time": 189.737856,
          "velocity": 0.5748031496062992
        },
        {
          "duration": 0.585899999999981,
          "durationTicks": 375,
          "midi": 57,
          "name": "A3",
          "ticks": 121440,
          "time": 189.737856,
          "velocity": 0.4645669291338583
        },
        {
          "duration": 0.5937119999999823,
          "durationTicks": 380,
          "midi": 65,
          "name": "F4",
          "ticks": 121440,
          "time": 189.737856,
          "velocity": 0.5039370078740157
        },
        {
          "duration": 0.5780880000000082,
          "durationTicks": 370,
          "midi": 69,
          "name": "A4",
          "ticks": 121440,
          "time": 189.737856,
          "velocity": 0.4566929133858268
        },
        {
          "duration": 0.585899999999981,
          "durationTicks": 375,
          "midi": 48,
          "name": "C3",
          "ticks": 121920,
          "time": 190.487808,
          "velocity": 0.6377952755905512
        },
        {
          "duration": 0.5937119999999823,
          "durationTicks": 380,
          "midi": 51,
          "name": "D#3",
          "ticks": 121920,
          "time": 190.487808,
          "velocity": 0.44881889763779526
        },
        {
          "duration": 0.5937119999999823,
          "durationTicks": 380,
          "midi": 55,
          "name": "G3",
          "ticks": 121920,
          "time": 190.487808,
          "velocity": 0.4330708661417323
        },
        {
          "duration": 0.5702759999999785,
          "durationTicks": 365,
          "midi": 63,
          "name": "D#4",
          "ticks": 121920,
          "time": 190.487808,
          "velocity": 0.33070866141732286
        },
        {
          "duration": 1.288979999999981,
          "durationTicks": 825,
          "midi": 63,
          "name": "D#4",
          "ticks": 121920,
          "time": 190.487808,
          "velocity": 0.48031496062992124
        },
        {
          "duration": 0.5702759999999785,
          "durationTicks": 365,
          "midi": 67,
          "name": "G4",
          "ticks": 121920,
          "time": 190.487808,
          "velocity": 0.3779527559055118
        },
        {
          "duration": 0.5234039999999993,
          "durationTicks": 335,
          "midi": 48,
          "name": "C3",
          "ticks": 122400,
          "time": 191.23775999999998,
          "velocity": 0.6299212598425197
        },
        {
          "duration": 0.515591999999998,
          "durationTicks": 330,
          "midi": 51,
          "name": "D#3",
          "ticks": 122400,
          "time": 191.23775999999998,
          "velocity": 0.49606299212598426
        },
        {
          "duration": 0.5077800000000252,
          "durationTicks": 325,
          "midi": 55,
          "name": "G3",
          "ticks": 122400,
          "time": 191.23775999999998,
          "velocity": 0.49606299212598426
        },
        {
          "duration": 0.5780880000000082,
          "durationTicks": 370,
          "midi": 63,
          "name": "D#4",
          "ticks": 122400,
          "time": 191.23775999999998,
          "velocity": 0.4094488188976378
        },
        {
          "duration": 0.5937120000000107,
          "durationTicks": 380,
          "midi": 67,
          "name": "G4",
          "ticks": 122400,
          "time": 191.23775999999998,
          "velocity": 0.4566929133858268
        },
        {
          "duration": 1.3202280000000144,
          "durationTicks": 845,
          "midi": 60,
          "name": "C4",
          "ticks": 122880,
          "time": 191.987712,
          "velocity": 0.5826771653543307
        },
        {
          "duration": 0.8436959999999942,
          "durationTicks": 540,
          "midi": 62,
          "name": "D4",
          "ticks": 122880,
          "time": 191.987712,
          "velocity": 0.5196850393700787
        },
        {
          "duration": 1.3046039999999834,
          "durationTicks": 835,
          "midi": 63,
          "name": "D#4",
          "ticks": 122880,
          "time": 191.987712,
          "velocity": 0.7480314960629921
        },
        {
          "duration": 1.4686559999999815,
          "durationTicks": 940,
          "midi": 63,
          "name": "D#4",
          "ticks": 122880,
          "time": 191.987712,
          "velocity": 0.5826771653543307
        },
        {
          "duration": 1.3592879999999923,
          "durationTicks": 870,
          "midi": 67,
          "name": "G4",
          "ticks": 122880,
          "time": 191.987712,
          "velocity": 0.7244094488188977
        },
        {
          "duration": 0.4609079999999892,
          "durationTicks": 295,
          "midi": 62,
          "name": "D4",
          "ticks": 123480,
          "time": 192.925152,
          "velocity": 0.5669291338582677
        },
        {
          "duration": 0.5390280000000018,
          "durationTicks": 345,
          "midi": 70,
          "name": "A#4",
          "ticks": 123480,
          "time": 192.925152,
          "velocity": 0.7244094488188977
        },
        {
          "duration": 0.4530960000000164,
          "durationTicks": 290,
          "midi": 60,
          "name": "C4",
          "ticks": 123840,
          "time": 193.48761599999997,
          "velocity": 0.5669291338582677
        },
        {
          "duration": 1.515527999999989,
          "durationTicks": 970,
          "midi": 62,
          "name": "D4",
          "ticks": 123840,
          "time": 193.48761599999997,
          "velocity": 0.47244094488188976
        },
        {
          "duration": 0.4609079999999892,
          "durationTicks": 295,
          "midi": 65,
          "name": "F4",
          "ticks": 123840,
          "time": 193.48761599999997,
          "velocity": 0.84251968503937
        },
        {
          "duration": 1.3983479999999986,
          "durationTicks": 895,
          "midi": 65,
          "name": "F4",
          "ticks": 123840,
          "time": 193.48761599999997,
          "velocity": 0.48031496062992124
        },
        {
          "duration": 0.5390280000000018,
          "durationTicks": 345,
          "midi": 69,
          "name": "A4",
          "ticks": 123840,
          "time": 193.48761599999997,
          "velocity": 0.6771653543307087
        },
        {
          "duration": 0.9452520000000106,
          "durationTicks": 605,
          "midi": 60,
          "name": "C4",
          "ticks": 124200,
          "time": 194.05007999999998,
          "velocity": 0.49606299212598426
        },
        {
          "duration": 0.9608760000000132,
          "durationTicks": 615,
          "midi": 65,
          "name": "F4",
          "ticks": 124200,
          "time": 194.05007999999998,
          "velocity": 0.6456692913385826
        },
        {
          "duration": 0.984312000000017,
          "durationTicks": 630,
          "midi": 69,
          "name": "A4",
          "ticks": 124200,
          "time": 194.05007999999998,
          "velocity": 0.5196850393700787
        },
        {
          "duration": 0.9608760000000132,
          "durationTicks": 615,
          "midi": 72,
          "name": "C5",
          "ticks": 124200,
          "time": 194.05007999999998,
          "velocity": 0.6141732283464567
        },
        {
          "duration": 1.2655440000000056,
          "durationTicks": 810,
          "midi": 51,
          "name": "D#3",
          "ticks": 124800,
          "time": 194.98752,
          "velocity": 0.33070866141732286
        },
        {
          "duration": 1.3436640000000182,
          "durationTicks": 860,
          "midi": 63,
          "name": "D#4",
          "ticks": 124800,
          "time": 194.98752,
          "velocity": 0.9291338582677166
        },
        {
          "duration": 1.4608440000000087,
          "durationTicks": 935,
          "midi": 63,
          "name": "D#4",
          "ticks": 124800,
          "time": 194.98752,
          "velocity": 0.4251968503937008
        },
        {
          "duration": 1.2811679999999797,
          "durationTicks": 820,
          "midi": 67,
          "name": "G4",
          "ticks": 124800,
          "time": 194.98752,
          "velocity": 0.4881889763779528
        },
        {
          "duration": 1.3436640000000182,
          "durationTicks": 860,
          "midi": 70,
          "name": "A#4",
          "ticks": 124800,
          "time": 194.98752,
          "velocity": 0.5354330708661418
        },
        {
          "duration": 0.2421720000000107,
          "durationTicks": 155,
          "midi": 58,
          "name": "A#3",
          "ticks": 125400,
          "time": 195.92496,
          "velocity": 0.7007874015748031
        },
        {
          "duration": 0.21873600000000692,
          "durationTicks": 140,
          "midi": 60,
          "name": "C4",
          "ticks": 125520,
          "time": 196.112448,
          "velocity": 0.6141732283464567
        },
        {
          "duration": 1.46865600000001,
          "durationTicks": 940,
          "midi": 50,
          "name": "D3",
          "ticks": 125640,
          "time": 196.29993599999997,
          "velocity": 0.33070866141732286
        },
        {
          "duration": 1.499904000000015,
          "durationTicks": 960,
          "midi": 62,
          "name": "D4",
          "ticks": 125640,
          "time": 196.29993599999997,
          "velocity": 0.6771653543307087
        },
        {
          "duration": 1.5077160000000163,
          "durationTicks": 965,
          "midi": 62,
          "name": "D4",
          "ticks": 125760,
          "time": 196.48742399999998,
          "velocity": 0.36220472440944884
        },
        {
          "duration": 1.2421080000000018,
          "durationTicks": 795,
          "midi": 65,
          "name": "F4",
          "ticks": 125760,
          "time": 196.48742399999998,
          "velocity": 0.4409448818897638
        },
        {
          "duration": 1.335852000000017,
          "durationTicks": 855,
          "midi": 69,
          "name": "A4",
          "ticks": 125760,
          "time": 196.48742399999998,
          "velocity": 0.5354330708661418
        },
        {
          "duration": 1.187423999999993,
          "durationTicks": 760,
          "midi": 65,
          "name": "F4",
          "ticks": 125880,
          "time": 196.67491199999998,
          "velocity": 0.6299212598425197
        },
        {
          "duration": 2.984183999999999,
          "durationTicks": 1910,
          "midi": 48,
          "name": "C3",
          "ticks": 126600,
          "time": 197.79984,
          "velocity": 0.4409448818897638
        },
        {
          "duration": 2.93731200000002,
          "durationTicks": 1880,
          "midi": 60,
          "name": "C4",
          "ticks": 126720,
          "time": 197.987328,
          "velocity": 0.4251968503937008
        },
        {
          "duration": 0.6405840000000182,
          "durationTicks": 410,
          "midi": 62,
          "name": "D4",
          "ticks": 126720,
          "time": 197.987328,
          "velocity": 0.6771653543307087
        },
        {
          "duration": 2.8513799999999776,
          "durationTicks": 1825,
          "midi": 63,
          "name": "D#4",
          "ticks": 126720,
          "time": 197.987328,
          "velocity": 0.36220472440944884
        },
        {
          "duration": 2.773260000000022,
          "durationTicks": 1775,
          "midi": 67,
          "name": "G4",
          "ticks": 126720,
          "time": 197.987328,
          "velocity": 0.5433070866141733
        },
        {
          "duration": 2.3904719999999884,
          "durationTicks": 1530,
          "midi": 60,
          "name": "C4",
          "ticks": 127080,
          "time": 198.549792,
          "velocity": 0.7480314960629921
        },
        {
          "duration": 0.5546520000000044,
          "durationTicks": 355,
          "midi": 74,
          "name": "D5",
          "ticks": 127680,
          "time": 199.48723199999998,
          "velocity": 0.5905511811023622
        },
        {
          "duration": 0.8515080000000239,
          "durationTicks": 545,
          "midi": 72,
          "name": "C5",
          "ticks": 128040,
          "time": 200.04969599999998,
          "velocity": 0.5354330708661418
        },
        {
          "duration": 1.3436640000000182,
          "durationTicks": 860,
          "midi": 53,
          "name": "F3",
          "ticks": 128640,
          "time": 200.987136,
          "velocity": 0.6850393700787402
        },
        {
          "duration": 1.3436640000000182,
          "durationTicks": 860,
          "midi": 58,
          "name": "A#3",
          "ticks": 128640,
          "time": 200.987136,
          "velocity": 0.7716535433070866
        },
        {
          "duration": 1.3749119999999664,
          "durationTicks": 880,
          "midi": 60,
          "name": "C4",
          "ticks": 128640,
          "time": 200.987136,
          "velocity": 0.7322834645669292
        },
        {
          "duration": 1.3436640000000182,
          "durationTicks": 860,
          "midi": 63,
          "name": "D#4",
          "ticks": 128640,
          "time": 200.987136,
          "velocity": 0.6850393700787402
        },
        {
          "duration": 1.3983479999999986,
          "durationTicks": 895,
          "midi": 53,
          "name": "F3",
          "ticks": 129600,
          "time": 202.48703999999998,
          "velocity": 0.6377952755905512
        },
        {
          "duration": 1.367100000000022,
          "durationTicks": 875,
          "midi": 58,
          "name": "A#3",
          "ticks": 129600,
          "time": 202.48703999999998,
          "velocity": 0.7716535433070866
        },
        {
          "duration": 1.3905360000000258,
          "durationTicks": 890,
          "midi": 60,
          "name": "C4",
          "ticks": 129600,
          "time": 202.48703999999998,
          "velocity": 0.7322834645669292
        },
        {
          "duration": 1.367100000000022,
          "durationTicks": 875,
          "midi": 63,
          "name": "D#4",
          "ticks": 129600,
          "time": 202.48703999999998,
          "velocity": 0.6377952755905512
        },
        {
          "duration": 2.859191999999979,
          "durationTicks": 1830,
          "midi": 46,
          "name": "A#2",
          "ticks": 130560,
          "time": 203.986944,
          "velocity": 0.7086614173228346
        },
        {
          "duration": 0.5390280000000018,
          "durationTicks": 345,
          "midi": 58,
          "name": "A#3",
          "ticks": 130560,
          "time": 203.986944,
          "velocity": 0.6771653543307087
        },
        {
          "duration": 0.5390280000000018,
          "durationTicks": 345,
          "midi": 62,
          "name": "D4",
          "ticks": 130560,
          "time": 203.986944,
          "velocity": 0.6771653543307087
        },
        {
          "duration": 0.5468400000000031,
          "durationTicks": 350,
          "midi": 65,
          "name": "F4",
          "ticks": 130560,
          "time": 203.986944,
          "velocity": 0.6771653543307087
        },
        {
          "duration": 0.5624640000000056,
          "durationTicks": 360,
          "midi": 58,
          "name": "A#3",
          "ticks": 131040,
          "time": 204.73689599999997,
          "velocity": 0.6771653543307087
        },
        {
          "duration": 0.5546520000000044,
          "durationTicks": 355,
          "midi": 62,
          "name": "D4",
          "ticks": 131040,
          "time": 204.73689599999997,
          "velocity": 0.6771653543307087
        },
        {
          "duration": 0.5624640000000056,
          "durationTicks": 360,
          "midi": 65,
          "name": "F4",
          "ticks": 131040,
          "time": 204.73689599999997,
          "velocity": 0.6771653543307087
        },
        {
          "duration": 0.6562079999999924,
          "durationTicks": 420,
          "midi": 58,
          "name": "A#3",
          "ticks": 131520,
          "time": 205.48684799999998,
          "velocity": 0.6771653543307087
        },
        {
          "duration": 0.5546520000000044,
          "durationTicks": 355,
          "midi": 62,
          "name": "D4",
          "ticks": 131520,
          "time": 205.48684799999998,
          "velocity": 0.6771653543307087
        },
        {
          "duration": 0.5546520000000044,
          "durationTicks": 355,
          "midi": 65,
          "name": "F4",
          "ticks": 131520,
          "time": 205.48684799999998,
          "velocity": 0.6771653543307087
        },
        {
          "duration": 0.5546519999999759,
          "durationTicks": 355,
          "midi": 58,
          "name": "A#3",
          "ticks": 132000,
          "time": 206.2368,
          "velocity": 0.8346456692913385
        },
        {
          "duration": 0.5546519999999759,
          "durationTicks": 355,
          "midi": 60,
          "name": "C4",
          "ticks": 132000,
          "time": 206.2368,
          "velocity": 0.8346456692913385
        },
        {
          "duration": 0.5624640000000056,
          "durationTicks": 360,
          "midi": 65,
          "name": "F4",
          "ticks": 132000,
          "time": 206.2368,
          "velocity": 0.8346456692913385
        },
        {
          "duration": 0.07030799999998294,
          "durationTicks": 45,
          "midi": 46,
          "name": "A#2",
          "ticks": 132480,
          "time": 206.986752,
          "velocity": 0.7716535433070866
        },
        {
          "duration": 0.17186399999999935,
          "durationTicks": 110,
          "midi": 58,
          "name": "A#3",
          "ticks": 132480,
          "time": 206.986752,
          "velocity": 0.8740157480314961
        },
        {
          "duration": 0.17186399999999935,
          "durationTicks": 110,
          "midi": 60,
          "name": "C4",
          "ticks": 132480,
          "time": 206.986752,
          "velocity": 0.8267716535433071
        },
        {
          "duration": 0.17186399999999935,
          "durationTicks": 110,
          "midi": 65,
          "name": "F4",
          "ticks": 132480,
          "time": 206.986752,
          "velocity": 0.7795275590551181
        },
        {
          "duration": 0.11717999999999051,
          "durationTicks": 75,
          "midi": 48,
          "name": "C3",
          "ticks": 132600,
          "time": 207.17424,
          "velocity": 0.6141732283464567
        },
        {
          "duration": 0.17186399999999935,
          "durationTicks": 110,
          "midi": 60,
          "name": "C4",
          "ticks": 132600,
          "time": 207.17424,
          "velocity": 0.7795275590551181
        },
        {
          "duration": 0.17186399999999935,
          "durationTicks": 110,
          "midi": 63,
          "name": "D#4",
          "ticks": 132600,
          "time": 207.17424,
          "velocity": 0.7322834645669292
        },
        {
          "duration": 0.17186399999999935,
          "durationTicks": 110,
          "midi": 67,
          "name": "G4",
          "ticks": 132600,
          "time": 207.17424,
          "velocity": 0.7795275590551181
        },
        {
          "duration": 2.1014279999999985,
          "durationTicks": 1345,
          "midi": 48,
          "name": "C3",
          "ticks": 132840,
          "time": 207.54921599999997,
          "velocity": 0.5905511811023622
        },
        {
          "duration": 1.632708000000008,
          "durationTicks": 1045,
          "midi": 60,
          "name": "C4",
          "ticks": 132840,
          "time": 207.54921599999997,
          "velocity": 0.7637795275590551
        },
        {
          "duration": 1.632708000000008,
          "durationTicks": 1045,
          "midi": 63,
          "name": "D#4",
          "ticks": 132840,
          "time": 207.54921599999997,
          "velocity": 0.6535433070866141
        },
        {
          "duration": 1.6561440000000118,
          "durationTicks": 1060,
          "midi": 67,
          "name": "G4",
          "ticks": 132840,
          "time": 207.54921599999997,
          "velocity": 0.9212598425196851
        },
        {
          "duration": 1.3749119999999664,
          "durationTicks": 880,
          "midi": 53,
          "name": "F3",
          "ticks": 134400,
          "time": 209.98656,
          "velocity": 0.8031496062992126
        },
        {
          "duration": 0.3984119999999791,
          "durationTicks": 255,
          "midi": 60,
          "name": "C4",
          "ticks": 134400,
          "time": 209.98656,
          "velocity": 0.8031496062992126
        },
        {
          "duration": 1.3749119999999664,
          "durationTicks": 880,
          "midi": 63,
          "name": "D#4",
          "ticks": 134400,
          "time": 209.98656,
          "velocity": 0.8031496062992126
        },
        {
          "duration": 0.8436960000000227,
          "durationTicks": 540,
          "midi": 60,
          "name": "C4",
          "ticks": 134760,
          "time": 210.54902399999997,
          "velocity": 0.7637795275590551
        },
        {
          "duration": 1.3436640000000182,
          "durationTicks": 860,
          "midi": 53,
          "name": "F3",
          "ticks": 135360,
          "time": 211.48646399999998,
          "velocity": 0.8267716535433071
        },
        {
          "duration": 0.39841200000000754,
          "durationTicks": 255,
          "midi": 60,
          "name": "C4",
          "ticks": 135360,
          "time": 211.48646399999998,
          "velocity": 0.8267716535433071
        },
        {
          "duration": 1.3436640000000182,
          "durationTicks": 860,
          "midi": 63,
          "name": "D#4",
          "ticks": 135360,
          "time": 211.48646399999998,
          "velocity": 0.7165354330708661
        },
        {
          "duration": 0.7968239999999867,
          "durationTicks": 510,
          "midi": 60,
          "name": "C4",
          "ticks": 135720,
          "time": 212.048928,
          "velocity": 0.7637795275590551
        },
        {
          "duration": 1.3358519999999885,
          "durationTicks": 855,
          "midi": 53,
          "name": "F3",
          "ticks": 136320,
          "time": 212.986368,
          "velocity": 0.7322834645669292
        },
        {
          "duration": 1.3436639999999898,
          "durationTicks": 860,
          "midi": 58,
          "name": "A#3",
          "ticks": 136320,
          "time": 212.986368,
          "velocity": 0.8740157480314961
        },
        {
          "duration": 1.3592879999999923,
          "durationTicks": 870,
          "midi": 62,
          "name": "D4",
          "ticks": 136320,
          "time": 212.986368,
          "velocity": 0.6062992125984252
        },
        {
          "duration": 0.6483959999999911,
          "durationTicks": 415,
          "midi": 53,
          "name": "F3",
          "ticks": 137280,
          "time": 214.48627199999999,
          "velocity": 0.8267716535433071
        },
        {
          "duration": 0.6952679999999987,
          "durationTicks": 445,
          "midi": 58,
          "name": "A#3",
          "ticks": 137280,
          "time": 214.48627199999999,
          "velocity": 0.9212598425196851
        },
        {
          "duration": 0.7499520000000075,
          "durationTicks": 480,
          "midi": 62,
          "name": "D4",
          "ticks": 137280,
          "time": 214.48627199999999,
          "velocity": 0.6692913385826772
        },
        {
          "duration": 0.6483959999999911,
          "durationTicks": 415,
          "midi": 53,
          "name": "F3",
          "ticks": 137760,
          "time": 215.236224,
          "velocity": 0.8267716535433071
        },
        {
          "duration": 0.7030799999999999,
          "durationTicks": 450,
          "midi": 57,
          "name": "A3",
          "ticks": 137760,
          "time": 215.236224,
          "velocity": 0.9212598425196851
        },
        {
          "duration": 0.6171480000000145,
          "durationTicks": 395,
          "midi": 62,
          "name": "D4",
          "ticks": 137760,
          "time": 215.236224,
          "velocity": 0.6692913385826772
        },
        {
          "duration": 1.335852000000017,
          "durationTicks": 855,
          "midi": 53,
          "name": "F3",
          "ticks": 144000,
          "time": 224.98559999999998,
          "velocity": 0.5669291338582677
        },
        {
          "duration": 1.382723999999996,
          "durationTicks": 885,
          "midi": 58,
          "name": "A#3",
          "ticks": 144000,
          "time": 224.98559999999998,
          "velocity": 0.7244094488188977
        },
        {
          "duration": 1.3436640000000182,
          "durationTicks": 860,
          "midi": 62,
          "name": "D4",
          "ticks": 144000,
          "time": 224.98559999999998,
          "velocity": 0.4881889763779528
        },
        {
          "duration": 0.6249599999999873,
          "durationTicks": 400,
          "midi": 53,
          "name": "F3",
          "ticks": 144960,
          "time": 226.485504,
          "velocity": 0.7244094488188977
        },
        {
          "duration": 0.6483959999999911,
          "durationTicks": 415,
          "midi": 58,
          "name": "A#3",
          "ticks": 144960,
          "time": 226.485504,
          "velocity": 0.8188976377952756
        },
        {
          "duration": 0.6405840000000182,
          "durationTicks": 410,
          "midi": 62,
          "name": "D4",
          "ticks": 144960,
          "time": 226.485504,
          "velocity": 0.5669291338582677
        },
        {
          "duration": 0.49215599999999426,
          "durationTicks": 315,
          "midi": 53,
          "name": "F3",
          "ticks": 145440,
          "time": 227.235456,
          "velocity": 0.7716535433070866
        },
        {
          "duration": 0.4687199999999905,
          "durationTicks": 300,
          "midi": 58,
          "name": "A#3",
          "ticks": 145440,
          "time": 227.235456,
          "velocity": 0.8582677165354331
        },
        {
          "duration": 0.4999679999999955,
          "durationTicks": 320,
          "midi": 62,
          "name": "D4",
          "ticks": 145440,
          "time": 227.235456,
          "velocity": 0.5511811023622047
        },
        {
          "duration": 2.851380000000006,
          "durationTicks": 1825,
          "midi": 48,
          "name": "C3",
          "ticks": 145920,
          "time": 227.98540799999998,
          "velocity": 0.7716535433070866
        },
        {
          "duration": 0.5390280000000018,
          "durationTicks": 345,
          "midi": 60,
          "name": "C4",
          "ticks": 145920,
          "time": 227.98540799999998,
          "velocity": 0.7401574803149606
        },
        {
          "duration": 0.5390280000000018,
          "durationTicks": 345,
          "midi": 64,
          "name": "E4",
          "ticks": 145920,
          "time": 227.98540799999998,
          "velocity": 0.7401574803149606
        },
        {
          "duration": 0.5312160000000006,
          "durationTicks": 340,
          "midi": 67,
          "name": "G4",
          "ticks": 145920,
          "time": 227.98540799999998,
          "velocity": 0.7401574803149606
        },
        {
          "duration": 0.5546519999999759,
          "durationTicks": 355,
          "midi": 60,
          "name": "C4",
          "ticks": 146400,
          "time": 228.73536,
          "velocity": 0.7401574803149606
        },
        {
          "duration": 0.5546519999999759,
          "durationTicks": 355,
          "midi": 64,
          "name": "E4",
          "ticks": 146400,
          "time": 228.73536,
          "velocity": 0.7401574803149606
        },
        {
          "duration": 0.5624640000000056,
          "durationTicks": 360,
          "midi": 67,
          "name": "G4",
          "ticks": 146400,
          "time": 228.73536,
          "velocity": 0.7401574803149606
        },
        {
          "duration": 0.6405840000000182,
          "durationTicks": 410,
          "midi": 60,
          "name": "C4",
          "ticks": 146880,
          "time": 229.485312,
          "velocity": 0.7401574803149606
        },
        {
          "duration": 0.5546519999999759,
          "durationTicks": 355,
          "midi": 64,
          "name": "E4",
          "ticks": 146880,
          "time": 229.485312,
          "velocity": 0.7401574803149606
        },
        {
          "duration": 0.5546519999999759,
          "durationTicks": 355,
          "midi": 67,
          "name": "G4",
          "ticks": 146880,
          "time": 229.485312,
          "velocity": 0.7401574803149606
        },
        {
          "duration": 0.5546520000000044,
          "durationTicks": 355,
          "midi": 60,
          "name": "C4",
          "ticks": 147360,
          "time": 230.23526399999997,
          "velocity": 0.8976377952755905
        },
        {
          "duration": 0.5546520000000044,
          "durationTicks": 355,
          "midi": 62,
          "name": "D4",
          "ticks": 147360,
          "time": 230.23526399999997,
          "velocity": 0.8976377952755905
        },
        {
          "duration": 0.5624640000000056,
          "durationTicks": 360,
          "midi": 67,
          "name": "G4",
          "ticks": 147360,
          "time": 230.23526399999997,
          "velocity": 0.8976377952755905
        },
        {
          "duration": 0.07030800000001136,
          "durationTicks": 45,
          "midi": 48,
          "name": "C3",
          "ticks": 147840,
          "time": 230.98521599999998,
          "velocity": 0.8346456692913385
        },
        {
          "duration": 0.17186400000002777,
          "durationTicks": 110,
          "midi": 60,
          "name": "C4",
          "ticks": 147840,
          "time": 230.98521599999998,
          "velocity": 0.937007874015748
        },
        {
          "duration": 0.17186400000002777,
          "durationTicks": 110,
          "midi": 62,
          "name": "D4",
          "ticks": 147840,
          "time": 230.98521599999998,
          "velocity": 0.889763779527559
        },
        {
          "duration": 0.17186400000002777,
          "durationTicks": 110,
          "midi": 67,
          "name": "G4",
          "ticks": 147840,
          "time": 230.98521599999998,
          "velocity": 0.84251968503937
        },
        {
          "duration": 0.11717999999999051,
          "durationTicks": 75,
          "midi": 50,
          "name": "D3",
          "ticks": 147960,
          "time": 231.17270399999998,
          "velocity": 0.6771653543307087
        },
        {
          "duration": 0.1640519999999981,
          "durationTicks": 105,
          "midi": 62,
          "name": "D4",
          "ticks": 147960,
          "time": 231.17270399999998,
          "velocity": 0.84251968503937
        },
        {
          "duration": 0.17186400000002777,
          "durationTicks": 110,
          "midi": 65,
          "name": "F4",
          "ticks": 147960,
          "time": 231.17270399999998,
          "velocity": 0.7952755905511811
        },
        {
          "duration": 0.17186400000002777,
          "durationTicks": 110,
          "midi": 69,
          "name": "A4",
          "ticks": 147960,
          "time": 231.17270399999998,
          "velocity": 0.84251968503937
        },
        {
          "duration": 2.10924,
          "durationTicks": 1350,
          "midi": 50,
          "name": "D3",
          "ticks": 148200,
          "time": 231.54767999999999,
          "velocity": 0.6535433070866141
        },
        {
          "duration": 1.6405200000000093,
          "durationTicks": 1050,
          "midi": 62,
          "name": "D4",
          "ticks": 148200,
          "time": 231.54767999999999,
          "velocity": 0.8267716535433071
        },
        {
          "duration": 1.6327079999999796,
          "durationTicks": 1045,
          "midi": 65,
          "name": "F4",
          "ticks": 148200,
          "time": 231.54767999999999,
          "velocity": 0.7165354330708661
        },
        {
          "duration": 1.663956000000013,
          "durationTicks": 1065,
          "midi": 69,
          "name": "A4",
          "ticks": 148200,
          "time": 231.54767999999999,
          "velocity": 0.984251968503937
        },
        {
          "duration": 1.3749119999999948,
          "durationTicks": 880,
          "midi": 55,
          "name": "G3",
          "ticks": 149760,
          "time": 233.98502399999998,
          "velocity": 0.8661417322834646
        },
        {
          "duration": 0.39059999999997785,
          "durationTicks": 250,
          "midi": 62,
          "name": "D4",
          "ticks": 149760,
          "time": 233.98502399999998,
          "velocity": 0.8661417322834646
        },
        {
          "duration": 1.3749119999999948,
          "durationTicks": 880,
          "midi": 65,
          "name": "F4",
          "ticks": 149760,
          "time": 233.98502399999998,
          "velocity": 0.8661417322834646
        },
        {
          "duration": 0.8436959999999942,
          "durationTicks": 540,
          "midi": 62,
          "name": "D4",
          "ticks": 150120,
          "time": 234.547488,
          "velocity": 0.8267716535433071
        },
        {
          "duration": 1.3436639999999898,
          "durationTicks": 860,
          "midi": 55,
          "name": "G3",
          "ticks": 150720,
          "time": 235.484928,
          "velocity": 0.889763779527559
        },
        {
          "duration": 0.4062240000000088,
          "durationTicks": 260,
          "midi": 62,
          "name": "D4",
          "ticks": 150720,
          "time": 235.484928,
          "velocity": 0.889763779527559
        },
        {
          "duration": 1.3436639999999898,
          "durationTicks": 860,
          "midi": 65,
          "name": "F4",
          "ticks": 150720,
          "time": 235.484928,
          "velocity": 0.7795275590551181
        },
        {
          "duration": 0.7968240000000151,
          "durationTicks": 510,
          "midi": 62,
          "name": "D4",
          "ticks": 151080,
          "time": 236.04739199999997,
          "velocity": 0.8267716535433071
        },
        {
          "duration": 1.3280399999999872,
          "durationTicks": 850,
          "midi": 55,
          "name": "G3",
          "ticks": 151680,
          "time": 236.98483199999998,
          "velocity": 0.7952755905511811
        },
        {
          "duration": 1.3436640000000182,
          "durationTicks": 860,
          "midi": 60,
          "name": "C4",
          "ticks": 151680,
          "time": 236.98483199999998,
          "velocity": 0.937007874015748
        },
        {
          "duration": 1.351475999999991,
          "durationTicks": 865,
          "midi": 64,
          "name": "E4",
          "ticks": 151680,
          "time": 236.98483199999998,
          "velocity": 0.6692913385826772
        },
        {
          "duration": 0.6483959999999627,
          "durationTicks": 415,
          "midi": 55,
          "name": "G3",
          "ticks": 152640,
          "time": 238.484736,
          "velocity": 0.889763779527559
        },
        {
          "duration": 0.6952679999999702,
          "durationTicks": 445,
          "midi": 60,
          "name": "C4",
          "ticks": 152640,
          "time": 238.484736,
          "velocity": 0.984251968503937
        },
        {
          "duration": 0.7499519999999791,
          "durationTicks": 480,
          "midi": 64,
          "name": "E4",
          "ticks": 152640,
          "time": 238.484736,
          "velocity": 0.7322834645669292
        },
        {
          "duration": 0.6483959999999911,
          "durationTicks": 415,
          "midi": 55,
          "name": "G3",
          "ticks": 153120,
          "time": 239.23468799999998,
          "velocity": 0.889763779527559
        },
        {
          "duration": 0.7030799999999999,
          "durationTicks": 450,
          "midi": 59,
          "name": "B3",
          "ticks": 153120,
          "time": 239.23468799999998,
          "velocity": 0.984251968503937
        },
        {
          "duration": 0.6171480000000145,
          "durationTicks": 395,
          "midi": 64,
          "name": "E4",
          "ticks": 153120,
          "time": 239.23468799999998,
          "velocity": 0.7322834645669292
        },
        {
          "duration": 1.3280399999999872,
          "durationTicks": 850,
          "midi": 55,
          "name": "G3",
          "ticks": 159360,
          "time": 248.984064,
          "velocity": 0.6299212598425197
        },
        {
          "duration": 1.382723999999996,
          "durationTicks": 885,
          "midi": 60,
          "name": "C4",
          "ticks": 159360,
          "time": 248.984064,
          "velocity": 0.7874015748031497
        },
        {
          "duration": 1.351475999999991,
          "durationTicks": 865,
          "midi": 64,
          "name": "E4",
          "ticks": 159360,
          "time": 248.984064,
          "velocity": 0.5511811023622047
        },
        {
          "duration": 0.6171480000000145,
          "durationTicks": 395,
          "midi": 55,
          "name": "G3",
          "ticks": 160320,
          "time": 250.48396799999998,
          "velocity": 0.7874015748031497
        },
        {
          "duration": 0.6483959999999911,
          "durationTicks": 415,
          "midi": 60,
          "name": "C4",
          "ticks": 160320,
          "time": 250.48396799999998,
          "velocity": 0.8818897637795275
        },
        {
          "duration": 0.6405840000000182,
          "durationTicks": 410,
          "midi": 64,
          "name": "E4",
          "ticks": 160320,
          "time": 250.48396799999998,
          "velocity": 0.6299212598425197
        },
        {
          "duration": 0.49215599999999426,
          "durationTicks": 315,
          "midi": 55,
          "name": "G3",
          "ticks": 160800,
          "time": 251.23391999999998,
          "velocity": 0.8346456692913385
        },
        {
          "duration": 0.4687199999999905,
          "durationTicks": 300,
          "midi": 60,
          "name": "C4",
          "ticks": 160800,
          "time": 251.23391999999998,
          "velocity": 0.9212598425196851
        },
        {
          "duration": 0.49996800000002395,
          "durationTicks": 320,
          "midi": 64,
          "name": "E4",
          "ticks": 160800,
          "time": 251.23391999999998,
          "velocity": 0.6141732283464567
        },
        {
          "duration": 2.859191999999979,
          "durationTicks": 1830,
          "midi": 50,
          "name": "D3",
          "ticks": 161280,
          "time": 251.983872,
          "velocity": 0.7716535433070866
        },
        {
          "duration": 0.5390280000000018,
          "durationTicks": 345,
          "midi": 62,
          "name": "D4",
          "ticks": 161280,
          "time": 251.983872,
          "velocity": 0.7401574803149606
        },
        {
          "duration": 0.5390280000000018,
          "durationTicks": 345,
          "midi": 66,
          "name": "F#4",
          "ticks": 161280,
          "time": 251.983872,
          "velocity": 0.7401574803149606
        },
        {
          "duration": 0.5312159999999722,
          "durationTicks": 340,
          "midi": 69,
          "name": "A4",
          "ticks": 161280,
          "time": 251.983872,
          "velocity": 0.7401574803149606
        },
        {
          "duration": 0.5624640000000056,
          "durationTicks": 360,
          "midi": 62,
          "name": "D4",
          "ticks": 161760,
          "time": 252.73382399999997,
          "velocity": 0.7401574803149606
        },
        {
          "duration": 0.5546520000000044,
          "durationTicks": 355,
          "midi": 66,
          "name": "F#4",
          "ticks": 161760,
          "time": 252.73382399999997,
          "velocity": 0.7401574803149606
        },
        {
          "duration": 0.5546520000000044,
          "durationTicks": 355,
          "midi": 69,
          "name": "A4",
          "ticks": 161760,
          "time": 252.73382399999997,
          "velocity": 0.7401574803149606
        },
        {
          "duration": 0.6562079999999924,
          "durationTicks": 420,
          "midi": 62,
          "name": "D4",
          "ticks": 162240,
          "time": 253.48377599999998,
          "velocity": 0.7401574803149606
        },
        {
          "duration": 0.5546520000000044,
          "durationTicks": 355,
          "midi": 66,
          "name": "F#4",
          "ticks": 162240,
          "time": 253.48377599999998,
          "velocity": 0.7401574803149606
        },
        {
          "duration": 0.5546520000000044,
          "durationTicks": 355,
          "midi": 69,
          "name": "A4",
          "ticks": 162240,
          "time": 253.48377599999998,
          "velocity": 0.7401574803149606
        },
        {
          "duration": 0.5546519999999759,
          "durationTicks": 355,
          "midi": 62,
          "name": "D4",
          "ticks": 162720,
          "time": 254.23372799999999,
          "velocity": 0.8976377952755905
        },
        {
          "duration": 0.5546519999999759,
          "durationTicks": 355,
          "midi": 64,
          "name": "E4",
          "ticks": 162720,
          "time": 254.23372799999999,
          "velocity": 0.8976377952755905
        },
        {
          "duration": 0.5624640000000056,
          "durationTicks": 360,
          "midi": 69,
          "name": "A4",
          "ticks": 162720,
          "time": 254.23372799999999,
          "velocity": 0.8976377952755905
        },
        {
          "duration": 0.07030799999998294,
          "durationTicks": 45,
          "midi": 50,
          "name": "D3",
          "ticks": 163200,
          "time": 254.98368,
          "velocity": 0.8346456692913385
        },
        {
          "duration": 0.17186399999999935,
          "durationTicks": 110,
          "midi": 62,
          "name": "D4",
          "ticks": 163200,
          "time": 254.98368,
          "velocity": 0.937007874015748
        },
        {
          "duration": 0.17186399999999935,
          "durationTicks": 110,
          "midi": 64,
          "name": "E4",
          "ticks": 163200,
          "time": 254.98368,
          "velocity": 0.889763779527559
        },
        {
          "duration": 0.17186399999999935,
          "durationTicks": 110,
          "midi": 69,
          "name": "A4",
          "ticks": 163200,
          "time": 254.98368,
          "velocity": 0.84251968503937
        },
        {
          "duration": 0.11717999999999051,
          "durationTicks": 75,
          "midi": 52,
          "name": "E3",
          "ticks": 163320,
          "time": 255.171168,
          "velocity": 0.6771653543307087
        },
        {
          "duration": 0.17186399999999935,
          "durationTicks": 110,
          "midi": 64,
          "name": "E4",
          "ticks": 163320,
          "time": 255.171168,
          "velocity": 0.84251968503937
        },
        {
          "duration": 0.17186399999999935,
          "durationTicks": 110,
          "midi": 67,
          "name": "G4",
          "ticks": 163320,
          "time": 255.171168,
          "velocity": 0.7952755905511811
        },
        {
          "duration": 0.17186399999999935,
          "durationTicks": 110,
          "midi": 71,
          "name": "B4",
          "ticks": 163320,
          "time": 255.171168,
          "velocity": 0.84251968503937
        },
        {
          "duration": 2.1014279999999985,
          "durationTicks": 1345,
          "midi": 52,
          "name": "E3",
          "ticks": 163560,
          "time": 255.54614399999997,
          "velocity": 0.6535433070866141
        },
        {
          "duration": 1.6405200000000377,
          "durationTicks": 1050,
          "midi": 64,
          "name": "E4",
          "ticks": 163560,
          "time": 255.54614399999997,
          "velocity": 0.8267716535433071
        },
        {
          "duration": 1.6327079999999796,
          "durationTicks": 1045,
          "midi": 67,
          "name": "G4",
          "ticks": 163560,
          "time": 255.54614399999997,
          "velocity": 0.7165354330708661
        },
        {
          "duration": 1.6639560000000415,
          "durationTicks": 1065,
          "midi": 71,
          "name": "B4",
          "ticks": 163560,
          "time": 255.54614399999997,
          "velocity": 0.984251968503937
        },
        {
          "duration": 1.3749119999999948,
          "durationTicks": 880,
          "midi": 57,
          "name": "A3",
          "ticks": 165120,
          "time": 257.98348799999997,
          "velocity": 0.8661417322834646
        },
        {
          "duration": 0.3906000000000063,
          "durationTicks": 250,
          "midi": 64,
          "name": "E4",
          "ticks": 165120,
          "time": 257.98348799999997,
          "velocity": 0.8661417322834646
        },
        {
          "duration": 1.3749119999999948,
          "durationTicks": 880,
          "midi": 67,
          "name": "G4",
          "ticks": 165120,
          "time": 257.98348799999997,
          "velocity": 0.8661417322834646
        },
        {
          "duration": 0.8436959999999658,
          "durationTicks": 540,
          "midi": 64,
          "name": "E4",
          "ticks": 165480,
          "time": 258.545952,
          "velocity": 0.8267716535433071
        },
        {
          "duration": 1.3436639999999898,
          "durationTicks": 860,
          "midi": 57,
          "name": "A3",
          "ticks": 166080,
          "time": 259.483392,
          "velocity": 0.889763779527559
        },
        {
          "duration": 0.39841200000000754,
          "durationTicks": 255,
          "midi": 64,
          "name": "E4",
          "ticks": 166080,
          "time": 259.483392,
          "velocity": 0.889763779527559
        },
        {
          "duration": 1.3436639999999898,
          "durationTicks": 860,
          "midi": 67,
          "name": "G4",
          "ticks": 166080,
          "time": 259.483392,
          "velocity": 0.7795275590551181
        },
        {
          "duration": 0.7968240000000151,
          "durationTicks": 510,
          "midi": 64,
          "name": "E4",
          "ticks": 166440,
          "time": 260.04585599999996,
          "velocity": 0.8267716535433071
        },
        {
          "duration": 1.3280399999999872,
          "durationTicks": 850,
          "midi": 57,
          "name": "A3",
          "ticks": 167040,
          "time": 260.983296,
          "velocity": 0.7952755905511811
        },
        {
          "duration": 1.3358519999999885,
          "durationTicks": 855,
          "midi": 62,
          "name": "D4",
          "ticks": 167040,
          "time": 260.983296,
          "velocity": 0.937007874015748
        },
        {
          "duration": 1.351475999999991,
          "durationTicks": 865,
          "midi": 66,
          "name": "F#4",
          "ticks": 167040,
          "time": 260.983296,
          "velocity": 0.6692913385826772
        },
        {
          "duration": 0.6483959999999342,
          "durationTicks": 415,
          "midi": 57,
          "name": "A3",
          "ticks": 168000,
          "time": 262.4832,
          "velocity": 0.889763779527559
        },
        {
          "duration": 0.6952679999999418,
          "durationTicks": 445,
          "midi": 62,
          "name": "D4",
          "ticks": 168000,
          "time": 262.4832,
          "velocity": 0.984251968503937
        },
        {
          "duration": 0.7421399999999494,
          "durationTicks": 475,
          "midi": 66,
          "name": "F#4",
          "ticks": 168000,
          "time": 262.4832,
          "velocity": 0.7322834645669292
        },
        {
          "duration": 0.6483959999999911,
          "durationTicks": 415,
          "midi": 57,
          "name": "A3",
          "ticks": 168480,
          "time": 263.23315199999996,
          "velocity": 0.889763779527559
        },
        {
          "duration": 0.7030799999999999,
          "durationTicks": 450,
          "midi": 61,
          "name": "C#4",
          "ticks": 168480,
          "time": 263.23315199999996,
          "velocity": 0.984251968503937
        },
        {
          "duration": 0.6171480000000429,
          "durationTicks": 395,
          "midi": 66,
          "name": "F#4",
          "ticks": 168480,
          "time": 263.23315199999996,
          "velocity": 0.7322834645669292
        },
        {
          "duration": 1.3358519999999885,
          "durationTicks": 855,
          "midi": 57,
          "name": "A3",
          "ticks": 174720,
          "time": 272.982528,
          "velocity": 0.6299212598425197
        },
        {
          "duration": 1.382723999999996,
          "durationTicks": 885,
          "midi": 62,
          "name": "D4",
          "ticks": 174720,
          "time": 272.982528,
          "velocity": 0.7874015748031497
        },
        {
          "duration": 1.351475999999991,
          "durationTicks": 865,
          "midi": 66,
          "name": "F#4",
          "ticks": 174720,
          "time": 272.982528,
          "velocity": 0.5511811023622047
        },
        {
          "duration": 0.6405840000000467,
          "durationTicks": 410,
          "midi": 57,
          "name": "A3",
          "ticks": 175680,
          "time": 274.48243199999996,
          "velocity": 0.889763779527559
        },
        {
          "duration": 0.6874560000000542,
          "durationTicks": 440,
          "midi": 62,
          "name": "D4",
          "ticks": 175680,
          "time": 274.48243199999996,
          "velocity": 0.984251968503937
        },
        {
          "duration": 0.7421400000000062,
          "durationTicks": 475,
          "midi": 66,
          "name": "F#4",
          "ticks": 175680,
          "time": 274.48243199999996,
          "velocity": 0.7322834645669292
        },
        {
          "duration": 0.6483959999999911,
          "durationTicks": 415,
          "midi": 57,
          "name": "A3",
          "ticks": 176160,
          "time": 275.23238399999997,
          "velocity": 0.889763779527559
        },
        {
          "duration": 0.6952679999999987,
          "durationTicks": 445,
          "midi": 61,
          "name": "C#4",
          "ticks": 176160,
          "time": 275.23238399999997,
          "velocity": 0.984251968503937
        },
        {
          "duration": 0.6171480000000429,
          "durationTicks": 395,
          "midi": 66,
          "name": "F#4",
          "ticks": 176160,
          "time": 275.23238399999997,
          "velocity": 0.7322834645669292
        },
        {
          "duration": 1.3358519999999885,
          "durationTicks": 855,
          "midi": 57,
          "name": "A3",
          "ticks": 182400,
          "time": 284.98176,
          "velocity": 0.6299212598425197
        },
        {
          "duration": 1.382723999999996,
          "durationTicks": 885,
          "midi": 62,
          "name": "D4",
          "ticks": 182400,
          "time": 284.98176,
          "velocity": 0.7874015748031497
        },
        {
          "duration": 1.3592879999999923,
          "durationTicks": 870,
          "midi": 66,
          "name": "F#4",
          "ticks": 182400,
          "time": 284.98176,
          "velocity": 0.5511811023622047
        },
        {
          "duration": 0.6405840000000467,
          "durationTicks": 410,
          "midi": 57,
          "name": "A3",
          "ticks": 183360,
          "time": 286.48166399999997,
          "velocity": 0.889763779527559
        },
        {
          "duration": 0.6874560000000542,
          "durationTicks": 440,
          "midi": 62,
          "name": "D4",
          "ticks": 183360,
          "time": 286.48166399999997,
          "velocity": 0.984251968503937
        },
        {
          "duration": 0.734328000000005,
          "durationTicks": 470,
          "midi": 66,
          "name": "F#4",
          "ticks": 183360,
          "time": 286.48166399999997,
          "velocity": 0.7322834645669292
        },
        {
          "duration": 0.6483959999999911,
          "durationTicks": 415,
          "midi": 57,
          "name": "A3",
          "ticks": 183840,
          "time": 287.231616,
          "velocity": 0.889763779527559
        },
        {
          "duration": 0.7030799999999999,
          "durationTicks": 450,
          "midi": 61,
          "name": "C#4",
          "ticks": 183840,
          "time": 287.231616,
          "velocity": 0.984251968503937
        },
        {
          "duration": 0.6171480000000429,
          "durationTicks": 395,
          "midi": 66,
          "name": "F#4",
          "ticks": 183840,
          "time": 287.231616,
          "velocity": 0.7322834645669292
        },
        {
          "duration": 1.46865600000001,
          "durationTicks": 940,
          "midi": 57,
          "name": "A3",
          "ticks": 190080,
          "time": 296.98099199999996,
          "velocity": 0.5433070866141733
        },
        {
          "duration": 0.18748799999997345,
          "durationTicks": 120,
          "midi": 62,
          "name": "D4",
          "ticks": 190200,
          "time": 297.16848,
          "velocity": 0.5433070866141733
        },
        {
          "duration": 0.1874880000000303,
          "durationTicks": 120,
          "midi": 64,
          "name": "E4",
          "ticks": 190320,
          "time": 297.35596799999996,
          "velocity": 0.5433070866141733
        },
        {
          "duration": 0.937439999999981,
          "durationTicks": 600,
          "midi": 66,
          "name": "F#4",
          "ticks": 190440,
          "time": 297.543456,
          "velocity": 0.5433070866141733
        },
        {
          "duration": 0.562464000000034,
          "durationTicks": 360,
          "midi": 67,
          "name": "G4",
          "ticks": 191040,
          "time": 298.480896,
          "velocity": 0.5354330708661418
        },
        {
          "duration": 0.5624639999999772,
          "durationTicks": 360,
          "midi": 66,
          "name": "F#4",
          "ticks": 191400,
          "time": 299.04336,
          "velocity": 0.5275590551181102
        },
        {
          "duration": 0.37497600000000375,
          "durationTicks": 240,
          "midi": 64,
          "name": "E4",
          "ticks": 191760,
          "time": 299.605824,
          "velocity": 0.5275590551181102
        },
        {
          "duration": 0.17186400000002777,
          "durationTicks": 110,
          "midi": 66,
          "name": "F#4",
          "ticks": 191880,
          "time": 299.79331199999996,
          "velocity": 0.5905511811023622
        },
        {
          "duration": 1.5155279999999607,
          "durationTicks": 970,
          "midi": 57,
          "name": "A3",
          "ticks": 192000,
          "time": 299.9808,
          "velocity": 0.5433070866141733
        },
        {
          "duration": 1.4842800000000125,
          "durationTicks": 950,
          "midi": 69,
          "name": "A4",
          "ticks": 192000,
          "time": 299.9808,
          "velocity": 0.7952755905511811
        },
        {
          "duration": 0.17967600000002903,
          "durationTicks": 115,
          "midi": 62,
          "name": "D4",
          "ticks": 192120,
          "time": 300.16828799999996,
          "velocity": 0.5433070866141733
        },
        {
          "duration": 0.1796759999999722,
          "durationTicks": 115,
          "midi": 64,
          "name": "E4",
          "ticks": 192240,
          "time": 300.355776,
          "velocity": 0.5433070866141733
        },
        {
          "duration": 0.9374400000000378,
          "durationTicks": 600,
          "midi": 66,
          "name": "F#4",
          "ticks": 192360,
          "time": 300.54326399999997,
          "velocity": 0.5433070866141733
        },
        {
          "duration": 0.5624639999999772,
          "durationTicks": 360,
          "midi": 67,
          "name": "G4",
          "ticks": 192960,
          "time": 301.480704,
          "velocity": 0.5354330708661418
        },
        {
          "duration": 0.5624639999999772,
          "durationTicks": 360,
          "midi": 66,
          "name": "F#4",
          "ticks": 193320,
          "time": 302.043168,
          "velocity": 0.5275590551181102
        },
        {
          "duration": 0.37497600000000375,
          "durationTicks": 240,
          "midi": 64,
          "name": "E4",
          "ticks": 193680,
          "time": 302.60563199999996,
          "velocity": 0.5275590551181102
        },
        {
          "duration": 1.4920920000000137,
          "durationTicks": 955,
          "midi": 57,
          "name": "A3",
          "ticks": 193920,
          "time": 302.98060799999996,
          "velocity": 0.5433070866141733
        },
        {
          "duration": 0.18748799999997345,
          "durationTicks": 120,
          "midi": 62,
          "name": "D4",
          "ticks": 194040,
          "time": 303.168096,
          "velocity": 0.5433070866141733
        },
        {
          "duration": 0.1874880000000303,
          "durationTicks": 120,
          "midi": 64,
          "name": "E4",
          "ticks": 194160,
          "time": 303.35558399999996,
          "velocity": 0.5433070866141733
        },
        {
          "duration": 0.937439999999981,
          "durationTicks": 600,
          "midi": 66,
          "name": "F#4",
          "ticks": 194280,
          "time": 303.543072,
          "velocity": 0.5433070866141733
        },
        {
          "duration": 0.5546519999999759,
          "durationTicks": 355,
          "midi": 67,
          "name": "G4",
          "ticks": 194880,
          "time": 304.480512,
          "velocity": 0.5354330708661418
        },
        {
          "duration": 0.562464000000034,
          "durationTicks": 360,
          "midi": 66,
          "name": "F#4",
          "ticks": 195240,
          "time": 305.04297599999995,
          "velocity": 0.5275590551181102
        },
        {
          "duration": 0.37497600000000375,
          "durationTicks": 240,
          "midi": 64,
          "name": "E4",
          "ticks": 195600,
          "time": 305.60544,
          "velocity": 0.5275590551181102
        },
        {
          "duration": 0.20311200000003282,
          "durationTicks": 130,
          "midi": 66,
          "name": "F#4",
          "ticks": 195720,
          "time": 305.79292799999996,
          "velocity": 0.5196850393700787
        },
        {
          "duration": 1.492091999999957,
          "durationTicks": 955,
          "midi": 57,
          "name": "A3",
          "ticks": 195840,
          "time": 305.980416,
          "velocity": 0.5433070866141733
        },
        {
          "duration": 1.4842800000000125,
          "durationTicks": 950,
          "midi": 69,
          "name": "A4",
          "ticks": 195840,
          "time": 305.980416,
          "velocity": 0.7322834645669292
        },
        {
          "duration": 0.1874880000000303,
          "durationTicks": 120,
          "midi": 62,
          "name": "D4",
          "ticks": 195960,
          "time": 306.16790399999996,
          "velocity": 0.5433070866141733
        },
        {
          "duration": 0.1796759999999722,
          "durationTicks": 115,
          "midi": 64,
          "name": "E4",
          "ticks": 196080,
          "time": 306.355392,
          "velocity": 0.5433070866141733
        },
        {
          "duration": 0.9374400000000378,
          "durationTicks": 600,
          "midi": 66,
          "name": "F#4",
          "ticks": 196200,
          "time": 306.54287999999997,
          "velocity": 0.5433070866141733
        },
        {
          "duration": 0.5546519999999759,
          "durationTicks": 355,
          "midi": 67,
          "name": "G4",
          "ticks": 196800,
          "time": 307.48032,
          "velocity": 0.5354330708661418
        },
        {
          "duration": 0.5624639999999772,
          "durationTicks": 360,
          "midi": 66,
          "name": "F#4",
          "ticks": 197160,
          "time": 308.042784,
          "velocity": 0.5275590551181102
        },
        {
          "duration": 0.37497600000000375,
          "durationTicks": 240,
          "midi": 64,
          "name": "E4",
          "ticks": 197520,
          "time": 308.60524799999996,
          "velocity": 0.5275590551181102
        },
        {
          "duration": 1.4764680000000112,
          "durationTicks": 945,
          "midi": 57,
          "name": "A3",
          "ticks": 197760,
          "time": 308.98022399999996,
          "velocity": 0.5433070866141733
        },
        {
          "duration": 0.18748799999997345,
          "durationTicks": 120,
          "midi": 62,
          "name": "D4",
          "ticks": 197880,
          "time": 309.167712,
          "velocity": 0.5433070866141733
        },
        {
          "duration": 0.1874880000000303,
          "durationTicks": 120,
          "midi": 64,
          "name": "E4",
          "ticks": 198000,
          "time": 309.35519999999997,
          "velocity": 0.5433070866141733
        },
        {
          "duration": 0.937439999999981,
          "durationTicks": 600,
          "midi": 66,
          "name": "F#4",
          "ticks": 198120,
          "time": 309.542688,
          "velocity": 0.5433070866141733
        },
        {
          "duration": 0.5624639999999772,
          "durationTicks": 360,
          "midi": 67,
          "name": "G4",
          "ticks": 198720,
          "time": 310.480128,
          "velocity": 0.5354330708661418
        },
        {
          "duration": 0.5546520000000328,
          "durationTicks": 355,
          "midi": 66,
          "name": "F#4",
          "ticks": 199080,
          "time": 311.04259199999996,
          "velocity": 0.5275590551181102
        },
        {
          "duration": 0.37497600000000375,
          "durationTicks": 240,
          "midi": 64,
          "name": "E4",
          "ticks": 199440,
          "time": 311.605056,
          "velocity": 0.5275590551181102
        },
        {
          "duration": 0.17967600000002903,
          "durationTicks": 115,
          "midi": 66,
          "name": "F#4",
          "ticks": 199560,
          "time": 311.79254399999996,
          "velocity": 0.5905511811023622
        },
        {
          "duration": 1.5077160000000163,
          "durationTicks": 965,
          "midi": 57,
          "name": "A3",
          "ticks": 199680,
          "time": 311.980032,
          "velocity": 0.5433070866141733
        },
        {
          "duration": 1.4764680000000112,
          "durationTicks": 945,
          "midi": 69,
          "name": "A4",
          "ticks": 199680,
          "time": 311.980032,
          "velocity": 0.7952755905511811
        },
        {
          "duration": 0.1874880000000303,
          "durationTicks": 120,
          "midi": 62,
          "name": "D4",
          "ticks": 199800,
          "time": 312.16751999999997,
          "velocity": 0.5433070866141733
        },
        {
          "duration": 0.18748799999997345,
          "durationTicks": 120,
          "midi": 64,
          "name": "E4",
          "ticks": 199920,
          "time": 312.355008,
          "velocity": 0.5433070866141733
        },
        {
          "duration": 0.937439999999981,
          "durationTicks": 600,
          "midi": 66,
          "name": "F#4",
          "ticks": 200040,
          "time": 312.54249599999997,
          "velocity": 0.5433070866141733
        },
        {
          "duration": 0.5468400000000315,
          "durationTicks": 350,
          "midi": 67,
          "name": "G4",
          "ticks": 200640,
          "time": 313.47993599999995,
          "velocity": 0.5354330708661418
        },
        {
          "duration": 0.5624639999999772,
          "durationTicks": 360,
          "midi": 66,
          "name": "F#4",
          "ticks": 201000,
          "time": 314.0424,
          "velocity": 0.5275590551181102
        },
        {
          "duration": 0.37497600000000375,
          "durationTicks": 240,
          "midi": 64,
          "name": "E4",
          "ticks": 201360,
          "time": 314.60486399999996,
          "velocity": 0.5275590551181102
        },
        {
          "duration": 1.4920920000000137,
          "durationTicks": 955,
          "midi": 57,
          "name": "A3",
          "ticks": 201600,
          "time": 314.97983999999997,
          "velocity": 0.5433070866141733
        },
        {
          "duration": 0.18748799999997345,
          "durationTicks": 120,
          "midi": 62,
          "name": "D4",
          "ticks": 201720,
          "time": 315.167328,
          "velocity": 0.5433070866141733
        },
        {
          "duration": 0.1874880000000303,
          "durationTicks": 120,
          "midi": 64,
          "name": "E4",
          "ticks": 201840,
          "time": 315.35481599999997,
          "velocity": 0.5433070866141733
        },
        {
          "duration": 0.937439999999981,
          "durationTicks": 600,
          "midi": 66,
          "name": "F#4",
          "ticks": 201960,
          "time": 315.542304,
          "velocity": 0.5433070866141733
        },
        {
          "duration": 0.5546519999999759,
          "durationTicks": 355,
          "midi": 67,
          "name": "G4",
          "ticks": 202560,
          "time": 316.479744,
          "velocity": 0.5354330708661418
        },
        {
          "duration": 0.562464000000034,
          "durationTicks": 360,
          "midi": 66,
          "name": "F#4",
          "ticks": 202920,
          "time": 317.04220799999996,
          "velocity": 0.5275590551181102
        },
        {
          "duration": 0.37497600000000375,
          "durationTicks": 240,
          "midi": 64,
          "name": "E4",
          "ticks": 203280,
          "time": 317.604672,
          "velocity": 0.5275590551181102
        },
        {
          "duration": 0.21092400000003408,
          "durationTicks": 135,
          "midi": 66,
          "name": "F#4",
          "ticks": 203400,
          "time": 317.79215999999997,
          "velocity": 0.5196850393700787
        },
        {
          "duration": 1.492091999999957,
          "durationTicks": 955,
          "midi": 57,
          "name": "A3",
          "ticks": 203520,
          "time": 317.979648,
          "velocity": 0.5433070866141733
        },
        {
          "duration": 1.4842800000000125,
          "durationTicks": 950,
          "midi": 69,
          "name": "A4",
          "ticks": 203520,
          "time": 317.979648,
          "velocity": 0.7322834645669292
        },
        {
          "duration": 0.1874880000000303,
          "durationTicks": 120,
          "midi": 62,
          "name": "D4",
          "ticks": 203640,
          "time": 318.16713599999997,
          "velocity": 0.5433070866141733
        },
        {
          "duration": 0.18748799999997345,
          "durationTicks": 120,
          "midi": 64,
          "name": "E4",
          "ticks": 203760,
          "time": 318.354624,
          "velocity": 0.5433070866141733
        },
        {
          "duration": 0.937439999999981,
          "durationTicks": 600,
          "midi": 66,
          "name": "F#4",
          "ticks": 203880,
          "time": 318.542112,
          "velocity": 0.5433070866141733
        },
        {
          "duration": 0.5546520000000328,
          "durationTicks": 355,
          "midi": 67,
          "name": "G4",
          "ticks": 204480,
          "time": 319.47955199999996,
          "velocity": 0.5354330708661418
        },
        {
          "duration": 0.5624639999999772,
          "durationTicks": 360,
          "midi": 66,
          "name": "F#4",
          "ticks": 204840,
          "time": 320.042016,
          "velocity": 0.5275590551181102
        },
        {
          "duration": 0.37497600000000375,
          "durationTicks": 240,
          "midi": 64,
          "name": "E4",
          "ticks": 205200,
          "time": 320.60447999999997,
          "velocity": 0.5275590551181102
        },
        {
          "duration": 1.4764680000000112,
          "durationTicks": 945,
          "midi": 57,
          "name": "A3",
          "ticks": 205440,
          "time": 320.97945599999997,
          "velocity": 0.5433070866141733
        },
        {
          "duration": 0.18748799999997345,
          "durationTicks": 120,
          "midi": 62,
          "name": "D4",
          "ticks": 205560,
          "time": 321.166944,
          "velocity": 0.5433070866141733
        },
        {
          "duration": 0.1796759999999722,
          "durationTicks": 115,
          "midi": 64,
          "name": "E4",
          "ticks": 205680,
          "time": 321.354432,
          "velocity": 0.5433070866141733
        },
        {
          "duration": 0.937439999999981,
          "durationTicks": 600,
          "midi": 66,
          "name": "F#4",
          "ticks": 205800,
          "time": 321.54192,
          "velocity": 0.5433070866141733
        },
        {
          "duration": 0.5624639999999772,
          "durationTicks": 360,
          "midi": 67,
          "name": "G4",
          "ticks": 206400,
          "time": 322.47936,
          "velocity": 0.5354330708661418
        },
        {
          "duration": 0.562464000000034,
          "durationTicks": 360,
          "midi": 66,
          "name": "F#4",
          "ticks": 206760,
          "time": 323.04182399999996,
          "velocity": 0.5275590551181102
        },
        {
          "duration": 0.37497600000000375,
          "durationTicks": 240,
          "midi": 64,
          "name": "E4",
          "ticks": 207120,
          "time": 323.604288,
          "velocity": 0.5275590551181102
        },
        {
          "duration": 0.1796759999999722,
          "durationTicks": 115,
          "midi": 66,
          "name": "F#4",
          "ticks": 207240,
          "time": 323.79177599999997,
          "velocity": 0.5905511811023622
        },
        {
          "duration": 1.5155279999999607,
          "durationTicks": 970,
          "midi": 57,
          "name": "A3",
          "ticks": 207360,
          "time": 323.979264,
          "velocity": 0.5433070866141733
        },
        {
          "duration": 1.4764679999999544,
          "durationTicks": 945,
          "midi": 69,
          "name": "A4",
          "ticks": 207360,
          "time": 323.979264,
          "velocity": 0.7952755905511811
        },
        {
          "duration": 0.1874880000000303,
          "durationTicks": 120,
          "midi": 62,
          "name": "D4",
          "ticks": 207480,
          "time": 324.166752,
          "velocity": 0.5433070866141733
        },
        {
          "duration": 0.1796759999999722,
          "durationTicks": 115,
          "midi": 64,
          "name": "E4",
          "ticks": 207600,
          "time": 324.35424,
          "velocity": 0.5433070866141733
        },
        {
          "duration": 0.937439999999981,
          "durationTicks": 600,
          "midi": 66,
          "name": "F#4",
          "ticks": 207720,
          "time": 324.541728,
          "velocity": 0.5433070866141733
        },
        {
          "duration": 0.5546520000000328,
          "durationTicks": 355,
          "midi": 67,
          "name": "G4",
          "ticks": 208320,
          "time": 325.47916799999996,
          "velocity": 0.5354330708661418
        },
        {
          "duration": 0.5624639999999772,
          "durationTicks": 360,
          "midi": 66,
          "name": "F#4",
          "ticks": 208680,
          "time": 326.041632,
          "velocity": 0.5275590551181102
        },
        {
          "duration": 0.37497600000000375,
          "durationTicks": 240,
          "midi": 64,
          "name": "E4",
          "ticks": 209040,
          "time": 326.60409599999997,
          "velocity": 0.5275590551181102
        },
        {
          "duration": 1.4920920000000137,
          "durationTicks": 955,
          "midi": 57,
          "name": "A3",
          "ticks": 209280,
          "time": 326.979072,
          "velocity": 0.5433070866141733
        },
        {
          "duration": 0.1796759999999722,
          "durationTicks": 115,
          "midi": 62,
          "name": "D4",
          "ticks": 209400,
          "time": 327.16656,
          "velocity": 0.5433070866141733
        },
        {
          "duration": 0.18748799999997345,
          "durationTicks": 120,
          "midi": 64,
          "name": "E4",
          "ticks": 209520,
          "time": 327.354048,
          "velocity": 0.5433070866141733
        },
        {
          "duration": 0.9374400000000378,
          "durationTicks": 600,
          "midi": 66,
          "name": "F#4",
          "ticks": 209640,
          "time": 327.54153599999995,
          "velocity": 0.5433070866141733
        },
        {
          "duration": 0.5624639999999772,
          "durationTicks": 360,
          "midi": 67,
          "name": "G4",
          "ticks": 210240,
          "time": 328.478976,
          "velocity": 0.5354330708661418
        },
        {
          "duration": 0.562464000000034,
          "durationTicks": 360,
          "midi": 66,
          "name": "F#4",
          "ticks": 210600,
          "time": 329.04143999999997,
          "velocity": 0.5275590551181102
        },
        {
          "duration": 0.37497600000000375,
          "durationTicks": 240,
          "midi": 64,
          "name": "E4",
          "ticks": 210960,
          "time": 329.603904,
          "velocity": 0.5275590551181102
        },
        {
          "duration": 0.21873600000003535,
          "durationTicks": 140,
          "midi": 66,
          "name": "F#4",
          "ticks": 211080,
          "time": 329.791392,
          "velocity": 0.5196850393700787
        },
        {
          "duration": 1.492091999999957,
          "durationTicks": 955,
          "midi": 57,
          "name": "A3",
          "ticks": 211200,
          "time": 329.97888,
          "velocity": 0.5433070866141733
        },
        {
          "duration": 1.4842800000000125,
          "durationTicks": 950,
          "midi": 69,
          "name": "A4",
          "ticks": 211200,
          "time": 329.97888,
          "velocity": 0.7322834645669292
        },
        {
          "duration": 0.18748799999997345,
          "durationTicks": 120,
          "midi": 62,
          "name": "D4",
          "ticks": 211320,
          "time": 330.166368,
          "velocity": 0.5433070866141733
        },
        {
          "duration": 0.1874880000000303,
          "durationTicks": 120,
          "midi": 64,
          "name": "E4",
          "ticks": 211440,
          "time": 330.35385599999995,
          "velocity": 0.5433070866141733
        },
        {
          "duration": 0.937439999999981,
          "durationTicks": 600,
          "midi": 66,
          "name": "F#4",
          "ticks": 211560,
          "time": 330.541344,
          "velocity": 0.5433070866141733
        },
        {
          "duration": 0.5546519999999759,
          "durationTicks": 355,
          "midi": 67,
          "name": "G4",
          "ticks": 212160,
          "time": 331.47878399999996,
          "velocity": 0.5354330708661418
        },
        {
          "duration": 0.5624639999999772,
          "durationTicks": 360,
          "midi": 66,
          "name": "F#4",
          "ticks": 212520,
          "time": 332.041248,
          "velocity": 0.5275590551181102
        },
        {
          "duration": 0.3906000000000063,
          "durationTicks": 250,
          "midi": 64,
          "name": "E4",
          "ticks": 212880,
          "time": 332.603712,
          "velocity": 0.5275590551181102
        },
        {
          "duration": 2.031119999999987,
          "durationTicks": 1300,
          "midi": 38,
          "name": "D2",
          "ticks": 213120,
          "time": 332.978688,
          "velocity": 0.6850393700787402
        },
        {
          "duration": 2.929499999999962,
          "durationTicks": 1875,
          "midi": 38,
          "name": "D2",
          "ticks": 214560,
          "time": 335.228544,
          "velocity": 0.49606299212598426
        },
        {
          "duration": 3.031055999999978,
          "durationTicks": 1940,
          "midi": 38,
          "name": "D2",
          "ticks": 214560,
          "time": 335.228544,
          "velocity": 0.5433070866141733
        },
        {
          "duration": 0.10155600000001641,
          "durationTicks": 65,
          "midi": 76,
          "name": "E5",
          "ticks": 215040,
          "time": 335.97849599999995,
          "velocity": 0.47244094488188976
        },
        {
          "duration": 0.09374400000001515,
          "durationTicks": 60,
          "midi": 81,
          "name": "A5",
          "ticks": 215040,
          "time": 335.97849599999995,
          "velocity": 0.47244094488188976
        },
        {
          "duration": 1.382723999999996,
          "durationTicks": 885,
          "midi": 78,
          "name": "F#5",
          "ticks": 215160,
          "time": 336.165984,
          "velocity": 0.4645669291338583
        }
      ],
      "endOfTrackTicks": 216960
    },
    {
      "channel": 0,
      "controlChanges": {
        "0": [
          {
            "number": 0,
            "ticks": 605,
            "time": 0.945252,
            "value": 0
          }
        ],
        "7": [
          {
            "number": 7,
            "ticks": 545,
            "time": 0.851508,
            "value": 0.7874015748031497
          }
        ],
        "10": [
          {
            "number": 10,
            "ticks": 545,
            "time": 0.851508,
            "value": 0.5039370078740157
          }
        ],
        "11": [
          {
            "number": 11,
            "ticks": 545,
            "time": 0.851508,
            "value": 1
          }
        ],
        "32": [
          {
            "number": 32,
            "ticks": 610,
            "time": 0.9530639999999999,
            "value": 0
          }
        ],
        "91": [
          {
            "number": 91,
            "ticks": 550,
            "time": 0.8593199999999999,
            "value": 0.6692913385826772
          }
        ],
        "93": [
          {
            "number": 93,
            "ticks": 550,
            "time": 0.8593199999999999,
            "value": 0.5511811023622047
          }
        ]
      },
      "pitchBends": [],
      "instrument": {
        "family": "piano",
        "number": 1,
        "name": "bright acoustic piano"
      },
      "name": "",
      "notes": []
    },
    {
      "channel": 0,
      "controlChanges": {
        "0": [
          {
            "number": 0,
            "ticks": 630,
            "time": 0.984312,
            "value": 0
          }
        ],
        "32": [
          {
            "number": 32,
            "ticks": 635,
            "time": 0.992124,
            "value": 0
          }
        ]
      },
      "pitchBends": [],
      "instrument": {
        "family": "piano",
        "number": 0,
        "name": "acoustic grand piano"
      },
      "name": "       ",
      "notes": [],
      "endOfTrackTicks": 192000
    },
    {
      "channel": 6,
      "controlChanges": {
        "6": [
          {
            "number": 6,
            "ticks": 1135,
            "time": 1.773324,
            "value": 0.6220472440944882
          }
        ],
        "7": [
          {
            "number": 7,
            "ticks": 645,
            "time": 1.0077479999999999,
            "value": 0.5511811023622047
          }
        ],
        "10": [
          {
            "number": 10,
            "ticks": 645,
            "time": 1.0077479999999999,
            "value": 0.5039370078740157
          }
        ],
        "11": [
          {
            "number": 11,
            "ticks": 645,
            "time": 1.0077479999999999,
            "value": 1
          }
        ],
        "91": [
          {
            "number": 91,
            "ticks": 650,
            "time": 1.01556,
            "value": 0.5511811023622047
          }
        ],
        "93": [
          {
            "number": 93,
            "ticks": 650,
            "time": 1.01556,
            "value": 0.9291338582677166
          }
        ],
        "98": [
          {
            "number": 98,
            "ticks": 1130,
            "time": 1.7655119999999997,
            "value": 0.8031496062992126
          }
        ],
        "99": [
          {
            "number": 99,
            "ticks": 1125,
            "time": 1.7576999999999998,
            "value": 0.007874015748031496
          }
        ],
        "100": [
          {
            "number": 100,
            "ticks": 1145,
            "time": 1.7889479999999998,
            "value": 1
          }
        ],
        "101": [
          {
            "number": 101,
            "ticks": 1140,
            "time": 1.7811359999999998,
            "value": 1
          }
        ]
      },
      "pitchBends": [],
      "instrument": {
        "family": "synth pad",
        "number": 89,
        "name": "pad 2 (warm)"
      },
      "name": "",
      "notes": [
        {
          "duration": 1.4764680000000006,
          "durationTicks": 945,
          "midi": 74,
          "name": "D5",
          "ticks": 13440,
          "time": 20.998655999999997,
          "velocity": 0.2677165354330709
        },
        {
          "duration": 1.4842800000000018,
          "durationTicks": 950,
          "midi": 75,
          "name": "D#5",
          "ticks": 14400,
          "time": 22.498559999999998,
          "velocity": 0.2677165354330709
        },
        {
          "duration": 1.4764680000000006,
          "durationTicks": 945,
          "midi": 77,
          "name": "F5",
          "ticks": 15360,
          "time": 23.998464,
          "velocity": 0.2677165354330709
        },
        {
          "duration": 1.4842799999999983,
          "durationTicks": 950,
          "midi": 75,
          "name": "D#5",
          "ticks": 16320,
          "time": 25.498368,
          "velocity": 0.2677165354330709
        },
        {
          "duration": 1.476467999999997,
          "durationTicks": 945,
          "midi": 74,
          "name": "D5",
          "ticks": 17280,
          "time": 26.998272,
          "velocity": 0.2677165354330709
        },
        {
          "duration": 1.4842799999999983,
          "durationTicks": 950,
          "midi": 75,
          "name": "D#5",
          "ticks": 18240,
          "time": 28.498175999999997,
          "velocity": 0.2677165354330709
        },
        {
          "duration": 1.4764680000000006,
          "durationTicks": 945,
          "midi": 77,
          "name": "F5",
          "ticks": 19200,
          "time": 29.998079999999998,
          "velocity": 0.2677165354330709
        },
        {
          "duration": 1.4842799999999947,
          "durationTicks": 950,
          "midi": 75,
          "name": "D#5",
          "ticks": 20160,
          "time": 31.497984,
          "velocity": 0.2677165354330709
        },
        {
          "duration": 1.476468000000004,
          "durationTicks": 945,
          "midi": 74,
          "name": "D5",
          "ticks": 21120,
          "time": 32.997887999999996,
          "velocity": 0.2677165354330709
        },
        {
          "duration": 1.4842799999999983,
          "durationTicks": 950,
          "midi": 75,
          "name": "D#5",
          "ticks": 22080,
          "time": 34.497792,
          "velocity": 0.2677165354330709
        },
        {
          "duration": 1.476467999999997,
          "durationTicks": 945,
          "midi": 77,
          "name": "F5",
          "ticks": 23040,
          "time": 35.997696,
          "velocity": 0.2677165354330709
        },
        {
          "duration": 1.476467999999997,
          "durationTicks": 945,
          "midi": 75,
          "name": "D#5",
          "ticks": 24000,
          "time": 37.4976,
          "velocity": 0.2677165354330709
        },
        {
          "duration": 1.476467999999997,
          "durationTicks": 945,
          "midi": 74,
          "name": "D5",
          "ticks": 24960,
          "time": 38.997504,
          "velocity": 0.2677165354330709
        },
        {
          "duration": 1.4842799999999983,
          "durationTicks": 950,
          "midi": 75,
          "name": "D#5",
          "ticks": 25920,
          "time": 40.497408,
          "velocity": 0.2677165354330709
        },
        {
          "duration": 1.476468000000004,
          "durationTicks": 945,
          "midi": 77,
          "name": "F5",
          "ticks": 26880,
          "time": 41.997311999999994,
          "velocity": 0.2677165354330709
        },
        {
          "duration": 1.4842799999999983,
          "durationTicks": 950,
          "midi": 75,
          "name": "D#5",
          "ticks": 27840,
          "time": 43.497215999999995,
          "velocity": 0.2677165354330709
        },
        {
          "duration": 2.8904400000000052,
          "durationTicks": 1850,
          "midi": 70,
          "name": "A#4",
          "ticks": 36480,
          "time": 56.996351999999995,
          "velocity": 0.4094488188976378
        },
        {
          "duration": 5.460588000000001,
          "durationTicks": 3495,
          "midi": 72,
          "name": "C5",
          "ticks": 38760,
          "time": 60.558623999999995,
          "velocity": 0.4094488188976378
        },
        {
          "duration": 1.8826920000000058,
          "durationTicks": 1205,
          "midi": 70,
          "name": "A#4",
          "ticks": 42240,
          "time": 65.99577599999999,
          "velocity": 0.4094488188976378
        },
        {
          "duration": 1.445219999999992,
          "durationTicks": 925,
          "midi": 67,
          "name": "G4",
          "ticks": 44160,
          "time": 68.995584,
          "velocity": 0.5354330708661418
        },
        {
          "duration": 1.476467999999997,
          "durationTicks": 945,
          "midi": 69,
          "name": "A4",
          "ticks": 45120,
          "time": 70.495488,
          "velocity": 0.5039370078740157
        },
        {
          "duration": 1.4842799999999983,
          "durationTicks": 950,
          "midi": 70,
          "name": "A#4",
          "ticks": 46080,
          "time": 71.995392,
          "velocity": 0.5196850393700787
        },
        {
          "duration": 1.5311520000000058,
          "durationTicks": 980,
          "midi": 69,
          "name": "A4",
          "ticks": 47040,
          "time": 73.495296,
          "velocity": 0.5039370078740157
        },
        {
          "duration": 1.4920919999999995,
          "durationTicks": 955,
          "midi": 67,
          "name": "G4",
          "ticks": 48000,
          "time": 74.9952,
          "velocity": 0.5196850393700787
        },
        {
          "duration": 1.538963999999993,
          "durationTicks": 985,
          "midi": 63,
          "name": "D#4",
          "ticks": 48960,
          "time": 76.495104,
          "velocity": 0.4251968503937008
        },
        {
          "duration": 1.4920919999999995,
          "durationTicks": 955,
          "midi": 62,
          "name": "D4",
          "ticks": 49920,
          "time": 77.995008,
          "velocity": 0.5669291338582677
        },
        {
          "duration": 1.445219999999992,
          "durationTicks": 925,
          "midi": 63,
          "name": "D#4",
          "ticks": 50880,
          "time": 79.494912,
          "velocity": 0.5511811023622047
        },
        {
          "duration": 1.4608439999999945,
          "durationTicks": 935,
          "midi": 65,
          "name": "F4",
          "ticks": 51840,
          "time": 80.994816,
          "velocity": 0.6771653543307087
        },
        {
          "duration": 1.3592879999999923,
          "durationTicks": 870,
          "midi": 63,
          "name": "D#4",
          "ticks": 52800,
          "time": 82.49472,
          "velocity": 0.5669291338582677
        },
        {
          "duration": 1.4764680000000112,
          "durationTicks": 945,
          "midi": 74,
          "name": "D5",
          "ticks": 53760,
          "time": 83.99462399999999,
          "velocity": 0.2677165354330709
        },
        {
          "duration": 1.4842800000000125,
          "durationTicks": 950,
          "midi": 75,
          "name": "D#5",
          "ticks": 54720,
          "time": 85.49452799999999,
          "velocity": 0.2677165354330709
        },
        {
          "duration": 1.4764680000000112,
          "durationTicks": 945,
          "midi": 77,
          "name": "F5",
          "ticks": 55680,
          "time": 86.99443199999999,
          "velocity": 0.2677165354330709
        },
        {
          "duration": 1.4842800000000125,
          "durationTicks": 950,
          "midi": 75,
          "name": "D#5",
          "ticks": 56640,
          "time": 88.49433599999999,
          "velocity": 0.2677165354330709
        },
        {
          "duration": 1.4686559999999957,
          "durationTicks": 940,
          "midi": 74,
          "name": "D5",
          "ticks": 57600,
          "time": 89.99423999999999,
          "velocity": 0.2677165354330709
        },
        {
          "duration": 1.4842800000000125,
          "durationTicks": 950,
          "midi": 75,
          "name": "D#5",
          "ticks": 58560,
          "time": 91.49414399999999,
          "velocity": 0.2677165354330709
        },
        {
          "duration": 1.4686559999999957,
          "durationTicks": 940,
          "midi": 77,
          "name": "F5",
          "ticks": 59520,
          "time": 92.99404799999999,
          "velocity": 0.2677165354330709
        },
        {
          "duration": 1.4842799999999983,
          "durationTicks": 950,
          "midi": 75,
          "name": "D#5",
          "ticks": 60480,
          "time": 94.493952,
          "velocity": 0.2677165354330709
        },
        {
          "duration": 1.4217840000000024,
          "durationTicks": 910,
          "midi": 70,
          "name": "A#4",
          "ticks": 61440,
          "time": 95.993856,
          "velocity": 0.49606299212598426
        },
        {
          "duration": 1.8983159999999941,
          "durationTicks": 1215,
          "midi": 72,
          "name": "C5",
          "ticks": 62400,
          "time": 97.49376,
          "velocity": 0.4645669291338583
        },
        {
          "duration": 0.6562080000000066,
          "durationTicks": 420,
          "midi": 67,
          "name": "G4",
          "ticks": 63840,
          "time": 99.74361599999999,
          "velocity": 0.7401574803149606
        },
        {
          "duration": 1.4452200000000062,
          "durationTicks": 925,
          "midi": 65,
          "name": "F4",
          "ticks": 64320,
          "time": 100.493568,
          "velocity": 0.6535433070866141
        },
        {
          "duration": 1.4374079999999907,
          "durationTicks": 920,
          "midi": 70,
          "name": "A#4",
          "ticks": 65280,
          "time": 101.993472,
          "velocity": 0.47244094488188976
        },
        {
          "duration": 1.4608439999999945,
          "durationTicks": 935,
          "midi": 75,
          "name": "D#5",
          "ticks": 66240,
          "time": 103.493376,
          "velocity": 0.47244094488188976
        },
        {
          "duration": 1.3514760000000052,
          "durationTicks": 865,
          "midi": 77,
          "name": "F5",
          "ticks": 67200,
          "time": 104.99328,
          "velocity": 0.4645669291338583
        },
        {
          "duration": 1.413971999999987,
          "durationTicks": 905,
          "midi": 75,
          "name": "D#5",
          "ticks": 68160,
          "time": 106.493184,
          "velocity": 0.4566929133858268
        },
        {
          "duration": 2.890439999999998,
          "durationTicks": 1850,
          "midi": 70,
          "name": "A#4",
          "ticks": 76800,
          "time": 119.99231999999999,
          "velocity": 0.4094488188976378
        },
        {
          "duration": 5.460588000000001,
          "durationTicks": 3495,
          "midi": 72,
          "name": "C5",
          "ticks": 79080,
          "time": 123.55459199999999,
          "velocity": 0.4094488188976378
        },
        {
          "duration": 1.8826919999999916,
          "durationTicks": 1205,
          "midi": 70,
          "name": "A#4",
          "ticks": 82560,
          "time": 128.99174399999998,
          "velocity": 0.4094488188976378
        },
        {
          "duration": 1.4452200000000062,
          "durationTicks": 925,
          "midi": 67,
          "name": "G4",
          "ticks": 84480,
          "time": 131.99155199999998,
          "velocity": 0.5354330708661418
        },
        {
          "duration": 1.46865600000001,
          "durationTicks": 940,
          "midi": 69,
          "name": "A4",
          "ticks": 85440,
          "time": 133.491456,
          "velocity": 0.5039370078740157
        },
        {
          "duration": 1.484279999999984,
          "durationTicks": 950,
          "midi": 70,
          "name": "A#4",
          "ticks": 86400,
          "time": 134.99136,
          "velocity": 0.5196850393700787
        },
        {
          "duration": 1.5311519999999916,
          "durationTicks": 980,
          "midi": 69,
          "name": "A4",
          "ticks": 87360,
          "time": 136.491264,
          "velocity": 0.5039370078740157
        },
        {
          "duration": 1.4920920000000137,
          "durationTicks": 955,
          "midi": 67,
          "name": "G4",
          "ticks": 88320,
          "time": 137.991168,
          "velocity": 0.5196850393700787
        },
        {
          "duration": 1.538963999999993,
          "durationTicks": 985,
          "midi": 63,
          "name": "D#4",
          "ticks": 89280,
          "time": 139.491072,
          "velocity": 0.4251968503937008
        },
        {
          "duration": 2.312352000000004,
          "durationTicks": 1480,
          "midi": 62,
          "name": "D4",
          "ticks": 90240,
          "time": 140.990976,
          "velocity": 0.5669291338582677
        },
        {
          "duration": 1.484279999999984,
          "durationTicks": 950,
          "midi": 74,
          "name": "D5",
          "ticks": 99840,
          "time": 155.990016,
          "velocity": 0.5433070866141733
        },
        {
          "duration": 1.4061599999999999,
          "durationTicks": 900,
          "midi": 77,
          "name": "F5",
          "ticks": 100800,
          "time": 157.48991999999998,
          "velocity": 0.5354330708661418
        },
        {
          "duration": 1.4999039999999866,
          "durationTicks": 960,
          "midi": 75,
          "name": "D#5",
          "ticks": 101760,
          "time": 158.989824,
          "velocity": 0.5354330708661418
        },
        {
          "duration": 1.5389640000000213,
          "durationTicks": 985,
          "midi": 74,
          "name": "D5",
          "ticks": 102720,
          "time": 160.48972799999999,
          "velocity": 0.5275590551181102
        },
        {
          "duration": 2.952935999999994,
          "durationTicks": 1890,
          "midi": 72,
          "name": "C5",
          "ticks": 103680,
          "time": 161.989632,
          "velocity": 0.5275590551181102
        },
        {
          "duration": 1.4764680000000112,
          "durationTicks": 945,
          "midi": 74,
          "name": "D5",
          "ticks": 107520,
          "time": 167.98924799999998,
          "velocity": 0.2677165354330709
        },
        {
          "duration": 1.484279999999984,
          "durationTicks": 950,
          "midi": 75,
          "name": "D#5",
          "ticks": 108480,
          "time": 169.489152,
          "velocity": 0.2677165354330709
        },
        {
          "duration": 1.4764680000000112,
          "durationTicks": 945,
          "midi": 77,
          "name": "F5",
          "ticks": 109440,
          "time": 170.98905599999998,
          "velocity": 0.2677165354330709
        },
        {
          "duration": 1.4764680000000112,
          "durationTicks": 945,
          "midi": 75,
          "name": "D#5",
          "ticks": 110400,
          "time": 172.48896,
          "velocity": 0.2677165354330709
        },
        {
          "duration": 1.4764680000000112,
          "durationTicks": 945,
          "midi": 74,
          "name": "D5",
          "ticks": 111360,
          "time": 173.98886399999998,
          "velocity": 0.2677165354330709
        },
        {
          "duration": 1.4764679999999828,
          "durationTicks": 945,
          "midi": 75,
          "name": "D#5",
          "ticks": 112320,
          "time": 175.488768,
          "velocity": 0.2677165354330709
        },
        {
          "duration": 1.46865600000001,
          "durationTicks": 940,
          "midi": 77,
          "name": "F5",
          "ticks": 113280,
          "time": 176.98867199999998,
          "velocity": 0.2677165354330709
        },
        {
          "duration": 1.4764679999999828,
          "durationTicks": 945,
          "midi": 75,
          "name": "D#5",
          "ticks": 114240,
          "time": 178.488576,
          "velocity": 0.2677165354330709
        },
        {
          "duration": 1.4295960000000036,
          "durationTicks": 915,
          "midi": 70,
          "name": "A#4",
          "ticks": 115200,
          "time": 179.98847999999998,
          "velocity": 0.49606299212598426
        },
        {
          "duration": 1.8983159999999941,
          "durationTicks": 1215,
          "midi": 72,
          "name": "C5",
          "ticks": 116160,
          "time": 181.488384,
          "velocity": 0.4645669291338583
        },
        {
          "duration": 0.6562079999999924,
          "durationTicks": 420,
          "midi": 67,
          "name": "G4",
          "ticks": 117600,
          "time": 183.73824,
          "velocity": 0.7401574803149606
        },
        {
          "duration": 1.5077159999999878,
          "durationTicks": 965,
          "midi": 65,
          "name": "F4",
          "ticks": 118080,
          "time": 184.488192,
          "velocity": 0.6535433070866141
        },
        {
          "duration": 1.437408000000005,
          "durationTicks": 920,
          "midi": 70,
          "name": "A#4",
          "ticks": 119040,
          "time": 185.98809599999998,
          "velocity": 0.47244094488188976
        },
        {
          "duration": 1.4608439999999803,
          "durationTicks": 935,
          "midi": 75,
          "name": "D#5",
          "ticks": 120000,
          "time": 187.488,
          "velocity": 0.47244094488188976
        },
        {
          "duration": 1.3592879999999923,
          "durationTicks": 870,
          "midi": 77,
          "name": "F5",
          "ticks": 120960,
          "time": 188.987904,
          "velocity": 0.4645669291338583
        },
        {
          "duration": 1.4139719999999727,
          "durationTicks": 905,
          "midi": 75,
          "name": "D#5",
          "ticks": 121920,
          "time": 190.487808,
          "velocity": 0.4566929133858268
        },
        {
          "duration": 2.8904400000000123,
          "durationTicks": 1850,
          "midi": 70,
          "name": "A#4",
          "ticks": 130560,
          "time": 203.986944,
          "velocity": 0.4094488188976378
        },
        {
          "duration": 5.460588000000001,
          "durationTicks": 3495,
          "midi": 72,
          "name": "C5",
          "ticks": 132840,
          "time": 207.54921599999997,
          "velocity": 0.4094488188976378
        },
        {
          "duration": 1.8826919999999916,
          "durationTicks": 1205,
          "midi": 70,
          "name": "A#4",
          "ticks": 136320,
          "time": 212.986368,
          "velocity": 0.4094488188976378
        },
        {
          "duration": 1.4452199999999777,
          "durationTicks": 925,
          "midi": 67,
          "name": "G4",
          "ticks": 138240,
          "time": 215.986176,
          "velocity": 0.6377952755905512
        },
        {
          "duration": 1.4764680000000112,
          "durationTicks": 945,
          "midi": 69,
          "name": "A4",
          "ticks": 139200,
          "time": 217.48608,
          "velocity": 0.6062992125984252
        },
        {
          "duration": 1.4842800000000125,
          "durationTicks": 950,
          "midi": 70,
          "name": "A#4",
          "ticks": 140160,
          "time": 218.98598399999997,
          "velocity": 0.6220472440944882
        },
        {
          "duration": 1.538963999999993,
          "durationTicks": 985,
          "midi": 69,
          "name": "A4",
          "ticks": 141120,
          "time": 220.485888,
          "velocity": 0.6062992125984252
        },
        {
          "duration": 1.4920919999999853,
          "durationTicks": 955,
          "midi": 67,
          "name": "G4",
          "ticks": 142080,
          "time": 221.98579199999998,
          "velocity": 0.6220472440944882
        },
        {
          "duration": 1.538963999999993,
          "durationTicks": 985,
          "midi": 63,
          "name": "D#4",
          "ticks": 143040,
          "time": 223.485696,
          "velocity": 0.5275590551181102
        },
        {
          "duration": 2.921687999999989,
          "durationTicks": 1870,
          "midi": 70,
          "name": "A#4",
          "ticks": 144000,
          "time": 224.98559999999998,
          "velocity": 0.5905511811023622
        },
        {
          "duration": 2.8904400000000123,
          "durationTicks": 1850,
          "midi": 72,
          "name": "C5",
          "ticks": 145920,
          "time": 227.98540799999998,
          "velocity": 0.47244094488188976
        },
        {
          "duration": 5.460588000000001,
          "durationTicks": 3495,
          "midi": 74,
          "name": "D5",
          "ticks": 148200,
          "time": 231.54767999999999,
          "velocity": 0.47244094488188976
        },
        {
          "duration": 1.88269200000002,
          "durationTicks": 1205,
          "midi": 72,
          "name": "C5",
          "ticks": 151680,
          "time": 236.98483199999998,
          "velocity": 0.47244094488188976
        },
        {
          "duration": 1.4452199999999777,
          "durationTicks": 925,
          "midi": 69,
          "name": "A4",
          "ticks": 153600,
          "time": 239.98463999999998,
          "velocity": 0.7007874015748031
        },
        {
          "duration": 1.46865600000001,
          "durationTicks": 940,
          "midi": 71,
          "name": "B4",
          "ticks": 154560,
          "time": 241.48454399999997,
          "velocity": 0.6692913385826772
        },
        {
          "duration": 1.4842800000000125,
          "durationTicks": 950,
          "midi": 72,
          "name": "C5",
          "ticks": 155520,
          "time": 242.984448,
          "velocity": 0.6850393700787402
        },
        {
          "duration": 1.538963999999993,
          "durationTicks": 985,
          "midi": 71,
          "name": "B4",
          "ticks": 156480,
          "time": 244.48435199999997,
          "velocity": 0.6692913385826772
        },
        {
          "duration": 1.4920919999999853,
          "durationTicks": 955,
          "midi": 69,
          "name": "A4",
          "ticks": 157440,
          "time": 245.984256,
          "velocity": 0.6850393700787402
        },
        {
          "duration": 1.538963999999993,
          "durationTicks": 985,
          "midi": 65,
          "name": "F4",
          "ticks": 158400,
          "time": 247.48415999999997,
          "velocity": 0.5905511811023622
        },
        {
          "duration": 2.913876000000016,
          "durationTicks": 1865,
          "midi": 72,
          "name": "C5",
          "ticks": 159360,
          "time": 248.984064,
          "velocity": 0.6535433070866141
        },
        {
          "duration": 2.8904400000000123,
          "durationTicks": 1850,
          "midi": 74,
          "name": "D5",
          "ticks": 161280,
          "time": 251.983872,
          "velocity": 0.47244094488188976
        },
        {
          "duration": 5.468400000000031,
          "durationTicks": 3500,
          "midi": 76,
          "name": "E5",
          "ticks": 163560,
          "time": 255.54614399999997,
          "velocity": 0.47244094488188976
        },
        {
          "duration": 1.874879999999962,
          "durationTicks": 1200,
          "midi": 74,
          "name": "D5",
          "ticks": 167040,
          "time": 260.983296,
          "velocity": 0.47244094488188976
        },
        {
          "duration": 1.4452200000000062,
          "durationTicks": 925,
          "midi": 71,
          "name": "B4",
          "ticks": 168960,
          "time": 263.98310399999997,
          "velocity": 0.7007874015748031
        },
        {
          "duration": 1.4842800000000125,
          "durationTicks": 950,
          "midi": 73,
          "name": "C#5",
          "ticks": 169920,
          "time": 265.483008,
          "velocity": 0.6692913385826772
        },
        {
          "duration": 1.4842800000000125,
          "durationTicks": 950,
          "midi": 74,
          "name": "D5",
          "ticks": 170880,
          "time": 266.982912,
          "velocity": 0.6850393700787402
        },
        {
          "duration": 1.5233400000000188,
          "durationTicks": 975,
          "midi": 73,
          "name": "C#5",
          "ticks": 171840,
          "time": 268.48281599999996,
          "velocity": 0.6692913385826772
        },
        {
          "duration": 1.4920920000000137,
          "durationTicks": 955,
          "midi": 71,
          "name": "B4",
          "ticks": 172800,
          "time": 269.98272,
          "velocity": 0.6850393700787402
        },
        {
          "duration": 1.5389639999999645,
          "durationTicks": 985,
          "midi": 67,
          "name": "G4",
          "ticks": 173760,
          "time": 271.482624,
          "velocity": 0.5905511811023622
        },
        {
          "duration": 1.4764679999999544,
          "durationTicks": 945,
          "midi": 74,
          "name": "D5",
          "ticks": 174720,
          "time": 272.982528,
          "velocity": 0.6535433070866141
        },
        {
          "duration": 1.4452200000000062,
          "durationTicks": 925,
          "midi": 71,
          "name": "B4",
          "ticks": 176640,
          "time": 275.982336,
          "velocity": 0.7007874015748031
        },
        {
          "duration": 1.4764680000000112,
          "durationTicks": 945,
          "midi": 73,
          "name": "C#5",
          "ticks": 177600,
          "time": 277.48224,
          "velocity": 0.6692913385826772
        },
        {
          "duration": 1.4842800000000125,
          "durationTicks": 950,
          "midi": 74,
          "name": "D5",
          "ticks": 178560,
          "time": 278.982144,
          "velocity": 0.6850393700787402
        },
        {
          "duration": 1.53115200000002,
          "durationTicks": 980,
          "midi": 73,
          "name": "C#5",
          "ticks": 179520,
          "time": 280.48204799999996,
          "velocity": 0.6692913385826772
        },
        {
          "duration": 1.4920920000000137,
          "durationTicks": 955,
          "midi": 71,
          "name": "B4",
          "ticks": 180480,
          "time": 281.981952,
          "velocity": 0.6850393700787402
        },
        {
          "duration": 1.5389639999999645,
          "durationTicks": 985,
          "midi": 67,
          "name": "G4",
          "ticks": 181440,
          "time": 283.481856,
          "velocity": 0.5905511811023622
        },
        {
          "duration": 1.4842800000000125,
          "durationTicks": 950,
          "midi": 74,
          "name": "D5",
          "ticks": 182400,
          "time": 284.98176,
          "velocity": 0.6535433070866141
        },
        {
          "duration": 1.4452200000000062,
          "durationTicks": 925,
          "midi": 71,
          "name": "B4",
          "ticks": 184320,
          "time": 287.981568,
          "velocity": 0.7007874015748031
        },
        {
          "duration": 1.4764680000000112,
          "durationTicks": 945,
          "midi": 73,
          "name": "C#5",
          "ticks": 185280,
          "time": 289.481472,
          "velocity": 0.6692913385826772
        },
        {
          "duration": 1.4842800000000125,
          "durationTicks": 950,
          "midi": 74,
          "name": "D5",
          "ticks": 186240,
          "time": 290.98137599999995,
          "velocity": 0.6850393700787402
        },
        {
          "duration": 1.53115200000002,
          "durationTicks": 980,
          "midi": 73,
          "name": "C#5",
          "ticks": 187200,
          "time": 292.48127999999997,
          "velocity": 0.6692913385826772
        },
        {
          "duration": 1.492091999999957,
          "durationTicks": 955,
          "midi": 71,
          "name": "B4",
          "ticks": 188160,
          "time": 293.981184,
          "velocity": 0.6850393700787402
        },
        {
          "duration": 1.5467759999999657,
          "durationTicks": 990,
          "midi": 67,
          "name": "G4",
          "ticks": 189120,
          "time": 295.481088,
          "velocity": 0.5905511811023622
        }
      ]
    },
    {
      "channel": 0,
      "controlChanges": {
        "0": [
          {
            "number": 0,
            "ticks": 655,
            "time": 1.023372,
            "value": 0
          }
        ],
        "32": [
          {
            "number": 32,
            "ticks": 660,
            "time": 1.0311839999999999,
            "value": 0
          }
        ]
      },
      "pitchBends": [],
      "instrument": {
        "family": "piano",
        "number": 0,
        "name": "acoustic grand piano"
      },
      "name": "       ",
      "notes": [],
      "endOfTrackTicks": 216960
    },
    {
      "channel": 7,
      "controlChanges": {
        "7": [
          {
            "number": 7,
            "ticks": 670,
            "time": 1.046808,
            "value": 0.6299212598425197
          }
        ],
        "10": [
          {
            "number": 10,
            "ticks": 670,
            "time": 1.046808,
            "value": 0.5039370078740157
          }
        ],
        "11": [
          {
            "number": 11,
            "ticks": 670,
            "time": 1.046808,
            "value": 1
          },
          {
            "number": 11,
            "ticks": 92190,
            "time": 144.037656,
            "value": 1
          },
          {
            "number": 11,
            "ticks": 93170,
            "time": 145.568808,
            "value": 0.9921259842519685
          },
          {
            "number": 11,
            "ticks": 94150,
            "time": 147.09996,
            "value": 0.984251968503937
          },
          {
            "number": 11,
            "ticks": 94180,
            "time": 147.146832,
            "value": 0.9763779527559056
          },
          {
            "number": 11,
            "ticks": 94210,
            "time": 147.193704,
            "value": 0.9606299212598425
          },
          {
            "number": 11,
            "ticks": 94240,
            "time": 147.240576,
            "value": 0.952755905511811
          },
          {
            "number": 11,
            "ticks": 94270,
            "time": 147.28744799999998,
            "value": 0.937007874015748
          },
          {
            "number": 11,
            "ticks": 94300,
            "time": 147.33432,
            "value": 0.9291338582677166
          },
          {
            "number": 11,
            "ticks": 94330,
            "time": 147.381192,
            "value": 0.9133858267716536
          },
          {
            "number": 11,
            "ticks": 94360,
            "time": 147.428064,
            "value": 0.905511811023622
          },
          {
            "number": 11,
            "ticks": 94390,
            "time": 147.47493599999999,
            "value": 0.889763779527559
          },
          {
            "number": 11,
            "ticks": 94420,
            "time": 147.521808,
            "value": 0.8818897637795275
          },
          {
            "number": 11,
            "ticks": 94450,
            "time": 147.56868,
            "value": 0.8661417322834646
          },
          {
            "number": 11,
            "ticks": 94480,
            "time": 147.615552,
            "value": 0.8582677165354331
          },
          {
            "number": 11,
            "ticks": 94510,
            "time": 147.662424,
            "value": 0.84251968503937
          },
          {
            "number": 11,
            "ticks": 94540,
            "time": 147.709296,
            "value": 0.8346456692913385
          },
          {
            "number": 11,
            "ticks": 94570,
            "time": 147.756168,
            "value": 0.8188976377952756
          },
          {
            "number": 11,
            "ticks": 94600,
            "time": 147.80304,
            "value": 0.8110236220472441
          },
          {
            "number": 11,
            "ticks": 94630,
            "time": 147.849912,
            "value": 0.7952755905511811
          },
          {
            "number": 11,
            "ticks": 94660,
            "time": 147.896784,
            "value": 0.7874015748031497
          },
          {
            "number": 11,
            "ticks": 94690,
            "time": 147.943656,
            "value": 0.7716535433070866
          },
          {
            "number": 11,
            "ticks": 94720,
            "time": 147.99052799999998,
            "value": 0.7637795275590551
          },
          {
            "number": 11,
            "ticks": 94750,
            "time": 148.0374,
            "value": 0.7480314960629921
          },
          {
            "number": 11,
            "ticks": 94780,
            "time": 148.084272,
            "value": 0.7401574803149606
          },
          {
            "number": 11,
            "ticks": 94810,
            "time": 148.131144,
            "value": 0.7244094488188977
          },
          {
            "number": 11,
            "ticks": 94840,
            "time": 148.17801599999999,
            "value": 0.7165354330708661
          },
          {
            "number": 11,
            "ticks": 94865,
            "time": 148.217076,
            "value": 0.7007874015748031
          },
          {
            "number": 11,
            "ticks": 94925,
            "time": 148.31081999999998,
            "value": 0.6850393700787402
          },
          {
            "number": 11,
            "ticks": 94930,
            "time": 148.318632,
            "value": 0.6771653543307087
          },
          {
            "number": 11,
            "ticks": 94960,
            "time": 148.365504,
            "value": 0.6692913385826772
          },
          {
            "number": 11,
            "ticks": 94990,
            "time": 148.412376,
            "value": 0.6535433070866141
          },
          {
            "number": 11,
            "ticks": 95020,
            "time": 148.459248,
            "value": 0.6456692913385826
          },
          {
            "number": 11,
            "ticks": 95050,
            "time": 148.50612,
            "value": 0.6299212598425197
          },
          {
            "number": 11,
            "ticks": 95080,
            "time": 148.552992,
            "value": 0.6220472440944882
          },
          {
            "number": 11,
            "ticks": 95110,
            "time": 148.599864,
            "value": 0.6062992125984252
          },
          {
            "number": 11,
            "ticks": 95140,
            "time": 148.646736,
            "value": 0.5984251968503937
          },
          {
            "number": 11,
            "ticks": 95170,
            "time": 148.693608,
            "value": 0.5826771653543307
          },
          {
            "number": 11,
            "ticks": 95200,
            "time": 148.74048,
            "value": 0.5748031496062992
          },
          {
            "number": 11,
            "ticks": 95230,
            "time": 148.787352,
            "value": 0.5590551181102362
          },
          {
            "number": 11,
            "ticks": 95260,
            "time": 148.834224,
            "value": 0.5511811023622047
          },
          {
            "number": 11,
            "ticks": 95290,
            "time": 148.88109599999999,
            "value": 0.5354330708661418
          },
          {
            "number": 11,
            "ticks": 95320,
            "time": 148.927968,
            "value": 0.5275590551181102
          },
          {
            "number": 11,
            "ticks": 95350,
            "time": 148.97484,
            "value": 0.5118110236220472
          },
          {
            "number": 11,
            "ticks": 95380,
            "time": 149.021712,
            "value": 0.5039370078740157
          },
          {
            "number": 11,
            "ticks": 95410,
            "time": 149.068584,
            "value": 0.4881889763779528
          },
          {
            "number": 11,
            "ticks": 95440,
            "time": 149.115456,
            "value": 0.48031496062992124
          },
          {
            "number": 11,
            "ticks": 95470,
            "time": 149.162328,
            "value": 0.4645669291338583
          },
          {
            "number": 11,
            "ticks": 95500,
            "time": 149.2092,
            "value": 0.4566929133858268
          },
          {
            "number": 11,
            "ticks": 95530,
            "time": 149.256072,
            "value": 0.4409448818897638
          },
          {
            "number": 11,
            "ticks": 95560,
            "time": 149.302944,
            "value": 0.4330708661417323
          },
          {
            "number": 11,
            "ticks": 95590,
            "time": 149.349816,
            "value": 0.41732283464566927
          },
          {
            "number": 11,
            "ticks": 95620,
            "time": 149.396688,
            "value": 0.4094488188976378
          },
          {
            "number": 11,
            "ticks": 95650,
            "time": 149.44356,
            "value": 0.3937007874015748
          },
          {
            "number": 11,
            "ticks": 95680,
            "time": 149.490432,
            "value": 0.3858267716535433
          },
          {
            "number": 11,
            "ticks": 95710,
            "time": 149.537304,
            "value": 0.3700787401574803
          },
          {
            "number": 11,
            "ticks": 95740,
            "time": 149.58417599999999,
            "value": 0.36220472440944884
          },
          {
            "number": 11,
            "ticks": 95770,
            "time": 149.631048,
            "value": 0.3464566929133858
          },
          {
            "number": 11,
            "ticks": 95800,
            "time": 149.67792,
            "value": 0.33858267716535434
          },
          {
            "number": 11,
            "ticks": 95830,
            "time": 149.724792,
            "value": 0.3228346456692913
          },
          {
            "number": 11,
            "ticks": 95860,
            "time": 149.771664,
            "value": 0.31496062992125984
          },
          {
            "number": 11,
            "ticks": 95890,
            "time": 149.818536,
            "value": 0.2992125984251969
          },
          {
            "number": 11,
            "ticks": 95905,
            "time": 149.841972,
            "value": 0.47244094488188976
          },
          {
            "number": 11,
            "ticks": 95920,
            "time": 149.865408,
            "value": 0.6456692913385826
          },
          {
            "number": 11,
            "ticks": 95935,
            "time": 149.888844,
            "value": 0.8188976377952756
          },
          {
            "number": 11,
            "ticks": 95950,
            "time": 149.91228,
            "value": 1
          },
          {
            "number": 11,
            "ticks": 96970,
            "time": 151.505928,
            "value": 0.9921259842519685
          },
          {
            "number": 11,
            "ticks": 97990,
            "time": 153.09957599999998,
            "value": 0.984251968503937
          },
          {
            "number": 11,
            "ticks": 98020,
            "time": 153.146448,
            "value": 0.9763779527559056
          },
          {
            "number": 11,
            "ticks": 98050,
            "time": 153.19332,
            "value": 0.9606299212598425
          },
          {
            "number": 11,
            "ticks": 98080,
            "time": 153.240192,
            "value": 0.952755905511811
          },
          {
            "number": 11,
            "ticks": 98110,
            "time": 153.287064,
            "value": 0.937007874015748
          },
          {
            "number": 11,
            "ticks": 98140,
            "time": 153.333936,
            "value": 0.9291338582677166
          },
          {
            "number": 11,
            "ticks": 98170,
            "time": 153.380808,
            "value": 0.9133858267716536
          },
          {
            "number": 11,
            "ticks": 98200,
            "time": 153.42768,
            "value": 0.905511811023622
          },
          {
            "number": 11,
            "ticks": 98230,
            "time": 153.474552,
            "value": 0.889763779527559
          },
          {
            "number": 11,
            "ticks": 98260,
            "time": 153.521424,
            "value": 0.8818897637795275
          },
          {
            "number": 11,
            "ticks": 98285,
            "time": 153.56048399999997,
            "value": 0.8661417322834646
          },
          {
            "number": 11,
            "ticks": 98345,
            "time": 153.654228,
            "value": 0.8503937007874016
          },
          {
            "number": 11,
            "ticks": 98350,
            "time": 153.66204,
            "value": 0.84251968503937
          },
          {
            "number": 11,
            "ticks": 98380,
            "time": 153.708912,
            "value": 0.8346456692913385
          },
          {
            "number": 11,
            "ticks": 98410,
            "time": 153.755784,
            "value": 0.8188976377952756
          },
          {
            "number": 11,
            "ticks": 98440,
            "time": 153.80265599999998,
            "value": 0.8110236220472441
          },
          {
            "number": 11,
            "ticks": 98470,
            "time": 153.849528,
            "value": 0.7952755905511811
          },
          {
            "number": 11,
            "ticks": 98500,
            "time": 153.8964,
            "value": 0.7874015748031497
          },
          {
            "number": 11,
            "ticks": 98530,
            "time": 153.943272,
            "value": 0.7716535433070866
          },
          {
            "number": 11,
            "ticks": 98560,
            "time": 153.990144,
            "value": 0.7637795275590551
          },
          {
            "number": 11,
            "ticks": 98590,
            "time": 154.037016,
            "value": 0.7480314960629921
          },
          {
            "number": 11,
            "ticks": 98620,
            "time": 154.083888,
            "value": 0.7401574803149606
          },
          {
            "number": 11,
            "ticks": 98650,
            "time": 154.13076,
            "value": 0.7244094488188977
          },
          {
            "number": 11,
            "ticks": 98680,
            "time": 154.177632,
            "value": 0.7165354330708661
          },
          {
            "number": 11,
            "ticks": 98710,
            "time": 154.224504,
            "value": 0.7007874015748031
          },
          {
            "number": 11,
            "ticks": 98740,
            "time": 154.271376,
            "value": 0.6929133858267716
          },
          {
            "number": 11,
            "ticks": 98770,
            "time": 154.318248,
            "value": 0.6771653543307087
          },
          {
            "number": 11,
            "ticks": 98800,
            "time": 154.36512,
            "value": 0.6692913385826772
          },
          {
            "number": 11,
            "ticks": 98830,
            "time": 154.411992,
            "value": 0.6535433070866141
          },
          {
            "number": 11,
            "ticks": 98890,
            "time": 154.50573599999998,
            "value": 0.6377952755905512
          },
          {
            "number": 11,
            "ticks": 98895,
            "time": 154.513548,
            "value": 0.6299212598425197
          },
          {
            "number": 11,
            "ticks": 98925,
            "time": 154.56042,
            "value": 0.6220472440944882
          },
          {
            "number": 11,
            "ticks": 98950,
            "time": 154.59948,
            "value": 0.6062992125984252
          },
          {
            "number": 11,
            "ticks": 98980,
            "time": 154.646352,
            "value": 0.5984251968503937
          },
          {
            "number": 11,
            "ticks": 99010,
            "time": 154.693224,
            "value": 0.5826771653543307
          },
          {
            "number": 11,
            "ticks": 99040,
            "time": 154.740096,
            "value": 0.5748031496062992
          },
          {
            "number": 11,
            "ticks": 99070,
            "time": 154.786968,
            "value": 0.5590551181102362
          },
          {
            "number": 11,
            "ticks": 99100,
            "time": 154.83384,
            "value": 0.5511811023622047
          },
          {
            "number": 11,
            "ticks": 99130,
            "time": 154.880712,
            "value": 0.5354330708661418
          },
          {
            "number": 11,
            "ticks": 99160,
            "time": 154.927584,
            "value": 0.5275590551181102
          },
          {
            "number": 11,
            "ticks": 99190,
            "time": 154.974456,
            "value": 0.5118110236220472
          },
          {
            "number": 11,
            "ticks": 99220,
            "time": 155.021328,
            "value": 0.5039370078740157
          },
          {
            "number": 11,
            "ticks": 99250,
            "time": 155.0682,
            "value": 0.4881889763779528
          },
          {
            "number": 11,
            "ticks": 99280,
            "time": 155.115072,
            "value": 0.48031496062992124
          },
          {
            "number": 11,
            "ticks": 99310,
            "time": 155.161944,
            "value": 0.4645669291338583
          },
          {
            "number": 11,
            "ticks": 99340,
            "time": 155.20881599999998,
            "value": 0.4566929133858268
          },
          {
            "number": 11,
            "ticks": 99370,
            "time": 155.255688,
            "value": 0.4409448818897638
          },
          {
            "number": 11,
            "ticks": 99400,
            "time": 155.30256,
            "value": 0.4330708661417323
          },
          {
            "number": 11,
            "ticks": 99430,
            "time": 155.349432,
            "value": 0.41732283464566927
          },
          {
            "number": 11,
            "ticks": 99460,
            "time": 155.396304,
            "value": 0.4094488188976378
          },
          {
            "number": 11,
            "ticks": 99490,
            "time": 155.443176,
            "value": 0.3937007874015748
          },
          {
            "number": 11,
            "ticks": 99520,
            "time": 155.490048,
            "value": 0.3858267716535433
          },
          {
            "number": 11,
            "ticks": 99550,
            "time": 155.53692,
            "value": 0.3700787401574803
          },
          {
            "number": 11,
            "ticks": 99580,
            "time": 155.583792,
            "value": 0.36220472440944884
          },
          {
            "number": 11,
            "ticks": 99610,
            "time": 155.630664,
            "value": 0.3464566929133858
          },
          {
            "number": 11,
            "ticks": 99640,
            "time": 155.677536,
            "value": 0.33858267716535434
          },
          {
            "number": 11,
            "ticks": 99670,
            "time": 155.724408,
            "value": 0.3228346456692913
          },
          {
            "number": 11,
            "ticks": 99700,
            "time": 155.77128,
            "value": 0.31496062992125984
          },
          {
            "number": 11,
            "ticks": 99730,
            "time": 155.818152,
            "value": 0.2992125984251969
          },
          {
            "number": 11,
            "ticks": 99745,
            "time": 155.841588,
            "value": 0.4881889763779528
          },
          {
            "number": 11,
            "ticks": 99760,
            "time": 155.865024,
            "value": 0.6771653543307087
          },
          {
            "number": 11,
            "ticks": 99775,
            "time": 155.88846,
            "value": 0.8661417322834646
          },
          {
            "number": 11,
            "ticks": 99785,
            "time": 155.90408399999998,
            "value": 1
          }
        ],
        "91": [
          {
            "number": 91,
            "ticks": 675,
            "time": 1.05462,
            "value": 0.5118110236220472
          }
        ],
        "93": [
          {
            "number": 93,
            "ticks": 675,
            "time": 1.05462,
            "value": 0.4409448818897638
          }
        ]
      },
      "pitchBends": [
        {
          "ticks": 96025,
          "time": 150.02946,
          "value": -0.45458984375
        },
        {
          "ticks": 96033,
          "time": 150.04195919999998,
          "value": -0.416748046875
        },
        {
          "ticks": 96040,
          "time": 150.052896,
          "value": -0.37890625
        },
        {
          "ticks": 96048,
          "time": 150.06539519999998,
          "value": -0.341064453125
        },
        {
          "ticks": 96055,
          "time": 150.076332,
          "value": -0.30322265625
        },
        {
          "ticks": 96063,
          "time": 150.0888312,
          "value": -0.265380859375
        },
        {
          "ticks": 96070,
          "time": 150.099768,
          "value": -0.2274169921875
        },
        {
          "ticks": 96078,
          "time": 150.1122672,
          "value": -0.2047119140625
        },
        {
          "ticks": 96085,
          "time": 150.123204,
          "value": -0.1820068359375
        },
        {
          "ticks": 96093,
          "time": 150.1357032,
          "value": -0.1593017578125
        },
        {
          "ticks": 96100,
          "time": 150.14664,
          "value": -0.136474609375
        },
        {
          "ticks": 96108,
          "time": 150.1591392,
          "value": -0.11376953125
        },
        {
          "ticks": 96115,
          "time": 150.170076,
          "value": -0.091064453125
        },
        {
          "ticks": 96123,
          "time": 150.18257519999997,
          "value": -0.068359375
        },
        {
          "ticks": 96130,
          "time": 150.193512,
          "value": -0.0455322265625
        },
        {
          "ticks": 96138,
          "time": 150.20601119999998,
          "value": -0.0399169921875
        },
        {
          "ticks": 96145,
          "time": 150.216948,
          "value": -0.0341796875
        },
        {
          "ticks": 96153,
          "time": 150.22944719999998,
          "value": -0.028564453125
        },
        {
          "ticks": 96160,
          "time": 150.240384,
          "value": -0.0228271484375
        },
        {
          "ticks": 96168,
          "time": 150.25288319999999,
          "value": -0.01708984375
        },
        {
          "ticks": 96175,
          "time": 150.26382,
          "value": -0.011474609375
        },
        {
          "ticks": 96183,
          "time": 150.2763192,
          "value": -0.0057373046875
        },
        {
          "ticks": 96190,
          "time": 150.28725599999999,
          "value": 0
        },
        {
          "ticks": 96198,
          "time": 150.2997552,
          "value": -0.00146484375
        },
        {
          "ticks": 96205,
          "time": 150.310692,
          "value": -0.0030517578125
        },
        {
          "ticks": 96213,
          "time": 150.3231912,
          "value": -0.004638671875
        },
        {
          "ticks": 96220,
          "time": 150.334128,
          "value": -0.0062255859375
        },
        {
          "ticks": 96228,
          "time": 150.34662719999997,
          "value": -0.0076904296875
        },
        {
          "ticks": 96235,
          "time": 150.357564,
          "value": -0.00927734375
        },
        {
          "ticks": 96243,
          "time": 150.37006319999998,
          "value": -0.0108642578125
        },
        {
          "ticks": 96250,
          "time": 150.381,
          "value": -0.012451171875
        },
        {
          "ticks": 96258,
          "time": 150.39349919999998,
          "value": -0.013916015625
        },
        {
          "ticks": 96265,
          "time": 150.404436,
          "value": -0.0155029296875
        },
        {
          "ticks": 96273,
          "time": 150.41693519999998,
          "value": -0.01708984375
        },
        {
          "ticks": 96280,
          "time": 150.427872,
          "value": -0.0186767578125
        },
        {
          "ticks": 96288,
          "time": 150.4403712,
          "value": -0.020263671875
        },
        {
          "ticks": 96295,
          "time": 150.451308,
          "value": -0.021728515625
        },
        {
          "ticks": 96303,
          "time": 150.4638072,
          "value": -0.0233154296875
        },
        {
          "ticks": 96310,
          "time": 150.474744,
          "value": -0.02490234375
        },
        {
          "ticks": 96318,
          "time": 150.4872432,
          "value": -0.0264892578125
        },
        {
          "ticks": 96325,
          "time": 150.49818,
          "value": -0.0279541015625
        },
        {
          "ticks": 96333,
          "time": 150.5106792,
          "value": -0.029541015625
        },
        {
          "ticks": 96340,
          "time": 150.521616,
          "value": -0.0311279296875
        },
        {
          "ticks": 96348,
          "time": 150.53411519999997,
          "value": -0.03271484375
        },
        {
          "ticks": 96355,
          "time": 150.545052,
          "value": -0.0341796875
        },
        {
          "ticks": 96363,
          "time": 150.55755119999998,
          "value": -0.0357666015625
        },
        {
          "ticks": 96370,
          "time": 150.568488,
          "value": -0.037353515625
        },
        {
          "ticks": 96378,
          "time": 150.58098719999998,
          "value": -0.0389404296875
        },
        {
          "ticks": 96385,
          "time": 150.591924,
          "value": -0.04052734375
        },
        {
          "ticks": 96393,
          "time": 150.60442319999999,
          "value": -0.0419921875
        },
        {
          "ticks": 96400,
          "time": 150.61536,
          "value": -0.0435791015625
        },
        {
          "ticks": 96408,
          "time": 150.6278592,
          "value": -0.045166015625
        },
        {
          "ticks": 96415,
          "time": 150.63879599999999,
          "value": -0.0467529296875
        },
        {
          "ticks": 96423,
          "time": 150.6512952,
          "value": -0.0482177734375
        },
        {
          "ticks": 96430,
          "time": 150.662232,
          "value": -0.0498046875
        },
        {
          "ticks": 96438,
          "time": 150.6747312,
          "value": -0.0513916015625
        },
        {
          "ticks": 96445,
          "time": 150.685668,
          "value": -0.052978515625
        },
        {
          "ticks": 96453,
          "time": 150.69816719999997,
          "value": -0.0545654296875
        },
        {
          "ticks": 96460,
          "time": 150.709104,
          "value": -0.0560302734375
        },
        {
          "ticks": 96468,
          "time": 150.72160319999998,
          "value": -0.0576171875
        },
        {
          "ticks": 96475,
          "time": 150.73254,
          "value": -0.0592041015625
        },
        {
          "ticks": 96483,
          "time": 150.74503919999998,
          "value": -0.060791015625
        },
        {
          "ticks": 96490,
          "time": 150.755976,
          "value": -0.062255859375
        },
        {
          "ticks": 96498,
          "time": 150.76847519999998,
          "value": -0.0638427734375
        },
        {
          "ticks": 96505,
          "time": 150.779412,
          "value": -0.0654296875
        },
        {
          "ticks": 96513,
          "time": 150.7919112,
          "value": -0.0670166015625
        },
        {
          "ticks": 96520,
          "time": 150.802848,
          "value": -0.0684814453125
        },
        {
          "ticks": 96528,
          "time": 150.8153472,
          "value": -0.070068359375
        },
        {
          "ticks": 96535,
          "time": 150.826284,
          "value": -0.0716552734375
        },
        {
          "ticks": 96543,
          "time": 150.8387832,
          "value": -0.0732421875
        },
        {
          "ticks": 96550,
          "time": 150.84972,
          "value": -0.0748291015625
        },
        {
          "ticks": 96558,
          "time": 150.8622192,
          "value": -0.0762939453125
        },
        {
          "ticks": 96565,
          "time": 150.873156,
          "value": -0.077880859375
        },
        {
          "ticks": 96573,
          "time": 150.88565519999997,
          "value": -0.0794677734375
        },
        {
          "ticks": 96580,
          "time": 150.896592,
          "value": -0.0810546875
        },
        {
          "ticks": 96588,
          "time": 150.90909119999998,
          "value": -0.08251953125
        },
        {
          "ticks": 96595,
          "time": 150.920028,
          "value": -0.0841064453125
        },
        {
          "ticks": 96603,
          "time": 150.93252719999998,
          "value": -0.085693359375
        },
        {
          "ticks": 96610,
          "time": 150.943464,
          "value": -0.0872802734375
        },
        {
          "ticks": 96618,
          "time": 150.95596319999999,
          "value": -0.0887451171875
        },
        {
          "ticks": 96625,
          "time": 150.9669,
          "value": -0.09033203125
        },
        {
          "ticks": 96633,
          "time": 150.9793992,
          "value": -0.0919189453125
        },
        {
          "ticks": 96640,
          "time": 150.99033599999999,
          "value": -0.093505859375
        },
        {
          "ticks": 96648,
          "time": 151.0028352,
          "value": -0.0950927734375
        },
        {
          "ticks": 96655,
          "time": 151.013772,
          "value": -0.0965576171875
        },
        {
          "ticks": 96663,
          "time": 151.0262712,
          "value": -0.09814453125
        },
        {
          "ticks": 96670,
          "time": 151.037208,
          "value": -0.0997314453125
        },
        {
          "ticks": 96678,
          "time": 151.04970719999997,
          "value": -0.101318359375
        },
        {
          "ticks": 96685,
          "time": 151.060644,
          "value": -0.102783203125
        },
        {
          "ticks": 96693,
          "time": 151.07314319999998,
          "value": -0.1043701171875
        },
        {
          "ticks": 96700,
          "time": 151.08408,
          "value": -0.10595703125
        },
        {
          "ticks": 96708,
          "time": 151.09657919999998,
          "value": -0.1075439453125
        },
        {
          "ticks": 96715,
          "time": 151.107516,
          "value": -0.109130859375
        },
        {
          "ticks": 96723,
          "time": 151.12001519999998,
          "value": -0.110595703125
        },
        {
          "ticks": 96730,
          "time": 151.130952,
          "value": -0.1121826171875
        },
        {
          "ticks": 96738,
          "time": 151.1434512,
          "value": -0.11376953125
        },
        {
          "ticks": 96745,
          "time": 151.154388,
          "value": -0.1153564453125
        },
        {
          "ticks": 96753,
          "time": 151.1668872,
          "value": -0.1168212890625
        },
        {
          "ticks": 96760,
          "time": 151.177824,
          "value": -0.118408203125
        },
        {
          "ticks": 96768,
          "time": 151.1903232,
          "value": -0.1199951171875
        },
        {
          "ticks": 96775,
          "time": 151.20126,
          "value": -0.12158203125
        },
        {
          "ticks": 96783,
          "time": 151.2137592,
          "value": -0.123046875
        },
        {
          "ticks": 96790,
          "time": 151.224696,
          "value": -0.1246337890625
        },
        {
          "ticks": 96798,
          "time": 151.23719519999997,
          "value": -0.126220703125
        },
        {
          "ticks": 96805,
          "time": 151.248132,
          "value": -0.1278076171875
        },
        {
          "ticks": 96813,
          "time": 151.26063119999998,
          "value": -0.12939453125
        },
        {
          "ticks": 96820,
          "time": 151.271568,
          "value": -0.130859375
        },
        {
          "ticks": 96828,
          "time": 151.28406719999998,
          "value": -0.1324462890625
        },
        {
          "ticks": 96835,
          "time": 151.295004,
          "value": -0.134033203125
        },
        {
          "ticks": 96843,
          "time": 151.30750319999999,
          "value": -0.1356201171875
        },
        {
          "ticks": 96850,
          "time": 151.31844,
          "value": -0.1370849609375
        },
        {
          "ticks": 96858,
          "time": 151.3309392,
          "value": -0.138671875
        },
        {
          "ticks": 96865,
          "time": 151.34187599999998,
          "value": -0.1402587890625
        },
        {
          "ticks": 96873,
          "time": 151.3543752,
          "value": -0.141845703125
        },
        {
          "ticks": 96880,
          "time": 151.365312,
          "value": -0.143310546875
        },
        {
          "ticks": 96888,
          "time": 151.3778112,
          "value": -0.1448974609375
        },
        {
          "ticks": 96895,
          "time": 151.388748,
          "value": -0.146484375
        },
        {
          "ticks": 96903,
          "time": 151.4012472,
          "value": -0.1480712890625
        },
        {
          "ticks": 96910,
          "time": 151.412184,
          "value": -0.149658203125
        },
        {
          "ticks": 96918,
          "time": 151.42468319999998,
          "value": -0.151123046875
        },
        {
          "ticks": 96925,
          "time": 151.43562,
          "value": -0.1527099609375
        },
        {
          "ticks": 96933,
          "time": 151.44811919999998,
          "value": -0.154296875
        },
        {
          "ticks": 96940,
          "time": 151.459056,
          "value": -0.1558837890625
        },
        {
          "ticks": 96948,
          "time": 151.47155519999998,
          "value": -0.1573486328125
        },
        {
          "ticks": 96955,
          "time": 151.482492,
          "value": -0.158935546875
        },
        {
          "ticks": 96963,
          "time": 151.4949912,
          "value": -0.1605224609375
        },
        {
          "ticks": 96970,
          "time": 151.505928,
          "value": -0.162109375
        },
        {
          "ticks": 96978,
          "time": 151.5184272,
          "value": -0.1636962890625
        },
        {
          "ticks": 96985,
          "time": 151.529364,
          "value": -0.1651611328125
        },
        {
          "ticks": 96993,
          "time": 151.5418632,
          "value": -0.166748046875
        },
        {
          "ticks": 97000,
          "time": 151.5528,
          "value": -0.1683349609375
        },
        {
          "ticks": 97008,
          "time": 151.5652992,
          "value": -0.169921875
        },
        {
          "ticks": 97015,
          "time": 151.576236,
          "value": -0.17138671875
        },
        {
          "ticks": 97023,
          "time": 151.58873519999997,
          "value": -0.1729736328125
        },
        {
          "ticks": 97030,
          "time": 151.599672,
          "value": -0.174560546875
        },
        {
          "ticks": 97038,
          "time": 151.61217119999998,
          "value": -0.1761474609375
        },
        {
          "ticks": 97045,
          "time": 151.623108,
          "value": -0.1776123046875
        },
        {
          "ticks": 97053,
          "time": 151.63560719999998,
          "value": -0.17919921875
        },
        {
          "ticks": 97060,
          "time": 151.646544,
          "value": -0.1807861328125
        },
        {
          "ticks": 97068,
          "time": 151.65904319999999,
          "value": -0.182373046875
        },
        {
          "ticks": 97075,
          "time": 151.66998,
          "value": -0.1839599609375
        },
        {
          "ticks": 97083,
          "time": 151.6824792,
          "value": -0.1854248046875
        },
        {
          "ticks": 97090,
          "time": 151.69341599999998,
          "value": -0.18701171875
        },
        {
          "ticks": 97098,
          "time": 151.7059152,
          "value": -0.1885986328125
        },
        {
          "ticks": 97105,
          "time": 151.716852,
          "value": -0.190185546875
        },
        {
          "ticks": 97113,
          "time": 151.7293512,
          "value": -0.191650390625
        },
        {
          "ticks": 97120,
          "time": 151.740288,
          "value": -0.1932373046875
        },
        {
          "ticks": 97128,
          "time": 151.7527872,
          "value": -0.19482421875
        },
        {
          "ticks": 97135,
          "time": 151.763724,
          "value": -0.1964111328125
        },
        {
          "ticks": 97143,
          "time": 151.77622319999998,
          "value": -0.1978759765625
        },
        {
          "ticks": 97150,
          "time": 151.78716,
          "value": -0.199462890625
        },
        {
          "ticks": 97158,
          "time": 151.79965919999998,
          "value": -0.2010498046875
        },
        {
          "ticks": 97165,
          "time": 151.810596,
          "value": -0.20263671875
        },
        {
          "ticks": 97173,
          "time": 151.82309519999998,
          "value": -0.2042236328125
        },
        {
          "ticks": 97180,
          "time": 151.834032,
          "value": -0.2056884765625
        },
        {
          "ticks": 97188,
          "time": 151.8465312,
          "value": -0.207275390625
        },
        {
          "ticks": 97195,
          "time": 151.857468,
          "value": -0.2088623046875
        },
        {
          "ticks": 97203,
          "time": 151.8699672,
          "value": -0.21044921875
        },
        {
          "ticks": 97210,
          "time": 151.880904,
          "value": -0.2119140625
        },
        {
          "ticks": 97218,
          "time": 151.8934032,
          "value": -0.2135009765625
        },
        {
          "ticks": 97225,
          "time": 151.90434,
          "value": -0.215087890625
        },
        {
          "ticks": 97233,
          "time": 151.9168392,
          "value": -0.2166748046875
        },
        {
          "ticks": 97240,
          "time": 151.927776,
          "value": -0.21826171875
        },
        {
          "ticks": 97248,
          "time": 151.94027519999997,
          "value": -0.2197265625
        },
        {
          "ticks": 97255,
          "time": 151.951212,
          "value": -0.2213134765625
        },
        {
          "ticks": 97263,
          "time": 151.96371119999998,
          "value": -0.222900390625
        },
        {
          "ticks": 97270,
          "time": 151.974648,
          "value": -0.2244873046875
        },
        {
          "ticks": 97278,
          "time": 151.98714719999998,
          "value": -0.2259521484375
        },
        {
          "ticks": 97285,
          "time": 151.998084,
          "value": -0.2275390625
        },
        {
          "ticks": 97293,
          "time": 152.01058319999999,
          "value": -0.2291259765625
        },
        {
          "ticks": 97300,
          "time": 152.02152,
          "value": -0.230712890625
        },
        {
          "ticks": 97308,
          "time": 152.0340192,
          "value": -0.232177734375
        },
        {
          "ticks": 97315,
          "time": 152.04495599999998,
          "value": -0.2337646484375
        },
        {
          "ticks": 97323,
          "time": 152.0574552,
          "value": -0.2353515625
        },
        {
          "ticks": 97330,
          "time": 152.068392,
          "value": -0.2369384765625
        },
        {
          "ticks": 97338,
          "time": 152.0808912,
          "value": -0.238525390625
        },
        {
          "ticks": 97345,
          "time": 152.091828,
          "value": -0.239990234375
        },
        {
          "ticks": 97353,
          "time": 152.1043272,
          "value": -0.2415771484375
        },
        {
          "ticks": 97360,
          "time": 152.115264,
          "value": -0.2431640625
        },
        {
          "ticks": 97368,
          "time": 152.12776319999998,
          "value": -0.2447509765625
        },
        {
          "ticks": 97375,
          "time": 152.1387,
          "value": -0.2462158203125
        },
        {
          "ticks": 97383,
          "time": 152.15119919999998,
          "value": -0.247802734375
        },
        {
          "ticks": 97390,
          "time": 152.162136,
          "value": -0.2493896484375
        },
        {
          "ticks": 97398,
          "time": 152.17463519999998,
          "value": -0.2509765625
        },
        {
          "ticks": 97405,
          "time": 152.185572,
          "value": -0.25244140625
        },
        {
          "ticks": 97413,
          "time": 152.1980712,
          "value": -0.2540283203125
        },
        {
          "ticks": 97420,
          "time": 152.209008,
          "value": -0.255615234375
        },
        {
          "ticks": 97428,
          "time": 152.2215072,
          "value": -0.2572021484375
        },
        {
          "ticks": 97435,
          "time": 152.232444,
          "value": -0.2587890625
        },
        {
          "ticks": 97443,
          "time": 152.2449432,
          "value": -0.26025390625
        },
        {
          "ticks": 97450,
          "time": 152.25588,
          "value": -0.2618408203125
        },
        {
          "ticks": 97458,
          "time": 152.2683792,
          "value": -0.263427734375
        },
        {
          "ticks": 97465,
          "time": 152.279316,
          "value": -0.2650146484375
        },
        {
          "ticks": 97473,
          "time": 152.29181519999997,
          "value": -0.2664794921875
        },
        {
          "ticks": 97480,
          "time": 152.302752,
          "value": -0.26806640625
        },
        {
          "ticks": 97488,
          "time": 152.31525119999998,
          "value": -0.2696533203125
        },
        {
          "ticks": 97495,
          "time": 152.326188,
          "value": -0.271240234375
        },
        {
          "ticks": 97503,
          "time": 152.33868719999998,
          "value": -0.2728271484375
        },
        {
          "ticks": 97510,
          "time": 152.349624,
          "value": -0.2742919921875
        },
        {
          "ticks": 97518,
          "time": 152.36212319999998,
          "value": -0.27587890625
        },
        {
          "ticks": 97525,
          "time": 152.37306,
          "value": -0.2774658203125
        },
        {
          "ticks": 97533,
          "time": 152.3855592,
          "value": -0.279052734375
        },
        {
          "ticks": 97540,
          "time": 152.39649599999998,
          "value": -0.280517578125
        },
        {
          "ticks": 97548,
          "time": 152.4089952,
          "value": -0.2821044921875
        },
        {
          "ticks": 97555,
          "time": 152.419932,
          "value": -0.28369140625
        },
        {
          "ticks": 97563,
          "time": 152.4324312,
          "value": -0.2852783203125
        },
        {
          "ticks": 97570,
          "time": 152.443368,
          "value": -0.2867431640625
        },
        {
          "ticks": 97578,
          "time": 152.4558672,
          "value": -0.288330078125
        },
        {
          "ticks": 97585,
          "time": 152.466804,
          "value": -0.2899169921875
        },
        {
          "ticks": 97593,
          "time": 152.47930319999998,
          "value": -0.29150390625
        },
        {
          "ticks": 97600,
          "time": 152.49024,
          "value": -0.2930908203125
        },
        {
          "ticks": 97608,
          "time": 152.50273919999998,
          "value": -0.2945556640625
        },
        {
          "ticks": 97615,
          "time": 152.513676,
          "value": -0.296142578125
        },
        {
          "ticks": 97623,
          "time": 152.52617519999998,
          "value": -0.2977294921875
        },
        {
          "ticks": 97630,
          "time": 152.537112,
          "value": -0.29931640625
        },
        {
          "ticks": 97638,
          "time": 152.5496112,
          "value": -0.30078125
        },
        {
          "ticks": 97645,
          "time": 152.560548,
          "value": -0.3023681640625
        },
        {
          "ticks": 97653,
          "time": 152.5730472,
          "value": -0.303955078125
        },
        {
          "ticks": 97660,
          "time": 152.583984,
          "value": -0.3055419921875
        },
        {
          "ticks": 97668,
          "time": 152.5964832,
          "value": -0.3070068359375
        },
        {
          "ticks": 97675,
          "time": 152.60742,
          "value": -0.30859375
        },
        {
          "ticks": 97683,
          "time": 152.6199192,
          "value": -0.3101806640625
        },
        {
          "ticks": 97690,
          "time": 152.630856,
          "value": -0.311767578125
        },
        {
          "ticks": 97698,
          "time": 152.64335519999997,
          "value": -0.3133544921875
        },
        {
          "ticks": 97705,
          "time": 152.654292,
          "value": -0.3148193359375
        },
        {
          "ticks": 97713,
          "time": 152.66679119999998,
          "value": -0.31640625
        },
        {
          "ticks": 97720,
          "time": 152.677728,
          "value": -0.3179931640625
        },
        {
          "ticks": 97728,
          "time": 152.69022719999998,
          "value": -0.319580078125
        },
        {
          "ticks": 97735,
          "time": 152.701164,
          "value": -0.321044921875
        },
        {
          "ticks": 97743,
          "time": 152.71366319999998,
          "value": -0.3226318359375
        },
        {
          "ticks": 97750,
          "time": 152.7246,
          "value": -0.32421875
        },
        {
          "ticks": 97758,
          "time": 152.7370992,
          "value": -0.3258056640625
        },
        {
          "ticks": 97765,
          "time": 152.74803599999998,
          "value": -0.327392578125
        },
        {
          "ticks": 97773,
          "time": 152.7605352,
          "value": -0.328857421875
        },
        {
          "ticks": 97780,
          "time": 152.771472,
          "value": -0.3304443359375
        },
        {
          "ticks": 97788,
          "time": 152.7839712,
          "value": -0.33203125
        },
        {
          "ticks": 97795,
          "time": 152.794908,
          "value": -0.3336181640625
        },
        {
          "ticks": 97803,
          "time": 152.8074072,
          "value": -0.3350830078125
        },
        {
          "ticks": 97810,
          "time": 152.818344,
          "value": -0.336669921875
        },
        {
          "ticks": 97818,
          "time": 152.83084319999998,
          "value": -0.3382568359375
        },
        {
          "ticks": 97825,
          "time": 152.84178,
          "value": -0.33984375
        },
        {
          "ticks": 97833,
          "time": 152.85427919999998,
          "value": -0.34130859375
        },
        {
          "ticks": 97840,
          "time": 152.865216,
          "value": -0.3428955078125
        },
        {
          "ticks": 97848,
          "time": 152.87771519999998,
          "value": -0.344482421875
        },
        {
          "ticks": 97855,
          "time": 152.888652,
          "value": -0.3460693359375
        },
        {
          "ticks": 97863,
          "time": 152.9011512,
          "value": -0.34765625
        },
        {
          "ticks": 97870,
          "time": 152.912088,
          "value": -0.34912109375
        },
        {
          "ticks": 97878,
          "time": 152.9245872,
          "value": -0.3507080078125
        },
        {
          "ticks": 97885,
          "time": 152.935524,
          "value": -0.352294921875
        },
        {
          "ticks": 97893,
          "time": 152.9480232,
          "value": -0.3538818359375
        },
        {
          "ticks": 97900,
          "time": 152.95896,
          "value": -0.3553466796875
        },
        {
          "ticks": 97908,
          "time": 152.9714592,
          "value": -0.35693359375
        },
        {
          "ticks": 97915,
          "time": 152.982396,
          "value": -0.3585205078125
        },
        {
          "ticks": 97923,
          "time": 152.99489519999997,
          "value": -0.360107421875
        },
        {
          "ticks": 97930,
          "time": 153.005832,
          "value": -0.361572265625
        },
        {
          "ticks": 97938,
          "time": 153.01833119999998,
          "value": -0.3631591796875
        },
        {
          "ticks": 97940,
          "time": 153.02145599999997,
          "value": -0.36376953125
        },
        {
          "ticks": 97948,
          "time": 153.03395519999998,
          "value": -0.3365478515625
        },
        {
          "ticks": 97955,
          "time": 153.04489199999998,
          "value": -0.3092041015625
        },
        {
          "ticks": 97963,
          "time": 153.05739119999998,
          "value": -0.281982421875
        },
        {
          "ticks": 97970,
          "time": 153.06832799999998,
          "value": -0.254638671875
        },
        {
          "ticks": 97978,
          "time": 153.0808272,
          "value": -0.2274169921875
        },
        {
          "ticks": 97985,
          "time": 153.09176399999998,
          "value": -0.2000732421875
        },
        {
          "ticks": 97990,
          "time": 153.09957599999998,
          "value": -0.181884765625
        },
        {
          "ticks": 97998,
          "time": 153.1120752,
          "value": -0.1591796875
        },
        {
          "ticks": 98005,
          "time": 153.123012,
          "value": -0.136474609375
        },
        {
          "ticks": 98013,
          "time": 153.1355112,
          "value": -0.11376953125
        },
        {
          "ticks": 98020,
          "time": 153.146448,
          "value": -0.0909423828125
        },
        {
          "ticks": 98028,
          "time": 153.1589472,
          "value": -0.0682373046875
        },
        {
          "ticks": 98035,
          "time": 153.169884,
          "value": -0.0455322265625
        },
        {
          "ticks": 98043,
          "time": 153.18238319999998,
          "value": -0.0228271484375
        },
        {
          "ticks": 98050,
          "time": 153.19332,
          "value": 0
        }
      ],
      "instrument": {
        "family": "ensemble",
        "number": 52,
        "name": "choir aahs"
      },
      "name": "",
      "notes": [
        {
          "duration": 0.257795999999999,
          "durationTicks": 165,
          "midi": 63,
          "name": "D#4",
          "ticks": 36000,
          "time": 56.246399999999994,
          "velocity": 0.49606299212598426
        },
        {
          "duration": 0.10936799999999636,
          "durationTicks": 70,
          "midi": 63,
          "name": "D#4",
          "ticks": 36240,
          "time": 56.621376,
          "velocity": 0.48031496062992124
        },
        {
          "duration": 2.117052000000001,
          "durationTicks": 1355,
          "midi": 62,
          "name": "D4",
          "ticks": 36360,
          "time": 56.808864,
          "velocity": 0.5118110236220472
        },
        {
          "duration": 0.23436000000000234,
          "durationTicks": 150,
          "midi": 65,
          "name": "F4",
          "ticks": 37920,
          "time": 59.246207999999996,
          "velocity": 0.6062992125984252
        },
        {
          "duration": 0.08593199999999257,
          "durationTicks": 55,
          "midi": 65,
          "name": "F4",
          "ticks": 38160,
          "time": 59.621184,
          "velocity": 0.49606299212598426
        },
        {
          "duration": 0.07030800000000426,
          "durationTicks": 45,
          "midi": 65,
          "name": "F4",
          "ticks": 38280,
          "time": 59.808671999999994,
          "velocity": 0.48031496062992124
        },
        {
          "duration": 0.1015560000000022,
          "durationTicks": 65,
          "midi": 65,
          "name": "F4",
          "ticks": 38400,
          "time": 59.996159999999996,
          "velocity": 0.4645669291338583
        },
        {
          "duration": 0.19530000000000314,
          "durationTicks": 125,
          "midi": 67,
          "name": "G4",
          "ticks": 38520,
          "time": 60.183648,
          "velocity": 0.5590551181102362
        },
        {
          "duration": 1.9061280000000025,
          "durationTicks": 1220,
          "midi": 67,
          "name": "G4",
          "ticks": 38760,
          "time": 60.558623999999995,
          "velocity": 0.5590551181102362
        },
        {
          "duration": 0.27342000000000155,
          "durationTicks": 175,
          "midi": 67,
          "name": "G4",
          "ticks": 40080,
          "time": 62.620991999999994,
          "velocity": 0.6062992125984252
        },
        {
          "duration": 0.45309600000000216,
          "durationTicks": 290,
          "midi": 70,
          "name": "A#4",
          "ticks": 40320,
          "time": 62.995968,
          "velocity": 0.48031496062992124
        },
        {
          "duration": 0.41403599999999585,
          "durationTicks": 265,
          "midi": 70,
          "name": "A#4",
          "ticks": 40680,
          "time": 63.558431999999996,
          "velocity": 0.4645669291338583
        },
        {
          "duration": 0.31247999999999365,
          "durationTicks": 200,
          "midi": 70,
          "name": "A#4",
          "ticks": 41040,
          "time": 64.120896,
          "velocity": 0.4645669291338583
        },
        {
          "duration": 0.4218480000000113,
          "durationTicks": 270,
          "midi": 67,
          "name": "G4",
          "ticks": 41280,
          "time": 64.49587199999999,
          "velocity": 0.5590551181102362
        },
        {
          "duration": 0.4999679999999955,
          "durationTicks": 320,
          "midi": 67,
          "name": "G4",
          "ticks": 41640,
          "time": 65.058336,
          "velocity": 0.5590551181102362
        },
        {
          "duration": 0.3046679999999924,
          "durationTicks": 195,
          "midi": 70,
          "name": "A#4",
          "ticks": 42000,
          "time": 65.6208,
          "velocity": 0.4015748031496063
        },
        {
          "duration": 0.3281040000000104,
          "durationTicks": 210,
          "midi": 67,
          "name": "G4",
          "ticks": 42240,
          "time": 65.99577599999999,
          "velocity": 0.6535433070866141
        },
        {
          "duration": 0.1796760000000006,
          "durationTicks": 115,
          "midi": 65,
          "name": "F4",
          "ticks": 42480,
          "time": 66.370752,
          "velocity": 0.4645669291338583
        },
        {
          "duration": 0.1640519999999981,
          "durationTicks": 105,
          "midi": 65,
          "name": "F4",
          "ticks": 42720,
          "time": 66.745728,
          "velocity": 0.49606299212598426
        },
        {
          "duration": 0.31247999999999365,
          "durationTicks": 200,
          "midi": 67,
          "name": "G4",
          "ticks": 42840,
          "time": 66.933216,
          "velocity": 0.6062992125984252
        },
        {
          "duration": 0.8827560000000005,
          "durationTicks": 565,
          "midi": 65,
          "name": "F4",
          "ticks": 43080,
          "time": 67.30819199999999,
          "velocity": 0.5118110236220472
        },
        {
          "duration": 0.3281039999999962,
          "durationTicks": 210,
          "midi": 67,
          "name": "G4",
          "ticks": 43680,
          "time": 68.245632,
          "velocity": 0.49606299212598426
        },
        {
          "duration": 0.3671640000000025,
          "durationTicks": 235,
          "midi": 69,
          "name": "A4",
          "ticks": 43920,
          "time": 68.62060799999999,
          "velocity": 0.49606299212598426
        },
        {
          "duration": 0.2812319999999886,
          "durationTicks": 180,
          "midi": 74,
          "name": "D5",
          "ticks": 44640,
          "time": 69.745536,
          "velocity": 0.5118110236220472
        },
        {
          "duration": 0.24998399999999776,
          "durationTicks": 160,
          "midi": 70,
          "name": "A#4",
          "ticks": 44880,
          "time": 70.12051199999999,
          "velocity": 0.49606299212598426
        },
        {
          "duration": 0.47653200000000595,
          "durationTicks": 305,
          "midi": 72,
          "name": "C5",
          "ticks": 45000,
          "time": 70.30799999999999,
          "velocity": 0.4645669291338583
        },
        {
          "duration": 0.4687199999999905,
          "durationTicks": 300,
          "midi": 69,
          "name": "A4",
          "ticks": 45360,
          "time": 70.870464,
          "velocity": 0.4645669291338583
        },
        {
          "duration": 0.08593199999999968,
          "durationTicks": 55,
          "midi": 67,
          "name": "G4",
          "ticks": 45840,
          "time": 71.62041599999999,
          "velocity": 0.5118110236220472
        },
        {
          "duration": 0.10936800000000346,
          "durationTicks": 70,
          "midi": 67,
          "name": "G4",
          "ticks": 45960,
          "time": 71.807904,
          "velocity": 0.5118110236220472
        },
        {
          "duration": 0.2968559999999911,
          "durationTicks": 190,
          "midi": 70,
          "name": "A#4",
          "ticks": 46080,
          "time": 71.995392,
          "velocity": 0.49606299212598426
        },
        {
          "duration": 0.2890440000000041,
          "durationTicks": 185,
          "midi": 70,
          "name": "A#4",
          "ticks": 46440,
          "time": 72.557856,
          "velocity": 0.49606299212598426
        },
        {
          "duration": 0.08593199999999968,
          "durationTicks": 55,
          "midi": 70,
          "name": "A#4",
          "ticks": 46680,
          "time": 72.93283199999999,
          "velocity": 0.4330708661417323
        },
        {
          "duration": 0.1015560000000022,
          "durationTicks": 65,
          "midi": 70,
          "name": "A#4",
          "ticks": 46800,
          "time": 73.12031999999999,
          "velocity": 0.44881889763779526
        },
        {
          "duration": 0.23435999999999524,
          "durationTicks": 150,
          "midi": 69,
          "name": "A4",
          "ticks": 46920,
          "time": 73.307808,
          "velocity": 0.5118110236220472
        },
        {
          "duration": 0.8124479999999892,
          "durationTicks": 520,
          "midi": 69,
          "name": "A4",
          "ticks": 47160,
          "time": 73.682784,
          "velocity": 0.5590551181102362
        },
        {
          "duration": 0.08593199999999968,
          "durationTicks": 55,
          "midi": 65,
          "name": "F4",
          "ticks": 47760,
          "time": 74.620224,
          "velocity": 0.6535433070866141
        },
        {
          "duration": 0.07811999999999841,
          "durationTicks": 50,
          "midi": 65,
          "name": "F4",
          "ticks": 47880,
          "time": 74.807712,
          "velocity": 0.5118110236220472
        },
        {
          "duration": 0.14842799999999556,
          "durationTicks": 95,
          "midi": 65,
          "name": "F4",
          "ticks": 48000,
          "time": 74.9952,
          "velocity": 0.5118110236220472
        },
        {
          "duration": 0.23435999999999524,
          "durationTicks": 150,
          "midi": 63,
          "name": "D#4",
          "ticks": 48120,
          "time": 75.182688,
          "velocity": 0.5590551181102362
        },
        {
          "duration": 0.4296600000000126,
          "durationTicks": 275,
          "midi": 63,
          "name": "D#4",
          "ticks": 48360,
          "time": 75.55766399999999,
          "velocity": 0.49606299212598426
        },
        {
          "duration": 0.33591600000001165,
          "durationTicks": 215,
          "midi": 65,
          "name": "F4",
          "ticks": 48720,
          "time": 76.120128,
          "velocity": 0.5590551181102362
        },
        {
          "duration": 0.47653200000000595,
          "durationTicks": 305,
          "midi": 67,
          "name": "G4",
          "ticks": 48960,
          "time": 76.495104,
          "velocity": 0.6535433070866141
        },
        {
          "duration": 0.5155920000000123,
          "durationTicks": 330,
          "midi": 65,
          "name": "F4",
          "ticks": 49320,
          "time": 77.05756799999999,
          "velocity": 0.6062992125984252
        },
        {
          "duration": 0.33591599999999744,
          "durationTicks": 215,
          "midi": 63,
          "name": "D#4",
          "ticks": 49680,
          "time": 77.620032,
          "velocity": 0.4645669291338583
        },
        {
          "duration": 1.4999040000000008,
          "durationTicks": 960,
          "midi": 58,
          "name": "A#3",
          "ticks": 49920,
          "time": 77.995008,
          "velocity": 0.4330708661417323
        },
        {
          "duration": 0.257795999999999,
          "durationTicks": 165,
          "midi": 63,
          "name": "D#4",
          "ticks": 76320,
          "time": 119.242368,
          "velocity": 0.5511811023622047
        },
        {
          "duration": 0.10936800000001767,
          "durationTicks": 70,
          "midi": 63,
          "name": "D#4",
          "ticks": 76560,
          "time": 119.61734399999999,
          "velocity": 0.5354330708661418
        },
        {
          "duration": 2.117052000000001,
          "durationTicks": 1355,
          "midi": 62,
          "name": "D4",
          "ticks": 76680,
          "time": 119.80483199999999,
          "velocity": 0.5669291338582677
        },
        {
          "duration": 0.2265480000000082,
          "durationTicks": 145,
          "midi": 65,
          "name": "F4",
          "ticks": 78240,
          "time": 122.24217599999999,
          "velocity": 0.6614173228346457
        },
        {
          "duration": 0.08593200000001389,
          "durationTicks": 55,
          "midi": 65,
          "name": "F4",
          "ticks": 78480,
          "time": 122.61715199999999,
          "velocity": 0.5511811023622047
        },
        {
          "duration": 0.07030799999999715,
          "durationTicks": 45,
          "midi": 65,
          "name": "F4",
          "ticks": 78600,
          "time": 122.80463999999999,
          "velocity": 0.5354330708661418
        },
        {
          "duration": 0.10155599999998799,
          "durationTicks": 65,
          "midi": 65,
          "name": "F4",
          "ticks": 78720,
          "time": 122.992128,
          "velocity": 0.5196850393700787
        },
        {
          "duration": 0.19529999999998893,
          "durationTicks": 125,
          "midi": 67,
          "name": "G4",
          "ticks": 78840,
          "time": 123.179616,
          "velocity": 0.6141732283464567
        },
        {
          "duration": 1.9061279999999954,
          "durationTicks": 1220,
          "midi": 67,
          "name": "G4",
          "ticks": 79080,
          "time": 123.55459199999999,
          "velocity": 0.6141732283464567
        },
        {
          "duration": 0.27342000000000155,
          "durationTicks": 175,
          "midi": 67,
          "name": "G4",
          "ticks": 80400,
          "time": 125.61695999999999,
          "velocity": 0.6614173228346457
        },
        {
          "duration": 0.4609080000000034,
          "durationTicks": 295,
          "midi": 70,
          "name": "A#4",
          "ticks": 80640,
          "time": 125.991936,
          "velocity": 0.5354330708661418
        },
        {
          "duration": 0.4062239999999946,
          "durationTicks": 260,
          "midi": 70,
          "name": "A#4",
          "ticks": 81000,
          "time": 126.55439999999999,
          "velocity": 0.5196850393700787
        },
        {
          "duration": 0.31247999999999365,
          "durationTicks": 200,
          "midi": 70,
          "name": "A#4",
          "ticks": 81360,
          "time": 127.11686399999999,
          "velocity": 0.5196850393700787
        },
        {
          "duration": 0.4218479999999971,
          "durationTicks": 270,
          "midi": 67,
          "name": "G4",
          "ticks": 81600,
          "time": 127.49184,
          "velocity": 0.6141732283464567
        },
        {
          "duration": 0.4999679999999955,
          "durationTicks": 320,
          "midi": 67,
          "name": "G4",
          "ticks": 81960,
          "time": 128.054304,
          "velocity": 0.6141732283464567
        },
        {
          "duration": 0.3046680000000208,
          "durationTicks": 195,
          "midi": 70,
          "name": "A#4",
          "ticks": 82320,
          "time": 128.61676799999998,
          "velocity": 0.4566929133858268
        },
        {
          "duration": 0.3281039999999962,
          "durationTicks": 210,
          "midi": 67,
          "name": "G4",
          "ticks": 82560,
          "time": 128.99174399999998,
          "velocity": 0.7086614173228346
        },
        {
          "duration": 0.1796760000000006,
          "durationTicks": 115,
          "midi": 65,
          "name": "F4",
          "ticks": 82800,
          "time": 129.36672,
          "velocity": 0.5196850393700787
        },
        {
          "duration": 0.1640519999999981,
          "durationTicks": 105,
          "midi": 65,
          "name": "F4",
          "ticks": 83040,
          "time": 129.741696,
          "velocity": 0.5511811023622047
        },
        {
          "duration": 0.31247999999999365,
          "durationTicks": 200,
          "midi": 67,
          "name": "G4",
          "ticks": 83160,
          "time": 129.929184,
          "velocity": 0.6614173228346457
        },
        {
          "duration": 0.8827560000000005,
          "durationTicks": 565,
          "midi": 65,
          "name": "F4",
          "ticks": 83400,
          "time": 130.30416,
          "velocity": 0.5669291338582677
        },
        {
          "duration": 0.3281039999999962,
          "durationTicks": 210,
          "midi": 67,
          "name": "G4",
          "ticks": 84000,
          "time": 131.2416,
          "velocity": 0.5511811023622047
        },
        {
          "duration": 0.3593520000000012,
          "durationTicks": 230,
          "midi": 69,
          "name": "A4",
          "ticks": 84240,
          "time": 131.61657599999998,
          "velocity": 0.5511811023622047
        },
        {
          "duration": 0.2812319999999886,
          "durationTicks": 180,
          "midi": 74,
          "name": "D5",
          "ticks": 84960,
          "time": 132.741504,
          "velocity": 0.5669291338582677
        },
        {
          "duration": 0.24998400000001197,
          "durationTicks": 160,
          "midi": 70,
          "name": "A#4",
          "ticks": 85200,
          "time": 133.11648,
          "velocity": 0.5511811023622047
        },
        {
          "duration": 0.47653199999999174,
          "durationTicks": 305,
          "midi": 72,
          "name": "C5",
          "ticks": 85320,
          "time": 133.303968,
          "velocity": 0.5196850393700787
        },
        {
          "duration": 0.4687199999999905,
          "durationTicks": 300,
          "midi": 69,
          "name": "A4",
          "ticks": 85680,
          "time": 133.866432,
          "velocity": 0.5196850393700787
        },
        {
          "duration": 0.08593200000001389,
          "durationTicks": 55,
          "midi": 67,
          "name": "G4",
          "ticks": 86160,
          "time": 134.61638399999998,
          "velocity": 0.5669291338582677
        },
        {
          "duration": 0.10936800000001767,
          "durationTicks": 70,
          "midi": 67,
          "name": "G4",
          "ticks": 86280,
          "time": 134.80387199999998,
          "velocity": 0.5669291338582677
        },
        {
          "duration": 0.29685600000001955,
          "durationTicks": 190,
          "midi": 70,
          "name": "A#4",
          "ticks": 86400,
          "time": 134.99136,
          "velocity": 0.5511811023622047
        },
        {
          "duration": 0.2812319999999886,
          "durationTicks": 180,
          "midi": 70,
          "name": "A#4",
          "ticks": 86760,
          "time": 135.553824,
          "velocity": 0.5511811023622047
        },
        {
          "duration": 0.09374399999998673,
          "durationTicks": 60,
          "midi": 70,
          "name": "A#4",
          "ticks": 87000,
          "time": 135.9288,
          "velocity": 0.4881889763779528
        },
        {
          "duration": 0.10155599999998799,
          "durationTicks": 65,
          "midi": 70,
          "name": "A#4",
          "ticks": 87120,
          "time": 136.116288,
          "velocity": 0.5039370078740157
        },
        {
          "duration": 0.23435999999998103,
          "durationTicks": 150,
          "midi": 69,
          "name": "A4",
          "ticks": 87240,
          "time": 136.303776,
          "velocity": 0.5669291338582677
        },
        {
          "duration": 0.8124479999999892,
          "durationTicks": 520,
          "midi": 69,
          "name": "A4",
          "ticks": 87480,
          "time": 136.678752,
          "velocity": 0.6141732283464567
        },
        {
          "duration": 0.08593200000001389,
          "durationTicks": 55,
          "midi": 65,
          "name": "F4",
          "ticks": 88080,
          "time": 137.61619199999998,
          "velocity": 0.7086614173228346
        },
        {
          "duration": 0.0781199999999842,
          "durationTicks": 50,
          "midi": 65,
          "name": "F4",
          "ticks": 88200,
          "time": 137.80367999999999,
          "velocity": 0.5669291338582677
        },
        {
          "duration": 0.14842799999999556,
          "durationTicks": 95,
          "midi": 65,
          "name": "F4",
          "ticks": 88320,
          "time": 137.991168,
          "velocity": 0.5669291338582677
        },
        {
          "duration": 0.23436000000000945,
          "durationTicks": 150,
          "midi": 63,
          "name": "D#4",
          "ticks": 88440,
          "time": 138.178656,
          "velocity": 0.6141732283464567
        },
        {
          "duration": 0.42965999999998417,
          "durationTicks": 275,
          "midi": 63,
          "name": "D#4",
          "ticks": 88680,
          "time": 138.553632,
          "velocity": 0.5511811023622047
        },
        {
          "duration": 0.3437279999999987,
          "durationTicks": 220,
          "midi": 65,
          "name": "F4",
          "ticks": 89040,
          "time": 139.116096,
          "velocity": 0.6141732283464567
        },
        {
          "duration": 0.47653199999999174,
          "durationTicks": 305,
          "midi": 67,
          "name": "G4",
          "ticks": 89280,
          "time": 139.491072,
          "velocity": 0.7086614173228346
        },
        {
          "duration": 0.515591999999998,
          "durationTicks": 330,
          "midi": 65,
          "name": "F4",
          "ticks": 89640,
          "time": 140.05353599999998,
          "velocity": 0.6614173228346457
        },
        {
          "duration": 0.33591599999999744,
          "durationTicks": 215,
          "midi": 63,
          "name": "D#4",
          "ticks": 90000,
          "time": 140.61599999999999,
          "velocity": 0.5196850393700787
        },
        {
          "duration": 2.281103999999999,
          "durationTicks": 1460,
          "midi": 58,
          "name": "A#3",
          "ticks": 90240,
          "time": 140.990976,
          "velocity": 0.4881889763779528
        },
        {
          "duration": 2.976371999999998,
          "durationTicks": 1905,
          "midi": 60,
          "name": "C4",
          "ticks": 92160,
          "time": 143.990784,
          "velocity": 0.6771653543307087
        },
        {
          "duration": 2.976371999999998,
          "durationTicks": 1905,
          "midi": 63,
          "name": "D#4",
          "ticks": 92160,
          "time": 143.990784,
          "velocity": 0.5118110236220472
        },
        {
          "duration": 2.2186080000000175,
          "durationTicks": 1420,
          "midi": 68,
          "name": "G#4",
          "ticks": 92160,
          "time": 143.990784,
          "velocity": 0.5669291338582677
        },
        {
          "duration": 0.7499520000000075,
          "durationTicks": 480,
          "midi": 67,
          "name": "G4",
          "ticks": 93600,
          "time": 146.24063999999998,
          "velocity": 0.6299212598425197
        },
        {
          "duration": 2.702951999999982,
          "durationTicks": 1730,
          "midi": 58,
          "name": "A#3",
          "ticks": 94080,
          "time": 146.990592,
          "velocity": 0.49606299212598426
        },
        {
          "duration": 2.6170199999999966,
          "durationTicks": 1675,
          "midi": 62,
          "name": "D4",
          "ticks": 94080,
          "time": 146.990592,
          "velocity": 0.5984251968503937
        },
        {
          "duration": 2.6170199999999966,
          "durationTicks": 1675,
          "midi": 65,
          "name": "F4",
          "ticks": 94080,
          "time": 146.990592,
          "velocity": 0.49606299212598426
        },
        {
          "duration": 2.984183999999999,
          "durationTicks": 1910,
          "midi": 60,
          "name": "C4",
          "ticks": 96000,
          "time": 149.9904,
          "velocity": 0.6771653543307087
        },
        {
          "duration": 2.9998080000000016,
          "durationTicks": 1920,
          "midi": 63,
          "name": "D#4",
          "ticks": 96000,
          "time": 149.9904,
          "velocity": 0.6299212598425197
        },
        {
          "duration": 2.2342319999999916,
          "durationTicks": 1430,
          "midi": 68,
          "name": "G#4",
          "ticks": 96000,
          "time": 149.9904,
          "velocity": 0.5669291338582677
        },
        {
          "duration": 0.7499520000000075,
          "durationTicks": 480,
          "midi": 67,
          "name": "G4",
          "ticks": 97440,
          "time": 152.240256,
          "velocity": 0.6535433070866141
        },
        {
          "duration": 2.702951999999982,
          "durationTicks": 1730,
          "midi": 58,
          "name": "A#3",
          "ticks": 97920,
          "time": 152.990208,
          "velocity": 0.49606299212598426
        },
        {
          "duration": 2.6170199999999966,
          "durationTicks": 1675,
          "midi": 62,
          "name": "D4",
          "ticks": 97920,
          "time": 152.990208,
          "velocity": 0.6299212598425197
        },
        {
          "duration": 2.6092079999999953,
          "durationTicks": 1670,
          "midi": 65,
          "name": "F4",
          "ticks": 97920,
          "time": 152.990208,
          "velocity": 0.49606299212598426
        },
        {
          "duration": 0.76557600000001,
          "durationTicks": 490,
          "midi": 70,
          "name": "A#4",
          "ticks": 99840,
          "time": 155.990016,
          "velocity": 0.6771653543307087
        },
        {
          "duration": 0.23436000000000945,
          "durationTicks": 150,
          "midi": 69,
          "name": "A4",
          "ticks": 100320,
          "time": 156.73996799999998,
          "velocity": 0.6141732283464567
        },
        {
          "duration": 0.515591999999998,
          "durationTicks": 330,
          "midi": 70,
          "name": "A#4",
          "ticks": 100440,
          "time": 156.92745599999998,
          "velocity": 0.7480314960629921
        },
        {
          "duration": 0.5624640000000056,
          "durationTicks": 360,
          "midi": 69,
          "name": "A4",
          "ticks": 100800,
          "time": 157.48991999999998,
          "velocity": 0.7480314960629921
        },
        {
          "duration": 0.9374400000000094,
          "durationTicks": 600,
          "midi": 65,
          "name": "F4",
          "ticks": 101160,
          "time": 158.052384,
          "velocity": 0.6377952755905512
        },
        {
          "duration": 1.538963999999993,
          "durationTicks": 985,
          "midi": 63,
          "name": "D#4",
          "ticks": 101760,
          "time": 158.989824,
          "velocity": 0.6220472440944882
        },
        {
          "duration": 1.4530320000000074,
          "durationTicks": 930,
          "midi": 62,
          "name": "D4",
          "ticks": 102720,
          "time": 160.48972799999999,
          "velocity": 0.5905511811023622
        },
        {
          "duration": 2.8279440000000022,
          "durationTicks": 1810,
          "midi": 60,
          "name": "C4",
          "ticks": 103680,
          "time": 161.989632,
          "velocity": 0.4645669291338583
        },
        {
          "duration": 1.4842800000000125,
          "durationTicks": 950,
          "midi": 67,
          "name": "G4",
          "ticks": 122880,
          "time": 191.987712,
          "velocity": 0.33858267716535434
        },
        {
          "duration": 1.4530320000000074,
          "durationTicks": 930,
          "midi": 69,
          "name": "A4",
          "ticks": 123840,
          "time": 193.48761599999997,
          "velocity": 0.4094488188976378
        },
        {
          "duration": 1.5233399999999904,
          "durationTicks": 975,
          "midi": 70,
          "name": "A#4",
          "ticks": 124800,
          "time": 194.98752,
          "velocity": 0.4881889763779528
        },
        {
          "duration": 1.4764680000000112,
          "durationTicks": 945,
          "midi": 69,
          "name": "A4",
          "ticks": 125760,
          "time": 196.48742399999998,
          "velocity": 0.5039370078740157
        },
        {
          "duration": 0.25779600000001324,
          "durationTicks": 165,
          "midi": 63,
          "name": "D#4",
          "ticks": 130080,
          "time": 203.236992,
          "velocity": 0.5118110236220472
        },
        {
          "duration": 0.10936799999998925,
          "durationTicks": 70,
          "midi": 63,
          "name": "D#4",
          "ticks": 130320,
          "time": 203.611968,
          "velocity": 0.49606299212598426
        },
        {
          "duration": 2.117052000000001,
          "durationTicks": 1355,
          "midi": 62,
          "name": "D4",
          "ticks": 130440,
          "time": 203.799456,
          "velocity": 0.5275590551181102
        },
        {
          "duration": 0.22654799999997977,
          "durationTicks": 145,
          "midi": 65,
          "name": "F4",
          "ticks": 132000,
          "time": 206.2368,
          "velocity": 0.6220472440944882
        },
        {
          "duration": 0.08593199999998546,
          "durationTicks": 55,
          "midi": 65,
          "name": "F4",
          "ticks": 132240,
          "time": 206.611776,
          "velocity": 0.5118110236220472
        },
        {
          "duration": 0.07030799999998294,
          "durationTicks": 45,
          "midi": 65,
          "name": "F4",
          "ticks": 132360,
          "time": 206.799264,
          "velocity": 0.49606299212598426
        },
        {
          "duration": 0.10155600000001641,
          "durationTicks": 65,
          "midi": 65,
          "name": "F4",
          "ticks": 132480,
          "time": 206.986752,
          "velocity": 0.48031496062992124
        },
        {
          "duration": 0.19530000000000314,
          "durationTicks": 125,
          "midi": 67,
          "name": "G4",
          "ticks": 132600,
          "time": 207.17424,
          "velocity": 0.5748031496062992
        },
        {
          "duration": 1.9061280000000238,
          "durationTicks": 1220,
          "midi": 67,
          "name": "G4",
          "ticks": 132840,
          "time": 207.54921599999997,
          "velocity": 0.5748031496062992
        },
        {
          "duration": 0.27341999999998734,
          "durationTicks": 175,
          "midi": 67,
          "name": "G4",
          "ticks": 134160,
          "time": 209.611584,
          "velocity": 0.6220472440944882
        },
        {
          "duration": 0.4530960000000164,
          "durationTicks": 290,
          "midi": 70,
          "name": "A#4",
          "ticks": 134400,
          "time": 209.98656,
          "velocity": 0.49606299212598426
        },
        {
          "duration": 0.4062240000000372,
          "durationTicks": 260,
          "midi": 70,
          "name": "A#4",
          "ticks": 134760,
          "time": 210.54902399999997,
          "velocity": 0.48031496062992124
        },
        {
          "duration": 0.3046679999999924,
          "durationTicks": 195,
          "midi": 70,
          "name": "A#4",
          "ticks": 135120,
          "time": 211.11148799999998,
          "velocity": 0.48031496062992124
        },
        {
          "duration": 0.41403599999998164,
          "durationTicks": 265,
          "midi": 67,
          "name": "G4",
          "ticks": 135360,
          "time": 211.48646399999998,
          "velocity": 0.5748031496062992
        },
        {
          "duration": 0.49996800000002395,
          "durationTicks": 320,
          "midi": 67,
          "name": "G4",
          "ticks": 135720,
          "time": 212.048928,
          "velocity": 0.5748031496062992
        },
        {
          "duration": 0.3046679999999924,
          "durationTicks": 195,
          "midi": 70,
          "name": "A#4",
          "ticks": 136080,
          "time": 212.611392,
          "velocity": 0.41732283464566927
        },
        {
          "duration": 0.3281039999999962,
          "durationTicks": 210,
          "midi": 67,
          "name": "G4",
          "ticks": 136320,
          "time": 212.986368,
          "velocity": 0.6692913385826772
        },
        {
          "duration": 0.1796760000000006,
          "durationTicks": 115,
          "midi": 65,
          "name": "F4",
          "ticks": 136560,
          "time": 213.36134399999997,
          "velocity": 0.48031496062992124
        },
        {
          "duration": 0.1640519999999981,
          "durationTicks": 105,
          "midi": 65,
          "name": "F4",
          "ticks": 136800,
          "time": 213.73631999999998,
          "velocity": 0.5118110236220472
        },
        {
          "duration": 0.3124800000000221,
          "durationTicks": 200,
          "midi": 67,
          "name": "G4",
          "ticks": 136920,
          "time": 213.92380799999998,
          "velocity": 0.6220472440944882
        },
        {
          "duration": 0.8827560000000005,
          "durationTicks": 565,
          "midi": 65,
          "name": "F4",
          "ticks": 137160,
          "time": 214.29878399999998,
          "velocity": 0.5275590551181102
        },
        {
          "duration": 0.3281039999999962,
          "durationTicks": 210,
          "midi": 67,
          "name": "G4",
          "ticks": 137760,
          "time": 215.236224,
          "velocity": 0.5118110236220472
        },
        {
          "duration": 0.36716399999997407,
          "durationTicks": 235,
          "midi": 69,
          "name": "A4",
          "ticks": 138000,
          "time": 215.6112,
          "velocity": 0.5118110236220472
        },
        {
          "duration": 0.281232000000017,
          "durationTicks": 180,
          "midi": 74,
          "name": "D5",
          "ticks": 138720,
          "time": 216.73612799999998,
          "velocity": 0.5275590551181102
        },
        {
          "duration": 0.24998399999998355,
          "durationTicks": 160,
          "midi": 70,
          "name": "A#4",
          "ticks": 138960,
          "time": 217.11110399999998,
          "velocity": 0.5118110236220472
        },
        {
          "duration": 0.47653200000002016,
          "durationTicks": 305,
          "midi": 72,
          "name": "C5",
          "ticks": 139080,
          "time": 217.29859199999999,
          "velocity": 0.48031496062992124
        },
        {
          "duration": 0.4687199999999905,
          "durationTicks": 300,
          "midi": 69,
          "name": "A4",
          "ticks": 139440,
          "time": 217.861056,
          "velocity": 0.48031496062992124
        },
        {
          "duration": 0.08593199999998546,
          "durationTicks": 55,
          "midi": 67,
          "name": "G4",
          "ticks": 139920,
          "time": 218.611008,
          "velocity": 0.5275590551181102
        },
        {
          "duration": 0.10936799999996083,
          "durationTicks": 70,
          "midi": 67,
          "name": "G4",
          "ticks": 140040,
          "time": 218.798496,
          "velocity": 0.5275590551181102
        },
        {
          "duration": 0.2968559999999911,
          "durationTicks": 190,
          "midi": 70,
          "name": "A#4",
          "ticks": 140160,
          "time": 218.98598399999997,
          "velocity": 0.5118110236220472
        },
        {
          "duration": 0.2890440000000183,
          "durationTicks": 185,
          "midi": 70,
          "name": "A#4",
          "ticks": 140520,
          "time": 219.54844799999998,
          "velocity": 0.5118110236220472
        },
        {
          "duration": 0.09374400000001515,
          "durationTicks": 60,
          "midi": 70,
          "name": "A#4",
          "ticks": 140760,
          "time": 219.92342399999998,
          "velocity": 0.44881889763779526
        },
        {
          "duration": 0.09374400000001515,
          "durationTicks": 60,
          "midi": 70,
          "name": "A#4",
          "ticks": 140880,
          "time": 220.11091199999998,
          "velocity": 0.4645669291338583
        },
        {
          "duration": 0.23436000000000945,
          "durationTicks": 150,
          "midi": 69,
          "name": "A4",
          "ticks": 141000,
          "time": 220.2984,
          "velocity": 0.5275590551181102
        },
        {
          "duration": 0.8124479999999892,
          "durationTicks": 520,
          "midi": 69,
          "name": "A4",
          "ticks": 141240,
          "time": 220.673376,
          "velocity": 0.5748031496062992
        },
        {
          "duration": 0.08593199999998546,
          "durationTicks": 55,
          "midi": 65,
          "name": "F4",
          "ticks": 141840,
          "time": 221.610816,
          "velocity": 0.6692913385826772
        },
        {
          "duration": 0.07812000000001262,
          "durationTicks": 50,
          "midi": 65,
          "name": "F4",
          "ticks": 141960,
          "time": 221.79830399999997,
          "velocity": 0.5275590551181102
        },
        {
          "duration": 0.14842800000002399,
          "durationTicks": 95,
          "midi": 65,
          "name": "F4",
          "ticks": 142080,
          "time": 221.98579199999998,
          "velocity": 0.5275590551181102
        },
        {
          "duration": 0.23436000000000945,
          "durationTicks": 150,
          "midi": 63,
          "name": "D#4",
          "ticks": 142200,
          "time": 222.17327999999998,
          "velocity": 0.5748031496062992
        },
        {
          "duration": 0.4296600000000126,
          "durationTicks": 275,
          "midi": 63,
          "name": "D#4",
          "ticks": 142440,
          "time": 222.54825599999998,
          "velocity": 0.5118110236220472
        },
        {
          "duration": 0.3437279999999987,
          "durationTicks": 220,
          "midi": 65,
          "name": "F4",
          "ticks": 142800,
          "time": 223.11072,
          "velocity": 0.5748031496062992
        },
        {
          "duration": 0.47653200000002016,
          "durationTicks": 305,
          "midi": 67,
          "name": "G4",
          "ticks": 143040,
          "time": 223.485696,
          "velocity": 0.6692913385826772
        },
        {
          "duration": 0.515591999999998,
          "durationTicks": 330,
          "midi": 65,
          "name": "F4",
          "ticks": 143400,
          "time": 224.04816,
          "velocity": 0.6220472440944882
        },
        {
          "duration": 0.33591600000002586,
          "durationTicks": 215,
          "midi": 63,
          "name": "D#4",
          "ticks": 143760,
          "time": 224.61062399999997,
          "velocity": 0.48031496062992124
        },
        {
          "duration": 2.2811040000000276,
          "durationTicks": 1460,
          "midi": 58,
          "name": "A#3",
          "ticks": 144000,
          "time": 224.98559999999998,
          "velocity": 0.44881889763779526
        },
        {
          "duration": 0.2577959999999848,
          "durationTicks": 165,
          "midi": 65,
          "name": "F4",
          "ticks": 145440,
          "time": 227.235456,
          "velocity": 0.5118110236220472
        },
        {
          "duration": 0.10936799999998925,
          "durationTicks": 70,
          "midi": 65,
          "name": "F4",
          "ticks": 145680,
          "time": 227.61043199999997,
          "velocity": 0.49606299212598426
        },
        {
          "duration": 2.1170520000000295,
          "durationTicks": 1355,
          "midi": 64,
          "name": "E4",
          "ticks": 145800,
          "time": 227.79791999999998,
          "velocity": 0.5275590551181102
        },
        {
          "duration": 0.21873600000003535,
          "durationTicks": 140,
          "midi": 67,
          "name": "G4",
          "ticks": 147360,
          "time": 230.23526399999997,
          "velocity": 0.6220472440944882
        },
        {
          "duration": 0.08593199999998546,
          "durationTicks": 55,
          "midi": 67,
          "name": "G4",
          "ticks": 147600,
          "time": 230.61023999999998,
          "velocity": 0.5118110236220472
        },
        {
          "duration": 0.07030800000001136,
          "durationTicks": 45,
          "midi": 67,
          "name": "G4",
          "ticks": 147720,
          "time": 230.79772799999998,
          "velocity": 0.49606299212598426
        },
        {
          "duration": 0.10155600000001641,
          "durationTicks": 65,
          "midi": 67,
          "name": "G4",
          "ticks": 147840,
          "time": 230.98521599999998,
          "velocity": 0.48031496062992124
        },
        {
          "duration": 0.19530000000003156,
          "durationTicks": 125,
          "midi": 69,
          "name": "A4",
          "ticks": 147960,
          "time": 231.17270399999998,
          "velocity": 0.5748031496062992
        },
        {
          "duration": 1.8983159999999941,
          "durationTicks": 1215,
          "midi": 69,
          "name": "A4",
          "ticks": 148200,
          "time": 231.54767999999999,
          "velocity": 0.5748031496062992
        },
        {
          "duration": 0.27341999999998734,
          "durationTicks": 175,
          "midi": 69,
          "name": "A4",
          "ticks": 149520,
          "time": 233.61004799999998,
          "velocity": 0.6220472440944882
        },
        {
          "duration": 0.4530960000000164,
          "durationTicks": 290,
          "midi": 72,
          "name": "C5",
          "ticks": 149760,
          "time": 233.98502399999998,
          "velocity": 0.49606299212598426
        },
        {
          "duration": 0.4062240000000088,
          "durationTicks": 260,
          "midi": 72,
          "name": "C5",
          "ticks": 150120,
          "time": 234.547488,
          "velocity": 0.48031496062992124
        },
        {
          "duration": 0.31247999999999365,
          "durationTicks": 200,
          "midi": 72,
          "name": "C5",
          "ticks": 150480,
          "time": 235.109952,
          "velocity": 0.48031496062992124
        },
        {
          "duration": 0.4218479999999829,
          "durationTicks": 270,
          "midi": 69,
          "name": "A4",
          "ticks": 150720,
          "time": 235.484928,
          "velocity": 0.5748031496062992
        },
        {
          "duration": 0.49996800000002395,
          "durationTicks": 320,
          "midi": 69,
          "name": "A4",
          "ticks": 151080,
          "time": 236.04739199999997,
          "velocity": 0.5748031496062992
        },
        {
          "duration": 0.3046679999999924,
          "durationTicks": 195,
          "midi": 72,
          "name": "C5",
          "ticks": 151440,
          "time": 236.60985599999998,
          "velocity": 0.41732283464566927
        },
        {
          "duration": 0.3281039999999962,
          "durationTicks": 210,
          "midi": 69,
          "name": "A4",
          "ticks": 151680,
          "time": 236.98483199999998,
          "velocity": 0.6692913385826772
        },
        {
          "duration": 0.1796759999999722,
          "durationTicks": 115,
          "midi": 67,
          "name": "G4",
          "ticks": 151920,
          "time": 237.359808,
          "velocity": 0.48031496062992124
        },
        {
          "duration": 0.1640519999999981,
          "durationTicks": 105,
          "midi": 67,
          "name": "G4",
          "ticks": 152160,
          "time": 237.734784,
          "velocity": 0.5118110236220472
        },
        {
          "duration": 0.31247999999999365,
          "durationTicks": 200,
          "midi": 69,
          "name": "A4",
          "ticks": 152280,
          "time": 237.922272,
          "velocity": 0.6220472440944882
        },
        {
          "duration": 0.8827559999999721,
          "durationTicks": 565,
          "midi": 67,
          "name": "G4",
          "ticks": 152520,
          "time": 238.297248,
          "velocity": 0.5275590551181102
        },
        {
          "duration": 0.3281039999999962,
          "durationTicks": 210,
          "midi": 69,
          "name": "A4",
          "ticks": 153120,
          "time": 239.23468799999998,
          "velocity": 0.5118110236220472
        },
        {
          "duration": 0.3671640000000025,
          "durationTicks": 235,
          "midi": 71,
          "name": "B4",
          "ticks": 153360,
          "time": 239.60966399999998,
          "velocity": 0.5118110236220472
        },
        {
          "duration": 0.2812319999999886,
          "durationTicks": 180,
          "midi": 76,
          "name": "E5",
          "ticks": 154080,
          "time": 240.734592,
          "velocity": 0.5275590551181102
        },
        {
          "duration": 0.24998399999998355,
          "durationTicks": 160,
          "midi": 72,
          "name": "C5",
          "ticks": 154320,
          "time": 241.109568,
          "velocity": 0.5118110236220472
        },
        {
          "duration": 0.47653199999999174,
          "durationTicks": 305,
          "midi": 74,
          "name": "D5",
          "ticks": 154440,
          "time": 241.297056,
          "velocity": 0.48031496062992124
        },
        {
          "duration": 0.4687200000000189,
          "durationTicks": 300,
          "midi": 71,
          "name": "B4",
          "ticks": 154800,
          "time": 241.85951999999997,
          "velocity": 0.48031496062992124
        },
        {
          "duration": 0.09374400000001515,
          "durationTicks": 60,
          "midi": 69,
          "name": "A4",
          "ticks": 155280,
          "time": 242.60947199999998,
          "velocity": 0.5275590551181102
        },
        {
          "duration": 0.10936799999998925,
          "durationTicks": 70,
          "midi": 69,
          "name": "A4",
          "ticks": 155400,
          "time": 242.79695999999998,
          "velocity": 0.5275590551181102
        },
        {
          "duration": 0.2968559999999911,
          "durationTicks": 190,
          "midi": 72,
          "name": "C5",
          "ticks": 155520,
          "time": 242.984448,
          "velocity": 0.5118110236220472
        },
        {
          "duration": 0.2890440000000183,
          "durationTicks": 185,
          "midi": 72,
          "name": "C5",
          "ticks": 155880,
          "time": 243.546912,
          "velocity": 0.5118110236220472
        },
        {
          "duration": 0.09374399999998673,
          "durationTicks": 60,
          "midi": 72,
          "name": "C5",
          "ticks": 156120,
          "time": 243.921888,
          "velocity": 0.44881889763779526
        },
        {
          "duration": 0.09374399999998673,
          "durationTicks": 60,
          "midi": 72,
          "name": "C5",
          "ticks": 156240,
          "time": 244.109376,
          "velocity": 0.4645669291338583
        },
        {
          "duration": 0.23436000000000945,
          "durationTicks": 150,
          "midi": 71,
          "name": "B4",
          "ticks": 156360,
          "time": 244.29686399999997,
          "velocity": 0.5275590551181102
        },
        {
          "duration": 0.8124479999999892,
          "durationTicks": 520,
          "midi": 71,
          "name": "B4",
          "ticks": 156600,
          "time": 244.67183999999997,
          "velocity": 0.5748031496062992
        },
        {
          "duration": 0.08593199999998546,
          "durationTicks": 55,
          "midi": 67,
          "name": "G4",
          "ticks": 157200,
          "time": 245.60927999999998,
          "velocity": 0.6692913385826772
        },
        {
          "duration": 0.07812000000001262,
          "durationTicks": 50,
          "midi": 67,
          "name": "G4",
          "ticks": 157320,
          "time": 245.796768,
          "velocity": 0.5275590551181102
        },
        {
          "duration": 0.14842800000002399,
          "durationTicks": 95,
          "midi": 67,
          "name": "G4",
          "ticks": 157440,
          "time": 245.984256,
          "velocity": 0.5275590551181102
        },
        {
          "duration": 0.23435999999998103,
          "durationTicks": 150,
          "midi": 65,
          "name": "F4",
          "ticks": 157560,
          "time": 246.171744,
          "velocity": 0.5748031496062992
        },
        {
          "duration": 0.4296600000000126,
          "durationTicks": 275,
          "midi": 65,
          "name": "F4",
          "ticks": 157800,
          "time": 246.54672,
          "velocity": 0.5118110236220472
        },
        {
          "duration": 0.3437279999999987,
          "durationTicks": 220,
          "midi": 67,
          "name": "G4",
          "ticks": 158160,
          "time": 247.10918399999997,
          "velocity": 0.5748031496062992
        },
        {
          "duration": 0.47653200000002016,
          "durationTicks": 305,
          "midi": 69,
          "name": "A4",
          "ticks": 158400,
          "time": 247.48415999999997,
          "velocity": 0.6692913385826772
        },
        {
          "duration": 0.5077799999999968,
          "durationTicks": 325,
          "midi": 67,
          "name": "G4",
          "ticks": 158760,
          "time": 248.04662399999998,
          "velocity": 0.6220472440944882
        },
        {
          "duration": 0.33591600000002586,
          "durationTicks": 215,
          "midi": 65,
          "name": "F4",
          "ticks": 159120,
          "time": 248.60908799999999,
          "velocity": 0.48031496062992124
        },
        {
          "duration": 2.281103999999999,
          "durationTicks": 1460,
          "midi": 60,
          "name": "C4",
          "ticks": 159360,
          "time": 248.984064,
          "velocity": 0.44881889763779526
        },
        {
          "duration": 0.2656080000000145,
          "durationTicks": 170,
          "midi": 67,
          "name": "G4",
          "ticks": 160800,
          "time": 251.23391999999998,
          "velocity": 0.5118110236220472
        },
        {
          "duration": 0.10936799999998925,
          "durationTicks": 70,
          "midi": 67,
          "name": "G4",
          "ticks": 161040,
          "time": 251.608896,
          "velocity": 0.49606299212598426
        },
        {
          "duration": 2.117052000000001,
          "durationTicks": 1355,
          "midi": 66,
          "name": "F#4",
          "ticks": 161160,
          "time": 251.796384,
          "velocity": 0.5275590551181102
        },
        {
          "duration": 0.22654799999997977,
          "durationTicks": 145,
          "midi": 69,
          "name": "A4",
          "ticks": 162720,
          "time": 254.23372799999999,
          "velocity": 0.6220472440944882
        },
        {
          "duration": 0.08593199999998546,
          "durationTicks": 55,
          "midi": 69,
          "name": "A4",
          "ticks": 162960,
          "time": 254.608704,
          "velocity": 0.5118110236220472
        },
        {
          "duration": 0.07030799999998294,
          "durationTicks": 45,
          "midi": 69,
          "name": "A4",
          "ticks": 163080,
          "time": 254.796192,
          "velocity": 0.49606299212598426
        },
        {
          "duration": 0.10155600000001641,
          "durationTicks": 65,
          "midi": 69,
          "name": "A4",
          "ticks": 163200,
          "time": 254.98368,
          "velocity": 0.48031496062992124
        },
        {
          "duration": 0.19530000000000314,
          "durationTicks": 125,
          "midi": 71,
          "name": "B4",
          "ticks": 163320,
          "time": 255.171168,
          "velocity": 0.5748031496062992
        },
        {
          "duration": 1.9061280000000238,
          "durationTicks": 1220,
          "midi": 71,
          "name": "B4",
          "ticks": 163560,
          "time": 255.54614399999997,
          "velocity": 0.5748031496062992
        },
        {
          "duration": 0.27341999999998734,
          "durationTicks": 175,
          "midi": 71,
          "name": "B4",
          "ticks": 164880,
          "time": 257.60851199999996,
          "velocity": 0.6220472440944882
        },
        {
          "duration": 0.4530960000000164,
          "durationTicks": 290,
          "midi": 74,
          "name": "D5",
          "ticks": 165120,
          "time": 257.98348799999997,
          "velocity": 0.49606299212598426
        },
        {
          "duration": 0.4062240000000088,
          "durationTicks": 260,
          "midi": 74,
          "name": "D5",
          "ticks": 165480,
          "time": 258.545952,
          "velocity": 0.48031496062992124
        },
        {
          "duration": 0.31247999999999365,
          "durationTicks": 200,
          "midi": 74,
          "name": "D5",
          "ticks": 165840,
          "time": 259.108416,
          "velocity": 0.48031496062992124
        },
        {
          "duration": 0.4218480000000113,
          "durationTicks": 270,
          "midi": 71,
          "name": "B4",
          "ticks": 166080,
          "time": 259.483392,
          "velocity": 0.5748031496062992
        },
        {
          "duration": 0.49996800000002395,
          "durationTicks": 320,
          "midi": 71,
          "name": "B4",
          "ticks": 166440,
          "time": 260.04585599999996,
          "velocity": 0.5748031496062992
        },
        {
          "duration": 0.3046679999999924,
          "durationTicks": 195,
          "midi": 74,
          "name": "D5",
          "ticks": 166800,
          "time": 260.60832,
          "velocity": 0.41732283464566927
        },
        {
          "duration": 0.3281039999999962,
          "durationTicks": 210,
          "midi": 71,
          "name": "B4",
          "ticks": 167040,
          "time": 260.983296,
          "velocity": 0.6692913385826772
        },
        {
          "duration": 0.1796759999999722,
          "durationTicks": 115,
          "midi": 69,
          "name": "A4",
          "ticks": 167280,
          "time": 261.358272,
          "velocity": 0.48031496062992124
        },
        {
          "duration": 0.16405199999996967,
          "durationTicks": 105,
          "midi": 69,
          "name": "A4",
          "ticks": 167520,
          "time": 261.733248,
          "velocity": 0.5118110236220472
        },
        {
          "duration": 0.31247999999999365,
          "durationTicks": 200,
          "midi": 71,
          "name": "B4",
          "ticks": 167640,
          "time": 261.920736,
          "velocity": 0.6220472440944882
        },
        {
          "duration": 0.8827559999999721,
          "durationTicks": 565,
          "midi": 69,
          "name": "A4",
          "ticks": 167880,
          "time": 262.295712,
          "velocity": 0.5275590551181102
        },
        {
          "duration": 0.3281039999999962,
          "durationTicks": 210,
          "midi": 71,
          "name": "B4",
          "ticks": 168480,
          "time": 263.23315199999996,
          "velocity": 0.5118110236220472
        },
        {
          "duration": 0.3671640000000025,
          "durationTicks": 235,
          "midi": 73,
          "name": "C#5",
          "ticks": 168720,
          "time": 263.60812799999997,
          "velocity": 0.5118110236220472
        },
        {
          "duration": 0.09374400000001515,
          "durationTicks": 60,
          "midi": 71,
          "name": "B4",
          "ticks": 170640,
          "time": 266.607936,
          "velocity": 0.5275590551181102
        },
        {
          "duration": 0.10936800000001767,
          "durationTicks": 70,
          "midi": 71,
          "name": "B4",
          "ticks": 170760,
          "time": 266.79542399999997,
          "velocity": 0.5275590551181102
        },
        {
          "duration": 0.20311199999997598,
          "durationTicks": 130,
          "midi": 74,
          "name": "D5",
          "ticks": 170880,
          "time": 266.982912,
          "velocity": 0.5118110236220472
        },
        {
          "duration": 0.19529999999997472,
          "durationTicks": 125,
          "midi": 74,
          "name": "D5",
          "ticks": 171120,
          "time": 267.357888,
          "velocity": 0.5118110236220472
        },
        {
          "duration": 0.2890440000000467,
          "durationTicks": 185,
          "midi": 74,
          "name": "D5",
          "ticks": 171240,
          "time": 267.545376,
          "velocity": 0.5118110236220472
        },
        {
          "duration": 0.09374400000001515,
          "durationTicks": 60,
          "midi": 74,
          "name": "D5",
          "ticks": 171480,
          "time": 267.920352,
          "velocity": 0.44881889763779526
        },
        {
          "duration": 0.10155599999995957,
          "durationTicks": 65,
          "midi": 74,
          "name": "D5",
          "ticks": 171600,
          "time": 268.10784,
          "velocity": 0.4645669291338583
        },
        {
          "duration": 0.23435999999998103,
          "durationTicks": 150,
          "midi": 73,
          "name": "C#5",
          "ticks": 171720,
          "time": 268.295328,
          "velocity": 0.5275590551181102
        },
        {
          "duration": 0.8124479999999608,
          "durationTicks": 520,
          "midi": 73,
          "name": "C#5",
          "ticks": 171960,
          "time": 268.670304,
          "velocity": 0.5748031496062992
        },
        {
          "duration": 0.08593200000001389,
          "durationTicks": 55,
          "midi": 69,
          "name": "A4",
          "ticks": 172560,
          "time": 269.60774399999997,
          "velocity": 0.6692913385826772
        },
        {
          "duration": 0.07812000000001262,
          "durationTicks": 50,
          "midi": 69,
          "name": "A4",
          "ticks": 172680,
          "time": 269.795232,
          "velocity": 0.5275590551181102
        },
        {
          "duration": 0.14842800000002399,
          "durationTicks": 95,
          "midi": 69,
          "name": "A4",
          "ticks": 172800,
          "time": 269.98272,
          "velocity": 0.5275590551181102
        },
        {
          "duration": 0.23435999999998103,
          "durationTicks": 150,
          "midi": 67,
          "name": "G4",
          "ticks": 172920,
          "time": 270.170208,
          "velocity": 0.5748031496062992
        },
        {
          "duration": 0.4296600000000126,
          "durationTicks": 275,
          "midi": 67,
          "name": "G4",
          "ticks": 173160,
          "time": 270.545184,
          "velocity": 0.5118110236220472
        },
        {
          "duration": 0.3437279999999987,
          "durationTicks": 220,
          "midi": 69,
          "name": "A4",
          "ticks": 173520,
          "time": 271.107648,
          "velocity": 0.5748031496062992
        },
        {
          "duration": 0.47653200000002016,
          "durationTicks": 305,
          "midi": 71,
          "name": "B4",
          "ticks": 173760,
          "time": 271.482624,
          "velocity": 0.6692913385826772
        },
        {
          "duration": 0.5155920000000265,
          "durationTicks": 330,
          "midi": 69,
          "name": "A4",
          "ticks": 174120,
          "time": 272.04508799999996,
          "velocity": 0.6220472440944882
        },
        {
          "duration": 0.33591599999999744,
          "durationTicks": 215,
          "midi": 67,
          "name": "G4",
          "ticks": 174480,
          "time": 272.607552,
          "velocity": 0.48031496062992124
        },
        {
          "duration": 2.2967279999999732,
          "durationTicks": 1470,
          "midi": 62,
          "name": "D4",
          "ticks": 174720,
          "time": 272.982528,
          "velocity": 0.44881889763779526
        },
        {
          "duration": 0.0937439999999583,
          "durationTicks": 60,
          "midi": 71,
          "name": "B4",
          "ticks": 178320,
          "time": 278.607168,
          "velocity": 0.5275590551181102
        },
        {
          "duration": 0.10936800000001767,
          "durationTicks": 70,
          "midi": 71,
          "name": "B4",
          "ticks": 178440,
          "time": 278.794656,
          "velocity": 0.5275590551181102
        },
        {
          "duration": 0.20311199999997598,
          "durationTicks": 130,
          "midi": 74,
          "name": "D5",
          "ticks": 178560,
          "time": 278.982144,
          "velocity": 0.5118110236220472
        },
        {
          "duration": 0.19529999999997472,
          "durationTicks": 125,
          "midi": 74,
          "name": "D5",
          "ticks": 178800,
          "time": 279.35712,
          "velocity": 0.5118110236220472
        },
        {
          "duration": 0.2812319999999886,
          "durationTicks": 180,
          "midi": 74,
          "name": "D5",
          "ticks": 178920,
          "time": 279.544608,
          "velocity": 0.5118110236220472
        },
        {
          "duration": 0.09374400000001515,
          "durationTicks": 60,
          "midi": 74,
          "name": "D5",
          "ticks": 179160,
          "time": 279.919584,
          "velocity": 0.44881889763779526
        },
        {
          "duration": 0.10155600000001641,
          "durationTicks": 65,
          "midi": 74,
          "name": "D5",
          "ticks": 179280,
          "time": 280.10707199999996,
          "velocity": 0.4645669291338583
        },
        {
          "duration": 0.23435999999998103,
          "durationTicks": 150,
          "midi": 73,
          "name": "C#5",
          "ticks": 179400,
          "time": 280.29456,
          "velocity": 0.5275590551181102
        },
        {
          "duration": 0.8124479999999608,
          "durationTicks": 520,
          "midi": 73,
          "name": "C#5",
          "ticks": 179640,
          "time": 280.669536,
          "velocity": 0.5748031496062992
        },
        {
          "duration": 0.08593200000001389,
          "durationTicks": 55,
          "midi": 69,
          "name": "A4",
          "ticks": 180240,
          "time": 281.606976,
          "velocity": 0.6692913385826772
        },
        {
          "duration": 0.07812000000001262,
          "durationTicks": 50,
          "midi": 69,
          "name": "A4",
          "ticks": 180360,
          "time": 281.794464,
          "velocity": 0.5275590551181102
        },
        {
          "duration": 0.14842800000002399,
          "durationTicks": 95,
          "midi": 69,
          "name": "A4",
          "ticks": 180480,
          "time": 281.981952,
          "velocity": 0.5275590551181102
        },
        {
          "duration": 0.22654799999997977,
          "durationTicks": 145,
          "midi": 67,
          "name": "G4",
          "ticks": 180600,
          "time": 282.16944,
          "velocity": 0.5748031496062992
        },
        {
          "duration": 0.4296600000000126,
          "durationTicks": 275,
          "midi": 67,
          "name": "G4",
          "ticks": 180840,
          "time": 282.54441599999996,
          "velocity": 0.5118110236220472
        },
        {
          "duration": 0.33591599999999744,
          "durationTicks": 215,
          "midi": 69,
          "name": "A4",
          "ticks": 181200,
          "time": 283.10688,
          "velocity": 0.5748031496062992
        },
        {
          "duration": 0.47653200000002016,
          "durationTicks": 305,
          "midi": 71,
          "name": "B4",
          "ticks": 181440,
          "time": 283.481856,
          "velocity": 0.6692913385826772
        },
        {
          "duration": 0.5155920000000265,
          "durationTicks": 330,
          "midi": 69,
          "name": "A4",
          "ticks": 181800,
          "time": 284.04431999999997,
          "velocity": 0.6220472440944882
        },
        {
          "duration": 0.33591599999999744,
          "durationTicks": 215,
          "midi": 67,
          "name": "G4",
          "ticks": 182160,
          "time": 284.606784,
          "velocity": 0.48031496062992124
        },
        {
          "duration": 2.288915999999972,
          "durationTicks": 1465,
          "midi": 62,
          "name": "D4",
          "ticks": 182400,
          "time": 284.98176,
          "velocity": 0.44881889763779526
        },
        {
          "duration": 0.0937439999999583,
          "durationTicks": 60,
          "midi": 71,
          "name": "B4",
          "ticks": 186000,
          "time": 290.6064,
          "velocity": 0.5275590551181102
        },
        {
          "duration": 0.10936799999996083,
          "durationTicks": 70,
          "midi": 71,
          "name": "B4",
          "ticks": 186120,
          "time": 290.793888,
          "velocity": 0.5275590551181102
        },
        {
          "duration": 0.20311200000003282,
          "durationTicks": 130,
          "midi": 74,
          "name": "D5",
          "ticks": 186240,
          "time": 290.98137599999995,
          "velocity": 0.5118110236220472
        },
        {
          "duration": 0.19530000000003156,
          "durationTicks": 125,
          "midi": 74,
          "name": "D5",
          "ticks": 186480,
          "time": 291.35635199999996,
          "velocity": 0.5118110236220472
        },
        {
          "duration": 0.28904399999998986,
          "durationTicks": 185,
          "midi": 74,
          "name": "D5",
          "ticks": 186600,
          "time": 291.54384,
          "velocity": 0.5118110236220472
        },
        {
          "duration": 0.09374400000001515,
          "durationTicks": 60,
          "midi": 74,
          "name": "D5",
          "ticks": 186840,
          "time": 291.918816,
          "velocity": 0.44881889763779526
        },
        {
          "duration": 0.10155600000001641,
          "durationTicks": 65,
          "midi": 74,
          "name": "D5",
          "ticks": 186960,
          "time": 292.10630399999997,
          "velocity": 0.4645669291338583
        },
        {
          "duration": 0.23435999999998103,
          "durationTicks": 150,
          "midi": 73,
          "name": "C#5",
          "ticks": 187080,
          "time": 292.293792,
          "velocity": 0.5275590551181102
        },
        {
          "duration": 0.8124479999999608,
          "durationTicks": 520,
          "midi": 73,
          "name": "C#5",
          "ticks": 187320,
          "time": 292.668768,
          "velocity": 0.5748031496062992
        },
        {
          "duration": 0.08593200000001389,
          "durationTicks": 55,
          "midi": 69,
          "name": "A4",
          "ticks": 187920,
          "time": 293.606208,
          "velocity": 0.6692913385826772
        },
        {
          "duration": 0.07030800000001136,
          "durationTicks": 45,
          "midi": 69,
          "name": "A4",
          "ticks": 188040,
          "time": 293.79369599999995,
          "velocity": 0.5275590551181102
        },
        {
          "duration": 0.14061600000002272,
          "durationTicks": 90,
          "midi": 69,
          "name": "A4",
          "ticks": 188160,
          "time": 293.981184,
          "velocity": 0.5275590551181102
        },
        {
          "duration": 0.2265480000000366,
          "durationTicks": 145,
          "midi": 67,
          "name": "G4",
          "ticks": 188280,
          "time": 294.16867199999996,
          "velocity": 0.5748031496062992
        },
        {
          "duration": 0.4296600000000126,
          "durationTicks": 275,
          "midi": 67,
          "name": "G4",
          "ticks": 188520,
          "time": 294.54364799999996,
          "velocity": 0.5118110236220472
        },
        {
          "duration": 0.33591599999999744,
          "durationTicks": 215,
          "midi": 69,
          "name": "A4",
          "ticks": 188880,
          "time": 295.106112,
          "velocity": 0.5748031496062992
        },
        {
          "duration": 0.47653200000002016,
          "durationTicks": 305,
          "midi": 71,
          "name": "B4",
          "ticks": 189120,
          "time": 295.481088,
          "velocity": 0.6692913385826772
        },
        {
          "duration": 0.5155920000000265,
          "durationTicks": 330,
          "midi": 69,
          "name": "A4",
          "ticks": 189480,
          "time": 296.043552,
          "velocity": 0.6220472440944882
        },
        {
          "duration": 0.3359160000000543,
          "durationTicks": 215,
          "midi": 67,
          "name": "G4",
          "ticks": 189840,
          "time": 296.60601599999995,
          "velocity": 0.48031496062992124
        },
        {
          "duration": 2.2811040000000276,
          "durationTicks": 1460,
          "midi": 62,
          "name": "D4",
          "ticks": 190080,
          "time": 296.98099199999996,
          "velocity": 0.44881889763779526
        },
        {
          "duration": 0.4843440000000214,
          "durationTicks": 310,
          "midi": 67,
          "name": "G4",
          "ticks": 191040,
          "time": 298.480896,
          "velocity": 0.49606299212598426
        },
        {
          "duration": 0.5155920000000265,
          "durationTicks": 330,
          "midi": 71,
          "name": "B4",
          "ticks": 191040,
          "time": 298.480896,
          "velocity": 0.49606299212598426
        },
        {
          "duration": 0.5624639999999772,
          "durationTicks": 360,
          "midi": 66,
          "name": "F#4",
          "ticks": 191400,
          "time": 299.04336,
          "velocity": 0.49606299212598426
        },
        {
          "duration": 0.5077799999999684,
          "durationTicks": 325,
          "midi": 69,
          "name": "A4",
          "ticks": 191400,
          "time": 299.04336,
          "velocity": 0.49606299212598426
        },
        {
          "duration": 0.4296600000000126,
          "durationTicks": 275,
          "midi": 64,
          "name": "E4",
          "ticks": 191760,
          "time": 299.605824,
          "velocity": 0.49606299212598426
        },
        {
          "duration": 0.37497600000000375,
          "durationTicks": 240,
          "midi": 67,
          "name": "G4",
          "ticks": 191760,
          "time": 299.605824,
          "velocity": 0.49606299212598426
        },
        {
          "duration": 1.492091999999957,
          "durationTicks": 955,
          "midi": 62,
          "name": "D4",
          "ticks": 192000,
          "time": 299.9808,
          "velocity": 0.49606299212598426
        },
        {
          "duration": 1.492091999999957,
          "durationTicks": 955,
          "midi": 66,
          "name": "F#4",
          "ticks": 192000,
          "time": 299.9808,
          "velocity": 0.49606299212598426
        },
        {
          "duration": 0.4999679999999671,
          "durationTicks": 320,
          "midi": 67,
          "name": "G4",
          "ticks": 192960,
          "time": 301.480704,
          "velocity": 0.4881889763779528
        },
        {
          "duration": 0.5155919999999696,
          "durationTicks": 330,
          "midi": 71,
          "name": "B4",
          "ticks": 192960,
          "time": 301.480704,
          "velocity": 0.4881889763779528
        },
        {
          "duration": 0.49996800000002395,
          "durationTicks": 320,
          "midi": 66,
          "name": "F#4",
          "ticks": 193320,
          "time": 302.043168,
          "velocity": 0.4881889763779528
        },
        {
          "duration": 0.5155920000000265,
          "durationTicks": 330,
          "midi": 69,
          "name": "A4",
          "ticks": 193320,
          "time": 302.043168,
          "velocity": 0.4881889763779528
        },
        {
          "duration": 0.37497600000000375,
          "durationTicks": 240,
          "midi": 64,
          "name": "E4",
          "ticks": 193680,
          "time": 302.60563199999996,
          "velocity": 0.4881889763779528
        },
        {
          "duration": 0.37497600000000375,
          "durationTicks": 240,
          "midi": 67,
          "name": "G4",
          "ticks": 193680,
          "time": 302.60563199999996,
          "velocity": 0.4881889763779528
        },
        {
          "duration": 1.5077160000000163,
          "durationTicks": 965,
          "midi": 62,
          "name": "D4",
          "ticks": 193920,
          "time": 302.98060799999996,
          "velocity": 0.4881889763779528
        },
        {
          "duration": 1.499904000000015,
          "durationTicks": 960,
          "midi": 66,
          "name": "F#4",
          "ticks": 193920,
          "time": 302.98060799999996,
          "velocity": 0.4881889763779528
        },
        {
          "duration": 0.47653200000002016,
          "durationTicks": 305,
          "midi": 67,
          "name": "G4",
          "ticks": 194880,
          "time": 304.480512,
          "velocity": 0.4881889763779528
        },
        {
          "duration": 0.47653200000002016,
          "durationTicks": 305,
          "midi": 71,
          "name": "B4",
          "ticks": 194880,
          "time": 304.480512,
          "velocity": 0.4881889763779528
        },
        {
          "duration": 0.4921560000000227,
          "durationTicks": 315,
          "midi": 66,
          "name": "F#4",
          "ticks": 195240,
          "time": 305.04297599999995,
          "velocity": 0.4881889763779528
        },
        {
          "duration": 0.562464000000034,
          "durationTicks": 360,
          "midi": 69,
          "name": "A4",
          "ticks": 195240,
          "time": 305.04297599999995,
          "velocity": 0.4881889763779528
        },
        {
          "duration": 0.382788000000005,
          "durationTicks": 245,
          "midi": 64,
          "name": "E4",
          "ticks": 195600,
          "time": 305.60544,
          "velocity": 0.4881889763779528
        },
        {
          "duration": 0.37497600000000375,
          "durationTicks": 240,
          "midi": 67,
          "name": "G4",
          "ticks": 195600,
          "time": 305.60544,
          "velocity": 0.4881889763779528
        },
        {
          "duration": 1.492091999999957,
          "durationTicks": 955,
          "midi": 62,
          "name": "D4",
          "ticks": 195840,
          "time": 305.980416,
          "velocity": 0.4881889763779528
        },
        {
          "duration": 1.4452199999999493,
          "durationTicks": 925,
          "midi": 66,
          "name": "F#4",
          "ticks": 195840,
          "time": 305.980416,
          "velocity": 0.4881889763779528
        },
        {
          "duration": 0.5312159999999722,
          "durationTicks": 340,
          "midi": 67,
          "name": "G4",
          "ticks": 196800,
          "time": 307.48032,
          "velocity": 0.4881889763779528
        },
        {
          "duration": 0.5234039999999709,
          "durationTicks": 335,
          "midi": 71,
          "name": "B4",
          "ticks": 196800,
          "time": 307.48032,
          "velocity": 0.4881889763779528
        },
        {
          "duration": 0.5468400000000315,
          "durationTicks": 350,
          "midi": 66,
          "name": "F#4",
          "ticks": 197160,
          "time": 308.042784,
          "velocity": 0.4881889763779528
        },
        {
          "duration": 0.5468400000000315,
          "durationTicks": 350,
          "midi": 69,
          "name": "A4",
          "ticks": 197160,
          "time": 308.042784,
          "velocity": 0.4881889763779528
        },
        {
          "duration": 0.37497600000000375,
          "durationTicks": 240,
          "midi": 64,
          "name": "E4",
          "ticks": 197520,
          "time": 308.60524799999996,
          "velocity": 0.4881889763779528
        },
        {
          "duration": 0.4218480000000113,
          "durationTicks": 270,
          "midi": 67,
          "name": "G4",
          "ticks": 197520,
          "time": 308.60524799999996,
          "velocity": 0.4881889763779528
        },
        {
          "duration": 1.4920920000000137,
          "durationTicks": 955,
          "midi": 62,
          "name": "D4",
          "ticks": 197760,
          "time": 308.98022399999996,
          "velocity": 0.48031496062992124
        },
        {
          "duration": 1.3671000000000504,
          "durationTicks": 875,
          "midi": 66,
          "name": "F#4",
          "ticks": 197760,
          "time": 308.98022399999996,
          "velocity": 0.4881889763779528
        },
        {
          "duration": 0.47653200000002016,
          "durationTicks": 305,
          "midi": 67,
          "name": "G4",
          "ticks": 198720,
          "time": 310.480128,
          "velocity": 0.48031496062992124
        },
        {
          "duration": 0.47653200000002016,
          "durationTicks": 305,
          "midi": 71,
          "name": "B4",
          "ticks": 198720,
          "time": 310.480128,
          "velocity": 0.4881889763779528
        },
        {
          "duration": 0.4843440000000214,
          "durationTicks": 310,
          "midi": 66,
          "name": "F#4",
          "ticks": 199080,
          "time": 311.04259199999996,
          "velocity": 0.48031496062992124
        },
        {
          "duration": 0.5155920000000265,
          "durationTicks": 330,
          "midi": 69,
          "name": "A4",
          "ticks": 199080,
          "time": 311.04259199999996,
          "velocity": 0.4881889763779528
        },
        {
          "duration": 0.382788000000005,
          "durationTicks": 245,
          "midi": 64,
          "name": "E4",
          "ticks": 199440,
          "time": 311.605056,
          "velocity": 0.48031496062992124
        },
        {
          "duration": 0.3671640000000025,
          "durationTicks": 235,
          "midi": 67,
          "name": "G4",
          "ticks": 199440,
          "time": 311.605056,
          "velocity": 0.4881889763779528
        },
        {
          "duration": 1.492091999999957,
          "durationTicks": 955,
          "midi": 62,
          "name": "D4",
          "ticks": 199680,
          "time": 311.980032,
          "velocity": 0.48031496062992124
        },
        {
          "duration": 1.4608440000000087,
          "durationTicks": 935,
          "midi": 66,
          "name": "F#4",
          "ticks": 199680,
          "time": 311.980032,
          "velocity": 0.4881889763779528
        },
        {
          "duration": 0.4843440000000214,
          "durationTicks": 310,
          "midi": 67,
          "name": "G4",
          "ticks": 200640,
          "time": 313.47993599999995,
          "velocity": 0.48031496062992124
        },
        {
          "duration": 0.47653200000002016,
          "durationTicks": 305,
          "midi": 71,
          "name": "B4",
          "ticks": 200640,
          "time": 313.47993599999995,
          "velocity": 0.4881889763779528
        },
        {
          "duration": 0.5077799999999684,
          "durationTicks": 325,
          "midi": 66,
          "name": "F#4",
          "ticks": 201000,
          "time": 314.0424,
          "velocity": 0.48031496062992124
        },
        {
          "duration": 0.5234040000000277,
          "durationTicks": 335,
          "midi": 69,
          "name": "A4",
          "ticks": 201000,
          "time": 314.0424,
          "velocity": 0.4881889763779528
        },
        {
          "duration": 0.39841200000000754,
          "durationTicks": 255,
          "midi": 64,
          "name": "E4",
          "ticks": 201360,
          "time": 314.60486399999996,
          "velocity": 0.48031496062992124
        },
        {
          "duration": 0.37497600000000375,
          "durationTicks": 240,
          "midi": 67,
          "name": "G4",
          "ticks": 201360,
          "time": 314.60486399999996,
          "velocity": 0.4881889763779528
        },
        {
          "duration": 1.4920920000000137,
          "durationTicks": 955,
          "midi": 62,
          "name": "D4",
          "ticks": 201600,
          "time": 314.97983999999997,
          "velocity": 0.48031496062992124
        },
        {
          "duration": 1.382723999999996,
          "durationTicks": 885,
          "midi": 66,
          "name": "F#4",
          "ticks": 201600,
          "time": 314.97983999999997,
          "velocity": 0.4881889763779528
        },
        {
          "duration": 0.47653200000002016,
          "durationTicks": 305,
          "midi": 67,
          "name": "G4",
          "ticks": 202560,
          "time": 316.479744,
          "velocity": 0.48031496062992124
        },
        {
          "duration": 0.47653200000002016,
          "durationTicks": 305,
          "midi": 71,
          "name": "B4",
          "ticks": 202560,
          "time": 316.479744,
          "velocity": 0.4881889763779528
        },
        {
          "duration": 0.4921560000000227,
          "durationTicks": 315,
          "midi": 66,
          "name": "F#4",
          "ticks": 202920,
          "time": 317.04220799999996,
          "velocity": 0.47244094488188976
        },
        {
          "duration": 0.5234040000000277,
          "durationTicks": 335,
          "midi": 69,
          "name": "A4",
          "ticks": 202920,
          "time": 317.04220799999996,
          "velocity": 0.4881889763779528
        },
        {
          "duration": 0.382788000000005,
          "durationTicks": 245,
          "midi": 64,
          "name": "E4",
          "ticks": 203280,
          "time": 317.604672,
          "velocity": 0.47244094488188976
        },
        {
          "duration": 0.37497600000000375,
          "durationTicks": 240,
          "midi": 67,
          "name": "G4",
          "ticks": 203280,
          "time": 317.604672,
          "velocity": 0.4881889763779528
        },
        {
          "duration": 1.492091999999957,
          "durationTicks": 955,
          "midi": 62,
          "name": "D4",
          "ticks": 203520,
          "time": 317.979648,
          "velocity": 0.47244094488188976
        },
        {
          "duration": 1.4608440000000087,
          "durationTicks": 935,
          "midi": 66,
          "name": "F#4",
          "ticks": 203520,
          "time": 317.979648,
          "velocity": 0.4881889763779528
        },
        {
          "duration": 0.4843440000000214,
          "durationTicks": 310,
          "midi": 67,
          "name": "G4",
          "ticks": 204480,
          "time": 319.47955199999996,
          "velocity": 0.49606299212598426
        },
        {
          "duration": 0.4530960000000164,
          "durationTicks": 290,
          "midi": 71,
          "name": "B4",
          "ticks": 204480,
          "time": 319.47955199999996,
          "velocity": 0.49606299212598426
        },
        {
          "duration": 0.49996800000002395,
          "durationTicks": 320,
          "midi": 66,
          "name": "F#4",
          "ticks": 204840,
          "time": 320.042016,
          "velocity": 0.49606299212598426
        },
        {
          "duration": 0.49996800000002395,
          "durationTicks": 320,
          "midi": 69,
          "name": "A4",
          "ticks": 204840,
          "time": 320.042016,
          "velocity": 0.49606299212598426
        },
        {
          "duration": 0.4296600000000126,
          "durationTicks": 275,
          "midi": 64,
          "name": "E4",
          "ticks": 205200,
          "time": 320.60447999999997,
          "velocity": 0.49606299212598426
        },
        {
          "duration": 0.3671640000000025,
          "durationTicks": 235,
          "midi": 67,
          "name": "G4",
          "ticks": 205200,
          "time": 320.60447999999997,
          "velocity": 0.49606299212598426
        },
        {
          "duration": 1.4920920000000137,
          "durationTicks": 955,
          "midi": 62,
          "name": "D4",
          "ticks": 205440,
          "time": 320.97945599999997,
          "velocity": 0.49606299212598426
        },
        {
          "duration": 1.437408000000005,
          "durationTicks": 920,
          "midi": 66,
          "name": "F#4",
          "ticks": 205440,
          "time": 320.97945599999997,
          "velocity": 0.49606299212598426
        },
        {
          "duration": 0.49996800000002395,
          "durationTicks": 320,
          "midi": 67,
          "name": "G4",
          "ticks": 206400,
          "time": 322.47936,
          "velocity": 0.4881889763779528
        },
        {
          "duration": 0.5624639999999772,
          "durationTicks": 360,
          "midi": 71,
          "name": "B4",
          "ticks": 206400,
          "time": 322.47936,
          "velocity": 0.4881889763779528
        },
        {
          "duration": 0.49996800000002395,
          "durationTicks": 320,
          "midi": 66,
          "name": "F#4",
          "ticks": 206760,
          "time": 323.04182399999996,
          "velocity": 0.4881889763779528
        },
        {
          "duration": 0.4687200000000189,
          "durationTicks": 300,
          "midi": 69,
          "name": "A4",
          "ticks": 206760,
          "time": 323.04182399999996,
          "velocity": 0.4881889763779528
        },
        {
          "duration": 0.37497600000000375,
          "durationTicks": 240,
          "midi": 64,
          "name": "E4",
          "ticks": 207120,
          "time": 323.604288,
          "velocity": 0.4881889763779528
        },
        {
          "duration": 0.37497600000000375,
          "durationTicks": 240,
          "midi": 67,
          "name": "G4",
          "ticks": 207120,
          "time": 323.604288,
          "velocity": 0.4881889763779528
        },
        {
          "duration": 1.4999039999999582,
          "durationTicks": 960,
          "midi": 62,
          "name": "D4",
          "ticks": 207360,
          "time": 323.979264,
          "velocity": 0.4881889763779528
        },
        {
          "duration": 1.437408000000005,
          "durationTicks": 920,
          "midi": 66,
          "name": "F#4",
          "ticks": 207360,
          "time": 323.979264,
          "velocity": 0.4881889763779528
        },
        {
          "duration": 0.47653200000002016,
          "durationTicks": 305,
          "midi": 67,
          "name": "G4",
          "ticks": 208320,
          "time": 325.47916799999996,
          "velocity": 0.4881889763779528
        },
        {
          "duration": 0.47653200000002016,
          "durationTicks": 305,
          "midi": 71,
          "name": "B4",
          "ticks": 208320,
          "time": 325.47916799999996,
          "velocity": 0.4881889763779528
        },
        {
          "duration": 0.49215599999996584,
          "durationTicks": 315,
          "midi": 66,
          "name": "F#4",
          "ticks": 208680,
          "time": 326.041632,
          "velocity": 0.4881889763779528
        },
        {
          "duration": 0.5546519999999759,
          "durationTicks": 355,
          "midi": 69,
          "name": "A4",
          "ticks": 208680,
          "time": 326.041632,
          "velocity": 0.4881889763779528
        },
        {
          "duration": 0.382788000000005,
          "durationTicks": 245,
          "midi": 64,
          "name": "E4",
          "ticks": 209040,
          "time": 326.60409599999997,
          "velocity": 0.4881889763779528
        },
        {
          "duration": 0.43747200000001385,
          "durationTicks": 280,
          "midi": 67,
          "name": "G4",
          "ticks": 209040,
          "time": 326.60409599999997,
          "velocity": 0.4881889763779528
        },
        {
          "duration": 1.4920920000000137,
          "durationTicks": 955,
          "midi": 62,
          "name": "D4",
          "ticks": 209280,
          "time": 326.979072,
          "velocity": 0.4881889763779528
        },
        {
          "duration": 1.4608440000000087,
          "durationTicks": 935,
          "midi": 66,
          "name": "F#4",
          "ticks": 209280,
          "time": 326.979072,
          "velocity": 0.4881889763779528
        },
        {
          "duration": 0.46871999999996206,
          "durationTicks": 300,
          "midi": 67,
          "name": "G4",
          "ticks": 210240,
          "time": 328.478976,
          "velocity": 0.4881889763779528
        },
        {
          "duration": 0.5234040000000277,
          "durationTicks": 335,
          "midi": 71,
          "name": "B4",
          "ticks": 210240,
          "time": 328.478976,
          "velocity": 0.4881889763779528
        },
        {
          "duration": 0.5468400000000315,
          "durationTicks": 350,
          "midi": 66,
          "name": "F#4",
          "ticks": 210600,
          "time": 329.04143999999997,
          "velocity": 0.4881889763779528
        },
        {
          "duration": 0.5234040000000277,
          "durationTicks": 335,
          "midi": 69,
          "name": "A4",
          "ticks": 210600,
          "time": 329.04143999999997,
          "velocity": 0.4881889763779528
        },
        {
          "duration": 0.37497600000000375,
          "durationTicks": 240,
          "midi": 64,
          "name": "E4",
          "ticks": 210960,
          "time": 329.603904,
          "velocity": 0.4881889763779528
        },
        {
          "duration": 0.4218479999999545,
          "durationTicks": 270,
          "midi": 67,
          "name": "G4",
          "ticks": 210960,
          "time": 329.603904,
          "velocity": 0.4881889763779528
        },
        {
          "duration": 1.4999039999999582,
          "durationTicks": 960,
          "midi": 62,
          "name": "D4",
          "ticks": 211200,
          "time": 329.97888,
          "velocity": 0.48031496062992124
        },
        {
          "duration": 1.3983479999999417,
          "durationTicks": 895,
          "midi": 66,
          "name": "F#4",
          "ticks": 211200,
          "time": 329.97888,
          "velocity": 0.4881889763779528
        },
        {
          "duration": 0.47653200000002016,
          "durationTicks": 305,
          "midi": 67,
          "name": "G4",
          "ticks": 212160,
          "time": 331.47878399999996,
          "velocity": 0.48031496062992124
        },
        {
          "duration": 0.47653200000002016,
          "durationTicks": 305,
          "midi": 71,
          "name": "B4",
          "ticks": 212160,
          "time": 331.47878399999996,
          "velocity": 0.4881889763779528
        },
        {
          "duration": 0.5312159999999722,
          "durationTicks": 340,
          "midi": 66,
          "name": "F#4",
          "ticks": 212520,
          "time": 332.041248,
          "velocity": 0.48031496062992124
        },
        {
          "duration": 0.6483959999999911,
          "durationTicks": 415,
          "midi": 69,
          "name": "A4",
          "ticks": 212520,
          "time": 332.041248,
          "velocity": 0.4881889763779528
        },
        {
          "duration": 0.37497600000000375,
          "durationTicks": 240,
          "midi": 64,
          "name": "E4",
          "ticks": 212880,
          "time": 332.603712,
          "velocity": 0.48031496062992124
        },
        {
          "duration": 0.382788000000005,
          "durationTicks": 245,
          "midi": 67,
          "name": "G4",
          "ticks": 212880,
          "time": 332.603712,
          "velocity": 0.4251968503937008
        },
        {
          "duration": 5.413716000000022,
          "durationTicks": 3465,
          "midi": 62,
          "name": "D4",
          "ticks": 213120,
          "time": 332.978688,
          "velocity": 0.36220472440944884
        },
        {
          "duration": 5.444964000000027,
          "durationTicks": 3485,
          "midi": 66,
          "name": "F#4",
          "ticks": 213120,
          "time": 332.978688,
          "velocity": 0.36220472440944884
        },
        {
          "duration": 5.421528000000023,
          "durationTicks": 3470,
          "midi": 69,
          "name": "A4",
          "ticks": 213120,
          "time": 332.978688,
          "velocity": 0.5118110236220472
        }
      ]
    },
    {
      "channel": 0,
      "controlChanges": {
        "0": [
          {
            "number": 0,
            "ticks": 680,
            "time": 1.062432,
            "value": 0
          }
        ],
        "32": [
          {
            "number": 32,
            "ticks": 685,
            "time": 1.070244,
            "value": 0
          }
        ]
      },
      "pitchBends": [],
      "instrument": {
        "family": "piano",
        "number": 0,
        "name": "acoustic grand piano"
      },
      "name": "       ",
      "notes": [],
      "endOfTrackTicks": 192000
    },
    {
      "channel": 8,
      "controlChanges": {
        "7": [
          {
            "number": 7,
            "ticks": 695,
            "time": 1.085868,
            "value": 0.7874015748031497
          }
        ],
        "10": [
          {
            "number": 10,
            "ticks": 695,
            "time": 1.085868,
            "value": 0.5039370078740157
          }
        ],
        "11": [
          {
            "number": 11,
            "ticks": 695,
            "time": 1.085868,
            "value": 1
          },
          {
            "number": 11,
            "ticks": 95400,
            "time": 149.05295999999998,
            "value": 0.9921259842519685
          },
          {
            "number": 11,
            "ticks": 190105,
            "time": 297.02005199999996,
            "value": 0.984251968503937
          },
          {
            "number": 11,
            "ticks": 190135,
            "time": 297.066924,
            "value": 0.968503937007874
          },
          {
            "number": 11,
            "ticks": 190150,
            "time": 297.09036,
            "value": 0.952755905511811
          },
          {
            "number": 11,
            "ticks": 190180,
            "time": 297.137232,
            "value": 0.9448818897637795
          },
          {
            "number": 11,
            "ticks": 190210,
            "time": 297.184104,
            "value": 0.9291338582677166
          },
          {
            "number": 11,
            "ticks": 190240,
            "time": 297.23097599999994,
            "value": 0.9133858267716536
          },
          {
            "number": 11,
            "ticks": 190270,
            "time": 297.27784799999995,
            "value": 0.8976377952755905
          },
          {
            "number": 11,
            "ticks": 190330,
            "time": 297.37159199999996,
            "value": 0.8818897637795275
          },
          {
            "number": 11,
            "ticks": 190335,
            "time": 297.37940399999997,
            "value": 0.8740157480314961
          },
          {
            "number": 11,
            "ticks": 190365,
            "time": 297.426276,
            "value": 0.8582677165354331
          },
          {
            "number": 11,
            "ticks": 190390,
            "time": 297.465336,
            "value": 0.84251968503937
          },
          {
            "number": 11,
            "ticks": 190420,
            "time": 297.512208,
            "value": 0.8346456692913385
          },
          {
            "number": 11,
            "ticks": 190450,
            "time": 297.55908,
            "value": 0.8188976377952756
          },
          {
            "number": 11,
            "ticks": 190480,
            "time": 297.60595199999995,
            "value": 0.8031496062992126
          },
          {
            "number": 11,
            "ticks": 190505,
            "time": 297.645012,
            "value": 0.7874015748031497
          },
          {
            "number": 11,
            "ticks": 190565,
            "time": 297.738756,
            "value": 0.7716535433070866
          },
          {
            "number": 11,
            "ticks": 190570,
            "time": 297.74656799999997,
            "value": 0.7637795275590551
          },
          {
            "number": 11,
            "ticks": 190600,
            "time": 297.79344,
            "value": 0.7559055118110236
          },
          {
            "number": 11,
            "ticks": 190630,
            "time": 297.840312,
            "value": 0.7401574803149606
          },
          {
            "number": 11,
            "ticks": 190660,
            "time": 297.887184,
            "value": 0.7244094488188977
          },
          {
            "number": 11,
            "ticks": 190690,
            "time": 297.93405599999994,
            "value": 0.7086614173228346
          },
          {
            "number": 11,
            "ticks": 190720,
            "time": 297.98092799999995,
            "value": 0.7007874015748031
          },
          {
            "number": 11,
            "ticks": 190750,
            "time": 298.02779999999996,
            "value": 0.6850393700787402
          },
          {
            "number": 11,
            "ticks": 190780,
            "time": 298.07467199999996,
            "value": 0.6692913385826772
          },
          {
            "number": 11,
            "ticks": 190810,
            "time": 298.121544,
            "value": 0.6535433070866141
          },
          {
            "number": 11,
            "ticks": 190840,
            "time": 298.168416,
            "value": 0.6456692913385826
          },
          {
            "number": 11,
            "ticks": 190870,
            "time": 298.215288,
            "value": 0.6299212598425197
          },
          {
            "number": 11,
            "ticks": 190900,
            "time": 298.26216,
            "value": 0.6141732283464567
          },
          {
            "number": 11,
            "ticks": 190930,
            "time": 298.30903199999995,
            "value": 0.5984251968503937
          },
          {
            "number": 11,
            "ticks": 190960,
            "time": 298.35590399999995,
            "value": 0.5905511811023622
          },
          {
            "number": 11,
            "ticks": 190990,
            "time": 298.40277599999996,
            "value": 0.5748031496062992
          },
          {
            "number": 11,
            "ticks": 191020,
            "time": 298.44964799999997,
            "value": 0.5669291338582677
          },
          {
            "number": 11,
            "ticks": 191050,
            "time": 298.49652,
            "value": 0.5511811023622047
          },
          {
            "number": 11,
            "ticks": 191055,
            "time": 298.504332,
            "value": 0.5433070866141733
          },
          {
            "number": 11,
            "ticks": 191085,
            "time": 298.551204,
            "value": 0.5354330708661418
          },
          {
            "number": 11,
            "ticks": 191110,
            "time": 298.590264,
            "value": 0.5196850393700787
          },
          {
            "number": 11,
            "ticks": 191140,
            "time": 298.63713599999994,
            "value": 0.5039370078740157
          },
          {
            "number": 11,
            "ticks": 191170,
            "time": 298.68400799999995,
            "value": 0.4881889763779528
          },
          {
            "number": 11,
            "ticks": 191200,
            "time": 298.73087999999996,
            "value": 0.48031496062992124
          },
          {
            "number": 11,
            "ticks": 191230,
            "time": 298.77775199999996,
            "value": 0.4645669291338583
          },
          {
            "number": 11,
            "ticks": 191260,
            "time": 298.824624,
            "value": 0.4566929133858268
          },
          {
            "number": 11,
            "ticks": 191290,
            "time": 298.871496,
            "value": 0.4409448818897638
          },
          {
            "number": 11,
            "ticks": 191320,
            "time": 298.918368,
            "value": 0.4251968503937008
          },
          {
            "number": 11,
            "ticks": 191350,
            "time": 298.96524,
            "value": 0.4094488188976378
          },
          {
            "number": 11,
            "ticks": 191380,
            "time": 299.01211199999995,
            "value": 0.4015748031496063
          },
          {
            "number": 11,
            "ticks": 191410,
            "time": 299.05898399999995,
            "value": 0.3858267716535433
          },
          {
            "number": 11,
            "ticks": 191440,
            "time": 299.10585599999996,
            "value": 0.3700787401574803
          },
          {
            "number": 11,
            "ticks": 191470,
            "time": 299.15272799999997,
            "value": 0.3543307086614173
          },
          {
            "number": 11,
            "ticks": 191500,
            "time": 299.1996,
            "value": 0.3464566929133858
          },
          {
            "number": 11,
            "ticks": 191530,
            "time": 299.246472,
            "value": 0.33070866141732286
          },
          {
            "number": 11,
            "ticks": 191560,
            "time": 299.293344,
            "value": 0.31496062992125984
          },
          {
            "number": 11,
            "ticks": 191590,
            "time": 299.34021599999994,
            "value": 0.2992125984251969
          },
          {
            "number": 11,
            "ticks": 191620,
            "time": 299.38708799999995,
            "value": 0.29133858267716534
          },
          {
            "number": 11,
            "ticks": 191650,
            "time": 299.43395999999996,
            "value": 0.2755905511811024
          },
          {
            "number": 11,
            "ticks": 191680,
            "time": 299.48083199999996,
            "value": 0.25984251968503935
          },
          {
            "number": 11,
            "ticks": 191710,
            "time": 299.52770399999997,
            "value": 0.2440944881889764
          },
          {
            "number": 11,
            "ticks": 191770,
            "time": 299.621448,
            "value": 0.2283464566929134
          },
          {
            "number": 11,
            "ticks": 191775,
            "time": 299.62926,
            "value": 0.2204724409448819
          },
          {
            "number": 11,
            "ticks": 191805,
            "time": 299.676132,
            "value": 0.2047244094488189
          },
          {
            "number": 11,
            "ticks": 191830,
            "time": 299.71519199999994,
            "value": 0.1889763779527559
          }
        ],
        "91": [
          {
            "number": 91,
            "ticks": 700,
            "time": 1.09368,
            "value": 0.4330708661417323
          }
        ],
        "93": [
          {
            "number": 93,
            "ticks": 700,
            "time": 1.09368,
            "value": 0
          }
        ]
      },
      "pitchBends": [],
      "instrument": {
        "family": "pipe",
        "number": 73,
        "name": "flute"
      },
      "name": "",
      "notes": [
        {
          "duration": 1.4842800000000125,
          "durationTicks": 950,
          "midi": 79,
          "name": "G5",
          "ticks": 138240,
          "time": 215.986176,
          "velocity": 0.5748031496062992
        },
        {
          "duration": 1.4999039999999866,
          "durationTicks": 960,
          "midi": 77,
          "name": "F5",
          "ticks": 139200,
          "time": 217.48608,
          "velocity": 0.5590551181102362
        },
        {
          "duration": 1.4920919999999853,
          "durationTicks": 955,
          "midi": 75,
          "name": "D#5",
          "ticks": 140160,
          "time": 218.98598399999997,
          "velocity": 0.5433070866141733
        },
        {
          "duration": 1.4999039999999866,
          "durationTicks": 960,
          "midi": 74,
          "name": "D5",
          "ticks": 141120,
          "time": 220.485888,
          "velocity": 0.5905511811023622
        },
        {
          "duration": 1.499904000000015,
          "durationTicks": 960,
          "midi": 72,
          "name": "C5",
          "ticks": 142080,
          "time": 221.98579199999998,
          "velocity": 0.6850393700787402
        },
        {
          "duration": 1.4061599999999999,
          "durationTicks": 900,
          "midi": 75,
          "name": "D#5",
          "ticks": 143040,
          "time": 223.485696,
          "velocity": 0.6850393700787402
        },
        {
          "duration": 2.6013960000000225,
          "durationTicks": 1665,
          "midi": 74,
          "name": "D5",
          "ticks": 144000,
          "time": 224.98559999999998,
          "velocity": 0.5354330708661418
        },
        {
          "duration": 0.4062240000000088,
          "durationTicks": 260,
          "midi": 86,
          "name": "D6",
          "ticks": 149040,
          "time": 232.860096,
          "velocity": 0.4645669291338583
        },
        {
          "duration": 0.39841200000000754,
          "durationTicks": 255,
          "midi": 88,
          "name": "E6",
          "ticks": 149280,
          "time": 233.23507199999997,
          "velocity": 0.4645669291338583
        },
        {
          "duration": 0.3671640000000025,
          "durationTicks": 235,
          "midi": 89,
          "name": "F6",
          "ticks": 149520,
          "time": 233.61004799999998,
          "velocity": 0.4645669291338583
        },
        {
          "duration": 2.242043999999993,
          "durationTicks": 1435,
          "midi": 91,
          "name": "G6",
          "ticks": 149760,
          "time": 233.98502399999998,
          "velocity": 0.4645669291338583
        },
        {
          "duration": 1.1093040000000371,
          "durationTicks": 710,
          "midi": 89,
          "name": "F6",
          "ticks": 151200,
          "time": 236.23487999999998,
          "velocity": 0.44881889763779526
        },
        {
          "duration": 1.8123840000000087,
          "durationTicks": 1160,
          "midi": 88,
          "name": "E6",
          "ticks": 151920,
          "time": 237.359808,
          "velocity": 0.44881889763779526
        },
        {
          "duration": 1.4842800000000125,
          "durationTicks": 950,
          "midi": 81,
          "name": "A5",
          "ticks": 153600,
          "time": 239.98463999999998,
          "velocity": 0.6377952755905512
        },
        {
          "duration": 1.499904000000015,
          "durationTicks": 960,
          "midi": 79,
          "name": "G5",
          "ticks": 154560,
          "time": 241.48454399999997,
          "velocity": 0.6220472440944882
        },
        {
          "duration": 1.4999039999999866,
          "durationTicks": 960,
          "midi": 77,
          "name": "F5",
          "ticks": 155520,
          "time": 242.984448,
          "velocity": 0.6062992125984252
        },
        {
          "duration": 1.499904000000015,
          "durationTicks": 960,
          "midi": 76,
          "name": "E5",
          "ticks": 156480,
          "time": 244.48435199999997,
          "velocity": 0.6535433070866141
        },
        {
          "duration": 1.4999039999999866,
          "durationTicks": 960,
          "midi": 74,
          "name": "D5",
          "ticks": 157440,
          "time": 245.984256,
          "velocity": 0.7480314960629921
        },
        {
          "duration": 1.4061599999999999,
          "durationTicks": 900,
          "midi": 77,
          "name": "F5",
          "ticks": 158400,
          "time": 247.48415999999997,
          "velocity": 0.7480314960629921
        },
        {
          "duration": 2.601395999999994,
          "durationTicks": 1665,
          "midi": 76,
          "name": "E5",
          "ticks": 159360,
          "time": 248.984064,
          "velocity": 0.5984251968503937
        },
        {
          "duration": 0.4062240000000088,
          "durationTicks": 260,
          "midi": 88,
          "name": "E6",
          "ticks": 164400,
          "time": 256.85856,
          "velocity": 0.4645669291338583
        },
        {
          "duration": 0.39841200000000754,
          "durationTicks": 255,
          "midi": 90,
          "name": "F#6",
          "ticks": 164640,
          "time": 257.23353599999996,
          "velocity": 0.4645669291338583
        },
        {
          "duration": 0.3671640000000025,
          "durationTicks": 235,
          "midi": 91,
          "name": "G6",
          "ticks": 164880,
          "time": 257.60851199999996,
          "velocity": 0.4645669291338583
        },
        {
          "duration": 2.2420440000000212,
          "durationTicks": 1435,
          "midi": 93,
          "name": "A6",
          "ticks": 165120,
          "time": 257.98348799999997,
          "velocity": 0.4645669291338583
        },
        {
          "duration": 0.7499520000000075,
          "durationTicks": 480,
          "midi": 91,
          "name": "G6",
          "ticks": 166560,
          "time": 260.233344,
          "velocity": 0.44881889763779526
        },
        {
          "duration": 0.3437279999999987,
          "durationTicks": 220,
          "midi": 91,
          "name": "G6",
          "ticks": 167040,
          "time": 260.983296,
          "velocity": 0.4881889763779528
        },
        {
          "duration": 0.22654799999997977,
          "durationTicks": 145,
          "midi": 90,
          "name": "F#6",
          "ticks": 167280,
          "time": 261.358272,
          "velocity": 0.4881889763779528
        },
        {
          "duration": 0.1796759999999722,
          "durationTicks": 115,
          "midi": 90,
          "name": "F#6",
          "ticks": 167520,
          "time": 261.733248,
          "velocity": 0.4881889763779528
        },
        {
          "duration": 0.4062240000000088,
          "durationTicks": 260,
          "midi": 91,
          "name": "G6",
          "ticks": 167640,
          "time": 261.920736,
          "velocity": 0.4881889763779528
        },
        {
          "duration": 0.8202600000000189,
          "durationTicks": 525,
          "midi": 90,
          "name": "F#6",
          "ticks": 167880,
          "time": 262.295712,
          "velocity": 0.4881889763779528
        },
        {
          "duration": 1.4842800000000125,
          "durationTicks": 950,
          "midi": 83,
          "name": "B5",
          "ticks": 168960,
          "time": 263.98310399999997,
          "velocity": 0.6377952755905512
        },
        {
          "duration": 1.499904000000015,
          "durationTicks": 960,
          "midi": 81,
          "name": "A5",
          "ticks": 169920,
          "time": 265.483008,
          "velocity": 0.6220472440944882
        },
        {
          "duration": 1.4999039999999582,
          "durationTicks": 960,
          "midi": 79,
          "name": "G5",
          "ticks": 170880,
          "time": 266.982912,
          "velocity": 0.6062992125984252
        },
        {
          "duration": 1.499904000000015,
          "durationTicks": 960,
          "midi": 78,
          "name": "F#5",
          "ticks": 171840,
          "time": 268.48281599999996,
          "velocity": 0.6535433070866141
        },
        {
          "duration": 1.499904000000015,
          "durationTicks": 960,
          "midi": 76,
          "name": "E5",
          "ticks": 172800,
          "time": 269.98272,
          "velocity": 0.7480314960629921
        },
        {
          "duration": 1.4061599999999999,
          "durationTicks": 900,
          "midi": 79,
          "name": "G5",
          "ticks": 173760,
          "time": 271.482624,
          "velocity": 0.7480314960629921
        },
        {
          "duration": 2.226419999999962,
          "durationTicks": 1425,
          "midi": 78,
          "name": "F#5",
          "ticks": 174720,
          "time": 272.982528,
          "velocity": 0.5984251968503937
        },
        {
          "duration": 1.4842800000000125,
          "durationTicks": 950,
          "midi": 83,
          "name": "B5",
          "ticks": 176640,
          "time": 275.982336,
          "velocity": 0.6377952755905512
        },
        {
          "duration": 1.499904000000015,
          "durationTicks": 960,
          "midi": 81,
          "name": "A5",
          "ticks": 177600,
          "time": 277.48224,
          "velocity": 0.6220472440944882
        },
        {
          "duration": 1.4999039999999582,
          "durationTicks": 960,
          "midi": 79,
          "name": "G5",
          "ticks": 178560,
          "time": 278.982144,
          "velocity": 0.6062992125984252
        },
        {
          "duration": 1.499904000000015,
          "durationTicks": 960,
          "midi": 78,
          "name": "F#5",
          "ticks": 179520,
          "time": 280.48204799999996,
          "velocity": 0.6535433070866141
        },
        {
          "duration": 1.499904000000015,
          "durationTicks": 960,
          "midi": 76,
          "name": "E5",
          "ticks": 180480,
          "time": 281.981952,
          "velocity": 0.7480314960629921
        },
        {
          "duration": 1.4061599999999999,
          "durationTicks": 900,
          "midi": 79,
          "name": "G5",
          "ticks": 181440,
          "time": 283.481856,
          "velocity": 0.7480314960629921
        },
        {
          "duration": 1.4764679999999544,
          "durationTicks": 945,
          "midi": 78,
          "name": "F#5",
          "ticks": 182400,
          "time": 284.98176,
          "velocity": 0.5984251968503937
        },
        {
          "duration": 1.4842800000000125,
          "durationTicks": 950,
          "midi": 83,
          "name": "B5",
          "ticks": 184320,
          "time": 287.981568,
          "velocity": 0.6377952755905512
        },
        {
          "duration": 1.4999039999999582,
          "durationTicks": 960,
          "midi": 81,
          "name": "A5",
          "ticks": 185280,
          "time": 289.481472,
          "velocity": 0.6220472440944882
        },
        {
          "duration": 1.499904000000015,
          "durationTicks": 960,
          "midi": 79,
          "name": "G5",
          "ticks": 186240,
          "time": 290.98137599999995,
          "velocity": 0.6062992125984252
        },
        {
          "duration": 1.499904000000015,
          "durationTicks": 960,
          "midi": 78,
          "name": "F#5",
          "ticks": 187200,
          "time": 292.48127999999997,
          "velocity": 0.6535433070866141
        },
        {
          "duration": 1.499904000000015,
          "durationTicks": 960,
          "midi": 76,
          "name": "E5",
          "ticks": 188160,
          "time": 293.981184,
          "velocity": 0.7480314960629921
        },
        {
          "duration": 0.5390279999999734,
          "durationTicks": 345,
          "midi": 79,
          "name": "G5",
          "ticks": 189120,
          "time": 295.481088,
          "velocity": 0.6692913385826772
        },
        {
          "duration": 0.5624639999999772,
          "durationTicks": 360,
          "midi": 78,
          "name": "F#5",
          "ticks": 189480,
          "time": 296.043552,
          "velocity": 0.6377952755905512
        },
        {
          "duration": 0.37497600000000375,
          "durationTicks": 240,
          "midi": 76,
          "name": "E5",
          "ticks": 189840,
          "time": 296.60601599999995,
          "velocity": 0.6062992125984252
        },
        {
          "duration": 2.3982840000000465,
          "durationTicks": 1535,
          "midi": 74,
          "name": "D5",
          "ticks": 190080,
          "time": 296.98099199999996,
          "velocity": 0.5826771653543307
        }
      ]
    },
    {
      "channel": 9,
      "controlChanges": {
        "0": [
          {
            "number": 0,
            "ticks": 705,
            "time": 1.101492,
            "value": 0
          }
        ],
        "7": [
          {
            "number": 7,
            "ticks": 720,
            "time": 1.124928,
            "value": 0.7874015748031497
          }
        ],
        "10": [
          {
            "number": 10,
            "ticks": 720,
            "time": 1.124928,
            "value": 0.5039370078740157
          }
        ],
        "11": [
          {
            "number": 11,
            "ticks": 720,
            "time": 1.124928,
            "value": 1
          }
        ],
        "32": [
          {
            "number": 32,
            "ticks": 710,
            "time": 1.109304,
            "value": 0
          }
        ],
        "91": [
          {
            "number": 91,
            "ticks": 725,
            "time": 1.13274,
            "value": 0.31496062992125984
          }
        ],
        "93": [
          {
            "number": 93,
            "ticks": 725,
            "time": 1.13274,
            "value": 0
          }
        ]
      },
      "pitchBends": [],
      "instrument": {
        "family": "drums",
        "number": 0,
        "name": "standard kit"
      },
      "name": "        ",
      "notes": [
        {
          "duration": 0.02343599999999979,
          "durationTicks": 15,
          "midi": 42,
          "name": "F#2",
          "ticks": 1920,
          "time": 2.999808,
          "velocity": 0.3937007874015748
        },
        {
          "duration": 0.02343599999999979,
          "durationTicks": 15,
          "midi": 42,
          "name": "F#2",
          "ticks": 2400,
          "time": 3.7497599999999998,
          "velocity": 0.31496062992125984
        },
        {
          "duration": 0.023436000000000234,
          "durationTicks": 15,
          "midi": 42,
          "name": "F#2",
          "ticks": 2880,
          "time": 4.499712,
          "velocity": 0.31496062992125984
        },
        {
          "duration": 0.023436000000000234,
          "durationTicks": 15,
          "midi": 42,
          "name": "F#2",
          "ticks": 3360,
          "time": 5.249663999999999,
          "velocity": 0.31496062992125984
        },
        {
          "duration": 0.023436000000000234,
          "durationTicks": 15,
          "midi": 42,
          "name": "F#2",
          "ticks": 3840,
          "time": 5.999616,
          "velocity": 0.3937007874015748
        },
        {
          "duration": 0.023435999999999346,
          "durationTicks": 15,
          "midi": 42,
          "name": "F#2",
          "ticks": 4320,
          "time": 6.749568,
          "velocity": 0.31496062992125984
        },
        {
          "duration": 0.023436000000000234,
          "durationTicks": 15,
          "midi": 42,
          "name": "F#2",
          "ticks": 4800,
          "time": 7.4995199999999995,
          "velocity": 0.31496062992125984
        },
        {
          "duration": 0.023436000000000234,
          "durationTicks": 15,
          "midi": 42,
          "name": "F#2",
          "ticks": 5280,
          "time": 8.249471999999999,
          "velocity": 0.31496062992125984
        },
        {
          "duration": 0.023435999999998458,
          "durationTicks": 15,
          "midi": 35,
          "name": "B1",
          "ticks": 8640,
          "time": 13.499136,
          "velocity": 0.6692913385826772
        },
        {
          "duration": 0.023435999999998458,
          "durationTicks": 15,
          "midi": 44,
          "name": "G#2",
          "ticks": 8640,
          "time": 13.499136,
          "velocity": 0.5669291338582677
        },
        {
          "duration": 0.023435999999998458,
          "durationTicks": 15,
          "midi": 70,
          "name": "A#4",
          "ticks": 8640,
          "time": 13.499136,
          "velocity": 0.6220472440944882
        },
        {
          "duration": 0.023435999999998458,
          "durationTicks": 15,
          "midi": 82,
          "name": "A#5",
          "ticks": 8640,
          "time": 13.499136,
          "velocity": 0.3858267716535433
        },
        {
          "duration": 0.023436000000000234,
          "durationTicks": 15,
          "midi": 44,
          "name": "G#2",
          "ticks": 8760,
          "time": 13.686623999999998,
          "velocity": 0.36220472440944884
        },
        {
          "duration": 0.023436000000000234,
          "durationTicks": 15,
          "midi": 70,
          "name": "A#4",
          "ticks": 8760,
          "time": 13.686623999999998,
          "velocity": 0.47244094488188976
        },
        {
          "duration": 0.023436000000000234,
          "durationTicks": 15,
          "midi": 44,
          "name": "G#2",
          "ticks": 8880,
          "time": 13.874111999999998,
          "velocity": 0.5039370078740157
        },
        {
          "duration": 0.023436000000000234,
          "durationTicks": 15,
          "midi": 70,
          "name": "A#4",
          "ticks": 8880,
          "time": 13.874111999999998,
          "velocity": 0.5196850393700787
        },
        {
          "duration": 0.023436000000000234,
          "durationTicks": 15,
          "midi": 82,
          "name": "A#5",
          "ticks": 8880,
          "time": 13.874111999999998,
          "velocity": 0.4251968503937008
        },
        {
          "duration": 0.023436000000000234,
          "durationTicks": 15,
          "midi": 44,
          "name": "G#2",
          "ticks": 9000,
          "time": 14.061599999999999,
          "velocity": 0.41732283464566927
        },
        {
          "duration": 0.023436000000000234,
          "durationTicks": 15,
          "midi": 70,
          "name": "A#4",
          "ticks": 9000,
          "time": 14.061599999999999,
          "velocity": 0.47244094488188976
        },
        {
          "duration": 0.023436000000000234,
          "durationTicks": 15,
          "midi": 82,
          "name": "A#5",
          "ticks": 9000,
          "time": 14.061599999999999,
          "velocity": 0.4566929133858268
        },
        {
          "duration": 0.023436000000000234,
          "durationTicks": 15,
          "midi": 37,
          "name": "C#2",
          "ticks": 9120,
          "time": 14.249087999999999,
          "velocity": 0.8031496062992126
        },
        {
          "duration": 0.023436000000000234,
          "durationTicks": 15,
          "midi": 44,
          "name": "G#2",
          "ticks": 9120,
          "time": 14.249087999999999,
          "velocity": 0.6062992125984252
        },
        {
          "duration": 0.023436000000000234,
          "durationTicks": 15,
          "midi": 70,
          "name": "A#4",
          "ticks": 9120,
          "time": 14.249087999999999,
          "velocity": 0.6535433070866141
        },
        {
          "duration": 0.023436000000000234,
          "durationTicks": 15,
          "midi": 82,
          "name": "A#5",
          "ticks": 9120,
          "time": 14.249087999999999,
          "velocity": 0.4881889763779528
        },
        {
          "duration": 0.023436000000000234,
          "durationTicks": 15,
          "midi": 44,
          "name": "G#2",
          "ticks": 9240,
          "time": 14.436575999999999,
          "velocity": 0.4409448818897638
        },
        {
          "duration": 0.023436000000000234,
          "durationTicks": 15,
          "midi": 70,
          "name": "A#4",
          "ticks": 9240,
          "time": 14.436575999999999,
          "velocity": 0.49606299212598426
        },
        {
          "duration": 0.023436000000000234,
          "durationTicks": 15,
          "midi": 46,
          "name": "A#2",
          "ticks": 9360,
          "time": 14.624063999999999,
          "velocity": 0.5511811023622047
        },
        {
          "duration": 0.023436000000000234,
          "durationTicks": 15,
          "midi": 70,
          "name": "A#4",
          "ticks": 9360,
          "time": 14.624063999999999,
          "velocity": 0.5433070866141733
        },
        {
          "duration": 0.023436000000000234,
          "durationTicks": 15,
          "midi": 82,
          "name": "A#5",
          "ticks": 9360,
          "time": 14.624063999999999,
          "velocity": 0.47244094488188976
        },
        {
          "duration": 0.023436000000000234,
          "durationTicks": 15,
          "midi": 35,
          "name": "B1",
          "ticks": 9480,
          "time": 14.811551999999999,
          "velocity": 0.7165354330708661
        },
        {
          "duration": 0.023436000000000234,
          "durationTicks": 15,
          "midi": 70,
          "name": "A#4",
          "ticks": 9480,
          "time": 14.811551999999999,
          "velocity": 0.49606299212598426
        },
        {
          "duration": 0.023436000000000234,
          "durationTicks": 15,
          "midi": 82,
          "name": "A#5",
          "ticks": 9480,
          "time": 14.811551999999999,
          "velocity": 0.4330708661417323
        },
        {
          "duration": 0.023436000000000234,
          "durationTicks": 15,
          "midi": 35,
          "name": "B1",
          "ticks": 9600,
          "time": 14.999039999999999,
          "velocity": 0.8110236220472441
        },
        {
          "duration": 0.023436000000000234,
          "durationTicks": 15,
          "midi": 44,
          "name": "G#2",
          "ticks": 9600,
          "time": 14.999039999999999,
          "velocity": 0.6377952755905512
        },
        {
          "duration": 0.023436000000000234,
          "durationTicks": 15,
          "midi": 49,
          "name": "C#3",
          "ticks": 9600,
          "time": 14.999039999999999,
          "velocity": 0.4094488188976378
        },
        {
          "duration": 0.023436000000000234,
          "durationTicks": 15,
          "midi": 59,
          "name": "B3",
          "ticks": 9600,
          "time": 14.999039999999999,
          "velocity": 0.889763779527559
        },
        {
          "duration": 0.023436000000000234,
          "durationTicks": 15,
          "midi": 70,
          "name": "A#4",
          "ticks": 9600,
          "time": 14.999039999999999,
          "velocity": 0.7322834645669292
        },
        {
          "duration": 0.023436000000000234,
          "durationTicks": 15,
          "midi": 70,
          "name": "A#4",
          "ticks": 9720,
          "time": 15.186528,
          "velocity": 0.4645669291338583
        },
        {
          "duration": 0.023436000000000234,
          "durationTicks": 15,
          "midi": 44,
          "name": "G#2",
          "ticks": 9840,
          "time": 15.374016,
          "velocity": 0.4881889763779528
        },
        {
          "duration": 0.023436000000000234,
          "durationTicks": 15,
          "midi": 70,
          "name": "A#4",
          "ticks": 9840,
          "time": 15.374016,
          "velocity": 0.5354330708661418
        },
        {
          "duration": 0.023436000000000234,
          "durationTicks": 15,
          "midi": 82,
          "name": "A#5",
          "ticks": 9840,
          "time": 15.374016,
          "velocity": 0.3700787401574803
        },
        {
          "duration": 0.023436000000000234,
          "durationTicks": 15,
          "midi": 70,
          "name": "A#4",
          "ticks": 9960,
          "time": 15.561504,
          "velocity": 0.44881889763779526
        },
        {
          "duration": 0.023436000000000234,
          "durationTicks": 15,
          "midi": 82,
          "name": "A#5",
          "ticks": 9960,
          "time": 15.561504,
          "velocity": 0.3858267716535433
        },
        {
          "duration": 0.023436000000000234,
          "durationTicks": 15,
          "midi": 37,
          "name": "C#2",
          "ticks": 10080,
          "time": 15.748992,
          "velocity": 1
        },
        {
          "duration": 0.023436000000000234,
          "durationTicks": 15,
          "midi": 44,
          "name": "G#2",
          "ticks": 10080,
          "time": 15.748992,
          "velocity": 0.6377952755905512
        },
        {
          "duration": 0.023436000000000234,
          "durationTicks": 15,
          "midi": 70,
          "name": "A#4",
          "ticks": 10080,
          "time": 15.748992,
          "velocity": 0.7322834645669292
        },
        {
          "duration": 0.023436000000000234,
          "durationTicks": 15,
          "midi": 82,
          "name": "A#5",
          "ticks": 10080,
          "time": 15.748992,
          "velocity": 0.49606299212598426
        },
        {
          "duration": 0.023436000000000234,
          "durationTicks": 15,
          "midi": 70,
          "name": "A#4",
          "ticks": 10200,
          "time": 15.93648,
          "velocity": 0.4645669291338583
        },
        {
          "duration": 0.023436000000000234,
          "durationTicks": 15,
          "midi": 35,
          "name": "B1",
          "ticks": 10320,
          "time": 16.123967999999998,
          "velocity": 0.6850393700787402
        },
        {
          "duration": 0.023436000000000234,
          "durationTicks": 15,
          "midi": 44,
          "name": "G#2",
          "ticks": 10320,
          "time": 16.123967999999998,
          "velocity": 0.49606299212598426
        },
        {
          "duration": 0.023436000000000234,
          "durationTicks": 15,
          "midi": 70,
          "name": "A#4",
          "ticks": 10320,
          "time": 16.123967999999998,
          "velocity": 0.5354330708661418
        },
        {
          "duration": 0.023436000000000234,
          "durationTicks": 15,
          "midi": 35,
          "name": "B1",
          "ticks": 10440,
          "time": 16.311456,
          "velocity": 0.6850393700787402
        },
        {
          "duration": 0.023436000000000234,
          "durationTicks": 15,
          "midi": 44,
          "name": "G#2",
          "ticks": 10440,
          "time": 16.311456,
          "velocity": 0.36220472440944884
        },
        {
          "duration": 0.023436000000000234,
          "durationTicks": 15,
          "midi": 70,
          "name": "A#4",
          "ticks": 10440,
          "time": 16.311456,
          "velocity": 0.44881889763779526
        },
        {
          "duration": 0.023436000000000234,
          "durationTicks": 15,
          "midi": 82,
          "name": "A#5",
          "ticks": 10440,
          "time": 16.311456,
          "velocity": 0.33070866141732286
        },
        {
          "duration": 0.023436000000000234,
          "durationTicks": 15,
          "midi": 35,
          "name": "B1",
          "ticks": 10560,
          "time": 16.498943999999998,
          "velocity": 0.8110236220472441
        },
        {
          "duration": 0.023436000000000234,
          "durationTicks": 15,
          "midi": 44,
          "name": "G#2",
          "ticks": 10560,
          "time": 16.498943999999998,
          "velocity": 0.6377952755905512
        },
        {
          "duration": 0.023436000000000234,
          "durationTicks": 15,
          "midi": 70,
          "name": "A#4",
          "ticks": 10560,
          "time": 16.498943999999998,
          "velocity": 0.7322834645669292
        },
        {
          "duration": 0.023436000000000234,
          "durationTicks": 15,
          "midi": 82,
          "name": "A#5",
          "ticks": 10560,
          "time": 16.498943999999998,
          "velocity": 0.33858267716535434
        },
        {
          "duration": 0.023436000000000234,
          "durationTicks": 15,
          "midi": 44,
          "name": "G#2",
          "ticks": 10680,
          "time": 16.686432,
          "velocity": 0.29133858267716534
        },
        {
          "duration": 0.023436000000000234,
          "durationTicks": 15,
          "midi": 70,
          "name": "A#4",
          "ticks": 10680,
          "time": 16.686432,
          "velocity": 0.4645669291338583
        },
        {
          "duration": 0.023436000000000234,
          "durationTicks": 15,
          "midi": 44,
          "name": "G#2",
          "ticks": 10800,
          "time": 16.87392,
          "velocity": 0.5118110236220472
        },
        {
          "duration": 0.023436000000000234,
          "durationTicks": 15,
          "midi": 70,
          "name": "A#4",
          "ticks": 10800,
          "time": 16.87392,
          "velocity": 0.5354330708661418
        },
        {
          "duration": 0.023436000000000234,
          "durationTicks": 15,
          "midi": 82,
          "name": "A#5",
          "ticks": 10800,
          "time": 16.87392,
          "velocity": 0.3858267716535433
        },
        {
          "duration": 0.023436000000000234,
          "durationTicks": 15,
          "midi": 44,
          "name": "G#2",
          "ticks": 10920,
          "time": 17.061408,
          "velocity": 0.36220472440944884
        },
        {
          "duration": 0.023436000000000234,
          "durationTicks": 15,
          "midi": 70,
          "name": "A#4",
          "ticks": 10920,
          "time": 17.061408,
          "velocity": 0.44881889763779526
        },
        {
          "duration": 0.023436000000000234,
          "durationTicks": 15,
          "midi": 82,
          "name": "A#5",
          "ticks": 10920,
          "time": 17.061408,
          "velocity": 0.41732283464566927
        },
        {
          "duration": 0.023436000000000234,
          "durationTicks": 15,
          "midi": 37,
          "name": "C#2",
          "ticks": 11040,
          "time": 17.248896,
          "velocity": 0.984251968503937
        },
        {
          "duration": 0.023436000000000234,
          "durationTicks": 15,
          "midi": 44,
          "name": "G#2",
          "ticks": 11040,
          "time": 17.248896,
          "velocity": 0.6535433070866141
        },
        {
          "duration": 0.023436000000000234,
          "durationTicks": 15,
          "midi": 70,
          "name": "A#4",
          "ticks": 11040,
          "time": 17.248896,
          "velocity": 0.7322834645669292
        },
        {
          "duration": 0.023436000000000234,
          "durationTicks": 15,
          "midi": 82,
          "name": "A#5",
          "ticks": 11040,
          "time": 17.248896,
          "velocity": 0.4645669291338583
        },
        {
          "duration": 0.023436000000000234,
          "durationTicks": 15,
          "midi": 44,
          "name": "G#2",
          "ticks": 11160,
          "time": 17.436384,
          "velocity": 0.3779527559055118
        },
        {
          "duration": 0.023436000000000234,
          "durationTicks": 15,
          "midi": 70,
          "name": "A#4",
          "ticks": 11160,
          "time": 17.436384,
          "velocity": 0.4645669291338583
        },
        {
          "duration": 0.023436000000000234,
          "durationTicks": 15,
          "midi": 46,
          "name": "A#2",
          "ticks": 11280,
          "time": 17.623872,
          "velocity": 0.5433070866141733
        },
        {
          "duration": 0.023436000000000234,
          "durationTicks": 15,
          "midi": 70,
          "name": "A#4",
          "ticks": 11280,
          "time": 17.623872,
          "velocity": 0.5354330708661418
        },
        {
          "duration": 0.023436000000000234,
          "durationTicks": 15,
          "midi": 82,
          "name": "A#5",
          "ticks": 11280,
          "time": 17.623872,
          "velocity": 0.41732283464566927
        },
        {
          "duration": 0.02343599999999668,
          "durationTicks": 15,
          "midi": 70,
          "name": "A#4",
          "ticks": 11400,
          "time": 17.81136,
          "velocity": 0.44881889763779526
        },
        {
          "duration": 0.02343599999999668,
          "durationTicks": 15,
          "midi": 82,
          "name": "A#5",
          "ticks": 11400,
          "time": 17.81136,
          "velocity": 0.33858267716535434
        },
        {
          "duration": 0.023436000000000234,
          "durationTicks": 15,
          "midi": 35,
          "name": "B1",
          "ticks": 11520,
          "time": 17.998848,
          "velocity": 0.8110236220472441
        },
        {
          "duration": 0.023436000000000234,
          "durationTicks": 15,
          "midi": 44,
          "name": "G#2",
          "ticks": 11520,
          "time": 17.998848,
          "velocity": 0.6377952755905512
        },
        {
          "duration": 0.023436000000000234,
          "durationTicks": 15,
          "midi": 70,
          "name": "A#4",
          "ticks": 11520,
          "time": 17.998848,
          "velocity": 0.7322834645669292
        },
        {
          "duration": 0.023436000000000234,
          "durationTicks": 15,
          "midi": 70,
          "name": "A#4",
          "ticks": 11640,
          "time": 18.186335999999997,
          "velocity": 0.4645669291338583
        },
        {
          "duration": 0.023436000000000234,
          "durationTicks": 15,
          "midi": 44,
          "name": "G#2",
          "ticks": 11760,
          "time": 18.373824,
          "velocity": 0.4881889763779528
        },
        {
          "duration": 0.023436000000000234,
          "durationTicks": 15,
          "midi": 70,
          "name": "A#4",
          "ticks": 11760,
          "time": 18.373824,
          "velocity": 0.5354330708661418
        },
        {
          "duration": 0.023436000000000234,
          "durationTicks": 15,
          "midi": 82,
          "name": "A#5",
          "ticks": 11760,
          "time": 18.373824,
          "velocity": 0.3700787401574803
        },
        {
          "duration": 0.023436000000000234,
          "durationTicks": 15,
          "midi": 70,
          "name": "A#4",
          "ticks": 11880,
          "time": 18.561311999999997,
          "velocity": 0.44881889763779526
        },
        {
          "duration": 0.023436000000000234,
          "durationTicks": 15,
          "midi": 82,
          "name": "A#5",
          "ticks": 11880,
          "time": 18.561311999999997,
          "velocity": 0.3858267716535433
        },
        {
          "duration": 0.023436000000000234,
          "durationTicks": 15,
          "midi": 37,
          "name": "C#2",
          "ticks": 12000,
          "time": 18.7488,
          "velocity": 1
        },
        {
          "duration": 0.023436000000000234,
          "durationTicks": 15,
          "midi": 44,
          "name": "G#2",
          "ticks": 12000,
          "time": 18.7488,
          "velocity": 0.6377952755905512
        },
        {
          "duration": 0.023436000000000234,
          "durationTicks": 15,
          "midi": 70,
          "name": "A#4",
          "ticks": 12000,
          "time": 18.7488,
          "velocity": 0.7322834645669292
        },
        {
          "duration": 0.023436000000000234,
          "durationTicks": 15,
          "midi": 82,
          "name": "A#5",
          "ticks": 12000,
          "time": 18.7488,
          "velocity": 0.49606299212598426
        },
        {
          "duration": 0.023436000000000234,
          "durationTicks": 15,
          "midi": 70,
          "name": "A#4",
          "ticks": 12120,
          "time": 18.936287999999998,
          "velocity": 0.4645669291338583
        },
        {
          "duration": 0.023436000000000234,
          "durationTicks": 15,
          "midi": 35,
          "name": "B1",
          "ticks": 12240,
          "time": 19.123776,
          "velocity": 0.8110236220472441
        },
        {
          "duration": 0.023436000000000234,
          "durationTicks": 15,
          "midi": 44,
          "name": "G#2",
          "ticks": 12240,
          "time": 19.123776,
          "velocity": 0.49606299212598426
        },
        {
          "duration": 0.023436000000000234,
          "durationTicks": 15,
          "midi": 70,
          "name": "A#4",
          "ticks": 12240,
          "time": 19.123776,
          "velocity": 0.5354330708661418
        },
        {
          "duration": 0.023436000000000234,
          "durationTicks": 15,
          "midi": 44,
          "name": "G#2",
          "ticks": 12360,
          "time": 19.311263999999998,
          "velocity": 0.36220472440944884
        },
        {
          "duration": 0.023436000000000234,
          "durationTicks": 15,
          "midi": 70,
          "name": "A#4",
          "ticks": 12360,
          "time": 19.311263999999998,
          "velocity": 0.44881889763779526
        },
        {
          "duration": 0.023436000000000234,
          "durationTicks": 15,
          "midi": 82,
          "name": "A#5",
          "ticks": 12360,
          "time": 19.311263999999998,
          "velocity": 0.33070866141732286
        },
        {
          "duration": 0.023436000000000234,
          "durationTicks": 15,
          "midi": 35,
          "name": "B1",
          "ticks": 12480,
          "time": 19.498752,
          "velocity": 0.8110236220472441
        },
        {
          "duration": 0.023436000000000234,
          "durationTicks": 15,
          "midi": 49,
          "name": "C#3",
          "ticks": 12480,
          "time": 19.498752,
          "velocity": 0.4094488188976378
        },
        {
          "duration": 0.023436000000000234,
          "durationTicks": 15,
          "midi": 59,
          "name": "B3",
          "ticks": 12480,
          "time": 19.498752,
          "velocity": 0.889763779527559
        },
        {
          "duration": 0.023436000000000234,
          "durationTicks": 15,
          "midi": 82,
          "name": "A#5",
          "ticks": 12480,
          "time": 19.498752,
          "velocity": 0.33858267716535434
        },
        {
          "duration": 0.023436000000000234,
          "durationTicks": 15,
          "midi": 82,
          "name": "A#5",
          "ticks": 12720,
          "time": 19.873728,
          "velocity": 0.3858267716535433
        },
        {
          "duration": 0.023436000000000234,
          "durationTicks": 15,
          "midi": 82,
          "name": "A#5",
          "ticks": 12840,
          "time": 20.061215999999998,
          "velocity": 0.41732283464566927
        },
        {
          "duration": 0.023436000000000234,
          "durationTicks": 15,
          "midi": 37,
          "name": "C#2",
          "ticks": 12960,
          "time": 20.248704,
          "velocity": 0.984251968503937
        },
        {
          "duration": 0.023436000000000234,
          "durationTicks": 15,
          "midi": 82,
          "name": "A#5",
          "ticks": 12960,
          "time": 20.248704,
          "velocity": 0.4645669291338583
        },
        {
          "duration": 0.02343599999999668,
          "durationTicks": 15,
          "midi": 46,
          "name": "A#2",
          "ticks": 13200,
          "time": 20.62368,
          "velocity": 0.5905511811023622
        },
        {
          "duration": 0.02343599999999668,
          "durationTicks": 15,
          "midi": 82,
          "name": "A#5",
          "ticks": 13200,
          "time": 20.62368,
          "velocity": 0.41732283464566927
        },
        {
          "duration": 0.023436000000000234,
          "durationTicks": 15,
          "midi": 35,
          "name": "B1",
          "ticks": 13320,
          "time": 20.811168,
          "velocity": 0.8110236220472441
        },
        {
          "duration": 0.023436000000000234,
          "durationTicks": 15,
          "midi": 82,
          "name": "A#5",
          "ticks": 13320,
          "time": 20.811168,
          "velocity": 0.33858267716535434
        },
        {
          "duration": 0.023436000000000234,
          "durationTicks": 15,
          "midi": 35,
          "name": "B1",
          "ticks": 13440,
          "time": 20.998655999999997,
          "velocity": 0.8110236220472441
        },
        {
          "duration": 0.023436000000000234,
          "durationTicks": 15,
          "midi": 44,
          "name": "G#2",
          "ticks": 13440,
          "time": 20.998655999999997,
          "velocity": 0.6377952755905512
        },
        {
          "duration": 0.023436000000000234,
          "durationTicks": 15,
          "midi": 70,
          "name": "A#4",
          "ticks": 13440,
          "time": 20.998655999999997,
          "velocity": 0.7322834645669292
        },
        {
          "duration": 0.023436000000000234,
          "durationTicks": 15,
          "midi": 70,
          "name": "A#4",
          "ticks": 13560,
          "time": 21.186144,
          "velocity": 0.4645669291338583
        },
        {
          "duration": 0.023436000000000234,
          "durationTicks": 15,
          "midi": 44,
          "name": "G#2",
          "ticks": 13680,
          "time": 21.373631999999997,
          "velocity": 0.4881889763779528
        },
        {
          "duration": 0.023436000000000234,
          "durationTicks": 15,
          "midi": 70,
          "name": "A#4",
          "ticks": 13680,
          "time": 21.373631999999997,
          "velocity": 0.5354330708661418
        },
        {
          "duration": 0.023436000000000234,
          "durationTicks": 15,
          "midi": 82,
          "name": "A#5",
          "ticks": 13680,
          "time": 21.373631999999997,
          "velocity": 0.3700787401574803
        },
        {
          "duration": 0.023436000000000234,
          "durationTicks": 15,
          "midi": 70,
          "name": "A#4",
          "ticks": 13800,
          "time": 21.56112,
          "velocity": 0.44881889763779526
        },
        {
          "duration": 0.023436000000000234,
          "durationTicks": 15,
          "midi": 82,
          "name": "A#5",
          "ticks": 13800,
          "time": 21.56112,
          "velocity": 0.3858267716535433
        },
        {
          "duration": 0.023436000000000234,
          "durationTicks": 15,
          "midi": 37,
          "name": "C#2",
          "ticks": 13920,
          "time": 21.748607999999997,
          "velocity": 1
        },
        {
          "duration": 0.023436000000000234,
          "durationTicks": 15,
          "midi": 44,
          "name": "G#2",
          "ticks": 13920,
          "time": 21.748607999999997,
          "velocity": 0.6377952755905512
        },
        {
          "duration": 0.023436000000000234,
          "durationTicks": 15,
          "midi": 70,
          "name": "A#4",
          "ticks": 13920,
          "time": 21.748607999999997,
          "velocity": 0.7322834645669292
        },
        {
          "duration": 0.023436000000000234,
          "durationTicks": 15,
          "midi": 82,
          "name": "A#5",
          "ticks": 13920,
          "time": 21.748607999999997,
          "velocity": 0.49606299212598426
        },
        {
          "duration": 0.023436000000000234,
          "durationTicks": 15,
          "midi": 70,
          "name": "A#4",
          "ticks": 14040,
          "time": 21.936096,
          "velocity": 0.4645669291338583
        },
        {
          "duration": 0.023436000000000234,
          "durationTicks": 15,
          "midi": 35,
          "name": "B1",
          "ticks": 14160,
          "time": 22.123583999999997,
          "velocity": 0.6850393700787402
        },
        {
          "duration": 0.023436000000000234,
          "durationTicks": 15,
          "midi": 44,
          "name": "G#2",
          "ticks": 14160,
          "time": 22.123583999999997,
          "velocity": 0.49606299212598426
        },
        {
          "duration": 0.023436000000000234,
          "durationTicks": 15,
          "midi": 70,
          "name": "A#4",
          "ticks": 14160,
          "time": 22.123583999999997,
          "velocity": 0.5354330708661418
        },
        {
          "duration": 0.023436000000000234,
          "durationTicks": 15,
          "midi": 35,
          "name": "B1",
          "ticks": 14280,
          "time": 22.311072,
          "velocity": 0.6850393700787402
        },
        {
          "duration": 0.023436000000000234,
          "durationTicks": 15,
          "midi": 44,
          "name": "G#2",
          "ticks": 14280,
          "time": 22.311072,
          "velocity": 0.36220472440944884
        },
        {
          "duration": 0.023436000000000234,
          "durationTicks": 15,
          "midi": 70,
          "name": "A#4",
          "ticks": 14280,
          "time": 22.311072,
          "velocity": 0.44881889763779526
        },
        {
          "duration": 0.023436000000000234,
          "durationTicks": 15,
          "midi": 82,
          "name": "A#5",
          "ticks": 14280,
          "time": 22.311072,
          "velocity": 0.33070866141732286
        },
        {
          "duration": 0.023436000000000234,
          "durationTicks": 15,
          "midi": 35,
          "name": "B1",
          "ticks": 14400,
          "time": 22.498559999999998,
          "velocity": 0.8110236220472441
        },
        {
          "duration": 0.023436000000000234,
          "durationTicks": 15,
          "midi": 44,
          "name": "G#2",
          "ticks": 14400,
          "time": 22.498559999999998,
          "velocity": 0.6377952755905512
        },
        {
          "duration": 0.023436000000000234,
          "durationTicks": 15,
          "midi": 70,
          "name": "A#4",
          "ticks": 14400,
          "time": 22.498559999999998,
          "velocity": 0.7322834645669292
        },
        {
          "duration": 0.023436000000000234,
          "durationTicks": 15,
          "midi": 82,
          "name": "A#5",
          "ticks": 14400,
          "time": 22.498559999999998,
          "velocity": 0.33858267716535434
        },
        {
          "duration": 0.023436000000000234,
          "durationTicks": 15,
          "midi": 44,
          "name": "G#2",
          "ticks": 14520,
          "time": 22.686048,
          "velocity": 0.29133858267716534
        },
        {
          "duration": 0.023436000000000234,
          "durationTicks": 15,
          "midi": 70,
          "name": "A#4",
          "ticks": 14520,
          "time": 22.686048,
          "velocity": 0.4645669291338583
        },
        {
          "duration": 0.023436000000000234,
          "durationTicks": 15,
          "midi": 44,
          "name": "G#2",
          "ticks": 14640,
          "time": 22.873535999999998,
          "velocity": 0.5118110236220472
        },
        {
          "duration": 0.023436000000000234,
          "durationTicks": 15,
          "midi": 70,
          "name": "A#4",
          "ticks": 14640,
          "time": 22.873535999999998,
          "velocity": 0.5354330708661418
        },
        {
          "duration": 0.023436000000000234,
          "durationTicks": 15,
          "midi": 82,
          "name": "A#5",
          "ticks": 14640,
          "time": 22.873535999999998,
          "velocity": 0.3858267716535433
        },
        {
          "duration": 0.023436000000000234,
          "durationTicks": 15,
          "midi": 44,
          "name": "G#2",
          "ticks": 14760,
          "time": 23.061024,
          "velocity": 0.36220472440944884
        },
        {
          "duration": 0.023436000000000234,
          "durationTicks": 15,
          "midi": 70,
          "name": "A#4",
          "ticks": 14760,
          "time": 23.061024,
          "velocity": 0.44881889763779526
        },
        {
          "duration": 0.023436000000000234,
          "durationTicks": 15,
          "midi": 82,
          "name": "A#5",
          "ticks": 14760,
          "time": 23.061024,
          "velocity": 0.41732283464566927
        },
        {
          "duration": 0.023436000000000234,
          "durationTicks": 15,
          "midi": 37,
          "name": "C#2",
          "ticks": 14880,
          "time": 23.248511999999998,
          "velocity": 0.984251968503937
        },
        {
          "duration": 0.023436000000000234,
          "durationTicks": 15,
          "midi": 44,
          "name": "G#2",
          "ticks": 14880,
          "time": 23.248511999999998,
          "velocity": 0.6535433070866141
        },
        {
          "duration": 0.023436000000000234,
          "durationTicks": 15,
          "midi": 70,
          "name": "A#4",
          "ticks": 14880,
          "time": 23.248511999999998,
          "velocity": 0.7322834645669292
        },
        {
          "duration": 0.023436000000000234,
          "durationTicks": 15,
          "midi": 82,
          "name": "A#5",
          "ticks": 14880,
          "time": 23.248511999999998,
          "velocity": 0.4645669291338583
        },
        {
          "duration": 0.023436000000000234,
          "durationTicks": 15,
          "midi": 44,
          "name": "G#2",
          "ticks": 15000,
          "time": 23.436,
          "velocity": 0.3779527559055118
        },
        {
          "duration": 0.023436000000000234,
          "durationTicks": 15,
          "midi": 70,
          "name": "A#4",
          "ticks": 15000,
          "time": 23.436,
          "velocity": 0.4645669291338583
        },
        {
          "duration": 0.023436000000000234,
          "durationTicks": 15,
          "midi": 46,
          "name": "A#2",
          "ticks": 15120,
          "time": 23.623488,
          "velocity": 0.5433070866141733
        },
        {
          "duration": 0.023436000000000234,
          "durationTicks": 15,
          "midi": 70,
          "name": "A#4",
          "ticks": 15120,
          "time": 23.623488,
          "velocity": 0.5354330708661418
        },
        {
          "duration": 0.023436000000000234,
          "durationTicks": 15,
          "midi": 82,
          "name": "A#5",
          "ticks": 15120,
          "time": 23.623488,
          "velocity": 0.41732283464566927
        },
        {
          "duration": 0.02343599999999668,
          "durationTicks": 15,
          "midi": 70,
          "name": "A#4",
          "ticks": 15240,
          "time": 23.810976,
          "velocity": 0.44881889763779526
        },
        {
          "duration": 0.02343599999999668,
          "durationTicks": 15,
          "midi": 82,
          "name": "A#5",
          "ticks": 15240,
          "time": 23.810976,
          "velocity": 0.33858267716535434
        },
        {
          "duration": 0.023436000000000234,
          "durationTicks": 15,
          "midi": 35,
          "name": "B1",
          "ticks": 15360,
          "time": 23.998464,
          "velocity": 0.8110236220472441
        },
        {
          "duration": 0.023436000000000234,
          "durationTicks": 15,
          "midi": 44,
          "name": "G#2",
          "ticks": 15360,
          "time": 23.998464,
          "velocity": 0.6377952755905512
        },
        {
          "duration": 0.023436000000000234,
          "durationTicks": 15,
          "midi": 70,
          "name": "A#4",
          "ticks": 15360,
          "time": 23.998464,
          "velocity": 0.7322834645669292
        },
        {
          "duration": 0.023436000000000234,
          "durationTicks": 15,
          "midi": 70,
          "name": "A#4",
          "ticks": 15480,
          "time": 24.185951999999997,
          "velocity": 0.4645669291338583
        },
        {
          "duration": 0.023436000000000234,
          "durationTicks": 15,
          "midi": 44,
          "name": "G#2",
          "ticks": 15600,
          "time": 24.37344,
          "velocity": 0.4881889763779528
        },
        {
          "duration": 0.023436000000000234,
          "durationTicks": 15,
          "midi": 70,
          "name": "A#4",
          "ticks": 15600,
          "time": 24.37344,
          "velocity": 0.5354330708661418
        },
        {
          "duration": 0.023436000000000234,
          "durationTicks": 15,
          "midi": 82,
          "name": "A#5",
          "ticks": 15600,
          "time": 24.37344,
          "velocity": 0.3700787401574803
        },
        {
          "duration": 0.023436000000000234,
          "durationTicks": 15,
          "midi": 70,
          "name": "A#4",
          "ticks": 15720,
          "time": 24.560927999999997,
          "velocity": 0.44881889763779526
        },
        {
          "duration": 0.023436000000000234,
          "durationTicks": 15,
          "midi": 82,
          "name": "A#5",
          "ticks": 15720,
          "time": 24.560927999999997,
          "velocity": 0.3858267716535433
        },
        {
          "duration": 0.023436000000000234,
          "durationTicks": 15,
          "midi": 37,
          "name": "C#2",
          "ticks": 15840,
          "time": 24.748416,
          "velocity": 1
        },
        {
          "duration": 0.023436000000000234,
          "durationTicks": 15,
          "midi": 44,
          "name": "G#2",
          "ticks": 15840,
          "time": 24.748416,
          "velocity": 0.6377952755905512
        },
        {
          "duration": 0.023436000000000234,
          "durationTicks": 15,
          "midi": 70,
          "name": "A#4",
          "ticks": 15840,
          "time": 24.748416,
          "velocity": 0.7322834645669292
        },
        {
          "duration": 0.023436000000000234,
          "durationTicks": 15,
          "midi": 82,
          "name": "A#5",
          "ticks": 15840,
          "time": 24.748416,
          "velocity": 0.49606299212598426
        },
        {
          "duration": 0.023436000000000234,
          "durationTicks": 15,
          "midi": 70,
          "name": "A#4",
          "ticks": 15960,
          "time": 24.935903999999997,
          "velocity": 0.4645669291338583
        },
        {
          "duration": 0.023436000000000234,
          "durationTicks": 15,
          "midi": 35,
          "name": "B1",
          "ticks": 16080,
          "time": 25.123392,
          "velocity": 0.8110236220472441
        },
        {
          "duration": 0.023436000000000234,
          "durationTicks": 15,
          "midi": 44,
          "name": "G#2",
          "ticks": 16080,
          "time": 25.123392,
          "velocity": 0.49606299212598426
        },
        {
          "duration": 0.023436000000000234,
          "durationTicks": 15,
          "midi": 70,
          "name": "A#4",
          "ticks": 16080,
          "time": 25.123392,
          "velocity": 0.5354330708661418
        },
        {
          "duration": 0.023436000000000234,
          "durationTicks": 15,
          "midi": 44,
          "name": "G#2",
          "ticks": 16200,
          "time": 25.310879999999997,
          "velocity": 0.36220472440944884
        },
        {
          "duration": 0.023436000000000234,
          "durationTicks": 15,
          "midi": 70,
          "name": "A#4",
          "ticks": 16200,
          "time": 25.310879999999997,
          "velocity": 0.44881889763779526
        },
        {
          "duration": 0.023436000000000234,
          "durationTicks": 15,
          "midi": 82,
          "name": "A#5",
          "ticks": 16200,
          "time": 25.310879999999997,
          "velocity": 0.33070866141732286
        },
        {
          "duration": 0.023436000000000234,
          "durationTicks": 15,
          "midi": 35,
          "name": "B1",
          "ticks": 16320,
          "time": 25.498368,
          "velocity": 0.8110236220472441
        },
        {
          "duration": 0.023436000000000234,
          "durationTicks": 15,
          "midi": 44,
          "name": "G#2",
          "ticks": 16320,
          "time": 25.498368,
          "velocity": 0.6377952755905512
        },
        {
          "duration": 0.023436000000000234,
          "durationTicks": 15,
          "midi": 70,
          "name": "A#4",
          "ticks": 16320,
          "time": 25.498368,
          "velocity": 0.7322834645669292
        },
        {
          "duration": 0.023436000000000234,
          "durationTicks": 15,
          "midi": 82,
          "name": "A#5",
          "ticks": 16320,
          "time": 25.498368,
          "velocity": 0.33858267716535434
        },
        {
          "duration": 0.023436000000000234,
          "durationTicks": 15,
          "midi": 44,
          "name": "G#2",
          "ticks": 16440,
          "time": 25.685855999999998,
          "velocity": 0.29133858267716534
        },
        {
          "duration": 0.023436000000000234,
          "durationTicks": 15,
          "midi": 70,
          "name": "A#4",
          "ticks": 16440,
          "time": 25.685855999999998,
          "velocity": 0.4645669291338583
        },
        {
          "duration": 0.023436000000000234,
          "durationTicks": 15,
          "midi": 44,
          "name": "G#2",
          "ticks": 16560,
          "time": 25.873344,
          "velocity": 0.5118110236220472
        },
        {
          "duration": 0.023436000000000234,
          "durationTicks": 15,
          "midi": 70,
          "name": "A#4",
          "ticks": 16560,
          "time": 25.873344,
          "velocity": 0.5354330708661418
        },
        {
          "duration": 0.023436000000000234,
          "durationTicks": 15,
          "midi": 82,
          "name": "A#5",
          "ticks": 16560,
          "time": 25.873344,
          "velocity": 0.3858267716535433
        },
        {
          "duration": 0.023436000000000234,
          "durationTicks": 15,
          "midi": 44,
          "name": "G#2",
          "ticks": 16680,
          "time": 26.060831999999998,
          "velocity": 0.36220472440944884
        },
        {
          "duration": 0.023436000000000234,
          "durationTicks": 15,
          "midi": 70,
          "name": "A#4",
          "ticks": 16680,
          "time": 26.060831999999998,
          "velocity": 0.44881889763779526
        },
        {
          "duration": 0.023436000000000234,
          "durationTicks": 15,
          "midi": 82,
          "name": "A#5",
          "ticks": 16680,
          "time": 26.060831999999998,
          "velocity": 0.41732283464566927
        },
        {
          "duration": 0.023436000000000234,
          "durationTicks": 15,
          "midi": 37,
          "name": "C#2",
          "ticks": 16800,
          "time": 26.24832,
          "velocity": 0.984251968503937
        },
        {
          "duration": 0.023436000000000234,
          "durationTicks": 15,
          "midi": 44,
          "name": "G#2",
          "ticks": 16800,
          "time": 26.24832,
          "velocity": 0.6535433070866141
        },
        {
          "duration": 0.023436000000000234,
          "durationTicks": 15,
          "midi": 70,
          "name": "A#4",
          "ticks": 16800,
          "time": 26.24832,
          "velocity": 0.7322834645669292
        },
        {
          "duration": 0.023436000000000234,
          "durationTicks": 15,
          "midi": 82,
          "name": "A#5",
          "ticks": 16800,
          "time": 26.24832,
          "velocity": 0.4645669291338583
        },
        {
          "duration": 0.023436000000000234,
          "durationTicks": 15,
          "midi": 44,
          "name": "G#2",
          "ticks": 16920,
          "time": 26.435807999999998,
          "velocity": 0.3779527559055118
        },
        {
          "duration": 0.023436000000000234,
          "durationTicks": 15,
          "midi": 70,
          "name": "A#4",
          "ticks": 16920,
          "time": 26.435807999999998,
          "velocity": 0.4645669291338583
        },
        {
          "duration": 0.02343599999999668,
          "durationTicks": 15,
          "midi": 46,
          "name": "A#2",
          "ticks": 17040,
          "time": 26.623296,
          "velocity": 0.5433070866141733
        },
        {
          "duration": 0.02343599999999668,
          "durationTicks": 15,
          "midi": 70,
          "name": "A#4",
          "ticks": 17040,
          "time": 26.623296,
          "velocity": 0.5354330708661418
        },
        {
          "duration": 0.02343599999999668,
          "durationTicks": 15,
          "midi": 82,
          "name": "A#5",
          "ticks": 17040,
          "time": 26.623296,
          "velocity": 0.41732283464566927
        },
        {
          "duration": 0.023436000000000234,
          "durationTicks": 15,
          "midi": 35,
          "name": "B1",
          "ticks": 17160,
          "time": 26.810783999999998,
          "velocity": 0.8110236220472441
        },
        {
          "duration": 0.023436000000000234,
          "durationTicks": 15,
          "midi": 70,
          "name": "A#4",
          "ticks": 17160,
          "time": 26.810783999999998,
          "velocity": 0.44881889763779526
        },
        {
          "duration": 0.023436000000000234,
          "durationTicks": 15,
          "midi": 82,
          "name": "A#5",
          "ticks": 17160,
          "time": 26.810783999999998,
          "velocity": 0.33858267716535434
        },
        {
          "duration": 0.02343599999999668,
          "durationTicks": 15,
          "midi": 35,
          "name": "B1",
          "ticks": 17280,
          "time": 26.998272,
          "velocity": 0.8110236220472441
        },
        {
          "duration": 0.02343599999999668,
          "durationTicks": 15,
          "midi": 44,
          "name": "G#2",
          "ticks": 17280,
          "time": 26.998272,
          "velocity": 0.5748031496062992
        },
        {
          "duration": 0.02343599999999668,
          "durationTicks": 15,
          "midi": 70,
          "name": "A#4",
          "ticks": 17280,
          "time": 26.998272,
          "velocity": 0.7322834645669292
        },
        {
          "duration": 0.023436000000000234,
          "durationTicks": 15,
          "midi": 70,
          "name": "A#4",
          "ticks": 17400,
          "time": 27.18576,
          "velocity": 0.4645669291338583
        },
        {
          "duration": 0.023436000000000234,
          "durationTicks": 15,
          "midi": 44,
          "name": "G#2",
          "ticks": 17520,
          "time": 27.373247999999997,
          "velocity": 0.4881889763779528
        },
        {
          "duration": 0.023436000000000234,
          "durationTicks": 15,
          "midi": 70,
          "name": "A#4",
          "ticks": 17520,
          "time": 27.373247999999997,
          "velocity": 0.5354330708661418
        },
        {
          "duration": 0.023436000000000234,
          "durationTicks": 15,
          "midi": 82,
          "name": "A#5",
          "ticks": 17520,
          "time": 27.373247999999997,
          "velocity": 0.3700787401574803
        },
        {
          "duration": 0.023436000000000234,
          "durationTicks": 15,
          "midi": 70,
          "name": "A#4",
          "ticks": 17640,
          "time": 27.560736,
          "velocity": 0.44881889763779526
        },
        {
          "duration": 0.023436000000000234,
          "durationTicks": 15,
          "midi": 82,
          "name": "A#5",
          "ticks": 17640,
          "time": 27.560736,
          "velocity": 0.3858267716535433
        },
        {
          "duration": 0.023436000000000234,
          "durationTicks": 15,
          "midi": 37,
          "name": "C#2",
          "ticks": 17760,
          "time": 27.748223999999997,
          "velocity": 1
        },
        {
          "duration": 0.023436000000000234,
          "durationTicks": 15,
          "midi": 44,
          "name": "G#2",
          "ticks": 17760,
          "time": 27.748223999999997,
          "velocity": 0.6377952755905512
        },
        {
          "duration": 0.023436000000000234,
          "durationTicks": 15,
          "midi": 70,
          "name": "A#4",
          "ticks": 17760,
          "time": 27.748223999999997,
          "velocity": 0.7322834645669292
        },
        {
          "duration": 0.023436000000000234,
          "durationTicks": 15,
          "midi": 82,
          "name": "A#5",
          "ticks": 17760,
          "time": 27.748223999999997,
          "velocity": 0.49606299212598426
        },
        {
          "duration": 0.023436000000000234,
          "durationTicks": 15,
          "midi": 70,
          "name": "A#4",
          "ticks": 17880,
          "time": 27.935712,
          "velocity": 0.4645669291338583
        },
        {
          "duration": 0.023436000000000234,
          "durationTicks": 15,
          "midi": 35,
          "name": "B1",
          "ticks": 18000,
          "time": 28.123199999999997,
          "velocity": 0.8110236220472441
        },
        {
          "duration": 0.023436000000000234,
          "durationTicks": 15,
          "midi": 44,
          "name": "G#2",
          "ticks": 18000,
          "time": 28.123199999999997,
          "velocity": 0.49606299212598426
        },
        {
          "duration": 0.023436000000000234,
          "durationTicks": 15,
          "midi": 70,
          "name": "A#4",
          "ticks": 18000,
          "time": 28.123199999999997,
          "velocity": 0.5354330708661418
        },
        {
          "duration": 0.023436000000000234,
          "durationTicks": 15,
          "midi": 44,
          "name": "G#2",
          "ticks": 18120,
          "time": 28.310688,
          "velocity": 0.36220472440944884
        },
        {
          "duration": 0.023436000000000234,
          "durationTicks": 15,
          "midi": 70,
          "name": "A#4",
          "ticks": 18120,
          "time": 28.310688,
          "velocity": 0.44881889763779526
        },
        {
          "duration": 0.023436000000000234,
          "durationTicks": 15,
          "midi": 82,
          "name": "A#5",
          "ticks": 18120,
          "time": 28.310688,
          "velocity": 0.33070866141732286
        },
        {
          "duration": 0.023436000000000234,
          "durationTicks": 15,
          "midi": 35,
          "name": "B1",
          "ticks": 18240,
          "time": 28.498175999999997,
          "velocity": 0.8110236220472441
        },
        {
          "duration": 0.023436000000000234,
          "durationTicks": 15,
          "midi": 44,
          "name": "G#2",
          "ticks": 18240,
          "time": 28.498175999999997,
          "velocity": 0.5354330708661418
        },
        {
          "duration": 0.023436000000000234,
          "durationTicks": 15,
          "midi": 70,
          "name": "A#4",
          "ticks": 18240,
          "time": 28.498175999999997,
          "velocity": 0.7322834645669292
        },
        {
          "duration": 0.023436000000000234,
          "durationTicks": 15,
          "midi": 82,
          "name": "A#5",
          "ticks": 18240,
          "time": 28.498175999999997,
          "velocity": 0.33858267716535434
        },
        {
          "duration": 0.023436000000000234,
          "durationTicks": 15,
          "midi": 70,
          "name": "A#4",
          "ticks": 18360,
          "time": 28.685664,
          "velocity": 0.4645669291338583
        },
        {
          "duration": 0.023436000000000234,
          "durationTicks": 15,
          "midi": 44,
          "name": "G#2",
          "ticks": 18480,
          "time": 28.873151999999997,
          "velocity": 0.5118110236220472
        },
        {
          "duration": 0.023436000000000234,
          "durationTicks": 15,
          "midi": 70,
          "name": "A#4",
          "ticks": 18480,
          "time": 28.873151999999997,
          "velocity": 0.5354330708661418
        },
        {
          "duration": 0.023436000000000234,
          "durationTicks": 15,
          "midi": 82,
          "name": "A#5",
          "ticks": 18480,
          "time": 28.873151999999997,
          "velocity": 0.3858267716535433
        },
        {
          "duration": 0.023436000000000234,
          "durationTicks": 15,
          "midi": 44,
          "name": "G#2",
          "ticks": 18600,
          "time": 29.06064,
          "velocity": 0.36220472440944884
        },
        {
          "duration": 0.023436000000000234,
          "durationTicks": 15,
          "midi": 70,
          "name": "A#4",
          "ticks": 18600,
          "time": 29.06064,
          "velocity": 0.44881889763779526
        },
        {
          "duration": 0.023436000000000234,
          "durationTicks": 15,
          "midi": 82,
          "name": "A#5",
          "ticks": 18600,
          "time": 29.06064,
          "velocity": 0.41732283464566927
        },
        {
          "duration": 0.023436000000000234,
          "durationTicks": 15,
          "midi": 37,
          "name": "C#2",
          "ticks": 18720,
          "time": 29.248127999999998,
          "velocity": 0.984251968503937
        },
        {
          "duration": 0.023436000000000234,
          "durationTicks": 15,
          "midi": 44,
          "name": "G#2",
          "ticks": 18720,
          "time": 29.248127999999998,
          "velocity": 0.5905511811023622
        },
        {
          "duration": 0.023436000000000234,
          "durationTicks": 15,
          "midi": 70,
          "name": "A#4",
          "ticks": 18720,
          "time": 29.248127999999998,
          "velocity": 0.7322834645669292
        },
        {
          "duration": 0.023436000000000234,
          "durationTicks": 15,
          "midi": 82,
          "name": "A#5",
          "ticks": 18720,
          "time": 29.248127999999998,
          "velocity": 0.4645669291338583
        },
        {
          "duration": 0.023436000000000234,
          "durationTicks": 15,
          "midi": 70,
          "name": "A#4",
          "ticks": 18840,
          "time": 29.435616,
          "velocity": 0.4645669291338583
        },
        {
          "duration": 0.023436000000000234,
          "durationTicks": 15,
          "midi": 46,
          "name": "A#2",
          "ticks": 18960,
          "time": 29.623103999999998,
          "velocity": 0.5433070866141733
        },
        {
          "duration": 0.023436000000000234,
          "durationTicks": 15,
          "midi": 70,
          "name": "A#4",
          "ticks": 18960,
          "time": 29.623103999999998,
          "velocity": 0.5354330708661418
        },
        {
          "duration": 0.023436000000000234,
          "durationTicks": 15,
          "midi": 82,
          "name": "A#5",
          "ticks": 18960,
          "time": 29.623103999999998,
          "velocity": 0.41732283464566927
        },
        {
          "duration": 0.02343599999999668,
          "durationTicks": 15,
          "midi": 70,
          "name": "A#4",
          "ticks": 19080,
          "time": 29.810592,
          "velocity": 0.44881889763779526
        },
        {
          "duration": 0.02343599999999668,
          "durationTicks": 15,
          "midi": 82,
          "name": "A#5",
          "ticks": 19080,
          "time": 29.810592,
          "velocity": 0.33858267716535434
        },
        {
          "duration": 0.023436000000000234,
          "durationTicks": 15,
          "midi": 35,
          "name": "B1",
          "ticks": 19200,
          "time": 29.998079999999998,
          "velocity": 0.8110236220472441
        },
        {
          "duration": 0.023436000000000234,
          "durationTicks": 15,
          "midi": 44,
          "name": "G#2",
          "ticks": 19200,
          "time": 29.998079999999998,
          "velocity": 0.5748031496062992
        },
        {
          "duration": 0.023436000000000234,
          "durationTicks": 15,
          "midi": 70,
          "name": "A#4",
          "ticks": 19200,
          "time": 29.998079999999998,
          "velocity": 0.7322834645669292
        },
        {
          "duration": 0.023436000000000234,
          "durationTicks": 15,
          "midi": 70,
          "name": "A#4",
          "ticks": 19320,
          "time": 30.185567999999996,
          "velocity": 0.4645669291338583
        },
        {
          "duration": 0.023436000000000234,
          "durationTicks": 15,
          "midi": 44,
          "name": "G#2",
          "ticks": 19440,
          "time": 30.373056,
          "velocity": 0.4881889763779528
        },
        {
          "duration": 0.023436000000000234,
          "durationTicks": 15,
          "midi": 70,
          "name": "A#4",
          "ticks": 19440,
          "time": 30.373056,
          "velocity": 0.5354330708661418
        },
        {
          "duration": 0.023436000000000234,
          "durationTicks": 15,
          "midi": 82,
          "name": "A#5",
          "ticks": 19440,
          "time": 30.373056,
          "velocity": 0.3700787401574803
        },
        {
          "duration": 0.023436000000000234,
          "durationTicks": 15,
          "midi": 70,
          "name": "A#4",
          "ticks": 19560,
          "time": 30.560543999999997,
          "velocity": 0.44881889763779526
        },
        {
          "duration": 0.023436000000000234,
          "durationTicks": 15,
          "midi": 82,
          "name": "A#5",
          "ticks": 19560,
          "time": 30.560543999999997,
          "velocity": 0.3858267716535433
        },
        {
          "duration": 0.023436000000000234,
          "durationTicks": 15,
          "midi": 37,
          "name": "C#2",
          "ticks": 19680,
          "time": 30.748032,
          "velocity": 1
        },
        {
          "duration": 0.023436000000000234,
          "durationTicks": 15,
          "midi": 44,
          "name": "G#2",
          "ticks": 19680,
          "time": 30.748032,
          "velocity": 0.6377952755905512
        },
        {
          "duration": 0.023436000000000234,
          "durationTicks": 15,
          "midi": 70,
          "name": "A#4",
          "ticks": 19680,
          "time": 30.748032,
          "velocity": 0.7322834645669292
        },
        {
          "duration": 0.023436000000000234,
          "durationTicks": 15,
          "midi": 82,
          "name": "A#5",
          "ticks": 19680,
          "time": 30.748032,
          "velocity": 0.49606299212598426
        },
        {
          "duration": 0.023436000000000234,
          "durationTicks": 15,
          "midi": 70,
          "name": "A#4",
          "ticks": 19800,
          "time": 30.935519999999997,
          "velocity": 0.4645669291338583
        },
        {
          "duration": 0.023436000000000234,
          "durationTicks": 15,
          "midi": 35,
          "name": "B1",
          "ticks": 19920,
          "time": 31.123008,
          "velocity": 0.8110236220472441
        },
        {
          "duration": 0.023436000000000234,
          "durationTicks": 15,
          "midi": 44,
          "name": "G#2",
          "ticks": 19920,
          "time": 31.123008,
          "velocity": 0.49606299212598426
        },
        {
          "duration": 0.023436000000000234,
          "durationTicks": 15,
          "midi": 70,
          "name": "A#4",
          "ticks": 19920,
          "time": 31.123008,
          "velocity": 0.5354330708661418
        },
        {
          "duration": 0.023436000000000234,
          "durationTicks": 15,
          "midi": 44,
          "name": "G#2",
          "ticks": 20040,
          "time": 31.310495999999997,
          "velocity": 0.36220472440944884
        },
        {
          "duration": 0.023436000000000234,
          "durationTicks": 15,
          "midi": 70,
          "name": "A#4",
          "ticks": 20040,
          "time": 31.310495999999997,
          "velocity": 0.44881889763779526
        },
        {
          "duration": 0.023436000000000234,
          "durationTicks": 15,
          "midi": 82,
          "name": "A#5",
          "ticks": 20040,
          "time": 31.310495999999997,
          "velocity": 0.33070866141732286
        },
        {
          "duration": 0.023436000000000234,
          "durationTicks": 15,
          "midi": 35,
          "name": "B1",
          "ticks": 20160,
          "time": 31.497984,
          "velocity": 0.8110236220472441
        },
        {
          "duration": 0.023436000000000234,
          "durationTicks": 15,
          "midi": 44,
          "name": "G#2",
          "ticks": 20160,
          "time": 31.497984,
          "velocity": 0.5354330708661418
        },
        {
          "duration": 0.023436000000000234,
          "durationTicks": 15,
          "midi": 70,
          "name": "A#4",
          "ticks": 20160,
          "time": 31.497984,
          "velocity": 0.7322834645669292
        },
        {
          "duration": 0.023436000000000234,
          "durationTicks": 15,
          "midi": 82,
          "name": "A#5",
          "ticks": 20160,
          "time": 31.497984,
          "velocity": 0.33858267716535434
        },
        {
          "duration": 0.023436000000000234,
          "durationTicks": 15,
          "midi": 70,
          "name": "A#4",
          "ticks": 20280,
          "time": 31.685471999999997,
          "velocity": 0.4645669291338583
        },
        {
          "duration": 0.023436000000000234,
          "durationTicks": 15,
          "midi": 44,
          "name": "G#2",
          "ticks": 20400,
          "time": 31.87296,
          "velocity": 0.5118110236220472
        },
        {
          "duration": 0.023436000000000234,
          "durationTicks": 15,
          "midi": 70,
          "name": "A#4",
          "ticks": 20400,
          "time": 31.87296,
          "velocity": 0.5354330708661418
        },
        {
          "duration": 0.023436000000000234,
          "durationTicks": 15,
          "midi": 82,
          "name": "A#5",
          "ticks": 20400,
          "time": 31.87296,
          "velocity": 0.3858267716535433
        },
        {
          "duration": 0.02343599999999668,
          "durationTicks": 15,
          "midi": 35,
          "name": "B1",
          "ticks": 20520,
          "time": 32.060448,
          "velocity": 0.8110236220472441
        },
        {
          "duration": 0.02343599999999668,
          "durationTicks": 15,
          "midi": 44,
          "name": "G#2",
          "ticks": 20520,
          "time": 32.060448,
          "velocity": 0.36220472440944884
        },
        {
          "duration": 0.02343599999999668,
          "durationTicks": 15,
          "midi": 70,
          "name": "A#4",
          "ticks": 20520,
          "time": 32.060448,
          "velocity": 0.44881889763779526
        },
        {
          "duration": 0.02343599999999668,
          "durationTicks": 15,
          "midi": 82,
          "name": "A#5",
          "ticks": 20520,
          "time": 32.060448,
          "velocity": 0.41732283464566927
        },
        {
          "duration": 0.023436000000003787,
          "durationTicks": 15,
          "midi": 35,
          "name": "B1",
          "ticks": 20640,
          "time": 32.247935999999996,
          "velocity": 0.8110236220472441
        },
        {
          "duration": 0.023436000000003787,
          "durationTicks": 15,
          "midi": 37,
          "name": "C#2",
          "ticks": 20640,
          "time": 32.247935999999996,
          "velocity": 0.984251968503937
        },
        {
          "duration": 0.023436000000003787,
          "durationTicks": 15,
          "midi": 44,
          "name": "G#2",
          "ticks": 20640,
          "time": 32.247935999999996,
          "velocity": 0.5905511811023622
        },
        {
          "duration": 0.023436000000003787,
          "durationTicks": 15,
          "midi": 70,
          "name": "A#4",
          "ticks": 20640,
          "time": 32.247935999999996,
          "velocity": 0.7322834645669292
        },
        {
          "duration": 0.023436000000003787,
          "durationTicks": 15,
          "midi": 82,
          "name": "A#5",
          "ticks": 20640,
          "time": 32.247935999999996,
          "velocity": 0.4645669291338583
        },
        {
          "duration": 0.023436000000003787,
          "durationTicks": 15,
          "midi": 70,
          "name": "A#4",
          "ticks": 20760,
          "time": 32.435424,
          "velocity": 0.4645669291338583
        },
        {
          "duration": 0.02343599999999668,
          "durationTicks": 15,
          "midi": 35,
          "name": "B1",
          "ticks": 20880,
          "time": 32.622912,
          "velocity": 0.8110236220472441
        },
        {
          "duration": 0.02343599999999668,
          "durationTicks": 15,
          "midi": 46,
          "name": "A#2",
          "ticks": 20880,
          "time": 32.622912,
          "velocity": 0.5433070866141733
        },
        {
          "duration": 0.02343599999999668,
          "durationTicks": 15,
          "midi": 70,
          "name": "A#4",
          "ticks": 20880,
          "time": 32.622912,
          "velocity": 0.5354330708661418
        },
        {
          "duration": 0.02343599999999668,
          "durationTicks": 15,
          "midi": 82,
          "name": "A#5",
          "ticks": 20880,
          "time": 32.622912,
          "velocity": 0.41732283464566927
        },
        {
          "duration": 0.02343599999999668,
          "durationTicks": 15,
          "midi": 70,
          "name": "A#4",
          "ticks": 21000,
          "time": 32.8104,
          "velocity": 0.44881889763779526
        },
        {
          "duration": 0.02343599999999668,
          "durationTicks": 15,
          "midi": 82,
          "name": "A#5",
          "ticks": 21000,
          "time": 32.8104,
          "velocity": 0.33858267716535434
        },
        {
          "duration": 0.023436000000003787,
          "durationTicks": 15,
          "midi": 35,
          "name": "B1",
          "ticks": 21120,
          "time": 32.997887999999996,
          "velocity": 0.8110236220472441
        },
        {
          "duration": 0.023436000000003787,
          "durationTicks": 15,
          "midi": 44,
          "name": "G#2",
          "ticks": 21120,
          "time": 32.997887999999996,
          "velocity": 0.6377952755905512
        },
        {
          "duration": 0.023436000000003787,
          "durationTicks": 15,
          "midi": 70,
          "name": "A#4",
          "ticks": 21120,
          "time": 32.997887999999996,
          "velocity": 0.7322834645669292
        },
        {
          "duration": 0.02343599999999668,
          "durationTicks": 15,
          "midi": 70,
          "name": "A#4",
          "ticks": 21240,
          "time": 33.185376,
          "velocity": 0.4645669291338583
        },
        {
          "duration": 0.02343599999999668,
          "durationTicks": 15,
          "midi": 44,
          "name": "G#2",
          "ticks": 21360,
          "time": 33.372864,
          "velocity": 0.4881889763779528
        },
        {
          "duration": 0.02343599999999668,
          "durationTicks": 15,
          "midi": 70,
          "name": "A#4",
          "ticks": 21360,
          "time": 33.372864,
          "velocity": 0.5354330708661418
        },
        {
          "duration": 0.02343599999999668,
          "durationTicks": 15,
          "midi": 82,
          "name": "A#5",
          "ticks": 21360,
          "time": 33.372864,
          "velocity": 0.3700787401574803
        },
        {
          "duration": 0.023436000000003787,
          "durationTicks": 15,
          "midi": 70,
          "name": "A#4",
          "ticks": 21480,
          "time": 33.560351999999995,
          "velocity": 0.44881889763779526
        },
        {
          "duration": 0.023436000000003787,
          "durationTicks": 15,
          "midi": 82,
          "name": "A#5",
          "ticks": 21480,
          "time": 33.560351999999995,
          "velocity": 0.3858267716535433
        },
        {
          "duration": 0.023436000000003787,
          "durationTicks": 15,
          "midi": 37,
          "name": "C#2",
          "ticks": 21600,
          "time": 33.74784,
          "velocity": 1
        },
        {
          "duration": 0.023436000000003787,
          "durationTicks": 15,
          "midi": 44,
          "name": "G#2",
          "ticks": 21600,
          "time": 33.74784,
          "velocity": 0.6377952755905512
        },
        {
          "duration": 0.023436000000003787,
          "durationTicks": 15,
          "midi": 70,
          "name": "A#4",
          "ticks": 21600,
          "time": 33.74784,
          "velocity": 0.7322834645669292
        },
        {
          "duration": 0.023436000000003787,
          "durationTicks": 15,
          "midi": 82,
          "name": "A#5",
          "ticks": 21600,
          "time": 33.74784,
          "velocity": 0.49606299212598426
        },
        {
          "duration": 0.02343599999999668,
          "durationTicks": 15,
          "midi": 70,
          "name": "A#4",
          "ticks": 21720,
          "time": 33.935328,
          "velocity": 0.4645669291338583
        },
        {
          "duration": 0.02343599999999668,
          "durationTicks": 15,
          "midi": 35,
          "name": "B1",
          "ticks": 21840,
          "time": 34.122816,
          "velocity": 0.6850393700787402
        },
        {
          "duration": 0.02343599999999668,
          "durationTicks": 15,
          "midi": 44,
          "name": "G#2",
          "ticks": 21840,
          "time": 34.122816,
          "velocity": 0.49606299212598426
        },
        {
          "duration": 0.02343599999999668,
          "durationTicks": 15,
          "midi": 70,
          "name": "A#4",
          "ticks": 21840,
          "time": 34.122816,
          "velocity": 0.5354330708661418
        },
        {
          "duration": 0.023436000000003787,
          "durationTicks": 15,
          "midi": 35,
          "name": "B1",
          "ticks": 21960,
          "time": 34.310303999999995,
          "velocity": 0.6850393700787402
        },
        {
          "duration": 0.023436000000003787,
          "durationTicks": 15,
          "midi": 44,
          "name": "G#2",
          "ticks": 21960,
          "time": 34.310303999999995,
          "velocity": 0.36220472440944884
        },
        {
          "duration": 0.023436000000003787,
          "durationTicks": 15,
          "midi": 70,
          "name": "A#4",
          "ticks": 21960,
          "time": 34.310303999999995,
          "velocity": 0.44881889763779526
        },
        {
          "duration": 0.023436000000003787,
          "durationTicks": 15,
          "midi": 82,
          "name": "A#5",
          "ticks": 21960,
          "time": 34.310303999999995,
          "velocity": 0.33070866141732286
        },
        {
          "duration": 0.023436000000003787,
          "durationTicks": 15,
          "midi": 35,
          "name": "B1",
          "ticks": 22080,
          "time": 34.497792,
          "velocity": 0.8110236220472441
        },
        {
          "duration": 0.023436000000003787,
          "durationTicks": 15,
          "midi": 44,
          "name": "G#2",
          "ticks": 22080,
          "time": 34.497792,
          "velocity": 0.6377952755905512
        },
        {
          "duration": 0.023436000000003787,
          "durationTicks": 15,
          "midi": 70,
          "name": "A#4",
          "ticks": 22080,
          "time": 34.497792,
          "velocity": 0.7322834645669292
        },
        {
          "duration": 0.023436000000003787,
          "durationTicks": 15,
          "midi": 82,
          "name": "A#5",
          "ticks": 22080,
          "time": 34.497792,
          "velocity": 0.33858267716535434
        },
        {
          "duration": 0.02343599999999668,
          "durationTicks": 15,
          "midi": 44,
          "name": "G#2",
          "ticks": 22200,
          "time": 34.68528,
          "velocity": 0.29133858267716534
        },
        {
          "duration": 0.02343599999999668,
          "durationTicks": 15,
          "midi": 70,
          "name": "A#4",
          "ticks": 22200,
          "time": 34.68528,
          "velocity": 0.4645669291338583
        },
        {
          "duration": 0.02343599999999668,
          "durationTicks": 15,
          "midi": 44,
          "name": "G#2",
          "ticks": 22320,
          "time": 34.872768,
          "velocity": 0.5118110236220472
        },
        {
          "duration": 0.02343599999999668,
          "durationTicks": 15,
          "midi": 70,
          "name": "A#4",
          "ticks": 22320,
          "time": 34.872768,
          "velocity": 0.5354330708661418
        },
        {
          "duration": 0.02343599999999668,
          "durationTicks": 15,
          "midi": 82,
          "name": "A#5",
          "ticks": 22320,
          "time": 34.872768,
          "velocity": 0.3858267716535433
        },
        {
          "duration": 0.023436000000003787,
          "durationTicks": 15,
          "midi": 44,
          "name": "G#2",
          "ticks": 22440,
          "time": 35.060255999999995,
          "velocity": 0.36220472440944884
        },
        {
          "duration": 0.023436000000003787,
          "durationTicks": 15,
          "midi": 70,
          "name": "A#4",
          "ticks": 22440,
          "time": 35.060255999999995,
          "velocity": 0.44881889763779526
        },
        {
          "duration": 0.023436000000003787,
          "durationTicks": 15,
          "midi": 82,
          "name": "A#5",
          "ticks": 22440,
          "time": 35.060255999999995,
          "velocity": 0.41732283464566927
        },
        {
          "duration": 0.023436000000003787,
          "durationTicks": 15,
          "midi": 37,
          "name": "C#2",
          "ticks": 22560,
          "time": 35.247744,
          "velocity": 0.984251968503937
        },
        {
          "duration": 0.023436000000003787,
          "durationTicks": 15,
          "midi": 44,
          "name": "G#2",
          "ticks": 22560,
          "time": 35.247744,
          "velocity": 0.6535433070866141
        },
        {
          "duration": 0.023436000000003787,
          "durationTicks": 15,
          "midi": 70,
          "name": "A#4",
          "ticks": 22560,
          "time": 35.247744,
          "velocity": 0.7322834645669292
        },
        {
          "duration": 0.023436000000003787,
          "durationTicks": 15,
          "midi": 82,
          "name": "A#5",
          "ticks": 22560,
          "time": 35.247744,
          "velocity": 0.4645669291338583
        },
        {
          "duration": 0.02343599999999668,
          "durationTicks": 15,
          "midi": 44,
          "name": "G#2",
          "ticks": 22680,
          "time": 35.435232,
          "velocity": 0.3779527559055118
        },
        {
          "duration": 0.02343599999999668,
          "durationTicks": 15,
          "midi": 70,
          "name": "A#4",
          "ticks": 22680,
          "time": 35.435232,
          "velocity": 0.4645669291338583
        },
        {
          "duration": 0.02343599999999668,
          "durationTicks": 15,
          "midi": 46,
          "name": "A#2",
          "ticks": 22800,
          "time": 35.62272,
          "velocity": 0.5433070866141733
        },
        {
          "duration": 0.02343599999999668,
          "durationTicks": 15,
          "midi": 70,
          "name": "A#4",
          "ticks": 22800,
          "time": 35.62272,
          "velocity": 0.5354330708661418
        },
        {
          "duration": 0.02343599999999668,
          "durationTicks": 15,
          "midi": 82,
          "name": "A#5",
          "ticks": 22800,
          "time": 35.62272,
          "velocity": 0.41732283464566927
        },
        {
          "duration": 0.023436000000003787,
          "durationTicks": 15,
          "midi": 70,
          "name": "A#4",
          "ticks": 22920,
          "time": 35.810207999999996,
          "velocity": 0.44881889763779526
        },
        {
          "duration": 0.023436000000003787,
          "durationTicks": 15,
          "midi": 82,
          "name": "A#5",
          "ticks": 22920,
          "time": 35.810207999999996,
          "velocity": 0.33858267716535434
        },
        {
          "duration": 0.02343599999999668,
          "durationTicks": 15,
          "midi": 35,
          "name": "B1",
          "ticks": 23040,
          "time": 35.997696,
          "velocity": 0.8110236220472441
        },
        {
          "duration": 0.02343599999999668,
          "durationTicks": 15,
          "midi": 44,
          "name": "G#2",
          "ticks": 23040,
          "time": 35.997696,
          "velocity": 0.6377952755905512
        },
        {
          "duration": 0.02343599999999668,
          "durationTicks": 15,
          "midi": 70,
          "name": "A#4",
          "ticks": 23040,
          "time": 35.997696,
          "velocity": 0.7322834645669292
        },
        {
          "duration": 0.02343599999999668,
          "durationTicks": 15,
          "midi": 70,
          "name": "A#4",
          "ticks": 23160,
          "time": 36.185184,
          "velocity": 0.4645669291338583
        },
        {
          "duration": 0.023436000000003787,
          "durationTicks": 15,
          "midi": 44,
          "name": "G#2",
          "ticks": 23280,
          "time": 36.372671999999994,
          "velocity": 0.4881889763779528
        },
        {
          "duration": 0.023436000000003787,
          "durationTicks": 15,
          "midi": 70,
          "name": "A#4",
          "ticks": 23280,
          "time": 36.372671999999994,
          "velocity": 0.5354330708661418
        },
        {
          "duration": 0.023436000000003787,
          "durationTicks": 15,
          "midi": 82,
          "name": "A#5",
          "ticks": 23280,
          "time": 36.372671999999994,
          "velocity": 0.3700787401574803
        },
        {
          "duration": 0.023436000000003787,
          "durationTicks": 15,
          "midi": 70,
          "name": "A#4",
          "ticks": 23400,
          "time": 36.560159999999996,
          "velocity": 0.44881889763779526
        },
        {
          "duration": 0.023436000000003787,
          "durationTicks": 15,
          "midi": 82,
          "name": "A#5",
          "ticks": 23400,
          "time": 36.560159999999996,
          "velocity": 0.3858267716535433
        },
        {
          "duration": 0.02343599999999668,
          "durationTicks": 15,
          "midi": 37,
          "name": "C#2",
          "ticks": 23520,
          "time": 36.747648,
          "velocity": 1
        },
        {
          "duration": 0.02343599999999668,
          "durationTicks": 15,
          "midi": 44,
          "name": "G#2",
          "ticks": 23520,
          "time": 36.747648,
          "velocity": 0.6377952755905512
        },
        {
          "duration": 0.02343599999999668,
          "durationTicks": 15,
          "midi": 70,
          "name": "A#4",
          "ticks": 23520,
          "time": 36.747648,
          "velocity": 0.7322834645669292
        },
        {
          "duration": 0.02343599999999668,
          "durationTicks": 15,
          "midi": 82,
          "name": "A#5",
          "ticks": 23520,
          "time": 36.747648,
          "velocity": 0.49606299212598426
        },
        {
          "duration": 0.02343599999999668,
          "durationTicks": 15,
          "midi": 70,
          "name": "A#4",
          "ticks": 23640,
          "time": 36.935136,
          "velocity": 0.4645669291338583
        },
        {
          "duration": 0.023436000000003787,
          "durationTicks": 15,
          "midi": 35,
          "name": "B1",
          "ticks": 23760,
          "time": 37.122623999999995,
          "velocity": 0.8110236220472441
        },
        {
          "duration": 0.023436000000003787,
          "durationTicks": 15,
          "midi": 44,
          "name": "G#2",
          "ticks": 23760,
          "time": 37.122623999999995,
          "velocity": 0.49606299212598426
        },
        {
          "duration": 0.023436000000003787,
          "durationTicks": 15,
          "midi": 70,
          "name": "A#4",
          "ticks": 23760,
          "time": 37.122623999999995,
          "velocity": 0.5354330708661418
        },
        {
          "duration": 0.023436000000003787,
          "durationTicks": 15,
          "midi": 44,
          "name": "G#2",
          "ticks": 23880,
          "time": 37.310112,
          "velocity": 0.36220472440944884
        },
        {
          "duration": 0.023436000000003787,
          "durationTicks": 15,
          "midi": 70,
          "name": "A#4",
          "ticks": 23880,
          "time": 37.310112,
          "velocity": 0.44881889763779526
        },
        {
          "duration": 0.023436000000003787,
          "durationTicks": 15,
          "midi": 82,
          "name": "A#5",
          "ticks": 23880,
          "time": 37.310112,
          "velocity": 0.33070866141732286
        },
        {
          "duration": 0.02343599999999668,
          "durationTicks": 15,
          "midi": 35,
          "name": "B1",
          "ticks": 24000,
          "time": 37.4976,
          "velocity": 0.8110236220472441
        },
        {
          "duration": 0.02343599999999668,
          "durationTicks": 15,
          "midi": 44,
          "name": "G#2",
          "ticks": 24000,
          "time": 37.4976,
          "velocity": 0.6377952755905512
        },
        {
          "duration": 0.02343599999999668,
          "durationTicks": 15,
          "midi": 70,
          "name": "A#4",
          "ticks": 24000,
          "time": 37.4976,
          "velocity": 0.7322834645669292
        },
        {
          "duration": 0.02343599999999668,
          "durationTicks": 15,
          "midi": 82,
          "name": "A#5",
          "ticks": 24000,
          "time": 37.4976,
          "velocity": 0.33858267716535434
        },
        {
          "duration": 0.02343599999999668,
          "durationTicks": 15,
          "midi": 44,
          "name": "G#2",
          "ticks": 24120,
          "time": 37.685088,
          "velocity": 0.29133858267716534
        },
        {
          "duration": 0.02343599999999668,
          "durationTicks": 15,
          "midi": 70,
          "name": "A#4",
          "ticks": 24120,
          "time": 37.685088,
          "velocity": 0.4645669291338583
        },
        {
          "duration": 0.023436000000003787,
          "durationTicks": 15,
          "midi": 44,
          "name": "G#2",
          "ticks": 24240,
          "time": 37.872575999999995,
          "velocity": 0.5118110236220472
        },
        {
          "duration": 0.023436000000003787,
          "durationTicks": 15,
          "midi": 70,
          "name": "A#4",
          "ticks": 24240,
          "time": 37.872575999999995,
          "velocity": 0.5354330708661418
        },
        {
          "duration": 0.023436000000003787,
          "durationTicks": 15,
          "midi": 82,
          "name": "A#5",
          "ticks": 24240,
          "time": 37.872575999999995,
          "velocity": 0.3858267716535433
        },
        {
          "duration": 0.023436000000003787,
          "durationTicks": 15,
          "midi": 44,
          "name": "G#2",
          "ticks": 24360,
          "time": 38.060064,
          "velocity": 0.36220472440944884
        },
        {
          "duration": 0.023436000000003787,
          "durationTicks": 15,
          "midi": 70,
          "name": "A#4",
          "ticks": 24360,
          "time": 38.060064,
          "velocity": 0.44881889763779526
        },
        {
          "duration": 0.023436000000003787,
          "durationTicks": 15,
          "midi": 82,
          "name": "A#5",
          "ticks": 24360,
          "time": 38.060064,
          "velocity": 0.41732283464566927
        },
        {
          "duration": 0.02343599999999668,
          "durationTicks": 15,
          "midi": 37,
          "name": "C#2",
          "ticks": 24480,
          "time": 38.247552,
          "velocity": 0.984251968503937
        },
        {
          "duration": 0.02343599999999668,
          "durationTicks": 15,
          "midi": 44,
          "name": "G#2",
          "ticks": 24480,
          "time": 38.247552,
          "velocity": 0.6535433070866141
        },
        {
          "duration": 0.02343599999999668,
          "durationTicks": 15,
          "midi": 70,
          "name": "A#4",
          "ticks": 24480,
          "time": 38.247552,
          "velocity": 0.7322834645669292
        },
        {
          "duration": 0.02343599999999668,
          "durationTicks": 15,
          "midi": 82,
          "name": "A#5",
          "ticks": 24480,
          "time": 38.247552,
          "velocity": 0.4645669291338583
        },
        {
          "duration": 0.02343599999999668,
          "durationTicks": 15,
          "midi": 44,
          "name": "G#2",
          "ticks": 24600,
          "time": 38.43504,
          "velocity": 0.3779527559055118
        },
        {
          "duration": 0.02343599999999668,
          "durationTicks": 15,
          "midi": 70,
          "name": "A#4",
          "ticks": 24600,
          "time": 38.43504,
          "velocity": 0.4645669291338583
        },
        {
          "duration": 0.023436000000003787,
          "durationTicks": 15,
          "midi": 46,
          "name": "A#2",
          "ticks": 24720,
          "time": 38.622527999999996,
          "velocity": 0.5433070866141733
        },
        {
          "duration": 0.023436000000003787,
          "durationTicks": 15,
          "midi": 70,
          "name": "A#4",
          "ticks": 24720,
          "time": 38.622527999999996,
          "velocity": 0.5354330708661418
        },
        {
          "duration": 0.023436000000003787,
          "durationTicks": 15,
          "midi": 82,
          "name": "A#5",
          "ticks": 24720,
          "time": 38.622527999999996,
          "velocity": 0.41732283464566927
        },
        {
          "duration": 0.02343599999999668,
          "durationTicks": 15,
          "midi": 35,
          "name": "B1",
          "ticks": 24840,
          "time": 38.810016,
          "velocity": 0.8110236220472441
        },
        {
          "duration": 0.02343599999999668,
          "durationTicks": 15,
          "midi": 70,
          "name": "A#4",
          "ticks": 24840,
          "time": 38.810016,
          "velocity": 0.44881889763779526
        },
        {
          "duration": 0.02343599999999668,
          "durationTicks": 15,
          "midi": 82,
          "name": "A#5",
          "ticks": 24840,
          "time": 38.810016,
          "velocity": 0.33858267716535434
        },
        {
          "duration": 0.02343599999999668,
          "durationTicks": 15,
          "midi": 35,
          "name": "B1",
          "ticks": 24960,
          "time": 38.997504,
          "velocity": 0.8110236220472441
        },
        {
          "duration": 0.02343599999999668,
          "durationTicks": 15,
          "midi": 44,
          "name": "G#2",
          "ticks": 24960,
          "time": 38.997504,
          "velocity": 0.5748031496062992
        },
        {
          "duration": 0.02343599999999668,
          "durationTicks": 15,
          "midi": 70,
          "name": "A#4",
          "ticks": 24960,
          "time": 38.997504,
          "velocity": 0.7322834645669292
        },
        {
          "duration": 0.023436000000003787,
          "durationTicks": 15,
          "midi": 70,
          "name": "A#4",
          "ticks": 25080,
          "time": 39.184991999999994,
          "velocity": 0.4645669291338583
        },
        {
          "duration": 0.023436000000003787,
          "durationTicks": 15,
          "midi": 44,
          "name": "G#2",
          "ticks": 25200,
          "time": 39.372479999999996,
          "velocity": 0.4881889763779528
        },
        {
          "duration": 0.023436000000003787,
          "durationTicks": 15,
          "midi": 70,
          "name": "A#4",
          "ticks": 25200,
          "time": 39.372479999999996,
          "velocity": 0.5354330708661418
        },
        {
          "duration": 0.023436000000003787,
          "durationTicks": 15,
          "midi": 82,
          "name": "A#5",
          "ticks": 25200,
          "time": 39.372479999999996,
          "velocity": 0.3700787401574803
        },
        {
          "duration": 0.02343599999999668,
          "durationTicks": 15,
          "midi": 70,
          "name": "A#4",
          "ticks": 25320,
          "time": 39.559968,
          "velocity": 0.44881889763779526
        },
        {
          "duration": 0.02343599999999668,
          "durationTicks": 15,
          "midi": 82,
          "name": "A#5",
          "ticks": 25320,
          "time": 39.559968,
          "velocity": 0.3858267716535433
        },
        {
          "duration": 0.02343599999999668,
          "durationTicks": 15,
          "midi": 37,
          "name": "C#2",
          "ticks": 25440,
          "time": 39.747456,
          "velocity": 1
        },
        {
          "duration": 0.02343599999999668,
          "durationTicks": 15,
          "midi": 44,
          "name": "G#2",
          "ticks": 25440,
          "time": 39.747456,
          "velocity": 0.6377952755905512
        },
        {
          "duration": 0.02343599999999668,
          "durationTicks": 15,
          "midi": 70,
          "name": "A#4",
          "ticks": 25440,
          "time": 39.747456,
          "velocity": 0.7322834645669292
        },
        {
          "duration": 0.02343599999999668,
          "durationTicks": 15,
          "midi": 82,
          "name": "A#5",
          "ticks": 25440,
          "time": 39.747456,
          "velocity": 0.49606299212598426
        },
        {
          "duration": 0.023436000000003787,
          "durationTicks": 15,
          "midi": 70,
          "name": "A#4",
          "ticks": 25560,
          "time": 39.934943999999994,
          "velocity": 0.4645669291338583
        },
        {
          "duration": 0.023436000000003787,
          "durationTicks": 15,
          "midi": 35,
          "name": "B1",
          "ticks": 25680,
          "time": 40.122431999999996,
          "velocity": 0.8110236220472441
        },
        {
          "duration": 0.023436000000003787,
          "durationTicks": 15,
          "midi": 44,
          "name": "G#2",
          "ticks": 25680,
          "time": 40.122431999999996,
          "velocity": 0.49606299212598426
        },
        {
          "duration": 0.023436000000003787,
          "durationTicks": 15,
          "midi": 70,
          "name": "A#4",
          "ticks": 25680,
          "time": 40.122431999999996,
          "velocity": 0.5354330708661418
        },
        {
          "duration": 0.02343599999999668,
          "durationTicks": 15,
          "midi": 44,
          "name": "G#2",
          "ticks": 25800,
          "time": 40.30992,
          "velocity": 0.36220472440944884
        },
        {
          "duration": 0.02343599999999668,
          "durationTicks": 15,
          "midi": 70,
          "name": "A#4",
          "ticks": 25800,
          "time": 40.30992,
          "velocity": 0.44881889763779526
        },
        {
          "duration": 0.02343599999999668,
          "durationTicks": 15,
          "midi": 82,
          "name": "A#5",
          "ticks": 25800,
          "time": 40.30992,
          "velocity": 0.33070866141732286
        },
        {
          "duration": 0.02343599999999668,
          "durationTicks": 15,
          "midi": 35,
          "name": "B1",
          "ticks": 25920,
          "time": 40.497408,
          "velocity": 0.8110236220472441
        },
        {
          "duration": 0.02343599999999668,
          "durationTicks": 15,
          "midi": 44,
          "name": "G#2",
          "ticks": 25920,
          "time": 40.497408,
          "velocity": 0.5354330708661418
        },
        {
          "duration": 0.02343599999999668,
          "durationTicks": 15,
          "midi": 70,
          "name": "A#4",
          "ticks": 25920,
          "time": 40.497408,
          "velocity": 0.7322834645669292
        },
        {
          "duration": 0.02343599999999668,
          "durationTicks": 15,
          "midi": 82,
          "name": "A#5",
          "ticks": 25920,
          "time": 40.497408,
          "velocity": 0.33858267716535434
        },
        {
          "duration": 0.023436000000003787,
          "durationTicks": 15,
          "midi": 70,
          "name": "A#4",
          "ticks": 26040,
          "time": 40.684895999999995,
          "velocity": 0.4645669291338583
        },
        {
          "duration": 0.023436000000003787,
          "durationTicks": 15,
          "midi": 44,
          "name": "G#2",
          "ticks": 26160,
          "time": 40.872384,
          "velocity": 0.5118110236220472
        },
        {
          "duration": 0.023436000000003787,
          "durationTicks": 15,
          "midi": 70,
          "name": "A#4",
          "ticks": 26160,
          "time": 40.872384,
          "velocity": 0.5354330708661418
        },
        {
          "duration": 0.023436000000003787,
          "durationTicks": 15,
          "midi": 82,
          "name": "A#5",
          "ticks": 26160,
          "time": 40.872384,
          "velocity": 0.3858267716535433
        },
        {
          "duration": 0.02343599999999668,
          "durationTicks": 15,
          "midi": 44,
          "name": "G#2",
          "ticks": 26280,
          "time": 41.059872,
          "velocity": 0.36220472440944884
        },
        {
          "duration": 0.02343599999999668,
          "durationTicks": 15,
          "midi": 70,
          "name": "A#4",
          "ticks": 26280,
          "time": 41.059872,
          "velocity": 0.44881889763779526
        },
        {
          "duration": 0.02343599999999668,
          "durationTicks": 15,
          "midi": 82,
          "name": "A#5",
          "ticks": 26280,
          "time": 41.059872,
          "velocity": 0.41732283464566927
        },
        {
          "duration": 0.02343599999999668,
          "durationTicks": 15,
          "midi": 37,
          "name": "C#2",
          "ticks": 26400,
          "time": 41.24736,
          "velocity": 0.984251968503937
        },
        {
          "duration": 0.02343599999999668,
          "durationTicks": 15,
          "midi": 44,
          "name": "G#2",
          "ticks": 26400,
          "time": 41.24736,
          "velocity": 0.5905511811023622
        },
        {
          "duration": 0.02343599999999668,
          "durationTicks": 15,
          "midi": 70,
          "name": "A#4",
          "ticks": 26400,
          "time": 41.24736,
          "velocity": 0.7322834645669292
        },
        {
          "duration": 0.02343599999999668,
          "durationTicks": 15,
          "midi": 82,
          "name": "A#5",
          "ticks": 26400,
          "time": 41.24736,
          "velocity": 0.4645669291338583
        },
        {
          "duration": 0.023436000000003787,
          "durationTicks": 15,
          "midi": 70,
          "name": "A#4",
          "ticks": 26520,
          "time": 41.434847999999995,
          "velocity": 0.4645669291338583
        },
        {
          "duration": 0.02343599999999668,
          "durationTicks": 15,
          "midi": 46,
          "name": "A#2",
          "ticks": 26640,
          "time": 41.622336,
          "velocity": 0.5433070866141733
        },
        {
          "duration": 0.02343599999999668,
          "durationTicks": 15,
          "midi": 70,
          "name": "A#4",
          "ticks": 26640,
          "time": 41.622336,
          "velocity": 0.5354330708661418
        },
        {
          "duration": 0.02343599999999668,
          "durationTicks": 15,
          "midi": 82,
          "name": "A#5",
          "ticks": 26640,
          "time": 41.622336,
          "velocity": 0.41732283464566927
        },
        {
          "duration": 0.02343599999999668,
          "durationTicks": 15,
          "midi": 70,
          "name": "A#4",
          "ticks": 26760,
          "time": 41.809824,
          "velocity": 0.44881889763779526
        },
        {
          "duration": 0.02343599999999668,
          "durationTicks": 15,
          "midi": 82,
          "name": "A#5",
          "ticks": 26760,
          "time": 41.809824,
          "velocity": 0.33858267716535434
        },
        {
          "duration": 0.023436000000003787,
          "durationTicks": 15,
          "midi": 35,
          "name": "B1",
          "ticks": 26880,
          "time": 41.997311999999994,
          "velocity": 0.8110236220472441
        },
        {
          "duration": 0.023436000000003787,
          "durationTicks": 15,
          "midi": 44,
          "name": "G#2",
          "ticks": 26880,
          "time": 41.997311999999994,
          "velocity": 0.5748031496062992
        },
        {
          "duration": 0.023436000000003787,
          "durationTicks": 15,
          "midi": 70,
          "name": "A#4",
          "ticks": 26880,
          "time": 41.997311999999994,
          "velocity": 0.7322834645669292
        },
        {
          "duration": 0.023436000000003787,
          "durationTicks": 15,
          "midi": 70,
          "name": "A#4",
          "ticks": 27000,
          "time": 42.184799999999996,
          "velocity": 0.4645669291338583
        },
        {
          "duration": 0.02343599999999668,
          "durationTicks": 15,
          "midi": 44,
          "name": "G#2",
          "ticks": 27120,
          "time": 42.372288,
          "velocity": 0.4881889763779528
        },
        {
          "duration": 0.02343599999999668,
          "durationTicks": 15,
          "midi": 70,
          "name": "A#4",
          "ticks": 27120,
          "time": 42.372288,
          "velocity": 0.5354330708661418
        },
        {
          "duration": 0.02343599999999668,
          "durationTicks": 15,
          "midi": 82,
          "name": "A#5",
          "ticks": 27120,
          "time": 42.372288,
          "velocity": 0.3700787401574803
        },
        {
          "duration": 0.02343599999999668,
          "durationTicks": 15,
          "midi": 70,
          "name": "A#4",
          "ticks": 27240,
          "time": 42.559776,
          "velocity": 0.44881889763779526
        },
        {
          "duration": 0.02343599999999668,
          "durationTicks": 15,
          "midi": 82,
          "name": "A#5",
          "ticks": 27240,
          "time": 42.559776,
          "velocity": 0.3858267716535433
        },
        {
          "duration": 0.023436000000003787,
          "durationTicks": 15,
          "midi": 37,
          "name": "C#2",
          "ticks": 27360,
          "time": 42.747263999999994,
          "velocity": 1
        },
        {
          "duration": 0.023436000000003787,
          "durationTicks": 15,
          "midi": 44,
          "name": "G#2",
          "ticks": 27360,
          "time": 42.747263999999994,
          "velocity": 0.6377952755905512
        },
        {
          "duration": 0.023436000000003787,
          "durationTicks": 15,
          "midi": 70,
          "name": "A#4",
          "ticks": 27360,
          "time": 42.747263999999994,
          "velocity": 0.7322834645669292
        },
        {
          "duration": 0.023436000000003787,
          "durationTicks": 15,
          "midi": 82,
          "name": "A#5",
          "ticks": 27360,
          "time": 42.747263999999994,
          "velocity": 0.49606299212598426
        },
        {
          "duration": 0.023436000000003787,
          "durationTicks": 15,
          "midi": 70,
          "name": "A#4",
          "ticks": 27480,
          "time": 42.934751999999996,
          "velocity": 0.4645669291338583
        },
        {
          "duration": 0.02343599999999668,
          "durationTicks": 15,
          "midi": 44,
          "name": "G#2",
          "ticks": 27600,
          "time": 43.12224,
          "velocity": 0.49606299212598426
        },
        {
          "duration": 0.02343599999999668,
          "durationTicks": 15,
          "midi": 70,
          "name": "A#4",
          "ticks": 27600,
          "time": 43.12224,
          "velocity": 0.5354330708661418
        },
        {
          "duration": 0.02343599999999668,
          "durationTicks": 15,
          "midi": 35,
          "name": "B1",
          "ticks": 27720,
          "time": 43.309728,
          "velocity": 0.8110236220472441
        },
        {
          "duration": 0.02343599999999668,
          "durationTicks": 15,
          "midi": 44,
          "name": "G#2",
          "ticks": 27720,
          "time": 43.309728,
          "velocity": 0.36220472440944884
        },
        {
          "duration": 0.02343599999999668,
          "durationTicks": 15,
          "midi": 70,
          "name": "A#4",
          "ticks": 27720,
          "time": 43.309728,
          "velocity": 0.44881889763779526
        },
        {
          "duration": 0.02343599999999668,
          "durationTicks": 15,
          "midi": 82,
          "name": "A#5",
          "ticks": 27720,
          "time": 43.309728,
          "velocity": 0.33070866141732286
        },
        {
          "duration": 0.023436000000003787,
          "durationTicks": 15,
          "midi": 35,
          "name": "B1",
          "ticks": 27840,
          "time": 43.497215999999995,
          "velocity": 0.8110236220472441
        },
        {
          "duration": 0.023436000000003787,
          "durationTicks": 15,
          "midi": 44,
          "name": "G#2",
          "ticks": 27840,
          "time": 43.497215999999995,
          "velocity": 0.5354330708661418
        },
        {
          "duration": 0.023436000000003787,
          "durationTicks": 15,
          "midi": 70,
          "name": "A#4",
          "ticks": 27840,
          "time": 43.497215999999995,
          "velocity": 0.7322834645669292
        },
        {
          "duration": 0.023436000000003787,
          "durationTicks": 15,
          "midi": 82,
          "name": "A#5",
          "ticks": 27840,
          "time": 43.497215999999995,
          "velocity": 0.33858267716535434
        },
        {
          "duration": 0.023436000000003787,
          "durationTicks": 15,
          "midi": 70,
          "name": "A#4",
          "ticks": 27960,
          "time": 43.684703999999996,
          "velocity": 0.4645669291338583
        },
        {
          "duration": 0.02343599999999668,
          "durationTicks": 15,
          "midi": 44,
          "name": "G#2",
          "ticks": 28080,
          "time": 43.872192,
          "velocity": 0.5118110236220472
        },
        {
          "duration": 0.02343599999999668,
          "durationTicks": 15,
          "midi": 70,
          "name": "A#4",
          "ticks": 28080,
          "time": 43.872192,
          "velocity": 0.5354330708661418
        },
        {
          "duration": 0.02343599999999668,
          "durationTicks": 15,
          "midi": 82,
          "name": "A#5",
          "ticks": 28080,
          "time": 43.872192,
          "velocity": 0.3858267716535433
        },
        {
          "duration": 0.02343599999999668,
          "durationTicks": 15,
          "midi": 44,
          "name": "G#2",
          "ticks": 28200,
          "time": 44.05968,
          "velocity": 0.36220472440944884
        },
        {
          "duration": 0.02343599999999668,
          "durationTicks": 15,
          "midi": 70,
          "name": "A#4",
          "ticks": 28200,
          "time": 44.05968,
          "velocity": 0.44881889763779526
        },
        {
          "duration": 0.02343599999999668,
          "durationTicks": 15,
          "midi": 82,
          "name": "A#5",
          "ticks": 28200,
          "time": 44.05968,
          "velocity": 0.41732283464566927
        },
        {
          "duration": 0.023436000000003787,
          "durationTicks": 15,
          "midi": 37,
          "name": "C#2",
          "ticks": 28320,
          "time": 44.247167999999995,
          "velocity": 0.984251968503937
        },
        {
          "duration": 0.023436000000003787,
          "durationTicks": 15,
          "midi": 44,
          "name": "G#2",
          "ticks": 28320,
          "time": 44.247167999999995,
          "velocity": 0.5905511811023622
        },
        {
          "duration": 0.023436000000003787,
          "durationTicks": 15,
          "midi": 70,
          "name": "A#4",
          "ticks": 28320,
          "time": 44.247167999999995,
          "velocity": 0.7322834645669292
        },
        {
          "duration": 0.023436000000003787,
          "durationTicks": 15,
          "midi": 82,
          "name": "A#5",
          "ticks": 28320,
          "time": 44.247167999999995,
          "velocity": 0.4645669291338583
        },
        {
          "duration": 0.023436000000003787,
          "durationTicks": 15,
          "midi": 70,
          "name": "A#4",
          "ticks": 28440,
          "time": 44.434656,
          "velocity": 0.4645669291338583
        },
        {
          "duration": 0.02343599999999668,
          "durationTicks": 15,
          "midi": 46,
          "name": "A#2",
          "ticks": 28560,
          "time": 44.622144,
          "velocity": 0.5433070866141733
        },
        {
          "duration": 0.02343599999999668,
          "durationTicks": 15,
          "midi": 70,
          "name": "A#4",
          "ticks": 28560,
          "time": 44.622144,
          "velocity": 0.5354330708661418
        },
        {
          "duration": 0.02343599999999668,
          "durationTicks": 15,
          "midi": 82,
          "name": "A#5",
          "ticks": 28560,
          "time": 44.622144,
          "velocity": 0.41732283464566927
        },
        {
          "duration": 0.02343599999999668,
          "durationTicks": 15,
          "midi": 70,
          "name": "A#4",
          "ticks": 28680,
          "time": 44.809632,
          "velocity": 0.44881889763779526
        },
        {
          "duration": 0.02343599999999668,
          "durationTicks": 15,
          "midi": 82,
          "name": "A#5",
          "ticks": 28680,
          "time": 44.809632,
          "velocity": 0.33858267716535434
        },
        {
          "duration": 0.023436000000003787,
          "durationTicks": 15,
          "midi": 35,
          "name": "B1",
          "ticks": 28800,
          "time": 44.997119999999995,
          "velocity": 0.952755905511811
        },
        {
          "duration": 0.023436000000003787,
          "durationTicks": 15,
          "midi": 44,
          "name": "G#2",
          "ticks": 28800,
          "time": 44.997119999999995,
          "velocity": 0.5748031496062992
        },
        {
          "duration": 0.023436000000003787,
          "durationTicks": 15,
          "midi": 49,
          "name": "C#3",
          "ticks": 28800,
          "time": 44.997119999999995,
          "velocity": 0.4094488188976378
        },
        {
          "duration": 0.023436000000003787,
          "durationTicks": 15,
          "midi": 59,
          "name": "B3",
          "ticks": 28800,
          "time": 44.997119999999995,
          "velocity": 0.889763779527559
        },
        {
          "duration": 0.023436000000003787,
          "durationTicks": 15,
          "midi": 70,
          "name": "A#4",
          "ticks": 28800,
          "time": 44.997119999999995,
          "velocity": 0.7322834645669292
        },
        {
          "duration": 0.02343599999999668,
          "durationTicks": 15,
          "midi": 70,
          "name": "A#4",
          "ticks": 28920,
          "time": 45.184608,
          "velocity": 0.4645669291338583
        },
        {
          "duration": 0.02343599999999668,
          "durationTicks": 15,
          "midi": 44,
          "name": "G#2",
          "ticks": 29040,
          "time": 45.372096,
          "velocity": 0.4881889763779528
        },
        {
          "duration": 0.02343599999999668,
          "durationTicks": 15,
          "midi": 70,
          "name": "A#4",
          "ticks": 29040,
          "time": 45.372096,
          "velocity": 0.5354330708661418
        },
        {
          "duration": 0.02343599999999668,
          "durationTicks": 15,
          "midi": 82,
          "name": "A#5",
          "ticks": 29040,
          "time": 45.372096,
          "velocity": 0.3700787401574803
        },
        {
          "duration": 0.023436000000003787,
          "durationTicks": 15,
          "midi": 70,
          "name": "A#4",
          "ticks": 29160,
          "time": 45.559583999999994,
          "velocity": 0.44881889763779526
        },
        {
          "duration": 0.023436000000003787,
          "durationTicks": 15,
          "midi": 82,
          "name": "A#5",
          "ticks": 29160,
          "time": 45.559583999999994,
          "velocity": 0.3858267716535433
        },
        {
          "duration": 0.023436000000003787,
          "durationTicks": 15,
          "midi": 37,
          "name": "C#2",
          "ticks": 29280,
          "time": 45.747071999999996,
          "velocity": 1
        },
        {
          "duration": 0.023436000000003787,
          "durationTicks": 15,
          "midi": 44,
          "name": "G#2",
          "ticks": 29280,
          "time": 45.747071999999996,
          "velocity": 0.6377952755905512
        },
        {
          "duration": 0.023436000000003787,
          "durationTicks": 15,
          "midi": 70,
          "name": "A#4",
          "ticks": 29280,
          "time": 45.747071999999996,
          "velocity": 0.7322834645669292
        },
        {
          "duration": 0.023436000000003787,
          "durationTicks": 15,
          "midi": 82,
          "name": "A#5",
          "ticks": 29280,
          "time": 45.747071999999996,
          "velocity": 0.49606299212598426
        },
        {
          "duration": 0.02343599999999668,
          "durationTicks": 15,
          "midi": 70,
          "name": "A#4",
          "ticks": 29400,
          "time": 45.93456,
          "velocity": 0.4645669291338583
        },
        {
          "duration": 0.02343599999999668,
          "durationTicks": 15,
          "midi": 35,
          "name": "B1",
          "ticks": 29520,
          "time": 46.122048,
          "velocity": 0.7480314960629921
        },
        {
          "duration": 0.02343599999999668,
          "durationTicks": 15,
          "midi": 44,
          "name": "G#2",
          "ticks": 29520,
          "time": 46.122048,
          "velocity": 0.49606299212598426
        },
        {
          "duration": 0.02343599999999668,
          "durationTicks": 15,
          "midi": 70,
          "name": "A#4",
          "ticks": 29520,
          "time": 46.122048,
          "velocity": 0.5354330708661418
        },
        {
          "duration": 0.023436000000003787,
          "durationTicks": 15,
          "midi": 44,
          "name": "G#2",
          "ticks": 29640,
          "time": 46.309535999999994,
          "velocity": 0.36220472440944884
        },
        {
          "duration": 0.023436000000003787,
          "durationTicks": 15,
          "midi": 70,
          "name": "A#4",
          "ticks": 29640,
          "time": 46.309535999999994,
          "velocity": 0.44881889763779526
        },
        {
          "duration": 0.023436000000003787,
          "durationTicks": 15,
          "midi": 82,
          "name": "A#5",
          "ticks": 29640,
          "time": 46.309535999999994,
          "velocity": 0.33070866141732286
        },
        {
          "duration": 0.023436000000003787,
          "durationTicks": 15,
          "midi": 35,
          "name": "B1",
          "ticks": 29760,
          "time": 46.497023999999996,
          "velocity": 0.8110236220472441
        },
        {
          "duration": 0.023436000000003787,
          "durationTicks": 15,
          "midi": 44,
          "name": "G#2",
          "ticks": 29760,
          "time": 46.497023999999996,
          "velocity": 0.5354330708661418
        },
        {
          "duration": 0.023436000000003787,
          "durationTicks": 15,
          "midi": 70,
          "name": "A#4",
          "ticks": 29760,
          "time": 46.497023999999996,
          "velocity": 0.7322834645669292
        },
        {
          "duration": 0.023436000000003787,
          "durationTicks": 15,
          "midi": 82,
          "name": "A#5",
          "ticks": 29760,
          "time": 46.497023999999996,
          "velocity": 0.33858267716535434
        },
        {
          "duration": 0.02343599999999668,
          "durationTicks": 15,
          "midi": 70,
          "name": "A#4",
          "ticks": 29880,
          "time": 46.684512,
          "velocity": 0.4645669291338583
        },
        {
          "duration": 0.02343599999999668,
          "durationTicks": 15,
          "midi": 44,
          "name": "G#2",
          "ticks": 30000,
          "time": 46.872,
          "velocity": 0.5118110236220472
        },
        {
          "duration": 0.02343599999999668,
          "durationTicks": 15,
          "midi": 70,
          "name": "A#4",
          "ticks": 30000,
          "time": 46.872,
          "velocity": 0.5354330708661418
        },
        {
          "duration": 0.02343599999999668,
          "durationTicks": 15,
          "midi": 82,
          "name": "A#5",
          "ticks": 30000,
          "time": 46.872,
          "velocity": 0.3858267716535433
        },
        {
          "duration": 0.023436000000003787,
          "durationTicks": 15,
          "midi": 44,
          "name": "G#2",
          "ticks": 30120,
          "time": 47.059487999999995,
          "velocity": 0.36220472440944884
        },
        {
          "duration": 0.023436000000003787,
          "durationTicks": 15,
          "midi": 70,
          "name": "A#4",
          "ticks": 30120,
          "time": 47.059487999999995,
          "velocity": 0.44881889763779526
        },
        {
          "duration": 0.023436000000003787,
          "durationTicks": 15,
          "midi": 82,
          "name": "A#5",
          "ticks": 30120,
          "time": 47.059487999999995,
          "velocity": 0.41732283464566927
        },
        {
          "duration": 0.023436000000003787,
          "durationTicks": 15,
          "midi": 37,
          "name": "C#2",
          "ticks": 30240,
          "time": 47.246976,
          "velocity": 0.984251968503937
        },
        {
          "duration": 0.023436000000003787,
          "durationTicks": 15,
          "midi": 44,
          "name": "G#2",
          "ticks": 30240,
          "time": 47.246976,
          "velocity": 0.5905511811023622
        },
        {
          "duration": 0.023436000000003787,
          "durationTicks": 15,
          "midi": 70,
          "name": "A#4",
          "ticks": 30240,
          "time": 47.246976,
          "velocity": 0.7322834645669292
        },
        {
          "duration": 0.023436000000003787,
          "durationTicks": 15,
          "midi": 82,
          "name": "A#5",
          "ticks": 30240,
          "time": 47.246976,
          "velocity": 0.4645669291338583
        },
        {
          "duration": 0.02343599999999668,
          "durationTicks": 15,
          "midi": 70,
          "name": "A#4",
          "ticks": 30360,
          "time": 47.434464,
          "velocity": 0.4645669291338583
        },
        {
          "duration": 0.02343599999999668,
          "durationTicks": 15,
          "midi": 46,
          "name": "A#2",
          "ticks": 30480,
          "time": 47.621952,
          "velocity": 0.5433070866141733
        },
        {
          "duration": 0.02343599999999668,
          "durationTicks": 15,
          "midi": 70,
          "name": "A#4",
          "ticks": 30480,
          "time": 47.621952,
          "velocity": 0.5354330708661418
        },
        {
          "duration": 0.02343599999999668,
          "durationTicks": 15,
          "midi": 82,
          "name": "A#5",
          "ticks": 30480,
          "time": 47.621952,
          "velocity": 0.41732283464566927
        },
        {
          "duration": 0.023436000000003787,
          "durationTicks": 15,
          "midi": 70,
          "name": "A#4",
          "ticks": 30600,
          "time": 47.809439999999995,
          "velocity": 0.44881889763779526
        },
        {
          "duration": 0.023436000000003787,
          "durationTicks": 15,
          "midi": 82,
          "name": "A#5",
          "ticks": 30600,
          "time": 47.809439999999995,
          "velocity": 0.33858267716535434
        },
        {
          "duration": 0.02343599999999668,
          "durationTicks": 15,
          "midi": 35,
          "name": "B1",
          "ticks": 30720,
          "time": 47.996928,
          "velocity": 0.8110236220472441
        },
        {
          "duration": 0.02343599999999668,
          "durationTicks": 15,
          "midi": 44,
          "name": "G#2",
          "ticks": 30720,
          "time": 47.996928,
          "velocity": 0.5748031496062992
        },
        {
          "duration": 0.02343599999999668,
          "durationTicks": 15,
          "midi": 70,
          "name": "A#4",
          "ticks": 30720,
          "time": 47.996928,
          "velocity": 0.7322834645669292
        },
        {
          "duration": 0.02343599999999668,
          "durationTicks": 15,
          "midi": 70,
          "name": "A#4",
          "ticks": 30840,
          "time": 48.184416,
          "velocity": 0.4645669291338583
        },
        {
          "duration": 0.023436000000003787,
          "durationTicks": 15,
          "midi": 44,
          "name": "G#2",
          "ticks": 30960,
          "time": 48.371903999999994,
          "velocity": 0.4881889763779528
        },
        {
          "duration": 0.023436000000003787,
          "durationTicks": 15,
          "midi": 70,
          "name": "A#4",
          "ticks": 30960,
          "time": 48.371903999999994,
          "velocity": 0.5354330708661418
        },
        {
          "duration": 0.023436000000003787,
          "durationTicks": 15,
          "midi": 82,
          "name": "A#5",
          "ticks": 30960,
          "time": 48.371903999999994,
          "velocity": 0.3700787401574803
        },
        {
          "duration": 0.023436000000003787,
          "durationTicks": 15,
          "midi": 70,
          "name": "A#4",
          "ticks": 31080,
          "time": 48.559391999999995,
          "velocity": 0.44881889763779526
        },
        {
          "duration": 0.023436000000003787,
          "durationTicks": 15,
          "midi": 82,
          "name": "A#5",
          "ticks": 31080,
          "time": 48.559391999999995,
          "velocity": 0.3858267716535433
        },
        {
          "duration": 0.02343599999999668,
          "durationTicks": 15,
          "midi": 37,
          "name": "C#2",
          "ticks": 31200,
          "time": 48.74688,
          "velocity": 1
        },
        {
          "duration": 0.02343599999999668,
          "durationTicks": 15,
          "midi": 44,
          "name": "G#2",
          "ticks": 31200,
          "time": 48.74688,
          "velocity": 0.6377952755905512
        },
        {
          "duration": 0.02343599999999668,
          "durationTicks": 15,
          "midi": 70,
          "name": "A#4",
          "ticks": 31200,
          "time": 48.74688,
          "velocity": 0.7322834645669292
        },
        {
          "duration": 0.02343599999999668,
          "durationTicks": 15,
          "midi": 82,
          "name": "A#5",
          "ticks": 31200,
          "time": 48.74688,
          "velocity": 0.49606299212598426
        },
        {
          "duration": 0.02343599999999668,
          "durationTicks": 15,
          "midi": 70,
          "name": "A#4",
          "ticks": 31320,
          "time": 48.934368,
          "velocity": 0.4645669291338583
        },
        {
          "duration": 0.023436000000003787,
          "durationTicks": 15,
          "midi": 44,
          "name": "G#2",
          "ticks": 31440,
          "time": 49.121855999999994,
          "velocity": 0.49606299212598426
        },
        {
          "duration": 0.023436000000003787,
          "durationTicks": 15,
          "midi": 70,
          "name": "A#4",
          "ticks": 31440,
          "time": 49.121855999999994,
          "velocity": 0.5354330708661418
        },
        {
          "duration": 0.023436000000003787,
          "durationTicks": 15,
          "midi": 35,
          "name": "B1",
          "ticks": 31560,
          "time": 49.309343999999996,
          "velocity": 0.7480314960629921
        },
        {
          "duration": 0.023436000000003787,
          "durationTicks": 15,
          "midi": 44,
          "name": "G#2",
          "ticks": 31560,
          "time": 49.309343999999996,
          "velocity": 0.36220472440944884
        },
        {
          "duration": 0.023436000000003787,
          "durationTicks": 15,
          "midi": 70,
          "name": "A#4",
          "ticks": 31560,
          "time": 49.309343999999996,
          "velocity": 0.44881889763779526
        },
        {
          "duration": 0.023436000000003787,
          "durationTicks": 15,
          "midi": 82,
          "name": "A#5",
          "ticks": 31560,
          "time": 49.309343999999996,
          "velocity": 0.33070866141732286
        },
        {
          "duration": 0.02343599999999668,
          "durationTicks": 15,
          "midi": 35,
          "name": "B1",
          "ticks": 31680,
          "time": 49.496832,
          "velocity": 0.8110236220472441
        },
        {
          "duration": 0.02343599999999668,
          "durationTicks": 15,
          "midi": 44,
          "name": "G#2",
          "ticks": 31680,
          "time": 49.496832,
          "velocity": 0.5354330708661418
        },
        {
          "duration": 0.02343599999999668,
          "durationTicks": 15,
          "midi": 70,
          "name": "A#4",
          "ticks": 31680,
          "time": 49.496832,
          "velocity": 0.7322834645669292
        },
        {
          "duration": 0.02343599999999668,
          "durationTicks": 15,
          "midi": 82,
          "name": "A#5",
          "ticks": 31680,
          "time": 49.496832,
          "velocity": 0.33858267716535434
        },
        {
          "duration": 0.02343599999999668,
          "durationTicks": 15,
          "midi": 70,
          "name": "A#4",
          "ticks": 31800,
          "time": 49.68432,
          "velocity": 0.4645669291338583
        },
        {
          "duration": 0.023436000000003787,
          "durationTicks": 15,
          "midi": 44,
          "name": "G#2",
          "ticks": 31920,
          "time": 49.871807999999994,
          "velocity": 0.5118110236220472
        },
        {
          "duration": 0.023436000000003787,
          "durationTicks": 15,
          "midi": 70,
          "name": "A#4",
          "ticks": 31920,
          "time": 49.871807999999994,
          "velocity": 0.5354330708661418
        },
        {
          "duration": 0.023436000000003787,
          "durationTicks": 15,
          "midi": 82,
          "name": "A#5",
          "ticks": 31920,
          "time": 49.871807999999994,
          "velocity": 0.3858267716535433
        },
        {
          "duration": 0.023436000000003787,
          "durationTicks": 15,
          "midi": 44,
          "name": "G#2",
          "ticks": 32040,
          "time": 50.059295999999996,
          "velocity": 0.36220472440944884
        },
        {
          "duration": 0.023436000000003787,
          "durationTicks": 15,
          "midi": 70,
          "name": "A#4",
          "ticks": 32040,
          "time": 50.059295999999996,
          "velocity": 0.44881889763779526
        },
        {
          "duration": 0.023436000000003787,
          "durationTicks": 15,
          "midi": 82,
          "name": "A#5",
          "ticks": 32040,
          "time": 50.059295999999996,
          "velocity": 0.41732283464566927
        },
        {
          "duration": 0.02343599999999668,
          "durationTicks": 15,
          "midi": 37,
          "name": "C#2",
          "ticks": 32160,
          "time": 50.246784,
          "velocity": 0.984251968503937
        },
        {
          "duration": 0.02343599999999668,
          "durationTicks": 15,
          "midi": 44,
          "name": "G#2",
          "ticks": 32160,
          "time": 50.246784,
          "velocity": 0.5905511811023622
        },
        {
          "duration": 0.02343599999999668,
          "durationTicks": 15,
          "midi": 70,
          "name": "A#4",
          "ticks": 32160,
          "time": 50.246784,
          "velocity": 0.7322834645669292
        },
        {
          "duration": 0.02343599999999668,
          "durationTicks": 15,
          "midi": 82,
          "name": "A#5",
          "ticks": 32160,
          "time": 50.246784,
          "velocity": 0.4645669291338583
        },
        {
          "duration": 0.02343599999999668,
          "durationTicks": 15,
          "midi": 70,
          "name": "A#4",
          "ticks": 32280,
          "time": 50.434272,
          "velocity": 0.4645669291338583
        },
        {
          "duration": 0.023436000000003787,
          "durationTicks": 15,
          "midi": 46,
          "name": "A#2",
          "ticks": 32400,
          "time": 50.621759999999995,
          "velocity": 0.5433070866141733
        },
        {
          "duration": 0.023436000000003787,
          "durationTicks": 15,
          "midi": 70,
          "name": "A#4",
          "ticks": 32400,
          "time": 50.621759999999995,
          "velocity": 0.5354330708661418
        },
        {
          "duration": 0.023436000000003787,
          "durationTicks": 15,
          "midi": 82,
          "name": "A#5",
          "ticks": 32400,
          "time": 50.621759999999995,
          "velocity": 0.41732283464566927
        },
        {
          "duration": 0.02343599999999668,
          "durationTicks": 15,
          "midi": 70,
          "name": "A#4",
          "ticks": 32520,
          "time": 50.809248,
          "velocity": 0.44881889763779526
        },
        {
          "duration": 0.02343599999999668,
          "durationTicks": 15,
          "midi": 82,
          "name": "A#5",
          "ticks": 32520,
          "time": 50.809248,
          "velocity": 0.33858267716535434
        },
        {
          "duration": 0.02343599999999668,
          "durationTicks": 15,
          "midi": 35,
          "name": "B1",
          "ticks": 32640,
          "time": 50.996736,
          "velocity": 0.8110236220472441
        },
        {
          "duration": 0.02343599999999668,
          "durationTicks": 15,
          "midi": 44,
          "name": "G#2",
          "ticks": 32640,
          "time": 50.996736,
          "velocity": 0.5748031496062992
        },
        {
          "duration": 0.02343599999999668,
          "durationTicks": 15,
          "midi": 70,
          "name": "A#4",
          "ticks": 32640,
          "time": 50.996736,
          "velocity": 0.7322834645669292
        },
        {
          "duration": 0.023436000000003787,
          "durationTicks": 15,
          "midi": 70,
          "name": "A#4",
          "ticks": 32760,
          "time": 51.18422399999999,
          "velocity": 0.4645669291338583
        },
        {
          "duration": 0.023436000000003787,
          "durationTicks": 15,
          "midi": 44,
          "name": "G#2",
          "ticks": 32880,
          "time": 51.371711999999995,
          "velocity": 0.4881889763779528
        },
        {
          "duration": 0.023436000000003787,
          "durationTicks": 15,
          "midi": 70,
          "name": "A#4",
          "ticks": 32880,
          "time": 51.371711999999995,
          "velocity": 0.5354330708661418
        },
        {
          "duration": 0.023436000000003787,
          "durationTicks": 15,
          "midi": 82,
          "name": "A#5",
          "ticks": 32880,
          "time": 51.371711999999995,
          "velocity": 0.3700787401574803
        },
        {
          "duration": 0.02343599999999668,
          "durationTicks": 15,
          "midi": 70,
          "name": "A#4",
          "ticks": 33000,
          "time": 51.5592,
          "velocity": 0.44881889763779526
        },
        {
          "duration": 0.02343599999999668,
          "durationTicks": 15,
          "midi": 82,
          "name": "A#5",
          "ticks": 33000,
          "time": 51.5592,
          "velocity": 0.3858267716535433
        },
        {
          "duration": 0.02343599999999668,
          "durationTicks": 15,
          "midi": 37,
          "name": "C#2",
          "ticks": 33120,
          "time": 51.746688,
          "velocity": 1
        },
        {
          "duration": 0.02343599999999668,
          "durationTicks": 15,
          "midi": 44,
          "name": "G#2",
          "ticks": 33120,
          "time": 51.746688,
          "velocity": 0.6377952755905512
        },
        {
          "duration": 0.02343599999999668,
          "durationTicks": 15,
          "midi": 70,
          "name": "A#4",
          "ticks": 33120,
          "time": 51.746688,
          "velocity": 0.7322834645669292
        },
        {
          "duration": 0.02343599999999668,
          "durationTicks": 15,
          "midi": 82,
          "name": "A#5",
          "ticks": 33120,
          "time": 51.746688,
          "velocity": 0.49606299212598426
        },
        {
          "duration": 0.023436000000003787,
          "durationTicks": 15,
          "midi": 70,
          "name": "A#4",
          "ticks": 33240,
          "time": 51.934175999999994,
          "velocity": 0.4645669291338583
        },
        {
          "duration": 0.023436000000003787,
          "durationTicks": 15,
          "midi": 35,
          "name": "B1",
          "ticks": 33360,
          "time": 52.121663999999996,
          "velocity": 0.7716535433070866
        },
        {
          "duration": 0.023436000000003787,
          "durationTicks": 15,
          "midi": 44,
          "name": "G#2",
          "ticks": 33360,
          "time": 52.121663999999996,
          "velocity": 0.49606299212598426
        },
        {
          "duration": 0.023436000000003787,
          "durationTicks": 15,
          "midi": 70,
          "name": "A#4",
          "ticks": 33360,
          "time": 52.121663999999996,
          "velocity": 0.5354330708661418
        },
        {
          "duration": 0.02343599999999668,
          "durationTicks": 15,
          "midi": 44,
          "name": "G#2",
          "ticks": 33480,
          "time": 52.309152,
          "velocity": 0.36220472440944884
        },
        {
          "duration": 0.02343599999999668,
          "durationTicks": 15,
          "midi": 70,
          "name": "A#4",
          "ticks": 33480,
          "time": 52.309152,
          "velocity": 0.44881889763779526
        },
        {
          "duration": 0.02343599999999668,
          "durationTicks": 15,
          "midi": 82,
          "name": "A#5",
          "ticks": 33480,
          "time": 52.309152,
          "velocity": 0.33070866141732286
        },
        {
          "duration": 0.02343599999999668,
          "durationTicks": 15,
          "midi": 35,
          "name": "B1",
          "ticks": 33600,
          "time": 52.49664,
          "velocity": 0.8110236220472441
        },
        {
          "duration": 0.02343599999999668,
          "durationTicks": 15,
          "midi": 44,
          "name": "G#2",
          "ticks": 33600,
          "time": 52.49664,
          "velocity": 0.5354330708661418
        },
        {
          "duration": 0.02343599999999668,
          "durationTicks": 15,
          "midi": 70,
          "name": "A#4",
          "ticks": 33600,
          "time": 52.49664,
          "velocity": 0.7322834645669292
        },
        {
          "duration": 0.02343599999999668,
          "durationTicks": 15,
          "midi": 82,
          "name": "A#5",
          "ticks": 33600,
          "time": 52.49664,
          "velocity": 0.33858267716535434
        },
        {
          "duration": 0.023436000000003787,
          "durationTicks": 15,
          "midi": 70,
          "name": "A#4",
          "ticks": 33720,
          "time": 52.684127999999994,
          "velocity": 0.4645669291338583
        },
        {
          "duration": 0.023436000000003787,
          "durationTicks": 15,
          "midi": 44,
          "name": "G#2",
          "ticks": 33840,
          "time": 52.871615999999996,
          "velocity": 0.5118110236220472
        },
        {
          "duration": 0.023436000000003787,
          "durationTicks": 15,
          "midi": 70,
          "name": "A#4",
          "ticks": 33840,
          "time": 52.871615999999996,
          "velocity": 0.5354330708661418
        },
        {
          "duration": 0.023436000000003787,
          "durationTicks": 15,
          "midi": 82,
          "name": "A#5",
          "ticks": 33840,
          "time": 52.871615999999996,
          "velocity": 0.3858267716535433
        },
        {
          "duration": 0.02343599999999668,
          "durationTicks": 15,
          "midi": 44,
          "name": "G#2",
          "ticks": 33960,
          "time": 53.059104,
          "velocity": 0.36220472440944884
        },
        {
          "duration": 0.02343599999999668,
          "durationTicks": 15,
          "midi": 70,
          "name": "A#4",
          "ticks": 33960,
          "time": 53.059104,
          "velocity": 0.44881889763779526
        },
        {
          "duration": 0.02343599999999668,
          "durationTicks": 15,
          "midi": 82,
          "name": "A#5",
          "ticks": 33960,
          "time": 53.059104,
          "velocity": 0.41732283464566927
        },
        {
          "duration": 0.02343599999999668,
          "durationTicks": 15,
          "midi": 37,
          "name": "C#2",
          "ticks": 34080,
          "time": 53.246592,
          "velocity": 0.984251968503937
        },
        {
          "duration": 0.02343599999999668,
          "durationTicks": 15,
          "midi": 44,
          "name": "G#2",
          "ticks": 34080,
          "time": 53.246592,
          "velocity": 0.5905511811023622
        },
        {
          "duration": 0.02343599999999668,
          "durationTicks": 15,
          "midi": 70,
          "name": "A#4",
          "ticks": 34080,
          "time": 53.246592,
          "velocity": 0.7322834645669292
        },
        {
          "duration": 0.02343599999999668,
          "durationTicks": 15,
          "midi": 82,
          "name": "A#5",
          "ticks": 34080,
          "time": 53.246592,
          "velocity": 0.4645669291338583
        },
        {
          "duration": 0.023436000000003787,
          "durationTicks": 15,
          "midi": 70,
          "name": "A#4",
          "ticks": 34200,
          "time": 53.434079999999994,
          "velocity": 0.4645669291338583
        },
        {
          "duration": 0.02343599999999668,
          "durationTicks": 15,
          "midi": 46,
          "name": "A#2",
          "ticks": 34320,
          "time": 53.621567999999996,
          "velocity": 0.5433070866141733
        },
        {
          "duration": 0.02343599999999668,
          "durationTicks": 15,
          "midi": 70,
          "name": "A#4",
          "ticks": 34320,
          "time": 53.621567999999996,
          "velocity": 0.5354330708661418
        },
        {
          "duration": 0.02343599999999668,
          "durationTicks": 15,
          "midi": 82,
          "name": "A#5",
          "ticks": 34320,
          "time": 53.621567999999996,
          "velocity": 0.41732283464566927
        },
        {
          "duration": 0.02343599999999668,
          "durationTicks": 15,
          "midi": 70,
          "name": "A#4",
          "ticks": 34440,
          "time": 53.809056,
          "velocity": 0.44881889763779526
        },
        {
          "duration": 0.02343599999999668,
          "durationTicks": 15,
          "midi": 82,
          "name": "A#5",
          "ticks": 34440,
          "time": 53.809056,
          "velocity": 0.33858267716535434
        },
        {
          "duration": 0.02343599999999668,
          "durationTicks": 15,
          "midi": 35,
          "name": "B1",
          "ticks": 34560,
          "time": 53.996544,
          "velocity": 0.8110236220472441
        },
        {
          "duration": 0.02343599999999668,
          "durationTicks": 15,
          "midi": 44,
          "name": "G#2",
          "ticks": 34560,
          "time": 53.996544,
          "velocity": 0.5748031496062992
        },
        {
          "duration": 0.02343599999999668,
          "durationTicks": 15,
          "midi": 49,
          "name": "C#3",
          "ticks": 34560,
          "time": 53.996544,
          "velocity": 0.4094488188976378
        },
        {
          "duration": 0.02343599999999668,
          "durationTicks": 15,
          "midi": 59,
          "name": "B3",
          "ticks": 34560,
          "time": 53.996544,
          "velocity": 0.889763779527559
        },
        {
          "duration": 0.02343599999999668,
          "durationTicks": 15,
          "midi": 70,
          "name": "A#4",
          "ticks": 34560,
          "time": 53.996544,
          "velocity": 0.7322834645669292
        },
        {
          "duration": 0.023436000000003787,
          "durationTicks": 15,
          "midi": 70,
          "name": "A#4",
          "ticks": 34680,
          "time": 54.184031999999995,
          "velocity": 0.4645669291338583
        },
        {
          "duration": 0.02343599999999668,
          "durationTicks": 15,
          "midi": 44,
          "name": "G#2",
          "ticks": 34800,
          "time": 54.37152,
          "velocity": 0.4881889763779528
        },
        {
          "duration": 0.02343599999999668,
          "durationTicks": 15,
          "midi": 70,
          "name": "A#4",
          "ticks": 34800,
          "time": 54.37152,
          "velocity": 0.5354330708661418
        },
        {
          "duration": 0.02343599999999668,
          "durationTicks": 15,
          "midi": 82,
          "name": "A#5",
          "ticks": 34800,
          "time": 54.37152,
          "velocity": 0.3700787401574803
        },
        {
          "duration": 0.02343599999999668,
          "durationTicks": 15,
          "midi": 70,
          "name": "A#4",
          "ticks": 34920,
          "time": 54.559008,
          "velocity": 0.44881889763779526
        },
        {
          "duration": 0.02343599999999668,
          "durationTicks": 15,
          "midi": 82,
          "name": "A#5",
          "ticks": 34920,
          "time": 54.559008,
          "velocity": 0.3858267716535433
        },
        {
          "duration": 0.023436000000003787,
          "durationTicks": 15,
          "midi": 37,
          "name": "C#2",
          "ticks": 35040,
          "time": 54.74649599999999,
          "velocity": 1
        },
        {
          "duration": 0.023436000000003787,
          "durationTicks": 15,
          "midi": 44,
          "name": "G#2",
          "ticks": 35040,
          "time": 54.74649599999999,
          "velocity": 0.6377952755905512
        },
        {
          "duration": 0.023436000000003787,
          "durationTicks": 15,
          "midi": 70,
          "name": "A#4",
          "ticks": 35040,
          "time": 54.74649599999999,
          "velocity": 0.7322834645669292
        },
        {
          "duration": 0.023436000000003787,
          "durationTicks": 15,
          "midi": 82,
          "name": "A#5",
          "ticks": 35040,
          "time": 54.74649599999999,
          "velocity": 0.49606299212598426
        },
        {
          "duration": 0.023436000000003787,
          "durationTicks": 15,
          "midi": 70,
          "name": "A#4",
          "ticks": 35160,
          "time": 54.933983999999995,
          "velocity": 0.4645669291338583
        },
        {
          "duration": 0.02343599999999668,
          "durationTicks": 15,
          "midi": 44,
          "name": "G#2",
          "ticks": 35280,
          "time": 55.121472,
          "velocity": 0.49606299212598426
        },
        {
          "duration": 0.02343599999999668,
          "durationTicks": 15,
          "midi": 70,
          "name": "A#4",
          "ticks": 35280,
          "time": 55.121472,
          "velocity": 0.5354330708661418
        },
        {
          "duration": 0.02343599999999668,
          "durationTicks": 15,
          "midi": 35,
          "name": "B1",
          "ticks": 35400,
          "time": 55.30896,
          "velocity": 0.8110236220472441
        },
        {
          "duration": 0.02343599999999668,
          "durationTicks": 15,
          "midi": 44,
          "name": "G#2",
          "ticks": 35400,
          "time": 55.30896,
          "velocity": 0.36220472440944884
        },
        {
          "duration": 0.02343599999999668,
          "durationTicks": 15,
          "midi": 70,
          "name": "A#4",
          "ticks": 35400,
          "time": 55.30896,
          "velocity": 0.44881889763779526
        },
        {
          "duration": 0.02343599999999668,
          "durationTicks": 15,
          "midi": 82,
          "name": "A#5",
          "ticks": 35400,
          "time": 55.30896,
          "velocity": 0.33070866141732286
        },
        {
          "duration": 0.023436000000003787,
          "durationTicks": 15,
          "midi": 35,
          "name": "B1",
          "ticks": 35520,
          "time": 55.496447999999994,
          "velocity": 0.8110236220472441
        },
        {
          "duration": 0.023436000000003787,
          "durationTicks": 15,
          "midi": 44,
          "name": "G#2",
          "ticks": 35520,
          "time": 55.496447999999994,
          "velocity": 0.5354330708661418
        },
        {
          "duration": 0.023436000000003787,
          "durationTicks": 15,
          "midi": 70,
          "name": "A#4",
          "ticks": 35520,
          "time": 55.496447999999994,
          "velocity": 0.7322834645669292
        },
        {
          "duration": 0.023436000000003787,
          "durationTicks": 15,
          "midi": 82,
          "name": "A#5",
          "ticks": 35520,
          "time": 55.496447999999994,
          "velocity": 0.33858267716535434
        },
        {
          "duration": 0.023436000000003787,
          "durationTicks": 15,
          "midi": 70,
          "name": "A#4",
          "ticks": 35640,
          "time": 55.683935999999996,
          "velocity": 0.4645669291338583
        },
        {
          "duration": 0.02343599999999668,
          "durationTicks": 15,
          "midi": 44,
          "name": "G#2",
          "ticks": 35760,
          "time": 55.871424,
          "velocity": 0.5118110236220472
        },
        {
          "duration": 0.02343599999999668,
          "durationTicks": 15,
          "midi": 70,
          "name": "A#4",
          "ticks": 35760,
          "time": 55.871424,
          "velocity": 0.5354330708661418
        },
        {
          "duration": 0.02343599999999668,
          "durationTicks": 15,
          "midi": 82,
          "name": "A#5",
          "ticks": 35760,
          "time": 55.871424,
          "velocity": 0.3858267716535433
        },
        {
          "duration": 0.02343599999999668,
          "durationTicks": 15,
          "midi": 44,
          "name": "G#2",
          "ticks": 35880,
          "time": 56.058912,
          "velocity": 0.36220472440944884
        },
        {
          "duration": 0.02343599999999668,
          "durationTicks": 15,
          "midi": 70,
          "name": "A#4",
          "ticks": 35880,
          "time": 56.058912,
          "velocity": 0.44881889763779526
        },
        {
          "duration": 0.02343599999999668,
          "durationTicks": 15,
          "midi": 82,
          "name": "A#5",
          "ticks": 35880,
          "time": 56.058912,
          "velocity": 0.41732283464566927
        },
        {
          "duration": 0.023436000000003787,
          "durationTicks": 15,
          "midi": 37,
          "name": "C#2",
          "ticks": 36000,
          "time": 56.246399999999994,
          "velocity": 0.984251968503937
        },
        {
          "duration": 0.023436000000003787,
          "durationTicks": 15,
          "midi": 44,
          "name": "G#2",
          "ticks": 36000,
          "time": 56.246399999999994,
          "velocity": 0.5905511811023622
        },
        {
          "duration": 0.023436000000003787,
          "durationTicks": 15,
          "midi": 70,
          "name": "A#4",
          "ticks": 36000,
          "time": 56.246399999999994,
          "velocity": 0.7322834645669292
        },
        {
          "duration": 0.023436000000003787,
          "durationTicks": 15,
          "midi": 82,
          "name": "A#5",
          "ticks": 36000,
          "time": 56.246399999999994,
          "velocity": 0.4645669291338583
        },
        {
          "duration": 0.023436000000003787,
          "durationTicks": 15,
          "midi": 70,
          "name": "A#4",
          "ticks": 36120,
          "time": 56.433887999999996,
          "velocity": 0.4645669291338583
        },
        {
          "duration": 0.02343599999999668,
          "durationTicks": 15,
          "midi": 46,
          "name": "A#2",
          "ticks": 36240,
          "time": 56.621376,
          "velocity": 0.5433070866141733
        },
        {
          "duration": 0.02343599999999668,
          "durationTicks": 15,
          "midi": 59,
          "name": "B3",
          "ticks": 36240,
          "time": 56.621376,
          "velocity": 0.6535433070866141
        },
        {
          "duration": 0.02343599999999668,
          "durationTicks": 15,
          "midi": 70,
          "name": "A#4",
          "ticks": 36240,
          "time": 56.621376,
          "velocity": 0.5354330708661418
        },
        {
          "duration": 0.02343599999999668,
          "durationTicks": 15,
          "midi": 82,
          "name": "A#5",
          "ticks": 36240,
          "time": 56.621376,
          "velocity": 0.41732283464566927
        },
        {
          "duration": 0.02343599999999668,
          "durationTicks": 15,
          "midi": 35,
          "name": "B1",
          "ticks": 36360,
          "time": 56.808864,
          "velocity": 0.8110236220472441
        },
        {
          "duration": 0.02343599999999668,
          "durationTicks": 15,
          "midi": 70,
          "name": "A#4",
          "ticks": 36360,
          "time": 56.808864,
          "velocity": 0.44881889763779526
        },
        {
          "duration": 0.02343599999999668,
          "durationTicks": 15,
          "midi": 82,
          "name": "A#5",
          "ticks": 36360,
          "time": 56.808864,
          "velocity": 0.33858267716535434
        },
        {
          "duration": 0.023436000000003787,
          "durationTicks": 15,
          "midi": 35,
          "name": "B1",
          "ticks": 36480,
          "time": 56.996351999999995,
          "velocity": 0.952755905511811
        },
        {
          "duration": 0.023436000000003787,
          "durationTicks": 15,
          "midi": 44,
          "name": "G#2",
          "ticks": 36480,
          "time": 56.996351999999995,
          "velocity": 0.6377952755905512
        },
        {
          "duration": 0.023436000000003787,
          "durationTicks": 15,
          "midi": 49,
          "name": "C#3",
          "ticks": 36480,
          "time": 56.996351999999995,
          "velocity": 0.4094488188976378
        },
        {
          "duration": 0.023436000000003787,
          "durationTicks": 15,
          "midi": 59,
          "name": "B3",
          "ticks": 36480,
          "time": 56.996351999999995,
          "velocity": 0.8582677165354331
        },
        {
          "duration": 0.023436000000003787,
          "durationTicks": 15,
          "midi": 70,
          "name": "A#4",
          "ticks": 36480,
          "time": 56.996351999999995,
          "velocity": 0.7322834645669292
        },
        {
          "duration": 0.02343599999999668,
          "durationTicks": 15,
          "midi": 44,
          "name": "G#2",
          "ticks": 36600,
          "time": 57.18384,
          "velocity": 0.29133858267716534
        },
        {
          "duration": 0.02343599999999668,
          "durationTicks": 15,
          "midi": 70,
          "name": "A#4",
          "ticks": 36600,
          "time": 57.18384,
          "velocity": 0.4645669291338583
        },
        {
          "duration": 0.02343599999999668,
          "durationTicks": 15,
          "midi": 44,
          "name": "G#2",
          "ticks": 36720,
          "time": 57.371328,
          "velocity": 0.5118110236220472
        },
        {
          "duration": 0.02343599999999668,
          "durationTicks": 15,
          "midi": 70,
          "name": "A#4",
          "ticks": 36720,
          "time": 57.371328,
          "velocity": 0.5354330708661418
        },
        {
          "duration": 0.02343599999999668,
          "durationTicks": 15,
          "midi": 82,
          "name": "A#5",
          "ticks": 36720,
          "time": 57.371328,
          "velocity": 0.3700787401574803
        },
        {
          "duration": 0.023436000000003787,
          "durationTicks": 15,
          "midi": 44,
          "name": "G#2",
          "ticks": 36840,
          "time": 57.55881599999999,
          "velocity": 0.36220472440944884
        },
        {
          "duration": 0.023436000000003787,
          "durationTicks": 15,
          "midi": 70,
          "name": "A#4",
          "ticks": 36840,
          "time": 57.55881599999999,
          "velocity": 0.44881889763779526
        },
        {
          "duration": 0.023436000000003787,
          "durationTicks": 15,
          "midi": 82,
          "name": "A#5",
          "ticks": 36840,
          "time": 57.55881599999999,
          "velocity": 0.3858267716535433
        },
        {
          "duration": 0.023436000000003787,
          "durationTicks": 15,
          "midi": 37,
          "name": "C#2",
          "ticks": 36960,
          "time": 57.746303999999995,
          "velocity": 1
        },
        {
          "duration": 0.023436000000003787,
          "durationTicks": 15,
          "midi": 44,
          "name": "G#2",
          "ticks": 36960,
          "time": 57.746303999999995,
          "velocity": 0.6535433070866141
        },
        {
          "duration": 0.023436000000003787,
          "durationTicks": 15,
          "midi": 70,
          "name": "A#4",
          "ticks": 36960,
          "time": 57.746303999999995,
          "velocity": 0.7322834645669292
        },
        {
          "duration": 0.023436000000003787,
          "durationTicks": 15,
          "midi": 82,
          "name": "A#5",
          "ticks": 36960,
          "time": 57.746303999999995,
          "velocity": 0.49606299212598426
        },
        {
          "duration": 0.02343599999999668,
          "durationTicks": 15,
          "midi": 44,
          "name": "G#2",
          "ticks": 37080,
          "time": 57.933792,
          "velocity": 0.3779527559055118
        },
        {
          "duration": 0.02343599999999668,
          "durationTicks": 15,
          "midi": 70,
          "name": "A#4",
          "ticks": 37080,
          "time": 57.933792,
          "velocity": 0.4645669291338583
        },
        {
          "duration": 0.02343599999999668,
          "durationTicks": 15,
          "midi": 35,
          "name": "B1",
          "ticks": 37200,
          "time": 58.12128,
          "velocity": 0.6850393700787402
        },
        {
          "duration": 0.02343599999999668,
          "durationTicks": 15,
          "midi": 44,
          "name": "G#2",
          "ticks": 37200,
          "time": 58.12128,
          "velocity": 0.49606299212598426
        },
        {
          "duration": 0.02343599999999668,
          "durationTicks": 15,
          "midi": 70,
          "name": "A#4",
          "ticks": 37200,
          "time": 58.12128,
          "velocity": 0.5354330708661418
        },
        {
          "duration": 0.023436000000003787,
          "durationTicks": 15,
          "midi": 35,
          "name": "B1",
          "ticks": 37320,
          "time": 58.30876799999999,
          "velocity": 0.6850393700787402
        },
        {
          "duration": 0.023436000000003787,
          "durationTicks": 15,
          "midi": 44,
          "name": "G#2",
          "ticks": 37320,
          "time": 58.30876799999999,
          "velocity": 0.36220472440944884
        },
        {
          "duration": 0.023436000000003787,
          "durationTicks": 15,
          "midi": 70,
          "name": "A#4",
          "ticks": 37320,
          "time": 58.30876799999999,
          "velocity": 0.44881889763779526
        },
        {
          "duration": 0.023436000000003787,
          "durationTicks": 15,
          "midi": 82,
          "name": "A#5",
          "ticks": 37320,
          "time": 58.30876799999999,
          "velocity": 0.33070866141732286
        },
        {
          "duration": 0.023436000000003787,
          "durationTicks": 15,
          "midi": 35,
          "name": "B1",
          "ticks": 37440,
          "time": 58.496255999999995,
          "velocity": 0.8110236220472441
        },
        {
          "duration": 0.023436000000003787,
          "durationTicks": 15,
          "midi": 44,
          "name": "G#2",
          "ticks": 37440,
          "time": 58.496255999999995,
          "velocity": 0.6377952755905512
        },
        {
          "duration": 0.023436000000003787,
          "durationTicks": 15,
          "midi": 70,
          "name": "A#4",
          "ticks": 37440,
          "time": 58.496255999999995,
          "velocity": 0.7322834645669292
        },
        {
          "duration": 0.023436000000003787,
          "durationTicks": 15,
          "midi": 82,
          "name": "A#5",
          "ticks": 37440,
          "time": 58.496255999999995,
          "velocity": 0.33858267716535434
        },
        {
          "duration": 0.02343599999999668,
          "durationTicks": 15,
          "midi": 44,
          "name": "G#2",
          "ticks": 37560,
          "time": 58.683744,
          "velocity": 0.29133858267716534
        },
        {
          "duration": 0.02343599999999668,
          "durationTicks": 15,
          "midi": 70,
          "name": "A#4",
          "ticks": 37560,
          "time": 58.683744,
          "velocity": 0.4645669291338583
        },
        {
          "duration": 0.02343599999999668,
          "durationTicks": 15,
          "midi": 44,
          "name": "G#2",
          "ticks": 37680,
          "time": 58.871232,
          "velocity": 0.5118110236220472
        },
        {
          "duration": 0.02343599999999668,
          "durationTicks": 15,
          "midi": 70,
          "name": "A#4",
          "ticks": 37680,
          "time": 58.871232,
          "velocity": 0.5354330708661418
        },
        {
          "duration": 0.02343599999999668,
          "durationTicks": 15,
          "midi": 82,
          "name": "A#5",
          "ticks": 37680,
          "time": 58.871232,
          "velocity": 0.3858267716535433
        },
        {
          "duration": 0.023436000000003787,
          "durationTicks": 15,
          "midi": 44,
          "name": "G#2",
          "ticks": 37800,
          "time": 59.058719999999994,
          "velocity": 0.36220472440944884
        },
        {
          "duration": 0.023436000000003787,
          "durationTicks": 15,
          "midi": 70,
          "name": "A#4",
          "ticks": 37800,
          "time": 59.058719999999994,
          "velocity": 0.44881889763779526
        },
        {
          "duration": 0.023436000000003787,
          "durationTicks": 15,
          "midi": 82,
          "name": "A#5",
          "ticks": 37800,
          "time": 59.058719999999994,
          "velocity": 0.41732283464566927
        },
        {
          "duration": 0.023436000000003787,
          "durationTicks": 15,
          "midi": 37,
          "name": "C#2",
          "ticks": 37920,
          "time": 59.246207999999996,
          "velocity": 0.984251968503937
        },
        {
          "duration": 0.023436000000003787,
          "durationTicks": 15,
          "midi": 44,
          "name": "G#2",
          "ticks": 37920,
          "time": 59.246207999999996,
          "velocity": 0.6535433070866141
        },
        {
          "duration": 0.023436000000003787,
          "durationTicks": 15,
          "midi": 70,
          "name": "A#4",
          "ticks": 37920,
          "time": 59.246207999999996,
          "velocity": 0.7322834645669292
        },
        {
          "duration": 0.023436000000003787,
          "durationTicks": 15,
          "midi": 82,
          "name": "A#5",
          "ticks": 37920,
          "time": 59.246207999999996,
          "velocity": 0.4645669291338583
        },
        {
          "duration": 0.02343599999999668,
          "durationTicks": 15,
          "midi": 44,
          "name": "G#2",
          "ticks": 38040,
          "time": 59.433696,
          "velocity": 0.3779527559055118
        },
        {
          "duration": 0.02343599999999668,
          "durationTicks": 15,
          "midi": 70,
          "name": "A#4",
          "ticks": 38040,
          "time": 59.433696,
          "velocity": 0.4645669291338583
        },
        {
          "duration": 0.02343599999999668,
          "durationTicks": 15,
          "midi": 46,
          "name": "A#2",
          "ticks": 38160,
          "time": 59.621184,
          "velocity": 0.5433070866141733
        },
        {
          "duration": 0.02343599999999668,
          "durationTicks": 15,
          "midi": 70,
          "name": "A#4",
          "ticks": 38160,
          "time": 59.621184,
          "velocity": 0.5354330708661418
        },
        {
          "duration": 0.02343599999999668,
          "durationTicks": 15,
          "midi": 82,
          "name": "A#5",
          "ticks": 38160,
          "time": 59.621184,
          "velocity": 0.41732283464566927
        },
        {
          "duration": 0.023436000000003787,
          "durationTicks": 15,
          "midi": 70,
          "name": "A#4",
          "ticks": 38280,
          "time": 59.808671999999994,
          "velocity": 0.44881889763779526
        },
        {
          "duration": 0.023436000000003787,
          "durationTicks": 15,
          "midi": 82,
          "name": "A#5",
          "ticks": 38280,
          "time": 59.808671999999994,
          "velocity": 0.33858267716535434
        },
        {
          "duration": 0.02343599999999668,
          "durationTicks": 15,
          "midi": 35,
          "name": "B1",
          "ticks": 38400,
          "time": 59.996159999999996,
          "velocity": 0.8110236220472441
        },
        {
          "duration": 0.02343599999999668,
          "durationTicks": 15,
          "midi": 44,
          "name": "G#2",
          "ticks": 38400,
          "time": 59.996159999999996,
          "velocity": 0.6377952755905512
        },
        {
          "duration": 0.02343599999999668,
          "durationTicks": 15,
          "midi": 70,
          "name": "A#4",
          "ticks": 38400,
          "time": 59.996159999999996,
          "velocity": 0.7322834645669292
        },
        {
          "duration": 0.02343599999999668,
          "durationTicks": 15,
          "midi": 44,
          "name": "G#2",
          "ticks": 38520,
          "time": 60.183648,
          "velocity": 0.29133858267716534
        },
        {
          "duration": 0.02343599999999668,
          "durationTicks": 15,
          "midi": 70,
          "name": "A#4",
          "ticks": 38520,
          "time": 60.183648,
          "velocity": 0.4645669291338583
        },
        {
          "duration": 0.023436000000003787,
          "durationTicks": 15,
          "midi": 44,
          "name": "G#2",
          "ticks": 38640,
          "time": 60.37113599999999,
          "velocity": 0.5118110236220472
        },
        {
          "duration": 0.023436000000003787,
          "durationTicks": 15,
          "midi": 70,
          "name": "A#4",
          "ticks": 38640,
          "time": 60.37113599999999,
          "velocity": 0.5354330708661418
        },
        {
          "duration": 0.023436000000003787,
          "durationTicks": 15,
          "midi": 82,
          "name": "A#5",
          "ticks": 38640,
          "time": 60.37113599999999,
          "velocity": 0.3700787401574803
        },
        {
          "duration": 0.023436000000003787,
          "durationTicks": 15,
          "midi": 44,
          "name": "G#2",
          "ticks": 38760,
          "time": 60.558623999999995,
          "velocity": 0.36220472440944884
        },
        {
          "duration": 0.023436000000003787,
          "durationTicks": 15,
          "midi": 70,
          "name": "A#4",
          "ticks": 38760,
          "time": 60.558623999999995,
          "velocity": 0.44881889763779526
        },
        {
          "duration": 0.023436000000003787,
          "durationTicks": 15,
          "midi": 82,
          "name": "A#5",
          "ticks": 38760,
          "time": 60.558623999999995,
          "velocity": 0.3858267716535433
        },
        {
          "duration": 0.02343599999999668,
          "durationTicks": 15,
          "midi": 37,
          "name": "C#2",
          "ticks": 38880,
          "time": 60.746112,
          "velocity": 1
        },
        {
          "duration": 0.02343599999999668,
          "durationTicks": 15,
          "midi": 44,
          "name": "G#2",
          "ticks": 38880,
          "time": 60.746112,
          "velocity": 0.6535433070866141
        },
        {
          "duration": 0.02343599999999668,
          "durationTicks": 15,
          "midi": 70,
          "name": "A#4",
          "ticks": 38880,
          "time": 60.746112,
          "velocity": 0.7322834645669292
        },
        {
          "duration": 0.02343599999999668,
          "durationTicks": 15,
          "midi": 82,
          "name": "A#5",
          "ticks": 38880,
          "time": 60.746112,
          "velocity": 0.49606299212598426
        },
        {
          "duration": 0.02343599999999668,
          "durationTicks": 15,
          "midi": 44,
          "name": "G#2",
          "ticks": 39000,
          "time": 60.9336,
          "velocity": 0.3779527559055118
        },
        {
          "duration": 0.02343599999999668,
          "durationTicks": 15,
          "midi": 70,
          "name": "A#4",
          "ticks": 39000,
          "time": 60.9336,
          "velocity": 0.4645669291338583
        },
        {
          "duration": 0.023436000000003787,
          "durationTicks": 15,
          "midi": 35,
          "name": "B1",
          "ticks": 39120,
          "time": 61.12108799999999,
          "velocity": 0.7952755905511811
        },
        {
          "duration": 0.023436000000003787,
          "durationTicks": 15,
          "midi": 44,
          "name": "G#2",
          "ticks": 39120,
          "time": 61.12108799999999,
          "velocity": 0.49606299212598426
        },
        {
          "duration": 0.023436000000003787,
          "durationTicks": 15,
          "midi": 70,
          "name": "A#4",
          "ticks": 39120,
          "time": 61.12108799999999,
          "velocity": 0.5354330708661418
        },
        {
          "duration": 0.023436000000003787,
          "durationTicks": 15,
          "midi": 44,
          "name": "G#2",
          "ticks": 39240,
          "time": 61.308575999999995,
          "velocity": 0.36220472440944884
        },
        {
          "duration": 0.023436000000003787,
          "durationTicks": 15,
          "midi": 70,
          "name": "A#4",
          "ticks": 39240,
          "time": 61.308575999999995,
          "velocity": 0.44881889763779526
        },
        {
          "duration": 0.023436000000003787,
          "durationTicks": 15,
          "midi": 82,
          "name": "A#5",
          "ticks": 39240,
          "time": 61.308575999999995,
          "velocity": 0.33070866141732286
        },
        {
          "duration": 0.02343599999999668,
          "durationTicks": 15,
          "midi": 35,
          "name": "B1",
          "ticks": 39360,
          "time": 61.496064,
          "velocity": 0.8110236220472441
        },
        {
          "duration": 0.02343599999999668,
          "durationTicks": 15,
          "midi": 44,
          "name": "G#2",
          "ticks": 39360,
          "time": 61.496064,
          "velocity": 0.6377952755905512
        },
        {
          "duration": 0.02343599999999668,
          "durationTicks": 15,
          "midi": 70,
          "name": "A#4",
          "ticks": 39360,
          "time": 61.496064,
          "velocity": 0.7322834645669292
        },
        {
          "duration": 0.02343599999999668,
          "durationTicks": 15,
          "midi": 82,
          "name": "A#5",
          "ticks": 39360,
          "time": 61.496064,
          "velocity": 0.33858267716535434
        },
        {
          "duration": 0.02343599999999668,
          "durationTicks": 15,
          "midi": 44,
          "name": "G#2",
          "ticks": 39480,
          "time": 61.683552,
          "velocity": 0.29133858267716534
        },
        {
          "duration": 0.02343599999999668,
          "durationTicks": 15,
          "midi": 70,
          "name": "A#4",
          "ticks": 39480,
          "time": 61.683552,
          "velocity": 0.4645669291338583
        },
        {
          "duration": 0.023436000000003787,
          "durationTicks": 15,
          "midi": 44,
          "name": "G#2",
          "ticks": 39600,
          "time": 61.871039999999994,
          "velocity": 0.5118110236220472
        },
        {
          "duration": 0.023436000000003787,
          "durationTicks": 15,
          "midi": 70,
          "name": "A#4",
          "ticks": 39600,
          "time": 61.871039999999994,
          "velocity": 0.5354330708661418
        },
        {
          "duration": 0.023436000000003787,
          "durationTicks": 15,
          "midi": 82,
          "name": "A#5",
          "ticks": 39600,
          "time": 61.871039999999994,
          "velocity": 0.3858267716535433
        },
        {
          "duration": 0.023436000000003787,
          "durationTicks": 15,
          "midi": 44,
          "name": "G#2",
          "ticks": 39720,
          "time": 62.058527999999995,
          "velocity": 0.36220472440944884
        },
        {
          "duration": 0.023436000000003787,
          "durationTicks": 15,
          "midi": 70,
          "name": "A#4",
          "ticks": 39720,
          "time": 62.058527999999995,
          "velocity": 0.44881889763779526
        },
        {
          "duration": 0.023436000000003787,
          "durationTicks": 15,
          "midi": 82,
          "name": "A#5",
          "ticks": 39720,
          "time": 62.058527999999995,
          "velocity": 0.41732283464566927
        },
        {
          "duration": 0.02343599999999668,
          "durationTicks": 15,
          "midi": 37,
          "name": "C#2",
          "ticks": 39840,
          "time": 62.246016,
          "velocity": 0.984251968503937
        },
        {
          "duration": 0.02343599999999668,
          "durationTicks": 15,
          "midi": 44,
          "name": "G#2",
          "ticks": 39840,
          "time": 62.246016,
          "velocity": 0.6535433070866141
        },
        {
          "duration": 0.02343599999999668,
          "durationTicks": 15,
          "midi": 70,
          "name": "A#4",
          "ticks": 39840,
          "time": 62.246016,
          "velocity": 0.7322834645669292
        },
        {
          "duration": 0.02343599999999668,
          "durationTicks": 15,
          "midi": 82,
          "name": "A#5",
          "ticks": 39840,
          "time": 62.246016,
          "velocity": 0.4645669291338583
        },
        {
          "duration": 0.02343599999999668,
          "durationTicks": 15,
          "midi": 44,
          "name": "G#2",
          "ticks": 39960,
          "time": 62.433504,
          "velocity": 0.3779527559055118
        },
        {
          "duration": 0.02343599999999668,
          "durationTicks": 15,
          "midi": 70,
          "name": "A#4",
          "ticks": 39960,
          "time": 62.433504,
          "velocity": 0.4645669291338583
        },
        {
          "duration": 0.023436000000003787,
          "durationTicks": 15,
          "midi": 46,
          "name": "A#2",
          "ticks": 40080,
          "time": 62.620991999999994,
          "velocity": 0.5433070866141733
        },
        {
          "duration": 0.023436000000003787,
          "durationTicks": 15,
          "midi": 70,
          "name": "A#4",
          "ticks": 40080,
          "time": 62.620991999999994,
          "velocity": 0.5354330708661418
        },
        {
          "duration": 0.023436000000003787,
          "durationTicks": 15,
          "midi": 82,
          "name": "A#5",
          "ticks": 40080,
          "time": 62.620991999999994,
          "velocity": 0.41732283464566927
        },
        {
          "duration": 0.02343599999999668,
          "durationTicks": 15,
          "midi": 35,
          "name": "B1",
          "ticks": 40200,
          "time": 62.808479999999996,
          "velocity": 0.8110236220472441
        },
        {
          "duration": 0.02343599999999668,
          "durationTicks": 15,
          "midi": 70,
          "name": "A#4",
          "ticks": 40200,
          "time": 62.808479999999996,
          "velocity": 0.44881889763779526
        },
        {
          "duration": 0.02343599999999668,
          "durationTicks": 15,
          "midi": 82,
          "name": "A#5",
          "ticks": 40200,
          "time": 62.808479999999996,
          "velocity": 0.33858267716535434
        },
        {
          "duration": 0.02343599999999668,
          "durationTicks": 15,
          "midi": 35,
          "name": "B1",
          "ticks": 40320,
          "time": 62.995968,
          "velocity": 0.8110236220472441
        },
        {
          "duration": 0.02343599999999668,
          "durationTicks": 15,
          "midi": 44,
          "name": "G#2",
          "ticks": 40320,
          "time": 62.995968,
          "velocity": 0.6377952755905512
        },
        {
          "duration": 0.02343599999999668,
          "durationTicks": 15,
          "midi": 70,
          "name": "A#4",
          "ticks": 40320,
          "time": 62.995968,
          "velocity": 0.7322834645669292
        },
        {
          "duration": 0.023436000000003787,
          "durationTicks": 15,
          "midi": 44,
          "name": "G#2",
          "ticks": 40440,
          "time": 63.18345599999999,
          "velocity": 0.29133858267716534
        },
        {
          "duration": 0.023436000000003787,
          "durationTicks": 15,
          "midi": 70,
          "name": "A#4",
          "ticks": 40440,
          "time": 63.18345599999999,
          "velocity": 0.4645669291338583
        },
        {
          "duration": 0.023436000000003787,
          "durationTicks": 15,
          "midi": 44,
          "name": "G#2",
          "ticks": 40560,
          "time": 63.370943999999994,
          "velocity": 0.5118110236220472
        },
        {
          "duration": 0.023436000000003787,
          "durationTicks": 15,
          "midi": 70,
          "name": "A#4",
          "ticks": 40560,
          "time": 63.370943999999994,
          "velocity": 0.5354330708661418
        },
        {
          "duration": 0.023436000000003787,
          "durationTicks": 15,
          "midi": 82,
          "name": "A#5",
          "ticks": 40560,
          "time": 63.370943999999994,
          "velocity": 0.3700787401574803
        },
        {
          "duration": 0.02343599999999668,
          "durationTicks": 15,
          "midi": 44,
          "name": "G#2",
          "ticks": 40680,
          "time": 63.558431999999996,
          "velocity": 0.36220472440944884
        },
        {
          "duration": 0.02343599999999668,
          "durationTicks": 15,
          "midi": 70,
          "name": "A#4",
          "ticks": 40680,
          "time": 63.558431999999996,
          "velocity": 0.44881889763779526
        },
        {
          "duration": 0.02343599999999668,
          "durationTicks": 15,
          "midi": 82,
          "name": "A#5",
          "ticks": 40680,
          "time": 63.558431999999996,
          "velocity": 0.3858267716535433
        },
        {
          "duration": 0.02343599999999668,
          "durationTicks": 15,
          "midi": 37,
          "name": "C#2",
          "ticks": 40800,
          "time": 63.74592,
          "velocity": 1
        },
        {
          "duration": 0.02343599999999668,
          "durationTicks": 15,
          "midi": 44,
          "name": "G#2",
          "ticks": 40800,
          "time": 63.74592,
          "velocity": 0.6535433070866141
        },
        {
          "duration": 0.02343599999999668,
          "durationTicks": 15,
          "midi": 70,
          "name": "A#4",
          "ticks": 40800,
          "time": 63.74592,
          "velocity": 0.7322834645669292
        },
        {
          "duration": 0.02343599999999668,
          "durationTicks": 15,
          "midi": 82,
          "name": "A#5",
          "ticks": 40800,
          "time": 63.74592,
          "velocity": 0.49606299212598426
        },
        {
          "duration": 0.023436000000003787,
          "durationTicks": 15,
          "midi": 44,
          "name": "G#2",
          "ticks": 40920,
          "time": 63.93340799999999,
          "velocity": 0.3779527559055118
        },
        {
          "duration": 0.023436000000003787,
          "durationTicks": 15,
          "midi": 70,
          "name": "A#4",
          "ticks": 40920,
          "time": 63.93340799999999,
          "velocity": 0.4645669291338583
        },
        {
          "duration": 0.023435999999989576,
          "durationTicks": 15,
          "midi": 35,
          "name": "B1",
          "ticks": 41040,
          "time": 64.120896,
          "velocity": 0.6850393700787402
        },
        {
          "duration": 0.023435999999989576,
          "durationTicks": 15,
          "midi": 44,
          "name": "G#2",
          "ticks": 41040,
          "time": 64.120896,
          "velocity": 0.49606299212598426
        },
        {
          "duration": 0.023435999999989576,
          "durationTicks": 15,
          "midi": 70,
          "name": "A#4",
          "ticks": 41040,
          "time": 64.120896,
          "velocity": 0.5354330708661418
        },
        {
          "duration": 0.023436000000003787,
          "durationTicks": 15,
          "midi": 35,
          "name": "B1",
          "ticks": 41160,
          "time": 64.30838399999999,
          "velocity": 0.6850393700787402
        },
        {
          "duration": 0.023436000000003787,
          "durationTicks": 15,
          "midi": 44,
          "name": "G#2",
          "ticks": 41160,
          "time": 64.30838399999999,
          "velocity": 0.36220472440944884
        },
        {
          "duration": 0.023436000000003787,
          "durationTicks": 15,
          "midi": 70,
          "name": "A#4",
          "ticks": 41160,
          "time": 64.30838399999999,
          "velocity": 0.44881889763779526
        },
        {
          "duration": 0.023436000000003787,
          "durationTicks": 15,
          "midi": 82,
          "name": "A#5",
          "ticks": 41160,
          "time": 64.30838399999999,
          "velocity": 0.33070866141732286
        },
        {
          "duration": 0.023436000000003787,
          "durationTicks": 15,
          "midi": 35,
          "name": "B1",
          "ticks": 41280,
          "time": 64.49587199999999,
          "velocity": 0.8110236220472441
        },
        {
          "duration": 0.023436000000003787,
          "durationTicks": 15,
          "midi": 44,
          "name": "G#2",
          "ticks": 41280,
          "time": 64.49587199999999,
          "velocity": 0.6377952755905512
        },
        {
          "duration": 0.023436000000003787,
          "durationTicks": 15,
          "midi": 70,
          "name": "A#4",
          "ticks": 41280,
          "time": 64.49587199999999,
          "velocity": 0.7322834645669292
        },
        {
          "duration": 0.023436000000003787,
          "durationTicks": 15,
          "midi": 82,
          "name": "A#5",
          "ticks": 41280,
          "time": 64.49587199999999,
          "velocity": 0.33858267716535434
        },
        {
          "duration": 0.023436000000003787,
          "durationTicks": 15,
          "midi": 44,
          "name": "G#2",
          "ticks": 41400,
          "time": 64.68336,
          "velocity": 0.29133858267716534
        },
        {
          "duration": 0.023436000000003787,
          "durationTicks": 15,
          "midi": 70,
          "name": "A#4",
          "ticks": 41400,
          "time": 64.68336,
          "velocity": 0.4645669291338583
        },
        {
          "duration": 0.023436000000003787,
          "durationTicks": 15,
          "midi": 44,
          "name": "G#2",
          "ticks": 41520,
          "time": 64.870848,
          "velocity": 0.5118110236220472
        },
        {
          "duration": 0.023436000000003787,
          "durationTicks": 15,
          "midi": 70,
          "name": "A#4",
          "ticks": 41520,
          "time": 64.870848,
          "velocity": 0.5354330708661418
        },
        {
          "duration": 0.023436000000003787,
          "durationTicks": 15,
          "midi": 82,
          "name": "A#5",
          "ticks": 41520,
          "time": 64.870848,
          "velocity": 0.3858267716535433
        },
        {
          "duration": 0.023436000000003787,
          "durationTicks": 15,
          "midi": 44,
          "name": "G#2",
          "ticks": 41640,
          "time": 65.058336,
          "velocity": 0.36220472440944884
        },
        {
          "duration": 0.023436000000003787,
          "durationTicks": 15,
          "midi": 70,
          "name": "A#4",
          "ticks": 41640,
          "time": 65.058336,
          "velocity": 0.44881889763779526
        },
        {
          "duration": 0.023436000000003787,
          "durationTicks": 15,
          "midi": 82,
          "name": "A#5",
          "ticks": 41640,
          "time": 65.058336,
          "velocity": 0.41732283464566927
        },
        {
          "duration": 0.023436000000003787,
          "durationTicks": 15,
          "midi": 37,
          "name": "C#2",
          "ticks": 41760,
          "time": 65.245824,
          "velocity": 0.984251968503937
        },
        {
          "duration": 0.023436000000003787,
          "durationTicks": 15,
          "midi": 44,
          "name": "G#2",
          "ticks": 41760,
          "time": 65.245824,
          "velocity": 0.6535433070866141
        },
        {
          "duration": 0.023436000000003787,
          "durationTicks": 15,
          "midi": 70,
          "name": "A#4",
          "ticks": 41760,
          "time": 65.245824,
          "velocity": 0.7322834645669292
        },
        {
          "duration": 0.023436000000003787,
          "durationTicks": 15,
          "midi": 82,
          "name": "A#5",
          "ticks": 41760,
          "time": 65.245824,
          "velocity": 0.4645669291338583
        },
        {
          "duration": 0.023435999999989576,
          "durationTicks": 15,
          "midi": 44,
          "name": "G#2",
          "ticks": 41880,
          "time": 65.433312,
          "velocity": 0.3779527559055118
        },
        {
          "duration": 0.023435999999989576,
          "durationTicks": 15,
          "midi": 70,
          "name": "A#4",
          "ticks": 41880,
          "time": 65.433312,
          "velocity": 0.4645669291338583
        },
        {
          "duration": 0.023435999999989576,
          "durationTicks": 15,
          "midi": 46,
          "name": "A#2",
          "ticks": 42000,
          "time": 65.6208,
          "velocity": 0.5433070866141733
        },
        {
          "duration": 0.023435999999989576,
          "durationTicks": 15,
          "midi": 70,
          "name": "A#4",
          "ticks": 42000,
          "time": 65.6208,
          "velocity": 0.5354330708661418
        },
        {
          "duration": 0.023435999999989576,
          "durationTicks": 15,
          "midi": 82,
          "name": "A#5",
          "ticks": 42000,
          "time": 65.6208,
          "velocity": 0.41732283464566927
        },
        {
          "duration": 0.023436000000003787,
          "durationTicks": 15,
          "midi": 70,
          "name": "A#4",
          "ticks": 42120,
          "time": 65.80828799999999,
          "velocity": 0.44881889763779526
        },
        {
          "duration": 0.023436000000003787,
          "durationTicks": 15,
          "midi": 82,
          "name": "A#5",
          "ticks": 42120,
          "time": 65.80828799999999,
          "velocity": 0.33858267716535434
        },
        {
          "duration": 0.023436000000003787,
          "durationTicks": 15,
          "midi": 35,
          "name": "B1",
          "ticks": 42240,
          "time": 65.99577599999999,
          "velocity": 0.8110236220472441
        },
        {
          "duration": 0.023436000000003787,
          "durationTicks": 15,
          "midi": 44,
          "name": "G#2",
          "ticks": 42240,
          "time": 65.99577599999999,
          "velocity": 0.6377952755905512
        },
        {
          "duration": 0.023436000000003787,
          "durationTicks": 15,
          "midi": 70,
          "name": "A#4",
          "ticks": 42240,
          "time": 65.99577599999999,
          "velocity": 0.7322834645669292
        },
        {
          "duration": 0.023436000000003787,
          "durationTicks": 15,
          "midi": 44,
          "name": "G#2",
          "ticks": 42360,
          "time": 66.183264,
          "velocity": 0.29133858267716534
        },
        {
          "duration": 0.023436000000003787,
          "durationTicks": 15,
          "midi": 70,
          "name": "A#4",
          "ticks": 42360,
          "time": 66.183264,
          "velocity": 0.4645669291338583
        },
        {
          "duration": 0.023436000000003787,
          "durationTicks": 15,
          "midi": 44,
          "name": "G#2",
          "ticks": 42480,
          "time": 66.370752,
          "velocity": 0.5118110236220472
        },
        {
          "duration": 0.023436000000003787,
          "durationTicks": 15,
          "midi": 70,
          "name": "A#4",
          "ticks": 42480,
          "time": 66.370752,
          "velocity": 0.5354330708661418
        },
        {
          "duration": 0.023436000000003787,
          "durationTicks": 15,
          "midi": 82,
          "name": "A#5",
          "ticks": 42480,
          "time": 66.370752,
          "velocity": 0.3700787401574803
        },
        {
          "duration": 0.023436000000003787,
          "durationTicks": 15,
          "midi": 44,
          "name": "G#2",
          "ticks": 42600,
          "time": 66.55824,
          "velocity": 0.36220472440944884
        },
        {
          "duration": 0.023436000000003787,
          "durationTicks": 15,
          "midi": 70,
          "name": "A#4",
          "ticks": 42600,
          "time": 66.55824,
          "velocity": 0.44881889763779526
        },
        {
          "duration": 0.023436000000003787,
          "durationTicks": 15,
          "midi": 82,
          "name": "A#5",
          "ticks": 42600,
          "time": 66.55824,
          "velocity": 0.3858267716535433
        },
        {
          "duration": 0.023435999999989576,
          "durationTicks": 15,
          "midi": 37,
          "name": "C#2",
          "ticks": 42720,
          "time": 66.745728,
          "velocity": 1
        },
        {
          "duration": 0.023435999999989576,
          "durationTicks": 15,
          "midi": 44,
          "name": "G#2",
          "ticks": 42720,
          "time": 66.745728,
          "velocity": 0.6535433070866141
        },
        {
          "duration": 0.023435999999989576,
          "durationTicks": 15,
          "midi": 70,
          "name": "A#4",
          "ticks": 42720,
          "time": 66.745728,
          "velocity": 0.7322834645669292
        },
        {
          "duration": 0.023435999999989576,
          "durationTicks": 15,
          "midi": 82,
          "name": "A#5",
          "ticks": 42720,
          "time": 66.745728,
          "velocity": 0.49606299212598426
        },
        {
          "duration": 0.023435999999989576,
          "durationTicks": 15,
          "midi": 44,
          "name": "G#2",
          "ticks": 42840,
          "time": 66.933216,
          "velocity": 0.3779527559055118
        },
        {
          "duration": 0.023435999999989576,
          "durationTicks": 15,
          "midi": 70,
          "name": "A#4",
          "ticks": 42840,
          "time": 66.933216,
          "velocity": 0.4645669291338583
        },
        {
          "duration": 0.023436000000003787,
          "durationTicks": 15,
          "midi": 35,
          "name": "B1",
          "ticks": 42960,
          "time": 67.12070399999999,
          "velocity": 0.8110236220472441
        },
        {
          "duration": 0.023436000000003787,
          "durationTicks": 15,
          "midi": 44,
          "name": "G#2",
          "ticks": 42960,
          "time": 67.12070399999999,
          "velocity": 0.49606299212598426
        },
        {
          "duration": 0.023436000000003787,
          "durationTicks": 15,
          "midi": 70,
          "name": "A#4",
          "ticks": 42960,
          "time": 67.12070399999999,
          "velocity": 0.5354330708661418
        },
        {
          "duration": 0.023436000000003787,
          "durationTicks": 15,
          "midi": 44,
          "name": "G#2",
          "ticks": 43080,
          "time": 67.30819199999999,
          "velocity": 0.36220472440944884
        },
        {
          "duration": 0.023436000000003787,
          "durationTicks": 15,
          "midi": 70,
          "name": "A#4",
          "ticks": 43080,
          "time": 67.30819199999999,
          "velocity": 0.44881889763779526
        },
        {
          "duration": 0.023436000000003787,
          "durationTicks": 15,
          "midi": 82,
          "name": "A#5",
          "ticks": 43080,
          "time": 67.30819199999999,
          "velocity": 0.33070866141732286
        },
        {
          "duration": 0.023436000000003787,
          "durationTicks": 15,
          "midi": 35,
          "name": "B1",
          "ticks": 43200,
          "time": 67.49568,
          "velocity": 0.8110236220472441
        },
        {
          "duration": 0.023436000000003787,
          "durationTicks": 15,
          "midi": 44,
          "name": "G#2",
          "ticks": 43200,
          "time": 67.49568,
          "velocity": 0.6377952755905512
        },
        {
          "duration": 0.023436000000003787,
          "durationTicks": 15,
          "midi": 70,
          "name": "A#4",
          "ticks": 43200,
          "time": 67.49568,
          "velocity": 0.7322834645669292
        },
        {
          "duration": 0.023436000000003787,
          "durationTicks": 15,
          "midi": 82,
          "name": "A#5",
          "ticks": 43200,
          "time": 67.49568,
          "velocity": 0.33858267716535434
        },
        {
          "duration": 0.023436000000003787,
          "durationTicks": 15,
          "midi": 44,
          "name": "G#2",
          "ticks": 43320,
          "time": 67.683168,
          "velocity": 0.29133858267716534
        },
        {
          "duration": 0.023436000000003787,
          "durationTicks": 15,
          "midi": 70,
          "name": "A#4",
          "ticks": 43320,
          "time": 67.683168,
          "velocity": 0.4645669291338583
        },
        {
          "duration": 0.023436000000003787,
          "durationTicks": 15,
          "midi": 44,
          "name": "G#2",
          "ticks": 43440,
          "time": 67.870656,
          "velocity": 0.5118110236220472
        },
        {
          "duration": 0.023436000000003787,
          "durationTicks": 15,
          "midi": 70,
          "name": "A#4",
          "ticks": 43440,
          "time": 67.870656,
          "velocity": 0.5354330708661418
        },
        {
          "duration": 0.023436000000003787,
          "durationTicks": 15,
          "midi": 82,
          "name": "A#5",
          "ticks": 43440,
          "time": 67.870656,
          "velocity": 0.3858267716535433
        },
        {
          "duration": 0.023436000000003787,
          "durationTicks": 15,
          "midi": 44,
          "name": "G#2",
          "ticks": 43560,
          "time": 68.058144,
          "velocity": 0.36220472440944884
        },
        {
          "duration": 0.023436000000003787,
          "durationTicks": 15,
          "midi": 70,
          "name": "A#4",
          "ticks": 43560,
          "time": 68.058144,
          "velocity": 0.44881889763779526
        },
        {
          "duration": 0.023436000000003787,
          "durationTicks": 15,
          "midi": 82,
          "name": "A#5",
          "ticks": 43560,
          "time": 68.058144,
          "velocity": 0.41732283464566927
        },
        {
          "duration": 0.023435999999989576,
          "durationTicks": 15,
          "midi": 37,
          "name": "C#2",
          "ticks": 43680,
          "time": 68.245632,
          "velocity": 0.984251968503937
        },
        {
          "duration": 0.023435999999989576,
          "durationTicks": 15,
          "midi": 44,
          "name": "G#2",
          "ticks": 43680,
          "time": 68.245632,
          "velocity": 0.6535433070866141
        },
        {
          "duration": 0.023435999999989576,
          "durationTicks": 15,
          "midi": 70,
          "name": "A#4",
          "ticks": 43680,
          "time": 68.245632,
          "velocity": 0.7322834645669292
        },
        {
          "duration": 0.023435999999989576,
          "durationTicks": 15,
          "midi": 82,
          "name": "A#5",
          "ticks": 43680,
          "time": 68.245632,
          "velocity": 0.4645669291338583
        },
        {
          "duration": 0.023435999999989576,
          "durationTicks": 15,
          "midi": 44,
          "name": "G#2",
          "ticks": 43800,
          "time": 68.43312,
          "velocity": 0.3779527559055118
        },
        {
          "duration": 0.023435999999989576,
          "durationTicks": 15,
          "midi": 70,
          "name": "A#4",
          "ticks": 43800,
          "time": 68.43312,
          "velocity": 0.4645669291338583
        },
        {
          "duration": 0.023436000000003787,
          "durationTicks": 15,
          "midi": 46,
          "name": "A#2",
          "ticks": 43920,
          "time": 68.62060799999999,
          "velocity": 0.5433070866141733
        },
        {
          "duration": 0.023436000000003787,
          "durationTicks": 15,
          "midi": 70,
          "name": "A#4",
          "ticks": 43920,
          "time": 68.62060799999999,
          "velocity": 0.5354330708661418
        },
        {
          "duration": 0.023436000000003787,
          "durationTicks": 15,
          "midi": 82,
          "name": "A#5",
          "ticks": 43920,
          "time": 68.62060799999999,
          "velocity": 0.41732283464566927
        },
        {
          "duration": 0.023436000000003787,
          "durationTicks": 15,
          "midi": 35,
          "name": "B1",
          "ticks": 44040,
          "time": 68.80809599999999,
          "velocity": 0.8110236220472441
        },
        {
          "duration": 0.023436000000003787,
          "durationTicks": 15,
          "midi": 70,
          "name": "A#4",
          "ticks": 44040,
          "time": 68.80809599999999,
          "velocity": 0.44881889763779526
        },
        {
          "duration": 0.023436000000003787,
          "durationTicks": 15,
          "midi": 82,
          "name": "A#5",
          "ticks": 44040,
          "time": 68.80809599999999,
          "velocity": 0.33858267716535434
        },
        {
          "duration": 0.023436000000003787,
          "durationTicks": 15,
          "midi": 35,
          "name": "B1",
          "ticks": 44160,
          "time": 68.995584,
          "velocity": 0.952755905511811
        },
        {
          "duration": 0.023436000000003787,
          "durationTicks": 15,
          "midi": 44,
          "name": "G#2",
          "ticks": 44160,
          "time": 68.995584,
          "velocity": 0.6377952755905512
        },
        {
          "duration": 0.023436000000003787,
          "durationTicks": 15,
          "midi": 49,
          "name": "C#3",
          "ticks": 44160,
          "time": 68.995584,
          "velocity": 0.4094488188976378
        },
        {
          "duration": 0.023436000000003787,
          "durationTicks": 15,
          "midi": 59,
          "name": "B3",
          "ticks": 44160,
          "time": 68.995584,
          "velocity": 0.889763779527559
        },
        {
          "duration": 0.023436000000003787,
          "durationTicks": 15,
          "midi": 70,
          "name": "A#4",
          "ticks": 44160,
          "time": 68.995584,
          "velocity": 0.7322834645669292
        },
        {
          "duration": 0.023436000000003787,
          "durationTicks": 15,
          "midi": 44,
          "name": "G#2",
          "ticks": 44280,
          "time": 69.183072,
          "velocity": 0.29133858267716534
        },
        {
          "duration": 0.023436000000003787,
          "durationTicks": 15,
          "midi": 70,
          "name": "A#4",
          "ticks": 44280,
          "time": 69.183072,
          "velocity": 0.4645669291338583
        },
        {
          "duration": 0.023436000000003787,
          "durationTicks": 15,
          "midi": 44,
          "name": "G#2",
          "ticks": 44400,
          "time": 69.37056,
          "velocity": 0.5118110236220472
        },
        {
          "duration": 0.023436000000003787,
          "durationTicks": 15,
          "midi": 70,
          "name": "A#4",
          "ticks": 44400,
          "time": 69.37056,
          "velocity": 0.5354330708661418
        },
        {
          "duration": 0.023436000000003787,
          "durationTicks": 15,
          "midi": 82,
          "name": "A#5",
          "ticks": 44400,
          "time": 69.37056,
          "velocity": 0.3700787401574803
        },
        {
          "duration": 0.023435999999989576,
          "durationTicks": 15,
          "midi": 44,
          "name": "G#2",
          "ticks": 44520,
          "time": 69.558048,
          "velocity": 0.36220472440944884
        },
        {
          "duration": 0.023435999999989576,
          "durationTicks": 15,
          "midi": 70,
          "name": "A#4",
          "ticks": 44520,
          "time": 69.558048,
          "velocity": 0.44881889763779526
        },
        {
          "duration": 0.023435999999989576,
          "durationTicks": 15,
          "midi": 82,
          "name": "A#5",
          "ticks": 44520,
          "time": 69.558048,
          "velocity": 0.3858267716535433
        },
        {
          "duration": 0.023435999999989576,
          "durationTicks": 15,
          "midi": 37,
          "name": "C#2",
          "ticks": 44640,
          "time": 69.745536,
          "velocity": 1
        },
        {
          "duration": 0.023435999999989576,
          "durationTicks": 15,
          "midi": 44,
          "name": "G#2",
          "ticks": 44640,
          "time": 69.745536,
          "velocity": 0.6535433070866141
        },
        {
          "duration": 0.023435999999989576,
          "durationTicks": 15,
          "midi": 70,
          "name": "A#4",
          "ticks": 44640,
          "time": 69.745536,
          "velocity": 0.7322834645669292
        },
        {
          "duration": 0.023435999999989576,
          "durationTicks": 15,
          "midi": 82,
          "name": "A#5",
          "ticks": 44640,
          "time": 69.745536,
          "velocity": 0.49606299212598426
        },
        {
          "duration": 0.023436000000003787,
          "durationTicks": 15,
          "midi": 44,
          "name": "G#2",
          "ticks": 44760,
          "time": 69.93302399999999,
          "velocity": 0.3779527559055118
        },
        {
          "duration": 0.023436000000003787,
          "durationTicks": 15,
          "midi": 70,
          "name": "A#4",
          "ticks": 44760,
          "time": 69.93302399999999,
          "velocity": 0.4645669291338583
        },
        {
          "duration": 0.023436000000003787,
          "durationTicks": 15,
          "midi": 35,
          "name": "B1",
          "ticks": 44880,
          "time": 70.12051199999999,
          "velocity": 0.6850393700787402
        },
        {
          "duration": 0.023436000000003787,
          "durationTicks": 15,
          "midi": 44,
          "name": "G#2",
          "ticks": 44880,
          "time": 70.12051199999999,
          "velocity": 0.49606299212598426
        },
        {
          "duration": 0.023436000000003787,
          "durationTicks": 15,
          "midi": 70,
          "name": "A#4",
          "ticks": 44880,
          "time": 70.12051199999999,
          "velocity": 0.5354330708661418
        },
        {
          "duration": 0.023436000000003787,
          "durationTicks": 15,
          "midi": 35,
          "name": "B1",
          "ticks": 45000,
          "time": 70.30799999999999,
          "velocity": 0.6850393700787402
        },
        {
          "duration": 0.023436000000003787,
          "durationTicks": 15,
          "midi": 44,
          "name": "G#2",
          "ticks": 45000,
          "time": 70.30799999999999,
          "velocity": 0.36220472440944884
        },
        {
          "duration": 0.023436000000003787,
          "durationTicks": 15,
          "midi": 70,
          "name": "A#4",
          "ticks": 45000,
          "time": 70.30799999999999,
          "velocity": 0.44881889763779526
        },
        {
          "duration": 0.023436000000003787,
          "durationTicks": 15,
          "midi": 82,
          "name": "A#5",
          "ticks": 45000,
          "time": 70.30799999999999,
          "velocity": 0.33070866141732286
        },
        {
          "duration": 0.023436000000003787,
          "durationTicks": 15,
          "midi": 35,
          "name": "B1",
          "ticks": 45120,
          "time": 70.495488,
          "velocity": 0.8110236220472441
        },
        {
          "duration": 0.023436000000003787,
          "durationTicks": 15,
          "midi": 44,
          "name": "G#2",
          "ticks": 45120,
          "time": 70.495488,
          "velocity": 0.6377952755905512
        },
        {
          "duration": 0.023436000000003787,
          "durationTicks": 15,
          "midi": 70,
          "name": "A#4",
          "ticks": 45120,
          "time": 70.495488,
          "velocity": 0.7322834645669292
        },
        {
          "duration": 0.023436000000003787,
          "durationTicks": 15,
          "midi": 82,
          "name": "A#5",
          "ticks": 45120,
          "time": 70.495488,
          "velocity": 0.33858267716535434
        },
        {
          "duration": 0.023436000000003787,
          "durationTicks": 15,
          "midi": 44,
          "name": "G#2",
          "ticks": 45240,
          "time": 70.682976,
          "velocity": 0.29133858267716534
        },
        {
          "duration": 0.023436000000003787,
          "durationTicks": 15,
          "midi": 70,
          "name": "A#4",
          "ticks": 45240,
          "time": 70.682976,
          "velocity": 0.4645669291338583
        },
        {
          "duration": 0.023436000000003787,
          "durationTicks": 15,
          "midi": 44,
          "name": "G#2",
          "ticks": 45360,
          "time": 70.870464,
          "velocity": 0.5118110236220472
        },
        {
          "duration": 0.023436000000003787,
          "durationTicks": 15,
          "midi": 70,
          "name": "A#4",
          "ticks": 45360,
          "time": 70.870464,
          "velocity": 0.5354330708661418
        },
        {
          "duration": 0.023436000000003787,
          "durationTicks": 15,
          "midi": 82,
          "name": "A#5",
          "ticks": 45360,
          "time": 70.870464,
          "velocity": 0.3858267716535433
        },
        {
          "duration": 0.023435999999989576,
          "durationTicks": 15,
          "midi": 44,
          "name": "G#2",
          "ticks": 45480,
          "time": 71.057952,
          "velocity": 0.36220472440944884
        },
        {
          "duration": 0.023435999999989576,
          "durationTicks": 15,
          "midi": 70,
          "name": "A#4",
          "ticks": 45480,
          "time": 71.057952,
          "velocity": 0.44881889763779526
        },
        {
          "duration": 0.023435999999989576,
          "durationTicks": 15,
          "midi": 82,
          "name": "A#5",
          "ticks": 45480,
          "time": 71.057952,
          "velocity": 0.41732283464566927
        },
        {
          "duration": 0.023435999999989576,
          "durationTicks": 15,
          "midi": 37,
          "name": "C#2",
          "ticks": 45600,
          "time": 71.24544,
          "velocity": 0.984251968503937
        },
        {
          "duration": 0.023435999999989576,
          "durationTicks": 15,
          "midi": 44,
          "name": "G#2",
          "ticks": 45600,
          "time": 71.24544,
          "velocity": 0.6535433070866141
        },
        {
          "duration": 0.023435999999989576,
          "durationTicks": 15,
          "midi": 70,
          "name": "A#4",
          "ticks": 45600,
          "time": 71.24544,
          "velocity": 0.7322834645669292
        },
        {
          "duration": 0.023435999999989576,
          "durationTicks": 15,
          "midi": 82,
          "name": "A#5",
          "ticks": 45600,
          "time": 71.24544,
          "velocity": 0.4645669291338583
        },
        {
          "duration": 0.023436000000003787,
          "durationTicks": 15,
          "midi": 44,
          "name": "G#2",
          "ticks": 45720,
          "time": 71.43292799999999,
          "velocity": 0.3779527559055118
        },
        {
          "duration": 0.023436000000003787,
          "durationTicks": 15,
          "midi": 70,
          "name": "A#4",
          "ticks": 45720,
          "time": 71.43292799999999,
          "velocity": 0.4645669291338583
        },
        {
          "duration": 0.023436000000003787,
          "durationTicks": 15,
          "midi": 46,
          "name": "A#2",
          "ticks": 45840,
          "time": 71.62041599999999,
          "velocity": 0.5433070866141733
        },
        {
          "duration": 0.023436000000003787,
          "durationTicks": 15,
          "midi": 70,
          "name": "A#4",
          "ticks": 45840,
          "time": 71.62041599999999,
          "velocity": 0.5354330708661418
        },
        {
          "duration": 0.023436000000003787,
          "durationTicks": 15,
          "midi": 82,
          "name": "A#5",
          "ticks": 45840,
          "time": 71.62041599999999,
          "velocity": 0.41732283464566927
        },
        {
          "duration": 0.023436000000003787,
          "durationTicks": 15,
          "midi": 70,
          "name": "A#4",
          "ticks": 45960,
          "time": 71.807904,
          "velocity": 0.44881889763779526
        },
        {
          "duration": 0.023436000000003787,
          "durationTicks": 15,
          "midi": 82,
          "name": "A#5",
          "ticks": 45960,
          "time": 71.807904,
          "velocity": 0.33858267716535434
        },
        {
          "duration": 0.023436000000003787,
          "durationTicks": 15,
          "midi": 35,
          "name": "B1",
          "ticks": 46080,
          "time": 71.995392,
          "velocity": 0.8110236220472441
        },
        {
          "duration": 0.023436000000003787,
          "durationTicks": 15,
          "midi": 44,
          "name": "G#2",
          "ticks": 46080,
          "time": 71.995392,
          "velocity": 0.7559055118110236
        },
        {
          "duration": 0.023436000000003787,
          "durationTicks": 15,
          "midi": 70,
          "name": "A#4",
          "ticks": 46080,
          "time": 71.995392,
          "velocity": 0.7322834645669292
        },
        {
          "duration": 0.023436000000003787,
          "durationTicks": 15,
          "midi": 44,
          "name": "G#2",
          "ticks": 46200,
          "time": 72.18288,
          "velocity": 0.4094488188976378
        },
        {
          "duration": 0.023436000000003787,
          "durationTicks": 15,
          "midi": 70,
          "name": "A#4",
          "ticks": 46200,
          "time": 72.18288,
          "velocity": 0.4645669291338583
        },
        {
          "duration": 0.023435999999989576,
          "durationTicks": 15,
          "midi": 44,
          "name": "G#2",
          "ticks": 46320,
          "time": 72.370368,
          "velocity": 0.6299212598425197
        },
        {
          "duration": 0.023435999999989576,
          "durationTicks": 15,
          "midi": 70,
          "name": "A#4",
          "ticks": 46320,
          "time": 72.370368,
          "velocity": 0.5354330708661418
        },
        {
          "duration": 0.023435999999989576,
          "durationTicks": 15,
          "midi": 82,
          "name": "A#5",
          "ticks": 46320,
          "time": 72.370368,
          "velocity": 0.3700787401574803
        },
        {
          "duration": 0.023435999999989576,
          "durationTicks": 15,
          "midi": 44,
          "name": "G#2",
          "ticks": 46440,
          "time": 72.557856,
          "velocity": 0.48031496062992124
        },
        {
          "duration": 0.023435999999989576,
          "durationTicks": 15,
          "midi": 70,
          "name": "A#4",
          "ticks": 46440,
          "time": 72.557856,
          "velocity": 0.44881889763779526
        },
        {
          "duration": 0.023435999999989576,
          "durationTicks": 15,
          "midi": 82,
          "name": "A#5",
          "ticks": 46440,
          "time": 72.557856,
          "velocity": 0.3858267716535433
        },
        {
          "duration": 0.023436000000003787,
          "durationTicks": 15,
          "midi": 37,
          "name": "C#2",
          "ticks": 46560,
          "time": 72.74534399999999,
          "velocity": 1
        },
        {
          "duration": 0.023436000000003787,
          "durationTicks": 15,
          "midi": 44,
          "name": "G#2",
          "ticks": 46560,
          "time": 72.74534399999999,
          "velocity": 0.7716535433070866
        },
        {
          "duration": 0.023436000000003787,
          "durationTicks": 15,
          "midi": 70,
          "name": "A#4",
          "ticks": 46560,
          "time": 72.74534399999999,
          "velocity": 0.7322834645669292
        },
        {
          "duration": 0.023436000000003787,
          "durationTicks": 15,
          "midi": 82,
          "name": "A#5",
          "ticks": 46560,
          "time": 72.74534399999999,
          "velocity": 0.49606299212598426
        },
        {
          "duration": 0.023436000000003787,
          "durationTicks": 15,
          "midi": 44,
          "name": "G#2",
          "ticks": 46680,
          "time": 72.93283199999999,
          "velocity": 0.49606299212598426
        },
        {
          "duration": 0.023436000000003787,
          "durationTicks": 15,
          "midi": 70,
          "name": "A#4",
          "ticks": 46680,
          "time": 72.93283199999999,
          "velocity": 0.4645669291338583
        },
        {
          "duration": 0.023436000000003787,
          "durationTicks": 15,
          "midi": 35,
          "name": "B1",
          "ticks": 46800,
          "time": 73.12031999999999,
          "velocity": 0.7952755905511811
        },
        {
          "duration": 0.023436000000003787,
          "durationTicks": 15,
          "midi": 44,
          "name": "G#2",
          "ticks": 46800,
          "time": 73.12031999999999,
          "velocity": 0.6141732283464567
        },
        {
          "duration": 0.023436000000003787,
          "durationTicks": 15,
          "midi": 70,
          "name": "A#4",
          "ticks": 46800,
          "time": 73.12031999999999,
          "velocity": 0.5354330708661418
        },
        {
          "duration": 0.023436000000003787,
          "durationTicks": 15,
          "midi": 44,
          "name": "G#2",
          "ticks": 46920,
          "time": 73.307808,
          "velocity": 0.48031496062992124
        },
        {
          "duration": 0.023436000000003787,
          "durationTicks": 15,
          "midi": 70,
          "name": "A#4",
          "ticks": 46920,
          "time": 73.307808,
          "velocity": 0.44881889763779526
        },
        {
          "duration": 0.023436000000003787,
          "durationTicks": 15,
          "midi": 82,
          "name": "A#5",
          "ticks": 46920,
          "time": 73.307808,
          "velocity": 0.33070866141732286
        },
        {
          "duration": 0.023436000000003787,
          "durationTicks": 15,
          "midi": 35,
          "name": "B1",
          "ticks": 47040,
          "time": 73.495296,
          "velocity": 0.8110236220472441
        },
        {
          "duration": 0.023436000000003787,
          "durationTicks": 15,
          "midi": 44,
          "name": "G#2",
          "ticks": 47040,
          "time": 73.495296,
          "velocity": 0.7559055118110236
        },
        {
          "duration": 0.023436000000003787,
          "durationTicks": 15,
          "midi": 70,
          "name": "A#4",
          "ticks": 47040,
          "time": 73.495296,
          "velocity": 0.7322834645669292
        },
        {
          "duration": 0.023436000000003787,
          "durationTicks": 15,
          "midi": 82,
          "name": "A#5",
          "ticks": 47040,
          "time": 73.495296,
          "velocity": 0.33858267716535434
        },
        {
          "duration": 0.023436000000003787,
          "durationTicks": 15,
          "midi": 44,
          "name": "G#2",
          "ticks": 47160,
          "time": 73.682784,
          "velocity": 0.4094488188976378
        },
        {
          "duration": 0.023436000000003787,
          "durationTicks": 15,
          "midi": 70,
          "name": "A#4",
          "ticks": 47160,
          "time": 73.682784,
          "velocity": 0.4645669291338583
        },
        {
          "duration": 0.023435999999989576,
          "durationTicks": 15,
          "midi": 44,
          "name": "G#2",
          "ticks": 47280,
          "time": 73.870272,
          "velocity": 0.6299212598425197
        },
        {
          "duration": 0.023435999999989576,
          "durationTicks": 15,
          "midi": 70,
          "name": "A#4",
          "ticks": 47280,
          "time": 73.870272,
          "velocity": 0.5354330708661418
        },
        {
          "duration": 0.023435999999989576,
          "durationTicks": 15,
          "midi": 82,
          "name": "A#5",
          "ticks": 47280,
          "time": 73.870272,
          "velocity": 0.3858267716535433
        },
        {
          "duration": 0.023435999999989576,
          "durationTicks": 15,
          "midi": 44,
          "name": "G#2",
          "ticks": 47400,
          "time": 74.05776,
          "velocity": 0.48031496062992124
        },
        {
          "duration": 0.023435999999989576,
          "durationTicks": 15,
          "midi": 70,
          "name": "A#4",
          "ticks": 47400,
          "time": 74.05776,
          "velocity": 0.44881889763779526
        },
        {
          "duration": 0.023435999999989576,
          "durationTicks": 15,
          "midi": 82,
          "name": "A#5",
          "ticks": 47400,
          "time": 74.05776,
          "velocity": 0.41732283464566927
        },
        {
          "duration": 0.023436000000003787,
          "durationTicks": 15,
          "midi": 37,
          "name": "C#2",
          "ticks": 47520,
          "time": 74.24524799999999,
          "velocity": 0.984251968503937
        },
        {
          "duration": 0.023436000000003787,
          "durationTicks": 15,
          "midi": 44,
          "name": "G#2",
          "ticks": 47520,
          "time": 74.24524799999999,
          "velocity": 0.7716535433070866
        },
        {
          "duration": 0.023436000000003787,
          "durationTicks": 15,
          "midi": 70,
          "name": "A#4",
          "ticks": 47520,
          "time": 74.24524799999999,
          "velocity": 0.7322834645669292
        },
        {
          "duration": 0.023436000000003787,
          "durationTicks": 15,
          "midi": 82,
          "name": "A#5",
          "ticks": 47520,
          "time": 74.24524799999999,
          "velocity": 0.4645669291338583
        },
        {
          "duration": 0.023436000000003787,
          "durationTicks": 15,
          "midi": 44,
          "name": "G#2",
          "ticks": 47640,
          "time": 74.43273599999999,
          "velocity": 0.49606299212598426
        },
        {
          "duration": 0.023436000000003787,
          "durationTicks": 15,
          "midi": 70,
          "name": "A#4",
          "ticks": 47640,
          "time": 74.43273599999999,
          "velocity": 0.4645669291338583
        },
        {
          "duration": 0.023436000000003787,
          "durationTicks": 15,
          "midi": 46,
          "name": "A#2",
          "ticks": 47760,
          "time": 74.620224,
          "velocity": 0.6614173228346457
        },
        {
          "duration": 0.023436000000003787,
          "durationTicks": 15,
          "midi": 70,
          "name": "A#4",
          "ticks": 47760,
          "time": 74.620224,
          "velocity": 0.5354330708661418
        },
        {
          "duration": 0.023436000000003787,
          "durationTicks": 15,
          "midi": 82,
          "name": "A#5",
          "ticks": 47760,
          "time": 74.620224,
          "velocity": 0.41732283464566927
        },
        {
          "duration": 0.023436000000003787,
          "durationTicks": 15,
          "midi": 35,
          "name": "B1",
          "ticks": 47880,
          "time": 74.807712,
          "velocity": 0.8110236220472441
        },
        {
          "duration": 0.023436000000003787,
          "durationTicks": 15,
          "midi": 70,
          "name": "A#4",
          "ticks": 47880,
          "time": 74.807712,
          "velocity": 0.44881889763779526
        },
        {
          "duration": 0.023436000000003787,
          "durationTicks": 15,
          "midi": 82,
          "name": "A#5",
          "ticks": 47880,
          "time": 74.807712,
          "velocity": 0.33858267716535434
        },
        {
          "duration": 0.023436000000003787,
          "durationTicks": 15,
          "midi": 35,
          "name": "B1",
          "ticks": 48000,
          "time": 74.9952,
          "velocity": 0.8110236220472441
        },
        {
          "duration": 0.023436000000003787,
          "durationTicks": 15,
          "midi": 44,
          "name": "G#2",
          "ticks": 48000,
          "time": 74.9952,
          "velocity": 0.7559055118110236
        },
        {
          "duration": 0.023436000000003787,
          "durationTicks": 15,
          "midi": 70,
          "name": "A#4",
          "ticks": 48000,
          "time": 74.9952,
          "velocity": 0.7322834645669292
        },
        {
          "duration": 0.023435999999989576,
          "durationTicks": 15,
          "midi": 44,
          "name": "G#2",
          "ticks": 48120,
          "time": 75.182688,
          "velocity": 0.4094488188976378
        },
        {
          "duration": 0.023435999999989576,
          "durationTicks": 15,
          "midi": 70,
          "name": "A#4",
          "ticks": 48120,
          "time": 75.182688,
          "velocity": 0.4645669291338583
        },
        {
          "duration": 0.023435999999989576,
          "durationTicks": 15,
          "midi": 44,
          "name": "G#2",
          "ticks": 48240,
          "time": 75.370176,
          "velocity": 0.6299212598425197
        },
        {
          "duration": 0.023435999999989576,
          "durationTicks": 15,
          "midi": 70,
          "name": "A#4",
          "ticks": 48240,
          "time": 75.370176,
          "velocity": 0.5354330708661418
        },
        {
          "duration": 0.023435999999989576,
          "durationTicks": 15,
          "midi": 82,
          "name": "A#5",
          "ticks": 48240,
          "time": 75.370176,
          "velocity": 0.3700787401574803
        },
        {
          "duration": 0.023436000000003787,
          "durationTicks": 15,
          "midi": 44,
          "name": "G#2",
          "ticks": 48360,
          "time": 75.55766399999999,
          "velocity": 0.48031496062992124
        },
        {
          "duration": 0.023436000000003787,
          "durationTicks": 15,
          "midi": 70,
          "name": "A#4",
          "ticks": 48360,
          "time": 75.55766399999999,
          "velocity": 0.44881889763779526
        },
        {
          "duration": 0.023436000000003787,
          "durationTicks": 15,
          "midi": 82,
          "name": "A#5",
          "ticks": 48360,
          "time": 75.55766399999999,
          "velocity": 0.3858267716535433
        },
        {
          "duration": 0.023436000000003787,
          "durationTicks": 15,
          "midi": 37,
          "name": "C#2",
          "ticks": 48480,
          "time": 75.74515199999999,
          "velocity": 1
        },
        {
          "duration": 0.023436000000003787,
          "durationTicks": 15,
          "midi": 44,
          "name": "G#2",
          "ticks": 48480,
          "time": 75.74515199999999,
          "velocity": 0.7716535433070866
        },
        {
          "duration": 0.023436000000003787,
          "durationTicks": 15,
          "midi": 70,
          "name": "A#4",
          "ticks": 48480,
          "time": 75.74515199999999,
          "velocity": 0.7322834645669292
        },
        {
          "duration": 0.023436000000003787,
          "durationTicks": 15,
          "midi": 82,
          "name": "A#5",
          "ticks": 48480,
          "time": 75.74515199999999,
          "velocity": 0.49606299212598426
        },
        {
          "duration": 0.023436000000003787,
          "durationTicks": 15,
          "midi": 44,
          "name": "G#2",
          "ticks": 48600,
          "time": 75.93263999999999,
          "velocity": 0.49606299212598426
        },
        {
          "duration": 0.023436000000003787,
          "durationTicks": 15,
          "midi": 70,
          "name": "A#4",
          "ticks": 48600,
          "time": 75.93263999999999,
          "velocity": 0.4645669291338583
        },
        {
          "duration": 0.023436000000003787,
          "durationTicks": 15,
          "midi": 35,
          "name": "B1",
          "ticks": 48720,
          "time": 76.120128,
          "velocity": 0.6850393700787402
        },
        {
          "duration": 0.023436000000003787,
          "durationTicks": 15,
          "midi": 44,
          "name": "G#2",
          "ticks": 48720,
          "time": 76.120128,
          "velocity": 0.6141732283464567
        },
        {
          "duration": 0.023436000000003787,
          "durationTicks": 15,
          "midi": 70,
          "name": "A#4",
          "ticks": 48720,
          "time": 76.120128,
          "velocity": 0.5354330708661418
        },
        {
          "duration": 0.023436000000003787,
          "durationTicks": 15,
          "midi": 35,
          "name": "B1",
          "ticks": 48840,
          "time": 76.307616,
          "velocity": 0.6850393700787402
        },
        {
          "duration": 0.023436000000003787,
          "durationTicks": 15,
          "midi": 44,
          "name": "G#2",
          "ticks": 48840,
          "time": 76.307616,
          "velocity": 0.48031496062992124
        },
        {
          "duration": 0.023436000000003787,
          "durationTicks": 15,
          "midi": 70,
          "name": "A#4",
          "ticks": 48840,
          "time": 76.307616,
          "velocity": 0.44881889763779526
        },
        {
          "duration": 0.023436000000003787,
          "durationTicks": 15,
          "midi": 82,
          "name": "A#5",
          "ticks": 48840,
          "time": 76.307616,
          "velocity": 0.33070866141732286
        },
        {
          "duration": 0.023436000000003787,
          "durationTicks": 15,
          "midi": 35,
          "name": "B1",
          "ticks": 48960,
          "time": 76.495104,
          "velocity": 0.8110236220472441
        },
        {
          "duration": 0.023436000000003787,
          "durationTicks": 15,
          "midi": 44,
          "name": "G#2",
          "ticks": 48960,
          "time": 76.495104,
          "velocity": 0.7559055118110236
        },
        {
          "duration": 0.023436000000003787,
          "durationTicks": 15,
          "midi": 70,
          "name": "A#4",
          "ticks": 48960,
          "time": 76.495104,
          "velocity": 0.7322834645669292
        },
        {
          "duration": 0.023436000000003787,
          "durationTicks": 15,
          "midi": 82,
          "name": "A#5",
          "ticks": 48960,
          "time": 76.495104,
          "velocity": 0.33858267716535434
        },
        {
          "duration": 0.023435999999989576,
          "durationTicks": 15,
          "midi": 44,
          "name": "G#2",
          "ticks": 49080,
          "time": 76.682592,
          "velocity": 0.4094488188976378
        },
        {
          "duration": 0.023435999999989576,
          "durationTicks": 15,
          "midi": 70,
          "name": "A#4",
          "ticks": 49080,
          "time": 76.682592,
          "velocity": 0.4645669291338583
        },
        {
          "duration": 0.023435999999989576,
          "durationTicks": 15,
          "midi": 44,
          "name": "G#2",
          "ticks": 49200,
          "time": 76.87008,
          "velocity": 0.6299212598425197
        },
        {
          "duration": 0.023435999999989576,
          "durationTicks": 15,
          "midi": 70,
          "name": "A#4",
          "ticks": 49200,
          "time": 76.87008,
          "velocity": 0.5354330708661418
        },
        {
          "duration": 0.023435999999989576,
          "durationTicks": 15,
          "midi": 82,
          "name": "A#5",
          "ticks": 49200,
          "time": 76.87008,
          "velocity": 0.3858267716535433
        },
        {
          "duration": 0.023436000000003787,
          "durationTicks": 15,
          "midi": 44,
          "name": "G#2",
          "ticks": 49320,
          "time": 77.05756799999999,
          "velocity": 0.48031496062992124
        },
        {
          "duration": 0.023436000000003787,
          "durationTicks": 15,
          "midi": 70,
          "name": "A#4",
          "ticks": 49320,
          "time": 77.05756799999999,
          "velocity": 0.44881889763779526
        },
        {
          "duration": 0.023436000000003787,
          "durationTicks": 15,
          "midi": 82,
          "name": "A#5",
          "ticks": 49320,
          "time": 77.05756799999999,
          "velocity": 0.41732283464566927
        },
        {
          "duration": 0.023436000000003787,
          "durationTicks": 15,
          "midi": 37,
          "name": "C#2",
          "ticks": 49440,
          "time": 77.24505599999999,
          "velocity": 0.984251968503937
        },
        {
          "duration": 0.023436000000003787,
          "durationTicks": 15,
          "midi": 44,
          "name": "G#2",
          "ticks": 49440,
          "time": 77.24505599999999,
          "velocity": 0.7716535433070866
        },
        {
          "duration": 0.023436000000003787,
          "durationTicks": 15,
          "midi": 70,
          "name": "A#4",
          "ticks": 49440,
          "time": 77.24505599999999,
          "velocity": 0.7322834645669292
        },
        {
          "duration": 0.023436000000003787,
          "durationTicks": 15,
          "midi": 82,
          "name": "A#5",
          "ticks": 49440,
          "time": 77.24505599999999,
          "velocity": 0.4645669291338583
        },
        {
          "duration": 0.023436000000003787,
          "durationTicks": 15,
          "midi": 44,
          "name": "G#2",
          "ticks": 49560,
          "time": 77.432544,
          "velocity": 0.49606299212598426
        },
        {
          "duration": 0.023436000000003787,
          "durationTicks": 15,
          "midi": 70,
          "name": "A#4",
          "ticks": 49560,
          "time": 77.432544,
          "velocity": 0.4645669291338583
        },
        {
          "duration": 0.023436000000003787,
          "durationTicks": 15,
          "midi": 46,
          "name": "A#2",
          "ticks": 49680,
          "time": 77.620032,
          "velocity": 0.6614173228346457
        },
        {
          "duration": 0.023436000000003787,
          "durationTicks": 15,
          "midi": 70,
          "name": "A#4",
          "ticks": 49680,
          "time": 77.620032,
          "velocity": 0.5354330708661418
        },
        {
          "duration": 0.023436000000003787,
          "durationTicks": 15,
          "midi": 82,
          "name": "A#5",
          "ticks": 49680,
          "time": 77.620032,
          "velocity": 0.41732283464566927
        },
        {
          "duration": 0.023436000000003787,
          "durationTicks": 15,
          "midi": 70,
          "name": "A#4",
          "ticks": 49800,
          "time": 77.80752,
          "velocity": 0.44881889763779526
        },
        {
          "duration": 0.023436000000003787,
          "durationTicks": 15,
          "midi": 82,
          "name": "A#5",
          "ticks": 49800,
          "time": 77.80752,
          "velocity": 0.33858267716535434
        },
        {
          "duration": 0.023435999999989576,
          "durationTicks": 15,
          "midi": 35,
          "name": "B1",
          "ticks": 49920,
          "time": 77.995008,
          "velocity": 0.8110236220472441
        },
        {
          "duration": 0.023435999999989576,
          "durationTicks": 15,
          "midi": 44,
          "name": "G#2",
          "ticks": 49920,
          "time": 77.995008,
          "velocity": 0.7559055118110236
        },
        {
          "duration": 0.023435999999989576,
          "durationTicks": 15,
          "midi": 70,
          "name": "A#4",
          "ticks": 49920,
          "time": 77.995008,
          "velocity": 0.7322834645669292
        },
        {
          "duration": 0.023435999999989576,
          "durationTicks": 15,
          "midi": 44,
          "name": "G#2",
          "ticks": 50040,
          "time": 78.182496,
          "velocity": 0.4094488188976378
        },
        {
          "duration": 0.023435999999989576,
          "durationTicks": 15,
          "midi": 70,
          "name": "A#4",
          "ticks": 50040,
          "time": 78.182496,
          "velocity": 0.4645669291338583
        },
        {
          "duration": 0.023436000000003787,
          "durationTicks": 15,
          "midi": 44,
          "name": "G#2",
          "ticks": 50160,
          "time": 78.36998399999999,
          "velocity": 0.6299212598425197
        },
        {
          "duration": 0.023436000000003787,
          "durationTicks": 15,
          "midi": 70,
          "name": "A#4",
          "ticks": 50160,
          "time": 78.36998399999999,
          "velocity": 0.5354330708661418
        },
        {
          "duration": 0.023436000000003787,
          "durationTicks": 15,
          "midi": 82,
          "name": "A#5",
          "ticks": 50160,
          "time": 78.36998399999999,
          "velocity": 0.3700787401574803
        },
        {
          "duration": 0.023436000000003787,
          "durationTicks": 15,
          "midi": 44,
          "name": "G#2",
          "ticks": 50280,
          "time": 78.55747199999999,
          "velocity": 0.48031496062992124
        },
        {
          "duration": 0.023436000000003787,
          "durationTicks": 15,
          "midi": 70,
          "name": "A#4",
          "ticks": 50280,
          "time": 78.55747199999999,
          "velocity": 0.44881889763779526
        },
        {
          "duration": 0.023436000000003787,
          "durationTicks": 15,
          "midi": 82,
          "name": "A#5",
          "ticks": 50280,
          "time": 78.55747199999999,
          "velocity": 0.3858267716535433
        },
        {
          "duration": 0.023436000000003787,
          "durationTicks": 15,
          "midi": 37,
          "name": "C#2",
          "ticks": 50400,
          "time": 78.74495999999999,
          "velocity": 1
        },
        {
          "duration": 0.023436000000003787,
          "durationTicks": 15,
          "midi": 44,
          "name": "G#2",
          "ticks": 50400,
          "time": 78.74495999999999,
          "velocity": 0.7716535433070866
        },
        {
          "duration": 0.023436000000003787,
          "durationTicks": 15,
          "midi": 70,
          "name": "A#4",
          "ticks": 50400,
          "time": 78.74495999999999,
          "velocity": 0.7322834645669292
        },
        {
          "duration": 0.023436000000003787,
          "durationTicks": 15,
          "midi": 82,
          "name": "A#5",
          "ticks": 50400,
          "time": 78.74495999999999,
          "velocity": 0.49606299212598426
        },
        {
          "duration": 0.023436000000003787,
          "durationTicks": 15,
          "midi": 44,
          "name": "G#2",
          "ticks": 50520,
          "time": 78.932448,
          "velocity": 0.49606299212598426
        },
        {
          "duration": 0.023436000000003787,
          "durationTicks": 15,
          "midi": 70,
          "name": "A#4",
          "ticks": 50520,
          "time": 78.932448,
          "velocity": 0.4645669291338583
        },
        {
          "duration": 0.023436000000003787,
          "durationTicks": 15,
          "midi": 82,
          "name": "A#5",
          "ticks": 50520,
          "time": 78.932448,
          "velocity": 0.4251968503937008
        },
        {
          "duration": 0.023436000000003787,
          "durationTicks": 15,
          "midi": 35,
          "name": "B1",
          "ticks": 50640,
          "time": 79.119936,
          "velocity": 0.8110236220472441
        },
        {
          "duration": 0.023436000000003787,
          "durationTicks": 15,
          "midi": 44,
          "name": "G#2",
          "ticks": 50640,
          "time": 79.119936,
          "velocity": 0.6141732283464567
        },
        {
          "duration": 0.023436000000003787,
          "durationTicks": 15,
          "midi": 70,
          "name": "A#4",
          "ticks": 50640,
          "time": 79.119936,
          "velocity": 0.5354330708661418
        },
        {
          "duration": 0.023436000000003787,
          "durationTicks": 15,
          "midi": 44,
          "name": "G#2",
          "ticks": 50760,
          "time": 79.307424,
          "velocity": 0.48031496062992124
        },
        {
          "duration": 0.023436000000003787,
          "durationTicks": 15,
          "midi": 70,
          "name": "A#4",
          "ticks": 50760,
          "time": 79.307424,
          "velocity": 0.44881889763779526
        },
        {
          "duration": 0.023436000000003787,
          "durationTicks": 15,
          "midi": 82,
          "name": "A#5",
          "ticks": 50760,
          "time": 79.307424,
          "velocity": 0.33070866141732286
        },
        {
          "duration": 0.023435999999989576,
          "durationTicks": 15,
          "midi": 35,
          "name": "B1",
          "ticks": 50880,
          "time": 79.494912,
          "velocity": 0.8110236220472441
        },
        {
          "duration": 0.023435999999989576,
          "durationTicks": 15,
          "midi": 44,
          "name": "G#2",
          "ticks": 50880,
          "time": 79.494912,
          "velocity": 0.7559055118110236
        },
        {
          "duration": 0.023435999999989576,
          "durationTicks": 15,
          "midi": 70,
          "name": "A#4",
          "ticks": 50880,
          "time": 79.494912,
          "velocity": 0.7322834645669292
        },
        {
          "duration": 0.023435999999989576,
          "durationTicks": 15,
          "midi": 82,
          "name": "A#5",
          "ticks": 50880,
          "time": 79.494912,
          "velocity": 0.33858267716535434
        },
        {
          "duration": 0.023435999999989576,
          "durationTicks": 15,
          "midi": 44,
          "name": "G#2",
          "ticks": 51000,
          "time": 79.6824,
          "velocity": 0.4094488188976378
        },
        {
          "duration": 0.023435999999989576,
          "durationTicks": 15,
          "midi": 70,
          "name": "A#4",
          "ticks": 51000,
          "time": 79.6824,
          "velocity": 0.4645669291338583
        },
        {
          "duration": 0.023436000000003787,
          "durationTicks": 15,
          "midi": 44,
          "name": "G#2",
          "ticks": 51120,
          "time": 79.86988799999999,
          "velocity": 0.6299212598425197
        },
        {
          "duration": 0.023436000000003787,
          "durationTicks": 15,
          "midi": 70,
          "name": "A#4",
          "ticks": 51120,
          "time": 79.86988799999999,
          "velocity": 0.5354330708661418
        },
        {
          "duration": 0.023436000000003787,
          "durationTicks": 15,
          "midi": 82,
          "name": "A#5",
          "ticks": 51120,
          "time": 79.86988799999999,
          "velocity": 0.3858267716535433
        },
        {
          "duration": 0.023436000000003787,
          "durationTicks": 15,
          "midi": 44,
          "name": "G#2",
          "ticks": 51240,
          "time": 80.05737599999999,
          "velocity": 0.48031496062992124
        },
        {
          "duration": 0.023436000000003787,
          "durationTicks": 15,
          "midi": 70,
          "name": "A#4",
          "ticks": 51240,
          "time": 80.05737599999999,
          "velocity": 0.44881889763779526
        },
        {
          "duration": 0.023436000000003787,
          "durationTicks": 15,
          "midi": 82,
          "name": "A#5",
          "ticks": 51240,
          "time": 80.05737599999999,
          "velocity": 0.41732283464566927
        },
        {
          "duration": 0.023436000000003787,
          "durationTicks": 15,
          "midi": 37,
          "name": "C#2",
          "ticks": 51360,
          "time": 80.24486399999999,
          "velocity": 0.984251968503937
        },
        {
          "duration": 0.023436000000003787,
          "durationTicks": 15,
          "midi": 44,
          "name": "G#2",
          "ticks": 51360,
          "time": 80.24486399999999,
          "velocity": 0.7716535433070866
        },
        {
          "duration": 0.023436000000003787,
          "durationTicks": 15,
          "midi": 70,
          "name": "A#4",
          "ticks": 51360,
          "time": 80.24486399999999,
          "velocity": 0.7322834645669292
        },
        {
          "duration": 0.023436000000003787,
          "durationTicks": 15,
          "midi": 82,
          "name": "A#5",
          "ticks": 51360,
          "time": 80.24486399999999,
          "velocity": 0.4645669291338583
        },
        {
          "duration": 0.023436000000003787,
          "durationTicks": 15,
          "midi": 44,
          "name": "G#2",
          "ticks": 51480,
          "time": 80.432352,
          "velocity": 0.49606299212598426
        },
        {
          "duration": 0.023436000000003787,
          "durationTicks": 15,
          "midi": 70,
          "name": "A#4",
          "ticks": 51480,
          "time": 80.432352,
          "velocity": 0.4645669291338583
        },
        {
          "duration": 0.023436000000003787,
          "durationTicks": 15,
          "midi": 82,
          "name": "A#5",
          "ticks": 51480,
          "time": 80.432352,
          "velocity": 0.4015748031496063
        },
        {
          "duration": 0.023436000000003787,
          "durationTicks": 15,
          "midi": 46,
          "name": "A#2",
          "ticks": 51600,
          "time": 80.61984,
          "velocity": 0.6614173228346457
        },
        {
          "duration": 0.023436000000003787,
          "durationTicks": 15,
          "midi": 70,
          "name": "A#4",
          "ticks": 51600,
          "time": 80.61984,
          "velocity": 0.5354330708661418
        },
        {
          "duration": 0.023436000000003787,
          "durationTicks": 15,
          "midi": 82,
          "name": "A#5",
          "ticks": 51600,
          "time": 80.61984,
          "velocity": 0.41732283464566927
        },
        {
          "duration": 0.023435999999989576,
          "durationTicks": 15,
          "midi": 35,
          "name": "B1",
          "ticks": 51720,
          "time": 80.807328,
          "velocity": 0.8110236220472441
        },
        {
          "duration": 0.023435999999989576,
          "durationTicks": 15,
          "midi": 70,
          "name": "A#4",
          "ticks": 51720,
          "time": 80.807328,
          "velocity": 0.44881889763779526
        },
        {
          "duration": 0.023435999999989576,
          "durationTicks": 15,
          "midi": 82,
          "name": "A#5",
          "ticks": 51720,
          "time": 80.807328,
          "velocity": 0.33858267716535434
        },
        {
          "duration": 0.023435999999989576,
          "durationTicks": 15,
          "midi": 35,
          "name": "B1",
          "ticks": 51840,
          "time": 80.994816,
          "velocity": 0.8110236220472441
        },
        {
          "duration": 0.023435999999989576,
          "durationTicks": 15,
          "midi": 44,
          "name": "G#2",
          "ticks": 51840,
          "time": 80.994816,
          "velocity": 0.7559055118110236
        },
        {
          "duration": 0.023435999999989576,
          "durationTicks": 15,
          "midi": 70,
          "name": "A#4",
          "ticks": 51840,
          "time": 80.994816,
          "velocity": 0.7322834645669292
        },
        {
          "duration": 0.023436000000003787,
          "durationTicks": 15,
          "midi": 44,
          "name": "G#2",
          "ticks": 51960,
          "time": 81.18230399999999,
          "velocity": 0.4094488188976378
        },
        {
          "duration": 0.023436000000003787,
          "durationTicks": 15,
          "midi": 70,
          "name": "A#4",
          "ticks": 51960,
          "time": 81.18230399999999,
          "velocity": 0.4645669291338583
        },
        {
          "duration": 0.023436000000003787,
          "durationTicks": 15,
          "midi": 44,
          "name": "G#2",
          "ticks": 52080,
          "time": 81.36979199999999,
          "velocity": 0.6299212598425197
        },
        {
          "duration": 0.023436000000003787,
          "durationTicks": 15,
          "midi": 70,
          "name": "A#4",
          "ticks": 52080,
          "time": 81.36979199999999,
          "velocity": 0.5354330708661418
        },
        {
          "duration": 0.023436000000003787,
          "durationTicks": 15,
          "midi": 82,
          "name": "A#5",
          "ticks": 52080,
          "time": 81.36979199999999,
          "velocity": 0.3700787401574803
        },
        {
          "duration": 0.023436000000003787,
          "durationTicks": 15,
          "midi": 44,
          "name": "G#2",
          "ticks": 52200,
          "time": 81.55727999999999,
          "velocity": 0.48031496062992124
        },
        {
          "duration": 0.023436000000003787,
          "durationTicks": 15,
          "midi": 70,
          "name": "A#4",
          "ticks": 52200,
          "time": 81.55727999999999,
          "velocity": 0.44881889763779526
        },
        {
          "duration": 0.023436000000003787,
          "durationTicks": 15,
          "midi": 82,
          "name": "A#5",
          "ticks": 52200,
          "time": 81.55727999999999,
          "velocity": 0.3858267716535433
        },
        {
          "duration": 0.023436000000003787,
          "durationTicks": 15,
          "midi": 37,
          "name": "C#2",
          "ticks": 52320,
          "time": 81.744768,
          "velocity": 1
        },
        {
          "duration": 0.023436000000003787,
          "durationTicks": 15,
          "midi": 44,
          "name": "G#2",
          "ticks": 52320,
          "time": 81.744768,
          "velocity": 0.7716535433070866
        },
        {
          "duration": 0.023436000000003787,
          "durationTicks": 15,
          "midi": 70,
          "name": "A#4",
          "ticks": 52320,
          "time": 81.744768,
          "velocity": 0.7322834645669292
        },
        {
          "duration": 0.023436000000003787,
          "durationTicks": 15,
          "midi": 82,
          "name": "A#5",
          "ticks": 52320,
          "time": 81.744768,
          "velocity": 0.49606299212598426
        },
        {
          "duration": 0.023436000000003787,
          "durationTicks": 15,
          "midi": 44,
          "name": "G#2",
          "ticks": 52440,
          "time": 81.932256,
          "velocity": 0.49606299212598426
        },
        {
          "duration": 0.023436000000003787,
          "durationTicks": 15,
          "midi": 70,
          "name": "A#4",
          "ticks": 52440,
          "time": 81.932256,
          "velocity": 0.4645669291338583
        },
        {
          "duration": 0.023436000000003787,
          "durationTicks": 15,
          "midi": 82,
          "name": "A#5",
          "ticks": 52440,
          "time": 81.932256,
          "velocity": 0.4881889763779528
        },
        {
          "duration": 0.023436000000003787,
          "durationTicks": 15,
          "midi": 35,
          "name": "B1",
          "ticks": 52560,
          "time": 82.119744,
          "velocity": 0.6850393700787402
        },
        {
          "duration": 0.023436000000003787,
          "durationTicks": 15,
          "midi": 44,
          "name": "G#2",
          "ticks": 52560,
          "time": 82.119744,
          "velocity": 0.6141732283464567
        },
        {
          "duration": 0.023436000000003787,
          "durationTicks": 15,
          "midi": 70,
          "name": "A#4",
          "ticks": 52560,
          "time": 82.119744,
          "velocity": 0.5354330708661418
        },
        {
          "duration": 0.023435999999989576,
          "durationTicks": 15,
          "midi": 35,
          "name": "B1",
          "ticks": 52680,
          "time": 82.307232,
          "velocity": 0.6850393700787402
        },
        {
          "duration": 0.023435999999989576,
          "durationTicks": 15,
          "midi": 44,
          "name": "G#2",
          "ticks": 52680,
          "time": 82.307232,
          "velocity": 0.48031496062992124
        },
        {
          "duration": 0.023435999999989576,
          "durationTicks": 15,
          "midi": 70,
          "name": "A#4",
          "ticks": 52680,
          "time": 82.307232,
          "velocity": 0.44881889763779526
        },
        {
          "duration": 0.023435999999989576,
          "durationTicks": 15,
          "midi": 82,
          "name": "A#5",
          "ticks": 52680,
          "time": 82.307232,
          "velocity": 0.33070866141732286
        },
        {
          "duration": 0.023435999999989576,
          "durationTicks": 15,
          "midi": 35,
          "name": "B1",
          "ticks": 52800,
          "time": 82.49472,
          "velocity": 0.8110236220472441
        },
        {
          "duration": 0.023435999999989576,
          "durationTicks": 15,
          "midi": 44,
          "name": "G#2",
          "ticks": 52800,
          "time": 82.49472,
          "velocity": 0.7559055118110236
        },
        {
          "duration": 0.023435999999989576,
          "durationTicks": 15,
          "midi": 70,
          "name": "A#4",
          "ticks": 52800,
          "time": 82.49472,
          "velocity": 0.7322834645669292
        },
        {
          "duration": 0.023435999999989576,
          "durationTicks": 15,
          "midi": 82,
          "name": "A#5",
          "ticks": 52800,
          "time": 82.49472,
          "velocity": 0.33858267716535434
        },
        {
          "duration": 0.023436000000003787,
          "durationTicks": 15,
          "midi": 44,
          "name": "G#2",
          "ticks": 52920,
          "time": 82.68220799999999,
          "velocity": 0.4094488188976378
        },
        {
          "duration": 0.023436000000003787,
          "durationTicks": 15,
          "midi": 70,
          "name": "A#4",
          "ticks": 52920,
          "time": 82.68220799999999,
          "velocity": 0.4645669291338583
        },
        {
          "duration": 0.023436000000003787,
          "durationTicks": 15,
          "midi": 44,
          "name": "G#2",
          "ticks": 53040,
          "time": 82.86969599999999,
          "velocity": 0.6299212598425197
        },
        {
          "duration": 0.023436000000003787,
          "durationTicks": 15,
          "midi": 70,
          "name": "A#4",
          "ticks": 53040,
          "time": 82.86969599999999,
          "velocity": 0.5354330708661418
        },
        {
          "duration": 0.023436000000003787,
          "durationTicks": 15,
          "midi": 82,
          "name": "A#5",
          "ticks": 53040,
          "time": 82.86969599999999,
          "velocity": 0.3858267716535433
        },
        {
          "duration": 0.023436000000003787,
          "durationTicks": 15,
          "midi": 44,
          "name": "G#2",
          "ticks": 53160,
          "time": 83.05718399999999,
          "velocity": 0.48031496062992124
        },
        {
          "duration": 0.023436000000003787,
          "durationTicks": 15,
          "midi": 70,
          "name": "A#4",
          "ticks": 53160,
          "time": 83.05718399999999,
          "velocity": 0.44881889763779526
        },
        {
          "duration": 0.023436000000003787,
          "durationTicks": 15,
          "midi": 82,
          "name": "A#5",
          "ticks": 53160,
          "time": 83.05718399999999,
          "velocity": 0.41732283464566927
        },
        {
          "duration": 0.023436000000003787,
          "durationTicks": 15,
          "midi": 37,
          "name": "C#2",
          "ticks": 53280,
          "time": 83.244672,
          "velocity": 0.984251968503937
        },
        {
          "duration": 0.023436000000003787,
          "durationTicks": 15,
          "midi": 44,
          "name": "G#2",
          "ticks": 53280,
          "time": 83.244672,
          "velocity": 0.7716535433070866
        },
        {
          "duration": 0.023436000000003787,
          "durationTicks": 15,
          "midi": 70,
          "name": "A#4",
          "ticks": 53280,
          "time": 83.244672,
          "velocity": 0.7322834645669292
        },
        {
          "duration": 0.023436000000003787,
          "durationTicks": 15,
          "midi": 82,
          "name": "A#5",
          "ticks": 53280,
          "time": 83.244672,
          "velocity": 0.4645669291338583
        },
        {
          "duration": 0.023436000000003787,
          "durationTicks": 15,
          "midi": 44,
          "name": "G#2",
          "ticks": 53400,
          "time": 83.43216,
          "velocity": 0.49606299212598426
        },
        {
          "duration": 0.023436000000003787,
          "durationTicks": 15,
          "midi": 70,
          "name": "A#4",
          "ticks": 53400,
          "time": 83.43216,
          "velocity": 0.4645669291338583
        },
        {
          "duration": 0.023436000000003787,
          "durationTicks": 15,
          "midi": 82,
          "name": "A#5",
          "ticks": 53400,
          "time": 83.43216,
          "velocity": 0.3937007874015748
        },
        {
          "duration": 0.023435999999989576,
          "durationTicks": 15,
          "midi": 46,
          "name": "A#2",
          "ticks": 53520,
          "time": 83.619648,
          "velocity": 0.6614173228346457
        },
        {
          "duration": 0.023435999999989576,
          "durationTicks": 15,
          "midi": 70,
          "name": "A#4",
          "ticks": 53520,
          "time": 83.619648,
          "velocity": 0.5354330708661418
        },
        {
          "duration": 0.023435999999989576,
          "durationTicks": 15,
          "midi": 82,
          "name": "A#5",
          "ticks": 53520,
          "time": 83.619648,
          "velocity": 0.41732283464566927
        },
        {
          "duration": 0.023435999999989576,
          "durationTicks": 15,
          "midi": 70,
          "name": "A#4",
          "ticks": 53640,
          "time": 83.807136,
          "velocity": 0.44881889763779526
        },
        {
          "duration": 0.023435999999989576,
          "durationTicks": 15,
          "midi": 82,
          "name": "A#5",
          "ticks": 53640,
          "time": 83.807136,
          "velocity": 0.33858267716535434
        },
        {
          "duration": 0.023436000000003787,
          "durationTicks": 15,
          "midi": 35,
          "name": "B1",
          "ticks": 53760,
          "time": 83.99462399999999,
          "velocity": 0.8110236220472441
        },
        {
          "duration": 0.023436000000003787,
          "durationTicks": 15,
          "midi": 44,
          "name": "G#2",
          "ticks": 53760,
          "time": 83.99462399999999,
          "velocity": 0.7559055118110236
        },
        {
          "duration": 0.023436000000003787,
          "durationTicks": 15,
          "midi": 70,
          "name": "A#4",
          "ticks": 53760,
          "time": 83.99462399999999,
          "velocity": 0.7322834645669292
        },
        {
          "duration": 0.023436000000003787,
          "durationTicks": 15,
          "midi": 70,
          "name": "A#4",
          "ticks": 53880,
          "time": 84.18211199999999,
          "velocity": 0.4645669291338583
        },
        {
          "duration": 0.023436000000003787,
          "durationTicks": 15,
          "midi": 44,
          "name": "G#2",
          "ticks": 54000,
          "time": 84.36959999999999,
          "velocity": 0.6062992125984252
        },
        {
          "duration": 0.023436000000003787,
          "durationTicks": 15,
          "midi": 70,
          "name": "A#4",
          "ticks": 54000,
          "time": 84.36959999999999,
          "velocity": 0.5354330708661418
        },
        {
          "duration": 0.023436000000003787,
          "durationTicks": 15,
          "midi": 82,
          "name": "A#5",
          "ticks": 54000,
          "time": 84.36959999999999,
          "velocity": 0.3700787401574803
        },
        {
          "duration": 0.023436000000003787,
          "durationTicks": 15,
          "midi": 70,
          "name": "A#4",
          "ticks": 54120,
          "time": 84.557088,
          "velocity": 0.44881889763779526
        },
        {
          "duration": 0.023436000000003787,
          "durationTicks": 15,
          "midi": 82,
          "name": "A#5",
          "ticks": 54120,
          "time": 84.557088,
          "velocity": 0.3858267716535433
        },
        {
          "duration": 0.023436000000003787,
          "durationTicks": 15,
          "midi": 37,
          "name": "C#2",
          "ticks": 54240,
          "time": 84.744576,
          "velocity": 1
        },
        {
          "duration": 0.023436000000003787,
          "durationTicks": 15,
          "midi": 44,
          "name": "G#2",
          "ticks": 54240,
          "time": 84.744576,
          "velocity": 0.7559055118110236
        },
        {
          "duration": 0.023436000000003787,
          "durationTicks": 15,
          "midi": 70,
          "name": "A#4",
          "ticks": 54240,
          "time": 84.744576,
          "velocity": 0.7322834645669292
        },
        {
          "duration": 0.023436000000003787,
          "durationTicks": 15,
          "midi": 82,
          "name": "A#5",
          "ticks": 54240,
          "time": 84.744576,
          "velocity": 0.49606299212598426
        },
        {
          "duration": 0.023436000000003787,
          "durationTicks": 15,
          "midi": 70,
          "name": "A#4",
          "ticks": 54360,
          "time": 84.932064,
          "velocity": 0.4645669291338583
        },
        {
          "duration": 0.023435999999989576,
          "durationTicks": 15,
          "midi": 35,
          "name": "B1",
          "ticks": 54480,
          "time": 85.119552,
          "velocity": 0.6850393700787402
        },
        {
          "duration": 0.023435999999989576,
          "durationTicks": 15,
          "midi": 44,
          "name": "G#2",
          "ticks": 54480,
          "time": 85.119552,
          "velocity": 0.6141732283464567
        },
        {
          "duration": 0.023435999999989576,
          "durationTicks": 15,
          "midi": 70,
          "name": "A#4",
          "ticks": 54480,
          "time": 85.119552,
          "velocity": 0.5354330708661418
        },
        {
          "duration": 0.023435999999989576,
          "durationTicks": 15,
          "midi": 35,
          "name": "B1",
          "ticks": 54600,
          "time": 85.30704,
          "velocity": 0.6850393700787402
        },
        {
          "duration": 0.023435999999989576,
          "durationTicks": 15,
          "midi": 44,
          "name": "G#2",
          "ticks": 54600,
          "time": 85.30704,
          "velocity": 0.48031496062992124
        },
        {
          "duration": 0.023435999999989576,
          "durationTicks": 15,
          "midi": 70,
          "name": "A#4",
          "ticks": 54600,
          "time": 85.30704,
          "velocity": 0.44881889763779526
        },
        {
          "duration": 0.023435999999989576,
          "durationTicks": 15,
          "midi": 82,
          "name": "A#5",
          "ticks": 54600,
          "time": 85.30704,
          "velocity": 0.33070866141732286
        },
        {
          "duration": 0.023436000000003787,
          "durationTicks": 15,
          "midi": 35,
          "name": "B1",
          "ticks": 54720,
          "time": 85.49452799999999,
          "velocity": 0.8110236220472441
        },
        {
          "duration": 0.023436000000003787,
          "durationTicks": 15,
          "midi": 44,
          "name": "G#2",
          "ticks": 54720,
          "time": 85.49452799999999,
          "velocity": 0.7559055118110236
        },
        {
          "duration": 0.023436000000003787,
          "durationTicks": 15,
          "midi": 70,
          "name": "A#4",
          "ticks": 54720,
          "time": 85.49452799999999,
          "velocity": 0.7322834645669292
        },
        {
          "duration": 0.023436000000003787,
          "durationTicks": 15,
          "midi": 82,
          "name": "A#5",
          "ticks": 54720,
          "time": 85.49452799999999,
          "velocity": 0.33858267716535434
        },
        {
          "duration": 0.023436000000003787,
          "durationTicks": 15,
          "midi": 44,
          "name": "G#2",
          "ticks": 54840,
          "time": 85.68201599999999,
          "velocity": 0.4094488188976378
        },
        {
          "duration": 0.023436000000003787,
          "durationTicks": 15,
          "midi": 70,
          "name": "A#4",
          "ticks": 54840,
          "time": 85.68201599999999,
          "velocity": 0.4645669291338583
        },
        {
          "duration": 0.023436000000003787,
          "durationTicks": 15,
          "midi": 44,
          "name": "G#2",
          "ticks": 54960,
          "time": 85.86950399999999,
          "velocity": 0.6299212598425197
        },
        {
          "duration": 0.023436000000003787,
          "durationTicks": 15,
          "midi": 70,
          "name": "A#4",
          "ticks": 54960,
          "time": 85.86950399999999,
          "velocity": 0.5354330708661418
        },
        {
          "duration": 0.023436000000003787,
          "durationTicks": 15,
          "midi": 82,
          "name": "A#5",
          "ticks": 54960,
          "time": 85.86950399999999,
          "velocity": 0.3858267716535433
        },
        {
          "duration": 0.023436000000003787,
          "durationTicks": 15,
          "midi": 44,
          "name": "G#2",
          "ticks": 55080,
          "time": 86.056992,
          "velocity": 0.48031496062992124
        },
        {
          "duration": 0.023436000000003787,
          "durationTicks": 15,
          "midi": 70,
          "name": "A#4",
          "ticks": 55080,
          "time": 86.056992,
          "velocity": 0.44881889763779526
        },
        {
          "duration": 0.023436000000003787,
          "durationTicks": 15,
          "midi": 82,
          "name": "A#5",
          "ticks": 55080,
          "time": 86.056992,
          "velocity": 0.41732283464566927
        },
        {
          "duration": 0.023436000000003787,
          "durationTicks": 15,
          "midi": 37,
          "name": "C#2",
          "ticks": 55200,
          "time": 86.24448,
          "velocity": 0.984251968503937
        },
        {
          "duration": 0.023436000000003787,
          "durationTicks": 15,
          "midi": 44,
          "name": "G#2",
          "ticks": 55200,
          "time": 86.24448,
          "velocity": 0.7716535433070866
        },
        {
          "duration": 0.023436000000003787,
          "durationTicks": 15,
          "midi": 70,
          "name": "A#4",
          "ticks": 55200,
          "time": 86.24448,
          "velocity": 0.7322834645669292
        },
        {
          "duration": 0.023436000000003787,
          "durationTicks": 15,
          "midi": 82,
          "name": "A#5",
          "ticks": 55200,
          "time": 86.24448,
          "velocity": 0.4645669291338583
        },
        {
          "duration": 0.023436000000003787,
          "durationTicks": 15,
          "midi": 44,
          "name": "G#2",
          "ticks": 55320,
          "time": 86.431968,
          "velocity": 0.49606299212598426
        },
        {
          "duration": 0.023436000000003787,
          "durationTicks": 15,
          "midi": 70,
          "name": "A#4",
          "ticks": 55320,
          "time": 86.431968,
          "velocity": 0.4645669291338583
        },
        {
          "duration": 0.023435999999989576,
          "durationTicks": 15,
          "midi": 46,
          "name": "A#2",
          "ticks": 55440,
          "time": 86.619456,
          "velocity": 0.6614173228346457
        },
        {
          "duration": 0.023435999999989576,
          "durationTicks": 15,
          "midi": 70,
          "name": "A#4",
          "ticks": 55440,
          "time": 86.619456,
          "velocity": 0.5354330708661418
        },
        {
          "duration": 0.023435999999989576,
          "durationTicks": 15,
          "midi": 82,
          "name": "A#5",
          "ticks": 55440,
          "time": 86.619456,
          "velocity": 0.41732283464566927
        },
        {
          "duration": 0.023435999999989576,
          "durationTicks": 15,
          "midi": 70,
          "name": "A#4",
          "ticks": 55560,
          "time": 86.806944,
          "velocity": 0.44881889763779526
        },
        {
          "duration": 0.023435999999989576,
          "durationTicks": 15,
          "midi": 82,
          "name": "A#5",
          "ticks": 55560,
          "time": 86.806944,
          "velocity": 0.33858267716535434
        },
        {
          "duration": 0.023436000000003787,
          "durationTicks": 15,
          "midi": 35,
          "name": "B1",
          "ticks": 55680,
          "time": 86.99443199999999,
          "velocity": 0.8110236220472441
        },
        {
          "duration": 0.023436000000003787,
          "durationTicks": 15,
          "midi": 44,
          "name": "G#2",
          "ticks": 55680,
          "time": 86.99443199999999,
          "velocity": 0.7559055118110236
        },
        {
          "duration": 0.023436000000003787,
          "durationTicks": 15,
          "midi": 70,
          "name": "A#4",
          "ticks": 55680,
          "time": 86.99443199999999,
          "velocity": 0.7322834645669292
        },
        {
          "duration": 0.023436000000003787,
          "durationTicks": 15,
          "midi": 70,
          "name": "A#4",
          "ticks": 55800,
          "time": 87.18191999999999,
          "velocity": 0.4645669291338583
        },
        {
          "duration": 0.023436000000003787,
          "durationTicks": 15,
          "midi": 44,
          "name": "G#2",
          "ticks": 55920,
          "time": 87.36940799999999,
          "velocity": 0.6062992125984252
        },
        {
          "duration": 0.023436000000003787,
          "durationTicks": 15,
          "midi": 70,
          "name": "A#4",
          "ticks": 55920,
          "time": 87.36940799999999,
          "velocity": 0.5354330708661418
        },
        {
          "duration": 0.023436000000003787,
          "durationTicks": 15,
          "midi": 82,
          "name": "A#5",
          "ticks": 55920,
          "time": 87.36940799999999,
          "velocity": 0.3700787401574803
        },
        {
          "duration": 0.023436000000003787,
          "durationTicks": 15,
          "midi": 70,
          "name": "A#4",
          "ticks": 56040,
          "time": 87.556896,
          "velocity": 0.44881889763779526
        },
        {
          "duration": 0.023436000000003787,
          "durationTicks": 15,
          "midi": 82,
          "name": "A#5",
          "ticks": 56040,
          "time": 87.556896,
          "velocity": 0.3858267716535433
        },
        {
          "duration": 0.023436000000003787,
          "durationTicks": 15,
          "midi": 37,
          "name": "C#2",
          "ticks": 56160,
          "time": 87.744384,
          "velocity": 1
        },
        {
          "duration": 0.023436000000003787,
          "durationTicks": 15,
          "midi": 44,
          "name": "G#2",
          "ticks": 56160,
          "time": 87.744384,
          "velocity": 0.7559055118110236
        },
        {
          "duration": 0.023436000000003787,
          "durationTicks": 15,
          "midi": 70,
          "name": "A#4",
          "ticks": 56160,
          "time": 87.744384,
          "velocity": 0.7322834645669292
        },
        {
          "duration": 0.023436000000003787,
          "durationTicks": 15,
          "midi": 82,
          "name": "A#5",
          "ticks": 56160,
          "time": 87.744384,
          "velocity": 0.49606299212598426
        },
        {
          "duration": 0.023435999999989576,
          "durationTicks": 15,
          "midi": 70,
          "name": "A#4",
          "ticks": 56280,
          "time": 87.931872,
          "velocity": 0.4645669291338583
        },
        {
          "duration": 0.023435999999989576,
          "durationTicks": 15,
          "midi": 35,
          "name": "B1",
          "ticks": 56400,
          "time": 88.11936,
          "velocity": 0.8110236220472441
        },
        {
          "duration": 0.023435999999989576,
          "durationTicks": 15,
          "midi": 44,
          "name": "G#2",
          "ticks": 56400,
          "time": 88.11936,
          "velocity": 0.6141732283464567
        },
        {
          "duration": 0.023435999999989576,
          "durationTicks": 15,
          "midi": 70,
          "name": "A#4",
          "ticks": 56400,
          "time": 88.11936,
          "velocity": 0.5354330708661418
        },
        {
          "duration": 0.023436000000003787,
          "durationTicks": 15,
          "midi": 44,
          "name": "G#2",
          "ticks": 56520,
          "time": 88.30684799999999,
          "velocity": 0.48031496062992124
        },
        {
          "duration": 0.023436000000003787,
          "durationTicks": 15,
          "midi": 70,
          "name": "A#4",
          "ticks": 56520,
          "time": 88.30684799999999,
          "velocity": 0.44881889763779526
        },
        {
          "duration": 0.023436000000003787,
          "durationTicks": 15,
          "midi": 82,
          "name": "A#5",
          "ticks": 56520,
          "time": 88.30684799999999,
          "velocity": 0.33070866141732286
        },
        {
          "duration": 0.023436000000003787,
          "durationTicks": 15,
          "midi": 35,
          "name": "B1",
          "ticks": 56640,
          "time": 88.49433599999999,
          "velocity": 0.8110236220472441
        },
        {
          "duration": 0.023436000000003787,
          "durationTicks": 15,
          "midi": 44,
          "name": "G#2",
          "ticks": 56640,
          "time": 88.49433599999999,
          "velocity": 0.7559055118110236
        },
        {
          "duration": 0.023436000000003787,
          "durationTicks": 15,
          "midi": 70,
          "name": "A#4",
          "ticks": 56640,
          "time": 88.49433599999999,
          "velocity": 0.7322834645669292
        },
        {
          "duration": 0.023436000000003787,
          "durationTicks": 15,
          "midi": 82,
          "name": "A#5",
          "ticks": 56640,
          "time": 88.49433599999999,
          "velocity": 0.33858267716535434
        },
        {
          "duration": 0.023436000000003787,
          "durationTicks": 15,
          "midi": 44,
          "name": "G#2",
          "ticks": 56760,
          "time": 88.68182399999999,
          "velocity": 0.4094488188976378
        },
        {
          "duration": 0.023436000000003787,
          "durationTicks": 15,
          "midi": 70,
          "name": "A#4",
          "ticks": 56760,
          "time": 88.68182399999999,
          "velocity": 0.4645669291338583
        },
        {
          "duration": 0.023436000000003787,
          "durationTicks": 15,
          "midi": 44,
          "name": "G#2",
          "ticks": 56880,
          "time": 88.869312,
          "velocity": 0.6299212598425197
        },
        {
          "duration": 0.023436000000003787,
          "durationTicks": 15,
          "midi": 70,
          "name": "A#4",
          "ticks": 56880,
          "time": 88.869312,
          "velocity": 0.5354330708661418
        },
        {
          "duration": 0.023436000000003787,
          "durationTicks": 15,
          "midi": 82,
          "name": "A#5",
          "ticks": 56880,
          "time": 88.869312,
          "velocity": 0.3858267716535433
        },
        {
          "duration": 0.023436000000003787,
          "durationTicks": 15,
          "midi": 44,
          "name": "G#2",
          "ticks": 57000,
          "time": 89.0568,
          "velocity": 0.48031496062992124
        },
        {
          "duration": 0.023436000000003787,
          "durationTicks": 15,
          "midi": 70,
          "name": "A#4",
          "ticks": 57000,
          "time": 89.0568,
          "velocity": 0.44881889763779526
        },
        {
          "duration": 0.023436000000003787,
          "durationTicks": 15,
          "midi": 82,
          "name": "A#5",
          "ticks": 57000,
          "time": 89.0568,
          "velocity": 0.41732283464566927
        },
        {
          "duration": 0.023436000000003787,
          "durationTicks": 15,
          "midi": 37,
          "name": "C#2",
          "ticks": 57120,
          "time": 89.244288,
          "velocity": 0.984251968503937
        },
        {
          "duration": 0.023436000000003787,
          "durationTicks": 15,
          "midi": 44,
          "name": "G#2",
          "ticks": 57120,
          "time": 89.244288,
          "velocity": 0.7716535433070866
        },
        {
          "duration": 0.023436000000003787,
          "durationTicks": 15,
          "midi": 70,
          "name": "A#4",
          "ticks": 57120,
          "time": 89.244288,
          "velocity": 0.7322834645669292
        },
        {
          "duration": 0.023436000000003787,
          "durationTicks": 15,
          "midi": 82,
          "name": "A#5",
          "ticks": 57120,
          "time": 89.244288,
          "velocity": 0.4645669291338583
        },
        {
          "duration": 0.023435999999989576,
          "durationTicks": 15,
          "midi": 44,
          "name": "G#2",
          "ticks": 57240,
          "time": 89.431776,
          "velocity": 0.49606299212598426
        },
        {
          "duration": 0.023435999999989576,
          "durationTicks": 15,
          "midi": 70,
          "name": "A#4",
          "ticks": 57240,
          "time": 89.431776,
          "velocity": 0.4645669291338583
        },
        {
          "duration": 0.023435999999989576,
          "durationTicks": 15,
          "midi": 46,
          "name": "A#2",
          "ticks": 57360,
          "time": 89.619264,
          "velocity": 0.6614173228346457
        },
        {
          "duration": 0.023435999999989576,
          "durationTicks": 15,
          "midi": 70,
          "name": "A#4",
          "ticks": 57360,
          "time": 89.619264,
          "velocity": 0.5354330708661418
        },
        {
          "duration": 0.023435999999989576,
          "durationTicks": 15,
          "midi": 82,
          "name": "A#5",
          "ticks": 57360,
          "time": 89.619264,
          "velocity": 0.41732283464566927
        },
        {
          "duration": 0.023436000000003787,
          "durationTicks": 15,
          "midi": 35,
          "name": "B1",
          "ticks": 57480,
          "time": 89.80675199999999,
          "velocity": 0.8110236220472441
        },
        {
          "duration": 0.023436000000003787,
          "durationTicks": 15,
          "midi": 70,
          "name": "A#4",
          "ticks": 57480,
          "time": 89.80675199999999,
          "velocity": 0.44881889763779526
        },
        {
          "duration": 0.023436000000003787,
          "durationTicks": 15,
          "midi": 82,
          "name": "A#5",
          "ticks": 57480,
          "time": 89.80675199999999,
          "velocity": 0.33858267716535434
        },
        {
          "duration": 0.023436000000003787,
          "durationTicks": 15,
          "midi": 35,
          "name": "B1",
          "ticks": 57600,
          "time": 89.99423999999999,
          "velocity": 0.8110236220472441
        },
        {
          "duration": 0.023436000000003787,
          "durationTicks": 15,
          "midi": 44,
          "name": "G#2",
          "ticks": 57600,
          "time": 89.99423999999999,
          "velocity": 0.6929133858267716
        },
        {
          "duration": 0.023436000000003787,
          "durationTicks": 15,
          "midi": 70,
          "name": "A#4",
          "ticks": 57600,
          "time": 89.99423999999999,
          "velocity": 0.7322834645669292
        },
        {
          "duration": 0.023436000000003787,
          "durationTicks": 15,
          "midi": 70,
          "name": "A#4",
          "ticks": 57720,
          "time": 90.18172799999999,
          "velocity": 0.4645669291338583
        },
        {
          "duration": 0.023436000000003787,
          "durationTicks": 15,
          "midi": 44,
          "name": "G#2",
          "ticks": 57840,
          "time": 90.369216,
          "velocity": 0.6062992125984252
        },
        {
          "duration": 0.023436000000003787,
          "durationTicks": 15,
          "midi": 70,
          "name": "A#4",
          "ticks": 57840,
          "time": 90.369216,
          "velocity": 0.5354330708661418
        },
        {
          "duration": 0.023436000000003787,
          "durationTicks": 15,
          "midi": 82,
          "name": "A#5",
          "ticks": 57840,
          "time": 90.369216,
          "velocity": 0.3700787401574803
        },
        {
          "duration": 0.023436000000003787,
          "durationTicks": 15,
          "midi": 70,
          "name": "A#4",
          "ticks": 57960,
          "time": 90.556704,
          "velocity": 0.44881889763779526
        },
        {
          "duration": 0.023436000000003787,
          "durationTicks": 15,
          "midi": 82,
          "name": "A#5",
          "ticks": 57960,
          "time": 90.556704,
          "velocity": 0.3858267716535433
        },
        {
          "duration": 0.023435999999989576,
          "durationTicks": 15,
          "midi": 37,
          "name": "C#2",
          "ticks": 58080,
          "time": 90.744192,
          "velocity": 1
        },
        {
          "duration": 0.023435999999989576,
          "durationTicks": 15,
          "midi": 44,
          "name": "G#2",
          "ticks": 58080,
          "time": 90.744192,
          "velocity": 0.7559055118110236
        },
        {
          "duration": 0.023435999999989576,
          "durationTicks": 15,
          "midi": 70,
          "name": "A#4",
          "ticks": 58080,
          "time": 90.744192,
          "velocity": 0.7322834645669292
        },
        {
          "duration": 0.023435999999989576,
          "durationTicks": 15,
          "midi": 82,
          "name": "A#5",
          "ticks": 58080,
          "time": 90.744192,
          "velocity": 0.49606299212598426
        },
        {
          "duration": 0.023435999999989576,
          "durationTicks": 15,
          "midi": 70,
          "name": "A#4",
          "ticks": 58200,
          "time": 90.93168,
          "velocity": 0.4645669291338583
        },
        {
          "duration": 0.023436000000003787,
          "durationTicks": 15,
          "midi": 35,
          "name": "B1",
          "ticks": 58320,
          "time": 91.11916799999999,
          "velocity": 0.8110236220472441
        },
        {
          "duration": 0.023436000000003787,
          "durationTicks": 15,
          "midi": 44,
          "name": "G#2",
          "ticks": 58320,
          "time": 91.11916799999999,
          "velocity": 0.6141732283464567
        },
        {
          "duration": 0.023436000000003787,
          "durationTicks": 15,
          "midi": 70,
          "name": "A#4",
          "ticks": 58320,
          "time": 91.11916799999999,
          "velocity": 0.5354330708661418
        },
        {
          "duration": 0.023436000000003787,
          "durationTicks": 15,
          "midi": 44,
          "name": "G#2",
          "ticks": 58440,
          "time": 91.30665599999999,
          "velocity": 0.48031496062992124
        },
        {
          "duration": 0.023436000000003787,
          "durationTicks": 15,
          "midi": 70,
          "name": "A#4",
          "ticks": 58440,
          "time": 91.30665599999999,
          "velocity": 0.44881889763779526
        },
        {
          "duration": 0.023436000000003787,
          "durationTicks": 15,
          "midi": 82,
          "name": "A#5",
          "ticks": 58440,
          "time": 91.30665599999999,
          "velocity": 0.33070866141732286
        },
        {
          "duration": 0.023436000000003787,
          "durationTicks": 15,
          "midi": 35,
          "name": "B1",
          "ticks": 58560,
          "time": 91.49414399999999,
          "velocity": 0.8110236220472441
        },
        {
          "duration": 0.023436000000003787,
          "durationTicks": 15,
          "midi": 44,
          "name": "G#2",
          "ticks": 58560,
          "time": 91.49414399999999,
          "velocity": 0.6535433070866141
        },
        {
          "duration": 0.023436000000003787,
          "durationTicks": 15,
          "midi": 70,
          "name": "A#4",
          "ticks": 58560,
          "time": 91.49414399999999,
          "velocity": 0.7322834645669292
        },
        {
          "duration": 0.023436000000003787,
          "durationTicks": 15,
          "midi": 82,
          "name": "A#5",
          "ticks": 58560,
          "time": 91.49414399999999,
          "velocity": 0.33858267716535434
        },
        {
          "duration": 0.023436000000003787,
          "durationTicks": 15,
          "midi": 70,
          "name": "A#4",
          "ticks": 58680,
          "time": 91.681632,
          "velocity": 0.4645669291338583
        },
        {
          "duration": 0.023436000000003787,
          "durationTicks": 15,
          "midi": 44,
          "name": "G#2",
          "ticks": 58800,
          "time": 91.86912,
          "velocity": 0.6299212598425197
        },
        {
          "duration": 0.023436000000003787,
          "durationTicks": 15,
          "midi": 70,
          "name": "A#4",
          "ticks": 58800,
          "time": 91.86912,
          "velocity": 0.5354330708661418
        },
        {
          "duration": 0.023436000000003787,
          "durationTicks": 15,
          "midi": 82,
          "name": "A#5",
          "ticks": 58800,
          "time": 91.86912,
          "velocity": 0.3858267716535433
        },
        {
          "duration": 0.023436000000003787,
          "durationTicks": 15,
          "midi": 44,
          "name": "G#2",
          "ticks": 58920,
          "time": 92.056608,
          "velocity": 0.48031496062992124
        },
        {
          "duration": 0.023436000000003787,
          "durationTicks": 15,
          "midi": 70,
          "name": "A#4",
          "ticks": 58920,
          "time": 92.056608,
          "velocity": 0.44881889763779526
        },
        {
          "duration": 0.023436000000003787,
          "durationTicks": 15,
          "midi": 82,
          "name": "A#5",
          "ticks": 58920,
          "time": 92.056608,
          "velocity": 0.41732283464566927
        },
        {
          "duration": 0.023435999999989576,
          "durationTicks": 15,
          "midi": 37,
          "name": "C#2",
          "ticks": 59040,
          "time": 92.244096,
          "velocity": 0.984251968503937
        },
        {
          "duration": 0.023435999999989576,
          "durationTicks": 15,
          "midi": 44,
          "name": "G#2",
          "ticks": 59040,
          "time": 92.244096,
          "velocity": 0.7086614173228346
        },
        {
          "duration": 0.023435999999989576,
          "durationTicks": 15,
          "midi": 70,
          "name": "A#4",
          "ticks": 59040,
          "time": 92.244096,
          "velocity": 0.7322834645669292
        },
        {
          "duration": 0.023435999999989576,
          "durationTicks": 15,
          "midi": 82,
          "name": "A#5",
          "ticks": 59040,
          "time": 92.244096,
          "velocity": 0.4645669291338583
        },
        {
          "duration": 0.023435999999989576,
          "durationTicks": 15,
          "midi": 70,
          "name": "A#4",
          "ticks": 59160,
          "time": 92.431584,
          "velocity": 0.4645669291338583
        },
        {
          "duration": 0.023436000000003787,
          "durationTicks": 15,
          "midi": 46,
          "name": "A#2",
          "ticks": 59280,
          "time": 92.61907199999999,
          "velocity": 0.6614173228346457
        },
        {
          "duration": 0.023436000000003787,
          "durationTicks": 15,
          "midi": 70,
          "name": "A#4",
          "ticks": 59280,
          "time": 92.61907199999999,
          "velocity": 0.5354330708661418
        },
        {
          "duration": 0.023436000000003787,
          "durationTicks": 15,
          "midi": 82,
          "name": "A#5",
          "ticks": 59280,
          "time": 92.61907199999999,
          "velocity": 0.41732283464566927
        },
        {
          "duration": 0.023436000000003787,
          "durationTicks": 15,
          "midi": 70,
          "name": "A#4",
          "ticks": 59400,
          "time": 92.80655999999999,
          "velocity": 0.44881889763779526
        },
        {
          "duration": 0.023436000000003787,
          "durationTicks": 15,
          "midi": 82,
          "name": "A#5",
          "ticks": 59400,
          "time": 92.80655999999999,
          "velocity": 0.33858267716535434
        },
        {
          "duration": 0.023436000000003787,
          "durationTicks": 15,
          "midi": 35,
          "name": "B1",
          "ticks": 59520,
          "time": 92.99404799999999,
          "velocity": 0.8110236220472441
        },
        {
          "duration": 0.023436000000003787,
          "durationTicks": 15,
          "midi": 44,
          "name": "G#2",
          "ticks": 59520,
          "time": 92.99404799999999,
          "velocity": 0.6929133858267716
        },
        {
          "duration": 0.023436000000003787,
          "durationTicks": 15,
          "midi": 70,
          "name": "A#4",
          "ticks": 59520,
          "time": 92.99404799999999,
          "velocity": 0.7322834645669292
        },
        {
          "duration": 0.023436000000003787,
          "durationTicks": 15,
          "midi": 70,
          "name": "A#4",
          "ticks": 59640,
          "time": 93.181536,
          "velocity": 0.4645669291338583
        },
        {
          "duration": 0.023436000000003787,
          "durationTicks": 15,
          "midi": 44,
          "name": "G#2",
          "ticks": 59760,
          "time": 93.369024,
          "velocity": 0.6062992125984252
        },
        {
          "duration": 0.023436000000003787,
          "durationTicks": 15,
          "midi": 70,
          "name": "A#4",
          "ticks": 59760,
          "time": 93.369024,
          "velocity": 0.5354330708661418
        },
        {
          "duration": 0.023436000000003787,
          "durationTicks": 15,
          "midi": 82,
          "name": "A#5",
          "ticks": 59760,
          "time": 93.369024,
          "velocity": 0.3700787401574803
        },
        {
          "duration": 0.023435999999989576,
          "durationTicks": 15,
          "midi": 70,
          "name": "A#4",
          "ticks": 59880,
          "time": 93.556512,
          "velocity": 0.44881889763779526
        },
        {
          "duration": 0.023435999999989576,
          "durationTicks": 15,
          "midi": 82,
          "name": "A#5",
          "ticks": 59880,
          "time": 93.556512,
          "velocity": 0.3858267716535433
        },
        {
          "duration": 0.023435999999989576,
          "durationTicks": 15,
          "midi": 37,
          "name": "C#2",
          "ticks": 60000,
          "time": 93.744,
          "velocity": 1
        },
        {
          "duration": 0.023435999999989576,
          "durationTicks": 15,
          "midi": 44,
          "name": "G#2",
          "ticks": 60000,
          "time": 93.744,
          "velocity": 0.7559055118110236
        },
        {
          "duration": 0.023435999999989576,
          "durationTicks": 15,
          "midi": 70,
          "name": "A#4",
          "ticks": 60000,
          "time": 93.744,
          "velocity": 0.7322834645669292
        },
        {
          "duration": 0.023435999999989576,
          "durationTicks": 15,
          "midi": 82,
          "name": "A#5",
          "ticks": 60000,
          "time": 93.744,
          "velocity": 0.49606299212598426
        },
        {
          "duration": 0.023436000000003787,
          "durationTicks": 15,
          "midi": 70,
          "name": "A#4",
          "ticks": 60120,
          "time": 93.93148799999999,
          "velocity": 0.4645669291338583
        },
        {
          "duration": 0.023436000000003787,
          "durationTicks": 15,
          "midi": 35,
          "name": "B1",
          "ticks": 60240,
          "time": 94.11897599999999,
          "velocity": 0.8110236220472441
        },
        {
          "duration": 0.023436000000003787,
          "durationTicks": 15,
          "midi": 44,
          "name": "G#2",
          "ticks": 60240,
          "time": 94.11897599999999,
          "velocity": 0.6141732283464567
        },
        {
          "duration": 0.023436000000003787,
          "durationTicks": 15,
          "midi": 70,
          "name": "A#4",
          "ticks": 60240,
          "time": 94.11897599999999,
          "velocity": 0.5354330708661418
        },
        {
          "duration": 0.023436000000003787,
          "durationTicks": 15,
          "midi": 44,
          "name": "G#2",
          "ticks": 60360,
          "time": 94.30646399999999,
          "velocity": 0.48031496062992124
        },
        {
          "duration": 0.023436000000003787,
          "durationTicks": 15,
          "midi": 70,
          "name": "A#4",
          "ticks": 60360,
          "time": 94.30646399999999,
          "velocity": 0.44881889763779526
        },
        {
          "duration": 0.023436000000003787,
          "durationTicks": 15,
          "midi": 82,
          "name": "A#5",
          "ticks": 60360,
          "time": 94.30646399999999,
          "velocity": 0.33070866141732286
        },
        {
          "duration": 0.023436000000003787,
          "durationTicks": 15,
          "midi": 35,
          "name": "B1",
          "ticks": 60480,
          "time": 94.493952,
          "velocity": 0.8110236220472441
        },
        {
          "duration": 0.023436000000003787,
          "durationTicks": 15,
          "midi": 44,
          "name": "G#2",
          "ticks": 60480,
          "time": 94.493952,
          "velocity": 0.6535433070866141
        },
        {
          "duration": 0.023436000000003787,
          "durationTicks": 15,
          "midi": 70,
          "name": "A#4",
          "ticks": 60480,
          "time": 94.493952,
          "velocity": 0.7322834645669292
        },
        {
          "duration": 0.023436000000003787,
          "durationTicks": 15,
          "midi": 82,
          "name": "A#5",
          "ticks": 60480,
          "time": 94.493952,
          "velocity": 0.33858267716535434
        },
        {
          "duration": 0.023436000000003787,
          "durationTicks": 15,
          "midi": 70,
          "name": "A#4",
          "ticks": 60600,
          "time": 94.68144,
          "velocity": 0.4645669291338583
        },
        {
          "duration": 0.023436000000003787,
          "durationTicks": 15,
          "midi": 44,
          "name": "G#2",
          "ticks": 60720,
          "time": 94.868928,
          "velocity": 0.6299212598425197
        },
        {
          "duration": 0.023436000000003787,
          "durationTicks": 15,
          "midi": 70,
          "name": "A#4",
          "ticks": 60720,
          "time": 94.868928,
          "velocity": 0.5354330708661418
        },
        {
          "duration": 0.023436000000003787,
          "durationTicks": 15,
          "midi": 82,
          "name": "A#5",
          "ticks": 60720,
          "time": 94.868928,
          "velocity": 0.3858267716535433
        },
        {
          "duration": 0.023435999999989576,
          "durationTicks": 15,
          "midi": 35,
          "name": "B1",
          "ticks": 60840,
          "time": 95.056416,
          "velocity": 0.8110236220472441
        },
        {
          "duration": 0.023435999999989576,
          "durationTicks": 15,
          "midi": 44,
          "name": "G#2",
          "ticks": 60840,
          "time": 95.056416,
          "velocity": 0.48031496062992124
        },
        {
          "duration": 0.023435999999989576,
          "durationTicks": 15,
          "midi": 70,
          "name": "A#4",
          "ticks": 60840,
          "time": 95.056416,
          "velocity": 0.44881889763779526
        },
        {
          "duration": 0.023435999999989576,
          "durationTicks": 15,
          "midi": 82,
          "name": "A#5",
          "ticks": 60840,
          "time": 95.056416,
          "velocity": 0.41732283464566927
        },
        {
          "duration": 0.023435999999989576,
          "durationTicks": 15,
          "midi": 35,
          "name": "B1",
          "ticks": 60960,
          "time": 95.243904,
          "velocity": 0.8110236220472441
        },
        {
          "duration": 0.023435999999989576,
          "durationTicks": 15,
          "midi": 37,
          "name": "C#2",
          "ticks": 60960,
          "time": 95.243904,
          "velocity": 0.984251968503937
        },
        {
          "duration": 0.023435999999989576,
          "durationTicks": 15,
          "midi": 44,
          "name": "G#2",
          "ticks": 60960,
          "time": 95.243904,
          "velocity": 0.7086614173228346
        },
        {
          "duration": 0.023435999999989576,
          "durationTicks": 15,
          "midi": 70,
          "name": "A#4",
          "ticks": 60960,
          "time": 95.243904,
          "velocity": 0.7322834645669292
        },
        {
          "duration": 0.023435999999989576,
          "durationTicks": 15,
          "midi": 82,
          "name": "A#5",
          "ticks": 60960,
          "time": 95.243904,
          "velocity": 0.4645669291338583
        },
        {
          "duration": 0.023436000000003787,
          "durationTicks": 15,
          "midi": 70,
          "name": "A#4",
          "ticks": 61080,
          "time": 95.43139199999999,
          "velocity": 0.4645669291338583
        },
        {
          "duration": 0.023436000000003787,
          "durationTicks": 15,
          "midi": 35,
          "name": "B1",
          "ticks": 61200,
          "time": 95.61887999999999,
          "velocity": 0.8110236220472441
        },
        {
          "duration": 0.023436000000003787,
          "durationTicks": 15,
          "midi": 46,
          "name": "A#2",
          "ticks": 61200,
          "time": 95.61887999999999,
          "velocity": 0.6614173228346457
        },
        {
          "duration": 0.023436000000003787,
          "durationTicks": 15,
          "midi": 70,
          "name": "A#4",
          "ticks": 61200,
          "time": 95.61887999999999,
          "velocity": 0.5354330708661418
        },
        {
          "duration": 0.023436000000003787,
          "durationTicks": 15,
          "midi": 82,
          "name": "A#5",
          "ticks": 61200,
          "time": 95.61887999999999,
          "velocity": 0.41732283464566927
        },
        {
          "duration": 0.023436000000003787,
          "durationTicks": 15,
          "midi": 70,
          "name": "A#4",
          "ticks": 61320,
          "time": 95.80636799999999,
          "velocity": 0.44881889763779526
        },
        {
          "duration": 0.023436000000003787,
          "durationTicks": 15,
          "midi": 82,
          "name": "A#5",
          "ticks": 61320,
          "time": 95.80636799999999,
          "velocity": 0.33858267716535434
        },
        {
          "duration": 0.023436000000003787,
          "durationTicks": 15,
          "midi": 35,
          "name": "B1",
          "ticks": 61440,
          "time": 95.993856,
          "velocity": 0.8110236220472441
        },
        {
          "duration": 0.023436000000003787,
          "durationTicks": 15,
          "midi": 44,
          "name": "G#2",
          "ticks": 61440,
          "time": 95.993856,
          "velocity": 0.7559055118110236
        },
        {
          "duration": 0.023436000000003787,
          "durationTicks": 15,
          "midi": 70,
          "name": "A#4",
          "ticks": 61440,
          "time": 95.993856,
          "velocity": 0.7322834645669292
        },
        {
          "duration": 0.023436000000003787,
          "durationTicks": 15,
          "midi": 70,
          "name": "A#4",
          "ticks": 61560,
          "time": 96.181344,
          "velocity": 0.4645669291338583
        },
        {
          "duration": 0.023435999999989576,
          "durationTicks": 15,
          "midi": 44,
          "name": "G#2",
          "ticks": 61680,
          "time": 96.368832,
          "velocity": 0.6062992125984252
        },
        {
          "duration": 0.023435999999989576,
          "durationTicks": 15,
          "midi": 70,
          "name": "A#4",
          "ticks": 61680,
          "time": 96.368832,
          "velocity": 0.5354330708661418
        },
        {
          "duration": 0.023435999999989576,
          "durationTicks": 15,
          "midi": 82,
          "name": "A#5",
          "ticks": 61680,
          "time": 96.368832,
          "velocity": 0.3700787401574803
        },
        {
          "duration": 0.023435999999989576,
          "durationTicks": 15,
          "midi": 70,
          "name": "A#4",
          "ticks": 61800,
          "time": 96.55632,
          "velocity": 0.44881889763779526
        },
        {
          "duration": 0.023435999999989576,
          "durationTicks": 15,
          "midi": 82,
          "name": "A#5",
          "ticks": 61800,
          "time": 96.55632,
          "velocity": 0.3858267716535433
        },
        {
          "duration": 0.023436000000003787,
          "durationTicks": 15,
          "midi": 37,
          "name": "C#2",
          "ticks": 61920,
          "time": 96.74380799999999,
          "velocity": 1
        },
        {
          "duration": 0.023436000000003787,
          "durationTicks": 15,
          "midi": 44,
          "name": "G#2",
          "ticks": 61920,
          "time": 96.74380799999999,
          "velocity": 0.7559055118110236
        },
        {
          "duration": 0.023436000000003787,
          "durationTicks": 15,
          "midi": 70,
          "name": "A#4",
          "ticks": 61920,
          "time": 96.74380799999999,
          "velocity": 0.7322834645669292
        },
        {
          "duration": 0.023436000000003787,
          "durationTicks": 15,
          "midi": 82,
          "name": "A#5",
          "ticks": 61920,
          "time": 96.74380799999999,
          "velocity": 0.49606299212598426
        },
        {
          "duration": 0.023436000000003787,
          "durationTicks": 15,
          "midi": 70,
          "name": "A#4",
          "ticks": 62040,
          "time": 96.93129599999999,
          "velocity": 0.4645669291338583
        },
        {
          "duration": 0.023436000000003787,
          "durationTicks": 15,
          "midi": 35,
          "name": "B1",
          "ticks": 62160,
          "time": 97.11878399999999,
          "velocity": 0.6850393700787402
        },
        {
          "duration": 0.023436000000003787,
          "durationTicks": 15,
          "midi": 44,
          "name": "G#2",
          "ticks": 62160,
          "time": 97.11878399999999,
          "velocity": 0.6141732283464567
        },
        {
          "duration": 0.023436000000003787,
          "durationTicks": 15,
          "midi": 70,
          "name": "A#4",
          "ticks": 62160,
          "time": 97.11878399999999,
          "velocity": 0.5354330708661418
        },
        {
          "duration": 0.023436000000003787,
          "durationTicks": 15,
          "midi": 35,
          "name": "B1",
          "ticks": 62280,
          "time": 97.30627199999999,
          "velocity": 0.6850393700787402
        },
        {
          "duration": 0.023436000000003787,
          "durationTicks": 15,
          "midi": 44,
          "name": "G#2",
          "ticks": 62280,
          "time": 97.30627199999999,
          "velocity": 0.48031496062992124
        },
        {
          "duration": 0.023436000000003787,
          "durationTicks": 15,
          "midi": 70,
          "name": "A#4",
          "ticks": 62280,
          "time": 97.30627199999999,
          "velocity": 0.44881889763779526
        },
        {
          "duration": 0.023436000000003787,
          "durationTicks": 15,
          "midi": 82,
          "name": "A#5",
          "ticks": 62280,
          "time": 97.30627199999999,
          "velocity": 0.33070866141732286
        },
        {
          "duration": 0.023436000000003787,
          "durationTicks": 15,
          "midi": 35,
          "name": "B1",
          "ticks": 62400,
          "time": 97.49376,
          "velocity": 0.8110236220472441
        },
        {
          "duration": 0.023436000000003787,
          "durationTicks": 15,
          "midi": 44,
          "name": "G#2",
          "ticks": 62400,
          "time": 97.49376,
          "velocity": 0.7559055118110236
        },
        {
          "duration": 0.023436000000003787,
          "durationTicks": 15,
          "midi": 70,
          "name": "A#4",
          "ticks": 62400,
          "time": 97.49376,
          "velocity": 0.7322834645669292
        },
        {
          "duration": 0.023436000000003787,
          "durationTicks": 15,
          "midi": 82,
          "name": "A#5",
          "ticks": 62400,
          "time": 97.49376,
          "velocity": 0.33858267716535434
        },
        {
          "duration": 0.023436000000003787,
          "durationTicks": 15,
          "midi": 44,
          "name": "G#2",
          "ticks": 62520,
          "time": 97.681248,
          "velocity": 0.4094488188976378
        },
        {
          "duration": 0.023436000000003787,
          "durationTicks": 15,
          "midi": 70,
          "name": "A#4",
          "ticks": 62520,
          "time": 97.681248,
          "velocity": 0.4645669291338583
        },
        {
          "duration": 0.023435999999989576,
          "durationTicks": 15,
          "midi": 44,
          "name": "G#2",
          "ticks": 62640,
          "time": 97.868736,
          "velocity": 0.6299212598425197
        },
        {
          "duration": 0.023435999999989576,
          "durationTicks": 15,
          "midi": 70,
          "name": "A#4",
          "ticks": 62640,
          "time": 97.868736,
          "velocity": 0.5354330708661418
        },
        {
          "duration": 0.023435999999989576,
          "durationTicks": 15,
          "midi": 82,
          "name": "A#5",
          "ticks": 62640,
          "time": 97.868736,
          "velocity": 0.3858267716535433
        },
        {
          "duration": 0.023435999999989576,
          "durationTicks": 15,
          "midi": 44,
          "name": "G#2",
          "ticks": 62760,
          "time": 98.056224,
          "velocity": 0.48031496062992124
        },
        {
          "duration": 0.023435999999989576,
          "durationTicks": 15,
          "midi": 70,
          "name": "A#4",
          "ticks": 62760,
          "time": 98.056224,
          "velocity": 0.44881889763779526
        },
        {
          "duration": 0.023435999999989576,
          "durationTicks": 15,
          "midi": 82,
          "name": "A#5",
          "ticks": 62760,
          "time": 98.056224,
          "velocity": 0.41732283464566927
        },
        {
          "duration": 0.023436000000003787,
          "durationTicks": 15,
          "midi": 37,
          "name": "C#2",
          "ticks": 62880,
          "time": 98.24371199999999,
          "velocity": 0.984251968503937
        },
        {
          "duration": 0.023436000000003787,
          "durationTicks": 15,
          "midi": 44,
          "name": "G#2",
          "ticks": 62880,
          "time": 98.24371199999999,
          "velocity": 0.7716535433070866
        },
        {
          "duration": 0.023436000000003787,
          "durationTicks": 15,
          "midi": 70,
          "name": "A#4",
          "ticks": 62880,
          "time": 98.24371199999999,
          "velocity": 0.7322834645669292
        },
        {
          "duration": 0.023436000000003787,
          "durationTicks": 15,
          "midi": 82,
          "name": "A#5",
          "ticks": 62880,
          "time": 98.24371199999999,
          "velocity": 0.4645669291338583
        },
        {
          "duration": 0.023436000000003787,
          "durationTicks": 15,
          "midi": 44,
          "name": "G#2",
          "ticks": 63000,
          "time": 98.43119999999999,
          "velocity": 0.49606299212598426
        },
        {
          "duration": 0.023436000000003787,
          "durationTicks": 15,
          "midi": 70,
          "name": "A#4",
          "ticks": 63000,
          "time": 98.43119999999999,
          "velocity": 0.4645669291338583
        },
        {
          "duration": 0.023436000000003787,
          "durationTicks": 15,
          "midi": 46,
          "name": "A#2",
          "ticks": 63120,
          "time": 98.61868799999999,
          "velocity": 0.6614173228346457
        },
        {
          "duration": 0.023436000000003787,
          "durationTicks": 15,
          "midi": 70,
          "name": "A#4",
          "ticks": 63120,
          "time": 98.61868799999999,
          "velocity": 0.5354330708661418
        },
        {
          "duration": 0.023436000000003787,
          "durationTicks": 15,
          "midi": 82,
          "name": "A#5",
          "ticks": 63120,
          "time": 98.61868799999999,
          "velocity": 0.41732283464566927
        },
        {
          "duration": 0.023436000000003787,
          "durationTicks": 15,
          "midi": 70,
          "name": "A#4",
          "ticks": 63240,
          "time": 98.806176,
          "velocity": 0.44881889763779526
        },
        {
          "duration": 0.023436000000003787,
          "durationTicks": 15,
          "midi": 82,
          "name": "A#5",
          "ticks": 63240,
          "time": 98.806176,
          "velocity": 0.33858267716535434
        },
        {
          "duration": 0.023436000000003787,
          "durationTicks": 15,
          "midi": 35,
          "name": "B1",
          "ticks": 63360,
          "time": 98.993664,
          "velocity": 0.8110236220472441
        },
        {
          "duration": 0.023436000000003787,
          "durationTicks": 15,
          "midi": 44,
          "name": "G#2",
          "ticks": 63360,
          "time": 98.993664,
          "velocity": 0.7559055118110236
        },
        {
          "duration": 0.023436000000003787,
          "durationTicks": 15,
          "midi": 70,
          "name": "A#4",
          "ticks": 63360,
          "time": 98.993664,
          "velocity": 0.7322834645669292
        },
        {
          "duration": 0.023435999999989576,
          "durationTicks": 15,
          "midi": 70,
          "name": "A#4",
          "ticks": 63480,
          "time": 99.181152,
          "velocity": 0.4645669291338583
        },
        {
          "duration": 0.023435999999989576,
          "durationTicks": 15,
          "midi": 44,
          "name": "G#2",
          "ticks": 63600,
          "time": 99.36864,
          "velocity": 0.6062992125984252
        },
        {
          "duration": 0.023435999999989576,
          "durationTicks": 15,
          "midi": 70,
          "name": "A#4",
          "ticks": 63600,
          "time": 99.36864,
          "velocity": 0.5354330708661418
        },
        {
          "duration": 0.023435999999989576,
          "durationTicks": 15,
          "midi": 82,
          "name": "A#5",
          "ticks": 63600,
          "time": 99.36864,
          "velocity": 0.3700787401574803
        },
        {
          "duration": 0.023436000000003787,
          "durationTicks": 15,
          "midi": 70,
          "name": "A#4",
          "ticks": 63720,
          "time": 99.55612799999999,
          "velocity": 0.44881889763779526
        },
        {
          "duration": 0.023436000000003787,
          "durationTicks": 15,
          "midi": 82,
          "name": "A#5",
          "ticks": 63720,
          "time": 99.55612799999999,
          "velocity": 0.3858267716535433
        },
        {
          "duration": 0.023436000000003787,
          "durationTicks": 15,
          "midi": 37,
          "name": "C#2",
          "ticks": 63840,
          "time": 99.74361599999999,
          "velocity": 1
        },
        {
          "duration": 0.023436000000003787,
          "durationTicks": 15,
          "midi": 44,
          "name": "G#2",
          "ticks": 63840,
          "time": 99.74361599999999,
          "velocity": 0.7559055118110236
        },
        {
          "duration": 0.023436000000003787,
          "durationTicks": 15,
          "midi": 70,
          "name": "A#4",
          "ticks": 63840,
          "time": 99.74361599999999,
          "velocity": 0.7322834645669292
        },
        {
          "duration": 0.023436000000003787,
          "durationTicks": 15,
          "midi": 82,
          "name": "A#5",
          "ticks": 63840,
          "time": 99.74361599999999,
          "velocity": 0.49606299212598426
        },
        {
          "duration": 0.023436000000003787,
          "durationTicks": 15,
          "midi": 70,
          "name": "A#4",
          "ticks": 63960,
          "time": 99.93110399999999,
          "velocity": 0.4645669291338583
        },
        {
          "duration": 0.023436000000003787,
          "durationTicks": 15,
          "midi": 35,
          "name": "B1",
          "ticks": 64080,
          "time": 100.11859199999999,
          "velocity": 0.8110236220472441
        },
        {
          "duration": 0.023436000000003787,
          "durationTicks": 15,
          "midi": 44,
          "name": "G#2",
          "ticks": 64080,
          "time": 100.11859199999999,
          "velocity": 0.6141732283464567
        },
        {
          "duration": 0.023436000000003787,
          "durationTicks": 15,
          "midi": 70,
          "name": "A#4",
          "ticks": 64080,
          "time": 100.11859199999999,
          "velocity": 0.5354330708661418
        },
        {
          "duration": 0.023436000000003787,
          "durationTicks": 15,
          "midi": 44,
          "name": "G#2",
          "ticks": 64200,
          "time": 100.30608,
          "velocity": 0.48031496062992124
        },
        {
          "duration": 0.023436000000003787,
          "durationTicks": 15,
          "midi": 70,
          "name": "A#4",
          "ticks": 64200,
          "time": 100.30608,
          "velocity": 0.44881889763779526
        },
        {
          "duration": 0.023436000000003787,
          "durationTicks": 15,
          "midi": 82,
          "name": "A#5",
          "ticks": 64200,
          "time": 100.30608,
          "velocity": 0.33070866141732286
        },
        {
          "duration": 0.023436000000003787,
          "durationTicks": 15,
          "midi": 35,
          "name": "B1",
          "ticks": 64320,
          "time": 100.493568,
          "velocity": 0.8110236220472441
        },
        {
          "duration": 0.023436000000003787,
          "durationTicks": 15,
          "midi": 44,
          "name": "G#2",
          "ticks": 64320,
          "time": 100.493568,
          "velocity": 0.7559055118110236
        },
        {
          "duration": 0.023436000000003787,
          "durationTicks": 15,
          "midi": 70,
          "name": "A#4",
          "ticks": 64320,
          "time": 100.493568,
          "velocity": 0.7322834645669292
        },
        {
          "duration": 0.023436000000003787,
          "durationTicks": 15,
          "midi": 82,
          "name": "A#5",
          "ticks": 64320,
          "time": 100.493568,
          "velocity": 0.33858267716535434
        },
        {
          "duration": 0.023435999999989576,
          "durationTicks": 15,
          "midi": 44,
          "name": "G#2",
          "ticks": 64440,
          "time": 100.681056,
          "velocity": 0.4094488188976378
        },
        {
          "duration": 0.023435999999989576,
          "durationTicks": 15,
          "midi": 70,
          "name": "A#4",
          "ticks": 64440,
          "time": 100.681056,
          "velocity": 0.4645669291338583
        },
        {
          "duration": 0.023435999999989576,
          "durationTicks": 15,
          "midi": 44,
          "name": "G#2",
          "ticks": 64560,
          "time": 100.868544,
          "velocity": 0.6299212598425197
        },
        {
          "duration": 0.023435999999989576,
          "durationTicks": 15,
          "midi": 70,
          "name": "A#4",
          "ticks": 64560,
          "time": 100.868544,
          "velocity": 0.5354330708661418
        },
        {
          "duration": 0.023435999999989576,
          "durationTicks": 15,
          "midi": 82,
          "name": "A#5",
          "ticks": 64560,
          "time": 100.868544,
          "velocity": 0.3858267716535433
        },
        {
          "duration": 0.023436000000003787,
          "durationTicks": 15,
          "midi": 44,
          "name": "G#2",
          "ticks": 64680,
          "time": 101.05603199999999,
          "velocity": 0.48031496062992124
        },
        {
          "duration": 0.023436000000003787,
          "durationTicks": 15,
          "midi": 70,
          "name": "A#4",
          "ticks": 64680,
          "time": 101.05603199999999,
          "velocity": 0.44881889763779526
        },
        {
          "duration": 0.023436000000003787,
          "durationTicks": 15,
          "midi": 82,
          "name": "A#5",
          "ticks": 64680,
          "time": 101.05603199999999,
          "velocity": 0.41732283464566927
        },
        {
          "duration": 0.023436000000003787,
          "durationTicks": 15,
          "midi": 37,
          "name": "C#2",
          "ticks": 64800,
          "time": 101.24351999999999,
          "velocity": 0.984251968503937
        },
        {
          "duration": 0.023436000000003787,
          "durationTicks": 15,
          "midi": 44,
          "name": "G#2",
          "ticks": 64800,
          "time": 101.24351999999999,
          "velocity": 0.7716535433070866
        },
        {
          "duration": 0.023436000000003787,
          "durationTicks": 15,
          "midi": 70,
          "name": "A#4",
          "ticks": 64800,
          "time": 101.24351999999999,
          "velocity": 0.7322834645669292
        },
        {
          "duration": 0.023436000000003787,
          "durationTicks": 15,
          "midi": 82,
          "name": "A#5",
          "ticks": 64800,
          "time": 101.24351999999999,
          "velocity": 0.4645669291338583
        },
        {
          "duration": 0.023436000000003787,
          "durationTicks": 15,
          "midi": 44,
          "name": "G#2",
          "ticks": 64920,
          "time": 101.43100799999999,
          "velocity": 0.49606299212598426
        },
        {
          "duration": 0.023436000000003787,
          "durationTicks": 15,
          "midi": 70,
          "name": "A#4",
          "ticks": 64920,
          "time": 101.43100799999999,
          "velocity": 0.4645669291338583
        },
        {
          "duration": 0.023436000000003787,
          "durationTicks": 15,
          "midi": 46,
          "name": "A#2",
          "ticks": 65040,
          "time": 101.618496,
          "velocity": 0.6614173228346457
        },
        {
          "duration": 0.023436000000003787,
          "durationTicks": 15,
          "midi": 70,
          "name": "A#4",
          "ticks": 65040,
          "time": 101.618496,
          "velocity": 0.5354330708661418
        },
        {
          "duration": 0.023436000000003787,
          "durationTicks": 15,
          "midi": 82,
          "name": "A#5",
          "ticks": 65040,
          "time": 101.618496,
          "velocity": 0.41732283464566927
        },
        {
          "duration": 0.023436000000003787,
          "durationTicks": 15,
          "midi": 35,
          "name": "B1",
          "ticks": 65160,
          "time": 101.805984,
          "velocity": 0.8110236220472441
        },
        {
          "duration": 0.023436000000003787,
          "durationTicks": 15,
          "midi": 70,
          "name": "A#4",
          "ticks": 65160,
          "time": 101.805984,
          "velocity": 0.44881889763779526
        },
        {
          "duration": 0.023436000000003787,
          "durationTicks": 15,
          "midi": 82,
          "name": "A#5",
          "ticks": 65160,
          "time": 101.805984,
          "velocity": 0.33858267716535434
        },
        {
          "duration": 0.023435999999989576,
          "durationTicks": 15,
          "midi": 35,
          "name": "B1",
          "ticks": 65280,
          "time": 101.993472,
          "velocity": 0.8110236220472441
        },
        {
          "duration": 0.023435999999989576,
          "durationTicks": 15,
          "midi": 44,
          "name": "G#2",
          "ticks": 65280,
          "time": 101.993472,
          "velocity": 0.6929133858267716
        },
        {
          "duration": 0.023435999999989576,
          "durationTicks": 15,
          "midi": 70,
          "name": "A#4",
          "ticks": 65280,
          "time": 101.993472,
          "velocity": 0.7322834645669292
        },
        {
          "duration": 0.023435999999989576,
          "durationTicks": 15,
          "midi": 70,
          "name": "A#4",
          "ticks": 65400,
          "time": 102.18096,
          "velocity": 0.4645669291338583
        },
        {
          "duration": 0.023436000000003787,
          "durationTicks": 15,
          "midi": 44,
          "name": "G#2",
          "ticks": 65520,
          "time": 102.36844799999999,
          "velocity": 0.6062992125984252
        },
        {
          "duration": 0.023436000000003787,
          "durationTicks": 15,
          "midi": 70,
          "name": "A#4",
          "ticks": 65520,
          "time": 102.36844799999999,
          "velocity": 0.5354330708661418
        },
        {
          "duration": 0.023436000000003787,
          "durationTicks": 15,
          "midi": 82,
          "name": "A#5",
          "ticks": 65520,
          "time": 102.36844799999999,
          "velocity": 0.3700787401574803
        },
        {
          "duration": 0.023436000000003787,
          "durationTicks": 15,
          "midi": 70,
          "name": "A#4",
          "ticks": 65640,
          "time": 102.55593599999999,
          "velocity": 0.44881889763779526
        },
        {
          "duration": 0.023436000000003787,
          "durationTicks": 15,
          "midi": 82,
          "name": "A#5",
          "ticks": 65640,
          "time": 102.55593599999999,
          "velocity": 0.3858267716535433
        },
        {
          "duration": 0.023436000000003787,
          "durationTicks": 15,
          "midi": 37,
          "name": "C#2",
          "ticks": 65760,
          "time": 102.74342399999999,
          "velocity": 1
        },
        {
          "duration": 0.023436000000003787,
          "durationTicks": 15,
          "midi": 44,
          "name": "G#2",
          "ticks": 65760,
          "time": 102.74342399999999,
          "velocity": 0.7559055118110236
        },
        {
          "duration": 0.023436000000003787,
          "durationTicks": 15,
          "midi": 70,
          "name": "A#4",
          "ticks": 65760,
          "time": 102.74342399999999,
          "velocity": 0.7322834645669292
        },
        {
          "duration": 0.023436000000003787,
          "durationTicks": 15,
          "midi": 82,
          "name": "A#5",
          "ticks": 65760,
          "time": 102.74342399999999,
          "velocity": 0.49606299212598426
        },
        {
          "duration": 0.023436000000003787,
          "durationTicks": 15,
          "midi": 70,
          "name": "A#4",
          "ticks": 65880,
          "time": 102.93091199999999,
          "velocity": 0.4645669291338583
        },
        {
          "duration": 0.023436000000003787,
          "durationTicks": 15,
          "midi": 35,
          "name": "B1",
          "ticks": 66000,
          "time": 103.1184,
          "velocity": 0.8110236220472441
        },
        {
          "duration": 0.023436000000003787,
          "durationTicks": 15,
          "midi": 44,
          "name": "G#2",
          "ticks": 66000,
          "time": 103.1184,
          "velocity": 0.6141732283464567
        },
        {
          "duration": 0.023436000000003787,
          "durationTicks": 15,
          "midi": 70,
          "name": "A#4",
          "ticks": 66000,
          "time": 103.1184,
          "velocity": 0.5354330708661418
        },
        {
          "duration": 0.023436000000003787,
          "durationTicks": 15,
          "midi": 44,
          "name": "G#2",
          "ticks": 66120,
          "time": 103.305888,
          "velocity": 0.48031496062992124
        },
        {
          "duration": 0.023436000000003787,
          "durationTicks": 15,
          "midi": 70,
          "name": "A#4",
          "ticks": 66120,
          "time": 103.305888,
          "velocity": 0.44881889763779526
        },
        {
          "duration": 0.023436000000003787,
          "durationTicks": 15,
          "midi": 82,
          "name": "A#5",
          "ticks": 66120,
          "time": 103.305888,
          "velocity": 0.33070866141732286
        },
        {
          "duration": 0.023435999999989576,
          "durationTicks": 15,
          "midi": 35,
          "name": "B1",
          "ticks": 66240,
          "time": 103.493376,
          "velocity": 0.8110236220472441
        },
        {
          "duration": 0.023435999999989576,
          "durationTicks": 15,
          "midi": 44,
          "name": "G#2",
          "ticks": 66240,
          "time": 103.493376,
          "velocity": 0.6535433070866141
        },
        {
          "duration": 0.023435999999989576,
          "durationTicks": 15,
          "midi": 70,
          "name": "A#4",
          "ticks": 66240,
          "time": 103.493376,
          "velocity": 0.7322834645669292
        },
        {
          "duration": 0.023435999999989576,
          "durationTicks": 15,
          "midi": 82,
          "name": "A#5",
          "ticks": 66240,
          "time": 103.493376,
          "velocity": 0.33858267716535434
        },
        {
          "duration": 0.023435999999989576,
          "durationTicks": 15,
          "midi": 70,
          "name": "A#4",
          "ticks": 66360,
          "time": 103.680864,
          "velocity": 0.4645669291338583
        },
        {
          "duration": 0.023436000000003787,
          "durationTicks": 15,
          "midi": 44,
          "name": "G#2",
          "ticks": 66480,
          "time": 103.86835199999999,
          "velocity": 0.6299212598425197
        },
        {
          "duration": 0.023436000000003787,
          "durationTicks": 15,
          "midi": 70,
          "name": "A#4",
          "ticks": 66480,
          "time": 103.86835199999999,
          "velocity": 0.5354330708661418
        },
        {
          "duration": 0.023436000000003787,
          "durationTicks": 15,
          "midi": 82,
          "name": "A#5",
          "ticks": 66480,
          "time": 103.86835199999999,
          "velocity": 0.3858267716535433
        },
        {
          "duration": 0.023436000000003787,
          "durationTicks": 15,
          "midi": 44,
          "name": "G#2",
          "ticks": 66600,
          "time": 104.05583999999999,
          "velocity": 0.48031496062992124
        },
        {
          "duration": 0.023436000000003787,
          "durationTicks": 15,
          "midi": 70,
          "name": "A#4",
          "ticks": 66600,
          "time": 104.05583999999999,
          "velocity": 0.44881889763779526
        },
        {
          "duration": 0.023436000000003787,
          "durationTicks": 15,
          "midi": 82,
          "name": "A#5",
          "ticks": 66600,
          "time": 104.05583999999999,
          "velocity": 0.41732283464566927
        },
        {
          "duration": 0.023436000000003787,
          "durationTicks": 15,
          "midi": 37,
          "name": "C#2",
          "ticks": 66720,
          "time": 104.24332799999999,
          "velocity": 0.984251968503937
        },
        {
          "duration": 0.023436000000003787,
          "durationTicks": 15,
          "midi": 44,
          "name": "G#2",
          "ticks": 66720,
          "time": 104.24332799999999,
          "velocity": 0.7086614173228346
        },
        {
          "duration": 0.023436000000003787,
          "durationTicks": 15,
          "midi": 70,
          "name": "A#4",
          "ticks": 66720,
          "time": 104.24332799999999,
          "velocity": 0.7322834645669292
        },
        {
          "duration": 0.023436000000003787,
          "durationTicks": 15,
          "midi": 82,
          "name": "A#5",
          "ticks": 66720,
          "time": 104.24332799999999,
          "velocity": 0.4645669291338583
        },
        {
          "duration": 0.023436000000003787,
          "durationTicks": 15,
          "midi": 70,
          "name": "A#4",
          "ticks": 66840,
          "time": 104.430816,
          "velocity": 0.4645669291338583
        },
        {
          "duration": 0.023436000000003787,
          "durationTicks": 15,
          "midi": 46,
          "name": "A#2",
          "ticks": 66960,
          "time": 104.618304,
          "velocity": 0.6614173228346457
        },
        {
          "duration": 0.023436000000003787,
          "durationTicks": 15,
          "midi": 70,
          "name": "A#4",
          "ticks": 66960,
          "time": 104.618304,
          "velocity": 0.5354330708661418
        },
        {
          "duration": 0.023436000000003787,
          "durationTicks": 15,
          "midi": 82,
          "name": "A#5",
          "ticks": 66960,
          "time": 104.618304,
          "velocity": 0.41732283464566927
        },
        {
          "duration": 0.023435999999989576,
          "durationTicks": 15,
          "midi": 70,
          "name": "A#4",
          "ticks": 67080,
          "time": 104.805792,
          "velocity": 0.44881889763779526
        },
        {
          "duration": 0.023435999999989576,
          "durationTicks": 15,
          "midi": 82,
          "name": "A#5",
          "ticks": 67080,
          "time": 104.805792,
          "velocity": 0.33858267716535434
        },
        {
          "duration": 0.023435999999989576,
          "durationTicks": 15,
          "midi": 35,
          "name": "B1",
          "ticks": 67200,
          "time": 104.99328,
          "velocity": 0.8110236220472441
        },
        {
          "duration": 0.023435999999989576,
          "durationTicks": 15,
          "midi": 44,
          "name": "G#2",
          "ticks": 67200,
          "time": 104.99328,
          "velocity": 0.6929133858267716
        },
        {
          "duration": 0.023435999999989576,
          "durationTicks": 15,
          "midi": 70,
          "name": "A#4",
          "ticks": 67200,
          "time": 104.99328,
          "velocity": 0.7322834645669292
        },
        {
          "duration": 0.023436000000003787,
          "durationTicks": 15,
          "midi": 70,
          "name": "A#4",
          "ticks": 67320,
          "time": 105.18076799999999,
          "velocity": 0.4645669291338583
        },
        {
          "duration": 0.023436000000003787,
          "durationTicks": 15,
          "midi": 44,
          "name": "G#2",
          "ticks": 67440,
          "time": 105.36825599999999,
          "velocity": 0.6062992125984252
        },
        {
          "duration": 0.023436000000003787,
          "durationTicks": 15,
          "midi": 70,
          "name": "A#4",
          "ticks": 67440,
          "time": 105.36825599999999,
          "velocity": 0.5354330708661418
        },
        {
          "duration": 0.023436000000003787,
          "durationTicks": 15,
          "midi": 82,
          "name": "A#5",
          "ticks": 67440,
          "time": 105.36825599999999,
          "velocity": 0.3700787401574803
        },
        {
          "duration": 0.023436000000003787,
          "durationTicks": 15,
          "midi": 70,
          "name": "A#4",
          "ticks": 67560,
          "time": 105.55574399999999,
          "velocity": 0.44881889763779526
        },
        {
          "duration": 0.023436000000003787,
          "durationTicks": 15,
          "midi": 82,
          "name": "A#5",
          "ticks": 67560,
          "time": 105.55574399999999,
          "velocity": 0.3858267716535433
        },
        {
          "duration": 0.023436000000003787,
          "durationTicks": 15,
          "midi": 37,
          "name": "C#2",
          "ticks": 67680,
          "time": 105.74323199999999,
          "velocity": 1
        },
        {
          "duration": 0.023436000000003787,
          "durationTicks": 15,
          "midi": 44,
          "name": "G#2",
          "ticks": 67680,
          "time": 105.74323199999999,
          "velocity": 0.7559055118110236
        },
        {
          "duration": 0.023436000000003787,
          "durationTicks": 15,
          "midi": 70,
          "name": "A#4",
          "ticks": 67680,
          "time": 105.74323199999999,
          "velocity": 0.7322834645669292
        },
        {
          "duration": 0.023436000000003787,
          "durationTicks": 15,
          "midi": 82,
          "name": "A#5",
          "ticks": 67680,
          "time": 105.74323199999999,
          "velocity": 0.49606299212598426
        },
        {
          "duration": 0.023436000000003787,
          "durationTicks": 15,
          "midi": 70,
          "name": "A#4",
          "ticks": 67800,
          "time": 105.93072,
          "velocity": 0.4645669291338583
        },
        {
          "duration": 0.023436000000003787,
          "durationTicks": 15,
          "midi": 44,
          "name": "G#2",
          "ticks": 67920,
          "time": 106.118208,
          "velocity": 0.6141732283464567
        },
        {
          "duration": 0.023436000000003787,
          "durationTicks": 15,
          "midi": 70,
          "name": "A#4",
          "ticks": 67920,
          "time": 106.118208,
          "velocity": 0.5354330708661418
        },
        {
          "duration": 0.023435999999989576,
          "durationTicks": 15,
          "midi": 35,
          "name": "B1",
          "ticks": 68040,
          "time": 106.305696,
          "velocity": 0.8110236220472441
        },
        {
          "duration": 0.023435999999989576,
          "durationTicks": 15,
          "midi": 44,
          "name": "G#2",
          "ticks": 68040,
          "time": 106.305696,
          "velocity": 0.48031496062992124
        },
        {
          "duration": 0.023435999999989576,
          "durationTicks": 15,
          "midi": 70,
          "name": "A#4",
          "ticks": 68040,
          "time": 106.305696,
          "velocity": 0.44881889763779526
        },
        {
          "duration": 0.023435999999989576,
          "durationTicks": 15,
          "midi": 82,
          "name": "A#5",
          "ticks": 68040,
          "time": 106.305696,
          "velocity": 0.33070866141732286
        },
        {
          "duration": 0.023435999999989576,
          "durationTicks": 15,
          "midi": 35,
          "name": "B1",
          "ticks": 68160,
          "time": 106.493184,
          "velocity": 0.8110236220472441
        },
        {
          "duration": 0.023435999999989576,
          "durationTicks": 15,
          "midi": 44,
          "name": "G#2",
          "ticks": 68160,
          "time": 106.493184,
          "velocity": 0.6535433070866141
        },
        {
          "duration": 0.023435999999989576,
          "durationTicks": 15,
          "midi": 70,
          "name": "A#4",
          "ticks": 68160,
          "time": 106.493184,
          "velocity": 0.7322834645669292
        },
        {
          "duration": 0.023435999999989576,
          "durationTicks": 15,
          "midi": 82,
          "name": "A#5",
          "ticks": 68160,
          "time": 106.493184,
          "velocity": 0.33858267716535434
        },
        {
          "duration": 0.023436000000003787,
          "durationTicks": 15,
          "midi": 70,
          "name": "A#4",
          "ticks": 68280,
          "time": 106.68067199999999,
          "velocity": 0.4645669291338583
        },
        {
          "duration": 0.023436000000003787,
          "durationTicks": 15,
          "midi": 44,
          "name": "G#2",
          "ticks": 68400,
          "time": 106.86815999999999,
          "velocity": 0.6299212598425197
        },
        {
          "duration": 0.023436000000003787,
          "durationTicks": 15,
          "midi": 70,
          "name": "A#4",
          "ticks": 68400,
          "time": 106.86815999999999,
          "velocity": 0.5354330708661418
        },
        {
          "duration": 0.023436000000003787,
          "durationTicks": 15,
          "midi": 82,
          "name": "A#5",
          "ticks": 68400,
          "time": 106.86815999999999,
          "velocity": 0.3858267716535433
        },
        {
          "duration": 0.023436000000003787,
          "durationTicks": 15,
          "midi": 44,
          "name": "G#2",
          "ticks": 68520,
          "time": 107.05564799999999,
          "velocity": 0.48031496062992124
        },
        {
          "duration": 0.023436000000003787,
          "durationTicks": 15,
          "midi": 70,
          "name": "A#4",
          "ticks": 68520,
          "time": 107.05564799999999,
          "velocity": 0.44881889763779526
        },
        {
          "duration": 0.023436000000003787,
          "durationTicks": 15,
          "midi": 82,
          "name": "A#5",
          "ticks": 68520,
          "time": 107.05564799999999,
          "velocity": 0.41732283464566927
        },
        {
          "duration": 0.023436000000003787,
          "durationTicks": 15,
          "midi": 37,
          "name": "C#2",
          "ticks": 68640,
          "time": 107.24313599999999,
          "velocity": 0.984251968503937
        },
        {
          "duration": 0.023436000000003787,
          "durationTicks": 15,
          "midi": 44,
          "name": "G#2",
          "ticks": 68640,
          "time": 107.24313599999999,
          "velocity": 0.7086614173228346
        },
        {
          "duration": 0.023436000000003787,
          "durationTicks": 15,
          "midi": 70,
          "name": "A#4",
          "ticks": 68640,
          "time": 107.24313599999999,
          "velocity": 0.7322834645669292
        },
        {
          "duration": 0.023436000000003787,
          "durationTicks": 15,
          "midi": 82,
          "name": "A#5",
          "ticks": 68640,
          "time": 107.24313599999999,
          "velocity": 0.4645669291338583
        },
        {
          "duration": 0.023436000000003787,
          "durationTicks": 15,
          "midi": 70,
          "name": "A#4",
          "ticks": 68760,
          "time": 107.430624,
          "velocity": 0.4645669291338583
        },
        {
          "duration": 0.023435999999989576,
          "durationTicks": 15,
          "midi": 46,
          "name": "A#2",
          "ticks": 68880,
          "time": 107.618112,
          "velocity": 0.6614173228346457
        },
        {
          "duration": 0.023435999999989576,
          "durationTicks": 15,
          "midi": 70,
          "name": "A#4",
          "ticks": 68880,
          "time": 107.618112,
          "velocity": 0.5354330708661418
        },
        {
          "duration": 0.023435999999989576,
          "durationTicks": 15,
          "midi": 82,
          "name": "A#5",
          "ticks": 68880,
          "time": 107.618112,
          "velocity": 0.41732283464566927
        },
        {
          "duration": 0.023435999999989576,
          "durationTicks": 15,
          "midi": 70,
          "name": "A#4",
          "ticks": 69000,
          "time": 107.8056,
          "velocity": 0.44881889763779526
        },
        {
          "duration": 0.023435999999989576,
          "durationTicks": 15,
          "midi": 82,
          "name": "A#5",
          "ticks": 69000,
          "time": 107.8056,
          "velocity": 0.33858267716535434
        },
        {
          "duration": 0.023435999999989576,
          "durationTicks": 15,
          "midi": 35,
          "name": "B1",
          "ticks": 69120,
          "time": 107.993088,
          "velocity": 0.952755905511811
        },
        {
          "duration": 0.023435999999989576,
          "durationTicks": 15,
          "midi": 44,
          "name": "G#2",
          "ticks": 69120,
          "time": 107.993088,
          "velocity": 0.6929133858267716
        },
        {
          "duration": 0.023435999999989576,
          "durationTicks": 15,
          "midi": 49,
          "name": "C#3",
          "ticks": 69120,
          "time": 107.993088,
          "velocity": 0.4094488188976378
        },
        {
          "duration": 0.023435999999989576,
          "durationTicks": 15,
          "midi": 59,
          "name": "B3",
          "ticks": 69120,
          "time": 107.993088,
          "velocity": 0.889763779527559
        },
        {
          "duration": 0.023435999999989576,
          "durationTicks": 15,
          "midi": 70,
          "name": "A#4",
          "ticks": 69120,
          "time": 107.993088,
          "velocity": 0.7322834645669292
        },
        {
          "duration": 0.023436000000003787,
          "durationTicks": 15,
          "midi": 70,
          "name": "A#4",
          "ticks": 69240,
          "time": 108.18057599999999,
          "velocity": 0.4645669291338583
        },
        {
          "duration": 0.023436000000003787,
          "durationTicks": 15,
          "midi": 44,
          "name": "G#2",
          "ticks": 69360,
          "time": 108.36806399999999,
          "velocity": 0.6062992125984252
        },
        {
          "duration": 0.023436000000003787,
          "durationTicks": 15,
          "midi": 70,
          "name": "A#4",
          "ticks": 69360,
          "time": 108.36806399999999,
          "velocity": 0.5354330708661418
        },
        {
          "duration": 0.023436000000003787,
          "durationTicks": 15,
          "midi": 82,
          "name": "A#5",
          "ticks": 69360,
          "time": 108.36806399999999,
          "velocity": 0.3700787401574803
        },
        {
          "duration": 0.023436000000003787,
          "durationTicks": 15,
          "midi": 70,
          "name": "A#4",
          "ticks": 69480,
          "time": 108.55555199999999,
          "velocity": 0.44881889763779526
        },
        {
          "duration": 0.023436000000003787,
          "durationTicks": 15,
          "midi": 82,
          "name": "A#5",
          "ticks": 69480,
          "time": 108.55555199999999,
          "velocity": 0.3858267716535433
        },
        {
          "duration": 0.023436000000003787,
          "durationTicks": 15,
          "midi": 37,
          "name": "C#2",
          "ticks": 69600,
          "time": 108.74304,
          "velocity": 1
        },
        {
          "duration": 0.023436000000003787,
          "durationTicks": 15,
          "midi": 44,
          "name": "G#2",
          "ticks": 69600,
          "time": 108.74304,
          "velocity": 0.7559055118110236
        },
        {
          "duration": 0.023436000000003787,
          "durationTicks": 15,
          "midi": 70,
          "name": "A#4",
          "ticks": 69600,
          "time": 108.74304,
          "velocity": 0.7322834645669292
        },
        {
          "duration": 0.023436000000003787,
          "durationTicks": 15,
          "midi": 82,
          "name": "A#5",
          "ticks": 69600,
          "time": 108.74304,
          "velocity": 0.49606299212598426
        },
        {
          "duration": 0.023436000000003787,
          "durationTicks": 15,
          "midi": 70,
          "name": "A#4",
          "ticks": 69720,
          "time": 108.930528,
          "velocity": 0.4645669291338583
        },
        {
          "duration": 0.023435999999989576,
          "durationTicks": 15,
          "midi": 35,
          "name": "B1",
          "ticks": 69840,
          "time": 109.118016,
          "velocity": 0.7480314960629921
        },
        {
          "duration": 0.023435999999989576,
          "durationTicks": 15,
          "midi": 44,
          "name": "G#2",
          "ticks": 69840,
          "time": 109.118016,
          "velocity": 0.6141732283464567
        },
        {
          "duration": 0.023435999999989576,
          "durationTicks": 15,
          "midi": 70,
          "name": "A#4",
          "ticks": 69840,
          "time": 109.118016,
          "velocity": 0.5354330708661418
        },
        {
          "duration": 0.023435999999989576,
          "durationTicks": 15,
          "midi": 44,
          "name": "G#2",
          "ticks": 69960,
          "time": 109.305504,
          "velocity": 0.48031496062992124
        },
        {
          "duration": 0.023435999999989576,
          "durationTicks": 15,
          "midi": 70,
          "name": "A#4",
          "ticks": 69960,
          "time": 109.305504,
          "velocity": 0.44881889763779526
        },
        {
          "duration": 0.023435999999989576,
          "durationTicks": 15,
          "midi": 82,
          "name": "A#5",
          "ticks": 69960,
          "time": 109.305504,
          "velocity": 0.33070866141732286
        },
        {
          "duration": 0.023436000000003787,
          "durationTicks": 15,
          "midi": 35,
          "name": "B1",
          "ticks": 70080,
          "time": 109.49299199999999,
          "velocity": 0.8110236220472441
        },
        {
          "duration": 0.023436000000003787,
          "durationTicks": 15,
          "midi": 44,
          "name": "G#2",
          "ticks": 70080,
          "time": 109.49299199999999,
          "velocity": 0.6535433070866141
        },
        {
          "duration": 0.023436000000003787,
          "durationTicks": 15,
          "midi": 70,
          "name": "A#4",
          "ticks": 70080,
          "time": 109.49299199999999,
          "velocity": 0.7322834645669292
        },
        {
          "duration": 0.023436000000003787,
          "durationTicks": 15,
          "midi": 82,
          "name": "A#5",
          "ticks": 70080,
          "time": 109.49299199999999,
          "velocity": 0.33858267716535434
        },
        {
          "duration": 0.023436000000003787,
          "durationTicks": 15,
          "midi": 70,
          "name": "A#4",
          "ticks": 70200,
          "time": 109.68047999999999,
          "velocity": 0.4645669291338583
        },
        {
          "duration": 0.023436000000003787,
          "durationTicks": 15,
          "midi": 44,
          "name": "G#2",
          "ticks": 70320,
          "time": 109.86796799999999,
          "velocity": 0.6299212598425197
        },
        {
          "duration": 0.023436000000003787,
          "durationTicks": 15,
          "midi": 70,
          "name": "A#4",
          "ticks": 70320,
          "time": 109.86796799999999,
          "velocity": 0.5354330708661418
        },
        {
          "duration": 0.023436000000003787,
          "durationTicks": 15,
          "midi": 82,
          "name": "A#5",
          "ticks": 70320,
          "time": 109.86796799999999,
          "velocity": 0.3858267716535433
        },
        {
          "duration": 0.023436000000003787,
          "durationTicks": 15,
          "midi": 44,
          "name": "G#2",
          "ticks": 70440,
          "time": 110.05545599999999,
          "velocity": 0.48031496062992124
        },
        {
          "duration": 0.023436000000003787,
          "durationTicks": 15,
          "midi": 70,
          "name": "A#4",
          "ticks": 70440,
          "time": 110.05545599999999,
          "velocity": 0.44881889763779526
        },
        {
          "duration": 0.023436000000003787,
          "durationTicks": 15,
          "midi": 82,
          "name": "A#5",
          "ticks": 70440,
          "time": 110.05545599999999,
          "velocity": 0.41732283464566927
        },
        {
          "duration": 0.023436000000003787,
          "durationTicks": 15,
          "midi": 37,
          "name": "C#2",
          "ticks": 70560,
          "time": 110.242944,
          "velocity": 0.984251968503937
        },
        {
          "duration": 0.023436000000003787,
          "durationTicks": 15,
          "midi": 44,
          "name": "G#2",
          "ticks": 70560,
          "time": 110.242944,
          "velocity": 0.7086614173228346
        },
        {
          "duration": 0.023436000000003787,
          "durationTicks": 15,
          "midi": 70,
          "name": "A#4",
          "ticks": 70560,
          "time": 110.242944,
          "velocity": 0.7322834645669292
        },
        {
          "duration": 0.023436000000003787,
          "durationTicks": 15,
          "midi": 82,
          "name": "A#5",
          "ticks": 70560,
          "time": 110.242944,
          "velocity": 0.4645669291338583
        },
        {
          "duration": 0.023436000000003787,
          "durationTicks": 15,
          "midi": 70,
          "name": "A#4",
          "ticks": 70680,
          "time": 110.430432,
          "velocity": 0.4645669291338583
        },
        {
          "duration": 0.023435999999989576,
          "durationTicks": 15,
          "midi": 46,
          "name": "A#2",
          "ticks": 70800,
          "time": 110.61792,
          "velocity": 0.6614173228346457
        },
        {
          "duration": 0.023435999999989576,
          "durationTicks": 15,
          "midi": 70,
          "name": "A#4",
          "ticks": 70800,
          "time": 110.61792,
          "velocity": 0.5354330708661418
        },
        {
          "duration": 0.023435999999989576,
          "durationTicks": 15,
          "midi": 82,
          "name": "A#5",
          "ticks": 70800,
          "time": 110.61792,
          "velocity": 0.41732283464566927
        },
        {
          "duration": 0.023435999999989576,
          "durationTicks": 15,
          "midi": 70,
          "name": "A#4",
          "ticks": 70920,
          "time": 110.805408,
          "velocity": 0.44881889763779526
        },
        {
          "duration": 0.023435999999989576,
          "durationTicks": 15,
          "midi": 82,
          "name": "A#5",
          "ticks": 70920,
          "time": 110.805408,
          "velocity": 0.33858267716535434
        },
        {
          "duration": 0.023436000000003787,
          "durationTicks": 15,
          "midi": 35,
          "name": "B1",
          "ticks": 71040,
          "time": 110.99289599999999,
          "velocity": 0.8110236220472441
        },
        {
          "duration": 0.023436000000003787,
          "durationTicks": 15,
          "midi": 44,
          "name": "G#2",
          "ticks": 71040,
          "time": 110.99289599999999,
          "velocity": 0.6929133858267716
        },
        {
          "duration": 0.023436000000003787,
          "durationTicks": 15,
          "midi": 70,
          "name": "A#4",
          "ticks": 71040,
          "time": 110.99289599999999,
          "velocity": 0.7322834645669292
        },
        {
          "duration": 0.023436000000003787,
          "durationTicks": 15,
          "midi": 70,
          "name": "A#4",
          "ticks": 71160,
          "time": 111.18038399999999,
          "velocity": 0.4645669291338583
        },
        {
          "duration": 0.023436000000003787,
          "durationTicks": 15,
          "midi": 44,
          "name": "G#2",
          "ticks": 71280,
          "time": 111.36787199999999,
          "velocity": 0.6062992125984252
        },
        {
          "duration": 0.023436000000003787,
          "durationTicks": 15,
          "midi": 70,
          "name": "A#4",
          "ticks": 71280,
          "time": 111.36787199999999,
          "velocity": 0.5354330708661418
        },
        {
          "duration": 0.023436000000003787,
          "durationTicks": 15,
          "midi": 82,
          "name": "A#5",
          "ticks": 71280,
          "time": 111.36787199999999,
          "velocity": 0.3700787401574803
        },
        {
          "duration": 0.023436000000003787,
          "durationTicks": 15,
          "midi": 70,
          "name": "A#4",
          "ticks": 71400,
          "time": 111.55536,
          "velocity": 0.44881889763779526
        },
        {
          "duration": 0.023436000000003787,
          "durationTicks": 15,
          "midi": 82,
          "name": "A#5",
          "ticks": 71400,
          "time": 111.55536,
          "velocity": 0.3858267716535433
        },
        {
          "duration": 0.023436000000003787,
          "durationTicks": 15,
          "midi": 37,
          "name": "C#2",
          "ticks": 71520,
          "time": 111.742848,
          "velocity": 1
        },
        {
          "duration": 0.023436000000003787,
          "durationTicks": 15,
          "midi": 44,
          "name": "G#2",
          "ticks": 71520,
          "time": 111.742848,
          "velocity": 0.7559055118110236
        },
        {
          "duration": 0.023436000000003787,
          "durationTicks": 15,
          "midi": 70,
          "name": "A#4",
          "ticks": 71520,
          "time": 111.742848,
          "velocity": 0.7322834645669292
        },
        {
          "duration": 0.023436000000003787,
          "durationTicks": 15,
          "midi": 82,
          "name": "A#5",
          "ticks": 71520,
          "time": 111.742848,
          "velocity": 0.49606299212598426
        },
        {
          "duration": 0.023435999999989576,
          "durationTicks": 15,
          "midi": 70,
          "name": "A#4",
          "ticks": 71640,
          "time": 111.930336,
          "velocity": 0.4645669291338583
        },
        {
          "duration": 0.023435999999989576,
          "durationTicks": 15,
          "midi": 44,
          "name": "G#2",
          "ticks": 71760,
          "time": 112.117824,
          "velocity": 0.6141732283464567
        },
        {
          "duration": 0.023435999999989576,
          "durationTicks": 15,
          "midi": 70,
          "name": "A#4",
          "ticks": 71760,
          "time": 112.117824,
          "velocity": 0.5354330708661418
        },
        {
          "duration": 0.023436000000003787,
          "durationTicks": 15,
          "midi": 35,
          "name": "B1",
          "ticks": 71880,
          "time": 112.30531199999999,
          "velocity": 0.7480314960629921
        },
        {
          "duration": 0.023436000000003787,
          "durationTicks": 15,
          "midi": 44,
          "name": "G#2",
          "ticks": 71880,
          "time": 112.30531199999999,
          "velocity": 0.48031496062992124
        },
        {
          "duration": 0.023436000000003787,
          "durationTicks": 15,
          "midi": 70,
          "name": "A#4",
          "ticks": 71880,
          "time": 112.30531199999999,
          "velocity": 0.44881889763779526
        },
        {
          "duration": 0.023436000000003787,
          "durationTicks": 15,
          "midi": 82,
          "name": "A#5",
          "ticks": 71880,
          "time": 112.30531199999999,
          "velocity": 0.33070866141732286
        },
        {
          "duration": 0.023436000000003787,
          "durationTicks": 15,
          "midi": 35,
          "name": "B1",
          "ticks": 72000,
          "time": 112.49279999999999,
          "velocity": 0.8110236220472441
        },
        {
          "duration": 0.023436000000003787,
          "durationTicks": 15,
          "midi": 44,
          "name": "G#2",
          "ticks": 72000,
          "time": 112.49279999999999,
          "velocity": 0.6535433070866141
        },
        {
          "duration": 0.023436000000003787,
          "durationTicks": 15,
          "midi": 70,
          "name": "A#4",
          "ticks": 72000,
          "time": 112.49279999999999,
          "velocity": 0.7322834645669292
        },
        {
          "duration": 0.023436000000003787,
          "durationTicks": 15,
          "midi": 82,
          "name": "A#5",
          "ticks": 72000,
          "time": 112.49279999999999,
          "velocity": 0.33858267716535434
        },
        {
          "duration": 0.023436000000003787,
          "durationTicks": 15,
          "midi": 70,
          "name": "A#4",
          "ticks": 72120,
          "time": 112.68028799999999,
          "velocity": 0.4645669291338583
        },
        {
          "duration": 0.023436000000003787,
          "durationTicks": 15,
          "midi": 44,
          "name": "G#2",
          "ticks": 72240,
          "time": 112.86777599999999,
          "velocity": 0.6299212598425197
        },
        {
          "duration": 0.023436000000003787,
          "durationTicks": 15,
          "midi": 70,
          "name": "A#4",
          "ticks": 72240,
          "time": 112.86777599999999,
          "velocity": 0.5354330708661418
        },
        {
          "duration": 0.023436000000003787,
          "durationTicks": 15,
          "midi": 82,
          "name": "A#5",
          "ticks": 72240,
          "time": 112.86777599999999,
          "velocity": 0.3858267716535433
        },
        {
          "duration": 0.023436000000003787,
          "durationTicks": 15,
          "midi": 44,
          "name": "G#2",
          "ticks": 72360,
          "time": 113.055264,
          "velocity": 0.48031496062992124
        },
        {
          "duration": 0.023436000000003787,
          "durationTicks": 15,
          "midi": 70,
          "name": "A#4",
          "ticks": 72360,
          "time": 113.055264,
          "velocity": 0.44881889763779526
        },
        {
          "duration": 0.023436000000003787,
          "durationTicks": 15,
          "midi": 82,
          "name": "A#5",
          "ticks": 72360,
          "time": 113.055264,
          "velocity": 0.41732283464566927
        },
        {
          "duration": 0.023436000000003787,
          "durationTicks": 15,
          "midi": 37,
          "name": "C#2",
          "ticks": 72480,
          "time": 113.242752,
          "velocity": 0.984251968503937
        },
        {
          "duration": 0.023436000000003787,
          "durationTicks": 15,
          "midi": 44,
          "name": "G#2",
          "ticks": 72480,
          "time": 113.242752,
          "velocity": 0.7086614173228346
        },
        {
          "duration": 0.023436000000003787,
          "durationTicks": 15,
          "midi": 70,
          "name": "A#4",
          "ticks": 72480,
          "time": 113.242752,
          "velocity": 0.7322834645669292
        },
        {
          "duration": 0.023436000000003787,
          "durationTicks": 15,
          "midi": 82,
          "name": "A#5",
          "ticks": 72480,
          "time": 113.242752,
          "velocity": 0.4645669291338583
        },
        {
          "duration": 0.023435999999989576,
          "durationTicks": 15,
          "midi": 70,
          "name": "A#4",
          "ticks": 72600,
          "time": 113.43024,
          "velocity": 0.4645669291338583
        },
        {
          "duration": 0.023435999999989576,
          "durationTicks": 15,
          "midi": 46,
          "name": "A#2",
          "ticks": 72720,
          "time": 113.617728,
          "velocity": 0.6614173228346457
        },
        {
          "duration": 0.023435999999989576,
          "durationTicks": 15,
          "midi": 70,
          "name": "A#4",
          "ticks": 72720,
          "time": 113.617728,
          "velocity": 0.5354330708661418
        },
        {
          "duration": 0.023435999999989576,
          "durationTicks": 15,
          "midi": 82,
          "name": "A#5",
          "ticks": 72720,
          "time": 113.617728,
          "velocity": 0.41732283464566927
        },
        {
          "duration": 0.023436000000003787,
          "durationTicks": 15,
          "midi": 70,
          "name": "A#4",
          "ticks": 72840,
          "time": 113.80521599999999,
          "velocity": 0.44881889763779526
        },
        {
          "duration": 0.023436000000003787,
          "durationTicks": 15,
          "midi": 82,
          "name": "A#5",
          "ticks": 72840,
          "time": 113.80521599999999,
          "velocity": 0.33858267716535434
        },
        {
          "duration": 0.023436000000003787,
          "durationTicks": 15,
          "midi": 35,
          "name": "B1",
          "ticks": 72960,
          "time": 113.99270399999999,
          "velocity": 0.8110236220472441
        },
        {
          "duration": 0.023436000000003787,
          "durationTicks": 15,
          "midi": 44,
          "name": "G#2",
          "ticks": 72960,
          "time": 113.99270399999999,
          "velocity": 0.6929133858267716
        },
        {
          "duration": 0.023436000000003787,
          "durationTicks": 15,
          "midi": 70,
          "name": "A#4",
          "ticks": 72960,
          "time": 113.99270399999999,
          "velocity": 0.7322834645669292
        },
        {
          "duration": 0.023436000000003787,
          "durationTicks": 15,
          "midi": 70,
          "name": "A#4",
          "ticks": 73080,
          "time": 114.18019199999999,
          "velocity": 0.4645669291338583
        },
        {
          "duration": 0.023436000000003787,
          "durationTicks": 15,
          "midi": 44,
          "name": "G#2",
          "ticks": 73200,
          "time": 114.36768,
          "velocity": 0.6062992125984252
        },
        {
          "duration": 0.023436000000003787,
          "durationTicks": 15,
          "midi": 70,
          "name": "A#4",
          "ticks": 73200,
          "time": 114.36768,
          "velocity": 0.5354330708661418
        },
        {
          "duration": 0.023436000000003787,
          "durationTicks": 15,
          "midi": 82,
          "name": "A#5",
          "ticks": 73200,
          "time": 114.36768,
          "velocity": 0.3700787401574803
        },
        {
          "duration": 0.023436000000003787,
          "durationTicks": 15,
          "midi": 70,
          "name": "A#4",
          "ticks": 73320,
          "time": 114.555168,
          "velocity": 0.44881889763779526
        },
        {
          "duration": 0.023436000000003787,
          "durationTicks": 15,
          "midi": 82,
          "name": "A#5",
          "ticks": 73320,
          "time": 114.555168,
          "velocity": 0.3858267716535433
        },
        {
          "duration": 0.023435999999989576,
          "durationTicks": 15,
          "midi": 37,
          "name": "C#2",
          "ticks": 73440,
          "time": 114.742656,
          "velocity": 1
        },
        {
          "duration": 0.023435999999989576,
          "durationTicks": 15,
          "midi": 44,
          "name": "G#2",
          "ticks": 73440,
          "time": 114.742656,
          "velocity": 0.7559055118110236
        },
        {
          "duration": 0.023435999999989576,
          "durationTicks": 15,
          "midi": 70,
          "name": "A#4",
          "ticks": 73440,
          "time": 114.742656,
          "velocity": 0.7322834645669292
        },
        {
          "duration": 0.023435999999989576,
          "durationTicks": 15,
          "midi": 82,
          "name": "A#5",
          "ticks": 73440,
          "time": 114.742656,
          "velocity": 0.49606299212598426
        },
        {
          "duration": 0.023435999999989576,
          "durationTicks": 15,
          "midi": 70,
          "name": "A#4",
          "ticks": 73560,
          "time": 114.930144,
          "velocity": 0.4645669291338583
        },
        {
          "duration": 0.023436000000003787,
          "durationTicks": 15,
          "midi": 35,
          "name": "B1",
          "ticks": 73680,
          "time": 115.11763199999999,
          "velocity": 0.7716535433070866
        },
        {
          "duration": 0.023436000000003787,
          "durationTicks": 15,
          "midi": 44,
          "name": "G#2",
          "ticks": 73680,
          "time": 115.11763199999999,
          "velocity": 0.6141732283464567
        },
        {
          "duration": 0.023436000000003787,
          "durationTicks": 15,
          "midi": 70,
          "name": "A#4",
          "ticks": 73680,
          "time": 115.11763199999999,
          "velocity": 0.5354330708661418
        },
        {
          "duration": 0.023436000000003787,
          "durationTicks": 15,
          "midi": 44,
          "name": "G#2",
          "ticks": 73800,
          "time": 115.30511999999999,
          "velocity": 0.48031496062992124
        },
        {
          "duration": 0.023436000000003787,
          "durationTicks": 15,
          "midi": 70,
          "name": "A#4",
          "ticks": 73800,
          "time": 115.30511999999999,
          "velocity": 0.44881889763779526
        },
        {
          "duration": 0.023436000000003787,
          "durationTicks": 15,
          "midi": 82,
          "name": "A#5",
          "ticks": 73800,
          "time": 115.30511999999999,
          "velocity": 0.33070866141732286
        },
        {
          "duration": 0.023436000000003787,
          "durationTicks": 15,
          "midi": 35,
          "name": "B1",
          "ticks": 73920,
          "time": 115.49260799999999,
          "velocity": 0.8110236220472441
        },
        {
          "duration": 0.023436000000003787,
          "durationTicks": 15,
          "midi": 44,
          "name": "G#2",
          "ticks": 73920,
          "time": 115.49260799999999,
          "velocity": 0.6535433070866141
        },
        {
          "duration": 0.023436000000003787,
          "durationTicks": 15,
          "midi": 70,
          "name": "A#4",
          "ticks": 73920,
          "time": 115.49260799999999,
          "velocity": 0.7322834645669292
        },
        {
          "duration": 0.023436000000003787,
          "durationTicks": 15,
          "midi": 82,
          "name": "A#5",
          "ticks": 73920,
          "time": 115.49260799999999,
          "velocity": 0.33858267716535434
        },
        {
          "duration": 0.023436000000003787,
          "durationTicks": 15,
          "midi": 70,
          "name": "A#4",
          "ticks": 74040,
          "time": 115.68009599999999,
          "velocity": 0.4645669291338583
        },
        {
          "duration": 0.023436000000003787,
          "durationTicks": 15,
          "midi": 44,
          "name": "G#2",
          "ticks": 74160,
          "time": 115.867584,
          "velocity": 0.6299212598425197
        },
        {
          "duration": 0.023436000000003787,
          "durationTicks": 15,
          "midi": 70,
          "name": "A#4",
          "ticks": 74160,
          "time": 115.867584,
          "velocity": 0.5354330708661418
        },
        {
          "duration": 0.023436000000003787,
          "durationTicks": 15,
          "midi": 82,
          "name": "A#5",
          "ticks": 74160,
          "time": 115.867584,
          "velocity": 0.3858267716535433
        },
        {
          "duration": 0.023436000000003787,
          "durationTicks": 15,
          "midi": 44,
          "name": "G#2",
          "ticks": 74280,
          "time": 116.055072,
          "velocity": 0.48031496062992124
        },
        {
          "duration": 0.023436000000003787,
          "durationTicks": 15,
          "midi": 70,
          "name": "A#4",
          "ticks": 74280,
          "time": 116.055072,
          "velocity": 0.44881889763779526
        },
        {
          "duration": 0.023436000000003787,
          "durationTicks": 15,
          "midi": 82,
          "name": "A#5",
          "ticks": 74280,
          "time": 116.055072,
          "velocity": 0.41732283464566927
        },
        {
          "duration": 0.023435999999989576,
          "durationTicks": 15,
          "midi": 37,
          "name": "C#2",
          "ticks": 74400,
          "time": 116.24256,
          "velocity": 0.984251968503937
        },
        {
          "duration": 0.023435999999989576,
          "durationTicks": 15,
          "midi": 44,
          "name": "G#2",
          "ticks": 74400,
          "time": 116.24256,
          "velocity": 0.7086614173228346
        },
        {
          "duration": 0.023435999999989576,
          "durationTicks": 15,
          "midi": 70,
          "name": "A#4",
          "ticks": 74400,
          "time": 116.24256,
          "velocity": 0.7322834645669292
        },
        {
          "duration": 0.023435999999989576,
          "durationTicks": 15,
          "midi": 82,
          "name": "A#5",
          "ticks": 74400,
          "time": 116.24256,
          "velocity": 0.4645669291338583
        },
        {
          "duration": 0.023435999999989576,
          "durationTicks": 15,
          "midi": 70,
          "name": "A#4",
          "ticks": 74520,
          "time": 116.430048,
          "velocity": 0.4645669291338583
        },
        {
          "duration": 0.023436000000003787,
          "durationTicks": 15,
          "midi": 46,
          "name": "A#2",
          "ticks": 74640,
          "time": 116.61753599999999,
          "velocity": 0.6614173228346457
        },
        {
          "duration": 0.023436000000003787,
          "durationTicks": 15,
          "midi": 70,
          "name": "A#4",
          "ticks": 74640,
          "time": 116.61753599999999,
          "velocity": 0.5354330708661418
        },
        {
          "duration": 0.023436000000003787,
          "durationTicks": 15,
          "midi": 82,
          "name": "A#5",
          "ticks": 74640,
          "time": 116.61753599999999,
          "velocity": 0.41732283464566927
        },
        {
          "duration": 0.023436000000003787,
          "durationTicks": 15,
          "midi": 70,
          "name": "A#4",
          "ticks": 74760,
          "time": 116.80502399999999,
          "velocity": 0.44881889763779526
        },
        {
          "duration": 0.023436000000003787,
          "durationTicks": 15,
          "midi": 82,
          "name": "A#5",
          "ticks": 74760,
          "time": 116.80502399999999,
          "velocity": 0.33858267716535434
        },
        {
          "duration": 0.023436000000003787,
          "durationTicks": 15,
          "midi": 35,
          "name": "B1",
          "ticks": 74880,
          "time": 116.99251199999999,
          "velocity": 0.8110236220472441
        },
        {
          "duration": 0.023436000000003787,
          "durationTicks": 15,
          "midi": 44,
          "name": "G#2",
          "ticks": 74880,
          "time": 116.99251199999999,
          "velocity": 0.6929133858267716
        },
        {
          "duration": 0.023436000000003787,
          "durationTicks": 15,
          "midi": 49,
          "name": "C#3",
          "ticks": 74880,
          "time": 116.99251199999999,
          "velocity": 0.4094488188976378
        },
        {
          "duration": 0.023436000000003787,
          "durationTicks": 15,
          "midi": 59,
          "name": "B3",
          "ticks": 74880,
          "time": 116.99251199999999,
          "velocity": 0.889763779527559
        },
        {
          "duration": 0.023436000000003787,
          "durationTicks": 15,
          "midi": 70,
          "name": "A#4",
          "ticks": 74880,
          "time": 116.99251199999999,
          "velocity": 0.7322834645669292
        },
        {
          "duration": 0.023436000000003787,
          "durationTicks": 15,
          "midi": 70,
          "name": "A#4",
          "ticks": 75000,
          "time": 117.17999999999999,
          "velocity": 0.4645669291338583
        },
        {
          "duration": 0.023436000000003787,
          "durationTicks": 15,
          "midi": 44,
          "name": "G#2",
          "ticks": 75120,
          "time": 117.367488,
          "velocity": 0.6062992125984252
        },
        {
          "duration": 0.023436000000003787,
          "durationTicks": 15,
          "midi": 70,
          "name": "A#4",
          "ticks": 75120,
          "time": 117.367488,
          "velocity": 0.5354330708661418
        },
        {
          "duration": 0.023436000000003787,
          "durationTicks": 15,
          "midi": 82,
          "name": "A#5",
          "ticks": 75120,
          "time": 117.367488,
          "velocity": 0.3700787401574803
        },
        {
          "duration": 0.023435999999989576,
          "durationTicks": 15,
          "midi": 70,
          "name": "A#4",
          "ticks": 75240,
          "time": 117.554976,
          "velocity": 0.44881889763779526
        },
        {
          "duration": 0.023435999999989576,
          "durationTicks": 15,
          "midi": 82,
          "name": "A#5",
          "ticks": 75240,
          "time": 117.554976,
          "velocity": 0.3858267716535433
        },
        {
          "duration": 0.023435999999989576,
          "durationTicks": 15,
          "midi": 37,
          "name": "C#2",
          "ticks": 75360,
          "time": 117.742464,
          "velocity": 1
        },
        {
          "duration": 0.023435999999989576,
          "durationTicks": 15,
          "midi": 44,
          "name": "G#2",
          "ticks": 75360,
          "time": 117.742464,
          "velocity": 0.7559055118110236
        },
        {
          "duration": 0.023435999999989576,
          "durationTicks": 15,
          "midi": 70,
          "name": "A#4",
          "ticks": 75360,
          "time": 117.742464,
          "velocity": 0.7322834645669292
        },
        {
          "duration": 0.023435999999989576,
          "durationTicks": 15,
          "midi": 82,
          "name": "A#5",
          "ticks": 75360,
          "time": 117.742464,
          "velocity": 0.49606299212598426
        },
        {
          "duration": 0.023436000000003787,
          "durationTicks": 15,
          "midi": 70,
          "name": "A#4",
          "ticks": 75480,
          "time": 117.92995199999999,
          "velocity": 0.4645669291338583
        },
        {
          "duration": 0.023436000000003787,
          "durationTicks": 15,
          "midi": 44,
          "name": "G#2",
          "ticks": 75600,
          "time": 118.11743999999999,
          "velocity": 0.6141732283464567
        },
        {
          "duration": 0.023436000000003787,
          "durationTicks": 15,
          "midi": 70,
          "name": "A#4",
          "ticks": 75600,
          "time": 118.11743999999999,
          "velocity": 0.5354330708661418
        },
        {
          "duration": 0.023436000000003787,
          "durationTicks": 15,
          "midi": 35,
          "name": "B1",
          "ticks": 75720,
          "time": 118.30492799999999,
          "velocity": 0.8110236220472441
        },
        {
          "duration": 0.023436000000003787,
          "durationTicks": 15,
          "midi": 44,
          "name": "G#2",
          "ticks": 75720,
          "time": 118.30492799999999,
          "velocity": 0.48031496062992124
        },
        {
          "duration": 0.023436000000003787,
          "durationTicks": 15,
          "midi": 70,
          "name": "A#4",
          "ticks": 75720,
          "time": 118.30492799999999,
          "velocity": 0.44881889763779526
        },
        {
          "duration": 0.023436000000003787,
          "durationTicks": 15,
          "midi": 82,
          "name": "A#5",
          "ticks": 75720,
          "time": 118.30492799999999,
          "velocity": 0.33070866141732286
        },
        {
          "duration": 0.023436000000003787,
          "durationTicks": 15,
          "midi": 35,
          "name": "B1",
          "ticks": 75840,
          "time": 118.49241599999999,
          "velocity": 0.8110236220472441
        },
        {
          "duration": 0.023436000000003787,
          "durationTicks": 15,
          "midi": 46,
          "name": "A#2",
          "ticks": 75840,
          "time": 118.49241599999999,
          "velocity": 0.7086614173228346
        },
        {
          "duration": 0.023436000000003787,
          "durationTicks": 15,
          "midi": 70,
          "name": "A#4",
          "ticks": 75840,
          "time": 118.49241599999999,
          "velocity": 0.7322834645669292
        },
        {
          "duration": 0.023436000000003787,
          "durationTicks": 15,
          "midi": 82,
          "name": "A#5",
          "ticks": 75840,
          "time": 118.49241599999999,
          "velocity": 0.33858267716535434
        },
        {
          "duration": 0.023436000000003787,
          "durationTicks": 15,
          "midi": 70,
          "name": "A#4",
          "ticks": 75960,
          "time": 118.679904,
          "velocity": 0.4645669291338583
        },
        {
          "duration": 0.023436000000003787,
          "durationTicks": 15,
          "midi": 46,
          "name": "A#2",
          "ticks": 76080,
          "time": 118.867392,
          "velocity": 0.6850393700787402
        },
        {
          "duration": 0.023436000000003787,
          "durationTicks": 15,
          "midi": 70,
          "name": "A#4",
          "ticks": 76080,
          "time": 118.867392,
          "velocity": 0.5354330708661418
        },
        {
          "duration": 0.023436000000003787,
          "durationTicks": 15,
          "midi": 82,
          "name": "A#5",
          "ticks": 76080,
          "time": 118.867392,
          "velocity": 0.3858267716535433
        },
        {
          "duration": 0.023435999999989576,
          "durationTicks": 15,
          "midi": 70,
          "name": "A#4",
          "ticks": 76200,
          "time": 119.05488,
          "velocity": 0.44881889763779526
        },
        {
          "duration": 0.023435999999989576,
          "durationTicks": 15,
          "midi": 82,
          "name": "A#5",
          "ticks": 76200,
          "time": 119.05488,
          "velocity": 0.41732283464566927
        },
        {
          "duration": 0.023435999999989576,
          "durationTicks": 15,
          "midi": 37,
          "name": "C#2",
          "ticks": 76320,
          "time": 119.242368,
          "velocity": 0.984251968503937
        },
        {
          "duration": 0.023435999999989576,
          "durationTicks": 15,
          "midi": 44,
          "name": "G#2",
          "ticks": 76320,
          "time": 119.242368,
          "velocity": 0.7086614173228346
        },
        {
          "duration": 0.023435999999989576,
          "durationTicks": 15,
          "midi": 70,
          "name": "A#4",
          "ticks": 76320,
          "time": 119.242368,
          "velocity": 0.7322834645669292
        },
        {
          "duration": 0.023435999999989576,
          "durationTicks": 15,
          "midi": 82,
          "name": "A#5",
          "ticks": 76320,
          "time": 119.242368,
          "velocity": 0.4645669291338583
        },
        {
          "duration": 0.023436000000003787,
          "durationTicks": 15,
          "midi": 45,
          "name": "A2",
          "ticks": 76440,
          "time": 119.42985599999999,
          "velocity": 0.7007874015748031
        },
        {
          "duration": 0.023436000000003787,
          "durationTicks": 15,
          "midi": 70,
          "name": "A#4",
          "ticks": 76440,
          "time": 119.42985599999999,
          "velocity": 0.4645669291338583
        },
        {
          "duration": 0.023436000000003787,
          "durationTicks": 15,
          "midi": 35,
          "name": "B1",
          "ticks": 76560,
          "time": 119.61734399999999,
          "velocity": 0.8110236220472441
        },
        {
          "duration": 0.023436000000003787,
          "durationTicks": 15,
          "midi": 45,
          "name": "A2",
          "ticks": 76560,
          "time": 119.61734399999999,
          "velocity": 0.6850393700787402
        },
        {
          "duration": 0.023436000000003787,
          "durationTicks": 15,
          "midi": 46,
          "name": "A#2",
          "ticks": 76560,
          "time": 119.61734399999999,
          "velocity": 0.6614173228346457
        },
        {
          "duration": 0.023436000000003787,
          "durationTicks": 15,
          "midi": 59,
          "name": "B3",
          "ticks": 76560,
          "time": 119.61734399999999,
          "velocity": 0.6535433070866141
        },
        {
          "duration": 0.023436000000003787,
          "durationTicks": 15,
          "midi": 70,
          "name": "A#4",
          "ticks": 76560,
          "time": 119.61734399999999,
          "velocity": 0.5354330708661418
        },
        {
          "duration": 0.023436000000003787,
          "durationTicks": 15,
          "midi": 82,
          "name": "A#5",
          "ticks": 76560,
          "time": 119.61734399999999,
          "velocity": 0.41732283464566927
        },
        {
          "duration": 0.023436000000003787,
          "durationTicks": 15,
          "midi": 70,
          "name": "A#4",
          "ticks": 76680,
          "time": 119.80483199999999,
          "velocity": 0.44881889763779526
        },
        {
          "duration": 0.023436000000003787,
          "durationTicks": 15,
          "midi": 82,
          "name": "A#5",
          "ticks": 76680,
          "time": 119.80483199999999,
          "velocity": 0.33858267716535434
        },
        {
          "duration": 0.023436000000003787,
          "durationTicks": 15,
          "midi": 35,
          "name": "B1",
          "ticks": 76800,
          "time": 119.99231999999999,
          "velocity": 0.952755905511811
        },
        {
          "duration": 0.023436000000003787,
          "durationTicks": 15,
          "midi": 44,
          "name": "G#2",
          "ticks": 76800,
          "time": 119.99231999999999,
          "velocity": 0.7559055118110236
        },
        {
          "duration": 0.023436000000003787,
          "durationTicks": 15,
          "midi": 49,
          "name": "C#3",
          "ticks": 76800,
          "time": 119.99231999999999,
          "velocity": 0.4645669291338583
        },
        {
          "duration": 0.023436000000003787,
          "durationTicks": 15,
          "midi": 59,
          "name": "B3",
          "ticks": 76800,
          "time": 119.99231999999999,
          "velocity": 0.889763779527559
        },
        {
          "duration": 0.023436000000003787,
          "durationTicks": 15,
          "midi": 70,
          "name": "A#4",
          "ticks": 76800,
          "time": 119.99231999999999,
          "velocity": 0.7322834645669292
        },
        {
          "duration": 0.023436000000003787,
          "durationTicks": 15,
          "midi": 44,
          "name": "G#2",
          "ticks": 76920,
          "time": 120.179808,
          "velocity": 0.4094488188976378
        },
        {
          "duration": 0.023436000000003787,
          "durationTicks": 15,
          "midi": 70,
          "name": "A#4",
          "ticks": 76920,
          "time": 120.179808,
          "velocity": 0.4645669291338583
        },
        {
          "duration": 0.023435999999989576,
          "durationTicks": 15,
          "midi": 44,
          "name": "G#2",
          "ticks": 77040,
          "time": 120.367296,
          "velocity": 0.6299212598425197
        },
        {
          "duration": 0.023435999999989576,
          "durationTicks": 15,
          "midi": 70,
          "name": "A#4",
          "ticks": 77040,
          "time": 120.367296,
          "velocity": 0.5354330708661418
        },
        {
          "duration": 0.023435999999989576,
          "durationTicks": 15,
          "midi": 82,
          "name": "A#5",
          "ticks": 77040,
          "time": 120.367296,
          "velocity": 0.3700787401574803
        },
        {
          "duration": 0.023435999999989576,
          "durationTicks": 15,
          "midi": 44,
          "name": "G#2",
          "ticks": 77160,
          "time": 120.554784,
          "velocity": 0.48031496062992124
        },
        {
          "duration": 0.023435999999989576,
          "durationTicks": 15,
          "midi": 70,
          "name": "A#4",
          "ticks": 77160,
          "time": 120.554784,
          "velocity": 0.44881889763779526
        },
        {
          "duration": 0.023435999999989576,
          "durationTicks": 15,
          "midi": 82,
          "name": "A#5",
          "ticks": 77160,
          "time": 120.554784,
          "velocity": 0.3858267716535433
        },
        {
          "duration": 0.023436000000003787,
          "durationTicks": 15,
          "midi": 37,
          "name": "C#2",
          "ticks": 77280,
          "time": 120.74227199999999,
          "velocity": 1
        },
        {
          "duration": 0.023436000000003787,
          "durationTicks": 15,
          "midi": 44,
          "name": "G#2",
          "ticks": 77280,
          "time": 120.74227199999999,
          "velocity": 0.7716535433070866
        },
        {
          "duration": 0.023436000000003787,
          "durationTicks": 15,
          "midi": 70,
          "name": "A#4",
          "ticks": 77280,
          "time": 120.74227199999999,
          "velocity": 0.7322834645669292
        },
        {
          "duration": 0.023436000000003787,
          "durationTicks": 15,
          "midi": 82,
          "name": "A#5",
          "ticks": 77280,
          "time": 120.74227199999999,
          "velocity": 0.49606299212598426
        },
        {
          "duration": 0.023436000000003787,
          "durationTicks": 15,
          "midi": 44,
          "name": "G#2",
          "ticks": 77400,
          "time": 120.92975999999999,
          "velocity": 0.49606299212598426
        },
        {
          "duration": 0.023436000000003787,
          "durationTicks": 15,
          "midi": 70,
          "name": "A#4",
          "ticks": 77400,
          "time": 120.92975999999999,
          "velocity": 0.4645669291338583
        },
        {
          "duration": 0.023436000000003787,
          "durationTicks": 15,
          "midi": 35,
          "name": "B1",
          "ticks": 77520,
          "time": 121.11724799999999,
          "velocity": 0.6850393700787402
        },
        {
          "duration": 0.023436000000003787,
          "durationTicks": 15,
          "midi": 44,
          "name": "G#2",
          "ticks": 77520,
          "time": 121.11724799999999,
          "velocity": 0.6141732283464567
        },
        {
          "duration": 0.023436000000003787,
          "durationTicks": 15,
          "midi": 70,
          "name": "A#4",
          "ticks": 77520,
          "time": 121.11724799999999,
          "velocity": 0.5354330708661418
        },
        {
          "duration": 0.023436000000003787,
          "durationTicks": 15,
          "midi": 35,
          "name": "B1",
          "ticks": 77640,
          "time": 121.30473599999999,
          "velocity": 0.6850393700787402
        },
        {
          "duration": 0.023436000000003787,
          "durationTicks": 15,
          "midi": 44,
          "name": "G#2",
          "ticks": 77640,
          "time": 121.30473599999999,
          "velocity": 0.48031496062992124
        },
        {
          "duration": 0.023436000000003787,
          "durationTicks": 15,
          "midi": 70,
          "name": "A#4",
          "ticks": 77640,
          "time": 121.30473599999999,
          "velocity": 0.44881889763779526
        },
        {
          "duration": 0.023436000000003787,
          "durationTicks": 15,
          "midi": 82,
          "name": "A#5",
          "ticks": 77640,
          "time": 121.30473599999999,
          "velocity": 0.33070866141732286
        },
        {
          "duration": 0.023436000000003787,
          "durationTicks": 15,
          "midi": 35,
          "name": "B1",
          "ticks": 77760,
          "time": 121.492224,
          "velocity": 0.8110236220472441
        },
        {
          "duration": 0.023436000000003787,
          "durationTicks": 15,
          "midi": 44,
          "name": "G#2",
          "ticks": 77760,
          "time": 121.492224,
          "velocity": 0.7559055118110236
        },
        {
          "duration": 0.023436000000003787,
          "durationTicks": 15,
          "midi": 70,
          "name": "A#4",
          "ticks": 77760,
          "time": 121.492224,
          "velocity": 0.7322834645669292
        },
        {
          "duration": 0.023436000000003787,
          "durationTicks": 15,
          "midi": 82,
          "name": "A#5",
          "ticks": 77760,
          "time": 121.492224,
          "velocity": 0.33858267716535434
        },
        {
          "duration": 0.023436000000003787,
          "durationTicks": 15,
          "midi": 44,
          "name": "G#2",
          "ticks": 77880,
          "time": 121.679712,
          "velocity": 0.4094488188976378
        },
        {
          "duration": 0.023436000000003787,
          "durationTicks": 15,
          "midi": 70,
          "name": "A#4",
          "ticks": 77880,
          "time": 121.679712,
          "velocity": 0.4645669291338583
        },
        {
          "duration": 0.023435999999989576,
          "durationTicks": 15,
          "midi": 44,
          "name": "G#2",
          "ticks": 78000,
          "time": 121.8672,
          "velocity": 0.6299212598425197
        },
        {
          "duration": 0.023435999999989576,
          "durationTicks": 15,
          "midi": 70,
          "name": "A#4",
          "ticks": 78000,
          "time": 121.8672,
          "velocity": 0.5354330708661418
        },
        {
          "duration": 0.023435999999989576,
          "durationTicks": 15,
          "midi": 82,
          "name": "A#5",
          "ticks": 78000,
          "time": 121.8672,
          "velocity": 0.3858267716535433
        },
        {
          "duration": 0.023435999999989576,
          "durationTicks": 15,
          "midi": 44,
          "name": "G#2",
          "ticks": 78120,
          "time": 122.054688,
          "velocity": 0.48031496062992124
        },
        {
          "duration": 0.023435999999989576,
          "durationTicks": 15,
          "midi": 70,
          "name": "A#4",
          "ticks": 78120,
          "time": 122.054688,
          "velocity": 0.44881889763779526
        },
        {
          "duration": 0.023435999999989576,
          "durationTicks": 15,
          "midi": 82,
          "name": "A#5",
          "ticks": 78120,
          "time": 122.054688,
          "velocity": 0.41732283464566927
        },
        {
          "duration": 0.023436000000003787,
          "durationTicks": 15,
          "midi": 37,
          "name": "C#2",
          "ticks": 78240,
          "time": 122.24217599999999,
          "velocity": 0.984251968503937
        },
        {
          "duration": 0.023436000000003787,
          "durationTicks": 15,
          "midi": 44,
          "name": "G#2",
          "ticks": 78240,
          "time": 122.24217599999999,
          "velocity": 0.7716535433070866
        },
        {
          "duration": 0.023436000000003787,
          "durationTicks": 15,
          "midi": 70,
          "name": "A#4",
          "ticks": 78240,
          "time": 122.24217599999999,
          "velocity": 0.7322834645669292
        },
        {
          "duration": 0.023436000000003787,
          "durationTicks": 15,
          "midi": 82,
          "name": "A#5",
          "ticks": 78240,
          "time": 122.24217599999999,
          "velocity": 0.4645669291338583
        },
        {
          "duration": 0.023436000000003787,
          "durationTicks": 15,
          "midi": 44,
          "name": "G#2",
          "ticks": 78360,
          "time": 122.42966399999999,
          "velocity": 0.49606299212598426
        },
        {
          "duration": 0.023436000000003787,
          "durationTicks": 15,
          "midi": 70,
          "name": "A#4",
          "ticks": 78360,
          "time": 122.42966399999999,
          "velocity": 0.4645669291338583
        },
        {
          "duration": 0.023436000000003787,
          "durationTicks": 15,
          "midi": 46,
          "name": "A#2",
          "ticks": 78480,
          "time": 122.61715199999999,
          "velocity": 0.6614173228346457
        },
        {
          "duration": 0.023436000000003787,
          "durationTicks": 15,
          "midi": 70,
          "name": "A#4",
          "ticks": 78480,
          "time": 122.61715199999999,
          "velocity": 0.5354330708661418
        },
        {
          "duration": 0.023436000000003787,
          "durationTicks": 15,
          "midi": 82,
          "name": "A#5",
          "ticks": 78480,
          "time": 122.61715199999999,
          "velocity": 0.41732283464566927
        },
        {
          "duration": 0.023436000000003787,
          "durationTicks": 15,
          "midi": 70,
          "name": "A#4",
          "ticks": 78600,
          "time": 122.80463999999999,
          "velocity": 0.44881889763779526
        },
        {
          "duration": 0.023436000000003787,
          "durationTicks": 15,
          "midi": 82,
          "name": "A#5",
          "ticks": 78600,
          "time": 122.80463999999999,
          "velocity": 0.33858267716535434
        },
        {
          "duration": 0.023436000000003787,
          "durationTicks": 15,
          "midi": 35,
          "name": "B1",
          "ticks": 78720,
          "time": 122.992128,
          "velocity": 0.8110236220472441
        },
        {
          "duration": 0.023436000000003787,
          "durationTicks": 15,
          "midi": 44,
          "name": "G#2",
          "ticks": 78720,
          "time": 122.992128,
          "velocity": 0.7559055118110236
        },
        {
          "duration": 0.023436000000003787,
          "durationTicks": 15,
          "midi": 70,
          "name": "A#4",
          "ticks": 78720,
          "time": 122.992128,
          "velocity": 0.7322834645669292
        },
        {
          "duration": 0.023435999999989576,
          "durationTicks": 15,
          "midi": 44,
          "name": "G#2",
          "ticks": 78840,
          "time": 123.179616,
          "velocity": 0.4094488188976378
        },
        {
          "duration": 0.023435999999989576,
          "durationTicks": 15,
          "midi": 70,
          "name": "A#4",
          "ticks": 78840,
          "time": 123.179616,
          "velocity": 0.4645669291338583
        },
        {
          "duration": 0.023435999999989576,
          "durationTicks": 15,
          "midi": 44,
          "name": "G#2",
          "ticks": 78960,
          "time": 123.367104,
          "velocity": 0.6299212598425197
        },
        {
          "duration": 0.023435999999989576,
          "durationTicks": 15,
          "midi": 70,
          "name": "A#4",
          "ticks": 78960,
          "time": 123.367104,
          "velocity": 0.5354330708661418
        },
        {
          "duration": 0.023435999999989576,
          "durationTicks": 15,
          "midi": 82,
          "name": "A#5",
          "ticks": 78960,
          "time": 123.367104,
          "velocity": 0.3700787401574803
        },
        {
          "duration": 0.023436000000003787,
          "durationTicks": 15,
          "midi": 44,
          "name": "G#2",
          "ticks": 79080,
          "time": 123.55459199999999,
          "velocity": 0.48031496062992124
        },
        {
          "duration": 0.023436000000003787,
          "durationTicks": 15,
          "midi": 70,
          "name": "A#4",
          "ticks": 79080,
          "time": 123.55459199999999,
          "velocity": 0.44881889763779526
        },
        {
          "duration": 0.023436000000003787,
          "durationTicks": 15,
          "midi": 82,
          "name": "A#5",
          "ticks": 79080,
          "time": 123.55459199999999,
          "velocity": 0.3858267716535433
        },
        {
          "duration": 0.023436000000003787,
          "durationTicks": 15,
          "midi": 37,
          "name": "C#2",
          "ticks": 79200,
          "time": 123.74207999999999,
          "velocity": 1
        },
        {
          "duration": 0.023436000000003787,
          "durationTicks": 15,
          "midi": 44,
          "name": "G#2",
          "ticks": 79200,
          "time": 123.74207999999999,
          "velocity": 0.7716535433070866
        },
        {
          "duration": 0.023436000000003787,
          "durationTicks": 15,
          "midi": 70,
          "name": "A#4",
          "ticks": 79200,
          "time": 123.74207999999999,
          "velocity": 0.7322834645669292
        },
        {
          "duration": 0.023436000000003787,
          "durationTicks": 15,
          "midi": 82,
          "name": "A#5",
          "ticks": 79200,
          "time": 123.74207999999999,
          "velocity": 0.49606299212598426
        },
        {
          "duration": 0.023436000000003787,
          "durationTicks": 15,
          "midi": 44,
          "name": "G#2",
          "ticks": 79320,
          "time": 123.92956799999999,
          "velocity": 0.49606299212598426
        },
        {
          "duration": 0.023436000000003787,
          "durationTicks": 15,
          "midi": 70,
          "name": "A#4",
          "ticks": 79320,
          "time": 123.92956799999999,
          "velocity": 0.4645669291338583
        },
        {
          "duration": 0.023436000000003787,
          "durationTicks": 15,
          "midi": 35,
          "name": "B1",
          "ticks": 79440,
          "time": 124.11705599999999,
          "velocity": 0.7952755905511811
        },
        {
          "duration": 0.023436000000003787,
          "durationTicks": 15,
          "midi": 44,
          "name": "G#2",
          "ticks": 79440,
          "time": 124.11705599999999,
          "velocity": 0.6141732283464567
        },
        {
          "duration": 0.023436000000003787,
          "durationTicks": 15,
          "midi": 70,
          "name": "A#4",
          "ticks": 79440,
          "time": 124.11705599999999,
          "velocity": 0.5354330708661418
        },
        {
          "duration": 0.023436000000003787,
          "durationTicks": 15,
          "midi": 44,
          "name": "G#2",
          "ticks": 79560,
          "time": 124.30454399999999,
          "velocity": 0.48031496062992124
        },
        {
          "duration": 0.023436000000003787,
          "durationTicks": 15,
          "midi": 70,
          "name": "A#4",
          "ticks": 79560,
          "time": 124.30454399999999,
          "velocity": 0.44881889763779526
        },
        {
          "duration": 0.023436000000003787,
          "durationTicks": 15,
          "midi": 82,
          "name": "A#5",
          "ticks": 79560,
          "time": 124.30454399999999,
          "velocity": 0.33070866141732286
        },
        {
          "duration": 0.023436000000003787,
          "durationTicks": 15,
          "midi": 35,
          "name": "B1",
          "ticks": 79680,
          "time": 124.492032,
          "velocity": 0.8110236220472441
        },
        {
          "duration": 0.023436000000003787,
          "durationTicks": 15,
          "midi": 44,
          "name": "G#2",
          "ticks": 79680,
          "time": 124.492032,
          "velocity": 0.7559055118110236
        },
        {
          "duration": 0.023436000000003787,
          "durationTicks": 15,
          "midi": 70,
          "name": "A#4",
          "ticks": 79680,
          "time": 124.492032,
          "velocity": 0.7322834645669292
        },
        {
          "duration": 0.023436000000003787,
          "durationTicks": 15,
          "midi": 82,
          "name": "A#5",
          "ticks": 79680,
          "time": 124.492032,
          "velocity": 0.33858267716535434
        },
        {
          "duration": 0.023435999999989576,
          "durationTicks": 15,
          "midi": 44,
          "name": "G#2",
          "ticks": 79800,
          "time": 124.67952,
          "velocity": 0.4094488188976378
        },
        {
          "duration": 0.023435999999989576,
          "durationTicks": 15,
          "midi": 70,
          "name": "A#4",
          "ticks": 79800,
          "time": 124.67952,
          "velocity": 0.4645669291338583
        },
        {
          "duration": 0.023435999999989576,
          "durationTicks": 15,
          "midi": 44,
          "name": "G#2",
          "ticks": 79920,
          "time": 124.867008,
          "velocity": 0.6299212598425197
        },
        {
          "duration": 0.023435999999989576,
          "durationTicks": 15,
          "midi": 70,
          "name": "A#4",
          "ticks": 79920,
          "time": 124.867008,
          "velocity": 0.5354330708661418
        },
        {
          "duration": 0.023435999999989576,
          "durationTicks": 15,
          "midi": 82,
          "name": "A#5",
          "ticks": 79920,
          "time": 124.867008,
          "velocity": 0.3858267716535433
        },
        {
          "duration": 0.023436000000003787,
          "durationTicks": 15,
          "midi": 44,
          "name": "G#2",
          "ticks": 80040,
          "time": 125.05449599999999,
          "velocity": 0.48031496062992124
        },
        {
          "duration": 0.023436000000003787,
          "durationTicks": 15,
          "midi": 70,
          "name": "A#4",
          "ticks": 80040,
          "time": 125.05449599999999,
          "velocity": 0.44881889763779526
        },
        {
          "duration": 0.023436000000003787,
          "durationTicks": 15,
          "midi": 82,
          "name": "A#5",
          "ticks": 80040,
          "time": 125.05449599999999,
          "velocity": 0.41732283464566927
        },
        {
          "duration": 0.023436000000003787,
          "durationTicks": 15,
          "midi": 37,
          "name": "C#2",
          "ticks": 80160,
          "time": 125.24198399999999,
          "velocity": 0.984251968503937
        },
        {
          "duration": 0.023436000000003787,
          "durationTicks": 15,
          "midi": 44,
          "name": "G#2",
          "ticks": 80160,
          "time": 125.24198399999999,
          "velocity": 0.7716535433070866
        },
        {
          "duration": 0.023436000000003787,
          "durationTicks": 15,
          "midi": 70,
          "name": "A#4",
          "ticks": 80160,
          "time": 125.24198399999999,
          "velocity": 0.7322834645669292
        },
        {
          "duration": 0.023436000000003787,
          "durationTicks": 15,
          "midi": 82,
          "name": "A#5",
          "ticks": 80160,
          "time": 125.24198399999999,
          "velocity": 0.4645669291338583
        },
        {
          "duration": 0.023436000000003787,
          "durationTicks": 15,
          "midi": 44,
          "name": "G#2",
          "ticks": 80280,
          "time": 125.42947199999999,
          "velocity": 0.49606299212598426
        },
        {
          "duration": 0.023436000000003787,
          "durationTicks": 15,
          "midi": 70,
          "name": "A#4",
          "ticks": 80280,
          "time": 125.42947199999999,
          "velocity": 0.4645669291338583
        },
        {
          "duration": 0.023436000000003787,
          "durationTicks": 15,
          "midi": 46,
          "name": "A#2",
          "ticks": 80400,
          "time": 125.61695999999999,
          "velocity": 0.6614173228346457
        },
        {
          "duration": 0.023436000000003787,
          "durationTicks": 15,
          "midi": 70,
          "name": "A#4",
          "ticks": 80400,
          "time": 125.61695999999999,
          "velocity": 0.5354330708661418
        },
        {
          "duration": 0.023436000000003787,
          "durationTicks": 15,
          "midi": 82,
          "name": "A#5",
          "ticks": 80400,
          "time": 125.61695999999999,
          "velocity": 0.41732283464566927
        },
        {
          "duration": 0.023436000000003787,
          "durationTicks": 15,
          "midi": 35,
          "name": "B1",
          "ticks": 80520,
          "time": 125.804448,
          "velocity": 0.8110236220472441
        },
        {
          "duration": 0.023436000000003787,
          "durationTicks": 15,
          "midi": 70,
          "name": "A#4",
          "ticks": 80520,
          "time": 125.804448,
          "velocity": 0.44881889763779526
        },
        {
          "duration": 0.023436000000003787,
          "durationTicks": 15,
          "midi": 82,
          "name": "A#5",
          "ticks": 80520,
          "time": 125.804448,
          "velocity": 0.33858267716535434
        },
        {
          "duration": 0.023435999999989576,
          "durationTicks": 15,
          "midi": 35,
          "name": "B1",
          "ticks": 80640,
          "time": 125.991936,
          "velocity": 0.8110236220472441
        },
        {
          "duration": 0.023435999999989576,
          "durationTicks": 15,
          "midi": 44,
          "name": "G#2",
          "ticks": 80640,
          "time": 125.991936,
          "velocity": 0.7559055118110236
        },
        {
          "duration": 0.023435999999989576,
          "durationTicks": 15,
          "midi": 70,
          "name": "A#4",
          "ticks": 80640,
          "time": 125.991936,
          "velocity": 0.7322834645669292
        },
        {
          "duration": 0.023435999999989576,
          "durationTicks": 15,
          "midi": 44,
          "name": "G#2",
          "ticks": 80760,
          "time": 126.179424,
          "velocity": 0.4094488188976378
        },
        {
          "duration": 0.023435999999989576,
          "durationTicks": 15,
          "midi": 70,
          "name": "A#4",
          "ticks": 80760,
          "time": 126.179424,
          "velocity": 0.4645669291338583
        },
        {
          "duration": 0.023436000000003787,
          "durationTicks": 15,
          "midi": 44,
          "name": "G#2",
          "ticks": 80880,
          "time": 126.36691199999999,
          "velocity": 0.6299212598425197
        },
        {
          "duration": 0.023436000000003787,
          "durationTicks": 15,
          "midi": 70,
          "name": "A#4",
          "ticks": 80880,
          "time": 126.36691199999999,
          "velocity": 0.5354330708661418
        },
        {
          "duration": 0.023436000000003787,
          "durationTicks": 15,
          "midi": 82,
          "name": "A#5",
          "ticks": 80880,
          "time": 126.36691199999999,
          "velocity": 0.3700787401574803
        },
        {
          "duration": 0.023436000000003787,
          "durationTicks": 15,
          "midi": 44,
          "name": "G#2",
          "ticks": 81000,
          "time": 126.55439999999999,
          "velocity": 0.48031496062992124
        },
        {
          "duration": 0.023436000000003787,
          "durationTicks": 15,
          "midi": 70,
          "name": "A#4",
          "ticks": 81000,
          "time": 126.55439999999999,
          "velocity": 0.44881889763779526
        },
        {
          "duration": 0.023436000000003787,
          "durationTicks": 15,
          "midi": 82,
          "name": "A#5",
          "ticks": 81000,
          "time": 126.55439999999999,
          "velocity": 0.3858267716535433
        },
        {
          "duration": 0.023436000000003787,
          "durationTicks": 15,
          "midi": 37,
          "name": "C#2",
          "ticks": 81120,
          "time": 126.74188799999999,
          "velocity": 1
        },
        {
          "duration": 0.023436000000003787,
          "durationTicks": 15,
          "midi": 44,
          "name": "G#2",
          "ticks": 81120,
          "time": 126.74188799999999,
          "velocity": 0.7716535433070866
        },
        {
          "duration": 0.023436000000003787,
          "durationTicks": 15,
          "midi": 70,
          "name": "A#4",
          "ticks": 81120,
          "time": 126.74188799999999,
          "velocity": 0.7322834645669292
        },
        {
          "duration": 0.023436000000003787,
          "durationTicks": 15,
          "midi": 82,
          "name": "A#5",
          "ticks": 81120,
          "time": 126.74188799999999,
          "velocity": 0.49606299212598426
        },
        {
          "duration": 0.023436000000003787,
          "durationTicks": 15,
          "midi": 44,
          "name": "G#2",
          "ticks": 81240,
          "time": 126.92937599999999,
          "velocity": 0.49606299212598426
        },
        {
          "duration": 0.023436000000003787,
          "durationTicks": 15,
          "midi": 70,
          "name": "A#4",
          "ticks": 81240,
          "time": 126.92937599999999,
          "velocity": 0.4645669291338583
        },
        {
          "duration": 0.023436000000003787,
          "durationTicks": 15,
          "midi": 35,
          "name": "B1",
          "ticks": 81360,
          "time": 127.11686399999999,
          "velocity": 0.6850393700787402
        },
        {
          "duration": 0.023436000000003787,
          "durationTicks": 15,
          "midi": 44,
          "name": "G#2",
          "ticks": 81360,
          "time": 127.11686399999999,
          "velocity": 0.6141732283464567
        },
        {
          "duration": 0.023436000000003787,
          "durationTicks": 15,
          "midi": 70,
          "name": "A#4",
          "ticks": 81360,
          "time": 127.11686399999999,
          "velocity": 0.5354330708661418
        },
        {
          "duration": 0.023436000000003787,
          "durationTicks": 15,
          "midi": 35,
          "name": "B1",
          "ticks": 81480,
          "time": 127.304352,
          "velocity": 0.6850393700787402
        },
        {
          "duration": 0.023436000000003787,
          "durationTicks": 15,
          "midi": 44,
          "name": "G#2",
          "ticks": 81480,
          "time": 127.304352,
          "velocity": 0.48031496062992124
        },
        {
          "duration": 0.023436000000003787,
          "durationTicks": 15,
          "midi": 70,
          "name": "A#4",
          "ticks": 81480,
          "time": 127.304352,
          "velocity": 0.44881889763779526
        },
        {
          "duration": 0.023436000000003787,
          "durationTicks": 15,
          "midi": 82,
          "name": "A#5",
          "ticks": 81480,
          "time": 127.304352,
          "velocity": 0.33070866141732286
        },
        {
          "duration": 0.023435999999989576,
          "durationTicks": 15,
          "midi": 35,
          "name": "B1",
          "ticks": 81600,
          "time": 127.49184,
          "velocity": 0.8110236220472441
        },
        {
          "duration": 0.023435999999989576,
          "durationTicks": 15,
          "midi": 44,
          "name": "G#2",
          "ticks": 81600,
          "time": 127.49184,
          "velocity": 0.7559055118110236
        },
        {
          "duration": 0.023435999999989576,
          "durationTicks": 15,
          "midi": 70,
          "name": "A#4",
          "ticks": 81600,
          "time": 127.49184,
          "velocity": 0.7322834645669292
        },
        {
          "duration": 0.023435999999989576,
          "durationTicks": 15,
          "midi": 82,
          "name": "A#5",
          "ticks": 81600,
          "time": 127.49184,
          "velocity": 0.33858267716535434
        },
        {
          "duration": 0.023435999999989576,
          "durationTicks": 15,
          "midi": 44,
          "name": "G#2",
          "ticks": 81720,
          "time": 127.679328,
          "velocity": 0.4094488188976378
        },
        {
          "duration": 0.023435999999989576,
          "durationTicks": 15,
          "midi": 70,
          "name": "A#4",
          "ticks": 81720,
          "time": 127.679328,
          "velocity": 0.4645669291338583
        },
        {
          "duration": 0.023436000000003787,
          "durationTicks": 15,
          "midi": 44,
          "name": "G#2",
          "ticks": 81840,
          "time": 127.86681599999999,
          "velocity": 0.6299212598425197
        },
        {
          "duration": 0.023436000000003787,
          "durationTicks": 15,
          "midi": 70,
          "name": "A#4",
          "ticks": 81840,
          "time": 127.86681599999999,
          "velocity": 0.5354330708661418
        },
        {
          "duration": 0.023436000000003787,
          "durationTicks": 15,
          "midi": 82,
          "name": "A#5",
          "ticks": 81840,
          "time": 127.86681599999999,
          "velocity": 0.3858267716535433
        },
        {
          "duration": 0.023436000000003787,
          "durationTicks": 15,
          "midi": 44,
          "name": "G#2",
          "ticks": 81960,
          "time": 128.054304,
          "velocity": 0.48031496062992124
        },
        {
          "duration": 0.023436000000003787,
          "durationTicks": 15,
          "midi": 70,
          "name": "A#4",
          "ticks": 81960,
          "time": 128.054304,
          "velocity": 0.44881889763779526
        },
        {
          "duration": 0.023436000000003787,
          "durationTicks": 15,
          "midi": 82,
          "name": "A#5",
          "ticks": 81960,
          "time": 128.054304,
          "velocity": 0.41732283464566927
        },
        {
          "duration": 0.023435999999975365,
          "durationTicks": 15,
          "midi": 37,
          "name": "C#2",
          "ticks": 82080,
          "time": 128.241792,
          "velocity": 0.984251968503937
        },
        {
          "duration": 0.023435999999975365,
          "durationTicks": 15,
          "midi": 44,
          "name": "G#2",
          "ticks": 82080,
          "time": 128.241792,
          "velocity": 0.7716535433070866
        },
        {
          "duration": 0.023435999999975365,
          "durationTicks": 15,
          "midi": 70,
          "name": "A#4",
          "ticks": 82080,
          "time": 128.241792,
          "velocity": 0.7322834645669292
        },
        {
          "duration": 0.023435999999975365,
          "durationTicks": 15,
          "midi": 82,
          "name": "A#5",
          "ticks": 82080,
          "time": 128.241792,
          "velocity": 0.4645669291338583
        },
        {
          "duration": 0.023435999999975365,
          "durationTicks": 15,
          "midi": 44,
          "name": "G#2",
          "ticks": 82200,
          "time": 128.42928,
          "velocity": 0.49606299212598426
        },
        {
          "duration": 0.023435999999975365,
          "durationTicks": 15,
          "midi": 70,
          "name": "A#4",
          "ticks": 82200,
          "time": 128.42928,
          "velocity": 0.4645669291338583
        },
        {
          "duration": 0.023436000000003787,
          "durationTicks": 15,
          "midi": 46,
          "name": "A#2",
          "ticks": 82320,
          "time": 128.61676799999998,
          "velocity": 0.6614173228346457
        },
        {
          "duration": 0.023436000000003787,
          "durationTicks": 15,
          "midi": 70,
          "name": "A#4",
          "ticks": 82320,
          "time": 128.61676799999998,
          "velocity": 0.5354330708661418
        },
        {
          "duration": 0.023436000000003787,
          "durationTicks": 15,
          "midi": 82,
          "name": "A#5",
          "ticks": 82320,
          "time": 128.61676799999998,
          "velocity": 0.41732283464566927
        },
        {
          "duration": 0.023436000000003787,
          "durationTicks": 15,
          "midi": 70,
          "name": "A#4",
          "ticks": 82440,
          "time": 128.80425599999998,
          "velocity": 0.44881889763779526
        },
        {
          "duration": 0.023436000000003787,
          "durationTicks": 15,
          "midi": 82,
          "name": "A#5",
          "ticks": 82440,
          "time": 128.80425599999998,
          "velocity": 0.33858267716535434
        },
        {
          "duration": 0.023436000000003787,
          "durationTicks": 15,
          "midi": 35,
          "name": "B1",
          "ticks": 82560,
          "time": 128.99174399999998,
          "velocity": 0.8110236220472441
        },
        {
          "duration": 0.023436000000003787,
          "durationTicks": 15,
          "midi": 44,
          "name": "G#2",
          "ticks": 82560,
          "time": 128.99174399999998,
          "velocity": 0.7559055118110236
        },
        {
          "duration": 0.023436000000003787,
          "durationTicks": 15,
          "midi": 70,
          "name": "A#4",
          "ticks": 82560,
          "time": 128.99174399999998,
          "velocity": 0.7322834645669292
        },
        {
          "duration": 0.023436000000003787,
          "durationTicks": 15,
          "midi": 44,
          "name": "G#2",
          "ticks": 82680,
          "time": 129.17923199999998,
          "velocity": 0.4094488188976378
        },
        {
          "duration": 0.023436000000003787,
          "durationTicks": 15,
          "midi": 70,
          "name": "A#4",
          "ticks": 82680,
          "time": 129.17923199999998,
          "velocity": 0.4645669291338583
        },
        {
          "duration": 0.023436000000003787,
          "durationTicks": 15,
          "midi": 44,
          "name": "G#2",
          "ticks": 82800,
          "time": 129.36672,
          "velocity": 0.6299212598425197
        },
        {
          "duration": 0.023436000000003787,
          "durationTicks": 15,
          "midi": 70,
          "name": "A#4",
          "ticks": 82800,
          "time": 129.36672,
          "velocity": 0.5354330708661418
        },
        {
          "duration": 0.023436000000003787,
          "durationTicks": 15,
          "midi": 82,
          "name": "A#5",
          "ticks": 82800,
          "time": 129.36672,
          "velocity": 0.3700787401574803
        },
        {
          "duration": 0.023436000000003787,
          "durationTicks": 15,
          "midi": 44,
          "name": "G#2",
          "ticks": 82920,
          "time": 129.554208,
          "velocity": 0.48031496062992124
        },
        {
          "duration": 0.023436000000003787,
          "durationTicks": 15,
          "midi": 70,
          "name": "A#4",
          "ticks": 82920,
          "time": 129.554208,
          "velocity": 0.44881889763779526
        },
        {
          "duration": 0.023436000000003787,
          "durationTicks": 15,
          "midi": 82,
          "name": "A#5",
          "ticks": 82920,
          "time": 129.554208,
          "velocity": 0.3858267716535433
        },
        {
          "duration": 0.023436000000003787,
          "durationTicks": 15,
          "midi": 37,
          "name": "C#2",
          "ticks": 83040,
          "time": 129.741696,
          "velocity": 1
        },
        {
          "duration": 0.023436000000003787,
          "durationTicks": 15,
          "midi": 44,
          "name": "G#2",
          "ticks": 83040,
          "time": 129.741696,
          "velocity": 0.7716535433070866
        },
        {
          "duration": 0.023436000000003787,
          "durationTicks": 15,
          "midi": 70,
          "name": "A#4",
          "ticks": 83040,
          "time": 129.741696,
          "velocity": 0.7322834645669292
        },
        {
          "duration": 0.023436000000003787,
          "durationTicks": 15,
          "midi": 82,
          "name": "A#5",
          "ticks": 83040,
          "time": 129.741696,
          "velocity": 0.49606299212598426
        },
        {
          "duration": 0.023436000000003787,
          "durationTicks": 15,
          "midi": 44,
          "name": "G#2",
          "ticks": 83160,
          "time": 129.929184,
          "velocity": 0.49606299212598426
        },
        {
          "duration": 0.023436000000003787,
          "durationTicks": 15,
          "midi": 70,
          "name": "A#4",
          "ticks": 83160,
          "time": 129.929184,
          "velocity": 0.4645669291338583
        },
        {
          "duration": 0.023436000000003787,
          "durationTicks": 15,
          "midi": 35,
          "name": "B1",
          "ticks": 83280,
          "time": 130.116672,
          "velocity": 0.8110236220472441
        },
        {
          "duration": 0.023436000000003787,
          "durationTicks": 15,
          "midi": 44,
          "name": "G#2",
          "ticks": 83280,
          "time": 130.116672,
          "velocity": 0.6141732283464567
        },
        {
          "duration": 0.023436000000003787,
          "durationTicks": 15,
          "midi": 70,
          "name": "A#4",
          "ticks": 83280,
          "time": 130.116672,
          "velocity": 0.5354330708661418
        },
        {
          "duration": 0.023436000000003787,
          "durationTicks": 15,
          "midi": 44,
          "name": "G#2",
          "ticks": 83400,
          "time": 130.30416,
          "velocity": 0.48031496062992124
        },
        {
          "duration": 0.023436000000003787,
          "durationTicks": 15,
          "midi": 70,
          "name": "A#4",
          "ticks": 83400,
          "time": 130.30416,
          "velocity": 0.44881889763779526
        },
        {
          "duration": 0.023436000000003787,
          "durationTicks": 15,
          "midi": 82,
          "name": "A#5",
          "ticks": 83400,
          "time": 130.30416,
          "velocity": 0.33070866141732286
        },
        {
          "duration": 0.023436000000003787,
          "durationTicks": 15,
          "midi": 35,
          "name": "B1",
          "ticks": 83520,
          "time": 130.491648,
          "velocity": 0.8110236220472441
        },
        {
          "duration": 0.023436000000003787,
          "durationTicks": 15,
          "midi": 44,
          "name": "G#2",
          "ticks": 83520,
          "time": 130.491648,
          "velocity": 0.7559055118110236
        },
        {
          "duration": 0.023436000000003787,
          "durationTicks": 15,
          "midi": 70,
          "name": "A#4",
          "ticks": 83520,
          "time": 130.491648,
          "velocity": 0.7322834645669292
        },
        {
          "duration": 0.023436000000003787,
          "durationTicks": 15,
          "midi": 82,
          "name": "A#5",
          "ticks": 83520,
          "time": 130.491648,
          "velocity": 0.33858267716535434
        },
        {
          "duration": 0.023436000000003787,
          "durationTicks": 15,
          "midi": 44,
          "name": "G#2",
          "ticks": 83640,
          "time": 130.679136,
          "velocity": 0.4094488188976378
        },
        {
          "duration": 0.023436000000003787,
          "durationTicks": 15,
          "midi": 70,
          "name": "A#4",
          "ticks": 83640,
          "time": 130.679136,
          "velocity": 0.4645669291338583
        },
        {
          "duration": 0.023436000000003787,
          "durationTicks": 15,
          "midi": 44,
          "name": "G#2",
          "ticks": 83760,
          "time": 130.866624,
          "velocity": 0.6299212598425197
        },
        {
          "duration": 0.023436000000003787,
          "durationTicks": 15,
          "midi": 70,
          "name": "A#4",
          "ticks": 83760,
          "time": 130.866624,
          "velocity": 0.5354330708661418
        },
        {
          "duration": 0.023436000000003787,
          "durationTicks": 15,
          "midi": 82,
          "name": "A#5",
          "ticks": 83760,
          "time": 130.866624,
          "velocity": 0.3858267716535433
        },
        {
          "duration": 0.023435999999975365,
          "durationTicks": 15,
          "midi": 44,
          "name": "G#2",
          "ticks": 83880,
          "time": 131.054112,
          "velocity": 0.48031496062992124
        },
        {
          "duration": 0.023435999999975365,
          "durationTicks": 15,
          "midi": 70,
          "name": "A#4",
          "ticks": 83880,
          "time": 131.054112,
          "velocity": 0.44881889763779526
        },
        {
          "duration": 0.023435999999975365,
          "durationTicks": 15,
          "midi": 82,
          "name": "A#5",
          "ticks": 83880,
          "time": 131.054112,
          "velocity": 0.41732283464566927
        },
        {
          "duration": 0.023435999999975365,
          "durationTicks": 15,
          "midi": 37,
          "name": "C#2",
          "ticks": 84000,
          "time": 131.2416,
          "velocity": 0.984251968503937
        },
        {
          "duration": 0.023435999999975365,
          "durationTicks": 15,
          "midi": 44,
          "name": "G#2",
          "ticks": 84000,
          "time": 131.2416,
          "velocity": 0.7716535433070866
        },
        {
          "duration": 0.023435999999975365,
          "durationTicks": 15,
          "midi": 70,
          "name": "A#4",
          "ticks": 84000,
          "time": 131.2416,
          "velocity": 0.7322834645669292
        },
        {
          "duration": 0.023435999999975365,
          "durationTicks": 15,
          "midi": 82,
          "name": "A#5",
          "ticks": 84000,
          "time": 131.2416,
          "velocity": 0.4645669291338583
        },
        {
          "duration": 0.023436000000003787,
          "durationTicks": 15,
          "midi": 44,
          "name": "G#2",
          "ticks": 84120,
          "time": 131.42908799999998,
          "velocity": 0.49606299212598426
        },
        {
          "duration": 0.023436000000003787,
          "durationTicks": 15,
          "midi": 70,
          "name": "A#4",
          "ticks": 84120,
          "time": 131.42908799999998,
          "velocity": 0.4645669291338583
        },
        {
          "duration": 0.023436000000003787,
          "durationTicks": 15,
          "midi": 46,
          "name": "A#2",
          "ticks": 84240,
          "time": 131.61657599999998,
          "velocity": 0.6614173228346457
        },
        {
          "duration": 0.023436000000003787,
          "durationTicks": 15,
          "midi": 70,
          "name": "A#4",
          "ticks": 84240,
          "time": 131.61657599999998,
          "velocity": 0.5354330708661418
        },
        {
          "duration": 0.023436000000003787,
          "durationTicks": 15,
          "midi": 82,
          "name": "A#5",
          "ticks": 84240,
          "time": 131.61657599999998,
          "velocity": 0.41732283464566927
        },
        {
          "duration": 0.023436000000003787,
          "durationTicks": 15,
          "midi": 35,
          "name": "B1",
          "ticks": 84360,
          "time": 131.80406399999998,
          "velocity": 0.8110236220472441
        },
        {
          "duration": 0.023436000000003787,
          "durationTicks": 15,
          "midi": 70,
          "name": "A#4",
          "ticks": 84360,
          "time": 131.80406399999998,
          "velocity": 0.44881889763779526
        },
        {
          "duration": 0.023436000000003787,
          "durationTicks": 15,
          "midi": 82,
          "name": "A#5",
          "ticks": 84360,
          "time": 131.80406399999998,
          "velocity": 0.33858267716535434
        },
        {
          "duration": 0.023436000000003787,
          "durationTicks": 15,
          "midi": 35,
          "name": "B1",
          "ticks": 84480,
          "time": 131.99155199999998,
          "velocity": 0.8661417322834646
        },
        {
          "duration": 0.023436000000003787,
          "durationTicks": 15,
          "midi": 44,
          "name": "G#2",
          "ticks": 84480,
          "time": 131.99155199999998,
          "velocity": 0.7559055118110236
        },
        {
          "duration": 0.023436000000003787,
          "durationTicks": 15,
          "midi": 49,
          "name": "C#3",
          "ticks": 84480,
          "time": 131.99155199999998,
          "velocity": 0.4094488188976378
        },
        {
          "duration": 0.023436000000003787,
          "durationTicks": 15,
          "midi": 59,
          "name": "B3",
          "ticks": 84480,
          "time": 131.99155199999998,
          "velocity": 0.889763779527559
        },
        {
          "duration": 0.023436000000003787,
          "durationTicks": 15,
          "midi": 70,
          "name": "A#4",
          "ticks": 84480,
          "time": 131.99155199999998,
          "velocity": 0.7322834645669292
        },
        {
          "duration": 0.023436000000003787,
          "durationTicks": 15,
          "midi": 44,
          "name": "G#2",
          "ticks": 84600,
          "time": 132.17904,
          "velocity": 0.4094488188976378
        },
        {
          "duration": 0.023436000000003787,
          "durationTicks": 15,
          "midi": 70,
          "name": "A#4",
          "ticks": 84600,
          "time": 132.17904,
          "velocity": 0.4645669291338583
        },
        {
          "duration": 0.023436000000003787,
          "durationTicks": 15,
          "midi": 44,
          "name": "G#2",
          "ticks": 84720,
          "time": 132.366528,
          "velocity": 0.6299212598425197
        },
        {
          "duration": 0.023436000000003787,
          "durationTicks": 15,
          "midi": 70,
          "name": "A#4",
          "ticks": 84720,
          "time": 132.366528,
          "velocity": 0.5354330708661418
        },
        {
          "duration": 0.023436000000003787,
          "durationTicks": 15,
          "midi": 82,
          "name": "A#5",
          "ticks": 84720,
          "time": 132.366528,
          "velocity": 0.3700787401574803
        },
        {
          "duration": 0.023436000000003787,
          "durationTicks": 15,
          "midi": 44,
          "name": "G#2",
          "ticks": 84840,
          "time": 132.554016,
          "velocity": 0.48031496062992124
        },
        {
          "duration": 0.023436000000003787,
          "durationTicks": 15,
          "midi": 70,
          "name": "A#4",
          "ticks": 84840,
          "time": 132.554016,
          "velocity": 0.44881889763779526
        },
        {
          "duration": 0.023436000000003787,
          "durationTicks": 15,
          "midi": 82,
          "name": "A#5",
          "ticks": 84840,
          "time": 132.554016,
          "velocity": 0.3858267716535433
        },
        {
          "duration": 0.023436000000003787,
          "durationTicks": 15,
          "midi": 37,
          "name": "C#2",
          "ticks": 84960,
          "time": 132.741504,
          "velocity": 1
        },
        {
          "duration": 0.023436000000003787,
          "durationTicks": 15,
          "midi": 44,
          "name": "G#2",
          "ticks": 84960,
          "time": 132.741504,
          "velocity": 0.7716535433070866
        },
        {
          "duration": 0.023436000000003787,
          "durationTicks": 15,
          "midi": 70,
          "name": "A#4",
          "ticks": 84960,
          "time": 132.741504,
          "velocity": 0.7322834645669292
        },
        {
          "duration": 0.023436000000003787,
          "durationTicks": 15,
          "midi": 82,
          "name": "A#5",
          "ticks": 84960,
          "time": 132.741504,
          "velocity": 0.49606299212598426
        },
        {
          "duration": 0.023436000000003787,
          "durationTicks": 15,
          "midi": 44,
          "name": "G#2",
          "ticks": 85080,
          "time": 132.928992,
          "velocity": 0.49606299212598426
        },
        {
          "duration": 0.023436000000003787,
          "durationTicks": 15,
          "midi": 70,
          "name": "A#4",
          "ticks": 85080,
          "time": 132.928992,
          "velocity": 0.4645669291338583
        },
        {
          "duration": 0.023436000000003787,
          "durationTicks": 15,
          "midi": 35,
          "name": "B1",
          "ticks": 85200,
          "time": 133.11648,
          "velocity": 0.6850393700787402
        },
        {
          "duration": 0.023436000000003787,
          "durationTicks": 15,
          "midi": 44,
          "name": "G#2",
          "ticks": 85200,
          "time": 133.11648,
          "velocity": 0.6141732283464567
        },
        {
          "duration": 0.023436000000003787,
          "durationTicks": 15,
          "midi": 70,
          "name": "A#4",
          "ticks": 85200,
          "time": 133.11648,
          "velocity": 0.5354330708661418
        },
        {
          "duration": 0.023436000000003787,
          "durationTicks": 15,
          "midi": 35,
          "name": "B1",
          "ticks": 85320,
          "time": 133.303968,
          "velocity": 0.6850393700787402
        },
        {
          "duration": 0.023436000000003787,
          "durationTicks": 15,
          "midi": 44,
          "name": "G#2",
          "ticks": 85320,
          "time": 133.303968,
          "velocity": 0.48031496062992124
        },
        {
          "duration": 0.023436000000003787,
          "durationTicks": 15,
          "midi": 70,
          "name": "A#4",
          "ticks": 85320,
          "time": 133.303968,
          "velocity": 0.44881889763779526
        },
        {
          "duration": 0.023436000000003787,
          "durationTicks": 15,
          "midi": 82,
          "name": "A#5",
          "ticks": 85320,
          "time": 133.303968,
          "velocity": 0.33070866141732286
        },
        {
          "duration": 0.023436000000003787,
          "durationTicks": 15,
          "midi": 35,
          "name": "B1",
          "ticks": 85440,
          "time": 133.491456,
          "velocity": 0.8110236220472441
        },
        {
          "duration": 0.023436000000003787,
          "durationTicks": 15,
          "midi": 44,
          "name": "G#2",
          "ticks": 85440,
          "time": 133.491456,
          "velocity": 0.7559055118110236
        },
        {
          "duration": 0.023436000000003787,
          "durationTicks": 15,
          "midi": 70,
          "name": "A#4",
          "ticks": 85440,
          "time": 133.491456,
          "velocity": 0.7322834645669292
        },
        {
          "duration": 0.023436000000003787,
          "durationTicks": 15,
          "midi": 82,
          "name": "A#5",
          "ticks": 85440,
          "time": 133.491456,
          "velocity": 0.33858267716535434
        },
        {
          "duration": 0.023436000000003787,
          "durationTicks": 15,
          "midi": 44,
          "name": "G#2",
          "ticks": 85560,
          "time": 133.678944,
          "velocity": 0.4094488188976378
        },
        {
          "duration": 0.023436000000003787,
          "durationTicks": 15,
          "midi": 70,
          "name": "A#4",
          "ticks": 85560,
          "time": 133.678944,
          "velocity": 0.4645669291338583
        },
        {
          "duration": 0.023435999999975365,
          "durationTicks": 15,
          "midi": 44,
          "name": "G#2",
          "ticks": 85680,
          "time": 133.866432,
          "velocity": 0.6299212598425197
        },
        {
          "duration": 0.023435999999975365,
          "durationTicks": 15,
          "midi": 70,
          "name": "A#4",
          "ticks": 85680,
          "time": 133.866432,
          "velocity": 0.5354330708661418
        },
        {
          "duration": 0.023435999999975365,
          "durationTicks": 15,
          "midi": 82,
          "name": "A#5",
          "ticks": 85680,
          "time": 133.866432,
          "velocity": 0.3858267716535433
        },
        {
          "duration": 0.023435999999975365,
          "durationTicks": 15,
          "midi": 44,
          "name": "G#2",
          "ticks": 85800,
          "time": 134.05392,
          "velocity": 0.48031496062992124
        },
        {
          "duration": 0.023435999999975365,
          "durationTicks": 15,
          "midi": 70,
          "name": "A#4",
          "ticks": 85800,
          "time": 134.05392,
          "velocity": 0.44881889763779526
        },
        {
          "duration": 0.023435999999975365,
          "durationTicks": 15,
          "midi": 82,
          "name": "A#5",
          "ticks": 85800,
          "time": 134.05392,
          "velocity": 0.41732283464566927
        },
        {
          "duration": 0.023436000000003787,
          "durationTicks": 15,
          "midi": 37,
          "name": "C#2",
          "ticks": 85920,
          "time": 134.24140799999998,
          "velocity": 0.984251968503937
        },
        {
          "duration": 0.023436000000003787,
          "durationTicks": 15,
          "midi": 44,
          "name": "G#2",
          "ticks": 85920,
          "time": 134.24140799999998,
          "velocity": 0.7716535433070866
        },
        {
          "duration": 0.023436000000003787,
          "durationTicks": 15,
          "midi": 70,
          "name": "A#4",
          "ticks": 85920,
          "time": 134.24140799999998,
          "velocity": 0.7322834645669292
        },
        {
          "duration": 0.023436000000003787,
          "durationTicks": 15,
          "midi": 82,
          "name": "A#5",
          "ticks": 85920,
          "time": 134.24140799999998,
          "velocity": 0.4645669291338583
        },
        {
          "duration": 0.023436000000003787,
          "durationTicks": 15,
          "midi": 44,
          "name": "G#2",
          "ticks": 86040,
          "time": 134.42889599999998,
          "velocity": 0.49606299212598426
        },
        {
          "duration": 0.023436000000003787,
          "durationTicks": 15,
          "midi": 70,
          "name": "A#4",
          "ticks": 86040,
          "time": 134.42889599999998,
          "velocity": 0.4645669291338583
        },
        {
          "duration": 0.023436000000003787,
          "durationTicks": 15,
          "midi": 46,
          "name": "A#2",
          "ticks": 86160,
          "time": 134.61638399999998,
          "velocity": 0.6614173228346457
        },
        {
          "duration": 0.023436000000003787,
          "durationTicks": 15,
          "midi": 70,
          "name": "A#4",
          "ticks": 86160,
          "time": 134.61638399999998,
          "velocity": 0.5354330708661418
        },
        {
          "duration": 0.023436000000003787,
          "durationTicks": 15,
          "midi": 82,
          "name": "A#5",
          "ticks": 86160,
          "time": 134.61638399999998,
          "velocity": 0.41732283464566927
        },
        {
          "duration": 0.023436000000003787,
          "durationTicks": 15,
          "midi": 70,
          "name": "A#4",
          "ticks": 86280,
          "time": 134.80387199999998,
          "velocity": 0.44881889763779526
        },
        {
          "duration": 0.023436000000003787,
          "durationTicks": 15,
          "midi": 82,
          "name": "A#5",
          "ticks": 86280,
          "time": 134.80387199999998,
          "velocity": 0.33858267716535434
        },
        {
          "duration": 0.023436000000003787,
          "durationTicks": 15,
          "midi": 35,
          "name": "B1",
          "ticks": 86400,
          "time": 134.99136,
          "velocity": 0.8661417322834646
        },
        {
          "duration": 0.023436000000003787,
          "durationTicks": 15,
          "midi": 44,
          "name": "G#2",
          "ticks": 86400,
          "time": 134.99136,
          "velocity": 0.7559055118110236
        },
        {
          "duration": 0.023436000000003787,
          "durationTicks": 15,
          "midi": 70,
          "name": "A#4",
          "ticks": 86400,
          "time": 134.99136,
          "velocity": 0.7322834645669292
        },
        {
          "duration": 0.023436000000003787,
          "durationTicks": 15,
          "midi": 44,
          "name": "G#2",
          "ticks": 86520,
          "time": 135.178848,
          "velocity": 0.4094488188976378
        },
        {
          "duration": 0.023436000000003787,
          "durationTicks": 15,
          "midi": 70,
          "name": "A#4",
          "ticks": 86520,
          "time": 135.178848,
          "velocity": 0.4645669291338583
        },
        {
          "duration": 0.023436000000003787,
          "durationTicks": 15,
          "midi": 44,
          "name": "G#2",
          "ticks": 86640,
          "time": 135.366336,
          "velocity": 0.6299212598425197
        },
        {
          "duration": 0.023436000000003787,
          "durationTicks": 15,
          "midi": 70,
          "name": "A#4",
          "ticks": 86640,
          "time": 135.366336,
          "velocity": 0.5354330708661418
        },
        {
          "duration": 0.023436000000003787,
          "durationTicks": 15,
          "midi": 82,
          "name": "A#5",
          "ticks": 86640,
          "time": 135.366336,
          "velocity": 0.3700787401574803
        },
        {
          "duration": 0.023436000000003787,
          "durationTicks": 15,
          "midi": 44,
          "name": "G#2",
          "ticks": 86760,
          "time": 135.553824,
          "velocity": 0.48031496062992124
        },
        {
          "duration": 0.023436000000003787,
          "durationTicks": 15,
          "midi": 70,
          "name": "A#4",
          "ticks": 86760,
          "time": 135.553824,
          "velocity": 0.44881889763779526
        },
        {
          "duration": 0.023436000000003787,
          "durationTicks": 15,
          "midi": 82,
          "name": "A#5",
          "ticks": 86760,
          "time": 135.553824,
          "velocity": 0.3858267716535433
        },
        {
          "duration": 0.023436000000003787,
          "durationTicks": 15,
          "midi": 37,
          "name": "C#2",
          "ticks": 86880,
          "time": 135.741312,
          "velocity": 1
        },
        {
          "duration": 0.023436000000003787,
          "durationTicks": 15,
          "midi": 44,
          "name": "G#2",
          "ticks": 86880,
          "time": 135.741312,
          "velocity": 0.7716535433070866
        },
        {
          "duration": 0.023436000000003787,
          "durationTicks": 15,
          "midi": 70,
          "name": "A#4",
          "ticks": 86880,
          "time": 135.741312,
          "velocity": 0.7322834645669292
        },
        {
          "duration": 0.023436000000003787,
          "durationTicks": 15,
          "midi": 82,
          "name": "A#5",
          "ticks": 86880,
          "time": 135.741312,
          "velocity": 0.49606299212598426
        },
        {
          "duration": 0.023436000000003787,
          "durationTicks": 15,
          "midi": 44,
          "name": "G#2",
          "ticks": 87000,
          "time": 135.9288,
          "velocity": 0.49606299212598426
        },
        {
          "duration": 0.023436000000003787,
          "durationTicks": 15,
          "midi": 70,
          "name": "A#4",
          "ticks": 87000,
          "time": 135.9288,
          "velocity": 0.4645669291338583
        },
        {
          "duration": 0.023436000000003787,
          "durationTicks": 15,
          "midi": 35,
          "name": "B1",
          "ticks": 87120,
          "time": 136.116288,
          "velocity": 0.8188976377952756
        },
        {
          "duration": 0.023436000000003787,
          "durationTicks": 15,
          "midi": 44,
          "name": "G#2",
          "ticks": 87120,
          "time": 136.116288,
          "velocity": 0.6141732283464567
        },
        {
          "duration": 0.023436000000003787,
          "durationTicks": 15,
          "midi": 70,
          "name": "A#4",
          "ticks": 87120,
          "time": 136.116288,
          "velocity": 0.5354330708661418
        },
        {
          "duration": 0.023436000000003787,
          "durationTicks": 15,
          "midi": 44,
          "name": "G#2",
          "ticks": 87240,
          "time": 136.303776,
          "velocity": 0.48031496062992124
        },
        {
          "duration": 0.023436000000003787,
          "durationTicks": 15,
          "midi": 70,
          "name": "A#4",
          "ticks": 87240,
          "time": 136.303776,
          "velocity": 0.44881889763779526
        },
        {
          "duration": 0.023436000000003787,
          "durationTicks": 15,
          "midi": 82,
          "name": "A#5",
          "ticks": 87240,
          "time": 136.303776,
          "velocity": 0.33070866141732286
        },
        {
          "duration": 0.023436000000003787,
          "durationTicks": 15,
          "midi": 35,
          "name": "B1",
          "ticks": 87360,
          "time": 136.491264,
          "velocity": 0.84251968503937
        },
        {
          "duration": 0.023436000000003787,
          "durationTicks": 15,
          "midi": 44,
          "name": "G#2",
          "ticks": 87360,
          "time": 136.491264,
          "velocity": 0.7559055118110236
        },
        {
          "duration": 0.023436000000003787,
          "durationTicks": 15,
          "midi": 70,
          "name": "A#4",
          "ticks": 87360,
          "time": 136.491264,
          "velocity": 0.7322834645669292
        },
        {
          "duration": 0.023436000000003787,
          "durationTicks": 15,
          "midi": 82,
          "name": "A#5",
          "ticks": 87360,
          "time": 136.491264,
          "velocity": 0.33858267716535434
        },
        {
          "duration": 0.023435999999975365,
          "durationTicks": 15,
          "midi": 44,
          "name": "G#2",
          "ticks": 87480,
          "time": 136.678752,
          "velocity": 0.4094488188976378
        },
        {
          "duration": 0.023435999999975365,
          "durationTicks": 15,
          "midi": 70,
          "name": "A#4",
          "ticks": 87480,
          "time": 136.678752,
          "velocity": 0.4645669291338583
        },
        {
          "duration": 0.023435999999975365,
          "durationTicks": 15,
          "midi": 44,
          "name": "G#2",
          "ticks": 87600,
          "time": 136.86624,
          "velocity": 0.6299212598425197
        },
        {
          "duration": 0.023435999999975365,
          "durationTicks": 15,
          "midi": 70,
          "name": "A#4",
          "ticks": 87600,
          "time": 136.86624,
          "velocity": 0.5354330708661418
        },
        {
          "duration": 0.023435999999975365,
          "durationTicks": 15,
          "midi": 82,
          "name": "A#5",
          "ticks": 87600,
          "time": 136.86624,
          "velocity": 0.3858267716535433
        },
        {
          "duration": 0.023436000000003787,
          "durationTicks": 15,
          "midi": 44,
          "name": "G#2",
          "ticks": 87720,
          "time": 137.05372799999998,
          "velocity": 0.48031496062992124
        },
        {
          "duration": 0.023436000000003787,
          "durationTicks": 15,
          "midi": 70,
          "name": "A#4",
          "ticks": 87720,
          "time": 137.05372799999998,
          "velocity": 0.44881889763779526
        },
        {
          "duration": 0.023436000000003787,
          "durationTicks": 15,
          "midi": 82,
          "name": "A#5",
          "ticks": 87720,
          "time": 137.05372799999998,
          "velocity": 0.41732283464566927
        },
        {
          "duration": 0.023436000000003787,
          "durationTicks": 15,
          "midi": 37,
          "name": "C#2",
          "ticks": 87840,
          "time": 137.24121599999998,
          "velocity": 0.984251968503937
        },
        {
          "duration": 0.023436000000003787,
          "durationTicks": 15,
          "midi": 44,
          "name": "G#2",
          "ticks": 87840,
          "time": 137.24121599999998,
          "velocity": 0.7716535433070866
        },
        {
          "duration": 0.023436000000003787,
          "durationTicks": 15,
          "midi": 70,
          "name": "A#4",
          "ticks": 87840,
          "time": 137.24121599999998,
          "velocity": 0.7322834645669292
        },
        {
          "duration": 0.023436000000003787,
          "durationTicks": 15,
          "midi": 82,
          "name": "A#5",
          "ticks": 87840,
          "time": 137.24121599999998,
          "velocity": 0.4645669291338583
        },
        {
          "duration": 0.023436000000003787,
          "durationTicks": 15,
          "midi": 44,
          "name": "G#2",
          "ticks": 87960,
          "time": 137.42870399999998,
          "velocity": 0.49606299212598426
        },
        {
          "duration": 0.023436000000003787,
          "durationTicks": 15,
          "midi": 70,
          "name": "A#4",
          "ticks": 87960,
          "time": 137.42870399999998,
          "velocity": 0.4645669291338583
        },
        {
          "duration": 0.023436000000003787,
          "durationTicks": 15,
          "midi": 46,
          "name": "A#2",
          "ticks": 88080,
          "time": 137.61619199999998,
          "velocity": 0.6614173228346457
        },
        {
          "duration": 0.023436000000003787,
          "durationTicks": 15,
          "midi": 70,
          "name": "A#4",
          "ticks": 88080,
          "time": 137.61619199999998,
          "velocity": 0.5354330708661418
        },
        {
          "duration": 0.023436000000003787,
          "durationTicks": 15,
          "midi": 82,
          "name": "A#5",
          "ticks": 88080,
          "time": 137.61619199999998,
          "velocity": 0.41732283464566927
        },
        {
          "duration": 0.023436000000003787,
          "durationTicks": 15,
          "midi": 35,
          "name": "B1",
          "ticks": 88200,
          "time": 137.80367999999999,
          "velocity": 0.8110236220472441
        },
        {
          "duration": 0.023436000000003787,
          "durationTicks": 15,
          "midi": 70,
          "name": "A#4",
          "ticks": 88200,
          "time": 137.80367999999999,
          "velocity": 0.44881889763779526
        },
        {
          "duration": 0.023436000000003787,
          "durationTicks": 15,
          "midi": 82,
          "name": "A#5",
          "ticks": 88200,
          "time": 137.80367999999999,
          "velocity": 0.33858267716535434
        },
        {
          "duration": 0.023436000000003787,
          "durationTicks": 15,
          "midi": 35,
          "name": "B1",
          "ticks": 88320,
          "time": 137.991168,
          "velocity": 0.8110236220472441
        },
        {
          "duration": 0.023436000000003787,
          "durationTicks": 15,
          "midi": 44,
          "name": "G#2",
          "ticks": 88320,
          "time": 137.991168,
          "velocity": 0.7559055118110236
        },
        {
          "duration": 0.023436000000003787,
          "durationTicks": 15,
          "midi": 70,
          "name": "A#4",
          "ticks": 88320,
          "time": 137.991168,
          "velocity": 0.7322834645669292
        },
        {
          "duration": 0.023436000000003787,
          "durationTicks": 15,
          "midi": 44,
          "name": "G#2",
          "ticks": 88440,
          "time": 138.178656,
          "velocity": 0.4094488188976378
        },
        {
          "duration": 0.023436000000003787,
          "durationTicks": 15,
          "midi": 70,
          "name": "A#4",
          "ticks": 88440,
          "time": 138.178656,
          "velocity": 0.4645669291338583
        },
        {
          "duration": 0.023436000000003787,
          "durationTicks": 15,
          "midi": 44,
          "name": "G#2",
          "ticks": 88560,
          "time": 138.366144,
          "velocity": 0.6299212598425197
        },
        {
          "duration": 0.023436000000003787,
          "durationTicks": 15,
          "midi": 70,
          "name": "A#4",
          "ticks": 88560,
          "time": 138.366144,
          "velocity": 0.5354330708661418
        },
        {
          "duration": 0.023436000000003787,
          "durationTicks": 15,
          "midi": 82,
          "name": "A#5",
          "ticks": 88560,
          "time": 138.366144,
          "velocity": 0.3700787401574803
        },
        {
          "duration": 0.023436000000003787,
          "durationTicks": 15,
          "midi": 44,
          "name": "G#2",
          "ticks": 88680,
          "time": 138.553632,
          "velocity": 0.48031496062992124
        },
        {
          "duration": 0.023436000000003787,
          "durationTicks": 15,
          "midi": 70,
          "name": "A#4",
          "ticks": 88680,
          "time": 138.553632,
          "velocity": 0.44881889763779526
        },
        {
          "duration": 0.023436000000003787,
          "durationTicks": 15,
          "midi": 82,
          "name": "A#5",
          "ticks": 88680,
          "time": 138.553632,
          "velocity": 0.3858267716535433
        },
        {
          "duration": 0.023436000000003787,
          "durationTicks": 15,
          "midi": 37,
          "name": "C#2",
          "ticks": 88800,
          "time": 138.74112,
          "velocity": 1
        },
        {
          "duration": 0.023436000000003787,
          "durationTicks": 15,
          "midi": 44,
          "name": "G#2",
          "ticks": 88800,
          "time": 138.74112,
          "velocity": 0.7716535433070866
        },
        {
          "duration": 0.023436000000003787,
          "durationTicks": 15,
          "midi": 70,
          "name": "A#4",
          "ticks": 88800,
          "time": 138.74112,
          "velocity": 0.7322834645669292
        },
        {
          "duration": 0.023436000000003787,
          "durationTicks": 15,
          "midi": 82,
          "name": "A#5",
          "ticks": 88800,
          "time": 138.74112,
          "velocity": 0.49606299212598426
        },
        {
          "duration": 0.023436000000003787,
          "durationTicks": 15,
          "midi": 44,
          "name": "G#2",
          "ticks": 88920,
          "time": 138.928608,
          "velocity": 0.49606299212598426
        },
        {
          "duration": 0.023436000000003787,
          "durationTicks": 15,
          "midi": 70,
          "name": "A#4",
          "ticks": 88920,
          "time": 138.928608,
          "velocity": 0.4645669291338583
        },
        {
          "duration": 0.023436000000003787,
          "durationTicks": 15,
          "midi": 35,
          "name": "B1",
          "ticks": 89040,
          "time": 139.116096,
          "velocity": 0.6850393700787402
        },
        {
          "duration": 0.023436000000003787,
          "durationTicks": 15,
          "midi": 44,
          "name": "G#2",
          "ticks": 89040,
          "time": 139.116096,
          "velocity": 0.6141732283464567
        },
        {
          "duration": 0.023436000000003787,
          "durationTicks": 15,
          "midi": 70,
          "name": "A#4",
          "ticks": 89040,
          "time": 139.116096,
          "velocity": 0.5354330708661418
        },
        {
          "duration": 0.023436000000003787,
          "durationTicks": 15,
          "midi": 35,
          "name": "B1",
          "ticks": 89160,
          "time": 139.303584,
          "velocity": 0.6850393700787402
        },
        {
          "duration": 0.023436000000003787,
          "durationTicks": 15,
          "midi": 44,
          "name": "G#2",
          "ticks": 89160,
          "time": 139.303584,
          "velocity": 0.48031496062992124
        },
        {
          "duration": 0.023436000000003787,
          "durationTicks": 15,
          "midi": 70,
          "name": "A#4",
          "ticks": 89160,
          "time": 139.303584,
          "velocity": 0.44881889763779526
        },
        {
          "duration": 0.023436000000003787,
          "durationTicks": 15,
          "midi": 82,
          "name": "A#5",
          "ticks": 89160,
          "time": 139.303584,
          "velocity": 0.33070866141732286
        },
        {
          "duration": 0.023435999999975365,
          "durationTicks": 15,
          "midi": 35,
          "name": "B1",
          "ticks": 89280,
          "time": 139.491072,
          "velocity": 0.8110236220472441
        },
        {
          "duration": 0.023435999999975365,
          "durationTicks": 15,
          "midi": 44,
          "name": "G#2",
          "ticks": 89280,
          "time": 139.491072,
          "velocity": 0.7559055118110236
        },
        {
          "duration": 0.023435999999975365,
          "durationTicks": 15,
          "midi": 70,
          "name": "A#4",
          "ticks": 89280,
          "time": 139.491072,
          "velocity": 0.7322834645669292
        },
        {
          "duration": 0.023435999999975365,
          "durationTicks": 15,
          "midi": 82,
          "name": "A#5",
          "ticks": 89280,
          "time": 139.491072,
          "velocity": 0.33858267716535434
        },
        {
          "duration": 0.023435999999975365,
          "durationTicks": 15,
          "midi": 44,
          "name": "G#2",
          "ticks": 89400,
          "time": 139.67856,
          "velocity": 0.4094488188976378
        },
        {
          "duration": 0.023435999999975365,
          "durationTicks": 15,
          "midi": 70,
          "name": "A#4",
          "ticks": 89400,
          "time": 139.67856,
          "velocity": 0.4645669291338583
        },
        {
          "duration": 0.023436000000003787,
          "durationTicks": 15,
          "midi": 44,
          "name": "G#2",
          "ticks": 89520,
          "time": 139.86604799999998,
          "velocity": 0.6299212598425197
        },
        {
          "duration": 0.023436000000003787,
          "durationTicks": 15,
          "midi": 70,
          "name": "A#4",
          "ticks": 89520,
          "time": 139.86604799999998,
          "velocity": 0.5354330708661418
        },
        {
          "duration": 0.023436000000003787,
          "durationTicks": 15,
          "midi": 82,
          "name": "A#5",
          "ticks": 89520,
          "time": 139.86604799999998,
          "velocity": 0.3858267716535433
        },
        {
          "duration": 0.023436000000003787,
          "durationTicks": 15,
          "midi": 44,
          "name": "G#2",
          "ticks": 89640,
          "time": 140.05353599999998,
          "velocity": 0.48031496062992124
        },
        {
          "duration": 0.023436000000003787,
          "durationTicks": 15,
          "midi": 70,
          "name": "A#4",
          "ticks": 89640,
          "time": 140.05353599999998,
          "velocity": 0.44881889763779526
        },
        {
          "duration": 0.023436000000003787,
          "durationTicks": 15,
          "midi": 82,
          "name": "A#5",
          "ticks": 89640,
          "time": 140.05353599999998,
          "velocity": 0.41732283464566927
        },
        {
          "duration": 0.023436000000003787,
          "durationTicks": 15,
          "midi": 37,
          "name": "C#2",
          "ticks": 89760,
          "time": 140.24102399999998,
          "velocity": 0.984251968503937
        },
        {
          "duration": 0.023436000000003787,
          "durationTicks": 15,
          "midi": 44,
          "name": "G#2",
          "ticks": 89760,
          "time": 140.24102399999998,
          "velocity": 0.7716535433070866
        },
        {
          "duration": 0.023436000000003787,
          "durationTicks": 15,
          "midi": 70,
          "name": "A#4",
          "ticks": 89760,
          "time": 140.24102399999998,
          "velocity": 0.7322834645669292
        },
        {
          "duration": 0.023436000000003787,
          "durationTicks": 15,
          "midi": 82,
          "name": "A#5",
          "ticks": 89760,
          "time": 140.24102399999998,
          "velocity": 0.4645669291338583
        },
        {
          "duration": 0.023436000000003787,
          "durationTicks": 15,
          "midi": 44,
          "name": "G#2",
          "ticks": 89880,
          "time": 140.42851199999998,
          "velocity": 0.49606299212598426
        },
        {
          "duration": 0.023436000000003787,
          "durationTicks": 15,
          "midi": 70,
          "name": "A#4",
          "ticks": 89880,
          "time": 140.42851199999998,
          "velocity": 0.4645669291338583
        },
        {
          "duration": 0.023436000000003787,
          "durationTicks": 15,
          "midi": 46,
          "name": "A#2",
          "ticks": 90000,
          "time": 140.61599999999999,
          "velocity": 0.6614173228346457
        },
        {
          "duration": 0.023436000000003787,
          "durationTicks": 15,
          "midi": 70,
          "name": "A#4",
          "ticks": 90000,
          "time": 140.61599999999999,
          "velocity": 0.5354330708661418
        },
        {
          "duration": 0.023436000000003787,
          "durationTicks": 15,
          "midi": 82,
          "name": "A#5",
          "ticks": 90000,
          "time": 140.61599999999999,
          "velocity": 0.41732283464566927
        },
        {
          "duration": 0.023436000000003787,
          "durationTicks": 15,
          "midi": 70,
          "name": "A#4",
          "ticks": 90120,
          "time": 140.803488,
          "velocity": 0.44881889763779526
        },
        {
          "duration": 0.023436000000003787,
          "durationTicks": 15,
          "midi": 82,
          "name": "A#5",
          "ticks": 90120,
          "time": 140.803488,
          "velocity": 0.33858267716535434
        },
        {
          "duration": 0.023436000000003787,
          "durationTicks": 15,
          "midi": 35,
          "name": "B1",
          "ticks": 90240,
          "time": 140.990976,
          "velocity": 0.8110236220472441
        },
        {
          "duration": 0.023436000000003787,
          "durationTicks": 15,
          "midi": 44,
          "name": "G#2",
          "ticks": 90240,
          "time": 140.990976,
          "velocity": 0.7559055118110236
        },
        {
          "duration": 0.023436000000003787,
          "durationTicks": 15,
          "midi": 70,
          "name": "A#4",
          "ticks": 90240,
          "time": 140.990976,
          "velocity": 0.7322834645669292
        },
        {
          "duration": 0.023436000000003787,
          "durationTicks": 15,
          "midi": 44,
          "name": "G#2",
          "ticks": 90360,
          "time": 141.178464,
          "velocity": 0.4094488188976378
        },
        {
          "duration": 0.023436000000003787,
          "durationTicks": 15,
          "midi": 70,
          "name": "A#4",
          "ticks": 90360,
          "time": 141.178464,
          "velocity": 0.4645669291338583
        },
        {
          "duration": 0.023436000000003787,
          "durationTicks": 15,
          "midi": 44,
          "name": "G#2",
          "ticks": 90480,
          "time": 141.365952,
          "velocity": 0.6299212598425197
        },
        {
          "duration": 0.023436000000003787,
          "durationTicks": 15,
          "midi": 70,
          "name": "A#4",
          "ticks": 90480,
          "time": 141.365952,
          "velocity": 0.5354330708661418
        },
        {
          "duration": 0.023436000000003787,
          "durationTicks": 15,
          "midi": 82,
          "name": "A#5",
          "ticks": 90480,
          "time": 141.365952,
          "velocity": 0.3700787401574803
        },
        {
          "duration": 0.023436000000003787,
          "durationTicks": 15,
          "midi": 44,
          "name": "G#2",
          "ticks": 90600,
          "time": 141.55344,
          "velocity": 0.48031496062992124
        },
        {
          "duration": 0.023436000000003787,
          "durationTicks": 15,
          "midi": 70,
          "name": "A#4",
          "ticks": 90600,
          "time": 141.55344,
          "velocity": 0.44881889763779526
        },
        {
          "duration": 0.023436000000003787,
          "durationTicks": 15,
          "midi": 82,
          "name": "A#5",
          "ticks": 90600,
          "time": 141.55344,
          "velocity": 0.3858267716535433
        },
        {
          "duration": 0.023436000000003787,
          "durationTicks": 15,
          "midi": 37,
          "name": "C#2",
          "ticks": 90720,
          "time": 141.740928,
          "velocity": 1
        },
        {
          "duration": 0.023436000000003787,
          "durationTicks": 15,
          "midi": 44,
          "name": "G#2",
          "ticks": 90720,
          "time": 141.740928,
          "velocity": 0.7716535433070866
        },
        {
          "duration": 0.023436000000003787,
          "durationTicks": 15,
          "midi": 70,
          "name": "A#4",
          "ticks": 90720,
          "time": 141.740928,
          "velocity": 0.7322834645669292
        },
        {
          "duration": 0.023436000000003787,
          "durationTicks": 15,
          "midi": 82,
          "name": "A#5",
          "ticks": 90720,
          "time": 141.740928,
          "velocity": 0.49606299212598426
        },
        {
          "duration": 0.023436000000003787,
          "durationTicks": 15,
          "midi": 44,
          "name": "G#2",
          "ticks": 90840,
          "time": 141.928416,
          "velocity": 0.49606299212598426
        },
        {
          "duration": 0.023436000000003787,
          "durationTicks": 15,
          "midi": 70,
          "name": "A#4",
          "ticks": 90840,
          "time": 141.928416,
          "velocity": 0.4645669291338583
        },
        {
          "duration": 0.023436000000003787,
          "durationTicks": 15,
          "midi": 82,
          "name": "A#5",
          "ticks": 90840,
          "time": 141.928416,
          "velocity": 0.4251968503937008
        },
        {
          "duration": 0.023436000000003787,
          "durationTicks": 15,
          "midi": 35,
          "name": "B1",
          "ticks": 90960,
          "time": 142.115904,
          "velocity": 0.8110236220472441
        },
        {
          "duration": 0.023436000000003787,
          "durationTicks": 15,
          "midi": 44,
          "name": "G#2",
          "ticks": 90960,
          "time": 142.115904,
          "velocity": 0.6141732283464567
        },
        {
          "duration": 0.023436000000003787,
          "durationTicks": 15,
          "midi": 70,
          "name": "A#4",
          "ticks": 90960,
          "time": 142.115904,
          "velocity": 0.5354330708661418
        },
        {
          "duration": 0.023435999999975365,
          "durationTicks": 15,
          "midi": 44,
          "name": "G#2",
          "ticks": 91080,
          "time": 142.303392,
          "velocity": 0.48031496062992124
        },
        {
          "duration": 0.023435999999975365,
          "durationTicks": 15,
          "midi": 70,
          "name": "A#4",
          "ticks": 91080,
          "time": 142.303392,
          "velocity": 0.44881889763779526
        },
        {
          "duration": 0.023435999999975365,
          "durationTicks": 15,
          "midi": 82,
          "name": "A#5",
          "ticks": 91080,
          "time": 142.303392,
          "velocity": 0.33070866141732286
        },
        {
          "duration": 0.023435999999975365,
          "durationTicks": 15,
          "midi": 35,
          "name": "B1",
          "ticks": 91200,
          "time": 142.49088,
          "velocity": 0.8110236220472441
        },
        {
          "duration": 0.023435999999975365,
          "durationTicks": 15,
          "midi": 44,
          "name": "G#2",
          "ticks": 91200,
          "time": 142.49088,
          "velocity": 0.7559055118110236
        },
        {
          "duration": 0.023435999999975365,
          "durationTicks": 15,
          "midi": 70,
          "name": "A#4",
          "ticks": 91200,
          "time": 142.49088,
          "velocity": 0.7322834645669292
        },
        {
          "duration": 0.023435999999975365,
          "durationTicks": 15,
          "midi": 82,
          "name": "A#5",
          "ticks": 91200,
          "time": 142.49088,
          "velocity": 0.33858267716535434
        },
        {
          "duration": 0.023436000000003787,
          "durationTicks": 15,
          "midi": 44,
          "name": "G#2",
          "ticks": 91320,
          "time": 142.67836799999998,
          "velocity": 0.4094488188976378
        },
        {
          "duration": 0.023436000000003787,
          "durationTicks": 15,
          "midi": 70,
          "name": "A#4",
          "ticks": 91320,
          "time": 142.67836799999998,
          "velocity": 0.4645669291338583
        },
        {
          "duration": 0.023436000000003787,
          "durationTicks": 15,
          "midi": 44,
          "name": "G#2",
          "ticks": 91440,
          "time": 142.86585599999998,
          "velocity": 0.6299212598425197
        },
        {
          "duration": 0.023436000000003787,
          "durationTicks": 15,
          "midi": 47,
          "name": "B2",
          "ticks": 91440,
          "time": 142.86585599999998,
          "velocity": 0.8267716535433071
        },
        {
          "duration": 0.023436000000003787,
          "durationTicks": 15,
          "midi": 70,
          "name": "A#4",
          "ticks": 91440,
          "time": 142.86585599999998,
          "velocity": 0.5354330708661418
        },
        {
          "duration": 0.023436000000003787,
          "durationTicks": 15,
          "midi": 82,
          "name": "A#5",
          "ticks": 91440,
          "time": 142.86585599999998,
          "velocity": 0.3858267716535433
        },
        {
          "duration": 0.023436000000003787,
          "durationTicks": 15,
          "midi": 44,
          "name": "G#2",
          "ticks": 91560,
          "time": 143.05334399999998,
          "velocity": 0.48031496062992124
        },
        {
          "duration": 0.023436000000003787,
          "durationTicks": 15,
          "midi": 70,
          "name": "A#4",
          "ticks": 91560,
          "time": 143.05334399999998,
          "velocity": 0.44881889763779526
        },
        {
          "duration": 0.023436000000003787,
          "durationTicks": 15,
          "midi": 82,
          "name": "A#5",
          "ticks": 91560,
          "time": 143.05334399999998,
          "velocity": 0.41732283464566927
        },
        {
          "duration": 0.023436000000003787,
          "durationTicks": 15,
          "midi": 37,
          "name": "C#2",
          "ticks": 91680,
          "time": 143.24083199999998,
          "velocity": 0.984251968503937
        },
        {
          "duration": 0.023436000000003787,
          "durationTicks": 15,
          "midi": 44,
          "name": "G#2",
          "ticks": 91680,
          "time": 143.24083199999998,
          "velocity": 0.7716535433070866
        },
        {
          "duration": 0.023436000000003787,
          "durationTicks": 15,
          "midi": 45,
          "name": "A2",
          "ticks": 91680,
          "time": 143.24083199999998,
          "velocity": 0.7952755905511811
        },
        {
          "duration": 0.023436000000003787,
          "durationTicks": 15,
          "midi": 70,
          "name": "A#4",
          "ticks": 91680,
          "time": 143.24083199999998,
          "velocity": 0.7322834645669292
        },
        {
          "duration": 0.023436000000003787,
          "durationTicks": 15,
          "midi": 82,
          "name": "A#5",
          "ticks": 91680,
          "time": 143.24083199999998,
          "velocity": 0.4645669291338583
        },
        {
          "duration": 0.023436000000003787,
          "durationTicks": 15,
          "midi": 44,
          "name": "G#2",
          "ticks": 91800,
          "time": 143.42831999999999,
          "velocity": 0.49606299212598426
        },
        {
          "duration": 0.023436000000003787,
          "durationTicks": 15,
          "midi": 70,
          "name": "A#4",
          "ticks": 91800,
          "time": 143.42831999999999,
          "velocity": 0.4645669291338583
        },
        {
          "duration": 0.023436000000003787,
          "durationTicks": 15,
          "midi": 82,
          "name": "A#5",
          "ticks": 91800,
          "time": 143.42831999999999,
          "velocity": 0.4015748031496063
        },
        {
          "duration": 0.023436000000003787,
          "durationTicks": 15,
          "midi": 43,
          "name": "G2",
          "ticks": 91920,
          "time": 143.615808,
          "velocity": 0.7716535433070866
        },
        {
          "duration": 0.023436000000003787,
          "durationTicks": 15,
          "midi": 46,
          "name": "A#2",
          "ticks": 91920,
          "time": 143.615808,
          "velocity": 0.6614173228346457
        },
        {
          "duration": 0.023436000000003787,
          "durationTicks": 15,
          "midi": 70,
          "name": "A#4",
          "ticks": 91920,
          "time": 143.615808,
          "velocity": 0.5354330708661418
        },
        {
          "duration": 0.023436000000003787,
          "durationTicks": 15,
          "midi": 82,
          "name": "A#5",
          "ticks": 91920,
          "time": 143.615808,
          "velocity": 0.41732283464566927
        },
        {
          "duration": 0.023436000000003787,
          "durationTicks": 15,
          "midi": 70,
          "name": "A#4",
          "ticks": 92040,
          "time": 143.803296,
          "velocity": 0.44881889763779526
        },
        {
          "duration": 0.023436000000003787,
          "durationTicks": 15,
          "midi": 82,
          "name": "A#5",
          "ticks": 92040,
          "time": 143.803296,
          "velocity": 0.33858267716535434
        },
        {
          "duration": 0.023436000000003787,
          "durationTicks": 15,
          "midi": 35,
          "name": "B1",
          "ticks": 92160,
          "time": 143.990784,
          "velocity": 0.952755905511811
        },
        {
          "duration": 0.023436000000003787,
          "durationTicks": 15,
          "midi": 44,
          "name": "G#2",
          "ticks": 92160,
          "time": 143.990784,
          "velocity": 0.7559055118110236
        },
        {
          "duration": 0.023436000000003787,
          "durationTicks": 15,
          "midi": 49,
          "name": "C#3",
          "ticks": 92160,
          "time": 143.990784,
          "velocity": 0.4645669291338583
        },
        {
          "duration": 0.023436000000003787,
          "durationTicks": 15,
          "midi": 59,
          "name": "B3",
          "ticks": 92160,
          "time": 143.990784,
          "velocity": 0.889763779527559
        },
        {
          "duration": 0.023436000000003787,
          "durationTicks": 15,
          "midi": 70,
          "name": "A#4",
          "ticks": 92160,
          "time": 143.990784,
          "velocity": 0.7322834645669292
        },
        {
          "duration": 0.023436000000003787,
          "durationTicks": 15,
          "midi": 44,
          "name": "G#2",
          "ticks": 92280,
          "time": 144.178272,
          "velocity": 0.4094488188976378
        },
        {
          "duration": 0.023436000000003787,
          "durationTicks": 15,
          "midi": 70,
          "name": "A#4",
          "ticks": 92280,
          "time": 144.178272,
          "velocity": 0.4645669291338583
        },
        {
          "duration": 0.023436000000003787,
          "durationTicks": 15,
          "midi": 44,
          "name": "G#2",
          "ticks": 92400,
          "time": 144.36576,
          "velocity": 0.6299212598425197
        },
        {
          "duration": 0.023436000000003787,
          "durationTicks": 15,
          "midi": 70,
          "name": "A#4",
          "ticks": 92400,
          "time": 144.36576,
          "velocity": 0.5354330708661418
        },
        {
          "duration": 0.023436000000003787,
          "durationTicks": 15,
          "midi": 82,
          "name": "A#5",
          "ticks": 92400,
          "time": 144.36576,
          "velocity": 0.3700787401574803
        },
        {
          "duration": 0.023436000000003787,
          "durationTicks": 15,
          "midi": 44,
          "name": "G#2",
          "ticks": 92520,
          "time": 144.553248,
          "velocity": 0.48031496062992124
        },
        {
          "duration": 0.023436000000003787,
          "durationTicks": 15,
          "midi": 70,
          "name": "A#4",
          "ticks": 92520,
          "time": 144.553248,
          "velocity": 0.44881889763779526
        },
        {
          "duration": 0.023436000000003787,
          "durationTicks": 15,
          "midi": 82,
          "name": "A#5",
          "ticks": 92520,
          "time": 144.553248,
          "velocity": 0.3858267716535433
        },
        {
          "duration": 0.023436000000003787,
          "durationTicks": 15,
          "midi": 37,
          "name": "C#2",
          "ticks": 92640,
          "time": 144.740736,
          "velocity": 1
        },
        {
          "duration": 0.023436000000003787,
          "durationTicks": 15,
          "midi": 44,
          "name": "G#2",
          "ticks": 92640,
          "time": 144.740736,
          "velocity": 0.7716535433070866
        },
        {
          "duration": 0.023436000000003787,
          "durationTicks": 15,
          "midi": 70,
          "name": "A#4",
          "ticks": 92640,
          "time": 144.740736,
          "velocity": 0.7322834645669292
        },
        {
          "duration": 0.023436000000003787,
          "durationTicks": 15,
          "midi": 82,
          "name": "A#5",
          "ticks": 92640,
          "time": 144.740736,
          "velocity": 0.49606299212598426
        },
        {
          "duration": 0.023436000000003787,
          "durationTicks": 15,
          "midi": 44,
          "name": "G#2",
          "ticks": 92760,
          "time": 144.928224,
          "velocity": 0.49606299212598426
        },
        {
          "duration": 0.023436000000003787,
          "durationTicks": 15,
          "midi": 70,
          "name": "A#4",
          "ticks": 92760,
          "time": 144.928224,
          "velocity": 0.4645669291338583
        },
        {
          "duration": 0.023435999999975365,
          "durationTicks": 15,
          "midi": 35,
          "name": "B1",
          "ticks": 92880,
          "time": 145.115712,
          "velocity": 0.6850393700787402
        },
        {
          "duration": 0.023435999999975365,
          "durationTicks": 15,
          "midi": 44,
          "name": "G#2",
          "ticks": 92880,
          "time": 145.115712,
          "velocity": 0.6141732283464567
        },
        {
          "duration": 0.023435999999975365,
          "durationTicks": 15,
          "midi": 70,
          "name": "A#4",
          "ticks": 92880,
          "time": 145.115712,
          "velocity": 0.5354330708661418
        },
        {
          "duration": 0.023435999999975365,
          "durationTicks": 15,
          "midi": 35,
          "name": "B1",
          "ticks": 93000,
          "time": 145.3032,
          "velocity": 0.6850393700787402
        },
        {
          "duration": 0.023435999999975365,
          "durationTicks": 15,
          "midi": 44,
          "name": "G#2",
          "ticks": 93000,
          "time": 145.3032,
          "velocity": 0.48031496062992124
        },
        {
          "duration": 0.023435999999975365,
          "durationTicks": 15,
          "midi": 70,
          "name": "A#4",
          "ticks": 93000,
          "time": 145.3032,
          "velocity": 0.44881889763779526
        },
        {
          "duration": 0.023435999999975365,
          "durationTicks": 15,
          "midi": 82,
          "name": "A#5",
          "ticks": 93000,
          "time": 145.3032,
          "velocity": 0.33070866141732286
        },
        {
          "duration": 0.023436000000003787,
          "durationTicks": 15,
          "midi": 35,
          "name": "B1",
          "ticks": 93120,
          "time": 145.49068799999998,
          "velocity": 0.8110236220472441
        },
        {
          "duration": 0.023436000000003787,
          "durationTicks": 15,
          "midi": 44,
          "name": "G#2",
          "ticks": 93120,
          "time": 145.49068799999998,
          "velocity": 0.7559055118110236
        },
        {
          "duration": 0.023436000000003787,
          "durationTicks": 15,
          "midi": 70,
          "name": "A#4",
          "ticks": 93120,
          "time": 145.49068799999998,
          "velocity": 0.7322834645669292
        },
        {
          "duration": 0.023436000000003787,
          "durationTicks": 15,
          "midi": 82,
          "name": "A#5",
          "ticks": 93120,
          "time": 145.49068799999998,
          "velocity": 0.33858267716535434
        },
        {
          "duration": 0.023436000000003787,
          "durationTicks": 15,
          "midi": 44,
          "name": "G#2",
          "ticks": 93240,
          "time": 145.67817599999998,
          "velocity": 0.4094488188976378
        },
        {
          "duration": 0.023436000000003787,
          "durationTicks": 15,
          "midi": 70,
          "name": "A#4",
          "ticks": 93240,
          "time": 145.67817599999998,
          "velocity": 0.4645669291338583
        },
        {
          "duration": 0.023436000000003787,
          "durationTicks": 15,
          "midi": 44,
          "name": "G#2",
          "ticks": 93360,
          "time": 145.86566399999998,
          "velocity": 0.6299212598425197
        },
        {
          "duration": 0.023436000000003787,
          "durationTicks": 15,
          "midi": 70,
          "name": "A#4",
          "ticks": 93360,
          "time": 145.86566399999998,
          "velocity": 0.5354330708661418
        },
        {
          "duration": 0.023436000000003787,
          "durationTicks": 15,
          "midi": 82,
          "name": "A#5",
          "ticks": 93360,
          "time": 145.86566399999998,
          "velocity": 0.3858267716535433
        },
        {
          "duration": 0.023436000000003787,
          "durationTicks": 15,
          "midi": 44,
          "name": "G#2",
          "ticks": 93480,
          "time": 146.05315199999998,
          "velocity": 0.48031496062992124
        },
        {
          "duration": 0.023436000000003787,
          "durationTicks": 15,
          "midi": 70,
          "name": "A#4",
          "ticks": 93480,
          "time": 146.05315199999998,
          "velocity": 0.44881889763779526
        },
        {
          "duration": 0.023436000000003787,
          "durationTicks": 15,
          "midi": 82,
          "name": "A#5",
          "ticks": 93480,
          "time": 146.05315199999998,
          "velocity": 0.41732283464566927
        },
        {
          "duration": 0.023436000000003787,
          "durationTicks": 15,
          "midi": 37,
          "name": "C#2",
          "ticks": 93600,
          "time": 146.24063999999998,
          "velocity": 0.984251968503937
        },
        {
          "duration": 0.023436000000003787,
          "durationTicks": 15,
          "midi": 43,
          "name": "G2",
          "ticks": 93600,
          "time": 146.24063999999998,
          "velocity": 0.8031496062992126
        },
        {
          "duration": 0.023436000000003787,
          "durationTicks": 15,
          "midi": 44,
          "name": "G#2",
          "ticks": 93600,
          "time": 146.24063999999998,
          "velocity": 0.7716535433070866
        },
        {
          "duration": 0.023436000000003787,
          "durationTicks": 15,
          "midi": 70,
          "name": "A#4",
          "ticks": 93600,
          "time": 146.24063999999998,
          "velocity": 0.7322834645669292
        },
        {
          "duration": 0.023436000000003787,
          "durationTicks": 15,
          "midi": 82,
          "name": "A#5",
          "ticks": 93600,
          "time": 146.24063999999998,
          "velocity": 0.4645669291338583
        },
        {
          "duration": 0.023436000000003787,
          "durationTicks": 15,
          "midi": 44,
          "name": "G#2",
          "ticks": 93720,
          "time": 146.428128,
          "velocity": 0.49606299212598426
        },
        {
          "duration": 0.023436000000003787,
          "durationTicks": 15,
          "midi": 70,
          "name": "A#4",
          "ticks": 93720,
          "time": 146.428128,
          "velocity": 0.4645669291338583
        },
        {
          "duration": 0.023436000000003787,
          "durationTicks": 15,
          "midi": 46,
          "name": "A#2",
          "ticks": 93840,
          "time": 146.615616,
          "velocity": 0.7086614173228346
        },
        {
          "duration": 0.023436000000003787,
          "durationTicks": 15,
          "midi": 70,
          "name": "A#4",
          "ticks": 93840,
          "time": 146.615616,
          "velocity": 0.5354330708661418
        },
        {
          "duration": 0.023436000000003787,
          "durationTicks": 15,
          "midi": 82,
          "name": "A#5",
          "ticks": 93840,
          "time": 146.615616,
          "velocity": 0.41732283464566927
        },
        {
          "duration": 0.023436000000003787,
          "durationTicks": 15,
          "midi": 70,
          "name": "A#4",
          "ticks": 93960,
          "time": 146.803104,
          "velocity": 0.44881889763779526
        },
        {
          "duration": 0.023436000000003787,
          "durationTicks": 15,
          "midi": 82,
          "name": "A#5",
          "ticks": 93960,
          "time": 146.803104,
          "velocity": 0.33858267716535434
        },
        {
          "duration": 0.023436000000003787,
          "durationTicks": 15,
          "midi": 35,
          "name": "B1",
          "ticks": 94080,
          "time": 146.990592,
          "velocity": 0.8110236220472441
        },
        {
          "duration": 0.023436000000003787,
          "durationTicks": 15,
          "midi": 44,
          "name": "G#2",
          "ticks": 94080,
          "time": 146.990592,
          "velocity": 0.7559055118110236
        },
        {
          "duration": 0.023436000000003787,
          "durationTicks": 15,
          "midi": 70,
          "name": "A#4",
          "ticks": 94080,
          "time": 146.990592,
          "velocity": 0.7322834645669292
        },
        {
          "duration": 0.023436000000003787,
          "durationTicks": 15,
          "midi": 44,
          "name": "G#2",
          "ticks": 94200,
          "time": 147.17808,
          "velocity": 0.4094488188976378
        },
        {
          "duration": 0.023436000000003787,
          "durationTicks": 15,
          "midi": 70,
          "name": "A#4",
          "ticks": 94200,
          "time": 147.17808,
          "velocity": 0.4645669291338583
        },
        {
          "duration": 0.023436000000003787,
          "durationTicks": 15,
          "midi": 44,
          "name": "G#2",
          "ticks": 94320,
          "time": 147.365568,
          "velocity": 0.6299212598425197
        },
        {
          "duration": 0.023436000000003787,
          "durationTicks": 15,
          "midi": 70,
          "name": "A#4",
          "ticks": 94320,
          "time": 147.365568,
          "velocity": 0.5354330708661418
        },
        {
          "duration": 0.023436000000003787,
          "durationTicks": 15,
          "midi": 82,
          "name": "A#5",
          "ticks": 94320,
          "time": 147.365568,
          "velocity": 0.3700787401574803
        },
        {
          "duration": 0.023436000000003787,
          "durationTicks": 15,
          "midi": 44,
          "name": "G#2",
          "ticks": 94440,
          "time": 147.553056,
          "velocity": 0.48031496062992124
        },
        {
          "duration": 0.023436000000003787,
          "durationTicks": 15,
          "midi": 70,
          "name": "A#4",
          "ticks": 94440,
          "time": 147.553056,
          "velocity": 0.44881889763779526
        },
        {
          "duration": 0.023436000000003787,
          "durationTicks": 15,
          "midi": 82,
          "name": "A#5",
          "ticks": 94440,
          "time": 147.553056,
          "velocity": 0.3858267716535433
        },
        {
          "duration": 0.023436000000003787,
          "durationTicks": 15,
          "midi": 37,
          "name": "C#2",
          "ticks": 94560,
          "time": 147.740544,
          "velocity": 1
        },
        {
          "duration": 0.023436000000003787,
          "durationTicks": 15,
          "midi": 44,
          "name": "G#2",
          "ticks": 94560,
          "time": 147.740544,
          "velocity": 0.7716535433070866
        },
        {
          "duration": 0.023436000000003787,
          "durationTicks": 15,
          "midi": 70,
          "name": "A#4",
          "ticks": 94560,
          "time": 147.740544,
          "velocity": 0.7322834645669292
        },
        {
          "duration": 0.023436000000003787,
          "durationTicks": 15,
          "midi": 82,
          "name": "A#5",
          "ticks": 94560,
          "time": 147.740544,
          "velocity": 0.49606299212598426
        },
        {
          "duration": 0.023435999999975365,
          "durationTicks": 15,
          "midi": 44,
          "name": "G#2",
          "ticks": 94680,
          "time": 147.928032,
          "velocity": 0.49606299212598426
        },
        {
          "duration": 0.023435999999975365,
          "durationTicks": 15,
          "midi": 70,
          "name": "A#4",
          "ticks": 94680,
          "time": 147.928032,
          "velocity": 0.4645669291338583
        },
        {
          "duration": 0.023435999999975365,
          "durationTicks": 15,
          "midi": 35,
          "name": "B1",
          "ticks": 94800,
          "time": 148.11552,
          "velocity": 0.7952755905511811
        },
        {
          "duration": 0.023435999999975365,
          "durationTicks": 15,
          "midi": 46,
          "name": "A#2",
          "ticks": 94800,
          "time": 148.11552,
          "velocity": 0.7086614173228346
        },
        {
          "duration": 0.023435999999975365,
          "durationTicks": 15,
          "midi": 70,
          "name": "A#4",
          "ticks": 94800,
          "time": 148.11552,
          "velocity": 0.5354330708661418
        },
        {
          "duration": 0.023436000000003787,
          "durationTicks": 15,
          "midi": 70,
          "name": "A#4",
          "ticks": 94920,
          "time": 148.30300799999998,
          "velocity": 0.44881889763779526
        },
        {
          "duration": 0.023436000000003787,
          "durationTicks": 15,
          "midi": 82,
          "name": "A#5",
          "ticks": 94920,
          "time": 148.30300799999998,
          "velocity": 0.33070866141732286
        },
        {
          "duration": 0.023436000000003787,
          "durationTicks": 15,
          "midi": 35,
          "name": "B1",
          "ticks": 95040,
          "time": 148.49049599999998,
          "velocity": 0.8110236220472441
        },
        {
          "duration": 0.023436000000003787,
          "durationTicks": 15,
          "midi": 44,
          "name": "G#2",
          "ticks": 95040,
          "time": 148.49049599999998,
          "velocity": 0.7559055118110236
        },
        {
          "duration": 0.023436000000003787,
          "durationTicks": 15,
          "midi": 70,
          "name": "A#4",
          "ticks": 95040,
          "time": 148.49049599999998,
          "velocity": 0.7322834645669292
        },
        {
          "duration": 0.023436000000003787,
          "durationTicks": 15,
          "midi": 82,
          "name": "A#5",
          "ticks": 95040,
          "time": 148.49049599999998,
          "velocity": 0.33858267716535434
        },
        {
          "duration": 0.023436000000003787,
          "durationTicks": 15,
          "midi": 44,
          "name": "G#2",
          "ticks": 95160,
          "time": 148.67798399999998,
          "velocity": 0.4094488188976378
        },
        {
          "duration": 0.023436000000003787,
          "durationTicks": 15,
          "midi": 70,
          "name": "A#4",
          "ticks": 95160,
          "time": 148.67798399999998,
          "velocity": 0.4645669291338583
        },
        {
          "duration": 0.023436000000003787,
          "durationTicks": 15,
          "midi": 46,
          "name": "A#2",
          "ticks": 95280,
          "time": 148.86547199999998,
          "velocity": 0.7086614173228346
        },
        {
          "duration": 0.023436000000003787,
          "durationTicks": 15,
          "midi": 70,
          "name": "A#4",
          "ticks": 95280,
          "time": 148.86547199999998,
          "velocity": 0.5354330708661418
        },
        {
          "duration": 0.023436000000003787,
          "durationTicks": 15,
          "midi": 82,
          "name": "A#5",
          "ticks": 95280,
          "time": 148.86547199999998,
          "velocity": 0.3858267716535433
        },
        {
          "duration": 0.023436000000003787,
          "durationTicks": 15,
          "midi": 70,
          "name": "A#4",
          "ticks": 95400,
          "time": 149.05295999999998,
          "velocity": 0.44881889763779526
        },
        {
          "duration": 0.023436000000003787,
          "durationTicks": 15,
          "midi": 82,
          "name": "A#5",
          "ticks": 95400,
          "time": 149.05295999999998,
          "velocity": 0.41732283464566927
        },
        {
          "duration": 0.023436000000003787,
          "durationTicks": 15,
          "midi": 37,
          "name": "C#2",
          "ticks": 95520,
          "time": 149.240448,
          "velocity": 0.984251968503937
        },
        {
          "duration": 0.023436000000003787,
          "durationTicks": 15,
          "midi": 43,
          "name": "G2",
          "ticks": 95520,
          "time": 149.240448,
          "velocity": 0.8267716535433071
        },
        {
          "duration": 0.023436000000003787,
          "durationTicks": 15,
          "midi": 44,
          "name": "G#2",
          "ticks": 95520,
          "time": 149.240448,
          "velocity": 0.7716535433070866
        },
        {
          "duration": 0.023436000000003787,
          "durationTicks": 15,
          "midi": 70,
          "name": "A#4",
          "ticks": 95520,
          "time": 149.240448,
          "velocity": 0.7322834645669292
        },
        {
          "duration": 0.023436000000003787,
          "durationTicks": 15,
          "midi": 82,
          "name": "A#5",
          "ticks": 95520,
          "time": 149.240448,
          "velocity": 0.4645669291338583
        },
        {
          "duration": 0.023436000000003787,
          "durationTicks": 15,
          "midi": 44,
          "name": "G#2",
          "ticks": 95640,
          "time": 149.427936,
          "velocity": 0.49606299212598426
        },
        {
          "duration": 0.023436000000003787,
          "durationTicks": 15,
          "midi": 70,
          "name": "A#4",
          "ticks": 95640,
          "time": 149.427936,
          "velocity": 0.4645669291338583
        },
        {
          "duration": 0.023436000000003787,
          "durationTicks": 15,
          "midi": 46,
          "name": "A#2",
          "ticks": 95760,
          "time": 149.615424,
          "velocity": 0.6614173228346457
        },
        {
          "duration": 0.023436000000003787,
          "durationTicks": 15,
          "midi": 70,
          "name": "A#4",
          "ticks": 95760,
          "time": 149.615424,
          "velocity": 0.5354330708661418
        },
        {
          "duration": 0.023436000000003787,
          "durationTicks": 15,
          "midi": 82,
          "name": "A#5",
          "ticks": 95760,
          "time": 149.615424,
          "velocity": 0.41732283464566927
        },
        {
          "duration": 0.023436000000003787,
          "durationTicks": 15,
          "midi": 35,
          "name": "B1",
          "ticks": 95880,
          "time": 149.802912,
          "velocity": 0.8110236220472441
        },
        {
          "duration": 0.023436000000003787,
          "durationTicks": 15,
          "midi": 70,
          "name": "A#4",
          "ticks": 95880,
          "time": 149.802912,
          "velocity": 0.44881889763779526
        },
        {
          "duration": 0.023436000000003787,
          "durationTicks": 15,
          "midi": 82,
          "name": "A#5",
          "ticks": 95880,
          "time": 149.802912,
          "velocity": 0.33858267716535434
        },
        {
          "duration": 0.023436000000003787,
          "durationTicks": 15,
          "midi": 35,
          "name": "B1",
          "ticks": 96000,
          "time": 149.9904,
          "velocity": 0.8110236220472441
        },
        {
          "duration": 0.023436000000003787,
          "durationTicks": 15,
          "midi": 44,
          "name": "G#2",
          "ticks": 96000,
          "time": 149.9904,
          "velocity": 0.7559055118110236
        },
        {
          "duration": 0.023436000000003787,
          "durationTicks": 15,
          "midi": 49,
          "name": "C#3",
          "ticks": 96000,
          "time": 149.9904,
          "velocity": 0.4645669291338583
        },
        {
          "duration": 0.023436000000003787,
          "durationTicks": 15,
          "midi": 59,
          "name": "B3",
          "ticks": 96000,
          "time": 149.9904,
          "velocity": 0.889763779527559
        },
        {
          "duration": 0.023436000000003787,
          "durationTicks": 15,
          "midi": 70,
          "name": "A#4",
          "ticks": 96000,
          "time": 149.9904,
          "velocity": 0.7322834645669292
        },
        {
          "duration": 0.023436000000003787,
          "durationTicks": 15,
          "midi": 44,
          "name": "G#2",
          "ticks": 96120,
          "time": 150.177888,
          "velocity": 0.4094488188976378
        },
        {
          "duration": 0.023436000000003787,
          "durationTicks": 15,
          "midi": 70,
          "name": "A#4",
          "ticks": 96120,
          "time": 150.177888,
          "velocity": 0.4645669291338583
        },
        {
          "duration": 0.023436000000003787,
          "durationTicks": 15,
          "midi": 44,
          "name": "G#2",
          "ticks": 96240,
          "time": 150.365376,
          "velocity": 0.6299212598425197
        },
        {
          "duration": 0.023436000000003787,
          "durationTicks": 15,
          "midi": 70,
          "name": "A#4",
          "ticks": 96240,
          "time": 150.365376,
          "velocity": 0.5354330708661418
        },
        {
          "duration": 0.023436000000003787,
          "durationTicks": 15,
          "midi": 82,
          "name": "A#5",
          "ticks": 96240,
          "time": 150.365376,
          "velocity": 0.3700787401574803
        },
        {
          "duration": 0.023436000000003787,
          "durationTicks": 15,
          "midi": 44,
          "name": "G#2",
          "ticks": 96360,
          "time": 150.552864,
          "velocity": 0.48031496062992124
        },
        {
          "duration": 0.023436000000003787,
          "durationTicks": 15,
          "midi": 70,
          "name": "A#4",
          "ticks": 96360,
          "time": 150.552864,
          "velocity": 0.44881889763779526
        },
        {
          "duration": 0.023436000000003787,
          "durationTicks": 15,
          "midi": 82,
          "name": "A#5",
          "ticks": 96360,
          "time": 150.552864,
          "velocity": 0.3858267716535433
        },
        {
          "duration": 0.023435999999975365,
          "durationTicks": 15,
          "midi": 37,
          "name": "C#2",
          "ticks": 96480,
          "time": 150.740352,
          "velocity": 1
        },
        {
          "duration": 0.023435999999975365,
          "durationTicks": 15,
          "midi": 44,
          "name": "G#2",
          "ticks": 96480,
          "time": 150.740352,
          "velocity": 0.7716535433070866
        },
        {
          "duration": 0.023435999999975365,
          "durationTicks": 15,
          "midi": 70,
          "name": "A#4",
          "ticks": 96480,
          "time": 150.740352,
          "velocity": 0.7322834645669292
        },
        {
          "duration": 0.023435999999975365,
          "durationTicks": 15,
          "midi": 82,
          "name": "A#5",
          "ticks": 96480,
          "time": 150.740352,
          "velocity": 0.49606299212598426
        },
        {
          "duration": 0.023435999999975365,
          "durationTicks": 15,
          "midi": 44,
          "name": "G#2",
          "ticks": 96600,
          "time": 150.92784,
          "velocity": 0.49606299212598426
        },
        {
          "duration": 0.023435999999975365,
          "durationTicks": 15,
          "midi": 70,
          "name": "A#4",
          "ticks": 96600,
          "time": 150.92784,
          "velocity": 0.4645669291338583
        },
        {
          "duration": 0.023436000000003787,
          "durationTicks": 15,
          "midi": 35,
          "name": "B1",
          "ticks": 96720,
          "time": 151.11532799999998,
          "velocity": 0.6850393700787402
        },
        {
          "duration": 0.023436000000003787,
          "durationTicks": 15,
          "midi": 44,
          "name": "G#2",
          "ticks": 96720,
          "time": 151.11532799999998,
          "velocity": 0.6141732283464567
        },
        {
          "duration": 0.023436000000003787,
          "durationTicks": 15,
          "midi": 70,
          "name": "A#4",
          "ticks": 96720,
          "time": 151.11532799999998,
          "velocity": 0.5354330708661418
        },
        {
          "duration": 0.023436000000003787,
          "durationTicks": 15,
          "midi": 35,
          "name": "B1",
          "ticks": 96840,
          "time": 151.30281599999998,
          "velocity": 0.6850393700787402
        },
        {
          "duration": 0.023436000000003787,
          "durationTicks": 15,
          "midi": 44,
          "name": "G#2",
          "ticks": 96840,
          "time": 151.30281599999998,
          "velocity": 0.48031496062992124
        },
        {
          "duration": 0.023436000000003787,
          "durationTicks": 15,
          "midi": 70,
          "name": "A#4",
          "ticks": 96840,
          "time": 151.30281599999998,
          "velocity": 0.44881889763779526
        },
        {
          "duration": 0.023436000000003787,
          "durationTicks": 15,
          "midi": 82,
          "name": "A#5",
          "ticks": 96840,
          "time": 151.30281599999998,
          "velocity": 0.33070866141732286
        },
        {
          "duration": 0.023436000000003787,
          "durationTicks": 15,
          "midi": 35,
          "name": "B1",
          "ticks": 96960,
          "time": 151.49030399999998,
          "velocity": 0.8110236220472441
        },
        {
          "duration": 0.023436000000003787,
          "durationTicks": 15,
          "midi": 44,
          "name": "G#2",
          "ticks": 96960,
          "time": 151.49030399999998,
          "velocity": 0.7559055118110236
        },
        {
          "duration": 0.023436000000003787,
          "durationTicks": 15,
          "midi": 70,
          "name": "A#4",
          "ticks": 96960,
          "time": 151.49030399999998,
          "velocity": 0.7322834645669292
        },
        {
          "duration": 0.023436000000003787,
          "durationTicks": 15,
          "midi": 82,
          "name": "A#5",
          "ticks": 96960,
          "time": 151.49030399999998,
          "velocity": 0.33858267716535434
        },
        {
          "duration": 0.023436000000003787,
          "durationTicks": 15,
          "midi": 44,
          "name": "G#2",
          "ticks": 97080,
          "time": 151.67779199999998,
          "velocity": 0.4094488188976378
        },
        {
          "duration": 0.023436000000003787,
          "durationTicks": 15,
          "midi": 70,
          "name": "A#4",
          "ticks": 97080,
          "time": 151.67779199999998,
          "velocity": 0.4645669291338583
        },
        {
          "duration": 0.023436000000003787,
          "durationTicks": 15,
          "midi": 44,
          "name": "G#2",
          "ticks": 97200,
          "time": 151.86527999999998,
          "velocity": 0.6299212598425197
        },
        {
          "duration": 0.023436000000003787,
          "durationTicks": 15,
          "midi": 70,
          "name": "A#4",
          "ticks": 97200,
          "time": 151.86527999999998,
          "velocity": 0.5354330708661418
        },
        {
          "duration": 0.023436000000003787,
          "durationTicks": 15,
          "midi": 82,
          "name": "A#5",
          "ticks": 97200,
          "time": 151.86527999999998,
          "velocity": 0.3858267716535433
        },
        {
          "duration": 0.023436000000003787,
          "durationTicks": 15,
          "midi": 44,
          "name": "G#2",
          "ticks": 97320,
          "time": 152.052768,
          "velocity": 0.48031496062992124
        },
        {
          "duration": 0.023436000000003787,
          "durationTicks": 15,
          "midi": 70,
          "name": "A#4",
          "ticks": 97320,
          "time": 152.052768,
          "velocity": 0.44881889763779526
        },
        {
          "duration": 0.023436000000003787,
          "durationTicks": 15,
          "midi": 82,
          "name": "A#5",
          "ticks": 97320,
          "time": 152.052768,
          "velocity": 0.41732283464566927
        },
        {
          "duration": 0.023436000000003787,
          "durationTicks": 15,
          "midi": 37,
          "name": "C#2",
          "ticks": 97440,
          "time": 152.240256,
          "velocity": 0.984251968503937
        },
        {
          "duration": 0.023436000000003787,
          "durationTicks": 15,
          "midi": 43,
          "name": "G2",
          "ticks": 97440,
          "time": 152.240256,
          "velocity": 0.8267716535433071
        },
        {
          "duration": 0.023436000000003787,
          "durationTicks": 15,
          "midi": 44,
          "name": "G#2",
          "ticks": 97440,
          "time": 152.240256,
          "velocity": 0.7716535433070866
        },
        {
          "duration": 0.023436000000003787,
          "durationTicks": 15,
          "midi": 70,
          "name": "A#4",
          "ticks": 97440,
          "time": 152.240256,
          "velocity": 0.7322834645669292
        },
        {
          "duration": 0.023436000000003787,
          "durationTicks": 15,
          "midi": 82,
          "name": "A#5",
          "ticks": 97440,
          "time": 152.240256,
          "velocity": 0.4645669291338583
        },
        {
          "duration": 0.023436000000003787,
          "durationTicks": 15,
          "midi": 44,
          "name": "G#2",
          "ticks": 97560,
          "time": 152.427744,
          "velocity": 0.49606299212598426
        },
        {
          "duration": 0.023436000000003787,
          "durationTicks": 15,
          "midi": 70,
          "name": "A#4",
          "ticks": 97560,
          "time": 152.427744,
          "velocity": 0.4645669291338583
        },
        {
          "duration": 0.023436000000003787,
          "durationTicks": 15,
          "midi": 46,
          "name": "A#2",
          "ticks": 97680,
          "time": 152.615232,
          "velocity": 0.7086614173228346
        },
        {
          "duration": 0.023436000000003787,
          "durationTicks": 15,
          "midi": 70,
          "name": "A#4",
          "ticks": 97680,
          "time": 152.615232,
          "velocity": 0.5354330708661418
        },
        {
          "duration": 0.023436000000003787,
          "durationTicks": 15,
          "midi": 82,
          "name": "A#5",
          "ticks": 97680,
          "time": 152.615232,
          "velocity": 0.41732283464566927
        },
        {
          "duration": 0.023436000000003787,
          "durationTicks": 15,
          "midi": 70,
          "name": "A#4",
          "ticks": 97800,
          "time": 152.80272,
          "velocity": 0.44881889763779526
        },
        {
          "duration": 0.023436000000003787,
          "durationTicks": 15,
          "midi": 82,
          "name": "A#5",
          "ticks": 97800,
          "time": 152.80272,
          "velocity": 0.33858267716535434
        },
        {
          "duration": 0.023436000000003787,
          "durationTicks": 15,
          "midi": 35,
          "name": "B1",
          "ticks": 97920,
          "time": 152.990208,
          "velocity": 0.8110236220472441
        },
        {
          "duration": 0.023436000000003787,
          "durationTicks": 15,
          "midi": 44,
          "name": "G#2",
          "ticks": 97920,
          "time": 152.990208,
          "velocity": 0.7559055118110236
        },
        {
          "duration": 0.023436000000003787,
          "durationTicks": 15,
          "midi": 70,
          "name": "A#4",
          "ticks": 97920,
          "time": 152.990208,
          "velocity": 0.7322834645669292
        },
        {
          "duration": 0.023436000000003787,
          "durationTicks": 15,
          "midi": 44,
          "name": "G#2",
          "ticks": 98040,
          "time": 153.177696,
          "velocity": 0.4094488188976378
        },
        {
          "duration": 0.023436000000003787,
          "durationTicks": 15,
          "midi": 70,
          "name": "A#4",
          "ticks": 98040,
          "time": 153.177696,
          "velocity": 0.4645669291338583
        },
        {
          "duration": 0.023436000000003787,
          "durationTicks": 15,
          "midi": 44,
          "name": "G#2",
          "ticks": 98160,
          "time": 153.365184,
          "velocity": 0.6299212598425197
        },
        {
          "duration": 0.023436000000003787,
          "durationTicks": 15,
          "midi": 70,
          "name": "A#4",
          "ticks": 98160,
          "time": 153.365184,
          "velocity": 0.5354330708661418
        },
        {
          "duration": 0.023436000000003787,
          "durationTicks": 15,
          "midi": 82,
          "name": "A#5",
          "ticks": 98160,
          "time": 153.365184,
          "velocity": 0.3700787401574803
        },
        {
          "duration": 0.023435999999975365,
          "durationTicks": 15,
          "midi": 44,
          "name": "G#2",
          "ticks": 98280,
          "time": 153.552672,
          "velocity": 0.48031496062992124
        },
        {
          "duration": 0.023435999999975365,
          "durationTicks": 15,
          "midi": 70,
          "name": "A#4",
          "ticks": 98280,
          "time": 153.552672,
          "velocity": 0.44881889763779526
        },
        {
          "duration": 0.023435999999975365,
          "durationTicks": 15,
          "midi": 82,
          "name": "A#5",
          "ticks": 98280,
          "time": 153.552672,
          "velocity": 0.3858267716535433
        },
        {
          "duration": 0.023435999999975365,
          "durationTicks": 15,
          "midi": 37,
          "name": "C#2",
          "ticks": 98400,
          "time": 153.74016,
          "velocity": 1
        },
        {
          "duration": 0.023435999999975365,
          "durationTicks": 15,
          "midi": 44,
          "name": "G#2",
          "ticks": 98400,
          "time": 153.74016,
          "velocity": 0.7716535433070866
        },
        {
          "duration": 0.023435999999975365,
          "durationTicks": 15,
          "midi": 70,
          "name": "A#4",
          "ticks": 98400,
          "time": 153.74016,
          "velocity": 0.7322834645669292
        },
        {
          "duration": 0.023435999999975365,
          "durationTicks": 15,
          "midi": 82,
          "name": "A#5",
          "ticks": 98400,
          "time": 153.74016,
          "velocity": 0.49606299212598426
        },
        {
          "duration": 0.023436000000003787,
          "durationTicks": 15,
          "midi": 44,
          "name": "G#2",
          "ticks": 98520,
          "time": 153.92764799999998,
          "velocity": 0.49606299212598426
        },
        {
          "duration": 0.023436000000003787,
          "durationTicks": 15,
          "midi": 70,
          "name": "A#4",
          "ticks": 98520,
          "time": 153.92764799999998,
          "velocity": 0.4645669291338583
        },
        {
          "duration": 0.023436000000003787,
          "durationTicks": 15,
          "midi": 35,
          "name": "B1",
          "ticks": 98640,
          "time": 154.11513599999998,
          "velocity": 0.8110236220472441
        },
        {
          "duration": 0.023436000000003787,
          "durationTicks": 15,
          "midi": 46,
          "name": "A#2",
          "ticks": 98640,
          "time": 154.11513599999998,
          "velocity": 0.7086614173228346
        },
        {
          "duration": 0.023436000000003787,
          "durationTicks": 15,
          "midi": 70,
          "name": "A#4",
          "ticks": 98640,
          "time": 154.11513599999998,
          "velocity": 0.5354330708661418
        },
        {
          "duration": 0.023436000000003787,
          "durationTicks": 15,
          "midi": 70,
          "name": "A#4",
          "ticks": 98760,
          "time": 154.30262399999998,
          "velocity": 0.44881889763779526
        },
        {
          "duration": 0.023436000000003787,
          "durationTicks": 15,
          "midi": 82,
          "name": "A#5",
          "ticks": 98760,
          "time": 154.30262399999998,
          "velocity": 0.33070866141732286
        },
        {
          "duration": 0.023436000000003787,
          "durationTicks": 15,
          "midi": 35,
          "name": "B1",
          "ticks": 98880,
          "time": 154.49011199999998,
          "velocity": 0.8110236220472441
        },
        {
          "duration": 0.023436000000003787,
          "durationTicks": 15,
          "midi": 44,
          "name": "G#2",
          "ticks": 98880,
          "time": 154.49011199999998,
          "velocity": 0.7559055118110236
        },
        {
          "duration": 0.023436000000003787,
          "durationTicks": 15,
          "midi": 70,
          "name": "A#4",
          "ticks": 98880,
          "time": 154.49011199999998,
          "velocity": 0.7322834645669292
        },
        {
          "duration": 0.023436000000003787,
          "durationTicks": 15,
          "midi": 82,
          "name": "A#5",
          "ticks": 98880,
          "time": 154.49011199999998,
          "velocity": 0.33858267716535434
        },
        {
          "duration": 0.023436000000003787,
          "durationTicks": 15,
          "midi": 44,
          "name": "G#2",
          "ticks": 99000,
          "time": 154.67759999999998,
          "velocity": 0.4094488188976378
        },
        {
          "duration": 0.023436000000003787,
          "durationTicks": 15,
          "midi": 70,
          "name": "A#4",
          "ticks": 99000,
          "time": 154.67759999999998,
          "velocity": 0.4645669291338583
        },
        {
          "duration": 0.023436000000003787,
          "durationTicks": 15,
          "midi": 46,
          "name": "A#2",
          "ticks": 99120,
          "time": 154.865088,
          "velocity": 0.7086614173228346
        },
        {
          "duration": 0.023436000000003787,
          "durationTicks": 15,
          "midi": 70,
          "name": "A#4",
          "ticks": 99120,
          "time": 154.865088,
          "velocity": 0.5354330708661418
        },
        {
          "duration": 0.023436000000003787,
          "durationTicks": 15,
          "midi": 82,
          "name": "A#5",
          "ticks": 99120,
          "time": 154.865088,
          "velocity": 0.3858267716535433
        },
        {
          "duration": 0.023436000000003787,
          "durationTicks": 15,
          "midi": 70,
          "name": "A#4",
          "ticks": 99240,
          "time": 155.052576,
          "velocity": 0.44881889763779526
        },
        {
          "duration": 0.023436000000003787,
          "durationTicks": 15,
          "midi": 82,
          "name": "A#5",
          "ticks": 99240,
          "time": 155.052576,
          "velocity": 0.41732283464566927
        },
        {
          "duration": 0.023436000000003787,
          "durationTicks": 15,
          "midi": 37,
          "name": "C#2",
          "ticks": 99360,
          "time": 155.240064,
          "velocity": 0.984251968503937
        },
        {
          "duration": 0.023436000000003787,
          "durationTicks": 15,
          "midi": 43,
          "name": "G2",
          "ticks": 99360,
          "time": 155.240064,
          "velocity": 0.8267716535433071
        },
        {
          "duration": 0.023436000000003787,
          "durationTicks": 15,
          "midi": 44,
          "name": "G#2",
          "ticks": 99360,
          "time": 155.240064,
          "velocity": 0.7716535433070866
        },
        {
          "duration": 0.023436000000003787,
          "durationTicks": 15,
          "midi": 70,
          "name": "A#4",
          "ticks": 99360,
          "time": 155.240064,
          "velocity": 0.7322834645669292
        },
        {
          "duration": 0.023436000000003787,
          "durationTicks": 15,
          "midi": 82,
          "name": "A#5",
          "ticks": 99360,
          "time": 155.240064,
          "velocity": 0.4645669291338583
        },
        {
          "duration": 0.023436000000003787,
          "durationTicks": 15,
          "midi": 44,
          "name": "G#2",
          "ticks": 99480,
          "time": 155.427552,
          "velocity": 0.49606299212598426
        },
        {
          "duration": 0.023436000000003787,
          "durationTicks": 15,
          "midi": 70,
          "name": "A#4",
          "ticks": 99480,
          "time": 155.427552,
          "velocity": 0.4645669291338583
        },
        {
          "duration": 0.023436000000003787,
          "durationTicks": 15,
          "midi": 46,
          "name": "A#2",
          "ticks": 99600,
          "time": 155.61504,
          "velocity": 0.6614173228346457
        },
        {
          "duration": 0.023436000000003787,
          "durationTicks": 15,
          "midi": 70,
          "name": "A#4",
          "ticks": 99600,
          "time": 155.61504,
          "velocity": 0.5354330708661418
        },
        {
          "duration": 0.023436000000003787,
          "durationTicks": 15,
          "midi": 82,
          "name": "A#5",
          "ticks": 99600,
          "time": 155.61504,
          "velocity": 0.41732283464566927
        },
        {
          "duration": 0.023436000000003787,
          "durationTicks": 15,
          "midi": 35,
          "name": "B1",
          "ticks": 99720,
          "time": 155.802528,
          "velocity": 0.8110236220472441
        },
        {
          "duration": 0.023436000000003787,
          "durationTicks": 15,
          "midi": 70,
          "name": "A#4",
          "ticks": 99720,
          "time": 155.802528,
          "velocity": 0.44881889763779526
        },
        {
          "duration": 0.023436000000003787,
          "durationTicks": 15,
          "midi": 82,
          "name": "A#5",
          "ticks": 99720,
          "time": 155.802528,
          "velocity": 0.33858267716535434
        },
        {
          "duration": 0.023436000000003787,
          "durationTicks": 15,
          "midi": 35,
          "name": "B1",
          "ticks": 99840,
          "time": 155.990016,
          "velocity": 0.8503937007874016
        },
        {
          "duration": 0.023436000000003787,
          "durationTicks": 15,
          "midi": 44,
          "name": "G#2",
          "ticks": 99840,
          "time": 155.990016,
          "velocity": 0.7559055118110236
        },
        {
          "duration": 0.023436000000003787,
          "durationTicks": 15,
          "midi": 49,
          "name": "C#3",
          "ticks": 99840,
          "time": 155.990016,
          "velocity": 0.4645669291338583
        },
        {
          "duration": 0.023436000000003787,
          "durationTicks": 15,
          "midi": 59,
          "name": "B3",
          "ticks": 99840,
          "time": 155.990016,
          "velocity": 0.889763779527559
        },
        {
          "duration": 0.023436000000003787,
          "durationTicks": 15,
          "midi": 70,
          "name": "A#4",
          "ticks": 99840,
          "time": 155.990016,
          "velocity": 0.7322834645669292
        },
        {
          "duration": 0.023436000000003787,
          "durationTicks": 15,
          "midi": 44,
          "name": "G#2",
          "ticks": 99960,
          "time": 156.177504,
          "velocity": 0.4094488188976378
        },
        {
          "duration": 0.023436000000003787,
          "durationTicks": 15,
          "midi": 70,
          "name": "A#4",
          "ticks": 99960,
          "time": 156.177504,
          "velocity": 0.4645669291338583
        },
        {
          "duration": 0.023435999999975365,
          "durationTicks": 15,
          "midi": 44,
          "name": "G#2",
          "ticks": 100080,
          "time": 156.364992,
          "velocity": 0.6299212598425197
        },
        {
          "duration": 0.023435999999975365,
          "durationTicks": 15,
          "midi": 70,
          "name": "A#4",
          "ticks": 100080,
          "time": 156.364992,
          "velocity": 0.5354330708661418
        },
        {
          "duration": 0.023435999999975365,
          "durationTicks": 15,
          "midi": 82,
          "name": "A#5",
          "ticks": 100080,
          "time": 156.364992,
          "velocity": 0.3700787401574803
        },
        {
          "duration": 0.023435999999975365,
          "durationTicks": 15,
          "midi": 44,
          "name": "G#2",
          "ticks": 100200,
          "time": 156.55248,
          "velocity": 0.48031496062992124
        },
        {
          "duration": 0.023435999999975365,
          "durationTicks": 15,
          "midi": 70,
          "name": "A#4",
          "ticks": 100200,
          "time": 156.55248,
          "velocity": 0.44881889763779526
        },
        {
          "duration": 0.023435999999975365,
          "durationTicks": 15,
          "midi": 82,
          "name": "A#5",
          "ticks": 100200,
          "time": 156.55248,
          "velocity": 0.3858267716535433
        },
        {
          "duration": 0.023436000000003787,
          "durationTicks": 15,
          "midi": 37,
          "name": "C#2",
          "ticks": 100320,
          "time": 156.73996799999998,
          "velocity": 1
        },
        {
          "duration": 0.023436000000003787,
          "durationTicks": 15,
          "midi": 44,
          "name": "G#2",
          "ticks": 100320,
          "time": 156.73996799999998,
          "velocity": 0.7716535433070866
        },
        {
          "duration": 0.023436000000003787,
          "durationTicks": 15,
          "midi": 70,
          "name": "A#4",
          "ticks": 100320,
          "time": 156.73996799999998,
          "velocity": 0.7322834645669292
        },
        {
          "duration": 0.023436000000003787,
          "durationTicks": 15,
          "midi": 82,
          "name": "A#5",
          "ticks": 100320,
          "time": 156.73996799999998,
          "velocity": 0.49606299212598426
        },
        {
          "duration": 0.023436000000003787,
          "durationTicks": 15,
          "midi": 44,
          "name": "G#2",
          "ticks": 100440,
          "time": 156.92745599999998,
          "velocity": 0.49606299212598426
        },
        {
          "duration": 0.023436000000003787,
          "durationTicks": 15,
          "midi": 70,
          "name": "A#4",
          "ticks": 100440,
          "time": 156.92745599999998,
          "velocity": 0.4645669291338583
        },
        {
          "duration": 0.023436000000003787,
          "durationTicks": 15,
          "midi": 44,
          "name": "G#2",
          "ticks": 100560,
          "time": 157.11494399999998,
          "velocity": 0.6141732283464567
        },
        {
          "duration": 0.023436000000003787,
          "durationTicks": 15,
          "midi": 70,
          "name": "A#4",
          "ticks": 100560,
          "time": 157.11494399999998,
          "velocity": 0.5354330708661418
        },
        {
          "duration": 0.023436000000003787,
          "durationTicks": 15,
          "midi": 35,
          "name": "B1",
          "ticks": 100680,
          "time": 157.30243199999998,
          "velocity": 0.8188976377952756
        },
        {
          "duration": 0.023436000000003787,
          "durationTicks": 15,
          "midi": 44,
          "name": "G#2",
          "ticks": 100680,
          "time": 157.30243199999998,
          "velocity": 0.48031496062992124
        },
        {
          "duration": 0.023436000000003787,
          "durationTicks": 15,
          "midi": 70,
          "name": "A#4",
          "ticks": 100680,
          "time": 157.30243199999998,
          "velocity": 0.44881889763779526
        },
        {
          "duration": 0.023436000000003787,
          "durationTicks": 15,
          "midi": 82,
          "name": "A#5",
          "ticks": 100680,
          "time": 157.30243199999998,
          "velocity": 0.33070866141732286
        },
        {
          "duration": 0.023436000000003787,
          "durationTicks": 15,
          "midi": 35,
          "name": "B1",
          "ticks": 100800,
          "time": 157.48991999999998,
          "velocity": 0.8110236220472441
        },
        {
          "duration": 0.023436000000003787,
          "durationTicks": 15,
          "midi": 44,
          "name": "G#2",
          "ticks": 100800,
          "time": 157.48991999999998,
          "velocity": 0.7559055118110236
        },
        {
          "duration": 0.023436000000003787,
          "durationTicks": 15,
          "midi": 70,
          "name": "A#4",
          "ticks": 100800,
          "time": 157.48991999999998,
          "velocity": 0.7322834645669292
        },
        {
          "duration": 0.023436000000003787,
          "durationTicks": 15,
          "midi": 82,
          "name": "A#5",
          "ticks": 100800,
          "time": 157.48991999999998,
          "velocity": 0.33858267716535434
        },
        {
          "duration": 0.023436000000003787,
          "durationTicks": 15,
          "midi": 44,
          "name": "G#2",
          "ticks": 100920,
          "time": 157.67740799999999,
          "velocity": 0.4094488188976378
        },
        {
          "duration": 0.023436000000003787,
          "durationTicks": 15,
          "midi": 70,
          "name": "A#4",
          "ticks": 100920,
          "time": 157.67740799999999,
          "velocity": 0.4645669291338583
        },
        {
          "duration": 0.023436000000003787,
          "durationTicks": 15,
          "midi": 44,
          "name": "G#2",
          "ticks": 101040,
          "time": 157.864896,
          "velocity": 0.6299212598425197
        },
        {
          "duration": 0.023436000000003787,
          "durationTicks": 15,
          "midi": 70,
          "name": "A#4",
          "ticks": 101040,
          "time": 157.864896,
          "velocity": 0.5354330708661418
        },
        {
          "duration": 0.023436000000003787,
          "durationTicks": 15,
          "midi": 82,
          "name": "A#5",
          "ticks": 101040,
          "time": 157.864896,
          "velocity": 0.3858267716535433
        },
        {
          "duration": 0.023436000000003787,
          "durationTicks": 15,
          "midi": 44,
          "name": "G#2",
          "ticks": 101160,
          "time": 158.052384,
          "velocity": 0.48031496062992124
        },
        {
          "duration": 0.023436000000003787,
          "durationTicks": 15,
          "midi": 70,
          "name": "A#4",
          "ticks": 101160,
          "time": 158.052384,
          "velocity": 0.44881889763779526
        },
        {
          "duration": 0.023436000000003787,
          "durationTicks": 15,
          "midi": 82,
          "name": "A#5",
          "ticks": 101160,
          "time": 158.052384,
          "velocity": 0.41732283464566927
        },
        {
          "duration": 0.023436000000003787,
          "durationTicks": 15,
          "midi": 37,
          "name": "C#2",
          "ticks": 101280,
          "time": 158.239872,
          "velocity": 0.984251968503937
        },
        {
          "duration": 0.023436000000003787,
          "durationTicks": 15,
          "midi": 44,
          "name": "G#2",
          "ticks": 101280,
          "time": 158.239872,
          "velocity": 0.7716535433070866
        },
        {
          "duration": 0.023436000000003787,
          "durationTicks": 15,
          "midi": 70,
          "name": "A#4",
          "ticks": 101280,
          "time": 158.239872,
          "velocity": 0.7322834645669292
        },
        {
          "duration": 0.023436000000003787,
          "durationTicks": 15,
          "midi": 82,
          "name": "A#5",
          "ticks": 101280,
          "time": 158.239872,
          "velocity": 0.4645669291338583
        },
        {
          "duration": 0.023436000000003787,
          "durationTicks": 15,
          "midi": 44,
          "name": "G#2",
          "ticks": 101400,
          "time": 158.42736,
          "velocity": 0.49606299212598426
        },
        {
          "duration": 0.023436000000003787,
          "durationTicks": 15,
          "midi": 70,
          "name": "A#4",
          "ticks": 101400,
          "time": 158.42736,
          "velocity": 0.4645669291338583
        },
        {
          "duration": 0.023436000000003787,
          "durationTicks": 15,
          "midi": 46,
          "name": "A#2",
          "ticks": 101520,
          "time": 158.614848,
          "velocity": 0.7086614173228346
        },
        {
          "duration": 0.023436000000003787,
          "durationTicks": 15,
          "midi": 70,
          "name": "A#4",
          "ticks": 101520,
          "time": 158.614848,
          "velocity": 0.5354330708661418
        },
        {
          "duration": 0.023436000000003787,
          "durationTicks": 15,
          "midi": 82,
          "name": "A#5",
          "ticks": 101520,
          "time": 158.614848,
          "velocity": 0.41732283464566927
        },
        {
          "duration": 0.023436000000003787,
          "durationTicks": 15,
          "midi": 70,
          "name": "A#4",
          "ticks": 101640,
          "time": 158.802336,
          "velocity": 0.44881889763779526
        },
        {
          "duration": 0.023436000000003787,
          "durationTicks": 15,
          "midi": 82,
          "name": "A#5",
          "ticks": 101640,
          "time": 158.802336,
          "velocity": 0.33858267716535434
        },
        {
          "duration": 0.023436000000003787,
          "durationTicks": 15,
          "midi": 35,
          "name": "B1",
          "ticks": 101760,
          "time": 158.989824,
          "velocity": 0.8110236220472441
        },
        {
          "duration": 0.023436000000003787,
          "durationTicks": 15,
          "midi": 44,
          "name": "G#2",
          "ticks": 101760,
          "time": 158.989824,
          "velocity": 0.7559055118110236
        },
        {
          "duration": 0.023436000000003787,
          "durationTicks": 15,
          "midi": 70,
          "name": "A#4",
          "ticks": 101760,
          "time": 158.989824,
          "velocity": 0.7322834645669292
        },
        {
          "duration": 0.023435999999975365,
          "durationTicks": 15,
          "midi": 44,
          "name": "G#2",
          "ticks": 101880,
          "time": 159.177312,
          "velocity": 0.4094488188976378
        },
        {
          "duration": 0.023435999999975365,
          "durationTicks": 15,
          "midi": 70,
          "name": "A#4",
          "ticks": 101880,
          "time": 159.177312,
          "velocity": 0.4645669291338583
        },
        {
          "duration": 0.023435999999975365,
          "durationTicks": 15,
          "midi": 44,
          "name": "G#2",
          "ticks": 102000,
          "time": 159.3648,
          "velocity": 0.6299212598425197
        },
        {
          "duration": 0.023435999999975365,
          "durationTicks": 15,
          "midi": 70,
          "name": "A#4",
          "ticks": 102000,
          "time": 159.3648,
          "velocity": 0.5354330708661418
        },
        {
          "duration": 0.023435999999975365,
          "durationTicks": 15,
          "midi": 82,
          "name": "A#5",
          "ticks": 102000,
          "time": 159.3648,
          "velocity": 0.3700787401574803
        },
        {
          "duration": 0.023436000000003787,
          "durationTicks": 15,
          "midi": 44,
          "name": "G#2",
          "ticks": 102120,
          "time": 159.55228799999998,
          "velocity": 0.48031496062992124
        },
        {
          "duration": 0.023436000000003787,
          "durationTicks": 15,
          "midi": 70,
          "name": "A#4",
          "ticks": 102120,
          "time": 159.55228799999998,
          "velocity": 0.44881889763779526
        },
        {
          "duration": 0.023436000000003787,
          "durationTicks": 15,
          "midi": 82,
          "name": "A#5",
          "ticks": 102120,
          "time": 159.55228799999998,
          "velocity": 0.3858267716535433
        },
        {
          "duration": 0.023436000000003787,
          "durationTicks": 15,
          "midi": 37,
          "name": "C#2",
          "ticks": 102240,
          "time": 159.73977599999998,
          "velocity": 1
        },
        {
          "duration": 0.023436000000003787,
          "durationTicks": 15,
          "midi": 44,
          "name": "G#2",
          "ticks": 102240,
          "time": 159.73977599999998,
          "velocity": 0.7716535433070866
        },
        {
          "duration": 0.023436000000003787,
          "durationTicks": 15,
          "midi": 70,
          "name": "A#4",
          "ticks": 102240,
          "time": 159.73977599999998,
          "velocity": 0.7322834645669292
        },
        {
          "duration": 0.023436000000003787,
          "durationTicks": 15,
          "midi": 82,
          "name": "A#5",
          "ticks": 102240,
          "time": 159.73977599999998,
          "velocity": 0.49606299212598426
        },
        {
          "duration": 0.023436000000003787,
          "durationTicks": 15,
          "midi": 44,
          "name": "G#2",
          "ticks": 102360,
          "time": 159.92726399999998,
          "velocity": 0.49606299212598426
        },
        {
          "duration": 0.023436000000003787,
          "durationTicks": 15,
          "midi": 70,
          "name": "A#4",
          "ticks": 102360,
          "time": 159.92726399999998,
          "velocity": 0.4645669291338583
        },
        {
          "duration": 0.023436000000003787,
          "durationTicks": 15,
          "midi": 35,
          "name": "B1",
          "ticks": 102480,
          "time": 160.11475199999998,
          "velocity": 0.7952755905511811
        },
        {
          "duration": 0.023436000000003787,
          "durationTicks": 15,
          "midi": 44,
          "name": "G#2",
          "ticks": 102480,
          "time": 160.11475199999998,
          "velocity": 0.6141732283464567
        },
        {
          "duration": 0.023436000000003787,
          "durationTicks": 15,
          "midi": 70,
          "name": "A#4",
          "ticks": 102480,
          "time": 160.11475199999998,
          "velocity": 0.5354330708661418
        },
        {
          "duration": 0.023436000000003787,
          "durationTicks": 15,
          "midi": 44,
          "name": "G#2",
          "ticks": 102600,
          "time": 160.30223999999998,
          "velocity": 0.48031496062992124
        },
        {
          "duration": 0.023436000000003787,
          "durationTicks": 15,
          "midi": 70,
          "name": "A#4",
          "ticks": 102600,
          "time": 160.30223999999998,
          "velocity": 0.44881889763779526
        },
        {
          "duration": 0.023436000000003787,
          "durationTicks": 15,
          "midi": 82,
          "name": "A#5",
          "ticks": 102600,
          "time": 160.30223999999998,
          "velocity": 0.33070866141732286
        },
        {
          "duration": 0.023436000000003787,
          "durationTicks": 15,
          "midi": 35,
          "name": "B1",
          "ticks": 102720,
          "time": 160.48972799999999,
          "velocity": 0.8110236220472441
        },
        {
          "duration": 0.023436000000003787,
          "durationTicks": 15,
          "midi": 44,
          "name": "G#2",
          "ticks": 102720,
          "time": 160.48972799999999,
          "velocity": 0.7559055118110236
        },
        {
          "duration": 0.023436000000003787,
          "durationTicks": 15,
          "midi": 70,
          "name": "A#4",
          "ticks": 102720,
          "time": 160.48972799999999,
          "velocity": 0.7322834645669292
        },
        {
          "duration": 0.023436000000003787,
          "durationTicks": 15,
          "midi": 82,
          "name": "A#5",
          "ticks": 102720,
          "time": 160.48972799999999,
          "velocity": 0.33858267716535434
        },
        {
          "duration": 0.023436000000003787,
          "durationTicks": 15,
          "midi": 44,
          "name": "G#2",
          "ticks": 102840,
          "time": 160.677216,
          "velocity": 0.4094488188976378
        },
        {
          "duration": 0.023436000000003787,
          "durationTicks": 15,
          "midi": 70,
          "name": "A#4",
          "ticks": 102840,
          "time": 160.677216,
          "velocity": 0.4645669291338583
        },
        {
          "duration": 0.023436000000003787,
          "durationTicks": 15,
          "midi": 44,
          "name": "G#2",
          "ticks": 102960,
          "time": 160.864704,
          "velocity": 0.6299212598425197
        },
        {
          "duration": 0.023436000000003787,
          "durationTicks": 15,
          "midi": 70,
          "name": "A#4",
          "ticks": 102960,
          "time": 160.864704,
          "velocity": 0.5354330708661418
        },
        {
          "duration": 0.023436000000003787,
          "durationTicks": 15,
          "midi": 82,
          "name": "A#5",
          "ticks": 102960,
          "time": 160.864704,
          "velocity": 0.3858267716535433
        },
        {
          "duration": 0.023436000000003787,
          "durationTicks": 15,
          "midi": 44,
          "name": "G#2",
          "ticks": 103080,
          "time": 161.052192,
          "velocity": 0.48031496062992124
        },
        {
          "duration": 0.023436000000003787,
          "durationTicks": 15,
          "midi": 70,
          "name": "A#4",
          "ticks": 103080,
          "time": 161.052192,
          "velocity": 0.44881889763779526
        },
        {
          "duration": 0.023436000000003787,
          "durationTicks": 15,
          "midi": 82,
          "name": "A#5",
          "ticks": 103080,
          "time": 161.052192,
          "velocity": 0.41732283464566927
        },
        {
          "duration": 0.023436000000003787,
          "durationTicks": 15,
          "midi": 37,
          "name": "C#2",
          "ticks": 103200,
          "time": 161.23968,
          "velocity": 0.984251968503937
        },
        {
          "duration": 0.023436000000003787,
          "durationTicks": 15,
          "midi": 44,
          "name": "G#2",
          "ticks": 103200,
          "time": 161.23968,
          "velocity": 0.7716535433070866
        },
        {
          "duration": 0.023436000000003787,
          "durationTicks": 15,
          "midi": 70,
          "name": "A#4",
          "ticks": 103200,
          "time": 161.23968,
          "velocity": 0.7322834645669292
        },
        {
          "duration": 0.023436000000003787,
          "durationTicks": 15,
          "midi": 82,
          "name": "A#5",
          "ticks": 103200,
          "time": 161.23968,
          "velocity": 0.4645669291338583
        },
        {
          "duration": 0.023436000000003787,
          "durationTicks": 15,
          "midi": 44,
          "name": "G#2",
          "ticks": 103320,
          "time": 161.427168,
          "velocity": 0.49606299212598426
        },
        {
          "duration": 0.023436000000003787,
          "durationTicks": 15,
          "midi": 70,
          "name": "A#4",
          "ticks": 103320,
          "time": 161.427168,
          "velocity": 0.4645669291338583
        },
        {
          "duration": 0.023436000000003787,
          "durationTicks": 15,
          "midi": 46,
          "name": "A#2",
          "ticks": 103440,
          "time": 161.614656,
          "velocity": 0.6614173228346457
        },
        {
          "duration": 0.023436000000003787,
          "durationTicks": 15,
          "midi": 70,
          "name": "A#4",
          "ticks": 103440,
          "time": 161.614656,
          "velocity": 0.5354330708661418
        },
        {
          "duration": 0.023436000000003787,
          "durationTicks": 15,
          "midi": 82,
          "name": "A#5",
          "ticks": 103440,
          "time": 161.614656,
          "velocity": 0.41732283464566927
        },
        {
          "duration": 0.023436000000003787,
          "durationTicks": 15,
          "midi": 35,
          "name": "B1",
          "ticks": 103560,
          "time": 161.802144,
          "velocity": 0.8110236220472441
        },
        {
          "duration": 0.023436000000003787,
          "durationTicks": 15,
          "midi": 70,
          "name": "A#4",
          "ticks": 103560,
          "time": 161.802144,
          "velocity": 0.44881889763779526
        },
        {
          "duration": 0.023436000000003787,
          "durationTicks": 15,
          "midi": 82,
          "name": "A#5",
          "ticks": 103560,
          "time": 161.802144,
          "velocity": 0.33858267716535434
        },
        {
          "duration": 0.023435999999975365,
          "durationTicks": 15,
          "midi": 35,
          "name": "B1",
          "ticks": 103680,
          "time": 161.989632,
          "velocity": 0.8110236220472441
        },
        {
          "duration": 0.023435999999975365,
          "durationTicks": 15,
          "midi": 44,
          "name": "G#2",
          "ticks": 103680,
          "time": 161.989632,
          "velocity": 0.7559055118110236
        },
        {
          "duration": 0.023435999999975365,
          "durationTicks": 15,
          "midi": 49,
          "name": "C#3",
          "ticks": 103680,
          "time": 161.989632,
          "velocity": 0.4645669291338583
        },
        {
          "duration": 0.023435999999975365,
          "durationTicks": 15,
          "midi": 59,
          "name": "B3",
          "ticks": 103680,
          "time": 161.989632,
          "velocity": 0.889763779527559
        },
        {
          "duration": 0.023435999999975365,
          "durationTicks": 15,
          "midi": 70,
          "name": "A#4",
          "ticks": 103680,
          "time": 161.989632,
          "velocity": 0.7322834645669292
        },
        {
          "duration": 0.023435999999975365,
          "durationTicks": 15,
          "midi": 44,
          "name": "G#2",
          "ticks": 103800,
          "time": 162.17712,
          "velocity": 0.4094488188976378
        },
        {
          "duration": 0.023435999999975365,
          "durationTicks": 15,
          "midi": 70,
          "name": "A#4",
          "ticks": 103800,
          "time": 162.17712,
          "velocity": 0.4645669291338583
        },
        {
          "duration": 0.023436000000003787,
          "durationTicks": 15,
          "midi": 44,
          "name": "G#2",
          "ticks": 103920,
          "time": 162.36460799999998,
          "velocity": 0.6299212598425197
        },
        {
          "duration": 0.023436000000003787,
          "durationTicks": 15,
          "midi": 70,
          "name": "A#4",
          "ticks": 103920,
          "time": 162.36460799999998,
          "velocity": 0.5354330708661418
        },
        {
          "duration": 0.023436000000003787,
          "durationTicks": 15,
          "midi": 82,
          "name": "A#5",
          "ticks": 103920,
          "time": 162.36460799999998,
          "velocity": 0.3700787401574803
        },
        {
          "duration": 0.023436000000003787,
          "durationTicks": 15,
          "midi": 44,
          "name": "G#2",
          "ticks": 104040,
          "time": 162.55209599999998,
          "velocity": 0.48031496062992124
        },
        {
          "duration": 0.023436000000003787,
          "durationTicks": 15,
          "midi": 70,
          "name": "A#4",
          "ticks": 104040,
          "time": 162.55209599999998,
          "velocity": 0.44881889763779526
        },
        {
          "duration": 0.023436000000003787,
          "durationTicks": 15,
          "midi": 82,
          "name": "A#5",
          "ticks": 104040,
          "time": 162.55209599999998,
          "velocity": 0.3858267716535433
        },
        {
          "duration": 0.023436000000003787,
          "durationTicks": 15,
          "midi": 37,
          "name": "C#2",
          "ticks": 104160,
          "time": 162.73958399999998,
          "velocity": 1
        },
        {
          "duration": 0.023436000000003787,
          "durationTicks": 15,
          "midi": 44,
          "name": "G#2",
          "ticks": 104160,
          "time": 162.73958399999998,
          "velocity": 0.7716535433070866
        },
        {
          "duration": 0.023436000000003787,
          "durationTicks": 15,
          "midi": 70,
          "name": "A#4",
          "ticks": 104160,
          "time": 162.73958399999998,
          "velocity": 0.7322834645669292
        },
        {
          "duration": 0.023436000000003787,
          "durationTicks": 15,
          "midi": 82,
          "name": "A#5",
          "ticks": 104160,
          "time": 162.73958399999998,
          "velocity": 0.49606299212598426
        },
        {
          "duration": 0.023436000000003787,
          "durationTicks": 15,
          "midi": 44,
          "name": "G#2",
          "ticks": 104280,
          "time": 162.92707199999998,
          "velocity": 0.49606299212598426
        },
        {
          "duration": 0.023436000000003787,
          "durationTicks": 15,
          "midi": 70,
          "name": "A#4",
          "ticks": 104280,
          "time": 162.92707199999998,
          "velocity": 0.4645669291338583
        },
        {
          "duration": 0.023436000000003787,
          "durationTicks": 15,
          "midi": 35,
          "name": "B1",
          "ticks": 104400,
          "time": 163.11455999999998,
          "velocity": 0.6850393700787402
        },
        {
          "duration": 0.023436000000003787,
          "durationTicks": 15,
          "midi": 44,
          "name": "G#2",
          "ticks": 104400,
          "time": 163.11455999999998,
          "velocity": 0.6141732283464567
        },
        {
          "duration": 0.023436000000003787,
          "durationTicks": 15,
          "midi": 70,
          "name": "A#4",
          "ticks": 104400,
          "time": 163.11455999999998,
          "velocity": 0.5354330708661418
        },
        {
          "duration": 0.023436000000003787,
          "durationTicks": 15,
          "midi": 35,
          "name": "B1",
          "ticks": 104520,
          "time": 163.30204799999998,
          "velocity": 0.6850393700787402
        },
        {
          "duration": 0.023436000000003787,
          "durationTicks": 15,
          "midi": 44,
          "name": "G#2",
          "ticks": 104520,
          "time": 163.30204799999998,
          "velocity": 0.48031496062992124
        },
        {
          "duration": 0.023436000000003787,
          "durationTicks": 15,
          "midi": 70,
          "name": "A#4",
          "ticks": 104520,
          "time": 163.30204799999998,
          "velocity": 0.44881889763779526
        },
        {
          "duration": 0.023436000000003787,
          "durationTicks": 15,
          "midi": 82,
          "name": "A#5",
          "ticks": 104520,
          "time": 163.30204799999998,
          "velocity": 0.33070866141732286
        },
        {
          "duration": 0.023436000000003787,
          "durationTicks": 15,
          "midi": 35,
          "name": "B1",
          "ticks": 104640,
          "time": 163.489536,
          "velocity": 0.8110236220472441
        },
        {
          "duration": 0.023436000000003787,
          "durationTicks": 15,
          "midi": 44,
          "name": "G#2",
          "ticks": 104640,
          "time": 163.489536,
          "velocity": 0.7559055118110236
        },
        {
          "duration": 0.023436000000003787,
          "durationTicks": 15,
          "midi": 70,
          "name": "A#4",
          "ticks": 104640,
          "time": 163.489536,
          "velocity": 0.7322834645669292
        },
        {
          "duration": 0.023436000000003787,
          "durationTicks": 15,
          "midi": 82,
          "name": "A#5",
          "ticks": 104640,
          "time": 163.489536,
          "velocity": 0.33858267716535434
        },
        {
          "duration": 0.023436000000003787,
          "durationTicks": 15,
          "midi": 44,
          "name": "G#2",
          "ticks": 104760,
          "time": 163.677024,
          "velocity": 0.4094488188976378
        },
        {
          "duration": 0.023436000000003787,
          "durationTicks": 15,
          "midi": 70,
          "name": "A#4",
          "ticks": 104760,
          "time": 163.677024,
          "velocity": 0.4645669291338583
        },
        {
          "duration": 0.023436000000003787,
          "durationTicks": 15,
          "midi": 44,
          "name": "G#2",
          "ticks": 104880,
          "time": 163.864512,
          "velocity": 0.6299212598425197
        },
        {
          "duration": 0.023436000000003787,
          "durationTicks": 15,
          "midi": 70,
          "name": "A#4",
          "ticks": 104880,
          "time": 163.864512,
          "velocity": 0.5354330708661418
        },
        {
          "duration": 0.023436000000003787,
          "durationTicks": 15,
          "midi": 82,
          "name": "A#5",
          "ticks": 104880,
          "time": 163.864512,
          "velocity": 0.3858267716535433
        },
        {
          "duration": 0.023436000000003787,
          "durationTicks": 15,
          "midi": 44,
          "name": "G#2",
          "ticks": 105000,
          "time": 164.052,
          "velocity": 0.48031496062992124
        },
        {
          "duration": 0.023436000000003787,
          "durationTicks": 15,
          "midi": 70,
          "name": "A#4",
          "ticks": 105000,
          "time": 164.052,
          "velocity": 0.44881889763779526
        },
        {
          "duration": 0.023436000000003787,
          "durationTicks": 15,
          "midi": 82,
          "name": "A#5",
          "ticks": 105000,
          "time": 164.052,
          "velocity": 0.41732283464566927
        },
        {
          "duration": 0.023436000000003787,
          "durationTicks": 15,
          "midi": 37,
          "name": "C#2",
          "ticks": 105120,
          "time": 164.239488,
          "velocity": 0.984251968503937
        },
        {
          "duration": 0.023436000000003787,
          "durationTicks": 15,
          "midi": 44,
          "name": "G#2",
          "ticks": 105120,
          "time": 164.239488,
          "velocity": 0.7716535433070866
        },
        {
          "duration": 0.023436000000003787,
          "durationTicks": 15,
          "midi": 70,
          "name": "A#4",
          "ticks": 105120,
          "time": 164.239488,
          "velocity": 0.7322834645669292
        },
        {
          "duration": 0.023436000000003787,
          "durationTicks": 15,
          "midi": 82,
          "name": "A#5",
          "ticks": 105120,
          "time": 164.239488,
          "velocity": 0.4645669291338583
        },
        {
          "duration": 0.023436000000003787,
          "durationTicks": 15,
          "midi": 44,
          "name": "G#2",
          "ticks": 105240,
          "time": 164.426976,
          "velocity": 0.49606299212598426
        },
        {
          "duration": 0.023436000000003787,
          "durationTicks": 15,
          "midi": 70,
          "name": "A#4",
          "ticks": 105240,
          "time": 164.426976,
          "velocity": 0.4645669291338583
        },
        {
          "duration": 0.023436000000003787,
          "durationTicks": 15,
          "midi": 46,
          "name": "A#2",
          "ticks": 105360,
          "time": 164.614464,
          "velocity": 0.7086614173228346
        },
        {
          "duration": 0.023436000000003787,
          "durationTicks": 15,
          "midi": 70,
          "name": "A#4",
          "ticks": 105360,
          "time": 164.614464,
          "velocity": 0.5354330708661418
        },
        {
          "duration": 0.023436000000003787,
          "durationTicks": 15,
          "midi": 82,
          "name": "A#5",
          "ticks": 105360,
          "time": 164.614464,
          "velocity": 0.41732283464566927
        },
        {
          "duration": 0.023435999999975365,
          "durationTicks": 15,
          "midi": 70,
          "name": "A#4",
          "ticks": 105480,
          "time": 164.801952,
          "velocity": 0.44881889763779526
        },
        {
          "duration": 0.023435999999975365,
          "durationTicks": 15,
          "midi": 82,
          "name": "A#5",
          "ticks": 105480,
          "time": 164.801952,
          "velocity": 0.33858267716535434
        },
        {
          "duration": 0.023435999999975365,
          "durationTicks": 15,
          "midi": 35,
          "name": "B1",
          "ticks": 105600,
          "time": 164.98944,
          "velocity": 0.8661417322834646
        },
        {
          "duration": 0.023435999999975365,
          "durationTicks": 15,
          "midi": 44,
          "name": "G#2",
          "ticks": 105600,
          "time": 164.98944,
          "velocity": 0.7559055118110236
        },
        {
          "duration": 0.023435999999975365,
          "durationTicks": 15,
          "midi": 49,
          "name": "C#3",
          "ticks": 105600,
          "time": 164.98944,
          "velocity": 0.6692913385826772
        },
        {
          "duration": 0.023435999999975365,
          "durationTicks": 15,
          "midi": 59,
          "name": "B3",
          "ticks": 105600,
          "time": 164.98944,
          "velocity": 0.905511811023622
        },
        {
          "duration": 0.023435999999975365,
          "durationTicks": 15,
          "midi": 70,
          "name": "A#4",
          "ticks": 105600,
          "time": 164.98944,
          "velocity": 0.7322834645669292
        },
        {
          "duration": 0.023436000000003787,
          "durationTicks": 15,
          "midi": 44,
          "name": "G#2",
          "ticks": 105720,
          "time": 165.17692799999998,
          "velocity": 0.4094488188976378
        },
        {
          "duration": 0.023436000000003787,
          "durationTicks": 15,
          "midi": 70,
          "name": "A#4",
          "ticks": 105720,
          "time": 165.17692799999998,
          "velocity": 0.4645669291338583
        },
        {
          "duration": 0.023436000000003787,
          "durationTicks": 15,
          "midi": 46,
          "name": "A#2",
          "ticks": 105840,
          "time": 165.36441599999998,
          "velocity": 0.8267716535433071
        },
        {
          "duration": 0.023436000000003787,
          "durationTicks": 15,
          "midi": 70,
          "name": "A#4",
          "ticks": 105840,
          "time": 165.36441599999998,
          "velocity": 0.5354330708661418
        },
        {
          "duration": 0.023436000000003787,
          "durationTicks": 15,
          "midi": 82,
          "name": "A#5",
          "ticks": 105840,
          "time": 165.36441599999998,
          "velocity": 0.3700787401574803
        },
        {
          "duration": 0.023436000000003787,
          "durationTicks": 15,
          "midi": 35,
          "name": "B1",
          "ticks": 105960,
          "time": 165.55190399999998,
          "velocity": 0.8582677165354331
        },
        {
          "duration": 0.023436000000003787,
          "durationTicks": 15,
          "midi": 59,
          "name": "B3",
          "ticks": 105960,
          "time": 165.55190399999998,
          "velocity": 1
        },
        {
          "duration": 0.023436000000003787,
          "durationTicks": 15,
          "midi": 70,
          "name": "A#4",
          "ticks": 105960,
          "time": 165.55190399999998,
          "velocity": 0.44881889763779526
        },
        {
          "duration": 0.023436000000003787,
          "durationTicks": 15,
          "midi": 82,
          "name": "A#5",
          "ticks": 105960,
          "time": 165.55190399999998,
          "velocity": 0.3858267716535433
        },
        {
          "duration": 0.023436000000003787,
          "durationTicks": 15,
          "midi": 37,
          "name": "C#2",
          "ticks": 106080,
          "time": 165.73939199999998,
          "velocity": 1
        },
        {
          "duration": 0.023436000000003787,
          "durationTicks": 15,
          "midi": 44,
          "name": "G#2",
          "ticks": 106080,
          "time": 165.73939199999998,
          "velocity": 0.7716535433070866
        },
        {
          "duration": 0.023436000000003787,
          "durationTicks": 15,
          "midi": 70,
          "name": "A#4",
          "ticks": 106080,
          "time": 165.73939199999998,
          "velocity": 0.7322834645669292
        },
        {
          "duration": 0.023436000000003787,
          "durationTicks": 15,
          "midi": 82,
          "name": "A#5",
          "ticks": 106080,
          "time": 165.73939199999998,
          "velocity": 0.49606299212598426
        },
        {
          "duration": 0.023436000000003787,
          "durationTicks": 15,
          "midi": 44,
          "name": "G#2",
          "ticks": 106200,
          "time": 165.92687999999998,
          "velocity": 0.49606299212598426
        },
        {
          "duration": 0.023436000000003787,
          "durationTicks": 15,
          "midi": 70,
          "name": "A#4",
          "ticks": 106200,
          "time": 165.92687999999998,
          "velocity": 0.4645669291338583
        },
        {
          "duration": 0.023436000000003787,
          "durationTicks": 15,
          "midi": 35,
          "name": "B1",
          "ticks": 106320,
          "time": 166.11436799999998,
          "velocity": 0.8503937007874016
        },
        {
          "duration": 0.023436000000003787,
          "durationTicks": 15,
          "midi": 44,
          "name": "G#2",
          "ticks": 106320,
          "time": 166.11436799999998,
          "velocity": 0.7086614173228346
        },
        {
          "duration": 0.023436000000003787,
          "durationTicks": 15,
          "midi": 49,
          "name": "C#3",
          "ticks": 106320,
          "time": 166.11436799999998,
          "velocity": 0.6692913385826772
        },
        {
          "duration": 0.023436000000003787,
          "durationTicks": 15,
          "midi": 59,
          "name": "B3",
          "ticks": 106320,
          "time": 166.11436799999998,
          "velocity": 0.889763779527559
        },
        {
          "duration": 0.023436000000003787,
          "durationTicks": 15,
          "midi": 70,
          "name": "A#4",
          "ticks": 106320,
          "time": 166.11436799999998,
          "velocity": 0.5354330708661418
        },
        {
          "duration": 0.023436000000003787,
          "durationTicks": 15,
          "midi": 44,
          "name": "G#2",
          "ticks": 106440,
          "time": 166.301856,
          "velocity": 0.6220472440944882
        },
        {
          "duration": 0.023436000000003787,
          "durationTicks": 15,
          "midi": 70,
          "name": "A#4",
          "ticks": 106440,
          "time": 166.301856,
          "velocity": 0.44881889763779526
        },
        {
          "duration": 0.023436000000003787,
          "durationTicks": 15,
          "midi": 82,
          "name": "A#5",
          "ticks": 106440,
          "time": 166.301856,
          "velocity": 0.33070866141732286
        },
        {
          "duration": 0.023436000000003787,
          "durationTicks": 15,
          "midi": 35,
          "name": "B1",
          "ticks": 106560,
          "time": 166.489344,
          "velocity": 0.8503937007874016
        },
        {
          "duration": 0.023436000000003787,
          "durationTicks": 15,
          "midi": 44,
          "name": "G#2",
          "ticks": 106560,
          "time": 166.489344,
          "velocity": 0.7559055118110236
        },
        {
          "duration": 0.023436000000003787,
          "durationTicks": 15,
          "midi": 70,
          "name": "A#4",
          "ticks": 106560,
          "time": 166.489344,
          "velocity": 0.7322834645669292
        },
        {
          "duration": 0.023436000000003787,
          "durationTicks": 15,
          "midi": 82,
          "name": "A#5",
          "ticks": 106560,
          "time": 166.489344,
          "velocity": 0.33858267716535434
        },
        {
          "duration": 0.023436000000003787,
          "durationTicks": 15,
          "midi": 44,
          "name": "G#2",
          "ticks": 106680,
          "time": 166.676832,
          "velocity": 0.4094488188976378
        },
        {
          "duration": 0.023436000000003787,
          "durationTicks": 15,
          "midi": 70,
          "name": "A#4",
          "ticks": 106680,
          "time": 166.676832,
          "velocity": 0.4645669291338583
        },
        {
          "duration": 0.023436000000003787,
          "durationTicks": 15,
          "midi": 44,
          "name": "G#2",
          "ticks": 106800,
          "time": 166.86432,
          "velocity": 0.7086614173228346
        },
        {
          "duration": 0.023436000000003787,
          "durationTicks": 15,
          "midi": 70,
          "name": "A#4",
          "ticks": 106800,
          "time": 166.86432,
          "velocity": 0.5354330708661418
        },
        {
          "duration": 0.023436000000003787,
          "durationTicks": 15,
          "midi": 82,
          "name": "A#5",
          "ticks": 106800,
          "time": 166.86432,
          "velocity": 0.3858267716535433
        },
        {
          "duration": 0.023436000000003787,
          "durationTicks": 15,
          "midi": 44,
          "name": "G#2",
          "ticks": 106920,
          "time": 167.051808,
          "velocity": 0.7086614173228346
        },
        {
          "duration": 0.023436000000003787,
          "durationTicks": 15,
          "midi": 70,
          "name": "A#4",
          "ticks": 106920,
          "time": 167.051808,
          "velocity": 0.44881889763779526
        },
        {
          "duration": 0.023436000000003787,
          "durationTicks": 15,
          "midi": 82,
          "name": "A#5",
          "ticks": 106920,
          "time": 167.051808,
          "velocity": 0.41732283464566927
        },
        {
          "duration": 0.023436000000003787,
          "durationTicks": 15,
          "midi": 37,
          "name": "C#2",
          "ticks": 107040,
          "time": 167.239296,
          "velocity": 0.984251968503937
        },
        {
          "duration": 0.023436000000003787,
          "durationTicks": 15,
          "midi": 44,
          "name": "G#2",
          "ticks": 107040,
          "time": 167.239296,
          "velocity": 0.7716535433070866
        },
        {
          "duration": 0.023436000000003787,
          "durationTicks": 15,
          "midi": 48,
          "name": "C3",
          "ticks": 107040,
          "time": 167.239296,
          "velocity": 0.889763779527559
        },
        {
          "duration": 0.023436000000003787,
          "durationTicks": 15,
          "midi": 70,
          "name": "A#4",
          "ticks": 107040,
          "time": 167.239296,
          "velocity": 0.7322834645669292
        },
        {
          "duration": 0.023436000000003787,
          "durationTicks": 15,
          "midi": 82,
          "name": "A#5",
          "ticks": 107040,
          "time": 167.239296,
          "velocity": 0.4645669291338583
        },
        {
          "duration": 0.023436000000003787,
          "durationTicks": 15,
          "midi": 44,
          "name": "G#2",
          "ticks": 107160,
          "time": 167.426784,
          "velocity": 0.49606299212598426
        },
        {
          "duration": 0.023436000000003787,
          "durationTicks": 15,
          "midi": 70,
          "name": "A#4",
          "ticks": 107160,
          "time": 167.426784,
          "velocity": 0.4645669291338583
        },
        {
          "duration": 0.023435999999975365,
          "durationTicks": 15,
          "midi": 46,
          "name": "A#2",
          "ticks": 107280,
          "time": 167.614272,
          "velocity": 0.7795275590551181
        },
        {
          "duration": 0.023435999999975365,
          "durationTicks": 15,
          "midi": 70,
          "name": "A#4",
          "ticks": 107280,
          "time": 167.614272,
          "velocity": 0.5354330708661418
        },
        {
          "duration": 0.023435999999975365,
          "durationTicks": 15,
          "midi": 82,
          "name": "A#5",
          "ticks": 107280,
          "time": 167.614272,
          "velocity": 0.41732283464566927
        },
        {
          "duration": 0.023435999999975365,
          "durationTicks": 15,
          "midi": 70,
          "name": "A#4",
          "ticks": 107400,
          "time": 167.80176,
          "velocity": 0.44881889763779526
        },
        {
          "duration": 0.023435999999975365,
          "durationTicks": 15,
          "midi": 82,
          "name": "A#5",
          "ticks": 107400,
          "time": 167.80176,
          "velocity": 0.33858267716535434
        },
        {
          "duration": 0.023436000000003787,
          "durationTicks": 15,
          "midi": 35,
          "name": "B1",
          "ticks": 107520,
          "time": 167.98924799999998,
          "velocity": 0.889763779527559
        },
        {
          "duration": 0.023436000000003787,
          "durationTicks": 15,
          "midi": 44,
          "name": "G#2",
          "ticks": 107520,
          "time": 167.98924799999998,
          "velocity": 0.7559055118110236
        },
        {
          "duration": 0.023436000000003787,
          "durationTicks": 15,
          "midi": 70,
          "name": "A#4",
          "ticks": 107520,
          "time": 167.98924799999998,
          "velocity": 0.7322834645669292
        },
        {
          "duration": 0.023436000000003787,
          "durationTicks": 15,
          "midi": 70,
          "name": "A#4",
          "ticks": 107640,
          "time": 168.17673599999998,
          "velocity": 0.4645669291338583
        },
        {
          "duration": 0.023436000000003787,
          "durationTicks": 15,
          "midi": 44,
          "name": "G#2",
          "ticks": 107760,
          "time": 168.36422399999998,
          "velocity": 0.6062992125984252
        },
        {
          "duration": 0.023436000000003787,
          "durationTicks": 15,
          "midi": 70,
          "name": "A#4",
          "ticks": 107760,
          "time": 168.36422399999998,
          "velocity": 0.5354330708661418
        },
        {
          "duration": 0.023436000000003787,
          "durationTicks": 15,
          "midi": 82,
          "name": "A#5",
          "ticks": 107760,
          "time": 168.36422399999998,
          "velocity": 0.3700787401574803
        },
        {
          "duration": 0.023436000000003787,
          "durationTicks": 15,
          "midi": 70,
          "name": "A#4",
          "ticks": 107880,
          "time": 168.55171199999998,
          "velocity": 0.44881889763779526
        },
        {
          "duration": 0.023436000000003787,
          "durationTicks": 15,
          "midi": 82,
          "name": "A#5",
          "ticks": 107880,
          "time": 168.55171199999998,
          "velocity": 0.3858267716535433
        },
        {
          "duration": 0.023436000000003787,
          "durationTicks": 15,
          "midi": 37,
          "name": "C#2",
          "ticks": 108000,
          "time": 168.73919999999998,
          "velocity": 1
        },
        {
          "duration": 0.023436000000003787,
          "durationTicks": 15,
          "midi": 44,
          "name": "G#2",
          "ticks": 108000,
          "time": 168.73919999999998,
          "velocity": 0.7559055118110236
        },
        {
          "duration": 0.023436000000003787,
          "durationTicks": 15,
          "midi": 70,
          "name": "A#4",
          "ticks": 108000,
          "time": 168.73919999999998,
          "velocity": 0.7322834645669292
        },
        {
          "duration": 0.023436000000003787,
          "durationTicks": 15,
          "midi": 82,
          "name": "A#5",
          "ticks": 108000,
          "time": 168.73919999999998,
          "velocity": 0.49606299212598426
        },
        {
          "duration": 0.023436000000003787,
          "durationTicks": 15,
          "midi": 70,
          "name": "A#4",
          "ticks": 108120,
          "time": 168.92668799999998,
          "velocity": 0.4645669291338583
        },
        {
          "duration": 0.023436000000003787,
          "durationTicks": 15,
          "midi": 35,
          "name": "B1",
          "ticks": 108240,
          "time": 169.114176,
          "velocity": 0.6850393700787402
        },
        {
          "duration": 0.023436000000003787,
          "durationTicks": 15,
          "midi": 44,
          "name": "G#2",
          "ticks": 108240,
          "time": 169.114176,
          "velocity": 0.6141732283464567
        },
        {
          "duration": 0.023436000000003787,
          "durationTicks": 15,
          "midi": 70,
          "name": "A#4",
          "ticks": 108240,
          "time": 169.114176,
          "velocity": 0.5354330708661418
        },
        {
          "duration": 0.023436000000003787,
          "durationTicks": 15,
          "midi": 35,
          "name": "B1",
          "ticks": 108360,
          "time": 169.301664,
          "velocity": 0.6850393700787402
        },
        {
          "duration": 0.023436000000003787,
          "durationTicks": 15,
          "midi": 44,
          "name": "G#2",
          "ticks": 108360,
          "time": 169.301664,
          "velocity": 0.48031496062992124
        },
        {
          "duration": 0.023436000000003787,
          "durationTicks": 15,
          "midi": 70,
          "name": "A#4",
          "ticks": 108360,
          "time": 169.301664,
          "velocity": 0.44881889763779526
        },
        {
          "duration": 0.023436000000003787,
          "durationTicks": 15,
          "midi": 82,
          "name": "A#5",
          "ticks": 108360,
          "time": 169.301664,
          "velocity": 0.33070866141732286
        },
        {
          "duration": 0.023436000000003787,
          "durationTicks": 15,
          "midi": 35,
          "name": "B1",
          "ticks": 108480,
          "time": 169.489152,
          "velocity": 0.8110236220472441
        },
        {
          "duration": 0.023436000000003787,
          "durationTicks": 15,
          "midi": 44,
          "name": "G#2",
          "ticks": 108480,
          "time": 169.489152,
          "velocity": 0.7559055118110236
        },
        {
          "duration": 0.023436000000003787,
          "durationTicks": 15,
          "midi": 70,
          "name": "A#4",
          "ticks": 108480,
          "time": 169.489152,
          "velocity": 0.7322834645669292
        },
        {
          "duration": 0.023436000000003787,
          "durationTicks": 15,
          "midi": 82,
          "name": "A#5",
          "ticks": 108480,
          "time": 169.489152,
          "velocity": 0.33858267716535434
        },
        {
          "duration": 0.023436000000003787,
          "durationTicks": 15,
          "midi": 44,
          "name": "G#2",
          "ticks": 108600,
          "time": 169.67664,
          "velocity": 0.4094488188976378
        },
        {
          "duration": 0.023436000000003787,
          "durationTicks": 15,
          "midi": 70,
          "name": "A#4",
          "ticks": 108600,
          "time": 169.67664,
          "velocity": 0.4645669291338583
        },
        {
          "duration": 0.023436000000003787,
          "durationTicks": 15,
          "midi": 44,
          "name": "G#2",
          "ticks": 108720,
          "time": 169.864128,
          "velocity": 0.6299212598425197
        },
        {
          "duration": 0.023436000000003787,
          "durationTicks": 15,
          "midi": 70,
          "name": "A#4",
          "ticks": 108720,
          "time": 169.864128,
          "velocity": 0.5354330708661418
        },
        {
          "duration": 0.023436000000003787,
          "durationTicks": 15,
          "midi": 82,
          "name": "A#5",
          "ticks": 108720,
          "time": 169.864128,
          "velocity": 0.3858267716535433
        },
        {
          "duration": 0.023436000000003787,
          "durationTicks": 15,
          "midi": 44,
          "name": "G#2",
          "ticks": 108840,
          "time": 170.051616,
          "velocity": 0.48031496062992124
        },
        {
          "duration": 0.023436000000003787,
          "durationTicks": 15,
          "midi": 70,
          "name": "A#4",
          "ticks": 108840,
          "time": 170.051616,
          "velocity": 0.44881889763779526
        },
        {
          "duration": 0.023436000000003787,
          "durationTicks": 15,
          "midi": 82,
          "name": "A#5",
          "ticks": 108840,
          "time": 170.051616,
          "velocity": 0.41732283464566927
        },
        {
          "duration": 0.023436000000003787,
          "durationTicks": 15,
          "midi": 37,
          "name": "C#2",
          "ticks": 108960,
          "time": 170.239104,
          "velocity": 0.984251968503937
        },
        {
          "duration": 0.023436000000003787,
          "durationTicks": 15,
          "midi": 44,
          "name": "G#2",
          "ticks": 108960,
          "time": 170.239104,
          "velocity": 0.7716535433070866
        },
        {
          "duration": 0.023436000000003787,
          "durationTicks": 15,
          "midi": 70,
          "name": "A#4",
          "ticks": 108960,
          "time": 170.239104,
          "velocity": 0.7322834645669292
        },
        {
          "duration": 0.023436000000003787,
          "durationTicks": 15,
          "midi": 82,
          "name": "A#5",
          "ticks": 108960,
          "time": 170.239104,
          "velocity": 0.4645669291338583
        },
        {
          "duration": 0.023436000000003787,
          "durationTicks": 15,
          "midi": 44,
          "name": "G#2",
          "ticks": 109080,
          "time": 170.426592,
          "velocity": 0.49606299212598426
        },
        {
          "duration": 0.023436000000003787,
          "durationTicks": 15,
          "midi": 70,
          "name": "A#4",
          "ticks": 109080,
          "time": 170.426592,
          "velocity": 0.4645669291338583
        },
        {
          "duration": 0.023435999999975365,
          "durationTicks": 15,
          "midi": 46,
          "name": "A#2",
          "ticks": 109200,
          "time": 170.61408,
          "velocity": 0.6614173228346457
        },
        {
          "duration": 0.023435999999975365,
          "durationTicks": 15,
          "midi": 70,
          "name": "A#4",
          "ticks": 109200,
          "time": 170.61408,
          "velocity": 0.5354330708661418
        },
        {
          "duration": 0.023435999999975365,
          "durationTicks": 15,
          "midi": 82,
          "name": "A#5",
          "ticks": 109200,
          "time": 170.61408,
          "velocity": 0.41732283464566927
        },
        {
          "duration": 0.023435999999975365,
          "durationTicks": 15,
          "midi": 70,
          "name": "A#4",
          "ticks": 109320,
          "time": 170.801568,
          "velocity": 0.44881889763779526
        },
        {
          "duration": 0.023435999999975365,
          "durationTicks": 15,
          "midi": 82,
          "name": "A#5",
          "ticks": 109320,
          "time": 170.801568,
          "velocity": 0.33858267716535434
        },
        {
          "duration": 0.023436000000003787,
          "durationTicks": 15,
          "midi": 35,
          "name": "B1",
          "ticks": 109440,
          "time": 170.98905599999998,
          "velocity": 0.8110236220472441
        },
        {
          "duration": 0.023436000000003787,
          "durationTicks": 15,
          "midi": 44,
          "name": "G#2",
          "ticks": 109440,
          "time": 170.98905599999998,
          "velocity": 0.7559055118110236
        },
        {
          "duration": 0.023436000000003787,
          "durationTicks": 15,
          "midi": 70,
          "name": "A#4",
          "ticks": 109440,
          "time": 170.98905599999998,
          "velocity": 0.7322834645669292
        },
        {
          "duration": 0.023436000000003787,
          "durationTicks": 15,
          "midi": 70,
          "name": "A#4",
          "ticks": 109560,
          "time": 171.17654399999998,
          "velocity": 0.4645669291338583
        },
        {
          "duration": 0.023436000000003787,
          "durationTicks": 15,
          "midi": 44,
          "name": "G#2",
          "ticks": 109680,
          "time": 171.36403199999998,
          "velocity": 0.6062992125984252
        },
        {
          "duration": 0.023436000000003787,
          "durationTicks": 15,
          "midi": 70,
          "name": "A#4",
          "ticks": 109680,
          "time": 171.36403199999998,
          "velocity": 0.5354330708661418
        },
        {
          "duration": 0.023436000000003787,
          "durationTicks": 15,
          "midi": 82,
          "name": "A#5",
          "ticks": 109680,
          "time": 171.36403199999998,
          "velocity": 0.3700787401574803
        },
        {
          "duration": 0.023436000000003787,
          "durationTicks": 15,
          "midi": 70,
          "name": "A#4",
          "ticks": 109800,
          "time": 171.55151999999998,
          "velocity": 0.44881889763779526
        },
        {
          "duration": 0.023436000000003787,
          "durationTicks": 15,
          "midi": 82,
          "name": "A#5",
          "ticks": 109800,
          "time": 171.55151999999998,
          "velocity": 0.3858267716535433
        },
        {
          "duration": 0.023436000000003787,
          "durationTicks": 15,
          "midi": 37,
          "name": "C#2",
          "ticks": 109920,
          "time": 171.73900799999998,
          "velocity": 1
        },
        {
          "duration": 0.023436000000003787,
          "durationTicks": 15,
          "midi": 44,
          "name": "G#2",
          "ticks": 109920,
          "time": 171.73900799999998,
          "velocity": 0.7559055118110236
        },
        {
          "duration": 0.023436000000003787,
          "durationTicks": 15,
          "midi": 70,
          "name": "A#4",
          "ticks": 109920,
          "time": 171.73900799999998,
          "velocity": 0.7322834645669292
        },
        {
          "duration": 0.023436000000003787,
          "durationTicks": 15,
          "midi": 82,
          "name": "A#5",
          "ticks": 109920,
          "time": 171.73900799999998,
          "velocity": 0.49606299212598426
        },
        {
          "duration": 0.023436000000003787,
          "durationTicks": 15,
          "midi": 70,
          "name": "A#4",
          "ticks": 110040,
          "time": 171.926496,
          "velocity": 0.4645669291338583
        },
        {
          "duration": 0.023436000000003787,
          "durationTicks": 15,
          "midi": 35,
          "name": "B1",
          "ticks": 110160,
          "time": 172.113984,
          "velocity": 0.8110236220472441
        },
        {
          "duration": 0.023436000000003787,
          "durationTicks": 15,
          "midi": 44,
          "name": "G#2",
          "ticks": 110160,
          "time": 172.113984,
          "velocity": 0.6141732283464567
        },
        {
          "duration": 0.023436000000003787,
          "durationTicks": 15,
          "midi": 70,
          "name": "A#4",
          "ticks": 110160,
          "time": 172.113984,
          "velocity": 0.5354330708661418
        },
        {
          "duration": 0.023436000000003787,
          "durationTicks": 15,
          "midi": 44,
          "name": "G#2",
          "ticks": 110280,
          "time": 172.301472,
          "velocity": 0.48031496062992124
        },
        {
          "duration": 0.023436000000003787,
          "durationTicks": 15,
          "midi": 70,
          "name": "A#4",
          "ticks": 110280,
          "time": 172.301472,
          "velocity": 0.44881889763779526
        },
        {
          "duration": 0.023436000000003787,
          "durationTicks": 15,
          "midi": 82,
          "name": "A#5",
          "ticks": 110280,
          "time": 172.301472,
          "velocity": 0.33070866141732286
        },
        {
          "duration": 0.023436000000003787,
          "durationTicks": 15,
          "midi": 35,
          "name": "B1",
          "ticks": 110400,
          "time": 172.48896,
          "velocity": 0.8110236220472441
        },
        {
          "duration": 0.023436000000003787,
          "durationTicks": 15,
          "midi": 44,
          "name": "G#2",
          "ticks": 110400,
          "time": 172.48896,
          "velocity": 0.7559055118110236
        },
        {
          "duration": 0.023436000000003787,
          "durationTicks": 15,
          "midi": 70,
          "name": "A#4",
          "ticks": 110400,
          "time": 172.48896,
          "velocity": 0.7322834645669292
        },
        {
          "duration": 0.023436000000003787,
          "durationTicks": 15,
          "midi": 82,
          "name": "A#5",
          "ticks": 110400,
          "time": 172.48896,
          "velocity": 0.33858267716535434
        },
        {
          "duration": 0.023436000000003787,
          "durationTicks": 15,
          "midi": 44,
          "name": "G#2",
          "ticks": 110520,
          "time": 172.676448,
          "velocity": 0.4094488188976378
        },
        {
          "duration": 0.023436000000003787,
          "durationTicks": 15,
          "midi": 70,
          "name": "A#4",
          "ticks": 110520,
          "time": 172.676448,
          "velocity": 0.4645669291338583
        },
        {
          "duration": 0.023436000000003787,
          "durationTicks": 15,
          "midi": 44,
          "name": "G#2",
          "ticks": 110640,
          "time": 172.863936,
          "velocity": 0.6299212598425197
        },
        {
          "duration": 0.023436000000003787,
          "durationTicks": 15,
          "midi": 70,
          "name": "A#4",
          "ticks": 110640,
          "time": 172.863936,
          "velocity": 0.5354330708661418
        },
        {
          "duration": 0.023436000000003787,
          "durationTicks": 15,
          "midi": 82,
          "name": "A#5",
          "ticks": 110640,
          "time": 172.863936,
          "velocity": 0.3858267716535433
        },
        {
          "duration": 0.023436000000003787,
          "durationTicks": 15,
          "midi": 44,
          "name": "G#2",
          "ticks": 110760,
          "time": 173.051424,
          "velocity": 0.48031496062992124
        },
        {
          "duration": 0.023436000000003787,
          "durationTicks": 15,
          "midi": 70,
          "name": "A#4",
          "ticks": 110760,
          "time": 173.051424,
          "velocity": 0.44881889763779526
        },
        {
          "duration": 0.023436000000003787,
          "durationTicks": 15,
          "midi": 82,
          "name": "A#5",
          "ticks": 110760,
          "time": 173.051424,
          "velocity": 0.41732283464566927
        },
        {
          "duration": 0.023436000000003787,
          "durationTicks": 15,
          "midi": 37,
          "name": "C#2",
          "ticks": 110880,
          "time": 173.238912,
          "velocity": 0.984251968503937
        },
        {
          "duration": 0.023436000000003787,
          "durationTicks": 15,
          "midi": 44,
          "name": "G#2",
          "ticks": 110880,
          "time": 173.238912,
          "velocity": 0.7716535433070866
        },
        {
          "duration": 0.023436000000003787,
          "durationTicks": 15,
          "midi": 70,
          "name": "A#4",
          "ticks": 110880,
          "time": 173.238912,
          "velocity": 0.7322834645669292
        },
        {
          "duration": 0.023436000000003787,
          "durationTicks": 15,
          "midi": 82,
          "name": "A#5",
          "ticks": 110880,
          "time": 173.238912,
          "velocity": 0.4645669291338583
        },
        {
          "duration": 0.023435999999975365,
          "durationTicks": 15,
          "midi": 44,
          "name": "G#2",
          "ticks": 111000,
          "time": 173.4264,
          "velocity": 0.49606299212598426
        },
        {
          "duration": 0.023435999999975365,
          "durationTicks": 15,
          "midi": 70,
          "name": "A#4",
          "ticks": 111000,
          "time": 173.4264,
          "velocity": 0.4645669291338583
        },
        {
          "duration": 0.023435999999975365,
          "durationTicks": 15,
          "midi": 46,
          "name": "A#2",
          "ticks": 111120,
          "time": 173.613888,
          "velocity": 0.6614173228346457
        },
        {
          "duration": 0.023435999999975365,
          "durationTicks": 15,
          "midi": 70,
          "name": "A#4",
          "ticks": 111120,
          "time": 173.613888,
          "velocity": 0.5354330708661418
        },
        {
          "duration": 0.023435999999975365,
          "durationTicks": 15,
          "midi": 82,
          "name": "A#5",
          "ticks": 111120,
          "time": 173.613888,
          "velocity": 0.41732283464566927
        },
        {
          "duration": 0.023436000000003787,
          "durationTicks": 15,
          "midi": 35,
          "name": "B1",
          "ticks": 111240,
          "time": 173.80137599999998,
          "velocity": 0.8110236220472441
        },
        {
          "duration": 0.023436000000003787,
          "durationTicks": 15,
          "midi": 70,
          "name": "A#4",
          "ticks": 111240,
          "time": 173.80137599999998,
          "velocity": 0.44881889763779526
        },
        {
          "duration": 0.023436000000003787,
          "durationTicks": 15,
          "midi": 82,
          "name": "A#5",
          "ticks": 111240,
          "time": 173.80137599999998,
          "velocity": 0.33858267716535434
        },
        {
          "duration": 0.023436000000003787,
          "durationTicks": 15,
          "midi": 35,
          "name": "B1",
          "ticks": 111360,
          "time": 173.98886399999998,
          "velocity": 0.8110236220472441
        },
        {
          "duration": 0.023436000000003787,
          "durationTicks": 15,
          "midi": 44,
          "name": "G#2",
          "ticks": 111360,
          "time": 173.98886399999998,
          "velocity": 0.6929133858267716
        },
        {
          "duration": 0.023436000000003787,
          "durationTicks": 15,
          "midi": 70,
          "name": "A#4",
          "ticks": 111360,
          "time": 173.98886399999998,
          "velocity": 0.7322834645669292
        },
        {
          "duration": 0.023436000000003787,
          "durationTicks": 15,
          "midi": 70,
          "name": "A#4",
          "ticks": 111480,
          "time": 174.17635199999998,
          "velocity": 0.4645669291338583
        },
        {
          "duration": 0.023436000000003787,
          "durationTicks": 15,
          "midi": 44,
          "name": "G#2",
          "ticks": 111600,
          "time": 174.36383999999998,
          "velocity": 0.6062992125984252
        },
        {
          "duration": 0.023436000000003787,
          "durationTicks": 15,
          "midi": 70,
          "name": "A#4",
          "ticks": 111600,
          "time": 174.36383999999998,
          "velocity": 0.5354330708661418
        },
        {
          "duration": 0.023436000000003787,
          "durationTicks": 15,
          "midi": 82,
          "name": "A#5",
          "ticks": 111600,
          "time": 174.36383999999998,
          "velocity": 0.3700787401574803
        },
        {
          "duration": 0.023436000000003787,
          "durationTicks": 15,
          "midi": 70,
          "name": "A#4",
          "ticks": 111720,
          "time": 174.55132799999998,
          "velocity": 0.44881889763779526
        },
        {
          "duration": 0.023436000000003787,
          "durationTicks": 15,
          "midi": 82,
          "name": "A#5",
          "ticks": 111720,
          "time": 174.55132799999998,
          "velocity": 0.3858267716535433
        },
        {
          "duration": 0.023436000000003787,
          "durationTicks": 15,
          "midi": 37,
          "name": "C#2",
          "ticks": 111840,
          "time": 174.73881599999999,
          "velocity": 1
        },
        {
          "duration": 0.023436000000003787,
          "durationTicks": 15,
          "midi": 44,
          "name": "G#2",
          "ticks": 111840,
          "time": 174.73881599999999,
          "velocity": 0.7559055118110236
        },
        {
          "duration": 0.023436000000003787,
          "durationTicks": 15,
          "midi": 70,
          "name": "A#4",
          "ticks": 111840,
          "time": 174.73881599999999,
          "velocity": 0.7322834645669292
        },
        {
          "duration": 0.023436000000003787,
          "durationTicks": 15,
          "midi": 82,
          "name": "A#5",
          "ticks": 111840,
          "time": 174.73881599999999,
          "velocity": 0.49606299212598426
        },
        {
          "duration": 0.023436000000003787,
          "durationTicks": 15,
          "midi": 70,
          "name": "A#4",
          "ticks": 111960,
          "time": 174.926304,
          "velocity": 0.4645669291338583
        },
        {
          "duration": 0.023436000000003787,
          "durationTicks": 15,
          "midi": 35,
          "name": "B1",
          "ticks": 112080,
          "time": 175.113792,
          "velocity": 0.8110236220472441
        },
        {
          "duration": 0.023436000000003787,
          "durationTicks": 15,
          "midi": 44,
          "name": "G#2",
          "ticks": 112080,
          "time": 175.113792,
          "velocity": 0.6141732283464567
        },
        {
          "duration": 0.023436000000003787,
          "durationTicks": 15,
          "midi": 70,
          "name": "A#4",
          "ticks": 112080,
          "time": 175.113792,
          "velocity": 0.5354330708661418
        },
        {
          "duration": 0.023436000000003787,
          "durationTicks": 15,
          "midi": 44,
          "name": "G#2",
          "ticks": 112200,
          "time": 175.30128,
          "velocity": 0.48031496062992124
        },
        {
          "duration": 0.023436000000003787,
          "durationTicks": 15,
          "midi": 70,
          "name": "A#4",
          "ticks": 112200,
          "time": 175.30128,
          "velocity": 0.44881889763779526
        },
        {
          "duration": 0.023436000000003787,
          "durationTicks": 15,
          "midi": 82,
          "name": "A#5",
          "ticks": 112200,
          "time": 175.30128,
          "velocity": 0.33070866141732286
        },
        {
          "duration": 0.023436000000003787,
          "durationTicks": 15,
          "midi": 35,
          "name": "B1",
          "ticks": 112320,
          "time": 175.488768,
          "velocity": 0.8110236220472441
        },
        {
          "duration": 0.023436000000003787,
          "durationTicks": 15,
          "midi": 44,
          "name": "G#2",
          "ticks": 112320,
          "time": 175.488768,
          "velocity": 0.6535433070866141
        },
        {
          "duration": 0.023436000000003787,
          "durationTicks": 15,
          "midi": 70,
          "name": "A#4",
          "ticks": 112320,
          "time": 175.488768,
          "velocity": 0.7322834645669292
        },
        {
          "duration": 0.023436000000003787,
          "durationTicks": 15,
          "midi": 82,
          "name": "A#5",
          "ticks": 112320,
          "time": 175.488768,
          "velocity": 0.33858267716535434
        },
        {
          "duration": 0.023436000000003787,
          "durationTicks": 15,
          "midi": 70,
          "name": "A#4",
          "ticks": 112440,
          "time": 175.676256,
          "velocity": 0.4645669291338583
        },
        {
          "duration": 0.023436000000003787,
          "durationTicks": 15,
          "midi": 44,
          "name": "G#2",
          "ticks": 112560,
          "time": 175.863744,
          "velocity": 0.6299212598425197
        },
        {
          "duration": 0.023436000000003787,
          "durationTicks": 15,
          "midi": 70,
          "name": "A#4",
          "ticks": 112560,
          "time": 175.863744,
          "velocity": 0.5354330708661418
        },
        {
          "duration": 0.023436000000003787,
          "durationTicks": 15,
          "midi": 82,
          "name": "A#5",
          "ticks": 112560,
          "time": 175.863744,
          "velocity": 0.3858267716535433
        },
        {
          "duration": 0.023436000000003787,
          "durationTicks": 15,
          "midi": 44,
          "name": "G#2",
          "ticks": 112680,
          "time": 176.051232,
          "velocity": 0.48031496062992124
        },
        {
          "duration": 0.023436000000003787,
          "durationTicks": 15,
          "midi": 70,
          "name": "A#4",
          "ticks": 112680,
          "time": 176.051232,
          "velocity": 0.44881889763779526
        },
        {
          "duration": 0.023436000000003787,
          "durationTicks": 15,
          "midi": 82,
          "name": "A#5",
          "ticks": 112680,
          "time": 176.051232,
          "velocity": 0.41732283464566927
        },
        {
          "duration": 0.023435999999975365,
          "durationTicks": 15,
          "midi": 37,
          "name": "C#2",
          "ticks": 112800,
          "time": 176.23872,
          "velocity": 0.984251968503937
        },
        {
          "duration": 0.023435999999975365,
          "durationTicks": 15,
          "midi": 44,
          "name": "G#2",
          "ticks": 112800,
          "time": 176.23872,
          "velocity": 0.7086614173228346
        },
        {
          "duration": 0.023435999999975365,
          "durationTicks": 15,
          "midi": 70,
          "name": "A#4",
          "ticks": 112800,
          "time": 176.23872,
          "velocity": 0.7322834645669292
        },
        {
          "duration": 0.023435999999975365,
          "durationTicks": 15,
          "midi": 82,
          "name": "A#5",
          "ticks": 112800,
          "time": 176.23872,
          "velocity": 0.4645669291338583
        },
        {
          "duration": 0.023435999999975365,
          "durationTicks": 15,
          "midi": 70,
          "name": "A#4",
          "ticks": 112920,
          "time": 176.426208,
          "velocity": 0.4645669291338583
        },
        {
          "duration": 0.023436000000003787,
          "durationTicks": 15,
          "midi": 46,
          "name": "A#2",
          "ticks": 113040,
          "time": 176.61369599999998,
          "velocity": 0.6614173228346457
        },
        {
          "duration": 0.023436000000003787,
          "durationTicks": 15,
          "midi": 70,
          "name": "A#4",
          "ticks": 113040,
          "time": 176.61369599999998,
          "velocity": 0.5354330708661418
        },
        {
          "duration": 0.023436000000003787,
          "durationTicks": 15,
          "midi": 82,
          "name": "A#5",
          "ticks": 113040,
          "time": 176.61369599999998,
          "velocity": 0.41732283464566927
        },
        {
          "duration": 0.023436000000003787,
          "durationTicks": 15,
          "midi": 70,
          "name": "A#4",
          "ticks": 113160,
          "time": 176.80118399999998,
          "velocity": 0.44881889763779526
        },
        {
          "duration": 0.023436000000003787,
          "durationTicks": 15,
          "midi": 82,
          "name": "A#5",
          "ticks": 113160,
          "time": 176.80118399999998,
          "velocity": 0.33858267716535434
        },
        {
          "duration": 0.023436000000003787,
          "durationTicks": 15,
          "midi": 35,
          "name": "B1",
          "ticks": 113280,
          "time": 176.98867199999998,
          "velocity": 0.8110236220472441
        },
        {
          "duration": 0.023436000000003787,
          "durationTicks": 15,
          "midi": 44,
          "name": "G#2",
          "ticks": 113280,
          "time": 176.98867199999998,
          "velocity": 0.6929133858267716
        },
        {
          "duration": 0.023436000000003787,
          "durationTicks": 15,
          "midi": 70,
          "name": "A#4",
          "ticks": 113280,
          "time": 176.98867199999998,
          "velocity": 0.7322834645669292
        },
        {
          "duration": 0.023436000000003787,
          "durationTicks": 15,
          "midi": 70,
          "name": "A#4",
          "ticks": 113400,
          "time": 177.17615999999998,
          "velocity": 0.4645669291338583
        },
        {
          "duration": 0.023436000000003787,
          "durationTicks": 15,
          "midi": 44,
          "name": "G#2",
          "ticks": 113520,
          "time": 177.36364799999998,
          "velocity": 0.6062992125984252
        },
        {
          "duration": 0.023436000000003787,
          "durationTicks": 15,
          "midi": 70,
          "name": "A#4",
          "ticks": 113520,
          "time": 177.36364799999998,
          "velocity": 0.5354330708661418
        },
        {
          "duration": 0.023436000000003787,
          "durationTicks": 15,
          "midi": 82,
          "name": "A#5",
          "ticks": 113520,
          "time": 177.36364799999998,
          "velocity": 0.3700787401574803
        },
        {
          "duration": 0.023436000000003787,
          "durationTicks": 15,
          "midi": 70,
          "name": "A#4",
          "ticks": 113640,
          "time": 177.55113599999999,
          "velocity": 0.44881889763779526
        },
        {
          "duration": 0.023436000000003787,
          "durationTicks": 15,
          "midi": 82,
          "name": "A#5",
          "ticks": 113640,
          "time": 177.55113599999999,
          "velocity": 0.3858267716535433
        },
        {
          "duration": 0.023436000000003787,
          "durationTicks": 15,
          "midi": 37,
          "name": "C#2",
          "ticks": 113760,
          "time": 177.738624,
          "velocity": 1
        },
        {
          "duration": 0.023436000000003787,
          "durationTicks": 15,
          "midi": 44,
          "name": "G#2",
          "ticks": 113760,
          "time": 177.738624,
          "velocity": 0.7559055118110236
        },
        {
          "duration": 0.023436000000003787,
          "durationTicks": 15,
          "midi": 70,
          "name": "A#4",
          "ticks": 113760,
          "time": 177.738624,
          "velocity": 0.7322834645669292
        },
        {
          "duration": 0.023436000000003787,
          "durationTicks": 15,
          "midi": 82,
          "name": "A#5",
          "ticks": 113760,
          "time": 177.738624,
          "velocity": 0.49606299212598426
        },
        {
          "duration": 0.023436000000003787,
          "durationTicks": 15,
          "midi": 70,
          "name": "A#4",
          "ticks": 113880,
          "time": 177.926112,
          "velocity": 0.4645669291338583
        },
        {
          "duration": 0.023436000000003787,
          "durationTicks": 15,
          "midi": 35,
          "name": "B1",
          "ticks": 114000,
          "time": 178.1136,
          "velocity": 0.8110236220472441
        },
        {
          "duration": 0.023436000000003787,
          "durationTicks": 15,
          "midi": 44,
          "name": "G#2",
          "ticks": 114000,
          "time": 178.1136,
          "velocity": 0.6141732283464567
        },
        {
          "duration": 0.023436000000003787,
          "durationTicks": 15,
          "midi": 70,
          "name": "A#4",
          "ticks": 114000,
          "time": 178.1136,
          "velocity": 0.5354330708661418
        },
        {
          "duration": 0.023436000000003787,
          "durationTicks": 15,
          "midi": 44,
          "name": "G#2",
          "ticks": 114120,
          "time": 178.301088,
          "velocity": 0.48031496062992124
        },
        {
          "duration": 0.023436000000003787,
          "durationTicks": 15,
          "midi": 70,
          "name": "A#4",
          "ticks": 114120,
          "time": 178.301088,
          "velocity": 0.44881889763779526
        },
        {
          "duration": 0.023436000000003787,
          "durationTicks": 15,
          "midi": 82,
          "name": "A#5",
          "ticks": 114120,
          "time": 178.301088,
          "velocity": 0.33070866141732286
        },
        {
          "duration": 0.023436000000003787,
          "durationTicks": 15,
          "midi": 35,
          "name": "B1",
          "ticks": 114240,
          "time": 178.488576,
          "velocity": 0.8110236220472441
        },
        {
          "duration": 0.023436000000003787,
          "durationTicks": 15,
          "midi": 44,
          "name": "G#2",
          "ticks": 114240,
          "time": 178.488576,
          "velocity": 0.6535433070866141
        },
        {
          "duration": 0.023436000000003787,
          "durationTicks": 15,
          "midi": 70,
          "name": "A#4",
          "ticks": 114240,
          "time": 178.488576,
          "velocity": 0.7322834645669292
        },
        {
          "duration": 0.023436000000003787,
          "durationTicks": 15,
          "midi": 82,
          "name": "A#5",
          "ticks": 114240,
          "time": 178.488576,
          "velocity": 0.33858267716535434
        },
        {
          "duration": 0.023436000000003787,
          "durationTicks": 15,
          "midi": 70,
          "name": "A#4",
          "ticks": 114360,
          "time": 178.676064,
          "velocity": 0.4645669291338583
        },
        {
          "duration": 0.023436000000003787,
          "durationTicks": 15,
          "midi": 44,
          "name": "G#2",
          "ticks": 114480,
          "time": 178.863552,
          "velocity": 0.6299212598425197
        },
        {
          "duration": 0.023436000000003787,
          "durationTicks": 15,
          "midi": 70,
          "name": "A#4",
          "ticks": 114480,
          "time": 178.863552,
          "velocity": 0.5354330708661418
        },
        {
          "duration": 0.023436000000003787,
          "durationTicks": 15,
          "midi": 82,
          "name": "A#5",
          "ticks": 114480,
          "time": 178.863552,
          "velocity": 0.3858267716535433
        },
        {
          "duration": 0.023435999999975365,
          "durationTicks": 15,
          "midi": 35,
          "name": "B1",
          "ticks": 114600,
          "time": 179.05104,
          "velocity": 0.8110236220472441
        },
        {
          "duration": 0.023435999999975365,
          "durationTicks": 15,
          "midi": 44,
          "name": "G#2",
          "ticks": 114600,
          "time": 179.05104,
          "velocity": 0.48031496062992124
        },
        {
          "duration": 0.023435999999975365,
          "durationTicks": 15,
          "midi": 70,
          "name": "A#4",
          "ticks": 114600,
          "time": 179.05104,
          "velocity": 0.44881889763779526
        },
        {
          "duration": 0.023435999999975365,
          "durationTicks": 15,
          "midi": 82,
          "name": "A#5",
          "ticks": 114600,
          "time": 179.05104,
          "velocity": 0.41732283464566927
        },
        {
          "duration": 0.023435999999975365,
          "durationTicks": 15,
          "midi": 35,
          "name": "B1",
          "ticks": 114720,
          "time": 179.238528,
          "velocity": 0.8110236220472441
        },
        {
          "duration": 0.023435999999975365,
          "durationTicks": 15,
          "midi": 37,
          "name": "C#2",
          "ticks": 114720,
          "time": 179.238528,
          "velocity": 0.984251968503937
        },
        {
          "duration": 0.023435999999975365,
          "durationTicks": 15,
          "midi": 44,
          "name": "G#2",
          "ticks": 114720,
          "time": 179.238528,
          "velocity": 0.7086614173228346
        },
        {
          "duration": 0.023435999999975365,
          "durationTicks": 15,
          "midi": 70,
          "name": "A#4",
          "ticks": 114720,
          "time": 179.238528,
          "velocity": 0.7322834645669292
        },
        {
          "duration": 0.023435999999975365,
          "durationTicks": 15,
          "midi": 82,
          "name": "A#5",
          "ticks": 114720,
          "time": 179.238528,
          "velocity": 0.4645669291338583
        },
        {
          "duration": 0.023436000000003787,
          "durationTicks": 15,
          "midi": 70,
          "name": "A#4",
          "ticks": 114840,
          "time": 179.42601599999998,
          "velocity": 0.4645669291338583
        },
        {
          "duration": 0.023436000000003787,
          "durationTicks": 15,
          "midi": 35,
          "name": "B1",
          "ticks": 114960,
          "time": 179.61350399999998,
          "velocity": 0.8110236220472441
        },
        {
          "duration": 0.023436000000003787,
          "durationTicks": 15,
          "midi": 46,
          "name": "A#2",
          "ticks": 114960,
          "time": 179.61350399999998,
          "velocity": 0.6614173228346457
        },
        {
          "duration": 0.023436000000003787,
          "durationTicks": 15,
          "midi": 70,
          "name": "A#4",
          "ticks": 114960,
          "time": 179.61350399999998,
          "velocity": 0.5354330708661418
        },
        {
          "duration": 0.023436000000003787,
          "durationTicks": 15,
          "midi": 82,
          "name": "A#5",
          "ticks": 114960,
          "time": 179.61350399999998,
          "velocity": 0.41732283464566927
        },
        {
          "duration": 0.023436000000003787,
          "durationTicks": 15,
          "midi": 70,
          "name": "A#4",
          "ticks": 115080,
          "time": 179.80099199999998,
          "velocity": 0.44881889763779526
        },
        {
          "duration": 0.023436000000003787,
          "durationTicks": 15,
          "midi": 82,
          "name": "A#5",
          "ticks": 115080,
          "time": 179.80099199999998,
          "velocity": 0.33858267716535434
        },
        {
          "duration": 0.023436000000003787,
          "durationTicks": 15,
          "midi": 35,
          "name": "B1",
          "ticks": 115200,
          "time": 179.98847999999998,
          "velocity": 0.8110236220472441
        },
        {
          "duration": 0.023436000000003787,
          "durationTicks": 15,
          "midi": 44,
          "name": "G#2",
          "ticks": 115200,
          "time": 179.98847999999998,
          "velocity": 0.7559055118110236
        },
        {
          "duration": 0.023436000000003787,
          "durationTicks": 15,
          "midi": 70,
          "name": "A#4",
          "ticks": 115200,
          "time": 179.98847999999998,
          "velocity": 0.7322834645669292
        },
        {
          "duration": 0.023436000000003787,
          "durationTicks": 15,
          "midi": 70,
          "name": "A#4",
          "ticks": 115320,
          "time": 180.17596799999998,
          "velocity": 0.4645669291338583
        },
        {
          "duration": 0.023436000000003787,
          "durationTicks": 15,
          "midi": 44,
          "name": "G#2",
          "ticks": 115440,
          "time": 180.36345599999999,
          "velocity": 0.6062992125984252
        },
        {
          "duration": 0.023436000000003787,
          "durationTicks": 15,
          "midi": 70,
          "name": "A#4",
          "ticks": 115440,
          "time": 180.36345599999999,
          "velocity": 0.5354330708661418
        },
        {
          "duration": 0.023436000000003787,
          "durationTicks": 15,
          "midi": 82,
          "name": "A#5",
          "ticks": 115440,
          "time": 180.36345599999999,
          "velocity": 0.3700787401574803
        },
        {
          "duration": 0.023436000000003787,
          "durationTicks": 15,
          "midi": 70,
          "name": "A#4",
          "ticks": 115560,
          "time": 180.550944,
          "velocity": 0.44881889763779526
        },
        {
          "duration": 0.023436000000003787,
          "durationTicks": 15,
          "midi": 82,
          "name": "A#5",
          "ticks": 115560,
          "time": 180.550944,
          "velocity": 0.3858267716535433
        },
        {
          "duration": 0.023436000000003787,
          "durationTicks": 15,
          "midi": 37,
          "name": "C#2",
          "ticks": 115680,
          "time": 180.738432,
          "velocity": 1
        },
        {
          "duration": 0.023436000000003787,
          "durationTicks": 15,
          "midi": 44,
          "name": "G#2",
          "ticks": 115680,
          "time": 180.738432,
          "velocity": 0.7559055118110236
        },
        {
          "duration": 0.023436000000003787,
          "durationTicks": 15,
          "midi": 70,
          "name": "A#4",
          "ticks": 115680,
          "time": 180.738432,
          "velocity": 0.7322834645669292
        },
        {
          "duration": 0.023436000000003787,
          "durationTicks": 15,
          "midi": 82,
          "name": "A#5",
          "ticks": 115680,
          "time": 180.738432,
          "velocity": 0.49606299212598426
        },
        {
          "duration": 0.023436000000003787,
          "durationTicks": 15,
          "midi": 70,
          "name": "A#4",
          "ticks": 115800,
          "time": 180.92592,
          "velocity": 0.4645669291338583
        },
        {
          "duration": 0.023436000000003787,
          "durationTicks": 15,
          "midi": 35,
          "name": "B1",
          "ticks": 115920,
          "time": 181.113408,
          "velocity": 0.6850393700787402
        },
        {
          "duration": 0.023436000000003787,
          "durationTicks": 15,
          "midi": 44,
          "name": "G#2",
          "ticks": 115920,
          "time": 181.113408,
          "velocity": 0.6141732283464567
        },
        {
          "duration": 0.023436000000003787,
          "durationTicks": 15,
          "midi": 70,
          "name": "A#4",
          "ticks": 115920,
          "time": 181.113408,
          "velocity": 0.5354330708661418
        },
        {
          "duration": 0.023436000000003787,
          "durationTicks": 15,
          "midi": 35,
          "name": "B1",
          "ticks": 116040,
          "time": 181.300896,
          "velocity": 0.6850393700787402
        },
        {
          "duration": 0.023436000000003787,
          "durationTicks": 15,
          "midi": 44,
          "name": "G#2",
          "ticks": 116040,
          "time": 181.300896,
          "velocity": 0.48031496062992124
        },
        {
          "duration": 0.023436000000003787,
          "durationTicks": 15,
          "midi": 70,
          "name": "A#4",
          "ticks": 116040,
          "time": 181.300896,
          "velocity": 0.44881889763779526
        },
        {
          "duration": 0.023436000000003787,
          "durationTicks": 15,
          "midi": 82,
          "name": "A#5",
          "ticks": 116040,
          "time": 181.300896,
          "velocity": 0.33070866141732286
        },
        {
          "duration": 0.023436000000003787,
          "durationTicks": 15,
          "midi": 35,
          "name": "B1",
          "ticks": 116160,
          "time": 181.488384,
          "velocity": 0.8110236220472441
        },
        {
          "duration": 0.023436000000003787,
          "durationTicks": 15,
          "midi": 44,
          "name": "G#2",
          "ticks": 116160,
          "time": 181.488384,
          "velocity": 0.7559055118110236
        },
        {
          "duration": 0.023436000000003787,
          "durationTicks": 15,
          "midi": 70,
          "name": "A#4",
          "ticks": 116160,
          "time": 181.488384,
          "velocity": 0.7322834645669292
        },
        {
          "duration": 0.023436000000003787,
          "durationTicks": 15,
          "midi": 82,
          "name": "A#5",
          "ticks": 116160,
          "time": 181.488384,
          "velocity": 0.33858267716535434
        },
        {
          "duration": 0.023436000000003787,
          "durationTicks": 15,
          "midi": 44,
          "name": "G#2",
          "ticks": 116280,
          "time": 181.675872,
          "velocity": 0.4094488188976378
        },
        {
          "duration": 0.023436000000003787,
          "durationTicks": 15,
          "midi": 70,
          "name": "A#4",
          "ticks": 116280,
          "time": 181.675872,
          "velocity": 0.4645669291338583
        },
        {
          "duration": 0.023435999999975365,
          "durationTicks": 15,
          "midi": 44,
          "name": "G#2",
          "ticks": 116400,
          "time": 181.86336,
          "velocity": 0.6299212598425197
        },
        {
          "duration": 0.023435999999975365,
          "durationTicks": 15,
          "midi": 70,
          "name": "A#4",
          "ticks": 116400,
          "time": 181.86336,
          "velocity": 0.5354330708661418
        },
        {
          "duration": 0.023435999999975365,
          "durationTicks": 15,
          "midi": 82,
          "name": "A#5",
          "ticks": 116400,
          "time": 181.86336,
          "velocity": 0.3858267716535433
        },
        {
          "duration": 0.023435999999975365,
          "durationTicks": 15,
          "midi": 44,
          "name": "G#2",
          "ticks": 116520,
          "time": 182.050848,
          "velocity": 0.48031496062992124
        },
        {
          "duration": 0.023435999999975365,
          "durationTicks": 15,
          "midi": 70,
          "name": "A#4",
          "ticks": 116520,
          "time": 182.050848,
          "velocity": 0.44881889763779526
        },
        {
          "duration": 0.023435999999975365,
          "durationTicks": 15,
          "midi": 82,
          "name": "A#5",
          "ticks": 116520,
          "time": 182.050848,
          "velocity": 0.41732283464566927
        },
        {
          "duration": 0.023436000000003787,
          "durationTicks": 15,
          "midi": 37,
          "name": "C#2",
          "ticks": 116640,
          "time": 182.23833599999998,
          "velocity": 0.984251968503937
        },
        {
          "duration": 0.023436000000003787,
          "durationTicks": 15,
          "midi": 44,
          "name": "G#2",
          "ticks": 116640,
          "time": 182.23833599999998,
          "velocity": 0.7716535433070866
        },
        {
          "duration": 0.023436000000003787,
          "durationTicks": 15,
          "midi": 70,
          "name": "A#4",
          "ticks": 116640,
          "time": 182.23833599999998,
          "velocity": 0.7322834645669292
        },
        {
          "duration": 0.023436000000003787,
          "durationTicks": 15,
          "midi": 82,
          "name": "A#5",
          "ticks": 116640,
          "time": 182.23833599999998,
          "velocity": 0.4645669291338583
        },
        {
          "duration": 0.023436000000003787,
          "durationTicks": 15,
          "midi": 44,
          "name": "G#2",
          "ticks": 116760,
          "time": 182.42582399999998,
          "velocity": 0.49606299212598426
        },
        {
          "duration": 0.023436000000003787,
          "durationTicks": 15,
          "midi": 70,
          "name": "A#4",
          "ticks": 116760,
          "time": 182.42582399999998,
          "velocity": 0.4645669291338583
        },
        {
          "duration": 0.023436000000003787,
          "durationTicks": 15,
          "midi": 46,
          "name": "A#2",
          "ticks": 116880,
          "time": 182.61331199999998,
          "velocity": 0.6614173228346457
        },
        {
          "duration": 0.023436000000003787,
          "durationTicks": 15,
          "midi": 70,
          "name": "A#4",
          "ticks": 116880,
          "time": 182.61331199999998,
          "velocity": 0.5354330708661418
        },
        {
          "duration": 0.023436000000003787,
          "durationTicks": 15,
          "midi": 82,
          "name": "A#5",
          "ticks": 116880,
          "time": 182.61331199999998,
          "velocity": 0.41732283464566927
        },
        {
          "duration": 0.023436000000003787,
          "durationTicks": 15,
          "midi": 70,
          "name": "A#4",
          "ticks": 117000,
          "time": 182.80079999999998,
          "velocity": 0.44881889763779526
        },
        {
          "duration": 0.023436000000003787,
          "durationTicks": 15,
          "midi": 82,
          "name": "A#5",
          "ticks": 117000,
          "time": 182.80079999999998,
          "velocity": 0.33858267716535434
        },
        {
          "duration": 0.023436000000003787,
          "durationTicks": 15,
          "midi": 35,
          "name": "B1",
          "ticks": 117120,
          "time": 182.98828799999998,
          "velocity": 0.8110236220472441
        },
        {
          "duration": 0.023436000000003787,
          "durationTicks": 15,
          "midi": 44,
          "name": "G#2",
          "ticks": 117120,
          "time": 182.98828799999998,
          "velocity": 0.7559055118110236
        },
        {
          "duration": 0.023436000000003787,
          "durationTicks": 15,
          "midi": 70,
          "name": "A#4",
          "ticks": 117120,
          "time": 182.98828799999998,
          "velocity": 0.7322834645669292
        },
        {
          "duration": 0.023436000000003787,
          "durationTicks": 15,
          "midi": 70,
          "name": "A#4",
          "ticks": 117240,
          "time": 183.17577599999998,
          "velocity": 0.4645669291338583
        },
        {
          "duration": 0.023436000000003787,
          "durationTicks": 15,
          "midi": 44,
          "name": "G#2",
          "ticks": 117360,
          "time": 183.363264,
          "velocity": 0.6062992125984252
        },
        {
          "duration": 0.023436000000003787,
          "durationTicks": 15,
          "midi": 70,
          "name": "A#4",
          "ticks": 117360,
          "time": 183.363264,
          "velocity": 0.5354330708661418
        },
        {
          "duration": 0.023436000000003787,
          "durationTicks": 15,
          "midi": 82,
          "name": "A#5",
          "ticks": 117360,
          "time": 183.363264,
          "velocity": 0.3700787401574803
        },
        {
          "duration": 0.023436000000003787,
          "durationTicks": 15,
          "midi": 70,
          "name": "A#4",
          "ticks": 117480,
          "time": 183.550752,
          "velocity": 0.44881889763779526
        },
        {
          "duration": 0.023436000000003787,
          "durationTicks": 15,
          "midi": 82,
          "name": "A#5",
          "ticks": 117480,
          "time": 183.550752,
          "velocity": 0.3858267716535433
        },
        {
          "duration": 0.023436000000003787,
          "durationTicks": 15,
          "midi": 37,
          "name": "C#2",
          "ticks": 117600,
          "time": 183.73824,
          "velocity": 1
        },
        {
          "duration": 0.023436000000003787,
          "durationTicks": 15,
          "midi": 44,
          "name": "G#2",
          "ticks": 117600,
          "time": 183.73824,
          "velocity": 0.7559055118110236
        },
        {
          "duration": 0.023436000000003787,
          "durationTicks": 15,
          "midi": 70,
          "name": "A#4",
          "ticks": 117600,
          "time": 183.73824,
          "velocity": 0.7322834645669292
        },
        {
          "duration": 0.023436000000003787,
          "durationTicks": 15,
          "midi": 82,
          "name": "A#5",
          "ticks": 117600,
          "time": 183.73824,
          "velocity": 0.49606299212598426
        },
        {
          "duration": 0.023436000000003787,
          "durationTicks": 15,
          "midi": 70,
          "name": "A#4",
          "ticks": 117720,
          "time": 183.925728,
          "velocity": 0.4645669291338583
        },
        {
          "duration": 0.023436000000003787,
          "durationTicks": 15,
          "midi": 35,
          "name": "B1",
          "ticks": 117840,
          "time": 184.113216,
          "velocity": 0.8110236220472441
        },
        {
          "duration": 0.023436000000003787,
          "durationTicks": 15,
          "midi": 44,
          "name": "G#2",
          "ticks": 117840,
          "time": 184.113216,
          "velocity": 0.6141732283464567
        },
        {
          "duration": 0.023436000000003787,
          "durationTicks": 15,
          "midi": 70,
          "name": "A#4",
          "ticks": 117840,
          "time": 184.113216,
          "velocity": 0.5354330708661418
        },
        {
          "duration": 0.023436000000003787,
          "durationTicks": 15,
          "midi": 44,
          "name": "G#2",
          "ticks": 117960,
          "time": 184.300704,
          "velocity": 0.48031496062992124
        },
        {
          "duration": 0.023436000000003787,
          "durationTicks": 15,
          "midi": 70,
          "name": "A#4",
          "ticks": 117960,
          "time": 184.300704,
          "velocity": 0.44881889763779526
        },
        {
          "duration": 0.023436000000003787,
          "durationTicks": 15,
          "midi": 82,
          "name": "A#5",
          "ticks": 117960,
          "time": 184.300704,
          "velocity": 0.33070866141732286
        },
        {
          "duration": 0.023436000000003787,
          "durationTicks": 15,
          "midi": 35,
          "name": "B1",
          "ticks": 118080,
          "time": 184.488192,
          "velocity": 0.8110236220472441
        },
        {
          "duration": 0.023436000000003787,
          "durationTicks": 15,
          "midi": 44,
          "name": "G#2",
          "ticks": 118080,
          "time": 184.488192,
          "velocity": 0.7559055118110236
        },
        {
          "duration": 0.023436000000003787,
          "durationTicks": 15,
          "midi": 70,
          "name": "A#4",
          "ticks": 118080,
          "time": 184.488192,
          "velocity": 0.7322834645669292
        },
        {
          "duration": 0.023436000000003787,
          "durationTicks": 15,
          "midi": 82,
          "name": "A#5",
          "ticks": 118080,
          "time": 184.488192,
          "velocity": 0.33858267716535434
        },
        {
          "duration": 0.023435999999975365,
          "durationTicks": 15,
          "midi": 44,
          "name": "G#2",
          "ticks": 118200,
          "time": 184.67568,
          "velocity": 0.4094488188976378
        },
        {
          "duration": 0.023435999999975365,
          "durationTicks": 15,
          "midi": 70,
          "name": "A#4",
          "ticks": 118200,
          "time": 184.67568,
          "velocity": 0.4645669291338583
        },
        {
          "duration": 0.023435999999975365,
          "durationTicks": 15,
          "midi": 44,
          "name": "G#2",
          "ticks": 118320,
          "time": 184.863168,
          "velocity": 0.6299212598425197
        },
        {
          "duration": 0.023435999999975365,
          "durationTicks": 15,
          "midi": 70,
          "name": "A#4",
          "ticks": 118320,
          "time": 184.863168,
          "velocity": 0.5354330708661418
        },
        {
          "duration": 0.023435999999975365,
          "durationTicks": 15,
          "midi": 82,
          "name": "A#5",
          "ticks": 118320,
          "time": 184.863168,
          "velocity": 0.3858267716535433
        },
        {
          "duration": 0.023436000000003787,
          "durationTicks": 15,
          "midi": 44,
          "name": "G#2",
          "ticks": 118440,
          "time": 185.05065599999998,
          "velocity": 0.48031496062992124
        },
        {
          "duration": 0.023436000000003787,
          "durationTicks": 15,
          "midi": 70,
          "name": "A#4",
          "ticks": 118440,
          "time": 185.05065599999998,
          "velocity": 0.44881889763779526
        },
        {
          "duration": 0.023436000000003787,
          "durationTicks": 15,
          "midi": 82,
          "name": "A#5",
          "ticks": 118440,
          "time": 185.05065599999998,
          "velocity": 0.41732283464566927
        },
        {
          "duration": 0.023436000000003787,
          "durationTicks": 15,
          "midi": 37,
          "name": "C#2",
          "ticks": 118560,
          "time": 185.23814399999998,
          "velocity": 0.984251968503937
        },
        {
          "duration": 0.023436000000003787,
          "durationTicks": 15,
          "midi": 44,
          "name": "G#2",
          "ticks": 118560,
          "time": 185.23814399999998,
          "velocity": 0.7716535433070866
        },
        {
          "duration": 0.023436000000003787,
          "durationTicks": 15,
          "midi": 70,
          "name": "A#4",
          "ticks": 118560,
          "time": 185.23814399999998,
          "velocity": 0.7322834645669292
        },
        {
          "duration": 0.023436000000003787,
          "durationTicks": 15,
          "midi": 82,
          "name": "A#5",
          "ticks": 118560,
          "time": 185.23814399999998,
          "velocity": 0.4645669291338583
        },
        {
          "duration": 0.023436000000003787,
          "durationTicks": 15,
          "midi": 44,
          "name": "G#2",
          "ticks": 118680,
          "time": 185.42563199999998,
          "velocity": 0.49606299212598426
        },
        {
          "duration": 0.023436000000003787,
          "durationTicks": 15,
          "midi": 70,
          "name": "A#4",
          "ticks": 118680,
          "time": 185.42563199999998,
          "velocity": 0.4645669291338583
        },
        {
          "duration": 0.023436000000003787,
          "durationTicks": 15,
          "midi": 46,
          "name": "A#2",
          "ticks": 118800,
          "time": 185.61311999999998,
          "velocity": 0.6614173228346457
        },
        {
          "duration": 0.023436000000003787,
          "durationTicks": 15,
          "midi": 70,
          "name": "A#4",
          "ticks": 118800,
          "time": 185.61311999999998,
          "velocity": 0.5354330708661418
        },
        {
          "duration": 0.023436000000003787,
          "durationTicks": 15,
          "midi": 82,
          "name": "A#5",
          "ticks": 118800,
          "time": 185.61311999999998,
          "velocity": 0.41732283464566927
        },
        {
          "duration": 0.023436000000003787,
          "durationTicks": 15,
          "midi": 35,
          "name": "B1",
          "ticks": 118920,
          "time": 185.80060799999998,
          "velocity": 0.8110236220472441
        },
        {
          "duration": 0.023436000000003787,
          "durationTicks": 15,
          "midi": 70,
          "name": "A#4",
          "ticks": 118920,
          "time": 185.80060799999998,
          "velocity": 0.44881889763779526
        },
        {
          "duration": 0.023436000000003787,
          "durationTicks": 15,
          "midi": 82,
          "name": "A#5",
          "ticks": 118920,
          "time": 185.80060799999998,
          "velocity": 0.33858267716535434
        },
        {
          "duration": 0.023436000000003787,
          "durationTicks": 15,
          "midi": 35,
          "name": "B1",
          "ticks": 119040,
          "time": 185.98809599999998,
          "velocity": 0.8110236220472441
        },
        {
          "duration": 0.023436000000003787,
          "durationTicks": 15,
          "midi": 44,
          "name": "G#2",
          "ticks": 119040,
          "time": 185.98809599999998,
          "velocity": 0.6929133858267716
        },
        {
          "duration": 0.023436000000003787,
          "durationTicks": 15,
          "midi": 70,
          "name": "A#4",
          "ticks": 119040,
          "time": 185.98809599999998,
          "velocity": 0.7322834645669292
        },
        {
          "duration": 0.023436000000003787,
          "durationTicks": 15,
          "midi": 70,
          "name": "A#4",
          "ticks": 119160,
          "time": 186.175584,
          "velocity": 0.4645669291338583
        },
        {
          "duration": 0.023436000000003787,
          "durationTicks": 15,
          "midi": 44,
          "name": "G#2",
          "ticks": 119280,
          "time": 186.363072,
          "velocity": 0.6062992125984252
        },
        {
          "duration": 0.023436000000003787,
          "durationTicks": 15,
          "midi": 70,
          "name": "A#4",
          "ticks": 119280,
          "time": 186.363072,
          "velocity": 0.5354330708661418
        },
        {
          "duration": 0.023436000000003787,
          "durationTicks": 15,
          "midi": 82,
          "name": "A#5",
          "ticks": 119280,
          "time": 186.363072,
          "velocity": 0.3700787401574803
        },
        {
          "duration": 0.023436000000003787,
          "durationTicks": 15,
          "midi": 70,
          "name": "A#4",
          "ticks": 119400,
          "time": 186.55056,
          "velocity": 0.44881889763779526
        },
        {
          "duration": 0.023436000000003787,
          "durationTicks": 15,
          "midi": 82,
          "name": "A#5",
          "ticks": 119400,
          "time": 186.55056,
          "velocity": 0.3858267716535433
        },
        {
          "duration": 0.023436000000003787,
          "durationTicks": 15,
          "midi": 37,
          "name": "C#2",
          "ticks": 119520,
          "time": 186.738048,
          "velocity": 1
        },
        {
          "duration": 0.023436000000003787,
          "durationTicks": 15,
          "midi": 44,
          "name": "G#2",
          "ticks": 119520,
          "time": 186.738048,
          "velocity": 0.7559055118110236
        },
        {
          "duration": 0.023436000000003787,
          "durationTicks": 15,
          "midi": 70,
          "name": "A#4",
          "ticks": 119520,
          "time": 186.738048,
          "velocity": 0.7322834645669292
        },
        {
          "duration": 0.023436000000003787,
          "durationTicks": 15,
          "midi": 82,
          "name": "A#5",
          "ticks": 119520,
          "time": 186.738048,
          "velocity": 0.49606299212598426
        },
        {
          "duration": 0.023436000000003787,
          "durationTicks": 15,
          "midi": 70,
          "name": "A#4",
          "ticks": 119640,
          "time": 186.925536,
          "velocity": 0.4645669291338583
        },
        {
          "duration": 0.023436000000003787,
          "durationTicks": 15,
          "midi": 35,
          "name": "B1",
          "ticks": 119760,
          "time": 187.113024,
          "velocity": 0.8110236220472441
        },
        {
          "duration": 0.023436000000003787,
          "durationTicks": 15,
          "midi": 44,
          "name": "G#2",
          "ticks": 119760,
          "time": 187.113024,
          "velocity": 0.6141732283464567
        },
        {
          "duration": 0.023436000000003787,
          "durationTicks": 15,
          "midi": 70,
          "name": "A#4",
          "ticks": 119760,
          "time": 187.113024,
          "velocity": 0.5354330708661418
        },
        {
          "duration": 0.023436000000003787,
          "durationTicks": 15,
          "midi": 44,
          "name": "G#2",
          "ticks": 119880,
          "time": 187.300512,
          "velocity": 0.48031496062992124
        },
        {
          "duration": 0.023436000000003787,
          "durationTicks": 15,
          "midi": 70,
          "name": "A#4",
          "ticks": 119880,
          "time": 187.300512,
          "velocity": 0.44881889763779526
        },
        {
          "duration": 0.023436000000003787,
          "durationTicks": 15,
          "midi": 82,
          "name": "A#5",
          "ticks": 119880,
          "time": 187.300512,
          "velocity": 0.33070866141732286
        },
        {
          "duration": 0.023435999999975365,
          "durationTicks": 15,
          "midi": 35,
          "name": "B1",
          "ticks": 120000,
          "time": 187.488,
          "velocity": 0.8110236220472441
        },
        {
          "duration": 0.023435999999975365,
          "durationTicks": 15,
          "midi": 44,
          "name": "G#2",
          "ticks": 120000,
          "time": 187.488,
          "velocity": 0.6535433070866141
        },
        {
          "duration": 0.023435999999975365,
          "durationTicks": 15,
          "midi": 70,
          "name": "A#4",
          "ticks": 120000,
          "time": 187.488,
          "velocity": 0.7322834645669292
        },
        {
          "duration": 0.023435999999975365,
          "durationTicks": 15,
          "midi": 82,
          "name": "A#5",
          "ticks": 120000,
          "time": 187.488,
          "velocity": 0.33858267716535434
        },
        {
          "duration": 0.023435999999975365,
          "durationTicks": 15,
          "midi": 70,
          "name": "A#4",
          "ticks": 120120,
          "time": 187.675488,
          "velocity": 0.4645669291338583
        },
        {
          "duration": 0.023436000000003787,
          "durationTicks": 15,
          "midi": 44,
          "name": "G#2",
          "ticks": 120240,
          "time": 187.86297599999997,
          "velocity": 0.6299212598425197
        },
        {
          "duration": 0.023436000000003787,
          "durationTicks": 15,
          "midi": 70,
          "name": "A#4",
          "ticks": 120240,
          "time": 187.86297599999997,
          "velocity": 0.5354330708661418
        },
        {
          "duration": 0.023436000000003787,
          "durationTicks": 15,
          "midi": 82,
          "name": "A#5",
          "ticks": 120240,
          "time": 187.86297599999997,
          "velocity": 0.3858267716535433
        },
        {
          "duration": 0.023436000000003787,
          "durationTicks": 15,
          "midi": 44,
          "name": "G#2",
          "ticks": 120360,
          "time": 188.05046399999998,
          "velocity": 0.48031496062992124
        },
        {
          "duration": 0.023436000000003787,
          "durationTicks": 15,
          "midi": 70,
          "name": "A#4",
          "ticks": 120360,
          "time": 188.05046399999998,
          "velocity": 0.44881889763779526
        },
        {
          "duration": 0.023436000000003787,
          "durationTicks": 15,
          "midi": 82,
          "name": "A#5",
          "ticks": 120360,
          "time": 188.05046399999998,
          "velocity": 0.41732283464566927
        },
        {
          "duration": 0.023436000000003787,
          "durationTicks": 15,
          "midi": 37,
          "name": "C#2",
          "ticks": 120480,
          "time": 188.23795199999998,
          "velocity": 0.984251968503937
        },
        {
          "duration": 0.023436000000003787,
          "durationTicks": 15,
          "midi": 44,
          "name": "G#2",
          "ticks": 120480,
          "time": 188.23795199999998,
          "velocity": 0.7086614173228346
        },
        {
          "duration": 0.023436000000003787,
          "durationTicks": 15,
          "midi": 70,
          "name": "A#4",
          "ticks": 120480,
          "time": 188.23795199999998,
          "velocity": 0.7322834645669292
        },
        {
          "duration": 0.023436000000003787,
          "durationTicks": 15,
          "midi": 82,
          "name": "A#5",
          "ticks": 120480,
          "time": 188.23795199999998,
          "velocity": 0.4645669291338583
        },
        {
          "duration": 0.023436000000003787,
          "durationTicks": 15,
          "midi": 70,
          "name": "A#4",
          "ticks": 120600,
          "time": 188.42543999999998,
          "velocity": 0.4645669291338583
        },
        {
          "duration": 0.023436000000003787,
          "durationTicks": 15,
          "midi": 46,
          "name": "A#2",
          "ticks": 120720,
          "time": 188.61292799999998,
          "velocity": 0.6614173228346457
        },
        {
          "duration": 0.023436000000003787,
          "durationTicks": 15,
          "midi": 70,
          "name": "A#4",
          "ticks": 120720,
          "time": 188.61292799999998,
          "velocity": 0.5354330708661418
        },
        {
          "duration": 0.023436000000003787,
          "durationTicks": 15,
          "midi": 82,
          "name": "A#5",
          "ticks": 120720,
          "time": 188.61292799999998,
          "velocity": 0.41732283464566927
        },
        {
          "duration": 0.023436000000003787,
          "durationTicks": 15,
          "midi": 70,
          "name": "A#4",
          "ticks": 120840,
          "time": 188.80041599999998,
          "velocity": 0.44881889763779526
        },
        {
          "duration": 0.023436000000003787,
          "durationTicks": 15,
          "midi": 82,
          "name": "A#5",
          "ticks": 120840,
          "time": 188.80041599999998,
          "velocity": 0.33858267716535434
        },
        {
          "duration": 0.023436000000003787,
          "durationTicks": 15,
          "midi": 35,
          "name": "B1",
          "ticks": 120960,
          "time": 188.987904,
          "velocity": 0.8110236220472441
        },
        {
          "duration": 0.023436000000003787,
          "durationTicks": 15,
          "midi": 44,
          "name": "G#2",
          "ticks": 120960,
          "time": 188.987904,
          "velocity": 0.6929133858267716
        },
        {
          "duration": 0.023436000000003787,
          "durationTicks": 15,
          "midi": 70,
          "name": "A#4",
          "ticks": 120960,
          "time": 188.987904,
          "velocity": 0.7322834645669292
        },
        {
          "duration": 0.023436000000003787,
          "durationTicks": 15,
          "midi": 70,
          "name": "A#4",
          "ticks": 121080,
          "time": 189.175392,
          "velocity": 0.4645669291338583
        },
        {
          "duration": 0.023436000000003787,
          "durationTicks": 15,
          "midi": 44,
          "name": "G#2",
          "ticks": 121200,
          "time": 189.36288,
          "velocity": 0.6062992125984252
        },
        {
          "duration": 0.023436000000003787,
          "durationTicks": 15,
          "midi": 70,
          "name": "A#4",
          "ticks": 121200,
          "time": 189.36288,
          "velocity": 0.5354330708661418
        },
        {
          "duration": 0.023436000000003787,
          "durationTicks": 15,
          "midi": 82,
          "name": "A#5",
          "ticks": 121200,
          "time": 189.36288,
          "velocity": 0.3700787401574803
        },
        {
          "duration": 0.023436000000003787,
          "durationTicks": 15,
          "midi": 70,
          "name": "A#4",
          "ticks": 121320,
          "time": 189.550368,
          "velocity": 0.44881889763779526
        },
        {
          "duration": 0.023436000000003787,
          "durationTicks": 15,
          "midi": 82,
          "name": "A#5",
          "ticks": 121320,
          "time": 189.550368,
          "velocity": 0.3858267716535433
        },
        {
          "duration": 0.023436000000003787,
          "durationTicks": 15,
          "midi": 37,
          "name": "C#2",
          "ticks": 121440,
          "time": 189.737856,
          "velocity": 1
        },
        {
          "duration": 0.023436000000003787,
          "durationTicks": 15,
          "midi": 44,
          "name": "G#2",
          "ticks": 121440,
          "time": 189.737856,
          "velocity": 0.7559055118110236
        },
        {
          "duration": 0.023436000000003787,
          "durationTicks": 15,
          "midi": 70,
          "name": "A#4",
          "ticks": 121440,
          "time": 189.737856,
          "velocity": 0.7322834645669292
        },
        {
          "duration": 0.023436000000003787,
          "durationTicks": 15,
          "midi": 82,
          "name": "A#5",
          "ticks": 121440,
          "time": 189.737856,
          "velocity": 0.49606299212598426
        },
        {
          "duration": 0.023436000000003787,
          "durationTicks": 15,
          "midi": 70,
          "name": "A#4",
          "ticks": 121560,
          "time": 189.925344,
          "velocity": 0.4645669291338583
        },
        {
          "duration": 0.023436000000003787,
          "durationTicks": 15,
          "midi": 44,
          "name": "G#2",
          "ticks": 121680,
          "time": 190.112832,
          "velocity": 0.6141732283464567
        },
        {
          "duration": 0.023436000000003787,
          "durationTicks": 15,
          "midi": 70,
          "name": "A#4",
          "ticks": 121680,
          "time": 190.112832,
          "velocity": 0.5354330708661418
        },
        {
          "duration": 0.023435999999975365,
          "durationTicks": 15,
          "midi": 35,
          "name": "B1",
          "ticks": 121800,
          "time": 190.30032,
          "velocity": 0.8110236220472441
        },
        {
          "duration": 0.023435999999975365,
          "durationTicks": 15,
          "midi": 44,
          "name": "G#2",
          "ticks": 121800,
          "time": 190.30032,
          "velocity": 0.48031496062992124
        },
        {
          "duration": 0.023435999999975365,
          "durationTicks": 15,
          "midi": 70,
          "name": "A#4",
          "ticks": 121800,
          "time": 190.30032,
          "velocity": 0.44881889763779526
        },
        {
          "duration": 0.023435999999975365,
          "durationTicks": 15,
          "midi": 82,
          "name": "A#5",
          "ticks": 121800,
          "time": 190.30032,
          "velocity": 0.33070866141732286
        },
        {
          "duration": 0.023435999999975365,
          "durationTicks": 15,
          "midi": 35,
          "name": "B1",
          "ticks": 121920,
          "time": 190.487808,
          "velocity": 0.8110236220472441
        },
        {
          "duration": 0.023435999999975365,
          "durationTicks": 15,
          "midi": 44,
          "name": "G#2",
          "ticks": 121920,
          "time": 190.487808,
          "velocity": 0.6535433070866141
        },
        {
          "duration": 0.023435999999975365,
          "durationTicks": 15,
          "midi": 70,
          "name": "A#4",
          "ticks": 121920,
          "time": 190.487808,
          "velocity": 0.7322834645669292
        },
        {
          "duration": 0.023435999999975365,
          "durationTicks": 15,
          "midi": 82,
          "name": "A#5",
          "ticks": 121920,
          "time": 190.487808,
          "velocity": 0.33858267716535434
        },
        {
          "duration": 0.023436000000003787,
          "durationTicks": 15,
          "midi": 70,
          "name": "A#4",
          "ticks": 122040,
          "time": 190.67529599999997,
          "velocity": 0.4645669291338583
        },
        {
          "duration": 0.023436000000003787,
          "durationTicks": 15,
          "midi": 44,
          "name": "G#2",
          "ticks": 122160,
          "time": 190.86278399999998,
          "velocity": 0.6299212598425197
        },
        {
          "duration": 0.023436000000003787,
          "durationTicks": 15,
          "midi": 70,
          "name": "A#4",
          "ticks": 122160,
          "time": 190.86278399999998,
          "velocity": 0.5354330708661418
        },
        {
          "duration": 0.023436000000003787,
          "durationTicks": 15,
          "midi": 82,
          "name": "A#5",
          "ticks": 122160,
          "time": 190.86278399999998,
          "velocity": 0.3858267716535433
        },
        {
          "duration": 0.023436000000003787,
          "durationTicks": 15,
          "midi": 44,
          "name": "G#2",
          "ticks": 122280,
          "time": 191.05027199999998,
          "velocity": 0.48031496062992124
        },
        {
          "duration": 0.023436000000003787,
          "durationTicks": 15,
          "midi": 70,
          "name": "A#4",
          "ticks": 122280,
          "time": 191.05027199999998,
          "velocity": 0.44881889763779526
        },
        {
          "duration": 0.023436000000003787,
          "durationTicks": 15,
          "midi": 82,
          "name": "A#5",
          "ticks": 122280,
          "time": 191.05027199999998,
          "velocity": 0.41732283464566927
        },
        {
          "duration": 0.023436000000003787,
          "durationTicks": 15,
          "midi": 37,
          "name": "C#2",
          "ticks": 122400,
          "time": 191.23775999999998,
          "velocity": 0.984251968503937
        },
        {
          "duration": 0.023436000000003787,
          "durationTicks": 15,
          "midi": 44,
          "name": "G#2",
          "ticks": 122400,
          "time": 191.23775999999998,
          "velocity": 0.7086614173228346
        },
        {
          "duration": 0.023436000000003787,
          "durationTicks": 15,
          "midi": 70,
          "name": "A#4",
          "ticks": 122400,
          "time": 191.23775999999998,
          "velocity": 0.7322834645669292
        },
        {
          "duration": 0.023436000000003787,
          "durationTicks": 15,
          "midi": 82,
          "name": "A#5",
          "ticks": 122400,
          "time": 191.23775999999998,
          "velocity": 0.4645669291338583
        },
        {
          "duration": 0.023436000000003787,
          "durationTicks": 15,
          "midi": 70,
          "name": "A#4",
          "ticks": 122520,
          "time": 191.42524799999998,
          "velocity": 0.4645669291338583
        },
        {
          "duration": 0.023436000000003787,
          "durationTicks": 15,
          "midi": 46,
          "name": "A#2",
          "ticks": 122640,
          "time": 191.61273599999998,
          "velocity": 0.6614173228346457
        },
        {
          "duration": 0.023436000000003787,
          "durationTicks": 15,
          "midi": 70,
          "name": "A#4",
          "ticks": 122640,
          "time": 191.61273599999998,
          "velocity": 0.5354330708661418
        },
        {
          "duration": 0.023436000000003787,
          "durationTicks": 15,
          "midi": 82,
          "name": "A#5",
          "ticks": 122640,
          "time": 191.61273599999998,
          "velocity": 0.41732283464566927
        },
        {
          "duration": 0.023436000000003787,
          "durationTicks": 15,
          "midi": 70,
          "name": "A#4",
          "ticks": 122760,
          "time": 191.800224,
          "velocity": 0.44881889763779526
        },
        {
          "duration": 0.023436000000003787,
          "durationTicks": 15,
          "midi": 82,
          "name": "A#5",
          "ticks": 122760,
          "time": 191.800224,
          "velocity": 0.33858267716535434
        },
        {
          "duration": 0.023436000000003787,
          "durationTicks": 15,
          "midi": 35,
          "name": "B1",
          "ticks": 122880,
          "time": 191.987712,
          "velocity": 0.952755905511811
        },
        {
          "duration": 0.023436000000003787,
          "durationTicks": 15,
          "midi": 44,
          "name": "G#2",
          "ticks": 122880,
          "time": 191.987712,
          "velocity": 0.6929133858267716
        },
        {
          "duration": 0.023436000000003787,
          "durationTicks": 15,
          "midi": 49,
          "name": "C#3",
          "ticks": 122880,
          "time": 191.987712,
          "velocity": 0.4094488188976378
        },
        {
          "duration": 0.023436000000003787,
          "durationTicks": 15,
          "midi": 59,
          "name": "B3",
          "ticks": 122880,
          "time": 191.987712,
          "velocity": 0.889763779527559
        },
        {
          "duration": 0.023436000000003787,
          "durationTicks": 15,
          "midi": 70,
          "name": "A#4",
          "ticks": 122880,
          "time": 191.987712,
          "velocity": 0.7322834645669292
        },
        {
          "duration": 0.023436000000003787,
          "durationTicks": 15,
          "midi": 70,
          "name": "A#4",
          "ticks": 123000,
          "time": 192.1752,
          "velocity": 0.4645669291338583
        },
        {
          "duration": 0.023436000000003787,
          "durationTicks": 15,
          "midi": 44,
          "name": "G#2",
          "ticks": 123120,
          "time": 192.362688,
          "velocity": 0.6062992125984252
        },
        {
          "duration": 0.023436000000003787,
          "durationTicks": 15,
          "midi": 70,
          "name": "A#4",
          "ticks": 123120,
          "time": 192.362688,
          "velocity": 0.5354330708661418
        },
        {
          "duration": 0.023436000000003787,
          "durationTicks": 15,
          "midi": 82,
          "name": "A#5",
          "ticks": 123120,
          "time": 192.362688,
          "velocity": 0.3700787401574803
        },
        {
          "duration": 0.023436000000003787,
          "durationTicks": 15,
          "midi": 70,
          "name": "A#4",
          "ticks": 123240,
          "time": 192.550176,
          "velocity": 0.44881889763779526
        },
        {
          "duration": 0.023436000000003787,
          "durationTicks": 15,
          "midi": 82,
          "name": "A#5",
          "ticks": 123240,
          "time": 192.550176,
          "velocity": 0.3858267716535433
        },
        {
          "duration": 0.023436000000003787,
          "durationTicks": 15,
          "midi": 37,
          "name": "C#2",
          "ticks": 123360,
          "time": 192.737664,
          "velocity": 1
        },
        {
          "duration": 0.023436000000003787,
          "durationTicks": 15,
          "midi": 44,
          "name": "G#2",
          "ticks": 123360,
          "time": 192.737664,
          "velocity": 0.7559055118110236
        },
        {
          "duration": 0.023436000000003787,
          "durationTicks": 15,
          "midi": 70,
          "name": "A#4",
          "ticks": 123360,
          "time": 192.737664,
          "velocity": 0.7322834645669292
        },
        {
          "duration": 0.023436000000003787,
          "durationTicks": 15,
          "midi": 82,
          "name": "A#5",
          "ticks": 123360,
          "time": 192.737664,
          "velocity": 0.49606299212598426
        },
        {
          "duration": 0.023436000000003787,
          "durationTicks": 15,
          "midi": 70,
          "name": "A#4",
          "ticks": 123480,
          "time": 192.925152,
          "velocity": 0.4645669291338583
        },
        {
          "duration": 0.023435999999975365,
          "durationTicks": 15,
          "midi": 35,
          "name": "B1",
          "ticks": 123600,
          "time": 193.11264,
          "velocity": 0.7480314960629921
        },
        {
          "duration": 0.023435999999975365,
          "durationTicks": 15,
          "midi": 44,
          "name": "G#2",
          "ticks": 123600,
          "time": 193.11264,
          "velocity": 0.6141732283464567
        },
        {
          "duration": 0.023435999999975365,
          "durationTicks": 15,
          "midi": 70,
          "name": "A#4",
          "ticks": 123600,
          "time": 193.11264,
          "velocity": 0.5354330708661418
        },
        {
          "duration": 0.023435999999975365,
          "durationTicks": 15,
          "midi": 44,
          "name": "G#2",
          "ticks": 123720,
          "time": 193.300128,
          "velocity": 0.48031496062992124
        },
        {
          "duration": 0.023435999999975365,
          "durationTicks": 15,
          "midi": 70,
          "name": "A#4",
          "ticks": 123720,
          "time": 193.300128,
          "velocity": 0.44881889763779526
        },
        {
          "duration": 0.023435999999975365,
          "durationTicks": 15,
          "midi": 82,
          "name": "A#5",
          "ticks": 123720,
          "time": 193.300128,
          "velocity": 0.33070866141732286
        },
        {
          "duration": 0.023436000000003787,
          "durationTicks": 15,
          "midi": 35,
          "name": "B1",
          "ticks": 123840,
          "time": 193.48761599999997,
          "velocity": 0.8110236220472441
        },
        {
          "duration": 0.023436000000003787,
          "durationTicks": 15,
          "midi": 44,
          "name": "G#2",
          "ticks": 123840,
          "time": 193.48761599999997,
          "velocity": 0.6535433070866141
        },
        {
          "duration": 0.023436000000003787,
          "durationTicks": 15,
          "midi": 70,
          "name": "A#4",
          "ticks": 123840,
          "time": 193.48761599999997,
          "velocity": 0.7322834645669292
        },
        {
          "duration": 0.023436000000003787,
          "durationTicks": 15,
          "midi": 82,
          "name": "A#5",
          "ticks": 123840,
          "time": 193.48761599999997,
          "velocity": 0.33858267716535434
        },
        {
          "duration": 0.023436000000003787,
          "durationTicks": 15,
          "midi": 70,
          "name": "A#4",
          "ticks": 123960,
          "time": 193.67510399999998,
          "velocity": 0.4645669291338583
        },
        {
          "duration": 0.023436000000003787,
          "durationTicks": 15,
          "midi": 44,
          "name": "G#2",
          "ticks": 124080,
          "time": 193.86259199999998,
          "velocity": 0.6299212598425197
        },
        {
          "duration": 0.023436000000003787,
          "durationTicks": 15,
          "midi": 70,
          "name": "A#4",
          "ticks": 124080,
          "time": 193.86259199999998,
          "velocity": 0.5354330708661418
        },
        {
          "duration": 0.023436000000003787,
          "durationTicks": 15,
          "midi": 82,
          "name": "A#5",
          "ticks": 124080,
          "time": 193.86259199999998,
          "velocity": 0.3858267716535433
        },
        {
          "duration": 0.023436000000003787,
          "durationTicks": 15,
          "midi": 44,
          "name": "G#2",
          "ticks": 124200,
          "time": 194.05007999999998,
          "velocity": 0.48031496062992124
        },
        {
          "duration": 0.023436000000003787,
          "durationTicks": 15,
          "midi": 70,
          "name": "A#4",
          "ticks": 124200,
          "time": 194.05007999999998,
          "velocity": 0.44881889763779526
        },
        {
          "duration": 0.023436000000003787,
          "durationTicks": 15,
          "midi": 82,
          "name": "A#5",
          "ticks": 124200,
          "time": 194.05007999999998,
          "velocity": 0.41732283464566927
        },
        {
          "duration": 0.023436000000003787,
          "durationTicks": 15,
          "midi": 37,
          "name": "C#2",
          "ticks": 124320,
          "time": 194.23756799999998,
          "velocity": 0.984251968503937
        },
        {
          "duration": 0.023436000000003787,
          "durationTicks": 15,
          "midi": 44,
          "name": "G#2",
          "ticks": 124320,
          "time": 194.23756799999998,
          "velocity": 0.7086614173228346
        },
        {
          "duration": 0.023436000000003787,
          "durationTicks": 15,
          "midi": 70,
          "name": "A#4",
          "ticks": 124320,
          "time": 194.23756799999998,
          "velocity": 0.7322834645669292
        },
        {
          "duration": 0.023436000000003787,
          "durationTicks": 15,
          "midi": 82,
          "name": "A#5",
          "ticks": 124320,
          "time": 194.23756799999998,
          "velocity": 0.4645669291338583
        },
        {
          "duration": 0.023436000000003787,
          "durationTicks": 15,
          "midi": 70,
          "name": "A#4",
          "ticks": 124440,
          "time": 194.42505599999998,
          "velocity": 0.4645669291338583
        },
        {
          "duration": 0.023436000000003787,
          "durationTicks": 15,
          "midi": 46,
          "name": "A#2",
          "ticks": 124560,
          "time": 194.61254399999999,
          "velocity": 0.6614173228346457
        },
        {
          "duration": 0.023436000000003787,
          "durationTicks": 15,
          "midi": 70,
          "name": "A#4",
          "ticks": 124560,
          "time": 194.61254399999999,
          "velocity": 0.5354330708661418
        },
        {
          "duration": 0.023436000000003787,
          "durationTicks": 15,
          "midi": 82,
          "name": "A#5",
          "ticks": 124560,
          "time": 194.61254399999999,
          "velocity": 0.41732283464566927
        },
        {
          "duration": 0.023436000000003787,
          "durationTicks": 15,
          "midi": 70,
          "name": "A#4",
          "ticks": 124680,
          "time": 194.800032,
          "velocity": 0.44881889763779526
        },
        {
          "duration": 0.023436000000003787,
          "durationTicks": 15,
          "midi": 82,
          "name": "A#5",
          "ticks": 124680,
          "time": 194.800032,
          "velocity": 0.33858267716535434
        },
        {
          "duration": 0.023436000000003787,
          "durationTicks": 15,
          "midi": 35,
          "name": "B1",
          "ticks": 124800,
          "time": 194.98752,
          "velocity": 0.8110236220472441
        },
        {
          "duration": 0.023436000000003787,
          "durationTicks": 15,
          "midi": 44,
          "name": "G#2",
          "ticks": 124800,
          "time": 194.98752,
          "velocity": 0.6929133858267716
        },
        {
          "duration": 0.023436000000003787,
          "durationTicks": 15,
          "midi": 70,
          "name": "A#4",
          "ticks": 124800,
          "time": 194.98752,
          "velocity": 0.7322834645669292
        },
        {
          "duration": 0.023436000000003787,
          "durationTicks": 15,
          "midi": 70,
          "name": "A#4",
          "ticks": 124920,
          "time": 195.175008,
          "velocity": 0.4645669291338583
        },
        {
          "duration": 0.023436000000003787,
          "durationTicks": 15,
          "midi": 44,
          "name": "G#2",
          "ticks": 125040,
          "time": 195.362496,
          "velocity": 0.6062992125984252
        },
        {
          "duration": 0.023436000000003787,
          "durationTicks": 15,
          "midi": 70,
          "name": "A#4",
          "ticks": 125040,
          "time": 195.362496,
          "velocity": 0.5354330708661418
        },
        {
          "duration": 0.023436000000003787,
          "durationTicks": 15,
          "midi": 82,
          "name": "A#5",
          "ticks": 125040,
          "time": 195.362496,
          "velocity": 0.3700787401574803
        },
        {
          "duration": 0.023436000000003787,
          "durationTicks": 15,
          "midi": 70,
          "name": "A#4",
          "ticks": 125160,
          "time": 195.549984,
          "velocity": 0.44881889763779526
        },
        {
          "duration": 0.023436000000003787,
          "durationTicks": 15,
          "midi": 82,
          "name": "A#5",
          "ticks": 125160,
          "time": 195.549984,
          "velocity": 0.3858267716535433
        },
        {
          "duration": 0.023436000000003787,
          "durationTicks": 15,
          "midi": 37,
          "name": "C#2",
          "ticks": 125280,
          "time": 195.737472,
          "velocity": 1
        },
        {
          "duration": 0.023436000000003787,
          "durationTicks": 15,
          "midi": 44,
          "name": "G#2",
          "ticks": 125280,
          "time": 195.737472,
          "velocity": 0.7559055118110236
        },
        {
          "duration": 0.023436000000003787,
          "durationTicks": 15,
          "midi": 70,
          "name": "A#4",
          "ticks": 125280,
          "time": 195.737472,
          "velocity": 0.7322834645669292
        },
        {
          "duration": 0.023436000000003787,
          "durationTicks": 15,
          "midi": 82,
          "name": "A#5",
          "ticks": 125280,
          "time": 195.737472,
          "velocity": 0.49606299212598426
        },
        {
          "duration": 0.023435999999975365,
          "durationTicks": 15,
          "midi": 70,
          "name": "A#4",
          "ticks": 125400,
          "time": 195.92496,
          "velocity": 0.4645669291338583
        },
        {
          "duration": 0.023435999999975365,
          "durationTicks": 15,
          "midi": 44,
          "name": "G#2",
          "ticks": 125520,
          "time": 196.112448,
          "velocity": 0.6141732283464567
        },
        {
          "duration": 0.023435999999975365,
          "durationTicks": 15,
          "midi": 70,
          "name": "A#4",
          "ticks": 125520,
          "time": 196.112448,
          "velocity": 0.5354330708661418
        },
        {
          "duration": 0.023436000000003787,
          "durationTicks": 15,
          "midi": 35,
          "name": "B1",
          "ticks": 125640,
          "time": 196.29993599999997,
          "velocity": 0.7480314960629921
        },
        {
          "duration": 0.023436000000003787,
          "durationTicks": 15,
          "midi": 44,
          "name": "G#2",
          "ticks": 125640,
          "time": 196.29993599999997,
          "velocity": 0.48031496062992124
        },
        {
          "duration": 0.023436000000003787,
          "durationTicks": 15,
          "midi": 70,
          "name": "A#4",
          "ticks": 125640,
          "time": 196.29993599999997,
          "velocity": 0.44881889763779526
        },
        {
          "duration": 0.023436000000003787,
          "durationTicks": 15,
          "midi": 82,
          "name": "A#5",
          "ticks": 125640,
          "time": 196.29993599999997,
          "velocity": 0.33070866141732286
        },
        {
          "duration": 0.023436000000003787,
          "durationTicks": 15,
          "midi": 35,
          "name": "B1",
          "ticks": 125760,
          "time": 196.48742399999998,
          "velocity": 0.8110236220472441
        },
        {
          "duration": 0.023436000000003787,
          "durationTicks": 15,
          "midi": 44,
          "name": "G#2",
          "ticks": 125760,
          "time": 196.48742399999998,
          "velocity": 0.6535433070866141
        },
        {
          "duration": 0.023436000000003787,
          "durationTicks": 15,
          "midi": 70,
          "name": "A#4",
          "ticks": 125760,
          "time": 196.48742399999998,
          "velocity": 0.7322834645669292
        },
        {
          "duration": 0.023436000000003787,
          "durationTicks": 15,
          "midi": 82,
          "name": "A#5",
          "ticks": 125760,
          "time": 196.48742399999998,
          "velocity": 0.33858267716535434
        },
        {
          "duration": 0.023436000000003787,
          "durationTicks": 15,
          "midi": 70,
          "name": "A#4",
          "ticks": 125880,
          "time": 196.67491199999998,
          "velocity": 0.4645669291338583
        },
        {
          "duration": 0.023436000000003787,
          "durationTicks": 15,
          "midi": 44,
          "name": "G#2",
          "ticks": 126000,
          "time": 196.86239999999998,
          "velocity": 0.6299212598425197
        },
        {
          "duration": 0.023436000000003787,
          "durationTicks": 15,
          "midi": 70,
          "name": "A#4",
          "ticks": 126000,
          "time": 196.86239999999998,
          "velocity": 0.5354330708661418
        },
        {
          "duration": 0.023436000000003787,
          "durationTicks": 15,
          "midi": 82,
          "name": "A#5",
          "ticks": 126000,
          "time": 196.86239999999998,
          "velocity": 0.3858267716535433
        },
        {
          "duration": 0.023436000000003787,
          "durationTicks": 15,
          "midi": 44,
          "name": "G#2",
          "ticks": 126120,
          "time": 197.04988799999998,
          "velocity": 0.48031496062992124
        },
        {
          "duration": 0.023436000000003787,
          "durationTicks": 15,
          "midi": 70,
          "name": "A#4",
          "ticks": 126120,
          "time": 197.04988799999998,
          "velocity": 0.44881889763779526
        },
        {
          "duration": 0.023436000000003787,
          "durationTicks": 15,
          "midi": 82,
          "name": "A#5",
          "ticks": 126120,
          "time": 197.04988799999998,
          "velocity": 0.41732283464566927
        },
        {
          "duration": 0.023436000000003787,
          "durationTicks": 15,
          "midi": 37,
          "name": "C#2",
          "ticks": 126240,
          "time": 197.23737599999998,
          "velocity": 0.984251968503937
        },
        {
          "duration": 0.023436000000003787,
          "durationTicks": 15,
          "midi": 44,
          "name": "G#2",
          "ticks": 126240,
          "time": 197.23737599999998,
          "velocity": 0.7086614173228346
        },
        {
          "duration": 0.023436000000003787,
          "durationTicks": 15,
          "midi": 70,
          "name": "A#4",
          "ticks": 126240,
          "time": 197.23737599999998,
          "velocity": 0.7322834645669292
        },
        {
          "duration": 0.023436000000003787,
          "durationTicks": 15,
          "midi": 82,
          "name": "A#5",
          "ticks": 126240,
          "time": 197.23737599999998,
          "velocity": 0.4645669291338583
        },
        {
          "duration": 0.023436000000003787,
          "durationTicks": 15,
          "midi": 70,
          "name": "A#4",
          "ticks": 126360,
          "time": 197.42486399999999,
          "velocity": 0.4645669291338583
        },
        {
          "duration": 0.023436000000003787,
          "durationTicks": 15,
          "midi": 46,
          "name": "A#2",
          "ticks": 126480,
          "time": 197.612352,
          "velocity": 0.6614173228346457
        },
        {
          "duration": 0.023436000000003787,
          "durationTicks": 15,
          "midi": 70,
          "name": "A#4",
          "ticks": 126480,
          "time": 197.612352,
          "velocity": 0.5354330708661418
        },
        {
          "duration": 0.023436000000003787,
          "durationTicks": 15,
          "midi": 82,
          "name": "A#5",
          "ticks": 126480,
          "time": 197.612352,
          "velocity": 0.41732283464566927
        },
        {
          "duration": 0.023436000000003787,
          "durationTicks": 15,
          "midi": 70,
          "name": "A#4",
          "ticks": 126600,
          "time": 197.79984,
          "velocity": 0.44881889763779526
        },
        {
          "duration": 0.023436000000003787,
          "durationTicks": 15,
          "midi": 82,
          "name": "A#5",
          "ticks": 126600,
          "time": 197.79984,
          "velocity": 0.33858267716535434
        },
        {
          "duration": 0.023436000000003787,
          "durationTicks": 15,
          "midi": 35,
          "name": "B1",
          "ticks": 126720,
          "time": 197.987328,
          "velocity": 0.8110236220472441
        },
        {
          "duration": 0.023436000000003787,
          "durationTicks": 15,
          "midi": 44,
          "name": "G#2",
          "ticks": 126720,
          "time": 197.987328,
          "velocity": 0.6929133858267716
        },
        {
          "duration": 0.023436000000003787,
          "durationTicks": 15,
          "midi": 70,
          "name": "A#4",
          "ticks": 126720,
          "time": 197.987328,
          "velocity": 0.7322834645669292
        },
        {
          "duration": 0.023436000000003787,
          "durationTicks": 15,
          "midi": 70,
          "name": "A#4",
          "ticks": 126840,
          "time": 198.174816,
          "velocity": 0.4645669291338583
        },
        {
          "duration": 0.023436000000003787,
          "durationTicks": 15,
          "midi": 44,
          "name": "G#2",
          "ticks": 126960,
          "time": 198.362304,
          "velocity": 0.6062992125984252
        },
        {
          "duration": 0.023436000000003787,
          "durationTicks": 15,
          "midi": 70,
          "name": "A#4",
          "ticks": 126960,
          "time": 198.362304,
          "velocity": 0.5354330708661418
        },
        {
          "duration": 0.023436000000003787,
          "durationTicks": 15,
          "midi": 82,
          "name": "A#5",
          "ticks": 126960,
          "time": 198.362304,
          "velocity": 0.3700787401574803
        },
        {
          "duration": 0.023436000000003787,
          "durationTicks": 15,
          "midi": 70,
          "name": "A#4",
          "ticks": 127080,
          "time": 198.549792,
          "velocity": 0.44881889763779526
        },
        {
          "duration": 0.023436000000003787,
          "durationTicks": 15,
          "midi": 82,
          "name": "A#5",
          "ticks": 127080,
          "time": 198.549792,
          "velocity": 0.3858267716535433
        },
        {
          "duration": 0.023435999999975365,
          "durationTicks": 15,
          "midi": 37,
          "name": "C#2",
          "ticks": 127200,
          "time": 198.73728,
          "velocity": 1
        },
        {
          "duration": 0.023435999999975365,
          "durationTicks": 15,
          "midi": 44,
          "name": "G#2",
          "ticks": 127200,
          "time": 198.73728,
          "velocity": 0.7559055118110236
        },
        {
          "duration": 0.023435999999975365,
          "durationTicks": 15,
          "midi": 70,
          "name": "A#4",
          "ticks": 127200,
          "time": 198.73728,
          "velocity": 0.7322834645669292
        },
        {
          "duration": 0.023435999999975365,
          "durationTicks": 15,
          "midi": 82,
          "name": "A#5",
          "ticks": 127200,
          "time": 198.73728,
          "velocity": 0.49606299212598426
        },
        {
          "duration": 0.023435999999975365,
          "durationTicks": 15,
          "midi": 70,
          "name": "A#4",
          "ticks": 127320,
          "time": 198.924768,
          "velocity": 0.4645669291338583
        },
        {
          "duration": 0.023436000000003787,
          "durationTicks": 15,
          "midi": 35,
          "name": "B1",
          "ticks": 127440,
          "time": 199.11225599999997,
          "velocity": 0.7716535433070866
        },
        {
          "duration": 0.023436000000003787,
          "durationTicks": 15,
          "midi": 44,
          "name": "G#2",
          "ticks": 127440,
          "time": 199.11225599999997,
          "velocity": 0.6141732283464567
        },
        {
          "duration": 0.023436000000003787,
          "durationTicks": 15,
          "midi": 70,
          "name": "A#4",
          "ticks": 127440,
          "time": 199.11225599999997,
          "velocity": 0.5354330708661418
        },
        {
          "duration": 0.023436000000003787,
          "durationTicks": 15,
          "midi": 44,
          "name": "G#2",
          "ticks": 127560,
          "time": 199.29974399999998,
          "velocity": 0.48031496062992124
        },
        {
          "duration": 0.023436000000003787,
          "durationTicks": 15,
          "midi": 70,
          "name": "A#4",
          "ticks": 127560,
          "time": 199.29974399999998,
          "velocity": 0.44881889763779526
        },
        {
          "duration": 0.023436000000003787,
          "durationTicks": 15,
          "midi": 82,
          "name": "A#5",
          "ticks": 127560,
          "time": 199.29974399999998,
          "velocity": 0.33070866141732286
        },
        {
          "duration": 0.023436000000003787,
          "durationTicks": 15,
          "midi": 35,
          "name": "B1",
          "ticks": 127680,
          "time": 199.48723199999998,
          "velocity": 0.8110236220472441
        },
        {
          "duration": 0.023436000000003787,
          "durationTicks": 15,
          "midi": 44,
          "name": "G#2",
          "ticks": 127680,
          "time": 199.48723199999998,
          "velocity": 0.6535433070866141
        },
        {
          "duration": 0.023436000000003787,
          "durationTicks": 15,
          "midi": 70,
          "name": "A#4",
          "ticks": 127680,
          "time": 199.48723199999998,
          "velocity": 0.7322834645669292
        },
        {
          "duration": 0.023436000000003787,
          "durationTicks": 15,
          "midi": 82,
          "name": "A#5",
          "ticks": 127680,
          "time": 199.48723199999998,
          "velocity": 0.33858267716535434
        },
        {
          "duration": 0.023436000000003787,
          "durationTicks": 15,
          "midi": 70,
          "name": "A#4",
          "ticks": 127800,
          "time": 199.67471999999998,
          "velocity": 0.4645669291338583
        },
        {
          "duration": 0.023436000000003787,
          "durationTicks": 15,
          "midi": 44,
          "name": "G#2",
          "ticks": 127920,
          "time": 199.86220799999998,
          "velocity": 0.6299212598425197
        },
        {
          "duration": 0.023436000000003787,
          "durationTicks": 15,
          "midi": 70,
          "name": "A#4",
          "ticks": 127920,
          "time": 199.86220799999998,
          "velocity": 0.5354330708661418
        },
        {
          "duration": 0.023436000000003787,
          "durationTicks": 15,
          "midi": 82,
          "name": "A#5",
          "ticks": 127920,
          "time": 199.86220799999998,
          "velocity": 0.3858267716535433
        },
        {
          "duration": 0.023436000000003787,
          "durationTicks": 15,
          "midi": 44,
          "name": "G#2",
          "ticks": 128040,
          "time": 200.04969599999998,
          "velocity": 0.48031496062992124
        },
        {
          "duration": 0.023436000000003787,
          "durationTicks": 15,
          "midi": 70,
          "name": "A#4",
          "ticks": 128040,
          "time": 200.04969599999998,
          "velocity": 0.44881889763779526
        },
        {
          "duration": 0.023436000000003787,
          "durationTicks": 15,
          "midi": 82,
          "name": "A#5",
          "ticks": 128040,
          "time": 200.04969599999998,
          "velocity": 0.41732283464566927
        },
        {
          "duration": 0.023436000000003787,
          "durationTicks": 15,
          "midi": 37,
          "name": "C#2",
          "ticks": 128160,
          "time": 200.23718399999998,
          "velocity": 0.984251968503937
        },
        {
          "duration": 0.023436000000003787,
          "durationTicks": 15,
          "midi": 44,
          "name": "G#2",
          "ticks": 128160,
          "time": 200.23718399999998,
          "velocity": 0.7086614173228346
        },
        {
          "duration": 0.023436000000003787,
          "durationTicks": 15,
          "midi": 70,
          "name": "A#4",
          "ticks": 128160,
          "time": 200.23718399999998,
          "velocity": 0.7322834645669292
        },
        {
          "duration": 0.023436000000003787,
          "durationTicks": 15,
          "midi": 82,
          "name": "A#5",
          "ticks": 128160,
          "time": 200.23718399999998,
          "velocity": 0.4645669291338583
        },
        {
          "duration": 0.023436000000003787,
          "durationTicks": 15,
          "midi": 70,
          "name": "A#4",
          "ticks": 128280,
          "time": 200.424672,
          "velocity": 0.4645669291338583
        },
        {
          "duration": 0.023436000000003787,
          "durationTicks": 15,
          "midi": 46,
          "name": "A#2",
          "ticks": 128400,
          "time": 200.61216,
          "velocity": 0.6614173228346457
        },
        {
          "duration": 0.023436000000003787,
          "durationTicks": 15,
          "midi": 70,
          "name": "A#4",
          "ticks": 128400,
          "time": 200.61216,
          "velocity": 0.5354330708661418
        },
        {
          "duration": 0.023436000000003787,
          "durationTicks": 15,
          "midi": 82,
          "name": "A#5",
          "ticks": 128400,
          "time": 200.61216,
          "velocity": 0.41732283464566927
        },
        {
          "duration": 0.023436000000003787,
          "durationTicks": 15,
          "midi": 70,
          "name": "A#4",
          "ticks": 128520,
          "time": 200.799648,
          "velocity": 0.44881889763779526
        },
        {
          "duration": 0.023436000000003787,
          "durationTicks": 15,
          "midi": 82,
          "name": "A#5",
          "ticks": 128520,
          "time": 200.799648,
          "velocity": 0.33858267716535434
        },
        {
          "duration": 0.023436000000003787,
          "durationTicks": 15,
          "midi": 35,
          "name": "B1",
          "ticks": 128640,
          "time": 200.987136,
          "velocity": 0.8110236220472441
        },
        {
          "duration": 0.023436000000003787,
          "durationTicks": 15,
          "midi": 44,
          "name": "G#2",
          "ticks": 128640,
          "time": 200.987136,
          "velocity": 0.6929133858267716
        },
        {
          "duration": 0.023436000000003787,
          "durationTicks": 15,
          "midi": 49,
          "name": "C#3",
          "ticks": 128640,
          "time": 200.987136,
          "velocity": 0.4094488188976378
        },
        {
          "duration": 0.023436000000003787,
          "durationTicks": 15,
          "midi": 59,
          "name": "B3",
          "ticks": 128640,
          "time": 200.987136,
          "velocity": 0.889763779527559
        },
        {
          "duration": 0.023436000000003787,
          "durationTicks": 15,
          "midi": 70,
          "name": "A#4",
          "ticks": 128640,
          "time": 200.987136,
          "velocity": 0.7322834645669292
        },
        {
          "duration": 0.023436000000003787,
          "durationTicks": 15,
          "midi": 70,
          "name": "A#4",
          "ticks": 128760,
          "time": 201.174624,
          "velocity": 0.4645669291338583
        },
        {
          "duration": 0.023436000000003787,
          "durationTicks": 15,
          "midi": 44,
          "name": "G#2",
          "ticks": 128880,
          "time": 201.362112,
          "velocity": 0.6062992125984252
        },
        {
          "duration": 0.023436000000003787,
          "durationTicks": 15,
          "midi": 70,
          "name": "A#4",
          "ticks": 128880,
          "time": 201.362112,
          "velocity": 0.5354330708661418
        },
        {
          "duration": 0.023436000000003787,
          "durationTicks": 15,
          "midi": 82,
          "name": "A#5",
          "ticks": 128880,
          "time": 201.362112,
          "velocity": 0.3700787401574803
        },
        {
          "duration": 0.023435999999975365,
          "durationTicks": 15,
          "midi": 70,
          "name": "A#4",
          "ticks": 129000,
          "time": 201.5496,
          "velocity": 0.44881889763779526
        },
        {
          "duration": 0.023435999999975365,
          "durationTicks": 15,
          "midi": 82,
          "name": "A#5",
          "ticks": 129000,
          "time": 201.5496,
          "velocity": 0.3858267716535433
        },
        {
          "duration": 0.023435999999975365,
          "durationTicks": 15,
          "midi": 37,
          "name": "C#2",
          "ticks": 129120,
          "time": 201.737088,
          "velocity": 1
        },
        {
          "duration": 0.023435999999975365,
          "durationTicks": 15,
          "midi": 44,
          "name": "G#2",
          "ticks": 129120,
          "time": 201.737088,
          "velocity": 0.7559055118110236
        },
        {
          "duration": 0.023435999999975365,
          "durationTicks": 15,
          "midi": 70,
          "name": "A#4",
          "ticks": 129120,
          "time": 201.737088,
          "velocity": 0.7322834645669292
        },
        {
          "duration": 0.023435999999975365,
          "durationTicks": 15,
          "midi": 82,
          "name": "A#5",
          "ticks": 129120,
          "time": 201.737088,
          "velocity": 0.49606299212598426
        },
        {
          "duration": 0.023436000000003787,
          "durationTicks": 15,
          "midi": 70,
          "name": "A#4",
          "ticks": 129240,
          "time": 201.92457599999997,
          "velocity": 0.4645669291338583
        },
        {
          "duration": 0.023436000000003787,
          "durationTicks": 15,
          "midi": 44,
          "name": "G#2",
          "ticks": 129360,
          "time": 202.11206399999998,
          "velocity": 0.6141732283464567
        },
        {
          "duration": 0.023436000000003787,
          "durationTicks": 15,
          "midi": 70,
          "name": "A#4",
          "ticks": 129360,
          "time": 202.11206399999998,
          "velocity": 0.5354330708661418
        },
        {
          "duration": 0.023436000000003787,
          "durationTicks": 15,
          "midi": 35,
          "name": "B1",
          "ticks": 129480,
          "time": 202.29955199999998,
          "velocity": 0.8110236220472441
        },
        {
          "duration": 0.023436000000003787,
          "durationTicks": 15,
          "midi": 44,
          "name": "G#2",
          "ticks": 129480,
          "time": 202.29955199999998,
          "velocity": 0.48031496062992124
        },
        {
          "duration": 0.023436000000003787,
          "durationTicks": 15,
          "midi": 70,
          "name": "A#4",
          "ticks": 129480,
          "time": 202.29955199999998,
          "velocity": 0.44881889763779526
        },
        {
          "duration": 0.023436000000003787,
          "durationTicks": 15,
          "midi": 82,
          "name": "A#5",
          "ticks": 129480,
          "time": 202.29955199999998,
          "velocity": 0.33070866141732286
        },
        {
          "duration": 0.023436000000003787,
          "durationTicks": 15,
          "midi": 35,
          "name": "B1",
          "ticks": 129600,
          "time": 202.48703999999998,
          "velocity": 0.8110236220472441
        },
        {
          "duration": 0.023436000000003787,
          "durationTicks": 15,
          "midi": 46,
          "name": "A#2",
          "ticks": 129600,
          "time": 202.48703999999998,
          "velocity": 0.7086614173228346
        },
        {
          "duration": 0.023436000000003787,
          "durationTicks": 15,
          "midi": 70,
          "name": "A#4",
          "ticks": 129600,
          "time": 202.48703999999998,
          "velocity": 0.7322834645669292
        },
        {
          "duration": 0.023436000000003787,
          "durationTicks": 15,
          "midi": 82,
          "name": "A#5",
          "ticks": 129600,
          "time": 202.48703999999998,
          "velocity": 0.33858267716535434
        },
        {
          "duration": 0.023436000000003787,
          "durationTicks": 15,
          "midi": 70,
          "name": "A#4",
          "ticks": 129720,
          "time": 202.67452799999998,
          "velocity": 0.4645669291338583
        },
        {
          "duration": 0.023436000000003787,
          "durationTicks": 15,
          "midi": 46,
          "name": "A#2",
          "ticks": 129840,
          "time": 202.86201599999998,
          "velocity": 0.6850393700787402
        },
        {
          "duration": 0.023436000000003787,
          "durationTicks": 15,
          "midi": 70,
          "name": "A#4",
          "ticks": 129840,
          "time": 202.86201599999998,
          "velocity": 0.5354330708661418
        },
        {
          "duration": 0.023436000000003787,
          "durationTicks": 15,
          "midi": 82,
          "name": "A#5",
          "ticks": 129840,
          "time": 202.86201599999998,
          "velocity": 0.3858267716535433
        },
        {
          "duration": 0.023436000000003787,
          "durationTicks": 15,
          "midi": 70,
          "name": "A#4",
          "ticks": 129960,
          "time": 203.04950399999998,
          "velocity": 0.44881889763779526
        },
        {
          "duration": 0.023436000000003787,
          "durationTicks": 15,
          "midi": 82,
          "name": "A#5",
          "ticks": 129960,
          "time": 203.04950399999998,
          "velocity": 0.41732283464566927
        },
        {
          "duration": 0.023436000000003787,
          "durationTicks": 15,
          "midi": 37,
          "name": "C#2",
          "ticks": 130080,
          "time": 203.236992,
          "velocity": 0.984251968503937
        },
        {
          "duration": 0.023436000000003787,
          "durationTicks": 15,
          "midi": 44,
          "name": "G#2",
          "ticks": 130080,
          "time": 203.236992,
          "velocity": 0.7086614173228346
        },
        {
          "duration": 0.023436000000003787,
          "durationTicks": 15,
          "midi": 70,
          "name": "A#4",
          "ticks": 130080,
          "time": 203.236992,
          "velocity": 0.7322834645669292
        },
        {
          "duration": 0.023436000000003787,
          "durationTicks": 15,
          "midi": 82,
          "name": "A#5",
          "ticks": 130080,
          "time": 203.236992,
          "velocity": 0.4645669291338583
        },
        {
          "duration": 0.023436000000003787,
          "durationTicks": 15,
          "midi": 45,
          "name": "A2",
          "ticks": 130200,
          "time": 203.42448,
          "velocity": 0.6850393700787402
        },
        {
          "duration": 0.023436000000003787,
          "durationTicks": 15,
          "midi": 70,
          "name": "A#4",
          "ticks": 130200,
          "time": 203.42448,
          "velocity": 0.4645669291338583
        },
        {
          "duration": 0.023436000000003787,
          "durationTicks": 15,
          "midi": 35,
          "name": "B1",
          "ticks": 130320,
          "time": 203.611968,
          "velocity": 0.8110236220472441
        },
        {
          "duration": 0.023436000000003787,
          "durationTicks": 15,
          "midi": 46,
          "name": "A#2",
          "ticks": 130320,
          "time": 203.611968,
          "velocity": 0.6614173228346457
        },
        {
          "duration": 0.023436000000003787,
          "durationTicks": 15,
          "midi": 48,
          "name": "C3",
          "ticks": 130320,
          "time": 203.611968,
          "velocity": 0.8267716535433071
        },
        {
          "duration": 0.023436000000003787,
          "durationTicks": 15,
          "midi": 59,
          "name": "B3",
          "ticks": 130320,
          "time": 203.611968,
          "velocity": 0.6535433070866141
        },
        {
          "duration": 0.023436000000003787,
          "durationTicks": 15,
          "midi": 70,
          "name": "A#4",
          "ticks": 130320,
          "time": 203.611968,
          "velocity": 0.5354330708661418
        },
        {
          "duration": 0.023436000000003787,
          "durationTicks": 15,
          "midi": 82,
          "name": "A#5",
          "ticks": 130320,
          "time": 203.611968,
          "velocity": 0.41732283464566927
        },
        {
          "duration": 0.023436000000003787,
          "durationTicks": 15,
          "midi": 70,
          "name": "A#4",
          "ticks": 130440,
          "time": 203.799456,
          "velocity": 0.44881889763779526
        },
        {
          "duration": 0.023436000000003787,
          "durationTicks": 15,
          "midi": 82,
          "name": "A#5",
          "ticks": 130440,
          "time": 203.799456,
          "velocity": 0.33858267716535434
        },
        {
          "duration": 0.023436000000003787,
          "durationTicks": 15,
          "midi": 35,
          "name": "B1",
          "ticks": 130560,
          "time": 203.986944,
          "velocity": 0.952755905511811
        },
        {
          "duration": 0.023436000000003787,
          "durationTicks": 15,
          "midi": 44,
          "name": "G#2",
          "ticks": 130560,
          "time": 203.986944,
          "velocity": 0.7559055118110236
        },
        {
          "duration": 0.023436000000003787,
          "durationTicks": 15,
          "midi": 49,
          "name": "C#3",
          "ticks": 130560,
          "time": 203.986944,
          "velocity": 0.4645669291338583
        },
        {
          "duration": 0.023436000000003787,
          "durationTicks": 15,
          "midi": 59,
          "name": "B3",
          "ticks": 130560,
          "time": 203.986944,
          "velocity": 0.889763779527559
        },
        {
          "duration": 0.023436000000003787,
          "durationTicks": 15,
          "midi": 70,
          "name": "A#4",
          "ticks": 130560,
          "time": 203.986944,
          "velocity": 0.7322834645669292
        },
        {
          "duration": 0.023436000000003787,
          "durationTicks": 15,
          "midi": 44,
          "name": "G#2",
          "ticks": 130680,
          "time": 204.174432,
          "velocity": 0.4094488188976378
        },
        {
          "duration": 0.023436000000003787,
          "durationTicks": 15,
          "midi": 70,
          "name": "A#4",
          "ticks": 130680,
          "time": 204.174432,
          "velocity": 0.4645669291338583
        },
        {
          "duration": 0.023435999999975365,
          "durationTicks": 15,
          "midi": 44,
          "name": "G#2",
          "ticks": 130800,
          "time": 204.36192,
          "velocity": 0.6299212598425197
        },
        {
          "duration": 0.023435999999975365,
          "durationTicks": 15,
          "midi": 70,
          "name": "A#4",
          "ticks": 130800,
          "time": 204.36192,
          "velocity": 0.5354330708661418
        },
        {
          "duration": 0.023435999999975365,
          "durationTicks": 15,
          "midi": 82,
          "name": "A#5",
          "ticks": 130800,
          "time": 204.36192,
          "velocity": 0.3700787401574803
        },
        {
          "duration": 0.023435999999975365,
          "durationTicks": 15,
          "midi": 44,
          "name": "G#2",
          "ticks": 130920,
          "time": 204.549408,
          "velocity": 0.48031496062992124
        },
        {
          "duration": 0.023435999999975365,
          "durationTicks": 15,
          "midi": 70,
          "name": "A#4",
          "ticks": 130920,
          "time": 204.549408,
          "velocity": 0.44881889763779526
        },
        {
          "duration": 0.023435999999975365,
          "durationTicks": 15,
          "midi": 82,
          "name": "A#5",
          "ticks": 130920,
          "time": 204.549408,
          "velocity": 0.3858267716535433
        },
        {
          "duration": 0.023436000000003787,
          "durationTicks": 15,
          "midi": 37,
          "name": "C#2",
          "ticks": 131040,
          "time": 204.73689599999997,
          "velocity": 1
        },
        {
          "duration": 0.023436000000003787,
          "durationTicks": 15,
          "midi": 44,
          "name": "G#2",
          "ticks": 131040,
          "time": 204.73689599999997,
          "velocity": 0.7716535433070866
        },
        {
          "duration": 0.023436000000003787,
          "durationTicks": 15,
          "midi": 70,
          "name": "A#4",
          "ticks": 131040,
          "time": 204.73689599999997,
          "velocity": 0.7322834645669292
        },
        {
          "duration": 0.023436000000003787,
          "durationTicks": 15,
          "midi": 82,
          "name": "A#5",
          "ticks": 131040,
          "time": 204.73689599999997,
          "velocity": 0.49606299212598426
        },
        {
          "duration": 0.023436000000003787,
          "durationTicks": 15,
          "midi": 44,
          "name": "G#2",
          "ticks": 131160,
          "time": 204.92438399999998,
          "velocity": 0.49606299212598426
        },
        {
          "duration": 0.023436000000003787,
          "durationTicks": 15,
          "midi": 70,
          "name": "A#4",
          "ticks": 131160,
          "time": 204.92438399999998,
          "velocity": 0.4645669291338583
        },
        {
          "duration": 0.023436000000003787,
          "durationTicks": 15,
          "midi": 35,
          "name": "B1",
          "ticks": 131280,
          "time": 205.11187199999998,
          "velocity": 0.6850393700787402
        },
        {
          "duration": 0.023436000000003787,
          "durationTicks": 15,
          "midi": 44,
          "name": "G#2",
          "ticks": 131280,
          "time": 205.11187199999998,
          "velocity": 0.6141732283464567
        },
        {
          "duration": 0.023436000000003787,
          "durationTicks": 15,
          "midi": 70,
          "name": "A#4",
          "ticks": 131280,
          "time": 205.11187199999998,
          "velocity": 0.5354330708661418
        },
        {
          "duration": 0.023436000000003787,
          "durationTicks": 15,
          "midi": 35,
          "name": "B1",
          "ticks": 131400,
          "time": 205.29935999999998,
          "velocity": 0.6850393700787402
        },
        {
          "duration": 0.023436000000003787,
          "durationTicks": 15,
          "midi": 44,
          "name": "G#2",
          "ticks": 131400,
          "time": 205.29935999999998,
          "velocity": 0.48031496062992124
        },
        {
          "duration": 0.023436000000003787,
          "durationTicks": 15,
          "midi": 70,
          "name": "A#4",
          "ticks": 131400,
          "time": 205.29935999999998,
          "velocity": 0.44881889763779526
        },
        {
          "duration": 0.023436000000003787,
          "durationTicks": 15,
          "midi": 82,
          "name": "A#5",
          "ticks": 131400,
          "time": 205.29935999999998,
          "velocity": 0.33070866141732286
        },
        {
          "duration": 0.023436000000003787,
          "durationTicks": 15,
          "midi": 35,
          "name": "B1",
          "ticks": 131520,
          "time": 205.48684799999998,
          "velocity": 0.8110236220472441
        },
        {
          "duration": 0.023436000000003787,
          "durationTicks": 15,
          "midi": 44,
          "name": "G#2",
          "ticks": 131520,
          "time": 205.48684799999998,
          "velocity": 0.7559055118110236
        },
        {
          "duration": 0.023436000000003787,
          "durationTicks": 15,
          "midi": 70,
          "name": "A#4",
          "ticks": 131520,
          "time": 205.48684799999998,
          "velocity": 0.7322834645669292
        },
        {
          "duration": 0.023436000000003787,
          "durationTicks": 15,
          "midi": 82,
          "name": "A#5",
          "ticks": 131520,
          "time": 205.48684799999998,
          "velocity": 0.33858267716535434
        },
        {
          "duration": 0.023436000000003787,
          "durationTicks": 15,
          "midi": 44,
          "name": "G#2",
          "ticks": 131640,
          "time": 205.67433599999998,
          "velocity": 0.4094488188976378
        },
        {
          "duration": 0.023436000000003787,
          "durationTicks": 15,
          "midi": 70,
          "name": "A#4",
          "ticks": 131640,
          "time": 205.67433599999998,
          "velocity": 0.4645669291338583
        },
        {
          "duration": 0.023436000000003787,
          "durationTicks": 15,
          "midi": 44,
          "name": "G#2",
          "ticks": 131760,
          "time": 205.86182399999998,
          "velocity": 0.6299212598425197
        },
        {
          "duration": 0.023436000000003787,
          "durationTicks": 15,
          "midi": 70,
          "name": "A#4",
          "ticks": 131760,
          "time": 205.86182399999998,
          "velocity": 0.5354330708661418
        },
        {
          "duration": 0.023436000000003787,
          "durationTicks": 15,
          "midi": 82,
          "name": "A#5",
          "ticks": 131760,
          "time": 205.86182399999998,
          "velocity": 0.3858267716535433
        },
        {
          "duration": 0.023436000000003787,
          "durationTicks": 15,
          "midi": 44,
          "name": "G#2",
          "ticks": 131880,
          "time": 206.049312,
          "velocity": 0.48031496062992124
        },
        {
          "duration": 0.023436000000003787,
          "durationTicks": 15,
          "midi": 70,
          "name": "A#4",
          "ticks": 131880,
          "time": 206.049312,
          "velocity": 0.44881889763779526
        },
        {
          "duration": 0.023436000000003787,
          "durationTicks": 15,
          "midi": 82,
          "name": "A#5",
          "ticks": 131880,
          "time": 206.049312,
          "velocity": 0.41732283464566927
        },
        {
          "duration": 0.023436000000003787,
          "durationTicks": 15,
          "midi": 37,
          "name": "C#2",
          "ticks": 132000,
          "time": 206.2368,
          "velocity": 0.984251968503937
        },
        {
          "duration": 0.023436000000003787,
          "durationTicks": 15,
          "midi": 44,
          "name": "G#2",
          "ticks": 132000,
          "time": 206.2368,
          "velocity": 0.7716535433070866
        },
        {
          "duration": 0.023436000000003787,
          "durationTicks": 15,
          "midi": 70,
          "name": "A#4",
          "ticks": 132000,
          "time": 206.2368,
          "velocity": 0.7322834645669292
        },
        {
          "duration": 0.023436000000003787,
          "durationTicks": 15,
          "midi": 82,
          "name": "A#5",
          "ticks": 132000,
          "time": 206.2368,
          "velocity": 0.4645669291338583
        },
        {
          "duration": 0.023436000000003787,
          "durationTicks": 15,
          "midi": 44,
          "name": "G#2",
          "ticks": 132120,
          "time": 206.424288,
          "velocity": 0.49606299212598426
        },
        {
          "duration": 0.023436000000003787,
          "durationTicks": 15,
          "midi": 70,
          "name": "A#4",
          "ticks": 132120,
          "time": 206.424288,
          "velocity": 0.4645669291338583
        },
        {
          "duration": 0.023436000000003787,
          "durationTicks": 15,
          "midi": 46,
          "name": "A#2",
          "ticks": 132240,
          "time": 206.611776,
          "velocity": 0.6614173228346457
        },
        {
          "duration": 0.023436000000003787,
          "durationTicks": 15,
          "midi": 70,
          "name": "A#4",
          "ticks": 132240,
          "time": 206.611776,
          "velocity": 0.5354330708661418
        },
        {
          "duration": 0.023436000000003787,
          "durationTicks": 15,
          "midi": 82,
          "name": "A#5",
          "ticks": 132240,
          "time": 206.611776,
          "velocity": 0.41732283464566927
        },
        {
          "duration": 0.023436000000003787,
          "durationTicks": 15,
          "midi": 70,
          "name": "A#4",
          "ticks": 132360,
          "time": 206.799264,
          "velocity": 0.44881889763779526
        },
        {
          "duration": 0.023436000000003787,
          "durationTicks": 15,
          "midi": 82,
          "name": "A#5",
          "ticks": 132360,
          "time": 206.799264,
          "velocity": 0.33858267716535434
        },
        {
          "duration": 0.023436000000003787,
          "durationTicks": 15,
          "midi": 35,
          "name": "B1",
          "ticks": 132480,
          "time": 206.986752,
          "velocity": 0.8110236220472441
        },
        {
          "duration": 0.023436000000003787,
          "durationTicks": 15,
          "midi": 44,
          "name": "G#2",
          "ticks": 132480,
          "time": 206.986752,
          "velocity": 0.7559055118110236
        },
        {
          "duration": 0.023436000000003787,
          "durationTicks": 15,
          "midi": 70,
          "name": "A#4",
          "ticks": 132480,
          "time": 206.986752,
          "velocity": 0.7322834645669292
        },
        {
          "duration": 0.023435999999975365,
          "durationTicks": 15,
          "midi": 44,
          "name": "G#2",
          "ticks": 132600,
          "time": 207.17424,
          "velocity": 0.4094488188976378
        },
        {
          "duration": 0.023435999999975365,
          "durationTicks": 15,
          "midi": 70,
          "name": "A#4",
          "ticks": 132600,
          "time": 207.17424,
          "velocity": 0.4645669291338583
        },
        {
          "duration": 0.023435999999975365,
          "durationTicks": 15,
          "midi": 44,
          "name": "G#2",
          "ticks": 132720,
          "time": 207.361728,
          "velocity": 0.6299212598425197
        },
        {
          "duration": 0.023435999999975365,
          "durationTicks": 15,
          "midi": 70,
          "name": "A#4",
          "ticks": 132720,
          "time": 207.361728,
          "velocity": 0.5354330708661418
        },
        {
          "duration": 0.023435999999975365,
          "durationTicks": 15,
          "midi": 82,
          "name": "A#5",
          "ticks": 132720,
          "time": 207.361728,
          "velocity": 0.3700787401574803
        },
        {
          "duration": 0.023436000000003787,
          "durationTicks": 15,
          "midi": 44,
          "name": "G#2",
          "ticks": 132840,
          "time": 207.54921599999997,
          "velocity": 0.48031496062992124
        },
        {
          "duration": 0.023436000000003787,
          "durationTicks": 15,
          "midi": 70,
          "name": "A#4",
          "ticks": 132840,
          "time": 207.54921599999997,
          "velocity": 0.44881889763779526
        },
        {
          "duration": 0.023436000000003787,
          "durationTicks": 15,
          "midi": 82,
          "name": "A#5",
          "ticks": 132840,
          "time": 207.54921599999997,
          "velocity": 0.3858267716535433
        },
        {
          "duration": 0.023436000000003787,
          "durationTicks": 15,
          "midi": 37,
          "name": "C#2",
          "ticks": 132960,
          "time": 207.73670399999997,
          "velocity": 1
        },
        {
          "duration": 0.023436000000003787,
          "durationTicks": 15,
          "midi": 44,
          "name": "G#2",
          "ticks": 132960,
          "time": 207.73670399999997,
          "velocity": 0.7716535433070866
        },
        {
          "duration": 0.023436000000003787,
          "durationTicks": 15,
          "midi": 70,
          "name": "A#4",
          "ticks": 132960,
          "time": 207.73670399999997,
          "velocity": 0.7322834645669292
        },
        {
          "duration": 0.023436000000003787,
          "durationTicks": 15,
          "midi": 82,
          "name": "A#5",
          "ticks": 132960,
          "time": 207.73670399999997,
          "velocity": 0.49606299212598426
        },
        {
          "duration": 0.023436000000003787,
          "durationTicks": 15,
          "midi": 44,
          "name": "G#2",
          "ticks": 133080,
          "time": 207.92419199999998,
          "velocity": 0.49606299212598426
        },
        {
          "duration": 0.023436000000003787,
          "durationTicks": 15,
          "midi": 70,
          "name": "A#4",
          "ticks": 133080,
          "time": 207.92419199999998,
          "velocity": 0.4645669291338583
        },
        {
          "duration": 0.023436000000003787,
          "durationTicks": 15,
          "midi": 35,
          "name": "B1",
          "ticks": 133200,
          "time": 208.11167999999998,
          "velocity": 0.7952755905511811
        },
        {
          "duration": 0.023436000000003787,
          "durationTicks": 15,
          "midi": 44,
          "name": "G#2",
          "ticks": 133200,
          "time": 208.11167999999998,
          "velocity": 0.6141732283464567
        },
        {
          "duration": 0.023436000000003787,
          "durationTicks": 15,
          "midi": 70,
          "name": "A#4",
          "ticks": 133200,
          "time": 208.11167999999998,
          "velocity": 0.5354330708661418
        },
        {
          "duration": 0.023436000000003787,
          "durationTicks": 15,
          "midi": 44,
          "name": "G#2",
          "ticks": 133320,
          "time": 208.29916799999998,
          "velocity": 0.48031496062992124
        },
        {
          "duration": 0.023436000000003787,
          "durationTicks": 15,
          "midi": 70,
          "name": "A#4",
          "ticks": 133320,
          "time": 208.29916799999998,
          "velocity": 0.44881889763779526
        },
        {
          "duration": 0.023436000000003787,
          "durationTicks": 15,
          "midi": 82,
          "name": "A#5",
          "ticks": 133320,
          "time": 208.29916799999998,
          "velocity": 0.33070866141732286
        },
        {
          "duration": 0.023436000000003787,
          "durationTicks": 15,
          "midi": 35,
          "name": "B1",
          "ticks": 133440,
          "time": 208.48665599999998,
          "velocity": 0.8110236220472441
        },
        {
          "duration": 0.023436000000003787,
          "durationTicks": 15,
          "midi": 44,
          "name": "G#2",
          "ticks": 133440,
          "time": 208.48665599999998,
          "velocity": 0.7559055118110236
        },
        {
          "duration": 0.023436000000003787,
          "durationTicks": 15,
          "midi": 70,
          "name": "A#4",
          "ticks": 133440,
          "time": 208.48665599999998,
          "velocity": 0.7322834645669292
        },
        {
          "duration": 0.023436000000003787,
          "durationTicks": 15,
          "midi": 82,
          "name": "A#5",
          "ticks": 133440,
          "time": 208.48665599999998,
          "velocity": 0.33858267716535434
        },
        {
          "duration": 0.023436000000003787,
          "durationTicks": 15,
          "midi": 44,
          "name": "G#2",
          "ticks": 133560,
          "time": 208.67414399999998,
          "velocity": 0.4094488188976378
        },
        {
          "duration": 0.023436000000003787,
          "durationTicks": 15,
          "midi": 70,
          "name": "A#4",
          "ticks": 133560,
          "time": 208.67414399999998,
          "velocity": 0.4645669291338583
        },
        {
          "duration": 0.023436000000003787,
          "durationTicks": 15,
          "midi": 44,
          "name": "G#2",
          "ticks": 133680,
          "time": 208.861632,
          "velocity": 0.6299212598425197
        },
        {
          "duration": 0.023436000000003787,
          "durationTicks": 15,
          "midi": 70,
          "name": "A#4",
          "ticks": 133680,
          "time": 208.861632,
          "velocity": 0.5354330708661418
        },
        {
          "duration": 0.023436000000003787,
          "durationTicks": 15,
          "midi": 82,
          "name": "A#5",
          "ticks": 133680,
          "time": 208.861632,
          "velocity": 0.3858267716535433
        },
        {
          "duration": 0.023436000000003787,
          "durationTicks": 15,
          "midi": 44,
          "name": "G#2",
          "ticks": 133800,
          "time": 209.04912,
          "velocity": 0.48031496062992124
        },
        {
          "duration": 0.023436000000003787,
          "durationTicks": 15,
          "midi": 70,
          "name": "A#4",
          "ticks": 133800,
          "time": 209.04912,
          "velocity": 0.44881889763779526
        },
        {
          "duration": 0.023436000000003787,
          "durationTicks": 15,
          "midi": 82,
          "name": "A#5",
          "ticks": 133800,
          "time": 209.04912,
          "velocity": 0.41732283464566927
        },
        {
          "duration": 0.023436000000003787,
          "durationTicks": 15,
          "midi": 37,
          "name": "C#2",
          "ticks": 133920,
          "time": 209.236608,
          "velocity": 0.984251968503937
        },
        {
          "duration": 0.023436000000003787,
          "durationTicks": 15,
          "midi": 44,
          "name": "G#2",
          "ticks": 133920,
          "time": 209.236608,
          "velocity": 0.7716535433070866
        },
        {
          "duration": 0.023436000000003787,
          "durationTicks": 15,
          "midi": 70,
          "name": "A#4",
          "ticks": 133920,
          "time": 209.236608,
          "velocity": 0.7322834645669292
        },
        {
          "duration": 0.023436000000003787,
          "durationTicks": 15,
          "midi": 82,
          "name": "A#5",
          "ticks": 133920,
          "time": 209.236608,
          "velocity": 0.4645669291338583
        },
        {
          "duration": 0.023436000000003787,
          "durationTicks": 15,
          "midi": 44,
          "name": "G#2",
          "ticks": 134040,
          "time": 209.424096,
          "velocity": 0.49606299212598426
        },
        {
          "duration": 0.023436000000003787,
          "durationTicks": 15,
          "midi": 70,
          "name": "A#4",
          "ticks": 134040,
          "time": 209.424096,
          "velocity": 0.4645669291338583
        },
        {
          "duration": 0.023436000000003787,
          "durationTicks": 15,
          "midi": 46,
          "name": "A#2",
          "ticks": 134160,
          "time": 209.611584,
          "velocity": 0.6614173228346457
        },
        {
          "duration": 0.023436000000003787,
          "durationTicks": 15,
          "midi": 70,
          "name": "A#4",
          "ticks": 134160,
          "time": 209.611584,
          "velocity": 0.5354330708661418
        },
        {
          "duration": 0.023436000000003787,
          "durationTicks": 15,
          "midi": 82,
          "name": "A#5",
          "ticks": 134160,
          "time": 209.611584,
          "velocity": 0.41732283464566927
        },
        {
          "duration": 0.023436000000003787,
          "durationTicks": 15,
          "midi": 35,
          "name": "B1",
          "ticks": 134280,
          "time": 209.799072,
          "velocity": 0.8110236220472441
        },
        {
          "duration": 0.023436000000003787,
          "durationTicks": 15,
          "midi": 70,
          "name": "A#4",
          "ticks": 134280,
          "time": 209.799072,
          "velocity": 0.44881889763779526
        },
        {
          "duration": 0.023436000000003787,
          "durationTicks": 15,
          "midi": 82,
          "name": "A#5",
          "ticks": 134280,
          "time": 209.799072,
          "velocity": 0.33858267716535434
        },
        {
          "duration": 0.023435999999975365,
          "durationTicks": 15,
          "midi": 35,
          "name": "B1",
          "ticks": 134400,
          "time": 209.98656,
          "velocity": 0.8110236220472441
        },
        {
          "duration": 0.023435999999975365,
          "durationTicks": 15,
          "midi": 44,
          "name": "G#2",
          "ticks": 134400,
          "time": 209.98656,
          "velocity": 0.7559055118110236
        },
        {
          "duration": 0.023435999999975365,
          "durationTicks": 15,
          "midi": 70,
          "name": "A#4",
          "ticks": 134400,
          "time": 209.98656,
          "velocity": 0.7322834645669292
        },
        {
          "duration": 0.023435999999975365,
          "durationTicks": 15,
          "midi": 44,
          "name": "G#2",
          "ticks": 134520,
          "time": 210.174048,
          "velocity": 0.4094488188976378
        },
        {
          "duration": 0.023435999999975365,
          "durationTicks": 15,
          "midi": 70,
          "name": "A#4",
          "ticks": 134520,
          "time": 210.174048,
          "velocity": 0.4645669291338583
        },
        {
          "duration": 0.023436000000003787,
          "durationTicks": 15,
          "midi": 44,
          "name": "G#2",
          "ticks": 134640,
          "time": 210.36153599999997,
          "velocity": 0.6299212598425197
        },
        {
          "duration": 0.023436000000003787,
          "durationTicks": 15,
          "midi": 70,
          "name": "A#4",
          "ticks": 134640,
          "time": 210.36153599999997,
          "velocity": 0.5354330708661418
        },
        {
          "duration": 0.023436000000003787,
          "durationTicks": 15,
          "midi": 82,
          "name": "A#5",
          "ticks": 134640,
          "time": 210.36153599999997,
          "velocity": 0.3700787401574803
        },
        {
          "duration": 0.023436000000003787,
          "durationTicks": 15,
          "midi": 44,
          "name": "G#2",
          "ticks": 134760,
          "time": 210.54902399999997,
          "velocity": 0.48031496062992124
        },
        {
          "duration": 0.023436000000003787,
          "durationTicks": 15,
          "midi": 70,
          "name": "A#4",
          "ticks": 134760,
          "time": 210.54902399999997,
          "velocity": 0.44881889763779526
        },
        {
          "duration": 0.023436000000003787,
          "durationTicks": 15,
          "midi": 82,
          "name": "A#5",
          "ticks": 134760,
          "time": 210.54902399999997,
          "velocity": 0.3858267716535433
        },
        {
          "duration": 0.023436000000003787,
          "durationTicks": 15,
          "midi": 37,
          "name": "C#2",
          "ticks": 134880,
          "time": 210.73651199999998,
          "velocity": 1
        },
        {
          "duration": 0.023436000000003787,
          "durationTicks": 15,
          "midi": 44,
          "name": "G#2",
          "ticks": 134880,
          "time": 210.73651199999998,
          "velocity": 0.7716535433070866
        },
        {
          "duration": 0.023436000000003787,
          "durationTicks": 15,
          "midi": 70,
          "name": "A#4",
          "ticks": 134880,
          "time": 210.73651199999998,
          "velocity": 0.7322834645669292
        },
        {
          "duration": 0.023436000000003787,
          "durationTicks": 15,
          "midi": 82,
          "name": "A#5",
          "ticks": 134880,
          "time": 210.73651199999998,
          "velocity": 0.49606299212598426
        },
        {
          "duration": 0.023436000000003787,
          "durationTicks": 15,
          "midi": 44,
          "name": "G#2",
          "ticks": 135000,
          "time": 210.92399999999998,
          "velocity": 0.49606299212598426
        },
        {
          "duration": 0.023436000000003787,
          "durationTicks": 15,
          "midi": 70,
          "name": "A#4",
          "ticks": 135000,
          "time": 210.92399999999998,
          "velocity": 0.4645669291338583
        },
        {
          "duration": 0.023436000000003787,
          "durationTicks": 15,
          "midi": 35,
          "name": "B1",
          "ticks": 135120,
          "time": 211.11148799999998,
          "velocity": 0.6850393700787402
        },
        {
          "duration": 0.023436000000003787,
          "durationTicks": 15,
          "midi": 44,
          "name": "G#2",
          "ticks": 135120,
          "time": 211.11148799999998,
          "velocity": 0.6141732283464567
        },
        {
          "duration": 0.023436000000003787,
          "durationTicks": 15,
          "midi": 70,
          "name": "A#4",
          "ticks": 135120,
          "time": 211.11148799999998,
          "velocity": 0.5354330708661418
        },
        {
          "duration": 0.023436000000003787,
          "durationTicks": 15,
          "midi": 35,
          "name": "B1",
          "ticks": 135240,
          "time": 211.29897599999998,
          "velocity": 0.6850393700787402
        },
        {
          "duration": 0.023436000000003787,
          "durationTicks": 15,
          "midi": 44,
          "name": "G#2",
          "ticks": 135240,
          "time": 211.29897599999998,
          "velocity": 0.48031496062992124
        },
        {
          "duration": 0.023436000000003787,
          "durationTicks": 15,
          "midi": 70,
          "name": "A#4",
          "ticks": 135240,
          "time": 211.29897599999998,
          "velocity": 0.44881889763779526
        },
        {
          "duration": 0.023436000000003787,
          "durationTicks": 15,
          "midi": 82,
          "name": "A#5",
          "ticks": 135240,
          "time": 211.29897599999998,
          "velocity": 0.33070866141732286
        },
        {
          "duration": 0.023436000000003787,
          "durationTicks": 15,
          "midi": 35,
          "name": "B1",
          "ticks": 135360,
          "time": 211.48646399999998,
          "velocity": 0.8110236220472441
        },
        {
          "duration": 0.023436000000003787,
          "durationTicks": 15,
          "midi": 44,
          "name": "G#2",
          "ticks": 135360,
          "time": 211.48646399999998,
          "velocity": 0.7559055118110236
        },
        {
          "duration": 0.023436000000003787,
          "durationTicks": 15,
          "midi": 70,
          "name": "A#4",
          "ticks": 135360,
          "time": 211.48646399999998,
          "velocity": 0.7322834645669292
        },
        {
          "duration": 0.023436000000003787,
          "durationTicks": 15,
          "midi": 82,
          "name": "A#5",
          "ticks": 135360,
          "time": 211.48646399999998,
          "velocity": 0.33858267716535434
        },
        {
          "duration": 0.023436000000003787,
          "durationTicks": 15,
          "midi": 44,
          "name": "G#2",
          "ticks": 135480,
          "time": 211.67395199999999,
          "velocity": 0.4094488188976378
        },
        {
          "duration": 0.023436000000003787,
          "durationTicks": 15,
          "midi": 70,
          "name": "A#4",
          "ticks": 135480,
          "time": 211.67395199999999,
          "velocity": 0.4645669291338583
        },
        {
          "duration": 0.023436000000003787,
          "durationTicks": 15,
          "midi": 44,
          "name": "G#2",
          "ticks": 135600,
          "time": 211.86144,
          "velocity": 0.6299212598425197
        },
        {
          "duration": 0.023436000000003787,
          "durationTicks": 15,
          "midi": 70,
          "name": "A#4",
          "ticks": 135600,
          "time": 211.86144,
          "velocity": 0.5354330708661418
        },
        {
          "duration": 0.023436000000003787,
          "durationTicks": 15,
          "midi": 82,
          "name": "A#5",
          "ticks": 135600,
          "time": 211.86144,
          "velocity": 0.3858267716535433
        },
        {
          "duration": 0.023436000000003787,
          "durationTicks": 15,
          "midi": 44,
          "name": "G#2",
          "ticks": 135720,
          "time": 212.048928,
          "velocity": 0.48031496062992124
        },
        {
          "duration": 0.023436000000003787,
          "durationTicks": 15,
          "midi": 70,
          "name": "A#4",
          "ticks": 135720,
          "time": 212.048928,
          "velocity": 0.44881889763779526
        },
        {
          "duration": 0.023436000000003787,
          "durationTicks": 15,
          "midi": 82,
          "name": "A#5",
          "ticks": 135720,
          "time": 212.048928,
          "velocity": 0.41732283464566927
        },
        {
          "duration": 0.023436000000003787,
          "durationTicks": 15,
          "midi": 37,
          "name": "C#2",
          "ticks": 135840,
          "time": 212.236416,
          "velocity": 0.984251968503937
        },
        {
          "duration": 0.023436000000003787,
          "durationTicks": 15,
          "midi": 44,
          "name": "G#2",
          "ticks": 135840,
          "time": 212.236416,
          "velocity": 0.7716535433070866
        },
        {
          "duration": 0.023436000000003787,
          "durationTicks": 15,
          "midi": 70,
          "name": "A#4",
          "ticks": 135840,
          "time": 212.236416,
          "velocity": 0.7322834645669292
        },
        {
          "duration": 0.023436000000003787,
          "durationTicks": 15,
          "midi": 82,
          "name": "A#5",
          "ticks": 135840,
          "time": 212.236416,
          "velocity": 0.4645669291338583
        },
        {
          "duration": 0.023436000000003787,
          "durationTicks": 15,
          "midi": 44,
          "name": "G#2",
          "ticks": 135960,
          "time": 212.423904,
          "velocity": 0.49606299212598426
        },
        {
          "duration": 0.023436000000003787,
          "durationTicks": 15,
          "midi": 70,
          "name": "A#4",
          "ticks": 135960,
          "time": 212.423904,
          "velocity": 0.4645669291338583
        },
        {
          "duration": 0.023436000000003787,
          "durationTicks": 15,
          "midi": 46,
          "name": "A#2",
          "ticks": 136080,
          "time": 212.611392,
          "velocity": 0.6614173228346457
        },
        {
          "duration": 0.023436000000003787,
          "durationTicks": 15,
          "midi": 70,
          "name": "A#4",
          "ticks": 136080,
          "time": 212.611392,
          "velocity": 0.5354330708661418
        },
        {
          "duration": 0.023436000000003787,
          "durationTicks": 15,
          "midi": 82,
          "name": "A#5",
          "ticks": 136080,
          "time": 212.611392,
          "velocity": 0.41732283464566927
        },
        {
          "duration": 0.023435999999975365,
          "durationTicks": 15,
          "midi": 70,
          "name": "A#4",
          "ticks": 136200,
          "time": 212.79888,
          "velocity": 0.44881889763779526
        },
        {
          "duration": 0.023435999999975365,
          "durationTicks": 15,
          "midi": 82,
          "name": "A#5",
          "ticks": 136200,
          "time": 212.79888,
          "velocity": 0.33858267716535434
        },
        {
          "duration": 0.023435999999975365,
          "durationTicks": 15,
          "midi": 35,
          "name": "B1",
          "ticks": 136320,
          "time": 212.986368,
          "velocity": 0.8110236220472441
        },
        {
          "duration": 0.023435999999975365,
          "durationTicks": 15,
          "midi": 44,
          "name": "G#2",
          "ticks": 136320,
          "time": 212.986368,
          "velocity": 0.7559055118110236
        },
        {
          "duration": 0.023435999999975365,
          "durationTicks": 15,
          "midi": 70,
          "name": "A#4",
          "ticks": 136320,
          "time": 212.986368,
          "velocity": 0.7322834645669292
        },
        {
          "duration": 0.023436000000003787,
          "durationTicks": 15,
          "midi": 44,
          "name": "G#2",
          "ticks": 136440,
          "time": 213.17385599999997,
          "velocity": 0.4094488188976378
        },
        {
          "duration": 0.023436000000003787,
          "durationTicks": 15,
          "midi": 70,
          "name": "A#4",
          "ticks": 136440,
          "time": 213.17385599999997,
          "velocity": 0.4645669291338583
        },
        {
          "duration": 0.023436000000003787,
          "durationTicks": 15,
          "midi": 44,
          "name": "G#2",
          "ticks": 136560,
          "time": 213.36134399999997,
          "velocity": 0.6299212598425197
        },
        {
          "duration": 0.023436000000003787,
          "durationTicks": 15,
          "midi": 70,
          "name": "A#4",
          "ticks": 136560,
          "time": 213.36134399999997,
          "velocity": 0.5354330708661418
        },
        {
          "duration": 0.023436000000003787,
          "durationTicks": 15,
          "midi": 82,
          "name": "A#5",
          "ticks": 136560,
          "time": 213.36134399999997,
          "velocity": 0.3700787401574803
        },
        {
          "duration": 0.023436000000003787,
          "durationTicks": 15,
          "midi": 44,
          "name": "G#2",
          "ticks": 136680,
          "time": 213.54883199999998,
          "velocity": 0.48031496062992124
        },
        {
          "duration": 0.023436000000003787,
          "durationTicks": 15,
          "midi": 70,
          "name": "A#4",
          "ticks": 136680,
          "time": 213.54883199999998,
          "velocity": 0.44881889763779526
        },
        {
          "duration": 0.023436000000003787,
          "durationTicks": 15,
          "midi": 82,
          "name": "A#5",
          "ticks": 136680,
          "time": 213.54883199999998,
          "velocity": 0.3858267716535433
        },
        {
          "duration": 0.023436000000003787,
          "durationTicks": 15,
          "midi": 37,
          "name": "C#2",
          "ticks": 136800,
          "time": 213.73631999999998,
          "velocity": 1
        },
        {
          "duration": 0.023436000000003787,
          "durationTicks": 15,
          "midi": 44,
          "name": "G#2",
          "ticks": 136800,
          "time": 213.73631999999998,
          "velocity": 0.7716535433070866
        },
        {
          "duration": 0.023436000000003787,
          "durationTicks": 15,
          "midi": 70,
          "name": "A#4",
          "ticks": 136800,
          "time": 213.73631999999998,
          "velocity": 0.7322834645669292
        },
        {
          "duration": 0.023436000000003787,
          "durationTicks": 15,
          "midi": 82,
          "name": "A#5",
          "ticks": 136800,
          "time": 213.73631999999998,
          "velocity": 0.49606299212598426
        },
        {
          "duration": 0.023436000000003787,
          "durationTicks": 15,
          "midi": 44,
          "name": "G#2",
          "ticks": 136920,
          "time": 213.92380799999998,
          "velocity": 0.49606299212598426
        },
        {
          "duration": 0.023436000000003787,
          "durationTicks": 15,
          "midi": 70,
          "name": "A#4",
          "ticks": 136920,
          "time": 213.92380799999998,
          "velocity": 0.4645669291338583
        },
        {
          "duration": 0.023436000000003787,
          "durationTicks": 15,
          "midi": 35,
          "name": "B1",
          "ticks": 137040,
          "time": 214.11129599999998,
          "velocity": 0.8110236220472441
        },
        {
          "duration": 0.023436000000003787,
          "durationTicks": 15,
          "midi": 44,
          "name": "G#2",
          "ticks": 137040,
          "time": 214.11129599999998,
          "velocity": 0.6141732283464567
        },
        {
          "duration": 0.023436000000003787,
          "durationTicks": 15,
          "midi": 70,
          "name": "A#4",
          "ticks": 137040,
          "time": 214.11129599999998,
          "velocity": 0.5354330708661418
        },
        {
          "duration": 0.023436000000003787,
          "durationTicks": 15,
          "midi": 44,
          "name": "G#2",
          "ticks": 137160,
          "time": 214.29878399999998,
          "velocity": 0.48031496062992124
        },
        {
          "duration": 0.023436000000003787,
          "durationTicks": 15,
          "midi": 70,
          "name": "A#4",
          "ticks": 137160,
          "time": 214.29878399999998,
          "velocity": 0.44881889763779526
        },
        {
          "duration": 0.023436000000003787,
          "durationTicks": 15,
          "midi": 82,
          "name": "A#5",
          "ticks": 137160,
          "time": 214.29878399999998,
          "velocity": 0.33070866141732286
        },
        {
          "duration": 0.023436000000003787,
          "durationTicks": 15,
          "midi": 35,
          "name": "B1",
          "ticks": 137280,
          "time": 214.48627199999999,
          "velocity": 0.8110236220472441
        },
        {
          "duration": 0.023436000000003787,
          "durationTicks": 15,
          "midi": 44,
          "name": "G#2",
          "ticks": 137280,
          "time": 214.48627199999999,
          "velocity": 0.7559055118110236
        },
        {
          "duration": 0.023436000000003787,
          "durationTicks": 15,
          "midi": 70,
          "name": "A#4",
          "ticks": 137280,
          "time": 214.48627199999999,
          "velocity": 0.7322834645669292
        },
        {
          "duration": 0.023436000000003787,
          "durationTicks": 15,
          "midi": 82,
          "name": "A#5",
          "ticks": 137280,
          "time": 214.48627199999999,
          "velocity": 0.33858267716535434
        },
        {
          "duration": 0.023436000000003787,
          "durationTicks": 15,
          "midi": 44,
          "name": "G#2",
          "ticks": 137400,
          "time": 214.67376,
          "velocity": 0.4094488188976378
        },
        {
          "duration": 0.023436000000003787,
          "durationTicks": 15,
          "midi": 70,
          "name": "A#4",
          "ticks": 137400,
          "time": 214.67376,
          "velocity": 0.4645669291338583
        },
        {
          "duration": 0.023436000000003787,
          "durationTicks": 15,
          "midi": 44,
          "name": "G#2",
          "ticks": 137520,
          "time": 214.861248,
          "velocity": 0.6299212598425197
        },
        {
          "duration": 0.023436000000003787,
          "durationTicks": 15,
          "midi": 70,
          "name": "A#4",
          "ticks": 137520,
          "time": 214.861248,
          "velocity": 0.5354330708661418
        },
        {
          "duration": 0.023436000000003787,
          "durationTicks": 15,
          "midi": 82,
          "name": "A#5",
          "ticks": 137520,
          "time": 214.861248,
          "velocity": 0.3858267716535433
        },
        {
          "duration": 0.023436000000003787,
          "durationTicks": 15,
          "midi": 44,
          "name": "G#2",
          "ticks": 137640,
          "time": 215.048736,
          "velocity": 0.48031496062992124
        },
        {
          "duration": 0.023436000000003787,
          "durationTicks": 15,
          "midi": 70,
          "name": "A#4",
          "ticks": 137640,
          "time": 215.048736,
          "velocity": 0.44881889763779526
        },
        {
          "duration": 0.023436000000003787,
          "durationTicks": 15,
          "midi": 82,
          "name": "A#5",
          "ticks": 137640,
          "time": 215.048736,
          "velocity": 0.41732283464566927
        },
        {
          "duration": 0.023436000000003787,
          "durationTicks": 15,
          "midi": 37,
          "name": "C#2",
          "ticks": 137760,
          "time": 215.236224,
          "velocity": 0.984251968503937
        },
        {
          "duration": 0.023436000000003787,
          "durationTicks": 15,
          "midi": 44,
          "name": "G#2",
          "ticks": 137760,
          "time": 215.236224,
          "velocity": 0.7716535433070866
        },
        {
          "duration": 0.023436000000003787,
          "durationTicks": 15,
          "midi": 70,
          "name": "A#4",
          "ticks": 137760,
          "time": 215.236224,
          "velocity": 0.7322834645669292
        },
        {
          "duration": 0.023436000000003787,
          "durationTicks": 15,
          "midi": 82,
          "name": "A#5",
          "ticks": 137760,
          "time": 215.236224,
          "velocity": 0.4645669291338583
        },
        {
          "duration": 0.023436000000003787,
          "durationTicks": 15,
          "midi": 44,
          "name": "G#2",
          "ticks": 137880,
          "time": 215.423712,
          "velocity": 0.49606299212598426
        },
        {
          "duration": 0.023436000000003787,
          "durationTicks": 15,
          "midi": 70,
          "name": "A#4",
          "ticks": 137880,
          "time": 215.423712,
          "velocity": 0.4645669291338583
        },
        {
          "duration": 0.023435999999975365,
          "durationTicks": 15,
          "midi": 46,
          "name": "A#2",
          "ticks": 138000,
          "time": 215.6112,
          "velocity": 0.6614173228346457
        },
        {
          "duration": 0.023435999999975365,
          "durationTicks": 15,
          "midi": 70,
          "name": "A#4",
          "ticks": 138000,
          "time": 215.6112,
          "velocity": 0.5354330708661418
        },
        {
          "duration": 0.023435999999975365,
          "durationTicks": 15,
          "midi": 82,
          "name": "A#5",
          "ticks": 138000,
          "time": 215.6112,
          "velocity": 0.41732283464566927
        },
        {
          "duration": 0.023435999999975365,
          "durationTicks": 15,
          "midi": 35,
          "name": "B1",
          "ticks": 138120,
          "time": 215.798688,
          "velocity": 0.8110236220472441
        },
        {
          "duration": 0.023435999999975365,
          "durationTicks": 15,
          "midi": 70,
          "name": "A#4",
          "ticks": 138120,
          "time": 215.798688,
          "velocity": 0.44881889763779526
        },
        {
          "duration": 0.023435999999975365,
          "durationTicks": 15,
          "midi": 82,
          "name": "A#5",
          "ticks": 138120,
          "time": 215.798688,
          "velocity": 0.33858267716535434
        },
        {
          "duration": 0.023435999999975365,
          "durationTicks": 15,
          "midi": 35,
          "name": "B1",
          "ticks": 138240,
          "time": 215.986176,
          "velocity": 0.8661417322834646
        },
        {
          "duration": 0.023435999999975365,
          "durationTicks": 15,
          "midi": 44,
          "name": "G#2",
          "ticks": 138240,
          "time": 215.986176,
          "velocity": 0.7559055118110236
        },
        {
          "duration": 0.023435999999975365,
          "durationTicks": 15,
          "midi": 49,
          "name": "C#3",
          "ticks": 138240,
          "time": 215.986176,
          "velocity": 0.4094488188976378
        },
        {
          "duration": 0.023435999999975365,
          "durationTicks": 15,
          "midi": 59,
          "name": "B3",
          "ticks": 138240,
          "time": 215.986176,
          "velocity": 0.889763779527559
        },
        {
          "duration": 0.023435999999975365,
          "durationTicks": 15,
          "midi": 70,
          "name": "A#4",
          "ticks": 138240,
          "time": 215.986176,
          "velocity": 0.7322834645669292
        },
        {
          "duration": 0.023436000000003787,
          "durationTicks": 15,
          "midi": 44,
          "name": "G#2",
          "ticks": 138360,
          "time": 216.17366399999997,
          "velocity": 0.4094488188976378
        },
        {
          "duration": 0.023436000000003787,
          "durationTicks": 15,
          "midi": 70,
          "name": "A#4",
          "ticks": 138360,
          "time": 216.17366399999997,
          "velocity": 0.4645669291338583
        },
        {
          "duration": 0.023436000000003787,
          "durationTicks": 15,
          "midi": 44,
          "name": "G#2",
          "ticks": 138480,
          "time": 216.36115199999998,
          "velocity": 0.6299212598425197
        },
        {
          "duration": 0.023436000000003787,
          "durationTicks": 15,
          "midi": 70,
          "name": "A#4",
          "ticks": 138480,
          "time": 216.36115199999998,
          "velocity": 0.5354330708661418
        },
        {
          "duration": 0.023436000000003787,
          "durationTicks": 15,
          "midi": 82,
          "name": "A#5",
          "ticks": 138480,
          "time": 216.36115199999998,
          "velocity": 0.3700787401574803
        },
        {
          "duration": 0.023436000000003787,
          "durationTicks": 15,
          "midi": 44,
          "name": "G#2",
          "ticks": 138600,
          "time": 216.54863999999998,
          "velocity": 0.48031496062992124
        },
        {
          "duration": 0.023436000000003787,
          "durationTicks": 15,
          "midi": 70,
          "name": "A#4",
          "ticks": 138600,
          "time": 216.54863999999998,
          "velocity": 0.44881889763779526
        },
        {
          "duration": 0.023436000000003787,
          "durationTicks": 15,
          "midi": 82,
          "name": "A#5",
          "ticks": 138600,
          "time": 216.54863999999998,
          "velocity": 0.3858267716535433
        },
        {
          "duration": 0.023436000000003787,
          "durationTicks": 15,
          "midi": 37,
          "name": "C#2",
          "ticks": 138720,
          "time": 216.73612799999998,
          "velocity": 1
        },
        {
          "duration": 0.023436000000003787,
          "durationTicks": 15,
          "midi": 44,
          "name": "G#2",
          "ticks": 138720,
          "time": 216.73612799999998,
          "velocity": 0.7716535433070866
        },
        {
          "duration": 0.023436000000003787,
          "durationTicks": 15,
          "midi": 70,
          "name": "A#4",
          "ticks": 138720,
          "time": 216.73612799999998,
          "velocity": 0.7322834645669292
        },
        {
          "duration": 0.023436000000003787,
          "durationTicks": 15,
          "midi": 82,
          "name": "A#5",
          "ticks": 138720,
          "time": 216.73612799999998,
          "velocity": 0.49606299212598426
        },
        {
          "duration": 0.023436000000003787,
          "durationTicks": 15,
          "midi": 44,
          "name": "G#2",
          "ticks": 138840,
          "time": 216.92361599999998,
          "velocity": 0.49606299212598426
        },
        {
          "duration": 0.023436000000003787,
          "durationTicks": 15,
          "midi": 70,
          "name": "A#4",
          "ticks": 138840,
          "time": 216.92361599999998,
          "velocity": 0.4645669291338583
        },
        {
          "duration": 0.023436000000003787,
          "durationTicks": 15,
          "midi": 35,
          "name": "B1",
          "ticks": 138960,
          "time": 217.11110399999998,
          "velocity": 0.6850393700787402
        },
        {
          "duration": 0.023436000000003787,
          "durationTicks": 15,
          "midi": 44,
          "name": "G#2",
          "ticks": 138960,
          "time": 217.11110399999998,
          "velocity": 0.6141732283464567
        },
        {
          "duration": 0.023436000000003787,
          "durationTicks": 15,
          "midi": 70,
          "name": "A#4",
          "ticks": 138960,
          "time": 217.11110399999998,
          "velocity": 0.5354330708661418
        },
        {
          "duration": 0.023436000000003787,
          "durationTicks": 15,
          "midi": 35,
          "name": "B1",
          "ticks": 139080,
          "time": 217.29859199999999,
          "velocity": 0.6850393700787402
        },
        {
          "duration": 0.023436000000003787,
          "durationTicks": 15,
          "midi": 44,
          "name": "G#2",
          "ticks": 139080,
          "time": 217.29859199999999,
          "velocity": 0.48031496062992124
        },
        {
          "duration": 0.023436000000003787,
          "durationTicks": 15,
          "midi": 70,
          "name": "A#4",
          "ticks": 139080,
          "time": 217.29859199999999,
          "velocity": 0.44881889763779526
        },
        {
          "duration": 0.023436000000003787,
          "durationTicks": 15,
          "midi": 82,
          "name": "A#5",
          "ticks": 139080,
          "time": 217.29859199999999,
          "velocity": 0.33070866141732286
        },
        {
          "duration": 0.023436000000003787,
          "durationTicks": 15,
          "midi": 35,
          "name": "B1",
          "ticks": 139200,
          "time": 217.48608,
          "velocity": 0.8110236220472441
        },
        {
          "duration": 0.023436000000003787,
          "durationTicks": 15,
          "midi": 44,
          "name": "G#2",
          "ticks": 139200,
          "time": 217.48608,
          "velocity": 0.7559055118110236
        },
        {
          "duration": 0.023436000000003787,
          "durationTicks": 15,
          "midi": 70,
          "name": "A#4",
          "ticks": 139200,
          "time": 217.48608,
          "velocity": 0.7322834645669292
        },
        {
          "duration": 0.023436000000003787,
          "durationTicks": 15,
          "midi": 82,
          "name": "A#5",
          "ticks": 139200,
          "time": 217.48608,
          "velocity": 0.33858267716535434
        },
        {
          "duration": 0.023436000000003787,
          "durationTicks": 15,
          "midi": 44,
          "name": "G#2",
          "ticks": 139320,
          "time": 217.673568,
          "velocity": 0.4094488188976378
        },
        {
          "duration": 0.023436000000003787,
          "durationTicks": 15,
          "midi": 70,
          "name": "A#4",
          "ticks": 139320,
          "time": 217.673568,
          "velocity": 0.4645669291338583
        },
        {
          "duration": 0.023436000000003787,
          "durationTicks": 15,
          "midi": 44,
          "name": "G#2",
          "ticks": 139440,
          "time": 217.861056,
          "velocity": 0.6299212598425197
        },
        {
          "duration": 0.023436000000003787,
          "durationTicks": 15,
          "midi": 70,
          "name": "A#4",
          "ticks": 139440,
          "time": 217.861056,
          "velocity": 0.5354330708661418
        },
        {
          "duration": 0.023436000000003787,
          "durationTicks": 15,
          "midi": 82,
          "name": "A#5",
          "ticks": 139440,
          "time": 217.861056,
          "velocity": 0.3858267716535433
        },
        {
          "duration": 0.023436000000003787,
          "durationTicks": 15,
          "midi": 44,
          "name": "G#2",
          "ticks": 139560,
          "time": 218.048544,
          "velocity": 0.48031496062992124
        },
        {
          "duration": 0.023436000000003787,
          "durationTicks": 15,
          "midi": 70,
          "name": "A#4",
          "ticks": 139560,
          "time": 218.048544,
          "velocity": 0.44881889763779526
        },
        {
          "duration": 0.023436000000003787,
          "durationTicks": 15,
          "midi": 82,
          "name": "A#5",
          "ticks": 139560,
          "time": 218.048544,
          "velocity": 0.41732283464566927
        },
        {
          "duration": 0.023436000000003787,
          "durationTicks": 15,
          "midi": 37,
          "name": "C#2",
          "ticks": 139680,
          "time": 218.236032,
          "velocity": 0.984251968503937
        },
        {
          "duration": 0.023436000000003787,
          "durationTicks": 15,
          "midi": 44,
          "name": "G#2",
          "ticks": 139680,
          "time": 218.236032,
          "velocity": 0.7716535433070866
        },
        {
          "duration": 0.023436000000003787,
          "durationTicks": 15,
          "midi": 70,
          "name": "A#4",
          "ticks": 139680,
          "time": 218.236032,
          "velocity": 0.7322834645669292
        },
        {
          "duration": 0.023436000000003787,
          "durationTicks": 15,
          "midi": 82,
          "name": "A#5",
          "ticks": 139680,
          "time": 218.236032,
          "velocity": 0.4645669291338583
        },
        {
          "duration": 0.023436000000003787,
          "durationTicks": 15,
          "midi": 44,
          "name": "G#2",
          "ticks": 139800,
          "time": 218.42352,
          "velocity": 0.49606299212598426
        },
        {
          "duration": 0.023436000000003787,
          "durationTicks": 15,
          "midi": 70,
          "name": "A#4",
          "ticks": 139800,
          "time": 218.42352,
          "velocity": 0.4645669291338583
        },
        {
          "duration": 0.023435999999975365,
          "durationTicks": 15,
          "midi": 46,
          "name": "A#2",
          "ticks": 139920,
          "time": 218.611008,
          "velocity": 0.6614173228346457
        },
        {
          "duration": 0.023435999999975365,
          "durationTicks": 15,
          "midi": 70,
          "name": "A#4",
          "ticks": 139920,
          "time": 218.611008,
          "velocity": 0.5354330708661418
        },
        {
          "duration": 0.023435999999975365,
          "durationTicks": 15,
          "midi": 82,
          "name": "A#5",
          "ticks": 139920,
          "time": 218.611008,
          "velocity": 0.41732283464566927
        },
        {
          "duration": 0.023435999999975365,
          "durationTicks": 15,
          "midi": 70,
          "name": "A#4",
          "ticks": 140040,
          "time": 218.798496,
          "velocity": 0.44881889763779526
        },
        {
          "duration": 0.023435999999975365,
          "durationTicks": 15,
          "midi": 82,
          "name": "A#5",
          "ticks": 140040,
          "time": 218.798496,
          "velocity": 0.33858267716535434
        },
        {
          "duration": 0.023436000000003787,
          "durationTicks": 15,
          "midi": 35,
          "name": "B1",
          "ticks": 140160,
          "time": 218.98598399999997,
          "velocity": 0.8661417322834646
        },
        {
          "duration": 0.023436000000003787,
          "durationTicks": 15,
          "midi": 44,
          "name": "G#2",
          "ticks": 140160,
          "time": 218.98598399999997,
          "velocity": 0.7559055118110236
        },
        {
          "duration": 0.023436000000003787,
          "durationTicks": 15,
          "midi": 70,
          "name": "A#4",
          "ticks": 140160,
          "time": 218.98598399999997,
          "velocity": 0.7322834645669292
        },
        {
          "duration": 0.023436000000003787,
          "durationTicks": 15,
          "midi": 44,
          "name": "G#2",
          "ticks": 140280,
          "time": 219.17347199999998,
          "velocity": 0.4094488188976378
        },
        {
          "duration": 0.023436000000003787,
          "durationTicks": 15,
          "midi": 70,
          "name": "A#4",
          "ticks": 140280,
          "time": 219.17347199999998,
          "velocity": 0.4645669291338583
        },
        {
          "duration": 0.023436000000003787,
          "durationTicks": 15,
          "midi": 44,
          "name": "G#2",
          "ticks": 140400,
          "time": 219.36095999999998,
          "velocity": 0.6299212598425197
        },
        {
          "duration": 0.023436000000003787,
          "durationTicks": 15,
          "midi": 70,
          "name": "A#4",
          "ticks": 140400,
          "time": 219.36095999999998,
          "velocity": 0.5354330708661418
        },
        {
          "duration": 0.023436000000003787,
          "durationTicks": 15,
          "midi": 82,
          "name": "A#5",
          "ticks": 140400,
          "time": 219.36095999999998,
          "velocity": 0.3700787401574803
        },
        {
          "duration": 0.023436000000003787,
          "durationTicks": 15,
          "midi": 44,
          "name": "G#2",
          "ticks": 140520,
          "time": 219.54844799999998,
          "velocity": 0.48031496062992124
        },
        {
          "duration": 0.023436000000003787,
          "durationTicks": 15,
          "midi": 70,
          "name": "A#4",
          "ticks": 140520,
          "time": 219.54844799999998,
          "velocity": 0.44881889763779526
        },
        {
          "duration": 0.023436000000003787,
          "durationTicks": 15,
          "midi": 82,
          "name": "A#5",
          "ticks": 140520,
          "time": 219.54844799999998,
          "velocity": 0.3858267716535433
        },
        {
          "duration": 0.023436000000003787,
          "durationTicks": 15,
          "midi": 37,
          "name": "C#2",
          "ticks": 140640,
          "time": 219.73593599999998,
          "velocity": 1
        },
        {
          "duration": 0.023436000000003787,
          "durationTicks": 15,
          "midi": 44,
          "name": "G#2",
          "ticks": 140640,
          "time": 219.73593599999998,
          "velocity": 0.7716535433070866
        },
        {
          "duration": 0.023436000000003787,
          "durationTicks": 15,
          "midi": 70,
          "name": "A#4",
          "ticks": 140640,
          "time": 219.73593599999998,
          "velocity": 0.7322834645669292
        },
        {
          "duration": 0.023436000000003787,
          "durationTicks": 15,
          "midi": 82,
          "name": "A#5",
          "ticks": 140640,
          "time": 219.73593599999998,
          "velocity": 0.49606299212598426
        },
        {
          "duration": 0.023436000000003787,
          "durationTicks": 15,
          "midi": 44,
          "name": "G#2",
          "ticks": 140760,
          "time": 219.92342399999998,
          "velocity": 0.49606299212598426
        },
        {
          "duration": 0.023436000000003787,
          "durationTicks": 15,
          "midi": 70,
          "name": "A#4",
          "ticks": 140760,
          "time": 219.92342399999998,
          "velocity": 0.4645669291338583
        },
        {
          "duration": 0.023436000000003787,
          "durationTicks": 15,
          "midi": 35,
          "name": "B1",
          "ticks": 140880,
          "time": 220.11091199999998,
          "velocity": 0.8188976377952756
        },
        {
          "duration": 0.023436000000003787,
          "durationTicks": 15,
          "midi": 44,
          "name": "G#2",
          "ticks": 140880,
          "time": 220.11091199999998,
          "velocity": 0.6141732283464567
        },
        {
          "duration": 0.023436000000003787,
          "durationTicks": 15,
          "midi": 70,
          "name": "A#4",
          "ticks": 140880,
          "time": 220.11091199999998,
          "velocity": 0.5354330708661418
        },
        {
          "duration": 0.023436000000003787,
          "durationTicks": 15,
          "midi": 44,
          "name": "G#2",
          "ticks": 141000,
          "time": 220.2984,
          "velocity": 0.48031496062992124
        },
        {
          "duration": 0.023436000000003787,
          "durationTicks": 15,
          "midi": 70,
          "name": "A#4",
          "ticks": 141000,
          "time": 220.2984,
          "velocity": 0.44881889763779526
        },
        {
          "duration": 0.023436000000003787,
          "durationTicks": 15,
          "midi": 82,
          "name": "A#5",
          "ticks": 141000,
          "time": 220.2984,
          "velocity": 0.33070866141732286
        },
        {
          "duration": 0.023436000000003787,
          "durationTicks": 15,
          "midi": 35,
          "name": "B1",
          "ticks": 141120,
          "time": 220.485888,
          "velocity": 0.84251968503937
        },
        {
          "duration": 0.023436000000003787,
          "durationTicks": 15,
          "midi": 44,
          "name": "G#2",
          "ticks": 141120,
          "time": 220.485888,
          "velocity": 0.7559055118110236
        },
        {
          "duration": 0.023436000000003787,
          "durationTicks": 15,
          "midi": 70,
          "name": "A#4",
          "ticks": 141120,
          "time": 220.485888,
          "velocity": 0.7322834645669292
        },
        {
          "duration": 0.023436000000003787,
          "durationTicks": 15,
          "midi": 82,
          "name": "A#5",
          "ticks": 141120,
          "time": 220.485888,
          "velocity": 0.33858267716535434
        },
        {
          "duration": 0.023436000000003787,
          "durationTicks": 15,
          "midi": 44,
          "name": "G#2",
          "ticks": 141240,
          "time": 220.673376,
          "velocity": 0.4094488188976378
        },
        {
          "duration": 0.023436000000003787,
          "durationTicks": 15,
          "midi": 70,
          "name": "A#4",
          "ticks": 141240,
          "time": 220.673376,
          "velocity": 0.4645669291338583
        },
        {
          "duration": 0.023436000000003787,
          "durationTicks": 15,
          "midi": 44,
          "name": "G#2",
          "ticks": 141360,
          "time": 220.860864,
          "velocity": 0.6299212598425197
        },
        {
          "duration": 0.023436000000003787,
          "durationTicks": 15,
          "midi": 70,
          "name": "A#4",
          "ticks": 141360,
          "time": 220.860864,
          "velocity": 0.5354330708661418
        },
        {
          "duration": 0.023436000000003787,
          "durationTicks": 15,
          "midi": 82,
          "name": "A#5",
          "ticks": 141360,
          "time": 220.860864,
          "velocity": 0.3858267716535433
        },
        {
          "duration": 0.023436000000003787,
          "durationTicks": 15,
          "midi": 44,
          "name": "G#2",
          "ticks": 141480,
          "time": 221.048352,
          "velocity": 0.48031496062992124
        },
        {
          "duration": 0.023436000000003787,
          "durationTicks": 15,
          "midi": 70,
          "name": "A#4",
          "ticks": 141480,
          "time": 221.048352,
          "velocity": 0.44881889763779526
        },
        {
          "duration": 0.023436000000003787,
          "durationTicks": 15,
          "midi": 82,
          "name": "A#5",
          "ticks": 141480,
          "time": 221.048352,
          "velocity": 0.41732283464566927
        },
        {
          "duration": 0.023436000000003787,
          "durationTicks": 15,
          "midi": 37,
          "name": "C#2",
          "ticks": 141600,
          "time": 221.23584,
          "velocity": 0.984251968503937
        },
        {
          "duration": 0.023436000000003787,
          "durationTicks": 15,
          "midi": 44,
          "name": "G#2",
          "ticks": 141600,
          "time": 221.23584,
          "velocity": 0.7716535433070866
        },
        {
          "duration": 0.023436000000003787,
          "durationTicks": 15,
          "midi": 70,
          "name": "A#4",
          "ticks": 141600,
          "time": 221.23584,
          "velocity": 0.7322834645669292
        },
        {
          "duration": 0.023436000000003787,
          "durationTicks": 15,
          "midi": 82,
          "name": "A#5",
          "ticks": 141600,
          "time": 221.23584,
          "velocity": 0.4645669291338583
        },
        {
          "duration": 0.023435999999975365,
          "durationTicks": 15,
          "midi": 44,
          "name": "G#2",
          "ticks": 141720,
          "time": 221.423328,
          "velocity": 0.49606299212598426
        },
        {
          "duration": 0.023435999999975365,
          "durationTicks": 15,
          "midi": 70,
          "name": "A#4",
          "ticks": 141720,
          "time": 221.423328,
          "velocity": 0.4645669291338583
        },
        {
          "duration": 0.023435999999975365,
          "durationTicks": 15,
          "midi": 46,
          "name": "A#2",
          "ticks": 141840,
          "time": 221.610816,
          "velocity": 0.6614173228346457
        },
        {
          "duration": 0.023435999999975365,
          "durationTicks": 15,
          "midi": 70,
          "name": "A#4",
          "ticks": 141840,
          "time": 221.610816,
          "velocity": 0.5354330708661418
        },
        {
          "duration": 0.023435999999975365,
          "durationTicks": 15,
          "midi": 82,
          "name": "A#5",
          "ticks": 141840,
          "time": 221.610816,
          "velocity": 0.41732283464566927
        },
        {
          "duration": 0.023436000000003787,
          "durationTicks": 15,
          "midi": 35,
          "name": "B1",
          "ticks": 141960,
          "time": 221.79830399999997,
          "velocity": 0.8110236220472441
        },
        {
          "duration": 0.023436000000003787,
          "durationTicks": 15,
          "midi": 70,
          "name": "A#4",
          "ticks": 141960,
          "time": 221.79830399999997,
          "velocity": 0.44881889763779526
        },
        {
          "duration": 0.023436000000003787,
          "durationTicks": 15,
          "midi": 82,
          "name": "A#5",
          "ticks": 141960,
          "time": 221.79830399999997,
          "velocity": 0.33858267716535434
        },
        {
          "duration": 0.023436000000003787,
          "durationTicks": 15,
          "midi": 35,
          "name": "B1",
          "ticks": 142080,
          "time": 221.98579199999998,
          "velocity": 0.8110236220472441
        },
        {
          "duration": 0.023436000000003787,
          "durationTicks": 15,
          "midi": 44,
          "name": "G#2",
          "ticks": 142080,
          "time": 221.98579199999998,
          "velocity": 0.7559055118110236
        },
        {
          "duration": 0.023436000000003787,
          "durationTicks": 15,
          "midi": 70,
          "name": "A#4",
          "ticks": 142080,
          "time": 221.98579199999998,
          "velocity": 0.7322834645669292
        },
        {
          "duration": 0.023436000000003787,
          "durationTicks": 15,
          "midi": 44,
          "name": "G#2",
          "ticks": 142200,
          "time": 222.17327999999998,
          "velocity": 0.4094488188976378
        },
        {
          "duration": 0.023436000000003787,
          "durationTicks": 15,
          "midi": 70,
          "name": "A#4",
          "ticks": 142200,
          "time": 222.17327999999998,
          "velocity": 0.4645669291338583
        },
        {
          "duration": 0.023436000000003787,
          "durationTicks": 15,
          "midi": 44,
          "name": "G#2",
          "ticks": 142320,
          "time": 222.36076799999998,
          "velocity": 0.6299212598425197
        },
        {
          "duration": 0.023436000000003787,
          "durationTicks": 15,
          "midi": 70,
          "name": "A#4",
          "ticks": 142320,
          "time": 222.36076799999998,
          "velocity": 0.5354330708661418
        },
        {
          "duration": 0.023436000000003787,
          "durationTicks": 15,
          "midi": 82,
          "name": "A#5",
          "ticks": 142320,
          "time": 222.36076799999998,
          "velocity": 0.3700787401574803
        },
        {
          "duration": 0.023436000000003787,
          "durationTicks": 15,
          "midi": 44,
          "name": "G#2",
          "ticks": 142440,
          "time": 222.54825599999998,
          "velocity": 0.48031496062992124
        },
        {
          "duration": 0.023436000000003787,
          "durationTicks": 15,
          "midi": 70,
          "name": "A#4",
          "ticks": 142440,
          "time": 222.54825599999998,
          "velocity": 0.44881889763779526
        },
        {
          "duration": 0.023436000000003787,
          "durationTicks": 15,
          "midi": 82,
          "name": "A#5",
          "ticks": 142440,
          "time": 222.54825599999998,
          "velocity": 0.3858267716535433
        },
        {
          "duration": 0.023436000000003787,
          "durationTicks": 15,
          "midi": 37,
          "name": "C#2",
          "ticks": 142560,
          "time": 222.73574399999998,
          "velocity": 1
        },
        {
          "duration": 0.023436000000003787,
          "durationTicks": 15,
          "midi": 44,
          "name": "G#2",
          "ticks": 142560,
          "time": 222.73574399999998,
          "velocity": 0.7716535433070866
        },
        {
          "duration": 0.023436000000003787,
          "durationTicks": 15,
          "midi": 70,
          "name": "A#4",
          "ticks": 142560,
          "time": 222.73574399999998,
          "velocity": 0.7322834645669292
        },
        {
          "duration": 0.023436000000003787,
          "durationTicks": 15,
          "midi": 82,
          "name": "A#5",
          "ticks": 142560,
          "time": 222.73574399999998,
          "velocity": 0.49606299212598426
        },
        {
          "duration": 0.023436000000003787,
          "durationTicks": 15,
          "midi": 44,
          "name": "G#2",
          "ticks": 142680,
          "time": 222.92323199999998,
          "velocity": 0.49606299212598426
        },
        {
          "duration": 0.023436000000003787,
          "durationTicks": 15,
          "midi": 70,
          "name": "A#4",
          "ticks": 142680,
          "time": 222.92323199999998,
          "velocity": 0.4645669291338583
        },
        {
          "duration": 0.023436000000003787,
          "durationTicks": 15,
          "midi": 35,
          "name": "B1",
          "ticks": 142800,
          "time": 223.11072,
          "velocity": 0.6850393700787402
        },
        {
          "duration": 0.023436000000003787,
          "durationTicks": 15,
          "midi": 44,
          "name": "G#2",
          "ticks": 142800,
          "time": 223.11072,
          "velocity": 0.6141732283464567
        },
        {
          "duration": 0.023436000000003787,
          "durationTicks": 15,
          "midi": 70,
          "name": "A#4",
          "ticks": 142800,
          "time": 223.11072,
          "velocity": 0.5354330708661418
        },
        {
          "duration": 0.023436000000003787,
          "durationTicks": 15,
          "midi": 35,
          "name": "B1",
          "ticks": 142920,
          "time": 223.298208,
          "velocity": 0.6850393700787402
        },
        {
          "duration": 0.023436000000003787,
          "durationTicks": 15,
          "midi": 44,
          "name": "G#2",
          "ticks": 142920,
          "time": 223.298208,
          "velocity": 0.48031496062992124
        },
        {
          "duration": 0.023436000000003787,
          "durationTicks": 15,
          "midi": 70,
          "name": "A#4",
          "ticks": 142920,
          "time": 223.298208,
          "velocity": 0.44881889763779526
        },
        {
          "duration": 0.023436000000003787,
          "durationTicks": 15,
          "midi": 82,
          "name": "A#5",
          "ticks": 142920,
          "time": 223.298208,
          "velocity": 0.33070866141732286
        },
        {
          "duration": 0.023436000000003787,
          "durationTicks": 15,
          "midi": 35,
          "name": "B1",
          "ticks": 143040,
          "time": 223.485696,
          "velocity": 0.8110236220472441
        },
        {
          "duration": 0.023436000000003787,
          "durationTicks": 15,
          "midi": 44,
          "name": "G#2",
          "ticks": 143040,
          "time": 223.485696,
          "velocity": 0.7559055118110236
        },
        {
          "duration": 0.023436000000003787,
          "durationTicks": 15,
          "midi": 70,
          "name": "A#4",
          "ticks": 143040,
          "time": 223.485696,
          "velocity": 0.7322834645669292
        },
        {
          "duration": 0.023436000000003787,
          "durationTicks": 15,
          "midi": 82,
          "name": "A#5",
          "ticks": 143040,
          "time": 223.485696,
          "velocity": 0.33858267716535434
        },
        {
          "duration": 0.023436000000003787,
          "durationTicks": 15,
          "midi": 44,
          "name": "G#2",
          "ticks": 143160,
          "time": 223.673184,
          "velocity": 0.4094488188976378
        },
        {
          "duration": 0.023436000000003787,
          "durationTicks": 15,
          "midi": 70,
          "name": "A#4",
          "ticks": 143160,
          "time": 223.673184,
          "velocity": 0.4645669291338583
        },
        {
          "duration": 0.023436000000003787,
          "durationTicks": 15,
          "midi": 44,
          "name": "G#2",
          "ticks": 143280,
          "time": 223.860672,
          "velocity": 0.6299212598425197
        },
        {
          "duration": 0.023436000000003787,
          "durationTicks": 15,
          "midi": 70,
          "name": "A#4",
          "ticks": 143280,
          "time": 223.860672,
          "velocity": 0.5354330708661418
        },
        {
          "duration": 0.023436000000003787,
          "durationTicks": 15,
          "midi": 82,
          "name": "A#5",
          "ticks": 143280,
          "time": 223.860672,
          "velocity": 0.3858267716535433
        },
        {
          "duration": 0.023436000000003787,
          "durationTicks": 15,
          "midi": 44,
          "name": "G#2",
          "ticks": 143400,
          "time": 224.04816,
          "velocity": 0.48031496062992124
        },
        {
          "duration": 0.023436000000003787,
          "durationTicks": 15,
          "midi": 70,
          "name": "A#4",
          "ticks": 143400,
          "time": 224.04816,
          "velocity": 0.44881889763779526
        },
        {
          "duration": 0.023436000000003787,
          "durationTicks": 15,
          "midi": 82,
          "name": "A#5",
          "ticks": 143400,
          "time": 224.04816,
          "velocity": 0.41732283464566927
        },
        {
          "duration": 0.023435999999975365,
          "durationTicks": 15,
          "midi": 37,
          "name": "C#2",
          "ticks": 143520,
          "time": 224.235648,
          "velocity": 0.984251968503937
        },
        {
          "duration": 0.023435999999975365,
          "durationTicks": 15,
          "midi": 44,
          "name": "G#2",
          "ticks": 143520,
          "time": 224.235648,
          "velocity": 0.7716535433070866
        },
        {
          "duration": 0.023435999999975365,
          "durationTicks": 15,
          "midi": 70,
          "name": "A#4",
          "ticks": 143520,
          "time": 224.235648,
          "velocity": 0.7322834645669292
        },
        {
          "duration": 0.023435999999975365,
          "durationTicks": 15,
          "midi": 82,
          "name": "A#5",
          "ticks": 143520,
          "time": 224.235648,
          "velocity": 0.4645669291338583
        },
        {
          "duration": 0.023435999999975365,
          "durationTicks": 15,
          "midi": 44,
          "name": "G#2",
          "ticks": 143640,
          "time": 224.423136,
          "velocity": 0.49606299212598426
        },
        {
          "duration": 0.023435999999975365,
          "durationTicks": 15,
          "midi": 70,
          "name": "A#4",
          "ticks": 143640,
          "time": 224.423136,
          "velocity": 0.4645669291338583
        },
        {
          "duration": 0.023436000000003787,
          "durationTicks": 15,
          "midi": 46,
          "name": "A#2",
          "ticks": 143760,
          "time": 224.61062399999997,
          "velocity": 0.6614173228346457
        },
        {
          "duration": 0.023436000000003787,
          "durationTicks": 15,
          "midi": 70,
          "name": "A#4",
          "ticks": 143760,
          "time": 224.61062399999997,
          "velocity": 0.5354330708661418
        },
        {
          "duration": 0.023436000000003787,
          "durationTicks": 15,
          "midi": 82,
          "name": "A#5",
          "ticks": 143760,
          "time": 224.61062399999997,
          "velocity": 0.41732283464566927
        },
        {
          "duration": 0.023436000000003787,
          "durationTicks": 15,
          "midi": 70,
          "name": "A#4",
          "ticks": 143880,
          "time": 224.79811199999997,
          "velocity": 0.44881889763779526
        },
        {
          "duration": 0.023436000000003787,
          "durationTicks": 15,
          "midi": 82,
          "name": "A#5",
          "ticks": 143880,
          "time": 224.79811199999997,
          "velocity": 0.33858267716535434
        },
        {
          "duration": 0.023436000000003787,
          "durationTicks": 15,
          "midi": 35,
          "name": "B1",
          "ticks": 144000,
          "time": 224.98559999999998,
          "velocity": 0.8110236220472441
        },
        {
          "duration": 0.023436000000003787,
          "durationTicks": 15,
          "midi": 44,
          "name": "G#2",
          "ticks": 144000,
          "time": 224.98559999999998,
          "velocity": 0.7559055118110236
        },
        {
          "duration": 0.023436000000003787,
          "durationTicks": 15,
          "midi": 70,
          "name": "A#4",
          "ticks": 144000,
          "time": 224.98559999999998,
          "velocity": 0.7322834645669292
        },
        {
          "duration": 0.023436000000003787,
          "durationTicks": 15,
          "midi": 44,
          "name": "G#2",
          "ticks": 144120,
          "time": 225.17308799999998,
          "velocity": 0.4094488188976378
        },
        {
          "duration": 0.023436000000003787,
          "durationTicks": 15,
          "midi": 70,
          "name": "A#4",
          "ticks": 144120,
          "time": 225.17308799999998,
          "velocity": 0.4645669291338583
        },
        {
          "duration": 0.023436000000003787,
          "durationTicks": 15,
          "midi": 44,
          "name": "G#2",
          "ticks": 144240,
          "time": 225.36057599999998,
          "velocity": 0.6299212598425197
        },
        {
          "duration": 0.023436000000003787,
          "durationTicks": 15,
          "midi": 70,
          "name": "A#4",
          "ticks": 144240,
          "time": 225.36057599999998,
          "velocity": 0.5354330708661418
        },
        {
          "duration": 0.023436000000003787,
          "durationTicks": 15,
          "midi": 82,
          "name": "A#5",
          "ticks": 144240,
          "time": 225.36057599999998,
          "velocity": 0.3700787401574803
        },
        {
          "duration": 0.023436000000003787,
          "durationTicks": 15,
          "midi": 44,
          "name": "G#2",
          "ticks": 144360,
          "time": 225.54806399999998,
          "velocity": 0.48031496062992124
        },
        {
          "duration": 0.023436000000003787,
          "durationTicks": 15,
          "midi": 70,
          "name": "A#4",
          "ticks": 144360,
          "time": 225.54806399999998,
          "velocity": 0.44881889763779526
        },
        {
          "duration": 0.023436000000003787,
          "durationTicks": 15,
          "midi": 82,
          "name": "A#5",
          "ticks": 144360,
          "time": 225.54806399999998,
          "velocity": 0.3858267716535433
        },
        {
          "duration": 0.023436000000003787,
          "durationTicks": 15,
          "midi": 37,
          "name": "C#2",
          "ticks": 144480,
          "time": 225.73555199999998,
          "velocity": 1
        },
        {
          "duration": 0.023436000000003787,
          "durationTicks": 15,
          "midi": 44,
          "name": "G#2",
          "ticks": 144480,
          "time": 225.73555199999998,
          "velocity": 0.7716535433070866
        },
        {
          "duration": 0.023436000000003787,
          "durationTicks": 15,
          "midi": 70,
          "name": "A#4",
          "ticks": 144480,
          "time": 225.73555199999998,
          "velocity": 0.7322834645669292
        },
        {
          "duration": 0.023436000000003787,
          "durationTicks": 15,
          "midi": 82,
          "name": "A#5",
          "ticks": 144480,
          "time": 225.73555199999998,
          "velocity": 0.49606299212598426
        },
        {
          "duration": 0.023436000000003787,
          "durationTicks": 15,
          "midi": 44,
          "name": "G#2",
          "ticks": 144600,
          "time": 225.92304,
          "velocity": 0.49606299212598426
        },
        {
          "duration": 0.023436000000003787,
          "durationTicks": 15,
          "midi": 70,
          "name": "A#4",
          "ticks": 144600,
          "time": 225.92304,
          "velocity": 0.4645669291338583
        },
        {
          "duration": 0.023436000000003787,
          "durationTicks": 15,
          "midi": 82,
          "name": "A#5",
          "ticks": 144600,
          "time": 225.92304,
          "velocity": 0.4251968503937008
        },
        {
          "duration": 0.023436000000003787,
          "durationTicks": 15,
          "midi": 35,
          "name": "B1",
          "ticks": 144720,
          "time": 226.110528,
          "velocity": 0.8110236220472441
        },
        {
          "duration": 0.023436000000003787,
          "durationTicks": 15,
          "midi": 44,
          "name": "G#2",
          "ticks": 144720,
          "time": 226.110528,
          "velocity": 0.6141732283464567
        },
        {
          "duration": 0.023436000000003787,
          "durationTicks": 15,
          "midi": 70,
          "name": "A#4",
          "ticks": 144720,
          "time": 226.110528,
          "velocity": 0.5354330708661418
        },
        {
          "duration": 0.023436000000003787,
          "durationTicks": 15,
          "midi": 44,
          "name": "G#2",
          "ticks": 144840,
          "time": 226.298016,
          "velocity": 0.48031496062992124
        },
        {
          "duration": 0.023436000000003787,
          "durationTicks": 15,
          "midi": 70,
          "name": "A#4",
          "ticks": 144840,
          "time": 226.298016,
          "velocity": 0.44881889763779526
        },
        {
          "duration": 0.023436000000003787,
          "durationTicks": 15,
          "midi": 82,
          "name": "A#5",
          "ticks": 144840,
          "time": 226.298016,
          "velocity": 0.33070866141732286
        },
        {
          "duration": 0.023436000000003787,
          "durationTicks": 15,
          "midi": 35,
          "name": "B1",
          "ticks": 144960,
          "time": 226.485504,
          "velocity": 0.8110236220472441
        },
        {
          "duration": 0.023436000000003787,
          "durationTicks": 15,
          "midi": 44,
          "name": "G#2",
          "ticks": 144960,
          "time": 226.485504,
          "velocity": 0.7559055118110236
        },
        {
          "duration": 0.023436000000003787,
          "durationTicks": 15,
          "midi": 70,
          "name": "A#4",
          "ticks": 144960,
          "time": 226.485504,
          "velocity": 0.7322834645669292
        },
        {
          "duration": 0.023436000000003787,
          "durationTicks": 15,
          "midi": 82,
          "name": "A#5",
          "ticks": 144960,
          "time": 226.485504,
          "velocity": 0.33858267716535434
        },
        {
          "duration": 0.023436000000003787,
          "durationTicks": 15,
          "midi": 44,
          "name": "G#2",
          "ticks": 145080,
          "time": 226.672992,
          "velocity": 0.4094488188976378
        },
        {
          "duration": 0.023436000000003787,
          "durationTicks": 15,
          "midi": 70,
          "name": "A#4",
          "ticks": 145080,
          "time": 226.672992,
          "velocity": 0.4645669291338583
        },
        {
          "duration": 0.023436000000003787,
          "durationTicks": 15,
          "midi": 44,
          "name": "G#2",
          "ticks": 145200,
          "time": 226.86048,
          "velocity": 0.6299212598425197
        },
        {
          "duration": 0.023436000000003787,
          "durationTicks": 15,
          "midi": 70,
          "name": "A#4",
          "ticks": 145200,
          "time": 226.86048,
          "velocity": 0.5354330708661418
        },
        {
          "duration": 0.023436000000003787,
          "durationTicks": 15,
          "midi": 82,
          "name": "A#5",
          "ticks": 145200,
          "time": 226.86048,
          "velocity": 0.3858267716535433
        },
        {
          "duration": 0.023435999999975365,
          "durationTicks": 15,
          "midi": 44,
          "name": "G#2",
          "ticks": 145320,
          "time": 227.047968,
          "velocity": 0.48031496062992124
        },
        {
          "duration": 0.023435999999975365,
          "durationTicks": 15,
          "midi": 70,
          "name": "A#4",
          "ticks": 145320,
          "time": 227.047968,
          "velocity": 0.44881889763779526
        },
        {
          "duration": 0.023435999999975365,
          "durationTicks": 15,
          "midi": 82,
          "name": "A#5",
          "ticks": 145320,
          "time": 227.047968,
          "velocity": 0.41732283464566927
        },
        {
          "duration": 0.023435999999975365,
          "durationTicks": 15,
          "midi": 37,
          "name": "C#2",
          "ticks": 145440,
          "time": 227.235456,
          "velocity": 0.984251968503937
        },
        {
          "duration": 0.023435999999975365,
          "durationTicks": 15,
          "midi": 44,
          "name": "G#2",
          "ticks": 145440,
          "time": 227.235456,
          "velocity": 0.7716535433070866
        },
        {
          "duration": 0.023435999999975365,
          "durationTicks": 15,
          "midi": 70,
          "name": "A#4",
          "ticks": 145440,
          "time": 227.235456,
          "velocity": 0.7322834645669292
        },
        {
          "duration": 0.023435999999975365,
          "durationTicks": 15,
          "midi": 82,
          "name": "A#5",
          "ticks": 145440,
          "time": 227.235456,
          "velocity": 0.4645669291338583
        },
        {
          "duration": 0.023436000000003787,
          "durationTicks": 15,
          "midi": 44,
          "name": "G#2",
          "ticks": 145560,
          "time": 227.42294399999997,
          "velocity": 0.49606299212598426
        },
        {
          "duration": 0.023436000000003787,
          "durationTicks": 15,
          "midi": 70,
          "name": "A#4",
          "ticks": 145560,
          "time": 227.42294399999997,
          "velocity": 0.4645669291338583
        },
        {
          "duration": 0.023436000000003787,
          "durationTicks": 15,
          "midi": 82,
          "name": "A#5",
          "ticks": 145560,
          "time": 227.42294399999997,
          "velocity": 0.4015748031496063
        },
        {
          "duration": 0.023436000000003787,
          "durationTicks": 15,
          "midi": 45,
          "name": "A2",
          "ticks": 145680,
          "time": 227.61043199999997,
          "velocity": 0.8661417322834646
        },
        {
          "duration": 0.023436000000003787,
          "durationTicks": 15,
          "midi": 46,
          "name": "A#2",
          "ticks": 145680,
          "time": 227.61043199999997,
          "velocity": 0.6614173228346457
        },
        {
          "duration": 0.023436000000003787,
          "durationTicks": 15,
          "midi": 70,
          "name": "A#4",
          "ticks": 145680,
          "time": 227.61043199999997,
          "velocity": 0.5354330708661418
        },
        {
          "duration": 0.023436000000003787,
          "durationTicks": 15,
          "midi": 82,
          "name": "A#5",
          "ticks": 145680,
          "time": 227.61043199999997,
          "velocity": 0.41732283464566927
        },
        {
          "duration": 0.023436000000003787,
          "durationTicks": 15,
          "midi": 70,
          "name": "A#4",
          "ticks": 145800,
          "time": 227.79791999999998,
          "velocity": 0.44881889763779526
        },
        {
          "duration": 0.023436000000003787,
          "durationTicks": 15,
          "midi": 82,
          "name": "A#5",
          "ticks": 145800,
          "time": 227.79791999999998,
          "velocity": 0.33858267716535434
        },
        {
          "duration": 0.023436000000003787,
          "durationTicks": 15,
          "midi": 35,
          "name": "B1",
          "ticks": 145920,
          "time": 227.98540799999998,
          "velocity": 0.889763779527559
        },
        {
          "duration": 0.023436000000003787,
          "durationTicks": 15,
          "midi": 49,
          "name": "C#3",
          "ticks": 145920,
          "time": 227.98540799999998,
          "velocity": 0.6535433070866141
        },
        {
          "duration": 0.023436000000003787,
          "durationTicks": 15,
          "midi": 70,
          "name": "A#4",
          "ticks": 145920,
          "time": 227.98540799999998,
          "velocity": 0.7952755905511811
        },
        {
          "duration": 0.023436000000003787,
          "durationTicks": 15,
          "midi": 44,
          "name": "G#2",
          "ticks": 146040,
          "time": 228.17289599999998,
          "velocity": 0.47244094488188976
        },
        {
          "duration": 0.023436000000003787,
          "durationTicks": 15,
          "midi": 70,
          "name": "A#4",
          "ticks": 146040,
          "time": 228.17289599999998,
          "velocity": 0.5275590551181102
        },
        {
          "duration": 0.023436000000003787,
          "durationTicks": 15,
          "midi": 44,
          "name": "G#2",
          "ticks": 146160,
          "time": 228.36038399999998,
          "velocity": 0.6929133858267716
        },
        {
          "duration": 0.023436000000003787,
          "durationTicks": 15,
          "midi": 70,
          "name": "A#4",
          "ticks": 146160,
          "time": 228.36038399999998,
          "velocity": 0.5984251968503937
        },
        {
          "duration": 0.023436000000003787,
          "durationTicks": 15,
          "midi": 82,
          "name": "A#5",
          "ticks": 146160,
          "time": 228.36038399999998,
          "velocity": 0.4330708661417323
        },
        {
          "duration": 0.023436000000003787,
          "durationTicks": 15,
          "midi": 44,
          "name": "G#2",
          "ticks": 146280,
          "time": 228.54787199999998,
          "velocity": 0.5433070866141733
        },
        {
          "duration": 0.023436000000003787,
          "durationTicks": 15,
          "midi": 70,
          "name": "A#4",
          "ticks": 146280,
          "time": 228.54787199999998,
          "velocity": 0.5118110236220472
        },
        {
          "duration": 0.023436000000003787,
          "durationTicks": 15,
          "midi": 82,
          "name": "A#5",
          "ticks": 146280,
          "time": 228.54787199999998,
          "velocity": 0.44881889763779526
        },
        {
          "duration": 0.023436000000003787,
          "durationTicks": 15,
          "midi": 38,
          "name": "D2",
          "ticks": 146400,
          "time": 228.73536,
          "velocity": 0.9212598425196851
        },
        {
          "duration": 0.023436000000003787,
          "durationTicks": 15,
          "midi": 44,
          "name": "G#2",
          "ticks": 146400,
          "time": 228.73536,
          "velocity": 0.8346456692913385
        },
        {
          "duration": 0.023436000000003787,
          "durationTicks": 15,
          "midi": 70,
          "name": "A#4",
          "ticks": 146400,
          "time": 228.73536,
          "velocity": 0.7952755905511811
        },
        {
          "duration": 0.023436000000003787,
          "durationTicks": 15,
          "midi": 82,
          "name": "A#5",
          "ticks": 146400,
          "time": 228.73536,
          "velocity": 0.5590551181102362
        },
        {
          "duration": 0.023436000000003787,
          "durationTicks": 15,
          "midi": 44,
          "name": "G#2",
          "ticks": 146520,
          "time": 228.922848,
          "velocity": 0.5590551181102362
        },
        {
          "duration": 0.023436000000003787,
          "durationTicks": 15,
          "midi": 70,
          "name": "A#4",
          "ticks": 146520,
          "time": 228.922848,
          "velocity": 0.5275590551181102
        },
        {
          "duration": 0.023436000000003787,
          "durationTicks": 15,
          "midi": 35,
          "name": "B1",
          "ticks": 146640,
          "time": 229.110336,
          "velocity": 0.7480314960629921
        },
        {
          "duration": 0.023436000000003787,
          "durationTicks": 15,
          "midi": 44,
          "name": "G#2",
          "ticks": 146640,
          "time": 229.110336,
          "velocity": 0.6771653543307087
        },
        {
          "duration": 0.023436000000003787,
          "durationTicks": 15,
          "midi": 70,
          "name": "A#4",
          "ticks": 146640,
          "time": 229.110336,
          "velocity": 0.5984251968503937
        },
        {
          "duration": 0.023436000000003787,
          "durationTicks": 15,
          "midi": 35,
          "name": "B1",
          "ticks": 146760,
          "time": 229.297824,
          "velocity": 0.7480314960629921
        },
        {
          "duration": 0.023436000000003787,
          "durationTicks": 15,
          "midi": 44,
          "name": "G#2",
          "ticks": 146760,
          "time": 229.297824,
          "velocity": 0.5433070866141733
        },
        {
          "duration": 0.023436000000003787,
          "durationTicks": 15,
          "midi": 70,
          "name": "A#4",
          "ticks": 146760,
          "time": 229.297824,
          "velocity": 0.5118110236220472
        },
        {
          "duration": 0.023436000000003787,
          "durationTicks": 15,
          "midi": 82,
          "name": "A#5",
          "ticks": 146760,
          "time": 229.297824,
          "velocity": 0.3937007874015748
        },
        {
          "duration": 0.023436000000003787,
          "durationTicks": 15,
          "midi": 35,
          "name": "B1",
          "ticks": 146880,
          "time": 229.485312,
          "velocity": 0.8740157480314961
        },
        {
          "duration": 0.023436000000003787,
          "durationTicks": 15,
          "midi": 44,
          "name": "G#2",
          "ticks": 146880,
          "time": 229.485312,
          "velocity": 0.8188976377952756
        },
        {
          "duration": 0.023436000000003787,
          "durationTicks": 15,
          "midi": 70,
          "name": "A#4",
          "ticks": 146880,
          "time": 229.485312,
          "velocity": 0.7952755905511811
        },
        {
          "duration": 0.023436000000003787,
          "durationTicks": 15,
          "midi": 82,
          "name": "A#5",
          "ticks": 146880,
          "time": 229.485312,
          "velocity": 0.4015748031496063
        },
        {
          "duration": 0.023436000000003787,
          "durationTicks": 15,
          "midi": 44,
          "name": "G#2",
          "ticks": 147000,
          "time": 229.6728,
          "velocity": 0.47244094488188976
        },
        {
          "duration": 0.023436000000003787,
          "durationTicks": 15,
          "midi": 70,
          "name": "A#4",
          "ticks": 147000,
          "time": 229.6728,
          "velocity": 0.5275590551181102
        },
        {
          "duration": 0.023435999999975365,
          "durationTicks": 15,
          "midi": 44,
          "name": "G#2",
          "ticks": 147120,
          "time": 229.860288,
          "velocity": 0.6929133858267716
        },
        {
          "duration": 0.023435999999975365,
          "durationTicks": 15,
          "midi": 70,
          "name": "A#4",
          "ticks": 147120,
          "time": 229.860288,
          "velocity": 0.5984251968503937
        },
        {
          "duration": 0.023435999999975365,
          "durationTicks": 15,
          "midi": 82,
          "name": "A#5",
          "ticks": 147120,
          "time": 229.860288,
          "velocity": 0.44881889763779526
        },
        {
          "duration": 0.023435999999975365,
          "durationTicks": 15,
          "midi": 44,
          "name": "G#2",
          "ticks": 147240,
          "time": 230.047776,
          "velocity": 0.5433070866141733
        },
        {
          "duration": 0.023435999999975365,
          "durationTicks": 15,
          "midi": 70,
          "name": "A#4",
          "ticks": 147240,
          "time": 230.047776,
          "velocity": 0.5118110236220472
        },
        {
          "duration": 0.023435999999975365,
          "durationTicks": 15,
          "midi": 82,
          "name": "A#5",
          "ticks": 147240,
          "time": 230.047776,
          "velocity": 0.48031496062992124
        },
        {
          "duration": 0.023436000000003787,
          "durationTicks": 15,
          "midi": 38,
          "name": "D2",
          "ticks": 147360,
          "time": 230.23526399999997,
          "velocity": 0.905511811023622
        },
        {
          "duration": 0.023436000000003787,
          "durationTicks": 15,
          "midi": 44,
          "name": "G#2",
          "ticks": 147360,
          "time": 230.23526399999997,
          "velocity": 0.8346456692913385
        },
        {
          "duration": 0.023436000000003787,
          "durationTicks": 15,
          "midi": 82,
          "name": "A#5",
          "ticks": 147360,
          "time": 230.23526399999997,
          "velocity": 0.5275590551181102
        },
        {
          "duration": 0.023436000000003787,
          "durationTicks": 15,
          "midi": 44,
          "name": "G#2",
          "ticks": 147480,
          "time": 230.42275199999997,
          "velocity": 0.5590551181102362
        },
        {
          "duration": 0.023436000000003787,
          "durationTicks": 15,
          "midi": 70,
          "name": "A#4",
          "ticks": 147480,
          "time": 230.42275199999997,
          "velocity": 0.5275590551181102
        },
        {
          "duration": 0.023436000000003787,
          "durationTicks": 15,
          "midi": 46,
          "name": "A#2",
          "ticks": 147600,
          "time": 230.61023999999998,
          "velocity": 0.7244094488188977
        },
        {
          "duration": 0.023436000000003787,
          "durationTicks": 15,
          "midi": 70,
          "name": "A#4",
          "ticks": 147600,
          "time": 230.61023999999998,
          "velocity": 0.5984251968503937
        },
        {
          "duration": 0.023436000000003787,
          "durationTicks": 15,
          "midi": 82,
          "name": "A#5",
          "ticks": 147600,
          "time": 230.61023999999998,
          "velocity": 0.48031496062992124
        },
        {
          "duration": 0.023436000000003787,
          "durationTicks": 15,
          "midi": 70,
          "name": "A#4",
          "ticks": 147720,
          "time": 230.79772799999998,
          "velocity": 0.5118110236220472
        },
        {
          "duration": 0.023436000000003787,
          "durationTicks": 15,
          "midi": 82,
          "name": "A#5",
          "ticks": 147720,
          "time": 230.79772799999998,
          "velocity": 0.4015748031496063
        },
        {
          "duration": 0.023436000000003787,
          "durationTicks": 15,
          "midi": 35,
          "name": "B1",
          "ticks": 147840,
          "time": 230.98521599999998,
          "velocity": 0.8740157480314961
        },
        {
          "duration": 0.023436000000003787,
          "durationTicks": 15,
          "midi": 44,
          "name": "G#2",
          "ticks": 147840,
          "time": 230.98521599999998,
          "velocity": 0.8188976377952756
        },
        {
          "duration": 0.023436000000003787,
          "durationTicks": 15,
          "midi": 70,
          "name": "A#4",
          "ticks": 147840,
          "time": 230.98521599999998,
          "velocity": 0.7952755905511811
        },
        {
          "duration": 0.023436000000003787,
          "durationTicks": 15,
          "midi": 44,
          "name": "G#2",
          "ticks": 147960,
          "time": 231.17270399999998,
          "velocity": 0.47244094488188976
        },
        {
          "duration": 0.023436000000003787,
          "durationTicks": 15,
          "midi": 70,
          "name": "A#4",
          "ticks": 147960,
          "time": 231.17270399999998,
          "velocity": 0.5275590551181102
        },
        {
          "duration": 0.023436000000003787,
          "durationTicks": 15,
          "midi": 44,
          "name": "G#2",
          "ticks": 148080,
          "time": 231.36019199999998,
          "velocity": 0.6929133858267716
        },
        {
          "duration": 0.023436000000003787,
          "durationTicks": 15,
          "midi": 70,
          "name": "A#4",
          "ticks": 148080,
          "time": 231.36019199999998,
          "velocity": 0.5984251968503937
        },
        {
          "duration": 0.023436000000003787,
          "durationTicks": 15,
          "midi": 82,
          "name": "A#5",
          "ticks": 148080,
          "time": 231.36019199999998,
          "velocity": 0.4330708661417323
        },
        {
          "duration": 0.023436000000003787,
          "durationTicks": 15,
          "midi": 44,
          "name": "G#2",
          "ticks": 148200,
          "time": 231.54767999999999,
          "velocity": 0.5433070866141733
        },
        {
          "duration": 0.023436000000003787,
          "durationTicks": 15,
          "midi": 70,
          "name": "A#4",
          "ticks": 148200,
          "time": 231.54767999999999,
          "velocity": 0.5118110236220472
        },
        {
          "duration": 0.023436000000003787,
          "durationTicks": 15,
          "midi": 82,
          "name": "A#5",
          "ticks": 148200,
          "time": 231.54767999999999,
          "velocity": 0.44881889763779526
        },
        {
          "duration": 0.023436000000003787,
          "durationTicks": 15,
          "midi": 38,
          "name": "D2",
          "ticks": 148320,
          "time": 231.735168,
          "velocity": 0.9212598425196851
        },
        {
          "duration": 0.023436000000003787,
          "durationTicks": 15,
          "midi": 44,
          "name": "G#2",
          "ticks": 148320,
          "time": 231.735168,
          "velocity": 0.8346456692913385
        },
        {
          "duration": 0.023436000000003787,
          "durationTicks": 15,
          "midi": 70,
          "name": "A#4",
          "ticks": 148320,
          "time": 231.735168,
          "velocity": 0.7952755905511811
        },
        {
          "duration": 0.023436000000003787,
          "durationTicks": 15,
          "midi": 82,
          "name": "A#5",
          "ticks": 148320,
          "time": 231.735168,
          "velocity": 0.5590551181102362
        },
        {
          "duration": 0.023436000000003787,
          "durationTicks": 15,
          "midi": 44,
          "name": "G#2",
          "ticks": 148440,
          "time": 231.922656,
          "velocity": 0.5590551181102362
        },
        {
          "duration": 0.023436000000003787,
          "durationTicks": 15,
          "midi": 70,
          "name": "A#4",
          "ticks": 148440,
          "time": 231.922656,
          "velocity": 0.5275590551181102
        },
        {
          "duration": 0.023436000000003787,
          "durationTicks": 15,
          "midi": 35,
          "name": "B1",
          "ticks": 148560,
          "time": 232.110144,
          "velocity": 0.8582677165354331
        },
        {
          "duration": 0.023436000000003787,
          "durationTicks": 15,
          "midi": 44,
          "name": "G#2",
          "ticks": 148560,
          "time": 232.110144,
          "velocity": 0.6771653543307087
        },
        {
          "duration": 0.023436000000003787,
          "durationTicks": 15,
          "midi": 70,
          "name": "A#4",
          "ticks": 148560,
          "time": 232.110144,
          "velocity": 0.5984251968503937
        },
        {
          "duration": 0.023436000000003787,
          "durationTicks": 15,
          "midi": 44,
          "name": "G#2",
          "ticks": 148680,
          "time": 232.297632,
          "velocity": 0.5433070866141733
        },
        {
          "duration": 0.023436000000003787,
          "durationTicks": 15,
          "midi": 70,
          "name": "A#4",
          "ticks": 148680,
          "time": 232.297632,
          "velocity": 0.5118110236220472
        },
        {
          "duration": 0.023436000000003787,
          "durationTicks": 15,
          "midi": 82,
          "name": "A#5",
          "ticks": 148680,
          "time": 232.297632,
          "velocity": 0.3937007874015748
        },
        {
          "duration": 0.023436000000003787,
          "durationTicks": 15,
          "midi": 35,
          "name": "B1",
          "ticks": 148800,
          "time": 232.48512,
          "velocity": 0.8740157480314961
        },
        {
          "duration": 0.023436000000003787,
          "durationTicks": 15,
          "midi": 44,
          "name": "G#2",
          "ticks": 148800,
          "time": 232.48512,
          "velocity": 0.8188976377952756
        },
        {
          "duration": 0.023436000000003787,
          "durationTicks": 15,
          "midi": 70,
          "name": "A#4",
          "ticks": 148800,
          "time": 232.48512,
          "velocity": 0.7952755905511811
        },
        {
          "duration": 0.023436000000003787,
          "durationTicks": 15,
          "midi": 82,
          "name": "A#5",
          "ticks": 148800,
          "time": 232.48512,
          "velocity": 0.4015748031496063
        },
        {
          "duration": 0.023435999999975365,
          "durationTicks": 15,
          "midi": 44,
          "name": "G#2",
          "ticks": 148920,
          "time": 232.672608,
          "velocity": 0.47244094488188976
        },
        {
          "duration": 0.023435999999975365,
          "durationTicks": 15,
          "midi": 70,
          "name": "A#4",
          "ticks": 148920,
          "time": 232.672608,
          "velocity": 0.5275590551181102
        },
        {
          "duration": 0.023435999999975365,
          "durationTicks": 15,
          "midi": 44,
          "name": "G#2",
          "ticks": 149040,
          "time": 232.860096,
          "velocity": 0.6929133858267716
        },
        {
          "duration": 0.023435999999975365,
          "durationTicks": 15,
          "midi": 70,
          "name": "A#4",
          "ticks": 149040,
          "time": 232.860096,
          "velocity": 0.5984251968503937
        },
        {
          "duration": 0.023435999999975365,
          "durationTicks": 15,
          "midi": 82,
          "name": "A#5",
          "ticks": 149040,
          "time": 232.860096,
          "velocity": 0.44881889763779526
        },
        {
          "duration": 0.023436000000003787,
          "durationTicks": 15,
          "midi": 44,
          "name": "G#2",
          "ticks": 149160,
          "time": 233.04758399999997,
          "velocity": 0.5433070866141733
        },
        {
          "duration": 0.023436000000003787,
          "durationTicks": 15,
          "midi": 70,
          "name": "A#4",
          "ticks": 149160,
          "time": 233.04758399999997,
          "velocity": 0.5118110236220472
        },
        {
          "duration": 0.023436000000003787,
          "durationTicks": 15,
          "midi": 82,
          "name": "A#5",
          "ticks": 149160,
          "time": 233.04758399999997,
          "velocity": 0.48031496062992124
        },
        {
          "duration": 0.023436000000003787,
          "durationTicks": 15,
          "midi": 38,
          "name": "D2",
          "ticks": 149280,
          "time": 233.23507199999997,
          "velocity": 0.905511811023622
        },
        {
          "duration": 0.023436000000003787,
          "durationTicks": 15,
          "midi": 44,
          "name": "G#2",
          "ticks": 149280,
          "time": 233.23507199999997,
          "velocity": 0.8346456692913385
        },
        {
          "duration": 0.023436000000003787,
          "durationTicks": 15,
          "midi": 70,
          "name": "A#4",
          "ticks": 149280,
          "time": 233.23507199999997,
          "velocity": 0.7952755905511811
        },
        {
          "duration": 0.023436000000003787,
          "durationTicks": 15,
          "midi": 82,
          "name": "A#5",
          "ticks": 149280,
          "time": 233.23507199999997,
          "velocity": 0.5275590551181102
        },
        {
          "duration": 0.023436000000003787,
          "durationTicks": 15,
          "midi": 44,
          "name": "G#2",
          "ticks": 149400,
          "time": 233.42255999999998,
          "velocity": 0.5590551181102362
        },
        {
          "duration": 0.023436000000003787,
          "durationTicks": 15,
          "midi": 70,
          "name": "A#4",
          "ticks": 149400,
          "time": 233.42255999999998,
          "velocity": 0.5275590551181102
        },
        {
          "duration": 0.023436000000003787,
          "durationTicks": 15,
          "midi": 46,
          "name": "A#2",
          "ticks": 149520,
          "time": 233.61004799999998,
          "velocity": 0.7244094488188977
        },
        {
          "duration": 0.023436000000003787,
          "durationTicks": 15,
          "midi": 70,
          "name": "A#4",
          "ticks": 149520,
          "time": 233.61004799999998,
          "velocity": 0.5984251968503937
        },
        {
          "duration": 0.023436000000003787,
          "durationTicks": 15,
          "midi": 82,
          "name": "A#5",
          "ticks": 149520,
          "time": 233.61004799999998,
          "velocity": 0.48031496062992124
        },
        {
          "duration": 0.023436000000003787,
          "durationTicks": 15,
          "midi": 35,
          "name": "B1",
          "ticks": 149640,
          "time": 233.79753599999998,
          "velocity": 0.8740157480314961
        },
        {
          "duration": 0.023436000000003787,
          "durationTicks": 15,
          "midi": 70,
          "name": "A#4",
          "ticks": 149640,
          "time": 233.79753599999998,
          "velocity": 0.5118110236220472
        },
        {
          "duration": 0.023436000000003787,
          "durationTicks": 15,
          "midi": 82,
          "name": "A#5",
          "ticks": 149640,
          "time": 233.79753599999998,
          "velocity": 0.4015748031496063
        },
        {
          "duration": 0.023436000000003787,
          "durationTicks": 15,
          "midi": 35,
          "name": "B1",
          "ticks": 149760,
          "time": 233.98502399999998,
          "velocity": 0.8740157480314961
        },
        {
          "duration": 0.023436000000003787,
          "durationTicks": 15,
          "midi": 44,
          "name": "G#2",
          "ticks": 149760,
          "time": 233.98502399999998,
          "velocity": 0.8188976377952756
        },
        {
          "duration": 0.023436000000003787,
          "durationTicks": 15,
          "midi": 70,
          "name": "A#4",
          "ticks": 149760,
          "time": 233.98502399999998,
          "velocity": 0.7952755905511811
        },
        {
          "duration": 0.023436000000003787,
          "durationTicks": 15,
          "midi": 44,
          "name": "G#2",
          "ticks": 149880,
          "time": 234.17251199999998,
          "velocity": 0.47244094488188976
        },
        {
          "duration": 0.023436000000003787,
          "durationTicks": 15,
          "midi": 70,
          "name": "A#4",
          "ticks": 149880,
          "time": 234.17251199999998,
          "velocity": 0.5275590551181102
        },
        {
          "duration": 0.023436000000003787,
          "durationTicks": 15,
          "midi": 44,
          "name": "G#2",
          "ticks": 150000,
          "time": 234.35999999999999,
          "velocity": 0.6929133858267716
        },
        {
          "duration": 0.023436000000003787,
          "durationTicks": 15,
          "midi": 70,
          "name": "A#4",
          "ticks": 150000,
          "time": 234.35999999999999,
          "velocity": 0.5984251968503937
        },
        {
          "duration": 0.023436000000003787,
          "durationTicks": 15,
          "midi": 82,
          "name": "A#5",
          "ticks": 150000,
          "time": 234.35999999999999,
          "velocity": 0.4330708661417323
        },
        {
          "duration": 0.023436000000003787,
          "durationTicks": 15,
          "midi": 44,
          "name": "G#2",
          "ticks": 150120,
          "time": 234.547488,
          "velocity": 0.5433070866141733
        },
        {
          "duration": 0.023436000000003787,
          "durationTicks": 15,
          "midi": 70,
          "name": "A#4",
          "ticks": 150120,
          "time": 234.547488,
          "velocity": 0.5118110236220472
        },
        {
          "duration": 0.023436000000003787,
          "durationTicks": 15,
          "midi": 82,
          "name": "A#5",
          "ticks": 150120,
          "time": 234.547488,
          "velocity": 0.44881889763779526
        },
        {
          "duration": 0.023436000000003787,
          "durationTicks": 15,
          "midi": 38,
          "name": "D2",
          "ticks": 150240,
          "time": 234.734976,
          "velocity": 0.9212598425196851
        },
        {
          "duration": 0.023436000000003787,
          "durationTicks": 15,
          "midi": 44,
          "name": "G#2",
          "ticks": 150240,
          "time": 234.734976,
          "velocity": 0.8346456692913385
        },
        {
          "duration": 0.023436000000003787,
          "durationTicks": 15,
          "midi": 70,
          "name": "A#4",
          "ticks": 150240,
          "time": 234.734976,
          "velocity": 0.7952755905511811
        },
        {
          "duration": 0.023436000000003787,
          "durationTicks": 15,
          "midi": 82,
          "name": "A#5",
          "ticks": 150240,
          "time": 234.734976,
          "velocity": 0.5590551181102362
        },
        {
          "duration": 0.023436000000003787,
          "durationTicks": 15,
          "midi": 44,
          "name": "G#2",
          "ticks": 150360,
          "time": 234.922464,
          "velocity": 0.5590551181102362
        },
        {
          "duration": 0.023436000000003787,
          "durationTicks": 15,
          "midi": 70,
          "name": "A#4",
          "ticks": 150360,
          "time": 234.922464,
          "velocity": 0.5275590551181102
        },
        {
          "duration": 0.023436000000003787,
          "durationTicks": 15,
          "midi": 35,
          "name": "B1",
          "ticks": 150480,
          "time": 235.109952,
          "velocity": 0.7480314960629921
        },
        {
          "duration": 0.023436000000003787,
          "durationTicks": 15,
          "midi": 44,
          "name": "G#2",
          "ticks": 150480,
          "time": 235.109952,
          "velocity": 0.6771653543307087
        },
        {
          "duration": 0.023436000000003787,
          "durationTicks": 15,
          "midi": 70,
          "name": "A#4",
          "ticks": 150480,
          "time": 235.109952,
          "velocity": 0.5984251968503937
        },
        {
          "duration": 0.023436000000003787,
          "durationTicks": 15,
          "midi": 35,
          "name": "B1",
          "ticks": 150600,
          "time": 235.29744,
          "velocity": 0.7480314960629921
        },
        {
          "duration": 0.023436000000003787,
          "durationTicks": 15,
          "midi": 44,
          "name": "G#2",
          "ticks": 150600,
          "time": 235.29744,
          "velocity": 0.5433070866141733
        },
        {
          "duration": 0.023436000000003787,
          "durationTicks": 15,
          "midi": 70,
          "name": "A#4",
          "ticks": 150600,
          "time": 235.29744,
          "velocity": 0.5118110236220472
        },
        {
          "duration": 0.023436000000003787,
          "durationTicks": 15,
          "midi": 82,
          "name": "A#5",
          "ticks": 150600,
          "time": 235.29744,
          "velocity": 0.3937007874015748
        },
        {
          "duration": 0.023435999999975365,
          "durationTicks": 15,
          "midi": 35,
          "name": "B1",
          "ticks": 150720,
          "time": 235.484928,
          "velocity": 0.8740157480314961
        },
        {
          "duration": 0.023435999999975365,
          "durationTicks": 15,
          "midi": 44,
          "name": "G#2",
          "ticks": 150720,
          "time": 235.484928,
          "velocity": 0.8188976377952756
        },
        {
          "duration": 0.023435999999975365,
          "durationTicks": 15,
          "midi": 70,
          "name": "A#4",
          "ticks": 150720,
          "time": 235.484928,
          "velocity": 0.7952755905511811
        },
        {
          "duration": 0.023435999999975365,
          "durationTicks": 15,
          "midi": 82,
          "name": "A#5",
          "ticks": 150720,
          "time": 235.484928,
          "velocity": 0.4015748031496063
        },
        {
          "duration": 0.023435999999975365,
          "durationTicks": 15,
          "midi": 44,
          "name": "G#2",
          "ticks": 150840,
          "time": 235.672416,
          "velocity": 0.47244094488188976
        },
        {
          "duration": 0.023435999999975365,
          "durationTicks": 15,
          "midi": 70,
          "name": "A#4",
          "ticks": 150840,
          "time": 235.672416,
          "velocity": 0.5275590551181102
        },
        {
          "duration": 0.023436000000003787,
          "durationTicks": 15,
          "midi": 44,
          "name": "G#2",
          "ticks": 150960,
          "time": 235.85990399999997,
          "velocity": 0.6929133858267716
        },
        {
          "duration": 0.023436000000003787,
          "durationTicks": 15,
          "midi": 70,
          "name": "A#4",
          "ticks": 150960,
          "time": 235.85990399999997,
          "velocity": 0.5984251968503937
        },
        {
          "duration": 0.023436000000003787,
          "durationTicks": 15,
          "midi": 82,
          "name": "A#5",
          "ticks": 150960,
          "time": 235.85990399999997,
          "velocity": 0.44881889763779526
        },
        {
          "duration": 0.023436000000003787,
          "durationTicks": 15,
          "midi": 44,
          "name": "G#2",
          "ticks": 151080,
          "time": 236.04739199999997,
          "velocity": 0.5433070866141733
        },
        {
          "duration": 0.023436000000003787,
          "durationTicks": 15,
          "midi": 70,
          "name": "A#4",
          "ticks": 151080,
          "time": 236.04739199999997,
          "velocity": 0.5118110236220472
        },
        {
          "duration": 0.023436000000003787,
          "durationTicks": 15,
          "midi": 82,
          "name": "A#5",
          "ticks": 151080,
          "time": 236.04739199999997,
          "velocity": 0.48031496062992124
        },
        {
          "duration": 0.023436000000003787,
          "durationTicks": 15,
          "midi": 38,
          "name": "D2",
          "ticks": 151200,
          "time": 236.23487999999998,
          "velocity": 0.905511811023622
        },
        {
          "duration": 0.023436000000003787,
          "durationTicks": 15,
          "midi": 44,
          "name": "G#2",
          "ticks": 151200,
          "time": 236.23487999999998,
          "velocity": 0.8346456692913385
        },
        {
          "duration": 0.023436000000003787,
          "durationTicks": 15,
          "midi": 82,
          "name": "A#5",
          "ticks": 151200,
          "time": 236.23487999999998,
          "velocity": 0.5275590551181102
        },
        {
          "duration": 0.023436000000003787,
          "durationTicks": 15,
          "midi": 44,
          "name": "G#2",
          "ticks": 151320,
          "time": 236.42236799999998,
          "velocity": 0.5590551181102362
        },
        {
          "duration": 0.023436000000003787,
          "durationTicks": 15,
          "midi": 70,
          "name": "A#4",
          "ticks": 151320,
          "time": 236.42236799999998,
          "velocity": 0.5275590551181102
        },
        {
          "duration": 0.023436000000003787,
          "durationTicks": 15,
          "midi": 46,
          "name": "A#2",
          "ticks": 151440,
          "time": 236.60985599999998,
          "velocity": 0.7244094488188977
        },
        {
          "duration": 0.023436000000003787,
          "durationTicks": 15,
          "midi": 70,
          "name": "A#4",
          "ticks": 151440,
          "time": 236.60985599999998,
          "velocity": 0.5984251968503937
        },
        {
          "duration": 0.023436000000003787,
          "durationTicks": 15,
          "midi": 82,
          "name": "A#5",
          "ticks": 151440,
          "time": 236.60985599999998,
          "velocity": 0.48031496062992124
        },
        {
          "duration": 0.023436000000003787,
          "durationTicks": 15,
          "midi": 70,
          "name": "A#4",
          "ticks": 151560,
          "time": 236.79734399999998,
          "velocity": 0.5118110236220472
        },
        {
          "duration": 0.023436000000003787,
          "durationTicks": 15,
          "midi": 82,
          "name": "A#5",
          "ticks": 151560,
          "time": 236.79734399999998,
          "velocity": 0.4015748031496063
        },
        {
          "duration": 0.023436000000003787,
          "durationTicks": 15,
          "midi": 35,
          "name": "B1",
          "ticks": 151680,
          "time": 236.98483199999998,
          "velocity": 0.8740157480314961
        },
        {
          "duration": 0.023436000000003787,
          "durationTicks": 15,
          "midi": 44,
          "name": "G#2",
          "ticks": 151680,
          "time": 236.98483199999998,
          "velocity": 0.8188976377952756
        },
        {
          "duration": 0.023436000000003787,
          "durationTicks": 15,
          "midi": 70,
          "name": "A#4",
          "ticks": 151680,
          "time": 236.98483199999998,
          "velocity": 0.7952755905511811
        },
        {
          "duration": 0.023436000000003787,
          "durationTicks": 15,
          "midi": 44,
          "name": "G#2",
          "ticks": 151800,
          "time": 237.17231999999998,
          "velocity": 0.47244094488188976
        },
        {
          "duration": 0.023436000000003787,
          "durationTicks": 15,
          "midi": 70,
          "name": "A#4",
          "ticks": 151800,
          "time": 237.17231999999998,
          "velocity": 0.5275590551181102
        },
        {
          "duration": 0.023436000000003787,
          "durationTicks": 15,
          "midi": 44,
          "name": "G#2",
          "ticks": 151920,
          "time": 237.359808,
          "velocity": 0.6929133858267716
        },
        {
          "duration": 0.023436000000003787,
          "durationTicks": 15,
          "midi": 70,
          "name": "A#4",
          "ticks": 151920,
          "time": 237.359808,
          "velocity": 0.5984251968503937
        },
        {
          "duration": 0.023436000000003787,
          "durationTicks": 15,
          "midi": 82,
          "name": "A#5",
          "ticks": 151920,
          "time": 237.359808,
          "velocity": 0.4330708661417323
        },
        {
          "duration": 0.023436000000003787,
          "durationTicks": 15,
          "midi": 44,
          "name": "G#2",
          "ticks": 152040,
          "time": 237.547296,
          "velocity": 0.5433070866141733
        },
        {
          "duration": 0.023436000000003787,
          "durationTicks": 15,
          "midi": 70,
          "name": "A#4",
          "ticks": 152040,
          "time": 237.547296,
          "velocity": 0.5118110236220472
        },
        {
          "duration": 0.023436000000003787,
          "durationTicks": 15,
          "midi": 82,
          "name": "A#5",
          "ticks": 152040,
          "time": 237.547296,
          "velocity": 0.44881889763779526
        },
        {
          "duration": 0.023436000000003787,
          "durationTicks": 15,
          "midi": 38,
          "name": "D2",
          "ticks": 152160,
          "time": 237.734784,
          "velocity": 0.9212598425196851
        },
        {
          "duration": 0.023436000000003787,
          "durationTicks": 15,
          "midi": 44,
          "name": "G#2",
          "ticks": 152160,
          "time": 237.734784,
          "velocity": 0.8346456692913385
        },
        {
          "duration": 0.023436000000003787,
          "durationTicks": 15,
          "midi": 70,
          "name": "A#4",
          "ticks": 152160,
          "time": 237.734784,
          "velocity": 0.7952755905511811
        },
        {
          "duration": 0.023436000000003787,
          "durationTicks": 15,
          "midi": 82,
          "name": "A#5",
          "ticks": 152160,
          "time": 237.734784,
          "velocity": 0.5590551181102362
        },
        {
          "duration": 0.023436000000003787,
          "durationTicks": 15,
          "midi": 44,
          "name": "G#2",
          "ticks": 152280,
          "time": 237.922272,
          "velocity": 0.5590551181102362
        },
        {
          "duration": 0.023436000000003787,
          "durationTicks": 15,
          "midi": 70,
          "name": "A#4",
          "ticks": 152280,
          "time": 237.922272,
          "velocity": 0.5275590551181102
        },
        {
          "duration": 0.023436000000003787,
          "durationTicks": 15,
          "midi": 35,
          "name": "B1",
          "ticks": 152400,
          "time": 238.10976,
          "velocity": 0.8740157480314961
        },
        {
          "duration": 0.023436000000003787,
          "durationTicks": 15,
          "midi": 44,
          "name": "G#2",
          "ticks": 152400,
          "time": 238.10976,
          "velocity": 0.6771653543307087
        },
        {
          "duration": 0.023436000000003787,
          "durationTicks": 15,
          "midi": 70,
          "name": "A#4",
          "ticks": 152400,
          "time": 238.10976,
          "velocity": 0.5984251968503937
        },
        {
          "duration": 0.023435999999975365,
          "durationTicks": 15,
          "midi": 44,
          "name": "G#2",
          "ticks": 152520,
          "time": 238.297248,
          "velocity": 0.5433070866141733
        },
        {
          "duration": 0.023435999999975365,
          "durationTicks": 15,
          "midi": 70,
          "name": "A#4",
          "ticks": 152520,
          "time": 238.297248,
          "velocity": 0.5118110236220472
        },
        {
          "duration": 0.023435999999975365,
          "durationTicks": 15,
          "midi": 82,
          "name": "A#5",
          "ticks": 152520,
          "time": 238.297248,
          "velocity": 0.3937007874015748
        },
        {
          "duration": 0.023435999999975365,
          "durationTicks": 15,
          "midi": 35,
          "name": "B1",
          "ticks": 152640,
          "time": 238.484736,
          "velocity": 0.8740157480314961
        },
        {
          "duration": 0.023435999999975365,
          "durationTicks": 15,
          "midi": 44,
          "name": "G#2",
          "ticks": 152640,
          "time": 238.484736,
          "velocity": 0.8188976377952756
        },
        {
          "duration": 0.023435999999975365,
          "durationTicks": 15,
          "midi": 70,
          "name": "A#4",
          "ticks": 152640,
          "time": 238.484736,
          "velocity": 0.7952755905511811
        },
        {
          "duration": 0.023435999999975365,
          "durationTicks": 15,
          "midi": 82,
          "name": "A#5",
          "ticks": 152640,
          "time": 238.484736,
          "velocity": 0.4015748031496063
        },
        {
          "duration": 0.023436000000003787,
          "durationTicks": 15,
          "midi": 44,
          "name": "G#2",
          "ticks": 152760,
          "time": 238.67222399999997,
          "velocity": 0.47244094488188976
        },
        {
          "duration": 0.023436000000003787,
          "durationTicks": 15,
          "midi": 70,
          "name": "A#4",
          "ticks": 152760,
          "time": 238.67222399999997,
          "velocity": 0.5275590551181102
        },
        {
          "duration": 0.023436000000003787,
          "durationTicks": 15,
          "midi": 44,
          "name": "G#2",
          "ticks": 152880,
          "time": 238.85971199999997,
          "velocity": 0.6929133858267716
        },
        {
          "duration": 0.023436000000003787,
          "durationTicks": 15,
          "midi": 70,
          "name": "A#4",
          "ticks": 152880,
          "time": 238.85971199999997,
          "velocity": 0.5984251968503937
        },
        {
          "duration": 0.023436000000003787,
          "durationTicks": 15,
          "midi": 82,
          "name": "A#5",
          "ticks": 152880,
          "time": 238.85971199999997,
          "velocity": 0.44881889763779526
        },
        {
          "duration": 0.023436000000003787,
          "durationTicks": 15,
          "midi": 44,
          "name": "G#2",
          "ticks": 153000,
          "time": 239.04719999999998,
          "velocity": 0.5433070866141733
        },
        {
          "duration": 0.023436000000003787,
          "durationTicks": 15,
          "midi": 70,
          "name": "A#4",
          "ticks": 153000,
          "time": 239.04719999999998,
          "velocity": 0.5118110236220472
        },
        {
          "duration": 0.023436000000003787,
          "durationTicks": 15,
          "midi": 82,
          "name": "A#5",
          "ticks": 153000,
          "time": 239.04719999999998,
          "velocity": 0.48031496062992124
        },
        {
          "duration": 0.023436000000003787,
          "durationTicks": 15,
          "midi": 38,
          "name": "D2",
          "ticks": 153120,
          "time": 239.23468799999998,
          "velocity": 0.905511811023622
        },
        {
          "duration": 0.023436000000003787,
          "durationTicks": 15,
          "midi": 44,
          "name": "G#2",
          "ticks": 153120,
          "time": 239.23468799999998,
          "velocity": 0.8346456692913385
        },
        {
          "duration": 0.023436000000003787,
          "durationTicks": 15,
          "midi": 70,
          "name": "A#4",
          "ticks": 153120,
          "time": 239.23468799999998,
          "velocity": 0.7952755905511811
        },
        {
          "duration": 0.023436000000003787,
          "durationTicks": 15,
          "midi": 82,
          "name": "A#5",
          "ticks": 153120,
          "time": 239.23468799999998,
          "velocity": 0.5275590551181102
        },
        {
          "duration": 0.023436000000003787,
          "durationTicks": 15,
          "midi": 44,
          "name": "G#2",
          "ticks": 153240,
          "time": 239.42217599999998,
          "velocity": 0.5590551181102362
        },
        {
          "duration": 0.023436000000003787,
          "durationTicks": 15,
          "midi": 70,
          "name": "A#4",
          "ticks": 153240,
          "time": 239.42217599999998,
          "velocity": 0.5275590551181102
        },
        {
          "duration": 0.023436000000003787,
          "durationTicks": 15,
          "midi": 46,
          "name": "A#2",
          "ticks": 153360,
          "time": 239.60966399999998,
          "velocity": 0.7244094488188977
        },
        {
          "duration": 0.023436000000003787,
          "durationTicks": 15,
          "midi": 70,
          "name": "A#4",
          "ticks": 153360,
          "time": 239.60966399999998,
          "velocity": 0.5984251968503937
        },
        {
          "duration": 0.023436000000003787,
          "durationTicks": 15,
          "midi": 82,
          "name": "A#5",
          "ticks": 153360,
          "time": 239.60966399999998,
          "velocity": 0.48031496062992124
        },
        {
          "duration": 0.023436000000003787,
          "durationTicks": 15,
          "midi": 35,
          "name": "B1",
          "ticks": 153480,
          "time": 239.79715199999998,
          "velocity": 0.8740157480314961
        },
        {
          "duration": 0.023436000000003787,
          "durationTicks": 15,
          "midi": 70,
          "name": "A#4",
          "ticks": 153480,
          "time": 239.79715199999998,
          "velocity": 0.5118110236220472
        },
        {
          "duration": 0.023436000000003787,
          "durationTicks": 15,
          "midi": 82,
          "name": "A#5",
          "ticks": 153480,
          "time": 239.79715199999998,
          "velocity": 0.4015748031496063
        },
        {
          "duration": 0.023436000000003787,
          "durationTicks": 15,
          "midi": 35,
          "name": "B1",
          "ticks": 153600,
          "time": 239.98463999999998,
          "velocity": 0.889763779527559
        },
        {
          "duration": 0.023436000000003787,
          "durationTicks": 15,
          "midi": 44,
          "name": "G#2",
          "ticks": 153600,
          "time": 239.98463999999998,
          "velocity": 0.8188976377952756
        },
        {
          "duration": 0.023436000000003787,
          "durationTicks": 15,
          "midi": 49,
          "name": "C#3",
          "ticks": 153600,
          "time": 239.98463999999998,
          "velocity": 0.47244094488188976
        },
        {
          "duration": 0.023436000000003787,
          "durationTicks": 15,
          "midi": 59,
          "name": "B3",
          "ticks": 153600,
          "time": 239.98463999999998,
          "velocity": 0.952755905511811
        },
        {
          "duration": 0.023436000000003787,
          "durationTicks": 15,
          "midi": 70,
          "name": "A#4",
          "ticks": 153600,
          "time": 239.98463999999998,
          "velocity": 0.7952755905511811
        },
        {
          "duration": 0.023436000000003787,
          "durationTicks": 15,
          "midi": 44,
          "name": "G#2",
          "ticks": 153720,
          "time": 240.172128,
          "velocity": 0.47244094488188976
        },
        {
          "duration": 0.023436000000003787,
          "durationTicks": 15,
          "midi": 70,
          "name": "A#4",
          "ticks": 153720,
          "time": 240.172128,
          "velocity": 0.5275590551181102
        },
        {
          "duration": 0.023436000000003787,
          "durationTicks": 15,
          "midi": 44,
          "name": "G#2",
          "ticks": 153840,
          "time": 240.359616,
          "velocity": 0.6929133858267716
        },
        {
          "duration": 0.023436000000003787,
          "durationTicks": 15,
          "midi": 70,
          "name": "A#4",
          "ticks": 153840,
          "time": 240.359616,
          "velocity": 0.5984251968503937
        },
        {
          "duration": 0.023436000000003787,
          "durationTicks": 15,
          "midi": 82,
          "name": "A#5",
          "ticks": 153840,
          "time": 240.359616,
          "velocity": 0.4330708661417323
        },
        {
          "duration": 0.023436000000003787,
          "durationTicks": 15,
          "midi": 44,
          "name": "G#2",
          "ticks": 153960,
          "time": 240.547104,
          "velocity": 0.5433070866141733
        },
        {
          "duration": 0.023436000000003787,
          "durationTicks": 15,
          "midi": 70,
          "name": "A#4",
          "ticks": 153960,
          "time": 240.547104,
          "velocity": 0.5118110236220472
        },
        {
          "duration": 0.023436000000003787,
          "durationTicks": 15,
          "midi": 82,
          "name": "A#5",
          "ticks": 153960,
          "time": 240.547104,
          "velocity": 0.44881889763779526
        },
        {
          "duration": 0.023436000000003787,
          "durationTicks": 15,
          "midi": 38,
          "name": "D2",
          "ticks": 154080,
          "time": 240.734592,
          "velocity": 0.9212598425196851
        },
        {
          "duration": 0.023436000000003787,
          "durationTicks": 15,
          "midi": 44,
          "name": "G#2",
          "ticks": 154080,
          "time": 240.734592,
          "velocity": 0.8346456692913385
        },
        {
          "duration": 0.023436000000003787,
          "durationTicks": 15,
          "midi": 70,
          "name": "A#4",
          "ticks": 154080,
          "time": 240.734592,
          "velocity": 0.7952755905511811
        },
        {
          "duration": 0.023436000000003787,
          "durationTicks": 15,
          "midi": 82,
          "name": "A#5",
          "ticks": 154080,
          "time": 240.734592,
          "velocity": 0.5590551181102362
        },
        {
          "duration": 0.023436000000003787,
          "durationTicks": 15,
          "midi": 44,
          "name": "G#2",
          "ticks": 154200,
          "time": 240.92208,
          "velocity": 0.5590551181102362
        },
        {
          "duration": 0.023436000000003787,
          "durationTicks": 15,
          "midi": 70,
          "name": "A#4",
          "ticks": 154200,
          "time": 240.92208,
          "velocity": 0.5275590551181102
        },
        {
          "duration": 0.023435999999975365,
          "durationTicks": 15,
          "midi": 35,
          "name": "B1",
          "ticks": 154320,
          "time": 241.109568,
          "velocity": 0.7480314960629921
        },
        {
          "duration": 0.023435999999975365,
          "durationTicks": 15,
          "midi": 44,
          "name": "G#2",
          "ticks": 154320,
          "time": 241.109568,
          "velocity": 0.6771653543307087
        },
        {
          "duration": 0.023435999999975365,
          "durationTicks": 15,
          "midi": 70,
          "name": "A#4",
          "ticks": 154320,
          "time": 241.109568,
          "velocity": 0.5984251968503937
        },
        {
          "duration": 0.023435999999975365,
          "durationTicks": 15,
          "midi": 35,
          "name": "B1",
          "ticks": 154440,
          "time": 241.297056,
          "velocity": 0.7480314960629921
        },
        {
          "duration": 0.023435999999975365,
          "durationTicks": 15,
          "midi": 44,
          "name": "G#2",
          "ticks": 154440,
          "time": 241.297056,
          "velocity": 0.5433070866141733
        },
        {
          "duration": 0.023435999999975365,
          "durationTicks": 15,
          "midi": 70,
          "name": "A#4",
          "ticks": 154440,
          "time": 241.297056,
          "velocity": 0.5118110236220472
        },
        {
          "duration": 0.023435999999975365,
          "durationTicks": 15,
          "midi": 82,
          "name": "A#5",
          "ticks": 154440,
          "time": 241.297056,
          "velocity": 0.3937007874015748
        },
        {
          "duration": 0.023436000000003787,
          "durationTicks": 15,
          "midi": 35,
          "name": "B1",
          "ticks": 154560,
          "time": 241.48454399999997,
          "velocity": 0.8740157480314961
        },
        {
          "duration": 0.023436000000003787,
          "durationTicks": 15,
          "midi": 44,
          "name": "G#2",
          "ticks": 154560,
          "time": 241.48454399999997,
          "velocity": 0.8188976377952756
        },
        {
          "duration": 0.023436000000003787,
          "durationTicks": 15,
          "midi": 70,
          "name": "A#4",
          "ticks": 154560,
          "time": 241.48454399999997,
          "velocity": 0.7952755905511811
        },
        {
          "duration": 0.023436000000003787,
          "durationTicks": 15,
          "midi": 82,
          "name": "A#5",
          "ticks": 154560,
          "time": 241.48454399999997,
          "velocity": 0.4015748031496063
        },
        {
          "duration": 0.023436000000003787,
          "durationTicks": 15,
          "midi": 44,
          "name": "G#2",
          "ticks": 154680,
          "time": 241.67203199999997,
          "velocity": 0.47244094488188976
        },
        {
          "duration": 0.023436000000003787,
          "durationTicks": 15,
          "midi": 70,
          "name": "A#4",
          "ticks": 154680,
          "time": 241.67203199999997,
          "velocity": 0.5275590551181102
        },
        {
          "duration": 0.023436000000003787,
          "durationTicks": 15,
          "midi": 44,
          "name": "G#2",
          "ticks": 154800,
          "time": 241.85951999999997,
          "velocity": 0.6929133858267716
        },
        {
          "duration": 0.023436000000003787,
          "durationTicks": 15,
          "midi": 70,
          "name": "A#4",
          "ticks": 154800,
          "time": 241.85951999999997,
          "velocity": 0.5984251968503937
        },
        {
          "duration": 0.023436000000003787,
          "durationTicks": 15,
          "midi": 82,
          "name": "A#5",
          "ticks": 154800,
          "time": 241.85951999999997,
          "velocity": 0.44881889763779526
        },
        {
          "duration": 0.023436000000003787,
          "durationTicks": 15,
          "midi": 44,
          "name": "G#2",
          "ticks": 154920,
          "time": 242.04700799999998,
          "velocity": 0.5433070866141733
        },
        {
          "duration": 0.023436000000003787,
          "durationTicks": 15,
          "midi": 70,
          "name": "A#4",
          "ticks": 154920,
          "time": 242.04700799999998,
          "velocity": 0.5118110236220472
        },
        {
          "duration": 0.023436000000003787,
          "durationTicks": 15,
          "midi": 82,
          "name": "A#5",
          "ticks": 154920,
          "time": 242.04700799999998,
          "velocity": 0.48031496062992124
        },
        {
          "duration": 0.023436000000003787,
          "durationTicks": 15,
          "midi": 38,
          "name": "D2",
          "ticks": 155040,
          "time": 242.23449599999998,
          "velocity": 0.905511811023622
        },
        {
          "duration": 0.023436000000003787,
          "durationTicks": 15,
          "midi": 44,
          "name": "G#2",
          "ticks": 155040,
          "time": 242.23449599999998,
          "velocity": 0.8346456692913385
        },
        {
          "duration": 0.023436000000003787,
          "durationTicks": 15,
          "midi": 70,
          "name": "A#4",
          "ticks": 155040,
          "time": 242.23449599999998,
          "velocity": 0.7952755905511811
        },
        {
          "duration": 0.023436000000003787,
          "durationTicks": 15,
          "midi": 82,
          "name": "A#5",
          "ticks": 155040,
          "time": 242.23449599999998,
          "velocity": 0.5275590551181102
        },
        {
          "duration": 0.023436000000003787,
          "durationTicks": 15,
          "midi": 44,
          "name": "G#2",
          "ticks": 155160,
          "time": 242.42198399999998,
          "velocity": 0.5590551181102362
        },
        {
          "duration": 0.023436000000003787,
          "durationTicks": 15,
          "midi": 70,
          "name": "A#4",
          "ticks": 155160,
          "time": 242.42198399999998,
          "velocity": 0.5275590551181102
        },
        {
          "duration": 0.023436000000003787,
          "durationTicks": 15,
          "midi": 46,
          "name": "A#2",
          "ticks": 155280,
          "time": 242.60947199999998,
          "velocity": 0.7244094488188977
        },
        {
          "duration": 0.023436000000003787,
          "durationTicks": 15,
          "midi": 70,
          "name": "A#4",
          "ticks": 155280,
          "time": 242.60947199999998,
          "velocity": 0.5984251968503937
        },
        {
          "duration": 0.023436000000003787,
          "durationTicks": 15,
          "midi": 82,
          "name": "A#5",
          "ticks": 155280,
          "time": 242.60947199999998,
          "velocity": 0.48031496062992124
        },
        {
          "duration": 0.023436000000003787,
          "durationTicks": 15,
          "midi": 70,
          "name": "A#4",
          "ticks": 155400,
          "time": 242.79695999999998,
          "velocity": 0.5118110236220472
        },
        {
          "duration": 0.023436000000003787,
          "durationTicks": 15,
          "midi": 82,
          "name": "A#5",
          "ticks": 155400,
          "time": 242.79695999999998,
          "velocity": 0.4015748031496063
        },
        {
          "duration": 0.023436000000003787,
          "durationTicks": 15,
          "midi": 35,
          "name": "B1",
          "ticks": 155520,
          "time": 242.984448,
          "velocity": 0.9291338582677166
        },
        {
          "duration": 0.023436000000003787,
          "durationTicks": 15,
          "midi": 44,
          "name": "G#2",
          "ticks": 155520,
          "time": 242.984448,
          "velocity": 0.8188976377952756
        },
        {
          "duration": 0.023436000000003787,
          "durationTicks": 15,
          "midi": 70,
          "name": "A#4",
          "ticks": 155520,
          "time": 242.984448,
          "velocity": 0.7952755905511811
        },
        {
          "duration": 0.023436000000003787,
          "durationTicks": 15,
          "midi": 44,
          "name": "G#2",
          "ticks": 155640,
          "time": 243.171936,
          "velocity": 0.47244094488188976
        },
        {
          "duration": 0.023436000000003787,
          "durationTicks": 15,
          "midi": 70,
          "name": "A#4",
          "ticks": 155640,
          "time": 243.171936,
          "velocity": 0.5275590551181102
        },
        {
          "duration": 0.023436000000003787,
          "durationTicks": 15,
          "midi": 44,
          "name": "G#2",
          "ticks": 155760,
          "time": 243.359424,
          "velocity": 0.6929133858267716
        },
        {
          "duration": 0.023436000000003787,
          "durationTicks": 15,
          "midi": 70,
          "name": "A#4",
          "ticks": 155760,
          "time": 243.359424,
          "velocity": 0.5984251968503937
        },
        {
          "duration": 0.023436000000003787,
          "durationTicks": 15,
          "midi": 82,
          "name": "A#5",
          "ticks": 155760,
          "time": 243.359424,
          "velocity": 0.4330708661417323
        },
        {
          "duration": 0.023436000000003787,
          "durationTicks": 15,
          "midi": 44,
          "name": "G#2",
          "ticks": 155880,
          "time": 243.546912,
          "velocity": 0.5433070866141733
        },
        {
          "duration": 0.023436000000003787,
          "durationTicks": 15,
          "midi": 70,
          "name": "A#4",
          "ticks": 155880,
          "time": 243.546912,
          "velocity": 0.5118110236220472
        },
        {
          "duration": 0.023436000000003787,
          "durationTicks": 15,
          "midi": 82,
          "name": "A#5",
          "ticks": 155880,
          "time": 243.546912,
          "velocity": 0.44881889763779526
        },
        {
          "duration": 0.023436000000003787,
          "durationTicks": 15,
          "midi": 38,
          "name": "D2",
          "ticks": 156000,
          "time": 243.7344,
          "velocity": 0.9212598425196851
        },
        {
          "duration": 0.023436000000003787,
          "durationTicks": 15,
          "midi": 44,
          "name": "G#2",
          "ticks": 156000,
          "time": 243.7344,
          "velocity": 0.8346456692913385
        },
        {
          "duration": 0.023436000000003787,
          "durationTicks": 15,
          "midi": 70,
          "name": "A#4",
          "ticks": 156000,
          "time": 243.7344,
          "velocity": 0.7952755905511811
        },
        {
          "duration": 0.023436000000003787,
          "durationTicks": 15,
          "midi": 82,
          "name": "A#5",
          "ticks": 156000,
          "time": 243.7344,
          "velocity": 0.5590551181102362
        },
        {
          "duration": 0.023435999999975365,
          "durationTicks": 15,
          "midi": 44,
          "name": "G#2",
          "ticks": 156120,
          "time": 243.921888,
          "velocity": 0.5590551181102362
        },
        {
          "duration": 0.023435999999975365,
          "durationTicks": 15,
          "midi": 70,
          "name": "A#4",
          "ticks": 156120,
          "time": 243.921888,
          "velocity": 0.5275590551181102
        },
        {
          "duration": 0.023435999999975365,
          "durationTicks": 15,
          "midi": 35,
          "name": "B1",
          "ticks": 156240,
          "time": 244.109376,
          "velocity": 0.8818897637795275
        },
        {
          "duration": 0.023435999999975365,
          "durationTicks": 15,
          "midi": 44,
          "name": "G#2",
          "ticks": 156240,
          "time": 244.109376,
          "velocity": 0.6771653543307087
        },
        {
          "duration": 0.023435999999975365,
          "durationTicks": 15,
          "midi": 70,
          "name": "A#4",
          "ticks": 156240,
          "time": 244.109376,
          "velocity": 0.5984251968503937
        },
        {
          "duration": 0.023436000000003787,
          "durationTicks": 15,
          "midi": 44,
          "name": "G#2",
          "ticks": 156360,
          "time": 244.29686399999997,
          "velocity": 0.5433070866141733
        },
        {
          "duration": 0.023436000000003787,
          "durationTicks": 15,
          "midi": 70,
          "name": "A#4",
          "ticks": 156360,
          "time": 244.29686399999997,
          "velocity": 0.5118110236220472
        },
        {
          "duration": 0.023436000000003787,
          "durationTicks": 15,
          "midi": 82,
          "name": "A#5",
          "ticks": 156360,
          "time": 244.29686399999997,
          "velocity": 0.3937007874015748
        },
        {
          "duration": 0.023436000000003787,
          "durationTicks": 15,
          "midi": 35,
          "name": "B1",
          "ticks": 156480,
          "time": 244.48435199999997,
          "velocity": 0.905511811023622
        },
        {
          "duration": 0.023436000000003787,
          "durationTicks": 15,
          "midi": 44,
          "name": "G#2",
          "ticks": 156480,
          "time": 244.48435199999997,
          "velocity": 0.8188976377952756
        },
        {
          "duration": 0.023436000000003787,
          "durationTicks": 15,
          "midi": 70,
          "name": "A#4",
          "ticks": 156480,
          "time": 244.48435199999997,
          "velocity": 0.7952755905511811
        },
        {
          "duration": 0.023436000000003787,
          "durationTicks": 15,
          "midi": 82,
          "name": "A#5",
          "ticks": 156480,
          "time": 244.48435199999997,
          "velocity": 0.4015748031496063
        },
        {
          "duration": 0.023436000000003787,
          "durationTicks": 15,
          "midi": 44,
          "name": "G#2",
          "ticks": 156600,
          "time": 244.67183999999997,
          "velocity": 0.47244094488188976
        },
        {
          "duration": 0.023436000000003787,
          "durationTicks": 15,
          "midi": 70,
          "name": "A#4",
          "ticks": 156600,
          "time": 244.67183999999997,
          "velocity": 0.5275590551181102
        },
        {
          "duration": 0.023436000000003787,
          "durationTicks": 15,
          "midi": 44,
          "name": "G#2",
          "ticks": 156720,
          "time": 244.85932799999998,
          "velocity": 0.6929133858267716
        },
        {
          "duration": 0.023436000000003787,
          "durationTicks": 15,
          "midi": 70,
          "name": "A#4",
          "ticks": 156720,
          "time": 244.85932799999998,
          "velocity": 0.5984251968503937
        },
        {
          "duration": 0.023436000000003787,
          "durationTicks": 15,
          "midi": 82,
          "name": "A#5",
          "ticks": 156720,
          "time": 244.85932799999998,
          "velocity": 0.44881889763779526
        },
        {
          "duration": 0.023436000000003787,
          "durationTicks": 15,
          "midi": 44,
          "name": "G#2",
          "ticks": 156840,
          "time": 245.04681599999998,
          "velocity": 0.5433070866141733
        },
        {
          "duration": 0.023436000000003787,
          "durationTicks": 15,
          "midi": 70,
          "name": "A#4",
          "ticks": 156840,
          "time": 245.04681599999998,
          "velocity": 0.5118110236220472
        },
        {
          "duration": 0.023436000000003787,
          "durationTicks": 15,
          "midi": 82,
          "name": "A#5",
          "ticks": 156840,
          "time": 245.04681599999998,
          "velocity": 0.48031496062992124
        },
        {
          "duration": 0.023436000000003787,
          "durationTicks": 15,
          "midi": 38,
          "name": "D2",
          "ticks": 156960,
          "time": 245.23430399999998,
          "velocity": 0.905511811023622
        },
        {
          "duration": 0.023436000000003787,
          "durationTicks": 15,
          "midi": 44,
          "name": "G#2",
          "ticks": 156960,
          "time": 245.23430399999998,
          "velocity": 0.8346456692913385
        },
        {
          "duration": 0.023436000000003787,
          "durationTicks": 15,
          "midi": 70,
          "name": "A#4",
          "ticks": 156960,
          "time": 245.23430399999998,
          "velocity": 0.7952755905511811
        },
        {
          "duration": 0.023436000000003787,
          "durationTicks": 15,
          "midi": 82,
          "name": "A#5",
          "ticks": 156960,
          "time": 245.23430399999998,
          "velocity": 0.5275590551181102
        },
        {
          "duration": 0.023436000000003787,
          "durationTicks": 15,
          "midi": 44,
          "name": "G#2",
          "ticks": 157080,
          "time": 245.42179199999998,
          "velocity": 0.5590551181102362
        },
        {
          "duration": 0.023436000000003787,
          "durationTicks": 15,
          "midi": 70,
          "name": "A#4",
          "ticks": 157080,
          "time": 245.42179199999998,
          "velocity": 0.5275590551181102
        },
        {
          "duration": 0.023436000000003787,
          "durationTicks": 15,
          "midi": 46,
          "name": "A#2",
          "ticks": 157200,
          "time": 245.60927999999998,
          "velocity": 0.7244094488188977
        },
        {
          "duration": 0.023436000000003787,
          "durationTicks": 15,
          "midi": 70,
          "name": "A#4",
          "ticks": 157200,
          "time": 245.60927999999998,
          "velocity": 0.5984251968503937
        },
        {
          "duration": 0.023436000000003787,
          "durationTicks": 15,
          "midi": 82,
          "name": "A#5",
          "ticks": 157200,
          "time": 245.60927999999998,
          "velocity": 0.48031496062992124
        },
        {
          "duration": 0.023436000000003787,
          "durationTicks": 15,
          "midi": 35,
          "name": "B1",
          "ticks": 157320,
          "time": 245.796768,
          "velocity": 0.8740157480314961
        },
        {
          "duration": 0.023436000000003787,
          "durationTicks": 15,
          "midi": 70,
          "name": "A#4",
          "ticks": 157320,
          "time": 245.796768,
          "velocity": 0.5118110236220472
        },
        {
          "duration": 0.023436000000003787,
          "durationTicks": 15,
          "midi": 82,
          "name": "A#5",
          "ticks": 157320,
          "time": 245.796768,
          "velocity": 0.4015748031496063
        },
        {
          "duration": 0.023436000000003787,
          "durationTicks": 15,
          "midi": 35,
          "name": "B1",
          "ticks": 157440,
          "time": 245.984256,
          "velocity": 0.8740157480314961
        },
        {
          "duration": 0.023436000000003787,
          "durationTicks": 15,
          "midi": 44,
          "name": "G#2",
          "ticks": 157440,
          "time": 245.984256,
          "velocity": 0.7007874015748031
        },
        {
          "duration": 0.023436000000003787,
          "durationTicks": 15,
          "midi": 70,
          "name": "A#4",
          "ticks": 157440,
          "time": 245.984256,
          "velocity": 0.7952755905511811
        },
        {
          "duration": 0.023436000000003787,
          "durationTicks": 15,
          "midi": 44,
          "name": "G#2",
          "ticks": 157560,
          "time": 246.171744,
          "velocity": 0.3543307086614173
        },
        {
          "duration": 0.023436000000003787,
          "durationTicks": 15,
          "midi": 70,
          "name": "A#4",
          "ticks": 157560,
          "time": 246.171744,
          "velocity": 0.5275590551181102
        },
        {
          "duration": 0.023436000000003787,
          "durationTicks": 15,
          "midi": 44,
          "name": "G#2",
          "ticks": 157680,
          "time": 246.359232,
          "velocity": 0.5748031496062992
        },
        {
          "duration": 0.023436000000003787,
          "durationTicks": 15,
          "midi": 70,
          "name": "A#4",
          "ticks": 157680,
          "time": 246.359232,
          "velocity": 0.5984251968503937
        },
        {
          "duration": 0.023436000000003787,
          "durationTicks": 15,
          "midi": 82,
          "name": "A#5",
          "ticks": 157680,
          "time": 246.359232,
          "velocity": 0.4330708661417323
        },
        {
          "duration": 0.023436000000003787,
          "durationTicks": 15,
          "midi": 44,
          "name": "G#2",
          "ticks": 157800,
          "time": 246.54672,
          "velocity": 0.4251968503937008
        },
        {
          "duration": 0.023436000000003787,
          "durationTicks": 15,
          "midi": 70,
          "name": "A#4",
          "ticks": 157800,
          "time": 246.54672,
          "velocity": 0.5118110236220472
        },
        {
          "duration": 0.023436000000003787,
          "durationTicks": 15,
          "midi": 82,
          "name": "A#5",
          "ticks": 157800,
          "time": 246.54672,
          "velocity": 0.44881889763779526
        },
        {
          "duration": 0.023435999999975365,
          "durationTicks": 15,
          "midi": 38,
          "name": "D2",
          "ticks": 157920,
          "time": 246.734208,
          "velocity": 0.9212598425196851
        },
        {
          "duration": 0.023435999999975365,
          "durationTicks": 15,
          "midi": 44,
          "name": "G#2",
          "ticks": 157920,
          "time": 246.734208,
          "velocity": 0.7165354330708661
        },
        {
          "duration": 0.023435999999975365,
          "durationTicks": 15,
          "midi": 70,
          "name": "A#4",
          "ticks": 157920,
          "time": 246.734208,
          "velocity": 0.7952755905511811
        },
        {
          "duration": 0.023435999999975365,
          "durationTicks": 15,
          "midi": 82,
          "name": "A#5",
          "ticks": 157920,
          "time": 246.734208,
          "velocity": 0.5590551181102362
        },
        {
          "duration": 0.023435999999975365,
          "durationTicks": 15,
          "midi": 44,
          "name": "G#2",
          "ticks": 158040,
          "time": 246.921696,
          "velocity": 0.4409448818897638
        },
        {
          "duration": 0.023435999999975365,
          "durationTicks": 15,
          "midi": 70,
          "name": "A#4",
          "ticks": 158040,
          "time": 246.921696,
          "velocity": 0.5275590551181102
        },
        {
          "duration": 0.023436000000003787,
          "durationTicks": 15,
          "midi": 35,
          "name": "B1",
          "ticks": 158160,
          "time": 247.10918399999997,
          "velocity": 0.7480314960629921
        },
        {
          "duration": 0.023436000000003787,
          "durationTicks": 15,
          "midi": 44,
          "name": "G#2",
          "ticks": 158160,
          "time": 247.10918399999997,
          "velocity": 0.5590551181102362
        },
        {
          "duration": 0.023436000000003787,
          "durationTicks": 15,
          "midi": 70,
          "name": "A#4",
          "ticks": 158160,
          "time": 247.10918399999997,
          "velocity": 0.5984251968503937
        },
        {
          "duration": 0.023436000000003787,
          "durationTicks": 15,
          "midi": 35,
          "name": "B1",
          "ticks": 158280,
          "time": 247.29667199999997,
          "velocity": 0.7480314960629921
        },
        {
          "duration": 0.023436000000003787,
          "durationTicks": 15,
          "midi": 44,
          "name": "G#2",
          "ticks": 158280,
          "time": 247.29667199999997,
          "velocity": 0.4251968503937008
        },
        {
          "duration": 0.023436000000003787,
          "durationTicks": 15,
          "midi": 70,
          "name": "A#4",
          "ticks": 158280,
          "time": 247.29667199999997,
          "velocity": 0.5118110236220472
        },
        {
          "duration": 0.023436000000003787,
          "durationTicks": 15,
          "midi": 82,
          "name": "A#5",
          "ticks": 158280,
          "time": 247.29667199999997,
          "velocity": 0.3937007874015748
        },
        {
          "duration": 0.023436000000003787,
          "durationTicks": 15,
          "midi": 35,
          "name": "B1",
          "ticks": 158400,
          "time": 247.48415999999997,
          "velocity": 0.8740157480314961
        },
        {
          "duration": 0.023436000000003787,
          "durationTicks": 15,
          "midi": 44,
          "name": "G#2",
          "ticks": 158400,
          "time": 247.48415999999997,
          "velocity": 0.7007874015748031
        },
        {
          "duration": 0.023436000000003787,
          "durationTicks": 15,
          "midi": 70,
          "name": "A#4",
          "ticks": 158400,
          "time": 247.48415999999997,
          "velocity": 0.7952755905511811
        },
        {
          "duration": 0.023436000000003787,
          "durationTicks": 15,
          "midi": 82,
          "name": "A#5",
          "ticks": 158400,
          "time": 247.48415999999997,
          "velocity": 0.4015748031496063
        },
        {
          "duration": 0.023436000000003787,
          "durationTicks": 15,
          "midi": 44,
          "name": "G#2",
          "ticks": 158520,
          "time": 247.67164799999998,
          "velocity": 0.3543307086614173
        },
        {
          "duration": 0.023436000000003787,
          "durationTicks": 15,
          "midi": 70,
          "name": "A#4",
          "ticks": 158520,
          "time": 247.67164799999998,
          "velocity": 0.5275590551181102
        },
        {
          "duration": 0.023436000000003787,
          "durationTicks": 15,
          "midi": 44,
          "name": "G#2",
          "ticks": 158640,
          "time": 247.85913599999998,
          "velocity": 0.5748031496062992
        },
        {
          "duration": 0.023436000000003787,
          "durationTicks": 15,
          "midi": 70,
          "name": "A#4",
          "ticks": 158640,
          "time": 247.85913599999998,
          "velocity": 0.5984251968503937
        },
        {
          "duration": 0.023436000000003787,
          "durationTicks": 15,
          "midi": 82,
          "name": "A#5",
          "ticks": 158640,
          "time": 247.85913599999998,
          "velocity": 0.44881889763779526
        },
        {
          "duration": 0.023436000000003787,
          "durationTicks": 15,
          "midi": 44,
          "name": "G#2",
          "ticks": 158760,
          "time": 248.04662399999998,
          "velocity": 0.4251968503937008
        },
        {
          "duration": 0.023436000000003787,
          "durationTicks": 15,
          "midi": 70,
          "name": "A#4",
          "ticks": 158760,
          "time": 248.04662399999998,
          "velocity": 0.5118110236220472
        },
        {
          "duration": 0.023436000000003787,
          "durationTicks": 15,
          "midi": 82,
          "name": "A#5",
          "ticks": 158760,
          "time": 248.04662399999998,
          "velocity": 0.48031496062992124
        },
        {
          "duration": 0.023436000000003787,
          "durationTicks": 15,
          "midi": 38,
          "name": "D2",
          "ticks": 158880,
          "time": 248.23411199999998,
          "velocity": 0.905511811023622
        },
        {
          "duration": 0.023436000000003787,
          "durationTicks": 15,
          "midi": 44,
          "name": "G#2",
          "ticks": 158880,
          "time": 248.23411199999998,
          "velocity": 0.7165354330708661
        },
        {
          "duration": 0.023436000000003787,
          "durationTicks": 15,
          "midi": 70,
          "name": "A#4",
          "ticks": 158880,
          "time": 248.23411199999998,
          "velocity": 0.7952755905511811
        },
        {
          "duration": 0.023436000000003787,
          "durationTicks": 15,
          "midi": 82,
          "name": "A#5",
          "ticks": 158880,
          "time": 248.23411199999998,
          "velocity": 0.5275590551181102
        },
        {
          "duration": 0.023436000000003787,
          "durationTicks": 15,
          "midi": 44,
          "name": "G#2",
          "ticks": 159000,
          "time": 248.42159999999998,
          "velocity": 0.4409448818897638
        },
        {
          "duration": 0.023436000000003787,
          "durationTicks": 15,
          "midi": 70,
          "name": "A#4",
          "ticks": 159000,
          "time": 248.42159999999998,
          "velocity": 0.5275590551181102
        },
        {
          "duration": 0.023436000000003787,
          "durationTicks": 15,
          "midi": 46,
          "name": "A#2",
          "ticks": 159120,
          "time": 248.60908799999999,
          "velocity": 0.6062992125984252
        },
        {
          "duration": 0.023436000000003787,
          "durationTicks": 15,
          "midi": 70,
          "name": "A#4",
          "ticks": 159120,
          "time": 248.60908799999999,
          "velocity": 0.5984251968503937
        },
        {
          "duration": 0.023436000000003787,
          "durationTicks": 15,
          "midi": 82,
          "name": "A#5",
          "ticks": 159120,
          "time": 248.60908799999999,
          "velocity": 0.48031496062992124
        },
        {
          "duration": 0.023436000000003787,
          "durationTicks": 15,
          "midi": 70,
          "name": "A#4",
          "ticks": 159240,
          "time": 248.796576,
          "velocity": 0.5118110236220472
        },
        {
          "duration": 0.023436000000003787,
          "durationTicks": 15,
          "midi": 82,
          "name": "A#5",
          "ticks": 159240,
          "time": 248.796576,
          "velocity": 0.4015748031496063
        },
        {
          "duration": 0.023436000000003787,
          "durationTicks": 15,
          "midi": 35,
          "name": "B1",
          "ticks": 159360,
          "time": 248.984064,
          "velocity": 0.8740157480314961
        },
        {
          "duration": 0.023436000000003787,
          "durationTicks": 15,
          "midi": 44,
          "name": "G#2",
          "ticks": 159360,
          "time": 248.984064,
          "velocity": 0.7007874015748031
        },
        {
          "duration": 0.023436000000003787,
          "durationTicks": 15,
          "midi": 70,
          "name": "A#4",
          "ticks": 159360,
          "time": 248.984064,
          "velocity": 0.7952755905511811
        },
        {
          "duration": 0.023436000000003787,
          "durationTicks": 15,
          "midi": 44,
          "name": "G#2",
          "ticks": 159480,
          "time": 249.171552,
          "velocity": 0.3543307086614173
        },
        {
          "duration": 0.023436000000003787,
          "durationTicks": 15,
          "midi": 70,
          "name": "A#4",
          "ticks": 159480,
          "time": 249.171552,
          "velocity": 0.5275590551181102
        },
        {
          "duration": 0.023436000000003787,
          "durationTicks": 15,
          "midi": 44,
          "name": "G#2",
          "ticks": 159600,
          "time": 249.35904,
          "velocity": 0.5748031496062992
        },
        {
          "duration": 0.023436000000003787,
          "durationTicks": 15,
          "midi": 82,
          "name": "A#5",
          "ticks": 159600,
          "time": 249.35904,
          "velocity": 0.4330708661417323
        },
        {
          "duration": 0.023435999999975365,
          "durationTicks": 15,
          "midi": 44,
          "name": "G#2",
          "ticks": 159720,
          "time": 249.546528,
          "velocity": 0.4251968503937008
        },
        {
          "duration": 0.023435999999975365,
          "durationTicks": 15,
          "midi": 70,
          "name": "A#4",
          "ticks": 159720,
          "time": 249.546528,
          "velocity": 0.5118110236220472
        },
        {
          "duration": 0.023435999999975365,
          "durationTicks": 15,
          "midi": 82,
          "name": "A#5",
          "ticks": 159720,
          "time": 249.546528,
          "velocity": 0.44881889763779526
        },
        {
          "duration": 0.023435999999975365,
          "durationTicks": 15,
          "midi": 38,
          "name": "D2",
          "ticks": 159840,
          "time": 249.734016,
          "velocity": 0.9212598425196851
        },
        {
          "duration": 0.023435999999975365,
          "durationTicks": 15,
          "midi": 44,
          "name": "G#2",
          "ticks": 159840,
          "time": 249.734016,
          "velocity": 0.7165354330708661
        },
        {
          "duration": 0.023435999999975365,
          "durationTicks": 15,
          "midi": 82,
          "name": "A#5",
          "ticks": 159840,
          "time": 249.734016,
          "velocity": 0.5590551181102362
        },
        {
          "duration": 0.023436000000003787,
          "durationTicks": 15,
          "midi": 44,
          "name": "G#2",
          "ticks": 159960,
          "time": 249.92150399999997,
          "velocity": 0.4409448818897638
        },
        {
          "duration": 0.023436000000003787,
          "durationTicks": 15,
          "midi": 70,
          "name": "A#4",
          "ticks": 159960,
          "time": 249.92150399999997,
          "velocity": 0.5275590551181102
        },
        {
          "duration": 0.023436000000003787,
          "durationTicks": 15,
          "midi": 82,
          "name": "A#5",
          "ticks": 159960,
          "time": 249.92150399999997,
          "velocity": 0.4881889763779528
        },
        {
          "duration": 0.023436000000003787,
          "durationTicks": 15,
          "midi": 35,
          "name": "B1",
          "ticks": 160080,
          "time": 250.10899199999997,
          "velocity": 0.8740157480314961
        },
        {
          "duration": 0.023436000000003787,
          "durationTicks": 15,
          "midi": 44,
          "name": "G#2",
          "ticks": 160080,
          "time": 250.10899199999997,
          "velocity": 0.5590551181102362
        },
        {
          "duration": 0.023436000000003787,
          "durationTicks": 15,
          "midi": 70,
          "name": "A#4",
          "ticks": 160080,
          "time": 250.10899199999997,
          "velocity": 0.5984251968503937
        },
        {
          "duration": 0.023436000000003787,
          "durationTicks": 15,
          "midi": 44,
          "name": "G#2",
          "ticks": 160200,
          "time": 250.29647999999997,
          "velocity": 0.4251968503937008
        },
        {
          "duration": 0.023436000000003787,
          "durationTicks": 15,
          "midi": 70,
          "name": "A#4",
          "ticks": 160200,
          "time": 250.29647999999997,
          "velocity": 0.5118110236220472
        },
        {
          "duration": 0.023436000000003787,
          "durationTicks": 15,
          "midi": 82,
          "name": "A#5",
          "ticks": 160200,
          "time": 250.29647999999997,
          "velocity": 0.3937007874015748
        },
        {
          "duration": 0.023436000000003787,
          "durationTicks": 15,
          "midi": 35,
          "name": "B1",
          "ticks": 160320,
          "time": 250.48396799999998,
          "velocity": 0.8740157480314961
        },
        {
          "duration": 0.023436000000003787,
          "durationTicks": 15,
          "midi": 44,
          "name": "G#2",
          "ticks": 160320,
          "time": 250.48396799999998,
          "velocity": 0.7007874015748031
        },
        {
          "duration": 0.023436000000003787,
          "durationTicks": 15,
          "midi": 47,
          "name": "B2",
          "ticks": 160320,
          "time": 250.48396799999998,
          "velocity": 0.889763779527559
        },
        {
          "duration": 0.023436000000003787,
          "durationTicks": 15,
          "midi": 70,
          "name": "A#4",
          "ticks": 160320,
          "time": 250.48396799999998,
          "velocity": 0.7952755905511811
        },
        {
          "duration": 0.023436000000003787,
          "durationTicks": 15,
          "midi": 82,
          "name": "A#5",
          "ticks": 160320,
          "time": 250.48396799999998,
          "velocity": 0.4015748031496063
        },
        {
          "duration": 0.023436000000003787,
          "durationTicks": 15,
          "midi": 44,
          "name": "G#2",
          "ticks": 160440,
          "time": 250.67145599999998,
          "velocity": 0.3543307086614173
        },
        {
          "duration": 0.023436000000003787,
          "durationTicks": 15,
          "midi": 45,
          "name": "A2",
          "ticks": 160440,
          "time": 250.67145599999998,
          "velocity": 0.7086614173228346
        },
        {
          "duration": 0.023436000000003787,
          "durationTicks": 15,
          "midi": 70,
          "name": "A#4",
          "ticks": 160440,
          "time": 250.67145599999998,
          "velocity": 0.5275590551181102
        },
        {
          "duration": 0.023436000000003787,
          "durationTicks": 15,
          "midi": 43,
          "name": "G2",
          "ticks": 160560,
          "time": 250.85894399999998,
          "velocity": 0.7952755905511811
        },
        {
          "duration": 0.023436000000003787,
          "durationTicks": 15,
          "midi": 44,
          "name": "G#2",
          "ticks": 160560,
          "time": 250.85894399999998,
          "velocity": 0.5748031496062992
        },
        {
          "duration": 0.023436000000003787,
          "durationTicks": 15,
          "midi": 70,
          "name": "A#4",
          "ticks": 160560,
          "time": 250.85894399999998,
          "velocity": 0.5984251968503937
        },
        {
          "duration": 0.023436000000003787,
          "durationTicks": 15,
          "midi": 82,
          "name": "A#5",
          "ticks": 160560,
          "time": 250.85894399999998,
          "velocity": 0.44881889763779526
        },
        {
          "duration": 0.023436000000003787,
          "durationTicks": 15,
          "midi": 41,
          "name": "F2",
          "ticks": 160680,
          "time": 251.04643199999998,
          "velocity": 0.48031496062992124
        },
        {
          "duration": 0.023436000000003787,
          "durationTicks": 15,
          "midi": 44,
          "name": "G#2",
          "ticks": 160680,
          "time": 251.04643199999998,
          "velocity": 0.4251968503937008
        },
        {
          "duration": 0.023436000000003787,
          "durationTicks": 15,
          "midi": 70,
          "name": "A#4",
          "ticks": 160680,
          "time": 251.04643199999998,
          "velocity": 0.5118110236220472
        },
        {
          "duration": 0.023436000000003787,
          "durationTicks": 15,
          "midi": 82,
          "name": "A#5",
          "ticks": 160680,
          "time": 251.04643199999998,
          "velocity": 0.48031496062992124
        },
        {
          "duration": 0.023436000000003787,
          "durationTicks": 15,
          "midi": 44,
          "name": "G#2",
          "ticks": 160800,
          "time": 251.23391999999998,
          "velocity": 0.7165354330708661
        },
        {
          "duration": 0.023436000000003787,
          "durationTicks": 15,
          "midi": 47,
          "name": "B2",
          "ticks": 160800,
          "time": 251.23391999999998,
          "velocity": 0.937007874015748
        },
        {
          "duration": 0.023436000000003787,
          "durationTicks": 15,
          "midi": 70,
          "name": "A#4",
          "ticks": 160800,
          "time": 251.23391999999998,
          "velocity": 0.7952755905511811
        },
        {
          "duration": 0.023436000000003787,
          "durationTicks": 15,
          "midi": 82,
          "name": "A#5",
          "ticks": 160800,
          "time": 251.23391999999998,
          "velocity": 0.5275590551181102
        },
        {
          "duration": 0.023436000000003787,
          "durationTicks": 15,
          "midi": 45,
          "name": "A2",
          "ticks": 160920,
          "time": 251.42140799999999,
          "velocity": 0.7952755905511811
        },
        {
          "duration": 0.023436000000003787,
          "durationTicks": 15,
          "midi": 82,
          "name": "A#5",
          "ticks": 160920,
          "time": 251.42140799999999,
          "velocity": 0.4645669291338583
        },
        {
          "duration": 0.023436000000003787,
          "durationTicks": 15,
          "midi": 43,
          "name": "G2",
          "ticks": 161040,
          "time": 251.608896,
          "velocity": 0.84251968503937
        },
        {
          "duration": 0.023436000000003787,
          "durationTicks": 15,
          "midi": 46,
          "name": "A#2",
          "ticks": 161040,
          "time": 251.608896,
          "velocity": 0.6062992125984252
        },
        {
          "duration": 0.023436000000003787,
          "durationTicks": 15,
          "midi": 70,
          "name": "A#4",
          "ticks": 161040,
          "time": 251.608896,
          "velocity": 0.5984251968503937
        },
        {
          "duration": 0.023436000000003787,
          "durationTicks": 15,
          "midi": 41,
          "name": "F2",
          "ticks": 161160,
          "time": 251.796384,
          "velocity": 0.48031496062992124
        },
        {
          "duration": 0.023436000000003787,
          "durationTicks": 15,
          "midi": 70,
          "name": "A#4",
          "ticks": 161160,
          "time": 251.796384,
          "velocity": 0.5118110236220472
        },
        {
          "duration": 0.023436000000003787,
          "durationTicks": 15,
          "midi": 82,
          "name": "A#5",
          "ticks": 161160,
          "time": 251.796384,
          "velocity": 0.4015748031496063
        },
        {
          "duration": 0.023436000000003787,
          "durationTicks": 15,
          "midi": 35,
          "name": "B1",
          "ticks": 161280,
          "time": 251.983872,
          "velocity": 0.889763779527559
        },
        {
          "duration": 0.023436000000003787,
          "durationTicks": 15,
          "midi": 44,
          "name": "G#2",
          "ticks": 161280,
          "time": 251.983872,
          "velocity": 0.7007874015748031
        },
        {
          "duration": 0.023436000000003787,
          "durationTicks": 15,
          "midi": 49,
          "name": "C#3",
          "ticks": 161280,
          "time": 251.983872,
          "velocity": 0.6535433070866141
        },
        {
          "duration": 0.023436000000003787,
          "durationTicks": 15,
          "midi": 59,
          "name": "B3",
          "ticks": 161280,
          "time": 251.983872,
          "velocity": 1
        },
        {
          "duration": 0.023436000000003787,
          "durationTicks": 15,
          "midi": 70,
          "name": "A#4",
          "ticks": 161280,
          "time": 251.983872,
          "velocity": 0.7952755905511811
        },
        {
          "duration": 0.023436000000003787,
          "durationTicks": 15,
          "midi": 44,
          "name": "G#2",
          "ticks": 161400,
          "time": 252.17136,
          "velocity": 0.3543307086614173
        },
        {
          "duration": 0.023436000000003787,
          "durationTicks": 15,
          "midi": 70,
          "name": "A#4",
          "ticks": 161400,
          "time": 252.17136,
          "velocity": 0.5275590551181102
        },
        {
          "duration": 0.023435999999975365,
          "durationTicks": 15,
          "midi": 44,
          "name": "G#2",
          "ticks": 161520,
          "time": 252.358848,
          "velocity": 0.5748031496062992
        },
        {
          "duration": 0.023435999999975365,
          "durationTicks": 15,
          "midi": 70,
          "name": "A#4",
          "ticks": 161520,
          "time": 252.358848,
          "velocity": 0.5984251968503937
        },
        {
          "duration": 0.023435999999975365,
          "durationTicks": 15,
          "midi": 82,
          "name": "A#5",
          "ticks": 161520,
          "time": 252.358848,
          "velocity": 0.4330708661417323
        },
        {
          "duration": 0.023435999999975365,
          "durationTicks": 15,
          "midi": 44,
          "name": "G#2",
          "ticks": 161640,
          "time": 252.546336,
          "velocity": 0.4251968503937008
        },
        {
          "duration": 0.023435999999975365,
          "durationTicks": 15,
          "midi": 70,
          "name": "A#4",
          "ticks": 161640,
          "time": 252.546336,
          "velocity": 0.5118110236220472
        },
        {
          "duration": 0.023435999999975365,
          "durationTicks": 15,
          "midi": 82,
          "name": "A#5",
          "ticks": 161640,
          "time": 252.546336,
          "velocity": 0.44881889763779526
        },
        {
          "duration": 0.023436000000003787,
          "durationTicks": 15,
          "midi": 38,
          "name": "D2",
          "ticks": 161760,
          "time": 252.73382399999997,
          "velocity": 0.9212598425196851
        },
        {
          "duration": 0.023436000000003787,
          "durationTicks": 15,
          "midi": 39,
          "name": "D#2",
          "ticks": 161760,
          "time": 252.73382399999997,
          "velocity": 0.9212598425196851
        },
        {
          "duration": 0.023436000000003787,
          "durationTicks": 15,
          "midi": 44,
          "name": "G#2",
          "ticks": 161760,
          "time": 252.73382399999997,
          "velocity": 0.7165354330708661
        },
        {
          "duration": 0.023436000000003787,
          "durationTicks": 15,
          "midi": 70,
          "name": "A#4",
          "ticks": 161760,
          "time": 252.73382399999997,
          "velocity": 0.7952755905511811
        },
        {
          "duration": 0.023436000000003787,
          "durationTicks": 15,
          "midi": 82,
          "name": "A#5",
          "ticks": 161760,
          "time": 252.73382399999997,
          "velocity": 0.5590551181102362
        },
        {
          "duration": 0.023436000000003787,
          "durationTicks": 15,
          "midi": 44,
          "name": "G#2",
          "ticks": 161880,
          "time": 252.92131199999997,
          "velocity": 0.4409448818897638
        },
        {
          "duration": 0.023436000000003787,
          "durationTicks": 15,
          "midi": 70,
          "name": "A#4",
          "ticks": 161880,
          "time": 252.92131199999997,
          "velocity": 0.5275590551181102
        },
        {
          "duration": 0.023436000000003787,
          "durationTicks": 15,
          "midi": 35,
          "name": "B1",
          "ticks": 162000,
          "time": 253.10879999999997,
          "velocity": 0.7480314960629921
        },
        {
          "duration": 0.023436000000003787,
          "durationTicks": 15,
          "midi": 44,
          "name": "G#2",
          "ticks": 162000,
          "time": 253.10879999999997,
          "velocity": 0.5590551181102362
        },
        {
          "duration": 0.023436000000003787,
          "durationTicks": 15,
          "midi": 70,
          "name": "A#4",
          "ticks": 162000,
          "time": 253.10879999999997,
          "velocity": 0.5984251968503937
        },
        {
          "duration": 0.023436000000003787,
          "durationTicks": 15,
          "midi": 35,
          "name": "B1",
          "ticks": 162120,
          "time": 253.29628799999998,
          "velocity": 0.7480314960629921
        },
        {
          "duration": 0.023436000000003787,
          "durationTicks": 15,
          "midi": 44,
          "name": "G#2",
          "ticks": 162120,
          "time": 253.29628799999998,
          "velocity": 0.4251968503937008
        },
        {
          "duration": 0.023436000000003787,
          "durationTicks": 15,
          "midi": 70,
          "name": "A#4",
          "ticks": 162120,
          "time": 253.29628799999998,
          "velocity": 0.5118110236220472
        },
        {
          "duration": 0.023436000000003787,
          "durationTicks": 15,
          "midi": 82,
          "name": "A#5",
          "ticks": 162120,
          "time": 253.29628799999998,
          "velocity": 0.3937007874015748
        },
        {
          "duration": 0.023436000000003787,
          "durationTicks": 15,
          "midi": 35,
          "name": "B1",
          "ticks": 162240,
          "time": 253.48377599999998,
          "velocity": 0.8740157480314961
        },
        {
          "duration": 0.023436000000003787,
          "durationTicks": 15,
          "midi": 44,
          "name": "G#2",
          "ticks": 162240,
          "time": 253.48377599999998,
          "velocity": 0.7007874015748031
        },
        {
          "duration": 0.023436000000003787,
          "durationTicks": 15,
          "midi": 70,
          "name": "A#4",
          "ticks": 162240,
          "time": 253.48377599999998,
          "velocity": 0.7952755905511811
        },
        {
          "duration": 0.023436000000003787,
          "durationTicks": 15,
          "midi": 82,
          "name": "A#5",
          "ticks": 162240,
          "time": 253.48377599999998,
          "velocity": 0.4015748031496063
        },
        {
          "duration": 0.023436000000003787,
          "durationTicks": 15,
          "midi": 44,
          "name": "G#2",
          "ticks": 162360,
          "time": 253.67126399999998,
          "velocity": 0.3543307086614173
        },
        {
          "duration": 0.023436000000003787,
          "durationTicks": 15,
          "midi": 70,
          "name": "A#4",
          "ticks": 162360,
          "time": 253.67126399999998,
          "velocity": 0.5275590551181102
        },
        {
          "duration": 0.023436000000003787,
          "durationTicks": 15,
          "midi": 44,
          "name": "G#2",
          "ticks": 162480,
          "time": 253.85875199999998,
          "velocity": 0.5748031496062992
        },
        {
          "duration": 0.023436000000003787,
          "durationTicks": 15,
          "midi": 70,
          "name": "A#4",
          "ticks": 162480,
          "time": 253.85875199999998,
          "velocity": 0.5984251968503937
        },
        {
          "duration": 0.023436000000003787,
          "durationTicks": 15,
          "midi": 82,
          "name": "A#5",
          "ticks": 162480,
          "time": 253.85875199999998,
          "velocity": 0.44881889763779526
        },
        {
          "duration": 0.023436000000003787,
          "durationTicks": 15,
          "midi": 44,
          "name": "G#2",
          "ticks": 162600,
          "time": 254.04623999999998,
          "velocity": 0.4251968503937008
        },
        {
          "duration": 0.023436000000003787,
          "durationTicks": 15,
          "midi": 70,
          "name": "A#4",
          "ticks": 162600,
          "time": 254.04623999999998,
          "velocity": 0.5118110236220472
        },
        {
          "duration": 0.023436000000003787,
          "durationTicks": 15,
          "midi": 82,
          "name": "A#5",
          "ticks": 162600,
          "time": 254.04623999999998,
          "velocity": 0.48031496062992124
        },
        {
          "duration": 0.023436000000003787,
          "durationTicks": 15,
          "midi": 38,
          "name": "D2",
          "ticks": 162720,
          "time": 254.23372799999999,
          "velocity": 0.905511811023622
        },
        {
          "duration": 0.023436000000003787,
          "durationTicks": 15,
          "midi": 39,
          "name": "D#2",
          "ticks": 162720,
          "time": 254.23372799999999,
          "velocity": 0.905511811023622
        },
        {
          "duration": 0.023436000000003787,
          "durationTicks": 15,
          "midi": 44,
          "name": "G#2",
          "ticks": 162720,
          "time": 254.23372799999999,
          "velocity": 0.7165354330708661
        },
        {
          "duration": 0.023436000000003787,
          "durationTicks": 15,
          "midi": 44,
          "name": "G#2",
          "ticks": 162840,
          "time": 254.421216,
          "velocity": 0.4409448818897638
        },
        {
          "duration": 0.023436000000003787,
          "durationTicks": 15,
          "midi": 70,
          "name": "A#4",
          "ticks": 162840,
          "time": 254.421216,
          "velocity": 0.5275590551181102
        },
        {
          "duration": 0.023436000000003787,
          "durationTicks": 15,
          "midi": 46,
          "name": "A#2",
          "ticks": 162960,
          "time": 254.608704,
          "velocity": 0.6062992125984252
        },
        {
          "duration": 0.023436000000003787,
          "durationTicks": 15,
          "midi": 70,
          "name": "A#4",
          "ticks": 162960,
          "time": 254.608704,
          "velocity": 0.5984251968503937
        },
        {
          "duration": 0.023436000000003787,
          "durationTicks": 15,
          "midi": 82,
          "name": "A#5",
          "ticks": 162960,
          "time": 254.608704,
          "velocity": 0.48031496062992124
        },
        {
          "duration": 0.023436000000003787,
          "durationTicks": 15,
          "midi": 70,
          "name": "A#4",
          "ticks": 163080,
          "time": 254.796192,
          "velocity": 0.5118110236220472
        },
        {
          "duration": 0.023436000000003787,
          "durationTicks": 15,
          "midi": 82,
          "name": "A#5",
          "ticks": 163080,
          "time": 254.796192,
          "velocity": 0.4015748031496063
        },
        {
          "duration": 0.023436000000003787,
          "durationTicks": 15,
          "midi": 35,
          "name": "B1",
          "ticks": 163200,
          "time": 254.98368,
          "velocity": 0.8740157480314961
        },
        {
          "duration": 0.023436000000003787,
          "durationTicks": 15,
          "midi": 44,
          "name": "G#2",
          "ticks": 163200,
          "time": 254.98368,
          "velocity": 0.7007874015748031
        },
        {
          "duration": 0.023436000000003787,
          "durationTicks": 15,
          "midi": 70,
          "name": "A#4",
          "ticks": 163200,
          "time": 254.98368,
          "velocity": 0.7952755905511811
        },
        {
          "duration": 0.023435999999975365,
          "durationTicks": 15,
          "midi": 44,
          "name": "G#2",
          "ticks": 163320,
          "time": 255.171168,
          "velocity": 0.3543307086614173
        },
        {
          "duration": 0.023435999999975365,
          "durationTicks": 15,
          "midi": 70,
          "name": "A#4",
          "ticks": 163320,
          "time": 255.171168,
          "velocity": 0.5275590551181102
        },
        {
          "duration": 0.023435999999975365,
          "durationTicks": 15,
          "midi": 44,
          "name": "G#2",
          "ticks": 163440,
          "time": 255.358656,
          "velocity": 0.5748031496062992
        },
        {
          "duration": 0.023435999999975365,
          "durationTicks": 15,
          "midi": 70,
          "name": "A#4",
          "ticks": 163440,
          "time": 255.358656,
          "velocity": 0.5984251968503937
        },
        {
          "duration": 0.023435999999975365,
          "durationTicks": 15,
          "midi": 82,
          "name": "A#5",
          "ticks": 163440,
          "time": 255.358656,
          "velocity": 0.4330708661417323
        },
        {
          "duration": 0.023436000000003787,
          "durationTicks": 15,
          "midi": 44,
          "name": "G#2",
          "ticks": 163560,
          "time": 255.54614399999997,
          "velocity": 0.4251968503937008
        },
        {
          "duration": 0.023436000000003787,
          "durationTicks": 15,
          "midi": 70,
          "name": "A#4",
          "ticks": 163560,
          "time": 255.54614399999997,
          "velocity": 0.5118110236220472
        },
        {
          "duration": 0.023436000000003787,
          "durationTicks": 15,
          "midi": 82,
          "name": "A#5",
          "ticks": 163560,
          "time": 255.54614399999997,
          "velocity": 0.44881889763779526
        },
        {
          "duration": 0.023436000000003787,
          "durationTicks": 15,
          "midi": 38,
          "name": "D2",
          "ticks": 163680,
          "time": 255.73363199999997,
          "velocity": 0.9212598425196851
        },
        {
          "duration": 0.023436000000003787,
          "durationTicks": 15,
          "midi": 39,
          "name": "D#2",
          "ticks": 163680,
          "time": 255.73363199999997,
          "velocity": 0.9212598425196851
        },
        {
          "duration": 0.023436000000003787,
          "durationTicks": 15,
          "midi": 44,
          "name": "G#2",
          "ticks": 163680,
          "time": 255.73363199999997,
          "velocity": 0.7165354330708661
        },
        {
          "duration": 0.023436000000003787,
          "durationTicks": 15,
          "midi": 44,
          "name": "G#2",
          "ticks": 163800,
          "time": 255.92111999999997,
          "velocity": 0.4409448818897638
        },
        {
          "duration": 0.023436000000003787,
          "durationTicks": 15,
          "midi": 70,
          "name": "A#4",
          "ticks": 163800,
          "time": 255.92111999999997,
          "velocity": 0.5275590551181102
        },
        {
          "duration": 0.023436000000003787,
          "durationTicks": 15,
          "midi": 35,
          "name": "B1",
          "ticks": 163920,
          "time": 256.108608,
          "velocity": 0.8582677165354331
        },
        {
          "duration": 0.023436000000003787,
          "durationTicks": 15,
          "midi": 44,
          "name": "G#2",
          "ticks": 163920,
          "time": 256.108608,
          "velocity": 0.5590551181102362
        },
        {
          "duration": 0.023436000000003787,
          "durationTicks": 15,
          "midi": 70,
          "name": "A#4",
          "ticks": 163920,
          "time": 256.108608,
          "velocity": 0.5984251968503937
        },
        {
          "duration": 0.023436000000003787,
          "durationTicks": 15,
          "midi": 44,
          "name": "G#2",
          "ticks": 164040,
          "time": 256.296096,
          "velocity": 0.4251968503937008
        },
        {
          "duration": 0.023436000000003787,
          "durationTicks": 15,
          "midi": 70,
          "name": "A#4",
          "ticks": 164040,
          "time": 256.296096,
          "velocity": 0.5118110236220472
        },
        {
          "duration": 0.023436000000003787,
          "durationTicks": 15,
          "midi": 82,
          "name": "A#5",
          "ticks": 164040,
          "time": 256.296096,
          "velocity": 0.3937007874015748
        },
        {
          "duration": 0.023436000000003787,
          "durationTicks": 15,
          "midi": 35,
          "name": "B1",
          "ticks": 164160,
          "time": 256.483584,
          "velocity": 0.8740157480314961
        },
        {
          "duration": 0.023436000000003787,
          "durationTicks": 15,
          "midi": 44,
          "name": "G#2",
          "ticks": 164160,
          "time": 256.483584,
          "velocity": 0.7007874015748031
        },
        {
          "duration": 0.023436000000003787,
          "durationTicks": 15,
          "midi": 70,
          "name": "A#4",
          "ticks": 164160,
          "time": 256.483584,
          "velocity": 0.7952755905511811
        },
        {
          "duration": 0.023436000000003787,
          "durationTicks": 15,
          "midi": 82,
          "name": "A#5",
          "ticks": 164160,
          "time": 256.483584,
          "velocity": 0.4015748031496063
        },
        {
          "duration": 0.023436000000003787,
          "durationTicks": 15,
          "midi": 44,
          "name": "G#2",
          "ticks": 164280,
          "time": 256.671072,
          "velocity": 0.3543307086614173
        },
        {
          "duration": 0.023436000000003787,
          "durationTicks": 15,
          "midi": 70,
          "name": "A#4",
          "ticks": 164280,
          "time": 256.671072,
          "velocity": 0.5275590551181102
        },
        {
          "duration": 0.023435999999946944,
          "durationTicks": 15,
          "midi": 44,
          "name": "G#2",
          "ticks": 164400,
          "time": 256.85856,
          "velocity": 0.5748031496062992
        },
        {
          "duration": 0.023435999999946944,
          "durationTicks": 15,
          "midi": 70,
          "name": "A#4",
          "ticks": 164400,
          "time": 256.85856,
          "velocity": 0.5984251968503937
        },
        {
          "duration": 0.023435999999946944,
          "durationTicks": 15,
          "midi": 82,
          "name": "A#5",
          "ticks": 164400,
          "time": 256.85856,
          "velocity": 0.44881889763779526
        },
        {
          "duration": 0.023436000000003787,
          "durationTicks": 15,
          "midi": 44,
          "name": "G#2",
          "ticks": 164520,
          "time": 257.046048,
          "velocity": 0.4251968503937008
        },
        {
          "duration": 0.023436000000003787,
          "durationTicks": 15,
          "midi": 70,
          "name": "A#4",
          "ticks": 164520,
          "time": 257.046048,
          "velocity": 0.5118110236220472
        },
        {
          "duration": 0.023436000000003787,
          "durationTicks": 15,
          "midi": 82,
          "name": "A#5",
          "ticks": 164520,
          "time": 257.046048,
          "velocity": 0.48031496062992124
        },
        {
          "duration": 0.023436000000003787,
          "durationTicks": 15,
          "midi": 38,
          "name": "D2",
          "ticks": 164640,
          "time": 257.23353599999996,
          "velocity": 0.905511811023622
        },
        {
          "duration": 0.023436000000003787,
          "durationTicks": 15,
          "midi": 39,
          "name": "D#2",
          "ticks": 164640,
          "time": 257.23353599999996,
          "velocity": 0.905511811023622
        },
        {
          "duration": 0.023436000000003787,
          "durationTicks": 15,
          "midi": 44,
          "name": "G#2",
          "ticks": 164640,
          "time": 257.23353599999996,
          "velocity": 0.7165354330708661
        },
        {
          "duration": 0.023436000000003787,
          "durationTicks": 15,
          "midi": 70,
          "name": "A#4",
          "ticks": 164640,
          "time": 257.23353599999996,
          "velocity": 0.7952755905511811
        },
        {
          "duration": 0.023436000000003787,
          "durationTicks": 15,
          "midi": 82,
          "name": "A#5",
          "ticks": 164640,
          "time": 257.23353599999996,
          "velocity": 0.5275590551181102
        },
        {
          "duration": 0.023436000000003787,
          "durationTicks": 15,
          "midi": 44,
          "name": "G#2",
          "ticks": 164760,
          "time": 257.421024,
          "velocity": 0.4409448818897638
        },
        {
          "duration": 0.023436000000003787,
          "durationTicks": 15,
          "midi": 70,
          "name": "A#4",
          "ticks": 164760,
          "time": 257.421024,
          "velocity": 0.5275590551181102
        },
        {
          "duration": 0.023436000000003787,
          "durationTicks": 15,
          "midi": 46,
          "name": "A#2",
          "ticks": 164880,
          "time": 257.60851199999996,
          "velocity": 0.6062992125984252
        },
        {
          "duration": 0.023436000000003787,
          "durationTicks": 15,
          "midi": 70,
          "name": "A#4",
          "ticks": 164880,
          "time": 257.60851199999996,
          "velocity": 0.5984251968503937
        },
        {
          "duration": 0.023436000000003787,
          "durationTicks": 15,
          "midi": 82,
          "name": "A#5",
          "ticks": 164880,
          "time": 257.60851199999996,
          "velocity": 0.48031496062992124
        },
        {
          "duration": 0.023436000000003787,
          "durationTicks": 15,
          "midi": 35,
          "name": "B1",
          "ticks": 165000,
          "time": 257.796,
          "velocity": 0.8740157480314961
        },
        {
          "duration": 0.023436000000003787,
          "durationTicks": 15,
          "midi": 70,
          "name": "A#4",
          "ticks": 165000,
          "time": 257.796,
          "velocity": 0.5118110236220472
        },
        {
          "duration": 0.023436000000003787,
          "durationTicks": 15,
          "midi": 82,
          "name": "A#5",
          "ticks": 165000,
          "time": 257.796,
          "velocity": 0.4015748031496063
        },
        {
          "duration": 0.023436000000003787,
          "durationTicks": 15,
          "midi": 35,
          "name": "B1",
          "ticks": 165120,
          "time": 257.98348799999997,
          "velocity": 0.8740157480314961
        },
        {
          "duration": 0.023436000000003787,
          "durationTicks": 15,
          "midi": 44,
          "name": "G#2",
          "ticks": 165120,
          "time": 257.98348799999997,
          "velocity": 0.7007874015748031
        },
        {
          "duration": 0.023436000000003787,
          "durationTicks": 15,
          "midi": 70,
          "name": "A#4",
          "ticks": 165120,
          "time": 257.98348799999997,
          "velocity": 0.7952755905511811
        },
        {
          "duration": 0.023436000000003787,
          "durationTicks": 15,
          "midi": 44,
          "name": "G#2",
          "ticks": 165240,
          "time": 258.170976,
          "velocity": 0.3543307086614173
        },
        {
          "duration": 0.023436000000003787,
          "durationTicks": 15,
          "midi": 70,
          "name": "A#4",
          "ticks": 165240,
          "time": 258.170976,
          "velocity": 0.5275590551181102
        },
        {
          "duration": 0.023436000000003787,
          "durationTicks": 15,
          "midi": 44,
          "name": "G#2",
          "ticks": 165360,
          "time": 258.35846399999997,
          "velocity": 0.5748031496062992
        },
        {
          "duration": 0.023436000000003787,
          "durationTicks": 15,
          "midi": 70,
          "name": "A#4",
          "ticks": 165360,
          "time": 258.35846399999997,
          "velocity": 0.5984251968503937
        },
        {
          "duration": 0.023436000000003787,
          "durationTicks": 15,
          "midi": 82,
          "name": "A#5",
          "ticks": 165360,
          "time": 258.35846399999997,
          "velocity": 0.4330708661417323
        },
        {
          "duration": 0.023436000000003787,
          "durationTicks": 15,
          "midi": 44,
          "name": "G#2",
          "ticks": 165480,
          "time": 258.545952,
          "velocity": 0.4251968503937008
        },
        {
          "duration": 0.023436000000003787,
          "durationTicks": 15,
          "midi": 70,
          "name": "A#4",
          "ticks": 165480,
          "time": 258.545952,
          "velocity": 0.5118110236220472
        },
        {
          "duration": 0.023436000000003787,
          "durationTicks": 15,
          "midi": 82,
          "name": "A#5",
          "ticks": 165480,
          "time": 258.545952,
          "velocity": 0.44881889763779526
        },
        {
          "duration": 0.023436000000003787,
          "durationTicks": 15,
          "midi": 38,
          "name": "D2",
          "ticks": 165600,
          "time": 258.73344,
          "velocity": 0.9212598425196851
        },
        {
          "duration": 0.023436000000003787,
          "durationTicks": 15,
          "midi": 39,
          "name": "D#2",
          "ticks": 165600,
          "time": 258.73344,
          "velocity": 0.9212598425196851
        },
        {
          "duration": 0.023436000000003787,
          "durationTicks": 15,
          "midi": 44,
          "name": "G#2",
          "ticks": 165600,
          "time": 258.73344,
          "velocity": 0.7165354330708661
        },
        {
          "duration": 0.023436000000003787,
          "durationTicks": 15,
          "midi": 44,
          "name": "G#2",
          "ticks": 165720,
          "time": 258.920928,
          "velocity": 0.4409448818897638
        },
        {
          "duration": 0.023436000000003787,
          "durationTicks": 15,
          "midi": 70,
          "name": "A#4",
          "ticks": 165720,
          "time": 258.920928,
          "velocity": 0.5275590551181102
        },
        {
          "duration": 0.023436000000003787,
          "durationTicks": 15,
          "midi": 35,
          "name": "B1",
          "ticks": 165840,
          "time": 259.108416,
          "velocity": 0.7480314960629921
        },
        {
          "duration": 0.023436000000003787,
          "durationTicks": 15,
          "midi": 44,
          "name": "G#2",
          "ticks": 165840,
          "time": 259.108416,
          "velocity": 0.5590551181102362
        },
        {
          "duration": 0.023436000000003787,
          "durationTicks": 15,
          "midi": 70,
          "name": "A#4",
          "ticks": 165840,
          "time": 259.108416,
          "velocity": 0.5984251968503937
        },
        {
          "duration": 0.023436000000003787,
          "durationTicks": 15,
          "midi": 35,
          "name": "B1",
          "ticks": 165960,
          "time": 259.295904,
          "velocity": 0.7480314960629921
        },
        {
          "duration": 0.023436000000003787,
          "durationTicks": 15,
          "midi": 44,
          "name": "G#2",
          "ticks": 165960,
          "time": 259.295904,
          "velocity": 0.4251968503937008
        },
        {
          "duration": 0.023436000000003787,
          "durationTicks": 15,
          "midi": 70,
          "name": "A#4",
          "ticks": 165960,
          "time": 259.295904,
          "velocity": 0.5118110236220472
        },
        {
          "duration": 0.023436000000003787,
          "durationTicks": 15,
          "midi": 82,
          "name": "A#5",
          "ticks": 165960,
          "time": 259.295904,
          "velocity": 0.3937007874015748
        },
        {
          "duration": 0.023436000000003787,
          "durationTicks": 15,
          "midi": 35,
          "name": "B1",
          "ticks": 166080,
          "time": 259.483392,
          "velocity": 0.8740157480314961
        },
        {
          "duration": 0.023436000000003787,
          "durationTicks": 15,
          "midi": 44,
          "name": "G#2",
          "ticks": 166080,
          "time": 259.483392,
          "velocity": 0.7007874015748031
        },
        {
          "duration": 0.023436000000003787,
          "durationTicks": 15,
          "midi": 70,
          "name": "A#4",
          "ticks": 166080,
          "time": 259.483392,
          "velocity": 0.7952755905511811
        },
        {
          "duration": 0.023436000000003787,
          "durationTicks": 15,
          "midi": 82,
          "name": "A#5",
          "ticks": 166080,
          "time": 259.483392,
          "velocity": 0.4015748031496063
        },
        {
          "duration": 0.023435999999946944,
          "durationTicks": 15,
          "midi": 44,
          "name": "G#2",
          "ticks": 166200,
          "time": 259.67088,
          "velocity": 0.3543307086614173
        },
        {
          "duration": 0.023435999999946944,
          "durationTicks": 15,
          "midi": 70,
          "name": "A#4",
          "ticks": 166200,
          "time": 259.67088,
          "velocity": 0.5275590551181102
        },
        {
          "duration": 0.023436000000003787,
          "durationTicks": 15,
          "midi": 44,
          "name": "G#2",
          "ticks": 166320,
          "time": 259.858368,
          "velocity": 0.5748031496062992
        },
        {
          "duration": 0.023436000000003787,
          "durationTicks": 15,
          "midi": 70,
          "name": "A#4",
          "ticks": 166320,
          "time": 259.858368,
          "velocity": 0.5984251968503937
        },
        {
          "duration": 0.023436000000003787,
          "durationTicks": 15,
          "midi": 82,
          "name": "A#5",
          "ticks": 166320,
          "time": 259.858368,
          "velocity": 0.44881889763779526
        },
        {
          "duration": 0.023436000000003787,
          "durationTicks": 15,
          "midi": 44,
          "name": "G#2",
          "ticks": 166440,
          "time": 260.04585599999996,
          "velocity": 0.4251968503937008
        },
        {
          "duration": 0.023436000000003787,
          "durationTicks": 15,
          "midi": 70,
          "name": "A#4",
          "ticks": 166440,
          "time": 260.04585599999996,
          "velocity": 0.5118110236220472
        },
        {
          "duration": 0.023436000000003787,
          "durationTicks": 15,
          "midi": 82,
          "name": "A#5",
          "ticks": 166440,
          "time": 260.04585599999996,
          "velocity": 0.48031496062992124
        },
        {
          "duration": 0.023436000000003787,
          "durationTicks": 15,
          "midi": 38,
          "name": "D2",
          "ticks": 166560,
          "time": 260.233344,
          "velocity": 0.905511811023622
        },
        {
          "duration": 0.023436000000003787,
          "durationTicks": 15,
          "midi": 39,
          "name": "D#2",
          "ticks": 166560,
          "time": 260.233344,
          "velocity": 0.905511811023622
        },
        {
          "duration": 0.023436000000003787,
          "durationTicks": 15,
          "midi": 44,
          "name": "G#2",
          "ticks": 166560,
          "time": 260.233344,
          "velocity": 0.7165354330708661
        },
        {
          "duration": 0.023436000000003787,
          "durationTicks": 15,
          "midi": 44,
          "name": "G#2",
          "ticks": 166680,
          "time": 260.42083199999996,
          "velocity": 0.4409448818897638
        },
        {
          "duration": 0.023436000000003787,
          "durationTicks": 15,
          "midi": 70,
          "name": "A#4",
          "ticks": 166680,
          "time": 260.42083199999996,
          "velocity": 0.5275590551181102
        },
        {
          "duration": 0.023436000000003787,
          "durationTicks": 15,
          "midi": 46,
          "name": "A#2",
          "ticks": 166800,
          "time": 260.60832,
          "velocity": 0.6062992125984252
        },
        {
          "duration": 0.023436000000003787,
          "durationTicks": 15,
          "midi": 70,
          "name": "A#4",
          "ticks": 166800,
          "time": 260.60832,
          "velocity": 0.5984251968503937
        },
        {
          "duration": 0.023436000000003787,
          "durationTicks": 15,
          "midi": 82,
          "name": "A#5",
          "ticks": 166800,
          "time": 260.60832,
          "velocity": 0.48031496062992124
        },
        {
          "duration": 0.023436000000003787,
          "durationTicks": 15,
          "midi": 70,
          "name": "A#4",
          "ticks": 166920,
          "time": 260.79580799999997,
          "velocity": 0.5118110236220472
        },
        {
          "duration": 0.023436000000003787,
          "durationTicks": 15,
          "midi": 82,
          "name": "A#5",
          "ticks": 166920,
          "time": 260.79580799999997,
          "velocity": 0.4015748031496063
        },
        {
          "duration": 0.023436000000003787,
          "durationTicks": 15,
          "midi": 35,
          "name": "B1",
          "ticks": 167040,
          "time": 260.983296,
          "velocity": 0.8740157480314961
        },
        {
          "duration": 0.023436000000003787,
          "durationTicks": 15,
          "midi": 44,
          "name": "G#2",
          "ticks": 167040,
          "time": 260.983296,
          "velocity": 0.7007874015748031
        },
        {
          "duration": 0.023436000000003787,
          "durationTicks": 15,
          "midi": 70,
          "name": "A#4",
          "ticks": 167040,
          "time": 260.983296,
          "velocity": 0.7952755905511811
        },
        {
          "duration": 0.023436000000003787,
          "durationTicks": 15,
          "midi": 44,
          "name": "G#2",
          "ticks": 167160,
          "time": 261.17078399999997,
          "velocity": 0.3543307086614173
        },
        {
          "duration": 0.023436000000003787,
          "durationTicks": 15,
          "midi": 70,
          "name": "A#4",
          "ticks": 167160,
          "time": 261.17078399999997,
          "velocity": 0.5275590551181102
        },
        {
          "duration": 0.023436000000003787,
          "durationTicks": 15,
          "midi": 44,
          "name": "G#2",
          "ticks": 167280,
          "time": 261.358272,
          "velocity": 0.5748031496062992
        },
        {
          "duration": 0.023436000000003787,
          "durationTicks": 15,
          "midi": 70,
          "name": "A#4",
          "ticks": 167280,
          "time": 261.358272,
          "velocity": 0.5984251968503937
        },
        {
          "duration": 0.023436000000003787,
          "durationTicks": 15,
          "midi": 82,
          "name": "A#5",
          "ticks": 167280,
          "time": 261.358272,
          "velocity": 0.4330708661417323
        },
        {
          "duration": 0.023436000000003787,
          "durationTicks": 15,
          "midi": 44,
          "name": "G#2",
          "ticks": 167400,
          "time": 261.54576,
          "velocity": 0.4251968503937008
        },
        {
          "duration": 0.023436000000003787,
          "durationTicks": 15,
          "midi": 70,
          "name": "A#4",
          "ticks": 167400,
          "time": 261.54576,
          "velocity": 0.5118110236220472
        },
        {
          "duration": 0.023436000000003787,
          "durationTicks": 15,
          "midi": 82,
          "name": "A#5",
          "ticks": 167400,
          "time": 261.54576,
          "velocity": 0.44881889763779526
        },
        {
          "duration": 0.023436000000003787,
          "durationTicks": 15,
          "midi": 38,
          "name": "D2",
          "ticks": 167520,
          "time": 261.733248,
          "velocity": 0.9212598425196851
        },
        {
          "duration": 0.023436000000003787,
          "durationTicks": 15,
          "midi": 39,
          "name": "D#2",
          "ticks": 167520,
          "time": 261.733248,
          "velocity": 0.9212598425196851
        },
        {
          "duration": 0.023436000000003787,
          "durationTicks": 15,
          "midi": 44,
          "name": "G#2",
          "ticks": 167520,
          "time": 261.733248,
          "velocity": 0.7165354330708661
        },
        {
          "duration": 0.023436000000003787,
          "durationTicks": 15,
          "midi": 70,
          "name": "A#4",
          "ticks": 167520,
          "time": 261.733248,
          "velocity": 0.7952755905511811
        },
        {
          "duration": 0.023436000000003787,
          "durationTicks": 15,
          "midi": 82,
          "name": "A#5",
          "ticks": 167520,
          "time": 261.733248,
          "velocity": 0.5590551181102362
        },
        {
          "duration": 0.023436000000003787,
          "durationTicks": 15,
          "midi": 44,
          "name": "G#2",
          "ticks": 167640,
          "time": 261.920736,
          "velocity": 0.4409448818897638
        },
        {
          "duration": 0.023436000000003787,
          "durationTicks": 15,
          "midi": 70,
          "name": "A#4",
          "ticks": 167640,
          "time": 261.920736,
          "velocity": 0.5275590551181102
        },
        {
          "duration": 0.023436000000003787,
          "durationTicks": 15,
          "midi": 35,
          "name": "B1",
          "ticks": 167760,
          "time": 262.108224,
          "velocity": 0.8740157480314961
        },
        {
          "duration": 0.023436000000003787,
          "durationTicks": 15,
          "midi": 44,
          "name": "G#2",
          "ticks": 167760,
          "time": 262.108224,
          "velocity": 0.5590551181102362
        },
        {
          "duration": 0.023436000000003787,
          "durationTicks": 15,
          "midi": 70,
          "name": "A#4",
          "ticks": 167760,
          "time": 262.108224,
          "velocity": 0.5984251968503937
        },
        {
          "duration": 0.023436000000003787,
          "durationTicks": 15,
          "midi": 44,
          "name": "G#2",
          "ticks": 167880,
          "time": 262.295712,
          "velocity": 0.4251968503937008
        },
        {
          "duration": 0.023436000000003787,
          "durationTicks": 15,
          "midi": 70,
          "name": "A#4",
          "ticks": 167880,
          "time": 262.295712,
          "velocity": 0.5118110236220472
        },
        {
          "duration": 0.023436000000003787,
          "durationTicks": 15,
          "midi": 82,
          "name": "A#5",
          "ticks": 167880,
          "time": 262.295712,
          "velocity": 0.3937007874015748
        },
        {
          "duration": 0.023435999999946944,
          "durationTicks": 15,
          "midi": 35,
          "name": "B1",
          "ticks": 168000,
          "time": 262.4832,
          "velocity": 0.8740157480314961
        },
        {
          "duration": 0.023435999999946944,
          "durationTicks": 15,
          "midi": 44,
          "name": "G#2",
          "ticks": 168000,
          "time": 262.4832,
          "velocity": 0.7007874015748031
        },
        {
          "duration": 0.023435999999946944,
          "durationTicks": 15,
          "midi": 70,
          "name": "A#4",
          "ticks": 168000,
          "time": 262.4832,
          "velocity": 0.7952755905511811
        },
        {
          "duration": 0.023435999999946944,
          "durationTicks": 15,
          "midi": 82,
          "name": "A#5",
          "ticks": 168000,
          "time": 262.4832,
          "velocity": 0.4015748031496063
        },
        {
          "duration": 0.023436000000003787,
          "durationTicks": 15,
          "midi": 44,
          "name": "G#2",
          "ticks": 168120,
          "time": 262.670688,
          "velocity": 0.3543307086614173
        },
        {
          "duration": 0.023436000000003787,
          "durationTicks": 15,
          "midi": 70,
          "name": "A#4",
          "ticks": 168120,
          "time": 262.670688,
          "velocity": 0.5275590551181102
        },
        {
          "duration": 0.023436000000003787,
          "durationTicks": 15,
          "midi": 44,
          "name": "G#2",
          "ticks": 168240,
          "time": 262.85817599999996,
          "velocity": 0.5748031496062992
        },
        {
          "duration": 0.023436000000003787,
          "durationTicks": 15,
          "midi": 70,
          "name": "A#4",
          "ticks": 168240,
          "time": 262.85817599999996,
          "velocity": 0.5984251968503937
        },
        {
          "duration": 0.023436000000003787,
          "durationTicks": 15,
          "midi": 82,
          "name": "A#5",
          "ticks": 168240,
          "time": 262.85817599999996,
          "velocity": 0.44881889763779526
        },
        {
          "duration": 0.023436000000003787,
          "durationTicks": 15,
          "midi": 44,
          "name": "G#2",
          "ticks": 168360,
          "time": 263.045664,
          "velocity": 0.4251968503937008
        },
        {
          "duration": 0.023436000000003787,
          "durationTicks": 15,
          "midi": 70,
          "name": "A#4",
          "ticks": 168360,
          "time": 263.045664,
          "velocity": 0.5118110236220472
        },
        {
          "duration": 0.023436000000003787,
          "durationTicks": 15,
          "midi": 82,
          "name": "A#5",
          "ticks": 168360,
          "time": 263.045664,
          "velocity": 0.48031496062992124
        },
        {
          "duration": 0.023436000000003787,
          "durationTicks": 15,
          "midi": 38,
          "name": "D2",
          "ticks": 168480,
          "time": 263.23315199999996,
          "velocity": 0.905511811023622
        },
        {
          "duration": 0.023436000000003787,
          "durationTicks": 15,
          "midi": 39,
          "name": "D#2",
          "ticks": 168480,
          "time": 263.23315199999996,
          "velocity": 0.905511811023622
        },
        {
          "duration": 0.023436000000003787,
          "durationTicks": 15,
          "midi": 44,
          "name": "G#2",
          "ticks": 168480,
          "time": 263.23315199999996,
          "velocity": 0.7165354330708661
        },
        {
          "duration": 0.023436000000003787,
          "durationTicks": 15,
          "midi": 70,
          "name": "A#4",
          "ticks": 168480,
          "time": 263.23315199999996,
          "velocity": 0.7952755905511811
        },
        {
          "duration": 0.023436000000003787,
          "durationTicks": 15,
          "midi": 82,
          "name": "A#5",
          "ticks": 168480,
          "time": 263.23315199999996,
          "velocity": 0.5275590551181102
        },
        {
          "duration": 0.023436000000003787,
          "durationTicks": 15,
          "midi": 44,
          "name": "G#2",
          "ticks": 168600,
          "time": 263.42064,
          "velocity": 0.4409448818897638
        },
        {
          "duration": 0.023436000000003787,
          "durationTicks": 15,
          "midi": 70,
          "name": "A#4",
          "ticks": 168600,
          "time": 263.42064,
          "velocity": 0.5275590551181102
        },
        {
          "duration": 0.023436000000003787,
          "durationTicks": 15,
          "midi": 46,
          "name": "A#2",
          "ticks": 168720,
          "time": 263.60812799999997,
          "velocity": 0.6062992125984252
        },
        {
          "duration": 0.023436000000003787,
          "durationTicks": 15,
          "midi": 70,
          "name": "A#4",
          "ticks": 168720,
          "time": 263.60812799999997,
          "velocity": 0.5984251968503937
        },
        {
          "duration": 0.023436000000003787,
          "durationTicks": 15,
          "midi": 82,
          "name": "A#5",
          "ticks": 168720,
          "time": 263.60812799999997,
          "velocity": 0.48031496062992124
        },
        {
          "duration": 0.023436000000003787,
          "durationTicks": 15,
          "midi": 35,
          "name": "B1",
          "ticks": 168840,
          "time": 263.795616,
          "velocity": 0.8740157480314961
        },
        {
          "duration": 0.023436000000003787,
          "durationTicks": 15,
          "midi": 70,
          "name": "A#4",
          "ticks": 168840,
          "time": 263.795616,
          "velocity": 0.5118110236220472
        },
        {
          "duration": 0.023436000000003787,
          "durationTicks": 15,
          "midi": 82,
          "name": "A#5",
          "ticks": 168840,
          "time": 263.795616,
          "velocity": 0.4015748031496063
        },
        {
          "duration": 0.023436000000003787,
          "durationTicks": 15,
          "midi": 35,
          "name": "B1",
          "ticks": 168960,
          "time": 263.98310399999997,
          "velocity": 0.889763779527559
        },
        {
          "duration": 0.023436000000003787,
          "durationTicks": 15,
          "midi": 44,
          "name": "G#2",
          "ticks": 168960,
          "time": 263.98310399999997,
          "velocity": 0.7007874015748031
        },
        {
          "duration": 0.023436000000003787,
          "durationTicks": 15,
          "midi": 49,
          "name": "C#3",
          "ticks": 168960,
          "time": 263.98310399999997,
          "velocity": 0.47244094488188976
        },
        {
          "duration": 0.023436000000003787,
          "durationTicks": 15,
          "midi": 59,
          "name": "B3",
          "ticks": 168960,
          "time": 263.98310399999997,
          "velocity": 0.952755905511811
        },
        {
          "duration": 0.023436000000003787,
          "durationTicks": 15,
          "midi": 70,
          "name": "A#4",
          "ticks": 168960,
          "time": 263.98310399999997,
          "velocity": 0.7952755905511811
        },
        {
          "duration": 0.023436000000003787,
          "durationTicks": 15,
          "midi": 44,
          "name": "G#2",
          "ticks": 169080,
          "time": 264.170592,
          "velocity": 0.3543307086614173
        },
        {
          "duration": 0.023436000000003787,
          "durationTicks": 15,
          "midi": 70,
          "name": "A#4",
          "ticks": 169080,
          "time": 264.170592,
          "velocity": 0.5275590551181102
        },
        {
          "duration": 0.023436000000003787,
          "durationTicks": 15,
          "midi": 44,
          "name": "G#2",
          "ticks": 169200,
          "time": 264.35808,
          "velocity": 0.5748031496062992
        },
        {
          "duration": 0.023436000000003787,
          "durationTicks": 15,
          "midi": 70,
          "name": "A#4",
          "ticks": 169200,
          "time": 264.35808,
          "velocity": 0.5984251968503937
        },
        {
          "duration": 0.023436000000003787,
          "durationTicks": 15,
          "midi": 82,
          "name": "A#5",
          "ticks": 169200,
          "time": 264.35808,
          "velocity": 0.4330708661417323
        },
        {
          "duration": 0.023436000000003787,
          "durationTicks": 15,
          "midi": 44,
          "name": "G#2",
          "ticks": 169320,
          "time": 264.545568,
          "velocity": 0.4251968503937008
        },
        {
          "duration": 0.023436000000003787,
          "durationTicks": 15,
          "midi": 70,
          "name": "A#4",
          "ticks": 169320,
          "time": 264.545568,
          "velocity": 0.5118110236220472
        },
        {
          "duration": 0.023436000000003787,
          "durationTicks": 15,
          "midi": 82,
          "name": "A#5",
          "ticks": 169320,
          "time": 264.545568,
          "velocity": 0.44881889763779526
        },
        {
          "duration": 0.023436000000003787,
          "durationTicks": 15,
          "midi": 38,
          "name": "D2",
          "ticks": 169440,
          "time": 264.733056,
          "velocity": 0.9212598425196851
        },
        {
          "duration": 0.023436000000003787,
          "durationTicks": 15,
          "midi": 39,
          "name": "D#2",
          "ticks": 169440,
          "time": 264.733056,
          "velocity": 0.9212598425196851
        },
        {
          "duration": 0.023436000000003787,
          "durationTicks": 15,
          "midi": 44,
          "name": "G#2",
          "ticks": 169440,
          "time": 264.733056,
          "velocity": 0.7165354330708661
        },
        {
          "duration": 0.023436000000003787,
          "durationTicks": 15,
          "midi": 70,
          "name": "A#4",
          "ticks": 169440,
          "time": 264.733056,
          "velocity": 0.7952755905511811
        },
        {
          "duration": 0.023436000000003787,
          "durationTicks": 15,
          "midi": 82,
          "name": "A#5",
          "ticks": 169440,
          "time": 264.733056,
          "velocity": 0.5590551181102362
        },
        {
          "duration": 0.023436000000003787,
          "durationTicks": 15,
          "midi": 44,
          "name": "G#2",
          "ticks": 169560,
          "time": 264.920544,
          "velocity": 0.4409448818897638
        },
        {
          "duration": 0.023436000000003787,
          "durationTicks": 15,
          "midi": 70,
          "name": "A#4",
          "ticks": 169560,
          "time": 264.920544,
          "velocity": 0.5275590551181102
        },
        {
          "duration": 0.023436000000003787,
          "durationTicks": 15,
          "midi": 35,
          "name": "B1",
          "ticks": 169680,
          "time": 265.108032,
          "velocity": 0.7480314960629921
        },
        {
          "duration": 0.023436000000003787,
          "durationTicks": 15,
          "midi": 44,
          "name": "G#2",
          "ticks": 169680,
          "time": 265.108032,
          "velocity": 0.5590551181102362
        },
        {
          "duration": 0.023436000000003787,
          "durationTicks": 15,
          "midi": 70,
          "name": "A#4",
          "ticks": 169680,
          "time": 265.108032,
          "velocity": 0.5984251968503937
        },
        {
          "duration": 0.023435999999946944,
          "durationTicks": 15,
          "midi": 35,
          "name": "B1",
          "ticks": 169800,
          "time": 265.29552,
          "velocity": 0.7480314960629921
        },
        {
          "duration": 0.023435999999946944,
          "durationTicks": 15,
          "midi": 44,
          "name": "G#2",
          "ticks": 169800,
          "time": 265.29552,
          "velocity": 0.4251968503937008
        },
        {
          "duration": 0.023435999999946944,
          "durationTicks": 15,
          "midi": 70,
          "name": "A#4",
          "ticks": 169800,
          "time": 265.29552,
          "velocity": 0.5118110236220472
        },
        {
          "duration": 0.023435999999946944,
          "durationTicks": 15,
          "midi": 82,
          "name": "A#5",
          "ticks": 169800,
          "time": 265.29552,
          "velocity": 0.3937007874015748
        },
        {
          "duration": 0.023436000000003787,
          "durationTicks": 15,
          "midi": 35,
          "name": "B1",
          "ticks": 169920,
          "time": 265.483008,
          "velocity": 0.8740157480314961
        },
        {
          "duration": 0.023436000000003787,
          "durationTicks": 15,
          "midi": 44,
          "name": "G#2",
          "ticks": 169920,
          "time": 265.483008,
          "velocity": 0.7007874015748031
        },
        {
          "duration": 0.023436000000003787,
          "durationTicks": 15,
          "midi": 70,
          "name": "A#4",
          "ticks": 169920,
          "time": 265.483008,
          "velocity": 0.7952755905511811
        },
        {
          "duration": 0.023436000000003787,
          "durationTicks": 15,
          "midi": 82,
          "name": "A#5",
          "ticks": 169920,
          "time": 265.483008,
          "velocity": 0.4015748031496063
        },
        {
          "duration": 0.023436000000003787,
          "durationTicks": 15,
          "midi": 44,
          "name": "G#2",
          "ticks": 170040,
          "time": 265.67049599999996,
          "velocity": 0.3543307086614173
        },
        {
          "duration": 0.023436000000003787,
          "durationTicks": 15,
          "midi": 70,
          "name": "A#4",
          "ticks": 170040,
          "time": 265.67049599999996,
          "velocity": 0.5275590551181102
        },
        {
          "duration": 0.023436000000003787,
          "durationTicks": 15,
          "midi": 44,
          "name": "G#2",
          "ticks": 170160,
          "time": 265.857984,
          "velocity": 0.5748031496062992
        },
        {
          "duration": 0.023436000000003787,
          "durationTicks": 15,
          "midi": 70,
          "name": "A#4",
          "ticks": 170160,
          "time": 265.857984,
          "velocity": 0.5984251968503937
        },
        {
          "duration": 0.023436000000003787,
          "durationTicks": 15,
          "midi": 82,
          "name": "A#5",
          "ticks": 170160,
          "time": 265.857984,
          "velocity": 0.44881889763779526
        },
        {
          "duration": 0.023436000000003787,
          "durationTicks": 15,
          "midi": 44,
          "name": "G#2",
          "ticks": 170280,
          "time": 266.04547199999996,
          "velocity": 0.4251968503937008
        },
        {
          "duration": 0.023436000000003787,
          "durationTicks": 15,
          "midi": 70,
          "name": "A#4",
          "ticks": 170280,
          "time": 266.04547199999996,
          "velocity": 0.5118110236220472
        },
        {
          "duration": 0.023436000000003787,
          "durationTicks": 15,
          "midi": 82,
          "name": "A#5",
          "ticks": 170280,
          "time": 266.04547199999996,
          "velocity": 0.48031496062992124
        },
        {
          "duration": 0.023436000000003787,
          "durationTicks": 15,
          "midi": 38,
          "name": "D2",
          "ticks": 170400,
          "time": 266.23296,
          "velocity": 0.905511811023622
        },
        {
          "duration": 0.023436000000003787,
          "durationTicks": 15,
          "midi": 39,
          "name": "D#2",
          "ticks": 170400,
          "time": 266.23296,
          "velocity": 0.905511811023622
        },
        {
          "duration": 0.023436000000003787,
          "durationTicks": 15,
          "midi": 44,
          "name": "G#2",
          "ticks": 170400,
          "time": 266.23296,
          "velocity": 0.7165354330708661
        },
        {
          "duration": 0.023436000000003787,
          "durationTicks": 15,
          "midi": 70,
          "name": "A#4",
          "ticks": 170400,
          "time": 266.23296,
          "velocity": 0.7952755905511811
        },
        {
          "duration": 0.023436000000003787,
          "durationTicks": 15,
          "midi": 82,
          "name": "A#5",
          "ticks": 170400,
          "time": 266.23296,
          "velocity": 0.5275590551181102
        },
        {
          "duration": 0.023436000000003787,
          "durationTicks": 15,
          "midi": 44,
          "name": "G#2",
          "ticks": 170520,
          "time": 266.42044799999996,
          "velocity": 0.4409448818897638
        },
        {
          "duration": 0.023436000000003787,
          "durationTicks": 15,
          "midi": 70,
          "name": "A#4",
          "ticks": 170520,
          "time": 266.42044799999996,
          "velocity": 0.5275590551181102
        },
        {
          "duration": 0.023436000000003787,
          "durationTicks": 15,
          "midi": 46,
          "name": "A#2",
          "ticks": 170640,
          "time": 266.607936,
          "velocity": 0.6062992125984252
        },
        {
          "duration": 0.023436000000003787,
          "durationTicks": 15,
          "midi": 70,
          "name": "A#4",
          "ticks": 170640,
          "time": 266.607936,
          "velocity": 0.5984251968503937
        },
        {
          "duration": 0.023436000000003787,
          "durationTicks": 15,
          "midi": 82,
          "name": "A#5",
          "ticks": 170640,
          "time": 266.607936,
          "velocity": 0.48031496062992124
        },
        {
          "duration": 0.023436000000003787,
          "durationTicks": 15,
          "midi": 70,
          "name": "A#4",
          "ticks": 170760,
          "time": 266.79542399999997,
          "velocity": 0.5118110236220472
        },
        {
          "duration": 0.023436000000003787,
          "durationTicks": 15,
          "midi": 82,
          "name": "A#5",
          "ticks": 170760,
          "time": 266.79542399999997,
          "velocity": 0.4015748031496063
        },
        {
          "duration": 0.023436000000003787,
          "durationTicks": 15,
          "midi": 35,
          "name": "B1",
          "ticks": 170880,
          "time": 266.982912,
          "velocity": 0.9291338582677166
        },
        {
          "duration": 0.023436000000003787,
          "durationTicks": 15,
          "midi": 44,
          "name": "G#2",
          "ticks": 170880,
          "time": 266.982912,
          "velocity": 0.7007874015748031
        },
        {
          "duration": 0.023436000000003787,
          "durationTicks": 15,
          "midi": 70,
          "name": "A#4",
          "ticks": 170880,
          "time": 266.982912,
          "velocity": 0.7952755905511811
        },
        {
          "duration": 0.023436000000003787,
          "durationTicks": 15,
          "midi": 44,
          "name": "G#2",
          "ticks": 171000,
          "time": 267.1704,
          "velocity": 0.3543307086614173
        },
        {
          "duration": 0.023436000000003787,
          "durationTicks": 15,
          "midi": 70,
          "name": "A#4",
          "ticks": 171000,
          "time": 267.1704,
          "velocity": 0.5275590551181102
        },
        {
          "duration": 0.023436000000003787,
          "durationTicks": 15,
          "midi": 44,
          "name": "G#2",
          "ticks": 171120,
          "time": 267.357888,
          "velocity": 0.5748031496062992
        },
        {
          "duration": 0.023436000000003787,
          "durationTicks": 15,
          "midi": 70,
          "name": "A#4",
          "ticks": 171120,
          "time": 267.357888,
          "velocity": 0.5984251968503937
        },
        {
          "duration": 0.023436000000003787,
          "durationTicks": 15,
          "midi": 82,
          "name": "A#5",
          "ticks": 171120,
          "time": 267.357888,
          "velocity": 0.4330708661417323
        },
        {
          "duration": 0.023436000000003787,
          "durationTicks": 15,
          "midi": 44,
          "name": "G#2",
          "ticks": 171240,
          "time": 267.545376,
          "velocity": 0.4251968503937008
        },
        {
          "duration": 0.023436000000003787,
          "durationTicks": 15,
          "midi": 70,
          "name": "A#4",
          "ticks": 171240,
          "time": 267.545376,
          "velocity": 0.5118110236220472
        },
        {
          "duration": 0.023436000000003787,
          "durationTicks": 15,
          "midi": 82,
          "name": "A#5",
          "ticks": 171240,
          "time": 267.545376,
          "velocity": 0.44881889763779526
        },
        {
          "duration": 0.023436000000003787,
          "durationTicks": 15,
          "midi": 38,
          "name": "D2",
          "ticks": 171360,
          "time": 267.732864,
          "velocity": 0.9212598425196851
        },
        {
          "duration": 0.023436000000003787,
          "durationTicks": 15,
          "midi": 39,
          "name": "D#2",
          "ticks": 171360,
          "time": 267.732864,
          "velocity": 0.9212598425196851
        },
        {
          "duration": 0.023436000000003787,
          "durationTicks": 15,
          "midi": 44,
          "name": "G#2",
          "ticks": 171360,
          "time": 267.732864,
          "velocity": 0.7165354330708661
        },
        {
          "duration": 0.023436000000003787,
          "durationTicks": 15,
          "midi": 70,
          "name": "A#4",
          "ticks": 171360,
          "time": 267.732864,
          "velocity": 0.7952755905511811
        },
        {
          "duration": 0.023436000000003787,
          "durationTicks": 15,
          "midi": 82,
          "name": "A#5",
          "ticks": 171360,
          "time": 267.732864,
          "velocity": 0.5590551181102362
        },
        {
          "duration": 0.023436000000003787,
          "durationTicks": 15,
          "midi": 44,
          "name": "G#2",
          "ticks": 171480,
          "time": 267.920352,
          "velocity": 0.4409448818897638
        },
        {
          "duration": 0.023436000000003787,
          "durationTicks": 15,
          "midi": 70,
          "name": "A#4",
          "ticks": 171480,
          "time": 267.920352,
          "velocity": 0.5275590551181102
        },
        {
          "duration": 0.023435999999946944,
          "durationTicks": 15,
          "midi": 35,
          "name": "B1",
          "ticks": 171600,
          "time": 268.10784,
          "velocity": 0.8818897637795275
        },
        {
          "duration": 0.023435999999946944,
          "durationTicks": 15,
          "midi": 44,
          "name": "G#2",
          "ticks": 171600,
          "time": 268.10784,
          "velocity": 0.5590551181102362
        },
        {
          "duration": 0.023435999999946944,
          "durationTicks": 15,
          "midi": 70,
          "name": "A#4",
          "ticks": 171600,
          "time": 268.10784,
          "velocity": 0.5984251968503937
        },
        {
          "duration": 0.023436000000003787,
          "durationTicks": 15,
          "midi": 44,
          "name": "G#2",
          "ticks": 171720,
          "time": 268.295328,
          "velocity": 0.4251968503937008
        },
        {
          "duration": 0.023436000000003787,
          "durationTicks": 15,
          "midi": 70,
          "name": "A#4",
          "ticks": 171720,
          "time": 268.295328,
          "velocity": 0.5118110236220472
        },
        {
          "duration": 0.023436000000003787,
          "durationTicks": 15,
          "midi": 82,
          "name": "A#5",
          "ticks": 171720,
          "time": 268.295328,
          "velocity": 0.3937007874015748
        },
        {
          "duration": 0.023436000000003787,
          "durationTicks": 15,
          "midi": 35,
          "name": "B1",
          "ticks": 171840,
          "time": 268.48281599999996,
          "velocity": 0.905511811023622
        },
        {
          "duration": 0.023436000000003787,
          "durationTicks": 15,
          "midi": 44,
          "name": "G#2",
          "ticks": 171840,
          "time": 268.48281599999996,
          "velocity": 0.7007874015748031
        },
        {
          "duration": 0.023436000000003787,
          "durationTicks": 15,
          "midi": 70,
          "name": "A#4",
          "ticks": 171840,
          "time": 268.48281599999996,
          "velocity": 0.7952755905511811
        },
        {
          "duration": 0.023436000000003787,
          "durationTicks": 15,
          "midi": 82,
          "name": "A#5",
          "ticks": 171840,
          "time": 268.48281599999996,
          "velocity": 0.4015748031496063
        },
        {
          "duration": 0.023436000000003787,
          "durationTicks": 15,
          "midi": 44,
          "name": "G#2",
          "ticks": 171960,
          "time": 268.670304,
          "velocity": 0.3543307086614173
        },
        {
          "duration": 0.023436000000003787,
          "durationTicks": 15,
          "midi": 70,
          "name": "A#4",
          "ticks": 171960,
          "time": 268.670304,
          "velocity": 0.5275590551181102
        },
        {
          "duration": 0.023436000000003787,
          "durationTicks": 15,
          "midi": 44,
          "name": "G#2",
          "ticks": 172080,
          "time": 268.85779199999996,
          "velocity": 0.5748031496062992
        },
        {
          "duration": 0.023436000000003787,
          "durationTicks": 15,
          "midi": 70,
          "name": "A#4",
          "ticks": 172080,
          "time": 268.85779199999996,
          "velocity": 0.5984251968503937
        },
        {
          "duration": 0.023436000000003787,
          "durationTicks": 15,
          "midi": 82,
          "name": "A#5",
          "ticks": 172080,
          "time": 268.85779199999996,
          "velocity": 0.44881889763779526
        },
        {
          "duration": 0.023436000000003787,
          "durationTicks": 15,
          "midi": 44,
          "name": "G#2",
          "ticks": 172200,
          "time": 269.04528,
          "velocity": 0.4251968503937008
        },
        {
          "duration": 0.023436000000003787,
          "durationTicks": 15,
          "midi": 70,
          "name": "A#4",
          "ticks": 172200,
          "time": 269.04528,
          "velocity": 0.5118110236220472
        },
        {
          "duration": 0.023436000000003787,
          "durationTicks": 15,
          "midi": 82,
          "name": "A#5",
          "ticks": 172200,
          "time": 269.04528,
          "velocity": 0.48031496062992124
        },
        {
          "duration": 0.023436000000003787,
          "durationTicks": 15,
          "midi": 38,
          "name": "D2",
          "ticks": 172320,
          "time": 269.23276799999996,
          "velocity": 0.905511811023622
        },
        {
          "duration": 0.023436000000003787,
          "durationTicks": 15,
          "midi": 39,
          "name": "D#2",
          "ticks": 172320,
          "time": 269.23276799999996,
          "velocity": 0.905511811023622
        },
        {
          "duration": 0.023436000000003787,
          "durationTicks": 15,
          "midi": 44,
          "name": "G#2",
          "ticks": 172320,
          "time": 269.23276799999996,
          "velocity": 0.7165354330708661
        },
        {
          "duration": 0.023436000000003787,
          "durationTicks": 15,
          "midi": 70,
          "name": "A#4",
          "ticks": 172320,
          "time": 269.23276799999996,
          "velocity": 0.7952755905511811
        },
        {
          "duration": 0.023436000000003787,
          "durationTicks": 15,
          "midi": 82,
          "name": "A#5",
          "ticks": 172320,
          "time": 269.23276799999996,
          "velocity": 0.5275590551181102
        },
        {
          "duration": 0.023436000000003787,
          "durationTicks": 15,
          "midi": 44,
          "name": "G#2",
          "ticks": 172440,
          "time": 269.420256,
          "velocity": 0.4409448818897638
        },
        {
          "duration": 0.023436000000003787,
          "durationTicks": 15,
          "midi": 70,
          "name": "A#4",
          "ticks": 172440,
          "time": 269.420256,
          "velocity": 0.5275590551181102
        },
        {
          "duration": 0.023436000000003787,
          "durationTicks": 15,
          "midi": 46,
          "name": "A#2",
          "ticks": 172560,
          "time": 269.60774399999997,
          "velocity": 0.6062992125984252
        },
        {
          "duration": 0.023436000000003787,
          "durationTicks": 15,
          "midi": 70,
          "name": "A#4",
          "ticks": 172560,
          "time": 269.60774399999997,
          "velocity": 0.5984251968503937
        },
        {
          "duration": 0.023436000000003787,
          "durationTicks": 15,
          "midi": 82,
          "name": "A#5",
          "ticks": 172560,
          "time": 269.60774399999997,
          "velocity": 0.48031496062992124
        },
        {
          "duration": 0.023436000000003787,
          "durationTicks": 15,
          "midi": 35,
          "name": "B1",
          "ticks": 172680,
          "time": 269.795232,
          "velocity": 0.8740157480314961
        },
        {
          "duration": 0.023436000000003787,
          "durationTicks": 15,
          "midi": 70,
          "name": "A#4",
          "ticks": 172680,
          "time": 269.795232,
          "velocity": 0.5118110236220472
        },
        {
          "duration": 0.023436000000003787,
          "durationTicks": 15,
          "midi": 82,
          "name": "A#5",
          "ticks": 172680,
          "time": 269.795232,
          "velocity": 0.4015748031496063
        },
        {
          "duration": 0.023436000000003787,
          "durationTicks": 15,
          "midi": 35,
          "name": "B1",
          "ticks": 172800,
          "time": 269.98272,
          "velocity": 0.8740157480314961
        },
        {
          "duration": 0.023436000000003787,
          "durationTicks": 15,
          "midi": 44,
          "name": "G#2",
          "ticks": 172800,
          "time": 269.98272,
          "velocity": 0.7007874015748031
        },
        {
          "duration": 0.023436000000003787,
          "durationTicks": 15,
          "midi": 70,
          "name": "A#4",
          "ticks": 172800,
          "time": 269.98272,
          "velocity": 0.7952755905511811
        },
        {
          "duration": 0.023436000000003787,
          "durationTicks": 15,
          "midi": 44,
          "name": "G#2",
          "ticks": 172920,
          "time": 270.170208,
          "velocity": 0.3543307086614173
        },
        {
          "duration": 0.023436000000003787,
          "durationTicks": 15,
          "midi": 70,
          "name": "A#4",
          "ticks": 172920,
          "time": 270.170208,
          "velocity": 0.5275590551181102
        },
        {
          "duration": 0.023436000000003787,
          "durationTicks": 15,
          "midi": 44,
          "name": "G#2",
          "ticks": 173040,
          "time": 270.357696,
          "velocity": 0.5748031496062992
        },
        {
          "duration": 0.023436000000003787,
          "durationTicks": 15,
          "midi": 70,
          "name": "A#4",
          "ticks": 173040,
          "time": 270.357696,
          "velocity": 0.5984251968503937
        },
        {
          "duration": 0.023436000000003787,
          "durationTicks": 15,
          "midi": 82,
          "name": "A#5",
          "ticks": 173040,
          "time": 270.357696,
          "velocity": 0.4330708661417323
        },
        {
          "duration": 0.023436000000003787,
          "durationTicks": 15,
          "midi": 44,
          "name": "G#2",
          "ticks": 173160,
          "time": 270.545184,
          "velocity": 0.4251968503937008
        },
        {
          "duration": 0.023436000000003787,
          "durationTicks": 15,
          "midi": 70,
          "name": "A#4",
          "ticks": 173160,
          "time": 270.545184,
          "velocity": 0.5118110236220472
        },
        {
          "duration": 0.023436000000003787,
          "durationTicks": 15,
          "midi": 82,
          "name": "A#5",
          "ticks": 173160,
          "time": 270.545184,
          "velocity": 0.44881889763779526
        },
        {
          "duration": 0.023436000000003787,
          "durationTicks": 15,
          "midi": 38,
          "name": "D2",
          "ticks": 173280,
          "time": 270.732672,
          "velocity": 0.9212598425196851
        },
        {
          "duration": 0.023436000000003787,
          "durationTicks": 15,
          "midi": 39,
          "name": "D#2",
          "ticks": 173280,
          "time": 270.732672,
          "velocity": 0.9212598425196851
        },
        {
          "duration": 0.023436000000003787,
          "durationTicks": 15,
          "midi": 44,
          "name": "G#2",
          "ticks": 173280,
          "time": 270.732672,
          "velocity": 0.7165354330708661
        },
        {
          "duration": 0.023436000000003787,
          "durationTicks": 15,
          "midi": 70,
          "name": "A#4",
          "ticks": 173280,
          "time": 270.732672,
          "velocity": 0.7952755905511811
        },
        {
          "duration": 0.023436000000003787,
          "durationTicks": 15,
          "midi": 82,
          "name": "A#5",
          "ticks": 173280,
          "time": 270.732672,
          "velocity": 0.5590551181102362
        },
        {
          "duration": 0.023435999999946944,
          "durationTicks": 15,
          "midi": 44,
          "name": "G#2",
          "ticks": 173400,
          "time": 270.92016,
          "velocity": 0.4409448818897638
        },
        {
          "duration": 0.023435999999946944,
          "durationTicks": 15,
          "midi": 70,
          "name": "A#4",
          "ticks": 173400,
          "time": 270.92016,
          "velocity": 0.5275590551181102
        },
        {
          "duration": 0.023436000000003787,
          "durationTicks": 15,
          "midi": 35,
          "name": "B1",
          "ticks": 173520,
          "time": 271.107648,
          "velocity": 0.7480314960629921
        },
        {
          "duration": 0.023436000000003787,
          "durationTicks": 15,
          "midi": 44,
          "name": "G#2",
          "ticks": 173520,
          "time": 271.107648,
          "velocity": 0.5590551181102362
        },
        {
          "duration": 0.023436000000003787,
          "durationTicks": 15,
          "midi": 70,
          "name": "A#4",
          "ticks": 173520,
          "time": 271.107648,
          "velocity": 0.5984251968503937
        },
        {
          "duration": 0.023436000000003787,
          "durationTicks": 15,
          "midi": 35,
          "name": "B1",
          "ticks": 173640,
          "time": 271.29513599999996,
          "velocity": 0.7480314960629921
        },
        {
          "duration": 0.023436000000003787,
          "durationTicks": 15,
          "midi": 44,
          "name": "G#2",
          "ticks": 173640,
          "time": 271.29513599999996,
          "velocity": 0.4251968503937008
        },
        {
          "duration": 0.023436000000003787,
          "durationTicks": 15,
          "midi": 70,
          "name": "A#4",
          "ticks": 173640,
          "time": 271.29513599999996,
          "velocity": 0.5118110236220472
        },
        {
          "duration": 0.023436000000003787,
          "durationTicks": 15,
          "midi": 82,
          "name": "A#5",
          "ticks": 173640,
          "time": 271.29513599999996,
          "velocity": 0.3937007874015748
        },
        {
          "duration": 0.023436000000003787,
          "durationTicks": 15,
          "midi": 35,
          "name": "B1",
          "ticks": 173760,
          "time": 271.482624,
          "velocity": 0.8740157480314961
        },
        {
          "duration": 0.023436000000003787,
          "durationTicks": 15,
          "midi": 44,
          "name": "G#2",
          "ticks": 173760,
          "time": 271.482624,
          "velocity": 0.7007874015748031
        },
        {
          "duration": 0.023436000000003787,
          "durationTicks": 15,
          "midi": 70,
          "name": "A#4",
          "ticks": 173760,
          "time": 271.482624,
          "velocity": 0.7952755905511811
        },
        {
          "duration": 0.023436000000003787,
          "durationTicks": 15,
          "midi": 82,
          "name": "A#5",
          "ticks": 173760,
          "time": 271.482624,
          "velocity": 0.4015748031496063
        },
        {
          "duration": 0.023436000000003787,
          "durationTicks": 15,
          "midi": 44,
          "name": "G#2",
          "ticks": 173880,
          "time": 271.67011199999996,
          "velocity": 0.3543307086614173
        },
        {
          "duration": 0.023436000000003787,
          "durationTicks": 15,
          "midi": 70,
          "name": "A#4",
          "ticks": 173880,
          "time": 271.67011199999996,
          "velocity": 0.5275590551181102
        },
        {
          "duration": 0.023436000000003787,
          "durationTicks": 15,
          "midi": 44,
          "name": "G#2",
          "ticks": 174000,
          "time": 271.8576,
          "velocity": 0.5748031496062992
        },
        {
          "duration": 0.023436000000003787,
          "durationTicks": 15,
          "midi": 70,
          "name": "A#4",
          "ticks": 174000,
          "time": 271.8576,
          "velocity": 0.5984251968503937
        },
        {
          "duration": 0.023436000000003787,
          "durationTicks": 15,
          "midi": 82,
          "name": "A#5",
          "ticks": 174000,
          "time": 271.8576,
          "velocity": 0.44881889763779526
        },
        {
          "duration": 0.023436000000003787,
          "durationTicks": 15,
          "midi": 35,
          "name": "B1",
          "ticks": 174120,
          "time": 272.04508799999996,
          "velocity": 0.984251968503937
        },
        {
          "duration": 0.023436000000003787,
          "durationTicks": 15,
          "midi": 44,
          "name": "G#2",
          "ticks": 174120,
          "time": 272.04508799999996,
          "velocity": 0.4251968503937008
        },
        {
          "duration": 0.023436000000003787,
          "durationTicks": 15,
          "midi": 70,
          "name": "A#4",
          "ticks": 174120,
          "time": 272.04508799999996,
          "velocity": 0.5118110236220472
        },
        {
          "duration": 0.023436000000003787,
          "durationTicks": 15,
          "midi": 82,
          "name": "A#5",
          "ticks": 174120,
          "time": 272.04508799999996,
          "velocity": 0.48031496062992124
        },
        {
          "duration": 0.023436000000003787,
          "durationTicks": 15,
          "midi": 38,
          "name": "D2",
          "ticks": 174240,
          "time": 272.232576,
          "velocity": 0.905511811023622
        },
        {
          "duration": 0.023436000000003787,
          "durationTicks": 15,
          "midi": 39,
          "name": "D#2",
          "ticks": 174240,
          "time": 272.232576,
          "velocity": 0.905511811023622
        },
        {
          "duration": 0.023436000000003787,
          "durationTicks": 15,
          "midi": 44,
          "name": "G#2",
          "ticks": 174240,
          "time": 272.232576,
          "velocity": 0.7165354330708661
        },
        {
          "duration": 0.023436000000003787,
          "durationTicks": 15,
          "midi": 70,
          "name": "A#4",
          "ticks": 174240,
          "time": 272.232576,
          "velocity": 0.7952755905511811
        },
        {
          "duration": 0.023436000000003787,
          "durationTicks": 15,
          "midi": 82,
          "name": "A#5",
          "ticks": 174240,
          "time": 272.232576,
          "velocity": 0.5275590551181102
        },
        {
          "duration": 0.023436000000003787,
          "durationTicks": 15,
          "midi": 44,
          "name": "G#2",
          "ticks": 174360,
          "time": 272.42006399999997,
          "velocity": 0.4409448818897638
        },
        {
          "duration": 0.023436000000003787,
          "durationTicks": 15,
          "midi": 70,
          "name": "A#4",
          "ticks": 174360,
          "time": 272.42006399999997,
          "velocity": 0.5275590551181102
        },
        {
          "duration": 0.023436000000003787,
          "durationTicks": 15,
          "midi": 46,
          "name": "A#2",
          "ticks": 174480,
          "time": 272.607552,
          "velocity": 0.6062992125984252
        },
        {
          "duration": 0.023436000000003787,
          "durationTicks": 15,
          "midi": 70,
          "name": "A#4",
          "ticks": 174480,
          "time": 272.607552,
          "velocity": 0.5984251968503937
        },
        {
          "duration": 0.023436000000003787,
          "durationTicks": 15,
          "midi": 82,
          "name": "A#5",
          "ticks": 174480,
          "time": 272.607552,
          "velocity": 0.48031496062992124
        },
        {
          "duration": 0.023436000000003787,
          "durationTicks": 15,
          "midi": 70,
          "name": "A#4",
          "ticks": 174600,
          "time": 272.79504,
          "velocity": 0.5118110236220472
        },
        {
          "duration": 0.023436000000003787,
          "durationTicks": 15,
          "midi": 82,
          "name": "A#5",
          "ticks": 174600,
          "time": 272.79504,
          "velocity": 0.4015748031496063
        },
        {
          "duration": 0.023436000000003787,
          "durationTicks": 15,
          "midi": 35,
          "name": "B1",
          "ticks": 174720,
          "time": 272.982528,
          "velocity": 0.8740157480314961
        },
        {
          "duration": 0.023436000000003787,
          "durationTicks": 15,
          "midi": 44,
          "name": "G#2",
          "ticks": 174720,
          "time": 272.982528,
          "velocity": 0.7007874015748031
        },
        {
          "duration": 0.023436000000003787,
          "durationTicks": 15,
          "midi": 70,
          "name": "A#4",
          "ticks": 174720,
          "time": 272.982528,
          "velocity": 0.7952755905511811
        },
        {
          "duration": 0.023436000000003787,
          "durationTicks": 15,
          "midi": 44,
          "name": "G#2",
          "ticks": 174840,
          "time": 273.170016,
          "velocity": 0.3543307086614173
        },
        {
          "duration": 0.023436000000003787,
          "durationTicks": 15,
          "midi": 70,
          "name": "A#4",
          "ticks": 174840,
          "time": 273.170016,
          "velocity": 0.5275590551181102
        },
        {
          "duration": 0.023436000000003787,
          "durationTicks": 15,
          "midi": 44,
          "name": "G#2",
          "ticks": 174960,
          "time": 273.357504,
          "velocity": 0.5748031496062992
        },
        {
          "duration": 0.023436000000003787,
          "durationTicks": 15,
          "midi": 82,
          "name": "A#5",
          "ticks": 174960,
          "time": 273.357504,
          "velocity": 0.4330708661417323
        },
        {
          "duration": 0.023436000000003787,
          "durationTicks": 15,
          "midi": 44,
          "name": "G#2",
          "ticks": 175080,
          "time": 273.544992,
          "velocity": 0.4251968503937008
        },
        {
          "duration": 0.023436000000003787,
          "durationTicks": 15,
          "midi": 70,
          "name": "A#4",
          "ticks": 175080,
          "time": 273.544992,
          "velocity": 0.5118110236220472
        },
        {
          "duration": 0.023436000000003787,
          "durationTicks": 15,
          "midi": 82,
          "name": "A#5",
          "ticks": 175080,
          "time": 273.544992,
          "velocity": 0.44881889763779526
        },
        {
          "duration": 0.023435999999946944,
          "durationTicks": 15,
          "midi": 38,
          "name": "D2",
          "ticks": 175200,
          "time": 273.73248,
          "velocity": 0.9212598425196851
        },
        {
          "duration": 0.023435999999946944,
          "durationTicks": 15,
          "midi": 39,
          "name": "D#2",
          "ticks": 175200,
          "time": 273.73248,
          "velocity": 0.9212598425196851
        },
        {
          "duration": 0.023435999999946944,
          "durationTicks": 15,
          "midi": 44,
          "name": "G#2",
          "ticks": 175200,
          "time": 273.73248,
          "velocity": 0.7165354330708661
        },
        {
          "duration": 0.023436000000003787,
          "durationTicks": 15,
          "midi": 44,
          "name": "G#2",
          "ticks": 175320,
          "time": 273.919968,
          "velocity": 0.4409448818897638
        },
        {
          "duration": 0.023436000000003787,
          "durationTicks": 15,
          "midi": 70,
          "name": "A#4",
          "ticks": 175320,
          "time": 273.919968,
          "velocity": 0.5275590551181102
        },
        {
          "duration": 0.023436000000003787,
          "durationTicks": 15,
          "midi": 82,
          "name": "A#5",
          "ticks": 175320,
          "time": 273.919968,
          "velocity": 0.4881889763779528
        },
        {
          "duration": 0.023436000000003787,
          "durationTicks": 15,
          "midi": 35,
          "name": "B1",
          "ticks": 175440,
          "time": 274.10745599999996,
          "velocity": 0.8740157480314961
        },
        {
          "duration": 0.023436000000003787,
          "durationTicks": 15,
          "midi": 44,
          "name": "G#2",
          "ticks": 175440,
          "time": 274.10745599999996,
          "velocity": 0.5590551181102362
        },
        {
          "duration": 0.023436000000003787,
          "durationTicks": 15,
          "midi": 70,
          "name": "A#4",
          "ticks": 175440,
          "time": 274.10745599999996,
          "velocity": 0.5984251968503937
        },
        {
          "duration": 0.023436000000003787,
          "durationTicks": 15,
          "midi": 44,
          "name": "G#2",
          "ticks": 175560,
          "time": 274.294944,
          "velocity": 0.4251968503937008
        },
        {
          "duration": 0.023436000000003787,
          "durationTicks": 15,
          "midi": 70,
          "name": "A#4",
          "ticks": 175560,
          "time": 274.294944,
          "velocity": 0.5118110236220472
        },
        {
          "duration": 0.023436000000003787,
          "durationTicks": 15,
          "midi": 82,
          "name": "A#5",
          "ticks": 175560,
          "time": 274.294944,
          "velocity": 0.3937007874015748
        },
        {
          "duration": 0.023436000000003787,
          "durationTicks": 15,
          "midi": 35,
          "name": "B1",
          "ticks": 175680,
          "time": 274.48243199999996,
          "velocity": 0.8740157480314961
        },
        {
          "duration": 0.023436000000003787,
          "durationTicks": 15,
          "midi": 44,
          "name": "G#2",
          "ticks": 175680,
          "time": 274.48243199999996,
          "velocity": 0.7007874015748031
        },
        {
          "duration": 0.023436000000003787,
          "durationTicks": 15,
          "midi": 70,
          "name": "A#4",
          "ticks": 175680,
          "time": 274.48243199999996,
          "velocity": 0.7952755905511811
        },
        {
          "duration": 0.023436000000003787,
          "durationTicks": 15,
          "midi": 82,
          "name": "A#5",
          "ticks": 175680,
          "time": 274.48243199999996,
          "velocity": 0.4015748031496063
        },
        {
          "duration": 0.023436000000003787,
          "durationTicks": 15,
          "midi": 44,
          "name": "G#2",
          "ticks": 175800,
          "time": 274.66992,
          "velocity": 0.3543307086614173
        },
        {
          "duration": 0.023436000000003787,
          "durationTicks": 15,
          "midi": 70,
          "name": "A#4",
          "ticks": 175800,
          "time": 274.66992,
          "velocity": 0.5275590551181102
        },
        {
          "duration": 0.023436000000003787,
          "durationTicks": 15,
          "midi": 44,
          "name": "G#2",
          "ticks": 175920,
          "time": 274.85740799999996,
          "velocity": 0.5748031496062992
        },
        {
          "duration": 0.023436000000003787,
          "durationTicks": 15,
          "midi": 70,
          "name": "A#4",
          "ticks": 175920,
          "time": 274.85740799999996,
          "velocity": 0.5984251968503937
        },
        {
          "duration": 0.023436000000003787,
          "durationTicks": 15,
          "midi": 82,
          "name": "A#5",
          "ticks": 175920,
          "time": 274.85740799999996,
          "velocity": 0.44881889763779526
        },
        {
          "duration": 0.023436000000003787,
          "durationTicks": 15,
          "midi": 44,
          "name": "G#2",
          "ticks": 176040,
          "time": 275.044896,
          "velocity": 0.4251968503937008
        },
        {
          "duration": 0.023436000000003787,
          "durationTicks": 15,
          "midi": 70,
          "name": "A#4",
          "ticks": 176040,
          "time": 275.044896,
          "velocity": 0.5118110236220472
        },
        {
          "duration": 0.023436000000003787,
          "durationTicks": 15,
          "midi": 82,
          "name": "A#5",
          "ticks": 176040,
          "time": 275.044896,
          "velocity": 0.48031496062992124
        },
        {
          "duration": 0.023436000000003787,
          "durationTicks": 15,
          "midi": 38,
          "name": "D2",
          "ticks": 176160,
          "time": 275.23238399999997,
          "velocity": 0.905511811023622
        },
        {
          "duration": 0.023436000000003787,
          "durationTicks": 15,
          "midi": 39,
          "name": "D#2",
          "ticks": 176160,
          "time": 275.23238399999997,
          "velocity": 0.905511811023622
        },
        {
          "duration": 0.023436000000003787,
          "durationTicks": 15,
          "midi": 44,
          "name": "G#2",
          "ticks": 176160,
          "time": 275.23238399999997,
          "velocity": 0.7165354330708661
        },
        {
          "duration": 0.023436000000003787,
          "durationTicks": 15,
          "midi": 70,
          "name": "A#4",
          "ticks": 176160,
          "time": 275.23238399999997,
          "velocity": 0.7952755905511811
        },
        {
          "duration": 0.023436000000003787,
          "durationTicks": 15,
          "midi": 82,
          "name": "A#5",
          "ticks": 176160,
          "time": 275.23238399999997,
          "velocity": 0.5275590551181102
        },
        {
          "duration": 0.023436000000003787,
          "durationTicks": 15,
          "midi": 44,
          "name": "G#2",
          "ticks": 176280,
          "time": 275.419872,
          "velocity": 0.4409448818897638
        },
        {
          "duration": 0.023436000000003787,
          "durationTicks": 15,
          "midi": 70,
          "name": "A#4",
          "ticks": 176280,
          "time": 275.419872,
          "velocity": 0.5275590551181102
        },
        {
          "duration": 0.023436000000003787,
          "durationTicks": 15,
          "midi": 46,
          "name": "A#2",
          "ticks": 176400,
          "time": 275.60735999999997,
          "velocity": 0.6062992125984252
        },
        {
          "duration": 0.023436000000003787,
          "durationTicks": 15,
          "midi": 70,
          "name": "A#4",
          "ticks": 176400,
          "time": 275.60735999999997,
          "velocity": 0.5984251968503937
        },
        {
          "duration": 0.023436000000003787,
          "durationTicks": 15,
          "midi": 82,
          "name": "A#5",
          "ticks": 176400,
          "time": 275.60735999999997,
          "velocity": 0.48031496062992124
        },
        {
          "duration": 0.023436000000003787,
          "durationTicks": 15,
          "midi": 35,
          "name": "B1",
          "ticks": 176520,
          "time": 275.794848,
          "velocity": 0.8740157480314961
        },
        {
          "duration": 0.023436000000003787,
          "durationTicks": 15,
          "midi": 70,
          "name": "A#4",
          "ticks": 176520,
          "time": 275.794848,
          "velocity": 0.5118110236220472
        },
        {
          "duration": 0.023436000000003787,
          "durationTicks": 15,
          "midi": 82,
          "name": "A#5",
          "ticks": 176520,
          "time": 275.794848,
          "velocity": 0.4015748031496063
        },
        {
          "duration": 0.023436000000003787,
          "durationTicks": 15,
          "midi": 35,
          "name": "B1",
          "ticks": 176640,
          "time": 275.982336,
          "velocity": 0.889763779527559
        },
        {
          "duration": 0.023436000000003787,
          "durationTicks": 15,
          "midi": 44,
          "name": "G#2",
          "ticks": 176640,
          "time": 275.982336,
          "velocity": 0.7007874015748031
        },
        {
          "duration": 0.023436000000003787,
          "durationTicks": 15,
          "midi": 49,
          "name": "C#3",
          "ticks": 176640,
          "time": 275.982336,
          "velocity": 0.47244094488188976
        },
        {
          "duration": 0.023436000000003787,
          "durationTicks": 15,
          "midi": 59,
          "name": "B3",
          "ticks": 176640,
          "time": 275.982336,
          "velocity": 0.952755905511811
        },
        {
          "duration": 0.023436000000003787,
          "durationTicks": 15,
          "midi": 70,
          "name": "A#4",
          "ticks": 176640,
          "time": 275.982336,
          "velocity": 0.7952755905511811
        },
        {
          "duration": 0.023436000000003787,
          "durationTicks": 15,
          "midi": 44,
          "name": "G#2",
          "ticks": 176760,
          "time": 276.169824,
          "velocity": 0.3543307086614173
        },
        {
          "duration": 0.023436000000003787,
          "durationTicks": 15,
          "midi": 70,
          "name": "A#4",
          "ticks": 176760,
          "time": 276.169824,
          "velocity": 0.5275590551181102
        },
        {
          "duration": 0.023436000000003787,
          "durationTicks": 15,
          "midi": 44,
          "name": "G#2",
          "ticks": 176880,
          "time": 276.357312,
          "velocity": 0.5748031496062992
        },
        {
          "duration": 0.023436000000003787,
          "durationTicks": 15,
          "midi": 70,
          "name": "A#4",
          "ticks": 176880,
          "time": 276.357312,
          "velocity": 0.5984251968503937
        },
        {
          "duration": 0.023436000000003787,
          "durationTicks": 15,
          "midi": 82,
          "name": "A#5",
          "ticks": 176880,
          "time": 276.357312,
          "velocity": 0.4330708661417323
        },
        {
          "duration": 0.023435999999946944,
          "durationTicks": 15,
          "midi": 44,
          "name": "G#2",
          "ticks": 177000,
          "time": 276.5448,
          "velocity": 0.4251968503937008
        },
        {
          "duration": 0.023435999999946944,
          "durationTicks": 15,
          "midi": 70,
          "name": "A#4",
          "ticks": 177000,
          "time": 276.5448,
          "velocity": 0.5118110236220472
        },
        {
          "duration": 0.023435999999946944,
          "durationTicks": 15,
          "midi": 82,
          "name": "A#5",
          "ticks": 177000,
          "time": 276.5448,
          "velocity": 0.44881889763779526
        },
        {
          "duration": 0.023436000000003787,
          "durationTicks": 15,
          "midi": 38,
          "name": "D2",
          "ticks": 177120,
          "time": 276.732288,
          "velocity": 0.9212598425196851
        },
        {
          "duration": 0.023436000000003787,
          "durationTicks": 15,
          "midi": 39,
          "name": "D#2",
          "ticks": 177120,
          "time": 276.732288,
          "velocity": 0.9212598425196851
        },
        {
          "duration": 0.023436000000003787,
          "durationTicks": 15,
          "midi": 44,
          "name": "G#2",
          "ticks": 177120,
          "time": 276.732288,
          "velocity": 0.7165354330708661
        },
        {
          "duration": 0.023436000000003787,
          "durationTicks": 15,
          "midi": 70,
          "name": "A#4",
          "ticks": 177120,
          "time": 276.732288,
          "velocity": 0.7952755905511811
        },
        {
          "duration": 0.023436000000003787,
          "durationTicks": 15,
          "midi": 82,
          "name": "A#5",
          "ticks": 177120,
          "time": 276.732288,
          "velocity": 0.5590551181102362
        },
        {
          "duration": 0.023436000000003787,
          "durationTicks": 15,
          "midi": 44,
          "name": "G#2",
          "ticks": 177240,
          "time": 276.91977599999996,
          "velocity": 0.4409448818897638
        },
        {
          "duration": 0.023436000000003787,
          "durationTicks": 15,
          "midi": 70,
          "name": "A#4",
          "ticks": 177240,
          "time": 276.91977599999996,
          "velocity": 0.5275590551181102
        },
        {
          "duration": 0.023436000000003787,
          "durationTicks": 15,
          "midi": 35,
          "name": "B1",
          "ticks": 177360,
          "time": 277.107264,
          "velocity": 0.7480314960629921
        },
        {
          "duration": 0.023436000000003787,
          "durationTicks": 15,
          "midi": 44,
          "name": "G#2",
          "ticks": 177360,
          "time": 277.107264,
          "velocity": 0.5590551181102362
        },
        {
          "duration": 0.023436000000003787,
          "durationTicks": 15,
          "midi": 70,
          "name": "A#4",
          "ticks": 177360,
          "time": 277.107264,
          "velocity": 0.5984251968503937
        },
        {
          "duration": 0.023436000000003787,
          "durationTicks": 15,
          "midi": 35,
          "name": "B1",
          "ticks": 177480,
          "time": 277.29475199999996,
          "velocity": 0.7480314960629921
        },
        {
          "duration": 0.023436000000003787,
          "durationTicks": 15,
          "midi": 44,
          "name": "G#2",
          "ticks": 177480,
          "time": 277.29475199999996,
          "velocity": 0.4251968503937008
        },
        {
          "duration": 0.023436000000003787,
          "durationTicks": 15,
          "midi": 70,
          "name": "A#4",
          "ticks": 177480,
          "time": 277.29475199999996,
          "velocity": 0.5118110236220472
        },
        {
          "duration": 0.023436000000003787,
          "durationTicks": 15,
          "midi": 82,
          "name": "A#5",
          "ticks": 177480,
          "time": 277.29475199999996,
          "velocity": 0.3937007874015748
        },
        {
          "duration": 0.023436000000003787,
          "durationTicks": 15,
          "midi": 35,
          "name": "B1",
          "ticks": 177600,
          "time": 277.48224,
          "velocity": 0.8740157480314961
        },
        {
          "duration": 0.023436000000003787,
          "durationTicks": 15,
          "midi": 44,
          "name": "G#2",
          "ticks": 177600,
          "time": 277.48224,
          "velocity": 0.7007874015748031
        },
        {
          "duration": 0.023436000000003787,
          "durationTicks": 15,
          "midi": 70,
          "name": "A#4",
          "ticks": 177600,
          "time": 277.48224,
          "velocity": 0.7952755905511811
        },
        {
          "duration": 0.023436000000003787,
          "durationTicks": 15,
          "midi": 82,
          "name": "A#5",
          "ticks": 177600,
          "time": 277.48224,
          "velocity": 0.4015748031496063
        },
        {
          "duration": 0.023436000000003787,
          "durationTicks": 15,
          "midi": 44,
          "name": "G#2",
          "ticks": 177720,
          "time": 277.66972799999996,
          "velocity": 0.3543307086614173
        },
        {
          "duration": 0.023436000000003787,
          "durationTicks": 15,
          "midi": 70,
          "name": "A#4",
          "ticks": 177720,
          "time": 277.66972799999996,
          "velocity": 0.5275590551181102
        },
        {
          "duration": 0.023436000000003787,
          "durationTicks": 15,
          "midi": 44,
          "name": "G#2",
          "ticks": 177840,
          "time": 277.857216,
          "velocity": 0.5748031496062992
        },
        {
          "duration": 0.023436000000003787,
          "durationTicks": 15,
          "midi": 70,
          "name": "A#4",
          "ticks": 177840,
          "time": 277.857216,
          "velocity": 0.5984251968503937
        },
        {
          "duration": 0.023436000000003787,
          "durationTicks": 15,
          "midi": 82,
          "name": "A#5",
          "ticks": 177840,
          "time": 277.857216,
          "velocity": 0.44881889763779526
        },
        {
          "duration": 0.023436000000003787,
          "durationTicks": 15,
          "midi": 44,
          "name": "G#2",
          "ticks": 177960,
          "time": 278.04470399999997,
          "velocity": 0.4251968503937008
        },
        {
          "duration": 0.023436000000003787,
          "durationTicks": 15,
          "midi": 70,
          "name": "A#4",
          "ticks": 177960,
          "time": 278.04470399999997,
          "velocity": 0.5118110236220472
        },
        {
          "duration": 0.023436000000003787,
          "durationTicks": 15,
          "midi": 82,
          "name": "A#5",
          "ticks": 177960,
          "time": 278.04470399999997,
          "velocity": 0.48031496062992124
        },
        {
          "duration": 0.023436000000003787,
          "durationTicks": 15,
          "midi": 38,
          "name": "D2",
          "ticks": 178080,
          "time": 278.232192,
          "velocity": 0.905511811023622
        },
        {
          "duration": 0.023436000000003787,
          "durationTicks": 15,
          "midi": 39,
          "name": "D#2",
          "ticks": 178080,
          "time": 278.232192,
          "velocity": 0.905511811023622
        },
        {
          "duration": 0.023436000000003787,
          "durationTicks": 15,
          "midi": 44,
          "name": "G#2",
          "ticks": 178080,
          "time": 278.232192,
          "velocity": 0.7165354330708661
        },
        {
          "duration": 0.023436000000003787,
          "durationTicks": 15,
          "midi": 70,
          "name": "A#4",
          "ticks": 178080,
          "time": 278.232192,
          "velocity": 0.7952755905511811
        },
        {
          "duration": 0.023436000000003787,
          "durationTicks": 15,
          "midi": 82,
          "name": "A#5",
          "ticks": 178080,
          "time": 278.232192,
          "velocity": 0.5275590551181102
        },
        {
          "duration": 0.023436000000003787,
          "durationTicks": 15,
          "midi": 44,
          "name": "G#2",
          "ticks": 178200,
          "time": 278.41967999999997,
          "velocity": 0.4409448818897638
        },
        {
          "duration": 0.023436000000003787,
          "durationTicks": 15,
          "midi": 70,
          "name": "A#4",
          "ticks": 178200,
          "time": 278.41967999999997,
          "velocity": 0.5275590551181102
        },
        {
          "duration": 0.023436000000003787,
          "durationTicks": 15,
          "midi": 46,
          "name": "A#2",
          "ticks": 178320,
          "time": 278.607168,
          "velocity": 0.6062992125984252
        },
        {
          "duration": 0.023436000000003787,
          "durationTicks": 15,
          "midi": 70,
          "name": "A#4",
          "ticks": 178320,
          "time": 278.607168,
          "velocity": 0.5984251968503937
        },
        {
          "duration": 0.023436000000003787,
          "durationTicks": 15,
          "midi": 82,
          "name": "A#5",
          "ticks": 178320,
          "time": 278.607168,
          "velocity": 0.48031496062992124
        },
        {
          "duration": 0.023436000000003787,
          "durationTicks": 15,
          "midi": 70,
          "name": "A#4",
          "ticks": 178440,
          "time": 278.794656,
          "velocity": 0.5118110236220472
        },
        {
          "duration": 0.023436000000003787,
          "durationTicks": 15,
          "midi": 82,
          "name": "A#5",
          "ticks": 178440,
          "time": 278.794656,
          "velocity": 0.4015748031496063
        },
        {
          "duration": 0.023436000000003787,
          "durationTicks": 15,
          "midi": 35,
          "name": "B1",
          "ticks": 178560,
          "time": 278.982144,
          "velocity": 0.9291338582677166
        },
        {
          "duration": 0.023436000000003787,
          "durationTicks": 15,
          "midi": 44,
          "name": "G#2",
          "ticks": 178560,
          "time": 278.982144,
          "velocity": 0.7007874015748031
        },
        {
          "duration": 0.023436000000003787,
          "durationTicks": 15,
          "midi": 70,
          "name": "A#4",
          "ticks": 178560,
          "time": 278.982144,
          "velocity": 0.7952755905511811
        },
        {
          "duration": 0.023436000000003787,
          "durationTicks": 15,
          "midi": 44,
          "name": "G#2",
          "ticks": 178680,
          "time": 279.169632,
          "velocity": 0.3543307086614173
        },
        {
          "duration": 0.023436000000003787,
          "durationTicks": 15,
          "midi": 70,
          "name": "A#4",
          "ticks": 178680,
          "time": 279.169632,
          "velocity": 0.5275590551181102
        },
        {
          "duration": 0.023435999999946944,
          "durationTicks": 15,
          "midi": 44,
          "name": "G#2",
          "ticks": 178800,
          "time": 279.35712,
          "velocity": 0.5748031496062992
        },
        {
          "duration": 0.023435999999946944,
          "durationTicks": 15,
          "midi": 70,
          "name": "A#4",
          "ticks": 178800,
          "time": 279.35712,
          "velocity": 0.5984251968503937
        },
        {
          "duration": 0.023435999999946944,
          "durationTicks": 15,
          "midi": 82,
          "name": "A#5",
          "ticks": 178800,
          "time": 279.35712,
          "velocity": 0.4330708661417323
        },
        {
          "duration": 0.023436000000003787,
          "durationTicks": 15,
          "midi": 44,
          "name": "G#2",
          "ticks": 178920,
          "time": 279.544608,
          "velocity": 0.4251968503937008
        },
        {
          "duration": 0.023436000000003787,
          "durationTicks": 15,
          "midi": 70,
          "name": "A#4",
          "ticks": 178920,
          "time": 279.544608,
          "velocity": 0.5118110236220472
        },
        {
          "duration": 0.023436000000003787,
          "durationTicks": 15,
          "midi": 82,
          "name": "A#5",
          "ticks": 178920,
          "time": 279.544608,
          "velocity": 0.44881889763779526
        },
        {
          "duration": 0.023436000000003787,
          "durationTicks": 15,
          "midi": 38,
          "name": "D2",
          "ticks": 179040,
          "time": 279.73209599999996,
          "velocity": 0.9212598425196851
        },
        {
          "duration": 0.023436000000003787,
          "durationTicks": 15,
          "midi": 39,
          "name": "D#2",
          "ticks": 179040,
          "time": 279.73209599999996,
          "velocity": 0.9212598425196851
        },
        {
          "duration": 0.023436000000003787,
          "durationTicks": 15,
          "midi": 44,
          "name": "G#2",
          "ticks": 179040,
          "time": 279.73209599999996,
          "velocity": 0.7165354330708661
        },
        {
          "duration": 0.023436000000003787,
          "durationTicks": 15,
          "midi": 70,
          "name": "A#4",
          "ticks": 179040,
          "time": 279.73209599999996,
          "velocity": 0.7952755905511811
        },
        {
          "duration": 0.023436000000003787,
          "durationTicks": 15,
          "midi": 82,
          "name": "A#5",
          "ticks": 179040,
          "time": 279.73209599999996,
          "velocity": 0.5590551181102362
        },
        {
          "duration": 0.023436000000003787,
          "durationTicks": 15,
          "midi": 44,
          "name": "G#2",
          "ticks": 179160,
          "time": 279.919584,
          "velocity": 0.4409448818897638
        },
        {
          "duration": 0.023436000000003787,
          "durationTicks": 15,
          "midi": 70,
          "name": "A#4",
          "ticks": 179160,
          "time": 279.919584,
          "velocity": 0.5275590551181102
        },
        {
          "duration": 0.023436000000003787,
          "durationTicks": 15,
          "midi": 35,
          "name": "B1",
          "ticks": 179280,
          "time": 280.10707199999996,
          "velocity": 0.8818897637795275
        },
        {
          "duration": 0.023436000000003787,
          "durationTicks": 15,
          "midi": 44,
          "name": "G#2",
          "ticks": 179280,
          "time": 280.10707199999996,
          "velocity": 0.5590551181102362
        },
        {
          "duration": 0.023436000000003787,
          "durationTicks": 15,
          "midi": 70,
          "name": "A#4",
          "ticks": 179280,
          "time": 280.10707199999996,
          "velocity": 0.5984251968503937
        },
        {
          "duration": 0.023436000000003787,
          "durationTicks": 15,
          "midi": 44,
          "name": "G#2",
          "ticks": 179400,
          "time": 280.29456,
          "velocity": 0.4251968503937008
        },
        {
          "duration": 0.023436000000003787,
          "durationTicks": 15,
          "midi": 70,
          "name": "A#4",
          "ticks": 179400,
          "time": 280.29456,
          "velocity": 0.5118110236220472
        },
        {
          "duration": 0.023436000000003787,
          "durationTicks": 15,
          "midi": 82,
          "name": "A#5",
          "ticks": 179400,
          "time": 280.29456,
          "velocity": 0.3937007874015748
        },
        {
          "duration": 0.023436000000003787,
          "durationTicks": 15,
          "midi": 35,
          "name": "B1",
          "ticks": 179520,
          "time": 280.48204799999996,
          "velocity": 0.905511811023622
        },
        {
          "duration": 0.023436000000003787,
          "durationTicks": 15,
          "midi": 44,
          "name": "G#2",
          "ticks": 179520,
          "time": 280.48204799999996,
          "velocity": 0.7007874015748031
        },
        {
          "duration": 0.023436000000003787,
          "durationTicks": 15,
          "midi": 70,
          "name": "A#4",
          "ticks": 179520,
          "time": 280.48204799999996,
          "velocity": 0.7952755905511811
        },
        {
          "duration": 0.023436000000003787,
          "durationTicks": 15,
          "midi": 82,
          "name": "A#5",
          "ticks": 179520,
          "time": 280.48204799999996,
          "velocity": 0.4015748031496063
        },
        {
          "duration": 0.023436000000003787,
          "durationTicks": 15,
          "midi": 44,
          "name": "G#2",
          "ticks": 179640,
          "time": 280.669536,
          "velocity": 0.3543307086614173
        },
        {
          "duration": 0.023436000000003787,
          "durationTicks": 15,
          "midi": 70,
          "name": "A#4",
          "ticks": 179640,
          "time": 280.669536,
          "velocity": 0.5275590551181102
        },
        {
          "duration": 0.023436000000003787,
          "durationTicks": 15,
          "midi": 44,
          "name": "G#2",
          "ticks": 179760,
          "time": 280.85702399999997,
          "velocity": 0.5748031496062992
        },
        {
          "duration": 0.023436000000003787,
          "durationTicks": 15,
          "midi": 70,
          "name": "A#4",
          "ticks": 179760,
          "time": 280.85702399999997,
          "velocity": 0.5984251968503937
        },
        {
          "duration": 0.023436000000003787,
          "durationTicks": 15,
          "midi": 82,
          "name": "A#5",
          "ticks": 179760,
          "time": 280.85702399999997,
          "velocity": 0.44881889763779526
        },
        {
          "duration": 0.023436000000003787,
          "durationTicks": 15,
          "midi": 44,
          "name": "G#2",
          "ticks": 179880,
          "time": 281.044512,
          "velocity": 0.4251968503937008
        },
        {
          "duration": 0.023436000000003787,
          "durationTicks": 15,
          "midi": 70,
          "name": "A#4",
          "ticks": 179880,
          "time": 281.044512,
          "velocity": 0.5118110236220472
        },
        {
          "duration": 0.023436000000003787,
          "durationTicks": 15,
          "midi": 82,
          "name": "A#5",
          "ticks": 179880,
          "time": 281.044512,
          "velocity": 0.48031496062992124
        },
        {
          "duration": 0.023436000000003787,
          "durationTicks": 15,
          "midi": 38,
          "name": "D2",
          "ticks": 180000,
          "time": 281.23199999999997,
          "velocity": 0.905511811023622
        },
        {
          "duration": 0.023436000000003787,
          "durationTicks": 15,
          "midi": 39,
          "name": "D#2",
          "ticks": 180000,
          "time": 281.23199999999997,
          "velocity": 0.905511811023622
        },
        {
          "duration": 0.023436000000003787,
          "durationTicks": 15,
          "midi": 44,
          "name": "G#2",
          "ticks": 180000,
          "time": 281.23199999999997,
          "velocity": 0.7165354330708661
        },
        {
          "duration": 0.023436000000003787,
          "durationTicks": 15,
          "midi": 70,
          "name": "A#4",
          "ticks": 180000,
          "time": 281.23199999999997,
          "velocity": 0.7952755905511811
        },
        {
          "duration": 0.023436000000003787,
          "durationTicks": 15,
          "midi": 82,
          "name": "A#5",
          "ticks": 180000,
          "time": 281.23199999999997,
          "velocity": 0.5275590551181102
        },
        {
          "duration": 0.023436000000003787,
          "durationTicks": 15,
          "midi": 44,
          "name": "G#2",
          "ticks": 180120,
          "time": 281.419488,
          "velocity": 0.4409448818897638
        },
        {
          "duration": 0.023436000000003787,
          "durationTicks": 15,
          "midi": 70,
          "name": "A#4",
          "ticks": 180120,
          "time": 281.419488,
          "velocity": 0.5275590551181102
        },
        {
          "duration": 0.023436000000003787,
          "durationTicks": 15,
          "midi": 46,
          "name": "A#2",
          "ticks": 180240,
          "time": 281.606976,
          "velocity": 0.6062992125984252
        },
        {
          "duration": 0.023436000000003787,
          "durationTicks": 15,
          "midi": 70,
          "name": "A#4",
          "ticks": 180240,
          "time": 281.606976,
          "velocity": 0.5984251968503937
        },
        {
          "duration": 0.023436000000003787,
          "durationTicks": 15,
          "midi": 82,
          "name": "A#5",
          "ticks": 180240,
          "time": 281.606976,
          "velocity": 0.48031496062992124
        },
        {
          "duration": 0.023436000000003787,
          "durationTicks": 15,
          "midi": 35,
          "name": "B1",
          "ticks": 180360,
          "time": 281.794464,
          "velocity": 0.8740157480314961
        },
        {
          "duration": 0.023436000000003787,
          "durationTicks": 15,
          "midi": 70,
          "name": "A#4",
          "ticks": 180360,
          "time": 281.794464,
          "velocity": 0.5118110236220472
        },
        {
          "duration": 0.023436000000003787,
          "durationTicks": 15,
          "midi": 82,
          "name": "A#5",
          "ticks": 180360,
          "time": 281.794464,
          "velocity": 0.4015748031496063
        },
        {
          "duration": 0.023436000000003787,
          "durationTicks": 15,
          "midi": 35,
          "name": "B1",
          "ticks": 180480,
          "time": 281.981952,
          "velocity": 0.8740157480314961
        },
        {
          "duration": 0.023436000000003787,
          "durationTicks": 15,
          "midi": 44,
          "name": "G#2",
          "ticks": 180480,
          "time": 281.981952,
          "velocity": 0.7007874015748031
        },
        {
          "duration": 0.023436000000003787,
          "durationTicks": 15,
          "midi": 70,
          "name": "A#4",
          "ticks": 180480,
          "time": 281.981952,
          "velocity": 0.7952755905511811
        },
        {
          "duration": 0.023435999999946944,
          "durationTicks": 15,
          "midi": 44,
          "name": "G#2",
          "ticks": 180600,
          "time": 282.16944,
          "velocity": 0.3543307086614173
        },
        {
          "duration": 0.023435999999946944,
          "durationTicks": 15,
          "midi": 70,
          "name": "A#4",
          "ticks": 180600,
          "time": 282.16944,
          "velocity": 0.5275590551181102
        },
        {
          "duration": 0.023436000000003787,
          "durationTicks": 15,
          "midi": 44,
          "name": "G#2",
          "ticks": 180720,
          "time": 282.356928,
          "velocity": 0.5748031496062992
        },
        {
          "duration": 0.023436000000003787,
          "durationTicks": 15,
          "midi": 70,
          "name": "A#4",
          "ticks": 180720,
          "time": 282.356928,
          "velocity": 0.5984251968503937
        },
        {
          "duration": 0.023436000000003787,
          "durationTicks": 15,
          "midi": 82,
          "name": "A#5",
          "ticks": 180720,
          "time": 282.356928,
          "velocity": 0.4330708661417323
        },
        {
          "duration": 0.023436000000003787,
          "durationTicks": 15,
          "midi": 44,
          "name": "G#2",
          "ticks": 180840,
          "time": 282.54441599999996,
          "velocity": 0.4251968503937008
        },
        {
          "duration": 0.023436000000003787,
          "durationTicks": 15,
          "midi": 70,
          "name": "A#4",
          "ticks": 180840,
          "time": 282.54441599999996,
          "velocity": 0.5118110236220472
        },
        {
          "duration": 0.023436000000003787,
          "durationTicks": 15,
          "midi": 82,
          "name": "A#5",
          "ticks": 180840,
          "time": 282.54441599999996,
          "velocity": 0.44881889763779526
        },
        {
          "duration": 0.023436000000003787,
          "durationTicks": 15,
          "midi": 38,
          "name": "D2",
          "ticks": 180960,
          "time": 282.731904,
          "velocity": 0.9212598425196851
        },
        {
          "duration": 0.023436000000003787,
          "durationTicks": 15,
          "midi": 39,
          "name": "D#2",
          "ticks": 180960,
          "time": 282.731904,
          "velocity": 0.9212598425196851
        },
        {
          "duration": 0.023436000000003787,
          "durationTicks": 15,
          "midi": 44,
          "name": "G#2",
          "ticks": 180960,
          "time": 282.731904,
          "velocity": 0.7165354330708661
        },
        {
          "duration": 0.023436000000003787,
          "durationTicks": 15,
          "midi": 70,
          "name": "A#4",
          "ticks": 180960,
          "time": 282.731904,
          "velocity": 0.7952755905511811
        },
        {
          "duration": 0.023436000000003787,
          "durationTicks": 15,
          "midi": 82,
          "name": "A#5",
          "ticks": 180960,
          "time": 282.731904,
          "velocity": 0.5590551181102362
        },
        {
          "duration": 0.023436000000003787,
          "durationTicks": 15,
          "midi": 44,
          "name": "G#2",
          "ticks": 181080,
          "time": 282.91939199999996,
          "velocity": 0.4409448818897638
        },
        {
          "duration": 0.023436000000003787,
          "durationTicks": 15,
          "midi": 70,
          "name": "A#4",
          "ticks": 181080,
          "time": 282.91939199999996,
          "velocity": 0.5275590551181102
        },
        {
          "duration": 0.023436000000003787,
          "durationTicks": 15,
          "midi": 35,
          "name": "B1",
          "ticks": 181200,
          "time": 283.10688,
          "velocity": 0.7480314960629921
        },
        {
          "duration": 0.023436000000003787,
          "durationTicks": 15,
          "midi": 44,
          "name": "G#2",
          "ticks": 181200,
          "time": 283.10688,
          "velocity": 0.5590551181102362
        },
        {
          "duration": 0.023436000000003787,
          "durationTicks": 15,
          "midi": 70,
          "name": "A#4",
          "ticks": 181200,
          "time": 283.10688,
          "velocity": 0.5984251968503937
        },
        {
          "duration": 0.023436000000003787,
          "durationTicks": 15,
          "midi": 35,
          "name": "B1",
          "ticks": 181320,
          "time": 283.29436799999996,
          "velocity": 0.7480314960629921
        },
        {
          "duration": 0.023436000000003787,
          "durationTicks": 15,
          "midi": 44,
          "name": "G#2",
          "ticks": 181320,
          "time": 283.29436799999996,
          "velocity": 0.4251968503937008
        },
        {
          "duration": 0.023436000000003787,
          "durationTicks": 15,
          "midi": 70,
          "name": "A#4",
          "ticks": 181320,
          "time": 283.29436799999996,
          "velocity": 0.5118110236220472
        },
        {
          "duration": 0.023436000000003787,
          "durationTicks": 15,
          "midi": 82,
          "name": "A#5",
          "ticks": 181320,
          "time": 283.29436799999996,
          "velocity": 0.3937007874015748
        },
        {
          "duration": 0.023436000000003787,
          "durationTicks": 15,
          "midi": 35,
          "name": "B1",
          "ticks": 181440,
          "time": 283.481856,
          "velocity": 0.8740157480314961
        },
        {
          "duration": 0.023436000000003787,
          "durationTicks": 15,
          "midi": 44,
          "name": "G#2",
          "ticks": 181440,
          "time": 283.481856,
          "velocity": 0.7007874015748031
        },
        {
          "duration": 0.023436000000003787,
          "durationTicks": 15,
          "midi": 70,
          "name": "A#4",
          "ticks": 181440,
          "time": 283.481856,
          "velocity": 0.7952755905511811
        },
        {
          "duration": 0.023436000000003787,
          "durationTicks": 15,
          "midi": 82,
          "name": "A#5",
          "ticks": 181440,
          "time": 283.481856,
          "velocity": 0.4015748031496063
        },
        {
          "duration": 0.023436000000003787,
          "durationTicks": 15,
          "midi": 44,
          "name": "G#2",
          "ticks": 181560,
          "time": 283.66934399999997,
          "velocity": 0.3543307086614173
        },
        {
          "duration": 0.023436000000003787,
          "durationTicks": 15,
          "midi": 70,
          "name": "A#4",
          "ticks": 181560,
          "time": 283.66934399999997,
          "velocity": 0.5275590551181102
        },
        {
          "duration": 0.023436000000003787,
          "durationTicks": 15,
          "midi": 44,
          "name": "G#2",
          "ticks": 181680,
          "time": 283.856832,
          "velocity": 0.5748031496062992
        },
        {
          "duration": 0.023436000000003787,
          "durationTicks": 15,
          "midi": 70,
          "name": "A#4",
          "ticks": 181680,
          "time": 283.856832,
          "velocity": 0.5984251968503937
        },
        {
          "duration": 0.023436000000003787,
          "durationTicks": 15,
          "midi": 82,
          "name": "A#5",
          "ticks": 181680,
          "time": 283.856832,
          "velocity": 0.44881889763779526
        },
        {
          "duration": 0.023436000000003787,
          "durationTicks": 15,
          "midi": 35,
          "name": "B1",
          "ticks": 181800,
          "time": 284.04431999999997,
          "velocity": 0.984251968503937
        },
        {
          "duration": 0.023436000000003787,
          "durationTicks": 15,
          "midi": 44,
          "name": "G#2",
          "ticks": 181800,
          "time": 284.04431999999997,
          "velocity": 0.4251968503937008
        },
        {
          "duration": 0.023436000000003787,
          "durationTicks": 15,
          "midi": 70,
          "name": "A#4",
          "ticks": 181800,
          "time": 284.04431999999997,
          "velocity": 0.5118110236220472
        },
        {
          "duration": 0.023436000000003787,
          "durationTicks": 15,
          "midi": 82,
          "name": "A#5",
          "ticks": 181800,
          "time": 284.04431999999997,
          "velocity": 0.48031496062992124
        },
        {
          "duration": 0.023436000000003787,
          "durationTicks": 15,
          "midi": 38,
          "name": "D2",
          "ticks": 181920,
          "time": 284.231808,
          "velocity": 0.905511811023622
        },
        {
          "duration": 0.023436000000003787,
          "durationTicks": 15,
          "midi": 39,
          "name": "D#2",
          "ticks": 181920,
          "time": 284.231808,
          "velocity": 0.905511811023622
        },
        {
          "duration": 0.023436000000003787,
          "durationTicks": 15,
          "midi": 44,
          "name": "G#2",
          "ticks": 181920,
          "time": 284.231808,
          "velocity": 0.7165354330708661
        },
        {
          "duration": 0.023436000000003787,
          "durationTicks": 15,
          "midi": 70,
          "name": "A#4",
          "ticks": 181920,
          "time": 284.231808,
          "velocity": 0.7952755905511811
        },
        {
          "duration": 0.023436000000003787,
          "durationTicks": 15,
          "midi": 82,
          "name": "A#5",
          "ticks": 181920,
          "time": 284.231808,
          "velocity": 0.5275590551181102
        },
        {
          "duration": 0.023436000000003787,
          "durationTicks": 15,
          "midi": 44,
          "name": "G#2",
          "ticks": 182040,
          "time": 284.419296,
          "velocity": 0.4409448818897638
        },
        {
          "duration": 0.023436000000003787,
          "durationTicks": 15,
          "midi": 70,
          "name": "A#4",
          "ticks": 182040,
          "time": 284.419296,
          "velocity": 0.5275590551181102
        },
        {
          "duration": 0.023436000000003787,
          "durationTicks": 15,
          "midi": 46,
          "name": "A#2",
          "ticks": 182160,
          "time": 284.606784,
          "velocity": 0.6062992125984252
        },
        {
          "duration": 0.023436000000003787,
          "durationTicks": 15,
          "midi": 70,
          "name": "A#4",
          "ticks": 182160,
          "time": 284.606784,
          "velocity": 0.5984251968503937
        },
        {
          "duration": 0.023436000000003787,
          "durationTicks": 15,
          "midi": 82,
          "name": "A#5",
          "ticks": 182160,
          "time": 284.606784,
          "velocity": 0.48031496062992124
        },
        {
          "duration": 0.023436000000003787,
          "durationTicks": 15,
          "midi": 70,
          "name": "A#4",
          "ticks": 182280,
          "time": 284.794272,
          "velocity": 0.5118110236220472
        },
        {
          "duration": 0.023436000000003787,
          "durationTicks": 15,
          "midi": 82,
          "name": "A#5",
          "ticks": 182280,
          "time": 284.794272,
          "velocity": 0.4015748031496063
        },
        {
          "duration": 0.023435999999946944,
          "durationTicks": 15,
          "midi": 35,
          "name": "B1",
          "ticks": 182400,
          "time": 284.98176,
          "velocity": 0.8740157480314961
        },
        {
          "duration": 0.023435999999946944,
          "durationTicks": 15,
          "midi": 44,
          "name": "G#2",
          "ticks": 182400,
          "time": 284.98176,
          "velocity": 0.7007874015748031
        },
        {
          "duration": 0.023435999999946944,
          "durationTicks": 15,
          "midi": 70,
          "name": "A#4",
          "ticks": 182400,
          "time": 284.98176,
          "velocity": 0.7952755905511811
        },
        {
          "duration": 0.023436000000003787,
          "durationTicks": 15,
          "midi": 44,
          "name": "G#2",
          "ticks": 182520,
          "time": 285.169248,
          "velocity": 0.3543307086614173
        },
        {
          "duration": 0.023436000000003787,
          "durationTicks": 15,
          "midi": 70,
          "name": "A#4",
          "ticks": 182520,
          "time": 285.169248,
          "velocity": 0.5275590551181102
        },
        {
          "duration": 0.023436000000003787,
          "durationTicks": 15,
          "midi": 44,
          "name": "G#2",
          "ticks": 182640,
          "time": 285.35673599999996,
          "velocity": 0.5748031496062992
        },
        {
          "duration": 0.023436000000003787,
          "durationTicks": 15,
          "midi": 82,
          "name": "A#5",
          "ticks": 182640,
          "time": 285.35673599999996,
          "velocity": 0.4330708661417323
        },
        {
          "duration": 0.023436000000003787,
          "durationTicks": 15,
          "midi": 44,
          "name": "G#2",
          "ticks": 182760,
          "time": 285.544224,
          "velocity": 0.4251968503937008
        },
        {
          "duration": 0.023436000000003787,
          "durationTicks": 15,
          "midi": 70,
          "name": "A#4",
          "ticks": 182760,
          "time": 285.544224,
          "velocity": 0.5118110236220472
        },
        {
          "duration": 0.023436000000003787,
          "durationTicks": 15,
          "midi": 82,
          "name": "A#5",
          "ticks": 182760,
          "time": 285.544224,
          "velocity": 0.44881889763779526
        },
        {
          "duration": 0.023436000000003787,
          "durationTicks": 15,
          "midi": 38,
          "name": "D2",
          "ticks": 182880,
          "time": 285.73171199999996,
          "velocity": 0.9212598425196851
        },
        {
          "duration": 0.023436000000003787,
          "durationTicks": 15,
          "midi": 39,
          "name": "D#2",
          "ticks": 182880,
          "time": 285.73171199999996,
          "velocity": 0.9212598425196851
        },
        {
          "duration": 0.023436000000003787,
          "durationTicks": 15,
          "midi": 44,
          "name": "G#2",
          "ticks": 182880,
          "time": 285.73171199999996,
          "velocity": 0.7165354330708661
        },
        {
          "duration": 0.023436000000003787,
          "durationTicks": 15,
          "midi": 44,
          "name": "G#2",
          "ticks": 183000,
          "time": 285.9192,
          "velocity": 0.4409448818897638
        },
        {
          "duration": 0.023436000000003787,
          "durationTicks": 15,
          "midi": 70,
          "name": "A#4",
          "ticks": 183000,
          "time": 285.9192,
          "velocity": 0.5275590551181102
        },
        {
          "duration": 0.023436000000003787,
          "durationTicks": 15,
          "midi": 82,
          "name": "A#5",
          "ticks": 183000,
          "time": 285.9192,
          "velocity": 0.4881889763779528
        },
        {
          "duration": 0.023436000000003787,
          "durationTicks": 15,
          "midi": 35,
          "name": "B1",
          "ticks": 183120,
          "time": 286.10668799999996,
          "velocity": 0.8740157480314961
        },
        {
          "duration": 0.023436000000003787,
          "durationTicks": 15,
          "midi": 44,
          "name": "G#2",
          "ticks": 183120,
          "time": 286.10668799999996,
          "velocity": 0.5590551181102362
        },
        {
          "duration": 0.023436000000003787,
          "durationTicks": 15,
          "midi": 70,
          "name": "A#4",
          "ticks": 183120,
          "time": 286.10668799999996,
          "velocity": 0.5984251968503937
        },
        {
          "duration": 0.023436000000003787,
          "durationTicks": 15,
          "midi": 44,
          "name": "G#2",
          "ticks": 183240,
          "time": 286.294176,
          "velocity": 0.4251968503937008
        },
        {
          "duration": 0.023436000000003787,
          "durationTicks": 15,
          "midi": 70,
          "name": "A#4",
          "ticks": 183240,
          "time": 286.294176,
          "velocity": 0.5118110236220472
        },
        {
          "duration": 0.023436000000003787,
          "durationTicks": 15,
          "midi": 82,
          "name": "A#5",
          "ticks": 183240,
          "time": 286.294176,
          "velocity": 0.3937007874015748
        },
        {
          "duration": 0.023436000000003787,
          "durationTicks": 15,
          "midi": 35,
          "name": "B1",
          "ticks": 183360,
          "time": 286.48166399999997,
          "velocity": 0.8740157480314961
        },
        {
          "duration": 0.023436000000003787,
          "durationTicks": 15,
          "midi": 44,
          "name": "G#2",
          "ticks": 183360,
          "time": 286.48166399999997,
          "velocity": 0.7007874015748031
        },
        {
          "duration": 0.023436000000003787,
          "durationTicks": 15,
          "midi": 70,
          "name": "A#4",
          "ticks": 183360,
          "time": 286.48166399999997,
          "velocity": 0.7952755905511811
        },
        {
          "duration": 0.023436000000003787,
          "durationTicks": 15,
          "midi": 82,
          "name": "A#5",
          "ticks": 183360,
          "time": 286.48166399999997,
          "velocity": 0.4015748031496063
        },
        {
          "duration": 0.023436000000003787,
          "durationTicks": 15,
          "midi": 44,
          "name": "G#2",
          "ticks": 183480,
          "time": 286.669152,
          "velocity": 0.3543307086614173
        },
        {
          "duration": 0.023436000000003787,
          "durationTicks": 15,
          "midi": 70,
          "name": "A#4",
          "ticks": 183480,
          "time": 286.669152,
          "velocity": 0.5275590551181102
        },
        {
          "duration": 0.023436000000003787,
          "durationTicks": 15,
          "midi": 44,
          "name": "G#2",
          "ticks": 183600,
          "time": 286.85663999999997,
          "velocity": 0.5748031496062992
        },
        {
          "duration": 0.023436000000003787,
          "durationTicks": 15,
          "midi": 70,
          "name": "A#4",
          "ticks": 183600,
          "time": 286.85663999999997,
          "velocity": 0.5984251968503937
        },
        {
          "duration": 0.023436000000003787,
          "durationTicks": 15,
          "midi": 82,
          "name": "A#5",
          "ticks": 183600,
          "time": 286.85663999999997,
          "velocity": 0.44881889763779526
        },
        {
          "duration": 0.023436000000003787,
          "durationTicks": 15,
          "midi": 44,
          "name": "G#2",
          "ticks": 183720,
          "time": 287.044128,
          "velocity": 0.4251968503937008
        },
        {
          "duration": 0.023436000000003787,
          "durationTicks": 15,
          "midi": 70,
          "name": "A#4",
          "ticks": 183720,
          "time": 287.044128,
          "velocity": 0.5118110236220472
        },
        {
          "duration": 0.023436000000003787,
          "durationTicks": 15,
          "midi": 82,
          "name": "A#5",
          "ticks": 183720,
          "time": 287.044128,
          "velocity": 0.48031496062992124
        },
        {
          "duration": 0.023436000000003787,
          "durationTicks": 15,
          "midi": 38,
          "name": "D2",
          "ticks": 183840,
          "time": 287.231616,
          "velocity": 0.905511811023622
        },
        {
          "duration": 0.023436000000003787,
          "durationTicks": 15,
          "midi": 39,
          "name": "D#2",
          "ticks": 183840,
          "time": 287.231616,
          "velocity": 0.905511811023622
        },
        {
          "duration": 0.023436000000003787,
          "durationTicks": 15,
          "midi": 44,
          "name": "G#2",
          "ticks": 183840,
          "time": 287.231616,
          "velocity": 0.7165354330708661
        },
        {
          "duration": 0.023436000000003787,
          "durationTicks": 15,
          "midi": 70,
          "name": "A#4",
          "ticks": 183840,
          "time": 287.231616,
          "velocity": 0.7952755905511811
        },
        {
          "duration": 0.023436000000003787,
          "durationTicks": 15,
          "midi": 82,
          "name": "A#5",
          "ticks": 183840,
          "time": 287.231616,
          "velocity": 0.5275590551181102
        },
        {
          "duration": 0.023436000000003787,
          "durationTicks": 15,
          "midi": 44,
          "name": "G#2",
          "ticks": 183960,
          "time": 287.419104,
          "velocity": 0.4409448818897638
        },
        {
          "duration": 0.023436000000003787,
          "durationTicks": 15,
          "midi": 70,
          "name": "A#4",
          "ticks": 183960,
          "time": 287.419104,
          "velocity": 0.5275590551181102
        },
        {
          "duration": 0.023436000000003787,
          "durationTicks": 15,
          "midi": 46,
          "name": "A#2",
          "ticks": 184080,
          "time": 287.606592,
          "velocity": 0.6062992125984252
        },
        {
          "duration": 0.023436000000003787,
          "durationTicks": 15,
          "midi": 70,
          "name": "A#4",
          "ticks": 184080,
          "time": 287.606592,
          "velocity": 0.5984251968503937
        },
        {
          "duration": 0.023436000000003787,
          "durationTicks": 15,
          "midi": 82,
          "name": "A#5",
          "ticks": 184080,
          "time": 287.606592,
          "velocity": 0.48031496062992124
        },
        {
          "duration": 0.023435999999946944,
          "durationTicks": 15,
          "midi": 35,
          "name": "B1",
          "ticks": 184200,
          "time": 287.79408,
          "velocity": 0.8740157480314961
        },
        {
          "duration": 0.023435999999946944,
          "durationTicks": 15,
          "midi": 70,
          "name": "A#4",
          "ticks": 184200,
          "time": 287.79408,
          "velocity": 0.5118110236220472
        },
        {
          "duration": 0.023435999999946944,
          "durationTicks": 15,
          "midi": 82,
          "name": "A#5",
          "ticks": 184200,
          "time": 287.79408,
          "velocity": 0.4015748031496063
        },
        {
          "duration": 0.023436000000003787,
          "durationTicks": 15,
          "midi": 35,
          "name": "B1",
          "ticks": 184320,
          "time": 287.981568,
          "velocity": 0.889763779527559
        },
        {
          "duration": 0.023436000000003787,
          "durationTicks": 15,
          "midi": 44,
          "name": "G#2",
          "ticks": 184320,
          "time": 287.981568,
          "velocity": 0.7007874015748031
        },
        {
          "duration": 0.023436000000003787,
          "durationTicks": 15,
          "midi": 49,
          "name": "C#3",
          "ticks": 184320,
          "time": 287.981568,
          "velocity": 0.47244094488188976
        },
        {
          "duration": 0.023436000000003787,
          "durationTicks": 15,
          "midi": 59,
          "name": "B3",
          "ticks": 184320,
          "time": 287.981568,
          "velocity": 0.952755905511811
        },
        {
          "duration": 0.023436000000003787,
          "durationTicks": 15,
          "midi": 70,
          "name": "A#4",
          "ticks": 184320,
          "time": 287.981568,
          "velocity": 0.7952755905511811
        },
        {
          "duration": 0.023436000000003787,
          "durationTicks": 15,
          "midi": 44,
          "name": "G#2",
          "ticks": 184440,
          "time": 288.16905599999996,
          "velocity": 0.3543307086614173
        },
        {
          "duration": 0.023436000000003787,
          "durationTicks": 15,
          "midi": 70,
          "name": "A#4",
          "ticks": 184440,
          "time": 288.16905599999996,
          "velocity": 0.5275590551181102
        },
        {
          "duration": 0.023436000000003787,
          "durationTicks": 15,
          "midi": 44,
          "name": "G#2",
          "ticks": 184560,
          "time": 288.356544,
          "velocity": 0.5748031496062992
        },
        {
          "duration": 0.023436000000003787,
          "durationTicks": 15,
          "midi": 70,
          "name": "A#4",
          "ticks": 184560,
          "time": 288.356544,
          "velocity": 0.5984251968503937
        },
        {
          "duration": 0.023436000000003787,
          "durationTicks": 15,
          "midi": 82,
          "name": "A#5",
          "ticks": 184560,
          "time": 288.356544,
          "velocity": 0.4330708661417323
        },
        {
          "duration": 0.023436000000003787,
          "durationTicks": 15,
          "midi": 44,
          "name": "G#2",
          "ticks": 184680,
          "time": 288.54403199999996,
          "velocity": 0.4251968503937008
        },
        {
          "duration": 0.023436000000003787,
          "durationTicks": 15,
          "midi": 70,
          "name": "A#4",
          "ticks": 184680,
          "time": 288.54403199999996,
          "velocity": 0.5118110236220472
        },
        {
          "duration": 0.023436000000003787,
          "durationTicks": 15,
          "midi": 82,
          "name": "A#5",
          "ticks": 184680,
          "time": 288.54403199999996,
          "velocity": 0.44881889763779526
        },
        {
          "duration": 0.023436000000003787,
          "durationTicks": 15,
          "midi": 38,
          "name": "D2",
          "ticks": 184800,
          "time": 288.73152,
          "velocity": 0.9212598425196851
        },
        {
          "duration": 0.023436000000003787,
          "durationTicks": 15,
          "midi": 39,
          "name": "D#2",
          "ticks": 184800,
          "time": 288.73152,
          "velocity": 0.9212598425196851
        },
        {
          "duration": 0.023436000000003787,
          "durationTicks": 15,
          "midi": 44,
          "name": "G#2",
          "ticks": 184800,
          "time": 288.73152,
          "velocity": 0.7165354330708661
        },
        {
          "duration": 0.023436000000003787,
          "durationTicks": 15,
          "midi": 70,
          "name": "A#4",
          "ticks": 184800,
          "time": 288.73152,
          "velocity": 0.7952755905511811
        },
        {
          "duration": 0.023436000000003787,
          "durationTicks": 15,
          "midi": 82,
          "name": "A#5",
          "ticks": 184800,
          "time": 288.73152,
          "velocity": 0.5590551181102362
        },
        {
          "duration": 0.023436000000003787,
          "durationTicks": 15,
          "midi": 44,
          "name": "G#2",
          "ticks": 184920,
          "time": 288.91900799999996,
          "velocity": 0.4409448818897638
        },
        {
          "duration": 0.023436000000003787,
          "durationTicks": 15,
          "midi": 70,
          "name": "A#4",
          "ticks": 184920,
          "time": 288.91900799999996,
          "velocity": 0.5275590551181102
        },
        {
          "duration": 0.023436000000003787,
          "durationTicks": 15,
          "midi": 35,
          "name": "B1",
          "ticks": 185040,
          "time": 289.106496,
          "velocity": 0.7480314960629921
        },
        {
          "duration": 0.023436000000003787,
          "durationTicks": 15,
          "midi": 44,
          "name": "G#2",
          "ticks": 185040,
          "time": 289.106496,
          "velocity": 0.5590551181102362
        },
        {
          "duration": 0.023436000000003787,
          "durationTicks": 15,
          "midi": 70,
          "name": "A#4",
          "ticks": 185040,
          "time": 289.106496,
          "velocity": 0.5984251968503937
        },
        {
          "duration": 0.023436000000003787,
          "durationTicks": 15,
          "midi": 35,
          "name": "B1",
          "ticks": 185160,
          "time": 289.29398399999997,
          "velocity": 0.7480314960629921
        },
        {
          "duration": 0.023436000000003787,
          "durationTicks": 15,
          "midi": 44,
          "name": "G#2",
          "ticks": 185160,
          "time": 289.29398399999997,
          "velocity": 0.4251968503937008
        },
        {
          "duration": 0.023436000000003787,
          "durationTicks": 15,
          "midi": 70,
          "name": "A#4",
          "ticks": 185160,
          "time": 289.29398399999997,
          "velocity": 0.5118110236220472
        },
        {
          "duration": 0.023436000000003787,
          "durationTicks": 15,
          "midi": 82,
          "name": "A#5",
          "ticks": 185160,
          "time": 289.29398399999997,
          "velocity": 0.3937007874015748
        },
        {
          "duration": 0.023436000000003787,
          "durationTicks": 15,
          "midi": 35,
          "name": "B1",
          "ticks": 185280,
          "time": 289.481472,
          "velocity": 0.8740157480314961
        },
        {
          "duration": 0.023436000000003787,
          "durationTicks": 15,
          "midi": 44,
          "name": "G#2",
          "ticks": 185280,
          "time": 289.481472,
          "velocity": 0.7007874015748031
        },
        {
          "duration": 0.023436000000003787,
          "durationTicks": 15,
          "midi": 70,
          "name": "A#4",
          "ticks": 185280,
          "time": 289.481472,
          "velocity": 0.7952755905511811
        },
        {
          "duration": 0.023436000000003787,
          "durationTicks": 15,
          "midi": 82,
          "name": "A#5",
          "ticks": 185280,
          "time": 289.481472,
          "velocity": 0.4015748031496063
        },
        {
          "duration": 0.023436000000003787,
          "durationTicks": 15,
          "midi": 44,
          "name": "G#2",
          "ticks": 185400,
          "time": 289.66895999999997,
          "velocity": 0.3543307086614173
        },
        {
          "duration": 0.023436000000003787,
          "durationTicks": 15,
          "midi": 70,
          "name": "A#4",
          "ticks": 185400,
          "time": 289.66895999999997,
          "velocity": 0.5275590551181102
        },
        {
          "duration": 0.023436000000003787,
          "durationTicks": 15,
          "midi": 44,
          "name": "G#2",
          "ticks": 185520,
          "time": 289.856448,
          "velocity": 0.5748031496062992
        },
        {
          "duration": 0.023436000000003787,
          "durationTicks": 15,
          "midi": 70,
          "name": "A#4",
          "ticks": 185520,
          "time": 289.856448,
          "velocity": 0.5984251968503937
        },
        {
          "duration": 0.023436000000003787,
          "durationTicks": 15,
          "midi": 82,
          "name": "A#5",
          "ticks": 185520,
          "time": 289.856448,
          "velocity": 0.44881889763779526
        },
        {
          "duration": 0.023436000000003787,
          "durationTicks": 15,
          "midi": 44,
          "name": "G#2",
          "ticks": 185640,
          "time": 290.043936,
          "velocity": 0.4251968503937008
        },
        {
          "duration": 0.023436000000003787,
          "durationTicks": 15,
          "midi": 70,
          "name": "A#4",
          "ticks": 185640,
          "time": 290.043936,
          "velocity": 0.5118110236220472
        },
        {
          "duration": 0.023436000000003787,
          "durationTicks": 15,
          "midi": 82,
          "name": "A#5",
          "ticks": 185640,
          "time": 290.043936,
          "velocity": 0.48031496062992124
        },
        {
          "duration": 0.023436000000003787,
          "durationTicks": 15,
          "midi": 38,
          "name": "D2",
          "ticks": 185760,
          "time": 290.231424,
          "velocity": 0.905511811023622
        },
        {
          "duration": 0.023436000000003787,
          "durationTicks": 15,
          "midi": 39,
          "name": "D#2",
          "ticks": 185760,
          "time": 290.231424,
          "velocity": 0.905511811023622
        },
        {
          "duration": 0.023436000000003787,
          "durationTicks": 15,
          "midi": 44,
          "name": "G#2",
          "ticks": 185760,
          "time": 290.231424,
          "velocity": 0.7165354330708661
        },
        {
          "duration": 0.023436000000003787,
          "durationTicks": 15,
          "midi": 70,
          "name": "A#4",
          "ticks": 185760,
          "time": 290.231424,
          "velocity": 0.7952755905511811
        },
        {
          "duration": 0.023436000000003787,
          "durationTicks": 15,
          "midi": 82,
          "name": "A#5",
          "ticks": 185760,
          "time": 290.231424,
          "velocity": 0.5275590551181102
        },
        {
          "duration": 0.023436000000003787,
          "durationTicks": 15,
          "midi": 44,
          "name": "G#2",
          "ticks": 185880,
          "time": 290.418912,
          "velocity": 0.4409448818897638
        },
        {
          "duration": 0.023436000000003787,
          "durationTicks": 15,
          "midi": 70,
          "name": "A#4",
          "ticks": 185880,
          "time": 290.418912,
          "velocity": 0.5275590551181102
        },
        {
          "duration": 0.023435999999946944,
          "durationTicks": 15,
          "midi": 46,
          "name": "A#2",
          "ticks": 186000,
          "time": 290.6064,
          "velocity": 0.6062992125984252
        },
        {
          "duration": 0.023435999999946944,
          "durationTicks": 15,
          "midi": 70,
          "name": "A#4",
          "ticks": 186000,
          "time": 290.6064,
          "velocity": 0.5984251968503937
        },
        {
          "duration": 0.023435999999946944,
          "durationTicks": 15,
          "midi": 82,
          "name": "A#5",
          "ticks": 186000,
          "time": 290.6064,
          "velocity": 0.48031496062992124
        },
        {
          "duration": 0.023436000000003787,
          "durationTicks": 15,
          "midi": 70,
          "name": "A#4",
          "ticks": 186120,
          "time": 290.793888,
          "velocity": 0.5118110236220472
        },
        {
          "duration": 0.023436000000003787,
          "durationTicks": 15,
          "midi": 82,
          "name": "A#5",
          "ticks": 186120,
          "time": 290.793888,
          "velocity": 0.4015748031496063
        },
        {
          "duration": 0.023436000000003787,
          "durationTicks": 15,
          "midi": 35,
          "name": "B1",
          "ticks": 186240,
          "time": 290.98137599999995,
          "velocity": 0.9291338582677166
        },
        {
          "duration": 0.023436000000003787,
          "durationTicks": 15,
          "midi": 44,
          "name": "G#2",
          "ticks": 186240,
          "time": 290.98137599999995,
          "velocity": 0.7007874015748031
        },
        {
          "duration": 0.023436000000003787,
          "durationTicks": 15,
          "midi": 70,
          "name": "A#4",
          "ticks": 186240,
          "time": 290.98137599999995,
          "velocity": 0.7952755905511811
        },
        {
          "duration": 0.023436000000003787,
          "durationTicks": 15,
          "midi": 44,
          "name": "G#2",
          "ticks": 186360,
          "time": 291.168864,
          "velocity": 0.3543307086614173
        },
        {
          "duration": 0.023436000000003787,
          "durationTicks": 15,
          "midi": 70,
          "name": "A#4",
          "ticks": 186360,
          "time": 291.168864,
          "velocity": 0.5275590551181102
        },
        {
          "duration": 0.023436000000003787,
          "durationTicks": 15,
          "midi": 44,
          "name": "G#2",
          "ticks": 186480,
          "time": 291.35635199999996,
          "velocity": 0.5748031496062992
        },
        {
          "duration": 0.023436000000003787,
          "durationTicks": 15,
          "midi": 70,
          "name": "A#4",
          "ticks": 186480,
          "time": 291.35635199999996,
          "velocity": 0.5984251968503937
        },
        {
          "duration": 0.023436000000003787,
          "durationTicks": 15,
          "midi": 82,
          "name": "A#5",
          "ticks": 186480,
          "time": 291.35635199999996,
          "velocity": 0.4330708661417323
        },
        {
          "duration": 0.023436000000003787,
          "durationTicks": 15,
          "midi": 44,
          "name": "G#2",
          "ticks": 186600,
          "time": 291.54384,
          "velocity": 0.4251968503937008
        },
        {
          "duration": 0.023436000000003787,
          "durationTicks": 15,
          "midi": 70,
          "name": "A#4",
          "ticks": 186600,
          "time": 291.54384,
          "velocity": 0.5118110236220472
        },
        {
          "duration": 0.023436000000003787,
          "durationTicks": 15,
          "midi": 82,
          "name": "A#5",
          "ticks": 186600,
          "time": 291.54384,
          "velocity": 0.44881889763779526
        },
        {
          "duration": 0.023436000000003787,
          "durationTicks": 15,
          "midi": 38,
          "name": "D2",
          "ticks": 186720,
          "time": 291.73132799999996,
          "velocity": 0.9212598425196851
        },
        {
          "duration": 0.023436000000003787,
          "durationTicks": 15,
          "midi": 39,
          "name": "D#2",
          "ticks": 186720,
          "time": 291.73132799999996,
          "velocity": 0.9212598425196851
        },
        {
          "duration": 0.023436000000003787,
          "durationTicks": 15,
          "midi": 44,
          "name": "G#2",
          "ticks": 186720,
          "time": 291.73132799999996,
          "velocity": 0.7165354330708661
        },
        {
          "duration": 0.023436000000003787,
          "durationTicks": 15,
          "midi": 70,
          "name": "A#4",
          "ticks": 186720,
          "time": 291.73132799999996,
          "velocity": 0.7952755905511811
        },
        {
          "duration": 0.023436000000003787,
          "durationTicks": 15,
          "midi": 82,
          "name": "A#5",
          "ticks": 186720,
          "time": 291.73132799999996,
          "velocity": 0.5590551181102362
        },
        {
          "duration": 0.023436000000003787,
          "durationTicks": 15,
          "midi": 44,
          "name": "G#2",
          "ticks": 186840,
          "time": 291.918816,
          "velocity": 0.4409448818897638
        },
        {
          "duration": 0.023436000000003787,
          "durationTicks": 15,
          "midi": 70,
          "name": "A#4",
          "ticks": 186840,
          "time": 291.918816,
          "velocity": 0.5275590551181102
        },
        {
          "duration": 0.023436000000003787,
          "durationTicks": 15,
          "midi": 35,
          "name": "B1",
          "ticks": 186960,
          "time": 292.10630399999997,
          "velocity": 0.8818897637795275
        },
        {
          "duration": 0.023436000000003787,
          "durationTicks": 15,
          "midi": 44,
          "name": "G#2",
          "ticks": 186960,
          "time": 292.10630399999997,
          "velocity": 0.5590551181102362
        },
        {
          "duration": 0.023436000000003787,
          "durationTicks": 15,
          "midi": 70,
          "name": "A#4",
          "ticks": 186960,
          "time": 292.10630399999997,
          "velocity": 0.5984251968503937
        },
        {
          "duration": 0.023436000000003787,
          "durationTicks": 15,
          "midi": 44,
          "name": "G#2",
          "ticks": 187080,
          "time": 292.293792,
          "velocity": 0.4251968503937008
        },
        {
          "duration": 0.023436000000003787,
          "durationTicks": 15,
          "midi": 70,
          "name": "A#4",
          "ticks": 187080,
          "time": 292.293792,
          "velocity": 0.5118110236220472
        },
        {
          "duration": 0.023436000000003787,
          "durationTicks": 15,
          "midi": 82,
          "name": "A#5",
          "ticks": 187080,
          "time": 292.293792,
          "velocity": 0.3937007874015748
        },
        {
          "duration": 0.023436000000003787,
          "durationTicks": 15,
          "midi": 35,
          "name": "B1",
          "ticks": 187200,
          "time": 292.48127999999997,
          "velocity": 0.905511811023622
        },
        {
          "duration": 0.023436000000003787,
          "durationTicks": 15,
          "midi": 44,
          "name": "G#2",
          "ticks": 187200,
          "time": 292.48127999999997,
          "velocity": 0.7007874015748031
        },
        {
          "duration": 0.023436000000003787,
          "durationTicks": 15,
          "midi": 70,
          "name": "A#4",
          "ticks": 187200,
          "time": 292.48127999999997,
          "velocity": 0.7952755905511811
        },
        {
          "duration": 0.023436000000003787,
          "durationTicks": 15,
          "midi": 82,
          "name": "A#5",
          "ticks": 187200,
          "time": 292.48127999999997,
          "velocity": 0.4015748031496063
        },
        {
          "duration": 0.023436000000003787,
          "durationTicks": 15,
          "midi": 44,
          "name": "G#2",
          "ticks": 187320,
          "time": 292.668768,
          "velocity": 0.3543307086614173
        },
        {
          "duration": 0.023436000000003787,
          "durationTicks": 15,
          "midi": 70,
          "name": "A#4",
          "ticks": 187320,
          "time": 292.668768,
          "velocity": 0.5275590551181102
        },
        {
          "duration": 0.023436000000003787,
          "durationTicks": 15,
          "midi": 44,
          "name": "G#2",
          "ticks": 187440,
          "time": 292.856256,
          "velocity": 0.5748031496062992
        },
        {
          "duration": 0.023436000000003787,
          "durationTicks": 15,
          "midi": 70,
          "name": "A#4",
          "ticks": 187440,
          "time": 292.856256,
          "velocity": 0.5984251968503937
        },
        {
          "duration": 0.023436000000003787,
          "durationTicks": 15,
          "midi": 82,
          "name": "A#5",
          "ticks": 187440,
          "time": 292.856256,
          "velocity": 0.44881889763779526
        },
        {
          "duration": 0.023436000000003787,
          "durationTicks": 15,
          "midi": 44,
          "name": "G#2",
          "ticks": 187560,
          "time": 293.043744,
          "velocity": 0.4251968503937008
        },
        {
          "duration": 0.023436000000003787,
          "durationTicks": 15,
          "midi": 70,
          "name": "A#4",
          "ticks": 187560,
          "time": 293.043744,
          "velocity": 0.5118110236220472
        },
        {
          "duration": 0.023436000000003787,
          "durationTicks": 15,
          "midi": 82,
          "name": "A#5",
          "ticks": 187560,
          "time": 293.043744,
          "velocity": 0.48031496062992124
        },
        {
          "duration": 0.023436000000003787,
          "durationTicks": 15,
          "midi": 38,
          "name": "D2",
          "ticks": 187680,
          "time": 293.231232,
          "velocity": 0.905511811023622
        },
        {
          "duration": 0.023436000000003787,
          "durationTicks": 15,
          "midi": 39,
          "name": "D#2",
          "ticks": 187680,
          "time": 293.231232,
          "velocity": 0.905511811023622
        },
        {
          "duration": 0.023436000000003787,
          "durationTicks": 15,
          "midi": 44,
          "name": "G#2",
          "ticks": 187680,
          "time": 293.231232,
          "velocity": 0.7165354330708661
        },
        {
          "duration": 0.023436000000003787,
          "durationTicks": 15,
          "midi": 70,
          "name": "A#4",
          "ticks": 187680,
          "time": 293.231232,
          "velocity": 0.7952755905511811
        },
        {
          "duration": 0.023436000000003787,
          "durationTicks": 15,
          "midi": 82,
          "name": "A#5",
          "ticks": 187680,
          "time": 293.231232,
          "velocity": 0.5275590551181102
        },
        {
          "duration": 0.023435999999946944,
          "durationTicks": 15,
          "midi": 44,
          "name": "G#2",
          "ticks": 187800,
          "time": 293.41872,
          "velocity": 0.4409448818897638
        },
        {
          "duration": 0.023435999999946944,
          "durationTicks": 15,
          "midi": 70,
          "name": "A#4",
          "ticks": 187800,
          "time": 293.41872,
          "velocity": 0.5275590551181102
        },
        {
          "duration": 0.023436000000003787,
          "durationTicks": 15,
          "midi": 46,
          "name": "A#2",
          "ticks": 187920,
          "time": 293.606208,
          "velocity": 0.6062992125984252
        },
        {
          "duration": 0.023436000000003787,
          "durationTicks": 15,
          "midi": 70,
          "name": "A#4",
          "ticks": 187920,
          "time": 293.606208,
          "velocity": 0.5984251968503937
        },
        {
          "duration": 0.023436000000003787,
          "durationTicks": 15,
          "midi": 82,
          "name": "A#5",
          "ticks": 187920,
          "time": 293.606208,
          "velocity": 0.48031496062992124
        },
        {
          "duration": 0.023436000000003787,
          "durationTicks": 15,
          "midi": 35,
          "name": "B1",
          "ticks": 188040,
          "time": 293.79369599999995,
          "velocity": 0.8740157480314961
        },
        {
          "duration": 0.023436000000003787,
          "durationTicks": 15,
          "midi": 70,
          "name": "A#4",
          "ticks": 188040,
          "time": 293.79369599999995,
          "velocity": 0.5118110236220472
        },
        {
          "duration": 0.023436000000003787,
          "durationTicks": 15,
          "midi": 82,
          "name": "A#5",
          "ticks": 188040,
          "time": 293.79369599999995,
          "velocity": 0.4015748031496063
        },
        {
          "duration": 0.023436000000003787,
          "durationTicks": 15,
          "midi": 35,
          "name": "B1",
          "ticks": 188160,
          "time": 293.981184,
          "velocity": 0.8740157480314961
        },
        {
          "duration": 0.023436000000003787,
          "durationTicks": 15,
          "midi": 44,
          "name": "G#2",
          "ticks": 188160,
          "time": 293.981184,
          "velocity": 0.7007874015748031
        },
        {
          "duration": 0.023436000000003787,
          "durationTicks": 15,
          "midi": 70,
          "name": "A#4",
          "ticks": 188160,
          "time": 293.981184,
          "velocity": 0.7952755905511811
        },
        {
          "duration": 0.023436000000003787,
          "durationTicks": 15,
          "midi": 44,
          "name": "G#2",
          "ticks": 188280,
          "time": 294.16867199999996,
          "velocity": 0.3543307086614173
        },
        {
          "duration": 0.023436000000003787,
          "durationTicks": 15,
          "midi": 70,
          "name": "A#4",
          "ticks": 188280,
          "time": 294.16867199999996,
          "velocity": 0.5275590551181102
        },
        {
          "duration": 0.023436000000003787,
          "durationTicks": 15,
          "midi": 44,
          "name": "G#2",
          "ticks": 188400,
          "time": 294.35616,
          "velocity": 0.5748031496062992
        },
        {
          "duration": 0.023436000000003787,
          "durationTicks": 15,
          "midi": 70,
          "name": "A#4",
          "ticks": 188400,
          "time": 294.35616,
          "velocity": 0.5984251968503937
        },
        {
          "duration": 0.023436000000003787,
          "durationTicks": 15,
          "midi": 82,
          "name": "A#5",
          "ticks": 188400,
          "time": 294.35616,
          "velocity": 0.4330708661417323
        },
        {
          "duration": 0.023436000000003787,
          "durationTicks": 15,
          "midi": 44,
          "name": "G#2",
          "ticks": 188520,
          "time": 294.54364799999996,
          "velocity": 0.4251968503937008
        },
        {
          "duration": 0.023436000000003787,
          "durationTicks": 15,
          "midi": 70,
          "name": "A#4",
          "ticks": 188520,
          "time": 294.54364799999996,
          "velocity": 0.5118110236220472
        },
        {
          "duration": 0.023436000000003787,
          "durationTicks": 15,
          "midi": 82,
          "name": "A#5",
          "ticks": 188520,
          "time": 294.54364799999996,
          "velocity": 0.44881889763779526
        },
        {
          "duration": 0.023436000000003787,
          "durationTicks": 15,
          "midi": 38,
          "name": "D2",
          "ticks": 188640,
          "time": 294.731136,
          "velocity": 0.9212598425196851
        },
        {
          "duration": 0.023436000000003787,
          "durationTicks": 15,
          "midi": 39,
          "name": "D#2",
          "ticks": 188640,
          "time": 294.731136,
          "velocity": 0.9212598425196851
        },
        {
          "duration": 0.023436000000003787,
          "durationTicks": 15,
          "midi": 44,
          "name": "G#2",
          "ticks": 188640,
          "time": 294.731136,
          "velocity": 0.7165354330708661
        },
        {
          "duration": 0.023436000000003787,
          "durationTicks": 15,
          "midi": 70,
          "name": "A#4",
          "ticks": 188640,
          "time": 294.731136,
          "velocity": 0.7952755905511811
        },
        {
          "duration": 0.023436000000003787,
          "durationTicks": 15,
          "midi": 82,
          "name": "A#5",
          "ticks": 188640,
          "time": 294.731136,
          "velocity": 0.5590551181102362
        },
        {
          "duration": 0.023436000000003787,
          "durationTicks": 15,
          "midi": 44,
          "name": "G#2",
          "ticks": 188760,
          "time": 294.91862399999997,
          "velocity": 0.4409448818897638
        },
        {
          "duration": 0.023436000000003787,
          "durationTicks": 15,
          "midi": 70,
          "name": "A#4",
          "ticks": 188760,
          "time": 294.91862399999997,
          "velocity": 0.5275590551181102
        },
        {
          "duration": 0.023436000000003787,
          "durationTicks": 15,
          "midi": 35,
          "name": "B1",
          "ticks": 188880,
          "time": 295.106112,
          "velocity": 0.7480314960629921
        },
        {
          "duration": 0.023436000000003787,
          "durationTicks": 15,
          "midi": 44,
          "name": "G#2",
          "ticks": 188880,
          "time": 295.106112,
          "velocity": 0.5590551181102362
        },
        {
          "duration": 0.023436000000003787,
          "durationTicks": 15,
          "midi": 70,
          "name": "A#4",
          "ticks": 188880,
          "time": 295.106112,
          "velocity": 0.5984251968503937
        },
        {
          "duration": 0.023436000000003787,
          "durationTicks": 15,
          "midi": 35,
          "name": "B1",
          "ticks": 189000,
          "time": 295.29359999999997,
          "velocity": 0.7480314960629921
        },
        {
          "duration": 0.023436000000003787,
          "durationTicks": 15,
          "midi": 44,
          "name": "G#2",
          "ticks": 189000,
          "time": 295.29359999999997,
          "velocity": 0.4251968503937008
        },
        {
          "duration": 0.023436000000003787,
          "durationTicks": 15,
          "midi": 70,
          "name": "A#4",
          "ticks": 189000,
          "time": 295.29359999999997,
          "velocity": 0.5118110236220472
        },
        {
          "duration": 0.023436000000003787,
          "durationTicks": 15,
          "midi": 82,
          "name": "A#5",
          "ticks": 189000,
          "time": 295.29359999999997,
          "velocity": 0.3937007874015748
        },
        {
          "duration": 0.023436000000003787,
          "durationTicks": 15,
          "midi": 35,
          "name": "B1",
          "ticks": 189120,
          "time": 295.481088,
          "velocity": 0.8740157480314961
        },
        {
          "duration": 0.023436000000003787,
          "durationTicks": 15,
          "midi": 44,
          "name": "G#2",
          "ticks": 189120,
          "time": 295.481088,
          "velocity": 0.7007874015748031
        },
        {
          "duration": 0.023436000000003787,
          "durationTicks": 15,
          "midi": 70,
          "name": "A#4",
          "ticks": 189120,
          "time": 295.481088,
          "velocity": 0.7952755905511811
        },
        {
          "duration": 0.023436000000003787,
          "durationTicks": 15,
          "midi": 82,
          "name": "A#5",
          "ticks": 189120,
          "time": 295.481088,
          "velocity": 0.4015748031496063
        },
        {
          "duration": 0.023436000000003787,
          "durationTicks": 15,
          "midi": 44,
          "name": "G#2",
          "ticks": 189240,
          "time": 295.668576,
          "velocity": 0.3543307086614173
        },
        {
          "duration": 0.023436000000003787,
          "durationTicks": 15,
          "midi": 70,
          "name": "A#4",
          "ticks": 189240,
          "time": 295.668576,
          "velocity": 0.5275590551181102
        },
        {
          "duration": 0.023436000000003787,
          "durationTicks": 15,
          "midi": 44,
          "name": "G#2",
          "ticks": 189360,
          "time": 295.856064,
          "velocity": 0.5748031496062992
        },
        {
          "duration": 0.023436000000003787,
          "durationTicks": 15,
          "midi": 70,
          "name": "A#4",
          "ticks": 189360,
          "time": 295.856064,
          "velocity": 0.5984251968503937
        },
        {
          "duration": 0.023436000000003787,
          "durationTicks": 15,
          "midi": 82,
          "name": "A#5",
          "ticks": 189360,
          "time": 295.856064,
          "velocity": 0.44881889763779526
        },
        {
          "duration": 0.023436000000003787,
          "durationTicks": 15,
          "midi": 35,
          "name": "B1",
          "ticks": 189480,
          "time": 296.043552,
          "velocity": 0.984251968503937
        },
        {
          "duration": 0.023436000000003787,
          "durationTicks": 15,
          "midi": 44,
          "name": "G#2",
          "ticks": 189480,
          "time": 296.043552,
          "velocity": 0.4251968503937008
        },
        {
          "duration": 0.023436000000003787,
          "durationTicks": 15,
          "midi": 70,
          "name": "A#4",
          "ticks": 189480,
          "time": 296.043552,
          "velocity": 0.5118110236220472
        },
        {
          "duration": 0.023436000000003787,
          "durationTicks": 15,
          "midi": 82,
          "name": "A#5",
          "ticks": 189480,
          "time": 296.043552,
          "velocity": 0.48031496062992124
        },
        {
          "duration": 0.023435999999946944,
          "durationTicks": 15,
          "midi": 38,
          "name": "D2",
          "ticks": 189600,
          "time": 296.23104,
          "velocity": 0.905511811023622
        },
        {
          "duration": 0.023435999999946944,
          "durationTicks": 15,
          "midi": 39,
          "name": "D#2",
          "ticks": 189600,
          "time": 296.23104,
          "velocity": 0.905511811023622
        },
        {
          "duration": 0.023435999999946944,
          "durationTicks": 15,
          "midi": 44,
          "name": "G#2",
          "ticks": 189600,
          "time": 296.23104,
          "velocity": 0.7165354330708661
        },
        {
          "duration": 0.023435999999946944,
          "durationTicks": 15,
          "midi": 70,
          "name": "A#4",
          "ticks": 189600,
          "time": 296.23104,
          "velocity": 0.7952755905511811
        },
        {
          "duration": 0.023435999999946944,
          "durationTicks": 15,
          "midi": 82,
          "name": "A#5",
          "ticks": 189600,
          "time": 296.23104,
          "velocity": 0.5275590551181102
        },
        {
          "duration": 0.023436000000003787,
          "durationTicks": 15,
          "midi": 44,
          "name": "G#2",
          "ticks": 189720,
          "time": 296.418528,
          "velocity": 0.4409448818897638
        },
        {
          "duration": 0.023436000000003787,
          "durationTicks": 15,
          "midi": 70,
          "name": "A#4",
          "ticks": 189720,
          "time": 296.418528,
          "velocity": 0.5275590551181102
        },
        {
          "duration": 0.023436000000003787,
          "durationTicks": 15,
          "midi": 43,
          "name": "G2",
          "ticks": 189840,
          "time": 296.60601599999995,
          "velocity": 0.8503937007874016
        },
        {
          "duration": 0.023436000000003787,
          "durationTicks": 15,
          "midi": 46,
          "name": "A#2",
          "ticks": 189840,
          "time": 296.60601599999995,
          "velocity": 0.6062992125984252
        },
        {
          "duration": 0.023436000000003787,
          "durationTicks": 15,
          "midi": 70,
          "name": "A#4",
          "ticks": 189840,
          "time": 296.60601599999995,
          "velocity": 0.5984251968503937
        },
        {
          "duration": 0.023436000000003787,
          "durationTicks": 15,
          "midi": 82,
          "name": "A#5",
          "ticks": 189840,
          "time": 296.60601599999995,
          "velocity": 0.48031496062992124
        },
        {
          "duration": 0.023436000000003787,
          "durationTicks": 15,
          "midi": 70,
          "name": "A#4",
          "ticks": 189960,
          "time": 296.793504,
          "velocity": 0.5118110236220472
        },
        {
          "duration": 0.023436000000003787,
          "durationTicks": 15,
          "midi": 82,
          "name": "A#5",
          "ticks": 189960,
          "time": 296.793504,
          "velocity": 0.4015748031496063
        },
        {
          "duration": 0.023436000000003787,
          "durationTicks": 15,
          "midi": 35,
          "name": "B1",
          "ticks": 190080,
          "time": 296.98099199999996,
          "velocity": 0.889763779527559
        },
        {
          "duration": 0.023436000000003787,
          "durationTicks": 15,
          "midi": 43,
          "name": "G2",
          "ticks": 190080,
          "time": 296.98099199999996,
          "velocity": 0.6614173228346457
        },
        {
          "duration": 0.023436000000003787,
          "durationTicks": 15,
          "midi": 44,
          "name": "G#2",
          "ticks": 190080,
          "time": 296.98099199999996,
          "velocity": 0.7007874015748031
        },
        {
          "duration": 0.023436000000003787,
          "durationTicks": 15,
          "midi": 49,
          "name": "C#3",
          "ticks": 190080,
          "time": 296.98099199999996,
          "velocity": 0.6535433070866141
        },
        {
          "duration": 0.023436000000003787,
          "durationTicks": 15,
          "midi": 59,
          "name": "B3",
          "ticks": 190080,
          "time": 296.98099199999996,
          "velocity": 1
        },
        {
          "duration": 0.023436000000003787,
          "durationTicks": 15,
          "midi": 70,
          "name": "A#4",
          "ticks": 190080,
          "time": 296.98099199999996,
          "velocity": 0.7952755905511811
        },
        {
          "duration": 0.023436000000003787,
          "durationTicks": 15,
          "midi": 44,
          "name": "G#2",
          "ticks": 190200,
          "time": 297.16848,
          "velocity": 0.3543307086614173
        },
        {
          "duration": 0.023436000000003787,
          "durationTicks": 15,
          "midi": 70,
          "name": "A#4",
          "ticks": 190200,
          "time": 297.16848,
          "velocity": 0.5275590551181102
        },
        {
          "duration": 0.023436000000003787,
          "durationTicks": 15,
          "midi": 44,
          "name": "G#2",
          "ticks": 190320,
          "time": 297.35596799999996,
          "velocity": 0.5748031496062992
        },
        {
          "duration": 0.023436000000003787,
          "durationTicks": 15,
          "midi": 70,
          "name": "A#4",
          "ticks": 190320,
          "time": 297.35596799999996,
          "velocity": 0.5984251968503937
        },
        {
          "duration": 0.023436000000003787,
          "durationTicks": 15,
          "midi": 82,
          "name": "A#5",
          "ticks": 190320,
          "time": 297.35596799999996,
          "velocity": 0.4330708661417323
        },
        {
          "duration": 0.023436000000003787,
          "durationTicks": 15,
          "midi": 39,
          "name": "D#2",
          "ticks": 190440,
          "time": 297.543456,
          "velocity": 0.7559055118110236
        },
        {
          "duration": 0.023436000000003787,
          "durationTicks": 15,
          "midi": 44,
          "name": "G#2",
          "ticks": 190440,
          "time": 297.543456,
          "velocity": 0.4251968503937008
        },
        {
          "duration": 0.023436000000003787,
          "durationTicks": 15,
          "midi": 70,
          "name": "A#4",
          "ticks": 190440,
          "time": 297.543456,
          "velocity": 0.5118110236220472
        },
        {
          "duration": 0.023436000000003787,
          "durationTicks": 15,
          "midi": 82,
          "name": "A#5",
          "ticks": 190440,
          "time": 297.543456,
          "velocity": 0.44881889763779526
        },
        {
          "duration": 0.023436000000003787,
          "durationTicks": 15,
          "midi": 38,
          "name": "D2",
          "ticks": 190560,
          "time": 297.73094399999997,
          "velocity": 0.9212598425196851
        },
        {
          "duration": 0.023436000000003787,
          "durationTicks": 15,
          "midi": 39,
          "name": "D#2",
          "ticks": 190560,
          "time": 297.73094399999997,
          "velocity": 0.905511811023622
        },
        {
          "duration": 0.023436000000003787,
          "durationTicks": 15,
          "midi": 44,
          "name": "G#2",
          "ticks": 190560,
          "time": 297.73094399999997,
          "velocity": 0.7165354330708661
        },
        {
          "duration": 0.023436000000003787,
          "durationTicks": 15,
          "midi": 70,
          "name": "A#4",
          "ticks": 190560,
          "time": 297.73094399999997,
          "velocity": 0.7952755905511811
        },
        {
          "duration": 0.023436000000003787,
          "durationTicks": 15,
          "midi": 82,
          "name": "A#5",
          "ticks": 190560,
          "time": 297.73094399999997,
          "velocity": 0.5590551181102362
        },
        {
          "duration": 0.023436000000003787,
          "durationTicks": 15,
          "midi": 44,
          "name": "G#2",
          "ticks": 190680,
          "time": 297.918432,
          "velocity": 0.4409448818897638
        },
        {
          "duration": 0.023436000000003787,
          "durationTicks": 15,
          "midi": 70,
          "name": "A#4",
          "ticks": 190680,
          "time": 297.918432,
          "velocity": 0.5275590551181102
        },
        {
          "duration": 0.023436000000003787,
          "durationTicks": 15,
          "midi": 35,
          "name": "B1",
          "ticks": 190800,
          "time": 298.10591999999997,
          "velocity": 0.7480314960629921
        },
        {
          "duration": 0.023436000000003787,
          "durationTicks": 15,
          "midi": 44,
          "name": "G#2",
          "ticks": 190800,
          "time": 298.10591999999997,
          "velocity": 0.5590551181102362
        },
        {
          "duration": 0.023436000000003787,
          "durationTicks": 15,
          "midi": 70,
          "name": "A#4",
          "ticks": 190800,
          "time": 298.10591999999997,
          "velocity": 0.5984251968503937
        },
        {
          "duration": 0.023436000000003787,
          "durationTicks": 15,
          "midi": 35,
          "name": "B1",
          "ticks": 190920,
          "time": 298.293408,
          "velocity": 0.7480314960629921
        },
        {
          "duration": 0.023436000000003787,
          "durationTicks": 15,
          "midi": 44,
          "name": "G#2",
          "ticks": 190920,
          "time": 298.293408,
          "velocity": 0.4251968503937008
        },
        {
          "duration": 0.023436000000003787,
          "durationTicks": 15,
          "midi": 70,
          "name": "A#4",
          "ticks": 190920,
          "time": 298.293408,
          "velocity": 0.5118110236220472
        },
        {
          "duration": 0.023436000000003787,
          "durationTicks": 15,
          "midi": 82,
          "name": "A#5",
          "ticks": 190920,
          "time": 298.293408,
          "velocity": 0.3937007874015748
        },
        {
          "duration": 0.023436000000003787,
          "durationTicks": 15,
          "midi": 35,
          "name": "B1",
          "ticks": 191040,
          "time": 298.480896,
          "velocity": 0.8740157480314961
        },
        {
          "duration": 0.023436000000003787,
          "durationTicks": 15,
          "midi": 44,
          "name": "G#2",
          "ticks": 191040,
          "time": 298.480896,
          "velocity": 0.7007874015748031
        },
        {
          "duration": 0.023436000000003787,
          "durationTicks": 15,
          "midi": 70,
          "name": "A#4",
          "ticks": 191040,
          "time": 298.480896,
          "velocity": 0.7952755905511811
        },
        {
          "duration": 0.023436000000003787,
          "durationTicks": 15,
          "midi": 82,
          "name": "A#5",
          "ticks": 191040,
          "time": 298.480896,
          "velocity": 0.4015748031496063
        },
        {
          "duration": 0.023436000000003787,
          "durationTicks": 15,
          "midi": 44,
          "name": "G#2",
          "ticks": 191160,
          "time": 298.668384,
          "velocity": 0.3543307086614173
        },
        {
          "duration": 0.023436000000003787,
          "durationTicks": 15,
          "midi": 70,
          "name": "A#4",
          "ticks": 191160,
          "time": 298.668384,
          "velocity": 0.5275590551181102
        },
        {
          "duration": 0.023436000000003787,
          "durationTicks": 15,
          "midi": 44,
          "name": "G#2",
          "ticks": 191280,
          "time": 298.855872,
          "velocity": 0.5748031496062992
        },
        {
          "duration": 0.023436000000003787,
          "durationTicks": 15,
          "midi": 70,
          "name": "A#4",
          "ticks": 191280,
          "time": 298.855872,
          "velocity": 0.5984251968503937
        },
        {
          "duration": 0.023436000000003787,
          "durationTicks": 15,
          "midi": 82,
          "name": "A#5",
          "ticks": 191280,
          "time": 298.855872,
          "velocity": 0.44881889763779526
        },
        {
          "duration": 0.023435999999946944,
          "durationTicks": 15,
          "midi": 44,
          "name": "G#2",
          "ticks": 191400,
          "time": 299.04336,
          "velocity": 0.4251968503937008
        },
        {
          "duration": 0.023435999999946944,
          "durationTicks": 15,
          "midi": 70,
          "name": "A#4",
          "ticks": 191400,
          "time": 299.04336,
          "velocity": 0.5118110236220472
        },
        {
          "duration": 0.023435999999946944,
          "durationTicks": 15,
          "midi": 82,
          "name": "A#5",
          "ticks": 191400,
          "time": 299.04336,
          "velocity": 0.48031496062992124
        },
        {
          "duration": 0.023436000000003787,
          "durationTicks": 15,
          "midi": 38,
          "name": "D2",
          "ticks": 191520,
          "time": 299.230848,
          "velocity": 0.905511811023622
        },
        {
          "duration": 0.023436000000003787,
          "durationTicks": 15,
          "midi": 39,
          "name": "D#2",
          "ticks": 191520,
          "time": 299.230848,
          "velocity": 0.9212598425196851
        },
        {
          "duration": 0.023436000000003787,
          "durationTicks": 15,
          "midi": 44,
          "name": "G#2",
          "ticks": 191520,
          "time": 299.230848,
          "velocity": 0.7165354330708661
        },
        {
          "duration": 0.023436000000003787,
          "durationTicks": 15,
          "midi": 70,
          "name": "A#4",
          "ticks": 191520,
          "time": 299.230848,
          "velocity": 0.7952755905511811
        },
        {
          "duration": 0.023436000000003787,
          "durationTicks": 15,
          "midi": 82,
          "name": "A#5",
          "ticks": 191520,
          "time": 299.230848,
          "velocity": 0.5275590551181102
        },
        {
          "duration": 0.023436000000003787,
          "durationTicks": 15,
          "midi": 44,
          "name": "G#2",
          "ticks": 191640,
          "time": 299.41833599999995,
          "velocity": 0.4409448818897638
        },
        {
          "duration": 0.023436000000003787,
          "durationTicks": 15,
          "midi": 70,
          "name": "A#4",
          "ticks": 191640,
          "time": 299.41833599999995,
          "velocity": 0.5275590551181102
        },
        {
          "duration": 0.023436000000003787,
          "durationTicks": 15,
          "midi": 46,
          "name": "A#2",
          "ticks": 191760,
          "time": 299.605824,
          "velocity": 0.6062992125984252
        },
        {
          "duration": 0.023436000000003787,
          "durationTicks": 15,
          "midi": 70,
          "name": "A#4",
          "ticks": 191760,
          "time": 299.605824,
          "velocity": 0.5984251968503937
        },
        {
          "duration": 0.023436000000003787,
          "durationTicks": 15,
          "midi": 82,
          "name": "A#5",
          "ticks": 191760,
          "time": 299.605824,
          "velocity": 0.48031496062992124
        },
        {
          "duration": 0.023436000000003787,
          "durationTicks": 15,
          "midi": 70,
          "name": "A#4",
          "ticks": 191880,
          "time": 299.79331199999996,
          "velocity": 0.5118110236220472
        },
        {
          "duration": 0.023436000000003787,
          "durationTicks": 15,
          "midi": 82,
          "name": "A#5",
          "ticks": 191880,
          "time": 299.79331199999996,
          "velocity": 0.4015748031496063
        },
        {
          "duration": 0.023436000000003787,
          "durationTicks": 15,
          "midi": 35,
          "name": "B1",
          "ticks": 192000,
          "time": 299.9808,
          "velocity": 0.8740157480314961
        },
        {
          "duration": 0.023436000000003787,
          "durationTicks": 15,
          "midi": 44,
          "name": "G#2",
          "ticks": 192000,
          "time": 299.9808,
          "velocity": 0.7007874015748031
        },
        {
          "duration": 0.023436000000003787,
          "durationTicks": 15,
          "midi": 70,
          "name": "A#4",
          "ticks": 192000,
          "time": 299.9808,
          "velocity": 0.7952755905511811
        },
        {
          "duration": 0.023436000000003787,
          "durationTicks": 15,
          "midi": 44,
          "name": "G#2",
          "ticks": 192120,
          "time": 300.16828799999996,
          "velocity": 0.3543307086614173
        },
        {
          "duration": 0.023436000000003787,
          "durationTicks": 15,
          "midi": 70,
          "name": "A#4",
          "ticks": 192120,
          "time": 300.16828799999996,
          "velocity": 0.5275590551181102
        },
        {
          "duration": 0.023436000000003787,
          "durationTicks": 15,
          "midi": 44,
          "name": "G#2",
          "ticks": 192240,
          "time": 300.355776,
          "velocity": 0.5748031496062992
        },
        {
          "duration": 0.023436000000003787,
          "durationTicks": 15,
          "midi": 70,
          "name": "A#4",
          "ticks": 192240,
          "time": 300.355776,
          "velocity": 0.5984251968503937
        },
        {
          "duration": 0.023436000000003787,
          "durationTicks": 15,
          "midi": 82,
          "name": "A#5",
          "ticks": 192240,
          "time": 300.355776,
          "velocity": 0.4330708661417323
        },
        {
          "duration": 0.023436000000003787,
          "durationTicks": 15,
          "midi": 44,
          "name": "G#2",
          "ticks": 192360,
          "time": 300.54326399999997,
          "velocity": 0.4251968503937008
        },
        {
          "duration": 0.023436000000003787,
          "durationTicks": 15,
          "midi": 70,
          "name": "A#4",
          "ticks": 192360,
          "time": 300.54326399999997,
          "velocity": 0.5118110236220472
        },
        {
          "duration": 0.023436000000003787,
          "durationTicks": 15,
          "midi": 82,
          "name": "A#5",
          "ticks": 192360,
          "time": 300.54326399999997,
          "velocity": 0.44881889763779526
        },
        {
          "duration": 0.023436000000003787,
          "durationTicks": 15,
          "midi": 38,
          "name": "D2",
          "ticks": 192480,
          "time": 300.730752,
          "velocity": 0.9212598425196851
        },
        {
          "duration": 0.023436000000003787,
          "durationTicks": 15,
          "midi": 39,
          "name": "D#2",
          "ticks": 192480,
          "time": 300.730752,
          "velocity": 0.905511811023622
        },
        {
          "duration": 0.023436000000003787,
          "durationTicks": 15,
          "midi": 44,
          "name": "G#2",
          "ticks": 192480,
          "time": 300.730752,
          "velocity": 0.7165354330708661
        },
        {
          "duration": 0.023436000000003787,
          "durationTicks": 15,
          "midi": 70,
          "name": "A#4",
          "ticks": 192480,
          "time": 300.730752,
          "velocity": 0.7952755905511811
        },
        {
          "duration": 0.023436000000003787,
          "durationTicks": 15,
          "midi": 82,
          "name": "A#5",
          "ticks": 192480,
          "time": 300.730752,
          "velocity": 0.5590551181102362
        },
        {
          "duration": 0.023436000000003787,
          "durationTicks": 15,
          "midi": 44,
          "name": "G#2",
          "ticks": 192600,
          "time": 300.91823999999997,
          "velocity": 0.4409448818897638
        },
        {
          "duration": 0.023436000000003787,
          "durationTicks": 15,
          "midi": 70,
          "name": "A#4",
          "ticks": 192600,
          "time": 300.91823999999997,
          "velocity": 0.5275590551181102
        },
        {
          "duration": 0.023436000000003787,
          "durationTicks": 15,
          "midi": 35,
          "name": "B1",
          "ticks": 192720,
          "time": 301.105728,
          "velocity": 0.8582677165354331
        },
        {
          "duration": 0.023436000000003787,
          "durationTicks": 15,
          "midi": 44,
          "name": "G#2",
          "ticks": 192720,
          "time": 301.105728,
          "velocity": 0.5590551181102362
        },
        {
          "duration": 0.023436000000003787,
          "durationTicks": 15,
          "midi": 70,
          "name": "A#4",
          "ticks": 192720,
          "time": 301.105728,
          "velocity": 0.5984251968503937
        },
        {
          "duration": 0.023436000000003787,
          "durationTicks": 15,
          "midi": 44,
          "name": "G#2",
          "ticks": 192840,
          "time": 301.293216,
          "velocity": 0.4251968503937008
        },
        {
          "duration": 0.023436000000003787,
          "durationTicks": 15,
          "midi": 70,
          "name": "A#4",
          "ticks": 192840,
          "time": 301.293216,
          "velocity": 0.5118110236220472
        },
        {
          "duration": 0.023436000000003787,
          "durationTicks": 15,
          "midi": 82,
          "name": "A#5",
          "ticks": 192840,
          "time": 301.293216,
          "velocity": 0.3937007874015748
        },
        {
          "duration": 0.023436000000003787,
          "durationTicks": 15,
          "midi": 35,
          "name": "B1",
          "ticks": 192960,
          "time": 301.480704,
          "velocity": 0.8740157480314961
        },
        {
          "duration": 0.023436000000003787,
          "durationTicks": 15,
          "midi": 44,
          "name": "G#2",
          "ticks": 192960,
          "time": 301.480704,
          "velocity": 0.7007874015748031
        },
        {
          "duration": 0.023436000000003787,
          "durationTicks": 15,
          "midi": 70,
          "name": "A#4",
          "ticks": 192960,
          "time": 301.480704,
          "velocity": 0.7952755905511811
        },
        {
          "duration": 0.023436000000003787,
          "durationTicks": 15,
          "midi": 82,
          "name": "A#5",
          "ticks": 192960,
          "time": 301.480704,
          "velocity": 0.4015748031496063
        },
        {
          "duration": 0.023436000000003787,
          "durationTicks": 15,
          "midi": 44,
          "name": "G#2",
          "ticks": 193080,
          "time": 301.668192,
          "velocity": 0.3543307086614173
        },
        {
          "duration": 0.023436000000003787,
          "durationTicks": 15,
          "midi": 70,
          "name": "A#4",
          "ticks": 193080,
          "time": 301.668192,
          "velocity": 0.5275590551181102
        },
        {
          "duration": 0.023435999999946944,
          "durationTicks": 15,
          "midi": 44,
          "name": "G#2",
          "ticks": 193200,
          "time": 301.85568,
          "velocity": 0.5748031496062992
        },
        {
          "duration": 0.023435999999946944,
          "durationTicks": 15,
          "midi": 70,
          "name": "A#4",
          "ticks": 193200,
          "time": 301.85568,
          "velocity": 0.5984251968503937
        },
        {
          "duration": 0.023435999999946944,
          "durationTicks": 15,
          "midi": 82,
          "name": "A#5",
          "ticks": 193200,
          "time": 301.85568,
          "velocity": 0.44881889763779526
        },
        {
          "duration": 0.023436000000003787,
          "durationTicks": 15,
          "midi": 44,
          "name": "G#2",
          "ticks": 193320,
          "time": 302.043168,
          "velocity": 0.4251968503937008
        },
        {
          "duration": 0.023436000000003787,
          "durationTicks": 15,
          "midi": 70,
          "name": "A#4",
          "ticks": 193320,
          "time": 302.043168,
          "velocity": 0.5118110236220472
        },
        {
          "duration": 0.023436000000003787,
          "durationTicks": 15,
          "midi": 82,
          "name": "A#5",
          "ticks": 193320,
          "time": 302.043168,
          "velocity": 0.48031496062992124
        },
        {
          "duration": 0.023436000000003787,
          "durationTicks": 15,
          "midi": 38,
          "name": "D2",
          "ticks": 193440,
          "time": 302.23065599999995,
          "velocity": 0.905511811023622
        },
        {
          "duration": 0.023436000000003787,
          "durationTicks": 15,
          "midi": 39,
          "name": "D#2",
          "ticks": 193440,
          "time": 302.23065599999995,
          "velocity": 0.9212598425196851
        },
        {
          "duration": 0.023436000000003787,
          "durationTicks": 15,
          "midi": 44,
          "name": "G#2",
          "ticks": 193440,
          "time": 302.23065599999995,
          "velocity": 0.7165354330708661
        },
        {
          "duration": 0.023436000000003787,
          "durationTicks": 15,
          "midi": 70,
          "name": "A#4",
          "ticks": 193440,
          "time": 302.23065599999995,
          "velocity": 0.7952755905511811
        },
        {
          "duration": 0.023436000000003787,
          "durationTicks": 15,
          "midi": 82,
          "name": "A#5",
          "ticks": 193440,
          "time": 302.23065599999995,
          "velocity": 0.5275590551181102
        },
        {
          "duration": 0.023436000000003787,
          "durationTicks": 15,
          "midi": 44,
          "name": "G#2",
          "ticks": 193560,
          "time": 302.418144,
          "velocity": 0.4409448818897638
        },
        {
          "duration": 0.023436000000003787,
          "durationTicks": 15,
          "midi": 70,
          "name": "A#4",
          "ticks": 193560,
          "time": 302.418144,
          "velocity": 0.5275590551181102
        },
        {
          "duration": 0.023436000000003787,
          "durationTicks": 15,
          "midi": 38,
          "name": "D2",
          "ticks": 193680,
          "time": 302.60563199999996,
          "velocity": 0.84251968503937
        },
        {
          "duration": 0.023436000000003787,
          "durationTicks": 15,
          "midi": 46,
          "name": "A#2",
          "ticks": 193680,
          "time": 302.60563199999996,
          "velocity": 0.6062992125984252
        },
        {
          "duration": 0.023436000000003787,
          "durationTicks": 15,
          "midi": 70,
          "name": "A#4",
          "ticks": 193680,
          "time": 302.60563199999996,
          "velocity": 0.5984251968503937
        },
        {
          "duration": 0.023436000000003787,
          "durationTicks": 15,
          "midi": 82,
          "name": "A#5",
          "ticks": 193680,
          "time": 302.60563199999996,
          "velocity": 0.48031496062992124
        },
        {
          "duration": 0.023436000000003787,
          "durationTicks": 15,
          "midi": 35,
          "name": "B1",
          "ticks": 193800,
          "time": 302.79312,
          "velocity": 0.8740157480314961
        },
        {
          "duration": 0.023436000000003787,
          "durationTicks": 15,
          "midi": 70,
          "name": "A#4",
          "ticks": 193800,
          "time": 302.79312,
          "velocity": 0.5118110236220472
        },
        {
          "duration": 0.023436000000003787,
          "durationTicks": 15,
          "midi": 82,
          "name": "A#5",
          "ticks": 193800,
          "time": 302.79312,
          "velocity": 0.4015748031496063
        },
        {
          "duration": 0.023436000000003787,
          "durationTicks": 15,
          "midi": 35,
          "name": "B1",
          "ticks": 193920,
          "time": 302.98060799999996,
          "velocity": 0.8740157480314961
        },
        {
          "duration": 0.023436000000003787,
          "durationTicks": 15,
          "midi": 44,
          "name": "G#2",
          "ticks": 193920,
          "time": 302.98060799999996,
          "velocity": 0.7007874015748031
        },
        {
          "duration": 0.023436000000003787,
          "durationTicks": 15,
          "midi": 70,
          "name": "A#4",
          "ticks": 193920,
          "time": 302.98060799999996,
          "velocity": 0.7952755905511811
        },
        {
          "duration": 0.023436000000003787,
          "durationTicks": 15,
          "midi": 44,
          "name": "G#2",
          "ticks": 194040,
          "time": 303.168096,
          "velocity": 0.3543307086614173
        },
        {
          "duration": 0.023436000000003787,
          "durationTicks": 15,
          "midi": 70,
          "name": "A#4",
          "ticks": 194040,
          "time": 303.168096,
          "velocity": 0.5275590551181102
        },
        {
          "duration": 0.023436000000003787,
          "durationTicks": 15,
          "midi": 44,
          "name": "G#2",
          "ticks": 194160,
          "time": 303.35558399999996,
          "velocity": 0.5748031496062992
        },
        {
          "duration": 0.023436000000003787,
          "durationTicks": 15,
          "midi": 70,
          "name": "A#4",
          "ticks": 194160,
          "time": 303.35558399999996,
          "velocity": 0.5984251968503937
        },
        {
          "duration": 0.023436000000003787,
          "durationTicks": 15,
          "midi": 82,
          "name": "A#5",
          "ticks": 194160,
          "time": 303.35558399999996,
          "velocity": 0.4330708661417323
        },
        {
          "duration": 0.023436000000003787,
          "durationTicks": 15,
          "midi": 44,
          "name": "G#2",
          "ticks": 194280,
          "time": 303.543072,
          "velocity": 0.4251968503937008
        },
        {
          "duration": 0.023436000000003787,
          "durationTicks": 15,
          "midi": 70,
          "name": "A#4",
          "ticks": 194280,
          "time": 303.543072,
          "velocity": 0.5118110236220472
        },
        {
          "duration": 0.023436000000003787,
          "durationTicks": 15,
          "midi": 82,
          "name": "A#5",
          "ticks": 194280,
          "time": 303.543072,
          "velocity": 0.44881889763779526
        },
        {
          "duration": 0.023436000000003787,
          "durationTicks": 15,
          "midi": 38,
          "name": "D2",
          "ticks": 194400,
          "time": 303.73055999999997,
          "velocity": 0.9212598425196851
        },
        {
          "duration": 0.023436000000003787,
          "durationTicks": 15,
          "midi": 39,
          "name": "D#2",
          "ticks": 194400,
          "time": 303.73055999999997,
          "velocity": 0.905511811023622
        },
        {
          "duration": 0.023436000000003787,
          "durationTicks": 15,
          "midi": 44,
          "name": "G#2",
          "ticks": 194400,
          "time": 303.73055999999997,
          "velocity": 0.7165354330708661
        },
        {
          "duration": 0.023436000000003787,
          "durationTicks": 15,
          "midi": 70,
          "name": "A#4",
          "ticks": 194400,
          "time": 303.73055999999997,
          "velocity": 0.7952755905511811
        },
        {
          "duration": 0.023436000000003787,
          "durationTicks": 15,
          "midi": 82,
          "name": "A#5",
          "ticks": 194400,
          "time": 303.73055999999997,
          "velocity": 0.5590551181102362
        },
        {
          "duration": 0.023436000000003787,
          "durationTicks": 15,
          "midi": 44,
          "name": "G#2",
          "ticks": 194520,
          "time": 303.918048,
          "velocity": 0.4409448818897638
        },
        {
          "duration": 0.023436000000003787,
          "durationTicks": 15,
          "midi": 70,
          "name": "A#4",
          "ticks": 194520,
          "time": 303.918048,
          "velocity": 0.5275590551181102
        },
        {
          "duration": 0.023436000000003787,
          "durationTicks": 15,
          "midi": 35,
          "name": "B1",
          "ticks": 194640,
          "time": 304.105536,
          "velocity": 0.7480314960629921
        },
        {
          "duration": 0.023436000000003787,
          "durationTicks": 15,
          "midi": 44,
          "name": "G#2",
          "ticks": 194640,
          "time": 304.105536,
          "velocity": 0.5590551181102362
        },
        {
          "duration": 0.023436000000003787,
          "durationTicks": 15,
          "midi": 70,
          "name": "A#4",
          "ticks": 194640,
          "time": 304.105536,
          "velocity": 0.5984251968503937
        },
        {
          "duration": 0.023436000000003787,
          "durationTicks": 15,
          "midi": 35,
          "name": "B1",
          "ticks": 194760,
          "time": 304.293024,
          "velocity": 0.7480314960629921
        },
        {
          "duration": 0.023436000000003787,
          "durationTicks": 15,
          "midi": 44,
          "name": "G#2",
          "ticks": 194760,
          "time": 304.293024,
          "velocity": 0.4251968503937008
        },
        {
          "duration": 0.023436000000003787,
          "durationTicks": 15,
          "midi": 70,
          "name": "A#4",
          "ticks": 194760,
          "time": 304.293024,
          "velocity": 0.5118110236220472
        },
        {
          "duration": 0.023436000000003787,
          "durationTicks": 15,
          "midi": 82,
          "name": "A#5",
          "ticks": 194760,
          "time": 304.293024,
          "velocity": 0.3937007874015748
        },
        {
          "duration": 0.023436000000003787,
          "durationTicks": 15,
          "midi": 35,
          "name": "B1",
          "ticks": 194880,
          "time": 304.480512,
          "velocity": 0.8740157480314961
        },
        {
          "duration": 0.023436000000003787,
          "durationTicks": 15,
          "midi": 44,
          "name": "G#2",
          "ticks": 194880,
          "time": 304.480512,
          "velocity": 0.7007874015748031
        },
        {
          "duration": 0.023436000000003787,
          "durationTicks": 15,
          "midi": 70,
          "name": "A#4",
          "ticks": 194880,
          "time": 304.480512,
          "velocity": 0.7952755905511811
        },
        {
          "duration": 0.023436000000003787,
          "durationTicks": 15,
          "midi": 82,
          "name": "A#5",
          "ticks": 194880,
          "time": 304.480512,
          "velocity": 0.4015748031496063
        },
        {
          "duration": 0.023435999999946944,
          "durationTicks": 15,
          "midi": 44,
          "name": "G#2",
          "ticks": 195000,
          "time": 304.668,
          "velocity": 0.3543307086614173
        },
        {
          "duration": 0.023435999999946944,
          "durationTicks": 15,
          "midi": 70,
          "name": "A#4",
          "ticks": 195000,
          "time": 304.668,
          "velocity": 0.5275590551181102
        },
        {
          "duration": 0.023436000000003787,
          "durationTicks": 15,
          "midi": 44,
          "name": "G#2",
          "ticks": 195120,
          "time": 304.855488,
          "velocity": 0.5748031496062992
        },
        {
          "duration": 0.023436000000003787,
          "durationTicks": 15,
          "midi": 70,
          "name": "A#4",
          "ticks": 195120,
          "time": 304.855488,
          "velocity": 0.5984251968503937
        },
        {
          "duration": 0.023436000000003787,
          "durationTicks": 15,
          "midi": 82,
          "name": "A#5",
          "ticks": 195120,
          "time": 304.855488,
          "velocity": 0.44881889763779526
        },
        {
          "duration": 0.023436000000003787,
          "durationTicks": 15,
          "midi": 44,
          "name": "G#2",
          "ticks": 195240,
          "time": 305.04297599999995,
          "velocity": 0.4251968503937008
        },
        {
          "duration": 0.023436000000003787,
          "durationTicks": 15,
          "midi": 70,
          "name": "A#4",
          "ticks": 195240,
          "time": 305.04297599999995,
          "velocity": 0.5118110236220472
        },
        {
          "duration": 0.023436000000003787,
          "durationTicks": 15,
          "midi": 82,
          "name": "A#5",
          "ticks": 195240,
          "time": 305.04297599999995,
          "velocity": 0.48031496062992124
        },
        {
          "duration": 0.023436000000003787,
          "durationTicks": 15,
          "midi": 38,
          "name": "D2",
          "ticks": 195360,
          "time": 305.230464,
          "velocity": 0.905511811023622
        },
        {
          "duration": 0.023436000000003787,
          "durationTicks": 15,
          "midi": 39,
          "name": "D#2",
          "ticks": 195360,
          "time": 305.230464,
          "velocity": 0.9212598425196851
        },
        {
          "duration": 0.023436000000003787,
          "durationTicks": 15,
          "midi": 44,
          "name": "G#2",
          "ticks": 195360,
          "time": 305.230464,
          "velocity": 0.7165354330708661
        },
        {
          "duration": 0.023436000000003787,
          "durationTicks": 15,
          "midi": 70,
          "name": "A#4",
          "ticks": 195360,
          "time": 305.230464,
          "velocity": 0.7952755905511811
        },
        {
          "duration": 0.023436000000003787,
          "durationTicks": 15,
          "midi": 82,
          "name": "A#5",
          "ticks": 195360,
          "time": 305.230464,
          "velocity": 0.5275590551181102
        },
        {
          "duration": 0.023436000000003787,
          "durationTicks": 15,
          "midi": 44,
          "name": "G#2",
          "ticks": 195480,
          "time": 305.41795199999996,
          "velocity": 0.4409448818897638
        },
        {
          "duration": 0.023436000000003787,
          "durationTicks": 15,
          "midi": 70,
          "name": "A#4",
          "ticks": 195480,
          "time": 305.41795199999996,
          "velocity": 0.5275590551181102
        },
        {
          "duration": 0.023436000000003787,
          "durationTicks": 15,
          "midi": 46,
          "name": "A#2",
          "ticks": 195600,
          "time": 305.60544,
          "velocity": 0.6062992125984252
        },
        {
          "duration": 0.023436000000003787,
          "durationTicks": 15,
          "midi": 70,
          "name": "A#4",
          "ticks": 195600,
          "time": 305.60544,
          "velocity": 0.5984251968503937
        },
        {
          "duration": 0.023436000000003787,
          "durationTicks": 15,
          "midi": 82,
          "name": "A#5",
          "ticks": 195600,
          "time": 305.60544,
          "velocity": 0.48031496062992124
        },
        {
          "duration": 0.023436000000003787,
          "durationTicks": 15,
          "midi": 70,
          "name": "A#4",
          "ticks": 195720,
          "time": 305.79292799999996,
          "velocity": 0.5118110236220472
        },
        {
          "duration": 0.023436000000003787,
          "durationTicks": 15,
          "midi": 82,
          "name": "A#5",
          "ticks": 195720,
          "time": 305.79292799999996,
          "velocity": 0.4015748031496063
        },
        {
          "duration": 0.023436000000003787,
          "durationTicks": 15,
          "midi": 35,
          "name": "B1",
          "ticks": 195840,
          "time": 305.980416,
          "velocity": 0.8740157480314961
        },
        {
          "duration": 0.023436000000003787,
          "durationTicks": 15,
          "midi": 44,
          "name": "G#2",
          "ticks": 195840,
          "time": 305.980416,
          "velocity": 0.7007874015748031
        },
        {
          "duration": 0.023436000000003787,
          "durationTicks": 15,
          "midi": 70,
          "name": "A#4",
          "ticks": 195840,
          "time": 305.980416,
          "velocity": 0.7952755905511811
        },
        {
          "duration": 0.023436000000003787,
          "durationTicks": 15,
          "midi": 44,
          "name": "G#2",
          "ticks": 195960,
          "time": 306.16790399999996,
          "velocity": 0.3543307086614173
        },
        {
          "duration": 0.023436000000003787,
          "durationTicks": 15,
          "midi": 70,
          "name": "A#4",
          "ticks": 195960,
          "time": 306.16790399999996,
          "velocity": 0.5275590551181102
        },
        {
          "duration": 0.023436000000003787,
          "durationTicks": 15,
          "midi": 44,
          "name": "G#2",
          "ticks": 196080,
          "time": 306.355392,
          "velocity": 0.5748031496062992
        },
        {
          "duration": 0.023436000000003787,
          "durationTicks": 15,
          "midi": 70,
          "name": "A#4",
          "ticks": 196080,
          "time": 306.355392,
          "velocity": 0.5984251968503937
        },
        {
          "duration": 0.023436000000003787,
          "durationTicks": 15,
          "midi": 82,
          "name": "A#5",
          "ticks": 196080,
          "time": 306.355392,
          "velocity": 0.4330708661417323
        },
        {
          "duration": 0.023436000000003787,
          "durationTicks": 15,
          "midi": 44,
          "name": "G#2",
          "ticks": 196200,
          "time": 306.54287999999997,
          "velocity": 0.4251968503937008
        },
        {
          "duration": 0.023436000000003787,
          "durationTicks": 15,
          "midi": 70,
          "name": "A#4",
          "ticks": 196200,
          "time": 306.54287999999997,
          "velocity": 0.5118110236220472
        },
        {
          "duration": 0.023436000000003787,
          "durationTicks": 15,
          "midi": 82,
          "name": "A#5",
          "ticks": 196200,
          "time": 306.54287999999997,
          "velocity": 0.44881889763779526
        },
        {
          "duration": 0.023436000000003787,
          "durationTicks": 15,
          "midi": 38,
          "name": "D2",
          "ticks": 196320,
          "time": 306.730368,
          "velocity": 0.9212598425196851
        },
        {
          "duration": 0.023436000000003787,
          "durationTicks": 15,
          "midi": 39,
          "name": "D#2",
          "ticks": 196320,
          "time": 306.730368,
          "velocity": 0.905511811023622
        },
        {
          "duration": 0.023436000000003787,
          "durationTicks": 15,
          "midi": 44,
          "name": "G#2",
          "ticks": 196320,
          "time": 306.730368,
          "velocity": 0.7165354330708661
        },
        {
          "duration": 0.023436000000003787,
          "durationTicks": 15,
          "midi": 70,
          "name": "A#4",
          "ticks": 196320,
          "time": 306.730368,
          "velocity": 0.7952755905511811
        },
        {
          "duration": 0.023436000000003787,
          "durationTicks": 15,
          "midi": 82,
          "name": "A#5",
          "ticks": 196320,
          "time": 306.730368,
          "velocity": 0.5590551181102362
        },
        {
          "duration": 0.023436000000003787,
          "durationTicks": 15,
          "midi": 44,
          "name": "G#2",
          "ticks": 196440,
          "time": 306.917856,
          "velocity": 0.4409448818897638
        },
        {
          "duration": 0.023436000000003787,
          "durationTicks": 15,
          "midi": 70,
          "name": "A#4",
          "ticks": 196440,
          "time": 306.917856,
          "velocity": 0.5275590551181102
        },
        {
          "duration": 0.023436000000003787,
          "durationTicks": 15,
          "midi": 35,
          "name": "B1",
          "ticks": 196560,
          "time": 307.105344,
          "velocity": 0.8740157480314961
        },
        {
          "duration": 0.023436000000003787,
          "durationTicks": 15,
          "midi": 44,
          "name": "G#2",
          "ticks": 196560,
          "time": 307.105344,
          "velocity": 0.5590551181102362
        },
        {
          "duration": 0.023436000000003787,
          "durationTicks": 15,
          "midi": 70,
          "name": "A#4",
          "ticks": 196560,
          "time": 307.105344,
          "velocity": 0.5984251968503937
        },
        {
          "duration": 0.023436000000003787,
          "durationTicks": 15,
          "midi": 44,
          "name": "G#2",
          "ticks": 196680,
          "time": 307.292832,
          "velocity": 0.4251968503937008
        },
        {
          "duration": 0.023436000000003787,
          "durationTicks": 15,
          "midi": 70,
          "name": "A#4",
          "ticks": 196680,
          "time": 307.292832,
          "velocity": 0.5118110236220472
        },
        {
          "duration": 0.023436000000003787,
          "durationTicks": 15,
          "midi": 82,
          "name": "A#5",
          "ticks": 196680,
          "time": 307.292832,
          "velocity": 0.3937007874015748
        },
        {
          "duration": 0.023435999999946944,
          "durationTicks": 15,
          "midi": 35,
          "name": "B1",
          "ticks": 196800,
          "time": 307.48032,
          "velocity": 0.8740157480314961
        },
        {
          "duration": 0.023435999999946944,
          "durationTicks": 15,
          "midi": 44,
          "name": "G#2",
          "ticks": 196800,
          "time": 307.48032,
          "velocity": 0.7007874015748031
        },
        {
          "duration": 0.023435999999946944,
          "durationTicks": 15,
          "midi": 70,
          "name": "A#4",
          "ticks": 196800,
          "time": 307.48032,
          "velocity": 0.7952755905511811
        },
        {
          "duration": 0.023435999999946944,
          "durationTicks": 15,
          "midi": 82,
          "name": "A#5",
          "ticks": 196800,
          "time": 307.48032,
          "velocity": 0.4015748031496063
        },
        {
          "duration": 0.023436000000003787,
          "durationTicks": 15,
          "midi": 44,
          "name": "G#2",
          "ticks": 196920,
          "time": 307.667808,
          "velocity": 0.3543307086614173
        },
        {
          "duration": 0.023436000000003787,
          "durationTicks": 15,
          "midi": 70,
          "name": "A#4",
          "ticks": 196920,
          "time": 307.667808,
          "velocity": 0.5275590551181102
        },
        {
          "duration": 0.023436000000003787,
          "durationTicks": 15,
          "midi": 44,
          "name": "G#2",
          "ticks": 197040,
          "time": 307.85529599999995,
          "velocity": 0.5748031496062992
        },
        {
          "duration": 0.023436000000003787,
          "durationTicks": 15,
          "midi": 70,
          "name": "A#4",
          "ticks": 197040,
          "time": 307.85529599999995,
          "velocity": 0.5984251968503937
        },
        {
          "duration": 0.023436000000003787,
          "durationTicks": 15,
          "midi": 82,
          "name": "A#5",
          "ticks": 197040,
          "time": 307.85529599999995,
          "velocity": 0.44881889763779526
        },
        {
          "duration": 0.023436000000003787,
          "durationTicks": 15,
          "midi": 44,
          "name": "G#2",
          "ticks": 197160,
          "time": 308.042784,
          "velocity": 0.4251968503937008
        },
        {
          "duration": 0.023436000000003787,
          "durationTicks": 15,
          "midi": 70,
          "name": "A#4",
          "ticks": 197160,
          "time": 308.042784,
          "velocity": 0.5118110236220472
        },
        {
          "duration": 0.023436000000003787,
          "durationTicks": 15,
          "midi": 82,
          "name": "A#5",
          "ticks": 197160,
          "time": 308.042784,
          "velocity": 0.48031496062992124
        },
        {
          "duration": 0.023436000000003787,
          "durationTicks": 15,
          "midi": 37,
          "name": "C#2",
          "ticks": 197280,
          "time": 308.23027199999996,
          "velocity": 0.6377952755905512
        },
        {
          "duration": 0.023436000000003787,
          "durationTicks": 15,
          "midi": 38,
          "name": "D2",
          "ticks": 197280,
          "time": 308.23027199999996,
          "velocity": 0.905511811023622
        },
        {
          "duration": 0.023436000000003787,
          "durationTicks": 15,
          "midi": 39,
          "name": "D#2",
          "ticks": 197280,
          "time": 308.23027199999996,
          "velocity": 0.905511811023622
        },
        {
          "duration": 0.023436000000003787,
          "durationTicks": 15,
          "midi": 44,
          "name": "G#2",
          "ticks": 197280,
          "time": 308.23027199999996,
          "velocity": 0.7165354330708661
        },
        {
          "duration": 0.023436000000003787,
          "durationTicks": 15,
          "midi": 70,
          "name": "A#4",
          "ticks": 197280,
          "time": 308.23027199999996,
          "velocity": 0.7952755905511811
        },
        {
          "duration": 0.023436000000003787,
          "durationTicks": 15,
          "midi": 82,
          "name": "A#5",
          "ticks": 197280,
          "time": 308.23027199999996,
          "velocity": 0.5275590551181102
        },
        {
          "duration": 0.023436000000003787,
          "durationTicks": 15,
          "midi": 37,
          "name": "C#2",
          "ticks": 197400,
          "time": 308.41776,
          "velocity": 0.6377952755905512
        },
        {
          "duration": 0.023436000000003787,
          "durationTicks": 15,
          "midi": 44,
          "name": "G#2",
          "ticks": 197400,
          "time": 308.41776,
          "velocity": 0.4409448818897638
        },
        {
          "duration": 0.023436000000003787,
          "durationTicks": 15,
          "midi": 70,
          "name": "A#4",
          "ticks": 197400,
          "time": 308.41776,
          "velocity": 0.5275590551181102
        },
        {
          "duration": 0.023436000000003787,
          "durationTicks": 15,
          "midi": 37,
          "name": "C#2",
          "ticks": 197520,
          "time": 308.60524799999996,
          "velocity": 0.6299212598425197
        },
        {
          "duration": 0.023436000000003787,
          "durationTicks": 15,
          "midi": 46,
          "name": "A#2",
          "ticks": 197520,
          "time": 308.60524799999996,
          "velocity": 0.6062992125984252
        },
        {
          "duration": 0.023436000000003787,
          "durationTicks": 15,
          "midi": 70,
          "name": "A#4",
          "ticks": 197520,
          "time": 308.60524799999996,
          "velocity": 0.5984251968503937
        },
        {
          "duration": 0.023436000000003787,
          "durationTicks": 15,
          "midi": 82,
          "name": "A#5",
          "ticks": 197520,
          "time": 308.60524799999996,
          "velocity": 0.48031496062992124
        },
        {
          "duration": 0.023436000000003787,
          "durationTicks": 15,
          "midi": 35,
          "name": "B1",
          "ticks": 197640,
          "time": 308.792736,
          "velocity": 0.8740157480314961
        },
        {
          "duration": 0.023436000000003787,
          "durationTicks": 15,
          "midi": 37,
          "name": "C#2",
          "ticks": 197640,
          "time": 308.792736,
          "velocity": 0.6220472440944882
        },
        {
          "duration": 0.023436000000003787,
          "durationTicks": 15,
          "midi": 70,
          "name": "A#4",
          "ticks": 197640,
          "time": 308.792736,
          "velocity": 0.5118110236220472
        },
        {
          "duration": 0.023436000000003787,
          "durationTicks": 15,
          "midi": 82,
          "name": "A#5",
          "ticks": 197640,
          "time": 308.792736,
          "velocity": 0.4015748031496063
        },
        {
          "duration": 0.023436000000003787,
          "durationTicks": 15,
          "midi": 35,
          "name": "B1",
          "ticks": 197760,
          "time": 308.98022399999996,
          "velocity": 0.889763779527559
        },
        {
          "duration": 0.023436000000003787,
          "durationTicks": 15,
          "midi": 44,
          "name": "G#2",
          "ticks": 197760,
          "time": 308.98022399999996,
          "velocity": 0.7007874015748031
        },
        {
          "duration": 0.023436000000003787,
          "durationTicks": 15,
          "midi": 49,
          "name": "C#3",
          "ticks": 197760,
          "time": 308.98022399999996,
          "velocity": 0.6535433070866141
        },
        {
          "duration": 0.023436000000003787,
          "durationTicks": 15,
          "midi": 59,
          "name": "B3",
          "ticks": 197760,
          "time": 308.98022399999996,
          "velocity": 1
        },
        {
          "duration": 0.023436000000003787,
          "durationTicks": 15,
          "midi": 70,
          "name": "A#4",
          "ticks": 197760,
          "time": 308.98022399999996,
          "velocity": 0.7952755905511811
        },
        {
          "duration": 0.023436000000003787,
          "durationTicks": 15,
          "midi": 44,
          "name": "G#2",
          "ticks": 197880,
          "time": 309.167712,
          "velocity": 0.3543307086614173
        },
        {
          "duration": 0.023436000000003787,
          "durationTicks": 15,
          "midi": 70,
          "name": "A#4",
          "ticks": 197880,
          "time": 309.167712,
          "velocity": 0.5275590551181102
        },
        {
          "duration": 0.023436000000003787,
          "durationTicks": 15,
          "midi": 44,
          "name": "G#2",
          "ticks": 198000,
          "time": 309.35519999999997,
          "velocity": 0.5748031496062992
        },
        {
          "duration": 0.023436000000003787,
          "durationTicks": 15,
          "midi": 70,
          "name": "A#4",
          "ticks": 198000,
          "time": 309.35519999999997,
          "velocity": 0.5984251968503937
        },
        {
          "duration": 0.023436000000003787,
          "durationTicks": 15,
          "midi": 82,
          "name": "A#5",
          "ticks": 198000,
          "time": 309.35519999999997,
          "velocity": 0.4330708661417323
        },
        {
          "duration": 0.023436000000003787,
          "durationTicks": 15,
          "midi": 44,
          "name": "G#2",
          "ticks": 198120,
          "time": 309.542688,
          "velocity": 0.4251968503937008
        },
        {
          "duration": 0.023436000000003787,
          "durationTicks": 15,
          "midi": 70,
          "name": "A#4",
          "ticks": 198120,
          "time": 309.542688,
          "velocity": 0.5118110236220472
        },
        {
          "duration": 0.023436000000003787,
          "durationTicks": 15,
          "midi": 82,
          "name": "A#5",
          "ticks": 198120,
          "time": 309.542688,
          "velocity": 0.44881889763779526
        },
        {
          "duration": 0.023436000000003787,
          "durationTicks": 15,
          "midi": 38,
          "name": "D2",
          "ticks": 198240,
          "time": 309.730176,
          "velocity": 0.9212598425196851
        },
        {
          "duration": 0.023436000000003787,
          "durationTicks": 15,
          "midi": 39,
          "name": "D#2",
          "ticks": 198240,
          "time": 309.730176,
          "velocity": 0.905511811023622
        },
        {
          "duration": 0.023436000000003787,
          "durationTicks": 15,
          "midi": 44,
          "name": "G#2",
          "ticks": 198240,
          "time": 309.730176,
          "velocity": 0.7165354330708661
        },
        {
          "duration": 0.023436000000003787,
          "durationTicks": 15,
          "midi": 70,
          "name": "A#4",
          "ticks": 198240,
          "time": 309.730176,
          "velocity": 0.7952755905511811
        },
        {
          "duration": 0.023436000000003787,
          "durationTicks": 15,
          "midi": 82,
          "name": "A#5",
          "ticks": 198240,
          "time": 309.730176,
          "velocity": 0.5590551181102362
        },
        {
          "duration": 0.023436000000003787,
          "durationTicks": 15,
          "midi": 44,
          "name": "G#2",
          "ticks": 198360,
          "time": 309.917664,
          "velocity": 0.4409448818897638
        },
        {
          "duration": 0.023436000000003787,
          "durationTicks": 15,
          "midi": 70,
          "name": "A#4",
          "ticks": 198360,
          "time": 309.917664,
          "velocity": 0.5275590551181102
        },
        {
          "duration": 0.023436000000003787,
          "durationTicks": 15,
          "midi": 35,
          "name": "B1",
          "ticks": 198480,
          "time": 310.105152,
          "velocity": 0.7480314960629921
        },
        {
          "duration": 0.023436000000003787,
          "durationTicks": 15,
          "midi": 44,
          "name": "G#2",
          "ticks": 198480,
          "time": 310.105152,
          "velocity": 0.5590551181102362
        },
        {
          "duration": 0.023436000000003787,
          "durationTicks": 15,
          "midi": 70,
          "name": "A#4",
          "ticks": 198480,
          "time": 310.105152,
          "velocity": 0.5984251968503937
        },
        {
          "duration": 0.023435999999946944,
          "durationTicks": 15,
          "midi": 35,
          "name": "B1",
          "ticks": 198600,
          "time": 310.29264,
          "velocity": 0.7480314960629921
        },
        {
          "duration": 0.023435999999946944,
          "durationTicks": 15,
          "midi": 44,
          "name": "G#2",
          "ticks": 198600,
          "time": 310.29264,
          "velocity": 0.4251968503937008
        },
        {
          "duration": 0.023435999999946944,
          "durationTicks": 15,
          "midi": 70,
          "name": "A#4",
          "ticks": 198600,
          "time": 310.29264,
          "velocity": 0.5118110236220472
        },
        {
          "duration": 0.023435999999946944,
          "durationTicks": 15,
          "midi": 82,
          "name": "A#5",
          "ticks": 198600,
          "time": 310.29264,
          "velocity": 0.3937007874015748
        },
        {
          "duration": 0.023436000000003787,
          "durationTicks": 15,
          "midi": 35,
          "name": "B1",
          "ticks": 198720,
          "time": 310.480128,
          "velocity": 0.8740157480314961
        },
        {
          "duration": 0.023436000000003787,
          "durationTicks": 15,
          "midi": 44,
          "name": "G#2",
          "ticks": 198720,
          "time": 310.480128,
          "velocity": 0.7007874015748031
        },
        {
          "duration": 0.023436000000003787,
          "durationTicks": 15,
          "midi": 70,
          "name": "A#4",
          "ticks": 198720,
          "time": 310.480128,
          "velocity": 0.7952755905511811
        },
        {
          "duration": 0.023436000000003787,
          "durationTicks": 15,
          "midi": 82,
          "name": "A#5",
          "ticks": 198720,
          "time": 310.480128,
          "velocity": 0.4015748031496063
        },
        {
          "duration": 0.023436000000003787,
          "durationTicks": 15,
          "midi": 44,
          "name": "G#2",
          "ticks": 198840,
          "time": 310.66761599999995,
          "velocity": 0.3543307086614173
        },
        {
          "duration": 0.023436000000003787,
          "durationTicks": 15,
          "midi": 70,
          "name": "A#4",
          "ticks": 198840,
          "time": 310.66761599999995,
          "velocity": 0.5275590551181102
        },
        {
          "duration": 0.023436000000003787,
          "durationTicks": 15,
          "midi": 44,
          "name": "G#2",
          "ticks": 198960,
          "time": 310.855104,
          "velocity": 0.5748031496062992
        },
        {
          "duration": 0.023436000000003787,
          "durationTicks": 15,
          "midi": 70,
          "name": "A#4",
          "ticks": 198960,
          "time": 310.855104,
          "velocity": 0.5984251968503937
        },
        {
          "duration": 0.023436000000003787,
          "durationTicks": 15,
          "midi": 82,
          "name": "A#5",
          "ticks": 198960,
          "time": 310.855104,
          "velocity": 0.44881889763779526
        },
        {
          "duration": 0.023436000000003787,
          "durationTicks": 15,
          "midi": 44,
          "name": "G#2",
          "ticks": 199080,
          "time": 311.04259199999996,
          "velocity": 0.4251968503937008
        },
        {
          "duration": 0.023436000000003787,
          "durationTicks": 15,
          "midi": 70,
          "name": "A#4",
          "ticks": 199080,
          "time": 311.04259199999996,
          "velocity": 0.5118110236220472
        },
        {
          "duration": 0.023436000000003787,
          "durationTicks": 15,
          "midi": 82,
          "name": "A#5",
          "ticks": 199080,
          "time": 311.04259199999996,
          "velocity": 0.48031496062992124
        },
        {
          "duration": 0.023436000000003787,
          "durationTicks": 15,
          "midi": 38,
          "name": "D2",
          "ticks": 199200,
          "time": 311.23008,
          "velocity": 0.905511811023622
        },
        {
          "duration": 0.023436000000003787,
          "durationTicks": 15,
          "midi": 39,
          "name": "D#2",
          "ticks": 199200,
          "time": 311.23008,
          "velocity": 0.9212598425196851
        },
        {
          "duration": 0.023436000000003787,
          "durationTicks": 15,
          "midi": 44,
          "name": "G#2",
          "ticks": 199200,
          "time": 311.23008,
          "velocity": 0.7165354330708661
        },
        {
          "duration": 0.023436000000003787,
          "durationTicks": 15,
          "midi": 70,
          "name": "A#4",
          "ticks": 199200,
          "time": 311.23008,
          "velocity": 0.7952755905511811
        },
        {
          "duration": 0.023436000000003787,
          "durationTicks": 15,
          "midi": 82,
          "name": "A#5",
          "ticks": 199200,
          "time": 311.23008,
          "velocity": 0.5275590551181102
        },
        {
          "duration": 0.023436000000003787,
          "durationTicks": 15,
          "midi": 44,
          "name": "G#2",
          "ticks": 199320,
          "time": 311.41756799999996,
          "velocity": 0.4409448818897638
        },
        {
          "duration": 0.023436000000003787,
          "durationTicks": 15,
          "midi": 70,
          "name": "A#4",
          "ticks": 199320,
          "time": 311.41756799999996,
          "velocity": 0.5275590551181102
        },
        {
          "duration": 0.023436000000003787,
          "durationTicks": 15,
          "midi": 46,
          "name": "A#2",
          "ticks": 199440,
          "time": 311.605056,
          "velocity": 0.6062992125984252
        },
        {
          "duration": 0.023436000000003787,
          "durationTicks": 15,
          "midi": 70,
          "name": "A#4",
          "ticks": 199440,
          "time": 311.605056,
          "velocity": 0.5984251968503937
        },
        {
          "duration": 0.023436000000003787,
          "durationTicks": 15,
          "midi": 82,
          "name": "A#5",
          "ticks": 199440,
          "time": 311.605056,
          "velocity": 0.48031496062992124
        },
        {
          "duration": 0.023436000000003787,
          "durationTicks": 15,
          "midi": 70,
          "name": "A#4",
          "ticks": 199560,
          "time": 311.79254399999996,
          "velocity": 0.5118110236220472
        },
        {
          "duration": 0.023436000000003787,
          "durationTicks": 15,
          "midi": 82,
          "name": "A#5",
          "ticks": 199560,
          "time": 311.79254399999996,
          "velocity": 0.4015748031496063
        },
        {
          "duration": 0.023436000000003787,
          "durationTicks": 15,
          "midi": 35,
          "name": "B1",
          "ticks": 199680,
          "time": 311.980032,
          "velocity": 0.8740157480314961
        },
        {
          "duration": 0.023436000000003787,
          "durationTicks": 15,
          "midi": 44,
          "name": "G#2",
          "ticks": 199680,
          "time": 311.980032,
          "velocity": 0.7007874015748031
        },
        {
          "duration": 0.023436000000003787,
          "durationTicks": 15,
          "midi": 70,
          "name": "A#4",
          "ticks": 199680,
          "time": 311.980032,
          "velocity": 0.7952755905511811
        },
        {
          "duration": 0.023436000000003787,
          "durationTicks": 15,
          "midi": 44,
          "name": "G#2",
          "ticks": 199800,
          "time": 312.16751999999997,
          "velocity": 0.3543307086614173
        },
        {
          "duration": 0.023436000000003787,
          "durationTicks": 15,
          "midi": 70,
          "name": "A#4",
          "ticks": 199800,
          "time": 312.16751999999997,
          "velocity": 0.5275590551181102
        },
        {
          "duration": 0.023436000000003787,
          "durationTicks": 15,
          "midi": 44,
          "name": "G#2",
          "ticks": 199920,
          "time": 312.355008,
          "velocity": 0.5748031496062992
        },
        {
          "duration": 0.023436000000003787,
          "durationTicks": 15,
          "midi": 70,
          "name": "A#4",
          "ticks": 199920,
          "time": 312.355008,
          "velocity": 0.5984251968503937
        },
        {
          "duration": 0.023436000000003787,
          "durationTicks": 15,
          "midi": 82,
          "name": "A#5",
          "ticks": 199920,
          "time": 312.355008,
          "velocity": 0.4330708661417323
        },
        {
          "duration": 0.023436000000003787,
          "durationTicks": 15,
          "midi": 44,
          "name": "G#2",
          "ticks": 200040,
          "time": 312.54249599999997,
          "velocity": 0.4251968503937008
        },
        {
          "duration": 0.023436000000003787,
          "durationTicks": 15,
          "midi": 70,
          "name": "A#4",
          "ticks": 200040,
          "time": 312.54249599999997,
          "velocity": 0.5118110236220472
        },
        {
          "duration": 0.023436000000003787,
          "durationTicks": 15,
          "midi": 82,
          "name": "A#5",
          "ticks": 200040,
          "time": 312.54249599999997,
          "velocity": 0.44881889763779526
        },
        {
          "duration": 0.023436000000003787,
          "durationTicks": 15,
          "midi": 38,
          "name": "D2",
          "ticks": 200160,
          "time": 312.729984,
          "velocity": 0.9212598425196851
        },
        {
          "duration": 0.023436000000003787,
          "durationTicks": 15,
          "midi": 39,
          "name": "D#2",
          "ticks": 200160,
          "time": 312.729984,
          "velocity": 0.905511811023622
        },
        {
          "duration": 0.023436000000003787,
          "durationTicks": 15,
          "midi": 44,
          "name": "G#2",
          "ticks": 200160,
          "time": 312.729984,
          "velocity": 0.7165354330708661
        },
        {
          "duration": 0.023436000000003787,
          "durationTicks": 15,
          "midi": 70,
          "name": "A#4",
          "ticks": 200160,
          "time": 312.729984,
          "velocity": 0.7952755905511811
        },
        {
          "duration": 0.023436000000003787,
          "durationTicks": 15,
          "midi": 82,
          "name": "A#5",
          "ticks": 200160,
          "time": 312.729984,
          "velocity": 0.5590551181102362
        },
        {
          "duration": 0.023436000000003787,
          "durationTicks": 15,
          "midi": 44,
          "name": "G#2",
          "ticks": 200280,
          "time": 312.917472,
          "velocity": 0.4409448818897638
        },
        {
          "duration": 0.023436000000003787,
          "durationTicks": 15,
          "midi": 70,
          "name": "A#4",
          "ticks": 200280,
          "time": 312.917472,
          "velocity": 0.5275590551181102
        },
        {
          "duration": 0.023435999999946944,
          "durationTicks": 15,
          "midi": 35,
          "name": "B1",
          "ticks": 200400,
          "time": 313.10496,
          "velocity": 0.8582677165354331
        },
        {
          "duration": 0.023435999999946944,
          "durationTicks": 15,
          "midi": 44,
          "name": "G#2",
          "ticks": 200400,
          "time": 313.10496,
          "velocity": 0.5590551181102362
        },
        {
          "duration": 0.023435999999946944,
          "durationTicks": 15,
          "midi": 70,
          "name": "A#4",
          "ticks": 200400,
          "time": 313.10496,
          "velocity": 0.5984251968503937
        },
        {
          "duration": 0.023436000000003787,
          "durationTicks": 15,
          "midi": 44,
          "name": "G#2",
          "ticks": 200520,
          "time": 313.292448,
          "velocity": 0.4251968503937008
        },
        {
          "duration": 0.023436000000003787,
          "durationTicks": 15,
          "midi": 70,
          "name": "A#4",
          "ticks": 200520,
          "time": 313.292448,
          "velocity": 0.5118110236220472
        },
        {
          "duration": 0.023436000000003787,
          "durationTicks": 15,
          "midi": 82,
          "name": "A#5",
          "ticks": 200520,
          "time": 313.292448,
          "velocity": 0.3937007874015748
        },
        {
          "duration": 0.023436000000003787,
          "durationTicks": 15,
          "midi": 35,
          "name": "B1",
          "ticks": 200640,
          "time": 313.47993599999995,
          "velocity": 0.8740157480314961
        },
        {
          "duration": 0.023436000000003787,
          "durationTicks": 15,
          "midi": 44,
          "name": "G#2",
          "ticks": 200640,
          "time": 313.47993599999995,
          "velocity": 0.7007874015748031
        },
        {
          "duration": 0.023436000000003787,
          "durationTicks": 15,
          "midi": 70,
          "name": "A#4",
          "ticks": 200640,
          "time": 313.47993599999995,
          "velocity": 0.7952755905511811
        },
        {
          "duration": 0.023436000000003787,
          "durationTicks": 15,
          "midi": 82,
          "name": "A#5",
          "ticks": 200640,
          "time": 313.47993599999995,
          "velocity": 0.4015748031496063
        },
        {
          "duration": 0.023436000000003787,
          "durationTicks": 15,
          "midi": 44,
          "name": "G#2",
          "ticks": 200760,
          "time": 313.667424,
          "velocity": 0.3543307086614173
        },
        {
          "duration": 0.023436000000003787,
          "durationTicks": 15,
          "midi": 70,
          "name": "A#4",
          "ticks": 200760,
          "time": 313.667424,
          "velocity": 0.5275590551181102
        },
        {
          "duration": 0.023436000000003787,
          "durationTicks": 15,
          "midi": 44,
          "name": "G#2",
          "ticks": 200880,
          "time": 313.85491199999996,
          "velocity": 0.5748031496062992
        },
        {
          "duration": 0.023436000000003787,
          "durationTicks": 15,
          "midi": 70,
          "name": "A#4",
          "ticks": 200880,
          "time": 313.85491199999996,
          "velocity": 0.5984251968503937
        },
        {
          "duration": 0.023436000000003787,
          "durationTicks": 15,
          "midi": 82,
          "name": "A#5",
          "ticks": 200880,
          "time": 313.85491199999996,
          "velocity": 0.44881889763779526
        },
        {
          "duration": 0.023436000000003787,
          "durationTicks": 15,
          "midi": 44,
          "name": "G#2",
          "ticks": 201000,
          "time": 314.0424,
          "velocity": 0.4251968503937008
        },
        {
          "duration": 0.023436000000003787,
          "durationTicks": 15,
          "midi": 70,
          "name": "A#4",
          "ticks": 201000,
          "time": 314.0424,
          "velocity": 0.5118110236220472
        },
        {
          "duration": 0.023436000000003787,
          "durationTicks": 15,
          "midi": 82,
          "name": "A#5",
          "ticks": 201000,
          "time": 314.0424,
          "velocity": 0.48031496062992124
        },
        {
          "duration": 0.023436000000003787,
          "durationTicks": 15,
          "midi": 38,
          "name": "D2",
          "ticks": 201120,
          "time": 314.22988799999996,
          "velocity": 0.905511811023622
        },
        {
          "duration": 0.023436000000003787,
          "durationTicks": 15,
          "midi": 39,
          "name": "D#2",
          "ticks": 201120,
          "time": 314.22988799999996,
          "velocity": 0.9212598425196851
        },
        {
          "duration": 0.023436000000003787,
          "durationTicks": 15,
          "midi": 44,
          "name": "G#2",
          "ticks": 201120,
          "time": 314.22988799999996,
          "velocity": 0.7165354330708661
        },
        {
          "duration": 0.023436000000003787,
          "durationTicks": 15,
          "midi": 70,
          "name": "A#4",
          "ticks": 201120,
          "time": 314.22988799999996,
          "velocity": 0.7952755905511811
        },
        {
          "duration": 0.023436000000003787,
          "durationTicks": 15,
          "midi": 82,
          "name": "A#5",
          "ticks": 201120,
          "time": 314.22988799999996,
          "velocity": 0.5275590551181102
        },
        {
          "duration": 0.023436000000003787,
          "durationTicks": 15,
          "midi": 44,
          "name": "G#2",
          "ticks": 201240,
          "time": 314.417376,
          "velocity": 0.4409448818897638
        },
        {
          "duration": 0.023436000000003787,
          "durationTicks": 15,
          "midi": 70,
          "name": "A#4",
          "ticks": 201240,
          "time": 314.417376,
          "velocity": 0.5275590551181102
        },
        {
          "duration": 0.023436000000003787,
          "durationTicks": 15,
          "midi": 46,
          "name": "A#2",
          "ticks": 201360,
          "time": 314.60486399999996,
          "velocity": 0.6062992125984252
        },
        {
          "duration": 0.023436000000003787,
          "durationTicks": 15,
          "midi": 70,
          "name": "A#4",
          "ticks": 201360,
          "time": 314.60486399999996,
          "velocity": 0.5984251968503937
        },
        {
          "duration": 0.023436000000003787,
          "durationTicks": 15,
          "midi": 82,
          "name": "A#5",
          "ticks": 201360,
          "time": 314.60486399999996,
          "velocity": 0.48031496062992124
        },
        {
          "duration": 0.023436000000003787,
          "durationTicks": 15,
          "midi": 35,
          "name": "B1",
          "ticks": 201480,
          "time": 314.792352,
          "velocity": 0.8740157480314961
        },
        {
          "duration": 0.023436000000003787,
          "durationTicks": 15,
          "midi": 70,
          "name": "A#4",
          "ticks": 201480,
          "time": 314.792352,
          "velocity": 0.5118110236220472
        },
        {
          "duration": 0.023436000000003787,
          "durationTicks": 15,
          "midi": 82,
          "name": "A#5",
          "ticks": 201480,
          "time": 314.792352,
          "velocity": 0.4015748031496063
        },
        {
          "duration": 0.023436000000003787,
          "durationTicks": 15,
          "midi": 35,
          "name": "B1",
          "ticks": 201600,
          "time": 314.97983999999997,
          "velocity": 0.8740157480314961
        },
        {
          "duration": 0.023436000000003787,
          "durationTicks": 15,
          "midi": 44,
          "name": "G#2",
          "ticks": 201600,
          "time": 314.97983999999997,
          "velocity": 0.7007874015748031
        },
        {
          "duration": 0.023436000000003787,
          "durationTicks": 15,
          "midi": 70,
          "name": "A#4",
          "ticks": 201600,
          "time": 314.97983999999997,
          "velocity": 0.7952755905511811
        },
        {
          "duration": 0.023436000000003787,
          "durationTicks": 15,
          "midi": 44,
          "name": "G#2",
          "ticks": 201720,
          "time": 315.167328,
          "velocity": 0.3543307086614173
        },
        {
          "duration": 0.023436000000003787,
          "durationTicks": 15,
          "midi": 70,
          "name": "A#4",
          "ticks": 201720,
          "time": 315.167328,
          "velocity": 0.5275590551181102
        },
        {
          "duration": 0.023436000000003787,
          "durationTicks": 15,
          "midi": 44,
          "name": "G#2",
          "ticks": 201840,
          "time": 315.35481599999997,
          "velocity": 0.5748031496062992
        },
        {
          "duration": 0.023436000000003787,
          "durationTicks": 15,
          "midi": 70,
          "name": "A#4",
          "ticks": 201840,
          "time": 315.35481599999997,
          "velocity": 0.5984251968503937
        },
        {
          "duration": 0.023436000000003787,
          "durationTicks": 15,
          "midi": 82,
          "name": "A#5",
          "ticks": 201840,
          "time": 315.35481599999997,
          "velocity": 0.4330708661417323
        },
        {
          "duration": 0.023436000000003787,
          "durationTicks": 15,
          "midi": 44,
          "name": "G#2",
          "ticks": 201960,
          "time": 315.542304,
          "velocity": 0.4251968503937008
        },
        {
          "duration": 0.023436000000003787,
          "durationTicks": 15,
          "midi": 70,
          "name": "A#4",
          "ticks": 201960,
          "time": 315.542304,
          "velocity": 0.5118110236220472
        },
        {
          "duration": 0.023436000000003787,
          "durationTicks": 15,
          "midi": 82,
          "name": "A#5",
          "ticks": 201960,
          "time": 315.542304,
          "velocity": 0.44881889763779526
        },
        {
          "duration": 0.023436000000003787,
          "durationTicks": 15,
          "midi": 38,
          "name": "D2",
          "ticks": 202080,
          "time": 315.729792,
          "velocity": 0.9212598425196851
        },
        {
          "duration": 0.023436000000003787,
          "durationTicks": 15,
          "midi": 39,
          "name": "D#2",
          "ticks": 202080,
          "time": 315.729792,
          "velocity": 0.905511811023622
        },
        {
          "duration": 0.023436000000003787,
          "durationTicks": 15,
          "midi": 44,
          "name": "G#2",
          "ticks": 202080,
          "time": 315.729792,
          "velocity": 0.7165354330708661
        },
        {
          "duration": 0.023436000000003787,
          "durationTicks": 15,
          "midi": 70,
          "name": "A#4",
          "ticks": 202080,
          "time": 315.729792,
          "velocity": 0.7952755905511811
        },
        {
          "duration": 0.023436000000003787,
          "durationTicks": 15,
          "midi": 82,
          "name": "A#5",
          "ticks": 202080,
          "time": 315.729792,
          "velocity": 0.5590551181102362
        },
        {
          "duration": 0.023435999999946944,
          "durationTicks": 15,
          "midi": 44,
          "name": "G#2",
          "ticks": 202200,
          "time": 315.91728,
          "velocity": 0.4409448818897638
        },
        {
          "duration": 0.023435999999946944,
          "durationTicks": 15,
          "midi": 70,
          "name": "A#4",
          "ticks": 202200,
          "time": 315.91728,
          "velocity": 0.5275590551181102
        },
        {
          "duration": 0.023436000000003787,
          "durationTicks": 15,
          "midi": 35,
          "name": "B1",
          "ticks": 202320,
          "time": 316.104768,
          "velocity": 0.7480314960629921
        },
        {
          "duration": 0.023436000000003787,
          "durationTicks": 15,
          "midi": 44,
          "name": "G#2",
          "ticks": 202320,
          "time": 316.104768,
          "velocity": 0.5590551181102362
        },
        {
          "duration": 0.023436000000003787,
          "durationTicks": 15,
          "midi": 70,
          "name": "A#4",
          "ticks": 202320,
          "time": 316.104768,
          "velocity": 0.5984251968503937
        },
        {
          "duration": 0.023436000000003787,
          "durationTicks": 15,
          "midi": 35,
          "name": "B1",
          "ticks": 202440,
          "time": 316.29225599999995,
          "velocity": 0.7480314960629921
        },
        {
          "duration": 0.023436000000003787,
          "durationTicks": 15,
          "midi": 44,
          "name": "G#2",
          "ticks": 202440,
          "time": 316.29225599999995,
          "velocity": 0.4251968503937008
        },
        {
          "duration": 0.023436000000003787,
          "durationTicks": 15,
          "midi": 70,
          "name": "A#4",
          "ticks": 202440,
          "time": 316.29225599999995,
          "velocity": 0.5118110236220472
        },
        {
          "duration": 0.023436000000003787,
          "durationTicks": 15,
          "midi": 82,
          "name": "A#5",
          "ticks": 202440,
          "time": 316.29225599999995,
          "velocity": 0.3937007874015748
        },
        {
          "duration": 0.023436000000003787,
          "durationTicks": 15,
          "midi": 35,
          "name": "B1",
          "ticks": 202560,
          "time": 316.479744,
          "velocity": 0.8740157480314961
        },
        {
          "duration": 0.023436000000003787,
          "durationTicks": 15,
          "midi": 44,
          "name": "G#2",
          "ticks": 202560,
          "time": 316.479744,
          "velocity": 0.7007874015748031
        },
        {
          "duration": 0.023436000000003787,
          "durationTicks": 15,
          "midi": 70,
          "name": "A#4",
          "ticks": 202560,
          "time": 316.479744,
          "velocity": 0.7952755905511811
        },
        {
          "duration": 0.023436000000003787,
          "durationTicks": 15,
          "midi": 82,
          "name": "A#5",
          "ticks": 202560,
          "time": 316.479744,
          "velocity": 0.4015748031496063
        },
        {
          "duration": 0.023436000000003787,
          "durationTicks": 15,
          "midi": 44,
          "name": "G#2",
          "ticks": 202680,
          "time": 316.66723199999996,
          "velocity": 0.3543307086614173
        },
        {
          "duration": 0.023436000000003787,
          "durationTicks": 15,
          "midi": 70,
          "name": "A#4",
          "ticks": 202680,
          "time": 316.66723199999996,
          "velocity": 0.5275590551181102
        },
        {
          "duration": 0.023436000000003787,
          "durationTicks": 15,
          "midi": 44,
          "name": "G#2",
          "ticks": 202800,
          "time": 316.85472,
          "velocity": 0.5748031496062992
        },
        {
          "duration": 0.023436000000003787,
          "durationTicks": 15,
          "midi": 70,
          "name": "A#4",
          "ticks": 202800,
          "time": 316.85472,
          "velocity": 0.5984251968503937
        },
        {
          "duration": 0.023436000000003787,
          "durationTicks": 15,
          "midi": 82,
          "name": "A#5",
          "ticks": 202800,
          "time": 316.85472,
          "velocity": 0.44881889763779526
        },
        {
          "duration": 0.023436000000003787,
          "durationTicks": 15,
          "midi": 44,
          "name": "G#2",
          "ticks": 202920,
          "time": 317.04220799999996,
          "velocity": 0.4251968503937008
        },
        {
          "duration": 0.023436000000003787,
          "durationTicks": 15,
          "midi": 70,
          "name": "A#4",
          "ticks": 202920,
          "time": 317.04220799999996,
          "velocity": 0.5118110236220472
        },
        {
          "duration": 0.023436000000003787,
          "durationTicks": 15,
          "midi": 82,
          "name": "A#5",
          "ticks": 202920,
          "time": 317.04220799999996,
          "velocity": 0.48031496062992124
        },
        {
          "duration": 0.023436000000003787,
          "durationTicks": 15,
          "midi": 38,
          "name": "D2",
          "ticks": 203040,
          "time": 317.229696,
          "velocity": 0.905511811023622
        },
        {
          "duration": 0.023436000000003787,
          "durationTicks": 15,
          "midi": 39,
          "name": "D#2",
          "ticks": 203040,
          "time": 317.229696,
          "velocity": 0.9212598425196851
        },
        {
          "duration": 0.023436000000003787,
          "durationTicks": 15,
          "midi": 44,
          "name": "G#2",
          "ticks": 203040,
          "time": 317.229696,
          "velocity": 0.7165354330708661
        },
        {
          "duration": 0.023436000000003787,
          "durationTicks": 15,
          "midi": 70,
          "name": "A#4",
          "ticks": 203040,
          "time": 317.229696,
          "velocity": 0.7952755905511811
        },
        {
          "duration": 0.023436000000003787,
          "durationTicks": 15,
          "midi": 82,
          "name": "A#5",
          "ticks": 203040,
          "time": 317.229696,
          "velocity": 0.5275590551181102
        },
        {
          "duration": 0.023436000000003787,
          "durationTicks": 15,
          "midi": 44,
          "name": "G#2",
          "ticks": 203160,
          "time": 317.41718399999996,
          "velocity": 0.4409448818897638
        },
        {
          "duration": 0.023436000000003787,
          "durationTicks": 15,
          "midi": 70,
          "name": "A#4",
          "ticks": 203160,
          "time": 317.41718399999996,
          "velocity": 0.5275590551181102
        },
        {
          "duration": 0.023436000000003787,
          "durationTicks": 15,
          "midi": 46,
          "name": "A#2",
          "ticks": 203280,
          "time": 317.604672,
          "velocity": 0.6062992125984252
        },
        {
          "duration": 0.023436000000003787,
          "durationTicks": 15,
          "midi": 70,
          "name": "A#4",
          "ticks": 203280,
          "time": 317.604672,
          "velocity": 0.5984251968503937
        },
        {
          "duration": 0.023436000000003787,
          "durationTicks": 15,
          "midi": 82,
          "name": "A#5",
          "ticks": 203280,
          "time": 317.604672,
          "velocity": 0.48031496062992124
        },
        {
          "duration": 0.023436000000003787,
          "durationTicks": 15,
          "midi": 70,
          "name": "A#4",
          "ticks": 203400,
          "time": 317.79215999999997,
          "velocity": 0.5118110236220472
        },
        {
          "duration": 0.023436000000003787,
          "durationTicks": 15,
          "midi": 82,
          "name": "A#5",
          "ticks": 203400,
          "time": 317.79215999999997,
          "velocity": 0.4015748031496063
        },
        {
          "duration": 0.023436000000003787,
          "durationTicks": 15,
          "midi": 35,
          "name": "B1",
          "ticks": 203520,
          "time": 317.979648,
          "velocity": 0.8740157480314961
        },
        {
          "duration": 0.023436000000003787,
          "durationTicks": 15,
          "midi": 44,
          "name": "G#2",
          "ticks": 203520,
          "time": 317.979648,
          "velocity": 0.7007874015748031
        },
        {
          "duration": 0.023436000000003787,
          "durationTicks": 15,
          "midi": 70,
          "name": "A#4",
          "ticks": 203520,
          "time": 317.979648,
          "velocity": 0.7952755905511811
        },
        {
          "duration": 0.023436000000003787,
          "durationTicks": 15,
          "midi": 44,
          "name": "G#2",
          "ticks": 203640,
          "time": 318.16713599999997,
          "velocity": 0.3543307086614173
        },
        {
          "duration": 0.023436000000003787,
          "durationTicks": 15,
          "midi": 70,
          "name": "A#4",
          "ticks": 203640,
          "time": 318.16713599999997,
          "velocity": 0.5275590551181102
        },
        {
          "duration": 0.023436000000003787,
          "durationTicks": 15,
          "midi": 44,
          "name": "G#2",
          "ticks": 203760,
          "time": 318.354624,
          "velocity": 0.5748031496062992
        },
        {
          "duration": 0.023436000000003787,
          "durationTicks": 15,
          "midi": 70,
          "name": "A#4",
          "ticks": 203760,
          "time": 318.354624,
          "velocity": 0.5984251968503937
        },
        {
          "duration": 0.023436000000003787,
          "durationTicks": 15,
          "midi": 82,
          "name": "A#5",
          "ticks": 203760,
          "time": 318.354624,
          "velocity": 0.4330708661417323
        },
        {
          "duration": 0.023436000000003787,
          "durationTicks": 15,
          "midi": 44,
          "name": "G#2",
          "ticks": 203880,
          "time": 318.542112,
          "velocity": 0.4251968503937008
        },
        {
          "duration": 0.023436000000003787,
          "durationTicks": 15,
          "midi": 70,
          "name": "A#4",
          "ticks": 203880,
          "time": 318.542112,
          "velocity": 0.5118110236220472
        },
        {
          "duration": 0.023436000000003787,
          "durationTicks": 15,
          "midi": 82,
          "name": "A#5",
          "ticks": 203880,
          "time": 318.542112,
          "velocity": 0.44881889763779526
        },
        {
          "duration": 0.023435999999946944,
          "durationTicks": 15,
          "midi": 38,
          "name": "D2",
          "ticks": 204000,
          "time": 318.7296,
          "velocity": 0.9212598425196851
        },
        {
          "duration": 0.023435999999946944,
          "durationTicks": 15,
          "midi": 39,
          "name": "D#2",
          "ticks": 204000,
          "time": 318.7296,
          "velocity": 0.905511811023622
        },
        {
          "duration": 0.023435999999946944,
          "durationTicks": 15,
          "midi": 44,
          "name": "G#2",
          "ticks": 204000,
          "time": 318.7296,
          "velocity": 0.7165354330708661
        },
        {
          "duration": 0.023435999999946944,
          "durationTicks": 15,
          "midi": 70,
          "name": "A#4",
          "ticks": 204000,
          "time": 318.7296,
          "velocity": 0.7952755905511811
        },
        {
          "duration": 0.023435999999946944,
          "durationTicks": 15,
          "midi": 82,
          "name": "A#5",
          "ticks": 204000,
          "time": 318.7296,
          "velocity": 0.5590551181102362
        },
        {
          "duration": 0.023436000000003787,
          "durationTicks": 15,
          "midi": 44,
          "name": "G#2",
          "ticks": 204120,
          "time": 318.917088,
          "velocity": 0.4409448818897638
        },
        {
          "duration": 0.023436000000003787,
          "durationTicks": 15,
          "midi": 70,
          "name": "A#4",
          "ticks": 204120,
          "time": 318.917088,
          "velocity": 0.5275590551181102
        },
        {
          "duration": 0.023436000000003787,
          "durationTicks": 15,
          "midi": 35,
          "name": "B1",
          "ticks": 204240,
          "time": 319.10457599999995,
          "velocity": 0.8740157480314961
        },
        {
          "duration": 0.023436000000003787,
          "durationTicks": 15,
          "midi": 44,
          "name": "G#2",
          "ticks": 204240,
          "time": 319.10457599999995,
          "velocity": 0.5590551181102362
        },
        {
          "duration": 0.023436000000003787,
          "durationTicks": 15,
          "midi": 70,
          "name": "A#4",
          "ticks": 204240,
          "time": 319.10457599999995,
          "velocity": 0.5984251968503937
        },
        {
          "duration": 0.023436000000003787,
          "durationTicks": 15,
          "midi": 44,
          "name": "G#2",
          "ticks": 204360,
          "time": 319.292064,
          "velocity": 0.4251968503937008
        },
        {
          "duration": 0.023436000000003787,
          "durationTicks": 15,
          "midi": 70,
          "name": "A#4",
          "ticks": 204360,
          "time": 319.292064,
          "velocity": 0.5118110236220472
        },
        {
          "duration": 0.023436000000003787,
          "durationTicks": 15,
          "midi": 82,
          "name": "A#5",
          "ticks": 204360,
          "time": 319.292064,
          "velocity": 0.3937007874015748
        },
        {
          "duration": 0.023436000000003787,
          "durationTicks": 15,
          "midi": 35,
          "name": "B1",
          "ticks": 204480,
          "time": 319.47955199999996,
          "velocity": 0.8740157480314961
        },
        {
          "duration": 0.023436000000003787,
          "durationTicks": 15,
          "midi": 44,
          "name": "G#2",
          "ticks": 204480,
          "time": 319.47955199999996,
          "velocity": 0.7007874015748031
        },
        {
          "duration": 0.023436000000003787,
          "durationTicks": 15,
          "midi": 70,
          "name": "A#4",
          "ticks": 204480,
          "time": 319.47955199999996,
          "velocity": 0.7952755905511811
        },
        {
          "duration": 0.023436000000003787,
          "durationTicks": 15,
          "midi": 82,
          "name": "A#5",
          "ticks": 204480,
          "time": 319.47955199999996,
          "velocity": 0.4015748031496063
        },
        {
          "duration": 0.023436000000003787,
          "durationTicks": 15,
          "midi": 39,
          "name": "D#2",
          "ticks": 204600,
          "time": 319.66704,
          "velocity": 0.9212598425196851
        },
        {
          "duration": 0.023436000000003787,
          "durationTicks": 15,
          "midi": 44,
          "name": "G#2",
          "ticks": 204600,
          "time": 319.66704,
          "velocity": 0.3543307086614173
        },
        {
          "duration": 0.023436000000003787,
          "durationTicks": 15,
          "midi": 70,
          "name": "A#4",
          "ticks": 204600,
          "time": 319.66704,
          "velocity": 0.5275590551181102
        },
        {
          "duration": 0.023436000000003787,
          "durationTicks": 15,
          "midi": 44,
          "name": "G#2",
          "ticks": 204720,
          "time": 319.85452799999996,
          "velocity": 0.5748031496062992
        },
        {
          "duration": 0.023436000000003787,
          "durationTicks": 15,
          "midi": 70,
          "name": "A#4",
          "ticks": 204720,
          "time": 319.85452799999996,
          "velocity": 0.5984251968503937
        },
        {
          "duration": 0.023436000000003787,
          "durationTicks": 15,
          "midi": 82,
          "name": "A#5",
          "ticks": 204720,
          "time": 319.85452799999996,
          "velocity": 0.44881889763779526
        },
        {
          "duration": 0.023436000000003787,
          "durationTicks": 15,
          "midi": 44,
          "name": "G#2",
          "ticks": 204840,
          "time": 320.042016,
          "velocity": 0.4251968503937008
        },
        {
          "duration": 0.023436000000003787,
          "durationTicks": 15,
          "midi": 70,
          "name": "A#4",
          "ticks": 204840,
          "time": 320.042016,
          "velocity": 0.5118110236220472
        },
        {
          "duration": 0.023436000000003787,
          "durationTicks": 15,
          "midi": 82,
          "name": "A#5",
          "ticks": 204840,
          "time": 320.042016,
          "velocity": 0.48031496062992124
        },
        {
          "duration": 0.023436000000003787,
          "durationTicks": 15,
          "midi": 38,
          "name": "D2",
          "ticks": 204960,
          "time": 320.22950399999996,
          "velocity": 0.905511811023622
        },
        {
          "duration": 0.023436000000003787,
          "durationTicks": 15,
          "midi": 39,
          "name": "D#2",
          "ticks": 204960,
          "time": 320.22950399999996,
          "velocity": 0.9448818897637795
        },
        {
          "duration": 0.023436000000003787,
          "durationTicks": 15,
          "midi": 44,
          "name": "G#2",
          "ticks": 204960,
          "time": 320.22950399999996,
          "velocity": 0.7165354330708661
        },
        {
          "duration": 0.023436000000003787,
          "durationTicks": 15,
          "midi": 70,
          "name": "A#4",
          "ticks": 204960,
          "time": 320.22950399999996,
          "velocity": 0.7952755905511811
        },
        {
          "duration": 0.023436000000003787,
          "durationTicks": 15,
          "midi": 82,
          "name": "A#5",
          "ticks": 204960,
          "time": 320.22950399999996,
          "velocity": 0.5275590551181102
        },
        {
          "duration": 0.023436000000003787,
          "durationTicks": 15,
          "midi": 44,
          "name": "G#2",
          "ticks": 205080,
          "time": 320.416992,
          "velocity": 0.4409448818897638
        },
        {
          "duration": 0.023436000000003787,
          "durationTicks": 15,
          "midi": 70,
          "name": "A#4",
          "ticks": 205080,
          "time": 320.416992,
          "velocity": 0.5275590551181102
        },
        {
          "duration": 0.023436000000003787,
          "durationTicks": 15,
          "midi": 46,
          "name": "A#2",
          "ticks": 205200,
          "time": 320.60447999999997,
          "velocity": 0.6062992125984252
        },
        {
          "duration": 0.023436000000003787,
          "durationTicks": 15,
          "midi": 70,
          "name": "A#4",
          "ticks": 205200,
          "time": 320.60447999999997,
          "velocity": 0.5984251968503937
        },
        {
          "duration": 0.023436000000003787,
          "durationTicks": 15,
          "midi": 82,
          "name": "A#5",
          "ticks": 205200,
          "time": 320.60447999999997,
          "velocity": 0.48031496062992124
        },
        {
          "duration": 0.023436000000003787,
          "durationTicks": 15,
          "midi": 35,
          "name": "B1",
          "ticks": 205320,
          "time": 320.791968,
          "velocity": 0.8740157480314961
        },
        {
          "duration": 0.023436000000003787,
          "durationTicks": 15,
          "midi": 70,
          "name": "A#4",
          "ticks": 205320,
          "time": 320.791968,
          "velocity": 0.5118110236220472
        },
        {
          "duration": 0.023436000000003787,
          "durationTicks": 15,
          "midi": 82,
          "name": "A#5",
          "ticks": 205320,
          "time": 320.791968,
          "velocity": 0.4015748031496063
        },
        {
          "duration": 0.023436000000003787,
          "durationTicks": 15,
          "midi": 35,
          "name": "B1",
          "ticks": 205440,
          "time": 320.97945599999997,
          "velocity": 0.889763779527559
        },
        {
          "duration": 0.023436000000003787,
          "durationTicks": 15,
          "midi": 44,
          "name": "G#2",
          "ticks": 205440,
          "time": 320.97945599999997,
          "velocity": 0.7007874015748031
        },
        {
          "duration": 0.023436000000003787,
          "durationTicks": 15,
          "midi": 49,
          "name": "C#3",
          "ticks": 205440,
          "time": 320.97945599999997,
          "velocity": 0.6535433070866141
        },
        {
          "duration": 0.023436000000003787,
          "durationTicks": 15,
          "midi": 59,
          "name": "B3",
          "ticks": 205440,
          "time": 320.97945599999997,
          "velocity": 1
        },
        {
          "duration": 0.023436000000003787,
          "durationTicks": 15,
          "midi": 70,
          "name": "A#4",
          "ticks": 205440,
          "time": 320.97945599999997,
          "velocity": 0.7952755905511811
        },
        {
          "duration": 0.023436000000003787,
          "durationTicks": 15,
          "midi": 44,
          "name": "G#2",
          "ticks": 205560,
          "time": 321.166944,
          "velocity": 0.3543307086614173
        },
        {
          "duration": 0.023436000000003787,
          "durationTicks": 15,
          "midi": 70,
          "name": "A#4",
          "ticks": 205560,
          "time": 321.166944,
          "velocity": 0.5275590551181102
        },
        {
          "duration": 0.023436000000003787,
          "durationTicks": 15,
          "midi": 44,
          "name": "G#2",
          "ticks": 205680,
          "time": 321.354432,
          "velocity": 0.5748031496062992
        },
        {
          "duration": 0.023436000000003787,
          "durationTicks": 15,
          "midi": 70,
          "name": "A#4",
          "ticks": 205680,
          "time": 321.354432,
          "velocity": 0.5984251968503937
        },
        {
          "duration": 0.023436000000003787,
          "durationTicks": 15,
          "midi": 82,
          "name": "A#5",
          "ticks": 205680,
          "time": 321.354432,
          "velocity": 0.4330708661417323
        },
        {
          "duration": 0.023435999999946944,
          "durationTicks": 15,
          "midi": 44,
          "name": "G#2",
          "ticks": 205800,
          "time": 321.54192,
          "velocity": 0.4251968503937008
        },
        {
          "duration": 0.023435999999946944,
          "durationTicks": 15,
          "midi": 70,
          "name": "A#4",
          "ticks": 205800,
          "time": 321.54192,
          "velocity": 0.5118110236220472
        },
        {
          "duration": 0.023435999999946944,
          "durationTicks": 15,
          "midi": 82,
          "name": "A#5",
          "ticks": 205800,
          "time": 321.54192,
          "velocity": 0.44881889763779526
        },
        {
          "duration": 0.023436000000003787,
          "durationTicks": 15,
          "midi": 38,
          "name": "D2",
          "ticks": 205920,
          "time": 321.729408,
          "velocity": 0.9212598425196851
        },
        {
          "duration": 0.023436000000003787,
          "durationTicks": 15,
          "midi": 39,
          "name": "D#2",
          "ticks": 205920,
          "time": 321.729408,
          "velocity": 0.905511811023622
        },
        {
          "duration": 0.023436000000003787,
          "durationTicks": 15,
          "midi": 44,
          "name": "G#2",
          "ticks": 205920,
          "time": 321.729408,
          "velocity": 0.7165354330708661
        },
        {
          "duration": 0.023436000000003787,
          "durationTicks": 15,
          "midi": 70,
          "name": "A#4",
          "ticks": 205920,
          "time": 321.729408,
          "velocity": 0.7952755905511811
        },
        {
          "duration": 0.023436000000003787,
          "durationTicks": 15,
          "midi": 82,
          "name": "A#5",
          "ticks": 205920,
          "time": 321.729408,
          "velocity": 0.5590551181102362
        },
        {
          "duration": 0.023436000000003787,
          "durationTicks": 15,
          "midi": 44,
          "name": "G#2",
          "ticks": 206040,
          "time": 321.91689599999995,
          "velocity": 0.4409448818897638
        },
        {
          "duration": 0.023436000000003787,
          "durationTicks": 15,
          "midi": 70,
          "name": "A#4",
          "ticks": 206040,
          "time": 321.91689599999995,
          "velocity": 0.5275590551181102
        },
        {
          "duration": 0.023436000000003787,
          "durationTicks": 15,
          "midi": 35,
          "name": "B1",
          "ticks": 206160,
          "time": 322.104384,
          "velocity": 0.7480314960629921
        },
        {
          "duration": 0.023436000000003787,
          "durationTicks": 15,
          "midi": 44,
          "name": "G#2",
          "ticks": 206160,
          "time": 322.104384,
          "velocity": 0.5590551181102362
        },
        {
          "duration": 0.023436000000003787,
          "durationTicks": 15,
          "midi": 70,
          "name": "A#4",
          "ticks": 206160,
          "time": 322.104384,
          "velocity": 0.5984251968503937
        },
        {
          "duration": 0.023436000000003787,
          "durationTicks": 15,
          "midi": 35,
          "name": "B1",
          "ticks": 206280,
          "time": 322.29187199999996,
          "velocity": 0.7480314960629921
        },
        {
          "duration": 0.023436000000003787,
          "durationTicks": 15,
          "midi": 44,
          "name": "G#2",
          "ticks": 206280,
          "time": 322.29187199999996,
          "velocity": 0.4251968503937008
        },
        {
          "duration": 0.023436000000003787,
          "durationTicks": 15,
          "midi": 70,
          "name": "A#4",
          "ticks": 206280,
          "time": 322.29187199999996,
          "velocity": 0.5118110236220472
        },
        {
          "duration": 0.023436000000003787,
          "durationTicks": 15,
          "midi": 82,
          "name": "A#5",
          "ticks": 206280,
          "time": 322.29187199999996,
          "velocity": 0.3937007874015748
        },
        {
          "duration": 0.023436000000003787,
          "durationTicks": 15,
          "midi": 35,
          "name": "B1",
          "ticks": 206400,
          "time": 322.47936,
          "velocity": 0.8740157480314961
        },
        {
          "duration": 0.023436000000003787,
          "durationTicks": 15,
          "midi": 44,
          "name": "G#2",
          "ticks": 206400,
          "time": 322.47936,
          "velocity": 0.7007874015748031
        },
        {
          "duration": 0.023436000000003787,
          "durationTicks": 15,
          "midi": 70,
          "name": "A#4",
          "ticks": 206400,
          "time": 322.47936,
          "velocity": 0.7952755905511811
        },
        {
          "duration": 0.023436000000003787,
          "durationTicks": 15,
          "midi": 82,
          "name": "A#5",
          "ticks": 206400,
          "time": 322.47936,
          "velocity": 0.4015748031496063
        },
        {
          "duration": 0.023436000000003787,
          "durationTicks": 15,
          "midi": 44,
          "name": "G#2",
          "ticks": 206520,
          "time": 322.66684799999996,
          "velocity": 0.3543307086614173
        },
        {
          "duration": 0.023436000000003787,
          "durationTicks": 15,
          "midi": 70,
          "name": "A#4",
          "ticks": 206520,
          "time": 322.66684799999996,
          "velocity": 0.5275590551181102
        },
        {
          "duration": 0.023436000000003787,
          "durationTicks": 15,
          "midi": 44,
          "name": "G#2",
          "ticks": 206640,
          "time": 322.854336,
          "velocity": 0.5748031496062992
        },
        {
          "duration": 0.023436000000003787,
          "durationTicks": 15,
          "midi": 70,
          "name": "A#4",
          "ticks": 206640,
          "time": 322.854336,
          "velocity": 0.5984251968503937
        },
        {
          "duration": 0.023436000000003787,
          "durationTicks": 15,
          "midi": 82,
          "name": "A#5",
          "ticks": 206640,
          "time": 322.854336,
          "velocity": 0.44881889763779526
        },
        {
          "duration": 0.023436000000003787,
          "durationTicks": 15,
          "midi": 44,
          "name": "G#2",
          "ticks": 206760,
          "time": 323.04182399999996,
          "velocity": 0.4251968503937008
        },
        {
          "duration": 0.023436000000003787,
          "durationTicks": 15,
          "midi": 70,
          "name": "A#4",
          "ticks": 206760,
          "time": 323.04182399999996,
          "velocity": 0.5118110236220472
        },
        {
          "duration": 0.023436000000003787,
          "durationTicks": 15,
          "midi": 82,
          "name": "A#5",
          "ticks": 206760,
          "time": 323.04182399999996,
          "velocity": 0.48031496062992124
        },
        {
          "duration": 0.023436000000003787,
          "durationTicks": 15,
          "midi": 38,
          "name": "D2",
          "ticks": 206880,
          "time": 323.229312,
          "velocity": 0.905511811023622
        },
        {
          "duration": 0.023436000000003787,
          "durationTicks": 15,
          "midi": 39,
          "name": "D#2",
          "ticks": 206880,
          "time": 323.229312,
          "velocity": 0.9212598425196851
        },
        {
          "duration": 0.023436000000003787,
          "durationTicks": 15,
          "midi": 44,
          "name": "G#2",
          "ticks": 206880,
          "time": 323.229312,
          "velocity": 0.7165354330708661
        },
        {
          "duration": 0.023436000000003787,
          "durationTicks": 15,
          "midi": 70,
          "name": "A#4",
          "ticks": 206880,
          "time": 323.229312,
          "velocity": 0.7952755905511811
        },
        {
          "duration": 0.023436000000003787,
          "durationTicks": 15,
          "midi": 82,
          "name": "A#5",
          "ticks": 206880,
          "time": 323.229312,
          "velocity": 0.5275590551181102
        },
        {
          "duration": 0.023436000000003787,
          "durationTicks": 15,
          "midi": 44,
          "name": "G#2",
          "ticks": 207000,
          "time": 323.41679999999997,
          "velocity": 0.4409448818897638
        },
        {
          "duration": 0.023436000000003787,
          "durationTicks": 15,
          "midi": 70,
          "name": "A#4",
          "ticks": 207000,
          "time": 323.41679999999997,
          "velocity": 0.5275590551181102
        },
        {
          "duration": 0.023436000000003787,
          "durationTicks": 15,
          "midi": 46,
          "name": "A#2",
          "ticks": 207120,
          "time": 323.604288,
          "velocity": 0.6062992125984252
        },
        {
          "duration": 0.023436000000003787,
          "durationTicks": 15,
          "midi": 70,
          "name": "A#4",
          "ticks": 207120,
          "time": 323.604288,
          "velocity": 0.5984251968503937
        },
        {
          "duration": 0.023436000000003787,
          "durationTicks": 15,
          "midi": 82,
          "name": "A#5",
          "ticks": 207120,
          "time": 323.604288,
          "velocity": 0.48031496062992124
        },
        {
          "duration": 0.023436000000003787,
          "durationTicks": 15,
          "midi": 70,
          "name": "A#4",
          "ticks": 207240,
          "time": 323.79177599999997,
          "velocity": 0.5118110236220472
        },
        {
          "duration": 0.023436000000003787,
          "durationTicks": 15,
          "midi": 82,
          "name": "A#5",
          "ticks": 207240,
          "time": 323.79177599999997,
          "velocity": 0.4015748031496063
        },
        {
          "duration": 0.023436000000003787,
          "durationTicks": 15,
          "midi": 35,
          "name": "B1",
          "ticks": 207360,
          "time": 323.979264,
          "velocity": 0.8740157480314961
        },
        {
          "duration": 0.023436000000003787,
          "durationTicks": 15,
          "midi": 44,
          "name": "G#2",
          "ticks": 207360,
          "time": 323.979264,
          "velocity": 0.7007874015748031
        },
        {
          "duration": 0.023436000000003787,
          "durationTicks": 15,
          "midi": 70,
          "name": "A#4",
          "ticks": 207360,
          "time": 323.979264,
          "velocity": 0.7952755905511811
        },
        {
          "duration": 0.023436000000003787,
          "durationTicks": 15,
          "midi": 44,
          "name": "G#2",
          "ticks": 207480,
          "time": 324.166752,
          "velocity": 0.3543307086614173
        },
        {
          "duration": 0.023436000000003787,
          "durationTicks": 15,
          "midi": 70,
          "name": "A#4",
          "ticks": 207480,
          "time": 324.166752,
          "velocity": 0.5275590551181102
        },
        {
          "duration": 0.023435999999946944,
          "durationTicks": 15,
          "midi": 44,
          "name": "G#2",
          "ticks": 207600,
          "time": 324.35424,
          "velocity": 0.5748031496062992
        },
        {
          "duration": 0.023435999999946944,
          "durationTicks": 15,
          "midi": 70,
          "name": "A#4",
          "ticks": 207600,
          "time": 324.35424,
          "velocity": 0.5984251968503937
        },
        {
          "duration": 0.023435999999946944,
          "durationTicks": 15,
          "midi": 82,
          "name": "A#5",
          "ticks": 207600,
          "time": 324.35424,
          "velocity": 0.4330708661417323
        },
        {
          "duration": 0.023436000000003787,
          "durationTicks": 15,
          "midi": 44,
          "name": "G#2",
          "ticks": 207720,
          "time": 324.541728,
          "velocity": 0.4251968503937008
        },
        {
          "duration": 0.023436000000003787,
          "durationTicks": 15,
          "midi": 70,
          "name": "A#4",
          "ticks": 207720,
          "time": 324.541728,
          "velocity": 0.5118110236220472
        },
        {
          "duration": 0.023436000000003787,
          "durationTicks": 15,
          "midi": 82,
          "name": "A#5",
          "ticks": 207720,
          "time": 324.541728,
          "velocity": 0.44881889763779526
        },
        {
          "duration": 0.023436000000003787,
          "durationTicks": 15,
          "midi": 38,
          "name": "D2",
          "ticks": 207840,
          "time": 324.72921599999995,
          "velocity": 0.9212598425196851
        },
        {
          "duration": 0.023436000000003787,
          "durationTicks": 15,
          "midi": 39,
          "name": "D#2",
          "ticks": 207840,
          "time": 324.72921599999995,
          "velocity": 0.905511811023622
        },
        {
          "duration": 0.023436000000003787,
          "durationTicks": 15,
          "midi": 44,
          "name": "G#2",
          "ticks": 207840,
          "time": 324.72921599999995,
          "velocity": 0.7165354330708661
        },
        {
          "duration": 0.023436000000003787,
          "durationTicks": 15,
          "midi": 70,
          "name": "A#4",
          "ticks": 207840,
          "time": 324.72921599999995,
          "velocity": 0.7952755905511811
        },
        {
          "duration": 0.023436000000003787,
          "durationTicks": 15,
          "midi": 82,
          "name": "A#5",
          "ticks": 207840,
          "time": 324.72921599999995,
          "velocity": 0.5590551181102362
        },
        {
          "duration": 0.023436000000003787,
          "durationTicks": 15,
          "midi": 44,
          "name": "G#2",
          "ticks": 207960,
          "time": 324.916704,
          "velocity": 0.4409448818897638
        },
        {
          "duration": 0.023436000000003787,
          "durationTicks": 15,
          "midi": 70,
          "name": "A#4",
          "ticks": 207960,
          "time": 324.916704,
          "velocity": 0.5275590551181102
        },
        {
          "duration": 0.023436000000003787,
          "durationTicks": 15,
          "midi": 35,
          "name": "B1",
          "ticks": 208080,
          "time": 325.10419199999995,
          "velocity": 0.8582677165354331
        },
        {
          "duration": 0.023436000000003787,
          "durationTicks": 15,
          "midi": 44,
          "name": "G#2",
          "ticks": 208080,
          "time": 325.10419199999995,
          "velocity": 0.5590551181102362
        },
        {
          "duration": 0.023436000000003787,
          "durationTicks": 15,
          "midi": 70,
          "name": "A#4",
          "ticks": 208080,
          "time": 325.10419199999995,
          "velocity": 0.5984251968503937
        },
        {
          "duration": 0.023436000000003787,
          "durationTicks": 15,
          "midi": 44,
          "name": "G#2",
          "ticks": 208200,
          "time": 325.29168,
          "velocity": 0.4251968503937008
        },
        {
          "duration": 0.023436000000003787,
          "durationTicks": 15,
          "midi": 70,
          "name": "A#4",
          "ticks": 208200,
          "time": 325.29168,
          "velocity": 0.5118110236220472
        },
        {
          "duration": 0.023436000000003787,
          "durationTicks": 15,
          "midi": 82,
          "name": "A#5",
          "ticks": 208200,
          "time": 325.29168,
          "velocity": 0.3937007874015748
        },
        {
          "duration": 0.023436000000003787,
          "durationTicks": 15,
          "midi": 35,
          "name": "B1",
          "ticks": 208320,
          "time": 325.47916799999996,
          "velocity": 0.8740157480314961
        },
        {
          "duration": 0.023436000000003787,
          "durationTicks": 15,
          "midi": 44,
          "name": "G#2",
          "ticks": 208320,
          "time": 325.47916799999996,
          "velocity": 0.7007874015748031
        },
        {
          "duration": 0.023436000000003787,
          "durationTicks": 15,
          "midi": 70,
          "name": "A#4",
          "ticks": 208320,
          "time": 325.47916799999996,
          "velocity": 0.7952755905511811
        },
        {
          "duration": 0.023436000000003787,
          "durationTicks": 15,
          "midi": 82,
          "name": "A#5",
          "ticks": 208320,
          "time": 325.47916799999996,
          "velocity": 0.4015748031496063
        },
        {
          "duration": 0.023436000000003787,
          "durationTicks": 15,
          "midi": 44,
          "name": "G#2",
          "ticks": 208440,
          "time": 325.666656,
          "velocity": 0.3543307086614173
        },
        {
          "duration": 0.023436000000003787,
          "durationTicks": 15,
          "midi": 70,
          "name": "A#4",
          "ticks": 208440,
          "time": 325.666656,
          "velocity": 0.5275590551181102
        },
        {
          "duration": 0.023436000000003787,
          "durationTicks": 15,
          "midi": 44,
          "name": "G#2",
          "ticks": 208560,
          "time": 325.85414399999996,
          "velocity": 0.5748031496062992
        },
        {
          "duration": 0.023436000000003787,
          "durationTicks": 15,
          "midi": 70,
          "name": "A#4",
          "ticks": 208560,
          "time": 325.85414399999996,
          "velocity": 0.5984251968503937
        },
        {
          "duration": 0.023436000000003787,
          "durationTicks": 15,
          "midi": 82,
          "name": "A#5",
          "ticks": 208560,
          "time": 325.85414399999996,
          "velocity": 0.44881889763779526
        },
        {
          "duration": 0.023436000000003787,
          "durationTicks": 15,
          "midi": 44,
          "name": "G#2",
          "ticks": 208680,
          "time": 326.041632,
          "velocity": 0.4251968503937008
        },
        {
          "duration": 0.023436000000003787,
          "durationTicks": 15,
          "midi": 70,
          "name": "A#4",
          "ticks": 208680,
          "time": 326.041632,
          "velocity": 0.5118110236220472
        },
        {
          "duration": 0.023436000000003787,
          "durationTicks": 15,
          "midi": 82,
          "name": "A#5",
          "ticks": 208680,
          "time": 326.041632,
          "velocity": 0.48031496062992124
        },
        {
          "duration": 0.023436000000003787,
          "durationTicks": 15,
          "midi": 38,
          "name": "D2",
          "ticks": 208800,
          "time": 326.22911999999997,
          "velocity": 0.905511811023622
        },
        {
          "duration": 0.023436000000003787,
          "durationTicks": 15,
          "midi": 39,
          "name": "D#2",
          "ticks": 208800,
          "time": 326.22911999999997,
          "velocity": 0.9212598425196851
        },
        {
          "duration": 0.023436000000003787,
          "durationTicks": 15,
          "midi": 44,
          "name": "G#2",
          "ticks": 208800,
          "time": 326.22911999999997,
          "velocity": 0.7165354330708661
        },
        {
          "duration": 0.023436000000003787,
          "durationTicks": 15,
          "midi": 70,
          "name": "A#4",
          "ticks": 208800,
          "time": 326.22911999999997,
          "velocity": 0.7952755905511811
        },
        {
          "duration": 0.023436000000003787,
          "durationTicks": 15,
          "midi": 82,
          "name": "A#5",
          "ticks": 208800,
          "time": 326.22911999999997,
          "velocity": 0.5275590551181102
        },
        {
          "duration": 0.023436000000003787,
          "durationTicks": 15,
          "midi": 44,
          "name": "G#2",
          "ticks": 208920,
          "time": 326.416608,
          "velocity": 0.4409448818897638
        },
        {
          "duration": 0.023436000000003787,
          "durationTicks": 15,
          "midi": 70,
          "name": "A#4",
          "ticks": 208920,
          "time": 326.416608,
          "velocity": 0.5275590551181102
        },
        {
          "duration": 0.023436000000003787,
          "durationTicks": 15,
          "midi": 46,
          "name": "A#2",
          "ticks": 209040,
          "time": 326.60409599999997,
          "velocity": 0.6062992125984252
        },
        {
          "duration": 0.023436000000003787,
          "durationTicks": 15,
          "midi": 70,
          "name": "A#4",
          "ticks": 209040,
          "time": 326.60409599999997,
          "velocity": 0.5984251968503937
        },
        {
          "duration": 0.023436000000003787,
          "durationTicks": 15,
          "midi": 82,
          "name": "A#5",
          "ticks": 209040,
          "time": 326.60409599999997,
          "velocity": 0.48031496062992124
        },
        {
          "duration": 0.023436000000003787,
          "durationTicks": 15,
          "midi": 35,
          "name": "B1",
          "ticks": 209160,
          "time": 326.791584,
          "velocity": 0.8740157480314961
        },
        {
          "duration": 0.023436000000003787,
          "durationTicks": 15,
          "midi": 70,
          "name": "A#4",
          "ticks": 209160,
          "time": 326.791584,
          "velocity": 0.5118110236220472
        },
        {
          "duration": 0.023436000000003787,
          "durationTicks": 15,
          "midi": 82,
          "name": "A#5",
          "ticks": 209160,
          "time": 326.791584,
          "velocity": 0.4015748031496063
        },
        {
          "duration": 0.023436000000003787,
          "durationTicks": 15,
          "midi": 35,
          "name": "B1",
          "ticks": 209280,
          "time": 326.979072,
          "velocity": 0.8740157480314961
        },
        {
          "duration": 0.023436000000003787,
          "durationTicks": 15,
          "midi": 44,
          "name": "G#2",
          "ticks": 209280,
          "time": 326.979072,
          "velocity": 0.7007874015748031
        },
        {
          "duration": 0.023436000000003787,
          "durationTicks": 15,
          "midi": 70,
          "name": "A#4",
          "ticks": 209280,
          "time": 326.979072,
          "velocity": 0.7952755905511811
        },
        {
          "duration": 0.023435999999946944,
          "durationTicks": 15,
          "midi": 44,
          "name": "G#2",
          "ticks": 209400,
          "time": 327.16656,
          "velocity": 0.3543307086614173
        },
        {
          "duration": 0.023435999999946944,
          "durationTicks": 15,
          "midi": 70,
          "name": "A#4",
          "ticks": 209400,
          "time": 327.16656,
          "velocity": 0.5275590551181102
        },
        {
          "duration": 0.023436000000003787,
          "durationTicks": 15,
          "midi": 44,
          "name": "G#2",
          "ticks": 209520,
          "time": 327.354048,
          "velocity": 0.5748031496062992
        },
        {
          "duration": 0.023436000000003787,
          "durationTicks": 15,
          "midi": 70,
          "name": "A#4",
          "ticks": 209520,
          "time": 327.354048,
          "velocity": 0.5984251968503937
        },
        {
          "duration": 0.023436000000003787,
          "durationTicks": 15,
          "midi": 82,
          "name": "A#5",
          "ticks": 209520,
          "time": 327.354048,
          "velocity": 0.4330708661417323
        },
        {
          "duration": 0.023436000000003787,
          "durationTicks": 15,
          "midi": 44,
          "name": "G#2",
          "ticks": 209640,
          "time": 327.54153599999995,
          "velocity": 0.4251968503937008
        },
        {
          "duration": 0.023436000000003787,
          "durationTicks": 15,
          "midi": 70,
          "name": "A#4",
          "ticks": 209640,
          "time": 327.54153599999995,
          "velocity": 0.5118110236220472
        },
        {
          "duration": 0.023436000000003787,
          "durationTicks": 15,
          "midi": 82,
          "name": "A#5",
          "ticks": 209640,
          "time": 327.54153599999995,
          "velocity": 0.44881889763779526
        },
        {
          "duration": 0.023436000000003787,
          "durationTicks": 15,
          "midi": 38,
          "name": "D2",
          "ticks": 209760,
          "time": 327.729024,
          "velocity": 0.9212598425196851
        },
        {
          "duration": 0.023436000000003787,
          "durationTicks": 15,
          "midi": 39,
          "name": "D#2",
          "ticks": 209760,
          "time": 327.729024,
          "velocity": 0.905511811023622
        },
        {
          "duration": 0.023436000000003787,
          "durationTicks": 15,
          "midi": 44,
          "name": "G#2",
          "ticks": 209760,
          "time": 327.729024,
          "velocity": 0.7165354330708661
        },
        {
          "duration": 0.023436000000003787,
          "durationTicks": 15,
          "midi": 70,
          "name": "A#4",
          "ticks": 209760,
          "time": 327.729024,
          "velocity": 0.7952755905511811
        },
        {
          "duration": 0.023436000000003787,
          "durationTicks": 15,
          "midi": 82,
          "name": "A#5",
          "ticks": 209760,
          "time": 327.729024,
          "velocity": 0.5590551181102362
        },
        {
          "duration": 0.023436000000003787,
          "durationTicks": 15,
          "midi": 44,
          "name": "G#2",
          "ticks": 209880,
          "time": 327.91651199999995,
          "velocity": 0.4409448818897638
        },
        {
          "duration": 0.023436000000003787,
          "durationTicks": 15,
          "midi": 70,
          "name": "A#4",
          "ticks": 209880,
          "time": 327.91651199999995,
          "velocity": 0.5275590551181102
        },
        {
          "duration": 0.023436000000003787,
          "durationTicks": 15,
          "midi": 35,
          "name": "B1",
          "ticks": 210000,
          "time": 328.104,
          "velocity": 0.7480314960629921
        },
        {
          "duration": 0.023436000000003787,
          "durationTicks": 15,
          "midi": 44,
          "name": "G#2",
          "ticks": 210000,
          "time": 328.104,
          "velocity": 0.5590551181102362
        },
        {
          "duration": 0.023436000000003787,
          "durationTicks": 15,
          "midi": 70,
          "name": "A#4",
          "ticks": 210000,
          "time": 328.104,
          "velocity": 0.5984251968503937
        },
        {
          "duration": 0.023436000000003787,
          "durationTicks": 15,
          "midi": 35,
          "name": "B1",
          "ticks": 210120,
          "time": 328.29148799999996,
          "velocity": 0.7480314960629921
        },
        {
          "duration": 0.023436000000003787,
          "durationTicks": 15,
          "midi": 44,
          "name": "G#2",
          "ticks": 210120,
          "time": 328.29148799999996,
          "velocity": 0.4251968503937008
        },
        {
          "duration": 0.023436000000003787,
          "durationTicks": 15,
          "midi": 70,
          "name": "A#4",
          "ticks": 210120,
          "time": 328.29148799999996,
          "velocity": 0.5118110236220472
        },
        {
          "duration": 0.023436000000003787,
          "durationTicks": 15,
          "midi": 82,
          "name": "A#5",
          "ticks": 210120,
          "time": 328.29148799999996,
          "velocity": 0.3937007874015748
        },
        {
          "duration": 0.023436000000003787,
          "durationTicks": 15,
          "midi": 35,
          "name": "B1",
          "ticks": 210240,
          "time": 328.478976,
          "velocity": 0.8740157480314961
        },
        {
          "duration": 0.023436000000003787,
          "durationTicks": 15,
          "midi": 44,
          "name": "G#2",
          "ticks": 210240,
          "time": 328.478976,
          "velocity": 0.7007874015748031
        },
        {
          "duration": 0.023436000000003787,
          "durationTicks": 15,
          "midi": 70,
          "name": "A#4",
          "ticks": 210240,
          "time": 328.478976,
          "velocity": 0.7952755905511811
        },
        {
          "duration": 0.023436000000003787,
          "durationTicks": 15,
          "midi": 82,
          "name": "A#5",
          "ticks": 210240,
          "time": 328.478976,
          "velocity": 0.4015748031496063
        },
        {
          "duration": 0.023436000000003787,
          "durationTicks": 15,
          "midi": 44,
          "name": "G#2",
          "ticks": 210360,
          "time": 328.66646399999996,
          "velocity": 0.3543307086614173
        },
        {
          "duration": 0.023436000000003787,
          "durationTicks": 15,
          "midi": 70,
          "name": "A#4",
          "ticks": 210360,
          "time": 328.66646399999996,
          "velocity": 0.5275590551181102
        },
        {
          "duration": 0.023436000000003787,
          "durationTicks": 15,
          "midi": 44,
          "name": "G#2",
          "ticks": 210480,
          "time": 328.853952,
          "velocity": 0.5748031496062992
        },
        {
          "duration": 0.023436000000003787,
          "durationTicks": 15,
          "midi": 70,
          "name": "A#4",
          "ticks": 210480,
          "time": 328.853952,
          "velocity": 0.5984251968503937
        },
        {
          "duration": 0.023436000000003787,
          "durationTicks": 15,
          "midi": 82,
          "name": "A#5",
          "ticks": 210480,
          "time": 328.853952,
          "velocity": 0.44881889763779526
        },
        {
          "duration": 0.023436000000003787,
          "durationTicks": 15,
          "midi": 44,
          "name": "G#2",
          "ticks": 210600,
          "time": 329.04143999999997,
          "velocity": 0.4251968503937008
        },
        {
          "duration": 0.023436000000003787,
          "durationTicks": 15,
          "midi": 70,
          "name": "A#4",
          "ticks": 210600,
          "time": 329.04143999999997,
          "velocity": 0.5118110236220472
        },
        {
          "duration": 0.023436000000003787,
          "durationTicks": 15,
          "midi": 82,
          "name": "A#5",
          "ticks": 210600,
          "time": 329.04143999999997,
          "velocity": 0.48031496062992124
        },
        {
          "duration": 0.023436000000003787,
          "durationTicks": 15,
          "midi": 38,
          "name": "D2",
          "ticks": 210720,
          "time": 329.228928,
          "velocity": 0.905511811023622
        },
        {
          "duration": 0.023436000000003787,
          "durationTicks": 15,
          "midi": 39,
          "name": "D#2",
          "ticks": 210720,
          "time": 329.228928,
          "velocity": 0.9212598425196851
        },
        {
          "duration": 0.023436000000003787,
          "durationTicks": 15,
          "midi": 44,
          "name": "G#2",
          "ticks": 210720,
          "time": 329.228928,
          "velocity": 0.7165354330708661
        },
        {
          "duration": 0.023436000000003787,
          "durationTicks": 15,
          "midi": 70,
          "name": "A#4",
          "ticks": 210720,
          "time": 329.228928,
          "velocity": 0.7952755905511811
        },
        {
          "duration": 0.023436000000003787,
          "durationTicks": 15,
          "midi": 82,
          "name": "A#5",
          "ticks": 210720,
          "time": 329.228928,
          "velocity": 0.5275590551181102
        },
        {
          "duration": 0.023436000000003787,
          "durationTicks": 15,
          "midi": 44,
          "name": "G#2",
          "ticks": 210840,
          "time": 329.41641599999997,
          "velocity": 0.4409448818897638
        },
        {
          "duration": 0.023436000000003787,
          "durationTicks": 15,
          "midi": 70,
          "name": "A#4",
          "ticks": 210840,
          "time": 329.41641599999997,
          "velocity": 0.5275590551181102
        },
        {
          "duration": 0.023436000000003787,
          "durationTicks": 15,
          "midi": 46,
          "name": "A#2",
          "ticks": 210960,
          "time": 329.603904,
          "velocity": 0.6062992125984252
        },
        {
          "duration": 0.023436000000003787,
          "durationTicks": 15,
          "midi": 70,
          "name": "A#4",
          "ticks": 210960,
          "time": 329.603904,
          "velocity": 0.5984251968503937
        },
        {
          "duration": 0.023436000000003787,
          "durationTicks": 15,
          "midi": 82,
          "name": "A#5",
          "ticks": 210960,
          "time": 329.603904,
          "velocity": 0.48031496062992124
        },
        {
          "duration": 0.023436000000003787,
          "durationTicks": 15,
          "midi": 70,
          "name": "A#4",
          "ticks": 211080,
          "time": 329.791392,
          "velocity": 0.5118110236220472
        },
        {
          "duration": 0.023436000000003787,
          "durationTicks": 15,
          "midi": 82,
          "name": "A#5",
          "ticks": 211080,
          "time": 329.791392,
          "velocity": 0.4015748031496063
        },
        {
          "duration": 0.023435999999946944,
          "durationTicks": 15,
          "midi": 35,
          "name": "B1",
          "ticks": 211200,
          "time": 329.97888,
          "velocity": 0.8740157480314961
        },
        {
          "duration": 0.023435999999946944,
          "durationTicks": 15,
          "midi": 44,
          "name": "G#2",
          "ticks": 211200,
          "time": 329.97888,
          "velocity": 0.7007874015748031
        },
        {
          "duration": 0.023435999999946944,
          "durationTicks": 15,
          "midi": 70,
          "name": "A#4",
          "ticks": 211200,
          "time": 329.97888,
          "velocity": 0.7952755905511811
        },
        {
          "duration": 0.023436000000003787,
          "durationTicks": 15,
          "midi": 44,
          "name": "G#2",
          "ticks": 211320,
          "time": 330.166368,
          "velocity": 0.3543307086614173
        },
        {
          "duration": 0.023436000000003787,
          "durationTicks": 15,
          "midi": 70,
          "name": "A#4",
          "ticks": 211320,
          "time": 330.166368,
          "velocity": 0.5275590551181102
        },
        {
          "duration": 0.023436000000003787,
          "durationTicks": 15,
          "midi": 44,
          "name": "G#2",
          "ticks": 211440,
          "time": 330.35385599999995,
          "velocity": 0.5748031496062992
        },
        {
          "duration": 0.023436000000003787,
          "durationTicks": 15,
          "midi": 70,
          "name": "A#4",
          "ticks": 211440,
          "time": 330.35385599999995,
          "velocity": 0.5984251968503937
        },
        {
          "duration": 0.023436000000003787,
          "durationTicks": 15,
          "midi": 82,
          "name": "A#5",
          "ticks": 211440,
          "time": 330.35385599999995,
          "velocity": 0.4330708661417323
        },
        {
          "duration": 0.023436000000003787,
          "durationTicks": 15,
          "midi": 44,
          "name": "G#2",
          "ticks": 211560,
          "time": 330.541344,
          "velocity": 0.4251968503937008
        },
        {
          "duration": 0.023436000000003787,
          "durationTicks": 15,
          "midi": 70,
          "name": "A#4",
          "ticks": 211560,
          "time": 330.541344,
          "velocity": 0.5118110236220472
        },
        {
          "duration": 0.023436000000003787,
          "durationTicks": 15,
          "midi": 82,
          "name": "A#5",
          "ticks": 211560,
          "time": 330.541344,
          "velocity": 0.44881889763779526
        },
        {
          "duration": 0.023436000000003787,
          "durationTicks": 15,
          "midi": 38,
          "name": "D2",
          "ticks": 211680,
          "time": 330.72883199999995,
          "velocity": 0.9212598425196851
        },
        {
          "duration": 0.023436000000003787,
          "durationTicks": 15,
          "midi": 39,
          "name": "D#2",
          "ticks": 211680,
          "time": 330.72883199999995,
          "velocity": 0.905511811023622
        },
        {
          "duration": 0.023436000000003787,
          "durationTicks": 15,
          "midi": 44,
          "name": "G#2",
          "ticks": 211680,
          "time": 330.72883199999995,
          "velocity": 0.7165354330708661
        },
        {
          "duration": 0.023436000000003787,
          "durationTicks": 15,
          "midi": 70,
          "name": "A#4",
          "ticks": 211680,
          "time": 330.72883199999995,
          "velocity": 0.7952755905511811
        },
        {
          "duration": 0.023436000000003787,
          "durationTicks": 15,
          "midi": 82,
          "name": "A#5",
          "ticks": 211680,
          "time": 330.72883199999995,
          "velocity": 0.5590551181102362
        },
        {
          "duration": 0.023436000000003787,
          "durationTicks": 15,
          "midi": 44,
          "name": "G#2",
          "ticks": 211800,
          "time": 330.91632,
          "velocity": 0.4409448818897638
        },
        {
          "duration": 0.023436000000003787,
          "durationTicks": 15,
          "midi": 70,
          "name": "A#4",
          "ticks": 211800,
          "time": 330.91632,
          "velocity": 0.5275590551181102
        },
        {
          "duration": 0.023436000000003787,
          "durationTicks": 15,
          "midi": 35,
          "name": "B1",
          "ticks": 211920,
          "time": 331.10380799999996,
          "velocity": 0.8740157480314961
        },
        {
          "duration": 0.023436000000003787,
          "durationTicks": 15,
          "midi": 44,
          "name": "G#2",
          "ticks": 211920,
          "time": 331.10380799999996,
          "velocity": 0.5590551181102362
        },
        {
          "duration": 0.023436000000003787,
          "durationTicks": 15,
          "midi": 70,
          "name": "A#4",
          "ticks": 211920,
          "time": 331.10380799999996,
          "velocity": 0.5984251968503937
        },
        {
          "duration": 0.023436000000003787,
          "durationTicks": 15,
          "midi": 44,
          "name": "G#2",
          "ticks": 212040,
          "time": 331.291296,
          "velocity": 0.4251968503937008
        },
        {
          "duration": 0.023436000000003787,
          "durationTicks": 15,
          "midi": 70,
          "name": "A#4",
          "ticks": 212040,
          "time": 331.291296,
          "velocity": 0.5118110236220472
        },
        {
          "duration": 0.023436000000003787,
          "durationTicks": 15,
          "midi": 82,
          "name": "A#5",
          "ticks": 212040,
          "time": 331.291296,
          "velocity": 0.3937007874015748
        },
        {
          "duration": 0.023436000000003787,
          "durationTicks": 15,
          "midi": 35,
          "name": "B1",
          "ticks": 212160,
          "time": 331.47878399999996,
          "velocity": 0.8740157480314961
        },
        {
          "duration": 0.023436000000003787,
          "durationTicks": 15,
          "midi": 44,
          "name": "G#2",
          "ticks": 212160,
          "time": 331.47878399999996,
          "velocity": 0.7007874015748031
        },
        {
          "duration": 0.023436000000003787,
          "durationTicks": 15,
          "midi": 70,
          "name": "A#4",
          "ticks": 212160,
          "time": 331.47878399999996,
          "velocity": 0.7952755905511811
        },
        {
          "duration": 0.023436000000003787,
          "durationTicks": 15,
          "midi": 82,
          "name": "A#5",
          "ticks": 212160,
          "time": 331.47878399999996,
          "velocity": 0.4015748031496063
        },
        {
          "duration": 0.023436000000003787,
          "durationTicks": 15,
          "midi": 44,
          "name": "G#2",
          "ticks": 212280,
          "time": 331.666272,
          "velocity": 0.3543307086614173
        },
        {
          "duration": 0.023436000000003787,
          "durationTicks": 15,
          "midi": 70,
          "name": "A#4",
          "ticks": 212280,
          "time": 331.666272,
          "velocity": 0.5275590551181102
        },
        {
          "duration": 0.023436000000003787,
          "durationTicks": 15,
          "midi": 44,
          "name": "G#2",
          "ticks": 212400,
          "time": 331.85375999999997,
          "velocity": 0.5748031496062992
        },
        {
          "duration": 0.023436000000003787,
          "durationTicks": 15,
          "midi": 70,
          "name": "A#4",
          "ticks": 212400,
          "time": 331.85375999999997,
          "velocity": 0.5984251968503937
        },
        {
          "duration": 0.023436000000003787,
          "durationTicks": 15,
          "midi": 82,
          "name": "A#5",
          "ticks": 212400,
          "time": 331.85375999999997,
          "velocity": 0.44881889763779526
        },
        {
          "duration": 0.023436000000003787,
          "durationTicks": 15,
          "midi": 44,
          "name": "G#2",
          "ticks": 212520,
          "time": 332.041248,
          "velocity": 0.4251968503937008
        },
        {
          "duration": 0.023436000000003787,
          "durationTicks": 15,
          "midi": 70,
          "name": "A#4",
          "ticks": 212520,
          "time": 332.041248,
          "velocity": 0.5118110236220472
        },
        {
          "duration": 0.023436000000003787,
          "durationTicks": 15,
          "midi": 82,
          "name": "A#5",
          "ticks": 212520,
          "time": 332.041248,
          "velocity": 0.48031496062992124
        },
        {
          "duration": 0.023436000000003787,
          "durationTicks": 15,
          "midi": 38,
          "name": "D2",
          "ticks": 212640,
          "time": 332.22873599999997,
          "velocity": 0.905511811023622
        },
        {
          "duration": 0.023436000000003787,
          "durationTicks": 15,
          "midi": 39,
          "name": "D#2",
          "ticks": 212640,
          "time": 332.22873599999997,
          "velocity": 0.905511811023622
        },
        {
          "duration": 0.023436000000003787,
          "durationTicks": 15,
          "midi": 44,
          "name": "G#2",
          "ticks": 212640,
          "time": 332.22873599999997,
          "velocity": 0.7165354330708661
        },
        {
          "duration": 0.023436000000003787,
          "durationTicks": 15,
          "midi": 70,
          "name": "A#4",
          "ticks": 212640,
          "time": 332.22873599999997,
          "velocity": 0.7952755905511811
        },
        {
          "duration": 0.023436000000003787,
          "durationTicks": 15,
          "midi": 82,
          "name": "A#5",
          "ticks": 212640,
          "time": 332.22873599999997,
          "velocity": 0.5275590551181102
        },
        {
          "duration": 0.023436000000003787,
          "durationTicks": 15,
          "midi": 44,
          "name": "G#2",
          "ticks": 212760,
          "time": 332.416224,
          "velocity": 0.4409448818897638
        },
        {
          "duration": 0.023436000000003787,
          "durationTicks": 15,
          "midi": 70,
          "name": "A#4",
          "ticks": 212760,
          "time": 332.416224,
          "velocity": 0.5275590551181102
        },
        {
          "duration": 0.023436000000003787,
          "durationTicks": 15,
          "midi": 46,
          "name": "A#2",
          "ticks": 212880,
          "time": 332.603712,
          "velocity": 0.6062992125984252
        },
        {
          "duration": 0.023436000000003787,
          "durationTicks": 15,
          "midi": 70,
          "name": "A#4",
          "ticks": 212880,
          "time": 332.603712,
          "velocity": 0.5984251968503937
        },
        {
          "duration": 0.023436000000003787,
          "durationTicks": 15,
          "midi": 82,
          "name": "A#5",
          "ticks": 212880,
          "time": 332.603712,
          "velocity": 0.48031496062992124
        },
        {
          "duration": 0.023435999999946944,
          "durationTicks": 15,
          "midi": 35,
          "name": "B1",
          "ticks": 213000,
          "time": 332.7912,
          "velocity": 0.8740157480314961
        },
        {
          "duration": 0.023435999999946944,
          "durationTicks": 15,
          "midi": 70,
          "name": "A#4",
          "ticks": 213000,
          "time": 332.7912,
          "velocity": 0.5118110236220472
        },
        {
          "duration": 0.023435999999946944,
          "durationTicks": 15,
          "midi": 82,
          "name": "A#5",
          "ticks": 213000,
          "time": 332.7912,
          "velocity": 0.4015748031496063
        },
        {
          "duration": 0.023436000000003787,
          "durationTicks": 15,
          "midi": 35,
          "name": "B1",
          "ticks": 213120,
          "time": 332.978688,
          "velocity": 0.8031496062992126
        },
        {
          "duration": 0.023436000000003787,
          "durationTicks": 15,
          "midi": 49,
          "name": "C#3",
          "ticks": 213120,
          "time": 332.978688,
          "velocity": 0.6535433070866141
        },
        {
          "duration": 0.023436000000003787,
          "durationTicks": 15,
          "midi": 59,
          "name": "B3",
          "ticks": 213120,
          "time": 332.978688,
          "velocity": 0.8188976377952756
        }
      ],
      "endOfTrackTicks": 215040
    },
    {
      "channel": 0,
      "controlChanges": {
        "0": [
          {
            "number": 0,
            "ticks": 730,
            "time": 1.1405519999999998,
            "value": 0
          }
        ],
        "32": [
          {
            "number": 32,
            "ticks": 735,
            "time": 1.148364,
            "value": 0
          }
        ]
      },
      "pitchBends": [],
      "instrument": {
        "family": "piano",
        "number": 0,
        "name": "acoustic grand piano"
      },
      "name": "        ",
      "notes": [],
      "endOfTrackTicks": 190080
    },
    {
      "channel": 10,
      "controlChanges": {
        "6": [
          {
            "number": 6,
            "ticks": 1160,
            "time": 1.8123839999999998,
            "value": 0.5196850393700787
          },
          {
            "number": 6,
            "ticks": 1175,
            "time": 1.8358199999999998,
            "value": 0.5984251968503937
          },
          {
            "number": 6,
            "ticks": 1190,
            "time": 1.8592559999999998,
            "value": 0.5511811023622047
          },
          {
            "number": 6,
            "ticks": 1205,
            "time": 1.8826919999999998,
            "value": 0.6850393700787402
          }
        ],
        "7": [
          {
            "number": 7,
            "ticks": 745,
            "time": 1.1639879999999998,
            "value": 0.7086614173228346
          }
        ],
        "10": [
          {
            "number": 10,
            "ticks": 745,
            "time": 1.1639879999999998,
            "value": 0.5039370078740157
          }
        ],
        "11": [
          {
            "number": 11,
            "ticks": 745,
            "time": 1.1639879999999998,
            "value": 1
          }
        ],
        "91": [
          {
            "number": 91,
            "ticks": 750,
            "time": 1.1718,
            "value": 0.3543307086614173
          }
        ],
        "93": [
          {
            "number": 93,
            "ticks": 750,
            "time": 1.1718,
            "value": 0
          }
        ],
        "98": [
          {
            "number": 98,
            "ticks": 1155,
            "time": 1.8045719999999998,
            "value": 0.07086614173228346
          },
          {
            "number": 98,
            "ticks": 1170,
            "time": 1.8280079999999999,
            "value": 0.07874015748031496
          },
          {
            "number": 98,
            "ticks": 1185,
            "time": 1.8514439999999999,
            "value": 0.7874015748031497
          },
          {
            "number": 98,
            "ticks": 1200,
            "time": 1.8748799999999999,
            "value": 0.8031496062992126
          }
        ],
        "99": [
          {
            "number": 99,
            "ticks": 1150,
            "time": 1.79676,
            "value": 0.007874015748031496
          },
          {
            "number": 99,
            "ticks": 1165,
            "time": 1.820196,
            "value": 0.007874015748031496
          },
          {
            "number": 99,
            "ticks": 1180,
            "time": 1.843632,
            "value": 0.007874015748031496
          },
          {
            "number": 99,
            "ticks": 1195,
            "time": 1.867068,
            "value": 0.007874015748031496
          }
        ],
        "100": [
          {
            "number": 100,
            "ticks": 1215,
            "time": 1.898316,
            "value": 1
          }
        ],
        "101": [
          {
            "number": 101,
            "ticks": 1210,
            "time": 1.890504,
            "value": 1
          }
        ]
      },
      "pitchBends": [],
      "instrument": {
        "family": "guitar",
        "number": 25,
        "name": "acoustic guitar (nylon)"
      },
      "name": "",
      "notes": [
        {
          "duration": 0.4530960000000004,
          "durationTicks": 290,
          "midi": 55,
          "name": "G3",
          "ticks": 8640,
          "time": 13.499136,
          "velocity": 0.47244094488188976
        },
        {
          "duration": 0.6405840000000023,
          "durationTicks": 410,
          "midi": 60,
          "name": "C4",
          "ticks": 8760,
          "time": 13.686623999999998,
          "velocity": 0.3937007874015748
        },
        {
          "duration": 0.21092400000000033,
          "durationTicks": 135,
          "midi": 62,
          "name": "D4",
          "ticks": 8880,
          "time": 13.874111999999998,
          "velocity": 0.3937007874015748
        },
        {
          "duration": 0.6249599999999997,
          "durationTicks": 400,
          "midi": 55,
          "name": "G3",
          "ticks": 9000,
          "time": 14.061599999999999,
          "velocity": 0.5039370078740157
        },
        {
          "duration": 0.890568,
          "durationTicks": 570,
          "midi": 63,
          "name": "D#4",
          "ticks": 9000,
          "time": 14.061599999999999,
          "velocity": 0.5511811023622047
        },
        {
          "duration": 0.5155919999999998,
          "durationTicks": 330,
          "midi": 58,
          "name": "A#3",
          "ticks": 9240,
          "time": 14.436575999999999,
          "velocity": 0.5039370078740157
        },
        {
          "duration": 0.13280399999999837,
          "durationTicks": 85,
          "midi": 55,
          "name": "G3",
          "ticks": 9480,
          "time": 14.811551999999999,
          "velocity": 0.5039370078740157
        },
        {
          "duration": 0.4452839999999991,
          "durationTicks": 285,
          "midi": 53,
          "name": "F3",
          "ticks": 9600,
          "time": 14.999039999999999,
          "velocity": 0.5511811023622047
        },
        {
          "duration": 0.6405840000000005,
          "durationTicks": 410,
          "midi": 58,
          "name": "A#3",
          "ticks": 9720,
          "time": 15.186528,
          "velocity": 0.6299212598425197
        },
        {
          "duration": 0.21092400000000033,
          "durationTicks": 135,
          "midi": 60,
          "name": "C4",
          "ticks": 9840,
          "time": 15.374016,
          "velocity": 0.5826771653543307
        },
        {
          "duration": 0.49215600000000137,
          "durationTicks": 315,
          "midi": 53,
          "name": "F3",
          "ticks": 9960,
          "time": 15.561504,
          "velocity": 0.5669291338582677
        },
        {
          "duration": 0.9218159999999997,
          "durationTicks": 590,
          "midi": 62,
          "name": "D4",
          "ticks": 9960,
          "time": 15.561504,
          "velocity": 0.6141732283464567
        },
        {
          "duration": 0.9296279999999975,
          "durationTicks": 595,
          "midi": 58,
          "name": "A#3",
          "ticks": 10200,
          "time": 15.93648,
          "velocity": 0.6377952755905512
        },
        {
          "duration": 0.13280400000000014,
          "durationTicks": 85,
          "midi": 53,
          "name": "F3",
          "ticks": 10320,
          "time": 16.123967999999998,
          "velocity": 0.5826771653543307
        },
        {
          "duration": 0.45309600000000216,
          "durationTicks": 290,
          "midi": 55,
          "name": "G3",
          "ticks": 10560,
          "time": 16.498943999999998,
          "velocity": 0.7244094488188977
        },
        {
          "duration": 0.6327719999999992,
          "durationTicks": 405,
          "midi": 60,
          "name": "C4",
          "ticks": 10680,
          "time": 16.686432,
          "velocity": 0.6141732283464567
        },
        {
          "duration": 0.2109240000000021,
          "durationTicks": 135,
          "midi": 62,
          "name": "D4",
          "ticks": 10800,
          "time": 16.87392,
          "velocity": 0.5354330708661418
        },
        {
          "duration": 0.7577639999999981,
          "durationTicks": 485,
          "midi": 55,
          "name": "G3",
          "ticks": 10920,
          "time": 17.061408,
          "velocity": 0.6299212598425197
        },
        {
          "duration": 0.882755999999997,
          "durationTicks": 565,
          "midi": 63,
          "name": "D#4",
          "ticks": 10920,
          "time": 17.061408,
          "velocity": 0.7244094488188977
        },
        {
          "duration": 0.9296279999999975,
          "durationTicks": 595,
          "midi": 58,
          "name": "A#3",
          "ticks": 11160,
          "time": 17.436384,
          "velocity": 0.5826771653543307
        },
        {
          "duration": 0.1328039999999966,
          "durationTicks": 85,
          "midi": 55,
          "name": "G3",
          "ticks": 11400,
          "time": 17.81136,
          "velocity": 0.5826771653543307
        },
        {
          "duration": 0.5234039999999993,
          "durationTicks": 335,
          "midi": 57,
          "name": "A3",
          "ticks": 11520,
          "time": 17.998848,
          "velocity": 0.5984251968503937
        },
        {
          "duration": 0.6483960000000017,
          "durationTicks": 415,
          "midi": 62,
          "name": "D4",
          "ticks": 11640,
          "time": 18.186335999999997,
          "velocity": 0.5669291338582677
        },
        {
          "duration": 0.19529999999999959,
          "durationTicks": 125,
          "midi": 63,
          "name": "D#4",
          "ticks": 11760,
          "time": 18.373824,
          "velocity": 0.6141732283464567
        },
        {
          "duration": 0.8124479999999998,
          "durationTicks": 520,
          "midi": 57,
          "name": "A3",
          "ticks": 11880,
          "time": 18.561311999999997,
          "velocity": 0.5826771653543307
        },
        {
          "duration": 0.8046360000000021,
          "durationTicks": 515,
          "midi": 65,
          "name": "F4",
          "ticks": 11880,
          "time": 18.561311999999997,
          "velocity": 0.8582677165354331
        },
        {
          "duration": 0.5234040000000029,
          "durationTicks": 335,
          "midi": 58,
          "name": "A#3",
          "ticks": 12120,
          "time": 18.936287999999998,
          "velocity": 0.5826771653543307
        },
        {
          "duration": 0.2577960000000026,
          "durationTicks": 165,
          "midi": 62,
          "name": "D4",
          "ticks": 12120,
          "time": 18.936287999999998,
          "velocity": 0.5354330708661418
        },
        {
          "duration": 1.4139720000000011,
          "durationTicks": 905,
          "midi": 55,
          "name": "G3",
          "ticks": 12480,
          "time": 19.498752,
          "velocity": 0.6771653543307087
        },
        {
          "duration": 1.2889799999999987,
          "durationTicks": 825,
          "midi": 60,
          "name": "C4",
          "ticks": 12480,
          "time": 19.498752,
          "velocity": 0.6614173228346457
        },
        {
          "duration": 1.4764680000000006,
          "durationTicks": 945,
          "midi": 58,
          "name": "A#3",
          "ticks": 13440,
          "time": 20.998655999999997,
          "velocity": 0.48031496062992124
        },
        {
          "duration": 0.16405200000000164,
          "durationTicks": 105,
          "midi": 60,
          "name": "C4",
          "ticks": 13680,
          "time": 21.373631999999997,
          "velocity": 0.4330708661417323
        },
        {
          "duration": 1.4920919999999995,
          "durationTicks": 955,
          "midi": 62,
          "name": "D4",
          "ticks": 13800,
          "time": 21.56112,
          "velocity": 0.7086614173228346
        },
        {
          "duration": 1.4764680000000006,
          "durationTicks": 945,
          "midi": 60,
          "name": "C4",
          "ticks": 14400,
          "time": 22.498559999999998,
          "velocity": 0.5275590551181102
        },
        {
          "duration": 0.9686879999999967,
          "durationTicks": 620,
          "midi": 63,
          "name": "D#4",
          "ticks": 14760,
          "time": 23.061024,
          "velocity": 0.6771653543307087
        },
        {
          "duration": 1.4686560000000028,
          "durationTicks": 940,
          "midi": 62,
          "name": "D4",
          "ticks": 15360,
          "time": 23.998464,
          "velocity": 0.5669291338582677
        },
        {
          "duration": 0.1640519999999981,
          "durationTicks": 105,
          "midi": 63,
          "name": "D#4",
          "ticks": 15600,
          "time": 24.37344,
          "velocity": 0.4330708661417323
        },
        {
          "duration": 0.8905680000000018,
          "durationTicks": 570,
          "midi": 65,
          "name": "F4",
          "ticks": 15720,
          "time": 24.560927999999997,
          "velocity": 0.7007874015748031
        },
        {
          "duration": 1.4764680000000006,
          "durationTicks": 945,
          "midi": 60,
          "name": "C4",
          "ticks": 16320,
          "time": 25.498368,
          "velocity": 0.5275590551181102
        },
        {
          "duration": 0.1640519999999981,
          "durationTicks": 105,
          "midi": 62,
          "name": "D4",
          "ticks": 16560,
          "time": 25.873344,
          "velocity": 0.4330708661417323
        },
        {
          "duration": 0.9686880000000002,
          "durationTicks": 620,
          "midi": 63,
          "name": "D#4",
          "ticks": 16680,
          "time": 26.060831999999998,
          "velocity": 0.6377952755905512
        },
        {
          "duration": 0.20311200000000085,
          "durationTicks": 130,
          "midi": 58,
          "name": "A#3",
          "ticks": 17280,
          "time": 26.998272,
          "velocity": 0.5669291338582677
        },
        {
          "duration": 0.18748799999999832,
          "durationTicks": 120,
          "midi": 53,
          "name": "F3",
          "ticks": 17400,
          "time": 27.18576,
          "velocity": 0.44881889763779526
        },
        {
          "duration": 0.16405200000000164,
          "durationTicks": 105,
          "midi": 58,
          "name": "A#3",
          "ticks": 17520,
          "time": 27.373247999999997,
          "velocity": 0.49606299212598426
        },
        {
          "duration": 0.7890120000000032,
          "durationTicks": 505,
          "midi": 60,
          "name": "C4",
          "ticks": 17640,
          "time": 27.560736,
          "velocity": 0.6456692913385826
        },
        {
          "duration": 0.7108919999999976,
          "durationTicks": 455,
          "midi": 62,
          "name": "D4",
          "ticks": 17880,
          "time": 27.935712,
          "velocity": 0.7007874015748031
        },
        {
          "duration": 1.4764680000000006,
          "durationTicks": 945,
          "midi": 60,
          "name": "C4",
          "ticks": 18240,
          "time": 28.498175999999997,
          "velocity": 0.5275590551181102
        },
        {
          "duration": 0.9686879999999967,
          "durationTicks": 620,
          "midi": 63,
          "name": "D#4",
          "ticks": 18600,
          "time": 29.06064,
          "velocity": 0.7086614173228346
        },
        {
          "duration": 1.4686560000000028,
          "durationTicks": 940,
          "midi": 62,
          "name": "D4",
          "ticks": 19200,
          "time": 29.998079999999998,
          "velocity": 0.5669291338582677
        },
        {
          "duration": 0.11718000000000117,
          "durationTicks": 75,
          "midi": 63,
          "name": "D#4",
          "ticks": 19440,
          "time": 30.373056,
          "velocity": 0.5039370078740157
        },
        {
          "duration": 0.8905680000000018,
          "durationTicks": 570,
          "midi": 65,
          "name": "F4",
          "ticks": 19560,
          "time": 30.560543999999997,
          "velocity": 0.7165354330708661
        },
        {
          "duration": 0.35153999999999996,
          "durationTicks": 225,
          "midi": 60,
          "name": "C4",
          "ticks": 20160,
          "time": 31.497984,
          "velocity": 0.6377952755905512
        },
        {
          "duration": 0.16405200000000164,
          "durationTicks": 105,
          "midi": 55,
          "name": "G3",
          "ticks": 20280,
          "time": 31.685471999999997,
          "velocity": 0.48031496062992124
        },
        {
          "duration": 0.49215600000000137,
          "durationTicks": 315,
          "midi": 65,
          "name": "F4",
          "ticks": 20400,
          "time": 31.87296,
          "velocity": 0.5275590551181102
        },
        {
          "duration": 0.9686879999999931,
          "durationTicks": 620,
          "midi": 67,
          "name": "G4",
          "ticks": 20520,
          "time": 32.060448,
          "velocity": 0.7401574803149606
        },
        {
          "duration": 1.4686560000000028,
          "durationTicks": 940,
          "midi": 58,
          "name": "A#3",
          "ticks": 21120,
          "time": 32.997887999999996,
          "velocity": 0.48031496062992124
        },
        {
          "duration": 0.1640519999999981,
          "durationTicks": 105,
          "midi": 60,
          "name": "C4",
          "ticks": 21360,
          "time": 33.372864,
          "velocity": 0.4330708661417323
        },
        {
          "duration": 1.0077480000000065,
          "durationTicks": 645,
          "midi": 62,
          "name": "D4",
          "ticks": 21480,
          "time": 33.560351999999995,
          "velocity": 0.6614173228346457
        },
        {
          "duration": 1.476468000000004,
          "durationTicks": 945,
          "midi": 60,
          "name": "C4",
          "ticks": 22080,
          "time": 34.497792,
          "velocity": 0.5275590551181102
        },
        {
          "duration": 0.9686880000000002,
          "durationTicks": 620,
          "midi": 63,
          "name": "D#4",
          "ticks": 22440,
          "time": 35.060255999999995,
          "velocity": 0.6377952755905512
        },
        {
          "duration": 1.4686560000000028,
          "durationTicks": 940,
          "midi": 62,
          "name": "D4",
          "ticks": 23040,
          "time": 35.997696,
          "velocity": 0.5669291338582677
        },
        {
          "duration": 0.1640520000000052,
          "durationTicks": 105,
          "midi": 63,
          "name": "D#4",
          "ticks": 23280,
          "time": 36.372671999999994,
          "velocity": 0.4330708661417323
        },
        {
          "duration": 0.8905680000000018,
          "durationTicks": 570,
          "midi": 65,
          "name": "F4",
          "ticks": 23400,
          "time": 36.560159999999996,
          "velocity": 0.7007874015748031
        },
        {
          "duration": 1.476467999999997,
          "durationTicks": 945,
          "midi": 60,
          "name": "C4",
          "ticks": 24000,
          "time": 37.4976,
          "velocity": 0.5275590551181102
        },
        {
          "duration": 0.1640520000000052,
          "durationTicks": 105,
          "midi": 62,
          "name": "D4",
          "ticks": 24240,
          "time": 37.872575999999995,
          "velocity": 0.4330708661417323
        },
        {
          "duration": 0.9686880000000002,
          "durationTicks": 620,
          "midi": 63,
          "name": "D#4",
          "ticks": 24360,
          "time": 38.060064,
          "velocity": 0.6377952755905512
        },
        {
          "duration": 0.2031119999999973,
          "durationTicks": 130,
          "midi": 58,
          "name": "A#3",
          "ticks": 24960,
          "time": 38.997504,
          "velocity": 0.5669291338582677
        },
        {
          "duration": 0.18748800000000188,
          "durationTicks": 120,
          "midi": 53,
          "name": "F3",
          "ticks": 25080,
          "time": 39.184991999999994,
          "velocity": 0.44881889763779526
        },
        {
          "duration": 0.1640519999999981,
          "durationTicks": 105,
          "midi": 58,
          "name": "A#3",
          "ticks": 25200,
          "time": 39.372479999999996,
          "velocity": 0.49606299212598426
        },
        {
          "duration": 0.7890119999999996,
          "durationTicks": 505,
          "midi": 60,
          "name": "C4",
          "ticks": 25320,
          "time": 39.559968,
          "velocity": 0.6456692913385826
        },
        {
          "duration": 1.0077479999999994,
          "durationTicks": 645,
          "midi": 62,
          "name": "D4",
          "ticks": 25560,
          "time": 39.934943999999994,
          "velocity": 0.7007874015748031
        },
        {
          "duration": 1.476467999999997,
          "durationTicks": 945,
          "midi": 60,
          "name": "C4",
          "ticks": 25920,
          "time": 40.497408,
          "velocity": 0.5275590551181102
        },
        {
          "duration": 0.9686880000000002,
          "durationTicks": 620,
          "midi": 63,
          "name": "D#4",
          "ticks": 26280,
          "time": 41.059872,
          "velocity": 0.6614173228346457
        },
        {
          "duration": 1.4686560000000028,
          "durationTicks": 940,
          "midi": 62,
          "name": "D4",
          "ticks": 26880,
          "time": 41.997311999999994,
          "velocity": 0.5669291338582677
        },
        {
          "duration": 0.11717999999999762,
          "durationTicks": 75,
          "midi": 63,
          "name": "D#4",
          "ticks": 27120,
          "time": 42.372288,
          "velocity": 0.5039370078740157
        },
        {
          "duration": 0.8905679999999947,
          "durationTicks": 570,
          "midi": 65,
          "name": "F4",
          "ticks": 27240,
          "time": 42.559776,
          "velocity": 0.7165354330708661
        },
        {
          "duration": 1.476468000000004,
          "durationTicks": 945,
          "midi": 60,
          "name": "C4",
          "ticks": 27840,
          "time": 43.497215999999995,
          "velocity": 0.5275590551181102
        },
        {
          "duration": 0.11717999999999762,
          "durationTicks": 75,
          "midi": 62,
          "name": "D4",
          "ticks": 28080,
          "time": 43.872192,
          "velocity": 0.5039370078740157
        },
        {
          "duration": 0.960875999999999,
          "durationTicks": 615,
          "midi": 63,
          "name": "D#4",
          "ticks": 28200,
          "time": 44.05968,
          "velocity": 0.6614173228346457
        },
        {
          "duration": 0.43747199999999964,
          "durationTicks": 280,
          "midi": 70,
          "name": "A#4",
          "ticks": 29760,
          "time": 46.497023999999996,
          "velocity": 0.5905511811023622
        },
        {
          "duration": 0.7655760000000029,
          "durationTicks": 490,
          "midi": 72,
          "name": "C5",
          "ticks": 30120,
          "time": 47.059487999999995,
          "velocity": 0.7007874015748031
        },
        {
          "duration": 0.39059999999999917,
          "durationTicks": 250,
          "midi": 63,
          "name": "D#4",
          "ticks": 30720,
          "time": 47.996928,
          "velocity": 0.5905511811023622
        },
        {
          "duration": 0.3593520000000012,
          "durationTicks": 230,
          "midi": 67,
          "name": "G4",
          "ticks": 30720,
          "time": 47.996928,
          "velocity": 0.7007874015748031
        },
        {
          "duration": 0.8905680000000018,
          "durationTicks": 570,
          "midi": 63,
          "name": "D#4",
          "ticks": 30960,
          "time": 48.371903999999994,
          "velocity": 0.5748031496062992
        },
        {
          "duration": 0.734328000000005,
          "durationTicks": 470,
          "midi": 67,
          "name": "G4",
          "ticks": 31080,
          "time": 48.559391999999995,
          "velocity": 0.6377952755905512
        },
        {
          "duration": 1.4608440000000016,
          "durationTicks": 935,
          "midi": 65,
          "name": "F4",
          "ticks": 31680,
          "time": 49.496832,
          "velocity": 0.5984251968503937
        },
        {
          "duration": 0.5390280000000018,
          "durationTicks": 345,
          "midi": 69,
          "name": "A4",
          "ticks": 31680,
          "time": 49.496832,
          "velocity": 0.6299212598425197
        },
        {
          "duration": 1.382723999999996,
          "durationTicks": 885,
          "midi": 72,
          "name": "C5",
          "ticks": 31680,
          "time": 49.496832,
          "velocity": 0.6850393700787402
        },
        {
          "duration": 0.3671639999999954,
          "durationTicks": 235,
          "midi": 69,
          "name": "A4",
          "ticks": 32040,
          "time": 50.059295999999996,
          "velocity": 0.7480314960629921
        },
        {
          "duration": 0.8515080000000026,
          "durationTicks": 545,
          "midi": 70,
          "name": "A#4",
          "ticks": 32280,
          "time": 50.434272,
          "velocity": 0.8031496062992126
        },
        {
          "duration": 0.29685599999999823,
          "durationTicks": 190,
          "midi": 67,
          "name": "G4",
          "ticks": 32400,
          "time": 50.621759999999995,
          "velocity": 0.5433070866141733
        },
        {
          "duration": 0.5702759999999998,
          "durationTicks": 365,
          "midi": 62,
          "name": "D4",
          "ticks": 32640,
          "time": 50.996736,
          "velocity": 0.6062992125984252
        },
        {
          "duration": 1.4686559999999957,
          "durationTicks": 940,
          "midi": 67,
          "name": "G4",
          "ticks": 32640,
          "time": 50.996736,
          "velocity": 0.6062992125984252
        },
        {
          "duration": 0.8983800000000031,
          "durationTicks": 575,
          "midi": 60,
          "name": "C4",
          "ticks": 33000,
          "time": 51.5592,
          "velocity": 0.6062992125984252
        },
        {
          "duration": 1.4842799999999983,
          "durationTicks": 950,
          "midi": 60,
          "name": "C4",
          "ticks": 33600,
          "time": 52.49664,
          "velocity": 0.6535433070866141
        },
        {
          "duration": 0.21873600000000692,
          "durationTicks": 140,
          "midi": 62,
          "name": "D4",
          "ticks": 33840,
          "time": 52.871615999999996,
          "velocity": 0.5275590551181102
        },
        {
          "duration": 0.6483959999999982,
          "durationTicks": 415,
          "midi": 63,
          "name": "D#4",
          "ticks": 33960,
          "time": 53.059104,
          "velocity": 0.6377952755905512
        },
        {
          "duration": 0.5312160000000006,
          "durationTicks": 340,
          "midi": 67,
          "name": "G4",
          "ticks": 34200,
          "time": 53.434079999999994,
          "velocity": 0.7952755905511811
        },
        {
          "duration": 0.867131999999998,
          "durationTicks": 555,
          "midi": 58,
          "name": "A#3",
          "ticks": 34560,
          "time": 53.996544,
          "velocity": 0.49606299212598426
        },
        {
          "duration": 0.6327719999999957,
          "durationTicks": 405,
          "midi": 67,
          "name": "G4",
          "ticks": 34560,
          "time": 53.996544,
          "velocity": 0.7716535433070866
        },
        {
          "duration": 0.6327719999999957,
          "durationTicks": 405,
          "midi": 65,
          "name": "F4",
          "ticks": 34920,
          "time": 54.559008,
          "velocity": 0.7480314960629921
        },
        {
          "duration": 0.6171480000000003,
          "durationTicks": 395,
          "midi": 67,
          "name": "G4",
          "ticks": 35280,
          "time": 55.121472,
          "velocity": 0.7480314960629921
        },
        {
          "duration": 1.437408000000005,
          "durationTicks": 920,
          "midi": 58,
          "name": "A#3",
          "ticks": 35520,
          "time": 55.496447999999994,
          "velocity": 0.49606299212598426
        },
        {
          "duration": 1.0780560000000037,
          "durationTicks": 690,
          "midi": 65,
          "name": "F4",
          "ticks": 35640,
          "time": 55.683935999999996,
          "velocity": 0.7086614173228346
        },
        {
          "duration": 0.1640519999999981,
          "durationTicks": 105,
          "midi": 57,
          "name": "A3",
          "ticks": 37560,
          "time": 58.683744,
          "velocity": 0.3779527559055118
        },
        {
          "duration": 0.22654799999999398,
          "durationTicks": 145,
          "midi": 58,
          "name": "A#3",
          "ticks": 37680,
          "time": 58.871232,
          "velocity": 0.6771653543307087
        },
        {
          "duration": 0.21873600000000692,
          "durationTicks": 140,
          "midi": 62,
          "name": "D4",
          "ticks": 37800,
          "time": 59.058719999999994,
          "velocity": 0.5669291338582677
        },
        {
          "duration": 0.49215600000000137,
          "durationTicks": 315,
          "midi": 65,
          "name": "F4",
          "ticks": 37920,
          "time": 59.246207999999996,
          "velocity": 0.7244094488188977
        },
        {
          "duration": 0.15623999999998972,
          "durationTicks": 100,
          "midi": 62,
          "name": "D4",
          "ticks": 38160,
          "time": 59.621184,
          "velocity": 0.5039370078740157
        },
        {
          "duration": 0.12499200000000599,
          "durationTicks": 80,
          "midi": 65,
          "name": "F4",
          "ticks": 38280,
          "time": 59.808671999999994,
          "velocity": 0.6299212598425197
        },
        {
          "duration": 0.21092399999999856,
          "durationTicks": 135,
          "midi": 62,
          "name": "D4",
          "ticks": 38400,
          "time": 59.996159999999996,
          "velocity": 0.5039370078740157
        },
        {
          "duration": 0.21873599999999982,
          "durationTicks": 140,
          "midi": 63,
          "name": "D#4",
          "ticks": 38520,
          "time": 60.183648,
          "velocity": 0.7244094488188977
        },
        {
          "duration": 0.9218160000000069,
          "durationTicks": 590,
          "midi": 63,
          "name": "D#4",
          "ticks": 38760,
          "time": 60.558623999999995,
          "velocity": 0.5984251968503937
        },
        {
          "duration": 0.8046360000000021,
          "durationTicks": 515,
          "midi": 67,
          "name": "G4",
          "ticks": 38760,
          "time": 60.558623999999995,
          "velocity": 0.6771653543307087
        },
        {
          "duration": 0.5390280000000018,
          "durationTicks": 345,
          "midi": 67,
          "name": "G4",
          "ticks": 39360,
          "time": 61.496064,
          "velocity": 0.7322834645669292
        },
        {
          "duration": 0.9140039999999985,
          "durationTicks": 585,
          "midi": 65,
          "name": "F4",
          "ticks": 39720,
          "time": 62.058527999999995,
          "velocity": 0.6929133858267716
        },
        {
          "duration": 1.0702439999999953,
          "durationTicks": 685,
          "midi": 65,
          "name": "F4",
          "ticks": 40320,
          "time": 62.995968,
          "velocity": 0.7480314960629921
        },
        {
          "duration": 0.14842800000000977,
          "durationTicks": 95,
          "midi": 67,
          "name": "G4",
          "ticks": 41280,
          "time": 64.49587199999999,
          "velocity": 0.7480314960629921
        },
        {
          "duration": 0.1640519999999981,
          "durationTicks": 105,
          "midi": 65,
          "name": "F4",
          "ticks": 41400,
          "time": 64.68336,
          "velocity": 0.5039370078740157
        },
        {
          "duration": 0.1640519999999981,
          "durationTicks": 105,
          "midi": 65,
          "name": "F4",
          "ticks": 41640,
          "time": 65.058336,
          "velocity": 0.6614173228346457
        },
        {
          "duration": 0.1640519999999981,
          "durationTicks": 105,
          "midi": 65,
          "name": "F4",
          "ticks": 41760,
          "time": 65.245824,
          "velocity": 0.4566929133858268
        },
        {
          "duration": 0.4921560000000085,
          "durationTicks": 315,
          "midi": 55,
          "name": "G3",
          "ticks": 44160,
          "time": 68.995584,
          "velocity": 0.8188976377952756
        },
        {
          "duration": 0.22654799999999398,
          "durationTicks": 145,
          "midi": 62,
          "name": "D4",
          "ticks": 44400,
          "time": 69.37056,
          "velocity": 0.5039370078740157
        },
        {
          "duration": 0.9686880000000002,
          "durationTicks": 620,
          "midi": 65,
          "name": "F4",
          "ticks": 44520,
          "time": 69.558048,
          "velocity": 0.7401574803149606
        },
        {
          "duration": 0.35153999999999996,
          "durationTicks": 225,
          "midi": 62,
          "name": "D4",
          "ticks": 44880,
          "time": 70.12051199999999,
          "velocity": 0.5748031496062992
        },
        {
          "duration": 1.2342960000000005,
          "durationTicks": 790,
          "midi": 57,
          "name": "A3",
          "ticks": 45120,
          "time": 70.495488,
          "velocity": 0.7480314960629921
        },
        {
          "duration": 0.4609080000000034,
          "durationTicks": 295,
          "midi": 69,
          "name": "A4",
          "ticks": 45120,
          "time": 70.495488,
          "velocity": 0.8267716535433071
        },
        {
          "duration": 1.05462,
          "durationTicks": 675,
          "midi": 62,
          "name": "D4",
          "ticks": 45360,
          "time": 70.870464,
          "velocity": 0.47244094488188976
        },
        {
          "duration": 0.9140039999999914,
          "durationTicks": 585,
          "midi": 65,
          "name": "F4",
          "ticks": 45480,
          "time": 71.057952,
          "velocity": 0.7007874015748031
        },
        {
          "duration": 1.2889799999999951,
          "durationTicks": 825,
          "midi": 58,
          "name": "A#3",
          "ticks": 46080,
          "time": 71.995392,
          "velocity": 0.7716535433070866
        },
        {
          "duration": 1.05462,
          "durationTicks": 675,
          "midi": 62,
          "name": "D4",
          "ticks": 46320,
          "time": 72.370368,
          "velocity": 0.3937007874015748
        },
        {
          "duration": 0.22654799999999398,
          "durationTicks": 145,
          "midi": 65,
          "name": "F4",
          "ticks": 46440,
          "time": 72.557856,
          "velocity": 0.6299212598425197
        },
        {
          "duration": 0.7733880000000113,
          "durationTicks": 495,
          "midi": 65,
          "name": "F4",
          "ticks": 46680,
          "time": 72.93283199999999,
          "velocity": 0.7480314960629921
        },
        {
          "duration": 1.2967919999999964,
          "durationTicks": 830,
          "midi": 57,
          "name": "A3",
          "ticks": 47040,
          "time": 73.495296,
          "velocity": 0.7716535433070866
        },
        {
          "duration": 1.1014919999999933,
          "durationTicks": 705,
          "midi": 62,
          "name": "D4",
          "ticks": 47280,
          "time": 73.870272,
          "velocity": 0.3937007874015748
        },
        {
          "duration": 0.8749439999999993,
          "durationTicks": 560,
          "midi": 65,
          "name": "F4",
          "ticks": 47400,
          "time": 74.05776,
          "velocity": 0.6929133858267716
        },
        {
          "duration": 1.156176000000002,
          "durationTicks": 740,
          "midi": 55,
          "name": "G3",
          "ticks": 48000,
          "time": 74.9952,
          "velocity": 0.7716535433070866
        },
        {
          "duration": 0.8280719999999917,
          "durationTicks": 530,
          "midi": 62,
          "name": "D4",
          "ticks": 48240,
          "time": 75.370176,
          "velocity": 0.4251968503937008
        },
        {
          "duration": 0.6249600000000015,
          "durationTicks": 400,
          "midi": 65,
          "name": "F4",
          "ticks": 48360,
          "time": 75.55766399999999,
          "velocity": 0.6929133858267716
        },
        {
          "duration": 0.19530000000000314,
          "durationTicks": 125,
          "midi": 57,
          "name": "A3",
          "ticks": 48960,
          "time": 76.495104,
          "velocity": 0.7716535433070866
        },
        {
          "duration": 0.19530000000000314,
          "durationTicks": 125,
          "midi": 58,
          "name": "A#3",
          "ticks": 49080,
          "time": 76.682592,
          "velocity": 0.6771653543307087
        },
        {
          "duration": 0.9296279999999939,
          "durationTicks": 595,
          "midi": 60,
          "name": "C4",
          "ticks": 49200,
          "time": 76.87008,
          "velocity": 0.6299212598425197
        },
        {
          "duration": 0.7655759999999958,
          "durationTicks": 490,
          "midi": 63,
          "name": "D#4",
          "ticks": 49320,
          "time": 77.05756799999999,
          "velocity": 0.6771653543307087
        },
        {
          "duration": 1.25773199999999,
          "durationTicks": 805,
          "midi": 53,
          "name": "F3",
          "ticks": 49920,
          "time": 77.995008,
          "velocity": 0.7244094488188977
        },
        {
          "duration": 0.5234039999999993,
          "durationTicks": 335,
          "midi": 58,
          "name": "A#3",
          "ticks": 50040,
          "time": 78.182496,
          "velocity": 0.7244094488188977
        },
        {
          "duration": 0.9999360000000053,
          "durationTicks": 640,
          "midi": 60,
          "name": "C4",
          "ticks": 50160,
          "time": 78.36998399999999,
          "velocity": 0.7244094488188977
        },
        {
          "duration": 0.8905680000000018,
          "durationTicks": 570,
          "midi": 62,
          "name": "D4",
          "ticks": 50280,
          "time": 78.55747199999999,
          "velocity": 0.5511811023622047
        },
        {
          "duration": 0.49215599999999426,
          "durationTicks": 315,
          "midi": 58,
          "name": "A#3",
          "ticks": 50520,
          "time": 78.932448,
          "velocity": 0.6299212598425197
        },
        {
          "duration": 0.7577639999999946,
          "durationTicks": 485,
          "midi": 55,
          "name": "G3",
          "ticks": 50880,
          "time": 79.494912,
          "velocity": 0.7480314960629921
        },
        {
          "duration": 0.33591599999999744,
          "durationTicks": 215,
          "midi": 58,
          "name": "A#3",
          "ticks": 50880,
          "time": 79.494912,
          "velocity": 0.6299212598425197
        },
        {
          "duration": 0.5624639999999914,
          "durationTicks": 360,
          "midi": 60,
          "name": "C4",
          "ticks": 51000,
          "time": 79.6824,
          "velocity": 0.5039370078740157
        },
        {
          "duration": 0.9999360000000053,
          "durationTicks": 640,
          "midi": 62,
          "name": "D4",
          "ticks": 51120,
          "time": 79.86988799999999,
          "velocity": 0.5669291338582677
        },
        {
          "duration": 0.8515080000000097,
          "durationTicks": 545,
          "midi": 63,
          "name": "D#4",
          "ticks": 51240,
          "time": 80.05737599999999,
          "velocity": 0.7244094488188977
        },
        {
          "duration": 0.4218479999999971,
          "durationTicks": 270,
          "midi": 58,
          "name": "A#3",
          "ticks": 51480,
          "time": 80.432352,
          "velocity": 0.5826771653543307
        },
        {
          "duration": 1.3280399999999872,
          "durationTicks": 850,
          "midi": 57,
          "name": "A3",
          "ticks": 51840,
          "time": 80.994816,
          "velocity": 0.5984251968503937
        },
        {
          "duration": 0.8124479999999892,
          "durationTicks": 520,
          "midi": 58,
          "name": "A#3",
          "ticks": 51840,
          "time": 80.994816,
          "velocity": 0.5511811023622047
        },
        {
          "duration": 1.1405519999999996,
          "durationTicks": 730,
          "midi": 62,
          "name": "D4",
          "ticks": 51960,
          "time": 81.18230399999999,
          "velocity": 0.5354330708661418
        },
        {
          "duration": 0.9530639999999977,
          "durationTicks": 610,
          "midi": 63,
          "name": "D#4",
          "ticks": 52080,
          "time": 81.36979199999999,
          "velocity": 0.5669291338582677
        },
        {
          "duration": 0.8827560000000005,
          "durationTicks": 565,
          "midi": 65,
          "name": "F4",
          "ticks": 52200,
          "time": 81.55727999999999,
          "velocity": 0.905511811023622
        },
        {
          "duration": 0.4296599999999984,
          "durationTicks": 275,
          "midi": 58,
          "name": "A#3",
          "ticks": 52440,
          "time": 81.932256,
          "velocity": 0.6141732283464567
        },
        {
          "duration": 1.2264839999999992,
          "durationTicks": 785,
          "midi": 55,
          "name": "G3",
          "ticks": 52800,
          "time": 82.49472,
          "velocity": 0.7244094488188977
        },
        {
          "duration": 1.2030479999999955,
          "durationTicks": 770,
          "midi": 58,
          "name": "A#3",
          "ticks": 52800,
          "time": 82.49472,
          "velocity": 0.5748031496062992
        },
        {
          "duration": 1.0468079999999986,
          "durationTicks": 670,
          "midi": 60,
          "name": "C4",
          "ticks": 52920,
          "time": 82.68220799999999,
          "velocity": 0.5511811023622047
        },
        {
          "duration": 0.8827560000000005,
          "durationTicks": 565,
          "midi": 62,
          "name": "D4",
          "ticks": 53040,
          "time": 82.86969599999999,
          "velocity": 0.5511811023622047
        },
        {
          "duration": 0.640584000000004,
          "durationTicks": 410,
          "midi": 63,
          "name": "D#4",
          "ticks": 53160,
          "time": 83.05718399999999,
          "velocity": 0.6141732283464567
        },
        {
          "duration": 1.4764680000000112,
          "durationTicks": 945,
          "midi": 58,
          "name": "A#3",
          "ticks": 53760,
          "time": 83.99462399999999,
          "velocity": 0.48031496062992124
        },
        {
          "duration": 0.1640519999999981,
          "durationTicks": 105,
          "midi": 60,
          "name": "C4",
          "ticks": 54000,
          "time": 84.36959999999999,
          "velocity": 0.4330708661417323
        },
        {
          "duration": 1.4999040000000008,
          "durationTicks": 960,
          "midi": 62,
          "name": "D4",
          "ticks": 54120,
          "time": 84.557088,
          "velocity": 0.7086614173228346
        },
        {
          "duration": 1.4764680000000112,
          "durationTicks": 945,
          "midi": 60,
          "name": "C4",
          "ticks": 54720,
          "time": 85.49452799999999,
          "velocity": 0.5275590551181102
        },
        {
          "duration": 0.9686880000000002,
          "durationTicks": 620,
          "midi": 63,
          "name": "D#4",
          "ticks": 55080,
          "time": 86.056992,
          "velocity": 0.6771653543307087
        },
        {
          "duration": 1.4686559999999957,
          "durationTicks": 940,
          "midi": 62,
          "name": "D4",
          "ticks": 55680,
          "time": 86.99443199999999,
          "velocity": 0.5669291338582677
        },
        {
          "duration": 0.1640519999999981,
          "durationTicks": 105,
          "midi": 63,
          "name": "D#4",
          "ticks": 55920,
          "time": 87.36940799999999,
          "velocity": 0.4330708661417323
        },
        {
          "duration": 0.8905680000000018,
          "durationTicks": 570,
          "midi": 65,
          "name": "F4",
          "ticks": 56040,
          "time": 87.556896,
          "velocity": 0.7007874015748031
        },
        {
          "duration": 1.4764680000000112,
          "durationTicks": 945,
          "midi": 60,
          "name": "C4",
          "ticks": 56640,
          "time": 88.49433599999999,
          "velocity": 0.5275590551181102
        },
        {
          "duration": 0.1640519999999981,
          "durationTicks": 105,
          "midi": 62,
          "name": "D4",
          "ticks": 56880,
          "time": 88.869312,
          "velocity": 0.4330708661417323
        },
        {
          "duration": 0.9686880000000002,
          "durationTicks": 620,
          "midi": 63,
          "name": "D#4",
          "ticks": 57000,
          "time": 89.0568,
          "velocity": 0.6377952755905512
        },
        {
          "duration": 0.2031120000000044,
          "durationTicks": 130,
          "midi": 58,
          "name": "A#3",
          "ticks": 57600,
          "time": 89.99423999999999,
          "velocity": 0.5669291338582677
        },
        {
          "duration": 0.19530000000000314,
          "durationTicks": 125,
          "midi": 53,
          "name": "F3",
          "ticks": 57720,
          "time": 90.18172799999999,
          "velocity": 0.44881889763779526
        },
        {
          "duration": 0.1640519999999981,
          "durationTicks": 105,
          "midi": 58,
          "name": "A#3",
          "ticks": 57840,
          "time": 90.369216,
          "velocity": 0.49606299212598426
        },
        {
          "duration": 0.7890119999999996,
          "durationTicks": 505,
          "midi": 60,
          "name": "C4",
          "ticks": 57960,
          "time": 90.556704,
          "velocity": 0.6456692913385826
        },
        {
          "duration": 0.7108920000000012,
          "durationTicks": 455,
          "midi": 62,
          "name": "D4",
          "ticks": 58200,
          "time": 90.93168,
          "velocity": 0.7007874015748031
        },
        {
          "duration": 1.476467999999997,
          "durationTicks": 945,
          "midi": 60,
          "name": "C4",
          "ticks": 58560,
          "time": 91.49414399999999,
          "velocity": 0.5275590551181102
        },
        {
          "duration": 0.9686880000000002,
          "durationTicks": 620,
          "midi": 63,
          "name": "D#4",
          "ticks": 58920,
          "time": 92.056608,
          "velocity": 0.7086614173228346
        },
        {
          "duration": 1.4686559999999957,
          "durationTicks": 940,
          "midi": 62,
          "name": "D4",
          "ticks": 59520,
          "time": 92.99404799999999,
          "velocity": 0.5669291338582677
        },
        {
          "duration": 0.4452840000000009,
          "durationTicks": 285,
          "midi": 63,
          "name": "D#4",
          "ticks": 59760,
          "time": 93.369024,
          "velocity": 0.5039370078740157
        },
        {
          "duration": 0.8827559999999863,
          "durationTicks": 565,
          "midi": 65,
          "name": "F4",
          "ticks": 59880,
          "time": 93.556512,
          "velocity": 0.7401574803149606
        },
        {
          "duration": 0.35153999999999996,
          "durationTicks": 225,
          "midi": 60,
          "name": "C4",
          "ticks": 60480,
          "time": 94.493952,
          "velocity": 0.6377952755905512
        },
        {
          "duration": 0.1406159999999943,
          "durationTicks": 90,
          "midi": 67,
          "name": "G4",
          "ticks": 60600,
          "time": 94.68144,
          "velocity": 0.5826771653543307
        },
        {
          "duration": 0.49215599999999426,
          "durationTicks": 315,
          "midi": 65,
          "name": "F4",
          "ticks": 60720,
          "time": 94.868928,
          "velocity": 0.5275590551181102
        },
        {
          "duration": 0.742139999999992,
          "durationTicks": 475,
          "midi": 67,
          "name": "G4",
          "ticks": 60840,
          "time": 95.056416,
          "velocity": 0.7637795275590551
        },
        {
          "duration": 0.2031120000000044,
          "durationTicks": 130,
          "midi": 58,
          "name": "A#3",
          "ticks": 61440,
          "time": 95.993856,
          "velocity": 0.5669291338582677
        },
        {
          "duration": 0.1796760000000006,
          "durationTicks": 115,
          "midi": 53,
          "name": "F3",
          "ticks": 61560,
          "time": 96.181344,
          "velocity": 0.44881889763779526
        },
        {
          "duration": 0.1640519999999981,
          "durationTicks": 105,
          "midi": 58,
          "name": "A#3",
          "ticks": 61680,
          "time": 96.368832,
          "velocity": 0.49606299212598426
        },
        {
          "duration": 0.7890119999999996,
          "durationTicks": 505,
          "midi": 60,
          "name": "C4",
          "ticks": 61800,
          "time": 96.55632,
          "velocity": 0.6456692913385826
        },
        {
          "duration": 0.5390280000000018,
          "durationTicks": 345,
          "midi": 62,
          "name": "D4",
          "ticks": 62040,
          "time": 96.93129599999999,
          "velocity": 0.7007874015748031
        },
        {
          "duration": 1.476467999999997,
          "durationTicks": 945,
          "midi": 60,
          "name": "C4",
          "ticks": 62400,
          "time": 97.49376,
          "velocity": 0.5275590551181102
        },
        {
          "duration": 0.1640519999999981,
          "durationTicks": 105,
          "midi": 62,
          "name": "D4",
          "ticks": 62640,
          "time": 97.868736,
          "velocity": 0.44881889763779526
        },
        {
          "duration": 0.960875999999999,
          "durationTicks": 615,
          "midi": 63,
          "name": "D#4",
          "ticks": 62760,
          "time": 98.056224,
          "velocity": 0.6377952755905512
        },
        {
          "duration": 1.476467999999997,
          "durationTicks": 945,
          "midi": 62,
          "name": "D4",
          "ticks": 63360,
          "time": 98.993664,
          "velocity": 0.5669291338582677
        },
        {
          "duration": 0.1640519999999981,
          "durationTicks": 105,
          "midi": 63,
          "name": "D#4",
          "ticks": 63600,
          "time": 99.36864,
          "velocity": 0.4330708661417323
        },
        {
          "duration": 0.8905680000000018,
          "durationTicks": 570,
          "midi": 65,
          "name": "F4",
          "ticks": 63720,
          "time": 99.55612799999999,
          "velocity": 0.7007874015748031
        },
        {
          "duration": 1.476467999999997,
          "durationTicks": 945,
          "midi": 60,
          "name": "C4",
          "ticks": 64320,
          "time": 100.493568,
          "velocity": 0.5275590551181102
        },
        {
          "duration": 0.1640519999999981,
          "durationTicks": 105,
          "midi": 62,
          "name": "D4",
          "ticks": 64560,
          "time": 100.868544,
          "velocity": 0.4330708661417323
        },
        {
          "duration": 0.9686880000000002,
          "durationTicks": 620,
          "midi": 63,
          "name": "D#4",
          "ticks": 64680,
          "time": 101.05603199999999,
          "velocity": 0.6377952755905512
        },
        {
          "duration": 0.7265159999999895,
          "durationTicks": 465,
          "midi": 62,
          "name": "D4",
          "ticks": 65280,
          "time": 101.993472,
          "velocity": 0.7007874015748031
        },
        {
          "duration": 0.7890120000000138,
          "durationTicks": 505,
          "midi": 60,
          "name": "C4",
          "ticks": 65640,
          "time": 102.55593599999999,
          "velocity": 0.6456692913385826
        },
        {
          "duration": 1.0077480000000065,
          "durationTicks": 645,
          "midi": 62,
          "name": "D4",
          "ticks": 65880,
          "time": 102.93091199999999,
          "velocity": 0.7007874015748031
        },
        {
          "duration": 1.476467999999997,
          "durationTicks": 945,
          "midi": 60,
          "name": "C4",
          "ticks": 66240,
          "time": 103.493376,
          "velocity": 0.5275590551181102
        },
        {
          "duration": 0.9686880000000002,
          "durationTicks": 620,
          "midi": 63,
          "name": "D#4",
          "ticks": 66600,
          "time": 104.05583999999999,
          "velocity": 0.6614173228346457
        },
        {
          "duration": 1.4686559999999957,
          "durationTicks": 940,
          "midi": 62,
          "name": "D4",
          "ticks": 67200,
          "time": 104.99328,
          "velocity": 0.5669291338582677
        },
        {
          "duration": 0.17967600000001482,
          "durationTicks": 115,
          "midi": 63,
          "name": "D#4",
          "ticks": 67440,
          "time": 105.36825599999999,
          "velocity": 0.5039370078740157
        },
        {
          "duration": 0.8905680000000018,
          "durationTicks": 570,
          "midi": 65,
          "name": "F4",
          "ticks": 67560,
          "time": 105.55574399999999,
          "velocity": 0.7165354330708661
        },
        {
          "duration": 1.476467999999997,
          "durationTicks": 945,
          "midi": 60,
          "name": "C4",
          "ticks": 68160,
          "time": 106.493184,
          "velocity": 0.5275590551181102
        },
        {
          "duration": 0.11718000000000472,
          "durationTicks": 75,
          "midi": 62,
          "name": "D4",
          "ticks": 68400,
          "time": 106.86815999999999,
          "velocity": 0.5669291338582677
        },
        {
          "duration": 0.960875999999999,
          "durationTicks": 615,
          "midi": 63,
          "name": "D#4",
          "ticks": 68520,
          "time": 107.05564799999999,
          "velocity": 0.7165354330708661
        },
        {
          "duration": 0.4296599999999984,
          "durationTicks": 275,
          "midi": 70,
          "name": "A#4",
          "ticks": 70080,
          "time": 109.49299199999999,
          "velocity": 0.5905511811023622
        },
        {
          "duration": 0.7577639999999946,
          "durationTicks": 485,
          "midi": 72,
          "name": "C5",
          "ticks": 70440,
          "time": 110.05545599999999,
          "velocity": 0.7007874015748031
        },
        {
          "duration": 0.3906000000000063,
          "durationTicks": 250,
          "midi": 63,
          "name": "D#4",
          "ticks": 71040,
          "time": 110.99289599999999,
          "velocity": 0.5905511811023622
        },
        {
          "duration": 0.3593520000000012,
          "durationTicks": 230,
          "midi": 67,
          "name": "G4",
          "ticks": 71040,
          "time": 110.99289599999999,
          "velocity": 0.7007874015748031
        },
        {
          "duration": 0.8905680000000018,
          "durationTicks": 570,
          "midi": 63,
          "name": "D#4",
          "ticks": 71280,
          "time": 111.36787199999999,
          "velocity": 0.5748031496062992
        },
        {
          "duration": 0.7265160000000037,
          "durationTicks": 465,
          "midi": 67,
          "name": "G4",
          "ticks": 71400,
          "time": 111.55536,
          "velocity": 0.6377952755905512
        },
        {
          "duration": 1.4608439999999945,
          "durationTicks": 935,
          "midi": 65,
          "name": "F4",
          "ticks": 72000,
          "time": 112.49279999999999,
          "velocity": 0.5984251968503937
        },
        {
          "duration": 0.5390280000000018,
          "durationTicks": 345,
          "midi": 69,
          "name": "A4",
          "ticks": 72000,
          "time": 112.49279999999999,
          "velocity": 0.6299212598425197
        },
        {
          "duration": 1.3827240000000103,
          "durationTicks": 885,
          "midi": 72,
          "name": "C5",
          "ticks": 72000,
          "time": 112.49279999999999,
          "velocity": 0.6850393700787402
        },
        {
          "duration": 0.359351999999987,
          "durationTicks": 230,
          "midi": 69,
          "name": "A4",
          "ticks": 72360,
          "time": 113.055264,
          "velocity": 0.7480314960629921
        },
        {
          "duration": 0.8515079999999813,
          "durationTicks": 545,
          "midi": 70,
          "name": "A#4",
          "ticks": 72600,
          "time": 113.43024,
          "velocity": 0.8031496062992126
        },
        {
          "duration": 0.29685600000000534,
          "durationTicks": 190,
          "midi": 67,
          "name": "G4",
          "ticks": 72720,
          "time": 113.617728,
          "velocity": 0.5433070866141733
        },
        {
          "duration": 0.5702759999999927,
          "durationTicks": 365,
          "midi": 62,
          "name": "D4",
          "ticks": 72960,
          "time": 113.99270399999999,
          "velocity": 0.6062992125984252
        },
        {
          "duration": 1.46865600000001,
          "durationTicks": 940,
          "midi": 67,
          "name": "G4",
          "ticks": 72960,
          "time": 113.99270399999999,
          "velocity": 0.6062992125984252
        },
        {
          "duration": 0.6327720000000028,
          "durationTicks": 405,
          "midi": 60,
          "name": "C4",
          "ticks": 73320,
          "time": 114.555168,
          "velocity": 0.6062992125984252
        },
        {
          "duration": 0.14842799999999556,
          "durationTicks": 95,
          "midi": 60,
          "name": "C4",
          "ticks": 73800,
          "time": 115.30511999999999,
          "velocity": 0.5826771653543307
        },
        {
          "duration": 0.5234039999999993,
          "durationTicks": 335,
          "midi": 63,
          "name": "D#4",
          "ticks": 73800,
          "time": 115.30511999999999,
          "velocity": 0.5984251968503937
        },
        {
          "duration": 1.4842799999999983,
          "durationTicks": 950,
          "midi": 60,
          "name": "C4",
          "ticks": 73920,
          "time": 115.49260799999999,
          "velocity": 0.6535433070866141
        },
        {
          "duration": 0.4218479999999971,
          "durationTicks": 270,
          "midi": 67,
          "name": "G4",
          "ticks": 73920,
          "time": 115.49260799999999,
          "velocity": 0.6141732283464567
        },
        {
          "duration": 0.21873599999999271,
          "durationTicks": 140,
          "midi": 62,
          "name": "D4",
          "ticks": 74160,
          "time": 115.867584,
          "velocity": 0.5275590551181102
        },
        {
          "duration": 0.6483960000000053,
          "durationTicks": 415,
          "midi": 63,
          "name": "D#4",
          "ticks": 74280,
          "time": 116.055072,
          "velocity": 0.6377952755905512
        },
        {
          "duration": 0.5390279999999876,
          "durationTicks": 345,
          "midi": 67,
          "name": "G4",
          "ticks": 74520,
          "time": 116.430048,
          "velocity": 0.7952755905511811
        },
        {
          "duration": 0.21092400000000566,
          "durationTicks": 135,
          "midi": 58,
          "name": "A#3",
          "ticks": 74880,
          "time": 116.99251199999999,
          "velocity": 0.49606299212598426
        },
        {
          "duration": 0.6327720000000028,
          "durationTicks": 405,
          "midi": 67,
          "name": "G4",
          "ticks": 74880,
          "time": 116.99251199999999,
          "velocity": 0.7716535433070866
        },
        {
          "duration": 0.1796760000000006,
          "durationTicks": 115,
          "midi": 58,
          "name": "A#3",
          "ticks": 75120,
          "time": 117.367488,
          "velocity": 0.5511811023622047
        },
        {
          "duration": 0.8358840000000072,
          "durationTicks": 535,
          "midi": 57,
          "name": "A3",
          "ticks": 75240,
          "time": 117.554976,
          "velocity": 0.5826771653543307
        },
        {
          "duration": 0.6327720000000028,
          "durationTicks": 405,
          "midi": 65,
          "name": "F4",
          "ticks": 75240,
          "time": 117.554976,
          "velocity": 0.7480314960629921
        },
        {
          "duration": 0.6171480000000003,
          "durationTicks": 395,
          "midi": 67,
          "name": "G4",
          "ticks": 75600,
          "time": 118.11743999999999,
          "velocity": 0.7480314960629921
        },
        {
          "duration": 1.4374079999999907,
          "durationTicks": 920,
          "midi": 58,
          "name": "A#3",
          "ticks": 75840,
          "time": 118.49241599999999,
          "velocity": 0.49606299212598426
        },
        {
          "duration": 1.0780560000000037,
          "durationTicks": 690,
          "midi": 65,
          "name": "F4",
          "ticks": 75960,
          "time": 118.679904,
          "velocity": 0.7086614173228346
        },
        {
          "duration": 0.1640519999999981,
          "durationTicks": 105,
          "midi": 57,
          "name": "A3",
          "ticks": 77880,
          "time": 121.679712,
          "velocity": 0.3779527559055118
        },
        {
          "duration": 0.2265480000000082,
          "durationTicks": 145,
          "midi": 58,
          "name": "A#3",
          "ticks": 78000,
          "time": 121.8672,
          "velocity": 0.6771653543307087
        },
        {
          "duration": 0.22654799999999398,
          "durationTicks": 145,
          "midi": 62,
          "name": "D4",
          "ticks": 78120,
          "time": 122.054688,
          "velocity": 0.5669291338582677
        },
        {
          "duration": 0.4921560000000085,
          "durationTicks": 315,
          "midi": 65,
          "name": "F4",
          "ticks": 78240,
          "time": 122.24217599999999,
          "velocity": 0.7244094488188977
        },
        {
          "duration": 0.14842799999999556,
          "durationTicks": 95,
          "midi": 62,
          "name": "D4",
          "ticks": 78480,
          "time": 122.61715199999999,
          "velocity": 0.5039370078740157
        },
        {
          "duration": 0.12499199999999178,
          "durationTicks": 80,
          "midi": 65,
          "name": "F4",
          "ticks": 78600,
          "time": 122.80463999999999,
          "velocity": 0.6299212598425197
        },
        {
          "duration": 0.33591599999999744,
          "durationTicks": 215,
          "midi": 62,
          "name": "D4",
          "ticks": 78720,
          "time": 122.992128,
          "velocity": 0.5039370078740157
        },
        {
          "duration": 0.21873599999999271,
          "durationTicks": 140,
          "midi": 63,
          "name": "D#4",
          "ticks": 78840,
          "time": 123.179616,
          "velocity": 0.7244094488188977
        },
        {
          "duration": 0.9218159999999926,
          "durationTicks": 590,
          "midi": 63,
          "name": "D#4",
          "ticks": 79080,
          "time": 123.55459199999999,
          "velocity": 0.5984251968503937
        },
        {
          "duration": 0.8046360000000021,
          "durationTicks": 515,
          "midi": 67,
          "name": "G4",
          "ticks": 79080,
          "time": 123.55459199999999,
          "velocity": 0.6771653543307087
        },
        {
          "duration": 0.5390280000000018,
          "durationTicks": 345,
          "midi": 67,
          "name": "G4",
          "ticks": 79680,
          "time": 124.492032,
          "velocity": 0.7322834645669292
        },
        {
          "duration": 0.9140040000000056,
          "durationTicks": 585,
          "midi": 65,
          "name": "F4",
          "ticks": 80040,
          "time": 125.05449599999999,
          "velocity": 0.7795275590551181
        },
        {
          "duration": 1.0702440000000024,
          "durationTicks": 685,
          "midi": 65,
          "name": "F4",
          "ticks": 80640,
          "time": 125.991936,
          "velocity": 0.7480314960629921
        },
        {
          "duration": 0.14842799999998135,
          "durationTicks": 95,
          "midi": 67,
          "name": "G4",
          "ticks": 81600,
          "time": 127.49184,
          "velocity": 0.7480314960629921
        },
        {
          "duration": 0.1640519999999981,
          "durationTicks": 105,
          "midi": 65,
          "name": "F4",
          "ticks": 81720,
          "time": 127.679328,
          "velocity": 0.5039370078740157
        },
        {
          "duration": 0.1640519999999981,
          "durationTicks": 105,
          "midi": 65,
          "name": "F4",
          "ticks": 81960,
          "time": 128.054304,
          "velocity": 0.6614173228346457
        },
        {
          "duration": 0.1640519999999981,
          "durationTicks": 105,
          "midi": 65,
          "name": "F4",
          "ticks": 82080,
          "time": 128.241792,
          "velocity": 0.4566929133858268
        },
        {
          "duration": 0.4999679999999955,
          "durationTicks": 320,
          "midi": 55,
          "name": "G3",
          "ticks": 84480,
          "time": 131.99155199999998,
          "velocity": 0.8188976377952756
        },
        {
          "duration": 0.21873600000000692,
          "durationTicks": 140,
          "midi": 62,
          "name": "D4",
          "ticks": 84720,
          "time": 132.366528,
          "velocity": 0.5039370078740157
        },
        {
          "duration": 0.9765000000000157,
          "durationTicks": 625,
          "midi": 65,
          "name": "F4",
          "ticks": 84840,
          "time": 132.554016,
          "velocity": 0.7401574803149606
        },
        {
          "duration": 0.35153999999999996,
          "durationTicks": 225,
          "midi": 62,
          "name": "D4",
          "ticks": 85200,
          "time": 133.11648,
          "velocity": 0.5748031496062992
        },
        {
          "duration": 1.2342960000000005,
          "durationTicks": 790,
          "midi": 57,
          "name": "A3",
          "ticks": 85440,
          "time": 133.491456,
          "velocity": 0.7480314960629921
        },
        {
          "duration": 0.4609079999999892,
          "durationTicks": 295,
          "midi": 69,
          "name": "A4",
          "ticks": 85440,
          "time": 133.491456,
          "velocity": 0.8267716535433071
        },
        {
          "duration": 1.0468079999999986,
          "durationTicks": 670,
          "midi": 62,
          "name": "D4",
          "ticks": 85680,
          "time": 133.866432,
          "velocity": 0.47244094488188976
        },
        {
          "duration": 0.9140039999999772,
          "durationTicks": 585,
          "midi": 65,
          "name": "F4",
          "ticks": 85800,
          "time": 134.05392,
          "velocity": 0.7007874015748031
        },
        {
          "duration": 1.2889800000000093,
          "durationTicks": 825,
          "midi": 58,
          "name": "A#3",
          "ticks": 86400,
          "time": 134.99136,
          "velocity": 0.7716535433070866
        },
        {
          "duration": 1.05462,
          "durationTicks": 675,
          "midi": 62,
          "name": "D4",
          "ticks": 86640,
          "time": 135.366336,
          "velocity": 0.3937007874015748
        },
        {
          "duration": 0.2187359999999785,
          "durationTicks": 140,
          "midi": 65,
          "name": "F4",
          "ticks": 86760,
          "time": 135.553824,
          "velocity": 0.6299212598425197
        },
        {
          "duration": 0.7733879999999829,
          "durationTicks": 495,
          "midi": 65,
          "name": "F4",
          "ticks": 87000,
          "time": 135.9288,
          "velocity": 0.7480314960629921
        },
        {
          "duration": 1.2967919999999822,
          "durationTicks": 830,
          "midi": 57,
          "name": "A3",
          "ticks": 87360,
          "time": 136.491264,
          "velocity": 0.7716535433070866
        },
        {
          "duration": 1.101491999999979,
          "durationTicks": 705,
          "midi": 62,
          "name": "D4",
          "ticks": 87600,
          "time": 136.86624,
          "velocity": 0.3937007874015748
        },
        {
          "duration": 0.8749439999999993,
          "durationTicks": 560,
          "midi": 65,
          "name": "F4",
          "ticks": 87720,
          "time": 137.05372799999998,
          "velocity": 0.6929133858267716
        },
        {
          "duration": 1.1561759999999879,
          "durationTicks": 740,
          "midi": 55,
          "name": "G3",
          "ticks": 88320,
          "time": 137.991168,
          "velocity": 0.7716535433070866
        },
        {
          "duration": 0.8280719999999917,
          "durationTicks": 530,
          "midi": 62,
          "name": "D4",
          "ticks": 88560,
          "time": 138.366144,
          "velocity": 0.4251968503937008
        },
        {
          "duration": 0.6249600000000157,
          "durationTicks": 400,
          "midi": 65,
          "name": "F4",
          "ticks": 88680,
          "time": 138.553632,
          "velocity": 0.6929133858267716
        },
        {
          "duration": 1.288979999999981,
          "durationTicks": 825,
          "midi": 57,
          "name": "A3",
          "ticks": 89280,
          "time": 139.491072,
          "velocity": 0.7716535433070866
        },
        {
          "duration": 0.18748799999997345,
          "durationTicks": 120,
          "midi": 58,
          "name": "A#3",
          "ticks": 89400,
          "time": 139.67856,
          "velocity": 0.6771653543307087
        },
        {
          "duration": 0.18748800000000188,
          "durationTicks": 120,
          "midi": 60,
          "name": "C4",
          "ticks": 89520,
          "time": 139.86604799999998,
          "velocity": 0.6299212598425197
        },
        {
          "duration": 0.76557600000001,
          "durationTicks": 490,
          "midi": 63,
          "name": "D#4",
          "ticks": 89640,
          "time": 140.05353599999998,
          "velocity": 0.6771653543307087
        },
        {
          "duration": 1.2421080000000018,
          "durationTicks": 795,
          "midi": 53,
          "name": "F3",
          "ticks": 90240,
          "time": 140.990976,
          "velocity": 0.6850393700787402
        },
        {
          "duration": 0.5312160000000006,
          "durationTicks": 340,
          "midi": 58,
          "name": "A#3",
          "ticks": 90360,
          "time": 141.178464,
          "velocity": 0.6850393700787402
        },
        {
          "duration": 0.999935999999991,
          "durationTicks": 640,
          "midi": 60,
          "name": "C4",
          "ticks": 90480,
          "time": 141.365952,
          "velocity": 0.6850393700787402
        },
        {
          "duration": 0.8905680000000018,
          "durationTicks": 570,
          "midi": 65,
          "name": "F4",
          "ticks": 90600,
          "time": 141.55344,
          "velocity": 0.6614173228346457
        },
        {
          "duration": 0.33591599999999744,
          "durationTicks": 215,
          "midi": 70,
          "name": "A#4",
          "ticks": 99840,
          "time": 155.990016,
          "velocity": 0.8503937007874016
        },
        {
          "duration": 0.21092399999997724,
          "durationTicks": 135,
          "midi": 67,
          "name": "G4",
          "ticks": 100080,
          "time": 156.364992,
          "velocity": 0.6850393700787402
        },
        {
          "duration": 0.617147999999986,
          "durationTicks": 395,
          "midi": 69,
          "name": "A4",
          "ticks": 100200,
          "time": 156.55248,
          "velocity": 0.7322834645669292
        },
        {
          "duration": 0.5234039999999993,
          "durationTicks": 335,
          "midi": 70,
          "name": "A#4",
          "ticks": 100440,
          "time": 156.92745599999998,
          "velocity": 0.889763779527559
        },
        {
          "duration": 0.46090800000001764,
          "durationTicks": 295,
          "midi": 69,
          "name": "A4",
          "ticks": 100800,
          "time": 157.48991999999998,
          "velocity": 0.7086614173228346
        },
        {
          "duration": 0.8280719999999917,
          "durationTicks": 530,
          "midi": 65,
          "name": "F4",
          "ticks": 101160,
          "time": 158.052384,
          "velocity": 0.8661417322834646
        },
        {
          "duration": 0.3984119999999791,
          "durationTicks": 255,
          "midi": 67,
          "name": "G4",
          "ticks": 101760,
          "time": 158.989824,
          "velocity": 0.7165354330708661
        },
        {
          "duration": 0.3046680000000208,
          "durationTicks": 195,
          "midi": 65,
          "name": "F4",
          "ticks": 102120,
          "time": 159.55228799999998,
          "velocity": 0.5984251968503937
        },
        {
          "duration": 0.4999679999999955,
          "durationTicks": 320,
          "midi": 65,
          "name": "F4",
          "ticks": 102360,
          "time": 159.92726399999998,
          "velocity": 0.7086614173228346
        },
        {
          "duration": 0.3671640000000025,
          "durationTicks": 235,
          "midi": 67,
          "name": "G4",
          "ticks": 102720,
          "time": 160.48972799999999,
          "velocity": 0.7559055118110236
        },
        {
          "duration": 0.33591599999999744,
          "durationTicks": 215,
          "midi": 65,
          "name": "F4",
          "ticks": 103080,
          "time": 161.052192,
          "velocity": 0.7559055118110236
        },
        {
          "duration": 0.5234039999999993,
          "durationTicks": 335,
          "midi": 65,
          "name": "F4",
          "ticks": 103320,
          "time": 161.427168,
          "velocity": 0.6141732283464567
        },
        {
          "duration": 1.2342960000000005,
          "durationTicks": 790,
          "midi": 79,
          "name": "G5",
          "ticks": 103680,
          "time": 161.989632,
          "velocity": 0.5669291338582677
        },
        {
          "duration": 0.10155599999998799,
          "durationTicks": 65,
          "midi": 72,
          "name": "C5",
          "ticks": 104640,
          "time": 163.489536,
          "velocity": 0.49606299212598426
        },
        {
          "duration": 0.4999679999999955,
          "durationTicks": 320,
          "midi": 74,
          "name": "D5",
          "ticks": 104640,
          "time": 163.489536,
          "velocity": 0.7716535433070866
        },
        {
          "duration": 0.8983800000000031,
          "durationTicks": 575,
          "midi": 67,
          "name": "G4",
          "ticks": 105000,
          "time": 164.052,
          "velocity": 0.6299212598425197
        },
        {
          "duration": 0.9061920000000043,
          "durationTicks": 580,
          "midi": 72,
          "name": "C5",
          "ticks": 105000,
          "time": 164.052,
          "velocity": 0.7952755905511811
        },
        {
          "duration": 0.585899999999981,
          "durationTicks": 375,
          "midi": 63,
          "name": "D#4",
          "ticks": 107040,
          "time": 167.239296,
          "velocity": 0.7322834645669292
        },
        {
          "duration": 1.4764680000000112,
          "durationTicks": 945,
          "midi": 58,
          "name": "A#3",
          "ticks": 107520,
          "time": 167.98924799999998,
          "velocity": 0.48031496062992124
        },
        {
          "duration": 0.1640519999999981,
          "durationTicks": 105,
          "midi": 60,
          "name": "C4",
          "ticks": 107760,
          "time": 168.36422399999998,
          "velocity": 0.4330708661417323
        },
        {
          "duration": 1.499904000000015,
          "durationTicks": 960,
          "midi": 62,
          "name": "D4",
          "ticks": 107880,
          "time": 168.55171199999998,
          "velocity": 0.7086614173228346
        },
        {
          "duration": 1.4764680000000112,
          "durationTicks": 945,
          "midi": 60,
          "name": "C4",
          "ticks": 108480,
          "time": 169.489152,
          "velocity": 0.5275590551181102
        },
        {
          "duration": 0.968687999999986,
          "durationTicks": 620,
          "midi": 63,
          "name": "D#4",
          "ticks": 108840,
          "time": 170.051616,
          "velocity": 0.6771653543307087
        },
        {
          "duration": 1.46865600000001,
          "durationTicks": 940,
          "midi": 62,
          "name": "D4",
          "ticks": 109440,
          "time": 170.98905599999998,
          "velocity": 0.5669291338582677
        },
        {
          "duration": 0.1640519999999981,
          "durationTicks": 105,
          "midi": 63,
          "name": "D#4",
          "ticks": 109680,
          "time": 171.36403199999998,
          "velocity": 0.4330708661417323
        },
        {
          "duration": 0.8905680000000018,
          "durationTicks": 570,
          "midi": 65,
          "name": "F4",
          "ticks": 109800,
          "time": 171.55151999999998,
          "velocity": 0.7007874015748031
        },
        {
          "duration": 1.4764680000000112,
          "durationTicks": 945,
          "midi": 60,
          "name": "C4",
          "ticks": 110400,
          "time": 172.48896,
          "velocity": 0.5275590551181102
        },
        {
          "duration": 0.1640519999999981,
          "durationTicks": 105,
          "midi": 62,
          "name": "D4",
          "ticks": 110640,
          "time": 172.863936,
          "velocity": 0.4330708661417323
        },
        {
          "duration": 0.968687999999986,
          "durationTicks": 620,
          "midi": 63,
          "name": "D#4",
          "ticks": 110760,
          "time": 173.051424,
          "velocity": 0.6377952755905512
        },
        {
          "duration": 0.2031120000000044,
          "durationTicks": 130,
          "midi": 58,
          "name": "A#3",
          "ticks": 111360,
          "time": 173.98886399999998,
          "velocity": 0.5669291338582677
        },
        {
          "duration": 0.18748800000000188,
          "durationTicks": 120,
          "midi": 53,
          "name": "F3",
          "ticks": 111480,
          "time": 174.17635199999998,
          "velocity": 0.5669291338582677
        },
        {
          "duration": 0.1640519999999981,
          "durationTicks": 105,
          "midi": 58,
          "name": "A#3",
          "ticks": 111600,
          "time": 174.36383999999998,
          "velocity": 0.49606299212598426
        },
        {
          "duration": 0.7890120000000138,
          "durationTicks": 505,
          "midi": 60,
          "name": "C4",
          "ticks": 111720,
          "time": 174.55132799999998,
          "velocity": 0.6456692913385826
        },
        {
          "duration": 0.7108920000000012,
          "durationTicks": 455,
          "midi": 62,
          "name": "D4",
          "ticks": 111960,
          "time": 174.926304,
          "velocity": 0.7007874015748031
        },
        {
          "duration": 1.4764679999999828,
          "durationTicks": 945,
          "midi": 60,
          "name": "C4",
          "ticks": 112320,
          "time": 175.488768,
          "velocity": 0.5275590551181102
        },
        {
          "duration": 0.968687999999986,
          "durationTicks": 620,
          "midi": 63,
          "name": "D#4",
          "ticks": 112680,
          "time": 176.051232,
          "velocity": 0.7086614173228346
        },
        {
          "duration": 1.46865600000001,
          "durationTicks": 940,
          "midi": 62,
          "name": "D4",
          "ticks": 113280,
          "time": 176.98867199999998,
          "velocity": 0.5669291338582677
        },
        {
          "duration": 0.4452840000000151,
          "durationTicks": 285,
          "midi": 63,
          "name": "D#4",
          "ticks": 113520,
          "time": 177.36364799999998,
          "velocity": 0.5039370078740157
        },
        {
          "duration": 0.8827560000000005,
          "durationTicks": 565,
          "midi": 65,
          "name": "F4",
          "ticks": 113640,
          "time": 177.55113599999999,
          "velocity": 0.7401574803149606
        },
        {
          "duration": 0.3437279999999987,
          "durationTicks": 220,
          "midi": 60,
          "name": "C4",
          "ticks": 114240,
          "time": 178.488576,
          "velocity": 0.6377952755905512
        },
        {
          "duration": 0.17186399999999935,
          "durationTicks": 110,
          "midi": 70,
          "name": "A#4",
          "ticks": 114240,
          "time": 178.488576,
          "velocity": 0.7716535433070866
        },
        {
          "duration": 0.1640519999999981,
          "durationTicks": 105,
          "midi": 55,
          "name": "G3",
          "ticks": 114360,
          "time": 178.676064,
          "velocity": 0.48031496062992124
        },
        {
          "duration": 0.14842799999999556,
          "durationTicks": 95,
          "midi": 67,
          "name": "G4",
          "ticks": 114360,
          "time": 178.676064,
          "velocity": 0.5826771653543307
        },
        {
          "duration": 0.49215599999999426,
          "durationTicks": 315,
          "midi": 65,
          "name": "F4",
          "ticks": 114480,
          "time": 178.863552,
          "velocity": 0.5275590551181102
        },
        {
          "duration": 0.7421400000000062,
          "durationTicks": 475,
          "midi": 67,
          "name": "G4",
          "ticks": 114600,
          "time": 179.05104,
          "velocity": 0.7637795275590551
        },
        {
          "duration": 0.2031120000000044,
          "durationTicks": 130,
          "midi": 58,
          "name": "A#3",
          "ticks": 115200,
          "time": 179.98847999999998,
          "velocity": 0.5669291338582677
        },
        {
          "duration": 0.1796760000000006,
          "durationTicks": 115,
          "midi": 53,
          "name": "F3",
          "ticks": 115320,
          "time": 180.17596799999998,
          "velocity": 0.44881889763779526
        },
        {
          "duration": 0.1640519999999981,
          "durationTicks": 105,
          "midi": 58,
          "name": "A#3",
          "ticks": 115440,
          "time": 180.36345599999999,
          "velocity": 0.49606299212598426
        },
        {
          "duration": 0.7890120000000138,
          "durationTicks": 505,
          "midi": 60,
          "name": "C4",
          "ticks": 115560,
          "time": 180.550944,
          "velocity": 0.6456692913385826
        },
        {
          "duration": 0.5390280000000018,
          "durationTicks": 345,
          "midi": 62,
          "name": "D4",
          "ticks": 115800,
          "time": 180.92592,
          "velocity": 0.7007874015748031
        },
        {
          "duration": 1.4764679999999828,
          "durationTicks": 945,
          "midi": 60,
          "name": "C4",
          "ticks": 116160,
          "time": 181.488384,
          "velocity": 0.5275590551181102
        },
        {
          "duration": 0.1640519999999981,
          "durationTicks": 105,
          "midi": 62,
          "name": "D4",
          "ticks": 116400,
          "time": 181.86336,
          "velocity": 0.44881889763779526
        },
        {
          "duration": 0.968687999999986,
          "durationTicks": 620,
          "midi": 63,
          "name": "D#4",
          "ticks": 116520,
          "time": 182.050848,
          "velocity": 0.6377952755905512
        },
        {
          "duration": 1.46865600000001,
          "durationTicks": 940,
          "midi": 62,
          "name": "D4",
          "ticks": 117120,
          "time": 182.98828799999998,
          "velocity": 0.5669291338582677
        },
        {
          "duration": 0.1640519999999981,
          "durationTicks": 105,
          "midi": 63,
          "name": "D#4",
          "ticks": 117360,
          "time": 183.363264,
          "velocity": 0.4330708661417323
        },
        {
          "duration": 0.8905680000000018,
          "durationTicks": 570,
          "midi": 65,
          "name": "F4",
          "ticks": 117480,
          "time": 183.550752,
          "velocity": 0.7007874015748031
        },
        {
          "duration": 1.4764679999999828,
          "durationTicks": 945,
          "midi": 60,
          "name": "C4",
          "ticks": 118080,
          "time": 184.488192,
          "velocity": 0.5275590551181102
        },
        {
          "duration": 0.1640519999999981,
          "durationTicks": 105,
          "midi": 62,
          "name": "D4",
          "ticks": 118320,
          "time": 184.863168,
          "velocity": 0.4330708661417323
        },
        {
          "duration": 0.9686880000000144,
          "durationTicks": 620,
          "midi": 63,
          "name": "D#4",
          "ticks": 118440,
          "time": 185.05065599999998,
          "velocity": 0.6377952755905512
        },
        {
          "duration": 0.7187040000000025,
          "durationTicks": 460,
          "midi": 62,
          "name": "D4",
          "ticks": 119040,
          "time": 185.98809599999998,
          "velocity": 0.7007874015748031
        },
        {
          "duration": 0.7890120000000138,
          "durationTicks": 505,
          "midi": 60,
          "name": "C4",
          "ticks": 119400,
          "time": 186.55056,
          "velocity": 0.6456692913385826
        },
        {
          "duration": 0.999935999999991,
          "durationTicks": 640,
          "midi": 62,
          "name": "D4",
          "ticks": 119640,
          "time": 186.925536,
          "velocity": 0.7007874015748031
        },
        {
          "duration": 1.4764679999999828,
          "durationTicks": 945,
          "midi": 60,
          "name": "C4",
          "ticks": 120000,
          "time": 187.488,
          "velocity": 0.5275590551181102
        },
        {
          "duration": 0.9686880000000144,
          "durationTicks": 620,
          "midi": 63,
          "name": "D#4",
          "ticks": 120360,
          "time": 188.05046399999998,
          "velocity": 0.6614173228346457
        },
        {
          "duration": 1.4764680000000112,
          "durationTicks": 945,
          "midi": 62,
          "name": "D4",
          "ticks": 120960,
          "time": 188.987904,
          "velocity": 0.5669291338582677
        },
        {
          "duration": 0.11717999999999051,
          "durationTicks": 75,
          "midi": 63,
          "name": "D#4",
          "ticks": 121200,
          "time": 189.36288,
          "velocity": 0.5039370078740157
        },
        {
          "duration": 0.8905680000000018,
          "durationTicks": 570,
          "midi": 65,
          "name": "F4",
          "ticks": 121320,
          "time": 189.550368,
          "velocity": 0.7165354330708661
        },
        {
          "duration": 1.4764679999999828,
          "durationTicks": 945,
          "midi": 60,
          "name": "C4",
          "ticks": 121920,
          "time": 190.487808,
          "velocity": 0.5275590551181102
        },
        {
          "duration": 0.11718000000001894,
          "durationTicks": 75,
          "midi": 62,
          "name": "D4",
          "ticks": 122160,
          "time": 190.86278399999998,
          "velocity": 0.5669291338582677
        },
        {
          "duration": 0.9608760000000132,
          "durationTicks": 615,
          "midi": 63,
          "name": "D#4",
          "ticks": 122280,
          "time": 191.05027199999998,
          "velocity": 0.7165354330708661
        },
        {
          "duration": 0.43747199999998543,
          "durationTicks": 280,
          "midi": 70,
          "name": "A#4",
          "ticks": 123840,
          "time": 193.48761599999997,
          "velocity": 0.5905511811023622
        },
        {
          "duration": 0.7577640000000088,
          "durationTicks": 485,
          "midi": 72,
          "name": "C5",
          "ticks": 124200,
          "time": 194.05007999999998,
          "velocity": 0.7007874015748031
        },
        {
          "duration": 0.39059999999997785,
          "durationTicks": 250,
          "midi": 63,
          "name": "D#4",
          "ticks": 124800,
          "time": 194.98752,
          "velocity": 0.5905511811023622
        },
        {
          "duration": 0.3593520000000012,
          "durationTicks": 230,
          "midi": 67,
          "name": "G4",
          "ticks": 124800,
          "time": 194.98752,
          "velocity": 0.7007874015748031
        },
        {
          "duration": 0.8905680000000018,
          "durationTicks": 570,
          "midi": 63,
          "name": "D#4",
          "ticks": 125040,
          "time": 195.362496,
          "velocity": 0.5748031496062992
        },
        {
          "duration": 0.734328000000005,
          "durationTicks": 470,
          "midi": 67,
          "name": "G4",
          "ticks": 125160,
          "time": 195.549984,
          "velocity": 0.6377952755905512
        },
        {
          "duration": 1.4608440000000371,
          "durationTicks": 935,
          "midi": 65,
          "name": "F4",
          "ticks": 125760,
          "time": 196.48742399999998,
          "velocity": 0.5984251968503937
        },
        {
          "duration": 0.5390280000000018,
          "durationTicks": 345,
          "midi": 69,
          "name": "A4",
          "ticks": 125760,
          "time": 196.48742399999998,
          "velocity": 0.6299212598425197
        },
        {
          "duration": 1.3827240000000245,
          "durationTicks": 885,
          "midi": 72,
          "name": "C5",
          "ticks": 125760,
          "time": 196.48742399999998,
          "velocity": 0.6850393700787402
        },
        {
          "duration": 0.3671640000000025,
          "durationTicks": 235,
          "midi": 69,
          "name": "A4",
          "ticks": 126120,
          "time": 197.04988799999998,
          "velocity": 0.7480314960629921
        },
        {
          "duration": 0.8515080000000239,
          "durationTicks": 545,
          "midi": 70,
          "name": "A#4",
          "ticks": 126360,
          "time": 197.42486399999999,
          "velocity": 0.8031496062992126
        },
        {
          "duration": 0.2968559999999911,
          "durationTicks": 190,
          "midi": 67,
          "name": "G4",
          "ticks": 126480,
          "time": 197.612352,
          "velocity": 0.5433070866141733
        },
        {
          "duration": 0.5702760000000069,
          "durationTicks": 365,
          "midi": 62,
          "name": "D4",
          "ticks": 126720,
          "time": 197.987328,
          "velocity": 0.6062992125984252
        },
        {
          "duration": 1.4686559999999815,
          "durationTicks": 940,
          "midi": 67,
          "name": "G4",
          "ticks": 126720,
          "time": 197.987328,
          "velocity": 0.6062992125984252
        },
        {
          "duration": 0.6249599999999873,
          "durationTicks": 400,
          "midi": 60,
          "name": "C4",
          "ticks": 127080,
          "time": 198.549792,
          "velocity": 0.6062992125984252
        },
        {
          "duration": 0.15623999999999683,
          "durationTicks": 100,
          "midi": 60,
          "name": "C4",
          "ticks": 127560,
          "time": 199.29974399999998,
          "velocity": 0.5826771653543307
        },
        {
          "duration": 0.5234040000000277,
          "durationTicks": 335,
          "midi": 63,
          "name": "D#4",
          "ticks": 127560,
          "time": 199.29974399999998,
          "velocity": 0.5984251968503937
        },
        {
          "duration": 1.4842800000000125,
          "durationTicks": 950,
          "midi": 60,
          "name": "C4",
          "ticks": 127680,
          "time": 199.48723199999998,
          "velocity": 0.6535433070866141
        },
        {
          "duration": 0.41403599999998164,
          "durationTicks": 265,
          "midi": 67,
          "name": "G4",
          "ticks": 127680,
          "time": 199.48723199999998,
          "velocity": 0.6141732283464567
        },
        {
          "duration": 0.21873600000000692,
          "durationTicks": 140,
          "midi": 62,
          "name": "D4",
          "ticks": 127920,
          "time": 199.86220799999998,
          "velocity": 0.5275590551181102
        },
        {
          "duration": 0.6483959999999911,
          "durationTicks": 415,
          "midi": 63,
          "name": "D#4",
          "ticks": 128040,
          "time": 200.04969599999998,
          "velocity": 0.6377952755905512
        },
        {
          "duration": 0.5312159999999722,
          "durationTicks": 340,
          "midi": 67,
          "name": "G4",
          "ticks": 128280,
          "time": 200.424672,
          "velocity": 0.7952755905511811
        },
        {
          "duration": 0.20311199999997598,
          "durationTicks": 130,
          "midi": 58,
          "name": "A#3",
          "ticks": 128640,
          "time": 200.987136,
          "velocity": 0.49606299212598426
        },
        {
          "duration": 0.6327719999999886,
          "durationTicks": 405,
          "midi": 67,
          "name": "G4",
          "ticks": 128640,
          "time": 200.987136,
          "velocity": 0.7716535433070866
        },
        {
          "duration": 0.1796759999999722,
          "durationTicks": 115,
          "midi": 58,
          "name": "A#3",
          "ticks": 128880,
          "time": 201.362112,
          "velocity": 0.5511811023622047
        },
        {
          "duration": 0.8358839999999645,
          "durationTicks": 535,
          "midi": 57,
          "name": "A3",
          "ticks": 129000,
          "time": 201.5496,
          "velocity": 0.5826771653543307
        },
        {
          "duration": 0.6327719999999886,
          "durationTicks": 405,
          "midi": 65,
          "name": "F4",
          "ticks": 129000,
          "time": 201.5496,
          "velocity": 0.7480314960629921
        },
        {
          "duration": 0.6171480000000145,
          "durationTicks": 395,
          "midi": 67,
          "name": "G4",
          "ticks": 129360,
          "time": 202.11206399999998,
          "velocity": 0.7480314960629921
        },
        {
          "duration": 1.4374080000000333,
          "durationTicks": 920,
          "midi": 58,
          "name": "A#3",
          "ticks": 129600,
          "time": 202.48703999999998,
          "velocity": 0.49606299212598426
        },
        {
          "duration": 1.0780560000000037,
          "durationTicks": 690,
          "midi": 65,
          "name": "F4",
          "ticks": 129720,
          "time": 202.67452799999998,
          "velocity": 0.7086614173228346
        },
        {
          "duration": 0.1640519999999981,
          "durationTicks": 105,
          "midi": 57,
          "name": "A3",
          "ticks": 131640,
          "time": 205.67433599999998,
          "velocity": 0.3779527559055118
        },
        {
          "duration": 0.22654799999997977,
          "durationTicks": 145,
          "midi": 58,
          "name": "A#3",
          "ticks": 131760,
          "time": 205.86182399999998,
          "velocity": 0.4409448818897638
        },
        {
          "duration": 0.22654799999997977,
          "durationTicks": 145,
          "midi": 62,
          "name": "D4",
          "ticks": 131880,
          "time": 206.049312,
          "velocity": 0.5669291338582677
        },
        {
          "duration": 0.49215599999999426,
          "durationTicks": 315,
          "midi": 65,
          "name": "F4",
          "ticks": 132000,
          "time": 206.2368,
          "velocity": 0.7244094488188977
        },
        {
          "duration": 0.14842799999999556,
          "durationTicks": 95,
          "midi": 62,
          "name": "D4",
          "ticks": 132240,
          "time": 206.611776,
          "velocity": 0.5039370078740157
        },
        {
          "duration": 0.11717999999999051,
          "durationTicks": 75,
          "midi": 65,
          "name": "F4",
          "ticks": 132360,
          "time": 206.799264,
          "velocity": 0.6299212598425197
        },
        {
          "duration": 0.33591599999999744,
          "durationTicks": 215,
          "midi": 62,
          "name": "D4",
          "ticks": 132480,
          "time": 206.986752,
          "velocity": 0.5039370078740157
        },
        {
          "duration": 0.21873600000000692,
          "durationTicks": 140,
          "midi": 63,
          "name": "D#4",
          "ticks": 132600,
          "time": 207.17424,
          "velocity": 0.7244094488188977
        },
        {
          "duration": 0.9218160000000353,
          "durationTicks": 590,
          "midi": 63,
          "name": "D#4",
          "ticks": 132840,
          "time": 207.54921599999997,
          "velocity": 0.5984251968503937
        },
        {
          "duration": 0.8046360000000163,
          "durationTicks": 515,
          "midi": 67,
          "name": "G4",
          "ticks": 132840,
          "time": 207.54921599999997,
          "velocity": 0.6771653543307087
        },
        {
          "duration": 0.5390280000000018,
          "durationTicks": 345,
          "midi": 67,
          "name": "G4",
          "ticks": 133440,
          "time": 208.48665599999998,
          "velocity": 0.7322834645669292
        },
        {
          "duration": 0.9140040000000056,
          "durationTicks": 585,
          "midi": 65,
          "name": "F4",
          "ticks": 133800,
          "time": 209.04912,
          "velocity": 0.7795275590551181
        },
        {
          "duration": 1.0624320000000012,
          "durationTicks": 680,
          "midi": 65,
          "name": "F4",
          "ticks": 134400,
          "time": 209.98656,
          "velocity": 0.7480314960629921
        },
        {
          "duration": 0.1406159999999943,
          "durationTicks": 90,
          "midi": 67,
          "name": "G4",
          "ticks": 135360,
          "time": 211.48646399999998,
          "velocity": 0.7480314960629921
        },
        {
          "duration": 0.1640519999999981,
          "durationTicks": 105,
          "midi": 65,
          "name": "F4",
          "ticks": 135480,
          "time": 211.67395199999999,
          "velocity": 0.5039370078740157
        },
        {
          "duration": 0.1640519999999981,
          "durationTicks": 105,
          "midi": 65,
          "name": "F4",
          "ticks": 135720,
          "time": 212.048928,
          "velocity": 0.6614173228346457
        },
        {
          "duration": 0.1640519999999981,
          "durationTicks": 105,
          "midi": 65,
          "name": "F4",
          "ticks": 135840,
          "time": 212.236416,
          "velocity": 0.4566929133858268
        },
        {
          "duration": 0.49215599999999426,
          "durationTicks": 315,
          "midi": 55,
          "name": "G3",
          "ticks": 138240,
          "time": 215.986176,
          "velocity": 0.8582677165354331
        },
        {
          "duration": 0.21092400000000566,
          "durationTicks": 135,
          "midi": 62,
          "name": "D4",
          "ticks": 138480,
          "time": 216.36115199999998,
          "velocity": 0.5433070866141733
        },
        {
          "duration": 0.9686880000000144,
          "durationTicks": 620,
          "midi": 65,
          "name": "F4",
          "ticks": 138600,
          "time": 216.54863999999998,
          "velocity": 0.7795275590551181
        },
        {
          "duration": 0.35153999999999996,
          "durationTicks": 225,
          "midi": 62,
          "name": "D4",
          "ticks": 138960,
          "time": 217.11110399999998,
          "velocity": 0.6141732283464567
        },
        {
          "duration": 1.234295999999972,
          "durationTicks": 790,
          "midi": 57,
          "name": "A3",
          "ticks": 139200,
          "time": 217.48608,
          "velocity": 0.7874015748031497
        },
        {
          "duration": 0.4530960000000164,
          "durationTicks": 290,
          "midi": 69,
          "name": "A4",
          "ticks": 139200,
          "time": 217.48608,
          "velocity": 0.8661417322834646
        },
        {
          "duration": 1.05462,
          "durationTicks": 675,
          "midi": 62,
          "name": "D4",
          "ticks": 139440,
          "time": 217.861056,
          "velocity": 0.5118110236220472
        },
        {
          "duration": 0.9140040000000056,
          "durationTicks": 585,
          "midi": 65,
          "name": "F4",
          "ticks": 139560,
          "time": 218.048544,
          "velocity": 0.7401574803149606
        },
        {
          "duration": 1.2889800000000093,
          "durationTicks": 825,
          "midi": 58,
          "name": "A#3",
          "ticks": 140160,
          "time": 218.98598399999997,
          "velocity": 0.8110236220472441
        },
        {
          "duration": 1.0624320000000296,
          "durationTicks": 680,
          "midi": 62,
          "name": "D4",
          "ticks": 140400,
          "time": 219.36095999999998,
          "velocity": 0.4330708661417323
        },
        {
          "duration": 0.22654799999997977,
          "durationTicks": 145,
          "midi": 65,
          "name": "F4",
          "ticks": 140520,
          "time": 219.54844799999998,
          "velocity": 0.6692913385826772
        },
        {
          "duration": 0.7733880000000113,
          "durationTicks": 495,
          "midi": 65,
          "name": "F4",
          "ticks": 140760,
          "time": 219.92342399999998,
          "velocity": 0.7874015748031497
        },
        {
          "duration": 1.2967920000000106,
          "durationTicks": 830,
          "midi": 57,
          "name": "A3",
          "ticks": 141120,
          "time": 220.485888,
          "velocity": 0.8110236220472441
        },
        {
          "duration": 1.1014920000000075,
          "durationTicks": 705,
          "midi": 62,
          "name": "D4",
          "ticks": 141360,
          "time": 220.860864,
          "velocity": 0.4330708661417323
        },
        {
          "duration": 0.8749439999999993,
          "durationTicks": 560,
          "midi": 65,
          "name": "F4",
          "ticks": 141480,
          "time": 221.048352,
          "velocity": 0.7322834645669292
        },
        {
          "duration": 1.1561760000000163,
          "durationTicks": 740,
          "midi": 55,
          "name": "G3",
          "ticks": 142080,
          "time": 221.98579199999998,
          "velocity": 0.8110236220472441
        },
        {
          "duration": 0.8280720000000201,
          "durationTicks": 530,
          "midi": 62,
          "name": "D4",
          "ticks": 142320,
          "time": 222.36076799999998,
          "velocity": 0.4645669291338583
        },
        {
          "duration": 0.6249599999999873,
          "durationTicks": 400,
          "midi": 65,
          "name": "F4",
          "ticks": 142440,
          "time": 222.54825599999998,
          "velocity": 0.7322834645669292
        },
        {
          "duration": 1.2889800000000093,
          "durationTicks": 825,
          "midi": 57,
          "name": "A3",
          "ticks": 143040,
          "time": 223.485696,
          "velocity": 0.8110236220472441
        },
        {
          "duration": 0.19530000000000314,
          "durationTicks": 125,
          "midi": 58,
          "name": "A#3",
          "ticks": 143160,
          "time": 223.673184,
          "velocity": 0.7165354330708661
        },
        {
          "duration": 0.18748800000000188,
          "durationTicks": 120,
          "midi": 60,
          "name": "C4",
          "ticks": 143280,
          "time": 223.860672,
          "velocity": 0.6692913385826772
        },
        {
          "duration": 0.7655759999999816,
          "durationTicks": 490,
          "midi": 63,
          "name": "D#4",
          "ticks": 143400,
          "time": 224.04816,
          "velocity": 0.7165354330708661
        },
        {
          "duration": 0.1640519999999981,
          "durationTicks": 105,
          "midi": 59,
          "name": "B3",
          "ticks": 147000,
          "time": 229.6728,
          "velocity": 0.4409448818897638
        },
        {
          "duration": 0.22654799999997977,
          "durationTicks": 145,
          "midi": 60,
          "name": "C4",
          "ticks": 147120,
          "time": 229.860288,
          "velocity": 0.5039370078740157
        },
        {
          "duration": 0.21873600000000692,
          "durationTicks": 140,
          "midi": 64,
          "name": "E4",
          "ticks": 147240,
          "time": 230.047776,
          "velocity": 0.6299212598425197
        },
        {
          "duration": 0.4921560000000227,
          "durationTicks": 315,
          "midi": 67,
          "name": "G4",
          "ticks": 147360,
          "time": 230.23526399999997,
          "velocity": 0.7874015748031497
        },
        {
          "duration": 0.15623999999999683,
          "durationTicks": 100,
          "midi": 64,
          "name": "E4",
          "ticks": 147600,
          "time": 230.61023999999998,
          "velocity": 0.5669291338582677
        },
        {
          "duration": 0.11718000000001894,
          "durationTicks": 75,
          "midi": 67,
          "name": "G4",
          "ticks": 147720,
          "time": 230.79772799999998,
          "velocity": 0.6929133858267716
        },
        {
          "duration": 0.33591600000002586,
          "durationTicks": 215,
          "midi": 64,
          "name": "E4",
          "ticks": 147840,
          "time": 230.98521599999998,
          "velocity": 0.5669291338582677
        },
        {
          "duration": 0.21873600000000692,
          "durationTicks": 140,
          "midi": 65,
          "name": "F4",
          "ticks": 147960,
          "time": 231.17270399999998,
          "velocity": 0.7874015748031497
        },
        {
          "duration": 0.9218160000000069,
          "durationTicks": 590,
          "midi": 65,
          "name": "F4",
          "ticks": 148200,
          "time": 231.54767999999999,
          "velocity": 0.6614173228346457
        },
        {
          "duration": 0.8046360000000163,
          "durationTicks": 515,
          "midi": 69,
          "name": "A4",
          "ticks": 148200,
          "time": 231.54767999999999,
          "velocity": 0.7401574803149606
        },
        {
          "duration": 0.5390280000000018,
          "durationTicks": 345,
          "midi": 69,
          "name": "A4",
          "ticks": 148800,
          "time": 232.48512,
          "velocity": 0.7952755905511811
        },
        {
          "duration": 0.9140040000000056,
          "durationTicks": 585,
          "midi": 67,
          "name": "G4",
          "ticks": 149160,
          "time": 233.04758399999997,
          "velocity": 0.84251968503937
        },
        {
          "duration": 1.0624320000000296,
          "durationTicks": 680,
          "midi": 67,
          "name": "G4",
          "ticks": 149760,
          "time": 233.98502399999998,
          "velocity": 0.8110236220472441
        },
        {
          "duration": 0.14842799999999556,
          "durationTicks": 95,
          "midi": 69,
          "name": "A4",
          "ticks": 150720,
          "time": 235.484928,
          "velocity": 0.8110236220472441
        },
        {
          "duration": 0.1640519999999981,
          "durationTicks": 105,
          "midi": 67,
          "name": "G4",
          "ticks": 150840,
          "time": 235.672416,
          "velocity": 0.5669291338582677
        },
        {
          "duration": 0.1640519999999981,
          "durationTicks": 105,
          "midi": 67,
          "name": "G4",
          "ticks": 151080,
          "time": 236.04739199999997,
          "velocity": 0.7244094488188977
        },
        {
          "duration": 0.1640519999999981,
          "durationTicks": 105,
          "midi": 67,
          "name": "G4",
          "ticks": 151200,
          "time": 236.23487999999998,
          "velocity": 0.5196850393700787
        },
        {
          "duration": 0.49215599999999426,
          "durationTicks": 315,
          "midi": 57,
          "name": "A3",
          "ticks": 153600,
          "time": 239.98463999999998,
          "velocity": 0.9212598425196851
        },
        {
          "duration": 0.21873600000000692,
          "durationTicks": 140,
          "midi": 64,
          "name": "E4",
          "ticks": 153840,
          "time": 240.359616,
          "velocity": 0.6062992125984252
        },
        {
          "duration": 0.9686880000000144,
          "durationTicks": 620,
          "midi": 67,
          "name": "G4",
          "ticks": 153960,
          "time": 240.547104,
          "velocity": 0.84251968503937
        },
        {
          "duration": 0.35153999999999996,
          "durationTicks": 225,
          "midi": 64,
          "name": "E4",
          "ticks": 154320,
          "time": 241.109568,
          "velocity": 0.6771653543307087
        },
        {
          "duration": 1.2342960000000005,
          "durationTicks": 790,
          "midi": 59,
          "name": "B3",
          "ticks": 154560,
          "time": 241.48454399999997,
          "velocity": 0.8503937007874016
        },
        {
          "duration": 0.4530960000000164,
          "durationTicks": 290,
          "midi": 71,
          "name": "B4",
          "ticks": 154560,
          "time": 241.48454399999997,
          "velocity": 0.9291338582677166
        },
        {
          "duration": 1.05462,
          "durationTicks": 675,
          "midi": 64,
          "name": "E4",
          "ticks": 154800,
          "time": 241.85951999999997,
          "velocity": 0.5748031496062992
        },
        {
          "duration": 0.9140040000000056,
          "durationTicks": 585,
          "midi": 67,
          "name": "G4",
          "ticks": 154920,
          "time": 242.04700799999998,
          "velocity": 0.8031496062992126
        },
        {
          "duration": 1.2889800000000093,
          "durationTicks": 825,
          "midi": 60,
          "name": "C4",
          "ticks": 155520,
          "time": 242.984448,
          "velocity": 0.8740157480314961
        },
        {
          "duration": 1.05462,
          "durationTicks": 675,
          "midi": 64,
          "name": "E4",
          "ticks": 155760,
          "time": 243.359424,
          "velocity": 0.49606299212598426
        },
        {
          "duration": 0.22654799999997977,
          "durationTicks": 145,
          "midi": 67,
          "name": "G4",
          "ticks": 155880,
          "time": 243.546912,
          "velocity": 0.7322834645669292
        },
        {
          "duration": 0.7733879999999829,
          "durationTicks": 495,
          "midi": 67,
          "name": "G4",
          "ticks": 156120,
          "time": 243.921888,
          "velocity": 0.8503937007874016
        },
        {
          "duration": 1.296792000000039,
          "durationTicks": 830,
          "midi": 59,
          "name": "B3",
          "ticks": 156480,
          "time": 244.48435199999997,
          "velocity": 0.8740157480314961
        },
        {
          "duration": 1.1014920000000075,
          "durationTicks": 705,
          "midi": 64,
          "name": "E4",
          "ticks": 156720,
          "time": 244.85932799999998,
          "velocity": 0.49606299212598426
        },
        {
          "duration": 0.8749440000000277,
          "durationTicks": 560,
          "midi": 67,
          "name": "G4",
          "ticks": 156840,
          "time": 245.04681599999998,
          "velocity": 0.7952755905511811
        },
        {
          "duration": 1.1561760000000163,
          "durationTicks": 740,
          "midi": 57,
          "name": "A3",
          "ticks": 157440,
          "time": 245.984256,
          "velocity": 0.8740157480314961
        },
        {
          "duration": 0.8280720000000201,
          "durationTicks": 530,
          "midi": 64,
          "name": "E4",
          "ticks": 157680,
          "time": 246.359232,
          "velocity": 0.5275590551181102
        },
        {
          "duration": 0.6249599999999873,
          "durationTicks": 400,
          "midi": 67,
          "name": "G4",
          "ticks": 157800,
          "time": 246.54672,
          "velocity": 0.7952755905511811
        },
        {
          "duration": 1.281168000000008,
          "durationTicks": 820,
          "midi": 59,
          "name": "B3",
          "ticks": 158400,
          "time": 247.48415999999997,
          "velocity": 0.8740157480314961
        },
        {
          "duration": 0.18748800000000188,
          "durationTicks": 120,
          "midi": 60,
          "name": "C4",
          "ticks": 158520,
          "time": 247.67164799999998,
          "velocity": 0.7795275590551181
        },
        {
          "duration": 0.9296279999999797,
          "durationTicks": 595,
          "midi": 62,
          "name": "D4",
          "ticks": 158640,
          "time": 247.85913599999998,
          "velocity": 0.7322834645669292
        },
        {
          "duration": 0.7655759999999816,
          "durationTicks": 490,
          "midi": 65,
          "name": "F4",
          "ticks": 158760,
          "time": 248.04662399999998,
          "velocity": 0.7795275590551181
        },
        {
          "duration": 0.35153999999999996,
          "durationTicks": 225,
          "midi": 55,
          "name": "G3",
          "ticks": 159360,
          "time": 248.984064,
          "velocity": 0.8582677165354331
        },
        {
          "duration": 0.19530000000000314,
          "durationTicks": 125,
          "midi": 60,
          "name": "C4",
          "ticks": 159480,
          "time": 249.171552,
          "velocity": 0.5826771653543307
        },
        {
          "duration": 0.1796759999999722,
          "durationTicks": 115,
          "midi": 62,
          "name": "D4",
          "ticks": 159600,
          "time": 249.35904,
          "velocity": 0.6299212598425197
        },
        {
          "duration": 0.8515079999999955,
          "durationTicks": 545,
          "midi": 64,
          "name": "E4",
          "ticks": 159720,
          "time": 249.546528,
          "velocity": 0.5826771653543307
        },
        {
          "duration": 0.24998399999998355,
          "durationTicks": 160,
          "midi": 55,
          "name": "G3",
          "ticks": 160320,
          "time": 250.48396799999998,
          "velocity": 0.905511811023622
        },
        {
          "duration": 0.1796760000000006,
          "durationTicks": 115,
          "midi": 60,
          "name": "C4",
          "ticks": 160440,
          "time": 250.67145599999998,
          "velocity": 0.6141732283464567
        },
        {
          "duration": 0.19530000000003156,
          "durationTicks": 125,
          "midi": 62,
          "name": "D4",
          "ticks": 160560,
          "time": 250.85894399999998,
          "velocity": 0.6141732283464567
        },
        {
          "duration": 0.6405840000000182,
          "durationTicks": 410,
          "midi": 64,
          "name": "E4",
          "ticks": 160680,
          "time": 251.04643199999998,
          "velocity": 0.5984251968503937
        },
        {
          "duration": 0.1640519999999981,
          "durationTicks": 105,
          "midi": 61,
          "name": "C#4",
          "ticks": 162360,
          "time": 253.67126399999998,
          "velocity": 0.4409448818897638
        },
        {
          "duration": 0.22654799999997977,
          "durationTicks": 145,
          "midi": 62,
          "name": "D4",
          "ticks": 162480,
          "time": 253.85875199999998,
          "velocity": 0.5039370078740157
        },
        {
          "duration": 0.22654799999997977,
          "durationTicks": 145,
          "midi": 66,
          "name": "F#4",
          "ticks": 162600,
          "time": 254.04623999999998,
          "velocity": 0.6299212598425197
        },
        {
          "duration": 0.49215599999999426,
          "durationTicks": 315,
          "midi": 69,
          "name": "A4",
          "ticks": 162720,
          "time": 254.23372799999999,
          "velocity": 0.7874015748031497
        },
        {
          "duration": 0.1640519999999981,
          "durationTicks": 105,
          "midi": 66,
          "name": "F#4",
          "ticks": 162960,
          "time": 254.608704,
          "velocity": 0.5669291338582677
        },
        {
          "duration": 0.1249920000000202,
          "durationTicks": 80,
          "midi": 69,
          "name": "A4",
          "ticks": 163080,
          "time": 254.796192,
          "velocity": 0.6929133858267716
        },
        {
          "duration": 0.33591599999999744,
          "durationTicks": 215,
          "midi": 66,
          "name": "F#4",
          "ticks": 163200,
          "time": 254.98368,
          "velocity": 0.5669291338582677
        },
        {
          "duration": 0.21873600000000692,
          "durationTicks": 140,
          "midi": 67,
          "name": "G4",
          "ticks": 163320,
          "time": 255.171168,
          "velocity": 0.7874015748031497
        },
        {
          "duration": 0.914004000000034,
          "durationTicks": 585,
          "midi": 67,
          "name": "G4",
          "ticks": 163560,
          "time": 255.54614399999997,
          "velocity": 0.6614173228346457
        },
        {
          "duration": 0.8046360000000163,
          "durationTicks": 515,
          "midi": 71,
          "name": "B4",
          "ticks": 163560,
          "time": 255.54614399999997,
          "velocity": 0.7401574803149606
        },
        {
          "duration": 0.5390279999999734,
          "durationTicks": 345,
          "midi": 71,
          "name": "B4",
          "ticks": 164160,
          "time": 256.483584,
          "velocity": 0.7952755905511811
        },
        {
          "duration": 0.9140039999999772,
          "durationTicks": 585,
          "midi": 69,
          "name": "A4",
          "ticks": 164520,
          "time": 257.046048,
          "velocity": 0.84251968503937
        },
        {
          "duration": 1.062432000000058,
          "durationTicks": 680,
          "midi": 69,
          "name": "A4",
          "ticks": 165120,
          "time": 257.98348799999997,
          "velocity": 0.8110236220472441
        },
        {
          "duration": 0.14061600000002272,
          "durationTicks": 90,
          "midi": 71,
          "name": "B4",
          "ticks": 166080,
          "time": 259.483392,
          "velocity": 0.8110236220472441
        },
        {
          "duration": 0.16405199999996967,
          "durationTicks": 105,
          "midi": 69,
          "name": "A4",
          "ticks": 166200,
          "time": 259.67088,
          "velocity": 0.5669291338582677
        },
        {
          "duration": 0.1640520000000265,
          "durationTicks": 105,
          "midi": 69,
          "name": "A4",
          "ticks": 166440,
          "time": 260.04585599999996,
          "velocity": 0.7244094488188977
        },
        {
          "duration": 0.16405199999996967,
          "durationTicks": 105,
          "midi": 69,
          "name": "A4",
          "ticks": 166560,
          "time": 260.233344,
          "velocity": 0.5196850393700787
        },
        {
          "duration": 0.4921560000000227,
          "durationTicks": 315,
          "midi": 59,
          "name": "B3",
          "ticks": 168960,
          "time": 263.98310399999997,
          "velocity": 0.9212598425196851
        },
        {
          "duration": 0.21873600000003535,
          "durationTicks": 140,
          "midi": 66,
          "name": "F#4",
          "ticks": 169200,
          "time": 264.35808,
          "velocity": 0.6062992125984252
        },
        {
          "duration": 0.968687999999986,
          "durationTicks": 620,
          "midi": 69,
          "name": "A4",
          "ticks": 169320,
          "time": 264.545568,
          "velocity": 0.84251968503937
        },
        {
          "duration": 0.35153999999999996,
          "durationTicks": 225,
          "midi": 66,
          "name": "F#4",
          "ticks": 169680,
          "time": 265.108032,
          "velocity": 0.6771653543307087
        },
        {
          "duration": 1.234295999999972,
          "durationTicks": 790,
          "midi": 61,
          "name": "C#4",
          "ticks": 169920,
          "time": 265.483008,
          "velocity": 0.8503937007874016
        },
        {
          "duration": 0.4609079999999608,
          "durationTicks": 295,
          "midi": 73,
          "name": "C#5",
          "ticks": 169920,
          "time": 265.483008,
          "velocity": 0.9291338582677166
        },
        {
          "duration": 1.0468079999999986,
          "durationTicks": 670,
          "midi": 66,
          "name": "F#4",
          "ticks": 170160,
          "time": 265.857984,
          "velocity": 0.5748031496062992
        },
        {
          "duration": 0.914004000000034,
          "durationTicks": 585,
          "midi": 69,
          "name": "A4",
          "ticks": 170280,
          "time": 266.04547199999996,
          "velocity": 0.8031496062992126
        },
        {
          "duration": 1.288979999999981,
          "durationTicks": 825,
          "midi": 62,
          "name": "D4",
          "ticks": 170880,
          "time": 266.982912,
          "velocity": 0.8740157480314961
        },
        {
          "duration": 1.05462,
          "durationTicks": 675,
          "midi": 66,
          "name": "F#4",
          "ticks": 171120,
          "time": 267.357888,
          "velocity": 0.49606299212598426
        },
        {
          "duration": 0.22654799999997977,
          "durationTicks": 145,
          "midi": 69,
          "name": "A4",
          "ticks": 171240,
          "time": 267.545376,
          "velocity": 0.7322834645669292
        },
        {
          "duration": 0.7733880000000113,
          "durationTicks": 495,
          "midi": 69,
          "name": "A4",
          "ticks": 171480,
          "time": 267.920352,
          "velocity": 0.8503937007874016
        },
        {
          "duration": 1.296792000000039,
          "durationTicks": 830,
          "midi": 61,
          "name": "C#4",
          "ticks": 171840,
          "time": 268.48281599999996,
          "velocity": 0.8740157480314961
        },
        {
          "duration": 1.1014920000000075,
          "durationTicks": 705,
          "midi": 66,
          "name": "F#4",
          "ticks": 172080,
          "time": 268.85779199999996,
          "velocity": 0.49606299212598426
        },
        {
          "duration": 0.8749440000000277,
          "durationTicks": 560,
          "midi": 69,
          "name": "A4",
          "ticks": 172200,
          "time": 269.04528,
          "velocity": 0.7952755905511811
        },
        {
          "duration": 1.1561760000000163,
          "durationTicks": 740,
          "midi": 59,
          "name": "B3",
          "ticks": 172800,
          "time": 269.98272,
          "velocity": 0.8740157480314961
        },
        {
          "duration": 0.8280720000000201,
          "durationTicks": 530,
          "midi": 66,
          "name": "F#4",
          "ticks": 173040,
          "time": 270.357696,
          "velocity": 0.5275590551181102
        },
        {
          "duration": 0.6327719999999886,
          "durationTicks": 405,
          "midi": 69,
          "name": "A4",
          "ticks": 173160,
          "time": 270.545184,
          "velocity": 0.7952755905511811
        },
        {
          "duration": 1.288979999999981,
          "durationTicks": 825,
          "midi": 61,
          "name": "C#4",
          "ticks": 173760,
          "time": 271.482624,
          "velocity": 0.8740157480314961
        },
        {
          "duration": 0.1874880000000303,
          "durationTicks": 120,
          "midi": 62,
          "name": "D4",
          "ticks": 173880,
          "time": 271.67011199999996,
          "velocity": 0.7795275590551181
        },
        {
          "duration": 0.18748799999997345,
          "durationTicks": 120,
          "midi": 64,
          "name": "E4",
          "ticks": 174000,
          "time": 271.8576,
          "velocity": 0.7322834645669292
        },
        {
          "duration": 0.76557600000001,
          "durationTicks": 490,
          "midi": 67,
          "name": "G4",
          "ticks": 174120,
          "time": 272.04508799999996,
          "velocity": 0.7795275590551181
        },
        {
          "duration": 0.34372799999994186,
          "durationTicks": 220,
          "midi": 57,
          "name": "A3",
          "ticks": 174720,
          "time": 272.982528,
          "velocity": 0.8582677165354331
        },
        {
          "duration": 0.19530000000003156,
          "durationTicks": 125,
          "midi": 62,
          "name": "D4",
          "ticks": 174840,
          "time": 273.170016,
          "velocity": 0.5826771653543307
        },
        {
          "duration": 0.1796759999999722,
          "durationTicks": 115,
          "midi": 64,
          "name": "E4",
          "ticks": 174960,
          "time": 273.357504,
          "velocity": 0.6299212598425197
        },
        {
          "duration": 0.8515080000000239,
          "durationTicks": 545,
          "midi": 66,
          "name": "F#4",
          "ticks": 175080,
          "time": 273.544992,
          "velocity": 0.5826771653543307
        },
        {
          "duration": 0.49996800000002395,
          "durationTicks": 320,
          "midi": 59,
          "name": "B3",
          "ticks": 176640,
          "time": 275.982336,
          "velocity": 0.9212598425196851
        },
        {
          "duration": 0.21873600000003535,
          "durationTicks": 140,
          "midi": 66,
          "name": "F#4",
          "ticks": 176880,
          "time": 276.357312,
          "velocity": 0.6062992125984252
        },
        {
          "duration": 0.968687999999986,
          "durationTicks": 620,
          "midi": 69,
          "name": "A4",
          "ticks": 177000,
          "time": 276.5448,
          "velocity": 0.84251968503937
        },
        {
          "duration": 0.35153999999999996,
          "durationTicks": 225,
          "midi": 66,
          "name": "F#4",
          "ticks": 177360,
          "time": 277.107264,
          "velocity": 0.6771653543307087
        },
        {
          "duration": 1.234295999999972,
          "durationTicks": 790,
          "midi": 61,
          "name": "C#4",
          "ticks": 177600,
          "time": 277.48224,
          "velocity": 0.8503937007874016
        },
        {
          "duration": 0.4530960000000164,
          "durationTicks": 290,
          "midi": 73,
          "name": "C#5",
          "ticks": 177600,
          "time": 277.48224,
          "velocity": 0.9291338582677166
        },
        {
          "duration": 1.05462,
          "durationTicks": 675,
          "midi": 66,
          "name": "F#4",
          "ticks": 177840,
          "time": 277.857216,
          "velocity": 0.5748031496062992
        },
        {
          "duration": 0.914004000000034,
          "durationTicks": 585,
          "midi": 69,
          "name": "A4",
          "ticks": 177960,
          "time": 278.04470399999997,
          "velocity": 0.8031496062992126
        },
        {
          "duration": 1.288979999999981,
          "durationTicks": 825,
          "midi": 62,
          "name": "D4",
          "ticks": 178560,
          "time": 278.982144,
          "velocity": 0.8740157480314961
        },
        {
          "duration": 1.05462,
          "durationTicks": 675,
          "midi": 66,
          "name": "F#4",
          "ticks": 178800,
          "time": 279.35712,
          "velocity": 0.49606299212598426
        },
        {
          "duration": 0.22654799999997977,
          "durationTicks": 145,
          "midi": 69,
          "name": "A4",
          "ticks": 178920,
          "time": 279.544608,
          "velocity": 0.7322834645669292
        },
        {
          "duration": 0.7733880000000113,
          "durationTicks": 495,
          "midi": 69,
          "name": "A4",
          "ticks": 179160,
          "time": 279.919584,
          "velocity": 0.8503937007874016
        },
        {
          "duration": 1.296792000000039,
          "durationTicks": 830,
          "midi": 61,
          "name": "C#4",
          "ticks": 179520,
          "time": 280.48204799999996,
          "velocity": 0.8740157480314961
        },
        {
          "duration": 1.1014920000000075,
          "durationTicks": 705,
          "midi": 66,
          "name": "F#4",
          "ticks": 179760,
          "time": 280.85702399999997,
          "velocity": 0.49606299212598426
        },
        {
          "duration": 0.8749439999999709,
          "durationTicks": 560,
          "midi": 69,
          "name": "A4",
          "ticks": 179880,
          "time": 281.044512,
          "velocity": 0.7952755905511811
        },
        {
          "duration": 1.1561760000000163,
          "durationTicks": 740,
          "midi": 59,
          "name": "B3",
          "ticks": 180480,
          "time": 281.981952,
          "velocity": 0.8740157480314961
        },
        {
          "duration": 0.8280720000000201,
          "durationTicks": 530,
          "midi": 66,
          "name": "F#4",
          "ticks": 180720,
          "time": 282.356928,
          "velocity": 0.5275590551181102
        },
        {
          "duration": 0.6249599999999873,
          "durationTicks": 400,
          "midi": 69,
          "name": "A4",
          "ticks": 180840,
          "time": 282.54441599999996,
          "velocity": 0.7952755905511811
        },
        {
          "duration": 1.288979999999981,
          "durationTicks": 825,
          "midi": 61,
          "name": "C#4",
          "ticks": 181440,
          "time": 283.481856,
          "velocity": 0.8740157480314961
        },
        {
          "duration": 1.0936800000000062,
          "durationTicks": 700,
          "midi": 62,
          "name": "D4",
          "ticks": 181560,
          "time": 283.66934399999997,
          "velocity": 0.7795275590551181
        },
        {
          "duration": 0.9296279999999797,
          "durationTicks": 595,
          "midi": 64,
          "name": "E4",
          "ticks": 181680,
          "time": 283.856832,
          "velocity": 0.7322834645669292
        },
        {
          "duration": 0.76557600000001,
          "durationTicks": 490,
          "midi": 67,
          "name": "G4",
          "ticks": 181800,
          "time": 284.04431999999997,
          "velocity": 0.7795275590551181
        },
        {
          "duration": 0.35153999999999996,
          "durationTicks": 225,
          "midi": 57,
          "name": "A3",
          "ticks": 182400,
          "time": 284.98176,
          "velocity": 0.8582677165354331
        },
        {
          "duration": 0.19530000000003156,
          "durationTicks": 125,
          "midi": 62,
          "name": "D4",
          "ticks": 182520,
          "time": 285.169248,
          "velocity": 0.5826771653543307
        },
        {
          "duration": 0.17967600000002903,
          "durationTicks": 115,
          "midi": 64,
          "name": "E4",
          "ticks": 182640,
          "time": 285.35673599999996,
          "velocity": 0.6299212598425197
        },
        {
          "duration": 0.8515080000000239,
          "durationTicks": 545,
          "midi": 66,
          "name": "F#4",
          "ticks": 182760,
          "time": 285.544224,
          "velocity": 0.5826771653543307
        },
        {
          "duration": 0.49996800000002395,
          "durationTicks": 320,
          "midi": 59,
          "name": "B3",
          "ticks": 184320,
          "time": 287.981568,
          "velocity": 0.9212598425196851
        },
        {
          "duration": 0.21873600000003535,
          "durationTicks": 140,
          "midi": 66,
          "name": "F#4",
          "ticks": 184560,
          "time": 288.356544,
          "velocity": 0.6062992125984252
        },
        {
          "duration": 0.9764999999999873,
          "durationTicks": 625,
          "midi": 69,
          "name": "A4",
          "ticks": 184680,
          "time": 288.54403199999996,
          "velocity": 0.84251968503937
        },
        {
          "duration": 0.35153999999999996,
          "durationTicks": 225,
          "midi": 66,
          "name": "F#4",
          "ticks": 185040,
          "time": 289.106496,
          "velocity": 0.6771653543307087
        },
        {
          "duration": 1.2264839999999708,
          "durationTicks": 785,
          "midi": 61,
          "name": "C#4",
          "ticks": 185280,
          "time": 289.481472,
          "velocity": 0.8503937007874016
        },
        {
          "duration": 0.4530960000000164,
          "durationTicks": 290,
          "midi": 73,
          "name": "C#5",
          "ticks": 185280,
          "time": 289.481472,
          "velocity": 0.9291338582677166
        },
        {
          "duration": 1.05462,
          "durationTicks": 675,
          "midi": 66,
          "name": "F#4",
          "ticks": 185520,
          "time": 289.856448,
          "velocity": 0.5748031496062992
        },
        {
          "duration": 0.914004000000034,
          "durationTicks": 585,
          "midi": 69,
          "name": "A4",
          "ticks": 185640,
          "time": 290.043936,
          "velocity": 0.8031496062992126
        },
        {
          "duration": 1.2889800000000378,
          "durationTicks": 825,
          "midi": 62,
          "name": "D4",
          "ticks": 186240,
          "time": 290.98137599999995,
          "velocity": 0.8740157480314961
        },
        {
          "duration": 1.062432000000058,
          "durationTicks": 680,
          "midi": 66,
          "name": "F#4",
          "ticks": 186480,
          "time": 291.35635199999996,
          "velocity": 0.49606299212598426
        },
        {
          "duration": 0.22654799999997977,
          "durationTicks": 145,
          "midi": 69,
          "name": "A4",
          "ticks": 186600,
          "time": 291.54384,
          "velocity": 0.7322834645669292
        },
        {
          "duration": 0.7733880000000113,
          "durationTicks": 495,
          "midi": 69,
          "name": "A4",
          "ticks": 186840,
          "time": 291.918816,
          "velocity": 0.8503937007874016
        },
        {
          "duration": 1.296792000000039,
          "durationTicks": 830,
          "midi": 61,
          "name": "C#4",
          "ticks": 187200,
          "time": 292.48127999999997,
          "velocity": 0.8740157480314961
        },
        {
          "duration": 1.1014920000000075,
          "durationTicks": 705,
          "midi": 66,
          "name": "F#4",
          "ticks": 187440,
          "time": 292.856256,
          "velocity": 0.49606299212598426
        },
        {
          "duration": 0.8749439999999709,
          "durationTicks": 560,
          "midi": 69,
          "name": "A4",
          "ticks": 187560,
          "time": 293.043744,
          "velocity": 0.7952755905511811
        },
        {
          "duration": 1.1561760000000163,
          "durationTicks": 740,
          "midi": 59,
          "name": "B3",
          "ticks": 188160,
          "time": 293.981184,
          "velocity": 0.8740157480314961
        },
        {
          "duration": 0.8280720000000201,
          "durationTicks": 530,
          "midi": 66,
          "name": "F#4",
          "ticks": 188400,
          "time": 294.35616,
          "velocity": 0.5275590551181102
        },
        {
          "duration": 0.6327720000000454,
          "durationTicks": 405,
          "midi": 69,
          "name": "A4",
          "ticks": 188520,
          "time": 294.54364799999996,
          "velocity": 0.7952755905511811
        },
        {
          "duration": 1.288979999999981,
          "durationTicks": 825,
          "midi": 61,
          "name": "C#4",
          "ticks": 189120,
          "time": 295.481088,
          "velocity": 0.8740157480314961
        },
        {
          "duration": 1.0936800000000062,
          "durationTicks": 700,
          "midi": 62,
          "name": "D4",
          "ticks": 189240,
          "time": 295.668576,
          "velocity": 0.7795275590551181
        },
        {
          "duration": 0.9296279999999797,
          "durationTicks": 595,
          "midi": 64,
          "name": "E4",
          "ticks": 189360,
          "time": 295.856064,
          "velocity": 0.7322834645669292
        },
        {
          "duration": 0.76557600000001,
          "durationTicks": 490,
          "midi": 67,
          "name": "G4",
          "ticks": 189480,
          "time": 296.043552,
          "velocity": 0.7795275590551181
        }
      ]
    }
  ]
}