{
    "header": {
      "keySignatures": [
        {
          "key": "F",
          "scale": "major",
          "ticks": 0
        }
      ],
      "meta": [],
      "name": "",
      "ppq": 480,
      "tempos": [
        {
          "bpm": 89.9999550000225,
          "ticks": 0
        }
      ],
      "timeSignatures": [
        {
          "ticks": 0,
          "timeSignature": [
            6,
            8
          ],
          "measures": 0
        }
      ]
    },
    "tracks": [
      {
        "channel": 0,
        "controlChanges": {},
        "pitchBends": [],
        "instrument": {
          "family": "piano",
          "number": 0,
          "name": "acoustic grand piano"
        },
        "name": "Recorder",
        "notes": [],
        "endOfTrackTicks": 48240
      },
      {
        "channel": 0,
        "controlChanges": {
          "7": [
            {
              "number": 7,
              "ticks": 0,
              "time": 0,
              "value": 1
            }
          ],
          "10": [
            {
              "number": 10,
              "ticks": 0,
              "time": 0,
              "value": 0.5039370078740157
            }
          ]
        },
        "pitchBends": [],
        "instrument": {
          "family": "pipe",
          "number": 74,
          "name": "recorder"
        },
        "name": "",
        "notes": [
          {
            "duration": 0.33333350000000017,
            "durationTicks": 240,
            "midi": 74,
            "name": "D5",
            "ticks": 1200,
            "time": 1.6666675,
            "velocity": 0.5905511811023622
          },
          {
            "duration": 0.6666669999999999,
            "durationTicks": 480,
            "midi": 77,
            "name": "F5",
            "ticks": 1440,
            "time": 2.000001,
            "velocity": 0.5905511811023622
          },
          {
            "duration": 0.33333350000000017,
            "durationTicks": 240,
            "midi": 79,
            "name": "G5",
            "ticks": 1920,
            "time": 2.666668,
            "velocity": 0.5905511811023622
          },
          {
            "duration": 0.5000002499999998,
            "durationTicks": 360,
            "midi": 81,
            "name": "A5",
            "ticks": 2160,
            "time": 3.0000015,
            "velocity": 0.5905511811023622
          },
          {
            "duration": 0.16666675000000009,
            "durationTicks": 120,
            "midi": 82,
            "name": "A#5",
            "ticks": 2520,
            "time": 3.50000175,
            "velocity": 0.5905511811023622
          },
          {
            "duration": 0.33333350000000017,
            "durationTicks": 240,
            "midi": 81,
            "name": "A5",
            "ticks": 2640,
            "time": 3.6666685,
            "velocity": 0.5905511811023622
          },
          {
            "duration": 0.6666669999999995,
            "durationTicks": 480,
            "midi": 79,
            "name": "G5",
            "ticks": 2880,
            "time": 4.000002,
            "velocity": 0.5905511811023622
          },
          {
            "duration": 0.33333350000000017,
            "durationTicks": 240,
            "midi": 76,
            "name": "E5",
            "ticks": 3360,
            "time": 4.666669,
            "velocity": 0.5905511811023622
          },
          {
            "duration": 0.5000002500000003,
            "durationTicks": 360,
            "midi": 72,
            "name": "C5",
            "ticks": 3600,
            "time": 5.0000025,
            "velocity": 0.5905511811023622
          },
          {
            "duration": 0.16666675000000009,
            "durationTicks": 120,
            "midi": 74,
            "name": "D5",
            "ticks": 3960,
            "time": 5.50000275,
            "velocity": 0.5905511811023622
          },
          {
            "duration": 0.33333350000000017,
            "durationTicks": 240,
            "midi": 76,
            "name": "E5",
            "ticks": 4080,
            "time": 5.6666695,
            "velocity": 0.5905511811023622
          },
          {
            "duration": 0.6666669999999995,
            "durationTicks": 480,
            "midi": 77,
            "name": "F5",
            "ticks": 4320,
            "time": 6.000003,
            "velocity": 0.5905511811023622
          },
          {
            "duration": 0.33333350000000017,
            "durationTicks": 240,
            "midi": 74,
            "name": "D5",
            "ticks": 4800,
            "time": 6.66667,
            "velocity": 0.5905511811023622
          },
          {
            "duration": 0.5000002500000003,
            "durationTicks": 360,
            "midi": 74,
            "name": "D5",
            "ticks": 5040,
            "time": 7.0000035,
            "velocity": 0.5905511811023622
          },
          {
            "duration": 0.16666675000000009,
            "durationTicks": 120,
            "midi": 73,
            "name": "C#5",
            "ticks": 5400,
            "time": 7.50000375,
            "velocity": 0.5905511811023622
          },
          {
            "duration": 0.33333350000000017,
            "durationTicks": 240,
            "midi": 74,
            "name": "D5",
            "ticks": 5520,
            "time": 7.6666705,
            "velocity": 0.5905511811023622
          },
          {
            "duration": 0.6666670000000003,
            "durationTicks": 480,
            "midi": 76,
            "name": "E5",
            "ticks": 5760,
            "time": 8.000004,
            "velocity": 0.5905511811023622
          },
          {
            "duration": 0.3333334999999984,
            "durationTicks": 240,
            "midi": 73,
            "name": "C#5",
            "ticks": 6240,
            "time": 8.666671000000001,
            "velocity": 0.5905511811023622
          },
          {
            "duration": 0.6666670000000003,
            "durationTicks": 480,
            "midi": 69,
            "name": "A4",
            "ticks": 6480,
            "time": 9.0000045,
            "velocity": 0.5905511811023622
          },
          {
            "duration": 0.33333350000000017,
            "durationTicks": 240,
            "midi": 74,
            "name": "D5",
            "ticks": 6960,
            "time": 9.6666715,
            "velocity": 0.5905511811023622
          },
          {
            "duration": 0.6666670000000003,
            "durationTicks": 480,
            "midi": 77,
            "name": "F5",
            "ticks": 7200,
            "time": 10.000005,
            "velocity": 0.5905511811023622
          },
          {
            "duration": 0.33333350000000017,
            "durationTicks": 240,
            "midi": 79,
            "name": "G5",
            "ticks": 7680,
            "time": 10.666672,
            "velocity": 0.5905511811023622
          },
          {
            "duration": 0.5000002499999994,
            "durationTicks": 360,
            "midi": 81,
            "name": "A5",
            "ticks": 7920,
            "time": 11.0000055,
            "velocity": 0.5905511811023622
          },
          {
            "duration": 0.16666675000000097,
            "durationTicks": 120,
            "midi": 82,
            "name": "A#5",
            "ticks": 8280,
            "time": 11.50000575,
            "velocity": 0.5905511811023622
          },
          {
            "duration": 0.33333350000000017,
            "durationTicks": 240,
            "midi": 81,
            "name": "A5",
            "ticks": 8400,
            "time": 11.6666725,
            "velocity": 0.5905511811023622
          },
          {
            "duration": 0.6666669999999986,
            "durationTicks": 480,
            "midi": 79,
            "name": "G5",
            "ticks": 8640,
            "time": 12.000006,
            "velocity": 0.5905511811023622
          },
          {
            "duration": 0.33333350000000017,
            "durationTicks": 240,
            "midi": 76,
            "name": "E5",
            "ticks": 9120,
            "time": 12.666673,
            "velocity": 0.5905511811023622
          },
          {
            "duration": 0.5000002500000011,
            "durationTicks": 360,
            "midi": 72,
            "name": "C5",
            "ticks": 9360,
            "time": 13.0000065,
            "velocity": 0.5905511811023622
          },
          {
            "duration": 0.1666667499999992,
            "durationTicks": 120,
            "midi": 74,
            "name": "D5",
            "ticks": 9720,
            "time": 13.50000675,
            "velocity": 0.5905511811023622
          },
          {
            "duration": 0.33333350000000017,
            "durationTicks": 240,
            "midi": 76,
            "name": "E5",
            "ticks": 9840,
            "time": 13.6666735,
            "velocity": 0.5905511811023622
          },
          {
            "duration": 0.5000002499999994,
            "durationTicks": 360,
            "midi": 77,
            "name": "F5",
            "ticks": 10080,
            "time": 14.000007,
            "velocity": 0.5905511811023622
          },
          {
            "duration": 0.16666675000000097,
            "durationTicks": 120,
            "midi": 76,
            "name": "E5",
            "ticks": 10440,
            "time": 14.50000725,
            "velocity": 0.5905511811023622
          },
          {
            "duration": 0.33333350000000017,
            "durationTicks": 240,
            "midi": 74,
            "name": "D5",
            "ticks": 10560,
            "time": 14.666674,
            "velocity": 0.5905511811023622
          },
          {
            "duration": 0.5000002499999994,
            "durationTicks": 360,
            "midi": 73,
            "name": "C#5",
            "ticks": 10800,
            "time": 15.0000075,
            "velocity": 0.5905511811023622
          },
          {
            "duration": 0.16666675000000097,
            "durationTicks": 120,
            "midi": 71,
            "name": "B4",
            "ticks": 11160,
            "time": 15.50000775,
            "velocity": 0.5905511811023622
          },
          {
            "duration": 0.33333350000000017,
            "durationTicks": 240,
            "midi": 73,
            "name": "C#5",
            "ticks": 11280,
            "time": 15.666674500000001,
            "velocity": 0.5905511811023622
          },
          {
            "duration": 1.0000004999999987,
            "durationTicks": 720,
            "midi": 74,
            "name": "D5",
            "ticks": 11520,
            "time": 16.000008,
            "velocity": 0.5905511811023622
          },
          {
            "duration": 1.0000004999999987,
            "durationTicks": 720,
            "midi": 74,
            "name": "D5",
            "ticks": 12240,
            "time": 17.0000085,
            "velocity": 0.5905511811023622
          },
          {
            "duration": 1.0000005000000023,
            "durationTicks": 720,
            "midi": 84,
            "name": "C6",
            "ticks": 12960,
            "time": 18.000009,
            "velocity": 0.5905511811023622
          },
          {
            "duration": 0.5000002499999994,
            "durationTicks": 360,
            "midi": 84,
            "name": "C6",
            "ticks": 13680,
            "time": 19.0000095,
            "velocity": 0.5905511811023622
          },
          {
            "duration": 0.16666675000000097,
            "durationTicks": 120,
            "midi": 83,
            "name": "B5",
            "ticks": 14040,
            "time": 19.50000975,
            "velocity": 0.5905511811023622
          },
          {
            "duration": 0.3333334999999984,
            "durationTicks": 240,
            "midi": 81,
            "name": "A5",
            "ticks": 14160,
            "time": 19.6666765,
            "velocity": 0.5905511811023622
          },
          {
            "duration": 0.6666670000000003,
            "durationTicks": 480,
            "midi": 79,
            "name": "G5",
            "ticks": 14400,
            "time": 20.00001,
            "velocity": 0.5905511811023622
          },
          {
            "duration": 0.33333350000000195,
            "durationTicks": 240,
            "midi": 76,
            "name": "E5",
            "ticks": 14880,
            "time": 20.666677,
            "velocity": 0.5905511811023622
          },
          {
            "duration": 0.5000002499999994,
            "durationTicks": 360,
            "midi": 72,
            "name": "C5",
            "ticks": 15120,
            "time": 21.000010500000002,
            "velocity": 0.5905511811023622
          },
          {
            "duration": 0.16666674999999742,
            "durationTicks": 120,
            "midi": 74,
            "name": "D5",
            "ticks": 15480,
            "time": 21.50001075,
            "velocity": 0.5905511811023622
          },
          {
            "duration": 0.33333350000000195,
            "durationTicks": 240,
            "midi": 76,
            "name": "E5",
            "ticks": 15600,
            "time": 21.6666775,
            "velocity": 0.5905511811023622
          },
          {
            "duration": 0.6666670000000003,
            "durationTicks": 480,
            "midi": 77,
            "name": "F5",
            "ticks": 15840,
            "time": 22.000011,
            "velocity": 0.5905511811023622
          },
          {
            "duration": 0.3333334999999984,
            "durationTicks": 240,
            "midi": 74,
            "name": "D5",
            "ticks": 16320,
            "time": 22.666678,
            "velocity": 0.5905511811023622
          },
          {
            "duration": 0.5000002499999994,
            "durationTicks": 360,
            "midi": 74,
            "name": "D5",
            "ticks": 16560,
            "time": 23.0000115,
            "velocity": 0.5905511811023622
          },
          {
            "duration": 0.16666675000000097,
            "durationTicks": 120,
            "midi": 73,
            "name": "C#5",
            "ticks": 16920,
            "time": 23.50001175,
            "velocity": 0.5905511811023622
          },
          {
            "duration": 0.33333350000000195,
            "durationTicks": 240,
            "midi": 74,
            "name": "D5",
            "ticks": 17040,
            "time": 23.6666785,
            "velocity": 0.5905511811023622
          },
          {
            "duration": 0.6666670000000003,
            "durationTicks": 480,
            "midi": 76,
            "name": "E5",
            "ticks": 17280,
            "time": 24.000012,
            "velocity": 0.5905511811023622
          },
          {
            "duration": 0.3333334999999984,
            "durationTicks": 240,
            "midi": 73,
            "name": "C#5",
            "ticks": 17760,
            "time": 24.666679000000002,
            "velocity": 0.5905511811023622
          },
          {
            "duration": 1.0000004999999987,
            "durationTicks": 720,
            "midi": 69,
            "name": "A4",
            "ticks": 18000,
            "time": 25.0000125,
            "velocity": 0.5905511811023622
          },
          {
            "duration": 1.0000005000000023,
            "durationTicks": 720,
            "midi": 84,
            "name": "C6",
            "ticks": 18720,
            "time": 26.000013,
            "velocity": 0.5905511811023622
          },
          {
            "duration": 0.5000002499999994,
            "durationTicks": 360,
            "midi": 84,
            "name": "C6",
            "ticks": 19440,
            "time": 27.0000135,
            "velocity": 0.5905511811023622
          },
          {
            "duration": 0.16666675000000097,
            "durationTicks": 120,
            "midi": 83,
            "name": "B5",
            "ticks": 19800,
            "time": 27.50001375,
            "velocity": 0.5905511811023622
          },
          {
            "duration": 0.3333334999999984,
            "durationTicks": 240,
            "midi": 81,
            "name": "A5",
            "ticks": 19920,
            "time": 27.666680500000002,
            "velocity": 0.5905511811023622
          },
          {
            "duration": 0.6666670000000003,
            "durationTicks": 480,
            "midi": 79,
            "name": "G5",
            "ticks": 20160,
            "time": 28.000014,
            "velocity": 0.5905511811023622
          },
          {
            "duration": 0.3333334999999984,
            "durationTicks": 240,
            "midi": 76,
            "name": "E5",
            "ticks": 20640,
            "time": 28.666681,
            "velocity": 0.5905511811023622
          },
          {
            "duration": 0.5000002500000029,
            "durationTicks": 360,
            "midi": 72,
            "name": "C5",
            "ticks": 20880,
            "time": 29.0000145,
            "velocity": 0.5905511811023622
          },
          {
            "duration": 0.16666674999999742,
            "durationTicks": 120,
            "midi": 74,
            "name": "D5",
            "ticks": 21240,
            "time": 29.500014750000002,
            "velocity": 0.5905511811023622
          },
          {
            "duration": 0.33333350000000195,
            "durationTicks": 240,
            "midi": 76,
            "name": "E5",
            "ticks": 21360,
            "time": 29.6666815,
            "velocity": 0.5905511811023622
          },
          {
            "duration": 0.5000002499999994,
            "durationTicks": 360,
            "midi": 77,
            "name": "F5",
            "ticks": 21600,
            "time": 30.000015,
            "velocity": 0.5905511811023622
          },
          {
            "duration": 0.16666675000000097,
            "durationTicks": 120,
            "midi": 76,
            "name": "E5",
            "ticks": 21960,
            "time": 30.50001525,
            "velocity": 0.5905511811023622
          },
          {
            "duration": 0.3333334999999984,
            "durationTicks": 240,
            "midi": 74,
            "name": "D5",
            "ticks": 22080,
            "time": 30.666682,
            "velocity": 0.5905511811023622
          },
          {
            "duration": 0.5000002499999994,
            "durationTicks": 360,
            "midi": 73,
            "name": "C#5",
            "ticks": 22320,
            "time": 31.0000155,
            "velocity": 0.5905511811023622
          },
          {
            "duration": 0.16666675000000097,
            "durationTicks": 120,
            "midi": 70,
            "name": "A#4",
            "ticks": 22680,
            "time": 31.50001575,
            "velocity": 0.5905511811023622
          },
          {
            "duration": 0.33333350000000195,
            "durationTicks": 240,
            "midi": 73,
            "name": "C#5",
            "ticks": 22800,
            "time": 31.6666825,
            "velocity": 0.5905511811023622
          },
          {
            "duration": 1.0000004999999987,
            "durationTicks": 720,
            "midi": 74,
            "name": "D5",
            "ticks": 23040,
            "time": 32.000016,
            "velocity": 0.5905511811023622
          },
          {
            "duration": 0.6666669999999968,
            "durationTicks": 480,
            "midi": 74,
            "name": "D5",
            "ticks": 23760,
            "time": 33.0000165,
            "velocity": 0.5905511811023622
          },
          {
            "duration": 0.33333350000000195,
            "durationTicks": 240,
            "midi": 74,
            "name": "D5",
            "ticks": 24240,
            "time": 33.6666835,
            "velocity": 0.5905511811023622
          },
          {
            "duration": 0.6666670000000039,
            "durationTicks": 480,
            "midi": 77,
            "name": "F5",
            "ticks": 24480,
            "time": 34.000017,
            "velocity": 0.5905511811023622
          },
          {
            "duration": 0.33333349999999484,
            "durationTicks": 240,
            "midi": 79,
            "name": "G5",
            "ticks": 24960,
            "time": 34.666684000000004,
            "velocity": 0.5905511811023622
          },
          {
            "duration": 0.5000002499999994,
            "durationTicks": 360,
            "midi": 81,
            "name": "A5",
            "ticks": 25200,
            "time": 35.0000175,
            "velocity": 0.5905511811023622
          },
          {
            "duration": 0.16666675000000453,
            "durationTicks": 120,
            "midi": 82,
            "name": "A#5",
            "ticks": 25560,
            "time": 35.50001775,
            "velocity": 0.5905511811023622
          },
          {
            "duration": 0.33333349999999484,
            "durationTicks": 240,
            "midi": 81,
            "name": "A5",
            "ticks": 25680,
            "time": 35.6666845,
            "velocity": 0.5905511811023622
          },
          {
            "duration": 0.6666670000000039,
            "durationTicks": 480,
            "midi": 79,
            "name": "G5",
            "ticks": 25920,
            "time": 36.000018,
            "velocity": 0.5905511811023622
          },
          {
            "duration": 0.33333350000000195,
            "durationTicks": 240,
            "midi": 76,
            "name": "E5",
            "ticks": 26400,
            "time": 36.666685,
            "velocity": 0.5905511811023622
          },
          {
            "duration": 0.5000002499999994,
            "durationTicks": 360,
            "midi": 72,
            "name": "C5",
            "ticks": 26640,
            "time": 37.0000185,
            "velocity": 0.5905511811023622
          },
          {
            "duration": 0.16666674999999742,
            "durationTicks": 120,
            "midi": 74,
            "name": "D5",
            "ticks": 27000,
            "time": 37.50001875,
            "velocity": 0.5905511811023622
          },
          {
            "duration": 0.33333350000000195,
            "durationTicks": 240,
            "midi": 76,
            "name": "E5",
            "ticks": 27120,
            "time": 37.6666855,
            "velocity": 0.5905511811023622
          },
          {
            "duration": 0.6666669999999968,
            "durationTicks": 480,
            "midi": 77,
            "name": "F5",
            "ticks": 27360,
            "time": 38.000019,
            "velocity": 0.5905511811023622
          },
          {
            "duration": 0.33333350000000195,
            "durationTicks": 240,
            "midi": 74,
            "name": "D5",
            "ticks": 27840,
            "time": 38.666686,
            "velocity": 0.5905511811023622
          },
          {
            "duration": 0.5000002499999994,
            "durationTicks": 360,
            "midi": 74,
            "name": "D5",
            "ticks": 28080,
            "time": 39.0000195,
            "velocity": 0.5905511811023622
          },
          {
            "duration": 0.16666674999999742,
            "durationTicks": 120,
            "midi": 73,
            "name": "C#5",
            "ticks": 28440,
            "time": 39.50001975,
            "velocity": 0.5905511811023622
          },
          {
            "duration": 0.33333350000000195,
            "durationTicks": 240,
            "midi": 74,
            "name": "D5",
            "ticks": 28560,
            "time": 39.6666865,
            "velocity": 0.5905511811023622
          },
          {
            "duration": 0.6666670000000039,
            "durationTicks": 480,
            "midi": 76,
            "name": "E5",
            "ticks": 28800,
            "time": 40.00002,
            "velocity": 0.5905511811023622
          },
          {
            "duration": 0.33333349999999484,
            "durationTicks": 240,
            "midi": 73,
            "name": "C#5",
            "ticks": 29280,
            "time": 40.666687,
            "velocity": 0.5905511811023622
          },
          {
            "duration": 0.6666670000000039,
            "durationTicks": 480,
            "midi": 69,
            "name": "A4",
            "ticks": 29520,
            "time": 41.0000205,
            "velocity": 0.5905511811023622
          },
          {
            "duration": 0.33333350000000195,
            "durationTicks": 240,
            "midi": 74,
            "name": "D5",
            "ticks": 30000,
            "time": 41.6666875,
            "velocity": 0.5905511811023622
          },
          {
            "duration": 0.6666669999999968,
            "durationTicks": 480,
            "midi": 77,
            "name": "F5",
            "ticks": 30240,
            "time": 42.000021000000004,
            "velocity": 0.5905511811023622
          },
          {
            "duration": 0.33333350000000195,
            "durationTicks": 240,
            "midi": 79,
            "name": "G5",
            "ticks": 30720,
            "time": 42.666688,
            "velocity": 0.5905511811023622
          },
          {
            "duration": 0.5000002499999994,
            "durationTicks": 360,
            "midi": 81,
            "name": "A5",
            "ticks": 30960,
            "time": 43.0000215,
            "velocity": 0.5905511811023622
          },
          {
            "duration": 0.16666674999999742,
            "durationTicks": 120,
            "midi": 82,
            "name": "A#5",
            "ticks": 31320,
            "time": 43.50002175,
            "velocity": 0.5905511811023622
          },
          {
            "duration": 0.33333350000000195,
            "durationTicks": 240,
            "midi": 81,
            "name": "A5",
            "ticks": 31440,
            "time": 43.6666885,
            "velocity": 0.5905511811023622
          },
          {
            "duration": 0.6666669999999968,
            "durationTicks": 480,
            "midi": 79,
            "name": "G5",
            "ticks": 31680,
            "time": 44.000022,
            "velocity": 0.5905511811023622
          },
          {
            "duration": 0.33333350000000195,
            "durationTicks": 240,
            "midi": 76,
            "name": "E5",
            "ticks": 32160,
            "time": 44.666689,
            "velocity": 0.5905511811023622
          },
          {
            "duration": 0.5000002499999994,
            "durationTicks": 360,
            "midi": 72,
            "name": "C5",
            "ticks": 32400,
            "time": 45.0000225,
            "velocity": 0.5905511811023622
          },
          {
            "duration": 0.16666675000000453,
            "durationTicks": 120,
            "midi": 74,
            "name": "D5",
            "ticks": 32760,
            "time": 45.50002275,
            "velocity": 0.5905511811023622
          },
          {
            "duration": 0.33333349999999484,
            "durationTicks": 240,
            "midi": 76,
            "name": "E5",
            "ticks": 32880,
            "time": 45.666689500000004,
            "velocity": 0.5905511811023622
          },
          {
            "duration": 0.5000002499999994,
            "durationTicks": 360,
            "midi": 77,
            "name": "F5",
            "ticks": 33120,
            "time": 46.000023,
            "velocity": 0.5905511811023622
          },
          {
            "duration": 0.16666675000000453,
            "durationTicks": 120,
            "midi": 76,
            "name": "E5",
            "ticks": 33480,
            "time": 46.50002325,
            "velocity": 0.5905511811023622
          },
          {
            "duration": 0.33333349999999484,
            "durationTicks": 240,
            "midi": 74,
            "name": "D5",
            "ticks": 33600,
            "time": 46.66669,
            "velocity": 0.5905511811023622
          },
          {
            "duration": 0.5000002500000065,
            "durationTicks": 360,
            "midi": 73,
            "name": "C#5",
            "ticks": 33840,
            "time": 47.0000235,
            "velocity": 0.5905511811023622
          },
          {
            "duration": 0.16666674999999742,
            "durationTicks": 120,
            "midi": 71,
            "name": "B4",
            "ticks": 34200,
            "time": 47.500023750000004,
            "velocity": 0.5905511811023622
          },
          {
            "duration": 0.33333350000000195,
            "durationTicks": 240,
            "midi": 73,
            "name": "C#5",
            "ticks": 34320,
            "time": 47.6666905,
            "velocity": 0.5905511811023622
          },
          {
            "duration": 1.0000004999999987,
            "durationTicks": 720,
            "midi": 74,
            "name": "D5",
            "ticks": 34560,
            "time": 48.000024,
            "velocity": 0.5905511811023622
          },
          {
            "duration": 1.0000004999999987,
            "durationTicks": 720,
            "midi": 74,
            "name": "D5",
            "ticks": 35280,
            "time": 49.0000245,
            "velocity": 0.5905511811023622
          },
          {
            "duration": 1.0000004999999987,
            "durationTicks": 720,
            "midi": 84,
            "name": "C6",
            "ticks": 36000,
            "time": 50.000025,
            "velocity": 0.5905511811023622
          },
          {
            "duration": 0.5000002499999994,
            "durationTicks": 360,
            "midi": 84,
            "name": "C6",
            "ticks": 36720,
            "time": 51.0000255,
            "velocity": 0.5905511811023622
          },
          {
            "duration": 0.16666675000000453,
            "durationTicks": 120,
            "midi": 83,
            "name": "B5",
            "ticks": 37080,
            "time": 51.50002575,
            "velocity": 0.5905511811023622
          },
          {
            "duration": 0.33333349999999484,
            "durationTicks": 240,
            "midi": 81,
            "name": "A5",
            "ticks": 37200,
            "time": 51.6666925,
            "velocity": 0.5905511811023622
          },
          {
            "duration": 0.6666670000000039,
            "durationTicks": 480,
            "midi": 79,
            "name": "G5",
            "ticks": 37440,
            "time": 52.000026,
            "velocity": 0.5905511811023622
          },
          {
            "duration": 0.33333350000000195,
            "durationTicks": 240,
            "midi": 76,
            "name": "E5",
            "ticks": 37920,
            "time": 52.666693,
            "velocity": 0.5905511811023622
          },
          {
            "duration": 0.5000002499999994,
            "durationTicks": 360,
            "midi": 72,
            "name": "C5",
            "ticks": 38160,
            "time": 53.000026500000004,
            "velocity": 0.5905511811023622
          },
          {
            "duration": 0.16666674999999742,
            "durationTicks": 120,
            "midi": 74,
            "name": "D5",
            "ticks": 38520,
            "time": 53.50002675,
            "velocity": 0.5905511811023622
          },
          {
            "duration": 0.33333350000000195,
            "durationTicks": 240,
            "midi": 76,
            "name": "E5",
            "ticks": 38640,
            "time": 53.6666935,
            "velocity": 0.5905511811023622
          },
          {
            "duration": 0.6666669999999968,
            "durationTicks": 480,
            "midi": 77,
            "name": "F5",
            "ticks": 38880,
            "time": 54.000027,
            "velocity": 0.5905511811023622
          },
          {
            "duration": 0.33333350000000195,
            "durationTicks": 240,
            "midi": 74,
            "name": "D5",
            "ticks": 39360,
            "time": 54.666694,
            "velocity": 0.5905511811023622
          },
          {
            "duration": 0.5000002499999994,
            "durationTicks": 360,
            "midi": 74,
            "name": "D5",
            "ticks": 39600,
            "time": 55.0000275,
            "velocity": 0.5905511811023622
          },
          {
            "duration": 0.16666674999999742,
            "durationTicks": 120,
            "midi": 73,
            "name": "C#5",
            "ticks": 39960,
            "time": 55.50002775,
            "velocity": 0.5905511811023622
          },
          {
            "duration": 0.33333350000000195,
            "durationTicks": 240,
            "midi": 74,
            "name": "D5",
            "ticks": 40080,
            "time": 55.6666945,
            "velocity": 0.5905511811023622
          },
          {
            "duration": 0.6666670000000039,
            "durationTicks": 480,
            "midi": 76,
            "name": "E5",
            "ticks": 40320,
            "time": 56.000028,
            "velocity": 0.5905511811023622
          },
          {
            "duration": 0.33333349999999484,
            "durationTicks": 240,
            "midi": 73,
            "name": "C#5",
            "ticks": 40800,
            "time": 56.666695000000004,
            "velocity": 0.5905511811023622
          },
          {
            "duration": 1.0000004999999987,
            "durationTicks": 720,
            "midi": 69,
            "name": "A4",
            "ticks": 41040,
            "time": 57.0000285,
            "velocity": 0.5905511811023622
          },
          {
            "duration": 1.0000005000000058,
            "durationTicks": 720,
            "midi": 84,
            "name": "C6",
            "ticks": 41760,
            "time": 58.000029,
            "velocity": 0.5905511811023622
          },
          {
            "duration": 0.5000002499999994,
            "durationTicks": 360,
            "midi": 84,
            "name": "C6",
            "ticks": 42480,
            "time": 59.000029500000004,
            "velocity": 0.5905511811023622
          },
          {
            "duration": 0.16666674999999742,
            "durationTicks": 120,
            "midi": 83,
            "name": "B5",
            "ticks": 42840,
            "time": 59.50002975,
            "velocity": 0.5905511811023622
          },
          {
            "duration": 0.33333350000000195,
            "durationTicks": 240,
            "midi": 81,
            "name": "A5",
            "ticks": 42960,
            "time": 59.6666965,
            "velocity": 0.5905511811023622
          },
          {
            "duration": 0.6666669999999968,
            "durationTicks": 480,
            "midi": 79,
            "name": "G5",
            "ticks": 43200,
            "time": 60.00003,
            "velocity": 0.5905511811023622
          },
          {
            "duration": 0.33333350000000195,
            "durationTicks": 240,
            "midi": 76,
            "name": "E5",
            "ticks": 43680,
            "time": 60.666697,
            "velocity": 0.5905511811023622
          },
          {
            "duration": 0.5000002499999994,
            "durationTicks": 360,
            "midi": 72,
            "name": "C5",
            "ticks": 43920,
            "time": 61.0000305,
            "velocity": 0.5905511811023622
          },
          {
            "duration": 0.16666674999999742,
            "durationTicks": 120,
            "midi": 74,
            "name": "D5",
            "ticks": 44280,
            "time": 61.50003075,
            "velocity": 0.5905511811023622
          },
          {
            "duration": 0.33333350000000195,
            "durationTicks": 240,
            "midi": 76,
            "name": "E5",
            "ticks": 44400,
            "time": 61.6666975,
            "velocity": 0.5905511811023622
          },
          {
            "duration": 0.5000002499999994,
            "durationTicks": 360,
            "midi": 77,
            "name": "F5",
            "ticks": 44640,
            "time": 62.000031,
            "velocity": 0.5905511811023622
          },
          {
            "duration": 0.16666675000000453,
            "durationTicks": 120,
            "midi": 76,
            "name": "E5",
            "ticks": 45000,
            "time": 62.50003125,
            "velocity": 0.5905511811023622
          },
          {
            "duration": 0.33333349999999484,
            "durationTicks": 240,
            "midi": 74,
            "name": "D5",
            "ticks": 45120,
            "time": 62.666698000000004,
            "velocity": 0.5905511811023622
          },
          {
            "duration": 0.5000002499999994,
            "durationTicks": 360,
            "midi": 73,
            "name": "C#5",
            "ticks": 45360,
            "time": 63.0000315,
            "velocity": 0.5905511811023622
          },
          {
            "duration": 0.16666675000000453,
            "durationTicks": 120,
            "midi": 70,
            "name": "A#4",
            "ticks": 45720,
            "time": 63.50003175,
            "velocity": 0.5905511811023622
          },
          {
            "duration": 0.33333350000000195,
            "durationTicks": 240,
            "midi": 73,
            "name": "C#5",
            "ticks": 45840,
            "time": 63.6666985,
            "velocity": 0.5905511811023622
          },
          {
            "duration": 1.0000004999999987,
            "durationTicks": 720,
            "midi": 74,
            "name": "D5",
            "ticks": 46080,
            "time": 64.000032,
            "velocity": 0.5905511811023622
          },
          {
            "duration": 2.0000009999999975,
            "durationTicks": 1440,
            "midi": 74,
            "name": "D5",
            "ticks": 46800,
            "time": 65.0000325,
            "velocity": 0.5905511811023622
          }
        ]
      },
      {
        "channel": 0,
        "controlChanges": {},
        "pitchBends": [],
        "instrument": {
          "family": "piano",
          "number": 0,
          "name": "acoustic grand piano"
        },
        "name": "Recorder-2",
        "notes": [],
        "endOfTrackTicks": 48240
      },
      {
        "channel": 1,
        "controlChanges": {
          "7": [
            {
              "number": 7,
              "ticks": 0,
              "time": 0,
              "value": 1
            }
          ],
          "10": [
            {
              "number": 10,
              "ticks": 0,
              "time": 0,
              "value": 0.5039370078740157
            }
          ]
        },
        "pitchBends": [],
        "instrument": {
          "family": "pipe",
          "number": 74,
          "name": "recorder"
        },
        "name": "",
        "notes": [
          {
            "duration": 0.33333350000000017,
            "durationTicks": 240,
            "midi": 74,
            "name": "D5",
            "ticks": 1200,
            "time": 1.6666675,
            "velocity": 0.5905511811023622
          },
          {
            "duration": 0.6666669999999999,
            "durationTicks": 480,
            "midi": 74,
            "name": "D5",
            "ticks": 1440,
            "time": 2.000001,
            "velocity": 0.5905511811023622
          },
          {
            "duration": 0.33333350000000017,
            "durationTicks": 240,
            "midi": 72,
            "name": "C5",
            "ticks": 1920,
            "time": 2.666668,
            "velocity": 0.5905511811023622
          },
          {
            "duration": 0.6666669999999999,
            "durationTicks": 480,
            "midi": 72,
            "name": "C5",
            "ticks": 2160,
            "time": 3.0000015,
            "velocity": 0.5905511811023622
          },
          {
            "duration": 0.33333350000000017,
            "durationTicks": 240,
            "midi": 77,
            "name": "F5",
            "ticks": 2640,
            "time": 3.6666685,
            "velocity": 0.5905511811023622
          },
          {
            "duration": 0.6666669999999995,
            "durationTicks": 480,
            "midi": 76,
            "name": "E5",
            "ticks": 2880,
            "time": 4.000002,
            "velocity": 0.5905511811023622
          },
          {
            "duration": 0.33333350000000017,
            "durationTicks": 240,
            "midi": 72,
            "name": "C5",
            "ticks": 3360,
            "time": 4.666669,
            "velocity": 0.5905511811023622
          },
          {
            "duration": 0.6666670000000003,
            "durationTicks": 480,
            "midi": 72,
            "name": "C5",
            "ticks": 3600,
            "time": 5.0000025,
            "velocity": 0.5905511811023622
          },
          {
            "duration": 0.33333350000000017,
            "durationTicks": 240,
            "midi": 72,
            "name": "C5",
            "ticks": 4080,
            "time": 5.6666695,
            "velocity": 0.5905511811023622
          },
          {
            "duration": 0.6666669999999995,
            "durationTicks": 480,
            "midi": 69,
            "name": "A4",
            "ticks": 4320,
            "time": 6.000003,
            "velocity": 0.5905511811023622
          },
          {
            "duration": 0.33333350000000017,
            "durationTicks": 240,
            "midi": 69,
            "name": "A4",
            "ticks": 4800,
            "time": 6.66667,
            "velocity": 0.5905511811023622
          },
          {
            "duration": 0.6666670000000003,
            "durationTicks": 480,
            "midi": 67,
            "name": "G4",
            "ticks": 5040,
            "time": 7.0000035,
            "velocity": 0.5905511811023622
          },
          {
            "duration": 0.33333350000000017,
            "durationTicks": 240,
            "midi": 74,
            "name": "D5",
            "ticks": 5520,
            "time": 7.6666705,
            "velocity": 0.5905511811023622
          },
          {
            "duration": 0.6666670000000003,
            "durationTicks": 480,
            "midi": 73,
            "name": "C#5",
            "ticks": 5760,
            "time": 8.000004,
            "velocity": 0.5905511811023622
          },
          {
            "duration": 0.3333334999999984,
            "durationTicks": 240,
            "midi": 69,
            "name": "A4",
            "ticks": 6240,
            "time": 8.666671000000001,
            "velocity": 0.5905511811023622
          },
          {
            "duration": 0.6666670000000003,
            "durationTicks": 480,
            "midi": 69,
            "name": "A4",
            "ticks": 6480,
            "time": 9.0000045,
            "velocity": 0.5905511811023622
          },
          {
            "duration": 0.33333350000000017,
            "durationTicks": 240,
            "midi": 74,
            "name": "D5",
            "ticks": 6960,
            "time": 9.6666715,
            "velocity": 0.5905511811023622
          },
          {
            "duration": 0.6666670000000003,
            "durationTicks": 480,
            "midi": 74,
            "name": "D5",
            "ticks": 7200,
            "time": 10.000005,
            "velocity": 0.5905511811023622
          },
          {
            "duration": 0.33333350000000017,
            "durationTicks": 240,
            "midi": 72,
            "name": "C5",
            "ticks": 7680,
            "time": 10.666672,
            "velocity": 0.5905511811023622
          },
          {
            "duration": 0.6666670000000003,
            "durationTicks": 480,
            "midi": 72,
            "name": "C5",
            "ticks": 7920,
            "time": 11.0000055,
            "velocity": 0.5905511811023622
          },
          {
            "duration": 0.33333350000000017,
            "durationTicks": 240,
            "midi": 77,
            "name": "F5",
            "ticks": 8400,
            "time": 11.6666725,
            "velocity": 0.5905511811023622
          },
          {
            "duration": 0.6666669999999986,
            "durationTicks": 480,
            "midi": 76,
            "name": "E5",
            "ticks": 8640,
            "time": 12.000006,
            "velocity": 0.5905511811023622
          },
          {
            "duration": 0.33333350000000017,
            "durationTicks": 240,
            "midi": 72,
            "name": "C5",
            "ticks": 9120,
            "time": 12.666673,
            "velocity": 0.5905511811023622
          },
          {
            "duration": 0.6666670000000003,
            "durationTicks": 480,
            "midi": 72,
            "name": "C5",
            "ticks": 9360,
            "time": 13.0000065,
            "velocity": 0.5905511811023622
          },
          {
            "duration": 0.33333350000000017,
            "durationTicks": 240,
            "midi": 72,
            "name": "C5",
            "ticks": 9840,
            "time": 13.6666735,
            "velocity": 0.5905511811023622
          },
          {
            "duration": 0.6666670000000003,
            "durationTicks": 480,
            "midi": 69,
            "name": "A4",
            "ticks": 10080,
            "time": 14.000007,
            "velocity": 0.5905511811023622
          },
          {
            "duration": 0.33333350000000017,
            "durationTicks": 240,
            "midi": 70,
            "name": "A#4",
            "ticks": 10560,
            "time": 14.666674,
            "velocity": 0.5905511811023622
          },
          {
            "duration": 0.6666670000000003,
            "durationTicks": 480,
            "midi": 69,
            "name": "A4",
            "ticks": 10800,
            "time": 15.0000075,
            "velocity": 0.5905511811023622
          },
          {
            "duration": 0.33333350000000017,
            "durationTicks": 240,
            "midi": 69,
            "name": "A4",
            "ticks": 11280,
            "time": 15.666674500000001,
            "velocity": 0.5905511811023622
          },
          {
            "duration": 1.0000004999999987,
            "durationTicks": 720,
            "midi": 69,
            "name": "A4",
            "ticks": 11520,
            "time": 16.000008,
            "velocity": 0.5905511811023622
          },
          {
            "duration": 1.0000004999999987,
            "durationTicks": 720,
            "midi": 69,
            "name": "A4",
            "ticks": 12240,
            "time": 17.0000085,
            "velocity": 0.5905511811023622
          },
          {
            "duration": 1.0000005000000023,
            "durationTicks": 720,
            "midi": 76,
            "name": "E5",
            "ticks": 12960,
            "time": 18.000009,
            "velocity": 0.5905511811023622
          },
          {
            "duration": 0.5000002499999994,
            "durationTicks": 360,
            "midi": 81,
            "name": "A5",
            "ticks": 13680,
            "time": 19.0000095,
            "velocity": 0.5905511811023622
          },
          {
            "duration": 0.16666675000000097,
            "durationTicks": 120,
            "midi": 79,
            "name": "G5",
            "ticks": 14040,
            "time": 19.50000975,
            "velocity": 0.5905511811023622
          },
          {
            "duration": 0.3333334999999984,
            "durationTicks": 240,
            "midi": 77,
            "name": "F5",
            "ticks": 14160,
            "time": 19.6666765,
            "velocity": 0.5905511811023622
          },
          {
            "duration": 0.6666670000000003,
            "durationTicks": 480,
            "midi": 76,
            "name": "E5",
            "ticks": 14400,
            "time": 20.00001,
            "velocity": 0.5905511811023622
          },
          {
            "duration": 0.33333350000000195,
            "durationTicks": 240,
            "midi": 72,
            "name": "C5",
            "ticks": 14880,
            "time": 20.666677,
            "velocity": 0.5905511811023622
          },
          {
            "duration": 0.6666669999999968,
            "durationTicks": 480,
            "midi": 72,
            "name": "C5",
            "ticks": 15120,
            "time": 21.000010500000002,
            "velocity": 0.5905511811023622
          },
          {
            "duration": 0.33333350000000195,
            "durationTicks": 240,
            "midi": 72,
            "name": "C5",
            "ticks": 15600,
            "time": 21.6666775,
            "velocity": 0.5905511811023622
          },
          {
            "duration": 0.6666670000000003,
            "durationTicks": 480,
            "midi": 69,
            "name": "A4",
            "ticks": 15840,
            "time": 22.000011,
            "velocity": 0.5905511811023622
          },
          {
            "duration": 0.3333334999999984,
            "durationTicks": 240,
            "midi": 69,
            "name": "A4",
            "ticks": 16320,
            "time": 22.666678,
            "velocity": 0.5905511811023622
          },
          {
            "duration": 0.6666670000000003,
            "durationTicks": 480,
            "midi": 67,
            "name": "G4",
            "ticks": 16560,
            "time": 23.0000115,
            "velocity": 0.5905511811023622
          },
          {
            "duration": 0.33333350000000195,
            "durationTicks": 240,
            "midi": 74,
            "name": "D5",
            "ticks": 17040,
            "time": 23.6666785,
            "velocity": 0.5905511811023622
          },
          {
            "duration": 0.6666670000000003,
            "durationTicks": 480,
            "midi": 73,
            "name": "C#5",
            "ticks": 17280,
            "time": 24.000012,
            "velocity": 0.5905511811023622
          },
          {
            "duration": 0.3333334999999984,
            "durationTicks": 240,
            "midi": 69,
            "name": "A4",
            "ticks": 17760,
            "time": 24.666679000000002,
            "velocity": 0.5905511811023622
          },
          {
            "duration": 1.0000004999999987,
            "durationTicks": 720,
            "midi": 69,
            "name": "A4",
            "ticks": 18000,
            "time": 25.0000125,
            "velocity": 0.5905511811023622
          },
          {
            "duration": 1.0000005000000023,
            "durationTicks": 720,
            "midi": 76,
            "name": "E5",
            "ticks": 18720,
            "time": 26.000013,
            "velocity": 0.5905511811023622
          },
          {
            "duration": 0.5000002499999994,
            "durationTicks": 360,
            "midi": 81,
            "name": "A5",
            "ticks": 19440,
            "time": 27.0000135,
            "velocity": 0.5905511811023622
          },
          {
            "duration": 0.16666675000000097,
            "durationTicks": 120,
            "midi": 79,
            "name": "G5",
            "ticks": 19800,
            "time": 27.50001375,
            "velocity": 0.5905511811023622
          },
          {
            "duration": 0.3333334999999984,
            "durationTicks": 240,
            "midi": 77,
            "name": "F5",
            "ticks": 19920,
            "time": 27.666680500000002,
            "velocity": 0.5905511811023622
          },
          {
            "duration": 0.6666670000000003,
            "durationTicks": 480,
            "midi": 76,
            "name": "E5",
            "ticks": 20160,
            "time": 28.000014,
            "velocity": 0.5905511811023622
          },
          {
            "duration": 0.3333334999999984,
            "durationTicks": 240,
            "midi": 72,
            "name": "C5",
            "ticks": 20640,
            "time": 28.666681,
            "velocity": 0.5905511811023622
          },
          {
            "duration": 0.6666670000000003,
            "durationTicks": 480,
            "midi": 72,
            "name": "C5",
            "ticks": 20880,
            "time": 29.0000145,
            "velocity": 0.5905511811023622
          },
          {
            "duration": 0.33333350000000195,
            "durationTicks": 240,
            "midi": 72,
            "name": "C5",
            "ticks": 21360,
            "time": 29.6666815,
            "velocity": 0.5905511811023622
          },
          {
            "duration": 0.6666670000000003,
            "durationTicks": 480,
            "midi": 69,
            "name": "A4",
            "ticks": 21600,
            "time": 30.000015,
            "velocity": 0.5905511811023622
          },
          {
            "duration": 0.3333334999999984,
            "durationTicks": 240,
            "midi": 70,
            "name": "A#4",
            "ticks": 22080,
            "time": 30.666682,
            "velocity": 0.5905511811023622
          },
          {
            "duration": 0.6666670000000003,
            "durationTicks": 480,
            "midi": 69,
            "name": "A4",
            "ticks": 22320,
            "time": 31.0000155,
            "velocity": 0.5905511811023622
          },
          {
            "duration": 0.33333350000000195,
            "durationTicks": 240,
            "midi": 69,
            "name": "A4",
            "ticks": 22800,
            "time": 31.6666825,
            "velocity": 0.5905511811023622
          },
          {
            "duration": 1.0000004999999987,
            "durationTicks": 720,
            "midi": 69,
            "name": "A4",
            "ticks": 23040,
            "time": 32.000016,
            "velocity": 0.5905511811023622
          },
          {
            "duration": 0.6666669999999968,
            "durationTicks": 480,
            "midi": 69,
            "name": "A4",
            "ticks": 23760,
            "time": 33.0000165,
            "velocity": 0.5905511811023622
          },
          {
            "duration": 0.33333350000000195,
            "durationTicks": 240,
            "midi": 74,
            "name": "D5",
            "ticks": 24240,
            "time": 33.6666835,
            "velocity": 0.5905511811023622
          },
          {
            "duration": 0.6666670000000039,
            "durationTicks": 480,
            "midi": 74,
            "name": "D5",
            "ticks": 24480,
            "time": 34.000017,
            "velocity": 0.5905511811023622
          },
          {
            "duration": 0.33333349999999484,
            "durationTicks": 240,
            "midi": 72,
            "name": "C5",
            "ticks": 24960,
            "time": 34.666684000000004,
            "velocity": 0.5905511811023622
          },
          {
            "duration": 0.6666670000000039,
            "durationTicks": 480,
            "midi": 72,
            "name": "C5",
            "ticks": 25200,
            "time": 35.0000175,
            "velocity": 0.5905511811023622
          },
          {
            "duration": 0.33333349999999484,
            "durationTicks": 240,
            "midi": 77,
            "name": "F5",
            "ticks": 25680,
            "time": 35.6666845,
            "velocity": 0.5905511811023622
          },
          {
            "duration": 0.6666670000000039,
            "durationTicks": 480,
            "midi": 76,
            "name": "E5",
            "ticks": 25920,
            "time": 36.000018,
            "velocity": 0.5905511811023622
          },
          {
            "duration": 0.33333350000000195,
            "durationTicks": 240,
            "midi": 72,
            "name": "C5",
            "ticks": 26400,
            "time": 36.666685,
            "velocity": 0.5905511811023622
          },
          {
            "duration": 0.6666669999999968,
            "durationTicks": 480,
            "midi": 72,
            "name": "C5",
            "ticks": 26640,
            "time": 37.0000185,
            "velocity": 0.5905511811023622
          },
          {
            "duration": 0.33333350000000195,
            "durationTicks": 240,
            "midi": 72,
            "name": "C5",
            "ticks": 27120,
            "time": 37.6666855,
            "velocity": 0.5905511811023622
          },
          {
            "duration": 0.6666669999999968,
            "durationTicks": 480,
            "midi": 69,
            "name": "A4",
            "ticks": 27360,
            "time": 38.000019,
            "velocity": 0.5905511811023622
          },
          {
            "duration": 0.33333350000000195,
            "durationTicks": 240,
            "midi": 69,
            "name": "A4",
            "ticks": 27840,
            "time": 38.666686,
            "velocity": 0.5905511811023622
          },
          {
            "duration": 0.6666669999999968,
            "durationTicks": 480,
            "midi": 67,
            "name": "G4",
            "ticks": 28080,
            "time": 39.0000195,
            "velocity": 0.5905511811023622
          },
          {
            "duration": 0.33333350000000195,
            "durationTicks": 240,
            "midi": 74,
            "name": "D5",
            "ticks": 28560,
            "time": 39.6666865,
            "velocity": 0.5905511811023622
          },
          {
            "duration": 0.6666670000000039,
            "durationTicks": 480,
            "midi": 73,
            "name": "C#5",
            "ticks": 28800,
            "time": 40.00002,
            "velocity": 0.5905511811023622
          },
          {
            "duration": 0.33333349999999484,
            "durationTicks": 240,
            "midi": 69,
            "name": "A4",
            "ticks": 29280,
            "time": 40.666687,
            "velocity": 0.5905511811023622
          },
          {
            "duration": 0.6666670000000039,
            "durationTicks": 480,
            "midi": 69,
            "name": "A4",
            "ticks": 29520,
            "time": 41.0000205,
            "velocity": 0.5905511811023622
          },
          {
            "duration": 0.33333350000000195,
            "durationTicks": 240,
            "midi": 74,
            "name": "D5",
            "ticks": 30000,
            "time": 41.6666875,
            "velocity": 0.5905511811023622
          },
          {
            "duration": 0.6666669999999968,
            "durationTicks": 480,
            "midi": 74,
            "name": "D5",
            "ticks": 30240,
            "time": 42.000021000000004,
            "velocity": 0.5905511811023622
          },
          {
            "duration": 0.33333350000000195,
            "durationTicks": 240,
            "midi": 72,
            "name": "C5",
            "ticks": 30720,
            "time": 42.666688,
            "velocity": 0.5905511811023622
          },
          {
            "duration": 0.6666669999999968,
            "durationTicks": 480,
            "midi": 72,
            "name": "C5",
            "ticks": 30960,
            "time": 43.0000215,
            "velocity": 0.5905511811023622
          },
          {
            "duration": 0.33333350000000195,
            "durationTicks": 240,
            "midi": 77,
            "name": "F5",
            "ticks": 31440,
            "time": 43.6666885,
            "velocity": 0.5905511811023622
          },
          {
            "duration": 0.6666669999999968,
            "durationTicks": 480,
            "midi": 76,
            "name": "E5",
            "ticks": 31680,
            "time": 44.000022,
            "velocity": 0.5905511811023622
          },
          {
            "duration": 0.33333350000000195,
            "durationTicks": 240,
            "midi": 72,
            "name": "C5",
            "ticks": 32160,
            "time": 44.666689,
            "velocity": 0.5905511811023622
          },
          {
            "duration": 0.6666670000000039,
            "durationTicks": 480,
            "midi": 72,
            "name": "C5",
            "ticks": 32400,
            "time": 45.0000225,
            "velocity": 0.5905511811023622
          },
          {
            "duration": 0.33333349999999484,
            "durationTicks": 240,
            "midi": 72,
            "name": "C5",
            "ticks": 32880,
            "time": 45.666689500000004,
            "velocity": 0.5905511811023622
          },
          {
            "duration": 0.6666670000000039,
            "durationTicks": 480,
            "midi": 69,
            "name": "A4",
            "ticks": 33120,
            "time": 46.000023,
            "velocity": 0.5905511811023622
          },
          {
            "duration": 0.33333349999999484,
            "durationTicks": 240,
            "midi": 70,
            "name": "A#4",
            "ticks": 33600,
            "time": 46.66669,
            "velocity": 0.5905511811023622
          },
          {
            "duration": 0.6666670000000039,
            "durationTicks": 480,
            "midi": 69,
            "name": "A4",
            "ticks": 33840,
            "time": 47.0000235,
            "velocity": 0.5905511811023622
          },
          {
            "duration": 0.33333350000000195,
            "durationTicks": 240,
            "midi": 69,
            "name": "A4",
            "ticks": 34320,
            "time": 47.6666905,
            "velocity": 0.5905511811023622
          },
          {
            "duration": 1.0000004999999987,
            "durationTicks": 720,
            "midi": 69,
            "name": "A4",
            "ticks": 34560,
            "time": 48.000024,
            "velocity": 0.5905511811023622
          },
          {
            "duration": 1.0000004999999987,
            "durationTicks": 720,
            "midi": 69,
            "name": "A4",
            "ticks": 35280,
            "time": 49.0000245,
            "velocity": 0.5905511811023622
          },
          {
            "duration": 1.0000004999999987,
            "durationTicks": 720,
            "midi": 76,
            "name": "E5",
            "ticks": 36000,
            "time": 50.000025,
            "velocity": 0.5905511811023622
          },
          {
            "duration": 0.5000002499999994,
            "durationTicks": 360,
            "midi": 81,
            "name": "A5",
            "ticks": 36720,
            "time": 51.0000255,
            "velocity": 0.5905511811023622
          },
          {
            "duration": 0.16666675000000453,
            "durationTicks": 120,
            "midi": 79,
            "name": "G5",
            "ticks": 37080,
            "time": 51.50002575,
            "velocity": 0.5905511811023622
          },
          {
            "duration": 0.33333349999999484,
            "durationTicks": 240,
            "midi": 77,
            "name": "F5",
            "ticks": 37200,
            "time": 51.6666925,
            "velocity": 0.5905511811023622
          },
          {
            "duration": 0.6666670000000039,
            "durationTicks": 480,
            "midi": 76,
            "name": "E5",
            "ticks": 37440,
            "time": 52.000026,
            "velocity": 0.5905511811023622
          },
          {
            "duration": 0.33333350000000195,
            "durationTicks": 240,
            "midi": 72,
            "name": "C5",
            "ticks": 37920,
            "time": 52.666693,
            "velocity": 0.5905511811023622
          },
          {
            "duration": 0.6666669999999968,
            "durationTicks": 480,
            "midi": 72,
            "name": "C5",
            "ticks": 38160,
            "time": 53.000026500000004,
            "velocity": 0.5905511811023622
          },
          {
            "duration": 0.33333350000000195,
            "durationTicks": 240,
            "midi": 72,
            "name": "C5",
            "ticks": 38640,
            "time": 53.6666935,
            "velocity": 0.5905511811023622
          },
          {
            "duration": 0.6666669999999968,
            "durationTicks": 480,
            "midi": 69,
            "name": "A4",
            "ticks": 38880,
            "time": 54.000027,
            "velocity": 0.5905511811023622
          },
          {
            "duration": 0.33333350000000195,
            "durationTicks": 240,
            "midi": 69,
            "name": "A4",
            "ticks": 39360,
            "time": 54.666694,
            "velocity": 0.5905511811023622
          },
          {
            "duration": 0.6666669999999968,
            "durationTicks": 480,
            "midi": 67,
            "name": "G4",
            "ticks": 39600,
            "time": 55.0000275,
            "velocity": 0.5905511811023622
          },
          {
            "duration": 0.33333350000000195,
            "durationTicks": 240,
            "midi": 74,
            "name": "D5",
            "ticks": 40080,
            "time": 55.6666945,
            "velocity": 0.5905511811023622
          },
          {
            "duration": 0.6666670000000039,
            "durationTicks": 480,
            "midi": 73,
            "name": "C#5",
            "ticks": 40320,
            "time": 56.000028,
            "velocity": 0.5905511811023622
          },
          {
            "duration": 0.33333349999999484,
            "durationTicks": 240,
            "midi": 69,
            "name": "A4",
            "ticks": 40800,
            "time": 56.666695000000004,
            "velocity": 0.5905511811023622
          },
          {
            "duration": 1.0000004999999987,
            "durationTicks": 720,
            "midi": 69,
            "name": "A4",
            "ticks": 41040,
            "time": 57.0000285,
            "velocity": 0.5905511811023622
          },
          {
            "duration": 1.0000005000000058,
            "durationTicks": 720,
            "midi": 76,
            "name": "E5",
            "ticks": 41760,
            "time": 58.000029,
            "velocity": 0.5905511811023622
          },
          {
            "duration": 0.5000002499999994,
            "durationTicks": 360,
            "midi": 81,
            "name": "A5",
            "ticks": 42480,
            "time": 59.000029500000004,
            "velocity": 0.5905511811023622
          },
          {
            "duration": 0.16666674999999742,
            "durationTicks": 120,
            "midi": 79,
            "name": "G5",
            "ticks": 42840,
            "time": 59.50002975,
            "velocity": 0.5905511811023622
          },
          {
            "duration": 0.33333350000000195,
            "durationTicks": 240,
            "midi": 77,
            "name": "F5",
            "ticks": 42960,
            "time": 59.6666965,
            "velocity": 0.5905511811023622
          },
          {
            "duration": 0.6666669999999968,
            "durationTicks": 480,
            "midi": 76,
            "name": "E5",
            "ticks": 43200,
            "time": 60.00003,
            "velocity": 0.5905511811023622
          },
          {
            "duration": 0.33333350000000195,
            "durationTicks": 240,
            "midi": 72,
            "name": "C5",
            "ticks": 43680,
            "time": 60.666697,
            "velocity": 0.5905511811023622
          },
          {
            "duration": 0.6666669999999968,
            "durationTicks": 480,
            "midi": 72,
            "name": "C5",
            "ticks": 43920,
            "time": 61.0000305,
            "velocity": 0.5905511811023622
          },
          {
            "duration": 0.33333350000000195,
            "durationTicks": 240,
            "midi": 72,
            "name": "C5",
            "ticks": 44400,
            "time": 61.6666975,
            "velocity": 0.5905511811023622
          },
          {
            "duration": 0.6666670000000039,
            "durationTicks": 480,
            "midi": 69,
            "name": "A4",
            "ticks": 44640,
            "time": 62.000031,
            "velocity": 0.5905511811023622
          },
          {
            "duration": 0.33333349999999484,
            "durationTicks": 240,
            "midi": 70,
            "name": "A#4",
            "ticks": 45120,
            "time": 62.666698000000004,
            "velocity": 0.5905511811023622
          },
          {
            "duration": 0.6666670000000039,
            "durationTicks": 480,
            "midi": 69,
            "name": "A4",
            "ticks": 45360,
            "time": 63.0000315,
            "velocity": 0.5905511811023622
          },
          {
            "duration": 0.33333350000000195,
            "durationTicks": 240,
            "midi": 69,
            "name": "A4",
            "ticks": 45840,
            "time": 63.6666985,
            "velocity": 0.5905511811023622
          },
          {
            "duration": 1.0000004999999987,
            "durationTicks": 720,
            "midi": 69,
            "name": "A4",
            "ticks": 46080,
            "time": 64.000032,
            "velocity": 0.5905511811023622
          },
          {
            "duration": 2.0000009999999975,
            "durationTicks": 1440,
            "midi": 69,
            "name": "A4",
            "ticks": 46800,
            "time": 65.0000325,
            "velocity": 0.5905511811023622
          }
        ]
      },
      {
        "channel": 0,
        "controlChanges": {},
        "pitchBends": [],
        "instrument": {
          "family": "piano",
          "number": 0,
          "name": "acoustic grand piano"
        },
        "name": "Recorder-3",
        "notes": [],
        "endOfTrackTicks": 48240
      },
      {
        "channel": 2,
        "controlChanges": {
          "7": [
            {
              "number": 7,
              "ticks": 0,
              "time": 0,
              "value": 1
            }
          ],
          "10": [
            {
              "number": 10,
              "ticks": 0,
              "time": 0,
              "value": 0.5039370078740157
            }
          ]
        },
        "pitchBends": [],
        "instrument": {
          "family": "pipe",
          "number": 74,
          "name": "recorder"
        },
        "name": "",
        "notes": [
          {
            "duration": 0.33333350000000017,
            "durationTicks": 240,
            "midi": 65,
            "name": "F4",
            "ticks": 1200,
            "time": 1.6666675,
            "velocity": 0.5905511811023622
          },
          {
            "duration": 0.6666669999999999,
            "durationTicks": 480,
            "midi": 69,
            "name": "A4",
            "ticks": 1440,
            "time": 2.000001,
            "velocity": 0.5905511811023622
          },
          {
            "duration": 0.33333350000000017,
            "durationTicks": 240,
            "midi": 67,
            "name": "G4",
            "ticks": 1920,
            "time": 2.666668,
            "velocity": 0.5905511811023622
          },
          {
            "duration": 0.6666669999999999,
            "durationTicks": 480,
            "midi": 65,
            "name": "F4",
            "ticks": 2160,
            "time": 3.0000015,
            "velocity": 0.5905511811023622
          },
          {
            "duration": 0.33333350000000017,
            "durationTicks": 240,
            "midi": 69,
            "name": "A4",
            "ticks": 2640,
            "time": 3.6666685,
            "velocity": 0.5905511811023622
          },
          {
            "duration": 0.6666669999999995,
            "durationTicks": 480,
            "midi": 72,
            "name": "C5",
            "ticks": 2880,
            "time": 4.000002,
            "velocity": 0.5905511811023622
          },
          {
            "duration": 0.33333350000000017,
            "durationTicks": 240,
            "midi": 67,
            "name": "G4",
            "ticks": 3360,
            "time": 4.666669,
            "velocity": 0.5905511811023622
          },
          {
            "duration": 0.6666670000000003,
            "durationTicks": 480,
            "midi": 64,
            "name": "E4",
            "ticks": 3600,
            "time": 5.0000025,
            "velocity": 0.5905511811023622
          },
          {
            "duration": 0.33333350000000017,
            "durationTicks": 240,
            "midi": 67,
            "name": "G4",
            "ticks": 4080,
            "time": 5.6666695,
            "velocity": 0.5905511811023622
          },
          {
            "duration": 0.6666669999999995,
            "durationTicks": 480,
            "midi": 65,
            "name": "F4",
            "ticks": 4320,
            "time": 6.000003,
            "velocity": 0.5905511811023622
          },
          {
            "duration": 0.33333350000000017,
            "durationTicks": 240,
            "midi": 65,
            "name": "F4",
            "ticks": 4800,
            "time": 6.66667,
            "velocity": 0.5905511811023622
          },
          {
            "duration": 0.6666670000000003,
            "durationTicks": 480,
            "midi": 62,
            "name": "D4",
            "ticks": 5040,
            "time": 7.0000035,
            "velocity": 0.5905511811023622
          },
          {
            "duration": 0.33333350000000017,
            "durationTicks": 240,
            "midi": 62,
            "name": "D4",
            "ticks": 5520,
            "time": 7.6666705,
            "velocity": 0.5905511811023622
          },
          {
            "duration": 1.0000004999999987,
            "durationTicks": 720,
            "midi": 69,
            "name": "A4",
            "ticks": 5760,
            "time": 8.000004,
            "velocity": 0.5905511811023622
          },
          {
            "duration": 0.6666670000000003,
            "durationTicks": 480,
            "midi": 69,
            "name": "A4",
            "ticks": 6480,
            "time": 9.0000045,
            "velocity": 0.5905511811023622
          },
          {
            "duration": 0.33333350000000017,
            "durationTicks": 240,
            "midi": 65,
            "name": "F4",
            "ticks": 6960,
            "time": 9.6666715,
            "velocity": 0.5905511811023622
          },
          {
            "duration": 0.6666670000000003,
            "durationTicks": 480,
            "midi": 69,
            "name": "A4",
            "ticks": 7200,
            "time": 10.000005,
            "velocity": 0.5905511811023622
          },
          {
            "duration": 0.33333350000000017,
            "durationTicks": 240,
            "midi": 67,
            "name": "G4",
            "ticks": 7680,
            "time": 10.666672,
            "velocity": 0.5905511811023622
          },
          {
            "duration": 0.6666670000000003,
            "durationTicks": 480,
            "midi": 65,
            "name": "F4",
            "ticks": 7920,
            "time": 11.0000055,
            "velocity": 0.5905511811023622
          },
          {
            "duration": 0.33333350000000017,
            "durationTicks": 240,
            "midi": 69,
            "name": "A4",
            "ticks": 8400,
            "time": 11.6666725,
            "velocity": 0.5905511811023622
          },
          {
            "duration": 0.6666669999999986,
            "durationTicks": 480,
            "midi": 72,
            "name": "C5",
            "ticks": 8640,
            "time": 12.000006,
            "velocity": 0.5905511811023622
          },
          {
            "duration": 0.33333350000000017,
            "durationTicks": 240,
            "midi": 67,
            "name": "G4",
            "ticks": 9120,
            "time": 12.666673,
            "velocity": 0.5905511811023622
          },
          {
            "duration": 0.6666670000000003,
            "durationTicks": 480,
            "midi": 64,
            "name": "E4",
            "ticks": 9360,
            "time": 13.0000065,
            "velocity": 0.5905511811023622
          },
          {
            "duration": 0.33333350000000017,
            "durationTicks": 240,
            "midi": 67,
            "name": "G4",
            "ticks": 9840,
            "time": 13.6666735,
            "velocity": 0.5905511811023622
          },
          {
            "duration": 0.6666670000000003,
            "durationTicks": 480,
            "midi": 65,
            "name": "F4",
            "ticks": 10080,
            "time": 14.000007,
            "velocity": 0.5905511811023622
          },
          {
            "duration": 0.33333350000000017,
            "durationTicks": 240,
            "midi": 67,
            "name": "G4",
            "ticks": 10560,
            "time": 14.666674,
            "velocity": 0.5905511811023622
          },
          {
            "duration": 0.6666670000000003,
            "durationTicks": 480,
            "midi": 64,
            "name": "E4",
            "ticks": 10800,
            "time": 15.0000075,
            "velocity": 0.5905511811023622
          },
          {
            "duration": 0.33333350000000017,
            "durationTicks": 240,
            "midi": 69,
            "name": "A4",
            "ticks": 11280,
            "time": 15.666674500000001,
            "velocity": 0.5905511811023622
          },
          {
            "duration": 1.0000004999999987,
            "durationTicks": 720,
            "midi": 67,
            "name": "G4",
            "ticks": 11520,
            "time": 16.000008,
            "velocity": 0.5905511811023622
          },
          {
            "duration": 1.0000004999999987,
            "durationTicks": 720,
            "midi": 65,
            "name": "F4",
            "ticks": 12240,
            "time": 17.0000085,
            "velocity": 0.5905511811023622
          },
          {
            "duration": 1.0000005000000023,
            "durationTicks": 720,
            "midi": 72,
            "name": "C5",
            "ticks": 12960,
            "time": 18.000009,
            "velocity": 0.5905511811023622
          },
          {
            "duration": 0.6666670000000003,
            "durationTicks": 480,
            "midi": 72,
            "name": "C5",
            "ticks": 13680,
            "time": 19.0000095,
            "velocity": 0.5905511811023622
          },
          {
            "duration": 0.3333334999999984,
            "durationTicks": 240,
            "midi": 72,
            "name": "C5",
            "ticks": 14160,
            "time": 19.6666765,
            "velocity": 0.5905511811023622
          },
          {
            "duration": 0.6666670000000003,
            "durationTicks": 480,
            "midi": 72,
            "name": "C5",
            "ticks": 14400,
            "time": 20.00001,
            "velocity": 0.5905511811023622
          },
          {
            "duration": 0.33333350000000195,
            "durationTicks": 240,
            "midi": 67,
            "name": "G4",
            "ticks": 14880,
            "time": 20.666677,
            "velocity": 0.5905511811023622
          },
          {
            "duration": 0.6666669999999968,
            "durationTicks": 480,
            "midi": 64,
            "name": "E4",
            "ticks": 15120,
            "time": 21.000010500000002,
            "velocity": 0.5905511811023622
          },
          {
            "duration": 0.33333350000000195,
            "durationTicks": 240,
            "midi": 67,
            "name": "G4",
            "ticks": 15600,
            "time": 21.6666775,
            "velocity": 0.5905511811023622
          },
          {
            "duration": 0.6666670000000003,
            "durationTicks": 480,
            "midi": 65,
            "name": "F4",
            "ticks": 15840,
            "time": 22.000011,
            "velocity": 0.5905511811023622
          },
          {
            "duration": 0.3333334999999984,
            "durationTicks": 240,
            "midi": 65,
            "name": "F4",
            "ticks": 16320,
            "time": 22.666678,
            "velocity": 0.5905511811023622
          },
          {
            "duration": 0.6666670000000003,
            "durationTicks": 480,
            "midi": 62,
            "name": "D4",
            "ticks": 16560,
            "time": 23.0000115,
            "velocity": 0.5905511811023622
          },
          {
            "duration": 0.33333350000000195,
            "durationTicks": 240,
            "midi": 62,
            "name": "D4",
            "ticks": 17040,
            "time": 23.6666785,
            "velocity": 0.5905511811023622
          },
          {
            "duration": 1.0000004999999987,
            "durationTicks": 720,
            "midi": 69,
            "name": "A4",
            "ticks": 17280,
            "time": 24.000012,
            "velocity": 0.5905511811023622
          },
          {
            "duration": 1.0000004999999987,
            "durationTicks": 720,
            "midi": 69,
            "name": "A4",
            "ticks": 18000,
            "time": 25.0000125,
            "velocity": 0.5905511811023622
          },
          {
            "duration": 1.0000005000000023,
            "durationTicks": 720,
            "midi": 72,
            "name": "C5",
            "ticks": 18720,
            "time": 26.000013,
            "velocity": 0.5905511811023622
          },
          {
            "duration": 0.6666670000000003,
            "durationTicks": 480,
            "midi": 72,
            "name": "C5",
            "ticks": 19440,
            "time": 27.0000135,
            "velocity": 0.5905511811023622
          },
          {
            "duration": 0.3333334999999984,
            "durationTicks": 240,
            "midi": 72,
            "name": "C5",
            "ticks": 19920,
            "time": 27.666680500000002,
            "velocity": 0.5905511811023622
          },
          {
            "duration": 0.6666670000000003,
            "durationTicks": 480,
            "midi": 72,
            "name": "C5",
            "ticks": 20160,
            "time": 28.000014,
            "velocity": 0.5905511811023622
          },
          {
            "duration": 0.3333334999999984,
            "durationTicks": 240,
            "midi": 67,
            "name": "G4",
            "ticks": 20640,
            "time": 28.666681,
            "velocity": 0.5905511811023622
          },
          {
            "duration": 0.6666670000000003,
            "durationTicks": 480,
            "midi": 64,
            "name": "E4",
            "ticks": 20880,
            "time": 29.0000145,
            "velocity": 0.5905511811023622
          },
          {
            "duration": 0.33333350000000195,
            "durationTicks": 240,
            "midi": 67,
            "name": "G4",
            "ticks": 21360,
            "time": 29.6666815,
            "velocity": 0.5905511811023622
          },
          {
            "duration": 0.6666670000000003,
            "durationTicks": 480,
            "midi": 65,
            "name": "F4",
            "ticks": 21600,
            "time": 30.000015,
            "velocity": 0.5905511811023622
          },
          {
            "duration": 0.3333334999999984,
            "durationTicks": 240,
            "midi": 67,
            "name": "G4",
            "ticks": 22080,
            "time": 30.666682,
            "velocity": 0.5905511811023622
          },
          {
            "duration": 0.6666670000000003,
            "durationTicks": 480,
            "midi": 64,
            "name": "E4",
            "ticks": 22320,
            "time": 31.0000155,
            "velocity": 0.5905511811023622
          },
          {
            "duration": 0.33333350000000195,
            "durationTicks": 240,
            "midi": 69,
            "name": "A4",
            "ticks": 22800,
            "time": 31.6666825,
            "velocity": 0.5905511811023622
          },
          {
            "duration": 1.0000004999999987,
            "durationTicks": 720,
            "midi": 67,
            "name": "G4",
            "ticks": 23040,
            "time": 32.000016,
            "velocity": 0.5905511811023622
          },
          {
            "duration": 0.6666669999999968,
            "durationTicks": 480,
            "midi": 65,
            "name": "F4",
            "ticks": 23760,
            "time": 33.0000165,
            "velocity": 0.5905511811023622
          },
          {
            "duration": 0.33333350000000195,
            "durationTicks": 240,
            "midi": 65,
            "name": "F4",
            "ticks": 24240,
            "time": 33.6666835,
            "velocity": 0.5905511811023622
          },
          {
            "duration": 0.6666670000000039,
            "durationTicks": 480,
            "midi": 69,
            "name": "A4",
            "ticks": 24480,
            "time": 34.000017,
            "velocity": 0.5905511811023622
          },
          {
            "duration": 0.33333349999999484,
            "durationTicks": 240,
            "midi": 67,
            "name": "G4",
            "ticks": 24960,
            "time": 34.666684000000004,
            "velocity": 0.5905511811023622
          },
          {
            "duration": 0.6666670000000039,
            "durationTicks": 480,
            "midi": 65,
            "name": "F4",
            "ticks": 25200,
            "time": 35.0000175,
            "velocity": 0.5905511811023622
          },
          {
            "duration": 0.33333349999999484,
            "durationTicks": 240,
            "midi": 69,
            "name": "A4",
            "ticks": 25680,
            "time": 35.6666845,
            "velocity": 0.5905511811023622
          },
          {
            "duration": 0.6666670000000039,
            "durationTicks": 480,
            "midi": 72,
            "name": "C5",
            "ticks": 25920,
            "time": 36.000018,
            "velocity": 0.5905511811023622
          },
          {
            "duration": 0.33333350000000195,
            "durationTicks": 240,
            "midi": 67,
            "name": "G4",
            "ticks": 26400,
            "time": 36.666685,
            "velocity": 0.5905511811023622
          },
          {
            "duration": 0.6666669999999968,
            "durationTicks": 480,
            "midi": 64,
            "name": "E4",
            "ticks": 26640,
            "time": 37.0000185,
            "velocity": 0.5905511811023622
          },
          {
            "duration": 0.33333350000000195,
            "durationTicks": 240,
            "midi": 67,
            "name": "G4",
            "ticks": 27120,
            "time": 37.6666855,
            "velocity": 0.5905511811023622
          },
          {
            "duration": 0.6666669999999968,
            "durationTicks": 480,
            "midi": 65,
            "name": "F4",
            "ticks": 27360,
            "time": 38.000019,
            "velocity": 0.5905511811023622
          },
          {
            "duration": 0.33333350000000195,
            "durationTicks": 240,
            "midi": 65,
            "name": "F4",
            "ticks": 27840,
            "time": 38.666686,
            "velocity": 0.5905511811023622
          },
          {
            "duration": 0.6666669999999968,
            "durationTicks": 480,
            "midi": 62,
            "name": "D4",
            "ticks": 28080,
            "time": 39.0000195,
            "velocity": 0.5905511811023622
          },
          {
            "duration": 0.33333350000000195,
            "durationTicks": 240,
            "midi": 62,
            "name": "D4",
            "ticks": 28560,
            "time": 39.6666865,
            "velocity": 0.5905511811023622
          },
          {
            "duration": 1.0000004999999987,
            "durationTicks": 720,
            "midi": 69,
            "name": "A4",
            "ticks": 28800,
            "time": 40.00002,
            "velocity": 0.5905511811023622
          },
          {
            "duration": 0.6666670000000039,
            "durationTicks": 480,
            "midi": 69,
            "name": "A4",
            "ticks": 29520,
            "time": 41.0000205,
            "velocity": 0.5905511811023622
          },
          {
            "duration": 0.33333350000000195,
            "durationTicks": 240,
            "midi": 65,
            "name": "F4",
            "ticks": 30000,
            "time": 41.6666875,
            "velocity": 0.5905511811023622
          },
          {
            "duration": 0.6666669999999968,
            "durationTicks": 480,
            "midi": 69,
            "name": "A4",
            "ticks": 30240,
            "time": 42.000021000000004,
            "velocity": 0.5905511811023622
          },
          {
            "duration": 0.33333350000000195,
            "durationTicks": 240,
            "midi": 67,
            "name": "G4",
            "ticks": 30720,
            "time": 42.666688,
            "velocity": 0.5905511811023622
          },
          {
            "duration": 0.6666669999999968,
            "durationTicks": 480,
            "midi": 65,
            "name": "F4",
            "ticks": 30960,
            "time": 43.0000215,
            "velocity": 0.5905511811023622
          },
          {
            "duration": 0.33333350000000195,
            "durationTicks": 240,
            "midi": 69,
            "name": "A4",
            "ticks": 31440,
            "time": 43.6666885,
            "velocity": 0.5905511811023622
          },
          {
            "duration": 0.6666669999999968,
            "durationTicks": 480,
            "midi": 72,
            "name": "C5",
            "ticks": 31680,
            "time": 44.000022,
            "velocity": 0.5905511811023622
          },
          {
            "duration": 0.33333350000000195,
            "durationTicks": 240,
            "midi": 67,
            "name": "G4",
            "ticks": 32160,
            "time": 44.666689,
            "velocity": 0.5905511811023622
          },
          {
            "duration": 0.6666670000000039,
            "durationTicks": 480,
            "midi": 64,
            "name": "E4",
            "ticks": 32400,
            "time": 45.0000225,
            "velocity": 0.5905511811023622
          },
          {
            "duration": 0.33333349999999484,
            "durationTicks": 240,
            "midi": 67,
            "name": "G4",
            "ticks": 32880,
            "time": 45.666689500000004,
            "velocity": 0.5905511811023622
          },
          {
            "duration": 0.6666670000000039,
            "durationTicks": 480,
            "midi": 65,
            "name": "F4",
            "ticks": 33120,
            "time": 46.000023,
            "velocity": 0.5905511811023622
          },
          {
            "duration": 0.33333349999999484,
            "durationTicks": 240,
            "midi": 67,
            "name": "G4",
            "ticks": 33600,
            "time": 46.66669,
            "velocity": 0.5905511811023622
          },
          {
            "duration": 0.6666670000000039,
            "durationTicks": 480,
            "midi": 64,
            "name": "E4",
            "ticks": 33840,
            "time": 47.0000235,
            "velocity": 0.5905511811023622
          },
          {
            "duration": 0.33333350000000195,
            "durationTicks": 240,
            "midi": 69,
            "name": "A4",
            "ticks": 34320,
            "time": 47.6666905,
            "velocity": 0.5905511811023622
          },
          {
            "duration": 1.0000004999999987,
            "durationTicks": 720,
            "midi": 67,
            "name": "G4",
            "ticks": 34560,
            "time": 48.000024,
            "velocity": 0.5905511811023622
          },
          {
            "duration": 1.0000004999999987,
            "durationTicks": 720,
            "midi": 65,
            "name": "F4",
            "ticks": 35280,
            "time": 49.0000245,
            "velocity": 0.5905511811023622
          },
          {
            "duration": 1.0000004999999987,
            "durationTicks": 720,
            "midi": 72,
            "name": "C5",
            "ticks": 36000,
            "time": 50.000025,
            "velocity": 0.5905511811023622
          },
          {
            "duration": 0.6666670000000039,
            "durationTicks": 480,
            "midi": 72,
            "name": "C5",
            "ticks": 36720,
            "time": 51.0000255,
            "velocity": 0.5905511811023622
          },
          {
            "duration": 0.33333349999999484,
            "durationTicks": 240,
            "midi": 72,
            "name": "C5",
            "ticks": 37200,
            "time": 51.6666925,
            "velocity": 0.5905511811023622
          },
          {
            "duration": 0.6666670000000039,
            "durationTicks": 480,
            "midi": 72,
            "name": "C5",
            "ticks": 37440,
            "time": 52.000026,
            "velocity": 0.5905511811023622
          },
          {
            "duration": 0.33333350000000195,
            "durationTicks": 240,
            "midi": 67,
            "name": "G4",
            "ticks": 37920,
            "time": 52.666693,
            "velocity": 0.5905511811023622
          },
          {
            "duration": 0.6666669999999968,
            "durationTicks": 480,
            "midi": 64,
            "name": "E4",
            "ticks": 38160,
            "time": 53.000026500000004,
            "velocity": 0.5905511811023622
          },
          {
            "duration": 0.33333350000000195,
            "durationTicks": 240,
            "midi": 67,
            "name": "G4",
            "ticks": 38640,
            "time": 53.6666935,
            "velocity": 0.5905511811023622
          },
          {
            "duration": 0.6666669999999968,
            "durationTicks": 480,
            "midi": 65,
            "name": "F4",
            "ticks": 38880,
            "time": 54.000027,
            "velocity": 0.5905511811023622
          },
          {
            "duration": 0.33333350000000195,
            "durationTicks": 240,
            "midi": 65,
            "name": "F4",
            "ticks": 39360,
            "time": 54.666694,
            "velocity": 0.5905511811023622
          },
          {
            "duration": 0.6666669999999968,
            "durationTicks": 480,
            "midi": 62,
            "name": "D4",
            "ticks": 39600,
            "time": 55.0000275,
            "velocity": 0.5905511811023622
          },
          {
            "duration": 0.33333350000000195,
            "durationTicks": 240,
            "midi": 62,
            "name": "D4",
            "ticks": 40080,
            "time": 55.6666945,
            "velocity": 0.5905511811023622
          },
          {
            "duration": 1.0000004999999987,
            "durationTicks": 720,
            "midi": 69,
            "name": "A4",
            "ticks": 40320,
            "time": 56.000028,
            "velocity": 0.5905511811023622
          },
          {
            "duration": 1.0000004999999987,
            "durationTicks": 720,
            "midi": 69,
            "name": "A4",
            "ticks": 41040,
            "time": 57.0000285,
            "velocity": 0.5905511811023622
          },
          {
            "duration": 1.0000005000000058,
            "durationTicks": 720,
            "midi": 72,
            "name": "C5",
            "ticks": 41760,
            "time": 58.000029,
            "velocity": 0.5905511811023622
          },
          {
            "duration": 0.6666669999999968,
            "durationTicks": 480,
            "midi": 72,
            "name": "C5",
            "ticks": 42480,
            "time": 59.000029500000004,
            "velocity": 0.5905511811023622
          },
          {
            "duration": 0.33333350000000195,
            "durationTicks": 240,
            "midi": 72,
            "name": "C5",
            "ticks": 42960,
            "time": 59.6666965,
            "velocity": 0.5905511811023622
          },
          {
            "duration": 0.6666669999999968,
            "durationTicks": 480,
            "midi": 72,
            "name": "C5",
            "ticks": 43200,
            "time": 60.00003,
            "velocity": 0.5905511811023622
          },
          {
            "duration": 0.33333350000000195,
            "durationTicks": 240,
            "midi": 67,
            "name": "G4",
            "ticks": 43680,
            "time": 60.666697,
            "velocity": 0.5905511811023622
          },
          {
            "duration": 0.6666669999999968,
            "durationTicks": 480,
            "midi": 64,
            "name": "E4",
            "ticks": 43920,
            "time": 61.0000305,
            "velocity": 0.5905511811023622
          },
          {
            "duration": 0.33333350000000195,
            "durationTicks": 240,
            "midi": 67,
            "name": "G4",
            "ticks": 44400,
            "time": 61.6666975,
            "velocity": 0.5905511811023622
          },
          {
            "duration": 0.6666670000000039,
            "durationTicks": 480,
            "midi": 65,
            "name": "F4",
            "ticks": 44640,
            "time": 62.000031,
            "velocity": 0.5905511811023622
          },
          {
            "duration": 0.33333349999999484,
            "durationTicks": 240,
            "midi": 67,
            "name": "G4",
            "ticks": 45120,
            "time": 62.666698000000004,
            "velocity": 0.5905511811023622
          },
          {
            "duration": 0.6666670000000039,
            "durationTicks": 480,
            "midi": 64,
            "name": "E4",
            "ticks": 45360,
            "time": 63.0000315,
            "velocity": 0.5905511811023622
          },
          {
            "duration": 0.33333350000000195,
            "durationTicks": 240,
            "midi": 69,
            "name": "A4",
            "ticks": 45840,
            "time": 63.6666985,
            "velocity": 0.5905511811023622
          },
          {
            "duration": 1.0000004999999987,
            "durationTicks": 720,
            "midi": 67,
            "name": "G4",
            "ticks": 46080,
            "time": 64.000032,
            "velocity": 0.5905511811023622
          },
          {
            "duration": 2.0000009999999975,
            "durationTicks": 1440,
            "midi": 65,
            "name": "F4",
            "ticks": 46800,
            "time": 65.0000325,
            "velocity": 0.5905511811023622
          }
        ]
      },
      {
        "channel": 0,
        "controlChanges": {},
        "pitchBends": [],
        "instrument": {
          "family": "piano",
          "number": 0,
          "name": "acoustic grand piano"
        },
        "name": "Sackbut",
        "notes": [],
        "endOfTrackTicks": 48240
      },
      {
        "channel": 3,
        "controlChanges": {
          "7": [
            {
              "number": 7,
              "ticks": 0,
              "time": 0,
              "value": 0.905511811023622
            }
          ],
          "10": [
            {
              "number": 10,
              "ticks": 0,
              "time": 0,
              "value": 0.5039370078740157
            }
          ]
        },
        "pitchBends": [],
        "instrument": {
          "family": "brass",
          "number": 58,
          "name": "tuba"
        },
        "name": "",
        "notes": [
          {
            "duration": 0.33333350000000017,
            "durationTicks": 240,
            "midi": 50,
            "name": "D3",
            "ticks": 1200,
            "time": 1.6666675,
            "velocity": 0.5905511811023622
          },
          {
            "duration": 0.6666669999999999,
            "durationTicks": 480,
            "midi": 50,
            "name": "D3",
            "ticks": 1440,
            "time": 2.000001,
            "velocity": 0.5905511811023622
          },
          {
            "duration": 0.33333350000000017,
            "durationTicks": 240,
            "midi": 52,
            "name": "E3",
            "ticks": 1920,
            "time": 2.666668,
            "velocity": 0.5905511811023622
          },
          {
            "duration": 0.6666669999999999,
            "durationTicks": 480,
            "midi": 53,
            "name": "F3",
            "ticks": 2160,
            "time": 3.0000015,
            "velocity": 0.5905511811023622
          },
          {
            "duration": 0.33333350000000017,
            "durationTicks": 240,
            "midi": 53,
            "name": "F3",
            "ticks": 2640,
            "time": 3.6666685,
            "velocity": 0.5905511811023622
          },
          {
            "duration": 0.6666669999999995,
            "durationTicks": 480,
            "midi": 48,
            "name": "C3",
            "ticks": 2880,
            "time": 4.000002,
            "velocity": 0.5905511811023622
          },
          {
            "duration": 0.33333350000000017,
            "durationTicks": 240,
            "midi": 48,
            "name": "C3",
            "ticks": 3360,
            "time": 4.666669,
            "velocity": 0.5905511811023622
          },
          {
            "duration": 0.6666670000000003,
            "durationTicks": 480,
            "midi": 48,
            "name": "C3",
            "ticks": 3600,
            "time": 5.0000025,
            "velocity": 0.5905511811023622
          },
          {
            "duration": 0.33333350000000017,
            "durationTicks": 240,
            "midi": 48,
            "name": "C3",
            "ticks": 4080,
            "time": 5.6666695,
            "velocity": 0.5905511811023622
          },
          {
            "duration": 0.6666669999999995,
            "durationTicks": 480,
            "midi": 50,
            "name": "D3",
            "ticks": 4320,
            "time": 6.000003,
            "velocity": 0.5905511811023622
          },
          {
            "duration": 0.33333350000000017,
            "durationTicks": 240,
            "midi": 50,
            "name": "D3",
            "ticks": 4800,
            "time": 6.66667,
            "velocity": 0.5905511811023622
          },
          {
            "duration": 0.6666670000000003,
            "durationTicks": 480,
            "midi": 46,
            "name": "A#2",
            "ticks": 5040,
            "time": 7.0000035,
            "velocity": 0.5905511811023622
          },
          {
            "duration": 0.33333350000000017,
            "durationTicks": 240,
            "midi": 46,
            "name": "A#2",
            "ticks": 5520,
            "time": 7.6666705,
            "velocity": 0.5905511811023622
          },
          {
            "duration": 1.0000004999999987,
            "durationTicks": 720,
            "midi": 45,
            "name": "A2",
            "ticks": 5760,
            "time": 8.000004,
            "velocity": 0.5905511811023622
          },
          {
            "duration": 0.6666670000000003,
            "durationTicks": 480,
            "midi": 45,
            "name": "A2",
            "ticks": 6480,
            "time": 9.0000045,
            "velocity": 0.5905511811023622
          },
          {
            "duration": 0.33333350000000017,
            "durationTicks": 240,
            "midi": 50,
            "name": "D3",
            "ticks": 6960,
            "time": 9.6666715,
            "velocity": 0.5905511811023622
          },
          {
            "duration": 0.6666670000000003,
            "durationTicks": 480,
            "midi": 50,
            "name": "D3",
            "ticks": 7200,
            "time": 10.000005,
            "velocity": 0.5905511811023622
          },
          {
            "duration": 0.33333350000000017,
            "durationTicks": 240,
            "midi": 52,
            "name": "E3",
            "ticks": 7680,
            "time": 10.666672,
            "velocity": 0.5905511811023622
          },
          {
            "duration": 0.6666670000000003,
            "durationTicks": 480,
            "midi": 53,
            "name": "F3",
            "ticks": 7920,
            "time": 11.0000055,
            "velocity": 0.5905511811023622
          },
          {
            "duration": 0.33333350000000017,
            "durationTicks": 240,
            "midi": 53,
            "name": "F3",
            "ticks": 8400,
            "time": 11.6666725,
            "velocity": 0.5905511811023622
          },
          {
            "duration": 0.6666669999999986,
            "durationTicks": 480,
            "midi": 48,
            "name": "C3",
            "ticks": 8640,
            "time": 12.000006,
            "velocity": 0.5905511811023622
          },
          {
            "duration": 0.33333350000000017,
            "durationTicks": 240,
            "midi": 48,
            "name": "C3",
            "ticks": 9120,
            "time": 12.666673,
            "velocity": 0.5905511811023622
          },
          {
            "duration": 0.6666670000000003,
            "durationTicks": 480,
            "midi": 48,
            "name": "C3",
            "ticks": 9360,
            "time": 13.0000065,
            "velocity": 0.5905511811023622
          },
          {
            "duration": 0.33333350000000017,
            "durationTicks": 240,
            "midi": 48,
            "name": "C3",
            "ticks": 9840,
            "time": 13.6666735,
            "velocity": 0.5905511811023622
          },
          {
            "duration": 0.6666670000000003,
            "durationTicks": 480,
            "midi": 50,
            "name": "D3",
            "ticks": 10080,
            "time": 14.000007,
            "velocity": 0.5905511811023622
          },
          {
            "duration": 0.33333350000000017,
            "durationTicks": 240,
            "midi": 43,
            "name": "G2",
            "ticks": 10560,
            "time": 14.666674,
            "velocity": 0.5905511811023622
          },
          {
            "duration": 0.6666670000000003,
            "durationTicks": 480,
            "midi": 45,
            "name": "A2",
            "ticks": 10800,
            "time": 15.0000075,
            "velocity": 0.5905511811023622
          },
          {
            "duration": 0.33333350000000017,
            "durationTicks": 240,
            "midi": 45,
            "name": "A2",
            "ticks": 11280,
            "time": 15.666674500000001,
            "velocity": 0.5905511811023622
          },
          {
            "duration": 1.0000004999999987,
            "durationTicks": 720,
            "midi": 50,
            "name": "D3",
            "ticks": 11520,
            "time": 16.000008,
            "velocity": 0.5905511811023622
          },
          {
            "duration": 1.0000004999999987,
            "durationTicks": 720,
            "midi": 50,
            "name": "D3",
            "ticks": 12240,
            "time": 17.0000085,
            "velocity": 0.5905511811023622
          },
          {
            "duration": 1.0000005000000023,
            "durationTicks": 720,
            "midi": 57,
            "name": "A3",
            "ticks": 12960,
            "time": 18.000009,
            "velocity": 0.5905511811023622
          },
          {
            "duration": 0.6666670000000003,
            "durationTicks": 480,
            "midi": 53,
            "name": "F3",
            "ticks": 13680,
            "time": 19.0000095,
            "velocity": 0.5905511811023622
          },
          {
            "duration": 0.3333334999999984,
            "durationTicks": 240,
            "midi": 53,
            "name": "F3",
            "ticks": 14160,
            "time": 19.6666765,
            "velocity": 0.5905511811023622
          },
          {
            "duration": 0.6666670000000003,
            "durationTicks": 480,
            "midi": 48,
            "name": "C3",
            "ticks": 14400,
            "time": 20.00001,
            "velocity": 0.5905511811023622
          },
          {
            "duration": 0.33333350000000195,
            "durationTicks": 240,
            "midi": 48,
            "name": "C3",
            "ticks": 14880,
            "time": 20.666677,
            "velocity": 0.5905511811023622
          },
          {
            "duration": 0.6666669999999968,
            "durationTicks": 480,
            "midi": 48,
            "name": "C3",
            "ticks": 15120,
            "time": 21.000010500000002,
            "velocity": 0.5905511811023622
          },
          {
            "duration": 0.33333350000000195,
            "durationTicks": 240,
            "midi": 48,
            "name": "C3",
            "ticks": 15600,
            "time": 21.6666775,
            "velocity": 0.5905511811023622
          },
          {
            "duration": 0.6666670000000003,
            "durationTicks": 480,
            "midi": 50,
            "name": "D3",
            "ticks": 15840,
            "time": 22.000011,
            "velocity": 0.5905511811023622
          },
          {
            "duration": 0.3333334999999984,
            "durationTicks": 240,
            "midi": 50,
            "name": "D3",
            "ticks": 16320,
            "time": 22.666678,
            "velocity": 0.5905511811023622
          },
          {
            "duration": 0.6666670000000003,
            "durationTicks": 480,
            "midi": 46,
            "name": "A#2",
            "ticks": 16560,
            "time": 23.0000115,
            "velocity": 0.5905511811023622
          },
          {
            "duration": 0.33333350000000195,
            "durationTicks": 240,
            "midi": 46,
            "name": "A#2",
            "ticks": 17040,
            "time": 23.6666785,
            "velocity": 0.5905511811023622
          },
          {
            "duration": 1.0000004999999987,
            "durationTicks": 720,
            "midi": 45,
            "name": "A2",
            "ticks": 17280,
            "time": 24.000012,
            "velocity": 0.5905511811023622
          },
          {
            "duration": 1.0000004999999987,
            "durationTicks": 720,
            "midi": 45,
            "name": "A2",
            "ticks": 18000,
            "time": 25.0000125,
            "velocity": 0.5905511811023622
          },
          {
            "duration": 1.0000005000000023,
            "durationTicks": 720,
            "midi": 57,
            "name": "A3",
            "ticks": 18720,
            "time": 26.000013,
            "velocity": 0.5905511811023622
          },
          {
            "duration": 0.6666670000000003,
            "durationTicks": 480,
            "midi": 53,
            "name": "F3",
            "ticks": 19440,
            "time": 27.0000135,
            "velocity": 0.5905511811023622
          },
          {
            "duration": 0.3333334999999984,
            "durationTicks": 240,
            "midi": 53,
            "name": "F3",
            "ticks": 19920,
            "time": 27.666680500000002,
            "velocity": 0.5905511811023622
          },
          {
            "duration": 0.6666670000000003,
            "durationTicks": 480,
            "midi": 48,
            "name": "C3",
            "ticks": 20160,
            "time": 28.000014,
            "velocity": 0.5905511811023622
          },
          {
            "duration": 0.3333334999999984,
            "durationTicks": 240,
            "midi": 48,
            "name": "C3",
            "ticks": 20640,
            "time": 28.666681,
            "velocity": 0.5905511811023622
          },
          {
            "duration": 0.6666670000000003,
            "durationTicks": 480,
            "midi": 48,
            "name": "C3",
            "ticks": 20880,
            "time": 29.0000145,
            "velocity": 0.5905511811023622
          },
          {
            "duration": 0.33333350000000195,
            "durationTicks": 240,
            "midi": 48,
            "name": "C3",
            "ticks": 21360,
            "time": 29.6666815,
            "velocity": 0.5905511811023622
          },
          {
            "duration": 0.6666670000000003,
            "durationTicks": 480,
            "midi": 50,
            "name": "D3",
            "ticks": 21600,
            "time": 30.000015,
            "velocity": 0.5905511811023622
          },
          {
            "duration": 0.3333334999999984,
            "durationTicks": 240,
            "midi": 43,
            "name": "G2",
            "ticks": 22080,
            "time": 30.666682,
            "velocity": 0.5905511811023622
          },
          {
            "duration": 0.6666670000000003,
            "durationTicks": 480,
            "midi": 45,
            "name": "A2",
            "ticks": 22320,
            "time": 31.0000155,
            "velocity": 0.5905511811023622
          },
          {
            "duration": 0.33333350000000195,
            "durationTicks": 240,
            "midi": 45,
            "name": "A2",
            "ticks": 22800,
            "time": 31.6666825,
            "velocity": 0.5905511811023622
          },
          {
            "duration": 1.0000004999999987,
            "durationTicks": 720,
            "midi": 50,
            "name": "D3",
            "ticks": 23040,
            "time": 32.000016,
            "velocity": 0.5905511811023622
          },
          {
            "duration": 0.6666669999999968,
            "durationTicks": 480,
            "midi": 50,
            "name": "D3",
            "ticks": 23760,
            "time": 33.0000165,
            "velocity": 0.5905511811023622
          },
          {
            "duration": 0.33333350000000195,
            "durationTicks": 240,
            "midi": 50,
            "name": "D3",
            "ticks": 24240,
            "time": 33.6666835,
            "velocity": 0.5905511811023622
          },
          {
            "duration": 0.6666670000000039,
            "durationTicks": 480,
            "midi": 50,
            "name": "D3",
            "ticks": 24480,
            "time": 34.000017,
            "velocity": 0.5905511811023622
          },
          {
            "duration": 0.33333349999999484,
            "durationTicks": 240,
            "midi": 52,
            "name": "E3",
            "ticks": 24960,
            "time": 34.666684000000004,
            "velocity": 0.5905511811023622
          },
          {
            "duration": 0.6666670000000039,
            "durationTicks": 480,
            "midi": 53,
            "name": "F3",
            "ticks": 25200,
            "time": 35.0000175,
            "velocity": 0.5905511811023622
          },
          {
            "duration": 0.33333349999999484,
            "durationTicks": 240,
            "midi": 53,
            "name": "F3",
            "ticks": 25680,
            "time": 35.6666845,
            "velocity": 0.5905511811023622
          },
          {
            "duration": 0.6666670000000039,
            "durationTicks": 480,
            "midi": 48,
            "name": "C3",
            "ticks": 25920,
            "time": 36.000018,
            "velocity": 0.5905511811023622
          },
          {
            "duration": 0.33333350000000195,
            "durationTicks": 240,
            "midi": 48,
            "name": "C3",
            "ticks": 26400,
            "time": 36.666685,
            "velocity": 0.5905511811023622
          },
          {
            "duration": 0.6666669999999968,
            "durationTicks": 480,
            "midi": 48,
            "name": "C3",
            "ticks": 26640,
            "time": 37.0000185,
            "velocity": 0.5905511811023622
          },
          {
            "duration": 0.33333350000000195,
            "durationTicks": 240,
            "midi": 48,
            "name": "C3",
            "ticks": 27120,
            "time": 37.6666855,
            "velocity": 0.5905511811023622
          },
          {
            "duration": 0.6666669999999968,
            "durationTicks": 480,
            "midi": 50,
            "name": "D3",
            "ticks": 27360,
            "time": 38.000019,
            "velocity": 0.5905511811023622
          },
          {
            "duration": 0.33333350000000195,
            "durationTicks": 240,
            "midi": 50,
            "name": "D3",
            "ticks": 27840,
            "time": 38.666686,
            "velocity": 0.5905511811023622
          },
          {
            "duration": 0.6666669999999968,
            "durationTicks": 480,
            "midi": 46,
            "name": "A#2",
            "ticks": 28080,
            "time": 39.0000195,
            "velocity": 0.5905511811023622
          },
          {
            "duration": 0.33333350000000195,
            "durationTicks": 240,
            "midi": 46,
            "name": "A#2",
            "ticks": 28560,
            "time": 39.6666865,
            "velocity": 0.5905511811023622
          },
          {
            "duration": 1.0000004999999987,
            "durationTicks": 720,
            "midi": 45,
            "name": "A2",
            "ticks": 28800,
            "time": 40.00002,
            "velocity": 0.5905511811023622
          },
          {
            "duration": 0.6666670000000039,
            "durationTicks": 480,
            "midi": 45,
            "name": "A2",
            "ticks": 29520,
            "time": 41.0000205,
            "velocity": 0.5905511811023622
          },
          {
            "duration": 0.33333350000000195,
            "durationTicks": 240,
            "midi": 50,
            "name": "D3",
            "ticks": 30000,
            "time": 41.6666875,
            "velocity": 0.5905511811023622
          },
          {
            "duration": 0.6666669999999968,
            "durationTicks": 480,
            "midi": 50,
            "name": "D3",
            "ticks": 30240,
            "time": 42.000021000000004,
            "velocity": 0.5905511811023622
          },
          {
            "duration": 0.33333350000000195,
            "durationTicks": 240,
            "midi": 52,
            "name": "E3",
            "ticks": 30720,
            "time": 42.666688,
            "velocity": 0.5905511811023622
          },
          {
            "duration": 0.6666669999999968,
            "durationTicks": 480,
            "midi": 53,
            "name": "F3",
            "ticks": 30960,
            "time": 43.0000215,
            "velocity": 0.5905511811023622
          },
          {
            "duration": 0.33333350000000195,
            "durationTicks": 240,
            "midi": 53,
            "name": "F3",
            "ticks": 31440,
            "time": 43.6666885,
            "velocity": 0.5905511811023622
          },
          {
            "duration": 0.6666669999999968,
            "durationTicks": 480,
            "midi": 48,
            "name": "C3",
            "ticks": 31680,
            "time": 44.000022,
            "velocity": 0.5905511811023622
          },
          {
            "duration": 0.33333350000000195,
            "durationTicks": 240,
            "midi": 48,
            "name": "C3",
            "ticks": 32160,
            "time": 44.666689,
            "velocity": 0.5905511811023622
          },
          {
            "duration": 0.6666670000000039,
            "durationTicks": 480,
            "midi": 48,
            "name": "C3",
            "ticks": 32400,
            "time": 45.0000225,
            "velocity": 0.5905511811023622
          },
          {
            "duration": 0.33333349999999484,
            "durationTicks": 240,
            "midi": 48,
            "name": "C3",
            "ticks": 32880,
            "time": 45.666689500000004,
            "velocity": 0.5905511811023622
          },
          {
            "duration": 0.6666670000000039,
            "durationTicks": 480,
            "midi": 50,
            "name": "D3",
            "ticks": 33120,
            "time": 46.000023,
            "velocity": 0.5905511811023622
          },
          {
            "duration": 0.33333349999999484,
            "durationTicks": 240,
            "midi": 43,
            "name": "G2",
            "ticks": 33600,
            "time": 46.66669,
            "velocity": 0.5905511811023622
          },
          {
            "duration": 0.6666670000000039,
            "durationTicks": 480,
            "midi": 45,
            "name": "A2",
            "ticks": 33840,
            "time": 47.0000235,
            "velocity": 0.5905511811023622
          },
          {
            "duration": 0.33333350000000195,
            "durationTicks": 240,
            "midi": 45,
            "name": "A2",
            "ticks": 34320,
            "time": 47.6666905,
            "velocity": 0.5905511811023622
          },
          {
            "duration": 1.0000004999999987,
            "durationTicks": 720,
            "midi": 50,
            "name": "D3",
            "ticks": 34560,
            "time": 48.000024,
            "velocity": 0.5905511811023622
          },
          {
            "duration": 1.0000004999999987,
            "durationTicks": 720,
            "midi": 50,
            "name": "D3",
            "ticks": 35280,
            "time": 49.0000245,
            "velocity": 0.5905511811023622
          },
          {
            "duration": 1.0000004999999987,
            "durationTicks": 720,
            "midi": 57,
            "name": "A3",
            "ticks": 36000,
            "time": 50.000025,
            "velocity": 0.5905511811023622
          },
          {
            "duration": 0.6666670000000039,
            "durationTicks": 480,
            "midi": 53,
            "name": "F3",
            "ticks": 36720,
            "time": 51.0000255,
            "velocity": 0.5905511811023622
          },
          {
            "duration": 0.33333349999999484,
            "durationTicks": 240,
            "midi": 53,
            "name": "F3",
            "ticks": 37200,
            "time": 51.6666925,
            "velocity": 0.5905511811023622
          },
          {
            "duration": 0.6666670000000039,
            "durationTicks": 480,
            "midi": 48,
            "name": "C3",
            "ticks": 37440,
            "time": 52.000026,
            "velocity": 0.5905511811023622
          },
          {
            "duration": 0.33333350000000195,
            "durationTicks": 240,
            "midi": 48,
            "name": "C3",
            "ticks": 37920,
            "time": 52.666693,
            "velocity": 0.5905511811023622
          },
          {
            "duration": 0.6666669999999968,
            "durationTicks": 480,
            "midi": 48,
            "name": "C3",
            "ticks": 38160,
            "time": 53.000026500000004,
            "velocity": 0.5905511811023622
          },
          {
            "duration": 0.33333350000000195,
            "durationTicks": 240,
            "midi": 48,
            "name": "C3",
            "ticks": 38640,
            "time": 53.6666935,
            "velocity": 0.5905511811023622
          },
          {
            "duration": 0.6666669999999968,
            "durationTicks": 480,
            "midi": 50,
            "name": "D3",
            "ticks": 38880,
            "time": 54.000027,
            "velocity": 0.5905511811023622
          },
          {
            "duration": 0.33333350000000195,
            "durationTicks": 240,
            "midi": 50,
            "name": "D3",
            "ticks": 39360,
            "time": 54.666694,
            "velocity": 0.5905511811023622
          },
          {
            "duration": 0.6666669999999968,
            "durationTicks": 480,
            "midi": 46,
            "name": "A#2",
            "ticks": 39600,
            "time": 55.0000275,
            "velocity": 0.5905511811023622
          },
          {
            "duration": 0.33333350000000195,
            "durationTicks": 240,
            "midi": 46,
            "name": "A#2",
            "ticks": 40080,
            "time": 55.6666945,
            "velocity": 0.5905511811023622
          },
          {
            "duration": 1.0000004999999987,
            "durationTicks": 720,
            "midi": 45,
            "name": "A2",
            "ticks": 40320,
            "time": 56.000028,
            "velocity": 0.5905511811023622
          },
          {
            "duration": 1.0000004999999987,
            "durationTicks": 720,
            "midi": 45,
            "name": "A2",
            "ticks": 41040,
            "time": 57.0000285,
            "velocity": 0.5905511811023622
          },
          {
            "duration": 1.0000005000000058,
            "durationTicks": 720,
            "midi": 57,
            "name": "A3",
            "ticks": 41760,
            "time": 58.000029,
            "velocity": 0.5905511811023622
          },
          {
            "duration": 0.6666669999999968,
            "durationTicks": 480,
            "midi": 53,
            "name": "F3",
            "ticks": 42480,
            "time": 59.000029500000004,
            "velocity": 0.5905511811023622
          },
          {
            "duration": 0.33333350000000195,
            "durationTicks": 240,
            "midi": 53,
            "name": "F3",
            "ticks": 42960,
            "time": 59.6666965,
            "velocity": 0.5905511811023622
          },
          {
            "duration": 0.6666669999999968,
            "durationTicks": 480,
            "midi": 48,
            "name": "C3",
            "ticks": 43200,
            "time": 60.00003,
            "velocity": 0.5905511811023622
          },
          {
            "duration": 0.33333350000000195,
            "durationTicks": 240,
            "midi": 48,
            "name": "C3",
            "ticks": 43680,
            "time": 60.666697,
            "velocity": 0.5905511811023622
          },
          {
            "duration": 0.6666669999999968,
            "durationTicks": 480,
            "midi": 48,
            "name": "C3",
            "ticks": 43920,
            "time": 61.0000305,
            "velocity": 0.5905511811023622
          },
          {
            "duration": 0.33333350000000195,
            "durationTicks": 240,
            "midi": 48,
            "name": "C3",
            "ticks": 44400,
            "time": 61.6666975,
            "velocity": 0.5905511811023622
          },
          {
            "duration": 0.6666670000000039,
            "durationTicks": 480,
            "midi": 50,
            "name": "D3",
            "ticks": 44640,
            "time": 62.000031,
            "velocity": 0.5905511811023622
          },
          {
            "duration": 0.33333349999999484,
            "durationTicks": 240,
            "midi": 43,
            "name": "G2",
            "ticks": 45120,
            "time": 62.666698000000004,
            "velocity": 0.5905511811023622
          },
          {
            "duration": 0.6666670000000039,
            "durationTicks": 480,
            "midi": 45,
            "name": "A2",
            "ticks": 45360,
            "time": 63.0000315,
            "velocity": 0.5905511811023622
          },
          {
            "duration": 0.33333350000000195,
            "durationTicks": 240,
            "midi": 45,
            "name": "A2",
            "ticks": 45840,
            "time": 63.6666985,
            "velocity": 0.5905511811023622
          },
          {
            "duration": 1.0000004999999987,
            "durationTicks": 720,
            "midi": 50,
            "name": "D3",
            "ticks": 46080,
            "time": 64.000032,
            "velocity": 0.5905511811023622
          },
          {
            "duration": 2.0000009999999975,
            "durationTicks": 1440,
            "midi": 50,
            "name": "D3",
            "ticks": 46800,
            "time": 65.0000325,
            "velocity": 0.5905511811023622
          }
        ]
      }
    ]
  }