{
  "header": {
    "keySignatures": [
      {
        "key": "A",
        "scale": "major",
        "ticks": 0
      }
    ],
    "meta": [
      {
        "text": "#AUT#D.W.Barnes",
        "ticks": 0,
        "type": "text"
      }
    ],
    "name": "",
    "ppq": 192,
    "tempos": [
      {
        "bpm": 135.000135000135,
        "ticks": 0
      }
    ],
    "timeSignatures": [
      {
        "ticks": 0,
        "timeSignature": [
          4,
          4
        ],
        "measures": 0
      },
      {
        "ticks": 37632,
        "timeSignature": [
          2,
          4
        ],
        "measures": 49
      },
      {
        "ticks": 38016,
        "timeSignature": [
          3,
          8
        ],
        "measures": 50
      },
      {
        "ticks": 38880,
        "timeSignature": [
          5,
          8
        ],
        "measures": 50.75
      },
      {
        "ticks": 39360,
        "timeSignature": [
          4,
          4
        ],
        "measures": 51
      },
      {
        "ticks": 40128,
        "timeSignature": [
          2,
          4
        ],
        "measures": 52
      },
      {
        "ticks": 40512,
        "timeSignature": [
          3,
          8
        ],
        "measures": 53
      },
      {
        "ticks": 41376,
        "timeSignature": [
          5,
          8
        ],
        "measures": 53.75
      },
      {
        "ticks": 41856,
        "timeSignature": [
          4,
          4
        ],
        "measures": 54
      },
      {
        "ticks": 42624,
        "timeSignature": [
          2,
          4
        ],
        "measures": 55
      },
      {
        "ticks": 43008,
        "timeSignature": [
          3,
          8
        ],
        "measures": 56
      },
      {
        "ticks": 43872,
        "timeSignature": [
          5,
          8
        ],
        "measures": 56.75
      },
      {
        "ticks": 44352,
        "timeSignature": [
          4,
          4
        ],
        "measures": 57
      },
      {
        "ticks": 45120,
        "timeSignature": [
          2,
          4
        ],
        "measures": 58
      },
      {
        "ticks": 45504,
        "timeSignature": [
          3,
          8
        ],
        "measures": 59
      },
      {
        "ticks": 46368,
        "timeSignature": [
          5,
          8
        ],
        "measures": 59.75
      },
      {
        "ticks": 46848,
        "timeSignature": [
          4,
          4
        ],
        "measures": 60
      },
      {
        "ticks": 47616,
        "timeSignature": [
          2,
          4
        ],
        "measures": 61
      },
      {
        "ticks": 48000,
        "timeSignature": [
          3,
          8
        ],
        "measures": 62
      },
      {
        "ticks": 48864,
        "timeSignature": [
          5,
          8
        ],
        "measures": 62.75
      },
      {
        "ticks": 49344,
        "timeSignature": [
          4,
          4
        ],
        "measures": 63
      },
      {
        "ticks": 50112,
        "timeSignature": [
          2,
          4
        ],
        "measures": 64
      },
      {
        "ticks": 50496,
        "timeSignature": [
          3,
          8
        ],
        "measures": 65
      },
      {
        "ticks": 51360,
        "timeSignature": [
          5,
          8
        ],
        "measures": 65.75
      },
      {
        "ticks": 51840,
        "timeSignature": [
          4,
          4
        ],
        "measures": 66
      }
    ]
  },
  "tracks": [
    {
      "channel": 0,
      "controlChanges": {
        "0": [
          {
            "number": 0,
            "ticks": 192,
            "time": 0.444444,
            "value": 0.25196850393700787
          }
        ],
        "7": [
          {
            "number": 7,
            "ticks": 0,
            "time": 0,
            "value": 0.7874015748031497
          },
          {
            "number": 7,
            "ticks": 192,
            "time": 0.444444,
            "value": 0.8267716535433071
          }
        ],
        "10": [
          {
            "number": 10,
            "ticks": 192,
            "time": 0.444444,
            "value": 0.25196850393700787
          }
        ],
        "91": [
          {
            "number": 91,
            "ticks": 192,
            "time": 0.444444,
            "value": 0.3543307086614173
          }
        ],
        "93": [
          {
            "number": 93,
            "ticks": 192,
            "time": 0.444444,
            "value": 0.11811023622047244
          }
        ]
      },
      "pitchBends": [],
      "instrument": {
        "family": "piano",
        "number": 0,
        "name": "acoustic grand piano"
      },
      "name": "Nylon Gtr",
      "notes": [],
      "endOfTrackTicks": 78334
    },
    {
      "channel": 0,
      "controlChanges": {},
      "pitchBends": [],
      "instrument": {
        "family": "guitar",
        "number": 24,
        "name": "acoustic guitar (nylon)"
      },
      "name": "",
      "notes": [
        {
          "duration": 0.21759237499999973,
          "durationTicks": 94,
          "midi": 73,
          "name": "C#5",
          "ticks": 960,
          "time": 2.22222,
          "velocity": 0.8661417322834646
        },
        {
          "duration": 0.21759237499999973,
          "durationTicks": 94,
          "midi": 69,
          "name": "A4",
          "ticks": 960,
          "time": 2.22222,
          "velocity": 0.8661417322834646
        },
        {
          "duration": 0.8842583749999999,
          "durationTicks": 382,
          "midi": 64,
          "name": "E4",
          "ticks": 960,
          "time": 2.22222,
          "velocity": 0.8661417322834646
        },
        {
          "duration": 0.8842583749999999,
          "durationTicks": 382,
          "midi": 57,
          "name": "A3",
          "ticks": 960,
          "time": 2.22222,
          "velocity": 0.8661417322834646
        },
        {
          "duration": 0.21759237499999973,
          "durationTicks": 94,
          "midi": 69,
          "name": "A4",
          "ticks": 1056,
          "time": 2.444442,
          "velocity": 0.8661417322834646
        },
        {
          "duration": 0.21759237500000017,
          "durationTicks": 94,
          "midi": 71,
          "name": "B4",
          "ticks": 1152,
          "time": 2.666664,
          "velocity": 0.8661417322834646
        },
        {
          "duration": 0.21759237500000017,
          "durationTicks": 94,
          "midi": 69,
          "name": "A4",
          "ticks": 1152,
          "time": 2.666664,
          "velocity": 0.8661417322834646
        },
        {
          "duration": 0.4398143750000001,
          "durationTicks": 190,
          "midi": 69,
          "name": "A4",
          "ticks": 1248,
          "time": 2.888886,
          "velocity": 0.8661417322834646
        },
        {
          "duration": 0.4398143750000001,
          "durationTicks": 190,
          "midi": 73,
          "name": "C#5",
          "ticks": 1248,
          "time": 2.888886,
          "velocity": 0.8661417322834646
        },
        {
          "duration": 0.21759237499999973,
          "durationTicks": 94,
          "midi": 57,
          "name": "A3",
          "ticks": 1344,
          "time": 3.111108,
          "velocity": 0.8661417322834646
        },
        {
          "duration": 0.662036375,
          "durationTicks": 286,
          "midi": 64,
          "name": "E4",
          "ticks": 1440,
          "time": 3.33333,
          "velocity": 0.8661417322834646
        },
        {
          "duration": 0.4398143750000001,
          "durationTicks": 190,
          "midi": 57,
          "name": "A3",
          "ticks": 1440,
          "time": 3.33333,
          "velocity": 0.8661417322834646
        },
        {
          "duration": 0.662036375,
          "durationTicks": 286,
          "midi": 69,
          "name": "A4",
          "ticks": 1440,
          "time": 3.33333,
          "velocity": 0.8661417322834646
        },
        {
          "duration": 0.6620363750000005,
          "durationTicks": 286,
          "midi": 57,
          "name": "A3",
          "ticks": 1632,
          "time": 3.777774,
          "velocity": 0.8661417322834646
        },
        {
          "duration": 0.21759237500000017,
          "durationTicks": 94,
          "midi": 73,
          "name": "C#5",
          "ticks": 1728,
          "time": 3.999996,
          "velocity": 0.8661417322834646
        },
        {
          "duration": 0.4398143750000001,
          "durationTicks": 190,
          "midi": 71,
          "name": "B4",
          "ticks": 1824,
          "time": 4.222218,
          "velocity": 0.8661417322834646
        },
        {
          "duration": 0.21759237499999973,
          "durationTicks": 94,
          "midi": 57,
          "name": "A3",
          "ticks": 1920,
          "time": 4.44444,
          "velocity": 0.8661417322834646
        },
        {
          "duration": 0.21759237500000062,
          "durationTicks": 94,
          "midi": 57,
          "name": "A3",
          "ticks": 2016,
          "time": 4.666662,
          "velocity": 0.8661417322834646
        },
        {
          "duration": 0.439814375000001,
          "durationTicks": 190,
          "midi": 64,
          "name": "E4",
          "ticks": 2016,
          "time": 4.666662,
          "velocity": 0.8661417322834646
        },
        {
          "duration": 0.439814375000001,
          "durationTicks": 190,
          "midi": 69,
          "name": "A4",
          "ticks": 2016,
          "time": 4.666662,
          "velocity": 0.8661417322834646
        },
        {
          "duration": 0.21759237500000062,
          "durationTicks": 94,
          "midi": 52,
          "name": "E3",
          "ticks": 2112,
          "time": 4.888884,
          "velocity": 0.8661417322834646
        },
        {
          "duration": 0.21759237500000062,
          "durationTicks": 94,
          "midi": 47,
          "name": "B2",
          "ticks": 2112,
          "time": 4.888884,
          "velocity": 0.8661417322834646
        },
        {
          "duration": 0.21759237499999973,
          "durationTicks": 94,
          "midi": 50,
          "name": "D3",
          "ticks": 2208,
          "time": 5.111106,
          "velocity": 0.8661417322834646
        },
        {
          "duration": 0.4398143750000001,
          "durationTicks": 190,
          "midi": 66,
          "name": "F#4",
          "ticks": 2208,
          "time": 5.111106,
          "velocity": 0.8661417322834646
        },
        {
          "duration": 0.4398143750000001,
          "durationTicks": 190,
          "midi": 62,
          "name": "D4",
          "ticks": 2208,
          "time": 5.111106,
          "velocity": 0.8661417322834646
        },
        {
          "duration": 0.21759237499999973,
          "durationTicks": 94,
          "midi": 54,
          "name": "F#3",
          "ticks": 2208,
          "time": 5.111106,
          "velocity": 0.8661417322834646
        },
        {
          "duration": 0.4398143750000001,
          "durationTicks": 190,
          "midi": 57,
          "name": "A3",
          "ticks": 2208,
          "time": 5.111106,
          "velocity": 0.8661417322834646
        },
        {
          "duration": 0.4398143750000001,
          "durationTicks": 190,
          "midi": 54,
          "name": "F#3",
          "ticks": 2304,
          "time": 5.333328,
          "velocity": 0.8661417322834646
        },
        {
          "duration": 0.4398143750000001,
          "durationTicks": 190,
          "midi": 50,
          "name": "D3",
          "ticks": 2304,
          "time": 5.333328,
          "velocity": 0.8661417322834646
        },
        {
          "duration": 0.4398143750000001,
          "durationTicks": 190,
          "midi": 69,
          "name": "A4",
          "ticks": 2400,
          "time": 5.55555,
          "velocity": 0.8661417322834646
        },
        {
          "duration": 0.439814375000001,
          "durationTicks": 190,
          "midi": 54,
          "name": "F#3",
          "ticks": 2496,
          "time": 5.777772,
          "velocity": 0.8661417322834646
        },
        {
          "duration": 0.439814375000001,
          "durationTicks": 190,
          "midi": 50,
          "name": "D3",
          "ticks": 2496,
          "time": 5.777772,
          "velocity": 0.8661417322834646
        },
        {
          "duration": 0.4398143750000001,
          "durationTicks": 190,
          "midi": 71,
          "name": "B4",
          "ticks": 2592,
          "time": 5.999994,
          "velocity": 0.8661417322834646
        },
        {
          "duration": 0.21759237499999973,
          "durationTicks": 94,
          "midi": 50,
          "name": "D3",
          "ticks": 2688,
          "time": 6.222216,
          "velocity": 0.8661417322834646
        },
        {
          "duration": 0.21759237499999973,
          "durationTicks": 94,
          "midi": 54,
          "name": "F#3",
          "ticks": 2688,
          "time": 6.222216,
          "velocity": 0.8661417322834646
        },
        {
          "duration": 0.21759237500000062,
          "durationTicks": 94,
          "midi": 57,
          "name": "A3",
          "ticks": 2784,
          "time": 6.444438,
          "velocity": 0.8661417322834646
        },
        {
          "duration": 0.21759237500000062,
          "durationTicks": 94,
          "midi": 54,
          "name": "F#3",
          "ticks": 2784,
          "time": 6.444438,
          "velocity": 0.8661417322834646
        },
        {
          "duration": 0.4398143750000001,
          "durationTicks": 190,
          "midi": 62,
          "name": "D4",
          "ticks": 2784,
          "time": 6.444438,
          "velocity": 0.8661417322834646
        },
        {
          "duration": 0.4398143750000001,
          "durationTicks": 190,
          "midi": 69,
          "name": "A4",
          "ticks": 2784,
          "time": 6.444438,
          "velocity": 0.8661417322834646
        },
        {
          "duration": 0.21759237499999973,
          "durationTicks": 94,
          "midi": 54,
          "name": "F#3",
          "ticks": 2880,
          "time": 6.66666,
          "velocity": 0.8661417322834646
        },
        {
          "duration": 0.21759237499999973,
          "durationTicks": 94,
          "midi": 50,
          "name": "D3",
          "ticks": 2880,
          "time": 6.66666,
          "velocity": 0.8661417322834646
        },
        {
          "duration": 0.21759237500000062,
          "durationTicks": 94,
          "midi": 62,
          "name": "D4",
          "ticks": 2976,
          "time": 6.888882,
          "velocity": 0.8661417322834646
        },
        {
          "duration": 0.21759237500000062,
          "durationTicks": 94,
          "midi": 57,
          "name": "A3",
          "ticks": 2976,
          "time": 6.888882,
          "velocity": 0.8661417322834646
        },
        {
          "duration": 0.21759237500000062,
          "durationTicks": 94,
          "midi": 66,
          "name": "F#4",
          "ticks": 2976,
          "time": 6.888882,
          "velocity": 0.8661417322834646
        },
        {
          "duration": 0.4398143749999992,
          "durationTicks": 190,
          "midi": 52,
          "name": "E3",
          "ticks": 3072,
          "time": 7.111104,
          "velocity": 0.8661417322834646
        },
        {
          "duration": 0.21759237499999973,
          "durationTicks": 94,
          "midi": 62,
          "name": "D4",
          "ticks": 3072,
          "time": 7.111104,
          "velocity": 0.8661417322834646
        },
        {
          "duration": 0.4398143749999992,
          "durationTicks": 190,
          "midi": 59,
          "name": "B3",
          "ticks": 3072,
          "time": 7.111104,
          "velocity": 0.8661417322834646
        },
        {
          "duration": 0.21759237499999973,
          "durationTicks": 94,
          "midi": 68,
          "name": "G#4",
          "ticks": 3072,
          "time": 7.111104,
          "velocity": 0.8661417322834646
        },
        {
          "duration": 0.21759237499999884,
          "durationTicks": 94,
          "midi": 62,
          "name": "D4",
          "ticks": 3168,
          "time": 7.3333260000000005,
          "velocity": 0.8661417322834646
        },
        {
          "duration": 0.21759237499999884,
          "durationTicks": 94,
          "midi": 66,
          "name": "F#4",
          "ticks": 3168,
          "time": 7.3333260000000005,
          "velocity": 0.8661417322834646
        },
        {
          "duration": 0.4398143749999992,
          "durationTicks": 190,
          "midi": 59,
          "name": "B3",
          "ticks": 3264,
          "time": 7.555548,
          "velocity": 0.8661417322834646
        },
        {
          "duration": 0.4398143749999992,
          "durationTicks": 190,
          "midi": 52,
          "name": "E3",
          "ticks": 3264,
          "time": 7.555548,
          "velocity": 0.8661417322834646
        },
        {
          "duration": 0.21759237499999973,
          "durationTicks": 94,
          "midi": 62,
          "name": "D4",
          "ticks": 3264,
          "time": 7.555548,
          "velocity": 0.8661417322834646
        },
        {
          "duration": 0.21759237499999973,
          "durationTicks": 94,
          "midi": 68,
          "name": "G#4",
          "ticks": 3264,
          "time": 7.555548,
          "velocity": 0.8661417322834646
        },
        {
          "duration": 0.4398143749999992,
          "durationTicks": 190,
          "midi": 62,
          "name": "D4",
          "ticks": 3360,
          "time": 7.77777,
          "velocity": 0.8661417322834646
        },
        {
          "duration": 0.4398143749999992,
          "durationTicks": 190,
          "midi": 69,
          "name": "A4",
          "ticks": 3360,
          "time": 7.77777,
          "velocity": 0.8661417322834646
        },
        {
          "duration": 0.884258374999999,
          "durationTicks": 382,
          "midi": 52,
          "name": "E3",
          "ticks": 3456,
          "time": 7.999992,
          "velocity": 0.8661417322834646
        },
        {
          "duration": 0.884258374999999,
          "durationTicks": 382,
          "midi": 59,
          "name": "B3",
          "ticks": 3456,
          "time": 7.999992,
          "velocity": 0.8661417322834646
        },
        {
          "duration": 0.6620363749999996,
          "durationTicks": 286,
          "midi": 68,
          "name": "G#4",
          "ticks": 3552,
          "time": 8.222214,
          "velocity": 0.8661417322834646
        },
        {
          "duration": 0.6620363749999996,
          "durationTicks": 286,
          "midi": 71,
          "name": "B4",
          "ticks": 3552,
          "time": 8.222214,
          "velocity": 0.8661417322834646
        },
        {
          "duration": 0.6620363749999996,
          "durationTicks": 286,
          "midi": 62,
          "name": "D4",
          "ticks": 3552,
          "time": 8.222214,
          "velocity": 0.8661417322834646
        },
        {
          "duration": 1.7731463749999996,
          "durationTicks": 766,
          "midi": 57,
          "name": "A3",
          "ticks": 3840,
          "time": 8.88888,
          "velocity": 0.8661417322834646
        },
        {
          "duration": 0.4398143749999992,
          "durationTicks": 190,
          "midi": 64,
          "name": "E4",
          "ticks": 3840,
          "time": 8.88888,
          "velocity": 0.8661417322834646
        },
        {
          "duration": 0.21759237500000062,
          "durationTicks": 94,
          "midi": 69,
          "name": "A4",
          "ticks": 4032,
          "time": 9.333324,
          "velocity": 0.8661417322834646
        },
        {
          "duration": 0.21759237500000062,
          "durationTicks": 94,
          "midi": 73,
          "name": "C#5",
          "ticks": 4032,
          "time": 9.333324,
          "velocity": 0.8661417322834646
        },
        {
          "duration": 0.21759237500000062,
          "durationTicks": 94,
          "midi": 69,
          "name": "A4",
          "ticks": 4128,
          "time": 9.555546,
          "velocity": 0.8661417322834646
        },
        {
          "duration": 0.21759237499999884,
          "durationTicks": 94,
          "midi": 71,
          "name": "B4",
          "ticks": 4224,
          "time": 9.777768,
          "velocity": 0.8661417322834646
        },
        {
          "duration": 0.4398143749999992,
          "durationTicks": 190,
          "midi": 73,
          "name": "C#5",
          "ticks": 4320,
          "time": 9.99999,
          "velocity": 0.8661417322834646
        },
        {
          "duration": 0.6620363749999996,
          "durationTicks": 286,
          "midi": 69,
          "name": "A4",
          "ticks": 4512,
          "time": 10.444434,
          "velocity": 0.8661417322834646
        },
        {
          "duration": 0.21759237500000062,
          "durationTicks": 94,
          "midi": 57,
          "name": "A3",
          "ticks": 4608,
          "time": 10.666656,
          "velocity": 0.8661417322834646
        },
        {
          "duration": 0.21759237500000062,
          "durationTicks": 94,
          "midi": 64,
          "name": "E4",
          "ticks": 4608,
          "time": 10.666656,
          "velocity": 0.8661417322834646
        },
        {
          "duration": 0.6620363749999996,
          "durationTicks": 286,
          "midi": 57,
          "name": "A3",
          "ticks": 4704,
          "time": 10.888878,
          "velocity": 0.8661417322834646
        },
        {
          "duration": 0.8842583749999999,
          "durationTicks": 382,
          "midi": 64,
          "name": "E4",
          "ticks": 4704,
          "time": 10.888878,
          "velocity": 0.8661417322834646
        },
        {
          "duration": 0.21759237499999884,
          "durationTicks": 94,
          "midi": 73,
          "name": "C#5",
          "ticks": 4800,
          "time": 11.1111,
          "velocity": 0.8661417322834646
        },
        {
          "duration": 0.4398143749999992,
          "durationTicks": 190,
          "midi": 71,
          "name": "B4",
          "ticks": 4896,
          "time": 11.333322,
          "velocity": 0.8661417322834646
        },
        {
          "duration": 0.21759237500000062,
          "durationTicks": 94,
          "midi": 57,
          "name": "A3",
          "ticks": 4992,
          "time": 11.555544,
          "velocity": 0.8661417322834646
        },
        {
          "duration": 0.4398143749999992,
          "durationTicks": 190,
          "midi": 57,
          "name": "A3",
          "ticks": 5088,
          "time": 11.777766,
          "velocity": 0.8661417322834646
        },
        {
          "duration": 0.4398143749999992,
          "durationTicks": 190,
          "midi": 64,
          "name": "E4",
          "ticks": 5088,
          "time": 11.777766,
          "velocity": 0.8661417322834646
        },
        {
          "duration": 0.4398143749999992,
          "durationTicks": 190,
          "midi": 69,
          "name": "A4",
          "ticks": 5088,
          "time": 11.777766,
          "velocity": 0.8661417322834646
        },
        {
          "duration": 0.21759237499999884,
          "durationTicks": 94,
          "midi": 52,
          "name": "E3",
          "ticks": 5184,
          "time": 11.999988,
          "velocity": 0.8661417322834646
        },
        {
          "duration": 0.21759237499999884,
          "durationTicks": 94,
          "midi": 47,
          "name": "B2",
          "ticks": 5184,
          "time": 11.999988,
          "velocity": 0.8661417322834646
        },
        {
          "duration": 0.4398143749999992,
          "durationTicks": 190,
          "midi": 57,
          "name": "A3",
          "ticks": 5280,
          "time": 12.22221,
          "velocity": 0.8661417322834646
        },
        {
          "duration": 1.3287023749999989,
          "durationTicks": 574,
          "midi": 62,
          "name": "D4",
          "ticks": 5280,
          "time": 12.22221,
          "velocity": 0.8661417322834646
        },
        {
          "duration": 0.21759237499999884,
          "durationTicks": 94,
          "midi": 54,
          "name": "F#3",
          "ticks": 5280,
          "time": 12.22221,
          "velocity": 0.8661417322834646
        },
        {
          "duration": 1.3287023749999989,
          "durationTicks": 574,
          "midi": 66,
          "name": "F#4",
          "ticks": 5280,
          "time": 12.22221,
          "velocity": 0.8661417322834646
        },
        {
          "duration": 0.21759237499999884,
          "durationTicks": 94,
          "midi": 50,
          "name": "D3",
          "ticks": 5280,
          "time": 12.22221,
          "velocity": 0.8661417322834646
        },
        {
          "duration": 0.4398143749999992,
          "durationTicks": 190,
          "midi": 50,
          "name": "D3",
          "ticks": 5376,
          "time": 12.444432,
          "velocity": 0.8661417322834646
        },
        {
          "duration": 0.8842583749999982,
          "durationTicks": 382,
          "midi": 54,
          "name": "F#3",
          "ticks": 5376,
          "time": 12.444432,
          "velocity": 0.8661417322834646
        },
        {
          "duration": 0.439814375000001,
          "durationTicks": 190,
          "midi": 73,
          "name": "C#5",
          "ticks": 5472,
          "time": 12.666654,
          "velocity": 0.8661417322834646
        },
        {
          "duration": 0.4398143749999992,
          "durationTicks": 190,
          "midi": 50,
          "name": "D3",
          "ticks": 5568,
          "time": 12.888876,
          "velocity": 0.8661417322834646
        },
        {
          "duration": 0.4398143749999992,
          "durationTicks": 190,
          "midi": 71,
          "name": "B4",
          "ticks": 5664,
          "time": 13.111098,
          "velocity": 0.8661417322834646
        },
        {
          "duration": 0.21759237499999884,
          "durationTicks": 94,
          "midi": 54,
          "name": "F#3",
          "ticks": 5760,
          "time": 13.33332,
          "velocity": 0.8661417322834646
        },
        {
          "duration": 0.21759237499999884,
          "durationTicks": 94,
          "midi": 50,
          "name": "D3",
          "ticks": 5760,
          "time": 13.33332,
          "velocity": 0.8661417322834646
        },
        {
          "duration": 0.4398143749999992,
          "durationTicks": 190,
          "midi": 69,
          "name": "A4",
          "ticks": 5856,
          "time": 13.555542,
          "velocity": 0.8661417322834646
        },
        {
          "duration": 0.4398143749999992,
          "durationTicks": 190,
          "midi": 62,
          "name": "D4",
          "ticks": 5856,
          "time": 13.555542,
          "velocity": 0.8661417322834646
        },
        {
          "duration": 0.4398143749999992,
          "durationTicks": 190,
          "midi": 57,
          "name": "A3",
          "ticks": 5856,
          "time": 13.555542,
          "velocity": 0.8661417322834646
        },
        {
          "duration": 0.21759237499999884,
          "durationTicks": 94,
          "midi": 54,
          "name": "F#3",
          "ticks": 5856,
          "time": 13.555542,
          "velocity": 0.8661417322834646
        },
        {
          "duration": 0.21759237499999884,
          "durationTicks": 94,
          "midi": 50,
          "name": "D3",
          "ticks": 5856,
          "time": 13.555542,
          "velocity": 0.8661417322834646
        },
        {
          "duration": 0.21759237500000062,
          "durationTicks": 94,
          "midi": 50,
          "name": "D3",
          "ticks": 5952,
          "time": 13.777764,
          "velocity": 0.8661417322834646
        },
        {
          "duration": 0.21759237500000062,
          "durationTicks": 94,
          "midi": 54,
          "name": "F#3",
          "ticks": 5952,
          "time": 13.777764,
          "velocity": 0.8661417322834646
        },
        {
          "duration": 1.9953683750000017,
          "durationTicks": 862,
          "midi": 68,
          "name": "G#4",
          "ticks": 6048,
          "time": 13.999986,
          "velocity": 0.8661417322834646
        },
        {
          "duration": 1.9953683750000017,
          "durationTicks": 862,
          "midi": 62,
          "name": "D4",
          "ticks": 6048,
          "time": 13.999986,
          "velocity": 0.8661417322834646
        },
        {
          "duration": 1.9953683750000017,
          "durationTicks": 862,
          "midi": 59,
          "name": "B3",
          "ticks": 6048,
          "time": 13.999986,
          "velocity": 0.8661417322834646
        },
        {
          "duration": 1.9953683750000017,
          "durationTicks": 862,
          "midi": 52,
          "name": "E3",
          "ticks": 6048,
          "time": 13.999986,
          "velocity": 0.8661417322834646
        },
        {
          "duration": 1.7731463750000014,
          "durationTicks": 766,
          "midi": 57,
          "name": "A3",
          "ticks": 6912,
          "time": 15.999984,
          "velocity": 0.8661417322834646
        },
        {
          "duration": 0.43981437500000276,
          "durationTicks": 190,
          "midi": 64,
          "name": "E4",
          "ticks": 6912,
          "time": 15.999984,
          "velocity": 0.8661417322834646
        },
        {
          "duration": 0.43981437500000453,
          "durationTicks": 190,
          "midi": 69,
          "name": "A4",
          "ticks": 7104,
          "time": 16.444428,
          "velocity": 0.8661417322834646
        },
        {
          "duration": 0.2175923750000024,
          "durationTicks": 94,
          "midi": 73,
          "name": "C#5",
          "ticks": 7104,
          "time": 16.444428,
          "velocity": 0.8661417322834646
        },
        {
          "duration": 1.3287023750000024,
          "durationTicks": 574,
          "midi": 64,
          "name": "E4",
          "ticks": 7104,
          "time": 16.444428,
          "velocity": 0.8661417322834646
        },
        {
          "duration": 0.439814375000001,
          "durationTicks": 190,
          "midi": 71,
          "name": "B4",
          "ticks": 7200,
          "time": 16.66665,
          "velocity": 0.8661417322834646
        },
        {
          "duration": 0.439814375000001,
          "durationTicks": 190,
          "midi": 73,
          "name": "C#5",
          "ticks": 7392,
          "time": 17.111094,
          "velocity": 0.8661417322834646
        },
        {
          "duration": 0.439814375000001,
          "durationTicks": 190,
          "midi": 69,
          "name": "A4",
          "ticks": 7392,
          "time": 17.111094,
          "velocity": 0.8661417322834646
        },
        {
          "duration": 0.6620363750000031,
          "durationTicks": 286,
          "midi": 69,
          "name": "A4",
          "ticks": 7584,
          "time": 17.555538,
          "velocity": 0.8661417322834646
        },
        {
          "duration": 0.439814375000001,
          "durationTicks": 190,
          "midi": 64,
          "name": "E4",
          "ticks": 7776,
          "time": 17.999982,
          "velocity": 0.8661417322834646
        },
        {
          "duration": 1.1064803750000003,
          "durationTicks": 478,
          "midi": 57,
          "name": "A3",
          "ticks": 7776,
          "time": 17.999982,
          "velocity": 0.8661417322834646
        },
        {
          "duration": 0.439814375000001,
          "durationTicks": 190,
          "midi": 73,
          "name": "C#5",
          "ticks": 7872,
          "time": 18.222204,
          "velocity": 0.8661417322834646
        },
        {
          "duration": 0.439814375000001,
          "durationTicks": 190,
          "midi": 69,
          "name": "A4",
          "ticks": 7968,
          "time": 18.444426,
          "velocity": 0.8661417322834646
        },
        {
          "duration": 0.2175923750000024,
          "durationTicks": 94,
          "midi": 71,
          "name": "B4",
          "ticks": 8064,
          "time": 18.666648,
          "velocity": 0.8661417322834646
        },
        {
          "duration": 0.6620363749999996,
          "durationTicks": 286,
          "midi": 73,
          "name": "C#5",
          "ticks": 8160,
          "time": 18.88887,
          "velocity": 0.8661417322834646
        },
        {
          "duration": 0.6620363749999996,
          "durationTicks": 286,
          "midi": 69,
          "name": "A4",
          "ticks": 8160,
          "time": 18.88887,
          "velocity": 0.8661417322834646
        },
        {
          "duration": 0.2175923750000024,
          "durationTicks": 94,
          "midi": 64,
          "name": "E4",
          "ticks": 8256,
          "time": 19.111092,
          "velocity": 0.8661417322834646
        },
        {
          "duration": 0.21759237499999884,
          "durationTicks": 94,
          "midi": 62,
          "name": "D4",
          "ticks": 8352,
          "time": 19.333314,
          "velocity": 0.8661417322834646
        },
        {
          "duration": 0.21759237499999884,
          "durationTicks": 94,
          "midi": 66,
          "name": "F#4",
          "ticks": 8352,
          "time": 19.333314,
          "velocity": 0.8661417322834646
        },
        {
          "duration": 0.439814375000001,
          "durationTicks": 190,
          "midi": 66,
          "name": "F#4",
          "ticks": 8448,
          "time": 19.555536,
          "velocity": 0.8661417322834646
        },
        {
          "duration": 0.439814375000001,
          "durationTicks": 190,
          "midi": 62,
          "name": "D4",
          "ticks": 8448,
          "time": 19.555536,
          "velocity": 0.8661417322834646
        },
        {
          "duration": 0.439814375000001,
          "durationTicks": 190,
          "midi": 57,
          "name": "A3",
          "ticks": 8448,
          "time": 19.555536,
          "velocity": 0.8661417322834646
        },
        {
          "duration": 0.8842583750000017,
          "durationTicks": 382,
          "midi": 54,
          "name": "F#3",
          "ticks": 8448,
          "time": 19.555536,
          "velocity": 0.8661417322834646
        },
        {
          "duration": 0.8842583750000017,
          "durationTicks": 382,
          "midi": 50,
          "name": "D3",
          "ticks": 8448,
          "time": 19.555536,
          "velocity": 0.8661417322834646
        },
        {
          "duration": 0.21759237499999884,
          "durationTicks": 94,
          "midi": 73,
          "name": "C#5",
          "ticks": 8640,
          "time": 19.99998,
          "velocity": 0.8661417322834646
        },
        {
          "duration": 0.439814375000001,
          "durationTicks": 190,
          "midi": 66,
          "name": "F#4",
          "ticks": 8640,
          "time": 19.99998,
          "velocity": 0.8661417322834646
        },
        {
          "duration": 0.439814375000001,
          "durationTicks": 190,
          "midi": 57,
          "name": "A3",
          "ticks": 8640,
          "time": 19.99998,
          "velocity": 0.8661417322834646
        },
        {
          "duration": 0.439814375000001,
          "durationTicks": 190,
          "midi": 62,
          "name": "D4",
          "ticks": 8640,
          "time": 19.99998,
          "velocity": 0.8661417322834646
        },
        {
          "duration": 0.439814375000001,
          "durationTicks": 190,
          "midi": 71,
          "name": "B4",
          "ticks": 8736,
          "time": 20.222202,
          "velocity": 0.8661417322834646
        },
        {
          "duration": 0.439814375000001,
          "durationTicks": 190,
          "midi": 57,
          "name": "A3",
          "ticks": 8832,
          "time": 20.444424,
          "velocity": 0.8661417322834646
        },
        {
          "duration": 0.439814375000001,
          "durationTicks": 190,
          "midi": 62,
          "name": "D4",
          "ticks": 8832,
          "time": 20.444424,
          "velocity": 0.8661417322834646
        },
        {
          "duration": 0.439814375000001,
          "durationTicks": 190,
          "midi": 54,
          "name": "F#3",
          "ticks": 8832,
          "time": 20.444424,
          "velocity": 0.8661417322834646
        },
        {
          "duration": 0.439814375000001,
          "durationTicks": 190,
          "midi": 66,
          "name": "F#4",
          "ticks": 8832,
          "time": 20.444424,
          "velocity": 0.8661417322834646
        },
        {
          "duration": 0.439814375000001,
          "durationTicks": 190,
          "midi": 50,
          "name": "D3",
          "ticks": 8832,
          "time": 20.444424,
          "velocity": 0.8661417322834646
        },
        {
          "duration": 0.439814375000001,
          "durationTicks": 190,
          "midi": 73,
          "name": "C#5",
          "ticks": 8928,
          "time": 20.666646,
          "velocity": 0.8661417322834646
        },
        {
          "duration": 0.2175923750000024,
          "durationTicks": 94,
          "midi": 62,
          "name": "D4",
          "ticks": 9024,
          "time": 20.888868,
          "velocity": 0.8661417322834646
        },
        {
          "duration": 0.2175923750000024,
          "durationTicks": 94,
          "midi": 52,
          "name": "E3",
          "ticks": 9024,
          "time": 20.888868,
          "velocity": 0.8661417322834646
        },
        {
          "duration": 0.2175923750000024,
          "durationTicks": 94,
          "midi": 57,
          "name": "A3",
          "ticks": 9024,
          "time": 20.888868,
          "velocity": 0.8661417322834646
        },
        {
          "duration": 0.439814375000001,
          "durationTicks": 190,
          "midi": 63,
          "name": "D#4",
          "ticks": 9120,
          "time": 21.11109,
          "velocity": 0.8661417322834646
        },
        {
          "duration": 0.439814375000001,
          "durationTicks": 190,
          "midi": 54,
          "name": "F#3",
          "ticks": 9120,
          "time": 21.11109,
          "velocity": 0.8661417322834646
        },
        {
          "duration": 0.439814375000001,
          "durationTicks": 190,
          "midi": 69,
          "name": "A4",
          "ticks": 9120,
          "time": 21.11109,
          "velocity": 0.8661417322834646
        },
        {
          "duration": 0.439814375000001,
          "durationTicks": 190,
          "midi": 57,
          "name": "A3",
          "ticks": 9120,
          "time": 21.11109,
          "velocity": 0.8661417322834646
        },
        {
          "duration": 0.2175923750000024,
          "durationTicks": 94,
          "midi": 47,
          "name": "B2",
          "ticks": 9216,
          "time": 21.333312,
          "velocity": 0.8661417322834646
        },
        {
          "duration": 0.21759237499999884,
          "durationTicks": 94,
          "midi": 57,
          "name": "A3",
          "ticks": 9312,
          "time": 21.555534,
          "velocity": 0.8661417322834646
        },
        {
          "duration": 0.21759237499999884,
          "durationTicks": 94,
          "midi": 47,
          "name": "B2",
          "ticks": 9312,
          "time": 21.555534,
          "velocity": 0.8661417322834646
        },
        {
          "duration": 0.21759237499999884,
          "durationTicks": 94,
          "midi": 69,
          "name": "A4",
          "ticks": 9312,
          "time": 21.555534,
          "velocity": 0.8661417322834646
        },
        {
          "duration": 0.21759237499999884,
          "durationTicks": 94,
          "midi": 63,
          "name": "D#4",
          "ticks": 9312,
          "time": 21.555534,
          "velocity": 0.8661417322834646
        },
        {
          "duration": 0.21759237499999884,
          "durationTicks": 94,
          "midi": 54,
          "name": "F#3",
          "ticks": 9312,
          "time": 21.555534,
          "velocity": 0.8661417322834646
        },
        {
          "duration": 0.439814375000001,
          "durationTicks": 190,
          "midi": 69,
          "name": "A4",
          "ticks": 9408,
          "time": 21.777756,
          "velocity": 0.8661417322834646
        },
        {
          "duration": 0.439814375000001,
          "durationTicks": 190,
          "midi": 54,
          "name": "F#3",
          "ticks": 9408,
          "time": 21.777756,
          "velocity": 0.8661417322834646
        },
        {
          "duration": 0.439814375000001,
          "durationTicks": 190,
          "midi": 57,
          "name": "A3",
          "ticks": 9408,
          "time": 21.777756,
          "velocity": 0.8661417322834646
        },
        {
          "duration": 0.439814375000001,
          "durationTicks": 190,
          "midi": 47,
          "name": "B2",
          "ticks": 9408,
          "time": 21.777756,
          "velocity": 0.8661417322834646
        },
        {
          "duration": 0.439814375000001,
          "durationTicks": 190,
          "midi": 63,
          "name": "D#4",
          "ticks": 9408,
          "time": 21.777756,
          "velocity": 0.8661417322834646
        },
        {
          "duration": 0.439814375000001,
          "durationTicks": 190,
          "midi": 69,
          "name": "A4",
          "ticks": 9600,
          "time": 22.2222,
          "velocity": 0.8661417322834646
        },
        {
          "duration": 0.439814375000001,
          "durationTicks": 190,
          "midi": 47,
          "name": "B2",
          "ticks": 9600,
          "time": 22.2222,
          "velocity": 0.8661417322834646
        },
        {
          "duration": 0.439814375000001,
          "durationTicks": 190,
          "midi": 63,
          "name": "D#4",
          "ticks": 9600,
          "time": 22.2222,
          "velocity": 0.8661417322834646
        },
        {
          "duration": 0.439814375000001,
          "durationTicks": 190,
          "midi": 57,
          "name": "A3",
          "ticks": 9600,
          "time": 22.2222,
          "velocity": 0.8661417322834646
        },
        {
          "duration": 0.439814375000001,
          "durationTicks": 190,
          "midi": 54,
          "name": "F#3",
          "ticks": 9600,
          "time": 22.2222,
          "velocity": 0.8661417322834646
        },
        {
          "duration": 0.439814375000001,
          "durationTicks": 190,
          "midi": 57,
          "name": "A3",
          "ticks": 9792,
          "time": 22.666644,
          "velocity": 0.8661417322834646
        },
        {
          "duration": 0.439814375000001,
          "durationTicks": 190,
          "midi": 69,
          "name": "A4",
          "ticks": 9792,
          "time": 22.666644,
          "velocity": 0.8661417322834646
        },
        {
          "duration": 0.439814375000001,
          "durationTicks": 190,
          "midi": 47,
          "name": "B2",
          "ticks": 9792,
          "time": 22.666644,
          "velocity": 0.8661417322834646
        },
        {
          "duration": 0.439814375000001,
          "durationTicks": 190,
          "midi": 63,
          "name": "D#4",
          "ticks": 9792,
          "time": 22.666644,
          "velocity": 0.8661417322834646
        },
        {
          "duration": 0.439814375000001,
          "durationTicks": 190,
          "midi": 54,
          "name": "F#3",
          "ticks": 9792,
          "time": 22.666644,
          "velocity": 0.8661417322834646
        },
        {
          "duration": 0.439814375000001,
          "durationTicks": 190,
          "midi": 73,
          "name": "C#5",
          "ticks": 10080,
          "time": 23.33331,
          "velocity": 0.8661417322834646
        },
        {
          "duration": 0.439814375000001,
          "durationTicks": 190,
          "midi": 71,
          "name": "B4",
          "ticks": 10272,
          "time": 23.777754,
          "velocity": 0.8661417322834646
        },
        {
          "duration": 0.6620363750000031,
          "durationTicks": 286,
          "midi": 69,
          "name": "A4",
          "ticks": 10464,
          "time": 24.222198,
          "velocity": 0.8661417322834646
        },
        {
          "duration": 0.439814375000001,
          "durationTicks": 190,
          "midi": 64,
          "name": "E4",
          "ticks": 10656,
          "time": 24.666642,
          "velocity": 0.8661417322834646
        },
        {
          "duration": 0.439814375000001,
          "durationTicks": 190,
          "midi": 66,
          "name": "F#4",
          "ticks": 10752,
          "time": 24.888864,
          "velocity": 0.8661417322834646
        },
        {
          "duration": 0.439814375000001,
          "durationTicks": 190,
          "midi": 69,
          "name": "A4",
          "ticks": 10848,
          "time": 25.111086,
          "velocity": 0.8661417322834646
        },
        {
          "duration": 0.439814375000001,
          "durationTicks": 190,
          "midi": 71,
          "name": "B4",
          "ticks": 10944,
          "time": 25.333308,
          "velocity": 0.8661417322834646
        },
        {
          "duration": 0.439814375000001,
          "durationTicks": 190,
          "midi": 64,
          "name": "E4",
          "ticks": 11040,
          "time": 25.55553,
          "velocity": 0.8661417322834646
        },
        {
          "duration": 0.439814375000001,
          "durationTicks": 190,
          "midi": 69,
          "name": "A4",
          "ticks": 11136,
          "time": 25.777752,
          "velocity": 0.8661417322834646
        },
        {
          "duration": 0.439814375000001,
          "durationTicks": 190,
          "midi": 71,
          "name": "B4",
          "ticks": 11232,
          "time": 25.999974,
          "velocity": 0.8661417322834646
        },
        {
          "duration": 0.439814375000001,
          "durationTicks": 190,
          "midi": 62,
          "name": "D4",
          "ticks": 11328,
          "time": 26.222196,
          "velocity": 0.8661417322834646
        },
        {
          "duration": 0.439814375000001,
          "durationTicks": 190,
          "midi": 69,
          "name": "A4",
          "ticks": 11424,
          "time": 26.444418,
          "velocity": 0.8661417322834646
        },
        {
          "duration": 0.439814375000001,
          "durationTicks": 190,
          "midi": 71,
          "name": "B4",
          "ticks": 11520,
          "time": 26.66664,
          "velocity": 0.8661417322834646
        },
        {
          "duration": 0.439814375000001,
          "durationTicks": 190,
          "midi": 64,
          "name": "E4",
          "ticks": 11616,
          "time": 26.888862,
          "velocity": 0.8661417322834646
        },
        {
          "duration": 0.439814375000001,
          "durationTicks": 190,
          "midi": 69,
          "name": "A4",
          "ticks": 11712,
          "time": 27.111084,
          "velocity": 0.8661417322834646
        },
        {
          "duration": 0.439814375000001,
          "durationTicks": 190,
          "midi": 71,
          "name": "B4",
          "ticks": 11808,
          "time": 27.333306,
          "velocity": 0.8661417322834646
        },
        {
          "duration": 0.439814375000001,
          "durationTicks": 190,
          "midi": 69,
          "name": "A4",
          "ticks": 11904,
          "time": 27.555528,
          "velocity": 0.8661417322834646
        },
        {
          "duration": 0.439814375000001,
          "durationTicks": 190,
          "midi": 68,
          "name": "G#4",
          "ticks": 12000,
          "time": 27.77775,
          "velocity": 0.8661417322834646
        },
        {
          "duration": 0.439814375000001,
          "durationTicks": 190,
          "midi": 66,
          "name": "F#4",
          "ticks": 12096,
          "time": 27.999972,
          "velocity": 0.8661417322834646
        },
        {
          "duration": 0.21759237499999884,
          "durationTicks": 94,
          "midi": 64,
          "name": "E4",
          "ticks": 12192,
          "time": 28.222194000000002,
          "velocity": 0.8661417322834646
        },
        {
          "duration": 0.6620363749999996,
          "durationTicks": 286,
          "midi": 69,
          "name": "A4",
          "ticks": 12288,
          "time": 28.444416,
          "velocity": 0.8661417322834646
        },
        {
          "duration": 1.7731463749999996,
          "durationTicks": 766,
          "midi": 52,
          "name": "E3",
          "ticks": 12288,
          "time": 28.444416,
          "velocity": 0.8661417322834646
        },
        {
          "duration": 1.7731463749999996,
          "durationTicks": 766,
          "midi": 57,
          "name": "A3",
          "ticks": 12288,
          "time": 28.444416,
          "velocity": 0.8661417322834646
        },
        {
          "duration": 1.5509243749999975,
          "durationTicks": 670,
          "midi": 64,
          "name": "E4",
          "ticks": 12288,
          "time": 28.444416,
          "velocity": 0.8661417322834646
        },
        {
          "duration": 0.4398143749999974,
          "durationTicks": 190,
          "midi": 73,
          "name": "C#5",
          "ticks": 12480,
          "time": 28.88886,
          "velocity": 0.8661417322834646
        },
        {
          "duration": 0.8842583749999982,
          "durationTicks": 382,
          "midi": 69,
          "name": "A4",
          "ticks": 12576,
          "time": 29.111082,
          "velocity": 0.8661417322834646
        },
        {
          "duration": 0.21759237499999529,
          "durationTicks": 94,
          "midi": 71,
          "name": "B4",
          "ticks": 12672,
          "time": 29.333304000000002,
          "velocity": 0.8661417322834646
        },
        {
          "duration": 0.6620363749999996,
          "durationTicks": 286,
          "midi": 73,
          "name": "C#5",
          "ticks": 12768,
          "time": 29.555526,
          "velocity": 0.8661417322834646
        },
        {
          "duration": 1.3287023749999989,
          "durationTicks": 574,
          "midi": 64,
          "name": "E4",
          "ticks": 12960,
          "time": 29.99997,
          "velocity": 0.8661417322834646
        },
        {
          "duration": 1.3287023749999989,
          "durationTicks": 574,
          "midi": 69,
          "name": "A4",
          "ticks": 12960,
          "time": 29.99997,
          "velocity": 0.8661417322834646
        },
        {
          "duration": 0.21759237499999884,
          "durationTicks": 94,
          "midi": 73,
          "name": "C#5",
          "ticks": 13248,
          "time": 30.666636,
          "velocity": 0.8661417322834646
        },
        {
          "duration": 0.8842583749999982,
          "durationTicks": 382,
          "midi": 71,
          "name": "B4",
          "ticks": 13344,
          "time": 30.888858,
          "velocity": 0.8661417322834646
        },
        {
          "duration": 0.4398143749999974,
          "durationTicks": 190,
          "midi": 69,
          "name": "A4",
          "ticks": 13536,
          "time": 31.333302,
          "velocity": 0.8661417322834646
        },
        {
          "duration": 0.4398143749999974,
          "durationTicks": 190,
          "midi": 64,
          "name": "E4",
          "ticks": 13536,
          "time": 31.333302,
          "velocity": 0.8661417322834646
        },
        {
          "duration": 0.4398143749999974,
          "durationTicks": 190,
          "midi": 57,
          "name": "A3",
          "ticks": 13728,
          "time": 31.777746,
          "velocity": 0.8661417322834646
        },
        {
          "duration": 0.4398143749999974,
          "durationTicks": 190,
          "midi": 66,
          "name": "F#4",
          "ticks": 13728,
          "time": 31.777746,
          "velocity": 0.8661417322834646
        },
        {
          "duration": 0.4398143749999974,
          "durationTicks": 190,
          "midi": 62,
          "name": "D4",
          "ticks": 13728,
          "time": 31.777746,
          "velocity": 0.8661417322834646
        },
        {
          "duration": 0.2175923750000024,
          "durationTicks": 94,
          "midi": 69,
          "name": "A4",
          "ticks": 13920,
          "time": 32.22219,
          "velocity": 0.8661417322834646
        },
        {
          "duration": 0.4398143749999974,
          "durationTicks": 190,
          "midi": 57,
          "name": "A3",
          "ticks": 13920,
          "time": 32.22219,
          "velocity": 0.8661417322834646
        },
        {
          "duration": 0.4398143749999974,
          "durationTicks": 190,
          "midi": 54,
          "name": "F#3",
          "ticks": 13920,
          "time": 32.22219,
          "velocity": 0.8661417322834646
        },
        {
          "duration": 0.4398143749999974,
          "durationTicks": 190,
          "midi": 62,
          "name": "D4",
          "ticks": 13920,
          "time": 32.22219,
          "velocity": 0.8661417322834646
        },
        {
          "duration": 0.4398143749999974,
          "durationTicks": 190,
          "midi": 50,
          "name": "D3",
          "ticks": 13920,
          "time": 32.22219,
          "velocity": 0.8661417322834646
        },
        {
          "duration": 0.21759237499999529,
          "durationTicks": 94,
          "midi": 69,
          "name": "A4",
          "ticks": 14016,
          "time": 32.444412,
          "velocity": 0.8661417322834646
        },
        {
          "duration": 0.6620363749999996,
          "durationTicks": 286,
          "midi": 54,
          "name": "F#3",
          "ticks": 14112,
          "time": 32.666634,
          "velocity": 0.8661417322834646
        },
        {
          "duration": 0.6620363749999996,
          "durationTicks": 286,
          "midi": 57,
          "name": "A3",
          "ticks": 14112,
          "time": 32.666634,
          "velocity": 0.8661417322834646
        },
        {
          "duration": 0.4398143749999974,
          "durationTicks": 190,
          "midi": 71,
          "name": "B4",
          "ticks": 14112,
          "time": 32.666634,
          "velocity": 0.8661417322834646
        },
        {
          "duration": 0.6620363749999996,
          "durationTicks": 286,
          "midi": 50,
          "name": "D3",
          "ticks": 14112,
          "time": 32.666634,
          "velocity": 0.8661417322834646
        },
        {
          "duration": 0.8842583749999946,
          "durationTicks": 382,
          "midi": 66,
          "name": "F#4",
          "ticks": 14112,
          "time": 32.666634,
          "velocity": 0.8661417322834646
        },
        {
          "duration": 0.6620363749999996,
          "durationTicks": 286,
          "midi": 69,
          "name": "A4",
          "ticks": 14304,
          "time": 33.111078,
          "velocity": 0.8661417322834646
        },
        {
          "duration": 0.4398143749999974,
          "durationTicks": 190,
          "midi": 54,
          "name": "F#3",
          "ticks": 14400,
          "time": 33.3333,
          "velocity": 0.8661417322834646
        },
        {
          "duration": 0.4398143749999974,
          "durationTicks": 190,
          "midi": 57,
          "name": "A3",
          "ticks": 14400,
          "time": 33.3333,
          "velocity": 0.8661417322834646
        },
        {
          "duration": 0.4398143749999974,
          "durationTicks": 190,
          "midi": 50,
          "name": "D3",
          "ticks": 14400,
          "time": 33.3333,
          "velocity": 0.8661417322834646
        },
        {
          "duration": 0.21759237499999529,
          "durationTicks": 94,
          "midi": 66,
          "name": "F#4",
          "ticks": 14496,
          "time": 33.555522,
          "velocity": 0.8661417322834646
        },
        {
          "duration": 0.4398143749999974,
          "durationTicks": 190,
          "midi": 59,
          "name": "B3",
          "ticks": 14592,
          "time": 33.777744,
          "velocity": 0.8661417322834646
        },
        {
          "duration": 0.2175923750000024,
          "durationTicks": 94,
          "midi": 68,
          "name": "G#4",
          "ticks": 14592,
          "time": 33.777744,
          "velocity": 0.8661417322834646
        },
        {
          "duration": 0.4398143749999974,
          "durationTicks": 190,
          "midi": 62,
          "name": "D4",
          "ticks": 14592,
          "time": 33.777744,
          "velocity": 0.8661417322834646
        },
        {
          "duration": 0.4398143749999974,
          "durationTicks": 190,
          "midi": 52,
          "name": "E3",
          "ticks": 14592,
          "time": 33.777744,
          "velocity": 0.8661417322834646
        },
        {
          "duration": 0.21759237499999529,
          "durationTicks": 94,
          "midi": 66,
          "name": "F#4",
          "ticks": 14688,
          "time": 33.999966,
          "velocity": 0.8661417322834646
        },
        {
          "duration": 0.21759237499999529,
          "durationTicks": 94,
          "midi": 52,
          "name": "E3",
          "ticks": 14784,
          "time": 34.222188,
          "velocity": 0.8661417322834646
        },
        {
          "duration": 0.21759237499999529,
          "durationTicks": 94,
          "midi": 68,
          "name": "G#4",
          "ticks": 14784,
          "time": 34.222188,
          "velocity": 0.8661417322834646
        },
        {
          "duration": 0.21759237499999529,
          "durationTicks": 94,
          "midi": 62,
          "name": "D4",
          "ticks": 14784,
          "time": 34.222188,
          "velocity": 0.8661417322834646
        },
        {
          "duration": 0.21759237499999529,
          "durationTicks": 94,
          "midi": 59,
          "name": "B3",
          "ticks": 14784,
          "time": 34.222188,
          "velocity": 0.8661417322834646
        },
        {
          "duration": 0.4398143749999974,
          "durationTicks": 190,
          "midi": 69,
          "name": "A4",
          "ticks": 14880,
          "time": 34.44441,
          "velocity": 0.8661417322834646
        },
        {
          "duration": 0.4398143749999974,
          "durationTicks": 190,
          "midi": 62,
          "name": "D4",
          "ticks": 14880,
          "time": 34.44441,
          "velocity": 0.8661417322834646
        },
        {
          "duration": 0.4398143749999974,
          "durationTicks": 190,
          "midi": 52,
          "name": "E3",
          "ticks": 14880,
          "time": 34.44441,
          "velocity": 0.8661417322834646
        },
        {
          "duration": 0.4398143749999974,
          "durationTicks": 190,
          "midi": 59,
          "name": "B3",
          "ticks": 14880,
          "time": 34.44441,
          "velocity": 0.8661417322834646
        },
        {
          "duration": 0.6620363749999996,
          "durationTicks": 286,
          "midi": 52,
          "name": "E3",
          "ticks": 15072,
          "time": 34.888854,
          "velocity": 0.8661417322834646
        },
        {
          "duration": 0.6620363749999996,
          "durationTicks": 286,
          "midi": 62,
          "name": "D4",
          "ticks": 15072,
          "time": 34.888854,
          "velocity": 0.8661417322834646
        },
        {
          "duration": 0.4398143749999974,
          "durationTicks": 190,
          "midi": 68,
          "name": "G#4",
          "ticks": 15072,
          "time": 34.888854,
          "velocity": 0.8661417322834646
        },
        {
          "duration": 0.6620363749999996,
          "durationTicks": 286,
          "midi": 59,
          "name": "B3",
          "ticks": 15072,
          "time": 34.888854,
          "velocity": 0.8661417322834646
        },
        {
          "duration": 0.6620363749999996,
          "durationTicks": 286,
          "midi": 71,
          "name": "B4",
          "ticks": 15072,
          "time": 34.888854,
          "velocity": 0.8661417322834646
        },
        {
          "duration": 0.2175923750000024,
          "durationTicks": 94,
          "midi": 68,
          "name": "G#4",
          "ticks": 15264,
          "time": 35.333298,
          "velocity": 0.8661417322834646
        },
        {
          "duration": 0.4398143749999974,
          "durationTicks": 190,
          "midi": 73,
          "name": "C#5",
          "ticks": 15360,
          "time": 35.55552,
          "velocity": 0.8661417322834646
        },
        {
          "duration": 0.4398143749999974,
          "durationTicks": 190,
          "midi": 69,
          "name": "A4",
          "ticks": 15360,
          "time": 35.55552,
          "velocity": 0.8661417322834646
        },
        {
          "duration": 1.3287023749999989,
          "durationTicks": 574,
          "midi": 57,
          "name": "A3",
          "ticks": 15360,
          "time": 35.55552,
          "velocity": 0.8661417322834646
        },
        {
          "duration": 1.3287023749999989,
          "durationTicks": 574,
          "midi": 64,
          "name": "E4",
          "ticks": 15360,
          "time": 35.55552,
          "velocity": 0.8661417322834646
        },
        {
          "duration": 0.2175923750000024,
          "durationTicks": 94,
          "midi": 73,
          "name": "C#5",
          "ticks": 15552,
          "time": 35.999964,
          "velocity": 0.8661417322834646
        },
        {
          "duration": 0.8842583750000017,
          "durationTicks": 382,
          "midi": 69,
          "name": "A4",
          "ticks": 15552,
          "time": 35.999964,
          "velocity": 0.8661417322834646
        },
        {
          "duration": 0.21759237499999529,
          "durationTicks": 94,
          "midi": 73,
          "name": "C#5",
          "ticks": 15648,
          "time": 36.222186,
          "velocity": 0.8661417322834646
        },
        {
          "duration": 0.21759237499999529,
          "durationTicks": 94,
          "midi": 71,
          "name": "B4",
          "ticks": 15744,
          "time": 36.444408,
          "velocity": 0.8661417322834646
        },
        {
          "duration": 0.6620363749999996,
          "durationTicks": 286,
          "midi": 73,
          "name": "C#5",
          "ticks": 15840,
          "time": 36.66663,
          "velocity": 0.8661417322834646
        },
        {
          "duration": 0.8842583749999946,
          "durationTicks": 382,
          "midi": 69,
          "name": "A4",
          "ticks": 16032,
          "time": 37.111074,
          "velocity": 0.8661417322834646
        },
        {
          "duration": 1.550924374999994,
          "durationTicks": 670,
          "midi": 64,
          "name": "E4",
          "ticks": 16032,
          "time": 37.111074,
          "velocity": 0.8661417322834646
        },
        {
          "duration": 0.21759237499999529,
          "durationTicks": 94,
          "midi": 73,
          "name": "C#5",
          "ticks": 16320,
          "time": 37.77774,
          "velocity": 0.8661417322834646
        },
        {
          "duration": 0.4398143749999974,
          "durationTicks": 190,
          "midi": 71,
          "name": "B4",
          "ticks": 16416,
          "time": 37.999962000000004,
          "velocity": 0.8661417322834646
        },
        {
          "duration": 0.4398143749999974,
          "durationTicks": 190,
          "midi": 69,
          "name": "A4",
          "ticks": 16416,
          "time": 37.999962000000004,
          "velocity": 0.8661417322834646
        },
        {
          "duration": 0.4398143749999974,
          "durationTicks": 190,
          "midi": 69,
          "name": "A4",
          "ticks": 16608,
          "time": 38.444406,
          "velocity": 0.8661417322834646
        },
        {
          "duration": 0.8842583750000017,
          "durationTicks": 382,
          "midi": 66,
          "name": "F#4",
          "ticks": 16800,
          "time": 38.88885,
          "velocity": 0.8661417322834646
        },
        {
          "duration": 0.8842583750000017,
          "durationTicks": 382,
          "midi": 62,
          "name": "D4",
          "ticks": 16800,
          "time": 38.88885,
          "velocity": 0.8661417322834646
        },
        {
          "duration": 0.2175923750000024,
          "durationTicks": 94,
          "midi": 50,
          "name": "D3",
          "ticks": 16800,
          "time": 38.88885,
          "velocity": 0.8661417322834646
        },
        {
          "duration": 0.2175923750000024,
          "durationTicks": 94,
          "midi": 57,
          "name": "A3",
          "ticks": 16800,
          "time": 38.88885,
          "velocity": 0.8661417322834646
        },
        {
          "duration": 0.2175923750000024,
          "durationTicks": 94,
          "midi": 54,
          "name": "F#3",
          "ticks": 16800,
          "time": 38.88885,
          "velocity": 0.8661417322834646
        },
        {
          "duration": 0.8842583750000017,
          "durationTicks": 382,
          "midi": 54,
          "name": "F#3",
          "ticks": 16896,
          "time": 39.111072,
          "velocity": 0.8661417322834646
        },
        {
          "duration": 0.8842583750000017,
          "durationTicks": 382,
          "midi": 50,
          "name": "D3",
          "ticks": 16896,
          "time": 39.111072,
          "velocity": 0.8661417322834646
        },
        {
          "duration": 0.8842583750000017,
          "durationTicks": 382,
          "midi": 57,
          "name": "A3",
          "ticks": 16896,
          "time": 39.111072,
          "velocity": 0.8661417322834646
        },
        {
          "duration": 0.2175923750000024,
          "durationTicks": 94,
          "midi": 73,
          "name": "C#5",
          "ticks": 17088,
          "time": 39.555516,
          "velocity": 0.8661417322834646
        },
        {
          "duration": 0.8842583750000017,
          "durationTicks": 382,
          "midi": 66,
          "name": "F#4",
          "ticks": 17184,
          "time": 39.777738,
          "velocity": 0.8661417322834646
        },
        {
          "duration": 0.4398143749999974,
          "durationTicks": 190,
          "midi": 71,
          "name": "B4",
          "ticks": 17184,
          "time": 39.777738,
          "velocity": 0.8661417322834646
        },
        {
          "duration": 0.21759237499999529,
          "durationTicks": 94,
          "midi": 57,
          "name": "A3",
          "ticks": 17280,
          "time": 39.99996,
          "velocity": 0.8661417322834646
        },
        {
          "duration": 0.21759237499999529,
          "durationTicks": 94,
          "midi": 54,
          "name": "F#3",
          "ticks": 17280,
          "time": 39.99996,
          "velocity": 0.8661417322834646
        },
        {
          "duration": 0.21759237499999529,
          "durationTicks": 94,
          "midi": 57,
          "name": "A3",
          "ticks": 17376,
          "time": 40.222182000000004,
          "velocity": 0.8661417322834646
        },
        {
          "duration": 0.21759237499999529,
          "durationTicks": 94,
          "midi": 54,
          "name": "F#3",
          "ticks": 17376,
          "time": 40.222182000000004,
          "velocity": 0.8661417322834646
        },
        {
          "duration": 0.21759237499999529,
          "durationTicks": 94,
          "midi": 69,
          "name": "A4",
          "ticks": 17376,
          "time": 40.222182000000004,
          "velocity": 0.8661417322834646
        },
        {
          "duration": 0.2175923750000024,
          "durationTicks": 94,
          "midi": 57,
          "name": "A3",
          "ticks": 17472,
          "time": 40.444404,
          "velocity": 0.8661417322834646
        },
        {
          "duration": 0.2175923750000024,
          "durationTicks": 94,
          "midi": 69,
          "name": "A4",
          "ticks": 17472,
          "time": 40.444404,
          "velocity": 0.8661417322834646
        },
        {
          "duration": 0.2175923750000024,
          "durationTicks": 94,
          "midi": 54,
          "name": "F#3",
          "ticks": 17472,
          "time": 40.444404,
          "velocity": 0.8661417322834646
        },
        {
          "duration": 0.2175923750000024,
          "durationTicks": 94,
          "midi": 50,
          "name": "D3",
          "ticks": 17472,
          "time": 40.444404,
          "velocity": 0.8661417322834646
        },
        {
          "duration": 0.4398143749999974,
          "durationTicks": 190,
          "midi": 68,
          "name": "G#4",
          "ticks": 17568,
          "time": 40.666626,
          "velocity": 0.8661417322834646
        },
        {
          "duration": 1.9953683749999982,
          "durationTicks": 862,
          "midi": 52,
          "name": "E3",
          "ticks": 17568,
          "time": 40.666626,
          "velocity": 0.8661417322834646
        },
        {
          "duration": 0.4398143749999974,
          "durationTicks": 190,
          "midi": 59,
          "name": "B3",
          "ticks": 17568,
          "time": 40.666626,
          "velocity": 0.8661417322834646
        },
        {
          "duration": 0.4398143749999974,
          "durationTicks": 190,
          "midi": 62,
          "name": "D4",
          "ticks": 17568,
          "time": 40.666626,
          "velocity": 0.8661417322834646
        },
        {
          "duration": 0.2175923750000024,
          "durationTicks": 94,
          "midi": 59,
          "name": "B3",
          "ticks": 17760,
          "time": 41.11107,
          "velocity": 0.8661417322834646
        },
        {
          "duration": 0.2175923750000024,
          "durationTicks": 94,
          "midi": 62,
          "name": "D4",
          "ticks": 17760,
          "time": 41.11107,
          "velocity": 0.8661417322834646
        },
        {
          "duration": 0.2175923750000024,
          "durationTicks": 94,
          "midi": 68,
          "name": "G#4",
          "ticks": 17760,
          "time": 41.11107,
          "velocity": 0.8661417322834646
        },
        {
          "duration": 0.21759237499999529,
          "durationTicks": 94,
          "midi": 68,
          "name": "G#4",
          "ticks": 17856,
          "time": 41.333292,
          "velocity": 0.8661417322834646
        },
        {
          "duration": 0.21759237499999529,
          "durationTicks": 94,
          "midi": 62,
          "name": "D4",
          "ticks": 17856,
          "time": 41.333292,
          "velocity": 0.8661417322834646
        },
        {
          "duration": 0.21759237499999529,
          "durationTicks": 94,
          "midi": 59,
          "name": "B3",
          "ticks": 17856,
          "time": 41.333292,
          "velocity": 0.8661417322834646
        },
        {
          "duration": 0.21759237499999529,
          "durationTicks": 94,
          "midi": 68,
          "name": "G#4",
          "ticks": 17952,
          "time": 41.555514,
          "velocity": 0.8661417322834646
        },
        {
          "duration": 0.21759237499999529,
          "durationTicks": 94,
          "midi": 59,
          "name": "B3",
          "ticks": 17952,
          "time": 41.555514,
          "velocity": 0.8661417322834646
        },
        {
          "duration": 0.21759237499999529,
          "durationTicks": 94,
          "midi": 62,
          "name": "D4",
          "ticks": 17952,
          "time": 41.555514,
          "velocity": 0.8661417322834646
        },
        {
          "duration": 0.2175923750000024,
          "durationTicks": 94,
          "midi": 71,
          "name": "B4",
          "ticks": 18048,
          "time": 41.777736,
          "velocity": 0.8661417322834646
        },
        {
          "duration": 0.2175923750000024,
          "durationTicks": 94,
          "midi": 68,
          "name": "G#4",
          "ticks": 18048,
          "time": 41.777736,
          "velocity": 0.8661417322834646
        },
        {
          "duration": 0.2175923750000024,
          "durationTicks": 94,
          "midi": 59,
          "name": "B3",
          "ticks": 18048,
          "time": 41.777736,
          "velocity": 0.8661417322834646
        },
        {
          "duration": 0.2175923750000024,
          "durationTicks": 94,
          "midi": 62,
          "name": "D4",
          "ticks": 18048,
          "time": 41.777736,
          "velocity": 0.8661417322834646
        },
        {
          "duration": 0.2175923750000024,
          "durationTicks": 94,
          "midi": 68,
          "name": "G#4",
          "ticks": 18144,
          "time": 41.999958,
          "velocity": 0.8661417322834646
        },
        {
          "duration": 0.2175923750000024,
          "durationTicks": 94,
          "midi": 59,
          "name": "B3",
          "ticks": 18144,
          "time": 41.999958,
          "velocity": 0.8661417322834646
        },
        {
          "duration": 0.2175923750000024,
          "durationTicks": 94,
          "midi": 71,
          "name": "B4",
          "ticks": 18144,
          "time": 41.999958,
          "velocity": 0.8661417322834646
        },
        {
          "duration": 0.2175923750000024,
          "durationTicks": 94,
          "midi": 62,
          "name": "D4",
          "ticks": 18144,
          "time": 41.999958,
          "velocity": 0.8661417322834646
        },
        {
          "duration": 0.21759237499999529,
          "durationTicks": 94,
          "midi": 59,
          "name": "B3",
          "ticks": 18240,
          "time": 42.22218,
          "velocity": 0.8661417322834646
        },
        {
          "duration": 0.21759237499999529,
          "durationTicks": 94,
          "midi": 62,
          "name": "D4",
          "ticks": 18240,
          "time": 42.22218,
          "velocity": 0.8661417322834646
        },
        {
          "duration": 0.21759237499999529,
          "durationTicks": 94,
          "midi": 68,
          "name": "G#4",
          "ticks": 18240,
          "time": 42.22218,
          "velocity": 0.8661417322834646
        },
        {
          "duration": 0.21759237499999529,
          "durationTicks": 94,
          "midi": 71,
          "name": "B4",
          "ticks": 18240,
          "time": 42.22218,
          "velocity": 0.8661417322834646
        },
        {
          "duration": 0.21759237499999529,
          "durationTicks": 94,
          "midi": 59,
          "name": "B3",
          "ticks": 18336,
          "time": 42.444402000000004,
          "velocity": 0.8661417322834646
        },
        {
          "duration": 0.21759237499999529,
          "durationTicks": 94,
          "midi": 71,
          "name": "B4",
          "ticks": 18336,
          "time": 42.444402000000004,
          "velocity": 0.8661417322834646
        },
        {
          "duration": 0.21759237499999529,
          "durationTicks": 94,
          "midi": 62,
          "name": "D4",
          "ticks": 18336,
          "time": 42.444402000000004,
          "velocity": 0.8661417322834646
        },
        {
          "duration": 0.21759237499999529,
          "durationTicks": 94,
          "midi": 68,
          "name": "G#4",
          "ticks": 18336,
          "time": 42.444402000000004,
          "velocity": 0.8661417322834646
        },
        {
          "duration": 0.4398143749999974,
          "durationTicks": 190,
          "midi": 64,
          "name": "E4",
          "ticks": 18432,
          "time": 42.666624,
          "velocity": 0.8661417322834646
        },
        {
          "duration": 1.7731463750000032,
          "durationTicks": 766,
          "midi": 57,
          "name": "A3",
          "ticks": 18432,
          "time": 42.666624,
          "velocity": 0.8661417322834646
        },
        {
          "duration": 0.21759237499999529,
          "durationTicks": 94,
          "midi": 73,
          "name": "C#5",
          "ticks": 18624,
          "time": 43.111068,
          "velocity": 0.8661417322834646
        },
        {
          "duration": 0.21759237499999529,
          "durationTicks": 94,
          "midi": 69,
          "name": "A4",
          "ticks": 18624,
          "time": 43.111068,
          "velocity": 0.8661417322834646
        },
        {
          "duration": 0.8842583749999946,
          "durationTicks": 382,
          "midi": 64,
          "name": "E4",
          "ticks": 18624,
          "time": 43.111068,
          "velocity": 0.8661417322834646
        },
        {
          "duration": 0.4398143749999974,
          "durationTicks": 190,
          "midi": 71,
          "name": "B4",
          "ticks": 18720,
          "time": 43.33329,
          "velocity": 0.8661417322834646
        },
        {
          "duration": 0.4398143749999974,
          "durationTicks": 190,
          "midi": 69,
          "name": "A4",
          "ticks": 18720,
          "time": 43.33329,
          "velocity": 0.8661417322834646
        },
        {
          "duration": 0.4398143749999974,
          "durationTicks": 190,
          "midi": 73,
          "name": "C#5",
          "ticks": 18912,
          "time": 43.777734,
          "velocity": 0.8661417322834646
        },
        {
          "duration": 0.4398143749999974,
          "durationTicks": 190,
          "midi": 69,
          "name": "A4",
          "ticks": 18912,
          "time": 43.777734,
          "velocity": 0.8661417322834646
        },
        {
          "duration": 0.8842583750000017,
          "durationTicks": 382,
          "midi": 69,
          "name": "A4",
          "ticks": 19104,
          "time": 44.222178,
          "velocity": 0.8661417322834646
        },
        {
          "duration": 1.550924375000001,
          "durationTicks": 670,
          "midi": 64,
          "name": "E4",
          "ticks": 19104,
          "time": 44.222178,
          "velocity": 0.8661417322834646
        },
        {
          "duration": 1.3287023749999918,
          "durationTicks": 574,
          "midi": 57,
          "name": "A3",
          "ticks": 19296,
          "time": 44.666622000000004,
          "velocity": 0.8661417322834646
        },
        {
          "duration": 0.6620363749999996,
          "durationTicks": 286,
          "midi": 73,
          "name": "C#5",
          "ticks": 19392,
          "time": 44.888844,
          "velocity": 0.8661417322834646
        },
        {
          "duration": 0.8842583749999946,
          "durationTicks": 382,
          "midi": 69,
          "name": "A4",
          "ticks": 19488,
          "time": 45.111066,
          "velocity": 0.8661417322834646
        },
        {
          "duration": 0.6620363749999925,
          "durationTicks": 286,
          "midi": 71,
          "name": "B4",
          "ticks": 19584,
          "time": 45.333288,
          "velocity": 0.8661417322834646
        },
        {
          "duration": 0.4398143749999974,
          "durationTicks": 190,
          "midi": 73,
          "name": "C#5",
          "ticks": 19680,
          "time": 45.55551,
          "velocity": 0.8661417322834646
        },
        {
          "duration": 1.3287023749999989,
          "durationTicks": 574,
          "midi": 50,
          "name": "D3",
          "ticks": 19968,
          "time": 46.222176,
          "velocity": 0.8661417322834646
        },
        {
          "duration": 0.4398143749999974,
          "durationTicks": 190,
          "midi": 71,
          "name": "B4",
          "ticks": 20256,
          "time": 46.888842000000004,
          "velocity": 0.8661417322834646
        },
        {
          "duration": 0.4398143749999974,
          "durationTicks": 190,
          "midi": 73,
          "name": "C#5",
          "ticks": 20448,
          "time": 47.333286,
          "velocity": 0.8661417322834646
        },
        {
          "duration": 0.2175923750000024,
          "durationTicks": 94,
          "midi": 54,
          "name": "F#3",
          "ticks": 20640,
          "time": 47.77773,
          "velocity": 0.8661417322834646
        },
        {
          "duration": 0.4398143749999974,
          "durationTicks": 190,
          "midi": 69,
          "name": "A4",
          "ticks": 20640,
          "time": 47.77773,
          "velocity": 0.8661417322834646
        },
        {
          "duration": 0.2175923750000024,
          "durationTicks": 94,
          "midi": 57,
          "name": "A3",
          "ticks": 20640,
          "time": 47.77773,
          "velocity": 0.8661417322834646
        },
        {
          "duration": 0.2175923750000024,
          "durationTicks": 94,
          "midi": 63,
          "name": "D#4",
          "ticks": 20640,
          "time": 47.77773,
          "velocity": 0.8661417322834646
        },
        {
          "duration": 0.21759237499999529,
          "durationTicks": 94,
          "midi": 63,
          "name": "D#4",
          "ticks": 20736,
          "time": 47.999952,
          "velocity": 0.8661417322834646
        },
        {
          "duration": 0.21759237499999529,
          "durationTicks": 94,
          "midi": 54,
          "name": "F#3",
          "ticks": 20736,
          "time": 47.999952,
          "velocity": 0.8661417322834646
        },
        {
          "duration": 0.21759237499999529,
          "durationTicks": 94,
          "midi": 57,
          "name": "A3",
          "ticks": 20736,
          "time": 47.999952,
          "velocity": 0.8661417322834646
        },
        {
          "duration": 0.21759237499999529,
          "durationTicks": 94,
          "midi": 54,
          "name": "F#3",
          "ticks": 20832,
          "time": 48.222174,
          "velocity": 0.8661417322834646
        },
        {
          "duration": 0.21759237499999529,
          "durationTicks": 94,
          "midi": 57,
          "name": "A3",
          "ticks": 20832,
          "time": 48.222174,
          "velocity": 0.8661417322834646
        },
        {
          "duration": 0.21759237499999529,
          "durationTicks": 94,
          "midi": 63,
          "name": "D#4",
          "ticks": 20832,
          "time": 48.222174,
          "velocity": 0.8661417322834646
        },
        {
          "duration": 0.21759237499999529,
          "durationTicks": 94,
          "midi": 69,
          "name": "A4",
          "ticks": 20832,
          "time": 48.222174,
          "velocity": 0.8661417322834646
        },
        {
          "duration": 0.4398143749999974,
          "durationTicks": 190,
          "midi": 47,
          "name": "B2",
          "ticks": 20928,
          "time": 48.444396,
          "velocity": 0.8661417322834646
        },
        {
          "duration": 0.8842583750000017,
          "durationTicks": 382,
          "midi": 69,
          "name": "A4",
          "ticks": 20928,
          "time": 48.444396,
          "velocity": 0.8661417322834646
        },
        {
          "duration": 0.4398143749999974,
          "durationTicks": 190,
          "midi": 63,
          "name": "D#4",
          "ticks": 20928,
          "time": 48.444396,
          "velocity": 0.8661417322834646
        },
        {
          "duration": 0.4398143749999974,
          "durationTicks": 190,
          "midi": 57,
          "name": "A3",
          "ticks": 20928,
          "time": 48.444396,
          "velocity": 0.8661417322834646
        },
        {
          "duration": 0.4398143749999974,
          "durationTicks": 190,
          "midi": 54,
          "name": "F#3",
          "ticks": 20928,
          "time": 48.444396,
          "velocity": 0.8661417322834646
        },
        {
          "duration": 0.4398143749999974,
          "durationTicks": 190,
          "midi": 57,
          "name": "A3",
          "ticks": 21120,
          "time": 48.88884,
          "velocity": 0.8661417322834646
        },
        {
          "duration": 0.4398143749999974,
          "durationTicks": 190,
          "midi": 54,
          "name": "F#3",
          "ticks": 21120,
          "time": 48.88884,
          "velocity": 0.8661417322834646
        },
        {
          "duration": 0.4398143749999974,
          "durationTicks": 190,
          "midi": 47,
          "name": "B2",
          "ticks": 21120,
          "time": 48.88884,
          "velocity": 0.8661417322834646
        },
        {
          "duration": 0.4398143749999974,
          "durationTicks": 190,
          "midi": 63,
          "name": "D#4",
          "ticks": 21120,
          "time": 48.88884,
          "velocity": 0.8661417322834646
        },
        {
          "duration": 0.4398143749999974,
          "durationTicks": 190,
          "midi": 47,
          "name": "B2",
          "ticks": 21312,
          "time": 49.333284,
          "velocity": 0.8661417322834646
        },
        {
          "duration": 0.4398143749999974,
          "durationTicks": 190,
          "midi": 54,
          "name": "F#3",
          "ticks": 21312,
          "time": 49.333284,
          "velocity": 0.8661417322834646
        },
        {
          "duration": 0.4398143749999974,
          "durationTicks": 190,
          "midi": 57,
          "name": "A3",
          "ticks": 21312,
          "time": 49.333284,
          "velocity": 0.8661417322834646
        },
        {
          "duration": 0.4398143749999974,
          "durationTicks": 190,
          "midi": 69,
          "name": "A4",
          "ticks": 21312,
          "time": 49.333284,
          "velocity": 0.8661417322834646
        },
        {
          "duration": 0.4398143749999974,
          "durationTicks": 190,
          "midi": 63,
          "name": "D#4",
          "ticks": 21312,
          "time": 49.333284,
          "velocity": 0.8661417322834646
        },
        {
          "duration": 0.21759237499999529,
          "durationTicks": 94,
          "midi": 66,
          "name": "F#4",
          "ticks": 21408,
          "time": 49.555506,
          "velocity": 0.8661417322834646
        },
        {
          "duration": 1.3287023749999918,
          "durationTicks": 574,
          "midi": 64,
          "name": "E4",
          "ticks": 21504,
          "time": 49.777728,
          "velocity": 0.8661417322834646
        },
        {
          "duration": 1.3287023749999918,
          "durationTicks": 574,
          "midi": 57,
          "name": "A3",
          "ticks": 21504,
          "time": 49.777728,
          "velocity": 0.8661417322834646
        },
        {
          "duration": 0.4398143749999974,
          "durationTicks": 190,
          "midi": 73,
          "name": "C#5",
          "ticks": 21600,
          "time": 49.99995,
          "velocity": 0.8661417322834646
        },
        {
          "duration": 0.4398143749999974,
          "durationTicks": 190,
          "midi": 71,
          "name": "B4",
          "ticks": 21792,
          "time": 50.444394,
          "velocity": 0.8661417322834646
        },
        {
          "duration": 0.6620363749999996,
          "durationTicks": 286,
          "midi": 69,
          "name": "A4",
          "ticks": 21984,
          "time": 50.888838,
          "velocity": 0.8661417322834646
        },
        {
          "duration": 0.4398143749999974,
          "durationTicks": 190,
          "midi": 64,
          "name": "E4",
          "ticks": 22176,
          "time": 51.333282000000004,
          "velocity": 0.8661417322834646
        },
        {
          "duration": 0.4398143749999974,
          "durationTicks": 190,
          "midi": 66,
          "name": "F#4",
          "ticks": 22272,
          "time": 51.555504,
          "velocity": 0.8661417322834646
        },
        {
          "duration": 0.4398143749999974,
          "durationTicks": 190,
          "midi": 69,
          "name": "A4",
          "ticks": 22368,
          "time": 51.777726,
          "velocity": 0.8661417322834646
        },
        {
          "duration": 0.4398143749999974,
          "durationTicks": 190,
          "midi": 71,
          "name": "B4",
          "ticks": 22464,
          "time": 51.999948,
          "velocity": 0.8661417322834646
        },
        {
          "duration": 0.4398143749999974,
          "durationTicks": 190,
          "midi": 64,
          "name": "E4",
          "ticks": 22560,
          "time": 52.22217,
          "velocity": 0.8661417322834646
        },
        {
          "duration": 0.4398143749999974,
          "durationTicks": 190,
          "midi": 69,
          "name": "A4",
          "ticks": 22656,
          "time": 52.444392,
          "velocity": 0.8661417322834646
        },
        {
          "duration": 0.4398143749999974,
          "durationTicks": 190,
          "midi": 71,
          "name": "B4",
          "ticks": 22752,
          "time": 52.666614,
          "velocity": 0.8661417322834646
        },
        {
          "duration": 0.4398143749999974,
          "durationTicks": 190,
          "midi": 62,
          "name": "D4",
          "ticks": 22848,
          "time": 52.888836,
          "velocity": 0.8661417322834646
        },
        {
          "duration": 0.4398143749999974,
          "durationTicks": 190,
          "midi": 69,
          "name": "A4",
          "ticks": 22944,
          "time": 53.111058,
          "velocity": 0.8661417322834646
        },
        {
          "duration": 0.4398143749999974,
          "durationTicks": 190,
          "midi": 71,
          "name": "B4",
          "ticks": 23040,
          "time": 53.33328,
          "velocity": 0.8661417322834646
        },
        {
          "duration": 0.4398143749999974,
          "durationTicks": 190,
          "midi": 64,
          "name": "E4",
          "ticks": 23136,
          "time": 53.555502000000004,
          "velocity": 0.8661417322834646
        },
        {
          "duration": 0.4398143749999974,
          "durationTicks": 190,
          "midi": 69,
          "name": "A4",
          "ticks": 23232,
          "time": 53.777724,
          "velocity": 0.8661417322834646
        },
        {
          "duration": 0.4398143749999974,
          "durationTicks": 190,
          "midi": 71,
          "name": "B4",
          "ticks": 23328,
          "time": 53.999946,
          "velocity": 0.8661417322834646
        },
        {
          "duration": 0.4398143749999974,
          "durationTicks": 190,
          "midi": 69,
          "name": "A4",
          "ticks": 23424,
          "time": 54.222168,
          "velocity": 0.8661417322834646
        },
        {
          "duration": 0.4398143749999974,
          "durationTicks": 190,
          "midi": 68,
          "name": "G#4",
          "ticks": 23520,
          "time": 54.44439,
          "velocity": 0.8661417322834646
        },
        {
          "duration": 0.4398143749999974,
          "durationTicks": 190,
          "midi": 66,
          "name": "F#4",
          "ticks": 23616,
          "time": 54.666612,
          "velocity": 0.8661417322834646
        },
        {
          "duration": 0.21759237499999529,
          "durationTicks": 94,
          "midi": 64,
          "name": "E4",
          "ticks": 23712,
          "time": 54.888834,
          "velocity": 0.8661417322834646
        },
        {
          "duration": 0.4398143749999974,
          "durationTicks": 190,
          "midi": 57,
          "name": "A3",
          "ticks": 23808,
          "time": 55.111056,
          "velocity": 0.8661417322834646
        },
        {
          "duration": 0.4398143749999974,
          "durationTicks": 190,
          "midi": 73,
          "name": "C#5",
          "ticks": 24000,
          "time": 55.5555,
          "velocity": 0.8661417322834646
        },
        {
          "duration": 0.4398143749999974,
          "durationTicks": 190,
          "midi": 64,
          "name": "E4",
          "ticks": 24000,
          "time": 55.5555,
          "velocity": 0.8661417322834646
        },
        {
          "duration": 0.21759237499999529,
          "durationTicks": 94,
          "midi": 69,
          "name": "A4",
          "ticks": 24000,
          "time": 55.5555,
          "velocity": 0.8661417322834646
        },
        {
          "duration": 0.4398143749999974,
          "durationTicks": 190,
          "midi": 57,
          "name": "A3",
          "ticks": 24000,
          "time": 55.5555,
          "velocity": 0.8661417322834646
        },
        {
          "duration": 0.21759237499999529,
          "durationTicks": 94,
          "midi": 69,
          "name": "A4",
          "ticks": 24096,
          "time": 55.777722000000004,
          "velocity": 0.8661417322834646
        },
        {
          "duration": 0.2175923750000024,
          "durationTicks": 94,
          "midi": 71,
          "name": "B4",
          "ticks": 24192,
          "time": 55.999944,
          "velocity": 0.8661417322834646
        },
        {
          "duration": 0.8842583750000017,
          "durationTicks": 382,
          "midi": 57,
          "name": "A3",
          "ticks": 24192,
          "time": 55.999944,
          "velocity": 0.8661417322834646
        },
        {
          "duration": 0.6620363749999996,
          "durationTicks": 286,
          "midi": 64,
          "name": "E4",
          "ticks": 24192,
          "time": 55.999944,
          "velocity": 0.8661417322834646
        },
        {
          "duration": 0.6620363749999996,
          "durationTicks": 286,
          "midi": 69,
          "name": "A4",
          "ticks": 24192,
          "time": 55.999944,
          "velocity": 0.8661417322834646
        },
        {
          "duration": 0.6620363749999996,
          "durationTicks": 286,
          "midi": 73,
          "name": "C#5",
          "ticks": 24288,
          "time": 56.222166,
          "velocity": 0.8661417322834646
        },
        {
          "duration": 0.2175923750000024,
          "durationTicks": 94,
          "midi": 66,
          "name": "F#4",
          "ticks": 24480,
          "time": 56.66661,
          "velocity": 0.8661417322834646
        },
        {
          "duration": 0.2175923750000024,
          "durationTicks": 94,
          "midi": 62,
          "name": "D4",
          "ticks": 24480,
          "time": 56.66661,
          "velocity": 0.8661417322834646
        },
        {
          "duration": 0.43981437500000453,
          "durationTicks": 190,
          "midi": 52,
          "name": "E3",
          "ticks": 24576,
          "time": 56.888832,
          "velocity": 0.8661417322834646
        },
        {
          "duration": 0.43981437500000453,
          "durationTicks": 190,
          "midi": 62,
          "name": "D4",
          "ticks": 24576,
          "time": 56.888832,
          "velocity": 0.8661417322834646
        },
        {
          "duration": 0.43981437500000453,
          "durationTicks": 190,
          "midi": 68,
          "name": "G#4",
          "ticks": 24576,
          "time": 56.888832,
          "velocity": 0.8661417322834646
        },
        {
          "duration": 0.43981437500000453,
          "durationTicks": 190,
          "midi": 59,
          "name": "B3",
          "ticks": 24576,
          "time": 56.888832,
          "velocity": 0.8661417322834646
        },
        {
          "duration": 0.2175923750000024,
          "durationTicks": 94,
          "midi": 66,
          "name": "F#4",
          "ticks": 24672,
          "time": 57.111054,
          "velocity": 0.8661417322834646
        },
        {
          "duration": 0.6620363750000067,
          "durationTicks": 286,
          "midi": 52,
          "name": "E3",
          "ticks": 24768,
          "time": 57.333276,
          "velocity": 0.8661417322834646
        },
        {
          "duration": 0.6620363750000067,
          "durationTicks": 286,
          "midi": 59,
          "name": "B3",
          "ticks": 24768,
          "time": 57.333276,
          "velocity": 0.8661417322834646
        },
        {
          "duration": 0.2175923750000095,
          "durationTicks": 94,
          "midi": 68,
          "name": "G#4",
          "ticks": 24768,
          "time": 57.333276,
          "velocity": 0.8661417322834646
        },
        {
          "duration": 0.2175923750000095,
          "durationTicks": 94,
          "midi": 62,
          "name": "D4",
          "ticks": 24768,
          "time": 57.333276,
          "velocity": 0.8661417322834646
        },
        {
          "duration": 0.43981437500000453,
          "durationTicks": 190,
          "midi": 69,
          "name": "A4",
          "ticks": 24864,
          "time": 57.555498,
          "velocity": 0.8661417322834646
        },
        {
          "duration": 0.43981437500000453,
          "durationTicks": 190,
          "midi": 62,
          "name": "D4",
          "ticks": 24864,
          "time": 57.555498,
          "velocity": 0.8661417322834646
        },
        {
          "duration": 0.6620363750000067,
          "durationTicks": 286,
          "midi": 59,
          "name": "B3",
          "ticks": 25056,
          "time": 57.999942,
          "velocity": 0.8661417322834646
        },
        {
          "duration": 0.6620363750000067,
          "durationTicks": 286,
          "midi": 68,
          "name": "G#4",
          "ticks": 25056,
          "time": 57.999942,
          "velocity": 0.8661417322834646
        },
        {
          "duration": 0.6620363750000067,
          "durationTicks": 286,
          "midi": 62,
          "name": "D4",
          "ticks": 25056,
          "time": 57.999942,
          "velocity": 0.8661417322834646
        },
        {
          "duration": 0.6620363750000067,
          "durationTicks": 286,
          "midi": 71,
          "name": "B4",
          "ticks": 25056,
          "time": 57.999942,
          "velocity": 0.8661417322834646
        },
        {
          "duration": 0.6620363750000067,
          "durationTicks": 286,
          "midi": 52,
          "name": "E3",
          "ticks": 25056,
          "time": 57.999942,
          "velocity": 0.8661417322834646
        },
        {
          "duration": 0.2175923750000024,
          "durationTicks": 94,
          "midi": 68,
          "name": "G#4",
          "ticks": 25248,
          "time": 58.444386,
          "velocity": 0.8661417322834646
        },
        {
          "duration": 0.6620363749999996,
          "durationTicks": 286,
          "midi": 69,
          "name": "A4",
          "ticks": 25344,
          "time": 58.666608000000004,
          "velocity": 0.8661417322834646
        },
        {
          "duration": 1.7731463750000032,
          "durationTicks": 766,
          "midi": 52,
          "name": "E3",
          "ticks": 25344,
          "time": 58.666608000000004,
          "velocity": 0.8661417322834646
        },
        {
          "duration": 1.7731463750000032,
          "durationTicks": 766,
          "midi": 57,
          "name": "A3",
          "ticks": 25344,
          "time": 58.666608000000004,
          "velocity": 0.8661417322834646
        },
        {
          "duration": 1.550924375000001,
          "durationTicks": 670,
          "midi": 64,
          "name": "E4",
          "ticks": 25344,
          "time": 58.666608000000004,
          "velocity": 0.8661417322834646
        },
        {
          "duration": 0.43981437500000453,
          "durationTicks": 190,
          "midi": 73,
          "name": "C#5",
          "ticks": 25536,
          "time": 59.111052,
          "velocity": 0.8661417322834646
        },
        {
          "duration": 0.8842583750000017,
          "durationTicks": 382,
          "midi": 69,
          "name": "A4",
          "ticks": 25632,
          "time": 59.333274,
          "velocity": 0.8661417322834646
        },
        {
          "duration": 0.2175923750000095,
          "durationTicks": 94,
          "midi": 71,
          "name": "B4",
          "ticks": 25728,
          "time": 59.555496,
          "velocity": 0.8661417322834646
        },
        {
          "duration": 0.6620363750000067,
          "durationTicks": 286,
          "midi": 73,
          "name": "C#5",
          "ticks": 25824,
          "time": 59.777718,
          "velocity": 0.8661417322834646
        },
        {
          "duration": 1.328702375000006,
          "durationTicks": 574,
          "midi": 69,
          "name": "A4",
          "ticks": 26016,
          "time": 60.222162,
          "velocity": 0.8661417322834646
        },
        {
          "duration": 1.328702375000006,
          "durationTicks": 574,
          "midi": 64,
          "name": "E4",
          "ticks": 26016,
          "time": 60.222162,
          "velocity": 0.8661417322834646
        },
        {
          "duration": 0.2175923750000024,
          "durationTicks": 94,
          "midi": 73,
          "name": "C#5",
          "ticks": 26304,
          "time": 60.888828000000004,
          "velocity": 0.8661417322834646
        },
        {
          "duration": 0.8842583750000088,
          "durationTicks": 382,
          "midi": 71,
          "name": "B4",
          "ticks": 26400,
          "time": 61.11105,
          "velocity": 0.8661417322834646
        },
        {
          "duration": 0.43981437500000453,
          "durationTicks": 190,
          "midi": 64,
          "name": "E4",
          "ticks": 26592,
          "time": 61.555494,
          "velocity": 0.8661417322834646
        },
        {
          "duration": 0.43981437500000453,
          "durationTicks": 190,
          "midi": 69,
          "name": "A4",
          "ticks": 26592,
          "time": 61.555494,
          "velocity": 0.8661417322834646
        },
        {
          "duration": 0.43981437500000453,
          "durationTicks": 190,
          "midi": 62,
          "name": "D4",
          "ticks": 26784,
          "time": 61.999938,
          "velocity": 0.8661417322834646
        },
        {
          "duration": 0.43981437500000453,
          "durationTicks": 190,
          "midi": 57,
          "name": "A3",
          "ticks": 26784,
          "time": 61.999938,
          "velocity": 0.8661417322834646
        },
        {
          "duration": 0.43981437500000453,
          "durationTicks": 190,
          "midi": 66,
          "name": "F#4",
          "ticks": 26784,
          "time": 61.999938,
          "velocity": 0.8661417322834646
        },
        {
          "duration": 0.43981437500000453,
          "durationTicks": 190,
          "midi": 54,
          "name": "F#3",
          "ticks": 26976,
          "time": 62.444382,
          "velocity": 0.8661417322834646
        },
        {
          "duration": 0.43981437500000453,
          "durationTicks": 190,
          "midi": 62,
          "name": "D4",
          "ticks": 26976,
          "time": 62.444382,
          "velocity": 0.8661417322834646
        },
        {
          "duration": 0.43981437500000453,
          "durationTicks": 190,
          "midi": 57,
          "name": "A3",
          "ticks": 26976,
          "time": 62.444382,
          "velocity": 0.8661417322834646
        },
        {
          "duration": 0.43981437500000453,
          "durationTicks": 190,
          "midi": 50,
          "name": "D3",
          "ticks": 26976,
          "time": 62.444382,
          "velocity": 0.8661417322834646
        },
        {
          "duration": 0.2175923750000095,
          "durationTicks": 94,
          "midi": 69,
          "name": "A4",
          "ticks": 26976,
          "time": 62.444382,
          "velocity": 0.8661417322834646
        },
        {
          "duration": 0.2175923750000024,
          "durationTicks": 94,
          "midi": 69,
          "name": "A4",
          "ticks": 27072,
          "time": 62.666604,
          "velocity": 0.8661417322834646
        },
        {
          "duration": 0.43981437500000453,
          "durationTicks": 190,
          "midi": 71,
          "name": "B4",
          "ticks": 27168,
          "time": 62.888826,
          "velocity": 0.8661417322834646
        },
        {
          "duration": 0.8842583750000017,
          "durationTicks": 382,
          "midi": 66,
          "name": "F#4",
          "ticks": 27168,
          "time": 62.888826,
          "velocity": 0.8661417322834646
        },
        {
          "duration": 0.6620363750000067,
          "durationTicks": 286,
          "midi": 54,
          "name": "F#3",
          "ticks": 27168,
          "time": 62.888826,
          "velocity": 0.8661417322834646
        },
        {
          "duration": 0.6620363750000067,
          "durationTicks": 286,
          "midi": 57,
          "name": "A3",
          "ticks": 27168,
          "time": 62.888826,
          "velocity": 0.8661417322834646
        },
        {
          "duration": 0.6620363750000067,
          "durationTicks": 286,
          "midi": 50,
          "name": "D3",
          "ticks": 27168,
          "time": 62.888826,
          "velocity": 0.8661417322834646
        },
        {
          "duration": 0.6620363750000067,
          "durationTicks": 286,
          "midi": 69,
          "name": "A4",
          "ticks": 27360,
          "time": 63.33327,
          "velocity": 0.8661417322834646
        },
        {
          "duration": 0.43981437500000453,
          "durationTicks": 190,
          "midi": 54,
          "name": "F#3",
          "ticks": 27456,
          "time": 63.555492,
          "velocity": 0.8661417322834646
        },
        {
          "duration": 0.43981437500000453,
          "durationTicks": 190,
          "midi": 50,
          "name": "D3",
          "ticks": 27456,
          "time": 63.555492,
          "velocity": 0.8661417322834646
        },
        {
          "duration": 0.43981437500000453,
          "durationTicks": 190,
          "midi": 57,
          "name": "A3",
          "ticks": 27456,
          "time": 63.555492,
          "velocity": 0.8661417322834646
        },
        {
          "duration": 0.2175923750000024,
          "durationTicks": 94,
          "midi": 66,
          "name": "F#4",
          "ticks": 27552,
          "time": 63.777714,
          "velocity": 0.8661417322834646
        },
        {
          "duration": 0.2175923750000024,
          "durationTicks": 94,
          "midi": 68,
          "name": "G#4",
          "ticks": 27648,
          "time": 63.999936,
          "velocity": 0.8661417322834646
        },
        {
          "duration": 0.43981437500000453,
          "durationTicks": 190,
          "midi": 59,
          "name": "B3",
          "ticks": 27648,
          "time": 63.999936,
          "velocity": 0.8661417322834646
        },
        {
          "duration": 0.43981437500000453,
          "durationTicks": 190,
          "midi": 52,
          "name": "E3",
          "ticks": 27648,
          "time": 63.999936,
          "velocity": 0.8661417322834646
        },
        {
          "duration": 0.43981437500000453,
          "durationTicks": 190,
          "midi": 62,
          "name": "D4",
          "ticks": 27648,
          "time": 63.999936,
          "velocity": 0.8661417322834646
        },
        {
          "duration": 0.21759237499999529,
          "durationTicks": 94,
          "midi": 66,
          "name": "F#4",
          "ticks": 27744,
          "time": 64.22215800000001,
          "velocity": 0.8661417322834646
        },
        {
          "duration": 0.2175923750000095,
          "durationTicks": 94,
          "midi": 59,
          "name": "B3",
          "ticks": 27840,
          "time": 64.44438,
          "velocity": 0.8661417322834646
        },
        {
          "duration": 0.2175923750000095,
          "durationTicks": 94,
          "midi": 68,
          "name": "G#4",
          "ticks": 27840,
          "time": 64.44438,
          "velocity": 0.8661417322834646
        },
        {
          "duration": 0.2175923750000095,
          "durationTicks": 94,
          "midi": 52,
          "name": "E3",
          "ticks": 27840,
          "time": 64.44438,
          "velocity": 0.8661417322834646
        },
        {
          "duration": 0.2175923750000095,
          "durationTicks": 94,
          "midi": 62,
          "name": "D4",
          "ticks": 27840,
          "time": 64.44438,
          "velocity": 0.8661417322834646
        },
        {
          "duration": 0.43981437500001164,
          "durationTicks": 190,
          "midi": 59,
          "name": "B3",
          "ticks": 27936,
          "time": 64.666602,
          "velocity": 0.8661417322834646
        },
        {
          "duration": 0.43981437500001164,
          "durationTicks": 190,
          "midi": 52,
          "name": "E3",
          "ticks": 27936,
          "time": 64.666602,
          "velocity": 0.8661417322834646
        },
        {
          "duration": 0.43981437500001164,
          "durationTicks": 190,
          "midi": 69,
          "name": "A4",
          "ticks": 27936,
          "time": 64.666602,
          "velocity": 0.8661417322834646
        },
        {
          "duration": 0.43981437500001164,
          "durationTicks": 190,
          "midi": 62,
          "name": "D4",
          "ticks": 27936,
          "time": 64.666602,
          "velocity": 0.8661417322834646
        },
        {
          "duration": 0.6620363749999996,
          "durationTicks": 286,
          "midi": 59,
          "name": "B3",
          "ticks": 28128,
          "time": 65.111046,
          "velocity": 0.8661417322834646
        },
        {
          "duration": 0.6620363749999996,
          "durationTicks": 286,
          "midi": 71,
          "name": "B4",
          "ticks": 28128,
          "time": 65.111046,
          "velocity": 0.8661417322834646
        },
        {
          "duration": 0.4398143749999974,
          "durationTicks": 190,
          "midi": 68,
          "name": "G#4",
          "ticks": 28128,
          "time": 65.111046,
          "velocity": 0.8661417322834646
        },
        {
          "duration": 0.6620363749999996,
          "durationTicks": 286,
          "midi": 62,
          "name": "D4",
          "ticks": 28128,
          "time": 65.111046,
          "velocity": 0.8661417322834646
        },
        {
          "duration": 0.6620363749999996,
          "durationTicks": 286,
          "midi": 52,
          "name": "E3",
          "ticks": 28128,
          "time": 65.111046,
          "velocity": 0.8661417322834646
        },
        {
          "duration": 0.21759237499999529,
          "durationTicks": 94,
          "midi": 68,
          "name": "G#4",
          "ticks": 28320,
          "time": 65.55549,
          "velocity": 0.8661417322834646
        },
        {
          "duration": 0.43981437500001164,
          "durationTicks": 190,
          "midi": 73,
          "name": "C#5",
          "ticks": 28416,
          "time": 65.777712,
          "velocity": 0.8661417322834646
        },
        {
          "duration": 1.328702375000006,
          "durationTicks": 574,
          "midi": 57,
          "name": "A3",
          "ticks": 28416,
          "time": 65.777712,
          "velocity": 0.8661417322834646
        },
        {
          "duration": 1.328702375000006,
          "durationTicks": 574,
          "midi": 64,
          "name": "E4",
          "ticks": 28416,
          "time": 65.777712,
          "velocity": 0.8661417322834646
        },
        {
          "duration": 0.43981437500001164,
          "durationTicks": 190,
          "midi": 69,
          "name": "A4",
          "ticks": 28416,
          "time": 65.777712,
          "velocity": 0.8661417322834646
        },
        {
          "duration": 0.2175923750000095,
          "durationTicks": 94,
          "midi": 73,
          "name": "C#5",
          "ticks": 28608,
          "time": 66.222156,
          "velocity": 0.8661417322834646
        },
        {
          "duration": 0.8842583750000017,
          "durationTicks": 382,
          "midi": 69,
          "name": "A4",
          "ticks": 28608,
          "time": 66.222156,
          "velocity": 0.8661417322834646
        },
        {
          "duration": 0.2175923750000095,
          "durationTicks": 94,
          "midi": 73,
          "name": "C#5",
          "ticks": 28704,
          "time": 66.444378,
          "velocity": 0.8661417322834646
        },
        {
          "duration": 0.2175923750000095,
          "durationTicks": 94,
          "midi": 71,
          "name": "B4",
          "ticks": 28800,
          "time": 66.6666,
          "velocity": 0.8661417322834646
        },
        {
          "duration": 0.6620363749999996,
          "durationTicks": 286,
          "midi": 73,
          "name": "C#5",
          "ticks": 28896,
          "time": 66.888822,
          "velocity": 0.8661417322834646
        },
        {
          "duration": 1.5509243750000081,
          "durationTicks": 670,
          "midi": 64,
          "name": "E4",
          "ticks": 29088,
          "time": 67.333266,
          "velocity": 0.8661417322834646
        },
        {
          "duration": 0.8842583750000159,
          "durationTicks": 382,
          "midi": 69,
          "name": "A4",
          "ticks": 29088,
          "time": 67.333266,
          "velocity": 0.8661417322834646
        },
        {
          "duration": 0.2175923750000095,
          "durationTicks": 94,
          "midi": 73,
          "name": "C#5",
          "ticks": 29376,
          "time": 67.999932,
          "velocity": 0.8661417322834646
        },
        {
          "duration": 0.4398143749999974,
          "durationTicks": 190,
          "midi": 71,
          "name": "B4",
          "ticks": 29472,
          "time": 68.222154,
          "velocity": 0.8661417322834646
        },
        {
          "duration": 0.4398143749999974,
          "durationTicks": 190,
          "midi": 69,
          "name": "A4",
          "ticks": 29472,
          "time": 68.222154,
          "velocity": 0.8661417322834646
        },
        {
          "duration": 0.4398143749999974,
          "durationTicks": 190,
          "midi": 69,
          "name": "A4",
          "ticks": 29664,
          "time": 68.66659800000001,
          "velocity": 0.8661417322834646
        },
        {
          "duration": 0.2175923750000095,
          "durationTicks": 94,
          "midi": 54,
          "name": "F#3",
          "ticks": 29856,
          "time": 69.111042,
          "velocity": 0.8661417322834646
        },
        {
          "duration": 0.2175923750000095,
          "durationTicks": 94,
          "midi": 57,
          "name": "A3",
          "ticks": 29856,
          "time": 69.111042,
          "velocity": 0.8661417322834646
        },
        {
          "duration": 0.8842583750000017,
          "durationTicks": 382,
          "midi": 66,
          "name": "F#4",
          "ticks": 29856,
          "time": 69.111042,
          "velocity": 0.8661417322834646
        },
        {
          "duration": 0.8842583750000017,
          "durationTicks": 382,
          "midi": 62,
          "name": "D4",
          "ticks": 29856,
          "time": 69.111042,
          "velocity": 0.8661417322834646
        },
        {
          "duration": 0.2175923750000095,
          "durationTicks": 94,
          "midi": 50,
          "name": "D3",
          "ticks": 29856,
          "time": 69.111042,
          "velocity": 0.8661417322834646
        },
        {
          "duration": 0.8842583750000017,
          "durationTicks": 382,
          "midi": 50,
          "name": "D3",
          "ticks": 29952,
          "time": 69.333264,
          "velocity": 0.8661417322834646
        },
        {
          "duration": 0.8842583750000017,
          "durationTicks": 382,
          "midi": 57,
          "name": "A3",
          "ticks": 29952,
          "time": 69.333264,
          "velocity": 0.8661417322834646
        },
        {
          "duration": 0.8842583750000017,
          "durationTicks": 382,
          "midi": 54,
          "name": "F#3",
          "ticks": 29952,
          "time": 69.333264,
          "velocity": 0.8661417322834646
        },
        {
          "duration": 0.21759237499999529,
          "durationTicks": 94,
          "midi": 73,
          "name": "C#5",
          "ticks": 30144,
          "time": 69.777708,
          "velocity": 0.8661417322834646
        },
        {
          "duration": 0.8842583750000017,
          "durationTicks": 382,
          "midi": 66,
          "name": "F#4",
          "ticks": 30240,
          "time": 69.99993,
          "velocity": 0.8661417322834646
        },
        {
          "duration": 0.4398143749999974,
          "durationTicks": 190,
          "midi": 71,
          "name": "B4",
          "ticks": 30240,
          "time": 69.99993,
          "velocity": 0.8661417322834646
        },
        {
          "duration": 0.2175923750000095,
          "durationTicks": 94,
          "midi": 54,
          "name": "F#3",
          "ticks": 30336,
          "time": 70.222152,
          "velocity": 0.8661417322834646
        },
        {
          "duration": 0.2175923750000095,
          "durationTicks": 94,
          "midi": 57,
          "name": "A3",
          "ticks": 30336,
          "time": 70.222152,
          "velocity": 0.8661417322834646
        },
        {
          "duration": 0.2175923750000095,
          "durationTicks": 94,
          "midi": 57,
          "name": "A3",
          "ticks": 30432,
          "time": 70.444374,
          "velocity": 0.8661417322834646
        },
        {
          "duration": 0.2175923750000095,
          "durationTicks": 94,
          "midi": 69,
          "name": "A4",
          "ticks": 30432,
          "time": 70.444374,
          "velocity": 0.8661417322834646
        },
        {
          "duration": 0.2175923750000095,
          "durationTicks": 94,
          "midi": 54,
          "name": "F#3",
          "ticks": 30432,
          "time": 70.444374,
          "velocity": 0.8661417322834646
        },
        {
          "duration": 0.2175923750000095,
          "durationTicks": 94,
          "midi": 54,
          "name": "F#3",
          "ticks": 30528,
          "time": 70.666596,
          "velocity": 0.8661417322834646
        },
        {
          "duration": 0.2175923750000095,
          "durationTicks": 94,
          "midi": 69,
          "name": "A4",
          "ticks": 30528,
          "time": 70.666596,
          "velocity": 0.8661417322834646
        },
        {
          "duration": 0.2175923750000095,
          "durationTicks": 94,
          "midi": 50,
          "name": "D3",
          "ticks": 30528,
          "time": 70.666596,
          "velocity": 0.8661417322834646
        },
        {
          "duration": 0.2175923750000095,
          "durationTicks": 94,
          "midi": 57,
          "name": "A3",
          "ticks": 30528,
          "time": 70.666596,
          "velocity": 0.8661417322834646
        },
        {
          "duration": 0.43981437500001164,
          "durationTicks": 190,
          "midi": 68,
          "name": "G#4",
          "ticks": 30624,
          "time": 70.888818,
          "velocity": 0.8661417322834646
        },
        {
          "duration": 0.43981437500001164,
          "durationTicks": 190,
          "midi": 62,
          "name": "D4",
          "ticks": 30624,
          "time": 70.888818,
          "velocity": 0.8661417322834646
        },
        {
          "duration": 0.43981437500001164,
          "durationTicks": 190,
          "midi": 59,
          "name": "B3",
          "ticks": 30624,
          "time": 70.888818,
          "velocity": 0.8661417322834646
        },
        {
          "duration": 1.9953683749999982,
          "durationTicks": 862,
          "midi": 52,
          "name": "E3",
          "ticks": 30624,
          "time": 70.888818,
          "velocity": 0.8661417322834646
        },
        {
          "duration": 0.21759237499999529,
          "durationTicks": 94,
          "midi": 62,
          "name": "D4",
          "ticks": 30816,
          "time": 71.333262,
          "velocity": 0.8661417322834646
        },
        {
          "duration": 0.21759237499999529,
          "durationTicks": 94,
          "midi": 59,
          "name": "B3",
          "ticks": 30816,
          "time": 71.333262,
          "velocity": 0.8661417322834646
        },
        {
          "duration": 0.21759237499999529,
          "durationTicks": 94,
          "midi": 68,
          "name": "G#4",
          "ticks": 30816,
          "time": 71.333262,
          "velocity": 0.8661417322834646
        },
        {
          "duration": 0.21759237499999529,
          "durationTicks": 94,
          "midi": 59,
          "name": "B3",
          "ticks": 30912,
          "time": 71.555484,
          "velocity": 0.8661417322834646
        },
        {
          "duration": 0.21759237499999529,
          "durationTicks": 94,
          "midi": 62,
          "name": "D4",
          "ticks": 30912,
          "time": 71.555484,
          "velocity": 0.8661417322834646
        },
        {
          "duration": 0.21759237499999529,
          "durationTicks": 94,
          "midi": 68,
          "name": "G#4",
          "ticks": 30912,
          "time": 71.555484,
          "velocity": 0.8661417322834646
        },
        {
          "duration": 0.2175923750000095,
          "durationTicks": 94,
          "midi": 59,
          "name": "B3",
          "ticks": 31008,
          "time": 71.777706,
          "velocity": 0.8661417322834646
        },
        {
          "duration": 0.2175923750000095,
          "durationTicks": 94,
          "midi": 62,
          "name": "D4",
          "ticks": 31008,
          "time": 71.777706,
          "velocity": 0.8661417322834646
        },
        {
          "duration": 0.2175923750000095,
          "durationTicks": 94,
          "midi": 68,
          "name": "G#4",
          "ticks": 31008,
          "time": 71.777706,
          "velocity": 0.8661417322834646
        },
        {
          "duration": 0.2175923750000095,
          "durationTicks": 94,
          "midi": 62,
          "name": "D4",
          "ticks": 31104,
          "time": 71.999928,
          "velocity": 0.8661417322834646
        },
        {
          "duration": 0.2175923750000095,
          "durationTicks": 94,
          "midi": 68,
          "name": "G#4",
          "ticks": 31104,
          "time": 71.999928,
          "velocity": 0.8661417322834646
        },
        {
          "duration": 0.2175923750000095,
          "durationTicks": 94,
          "midi": 59,
          "name": "B3",
          "ticks": 31104,
          "time": 71.999928,
          "velocity": 0.8661417322834646
        },
        {
          "duration": 0.2175923750000095,
          "durationTicks": 94,
          "midi": 71,
          "name": "B4",
          "ticks": 31104,
          "time": 71.999928,
          "velocity": 0.8661417322834646
        },
        {
          "duration": 0.2175923750000095,
          "durationTicks": 94,
          "midi": 59,
          "name": "B3",
          "ticks": 31200,
          "time": 72.22215,
          "velocity": 0.8661417322834646
        },
        {
          "duration": 0.2175923750000095,
          "durationTicks": 94,
          "midi": 62,
          "name": "D4",
          "ticks": 31200,
          "time": 72.22215,
          "velocity": 0.8661417322834646
        },
        {
          "duration": 0.2175923750000095,
          "durationTicks": 94,
          "midi": 68,
          "name": "G#4",
          "ticks": 31200,
          "time": 72.22215,
          "velocity": 0.8661417322834646
        },
        {
          "duration": 0.2175923750000095,
          "durationTicks": 94,
          "midi": 71,
          "name": "B4",
          "ticks": 31200,
          "time": 72.22215,
          "velocity": 0.8661417322834646
        },
        {
          "duration": 0.2175923750000095,
          "durationTicks": 94,
          "midi": 59,
          "name": "B3",
          "ticks": 31296,
          "time": 72.444372,
          "velocity": 0.8661417322834646
        },
        {
          "duration": 0.2175923750000095,
          "durationTicks": 94,
          "midi": 71,
          "name": "B4",
          "ticks": 31296,
          "time": 72.444372,
          "velocity": 0.8661417322834646
        },
        {
          "duration": 0.2175923750000095,
          "durationTicks": 94,
          "midi": 68,
          "name": "G#4",
          "ticks": 31296,
          "time": 72.444372,
          "velocity": 0.8661417322834646
        },
        {
          "duration": 0.2175923750000095,
          "durationTicks": 94,
          "midi": 62,
          "name": "D4",
          "ticks": 31296,
          "time": 72.444372,
          "velocity": 0.8661417322834646
        },
        {
          "duration": 0.21759237499999529,
          "durationTicks": 94,
          "midi": 71,
          "name": "B4",
          "ticks": 31392,
          "time": 72.666594,
          "velocity": 0.8661417322834646
        },
        {
          "duration": 0.21759237499999529,
          "durationTicks": 94,
          "midi": 59,
          "name": "B3",
          "ticks": 31392,
          "time": 72.666594,
          "velocity": 0.8661417322834646
        },
        {
          "duration": 0.21759237499999529,
          "durationTicks": 94,
          "midi": 62,
          "name": "D4",
          "ticks": 31392,
          "time": 72.666594,
          "velocity": 0.8661417322834646
        },
        {
          "duration": 0.21759237499999529,
          "durationTicks": 94,
          "midi": 68,
          "name": "G#4",
          "ticks": 31392,
          "time": 72.666594,
          "velocity": 0.8661417322834646
        },
        {
          "duration": 1.773146374999996,
          "durationTicks": 766,
          "midi": 57,
          "name": "A3",
          "ticks": 31488,
          "time": 72.888816,
          "velocity": 0.8661417322834646
        },
        {
          "duration": 0.4398143749999974,
          "durationTicks": 190,
          "midi": 64,
          "name": "E4",
          "ticks": 31488,
          "time": 72.888816,
          "velocity": 0.8661417322834646
        },
        {
          "duration": 0.8842583750000159,
          "durationTicks": 382,
          "midi": 64,
          "name": "E4",
          "ticks": 31680,
          "time": 73.33326,
          "velocity": 0.8661417322834646
        },
        {
          "duration": 0.2175923750000095,
          "durationTicks": 94,
          "midi": 69,
          "name": "A4",
          "ticks": 31680,
          "time": 73.33326,
          "velocity": 0.8661417322834646
        },
        {
          "duration": 0.2175923750000095,
          "durationTicks": 94,
          "midi": 73,
          "name": "C#5",
          "ticks": 31680,
          "time": 73.33326,
          "velocity": 0.8661417322834646
        },
        {
          "duration": 0.43981437500001164,
          "durationTicks": 190,
          "midi": 69,
          "name": "A4",
          "ticks": 31776,
          "time": 73.555482,
          "velocity": 0.8661417322834646
        },
        {
          "duration": 0.43981437500001164,
          "durationTicks": 190,
          "midi": 71,
          "name": "B4",
          "ticks": 31776,
          "time": 73.555482,
          "velocity": 0.8661417322834646
        },
        {
          "duration": 0.4398143749999974,
          "durationTicks": 190,
          "midi": 69,
          "name": "A4",
          "ticks": 31968,
          "time": 73.999926,
          "velocity": 0.8661417322834646
        },
        {
          "duration": 0.4398143749999974,
          "durationTicks": 190,
          "midi": 73,
          "name": "C#5",
          "ticks": 31968,
          "time": 73.999926,
          "velocity": 0.8661417322834646
        },
        {
          "duration": 1.550924374999994,
          "durationTicks": 670,
          "midi": 64,
          "name": "E4",
          "ticks": 32160,
          "time": 74.44437,
          "velocity": 0.8661417322834646
        },
        {
          "duration": 0.8842583750000017,
          "durationTicks": 382,
          "midi": 69,
          "name": "A4",
          "ticks": 32160,
          "time": 74.44437,
          "velocity": 0.8661417322834646
        },
        {
          "duration": 1.328702375000006,
          "durationTicks": 574,
          "midi": 57,
          "name": "A3",
          "ticks": 32352,
          "time": 74.888814,
          "velocity": 0.8661417322834646
        },
        {
          "duration": 0.6620363749999996,
          "durationTicks": 286,
          "midi": 73,
          "name": "C#5",
          "ticks": 32448,
          "time": 75.111036,
          "velocity": 0.8661417322834646
        },
        {
          "duration": 0.8842583750000017,
          "durationTicks": 382,
          "midi": 69,
          "name": "A4",
          "ticks": 32544,
          "time": 75.333258,
          "velocity": 0.8661417322834646
        },
        {
          "duration": 0.6620363749999996,
          "durationTicks": 286,
          "midi": 71,
          "name": "B4",
          "ticks": 32640,
          "time": 75.55548,
          "velocity": 0.8661417322834646
        },
        {
          "duration": 0.4398143749999974,
          "durationTicks": 190,
          "midi": 73,
          "name": "C#5",
          "ticks": 32736,
          "time": 75.777702,
          "velocity": 0.8661417322834646
        },
        {
          "duration": 1.328702375000006,
          "durationTicks": 574,
          "midi": 50,
          "name": "D3",
          "ticks": 33024,
          "time": 76.444368,
          "velocity": 0.8661417322834646
        },
        {
          "duration": 0.4398143749999974,
          "durationTicks": 190,
          "midi": 71,
          "name": "B4",
          "ticks": 33312,
          "time": 77.111034,
          "velocity": 0.8661417322834646
        },
        {
          "duration": 0.4398143749999974,
          "durationTicks": 190,
          "midi": 73,
          "name": "C#5",
          "ticks": 33504,
          "time": 77.55547800000001,
          "velocity": 0.8661417322834646
        },
        {
          "duration": 0.2175923750000095,
          "durationTicks": 94,
          "midi": 63,
          "name": "D#4",
          "ticks": 33696,
          "time": 77.999922,
          "velocity": 0.8661417322834646
        },
        {
          "duration": 0.43981437500001164,
          "durationTicks": 190,
          "midi": 69,
          "name": "A4",
          "ticks": 33696,
          "time": 77.999922,
          "velocity": 0.8661417322834646
        },
        {
          "duration": 0.2175923750000095,
          "durationTicks": 94,
          "midi": 54,
          "name": "F#3",
          "ticks": 33696,
          "time": 77.999922,
          "velocity": 0.8661417322834646
        },
        {
          "duration": 0.2175923750000095,
          "durationTicks": 94,
          "midi": 57,
          "name": "A3",
          "ticks": 33696,
          "time": 77.999922,
          "velocity": 0.8661417322834646
        },
        {
          "duration": 0.2175923750000095,
          "durationTicks": 94,
          "midi": 54,
          "name": "F#3",
          "ticks": 33792,
          "time": 78.222144,
          "velocity": 0.8661417322834646
        },
        {
          "duration": 0.2175923750000095,
          "durationTicks": 94,
          "midi": 57,
          "name": "A3",
          "ticks": 33792,
          "time": 78.222144,
          "velocity": 0.8661417322834646
        },
        {
          "duration": 0.2175923750000095,
          "durationTicks": 94,
          "midi": 63,
          "name": "D#4",
          "ticks": 33792,
          "time": 78.222144,
          "velocity": 0.8661417322834646
        },
        {
          "duration": 0.2175923750000095,
          "durationTicks": 94,
          "midi": 69,
          "name": "A4",
          "ticks": 33888,
          "time": 78.444366,
          "velocity": 0.8661417322834646
        },
        {
          "duration": 0.2175923750000095,
          "durationTicks": 94,
          "midi": 57,
          "name": "A3",
          "ticks": 33888,
          "time": 78.444366,
          "velocity": 0.8661417322834646
        },
        {
          "duration": 0.2175923750000095,
          "durationTicks": 94,
          "midi": 63,
          "name": "D#4",
          "ticks": 33888,
          "time": 78.444366,
          "velocity": 0.8661417322834646
        },
        {
          "duration": 0.2175923750000095,
          "durationTicks": 94,
          "midi": 54,
          "name": "F#3",
          "ticks": 33888,
          "time": 78.444366,
          "velocity": 0.8661417322834646
        },
        {
          "duration": 0.4398143749999974,
          "durationTicks": 190,
          "midi": 47,
          "name": "B2",
          "ticks": 33984,
          "time": 78.666588,
          "velocity": 0.8661417322834646
        },
        {
          "duration": 0.4398143749999974,
          "durationTicks": 190,
          "midi": 54,
          "name": "F#3",
          "ticks": 33984,
          "time": 78.666588,
          "velocity": 0.8661417322834646
        },
        {
          "duration": 0.4398143749999974,
          "durationTicks": 190,
          "midi": 63,
          "name": "D#4",
          "ticks": 33984,
          "time": 78.666588,
          "velocity": 0.8661417322834646
        },
        {
          "duration": 0.8842583750000017,
          "durationTicks": 382,
          "midi": 69,
          "name": "A4",
          "ticks": 33984,
          "time": 78.666588,
          "velocity": 0.8661417322834646
        },
        {
          "duration": 0.4398143749999974,
          "durationTicks": 190,
          "midi": 57,
          "name": "A3",
          "ticks": 33984,
          "time": 78.666588,
          "velocity": 0.8661417322834646
        },
        {
          "duration": 0.43981437500001164,
          "durationTicks": 190,
          "midi": 63,
          "name": "D#4",
          "ticks": 34176,
          "time": 79.111032,
          "velocity": 0.8661417322834646
        },
        {
          "duration": 0.43981437500001164,
          "durationTicks": 190,
          "midi": 47,
          "name": "B2",
          "ticks": 34176,
          "time": 79.111032,
          "velocity": 0.8661417322834646
        },
        {
          "duration": 0.43981437500001164,
          "durationTicks": 190,
          "midi": 54,
          "name": "F#3",
          "ticks": 34176,
          "time": 79.111032,
          "velocity": 0.8661417322834646
        },
        {
          "duration": 0.43981437500001164,
          "durationTicks": 190,
          "midi": 57,
          "name": "A3",
          "ticks": 34176,
          "time": 79.111032,
          "velocity": 0.8661417322834646
        },
        {
          "duration": 0.43981437500001164,
          "durationTicks": 190,
          "midi": 54,
          "name": "F#3",
          "ticks": 34368,
          "time": 79.555476,
          "velocity": 0.8661417322834646
        },
        {
          "duration": 0.43981437500001164,
          "durationTicks": 190,
          "midi": 47,
          "name": "B2",
          "ticks": 34368,
          "time": 79.555476,
          "velocity": 0.8661417322834646
        },
        {
          "duration": 0.43981437500001164,
          "durationTicks": 190,
          "midi": 57,
          "name": "A3",
          "ticks": 34368,
          "time": 79.555476,
          "velocity": 0.8661417322834646
        },
        {
          "duration": 0.43981437500001164,
          "durationTicks": 190,
          "midi": 63,
          "name": "D#4",
          "ticks": 34368,
          "time": 79.555476,
          "velocity": 0.8661417322834646
        },
        {
          "duration": 0.43981437500001164,
          "durationTicks": 190,
          "midi": 69,
          "name": "A4",
          "ticks": 34368,
          "time": 79.555476,
          "velocity": 0.8661417322834646
        },
        {
          "duration": 0.2175923750000095,
          "durationTicks": 94,
          "midi": 66,
          "name": "F#4",
          "ticks": 34464,
          "time": 79.777698,
          "velocity": 0.8661417322834646
        },
        {
          "duration": 1.328702375000006,
          "durationTicks": 574,
          "midi": 64,
          "name": "E4",
          "ticks": 34560,
          "time": 79.99992,
          "velocity": 0.8661417322834646
        },
        {
          "duration": 1.328702375000006,
          "durationTicks": 574,
          "midi": 57,
          "name": "A3",
          "ticks": 34560,
          "time": 79.99992,
          "velocity": 0.8661417322834646
        },
        {
          "duration": 0.4398143749999974,
          "durationTicks": 190,
          "midi": 73,
          "name": "C#5",
          "ticks": 34656,
          "time": 80.222142,
          "velocity": 0.8661417322834646
        },
        {
          "duration": 0.43981437500001164,
          "durationTicks": 190,
          "midi": 71,
          "name": "B4",
          "ticks": 34848,
          "time": 80.666586,
          "velocity": 0.8661417322834646
        },
        {
          "duration": 0.6620363749999996,
          "durationTicks": 286,
          "midi": 69,
          "name": "A4",
          "ticks": 35040,
          "time": 81.11103,
          "velocity": 0.8661417322834646
        },
        {
          "duration": 0.4398143749999974,
          "durationTicks": 190,
          "midi": 64,
          "name": "E4",
          "ticks": 35232,
          "time": 81.555474,
          "velocity": 0.8661417322834646
        },
        {
          "duration": 0.4398143749999974,
          "durationTicks": 190,
          "midi": 66,
          "name": "F#4",
          "ticks": 35328,
          "time": 81.777696,
          "velocity": 0.8661417322834646
        },
        {
          "duration": 0.4398143749999974,
          "durationTicks": 190,
          "midi": 69,
          "name": "A4",
          "ticks": 35424,
          "time": 81.99991800000001,
          "velocity": 0.8661417322834646
        },
        {
          "duration": 0.43981437500001164,
          "durationTicks": 190,
          "midi": 71,
          "name": "B4",
          "ticks": 35520,
          "time": 82.22214,
          "velocity": 0.8661417322834646
        },
        {
          "duration": 0.43981437500001164,
          "durationTicks": 190,
          "midi": 64,
          "name": "E4",
          "ticks": 35616,
          "time": 82.444362,
          "velocity": 0.8661417322834646
        },
        {
          "duration": 0.43981437500001164,
          "durationTicks": 190,
          "midi": 69,
          "name": "A4",
          "ticks": 35712,
          "time": 82.666584,
          "velocity": 0.8661417322834646
        },
        {
          "duration": 0.4398143749999974,
          "durationTicks": 190,
          "midi": 71,
          "name": "B4",
          "ticks": 35808,
          "time": 82.888806,
          "velocity": 0.8661417322834646
        },
        {
          "duration": 0.4398143749999974,
          "durationTicks": 190,
          "midi": 62,
          "name": "D4",
          "ticks": 35904,
          "time": 83.111028,
          "velocity": 0.8661417322834646
        },
        {
          "duration": 0.4398143749999974,
          "durationTicks": 190,
          "midi": 69,
          "name": "A4",
          "ticks": 36000,
          "time": 83.33325,
          "velocity": 0.8661417322834646
        },
        {
          "duration": 0.43981437500001164,
          "durationTicks": 190,
          "midi": 71,
          "name": "B4",
          "ticks": 36096,
          "time": 83.555472,
          "velocity": 0.8661417322834646
        },
        {
          "duration": 0.43981437500001164,
          "durationTicks": 190,
          "midi": 64,
          "name": "E4",
          "ticks": 36192,
          "time": 83.777694,
          "velocity": 0.8661417322834646
        },
        {
          "duration": 0.43981437500001164,
          "durationTicks": 190,
          "midi": 69,
          "name": "A4",
          "ticks": 36288,
          "time": 83.999916,
          "velocity": 0.8661417322834646
        },
        {
          "duration": 0.4398143749999974,
          "durationTicks": 190,
          "midi": 71,
          "name": "B4",
          "ticks": 36384,
          "time": 84.222138,
          "velocity": 0.8661417322834646
        },
        {
          "duration": 0.4398143749999974,
          "durationTicks": 190,
          "midi": 69,
          "name": "A4",
          "ticks": 36480,
          "time": 84.44436,
          "velocity": 0.8661417322834646
        },
        {
          "duration": 0.4398143749999974,
          "durationTicks": 190,
          "midi": 68,
          "name": "G#4",
          "ticks": 36576,
          "time": 84.666582,
          "velocity": 0.8661417322834646
        },
        {
          "duration": 0.4398143749999974,
          "durationTicks": 190,
          "midi": 66,
          "name": "F#4",
          "ticks": 36672,
          "time": 84.88880400000001,
          "velocity": 0.8661417322834646
        },
        {
          "duration": 0.2175923750000095,
          "durationTicks": 94,
          "midi": 64,
          "name": "E4",
          "ticks": 36768,
          "time": 85.111026,
          "velocity": 0.8661417322834646
        },
        {
          "duration": 0.43981437500001164,
          "durationTicks": 190,
          "midi": 57,
          "name": "A3",
          "ticks": 36864,
          "time": 85.333248,
          "velocity": 0.8661417322834646
        },
        {
          "duration": 0.4398143749999974,
          "durationTicks": 190,
          "midi": 57,
          "name": "A3",
          "ticks": 37056,
          "time": 85.777692,
          "velocity": 0.8661417322834646
        },
        {
          "duration": 0.4398143749999974,
          "durationTicks": 190,
          "midi": 64,
          "name": "E4",
          "ticks": 37056,
          "time": 85.777692,
          "velocity": 0.8661417322834646
        },
        {
          "duration": 0.2175923750000095,
          "durationTicks": 94,
          "midi": 69,
          "name": "A4",
          "ticks": 37056,
          "time": 85.777692,
          "velocity": 0.8661417322834646
        },
        {
          "duration": 0.4398143749999974,
          "durationTicks": 190,
          "midi": 73,
          "name": "C#5",
          "ticks": 37056,
          "time": 85.777692,
          "velocity": 0.8661417322834646
        },
        {
          "duration": 0.21759237499999529,
          "durationTicks": 94,
          "midi": 69,
          "name": "A4",
          "ticks": 37152,
          "time": 85.999914,
          "velocity": 0.8661417322834646
        },
        {
          "duration": 0.21759237499999529,
          "durationTicks": 94,
          "midi": 71,
          "name": "B4",
          "ticks": 37248,
          "time": 86.222136,
          "velocity": 0.8661417322834646
        },
        {
          "duration": 0.6620363749999996,
          "durationTicks": 286,
          "midi": 64,
          "name": "E4",
          "ticks": 37248,
          "time": 86.222136,
          "velocity": 0.8661417322834646
        },
        {
          "duration": 0.6620363749999996,
          "durationTicks": 286,
          "midi": 69,
          "name": "A4",
          "ticks": 37248,
          "time": 86.222136,
          "velocity": 0.8661417322834646
        },
        {
          "duration": 0.8842583750000017,
          "durationTicks": 382,
          "midi": 57,
          "name": "A3",
          "ticks": 37248,
          "time": 86.222136,
          "velocity": 0.8661417322834646
        },
        {
          "duration": 0.6620363750000138,
          "durationTicks": 286,
          "midi": 73,
          "name": "C#5",
          "ticks": 37344,
          "time": 86.444358,
          "velocity": 0.8661417322834646
        },
        {
          "duration": 0.2175923750000095,
          "durationTicks": 94,
          "midi": 66,
          "name": "F#4",
          "ticks": 37536,
          "time": 86.888802,
          "velocity": 0.8661417322834646
        },
        {
          "duration": 0.2175923750000095,
          "durationTicks": 94,
          "midi": 62,
          "name": "D4",
          "ticks": 37536,
          "time": 86.888802,
          "velocity": 0.8661417322834646
        },
        {
          "duration": 0.8842583750000017,
          "durationTicks": 382,
          "midi": 68,
          "name": "G#4",
          "ticks": 37632,
          "time": 87.111024,
          "velocity": 0.8661417322834646
        },
        {
          "duration": 0.8842583750000017,
          "durationTicks": 382,
          "midi": 62,
          "name": "D4",
          "ticks": 37632,
          "time": 87.111024,
          "velocity": 0.8661417322834646
        },
        {
          "duration": 0.8842583750000017,
          "durationTicks": 382,
          "midi": 52,
          "name": "E3",
          "ticks": 37632,
          "time": 87.111024,
          "velocity": 0.8661417322834646
        },
        {
          "duration": 0.8842583750000017,
          "durationTicks": 382,
          "midi": 59,
          "name": "B3",
          "ticks": 37632,
          "time": 87.111024,
          "velocity": 0.8661417322834646
        },
        {
          "duration": 0.6620363750000138,
          "durationTicks": 286,
          "midi": 52,
          "name": "E3",
          "ticks": 38016,
          "time": 87.999912,
          "velocity": 0.8661417322834646
        },
        {
          "duration": 0.43981437500001164,
          "durationTicks": 190,
          "midi": 56,
          "name": "G#3",
          "ticks": 38112,
          "time": 88.222134,
          "velocity": 0.8661417322834646
        },
        {
          "duration": 0.2175923750000095,
          "durationTicks": 94,
          "midi": 59,
          "name": "B3",
          "ticks": 38208,
          "time": 88.444356,
          "velocity": 0.8661417322834646
        },
        {
          "duration": 0.6620363749999996,
          "durationTicks": 286,
          "midi": 60,
          "name": "C4",
          "ticks": 38304,
          "time": 88.666578,
          "velocity": 0.8661417322834646
        },
        {
          "duration": 0.4398143749999974,
          "durationTicks": 190,
          "midi": 64,
          "name": "E4",
          "ticks": 38400,
          "time": 88.8888,
          "velocity": 0.8661417322834646
        },
        {
          "duration": 0.21759237499999529,
          "durationTicks": 94,
          "midi": 67,
          "name": "G4",
          "ticks": 38496,
          "time": 89.111022,
          "velocity": 0.8661417322834646
        },
        {
          "duration": 0.6620363749999996,
          "durationTicks": 286,
          "midi": 55,
          "name": "G3",
          "ticks": 38592,
          "time": 89.33324400000001,
          "velocity": 0.8661417322834646
        },
        {
          "duration": 0.43981437500001164,
          "durationTicks": 190,
          "midi": 59,
          "name": "B3",
          "ticks": 38688,
          "time": 89.555466,
          "velocity": 0.8661417322834646
        },
        {
          "duration": 0.2175923750000095,
          "durationTicks": 94,
          "midi": 62,
          "name": "D4",
          "ticks": 38784,
          "time": 89.777688,
          "velocity": 0.8661417322834646
        },
        {
          "duration": 0.6620363749999996,
          "durationTicks": 286,
          "midi": 54,
          "name": "F#3",
          "ticks": 38880,
          "time": 89.99991,
          "velocity": 0.8661417322834646
        },
        {
          "duration": 0.4398143749999974,
          "durationTicks": 190,
          "midi": 57,
          "name": "A3",
          "ticks": 38976,
          "time": 90.222132,
          "velocity": 0.8661417322834646
        },
        {
          "duration": 0.21759237499999529,
          "durationTicks": 94,
          "midi": 62,
          "name": "D4",
          "ticks": 39072,
          "time": 90.444354,
          "velocity": 0.8661417322834646
        },
        {
          "duration": 0.4398143749999974,
          "durationTicks": 190,
          "midi": 50,
          "name": "D3",
          "ticks": 39168,
          "time": 90.666576,
          "velocity": 0.8661417322834646
        },
        {
          "duration": 0.2175923750000095,
          "durationTicks": 94,
          "midi": 54,
          "name": "F#3",
          "ticks": 39264,
          "time": 90.888798,
          "velocity": 0.8661417322834646
        },
        {
          "duration": 1.7731463750000103,
          "durationTicks": 766,
          "midi": 57,
          "name": "A3",
          "ticks": 39360,
          "time": 91.11102,
          "velocity": 0.8661417322834646
        },
        {
          "duration": 0.43981437500001164,
          "durationTicks": 190,
          "midi": 69,
          "name": "A4",
          "ticks": 39552,
          "time": 91.555464,
          "velocity": 0.8661417322834646
        },
        {
          "duration": 0.43981437500001164,
          "durationTicks": 190,
          "midi": 64,
          "name": "E4",
          "ticks": 39552,
          "time": 91.555464,
          "velocity": 0.8661417322834646
        },
        {
          "duration": 0.43981437500001164,
          "durationTicks": 190,
          "midi": 73,
          "name": "C#5",
          "ticks": 39552,
          "time": 91.555464,
          "velocity": 0.8661417322834646
        },
        {
          "duration": 0.4398143749999974,
          "durationTicks": 190,
          "midi": 73,
          "name": "C#5",
          "ticks": 39744,
          "time": 91.999908,
          "velocity": 0.8661417322834646
        },
        {
          "duration": 0.4398143749999974,
          "durationTicks": 190,
          "midi": 64,
          "name": "E4",
          "ticks": 39744,
          "time": 91.999908,
          "velocity": 0.8661417322834646
        },
        {
          "duration": 0.4398143749999974,
          "durationTicks": 190,
          "midi": 69,
          "name": "A4",
          "ticks": 39744,
          "time": 91.999908,
          "velocity": 0.8661417322834646
        },
        {
          "duration": 0.43981437500001164,
          "durationTicks": 190,
          "midi": 69,
          "name": "A4",
          "ticks": 39936,
          "time": 92.444352,
          "velocity": 0.8661417322834646
        },
        {
          "duration": 0.43981437500001164,
          "durationTicks": 190,
          "midi": 73,
          "name": "C#5",
          "ticks": 39936,
          "time": 92.444352,
          "velocity": 0.8661417322834646
        },
        {
          "duration": 0.43981437500001164,
          "durationTicks": 190,
          "midi": 71,
          "name": "B4",
          "ticks": 40128,
          "time": 92.888796,
          "velocity": 0.8661417322834646
        },
        {
          "duration": 0.43981437500001164,
          "durationTicks": 190,
          "midi": 68,
          "name": "G#4",
          "ticks": 40128,
          "time": 92.888796,
          "velocity": 0.8661417322834646
        },
        {
          "duration": 0.43981437500001164,
          "durationTicks": 190,
          "midi": 59,
          "name": "B3",
          "ticks": 40128,
          "time": 92.888796,
          "velocity": 0.8661417322834646
        },
        {
          "duration": 0.43981437500001164,
          "durationTicks": 190,
          "midi": 62,
          "name": "D4",
          "ticks": 40128,
          "time": 92.888796,
          "velocity": 0.8661417322834646
        },
        {
          "duration": 0.43981437500001164,
          "durationTicks": 190,
          "midi": 52,
          "name": "E3",
          "ticks": 40128,
          "time": 92.888796,
          "velocity": 0.8661417322834646
        },
        {
          "duration": 0.4398143749999974,
          "durationTicks": 190,
          "midi": 62,
          "name": "D4",
          "ticks": 40320,
          "time": 93.33324,
          "velocity": 0.8661417322834646
        },
        {
          "duration": 0.4398143749999974,
          "durationTicks": 190,
          "midi": 52,
          "name": "E3",
          "ticks": 40320,
          "time": 93.33324,
          "velocity": 0.8661417322834646
        },
        {
          "duration": 0.4398143749999974,
          "durationTicks": 190,
          "midi": 71,
          "name": "B4",
          "ticks": 40320,
          "time": 93.33324,
          "velocity": 0.8661417322834646
        },
        {
          "duration": 0.4398143749999974,
          "durationTicks": 190,
          "midi": 59,
          "name": "B3",
          "ticks": 40320,
          "time": 93.33324,
          "velocity": 0.8661417322834646
        },
        {
          "duration": 0.4398143749999974,
          "durationTicks": 190,
          "midi": 68,
          "name": "G#4",
          "ticks": 40320,
          "time": 93.33324,
          "velocity": 0.8661417322834646
        },
        {
          "duration": 0.6620363749999996,
          "durationTicks": 286,
          "midi": 52,
          "name": "E3",
          "ticks": 40512,
          "time": 93.77768400000001,
          "velocity": 0.8661417322834646
        },
        {
          "duration": 0.43981437500001164,
          "durationTicks": 190,
          "midi": 56,
          "name": "G#3",
          "ticks": 40608,
          "time": 93.999906,
          "velocity": 0.8661417322834646
        },
        {
          "duration": 0.2175923750000095,
          "durationTicks": 94,
          "midi": 59,
          "name": "B3",
          "ticks": 40704,
          "time": 94.222128,
          "velocity": 0.8661417322834646
        },
        {
          "duration": 0.6620363749999996,
          "durationTicks": 286,
          "midi": 60,
          "name": "C4",
          "ticks": 40800,
          "time": 94.44435,
          "velocity": 0.8661417322834646
        },
        {
          "duration": 0.4398143749999974,
          "durationTicks": 190,
          "midi": 64,
          "name": "E4",
          "ticks": 40896,
          "time": 94.666572,
          "velocity": 0.8661417322834646
        },
        {
          "duration": 0.21759237499999529,
          "durationTicks": 94,
          "midi": 67,
          "name": "G4",
          "ticks": 40992,
          "time": 94.888794,
          "velocity": 0.8661417322834646
        },
        {
          "duration": 0.6620363749999996,
          "durationTicks": 286,
          "midi": 55,
          "name": "G3",
          "ticks": 41088,
          "time": 95.111016,
          "velocity": 0.8661417322834646
        },
        {
          "duration": 0.43981437500001164,
          "durationTicks": 190,
          "midi": 59,
          "name": "B3",
          "ticks": 41184,
          "time": 95.333238,
          "velocity": 0.8661417322834646
        },
        {
          "duration": 0.2175923750000095,
          "durationTicks": 94,
          "midi": 62,
          "name": "D4",
          "ticks": 41280,
          "time": 95.55546,
          "velocity": 0.8661417322834646
        },
        {
          "duration": 0.6620363750000138,
          "durationTicks": 286,
          "midi": 54,
          "name": "F#3",
          "ticks": 41376,
          "time": 95.777682,
          "velocity": 0.8661417322834646
        },
        {
          "duration": 0.43981437500001164,
          "durationTicks": 190,
          "midi": 57,
          "name": "A3",
          "ticks": 41472,
          "time": 95.999904,
          "velocity": 0.8661417322834646
        },
        {
          "duration": 0.2175923750000095,
          "durationTicks": 94,
          "midi": 62,
          "name": "D4",
          "ticks": 41568,
          "time": 96.222126,
          "velocity": 0.8661417322834646
        },
        {
          "duration": 0.4398143749999974,
          "durationTicks": 190,
          "midi": 50,
          "name": "D3",
          "ticks": 41664,
          "time": 96.444348,
          "velocity": 0.8661417322834646
        },
        {
          "duration": 0.21759237499999529,
          "durationTicks": 94,
          "midi": 54,
          "name": "F#3",
          "ticks": 41760,
          "time": 96.66657000000001,
          "velocity": 0.8661417322834646
        },
        {
          "duration": 1.7731463750000103,
          "durationTicks": 766,
          "midi": 57,
          "name": "A3",
          "ticks": 41856,
          "time": 96.888792,
          "velocity": 0.8661417322834646
        },
        {
          "duration": 0.43981437500001164,
          "durationTicks": 190,
          "midi": 52,
          "name": "E3",
          "ticks": 42624,
          "time": 98.666568,
          "velocity": 0.8661417322834646
        },
        {
          "duration": 0.43981437500001164,
          "durationTicks": 190,
          "midi": 59,
          "name": "B3",
          "ticks": 42624,
          "time": 98.666568,
          "velocity": 0.8661417322834646
        },
        {
          "duration": 0.43981437500001164,
          "durationTicks": 190,
          "midi": 68,
          "name": "G#4",
          "ticks": 42624,
          "time": 98.666568,
          "velocity": 0.8661417322834646
        },
        {
          "duration": 0.43981437500001164,
          "durationTicks": 190,
          "midi": 62,
          "name": "D4",
          "ticks": 42624,
          "time": 98.666568,
          "velocity": 0.8661417322834646
        },
        {
          "duration": 0.43981437500001164,
          "durationTicks": 190,
          "midi": 71,
          "name": "B4",
          "ticks": 42624,
          "time": 98.666568,
          "velocity": 0.8661417322834646
        },
        {
          "duration": 0.4398143749999974,
          "durationTicks": 190,
          "midi": 71,
          "name": "B4",
          "ticks": 42816,
          "time": 99.111012,
          "velocity": 0.8661417322834646
        },
        {
          "duration": 0.4398143749999974,
          "durationTicks": 190,
          "midi": 59,
          "name": "B3",
          "ticks": 42816,
          "time": 99.111012,
          "velocity": 0.8661417322834646
        },
        {
          "duration": 0.4398143749999974,
          "durationTicks": 190,
          "midi": 62,
          "name": "D4",
          "ticks": 42816,
          "time": 99.111012,
          "velocity": 0.8661417322834646
        },
        {
          "duration": 0.4398143749999974,
          "durationTicks": 190,
          "midi": 68,
          "name": "G#4",
          "ticks": 42816,
          "time": 99.111012,
          "velocity": 0.8661417322834646
        },
        {
          "duration": 0.4398143749999974,
          "durationTicks": 190,
          "midi": 52,
          "name": "E3",
          "ticks": 42816,
          "time": 99.111012,
          "velocity": 0.8661417322834646
        },
        {
          "duration": 0.6620363749999996,
          "durationTicks": 286,
          "midi": 52,
          "name": "E3",
          "ticks": 43008,
          "time": 99.555456,
          "velocity": 0.8661417322834646
        },
        {
          "duration": 0.43981437500001164,
          "durationTicks": 190,
          "midi": 56,
          "name": "G#3",
          "ticks": 43104,
          "time": 99.777678,
          "velocity": 0.8661417322834646
        },
        {
          "duration": 0.2175923750000095,
          "durationTicks": 94,
          "midi": 59,
          "name": "B3",
          "ticks": 43200,
          "time": 99.9999,
          "velocity": 0.8661417322834646
        },
        {
          "duration": 0.6620363750000138,
          "durationTicks": 286,
          "midi": 60,
          "name": "C4",
          "ticks": 43296,
          "time": 100.222122,
          "velocity": 0.8661417322834646
        },
        {
          "duration": 0.43981437500001164,
          "durationTicks": 190,
          "midi": 64,
          "name": "E4",
          "ticks": 43392,
          "time": 100.444344,
          "velocity": 0.8661417322834646
        },
        {
          "duration": 0.2175923750000095,
          "durationTicks": 94,
          "midi": 67,
          "name": "G4",
          "ticks": 43488,
          "time": 100.666566,
          "velocity": 0.8661417322834646
        },
        {
          "duration": 0.6620363749999996,
          "durationTicks": 286,
          "midi": 55,
          "name": "G3",
          "ticks": 43584,
          "time": 100.888788,
          "velocity": 0.8661417322834646
        },
        {
          "duration": 0.4398143749999974,
          "durationTicks": 190,
          "midi": 59,
          "name": "B3",
          "ticks": 43680,
          "time": 101.11101000000001,
          "velocity": 0.8661417322834646
        },
        {
          "duration": 0.2175923750000095,
          "durationTicks": 94,
          "midi": 62,
          "name": "D4",
          "ticks": 43776,
          "time": 101.333232,
          "velocity": 0.8661417322834646
        },
        {
          "duration": 0.6620363750000138,
          "durationTicks": 286,
          "midi": 54,
          "name": "F#3",
          "ticks": 43872,
          "time": 101.555454,
          "velocity": 0.8661417322834646
        },
        {
          "duration": 0.43981437500001164,
          "durationTicks": 190,
          "midi": 57,
          "name": "A3",
          "ticks": 43968,
          "time": 101.777676,
          "velocity": 0.8661417322834646
        },
        {
          "duration": 0.2175923750000095,
          "durationTicks": 94,
          "midi": 62,
          "name": "D4",
          "ticks": 44064,
          "time": 101.999898,
          "velocity": 0.8661417322834646
        },
        {
          "duration": 0.4398143749999974,
          "durationTicks": 190,
          "midi": 50,
          "name": "D3",
          "ticks": 44160,
          "time": 102.22212,
          "velocity": 0.8661417322834646
        },
        {
          "duration": 0.21759237499999529,
          "durationTicks": 94,
          "midi": 54,
          "name": "F#3",
          "ticks": 44256,
          "time": 102.444342,
          "velocity": 0.8661417322834646
        },
        {
          "duration": 1.773146374999996,
          "durationTicks": 766,
          "midi": 57,
          "name": "A3",
          "ticks": 44352,
          "time": 102.66656400000001,
          "velocity": 0.8661417322834646
        },
        {
          "duration": 0.43981437500001164,
          "durationTicks": 190,
          "midi": 71,
          "name": "B4",
          "ticks": 45120,
          "time": 104.44434,
          "velocity": 0.8661417322834646
        },
        {
          "duration": 0.43981437500001164,
          "durationTicks": 190,
          "midi": 62,
          "name": "D4",
          "ticks": 45120,
          "time": 104.44434,
          "velocity": 0.8661417322834646
        },
        {
          "duration": 0.43981437500001164,
          "durationTicks": 190,
          "midi": 59,
          "name": "B3",
          "ticks": 45120,
          "time": 104.44434,
          "velocity": 0.8661417322834646
        },
        {
          "duration": 0.43981437500001164,
          "durationTicks": 190,
          "midi": 68,
          "name": "G#4",
          "ticks": 45120,
          "time": 104.44434,
          "velocity": 0.8661417322834646
        },
        {
          "duration": 0.43981437500001164,
          "durationTicks": 190,
          "midi": 52,
          "name": "E3",
          "ticks": 45120,
          "time": 104.44434,
          "velocity": 0.8661417322834646
        },
        {
          "duration": 0.4398143749999974,
          "durationTicks": 190,
          "midi": 71,
          "name": "B4",
          "ticks": 45312,
          "time": 104.888784,
          "velocity": 0.8661417322834646
        },
        {
          "duration": 0.4398143749999974,
          "durationTicks": 190,
          "midi": 68,
          "name": "G#4",
          "ticks": 45312,
          "time": 104.888784,
          "velocity": 0.8661417322834646
        },
        {
          "duration": 0.4398143749999974,
          "durationTicks": 190,
          "midi": 59,
          "name": "B3",
          "ticks": 45312,
          "time": 104.888784,
          "velocity": 0.8661417322834646
        },
        {
          "duration": 0.4398143749999974,
          "durationTicks": 190,
          "midi": 62,
          "name": "D4",
          "ticks": 45312,
          "time": 104.888784,
          "velocity": 0.8661417322834646
        },
        {
          "duration": 0.4398143749999974,
          "durationTicks": 190,
          "midi": 52,
          "name": "E3",
          "ticks": 45312,
          "time": 104.888784,
          "velocity": 0.8661417322834646
        },
        {
          "duration": 0.6620363749999996,
          "durationTicks": 286,
          "midi": 52,
          "name": "E3",
          "ticks": 45504,
          "time": 105.333228,
          "velocity": 0.8661417322834646
        },
        {
          "duration": 0.4398143749999974,
          "durationTicks": 190,
          "midi": 56,
          "name": "G#3",
          "ticks": 45600,
          "time": 105.55545000000001,
          "velocity": 0.8661417322834646
        },
        {
          "duration": 0.2175923750000095,
          "durationTicks": 94,
          "midi": 59,
          "name": "B3",
          "ticks": 45696,
          "time": 105.777672,
          "velocity": 0.8661417322834646
        },
        {
          "duration": 0.6620363750000138,
          "durationTicks": 286,
          "midi": 60,
          "name": "C4",
          "ticks": 45792,
          "time": 105.999894,
          "velocity": 0.8661417322834646
        },
        {
          "duration": 0.43981437500001164,
          "durationTicks": 190,
          "midi": 64,
          "name": "E4",
          "ticks": 45888,
          "time": 106.222116,
          "velocity": 0.8661417322834646
        },
        {
          "duration": 0.2175923750000095,
          "durationTicks": 94,
          "midi": 67,
          "name": "G4",
          "ticks": 45984,
          "time": 106.444338,
          "velocity": 0.8661417322834646
        },
        {
          "duration": 0.6620363749999996,
          "durationTicks": 286,
          "midi": 55,
          "name": "G3",
          "ticks": 46080,
          "time": 106.66656,
          "velocity": 0.8661417322834646
        },
        {
          "duration": 0.4398143749999974,
          "durationTicks": 190,
          "midi": 59,
          "name": "B3",
          "ticks": 46176,
          "time": 106.888782,
          "velocity": 0.8661417322834646
        },
        {
          "duration": 0.21759237499999529,
          "durationTicks": 94,
          "midi": 62,
          "name": "D4",
          "ticks": 46272,
          "time": 107.11100400000001,
          "velocity": 0.8661417322834646
        },
        {
          "duration": 0.6620363750000138,
          "durationTicks": 286,
          "midi": 54,
          "name": "F#3",
          "ticks": 46368,
          "time": 107.333226,
          "velocity": 0.8661417322834646
        },
        {
          "duration": 0.43981437500001164,
          "durationTicks": 190,
          "midi": 57,
          "name": "A3",
          "ticks": 46464,
          "time": 107.555448,
          "velocity": 0.8661417322834646
        },
        {
          "duration": 0.2175923750000095,
          "durationTicks": 94,
          "midi": 62,
          "name": "D4",
          "ticks": 46560,
          "time": 107.77767,
          "velocity": 0.8661417322834646
        },
        {
          "duration": 0.4398143749999974,
          "durationTicks": 190,
          "midi": 50,
          "name": "D3",
          "ticks": 46656,
          "time": 107.999892,
          "velocity": 0.8661417322834646
        },
        {
          "duration": 0.21759237499999529,
          "durationTicks": 94,
          "midi": 54,
          "name": "F#3",
          "ticks": 46752,
          "time": 108.222114,
          "velocity": 0.8661417322834646
        },
        {
          "duration": 1.773146374999996,
          "durationTicks": 766,
          "midi": 57,
          "name": "A3",
          "ticks": 46848,
          "time": 108.444336,
          "velocity": 0.8661417322834646
        },
        {
          "duration": 0.43981437500001164,
          "durationTicks": 190,
          "midi": 52,
          "name": "E3",
          "ticks": 47616,
          "time": 110.222112,
          "velocity": 0.8661417322834646
        },
        {
          "duration": 0.43981437500001164,
          "durationTicks": 190,
          "midi": 62,
          "name": "D4",
          "ticks": 47616,
          "time": 110.222112,
          "velocity": 0.8661417322834646
        },
        {
          "duration": 0.43981437500001164,
          "durationTicks": 190,
          "midi": 71,
          "name": "B4",
          "ticks": 47616,
          "time": 110.222112,
          "velocity": 0.8661417322834646
        },
        {
          "duration": 0.43981437500001164,
          "durationTicks": 190,
          "midi": 59,
          "name": "B3",
          "ticks": 47616,
          "time": 110.222112,
          "velocity": 0.8661417322834646
        },
        {
          "duration": 0.43981437500001164,
          "durationTicks": 190,
          "midi": 68,
          "name": "G#4",
          "ticks": 47616,
          "time": 110.222112,
          "velocity": 0.8661417322834646
        },
        {
          "duration": 0.43981437500001164,
          "durationTicks": 190,
          "midi": 71,
          "name": "B4",
          "ticks": 47808,
          "time": 110.666556,
          "velocity": 0.8661417322834646
        },
        {
          "duration": 0.43981437500001164,
          "durationTicks": 190,
          "midi": 62,
          "name": "D4",
          "ticks": 47808,
          "time": 110.666556,
          "velocity": 0.8661417322834646
        },
        {
          "duration": 0.43981437500001164,
          "durationTicks": 190,
          "midi": 68,
          "name": "G#4",
          "ticks": 47808,
          "time": 110.666556,
          "velocity": 0.8661417322834646
        },
        {
          "duration": 0.43981437500001164,
          "durationTicks": 190,
          "midi": 52,
          "name": "E3",
          "ticks": 47808,
          "time": 110.666556,
          "velocity": 0.8661417322834646
        },
        {
          "duration": 0.43981437500001164,
          "durationTicks": 190,
          "midi": 59,
          "name": "B3",
          "ticks": 47808,
          "time": 110.666556,
          "velocity": 0.8661417322834646
        },
        {
          "duration": 0.6620363749999996,
          "durationTicks": 286,
          "midi": 52,
          "name": "E3",
          "ticks": 48000,
          "time": 111.111,
          "velocity": 0.8661417322834646
        },
        {
          "duration": 0.4398143749999974,
          "durationTicks": 190,
          "midi": 56,
          "name": "G#3",
          "ticks": 48096,
          "time": 111.333222,
          "velocity": 0.8661417322834646
        },
        {
          "duration": 0.21759237499999529,
          "durationTicks": 94,
          "midi": 59,
          "name": "B3",
          "ticks": 48192,
          "time": 111.55544400000001,
          "velocity": 0.8661417322834646
        },
        {
          "duration": 0.6620363750000138,
          "durationTicks": 286,
          "midi": 60,
          "name": "C4",
          "ticks": 48288,
          "time": 111.777666,
          "velocity": 0.8661417322834646
        },
        {
          "duration": 0.43981437500001164,
          "durationTicks": 190,
          "midi": 64,
          "name": "E4",
          "ticks": 48384,
          "time": 111.999888,
          "velocity": 0.8661417322834646
        },
        {
          "duration": 0.2175923750000095,
          "durationTicks": 94,
          "midi": 67,
          "name": "G4",
          "ticks": 48480,
          "time": 112.22211,
          "velocity": 0.8661417322834646
        },
        {
          "duration": 0.6620363749999996,
          "durationTicks": 286,
          "midi": 55,
          "name": "G3",
          "ticks": 48576,
          "time": 112.444332,
          "velocity": 0.8661417322834646
        },
        {
          "duration": 0.4398143749999974,
          "durationTicks": 190,
          "midi": 59,
          "name": "B3",
          "ticks": 48672,
          "time": 112.666554,
          "velocity": 0.8661417322834646
        },
        {
          "duration": 0.21759237499999529,
          "durationTicks": 94,
          "midi": 62,
          "name": "D4",
          "ticks": 48768,
          "time": 112.88877600000001,
          "velocity": 0.8661417322834646
        },
        {
          "duration": 0.6620363750000138,
          "durationTicks": 286,
          "midi": 54,
          "name": "F#3",
          "ticks": 48864,
          "time": 113.110998,
          "velocity": 0.8661417322834646
        },
        {
          "duration": 0.43981437500001164,
          "durationTicks": 190,
          "midi": 57,
          "name": "A3",
          "ticks": 48960,
          "time": 113.33322,
          "velocity": 0.8661417322834646
        },
        {
          "duration": 0.2175923750000095,
          "durationTicks": 94,
          "midi": 62,
          "name": "D4",
          "ticks": 49056,
          "time": 113.555442,
          "velocity": 0.8661417322834646
        },
        {
          "duration": 0.4398143749999974,
          "durationTicks": 190,
          "midi": 50,
          "name": "D3",
          "ticks": 49152,
          "time": 113.777664,
          "velocity": 0.8661417322834646
        },
        {
          "duration": 0.21759237499999529,
          "durationTicks": 94,
          "midi": 54,
          "name": "F#3",
          "ticks": 49248,
          "time": 113.999886,
          "velocity": 0.8661417322834646
        },
        {
          "duration": 1.7731463749999818,
          "durationTicks": 766,
          "midi": 57,
          "name": "A3",
          "ticks": 49344,
          "time": 114.222108,
          "velocity": 0.8661417322834646
        },
        {
          "duration": 0.4398143749999974,
          "durationTicks": 190,
          "midi": 59,
          "name": "B3",
          "ticks": 50112,
          "time": 115.999884,
          "velocity": 0.8661417322834646
        },
        {
          "duration": 0.4398143749999974,
          "durationTicks": 190,
          "midi": 62,
          "name": "D4",
          "ticks": 50112,
          "time": 115.999884,
          "velocity": 0.8661417322834646
        },
        {
          "duration": 0.4398143749999974,
          "durationTicks": 190,
          "midi": 52,
          "name": "E3",
          "ticks": 50112,
          "time": 115.999884,
          "velocity": 0.8661417322834646
        },
        {
          "duration": 0.4398143749999974,
          "durationTicks": 190,
          "midi": 71,
          "name": "B4",
          "ticks": 50112,
          "time": 115.999884,
          "velocity": 0.8661417322834646
        },
        {
          "duration": 0.4398143749999974,
          "durationTicks": 190,
          "midi": 68,
          "name": "G#4",
          "ticks": 50112,
          "time": 115.999884,
          "velocity": 0.8661417322834646
        },
        {
          "duration": 0.4398143749999974,
          "durationTicks": 190,
          "midi": 59,
          "name": "B3",
          "ticks": 50304,
          "time": 116.444328,
          "velocity": 0.8661417322834646
        },
        {
          "duration": 0.4398143749999974,
          "durationTicks": 190,
          "midi": 52,
          "name": "E3",
          "ticks": 50304,
          "time": 116.444328,
          "velocity": 0.8661417322834646
        },
        {
          "duration": 0.4398143749999974,
          "durationTicks": 190,
          "midi": 62,
          "name": "D4",
          "ticks": 50304,
          "time": 116.444328,
          "velocity": 0.8661417322834646
        },
        {
          "duration": 0.4398143749999974,
          "durationTicks": 190,
          "midi": 68,
          "name": "G#4",
          "ticks": 50304,
          "time": 116.444328,
          "velocity": 0.8661417322834646
        },
        {
          "duration": 0.4398143749999974,
          "durationTicks": 190,
          "midi": 71,
          "name": "B4",
          "ticks": 50304,
          "time": 116.444328,
          "velocity": 0.8661417322834646
        },
        {
          "duration": 0.6620363749999854,
          "durationTicks": 286,
          "midi": 52,
          "name": "E3",
          "ticks": 50496,
          "time": 116.888772,
          "velocity": 0.8661417322834646
        },
        {
          "duration": 0.4398143749999832,
          "durationTicks": 190,
          "midi": 56,
          "name": "G#3",
          "ticks": 50592,
          "time": 117.110994,
          "velocity": 0.8661417322834646
        },
        {
          "duration": 0.21759237499998108,
          "durationTicks": 94,
          "midi": 59,
          "name": "B3",
          "ticks": 50688,
          "time": 117.33321600000001,
          "velocity": 0.8661417322834646
        },
        {
          "duration": 0.6620363749999996,
          "durationTicks": 286,
          "midi": 60,
          "name": "C4",
          "ticks": 50784,
          "time": 117.555438,
          "velocity": 0.8661417322834646
        },
        {
          "duration": 0.4398143749999974,
          "durationTicks": 190,
          "midi": 64,
          "name": "E4",
          "ticks": 50880,
          "time": 117.77766,
          "velocity": 0.8661417322834646
        },
        {
          "duration": 0.21759237499999529,
          "durationTicks": 94,
          "midi": 67,
          "name": "G4",
          "ticks": 50976,
          "time": 117.999882,
          "velocity": 0.8661417322834646
        },
        {
          "duration": 0.6620363749999854,
          "durationTicks": 286,
          "midi": 55,
          "name": "G3",
          "ticks": 51072,
          "time": 118.222104,
          "velocity": 0.8661417322834646
        },
        {
          "duration": 0.4398143749999832,
          "durationTicks": 190,
          "midi": 59,
          "name": "B3",
          "ticks": 51168,
          "time": 118.444326,
          "velocity": 0.8661417322834646
        },
        {
          "duration": 0.21759237499998108,
          "durationTicks": 94,
          "midi": 62,
          "name": "D4",
          "ticks": 51264,
          "time": 118.666548,
          "velocity": 0.8661417322834646
        },
        {
          "duration": 0.6620363749999854,
          "durationTicks": 286,
          "midi": 54,
          "name": "F#3",
          "ticks": 51360,
          "time": 118.88877000000001,
          "velocity": 0.8661417322834646
        },
        {
          "duration": 0.4398143749999974,
          "durationTicks": 190,
          "midi": 57,
          "name": "A3",
          "ticks": 51456,
          "time": 119.110992,
          "velocity": 0.8661417322834646
        },
        {
          "duration": 0.21759237499999529,
          "durationTicks": 94,
          "midi": 62,
          "name": "D4",
          "ticks": 51552,
          "time": 119.333214,
          "velocity": 0.8661417322834646
        },
        {
          "duration": 0.4398143749999974,
          "durationTicks": 190,
          "midi": 50,
          "name": "D3",
          "ticks": 51648,
          "time": 119.555436,
          "velocity": 0.8661417322834646
        },
        {
          "duration": 0.21759237499999529,
          "durationTicks": 94,
          "midi": 54,
          "name": "F#3",
          "ticks": 51744,
          "time": 119.777658,
          "velocity": 0.8661417322834646
        },
        {
          "duration": 0.4398143749999832,
          "durationTicks": 190,
          "midi": 73,
          "name": "C#5",
          "ticks": 51840,
          "time": 119.99988,
          "velocity": 0.8661417322834646
        },
        {
          "duration": 0.8842583749999875,
          "durationTicks": 382,
          "midi": 57,
          "name": "A3",
          "ticks": 51840,
          "time": 119.99988,
          "velocity": 0.8661417322834646
        },
        {
          "duration": 0.4398143749999832,
          "durationTicks": 190,
          "midi": 69,
          "name": "A4",
          "ticks": 51840,
          "time": 119.99988,
          "velocity": 0.8661417322834646
        },
        {
          "duration": 0.4398143749999832,
          "durationTicks": 190,
          "midi": 64,
          "name": "E4",
          "ticks": 51840,
          "time": 119.99988,
          "velocity": 0.8661417322834646
        },
        {
          "duration": 0.4398143749999974,
          "durationTicks": 190,
          "midi": 73,
          "name": "C#5",
          "ticks": 52032,
          "time": 120.444324,
          "velocity": 0.8661417322834646
        },
        {
          "duration": 0.4398143749999974,
          "durationTicks": 190,
          "midi": 69,
          "name": "A4",
          "ticks": 52032,
          "time": 120.444324,
          "velocity": 0.8661417322834646
        },
        {
          "duration": 0.4398143749999974,
          "durationTicks": 190,
          "midi": 64,
          "name": "E4",
          "ticks": 52032,
          "time": 120.444324,
          "velocity": 0.8661417322834646
        },
        {
          "duration": 0.21759237499999529,
          "durationTicks": 94,
          "midi": 71,
          "name": "B4",
          "ticks": 52224,
          "time": 120.888768,
          "velocity": 0.8661417322834646
        },
        {
          "duration": 0.4398143749999974,
          "durationTicks": 190,
          "midi": 64,
          "name": "E4",
          "ticks": 52224,
          "time": 120.888768,
          "velocity": 0.8661417322834646
        },
        {
          "duration": 0.21759237499999529,
          "durationTicks": 94,
          "midi": 69,
          "name": "A4",
          "ticks": 52224,
          "time": 120.888768,
          "velocity": 0.8661417322834646
        },
        {
          "duration": 0.21759237499999529,
          "durationTicks": 94,
          "midi": 69,
          "name": "A4",
          "ticks": 52320,
          "time": 121.11099,
          "velocity": 0.8661417322834646
        },
        {
          "duration": 0.21759237499999529,
          "durationTicks": 94,
          "midi": 73,
          "name": "C#5",
          "ticks": 52320,
          "time": 121.11099,
          "velocity": 0.8661417322834646
        },
        {
          "duration": 0.6620363749999854,
          "durationTicks": 286,
          "midi": 52,
          "name": "E3",
          "ticks": 52512,
          "time": 121.555434,
          "velocity": 0.8661417322834646
        },
        {
          "duration": 0.4398143749999832,
          "durationTicks": 190,
          "midi": 68,
          "name": "G#4",
          "ticks": 52512,
          "time": 121.555434,
          "velocity": 0.8661417322834646
        },
        {
          "duration": 0.4398143749999832,
          "durationTicks": 190,
          "midi": 62,
          "name": "D4",
          "ticks": 52512,
          "time": 121.555434,
          "velocity": 0.8661417322834646
        },
        {
          "duration": 0.4398143749999832,
          "durationTicks": 190,
          "midi": 59,
          "name": "B3",
          "ticks": 52512,
          "time": 121.555434,
          "velocity": 0.8661417322834646
        },
        {
          "duration": 0.21759237499999529,
          "durationTicks": 94,
          "midi": 62,
          "name": "D4",
          "ticks": 52704,
          "time": 121.999878,
          "velocity": 0.8661417322834646
        },
        {
          "duration": 0.21759237499999529,
          "durationTicks": 94,
          "midi": 59,
          "name": "B3",
          "ticks": 52704,
          "time": 121.999878,
          "velocity": 0.8661417322834646
        },
        {
          "duration": 0.21759237499999529,
          "durationTicks": 94,
          "midi": 68,
          "name": "G#4",
          "ticks": 52704,
          "time": 121.999878,
          "velocity": 0.8661417322834646
        },
        {
          "duration": 0.4398143749999974,
          "durationTicks": 190,
          "midi": 52,
          "name": "E3",
          "ticks": 52800,
          "time": 122.2221,
          "velocity": 0.8661417322834646
        },
        {
          "duration": 0.4398143749999974,
          "durationTicks": 190,
          "midi": 62,
          "name": "D4",
          "ticks": 52800,
          "time": 122.2221,
          "velocity": 0.8661417322834646
        },
        {
          "duration": 0.4398143749999974,
          "durationTicks": 190,
          "midi": 59,
          "name": "B3",
          "ticks": 52800,
          "time": 122.2221,
          "velocity": 0.8661417322834646
        },
        {
          "duration": 0.4398143749999974,
          "durationTicks": 190,
          "midi": 68,
          "name": "G#4",
          "ticks": 52800,
          "time": 122.2221,
          "velocity": 0.8661417322834646
        },
        {
          "duration": 0.4398143749999974,
          "durationTicks": 190,
          "midi": 62,
          "name": "D4",
          "ticks": 52992,
          "time": 122.666544,
          "velocity": 0.8661417322834646
        },
        {
          "duration": 0.4398143749999974,
          "durationTicks": 190,
          "midi": 59,
          "name": "B3",
          "ticks": 52992,
          "time": 122.666544,
          "velocity": 0.8661417322834646
        },
        {
          "duration": 0.21759237499999529,
          "durationTicks": 94,
          "midi": 68,
          "name": "G#4",
          "ticks": 52992,
          "time": 122.666544,
          "velocity": 0.8661417322834646
        },
        {
          "duration": 0.21759237499999529,
          "durationTicks": 94,
          "midi": 66,
          "name": "F#4",
          "ticks": 53088,
          "time": 122.888766,
          "velocity": 0.8661417322834646
        },
        {
          "duration": 0.21759237499998108,
          "durationTicks": 94,
          "midi": 68,
          "name": "G#4",
          "ticks": 53184,
          "time": 123.110988,
          "velocity": 0.8661417322834646
        },
        {
          "duration": 1.3287023749999918,
          "durationTicks": 574,
          "midi": 69,
          "name": "A4",
          "ticks": 53280,
          "time": 123.33321000000001,
          "velocity": 0.8661417322834646
        },
        {
          "duration": 0.21759237499998108,
          "durationTicks": 94,
          "midi": 68,
          "name": "G#4",
          "ticks": 53856,
          "time": 124.666542,
          "velocity": 0.8661417322834646
        },
        {
          "duration": 0.21759237499999529,
          "durationTicks": 94,
          "midi": 69,
          "name": "A4",
          "ticks": 53952,
          "time": 124.888764,
          "velocity": 0.8661417322834646
        },
        {
          "duration": 1.3287023749999918,
          "durationTicks": 574,
          "midi": 71,
          "name": "B4",
          "ticks": 54048,
          "time": 125.110986,
          "velocity": 0.8661417322834646
        },
        {
          "duration": 0.21759237499999529,
          "durationTicks": 94,
          "midi": 69,
          "name": "A4",
          "ticks": 54624,
          "time": 126.444318,
          "velocity": 0.8661417322834646
        },
        {
          "duration": 0.21759237499999529,
          "durationTicks": 94,
          "midi": 71,
          "name": "B4",
          "ticks": 54720,
          "time": 126.66654,
          "velocity": 0.8661417322834646
        },
        {
          "duration": 0.4398143749999974,
          "durationTicks": 190,
          "midi": 62,
          "name": "D4",
          "ticks": 54816,
          "time": 126.888762,
          "velocity": 0.8661417322834646
        },
        {
          "duration": 0.4398143749999974,
          "durationTicks": 190,
          "midi": 59,
          "name": "B3",
          "ticks": 54816,
          "time": 126.888762,
          "velocity": 0.8661417322834646
        },
        {
          "duration": 0.4398143749999974,
          "durationTicks": 190,
          "midi": 68,
          "name": "G#4",
          "ticks": 54816,
          "time": 126.888762,
          "velocity": 0.8661417322834646
        },
        {
          "duration": 0.4398143749999974,
          "durationTicks": 190,
          "midi": 52,
          "name": "E3",
          "ticks": 54816,
          "time": 126.888762,
          "velocity": 0.8661417322834646
        },
        {
          "duration": 0.4398143749999974,
          "durationTicks": 190,
          "midi": 74,
          "name": "D5",
          "ticks": 54816,
          "time": 126.888762,
          "velocity": 0.8661417322834646
        },
        {
          "duration": 0.21759237499999529,
          "durationTicks": 94,
          "midi": 52,
          "name": "E3",
          "ticks": 55008,
          "time": 127.333206,
          "velocity": 0.8661417322834646
        },
        {
          "duration": 0.21759237499999529,
          "durationTicks": 94,
          "midi": 68,
          "name": "G#4",
          "ticks": 55008,
          "time": 127.333206,
          "velocity": 0.8661417322834646
        },
        {
          "duration": 0.21759237499999529,
          "durationTicks": 94,
          "midi": 59,
          "name": "B3",
          "ticks": 55008,
          "time": 127.333206,
          "velocity": 0.8661417322834646
        },
        {
          "duration": 0.21759237499999529,
          "durationTicks": 94,
          "midi": 74,
          "name": "D5",
          "ticks": 55008,
          "time": 127.333206,
          "velocity": 0.8661417322834646
        },
        {
          "duration": 0.21759237499999529,
          "durationTicks": 94,
          "midi": 62,
          "name": "D4",
          "ticks": 55008,
          "time": 127.333206,
          "velocity": 0.8661417322834646
        },
        {
          "duration": 0.21759237499998108,
          "durationTicks": 94,
          "midi": 59,
          "name": "B3",
          "ticks": 55104,
          "time": 127.555428,
          "velocity": 0.8661417322834646
        },
        {
          "duration": 0.21759237499998108,
          "durationTicks": 94,
          "midi": 74,
          "name": "D5",
          "ticks": 55104,
          "time": 127.555428,
          "velocity": 0.8661417322834646
        },
        {
          "duration": 0.21759237499998108,
          "durationTicks": 94,
          "midi": 52,
          "name": "E3",
          "ticks": 55104,
          "time": 127.555428,
          "velocity": 0.8661417322834646
        },
        {
          "duration": 0.21759237499998108,
          "durationTicks": 94,
          "midi": 62,
          "name": "D4",
          "ticks": 55104,
          "time": 127.555428,
          "velocity": 0.8661417322834646
        },
        {
          "duration": 0.21759237499998108,
          "durationTicks": 94,
          "midi": 68,
          "name": "G#4",
          "ticks": 55104,
          "time": 127.555428,
          "velocity": 0.8661417322834646
        },
        {
          "duration": 0.21759237499998108,
          "durationTicks": 94,
          "midi": 68,
          "name": "G#4",
          "ticks": 55200,
          "time": 127.77765000000001,
          "velocity": 0.8661417322834646
        },
        {
          "duration": 0.21759237499998108,
          "durationTicks": 94,
          "midi": 59,
          "name": "B3",
          "ticks": 55200,
          "time": 127.77765000000001,
          "velocity": 0.8661417322834646
        },
        {
          "duration": 0.21759237499998108,
          "durationTicks": 94,
          "midi": 52,
          "name": "E3",
          "ticks": 55200,
          "time": 127.77765000000001,
          "velocity": 0.8661417322834646
        },
        {
          "duration": 0.21759237499998108,
          "durationTicks": 94,
          "midi": 62,
          "name": "D4",
          "ticks": 55200,
          "time": 127.77765000000001,
          "velocity": 0.8661417322834646
        },
        {
          "duration": 0.21759237499998108,
          "durationTicks": 94,
          "midi": 74,
          "name": "D5",
          "ticks": 55200,
          "time": 127.77765000000001,
          "velocity": 0.8661417322834646
        },
        {
          "duration": 0.4398143749999832,
          "durationTicks": 190,
          "midi": 52,
          "name": "E3",
          "ticks": 55296,
          "time": 127.999872,
          "velocity": 0.8661417322834646
        },
        {
          "duration": 0.4398143749999832,
          "durationTicks": 190,
          "midi": 74,
          "name": "D5",
          "ticks": 55296,
          "time": 127.999872,
          "velocity": 0.8661417322834646
        },
        {
          "duration": 0.4398143749999832,
          "durationTicks": 190,
          "midi": 59,
          "name": "B3",
          "ticks": 55296,
          "time": 127.999872,
          "velocity": 0.8661417322834646
        },
        {
          "duration": 0.4398143749999832,
          "durationTicks": 190,
          "midi": 62,
          "name": "D4",
          "ticks": 55296,
          "time": 127.999872,
          "velocity": 0.8661417322834646
        },
        {
          "duration": 0.4398143749999832,
          "durationTicks": 190,
          "midi": 68,
          "name": "G#4",
          "ticks": 55296,
          "time": 127.999872,
          "velocity": 0.8661417322834646
        },
        {
          "duration": 0.439814374999969,
          "durationTicks": 190,
          "midi": 74,
          "name": "D5",
          "ticks": 55488,
          "time": 128.44431600000001,
          "velocity": 0.8661417322834646
        },
        {
          "duration": 0.439814374999969,
          "durationTicks": 190,
          "midi": 62,
          "name": "D4",
          "ticks": 55488,
          "time": 128.44431600000001,
          "velocity": 0.8661417322834646
        },
        {
          "duration": 0.439814374999969,
          "durationTicks": 190,
          "midi": 52,
          "name": "E3",
          "ticks": 55488,
          "time": 128.44431600000001,
          "velocity": 0.8661417322834646
        },
        {
          "duration": 0.21759237499998108,
          "durationTicks": 94,
          "midi": 68,
          "name": "G#4",
          "ticks": 55488,
          "time": 128.44431600000001,
          "velocity": 0.8661417322834646
        },
        {
          "duration": 0.439814374999969,
          "durationTicks": 190,
          "midi": 59,
          "name": "B3",
          "ticks": 55488,
          "time": 128.44431600000001,
          "velocity": 0.8661417322834646
        },
        {
          "duration": 0.21759237499998108,
          "durationTicks": 94,
          "midi": 66,
          "name": "F#4",
          "ticks": 55584,
          "time": 128.666538,
          "velocity": 0.8661417322834646
        },
        {
          "duration": 1.550924374999994,
          "durationTicks": 670,
          "midi": 64,
          "name": "E4",
          "ticks": 55680,
          "time": 128.88876,
          "velocity": 0.8661417322834646
        },
        {
          "duration": 1.7731463750000103,
          "durationTicks": 766,
          "midi": 52,
          "name": "E3",
          "ticks": 55680,
          "time": 128.88876,
          "velocity": 0.8661417322834646
        },
        {
          "duration": 1.7731463750000103,
          "durationTicks": 766,
          "midi": 57,
          "name": "A3",
          "ticks": 55680,
          "time": 128.88876,
          "velocity": 0.8661417322834646
        },
        {
          "duration": 0.6620363750000138,
          "durationTicks": 286,
          "midi": 69,
          "name": "A4",
          "ticks": 55680,
          "time": 128.88876,
          "velocity": 0.8661417322834646
        },
        {
          "duration": 0.4398143749999974,
          "durationTicks": 190,
          "midi": 73,
          "name": "C#5",
          "ticks": 55872,
          "time": 129.333204,
          "velocity": 0.8661417322834646
        },
        {
          "duration": 0.8842583749999733,
          "durationTicks": 382,
          "midi": 69,
          "name": "A4",
          "ticks": 55968,
          "time": 129.555426,
          "velocity": 0.8661417322834646
        },
        {
          "duration": 0.21759237499998108,
          "durationTicks": 94,
          "midi": 71,
          "name": "B4",
          "ticks": 56064,
          "time": 129.777648,
          "velocity": 0.8661417322834646
        },
        {
          "duration": 0.6620363749999854,
          "durationTicks": 286,
          "midi": 73,
          "name": "C#5",
          "ticks": 56160,
          "time": 129.99987000000002,
          "velocity": 0.8661417322834646
        },
        {
          "duration": 1.328702375000006,
          "durationTicks": 574,
          "midi": 69,
          "name": "A4",
          "ticks": 56352,
          "time": 130.444314,
          "velocity": 0.8661417322834646
        },
        {
          "duration": 1.328702375000006,
          "durationTicks": 574,
          "midi": 64,
          "name": "E4",
          "ticks": 56352,
          "time": 130.444314,
          "velocity": 0.8661417322834646
        },
        {
          "duration": 0.21759237499998108,
          "durationTicks": 94,
          "midi": 73,
          "name": "C#5",
          "ticks": 56640,
          "time": 131.11098,
          "velocity": 0.8661417322834646
        },
        {
          "duration": 0.6620363749999854,
          "durationTicks": 286,
          "midi": 71,
          "name": "B4",
          "ticks": 56736,
          "time": 131.333202,
          "velocity": 0.8661417322834646
        },
        {
          "duration": 0.4398143749999974,
          "durationTicks": 190,
          "midi": 69,
          "name": "A4",
          "ticks": 56928,
          "time": 131.777646,
          "velocity": 0.8661417322834646
        },
        {
          "duration": 0.4398143749999974,
          "durationTicks": 190,
          "midi": 64,
          "name": "E4",
          "ticks": 56928,
          "time": 131.777646,
          "velocity": 0.8661417322834646
        },
        {
          "duration": 0.4398143749999974,
          "durationTicks": 190,
          "midi": 66,
          "name": "F#4",
          "ticks": 57120,
          "time": 132.22209,
          "velocity": 0.8661417322834646
        },
        {
          "duration": 0.4398143749999974,
          "durationTicks": 190,
          "midi": 57,
          "name": "A3",
          "ticks": 57120,
          "time": 132.22209,
          "velocity": 0.8661417322834646
        },
        {
          "duration": 0.4398143749999974,
          "durationTicks": 190,
          "midi": 62,
          "name": "D4",
          "ticks": 57120,
          "time": 132.22209,
          "velocity": 0.8661417322834646
        },
        {
          "duration": 0.21759237499998108,
          "durationTicks": 94,
          "midi": 69,
          "name": "A4",
          "ticks": 57312,
          "time": 132.666534,
          "velocity": 0.8661417322834646
        },
        {
          "duration": 0.439814374999969,
          "durationTicks": 190,
          "midi": 62,
          "name": "D4",
          "ticks": 57312,
          "time": 132.666534,
          "velocity": 0.8661417322834646
        },
        {
          "duration": 0.439814374999969,
          "durationTicks": 190,
          "midi": 57,
          "name": "A3",
          "ticks": 57312,
          "time": 132.666534,
          "velocity": 0.8661417322834646
        },
        {
          "duration": 0.439814374999969,
          "durationTicks": 190,
          "midi": 54,
          "name": "F#3",
          "ticks": 57312,
          "time": 132.666534,
          "velocity": 0.8661417322834646
        },
        {
          "duration": 0.439814374999969,
          "durationTicks": 190,
          "midi": 50,
          "name": "D3",
          "ticks": 57312,
          "time": 132.666534,
          "velocity": 0.8661417322834646
        },
        {
          "duration": 0.21759237499998108,
          "durationTicks": 94,
          "midi": 69,
          "name": "A4",
          "ticks": 57408,
          "time": 132.888756,
          "velocity": 0.8661417322834646
        },
        {
          "duration": 0.6620363750000138,
          "durationTicks": 286,
          "midi": 57,
          "name": "A3",
          "ticks": 57504,
          "time": 133.110978,
          "velocity": 0.8661417322834646
        },
        {
          "duration": 0.6620363750000138,
          "durationTicks": 286,
          "midi": 50,
          "name": "D3",
          "ticks": 57504,
          "time": 133.110978,
          "velocity": 0.8661417322834646
        },
        {
          "duration": 0.6620363750000138,
          "durationTicks": 286,
          "midi": 54,
          "name": "F#3",
          "ticks": 57504,
          "time": 133.110978,
          "velocity": 0.8661417322834646
        },
        {
          "duration": 0.8842583750000017,
          "durationTicks": 382,
          "midi": 66,
          "name": "F#4",
          "ticks": 57504,
          "time": 133.110978,
          "velocity": 0.8661417322834646
        },
        {
          "duration": 0.4398143749999974,
          "durationTicks": 190,
          "midi": 71,
          "name": "B4",
          "ticks": 57504,
          "time": 133.110978,
          "velocity": 0.8661417322834646
        },
        {
          "duration": 0.6620363750000138,
          "durationTicks": 286,
          "midi": 69,
          "name": "A4",
          "ticks": 57696,
          "time": 133.555422,
          "velocity": 0.8661417322834646
        },
        {
          "duration": 0.4398143749999974,
          "durationTicks": 190,
          "midi": 50,
          "name": "D3",
          "ticks": 57792,
          "time": 133.777644,
          "velocity": 0.8661417322834646
        },
        {
          "duration": 0.4398143749999974,
          "durationTicks": 190,
          "midi": 54,
          "name": "F#3",
          "ticks": 57792,
          "time": 133.777644,
          "velocity": 0.8661417322834646
        },
        {
          "duration": 0.4398143749999974,
          "durationTicks": 190,
          "midi": 57,
          "name": "A3",
          "ticks": 57792,
          "time": 133.777644,
          "velocity": 0.8661417322834646
        },
        {
          "duration": 0.2175923750000095,
          "durationTicks": 94,
          "midi": 66,
          "name": "F#4",
          "ticks": 57888,
          "time": 133.999866,
          "velocity": 0.8661417322834646
        },
        {
          "duration": 0.439814374999969,
          "durationTicks": 190,
          "midi": 62,
          "name": "D4",
          "ticks": 57984,
          "time": 134.222088,
          "velocity": 0.8661417322834646
        },
        {
          "duration": 0.439814374999969,
          "durationTicks": 190,
          "midi": 59,
          "name": "B3",
          "ticks": 57984,
          "time": 134.222088,
          "velocity": 0.8661417322834646
        },
        {
          "duration": 0.439814374999969,
          "durationTicks": 190,
          "midi": 52,
          "name": "E3",
          "ticks": 57984,
          "time": 134.222088,
          "velocity": 0.8661417322834646
        },
        {
          "duration": 0.21759237499998108,
          "durationTicks": 94,
          "midi": 68,
          "name": "G#4",
          "ticks": 57984,
          "time": 134.222088,
          "velocity": 0.8661417322834646
        },
        {
          "duration": 0.21759237499998108,
          "durationTicks": 94,
          "midi": 66,
          "name": "F#4",
          "ticks": 58080,
          "time": 134.44431,
          "velocity": 0.8661417322834646
        },
        {
          "duration": 0.2175923750000095,
          "durationTicks": 94,
          "midi": 59,
          "name": "B3",
          "ticks": 58176,
          "time": 134.666532,
          "velocity": 0.8661417322834646
        },
        {
          "duration": 0.2175923750000095,
          "durationTicks": 94,
          "midi": 62,
          "name": "D4",
          "ticks": 58176,
          "time": 134.666532,
          "velocity": 0.8661417322834646
        },
        {
          "duration": 0.2175923750000095,
          "durationTicks": 94,
          "midi": 68,
          "name": "G#4",
          "ticks": 58176,
          "time": 134.666532,
          "velocity": 0.8661417322834646
        },
        {
          "duration": 0.2175923750000095,
          "durationTicks": 94,
          "midi": 52,
          "name": "E3",
          "ticks": 58176,
          "time": 134.666532,
          "velocity": 0.8661417322834646
        },
        {
          "duration": 0.4398143749999974,
          "durationTicks": 190,
          "midi": 69,
          "name": "A4",
          "ticks": 58272,
          "time": 134.888754,
          "velocity": 0.8661417322834646
        },
        {
          "duration": 0.4398143749999974,
          "durationTicks": 190,
          "midi": 59,
          "name": "B3",
          "ticks": 58272,
          "time": 134.888754,
          "velocity": 0.8661417322834646
        },
        {
          "duration": 0.4398143749999974,
          "durationTicks": 190,
          "midi": 62,
          "name": "D4",
          "ticks": 58272,
          "time": 134.888754,
          "velocity": 0.8661417322834646
        },
        {
          "duration": 0.4398143749999974,
          "durationTicks": 190,
          "midi": 52,
          "name": "E3",
          "ticks": 58272,
          "time": 134.888754,
          "velocity": 0.8661417322834646
        },
        {
          "duration": 0.6620363749999854,
          "durationTicks": 286,
          "midi": 62,
          "name": "D4",
          "ticks": 58464,
          "time": 135.333198,
          "velocity": 0.8661417322834646
        },
        {
          "duration": 0.6620363749999854,
          "durationTicks": 286,
          "midi": 71,
          "name": "B4",
          "ticks": 58464,
          "time": 135.333198,
          "velocity": 0.8661417322834646
        },
        {
          "duration": 0.6620363749999854,
          "durationTicks": 286,
          "midi": 52,
          "name": "E3",
          "ticks": 58464,
          "time": 135.333198,
          "velocity": 0.8661417322834646
        },
        {
          "duration": 0.6620363749999854,
          "durationTicks": 286,
          "midi": 59,
          "name": "B3",
          "ticks": 58464,
          "time": 135.333198,
          "velocity": 0.8661417322834646
        },
        {
          "duration": 0.4398143749999974,
          "durationTicks": 190,
          "midi": 68,
          "name": "G#4",
          "ticks": 58464,
          "time": 135.333198,
          "velocity": 0.8661417322834646
        },
        {
          "duration": 0.21759237499998108,
          "durationTicks": 94,
          "midi": 68,
          "name": "G#4",
          "ticks": 58656,
          "time": 135.77764200000001,
          "velocity": 0.8661417322834646
        },
        {
          "duration": 0.4398143749999974,
          "durationTicks": 190,
          "midi": 69,
          "name": "A4",
          "ticks": 58752,
          "time": 135.999864,
          "velocity": 0.8661417322834646
        },
        {
          "duration": 0.4398143749999974,
          "durationTicks": 190,
          "midi": 73,
          "name": "C#5",
          "ticks": 58752,
          "time": 135.999864,
          "velocity": 0.8661417322834646
        },
        {
          "duration": 1.3287023749999776,
          "durationTicks": 574,
          "midi": 57,
          "name": "A3",
          "ticks": 58752,
          "time": 135.999864,
          "velocity": 0.8661417322834646
        },
        {
          "duration": 1.3287023749999776,
          "durationTicks": 574,
          "midi": 64,
          "name": "E4",
          "ticks": 58752,
          "time": 135.999864,
          "velocity": 0.8661417322834646
        },
        {
          "duration": 0.8842583749999733,
          "durationTicks": 382,
          "midi": 69,
          "name": "A4",
          "ticks": 58944,
          "time": 136.444308,
          "velocity": 0.8661417322834646
        },
        {
          "duration": 0.21759237499998108,
          "durationTicks": 94,
          "midi": 73,
          "name": "C#5",
          "ticks": 58944,
          "time": 136.444308,
          "velocity": 0.8661417322834646
        },
        {
          "duration": 0.2175923750000095,
          "durationTicks": 94,
          "midi": 73,
          "name": "C#5",
          "ticks": 59040,
          "time": 136.66653,
          "velocity": 0.8661417322834646
        },
        {
          "duration": 0.21759237499998108,
          "durationTicks": 94,
          "midi": 71,
          "name": "B4",
          "ticks": 59136,
          "time": 136.888752,
          "velocity": 0.8661417322834646
        },
        {
          "duration": 0.6620363749999854,
          "durationTicks": 286,
          "midi": 73,
          "name": "C#5",
          "ticks": 59232,
          "time": 137.110974,
          "velocity": 0.8661417322834646
        },
        {
          "duration": 0.8842583750000017,
          "durationTicks": 382,
          "midi": 69,
          "name": "A4",
          "ticks": 59424,
          "time": 137.555418,
          "velocity": 0.8661417322834646
        },
        {
          "duration": 1.550924374999994,
          "durationTicks": 670,
          "midi": 64,
          "name": "E4",
          "ticks": 59424,
          "time": 137.555418,
          "velocity": 0.8661417322834646
        },
        {
          "duration": 0.2175923750000095,
          "durationTicks": 94,
          "midi": 73,
          "name": "C#5",
          "ticks": 59712,
          "time": 138.222084,
          "velocity": 0.8661417322834646
        },
        {
          "duration": 0.439814374999969,
          "durationTicks": 190,
          "midi": 71,
          "name": "B4",
          "ticks": 59808,
          "time": 138.444306,
          "velocity": 0.8661417322834646
        },
        {
          "duration": 0.439814374999969,
          "durationTicks": 190,
          "midi": 69,
          "name": "A4",
          "ticks": 59808,
          "time": 138.444306,
          "velocity": 0.8661417322834646
        },
        {
          "duration": 0.439814374999969,
          "durationTicks": 190,
          "midi": 69,
          "name": "A4",
          "ticks": 60000,
          "time": 138.88875000000002,
          "velocity": 0.8661417322834646
        },
        {
          "duration": 0.2175923750000095,
          "durationTicks": 94,
          "midi": 50,
          "name": "D3",
          "ticks": 60192,
          "time": 139.333194,
          "velocity": 0.8661417322834646
        },
        {
          "duration": 0.8842583750000017,
          "durationTicks": 382,
          "midi": 62,
          "name": "D4",
          "ticks": 60192,
          "time": 139.333194,
          "velocity": 0.8661417322834646
        },
        {
          "duration": 0.8842583750000017,
          "durationTicks": 382,
          "midi": 66,
          "name": "F#4",
          "ticks": 60192,
          "time": 139.333194,
          "velocity": 0.8661417322834646
        },
        {
          "duration": 0.2175923750000095,
          "durationTicks": 94,
          "midi": 54,
          "name": "F#3",
          "ticks": 60192,
          "time": 139.333194,
          "velocity": 0.8661417322834646
        },
        {
          "duration": 0.2175923750000095,
          "durationTicks": 94,
          "midi": 57,
          "name": "A3",
          "ticks": 60192,
          "time": 139.333194,
          "velocity": 0.8661417322834646
        },
        {
          "duration": 0.8842583749999733,
          "durationTicks": 382,
          "midi": 54,
          "name": "F#3",
          "ticks": 60288,
          "time": 139.555416,
          "velocity": 0.8661417322834646
        },
        {
          "duration": 0.8842583749999733,
          "durationTicks": 382,
          "midi": 57,
          "name": "A3",
          "ticks": 60288,
          "time": 139.555416,
          "velocity": 0.8661417322834646
        },
        {
          "duration": 0.8842583749999733,
          "durationTicks": 382,
          "midi": 50,
          "name": "D3",
          "ticks": 60288,
          "time": 139.555416,
          "velocity": 0.8661417322834646
        },
        {
          "duration": 0.21759237499998108,
          "durationTicks": 94,
          "midi": 73,
          "name": "C#5",
          "ticks": 60480,
          "time": 139.99986,
          "velocity": 0.8661417322834646
        },
        {
          "duration": 0.8842583750000017,
          "durationTicks": 382,
          "midi": 66,
          "name": "F#4",
          "ticks": 60576,
          "time": 140.222082,
          "velocity": 0.8661417322834646
        },
        {
          "duration": 0.4398143749999974,
          "durationTicks": 190,
          "midi": 71,
          "name": "B4",
          "ticks": 60576,
          "time": 140.222082,
          "velocity": 0.8661417322834646
        },
        {
          "duration": 0.2175923750000095,
          "durationTicks": 94,
          "midi": 54,
          "name": "F#3",
          "ticks": 60672,
          "time": 140.444304,
          "velocity": 0.8661417322834646
        },
        {
          "duration": 0.2175923750000095,
          "durationTicks": 94,
          "midi": 57,
          "name": "A3",
          "ticks": 60672,
          "time": 140.444304,
          "velocity": 0.8661417322834646
        },
        {
          "duration": 0.21759237499998108,
          "durationTicks": 94,
          "midi": 57,
          "name": "A3",
          "ticks": 60768,
          "time": 140.666526,
          "velocity": 0.8661417322834646
        },
        {
          "duration": 0.21759237499998108,
          "durationTicks": 94,
          "midi": 54,
          "name": "F#3",
          "ticks": 60768,
          "time": 140.666526,
          "velocity": 0.8661417322834646
        },
        {
          "duration": 0.21759237499998108,
          "durationTicks": 94,
          "midi": 69,
          "name": "A4",
          "ticks": 60768,
          "time": 140.666526,
          "velocity": 0.8661417322834646
        },
        {
          "duration": 0.2175923750000095,
          "durationTicks": 94,
          "midi": 50,
          "name": "D3",
          "ticks": 60864,
          "time": 140.888748,
          "velocity": 0.8661417322834646
        },
        {
          "duration": 0.2175923750000095,
          "durationTicks": 94,
          "midi": 54,
          "name": "F#3",
          "ticks": 60864,
          "time": 140.888748,
          "velocity": 0.8661417322834646
        },
        {
          "duration": 0.2175923750000095,
          "durationTicks": 94,
          "midi": 57,
          "name": "A3",
          "ticks": 60864,
          "time": 140.888748,
          "velocity": 0.8661417322834646
        },
        {
          "duration": 0.2175923750000095,
          "durationTicks": 94,
          "midi": 69,
          "name": "A4",
          "ticks": 60864,
          "time": 140.888748,
          "velocity": 0.8661417322834646
        },
        {
          "duration": 0.4398143749999974,
          "durationTicks": 190,
          "midi": 59,
          "name": "B3",
          "ticks": 60960,
          "time": 141.11097,
          "velocity": 0.8661417322834646
        },
        {
          "duration": 0.4398143749999974,
          "durationTicks": 190,
          "midi": 62,
          "name": "D4",
          "ticks": 60960,
          "time": 141.11097,
          "velocity": 0.8661417322834646
        },
        {
          "duration": 0.4398143749999974,
          "durationTicks": 190,
          "midi": 68,
          "name": "G#4",
          "ticks": 60960,
          "time": 141.11097,
          "velocity": 0.8661417322834646
        },
        {
          "duration": 1.9953683749999982,
          "durationTicks": 862,
          "midi": 52,
          "name": "E3",
          "ticks": 60960,
          "time": 141.11097,
          "velocity": 0.8661417322834646
        },
        {
          "duration": 0.21759237499998108,
          "durationTicks": 94,
          "midi": 68,
          "name": "G#4",
          "ticks": 61152,
          "time": 141.555414,
          "velocity": 0.8661417322834646
        },
        {
          "duration": 0.21759237499998108,
          "durationTicks": 94,
          "midi": 62,
          "name": "D4",
          "ticks": 61152,
          "time": 141.555414,
          "velocity": 0.8661417322834646
        },
        {
          "duration": 0.21759237499998108,
          "durationTicks": 94,
          "midi": 59,
          "name": "B3",
          "ticks": 61152,
          "time": 141.555414,
          "velocity": 0.8661417322834646
        },
        {
          "duration": 0.21759237499998108,
          "durationTicks": 94,
          "midi": 59,
          "name": "B3",
          "ticks": 61248,
          "time": 141.777636,
          "velocity": 0.8661417322834646
        },
        {
          "duration": 0.21759237499998108,
          "durationTicks": 94,
          "midi": 62,
          "name": "D4",
          "ticks": 61248,
          "time": 141.777636,
          "velocity": 0.8661417322834646
        },
        {
          "duration": 0.21759237499998108,
          "durationTicks": 94,
          "midi": 68,
          "name": "G#4",
          "ticks": 61248,
          "time": 141.777636,
          "velocity": 0.8661417322834646
        },
        {
          "duration": 0.2175923750000095,
          "durationTicks": 94,
          "midi": 68,
          "name": "G#4",
          "ticks": 61344,
          "time": 141.999858,
          "velocity": 0.8661417322834646
        },
        {
          "duration": 0.2175923750000095,
          "durationTicks": 94,
          "midi": 59,
          "name": "B3",
          "ticks": 61344,
          "time": 141.999858,
          "velocity": 0.8661417322834646
        },
        {
          "duration": 0.2175923750000095,
          "durationTicks": 94,
          "midi": 62,
          "name": "D4",
          "ticks": 61344,
          "time": 141.999858,
          "velocity": 0.8661417322834646
        },
        {
          "duration": 0.21759237499998108,
          "durationTicks": 94,
          "midi": 68,
          "name": "G#4",
          "ticks": 61440,
          "time": 142.22208,
          "velocity": 0.8661417322834646
        },
        {
          "duration": 0.21759237499998108,
          "durationTicks": 94,
          "midi": 71,
          "name": "B4",
          "ticks": 61440,
          "time": 142.22208,
          "velocity": 0.8661417322834646
        },
        {
          "duration": 0.21759237499998108,
          "durationTicks": 94,
          "midi": 62,
          "name": "D4",
          "ticks": 61440,
          "time": 142.22208,
          "velocity": 0.8661417322834646
        },
        {
          "duration": 0.21759237499998108,
          "durationTicks": 94,
          "midi": 59,
          "name": "B3",
          "ticks": 61440,
          "time": 142.22208,
          "velocity": 0.8661417322834646
        },
        {
          "duration": 0.2175923750000095,
          "durationTicks": 94,
          "midi": 59,
          "name": "B3",
          "ticks": 61536,
          "time": 142.444302,
          "velocity": 0.8661417322834646
        },
        {
          "duration": 0.2175923750000095,
          "durationTicks": 94,
          "midi": 71,
          "name": "B4",
          "ticks": 61536,
          "time": 142.444302,
          "velocity": 0.8661417322834646
        },
        {
          "duration": 0.2175923750000095,
          "durationTicks": 94,
          "midi": 62,
          "name": "D4",
          "ticks": 61536,
          "time": 142.444302,
          "velocity": 0.8661417322834646
        },
        {
          "duration": 0.2175923750000095,
          "durationTicks": 94,
          "midi": 68,
          "name": "G#4",
          "ticks": 61536,
          "time": 142.444302,
          "velocity": 0.8661417322834646
        },
        {
          "duration": 0.21759237499998108,
          "durationTicks": 94,
          "midi": 68,
          "name": "G#4",
          "ticks": 61632,
          "time": 142.666524,
          "velocity": 0.8661417322834646
        },
        {
          "duration": 0.21759237499998108,
          "durationTicks": 94,
          "midi": 62,
          "name": "D4",
          "ticks": 61632,
          "time": 142.666524,
          "velocity": 0.8661417322834646
        },
        {
          "duration": 0.21759237499998108,
          "durationTicks": 94,
          "midi": 71,
          "name": "B4",
          "ticks": 61632,
          "time": 142.666524,
          "velocity": 0.8661417322834646
        },
        {
          "duration": 0.21759237499998108,
          "durationTicks": 94,
          "midi": 59,
          "name": "B3",
          "ticks": 61632,
          "time": 142.666524,
          "velocity": 0.8661417322834646
        },
        {
          "duration": 0.2175923750000095,
          "durationTicks": 94,
          "midi": 59,
          "name": "B3",
          "ticks": 61728,
          "time": 142.888746,
          "velocity": 0.8661417322834646
        },
        {
          "duration": 0.2175923750000095,
          "durationTicks": 94,
          "midi": 71,
          "name": "B4",
          "ticks": 61728,
          "time": 142.888746,
          "velocity": 0.8661417322834646
        },
        {
          "duration": 0.2175923750000095,
          "durationTicks": 94,
          "midi": 68,
          "name": "G#4",
          "ticks": 61728,
          "time": 142.888746,
          "velocity": 0.8661417322834646
        },
        {
          "duration": 0.2175923750000095,
          "durationTicks": 94,
          "midi": 62,
          "name": "D4",
          "ticks": 61728,
          "time": 142.888746,
          "velocity": 0.8661417322834646
        },
        {
          "duration": 0.439814374999969,
          "durationTicks": 190,
          "midi": 64,
          "name": "E4",
          "ticks": 61824,
          "time": 143.110968,
          "velocity": 0.8661417322834646
        },
        {
          "duration": 1.7731463749999818,
          "durationTicks": 766,
          "midi": 57,
          "name": "A3",
          "ticks": 61824,
          "time": 143.110968,
          "velocity": 0.8661417322834646
        },
        {
          "duration": 0.2175923750000095,
          "durationTicks": 94,
          "midi": 69,
          "name": "A4",
          "ticks": 62016,
          "time": 143.555412,
          "velocity": 0.8661417322834646
        },
        {
          "duration": 0.2175923750000095,
          "durationTicks": 94,
          "midi": 73,
          "name": "C#5",
          "ticks": 62016,
          "time": 143.555412,
          "velocity": 0.8661417322834646
        },
        {
          "duration": 0.8842583750000017,
          "durationTicks": 382,
          "midi": 64,
          "name": "E4",
          "ticks": 62016,
          "time": 143.555412,
          "velocity": 0.8661417322834646
        },
        {
          "duration": 0.4398143749999974,
          "durationTicks": 190,
          "midi": 69,
          "name": "A4",
          "ticks": 62112,
          "time": 143.777634,
          "velocity": 0.8661417322834646
        },
        {
          "duration": 0.4398143749999974,
          "durationTicks": 190,
          "midi": 71,
          "name": "B4",
          "ticks": 62112,
          "time": 143.777634,
          "velocity": 0.8661417322834646
        },
        {
          "duration": 0.439814374999969,
          "durationTicks": 190,
          "midi": 73,
          "name": "C#5",
          "ticks": 62304,
          "time": 144.222078,
          "velocity": 0.8661417322834646
        },
        {
          "duration": 0.439814374999969,
          "durationTicks": 190,
          "midi": 69,
          "name": "A4",
          "ticks": 62304,
          "time": 144.222078,
          "velocity": 0.8661417322834646
        },
        {
          "duration": 1.5509243749999655,
          "durationTicks": 670,
          "midi": 64,
          "name": "E4",
          "ticks": 62496,
          "time": 144.66652200000001,
          "velocity": 0.8661417322834646
        },
        {
          "duration": 0.8842583749999733,
          "durationTicks": 382,
          "midi": 69,
          "name": "A4",
          "ticks": 62496,
          "time": 144.66652200000001,
          "velocity": 0.8661417322834646
        },
        {
          "duration": 1.328702375000006,
          "durationTicks": 574,
          "midi": 57,
          "name": "A3",
          "ticks": 62688,
          "time": 145.110966,
          "velocity": 0.8661417322834646
        },
        {
          "duration": 0.6620363749999854,
          "durationTicks": 286,
          "midi": 73,
          "name": "C#5",
          "ticks": 62784,
          "time": 145.333188,
          "velocity": 0.8661417322834646
        },
        {
          "duration": 0.8842583750000017,
          "durationTicks": 382,
          "midi": 69,
          "name": "A4",
          "ticks": 62880,
          "time": 145.55541,
          "velocity": 0.8661417322834646
        },
        {
          "duration": 0.6620363749999854,
          "durationTicks": 286,
          "midi": 71,
          "name": "B4",
          "ticks": 62976,
          "time": 145.777632,
          "velocity": 0.8661417322834646
        },
        {
          "duration": 0.4398143749999974,
          "durationTicks": 190,
          "midi": 73,
          "name": "C#5",
          "ticks": 63072,
          "time": 145.999854,
          "velocity": 0.8661417322834646
        },
        {
          "duration": 1.328702375000006,
          "durationTicks": 574,
          "midi": 50,
          "name": "D3",
          "ticks": 63360,
          "time": 146.66652,
          "velocity": 0.8661417322834646
        },
        {
          "duration": 0.439814374999969,
          "durationTicks": 190,
          "midi": 71,
          "name": "B4",
          "ticks": 63648,
          "time": 147.333186,
          "velocity": 0.8661417322834646
        },
        {
          "duration": 0.4398143749999974,
          "durationTicks": 190,
          "midi": 73,
          "name": "C#5",
          "ticks": 63840,
          "time": 147.77763,
          "velocity": 0.8661417322834646
        },
        {
          "duration": 0.2175923750000095,
          "durationTicks": 94,
          "midi": 54,
          "name": "F#3",
          "ticks": 64032,
          "time": 148.222074,
          "velocity": 0.8661417322834646
        },
        {
          "duration": 0.2175923750000095,
          "durationTicks": 94,
          "midi": 63,
          "name": "D#4",
          "ticks": 64032,
          "time": 148.222074,
          "velocity": 0.8661417322834646
        },
        {
          "duration": 0.2175923750000095,
          "durationTicks": 94,
          "midi": 57,
          "name": "A3",
          "ticks": 64032,
          "time": 148.222074,
          "velocity": 0.8661417322834646
        },
        {
          "duration": 0.4398143749999974,
          "durationTicks": 190,
          "midi": 69,
          "name": "A4",
          "ticks": 64032,
          "time": 148.222074,
          "velocity": 0.8661417322834646
        },
        {
          "duration": 0.21759237499998108,
          "durationTicks": 94,
          "midi": 57,
          "name": "A3",
          "ticks": 64128,
          "time": 148.444296,
          "velocity": 0.8661417322834646
        },
        {
          "duration": 0.21759237499998108,
          "durationTicks": 94,
          "midi": 63,
          "name": "D#4",
          "ticks": 64128,
          "time": 148.444296,
          "velocity": 0.8661417322834646
        },
        {
          "duration": 0.21759237499998108,
          "durationTicks": 94,
          "midi": 54,
          "name": "F#3",
          "ticks": 64128,
          "time": 148.444296,
          "velocity": 0.8661417322834646
        },
        {
          "duration": 0.2175923750000095,
          "durationTicks": 94,
          "midi": 69,
          "name": "A4",
          "ticks": 64224,
          "time": 148.666518,
          "velocity": 0.8661417322834646
        },
        {
          "duration": 0.2175923750000095,
          "durationTicks": 94,
          "midi": 63,
          "name": "D#4",
          "ticks": 64224,
          "time": 148.666518,
          "velocity": 0.8661417322834646
        },
        {
          "duration": 0.2175923750000095,
          "durationTicks": 94,
          "midi": 54,
          "name": "F#3",
          "ticks": 64224,
          "time": 148.666518,
          "velocity": 0.8661417322834646
        },
        {
          "duration": 0.2175923750000095,
          "durationTicks": 94,
          "midi": 57,
          "name": "A3",
          "ticks": 64224,
          "time": 148.666518,
          "velocity": 0.8661417322834646
        },
        {
          "duration": 0.439814374999969,
          "durationTicks": 190,
          "midi": 57,
          "name": "A3",
          "ticks": 64320,
          "time": 148.88874,
          "velocity": 0.8661417322834646
        },
        {
          "duration": 0.439814374999969,
          "durationTicks": 190,
          "midi": 54,
          "name": "F#3",
          "ticks": 64320,
          "time": 148.88874,
          "velocity": 0.8661417322834646
        },
        {
          "duration": 0.439814374999969,
          "durationTicks": 190,
          "midi": 63,
          "name": "D#4",
          "ticks": 64320,
          "time": 148.88874,
          "velocity": 0.8661417322834646
        },
        {
          "duration": 0.8842583749999733,
          "durationTicks": 382,
          "midi": 69,
          "name": "A4",
          "ticks": 64320,
          "time": 148.88874,
          "velocity": 0.8661417322834646
        },
        {
          "duration": 0.439814374999969,
          "durationTicks": 190,
          "midi": 47,
          "name": "B2",
          "ticks": 64320,
          "time": 148.88874,
          "velocity": 0.8661417322834646
        },
        {
          "duration": 0.4398143749999974,
          "durationTicks": 190,
          "midi": 57,
          "name": "A3",
          "ticks": 64512,
          "time": 149.333184,
          "velocity": 0.8661417322834646
        },
        {
          "duration": 0.4398143749999974,
          "durationTicks": 190,
          "midi": 63,
          "name": "D#4",
          "ticks": 64512,
          "time": 149.333184,
          "velocity": 0.8661417322834646
        },
        {
          "duration": 0.4398143749999974,
          "durationTicks": 190,
          "midi": 47,
          "name": "B2",
          "ticks": 64512,
          "time": 149.333184,
          "velocity": 0.8661417322834646
        },
        {
          "duration": 0.4398143749999974,
          "durationTicks": 190,
          "midi": 54,
          "name": "F#3",
          "ticks": 64512,
          "time": 149.333184,
          "velocity": 0.8661417322834646
        },
        {
          "duration": 0.4398143749999974,
          "durationTicks": 190,
          "midi": 69,
          "name": "A4",
          "ticks": 64704,
          "time": 149.777628,
          "velocity": 0.8661417322834646
        },
        {
          "duration": 0.4398143749999974,
          "durationTicks": 190,
          "midi": 57,
          "name": "A3",
          "ticks": 64704,
          "time": 149.777628,
          "velocity": 0.8661417322834646
        },
        {
          "duration": 0.4398143749999974,
          "durationTicks": 190,
          "midi": 54,
          "name": "F#3",
          "ticks": 64704,
          "time": 149.777628,
          "velocity": 0.8661417322834646
        },
        {
          "duration": 0.4398143749999974,
          "durationTicks": 190,
          "midi": 47,
          "name": "B2",
          "ticks": 64704,
          "time": 149.777628,
          "velocity": 0.8661417322834646
        },
        {
          "duration": 0.4398143749999974,
          "durationTicks": 190,
          "midi": 63,
          "name": "D#4",
          "ticks": 64704,
          "time": 149.777628,
          "velocity": 0.8661417322834646
        },
        {
          "duration": 0.21759237499998108,
          "durationTicks": 94,
          "midi": 66,
          "name": "F#4",
          "ticks": 64800,
          "time": 149.99985,
          "velocity": 0.8661417322834646
        },
        {
          "duration": 1.328702375000006,
          "durationTicks": 574,
          "midi": 64,
          "name": "E4",
          "ticks": 64896,
          "time": 150.222072,
          "velocity": 0.8661417322834646
        },
        {
          "duration": 1.328702375000006,
          "durationTicks": 574,
          "midi": 57,
          "name": "A3",
          "ticks": 64896,
          "time": 150.222072,
          "velocity": 0.8661417322834646
        },
        {
          "duration": 0.439814374999969,
          "durationTicks": 190,
          "midi": 73,
          "name": "C#5",
          "ticks": 64992,
          "time": 150.444294,
          "velocity": 0.8661417322834646
        },
        {
          "duration": 0.4398143749999974,
          "durationTicks": 190,
          "midi": 71,
          "name": "B4",
          "ticks": 65184,
          "time": 150.888738,
          "velocity": 0.8661417322834646
        },
        {
          "duration": 0.6620363750000138,
          "durationTicks": 286,
          "midi": 69,
          "name": "A4",
          "ticks": 65376,
          "time": 151.333182,
          "velocity": 0.8661417322834646
        },
        {
          "duration": 0.4398143749999974,
          "durationTicks": 190,
          "midi": 64,
          "name": "E4",
          "ticks": 65568,
          "time": 151.777626,
          "velocity": 0.8661417322834646
        },
        {
          "duration": 0.439814374999969,
          "durationTicks": 190,
          "midi": 66,
          "name": "F#4",
          "ticks": 65664,
          "time": 151.99984800000001,
          "velocity": 0.8661417322834646
        },
        {
          "duration": 0.4398143749999974,
          "durationTicks": 190,
          "midi": 69,
          "name": "A4",
          "ticks": 65760,
          "time": 152.22207,
          "velocity": 0.8661417322834646
        },
        {
          "duration": 0.4398143749999974,
          "durationTicks": 190,
          "midi": 71,
          "name": "B4",
          "ticks": 65856,
          "time": 152.444292,
          "velocity": 0.8661417322834646
        },
        {
          "duration": 0.4398143749999974,
          "durationTicks": 190,
          "midi": 64,
          "name": "E4",
          "ticks": 65952,
          "time": 152.666514,
          "velocity": 0.8661417322834646
        },
        {
          "duration": 0.4398143749999974,
          "durationTicks": 190,
          "midi": 69,
          "name": "A4",
          "ticks": 66048,
          "time": 152.888736,
          "velocity": 0.8661417322834646
        },
        {
          "duration": 0.439814374999969,
          "durationTicks": 190,
          "midi": 71,
          "name": "B4",
          "ticks": 66144,
          "time": 153.110958,
          "velocity": 0.8661417322834646
        },
        {
          "duration": 0.4398143749999974,
          "durationTicks": 190,
          "midi": 62,
          "name": "D4",
          "ticks": 66240,
          "time": 153.33318,
          "velocity": 0.8661417322834646
        },
        {
          "duration": 0.439814374999969,
          "durationTicks": 190,
          "midi": 69,
          "name": "A4",
          "ticks": 66336,
          "time": 153.55540200000002,
          "velocity": 0.8661417322834646
        },
        {
          "duration": 0.4398143749999974,
          "durationTicks": 190,
          "midi": 71,
          "name": "B4",
          "ticks": 66432,
          "time": 153.777624,
          "velocity": 0.8661417322834646
        },
        {
          "duration": 0.4398143749999974,
          "durationTicks": 190,
          "midi": 64,
          "name": "E4",
          "ticks": 66528,
          "time": 153.999846,
          "velocity": 0.8661417322834646
        },
        {
          "duration": 0.4398143749999974,
          "durationTicks": 190,
          "midi": 69,
          "name": "A4",
          "ticks": 66624,
          "time": 154.222068,
          "velocity": 0.8661417322834646
        },
        {
          "duration": 0.4398143749999974,
          "durationTicks": 190,
          "midi": 71,
          "name": "B4",
          "ticks": 66720,
          "time": 154.44429,
          "velocity": 0.8661417322834646
        },
        {
          "duration": 0.439814374999969,
          "durationTicks": 190,
          "midi": 69,
          "name": "A4",
          "ticks": 66816,
          "time": 154.666512,
          "velocity": 0.8661417322834646
        },
        {
          "duration": 0.4398143749999974,
          "durationTicks": 190,
          "midi": 68,
          "name": "G#4",
          "ticks": 66912,
          "time": 154.888734,
          "velocity": 0.8661417322834646
        },
        {
          "duration": 0.439814374999969,
          "durationTicks": 190,
          "midi": 66,
          "name": "F#4",
          "ticks": 67008,
          "time": 155.11095600000002,
          "velocity": 0.8661417322834646
        },
        {
          "duration": 0.21759237499998108,
          "durationTicks": 94,
          "midi": 64,
          "name": "E4",
          "ticks": 67104,
          "time": 155.333178,
          "velocity": 0.8661417322834646
        },
        {
          "duration": 0.4398143749999974,
          "durationTicks": 190,
          "midi": 73,
          "name": "C#5",
          "ticks": 67200,
          "time": 155.5554,
          "velocity": 0.8661417322834646
        },
        {
          "duration": 0.4398143749999974,
          "durationTicks": 190,
          "midi": 69,
          "name": "A4",
          "ticks": 67200,
          "time": 155.5554,
          "velocity": 0.8661417322834646
        },
        {
          "duration": 1.7731463750000103,
          "durationTicks": 766,
          "midi": 57,
          "name": "A3",
          "ticks": 67200,
          "time": 155.5554,
          "velocity": 0.8661417322834646
        },
        {
          "duration": 0.4398143749999974,
          "durationTicks": 190,
          "midi": 64,
          "name": "E4",
          "ticks": 67200,
          "time": 155.5554,
          "velocity": 0.8661417322834646
        },
        {
          "duration": 0.2175923750000095,
          "durationTicks": 94,
          "midi": 73,
          "name": "C#5",
          "ticks": 67392,
          "time": 155.999844,
          "velocity": 0.8661417322834646
        },
        {
          "duration": 1.1064803749999896,
          "durationTicks": 478,
          "midi": 69,
          "name": "A4",
          "ticks": 67392,
          "time": 155.999844,
          "velocity": 0.8661417322834646
        },
        {
          "duration": 1.328702375000006,
          "durationTicks": 574,
          "midi": 64,
          "name": "E4",
          "ticks": 67392,
          "time": 155.999844,
          "velocity": 0.8661417322834646
        },
        {
          "duration": 0.439814374999969,
          "durationTicks": 190,
          "midi": 71,
          "name": "B4",
          "ticks": 67488,
          "time": 156.222066,
          "velocity": 0.8661417322834646
        },
        {
          "duration": 0.4398143749999974,
          "durationTicks": 190,
          "midi": 73,
          "name": "C#5",
          "ticks": 67680,
          "time": 156.66651,
          "velocity": 0.8661417322834646
        },
        {
          "duration": 0.8842583750000017,
          "durationTicks": 382,
          "midi": 69,
          "name": "A4",
          "ticks": 67872,
          "time": 157.110954,
          "velocity": 0.8661417322834646
        },
        {
          "duration": 1.1064803749999896,
          "durationTicks": 478,
          "midi": 57,
          "name": "A3",
          "ticks": 68064,
          "time": 157.555398,
          "velocity": 0.8661417322834646
        },
        {
          "duration": 0.6620363749999854,
          "durationTicks": 286,
          "midi": 73,
          "name": "C#5",
          "ticks": 68160,
          "time": 157.77762,
          "velocity": 0.8661417322834646
        },
        {
          "duration": 0.21759237499998108,
          "durationTicks": 94,
          "midi": 71,
          "name": "B4",
          "ticks": 68256,
          "time": 157.999842,
          "velocity": 0.8661417322834646
        },
        {
          "duration": 0.2175923750000095,
          "durationTicks": 94,
          "midi": 71,
          "name": "B4",
          "ticks": 68352,
          "time": 158.222064,
          "velocity": 0.8661417322834646
        },
        {
          "duration": 0.6620363749999854,
          "durationTicks": 286,
          "midi": 73,
          "name": "C#5",
          "ticks": 68448,
          "time": 158.444286,
          "velocity": 0.8661417322834646
        },
        {
          "duration": 0.4398143749999974,
          "durationTicks": 190,
          "midi": 64,
          "name": "E4",
          "ticks": 68544,
          "time": 158.666508,
          "velocity": 0.8661417322834646
        },
        {
          "duration": 0.2175923750000095,
          "durationTicks": 94,
          "midi": 57,
          "name": "A3",
          "ticks": 68544,
          "time": 158.666508,
          "velocity": 0.8661417322834646
        },
        {
          "duration": 0.21759237499998108,
          "durationTicks": 94,
          "midi": 57,
          "name": "A3",
          "ticks": 68640,
          "time": 158.88873,
          "velocity": 0.8661417322834646
        },
        {
          "duration": 0.21759237499998108,
          "durationTicks": 94,
          "midi": 52,
          "name": "E3",
          "ticks": 68640,
          "time": 158.88873,
          "velocity": 0.8661417322834646
        },
        {
          "duration": 1.328702375000006,
          "durationTicks": 574,
          "midi": 50,
          "name": "D3",
          "ticks": 68736,
          "time": 159.110952,
          "velocity": 0.8661417322834646
        },
        {
          "duration": 1.328702375000006,
          "durationTicks": 574,
          "midi": 57,
          "name": "A3",
          "ticks": 68736,
          "time": 159.110952,
          "velocity": 0.8661417322834646
        },
        {
          "duration": 1.328702375000006,
          "durationTicks": 574,
          "midi": 54,
          "name": "F#3",
          "ticks": 68736,
          "time": 159.110952,
          "velocity": 0.8661417322834646
        },
        {
          "duration": 0.8842583750000017,
          "durationTicks": 382,
          "midi": 62,
          "name": "D4",
          "ticks": 68928,
          "time": 159.555396,
          "velocity": 0.8661417322834646
        },
        {
          "duration": 0.21759237499998108,
          "durationTicks": 94,
          "midi": 66,
          "name": "F#4",
          "ticks": 68928,
          "time": 159.555396,
          "velocity": 0.8661417322834646
        },
        {
          "duration": 0.21759237499998108,
          "durationTicks": 94,
          "midi": 73,
          "name": "C#5",
          "ticks": 68928,
          "time": 159.555396,
          "velocity": 0.8661417322834646
        },
        {
          "duration": 0.4398143749999974,
          "durationTicks": 190,
          "midi": 71,
          "name": "B4",
          "ticks": 69024,
          "time": 159.777618,
          "velocity": 0.8661417322834646
        },
        {
          "duration": 0.4398143749999974,
          "durationTicks": 190,
          "midi": 66,
          "name": "F#4",
          "ticks": 69024,
          "time": 159.777618,
          "velocity": 0.8661417322834646
        },
        {
          "duration": 0.2175923750000095,
          "durationTicks": 94,
          "midi": 73,
          "name": "C#5",
          "ticks": 69216,
          "time": 160.222062,
          "velocity": 0.8661417322834646
        },
        {
          "duration": 0.2175923750000095,
          "durationTicks": 94,
          "midi": 66,
          "name": "F#4",
          "ticks": 69216,
          "time": 160.222062,
          "velocity": 0.8661417322834646
        },
        {
          "duration": 0.21759237499998108,
          "durationTicks": 94,
          "midi": 73,
          "name": "C#5",
          "ticks": 69312,
          "time": 160.444284,
          "velocity": 0.8661417322834646
        },
        {
          "duration": 0.21759237499998108,
          "durationTicks": 94,
          "midi": 57,
          "name": "A3",
          "ticks": 69312,
          "time": 160.444284,
          "velocity": 0.8661417322834646
        },
        {
          "duration": 0.21759237499998108,
          "durationTicks": 94,
          "midi": 52,
          "name": "E3",
          "ticks": 69312,
          "time": 160.444284,
          "velocity": 0.8661417322834646
        },
        {
          "duration": 0.21759237499998108,
          "durationTicks": 94,
          "midi": 62,
          "name": "D4",
          "ticks": 69312,
          "time": 160.444284,
          "velocity": 0.8661417322834646
        },
        {
          "duration": 0.21759237499998108,
          "durationTicks": 94,
          "midi": 66,
          "name": "F#4",
          "ticks": 69312,
          "time": 160.444284,
          "velocity": 0.8661417322834646
        },
        {
          "duration": 0.2175923750000095,
          "durationTicks": 94,
          "midi": 54,
          "name": "F#3",
          "ticks": 69408,
          "time": 160.666506,
          "velocity": 0.8661417322834646
        },
        {
          "duration": 0.2175923750000095,
          "durationTicks": 94,
          "midi": 63,
          "name": "D#4",
          "ticks": 69408,
          "time": 160.666506,
          "velocity": 0.8661417322834646
        },
        {
          "duration": 0.4398143749999974,
          "durationTicks": 190,
          "midi": 69,
          "name": "A4",
          "ticks": 69408,
          "time": 160.666506,
          "velocity": 0.8661417322834646
        },
        {
          "duration": 0.2175923750000095,
          "durationTicks": 94,
          "midi": 57,
          "name": "A3",
          "ticks": 69408,
          "time": 160.666506,
          "velocity": 0.8661417322834646
        },
        {
          "duration": 0.21759237499998108,
          "durationTicks": 94,
          "midi": 47,
          "name": "B2",
          "ticks": 69504,
          "time": 160.88872800000001,
          "velocity": 0.8661417322834646
        },
        {
          "duration": 0.21759237499998108,
          "durationTicks": 94,
          "midi": 57,
          "name": "A3",
          "ticks": 69504,
          "time": 160.88872800000001,
          "velocity": 0.8661417322834646
        },
        {
          "duration": 0.21759237499998108,
          "durationTicks": 94,
          "midi": 63,
          "name": "D#4",
          "ticks": 69504,
          "time": 160.88872800000001,
          "velocity": 0.8661417322834646
        },
        {
          "duration": 0.21759237499998108,
          "durationTicks": 94,
          "midi": 54,
          "name": "F#3",
          "ticks": 69504,
          "time": 160.88872800000001,
          "velocity": 0.8661417322834646
        },
        {
          "duration": 0.21759237499998108,
          "durationTicks": 94,
          "midi": 47,
          "name": "B2",
          "ticks": 69600,
          "time": 161.11095,
          "velocity": 0.8661417322834646
        },
        {
          "duration": 0.21759237499998108,
          "durationTicks": 94,
          "midi": 63,
          "name": "D#4",
          "ticks": 69600,
          "time": 161.11095,
          "velocity": 0.8661417322834646
        },
        {
          "duration": 0.21759237499998108,
          "durationTicks": 94,
          "midi": 69,
          "name": "A4",
          "ticks": 69600,
          "time": 161.11095,
          "velocity": 0.8661417322834646
        },
        {
          "duration": 0.21759237499998108,
          "durationTicks": 94,
          "midi": 54,
          "name": "F#3",
          "ticks": 69600,
          "time": 161.11095,
          "velocity": 0.8661417322834646
        },
        {
          "duration": 0.21759237499998108,
          "durationTicks": 94,
          "midi": 57,
          "name": "A3",
          "ticks": 69600,
          "time": 161.11095,
          "velocity": 0.8661417322834646
        },
        {
          "duration": 0.4398143749999974,
          "durationTicks": 190,
          "midi": 57,
          "name": "A3",
          "ticks": 69696,
          "time": 161.333172,
          "velocity": 0.8661417322834646
        },
        {
          "duration": 0.4398143749999974,
          "durationTicks": 190,
          "midi": 54,
          "name": "F#3",
          "ticks": 69696,
          "time": 161.333172,
          "velocity": 0.8661417322834646
        },
        {
          "duration": 0.4398143749999974,
          "durationTicks": 190,
          "midi": 63,
          "name": "D#4",
          "ticks": 69696,
          "time": 161.333172,
          "velocity": 0.8661417322834646
        },
        {
          "duration": 0.4398143749999974,
          "durationTicks": 190,
          "midi": 47,
          "name": "B2",
          "ticks": 69696,
          "time": 161.333172,
          "velocity": 0.8661417322834646
        },
        {
          "duration": 0.4398143749999974,
          "durationTicks": 190,
          "midi": 69,
          "name": "A4",
          "ticks": 69696,
          "time": 161.333172,
          "velocity": 0.8661417322834646
        },
        {
          "duration": 0.4398143749999974,
          "durationTicks": 190,
          "midi": 63,
          "name": "D#4",
          "ticks": 69888,
          "time": 161.777616,
          "velocity": 0.8661417322834646
        },
        {
          "duration": 0.4398143749999974,
          "durationTicks": 190,
          "midi": 57,
          "name": "A3",
          "ticks": 69888,
          "time": 161.777616,
          "velocity": 0.8661417322834646
        },
        {
          "duration": 0.4398143749999974,
          "durationTicks": 190,
          "midi": 69,
          "name": "A4",
          "ticks": 69888,
          "time": 161.777616,
          "velocity": 0.8661417322834646
        },
        {
          "duration": 0.4398143749999974,
          "durationTicks": 190,
          "midi": 47,
          "name": "B2",
          "ticks": 69888,
          "time": 161.777616,
          "velocity": 0.8661417322834646
        },
        {
          "duration": 0.4398143749999974,
          "durationTicks": 190,
          "midi": 54,
          "name": "F#3",
          "ticks": 69888,
          "time": 161.777616,
          "velocity": 0.8661417322834646
        },
        {
          "duration": 0.21759237499998108,
          "durationTicks": 94,
          "midi": 57,
          "name": "A3",
          "ticks": 70080,
          "time": 162.22206,
          "velocity": 0.8661417322834646
        },
        {
          "duration": 0.21759237499998108,
          "durationTicks": 94,
          "midi": 54,
          "name": "F#3",
          "ticks": 70080,
          "time": 162.22206,
          "velocity": 0.8661417322834646
        },
        {
          "duration": 0.21759237499998108,
          "durationTicks": 94,
          "midi": 47,
          "name": "B2",
          "ticks": 70080,
          "time": 162.22206,
          "velocity": 0.8661417322834646
        },
        {
          "duration": 0.21759237499998108,
          "durationTicks": 94,
          "midi": 69,
          "name": "A4",
          "ticks": 70080,
          "time": 162.22206,
          "velocity": 0.8661417322834646
        },
        {
          "duration": 0.21759237499998108,
          "durationTicks": 94,
          "midi": 63,
          "name": "D#4",
          "ticks": 70080,
          "time": 162.22206,
          "velocity": 0.8661417322834646
        },
        {
          "duration": 0.4398143749999974,
          "durationTicks": 190,
          "midi": 73,
          "name": "C#5",
          "ticks": 70368,
          "time": 162.888726,
          "velocity": 0.8661417322834646
        },
        {
          "duration": 0.4398143749999974,
          "durationTicks": 190,
          "midi": 71,
          "name": "B4",
          "ticks": 70560,
          "time": 163.33317,
          "velocity": 0.8661417322834646
        },
        {
          "duration": 0.6620363749999854,
          "durationTicks": 286,
          "midi": 69,
          "name": "A4",
          "ticks": 70752,
          "time": 163.777614,
          "velocity": 0.8661417322834646
        },
        {
          "duration": 0.4398143749999974,
          "durationTicks": 190,
          "midi": 64,
          "name": "E4",
          "ticks": 70944,
          "time": 164.222058,
          "velocity": 0.8661417322834646
        },
        {
          "duration": 0.4398143749999974,
          "durationTicks": 190,
          "midi": 66,
          "name": "F#4",
          "ticks": 71040,
          "time": 164.44428,
          "velocity": 0.8661417322834646
        },
        {
          "duration": 0.4398143749999974,
          "durationTicks": 190,
          "midi": 69,
          "name": "A4",
          "ticks": 71136,
          "time": 164.666502,
          "velocity": 0.8661417322834646
        },
        {
          "duration": 0.4398143749999974,
          "durationTicks": 190,
          "midi": 71,
          "name": "B4",
          "ticks": 71232,
          "time": 164.888724,
          "velocity": 0.8661417322834646
        },
        {
          "duration": 0.439814374999969,
          "durationTicks": 190,
          "midi": 64,
          "name": "E4",
          "ticks": 71328,
          "time": 165.110946,
          "velocity": 0.8661417322834646
        },
        {
          "duration": 0.4398143749999974,
          "durationTicks": 190,
          "midi": 69,
          "name": "A4",
          "ticks": 71424,
          "time": 165.333168,
          "velocity": 0.8661417322834646
        },
        {
          "duration": 0.4398143749999974,
          "durationTicks": 190,
          "midi": 71,
          "name": "B4",
          "ticks": 71520,
          "time": 165.55539,
          "velocity": 0.8661417322834646
        },
        {
          "duration": 0.4398143749999974,
          "durationTicks": 190,
          "midi": 62,
          "name": "D4",
          "ticks": 71616,
          "time": 165.777612,
          "velocity": 0.8661417322834646
        },
        {
          "duration": 0.4398143749999974,
          "durationTicks": 190,
          "midi": 69,
          "name": "A4",
          "ticks": 71712,
          "time": 165.999834,
          "velocity": 0.8661417322834646
        },
        {
          "duration": 0.4398143749999974,
          "durationTicks": 190,
          "midi": 71,
          "name": "B4",
          "ticks": 71808,
          "time": 166.222056,
          "velocity": 0.8661417322834646
        },
        {
          "duration": 0.4398143749999974,
          "durationTicks": 190,
          "midi": 64,
          "name": "E4",
          "ticks": 71904,
          "time": 166.444278,
          "velocity": 0.8661417322834646
        },
        {
          "duration": 0.439814374999969,
          "durationTicks": 190,
          "midi": 69,
          "name": "A4",
          "ticks": 72000,
          "time": 166.6665,
          "velocity": 0.8661417322834646
        },
        {
          "duration": 0.4398143749999974,
          "durationTicks": 190,
          "midi": 71,
          "name": "B4",
          "ticks": 72096,
          "time": 166.888722,
          "velocity": 0.8661417322834646
        },
        {
          "duration": 0.4398143749999974,
          "durationTicks": 190,
          "midi": 69,
          "name": "A4",
          "ticks": 72192,
          "time": 167.110944,
          "velocity": 0.8661417322834646
        },
        {
          "duration": 0.4398143749999974,
          "durationTicks": 190,
          "midi": 68,
          "name": "G#4",
          "ticks": 72288,
          "time": 167.333166,
          "velocity": 0.8661417322834646
        },
        {
          "duration": 0.4398143749999974,
          "durationTicks": 190,
          "midi": 66,
          "name": "F#4",
          "ticks": 72384,
          "time": 167.555388,
          "velocity": 0.8661417322834646
        },
        {
          "duration": 0.21759237499998108,
          "durationTicks": 94,
          "midi": 64,
          "name": "E4",
          "ticks": 72480,
          "time": 167.77761,
          "velocity": 0.8661417322834646
        },
        {
          "duration": 0.4398143749999974,
          "durationTicks": 190,
          "midi": 64,
          "name": "E4",
          "ticks": 72576,
          "time": 167.999832,
          "velocity": 0.8661417322834646
        },
        {
          "duration": 1.7731463749999818,
          "durationTicks": 766,
          "midi": 57,
          "name": "A3",
          "ticks": 72576,
          "time": 167.999832,
          "velocity": 0.8661417322834646
        },
        {
          "duration": 0.4398143749999974,
          "durationTicks": 190,
          "midi": 69,
          "name": "A4",
          "ticks": 72576,
          "time": 167.999832,
          "velocity": 0.8661417322834646
        },
        {
          "duration": 0.4398143749999974,
          "durationTicks": 190,
          "midi": 73,
          "name": "C#5",
          "ticks": 72768,
          "time": 168.444276,
          "velocity": 0.8661417322834646
        },
        {
          "duration": 1.1064803749999896,
          "durationTicks": 478,
          "midi": 64,
          "name": "E4",
          "ticks": 72768,
          "time": 168.444276,
          "velocity": 0.8661417322834646
        },
        {
          "duration": 0.21759237499998108,
          "durationTicks": 94,
          "midi": 69,
          "name": "A4",
          "ticks": 72768,
          "time": 168.444276,
          "velocity": 0.8661417322834646
        },
        {
          "duration": 0.2175923750000095,
          "durationTicks": 94,
          "midi": 69,
          "name": "A4",
          "ticks": 72864,
          "time": 168.666498,
          "velocity": 0.8661417322834646
        },
        {
          "duration": 0.21759237499998108,
          "durationTicks": 94,
          "midi": 71,
          "name": "B4",
          "ticks": 72960,
          "time": 168.88872,
          "velocity": 0.8661417322834646
        },
        {
          "duration": 0.21759237499998108,
          "durationTicks": 94,
          "midi": 69,
          "name": "A4",
          "ticks": 72960,
          "time": 168.88872,
          "velocity": 0.8661417322834646
        },
        {
          "duration": 0.6620363749999854,
          "durationTicks": 286,
          "midi": 69,
          "name": "A4",
          "ticks": 73056,
          "time": 169.110942,
          "velocity": 0.8661417322834646
        },
        {
          "duration": 0.6620363749999854,
          "durationTicks": 286,
          "midi": 73,
          "name": "C#5",
          "ticks": 73056,
          "time": 169.110942,
          "velocity": 0.8661417322834646
        },
        {
          "duration": 0.4398143749999974,
          "durationTicks": 190,
          "midi": 64,
          "name": "E4",
          "ticks": 73248,
          "time": 169.555386,
          "velocity": 0.8661417322834646
        },
        {
          "duration": 0.439814374999969,
          "durationTicks": 190,
          "midi": 66,
          "name": "F#4",
          "ticks": 73344,
          "time": 169.77760800000001,
          "velocity": 0.8661417322834646
        },
        {
          "duration": 0.4398143749999974,
          "durationTicks": 190,
          "midi": 69,
          "name": "A4",
          "ticks": 73440,
          "time": 169.99983,
          "velocity": 0.8661417322834646
        },
        {
          "duration": 0.4398143749999974,
          "durationTicks": 190,
          "midi": 71,
          "name": "B4",
          "ticks": 73536,
          "time": 170.222052,
          "velocity": 0.8661417322834646
        },
        {
          "duration": 0.4398143749999974,
          "durationTicks": 190,
          "midi": 64,
          "name": "E4",
          "ticks": 73632,
          "time": 170.444274,
          "velocity": 0.8661417322834646
        },
        {
          "duration": 0.4398143749999974,
          "durationTicks": 190,
          "midi": 69,
          "name": "A4",
          "ticks": 73728,
          "time": 170.666496,
          "velocity": 0.8661417322834646
        },
        {
          "duration": 0.439814374999969,
          "durationTicks": 190,
          "midi": 71,
          "name": "B4",
          "ticks": 73824,
          "time": 170.888718,
          "velocity": 0.8661417322834646
        },
        {
          "duration": 0.4398143749999974,
          "durationTicks": 190,
          "midi": 62,
          "name": "D4",
          "ticks": 73920,
          "time": 171.11094,
          "velocity": 0.8661417322834646
        },
        {
          "duration": 0.439814374999969,
          "durationTicks": 190,
          "midi": 69,
          "name": "A4",
          "ticks": 74016,
          "time": 171.33316200000002,
          "velocity": 0.8661417322834646
        },
        {
          "duration": 0.4398143749999974,
          "durationTicks": 190,
          "midi": 71,
          "name": "B4",
          "ticks": 74112,
          "time": 171.555384,
          "velocity": 0.8661417322834646
        },
        {
          "duration": 0.4398143749999974,
          "durationTicks": 190,
          "midi": 64,
          "name": "E4",
          "ticks": 74208,
          "time": 171.777606,
          "velocity": 0.8661417322834646
        },
        {
          "duration": 0.4398143749999974,
          "durationTicks": 190,
          "midi": 69,
          "name": "A4",
          "ticks": 74304,
          "time": 171.999828,
          "velocity": 0.8661417322834646
        },
        {
          "duration": 0.4398143749999974,
          "durationTicks": 190,
          "midi": 71,
          "name": "B4",
          "ticks": 74400,
          "time": 172.22205,
          "velocity": 0.8661417322834646
        },
        {
          "duration": 0.439814374999969,
          "durationTicks": 190,
          "midi": 69,
          "name": "A4",
          "ticks": 74496,
          "time": 172.444272,
          "velocity": 0.8661417322834646
        },
        {
          "duration": 0.4398143749999974,
          "durationTicks": 190,
          "midi": 68,
          "name": "G#4",
          "ticks": 74592,
          "time": 172.666494,
          "velocity": 0.8661417322834646
        },
        {
          "duration": 0.4398143749999974,
          "durationTicks": 190,
          "midi": 66,
          "name": "F#4",
          "ticks": 74688,
          "time": 172.888716,
          "velocity": 0.8661417322834646
        },
        {
          "duration": 0.21759237499998108,
          "durationTicks": 94,
          "midi": 64,
          "name": "E4",
          "ticks": 74784,
          "time": 173.110938,
          "velocity": 0.8661417322834646
        },
        {
          "duration": 0.6620363750000138,
          "durationTicks": 286,
          "midi": 60,
          "name": "C4",
          "ticks": 74880,
          "time": 173.33316,
          "velocity": 0.8661417322834646
        },
        {
          "duration": 0.4398143749999974,
          "durationTicks": 190,
          "midi": 64,
          "name": "E4",
          "ticks": 74976,
          "time": 173.555382,
          "velocity": 0.8661417322834646
        },
        {
          "duration": 0.4398143749999974,
          "durationTicks": 190,
          "midi": 67,
          "name": "G4",
          "ticks": 75072,
          "time": 173.777604,
          "velocity": 0.8661417322834646
        },
        {
          "duration": 0.6620363749999854,
          "durationTicks": 286,
          "midi": 55,
          "name": "G3",
          "ticks": 75168,
          "time": 173.999826,
          "velocity": 0.8661417322834646
        },
        {
          "duration": 0.4398143749999974,
          "durationTicks": 190,
          "midi": 59,
          "name": "B3",
          "ticks": 75264,
          "time": 174.222048,
          "velocity": 0.8661417322834646
        },
        {
          "duration": 0.4398143749999974,
          "durationTicks": 190,
          "midi": 62,
          "name": "D4",
          "ticks": 75360,
          "time": 174.44427,
          "velocity": 0.8661417322834646
        },
        {
          "duration": 0.6620363749999854,
          "durationTicks": 286,
          "midi": 54,
          "name": "F#3",
          "ticks": 75456,
          "time": 174.666492,
          "velocity": 0.8661417322834646
        },
        {
          "duration": 0.4398143749999974,
          "durationTicks": 190,
          "midi": 57,
          "name": "A3",
          "ticks": 75552,
          "time": 174.888714,
          "velocity": 0.8661417322834646
        },
        {
          "duration": 0.4398143749999974,
          "durationTicks": 190,
          "midi": 62,
          "name": "D4",
          "ticks": 75648,
          "time": 175.110936,
          "velocity": 0.8661417322834646
        },
        {
          "duration": 0.4398143749999974,
          "durationTicks": 190,
          "midi": 50,
          "name": "D3",
          "ticks": 75744,
          "time": 175.333158,
          "velocity": 0.8661417322834646
        },
        {
          "duration": 0.21759237499998108,
          "durationTicks": 94,
          "midi": 54,
          "name": "F#3",
          "ticks": 75840,
          "time": 175.55538,
          "velocity": 0.8661417322834646
        },
        {
          "duration": 5.550920375000004,
          "durationTicks": 2398,
          "midi": 52,
          "name": "E3",
          "ticks": 75936,
          "time": 175.777602,
          "velocity": 0.7480314960629921
        },
        {
          "duration": 5.550920375000004,
          "durationTicks": 2398,
          "midi": 73,
          "name": "C#5",
          "ticks": 75936,
          "time": 175.777602,
          "velocity": 0.7480314960629921
        },
        {
          "duration": 5.550920375000004,
          "durationTicks": 2398,
          "midi": 64,
          "name": "E4",
          "ticks": 75936,
          "time": 175.777602,
          "velocity": 0.7480314960629921
        },
        {
          "duration": 5.550920375000004,
          "durationTicks": 2398,
          "midi": 57,
          "name": "A3",
          "ticks": 75936,
          "time": 175.777602,
          "velocity": 0.7480314960629921
        },
        {
          "duration": 5.550920375000004,
          "durationTicks": 2398,
          "midi": 69,
          "name": "A4",
          "ticks": 75936,
          "time": 175.777602,
          "velocity": 0.7480314960629921
        }
      ]
    },
    {
      "channel": 0,
      "controlChanges": {
        "7": [
          {
            "number": 7,
            "ticks": 0,
            "time": 0,
            "value": 0.7874015748031497
          },
          {
            "number": 7,
            "ticks": 192,
            "time": 0.444444,
            "value": 0.7480314960629921
          }
        ],
        "10": [
          {
            "number": 10,
            "ticks": 192,
            "time": 0.444444,
            "value": 0.5039370078740157
          }
        ],
        "91": [
          {
            "number": 91,
            "ticks": 192,
            "time": 0.444444,
            "value": 0.15748031496062992
          }
        ],
        "93": [
          {
            "number": 93,
            "ticks": 192,
            "time": 0.444444,
            "value": 0.11811023622047244
          }
        ]
      },
      "pitchBends": [],
      "instrument": {
        "family": "piano",
        "number": 0,
        "name": "acoustic grand piano"
      },
      "name": "Acc Bass",
      "notes": [],
      "endOfTrackTicks": 74974
    },
    {
      "channel": 1,
      "controlChanges": {},
      "pitchBends": [],
      "instrument": {
        "family": "bass",
        "number": 32,
        "name": "acoustic bass"
      },
      "name": "",
      "notes": [
        {
          "duration": 0.6620363749999996,
          "durationTicks": 286,
          "midi": 38,
          "name": "D2",
          "ticks": 10752,
          "time": 24.888864,
          "velocity": 0.905511811023622
        },
        {
          "duration": 0.6620363749999996,
          "durationTicks": 286,
          "midi": 37,
          "name": "C#2",
          "ticks": 11040,
          "time": 25.55553,
          "velocity": 0.905511811023622
        },
        {
          "duration": 0.6620363749999996,
          "durationTicks": 286,
          "midi": 35,
          "name": "B1",
          "ticks": 11328,
          "time": 26.222196,
          "velocity": 0.905511811023622
        },
        {
          "duration": 0.6620363750000031,
          "durationTicks": 286,
          "midi": 33,
          "name": "A1",
          "ticks": 11616,
          "time": 26.888862,
          "velocity": 0.905511811023622
        },
        {
          "duration": 0.2175923750000024,
          "durationTicks": 94,
          "midi": 28,
          "name": "E1",
          "ticks": 11904,
          "time": 27.555528,
          "velocity": 0.905511811023622
        },
        {
          "duration": 0.21759237499999884,
          "durationTicks": 94,
          "midi": 32,
          "name": "G#1",
          "ticks": 12000,
          "time": 27.77775,
          "velocity": 0.905511811023622
        },
        {
          "duration": 0.2175923750000024,
          "durationTicks": 94,
          "midi": 35,
          "name": "B1",
          "ticks": 12096,
          "time": 27.999972,
          "velocity": 0.905511811023622
        },
        {
          "duration": 0.21759237499999884,
          "durationTicks": 94,
          "midi": 28,
          "name": "E1",
          "ticks": 12192,
          "time": 28.222194000000002,
          "velocity": 0.905511811023622
        },
        {
          "duration": 0.6620363749999996,
          "durationTicks": 286,
          "midi": 33,
          "name": "A1",
          "ticks": 12288,
          "time": 28.444416,
          "velocity": 0.905511811023622
        },
        {
          "duration": 0.21759237499999884,
          "durationTicks": 94,
          "midi": 45,
          "name": "A2",
          "ticks": 12576,
          "time": 29.111082,
          "velocity": 0.905511811023622
        },
        {
          "duration": 0.21759237499999529,
          "durationTicks": 94,
          "midi": 45,
          "name": "A2",
          "ticks": 12672,
          "time": 29.333304000000002,
          "velocity": 0.905511811023622
        },
        {
          "duration": 0.4398143749999974,
          "durationTicks": 190,
          "midi": 45,
          "name": "A2",
          "ticks": 12768,
          "time": 29.555526,
          "velocity": 0.905511811023622
        },
        {
          "duration": 0.21759237499999884,
          "durationTicks": 94,
          "midi": 45,
          "name": "A2",
          "ticks": 12960,
          "time": 29.99997,
          "velocity": 0.905511811023622
        },
        {
          "duration": 0.4398143749999974,
          "durationTicks": 190,
          "midi": 45,
          "name": "A2",
          "ticks": 13056,
          "time": 30.222192,
          "velocity": 0.905511811023622
        },
        {
          "duration": 0.21759237499999884,
          "durationTicks": 94,
          "midi": 45,
          "name": "A2",
          "ticks": 13248,
          "time": 30.666636,
          "velocity": 0.905511811023622
        },
        {
          "duration": 0.21759237499999884,
          "durationTicks": 94,
          "midi": 45,
          "name": "A2",
          "ticks": 13344,
          "time": 30.888858,
          "velocity": 0.905511811023622
        },
        {
          "duration": 0.21759237499999884,
          "durationTicks": 94,
          "midi": 45,
          "name": "A2",
          "ticks": 13536,
          "time": 31.333302,
          "velocity": 0.905511811023622
        },
        {
          "duration": 0.4398143749999974,
          "durationTicks": 190,
          "midi": 45,
          "name": "A2",
          "ticks": 13632,
          "time": 31.555524000000002,
          "velocity": 0.905511811023622
        },
        {
          "duration": 0.439814375000001,
          "durationTicks": 190,
          "midi": 38,
          "name": "D2",
          "ticks": 13824,
          "time": 31.999968,
          "velocity": 0.905511811023622
        },
        {
          "duration": 0.21759237499999529,
          "durationTicks": 94,
          "midi": 38,
          "name": "D2",
          "ticks": 14016,
          "time": 32.444412,
          "velocity": 0.905511811023622
        },
        {
          "duration": 0.21759237499999529,
          "durationTicks": 94,
          "midi": 38,
          "name": "D2",
          "ticks": 14112,
          "time": 32.666634,
          "velocity": 0.905511811023622
        },
        {
          "duration": 0.2175923750000024,
          "durationTicks": 94,
          "midi": 38,
          "name": "D2",
          "ticks": 14304,
          "time": 33.111078,
          "velocity": 0.905511811023622
        },
        {
          "duration": 0.21759237499999529,
          "durationTicks": 94,
          "midi": 38,
          "name": "D2",
          "ticks": 14400,
          "time": 33.3333,
          "velocity": 0.905511811023622
        },
        {
          "duration": 0.4398143749999974,
          "durationTicks": 190,
          "midi": 40,
          "name": "E2",
          "ticks": 14592,
          "time": 33.777744,
          "velocity": 0.905511811023622
        },
        {
          "duration": 0.21759237499999529,
          "durationTicks": 94,
          "midi": 40,
          "name": "E2",
          "ticks": 14784,
          "time": 34.222188,
          "velocity": 0.905511811023622
        },
        {
          "duration": 0.2175923750000024,
          "durationTicks": 94,
          "midi": 40,
          "name": "E2",
          "ticks": 14880,
          "time": 34.44441,
          "velocity": 0.905511811023622
        },
        {
          "duration": 0.21759237499999529,
          "durationTicks": 94,
          "midi": 40,
          "name": "E2",
          "ticks": 15072,
          "time": 34.888854,
          "velocity": 0.905511811023622
        },
        {
          "duration": 0.2175923750000024,
          "durationTicks": 94,
          "midi": 42,
          "name": "F#2",
          "ticks": 15168,
          "time": 35.111076,
          "velocity": 0.905511811023622
        },
        {
          "duration": 0.2175923750000024,
          "durationTicks": 94,
          "midi": 44,
          "name": "G#2",
          "ticks": 15264,
          "time": 35.333298,
          "velocity": 0.905511811023622
        },
        {
          "duration": 0.4398143749999974,
          "durationTicks": 190,
          "midi": 45,
          "name": "A2",
          "ticks": 15360,
          "time": 35.55552,
          "velocity": 0.905511811023622
        },
        {
          "duration": 0.2175923750000024,
          "durationTicks": 94,
          "midi": 45,
          "name": "A2",
          "ticks": 15552,
          "time": 35.999964,
          "velocity": 0.905511811023622
        },
        {
          "duration": 0.21759237499999529,
          "durationTicks": 94,
          "midi": 45,
          "name": "A2",
          "ticks": 15648,
          "time": 36.222186,
          "velocity": 0.905511811023622
        },
        {
          "duration": 0.2175923750000024,
          "durationTicks": 94,
          "midi": 45,
          "name": "A2",
          "ticks": 15840,
          "time": 36.66663,
          "velocity": 0.905511811023622
        },
        {
          "duration": 0.21759237499999529,
          "durationTicks": 94,
          "midi": 45,
          "name": "A2",
          "ticks": 16032,
          "time": 37.111074,
          "velocity": 0.905511811023622
        },
        {
          "duration": 0.43981437500000453,
          "durationTicks": 190,
          "midi": 45,
          "name": "A2",
          "ticks": 16128,
          "time": 37.333296,
          "velocity": 0.905511811023622
        },
        {
          "duration": 0.21759237499999529,
          "durationTicks": 94,
          "midi": 45,
          "name": "A2",
          "ticks": 16320,
          "time": 37.77774,
          "velocity": 0.905511811023622
        },
        {
          "duration": 0.21759237499999529,
          "durationTicks": 94,
          "midi": 45,
          "name": "A2",
          "ticks": 16416,
          "time": 37.999962000000004,
          "velocity": 0.905511811023622
        },
        {
          "duration": 0.21759237499999529,
          "durationTicks": 94,
          "midi": 42,
          "name": "F#2",
          "ticks": 16608,
          "time": 38.444406,
          "velocity": 0.905511811023622
        },
        {
          "duration": 0.21759237499999529,
          "durationTicks": 94,
          "midi": 40,
          "name": "E2",
          "ticks": 16704,
          "time": 38.666628,
          "velocity": 0.905511811023622
        },
        {
          "duration": 0.2175923750000024,
          "durationTicks": 94,
          "midi": 37,
          "name": "C#2",
          "ticks": 16800,
          "time": 38.88885,
          "velocity": 0.905511811023622
        },
        {
          "duration": 0.4398143749999974,
          "durationTicks": 190,
          "midi": 38,
          "name": "D2",
          "ticks": 16896,
          "time": 39.111072,
          "velocity": 0.905511811023622
        },
        {
          "duration": 0.2175923750000024,
          "durationTicks": 94,
          "midi": 38,
          "name": "D2",
          "ticks": 17088,
          "time": 39.555516,
          "velocity": 0.905511811023622
        },
        {
          "duration": 0.2175923750000024,
          "durationTicks": 94,
          "midi": 38,
          "name": "D2",
          "ticks": 17184,
          "time": 39.777738,
          "velocity": 0.905511811023622
        },
        {
          "duration": 0.21759237499999529,
          "durationTicks": 94,
          "midi": 37,
          "name": "C#2",
          "ticks": 17376,
          "time": 40.222182000000004,
          "velocity": 0.905511811023622
        },
        {
          "duration": 0.4398143749999974,
          "durationTicks": 190,
          "midi": 38,
          "name": "D2",
          "ticks": 17472,
          "time": 40.444404,
          "velocity": 0.905511811023622
        },
        {
          "duration": 0.4398143749999974,
          "durationTicks": 190,
          "midi": 40,
          "name": "E2",
          "ticks": 17664,
          "time": 40.888848,
          "velocity": 0.905511811023622
        },
        {
          "duration": 0.21759237499999529,
          "durationTicks": 94,
          "midi": 40,
          "name": "E2",
          "ticks": 17856,
          "time": 41.333292,
          "velocity": 0.905511811023622
        },
        {
          "duration": 0.21759237499999529,
          "durationTicks": 94,
          "midi": 40,
          "name": "E2",
          "ticks": 17952,
          "time": 41.555514,
          "velocity": 0.905511811023622
        },
        {
          "duration": 0.2175923750000024,
          "durationTicks": 94,
          "midi": 40,
          "name": "E2",
          "ticks": 18144,
          "time": 41.999958,
          "velocity": 0.905511811023622
        },
        {
          "duration": 0.21759237499999529,
          "durationTicks": 94,
          "midi": 42,
          "name": "F#2",
          "ticks": 18240,
          "time": 42.22218,
          "velocity": 0.905511811023622
        },
        {
          "duration": 0.21759237499999529,
          "durationTicks": 94,
          "midi": 44,
          "name": "G#2",
          "ticks": 18336,
          "time": 42.444402000000004,
          "velocity": 0.905511811023622
        },
        {
          "duration": 0.4398143749999974,
          "durationTicks": 190,
          "midi": 45,
          "name": "A2",
          "ticks": 18432,
          "time": 42.666624,
          "velocity": 0.905511811023622
        },
        {
          "duration": 0.21759237499999529,
          "durationTicks": 94,
          "midi": 45,
          "name": "A2",
          "ticks": 18624,
          "time": 43.111068,
          "velocity": 0.905511811023622
        },
        {
          "duration": 0.2175923750000024,
          "durationTicks": 94,
          "midi": 45,
          "name": "A2",
          "ticks": 18720,
          "time": 43.33329,
          "velocity": 0.905511811023622
        },
        {
          "duration": 0.21759237499999529,
          "durationTicks": 94,
          "midi": 45,
          "name": "A2",
          "ticks": 18912,
          "time": 43.777734,
          "velocity": 0.905511811023622
        },
        {
          "duration": 0.2175923750000024,
          "durationTicks": 94,
          "midi": 40,
          "name": "E2",
          "ticks": 19104,
          "time": 44.222178,
          "velocity": 0.905511811023622
        },
        {
          "duration": 0.6620363749999996,
          "durationTicks": 286,
          "midi": 45,
          "name": "A2",
          "ticks": 19200,
          "time": 44.4444,
          "velocity": 0.905511811023622
        },
        {
          "duration": 0.21759237499999529,
          "durationTicks": 94,
          "midi": 45,
          "name": "A2",
          "ticks": 19488,
          "time": 45.111066,
          "velocity": 0.905511811023622
        },
        {
          "duration": 0.21759237499999529,
          "durationTicks": 94,
          "midi": 45,
          "name": "A2",
          "ticks": 19584,
          "time": 45.333288,
          "velocity": 0.905511811023622
        },
        {
          "duration": 0.2175923750000024,
          "durationTicks": 94,
          "midi": 42,
          "name": "F#2",
          "ticks": 19680,
          "time": 45.55551,
          "velocity": 0.905511811023622
        },
        {
          "duration": 0.21759237499999529,
          "durationTicks": 94,
          "midi": 40,
          "name": "E2",
          "ticks": 19776,
          "time": 45.777732,
          "velocity": 0.905511811023622
        },
        {
          "duration": 0.21759237499999529,
          "durationTicks": 94,
          "midi": 37,
          "name": "C#2",
          "ticks": 19872,
          "time": 45.999954,
          "velocity": 0.905511811023622
        },
        {
          "duration": 0.6620363749999996,
          "durationTicks": 286,
          "midi": 38,
          "name": "D2",
          "ticks": 19968,
          "time": 46.222176,
          "velocity": 0.905511811023622
        },
        {
          "duration": 0.21759237499999529,
          "durationTicks": 94,
          "midi": 38,
          "name": "D2",
          "ticks": 20256,
          "time": 46.888842000000004,
          "velocity": 0.905511811023622
        },
        {
          "duration": 0.6620363749999996,
          "durationTicks": 286,
          "midi": 38,
          "name": "D2",
          "ticks": 20448,
          "time": 47.333286,
          "velocity": 0.905511811023622
        },
        {
          "duration": 0.4398143749999974,
          "durationTicks": 190,
          "midi": 35,
          "name": "B1",
          "ticks": 20736,
          "time": 47.999952,
          "velocity": 0.905511811023622
        },
        {
          "duration": 0.2175923750000024,
          "durationTicks": 94,
          "midi": 35,
          "name": "B1",
          "ticks": 20928,
          "time": 48.444396,
          "velocity": 0.905511811023622
        },
        {
          "duration": 0.21759237499999529,
          "durationTicks": 94,
          "midi": 35,
          "name": "B1",
          "ticks": 21024,
          "time": 48.666618,
          "velocity": 0.905511811023622
        },
        {
          "duration": 0.21759237499999529,
          "durationTicks": 94,
          "midi": 35,
          "name": "B1",
          "ticks": 21120,
          "time": 48.88884,
          "velocity": 0.905511811023622
        },
        {
          "duration": 0.21759237499999529,
          "durationTicks": 94,
          "midi": 35,
          "name": "B1",
          "ticks": 21216,
          "time": 49.111062000000004,
          "velocity": 0.905511811023622
        },
        {
          "duration": 0.2175923750000024,
          "durationTicks": 94,
          "midi": 37,
          "name": "C#2",
          "ticks": 21312,
          "time": 49.333284,
          "velocity": 0.905511811023622
        },
        {
          "duration": 0.21759237499999529,
          "durationTicks": 94,
          "midi": 39,
          "name": "D#2",
          "ticks": 21408,
          "time": 49.555506,
          "velocity": 0.905511811023622
        },
        {
          "duration": 0.21759237499999529,
          "durationTicks": 94,
          "midi": 33,
          "name": "A1",
          "ticks": 21504,
          "time": 49.777728,
          "velocity": 0.905511811023622
        },
        {
          "duration": 0.2175923750000024,
          "durationTicks": 94,
          "midi": 33,
          "name": "A1",
          "ticks": 21600,
          "time": 49.99995,
          "velocity": 0.905511811023622
        },
        {
          "duration": 0.21759237499999529,
          "durationTicks": 94,
          "midi": 33,
          "name": "A1",
          "ticks": 21696,
          "time": 50.222172,
          "velocity": 0.905511811023622
        },
        {
          "duration": 0.21759237499999529,
          "durationTicks": 94,
          "midi": 35,
          "name": "B1",
          "ticks": 21792,
          "time": 50.444394,
          "velocity": 0.905511811023622
        },
        {
          "duration": 0.2175923750000024,
          "durationTicks": 94,
          "midi": 37,
          "name": "C#2",
          "ticks": 21888,
          "time": 50.666616,
          "velocity": 0.905511811023622
        },
        {
          "duration": 0.21759237499999529,
          "durationTicks": 94,
          "midi": 40,
          "name": "E2",
          "ticks": 21984,
          "time": 50.888838,
          "velocity": 0.905511811023622
        },
        {
          "duration": 0.21759237499999529,
          "durationTicks": 94,
          "midi": 42,
          "name": "F#2",
          "ticks": 22080,
          "time": 51.11106,
          "velocity": 0.905511811023622
        },
        {
          "duration": 0.21759237499999529,
          "durationTicks": 94,
          "midi": 45,
          "name": "A2",
          "ticks": 22176,
          "time": 51.333282000000004,
          "velocity": 0.905511811023622
        },
        {
          "duration": 0.6620363749999996,
          "durationTicks": 286,
          "midi": 38,
          "name": "D2",
          "ticks": 22272,
          "time": 51.555504,
          "velocity": 0.905511811023622
        },
        {
          "duration": 0.6620363749999996,
          "durationTicks": 286,
          "midi": 37,
          "name": "C#2",
          "ticks": 22560,
          "time": 52.22217,
          "velocity": 0.905511811023622
        },
        {
          "duration": 0.6620363749999996,
          "durationTicks": 286,
          "midi": 35,
          "name": "B1",
          "ticks": 22848,
          "time": 52.888836,
          "velocity": 0.905511811023622
        },
        {
          "duration": 0.6620363749999925,
          "durationTicks": 286,
          "midi": 33,
          "name": "A1",
          "ticks": 23136,
          "time": 53.555502000000004,
          "velocity": 0.905511811023622
        },
        {
          "duration": 0.21759237499999529,
          "durationTicks": 94,
          "midi": 28,
          "name": "E1",
          "ticks": 23424,
          "time": 54.222168,
          "velocity": 0.905511811023622
        },
        {
          "duration": 0.2175923750000024,
          "durationTicks": 94,
          "midi": 32,
          "name": "G#1",
          "ticks": 23520,
          "time": 54.44439,
          "velocity": 0.905511811023622
        },
        {
          "duration": 0.21759237499999529,
          "durationTicks": 94,
          "midi": 35,
          "name": "B1",
          "ticks": 23616,
          "time": 54.666612,
          "velocity": 0.905511811023622
        },
        {
          "duration": 0.21759237499999529,
          "durationTicks": 94,
          "midi": 28,
          "name": "E1",
          "ticks": 23712,
          "time": 54.888834,
          "velocity": 0.905511811023622
        },
        {
          "duration": 0.4398143749999974,
          "durationTicks": 190,
          "midi": 45,
          "name": "A2",
          "ticks": 23808,
          "time": 55.111056,
          "velocity": 0.905511811023622
        },
        {
          "duration": 0.21759237499999529,
          "durationTicks": 94,
          "midi": 45,
          "name": "A2",
          "ticks": 24000,
          "time": 55.5555,
          "velocity": 0.905511811023622
        },
        {
          "duration": 0.21759237499999529,
          "durationTicks": 94,
          "midi": 45,
          "name": "A2",
          "ticks": 24096,
          "time": 55.777722000000004,
          "velocity": 0.905511811023622
        },
        {
          "duration": 0.2175923750000024,
          "durationTicks": 94,
          "midi": 45,
          "name": "A2",
          "ticks": 24192,
          "time": 55.999944,
          "velocity": 0.905511811023622
        },
        {
          "duration": 0.4398143749999974,
          "durationTicks": 190,
          "midi": 45,
          "name": "A2",
          "ticks": 24288,
          "time": 56.222166,
          "velocity": 0.905511811023622
        },
        {
          "duration": 0.2175923750000024,
          "durationTicks": 94,
          "midi": 38,
          "name": "D2",
          "ticks": 24480,
          "time": 56.66661,
          "velocity": 0.905511811023622
        },
        {
          "duration": 0.43981437500000453,
          "durationTicks": 190,
          "midi": 40,
          "name": "E2",
          "ticks": 24576,
          "time": 56.888832,
          "velocity": 0.905511811023622
        },
        {
          "duration": 0.43981437500000453,
          "durationTicks": 190,
          "midi": 40,
          "name": "E2",
          "ticks": 24768,
          "time": 57.333276,
          "velocity": 0.905511811023622
        },
        {
          "duration": 0.2175923750000024,
          "durationTicks": 94,
          "midi": 40,
          "name": "E2",
          "ticks": 24960,
          "time": 57.77772,
          "velocity": 0.905511811023622
        },
        {
          "duration": 0.6620363750000067,
          "durationTicks": 286,
          "midi": 40,
          "name": "E2",
          "ticks": 25056,
          "time": 57.999942,
          "velocity": 0.905511811023622
        },
        {
          "duration": 0.6620363749999996,
          "durationTicks": 286,
          "midi": 33,
          "name": "A1",
          "ticks": 25344,
          "time": 58.666608000000004,
          "velocity": 0.905511811023622
        },
        {
          "duration": 0.2175923750000024,
          "durationTicks": 94,
          "midi": 45,
          "name": "A2",
          "ticks": 25632,
          "time": 59.333274,
          "velocity": 0.905511811023622
        },
        {
          "duration": 0.2175923750000095,
          "durationTicks": 94,
          "midi": 45,
          "name": "A2",
          "ticks": 25728,
          "time": 59.555496,
          "velocity": 0.905511811023622
        },
        {
          "duration": 0.43981437500000453,
          "durationTicks": 190,
          "midi": 45,
          "name": "A2",
          "ticks": 25824,
          "time": 59.777718,
          "velocity": 0.905511811023622
        },
        {
          "duration": 0.2175923750000095,
          "durationTicks": 94,
          "midi": 45,
          "name": "A2",
          "ticks": 26016,
          "time": 60.222162,
          "velocity": 0.905511811023622
        },
        {
          "duration": 0.43981437500000453,
          "durationTicks": 190,
          "midi": 45,
          "name": "A2",
          "ticks": 26112,
          "time": 60.444384,
          "velocity": 0.905511811023622
        },
        {
          "duration": 0.2175923750000024,
          "durationTicks": 94,
          "midi": 45,
          "name": "A2",
          "ticks": 26304,
          "time": 60.888828000000004,
          "velocity": 0.905511811023622
        },
        {
          "duration": 0.2175923750000095,
          "durationTicks": 94,
          "midi": 45,
          "name": "A2",
          "ticks": 26400,
          "time": 61.11105,
          "velocity": 0.905511811023622
        },
        {
          "duration": 0.2175923750000024,
          "durationTicks": 94,
          "midi": 45,
          "name": "A2",
          "ticks": 26592,
          "time": 61.555494,
          "velocity": 0.905511811023622
        },
        {
          "duration": 0.43981437500000453,
          "durationTicks": 190,
          "midi": 45,
          "name": "A2",
          "ticks": 26688,
          "time": 61.777716,
          "velocity": 0.905511811023622
        },
        {
          "duration": 0.43981437500000453,
          "durationTicks": 190,
          "midi": 38,
          "name": "D2",
          "ticks": 26880,
          "time": 62.22216,
          "velocity": 0.905511811023622
        },
        {
          "duration": 0.2175923750000024,
          "durationTicks": 94,
          "midi": 38,
          "name": "D2",
          "ticks": 27072,
          "time": 62.666604,
          "velocity": 0.905511811023622
        },
        {
          "duration": 0.2175923750000024,
          "durationTicks": 94,
          "midi": 38,
          "name": "D2",
          "ticks": 27168,
          "time": 62.888826,
          "velocity": 0.905511811023622
        },
        {
          "duration": 0.2175923750000095,
          "durationTicks": 94,
          "midi": 38,
          "name": "D2",
          "ticks": 27360,
          "time": 63.33327,
          "velocity": 0.905511811023622
        },
        {
          "duration": 0.2175923750000024,
          "durationTicks": 94,
          "midi": 38,
          "name": "D2",
          "ticks": 27456,
          "time": 63.555492,
          "velocity": 0.905511811023622
        },
        {
          "duration": 0.43981437500000453,
          "durationTicks": 190,
          "midi": 40,
          "name": "E2",
          "ticks": 27648,
          "time": 63.999936,
          "velocity": 0.905511811023622
        },
        {
          "duration": 0.2175923750000095,
          "durationTicks": 94,
          "midi": 40,
          "name": "E2",
          "ticks": 27840,
          "time": 64.44438,
          "velocity": 0.905511811023622
        },
        {
          "duration": 0.2175923750000095,
          "durationTicks": 94,
          "midi": 40,
          "name": "E2",
          "ticks": 27936,
          "time": 64.666602,
          "velocity": 0.905511811023622
        },
        {
          "duration": 0.2175923750000095,
          "durationTicks": 94,
          "midi": 40,
          "name": "E2",
          "ticks": 28128,
          "time": 65.111046,
          "velocity": 0.905511811023622
        },
        {
          "duration": 0.21759237499999529,
          "durationTicks": 94,
          "midi": 42,
          "name": "F#2",
          "ticks": 28224,
          "time": 65.333268,
          "velocity": 0.905511811023622
        },
        {
          "duration": 0.21759237499999529,
          "durationTicks": 94,
          "midi": 44,
          "name": "G#2",
          "ticks": 28320,
          "time": 65.55549,
          "velocity": 0.905511811023622
        },
        {
          "duration": 0.43981437500001164,
          "durationTicks": 190,
          "midi": 45,
          "name": "A2",
          "ticks": 28416,
          "time": 65.777712,
          "velocity": 0.905511811023622
        },
        {
          "duration": 0.2175923750000095,
          "durationTicks": 94,
          "midi": 45,
          "name": "A2",
          "ticks": 28608,
          "time": 66.222156,
          "velocity": 0.905511811023622
        },
        {
          "duration": 0.2175923750000095,
          "durationTicks": 94,
          "midi": 45,
          "name": "A2",
          "ticks": 28704,
          "time": 66.444378,
          "velocity": 0.905511811023622
        },
        {
          "duration": 0.21759237499999529,
          "durationTicks": 94,
          "midi": 45,
          "name": "A2",
          "ticks": 28896,
          "time": 66.888822,
          "velocity": 0.905511811023622
        },
        {
          "duration": 0.2175923750000095,
          "durationTicks": 94,
          "midi": 45,
          "name": "A2",
          "ticks": 29088,
          "time": 67.333266,
          "velocity": 0.905511811023622
        },
        {
          "duration": 0.43981437500001164,
          "durationTicks": 190,
          "midi": 45,
          "name": "A2",
          "ticks": 29184,
          "time": 67.555488,
          "velocity": 0.905511811023622
        },
        {
          "duration": 0.2175923750000095,
          "durationTicks": 94,
          "midi": 45,
          "name": "A2",
          "ticks": 29376,
          "time": 67.999932,
          "velocity": 0.905511811023622
        },
        {
          "duration": 0.21759237499999529,
          "durationTicks": 94,
          "midi": 45,
          "name": "A2",
          "ticks": 29472,
          "time": 68.222154,
          "velocity": 0.905511811023622
        },
        {
          "duration": 0.21759237499999529,
          "durationTicks": 94,
          "midi": 42,
          "name": "F#2",
          "ticks": 29664,
          "time": 68.66659800000001,
          "velocity": 0.905511811023622
        },
        {
          "duration": 0.2175923750000095,
          "durationTicks": 94,
          "midi": 40,
          "name": "E2",
          "ticks": 29760,
          "time": 68.88882,
          "velocity": 0.905511811023622
        },
        {
          "duration": 0.2175923750000095,
          "durationTicks": 94,
          "midi": 37,
          "name": "C#2",
          "ticks": 29856,
          "time": 69.111042,
          "velocity": 0.905511811023622
        },
        {
          "duration": 0.43981437500001164,
          "durationTicks": 190,
          "midi": 38,
          "name": "D2",
          "ticks": 29952,
          "time": 69.333264,
          "velocity": 0.905511811023622
        },
        {
          "duration": 0.21759237499999529,
          "durationTicks": 94,
          "midi": 38,
          "name": "D2",
          "ticks": 30144,
          "time": 69.777708,
          "velocity": 0.905511811023622
        },
        {
          "duration": 0.21759237499999529,
          "durationTicks": 94,
          "midi": 38,
          "name": "D2",
          "ticks": 30240,
          "time": 69.99993,
          "velocity": 0.905511811023622
        },
        {
          "duration": 0.2175923750000095,
          "durationTicks": 94,
          "midi": 37,
          "name": "C#2",
          "ticks": 30432,
          "time": 70.444374,
          "velocity": 0.905511811023622
        },
        {
          "duration": 0.43981437500001164,
          "durationTicks": 190,
          "midi": 38,
          "name": "D2",
          "ticks": 30528,
          "time": 70.666596,
          "velocity": 0.905511811023622
        },
        {
          "duration": 0.4398143749999974,
          "durationTicks": 190,
          "midi": 40,
          "name": "E2",
          "ticks": 30720,
          "time": 71.11104,
          "velocity": 0.905511811023622
        },
        {
          "duration": 0.21759237499999529,
          "durationTicks": 94,
          "midi": 40,
          "name": "E2",
          "ticks": 30912,
          "time": 71.555484,
          "velocity": 0.905511811023622
        },
        {
          "duration": 0.2175923750000095,
          "durationTicks": 94,
          "midi": 40,
          "name": "E2",
          "ticks": 31008,
          "time": 71.777706,
          "velocity": 0.905511811023622
        },
        {
          "duration": 0.2175923750000095,
          "durationTicks": 94,
          "midi": 40,
          "name": "E2",
          "ticks": 31200,
          "time": 72.22215,
          "velocity": 0.905511811023622
        },
        {
          "duration": 0.2175923750000095,
          "durationTicks": 94,
          "midi": 42,
          "name": "F#2",
          "ticks": 31296,
          "time": 72.444372,
          "velocity": 0.905511811023622
        },
        {
          "duration": 0.21759237499999529,
          "durationTicks": 94,
          "midi": 44,
          "name": "G#2",
          "ticks": 31392,
          "time": 72.666594,
          "velocity": 0.905511811023622
        },
        {
          "duration": 0.4398143749999974,
          "durationTicks": 190,
          "midi": 45,
          "name": "A2",
          "ticks": 31488,
          "time": 72.888816,
          "velocity": 0.905511811023622
        },
        {
          "duration": 0.2175923750000095,
          "durationTicks": 94,
          "midi": 45,
          "name": "A2",
          "ticks": 31680,
          "time": 73.33326,
          "velocity": 0.905511811023622
        },
        {
          "duration": 0.2175923750000095,
          "durationTicks": 94,
          "midi": 45,
          "name": "A2",
          "ticks": 31776,
          "time": 73.555482,
          "velocity": 0.905511811023622
        },
        {
          "duration": 0.2175923750000095,
          "durationTicks": 94,
          "midi": 45,
          "name": "A2",
          "ticks": 31968,
          "time": 73.999926,
          "velocity": 0.905511811023622
        },
        {
          "duration": 0.21759237499999529,
          "durationTicks": 94,
          "midi": 40,
          "name": "E2",
          "ticks": 32160,
          "time": 74.44437,
          "velocity": 0.905511811023622
        },
        {
          "duration": 0.6620363750000138,
          "durationTicks": 286,
          "midi": 45,
          "name": "A2",
          "ticks": 32256,
          "time": 74.666592,
          "velocity": 0.905511811023622
        },
        {
          "duration": 0.2175923750000095,
          "durationTicks": 94,
          "midi": 45,
          "name": "A2",
          "ticks": 32544,
          "time": 75.333258,
          "velocity": 0.905511811023622
        },
        {
          "duration": 0.21759237499999529,
          "durationTicks": 94,
          "midi": 45,
          "name": "A2",
          "ticks": 32640,
          "time": 75.55548,
          "velocity": 0.905511811023622
        },
        {
          "duration": 0.21759237499999529,
          "durationTicks": 94,
          "midi": 42,
          "name": "F#2",
          "ticks": 32736,
          "time": 75.777702,
          "velocity": 0.905511811023622
        },
        {
          "duration": 0.21759237499999529,
          "durationTicks": 94,
          "midi": 40,
          "name": "E2",
          "ticks": 32832,
          "time": 75.99992400000001,
          "velocity": 0.905511811023622
        },
        {
          "duration": 0.2175923750000095,
          "durationTicks": 94,
          "midi": 37,
          "name": "C#2",
          "ticks": 32928,
          "time": 76.222146,
          "velocity": 0.905511811023622
        },
        {
          "duration": 0.6620363750000138,
          "durationTicks": 286,
          "midi": 38,
          "name": "D2",
          "ticks": 33024,
          "time": 76.444368,
          "velocity": 0.905511811023622
        },
        {
          "duration": 0.21759237499999529,
          "durationTicks": 94,
          "midi": 38,
          "name": "D2",
          "ticks": 33312,
          "time": 77.111034,
          "velocity": 0.905511811023622
        },
        {
          "duration": 0.6620363749999996,
          "durationTicks": 286,
          "midi": 38,
          "name": "D2",
          "ticks": 33504,
          "time": 77.55547800000001,
          "velocity": 0.905511811023622
        },
        {
          "duration": 0.43981437500001164,
          "durationTicks": 190,
          "midi": 35,
          "name": "B1",
          "ticks": 33792,
          "time": 78.222144,
          "velocity": 0.905511811023622
        },
        {
          "duration": 0.21759237499999529,
          "durationTicks": 94,
          "midi": 35,
          "name": "B1",
          "ticks": 33984,
          "time": 78.666588,
          "velocity": 0.905511811023622
        },
        {
          "duration": 0.21759237499999529,
          "durationTicks": 94,
          "midi": 35,
          "name": "B1",
          "ticks": 34080,
          "time": 78.88881,
          "velocity": 0.905511811023622
        },
        {
          "duration": 0.2175923750000095,
          "durationTicks": 94,
          "midi": 35,
          "name": "B1",
          "ticks": 34176,
          "time": 79.111032,
          "velocity": 0.905511811023622
        },
        {
          "duration": 0.2175923750000095,
          "durationTicks": 94,
          "midi": 35,
          "name": "B1",
          "ticks": 34272,
          "time": 79.333254,
          "velocity": 0.905511811023622
        },
        {
          "duration": 0.2175923750000095,
          "durationTicks": 94,
          "midi": 37,
          "name": "C#2",
          "ticks": 34368,
          "time": 79.555476,
          "velocity": 0.905511811023622
        },
        {
          "duration": 0.2175923750000095,
          "durationTicks": 94,
          "midi": 39,
          "name": "D#2",
          "ticks": 34464,
          "time": 79.777698,
          "velocity": 0.905511811023622
        },
        {
          "duration": 0.21759237499999529,
          "durationTicks": 94,
          "midi": 33,
          "name": "A1",
          "ticks": 34560,
          "time": 79.99992,
          "velocity": 0.905511811023622
        },
        {
          "duration": 0.21759237499999529,
          "durationTicks": 94,
          "midi": 33,
          "name": "A1",
          "ticks": 34656,
          "time": 80.222142,
          "velocity": 0.905511811023622
        },
        {
          "duration": 0.21759237499999529,
          "durationTicks": 94,
          "midi": 33,
          "name": "A1",
          "ticks": 34752,
          "time": 80.44436400000001,
          "velocity": 0.905511811023622
        },
        {
          "duration": 0.2175923750000095,
          "durationTicks": 94,
          "midi": 35,
          "name": "B1",
          "ticks": 34848,
          "time": 80.666586,
          "velocity": 0.905511811023622
        },
        {
          "duration": 0.2175923750000095,
          "durationTicks": 94,
          "midi": 37,
          "name": "C#2",
          "ticks": 34944,
          "time": 80.888808,
          "velocity": 0.905511811023622
        },
        {
          "duration": 0.2175923750000095,
          "durationTicks": 94,
          "midi": 40,
          "name": "E2",
          "ticks": 35040,
          "time": 81.11103,
          "velocity": 0.905511811023622
        },
        {
          "duration": 0.2175923750000095,
          "durationTicks": 94,
          "midi": 42,
          "name": "F#2",
          "ticks": 35136,
          "time": 81.333252,
          "velocity": 0.905511811023622
        },
        {
          "duration": 0.21759237499999529,
          "durationTicks": 94,
          "midi": 45,
          "name": "A2",
          "ticks": 35232,
          "time": 81.555474,
          "velocity": 0.905511811023622
        },
        {
          "duration": 0.6620363749999996,
          "durationTicks": 286,
          "midi": 38,
          "name": "D2",
          "ticks": 35328,
          "time": 81.777696,
          "velocity": 0.905511811023622
        },
        {
          "duration": 0.6620363750000138,
          "durationTicks": 286,
          "midi": 37,
          "name": "C#2",
          "ticks": 35616,
          "time": 82.444362,
          "velocity": 0.905511811023622
        },
        {
          "duration": 0.6620363749999996,
          "durationTicks": 286,
          "midi": 35,
          "name": "B1",
          "ticks": 35904,
          "time": 83.111028,
          "velocity": 0.905511811023622
        },
        {
          "duration": 0.6620363750000138,
          "durationTicks": 286,
          "midi": 33,
          "name": "A1",
          "ticks": 36192,
          "time": 83.777694,
          "velocity": 0.905511811023622
        },
        {
          "duration": 0.21759237499999529,
          "durationTicks": 94,
          "midi": 28,
          "name": "E1",
          "ticks": 36480,
          "time": 84.44436,
          "velocity": 0.905511811023622
        },
        {
          "duration": 0.21759237499999529,
          "durationTicks": 94,
          "midi": 32,
          "name": "G#1",
          "ticks": 36576,
          "time": 84.666582,
          "velocity": 0.905511811023622
        },
        {
          "duration": 0.21759237499999529,
          "durationTicks": 94,
          "midi": 35,
          "name": "B1",
          "ticks": 36672,
          "time": 84.88880400000001,
          "velocity": 0.905511811023622
        },
        {
          "duration": 0.2175923750000095,
          "durationTicks": 94,
          "midi": 28,
          "name": "E1",
          "ticks": 36768,
          "time": 85.111026,
          "velocity": 0.905511811023622
        },
        {
          "duration": 0.43981437500001164,
          "durationTicks": 190,
          "midi": 45,
          "name": "A2",
          "ticks": 36864,
          "time": 85.333248,
          "velocity": 0.905511811023622
        },
        {
          "duration": 0.2175923750000095,
          "durationTicks": 94,
          "midi": 45,
          "name": "A2",
          "ticks": 37056,
          "time": 85.777692,
          "velocity": 0.905511811023622
        },
        {
          "duration": 0.21759237499999529,
          "durationTicks": 94,
          "midi": 45,
          "name": "A2",
          "ticks": 37152,
          "time": 85.999914,
          "velocity": 0.905511811023622
        },
        {
          "duration": 0.21759237499999529,
          "durationTicks": 94,
          "midi": 45,
          "name": "A2",
          "ticks": 37248,
          "time": 86.222136,
          "velocity": 0.905511811023622
        },
        {
          "duration": 0.43981437500001164,
          "durationTicks": 190,
          "midi": 45,
          "name": "A2",
          "ticks": 37344,
          "time": 86.444358,
          "velocity": 0.905511811023622
        },
        {
          "duration": 0.2175923750000095,
          "durationTicks": 94,
          "midi": 38,
          "name": "D2",
          "ticks": 37536,
          "time": 86.888802,
          "velocity": 0.905511811023622
        },
        {
          "duration": 0.43981437500001164,
          "durationTicks": 190,
          "midi": 40,
          "name": "E2",
          "ticks": 37632,
          "time": 87.111024,
          "velocity": 0.905511811023622
        },
        {
          "duration": 0.4398143749999974,
          "durationTicks": 190,
          "midi": 40,
          "name": "E2",
          "ticks": 37824,
          "time": 87.555468,
          "velocity": 0.905511811023622
        },
        {
          "duration": 0.6620363749999996,
          "durationTicks": 286,
          "midi": 48,
          "name": "C3",
          "ticks": 38304,
          "time": 88.666578,
          "velocity": 0.905511811023622
        },
        {
          "duration": 0.6620363749999996,
          "durationTicks": 286,
          "midi": 43,
          "name": "G2",
          "ticks": 38592,
          "time": 89.33324400000001,
          "velocity": 0.905511811023622
        },
        {
          "duration": 0.6620363749999996,
          "durationTicks": 286,
          "midi": 42,
          "name": "F#2",
          "ticks": 38880,
          "time": 89.99991,
          "velocity": 0.905511811023622
        },
        {
          "duration": 0.4398143749999974,
          "durationTicks": 190,
          "midi": 38,
          "name": "D2",
          "ticks": 39168,
          "time": 90.666576,
          "velocity": 0.905511811023622
        },
        {
          "duration": 0.43981437500001164,
          "durationTicks": 190,
          "midi": 45,
          "name": "A2",
          "ticks": 39360,
          "time": 91.11102,
          "velocity": 0.905511811023622
        },
        {
          "duration": 0.43981437500001164,
          "durationTicks": 190,
          "midi": 45,
          "name": "A2",
          "ticks": 39552,
          "time": 91.555464,
          "velocity": 0.905511811023622
        },
        {
          "duration": 0.4398143749999974,
          "durationTicks": 190,
          "midi": 45,
          "name": "A2",
          "ticks": 39744,
          "time": 91.999908,
          "velocity": 0.905511811023622
        },
        {
          "duration": 0.43981437500001164,
          "durationTicks": 190,
          "midi": 45,
          "name": "A2",
          "ticks": 39936,
          "time": 92.444352,
          "velocity": 0.905511811023622
        },
        {
          "duration": 0.43981437500001164,
          "durationTicks": 190,
          "midi": 40,
          "name": "E2",
          "ticks": 40128,
          "time": 92.888796,
          "velocity": 0.905511811023622
        },
        {
          "duration": 0.4398143749999974,
          "durationTicks": 190,
          "midi": 40,
          "name": "E2",
          "ticks": 40320,
          "time": 93.33324,
          "velocity": 0.905511811023622
        },
        {
          "duration": 0.21759237499999529,
          "durationTicks": 94,
          "midi": 40,
          "name": "E2",
          "ticks": 40512,
          "time": 93.77768400000001,
          "velocity": 0.905511811023622
        },
        {
          "duration": 0.2175923750000095,
          "durationTicks": 94,
          "midi": 44,
          "name": "G#2",
          "ticks": 40608,
          "time": 93.999906,
          "velocity": 0.905511811023622
        },
        {
          "duration": 0.2175923750000095,
          "durationTicks": 94,
          "midi": 47,
          "name": "B2",
          "ticks": 40704,
          "time": 94.222128,
          "velocity": 0.905511811023622
        },
        {
          "duration": 0.6620363749999996,
          "durationTicks": 286,
          "midi": 48,
          "name": "C3",
          "ticks": 40800,
          "time": 94.44435,
          "velocity": 0.905511811023622
        },
        {
          "duration": 0.6620363749999996,
          "durationTicks": 286,
          "midi": 43,
          "name": "G2",
          "ticks": 41088,
          "time": 95.111016,
          "velocity": 0.905511811023622
        },
        {
          "duration": 0.6620363750000138,
          "durationTicks": 286,
          "midi": 42,
          "name": "F#2",
          "ticks": 41376,
          "time": 95.777682,
          "velocity": 0.905511811023622
        },
        {
          "duration": 0.4398143749999974,
          "durationTicks": 190,
          "midi": 38,
          "name": "D2",
          "ticks": 41664,
          "time": 96.444348,
          "velocity": 0.905511811023622
        },
        {
          "duration": 0.43981437500001164,
          "durationTicks": 190,
          "midi": 45,
          "name": "A2",
          "ticks": 41856,
          "time": 96.888792,
          "velocity": 0.905511811023622
        },
        {
          "duration": 0.43981437500001164,
          "durationTicks": 190,
          "midi": 45,
          "name": "A2",
          "ticks": 42048,
          "time": 97.333236,
          "velocity": 0.905511811023622
        },
        {
          "duration": 0.4398143749999974,
          "durationTicks": 190,
          "midi": 45,
          "name": "A2",
          "ticks": 42240,
          "time": 97.77768,
          "velocity": 0.905511811023622
        },
        {
          "duration": 0.4398143749999974,
          "durationTicks": 190,
          "midi": 45,
          "name": "A2",
          "ticks": 42432,
          "time": 98.22212400000001,
          "velocity": 0.905511811023622
        },
        {
          "duration": 0.43981437500001164,
          "durationTicks": 190,
          "midi": 40,
          "name": "E2",
          "ticks": 42624,
          "time": 98.666568,
          "velocity": 0.905511811023622
        },
        {
          "duration": 0.4398143749999974,
          "durationTicks": 190,
          "midi": 40,
          "name": "E2",
          "ticks": 42816,
          "time": 99.111012,
          "velocity": 0.905511811023622
        },
        {
          "duration": 0.21759237499999529,
          "durationTicks": 94,
          "midi": 40,
          "name": "E2",
          "ticks": 43008,
          "time": 99.555456,
          "velocity": 0.905511811023622
        },
        {
          "duration": 0.2175923750000095,
          "durationTicks": 94,
          "midi": 44,
          "name": "G#2",
          "ticks": 43104,
          "time": 99.777678,
          "velocity": 0.905511811023622
        },
        {
          "duration": 0.2175923750000095,
          "durationTicks": 94,
          "midi": 47,
          "name": "B2",
          "ticks": 43200,
          "time": 99.9999,
          "velocity": 0.905511811023622
        },
        {
          "duration": 0.6620363750000138,
          "durationTicks": 286,
          "midi": 48,
          "name": "C3",
          "ticks": 43296,
          "time": 100.222122,
          "velocity": 0.905511811023622
        },
        {
          "duration": 0.6620363749999996,
          "durationTicks": 286,
          "midi": 43,
          "name": "G2",
          "ticks": 43584,
          "time": 100.888788,
          "velocity": 0.905511811023622
        },
        {
          "duration": 0.6620363750000138,
          "durationTicks": 286,
          "midi": 42,
          "name": "F#2",
          "ticks": 43872,
          "time": 101.555454,
          "velocity": 0.905511811023622
        },
        {
          "duration": 0.4398143749999974,
          "durationTicks": 190,
          "midi": 38,
          "name": "D2",
          "ticks": 44160,
          "time": 102.22212,
          "velocity": 0.905511811023622
        },
        {
          "duration": 0.4398143749999974,
          "durationTicks": 190,
          "midi": 45,
          "name": "A2",
          "ticks": 44352,
          "time": 102.66656400000001,
          "velocity": 0.905511811023622
        },
        {
          "duration": 0.43981437500001164,
          "durationTicks": 190,
          "midi": 45,
          "name": "A2",
          "ticks": 44544,
          "time": 103.111008,
          "velocity": 0.905511811023622
        },
        {
          "duration": 0.4398143749999974,
          "durationTicks": 190,
          "midi": 45,
          "name": "A2",
          "ticks": 44736,
          "time": 103.555452,
          "velocity": 0.905511811023622
        },
        {
          "duration": 0.4398143749999974,
          "durationTicks": 190,
          "midi": 45,
          "name": "A2",
          "ticks": 44928,
          "time": 103.999896,
          "velocity": 0.905511811023622
        },
        {
          "duration": 0.43981437500001164,
          "durationTicks": 190,
          "midi": 40,
          "name": "E2",
          "ticks": 45120,
          "time": 104.44434,
          "velocity": 0.905511811023622
        },
        {
          "duration": 0.4398143749999974,
          "durationTicks": 190,
          "midi": 40,
          "name": "E2",
          "ticks": 45312,
          "time": 104.888784,
          "velocity": 0.905511811023622
        },
        {
          "duration": 0.21759237499999529,
          "durationTicks": 94,
          "midi": 40,
          "name": "E2",
          "ticks": 45504,
          "time": 105.333228,
          "velocity": 0.905511811023622
        },
        {
          "duration": 0.21759237499999529,
          "durationTicks": 94,
          "midi": 44,
          "name": "G#2",
          "ticks": 45600,
          "time": 105.55545000000001,
          "velocity": 0.905511811023622
        },
        {
          "duration": 0.2175923750000095,
          "durationTicks": 94,
          "midi": 47,
          "name": "B2",
          "ticks": 45696,
          "time": 105.777672,
          "velocity": 0.905511811023622
        },
        {
          "duration": 0.6620363750000138,
          "durationTicks": 286,
          "midi": 48,
          "name": "C3",
          "ticks": 45792,
          "time": 105.999894,
          "velocity": 0.905511811023622
        },
        {
          "duration": 0.6620363749999996,
          "durationTicks": 286,
          "midi": 43,
          "name": "G2",
          "ticks": 46080,
          "time": 106.66656,
          "velocity": 0.905511811023622
        },
        {
          "duration": 0.6620363750000138,
          "durationTicks": 286,
          "midi": 42,
          "name": "F#2",
          "ticks": 46368,
          "time": 107.333226,
          "velocity": 0.905511811023622
        },
        {
          "duration": 0.4398143749999974,
          "durationTicks": 190,
          "midi": 38,
          "name": "D2",
          "ticks": 46656,
          "time": 107.999892,
          "velocity": 0.905511811023622
        },
        {
          "duration": 0.4398143749999974,
          "durationTicks": 190,
          "midi": 45,
          "name": "A2",
          "ticks": 46848,
          "time": 108.444336,
          "velocity": 0.905511811023622
        },
        {
          "duration": 0.43981437500001164,
          "durationTicks": 190,
          "midi": 45,
          "name": "A2",
          "ticks": 47040,
          "time": 108.88878,
          "velocity": 0.905511811023622
        },
        {
          "duration": 0.4398143749999974,
          "durationTicks": 190,
          "midi": 45,
          "name": "A2",
          "ticks": 47232,
          "time": 109.333224,
          "velocity": 0.905511811023622
        },
        {
          "duration": 0.4398143749999974,
          "durationTicks": 190,
          "midi": 45,
          "name": "A2",
          "ticks": 47424,
          "time": 109.777668,
          "velocity": 0.905511811023622
        },
        {
          "duration": 0.43981437500001164,
          "durationTicks": 190,
          "midi": 40,
          "name": "E2",
          "ticks": 47616,
          "time": 110.222112,
          "velocity": 0.905511811023622
        },
        {
          "duration": 0.43981437500001164,
          "durationTicks": 190,
          "midi": 40,
          "name": "E2",
          "ticks": 47808,
          "time": 110.666556,
          "velocity": 0.905511811023622
        },
        {
          "duration": 0.21759237499999529,
          "durationTicks": 94,
          "midi": 40,
          "name": "E2",
          "ticks": 48000,
          "time": 111.111,
          "velocity": 0.905511811023622
        },
        {
          "duration": 0.21759237499999529,
          "durationTicks": 94,
          "midi": 44,
          "name": "G#2",
          "ticks": 48096,
          "time": 111.333222,
          "velocity": 0.905511811023622
        },
        {
          "duration": 0.21759237499999529,
          "durationTicks": 94,
          "midi": 47,
          "name": "B2",
          "ticks": 48192,
          "time": 111.55544400000001,
          "velocity": 0.905511811023622
        },
        {
          "duration": 0.6620363750000138,
          "durationTicks": 286,
          "midi": 48,
          "name": "C3",
          "ticks": 48288,
          "time": 111.777666,
          "velocity": 0.905511811023622
        },
        {
          "duration": 0.6620363749999996,
          "durationTicks": 286,
          "midi": 43,
          "name": "G2",
          "ticks": 48576,
          "time": 112.444332,
          "velocity": 0.905511811023622
        },
        {
          "duration": 0.6620363750000138,
          "durationTicks": 286,
          "midi": 42,
          "name": "F#2",
          "ticks": 48864,
          "time": 113.110998,
          "velocity": 0.905511811023622
        },
        {
          "duration": 0.4398143749999974,
          "durationTicks": 190,
          "midi": 38,
          "name": "D2",
          "ticks": 49152,
          "time": 113.777664,
          "velocity": 0.905511811023622
        },
        {
          "duration": 0.4398143749999832,
          "durationTicks": 190,
          "midi": 45,
          "name": "A2",
          "ticks": 49344,
          "time": 114.222108,
          "velocity": 0.905511811023622
        },
        {
          "duration": 0.4398143749999974,
          "durationTicks": 190,
          "midi": 45,
          "name": "A2",
          "ticks": 49536,
          "time": 114.666552,
          "velocity": 0.905511811023622
        },
        {
          "duration": 0.4398143749999974,
          "durationTicks": 190,
          "midi": 45,
          "name": "A2",
          "ticks": 49728,
          "time": 115.110996,
          "velocity": 0.905511811023622
        },
        {
          "duration": 0.4398143749999832,
          "durationTicks": 190,
          "midi": 45,
          "name": "A2",
          "ticks": 49920,
          "time": 115.55544,
          "velocity": 0.905511811023622
        },
        {
          "duration": 0.4398143749999974,
          "durationTicks": 190,
          "midi": 40,
          "name": "E2",
          "ticks": 50112,
          "time": 115.999884,
          "velocity": 0.905511811023622
        },
        {
          "duration": 0.4398143749999974,
          "durationTicks": 190,
          "midi": 40,
          "name": "E2",
          "ticks": 50304,
          "time": 116.444328,
          "velocity": 0.905511811023622
        },
        {
          "duration": 0.21759237499999529,
          "durationTicks": 94,
          "midi": 40,
          "name": "E2",
          "ticks": 50496,
          "time": 116.888772,
          "velocity": 0.905511811023622
        },
        {
          "duration": 0.21759237499998108,
          "durationTicks": 94,
          "midi": 44,
          "name": "G#2",
          "ticks": 50592,
          "time": 117.110994,
          "velocity": 0.905511811023622
        },
        {
          "duration": 0.21759237499998108,
          "durationTicks": 94,
          "midi": 47,
          "name": "B2",
          "ticks": 50688,
          "time": 117.33321600000001,
          "velocity": 0.905511811023622
        },
        {
          "duration": 0.6620363749999996,
          "durationTicks": 286,
          "midi": 48,
          "name": "C3",
          "ticks": 50784,
          "time": 117.555438,
          "velocity": 0.905511811023622
        },
        {
          "duration": 0.6620363749999854,
          "durationTicks": 286,
          "midi": 43,
          "name": "G2",
          "ticks": 51072,
          "time": 118.222104,
          "velocity": 0.905511811023622
        },
        {
          "duration": 0.6620363749999854,
          "durationTicks": 286,
          "midi": 42,
          "name": "F#2",
          "ticks": 51360,
          "time": 118.88877000000001,
          "velocity": 0.905511811023622
        },
        {
          "duration": 0.4398143749999974,
          "durationTicks": 190,
          "midi": 38,
          "name": "D2",
          "ticks": 51648,
          "time": 119.555436,
          "velocity": 0.905511811023622
        },
        {
          "duration": 0.4398143749999832,
          "durationTicks": 190,
          "midi": 45,
          "name": "A2",
          "ticks": 51840,
          "time": 119.99988,
          "velocity": 0.905511811023622
        },
        {
          "duration": 0.4398143749999974,
          "durationTicks": 190,
          "midi": 45,
          "name": "A2",
          "ticks": 52032,
          "time": 120.444324,
          "velocity": 0.905511811023622
        },
        {
          "duration": 0.21759237499999529,
          "durationTicks": 94,
          "midi": 45,
          "name": "A2",
          "ticks": 52224,
          "time": 120.888768,
          "velocity": 0.905511811023622
        },
        {
          "duration": 0.4398143749999974,
          "durationTicks": 190,
          "midi": 45,
          "name": "A2",
          "ticks": 52320,
          "time": 121.11099,
          "velocity": 0.905511811023622
        },
        {
          "duration": 0.21759237499998108,
          "durationTicks": 94,
          "midi": 40,
          "name": "E2",
          "ticks": 52512,
          "time": 121.555434,
          "velocity": 0.905511811023622
        },
        {
          "duration": 0.21759237499998108,
          "durationTicks": 94,
          "midi": 40,
          "name": "E2",
          "ticks": 52608,
          "time": 121.77765600000001,
          "velocity": 0.905511811023622
        },
        {
          "duration": 0.21759237499999529,
          "durationTicks": 94,
          "midi": 40,
          "name": "E2",
          "ticks": 52704,
          "time": 121.999878,
          "velocity": 0.905511811023622
        },
        {
          "duration": 0.21759237499999529,
          "durationTicks": 94,
          "midi": 40,
          "name": "E2",
          "ticks": 52800,
          "time": 122.2221,
          "velocity": 0.905511811023622
        },
        {
          "duration": 0.21759237499999529,
          "durationTicks": 94,
          "midi": 40,
          "name": "E2",
          "ticks": 52896,
          "time": 122.444322,
          "velocity": 0.905511811023622
        },
        {
          "duration": 0.21759237499999529,
          "durationTicks": 94,
          "midi": 40,
          "name": "E2",
          "ticks": 52992,
          "time": 122.666544,
          "velocity": 0.905511811023622
        },
        {
          "duration": 0.21759237499999529,
          "durationTicks": 94,
          "midi": 40,
          "name": "E2",
          "ticks": 53088,
          "time": 122.888766,
          "velocity": 0.905511811023622
        },
        {
          "duration": 0.21759237499998108,
          "durationTicks": 94,
          "midi": 40,
          "name": "E2",
          "ticks": 53184,
          "time": 123.110988,
          "velocity": 0.905511811023622
        },
        {
          "duration": 0.21759237499998108,
          "durationTicks": 94,
          "midi": 40,
          "name": "E2",
          "ticks": 53280,
          "time": 123.33321000000001,
          "velocity": 0.905511811023622
        },
        {
          "duration": 0.21759237499999529,
          "durationTicks": 94,
          "midi": 40,
          "name": "E2",
          "ticks": 53376,
          "time": 123.555432,
          "velocity": 0.905511811023622
        },
        {
          "duration": 0.21759237499999529,
          "durationTicks": 94,
          "midi": 40,
          "name": "E2",
          "ticks": 53472,
          "time": 123.777654,
          "velocity": 0.905511811023622
        },
        {
          "duration": 0.21759237499999529,
          "durationTicks": 94,
          "midi": 40,
          "name": "E2",
          "ticks": 53568,
          "time": 123.999876,
          "velocity": 0.905511811023622
        },
        {
          "duration": 0.21759237499999529,
          "durationTicks": 94,
          "midi": 40,
          "name": "E2",
          "ticks": 53664,
          "time": 124.222098,
          "velocity": 0.905511811023622
        },
        {
          "duration": 0.21759237499999529,
          "durationTicks": 94,
          "midi": 40,
          "name": "E2",
          "ticks": 53760,
          "time": 124.44432,
          "velocity": 0.905511811023622
        },
        {
          "duration": 0.21759237499998108,
          "durationTicks": 94,
          "midi": 40,
          "name": "E2",
          "ticks": 53856,
          "time": 124.666542,
          "velocity": 0.905511811023622
        },
        {
          "duration": 0.21759237499999529,
          "durationTicks": 94,
          "midi": 40,
          "name": "E2",
          "ticks": 53952,
          "time": 124.888764,
          "velocity": 0.905511811023622
        },
        {
          "duration": 0.21759237499999529,
          "durationTicks": 94,
          "midi": 40,
          "name": "E2",
          "ticks": 54048,
          "time": 125.110986,
          "velocity": 0.905511811023622
        },
        {
          "duration": 0.21759237499999529,
          "durationTicks": 94,
          "midi": 40,
          "name": "E2",
          "ticks": 54144,
          "time": 125.333208,
          "velocity": 0.905511811023622
        },
        {
          "duration": 0.21759237499999529,
          "durationTicks": 94,
          "midi": 40,
          "name": "E2",
          "ticks": 54240,
          "time": 125.55543,
          "velocity": 0.905511811023622
        },
        {
          "duration": 0.21759237499999529,
          "durationTicks": 94,
          "midi": 40,
          "name": "E2",
          "ticks": 54336,
          "time": 125.777652,
          "velocity": 0.905511811023622
        },
        {
          "duration": 0.21759237499998108,
          "durationTicks": 94,
          "midi": 40,
          "name": "E2",
          "ticks": 54432,
          "time": 125.999874,
          "velocity": 0.905511811023622
        },
        {
          "duration": 0.21759237499998108,
          "durationTicks": 94,
          "midi": 40,
          "name": "E2",
          "ticks": 54528,
          "time": 126.22209600000001,
          "velocity": 0.905511811023622
        },
        {
          "duration": 0.21759237499999529,
          "durationTicks": 94,
          "midi": 40,
          "name": "E2",
          "ticks": 54624,
          "time": 126.444318,
          "velocity": 0.905511811023622
        },
        {
          "duration": 0.21759237499999529,
          "durationTicks": 94,
          "midi": 40,
          "name": "E2",
          "ticks": 54720,
          "time": 126.66654,
          "velocity": 0.905511811023622
        },
        {
          "duration": 0.21759237499999529,
          "durationTicks": 94,
          "midi": 40,
          "name": "E2",
          "ticks": 54816,
          "time": 126.888762,
          "velocity": 0.905511811023622
        },
        {
          "duration": 0.21759237499999529,
          "durationTicks": 94,
          "midi": 40,
          "name": "E2",
          "ticks": 54912,
          "time": 127.110984,
          "velocity": 0.905511811023622
        },
        {
          "duration": 0.21759237499999529,
          "durationTicks": 94,
          "midi": 40,
          "name": "E2",
          "ticks": 55008,
          "time": 127.333206,
          "velocity": 0.905511811023622
        },
        {
          "duration": 0.21759237499998108,
          "durationTicks": 94,
          "midi": 40,
          "name": "E2",
          "ticks": 55104,
          "time": 127.555428,
          "velocity": 0.905511811023622
        },
        {
          "duration": 0.21759237499998108,
          "durationTicks": 94,
          "midi": 40,
          "name": "E2",
          "ticks": 55200,
          "time": 127.77765000000001,
          "velocity": 0.905511811023622
        },
        {
          "duration": 0.21759237499999529,
          "durationTicks": 94,
          "midi": 40,
          "name": "E2",
          "ticks": 55296,
          "time": 127.999872,
          "velocity": 0.905511811023622
        },
        {
          "duration": 0.21759237499998108,
          "durationTicks": 94,
          "midi": 40,
          "name": "E2",
          "ticks": 55392,
          "time": 128.222094,
          "velocity": 0.905511811023622
        },
        {
          "duration": 0.21759237499998108,
          "durationTicks": 94,
          "midi": 40,
          "name": "E2",
          "ticks": 55488,
          "time": 128.44431600000001,
          "velocity": 0.905511811023622
        },
        {
          "duration": 0.6620363750000138,
          "durationTicks": 286,
          "midi": 33,
          "name": "A1",
          "ticks": 55680,
          "time": 128.88876,
          "velocity": 0.905511811023622
        },
        {
          "duration": 0.21759237499998108,
          "durationTicks": 94,
          "midi": 45,
          "name": "A2",
          "ticks": 55968,
          "time": 129.555426,
          "velocity": 0.905511811023622
        },
        {
          "duration": 0.21759237499998108,
          "durationTicks": 94,
          "midi": 45,
          "name": "A2",
          "ticks": 56064,
          "time": 129.777648,
          "velocity": 0.905511811023622
        },
        {
          "duration": 0.439814374999969,
          "durationTicks": 190,
          "midi": 45,
          "name": "A2",
          "ticks": 56160,
          "time": 129.99987000000002,
          "velocity": 0.905511811023622
        },
        {
          "duration": 0.2175923750000095,
          "durationTicks": 94,
          "midi": 45,
          "name": "A2",
          "ticks": 56352,
          "time": 130.444314,
          "velocity": 0.905511811023622
        },
        {
          "duration": 0.4398143749999974,
          "durationTicks": 190,
          "midi": 45,
          "name": "A2",
          "ticks": 56448,
          "time": 130.666536,
          "velocity": 0.905511811023622
        },
        {
          "duration": 0.21759237499998108,
          "durationTicks": 94,
          "midi": 45,
          "name": "A2",
          "ticks": 56640,
          "time": 131.11098,
          "velocity": 0.905511811023622
        },
        {
          "duration": 0.21759237499998108,
          "durationTicks": 94,
          "midi": 45,
          "name": "A2",
          "ticks": 56736,
          "time": 131.333202,
          "velocity": 0.905511811023622
        },
        {
          "duration": 0.21759237499998108,
          "durationTicks": 94,
          "midi": 45,
          "name": "A2",
          "ticks": 56928,
          "time": 131.777646,
          "velocity": 0.905511811023622
        },
        {
          "duration": 0.4398143749999974,
          "durationTicks": 190,
          "midi": 45,
          "name": "A2",
          "ticks": 57024,
          "time": 131.999868,
          "velocity": 0.905511811023622
        },
        {
          "duration": 0.4398143749999974,
          "durationTicks": 190,
          "midi": 38,
          "name": "D2",
          "ticks": 57216,
          "time": 132.444312,
          "velocity": 0.905511811023622
        },
        {
          "duration": 0.21759237499998108,
          "durationTicks": 94,
          "midi": 38,
          "name": "D2",
          "ticks": 57408,
          "time": 132.888756,
          "velocity": 0.905511811023622
        },
        {
          "duration": 0.2175923750000095,
          "durationTicks": 94,
          "midi": 38,
          "name": "D2",
          "ticks": 57504,
          "time": 133.110978,
          "velocity": 0.905511811023622
        },
        {
          "duration": 0.2175923750000095,
          "durationTicks": 94,
          "midi": 38,
          "name": "D2",
          "ticks": 57696,
          "time": 133.555422,
          "velocity": 0.905511811023622
        },
        {
          "duration": 0.21759237499998108,
          "durationTicks": 94,
          "midi": 38,
          "name": "D2",
          "ticks": 57792,
          "time": 133.777644,
          "velocity": 0.905511811023622
        },
        {
          "duration": 0.439814374999969,
          "durationTicks": 190,
          "midi": 40,
          "name": "E2",
          "ticks": 57984,
          "time": 134.222088,
          "velocity": 0.905511811023622
        },
        {
          "duration": 0.2175923750000095,
          "durationTicks": 94,
          "midi": 40,
          "name": "E2",
          "ticks": 58176,
          "time": 134.666532,
          "velocity": 0.905511811023622
        },
        {
          "duration": 0.21759237499998108,
          "durationTicks": 94,
          "midi": 40,
          "name": "E2",
          "ticks": 58272,
          "time": 134.888754,
          "velocity": 0.905511811023622
        },
        {
          "duration": 0.21759237499998108,
          "durationTicks": 94,
          "midi": 40,
          "name": "E2",
          "ticks": 58464,
          "time": 135.333198,
          "velocity": 0.905511811023622
        },
        {
          "duration": 0.2175923750000095,
          "durationTicks": 94,
          "midi": 42,
          "name": "F#2",
          "ticks": 58560,
          "time": 135.55542,
          "velocity": 0.905511811023622
        },
        {
          "duration": 0.21759237499998108,
          "durationTicks": 94,
          "midi": 44,
          "name": "G#2",
          "ticks": 58656,
          "time": 135.77764200000001,
          "velocity": 0.905511811023622
        },
        {
          "duration": 0.4398143749999974,
          "durationTicks": 190,
          "midi": 45,
          "name": "A2",
          "ticks": 58752,
          "time": 135.999864,
          "velocity": 0.905511811023622
        },
        {
          "duration": 0.21759237499998108,
          "durationTicks": 94,
          "midi": 45,
          "name": "A2",
          "ticks": 58944,
          "time": 136.444308,
          "velocity": 0.905511811023622
        },
        {
          "duration": 0.2175923750000095,
          "durationTicks": 94,
          "midi": 45,
          "name": "A2",
          "ticks": 59040,
          "time": 136.66653,
          "velocity": 0.905511811023622
        },
        {
          "duration": 0.21759237499998108,
          "durationTicks": 94,
          "midi": 45,
          "name": "A2",
          "ticks": 59232,
          "time": 137.110974,
          "velocity": 0.905511811023622
        },
        {
          "duration": 0.21759237499998108,
          "durationTicks": 94,
          "midi": 45,
          "name": "A2",
          "ticks": 59424,
          "time": 137.555418,
          "velocity": 0.905511811023622
        },
        {
          "duration": 0.4398143749999974,
          "durationTicks": 190,
          "midi": 45,
          "name": "A2",
          "ticks": 59520,
          "time": 137.77764,
          "velocity": 0.905511811023622
        },
        {
          "duration": 0.2175923750000095,
          "durationTicks": 94,
          "midi": 45,
          "name": "A2",
          "ticks": 59712,
          "time": 138.222084,
          "velocity": 0.905511811023622
        },
        {
          "duration": 0.21759237499998108,
          "durationTicks": 94,
          "midi": 45,
          "name": "A2",
          "ticks": 59808,
          "time": 138.444306,
          "velocity": 0.905511811023622
        },
        {
          "duration": 0.21759237499998108,
          "durationTicks": 94,
          "midi": 42,
          "name": "F#2",
          "ticks": 60000,
          "time": 138.88875000000002,
          "velocity": 0.905511811023622
        },
        {
          "duration": 0.21759237499998108,
          "durationTicks": 94,
          "midi": 40,
          "name": "E2",
          "ticks": 60096,
          "time": 139.110972,
          "velocity": 0.905511811023622
        },
        {
          "duration": 0.2175923750000095,
          "durationTicks": 94,
          "midi": 37,
          "name": "C#2",
          "ticks": 60192,
          "time": 139.333194,
          "velocity": 0.905511811023622
        },
        {
          "duration": 0.4398143749999974,
          "durationTicks": 190,
          "midi": 38,
          "name": "D2",
          "ticks": 60288,
          "time": 139.555416,
          "velocity": 0.905511811023622
        },
        {
          "duration": 0.21759237499998108,
          "durationTicks": 94,
          "midi": 38,
          "name": "D2",
          "ticks": 60480,
          "time": 139.99986,
          "velocity": 0.905511811023622
        },
        {
          "duration": 0.21759237499998108,
          "durationTicks": 94,
          "midi": 38,
          "name": "D2",
          "ticks": 60576,
          "time": 140.222082,
          "velocity": 0.905511811023622
        },
        {
          "duration": 0.21759237499998108,
          "durationTicks": 94,
          "midi": 37,
          "name": "C#2",
          "ticks": 60768,
          "time": 140.666526,
          "velocity": 0.905511811023622
        },
        {
          "duration": 0.4398143749999974,
          "durationTicks": 190,
          "midi": 38,
          "name": "D2",
          "ticks": 60864,
          "time": 140.888748,
          "velocity": 0.905511811023622
        },
        {
          "duration": 0.4398143749999974,
          "durationTicks": 190,
          "midi": 40,
          "name": "E2",
          "ticks": 61056,
          "time": 141.333192,
          "velocity": 0.905511811023622
        },
        {
          "duration": 0.21759237499998108,
          "durationTicks": 94,
          "midi": 40,
          "name": "E2",
          "ticks": 61248,
          "time": 141.777636,
          "velocity": 0.905511811023622
        },
        {
          "duration": 0.2175923750000095,
          "durationTicks": 94,
          "midi": 40,
          "name": "E2",
          "ticks": 61344,
          "time": 141.999858,
          "velocity": 0.905511811023622
        },
        {
          "duration": 0.2175923750000095,
          "durationTicks": 94,
          "midi": 40,
          "name": "E2",
          "ticks": 61536,
          "time": 142.444302,
          "velocity": 0.905511811023622
        },
        {
          "duration": 0.21759237499998108,
          "durationTicks": 94,
          "midi": 42,
          "name": "F#2",
          "ticks": 61632,
          "time": 142.666524,
          "velocity": 0.905511811023622
        },
        {
          "duration": 0.2175923750000095,
          "durationTicks": 94,
          "midi": 44,
          "name": "G#2",
          "ticks": 61728,
          "time": 142.888746,
          "velocity": 0.905511811023622
        },
        {
          "duration": 0.439814374999969,
          "durationTicks": 190,
          "midi": 45,
          "name": "A2",
          "ticks": 61824,
          "time": 143.110968,
          "velocity": 0.905511811023622
        },
        {
          "duration": 0.2175923750000095,
          "durationTicks": 94,
          "midi": 45,
          "name": "A2",
          "ticks": 62016,
          "time": 143.555412,
          "velocity": 0.905511811023622
        },
        {
          "duration": 0.21759237499998108,
          "durationTicks": 94,
          "midi": 45,
          "name": "A2",
          "ticks": 62112,
          "time": 143.777634,
          "velocity": 0.905511811023622
        },
        {
          "duration": 0.21759237499998108,
          "durationTicks": 94,
          "midi": 45,
          "name": "A2",
          "ticks": 62304,
          "time": 144.222078,
          "velocity": 0.905511811023622
        },
        {
          "duration": 0.21759237499998108,
          "durationTicks": 94,
          "midi": 40,
          "name": "E2",
          "ticks": 62496,
          "time": 144.66652200000001,
          "velocity": 0.905511811023622
        },
        {
          "duration": 0.6620363749999854,
          "durationTicks": 286,
          "midi": 45,
          "name": "A2",
          "ticks": 62592,
          "time": 144.888744,
          "velocity": 0.905511811023622
        },
        {
          "duration": 0.2175923750000095,
          "durationTicks": 94,
          "midi": 45,
          "name": "A2",
          "ticks": 62880,
          "time": 145.55541,
          "velocity": 0.905511811023622
        },
        {
          "duration": 0.21759237499998108,
          "durationTicks": 94,
          "midi": 45,
          "name": "A2",
          "ticks": 62976,
          "time": 145.777632,
          "velocity": 0.905511811023622
        },
        {
          "duration": 0.21759237499998108,
          "durationTicks": 94,
          "midi": 42,
          "name": "F#2",
          "ticks": 63072,
          "time": 145.999854,
          "velocity": 0.905511811023622
        },
        {
          "duration": 0.21759237499998108,
          "durationTicks": 94,
          "midi": 40,
          "name": "E2",
          "ticks": 63168,
          "time": 146.22207600000002,
          "velocity": 0.905511811023622
        },
        {
          "duration": 0.21759237499998108,
          "durationTicks": 94,
          "midi": 37,
          "name": "C#2",
          "ticks": 63264,
          "time": 146.444298,
          "velocity": 0.905511811023622
        },
        {
          "duration": 0.6620363750000138,
          "durationTicks": 286,
          "midi": 38,
          "name": "D2",
          "ticks": 63360,
          "time": 146.66652,
          "velocity": 0.905511811023622
        },
        {
          "duration": 0.21759237499998108,
          "durationTicks": 94,
          "midi": 38,
          "name": "D2",
          "ticks": 63648,
          "time": 147.333186,
          "velocity": 0.905511811023622
        },
        {
          "duration": 0.6620363750000138,
          "durationTicks": 286,
          "midi": 38,
          "name": "D2",
          "ticks": 63840,
          "time": 147.77763,
          "velocity": 0.905511811023622
        },
        {
          "duration": 0.4398143749999974,
          "durationTicks": 190,
          "midi": 35,
          "name": "B1",
          "ticks": 64128,
          "time": 148.444296,
          "velocity": 0.905511811023622
        },
        {
          "duration": 0.21759237499998108,
          "durationTicks": 94,
          "midi": 35,
          "name": "B1",
          "ticks": 64320,
          "time": 148.88874,
          "velocity": 0.905511811023622
        },
        {
          "duration": 0.21759237499998108,
          "durationTicks": 94,
          "midi": 35,
          "name": "B1",
          "ticks": 64416,
          "time": 149.110962,
          "velocity": 0.905511811023622
        },
        {
          "duration": 0.2175923750000095,
          "durationTicks": 94,
          "midi": 35,
          "name": "B1",
          "ticks": 64512,
          "time": 149.333184,
          "velocity": 0.905511811023622
        },
        {
          "duration": 0.21759237499998108,
          "durationTicks": 94,
          "midi": 35,
          "name": "B1",
          "ticks": 64608,
          "time": 149.555406,
          "velocity": 0.905511811023622
        },
        {
          "duration": 0.2175923750000095,
          "durationTicks": 94,
          "midi": 37,
          "name": "C#2",
          "ticks": 64704,
          "time": 149.777628,
          "velocity": 0.905511811023622
        },
        {
          "duration": 0.21759237499998108,
          "durationTicks": 94,
          "midi": 39,
          "name": "D#2",
          "ticks": 64800,
          "time": 149.99985,
          "velocity": 0.905511811023622
        },
        {
          "duration": 0.2175923750000095,
          "durationTicks": 94,
          "midi": 33,
          "name": "A1",
          "ticks": 64896,
          "time": 150.222072,
          "velocity": 0.905511811023622
        },
        {
          "duration": 0.21759237499998108,
          "durationTicks": 94,
          "midi": 33,
          "name": "A1",
          "ticks": 64992,
          "time": 150.444294,
          "velocity": 0.905511811023622
        },
        {
          "duration": 0.21759237499998108,
          "durationTicks": 94,
          "midi": 33,
          "name": "A1",
          "ticks": 65088,
          "time": 150.666516,
          "velocity": 0.905511811023622
        },
        {
          "duration": 0.2175923750000095,
          "durationTicks": 94,
          "midi": 35,
          "name": "B1",
          "ticks": 65184,
          "time": 150.888738,
          "velocity": 0.905511811023622
        },
        {
          "duration": 0.21759237499998108,
          "durationTicks": 94,
          "midi": 37,
          "name": "C#2",
          "ticks": 65280,
          "time": 151.11096,
          "velocity": 0.905511811023622
        },
        {
          "duration": 0.2175923750000095,
          "durationTicks": 94,
          "midi": 40,
          "name": "E2",
          "ticks": 65376,
          "time": 151.333182,
          "velocity": 0.905511811023622
        },
        {
          "duration": 0.21759237499998108,
          "durationTicks": 94,
          "midi": 42,
          "name": "F#2",
          "ticks": 65472,
          "time": 151.555404,
          "velocity": 0.905511811023622
        },
        {
          "duration": 0.2175923750000095,
          "durationTicks": 94,
          "midi": 45,
          "name": "A2",
          "ticks": 65568,
          "time": 151.777626,
          "velocity": 0.905511811023622
        },
        {
          "duration": 0.6620363749999854,
          "durationTicks": 286,
          "midi": 38,
          "name": "D2",
          "ticks": 65664,
          "time": 151.99984800000001,
          "velocity": 0.905511811023622
        },
        {
          "duration": 0.6620363749999854,
          "durationTicks": 286,
          "midi": 37,
          "name": "C#2",
          "ticks": 65952,
          "time": 152.666514,
          "velocity": 0.905511811023622
        },
        {
          "duration": 0.6620363749999854,
          "durationTicks": 286,
          "midi": 35,
          "name": "B1",
          "ticks": 66240,
          "time": 153.33318,
          "velocity": 0.905511811023622
        },
        {
          "duration": 0.6620363750000138,
          "durationTicks": 286,
          "midi": 33,
          "name": "A1",
          "ticks": 66528,
          "time": 153.999846,
          "velocity": 0.905511811023622
        },
        {
          "duration": 0.21759237499998108,
          "durationTicks": 94,
          "midi": 28,
          "name": "E1",
          "ticks": 66816,
          "time": 154.666512,
          "velocity": 0.905511811023622
        },
        {
          "duration": 0.21759237499998108,
          "durationTicks": 94,
          "midi": 32,
          "name": "G#1",
          "ticks": 66912,
          "time": 154.888734,
          "velocity": 0.905511811023622
        },
        {
          "duration": 0.21759237499998108,
          "durationTicks": 94,
          "midi": 35,
          "name": "B1",
          "ticks": 67008,
          "time": 155.11095600000002,
          "velocity": 0.905511811023622
        },
        {
          "duration": 0.21759237499998108,
          "durationTicks": 94,
          "midi": 28,
          "name": "E1",
          "ticks": 67104,
          "time": 155.333178,
          "velocity": 0.905511811023622
        },
        {
          "duration": 0.4398143749999974,
          "durationTicks": 190,
          "midi": 45,
          "name": "A2",
          "ticks": 67200,
          "time": 155.5554,
          "velocity": 0.905511811023622
        },
        {
          "duration": 0.4398143749999974,
          "durationTicks": 190,
          "midi": 45,
          "name": "A2",
          "ticks": 67392,
          "time": 155.999844,
          "velocity": 0.905511811023622
        },
        {
          "duration": 0.21759237499998108,
          "durationTicks": 94,
          "midi": 45,
          "name": "A2",
          "ticks": 67584,
          "time": 156.444288,
          "velocity": 0.905511811023622
        },
        {
          "duration": 0.6620363750000138,
          "durationTicks": 286,
          "midi": 45,
          "name": "A2",
          "ticks": 67680,
          "time": 156.66651,
          "velocity": 0.905511811023622
        },
        {
          "duration": 0.4398143749999974,
          "durationTicks": 190,
          "midi": 45,
          "name": "A2",
          "ticks": 67968,
          "time": 157.333176,
          "velocity": 0.905511811023622
        },
        {
          "duration": 0.439814374999969,
          "durationTicks": 190,
          "midi": 45,
          "name": "A2",
          "ticks": 68160,
          "time": 157.77762,
          "velocity": 0.905511811023622
        },
        {
          "duration": 0.21759237499998108,
          "durationTicks": 94,
          "midi": 45,
          "name": "A2",
          "ticks": 68448,
          "time": 158.444286,
          "velocity": 0.905511811023622
        },
        {
          "duration": 0.2175923750000095,
          "durationTicks": 94,
          "midi": 45,
          "name": "A2",
          "ticks": 68544,
          "time": 158.666508,
          "velocity": 0.905511811023622
        },
        {
          "duration": 0.21759237499998108,
          "durationTicks": 94,
          "midi": 37,
          "name": "C#2",
          "ticks": 68640,
          "time": 158.88873,
          "velocity": 0.905511811023622
        },
        {
          "duration": 0.4398143749999974,
          "durationTicks": 190,
          "midi": 38,
          "name": "D2",
          "ticks": 68736,
          "time": 159.110952,
          "velocity": 0.905511811023622
        },
        {
          "duration": 0.4398143749999974,
          "durationTicks": 190,
          "midi": 38,
          "name": "D2",
          "ticks": 68928,
          "time": 159.555396,
          "velocity": 0.905511811023622
        },
        {
          "duration": 0.2175923750000095,
          "durationTicks": 94,
          "midi": 40,
          "name": "E2",
          "ticks": 69216,
          "time": 160.222062,
          "velocity": 0.905511811023622
        },
        {
          "duration": 0.21759237499998108,
          "durationTicks": 94,
          "midi": 38,
          "name": "D2",
          "ticks": 69312,
          "time": 160.444284,
          "velocity": 0.905511811023622
        },
        {
          "duration": 0.4398143749999974,
          "durationTicks": 190,
          "midi": 35,
          "name": "B1",
          "ticks": 69408,
          "time": 160.666506,
          "velocity": 0.905511811023622
        },
        {
          "duration": 0.21759237499998108,
          "durationTicks": 94,
          "midi": 35,
          "name": "B1",
          "ticks": 69600,
          "time": 161.11095,
          "velocity": 0.905511811023622
        },
        {
          "duration": 0.2175923750000095,
          "durationTicks": 94,
          "midi": 35,
          "name": "B1",
          "ticks": 69696,
          "time": 161.333172,
          "velocity": 0.905511811023622
        },
        {
          "duration": 0.21759237499998108,
          "durationTicks": 94,
          "midi": 35,
          "name": "B1",
          "ticks": 69792,
          "time": 161.555394,
          "velocity": 0.905511811023622
        },
        {
          "duration": 0.2175923750000095,
          "durationTicks": 94,
          "midi": 35,
          "name": "B1",
          "ticks": 69888,
          "time": 161.777616,
          "velocity": 0.905511811023622
        },
        {
          "duration": 0.21759237499998108,
          "durationTicks": 94,
          "midi": 35,
          "name": "B1",
          "ticks": 69984,
          "time": 161.999838,
          "velocity": 0.905511811023622
        },
        {
          "duration": 0.21759237499998108,
          "durationTicks": 94,
          "midi": 37,
          "name": "C#2",
          "ticks": 70080,
          "time": 162.22206,
          "velocity": 0.905511811023622
        },
        {
          "duration": 0.21759237499998108,
          "durationTicks": 94,
          "midi": 39,
          "name": "D#2",
          "ticks": 70176,
          "time": 162.44428200000002,
          "velocity": 0.905511811023622
        },
        {
          "duration": 0.21759237499998108,
          "durationTicks": 94,
          "midi": 33,
          "name": "A1",
          "ticks": 70272,
          "time": 162.666504,
          "velocity": 0.905511811023622
        },
        {
          "duration": 0.2175923750000095,
          "durationTicks": 94,
          "midi": 33,
          "name": "A1",
          "ticks": 70368,
          "time": 162.888726,
          "velocity": 0.905511811023622
        },
        {
          "duration": 0.21759237499998108,
          "durationTicks": 94,
          "midi": 33,
          "name": "A1",
          "ticks": 70464,
          "time": 163.110948,
          "velocity": 0.905511811023622
        },
        {
          "duration": 0.2175923750000095,
          "durationTicks": 94,
          "midi": 35,
          "name": "B1",
          "ticks": 70560,
          "time": 163.33317,
          "velocity": 0.905511811023622
        },
        {
          "duration": 0.21759237499998108,
          "durationTicks": 94,
          "midi": 37,
          "name": "C#2",
          "ticks": 70656,
          "time": 163.555392,
          "velocity": 0.905511811023622
        },
        {
          "duration": 0.21759237499998108,
          "durationTicks": 94,
          "midi": 40,
          "name": "E2",
          "ticks": 70752,
          "time": 163.777614,
          "velocity": 0.905511811023622
        },
        {
          "duration": 0.21759237499998108,
          "durationTicks": 94,
          "midi": 42,
          "name": "F#2",
          "ticks": 70848,
          "time": 163.99983600000002,
          "velocity": 0.905511811023622
        },
        {
          "duration": 0.21759237499998108,
          "durationTicks": 94,
          "midi": 45,
          "name": "A2",
          "ticks": 70944,
          "time": 164.222058,
          "velocity": 0.905511811023622
        },
        {
          "duration": 0.6620363750000138,
          "durationTicks": 286,
          "midi": 38,
          "name": "D2",
          "ticks": 71040,
          "time": 164.44428,
          "velocity": 0.905511811023622
        },
        {
          "duration": 0.6620363749999854,
          "durationTicks": 286,
          "midi": 37,
          "name": "C#2",
          "ticks": 71328,
          "time": 165.110946,
          "velocity": 0.905511811023622
        },
        {
          "duration": 0.6620363749999854,
          "durationTicks": 286,
          "midi": 35,
          "name": "B1",
          "ticks": 71616,
          "time": 165.777612,
          "velocity": 0.905511811023622
        },
        {
          "duration": 0.6620363749999854,
          "durationTicks": 286,
          "midi": 33,
          "name": "A1",
          "ticks": 71904,
          "time": 166.444278,
          "velocity": 0.905511811023622
        },
        {
          "duration": 0.2175923750000095,
          "durationTicks": 94,
          "midi": 28,
          "name": "E1",
          "ticks": 72192,
          "time": 167.110944,
          "velocity": 0.905511811023622
        },
        {
          "duration": 0.21759237499998108,
          "durationTicks": 94,
          "midi": 32,
          "name": "G#1",
          "ticks": 72288,
          "time": 167.333166,
          "velocity": 0.905511811023622
        },
        {
          "duration": 0.2175923750000095,
          "durationTicks": 94,
          "midi": 35,
          "name": "B1",
          "ticks": 72384,
          "time": 167.555388,
          "velocity": 0.905511811023622
        },
        {
          "duration": 0.21759237499998108,
          "durationTicks": 94,
          "midi": 28,
          "name": "E1",
          "ticks": 72480,
          "time": 167.77761,
          "velocity": 0.905511811023622
        },
        {
          "duration": 0.4398143749999974,
          "durationTicks": 190,
          "midi": 45,
          "name": "A2",
          "ticks": 72576,
          "time": 167.999832,
          "velocity": 0.905511811023622
        },
        {
          "duration": 0.21759237499998108,
          "durationTicks": 94,
          "midi": 45,
          "name": "A2",
          "ticks": 72768,
          "time": 168.444276,
          "velocity": 0.905511811023622
        },
        {
          "duration": 0.4398143749999974,
          "durationTicks": 190,
          "midi": 42,
          "name": "F#2",
          "ticks": 72864,
          "time": 168.666498,
          "velocity": 0.905511811023622
        },
        {
          "duration": 0.2175923750000095,
          "durationTicks": 94,
          "midi": 40,
          "name": "E2",
          "ticks": 73056,
          "time": 169.110942,
          "velocity": 0.905511811023622
        },
        {
          "duration": 0.439814374999969,
          "durationTicks": 190,
          "midi": 37,
          "name": "C#2",
          "ticks": 73152,
          "time": 169.333164,
          "velocity": 0.905511811023622
        },
        {
          "duration": 0.6620363749999854,
          "durationTicks": 286,
          "midi": 38,
          "name": "D2",
          "ticks": 73344,
          "time": 169.77760800000001,
          "velocity": 0.905511811023622
        },
        {
          "duration": 0.6620363749999854,
          "durationTicks": 286,
          "midi": 37,
          "name": "C#2",
          "ticks": 73632,
          "time": 170.444274,
          "velocity": 0.905511811023622
        },
        {
          "duration": 0.6620363749999854,
          "durationTicks": 286,
          "midi": 35,
          "name": "B1",
          "ticks": 73920,
          "time": 171.11094,
          "velocity": 0.905511811023622
        },
        {
          "duration": 0.6620363750000138,
          "durationTicks": 286,
          "midi": 33,
          "name": "A1",
          "ticks": 74208,
          "time": 171.777606,
          "velocity": 0.905511811023622
        },
        {
          "duration": 0.21759237499998108,
          "durationTicks": 94,
          "midi": 28,
          "name": "E1",
          "ticks": 74496,
          "time": 172.444272,
          "velocity": 0.905511811023622
        },
        {
          "duration": 0.21759237499998108,
          "durationTicks": 94,
          "midi": 32,
          "name": "G#1",
          "ticks": 74592,
          "time": 172.666494,
          "velocity": 0.905511811023622
        },
        {
          "duration": 0.2175923750000095,
          "durationTicks": 94,
          "midi": 35,
          "name": "B1",
          "ticks": 74688,
          "time": 172.888716,
          "velocity": 0.905511811023622
        },
        {
          "duration": 0.21759237499998108,
          "durationTicks": 94,
          "midi": 28,
          "name": "E1",
          "ticks": 74784,
          "time": 173.110938,
          "velocity": 0.905511811023622
        },
        {
          "duration": 0.2175923750000095,
          "durationTicks": 94,
          "midi": 36,
          "name": "C2",
          "ticks": 74880,
          "time": 173.33316,
          "velocity": 0.905511811023622
        }
      ]
    },
    {
      "channel": 0,
      "controlChanges": {
        "0": [
          {
            "number": 0,
            "ticks": 192,
            "time": 0.444444,
            "value": 0
          }
        ],
        "7": [
          {
            "number": 7,
            "ticks": 0,
            "time": 0,
            "value": 0.7874015748031497
          },
          {
            "number": 7,
            "ticks": 192,
            "time": 0.444444,
            "value": 0.7086614173228346
          }
        ],
        "10": [
          {
            "number": 10,
            "ticks": 192,
            "time": 0.444444,
            "value": 0.5511811023622047
          }
        ],
        "91": [
          {
            "number": 91,
            "ticks": 192,
            "time": 0.444444,
            "value": 0.5039370078740157
          }
        ],
        "93": [
          {
            "number": 93,
            "ticks": 192,
            "time": 0.444444,
            "value": 0
          }
        ]
      },
      "pitchBends": [],
      "instrument": {
        "family": "piano",
        "number": 0,
        "name": "acoustic grand piano"
      },
      "name": "Strings",
      "notes": [],
      "endOfTrackTicks": 78494
    },
    {
      "channel": 2,
      "controlChanges": {
        "7": [
          {
            "number": 7,
            "ticks": 75072,
            "time": 173.777604,
            "value": 0.7086614173228346
          },
          {
            "number": 7,
            "ticks": 75106,
            "time": 173.856307625,
            "value": 0.7007874015748031
          },
          {
            "number": 7,
            "ticks": 75140,
            "time": 173.93501125,
            "value": 0.6929133858267716
          },
          {
            "number": 7,
            "ticks": 75176,
            "time": 174.0183445,
            "value": 0.6850393700787402
          },
          {
            "number": 7,
            "ticks": 75210,
            "time": 174.09704812500001,
            "value": 0.6771653543307087
          },
          {
            "number": 7,
            "ticks": 75244,
            "time": 174.17575175,
            "value": 0.6692913385826772
          },
          {
            "number": 7,
            "ticks": 75278,
            "time": 174.25445537500002,
            "value": 0.6614173228346457
          },
          {
            "number": 7,
            "ticks": 75314,
            "time": 174.337788625,
            "value": 0.6535433070866141
          },
          {
            "number": 7,
            "ticks": 75348,
            "time": 174.41649225,
            "value": 0.6456692913385826
          },
          {
            "number": 7,
            "ticks": 75382,
            "time": 174.495195875,
            "value": 0.6377952755905512
          },
          {
            "number": 7,
            "ticks": 75418,
            "time": 174.578529125,
            "value": 0.6377952755905512
          },
          {
            "number": 7,
            "ticks": 75452,
            "time": 174.65723275000002,
            "value": 0.6299212598425197
          },
          {
            "number": 7,
            "ticks": 75486,
            "time": 174.735936375,
            "value": 0.6220472440944882
          },
          {
            "number": 7,
            "ticks": 75520,
            "time": 174.81464,
            "value": 0.6141732283464567
          },
          {
            "number": 7,
            "ticks": 75556,
            "time": 174.89797325,
            "value": 0.6062992125984252
          },
          {
            "number": 7,
            "ticks": 75590,
            "time": 174.976676875,
            "value": 0.5984251968503937
          },
          {
            "number": 7,
            "ticks": 75624,
            "time": 175.0553805,
            "value": 0.5905511811023622
          },
          {
            "number": 7,
            "ticks": 75660,
            "time": 175.13871375,
            "value": 0.5826771653543307
          },
          {
            "number": 7,
            "ticks": 75694,
            "time": 175.217417375,
            "value": 0.5748031496062992
          },
          {
            "number": 7,
            "ticks": 75728,
            "time": 175.296121,
            "value": 0.5669291338582677
          },
          {
            "number": 7,
            "ticks": 75762,
            "time": 175.374824625,
            "value": 0.5669291338582677
          },
          {
            "number": 7,
            "ticks": 75798,
            "time": 175.458157875,
            "value": 0.5590551181102362
          },
          {
            "number": 7,
            "ticks": 75832,
            "time": 175.5368615,
            "value": 0.5511811023622047
          },
          {
            "number": 7,
            "ticks": 75866,
            "time": 175.61556512500002,
            "value": 0.5433070866141733
          },
          {
            "number": 7,
            "ticks": 75902,
            "time": 175.698898375,
            "value": 0.5354330708661418
          },
          {
            "number": 7,
            "ticks": 75936,
            "time": 175.777602,
            "value": 0.5275590551181102
          },
          {
            "number": 7,
            "ticks": 75970,
            "time": 175.856305625,
            "value": 0.5196850393700787
          },
          {
            "number": 7,
            "ticks": 76004,
            "time": 175.93500925,
            "value": 0.5118110236220472
          },
          {
            "number": 7,
            "ticks": 76040,
            "time": 176.01834250000002,
            "value": 0.5039370078740157
          },
          {
            "number": 7,
            "ticks": 76074,
            "time": 176.097046125,
            "value": 0.49606299212598426
          },
          {
            "number": 7,
            "ticks": 76108,
            "time": 176.17574975,
            "value": 0.49606299212598426
          },
          {
            "number": 7,
            "ticks": 76142,
            "time": 176.254453375,
            "value": 0.4881889763779528
          },
          {
            "number": 7,
            "ticks": 76178,
            "time": 176.337786625,
            "value": 0.48031496062992124
          },
          {
            "number": 7,
            "ticks": 76212,
            "time": 176.41649025,
            "value": 0.47244094488188976
          },
          {
            "number": 7,
            "ticks": 76246,
            "time": 176.49519387499998,
            "value": 0.4645669291338583
          },
          {
            "number": 7,
            "ticks": 76282,
            "time": 176.578527125,
            "value": 0.4566929133858268
          },
          {
            "number": 7,
            "ticks": 76316,
            "time": 176.65723075,
            "value": 0.44881889763779526
          },
          {
            "number": 7,
            "ticks": 76350,
            "time": 176.735934375,
            "value": 0.4409448818897638
          },
          {
            "number": 7,
            "ticks": 76384,
            "time": 176.814638,
            "value": 0.4330708661417323
          },
          {
            "number": 7,
            "ticks": 76420,
            "time": 176.89797124999998,
            "value": 0.4251968503937008
          },
          {
            "number": 7,
            "ticks": 76454,
            "time": 176.97667487500001,
            "value": 0.4251968503937008
          },
          {
            "number": 7,
            "ticks": 76488,
            "time": 177.0553785,
            "value": 0.41732283464566927
          },
          {
            "number": 7,
            "ticks": 76524,
            "time": 177.13871175,
            "value": 0.4094488188976378
          },
          {
            "number": 7,
            "ticks": 76558,
            "time": 177.217415375,
            "value": 0.4015748031496063
          },
          {
            "number": 7,
            "ticks": 76592,
            "time": 177.296119,
            "value": 0.3937007874015748
          },
          {
            "number": 7,
            "ticks": 76626,
            "time": 177.374822625,
            "value": 0.3858267716535433
          },
          {
            "number": 7,
            "ticks": 76662,
            "time": 177.458155875,
            "value": 0.3779527559055118
          },
          {
            "number": 7,
            "ticks": 76696,
            "time": 177.5368595,
            "value": 0.3700787401574803
          },
          {
            "number": 7,
            "ticks": 76730,
            "time": 177.61556312500002,
            "value": 0.36220472440944884
          },
          {
            "number": 7,
            "ticks": 76766,
            "time": 177.698896375,
            "value": 0.3543307086614173
          },
          {
            "number": 7,
            "ticks": 76800,
            "time": 177.7776,
            "value": 0.3543307086614173
          },
          {
            "number": 7,
            "ticks": 76834,
            "time": 177.85630362499998,
            "value": 0.3464566929133858
          },
          {
            "number": 7,
            "ticks": 76868,
            "time": 177.93500725,
            "value": 0.33858267716535434
          },
          {
            "number": 7,
            "ticks": 76904,
            "time": 178.01834050000002,
            "value": 0.33070866141732286
          },
          {
            "number": 7,
            "ticks": 76938,
            "time": 178.097044125,
            "value": 0.3228346456692913
          },
          {
            "number": 7,
            "ticks": 76972,
            "time": 178.17574775,
            "value": 0.31496062992125984
          },
          {
            "number": 7,
            "ticks": 77006,
            "time": 178.254451375,
            "value": 0.30708661417322836
          },
          {
            "number": 7,
            "ticks": 77042,
            "time": 178.337784625,
            "value": 0.2992125984251969
          },
          {
            "number": 7,
            "ticks": 77076,
            "time": 178.41648825000001,
            "value": 0.29133858267716534
          },
          {
            "number": 7,
            "ticks": 77110,
            "time": 178.495191875,
            "value": 0.28346456692913385
          },
          {
            "number": 7,
            "ticks": 77146,
            "time": 178.578525125,
            "value": 0.28346456692913385
          },
          {
            "number": 7,
            "ticks": 77180,
            "time": 178.65722875,
            "value": 0.2755905511811024
          },
          {
            "number": 7,
            "ticks": 77214,
            "time": 178.735932375,
            "value": 0.2677165354330709
          },
          {
            "number": 7,
            "ticks": 77248,
            "time": 178.814636,
            "value": 0.25984251968503935
          },
          {
            "number": 7,
            "ticks": 77284,
            "time": 178.89796925,
            "value": 0.25196850393700787
          },
          {
            "number": 7,
            "ticks": 77318,
            "time": 178.97667287500002,
            "value": 0.2440944881889764
          },
          {
            "number": 7,
            "ticks": 77352,
            "time": 179.0553765,
            "value": 0.23622047244094488
          },
          {
            "number": 7,
            "ticks": 77388,
            "time": 179.13870975,
            "value": 0.2283464566929134
          },
          {
            "number": 7,
            "ticks": 77422,
            "time": 179.217413375,
            "value": 0.2204724409448819
          },
          {
            "number": 7,
            "ticks": 77456,
            "time": 179.296117,
            "value": 0.2125984251968504
          },
          {
            "number": 7,
            "ticks": 77490,
            "time": 179.374820625,
            "value": 0.2125984251968504
          },
          {
            "number": 7,
            "ticks": 77526,
            "time": 179.458153875,
            "value": 0.2047244094488189
          },
          {
            "number": 7,
            "ticks": 77560,
            "time": 179.5368575,
            "value": 0.1968503937007874
          },
          {
            "number": 7,
            "ticks": 77594,
            "time": 179.615561125,
            "value": 0.1889763779527559
          },
          {
            "number": 7,
            "ticks": 77630,
            "time": 179.698894375,
            "value": 0.18110236220472442
          },
          {
            "number": 7,
            "ticks": 77664,
            "time": 179.777598,
            "value": 0.1732283464566929
          },
          {
            "number": 7,
            "ticks": 77698,
            "time": 179.856301625,
            "value": 0.16535433070866143
          },
          {
            "number": 7,
            "ticks": 77732,
            "time": 179.93500525000002,
            "value": 0.15748031496062992
          },
          {
            "number": 7,
            "ticks": 77768,
            "time": 180.0183385,
            "value": 0.14960629921259844
          },
          {
            "number": 7,
            "ticks": 77802,
            "time": 180.097042125,
            "value": 0.14173228346456693
          },
          {
            "number": 7,
            "ticks": 77836,
            "time": 180.17574575,
            "value": 0.14173228346456693
          },
          {
            "number": 7,
            "ticks": 77870,
            "time": 180.254449375,
            "value": 0.13385826771653545
          },
          {
            "number": 7,
            "ticks": 77906,
            "time": 180.33778262500002,
            "value": 0.12598425196850394
          },
          {
            "number": 7,
            "ticks": 77940,
            "time": 180.41648625,
            "value": 0.11811023622047244
          },
          {
            "number": 7,
            "ticks": 77974,
            "time": 180.495189875,
            "value": 0.11023622047244094
          },
          {
            "number": 7,
            "ticks": 78010,
            "time": 180.578523125,
            "value": 0.10236220472440945
          },
          {
            "number": 7,
            "ticks": 78044,
            "time": 180.65722675,
            "value": 0.09448818897637795
          },
          {
            "number": 7,
            "ticks": 78078,
            "time": 180.735930375,
            "value": 0.08661417322834646
          },
          {
            "number": 7,
            "ticks": 78112,
            "time": 180.81463399999998,
            "value": 0.07874015748031496
          },
          {
            "number": 7,
            "ticks": 78148,
            "time": 180.89796725,
            "value": 0.07086614173228346
          },
          {
            "number": 7,
            "ticks": 78182,
            "time": 180.97667087500002,
            "value": 0.07086614173228346
          },
          {
            "number": 7,
            "ticks": 78216,
            "time": 181.0553745,
            "value": 0.06299212598425197
          },
          {
            "number": 7,
            "ticks": 78252,
            "time": 181.13870775,
            "value": 0.05511811023622047
          },
          {
            "number": 7,
            "ticks": 78286,
            "time": 181.21741137499998,
            "value": 0.047244094488188976
          },
          {
            "number": 7,
            "ticks": 78320,
            "time": 181.29611500000001,
            "value": 0.03937007874015748
          },
          {
            "number": 7,
            "ticks": 78354,
            "time": 181.374818625,
            "value": 0.031496062992125984
          },
          {
            "number": 7,
            "ticks": 78390,
            "time": 181.458151875,
            "value": 0.023622047244094488
          },
          {
            "number": 7,
            "ticks": 78424,
            "time": 181.5368555,
            "value": 0.015748031496062992
          },
          {
            "number": 7,
            "ticks": 78458,
            "time": 181.615559125,
            "value": 0.007874015748031496
          },
          {
            "number": 7,
            "ticks": 78494,
            "time": 181.698892375,
            "value": 0
          }
        ]
      },
      "pitchBends": [],
      "instrument": {
        "family": "ensemble",
        "number": 48,
        "name": "string ensemble 1"
      },
      "name": "",
      "notes": [
        {
          "duration": 0.21759237499999973,
          "durationTicks": 94,
          "midi": 69,
          "name": "A4",
          "ticks": 3456,
          "time": 7.999992,
          "velocity": 0.7874015748031497
        },
        {
          "duration": 0.439814375000001,
          "durationTicks": 190,
          "midi": 68,
          "name": "G#4",
          "ticks": 3552,
          "time": 8.222214,
          "velocity": 0.7874015748031497
        },
        {
          "duration": 0.21759237499999884,
          "durationTicks": 94,
          "midi": 68,
          "name": "G#4",
          "ticks": 3744,
          "time": 8.666658,
          "velocity": 0.7874015748031497
        },
        {
          "duration": 0.21759237500000062,
          "durationTicks": 94,
          "midi": 73,
          "name": "C#5",
          "ticks": 4032,
          "time": 9.333324,
          "velocity": 0.7874015748031497
        },
        {
          "duration": 0.21759237500000062,
          "durationTicks": 94,
          "midi": 69,
          "name": "A4",
          "ticks": 4128,
          "time": 9.555546,
          "velocity": 0.7874015748031497
        },
        {
          "duration": 0.21759237499999884,
          "durationTicks": 94,
          "midi": 71,
          "name": "B4",
          "ticks": 4224,
          "time": 9.777768,
          "velocity": 0.7874015748031497
        },
        {
          "duration": 0.4398143749999992,
          "durationTicks": 190,
          "midi": 73,
          "name": "C#5",
          "ticks": 4320,
          "time": 9.99999,
          "velocity": 0.7874015748031497
        },
        {
          "duration": 0.6620363749999996,
          "durationTicks": 286,
          "midi": 69,
          "name": "A4",
          "ticks": 4512,
          "time": 10.444434,
          "velocity": 0.7874015748031497
        },
        {
          "duration": 0.21759237499999884,
          "durationTicks": 94,
          "midi": 73,
          "name": "C#5",
          "ticks": 4800,
          "time": 11.1111,
          "velocity": 0.7874015748031497
        },
        {
          "duration": 0.4398143749999992,
          "durationTicks": 190,
          "midi": 71,
          "name": "B4",
          "ticks": 4896,
          "time": 11.333322,
          "velocity": 0.7874015748031497
        },
        {
          "duration": 0.4398143749999992,
          "durationTicks": 190,
          "midi": 69,
          "name": "A4",
          "ticks": 5088,
          "time": 11.777766,
          "velocity": 0.7874015748031497
        },
        {
          "duration": 0.4398143749999992,
          "durationTicks": 190,
          "midi": 66,
          "name": "F#4",
          "ticks": 5280,
          "time": 12.22221,
          "velocity": 0.7874015748031497
        },
        {
          "duration": 0.439814375000001,
          "durationTicks": 190,
          "midi": 73,
          "name": "C#5",
          "ticks": 5472,
          "time": 12.666654,
          "velocity": 0.7874015748031497
        },
        {
          "duration": 0.4398143749999992,
          "durationTicks": 190,
          "midi": 71,
          "name": "B4",
          "ticks": 5664,
          "time": 13.111098,
          "velocity": 0.7874015748031497
        },
        {
          "duration": 0.4398143749999992,
          "durationTicks": 190,
          "midi": 69,
          "name": "A4",
          "ticks": 5856,
          "time": 13.555542,
          "velocity": 0.7874015748031497
        },
        {
          "duration": 1.9953683750000017,
          "durationTicks": 862,
          "midi": 68,
          "name": "G#4",
          "ticks": 6048,
          "time": 13.999986,
          "velocity": 0.7874015748031497
        },
        {
          "duration": 1.7731463750000032,
          "durationTicks": 766,
          "midi": 74,
          "name": "D5",
          "ticks": 19968,
          "time": 46.222176,
          "velocity": 0.7874015748031497
        },
        {
          "duration": 1.7731463750000032,
          "durationTicks": 766,
          "midi": 78,
          "name": "F#5",
          "ticks": 19968,
          "time": 46.222176,
          "velocity": 0.7874015748031497
        },
        {
          "duration": 1.773146374999996,
          "durationTicks": 766,
          "midi": 71,
          "name": "B4",
          "ticks": 20736,
          "time": 47.999952,
          "velocity": 0.7874015748031497
        },
        {
          "duration": 1.773146374999996,
          "durationTicks": 766,
          "midi": 75,
          "name": "D#5",
          "ticks": 20736,
          "time": 47.999952,
          "velocity": 0.7874015748031497
        },
        {
          "duration": 1.773146374999996,
          "durationTicks": 766,
          "midi": 76,
          "name": "E5",
          "ticks": 21504,
          "time": 49.777728,
          "velocity": 0.7874015748031497
        },
        {
          "duration": 0.6620363749999996,
          "durationTicks": 286,
          "midi": 66,
          "name": "F#4",
          "ticks": 22272,
          "time": 51.555504,
          "velocity": 0.7874015748031497
        },
        {
          "duration": 0.6620363749999996,
          "durationTicks": 286,
          "midi": 64,
          "name": "E4",
          "ticks": 22560,
          "time": 52.22217,
          "velocity": 0.7874015748031497
        },
        {
          "duration": 0.6620363749999996,
          "durationTicks": 286,
          "midi": 62,
          "name": "D4",
          "ticks": 22848,
          "time": 52.888836,
          "velocity": 0.7874015748031497
        },
        {
          "duration": 0.6620363749999925,
          "durationTicks": 286,
          "midi": 64,
          "name": "E4",
          "ticks": 23136,
          "time": 53.555502000000004,
          "velocity": 0.7874015748031497
        },
        {
          "duration": 0.4398143749999974,
          "durationTicks": 190,
          "midi": 52,
          "name": "E3",
          "ticks": 23424,
          "time": 54.222168,
          "velocity": 0.7874015748031497
        },
        {
          "duration": 0.4398143749999974,
          "durationTicks": 190,
          "midi": 52,
          "name": "E3",
          "ticks": 23616,
          "time": 54.666612,
          "velocity": 0.7874015748031497
        },
        {
          "duration": 0.2175923750000024,
          "durationTicks": 94,
          "midi": 73,
          "name": "C#5",
          "ticks": 25536,
          "time": 59.111052,
          "velocity": 0.7874015748031497
        },
        {
          "duration": 0.2175923750000024,
          "durationTicks": 94,
          "midi": 69,
          "name": "A4",
          "ticks": 25632,
          "time": 59.333274,
          "velocity": 0.7874015748031497
        },
        {
          "duration": 0.2175923750000095,
          "durationTicks": 94,
          "midi": 71,
          "name": "B4",
          "ticks": 25728,
          "time": 59.555496,
          "velocity": 0.7874015748031497
        },
        {
          "duration": 0.43981437500000453,
          "durationTicks": 190,
          "midi": 73,
          "name": "C#5",
          "ticks": 25824,
          "time": 59.777718,
          "velocity": 0.7874015748031497
        },
        {
          "duration": 0.6620363750000067,
          "durationTicks": 286,
          "midi": 69,
          "name": "A4",
          "ticks": 26016,
          "time": 60.222162,
          "velocity": 0.7874015748031497
        },
        {
          "duration": 0.2175923750000024,
          "durationTicks": 94,
          "midi": 73,
          "name": "C#5",
          "ticks": 26304,
          "time": 60.888828000000004,
          "velocity": 0.7874015748031497
        },
        {
          "duration": 0.43981437500000453,
          "durationTicks": 190,
          "midi": 71,
          "name": "B4",
          "ticks": 26400,
          "time": 61.11105,
          "velocity": 0.7874015748031497
        },
        {
          "duration": 0.43981437500000453,
          "durationTicks": 190,
          "midi": 69,
          "name": "A4",
          "ticks": 26592,
          "time": 61.555494,
          "velocity": 0.7874015748031497
        },
        {
          "duration": 0.43981437500000453,
          "durationTicks": 190,
          "midi": 66,
          "name": "F#4",
          "ticks": 26784,
          "time": 61.999938,
          "velocity": 0.7874015748031497
        },
        {
          "duration": 0.43981437500000453,
          "durationTicks": 190,
          "midi": 69,
          "name": "A4",
          "ticks": 26976,
          "time": 62.444382,
          "velocity": 0.7874015748031497
        },
        {
          "duration": 0.43981437500000453,
          "durationTicks": 190,
          "midi": 71,
          "name": "B4",
          "ticks": 27168,
          "time": 62.888826,
          "velocity": 0.7874015748031497
        },
        {
          "duration": 0.43981437500000453,
          "durationTicks": 190,
          "midi": 69,
          "name": "A4",
          "ticks": 27360,
          "time": 63.33327,
          "velocity": 0.7874015748031497
        },
        {
          "duration": 0.2175923750000024,
          "durationTicks": 94,
          "midi": 66,
          "name": "F#4",
          "ticks": 27552,
          "time": 63.777714,
          "velocity": 0.7874015748031497
        },
        {
          "duration": 0.2175923750000024,
          "durationTicks": 94,
          "midi": 68,
          "name": "G#4",
          "ticks": 27648,
          "time": 63.999936,
          "velocity": 0.7874015748031497
        },
        {
          "duration": 0.21759237499999529,
          "durationTicks": 94,
          "midi": 66,
          "name": "F#4",
          "ticks": 27744,
          "time": 64.22215800000001,
          "velocity": 0.7874015748031497
        },
        {
          "duration": 0.2175923750000095,
          "durationTicks": 94,
          "midi": 68,
          "name": "G#4",
          "ticks": 27840,
          "time": 64.44438,
          "velocity": 0.7874015748031497
        },
        {
          "duration": 0.43981437500001164,
          "durationTicks": 190,
          "midi": 69,
          "name": "A4",
          "ticks": 27936,
          "time": 64.666602,
          "velocity": 0.7874015748031497
        },
        {
          "duration": 0.6620363749999996,
          "durationTicks": 286,
          "midi": 71,
          "name": "B4",
          "ticks": 28128,
          "time": 65.111046,
          "velocity": 0.7874015748031497
        },
        {
          "duration": 0.43981437500001164,
          "durationTicks": 190,
          "midi": 69,
          "name": "A4",
          "ticks": 28416,
          "time": 65.777712,
          "velocity": 0.7874015748031497
        },
        {
          "duration": 0.2175923750000095,
          "durationTicks": 94,
          "midi": 73,
          "name": "C#5",
          "ticks": 28608,
          "time": 66.222156,
          "velocity": 0.7874015748031497
        },
        {
          "duration": 0.2175923750000095,
          "durationTicks": 94,
          "midi": 69,
          "name": "A4",
          "ticks": 28704,
          "time": 66.444378,
          "velocity": 0.7874015748031497
        },
        {
          "duration": 0.2175923750000095,
          "durationTicks": 94,
          "midi": 71,
          "name": "B4",
          "ticks": 28800,
          "time": 66.6666,
          "velocity": 0.7874015748031497
        },
        {
          "duration": 0.4398143749999974,
          "durationTicks": 190,
          "midi": 73,
          "name": "C#5",
          "ticks": 28896,
          "time": 66.888822,
          "velocity": 0.7874015748031497
        },
        {
          "duration": 0.6620363750000138,
          "durationTicks": 286,
          "midi": 69,
          "name": "A4",
          "ticks": 29088,
          "time": 67.333266,
          "velocity": 0.7874015748031497
        },
        {
          "duration": 0.2175923750000095,
          "durationTicks": 94,
          "midi": 73,
          "name": "C#5",
          "ticks": 29376,
          "time": 67.999932,
          "velocity": 0.7874015748031497
        },
        {
          "duration": 0.4398143749999974,
          "durationTicks": 190,
          "midi": 71,
          "name": "B4",
          "ticks": 29472,
          "time": 68.222154,
          "velocity": 0.7874015748031497
        },
        {
          "duration": 0.4398143749999974,
          "durationTicks": 190,
          "midi": 69,
          "name": "A4",
          "ticks": 29664,
          "time": 68.66659800000001,
          "velocity": 0.7874015748031497
        },
        {
          "duration": 0.43981437500001164,
          "durationTicks": 190,
          "midi": 66,
          "name": "F#4",
          "ticks": 29856,
          "time": 69.111042,
          "velocity": 0.7874015748031497
        },
        {
          "duration": 0.4398143749999974,
          "durationTicks": 190,
          "midi": 73,
          "name": "C#5",
          "ticks": 30048,
          "time": 69.555486,
          "velocity": 0.7874015748031497
        },
        {
          "duration": 0.4398143749999974,
          "durationTicks": 190,
          "midi": 71,
          "name": "B4",
          "ticks": 30240,
          "time": 69.99993,
          "velocity": 0.7874015748031497
        },
        {
          "duration": 0.43981437500001164,
          "durationTicks": 190,
          "midi": 69,
          "name": "A4",
          "ticks": 30432,
          "time": 70.444374,
          "velocity": 0.7874015748031497
        },
        {
          "duration": 1.1064803750000038,
          "durationTicks": 478,
          "midi": 68,
          "name": "G#4",
          "ticks": 30624,
          "time": 70.888818,
          "velocity": 0.7874015748031497
        },
        {
          "duration": 0.2175923750000095,
          "durationTicks": 94,
          "midi": 81,
          "name": "A5",
          "ticks": 32448,
          "time": 75.111036,
          "velocity": 0.7874015748031497
        },
        {
          "duration": 0.2175923750000095,
          "durationTicks": 94,
          "midi": 76,
          "name": "E5",
          "ticks": 32448,
          "time": 75.111036,
          "velocity": 0.7874015748031497
        },
        {
          "duration": 0.2175923750000095,
          "durationTicks": 94,
          "midi": 85,
          "name": "C#6",
          "ticks": 32448,
          "time": 75.111036,
          "velocity": 0.7874015748031497
        },
        {
          "duration": 0.2175923750000095,
          "durationTicks": 94,
          "midi": 73,
          "name": "C#5",
          "ticks": 32448,
          "time": 75.111036,
          "velocity": 0.7874015748031497
        },
        {
          "duration": 0.2175923750000095,
          "durationTicks": 94,
          "midi": 76,
          "name": "E5",
          "ticks": 32544,
          "time": 75.333258,
          "velocity": 0.7874015748031497
        },
        {
          "duration": 0.2175923750000095,
          "durationTicks": 94,
          "midi": 81,
          "name": "A5",
          "ticks": 32544,
          "time": 75.333258,
          "velocity": 0.7874015748031497
        },
        {
          "duration": 0.2175923750000095,
          "durationTicks": 94,
          "midi": 73,
          "name": "C#5",
          "ticks": 32544,
          "time": 75.333258,
          "velocity": 0.7874015748031497
        },
        {
          "duration": 0.21759237499999529,
          "durationTicks": 94,
          "midi": 83,
          "name": "B5",
          "ticks": 32640,
          "time": 75.55548,
          "velocity": 0.7874015748031497
        },
        {
          "duration": 0.21759237499999529,
          "durationTicks": 94,
          "midi": 73,
          "name": "C#5",
          "ticks": 32640,
          "time": 75.55548,
          "velocity": 0.7874015748031497
        },
        {
          "duration": 0.21759237499999529,
          "durationTicks": 94,
          "midi": 76,
          "name": "E5",
          "ticks": 32640,
          "time": 75.55548,
          "velocity": 0.7874015748031497
        },
        {
          "duration": 0.21759237499999529,
          "durationTicks": 94,
          "midi": 81,
          "name": "A5",
          "ticks": 32640,
          "time": 75.55548,
          "velocity": 0.7874015748031497
        },
        {
          "duration": 0.4398143749999974,
          "durationTicks": 190,
          "midi": 85,
          "name": "C#6",
          "ticks": 32736,
          "time": 75.777702,
          "velocity": 0.7874015748031497
        },
        {
          "duration": 0.6620363749999996,
          "durationTicks": 286,
          "midi": 81,
          "name": "A5",
          "ticks": 32736,
          "time": 75.777702,
          "velocity": 0.7874015748031497
        },
        {
          "duration": 0.6620363749999996,
          "durationTicks": 286,
          "midi": 76,
          "name": "E5",
          "ticks": 32736,
          "time": 75.777702,
          "velocity": 0.7874015748031497
        },
        {
          "duration": 0.6620363749999996,
          "durationTicks": 286,
          "midi": 73,
          "name": "C#5",
          "ticks": 32736,
          "time": 75.777702,
          "velocity": 0.7874015748031497
        },
        {
          "duration": 1.9953683750000124,
          "durationTicks": 862,
          "midi": 78,
          "name": "F#5",
          "ticks": 32928,
          "time": 76.222146,
          "velocity": 0.7874015748031497
        },
        {
          "duration": 1.7731463750000103,
          "durationTicks": 766,
          "midi": 78,
          "name": "F#5",
          "ticks": 33024,
          "time": 76.444368,
          "velocity": 0.7874015748031497
        },
        {
          "duration": 1.7731463750000103,
          "durationTicks": 766,
          "midi": 74,
          "name": "D5",
          "ticks": 33024,
          "time": 76.444368,
          "velocity": 0.7874015748031497
        },
        {
          "duration": 1.7731463750000103,
          "durationTicks": 766,
          "midi": 81,
          "name": "A5",
          "ticks": 33024,
          "time": 76.444368,
          "velocity": 0.7874015748031497
        },
        {
          "duration": 1.7731463750000103,
          "durationTicks": 766,
          "midi": 75,
          "name": "D#5",
          "ticks": 33792,
          "time": 78.222144,
          "velocity": 0.7874015748031497
        },
        {
          "duration": 0.6620363749999996,
          "durationTicks": 286,
          "midi": 81,
          "name": "A5",
          "ticks": 33792,
          "time": 78.222144,
          "velocity": 0.7874015748031497
        },
        {
          "duration": 1.7731463750000103,
          "durationTicks": 766,
          "midi": 71,
          "name": "B4",
          "ticks": 33792,
          "time": 78.222144,
          "velocity": 0.7874015748031497
        },
        {
          "duration": 0.6620363749999996,
          "durationTicks": 286,
          "midi": 80,
          "name": "G#5",
          "ticks": 34080,
          "time": 78.88881,
          "velocity": 0.7874015748031497
        },
        {
          "duration": 0.43981437500001164,
          "durationTicks": 190,
          "midi": 78,
          "name": "F#5",
          "ticks": 34368,
          "time": 79.555476,
          "velocity": 0.7874015748031497
        },
        {
          "duration": 1.773146374999996,
          "durationTicks": 766,
          "midi": 76,
          "name": "E5",
          "ticks": 34560,
          "time": 79.99992,
          "velocity": 0.7874015748031497
        },
        {
          "duration": 0.6620363749999996,
          "durationTicks": 286,
          "midi": 66,
          "name": "F#4",
          "ticks": 35328,
          "time": 81.777696,
          "velocity": 0.7874015748031497
        },
        {
          "duration": 0.6620363750000138,
          "durationTicks": 286,
          "midi": 64,
          "name": "E4",
          "ticks": 35616,
          "time": 82.444362,
          "velocity": 0.7874015748031497
        },
        {
          "duration": 0.6620363749999996,
          "durationTicks": 286,
          "midi": 62,
          "name": "D4",
          "ticks": 35904,
          "time": 83.111028,
          "velocity": 0.7874015748031497
        },
        {
          "duration": 0.6620363750000138,
          "durationTicks": 286,
          "midi": 64,
          "name": "E4",
          "ticks": 36192,
          "time": 83.777694,
          "velocity": 0.7874015748031497
        },
        {
          "duration": 0.4398143749999974,
          "durationTicks": 190,
          "midi": 52,
          "name": "E3",
          "ticks": 36480,
          "time": 84.44436,
          "velocity": 0.7874015748031497
        },
        {
          "duration": 0.4398143749999974,
          "durationTicks": 190,
          "midi": 52,
          "name": "E3",
          "ticks": 36672,
          "time": 84.88880400000001,
          "velocity": 0.7874015748031497
        },
        {
          "duration": 0.21759237499999529,
          "durationTicks": 94,
          "midi": 52,
          "name": "E3",
          "ticks": 43008,
          "time": 99.555456,
          "velocity": 0.7874015748031497
        },
        {
          "duration": 0.2175923750000095,
          "durationTicks": 94,
          "midi": 56,
          "name": "G#3",
          "ticks": 43104,
          "time": 99.777678,
          "velocity": 0.7874015748031497
        },
        {
          "duration": 0.2175923750000095,
          "durationTicks": 94,
          "midi": 59,
          "name": "B3",
          "ticks": 43200,
          "time": 99.9999,
          "velocity": 0.7874015748031497
        },
        {
          "duration": 0.2175923750000095,
          "durationTicks": 94,
          "midi": 60,
          "name": "C4",
          "ticks": 43296,
          "time": 100.222122,
          "velocity": 0.7874015748031497
        },
        {
          "duration": 0.2175923750000095,
          "durationTicks": 94,
          "midi": 64,
          "name": "E4",
          "ticks": 43392,
          "time": 100.444344,
          "velocity": 0.7874015748031497
        },
        {
          "duration": 0.2175923750000095,
          "durationTicks": 94,
          "midi": 67,
          "name": "G4",
          "ticks": 43488,
          "time": 100.666566,
          "velocity": 0.7874015748031497
        },
        {
          "duration": 0.21759237499999529,
          "durationTicks": 94,
          "midi": 55,
          "name": "G3",
          "ticks": 43584,
          "time": 100.888788,
          "velocity": 0.7874015748031497
        },
        {
          "duration": 0.21759237499999529,
          "durationTicks": 94,
          "midi": 59,
          "name": "B3",
          "ticks": 43680,
          "time": 101.11101000000001,
          "velocity": 0.7874015748031497
        },
        {
          "duration": 0.2175923750000095,
          "durationTicks": 94,
          "midi": 62,
          "name": "D4",
          "ticks": 43776,
          "time": 101.333232,
          "velocity": 0.7874015748031497
        },
        {
          "duration": 0.2175923750000095,
          "durationTicks": 94,
          "midi": 54,
          "name": "F#3",
          "ticks": 43872,
          "time": 101.555454,
          "velocity": 0.7874015748031497
        },
        {
          "duration": 0.2175923750000095,
          "durationTicks": 94,
          "midi": 57,
          "name": "A3",
          "ticks": 43968,
          "time": 101.777676,
          "velocity": 0.7874015748031497
        },
        {
          "duration": 0.2175923750000095,
          "durationTicks": 94,
          "midi": 62,
          "name": "D4",
          "ticks": 44064,
          "time": 101.999898,
          "velocity": 0.7874015748031497
        },
        {
          "duration": 0.21759237499999529,
          "durationTicks": 94,
          "midi": 50,
          "name": "D3",
          "ticks": 44160,
          "time": 102.22212,
          "velocity": 0.7874015748031497
        },
        {
          "duration": 0.21759237499999529,
          "durationTicks": 94,
          "midi": 54,
          "name": "F#3",
          "ticks": 44256,
          "time": 102.444342,
          "velocity": 0.7874015748031497
        },
        {
          "duration": 1.773146374999996,
          "durationTicks": 766,
          "midi": 69,
          "name": "A4",
          "ticks": 44352,
          "time": 102.66656400000001,
          "velocity": 0.7874015748031497
        },
        {
          "duration": 1.773146374999996,
          "durationTicks": 766,
          "midi": 57,
          "name": "A3",
          "ticks": 44352,
          "time": 102.66656400000001,
          "velocity": 0.7874015748031497
        },
        {
          "duration": 0.21759237499999529,
          "durationTicks": 94,
          "midi": 64,
          "name": "E4",
          "ticks": 45504,
          "time": 105.333228,
          "velocity": 0.7874015748031497
        },
        {
          "duration": 0.21759237499999529,
          "durationTicks": 94,
          "midi": 68,
          "name": "G#4",
          "ticks": 45600,
          "time": 105.55545000000001,
          "velocity": 0.7874015748031497
        },
        {
          "duration": 0.2175923750000095,
          "durationTicks": 94,
          "midi": 71,
          "name": "B4",
          "ticks": 45696,
          "time": 105.777672,
          "velocity": 0.7874015748031497
        },
        {
          "duration": 0.2175923750000095,
          "durationTicks": 94,
          "midi": 72,
          "name": "C5",
          "ticks": 45792,
          "time": 105.999894,
          "velocity": 0.7874015748031497
        },
        {
          "duration": 0.2175923750000095,
          "durationTicks": 94,
          "midi": 76,
          "name": "E5",
          "ticks": 45888,
          "time": 106.222116,
          "velocity": 0.7874015748031497
        },
        {
          "duration": 0.2175923750000095,
          "durationTicks": 94,
          "midi": 79,
          "name": "G5",
          "ticks": 45984,
          "time": 106.444338,
          "velocity": 0.7874015748031497
        },
        {
          "duration": 0.21759237499999529,
          "durationTicks": 94,
          "midi": 67,
          "name": "G4",
          "ticks": 46080,
          "time": 106.66656,
          "velocity": 0.7874015748031497
        },
        {
          "duration": 0.21759237499999529,
          "durationTicks": 94,
          "midi": 71,
          "name": "B4",
          "ticks": 46176,
          "time": 106.888782,
          "velocity": 0.7874015748031497
        },
        {
          "duration": 0.21759237499999529,
          "durationTicks": 94,
          "midi": 74,
          "name": "D5",
          "ticks": 46272,
          "time": 107.11100400000001,
          "velocity": 0.7874015748031497
        },
        {
          "duration": 0.2175923750000095,
          "durationTicks": 94,
          "midi": 66,
          "name": "F#4",
          "ticks": 46368,
          "time": 107.333226,
          "velocity": 0.7874015748031497
        },
        {
          "duration": 0.2175923750000095,
          "durationTicks": 94,
          "midi": 69,
          "name": "A4",
          "ticks": 46464,
          "time": 107.555448,
          "velocity": 0.7874015748031497
        },
        {
          "duration": 0.2175923750000095,
          "durationTicks": 94,
          "midi": 74,
          "name": "D5",
          "ticks": 46560,
          "time": 107.77767,
          "velocity": 0.7874015748031497
        },
        {
          "duration": 0.2175923750000095,
          "durationTicks": 94,
          "midi": 62,
          "name": "D4",
          "ticks": 46656,
          "time": 107.999892,
          "velocity": 0.7874015748031497
        },
        {
          "duration": 0.21759237499999529,
          "durationTicks": 94,
          "midi": 66,
          "name": "F#4",
          "ticks": 46752,
          "time": 108.222114,
          "velocity": 0.7874015748031497
        },
        {
          "duration": 1.773146374999996,
          "durationTicks": 766,
          "midi": 57,
          "name": "A3",
          "ticks": 46848,
          "time": 108.444336,
          "velocity": 0.7874015748031497
        },
        {
          "duration": 1.773146374999996,
          "durationTicks": 766,
          "midi": 69,
          "name": "A4",
          "ticks": 46848,
          "time": 108.444336,
          "velocity": 0.7874015748031497
        },
        {
          "duration": 0.21759237499999529,
          "durationTicks": 94,
          "midi": 52,
          "name": "E3",
          "ticks": 48000,
          "time": 111.111,
          "velocity": 0.7874015748031497
        },
        {
          "duration": 0.21759237499999529,
          "durationTicks": 94,
          "midi": 56,
          "name": "G#3",
          "ticks": 48096,
          "time": 111.333222,
          "velocity": 0.7874015748031497
        },
        {
          "duration": 0.21759237499999529,
          "durationTicks": 94,
          "midi": 59,
          "name": "B3",
          "ticks": 48192,
          "time": 111.55544400000001,
          "velocity": 0.7874015748031497
        },
        {
          "duration": 0.2175923750000095,
          "durationTicks": 94,
          "midi": 60,
          "name": "C4",
          "ticks": 48288,
          "time": 111.777666,
          "velocity": 0.7874015748031497
        },
        {
          "duration": 0.2175923750000095,
          "durationTicks": 94,
          "midi": 64,
          "name": "E4",
          "ticks": 48384,
          "time": 111.999888,
          "velocity": 0.7874015748031497
        },
        {
          "duration": 0.2175923750000095,
          "durationTicks": 94,
          "midi": 67,
          "name": "G4",
          "ticks": 48480,
          "time": 112.22211,
          "velocity": 0.7874015748031497
        },
        {
          "duration": 0.2175923750000095,
          "durationTicks": 94,
          "midi": 55,
          "name": "G3",
          "ticks": 48576,
          "time": 112.444332,
          "velocity": 0.7874015748031497
        },
        {
          "duration": 0.21759237499999529,
          "durationTicks": 94,
          "midi": 59,
          "name": "B3",
          "ticks": 48672,
          "time": 112.666554,
          "velocity": 0.7874015748031497
        },
        {
          "duration": 0.21759237499999529,
          "durationTicks": 94,
          "midi": 62,
          "name": "D4",
          "ticks": 48768,
          "time": 112.88877600000001,
          "velocity": 0.7874015748031497
        },
        {
          "duration": 0.2175923750000095,
          "durationTicks": 94,
          "midi": 54,
          "name": "F#3",
          "ticks": 48864,
          "time": 113.110998,
          "velocity": 0.7874015748031497
        },
        {
          "duration": 0.2175923750000095,
          "durationTicks": 94,
          "midi": 57,
          "name": "A3",
          "ticks": 48960,
          "time": 113.33322,
          "velocity": 0.7874015748031497
        },
        {
          "duration": 0.2175923750000095,
          "durationTicks": 94,
          "midi": 62,
          "name": "D4",
          "ticks": 49056,
          "time": 113.555442,
          "velocity": 0.7874015748031497
        },
        {
          "duration": 0.21759237499999529,
          "durationTicks": 94,
          "midi": 50,
          "name": "D3",
          "ticks": 49152,
          "time": 113.777664,
          "velocity": 0.7874015748031497
        },
        {
          "duration": 0.21759237499999529,
          "durationTicks": 94,
          "midi": 54,
          "name": "F#3",
          "ticks": 49248,
          "time": 113.999886,
          "velocity": 0.7874015748031497
        },
        {
          "duration": 1.7731463749999818,
          "durationTicks": 766,
          "midi": 57,
          "name": "A3",
          "ticks": 49344,
          "time": 114.222108,
          "velocity": 0.7874015748031497
        },
        {
          "duration": 0.21759237499999529,
          "durationTicks": 94,
          "midi": 76,
          "name": "E5",
          "ticks": 50496,
          "time": 116.888772,
          "velocity": 0.7874015748031497
        },
        {
          "duration": 0.21759237499998108,
          "durationTicks": 94,
          "midi": 80,
          "name": "G#5",
          "ticks": 50592,
          "time": 117.110994,
          "velocity": 0.7874015748031497
        },
        {
          "duration": 0.21759237499998108,
          "durationTicks": 94,
          "midi": 83,
          "name": "B5",
          "ticks": 50688,
          "time": 117.33321600000001,
          "velocity": 0.7874015748031497
        },
        {
          "duration": 0.21759237499999529,
          "durationTicks": 94,
          "midi": 84,
          "name": "C6",
          "ticks": 50784,
          "time": 117.555438,
          "velocity": 0.7874015748031497
        },
        {
          "duration": 0.21759237499999529,
          "durationTicks": 94,
          "midi": 88,
          "name": "E6",
          "ticks": 50880,
          "time": 117.77766,
          "velocity": 0.7874015748031497
        },
        {
          "duration": 0.21759237499999529,
          "durationTicks": 94,
          "midi": 91,
          "name": "G6",
          "ticks": 50976,
          "time": 117.999882,
          "velocity": 0.7874015748031497
        },
        {
          "duration": 0.21759237499999529,
          "durationTicks": 94,
          "midi": 79,
          "name": "G5",
          "ticks": 51072,
          "time": 118.222104,
          "velocity": 0.7874015748031497
        },
        {
          "duration": 0.21759237499999529,
          "durationTicks": 94,
          "midi": 83,
          "name": "B5",
          "ticks": 51168,
          "time": 118.444326,
          "velocity": 0.7874015748031497
        },
        {
          "duration": 0.21759237499998108,
          "durationTicks": 94,
          "midi": 86,
          "name": "D6",
          "ticks": 51264,
          "time": 118.666548,
          "velocity": 0.7874015748031497
        },
        {
          "duration": 0.21759237499998108,
          "durationTicks": 94,
          "midi": 78,
          "name": "F#5",
          "ticks": 51360,
          "time": 118.88877000000001,
          "velocity": 0.7874015748031497
        },
        {
          "duration": 0.21759237499999529,
          "durationTicks": 94,
          "midi": 81,
          "name": "A5",
          "ticks": 51456,
          "time": 119.110992,
          "velocity": 0.7874015748031497
        },
        {
          "duration": 0.21759237499999529,
          "durationTicks": 94,
          "midi": 86,
          "name": "D6",
          "ticks": 51552,
          "time": 119.333214,
          "velocity": 0.7874015748031497
        },
        {
          "duration": 0.21759237499999529,
          "durationTicks": 94,
          "midi": 74,
          "name": "D5",
          "ticks": 51648,
          "time": 119.555436,
          "velocity": 0.7874015748031497
        },
        {
          "duration": 0.21759237499999529,
          "durationTicks": 94,
          "midi": 78,
          "name": "F#5",
          "ticks": 51744,
          "time": 119.777658,
          "velocity": 0.7874015748031497
        },
        {
          "duration": 1.7731463749999818,
          "durationTicks": 766,
          "midi": 81,
          "name": "A5",
          "ticks": 51840,
          "time": 119.99988,
          "velocity": 0.7874015748031497
        },
        {
          "duration": 1.7731463749999818,
          "durationTicks": 766,
          "midi": 69,
          "name": "A4",
          "ticks": 51840,
          "time": 119.99988,
          "velocity": 0.7874015748031497
        },
        {
          "duration": 1.1064803749999896,
          "durationTicks": 478,
          "midi": 76,
          "name": "E5",
          "ticks": 52608,
          "time": 121.77765600000001,
          "velocity": 0.7874015748031497
        },
        {
          "duration": 1.1064803749999896,
          "durationTicks": 478,
          "midi": 80,
          "name": "G#5",
          "ticks": 52608,
          "time": 121.77765600000001,
          "velocity": 0.7874015748031497
        },
        {
          "duration": 0.21759237499999529,
          "durationTicks": 94,
          "midi": 76,
          "name": "E5",
          "ticks": 53088,
          "time": 122.888766,
          "velocity": 0.7874015748031497
        },
        {
          "duration": 0.21759237499999529,
          "durationTicks": 94,
          "midi": 78,
          "name": "F#5",
          "ticks": 53088,
          "time": 122.888766,
          "velocity": 0.7874015748031497
        },
        {
          "duration": 0.21759237499998108,
          "durationTicks": 94,
          "midi": 76,
          "name": "E5",
          "ticks": 53184,
          "time": 123.110988,
          "velocity": 0.7874015748031497
        },
        {
          "duration": 0.21759237499998108,
          "durationTicks": 94,
          "midi": 80,
          "name": "G#5",
          "ticks": 53184,
          "time": 123.110988,
          "velocity": 0.7874015748031497
        },
        {
          "duration": 1.3287023749999918,
          "durationTicks": 574,
          "midi": 76,
          "name": "E5",
          "ticks": 53280,
          "time": 123.33321000000001,
          "velocity": 0.7874015748031497
        },
        {
          "duration": 1.3287023749999918,
          "durationTicks": 574,
          "midi": 81,
          "name": "A5",
          "ticks": 53280,
          "time": 123.33321000000001,
          "velocity": 0.7874015748031497
        },
        {
          "duration": 0.21759237499998108,
          "durationTicks": 94,
          "midi": 76,
          "name": "E5",
          "ticks": 53856,
          "time": 124.666542,
          "velocity": 0.7874015748031497
        },
        {
          "duration": 0.21759237499998108,
          "durationTicks": 94,
          "midi": 80,
          "name": "G#5",
          "ticks": 53856,
          "time": 124.666542,
          "velocity": 0.7874015748031497
        },
        {
          "duration": 0.21759237499999529,
          "durationTicks": 94,
          "midi": 76,
          "name": "E5",
          "ticks": 53952,
          "time": 124.888764,
          "velocity": 0.7874015748031497
        },
        {
          "duration": 0.21759237499999529,
          "durationTicks": 94,
          "midi": 81,
          "name": "A5",
          "ticks": 53952,
          "time": 124.888764,
          "velocity": 0.7874015748031497
        },
        {
          "duration": 1.3287023749999918,
          "durationTicks": 574,
          "midi": 83,
          "name": "B5",
          "ticks": 54048,
          "time": 125.110986,
          "velocity": 0.7874015748031497
        },
        {
          "duration": 1.3287023749999918,
          "durationTicks": 574,
          "midi": 76,
          "name": "E5",
          "ticks": 54048,
          "time": 125.110986,
          "velocity": 0.7874015748031497
        },
        {
          "duration": 0.21759237499999529,
          "durationTicks": 94,
          "midi": 76,
          "name": "E5",
          "ticks": 54624,
          "time": 126.444318,
          "velocity": 0.7874015748031497
        },
        {
          "duration": 0.21759237499999529,
          "durationTicks": 94,
          "midi": 81,
          "name": "A5",
          "ticks": 54624,
          "time": 126.444318,
          "velocity": 0.7874015748031497
        },
        {
          "duration": 0.21759237499999529,
          "durationTicks": 94,
          "midi": 76,
          "name": "E5",
          "ticks": 54720,
          "time": 126.66654,
          "velocity": 0.7874015748031497
        },
        {
          "duration": 0.21759237499999529,
          "durationTicks": 94,
          "midi": 83,
          "name": "B5",
          "ticks": 54720,
          "time": 126.66654,
          "velocity": 0.7874015748031497
        },
        {
          "duration": 1.5509243749999797,
          "durationTicks": 670,
          "midi": 76,
          "name": "E5",
          "ticks": 54816,
          "time": 126.888762,
          "velocity": 0.7874015748031497
        },
        {
          "duration": 1.5509243749999797,
          "durationTicks": 670,
          "midi": 86,
          "name": "D6",
          "ticks": 54816,
          "time": 126.888762,
          "velocity": 0.7874015748031497
        },
        {
          "duration": 0.8842583750000017,
          "durationTicks": 382,
          "midi": 85,
          "name": "C#6",
          "ticks": 55680,
          "time": 128.88876,
          "velocity": 0.7874015748031497
        },
        {
          "duration": 0.21759237499998108,
          "durationTicks": 94,
          "midi": 83,
          "name": "B5",
          "ticks": 56064,
          "time": 129.777648,
          "velocity": 0.7874015748031497
        },
        {
          "duration": 0.439814374999969,
          "durationTicks": 190,
          "midi": 85,
          "name": "C#6",
          "ticks": 56160,
          "time": 129.99987000000002,
          "velocity": 0.7874015748031497
        },
        {
          "duration": 0.2175923750000095,
          "durationTicks": 94,
          "midi": 88,
          "name": "E6",
          "ticks": 56352,
          "time": 130.444314,
          "velocity": 0.7874015748031497
        },
        {
          "duration": 1.1064803749999896,
          "durationTicks": 478,
          "midi": 88,
          "name": "E6",
          "ticks": 56448,
          "time": 130.666536,
          "velocity": 0.7874015748031497
        },
        {
          "duration": 0.4398143749999974,
          "durationTicks": 190,
          "midi": 90,
          "name": "F#6",
          "ticks": 56928,
          "time": 131.777646,
          "velocity": 0.7874015748031497
        },
        {
          "duration": 1.1064803749999896,
          "durationTicks": 478,
          "midi": 85,
          "name": "C#6",
          "ticks": 57120,
          "time": 132.22209,
          "velocity": 0.7874015748031497
        },
        {
          "duration": 0.21759237499998108,
          "durationTicks": 94,
          "midi": 83,
          "name": "B5",
          "ticks": 57600,
          "time": 133.3332,
          "velocity": 0.7874015748031497
        },
        {
          "duration": 0.4398143749999974,
          "durationTicks": 190,
          "midi": 81,
          "name": "A5",
          "ticks": 57696,
          "time": 133.555422,
          "velocity": 0.7874015748031497
        },
        {
          "duration": 0.4398143749999974,
          "durationTicks": 190,
          "midi": 80,
          "name": "G#5",
          "ticks": 57888,
          "time": 133.999866,
          "velocity": 0.7874015748031497
        },
        {
          "duration": 0.21759237499998108,
          "durationTicks": 94,
          "midi": 78,
          "name": "F#5",
          "ticks": 58080,
          "time": 134.44431,
          "velocity": 0.7874015748031497
        },
        {
          "duration": 0.2175923750000095,
          "durationTicks": 94,
          "midi": 80,
          "name": "G#5",
          "ticks": 58176,
          "time": 134.666532,
          "velocity": 0.7874015748031497
        },
        {
          "duration": 0.4398143749999974,
          "durationTicks": 190,
          "midi": 81,
          "name": "A5",
          "ticks": 58272,
          "time": 134.888754,
          "velocity": 0.7874015748031497
        },
        {
          "duration": 0.4398143749999974,
          "durationTicks": 190,
          "midi": 83,
          "name": "B5",
          "ticks": 58464,
          "time": 135.333198,
          "velocity": 0.7874015748031497
        },
        {
          "duration": 0.21759237499998108,
          "durationTicks": 94,
          "midi": 83,
          "name": "B5",
          "ticks": 58656,
          "time": 135.77764200000001,
          "velocity": 0.7874015748031497
        },
        {
          "duration": 0.8842583750000017,
          "durationTicks": 382,
          "midi": 85,
          "name": "C#6",
          "ticks": 58752,
          "time": 135.999864,
          "velocity": 0.7874015748031497
        },
        {
          "duration": 0.21759237499998108,
          "durationTicks": 94,
          "midi": 83,
          "name": "B5",
          "ticks": 59136,
          "time": 136.888752,
          "velocity": 0.7874015748031497
        },
        {
          "duration": 0.4398143749999974,
          "durationTicks": 190,
          "midi": 85,
          "name": "C#6",
          "ticks": 59232,
          "time": 137.110974,
          "velocity": 0.7874015748031497
        },
        {
          "duration": 1.3287023749999776,
          "durationTicks": 574,
          "midi": 88,
          "name": "E6",
          "ticks": 59424,
          "time": 137.555418,
          "velocity": 0.7874015748031497
        },
        {
          "duration": 0.439814374999969,
          "durationTicks": 190,
          "midi": 90,
          "name": "F#6",
          "ticks": 60000,
          "time": 138.88875000000002,
          "velocity": 0.7874015748031497
        },
        {
          "duration": 0.8842583750000017,
          "durationTicks": 382,
          "midi": 85,
          "name": "C#6",
          "ticks": 60192,
          "time": 139.333194,
          "velocity": 0.7874015748031497
        },
        {
          "duration": 0.4398143749999974,
          "durationTicks": 190,
          "midi": 83,
          "name": "B5",
          "ticks": 60576,
          "time": 140.222082,
          "velocity": 0.7874015748031497
        },
        {
          "duration": 0.4398143749999974,
          "durationTicks": 190,
          "midi": 81,
          "name": "A5",
          "ticks": 60768,
          "time": 140.666526,
          "velocity": 0.7874015748031497
        },
        {
          "duration": 0.4398143749999974,
          "durationTicks": 190,
          "midi": 80,
          "name": "G#5",
          "ticks": 60960,
          "time": 141.11097,
          "velocity": 0.7874015748031497
        },
        {
          "duration": 0.21759237499998108,
          "durationTicks": 94,
          "midi": 78,
          "name": "F#5",
          "ticks": 61152,
          "time": 141.555414,
          "velocity": 0.7874015748031497
        },
        {
          "duration": 0.21759237499998108,
          "durationTicks": 94,
          "midi": 80,
          "name": "G#5",
          "ticks": 61248,
          "time": 141.777636,
          "velocity": 0.7874015748031497
        },
        {
          "duration": 0.4398143749999974,
          "durationTicks": 190,
          "midi": 81,
          "name": "A5",
          "ticks": 61344,
          "time": 141.999858,
          "velocity": 0.7874015748031497
        },
        {
          "duration": 0.4398143749999974,
          "durationTicks": 190,
          "midi": 83,
          "name": "B5",
          "ticks": 61536,
          "time": 142.444302,
          "velocity": 0.7874015748031497
        },
        {
          "duration": 1.9953683749999982,
          "durationTicks": 862,
          "midi": 81,
          "name": "A5",
          "ticks": 61728,
          "time": 142.888746,
          "velocity": 0.7874015748031497
        },
        {
          "duration": 0.21759237499998108,
          "durationTicks": 94,
          "midi": 73,
          "name": "C#5",
          "ticks": 62784,
          "time": 145.333188,
          "velocity": 0.7874015748031497
        },
        {
          "duration": 0.21759237499998108,
          "durationTicks": 94,
          "midi": 81,
          "name": "A5",
          "ticks": 62784,
          "time": 145.333188,
          "velocity": 0.7874015748031497
        },
        {
          "duration": 0.21759237499998108,
          "durationTicks": 94,
          "midi": 85,
          "name": "C#6",
          "ticks": 62784,
          "time": 145.333188,
          "velocity": 0.7874015748031497
        },
        {
          "duration": 0.21759237499998108,
          "durationTicks": 94,
          "midi": 76,
          "name": "E5",
          "ticks": 62784,
          "time": 145.333188,
          "velocity": 0.7874015748031497
        },
        {
          "duration": 0.2175923750000095,
          "durationTicks": 94,
          "midi": 81,
          "name": "A5",
          "ticks": 62880,
          "time": 145.55541,
          "velocity": 0.7874015748031497
        },
        {
          "duration": 0.2175923750000095,
          "durationTicks": 94,
          "midi": 73,
          "name": "C#5",
          "ticks": 62880,
          "time": 145.55541,
          "velocity": 0.7874015748031497
        },
        {
          "duration": 0.2175923750000095,
          "durationTicks": 94,
          "midi": 76,
          "name": "E5",
          "ticks": 62880,
          "time": 145.55541,
          "velocity": 0.7874015748031497
        },
        {
          "duration": 0.21759237499998108,
          "durationTicks": 94,
          "midi": 76,
          "name": "E5",
          "ticks": 62976,
          "time": 145.777632,
          "velocity": 0.7874015748031497
        },
        {
          "duration": 0.21759237499998108,
          "durationTicks": 94,
          "midi": 81,
          "name": "A5",
          "ticks": 62976,
          "time": 145.777632,
          "velocity": 0.7874015748031497
        },
        {
          "duration": 0.21759237499998108,
          "durationTicks": 94,
          "midi": 83,
          "name": "B5",
          "ticks": 62976,
          "time": 145.777632,
          "velocity": 0.7874015748031497
        },
        {
          "duration": 0.21759237499998108,
          "durationTicks": 94,
          "midi": 73,
          "name": "C#5",
          "ticks": 62976,
          "time": 145.777632,
          "velocity": 0.7874015748031497
        },
        {
          "duration": 0.6620363749999854,
          "durationTicks": 286,
          "midi": 81,
          "name": "A5",
          "ticks": 63072,
          "time": 145.999854,
          "velocity": 0.7874015748031497
        },
        {
          "duration": 0.6620363749999854,
          "durationTicks": 286,
          "midi": 73,
          "name": "C#5",
          "ticks": 63072,
          "time": 145.999854,
          "velocity": 0.7874015748031497
        },
        {
          "duration": 0.6620363749999854,
          "durationTicks": 286,
          "midi": 76,
          "name": "E5",
          "ticks": 63072,
          "time": 145.999854,
          "velocity": 0.7874015748031497
        },
        {
          "duration": 0.4398143749999974,
          "durationTicks": 190,
          "midi": 85,
          "name": "C#6",
          "ticks": 63072,
          "time": 145.999854,
          "velocity": 0.7874015748031497
        },
        {
          "duration": 1.9953683749999982,
          "durationTicks": 862,
          "midi": 78,
          "name": "F#5",
          "ticks": 63264,
          "time": 146.444298,
          "velocity": 0.7874015748031497
        },
        {
          "duration": 1.7731463750000103,
          "durationTicks": 766,
          "midi": 74,
          "name": "D5",
          "ticks": 63360,
          "time": 146.66652,
          "velocity": 0.7874015748031497
        },
        {
          "duration": 1.7731463750000103,
          "durationTicks": 766,
          "midi": 81,
          "name": "A5",
          "ticks": 63360,
          "time": 146.66652,
          "velocity": 0.7874015748031497
        },
        {
          "duration": 0.6620363749999854,
          "durationTicks": 286,
          "midi": 81,
          "name": "A5",
          "ticks": 64128,
          "time": 148.444296,
          "velocity": 0.7874015748031497
        },
        {
          "duration": 1.7731463749999818,
          "durationTicks": 766,
          "midi": 75,
          "name": "D#5",
          "ticks": 64128,
          "time": 148.444296,
          "velocity": 0.7874015748031497
        },
        {
          "duration": 1.7731463749999818,
          "durationTicks": 766,
          "midi": 71,
          "name": "B4",
          "ticks": 64128,
          "time": 148.444296,
          "velocity": 0.7874015748031497
        },
        {
          "duration": 0.6620363749999854,
          "durationTicks": 286,
          "midi": 80,
          "name": "G#5",
          "ticks": 64416,
          "time": 149.110962,
          "velocity": 0.7874015748031497
        },
        {
          "duration": 0.4398143749999974,
          "durationTicks": 190,
          "midi": 78,
          "name": "F#5",
          "ticks": 64704,
          "time": 149.777628,
          "velocity": 0.7874015748031497
        },
        {
          "duration": 1.7731463750000103,
          "durationTicks": 766,
          "midi": 76,
          "name": "E5",
          "ticks": 64896,
          "time": 150.222072,
          "velocity": 0.7874015748031497
        },
        {
          "duration": 0.6620363749999854,
          "durationTicks": 286,
          "midi": 78,
          "name": "F#5",
          "ticks": 65664,
          "time": 151.99984800000001,
          "velocity": 0.7874015748031497
        },
        {
          "duration": 0.6620363749999854,
          "durationTicks": 286,
          "midi": 76,
          "name": "E5",
          "ticks": 65952,
          "time": 152.666514,
          "velocity": 0.7874015748031497
        },
        {
          "duration": 0.6620363749999854,
          "durationTicks": 286,
          "midi": 74,
          "name": "D5",
          "ticks": 66240,
          "time": 153.33318,
          "velocity": 0.7874015748031497
        },
        {
          "duration": 0.6620363750000138,
          "durationTicks": 286,
          "midi": 76,
          "name": "E5",
          "ticks": 66528,
          "time": 153.999846,
          "velocity": 0.7874015748031497
        },
        {
          "duration": 0.439814374999969,
          "durationTicks": 190,
          "midi": 71,
          "name": "B4",
          "ticks": 66816,
          "time": 154.666512,
          "velocity": 0.7874015748031497
        },
        {
          "duration": 0.439814374999969,
          "durationTicks": 190,
          "midi": 76,
          "name": "E5",
          "ticks": 67008,
          "time": 155.11095600000002,
          "velocity": 0.7874015748031497
        },
        {
          "duration": 0.8842583750000017,
          "durationTicks": 382,
          "midi": 85,
          "name": "C#6",
          "ticks": 67200,
          "time": 155.5554,
          "velocity": 0.7874015748031497
        },
        {
          "duration": 0.21759237499998108,
          "durationTicks": 94,
          "midi": 83,
          "name": "B5",
          "ticks": 67584,
          "time": 156.444288,
          "velocity": 0.7874015748031497
        },
        {
          "duration": 0.4398143749999974,
          "durationTicks": 190,
          "midi": 85,
          "name": "C#6",
          "ticks": 67680,
          "time": 156.66651,
          "velocity": 0.7874015748031497
        },
        {
          "duration": 1.328702375000006,
          "durationTicks": 574,
          "midi": 88,
          "name": "E6",
          "ticks": 67872,
          "time": 157.110954,
          "velocity": 0.7874015748031497
        },
        {
          "duration": 0.4398143749999974,
          "durationTicks": 190,
          "midi": 90,
          "name": "F#6",
          "ticks": 68448,
          "time": 158.444286,
          "velocity": 0.7874015748031497
        },
        {
          "duration": 1.1064803749999896,
          "durationTicks": 478,
          "midi": 85,
          "name": "C#6",
          "ticks": 68640,
          "time": 158.88873,
          "velocity": 0.7874015748031497
        },
        {
          "duration": 0.21759237499998108,
          "durationTicks": 94,
          "midi": 81,
          "name": "A5",
          "ticks": 69120,
          "time": 159.99984,
          "velocity": 0.7874015748031497
        },
        {
          "duration": 0.4398143749999974,
          "durationTicks": 190,
          "midi": 85,
          "name": "C#6",
          "ticks": 69216,
          "time": 160.222062,
          "velocity": 0.7874015748031497
        },
        {
          "duration": 0.8842583750000017,
          "durationTicks": 382,
          "midi": 81,
          "name": "A5",
          "ticks": 69408,
          "time": 160.666506,
          "velocity": 0.7874015748031497
        },
        {
          "duration": 0.6620363749999854,
          "durationTicks": 286,
          "midi": 80,
          "name": "G#5",
          "ticks": 69792,
          "time": 161.555394,
          "velocity": 0.7874015748031497
        },
        {
          "duration": 0.4398143749999974,
          "durationTicks": 190,
          "midi": 78,
          "name": "F#5",
          "ticks": 70080,
          "time": 162.22206,
          "velocity": 0.7874015748031497
        },
        {
          "duration": 1.7731463749999818,
          "durationTicks": 766,
          "midi": 76,
          "name": "E5",
          "ticks": 70272,
          "time": 162.666504,
          "velocity": 0.7874015748031497
        },
        {
          "duration": 0.6620363750000138,
          "durationTicks": 286,
          "midi": 81,
          "name": "A5",
          "ticks": 71040,
          "time": 164.44428,
          "velocity": 0.7874015748031497
        },
        {
          "duration": 0.6620363749999854,
          "durationTicks": 286,
          "midi": 80,
          "name": "G#5",
          "ticks": 71328,
          "time": 165.110946,
          "velocity": 0.7874015748031497
        },
        {
          "duration": 0.6620363749999854,
          "durationTicks": 286,
          "midi": 78,
          "name": "F#5",
          "ticks": 71616,
          "time": 165.777612,
          "velocity": 0.7874015748031497
        },
        {
          "duration": 0.6620363749999854,
          "durationTicks": 286,
          "midi": 76,
          "name": "E5",
          "ticks": 71904,
          "time": 166.444278,
          "velocity": 0.7874015748031497
        },
        {
          "duration": 0.4398143749999974,
          "durationTicks": 190,
          "midi": 71,
          "name": "B4",
          "ticks": 72192,
          "time": 167.110944,
          "velocity": 0.7874015748031497
        },
        {
          "duration": 0.4398143749999974,
          "durationTicks": 190,
          "midi": 76,
          "name": "E5",
          "ticks": 72384,
          "time": 167.555388,
          "velocity": 0.7874015748031497
        },
        {
          "duration": 1.7731463749999818,
          "durationTicks": 766,
          "midi": 81,
          "name": "A5",
          "ticks": 72576,
          "time": 167.999832,
          "velocity": 0.7874015748031497
        },
        {
          "duration": 0.6620363749999854,
          "durationTicks": 286,
          "midi": 81,
          "name": "A5",
          "ticks": 73344,
          "time": 169.77760800000001,
          "velocity": 0.7874015748031497
        },
        {
          "duration": 0.6620363749999854,
          "durationTicks": 286,
          "midi": 80,
          "name": "G#5",
          "ticks": 73632,
          "time": 170.444274,
          "velocity": 0.7874015748031497
        },
        {
          "duration": 0.6620363749999854,
          "durationTicks": 286,
          "midi": 78,
          "name": "F#5",
          "ticks": 73920,
          "time": 171.11094,
          "velocity": 0.7874015748031497
        },
        {
          "duration": 0.6620363750000138,
          "durationTicks": 286,
          "midi": 76,
          "name": "E5",
          "ticks": 74208,
          "time": 171.777606,
          "velocity": 0.7874015748031497
        },
        {
          "duration": 0.439814374999969,
          "durationTicks": 190,
          "midi": 71,
          "name": "B4",
          "ticks": 74496,
          "time": 172.444272,
          "velocity": 0.7874015748031497
        },
        {
          "duration": 0.4398143749999974,
          "durationTicks": 190,
          "midi": 76,
          "name": "E5",
          "ticks": 74688,
          "time": 172.888716,
          "velocity": 0.7874015748031497
        },
        {
          "duration": 7.995362375000013,
          "durationTicks": 3454,
          "midi": 69,
          "name": "A4",
          "ticks": 74880,
          "time": 173.33316,
          "velocity": 0.7874015748031497
        }
      ]
    },
    {
      "channel": 3,
      "controlChanges": {
        "7": [
          {
            "number": 7,
            "ticks": 0,
            "time": 0,
            "value": 0.7874015748031497
          },
          {
            "number": 7,
            "ticks": 192,
            "time": 0.444444,
            "value": 0.8267716535433071
          }
        ],
        "10": [
          {
            "number": 10,
            "ticks": 192,
            "time": 0.444444,
            "value": 0.7559055118110236
          }
        ],
        "91": [
          {
            "number": 91,
            "ticks": 192,
            "time": 0.444444,
            "value": 0.3543307086614173
          }
        ],
        "93": [
          {
            "number": 93,
            "ticks": 192,
            "time": 0.444444,
            "value": 0.047244094488188976
          }
        ]
      },
      "pitchBends": [],
      "instrument": {
        "family": "piano",
        "number": 0,
        "name": "acoustic grand piano"
      },
      "name": "Piano 1",
      "notes": [
        {
          "duration": 3.5509223750000007,
          "durationTicks": 1534,
          "midi": 64,
          "name": "E4",
          "ticks": 6912,
          "time": 15.999984,
          "velocity": 0.905511811023622
        },
        {
          "duration": 3.5509223750000007,
          "durationTicks": 1534,
          "midi": 61,
          "name": "C#4",
          "ticks": 6912,
          "time": 15.999984,
          "velocity": 0.905511811023622
        },
        {
          "duration": 3.5509223750000007,
          "durationTicks": 1534,
          "midi": 45,
          "name": "A2",
          "ticks": 6912,
          "time": 15.999984,
          "velocity": 0.905511811023622
        },
        {
          "duration": 1.7731463749999996,
          "durationTicks": 766,
          "midi": 62,
          "name": "D4",
          "ticks": 8448,
          "time": 19.555536,
          "velocity": 0.905511811023622
        },
        {
          "duration": 1.7731463749999996,
          "durationTicks": 766,
          "midi": 66,
          "name": "F#4",
          "ticks": 8448,
          "time": 19.555536,
          "velocity": 0.905511811023622
        },
        {
          "duration": 1.7731463749999996,
          "durationTicks": 766,
          "midi": 50,
          "name": "D3",
          "ticks": 8448,
          "time": 19.555536,
          "velocity": 0.905511811023622
        },
        {
          "duration": 1.7731463750000032,
          "durationTicks": 766,
          "midi": 51,
          "name": "D#3",
          "ticks": 9216,
          "time": 21.333312,
          "velocity": 0.905511811023622
        },
        {
          "duration": 1.7731463750000032,
          "durationTicks": 766,
          "midi": 66,
          "name": "F#4",
          "ticks": 9216,
          "time": 21.333312,
          "velocity": 0.905511811023622
        },
        {
          "duration": 1.7731463750000032,
          "durationTicks": 766,
          "midi": 63,
          "name": "D#4",
          "ticks": 9216,
          "time": 21.333312,
          "velocity": 0.905511811023622
        },
        {
          "duration": 1.7731463750000032,
          "durationTicks": 766,
          "midi": 61,
          "name": "C#4",
          "ticks": 9984,
          "time": 23.111088,
          "velocity": 0.905511811023622
        },
        {
          "duration": 1.7731463750000032,
          "durationTicks": 766,
          "midi": 52,
          "name": "E3",
          "ticks": 9984,
          "time": 23.111088,
          "velocity": 0.905511811023622
        },
        {
          "duration": 1.7731463750000032,
          "durationTicks": 766,
          "midi": 64,
          "name": "E4",
          "ticks": 9984,
          "time": 23.111088,
          "velocity": 0.905511811023622
        },
        {
          "duration": 0.6620363749999996,
          "durationTicks": 286,
          "midi": 54,
          "name": "F#3",
          "ticks": 10752,
          "time": 24.888864,
          "velocity": 0.905511811023622
        },
        {
          "duration": 0.6620363749999996,
          "durationTicks": 286,
          "midi": 57,
          "name": "A3",
          "ticks": 10752,
          "time": 24.888864,
          "velocity": 0.905511811023622
        },
        {
          "duration": 0.6620363749999996,
          "durationTicks": 286,
          "midi": 62,
          "name": "D4",
          "ticks": 10752,
          "time": 24.888864,
          "velocity": 0.905511811023622
        },
        {
          "duration": 0.6620363749999996,
          "durationTicks": 286,
          "midi": 52,
          "name": "E3",
          "ticks": 11040,
          "time": 25.55553,
          "velocity": 0.905511811023622
        },
        {
          "duration": 0.6620363749999996,
          "durationTicks": 286,
          "midi": 61,
          "name": "C#4",
          "ticks": 11040,
          "time": 25.55553,
          "velocity": 0.905511811023622
        },
        {
          "duration": 0.6620363749999996,
          "durationTicks": 286,
          "midi": 57,
          "name": "A3",
          "ticks": 11040,
          "time": 25.55553,
          "velocity": 0.905511811023622
        },
        {
          "duration": 0.6620363749999996,
          "durationTicks": 286,
          "midi": 50,
          "name": "D3",
          "ticks": 11328,
          "time": 26.222196,
          "velocity": 0.905511811023622
        },
        {
          "duration": 0.6620363749999996,
          "durationTicks": 286,
          "midi": 59,
          "name": "B3",
          "ticks": 11328,
          "time": 26.222196,
          "velocity": 0.905511811023622
        },
        {
          "duration": 0.6620363749999996,
          "durationTicks": 286,
          "midi": 57,
          "name": "A3",
          "ticks": 11328,
          "time": 26.222196,
          "velocity": 0.905511811023622
        },
        {
          "duration": 0.6620363750000031,
          "durationTicks": 286,
          "midi": 61,
          "name": "C#4",
          "ticks": 11616,
          "time": 26.888862,
          "velocity": 0.905511811023622
        },
        {
          "duration": 0.6620363750000031,
          "durationTicks": 286,
          "midi": 52,
          "name": "E3",
          "ticks": 11616,
          "time": 26.888862,
          "velocity": 0.905511811023622
        },
        {
          "duration": 0.6620363750000031,
          "durationTicks": 286,
          "midi": 57,
          "name": "A3",
          "ticks": 11616,
          "time": 26.888862,
          "velocity": 0.905511811023622
        },
        {
          "duration": 0.439814375000001,
          "durationTicks": 190,
          "midi": 57,
          "name": "A3",
          "ticks": 11904,
          "time": 27.555528,
          "velocity": 0.905511811023622
        },
        {
          "duration": 0.439814375000001,
          "durationTicks": 190,
          "midi": 40,
          "name": "E2",
          "ticks": 11904,
          "time": 27.555528,
          "velocity": 0.905511811023622
        },
        {
          "duration": 0.439814375000001,
          "durationTicks": 190,
          "midi": 59,
          "name": "B3",
          "ticks": 11904,
          "time": 27.555528,
          "velocity": 0.905511811023622
        },
        {
          "duration": 0.439814375000001,
          "durationTicks": 190,
          "midi": 56,
          "name": "G#3",
          "ticks": 12096,
          "time": 27.999972,
          "velocity": 0.905511811023622
        },
        {
          "duration": 0.439814375000001,
          "durationTicks": 190,
          "midi": 40,
          "name": "E2",
          "ticks": 12096,
          "time": 27.999972,
          "velocity": 0.905511811023622
        },
        {
          "duration": 1.7731463749999996,
          "durationTicks": 766,
          "midi": 52,
          "name": "E3",
          "ticks": 12288,
          "time": 28.444416,
          "velocity": 0.905511811023622
        },
        {
          "duration": 1.7731463749999996,
          "durationTicks": 766,
          "midi": 61,
          "name": "C#4",
          "ticks": 12288,
          "time": 28.444416,
          "velocity": 0.905511811023622
        },
        {
          "duration": 1.7731463749999996,
          "durationTicks": 766,
          "midi": 45,
          "name": "A2",
          "ticks": 12288,
          "time": 28.444416,
          "velocity": 0.905511811023622
        },
        {
          "duration": 1.7731463749999996,
          "durationTicks": 766,
          "midi": 64,
          "name": "E4",
          "ticks": 13056,
          "time": 30.222192,
          "velocity": 0.905511811023622
        },
        {
          "duration": 1.7731463749999996,
          "durationTicks": 766,
          "midi": 57,
          "name": "A3",
          "ticks": 13056,
          "time": 30.222192,
          "velocity": 0.905511811023622
        },
        {
          "duration": 1.7731463749999996,
          "durationTicks": 766,
          "midi": 61,
          "name": "C#4",
          "ticks": 13056,
          "time": 30.222192,
          "velocity": 0.905511811023622
        },
        {
          "duration": 1.7731463749999996,
          "durationTicks": 766,
          "midi": 45,
          "name": "A2",
          "ticks": 13056,
          "time": 30.222192,
          "velocity": 0.905511811023622
        },
        {
          "duration": 1.7731463749999996,
          "durationTicks": 766,
          "midi": 66,
          "name": "F#4",
          "ticks": 13824,
          "time": 31.999968,
          "velocity": 0.905511811023622
        },
        {
          "duration": 1.7731463749999996,
          "durationTicks": 766,
          "midi": 62,
          "name": "D4",
          "ticks": 13824,
          "time": 31.999968,
          "velocity": 0.905511811023622
        },
        {
          "duration": 1.7731463749999996,
          "durationTicks": 766,
          "midi": 57,
          "name": "A3",
          "ticks": 13824,
          "time": 31.999968,
          "velocity": 0.905511811023622
        },
        {
          "duration": 1.7731463749999996,
          "durationTicks": 766,
          "midi": 50,
          "name": "D3",
          "ticks": 13824,
          "time": 31.999968,
          "velocity": 0.905511811023622
        },
        {
          "duration": 0.6620363749999996,
          "durationTicks": 286,
          "midi": 52,
          "name": "E3",
          "ticks": 14592,
          "time": 33.777744,
          "velocity": 0.905511811023622
        },
        {
          "duration": 0.6620363749999996,
          "durationTicks": 286,
          "midi": 64,
          "name": "E4",
          "ticks": 14592,
          "time": 33.777744,
          "velocity": 0.905511811023622
        },
        {
          "duration": 0.6620363749999996,
          "durationTicks": 286,
          "midi": 68,
          "name": "G#4",
          "ticks": 14592,
          "time": 33.777744,
          "velocity": 0.905511811023622
        },
        {
          "duration": 0.4398143749999974,
          "durationTicks": 190,
          "midi": 62,
          "name": "D4",
          "ticks": 14880,
          "time": 34.44441,
          "velocity": 0.905511811023622
        },
        {
          "duration": 0.4398143749999974,
          "durationTicks": 190,
          "midi": 54,
          "name": "F#3",
          "ticks": 14880,
          "time": 34.44441,
          "velocity": 0.905511811023622
        },
        {
          "duration": 0.4398143749999974,
          "durationTicks": 190,
          "midi": 66,
          "name": "F#4",
          "ticks": 14880,
          "time": 34.44441,
          "velocity": 0.905511811023622
        },
        {
          "duration": 0.4398143749999974,
          "durationTicks": 190,
          "midi": 52,
          "name": "E3",
          "ticks": 14880,
          "time": 34.44441,
          "velocity": 0.905511811023622
        },
        {
          "duration": 0.6620363749999996,
          "durationTicks": 286,
          "midi": 52,
          "name": "E3",
          "ticks": 15072,
          "time": 34.888854,
          "velocity": 0.905511811023622
        },
        {
          "duration": 0.6620363749999996,
          "durationTicks": 286,
          "midi": 64,
          "name": "E4",
          "ticks": 15072,
          "time": 34.888854,
          "velocity": 0.905511811023622
        },
        {
          "duration": 0.6620363749999996,
          "durationTicks": 286,
          "midi": 56,
          "name": "G#3",
          "ticks": 15072,
          "time": 34.888854,
          "velocity": 0.905511811023622
        },
        {
          "duration": 1.773146374999996,
          "durationTicks": 766,
          "midi": 45,
          "name": "A2",
          "ticks": 15360,
          "time": 35.55552,
          "velocity": 0.905511811023622
        },
        {
          "duration": 1.773146374999996,
          "durationTicks": 766,
          "midi": 61,
          "name": "C#4",
          "ticks": 15360,
          "time": 35.55552,
          "velocity": 0.905511811023622
        },
        {
          "duration": 1.773146374999996,
          "durationTicks": 766,
          "midi": 52,
          "name": "E3",
          "ticks": 15360,
          "time": 35.55552,
          "velocity": 0.905511811023622
        },
        {
          "duration": 1.7731463750000032,
          "durationTicks": 766,
          "midi": 61,
          "name": "C#4",
          "ticks": 16128,
          "time": 37.333296,
          "velocity": 0.905511811023622
        },
        {
          "duration": 1.7731463750000032,
          "durationTicks": 766,
          "midi": 64,
          "name": "E4",
          "ticks": 16128,
          "time": 37.333296,
          "velocity": 0.905511811023622
        },
        {
          "duration": 1.7731463750000032,
          "durationTicks": 766,
          "midi": 57,
          "name": "A3",
          "ticks": 16128,
          "time": 37.333296,
          "velocity": 0.905511811023622
        },
        {
          "duration": 1.7731463750000032,
          "durationTicks": 766,
          "midi": 45,
          "name": "A2",
          "ticks": 16128,
          "time": 37.333296,
          "velocity": 0.905511811023622
        },
        {
          "duration": 1.773146374999996,
          "durationTicks": 766,
          "midi": 57,
          "name": "A3",
          "ticks": 16896,
          "time": 39.111072,
          "velocity": 0.905511811023622
        },
        {
          "duration": 1.773146374999996,
          "durationTicks": 766,
          "midi": 50,
          "name": "D3",
          "ticks": 16896,
          "time": 39.111072,
          "velocity": 0.905511811023622
        },
        {
          "duration": 1.773146374999996,
          "durationTicks": 766,
          "midi": 62,
          "name": "D4",
          "ticks": 16896,
          "time": 39.111072,
          "velocity": 0.905511811023622
        },
        {
          "duration": 1.773146374999996,
          "durationTicks": 766,
          "midi": 66,
          "name": "F#4",
          "ticks": 16896,
          "time": 39.111072,
          "velocity": 0.905511811023622
        },
        {
          "duration": 0.4398143749999974,
          "durationTicks": 190,
          "midi": 52,
          "name": "E3",
          "ticks": 17664,
          "time": 40.888848,
          "velocity": 0.905511811023622
        },
        {
          "duration": 0.21759237499999529,
          "durationTicks": 94,
          "midi": 68,
          "name": "G#4",
          "ticks": 17664,
          "time": 40.888848,
          "velocity": 0.905511811023622
        },
        {
          "duration": 0.21759237499999529,
          "durationTicks": 94,
          "midi": 59,
          "name": "B3",
          "ticks": 17664,
          "time": 40.888848,
          "velocity": 0.905511811023622
        },
        {
          "duration": 0.2175923750000024,
          "durationTicks": 94,
          "midi": 64,
          "name": "E4",
          "ticks": 17760,
          "time": 41.11107,
          "velocity": 0.905511811023622
        },
        {
          "duration": 0.2175923750000024,
          "durationTicks": 94,
          "midi": 57,
          "name": "A3",
          "ticks": 17760,
          "time": 41.11107,
          "velocity": 0.905511811023622
        },
        {
          "duration": 0.21759237499999529,
          "durationTicks": 94,
          "midi": 68,
          "name": "G#4",
          "ticks": 17856,
          "time": 41.333292,
          "velocity": 0.905511811023622
        },
        {
          "duration": 0.21759237499999529,
          "durationTicks": 94,
          "midi": 52,
          "name": "E3",
          "ticks": 17856,
          "time": 41.333292,
          "velocity": 0.905511811023622
        },
        {
          "duration": 0.21759237499999529,
          "durationTicks": 94,
          "midi": 59,
          "name": "B3",
          "ticks": 17856,
          "time": 41.333292,
          "velocity": 0.905511811023622
        },
        {
          "duration": 0.4398143749999974,
          "durationTicks": 190,
          "midi": 61,
          "name": "C#4",
          "ticks": 17952,
          "time": 41.555514,
          "velocity": 0.905511811023622
        },
        {
          "duration": 0.4398143749999974,
          "durationTicks": 190,
          "midi": 69,
          "name": "A4",
          "ticks": 17952,
          "time": 41.555514,
          "velocity": 0.905511811023622
        },
        {
          "duration": 0.4398143749999974,
          "durationTicks": 190,
          "midi": 52,
          "name": "E3",
          "ticks": 17952,
          "time": 41.555514,
          "velocity": 0.905511811023622
        },
        {
          "duration": 0.4398143749999974,
          "durationTicks": 190,
          "midi": 59,
          "name": "B3",
          "ticks": 18144,
          "time": 41.999958,
          "velocity": 0.905511811023622
        },
        {
          "duration": 0.4398143749999974,
          "durationTicks": 190,
          "midi": 68,
          "name": "G#4",
          "ticks": 18144,
          "time": 41.999958,
          "velocity": 0.905511811023622
        },
        {
          "duration": 0.6620363749999996,
          "durationTicks": 286,
          "midi": 52,
          "name": "E3",
          "ticks": 18144,
          "time": 41.999958,
          "velocity": 0.905511811023622
        },
        {
          "duration": 3.773144374999994,
          "durationTicks": 1630,
          "midi": 57,
          "name": "A3",
          "ticks": 18336,
          "time": 42.444402000000004,
          "velocity": 0.905511811023622
        },
        {
          "duration": 3.773144374999994,
          "durationTicks": 1630,
          "midi": 64,
          "name": "E4",
          "ticks": 18336,
          "time": 42.444402000000004,
          "velocity": 0.905511811023622
        },
        {
          "duration": 3.550922374999999,
          "durationTicks": 1534,
          "midi": 61,
          "name": "C#4",
          "ticks": 18432,
          "time": 42.666624,
          "velocity": 0.905511811023622
        },
        {
          "duration": 1.7731463750000032,
          "durationTicks": 766,
          "midi": 50,
          "name": "D3",
          "ticks": 19968,
          "time": 46.222176,
          "velocity": 0.905511811023622
        },
        {
          "duration": 1.7731463750000032,
          "durationTicks": 766,
          "midi": 66,
          "name": "F#4",
          "ticks": 19968,
          "time": 46.222176,
          "velocity": 0.905511811023622
        },
        {
          "duration": 1.7731463750000032,
          "durationTicks": 766,
          "midi": 62,
          "name": "D4",
          "ticks": 19968,
          "time": 46.222176,
          "velocity": 0.905511811023622
        },
        {
          "duration": 1.773146374999996,
          "durationTicks": 766,
          "midi": 66,
          "name": "F#4",
          "ticks": 20736,
          "time": 47.999952,
          "velocity": 0.905511811023622
        },
        {
          "duration": 1.773146374999996,
          "durationTicks": 766,
          "midi": 63,
          "name": "D#4",
          "ticks": 20736,
          "time": 47.999952,
          "velocity": 0.905511811023622
        },
        {
          "duration": 1.773146374999996,
          "durationTicks": 766,
          "midi": 51,
          "name": "D#3",
          "ticks": 20736,
          "time": 47.999952,
          "velocity": 0.905511811023622
        },
        {
          "duration": 1.773146374999996,
          "durationTicks": 766,
          "midi": 64,
          "name": "E4",
          "ticks": 21504,
          "time": 49.777728,
          "velocity": 0.905511811023622
        },
        {
          "duration": 1.773146374999996,
          "durationTicks": 766,
          "midi": 52,
          "name": "E3",
          "ticks": 21504,
          "time": 49.777728,
          "velocity": 0.905511811023622
        },
        {
          "duration": 1.773146374999996,
          "durationTicks": 766,
          "midi": 61,
          "name": "C#4",
          "ticks": 21504,
          "time": 49.777728,
          "velocity": 0.905511811023622
        },
        {
          "duration": 0.6620363749999996,
          "durationTicks": 286,
          "midi": 57,
          "name": "A3",
          "ticks": 22272,
          "time": 51.555504,
          "velocity": 0.905511811023622
        },
        {
          "duration": 0.6620363749999996,
          "durationTicks": 286,
          "midi": 54,
          "name": "F#3",
          "ticks": 22272,
          "time": 51.555504,
          "velocity": 0.905511811023622
        },
        {
          "duration": 0.6620363749999996,
          "durationTicks": 286,
          "midi": 62,
          "name": "D4",
          "ticks": 22272,
          "time": 51.555504,
          "velocity": 0.905511811023622
        },
        {
          "duration": 0.6620363749999996,
          "durationTicks": 286,
          "midi": 61,
          "name": "C#4",
          "ticks": 22560,
          "time": 52.22217,
          "velocity": 0.905511811023622
        },
        {
          "duration": 0.6620363749999996,
          "durationTicks": 286,
          "midi": 57,
          "name": "A3",
          "ticks": 22560,
          "time": 52.22217,
          "velocity": 0.905511811023622
        },
        {
          "duration": 0.6620363749999996,
          "durationTicks": 286,
          "midi": 52,
          "name": "E3",
          "ticks": 22560,
          "time": 52.22217,
          "velocity": 0.905511811023622
        },
        {
          "duration": 0.6620363749999996,
          "durationTicks": 286,
          "midi": 57,
          "name": "A3",
          "ticks": 22848,
          "time": 52.888836,
          "velocity": 0.905511811023622
        },
        {
          "duration": 0.6620363749999996,
          "durationTicks": 286,
          "midi": 50,
          "name": "D3",
          "ticks": 22848,
          "time": 52.888836,
          "velocity": 0.905511811023622
        },
        {
          "duration": 0.6620363749999996,
          "durationTicks": 286,
          "midi": 59,
          "name": "B3",
          "ticks": 22848,
          "time": 52.888836,
          "velocity": 0.905511811023622
        },
        {
          "duration": 0.6620363749999925,
          "durationTicks": 286,
          "midi": 57,
          "name": "A3",
          "ticks": 23136,
          "time": 53.555502000000004,
          "velocity": 0.905511811023622
        },
        {
          "duration": 0.6620363749999925,
          "durationTicks": 286,
          "midi": 61,
          "name": "C#4",
          "ticks": 23136,
          "time": 53.555502000000004,
          "velocity": 0.905511811023622
        },
        {
          "duration": 0.6620363749999925,
          "durationTicks": 286,
          "midi": 52,
          "name": "E3",
          "ticks": 23136,
          "time": 53.555502000000004,
          "velocity": 0.905511811023622
        },
        {
          "duration": 0.4398143749999974,
          "durationTicks": 190,
          "midi": 59,
          "name": "B3",
          "ticks": 23424,
          "time": 54.222168,
          "velocity": 0.905511811023622
        },
        {
          "duration": 0.4398143749999974,
          "durationTicks": 190,
          "midi": 40,
          "name": "E2",
          "ticks": 23424,
          "time": 54.222168,
          "velocity": 0.905511811023622
        },
        {
          "duration": 0.4398143749999974,
          "durationTicks": 190,
          "midi": 57,
          "name": "A3",
          "ticks": 23424,
          "time": 54.222168,
          "velocity": 0.905511811023622
        },
        {
          "duration": 0.4398143749999974,
          "durationTicks": 190,
          "midi": 56,
          "name": "G#3",
          "ticks": 23616,
          "time": 54.666612,
          "velocity": 0.905511811023622
        },
        {
          "duration": 0.4398143749999974,
          "durationTicks": 190,
          "midi": 40,
          "name": "E2",
          "ticks": 23616,
          "time": 54.666612,
          "velocity": 0.905511811023622
        },
        {
          "duration": 1.7731463750000032,
          "durationTicks": 766,
          "midi": 45,
          "name": "A2",
          "ticks": 23808,
          "time": 55.111056,
          "velocity": 0.905511811023622
        },
        {
          "duration": 1.7731463750000032,
          "durationTicks": 766,
          "midi": 64,
          "name": "E4",
          "ticks": 23808,
          "time": 55.111056,
          "velocity": 0.905511811023622
        },
        {
          "duration": 1.7731463750000032,
          "durationTicks": 766,
          "midi": 61,
          "name": "C#4",
          "ticks": 23808,
          "time": 55.111056,
          "velocity": 0.905511811023622
        },
        {
          "duration": 1.7731463750000032,
          "durationTicks": 766,
          "midi": 52,
          "name": "E3",
          "ticks": 23808,
          "time": 55.111056,
          "velocity": 0.905511811023622
        },
        {
          "duration": 1.7731463750000032,
          "durationTicks": 766,
          "midi": 64,
          "name": "E4",
          "ticks": 24576,
          "time": 56.888832,
          "velocity": 0.905511811023622
        },
        {
          "duration": 1.7731463750000032,
          "durationTicks": 766,
          "midi": 40,
          "name": "E2",
          "ticks": 24576,
          "time": 56.888832,
          "velocity": 0.905511811023622
        },
        {
          "duration": 1.7731463750000032,
          "durationTicks": 766,
          "midi": 59,
          "name": "B3",
          "ticks": 24576,
          "time": 56.888832,
          "velocity": 0.905511811023622
        },
        {
          "duration": 1.7731463750000032,
          "durationTicks": 766,
          "midi": 56,
          "name": "G#3",
          "ticks": 24576,
          "time": 56.888832,
          "velocity": 0.905511811023622
        },
        {
          "duration": 1.7731463750000032,
          "durationTicks": 766,
          "midi": 61,
          "name": "C#4",
          "ticks": 25344,
          "time": 58.666608000000004,
          "velocity": 0.905511811023622
        },
        {
          "duration": 1.7731463750000032,
          "durationTicks": 766,
          "midi": 45,
          "name": "A2",
          "ticks": 25344,
          "time": 58.666608000000004,
          "velocity": 0.905511811023622
        },
        {
          "duration": 1.7731463750000032,
          "durationTicks": 766,
          "midi": 52,
          "name": "E3",
          "ticks": 25344,
          "time": 58.666608000000004,
          "velocity": 0.905511811023622
        },
        {
          "duration": 1.7731463750000032,
          "durationTicks": 766,
          "midi": 57,
          "name": "A3",
          "ticks": 26112,
          "time": 60.444384,
          "velocity": 0.905511811023622
        },
        {
          "duration": 1.7731463750000032,
          "durationTicks": 766,
          "midi": 61,
          "name": "C#4",
          "ticks": 26112,
          "time": 60.444384,
          "velocity": 0.905511811023622
        },
        {
          "duration": 1.7731463750000032,
          "durationTicks": 766,
          "midi": 45,
          "name": "A2",
          "ticks": 26112,
          "time": 60.444384,
          "velocity": 0.905511811023622
        },
        {
          "duration": 1.7731463750000032,
          "durationTicks": 766,
          "midi": 64,
          "name": "E4",
          "ticks": 26112,
          "time": 60.444384,
          "velocity": 0.905511811023622
        },
        {
          "duration": 1.7731463750000032,
          "durationTicks": 766,
          "midi": 50,
          "name": "D3",
          "ticks": 26880,
          "time": 62.22216,
          "velocity": 0.905511811023622
        },
        {
          "duration": 1.7731463750000032,
          "durationTicks": 766,
          "midi": 62,
          "name": "D4",
          "ticks": 26880,
          "time": 62.22216,
          "velocity": 0.905511811023622
        },
        {
          "duration": 1.7731463750000032,
          "durationTicks": 766,
          "midi": 66,
          "name": "F#4",
          "ticks": 26880,
          "time": 62.22216,
          "velocity": 0.905511811023622
        },
        {
          "duration": 1.7731463750000032,
          "durationTicks": 766,
          "midi": 57,
          "name": "A3",
          "ticks": 26880,
          "time": 62.22216,
          "velocity": 0.905511811023622
        },
        {
          "duration": 0.6620363750000067,
          "durationTicks": 286,
          "midi": 68,
          "name": "G#4",
          "ticks": 27648,
          "time": 63.999936,
          "velocity": 0.905511811023622
        },
        {
          "duration": 0.6620363750000067,
          "durationTicks": 286,
          "midi": 52,
          "name": "E3",
          "ticks": 27648,
          "time": 63.999936,
          "velocity": 0.905511811023622
        },
        {
          "duration": 0.6620363750000067,
          "durationTicks": 286,
          "midi": 64,
          "name": "E4",
          "ticks": 27648,
          "time": 63.999936,
          "velocity": 0.905511811023622
        },
        {
          "duration": 0.43981437500001164,
          "durationTicks": 190,
          "midi": 52,
          "name": "E3",
          "ticks": 27936,
          "time": 64.666602,
          "velocity": 0.905511811023622
        },
        {
          "duration": 0.43981437500001164,
          "durationTicks": 190,
          "midi": 54,
          "name": "F#3",
          "ticks": 27936,
          "time": 64.666602,
          "velocity": 0.905511811023622
        },
        {
          "duration": 0.43981437500001164,
          "durationTicks": 190,
          "midi": 66,
          "name": "F#4",
          "ticks": 27936,
          "time": 64.666602,
          "velocity": 0.905511811023622
        },
        {
          "duration": 0.43981437500001164,
          "durationTicks": 190,
          "midi": 62,
          "name": "D4",
          "ticks": 27936,
          "time": 64.666602,
          "velocity": 0.905511811023622
        },
        {
          "duration": 0.6620363749999996,
          "durationTicks": 286,
          "midi": 64,
          "name": "E4",
          "ticks": 28128,
          "time": 65.111046,
          "velocity": 0.905511811023622
        },
        {
          "duration": 0.6620363749999996,
          "durationTicks": 286,
          "midi": 56,
          "name": "G#3",
          "ticks": 28128,
          "time": 65.111046,
          "velocity": 0.905511811023622
        },
        {
          "duration": 0.6620363749999996,
          "durationTicks": 286,
          "midi": 52,
          "name": "E3",
          "ticks": 28128,
          "time": 65.111046,
          "velocity": 0.905511811023622
        },
        {
          "duration": 1.7731463750000103,
          "durationTicks": 766,
          "midi": 45,
          "name": "A2",
          "ticks": 28416,
          "time": 65.777712,
          "velocity": 0.905511811023622
        },
        {
          "duration": 1.7731463750000103,
          "durationTicks": 766,
          "midi": 61,
          "name": "C#4",
          "ticks": 28416,
          "time": 65.777712,
          "velocity": 0.905511811023622
        },
        {
          "duration": 1.7731463750000103,
          "durationTicks": 766,
          "midi": 52,
          "name": "E3",
          "ticks": 28416,
          "time": 65.777712,
          "velocity": 0.905511811023622
        },
        {
          "duration": 1.7731463750000103,
          "durationTicks": 766,
          "midi": 61,
          "name": "C#4",
          "ticks": 29184,
          "time": 67.555488,
          "velocity": 0.905511811023622
        },
        {
          "duration": 1.7731463750000103,
          "durationTicks": 766,
          "midi": 64,
          "name": "E4",
          "ticks": 29184,
          "time": 67.555488,
          "velocity": 0.905511811023622
        },
        {
          "duration": 1.7731463750000103,
          "durationTicks": 766,
          "midi": 45,
          "name": "A2",
          "ticks": 29184,
          "time": 67.555488,
          "velocity": 0.905511811023622
        },
        {
          "duration": 1.7731463750000103,
          "durationTicks": 766,
          "midi": 57,
          "name": "A3",
          "ticks": 29184,
          "time": 67.555488,
          "velocity": 0.905511811023622
        },
        {
          "duration": 1.7731463750000103,
          "durationTicks": 766,
          "midi": 57,
          "name": "A3",
          "ticks": 29952,
          "time": 69.333264,
          "velocity": 0.905511811023622
        },
        {
          "duration": 1.7731463750000103,
          "durationTicks": 766,
          "midi": 62,
          "name": "D4",
          "ticks": 29952,
          "time": 69.333264,
          "velocity": 0.905511811023622
        },
        {
          "duration": 1.7731463750000103,
          "durationTicks": 766,
          "midi": 50,
          "name": "D3",
          "ticks": 29952,
          "time": 69.333264,
          "velocity": 0.905511811023622
        },
        {
          "duration": 1.7731463750000103,
          "durationTicks": 766,
          "midi": 66,
          "name": "F#4",
          "ticks": 29952,
          "time": 69.333264,
          "velocity": 0.905511811023622
        },
        {
          "duration": 0.2175923750000095,
          "durationTicks": 94,
          "midi": 68,
          "name": "G#4",
          "ticks": 30720,
          "time": 71.11104,
          "velocity": 0.905511811023622
        },
        {
          "duration": 0.2175923750000095,
          "durationTicks": 94,
          "midi": 59,
          "name": "B3",
          "ticks": 30720,
          "time": 71.11104,
          "velocity": 0.905511811023622
        },
        {
          "duration": 0.4398143749999974,
          "durationTicks": 190,
          "midi": 52,
          "name": "E3",
          "ticks": 30720,
          "time": 71.11104,
          "velocity": 0.905511811023622
        },
        {
          "duration": 0.21759237499999529,
          "durationTicks": 94,
          "midi": 64,
          "name": "E4",
          "ticks": 30816,
          "time": 71.333262,
          "velocity": 0.905511811023622
        },
        {
          "duration": 0.21759237499999529,
          "durationTicks": 94,
          "midi": 57,
          "name": "A3",
          "ticks": 30816,
          "time": 71.333262,
          "velocity": 0.905511811023622
        },
        {
          "duration": 0.21759237499999529,
          "durationTicks": 94,
          "midi": 59,
          "name": "B3",
          "ticks": 30912,
          "time": 71.555484,
          "velocity": 0.905511811023622
        },
        {
          "duration": 0.21759237499999529,
          "durationTicks": 94,
          "midi": 68,
          "name": "G#4",
          "ticks": 30912,
          "time": 71.555484,
          "velocity": 0.905511811023622
        },
        {
          "duration": 0.21759237499999529,
          "durationTicks": 94,
          "midi": 52,
          "name": "E3",
          "ticks": 30912,
          "time": 71.555484,
          "velocity": 0.905511811023622
        },
        {
          "duration": 0.43981437500001164,
          "durationTicks": 190,
          "midi": 61,
          "name": "C#4",
          "ticks": 31008,
          "time": 71.777706,
          "velocity": 0.905511811023622
        },
        {
          "duration": 0.43981437500001164,
          "durationTicks": 190,
          "midi": 69,
          "name": "A4",
          "ticks": 31008,
          "time": 71.777706,
          "velocity": 0.905511811023622
        },
        {
          "duration": 0.43981437500001164,
          "durationTicks": 190,
          "midi": 52,
          "name": "E3",
          "ticks": 31008,
          "time": 71.777706,
          "velocity": 0.905511811023622
        },
        {
          "duration": 0.43981437500001164,
          "durationTicks": 190,
          "midi": 68,
          "name": "G#4",
          "ticks": 31200,
          "time": 72.22215,
          "velocity": 0.905511811023622
        },
        {
          "duration": 0.43981437500001164,
          "durationTicks": 190,
          "midi": 59,
          "name": "B3",
          "ticks": 31200,
          "time": 72.22215,
          "velocity": 0.905511811023622
        },
        {
          "duration": 0.6620363749999996,
          "durationTicks": 286,
          "midi": 52,
          "name": "E3",
          "ticks": 31200,
          "time": 72.22215,
          "velocity": 0.905511811023622
        },
        {
          "duration": 3.773144375000001,
          "durationTicks": 1630,
          "midi": 64,
          "name": "E4",
          "ticks": 31392,
          "time": 72.666594,
          "velocity": 0.905511811023622
        },
        {
          "duration": 3.773144375000001,
          "durationTicks": 1630,
          "midi": 57,
          "name": "A3",
          "ticks": 31392,
          "time": 72.666594,
          "velocity": 0.905511811023622
        },
        {
          "duration": 3.550922374999999,
          "durationTicks": 1534,
          "midi": 61,
          "name": "C#4",
          "ticks": 31488,
          "time": 72.888816,
          "velocity": 0.905511811023622
        },
        {
          "duration": 1.7731463750000103,
          "durationTicks": 766,
          "midi": 50,
          "name": "D3",
          "ticks": 33024,
          "time": 76.444368,
          "velocity": 0.905511811023622
        },
        {
          "duration": 1.7731463750000103,
          "durationTicks": 766,
          "midi": 66,
          "name": "F#4",
          "ticks": 33024,
          "time": 76.444368,
          "velocity": 0.905511811023622
        },
        {
          "duration": 1.7731463750000103,
          "durationTicks": 766,
          "midi": 62,
          "name": "D4",
          "ticks": 33024,
          "time": 76.444368,
          "velocity": 0.905511811023622
        },
        {
          "duration": 1.7731463750000103,
          "durationTicks": 766,
          "midi": 51,
          "name": "D#3",
          "ticks": 33792,
          "time": 78.222144,
          "velocity": 0.905511811023622
        },
        {
          "duration": 1.7731463750000103,
          "durationTicks": 766,
          "midi": 66,
          "name": "F#4",
          "ticks": 33792,
          "time": 78.222144,
          "velocity": 0.905511811023622
        },
        {
          "duration": 1.7731463750000103,
          "durationTicks": 766,
          "midi": 63,
          "name": "D#4",
          "ticks": 33792,
          "time": 78.222144,
          "velocity": 0.905511811023622
        },
        {
          "duration": 1.773146374999996,
          "durationTicks": 766,
          "midi": 52,
          "name": "E3",
          "ticks": 34560,
          "time": 79.99992,
          "velocity": 0.905511811023622
        },
        {
          "duration": 1.773146374999996,
          "durationTicks": 766,
          "midi": 61,
          "name": "C#4",
          "ticks": 34560,
          "time": 79.99992,
          "velocity": 0.905511811023622
        },
        {
          "duration": 1.773146374999996,
          "durationTicks": 766,
          "midi": 64,
          "name": "E4",
          "ticks": 34560,
          "time": 79.99992,
          "velocity": 0.905511811023622
        },
        {
          "duration": 0.6620363749999996,
          "durationTicks": 286,
          "midi": 54,
          "name": "F#3",
          "ticks": 35328,
          "time": 81.777696,
          "velocity": 0.905511811023622
        },
        {
          "duration": 0.6620363749999996,
          "durationTicks": 286,
          "midi": 62,
          "name": "D4",
          "ticks": 35328,
          "time": 81.777696,
          "velocity": 0.905511811023622
        },
        {
          "duration": 0.6620363749999996,
          "durationTicks": 286,
          "midi": 57,
          "name": "A3",
          "ticks": 35328,
          "time": 81.777696,
          "velocity": 0.905511811023622
        },
        {
          "duration": 0.6620363750000138,
          "durationTicks": 286,
          "midi": 61,
          "name": "C#4",
          "ticks": 35616,
          "time": 82.444362,
          "velocity": 0.905511811023622
        },
        {
          "duration": 0.6620363750000138,
          "durationTicks": 286,
          "midi": 52,
          "name": "E3",
          "ticks": 35616,
          "time": 82.444362,
          "velocity": 0.905511811023622
        },
        {
          "duration": 0.6620363750000138,
          "durationTicks": 286,
          "midi": 57,
          "name": "A3",
          "ticks": 35616,
          "time": 82.444362,
          "velocity": 0.905511811023622
        },
        {
          "duration": 0.6620363749999996,
          "durationTicks": 286,
          "midi": 50,
          "name": "D3",
          "ticks": 35904,
          "time": 83.111028,
          "velocity": 0.905511811023622
        },
        {
          "duration": 0.6620363749999996,
          "durationTicks": 286,
          "midi": 57,
          "name": "A3",
          "ticks": 35904,
          "time": 83.111028,
          "velocity": 0.905511811023622
        },
        {
          "duration": 0.6620363749999996,
          "durationTicks": 286,
          "midi": 59,
          "name": "B3",
          "ticks": 35904,
          "time": 83.111028,
          "velocity": 0.905511811023622
        },
        {
          "duration": 0.6620363750000138,
          "durationTicks": 286,
          "midi": 52,
          "name": "E3",
          "ticks": 36192,
          "time": 83.777694,
          "velocity": 0.905511811023622
        },
        {
          "duration": 0.6620363750000138,
          "durationTicks": 286,
          "midi": 61,
          "name": "C#4",
          "ticks": 36192,
          "time": 83.777694,
          "velocity": 0.905511811023622
        },
        {
          "duration": 0.6620363750000138,
          "durationTicks": 286,
          "midi": 57,
          "name": "A3",
          "ticks": 36192,
          "time": 83.777694,
          "velocity": 0.905511811023622
        },
        {
          "duration": 0.4398143749999974,
          "durationTicks": 190,
          "midi": 40,
          "name": "E2",
          "ticks": 36480,
          "time": 84.44436,
          "velocity": 0.905511811023622
        },
        {
          "duration": 0.4398143749999974,
          "durationTicks": 190,
          "midi": 57,
          "name": "A3",
          "ticks": 36480,
          "time": 84.44436,
          "velocity": 0.905511811023622
        },
        {
          "duration": 0.4398143749999974,
          "durationTicks": 190,
          "midi": 59,
          "name": "B3",
          "ticks": 36480,
          "time": 84.44436,
          "velocity": 0.905511811023622
        },
        {
          "duration": 0.4398143749999974,
          "durationTicks": 190,
          "midi": 56,
          "name": "G#3",
          "ticks": 36672,
          "time": 84.88880400000001,
          "velocity": 0.905511811023622
        },
        {
          "duration": 0.4398143749999974,
          "durationTicks": 190,
          "midi": 40,
          "name": "E2",
          "ticks": 36672,
          "time": 84.88880400000001,
          "velocity": 0.905511811023622
        },
        {
          "duration": 1.7731463750000103,
          "durationTicks": 766,
          "midi": 45,
          "name": "A2",
          "ticks": 36864,
          "time": 85.333248,
          "velocity": 0.905511811023622
        },
        {
          "duration": 1.7731463750000103,
          "durationTicks": 766,
          "midi": 52,
          "name": "E3",
          "ticks": 36864,
          "time": 85.333248,
          "velocity": 0.905511811023622
        },
        {
          "duration": 1.7731463750000103,
          "durationTicks": 766,
          "midi": 64,
          "name": "E4",
          "ticks": 36864,
          "time": 85.333248,
          "velocity": 0.905511811023622
        },
        {
          "duration": 1.7731463750000103,
          "durationTicks": 766,
          "midi": 61,
          "name": "C#4",
          "ticks": 36864,
          "time": 85.333248,
          "velocity": 0.905511811023622
        },
        {
          "duration": 0.43981437500001164,
          "durationTicks": 190,
          "midi": 68,
          "name": "G#4",
          "ticks": 37632,
          "time": 87.111024,
          "velocity": 0.905511811023622
        },
        {
          "duration": 0.43981437500001164,
          "durationTicks": 190,
          "midi": 47,
          "name": "B2",
          "ticks": 37632,
          "time": 87.111024,
          "velocity": 0.905511811023622
        },
        {
          "duration": 0.43981437500001164,
          "durationTicks": 190,
          "midi": 59,
          "name": "B3",
          "ticks": 37632,
          "time": 87.111024,
          "velocity": 0.905511811023622
        },
        {
          "duration": 0.43981437500001164,
          "durationTicks": 190,
          "midi": 40,
          "name": "E2",
          "ticks": 37632,
          "time": 87.111024,
          "velocity": 0.905511811023622
        },
        {
          "duration": 0.4398143749999974,
          "durationTicks": 190,
          "midi": 47,
          "name": "B2",
          "ticks": 37824,
          "time": 87.555468,
          "velocity": 0.905511811023622
        },
        {
          "duration": 0.4398143749999974,
          "durationTicks": 190,
          "midi": 40,
          "name": "E2",
          "ticks": 37824,
          "time": 87.555468,
          "velocity": 0.905511811023622
        },
        {
          "duration": 0.4398143749999974,
          "durationTicks": 190,
          "midi": 68,
          "name": "G#4",
          "ticks": 37824,
          "time": 87.555468,
          "velocity": 0.905511811023622
        },
        {
          "duration": 0.4398143749999974,
          "durationTicks": 190,
          "midi": 59,
          "name": "B3",
          "ticks": 37824,
          "time": 87.555468,
          "velocity": 0.905511811023622
        },
        {
          "duration": 0.6620363749999996,
          "durationTicks": 286,
          "midi": 48,
          "name": "C3",
          "ticks": 38304,
          "time": 88.666578,
          "velocity": 0.905511811023622
        },
        {
          "duration": 0.6620363749999996,
          "durationTicks": 286,
          "midi": 64,
          "name": "E4",
          "ticks": 38304,
          "time": 88.666578,
          "velocity": 0.905511811023622
        },
        {
          "duration": 0.6620363749999996,
          "durationTicks": 286,
          "midi": 67,
          "name": "G4",
          "ticks": 38304,
          "time": 88.666578,
          "velocity": 0.905511811023622
        },
        {
          "duration": 0.6620363749999996,
          "durationTicks": 286,
          "midi": 67,
          "name": "G4",
          "ticks": 38592,
          "time": 89.33324400000001,
          "velocity": 0.905511811023622
        },
        {
          "duration": 0.6620363749999996,
          "durationTicks": 286,
          "midi": 43,
          "name": "G2",
          "ticks": 38592,
          "time": 89.33324400000001,
          "velocity": 0.905511811023622
        },
        {
          "duration": 0.6620363749999996,
          "durationTicks": 286,
          "midi": 62,
          "name": "D4",
          "ticks": 38592,
          "time": 89.33324400000001,
          "velocity": 0.905511811023622
        },
        {
          "duration": 0.6620363749999996,
          "durationTicks": 286,
          "midi": 62,
          "name": "D4",
          "ticks": 38880,
          "time": 89.99991,
          "velocity": 0.905511811023622
        },
        {
          "duration": 0.6620363749999996,
          "durationTicks": 286,
          "midi": 66,
          "name": "F#4",
          "ticks": 38880,
          "time": 89.99991,
          "velocity": 0.905511811023622
        },
        {
          "duration": 0.6620363749999996,
          "durationTicks": 286,
          "midi": 42,
          "name": "F#2",
          "ticks": 38880,
          "time": 89.99991,
          "velocity": 0.905511811023622
        },
        {
          "duration": 0.4398143749999974,
          "durationTicks": 190,
          "midi": 66,
          "name": "F#4",
          "ticks": 39168,
          "time": 90.666576,
          "velocity": 0.905511811023622
        },
        {
          "duration": 0.4398143749999974,
          "durationTicks": 190,
          "midi": 62,
          "name": "D4",
          "ticks": 39168,
          "time": 90.666576,
          "velocity": 0.905511811023622
        },
        {
          "duration": 0.21759237499999529,
          "durationTicks": 94,
          "midi": 38,
          "name": "D2",
          "ticks": 39168,
          "time": 90.666576,
          "velocity": 0.905511811023622
        },
        {
          "duration": 0.2175923750000095,
          "durationTicks": 94,
          "midi": 42,
          "name": "F#2",
          "ticks": 39264,
          "time": 90.888798,
          "velocity": 0.905511811023622
        },
        {
          "duration": 1.7731463750000103,
          "durationTicks": 766,
          "midi": 45,
          "name": "A2",
          "ticks": 39360,
          "time": 91.11102,
          "velocity": 0.905511811023622
        },
        {
          "duration": 1.7731463750000103,
          "durationTicks": 766,
          "midi": 52,
          "name": "E3",
          "ticks": 39360,
          "time": 91.11102,
          "velocity": 0.905511811023622
        },
        {
          "duration": 1.7731463750000103,
          "durationTicks": 766,
          "midi": 64,
          "name": "E4",
          "ticks": 39360,
          "time": 91.11102,
          "velocity": 0.905511811023622
        },
        {
          "duration": 1.7731463750000103,
          "durationTicks": 766,
          "midi": 61,
          "name": "C#4",
          "ticks": 39360,
          "time": 91.11102,
          "velocity": 0.905511811023622
        },
        {
          "duration": 0.43981437500001164,
          "durationTicks": 190,
          "midi": 40,
          "name": "E2",
          "ticks": 40128,
          "time": 92.888796,
          "velocity": 0.905511811023622
        },
        {
          "duration": 0.43981437500001164,
          "durationTicks": 190,
          "midi": 59,
          "name": "B3",
          "ticks": 40128,
          "time": 92.888796,
          "velocity": 0.905511811023622
        },
        {
          "duration": 0.43981437500001164,
          "durationTicks": 190,
          "midi": 68,
          "name": "G#4",
          "ticks": 40128,
          "time": 92.888796,
          "velocity": 0.905511811023622
        },
        {
          "duration": 0.43981437500001164,
          "durationTicks": 190,
          "midi": 47,
          "name": "B2",
          "ticks": 40128,
          "time": 92.888796,
          "velocity": 0.905511811023622
        },
        {
          "duration": 0.4398143749999974,
          "durationTicks": 190,
          "midi": 68,
          "name": "G#4",
          "ticks": 40320,
          "time": 93.33324,
          "velocity": 0.905511811023622
        },
        {
          "duration": 0.4398143749999974,
          "durationTicks": 190,
          "midi": 59,
          "name": "B3",
          "ticks": 40320,
          "time": 93.33324,
          "velocity": 0.905511811023622
        },
        {
          "duration": 0.4398143749999974,
          "durationTicks": 190,
          "midi": 47,
          "name": "B2",
          "ticks": 40320,
          "time": 93.33324,
          "velocity": 0.905511811023622
        },
        {
          "duration": 0.4398143749999974,
          "durationTicks": 190,
          "midi": 40,
          "name": "E2",
          "ticks": 40320,
          "time": 93.33324,
          "velocity": 0.905511811023622
        },
        {
          "duration": 0.6620363749999996,
          "durationTicks": 286,
          "midi": 48,
          "name": "C3",
          "ticks": 40800,
          "time": 94.44435,
          "velocity": 0.905511811023622
        },
        {
          "duration": 0.6620363749999996,
          "durationTicks": 286,
          "midi": 67,
          "name": "G4",
          "ticks": 40800,
          "time": 94.44435,
          "velocity": 0.905511811023622
        },
        {
          "duration": 0.6620363749999996,
          "durationTicks": 286,
          "midi": 64,
          "name": "E4",
          "ticks": 40800,
          "time": 94.44435,
          "velocity": 0.905511811023622
        },
        {
          "duration": 0.6620363749999996,
          "durationTicks": 286,
          "midi": 62,
          "name": "D4",
          "ticks": 41088,
          "time": 95.111016,
          "velocity": 0.905511811023622
        },
        {
          "duration": 0.6620363749999996,
          "durationTicks": 286,
          "midi": 43,
          "name": "G2",
          "ticks": 41088,
          "time": 95.111016,
          "velocity": 0.905511811023622
        },
        {
          "duration": 0.6620363749999996,
          "durationTicks": 286,
          "midi": 67,
          "name": "G4",
          "ticks": 41088,
          "time": 95.111016,
          "velocity": 0.905511811023622
        },
        {
          "duration": 0.6620363750000138,
          "durationTicks": 286,
          "midi": 62,
          "name": "D4",
          "ticks": 41376,
          "time": 95.777682,
          "velocity": 0.905511811023622
        },
        {
          "duration": 0.6620363750000138,
          "durationTicks": 286,
          "midi": 66,
          "name": "F#4",
          "ticks": 41376,
          "time": 95.777682,
          "velocity": 0.905511811023622
        },
        {
          "duration": 0.6620363750000138,
          "durationTicks": 286,
          "midi": 42,
          "name": "F#2",
          "ticks": 41376,
          "time": 95.777682,
          "velocity": 0.905511811023622
        },
        {
          "duration": 0.4398143749999974,
          "durationTicks": 190,
          "midi": 66,
          "name": "F#4",
          "ticks": 41664,
          "time": 96.444348,
          "velocity": 0.905511811023622
        },
        {
          "duration": 0.4398143749999974,
          "durationTicks": 190,
          "midi": 62,
          "name": "D4",
          "ticks": 41664,
          "time": 96.444348,
          "velocity": 0.905511811023622
        },
        {
          "duration": 0.21759237499999529,
          "durationTicks": 94,
          "midi": 38,
          "name": "D2",
          "ticks": 41664,
          "time": 96.444348,
          "velocity": 0.905511811023622
        },
        {
          "duration": 0.21759237499999529,
          "durationTicks": 94,
          "midi": 42,
          "name": "F#2",
          "ticks": 41760,
          "time": 96.66657000000001,
          "velocity": 0.905511811023622
        },
        {
          "duration": 1.7731463750000103,
          "durationTicks": 766,
          "midi": 61,
          "name": "C#4",
          "ticks": 41856,
          "time": 96.888792,
          "velocity": 0.905511811023622
        },
        {
          "duration": 1.7731463750000103,
          "durationTicks": 766,
          "midi": 64,
          "name": "E4",
          "ticks": 41856,
          "time": 96.888792,
          "velocity": 0.905511811023622
        },
        {
          "duration": 1.7731463750000103,
          "durationTicks": 766,
          "midi": 45,
          "name": "A2",
          "ticks": 41856,
          "time": 96.888792,
          "velocity": 0.905511811023622
        },
        {
          "duration": 1.7731463750000103,
          "durationTicks": 766,
          "midi": 52,
          "name": "E3",
          "ticks": 41856,
          "time": 96.888792,
          "velocity": 0.905511811023622
        },
        {
          "duration": 0.43981437500001164,
          "durationTicks": 190,
          "midi": 40,
          "name": "E2",
          "ticks": 42624,
          "time": 98.666568,
          "velocity": 0.905511811023622
        },
        {
          "duration": 0.43981437500001164,
          "durationTicks": 190,
          "midi": 68,
          "name": "G#4",
          "ticks": 42624,
          "time": 98.666568,
          "velocity": 0.905511811023622
        },
        {
          "duration": 0.43981437500001164,
          "durationTicks": 190,
          "midi": 47,
          "name": "B2",
          "ticks": 42624,
          "time": 98.666568,
          "velocity": 0.905511811023622
        },
        {
          "duration": 0.43981437500001164,
          "durationTicks": 190,
          "midi": 59,
          "name": "B3",
          "ticks": 42624,
          "time": 98.666568,
          "velocity": 0.905511811023622
        },
        {
          "duration": 0.4398143749999974,
          "durationTicks": 190,
          "midi": 40,
          "name": "E2",
          "ticks": 42816,
          "time": 99.111012,
          "velocity": 0.905511811023622
        },
        {
          "duration": 0.4398143749999974,
          "durationTicks": 190,
          "midi": 47,
          "name": "B2",
          "ticks": 42816,
          "time": 99.111012,
          "velocity": 0.905511811023622
        },
        {
          "duration": 0.4398143749999974,
          "durationTicks": 190,
          "midi": 68,
          "name": "G#4",
          "ticks": 42816,
          "time": 99.111012,
          "velocity": 0.905511811023622
        },
        {
          "duration": 0.4398143749999974,
          "durationTicks": 190,
          "midi": 59,
          "name": "B3",
          "ticks": 42816,
          "time": 99.111012,
          "velocity": 0.905511811023622
        },
        {
          "duration": 0.6620363750000138,
          "durationTicks": 286,
          "midi": 67,
          "name": "G4",
          "ticks": 43296,
          "time": 100.222122,
          "velocity": 0.905511811023622
        },
        {
          "duration": 0.6620363750000138,
          "durationTicks": 286,
          "midi": 48,
          "name": "C3",
          "ticks": 43296,
          "time": 100.222122,
          "velocity": 0.905511811023622
        },
        {
          "duration": 0.6620363750000138,
          "durationTicks": 286,
          "midi": 64,
          "name": "E4",
          "ticks": 43296,
          "time": 100.222122,
          "velocity": 0.905511811023622
        },
        {
          "duration": 0.6620363749999996,
          "durationTicks": 286,
          "midi": 62,
          "name": "D4",
          "ticks": 43584,
          "time": 100.888788,
          "velocity": 0.905511811023622
        },
        {
          "duration": 0.6620363749999996,
          "durationTicks": 286,
          "midi": 43,
          "name": "G2",
          "ticks": 43584,
          "time": 100.888788,
          "velocity": 0.905511811023622
        },
        {
          "duration": 0.6620363749999996,
          "durationTicks": 286,
          "midi": 67,
          "name": "G4",
          "ticks": 43584,
          "time": 100.888788,
          "velocity": 0.905511811023622
        },
        {
          "duration": 0.6620363750000138,
          "durationTicks": 286,
          "midi": 62,
          "name": "D4",
          "ticks": 43872,
          "time": 101.555454,
          "velocity": 0.905511811023622
        },
        {
          "duration": 0.6620363750000138,
          "durationTicks": 286,
          "midi": 66,
          "name": "F#4",
          "ticks": 43872,
          "time": 101.555454,
          "velocity": 0.905511811023622
        },
        {
          "duration": 0.6620363750000138,
          "durationTicks": 286,
          "midi": 42,
          "name": "F#2",
          "ticks": 43872,
          "time": 101.555454,
          "velocity": 0.905511811023622
        },
        {
          "duration": 0.4398143749999974,
          "durationTicks": 190,
          "midi": 62,
          "name": "D4",
          "ticks": 44160,
          "time": 102.22212,
          "velocity": 0.905511811023622
        },
        {
          "duration": 0.21759237499999529,
          "durationTicks": 94,
          "midi": 38,
          "name": "D2",
          "ticks": 44160,
          "time": 102.22212,
          "velocity": 0.905511811023622
        },
        {
          "duration": 0.4398143749999974,
          "durationTicks": 190,
          "midi": 66,
          "name": "F#4",
          "ticks": 44160,
          "time": 102.22212,
          "velocity": 0.905511811023622
        },
        {
          "duration": 0.21759237499999529,
          "durationTicks": 94,
          "midi": 42,
          "name": "F#2",
          "ticks": 44256,
          "time": 102.444342,
          "velocity": 0.905511811023622
        },
        {
          "duration": 1.773146374999996,
          "durationTicks": 766,
          "midi": 61,
          "name": "C#4",
          "ticks": 44352,
          "time": 102.66656400000001,
          "velocity": 0.905511811023622
        },
        {
          "duration": 1.773146374999996,
          "durationTicks": 766,
          "midi": 45,
          "name": "A2",
          "ticks": 44352,
          "time": 102.66656400000001,
          "velocity": 0.905511811023622
        },
        {
          "duration": 1.773146374999996,
          "durationTicks": 766,
          "midi": 64,
          "name": "E4",
          "ticks": 44352,
          "time": 102.66656400000001,
          "velocity": 0.905511811023622
        },
        {
          "duration": 1.773146374999996,
          "durationTicks": 766,
          "midi": 52,
          "name": "E3",
          "ticks": 44352,
          "time": 102.66656400000001,
          "velocity": 0.905511811023622
        },
        {
          "duration": 0.43981437500001164,
          "durationTicks": 190,
          "midi": 68,
          "name": "G#4",
          "ticks": 45120,
          "time": 104.44434,
          "velocity": 0.905511811023622
        },
        {
          "duration": 0.43981437500001164,
          "durationTicks": 190,
          "midi": 47,
          "name": "B2",
          "ticks": 45120,
          "time": 104.44434,
          "velocity": 0.905511811023622
        },
        {
          "duration": 0.43981437500001164,
          "durationTicks": 190,
          "midi": 59,
          "name": "B3",
          "ticks": 45120,
          "time": 104.44434,
          "velocity": 0.905511811023622
        },
        {
          "duration": 0.43981437500001164,
          "durationTicks": 190,
          "midi": 40,
          "name": "E2",
          "ticks": 45120,
          "time": 104.44434,
          "velocity": 0.905511811023622
        },
        {
          "duration": 0.4398143749999974,
          "durationTicks": 190,
          "midi": 47,
          "name": "B2",
          "ticks": 45312,
          "time": 104.888784,
          "velocity": 0.905511811023622
        },
        {
          "duration": 0.4398143749999974,
          "durationTicks": 190,
          "midi": 40,
          "name": "E2",
          "ticks": 45312,
          "time": 104.888784,
          "velocity": 0.905511811023622
        },
        {
          "duration": 0.4398143749999974,
          "durationTicks": 190,
          "midi": 68,
          "name": "G#4",
          "ticks": 45312,
          "time": 104.888784,
          "velocity": 0.905511811023622
        },
        {
          "duration": 0.4398143749999974,
          "durationTicks": 190,
          "midi": 59,
          "name": "B3",
          "ticks": 45312,
          "time": 104.888784,
          "velocity": 0.905511811023622
        },
        {
          "duration": 0.6620363750000138,
          "durationTicks": 286,
          "midi": 48,
          "name": "C3",
          "ticks": 45792,
          "time": 105.999894,
          "velocity": 0.905511811023622
        },
        {
          "duration": 0.6620363750000138,
          "durationTicks": 286,
          "midi": 67,
          "name": "G4",
          "ticks": 45792,
          "time": 105.999894,
          "velocity": 0.905511811023622
        },
        {
          "duration": 0.6620363750000138,
          "durationTicks": 286,
          "midi": 64,
          "name": "E4",
          "ticks": 45792,
          "time": 105.999894,
          "velocity": 0.905511811023622
        },
        {
          "duration": 0.6620363749999996,
          "durationTicks": 286,
          "midi": 67,
          "name": "G4",
          "ticks": 46080,
          "time": 106.66656,
          "velocity": 0.905511811023622
        },
        {
          "duration": 0.6620363749999996,
          "durationTicks": 286,
          "midi": 62,
          "name": "D4",
          "ticks": 46080,
          "time": 106.66656,
          "velocity": 0.905511811023622
        },
        {
          "duration": 0.6620363749999996,
          "durationTicks": 286,
          "midi": 43,
          "name": "G2",
          "ticks": 46080,
          "time": 106.66656,
          "velocity": 0.905511811023622
        },
        {
          "duration": 0.6620363750000138,
          "durationTicks": 286,
          "midi": 62,
          "name": "D4",
          "ticks": 46368,
          "time": 107.333226,
          "velocity": 0.905511811023622
        },
        {
          "duration": 0.6620363750000138,
          "durationTicks": 286,
          "midi": 66,
          "name": "F#4",
          "ticks": 46368,
          "time": 107.333226,
          "velocity": 0.905511811023622
        },
        {
          "duration": 0.6620363750000138,
          "durationTicks": 286,
          "midi": 42,
          "name": "F#2",
          "ticks": 46368,
          "time": 107.333226,
          "velocity": 0.905511811023622
        },
        {
          "duration": 0.4398143749999974,
          "durationTicks": 190,
          "midi": 62,
          "name": "D4",
          "ticks": 46656,
          "time": 107.999892,
          "velocity": 0.905511811023622
        },
        {
          "duration": 0.2175923750000095,
          "durationTicks": 94,
          "midi": 38,
          "name": "D2",
          "ticks": 46656,
          "time": 107.999892,
          "velocity": 0.905511811023622
        },
        {
          "duration": 0.4398143749999974,
          "durationTicks": 190,
          "midi": 66,
          "name": "F#4",
          "ticks": 46656,
          "time": 107.999892,
          "velocity": 0.905511811023622
        },
        {
          "duration": 0.21759237499999529,
          "durationTicks": 94,
          "midi": 42,
          "name": "F#2",
          "ticks": 46752,
          "time": 108.222114,
          "velocity": 0.905511811023622
        },
        {
          "duration": 1.773146374999996,
          "durationTicks": 766,
          "midi": 45,
          "name": "A2",
          "ticks": 46848,
          "time": 108.444336,
          "velocity": 0.905511811023622
        },
        {
          "duration": 1.773146374999996,
          "durationTicks": 766,
          "midi": 52,
          "name": "E3",
          "ticks": 46848,
          "time": 108.444336,
          "velocity": 0.905511811023622
        },
        {
          "duration": 1.773146374999996,
          "durationTicks": 766,
          "midi": 64,
          "name": "E4",
          "ticks": 46848,
          "time": 108.444336,
          "velocity": 0.905511811023622
        },
        {
          "duration": 1.773146374999996,
          "durationTicks": 766,
          "midi": 61,
          "name": "C#4",
          "ticks": 46848,
          "time": 108.444336,
          "velocity": 0.905511811023622
        },
        {
          "duration": 0.43981437500001164,
          "durationTicks": 190,
          "midi": 40,
          "name": "E2",
          "ticks": 47616,
          "time": 110.222112,
          "velocity": 0.905511811023622
        },
        {
          "duration": 0.43981437500001164,
          "durationTicks": 190,
          "midi": 47,
          "name": "B2",
          "ticks": 47616,
          "time": 110.222112,
          "velocity": 0.905511811023622
        },
        {
          "duration": 0.43981437500001164,
          "durationTicks": 190,
          "midi": 68,
          "name": "G#4",
          "ticks": 47616,
          "time": 110.222112,
          "velocity": 0.905511811023622
        },
        {
          "duration": 0.43981437500001164,
          "durationTicks": 190,
          "midi": 59,
          "name": "B3",
          "ticks": 47616,
          "time": 110.222112,
          "velocity": 0.905511811023622
        },
        {
          "duration": 0.43981437500001164,
          "durationTicks": 190,
          "midi": 47,
          "name": "B2",
          "ticks": 47808,
          "time": 110.666556,
          "velocity": 0.905511811023622
        },
        {
          "duration": 0.43981437500001164,
          "durationTicks": 190,
          "midi": 40,
          "name": "E2",
          "ticks": 47808,
          "time": 110.666556,
          "velocity": 0.905511811023622
        },
        {
          "duration": 0.43981437500001164,
          "durationTicks": 190,
          "midi": 68,
          "name": "G#4",
          "ticks": 47808,
          "time": 110.666556,
          "velocity": 0.905511811023622
        },
        {
          "duration": 0.43981437500001164,
          "durationTicks": 190,
          "midi": 59,
          "name": "B3",
          "ticks": 47808,
          "time": 110.666556,
          "velocity": 0.905511811023622
        },
        {
          "duration": 0.6620363750000138,
          "durationTicks": 286,
          "midi": 67,
          "name": "G4",
          "ticks": 48288,
          "time": 111.777666,
          "velocity": 0.905511811023622
        },
        {
          "duration": 0.6620363750000138,
          "durationTicks": 286,
          "midi": 64,
          "name": "E4",
          "ticks": 48288,
          "time": 111.777666,
          "velocity": 0.905511811023622
        },
        {
          "duration": 0.6620363750000138,
          "durationTicks": 286,
          "midi": 48,
          "name": "C3",
          "ticks": 48288,
          "time": 111.777666,
          "velocity": 0.905511811023622
        },
        {
          "duration": 0.6620363749999996,
          "durationTicks": 286,
          "midi": 62,
          "name": "D4",
          "ticks": 48576,
          "time": 112.444332,
          "velocity": 0.905511811023622
        },
        {
          "duration": 0.6620363749999996,
          "durationTicks": 286,
          "midi": 67,
          "name": "G4",
          "ticks": 48576,
          "time": 112.444332,
          "velocity": 0.905511811023622
        },
        {
          "duration": 0.6620363749999996,
          "durationTicks": 286,
          "midi": 43,
          "name": "G2",
          "ticks": 48576,
          "time": 112.444332,
          "velocity": 0.905511811023622
        },
        {
          "duration": 0.6620363750000138,
          "durationTicks": 286,
          "midi": 66,
          "name": "F#4",
          "ticks": 48864,
          "time": 113.110998,
          "velocity": 0.905511811023622
        },
        {
          "duration": 0.6620363750000138,
          "durationTicks": 286,
          "midi": 42,
          "name": "F#2",
          "ticks": 48864,
          "time": 113.110998,
          "velocity": 0.905511811023622
        },
        {
          "duration": 0.6620363750000138,
          "durationTicks": 286,
          "midi": 62,
          "name": "D4",
          "ticks": 48864,
          "time": 113.110998,
          "velocity": 0.905511811023622
        },
        {
          "duration": 0.4398143749999974,
          "durationTicks": 190,
          "midi": 66,
          "name": "F#4",
          "ticks": 49152,
          "time": 113.777664,
          "velocity": 0.905511811023622
        },
        {
          "duration": 0.4398143749999974,
          "durationTicks": 190,
          "midi": 62,
          "name": "D4",
          "ticks": 49152,
          "time": 113.777664,
          "velocity": 0.905511811023622
        },
        {
          "duration": 0.21759237499999529,
          "durationTicks": 94,
          "midi": 38,
          "name": "D2",
          "ticks": 49152,
          "time": 113.777664,
          "velocity": 0.905511811023622
        },
        {
          "duration": 0.21759237499999529,
          "durationTicks": 94,
          "midi": 42,
          "name": "F#2",
          "ticks": 49248,
          "time": 113.999886,
          "velocity": 0.905511811023622
        },
        {
          "duration": 1.7731463749999818,
          "durationTicks": 766,
          "midi": 64,
          "name": "E4",
          "ticks": 49344,
          "time": 114.222108,
          "velocity": 0.905511811023622
        },
        {
          "duration": 1.7731463749999818,
          "durationTicks": 766,
          "midi": 45,
          "name": "A2",
          "ticks": 49344,
          "time": 114.222108,
          "velocity": 0.905511811023622
        },
        {
          "duration": 1.7731463749999818,
          "durationTicks": 766,
          "midi": 61,
          "name": "C#4",
          "ticks": 49344,
          "time": 114.222108,
          "velocity": 0.905511811023622
        },
        {
          "duration": 1.7731463749999818,
          "durationTicks": 766,
          "midi": 52,
          "name": "E3",
          "ticks": 49344,
          "time": 114.222108,
          "velocity": 0.905511811023622
        },
        {
          "duration": 0.4398143749999974,
          "durationTicks": 190,
          "midi": 47,
          "name": "B2",
          "ticks": 50112,
          "time": 115.999884,
          "velocity": 0.905511811023622
        },
        {
          "duration": 0.4398143749999974,
          "durationTicks": 190,
          "midi": 59,
          "name": "B3",
          "ticks": 50112,
          "time": 115.999884,
          "velocity": 0.905511811023622
        },
        {
          "duration": 0.4398143749999974,
          "durationTicks": 190,
          "midi": 40,
          "name": "E2",
          "ticks": 50112,
          "time": 115.999884,
          "velocity": 0.905511811023622
        },
        {
          "duration": 0.4398143749999974,
          "durationTicks": 190,
          "midi": 68,
          "name": "G#4",
          "ticks": 50112,
          "time": 115.999884,
          "velocity": 0.905511811023622
        },
        {
          "duration": 0.4398143749999974,
          "durationTicks": 190,
          "midi": 59,
          "name": "B3",
          "ticks": 50304,
          "time": 116.444328,
          "velocity": 0.905511811023622
        },
        {
          "duration": 0.4398143749999974,
          "durationTicks": 190,
          "midi": 47,
          "name": "B2",
          "ticks": 50304,
          "time": 116.444328,
          "velocity": 0.905511811023622
        },
        {
          "duration": 0.4398143749999974,
          "durationTicks": 190,
          "midi": 40,
          "name": "E2",
          "ticks": 50304,
          "time": 116.444328,
          "velocity": 0.905511811023622
        },
        {
          "duration": 0.4398143749999974,
          "durationTicks": 190,
          "midi": 68,
          "name": "G#4",
          "ticks": 50304,
          "time": 116.444328,
          "velocity": 0.905511811023622
        },
        {
          "duration": 0.6620363749999996,
          "durationTicks": 286,
          "midi": 67,
          "name": "G4",
          "ticks": 50784,
          "time": 117.555438,
          "velocity": 0.905511811023622
        },
        {
          "duration": 0.6620363749999996,
          "durationTicks": 286,
          "midi": 64,
          "name": "E4",
          "ticks": 50784,
          "time": 117.555438,
          "velocity": 0.905511811023622
        },
        {
          "duration": 0.6620363749999996,
          "durationTicks": 286,
          "midi": 48,
          "name": "C3",
          "ticks": 50784,
          "time": 117.555438,
          "velocity": 0.905511811023622
        },
        {
          "duration": 0.6620363749999854,
          "durationTicks": 286,
          "midi": 62,
          "name": "D4",
          "ticks": 51072,
          "time": 118.222104,
          "velocity": 0.905511811023622
        },
        {
          "duration": 0.6620363749999854,
          "durationTicks": 286,
          "midi": 43,
          "name": "G2",
          "ticks": 51072,
          "time": 118.222104,
          "velocity": 0.905511811023622
        },
        {
          "duration": 0.6620363749999854,
          "durationTicks": 286,
          "midi": 67,
          "name": "G4",
          "ticks": 51072,
          "time": 118.222104,
          "velocity": 0.905511811023622
        },
        {
          "duration": 0.6620363749999854,
          "durationTicks": 286,
          "midi": 66,
          "name": "F#4",
          "ticks": 51360,
          "time": 118.88877000000001,
          "velocity": 0.905511811023622
        },
        {
          "duration": 0.6620363749999854,
          "durationTicks": 286,
          "midi": 62,
          "name": "D4",
          "ticks": 51360,
          "time": 118.88877000000001,
          "velocity": 0.905511811023622
        },
        {
          "duration": 0.6620363749999854,
          "durationTicks": 286,
          "midi": 42,
          "name": "F#2",
          "ticks": 51360,
          "time": 118.88877000000001,
          "velocity": 0.905511811023622
        },
        {
          "duration": 0.4398143749999974,
          "durationTicks": 190,
          "midi": 66,
          "name": "F#4",
          "ticks": 51648,
          "time": 119.555436,
          "velocity": 0.905511811023622
        },
        {
          "duration": 0.4398143749999974,
          "durationTicks": 190,
          "midi": 62,
          "name": "D4",
          "ticks": 51648,
          "time": 119.555436,
          "velocity": 0.905511811023622
        },
        {
          "duration": 0.21759237499999529,
          "durationTicks": 94,
          "midi": 38,
          "name": "D2",
          "ticks": 51648,
          "time": 119.555436,
          "velocity": 0.905511811023622
        },
        {
          "duration": 0.21759237499999529,
          "durationTicks": 94,
          "midi": 42,
          "name": "F#2",
          "ticks": 51744,
          "time": 119.777658,
          "velocity": 0.905511811023622
        },
        {
          "duration": 1.7731463749999818,
          "durationTicks": 766,
          "midi": 52,
          "name": "E3",
          "ticks": 51840,
          "time": 119.99988,
          "velocity": 0.905511811023622
        },
        {
          "duration": 1.7731463749999818,
          "durationTicks": 766,
          "midi": 45,
          "name": "A2",
          "ticks": 51840,
          "time": 119.99988,
          "velocity": 0.905511811023622
        },
        {
          "duration": 1.7731463749999818,
          "durationTicks": 766,
          "midi": 61,
          "name": "C#4",
          "ticks": 51840,
          "time": 119.99988,
          "velocity": 0.905511811023622
        },
        {
          "duration": 1.7731463749999818,
          "durationTicks": 766,
          "midi": 64,
          "name": "E4",
          "ticks": 51840,
          "time": 119.99988,
          "velocity": 0.905511811023622
        },
        {
          "duration": 1.1064803749999896,
          "durationTicks": 478,
          "midi": 59,
          "name": "B3",
          "ticks": 52608,
          "time": 121.77765600000001,
          "velocity": 0.905511811023622
        },
        {
          "duration": 1.1064803749999896,
          "durationTicks": 478,
          "midi": 64,
          "name": "E4",
          "ticks": 52608,
          "time": 121.77765600000001,
          "velocity": 0.905511811023622
        },
        {
          "duration": 1.1064803749999896,
          "durationTicks": 478,
          "midi": 56,
          "name": "G#3",
          "ticks": 52608,
          "time": 121.77765600000001,
          "velocity": 0.905511811023622
        },
        {
          "duration": 0.21759237499999529,
          "durationTicks": 94,
          "midi": 59,
          "name": "B3",
          "ticks": 53088,
          "time": 122.888766,
          "velocity": 0.905511811023622
        },
        {
          "duration": 0.21759237499999529,
          "durationTicks": 94,
          "midi": 64,
          "name": "E4",
          "ticks": 53088,
          "time": 122.888766,
          "velocity": 0.905511811023622
        },
        {
          "duration": 0.21759237499999529,
          "durationTicks": 94,
          "midi": 54,
          "name": "F#3",
          "ticks": 53088,
          "time": 122.888766,
          "velocity": 0.905511811023622
        },
        {
          "duration": 0.21759237499998108,
          "durationTicks": 94,
          "midi": 64,
          "name": "E4",
          "ticks": 53184,
          "time": 123.110988,
          "velocity": 0.905511811023622
        },
        {
          "duration": 0.21759237499998108,
          "durationTicks": 94,
          "midi": 59,
          "name": "B3",
          "ticks": 53184,
          "time": 123.110988,
          "velocity": 0.905511811023622
        },
        {
          "duration": 0.21759237499998108,
          "durationTicks": 94,
          "midi": 56,
          "name": "G#3",
          "ticks": 53184,
          "time": 123.110988,
          "velocity": 0.905511811023622
        },
        {
          "duration": 1.3287023749999918,
          "durationTicks": 574,
          "midi": 64,
          "name": "E4",
          "ticks": 53280,
          "time": 123.33321000000001,
          "velocity": 0.905511811023622
        },
        {
          "duration": 1.3287023749999918,
          "durationTicks": 574,
          "midi": 57,
          "name": "A3",
          "ticks": 53280,
          "time": 123.33321000000001,
          "velocity": 0.905511811023622
        },
        {
          "duration": 1.3287023749999918,
          "durationTicks": 574,
          "midi": 59,
          "name": "B3",
          "ticks": 53280,
          "time": 123.33321000000001,
          "velocity": 0.905511811023622
        },
        {
          "duration": 0.21759237499998108,
          "durationTicks": 94,
          "midi": 56,
          "name": "G#3",
          "ticks": 53856,
          "time": 124.666542,
          "velocity": 0.905511811023622
        },
        {
          "duration": 0.21759237499998108,
          "durationTicks": 94,
          "midi": 64,
          "name": "E4",
          "ticks": 53856,
          "time": 124.666542,
          "velocity": 0.905511811023622
        },
        {
          "duration": 0.21759237499998108,
          "durationTicks": 94,
          "midi": 59,
          "name": "B3",
          "ticks": 53856,
          "time": 124.666542,
          "velocity": 0.905511811023622
        },
        {
          "duration": 0.21759237499999529,
          "durationTicks": 94,
          "midi": 64,
          "name": "E4",
          "ticks": 53952,
          "time": 124.888764,
          "velocity": 0.905511811023622
        },
        {
          "duration": 0.21759237499999529,
          "durationTicks": 94,
          "midi": 59,
          "name": "B3",
          "ticks": 53952,
          "time": 124.888764,
          "velocity": 0.905511811023622
        },
        {
          "duration": 0.21759237499999529,
          "durationTicks": 94,
          "midi": 57,
          "name": "A3",
          "ticks": 53952,
          "time": 124.888764,
          "velocity": 0.905511811023622
        },
        {
          "duration": 1.3287023749999918,
          "durationTicks": 574,
          "midi": 59,
          "name": "B3",
          "ticks": 54048,
          "time": 125.110986,
          "velocity": 0.905511811023622
        },
        {
          "duration": 1.3287023749999918,
          "durationTicks": 574,
          "midi": 59,
          "name": "B3",
          "ticks": 54048,
          "time": 125.110986,
          "velocity": 0.905511811023622
        },
        {
          "duration": 1.3287023749999918,
          "durationTicks": 574,
          "midi": 64,
          "name": "E4",
          "ticks": 54048,
          "time": 125.110986,
          "velocity": 0.905511811023622
        },
        {
          "duration": 0.21759237499999529,
          "durationTicks": 94,
          "midi": 57,
          "name": "A3",
          "ticks": 54624,
          "time": 126.444318,
          "velocity": 0.905511811023622
        },
        {
          "duration": 0.21759237499999529,
          "durationTicks": 94,
          "midi": 64,
          "name": "E4",
          "ticks": 54624,
          "time": 126.444318,
          "velocity": 0.905511811023622
        },
        {
          "duration": 0.21759237499999529,
          "durationTicks": 94,
          "midi": 59,
          "name": "B3",
          "ticks": 54624,
          "time": 126.444318,
          "velocity": 0.905511811023622
        },
        {
          "duration": 0.21759237499999529,
          "durationTicks": 94,
          "midi": 59,
          "name": "B3",
          "ticks": 54720,
          "time": 126.66654,
          "velocity": 0.905511811023622
        },
        {
          "duration": 0.21759237499999529,
          "durationTicks": 94,
          "midi": 64,
          "name": "E4",
          "ticks": 54720,
          "time": 126.66654,
          "velocity": 0.905511811023622
        },
        {
          "duration": 0.21759237499999529,
          "durationTicks": 94,
          "midi": 59,
          "name": "B3",
          "ticks": 54720,
          "time": 126.66654,
          "velocity": 0.905511811023622
        },
        {
          "duration": 1.1064803749999896,
          "durationTicks": 478,
          "midi": 64,
          "name": "E4",
          "ticks": 54816,
          "time": 126.888762,
          "velocity": 0.905511811023622
        },
        {
          "duration": 1.1064803749999896,
          "durationTicks": 478,
          "midi": 62,
          "name": "D4",
          "ticks": 54816,
          "time": 126.888762,
          "velocity": 0.905511811023622
        },
        {
          "duration": 1.1064803749999896,
          "durationTicks": 478,
          "midi": 59,
          "name": "B3",
          "ticks": 54816,
          "time": 126.888762,
          "velocity": 0.905511811023622
        },
        {
          "duration": 0.4398143749999832,
          "durationTicks": 190,
          "midi": 40,
          "name": "E2",
          "ticks": 55296,
          "time": 127.999872,
          "velocity": 0.905511811023622
        },
        {
          "duration": 0.4398143749999832,
          "durationTicks": 190,
          "midi": 64,
          "name": "E4",
          "ticks": 55296,
          "time": 127.999872,
          "velocity": 0.905511811023622
        },
        {
          "duration": 0.439814374999969,
          "durationTicks": 190,
          "midi": 40,
          "name": "E2",
          "ticks": 55488,
          "time": 128.44431600000001,
          "velocity": 0.905511811023622
        },
        {
          "duration": 0.439814374999969,
          "durationTicks": 190,
          "midi": 64,
          "name": "E4",
          "ticks": 55488,
          "time": 128.44431600000001,
          "velocity": 0.905511811023622
        },
        {
          "duration": 1.7731463750000103,
          "durationTicks": 766,
          "midi": 61,
          "name": "C#4",
          "ticks": 55680,
          "time": 128.88876,
          "velocity": 0.905511811023622
        },
        {
          "duration": 1.7731463750000103,
          "durationTicks": 766,
          "midi": 45,
          "name": "A2",
          "ticks": 55680,
          "time": 128.88876,
          "velocity": 0.905511811023622
        },
        {
          "duration": 1.7731463750000103,
          "durationTicks": 766,
          "midi": 52,
          "name": "E3",
          "ticks": 55680,
          "time": 128.88876,
          "velocity": 0.905511811023622
        },
        {
          "duration": 1.7731463749999818,
          "durationTicks": 766,
          "midi": 57,
          "name": "A3",
          "ticks": 56448,
          "time": 130.666536,
          "velocity": 0.905511811023622
        },
        {
          "duration": 1.7731463749999818,
          "durationTicks": 766,
          "midi": 64,
          "name": "E4",
          "ticks": 56448,
          "time": 130.666536,
          "velocity": 0.905511811023622
        },
        {
          "duration": 1.7731463749999818,
          "durationTicks": 766,
          "midi": 45,
          "name": "A2",
          "ticks": 56448,
          "time": 130.666536,
          "velocity": 0.905511811023622
        },
        {
          "duration": 1.7731463749999818,
          "durationTicks": 766,
          "midi": 61,
          "name": "C#4",
          "ticks": 56448,
          "time": 130.666536,
          "velocity": 0.905511811023622
        },
        {
          "duration": 1.7731463750000103,
          "durationTicks": 766,
          "midi": 50,
          "name": "D3",
          "ticks": 57216,
          "time": 132.444312,
          "velocity": 0.905511811023622
        },
        {
          "duration": 1.7731463750000103,
          "durationTicks": 766,
          "midi": 62,
          "name": "D4",
          "ticks": 57216,
          "time": 132.444312,
          "velocity": 0.905511811023622
        },
        {
          "duration": 1.7731463750000103,
          "durationTicks": 766,
          "midi": 66,
          "name": "F#4",
          "ticks": 57216,
          "time": 132.444312,
          "velocity": 0.905511811023622
        },
        {
          "duration": 1.7731463750000103,
          "durationTicks": 766,
          "midi": 57,
          "name": "A3",
          "ticks": 57216,
          "time": 132.444312,
          "velocity": 0.905511811023622
        },
        {
          "duration": 0.6620363749999854,
          "durationTicks": 286,
          "midi": 52,
          "name": "E3",
          "ticks": 57984,
          "time": 134.222088,
          "velocity": 0.905511811023622
        },
        {
          "duration": 0.6620363749999854,
          "durationTicks": 286,
          "midi": 64,
          "name": "E4",
          "ticks": 57984,
          "time": 134.222088,
          "velocity": 0.905511811023622
        },
        {
          "duration": 0.6620363749999854,
          "durationTicks": 286,
          "midi": 68,
          "name": "G#4",
          "ticks": 57984,
          "time": 134.222088,
          "velocity": 0.905511811023622
        },
        {
          "duration": 0.4398143749999974,
          "durationTicks": 190,
          "midi": 54,
          "name": "F#3",
          "ticks": 58272,
          "time": 134.888754,
          "velocity": 0.905511811023622
        },
        {
          "duration": 0.4398143749999974,
          "durationTicks": 190,
          "midi": 62,
          "name": "D4",
          "ticks": 58272,
          "time": 134.888754,
          "velocity": 0.905511811023622
        },
        {
          "duration": 0.4398143749999974,
          "durationTicks": 190,
          "midi": 66,
          "name": "F#4",
          "ticks": 58272,
          "time": 134.888754,
          "velocity": 0.905511811023622
        },
        {
          "duration": 0.4398143749999974,
          "durationTicks": 190,
          "midi": 52,
          "name": "E3",
          "ticks": 58272,
          "time": 134.888754,
          "velocity": 0.905511811023622
        },
        {
          "duration": 0.6620363749999854,
          "durationTicks": 286,
          "midi": 64,
          "name": "E4",
          "ticks": 58464,
          "time": 135.333198,
          "velocity": 0.905511811023622
        },
        {
          "duration": 0.6620363749999854,
          "durationTicks": 286,
          "midi": 52,
          "name": "E3",
          "ticks": 58464,
          "time": 135.333198,
          "velocity": 0.905511811023622
        },
        {
          "duration": 0.6620363749999854,
          "durationTicks": 286,
          "midi": 56,
          "name": "G#3",
          "ticks": 58464,
          "time": 135.333198,
          "velocity": 0.905511811023622
        },
        {
          "duration": 1.7731463749999818,
          "durationTicks": 766,
          "midi": 45,
          "name": "A2",
          "ticks": 58752,
          "time": 135.999864,
          "velocity": 0.905511811023622
        },
        {
          "duration": 1.7731463749999818,
          "durationTicks": 766,
          "midi": 61,
          "name": "C#4",
          "ticks": 58752,
          "time": 135.999864,
          "velocity": 0.905511811023622
        },
        {
          "duration": 1.7731463749999818,
          "durationTicks": 766,
          "midi": 52,
          "name": "E3",
          "ticks": 58752,
          "time": 135.999864,
          "velocity": 0.905511811023622
        },
        {
          "duration": 1.7731463750000103,
          "durationTicks": 766,
          "midi": 45,
          "name": "A2",
          "ticks": 59520,
          "time": 137.77764,
          "velocity": 0.905511811023622
        },
        {
          "duration": 1.7731463750000103,
          "durationTicks": 766,
          "midi": 61,
          "name": "C#4",
          "ticks": 59520,
          "time": 137.77764,
          "velocity": 0.905511811023622
        },
        {
          "duration": 1.7731463750000103,
          "durationTicks": 766,
          "midi": 57,
          "name": "A3",
          "ticks": 59520,
          "time": 137.77764,
          "velocity": 0.905511811023622
        },
        {
          "duration": 1.7731463750000103,
          "durationTicks": 766,
          "midi": 64,
          "name": "E4",
          "ticks": 59520,
          "time": 137.77764,
          "velocity": 0.905511811023622
        },
        {
          "duration": 1.7731463749999818,
          "durationTicks": 766,
          "midi": 62,
          "name": "D4",
          "ticks": 60288,
          "time": 139.555416,
          "velocity": 0.905511811023622
        },
        {
          "duration": 1.7731463749999818,
          "durationTicks": 766,
          "midi": 66,
          "name": "F#4",
          "ticks": 60288,
          "time": 139.555416,
          "velocity": 0.905511811023622
        },
        {
          "duration": 1.7731463749999818,
          "durationTicks": 766,
          "midi": 50,
          "name": "D3",
          "ticks": 60288,
          "time": 139.555416,
          "velocity": 0.905511811023622
        },
        {
          "duration": 1.7731463749999818,
          "durationTicks": 766,
          "midi": 57,
          "name": "A3",
          "ticks": 60288,
          "time": 139.555416,
          "velocity": 0.905511811023622
        },
        {
          "duration": 0.2175923750000095,
          "durationTicks": 94,
          "midi": 59,
          "name": "B3",
          "ticks": 61056,
          "time": 141.333192,
          "velocity": 0.905511811023622
        },
        {
          "duration": 0.4398143749999974,
          "durationTicks": 190,
          "midi": 52,
          "name": "E3",
          "ticks": 61056,
          "time": 141.333192,
          "velocity": 0.905511811023622
        },
        {
          "duration": 0.2175923750000095,
          "durationTicks": 94,
          "midi": 68,
          "name": "G#4",
          "ticks": 61056,
          "time": 141.333192,
          "velocity": 0.905511811023622
        },
        {
          "duration": 0.21759237499998108,
          "durationTicks": 94,
          "midi": 64,
          "name": "E4",
          "ticks": 61152,
          "time": 141.555414,
          "velocity": 0.905511811023622
        },
        {
          "duration": 0.21759237499998108,
          "durationTicks": 94,
          "midi": 57,
          "name": "A3",
          "ticks": 61152,
          "time": 141.555414,
          "velocity": 0.905511811023622
        },
        {
          "duration": 0.21759237499998108,
          "durationTicks": 94,
          "midi": 59,
          "name": "B3",
          "ticks": 61248,
          "time": 141.777636,
          "velocity": 0.905511811023622
        },
        {
          "duration": 0.21759237499998108,
          "durationTicks": 94,
          "midi": 52,
          "name": "E3",
          "ticks": 61248,
          "time": 141.777636,
          "velocity": 0.905511811023622
        },
        {
          "duration": 0.21759237499998108,
          "durationTicks": 94,
          "midi": 68,
          "name": "G#4",
          "ticks": 61248,
          "time": 141.777636,
          "velocity": 0.905511811023622
        },
        {
          "duration": 0.4398143749999974,
          "durationTicks": 190,
          "midi": 69,
          "name": "A4",
          "ticks": 61344,
          "time": 141.999858,
          "velocity": 0.905511811023622
        },
        {
          "duration": 0.4398143749999974,
          "durationTicks": 190,
          "midi": 61,
          "name": "C#4",
          "ticks": 61344,
          "time": 141.999858,
          "velocity": 0.905511811023622
        },
        {
          "duration": 0.4398143749999974,
          "durationTicks": 190,
          "midi": 52,
          "name": "E3",
          "ticks": 61344,
          "time": 141.999858,
          "velocity": 0.905511811023622
        },
        {
          "duration": 0.6620363750000138,
          "durationTicks": 286,
          "midi": 52,
          "name": "E3",
          "ticks": 61536,
          "time": 142.444302,
          "velocity": 0.905511811023622
        },
        {
          "duration": 0.4398143749999974,
          "durationTicks": 190,
          "midi": 59,
          "name": "B3",
          "ticks": 61536,
          "time": 142.444302,
          "velocity": 0.905511811023622
        },
        {
          "duration": 0.4398143749999974,
          "durationTicks": 190,
          "midi": 68,
          "name": "G#4",
          "ticks": 61536,
          "time": 142.444302,
          "velocity": 0.905511811023622
        },
        {
          "duration": 3.773144374999987,
          "durationTicks": 1630,
          "midi": 64,
          "name": "E4",
          "ticks": 61728,
          "time": 142.888746,
          "velocity": 0.905511811023622
        },
        {
          "duration": 3.773144374999987,
          "durationTicks": 1630,
          "midi": 57,
          "name": "A3",
          "ticks": 61728,
          "time": 142.888746,
          "velocity": 0.905511811023622
        },
        {
          "duration": 3.5509223749999705,
          "durationTicks": 1534,
          "midi": 61,
          "name": "C#4",
          "ticks": 61824,
          "time": 143.110968,
          "velocity": 0.905511811023622
        },
        {
          "duration": 1.7731463750000103,
          "durationTicks": 766,
          "midi": 62,
          "name": "D4",
          "ticks": 63360,
          "time": 146.66652,
          "velocity": 0.905511811023622
        },
        {
          "duration": 1.7731463750000103,
          "durationTicks": 766,
          "midi": 66,
          "name": "F#4",
          "ticks": 63360,
          "time": 146.66652,
          "velocity": 0.905511811023622
        },
        {
          "duration": 1.7731463750000103,
          "durationTicks": 766,
          "midi": 50,
          "name": "D3",
          "ticks": 63360,
          "time": 146.66652,
          "velocity": 0.905511811023622
        },
        {
          "duration": 1.7731463749999818,
          "durationTicks": 766,
          "midi": 51,
          "name": "D#3",
          "ticks": 64128,
          "time": 148.444296,
          "velocity": 0.905511811023622
        },
        {
          "duration": 1.7731463749999818,
          "durationTicks": 766,
          "midi": 66,
          "name": "F#4",
          "ticks": 64128,
          "time": 148.444296,
          "velocity": 0.905511811023622
        },
        {
          "duration": 1.7731463749999818,
          "durationTicks": 766,
          "midi": 63,
          "name": "D#4",
          "ticks": 64128,
          "time": 148.444296,
          "velocity": 0.905511811023622
        },
        {
          "duration": 1.7731463750000103,
          "durationTicks": 766,
          "midi": 52,
          "name": "E3",
          "ticks": 64896,
          "time": 150.222072,
          "velocity": 0.905511811023622
        },
        {
          "duration": 1.7731463750000103,
          "durationTicks": 766,
          "midi": 61,
          "name": "C#4",
          "ticks": 64896,
          "time": 150.222072,
          "velocity": 0.905511811023622
        },
        {
          "duration": 1.7731463750000103,
          "durationTicks": 766,
          "midi": 64,
          "name": "E4",
          "ticks": 64896,
          "time": 150.222072,
          "velocity": 0.905511811023622
        },
        {
          "duration": 0.6620363749999854,
          "durationTicks": 286,
          "midi": 62,
          "name": "D4",
          "ticks": 65664,
          "time": 151.99984800000001,
          "velocity": 0.905511811023622
        },
        {
          "duration": 0.6620363749999854,
          "durationTicks": 286,
          "midi": 57,
          "name": "A3",
          "ticks": 65664,
          "time": 151.99984800000001,
          "velocity": 0.905511811023622
        },
        {
          "duration": 0.6620363749999854,
          "durationTicks": 286,
          "midi": 54,
          "name": "F#3",
          "ticks": 65664,
          "time": 151.99984800000001,
          "velocity": 0.905511811023622
        },
        {
          "duration": 0.6620363749999854,
          "durationTicks": 286,
          "midi": 52,
          "name": "E3",
          "ticks": 65952,
          "time": 152.666514,
          "velocity": 0.905511811023622
        },
        {
          "duration": 0.6620363749999854,
          "durationTicks": 286,
          "midi": 57,
          "name": "A3",
          "ticks": 65952,
          "time": 152.666514,
          "velocity": 0.905511811023622
        },
        {
          "duration": 0.6620363749999854,
          "durationTicks": 286,
          "midi": 61,
          "name": "C#4",
          "ticks": 65952,
          "time": 152.666514,
          "velocity": 0.905511811023622
        },
        {
          "duration": 0.6620363749999854,
          "durationTicks": 286,
          "midi": 57,
          "name": "A3",
          "ticks": 66240,
          "time": 153.33318,
          "velocity": 0.905511811023622
        },
        {
          "duration": 0.6620363749999854,
          "durationTicks": 286,
          "midi": 50,
          "name": "D3",
          "ticks": 66240,
          "time": 153.33318,
          "velocity": 0.905511811023622
        },
        {
          "duration": 0.6620363749999854,
          "durationTicks": 286,
          "midi": 59,
          "name": "B3",
          "ticks": 66240,
          "time": 153.33318,
          "velocity": 0.905511811023622
        },
        {
          "duration": 0.6620363750000138,
          "durationTicks": 286,
          "midi": 61,
          "name": "C#4",
          "ticks": 66528,
          "time": 153.999846,
          "velocity": 0.905511811023622
        },
        {
          "duration": 0.6620363750000138,
          "durationTicks": 286,
          "midi": 52,
          "name": "E3",
          "ticks": 66528,
          "time": 153.999846,
          "velocity": 0.905511811023622
        },
        {
          "duration": 0.6620363750000138,
          "durationTicks": 286,
          "midi": 57,
          "name": "A3",
          "ticks": 66528,
          "time": 153.999846,
          "velocity": 0.905511811023622
        },
        {
          "duration": 0.439814374999969,
          "durationTicks": 190,
          "midi": 40,
          "name": "E2",
          "ticks": 66816,
          "time": 154.666512,
          "velocity": 0.905511811023622
        },
        {
          "duration": 0.439814374999969,
          "durationTicks": 190,
          "midi": 59,
          "name": "B3",
          "ticks": 66816,
          "time": 154.666512,
          "velocity": 0.905511811023622
        },
        {
          "duration": 0.439814374999969,
          "durationTicks": 190,
          "midi": 57,
          "name": "A3",
          "ticks": 66816,
          "time": 154.666512,
          "velocity": 0.905511811023622
        },
        {
          "duration": 0.439814374999969,
          "durationTicks": 190,
          "midi": 40,
          "name": "E2",
          "ticks": 67008,
          "time": 155.11095600000002,
          "velocity": 0.905511811023622
        },
        {
          "duration": 0.439814374999969,
          "durationTicks": 190,
          "midi": 56,
          "name": "G#3",
          "ticks": 67008,
          "time": 155.11095600000002,
          "velocity": 0.905511811023622
        },
        {
          "duration": 3.550922374999999,
          "durationTicks": 1534,
          "midi": 52,
          "name": "E3",
          "ticks": 67200,
          "time": 155.5554,
          "velocity": 0.905511811023622
        },
        {
          "duration": 3.550922374999999,
          "durationTicks": 1534,
          "midi": 45,
          "name": "A2",
          "ticks": 67200,
          "time": 155.5554,
          "velocity": 0.905511811023622
        },
        {
          "duration": 3.550922374999999,
          "durationTicks": 1534,
          "midi": 64,
          "name": "E4",
          "ticks": 67200,
          "time": 155.5554,
          "velocity": 0.905511811023622
        },
        {
          "duration": 3.550922374999999,
          "durationTicks": 1534,
          "midi": 61,
          "name": "C#4",
          "ticks": 67200,
          "time": 155.5554,
          "velocity": 0.905511811023622
        },
        {
          "duration": 1.7731463750000103,
          "durationTicks": 766,
          "midi": 50,
          "name": "D3",
          "ticks": 68736,
          "time": 159.110952,
          "velocity": 0.905511811023622
        },
        {
          "duration": 1.7731463750000103,
          "durationTicks": 766,
          "midi": 62,
          "name": "D4",
          "ticks": 68736,
          "time": 159.110952,
          "velocity": 0.905511811023622
        },
        {
          "duration": 1.7731463750000103,
          "durationTicks": 766,
          "midi": 66,
          "name": "F#4",
          "ticks": 68736,
          "time": 159.110952,
          "velocity": 0.905511811023622
        },
        {
          "duration": 1.7731463749999818,
          "durationTicks": 766,
          "midi": 63,
          "name": "D#4",
          "ticks": 69504,
          "time": 160.88872800000001,
          "velocity": 0.905511811023622
        },
        {
          "duration": 1.7731463749999818,
          "durationTicks": 766,
          "midi": 66,
          "name": "F#4",
          "ticks": 69504,
          "time": 160.88872800000001,
          "velocity": 0.905511811023622
        },
        {
          "duration": 1.7731463749999818,
          "durationTicks": 766,
          "midi": 51,
          "name": "D#3",
          "ticks": 69504,
          "time": 160.88872800000001,
          "velocity": 0.905511811023622
        },
        {
          "duration": 1.7731463749999818,
          "durationTicks": 766,
          "midi": 64,
          "name": "E4",
          "ticks": 70272,
          "time": 162.666504,
          "velocity": 0.905511811023622
        },
        {
          "duration": 1.7731463749999818,
          "durationTicks": 766,
          "midi": 52,
          "name": "E3",
          "ticks": 70272,
          "time": 162.666504,
          "velocity": 0.905511811023622
        },
        {
          "duration": 1.7731463749999818,
          "durationTicks": 766,
          "midi": 61,
          "name": "C#4",
          "ticks": 70272,
          "time": 162.666504,
          "velocity": 0.905511811023622
        },
        {
          "duration": 0.6620363750000138,
          "durationTicks": 286,
          "midi": 54,
          "name": "F#3",
          "ticks": 71040,
          "time": 164.44428,
          "velocity": 0.905511811023622
        },
        {
          "duration": 0.6620363750000138,
          "durationTicks": 286,
          "midi": 57,
          "name": "A3",
          "ticks": 71040,
          "time": 164.44428,
          "velocity": 0.905511811023622
        },
        {
          "duration": 0.6620363750000138,
          "durationTicks": 286,
          "midi": 62,
          "name": "D4",
          "ticks": 71040,
          "time": 164.44428,
          "velocity": 0.905511811023622
        },
        {
          "duration": 0.6620363749999854,
          "durationTicks": 286,
          "midi": 57,
          "name": "A3",
          "ticks": 71328,
          "time": 165.110946,
          "velocity": 0.905511811023622
        },
        {
          "duration": 0.6620363749999854,
          "durationTicks": 286,
          "midi": 52,
          "name": "E3",
          "ticks": 71328,
          "time": 165.110946,
          "velocity": 0.905511811023622
        },
        {
          "duration": 0.6620363749999854,
          "durationTicks": 286,
          "midi": 61,
          "name": "C#4",
          "ticks": 71328,
          "time": 165.110946,
          "velocity": 0.905511811023622
        },
        {
          "duration": 0.6620363749999854,
          "durationTicks": 286,
          "midi": 50,
          "name": "D3",
          "ticks": 71616,
          "time": 165.777612,
          "velocity": 0.905511811023622
        },
        {
          "duration": 0.6620363749999854,
          "durationTicks": 286,
          "midi": 59,
          "name": "B3",
          "ticks": 71616,
          "time": 165.777612,
          "velocity": 0.905511811023622
        },
        {
          "duration": 0.6620363749999854,
          "durationTicks": 286,
          "midi": 57,
          "name": "A3",
          "ticks": 71616,
          "time": 165.777612,
          "velocity": 0.905511811023622
        },
        {
          "duration": 0.6620363749999854,
          "durationTicks": 286,
          "midi": 52,
          "name": "E3",
          "ticks": 71904,
          "time": 166.444278,
          "velocity": 0.905511811023622
        },
        {
          "duration": 0.6620363749999854,
          "durationTicks": 286,
          "midi": 57,
          "name": "A3",
          "ticks": 71904,
          "time": 166.444278,
          "velocity": 0.905511811023622
        },
        {
          "duration": 0.6620363749999854,
          "durationTicks": 286,
          "midi": 61,
          "name": "C#4",
          "ticks": 71904,
          "time": 166.444278,
          "velocity": 0.905511811023622
        },
        {
          "duration": 0.8842583750000017,
          "durationTicks": 382,
          "midi": 59,
          "name": "B3",
          "ticks": 72192,
          "time": 167.110944,
          "velocity": 0.905511811023622
        },
        {
          "duration": 0.4398143749999974,
          "durationTicks": 190,
          "midi": 40,
          "name": "E2",
          "ticks": 72192,
          "time": 167.110944,
          "velocity": 0.905511811023622
        },
        {
          "duration": 0.4398143749999974,
          "durationTicks": 190,
          "midi": 57,
          "name": "A3",
          "ticks": 72192,
          "time": 167.110944,
          "velocity": 0.905511811023622
        },
        {
          "duration": 0.4398143749999974,
          "durationTicks": 190,
          "midi": 56,
          "name": "G#3",
          "ticks": 72384,
          "time": 167.555388,
          "velocity": 0.905511811023622
        },
        {
          "duration": 0.4398143749999974,
          "durationTicks": 190,
          "midi": 40,
          "name": "E2",
          "ticks": 72384,
          "time": 167.555388,
          "velocity": 0.905511811023622
        },
        {
          "duration": 1.7731463749999818,
          "durationTicks": 766,
          "midi": 64,
          "name": "E4",
          "ticks": 72576,
          "time": 167.999832,
          "velocity": 0.905511811023622
        },
        {
          "duration": 1.7731463749999818,
          "durationTicks": 766,
          "midi": 61,
          "name": "C#4",
          "ticks": 72576,
          "time": 167.999832,
          "velocity": 0.905511811023622
        },
        {
          "duration": 1.7731463749999818,
          "durationTicks": 766,
          "midi": 52,
          "name": "E3",
          "ticks": 72576,
          "time": 167.999832,
          "velocity": 0.905511811023622
        },
        {
          "duration": 0.6620363749999854,
          "durationTicks": 286,
          "midi": 54,
          "name": "F#3",
          "ticks": 73344,
          "time": 169.77760800000001,
          "velocity": 0.905511811023622
        },
        {
          "duration": 0.6620363749999854,
          "durationTicks": 286,
          "midi": 57,
          "name": "A3",
          "ticks": 73344,
          "time": 169.77760800000001,
          "velocity": 0.905511811023622
        },
        {
          "duration": 0.6620363749999854,
          "durationTicks": 286,
          "midi": 62,
          "name": "D4",
          "ticks": 73344,
          "time": 169.77760800000001,
          "velocity": 0.905511811023622
        },
        {
          "duration": 0.6620363749999854,
          "durationTicks": 286,
          "midi": 61,
          "name": "C#4",
          "ticks": 73632,
          "time": 170.444274,
          "velocity": 0.905511811023622
        },
        {
          "duration": 0.6620363749999854,
          "durationTicks": 286,
          "midi": 57,
          "name": "A3",
          "ticks": 73632,
          "time": 170.444274,
          "velocity": 0.905511811023622
        },
        {
          "duration": 0.6620363749999854,
          "durationTicks": 286,
          "midi": 52,
          "name": "E3",
          "ticks": 73632,
          "time": 170.444274,
          "velocity": 0.905511811023622
        },
        {
          "duration": 0.6620363749999854,
          "durationTicks": 286,
          "midi": 59,
          "name": "B3",
          "ticks": 73920,
          "time": 171.11094,
          "velocity": 0.905511811023622
        },
        {
          "duration": 0.6620363749999854,
          "durationTicks": 286,
          "midi": 50,
          "name": "D3",
          "ticks": 73920,
          "time": 171.11094,
          "velocity": 0.905511811023622
        },
        {
          "duration": 0.6620363749999854,
          "durationTicks": 286,
          "midi": 57,
          "name": "A3",
          "ticks": 73920,
          "time": 171.11094,
          "velocity": 0.905511811023622
        },
        {
          "duration": 0.6620363750000138,
          "durationTicks": 286,
          "midi": 61,
          "name": "C#4",
          "ticks": 74208,
          "time": 171.777606,
          "velocity": 0.905511811023622
        },
        {
          "duration": 0.6620363750000138,
          "durationTicks": 286,
          "midi": 52,
          "name": "E3",
          "ticks": 74208,
          "time": 171.777606,
          "velocity": 0.905511811023622
        },
        {
          "duration": 0.6620363750000138,
          "durationTicks": 286,
          "midi": 57,
          "name": "A3",
          "ticks": 74208,
          "time": 171.777606,
          "velocity": 0.905511811023622
        },
        {
          "duration": 0.8842583749999733,
          "durationTicks": 382,
          "midi": 59,
          "name": "B3",
          "ticks": 74496,
          "time": 172.444272,
          "velocity": 0.905511811023622
        },
        {
          "duration": 0.439814374999969,
          "durationTicks": 190,
          "midi": 40,
          "name": "E2",
          "ticks": 74496,
          "time": 172.444272,
          "velocity": 0.905511811023622
        },
        {
          "duration": 0.439814374999969,
          "durationTicks": 190,
          "midi": 57,
          "name": "A3",
          "ticks": 74496,
          "time": 172.444272,
          "velocity": 0.905511811023622
        },
        {
          "duration": 0.4398143749999974,
          "durationTicks": 190,
          "midi": 56,
          "name": "G#3",
          "ticks": 74688,
          "time": 172.888716,
          "velocity": 0.905511811023622
        },
        {
          "duration": 0.4398143749999974,
          "durationTicks": 190,
          "midi": 40,
          "name": "E2",
          "ticks": 74688,
          "time": 172.888716,
          "velocity": 0.905511811023622
        },
        {
          "duration": 1.7731463750000103,
          "durationTicks": 766,
          "midi": 57,
          "name": "A3",
          "ticks": 74880,
          "time": 173.33316,
          "velocity": 0.905511811023622
        },
        {
          "duration": 1.7731463750000103,
          "durationTicks": 766,
          "midi": 48,
          "name": "C3",
          "ticks": 74880,
          "time": 173.33316,
          "velocity": 0.905511811023622
        }
      ],
      "endOfTrackTicks": 75646
    },
    {
      "channel": 0,
      "controlChanges": {
        "7": [
          {
            "number": 7,
            "ticks": 0,
            "time": 0,
            "value": 0.7874015748031497
          },
          {
            "number": 7,
            "ticks": 192,
            "time": 0.444444,
            "value": 0.7086614173228346
          }
        ],
        "10": [
          {
            "number": 10,
            "ticks": 192,
            "time": 0.444444,
            "value": 0.7559055118110236
          }
        ],
        "91": [
          {
            "number": 91,
            "ticks": 192,
            "time": 0.444444,
            "value": 0.31496062992125984
          }
        ],
        "93": [
          {
            "number": 93,
            "ticks": 192,
            "time": 0.444444,
            "value": 0.5039370078740157
          }
        ]
      },
      "pitchBends": [],
      "instrument": {
        "family": "piano",
        "number": 0,
        "name": "acoustic grand piano"
      },
      "name": "Synth Lead",
      "notes": [],
      "endOfTrackTicks": 52606
    },
    {
      "channel": 4,
      "controlChanges": {},
      "pitchBends": [],
      "instrument": {
        "family": "synth lead",
        "number": 81,
        "name": "lead 2 (sawtooth)"
      },
      "name": "",
      "notes": [
        {
          "duration": 0.21759237499999529,
          "durationTicks": 94,
          "midi": 40,
          "name": "E2",
          "ticks": 43008,
          "time": 99.555456,
          "velocity": 0.7874015748031497
        },
        {
          "duration": 0.2175923750000095,
          "durationTicks": 94,
          "midi": 44,
          "name": "G#2",
          "ticks": 43104,
          "time": 99.777678,
          "velocity": 0.7874015748031497
        },
        {
          "duration": 0.2175923750000095,
          "durationTicks": 94,
          "midi": 47,
          "name": "B2",
          "ticks": 43200,
          "time": 99.9999,
          "velocity": 0.7874015748031497
        },
        {
          "duration": 0.2175923750000095,
          "durationTicks": 94,
          "midi": 48,
          "name": "C3",
          "ticks": 43296,
          "time": 100.222122,
          "velocity": 0.7874015748031497
        },
        {
          "duration": 0.2175923750000095,
          "durationTicks": 94,
          "midi": 52,
          "name": "E3",
          "ticks": 43392,
          "time": 100.444344,
          "velocity": 0.7874015748031497
        },
        {
          "duration": 0.2175923750000095,
          "durationTicks": 94,
          "midi": 55,
          "name": "G3",
          "ticks": 43488,
          "time": 100.666566,
          "velocity": 0.7874015748031497
        },
        {
          "duration": 0.21759237499999529,
          "durationTicks": 94,
          "midi": 43,
          "name": "G2",
          "ticks": 43584,
          "time": 100.888788,
          "velocity": 0.7874015748031497
        },
        {
          "duration": 0.21759237499999529,
          "durationTicks": 94,
          "midi": 47,
          "name": "B2",
          "ticks": 43680,
          "time": 101.11101000000001,
          "velocity": 0.7874015748031497
        },
        {
          "duration": 0.2175923750000095,
          "durationTicks": 94,
          "midi": 50,
          "name": "D3",
          "ticks": 43776,
          "time": 101.333232,
          "velocity": 0.7874015748031497
        },
        {
          "duration": 0.2175923750000095,
          "durationTicks": 94,
          "midi": 42,
          "name": "F#2",
          "ticks": 43872,
          "time": 101.555454,
          "velocity": 0.7874015748031497
        },
        {
          "duration": 0.2175923750000095,
          "durationTicks": 94,
          "midi": 45,
          "name": "A2",
          "ticks": 43968,
          "time": 101.777676,
          "velocity": 0.7874015748031497
        },
        {
          "duration": 0.2175923750000095,
          "durationTicks": 94,
          "midi": 50,
          "name": "D3",
          "ticks": 44064,
          "time": 101.999898,
          "velocity": 0.7874015748031497
        },
        {
          "duration": 0.21759237499999529,
          "durationTicks": 94,
          "midi": 38,
          "name": "D2",
          "ticks": 44160,
          "time": 102.22212,
          "velocity": 0.7874015748031497
        },
        {
          "duration": 0.21759237499999529,
          "durationTicks": 94,
          "midi": 42,
          "name": "F#2",
          "ticks": 44256,
          "time": 102.444342,
          "velocity": 0.7874015748031497
        },
        {
          "duration": 1.773146374999996,
          "durationTicks": 766,
          "midi": 45,
          "name": "A2",
          "ticks": 44352,
          "time": 102.66656400000001,
          "velocity": 0.7874015748031497
        },
        {
          "duration": 0.21759237499999529,
          "durationTicks": 94,
          "midi": 40,
          "name": "E2",
          "ticks": 45504,
          "time": 105.333228,
          "velocity": 0.7874015748031497
        },
        {
          "duration": 0.21759237499999529,
          "durationTicks": 94,
          "midi": 44,
          "name": "G#2",
          "ticks": 45600,
          "time": 105.55545000000001,
          "velocity": 0.7874015748031497
        },
        {
          "duration": 0.2175923750000095,
          "durationTicks": 94,
          "midi": 47,
          "name": "B2",
          "ticks": 45696,
          "time": 105.777672,
          "velocity": 0.7874015748031497
        },
        {
          "duration": 0.2175923750000095,
          "durationTicks": 94,
          "midi": 48,
          "name": "C3",
          "ticks": 45792,
          "time": 105.999894,
          "velocity": 0.7874015748031497
        },
        {
          "duration": 0.2175923750000095,
          "durationTicks": 94,
          "midi": 52,
          "name": "E3",
          "ticks": 45888,
          "time": 106.222116,
          "velocity": 0.7874015748031497
        },
        {
          "duration": 0.2175923750000095,
          "durationTicks": 94,
          "midi": 55,
          "name": "G3",
          "ticks": 45984,
          "time": 106.444338,
          "velocity": 0.7874015748031497
        },
        {
          "duration": 0.21759237499999529,
          "durationTicks": 94,
          "midi": 43,
          "name": "G2",
          "ticks": 46080,
          "time": 106.66656,
          "velocity": 0.7874015748031497
        },
        {
          "duration": 0.21759237499999529,
          "durationTicks": 94,
          "midi": 47,
          "name": "B2",
          "ticks": 46176,
          "time": 106.888782,
          "velocity": 0.7874015748031497
        },
        {
          "duration": 0.21759237499999529,
          "durationTicks": 94,
          "midi": 50,
          "name": "D3",
          "ticks": 46272,
          "time": 107.11100400000001,
          "velocity": 0.7874015748031497
        },
        {
          "duration": 0.2175923750000095,
          "durationTicks": 94,
          "midi": 42,
          "name": "F#2",
          "ticks": 46368,
          "time": 107.333226,
          "velocity": 0.7874015748031497
        },
        {
          "duration": 0.2175923750000095,
          "durationTicks": 94,
          "midi": 45,
          "name": "A2",
          "ticks": 46464,
          "time": 107.555448,
          "velocity": 0.7874015748031497
        },
        {
          "duration": 0.2175923750000095,
          "durationTicks": 94,
          "midi": 50,
          "name": "D3",
          "ticks": 46560,
          "time": 107.77767,
          "velocity": 0.7874015748031497
        },
        {
          "duration": 0.2175923750000095,
          "durationTicks": 94,
          "midi": 38,
          "name": "D2",
          "ticks": 46656,
          "time": 107.999892,
          "velocity": 0.7874015748031497
        },
        {
          "duration": 0.21759237499999529,
          "durationTicks": 94,
          "midi": 42,
          "name": "F#2",
          "ticks": 46752,
          "time": 108.222114,
          "velocity": 0.7874015748031497
        },
        {
          "duration": 1.773146374999996,
          "durationTicks": 766,
          "midi": 45,
          "name": "A2",
          "ticks": 46848,
          "time": 108.444336,
          "velocity": 0.7874015748031497
        },
        {
          "duration": 0.21759237499999529,
          "durationTicks": 94,
          "midi": 40,
          "name": "E2",
          "ticks": 48000,
          "time": 111.111,
          "velocity": 0.7874015748031497
        },
        {
          "duration": 0.21759237499999529,
          "durationTicks": 94,
          "midi": 44,
          "name": "G#2",
          "ticks": 48096,
          "time": 111.333222,
          "velocity": 0.7874015748031497
        },
        {
          "duration": 0.21759237499999529,
          "durationTicks": 94,
          "midi": 47,
          "name": "B2",
          "ticks": 48192,
          "time": 111.55544400000001,
          "velocity": 0.7874015748031497
        },
        {
          "duration": 0.2175923750000095,
          "durationTicks": 94,
          "midi": 48,
          "name": "C3",
          "ticks": 48288,
          "time": 111.777666,
          "velocity": 0.7874015748031497
        },
        {
          "duration": 0.2175923750000095,
          "durationTicks": 94,
          "midi": 52,
          "name": "E3",
          "ticks": 48384,
          "time": 111.999888,
          "velocity": 0.7874015748031497
        },
        {
          "duration": 0.2175923750000095,
          "durationTicks": 94,
          "midi": 55,
          "name": "G3",
          "ticks": 48480,
          "time": 112.22211,
          "velocity": 0.7874015748031497
        },
        {
          "duration": 0.2175923750000095,
          "durationTicks": 94,
          "midi": 43,
          "name": "G2",
          "ticks": 48576,
          "time": 112.444332,
          "velocity": 0.7874015748031497
        },
        {
          "duration": 0.21759237499999529,
          "durationTicks": 94,
          "midi": 47,
          "name": "B2",
          "ticks": 48672,
          "time": 112.666554,
          "velocity": 0.7874015748031497
        },
        {
          "duration": 0.21759237499999529,
          "durationTicks": 94,
          "midi": 50,
          "name": "D3",
          "ticks": 48768,
          "time": 112.88877600000001,
          "velocity": 0.7874015748031497
        },
        {
          "duration": 0.2175923750000095,
          "durationTicks": 94,
          "midi": 42,
          "name": "F#2",
          "ticks": 48864,
          "time": 113.110998,
          "velocity": 0.7874015748031497
        },
        {
          "duration": 0.2175923750000095,
          "durationTicks": 94,
          "midi": 45,
          "name": "A2",
          "ticks": 48960,
          "time": 113.33322,
          "velocity": 0.7874015748031497
        },
        {
          "duration": 0.2175923750000095,
          "durationTicks": 94,
          "midi": 50,
          "name": "D3",
          "ticks": 49056,
          "time": 113.555442,
          "velocity": 0.7874015748031497
        },
        {
          "duration": 0.21759237499999529,
          "durationTicks": 94,
          "midi": 38,
          "name": "D2",
          "ticks": 49152,
          "time": 113.777664,
          "velocity": 0.7874015748031497
        },
        {
          "duration": 0.21759237499999529,
          "durationTicks": 94,
          "midi": 42,
          "name": "F#2",
          "ticks": 49248,
          "time": 113.999886,
          "velocity": 0.7874015748031497
        },
        {
          "duration": 1.7731463749999818,
          "durationTicks": 766,
          "midi": 45,
          "name": "A2",
          "ticks": 49344,
          "time": 114.222108,
          "velocity": 0.7874015748031497
        },
        {
          "duration": 0.21759237499999529,
          "durationTicks": 94,
          "midi": 40,
          "name": "E2",
          "ticks": 50496,
          "time": 116.888772,
          "velocity": 0.7874015748031497
        },
        {
          "duration": 0.21759237499998108,
          "durationTicks": 94,
          "midi": 44,
          "name": "G#2",
          "ticks": 50592,
          "time": 117.110994,
          "velocity": 0.7874015748031497
        },
        {
          "duration": 0.21759237499998108,
          "durationTicks": 94,
          "midi": 47,
          "name": "B2",
          "ticks": 50688,
          "time": 117.33321600000001,
          "velocity": 0.7874015748031497
        },
        {
          "duration": 0.21759237499999529,
          "durationTicks": 94,
          "midi": 48,
          "name": "C3",
          "ticks": 50784,
          "time": 117.555438,
          "velocity": 0.7874015748031497
        },
        {
          "duration": 0.21759237499999529,
          "durationTicks": 94,
          "midi": 52,
          "name": "E3",
          "ticks": 50880,
          "time": 117.77766,
          "velocity": 0.7874015748031497
        },
        {
          "duration": 0.21759237499999529,
          "durationTicks": 94,
          "midi": 55,
          "name": "G3",
          "ticks": 50976,
          "time": 117.999882,
          "velocity": 0.7874015748031497
        },
        {
          "duration": 0.21759237499999529,
          "durationTicks": 94,
          "midi": 43,
          "name": "G2",
          "ticks": 51072,
          "time": 118.222104,
          "velocity": 0.7874015748031497
        },
        {
          "duration": 0.21759237499999529,
          "durationTicks": 94,
          "midi": 47,
          "name": "B2",
          "ticks": 51168,
          "time": 118.444326,
          "velocity": 0.7874015748031497
        },
        {
          "duration": 0.21759237499998108,
          "durationTicks": 94,
          "midi": 50,
          "name": "D3",
          "ticks": 51264,
          "time": 118.666548,
          "velocity": 0.7874015748031497
        },
        {
          "duration": 0.21759237499998108,
          "durationTicks": 94,
          "midi": 42,
          "name": "F#2",
          "ticks": 51360,
          "time": 118.88877000000001,
          "velocity": 0.7874015748031497
        },
        {
          "duration": 0.21759237499999529,
          "durationTicks": 94,
          "midi": 45,
          "name": "A2",
          "ticks": 51456,
          "time": 119.110992,
          "velocity": 0.7874015748031497
        },
        {
          "duration": 0.21759237499999529,
          "durationTicks": 94,
          "midi": 50,
          "name": "D3",
          "ticks": 51552,
          "time": 119.333214,
          "velocity": 0.7874015748031497
        },
        {
          "duration": 0.21759237499999529,
          "durationTicks": 94,
          "midi": 38,
          "name": "D2",
          "ticks": 51648,
          "time": 119.555436,
          "velocity": 0.7874015748031497
        },
        {
          "duration": 0.21759237499999529,
          "durationTicks": 94,
          "midi": 42,
          "name": "F#2",
          "ticks": 51744,
          "time": 119.777658,
          "velocity": 0.7874015748031497
        },
        {
          "duration": 1.7731463749999818,
          "durationTicks": 766,
          "midi": 45,
          "name": "A2",
          "ticks": 51840,
          "time": 119.99988,
          "velocity": 0.7874015748031497
        }
      ]
    },
    {
      "channel": 0,
      "controlChanges": {
        "0": [
          {
            "number": 0,
            "ticks": 192,
            "time": 0.444444,
            "value": 0
          }
        ],
        "7": [
          {
            "number": 7,
            "ticks": 0,
            "time": 0,
            "value": 0.7874015748031497
          },
          {
            "number": 7,
            "ticks": 192,
            "time": 0.444444,
            "value": 0.9448818897637795
          }
        ],
        "10": [
          {
            "number": 10,
            "ticks": 192,
            "time": 0.444444,
            "value": 0.5039370078740157
          }
        ],
        "91": [
          {
            "number": 91,
            "ticks": 192,
            "time": 0.444444,
            "value": 0.31496062992125984
          }
        ],
        "93": [
          {
            "number": 93,
            "ticks": 192,
            "time": 0.444444,
            "value": 0
          }
        ]
      },
      "pitchBends": [],
      "instrument": {
        "family": "piano",
        "number": 0,
        "name": "acoustic grand piano"
      },
      "name": "Choir Lead",
      "notes": [],
      "endOfTrackTicks": 73150
    },
    {
      "channel": 5,
      "controlChanges": {},
      "pitchBends": [],
      "instrument": {
        "family": "ensemble",
        "number": 52,
        "name": "choir aahs"
      },
      "name": "",
      "notes": [
        {
          "duration": 0.2175923750000024,
          "durationTicks": 94,
          "midi": 61,
          "name": "C#4",
          "ticks": 7104,
          "time": 16.444428,
          "velocity": 0.9448818897637795
        },
        {
          "duration": 0.439814375000001,
          "durationTicks": 190,
          "midi": 59,
          "name": "B3",
          "ticks": 7200,
          "time": 16.66665,
          "velocity": 0.9448818897637795
        },
        {
          "duration": 0.439814375000001,
          "durationTicks": 190,
          "midi": 61,
          "name": "C#4",
          "ticks": 7392,
          "time": 17.111094,
          "velocity": 0.9448818897637795
        },
        {
          "duration": 0.6620363750000031,
          "durationTicks": 286,
          "midi": 57,
          "name": "A3",
          "ticks": 7584,
          "time": 17.555538,
          "velocity": 0.9448818897637795
        },
        {
          "duration": 0.21759237499999884,
          "durationTicks": 94,
          "midi": 61,
          "name": "C#4",
          "ticks": 7872,
          "time": 18.222204,
          "velocity": 0.9448818897637795
        },
        {
          "duration": 0.2175923750000024,
          "durationTicks": 94,
          "midi": 57,
          "name": "A3",
          "ticks": 7968,
          "time": 18.444426,
          "velocity": 0.9448818897637795
        },
        {
          "duration": 0.2175923750000024,
          "durationTicks": 94,
          "midi": 59,
          "name": "B3",
          "ticks": 8064,
          "time": 18.666648,
          "velocity": 0.9448818897637795
        },
        {
          "duration": 0.6620363749999996,
          "durationTicks": 286,
          "midi": 61,
          "name": "C#4",
          "ticks": 8160,
          "time": 18.88887,
          "velocity": 0.9448818897637795
        },
        {
          "duration": 0.21759237499999884,
          "durationTicks": 94,
          "midi": 61,
          "name": "C#4",
          "ticks": 8640,
          "time": 19.99998,
          "velocity": 0.9448818897637795
        },
        {
          "duration": 0.439814375000001,
          "durationTicks": 190,
          "midi": 59,
          "name": "B3",
          "ticks": 8736,
          "time": 20.222202,
          "velocity": 0.9448818897637795
        },
        {
          "duration": 0.439814375000001,
          "durationTicks": 190,
          "midi": 61,
          "name": "C#4",
          "ticks": 8928,
          "time": 20.666646,
          "velocity": 0.9448818897637795
        },
        {
          "duration": 0.6620363749999996,
          "durationTicks": 286,
          "midi": 57,
          "name": "A3",
          "ticks": 9120,
          "time": 21.11109,
          "velocity": 0.9448818897637795
        },
        {
          "duration": 0.2175923750000024,
          "durationTicks": 94,
          "midi": 54,
          "name": "F#3",
          "ticks": 9408,
          "time": 21.777756,
          "velocity": 0.9448818897637795
        },
        {
          "duration": 0.2175923750000024,
          "durationTicks": 94,
          "midi": 61,
          "name": "C#4",
          "ticks": 9504,
          "time": 21.999978,
          "velocity": 0.9448818897637795
        },
        {
          "duration": 0.439814375000001,
          "durationTicks": 190,
          "midi": 59,
          "name": "B3",
          "ticks": 9600,
          "time": 22.2222,
          "velocity": 0.9448818897637795
        },
        {
          "duration": 0.10648137500000132,
          "durationTicks": 46,
          "midi": 57,
          "name": "A3",
          "ticks": 9792,
          "time": 22.666644,
          "velocity": 0.9448818897637795
        },
        {
          "duration": 0.10648137500000132,
          "durationTicks": 46,
          "midi": 59,
          "name": "B3",
          "ticks": 9840,
          "time": 22.777755,
          "velocity": 0.9448818897637795
        },
        {
          "duration": 0.2175923750000024,
          "durationTicks": 94,
          "midi": 57,
          "name": "A3",
          "ticks": 9888,
          "time": 22.888866,
          "velocity": 0.9448818897637795
        },
        {
          "duration": 0.439814375000001,
          "durationTicks": 190,
          "midi": 61,
          "name": "C#4",
          "ticks": 10080,
          "time": 23.33331,
          "velocity": 0.9448818897637795
        },
        {
          "duration": 0.439814375000001,
          "durationTicks": 190,
          "midi": 59,
          "name": "B3",
          "ticks": 10272,
          "time": 23.777754,
          "velocity": 0.9448818897637795
        },
        {
          "duration": 0.2175923750000024,
          "durationTicks": 94,
          "midi": 57,
          "name": "A3",
          "ticks": 10464,
          "time": 24.222198,
          "velocity": 0.9448818897637795
        },
        {
          "duration": 0.21759237499999884,
          "durationTicks": 94,
          "midi": 61,
          "name": "C#4",
          "ticks": 12480,
          "time": 28.88886,
          "velocity": 0.9448818897637795
        },
        {
          "duration": 0.21759237499999884,
          "durationTicks": 94,
          "midi": 57,
          "name": "A3",
          "ticks": 12576,
          "time": 29.111082,
          "velocity": 0.9448818897637795
        },
        {
          "duration": 0.21759237499999529,
          "durationTicks": 94,
          "midi": 59,
          "name": "B3",
          "ticks": 12672,
          "time": 29.333304000000002,
          "velocity": 0.9448818897637795
        },
        {
          "duration": 0.6620363749999996,
          "durationTicks": 286,
          "midi": 61,
          "name": "C#4",
          "ticks": 12768,
          "time": 29.555526,
          "velocity": 0.9448818897637795
        },
        {
          "duration": 0.4398143749999974,
          "durationTicks": 190,
          "midi": 61,
          "name": "C#4",
          "ticks": 13152,
          "time": 30.444414000000002,
          "velocity": 0.9448818897637795
        },
        {
          "duration": 0.439814375000001,
          "durationTicks": 190,
          "midi": 59,
          "name": "B3",
          "ticks": 13344,
          "time": 30.888858,
          "velocity": 0.9448818897637795
        },
        {
          "duration": 0.21759237499999884,
          "durationTicks": 94,
          "midi": 57,
          "name": "A3",
          "ticks": 13536,
          "time": 31.333302,
          "velocity": 0.9448818897637795
        },
        {
          "duration": 0.21759237499999529,
          "durationTicks": 94,
          "midi": 52,
          "name": "E3",
          "ticks": 13632,
          "time": 31.555524000000002,
          "velocity": 0.9448818897637795
        },
        {
          "duration": 0.4398143749999974,
          "durationTicks": 190,
          "midi": 54,
          "name": "F#3",
          "ticks": 13728,
          "time": 31.777746,
          "velocity": 0.9448818897637795
        },
        {
          "duration": 0.2175923750000024,
          "durationTicks": 94,
          "midi": 57,
          "name": "A3",
          "ticks": 13920,
          "time": 32.22219,
          "velocity": 0.9448818897637795
        },
        {
          "duration": 0.21759237499999529,
          "durationTicks": 94,
          "midi": 54,
          "name": "F#3",
          "ticks": 14016,
          "time": 32.444412,
          "velocity": 0.9448818897637795
        },
        {
          "duration": 0.21759237499999529,
          "durationTicks": 94,
          "midi": 61,
          "name": "C#4",
          "ticks": 14112,
          "time": 32.666634,
          "velocity": 0.9448818897637795
        },
        {
          "duration": 0.2175923750000024,
          "durationTicks": 94,
          "midi": 59,
          "name": "B3",
          "ticks": 14208,
          "time": 32.888856,
          "velocity": 0.9448818897637795
        },
        {
          "duration": 0.2175923750000024,
          "durationTicks": 94,
          "midi": 57,
          "name": "A3",
          "ticks": 14304,
          "time": 33.111078,
          "velocity": 0.9448818897637795
        },
        {
          "duration": 0.6620363749999996,
          "durationTicks": 286,
          "midi": 54,
          "name": "F#3",
          "ticks": 14400,
          "time": 33.3333,
          "velocity": 0.9448818897637795
        },
        {
          "duration": 0.21759237499999529,
          "durationTicks": 94,
          "midi": 52,
          "name": "E3",
          "ticks": 14688,
          "time": 33.999966,
          "velocity": 0.9448818897637795
        },
        {
          "duration": 0.2175923750000024,
          "durationTicks": 94,
          "midi": 61,
          "name": "C#4",
          "ticks": 15552,
          "time": 35.999964,
          "velocity": 0.9448818897637795
        },
        {
          "duration": 0.21759237499999529,
          "durationTicks": 94,
          "midi": 57,
          "name": "A3",
          "ticks": 15648,
          "time": 36.222186,
          "velocity": 0.9448818897637795
        },
        {
          "duration": 0.21759237499999529,
          "durationTicks": 94,
          "midi": 59,
          "name": "B3",
          "ticks": 15744,
          "time": 36.444408,
          "velocity": 0.9448818897637795
        },
        {
          "duration": 0.6620363749999996,
          "durationTicks": 286,
          "midi": 61,
          "name": "C#4",
          "ticks": 15840,
          "time": 36.66663,
          "velocity": 0.9448818897637795
        },
        {
          "duration": 0.4398143749999974,
          "durationTicks": 190,
          "midi": 61,
          "name": "C#4",
          "ticks": 16224,
          "time": 37.555518,
          "velocity": 0.9448818897637795
        },
        {
          "duration": 0.4398143749999974,
          "durationTicks": 190,
          "midi": 59,
          "name": "B3",
          "ticks": 16416,
          "time": 37.999962000000004,
          "velocity": 0.9448818897637795
        },
        {
          "duration": 0.21759237499999529,
          "durationTicks": 94,
          "midi": 57,
          "name": "A3",
          "ticks": 16608,
          "time": 38.444406,
          "velocity": 0.9448818897637795
        },
        {
          "duration": 0.21759237499999529,
          "durationTicks": 94,
          "midi": 52,
          "name": "E3",
          "ticks": 16704,
          "time": 38.666628,
          "velocity": 0.9448818897637795
        },
        {
          "duration": 0.6620363749999996,
          "durationTicks": 286,
          "midi": 54,
          "name": "F#3",
          "ticks": 16800,
          "time": 38.88885,
          "velocity": 0.9448818897637795
        },
        {
          "duration": 0.2175923750000024,
          "durationTicks": 94,
          "midi": 61,
          "name": "C#4",
          "ticks": 17088,
          "time": 39.555516,
          "velocity": 0.9448818897637795
        },
        {
          "duration": 0.4398143749999974,
          "durationTicks": 190,
          "midi": 59,
          "name": "B3",
          "ticks": 17184,
          "time": 39.777738,
          "velocity": 0.9448818897637795
        },
        {
          "duration": 0.4398143749999974,
          "durationTicks": 190,
          "midi": 57,
          "name": "A3",
          "ticks": 17376,
          "time": 40.222182000000004,
          "velocity": 0.9448818897637795
        },
        {
          "duration": 0.6620363749999996,
          "durationTicks": 286,
          "midi": 56,
          "name": "G#3",
          "ticks": 17568,
          "time": 40.666626,
          "velocity": 0.9448818897637795
        },
        {
          "duration": 0.21759237499999529,
          "durationTicks": 94,
          "midi": 61,
          "name": "C#4",
          "ticks": 18624,
          "time": 43.111068,
          "velocity": 0.9448818897637795
        },
        {
          "duration": 0.4398143749999974,
          "durationTicks": 190,
          "midi": 59,
          "name": "B3",
          "ticks": 18720,
          "time": 43.33329,
          "velocity": 0.9448818897637795
        },
        {
          "duration": 0.4398143749999974,
          "durationTicks": 190,
          "midi": 61,
          "name": "C#4",
          "ticks": 18912,
          "time": 43.777734,
          "velocity": 0.9448818897637795
        },
        {
          "duration": 0.6620363749999996,
          "durationTicks": 286,
          "midi": 57,
          "name": "A3",
          "ticks": 19104,
          "time": 44.222178,
          "velocity": 0.9448818897637795
        },
        {
          "duration": 0.21759237499999529,
          "durationTicks": 94,
          "midi": 61,
          "name": "C#4",
          "ticks": 20160,
          "time": 46.66662,
          "velocity": 0.9448818897637795
        },
        {
          "duration": 0.4398143749999974,
          "durationTicks": 190,
          "midi": 59,
          "name": "B3",
          "ticks": 20256,
          "time": 46.888842000000004,
          "velocity": 0.9448818897637795
        },
        {
          "duration": 0.4398143749999974,
          "durationTicks": 190,
          "midi": 61,
          "name": "C#4",
          "ticks": 20448,
          "time": 47.333286,
          "velocity": 0.9448818897637795
        },
        {
          "duration": 0.6620363749999996,
          "durationTicks": 286,
          "midi": 57,
          "name": "A3",
          "ticks": 20640,
          "time": 47.77773,
          "velocity": 0.9448818897637795
        },
        {
          "duration": 0.2175923750000024,
          "durationTicks": 94,
          "midi": 54,
          "name": "F#3",
          "ticks": 20928,
          "time": 48.444396,
          "velocity": 0.9448818897637795
        },
        {
          "duration": 0.21759237499999529,
          "durationTicks": 94,
          "midi": 61,
          "name": "C#4",
          "ticks": 21024,
          "time": 48.666618,
          "velocity": 0.9448818897637795
        },
        {
          "duration": 0.21759237499999529,
          "durationTicks": 94,
          "midi": 59,
          "name": "B3",
          "ticks": 21120,
          "time": 48.88884,
          "velocity": 0.9448818897637795
        },
        {
          "duration": 0.6620363749999925,
          "durationTicks": 286,
          "midi": 57,
          "name": "A3",
          "ticks": 21216,
          "time": 49.111062000000004,
          "velocity": 0.9448818897637795
        },
        {
          "duration": 0.4398143749999974,
          "durationTicks": 190,
          "midi": 61,
          "name": "C#4",
          "ticks": 21600,
          "time": 49.99995,
          "velocity": 0.9448818897637795
        },
        {
          "duration": 0.4398143749999974,
          "durationTicks": 190,
          "midi": 59,
          "name": "B3",
          "ticks": 21792,
          "time": 50.444394,
          "velocity": 0.9448818897637795
        },
        {
          "duration": 0.6620363749999996,
          "durationTicks": 286,
          "midi": 57,
          "name": "A3",
          "ticks": 21984,
          "time": 50.888838,
          "velocity": 0.9448818897637795
        },
        {
          "duration": 0.2175923750000024,
          "durationTicks": 94,
          "midi": 61,
          "name": "C#4",
          "ticks": 25536,
          "time": 59.111052,
          "velocity": 0.9448818897637795
        },
        {
          "duration": 0.2175923750000024,
          "durationTicks": 94,
          "midi": 57,
          "name": "A3",
          "ticks": 25632,
          "time": 59.333274,
          "velocity": 0.9448818897637795
        },
        {
          "duration": 0.2175923750000095,
          "durationTicks": 94,
          "midi": 59,
          "name": "B3",
          "ticks": 25728,
          "time": 59.555496,
          "velocity": 0.9448818897637795
        },
        {
          "duration": 0.6620363750000067,
          "durationTicks": 286,
          "midi": 61,
          "name": "C#4",
          "ticks": 25824,
          "time": 59.777718,
          "velocity": 0.9448818897637795
        },
        {
          "duration": 0.43981437500000453,
          "durationTicks": 190,
          "midi": 61,
          "name": "C#4",
          "ticks": 26208,
          "time": 60.666606,
          "velocity": 0.9448818897637795
        },
        {
          "duration": 0.43981437500000453,
          "durationTicks": 190,
          "midi": 59,
          "name": "B3",
          "ticks": 26400,
          "time": 61.11105,
          "velocity": 0.9448818897637795
        },
        {
          "duration": 0.2175923750000024,
          "durationTicks": 94,
          "midi": 57,
          "name": "A3",
          "ticks": 26592,
          "time": 61.555494,
          "velocity": 0.9448818897637795
        },
        {
          "duration": 0.2175923750000095,
          "durationTicks": 94,
          "midi": 52,
          "name": "E3",
          "ticks": 26688,
          "time": 61.777716,
          "velocity": 0.9448818897637795
        },
        {
          "duration": 0.43981437500000453,
          "durationTicks": 190,
          "midi": 54,
          "name": "F#3",
          "ticks": 26784,
          "time": 61.999938,
          "velocity": 0.9448818897637795
        },
        {
          "duration": 0.2175923750000095,
          "durationTicks": 94,
          "midi": 57,
          "name": "A3",
          "ticks": 26976,
          "time": 62.444382,
          "velocity": 0.9448818897637795
        },
        {
          "duration": 0.2175923750000024,
          "durationTicks": 94,
          "midi": 54,
          "name": "F#3",
          "ticks": 27072,
          "time": 62.666604,
          "velocity": 0.9448818897637795
        },
        {
          "duration": 0.2175923750000024,
          "durationTicks": 94,
          "midi": 61,
          "name": "C#4",
          "ticks": 27168,
          "time": 62.888826,
          "velocity": 0.9448818897637795
        },
        {
          "duration": 0.2175923750000024,
          "durationTicks": 94,
          "midi": 59,
          "name": "B3",
          "ticks": 27264,
          "time": 63.111048000000004,
          "velocity": 0.9448818897637795
        },
        {
          "duration": 0.2175923750000095,
          "durationTicks": 94,
          "midi": 57,
          "name": "A3",
          "ticks": 27360,
          "time": 63.33327,
          "velocity": 0.9448818897637795
        },
        {
          "duration": 0.6620363749999996,
          "durationTicks": 286,
          "midi": 54,
          "name": "F#3",
          "ticks": 27456,
          "time": 63.555492,
          "velocity": 0.9448818897637795
        },
        {
          "duration": 0.21759237499999529,
          "durationTicks": 94,
          "midi": 52,
          "name": "E3",
          "ticks": 27744,
          "time": 64.22215800000001,
          "velocity": 0.9448818897637795
        },
        {
          "duration": 0.2175923750000095,
          "durationTicks": 94,
          "midi": 61,
          "name": "C#4",
          "ticks": 28608,
          "time": 66.222156,
          "velocity": 0.9448818897637795
        },
        {
          "duration": 0.2175923750000095,
          "durationTicks": 94,
          "midi": 57,
          "name": "A3",
          "ticks": 28704,
          "time": 66.444378,
          "velocity": 0.9448818897637795
        },
        {
          "duration": 0.2175923750000095,
          "durationTicks": 94,
          "midi": 59,
          "name": "B3",
          "ticks": 28800,
          "time": 66.6666,
          "velocity": 0.9448818897637795
        },
        {
          "duration": 0.6620363749999996,
          "durationTicks": 286,
          "midi": 61,
          "name": "C#4",
          "ticks": 28896,
          "time": 66.888822,
          "velocity": 0.9448818897637795
        },
        {
          "duration": 0.43981437500001164,
          "durationTicks": 190,
          "midi": 61,
          "name": "C#4",
          "ticks": 29280,
          "time": 67.77771,
          "velocity": 0.9448818897637795
        },
        {
          "duration": 0.4398143749999974,
          "durationTicks": 190,
          "midi": 59,
          "name": "B3",
          "ticks": 29472,
          "time": 68.222154,
          "velocity": 0.9448818897637795
        },
        {
          "duration": 0.21759237499999529,
          "durationTicks": 94,
          "midi": 57,
          "name": "A3",
          "ticks": 29664,
          "time": 68.66659800000001,
          "velocity": 0.9448818897637795
        },
        {
          "duration": 0.2175923750000095,
          "durationTicks": 94,
          "midi": 52,
          "name": "E3",
          "ticks": 29760,
          "time": 68.88882,
          "velocity": 0.9448818897637795
        },
        {
          "duration": 0.6620363750000138,
          "durationTicks": 286,
          "midi": 54,
          "name": "F#3",
          "ticks": 29856,
          "time": 69.111042,
          "velocity": 0.9448818897637795
        },
        {
          "duration": 0.21759237499999529,
          "durationTicks": 94,
          "midi": 61,
          "name": "C#4",
          "ticks": 30144,
          "time": 69.777708,
          "velocity": 0.9448818897637795
        },
        {
          "duration": 0.4398143749999974,
          "durationTicks": 190,
          "midi": 59,
          "name": "B3",
          "ticks": 30240,
          "time": 69.99993,
          "velocity": 0.9448818897637795
        },
        {
          "duration": 0.43981437500001164,
          "durationTicks": 190,
          "midi": 57,
          "name": "A3",
          "ticks": 30432,
          "time": 70.444374,
          "velocity": 0.9448818897637795
        },
        {
          "duration": 0.6620363749999996,
          "durationTicks": 286,
          "midi": 56,
          "name": "G#3",
          "ticks": 30624,
          "time": 70.888818,
          "velocity": 0.9448818897637795
        },
        {
          "duration": 0.2175923750000095,
          "durationTicks": 94,
          "midi": 61,
          "name": "C#4",
          "ticks": 31680,
          "time": 73.33326,
          "velocity": 0.9448818897637795
        },
        {
          "duration": 0.43981437500001164,
          "durationTicks": 190,
          "midi": 59,
          "name": "B3",
          "ticks": 31776,
          "time": 73.555482,
          "velocity": 0.9448818897637795
        },
        {
          "duration": 0.4398143749999974,
          "durationTicks": 190,
          "midi": 61,
          "name": "C#4",
          "ticks": 31968,
          "time": 73.999926,
          "velocity": 0.9448818897637795
        },
        {
          "duration": 0.6620363749999996,
          "durationTicks": 286,
          "midi": 57,
          "name": "A3",
          "ticks": 32160,
          "time": 74.44437,
          "velocity": 0.9448818897637795
        },
        {
          "duration": 0.2175923750000095,
          "durationTicks": 94,
          "midi": 61,
          "name": "C#4",
          "ticks": 33216,
          "time": 76.888812,
          "velocity": 0.9448818897637795
        },
        {
          "duration": 0.4398143749999974,
          "durationTicks": 190,
          "midi": 59,
          "name": "B3",
          "ticks": 33312,
          "time": 77.111034,
          "velocity": 0.9448818897637795
        },
        {
          "duration": 0.4398143749999974,
          "durationTicks": 190,
          "midi": 61,
          "name": "C#4",
          "ticks": 33504,
          "time": 77.55547800000001,
          "velocity": 0.9448818897637795
        },
        {
          "duration": 0.6620363750000138,
          "durationTicks": 286,
          "midi": 57,
          "name": "A3",
          "ticks": 33696,
          "time": 77.999922,
          "velocity": 0.9448818897637795
        },
        {
          "duration": 0.21759237499999529,
          "durationTicks": 94,
          "midi": 54,
          "name": "F#3",
          "ticks": 33984,
          "time": 78.666588,
          "velocity": 0.9448818897637795
        },
        {
          "duration": 0.21759237499999529,
          "durationTicks": 94,
          "midi": 61,
          "name": "C#4",
          "ticks": 34080,
          "time": 78.88881,
          "velocity": 0.9448818897637795
        },
        {
          "duration": 0.2175923750000095,
          "durationTicks": 94,
          "midi": 59,
          "name": "B3",
          "ticks": 34176,
          "time": 79.111032,
          "velocity": 0.9448818897637795
        },
        {
          "duration": 0.6620363750000138,
          "durationTicks": 286,
          "midi": 57,
          "name": "A3",
          "ticks": 34272,
          "time": 79.333254,
          "velocity": 0.9448818897637795
        },
        {
          "duration": 0.4398143749999974,
          "durationTicks": 190,
          "midi": 61,
          "name": "C#4",
          "ticks": 34656,
          "time": 80.222142,
          "velocity": 0.9448818897637795
        },
        {
          "duration": 0.43981437500001164,
          "durationTicks": 190,
          "midi": 59,
          "name": "B3",
          "ticks": 34848,
          "time": 80.666586,
          "velocity": 0.9448818897637795
        },
        {
          "duration": 0.6620363749999996,
          "durationTicks": 286,
          "midi": 57,
          "name": "A3",
          "ticks": 35040,
          "time": 81.11103,
          "velocity": 0.9448818897637795
        },
        {
          "duration": 0.6620363749999996,
          "durationTicks": 286,
          "midi": 72,
          "name": "C5",
          "ticks": 40800,
          "time": 94.44435,
          "velocity": 0.9448818897637795
        },
        {
          "duration": 0.6620363749999996,
          "durationTicks": 286,
          "midi": 71,
          "name": "B4",
          "ticks": 41088,
          "time": 95.111016,
          "velocity": 0.9448818897637795
        },
        {
          "duration": 0.6620363750000138,
          "durationTicks": 286,
          "midi": 69,
          "name": "A4",
          "ticks": 41376,
          "time": 95.777682,
          "velocity": 0.9448818897637795
        },
        {
          "duration": 0.21759237499999529,
          "durationTicks": 94,
          "midi": 66,
          "name": "F#4",
          "ticks": 41664,
          "time": 96.444348,
          "velocity": 0.9448818897637795
        },
        {
          "duration": 0.21759237499999529,
          "durationTicks": 94,
          "midi": 69,
          "name": "A4",
          "ticks": 41760,
          "time": 96.66657000000001,
          "velocity": 0.9448818897637795
        },
        {
          "duration": 0.10648137500001553,
          "durationTicks": 46,
          "midi": 69,
          "name": "A4",
          "ticks": 41856,
          "time": 96.888792,
          "velocity": 0.9448818897637795
        },
        {
          "duration": 0.10648137500000132,
          "durationTicks": 46,
          "midi": 71,
          "name": "B4",
          "ticks": 41904,
          "time": 96.999903,
          "velocity": 0.9448818897637795
        },
        {
          "duration": 1.5509243750000081,
          "durationTicks": 670,
          "midi": 69,
          "name": "A4",
          "ticks": 41952,
          "time": 97.111014,
          "velocity": 0.9448818897637795
        },
        {
          "duration": 0.6620363750000138,
          "durationTicks": 286,
          "midi": 72,
          "name": "C5",
          "ticks": 43296,
          "time": 100.222122,
          "velocity": 0.9448818897637795
        },
        {
          "duration": 0.6620363749999996,
          "durationTicks": 286,
          "midi": 71,
          "name": "B4",
          "ticks": 43584,
          "time": 100.888788,
          "velocity": 0.9448818897637795
        },
        {
          "duration": 0.6620363750000138,
          "durationTicks": 286,
          "midi": 69,
          "name": "A4",
          "ticks": 43872,
          "time": 101.555454,
          "velocity": 0.9448818897637795
        },
        {
          "duration": 0.21759237499999529,
          "durationTicks": 94,
          "midi": 66,
          "name": "F#4",
          "ticks": 44160,
          "time": 102.22212,
          "velocity": 0.9448818897637795
        },
        {
          "duration": 0.21759237499999529,
          "durationTicks": 94,
          "midi": 69,
          "name": "A4",
          "ticks": 44256,
          "time": 102.444342,
          "velocity": 0.9448818897637795
        },
        {
          "duration": 0.10648137500000132,
          "durationTicks": 46,
          "midi": 69,
          "name": "A4",
          "ticks": 44352,
          "time": 102.66656400000001,
          "velocity": 0.9448818897637795
        },
        {
          "duration": 0.10648137500000132,
          "durationTicks": 46,
          "midi": 71,
          "name": "B4",
          "ticks": 44400,
          "time": 102.777675,
          "velocity": 0.9448818897637795
        },
        {
          "duration": 1.5509243750000081,
          "durationTicks": 670,
          "midi": 69,
          "name": "A4",
          "ticks": 44448,
          "time": 102.888786,
          "velocity": 0.9448818897637795
        },
        {
          "duration": 0.6620363750000138,
          "durationTicks": 286,
          "midi": 72,
          "name": "C5",
          "ticks": 45792,
          "time": 105.999894,
          "velocity": 0.9448818897637795
        },
        {
          "duration": 0.6620363749999996,
          "durationTicks": 286,
          "midi": 71,
          "name": "B4",
          "ticks": 46080,
          "time": 106.66656,
          "velocity": 0.9448818897637795
        },
        {
          "duration": 0.6620363750000138,
          "durationTicks": 286,
          "midi": 69,
          "name": "A4",
          "ticks": 46368,
          "time": 107.333226,
          "velocity": 0.9448818897637795
        },
        {
          "duration": 0.2175923750000095,
          "durationTicks": 94,
          "midi": 66,
          "name": "F#4",
          "ticks": 46656,
          "time": 107.999892,
          "velocity": 0.9448818897637795
        },
        {
          "duration": 0.21759237499999529,
          "durationTicks": 94,
          "midi": 69,
          "name": "A4",
          "ticks": 46752,
          "time": 108.222114,
          "velocity": 0.9448818897637795
        },
        {
          "duration": 0.10648137500000132,
          "durationTicks": 46,
          "midi": 69,
          "name": "A4",
          "ticks": 46848,
          "time": 108.444336,
          "velocity": 0.9448818897637795
        },
        {
          "duration": 0.10648137500000132,
          "durationTicks": 46,
          "midi": 71,
          "name": "B4",
          "ticks": 46896,
          "time": 108.555447,
          "velocity": 0.9448818897637795
        },
        {
          "duration": 1.5509243750000081,
          "durationTicks": 670,
          "midi": 69,
          "name": "A4",
          "ticks": 46944,
          "time": 108.666558,
          "velocity": 0.9448818897637795
        },
        {
          "duration": 0.6620363750000138,
          "durationTicks": 286,
          "midi": 72,
          "name": "C5",
          "ticks": 48288,
          "time": 111.777666,
          "velocity": 0.9448818897637795
        },
        {
          "duration": 0.6620363749999996,
          "durationTicks": 286,
          "midi": 71,
          "name": "B4",
          "ticks": 48576,
          "time": 112.444332,
          "velocity": 0.9448818897637795
        },
        {
          "duration": 0.6620363750000138,
          "durationTicks": 286,
          "midi": 69,
          "name": "A4",
          "ticks": 48864,
          "time": 113.110998,
          "velocity": 0.9448818897637795
        },
        {
          "duration": 0.21759237499999529,
          "durationTicks": 94,
          "midi": 66,
          "name": "F#4",
          "ticks": 49152,
          "time": 113.777664,
          "velocity": 0.9448818897637795
        },
        {
          "duration": 0.21759237499999529,
          "durationTicks": 94,
          "midi": 69,
          "name": "A4",
          "ticks": 49248,
          "time": 113.999886,
          "velocity": 0.9448818897637795
        },
        {
          "duration": 0.10648137499998711,
          "durationTicks": 46,
          "midi": 69,
          "name": "A4",
          "ticks": 49344,
          "time": 114.222108,
          "velocity": 0.9448818897637795
        },
        {
          "duration": 0.10648137499998711,
          "durationTicks": 46,
          "midi": 71,
          "name": "B4",
          "ticks": 49392,
          "time": 114.333219,
          "velocity": 0.9448818897637795
        },
        {
          "duration": 1.5509243749999797,
          "durationTicks": 670,
          "midi": 69,
          "name": "A4",
          "ticks": 49440,
          "time": 114.44433000000001,
          "velocity": 0.9448818897637795
        },
        {
          "duration": 0.6620363749999996,
          "durationTicks": 286,
          "midi": 72,
          "name": "C5",
          "ticks": 50784,
          "time": 117.555438,
          "velocity": 0.9448818897637795
        },
        {
          "duration": 0.6620363749999854,
          "durationTicks": 286,
          "midi": 71,
          "name": "B4",
          "ticks": 51072,
          "time": 118.222104,
          "velocity": 0.9448818897637795
        },
        {
          "duration": 0.6620363749999854,
          "durationTicks": 286,
          "midi": 69,
          "name": "A4",
          "ticks": 51360,
          "time": 118.88877000000001,
          "velocity": 0.9448818897637795
        },
        {
          "duration": 0.21759237499999529,
          "durationTicks": 94,
          "midi": 66,
          "name": "F#4",
          "ticks": 51648,
          "time": 119.555436,
          "velocity": 0.9448818897637795
        },
        {
          "duration": 0.21759237499999529,
          "durationTicks": 94,
          "midi": 69,
          "name": "A4",
          "ticks": 51744,
          "time": 119.777658,
          "velocity": 0.9448818897637795
        },
        {
          "duration": 0.10648137499998711,
          "durationTicks": 46,
          "midi": 69,
          "name": "A4",
          "ticks": 51840,
          "time": 119.99988,
          "velocity": 0.9448818897637795
        },
        {
          "duration": 0.10648137500000132,
          "durationTicks": 46,
          "midi": 71,
          "name": "B4",
          "ticks": 51888,
          "time": 120.110991,
          "velocity": 0.9448818897637795
        },
        {
          "duration": 1.5509243749999797,
          "durationTicks": 670,
          "midi": 69,
          "name": "A4",
          "ticks": 51936,
          "time": 120.222102,
          "velocity": 0.9448818897637795
        },
        {
          "duration": 0.2175923750000095,
          "durationTicks": 94,
          "midi": 61,
          "name": "C#4",
          "ticks": 55872,
          "time": 129.333204,
          "velocity": 0.9448818897637795
        },
        {
          "duration": 0.21759237499998108,
          "durationTicks": 94,
          "midi": 57,
          "name": "A3",
          "ticks": 55968,
          "time": 129.555426,
          "velocity": 0.9448818897637795
        },
        {
          "duration": 0.21759237499998108,
          "durationTicks": 94,
          "midi": 59,
          "name": "B3",
          "ticks": 56064,
          "time": 129.777648,
          "velocity": 0.9448818897637795
        },
        {
          "duration": 0.6620363749999854,
          "durationTicks": 286,
          "midi": 61,
          "name": "C#4",
          "ticks": 56160,
          "time": 129.99987000000002,
          "velocity": 0.9448818897637795
        },
        {
          "duration": 0.4398143749999974,
          "durationTicks": 190,
          "midi": 61,
          "name": "C#4",
          "ticks": 56544,
          "time": 130.888758,
          "velocity": 0.9448818897637795
        },
        {
          "duration": 0.4398143749999974,
          "durationTicks": 190,
          "midi": 59,
          "name": "B3",
          "ticks": 56736,
          "time": 131.333202,
          "velocity": 0.9448818897637795
        },
        {
          "duration": 0.21759237499998108,
          "durationTicks": 94,
          "midi": 57,
          "name": "A3",
          "ticks": 56928,
          "time": 131.777646,
          "velocity": 0.9448818897637795
        },
        {
          "duration": 0.2175923750000095,
          "durationTicks": 94,
          "midi": 52,
          "name": "E3",
          "ticks": 57024,
          "time": 131.999868,
          "velocity": 0.9448818897637795
        },
        {
          "duration": 0.4398143749999974,
          "durationTicks": 190,
          "midi": 54,
          "name": "F#3",
          "ticks": 57120,
          "time": 132.22209,
          "velocity": 0.9448818897637795
        },
        {
          "duration": 0.21759237499998108,
          "durationTicks": 94,
          "midi": 57,
          "name": "A3",
          "ticks": 57312,
          "time": 132.666534,
          "velocity": 0.9448818897637795
        },
        {
          "duration": 0.21759237499998108,
          "durationTicks": 94,
          "midi": 54,
          "name": "F#3",
          "ticks": 57408,
          "time": 132.888756,
          "velocity": 0.9448818897637795
        },
        {
          "duration": 0.2175923750000095,
          "durationTicks": 94,
          "midi": 61,
          "name": "C#4",
          "ticks": 57504,
          "time": 133.110978,
          "velocity": 0.9448818897637795
        },
        {
          "duration": 0.21759237499998108,
          "durationTicks": 94,
          "midi": 59,
          "name": "B3",
          "ticks": 57600,
          "time": 133.3332,
          "velocity": 0.9448818897637795
        },
        {
          "duration": 0.2175923750000095,
          "durationTicks": 94,
          "midi": 57,
          "name": "A3",
          "ticks": 57696,
          "time": 133.555422,
          "velocity": 0.9448818897637795
        },
        {
          "duration": 0.6620363749999854,
          "durationTicks": 286,
          "midi": 54,
          "name": "F#3",
          "ticks": 57792,
          "time": 133.777644,
          "velocity": 0.9448818897637795
        },
        {
          "duration": 0.21759237499998108,
          "durationTicks": 94,
          "midi": 52,
          "name": "E3",
          "ticks": 58080,
          "time": 134.44431,
          "velocity": 0.9448818897637795
        },
        {
          "duration": 0.21759237499998108,
          "durationTicks": 94,
          "midi": 61,
          "name": "C#4",
          "ticks": 58944,
          "time": 136.444308,
          "velocity": 0.9448818897637795
        },
        {
          "duration": 0.2175923750000095,
          "durationTicks": 94,
          "midi": 57,
          "name": "A3",
          "ticks": 59040,
          "time": 136.66653,
          "velocity": 0.9448818897637795
        },
        {
          "duration": 0.21759237499998108,
          "durationTicks": 94,
          "midi": 59,
          "name": "B3",
          "ticks": 59136,
          "time": 136.888752,
          "velocity": 0.9448818897637795
        },
        {
          "duration": 0.6620363749999854,
          "durationTicks": 286,
          "midi": 61,
          "name": "C#4",
          "ticks": 59232,
          "time": 137.110974,
          "velocity": 0.9448818897637795
        },
        {
          "duration": 0.4398143749999974,
          "durationTicks": 190,
          "midi": 61,
          "name": "C#4",
          "ticks": 59616,
          "time": 137.999862,
          "velocity": 0.9448818897637795
        },
        {
          "duration": 0.439814374999969,
          "durationTicks": 190,
          "midi": 59,
          "name": "B3",
          "ticks": 59808,
          "time": 138.444306,
          "velocity": 0.9448818897637795
        },
        {
          "duration": 0.21759237499998108,
          "durationTicks": 94,
          "midi": 57,
          "name": "A3",
          "ticks": 60000,
          "time": 138.88875000000002,
          "velocity": 0.9448818897637795
        },
        {
          "duration": 0.21759237499998108,
          "durationTicks": 94,
          "midi": 52,
          "name": "E3",
          "ticks": 60096,
          "time": 139.110972,
          "velocity": 0.9448818897637795
        },
        {
          "duration": 0.6620363750000138,
          "durationTicks": 286,
          "midi": 54,
          "name": "F#3",
          "ticks": 60192,
          "time": 139.333194,
          "velocity": 0.9448818897637795
        },
        {
          "duration": 0.21759237499998108,
          "durationTicks": 94,
          "midi": 61,
          "name": "C#4",
          "ticks": 60480,
          "time": 139.99986,
          "velocity": 0.9448818897637795
        },
        {
          "duration": 0.4398143749999974,
          "durationTicks": 190,
          "midi": 59,
          "name": "B3",
          "ticks": 60576,
          "time": 140.222082,
          "velocity": 0.9448818897637795
        },
        {
          "duration": 0.4398143749999974,
          "durationTicks": 190,
          "midi": 57,
          "name": "A3",
          "ticks": 60768,
          "time": 140.666526,
          "velocity": 0.9448818897637795
        },
        {
          "duration": 0.6620363749999854,
          "durationTicks": 286,
          "midi": 56,
          "name": "G#3",
          "ticks": 60960,
          "time": 141.11097,
          "velocity": 0.9448818897637795
        },
        {
          "duration": 0.2175923750000095,
          "durationTicks": 94,
          "midi": 61,
          "name": "C#4",
          "ticks": 62016,
          "time": 143.555412,
          "velocity": 0.9448818897637795
        },
        {
          "duration": 0.4398143749999974,
          "durationTicks": 190,
          "midi": 59,
          "name": "B3",
          "ticks": 62112,
          "time": 143.777634,
          "velocity": 0.9448818897637795
        },
        {
          "duration": 0.439814374999969,
          "durationTicks": 190,
          "midi": 61,
          "name": "C#4",
          "ticks": 62304,
          "time": 144.222078,
          "velocity": 0.9448818897637795
        },
        {
          "duration": 0.6620363749999854,
          "durationTicks": 286,
          "midi": 57,
          "name": "A3",
          "ticks": 62496,
          "time": 144.66652200000001,
          "velocity": 0.9448818897637795
        },
        {
          "duration": 0.2175923750000095,
          "durationTicks": 94,
          "midi": 61,
          "name": "C#4",
          "ticks": 63552,
          "time": 147.110964,
          "velocity": 0.9448818897637795
        },
        {
          "duration": 0.439814374999969,
          "durationTicks": 190,
          "midi": 59,
          "name": "B3",
          "ticks": 63648,
          "time": 147.333186,
          "velocity": 0.9448818897637795
        },
        {
          "duration": 0.4398143749999974,
          "durationTicks": 190,
          "midi": 61,
          "name": "C#4",
          "ticks": 63840,
          "time": 147.77763,
          "velocity": 0.9448818897637795
        },
        {
          "duration": 0.6620363750000138,
          "durationTicks": 286,
          "midi": 57,
          "name": "A3",
          "ticks": 64032,
          "time": 148.222074,
          "velocity": 0.9448818897637795
        },
        {
          "duration": 0.21759237499998108,
          "durationTicks": 94,
          "midi": 54,
          "name": "F#3",
          "ticks": 64320,
          "time": 148.88874,
          "velocity": 0.9448818897637795
        },
        {
          "duration": 0.21759237499998108,
          "durationTicks": 94,
          "midi": 61,
          "name": "C#4",
          "ticks": 64416,
          "time": 149.110962,
          "velocity": 0.9448818897637795
        },
        {
          "duration": 0.2175923750000095,
          "durationTicks": 94,
          "midi": 59,
          "name": "B3",
          "ticks": 64512,
          "time": 149.333184,
          "velocity": 0.9448818897637795
        },
        {
          "duration": 0.6620363749999854,
          "durationTicks": 286,
          "midi": 57,
          "name": "A3",
          "ticks": 64608,
          "time": 149.555406,
          "velocity": 0.9448818897637795
        },
        {
          "duration": 0.439814374999969,
          "durationTicks": 190,
          "midi": 61,
          "name": "C#4",
          "ticks": 64992,
          "time": 150.444294,
          "velocity": 0.9448818897637795
        },
        {
          "duration": 0.4398143749999974,
          "durationTicks": 190,
          "midi": 59,
          "name": "B3",
          "ticks": 65184,
          "time": 150.888738,
          "velocity": 0.9448818897637795
        },
        {
          "duration": 0.6620363750000138,
          "durationTicks": 286,
          "midi": 57,
          "name": "A3",
          "ticks": 65376,
          "time": 151.333182,
          "velocity": 0.9448818897637795
        },
        {
          "duration": 0.2175923750000095,
          "durationTicks": 94,
          "midi": 61,
          "name": "C#4",
          "ticks": 67392,
          "time": 155.999844,
          "velocity": 0.9448818897637795
        },
        {
          "duration": 0.439814374999969,
          "durationTicks": 190,
          "midi": 59,
          "name": "B3",
          "ticks": 67488,
          "time": 156.222066,
          "velocity": 0.9448818897637795
        },
        {
          "duration": 0.4398143749999974,
          "durationTicks": 190,
          "midi": 61,
          "name": "C#4",
          "ticks": 67680,
          "time": 156.66651,
          "velocity": 0.9448818897637795
        },
        {
          "duration": 1.9953683749999982,
          "durationTicks": 862,
          "midi": 57,
          "name": "A3",
          "ticks": 67872,
          "time": 157.110954,
          "velocity": 0.9448818897637795
        },
        {
          "duration": 0.439814374999969,
          "durationTicks": 190,
          "midi": 61,
          "name": "C#4",
          "ticks": 68832,
          "time": 159.333174,
          "velocity": 0.9448818897637795
        },
        {
          "duration": 0.4398143749999974,
          "durationTicks": 190,
          "midi": 59,
          "name": "B3",
          "ticks": 69024,
          "time": 159.777618,
          "velocity": 0.9448818897637795
        },
        {
          "duration": 0.4398143749999974,
          "durationTicks": 190,
          "midi": 61,
          "name": "C#4",
          "ticks": 69216,
          "time": 160.222062,
          "velocity": 0.9448818897637795
        },
        {
          "duration": 0.6620363749999854,
          "durationTicks": 286,
          "midi": 57,
          "name": "A3",
          "ticks": 69408,
          "time": 160.666506,
          "velocity": 0.9448818897637795
        },
        {
          "duration": 0.4398143749999974,
          "durationTicks": 190,
          "midi": 61,
          "name": "C#4",
          "ticks": 70368,
          "time": 162.888726,
          "velocity": 0.9448818897637795
        },
        {
          "duration": 0.4398143749999974,
          "durationTicks": 190,
          "midi": 59,
          "name": "B3",
          "ticks": 70560,
          "time": 163.33317,
          "velocity": 0.9448818897637795
        },
        {
          "duration": 0.21759237499998108,
          "durationTicks": 94,
          "midi": 57,
          "name": "A3",
          "ticks": 70752,
          "time": 163.777614,
          "velocity": 0.9448818897637795
        },
        {
          "duration": 0.21759237499998108,
          "durationTicks": 94,
          "midi": 61,
          "name": "C#4",
          "ticks": 72768,
          "time": 168.444276,
          "velocity": 0.9448818897637795
        },
        {
          "duration": 0.4398143749999974,
          "durationTicks": 190,
          "midi": 59,
          "name": "B3",
          "ticks": 72864,
          "time": 168.666498,
          "velocity": 0.9448818897637795
        },
        {
          "duration": 0.2175923750000095,
          "durationTicks": 94,
          "midi": 57,
          "name": "A3",
          "ticks": 73056,
          "time": 169.110942,
          "velocity": 0.9448818897637795
        }
      ]
    },
    {
      "channel": 0,
      "controlChanges": {
        "0": [
          {
            "number": 0,
            "ticks": 192,
            "time": 0.444444,
            "value": 0
          }
        ],
        "7": [
          {
            "number": 7,
            "ticks": 0,
            "time": 0,
            "value": 0.7874015748031497
          },
          {
            "number": 7,
            "ticks": 192,
            "time": 0.444444,
            "value": 0.905511811023622
          }
        ],
        "10": [
          {
            "number": 10,
            "ticks": 192,
            "time": 0.444444,
            "value": 0.6929133858267716
          }
        ],
        "91": [
          {
            "number": 91,
            "ticks": 192,
            "time": 0.444444,
            "value": 0.31496062992125984
          }
        ],
        "93": [
          {
            "number": 93,
            "ticks": 192,
            "time": 0.444444,
            "value": 0
          }
        ]
      },
      "pitchBends": [],
      "instrument": {
        "family": "piano",
        "number": 0,
        "name": "acoustic grand piano"
      },
      "name": "Choir Harmony 1",
      "notes": [],
      "endOfTrackTicks": 73150
    },
    {
      "channel": 6,
      "controlChanges": {},
      "pitchBends": [],
      "instrument": {
        "family": "ensemble",
        "number": 52,
        "name": "choir aahs"
      },
      "name": "",
      "notes": [
        {
          "duration": 0.21759237499999884,
          "durationTicks": 94,
          "midi": 66,
          "name": "F#4",
          "ticks": 8640,
          "time": 19.99998,
          "velocity": 0.905511811023622
        },
        {
          "duration": 0.439814375000001,
          "durationTicks": 190,
          "midi": 64,
          "name": "E4",
          "ticks": 8736,
          "time": 20.222202,
          "velocity": 0.905511811023622
        },
        {
          "duration": 0.439814375000001,
          "durationTicks": 190,
          "midi": 66,
          "name": "F#4",
          "ticks": 8928,
          "time": 20.666646,
          "velocity": 0.905511811023622
        },
        {
          "duration": 0.6620363749999996,
          "durationTicks": 286,
          "midi": 63,
          "name": "D#4",
          "ticks": 9120,
          "time": 21.11109,
          "velocity": 0.905511811023622
        },
        {
          "duration": 0.439814375000001,
          "durationTicks": 190,
          "midi": 64,
          "name": "E4",
          "ticks": 10080,
          "time": 23.33331,
          "velocity": 0.905511811023622
        },
        {
          "duration": 0.439814375000001,
          "durationTicks": 190,
          "midi": 62,
          "name": "D4",
          "ticks": 10272,
          "time": 23.777754,
          "velocity": 0.905511811023622
        },
        {
          "duration": 0.2175923750000024,
          "durationTicks": 94,
          "midi": 61,
          "name": "C#4",
          "ticks": 10464,
          "time": 24.222198,
          "velocity": 0.905511811023622
        },
        {
          "duration": 0.2175923750000024,
          "durationTicks": 94,
          "midi": 64,
          "name": "E4",
          "ticks": 15552,
          "time": 35.999964,
          "velocity": 0.905511811023622
        },
        {
          "duration": 0.21759237499999529,
          "durationTicks": 94,
          "midi": 61,
          "name": "C#4",
          "ticks": 15648,
          "time": 36.222186,
          "velocity": 0.905511811023622
        },
        {
          "duration": 0.21759237499999529,
          "durationTicks": 94,
          "midi": 62,
          "name": "D4",
          "ticks": 15744,
          "time": 36.444408,
          "velocity": 0.905511811023622
        },
        {
          "duration": 0.6620363749999996,
          "durationTicks": 286,
          "midi": 64,
          "name": "E4",
          "ticks": 15840,
          "time": 36.66663,
          "velocity": 0.905511811023622
        },
        {
          "duration": 0.21759237499999529,
          "durationTicks": 94,
          "midi": 64,
          "name": "E4",
          "ticks": 18624,
          "time": 43.111068,
          "velocity": 0.905511811023622
        },
        {
          "duration": 0.4398143749999974,
          "durationTicks": 190,
          "midi": 62,
          "name": "D4",
          "ticks": 18720,
          "time": 43.33329,
          "velocity": 0.905511811023622
        },
        {
          "duration": 0.4398143749999974,
          "durationTicks": 190,
          "midi": 64,
          "name": "E4",
          "ticks": 18912,
          "time": 43.777734,
          "velocity": 0.905511811023622
        },
        {
          "duration": 0.6620363749999996,
          "durationTicks": 286,
          "midi": 61,
          "name": "C#4",
          "ticks": 19104,
          "time": 44.222178,
          "velocity": 0.905511811023622
        },
        {
          "duration": 0.2175923750000024,
          "durationTicks": 94,
          "midi": 61,
          "name": "C#4",
          "ticks": 19392,
          "time": 44.888844,
          "velocity": 0.905511811023622
        },
        {
          "duration": 0.21759237499999529,
          "durationTicks": 94,
          "midi": 57,
          "name": "A3",
          "ticks": 19488,
          "time": 45.111066,
          "velocity": 0.905511811023622
        },
        {
          "duration": 0.21759237499999529,
          "durationTicks": 94,
          "midi": 59,
          "name": "B3",
          "ticks": 19584,
          "time": 45.333288,
          "velocity": 0.905511811023622
        },
        {
          "duration": 0.6620363749999996,
          "durationTicks": 286,
          "midi": 61,
          "name": "C#4",
          "ticks": 19680,
          "time": 45.55551,
          "velocity": 0.905511811023622
        },
        {
          "duration": 0.21759237499999529,
          "durationTicks": 94,
          "midi": 66,
          "name": "F#4",
          "ticks": 20160,
          "time": 46.66662,
          "velocity": 0.905511811023622
        },
        {
          "duration": 0.4398143749999974,
          "durationTicks": 190,
          "midi": 64,
          "name": "E4",
          "ticks": 20256,
          "time": 46.888842000000004,
          "velocity": 0.905511811023622
        },
        {
          "duration": 0.4398143749999974,
          "durationTicks": 190,
          "midi": 66,
          "name": "F#4",
          "ticks": 20448,
          "time": 47.333286,
          "velocity": 0.905511811023622
        },
        {
          "duration": 0.6620363749999996,
          "durationTicks": 286,
          "midi": 63,
          "name": "D#4",
          "ticks": 20640,
          "time": 47.77773,
          "velocity": 0.905511811023622
        },
        {
          "duration": 0.4398143749999974,
          "durationTicks": 190,
          "midi": 64,
          "name": "E4",
          "ticks": 21600,
          "time": 49.99995,
          "velocity": 0.905511811023622
        },
        {
          "duration": 0.4398143749999974,
          "durationTicks": 190,
          "midi": 62,
          "name": "D4",
          "ticks": 21792,
          "time": 50.444394,
          "velocity": 0.905511811023622
        },
        {
          "duration": 0.6620363749999996,
          "durationTicks": 286,
          "midi": 61,
          "name": "C#4",
          "ticks": 21984,
          "time": 50.888838,
          "velocity": 0.905511811023622
        },
        {
          "duration": 0.2175923750000095,
          "durationTicks": 94,
          "midi": 64,
          "name": "E4",
          "ticks": 28608,
          "time": 66.222156,
          "velocity": 0.905511811023622
        },
        {
          "duration": 0.2175923750000095,
          "durationTicks": 94,
          "midi": 61,
          "name": "C#4",
          "ticks": 28704,
          "time": 66.444378,
          "velocity": 0.905511811023622
        },
        {
          "duration": 0.2175923750000095,
          "durationTicks": 94,
          "midi": 62,
          "name": "D4",
          "ticks": 28800,
          "time": 66.6666,
          "velocity": 0.905511811023622
        },
        {
          "duration": 0.6620363749999996,
          "durationTicks": 286,
          "midi": 64,
          "name": "E4",
          "ticks": 28896,
          "time": 66.888822,
          "velocity": 0.905511811023622
        },
        {
          "duration": 0.2175923750000095,
          "durationTicks": 94,
          "midi": 64,
          "name": "E4",
          "ticks": 31680,
          "time": 73.33326,
          "velocity": 0.905511811023622
        },
        {
          "duration": 0.43981437500001164,
          "durationTicks": 190,
          "midi": 62,
          "name": "D4",
          "ticks": 31776,
          "time": 73.555482,
          "velocity": 0.905511811023622
        },
        {
          "duration": 0.4398143749999974,
          "durationTicks": 190,
          "midi": 64,
          "name": "E4",
          "ticks": 31968,
          "time": 73.999926,
          "velocity": 0.905511811023622
        },
        {
          "duration": 0.6620363749999996,
          "durationTicks": 286,
          "midi": 61,
          "name": "C#4",
          "ticks": 32160,
          "time": 74.44437,
          "velocity": 0.905511811023622
        },
        {
          "duration": 0.2175923750000095,
          "durationTicks": 94,
          "midi": 61,
          "name": "C#4",
          "ticks": 32448,
          "time": 75.111036,
          "velocity": 0.905511811023622
        },
        {
          "duration": 0.2175923750000095,
          "durationTicks": 94,
          "midi": 57,
          "name": "A3",
          "ticks": 32544,
          "time": 75.333258,
          "velocity": 0.905511811023622
        },
        {
          "duration": 0.21759237499999529,
          "durationTicks": 94,
          "midi": 59,
          "name": "B3",
          "ticks": 32640,
          "time": 75.55548,
          "velocity": 0.905511811023622
        },
        {
          "duration": 0.6620363749999996,
          "durationTicks": 286,
          "midi": 61,
          "name": "C#4",
          "ticks": 32736,
          "time": 75.777702,
          "velocity": 0.905511811023622
        },
        {
          "duration": 0.2175923750000095,
          "durationTicks": 94,
          "midi": 66,
          "name": "F#4",
          "ticks": 33216,
          "time": 76.888812,
          "velocity": 0.905511811023622
        },
        {
          "duration": 0.4398143749999974,
          "durationTicks": 190,
          "midi": 64,
          "name": "E4",
          "ticks": 33312,
          "time": 77.111034,
          "velocity": 0.905511811023622
        },
        {
          "duration": 0.4398143749999974,
          "durationTicks": 190,
          "midi": 66,
          "name": "F#4",
          "ticks": 33504,
          "time": 77.55547800000001,
          "velocity": 0.905511811023622
        },
        {
          "duration": 0.6620363750000138,
          "durationTicks": 286,
          "midi": 63,
          "name": "D#4",
          "ticks": 33696,
          "time": 77.999922,
          "velocity": 0.905511811023622
        },
        {
          "duration": 0.4398143749999974,
          "durationTicks": 190,
          "midi": 64,
          "name": "E4",
          "ticks": 34656,
          "time": 80.222142,
          "velocity": 0.905511811023622
        },
        {
          "duration": 0.43981437500001164,
          "durationTicks": 190,
          "midi": 62,
          "name": "D4",
          "ticks": 34848,
          "time": 80.666586,
          "velocity": 0.905511811023622
        },
        {
          "duration": 0.6620363749999996,
          "durationTicks": 286,
          "midi": 61,
          "name": "C#4",
          "ticks": 35040,
          "time": 81.11103,
          "velocity": 0.905511811023622
        },
        {
          "duration": 0.6620363749999996,
          "durationTicks": 286,
          "midi": 62,
          "name": "D4",
          "ticks": 41088,
          "time": 95.111016,
          "velocity": 0.905511811023622
        },
        {
          "duration": 0.6620363750000138,
          "durationTicks": 286,
          "midi": 62,
          "name": "D4",
          "ticks": 41376,
          "time": 95.777682,
          "velocity": 0.905511811023622
        },
        {
          "duration": 0.21759237499999529,
          "durationTicks": 94,
          "midi": 61,
          "name": "C#4",
          "ticks": 41664,
          "time": 96.444348,
          "velocity": 0.905511811023622
        },
        {
          "duration": 0.21759237499999529,
          "durationTicks": 94,
          "midi": 64,
          "name": "E4",
          "ticks": 41760,
          "time": 96.66657000000001,
          "velocity": 0.905511811023622
        },
        {
          "duration": 0.10648137500001553,
          "durationTicks": 46,
          "midi": 64,
          "name": "E4",
          "ticks": 41856,
          "time": 96.888792,
          "velocity": 0.905511811023622
        },
        {
          "duration": 0.10648137500000132,
          "durationTicks": 46,
          "midi": 66,
          "name": "F#4",
          "ticks": 41904,
          "time": 96.999903,
          "velocity": 0.905511811023622
        },
        {
          "duration": 1.5509243750000081,
          "durationTicks": 670,
          "midi": 64,
          "name": "E4",
          "ticks": 41952,
          "time": 97.111014,
          "velocity": 0.905511811023622
        },
        {
          "duration": 0.6620363749999996,
          "durationTicks": 286,
          "midi": 62,
          "name": "D4",
          "ticks": 43584,
          "time": 100.888788,
          "velocity": 0.905511811023622
        },
        {
          "duration": 0.6620363750000138,
          "durationTicks": 286,
          "midi": 62,
          "name": "D4",
          "ticks": 43872,
          "time": 101.555454,
          "velocity": 0.905511811023622
        },
        {
          "duration": 0.21759237499999529,
          "durationTicks": 94,
          "midi": 61,
          "name": "C#4",
          "ticks": 44160,
          "time": 102.22212,
          "velocity": 0.905511811023622
        },
        {
          "duration": 0.21759237499999529,
          "durationTicks": 94,
          "midi": 64,
          "name": "E4",
          "ticks": 44256,
          "time": 102.444342,
          "velocity": 0.905511811023622
        },
        {
          "duration": 0.10648137500000132,
          "durationTicks": 46,
          "midi": 64,
          "name": "E4",
          "ticks": 44352,
          "time": 102.66656400000001,
          "velocity": 0.905511811023622
        },
        {
          "duration": 0.10648137500000132,
          "durationTicks": 46,
          "midi": 66,
          "name": "F#4",
          "ticks": 44400,
          "time": 102.777675,
          "velocity": 0.905511811023622
        },
        {
          "duration": 1.5509243750000081,
          "durationTicks": 670,
          "midi": 64,
          "name": "E4",
          "ticks": 44448,
          "time": 102.888786,
          "velocity": 0.905511811023622
        },
        {
          "duration": 0.6620363749999996,
          "durationTicks": 286,
          "midi": 62,
          "name": "D4",
          "ticks": 46080,
          "time": 106.66656,
          "velocity": 0.905511811023622
        },
        {
          "duration": 0.6620363750000138,
          "durationTicks": 286,
          "midi": 62,
          "name": "D4",
          "ticks": 46368,
          "time": 107.333226,
          "velocity": 0.905511811023622
        },
        {
          "duration": 0.2175923750000095,
          "durationTicks": 94,
          "midi": 61,
          "name": "C#4",
          "ticks": 46656,
          "time": 107.999892,
          "velocity": 0.905511811023622
        },
        {
          "duration": 0.21759237499999529,
          "durationTicks": 94,
          "midi": 64,
          "name": "E4",
          "ticks": 46752,
          "time": 108.222114,
          "velocity": 0.905511811023622
        },
        {
          "duration": 0.10648137500000132,
          "durationTicks": 46,
          "midi": 64,
          "name": "E4",
          "ticks": 46848,
          "time": 108.444336,
          "velocity": 0.905511811023622
        },
        {
          "duration": 0.10648137500000132,
          "durationTicks": 46,
          "midi": 66,
          "name": "F#4",
          "ticks": 46896,
          "time": 108.555447,
          "velocity": 0.905511811023622
        },
        {
          "duration": 1.5509243750000081,
          "durationTicks": 670,
          "midi": 64,
          "name": "E4",
          "ticks": 46944,
          "time": 108.666558,
          "velocity": 0.905511811023622
        },
        {
          "duration": 0.6620363749999996,
          "durationTicks": 286,
          "midi": 62,
          "name": "D4",
          "ticks": 48576,
          "time": 112.444332,
          "velocity": 0.905511811023622
        },
        {
          "duration": 0.6620363750000138,
          "durationTicks": 286,
          "midi": 62,
          "name": "D4",
          "ticks": 48864,
          "time": 113.110998,
          "velocity": 0.905511811023622
        },
        {
          "duration": 0.21759237499999529,
          "durationTicks": 94,
          "midi": 61,
          "name": "C#4",
          "ticks": 49152,
          "time": 113.777664,
          "velocity": 0.905511811023622
        },
        {
          "duration": 0.21759237499999529,
          "durationTicks": 94,
          "midi": 64,
          "name": "E4",
          "ticks": 49248,
          "time": 113.999886,
          "velocity": 0.905511811023622
        },
        {
          "duration": 0.10648137499998711,
          "durationTicks": 46,
          "midi": 64,
          "name": "E4",
          "ticks": 49344,
          "time": 114.222108,
          "velocity": 0.905511811023622
        },
        {
          "duration": 0.10648137499998711,
          "durationTicks": 46,
          "midi": 66,
          "name": "F#4",
          "ticks": 49392,
          "time": 114.333219,
          "velocity": 0.905511811023622
        },
        {
          "duration": 1.5509243749999797,
          "durationTicks": 670,
          "midi": 64,
          "name": "E4",
          "ticks": 49440,
          "time": 114.44433000000001,
          "velocity": 0.905511811023622
        },
        {
          "duration": 0.6620363749999854,
          "durationTicks": 286,
          "midi": 62,
          "name": "D4",
          "ticks": 51072,
          "time": 118.222104,
          "velocity": 0.905511811023622
        },
        {
          "duration": 0.6620363749999854,
          "durationTicks": 286,
          "midi": 62,
          "name": "D4",
          "ticks": 51360,
          "time": 118.88877000000001,
          "velocity": 0.905511811023622
        },
        {
          "duration": 0.21759237499999529,
          "durationTicks": 94,
          "midi": 61,
          "name": "C#4",
          "ticks": 51648,
          "time": 119.555436,
          "velocity": 0.905511811023622
        },
        {
          "duration": 0.21759237499999529,
          "durationTicks": 94,
          "midi": 64,
          "name": "E4",
          "ticks": 51744,
          "time": 119.777658,
          "velocity": 0.905511811023622
        },
        {
          "duration": 0.10648137499998711,
          "durationTicks": 46,
          "midi": 64,
          "name": "E4",
          "ticks": 51840,
          "time": 119.99988,
          "velocity": 0.905511811023622
        },
        {
          "duration": 0.10648137500000132,
          "durationTicks": 46,
          "midi": 66,
          "name": "F#4",
          "ticks": 51888,
          "time": 120.110991,
          "velocity": 0.905511811023622
        },
        {
          "duration": 1.5509243749999797,
          "durationTicks": 670,
          "midi": 64,
          "name": "E4",
          "ticks": 51936,
          "time": 120.222102,
          "velocity": 0.905511811023622
        },
        {
          "duration": 0.21759237499998108,
          "durationTicks": 94,
          "midi": 64,
          "name": "E4",
          "ticks": 58944,
          "time": 136.444308,
          "velocity": 0.905511811023622
        },
        {
          "duration": 0.2175923750000095,
          "durationTicks": 94,
          "midi": 61,
          "name": "C#4",
          "ticks": 59040,
          "time": 136.66653,
          "velocity": 0.905511811023622
        },
        {
          "duration": 0.21759237499998108,
          "durationTicks": 94,
          "midi": 62,
          "name": "D4",
          "ticks": 59136,
          "time": 136.888752,
          "velocity": 0.905511811023622
        },
        {
          "duration": 0.6620363749999854,
          "durationTicks": 286,
          "midi": 64,
          "name": "E4",
          "ticks": 59232,
          "time": 137.110974,
          "velocity": 0.905511811023622
        },
        {
          "duration": 0.2175923750000095,
          "durationTicks": 94,
          "midi": 64,
          "name": "E4",
          "ticks": 62016,
          "time": 143.555412,
          "velocity": 0.905511811023622
        },
        {
          "duration": 0.4398143749999974,
          "durationTicks": 190,
          "midi": 62,
          "name": "D4",
          "ticks": 62112,
          "time": 143.777634,
          "velocity": 0.905511811023622
        },
        {
          "duration": 0.439814374999969,
          "durationTicks": 190,
          "midi": 64,
          "name": "E4",
          "ticks": 62304,
          "time": 144.222078,
          "velocity": 0.905511811023622
        },
        {
          "duration": 0.6620363749999854,
          "durationTicks": 286,
          "midi": 61,
          "name": "C#4",
          "ticks": 62496,
          "time": 144.66652200000001,
          "velocity": 0.905511811023622
        },
        {
          "duration": 0.21759237499998108,
          "durationTicks": 94,
          "midi": 61,
          "name": "C#4",
          "ticks": 62784,
          "time": 145.333188,
          "velocity": 0.905511811023622
        },
        {
          "duration": 0.2175923750000095,
          "durationTicks": 94,
          "midi": 57,
          "name": "A3",
          "ticks": 62880,
          "time": 145.55541,
          "velocity": 0.905511811023622
        },
        {
          "duration": 0.21759237499998108,
          "durationTicks": 94,
          "midi": 59,
          "name": "B3",
          "ticks": 62976,
          "time": 145.777632,
          "velocity": 0.905511811023622
        },
        {
          "duration": 0.6620363749999854,
          "durationTicks": 286,
          "midi": 61,
          "name": "C#4",
          "ticks": 63072,
          "time": 145.999854,
          "velocity": 0.905511811023622
        },
        {
          "duration": 0.2175923750000095,
          "durationTicks": 94,
          "midi": 66,
          "name": "F#4",
          "ticks": 63552,
          "time": 147.110964,
          "velocity": 0.905511811023622
        },
        {
          "duration": 0.439814374999969,
          "durationTicks": 190,
          "midi": 64,
          "name": "E4",
          "ticks": 63648,
          "time": 147.333186,
          "velocity": 0.905511811023622
        },
        {
          "duration": 0.4398143749999974,
          "durationTicks": 190,
          "midi": 66,
          "name": "F#4",
          "ticks": 63840,
          "time": 147.77763,
          "velocity": 0.905511811023622
        },
        {
          "duration": 0.6620363750000138,
          "durationTicks": 286,
          "midi": 63,
          "name": "D#4",
          "ticks": 64032,
          "time": 148.222074,
          "velocity": 0.905511811023622
        },
        {
          "duration": 0.439814374999969,
          "durationTicks": 190,
          "midi": 64,
          "name": "E4",
          "ticks": 64992,
          "time": 150.444294,
          "velocity": 0.905511811023622
        },
        {
          "duration": 0.4398143749999974,
          "durationTicks": 190,
          "midi": 62,
          "name": "D4",
          "ticks": 65184,
          "time": 150.888738,
          "velocity": 0.905511811023622
        },
        {
          "duration": 0.6620363750000138,
          "durationTicks": 286,
          "midi": 61,
          "name": "C#4",
          "ticks": 65376,
          "time": 151.333182,
          "velocity": 0.905511811023622
        },
        {
          "duration": 0.2175923750000095,
          "durationTicks": 94,
          "midi": 64,
          "name": "E4",
          "ticks": 67392,
          "time": 155.999844,
          "velocity": 0.905511811023622
        },
        {
          "duration": 0.439814374999969,
          "durationTicks": 190,
          "midi": 62,
          "name": "D4",
          "ticks": 67488,
          "time": 156.222066,
          "velocity": 0.905511811023622
        },
        {
          "duration": 0.4398143749999974,
          "durationTicks": 190,
          "midi": 64,
          "name": "E4",
          "ticks": 67680,
          "time": 156.66651,
          "velocity": 0.905511811023622
        },
        {
          "duration": 0.6620363750000138,
          "durationTicks": 286,
          "midi": 61,
          "name": "C#4",
          "ticks": 67872,
          "time": 157.110954,
          "velocity": 0.905511811023622
        },
        {
          "duration": 0.21759237499998108,
          "durationTicks": 94,
          "midi": 61,
          "name": "C#4",
          "ticks": 68160,
          "time": 157.77762,
          "velocity": 0.905511811023622
        },
        {
          "duration": 0.21759237499998108,
          "durationTicks": 94,
          "midi": 57,
          "name": "A3",
          "ticks": 68256,
          "time": 157.999842,
          "velocity": 0.905511811023622
        },
        {
          "duration": 0.2175923750000095,
          "durationTicks": 94,
          "midi": 59,
          "name": "B3",
          "ticks": 68352,
          "time": 158.222064,
          "velocity": 0.905511811023622
        },
        {
          "duration": 0.6620363749999854,
          "durationTicks": 286,
          "midi": 61,
          "name": "C#4",
          "ticks": 68448,
          "time": 158.444286,
          "velocity": 0.905511811023622
        },
        {
          "duration": 0.439814374999969,
          "durationTicks": 190,
          "midi": 66,
          "name": "F#4",
          "ticks": 68832,
          "time": 159.333174,
          "velocity": 0.905511811023622
        },
        {
          "duration": 0.4398143749999974,
          "durationTicks": 190,
          "midi": 64,
          "name": "E4",
          "ticks": 69024,
          "time": 159.777618,
          "velocity": 0.905511811023622
        },
        {
          "duration": 0.4398143749999974,
          "durationTicks": 190,
          "midi": 66,
          "name": "F#4",
          "ticks": 69216,
          "time": 160.222062,
          "velocity": 0.905511811023622
        },
        {
          "duration": 0.6620363749999854,
          "durationTicks": 286,
          "midi": 63,
          "name": "D#4",
          "ticks": 69408,
          "time": 160.666506,
          "velocity": 0.905511811023622
        },
        {
          "duration": 0.4398143749999974,
          "durationTicks": 190,
          "midi": 64,
          "name": "E4",
          "ticks": 70368,
          "time": 162.888726,
          "velocity": 0.905511811023622
        },
        {
          "duration": 0.4398143749999974,
          "durationTicks": 190,
          "midi": 62,
          "name": "D4",
          "ticks": 70560,
          "time": 163.33317,
          "velocity": 0.905511811023622
        },
        {
          "duration": 0.21759237499998108,
          "durationTicks": 94,
          "midi": 61,
          "name": "C#4",
          "ticks": 70752,
          "time": 163.777614,
          "velocity": 0.905511811023622
        },
        {
          "duration": 0.21759237499998108,
          "durationTicks": 94,
          "midi": 64,
          "name": "E4",
          "ticks": 72768,
          "time": 168.444276,
          "velocity": 0.905511811023622
        },
        {
          "duration": 0.4398143749999974,
          "durationTicks": 190,
          "midi": 62,
          "name": "D4",
          "ticks": 72864,
          "time": 168.666498,
          "velocity": 0.905511811023622
        },
        {
          "duration": 0.2175923750000095,
          "durationTicks": 94,
          "midi": 61,
          "name": "C#4",
          "ticks": 73056,
          "time": 169.110942,
          "velocity": 0.905511811023622
        }
      ]
    },
    {
      "channel": 0,
      "controlChanges": {
        "0": [
          {
            "number": 0,
            "ticks": 192,
            "time": 0.444444,
            "value": 0
          }
        ],
        "7": [
          {
            "number": 7,
            "ticks": 0,
            "time": 0,
            "value": 0.7874015748031497
          },
          {
            "number": 7,
            "ticks": 192,
            "time": 0.444444,
            "value": 0.905511811023622
          }
        ],
        "10": [
          {
            "number": 10,
            "ticks": 192,
            "time": 0.444444,
            "value": 0.31496062992125984
          }
        ],
        "91": [
          {
            "number": 91,
            "ticks": 192,
            "time": 0.444444,
            "value": 0.31496062992125984
          }
        ],
        "93": [
          {
            "number": 93,
            "ticks": 192,
            "time": 0.444444,
            "value": 0
          }
        ]
      },
      "pitchBends": [],
      "instrument": {
        "family": "piano",
        "number": 0,
        "name": "acoustic grand piano"
      },
      "name": "Choir Harmony 2",
      "notes": [],
      "endOfTrackTicks": 73150
    },
    {
      "channel": 7,
      "controlChanges": {},
      "pitchBends": [],
      "instrument": {
        "family": "ensemble",
        "number": 52,
        "name": "choir aahs"
      },
      "name": "",
      "notes": [
        {
          "duration": 0.21759237499999884,
          "durationTicks": 94,
          "midi": 69,
          "name": "A4",
          "ticks": 8640,
          "time": 19.99998,
          "velocity": 0.905511811023622
        },
        {
          "duration": 0.439814375000001,
          "durationTicks": 190,
          "midi": 68,
          "name": "G#4",
          "ticks": 8736,
          "time": 20.222202,
          "velocity": 0.905511811023622
        },
        {
          "duration": 0.439814375000001,
          "durationTicks": 190,
          "midi": 69,
          "name": "A4",
          "ticks": 8928,
          "time": 20.666646,
          "velocity": 0.905511811023622
        },
        {
          "duration": 0.6620363749999996,
          "durationTicks": 286,
          "midi": 66,
          "name": "F#4",
          "ticks": 9120,
          "time": 21.11109,
          "velocity": 0.905511811023622
        },
        {
          "duration": 0.439814375000001,
          "durationTicks": 190,
          "midi": 69,
          "name": "A4",
          "ticks": 10080,
          "time": 23.33331,
          "velocity": 0.905511811023622
        },
        {
          "duration": 0.439814375000001,
          "durationTicks": 190,
          "midi": 66,
          "name": "F#4",
          "ticks": 10272,
          "time": 23.777754,
          "velocity": 0.905511811023622
        },
        {
          "duration": 0.2175923750000024,
          "durationTicks": 94,
          "midi": 64,
          "name": "E4",
          "ticks": 10464,
          "time": 24.222198,
          "velocity": 0.905511811023622
        },
        {
          "duration": 0.2175923750000024,
          "durationTicks": 94,
          "midi": 69,
          "name": "A4",
          "ticks": 15552,
          "time": 35.999964,
          "velocity": 0.905511811023622
        },
        {
          "duration": 0.21759237499999529,
          "durationTicks": 94,
          "midi": 64,
          "name": "E4",
          "ticks": 15648,
          "time": 36.222186,
          "velocity": 0.905511811023622
        },
        {
          "duration": 0.21759237499999529,
          "durationTicks": 94,
          "midi": 66,
          "name": "F#4",
          "ticks": 15744,
          "time": 36.444408,
          "velocity": 0.905511811023622
        },
        {
          "duration": 0.6620363749999996,
          "durationTicks": 286,
          "midi": 69,
          "name": "A4",
          "ticks": 15840,
          "time": 36.66663,
          "velocity": 0.905511811023622
        },
        {
          "duration": 0.21759237499999529,
          "durationTicks": 94,
          "midi": 69,
          "name": "A4",
          "ticks": 18624,
          "time": 43.111068,
          "velocity": 0.905511811023622
        },
        {
          "duration": 0.4398143749999974,
          "durationTicks": 190,
          "midi": 68,
          "name": "G#4",
          "ticks": 18720,
          "time": 43.33329,
          "velocity": 0.905511811023622
        },
        {
          "duration": 0.4398143749999974,
          "durationTicks": 190,
          "midi": 69,
          "name": "A4",
          "ticks": 18912,
          "time": 43.777734,
          "velocity": 0.905511811023622
        },
        {
          "duration": 0.6620363749999996,
          "durationTicks": 286,
          "midi": 64,
          "name": "E4",
          "ticks": 19104,
          "time": 44.222178,
          "velocity": 0.905511811023622
        },
        {
          "duration": 0.2175923750000024,
          "durationTicks": 94,
          "midi": 64,
          "name": "E4",
          "ticks": 19392,
          "time": 44.888844,
          "velocity": 0.905511811023622
        },
        {
          "duration": 0.21759237499999529,
          "durationTicks": 94,
          "midi": 61,
          "name": "C#4",
          "ticks": 19488,
          "time": 45.111066,
          "velocity": 0.905511811023622
        },
        {
          "duration": 0.21759237499999529,
          "durationTicks": 94,
          "midi": 62,
          "name": "D4",
          "ticks": 19584,
          "time": 45.333288,
          "velocity": 0.905511811023622
        },
        {
          "duration": 0.6620363749999996,
          "durationTicks": 286,
          "midi": 64,
          "name": "E4",
          "ticks": 19680,
          "time": 45.55551,
          "velocity": 0.905511811023622
        },
        {
          "duration": 0.21759237499999529,
          "durationTicks": 94,
          "midi": 69,
          "name": "A4",
          "ticks": 20160,
          "time": 46.66662,
          "velocity": 0.905511811023622
        },
        {
          "duration": 0.4398143749999974,
          "durationTicks": 190,
          "midi": 68,
          "name": "G#4",
          "ticks": 20256,
          "time": 46.888842000000004,
          "velocity": 0.905511811023622
        },
        {
          "duration": 0.4398143749999974,
          "durationTicks": 190,
          "midi": 69,
          "name": "A4",
          "ticks": 20448,
          "time": 47.333286,
          "velocity": 0.905511811023622
        },
        {
          "duration": 0.6620363749999996,
          "durationTicks": 286,
          "midi": 66,
          "name": "F#4",
          "ticks": 20640,
          "time": 47.77773,
          "velocity": 0.905511811023622
        },
        {
          "duration": 0.4398143749999974,
          "durationTicks": 190,
          "midi": 69,
          "name": "A4",
          "ticks": 21600,
          "time": 49.99995,
          "velocity": 0.905511811023622
        },
        {
          "duration": 0.4398143749999974,
          "durationTicks": 190,
          "midi": 66,
          "name": "F#4",
          "ticks": 21792,
          "time": 50.444394,
          "velocity": 0.905511811023622
        },
        {
          "duration": 0.6620363749999996,
          "durationTicks": 286,
          "midi": 64,
          "name": "E4",
          "ticks": 21984,
          "time": 50.888838,
          "velocity": 0.905511811023622
        },
        {
          "duration": 0.2175923750000095,
          "durationTicks": 94,
          "midi": 69,
          "name": "A4",
          "ticks": 28608,
          "time": 66.222156,
          "velocity": 0.905511811023622
        },
        {
          "duration": 0.2175923750000095,
          "durationTicks": 94,
          "midi": 64,
          "name": "E4",
          "ticks": 28704,
          "time": 66.444378,
          "velocity": 0.905511811023622
        },
        {
          "duration": 0.2175923750000095,
          "durationTicks": 94,
          "midi": 66,
          "name": "F#4",
          "ticks": 28800,
          "time": 66.6666,
          "velocity": 0.905511811023622
        },
        {
          "duration": 0.6620363749999996,
          "durationTicks": 286,
          "midi": 69,
          "name": "A4",
          "ticks": 28896,
          "time": 66.888822,
          "velocity": 0.905511811023622
        },
        {
          "duration": 0.2175923750000095,
          "durationTicks": 94,
          "midi": 69,
          "name": "A4",
          "ticks": 31680,
          "time": 73.33326,
          "velocity": 0.905511811023622
        },
        {
          "duration": 0.43981437500001164,
          "durationTicks": 190,
          "midi": 68,
          "name": "G#4",
          "ticks": 31776,
          "time": 73.555482,
          "velocity": 0.905511811023622
        },
        {
          "duration": 0.4398143749999974,
          "durationTicks": 190,
          "midi": 69,
          "name": "A4",
          "ticks": 31968,
          "time": 73.999926,
          "velocity": 0.905511811023622
        },
        {
          "duration": 0.6620363749999996,
          "durationTicks": 286,
          "midi": 64,
          "name": "E4",
          "ticks": 32160,
          "time": 74.44437,
          "velocity": 0.905511811023622
        },
        {
          "duration": 0.2175923750000095,
          "durationTicks": 94,
          "midi": 64,
          "name": "E4",
          "ticks": 32448,
          "time": 75.111036,
          "velocity": 0.905511811023622
        },
        {
          "duration": 0.2175923750000095,
          "durationTicks": 94,
          "midi": 61,
          "name": "C#4",
          "ticks": 32544,
          "time": 75.333258,
          "velocity": 0.905511811023622
        },
        {
          "duration": 0.21759237499999529,
          "durationTicks": 94,
          "midi": 62,
          "name": "D4",
          "ticks": 32640,
          "time": 75.55548,
          "velocity": 0.905511811023622
        },
        {
          "duration": 0.6620363749999996,
          "durationTicks": 286,
          "midi": 64,
          "name": "E4",
          "ticks": 32736,
          "time": 75.777702,
          "velocity": 0.905511811023622
        },
        {
          "duration": 0.2175923750000095,
          "durationTicks": 94,
          "midi": 69,
          "name": "A4",
          "ticks": 33216,
          "time": 76.888812,
          "velocity": 0.905511811023622
        },
        {
          "duration": 0.4398143749999974,
          "durationTicks": 190,
          "midi": 68,
          "name": "G#4",
          "ticks": 33312,
          "time": 77.111034,
          "velocity": 0.905511811023622
        },
        {
          "duration": 0.4398143749999974,
          "durationTicks": 190,
          "midi": 69,
          "name": "A4",
          "ticks": 33504,
          "time": 77.55547800000001,
          "velocity": 0.905511811023622
        },
        {
          "duration": 0.6620363750000138,
          "durationTicks": 286,
          "midi": 66,
          "name": "F#4",
          "ticks": 33696,
          "time": 77.999922,
          "velocity": 0.905511811023622
        },
        {
          "duration": 0.4398143749999974,
          "durationTicks": 190,
          "midi": 69,
          "name": "A4",
          "ticks": 34656,
          "time": 80.222142,
          "velocity": 0.905511811023622
        },
        {
          "duration": 0.43981437500001164,
          "durationTicks": 190,
          "midi": 66,
          "name": "F#4",
          "ticks": 34848,
          "time": 80.666586,
          "velocity": 0.905511811023622
        },
        {
          "duration": 0.6620363749999996,
          "durationTicks": 286,
          "midi": 64,
          "name": "E4",
          "ticks": 35040,
          "time": 81.11103,
          "velocity": 0.905511811023622
        },
        {
          "duration": 0.21759237499999529,
          "durationTicks": 94,
          "midi": 57,
          "name": "A3",
          "ticks": 41664,
          "time": 96.444348,
          "velocity": 0.905511811023622
        },
        {
          "duration": 0.21759237499999529,
          "durationTicks": 94,
          "midi": 61,
          "name": "C#4",
          "ticks": 41760,
          "time": 96.66657000000001,
          "velocity": 0.905511811023622
        },
        {
          "duration": 0.10648137500001553,
          "durationTicks": 46,
          "midi": 61,
          "name": "C#4",
          "ticks": 41856,
          "time": 96.888792,
          "velocity": 0.905511811023622
        },
        {
          "duration": 0.10648137500000132,
          "durationTicks": 46,
          "midi": 62,
          "name": "D4",
          "ticks": 41904,
          "time": 96.999903,
          "velocity": 0.905511811023622
        },
        {
          "duration": 1.5509243750000081,
          "durationTicks": 670,
          "midi": 61,
          "name": "C#4",
          "ticks": 41952,
          "time": 97.111014,
          "velocity": 0.905511811023622
        },
        {
          "duration": 0.21759237499999529,
          "durationTicks": 94,
          "midi": 57,
          "name": "A3",
          "ticks": 44160,
          "time": 102.22212,
          "velocity": 0.905511811023622
        },
        {
          "duration": 0.21759237499999529,
          "durationTicks": 94,
          "midi": 61,
          "name": "C#4",
          "ticks": 44256,
          "time": 102.444342,
          "velocity": 0.905511811023622
        },
        {
          "duration": 0.10648137500000132,
          "durationTicks": 46,
          "midi": 61,
          "name": "C#4",
          "ticks": 44352,
          "time": 102.66656400000001,
          "velocity": 0.905511811023622
        },
        {
          "duration": 0.10648137500000132,
          "durationTicks": 46,
          "midi": 62,
          "name": "D4",
          "ticks": 44400,
          "time": 102.777675,
          "velocity": 0.905511811023622
        },
        {
          "duration": 1.5509243750000081,
          "durationTicks": 670,
          "midi": 61,
          "name": "C#4",
          "ticks": 44448,
          "time": 102.888786,
          "velocity": 0.905511811023622
        },
        {
          "duration": 0.2175923750000095,
          "durationTicks": 94,
          "midi": 57,
          "name": "A3",
          "ticks": 46656,
          "time": 107.999892,
          "velocity": 0.905511811023622
        },
        {
          "duration": 0.21759237499999529,
          "durationTicks": 94,
          "midi": 61,
          "name": "C#4",
          "ticks": 46752,
          "time": 108.222114,
          "velocity": 0.905511811023622
        },
        {
          "duration": 0.10648137500000132,
          "durationTicks": 46,
          "midi": 61,
          "name": "C#4",
          "ticks": 46848,
          "time": 108.444336,
          "velocity": 0.905511811023622
        },
        {
          "duration": 0.10648137500000132,
          "durationTicks": 46,
          "midi": 62,
          "name": "D4",
          "ticks": 46896,
          "time": 108.555447,
          "velocity": 0.905511811023622
        },
        {
          "duration": 1.5509243750000081,
          "durationTicks": 670,
          "midi": 61,
          "name": "C#4",
          "ticks": 46944,
          "time": 108.666558,
          "velocity": 0.905511811023622
        },
        {
          "duration": 0.21759237499999529,
          "durationTicks": 94,
          "midi": 57,
          "name": "A3",
          "ticks": 49152,
          "time": 113.777664,
          "velocity": 0.905511811023622
        },
        {
          "duration": 0.21759237499999529,
          "durationTicks": 94,
          "midi": 61,
          "name": "C#4",
          "ticks": 49248,
          "time": 113.999886,
          "velocity": 0.905511811023622
        },
        {
          "duration": 0.10648137499998711,
          "durationTicks": 46,
          "midi": 61,
          "name": "C#4",
          "ticks": 49344,
          "time": 114.222108,
          "velocity": 0.905511811023622
        },
        {
          "duration": 0.10648137499998711,
          "durationTicks": 46,
          "midi": 62,
          "name": "D4",
          "ticks": 49392,
          "time": 114.333219,
          "velocity": 0.905511811023622
        },
        {
          "duration": 1.5509243749999797,
          "durationTicks": 670,
          "midi": 61,
          "name": "C#4",
          "ticks": 49440,
          "time": 114.44433000000001,
          "velocity": 0.905511811023622
        },
        {
          "duration": 0.21759237499999529,
          "durationTicks": 94,
          "midi": 57,
          "name": "A3",
          "ticks": 51648,
          "time": 119.555436,
          "velocity": 0.905511811023622
        },
        {
          "duration": 0.21759237499999529,
          "durationTicks": 94,
          "midi": 61,
          "name": "C#4",
          "ticks": 51744,
          "time": 119.777658,
          "velocity": 0.905511811023622
        },
        {
          "duration": 0.10648137499998711,
          "durationTicks": 46,
          "midi": 61,
          "name": "C#4",
          "ticks": 51840,
          "time": 119.99988,
          "velocity": 0.905511811023622
        },
        {
          "duration": 0.10648137500000132,
          "durationTicks": 46,
          "midi": 62,
          "name": "D4",
          "ticks": 51888,
          "time": 120.110991,
          "velocity": 0.905511811023622
        },
        {
          "duration": 1.5509243749999797,
          "durationTicks": 670,
          "midi": 61,
          "name": "C#4",
          "ticks": 51936,
          "time": 120.222102,
          "velocity": 0.905511811023622
        },
        {
          "duration": 0.21759237499998108,
          "durationTicks": 94,
          "midi": 69,
          "name": "A4",
          "ticks": 58944,
          "time": 136.444308,
          "velocity": 0.905511811023622
        },
        {
          "duration": 0.2175923750000095,
          "durationTicks": 94,
          "midi": 64,
          "name": "E4",
          "ticks": 59040,
          "time": 136.66653,
          "velocity": 0.905511811023622
        },
        {
          "duration": 0.21759237499998108,
          "durationTicks": 94,
          "midi": 66,
          "name": "F#4",
          "ticks": 59136,
          "time": 136.888752,
          "velocity": 0.905511811023622
        },
        {
          "duration": 0.6620363749999854,
          "durationTicks": 286,
          "midi": 69,
          "name": "A4",
          "ticks": 59232,
          "time": 137.110974,
          "velocity": 0.905511811023622
        },
        {
          "duration": 0.2175923750000095,
          "durationTicks": 94,
          "midi": 69,
          "name": "A4",
          "ticks": 62016,
          "time": 143.555412,
          "velocity": 0.905511811023622
        },
        {
          "duration": 0.4398143749999974,
          "durationTicks": 190,
          "midi": 68,
          "name": "G#4",
          "ticks": 62112,
          "time": 143.777634,
          "velocity": 0.905511811023622
        },
        {
          "duration": 0.439814374999969,
          "durationTicks": 190,
          "midi": 69,
          "name": "A4",
          "ticks": 62304,
          "time": 144.222078,
          "velocity": 0.905511811023622
        },
        {
          "duration": 0.6620363749999854,
          "durationTicks": 286,
          "midi": 64,
          "name": "E4",
          "ticks": 62496,
          "time": 144.66652200000001,
          "velocity": 0.905511811023622
        },
        {
          "duration": 0.21759237499998108,
          "durationTicks": 94,
          "midi": 64,
          "name": "E4",
          "ticks": 62784,
          "time": 145.333188,
          "velocity": 0.905511811023622
        },
        {
          "duration": 0.2175923750000095,
          "durationTicks": 94,
          "midi": 61,
          "name": "C#4",
          "ticks": 62880,
          "time": 145.55541,
          "velocity": 0.905511811023622
        },
        {
          "duration": 0.21759237499998108,
          "durationTicks": 94,
          "midi": 62,
          "name": "D4",
          "ticks": 62976,
          "time": 145.777632,
          "velocity": 0.905511811023622
        },
        {
          "duration": 0.6620363749999854,
          "durationTicks": 286,
          "midi": 64,
          "name": "E4",
          "ticks": 63072,
          "time": 145.999854,
          "velocity": 0.905511811023622
        },
        {
          "duration": 0.2175923750000095,
          "durationTicks": 94,
          "midi": 69,
          "name": "A4",
          "ticks": 63552,
          "time": 147.110964,
          "velocity": 0.905511811023622
        },
        {
          "duration": 0.439814374999969,
          "durationTicks": 190,
          "midi": 68,
          "name": "G#4",
          "ticks": 63648,
          "time": 147.333186,
          "velocity": 0.905511811023622
        },
        {
          "duration": 0.4398143749999974,
          "durationTicks": 190,
          "midi": 69,
          "name": "A4",
          "ticks": 63840,
          "time": 147.77763,
          "velocity": 0.905511811023622
        },
        {
          "duration": 0.6620363750000138,
          "durationTicks": 286,
          "midi": 66,
          "name": "F#4",
          "ticks": 64032,
          "time": 148.222074,
          "velocity": 0.905511811023622
        },
        {
          "duration": 0.439814374999969,
          "durationTicks": 190,
          "midi": 69,
          "name": "A4",
          "ticks": 64992,
          "time": 150.444294,
          "velocity": 0.905511811023622
        },
        {
          "duration": 0.4398143749999974,
          "durationTicks": 190,
          "midi": 66,
          "name": "F#4",
          "ticks": 65184,
          "time": 150.888738,
          "velocity": 0.905511811023622
        },
        {
          "duration": 0.6620363750000138,
          "durationTicks": 286,
          "midi": 64,
          "name": "E4",
          "ticks": 65376,
          "time": 151.333182,
          "velocity": 0.905511811023622
        },
        {
          "duration": 0.2175923750000095,
          "durationTicks": 94,
          "midi": 69,
          "name": "A4",
          "ticks": 67392,
          "time": 155.999844,
          "velocity": 0.905511811023622
        },
        {
          "duration": 0.439814374999969,
          "durationTicks": 190,
          "midi": 68,
          "name": "G#4",
          "ticks": 67488,
          "time": 156.222066,
          "velocity": 0.905511811023622
        },
        {
          "duration": 0.4398143749999974,
          "durationTicks": 190,
          "midi": 69,
          "name": "A4",
          "ticks": 67680,
          "time": 156.66651,
          "velocity": 0.905511811023622
        },
        {
          "duration": 0.6620363750000138,
          "durationTicks": 286,
          "midi": 64,
          "name": "E4",
          "ticks": 67872,
          "time": 157.110954,
          "velocity": 0.905511811023622
        },
        {
          "duration": 0.21759237499998108,
          "durationTicks": 94,
          "midi": 64,
          "name": "E4",
          "ticks": 68160,
          "time": 157.77762,
          "velocity": 0.905511811023622
        },
        {
          "duration": 0.21759237499998108,
          "durationTicks": 94,
          "midi": 61,
          "name": "C#4",
          "ticks": 68256,
          "time": 157.999842,
          "velocity": 0.905511811023622
        },
        {
          "duration": 0.2175923750000095,
          "durationTicks": 94,
          "midi": 62,
          "name": "D4",
          "ticks": 68352,
          "time": 158.222064,
          "velocity": 0.905511811023622
        },
        {
          "duration": 0.6620363749999854,
          "durationTicks": 286,
          "midi": 64,
          "name": "E4",
          "ticks": 68448,
          "time": 158.444286,
          "velocity": 0.905511811023622
        },
        {
          "duration": 0.439814374999969,
          "durationTicks": 190,
          "midi": 69,
          "name": "A4",
          "ticks": 68832,
          "time": 159.333174,
          "velocity": 0.905511811023622
        },
        {
          "duration": 0.4398143749999974,
          "durationTicks": 190,
          "midi": 68,
          "name": "G#4",
          "ticks": 69024,
          "time": 159.777618,
          "velocity": 0.905511811023622
        },
        {
          "duration": 0.4398143749999974,
          "durationTicks": 190,
          "midi": 69,
          "name": "A4",
          "ticks": 69216,
          "time": 160.222062,
          "velocity": 0.905511811023622
        },
        {
          "duration": 0.6620363749999854,
          "durationTicks": 286,
          "midi": 66,
          "name": "F#4",
          "ticks": 69408,
          "time": 160.666506,
          "velocity": 0.905511811023622
        },
        {
          "duration": 0.4398143749999974,
          "durationTicks": 190,
          "midi": 69,
          "name": "A4",
          "ticks": 70368,
          "time": 162.888726,
          "velocity": 0.905511811023622
        },
        {
          "duration": 0.4398143749999974,
          "durationTicks": 190,
          "midi": 66,
          "name": "F#4",
          "ticks": 70560,
          "time": 163.33317,
          "velocity": 0.905511811023622
        },
        {
          "duration": 0.21759237499998108,
          "durationTicks": 94,
          "midi": 64,
          "name": "E4",
          "ticks": 70752,
          "time": 163.777614,
          "velocity": 0.905511811023622
        },
        {
          "duration": 0.21759237499998108,
          "durationTicks": 94,
          "midi": 69,
          "name": "A4",
          "ticks": 72768,
          "time": 168.444276,
          "velocity": 0.905511811023622
        },
        {
          "duration": 0.4398143749999974,
          "durationTicks": 190,
          "midi": 66,
          "name": "F#4",
          "ticks": 72864,
          "time": 168.666498,
          "velocity": 0.905511811023622
        },
        {
          "duration": 0.2175923750000095,
          "durationTicks": 94,
          "midi": 64,
          "name": "E4",
          "ticks": 73056,
          "time": 169.110942,
          "velocity": 0.905511811023622
        }
      ]
    },
    {
      "channel": 9,
      "controlChanges": {
        "7": [
          {
            "number": 7,
            "ticks": 0,
            "time": 0,
            "value": 0.7874015748031497
          },
          {
            "number": 7,
            "ticks": 192,
            "time": 0.444444,
            "value": 0.7874015748031497
          }
        ],
        "10": [
          {
            "number": 10,
            "ticks": 192,
            "time": 0.444444,
            "value": 0.5039370078740157
          }
        ],
        "91": [
          {
            "number": 91,
            "ticks": 192,
            "time": 0.444444,
            "value": 0.3543307086614173
          }
        ],
        "93": [
          {
            "number": 93,
            "ticks": 192,
            "time": 0.444444,
            "value": 0
          }
        ]
      },
      "pitchBends": [],
      "instrument": {
        "family": "drums",
        "number": 0,
        "name": "standard kit"
      },
      "name": "Std Drum Set",
      "notes": [
        {
          "duration": 0.2175923750000024,
          "durationTicks": 94,
          "midi": 42,
          "name": "F#2",
          "ticks": 10656,
          "time": 24.666642,
          "velocity": 0.7874015748031497
        },
        {
          "duration": 0.21759237499999884,
          "durationTicks": 94,
          "midi": 42,
          "name": "F#2",
          "ticks": 10752,
          "time": 24.888864,
          "velocity": 0.7874015748031497
        },
        {
          "duration": 0.21759237499999884,
          "durationTicks": 94,
          "midi": 38,
          "name": "D2",
          "ticks": 10752,
          "time": 24.888864,
          "velocity": 0.7874015748031497
        },
        {
          "duration": 0.21759237499999884,
          "durationTicks": 94,
          "midi": 36,
          "name": "C2",
          "ticks": 10752,
          "time": 24.888864,
          "velocity": 0.7874015748031497
        },
        {
          "duration": 0.2175923750000024,
          "durationTicks": 94,
          "midi": 42,
          "name": "F#2",
          "ticks": 10848,
          "time": 25.111086,
          "velocity": 0.7874015748031497
        },
        {
          "duration": 0.2175923750000024,
          "durationTicks": 94,
          "midi": 42,
          "name": "F#2",
          "ticks": 10944,
          "time": 25.333308,
          "velocity": 0.7874015748031497
        },
        {
          "duration": 0.21759237499999884,
          "durationTicks": 94,
          "midi": 42,
          "name": "F#2",
          "ticks": 11040,
          "time": 25.55553,
          "velocity": 0.7874015748031497
        },
        {
          "duration": 0.21759237499999884,
          "durationTicks": 94,
          "midi": 36,
          "name": "C2",
          "ticks": 11040,
          "time": 25.55553,
          "velocity": 0.7874015748031497
        },
        {
          "duration": 0.21759237499999884,
          "durationTicks": 94,
          "midi": 38,
          "name": "D2",
          "ticks": 11040,
          "time": 25.55553,
          "velocity": 0.7874015748031497
        },
        {
          "duration": 0.2175923750000024,
          "durationTicks": 94,
          "midi": 42,
          "name": "F#2",
          "ticks": 11136,
          "time": 25.777752,
          "velocity": 0.7874015748031497
        },
        {
          "duration": 0.21759237499999884,
          "durationTicks": 94,
          "midi": 42,
          "name": "F#2",
          "ticks": 11232,
          "time": 25.999974,
          "velocity": 0.7874015748031497
        },
        {
          "duration": 0.2175923750000024,
          "durationTicks": 94,
          "midi": 42,
          "name": "F#2",
          "ticks": 11328,
          "time": 26.222196,
          "velocity": 0.7874015748031497
        },
        {
          "duration": 0.2175923750000024,
          "durationTicks": 94,
          "midi": 38,
          "name": "D2",
          "ticks": 11328,
          "time": 26.222196,
          "velocity": 0.7874015748031497
        },
        {
          "duration": 0.2175923750000024,
          "durationTicks": 94,
          "midi": 36,
          "name": "C2",
          "ticks": 11328,
          "time": 26.222196,
          "velocity": 0.7874015748031497
        },
        {
          "duration": 0.2175923750000024,
          "durationTicks": 94,
          "midi": 42,
          "name": "F#2",
          "ticks": 11424,
          "time": 26.444418,
          "velocity": 0.7874015748031497
        },
        {
          "duration": 0.21759237499999884,
          "durationTicks": 94,
          "midi": 42,
          "name": "F#2",
          "ticks": 11520,
          "time": 26.66664,
          "velocity": 0.7874015748031497
        },
        {
          "duration": 0.2175923750000024,
          "durationTicks": 94,
          "midi": 38,
          "name": "D2",
          "ticks": 11616,
          "time": 26.888862,
          "velocity": 0.7874015748031497
        },
        {
          "duration": 0.2175923750000024,
          "durationTicks": 94,
          "midi": 42,
          "name": "F#2",
          "ticks": 11616,
          "time": 26.888862,
          "velocity": 0.7874015748031497
        },
        {
          "duration": 0.2175923750000024,
          "durationTicks": 94,
          "midi": 36,
          "name": "C2",
          "ticks": 11616,
          "time": 26.888862,
          "velocity": 0.7874015748031497
        },
        {
          "duration": 0.21759237499999884,
          "durationTicks": 94,
          "midi": 42,
          "name": "F#2",
          "ticks": 11712,
          "time": 27.111084,
          "velocity": 0.7874015748031497
        },
        {
          "duration": 0.2175923750000024,
          "durationTicks": 94,
          "midi": 42,
          "name": "F#2",
          "ticks": 11808,
          "time": 27.333306,
          "velocity": 0.7874015748031497
        },
        {
          "duration": 0.2175923750000024,
          "durationTicks": 94,
          "midi": 42,
          "name": "F#2",
          "ticks": 11904,
          "time": 27.555528,
          "velocity": 0.7874015748031497
        },
        {
          "duration": 0.2175923750000024,
          "durationTicks": 94,
          "midi": 38,
          "name": "D2",
          "ticks": 11904,
          "time": 27.555528,
          "velocity": 0.7874015748031497
        },
        {
          "duration": 0.2175923750000024,
          "durationTicks": 94,
          "midi": 36,
          "name": "C2",
          "ticks": 11904,
          "time": 27.555528,
          "velocity": 0.7874015748031497
        },
        {
          "duration": 0.21759237499999884,
          "durationTicks": 94,
          "midi": 43,
          "name": "G2",
          "ticks": 12000,
          "time": 27.77775,
          "velocity": 0.7874015748031497
        },
        {
          "duration": 0.2175923750000024,
          "durationTicks": 94,
          "midi": 43,
          "name": "G2",
          "ticks": 12096,
          "time": 27.999972,
          "velocity": 0.7874015748031497
        },
        {
          "duration": 0.21759237499999884,
          "durationTicks": 94,
          "midi": 43,
          "name": "G2",
          "ticks": 12192,
          "time": 28.222194000000002,
          "velocity": 0.7874015748031497
        },
        {
          "duration": 0.21759237499999884,
          "durationTicks": 94,
          "midi": 49,
          "name": "C#3",
          "ticks": 12288,
          "time": 28.444416,
          "velocity": 0.7874015748031497
        },
        {
          "duration": 0.21759237499999884,
          "durationTicks": 94,
          "midi": 36,
          "name": "C2",
          "ticks": 12288,
          "time": 28.444416,
          "velocity": 0.7874015748031497
        },
        {
          "duration": 0.21759237499999884,
          "durationTicks": 94,
          "midi": 42,
          "name": "F#2",
          "ticks": 12384,
          "time": 28.666638,
          "velocity": 0.7874015748031497
        },
        {
          "duration": 0.21759237499999884,
          "durationTicks": 94,
          "midi": 38,
          "name": "D2",
          "ticks": 12480,
          "time": 28.88886,
          "velocity": 0.7874015748031497
        },
        {
          "duration": 0.21759237499999884,
          "durationTicks": 94,
          "midi": 42,
          "name": "F#2",
          "ticks": 12480,
          "time": 28.88886,
          "velocity": 0.7874015748031497
        },
        {
          "duration": 0.21759237499999884,
          "durationTicks": 94,
          "midi": 36,
          "name": "C2",
          "ticks": 12576,
          "time": 29.111082,
          "velocity": 0.7874015748031497
        },
        {
          "duration": 0.21759237499999884,
          "durationTicks": 94,
          "midi": 42,
          "name": "F#2",
          "ticks": 12576,
          "time": 29.111082,
          "velocity": 0.7874015748031497
        },
        {
          "duration": 0.21759237499999529,
          "durationTicks": 94,
          "midi": 42,
          "name": "F#2",
          "ticks": 12672,
          "time": 29.333304000000002,
          "velocity": 0.7874015748031497
        },
        {
          "duration": 0.21759237499999884,
          "durationTicks": 94,
          "midi": 36,
          "name": "C2",
          "ticks": 12768,
          "time": 29.555526,
          "velocity": 0.7874015748031497
        },
        {
          "duration": 0.21759237499999884,
          "durationTicks": 94,
          "midi": 42,
          "name": "F#2",
          "ticks": 12768,
          "time": 29.555526,
          "velocity": 0.7874015748031497
        },
        {
          "duration": 0.21759237499999884,
          "durationTicks": 94,
          "midi": 42,
          "name": "F#2",
          "ticks": 12864,
          "time": 29.777748,
          "velocity": 0.7874015748031497
        },
        {
          "duration": 0.21759237499999884,
          "durationTicks": 94,
          "midi": 38,
          "name": "D2",
          "ticks": 12864,
          "time": 29.777748,
          "velocity": 0.7874015748031497
        },
        {
          "duration": 0.21759237499999884,
          "durationTicks": 94,
          "midi": 42,
          "name": "F#2",
          "ticks": 12960,
          "time": 29.99997,
          "velocity": 0.7874015748031497
        },
        {
          "duration": 0.21759237499999884,
          "durationTicks": 94,
          "midi": 42,
          "name": "F#2",
          "ticks": 13056,
          "time": 30.222192,
          "velocity": 0.7874015748031497
        },
        {
          "duration": 0.21759237499999884,
          "durationTicks": 94,
          "midi": 36,
          "name": "C2",
          "ticks": 13056,
          "time": 30.222192,
          "velocity": 0.7874015748031497
        },
        {
          "duration": 0.21759237499999529,
          "durationTicks": 94,
          "midi": 42,
          "name": "F#2",
          "ticks": 13152,
          "time": 30.444414000000002,
          "velocity": 0.7874015748031497
        },
        {
          "duration": 0.21759237499999884,
          "durationTicks": 94,
          "midi": 42,
          "name": "F#2",
          "ticks": 13248,
          "time": 30.666636,
          "velocity": 0.7874015748031497
        },
        {
          "duration": 0.21759237499999884,
          "durationTicks": 94,
          "midi": 38,
          "name": "D2",
          "ticks": 13248,
          "time": 30.666636,
          "velocity": 0.7874015748031497
        },
        {
          "duration": 0.21759237499999884,
          "durationTicks": 94,
          "midi": 36,
          "name": "C2",
          "ticks": 13344,
          "time": 30.888858,
          "velocity": 0.7874015748031497
        },
        {
          "duration": 0.21759237499999884,
          "durationTicks": 94,
          "midi": 42,
          "name": "F#2",
          "ticks": 13344,
          "time": 30.888858,
          "velocity": 0.7874015748031497
        },
        {
          "duration": 0.21759237499999884,
          "durationTicks": 94,
          "midi": 42,
          "name": "F#2",
          "ticks": 13440,
          "time": 31.11108,
          "velocity": 0.7874015748031497
        },
        {
          "duration": 0.21759237499999884,
          "durationTicks": 94,
          "midi": 36,
          "name": "C2",
          "ticks": 13536,
          "time": 31.333302,
          "velocity": 0.7874015748031497
        },
        {
          "duration": 0.21759237499999884,
          "durationTicks": 94,
          "midi": 42,
          "name": "F#2",
          "ticks": 13536,
          "time": 31.333302,
          "velocity": 0.7874015748031497
        },
        {
          "duration": 0.21759237499999529,
          "durationTicks": 94,
          "midi": 38,
          "name": "D2",
          "ticks": 13632,
          "time": 31.555524000000002,
          "velocity": 0.7874015748031497
        },
        {
          "duration": 0.21759237499999529,
          "durationTicks": 94,
          "midi": 42,
          "name": "F#2",
          "ticks": 13632,
          "time": 31.555524000000002,
          "velocity": 0.7874015748031497
        },
        {
          "duration": 0.21759237499999884,
          "durationTicks": 94,
          "midi": 42,
          "name": "F#2",
          "ticks": 13728,
          "time": 31.777746,
          "velocity": 0.7874015748031497
        },
        {
          "duration": 0.21759237499999884,
          "durationTicks": 94,
          "midi": 36,
          "name": "C2",
          "ticks": 13824,
          "time": 31.999968,
          "velocity": 0.7874015748031497
        },
        {
          "duration": 0.21759237499999884,
          "durationTicks": 94,
          "midi": 42,
          "name": "F#2",
          "ticks": 13824,
          "time": 31.999968,
          "velocity": 0.7874015748031497
        },
        {
          "duration": 0.2175923750000024,
          "durationTicks": 94,
          "midi": 42,
          "name": "F#2",
          "ticks": 13920,
          "time": 32.22219,
          "velocity": 0.7874015748031497
        },
        {
          "duration": 0.21759237499999529,
          "durationTicks": 94,
          "midi": 38,
          "name": "D2",
          "ticks": 14016,
          "time": 32.444412,
          "velocity": 0.7874015748031497
        },
        {
          "duration": 0.21759237499999529,
          "durationTicks": 94,
          "midi": 42,
          "name": "F#2",
          "ticks": 14016,
          "time": 32.444412,
          "velocity": 0.7874015748031497
        },
        {
          "duration": 0.21759237499999529,
          "durationTicks": 94,
          "midi": 42,
          "name": "F#2",
          "ticks": 14112,
          "time": 32.666634,
          "velocity": 0.7874015748031497
        },
        {
          "duration": 0.21759237499999529,
          "durationTicks": 94,
          "midi": 36,
          "name": "C2",
          "ticks": 14112,
          "time": 32.666634,
          "velocity": 0.7874015748031497
        },
        {
          "duration": 0.2175923750000024,
          "durationTicks": 94,
          "midi": 42,
          "name": "F#2",
          "ticks": 14208,
          "time": 32.888856,
          "velocity": 0.7874015748031497
        },
        {
          "duration": 0.2175923750000024,
          "durationTicks": 94,
          "midi": 36,
          "name": "C2",
          "ticks": 14304,
          "time": 33.111078,
          "velocity": 0.7874015748031497
        },
        {
          "duration": 0.2175923750000024,
          "durationTicks": 94,
          "midi": 42,
          "name": "F#2",
          "ticks": 14304,
          "time": 33.111078,
          "velocity": 0.7874015748031497
        },
        {
          "duration": 0.21759237499999529,
          "durationTicks": 94,
          "midi": 42,
          "name": "F#2",
          "ticks": 14400,
          "time": 33.3333,
          "velocity": 0.7874015748031497
        },
        {
          "duration": 0.21759237499999529,
          "durationTicks": 94,
          "midi": 38,
          "name": "D2",
          "ticks": 14400,
          "time": 33.3333,
          "velocity": 0.7874015748031497
        },
        {
          "duration": 0.21759237499999529,
          "durationTicks": 94,
          "midi": 42,
          "name": "F#2",
          "ticks": 14496,
          "time": 33.555522,
          "velocity": 0.7874015748031497
        },
        {
          "duration": 0.2175923750000024,
          "durationTicks": 94,
          "midi": 36,
          "name": "C2",
          "ticks": 14592,
          "time": 33.777744,
          "velocity": 0.7874015748031497
        },
        {
          "duration": 0.2175923750000024,
          "durationTicks": 94,
          "midi": 42,
          "name": "F#2",
          "ticks": 14592,
          "time": 33.777744,
          "velocity": 0.7874015748031497
        },
        {
          "duration": 0.21759237499999529,
          "durationTicks": 94,
          "midi": 42,
          "name": "F#2",
          "ticks": 14688,
          "time": 33.999966,
          "velocity": 0.7874015748031497
        },
        {
          "duration": 0.21759237499999529,
          "durationTicks": 94,
          "midi": 42,
          "name": "F#2",
          "ticks": 14784,
          "time": 34.222188,
          "velocity": 0.7874015748031497
        },
        {
          "duration": 0.21759237499999529,
          "durationTicks": 94,
          "midi": 38,
          "name": "D2",
          "ticks": 14784,
          "time": 34.222188,
          "velocity": 0.7874015748031497
        },
        {
          "duration": 0.2175923750000024,
          "durationTicks": 94,
          "midi": 36,
          "name": "C2",
          "ticks": 14880,
          "time": 34.44441,
          "velocity": 0.7874015748031497
        },
        {
          "duration": 0.2175923750000024,
          "durationTicks": 94,
          "midi": 42,
          "name": "F#2",
          "ticks": 14880,
          "time": 34.44441,
          "velocity": 0.7874015748031497
        },
        {
          "duration": 0.21759237499999529,
          "durationTicks": 94,
          "midi": 42,
          "name": "F#2",
          "ticks": 14976,
          "time": 34.666632,
          "velocity": 0.7874015748031497
        },
        {
          "duration": 0.21759237499999529,
          "durationTicks": 94,
          "midi": 36,
          "name": "C2",
          "ticks": 15072,
          "time": 34.888854,
          "velocity": 0.7874015748031497
        },
        {
          "duration": 0.21759237499999529,
          "durationTicks": 94,
          "midi": 42,
          "name": "F#2",
          "ticks": 15072,
          "time": 34.888854,
          "velocity": 0.7874015748031497
        },
        {
          "duration": 0.2175923750000024,
          "durationTicks": 94,
          "midi": 38,
          "name": "D2",
          "ticks": 15168,
          "time": 35.111076,
          "velocity": 0.7874015748031497
        },
        {
          "duration": 0.2175923750000024,
          "durationTicks": 94,
          "midi": 42,
          "name": "F#2",
          "ticks": 15168,
          "time": 35.111076,
          "velocity": 0.7874015748031497
        },
        {
          "duration": 0.2175923750000024,
          "durationTicks": 94,
          "midi": 42,
          "name": "F#2",
          "ticks": 15264,
          "time": 35.333298,
          "velocity": 0.7874015748031497
        },
        {
          "duration": 0.21759237499999529,
          "durationTicks": 94,
          "midi": 42,
          "name": "F#2",
          "ticks": 15360,
          "time": 35.55552,
          "velocity": 0.7874015748031497
        },
        {
          "duration": 0.21759237499999529,
          "durationTicks": 94,
          "midi": 36,
          "name": "C2",
          "ticks": 15360,
          "time": 35.55552,
          "velocity": 0.7874015748031497
        },
        {
          "duration": 0.21759237499999529,
          "durationTicks": 94,
          "midi": 42,
          "name": "F#2",
          "ticks": 15456,
          "time": 35.777742,
          "velocity": 0.7874015748031497
        },
        {
          "duration": 0.2175923750000024,
          "durationTicks": 94,
          "midi": 42,
          "name": "F#2",
          "ticks": 15552,
          "time": 35.999964,
          "velocity": 0.7874015748031497
        },
        {
          "duration": 0.2175923750000024,
          "durationTicks": 94,
          "midi": 38,
          "name": "D2",
          "ticks": 15552,
          "time": 35.999964,
          "velocity": 0.7874015748031497
        },
        {
          "duration": 0.21759237499999529,
          "durationTicks": 94,
          "midi": 36,
          "name": "C2",
          "ticks": 15648,
          "time": 36.222186,
          "velocity": 0.7874015748031497
        },
        {
          "duration": 0.21759237499999529,
          "durationTicks": 94,
          "midi": 42,
          "name": "F#2",
          "ticks": 15648,
          "time": 36.222186,
          "velocity": 0.7874015748031497
        },
        {
          "duration": 0.21759237499999529,
          "durationTicks": 94,
          "midi": 42,
          "name": "F#2",
          "ticks": 15744,
          "time": 36.444408,
          "velocity": 0.7874015748031497
        },
        {
          "duration": 0.2175923750000024,
          "durationTicks": 94,
          "midi": 36,
          "name": "C2",
          "ticks": 15840,
          "time": 36.66663,
          "velocity": 0.7874015748031497
        },
        {
          "duration": 0.2175923750000024,
          "durationTicks": 94,
          "midi": 42,
          "name": "F#2",
          "ticks": 15840,
          "time": 36.66663,
          "velocity": 0.7874015748031497
        },
        {
          "duration": 0.21759237499999529,
          "durationTicks": 94,
          "midi": 38,
          "name": "D2",
          "ticks": 15936,
          "time": 36.888852,
          "velocity": 0.7874015748031497
        },
        {
          "duration": 0.21759237499999529,
          "durationTicks": 94,
          "midi": 42,
          "name": "F#2",
          "ticks": 15936,
          "time": 36.888852,
          "velocity": 0.7874015748031497
        },
        {
          "duration": 0.21759237499999529,
          "durationTicks": 94,
          "midi": 42,
          "name": "F#2",
          "ticks": 16032,
          "time": 37.111074,
          "velocity": 0.7874015748031497
        },
        {
          "duration": 0.2175923750000024,
          "durationTicks": 94,
          "midi": 42,
          "name": "F#2",
          "ticks": 16128,
          "time": 37.333296,
          "velocity": 0.7874015748031497
        },
        {
          "duration": 0.2175923750000024,
          "durationTicks": 94,
          "midi": 36,
          "name": "C2",
          "ticks": 16128,
          "time": 37.333296,
          "velocity": 0.7874015748031497
        },
        {
          "duration": 0.2175923750000024,
          "durationTicks": 94,
          "midi": 42,
          "name": "F#2",
          "ticks": 16224,
          "time": 37.555518,
          "velocity": 0.7874015748031497
        },
        {
          "duration": 0.21759237499999529,
          "durationTicks": 94,
          "midi": 42,
          "name": "F#2",
          "ticks": 16320,
          "time": 37.77774,
          "velocity": 0.7874015748031497
        },
        {
          "duration": 0.21759237499999529,
          "durationTicks": 94,
          "midi": 38,
          "name": "D2",
          "ticks": 16320,
          "time": 37.77774,
          "velocity": 0.7874015748031497
        },
        {
          "duration": 0.21759237499999529,
          "durationTicks": 94,
          "midi": 36,
          "name": "C2",
          "ticks": 16416,
          "time": 37.999962000000004,
          "velocity": 0.7874015748031497
        },
        {
          "duration": 0.21759237499999529,
          "durationTicks": 94,
          "midi": 42,
          "name": "F#2",
          "ticks": 16416,
          "time": 37.999962000000004,
          "velocity": 0.7874015748031497
        },
        {
          "duration": 0.2175923750000024,
          "durationTicks": 94,
          "midi": 42,
          "name": "F#2",
          "ticks": 16512,
          "time": 38.222184,
          "velocity": 0.7874015748031497
        },
        {
          "duration": 0.21759237499999529,
          "durationTicks": 94,
          "midi": 36,
          "name": "C2",
          "ticks": 16608,
          "time": 38.444406,
          "velocity": 0.7874015748031497
        },
        {
          "duration": 0.21759237499999529,
          "durationTicks": 94,
          "midi": 42,
          "name": "F#2",
          "ticks": 16608,
          "time": 38.444406,
          "velocity": 0.7874015748031497
        },
        {
          "duration": 0.21759237499999529,
          "durationTicks": 94,
          "midi": 42,
          "name": "F#2",
          "ticks": 16704,
          "time": 38.666628,
          "velocity": 0.7874015748031497
        },
        {
          "duration": 0.21759237499999529,
          "durationTicks": 94,
          "midi": 38,
          "name": "D2",
          "ticks": 16704,
          "time": 38.666628,
          "velocity": 0.7874015748031497
        },
        {
          "duration": 0.2175923750000024,
          "durationTicks": 94,
          "midi": 42,
          "name": "F#2",
          "ticks": 16800,
          "time": 38.88885,
          "velocity": 0.7874015748031497
        },
        {
          "duration": 0.21759237499999529,
          "durationTicks": 94,
          "midi": 36,
          "name": "C2",
          "ticks": 16896,
          "time": 39.111072,
          "velocity": 0.7874015748031497
        },
        {
          "duration": 0.21759237499999529,
          "durationTicks": 94,
          "midi": 42,
          "name": "F#2",
          "ticks": 16896,
          "time": 39.111072,
          "velocity": 0.7874015748031497
        },
        {
          "duration": 0.21759237499999529,
          "durationTicks": 94,
          "midi": 42,
          "name": "F#2",
          "ticks": 16992,
          "time": 39.333294,
          "velocity": 0.7874015748031497
        },
        {
          "duration": 0.2175923750000024,
          "durationTicks": 94,
          "midi": 42,
          "name": "F#2",
          "ticks": 17088,
          "time": 39.555516,
          "velocity": 0.7874015748031497
        },
        {
          "duration": 0.2175923750000024,
          "durationTicks": 94,
          "midi": 38,
          "name": "D2",
          "ticks": 17088,
          "time": 39.555516,
          "velocity": 0.7874015748031497
        },
        {
          "duration": 0.2175923750000024,
          "durationTicks": 94,
          "midi": 42,
          "name": "F#2",
          "ticks": 17184,
          "time": 39.777738,
          "velocity": 0.7874015748031497
        },
        {
          "duration": 0.2175923750000024,
          "durationTicks": 94,
          "midi": 36,
          "name": "C2",
          "ticks": 17184,
          "time": 39.777738,
          "velocity": 0.7874015748031497
        },
        {
          "duration": 0.21759237499999529,
          "durationTicks": 94,
          "midi": 42,
          "name": "F#2",
          "ticks": 17280,
          "time": 39.99996,
          "velocity": 0.7874015748031497
        },
        {
          "duration": 0.21759237499999529,
          "durationTicks": 94,
          "midi": 36,
          "name": "C2",
          "ticks": 17376,
          "time": 40.222182000000004,
          "velocity": 0.7874015748031497
        },
        {
          "duration": 0.21759237499999529,
          "durationTicks": 94,
          "midi": 42,
          "name": "F#2",
          "ticks": 17376,
          "time": 40.222182000000004,
          "velocity": 0.7874015748031497
        },
        {
          "duration": 0.2175923750000024,
          "durationTicks": 94,
          "midi": 42,
          "name": "F#2",
          "ticks": 17472,
          "time": 40.444404,
          "velocity": 0.7874015748031497
        },
        {
          "duration": 0.2175923750000024,
          "durationTicks": 94,
          "midi": 38,
          "name": "D2",
          "ticks": 17472,
          "time": 40.444404,
          "velocity": 0.7874015748031497
        },
        {
          "duration": 0.21759237499999529,
          "durationTicks": 94,
          "midi": 42,
          "name": "F#2",
          "ticks": 17568,
          "time": 40.666626,
          "velocity": 0.7874015748031497
        },
        {
          "duration": 0.21759237499999529,
          "durationTicks": 94,
          "midi": 36,
          "name": "C2",
          "ticks": 17664,
          "time": 40.888848,
          "velocity": 0.7874015748031497
        },
        {
          "duration": 0.21759237499999529,
          "durationTicks": 94,
          "midi": 42,
          "name": "F#2",
          "ticks": 17664,
          "time": 40.888848,
          "velocity": 0.7874015748031497
        },
        {
          "duration": 0.2175923750000024,
          "durationTicks": 94,
          "midi": 42,
          "name": "F#2",
          "ticks": 17760,
          "time": 41.11107,
          "velocity": 0.7874015748031497
        },
        {
          "duration": 0.21759237499999529,
          "durationTicks": 94,
          "midi": 38,
          "name": "D2",
          "ticks": 17856,
          "time": 41.333292,
          "velocity": 0.7874015748031497
        },
        {
          "duration": 0.21759237499999529,
          "durationTicks": 94,
          "midi": 42,
          "name": "F#2",
          "ticks": 17856,
          "time": 41.333292,
          "velocity": 0.7874015748031497
        },
        {
          "duration": 0.21759237499999529,
          "durationTicks": 94,
          "midi": 36,
          "name": "C2",
          "ticks": 17952,
          "time": 41.555514,
          "velocity": 0.7874015748031497
        },
        {
          "duration": 0.21759237499999529,
          "durationTicks": 94,
          "midi": 42,
          "name": "F#2",
          "ticks": 17952,
          "time": 41.555514,
          "velocity": 0.7874015748031497
        },
        {
          "duration": 0.2175923750000024,
          "durationTicks": 94,
          "midi": 42,
          "name": "F#2",
          "ticks": 18048,
          "time": 41.777736,
          "velocity": 0.7874015748031497
        },
        {
          "duration": 0.2175923750000024,
          "durationTicks": 94,
          "midi": 36,
          "name": "C2",
          "ticks": 18144,
          "time": 41.999958,
          "velocity": 0.7874015748031497
        },
        {
          "duration": 0.2175923750000024,
          "durationTicks": 94,
          "midi": 42,
          "name": "F#2",
          "ticks": 18144,
          "time": 41.999958,
          "velocity": 0.7874015748031497
        },
        {
          "duration": 0.21759237499999529,
          "durationTicks": 94,
          "midi": 42,
          "name": "F#2",
          "ticks": 18240,
          "time": 42.22218,
          "velocity": 0.7874015748031497
        },
        {
          "duration": 0.21759237499999529,
          "durationTicks": 94,
          "midi": 38,
          "name": "D2",
          "ticks": 18240,
          "time": 42.22218,
          "velocity": 0.7874015748031497
        },
        {
          "duration": 0.21759237499999529,
          "durationTicks": 94,
          "midi": 42,
          "name": "F#2",
          "ticks": 18336,
          "time": 42.444402000000004,
          "velocity": 0.7874015748031497
        },
        {
          "duration": 0.2175923750000024,
          "durationTicks": 94,
          "midi": 42,
          "name": "F#2",
          "ticks": 18432,
          "time": 42.666624,
          "velocity": 0.7874015748031497
        },
        {
          "duration": 0.2175923750000024,
          "durationTicks": 94,
          "midi": 36,
          "name": "C2",
          "ticks": 18432,
          "time": 42.666624,
          "velocity": 0.7874015748031497
        },
        {
          "duration": 0.21759237499999529,
          "durationTicks": 94,
          "midi": 42,
          "name": "F#2",
          "ticks": 18528,
          "time": 42.888846,
          "velocity": 0.7874015748031497
        },
        {
          "duration": 0.21759237499999529,
          "durationTicks": 94,
          "midi": 42,
          "name": "F#2",
          "ticks": 18624,
          "time": 43.111068,
          "velocity": 0.7874015748031497
        },
        {
          "duration": 0.21759237499999529,
          "durationTicks": 94,
          "midi": 38,
          "name": "D2",
          "ticks": 18624,
          "time": 43.111068,
          "velocity": 0.7874015748031497
        },
        {
          "duration": 0.2175923750000024,
          "durationTicks": 94,
          "midi": 36,
          "name": "C2",
          "ticks": 18720,
          "time": 43.33329,
          "velocity": 0.7874015748031497
        },
        {
          "duration": 0.2175923750000024,
          "durationTicks": 94,
          "midi": 42,
          "name": "F#2",
          "ticks": 18720,
          "time": 43.33329,
          "velocity": 0.7874015748031497
        },
        {
          "duration": 0.21759237499999529,
          "durationTicks": 94,
          "midi": 42,
          "name": "F#2",
          "ticks": 18816,
          "time": 43.555512,
          "velocity": 0.7874015748031497
        },
        {
          "duration": 0.21759237499999529,
          "durationTicks": 94,
          "midi": 36,
          "name": "C2",
          "ticks": 18912,
          "time": 43.777734,
          "velocity": 0.7874015748031497
        },
        {
          "duration": 0.21759237499999529,
          "durationTicks": 94,
          "midi": 42,
          "name": "F#2",
          "ticks": 18912,
          "time": 43.777734,
          "velocity": 0.7874015748031497
        },
        {
          "duration": 0.2175923750000024,
          "durationTicks": 94,
          "midi": 38,
          "name": "D2",
          "ticks": 19008,
          "time": 43.999956,
          "velocity": 0.7874015748031497
        },
        {
          "duration": 0.2175923750000024,
          "durationTicks": 94,
          "midi": 42,
          "name": "F#2",
          "ticks": 19008,
          "time": 43.999956,
          "velocity": 0.7874015748031497
        },
        {
          "duration": 0.2175923750000024,
          "durationTicks": 94,
          "midi": 36,
          "name": "C2",
          "ticks": 19104,
          "time": 44.222178,
          "velocity": 0.7874015748031497
        },
        {
          "duration": 0.2175923750000024,
          "durationTicks": 94,
          "midi": 42,
          "name": "F#2",
          "ticks": 19104,
          "time": 44.222178,
          "velocity": 0.7874015748031497
        },
        {
          "duration": 0.21759237499999529,
          "durationTicks": 94,
          "midi": 36,
          "name": "C2",
          "ticks": 19200,
          "time": 44.4444,
          "velocity": 0.7874015748031497
        },
        {
          "duration": 0.21759237499999529,
          "durationTicks": 94,
          "midi": 42,
          "name": "F#2",
          "ticks": 19200,
          "time": 44.4444,
          "velocity": 0.7874015748031497
        },
        {
          "duration": 0.21759237499999529,
          "durationTicks": 94,
          "midi": 42,
          "name": "F#2",
          "ticks": 19296,
          "time": 44.666622000000004,
          "velocity": 0.7874015748031497
        },
        {
          "duration": 0.2175923750000024,
          "durationTicks": 94,
          "midi": 42,
          "name": "F#2",
          "ticks": 19392,
          "time": 44.888844,
          "velocity": 0.7874015748031497
        },
        {
          "duration": 0.2175923750000024,
          "durationTicks": 94,
          "midi": 38,
          "name": "D2",
          "ticks": 19392,
          "time": 44.888844,
          "velocity": 0.7874015748031497
        },
        {
          "duration": 0.21759237499999529,
          "durationTicks": 94,
          "midi": 42,
          "name": "F#2",
          "ticks": 19488,
          "time": 45.111066,
          "velocity": 0.7874015748031497
        },
        {
          "duration": 0.21759237499999529,
          "durationTicks": 94,
          "midi": 36,
          "name": "C2",
          "ticks": 19488,
          "time": 45.111066,
          "velocity": 0.7874015748031497
        },
        {
          "duration": 0.21759237499999529,
          "durationTicks": 94,
          "midi": 42,
          "name": "F#2",
          "ticks": 19584,
          "time": 45.333288,
          "velocity": 0.7874015748031497
        },
        {
          "duration": 0.2175923750000024,
          "durationTicks": 94,
          "midi": 42,
          "name": "F#2",
          "ticks": 19680,
          "time": 45.55551,
          "velocity": 0.7874015748031497
        },
        {
          "duration": 0.2175923750000024,
          "durationTicks": 94,
          "midi": 36,
          "name": "C2",
          "ticks": 19680,
          "time": 45.55551,
          "velocity": 0.7874015748031497
        },
        {
          "duration": 0.21759237499999529,
          "durationTicks": 94,
          "midi": 38,
          "name": "D2",
          "ticks": 19776,
          "time": 45.777732,
          "velocity": 0.7874015748031497
        },
        {
          "duration": 0.21759237499999529,
          "durationTicks": 94,
          "midi": 42,
          "name": "F#2",
          "ticks": 19776,
          "time": 45.777732,
          "velocity": 0.7874015748031497
        },
        {
          "duration": 0.21759237499999529,
          "durationTicks": 94,
          "midi": 42,
          "name": "F#2",
          "ticks": 19872,
          "time": 45.999954,
          "velocity": 0.7874015748031497
        },
        {
          "duration": 0.21759237499999529,
          "durationTicks": 94,
          "midi": 36,
          "name": "C2",
          "ticks": 19872,
          "time": 45.999954,
          "velocity": 0.7874015748031497
        },
        {
          "duration": 0.2175923750000024,
          "durationTicks": 94,
          "midi": 36,
          "name": "C2",
          "ticks": 19968,
          "time": 46.222176,
          "velocity": 0.7874015748031497
        },
        {
          "duration": 0.2175923750000024,
          "durationTicks": 94,
          "midi": 42,
          "name": "F#2",
          "ticks": 19968,
          "time": 46.222176,
          "velocity": 0.7874015748031497
        },
        {
          "duration": 0.2175923750000024,
          "durationTicks": 94,
          "midi": 42,
          "name": "F#2",
          "ticks": 20064,
          "time": 46.444398,
          "velocity": 0.7874015748031497
        },
        {
          "duration": 0.21759237499999529,
          "durationTicks": 94,
          "midi": 38,
          "name": "D2",
          "ticks": 20160,
          "time": 46.66662,
          "velocity": 0.7874015748031497
        },
        {
          "duration": 0.21759237499999529,
          "durationTicks": 94,
          "midi": 42,
          "name": "F#2",
          "ticks": 20160,
          "time": 46.66662,
          "velocity": 0.7874015748031497
        },
        {
          "duration": 0.21759237499999529,
          "durationTicks": 94,
          "midi": 36,
          "name": "C2",
          "ticks": 20256,
          "time": 46.888842000000004,
          "velocity": 0.7874015748031497
        },
        {
          "duration": 0.21759237499999529,
          "durationTicks": 94,
          "midi": 42,
          "name": "F#2",
          "ticks": 20256,
          "time": 46.888842000000004,
          "velocity": 0.7874015748031497
        },
        {
          "duration": 0.2175923750000024,
          "durationTicks": 94,
          "midi": 42,
          "name": "F#2",
          "ticks": 20352,
          "time": 47.111064,
          "velocity": 0.7874015748031497
        },
        {
          "duration": 0.21759237499999529,
          "durationTicks": 94,
          "midi": 42,
          "name": "F#2",
          "ticks": 20448,
          "time": 47.333286,
          "velocity": 0.7874015748031497
        },
        {
          "duration": 0.21759237499999529,
          "durationTicks": 94,
          "midi": 36,
          "name": "C2",
          "ticks": 20448,
          "time": 47.333286,
          "velocity": 0.7874015748031497
        },
        {
          "duration": 0.21759237499999529,
          "durationTicks": 94,
          "midi": 38,
          "name": "D2",
          "ticks": 20544,
          "time": 47.555508,
          "velocity": 0.7874015748031497
        },
        {
          "duration": 0.21759237499999529,
          "durationTicks": 94,
          "midi": 42,
          "name": "F#2",
          "ticks": 20544,
          "time": 47.555508,
          "velocity": 0.7874015748031497
        },
        {
          "duration": 0.2175923750000024,
          "durationTicks": 94,
          "midi": 42,
          "name": "F#2",
          "ticks": 20640,
          "time": 47.77773,
          "velocity": 0.7874015748031497
        },
        {
          "duration": 0.21759237499999529,
          "durationTicks": 94,
          "midi": 36,
          "name": "C2",
          "ticks": 20736,
          "time": 47.999952,
          "velocity": 0.7874015748031497
        },
        {
          "duration": 0.21759237499999529,
          "durationTicks": 94,
          "midi": 42,
          "name": "F#2",
          "ticks": 20736,
          "time": 47.999952,
          "velocity": 0.7874015748031497
        },
        {
          "duration": 0.21759237499999529,
          "durationTicks": 94,
          "midi": 42,
          "name": "F#2",
          "ticks": 20832,
          "time": 48.222174,
          "velocity": 0.7874015748031497
        },
        {
          "duration": 0.2175923750000024,
          "durationTicks": 94,
          "midi": 38,
          "name": "D2",
          "ticks": 20928,
          "time": 48.444396,
          "velocity": 0.7874015748031497
        },
        {
          "duration": 0.2175923750000024,
          "durationTicks": 94,
          "midi": 42,
          "name": "F#2",
          "ticks": 20928,
          "time": 48.444396,
          "velocity": 0.7874015748031497
        },
        {
          "duration": 0.21759237499999529,
          "durationTicks": 94,
          "midi": 36,
          "name": "C2",
          "ticks": 21024,
          "time": 48.666618,
          "velocity": 0.7874015748031497
        },
        {
          "duration": 0.21759237499999529,
          "durationTicks": 94,
          "midi": 42,
          "name": "F#2",
          "ticks": 21024,
          "time": 48.666618,
          "velocity": 0.7874015748031497
        },
        {
          "duration": 0.21759237499999529,
          "durationTicks": 94,
          "midi": 42,
          "name": "F#2",
          "ticks": 21120,
          "time": 48.88884,
          "velocity": 0.7874015748031497
        },
        {
          "duration": 0.21759237499999529,
          "durationTicks": 94,
          "midi": 42,
          "name": "F#2",
          "ticks": 21216,
          "time": 49.111062000000004,
          "velocity": 0.7874015748031497
        },
        {
          "duration": 0.21759237499999529,
          "durationTicks": 94,
          "midi": 36,
          "name": "C2",
          "ticks": 21216,
          "time": 49.111062000000004,
          "velocity": 0.7874015748031497
        },
        {
          "duration": 0.2175923750000024,
          "durationTicks": 94,
          "midi": 38,
          "name": "D2",
          "ticks": 21312,
          "time": 49.333284,
          "velocity": 0.7874015748031497
        },
        {
          "duration": 0.2175923750000024,
          "durationTicks": 94,
          "midi": 42,
          "name": "F#2",
          "ticks": 21312,
          "time": 49.333284,
          "velocity": 0.7874015748031497
        },
        {
          "duration": 0.21759237499999529,
          "durationTicks": 94,
          "midi": 42,
          "name": "F#2",
          "ticks": 21408,
          "time": 49.555506,
          "velocity": 0.7874015748031497
        },
        {
          "duration": 0.21759237499999529,
          "durationTicks": 94,
          "midi": 36,
          "name": "C2",
          "ticks": 21504,
          "time": 49.777728,
          "velocity": 0.7874015748031497
        },
        {
          "duration": 0.21759237499999529,
          "durationTicks": 94,
          "midi": 42,
          "name": "F#2",
          "ticks": 21504,
          "time": 49.777728,
          "velocity": 0.7874015748031497
        },
        {
          "duration": 0.2175923750000024,
          "durationTicks": 94,
          "midi": 42,
          "name": "F#2",
          "ticks": 21600,
          "time": 49.99995,
          "velocity": 0.7874015748031497
        },
        {
          "duration": 0.21759237499999529,
          "durationTicks": 94,
          "midi": 38,
          "name": "D2",
          "ticks": 21696,
          "time": 50.222172,
          "velocity": 0.7874015748031497
        },
        {
          "duration": 0.21759237499999529,
          "durationTicks": 94,
          "midi": 42,
          "name": "F#2",
          "ticks": 21696,
          "time": 50.222172,
          "velocity": 0.7874015748031497
        },
        {
          "duration": 0.21759237499999529,
          "durationTicks": 94,
          "midi": 42,
          "name": "F#2",
          "ticks": 21792,
          "time": 50.444394,
          "velocity": 0.7874015748031497
        },
        {
          "duration": 0.2175923750000024,
          "durationTicks": 94,
          "midi": 42,
          "name": "F#2",
          "ticks": 21888,
          "time": 50.666616,
          "velocity": 0.7874015748031497
        },
        {
          "duration": 0.21759237499999529,
          "durationTicks": 94,
          "midi": 42,
          "name": "F#2",
          "ticks": 21984,
          "time": 50.888838,
          "velocity": 0.7874015748031497
        },
        {
          "duration": 0.21759237499999529,
          "durationTicks": 94,
          "midi": 42,
          "name": "F#2",
          "ticks": 22080,
          "time": 51.11106,
          "velocity": 0.7874015748031497
        },
        {
          "duration": 0.21759237499999529,
          "durationTicks": 94,
          "midi": 38,
          "name": "D2",
          "ticks": 22080,
          "time": 51.11106,
          "velocity": 0.7874015748031497
        },
        {
          "duration": 0.21759237499999529,
          "durationTicks": 94,
          "midi": 38,
          "name": "D2",
          "ticks": 22176,
          "time": 51.333282000000004,
          "velocity": 0.7874015748031497
        },
        {
          "duration": 0.21759237499999529,
          "durationTicks": 94,
          "midi": 36,
          "name": "C2",
          "ticks": 22176,
          "time": 51.333282000000004,
          "velocity": 0.7874015748031497
        },
        {
          "duration": 0.21759237499999529,
          "durationTicks": 94,
          "midi": 42,
          "name": "F#2",
          "ticks": 22176,
          "time": 51.333282000000004,
          "velocity": 0.7874015748031497
        },
        {
          "duration": 0.2175923750000024,
          "durationTicks": 94,
          "midi": 38,
          "name": "D2",
          "ticks": 22272,
          "time": 51.555504,
          "velocity": 0.7874015748031497
        },
        {
          "duration": 0.2175923750000024,
          "durationTicks": 94,
          "midi": 42,
          "name": "F#2",
          "ticks": 22272,
          "time": 51.555504,
          "velocity": 0.7874015748031497
        },
        {
          "duration": 0.2175923750000024,
          "durationTicks": 94,
          "midi": 36,
          "name": "C2",
          "ticks": 22272,
          "time": 51.555504,
          "velocity": 0.7874015748031497
        },
        {
          "duration": 0.21759237499999529,
          "durationTicks": 94,
          "midi": 42,
          "name": "F#2",
          "ticks": 22368,
          "time": 51.777726,
          "velocity": 0.7874015748031497
        },
        {
          "duration": 0.21759237499999529,
          "durationTicks": 94,
          "midi": 42,
          "name": "F#2",
          "ticks": 22464,
          "time": 51.999948,
          "velocity": 0.7874015748031497
        },
        {
          "duration": 0.2175923750000024,
          "durationTicks": 94,
          "midi": 36,
          "name": "C2",
          "ticks": 22560,
          "time": 52.22217,
          "velocity": 0.7874015748031497
        },
        {
          "duration": 0.2175923750000024,
          "durationTicks": 94,
          "midi": 38,
          "name": "D2",
          "ticks": 22560,
          "time": 52.22217,
          "velocity": 0.7874015748031497
        },
        {
          "duration": 0.2175923750000024,
          "durationTicks": 94,
          "midi": 42,
          "name": "F#2",
          "ticks": 22560,
          "time": 52.22217,
          "velocity": 0.7874015748031497
        },
        {
          "duration": 0.21759237499999529,
          "durationTicks": 94,
          "midi": 42,
          "name": "F#2",
          "ticks": 22656,
          "time": 52.444392,
          "velocity": 0.7874015748031497
        },
        {
          "duration": 0.21759237499999529,
          "durationTicks": 94,
          "midi": 42,
          "name": "F#2",
          "ticks": 22752,
          "time": 52.666614,
          "velocity": 0.7874015748031497
        },
        {
          "duration": 0.2175923750000024,
          "durationTicks": 94,
          "midi": 42,
          "name": "F#2",
          "ticks": 22848,
          "time": 52.888836,
          "velocity": 0.7874015748031497
        },
        {
          "duration": 0.2175923750000024,
          "durationTicks": 94,
          "midi": 38,
          "name": "D2",
          "ticks": 22848,
          "time": 52.888836,
          "velocity": 0.7874015748031497
        },
        {
          "duration": 0.2175923750000024,
          "durationTicks": 94,
          "midi": 36,
          "name": "C2",
          "ticks": 22848,
          "time": 52.888836,
          "velocity": 0.7874015748031497
        },
        {
          "duration": 0.21759237499999529,
          "durationTicks": 94,
          "midi": 42,
          "name": "F#2",
          "ticks": 22944,
          "time": 53.111058,
          "velocity": 0.7874015748031497
        },
        {
          "duration": 0.21759237499999529,
          "durationTicks": 94,
          "midi": 42,
          "name": "F#2",
          "ticks": 23040,
          "time": 53.33328,
          "velocity": 0.7874015748031497
        },
        {
          "duration": 0.21759237499999529,
          "durationTicks": 94,
          "midi": 42,
          "name": "F#2",
          "ticks": 23136,
          "time": 53.555502000000004,
          "velocity": 0.7874015748031497
        },
        {
          "duration": 0.21759237499999529,
          "durationTicks": 94,
          "midi": 36,
          "name": "C2",
          "ticks": 23136,
          "time": 53.555502000000004,
          "velocity": 0.7874015748031497
        },
        {
          "duration": 0.21759237499999529,
          "durationTicks": 94,
          "midi": 38,
          "name": "D2",
          "ticks": 23136,
          "time": 53.555502000000004,
          "velocity": 0.7874015748031497
        },
        {
          "duration": 0.2175923750000024,
          "durationTicks": 94,
          "midi": 42,
          "name": "F#2",
          "ticks": 23232,
          "time": 53.777724,
          "velocity": 0.7874015748031497
        },
        {
          "duration": 0.21759237499999529,
          "durationTicks": 94,
          "midi": 42,
          "name": "F#2",
          "ticks": 23328,
          "time": 53.999946,
          "velocity": 0.7874015748031497
        },
        {
          "duration": 0.21759237499999529,
          "durationTicks": 94,
          "midi": 36,
          "name": "C2",
          "ticks": 23424,
          "time": 54.222168,
          "velocity": 0.7874015748031497
        },
        {
          "duration": 0.21759237499999529,
          "durationTicks": 94,
          "midi": 42,
          "name": "F#2",
          "ticks": 23424,
          "time": 54.222168,
          "velocity": 0.7874015748031497
        },
        {
          "duration": 0.21759237499999529,
          "durationTicks": 94,
          "midi": 38,
          "name": "D2",
          "ticks": 23424,
          "time": 54.222168,
          "velocity": 0.7874015748031497
        },
        {
          "duration": 0.2175923750000024,
          "durationTicks": 94,
          "midi": 47,
          "name": "B2",
          "ticks": 23520,
          "time": 54.44439,
          "velocity": 0.7874015748031497
        },
        {
          "duration": 0.21759237499999529,
          "durationTicks": 94,
          "midi": 47,
          "name": "B2",
          "ticks": 23616,
          "time": 54.666612,
          "velocity": 0.7874015748031497
        },
        {
          "duration": 0.21759237499999529,
          "durationTicks": 94,
          "midi": 47,
          "name": "B2",
          "ticks": 23712,
          "time": 54.888834,
          "velocity": 0.7874015748031497
        },
        {
          "duration": 0.2175923750000024,
          "durationTicks": 94,
          "midi": 36,
          "name": "C2",
          "ticks": 23808,
          "time": 55.111056,
          "velocity": 0.7874015748031497
        },
        {
          "duration": 0.2175923750000024,
          "durationTicks": 94,
          "midi": 49,
          "name": "C#3",
          "ticks": 23808,
          "time": 55.111056,
          "velocity": 0.7874015748031497
        },
        {
          "duration": 0.21759237499999529,
          "durationTicks": 94,
          "midi": 42,
          "name": "F#2",
          "ticks": 23904,
          "time": 55.333278,
          "velocity": 0.7874015748031497
        },
        {
          "duration": 0.21759237499999529,
          "durationTicks": 94,
          "midi": 38,
          "name": "D2",
          "ticks": 24000,
          "time": 55.5555,
          "velocity": 0.7874015748031497
        },
        {
          "duration": 0.21759237499999529,
          "durationTicks": 94,
          "midi": 42,
          "name": "F#2",
          "ticks": 24000,
          "time": 55.5555,
          "velocity": 0.7874015748031497
        },
        {
          "duration": 0.21759237499999529,
          "durationTicks": 94,
          "midi": 42,
          "name": "F#2",
          "ticks": 24096,
          "time": 55.777722000000004,
          "velocity": 0.7874015748031497
        },
        {
          "duration": 0.21759237499999529,
          "durationTicks": 94,
          "midi": 36,
          "name": "C2",
          "ticks": 24096,
          "time": 55.777722000000004,
          "velocity": 0.7874015748031497
        },
        {
          "duration": 0.2175923750000024,
          "durationTicks": 94,
          "midi": 36,
          "name": "C2",
          "ticks": 24192,
          "time": 55.999944,
          "velocity": 0.7874015748031497
        },
        {
          "duration": 0.2175923750000024,
          "durationTicks": 94,
          "midi": 42,
          "name": "F#2",
          "ticks": 24192,
          "time": 55.999944,
          "velocity": 0.7874015748031497
        },
        {
          "duration": 0.21759237499999529,
          "durationTicks": 94,
          "midi": 42,
          "name": "F#2",
          "ticks": 24288,
          "time": 56.222166,
          "velocity": 0.7874015748031497
        },
        {
          "duration": 0.21759237499999529,
          "durationTicks": 94,
          "midi": 36,
          "name": "C2",
          "ticks": 24288,
          "time": 56.222166,
          "velocity": 0.7874015748031497
        },
        {
          "duration": 0.21759237499999529,
          "durationTicks": 94,
          "midi": 42,
          "name": "F#2",
          "ticks": 24384,
          "time": 56.444388000000004,
          "velocity": 0.7874015748031497
        },
        {
          "duration": 0.21759237499999529,
          "durationTicks": 94,
          "midi": 38,
          "name": "D2",
          "ticks": 24384,
          "time": 56.444388000000004,
          "velocity": 0.7874015748031497
        },
        {
          "duration": 0.2175923750000024,
          "durationTicks": 94,
          "midi": 36,
          "name": "C2",
          "ticks": 24480,
          "time": 56.66661,
          "velocity": 0.7874015748031497
        },
        {
          "duration": 0.2175923750000024,
          "durationTicks": 94,
          "midi": 42,
          "name": "F#2",
          "ticks": 24480,
          "time": 56.66661,
          "velocity": 0.7874015748031497
        },
        {
          "duration": 0.2175923750000024,
          "durationTicks": 94,
          "midi": 42,
          "name": "F#2",
          "ticks": 24576,
          "time": 56.888832,
          "velocity": 0.7874015748031497
        },
        {
          "duration": 0.2175923750000024,
          "durationTicks": 94,
          "midi": 36,
          "name": "C2",
          "ticks": 24576,
          "time": 56.888832,
          "velocity": 0.7874015748031497
        },
        {
          "duration": 0.2175923750000024,
          "durationTicks": 94,
          "midi": 42,
          "name": "F#2",
          "ticks": 24672,
          "time": 57.111054,
          "velocity": 0.7874015748031497
        },
        {
          "duration": 0.2175923750000095,
          "durationTicks": 94,
          "midi": 42,
          "name": "F#2",
          "ticks": 24768,
          "time": 57.333276,
          "velocity": 0.7874015748031497
        },
        {
          "duration": 0.2175923750000095,
          "durationTicks": 94,
          "midi": 38,
          "name": "D2",
          "ticks": 24768,
          "time": 57.333276,
          "velocity": 0.7874015748031497
        },
        {
          "duration": 0.2175923750000024,
          "durationTicks": 94,
          "midi": 42,
          "name": "F#2",
          "ticks": 24864,
          "time": 57.555498,
          "velocity": 0.7874015748031497
        },
        {
          "duration": 0.10648137500000132,
          "durationTicks": 46,
          "midi": 38,
          "name": "D2",
          "ticks": 24960,
          "time": 57.77772,
          "velocity": 0.7874015748031497
        },
        {
          "duration": 0.10648137500000132,
          "durationTicks": 46,
          "midi": 38,
          "name": "D2",
          "ticks": 25008,
          "time": 57.888831,
          "velocity": 0.7874015748031497
        },
        {
          "duration": 0.10648137500000843,
          "durationTicks": 46,
          "midi": 38,
          "name": "D2",
          "ticks": 25056,
          "time": 57.999942,
          "velocity": 0.7874015748031497
        },
        {
          "duration": 0.10648137500000843,
          "durationTicks": 46,
          "midi": 38,
          "name": "D2",
          "ticks": 25104,
          "time": 58.111053,
          "velocity": 0.7874015748031497
        },
        {
          "duration": 0.10648137500000843,
          "durationTicks": 46,
          "midi": 47,
          "name": "B2",
          "ticks": 25152,
          "time": 58.222164,
          "velocity": 0.7874015748031497
        },
        {
          "duration": 0.10648137500000132,
          "durationTicks": 46,
          "midi": 47,
          "name": "B2",
          "ticks": 25200,
          "time": 58.333275,
          "velocity": 0.7874015748031497
        },
        {
          "duration": 0.2175923750000024,
          "durationTicks": 94,
          "midi": 47,
          "name": "B2",
          "ticks": 25248,
          "time": 58.444386,
          "velocity": 0.7874015748031497
        },
        {
          "duration": 0.2175923750000024,
          "durationTicks": 94,
          "midi": 49,
          "name": "C#3",
          "ticks": 25344,
          "time": 58.666608000000004,
          "velocity": 0.7874015748031497
        },
        {
          "duration": 0.2175923750000024,
          "durationTicks": 94,
          "midi": 36,
          "name": "C2",
          "ticks": 25344,
          "time": 58.666608000000004,
          "velocity": 0.7874015748031497
        },
        {
          "duration": 0.2175923750000095,
          "durationTicks": 94,
          "midi": 42,
          "name": "F#2",
          "ticks": 25440,
          "time": 58.88883,
          "velocity": 0.7874015748031497
        },
        {
          "duration": 0.2175923750000024,
          "durationTicks": 94,
          "midi": 38,
          "name": "D2",
          "ticks": 25536,
          "time": 59.111052,
          "velocity": 0.7874015748031497
        },
        {
          "duration": 0.2175923750000024,
          "durationTicks": 94,
          "midi": 42,
          "name": "F#2",
          "ticks": 25536,
          "time": 59.111052,
          "velocity": 0.7874015748031497
        },
        {
          "duration": 0.2175923750000024,
          "durationTicks": 94,
          "midi": 36,
          "name": "C2",
          "ticks": 25632,
          "time": 59.333274,
          "velocity": 0.7874015748031497
        },
        {
          "duration": 0.2175923750000024,
          "durationTicks": 94,
          "midi": 42,
          "name": "F#2",
          "ticks": 25632,
          "time": 59.333274,
          "velocity": 0.7874015748031497
        },
        {
          "duration": 0.2175923750000095,
          "durationTicks": 94,
          "midi": 42,
          "name": "F#2",
          "ticks": 25728,
          "time": 59.555496,
          "velocity": 0.7874015748031497
        },
        {
          "duration": 0.2175923750000024,
          "durationTicks": 94,
          "midi": 36,
          "name": "C2",
          "ticks": 25824,
          "time": 59.777718,
          "velocity": 0.7874015748031497
        },
        {
          "duration": 0.2175923750000024,
          "durationTicks": 94,
          "midi": 42,
          "name": "F#2",
          "ticks": 25824,
          "time": 59.777718,
          "velocity": 0.7874015748031497
        },
        {
          "duration": 0.2175923750000024,
          "durationTicks": 94,
          "midi": 38,
          "name": "D2",
          "ticks": 25920,
          "time": 59.99994,
          "velocity": 0.7874015748031497
        },
        {
          "duration": 0.2175923750000024,
          "durationTicks": 94,
          "midi": 42,
          "name": "F#2",
          "ticks": 25920,
          "time": 59.99994,
          "velocity": 0.7874015748031497
        },
        {
          "duration": 0.2175923750000095,
          "durationTicks": 94,
          "midi": 42,
          "name": "F#2",
          "ticks": 26016,
          "time": 60.222162,
          "velocity": 0.7874015748031497
        },
        {
          "duration": 0.2175923750000024,
          "durationTicks": 94,
          "midi": 36,
          "name": "C2",
          "ticks": 26112,
          "time": 60.444384,
          "velocity": 0.7874015748031497
        },
        {
          "duration": 0.2175923750000024,
          "durationTicks": 94,
          "midi": 42,
          "name": "F#2",
          "ticks": 26112,
          "time": 60.444384,
          "velocity": 0.7874015748031497
        },
        {
          "duration": 0.2175923750000024,
          "durationTicks": 94,
          "midi": 42,
          "name": "F#2",
          "ticks": 26208,
          "time": 60.666606,
          "velocity": 0.7874015748031497
        },
        {
          "duration": 0.2175923750000024,
          "durationTicks": 94,
          "midi": 38,
          "name": "D2",
          "ticks": 26304,
          "time": 60.888828000000004,
          "velocity": 0.7874015748031497
        },
        {
          "duration": 0.2175923750000024,
          "durationTicks": 94,
          "midi": 42,
          "name": "F#2",
          "ticks": 26304,
          "time": 60.888828000000004,
          "velocity": 0.7874015748031497
        },
        {
          "duration": 0.2175923750000095,
          "durationTicks": 94,
          "midi": 42,
          "name": "F#2",
          "ticks": 26400,
          "time": 61.11105,
          "velocity": 0.7874015748031497
        },
        {
          "duration": 0.2175923750000095,
          "durationTicks": 94,
          "midi": 36,
          "name": "C2",
          "ticks": 26400,
          "time": 61.11105,
          "velocity": 0.7874015748031497
        },
        {
          "duration": 0.2175923750000024,
          "durationTicks": 94,
          "midi": 42,
          "name": "F#2",
          "ticks": 26496,
          "time": 61.333272,
          "velocity": 0.7874015748031497
        },
        {
          "duration": 0.2175923750000024,
          "durationTicks": 94,
          "midi": 42,
          "name": "F#2",
          "ticks": 26592,
          "time": 61.555494,
          "velocity": 0.7874015748031497
        },
        {
          "duration": 0.2175923750000024,
          "durationTicks": 94,
          "midi": 36,
          "name": "C2",
          "ticks": 26592,
          "time": 61.555494,
          "velocity": 0.7874015748031497
        },
        {
          "duration": 0.2175923750000095,
          "durationTicks": 94,
          "midi": 42,
          "name": "F#2",
          "ticks": 26688,
          "time": 61.777716,
          "velocity": 0.7874015748031497
        },
        {
          "duration": 0.2175923750000095,
          "durationTicks": 94,
          "midi": 38,
          "name": "D2",
          "ticks": 26688,
          "time": 61.777716,
          "velocity": 0.7874015748031497
        },
        {
          "duration": 0.2175923750000024,
          "durationTicks": 94,
          "midi": 42,
          "name": "F#2",
          "ticks": 26784,
          "time": 61.999938,
          "velocity": 0.7874015748031497
        },
        {
          "duration": 0.2175923750000024,
          "durationTicks": 94,
          "midi": 36,
          "name": "C2",
          "ticks": 26880,
          "time": 62.22216,
          "velocity": 0.7874015748031497
        },
        {
          "duration": 0.2175923750000024,
          "durationTicks": 94,
          "midi": 42,
          "name": "F#2",
          "ticks": 26880,
          "time": 62.22216,
          "velocity": 0.7874015748031497
        },
        {
          "duration": 0.2175923750000095,
          "durationTicks": 94,
          "midi": 42,
          "name": "F#2",
          "ticks": 26976,
          "time": 62.444382,
          "velocity": 0.7874015748031497
        },
        {
          "duration": 0.2175923750000024,
          "durationTicks": 94,
          "midi": 42,
          "name": "F#2",
          "ticks": 27072,
          "time": 62.666604,
          "velocity": 0.7874015748031497
        },
        {
          "duration": 0.2175923750000024,
          "durationTicks": 94,
          "midi": 38,
          "name": "D2",
          "ticks": 27072,
          "time": 62.666604,
          "velocity": 0.7874015748031497
        },
        {
          "duration": 0.2175923750000024,
          "durationTicks": 94,
          "midi": 42,
          "name": "F#2",
          "ticks": 27168,
          "time": 62.888826,
          "velocity": 0.7874015748031497
        },
        {
          "duration": 0.2175923750000024,
          "durationTicks": 94,
          "midi": 36,
          "name": "C2",
          "ticks": 27168,
          "time": 62.888826,
          "velocity": 0.7874015748031497
        },
        {
          "duration": 0.2175923750000024,
          "durationTicks": 94,
          "midi": 42,
          "name": "F#2",
          "ticks": 27264,
          "time": 63.111048000000004,
          "velocity": 0.7874015748031497
        },
        {
          "duration": 0.2175923750000095,
          "durationTicks": 94,
          "midi": 42,
          "name": "F#2",
          "ticks": 27360,
          "time": 63.33327,
          "velocity": 0.7874015748031497
        },
        {
          "duration": 0.2175923750000095,
          "durationTicks": 94,
          "midi": 36,
          "name": "C2",
          "ticks": 27360,
          "time": 63.33327,
          "velocity": 0.7874015748031497
        },
        {
          "duration": 0.2175923750000024,
          "durationTicks": 94,
          "midi": 38,
          "name": "D2",
          "ticks": 27456,
          "time": 63.555492,
          "velocity": 0.7874015748031497
        },
        {
          "duration": 0.2175923750000024,
          "durationTicks": 94,
          "midi": 42,
          "name": "F#2",
          "ticks": 27456,
          "time": 63.555492,
          "velocity": 0.7874015748031497
        },
        {
          "duration": 0.2175923750000024,
          "durationTicks": 94,
          "midi": 42,
          "name": "F#2",
          "ticks": 27552,
          "time": 63.777714,
          "velocity": 0.7874015748031497
        },
        {
          "duration": 0.2175923750000024,
          "durationTicks": 94,
          "midi": 36,
          "name": "C2",
          "ticks": 27648,
          "time": 63.999936,
          "velocity": 0.7874015748031497
        },
        {
          "duration": 0.2175923750000024,
          "durationTicks": 94,
          "midi": 42,
          "name": "F#2",
          "ticks": 27648,
          "time": 63.999936,
          "velocity": 0.7874015748031497
        },
        {
          "duration": 0.21759237499999529,
          "durationTicks": 94,
          "midi": 42,
          "name": "F#2",
          "ticks": 27744,
          "time": 64.22215800000001,
          "velocity": 0.7874015748031497
        },
        {
          "duration": 0.2175923750000095,
          "durationTicks": 94,
          "midi": 42,
          "name": "F#2",
          "ticks": 27840,
          "time": 64.44438,
          "velocity": 0.7874015748031497
        },
        {
          "duration": 0.2175923750000095,
          "durationTicks": 94,
          "midi": 38,
          "name": "D2",
          "ticks": 27840,
          "time": 64.44438,
          "velocity": 0.7874015748031497
        },
        {
          "duration": 0.2175923750000095,
          "durationTicks": 94,
          "midi": 42,
          "name": "F#2",
          "ticks": 27936,
          "time": 64.666602,
          "velocity": 0.7874015748031497
        },
        {
          "duration": 0.2175923750000095,
          "durationTicks": 94,
          "midi": 36,
          "name": "C2",
          "ticks": 27936,
          "time": 64.666602,
          "velocity": 0.7874015748031497
        },
        {
          "duration": 0.2175923750000095,
          "durationTicks": 94,
          "midi": 42,
          "name": "F#2",
          "ticks": 28032,
          "time": 64.888824,
          "velocity": 0.7874015748031497
        },
        {
          "duration": 0.2175923750000095,
          "durationTicks": 94,
          "midi": 42,
          "name": "F#2",
          "ticks": 28128,
          "time": 65.111046,
          "velocity": 0.7874015748031497
        },
        {
          "duration": 0.2175923750000095,
          "durationTicks": 94,
          "midi": 36,
          "name": "C2",
          "ticks": 28128,
          "time": 65.111046,
          "velocity": 0.7874015748031497
        },
        {
          "duration": 0.21759237499999529,
          "durationTicks": 94,
          "midi": 38,
          "name": "D2",
          "ticks": 28224,
          "time": 65.333268,
          "velocity": 0.7874015748031497
        },
        {
          "duration": 0.21759237499999529,
          "durationTicks": 94,
          "midi": 42,
          "name": "F#2",
          "ticks": 28224,
          "time": 65.333268,
          "velocity": 0.7874015748031497
        },
        {
          "duration": 0.21759237499999529,
          "durationTicks": 94,
          "midi": 42,
          "name": "F#2",
          "ticks": 28320,
          "time": 65.55549,
          "velocity": 0.7874015748031497
        },
        {
          "duration": 0.2175923750000095,
          "durationTicks": 94,
          "midi": 42,
          "name": "F#2",
          "ticks": 28416,
          "time": 65.777712,
          "velocity": 0.7874015748031497
        },
        {
          "duration": 0.2175923750000095,
          "durationTicks": 94,
          "midi": 36,
          "name": "C2",
          "ticks": 28416,
          "time": 65.777712,
          "velocity": 0.7874015748031497
        },
        {
          "duration": 0.2175923750000095,
          "durationTicks": 94,
          "midi": 42,
          "name": "F#2",
          "ticks": 28512,
          "time": 65.999934,
          "velocity": 0.7874015748031497
        },
        {
          "duration": 0.2175923750000095,
          "durationTicks": 94,
          "midi": 42,
          "name": "F#2",
          "ticks": 28608,
          "time": 66.222156,
          "velocity": 0.7874015748031497
        },
        {
          "duration": 0.2175923750000095,
          "durationTicks": 94,
          "midi": 38,
          "name": "D2",
          "ticks": 28608,
          "time": 66.222156,
          "velocity": 0.7874015748031497
        },
        {
          "duration": 0.2175923750000095,
          "durationTicks": 94,
          "midi": 42,
          "name": "F#2",
          "ticks": 28704,
          "time": 66.444378,
          "velocity": 0.7874015748031497
        },
        {
          "duration": 0.2175923750000095,
          "durationTicks": 94,
          "midi": 36,
          "name": "C2",
          "ticks": 28704,
          "time": 66.444378,
          "velocity": 0.7874015748031497
        },
        {
          "duration": 0.2175923750000095,
          "durationTicks": 94,
          "midi": 42,
          "name": "F#2",
          "ticks": 28800,
          "time": 66.6666,
          "velocity": 0.7874015748031497
        },
        {
          "duration": 0.21759237499999529,
          "durationTicks": 94,
          "midi": 36,
          "name": "C2",
          "ticks": 28896,
          "time": 66.888822,
          "velocity": 0.7874015748031497
        },
        {
          "duration": 0.21759237499999529,
          "durationTicks": 94,
          "midi": 42,
          "name": "F#2",
          "ticks": 28896,
          "time": 66.888822,
          "velocity": 0.7874015748031497
        },
        {
          "duration": 0.21759237499999529,
          "durationTicks": 94,
          "midi": 42,
          "name": "F#2",
          "ticks": 28992,
          "time": 67.111044,
          "velocity": 0.7874015748031497
        },
        {
          "duration": 0.21759237499999529,
          "durationTicks": 94,
          "midi": 38,
          "name": "D2",
          "ticks": 28992,
          "time": 67.111044,
          "velocity": 0.7874015748031497
        },
        {
          "duration": 0.2175923750000095,
          "durationTicks": 94,
          "midi": 42,
          "name": "F#2",
          "ticks": 29088,
          "time": 67.333266,
          "velocity": 0.7874015748031497
        },
        {
          "duration": 0.2175923750000095,
          "durationTicks": 94,
          "midi": 42,
          "name": "F#2",
          "ticks": 29184,
          "time": 67.555488,
          "velocity": 0.7874015748031497
        },
        {
          "duration": 0.2175923750000095,
          "durationTicks": 94,
          "midi": 36,
          "name": "C2",
          "ticks": 29184,
          "time": 67.555488,
          "velocity": 0.7874015748031497
        },
        {
          "duration": 0.2175923750000095,
          "durationTicks": 94,
          "midi": 42,
          "name": "F#2",
          "ticks": 29280,
          "time": 67.77771,
          "velocity": 0.7874015748031497
        },
        {
          "duration": 0.2175923750000095,
          "durationTicks": 94,
          "midi": 38,
          "name": "D2",
          "ticks": 29376,
          "time": 67.999932,
          "velocity": 0.7874015748031497
        },
        {
          "duration": 0.2175923750000095,
          "durationTicks": 94,
          "midi": 42,
          "name": "F#2",
          "ticks": 29376,
          "time": 67.999932,
          "velocity": 0.7874015748031497
        },
        {
          "duration": 0.21759237499999529,
          "durationTicks": 94,
          "midi": 36,
          "name": "C2",
          "ticks": 29472,
          "time": 68.222154,
          "velocity": 0.7874015748031497
        },
        {
          "duration": 0.21759237499999529,
          "durationTicks": 94,
          "midi": 42,
          "name": "F#2",
          "ticks": 29472,
          "time": 68.222154,
          "velocity": 0.7874015748031497
        },
        {
          "duration": 0.21759237499999529,
          "durationTicks": 94,
          "midi": 42,
          "name": "F#2",
          "ticks": 29568,
          "time": 68.444376,
          "velocity": 0.7874015748031497
        },
        {
          "duration": 0.21759237499999529,
          "durationTicks": 94,
          "midi": 36,
          "name": "C2",
          "ticks": 29664,
          "time": 68.66659800000001,
          "velocity": 0.7874015748031497
        },
        {
          "duration": 0.21759237499999529,
          "durationTicks": 94,
          "midi": 42,
          "name": "F#2",
          "ticks": 29664,
          "time": 68.66659800000001,
          "velocity": 0.7874015748031497
        },
        {
          "duration": 0.2175923750000095,
          "durationTicks": 94,
          "midi": 42,
          "name": "F#2",
          "ticks": 29760,
          "time": 68.88882,
          "velocity": 0.7874015748031497
        },
        {
          "duration": 0.2175923750000095,
          "durationTicks": 94,
          "midi": 38,
          "name": "D2",
          "ticks": 29760,
          "time": 68.88882,
          "velocity": 0.7874015748031497
        },
        {
          "duration": 0.2175923750000095,
          "durationTicks": 94,
          "midi": 42,
          "name": "F#2",
          "ticks": 29856,
          "time": 69.111042,
          "velocity": 0.7874015748031497
        },
        {
          "duration": 0.2175923750000095,
          "durationTicks": 94,
          "midi": 42,
          "name": "F#2",
          "ticks": 29952,
          "time": 69.333264,
          "velocity": 0.7874015748031497
        },
        {
          "duration": 0.2175923750000095,
          "durationTicks": 94,
          "midi": 36,
          "name": "C2",
          "ticks": 29952,
          "time": 69.333264,
          "velocity": 0.7874015748031497
        },
        {
          "duration": 0.2175923750000095,
          "durationTicks": 94,
          "midi": 42,
          "name": "F#2",
          "ticks": 30048,
          "time": 69.555486,
          "velocity": 0.7874015748031497
        },
        {
          "duration": 0.21759237499999529,
          "durationTicks": 94,
          "midi": 42,
          "name": "F#2",
          "ticks": 30144,
          "time": 69.777708,
          "velocity": 0.7874015748031497
        },
        {
          "duration": 0.21759237499999529,
          "durationTicks": 94,
          "midi": 38,
          "name": "D2",
          "ticks": 30144,
          "time": 69.777708,
          "velocity": 0.7874015748031497
        },
        {
          "duration": 0.21759237499999529,
          "durationTicks": 94,
          "midi": 36,
          "name": "C2",
          "ticks": 30240,
          "time": 69.99993,
          "velocity": 0.7874015748031497
        },
        {
          "duration": 0.21759237499999529,
          "durationTicks": 94,
          "midi": 42,
          "name": "F#2",
          "ticks": 30240,
          "time": 69.99993,
          "velocity": 0.7874015748031497
        },
        {
          "duration": 0.2175923750000095,
          "durationTicks": 94,
          "midi": 42,
          "name": "F#2",
          "ticks": 30336,
          "time": 70.222152,
          "velocity": 0.7874015748031497
        },
        {
          "duration": 0.2175923750000095,
          "durationTicks": 94,
          "midi": 36,
          "name": "C2",
          "ticks": 30432,
          "time": 70.444374,
          "velocity": 0.7874015748031497
        },
        {
          "duration": 0.2175923750000095,
          "durationTicks": 94,
          "midi": 42,
          "name": "F#2",
          "ticks": 30432,
          "time": 70.444374,
          "velocity": 0.7874015748031497
        },
        {
          "duration": 0.2175923750000095,
          "durationTicks": 94,
          "midi": 38,
          "name": "D2",
          "ticks": 30528,
          "time": 70.666596,
          "velocity": 0.7874015748031497
        },
        {
          "duration": 0.2175923750000095,
          "durationTicks": 94,
          "midi": 42,
          "name": "F#2",
          "ticks": 30528,
          "time": 70.666596,
          "velocity": 0.7874015748031497
        },
        {
          "duration": 0.2175923750000095,
          "durationTicks": 94,
          "midi": 42,
          "name": "F#2",
          "ticks": 30624,
          "time": 70.888818,
          "velocity": 0.7874015748031497
        },
        {
          "duration": 0.2175923750000095,
          "durationTicks": 94,
          "midi": 36,
          "name": "C2",
          "ticks": 30720,
          "time": 71.11104,
          "velocity": 0.7874015748031497
        },
        {
          "duration": 0.2175923750000095,
          "durationTicks": 94,
          "midi": 42,
          "name": "F#2",
          "ticks": 30720,
          "time": 71.11104,
          "velocity": 0.7874015748031497
        },
        {
          "duration": 0.21759237499999529,
          "durationTicks": 94,
          "midi": 42,
          "name": "F#2",
          "ticks": 30816,
          "time": 71.333262,
          "velocity": 0.7874015748031497
        },
        {
          "duration": 0.21759237499999529,
          "durationTicks": 94,
          "midi": 38,
          "name": "D2",
          "ticks": 30912,
          "time": 71.555484,
          "velocity": 0.7874015748031497
        },
        {
          "duration": 0.21759237499999529,
          "durationTicks": 94,
          "midi": 42,
          "name": "F#2",
          "ticks": 30912,
          "time": 71.555484,
          "velocity": 0.7874015748031497
        },
        {
          "duration": 0.2175923750000095,
          "durationTicks": 94,
          "midi": 42,
          "name": "F#2",
          "ticks": 31008,
          "time": 71.777706,
          "velocity": 0.7874015748031497
        },
        {
          "duration": 0.2175923750000095,
          "durationTicks": 94,
          "midi": 36,
          "name": "C2",
          "ticks": 31008,
          "time": 71.777706,
          "velocity": 0.7874015748031497
        },
        {
          "duration": 0.2175923750000095,
          "durationTicks": 94,
          "midi": 42,
          "name": "F#2",
          "ticks": 31104,
          "time": 71.999928,
          "velocity": 0.7874015748031497
        },
        {
          "duration": 0.2175923750000095,
          "durationTicks": 94,
          "midi": 36,
          "name": "C2",
          "ticks": 31200,
          "time": 72.22215,
          "velocity": 0.7874015748031497
        },
        {
          "duration": 0.2175923750000095,
          "durationTicks": 94,
          "midi": 42,
          "name": "F#2",
          "ticks": 31200,
          "time": 72.22215,
          "velocity": 0.7874015748031497
        },
        {
          "duration": 0.2175923750000095,
          "durationTicks": 94,
          "midi": 42,
          "name": "F#2",
          "ticks": 31296,
          "time": 72.444372,
          "velocity": 0.7874015748031497
        },
        {
          "duration": 0.2175923750000095,
          "durationTicks": 94,
          "midi": 38,
          "name": "D2",
          "ticks": 31296,
          "time": 72.444372,
          "velocity": 0.7874015748031497
        },
        {
          "duration": 0.21759237499999529,
          "durationTicks": 94,
          "midi": 42,
          "name": "F#2",
          "ticks": 31392,
          "time": 72.666594,
          "velocity": 0.7874015748031497
        },
        {
          "duration": 0.21759237499999529,
          "durationTicks": 94,
          "midi": 42,
          "name": "F#2",
          "ticks": 31488,
          "time": 72.888816,
          "velocity": 0.7874015748031497
        },
        {
          "duration": 0.21759237499999529,
          "durationTicks": 94,
          "midi": 36,
          "name": "C2",
          "ticks": 31488,
          "time": 72.888816,
          "velocity": 0.7874015748031497
        },
        {
          "duration": 0.21759237499999529,
          "durationTicks": 94,
          "midi": 42,
          "name": "F#2",
          "ticks": 31584,
          "time": 73.11103800000001,
          "velocity": 0.7874015748031497
        },
        {
          "duration": 0.2175923750000095,
          "durationTicks": 94,
          "midi": 42,
          "name": "F#2",
          "ticks": 31680,
          "time": 73.33326,
          "velocity": 0.7874015748031497
        },
        {
          "duration": 0.2175923750000095,
          "durationTicks": 94,
          "midi": 38,
          "name": "D2",
          "ticks": 31680,
          "time": 73.33326,
          "velocity": 0.7874015748031497
        },
        {
          "duration": 0.2175923750000095,
          "durationTicks": 94,
          "midi": 36,
          "name": "C2",
          "ticks": 31776,
          "time": 73.555482,
          "velocity": 0.7874015748031497
        },
        {
          "duration": 0.2175923750000095,
          "durationTicks": 94,
          "midi": 42,
          "name": "F#2",
          "ticks": 31776,
          "time": 73.555482,
          "velocity": 0.7874015748031497
        },
        {
          "duration": 0.2175923750000095,
          "durationTicks": 94,
          "midi": 42,
          "name": "F#2",
          "ticks": 31872,
          "time": 73.777704,
          "velocity": 0.7874015748031497
        },
        {
          "duration": 0.2175923750000095,
          "durationTicks": 94,
          "midi": 42,
          "name": "F#2",
          "ticks": 31968,
          "time": 73.999926,
          "velocity": 0.7874015748031497
        },
        {
          "duration": 0.2175923750000095,
          "durationTicks": 94,
          "midi": 36,
          "name": "C2",
          "ticks": 31968,
          "time": 73.999926,
          "velocity": 0.7874015748031497
        },
        {
          "duration": 0.21759237499999529,
          "durationTicks": 94,
          "midi": 42,
          "name": "F#2",
          "ticks": 32064,
          "time": 74.222148,
          "velocity": 0.7874015748031497
        },
        {
          "duration": 0.21759237499999529,
          "durationTicks": 94,
          "midi": 38,
          "name": "D2",
          "ticks": 32064,
          "time": 74.222148,
          "velocity": 0.7874015748031497
        },
        {
          "duration": 0.21759237499999529,
          "durationTicks": 94,
          "midi": 36,
          "name": "C2",
          "ticks": 32160,
          "time": 74.44437,
          "velocity": 0.7874015748031497
        },
        {
          "duration": 0.21759237499999529,
          "durationTicks": 94,
          "midi": 42,
          "name": "F#2",
          "ticks": 32160,
          "time": 74.44437,
          "velocity": 0.7874015748031497
        },
        {
          "duration": 0.2175923750000095,
          "durationTicks": 94,
          "midi": 36,
          "name": "C2",
          "ticks": 32256,
          "time": 74.666592,
          "velocity": 0.7874015748031497
        },
        {
          "duration": 0.2175923750000095,
          "durationTicks": 94,
          "midi": 42,
          "name": "F#2",
          "ticks": 32256,
          "time": 74.666592,
          "velocity": 0.7874015748031497
        },
        {
          "duration": 0.2175923750000095,
          "durationTicks": 94,
          "midi": 42,
          "name": "F#2",
          "ticks": 32352,
          "time": 74.888814,
          "velocity": 0.7874015748031497
        },
        {
          "duration": 0.2175923750000095,
          "durationTicks": 94,
          "midi": 42,
          "name": "F#2",
          "ticks": 32448,
          "time": 75.111036,
          "velocity": 0.7874015748031497
        },
        {
          "duration": 0.2175923750000095,
          "durationTicks": 94,
          "midi": 38,
          "name": "D2",
          "ticks": 32448,
          "time": 75.111036,
          "velocity": 0.7874015748031497
        },
        {
          "duration": 0.2175923750000095,
          "durationTicks": 94,
          "midi": 36,
          "name": "C2",
          "ticks": 32544,
          "time": 75.333258,
          "velocity": 0.7874015748031497
        },
        {
          "duration": 0.2175923750000095,
          "durationTicks": 94,
          "midi": 42,
          "name": "F#2",
          "ticks": 32544,
          "time": 75.333258,
          "velocity": 0.7874015748031497
        },
        {
          "duration": 0.21759237499999529,
          "durationTicks": 94,
          "midi": 42,
          "name": "F#2",
          "ticks": 32640,
          "time": 75.55548,
          "velocity": 0.7874015748031497
        },
        {
          "duration": 0.21759237499999529,
          "durationTicks": 94,
          "midi": 36,
          "name": "C2",
          "ticks": 32736,
          "time": 75.777702,
          "velocity": 0.7874015748031497
        },
        {
          "duration": 0.21759237499999529,
          "durationTicks": 94,
          "midi": 42,
          "name": "F#2",
          "ticks": 32736,
          "time": 75.777702,
          "velocity": 0.7874015748031497
        },
        {
          "duration": 0.21759237499999529,
          "durationTicks": 94,
          "midi": 42,
          "name": "F#2",
          "ticks": 32832,
          "time": 75.99992400000001,
          "velocity": 0.7874015748031497
        },
        {
          "duration": 0.21759237499999529,
          "durationTicks": 94,
          "midi": 38,
          "name": "D2",
          "ticks": 32832,
          "time": 75.99992400000001,
          "velocity": 0.7874015748031497
        },
        {
          "duration": 0.2175923750000095,
          "durationTicks": 94,
          "midi": 36,
          "name": "C2",
          "ticks": 32928,
          "time": 76.222146,
          "velocity": 0.7874015748031497
        },
        {
          "duration": 0.2175923750000095,
          "durationTicks": 94,
          "midi": 42,
          "name": "F#2",
          "ticks": 32928,
          "time": 76.222146,
          "velocity": 0.7874015748031497
        },
        {
          "duration": 0.2175923750000095,
          "durationTicks": 94,
          "midi": 42,
          "name": "F#2",
          "ticks": 33024,
          "time": 76.444368,
          "velocity": 0.7874015748031497
        },
        {
          "duration": 0.2175923750000095,
          "durationTicks": 94,
          "midi": 36,
          "name": "C2",
          "ticks": 33024,
          "time": 76.444368,
          "velocity": 0.7874015748031497
        },
        {
          "duration": 0.2175923750000095,
          "durationTicks": 94,
          "midi": 42,
          "name": "F#2",
          "ticks": 33120,
          "time": 76.66659,
          "velocity": 0.7874015748031497
        },
        {
          "duration": 0.2175923750000095,
          "durationTicks": 94,
          "midi": 42,
          "name": "F#2",
          "ticks": 33216,
          "time": 76.888812,
          "velocity": 0.7874015748031497
        },
        {
          "duration": 0.2175923750000095,
          "durationTicks": 94,
          "midi": 38,
          "name": "D2",
          "ticks": 33216,
          "time": 76.888812,
          "velocity": 0.7874015748031497
        },
        {
          "duration": 0.21759237499999529,
          "durationTicks": 94,
          "midi": 36,
          "name": "C2",
          "ticks": 33312,
          "time": 77.111034,
          "velocity": 0.7874015748031497
        },
        {
          "duration": 0.21759237499999529,
          "durationTicks": 94,
          "midi": 42,
          "name": "F#2",
          "ticks": 33312,
          "time": 77.111034,
          "velocity": 0.7874015748031497
        },
        {
          "duration": 0.21759237499999529,
          "durationTicks": 94,
          "midi": 42,
          "name": "F#2",
          "ticks": 33408,
          "time": 77.333256,
          "velocity": 0.7874015748031497
        },
        {
          "duration": 0.21759237499999529,
          "durationTicks": 94,
          "midi": 36,
          "name": "C2",
          "ticks": 33504,
          "time": 77.55547800000001,
          "velocity": 0.7874015748031497
        },
        {
          "duration": 0.21759237499999529,
          "durationTicks": 94,
          "midi": 42,
          "name": "F#2",
          "ticks": 33504,
          "time": 77.55547800000001,
          "velocity": 0.7874015748031497
        },
        {
          "duration": 0.2175923750000095,
          "durationTicks": 94,
          "midi": 42,
          "name": "F#2",
          "ticks": 33600,
          "time": 77.7777,
          "velocity": 0.7874015748031497
        },
        {
          "duration": 0.2175923750000095,
          "durationTicks": 94,
          "midi": 38,
          "name": "D2",
          "ticks": 33600,
          "time": 77.7777,
          "velocity": 0.7874015748031497
        },
        {
          "duration": 0.2175923750000095,
          "durationTicks": 94,
          "midi": 42,
          "name": "F#2",
          "ticks": 33696,
          "time": 77.999922,
          "velocity": 0.7874015748031497
        },
        {
          "duration": 0.2175923750000095,
          "durationTicks": 94,
          "midi": 42,
          "name": "F#2",
          "ticks": 33792,
          "time": 78.222144,
          "velocity": 0.7874015748031497
        },
        {
          "duration": 0.2175923750000095,
          "durationTicks": 94,
          "midi": 36,
          "name": "C2",
          "ticks": 33792,
          "time": 78.222144,
          "velocity": 0.7874015748031497
        },
        {
          "duration": 0.2175923750000095,
          "durationTicks": 94,
          "midi": 42,
          "name": "F#2",
          "ticks": 33888,
          "time": 78.444366,
          "velocity": 0.7874015748031497
        },
        {
          "duration": 0.21759237499999529,
          "durationTicks": 94,
          "midi": 42,
          "name": "F#2",
          "ticks": 33984,
          "time": 78.666588,
          "velocity": 0.7874015748031497
        },
        {
          "duration": 0.21759237499999529,
          "durationTicks": 94,
          "midi": 38,
          "name": "D2",
          "ticks": 33984,
          "time": 78.666588,
          "velocity": 0.7874015748031497
        },
        {
          "duration": 0.21759237499999529,
          "durationTicks": 94,
          "midi": 36,
          "name": "C2",
          "ticks": 34080,
          "time": 78.88881,
          "velocity": 0.7874015748031497
        },
        {
          "duration": 0.21759237499999529,
          "durationTicks": 94,
          "midi": 42,
          "name": "F#2",
          "ticks": 34080,
          "time": 78.88881,
          "velocity": 0.7874015748031497
        },
        {
          "duration": 0.2175923750000095,
          "durationTicks": 94,
          "midi": 42,
          "name": "F#2",
          "ticks": 34176,
          "time": 79.111032,
          "velocity": 0.7874015748031497
        },
        {
          "duration": 0.2175923750000095,
          "durationTicks": 94,
          "midi": 36,
          "name": "C2",
          "ticks": 34272,
          "time": 79.333254,
          "velocity": 0.7874015748031497
        },
        {
          "duration": 0.2175923750000095,
          "durationTicks": 94,
          "midi": 42,
          "name": "F#2",
          "ticks": 34272,
          "time": 79.333254,
          "velocity": 0.7874015748031497
        },
        {
          "duration": 0.2175923750000095,
          "durationTicks": 94,
          "midi": 42,
          "name": "F#2",
          "ticks": 34368,
          "time": 79.555476,
          "velocity": 0.7874015748031497
        },
        {
          "duration": 0.2175923750000095,
          "durationTicks": 94,
          "midi": 38,
          "name": "D2",
          "ticks": 34368,
          "time": 79.555476,
          "velocity": 0.7874015748031497
        },
        {
          "duration": 0.2175923750000095,
          "durationTicks": 94,
          "midi": 42,
          "name": "F#2",
          "ticks": 34464,
          "time": 79.777698,
          "velocity": 0.7874015748031497
        },
        {
          "duration": 0.21759237499999529,
          "durationTicks": 94,
          "midi": 42,
          "name": "F#2",
          "ticks": 34560,
          "time": 79.99992,
          "velocity": 0.7874015748031497
        },
        {
          "duration": 0.21759237499999529,
          "durationTicks": 94,
          "midi": 36,
          "name": "C2",
          "ticks": 34560,
          "time": 79.99992,
          "velocity": 0.7874015748031497
        },
        {
          "duration": 0.21759237499999529,
          "durationTicks": 94,
          "midi": 42,
          "name": "F#2",
          "ticks": 34656,
          "time": 80.222142,
          "velocity": 0.7874015748031497
        },
        {
          "duration": 0.21759237499999529,
          "durationTicks": 94,
          "midi": 42,
          "name": "F#2",
          "ticks": 34752,
          "time": 80.44436400000001,
          "velocity": 0.7874015748031497
        },
        {
          "duration": 0.21759237499999529,
          "durationTicks": 94,
          "midi": 38,
          "name": "D2",
          "ticks": 34752,
          "time": 80.44436400000001,
          "velocity": 0.7874015748031497
        },
        {
          "duration": 0.2175923750000095,
          "durationTicks": 94,
          "midi": 42,
          "name": "F#2",
          "ticks": 34848,
          "time": 80.666586,
          "velocity": 0.7874015748031497
        },
        {
          "duration": 0.2175923750000095,
          "durationTicks": 94,
          "midi": 42,
          "name": "F#2",
          "ticks": 34944,
          "time": 80.888808,
          "velocity": 0.7874015748031497
        },
        {
          "duration": 0.2175923750000095,
          "durationTicks": 94,
          "midi": 42,
          "name": "F#2",
          "ticks": 35040,
          "time": 81.11103,
          "velocity": 0.7874015748031497
        },
        {
          "duration": 0.2175923750000095,
          "durationTicks": 94,
          "midi": 42,
          "name": "F#2",
          "ticks": 35136,
          "time": 81.333252,
          "velocity": 0.7874015748031497
        },
        {
          "duration": 0.2175923750000095,
          "durationTicks": 94,
          "midi": 38,
          "name": "D2",
          "ticks": 35136,
          "time": 81.333252,
          "velocity": 0.7874015748031497
        },
        {
          "duration": 0.21759237499999529,
          "durationTicks": 94,
          "midi": 42,
          "name": "F#2",
          "ticks": 35232,
          "time": 81.555474,
          "velocity": 0.7874015748031497
        },
        {
          "duration": 0.21759237499999529,
          "durationTicks": 94,
          "midi": 36,
          "name": "C2",
          "ticks": 35232,
          "time": 81.555474,
          "velocity": 0.7874015748031497
        },
        {
          "duration": 0.21759237499999529,
          "durationTicks": 94,
          "midi": 38,
          "name": "D2",
          "ticks": 35232,
          "time": 81.555474,
          "velocity": 0.7874015748031497
        },
        {
          "duration": 0.21759237499999529,
          "durationTicks": 94,
          "midi": 42,
          "name": "F#2",
          "ticks": 35328,
          "time": 81.777696,
          "velocity": 0.7874015748031497
        },
        {
          "duration": 0.21759237499999529,
          "durationTicks": 94,
          "midi": 36,
          "name": "C2",
          "ticks": 35328,
          "time": 81.777696,
          "velocity": 0.7874015748031497
        },
        {
          "duration": 0.21759237499999529,
          "durationTicks": 94,
          "midi": 38,
          "name": "D2",
          "ticks": 35328,
          "time": 81.777696,
          "velocity": 0.7874015748031497
        },
        {
          "duration": 0.21759237499999529,
          "durationTicks": 94,
          "midi": 42,
          "name": "F#2",
          "ticks": 35424,
          "time": 81.99991800000001,
          "velocity": 0.7874015748031497
        },
        {
          "duration": 0.2175923750000095,
          "durationTicks": 94,
          "midi": 42,
          "name": "F#2",
          "ticks": 35520,
          "time": 82.22214,
          "velocity": 0.7874015748031497
        },
        {
          "duration": 0.2175923750000095,
          "durationTicks": 94,
          "midi": 38,
          "name": "D2",
          "ticks": 35616,
          "time": 82.444362,
          "velocity": 0.7874015748031497
        },
        {
          "duration": 0.2175923750000095,
          "durationTicks": 94,
          "midi": 36,
          "name": "C2",
          "ticks": 35616,
          "time": 82.444362,
          "velocity": 0.7874015748031497
        },
        {
          "duration": 0.2175923750000095,
          "durationTicks": 94,
          "midi": 42,
          "name": "F#2",
          "ticks": 35616,
          "time": 82.444362,
          "velocity": 0.7874015748031497
        },
        {
          "duration": 0.2175923750000095,
          "durationTicks": 94,
          "midi": 42,
          "name": "F#2",
          "ticks": 35712,
          "time": 82.666584,
          "velocity": 0.7874015748031497
        },
        {
          "duration": 0.2175923750000095,
          "durationTicks": 94,
          "midi": 42,
          "name": "F#2",
          "ticks": 35808,
          "time": 82.888806,
          "velocity": 0.7874015748031497
        },
        {
          "duration": 0.21759237499999529,
          "durationTicks": 94,
          "midi": 36,
          "name": "C2",
          "ticks": 35904,
          "time": 83.111028,
          "velocity": 0.7874015748031497
        },
        {
          "duration": 0.21759237499999529,
          "durationTicks": 94,
          "midi": 42,
          "name": "F#2",
          "ticks": 35904,
          "time": 83.111028,
          "velocity": 0.7874015748031497
        },
        {
          "duration": 0.21759237499999529,
          "durationTicks": 94,
          "midi": 38,
          "name": "D2",
          "ticks": 35904,
          "time": 83.111028,
          "velocity": 0.7874015748031497
        },
        {
          "duration": 0.21759237499999529,
          "durationTicks": 94,
          "midi": 42,
          "name": "F#2",
          "ticks": 36000,
          "time": 83.33325,
          "velocity": 0.7874015748031497
        },
        {
          "duration": 0.2175923750000095,
          "durationTicks": 94,
          "midi": 42,
          "name": "F#2",
          "ticks": 36096,
          "time": 83.555472,
          "velocity": 0.7874015748031497
        },
        {
          "duration": 0.2175923750000095,
          "durationTicks": 94,
          "midi": 42,
          "name": "F#2",
          "ticks": 36192,
          "time": 83.777694,
          "velocity": 0.7874015748031497
        },
        {
          "duration": 0.2175923750000095,
          "durationTicks": 94,
          "midi": 36,
          "name": "C2",
          "ticks": 36192,
          "time": 83.777694,
          "velocity": 0.7874015748031497
        },
        {
          "duration": 0.2175923750000095,
          "durationTicks": 94,
          "midi": 38,
          "name": "D2",
          "ticks": 36192,
          "time": 83.777694,
          "velocity": 0.7874015748031497
        },
        {
          "duration": 0.2175923750000095,
          "durationTicks": 94,
          "midi": 42,
          "name": "F#2",
          "ticks": 36288,
          "time": 83.999916,
          "velocity": 0.7874015748031497
        },
        {
          "duration": 0.2175923750000095,
          "durationTicks": 94,
          "midi": 42,
          "name": "F#2",
          "ticks": 36384,
          "time": 84.222138,
          "velocity": 0.7874015748031497
        },
        {
          "duration": 0.21759237499999529,
          "durationTicks": 94,
          "midi": 42,
          "name": "F#2",
          "ticks": 36480,
          "time": 84.44436,
          "velocity": 0.7874015748031497
        },
        {
          "duration": 0.21759237499999529,
          "durationTicks": 94,
          "midi": 36,
          "name": "C2",
          "ticks": 36480,
          "time": 84.44436,
          "velocity": 0.7874015748031497
        },
        {
          "duration": 0.21759237499999529,
          "durationTicks": 94,
          "midi": 38,
          "name": "D2",
          "ticks": 36480,
          "time": 84.44436,
          "velocity": 0.7874015748031497
        },
        {
          "duration": 0.21759237499999529,
          "durationTicks": 94,
          "midi": 47,
          "name": "B2",
          "ticks": 36576,
          "time": 84.666582,
          "velocity": 0.7874015748031497
        },
        {
          "duration": 0.21759237499999529,
          "durationTicks": 94,
          "midi": 47,
          "name": "B2",
          "ticks": 36672,
          "time": 84.88880400000001,
          "velocity": 0.7874015748031497
        },
        {
          "duration": 0.2175923750000095,
          "durationTicks": 94,
          "midi": 47,
          "name": "B2",
          "ticks": 36768,
          "time": 85.111026,
          "velocity": 0.7874015748031497
        },
        {
          "duration": 0.2175923750000095,
          "durationTicks": 94,
          "midi": 49,
          "name": "C#3",
          "ticks": 36864,
          "time": 85.333248,
          "velocity": 0.7874015748031497
        },
        {
          "duration": 0.2175923750000095,
          "durationTicks": 94,
          "midi": 36,
          "name": "C2",
          "ticks": 36864,
          "time": 85.333248,
          "velocity": 0.7874015748031497
        },
        {
          "duration": 0.2175923750000095,
          "durationTicks": 94,
          "midi": 42,
          "name": "F#2",
          "ticks": 36960,
          "time": 85.55547,
          "velocity": 0.7874015748031497
        },
        {
          "duration": 0.2175923750000095,
          "durationTicks": 94,
          "midi": 42,
          "name": "F#2",
          "ticks": 37056,
          "time": 85.777692,
          "velocity": 0.7874015748031497
        },
        {
          "duration": 0.2175923750000095,
          "durationTicks": 94,
          "midi": 38,
          "name": "D2",
          "ticks": 37056,
          "time": 85.777692,
          "velocity": 0.7874015748031497
        },
        {
          "duration": 0.21759237499999529,
          "durationTicks": 94,
          "midi": 36,
          "name": "C2",
          "ticks": 37152,
          "time": 85.999914,
          "velocity": 0.7874015748031497
        },
        {
          "duration": 0.21759237499999529,
          "durationTicks": 94,
          "midi": 42,
          "name": "F#2",
          "ticks": 37152,
          "time": 85.999914,
          "velocity": 0.7874015748031497
        },
        {
          "duration": 0.21759237499999529,
          "durationTicks": 94,
          "midi": 42,
          "name": "F#2",
          "ticks": 37248,
          "time": 86.222136,
          "velocity": 0.7874015748031497
        },
        {
          "duration": 0.21759237499999529,
          "durationTicks": 94,
          "midi": 36,
          "name": "C2",
          "ticks": 37248,
          "time": 86.222136,
          "velocity": 0.7874015748031497
        },
        {
          "duration": 0.2175923750000095,
          "durationTicks": 94,
          "midi": 36,
          "name": "C2",
          "ticks": 37344,
          "time": 86.444358,
          "velocity": 0.7874015748031497
        },
        {
          "duration": 0.2175923750000095,
          "durationTicks": 94,
          "midi": 42,
          "name": "F#2",
          "ticks": 37344,
          "time": 86.444358,
          "velocity": 0.7874015748031497
        },
        {
          "duration": 0.2175923750000095,
          "durationTicks": 94,
          "midi": 38,
          "name": "D2",
          "ticks": 37440,
          "time": 86.66658,
          "velocity": 0.7874015748031497
        },
        {
          "duration": 0.2175923750000095,
          "durationTicks": 94,
          "midi": 42,
          "name": "F#2",
          "ticks": 37440,
          "time": 86.66658,
          "velocity": 0.7874015748031497
        },
        {
          "duration": 0.2175923750000095,
          "durationTicks": 94,
          "midi": 42,
          "name": "F#2",
          "ticks": 37536,
          "time": 86.888802,
          "velocity": 0.7874015748031497
        },
        {
          "duration": 0.2175923750000095,
          "durationTicks": 94,
          "midi": 36,
          "name": "C2",
          "ticks": 37536,
          "time": 86.888802,
          "velocity": 0.7874015748031497
        },
        {
          "duration": 0.2175923750000095,
          "durationTicks": 94,
          "midi": 36,
          "name": "C2",
          "ticks": 37632,
          "time": 87.111024,
          "velocity": 0.7874015748031497
        },
        {
          "duration": 0.2175923750000095,
          "durationTicks": 94,
          "midi": 49,
          "name": "C#3",
          "ticks": 37632,
          "time": 87.111024,
          "velocity": 0.7874015748031497
        },
        {
          "duration": 0.21759237499999529,
          "durationTicks": 94,
          "midi": 49,
          "name": "C#3",
          "ticks": 37824,
          "time": 87.555468,
          "velocity": 0.7874015748031497
        },
        {
          "duration": 0.21759237499999529,
          "durationTicks": 94,
          "midi": 36,
          "name": "C2",
          "ticks": 37824,
          "time": 87.555468,
          "velocity": 0.7874015748031497
        },
        {
          "duration": 0.2175923750000095,
          "durationTicks": 94,
          "midi": 49,
          "name": "C#3",
          "ticks": 38304,
          "time": 88.666578,
          "velocity": 0.7874015748031497
        },
        {
          "duration": 0.2175923750000095,
          "durationTicks": 94,
          "midi": 38,
          "name": "D2",
          "ticks": 38304,
          "time": 88.666578,
          "velocity": 0.7874015748031497
        },
        {
          "duration": 0.2175923750000095,
          "durationTicks": 94,
          "midi": 36,
          "name": "C2",
          "ticks": 38304,
          "time": 88.666578,
          "velocity": 0.7874015748031497
        },
        {
          "duration": 0.21759237499999529,
          "durationTicks": 94,
          "midi": 42,
          "name": "F#2",
          "ticks": 38400,
          "time": 88.8888,
          "velocity": 0.7874015748031497
        },
        {
          "duration": 0.21759237499999529,
          "durationTicks": 94,
          "midi": 42,
          "name": "F#2",
          "ticks": 38496,
          "time": 89.111022,
          "velocity": 0.7874015748031497
        },
        {
          "duration": 0.21759237499999529,
          "durationTicks": 94,
          "midi": 42,
          "name": "F#2",
          "ticks": 38592,
          "time": 89.33324400000001,
          "velocity": 0.7874015748031497
        },
        {
          "duration": 0.21759237499999529,
          "durationTicks": 94,
          "midi": 38,
          "name": "D2",
          "ticks": 38592,
          "time": 89.33324400000001,
          "velocity": 0.7874015748031497
        },
        {
          "duration": 0.21759237499999529,
          "durationTicks": 94,
          "midi": 36,
          "name": "C2",
          "ticks": 38592,
          "time": 89.33324400000001,
          "velocity": 0.7874015748031497
        },
        {
          "duration": 0.2175923750000095,
          "durationTicks": 94,
          "midi": 42,
          "name": "F#2",
          "ticks": 38688,
          "time": 89.555466,
          "velocity": 0.7874015748031497
        },
        {
          "duration": 0.2175923750000095,
          "durationTicks": 94,
          "midi": 42,
          "name": "F#2",
          "ticks": 38784,
          "time": 89.777688,
          "velocity": 0.7874015748031497
        },
        {
          "duration": 0.2175923750000095,
          "durationTicks": 94,
          "midi": 36,
          "name": "C2",
          "ticks": 38880,
          "time": 89.99991,
          "velocity": 0.7874015748031497
        },
        {
          "duration": 0.2175923750000095,
          "durationTicks": 94,
          "midi": 42,
          "name": "F#2",
          "ticks": 38880,
          "time": 89.99991,
          "velocity": 0.7874015748031497
        },
        {
          "duration": 0.2175923750000095,
          "durationTicks": 94,
          "midi": 38,
          "name": "D2",
          "ticks": 38880,
          "time": 89.99991,
          "velocity": 0.7874015748031497
        },
        {
          "duration": 0.2175923750000095,
          "durationTicks": 94,
          "midi": 42,
          "name": "F#2",
          "ticks": 38976,
          "time": 90.222132,
          "velocity": 0.7874015748031497
        },
        {
          "duration": 0.21759237499999529,
          "durationTicks": 94,
          "midi": 42,
          "name": "F#2",
          "ticks": 39072,
          "time": 90.444354,
          "velocity": 0.7874015748031497
        },
        {
          "duration": 0.21759237499999529,
          "durationTicks": 94,
          "midi": 36,
          "name": "C2",
          "ticks": 39168,
          "time": 90.666576,
          "velocity": 0.7874015748031497
        },
        {
          "duration": 0.21759237499999529,
          "durationTicks": 94,
          "midi": 38,
          "name": "D2",
          "ticks": 39168,
          "time": 90.666576,
          "velocity": 0.7874015748031497
        },
        {
          "duration": 0.21759237499999529,
          "durationTicks": 94,
          "midi": 42,
          "name": "F#2",
          "ticks": 39168,
          "time": 90.666576,
          "velocity": 0.7874015748031497
        },
        {
          "duration": 0.2175923750000095,
          "durationTicks": 94,
          "midi": 42,
          "name": "F#2",
          "ticks": 39264,
          "time": 90.888798,
          "velocity": 0.7874015748031497
        },
        {
          "duration": 0.2175923750000095,
          "durationTicks": 94,
          "midi": 36,
          "name": "C2",
          "ticks": 39360,
          "time": 91.11102,
          "velocity": 0.7874015748031497
        },
        {
          "duration": 0.2175923750000095,
          "durationTicks": 94,
          "midi": 49,
          "name": "C#3",
          "ticks": 39360,
          "time": 91.11102,
          "velocity": 0.7874015748031497
        },
        {
          "duration": 0.2175923750000095,
          "durationTicks": 94,
          "midi": 42,
          "name": "F#2",
          "ticks": 39456,
          "time": 91.333242,
          "velocity": 0.7874015748031497
        },
        {
          "duration": 0.2175923750000095,
          "durationTicks": 94,
          "midi": 42,
          "name": "F#2",
          "ticks": 39552,
          "time": 91.555464,
          "velocity": 0.7874015748031497
        },
        {
          "duration": 0.2175923750000095,
          "durationTicks": 94,
          "midi": 38,
          "name": "D2",
          "ticks": 39552,
          "time": 91.555464,
          "velocity": 0.7874015748031497
        },
        {
          "duration": 0.2175923750000095,
          "durationTicks": 94,
          "midi": 42,
          "name": "F#2",
          "ticks": 39648,
          "time": 91.777686,
          "velocity": 0.7874015748031497
        },
        {
          "duration": 0.21759237499999529,
          "durationTicks": 94,
          "midi": 42,
          "name": "F#2",
          "ticks": 39744,
          "time": 91.999908,
          "velocity": 0.7874015748031497
        },
        {
          "duration": 0.21759237499999529,
          "durationTicks": 94,
          "midi": 36,
          "name": "C2",
          "ticks": 39744,
          "time": 91.999908,
          "velocity": 0.7874015748031497
        },
        {
          "duration": 0.21759237499999529,
          "durationTicks": 94,
          "midi": 36,
          "name": "C2",
          "ticks": 39840,
          "time": 92.22213,
          "velocity": 0.7874015748031497
        },
        {
          "duration": 0.21759237499999529,
          "durationTicks": 94,
          "midi": 42,
          "name": "F#2",
          "ticks": 39840,
          "time": 92.22213,
          "velocity": 0.7874015748031497
        },
        {
          "duration": 0.2175923750000095,
          "durationTicks": 94,
          "midi": 38,
          "name": "D2",
          "ticks": 39936,
          "time": 92.444352,
          "velocity": 0.7874015748031497
        },
        {
          "duration": 0.2175923750000095,
          "durationTicks": 94,
          "midi": 42,
          "name": "F#2",
          "ticks": 39936,
          "time": 92.444352,
          "velocity": 0.7874015748031497
        },
        {
          "duration": 0.2175923750000095,
          "durationTicks": 94,
          "midi": 42,
          "name": "F#2",
          "ticks": 40032,
          "time": 92.666574,
          "velocity": 0.7874015748031497
        },
        {
          "duration": 0.2175923750000095,
          "durationTicks": 94,
          "midi": 36,
          "name": "C2",
          "ticks": 40128,
          "time": 92.888796,
          "velocity": 0.7874015748031497
        },
        {
          "duration": 0.10648137500000132,
          "durationTicks": 46,
          "midi": 38,
          "name": "D2",
          "ticks": 40128,
          "time": 92.888796,
          "velocity": 0.7874015748031497
        },
        {
          "duration": 0.10648137500000132,
          "durationTicks": 46,
          "midi": 38,
          "name": "D2",
          "ticks": 40176,
          "time": 92.99990700000001,
          "velocity": 0.7874015748031497
        },
        {
          "duration": 0.10648137500000132,
          "durationTicks": 46,
          "midi": 43,
          "name": "G2",
          "ticks": 40224,
          "time": 93.111018,
          "velocity": 0.7874015748031497
        },
        {
          "duration": 0.10648137500001553,
          "durationTicks": 46,
          "midi": 47,
          "name": "B2",
          "ticks": 40272,
          "time": 93.222129,
          "velocity": 0.7874015748031497
        },
        {
          "duration": 0.21759237499999529,
          "durationTicks": 94,
          "midi": 43,
          "name": "G2",
          "ticks": 40320,
          "time": 93.33324,
          "velocity": 0.7874015748031497
        },
        {
          "duration": 0.21759237499999529,
          "durationTicks": 94,
          "midi": 47,
          "name": "B2",
          "ticks": 40416,
          "time": 93.555462,
          "velocity": 0.7874015748031497
        },
        {
          "duration": 0.21759237499999529,
          "durationTicks": 94,
          "midi": 43,
          "name": "G2",
          "ticks": 40512,
          "time": 93.77768400000001,
          "velocity": 0.7874015748031497
        },
        {
          "duration": 0.2175923750000095,
          "durationTicks": 94,
          "midi": 43,
          "name": "G2",
          "ticks": 40608,
          "time": 93.999906,
          "velocity": 0.7874015748031497
        },
        {
          "duration": 0.2175923750000095,
          "durationTicks": 94,
          "midi": 43,
          "name": "G2",
          "ticks": 40704,
          "time": 94.222128,
          "velocity": 0.7874015748031497
        },
        {
          "duration": 0.2175923750000095,
          "durationTicks": 94,
          "midi": 49,
          "name": "C#3",
          "ticks": 40800,
          "time": 94.44435,
          "velocity": 0.7874015748031497
        },
        {
          "duration": 0.2175923750000095,
          "durationTicks": 94,
          "midi": 36,
          "name": "C2",
          "ticks": 40800,
          "time": 94.44435,
          "velocity": 0.7874015748031497
        },
        {
          "duration": 0.2175923750000095,
          "durationTicks": 94,
          "midi": 38,
          "name": "D2",
          "ticks": 40800,
          "time": 94.44435,
          "velocity": 0.7874015748031497
        },
        {
          "duration": 0.2175923750000095,
          "durationTicks": 94,
          "midi": 42,
          "name": "F#2",
          "ticks": 40896,
          "time": 94.666572,
          "velocity": 0.7874015748031497
        },
        {
          "duration": 0.21759237499999529,
          "durationTicks": 94,
          "midi": 42,
          "name": "F#2",
          "ticks": 40992,
          "time": 94.888794,
          "velocity": 0.7874015748031497
        },
        {
          "duration": 0.21759237499999529,
          "durationTicks": 94,
          "midi": 42,
          "name": "F#2",
          "ticks": 41088,
          "time": 95.111016,
          "velocity": 0.7874015748031497
        },
        {
          "duration": 0.21759237499999529,
          "durationTicks": 94,
          "midi": 38,
          "name": "D2",
          "ticks": 41088,
          "time": 95.111016,
          "velocity": 0.7874015748031497
        },
        {
          "duration": 0.21759237499999529,
          "durationTicks": 94,
          "midi": 36,
          "name": "C2",
          "ticks": 41088,
          "time": 95.111016,
          "velocity": 0.7874015748031497
        },
        {
          "duration": 0.2175923750000095,
          "durationTicks": 94,
          "midi": 42,
          "name": "F#2",
          "ticks": 41184,
          "time": 95.333238,
          "velocity": 0.7874015748031497
        },
        {
          "duration": 0.2175923750000095,
          "durationTicks": 94,
          "midi": 42,
          "name": "F#2",
          "ticks": 41280,
          "time": 95.55546,
          "velocity": 0.7874015748031497
        },
        {
          "duration": 0.2175923750000095,
          "durationTicks": 94,
          "midi": 36,
          "name": "C2",
          "ticks": 41376,
          "time": 95.777682,
          "velocity": 0.7874015748031497
        },
        {
          "duration": 0.2175923750000095,
          "durationTicks": 94,
          "midi": 38,
          "name": "D2",
          "ticks": 41376,
          "time": 95.777682,
          "velocity": 0.7874015748031497
        },
        {
          "duration": 0.2175923750000095,
          "durationTicks": 94,
          "midi": 42,
          "name": "F#2",
          "ticks": 41376,
          "time": 95.777682,
          "velocity": 0.7874015748031497
        },
        {
          "duration": 0.2175923750000095,
          "durationTicks": 94,
          "midi": 42,
          "name": "F#2",
          "ticks": 41472,
          "time": 95.999904,
          "velocity": 0.7874015748031497
        },
        {
          "duration": 0.2175923750000095,
          "durationTicks": 94,
          "midi": 42,
          "name": "F#2",
          "ticks": 41568,
          "time": 96.222126,
          "velocity": 0.7874015748031497
        },
        {
          "duration": 0.21759237499999529,
          "durationTicks": 94,
          "midi": 36,
          "name": "C2",
          "ticks": 41664,
          "time": 96.444348,
          "velocity": 0.7874015748031497
        },
        {
          "duration": 0.21759237499999529,
          "durationTicks": 94,
          "midi": 38,
          "name": "D2",
          "ticks": 41664,
          "time": 96.444348,
          "velocity": 0.7874015748031497
        },
        {
          "duration": 0.21759237499999529,
          "durationTicks": 94,
          "midi": 42,
          "name": "F#2",
          "ticks": 41664,
          "time": 96.444348,
          "velocity": 0.7874015748031497
        },
        {
          "duration": 0.21759237499999529,
          "durationTicks": 94,
          "midi": 42,
          "name": "F#2",
          "ticks": 41760,
          "time": 96.66657000000001,
          "velocity": 0.7874015748031497
        },
        {
          "duration": 0.2175923750000095,
          "durationTicks": 94,
          "midi": 49,
          "name": "C#3",
          "ticks": 41856,
          "time": 96.888792,
          "velocity": 0.7874015748031497
        },
        {
          "duration": 0.2175923750000095,
          "durationTicks": 94,
          "midi": 36,
          "name": "C2",
          "ticks": 41856,
          "time": 96.888792,
          "velocity": 0.7874015748031497
        },
        {
          "duration": 0.2175923750000095,
          "durationTicks": 94,
          "midi": 42,
          "name": "F#2",
          "ticks": 41952,
          "time": 97.111014,
          "velocity": 0.7874015748031497
        },
        {
          "duration": 0.2175923750000095,
          "durationTicks": 94,
          "midi": 42,
          "name": "F#2",
          "ticks": 42048,
          "time": 97.333236,
          "velocity": 0.7874015748031497
        },
        {
          "duration": 0.2175923750000095,
          "durationTicks": 94,
          "midi": 38,
          "name": "D2",
          "ticks": 42048,
          "time": 97.333236,
          "velocity": 0.7874015748031497
        },
        {
          "duration": 0.2175923750000095,
          "durationTicks": 94,
          "midi": 42,
          "name": "F#2",
          "ticks": 42144,
          "time": 97.555458,
          "velocity": 0.7874015748031497
        },
        {
          "duration": 0.21759237499999529,
          "durationTicks": 94,
          "midi": 42,
          "name": "F#2",
          "ticks": 42240,
          "time": 97.77768,
          "velocity": 0.7874015748031497
        },
        {
          "duration": 0.21759237499999529,
          "durationTicks": 94,
          "midi": 36,
          "name": "C2",
          "ticks": 42240,
          "time": 97.77768,
          "velocity": 0.7874015748031497
        },
        {
          "duration": 0.21759237499999529,
          "durationTicks": 94,
          "midi": 42,
          "name": "F#2",
          "ticks": 42336,
          "time": 97.999902,
          "velocity": 0.7874015748031497
        },
        {
          "duration": 0.21759237499999529,
          "durationTicks": 94,
          "midi": 36,
          "name": "C2",
          "ticks": 42336,
          "time": 97.999902,
          "velocity": 0.7874015748031497
        },
        {
          "duration": 0.21759237499999529,
          "durationTicks": 94,
          "midi": 42,
          "name": "F#2",
          "ticks": 42432,
          "time": 98.22212400000001,
          "velocity": 0.7874015748031497
        },
        {
          "duration": 0.21759237499999529,
          "durationTicks": 94,
          "midi": 38,
          "name": "D2",
          "ticks": 42432,
          "time": 98.22212400000001,
          "velocity": 0.7874015748031497
        },
        {
          "duration": 0.2175923750000095,
          "durationTicks": 94,
          "midi": 42,
          "name": "F#2",
          "ticks": 42528,
          "time": 98.444346,
          "velocity": 0.7874015748031497
        },
        {
          "duration": 0.2175923750000095,
          "durationTicks": 94,
          "midi": 36,
          "name": "C2",
          "ticks": 42624,
          "time": 98.666568,
          "velocity": 0.7874015748031497
        },
        {
          "duration": 0.10648137500000132,
          "durationTicks": 46,
          "midi": 38,
          "name": "D2",
          "ticks": 42624,
          "time": 98.666568,
          "velocity": 0.7874015748031497
        },
        {
          "duration": 0.10648137500000132,
          "durationTicks": 46,
          "midi": 47,
          "name": "B2",
          "ticks": 42672,
          "time": 98.777679,
          "velocity": 0.7874015748031497
        },
        {
          "duration": 0.10648137500000132,
          "durationTicks": 46,
          "midi": 47,
          "name": "B2",
          "ticks": 42720,
          "time": 98.88879,
          "velocity": 0.7874015748031497
        },
        {
          "duration": 0.10648137500000132,
          "durationTicks": 46,
          "midi": 47,
          "name": "B2",
          "ticks": 42768,
          "time": 98.99990100000001,
          "velocity": 0.7874015748031497
        },
        {
          "duration": 0.2175923750000095,
          "durationTicks": 94,
          "midi": 47,
          "name": "B2",
          "ticks": 42816,
          "time": 99.111012,
          "velocity": 0.7874015748031497
        },
        {
          "duration": 0.21759237499999529,
          "durationTicks": 94,
          "midi": 47,
          "name": "B2",
          "ticks": 42912,
          "time": 99.333234,
          "velocity": 0.7874015748031497
        },
        {
          "duration": 0.21759237499999529,
          "durationTicks": 94,
          "midi": 47,
          "name": "B2",
          "ticks": 43008,
          "time": 99.555456,
          "velocity": 0.7874015748031497
        },
        {
          "duration": 0.2175923750000095,
          "durationTicks": 94,
          "midi": 47,
          "name": "B2",
          "ticks": 43104,
          "time": 99.777678,
          "velocity": 0.7874015748031497
        },
        {
          "duration": 0.2175923750000095,
          "durationTicks": 94,
          "midi": 47,
          "name": "B2",
          "ticks": 43200,
          "time": 99.9999,
          "velocity": 0.7874015748031497
        },
        {
          "duration": 0.2175923750000095,
          "durationTicks": 94,
          "midi": 49,
          "name": "C#3",
          "ticks": 43296,
          "time": 100.222122,
          "velocity": 0.7874015748031497
        },
        {
          "duration": 0.2175923750000095,
          "durationTicks": 94,
          "midi": 38,
          "name": "D2",
          "ticks": 43296,
          "time": 100.222122,
          "velocity": 0.7874015748031497
        },
        {
          "duration": 0.2175923750000095,
          "durationTicks": 94,
          "midi": 36,
          "name": "C2",
          "ticks": 43296,
          "time": 100.222122,
          "velocity": 0.7874015748031497
        },
        {
          "duration": 0.2175923750000095,
          "durationTicks": 94,
          "midi": 42,
          "name": "F#2",
          "ticks": 43392,
          "time": 100.444344,
          "velocity": 0.7874015748031497
        },
        {
          "duration": 0.2175923750000095,
          "durationTicks": 94,
          "midi": 42,
          "name": "F#2",
          "ticks": 43488,
          "time": 100.666566,
          "velocity": 0.7874015748031497
        },
        {
          "duration": 0.21759237499999529,
          "durationTicks": 94,
          "midi": 38,
          "name": "D2",
          "ticks": 43584,
          "time": 100.888788,
          "velocity": 0.7874015748031497
        },
        {
          "duration": 0.21759237499999529,
          "durationTicks": 94,
          "midi": 42,
          "name": "F#2",
          "ticks": 43584,
          "time": 100.888788,
          "velocity": 0.7874015748031497
        },
        {
          "duration": 0.21759237499999529,
          "durationTicks": 94,
          "midi": 36,
          "name": "C2",
          "ticks": 43584,
          "time": 100.888788,
          "velocity": 0.7874015748031497
        },
        {
          "duration": 0.21759237499999529,
          "durationTicks": 94,
          "midi": 42,
          "name": "F#2",
          "ticks": 43680,
          "time": 101.11101000000001,
          "velocity": 0.7874015748031497
        },
        {
          "duration": 0.2175923750000095,
          "durationTicks": 94,
          "midi": 42,
          "name": "F#2",
          "ticks": 43776,
          "time": 101.333232,
          "velocity": 0.7874015748031497
        },
        {
          "duration": 0.2175923750000095,
          "durationTicks": 94,
          "midi": 38,
          "name": "D2",
          "ticks": 43872,
          "time": 101.555454,
          "velocity": 0.7874015748031497
        },
        {
          "duration": 0.2175923750000095,
          "durationTicks": 94,
          "midi": 42,
          "name": "F#2",
          "ticks": 43872,
          "time": 101.555454,
          "velocity": 0.7874015748031497
        },
        {
          "duration": 0.2175923750000095,
          "durationTicks": 94,
          "midi": 36,
          "name": "C2",
          "ticks": 43872,
          "time": 101.555454,
          "velocity": 0.7874015748031497
        },
        {
          "duration": 0.2175923750000095,
          "durationTicks": 94,
          "midi": 42,
          "name": "F#2",
          "ticks": 43968,
          "time": 101.777676,
          "velocity": 0.7874015748031497
        },
        {
          "duration": 0.2175923750000095,
          "durationTicks": 94,
          "midi": 42,
          "name": "F#2",
          "ticks": 44064,
          "time": 101.999898,
          "velocity": 0.7874015748031497
        },
        {
          "duration": 0.21759237499999529,
          "durationTicks": 94,
          "midi": 38,
          "name": "D2",
          "ticks": 44160,
          "time": 102.22212,
          "velocity": 0.7874015748031497
        },
        {
          "duration": 0.21759237499999529,
          "durationTicks": 94,
          "midi": 42,
          "name": "F#2",
          "ticks": 44160,
          "time": 102.22212,
          "velocity": 0.7874015748031497
        },
        {
          "duration": 0.21759237499999529,
          "durationTicks": 94,
          "midi": 36,
          "name": "C2",
          "ticks": 44160,
          "time": 102.22212,
          "velocity": 0.7874015748031497
        },
        {
          "duration": 0.21759237499999529,
          "durationTicks": 94,
          "midi": 42,
          "name": "F#2",
          "ticks": 44256,
          "time": 102.444342,
          "velocity": 0.7874015748031497
        },
        {
          "duration": 0.21759237499999529,
          "durationTicks": 94,
          "midi": 36,
          "name": "C2",
          "ticks": 44352,
          "time": 102.66656400000001,
          "velocity": 0.7874015748031497
        },
        {
          "duration": 0.21759237499999529,
          "durationTicks": 94,
          "midi": 49,
          "name": "C#3",
          "ticks": 44352,
          "time": 102.66656400000001,
          "velocity": 0.7874015748031497
        },
        {
          "duration": 0.2175923750000095,
          "durationTicks": 94,
          "midi": 42,
          "name": "F#2",
          "ticks": 44448,
          "time": 102.888786,
          "velocity": 0.7874015748031497
        },
        {
          "duration": 0.2175923750000095,
          "durationTicks": 94,
          "midi": 38,
          "name": "D2",
          "ticks": 44544,
          "time": 103.111008,
          "velocity": 0.7874015748031497
        },
        {
          "duration": 0.2175923750000095,
          "durationTicks": 94,
          "midi": 42,
          "name": "F#2",
          "ticks": 44544,
          "time": 103.111008,
          "velocity": 0.7874015748031497
        },
        {
          "duration": 0.2175923750000095,
          "durationTicks": 94,
          "midi": 42,
          "name": "F#2",
          "ticks": 44640,
          "time": 103.33323,
          "velocity": 0.7874015748031497
        },
        {
          "duration": 0.2175923750000095,
          "durationTicks": 94,
          "midi": 42,
          "name": "F#2",
          "ticks": 44736,
          "time": 103.555452,
          "velocity": 0.7874015748031497
        },
        {
          "duration": 0.2175923750000095,
          "durationTicks": 94,
          "midi": 36,
          "name": "C2",
          "ticks": 44736,
          "time": 103.555452,
          "velocity": 0.7874015748031497
        },
        {
          "duration": 0.21759237499999529,
          "durationTicks": 94,
          "midi": 36,
          "name": "C2",
          "ticks": 44832,
          "time": 103.777674,
          "velocity": 0.7874015748031497
        },
        {
          "duration": 0.21759237499999529,
          "durationTicks": 94,
          "midi": 42,
          "name": "F#2",
          "ticks": 44832,
          "time": 103.777674,
          "velocity": 0.7874015748031497
        },
        {
          "duration": 0.21759237499999529,
          "durationTicks": 94,
          "midi": 42,
          "name": "F#2",
          "ticks": 44928,
          "time": 103.999896,
          "velocity": 0.7874015748031497
        },
        {
          "duration": 0.21759237499999529,
          "durationTicks": 94,
          "midi": 38,
          "name": "D2",
          "ticks": 44928,
          "time": 103.999896,
          "velocity": 0.7874015748031497
        },
        {
          "duration": 0.2175923750000095,
          "durationTicks": 94,
          "midi": 42,
          "name": "F#2",
          "ticks": 45024,
          "time": 104.222118,
          "velocity": 0.7874015748031497
        },
        {
          "duration": 0.2175923750000095,
          "durationTicks": 94,
          "midi": 36,
          "name": "C2",
          "ticks": 45120,
          "time": 104.44434,
          "velocity": 0.7874015748031497
        },
        {
          "duration": 0.10648137500001553,
          "durationTicks": 46,
          "midi": 38,
          "name": "D2",
          "ticks": 45120,
          "time": 104.44434,
          "velocity": 0.7874015748031497
        },
        {
          "duration": 0.10648137500000132,
          "durationTicks": 46,
          "midi": 47,
          "name": "B2",
          "ticks": 45168,
          "time": 104.555451,
          "velocity": 0.7874015748031497
        },
        {
          "duration": 0.10648137500000132,
          "durationTicks": 46,
          "midi": 47,
          "name": "B2",
          "ticks": 45216,
          "time": 104.666562,
          "velocity": 0.7874015748031497
        },
        {
          "duration": 0.10648137500000132,
          "durationTicks": 46,
          "midi": 47,
          "name": "B2",
          "ticks": 45264,
          "time": 104.77767300000001,
          "velocity": 0.7874015748031497
        },
        {
          "duration": 0.2175923750000095,
          "durationTicks": 94,
          "midi": 47,
          "name": "B2",
          "ticks": 45312,
          "time": 104.888784,
          "velocity": 0.7874015748031497
        },
        {
          "duration": 0.21759237499999529,
          "durationTicks": 94,
          "midi": 47,
          "name": "B2",
          "ticks": 45408,
          "time": 105.111006,
          "velocity": 0.7874015748031497
        },
        {
          "duration": 0.21759237499999529,
          "durationTicks": 94,
          "midi": 47,
          "name": "B2",
          "ticks": 45504,
          "time": 105.333228,
          "velocity": 0.7874015748031497
        },
        {
          "duration": 0.21759237499999529,
          "durationTicks": 94,
          "midi": 47,
          "name": "B2",
          "ticks": 45600,
          "time": 105.55545000000001,
          "velocity": 0.7874015748031497
        },
        {
          "duration": 0.2175923750000095,
          "durationTicks": 94,
          "midi": 47,
          "name": "B2",
          "ticks": 45696,
          "time": 105.777672,
          "velocity": 0.7874015748031497
        },
        {
          "duration": 0.2175923750000095,
          "durationTicks": 94,
          "midi": 49,
          "name": "C#3",
          "ticks": 45792,
          "time": 105.999894,
          "velocity": 0.7874015748031497
        },
        {
          "duration": 0.2175923750000095,
          "durationTicks": 94,
          "midi": 36,
          "name": "C2",
          "ticks": 45792,
          "time": 105.999894,
          "velocity": 0.7874015748031497
        },
        {
          "duration": 0.2175923750000095,
          "durationTicks": 94,
          "midi": 38,
          "name": "D2",
          "ticks": 45792,
          "time": 105.999894,
          "velocity": 0.7874015748031497
        },
        {
          "duration": 0.2175923750000095,
          "durationTicks": 94,
          "midi": 42,
          "name": "F#2",
          "ticks": 45888,
          "time": 106.222116,
          "velocity": 0.7874015748031497
        },
        {
          "duration": 0.2175923750000095,
          "durationTicks": 94,
          "midi": 42,
          "name": "F#2",
          "ticks": 45984,
          "time": 106.444338,
          "velocity": 0.7874015748031497
        },
        {
          "duration": 0.21759237499999529,
          "durationTicks": 94,
          "midi": 42,
          "name": "F#2",
          "ticks": 46080,
          "time": 106.66656,
          "velocity": 0.7874015748031497
        },
        {
          "duration": 0.21759237499999529,
          "durationTicks": 94,
          "midi": 38,
          "name": "D2",
          "ticks": 46080,
          "time": 106.66656,
          "velocity": 0.7874015748031497
        },
        {
          "duration": 0.21759237499999529,
          "durationTicks": 94,
          "midi": 36,
          "name": "C2",
          "ticks": 46080,
          "time": 106.66656,
          "velocity": 0.7874015748031497
        },
        {
          "duration": 0.21759237499999529,
          "durationTicks": 94,
          "midi": 42,
          "name": "F#2",
          "ticks": 46176,
          "time": 106.888782,
          "velocity": 0.7874015748031497
        },
        {
          "duration": 0.21759237499999529,
          "durationTicks": 94,
          "midi": 42,
          "name": "F#2",
          "ticks": 46272,
          "time": 107.11100400000001,
          "velocity": 0.7874015748031497
        },
        {
          "duration": 0.2175923750000095,
          "durationTicks": 94,
          "midi": 36,
          "name": "C2",
          "ticks": 46368,
          "time": 107.333226,
          "velocity": 0.7874015748031497
        },
        {
          "duration": 0.2175923750000095,
          "durationTicks": 94,
          "midi": 38,
          "name": "D2",
          "ticks": 46368,
          "time": 107.333226,
          "velocity": 0.7874015748031497
        },
        {
          "duration": 0.2175923750000095,
          "durationTicks": 94,
          "midi": 42,
          "name": "F#2",
          "ticks": 46368,
          "time": 107.333226,
          "velocity": 0.7874015748031497
        },
        {
          "duration": 0.2175923750000095,
          "durationTicks": 94,
          "midi": 42,
          "name": "F#2",
          "ticks": 46464,
          "time": 107.555448,
          "velocity": 0.7874015748031497
        },
        {
          "duration": 0.2175923750000095,
          "durationTicks": 94,
          "midi": 42,
          "name": "F#2",
          "ticks": 46560,
          "time": 107.77767,
          "velocity": 0.7874015748031497
        },
        {
          "duration": 0.2175923750000095,
          "durationTicks": 94,
          "midi": 36,
          "name": "C2",
          "ticks": 46656,
          "time": 107.999892,
          "velocity": 0.7874015748031497
        },
        {
          "duration": 0.2175923750000095,
          "durationTicks": 94,
          "midi": 42,
          "name": "F#2",
          "ticks": 46656,
          "time": 107.999892,
          "velocity": 0.7874015748031497
        },
        {
          "duration": 0.2175923750000095,
          "durationTicks": 94,
          "midi": 38,
          "name": "D2",
          "ticks": 46656,
          "time": 107.999892,
          "velocity": 0.7874015748031497
        },
        {
          "duration": 0.21759237499999529,
          "durationTicks": 94,
          "midi": 42,
          "name": "F#2",
          "ticks": 46752,
          "time": 108.222114,
          "velocity": 0.7874015748031497
        },
        {
          "duration": 0.21759237499999529,
          "durationTicks": 94,
          "midi": 49,
          "name": "C#3",
          "ticks": 46848,
          "time": 108.444336,
          "velocity": 0.7874015748031497
        },
        {
          "duration": 0.21759237499999529,
          "durationTicks": 94,
          "midi": 36,
          "name": "C2",
          "ticks": 46848,
          "time": 108.444336,
          "velocity": 0.7874015748031497
        },
        {
          "duration": 0.2175923750000095,
          "durationTicks": 94,
          "midi": 42,
          "name": "F#2",
          "ticks": 46944,
          "time": 108.666558,
          "velocity": 0.7874015748031497
        },
        {
          "duration": 0.2175923750000095,
          "durationTicks": 94,
          "midi": 38,
          "name": "D2",
          "ticks": 47040,
          "time": 108.88878,
          "velocity": 0.7874015748031497
        },
        {
          "duration": 0.2175923750000095,
          "durationTicks": 94,
          "midi": 42,
          "name": "F#2",
          "ticks": 47040,
          "time": 108.88878,
          "velocity": 0.7874015748031497
        },
        {
          "duration": 0.2175923750000095,
          "durationTicks": 94,
          "midi": 42,
          "name": "F#2",
          "ticks": 47136,
          "time": 109.111002,
          "velocity": 0.7874015748031497
        },
        {
          "duration": 0.2175923750000095,
          "durationTicks": 94,
          "midi": 42,
          "name": "F#2",
          "ticks": 47232,
          "time": 109.333224,
          "velocity": 0.7874015748031497
        },
        {
          "duration": 0.2175923750000095,
          "durationTicks": 94,
          "midi": 36,
          "name": "C2",
          "ticks": 47232,
          "time": 109.333224,
          "velocity": 0.7874015748031497
        },
        {
          "duration": 0.21759237499999529,
          "durationTicks": 94,
          "midi": 36,
          "name": "C2",
          "ticks": 47328,
          "time": 109.555446,
          "velocity": 0.7874015748031497
        },
        {
          "duration": 0.21759237499999529,
          "durationTicks": 94,
          "midi": 42,
          "name": "F#2",
          "ticks": 47328,
          "time": 109.555446,
          "velocity": 0.7874015748031497
        },
        {
          "duration": 0.21759237499999529,
          "durationTicks": 94,
          "midi": 38,
          "name": "D2",
          "ticks": 47424,
          "time": 109.777668,
          "velocity": 0.7874015748031497
        },
        {
          "duration": 0.21759237499999529,
          "durationTicks": 94,
          "midi": 42,
          "name": "F#2",
          "ticks": 47424,
          "time": 109.777668,
          "velocity": 0.7874015748031497
        },
        {
          "duration": 0.21759237499999529,
          "durationTicks": 94,
          "midi": 42,
          "name": "F#2",
          "ticks": 47520,
          "time": 109.99989000000001,
          "velocity": 0.7874015748031497
        },
        {
          "duration": 0.2175923750000095,
          "durationTicks": 94,
          "midi": 36,
          "name": "C2",
          "ticks": 47616,
          "time": 110.222112,
          "velocity": 0.7874015748031497
        },
        {
          "duration": 0.10648137500001553,
          "durationTicks": 46,
          "midi": 38,
          "name": "D2",
          "ticks": 47616,
          "time": 110.222112,
          "velocity": 0.7874015748031497
        },
        {
          "duration": 0.10648137500000132,
          "durationTicks": 46,
          "midi": 47,
          "name": "B2",
          "ticks": 47664,
          "time": 110.333223,
          "velocity": 0.7874015748031497
        },
        {
          "duration": 0.10648137500000132,
          "durationTicks": 46,
          "midi": 47,
          "name": "B2",
          "ticks": 47712,
          "time": 110.444334,
          "velocity": 0.7874015748031497
        },
        {
          "duration": 0.10648137500000132,
          "durationTicks": 46,
          "midi": 47,
          "name": "B2",
          "ticks": 47760,
          "time": 110.555445,
          "velocity": 0.7874015748031497
        },
        {
          "duration": 0.2175923750000095,
          "durationTicks": 94,
          "midi": 47,
          "name": "B2",
          "ticks": 47808,
          "time": 110.666556,
          "velocity": 0.7874015748031497
        },
        {
          "duration": 0.2175923750000095,
          "durationTicks": 94,
          "midi": 47,
          "name": "B2",
          "ticks": 47904,
          "time": 110.888778,
          "velocity": 0.7874015748031497
        },
        {
          "duration": 0.21759237499999529,
          "durationTicks": 94,
          "midi": 47,
          "name": "B2",
          "ticks": 48000,
          "time": 111.111,
          "velocity": 0.7874015748031497
        },
        {
          "duration": 0.21759237499999529,
          "durationTicks": 94,
          "midi": 47,
          "name": "B2",
          "ticks": 48096,
          "time": 111.333222,
          "velocity": 0.7874015748031497
        },
        {
          "duration": 0.21759237499999529,
          "durationTicks": 94,
          "midi": 47,
          "name": "B2",
          "ticks": 48192,
          "time": 111.55544400000001,
          "velocity": 0.7874015748031497
        },
        {
          "duration": 0.2175923750000095,
          "durationTicks": 94,
          "midi": 36,
          "name": "C2",
          "ticks": 48288,
          "time": 111.777666,
          "velocity": 0.7874015748031497
        },
        {
          "duration": 0.2175923750000095,
          "durationTicks": 94,
          "midi": 38,
          "name": "D2",
          "ticks": 48288,
          "time": 111.777666,
          "velocity": 0.7874015748031497
        },
        {
          "duration": 0.2175923750000095,
          "durationTicks": 94,
          "midi": 49,
          "name": "C#3",
          "ticks": 48288,
          "time": 111.777666,
          "velocity": 0.7874015748031497
        },
        {
          "duration": 0.2175923750000095,
          "durationTicks": 94,
          "midi": 42,
          "name": "F#2",
          "ticks": 48384,
          "time": 111.999888,
          "velocity": 0.7874015748031497
        },
        {
          "duration": 0.2175923750000095,
          "durationTicks": 94,
          "midi": 42,
          "name": "F#2",
          "ticks": 48480,
          "time": 112.22211,
          "velocity": 0.7874015748031497
        },
        {
          "duration": 0.2175923750000095,
          "durationTicks": 94,
          "midi": 42,
          "name": "F#2",
          "ticks": 48576,
          "time": 112.444332,
          "velocity": 0.7874015748031497
        },
        {
          "duration": 0.2175923750000095,
          "durationTicks": 94,
          "midi": 38,
          "name": "D2",
          "ticks": 48576,
          "time": 112.444332,
          "velocity": 0.7874015748031497
        },
        {
          "duration": 0.2175923750000095,
          "durationTicks": 94,
          "midi": 36,
          "name": "C2",
          "ticks": 48576,
          "time": 112.444332,
          "velocity": 0.7874015748031497
        },
        {
          "duration": 0.21759237499999529,
          "durationTicks": 94,
          "midi": 42,
          "name": "F#2",
          "ticks": 48672,
          "time": 112.666554,
          "velocity": 0.7874015748031497
        },
        {
          "duration": 0.21759237499999529,
          "durationTicks": 94,
          "midi": 42,
          "name": "F#2",
          "ticks": 48768,
          "time": 112.88877600000001,
          "velocity": 0.7874015748031497
        },
        {
          "duration": 0.2175923750000095,
          "durationTicks": 94,
          "midi": 36,
          "name": "C2",
          "ticks": 48864,
          "time": 113.110998,
          "velocity": 0.7874015748031497
        },
        {
          "duration": 0.2175923750000095,
          "durationTicks": 94,
          "midi": 42,
          "name": "F#2",
          "ticks": 48864,
          "time": 113.110998,
          "velocity": 0.7874015748031497
        },
        {
          "duration": 0.2175923750000095,
          "durationTicks": 94,
          "midi": 38,
          "name": "D2",
          "ticks": 48864,
          "time": 113.110998,
          "velocity": 0.7874015748031497
        },
        {
          "duration": 0.2175923750000095,
          "durationTicks": 94,
          "midi": 42,
          "name": "F#2",
          "ticks": 48960,
          "time": 113.33322,
          "velocity": 0.7874015748031497
        },
        {
          "duration": 0.2175923750000095,
          "durationTicks": 94,
          "midi": 42,
          "name": "F#2",
          "ticks": 49056,
          "time": 113.555442,
          "velocity": 0.7874015748031497
        },
        {
          "duration": 0.21759237499999529,
          "durationTicks": 94,
          "midi": 36,
          "name": "C2",
          "ticks": 49152,
          "time": 113.777664,
          "velocity": 0.7874015748031497
        },
        {
          "duration": 0.21759237499999529,
          "durationTicks": 94,
          "midi": 38,
          "name": "D2",
          "ticks": 49152,
          "time": 113.777664,
          "velocity": 0.7874015748031497
        },
        {
          "duration": 0.21759237499999529,
          "durationTicks": 94,
          "midi": 42,
          "name": "F#2",
          "ticks": 49152,
          "time": 113.777664,
          "velocity": 0.7874015748031497
        },
        {
          "duration": 0.21759237499999529,
          "durationTicks": 94,
          "midi": 42,
          "name": "F#2",
          "ticks": 49248,
          "time": 113.999886,
          "velocity": 0.7874015748031497
        },
        {
          "duration": 0.21759237499998108,
          "durationTicks": 94,
          "midi": 36,
          "name": "C2",
          "ticks": 49344,
          "time": 114.222108,
          "velocity": 0.7874015748031497
        },
        {
          "duration": 0.21759237499998108,
          "durationTicks": 94,
          "midi": 49,
          "name": "C#3",
          "ticks": 49344,
          "time": 114.222108,
          "velocity": 0.7874015748031497
        },
        {
          "duration": 0.21759237499998108,
          "durationTicks": 94,
          "midi": 42,
          "name": "F#2",
          "ticks": 49440,
          "time": 114.44433000000001,
          "velocity": 0.7874015748031497
        },
        {
          "duration": 0.21759237499999529,
          "durationTicks": 94,
          "midi": 42,
          "name": "F#2",
          "ticks": 49536,
          "time": 114.666552,
          "velocity": 0.7874015748031497
        },
        {
          "duration": 0.21759237499999529,
          "durationTicks": 94,
          "midi": 38,
          "name": "D2",
          "ticks": 49536,
          "time": 114.666552,
          "velocity": 0.7874015748031497
        },
        {
          "duration": 0.21759237499999529,
          "durationTicks": 94,
          "midi": 42,
          "name": "F#2",
          "ticks": 49632,
          "time": 114.888774,
          "velocity": 0.7874015748031497
        },
        {
          "duration": 0.21759237499999529,
          "durationTicks": 94,
          "midi": 42,
          "name": "F#2",
          "ticks": 49728,
          "time": 115.110996,
          "velocity": 0.7874015748031497
        },
        {
          "duration": 0.21759237499999529,
          "durationTicks": 94,
          "midi": 36,
          "name": "C2",
          "ticks": 49728,
          "time": 115.110996,
          "velocity": 0.7874015748031497
        },
        {
          "duration": 0.21759237499999529,
          "durationTicks": 94,
          "midi": 36,
          "name": "C2",
          "ticks": 49824,
          "time": 115.333218,
          "velocity": 0.7874015748031497
        },
        {
          "duration": 0.21759237499999529,
          "durationTicks": 94,
          "midi": 42,
          "name": "F#2",
          "ticks": 49824,
          "time": 115.333218,
          "velocity": 0.7874015748031497
        },
        {
          "duration": 0.21759237499999529,
          "durationTicks": 94,
          "midi": 42,
          "name": "F#2",
          "ticks": 49920,
          "time": 115.55544,
          "velocity": 0.7874015748031497
        },
        {
          "duration": 0.21759237499999529,
          "durationTicks": 94,
          "midi": 38,
          "name": "D2",
          "ticks": 49920,
          "time": 115.55544,
          "velocity": 0.7874015748031497
        },
        {
          "duration": 0.21759237499998108,
          "durationTicks": 94,
          "midi": 42,
          "name": "F#2",
          "ticks": 50016,
          "time": 115.777662,
          "velocity": 0.7874015748031497
        },
        {
          "duration": 0.21759237499999529,
          "durationTicks": 94,
          "midi": 36,
          "name": "C2",
          "ticks": 50112,
          "time": 115.999884,
          "velocity": 0.7874015748031497
        },
        {
          "duration": 0.10648137500000132,
          "durationTicks": 46,
          "midi": 38,
          "name": "D2",
          "ticks": 50112,
          "time": 115.999884,
          "velocity": 0.7874015748031497
        },
        {
          "duration": 0.10648137499998711,
          "durationTicks": 46,
          "midi": 47,
          "name": "B2",
          "ticks": 50160,
          "time": 116.110995,
          "velocity": 0.7874015748031497
        },
        {
          "duration": 0.10648137500000132,
          "durationTicks": 46,
          "midi": 47,
          "name": "B2",
          "ticks": 50208,
          "time": 116.222106,
          "velocity": 0.7874015748031497
        },
        {
          "duration": 0.10648137499998711,
          "durationTicks": 46,
          "midi": 47,
          "name": "B2",
          "ticks": 50256,
          "time": 116.333217,
          "velocity": 0.7874015748031497
        },
        {
          "duration": 0.21759237499999529,
          "durationTicks": 94,
          "midi": 47,
          "name": "B2",
          "ticks": 50304,
          "time": 116.444328,
          "velocity": 0.7874015748031497
        },
        {
          "duration": 0.21759237499999529,
          "durationTicks": 94,
          "midi": 47,
          "name": "B2",
          "ticks": 50400,
          "time": 116.66655,
          "velocity": 0.7874015748031497
        },
        {
          "duration": 0.21759237499999529,
          "durationTicks": 94,
          "midi": 47,
          "name": "B2",
          "ticks": 50496,
          "time": 116.888772,
          "velocity": 0.7874015748031497
        },
        {
          "duration": 0.21759237499998108,
          "durationTicks": 94,
          "midi": 47,
          "name": "B2",
          "ticks": 50592,
          "time": 117.110994,
          "velocity": 0.7874015748031497
        },
        {
          "duration": 0.21759237499998108,
          "durationTicks": 94,
          "midi": 47,
          "name": "B2",
          "ticks": 50688,
          "time": 117.33321600000001,
          "velocity": 0.7874015748031497
        },
        {
          "duration": 0.21759237499999529,
          "durationTicks": 94,
          "midi": 36,
          "name": "C2",
          "ticks": 50784,
          "time": 117.555438,
          "velocity": 0.7874015748031497
        },
        {
          "duration": 0.21759237499999529,
          "durationTicks": 94,
          "midi": 49,
          "name": "C#3",
          "ticks": 50784,
          "time": 117.555438,
          "velocity": 0.7874015748031497
        },
        {
          "duration": 0.21759237499999529,
          "durationTicks": 94,
          "midi": 38,
          "name": "D2",
          "ticks": 50784,
          "time": 117.555438,
          "velocity": 0.7874015748031497
        },
        {
          "duration": 0.21759237499999529,
          "durationTicks": 94,
          "midi": 42,
          "name": "F#2",
          "ticks": 50880,
          "time": 117.77766,
          "velocity": 0.7874015748031497
        },
        {
          "duration": 0.21759237499999529,
          "durationTicks": 94,
          "midi": 42,
          "name": "F#2",
          "ticks": 50976,
          "time": 117.999882,
          "velocity": 0.7874015748031497
        },
        {
          "duration": 0.21759237499999529,
          "durationTicks": 94,
          "midi": 38,
          "name": "D2",
          "ticks": 51072,
          "time": 118.222104,
          "velocity": 0.7874015748031497
        },
        {
          "duration": 0.21759237499999529,
          "durationTicks": 94,
          "midi": 36,
          "name": "C2",
          "ticks": 51072,
          "time": 118.222104,
          "velocity": 0.7874015748031497
        },
        {
          "duration": 0.21759237499999529,
          "durationTicks": 94,
          "midi": 42,
          "name": "F#2",
          "ticks": 51072,
          "time": 118.222104,
          "velocity": 0.7874015748031497
        },
        {
          "duration": 0.21759237499999529,
          "durationTicks": 94,
          "midi": 42,
          "name": "F#2",
          "ticks": 51168,
          "time": 118.444326,
          "velocity": 0.7874015748031497
        },
        {
          "duration": 0.21759237499998108,
          "durationTicks": 94,
          "midi": 42,
          "name": "F#2",
          "ticks": 51264,
          "time": 118.666548,
          "velocity": 0.7874015748031497
        },
        {
          "duration": 0.21759237499998108,
          "durationTicks": 94,
          "midi": 36,
          "name": "C2",
          "ticks": 51360,
          "time": 118.88877000000001,
          "velocity": 0.7874015748031497
        },
        {
          "duration": 0.21759237499998108,
          "durationTicks": 94,
          "midi": 42,
          "name": "F#2",
          "ticks": 51360,
          "time": 118.88877000000001,
          "velocity": 0.7874015748031497
        },
        {
          "duration": 0.21759237499998108,
          "durationTicks": 94,
          "midi": 38,
          "name": "D2",
          "ticks": 51360,
          "time": 118.88877000000001,
          "velocity": 0.7874015748031497
        },
        {
          "duration": 0.21759237499999529,
          "durationTicks": 94,
          "midi": 42,
          "name": "F#2",
          "ticks": 51456,
          "time": 119.110992,
          "velocity": 0.7874015748031497
        },
        {
          "duration": 0.21759237499999529,
          "durationTicks": 94,
          "midi": 42,
          "name": "F#2",
          "ticks": 51552,
          "time": 119.333214,
          "velocity": 0.7874015748031497
        },
        {
          "duration": 0.21759237499999529,
          "durationTicks": 94,
          "midi": 36,
          "name": "C2",
          "ticks": 51648,
          "time": 119.555436,
          "velocity": 0.7874015748031497
        },
        {
          "duration": 0.21759237499999529,
          "durationTicks": 94,
          "midi": 38,
          "name": "D2",
          "ticks": 51648,
          "time": 119.555436,
          "velocity": 0.7874015748031497
        },
        {
          "duration": 0.21759237499999529,
          "durationTicks": 94,
          "midi": 42,
          "name": "F#2",
          "ticks": 51648,
          "time": 119.555436,
          "velocity": 0.7874015748031497
        },
        {
          "duration": 0.21759237499999529,
          "durationTicks": 94,
          "midi": 42,
          "name": "F#2",
          "ticks": 51744,
          "time": 119.777658,
          "velocity": 0.7874015748031497
        },
        {
          "duration": 0.21759237499999529,
          "durationTicks": 94,
          "midi": 36,
          "name": "C2",
          "ticks": 51840,
          "time": 119.99988,
          "velocity": 0.7874015748031497
        },
        {
          "duration": 0.21759237499999529,
          "durationTicks": 94,
          "midi": 49,
          "name": "C#3",
          "ticks": 51840,
          "time": 119.99988,
          "velocity": 0.7874015748031497
        },
        {
          "duration": 0.21759237499998108,
          "durationTicks": 94,
          "midi": 42,
          "name": "F#2",
          "ticks": 51936,
          "time": 120.222102,
          "velocity": 0.7874015748031497
        },
        {
          "duration": 0.21759237499999529,
          "durationTicks": 94,
          "midi": 38,
          "name": "D2",
          "ticks": 52032,
          "time": 120.444324,
          "velocity": 0.7874015748031497
        },
        {
          "duration": 0.21759237499999529,
          "durationTicks": 94,
          "midi": 42,
          "name": "F#2",
          "ticks": 52032,
          "time": 120.444324,
          "velocity": 0.7874015748031497
        },
        {
          "duration": 0.21759237499999529,
          "durationTicks": 94,
          "midi": 42,
          "name": "F#2",
          "ticks": 52128,
          "time": 120.666546,
          "velocity": 0.7874015748031497
        },
        {
          "duration": 0.21759237499999529,
          "durationTicks": 94,
          "midi": 42,
          "name": "F#2",
          "ticks": 52224,
          "time": 120.888768,
          "velocity": 0.7874015748031497
        },
        {
          "duration": 0.21759237499999529,
          "durationTicks": 94,
          "midi": 36,
          "name": "C2",
          "ticks": 52224,
          "time": 120.888768,
          "velocity": 0.7874015748031497
        },
        {
          "duration": 0.21759237499999529,
          "durationTicks": 94,
          "midi": 42,
          "name": "F#2",
          "ticks": 52320,
          "time": 121.11099,
          "velocity": 0.7874015748031497
        },
        {
          "duration": 0.21759237499999529,
          "durationTicks": 94,
          "midi": 42,
          "name": "F#2",
          "ticks": 52416,
          "time": 121.333212,
          "velocity": 0.7874015748031497
        },
        {
          "duration": 0.21759237499999529,
          "durationTicks": 94,
          "midi": 38,
          "name": "D2",
          "ticks": 52416,
          "time": 121.333212,
          "velocity": 0.7874015748031497
        },
        {
          "duration": 0.21759237499998108,
          "durationTicks": 94,
          "midi": 42,
          "name": "F#2",
          "ticks": 52512,
          "time": 121.555434,
          "velocity": 0.7874015748031497
        },
        {
          "duration": 0.21759237499998108,
          "durationTicks": 94,
          "midi": 36,
          "name": "C2",
          "ticks": 52608,
          "time": 121.77765600000001,
          "velocity": 0.7874015748031497
        },
        {
          "duration": 0.21759237499998108,
          "durationTicks": 94,
          "midi": 42,
          "name": "F#2",
          "ticks": 52608,
          "time": 121.77765600000001,
          "velocity": 0.7874015748031497
        },
        {
          "duration": 0.21759237499999529,
          "durationTicks": 94,
          "midi": 42,
          "name": "F#2",
          "ticks": 52704,
          "time": 121.999878,
          "velocity": 0.7874015748031497
        },
        {
          "duration": 0.21759237499999529,
          "durationTicks": 94,
          "midi": 42,
          "name": "F#2",
          "ticks": 52800,
          "time": 122.2221,
          "velocity": 0.7874015748031497
        },
        {
          "duration": 0.21759237499999529,
          "durationTicks": 94,
          "midi": 38,
          "name": "D2",
          "ticks": 52800,
          "time": 122.2221,
          "velocity": 0.7874015748031497
        },
        {
          "duration": 0.21759237499999529,
          "durationTicks": 94,
          "midi": 42,
          "name": "F#2",
          "ticks": 52896,
          "time": 122.444322,
          "velocity": 0.7874015748031497
        },
        {
          "duration": 0.21759237499999529,
          "durationTicks": 94,
          "midi": 36,
          "name": "C2",
          "ticks": 52992,
          "time": 122.666544,
          "velocity": 0.7874015748031497
        },
        {
          "duration": 0.10648137499998711,
          "durationTicks": 46,
          "midi": 47,
          "name": "B2",
          "ticks": 52992,
          "time": 122.666544,
          "velocity": 0.7874015748031497
        },
        {
          "duration": 0.10648137500000132,
          "durationTicks": 46,
          "midi": 47,
          "name": "B2",
          "ticks": 53040,
          "time": 122.777655,
          "velocity": 0.7874015748031497
        },
        {
          "duration": 0.10648137499998711,
          "durationTicks": 46,
          "midi": 47,
          "name": "B2",
          "ticks": 53088,
          "time": 122.888766,
          "velocity": 0.7874015748031497
        },
        {
          "duration": 0.10648137500000132,
          "durationTicks": 46,
          "midi": 47,
          "name": "B2",
          "ticks": 53136,
          "time": 122.999877,
          "velocity": 0.7874015748031497
        },
        {
          "duration": 0.10648137499998711,
          "durationTicks": 46,
          "midi": 43,
          "name": "G2",
          "ticks": 53184,
          "time": 123.110988,
          "velocity": 0.7874015748031497
        },
        {
          "duration": 0.10648137499998711,
          "durationTicks": 46,
          "midi": 43,
          "name": "G2",
          "ticks": 53232,
          "time": 123.222099,
          "velocity": 0.7874015748031497
        },
        {
          "duration": 0.21759237499998108,
          "durationTicks": 94,
          "midi": 43,
          "name": "G2",
          "ticks": 53280,
          "time": 123.33321000000001,
          "velocity": 0.7874015748031497
        },
        {
          "duration": 0.21759237499999529,
          "durationTicks": 94,
          "midi": 49,
          "name": "C#3",
          "ticks": 53376,
          "time": 123.555432,
          "velocity": 0.7874015748031497
        },
        {
          "duration": 0.21759237499999529,
          "durationTicks": 94,
          "midi": 36,
          "name": "C2",
          "ticks": 53376,
          "time": 123.555432,
          "velocity": 0.7874015748031497
        },
        {
          "duration": 0.21759237499999529,
          "durationTicks": 94,
          "midi": 42,
          "name": "F#2",
          "ticks": 53472,
          "time": 123.777654,
          "velocity": 0.7874015748031497
        },
        {
          "duration": 0.21759237499999529,
          "durationTicks": 94,
          "midi": 42,
          "name": "F#2",
          "ticks": 53568,
          "time": 123.999876,
          "velocity": 0.7874015748031497
        },
        {
          "duration": 0.21759237499999529,
          "durationTicks": 94,
          "midi": 38,
          "name": "D2",
          "ticks": 53568,
          "time": 123.999876,
          "velocity": 0.7874015748031497
        },
        {
          "duration": 0.21759237499999529,
          "durationTicks": 94,
          "midi": 42,
          "name": "F#2",
          "ticks": 53664,
          "time": 124.222098,
          "velocity": 0.7874015748031497
        },
        {
          "duration": 0.21759237499999529,
          "durationTicks": 94,
          "midi": 36,
          "name": "C2",
          "ticks": 53760,
          "time": 124.44432,
          "velocity": 0.7874015748031497
        },
        {
          "duration": 0.21759237499999529,
          "durationTicks": 94,
          "midi": 42,
          "name": "F#2",
          "ticks": 53760,
          "time": 124.44432,
          "velocity": 0.7874015748031497
        },
        {
          "duration": 0.21759237499998108,
          "durationTicks": 94,
          "midi": 36,
          "name": "C2",
          "ticks": 53856,
          "time": 124.666542,
          "velocity": 0.7874015748031497
        },
        {
          "duration": 0.21759237499998108,
          "durationTicks": 94,
          "midi": 42,
          "name": "F#2",
          "ticks": 53856,
          "time": 124.666542,
          "velocity": 0.7874015748031497
        },
        {
          "duration": 0.21759237499999529,
          "durationTicks": 94,
          "midi": 38,
          "name": "D2",
          "ticks": 53952,
          "time": 124.888764,
          "velocity": 0.7874015748031497
        },
        {
          "duration": 0.21759237499999529,
          "durationTicks": 94,
          "midi": 42,
          "name": "F#2",
          "ticks": 53952,
          "time": 124.888764,
          "velocity": 0.7874015748031497
        },
        {
          "duration": 0.21759237499999529,
          "durationTicks": 94,
          "midi": 42,
          "name": "F#2",
          "ticks": 54048,
          "time": 125.110986,
          "velocity": 0.7874015748031497
        },
        {
          "duration": 0.21759237499999529,
          "durationTicks": 94,
          "midi": 36,
          "name": "C2",
          "ticks": 54144,
          "time": 125.333208,
          "velocity": 0.7874015748031497
        },
        {
          "duration": 0.21759237499999529,
          "durationTicks": 94,
          "midi": 42,
          "name": "F#2",
          "ticks": 54144,
          "time": 125.333208,
          "velocity": 0.7874015748031497
        },
        {
          "duration": 0.21759237499999529,
          "durationTicks": 94,
          "midi": 42,
          "name": "F#2",
          "ticks": 54240,
          "time": 125.55543,
          "velocity": 0.7874015748031497
        },
        {
          "duration": 0.21759237499999529,
          "durationTicks": 94,
          "midi": 42,
          "name": "F#2",
          "ticks": 54336,
          "time": 125.777652,
          "velocity": 0.7874015748031497
        },
        {
          "duration": 0.21759237499999529,
          "durationTicks": 94,
          "midi": 38,
          "name": "D2",
          "ticks": 54336,
          "time": 125.777652,
          "velocity": 0.7874015748031497
        },
        {
          "duration": 0.21759237499998108,
          "durationTicks": 94,
          "midi": 42,
          "name": "F#2",
          "ticks": 54432,
          "time": 125.999874,
          "velocity": 0.7874015748031497
        },
        {
          "duration": 0.10648137499998711,
          "durationTicks": 46,
          "midi": 47,
          "name": "B2",
          "ticks": 54528,
          "time": 126.22209600000001,
          "velocity": 0.7874015748031497
        },
        {
          "duration": 0.21759237499998108,
          "durationTicks": 94,
          "midi": 36,
          "name": "C2",
          "ticks": 54528,
          "time": 126.22209600000001,
          "velocity": 0.7874015748031497
        },
        {
          "duration": 0.10648137499998711,
          "durationTicks": 46,
          "midi": 47,
          "name": "B2",
          "ticks": 54576,
          "time": 126.333207,
          "velocity": 0.7874015748031497
        },
        {
          "duration": 0.10648137500000132,
          "durationTicks": 46,
          "midi": 47,
          "name": "B2",
          "ticks": 54624,
          "time": 126.444318,
          "velocity": 0.7874015748031497
        },
        {
          "duration": 0.10648137499998711,
          "durationTicks": 46,
          "midi": 47,
          "name": "B2",
          "ticks": 54672,
          "time": 126.555429,
          "velocity": 0.7874015748031497
        },
        {
          "duration": 0.10648137500000132,
          "durationTicks": 46,
          "midi": 47,
          "name": "B2",
          "ticks": 54720,
          "time": 126.66654,
          "velocity": 0.7874015748031497
        },
        {
          "duration": 0.10648137499998711,
          "durationTicks": 46,
          "midi": 47,
          "name": "B2",
          "ticks": 54768,
          "time": 126.777651,
          "velocity": 0.7874015748031497
        },
        {
          "duration": 0.21759237499999529,
          "durationTicks": 94,
          "midi": 47,
          "name": "B2",
          "ticks": 54816,
          "time": 126.888762,
          "velocity": 0.7874015748031497
        },
        {
          "duration": 0.21759237499999529,
          "durationTicks": 94,
          "midi": 36,
          "name": "C2",
          "ticks": 54912,
          "time": 127.110984,
          "velocity": 0.7874015748031497
        },
        {
          "duration": 0.21759237499999529,
          "durationTicks": 94,
          "midi": 49,
          "name": "C#3",
          "ticks": 54912,
          "time": 127.110984,
          "velocity": 0.7874015748031497
        },
        {
          "duration": 0.21759237499999529,
          "durationTicks": 94,
          "midi": 42,
          "name": "F#2",
          "ticks": 55008,
          "time": 127.333206,
          "velocity": 0.7874015748031497
        },
        {
          "duration": 0.21759237499998108,
          "durationTicks": 94,
          "midi": 42,
          "name": "F#2",
          "ticks": 55104,
          "time": 127.555428,
          "velocity": 0.7874015748031497
        },
        {
          "duration": 0.21759237499998108,
          "durationTicks": 94,
          "midi": 38,
          "name": "D2",
          "ticks": 55104,
          "time": 127.555428,
          "velocity": 0.7874015748031497
        },
        {
          "duration": 0.21759237499998108,
          "durationTicks": 94,
          "midi": 42,
          "name": "F#2",
          "ticks": 55200,
          "time": 127.77765000000001,
          "velocity": 0.7874015748031497
        },
        {
          "duration": 0.21759237499999529,
          "durationTicks": 94,
          "midi": 36,
          "name": "C2",
          "ticks": 55296,
          "time": 127.999872,
          "velocity": 0.7874015748031497
        },
        {
          "duration": 0.21759237499999529,
          "durationTicks": 94,
          "midi": 42,
          "name": "F#2",
          "ticks": 55296,
          "time": 127.999872,
          "velocity": 0.7874015748031497
        },
        {
          "duration": 0.21759237499998108,
          "durationTicks": 94,
          "midi": 42,
          "name": "F#2",
          "ticks": 55392,
          "time": 128.222094,
          "velocity": 0.7874015748031497
        },
        {
          "duration": 0.21759237499998108,
          "durationTicks": 94,
          "midi": 36,
          "name": "C2",
          "ticks": 55392,
          "time": 128.222094,
          "velocity": 0.7874015748031497
        },
        {
          "duration": 0.21759237499998108,
          "durationTicks": 94,
          "midi": 42,
          "name": "F#2",
          "ticks": 55488,
          "time": 128.44431600000001,
          "velocity": 0.7874015748031497
        },
        {
          "duration": 0.21759237499998108,
          "durationTicks": 94,
          "midi": 38,
          "name": "D2",
          "ticks": 55488,
          "time": 128.44431600000001,
          "velocity": 0.7874015748031497
        },
        {
          "duration": 0.21759237499998108,
          "durationTicks": 94,
          "midi": 42,
          "name": "F#2",
          "ticks": 55584,
          "time": 128.666538,
          "velocity": 0.7874015748031497
        },
        {
          "duration": 0.2175923750000095,
          "durationTicks": 94,
          "midi": 49,
          "name": "C#3",
          "ticks": 55680,
          "time": 128.88876,
          "velocity": 0.7874015748031497
        },
        {
          "duration": 0.2175923750000095,
          "durationTicks": 94,
          "midi": 36,
          "name": "C2",
          "ticks": 55680,
          "time": 128.88876,
          "velocity": 0.7874015748031497
        },
        {
          "duration": 0.21759237499998108,
          "durationTicks": 94,
          "midi": 42,
          "name": "F#2",
          "ticks": 55776,
          "time": 129.110982,
          "velocity": 0.7874015748031497
        },
        {
          "duration": 0.2175923750000095,
          "durationTicks": 94,
          "midi": 42,
          "name": "F#2",
          "ticks": 55872,
          "time": 129.333204,
          "velocity": 0.7874015748031497
        },
        {
          "duration": 0.2175923750000095,
          "durationTicks": 94,
          "midi": 38,
          "name": "D2",
          "ticks": 55872,
          "time": 129.333204,
          "velocity": 0.7874015748031497
        },
        {
          "duration": 0.21759237499998108,
          "durationTicks": 94,
          "midi": 42,
          "name": "F#2",
          "ticks": 55968,
          "time": 129.555426,
          "velocity": 0.7874015748031497
        },
        {
          "duration": 0.21759237499998108,
          "durationTicks": 94,
          "midi": 36,
          "name": "C2",
          "ticks": 55968,
          "time": 129.555426,
          "velocity": 0.7874015748031497
        },
        {
          "duration": 0.21759237499998108,
          "durationTicks": 94,
          "midi": 42,
          "name": "F#2",
          "ticks": 56064,
          "time": 129.777648,
          "velocity": 0.7874015748031497
        },
        {
          "duration": 0.21759237499998108,
          "durationTicks": 94,
          "midi": 36,
          "name": "C2",
          "ticks": 56160,
          "time": 129.99987000000002,
          "velocity": 0.7874015748031497
        },
        {
          "duration": 0.21759237499998108,
          "durationTicks": 94,
          "midi": 42,
          "name": "F#2",
          "ticks": 56160,
          "time": 129.99987000000002,
          "velocity": 0.7874015748031497
        },
        {
          "duration": 0.21759237499998108,
          "durationTicks": 94,
          "midi": 42,
          "name": "F#2",
          "ticks": 56256,
          "time": 130.222092,
          "velocity": 0.7874015748031497
        },
        {
          "duration": 0.21759237499998108,
          "durationTicks": 94,
          "midi": 38,
          "name": "D2",
          "ticks": 56256,
          "time": 130.222092,
          "velocity": 0.7874015748031497
        },
        {
          "duration": 0.2175923750000095,
          "durationTicks": 94,
          "midi": 42,
          "name": "F#2",
          "ticks": 56352,
          "time": 130.444314,
          "velocity": 0.7874015748031497
        },
        {
          "duration": 0.21759237499998108,
          "durationTicks": 94,
          "midi": 42,
          "name": "F#2",
          "ticks": 56448,
          "time": 130.666536,
          "velocity": 0.7874015748031497
        },
        {
          "duration": 0.21759237499998108,
          "durationTicks": 94,
          "midi": 36,
          "name": "C2",
          "ticks": 56448,
          "time": 130.666536,
          "velocity": 0.7874015748031497
        },
        {
          "duration": 0.2175923750000095,
          "durationTicks": 94,
          "midi": 42,
          "name": "F#2",
          "ticks": 56544,
          "time": 130.888758,
          "velocity": 0.7874015748031497
        },
        {
          "duration": 0.21759237499998108,
          "durationTicks": 94,
          "midi": 38,
          "name": "D2",
          "ticks": 56640,
          "time": 131.11098,
          "velocity": 0.7874015748031497
        },
        {
          "duration": 0.21759237499998108,
          "durationTicks": 94,
          "midi": 42,
          "name": "F#2",
          "ticks": 56640,
          "time": 131.11098,
          "velocity": 0.7874015748031497
        },
        {
          "duration": 0.21759237499998108,
          "durationTicks": 94,
          "midi": 42,
          "name": "F#2",
          "ticks": 56736,
          "time": 131.333202,
          "velocity": 0.7874015748031497
        },
        {
          "duration": 0.21759237499998108,
          "durationTicks": 94,
          "midi": 36,
          "name": "C2",
          "ticks": 56736,
          "time": 131.333202,
          "velocity": 0.7874015748031497
        },
        {
          "duration": 0.2175923750000095,
          "durationTicks": 94,
          "midi": 42,
          "name": "F#2",
          "ticks": 56832,
          "time": 131.555424,
          "velocity": 0.7874015748031497
        },
        {
          "duration": 0.21759237499998108,
          "durationTicks": 94,
          "midi": 42,
          "name": "F#2",
          "ticks": 56928,
          "time": 131.777646,
          "velocity": 0.7874015748031497
        },
        {
          "duration": 0.21759237499998108,
          "durationTicks": 94,
          "midi": 36,
          "name": "C2",
          "ticks": 56928,
          "time": 131.777646,
          "velocity": 0.7874015748031497
        },
        {
          "duration": 0.2175923750000095,
          "durationTicks": 94,
          "midi": 42,
          "name": "F#2",
          "ticks": 57024,
          "time": 131.999868,
          "velocity": 0.7874015748031497
        },
        {
          "duration": 0.2175923750000095,
          "durationTicks": 94,
          "midi": 38,
          "name": "D2",
          "ticks": 57024,
          "time": 131.999868,
          "velocity": 0.7874015748031497
        },
        {
          "duration": 0.21759237499998108,
          "durationTicks": 94,
          "midi": 42,
          "name": "F#2",
          "ticks": 57120,
          "time": 132.22209,
          "velocity": 0.7874015748031497
        },
        {
          "duration": 0.2175923750000095,
          "durationTicks": 94,
          "midi": 36,
          "name": "C2",
          "ticks": 57216,
          "time": 132.444312,
          "velocity": 0.7874015748031497
        },
        {
          "duration": 0.2175923750000095,
          "durationTicks": 94,
          "midi": 42,
          "name": "F#2",
          "ticks": 57216,
          "time": 132.444312,
          "velocity": 0.7874015748031497
        },
        {
          "duration": 0.21759237499998108,
          "durationTicks": 94,
          "midi": 42,
          "name": "F#2",
          "ticks": 57312,
          "time": 132.666534,
          "velocity": 0.7874015748031497
        },
        {
          "duration": 0.21759237499998108,
          "durationTicks": 94,
          "midi": 42,
          "name": "F#2",
          "ticks": 57408,
          "time": 132.888756,
          "velocity": 0.7874015748031497
        },
        {
          "duration": 0.21759237499998108,
          "durationTicks": 94,
          "midi": 38,
          "name": "D2",
          "ticks": 57408,
          "time": 132.888756,
          "velocity": 0.7874015748031497
        },
        {
          "duration": 0.2175923750000095,
          "durationTicks": 94,
          "midi": 42,
          "name": "F#2",
          "ticks": 57504,
          "time": 133.110978,
          "velocity": 0.7874015748031497
        },
        {
          "duration": 0.2175923750000095,
          "durationTicks": 94,
          "midi": 36,
          "name": "C2",
          "ticks": 57504,
          "time": 133.110978,
          "velocity": 0.7874015748031497
        },
        {
          "duration": 0.21759237499998108,
          "durationTicks": 94,
          "midi": 42,
          "name": "F#2",
          "ticks": 57600,
          "time": 133.3332,
          "velocity": 0.7874015748031497
        },
        {
          "duration": 0.2175923750000095,
          "durationTicks": 94,
          "midi": 42,
          "name": "F#2",
          "ticks": 57696,
          "time": 133.555422,
          "velocity": 0.7874015748031497
        },
        {
          "duration": 0.2175923750000095,
          "durationTicks": 94,
          "midi": 36,
          "name": "C2",
          "ticks": 57696,
          "time": 133.555422,
          "velocity": 0.7874015748031497
        },
        {
          "duration": 0.21759237499998108,
          "durationTicks": 94,
          "midi": 38,
          "name": "D2",
          "ticks": 57792,
          "time": 133.777644,
          "velocity": 0.7874015748031497
        },
        {
          "duration": 0.21759237499998108,
          "durationTicks": 94,
          "midi": 42,
          "name": "F#2",
          "ticks": 57792,
          "time": 133.777644,
          "velocity": 0.7874015748031497
        },
        {
          "duration": 0.2175923750000095,
          "durationTicks": 94,
          "midi": 42,
          "name": "F#2",
          "ticks": 57888,
          "time": 133.999866,
          "velocity": 0.7874015748031497
        },
        {
          "duration": 0.21759237499998108,
          "durationTicks": 94,
          "midi": 36,
          "name": "C2",
          "ticks": 57984,
          "time": 134.222088,
          "velocity": 0.7874015748031497
        },
        {
          "duration": 0.21759237499998108,
          "durationTicks": 94,
          "midi": 42,
          "name": "F#2",
          "ticks": 57984,
          "time": 134.222088,
          "velocity": 0.7874015748031497
        },
        {
          "duration": 0.21759237499998108,
          "durationTicks": 94,
          "midi": 42,
          "name": "F#2",
          "ticks": 58080,
          "time": 134.44431,
          "velocity": 0.7874015748031497
        },
        {
          "duration": 0.2175923750000095,
          "durationTicks": 94,
          "midi": 42,
          "name": "F#2",
          "ticks": 58176,
          "time": 134.666532,
          "velocity": 0.7874015748031497
        },
        {
          "duration": 0.2175923750000095,
          "durationTicks": 94,
          "midi": 38,
          "name": "D2",
          "ticks": 58176,
          "time": 134.666532,
          "velocity": 0.7874015748031497
        },
        {
          "duration": 0.21759237499998108,
          "durationTicks": 94,
          "midi": 42,
          "name": "F#2",
          "ticks": 58272,
          "time": 134.888754,
          "velocity": 0.7874015748031497
        },
        {
          "duration": 0.21759237499998108,
          "durationTicks": 94,
          "midi": 36,
          "name": "C2",
          "ticks": 58272,
          "time": 134.888754,
          "velocity": 0.7874015748031497
        },
        {
          "duration": 0.2175923750000095,
          "durationTicks": 94,
          "midi": 42,
          "name": "F#2",
          "ticks": 58368,
          "time": 135.110976,
          "velocity": 0.7874015748031497
        },
        {
          "duration": 0.21759237499998108,
          "durationTicks": 94,
          "midi": 42,
          "name": "F#2",
          "ticks": 58464,
          "time": 135.333198,
          "velocity": 0.7874015748031497
        },
        {
          "duration": 0.21759237499998108,
          "durationTicks": 94,
          "midi": 36,
          "name": "C2",
          "ticks": 58464,
          "time": 135.333198,
          "velocity": 0.7874015748031497
        },
        {
          "duration": 0.2175923750000095,
          "durationTicks": 94,
          "midi": 38,
          "name": "D2",
          "ticks": 58560,
          "time": 135.55542,
          "velocity": 0.7874015748031497
        },
        {
          "duration": 0.2175923750000095,
          "durationTicks": 94,
          "midi": 42,
          "name": "F#2",
          "ticks": 58560,
          "time": 135.55542,
          "velocity": 0.7874015748031497
        },
        {
          "duration": 0.21759237499998108,
          "durationTicks": 94,
          "midi": 42,
          "name": "F#2",
          "ticks": 58656,
          "time": 135.77764200000001,
          "velocity": 0.7874015748031497
        },
        {
          "duration": 0.21759237499998108,
          "durationTicks": 94,
          "midi": 36,
          "name": "C2",
          "ticks": 58752,
          "time": 135.999864,
          "velocity": 0.7874015748031497
        },
        {
          "duration": 0.21759237499998108,
          "durationTicks": 94,
          "midi": 42,
          "name": "F#2",
          "ticks": 58752,
          "time": 135.999864,
          "velocity": 0.7874015748031497
        },
        {
          "duration": 0.2175923750000095,
          "durationTicks": 94,
          "midi": 42,
          "name": "F#2",
          "ticks": 58848,
          "time": 136.222086,
          "velocity": 0.7874015748031497
        },
        {
          "duration": 0.21759237499998108,
          "durationTicks": 94,
          "midi": 38,
          "name": "D2",
          "ticks": 58944,
          "time": 136.444308,
          "velocity": 0.7874015748031497
        },
        {
          "duration": 0.21759237499998108,
          "durationTicks": 94,
          "midi": 42,
          "name": "F#2",
          "ticks": 58944,
          "time": 136.444308,
          "velocity": 0.7874015748031497
        },
        {
          "duration": 0.2175923750000095,
          "durationTicks": 94,
          "midi": 42,
          "name": "F#2",
          "ticks": 59040,
          "time": 136.66653,
          "velocity": 0.7874015748031497
        },
        {
          "duration": 0.2175923750000095,
          "durationTicks": 94,
          "midi": 36,
          "name": "C2",
          "ticks": 59040,
          "time": 136.66653,
          "velocity": 0.7874015748031497
        },
        {
          "duration": 0.21759237499998108,
          "durationTicks": 94,
          "midi": 42,
          "name": "F#2",
          "ticks": 59136,
          "time": 136.888752,
          "velocity": 0.7874015748031497
        },
        {
          "duration": 0.21759237499998108,
          "durationTicks": 94,
          "midi": 36,
          "name": "C2",
          "ticks": 59232,
          "time": 137.110974,
          "velocity": 0.7874015748031497
        },
        {
          "duration": 0.21759237499998108,
          "durationTicks": 94,
          "midi": 42,
          "name": "F#2",
          "ticks": 59232,
          "time": 137.110974,
          "velocity": 0.7874015748031497
        },
        {
          "duration": 0.21759237499998108,
          "durationTicks": 94,
          "midi": 42,
          "name": "F#2",
          "ticks": 59328,
          "time": 137.33319600000002,
          "velocity": 0.7874015748031497
        },
        {
          "duration": 0.21759237499998108,
          "durationTicks": 94,
          "midi": 38,
          "name": "D2",
          "ticks": 59328,
          "time": 137.33319600000002,
          "velocity": 0.7874015748031497
        },
        {
          "duration": 0.21759237499998108,
          "durationTicks": 94,
          "midi": 42,
          "name": "F#2",
          "ticks": 59424,
          "time": 137.555418,
          "velocity": 0.7874015748031497
        },
        {
          "duration": 0.2175923750000095,
          "durationTicks": 94,
          "midi": 42,
          "name": "F#2",
          "ticks": 59520,
          "time": 137.77764,
          "velocity": 0.7874015748031497
        },
        {
          "duration": 0.2175923750000095,
          "durationTicks": 94,
          "midi": 36,
          "name": "C2",
          "ticks": 59520,
          "time": 137.77764,
          "velocity": 0.7874015748031497
        },
        {
          "duration": 0.21759237499998108,
          "durationTicks": 94,
          "midi": 42,
          "name": "F#2",
          "ticks": 59616,
          "time": 137.999862,
          "velocity": 0.7874015748031497
        },
        {
          "duration": 0.2175923750000095,
          "durationTicks": 94,
          "midi": 38,
          "name": "D2",
          "ticks": 59712,
          "time": 138.222084,
          "velocity": 0.7874015748031497
        },
        {
          "duration": 0.2175923750000095,
          "durationTicks": 94,
          "midi": 42,
          "name": "F#2",
          "ticks": 59712,
          "time": 138.222084,
          "velocity": 0.7874015748031497
        },
        {
          "duration": 0.21759237499998108,
          "durationTicks": 94,
          "midi": 36,
          "name": "C2",
          "ticks": 59808,
          "time": 138.444306,
          "velocity": 0.7874015748031497
        },
        {
          "duration": 0.21759237499998108,
          "durationTicks": 94,
          "midi": 42,
          "name": "F#2",
          "ticks": 59808,
          "time": 138.444306,
          "velocity": 0.7874015748031497
        },
        {
          "duration": 0.21759237499998108,
          "durationTicks": 94,
          "midi": 42,
          "name": "F#2",
          "ticks": 59904,
          "time": 138.666528,
          "velocity": 0.7874015748031497
        },
        {
          "duration": 0.21759237499998108,
          "durationTicks": 94,
          "midi": 42,
          "name": "F#2",
          "ticks": 60000,
          "time": 138.88875000000002,
          "velocity": 0.7874015748031497
        },
        {
          "duration": 0.21759237499998108,
          "durationTicks": 94,
          "midi": 36,
          "name": "C2",
          "ticks": 60000,
          "time": 138.88875000000002,
          "velocity": 0.7874015748031497
        },
        {
          "duration": 0.21759237499998108,
          "durationTicks": 94,
          "midi": 38,
          "name": "D2",
          "ticks": 60096,
          "time": 139.110972,
          "velocity": 0.7874015748031497
        },
        {
          "duration": 0.21759237499998108,
          "durationTicks": 94,
          "midi": 42,
          "name": "F#2",
          "ticks": 60096,
          "time": 139.110972,
          "velocity": 0.7874015748031497
        },
        {
          "duration": 0.2175923750000095,
          "durationTicks": 94,
          "midi": 42,
          "name": "F#2",
          "ticks": 60192,
          "time": 139.333194,
          "velocity": 0.7874015748031497
        },
        {
          "duration": 0.21759237499998108,
          "durationTicks": 94,
          "midi": 42,
          "name": "F#2",
          "ticks": 60288,
          "time": 139.555416,
          "velocity": 0.7874015748031497
        },
        {
          "duration": 0.21759237499998108,
          "durationTicks": 94,
          "midi": 36,
          "name": "C2",
          "ticks": 60288,
          "time": 139.555416,
          "velocity": 0.7874015748031497
        },
        {
          "duration": 0.2175923750000095,
          "durationTicks": 94,
          "midi": 42,
          "name": "F#2",
          "ticks": 60384,
          "time": 139.777638,
          "velocity": 0.7874015748031497
        },
        {
          "duration": 0.21759237499998108,
          "durationTicks": 94,
          "midi": 38,
          "name": "D2",
          "ticks": 60480,
          "time": 139.99986,
          "velocity": 0.7874015748031497
        },
        {
          "duration": 0.21759237499998108,
          "durationTicks": 94,
          "midi": 42,
          "name": "F#2",
          "ticks": 60480,
          "time": 139.99986,
          "velocity": 0.7874015748031497
        },
        {
          "duration": 0.21759237499998108,
          "durationTicks": 94,
          "midi": 42,
          "name": "F#2",
          "ticks": 60576,
          "time": 140.222082,
          "velocity": 0.7874015748031497
        },
        {
          "duration": 0.21759237499998108,
          "durationTicks": 94,
          "midi": 36,
          "name": "C2",
          "ticks": 60576,
          "time": 140.222082,
          "velocity": 0.7874015748031497
        },
        {
          "duration": 0.2175923750000095,
          "durationTicks": 94,
          "midi": 42,
          "name": "F#2",
          "ticks": 60672,
          "time": 140.444304,
          "velocity": 0.7874015748031497
        },
        {
          "duration": 0.21759237499998108,
          "durationTicks": 94,
          "midi": 42,
          "name": "F#2",
          "ticks": 60768,
          "time": 140.666526,
          "velocity": 0.7874015748031497
        },
        {
          "duration": 0.21759237499998108,
          "durationTicks": 94,
          "midi": 36,
          "name": "C2",
          "ticks": 60768,
          "time": 140.666526,
          "velocity": 0.7874015748031497
        },
        {
          "duration": 0.2175923750000095,
          "durationTicks": 94,
          "midi": 38,
          "name": "D2",
          "ticks": 60864,
          "time": 140.888748,
          "velocity": 0.7874015748031497
        },
        {
          "duration": 0.2175923750000095,
          "durationTicks": 94,
          "midi": 42,
          "name": "F#2",
          "ticks": 60864,
          "time": 140.888748,
          "velocity": 0.7874015748031497
        },
        {
          "duration": 0.21759237499998108,
          "durationTicks": 94,
          "midi": 42,
          "name": "F#2",
          "ticks": 60960,
          "time": 141.11097,
          "velocity": 0.7874015748031497
        },
        {
          "duration": 0.2175923750000095,
          "durationTicks": 94,
          "midi": 36,
          "name": "C2",
          "ticks": 61056,
          "time": 141.333192,
          "velocity": 0.7874015748031497
        },
        {
          "duration": 0.2175923750000095,
          "durationTicks": 94,
          "midi": 42,
          "name": "F#2",
          "ticks": 61056,
          "time": 141.333192,
          "velocity": 0.7874015748031497
        },
        {
          "duration": 0.21759237499998108,
          "durationTicks": 94,
          "midi": 42,
          "name": "F#2",
          "ticks": 61152,
          "time": 141.555414,
          "velocity": 0.7874015748031497
        },
        {
          "duration": 0.21759237499998108,
          "durationTicks": 94,
          "midi": 38,
          "name": "D2",
          "ticks": 61248,
          "time": 141.777636,
          "velocity": 0.7874015748031497
        },
        {
          "duration": 0.21759237499998108,
          "durationTicks": 94,
          "midi": 42,
          "name": "F#2",
          "ticks": 61248,
          "time": 141.777636,
          "velocity": 0.7874015748031497
        },
        {
          "duration": 0.2175923750000095,
          "durationTicks": 94,
          "midi": 42,
          "name": "F#2",
          "ticks": 61344,
          "time": 141.999858,
          "velocity": 0.7874015748031497
        },
        {
          "duration": 0.2175923750000095,
          "durationTicks": 94,
          "midi": 36,
          "name": "C2",
          "ticks": 61344,
          "time": 141.999858,
          "velocity": 0.7874015748031497
        },
        {
          "duration": 0.21759237499998108,
          "durationTicks": 94,
          "midi": 42,
          "name": "F#2",
          "ticks": 61440,
          "time": 142.22208,
          "velocity": 0.7874015748031497
        },
        {
          "duration": 0.2175923750000095,
          "durationTicks": 94,
          "midi": 42,
          "name": "F#2",
          "ticks": 61536,
          "time": 142.444302,
          "velocity": 0.7874015748031497
        },
        {
          "duration": 0.2175923750000095,
          "durationTicks": 94,
          "midi": 36,
          "name": "C2",
          "ticks": 61536,
          "time": 142.444302,
          "velocity": 0.7874015748031497
        },
        {
          "duration": 0.21759237499998108,
          "durationTicks": 94,
          "midi": 38,
          "name": "D2",
          "ticks": 61632,
          "time": 142.666524,
          "velocity": 0.7874015748031497
        },
        {
          "duration": 0.21759237499998108,
          "durationTicks": 94,
          "midi": 42,
          "name": "F#2",
          "ticks": 61632,
          "time": 142.666524,
          "velocity": 0.7874015748031497
        },
        {
          "duration": 0.2175923750000095,
          "durationTicks": 94,
          "midi": 42,
          "name": "F#2",
          "ticks": 61728,
          "time": 142.888746,
          "velocity": 0.7874015748031497
        },
        {
          "duration": 0.21759237499998108,
          "durationTicks": 94,
          "midi": 36,
          "name": "C2",
          "ticks": 61824,
          "time": 143.110968,
          "velocity": 0.7874015748031497
        },
        {
          "duration": 0.21759237499998108,
          "durationTicks": 94,
          "midi": 42,
          "name": "F#2",
          "ticks": 61824,
          "time": 143.110968,
          "velocity": 0.7874015748031497
        },
        {
          "duration": 0.21759237499998108,
          "durationTicks": 94,
          "midi": 42,
          "name": "F#2",
          "ticks": 61920,
          "time": 143.33319,
          "velocity": 0.7874015748031497
        },
        {
          "duration": 0.2175923750000095,
          "durationTicks": 94,
          "midi": 42,
          "name": "F#2",
          "ticks": 62016,
          "time": 143.555412,
          "velocity": 0.7874015748031497
        },
        {
          "duration": 0.2175923750000095,
          "durationTicks": 94,
          "midi": 38,
          "name": "D2",
          "ticks": 62016,
          "time": 143.555412,
          "velocity": 0.7874015748031497
        },
        {
          "duration": 0.21759237499998108,
          "durationTicks": 94,
          "midi": 36,
          "name": "C2",
          "ticks": 62112,
          "time": 143.777634,
          "velocity": 0.7874015748031497
        },
        {
          "duration": 0.21759237499998108,
          "durationTicks": 94,
          "midi": 42,
          "name": "F#2",
          "ticks": 62112,
          "time": 143.777634,
          "velocity": 0.7874015748031497
        },
        {
          "duration": 0.2175923750000095,
          "durationTicks": 94,
          "midi": 42,
          "name": "F#2",
          "ticks": 62208,
          "time": 143.999856,
          "velocity": 0.7874015748031497
        },
        {
          "duration": 0.21759237499998108,
          "durationTicks": 94,
          "midi": 42,
          "name": "F#2",
          "ticks": 62304,
          "time": 144.222078,
          "velocity": 0.7874015748031497
        },
        {
          "duration": 0.21759237499998108,
          "durationTicks": 94,
          "midi": 36,
          "name": "C2",
          "ticks": 62304,
          "time": 144.222078,
          "velocity": 0.7874015748031497
        },
        {
          "duration": 0.21759237499998108,
          "durationTicks": 94,
          "midi": 42,
          "name": "F#2",
          "ticks": 62400,
          "time": 144.4443,
          "velocity": 0.7874015748031497
        },
        {
          "duration": 0.21759237499998108,
          "durationTicks": 94,
          "midi": 38,
          "name": "D2",
          "ticks": 62400,
          "time": 144.4443,
          "velocity": 0.7874015748031497
        },
        {
          "duration": 0.21759237499998108,
          "durationTicks": 94,
          "midi": 42,
          "name": "F#2",
          "ticks": 62496,
          "time": 144.66652200000001,
          "velocity": 0.7874015748031497
        },
        {
          "duration": 0.21759237499998108,
          "durationTicks": 94,
          "midi": 36,
          "name": "C2",
          "ticks": 62496,
          "time": 144.66652200000001,
          "velocity": 0.7874015748031497
        },
        {
          "duration": 0.21759237499998108,
          "durationTicks": 94,
          "midi": 42,
          "name": "F#2",
          "ticks": 62592,
          "time": 144.888744,
          "velocity": 0.7874015748031497
        },
        {
          "duration": 0.21759237499998108,
          "durationTicks": 94,
          "midi": 36,
          "name": "C2",
          "ticks": 62592,
          "time": 144.888744,
          "velocity": 0.7874015748031497
        },
        {
          "duration": 0.2175923750000095,
          "durationTicks": 94,
          "midi": 42,
          "name": "F#2",
          "ticks": 62688,
          "time": 145.110966,
          "velocity": 0.7874015748031497
        },
        {
          "duration": 0.21759237499998108,
          "durationTicks": 94,
          "midi": 42,
          "name": "F#2",
          "ticks": 62784,
          "time": 145.333188,
          "velocity": 0.7874015748031497
        },
        {
          "duration": 0.21759237499998108,
          "durationTicks": 94,
          "midi": 38,
          "name": "D2",
          "ticks": 62784,
          "time": 145.333188,
          "velocity": 0.7874015748031497
        },
        {
          "duration": 0.2175923750000095,
          "durationTicks": 94,
          "midi": 36,
          "name": "C2",
          "ticks": 62880,
          "time": 145.55541,
          "velocity": 0.7874015748031497
        },
        {
          "duration": 0.2175923750000095,
          "durationTicks": 94,
          "midi": 42,
          "name": "F#2",
          "ticks": 62880,
          "time": 145.55541,
          "velocity": 0.7874015748031497
        },
        {
          "duration": 0.21759237499998108,
          "durationTicks": 94,
          "midi": 42,
          "name": "F#2",
          "ticks": 62976,
          "time": 145.777632,
          "velocity": 0.7874015748031497
        },
        {
          "duration": 0.21759237499998108,
          "durationTicks": 94,
          "midi": 36,
          "name": "C2",
          "ticks": 63072,
          "time": 145.999854,
          "velocity": 0.7874015748031497
        },
        {
          "duration": 0.21759237499998108,
          "durationTicks": 94,
          "midi": 42,
          "name": "F#2",
          "ticks": 63072,
          "time": 145.999854,
          "velocity": 0.7874015748031497
        },
        {
          "duration": 0.21759237499998108,
          "durationTicks": 94,
          "midi": 42,
          "name": "F#2",
          "ticks": 63168,
          "time": 146.22207600000002,
          "velocity": 0.7874015748031497
        },
        {
          "duration": 0.21759237499998108,
          "durationTicks": 94,
          "midi": 38,
          "name": "D2",
          "ticks": 63168,
          "time": 146.22207600000002,
          "velocity": 0.7874015748031497
        },
        {
          "duration": 0.21759237499998108,
          "durationTicks": 94,
          "midi": 36,
          "name": "C2",
          "ticks": 63264,
          "time": 146.444298,
          "velocity": 0.7874015748031497
        },
        {
          "duration": 0.21759237499998108,
          "durationTicks": 94,
          "midi": 42,
          "name": "F#2",
          "ticks": 63264,
          "time": 146.444298,
          "velocity": 0.7874015748031497
        },
        {
          "duration": 0.2175923750000095,
          "durationTicks": 94,
          "midi": 42,
          "name": "F#2",
          "ticks": 63360,
          "time": 146.66652,
          "velocity": 0.7874015748031497
        },
        {
          "duration": 0.2175923750000095,
          "durationTicks": 94,
          "midi": 36,
          "name": "C2",
          "ticks": 63360,
          "time": 146.66652,
          "velocity": 0.7874015748031497
        },
        {
          "duration": 0.21759237499998108,
          "durationTicks": 94,
          "midi": 42,
          "name": "F#2",
          "ticks": 63456,
          "time": 146.888742,
          "velocity": 0.7874015748031497
        },
        {
          "duration": 0.2175923750000095,
          "durationTicks": 94,
          "midi": 42,
          "name": "F#2",
          "ticks": 63552,
          "time": 147.110964,
          "velocity": 0.7874015748031497
        },
        {
          "duration": 0.2175923750000095,
          "durationTicks": 94,
          "midi": 38,
          "name": "D2",
          "ticks": 63552,
          "time": 147.110964,
          "velocity": 0.7874015748031497
        },
        {
          "duration": 0.21759237499998108,
          "durationTicks": 94,
          "midi": 36,
          "name": "C2",
          "ticks": 63648,
          "time": 147.333186,
          "velocity": 0.7874015748031497
        },
        {
          "duration": 0.21759237499998108,
          "durationTicks": 94,
          "midi": 42,
          "name": "F#2",
          "ticks": 63648,
          "time": 147.333186,
          "velocity": 0.7874015748031497
        },
        {
          "duration": 0.21759237499998108,
          "durationTicks": 94,
          "midi": 42,
          "name": "F#2",
          "ticks": 63744,
          "time": 147.555408,
          "velocity": 0.7874015748031497
        },
        {
          "duration": 0.2175923750000095,
          "durationTicks": 94,
          "midi": 36,
          "name": "C2",
          "ticks": 63840,
          "time": 147.77763,
          "velocity": 0.7874015748031497
        },
        {
          "duration": 0.2175923750000095,
          "durationTicks": 94,
          "midi": 42,
          "name": "F#2",
          "ticks": 63840,
          "time": 147.77763,
          "velocity": 0.7874015748031497
        },
        {
          "duration": 0.21759237499998108,
          "durationTicks": 94,
          "midi": 42,
          "name": "F#2",
          "ticks": 63936,
          "time": 147.999852,
          "velocity": 0.7874015748031497
        },
        {
          "duration": 0.21759237499998108,
          "durationTicks": 94,
          "midi": 38,
          "name": "D2",
          "ticks": 63936,
          "time": 147.999852,
          "velocity": 0.7874015748031497
        },
        {
          "duration": 0.2175923750000095,
          "durationTicks": 94,
          "midi": 42,
          "name": "F#2",
          "ticks": 64032,
          "time": 148.222074,
          "velocity": 0.7874015748031497
        },
        {
          "duration": 0.21759237499998108,
          "durationTicks": 94,
          "midi": 36,
          "name": "C2",
          "ticks": 64128,
          "time": 148.444296,
          "velocity": 0.7874015748031497
        },
        {
          "duration": 0.21759237499998108,
          "durationTicks": 94,
          "midi": 42,
          "name": "F#2",
          "ticks": 64128,
          "time": 148.444296,
          "velocity": 0.7874015748031497
        },
        {
          "duration": 0.2175923750000095,
          "durationTicks": 94,
          "midi": 42,
          "name": "F#2",
          "ticks": 64224,
          "time": 148.666518,
          "velocity": 0.7874015748031497
        },
        {
          "duration": 0.21759237499998108,
          "durationTicks": 94,
          "midi": 42,
          "name": "F#2",
          "ticks": 64320,
          "time": 148.88874,
          "velocity": 0.7874015748031497
        },
        {
          "duration": 0.21759237499998108,
          "durationTicks": 94,
          "midi": 38,
          "name": "D2",
          "ticks": 64320,
          "time": 148.88874,
          "velocity": 0.7874015748031497
        },
        {
          "duration": 0.21759237499998108,
          "durationTicks": 94,
          "midi": 36,
          "name": "C2",
          "ticks": 64416,
          "time": 149.110962,
          "velocity": 0.7874015748031497
        },
        {
          "duration": 0.21759237499998108,
          "durationTicks": 94,
          "midi": 42,
          "name": "F#2",
          "ticks": 64416,
          "time": 149.110962,
          "velocity": 0.7874015748031497
        },
        {
          "duration": 0.2175923750000095,
          "durationTicks": 94,
          "midi": 42,
          "name": "F#2",
          "ticks": 64512,
          "time": 149.333184,
          "velocity": 0.7874015748031497
        },
        {
          "duration": 0.21759237499998108,
          "durationTicks": 94,
          "midi": 36,
          "name": "C2",
          "ticks": 64608,
          "time": 149.555406,
          "velocity": 0.7874015748031497
        },
        {
          "duration": 0.21759237499998108,
          "durationTicks": 94,
          "midi": 42,
          "name": "F#2",
          "ticks": 64608,
          "time": 149.555406,
          "velocity": 0.7874015748031497
        },
        {
          "duration": 0.2175923750000095,
          "durationTicks": 94,
          "midi": 38,
          "name": "D2",
          "ticks": 64704,
          "time": 149.777628,
          "velocity": 0.7874015748031497
        },
        {
          "duration": 0.2175923750000095,
          "durationTicks": 94,
          "midi": 42,
          "name": "F#2",
          "ticks": 64704,
          "time": 149.777628,
          "velocity": 0.7874015748031497
        },
        {
          "duration": 0.21759237499998108,
          "durationTicks": 94,
          "midi": 42,
          "name": "F#2",
          "ticks": 64800,
          "time": 149.99985,
          "velocity": 0.7874015748031497
        },
        {
          "duration": 0.2175923750000095,
          "durationTicks": 94,
          "midi": 42,
          "name": "F#2",
          "ticks": 64896,
          "time": 150.222072,
          "velocity": 0.7874015748031497
        },
        {
          "duration": 0.2175923750000095,
          "durationTicks": 94,
          "midi": 36,
          "name": "C2",
          "ticks": 64896,
          "time": 150.222072,
          "velocity": 0.7874015748031497
        },
        {
          "duration": 0.21759237499998108,
          "durationTicks": 94,
          "midi": 42,
          "name": "F#2",
          "ticks": 64992,
          "time": 150.444294,
          "velocity": 0.7874015748031497
        },
        {
          "duration": 0.21759237499998108,
          "durationTicks": 94,
          "midi": 38,
          "name": "D2",
          "ticks": 65088,
          "time": 150.666516,
          "velocity": 0.7874015748031497
        },
        {
          "duration": 0.21759237499998108,
          "durationTicks": 94,
          "midi": 42,
          "name": "F#2",
          "ticks": 65088,
          "time": 150.666516,
          "velocity": 0.7874015748031497
        },
        {
          "duration": 0.2175923750000095,
          "durationTicks": 94,
          "midi": 42,
          "name": "F#2",
          "ticks": 65184,
          "time": 150.888738,
          "velocity": 0.7874015748031497
        },
        {
          "duration": 0.21759237499998108,
          "durationTicks": 94,
          "midi": 42,
          "name": "F#2",
          "ticks": 65280,
          "time": 151.11096,
          "velocity": 0.7874015748031497
        },
        {
          "duration": 0.2175923750000095,
          "durationTicks": 94,
          "midi": 42,
          "name": "F#2",
          "ticks": 65376,
          "time": 151.333182,
          "velocity": 0.7874015748031497
        },
        {
          "duration": 0.21759237499998108,
          "durationTicks": 94,
          "midi": 42,
          "name": "F#2",
          "ticks": 65472,
          "time": 151.555404,
          "velocity": 0.7874015748031497
        },
        {
          "duration": 0.21759237499998108,
          "durationTicks": 94,
          "midi": 38,
          "name": "D2",
          "ticks": 65472,
          "time": 151.555404,
          "velocity": 0.7874015748031497
        },
        {
          "duration": 0.2175923750000095,
          "durationTicks": 94,
          "midi": 36,
          "name": "C2",
          "ticks": 65568,
          "time": 151.777626,
          "velocity": 0.7874015748031497
        },
        {
          "duration": 0.2175923750000095,
          "durationTicks": 94,
          "midi": 38,
          "name": "D2",
          "ticks": 65568,
          "time": 151.777626,
          "velocity": 0.7874015748031497
        },
        {
          "duration": 0.2175923750000095,
          "durationTicks": 94,
          "midi": 42,
          "name": "F#2",
          "ticks": 65568,
          "time": 151.777626,
          "velocity": 0.7874015748031497
        },
        {
          "duration": 0.21759237499998108,
          "durationTicks": 94,
          "midi": 38,
          "name": "D2",
          "ticks": 65664,
          "time": 151.99984800000001,
          "velocity": 0.7874015748031497
        },
        {
          "duration": 0.21759237499998108,
          "durationTicks": 94,
          "midi": 42,
          "name": "F#2",
          "ticks": 65664,
          "time": 151.99984800000001,
          "velocity": 0.7874015748031497
        },
        {
          "duration": 0.21759237499998108,
          "durationTicks": 94,
          "midi": 36,
          "name": "C2",
          "ticks": 65664,
          "time": 151.99984800000001,
          "velocity": 0.7874015748031497
        },
        {
          "duration": 0.21759237499998108,
          "durationTicks": 94,
          "midi": 42,
          "name": "F#2",
          "ticks": 65760,
          "time": 152.22207,
          "velocity": 0.7874015748031497
        },
        {
          "duration": 0.2175923750000095,
          "durationTicks": 94,
          "midi": 42,
          "name": "F#2",
          "ticks": 65856,
          "time": 152.444292,
          "velocity": 0.7874015748031497
        },
        {
          "duration": 0.21759237499998108,
          "durationTicks": 94,
          "midi": 38,
          "name": "D2",
          "ticks": 65952,
          "time": 152.666514,
          "velocity": 0.7874015748031497
        },
        {
          "duration": 0.21759237499998108,
          "durationTicks": 94,
          "midi": 42,
          "name": "F#2",
          "ticks": 65952,
          "time": 152.666514,
          "velocity": 0.7874015748031497
        },
        {
          "duration": 0.21759237499998108,
          "durationTicks": 94,
          "midi": 36,
          "name": "C2",
          "ticks": 65952,
          "time": 152.666514,
          "velocity": 0.7874015748031497
        },
        {
          "duration": 0.2175923750000095,
          "durationTicks": 94,
          "midi": 42,
          "name": "F#2",
          "ticks": 66048,
          "time": 152.888736,
          "velocity": 0.7874015748031497
        },
        {
          "duration": 0.21759237499998108,
          "durationTicks": 94,
          "midi": 42,
          "name": "F#2",
          "ticks": 66144,
          "time": 153.110958,
          "velocity": 0.7874015748031497
        },
        {
          "duration": 0.21759237499998108,
          "durationTicks": 94,
          "midi": 38,
          "name": "D2",
          "ticks": 66240,
          "time": 153.33318,
          "velocity": 0.7874015748031497
        },
        {
          "duration": 0.21759237499998108,
          "durationTicks": 94,
          "midi": 42,
          "name": "F#2",
          "ticks": 66240,
          "time": 153.33318,
          "velocity": 0.7874015748031497
        },
        {
          "duration": 0.21759237499998108,
          "durationTicks": 94,
          "midi": 36,
          "name": "C2",
          "ticks": 66240,
          "time": 153.33318,
          "velocity": 0.7874015748031497
        },
        {
          "duration": 0.21759237499998108,
          "durationTicks": 94,
          "midi": 42,
          "name": "F#2",
          "ticks": 66336,
          "time": 153.55540200000002,
          "velocity": 0.7874015748031497
        },
        {
          "duration": 0.21759237499998108,
          "durationTicks": 94,
          "midi": 42,
          "name": "F#2",
          "ticks": 66432,
          "time": 153.777624,
          "velocity": 0.7874015748031497
        },
        {
          "duration": 0.2175923750000095,
          "durationTicks": 94,
          "midi": 38,
          "name": "D2",
          "ticks": 66528,
          "time": 153.999846,
          "velocity": 0.7874015748031497
        },
        {
          "duration": 0.2175923750000095,
          "durationTicks": 94,
          "midi": 42,
          "name": "F#2",
          "ticks": 66528,
          "time": 153.999846,
          "velocity": 0.7874015748031497
        },
        {
          "duration": 0.2175923750000095,
          "durationTicks": 94,
          "midi": 36,
          "name": "C2",
          "ticks": 66528,
          "time": 153.999846,
          "velocity": 0.7874015748031497
        },
        {
          "duration": 0.21759237499998108,
          "durationTicks": 94,
          "midi": 42,
          "name": "F#2",
          "ticks": 66624,
          "time": 154.222068,
          "velocity": 0.7874015748031497
        },
        {
          "duration": 0.2175923750000095,
          "durationTicks": 94,
          "midi": 42,
          "name": "F#2",
          "ticks": 66720,
          "time": 154.44429,
          "velocity": 0.7874015748031497
        },
        {
          "duration": 0.21759237499998108,
          "durationTicks": 94,
          "midi": 36,
          "name": "C2",
          "ticks": 66816,
          "time": 154.666512,
          "velocity": 0.7874015748031497
        },
        {
          "duration": 0.21759237499998108,
          "durationTicks": 94,
          "midi": 42,
          "name": "F#2",
          "ticks": 66816,
          "time": 154.666512,
          "velocity": 0.7874015748031497
        },
        {
          "duration": 0.21759237499998108,
          "durationTicks": 94,
          "midi": 38,
          "name": "D2",
          "ticks": 66816,
          "time": 154.666512,
          "velocity": 0.7874015748031497
        },
        {
          "duration": 0.21759237499998108,
          "durationTicks": 94,
          "midi": 47,
          "name": "B2",
          "ticks": 66912,
          "time": 154.888734,
          "velocity": 0.7874015748031497
        },
        {
          "duration": 0.21759237499998108,
          "durationTicks": 94,
          "midi": 47,
          "name": "B2",
          "ticks": 67008,
          "time": 155.11095600000002,
          "velocity": 0.7874015748031497
        },
        {
          "duration": 0.21759237499998108,
          "durationTicks": 94,
          "midi": 47,
          "name": "B2",
          "ticks": 67104,
          "time": 155.333178,
          "velocity": 0.7874015748031497
        },
        {
          "duration": 0.2175923750000095,
          "durationTicks": 94,
          "midi": 36,
          "name": "C2",
          "ticks": 67200,
          "time": 155.5554,
          "velocity": 0.7874015748031497
        },
        {
          "duration": 0.2175923750000095,
          "durationTicks": 94,
          "midi": 49,
          "name": "C#3",
          "ticks": 67200,
          "time": 155.5554,
          "velocity": 0.7874015748031497
        },
        {
          "duration": 0.21759237499998108,
          "durationTicks": 94,
          "midi": 42,
          "name": "F#2",
          "ticks": 67296,
          "time": 155.777622,
          "velocity": 0.7874015748031497
        },
        {
          "duration": 0.2175923750000095,
          "durationTicks": 94,
          "midi": 38,
          "name": "D2",
          "ticks": 67392,
          "time": 155.999844,
          "velocity": 0.7874015748031497
        },
        {
          "duration": 0.2175923750000095,
          "durationTicks": 94,
          "midi": 42,
          "name": "F#2",
          "ticks": 67392,
          "time": 155.999844,
          "velocity": 0.7874015748031497
        },
        {
          "duration": 0.21759237499998108,
          "durationTicks": 94,
          "midi": 42,
          "name": "F#2",
          "ticks": 67488,
          "time": 156.222066,
          "velocity": 0.7874015748031497
        },
        {
          "duration": 0.21759237499998108,
          "durationTicks": 94,
          "midi": 42,
          "name": "F#2",
          "ticks": 67584,
          "time": 156.444288,
          "velocity": 0.7874015748031497
        },
        {
          "duration": 0.21759237499998108,
          "durationTicks": 94,
          "midi": 36,
          "name": "C2",
          "ticks": 67584,
          "time": 156.444288,
          "velocity": 0.7874015748031497
        },
        {
          "duration": 0.2175923750000095,
          "durationTicks": 94,
          "midi": 36,
          "name": "C2",
          "ticks": 67680,
          "time": 156.66651,
          "velocity": 0.7874015748031497
        },
        {
          "duration": 0.2175923750000095,
          "durationTicks": 94,
          "midi": 42,
          "name": "F#2",
          "ticks": 67680,
          "time": 156.66651,
          "velocity": 0.7874015748031497
        },
        {
          "duration": 0.21759237499998108,
          "durationTicks": 94,
          "midi": 42,
          "name": "F#2",
          "ticks": 67776,
          "time": 156.888732,
          "velocity": 0.7874015748031497
        },
        {
          "duration": 0.21759237499998108,
          "durationTicks": 94,
          "midi": 38,
          "name": "D2",
          "ticks": 67776,
          "time": 156.888732,
          "velocity": 0.7874015748031497
        },
        {
          "duration": 0.2175923750000095,
          "durationTicks": 94,
          "midi": 42,
          "name": "F#2",
          "ticks": 67872,
          "time": 157.110954,
          "velocity": 0.7874015748031497
        },
        {
          "duration": 0.21759237499998108,
          "durationTicks": 94,
          "midi": 36,
          "name": "C2",
          "ticks": 67968,
          "time": 157.333176,
          "velocity": 0.7874015748031497
        },
        {
          "duration": 0.21759237499998108,
          "durationTicks": 94,
          "midi": 49,
          "name": "C#3",
          "ticks": 67968,
          "time": 157.333176,
          "velocity": 0.7874015748031497
        },
        {
          "duration": 0.2175923750000095,
          "durationTicks": 94,
          "midi": 42,
          "name": "F#2",
          "ticks": 68064,
          "time": 157.555398,
          "velocity": 0.7874015748031497
        },
        {
          "duration": 0.21759237499998108,
          "durationTicks": 94,
          "midi": 42,
          "name": "F#2",
          "ticks": 68160,
          "time": 157.77762,
          "velocity": 0.7874015748031497
        },
        {
          "duration": 0.21759237499998108,
          "durationTicks": 94,
          "midi": 38,
          "name": "D2",
          "ticks": 68160,
          "time": 157.77762,
          "velocity": 0.7874015748031497
        },
        {
          "duration": 0.21759237499998108,
          "durationTicks": 94,
          "midi": 42,
          "name": "F#2",
          "ticks": 68256,
          "time": 157.999842,
          "velocity": 0.7874015748031497
        },
        {
          "duration": 0.2175923750000095,
          "durationTicks": 94,
          "midi": 42,
          "name": "F#2",
          "ticks": 68352,
          "time": 158.222064,
          "velocity": 0.7874015748031497
        },
        {
          "duration": 0.2175923750000095,
          "durationTicks": 94,
          "midi": 36,
          "name": "C2",
          "ticks": 68352,
          "time": 158.222064,
          "velocity": 0.7874015748031497
        },
        {
          "duration": 0.21759237499998108,
          "durationTicks": 94,
          "midi": 42,
          "name": "F#2",
          "ticks": 68448,
          "time": 158.444286,
          "velocity": 0.7874015748031497
        },
        {
          "duration": 0.21759237499998108,
          "durationTicks": 94,
          "midi": 36,
          "name": "C2",
          "ticks": 68448,
          "time": 158.444286,
          "velocity": 0.7874015748031497
        },
        {
          "duration": 0.2175923750000095,
          "durationTicks": 94,
          "midi": 38,
          "name": "D2",
          "ticks": 68544,
          "time": 158.666508,
          "velocity": 0.7874015748031497
        },
        {
          "duration": 0.2175923750000095,
          "durationTicks": 94,
          "midi": 42,
          "name": "F#2",
          "ticks": 68544,
          "time": 158.666508,
          "velocity": 0.7874015748031497
        },
        {
          "duration": 0.21759237499998108,
          "durationTicks": 94,
          "midi": 42,
          "name": "F#2",
          "ticks": 68640,
          "time": 158.88873,
          "velocity": 0.7874015748031497
        },
        {
          "duration": 0.2175923750000095,
          "durationTicks": 94,
          "midi": 36,
          "name": "C2",
          "ticks": 68736,
          "time": 159.110952,
          "velocity": 0.7874015748031497
        },
        {
          "duration": 0.2175923750000095,
          "durationTicks": 94,
          "midi": 49,
          "name": "C#3",
          "ticks": 68736,
          "time": 159.110952,
          "velocity": 0.7874015748031497
        },
        {
          "duration": 0.21759237499998108,
          "durationTicks": 94,
          "midi": 42,
          "name": "F#2",
          "ticks": 68832,
          "time": 159.333174,
          "velocity": 0.7874015748031497
        },
        {
          "duration": 0.21759237499998108,
          "durationTicks": 94,
          "midi": 38,
          "name": "D2",
          "ticks": 68928,
          "time": 159.555396,
          "velocity": 0.7874015748031497
        },
        {
          "duration": 0.21759237499998108,
          "durationTicks": 94,
          "midi": 42,
          "name": "F#2",
          "ticks": 68928,
          "time": 159.555396,
          "velocity": 0.7874015748031497
        },
        {
          "duration": 0.2175923750000095,
          "durationTicks": 94,
          "midi": 42,
          "name": "F#2",
          "ticks": 69024,
          "time": 159.777618,
          "velocity": 0.7874015748031497
        },
        {
          "duration": 0.21759237499998108,
          "durationTicks": 94,
          "midi": 36,
          "name": "C2",
          "ticks": 69120,
          "time": 159.99984,
          "velocity": 0.7874015748031497
        },
        {
          "duration": 0.21759237499998108,
          "durationTicks": 94,
          "midi": 42,
          "name": "F#2",
          "ticks": 69120,
          "time": 159.99984,
          "velocity": 0.7874015748031497
        },
        {
          "duration": 0.2175923750000095,
          "durationTicks": 94,
          "midi": 42,
          "name": "F#2",
          "ticks": 69216,
          "time": 160.222062,
          "velocity": 0.7874015748031497
        },
        {
          "duration": 0.2175923750000095,
          "durationTicks": 94,
          "midi": 36,
          "name": "C2",
          "ticks": 69216,
          "time": 160.222062,
          "velocity": 0.7874015748031497
        },
        {
          "duration": 0.21759237499998108,
          "durationTicks": 94,
          "midi": 42,
          "name": "F#2",
          "ticks": 69312,
          "time": 160.444284,
          "velocity": 0.7874015748031497
        },
        {
          "duration": 0.21759237499998108,
          "durationTicks": 94,
          "midi": 38,
          "name": "D2",
          "ticks": 69312,
          "time": 160.444284,
          "velocity": 0.7874015748031497
        },
        {
          "duration": 0.2175923750000095,
          "durationTicks": 94,
          "midi": 42,
          "name": "F#2",
          "ticks": 69408,
          "time": 160.666506,
          "velocity": 0.7874015748031497
        },
        {
          "duration": 0.21759237499998108,
          "durationTicks": 94,
          "midi": 36,
          "name": "C2",
          "ticks": 69504,
          "time": 160.88872800000001,
          "velocity": 0.7874015748031497
        },
        {
          "duration": 0.21759237499998108,
          "durationTicks": 94,
          "midi": 49,
          "name": "C#3",
          "ticks": 69504,
          "time": 160.88872800000001,
          "velocity": 0.7874015748031497
        },
        {
          "duration": 0.21759237499998108,
          "durationTicks": 94,
          "midi": 42,
          "name": "F#2",
          "ticks": 69600,
          "time": 161.11095,
          "velocity": 0.7874015748031497
        },
        {
          "duration": 0.2175923750000095,
          "durationTicks": 94,
          "midi": 38,
          "name": "D2",
          "ticks": 69696,
          "time": 161.333172,
          "velocity": 0.7874015748031497
        },
        {
          "duration": 0.2175923750000095,
          "durationTicks": 94,
          "midi": 42,
          "name": "F#2",
          "ticks": 69696,
          "time": 161.333172,
          "velocity": 0.7874015748031497
        },
        {
          "duration": 0.21759237499998108,
          "durationTicks": 94,
          "midi": 42,
          "name": "F#2",
          "ticks": 69792,
          "time": 161.555394,
          "velocity": 0.7874015748031497
        },
        {
          "duration": 0.2175923750000095,
          "durationTicks": 94,
          "midi": 42,
          "name": "F#2",
          "ticks": 69888,
          "time": 161.777616,
          "velocity": 0.7874015748031497
        },
        {
          "duration": 0.2175923750000095,
          "durationTicks": 94,
          "midi": 36,
          "name": "C2",
          "ticks": 69888,
          "time": 161.777616,
          "velocity": 0.7874015748031497
        },
        {
          "duration": 0.21759237499998108,
          "durationTicks": 94,
          "midi": 36,
          "name": "C2",
          "ticks": 69984,
          "time": 161.999838,
          "velocity": 0.7874015748031497
        },
        {
          "duration": 0.21759237499998108,
          "durationTicks": 94,
          "midi": 42,
          "name": "F#2",
          "ticks": 69984,
          "time": 161.999838,
          "velocity": 0.7874015748031497
        },
        {
          "duration": 0.21759237499998108,
          "durationTicks": 94,
          "midi": 42,
          "name": "F#2",
          "ticks": 70080,
          "time": 162.22206,
          "velocity": 0.7874015748031497
        },
        {
          "duration": 0.21759237499998108,
          "durationTicks": 94,
          "midi": 38,
          "name": "D2",
          "ticks": 70080,
          "time": 162.22206,
          "velocity": 0.7874015748031497
        },
        {
          "duration": 0.21759237499998108,
          "durationTicks": 94,
          "midi": 42,
          "name": "F#2",
          "ticks": 70176,
          "time": 162.44428200000002,
          "velocity": 0.7874015748031497
        },
        {
          "duration": 0.21759237499998108,
          "durationTicks": 94,
          "midi": 36,
          "name": "C2",
          "ticks": 70272,
          "time": 162.666504,
          "velocity": 0.7874015748031497
        },
        {
          "duration": 0.21759237499998108,
          "durationTicks": 94,
          "midi": 42,
          "name": "F#2",
          "ticks": 70272,
          "time": 162.666504,
          "velocity": 0.7874015748031497
        },
        {
          "duration": 0.2175923750000095,
          "durationTicks": 94,
          "midi": 42,
          "name": "F#2",
          "ticks": 70368,
          "time": 162.888726,
          "velocity": 0.7874015748031497
        },
        {
          "duration": 0.21759237499998108,
          "durationTicks": 94,
          "midi": 38,
          "name": "D2",
          "ticks": 70464,
          "time": 163.110948,
          "velocity": 0.7874015748031497
        },
        {
          "duration": 0.21759237499998108,
          "durationTicks": 94,
          "midi": 42,
          "name": "F#2",
          "ticks": 70464,
          "time": 163.110948,
          "velocity": 0.7874015748031497
        },
        {
          "duration": 0.2175923750000095,
          "durationTicks": 94,
          "midi": 42,
          "name": "F#2",
          "ticks": 70560,
          "time": 163.33317,
          "velocity": 0.7874015748031497
        },
        {
          "duration": 0.21759237499998108,
          "durationTicks": 94,
          "midi": 42,
          "name": "F#2",
          "ticks": 70656,
          "time": 163.555392,
          "velocity": 0.7874015748031497
        },
        {
          "duration": 0.21759237499998108,
          "durationTicks": 94,
          "midi": 36,
          "name": "C2",
          "ticks": 70656,
          "time": 163.555392,
          "velocity": 0.7874015748031497
        },
        {
          "duration": 0.21759237499998108,
          "durationTicks": 94,
          "midi": 42,
          "name": "F#2",
          "ticks": 70752,
          "time": 163.777614,
          "velocity": 0.7874015748031497
        },
        {
          "duration": 0.21759237499998108,
          "durationTicks": 94,
          "midi": 42,
          "name": "F#2",
          "ticks": 70848,
          "time": 163.99983600000002,
          "velocity": 0.7874015748031497
        },
        {
          "duration": 0.21759237499998108,
          "durationTicks": 94,
          "midi": 38,
          "name": "D2",
          "ticks": 70848,
          "time": 163.99983600000002,
          "velocity": 0.7874015748031497
        },
        {
          "duration": 0.21759237499998108,
          "durationTicks": 94,
          "midi": 36,
          "name": "C2",
          "ticks": 70944,
          "time": 164.222058,
          "velocity": 0.7874015748031497
        },
        {
          "duration": 0.21759237499998108,
          "durationTicks": 94,
          "midi": 42,
          "name": "F#2",
          "ticks": 70944,
          "time": 164.222058,
          "velocity": 0.7874015748031497
        },
        {
          "duration": 0.21759237499998108,
          "durationTicks": 94,
          "midi": 38,
          "name": "D2",
          "ticks": 70944,
          "time": 164.222058,
          "velocity": 0.7874015748031497
        },
        {
          "duration": 0.2175923750000095,
          "durationTicks": 94,
          "midi": 42,
          "name": "F#2",
          "ticks": 71040,
          "time": 164.44428,
          "velocity": 0.7874015748031497
        },
        {
          "duration": 0.2175923750000095,
          "durationTicks": 94,
          "midi": 38,
          "name": "D2",
          "ticks": 71040,
          "time": 164.44428,
          "velocity": 0.7874015748031497
        },
        {
          "duration": 0.2175923750000095,
          "durationTicks": 94,
          "midi": 36,
          "name": "C2",
          "ticks": 71040,
          "time": 164.44428,
          "velocity": 0.7874015748031497
        },
        {
          "duration": 0.21759237499998108,
          "durationTicks": 94,
          "midi": 42,
          "name": "F#2",
          "ticks": 71136,
          "time": 164.666502,
          "velocity": 0.7874015748031497
        },
        {
          "duration": 0.2175923750000095,
          "durationTicks": 94,
          "midi": 42,
          "name": "F#2",
          "ticks": 71232,
          "time": 164.888724,
          "velocity": 0.7874015748031497
        },
        {
          "duration": 0.21759237499998108,
          "durationTicks": 94,
          "midi": 36,
          "name": "C2",
          "ticks": 71328,
          "time": 165.110946,
          "velocity": 0.7874015748031497
        },
        {
          "duration": 0.21759237499998108,
          "durationTicks": 94,
          "midi": 42,
          "name": "F#2",
          "ticks": 71328,
          "time": 165.110946,
          "velocity": 0.7874015748031497
        },
        {
          "duration": 0.21759237499998108,
          "durationTicks": 94,
          "midi": 38,
          "name": "D2",
          "ticks": 71328,
          "time": 165.110946,
          "velocity": 0.7874015748031497
        },
        {
          "duration": 0.21759237499998108,
          "durationTicks": 94,
          "midi": 42,
          "name": "F#2",
          "ticks": 71424,
          "time": 165.333168,
          "velocity": 0.7874015748031497
        },
        {
          "duration": 0.2175923750000095,
          "durationTicks": 94,
          "midi": 42,
          "name": "F#2",
          "ticks": 71520,
          "time": 165.55539,
          "velocity": 0.7874015748031497
        },
        {
          "duration": 0.21759237499998108,
          "durationTicks": 94,
          "midi": 38,
          "name": "D2",
          "ticks": 71616,
          "time": 165.777612,
          "velocity": 0.7874015748031497
        },
        {
          "duration": 0.21759237499998108,
          "durationTicks": 94,
          "midi": 42,
          "name": "F#2",
          "ticks": 71616,
          "time": 165.777612,
          "velocity": 0.7874015748031497
        },
        {
          "duration": 0.21759237499998108,
          "durationTicks": 94,
          "midi": 36,
          "name": "C2",
          "ticks": 71616,
          "time": 165.777612,
          "velocity": 0.7874015748031497
        },
        {
          "duration": 0.2175923750000095,
          "durationTicks": 94,
          "midi": 42,
          "name": "F#2",
          "ticks": 71712,
          "time": 165.999834,
          "velocity": 0.7874015748031497
        },
        {
          "duration": 0.21759237499998108,
          "durationTicks": 94,
          "midi": 42,
          "name": "F#2",
          "ticks": 71808,
          "time": 166.222056,
          "velocity": 0.7874015748031497
        },
        {
          "duration": 0.2175923750000095,
          "durationTicks": 94,
          "midi": 42,
          "name": "F#2",
          "ticks": 71904,
          "time": 166.444278,
          "velocity": 0.7874015748031497
        },
        {
          "duration": 0.2175923750000095,
          "durationTicks": 94,
          "midi": 38,
          "name": "D2",
          "ticks": 71904,
          "time": 166.444278,
          "velocity": 0.7874015748031497
        },
        {
          "duration": 0.2175923750000095,
          "durationTicks": 94,
          "midi": 36,
          "name": "C2",
          "ticks": 71904,
          "time": 166.444278,
          "velocity": 0.7874015748031497
        },
        {
          "duration": 0.21759237499998108,
          "durationTicks": 94,
          "midi": 42,
          "name": "F#2",
          "ticks": 72000,
          "time": 166.6665,
          "velocity": 0.7874015748031497
        },
        {
          "duration": 0.21759237499998108,
          "durationTicks": 94,
          "midi": 42,
          "name": "F#2",
          "ticks": 72096,
          "time": 166.888722,
          "velocity": 0.7874015748031497
        },
        {
          "duration": 0.2175923750000095,
          "durationTicks": 94,
          "midi": 38,
          "name": "D2",
          "ticks": 72192,
          "time": 167.110944,
          "velocity": 0.7874015748031497
        },
        {
          "duration": 0.2175923750000095,
          "durationTicks": 94,
          "midi": 36,
          "name": "C2",
          "ticks": 72192,
          "time": 167.110944,
          "velocity": 0.7874015748031497
        },
        {
          "duration": 0.2175923750000095,
          "durationTicks": 94,
          "midi": 42,
          "name": "F#2",
          "ticks": 72192,
          "time": 167.110944,
          "velocity": 0.7874015748031497
        },
        {
          "duration": 0.21759237499998108,
          "durationTicks": 94,
          "midi": 47,
          "name": "B2",
          "ticks": 72288,
          "time": 167.333166,
          "velocity": 0.7874015748031497
        },
        {
          "duration": 0.2175923750000095,
          "durationTicks": 94,
          "midi": 47,
          "name": "B2",
          "ticks": 72384,
          "time": 167.555388,
          "velocity": 0.7874015748031497
        },
        {
          "duration": 0.21759237499998108,
          "durationTicks": 94,
          "midi": 47,
          "name": "B2",
          "ticks": 72480,
          "time": 167.77761,
          "velocity": 0.7874015748031497
        },
        {
          "duration": 0.2175923750000095,
          "durationTicks": 94,
          "midi": 36,
          "name": "C2",
          "ticks": 72576,
          "time": 167.999832,
          "velocity": 0.7874015748031497
        },
        {
          "duration": 0.2175923750000095,
          "durationTicks": 94,
          "midi": 49,
          "name": "C#3",
          "ticks": 72576,
          "time": 167.999832,
          "velocity": 0.7874015748031497
        },
        {
          "duration": 0.21759237499998108,
          "durationTicks": 94,
          "midi": 42,
          "name": "F#2",
          "ticks": 72672,
          "time": 168.222054,
          "velocity": 0.7874015748031497
        },
        {
          "duration": 0.21759237499998108,
          "durationTicks": 94,
          "midi": 38,
          "name": "D2",
          "ticks": 72768,
          "time": 168.444276,
          "velocity": 0.7874015748031497
        },
        {
          "duration": 0.21759237499998108,
          "durationTicks": 94,
          "midi": 42,
          "name": "F#2",
          "ticks": 72768,
          "time": 168.444276,
          "velocity": 0.7874015748031497
        },
        {
          "duration": 0.2175923750000095,
          "durationTicks": 94,
          "midi": 42,
          "name": "F#2",
          "ticks": 72864,
          "time": 168.666498,
          "velocity": 0.7874015748031497
        },
        {
          "duration": 0.2175923750000095,
          "durationTicks": 94,
          "midi": 36,
          "name": "C2",
          "ticks": 72864,
          "time": 168.666498,
          "velocity": 0.7874015748031497
        },
        {
          "duration": 0.21759237499998108,
          "durationTicks": 94,
          "midi": 42,
          "name": "F#2",
          "ticks": 72960,
          "time": 168.88872,
          "velocity": 0.7874015748031497
        },
        {
          "duration": 0.2175923750000095,
          "durationTicks": 94,
          "midi": 42,
          "name": "F#2",
          "ticks": 73056,
          "time": 169.110942,
          "velocity": 0.7874015748031497
        },
        {
          "duration": 0.2175923750000095,
          "durationTicks": 94,
          "midi": 36,
          "name": "C2",
          "ticks": 73056,
          "time": 169.110942,
          "velocity": 0.7874015748031497
        },
        {
          "duration": 0.21759237499998108,
          "durationTicks": 94,
          "midi": 38,
          "name": "D2",
          "ticks": 73152,
          "time": 169.333164,
          "velocity": 0.7874015748031497
        },
        {
          "duration": 0.21759237499998108,
          "durationTicks": 94,
          "midi": 42,
          "name": "F#2",
          "ticks": 73152,
          "time": 169.333164,
          "velocity": 0.7874015748031497
        },
        {
          "duration": 0.21759237499998108,
          "durationTicks": 94,
          "midi": 42,
          "name": "F#2",
          "ticks": 73248,
          "time": 169.555386,
          "velocity": 0.7874015748031497
        },
        {
          "duration": 0.21759237499998108,
          "durationTicks": 94,
          "midi": 42,
          "name": "F#2",
          "ticks": 73344,
          "time": 169.77760800000001,
          "velocity": 0.7874015748031497
        },
        {
          "duration": 0.21759237499998108,
          "durationTicks": 94,
          "midi": 36,
          "name": "C2",
          "ticks": 73344,
          "time": 169.77760800000001,
          "velocity": 0.7874015748031497
        },
        {
          "duration": 0.21759237499998108,
          "durationTicks": 94,
          "midi": 38,
          "name": "D2",
          "ticks": 73344,
          "time": 169.77760800000001,
          "velocity": 0.7874015748031497
        },
        {
          "duration": 0.21759237499998108,
          "durationTicks": 94,
          "midi": 42,
          "name": "F#2",
          "ticks": 73440,
          "time": 169.99983,
          "velocity": 0.7874015748031497
        },
        {
          "duration": 0.2175923750000095,
          "durationTicks": 94,
          "midi": 42,
          "name": "F#2",
          "ticks": 73536,
          "time": 170.222052,
          "velocity": 0.7874015748031497
        },
        {
          "duration": 0.21759237499998108,
          "durationTicks": 94,
          "midi": 42,
          "name": "F#2",
          "ticks": 73632,
          "time": 170.444274,
          "velocity": 0.7874015748031497
        },
        {
          "duration": 0.21759237499998108,
          "durationTicks": 94,
          "midi": 36,
          "name": "C2",
          "ticks": 73632,
          "time": 170.444274,
          "velocity": 0.7874015748031497
        },
        {
          "duration": 0.21759237499998108,
          "durationTicks": 94,
          "midi": 38,
          "name": "D2",
          "ticks": 73632,
          "time": 170.444274,
          "velocity": 0.7874015748031497
        },
        {
          "duration": 0.2175923750000095,
          "durationTicks": 94,
          "midi": 42,
          "name": "F#2",
          "ticks": 73728,
          "time": 170.666496,
          "velocity": 0.7874015748031497
        },
        {
          "duration": 0.21759237499998108,
          "durationTicks": 94,
          "midi": 42,
          "name": "F#2",
          "ticks": 73824,
          "time": 170.888718,
          "velocity": 0.7874015748031497
        },
        {
          "duration": 0.21759237499998108,
          "durationTicks": 94,
          "midi": 42,
          "name": "F#2",
          "ticks": 73920,
          "time": 171.11094,
          "velocity": 0.7874015748031497
        },
        {
          "duration": 0.21759237499998108,
          "durationTicks": 94,
          "midi": 38,
          "name": "D2",
          "ticks": 73920,
          "time": 171.11094,
          "velocity": 0.7874015748031497
        },
        {
          "duration": 0.21759237499998108,
          "durationTicks": 94,
          "midi": 36,
          "name": "C2",
          "ticks": 73920,
          "time": 171.11094,
          "velocity": 0.7874015748031497
        },
        {
          "duration": 0.21759237499998108,
          "durationTicks": 94,
          "midi": 42,
          "name": "F#2",
          "ticks": 74016,
          "time": 171.33316200000002,
          "velocity": 0.7874015748031497
        },
        {
          "duration": 0.21759237499998108,
          "durationTicks": 94,
          "midi": 42,
          "name": "F#2",
          "ticks": 74112,
          "time": 171.555384,
          "velocity": 0.7874015748031497
        },
        {
          "duration": 0.2175923750000095,
          "durationTicks": 94,
          "midi": 38,
          "name": "D2",
          "ticks": 74208,
          "time": 171.777606,
          "velocity": 0.7874015748031497
        },
        {
          "duration": 0.2175923750000095,
          "durationTicks": 94,
          "midi": 42,
          "name": "F#2",
          "ticks": 74208,
          "time": 171.777606,
          "velocity": 0.7874015748031497
        },
        {
          "duration": 0.2175923750000095,
          "durationTicks": 94,
          "midi": 36,
          "name": "C2",
          "ticks": 74208,
          "time": 171.777606,
          "velocity": 0.7874015748031497
        },
        {
          "duration": 0.21759237499998108,
          "durationTicks": 94,
          "midi": 42,
          "name": "F#2",
          "ticks": 74304,
          "time": 171.999828,
          "velocity": 0.7874015748031497
        },
        {
          "duration": 0.2175923750000095,
          "durationTicks": 94,
          "midi": 42,
          "name": "F#2",
          "ticks": 74400,
          "time": 172.22205,
          "velocity": 0.7874015748031497
        },
        {
          "duration": 0.21759237499998108,
          "durationTicks": 94,
          "midi": 36,
          "name": "C2",
          "ticks": 74496,
          "time": 172.444272,
          "velocity": 0.7874015748031497
        },
        {
          "duration": 0.21759237499998108,
          "durationTicks": 94,
          "midi": 38,
          "name": "D2",
          "ticks": 74496,
          "time": 172.444272,
          "velocity": 0.7874015748031497
        },
        {
          "duration": 0.21759237499998108,
          "durationTicks": 94,
          "midi": 42,
          "name": "F#2",
          "ticks": 74496,
          "time": 172.444272,
          "velocity": 0.7874015748031497
        },
        {
          "duration": 0.21759237499998108,
          "durationTicks": 94,
          "midi": 47,
          "name": "B2",
          "ticks": 74592,
          "time": 172.666494,
          "velocity": 0.7874015748031497
        },
        {
          "duration": 0.2175923750000095,
          "durationTicks": 94,
          "midi": 47,
          "name": "B2",
          "ticks": 74688,
          "time": 172.888716,
          "velocity": 0.7874015748031497
        },
        {
          "duration": 0.21759237499998108,
          "durationTicks": 94,
          "midi": 47,
          "name": "B2",
          "ticks": 74784,
          "time": 173.110938,
          "velocity": 0.7874015748031497
        },
        {
          "duration": 0.2175923750000095,
          "durationTicks": 94,
          "midi": 49,
          "name": "C#3",
          "ticks": 74880,
          "time": 173.33316,
          "velocity": 0.7874015748031497
        },
        {
          "duration": 0.2175923750000095,
          "durationTicks": 94,
          "midi": 36,
          "name": "C2",
          "ticks": 74880,
          "time": 173.33316,
          "velocity": 0.7874015748031497
        }
      ],
      "endOfTrackTicks": 74974
    }
  ]
}