{
    "header": {
      "keySignatures": [
        {
          "key": "D",
          "scale": "minor",
          "ticks": 0
        }
      ],
      "meta": [],
      "name": "",
      "ppq": 480,
      "tempos": [
        {
          "bpm": 150,
          "ticks": 0
        },
        {
          "bpm": 76.99997818333952,
          "ticks": 1680
        }
      ],
      "timeSignatures": [
        {
          "ticks": 0,
          "timeSignature": [
            4,
            4
          ],
          "measures": 0
        }
      ]
    },
    "tracks": [
      {
        "channel": 0,
        "controlChanges": {},
        "pitchBends": [],
        "instrument": {
          "family": "piano",
          "number": 0,
          "name": "acoustic grand piano"
        },
        "name": "(C) HitTrax: Hotel California",
        "notes": [],
        "endOfTrackTicks": 19200
      },
      {
        "channel": 0,
        "controlChanges": {
          "7": [
            {
              "number": 7,
              "ticks": 0,
              "time": 0,
              "value": 0.9212598425196851
            }
          ],
          "11": [
            {
              "number": 11,
              "ticks": 0,
              "time": 0,
              "value": 1
            }
          ]
        },
        "pitchBends": [],
        "instrument": {
          "family": "piano",
          "number": 0,
          "name": "acoustic grand piano"
        },
        "name": "(C) HitTrax: Hotel California",
        "notes": [],
        "endOfTrackTicks": 19200
      },
      {
        "channel": 1,
        "controlChanges": {
          "10": [
            {
              "number": 10,
              "ticks": 495,
              "time": 0.41250000000000003,
              "value": 0.5039370078740157
            }
          ],
          "91": [
            {
              "number": 91,
              "ticks": 500,
              "time": 0.41666666666666674,
              "value": 0
            }
          ],
          "93": [
            {
              "number": 93,
              "ticks": 500,
              "time": 0.41666666666666674,
              "value": 0
            }
          ]
        },
        "pitchBends": [],
        "instrument": {
          "family": "bass",
          "number": 33,
          "name": "electric bass (finger)"
        },
        "name": "",
        "notes": [
          {
            "duration": 0.19480524999999993,
            "durationTicks": 120,
            "midi": 55,
            "name": "G3",
            "ticks": 1920,
            "time": 1.7896105000000002,
            "velocity": 1
          },
          {
            "duration": 0.19480524999999993,
            "durationTicks": 120,
            "midi": 50,
            "name": "D3",
            "ticks": 2040,
            "time": 1.9844157500000001,
            "velocity": 0.8661417322834646
          },
          {
            "duration": 0.19480524999999993,
            "durationTicks": 120,
            "midi": 43,
            "name": "G2",
            "ticks": 2160,
            "time": 2.179221,
            "velocity": 0.7322834645669292
          },
          {
            "duration": 0.19480524999999993,
            "durationTicks": 120,
            "midi": 50,
            "name": "D3",
            "ticks": 2760,
            "time": 3.1532472499999997,
            "velocity": 0.889763779527559
          },
          {
            "duration": 0.19480524999999993,
            "durationTicks": 120,
            "midi": 55,
            "name": "G3",
            "ticks": 2880,
            "time": 3.3480524999999997,
            "velocity": 0.8031496062992126
          },
          {
            "duration": 0.19480524999999993,
            "durationTicks": 120,
            "midi": 50,
            "name": "D3",
            "ticks": 3240,
            "time": 3.9324682500000003,
            "velocity": 0.8661417322834646
          },
          {
            "duration": 0.19480524999999993,
            "durationTicks": 120,
            "midi": 55,
            "name": "G3",
            "ticks": 3360,
            "time": 4.1272735,
            "velocity": 0.8031496062992126
          },
          {
            "duration": 0.19480524999999993,
            "durationTicks": 120,
            "midi": 57,
            "name": "A3",
            "ticks": 3600,
            "time": 4.516884,
            "velocity": 0.8188976377952756
          },
          {
            "duration": 0.19480524999999993,
            "durationTicks": 120,
            "midi": 59,
            "name": "B3",
            "ticks": 3720,
            "time": 4.71168925,
            "velocity": 0.6929133858267716
          },
          {
            "duration": 0.19480524999999993,
            "durationTicks": 120,
            "midi": 62,
            "name": "D4",
            "ticks": 3840,
            "time": 4.9064945,
            "velocity": 0.9606299212598425
          },
          {
            "duration": 0.19480524999999993,
            "durationTicks": 120,
            "midi": 57,
            "name": "A3",
            "ticks": 3960,
            "time": 5.10129975,
            "velocity": 0.8188976377952756
          },
          {
            "duration": 0.19480524999999993,
            "durationTicks": 120,
            "midi": 50,
            "name": "D3",
            "ticks": 4080,
            "time": 5.296105,
            "velocity": 0.7559055118110236
          },
          {
            "duration": 0.19480524999999993,
            "durationTicks": 120,
            "midi": 57,
            "name": "A3",
            "ticks": 4680,
            "time": 6.27013125,
            "velocity": 0.889763779527559
          },
          {
            "duration": 0.19480524999999993,
            "durationTicks": 120,
            "midi": 62,
            "name": "D4",
            "ticks": 4800,
            "time": 6.4649365,
            "velocity": 0.7795275590551181
          },
          {
            "duration": 0.19480524999999993,
            "durationTicks": 120,
            "midi": 57,
            "name": "A3",
            "ticks": 5160,
            "time": 7.04935225,
            "velocity": 0.8661417322834646
          },
          {
            "duration": 0.5762988645833333,
            "durationTicks": 355,
            "midi": 62,
            "name": "D4",
            "ticks": 5280,
            "time": 7.2441575,
            "velocity": 0.8031496062992126
          },
          {
            "duration": 0.19480524999999993,
            "durationTicks": 120,
            "midi": 57,
            "name": "A3",
            "ticks": 5640,
            "time": 7.82857325,
            "velocity": 0.8031496062992126
          },
          {
            "duration": 0.19480524999999993,
            "durationTicks": 120,
            "midi": 54,
            "name": "F#3",
            "ticks": 5760,
            "time": 8.0233785,
            "velocity": 1
          },
          {
            "duration": 0.19480524999999993,
            "durationTicks": 120,
            "midi": 49,
            "name": "C#3",
            "ticks": 5880,
            "time": 8.21818375,
            "velocity": 0.84251968503937
          },
          {
            "duration": 0.19480524999999993,
            "durationTicks": 120,
            "midi": 42,
            "name": "F#2",
            "ticks": 6000,
            "time": 8.412989,
            "velocity": 0.6850393700787402
          },
          {
            "duration": 0.19480524999999993,
            "durationTicks": 120,
            "midi": 49,
            "name": "C#3",
            "ticks": 6600,
            "time": 9.38701525,
            "velocity": 0.8661417322834646
          },
          {
            "duration": 0.5762988645833342,
            "durationTicks": 355,
            "midi": 54,
            "name": "F#3",
            "ticks": 6720,
            "time": 9.5818205,
            "velocity": 0.7559055118110236
          },
          {
            "duration": 0.19480524999999993,
            "durationTicks": 120,
            "midi": 49,
            "name": "C#3",
            "ticks": 7080,
            "time": 10.166236249999999,
            "velocity": 0.8661417322834646
          },
          {
            "duration": 0.5762988645833342,
            "durationTicks": 355,
            "midi": 54,
            "name": "F#3",
            "ticks": 7200,
            "time": 10.361041499999999,
            "velocity": 0.8188976377952756
          },
          {
            "duration": 0.19480524999999993,
            "durationTicks": 120,
            "midi": 49,
            "name": "C#3",
            "ticks": 7560,
            "time": 10.94545725,
            "velocity": 0.84251968503937
          },
          {
            "duration": 0.7629872291666651,
            "durationTicks": 470,
            "midi": 47,
            "name": "B2",
            "ticks": 7680,
            "time": 11.1402625,
            "velocity": 0.7795275590551181
          },
          {
            "duration": 0.7711041145833324,
            "durationTicks": 475,
            "midi": 49,
            "name": "C#3",
            "ticks": 8160,
            "time": 11.9194835,
            "velocity": 0.889763779527559
          },
          {
            "duration": 0.7629872291666651,
            "durationTicks": 470,
            "midi": 50,
            "name": "D3",
            "ticks": 8640,
            "time": 12.6987045,
            "velocity": 0.9133858267716536
          },
          {
            "duration": 0.3814936145833343,
            "durationTicks": 235,
            "midi": 52,
            "name": "E3",
            "ticks": 9120,
            "time": 13.4779255,
            "velocity": 0.9212598425196851
          },
          {
            "duration": 0.38149361458333253,
            "durationTicks": 235,
            "midi": 54,
            "name": "F#3",
            "ticks": 9360,
            "time": 13.867536,
            "velocity": 0.9212598425196851
          },
          {
            "duration": 0.19480524999999993,
            "durationTicks": 120,
            "midi": 55,
            "name": "G3",
            "ticks": 9600,
            "time": 14.2571465,
            "velocity": 0.984251968503937
          },
          {
            "duration": 0.19480524999999993,
            "durationTicks": 120,
            "midi": 50,
            "name": "D3",
            "ticks": 9720,
            "time": 14.45195175,
            "velocity": 0.84251968503937
          },
          {
            "duration": 0.19480524999999993,
            "durationTicks": 120,
            "midi": 43,
            "name": "G2",
            "ticks": 9840,
            "time": 14.646757,
            "velocity": 0.7322834645669292
          },
          {
            "duration": 0.19480524999999993,
            "durationTicks": 120,
            "midi": 50,
            "name": "D3",
            "ticks": 10440,
            "time": 15.620783249999999,
            "velocity": 0.9133858267716536
          },
          {
            "duration": 0.19480524999999993,
            "durationTicks": 120,
            "midi": 55,
            "name": "G3",
            "ticks": 10560,
            "time": 15.815588499999999,
            "velocity": 0.8188976377952756
          },
          {
            "duration": 0.19480524999999815,
            "durationTicks": 120,
            "midi": 50,
            "name": "D3",
            "ticks": 10920,
            "time": 16.40000425,
            "velocity": 0.889763779527559
          },
          {
            "duration": 0.1948052500000017,
            "durationTicks": 120,
            "midi": 55,
            "name": "G3",
            "ticks": 11040,
            "time": 16.594809499999997,
            "velocity": 0.7795275590551181
          },
          {
            "duration": 0.1948052500000017,
            "durationTicks": 120,
            "midi": 57,
            "name": "A3",
            "ticks": 11280,
            "time": 16.984419999999997,
            "velocity": 0.8031496062992126
          },
          {
            "duration": 0.1948052500000017,
            "durationTicks": 120,
            "midi": 59,
            "name": "B3",
            "ticks": 11400,
            "time": 17.17922525,
            "velocity": 0.7086614173228346
          },
          {
            "duration": 0.19480524999999815,
            "durationTicks": 120,
            "midi": 62,
            "name": "D4",
            "ticks": 11520,
            "time": 17.3740305,
            "velocity": 0.9606299212598425
          },
          {
            "duration": 0.19480524999999815,
            "durationTicks": 120,
            "midi": 57,
            "name": "A3",
            "ticks": 11640,
            "time": 17.568835749999998,
            "velocity": 0.8031496062992126
          },
          {
            "duration": 0.1948052500000017,
            "durationTicks": 120,
            "midi": 50,
            "name": "D3",
            "ticks": 11760,
            "time": 17.763640999999996,
            "velocity": 0.7086614173228346
          },
          {
            "duration": 0.19480524999999815,
            "durationTicks": 120,
            "midi": 57,
            "name": "A3",
            "ticks": 12360,
            "time": 18.737667249999998,
            "velocity": 0.8661417322834646
          },
          {
            "duration": 0.1948052500000017,
            "durationTicks": 120,
            "midi": 62,
            "name": "D4",
            "ticks": 12480,
            "time": 18.932472499999996,
            "velocity": 0.7795275590551181
          },
          {
            "duration": 0.19480524999999815,
            "durationTicks": 120,
            "midi": 57,
            "name": "A3",
            "ticks": 12840,
            "time": 19.516888249999997,
            "velocity": 0.84251968503937
          },
          {
            "duration": 0.7629872291666686,
            "durationTicks": 470,
            "midi": 62,
            "name": "D4",
            "ticks": 12960,
            "time": 19.711693499999996,
            "velocity": 0.8188976377952756
          },
          {
            "duration": 0.19480524999999815,
            "durationTicks": 120,
            "midi": 52,
            "name": "E3",
            "ticks": 13440,
            "time": 20.4909145,
            "velocity": 0.937007874015748
          },
          {
            "duration": 0.1948052500000017,
            "durationTicks": 120,
            "midi": 47,
            "name": "B2",
            "ticks": 13560,
            "time": 20.685719749999997,
            "velocity": 0.8188976377952756
          },
          {
            "duration": 0.23538967708332947,
            "durationTicks": 145,
            "midi": 40,
            "name": "E2",
            "ticks": 13680,
            "time": 20.880525,
            "velocity": 0.6850393700787402
          },
          {
            "duration": 0.1948052500000017,
            "durationTicks": 120,
            "midi": 47,
            "name": "B2",
            "ticks": 14280,
            "time": 21.854551249999997,
            "velocity": 0.9133858267716536
          },
          {
            "duration": 0.19480524999999815,
            "durationTicks": 120,
            "midi": 52,
            "name": "E3",
            "ticks": 14400,
            "time": 22.0493565,
            "velocity": 0.8031496062992126
          },
          {
            "duration": 0.1948052500000017,
            "durationTicks": 120,
            "midi": 47,
            "name": "B2",
            "ticks": 14760,
            "time": 22.633772249999996,
            "velocity": 0.8661417322834646
          },
          {
            "duration": 0.7629872291666651,
            "durationTicks": 470,
            "midi": 52,
            "name": "E3",
            "ticks": 14880,
            "time": 22.828577499999998,
            "velocity": 0.7795275590551181
          },
          {
            "duration": 0.19480524999999815,
            "durationTicks": 120,
            "midi": 54,
            "name": "F#3",
            "ticks": 15360,
            "time": 23.607798499999998,
            "velocity": 0.937007874015748
          },
          {
            "duration": 0.1948052500000017,
            "durationTicks": 120,
            "midi": 49,
            "name": "C#3",
            "ticks": 15480,
            "time": 23.802603749999996,
            "velocity": 0.7874015748031497
          },
          {
            "duration": 0.19480524999999815,
            "durationTicks": 120,
            "midi": 42,
            "name": "F#2",
            "ticks": 15600,
            "time": 23.997408999999998,
            "velocity": 0.7086614173228346
          },
          {
            "duration": 0.1948052500000017,
            "durationTicks": 120,
            "midi": 49,
            "name": "C#3",
            "ticks": 16200,
            "time": 24.971435249999995,
            "velocity": 0.8661417322834646
          },
          {
            "duration": 0.19480524999999815,
            "durationTicks": 120,
            "midi": 54,
            "name": "F#3",
            "ticks": 16320,
            "time": 25.166240499999997,
            "velocity": 0.7874015748031497
          },
          {
            "duration": 0.1948052500000017,
            "durationTicks": 120,
            "midi": 49,
            "name": "C#3",
            "ticks": 16680,
            "time": 25.750656249999995,
            "velocity": 0.9133858267716536
          },
          {
            "duration": 0.19480524999999815,
            "durationTicks": 120,
            "midi": 54,
            "name": "F#3",
            "ticks": 16800,
            "time": 25.945461499999997,
            "velocity": 0.7874015748031497
          },
          {
            "duration": 0.09740262500000085,
            "durationTicks": 60,
            "midi": 47,
            "name": "B2",
            "ticks": 17280,
            "time": 26.724682499999997,
            "velocity": 0.8503937007874016
          }
        ]
      },
      {
        "channel": 0,
        "controlChanges": {
          "7": [
            {
              "number": 7,
              "ticks": 1,
              "time": 0.0008333333333333334,
              "value": 0.84251968503937
            }
          ],
          "11": [
            {
              "number": 11,
              "ticks": 1,
              "time": 0.0008333333333333334,
              "value": 1
            }
          ]
        },
        "pitchBends": [],
        "instrument": {
          "family": "piano",
          "number": 0,
          "name": "acoustic grand piano"
        },
        "name": "(C) HitTrax: Hotel California",
        "notes": [],
        "endOfTrackTicks": 19200
      },
      {
        "channel": 2,
        "controlChanges": {
          "10": [
            {
              "number": 10,
              "ticks": 520,
              "time": 0.43333333333333335,
              "value": 0.6614173228346457
            }
          ],
          "91": [
            {
              "number": 91,
              "ticks": 525,
              "time": 0.4375,
              "value": 0.7874015748031497
            }
          ],
          "93": [
            {
              "number": 93,
              "ticks": 525,
              "time": 0.4375,
              "value": 0.5039370078740157
            }
          ]
        },
        "pitchBends": [],
        "instrument": {
          "family": "guitar",
          "number": 25,
          "name": "acoustic guitar (steel)"
        },
        "name": "",
        "notes": [
          {
            "duration": 0.19480524999999993,
            "durationTicks": 120,
            "midi": 62,
            "name": "D4",
            "ticks": 1920,
            "time": 1.7896105000000002,
            "velocity": 0.9448818897637795
          },
          {
            "duration": 0.19480524999999993,
            "durationTicks": 120,
            "midi": 67,
            "name": "G4",
            "ticks": 1920,
            "time": 1.7896105000000002,
            "velocity": 0.9448818897637795
          },
          {
            "duration": 0.19480524999999993,
            "durationTicks": 120,
            "midi": 62,
            "name": "D4",
            "ticks": 2040,
            "time": 1.9844157500000001,
            "velocity": 0.7795275590551181
          },
          {
            "duration": 0.19480524999999993,
            "durationTicks": 120,
            "midi": 67,
            "name": "G4",
            "ticks": 2040,
            "time": 1.9844157500000001,
            "velocity": 0.7795275590551181
          },
          {
            "duration": 0.8603898541666668,
            "durationTicks": 530,
            "midi": 55,
            "name": "G3",
            "ticks": 2160,
            "time": 2.179221,
            "velocity": 0.6692913385826772
          },
          {
            "duration": 0.8603898541666668,
            "durationTicks": 530,
            "midi": 59,
            "name": "B3",
            "ticks": 2160,
            "time": 2.179221,
            "velocity": 0.6692913385826772
          },
          {
            "duration": 0.3814936145833334,
            "durationTicks": 235,
            "midi": 62,
            "name": "D4",
            "ticks": 2280,
            "time": 2.37402625,
            "velocity": 0.8503937007874016
          },
          {
            "duration": 0.3814936145833334,
            "durationTicks": 235,
            "midi": 67,
            "name": "G4",
            "ticks": 2280,
            "time": 2.37402625,
            "velocity": 0.8503937007874016
          },
          {
            "duration": 0.40584427083333363,
            "durationTicks": 250,
            "midi": 62,
            "name": "D4",
            "ticks": 2520,
            "time": 2.76363675,
            "velocity": 0.7795275590551181
          },
          {
            "duration": 0.4220780416666665,
            "durationTicks": 260,
            "midi": 67,
            "name": "G4",
            "ticks": 2520,
            "time": 2.76363675,
            "velocity": 0.7795275590551181
          },
          {
            "duration": 0.19480524999999993,
            "durationTicks": 120,
            "midi": 55,
            "name": "G3",
            "ticks": 2760,
            "time": 3.1532472499999997,
            "velocity": 0.7559055118110236
          },
          {
            "duration": 0.19480524999999993,
            "durationTicks": 120,
            "midi": 59,
            "name": "B3",
            "ticks": 2760,
            "time": 3.1532472499999997,
            "velocity": 0.7559055118110236
          },
          {
            "duration": 0.5681819791666669,
            "durationTicks": 350,
            "midi": 62,
            "name": "D4",
            "ticks": 2880,
            "time": 3.3480524999999997,
            "velocity": 0.8267716535433071
          },
          {
            "duration": 0.5844157500000007,
            "durationTicks": 360,
            "midi": 67,
            "name": "G4",
            "ticks": 2880,
            "time": 3.3480524999999997,
            "velocity": 0.8267716535433071
          },
          {
            "duration": 0.19480524999999993,
            "durationTicks": 120,
            "midi": 55,
            "name": "G3",
            "ticks": 3240,
            "time": 3.9324682500000003,
            "velocity": 0.7165354330708661
          },
          {
            "duration": 0.19480524999999993,
            "durationTicks": 120,
            "midi": 59,
            "name": "B3",
            "ticks": 3240,
            "time": 3.9324682500000003,
            "velocity": 0.7007874015748031
          },
          {
            "duration": 0.5762988645833325,
            "durationTicks": 355,
            "midi": 62,
            "name": "D4",
            "ticks": 3360,
            "time": 4.1272735,
            "velocity": 0.7874015748031497
          },
          {
            "duration": 0.5762988645833325,
            "durationTicks": 355,
            "midi": 67,
            "name": "G4",
            "ticks": 3360,
            "time": 4.1272735,
            "velocity": 0.7874015748031497
          },
          {
            "duration": 0.19480524999999993,
            "durationTicks": 120,
            "midi": 55,
            "name": "G3",
            "ticks": 3720,
            "time": 4.71168925,
            "velocity": 0.6850393700787402
          },
          {
            "duration": 0.19480524999999993,
            "durationTicks": 120,
            "midi": 59,
            "name": "B3",
            "ticks": 3720,
            "time": 4.71168925,
            "velocity": 0.6062992125984252
          },
          {
            "duration": 0.19480524999999993,
            "durationTicks": 120,
            "midi": 62,
            "name": "D4",
            "ticks": 3840,
            "time": 4.9064945,
            "velocity": 0.8503937007874016
          },
          {
            "duration": 0.19480524999999993,
            "durationTicks": 120,
            "midi": 66,
            "name": "F#4",
            "ticks": 3840,
            "time": 4.9064945,
            "velocity": 0.8503937007874016
          },
          {
            "duration": 0.19480524999999993,
            "durationTicks": 120,
            "midi": 62,
            "name": "D4",
            "ticks": 3960,
            "time": 5.10129975,
            "velocity": 0.7322834645669292
          },
          {
            "duration": 0.19480524999999993,
            "durationTicks": 120,
            "midi": 66,
            "name": "F#4",
            "ticks": 3960,
            "time": 5.10129975,
            "velocity": 0.7322834645669292
          },
          {
            "duration": 0.8603898541666668,
            "durationTicks": 530,
            "midi": 54,
            "name": "F#3",
            "ticks": 4080,
            "time": 5.296105,
            "velocity": 0.6220472440944882
          },
          {
            "duration": 0.8603898541666668,
            "durationTicks": 530,
            "midi": 57,
            "name": "A3",
            "ticks": 4080,
            "time": 5.296105,
            "velocity": 0.6220472440944882
          },
          {
            "duration": 0.3814936145833334,
            "durationTicks": 235,
            "midi": 62,
            "name": "D4",
            "ticks": 4200,
            "time": 5.49091025,
            "velocity": 0.7795275590551181
          },
          {
            "duration": 0.3814936145833334,
            "durationTicks": 235,
            "midi": 66,
            "name": "F#4",
            "ticks": 4200,
            "time": 5.49091025,
            "velocity": 0.7795275590551181
          },
          {
            "duration": 0.3814936145833334,
            "durationTicks": 235,
            "midi": 62,
            "name": "D4",
            "ticks": 4440,
            "time": 5.88052075,
            "velocity": 0.7165354330708661
          },
          {
            "duration": 0.3814936145833334,
            "durationTicks": 235,
            "midi": 66,
            "name": "F#4",
            "ticks": 4440,
            "time": 5.88052075,
            "velocity": 0.7165354330708661
          },
          {
            "duration": 0.19480524999999993,
            "durationTicks": 120,
            "midi": 54,
            "name": "F#3",
            "ticks": 4680,
            "time": 6.27013125,
            "velocity": 0.7322834645669292
          },
          {
            "duration": 0.19480524999999993,
            "durationTicks": 120,
            "midi": 57,
            "name": "A3",
            "ticks": 4680,
            "time": 6.27013125,
            "velocity": 0.7322834645669292
          },
          {
            "duration": 0.5762988645833325,
            "durationTicks": 355,
            "midi": 62,
            "name": "D4",
            "ticks": 4800,
            "time": 6.4649365,
            "velocity": 0.7874015748031497
          },
          {
            "duration": 0.5762988645833325,
            "durationTicks": 355,
            "midi": 66,
            "name": "F#4",
            "ticks": 4800,
            "time": 6.4649365,
            "velocity": 0.7874015748031497
          },
          {
            "duration": 0.19480524999999993,
            "durationTicks": 120,
            "midi": 54,
            "name": "F#3",
            "ticks": 5160,
            "time": 7.04935225,
            "velocity": 0.7322834645669292
          },
          {
            "duration": 0.19480524999999993,
            "durationTicks": 120,
            "midi": 57,
            "name": "A3",
            "ticks": 5160,
            "time": 7.04935225,
            "velocity": 0.7322834645669292
          },
          {
            "duration": 0.5762988645833333,
            "durationTicks": 355,
            "midi": 62,
            "name": "D4",
            "ticks": 5280,
            "time": 7.2441575,
            "velocity": 0.8346456692913385
          },
          {
            "duration": 0.5762988645833333,
            "durationTicks": 355,
            "midi": 66,
            "name": "F#4",
            "ticks": 5280,
            "time": 7.2441575,
            "velocity": 0.7874015748031497
          },
          {
            "duration": 0.19480524999999993,
            "durationTicks": 120,
            "midi": 54,
            "name": "F#3",
            "ticks": 5640,
            "time": 7.82857325,
            "velocity": 0.6692913385826772
          },
          {
            "duration": 0.19480524999999993,
            "durationTicks": 120,
            "midi": 57,
            "name": "A3",
            "ticks": 5640,
            "time": 7.82857325,
            "velocity": 0.6692913385826772
          },
          {
            "duration": 0.19480524999999993,
            "durationTicks": 120,
            "midi": 61,
            "name": "C#4",
            "ticks": 5760,
            "time": 8.0233785,
            "velocity": 0.8976377952755905
          },
          {
            "duration": 0.19480524999999993,
            "durationTicks": 120,
            "midi": 66,
            "name": "F#4",
            "ticks": 5760,
            "time": 8.0233785,
            "velocity": 0.8976377952755905
          },
          {
            "duration": 0.19480524999999993,
            "durationTicks": 120,
            "midi": 61,
            "name": "C#4",
            "ticks": 5880,
            "time": 8.21818375,
            "velocity": 0.7559055118110236
          },
          {
            "duration": 0.19480524999999993,
            "durationTicks": 120,
            "midi": 66,
            "name": "F#4",
            "ticks": 5880,
            "time": 8.21818375,
            "velocity": 0.7559055118110236
          },
          {
            "duration": 0.19480524999999993,
            "durationTicks": 120,
            "midi": 54,
            "name": "F#3",
            "ticks": 6000,
            "time": 8.412989,
            "velocity": 0.6220472440944882
          },
          {
            "duration": 0.19480524999999993,
            "durationTicks": 120,
            "midi": 58,
            "name": "A#3",
            "ticks": 6000,
            "time": 8.412989,
            "velocity": 0.6220472440944882
          },
          {
            "duration": 0.3814936145833343,
            "durationTicks": 235,
            "midi": 61,
            "name": "C#4",
            "ticks": 6120,
            "time": 8.60779425,
            "velocity": 0.8031496062992126
          },
          {
            "duration": 0.3814936145833343,
            "durationTicks": 235,
            "midi": 66,
            "name": "F#4",
            "ticks": 6120,
            "time": 8.60779425,
            "velocity": 0.8031496062992126
          },
          {
            "duration": 0.4383118125000003,
            "durationTicks": 270,
            "midi": 61,
            "name": "C#4",
            "ticks": 6360,
            "time": 8.99740475,
            "velocity": 0.7559055118110236
          },
          {
            "duration": 0.4383118125000003,
            "durationTicks": 270,
            "midi": 66,
            "name": "F#4",
            "ticks": 6360,
            "time": 8.99740475,
            "velocity": 0.7559055118110236
          },
          {
            "duration": 0.19480524999999993,
            "durationTicks": 120,
            "midi": 54,
            "name": "F#3",
            "ticks": 6600,
            "time": 9.38701525,
            "velocity": 0.6850393700787402
          },
          {
            "duration": 0.19480524999999993,
            "durationTicks": 120,
            "midi": 58,
            "name": "A#3",
            "ticks": 6600,
            "time": 9.38701525,
            "velocity": 0.7007874015748031
          },
          {
            "duration": 0.5762988645833342,
            "durationTicks": 355,
            "midi": 61,
            "name": "C#4",
            "ticks": 6720,
            "time": 9.5818205,
            "velocity": 0.8346456692913385
          },
          {
            "duration": 0.5762988645833342,
            "durationTicks": 355,
            "midi": 66,
            "name": "F#4",
            "ticks": 6720,
            "time": 9.5818205,
            "velocity": 0.7401574803149606
          },
          {
            "duration": 0.19480524999999993,
            "durationTicks": 120,
            "midi": 54,
            "name": "F#3",
            "ticks": 7080,
            "time": 10.166236249999999,
            "velocity": 0.6456692913385826
          },
          {
            "duration": 0.19480524999999993,
            "durationTicks": 120,
            "midi": 58,
            "name": "A#3",
            "ticks": 7080,
            "time": 10.166236249999999,
            "velocity": 0.6850393700787402
          },
          {
            "duration": 0.5762988645833342,
            "durationTicks": 355,
            "midi": 61,
            "name": "C#4",
            "ticks": 7200,
            "time": 10.361041499999999,
            "velocity": 0.8346456692913385
          },
          {
            "duration": 0.5762988645833342,
            "durationTicks": 355,
            "midi": 66,
            "name": "F#4",
            "ticks": 7200,
            "time": 10.361041499999999,
            "velocity": 0.8740157480314961
          },
          {
            "duration": 0.19480524999999993,
            "durationTicks": 120,
            "midi": 54,
            "name": "F#3",
            "ticks": 7560,
            "time": 10.94545725,
            "velocity": 0.6456692913385826
          },
          {
            "duration": 0.19480524999999993,
            "durationTicks": 120,
            "midi": 58,
            "name": "A#3",
            "ticks": 7560,
            "time": 10.94545725,
            "velocity": 0.7165354330708661
          },
          {
            "duration": 0.19480524999999993,
            "durationTicks": 120,
            "midi": 62,
            "name": "D4",
            "ticks": 7680,
            "time": 11.1402625,
            "velocity": 0.8740157480314961
          },
          {
            "duration": 0.19480524999999993,
            "durationTicks": 120,
            "midi": 66,
            "name": "F#4",
            "ticks": 7680,
            "time": 11.1402625,
            "velocity": 0.8740157480314961
          },
          {
            "duration": 0.19480524999999993,
            "durationTicks": 120,
            "midi": 62,
            "name": "D4",
            "ticks": 7800,
            "time": 11.33506775,
            "velocity": 0.7322834645669292
          },
          {
            "duration": 0.19480524999999993,
            "durationTicks": 120,
            "midi": 66,
            "name": "F#4",
            "ticks": 7800,
            "time": 11.33506775,
            "velocity": 0.7322834645669292
          },
          {
            "duration": 0.19480524999999993,
            "durationTicks": 120,
            "midi": 54,
            "name": "F#3",
            "ticks": 7920,
            "time": 11.529873,
            "velocity": 0.6692913385826772
          },
          {
            "duration": 0.19480524999999993,
            "durationTicks": 120,
            "midi": 59,
            "name": "B3",
            "ticks": 7920,
            "time": 11.529873,
            "velocity": 0.6692913385826772
          },
          {
            "duration": 0.38149361458333253,
            "durationTicks": 235,
            "midi": 62,
            "name": "D4",
            "ticks": 8040,
            "time": 11.72467825,
            "velocity": 0.7795275590551181
          },
          {
            "duration": 0.38149361458333253,
            "durationTicks": 235,
            "midi": 66,
            "name": "F#4",
            "ticks": 8040,
            "time": 11.72467825,
            "velocity": 0.7795275590551181
          },
          {
            "duration": 0.38149361458333253,
            "durationTicks": 235,
            "midi": 62,
            "name": "D4",
            "ticks": 8280,
            "time": 12.11428875,
            "velocity": 0.7559055118110236
          },
          {
            "duration": 0.38149361458333253,
            "durationTicks": 235,
            "midi": 66,
            "name": "F#4",
            "ticks": 8280,
            "time": 12.11428875,
            "velocity": 0.7559055118110236
          },
          {
            "duration": 0.19480524999999993,
            "durationTicks": 120,
            "midi": 54,
            "name": "F#3",
            "ticks": 8520,
            "time": 12.50389925,
            "velocity": 0.7559055118110236
          },
          {
            "duration": 0.19480524999999993,
            "durationTicks": 120,
            "midi": 59,
            "name": "B3",
            "ticks": 8520,
            "time": 12.50389925,
            "velocity": 0.7559055118110236
          },
          {
            "duration": 0.5762988645833342,
            "durationTicks": 355,
            "midi": 62,
            "name": "D4",
            "ticks": 8640,
            "time": 12.6987045,
            "velocity": 0.8346456692913385
          },
          {
            "duration": 0.5762988645833342,
            "durationTicks": 355,
            "midi": 66,
            "name": "F#4",
            "ticks": 8640,
            "time": 12.6987045,
            "velocity": 0.7559055118110236
          },
          {
            "duration": 0.19480524999999993,
            "durationTicks": 120,
            "midi": 54,
            "name": "F#3",
            "ticks": 9000,
            "time": 13.28312025,
            "velocity": 0.7401574803149606
          },
          {
            "duration": 0.19480524999999993,
            "durationTicks": 120,
            "midi": 59,
            "name": "B3",
            "ticks": 9000,
            "time": 13.28312025,
            "velocity": 0.7165354330708661
          },
          {
            "duration": 0.5762988645833325,
            "durationTicks": 355,
            "midi": 62,
            "name": "D4",
            "ticks": 9120,
            "time": 13.4779255,
            "velocity": 0.8503937007874016
          },
          {
            "duration": 0.5762988645833325,
            "durationTicks": 355,
            "midi": 66,
            "name": "F#4",
            "ticks": 9120,
            "time": 13.4779255,
            "velocity": 0.8503937007874016
          },
          {
            "duration": 0.19480524999999993,
            "durationTicks": 120,
            "midi": 54,
            "name": "F#3",
            "ticks": 9480,
            "time": 14.06234125,
            "velocity": 0.7007874015748031
          },
          {
            "duration": 0.19480524999999993,
            "durationTicks": 120,
            "midi": 59,
            "name": "B3",
            "ticks": 9480,
            "time": 14.06234125,
            "velocity": 0.7165354330708661
          },
          {
            "duration": 0.19480524999999993,
            "durationTicks": 120,
            "midi": 62,
            "name": "D4",
            "ticks": 9600,
            "time": 14.2571465,
            "velocity": 0.8976377952755905
          },
          {
            "duration": 0.19480524999999993,
            "durationTicks": 120,
            "midi": 67,
            "name": "G4",
            "ticks": 9600,
            "time": 14.2571465,
            "velocity": 0.8976377952755905
          },
          {
            "duration": 0.19480524999999993,
            "durationTicks": 120,
            "midi": 62,
            "name": "D4",
            "ticks": 9720,
            "time": 14.45195175,
            "velocity": 0.7795275590551181
          },
          {
            "duration": 0.19480524999999993,
            "durationTicks": 120,
            "midi": 67,
            "name": "G4",
            "ticks": 9720,
            "time": 14.45195175,
            "velocity": 0.7795275590551181
          },
          {
            "duration": 0.19480524999999993,
            "durationTicks": 120,
            "midi": 55,
            "name": "G3",
            "ticks": 9840,
            "time": 14.646757,
            "velocity": 0.6456692913385826
          },
          {
            "duration": 0.19480524999999993,
            "durationTicks": 120,
            "midi": 59,
            "name": "B3",
            "ticks": 9840,
            "time": 14.646757,
            "velocity": 0.6456692913385826
          },
          {
            "duration": 0.38149361458333253,
            "durationTicks": 235,
            "midi": 62,
            "name": "D4",
            "ticks": 9960,
            "time": 14.841562249999999,
            "velocity": 0.7559055118110236
          },
          {
            "duration": 0.38149361458333253,
            "durationTicks": 235,
            "midi": 67,
            "name": "G4",
            "ticks": 9960,
            "time": 14.841562249999999,
            "velocity": 0.7559055118110236
          },
          {
            "duration": 0.38149361458333253,
            "durationTicks": 235,
            "midi": 62,
            "name": "D4",
            "ticks": 10200,
            "time": 15.231172749999999,
            "velocity": 0.7874015748031497
          },
          {
            "duration": 0.38149361458333253,
            "durationTicks": 235,
            "midi": 67,
            "name": "G4",
            "ticks": 10200,
            "time": 15.231172749999999,
            "velocity": 0.7559055118110236
          },
          {
            "duration": 0.19480524999999993,
            "durationTicks": 120,
            "midi": 55,
            "name": "G3",
            "ticks": 10440,
            "time": 15.620783249999999,
            "velocity": 0.6929133858267716
          },
          {
            "duration": 0.19480524999999993,
            "durationTicks": 120,
            "midi": 59,
            "name": "B3",
            "ticks": 10440,
            "time": 15.620783249999999,
            "velocity": 0.6929133858267716
          },
          {
            "duration": 0.5762988645833307,
            "durationTicks": 355,
            "midi": 62,
            "name": "D4",
            "ticks": 10560,
            "time": 15.815588499999999,
            "velocity": 0.7559055118110236
          },
          {
            "duration": 0.5762988645833307,
            "durationTicks": 355,
            "midi": 67,
            "name": "G4",
            "ticks": 10560,
            "time": 15.815588499999999,
            "velocity": 0.7401574803149606
          },
          {
            "duration": 0.19480524999999815,
            "durationTicks": 120,
            "midi": 55,
            "name": "G3",
            "ticks": 10920,
            "time": 16.40000425,
            "velocity": 0.7165354330708661
          },
          {
            "duration": 0.19480524999999815,
            "durationTicks": 120,
            "midi": 59,
            "name": "B3",
            "ticks": 10920,
            "time": 16.40000425,
            "velocity": 0.7007874015748031
          },
          {
            "duration": 0.5762988645833325,
            "durationTicks": 355,
            "midi": 62,
            "name": "D4",
            "ticks": 11040,
            "time": 16.594809499999997,
            "velocity": 0.8346456692913385
          },
          {
            "duration": 0.5762988645833325,
            "durationTicks": 355,
            "midi": 67,
            "name": "G4",
            "ticks": 11040,
            "time": 16.594809499999997,
            "velocity": 0.7874015748031497
          },
          {
            "duration": 0.1948052500000017,
            "durationTicks": 120,
            "midi": 55,
            "name": "G3",
            "ticks": 11400,
            "time": 17.17922525,
            "velocity": 0.7165354330708661
          },
          {
            "duration": 0.1948052500000017,
            "durationTicks": 120,
            "midi": 59,
            "name": "B3",
            "ticks": 11400,
            "time": 17.17922525,
            "velocity": 0.6456692913385826
          },
          {
            "duration": 0.19480524999999815,
            "durationTicks": 120,
            "midi": 62,
            "name": "D4",
            "ticks": 11520,
            "time": 17.3740305,
            "velocity": 0.8346456692913385
          },
          {
            "duration": 0.19480524999999815,
            "durationTicks": 120,
            "midi": 66,
            "name": "F#4",
            "ticks": 11520,
            "time": 17.3740305,
            "velocity": 0.8346456692913385
          },
          {
            "duration": 0.19480524999999815,
            "durationTicks": 120,
            "midi": 62,
            "name": "D4",
            "ticks": 11640,
            "time": 17.568835749999998,
            "velocity": 0.7401574803149606
          },
          {
            "duration": 0.19480524999999815,
            "durationTicks": 120,
            "midi": 66,
            "name": "F#4",
            "ticks": 11640,
            "time": 17.568835749999998,
            "velocity": 0.7401574803149606
          },
          {
            "duration": 0.1948052500000017,
            "durationTicks": 120,
            "midi": 54,
            "name": "F#3",
            "ticks": 11760,
            "time": 17.763640999999996,
            "velocity": 0.6220472440944882
          },
          {
            "duration": 0.1948052500000017,
            "durationTicks": 120,
            "midi": 57,
            "name": "A3",
            "ticks": 11760,
            "time": 17.763640999999996,
            "velocity": 0.6220472440944882
          },
          {
            "duration": 0.38149361458333075,
            "durationTicks": 235,
            "midi": 62,
            "name": "D4",
            "ticks": 11880,
            "time": 17.958446249999998,
            "velocity": 0.7559055118110236
          },
          {
            "duration": 0.38149361458333075,
            "durationTicks": 235,
            "midi": 66,
            "name": "F#4",
            "ticks": 11880,
            "time": 17.958446249999998,
            "velocity": 0.7559055118110236
          },
          {
            "duration": 0.4545455833333314,
            "durationTicks": 280,
            "midi": 62,
            "name": "D4",
            "ticks": 12120,
            "time": 18.348056749999998,
            "velocity": 0.7165354330708661
          },
          {
            "duration": 0.4626624687500005,
            "durationTicks": 285,
            "midi": 66,
            "name": "F#4",
            "ticks": 12120,
            "time": 18.348056749999998,
            "velocity": 0.7165354330708661
          },
          {
            "duration": 0.19480524999999815,
            "durationTicks": 120,
            "midi": 54,
            "name": "F#3",
            "ticks": 12360,
            "time": 18.737667249999998,
            "velocity": 0.6614173228346457
          },
          {
            "duration": 0.19480524999999815,
            "durationTicks": 120,
            "midi": 57,
            "name": "A3",
            "ticks": 12360,
            "time": 18.737667249999998,
            "velocity": 0.7007874015748031
          },
          {
            "duration": 0.5762988645833325,
            "durationTicks": 355,
            "midi": 62,
            "name": "D4",
            "ticks": 12480,
            "time": 18.932472499999996,
            "velocity": 0.8346456692913385
          },
          {
            "duration": 0.5762988645833325,
            "durationTicks": 355,
            "midi": 66,
            "name": "F#4",
            "ticks": 12480,
            "time": 18.932472499999996,
            "velocity": 0.7559055118110236
          },
          {
            "duration": 0.19480524999999815,
            "durationTicks": 120,
            "midi": 54,
            "name": "F#3",
            "ticks": 12840,
            "time": 19.516888249999997,
            "velocity": 0.6692913385826772
          },
          {
            "duration": 0.19480524999999815,
            "durationTicks": 120,
            "midi": 57,
            "name": "A3",
            "ticks": 12840,
            "time": 19.516888249999997,
            "velocity": 0.6692913385826772
          },
          {
            "duration": 0.5762988645833325,
            "durationTicks": 355,
            "midi": 62,
            "name": "D4",
            "ticks": 12960,
            "time": 19.711693499999996,
            "velocity": 0.7559055118110236
          },
          {
            "duration": 0.5762988645833325,
            "durationTicks": 355,
            "midi": 66,
            "name": "F#4",
            "ticks": 12960,
            "time": 19.711693499999996,
            "velocity": 0.7401574803149606
          },
          {
            "duration": 0.1948052500000017,
            "durationTicks": 120,
            "midi": 54,
            "name": "F#3",
            "ticks": 13320,
            "time": 20.296109249999997,
            "velocity": 0.7165354330708661
          },
          {
            "duration": 0.1948052500000017,
            "durationTicks": 120,
            "midi": 57,
            "name": "A3",
            "ticks": 13320,
            "time": 20.296109249999997,
            "velocity": 0.7165354330708661
          },
          {
            "duration": 0.19480524999999815,
            "durationTicks": 120,
            "midi": 64,
            "name": "E4",
            "ticks": 13440,
            "time": 20.4909145,
            "velocity": 0.9212598425196851
          },
          {
            "duration": 0.19480524999999815,
            "durationTicks": 120,
            "midi": 67,
            "name": "G4",
            "ticks": 13440,
            "time": 20.4909145,
            "velocity": 0.9212598425196851
          },
          {
            "duration": 0.1948052500000017,
            "durationTicks": 120,
            "midi": 64,
            "name": "E4",
            "ticks": 13560,
            "time": 20.685719749999997,
            "velocity": 0.7874015748031497
          },
          {
            "duration": 0.1948052500000017,
            "durationTicks": 120,
            "midi": 67,
            "name": "G4",
            "ticks": 13560,
            "time": 20.685719749999997,
            "velocity": 0.7874015748031497
          },
          {
            "duration": 0.19480524999999815,
            "durationTicks": 120,
            "midi": 55,
            "name": "G3",
            "ticks": 13680,
            "time": 20.880525,
            "velocity": 0.6456692913385826
          },
          {
            "duration": 0.19480524999999815,
            "durationTicks": 120,
            "midi": 59,
            "name": "B3",
            "ticks": 13680,
            "time": 20.880525,
            "velocity": 0.6456692913385826
          },
          {
            "duration": 0.3814936145833343,
            "durationTicks": 235,
            "midi": 64,
            "name": "E4",
            "ticks": 13800,
            "time": 21.075330249999997,
            "velocity": 0.8740157480314961
          },
          {
            "duration": 0.3814936145833343,
            "durationTicks": 235,
            "midi": 67,
            "name": "G4",
            "ticks": 13800,
            "time": 21.075330249999997,
            "velocity": 0.7874015748031497
          },
          {
            "duration": 0.3814936145833343,
            "durationTicks": 235,
            "midi": 64,
            "name": "E4",
            "ticks": 14040,
            "time": 21.464940749999997,
            "velocity": 0.7795275590551181
          },
          {
            "duration": 0.3814936145833343,
            "durationTicks": 235,
            "midi": 67,
            "name": "G4",
            "ticks": 14040,
            "time": 21.464940749999997,
            "velocity": 0.7795275590551181
          },
          {
            "duration": 0.1948052500000017,
            "durationTicks": 120,
            "midi": 55,
            "name": "G3",
            "ticks": 14280,
            "time": 21.854551249999997,
            "velocity": 0.7165354330708661
          },
          {
            "duration": 0.1948052500000017,
            "durationTicks": 120,
            "midi": 59,
            "name": "B3",
            "ticks": 14280,
            "time": 21.854551249999997,
            "velocity": 0.7165354330708661
          },
          {
            "duration": 0.5762988645833325,
            "durationTicks": 355,
            "midi": 64,
            "name": "E4",
            "ticks": 14400,
            "time": 22.0493565,
            "velocity": 0.7874015748031497
          },
          {
            "duration": 0.5762988645833325,
            "durationTicks": 355,
            "midi": 67,
            "name": "G4",
            "ticks": 14400,
            "time": 22.0493565,
            "velocity": 0.7874015748031497
          },
          {
            "duration": 0.1948052500000017,
            "durationTicks": 120,
            "midi": 55,
            "name": "G3",
            "ticks": 14760,
            "time": 22.633772249999996,
            "velocity": 0.7401574803149606
          },
          {
            "duration": 0.1948052500000017,
            "durationTicks": 120,
            "midi": 59,
            "name": "B3",
            "ticks": 14760,
            "time": 22.633772249999996,
            "velocity": 0.7165354330708661
          },
          {
            "duration": 0.5762988645833325,
            "durationTicks": 355,
            "midi": 64,
            "name": "E4",
            "ticks": 14880,
            "time": 22.828577499999998,
            "velocity": 0.7874015748031497
          },
          {
            "duration": 0.5762988645833325,
            "durationTicks": 355,
            "midi": 67,
            "name": "G4",
            "ticks": 14880,
            "time": 22.828577499999998,
            "velocity": 0.7874015748031497
          },
          {
            "duration": 0.1948052500000017,
            "durationTicks": 120,
            "midi": 55,
            "name": "G3",
            "ticks": 15240,
            "time": 23.412993249999996,
            "velocity": 0.7165354330708661
          },
          {
            "duration": 0.1948052500000017,
            "durationTicks": 120,
            "midi": 59,
            "name": "B3",
            "ticks": 15240,
            "time": 23.412993249999996,
            "velocity": 0.7165354330708661
          },
          {
            "duration": 0.19480524999999815,
            "durationTicks": 120,
            "midi": 61,
            "name": "C#4",
            "ticks": 15360,
            "time": 23.607798499999998,
            "velocity": 0.7874015748031497
          },
          {
            "duration": 0.19480524999999815,
            "durationTicks": 120,
            "midi": 66,
            "name": "F#4",
            "ticks": 15360,
            "time": 23.607798499999998,
            "velocity": 0.8346456692913385
          },
          {
            "duration": 0.1948052500000017,
            "durationTicks": 120,
            "midi": 61,
            "name": "C#4",
            "ticks": 15480,
            "time": 23.802603749999996,
            "velocity": 0.7165354330708661
          },
          {
            "duration": 0.1948052500000017,
            "durationTicks": 120,
            "midi": 66,
            "name": "F#4",
            "ticks": 15480,
            "time": 23.802603749999996,
            "velocity": 0.7165354330708661
          },
          {
            "duration": 0.19480524999999815,
            "durationTicks": 120,
            "midi": 54,
            "name": "F#3",
            "ticks": 15600,
            "time": 23.997408999999998,
            "velocity": 0.6220472440944882
          },
          {
            "duration": 0.19480524999999815,
            "durationTicks": 120,
            "midi": 58,
            "name": "A#3",
            "ticks": 15600,
            "time": 23.997408999999998,
            "velocity": 0.6220472440944882
          },
          {
            "duration": 0.3814936145833343,
            "durationTicks": 235,
            "midi": 61,
            "name": "C#4",
            "ticks": 15720,
            "time": 24.192214249999996,
            "velocity": 0.7401574803149606
          },
          {
            "duration": 0.3814936145833343,
            "durationTicks": 235,
            "midi": 66,
            "name": "F#4",
            "ticks": 15720,
            "time": 24.192214249999996,
            "velocity": 0.7401574803149606
          },
          {
            "duration": 0.3814936145833343,
            "durationTicks": 235,
            "midi": 61,
            "name": "C#4",
            "ticks": 15960,
            "time": 24.581824749999996,
            "velocity": 0.7165354330708661
          },
          {
            "duration": 0.3814936145833343,
            "durationTicks": 235,
            "midi": 66,
            "name": "F#4",
            "ticks": 15960,
            "time": 24.581824749999996,
            "velocity": 0.7165354330708661
          },
          {
            "duration": 0.1948052500000017,
            "durationTicks": 120,
            "midi": 54,
            "name": "F#3",
            "ticks": 16200,
            "time": 24.971435249999995,
            "velocity": 0.7322834645669292
          },
          {
            "duration": 0.1948052500000017,
            "durationTicks": 120,
            "midi": 58,
            "name": "A#3",
            "ticks": 16200,
            "time": 24.971435249999995,
            "velocity": 0.7322834645669292
          },
          {
            "duration": 0.5762988645833325,
            "durationTicks": 355,
            "midi": 61,
            "name": "C#4",
            "ticks": 16320,
            "time": 25.166240499999997,
            "velocity": 0.8740157480314961
          },
          {
            "duration": 0.5762988645833325,
            "durationTicks": 355,
            "midi": 66,
            "name": "F#4",
            "ticks": 16320,
            "time": 25.166240499999997,
            "velocity": 0.7874015748031497
          },
          {
            "duration": 0.1948052500000017,
            "durationTicks": 120,
            "midi": 54,
            "name": "F#3",
            "ticks": 16680,
            "time": 25.750656249999995,
            "velocity": 0.6850393700787402
          },
          {
            "duration": 0.1948052500000017,
            "durationTicks": 120,
            "midi": 58,
            "name": "A#3",
            "ticks": 16680,
            "time": 25.750656249999995,
            "velocity": 0.6456692913385826
          },
          {
            "duration": 0.576298864583336,
            "durationTicks": 355,
            "midi": 61,
            "name": "C#4",
            "ticks": 16800,
            "time": 25.945461499999997,
            "velocity": 0.7559055118110236
          },
          {
            "duration": 0.576298864583336,
            "durationTicks": 355,
            "midi": 66,
            "name": "F#4",
            "ticks": 16800,
            "time": 25.945461499999997,
            "velocity": 0.7559055118110236
          },
          {
            "duration": 0.19480524999999815,
            "durationTicks": 120,
            "midi": 54,
            "name": "F#3",
            "ticks": 17160,
            "time": 26.52987725,
            "velocity": 0.6614173228346457
          },
          {
            "duration": 0.19480524999999815,
            "durationTicks": 120,
            "midi": 58,
            "name": "A#3",
            "ticks": 17160,
            "time": 26.52987725,
            "velocity": 0.6220472440944882
          },
          {
            "duration": 0.3814936145833343,
            "durationTicks": 235,
            "midi": 59,
            "name": "B3",
            "ticks": 17280,
            "time": 26.724682499999997,
            "velocity": 0.8110236220472441
          }
        ]
      },
      {
        "channel": 0,
        "controlChanges": {
          "7": [
            {
              "number": 7,
              "ticks": 2,
              "time": 0.0016666666666666668,
              "value": 1
            }
          ],
          "11": [
            {
              "number": 11,
              "ticks": 2,
              "time": 0.0016666666666666668,
              "value": 1
            }
          ]
        },
        "pitchBends": [],
        "instrument": {
          "family": "piano",
          "number": 0,
          "name": "acoustic grand piano"
        },
        "name": "(C) HitTrax: Hotel California",
        "notes": [],
        "endOfTrackTicks": 19200
      },
      {
        "channel": 3,
        "controlChanges": {
          "10": [
            {
              "number": 10,
              "ticks": 545,
              "time": 0.4541666666666667,
              "value": 0.4251968503937008
            }
          ],
          "91": [
            {
              "number": 91,
              "ticks": 550,
              "time": 0.4583333333333333,
              "value": 0.7874015748031497
            }
          ],
          "93": [
            {
              "number": 93,
              "ticks": 550,
              "time": 0.4583333333333333,
              "value": 0.5039370078740157
            }
          ]
        },
        "pitchBends": [],
        "instrument": {
          "family": "reed",
          "number": 66,
          "name": "tenor sax"
        },
        "name": "",
        "notes": [
          {
            "duration": 0.12175328125000018,
            "durationTicks": 75,
            "midi": 67,
            "name": "G4",
            "ticks": 2160,
            "time": 2.179221,
            "velocity": 0.8818897637795275
          },
          {
            "duration": 0.15422082291666683,
            "durationTicks": 95,
            "midi": 67,
            "name": "G4",
            "ticks": 2280,
            "time": 2.37402625,
            "velocity": 0.8818897637795275
          },
          {
            "duration": 0.15422082291666683,
            "durationTicks": 95,
            "midi": 67,
            "name": "G4",
            "ticks": 2520,
            "time": 2.76363675,
            "velocity": 0.9133858267716536
          },
          {
            "duration": 0.13798705208333395,
            "durationTicks": 85,
            "midi": 67,
            "name": "G4",
            "ticks": 2760,
            "time": 3.1532472499999997,
            "velocity": 0.84251968503937
          },
          {
            "duration": 0.1704545937500006,
            "durationTicks": 105,
            "midi": 67,
            "name": "G4",
            "ticks": 2880,
            "time": 3.3480524999999997,
            "velocity": 0.8661417322834646
          },
          {
            "duration": 0.16233770833333327,
            "durationTicks": 100,
            "midi": 67,
            "name": "G4",
            "ticks": 3120,
            "time": 3.7376630000000004,
            "velocity": 0.8818897637795275
          },
          {
            "duration": 0.36525984374999965,
            "durationTicks": 225,
            "midi": 69,
            "name": "A4",
            "ticks": 3360,
            "time": 4.1272735,
            "velocity": 0.8818897637795275
          },
          {
            "duration": 0.1055195104166664,
            "durationTicks": 65,
            "midi": 67,
            "name": "G4",
            "ticks": 3600,
            "time": 4.516884,
            "velocity": 0.84251968503937
          },
          {
            "duration": 0.38149361458333253,
            "durationTicks": 235,
            "midi": 67,
            "name": "G4",
            "ticks": 3720,
            "time": 4.71168925,
            "velocity": 0.8267716535433071
          },
          {
            "duration": 0.21915590625000014,
            "durationTicks": 135,
            "midi": 66,
            "name": "F#4",
            "ticks": 3960,
            "time": 5.10129975,
            "velocity": 0.8110236220472441
          },
          {
            "duration": 0.12175328125000018,
            "durationTicks": 75,
            "midi": 66,
            "name": "F#4",
            "ticks": 5520,
            "time": 7.633768,
            "velocity": 0.8267716535433071
          },
          {
            "duration": 0.08928573958333352,
            "durationTicks": 55,
            "midi": 66,
            "name": "F#4",
            "ticks": 5640,
            "time": 7.82857325,
            "velocity": 0.7322834645669292
          },
          {
            "duration": 0.3977273854166654,
            "durationTicks": 245,
            "midi": 66,
            "name": "F#4",
            "ticks": 5760,
            "time": 8.0233785,
            "velocity": 0.8267716535433071
          },
          {
            "duration": 0.12175328124999929,
            "durationTicks": 75,
            "midi": 64,
            "name": "E4",
            "ticks": 6000,
            "time": 8.412989,
            "velocity": 0.7874015748031497
          },
          {
            "duration": 0.19480524999999993,
            "durationTicks": 120,
            "midi": 64,
            "name": "E4",
            "ticks": 6120,
            "time": 8.60779425,
            "velocity": 0.8110236220472441
          },
          {
            "duration": 0.11363639583333374,
            "durationTicks": 70,
            "midi": 64,
            "name": "E4",
            "ticks": 7440,
            "time": 10.750652,
            "velocity": 0.8110236220472441
          },
          {
            "duration": 0.10551951041666463,
            "durationTicks": 65,
            "midi": 64,
            "name": "E4",
            "ticks": 7560,
            "time": 10.94545725,
            "velocity": 0.8267716535433071
          },
          {
            "duration": 0.38149361458333253,
            "durationTicks": 235,
            "midi": 64,
            "name": "E4",
            "ticks": 7680,
            "time": 11.1402625,
            "velocity": 0.84251968503937
          },
          {
            "duration": 0.1055195104166664,
            "durationTicks": 65,
            "midi": 62,
            "name": "D4",
            "ticks": 7920,
            "time": 11.529873,
            "velocity": 0.7322834645669292
          },
          {
            "duration": 0.21915590625000014,
            "durationTicks": 135,
            "midi": 62,
            "name": "D4",
            "ticks": 8040,
            "time": 11.72467825,
            "velocity": 0.8110236220472441
          },
          {
            "duration": 0.12175328124999929,
            "durationTicks": 75,
            "midi": 67,
            "name": "G4",
            "ticks": 9600,
            "time": 14.2571465,
            "velocity": 0.8661417322834646
          },
          {
            "duration": 0.12175328124999929,
            "durationTicks": 75,
            "midi": 67,
            "name": "G4",
            "ticks": 9720,
            "time": 14.45195175,
            "velocity": 0.84251968503937
          },
          {
            "duration": 0.11363639583333196,
            "durationTicks": 70,
            "midi": 67,
            "name": "G4",
            "ticks": 9840,
            "time": 14.646757,
            "velocity": 0.8110236220472441
          },
          {
            "duration": 0.1461039374999995,
            "durationTicks": 90,
            "midi": 67,
            "name": "G4",
            "ticks": 9960,
            "time": 14.841562249999999,
            "velocity": 0.84251968503937
          },
          {
            "duration": 0.1461039374999995,
            "durationTicks": 90,
            "midi": 67,
            "name": "G4",
            "ticks": 10200,
            "time": 15.231172749999999,
            "velocity": 0.8661417322834646
          },
          {
            "duration": 0.13798705208333217,
            "durationTicks": 85,
            "midi": 67,
            "name": "G4",
            "ticks": 10440,
            "time": 15.620783249999999,
            "velocity": 0.84251968503937
          },
          {
            "duration": 0.17045459374999972,
            "durationTicks": 105,
            "midi": 67,
            "name": "G4",
            "ticks": 10560,
            "time": 15.815588499999999,
            "velocity": 0.84251968503937
          },
          {
            "duration": 0.15422082291667039,
            "durationTicks": 95,
            "midi": 67,
            "name": "G4",
            "ticks": 10800,
            "time": 16.205198999999997,
            "velocity": 0.8661417322834646
          },
          {
            "duration": 0.3814936145833343,
            "durationTicks": 235,
            "midi": 69,
            "name": "A4",
            "ticks": 11040,
            "time": 16.594809499999997,
            "velocity": 0.8661417322834646
          },
          {
            "duration": 0.0892857395833353,
            "durationTicks": 55,
            "midi": 67,
            "name": "G4",
            "ticks": 11280,
            "time": 16.984419999999997,
            "velocity": 0.8267716535433071
          },
          {
            "duration": 0.4139611562500001,
            "durationTicks": 255,
            "midi": 67,
            "name": "G4",
            "ticks": 11400,
            "time": 17.17922525,
            "velocity": 0.7480314960629921
          },
          {
            "duration": 0.19480524999999815,
            "durationTicks": 120,
            "midi": 66,
            "name": "F#4",
            "ticks": 11640,
            "time": 17.568835749999998,
            "velocity": 0.7874015748031497
          },
          {
            "duration": 0.12175328124999751,
            "durationTicks": 75,
            "midi": 66,
            "name": "F#4",
            "ticks": 13200,
            "time": 20.101304,
            "velocity": 0.8267716535433071
          },
          {
            "duration": 0.08928573958333175,
            "durationTicks": 55,
            "midi": 66,
            "name": "F#4",
            "ticks": 13320,
            "time": 20.296109249999997,
            "velocity": 0.7480314960629921
          },
          {
            "duration": 0.38149361458333075,
            "durationTicks": 235,
            "midi": 66,
            "name": "F#4",
            "ticks": 13440,
            "time": 20.4909145,
            "velocity": 0.8110236220472441
          },
          {
            "duration": 0.12175328124999751,
            "durationTicks": 75,
            "midi": 64,
            "name": "E4",
            "ticks": 13680,
            "time": 20.880525,
            "velocity": 0.8110236220472441
          },
          {
            "duration": 0.38961049999999986,
            "durationTicks": 240,
            "midi": 64,
            "name": "E4",
            "ticks": 13800,
            "time": 21.075330249999997,
            "velocity": 0.8110236220472441
          },
          {
            "duration": 0.11363639583333196,
            "durationTicks": 70,
            "midi": 67,
            "name": "G4",
            "ticks": 15120,
            "time": 23.218187999999998,
            "velocity": 0.8267716535433071
          },
          {
            "duration": 0.09740262500000085,
            "durationTicks": 60,
            "midi": 67,
            "name": "G4",
            "ticks": 15240,
            "time": 23.412993249999996,
            "velocity": 0.8267716535433071
          },
          {
            "duration": 0.38149361458333075,
            "durationTicks": 235,
            "midi": 67,
            "name": "G4",
            "ticks": 15360,
            "time": 23.607798499999998,
            "velocity": 0.84251968503937
          },
          {
            "duration": 0.1055195104166664,
            "durationTicks": 65,
            "midi": 66,
            "name": "F#4",
            "ticks": 15600,
            "time": 23.997408999999998,
            "velocity": 0.7322834645669292
          },
          {
            "duration": 0.28409098958333345,
            "durationTicks": 175,
            "midi": 66,
            "name": "F#4",
            "ticks": 15720,
            "time": 24.192214249999996,
            "velocity": 0.7322834645669292
          }
        ]
      },
      {
        "channel": 0,
        "controlChanges": {
          "7": [
            {
              "number": 7,
              "ticks": 3,
              "time": 0.0025000000000000005,
              "value": 0.8188976377952756
            }
          ],
          "11": [
            {
              "number": 11,
              "ticks": 3,
              "time": 0.0025000000000000005,
              "value": 1
            }
          ]
        },
        "pitchBends": [],
        "instrument": {
          "family": "piano",
          "number": 0,
          "name": "acoustic grand piano"
        },
        "name": "(C) HitTrax: Hotel California",
        "notes": [],
        "endOfTrackTicks": 19200
      },
      {
        "channel": 4,
        "controlChanges": {
          "10": [
            {
              "number": 10,
              "ticks": 570,
              "time": 0.47500000000000003,
              "value": 0.5826771653543307
            }
          ],
          "91": [
            {
              "number": 91,
              "ticks": 575,
              "time": 0.47916666666666674,
              "value": 0.6299212598425197
            }
          ],
          "93": [
            {
              "number": 93,
              "ticks": 575,
              "time": 0.47916666666666674,
              "value": 0.5039370078740157
            }
          ]
        },
        "pitchBends": [],
        "instrument": {
          "family": "ensemble",
          "number": 54,
          "name": "synth voice"
        },
        "name": "",
        "notes": [
          {
            "duration": 0.19480524999999993,
            "durationTicks": 120,
            "midi": 74,
            "name": "D5",
            "ticks": 2160,
            "time": 2.179221,
            "velocity": 0.6299212598425197
          },
          {
            "duration": 0.19480524999999993,
            "durationTicks": 120,
            "midi": 83,
            "name": "B5",
            "ticks": 2160,
            "time": 2.179221,
            "velocity": 0.6299212598425197
          },
          {
            "duration": 0.19480524999999993,
            "durationTicks": 120,
            "midi": 86,
            "name": "D6",
            "ticks": 2160,
            "time": 2.179221,
            "velocity": 0.6299212598425197
          },
          {
            "duration": 0.19480524999999993,
            "durationTicks": 120,
            "midi": 74,
            "name": "D5",
            "ticks": 2280,
            "time": 2.37402625,
            "velocity": 0.6299212598425197
          },
          {
            "duration": 0.19480524999999993,
            "durationTicks": 120,
            "midi": 83,
            "name": "B5",
            "ticks": 2280,
            "time": 2.37402625,
            "velocity": 0.6299212598425197
          },
          {
            "duration": 0.19480524999999993,
            "durationTicks": 120,
            "midi": 86,
            "name": "D6",
            "ticks": 2280,
            "time": 2.37402625,
            "velocity": 0.6299212598425197
          },
          {
            "duration": 0.19480524999999993,
            "durationTicks": 120,
            "midi": 74,
            "name": "D5",
            "ticks": 2520,
            "time": 2.76363675,
            "velocity": 0.6299212598425197
          },
          {
            "duration": 0.19480524999999993,
            "durationTicks": 120,
            "midi": 83,
            "name": "B5",
            "ticks": 2520,
            "time": 2.76363675,
            "velocity": 0.6299212598425197
          },
          {
            "duration": 0.19480524999999993,
            "durationTicks": 120,
            "midi": 86,
            "name": "D6",
            "ticks": 2520,
            "time": 2.76363675,
            "velocity": 0.6299212598425197
          },
          {
            "duration": 0.19480524999999993,
            "durationTicks": 120,
            "midi": 74,
            "name": "D5",
            "ticks": 2760,
            "time": 3.1532472499999997,
            "velocity": 0.6299212598425197
          },
          {
            "duration": 0.19480524999999993,
            "durationTicks": 120,
            "midi": 83,
            "name": "B5",
            "ticks": 2760,
            "time": 3.1532472499999997,
            "velocity": 0.6299212598425197
          },
          {
            "duration": 0.19480524999999993,
            "durationTicks": 120,
            "midi": 86,
            "name": "D6",
            "ticks": 2760,
            "time": 3.1532472499999997,
            "velocity": 0.6299212598425197
          },
          {
            "duration": 0.19480524999999993,
            "durationTicks": 120,
            "midi": 74,
            "name": "D5",
            "ticks": 2880,
            "time": 3.3480524999999997,
            "velocity": 0.6299212598425197
          },
          {
            "duration": 0.19480524999999993,
            "durationTicks": 120,
            "midi": 83,
            "name": "B5",
            "ticks": 2880,
            "time": 3.3480524999999997,
            "velocity": 0.6299212598425197
          },
          {
            "duration": 0.19480524999999993,
            "durationTicks": 120,
            "midi": 86,
            "name": "D6",
            "ticks": 2880,
            "time": 3.3480524999999997,
            "velocity": 0.6299212598425197
          },
          {
            "duration": 0.19480524999999993,
            "durationTicks": 120,
            "midi": 74,
            "name": "D5",
            "ticks": 3120,
            "time": 3.7376630000000004,
            "velocity": 0.6299212598425197
          },
          {
            "duration": 0.19480524999999993,
            "durationTicks": 120,
            "midi": 83,
            "name": "B5",
            "ticks": 3120,
            "time": 3.7376630000000004,
            "velocity": 0.6299212598425197
          },
          {
            "duration": 0.19480524999999993,
            "durationTicks": 120,
            "midi": 86,
            "name": "D6",
            "ticks": 3120,
            "time": 3.7376630000000004,
            "velocity": 0.6299212598425197
          },
          {
            "duration": 0.38961049999999986,
            "durationTicks": 240,
            "midi": 76,
            "name": "E5",
            "ticks": 3360,
            "time": 4.1272735,
            "velocity": 0.6299212598425197
          },
          {
            "duration": 0.38961049999999986,
            "durationTicks": 240,
            "midi": 85,
            "name": "C#6",
            "ticks": 3360,
            "time": 4.1272735,
            "velocity": 0.6299212598425197
          },
          {
            "duration": 0.38961049999999986,
            "durationTicks": 240,
            "midi": 86,
            "name": "D6",
            "ticks": 3360,
            "time": 4.1272735,
            "velocity": 0.6299212598425197
          },
          {
            "duration": 0.19480524999999993,
            "durationTicks": 120,
            "midi": 74,
            "name": "D5",
            "ticks": 3600,
            "time": 4.516884,
            "velocity": 0.6299212598425197
          },
          {
            "duration": 0.19480524999999993,
            "durationTicks": 120,
            "midi": 83,
            "name": "B5",
            "ticks": 3600,
            "time": 4.516884,
            "velocity": 0.6299212598425197
          },
          {
            "duration": 0.19480524999999993,
            "durationTicks": 120,
            "midi": 86,
            "name": "D6",
            "ticks": 3600,
            "time": 4.516884,
            "velocity": 0.6299212598425197
          },
          {
            "duration": 0.38961049999999986,
            "durationTicks": 240,
            "midi": 74,
            "name": "D5",
            "ticks": 3720,
            "time": 4.71168925,
            "velocity": 0.6299212598425197
          },
          {
            "duration": 0.38961049999999986,
            "durationTicks": 240,
            "midi": 83,
            "name": "B5",
            "ticks": 3720,
            "time": 4.71168925,
            "velocity": 0.6299212598425197
          },
          {
            "duration": 0.38961049999999986,
            "durationTicks": 240,
            "midi": 86,
            "name": "D6",
            "ticks": 3720,
            "time": 4.71168925,
            "velocity": 0.6299212598425197
          },
          {
            "duration": 0.19480524999999993,
            "durationTicks": 120,
            "midi": 74,
            "name": "D5",
            "ticks": 3960,
            "time": 5.10129975,
            "velocity": 0.6299212598425197
          },
          {
            "duration": 0.19480524999999993,
            "durationTicks": 120,
            "midi": 81,
            "name": "A5",
            "ticks": 3960,
            "time": 5.10129975,
            "velocity": 0.6299212598425197
          },
          {
            "duration": 0.19480524999999993,
            "durationTicks": 120,
            "midi": 86,
            "name": "D6",
            "ticks": 3960,
            "time": 5.10129975,
            "velocity": 0.6299212598425197
          },
          {
            "duration": 0.19480524999999993,
            "durationTicks": 120,
            "midi": 74,
            "name": "D5",
            "ticks": 9600,
            "time": 14.2571465,
            "velocity": 0.6299212598425197
          },
          {
            "duration": 0.19480524999999993,
            "durationTicks": 120,
            "midi": 83,
            "name": "B5",
            "ticks": 9600,
            "time": 14.2571465,
            "velocity": 0.6299212598425197
          },
          {
            "duration": 0.19480524999999993,
            "durationTicks": 120,
            "midi": 86,
            "name": "D6",
            "ticks": 9600,
            "time": 14.2571465,
            "velocity": 0.6299212598425197
          },
          {
            "duration": 0.19480524999999993,
            "durationTicks": 120,
            "midi": 74,
            "name": "D5",
            "ticks": 9720,
            "time": 14.45195175,
            "velocity": 0.6299212598425197
          },
          {
            "duration": 0.19480524999999993,
            "durationTicks": 120,
            "midi": 83,
            "name": "B5",
            "ticks": 9720,
            "time": 14.45195175,
            "velocity": 0.6299212598425197
          },
          {
            "duration": 0.19480524999999993,
            "durationTicks": 120,
            "midi": 86,
            "name": "D6",
            "ticks": 9720,
            "time": 14.45195175,
            "velocity": 0.6299212598425197
          },
          {
            "duration": 0.19480524999999993,
            "durationTicks": 120,
            "midi": 74,
            "name": "D5",
            "ticks": 9840,
            "time": 14.646757,
            "velocity": 0.6299212598425197
          },
          {
            "duration": 0.19480524999999993,
            "durationTicks": 120,
            "midi": 83,
            "name": "B5",
            "ticks": 9840,
            "time": 14.646757,
            "velocity": 0.6299212598425197
          },
          {
            "duration": 0.19480524999999993,
            "durationTicks": 120,
            "midi": 86,
            "name": "D6",
            "ticks": 9840,
            "time": 14.646757,
            "velocity": 0.6299212598425197
          },
          {
            "duration": 0.19480524999999993,
            "durationTicks": 120,
            "midi": 74,
            "name": "D5",
            "ticks": 9960,
            "time": 14.841562249999999,
            "velocity": 0.6299212598425197
          },
          {
            "duration": 0.19480524999999993,
            "durationTicks": 120,
            "midi": 83,
            "name": "B5",
            "ticks": 9960,
            "time": 14.841562249999999,
            "velocity": 0.6299212598425197
          },
          {
            "duration": 0.19480524999999993,
            "durationTicks": 120,
            "midi": 86,
            "name": "D6",
            "ticks": 9960,
            "time": 14.841562249999999,
            "velocity": 0.6299212598425197
          },
          {
            "duration": 0.19480524999999993,
            "durationTicks": 120,
            "midi": 74,
            "name": "D5",
            "ticks": 10200,
            "time": 15.231172749999999,
            "velocity": 0.6299212598425197
          },
          {
            "duration": 0.19480524999999993,
            "durationTicks": 120,
            "midi": 83,
            "name": "B5",
            "ticks": 10200,
            "time": 15.231172749999999,
            "velocity": 0.6299212598425197
          },
          {
            "duration": 0.19480524999999993,
            "durationTicks": 120,
            "midi": 86,
            "name": "D6",
            "ticks": 10200,
            "time": 15.231172749999999,
            "velocity": 0.6299212598425197
          },
          {
            "duration": 0.19480524999999993,
            "durationTicks": 120,
            "midi": 74,
            "name": "D5",
            "ticks": 10440,
            "time": 15.620783249999999,
            "velocity": 0.6299212598425197
          },
          {
            "duration": 0.19480524999999993,
            "durationTicks": 120,
            "midi": 83,
            "name": "B5",
            "ticks": 10440,
            "time": 15.620783249999999,
            "velocity": 0.6299212598425197
          },
          {
            "duration": 0.19480524999999993,
            "durationTicks": 120,
            "midi": 86,
            "name": "D6",
            "ticks": 10440,
            "time": 15.620783249999999,
            "velocity": 0.6299212598425197
          },
          {
            "duration": 0.19480524999999993,
            "durationTicks": 120,
            "midi": 74,
            "name": "D5",
            "ticks": 10560,
            "time": 15.815588499999999,
            "velocity": 0.6299212598425197
          },
          {
            "duration": 0.19480524999999993,
            "durationTicks": 120,
            "midi": 83,
            "name": "B5",
            "ticks": 10560,
            "time": 15.815588499999999,
            "velocity": 0.6299212598425197
          },
          {
            "duration": 0.19480524999999993,
            "durationTicks": 120,
            "midi": 86,
            "name": "D6",
            "ticks": 10560,
            "time": 15.815588499999999,
            "velocity": 0.6299212598425197
          },
          {
            "duration": 0.1948052500000017,
            "durationTicks": 120,
            "midi": 74,
            "name": "D5",
            "ticks": 10800,
            "time": 16.205198999999997,
            "velocity": 0.6299212598425197
          },
          {
            "duration": 0.1948052500000017,
            "durationTicks": 120,
            "midi": 83,
            "name": "B5",
            "ticks": 10800,
            "time": 16.205198999999997,
            "velocity": 0.6299212598425197
          },
          {
            "duration": 0.1948052500000017,
            "durationTicks": 120,
            "midi": 86,
            "name": "D6",
            "ticks": 10800,
            "time": 16.205198999999997,
            "velocity": 0.6299212598425197
          },
          {
            "duration": 0.38961049999999986,
            "durationTicks": 240,
            "midi": 76,
            "name": "E5",
            "ticks": 11040,
            "time": 16.594809499999997,
            "velocity": 0.6299212598425197
          },
          {
            "duration": 0.38961049999999986,
            "durationTicks": 240,
            "midi": 85,
            "name": "C#6",
            "ticks": 11040,
            "time": 16.594809499999997,
            "velocity": 0.6299212598425197
          },
          {
            "duration": 0.38961049999999986,
            "durationTicks": 240,
            "midi": 86,
            "name": "D6",
            "ticks": 11040,
            "time": 16.594809499999997,
            "velocity": 0.6299212598425197
          },
          {
            "duration": 0.1948052500000017,
            "durationTicks": 120,
            "midi": 74,
            "name": "D5",
            "ticks": 11280,
            "time": 16.984419999999997,
            "velocity": 0.6299212598425197
          },
          {
            "duration": 0.1948052500000017,
            "durationTicks": 120,
            "midi": 83,
            "name": "B5",
            "ticks": 11280,
            "time": 16.984419999999997,
            "velocity": 0.6299212598425197
          },
          {
            "duration": 0.1948052500000017,
            "durationTicks": 120,
            "midi": 86,
            "name": "D6",
            "ticks": 11280,
            "time": 16.984419999999997,
            "velocity": 0.6299212598425197
          },
          {
            "duration": 0.38961049999999986,
            "durationTicks": 240,
            "midi": 74,
            "name": "D5",
            "ticks": 11400,
            "time": 17.17922525,
            "velocity": 0.6299212598425197
          },
          {
            "duration": 0.38961049999999986,
            "durationTicks": 240,
            "midi": 83,
            "name": "B5",
            "ticks": 11400,
            "time": 17.17922525,
            "velocity": 0.6299212598425197
          },
          {
            "duration": 0.38961049999999986,
            "durationTicks": 240,
            "midi": 86,
            "name": "D6",
            "ticks": 11400,
            "time": 17.17922525,
            "velocity": 0.6299212598425197
          },
          {
            "duration": 0.19480524999999815,
            "durationTicks": 120,
            "midi": 74,
            "name": "D5",
            "ticks": 11640,
            "time": 17.568835749999998,
            "velocity": 0.6299212598425197
          },
          {
            "duration": 0.19480524999999815,
            "durationTicks": 120,
            "midi": 81,
            "name": "A5",
            "ticks": 11640,
            "time": 17.568835749999998,
            "velocity": 0.6299212598425197
          },
          {
            "duration": 0.19480524999999815,
            "durationTicks": 120,
            "midi": 86,
            "name": "D6",
            "ticks": 11640,
            "time": 17.568835749999998,
            "velocity": 0.6299212598425197
          }
        ]
      },
      {
        "channel": 0,
        "controlChanges": {
          "7": [
            {
              "number": 7,
              "ticks": 4,
              "time": 0.0033333333333333335,
              "value": 0.7952755905511811
            }
          ],
          "11": [
            {
              "number": 11,
              "ticks": 4,
              "time": 0.0033333333333333335,
              "value": 1
            }
          ]
        },
        "pitchBends": [],
        "instrument": {
          "family": "piano",
          "number": 0,
          "name": "acoustic grand piano"
        },
        "name": "(C) HitTrax: Hotel California",
        "notes": [],
        "endOfTrackTicks": 19200
      },
      {
        "channel": 5,
        "controlChanges": {
          "10": [
            {
              "number": 10,
              "ticks": 595,
              "time": 0.49583333333333335,
              "value": 0.3464566929133858
            }
          ],
          "91": [
            {
              "number": 91,
              "ticks": 600,
              "time": 0.5,
              "value": 0.7086614173228346
            }
          ],
          "93": [
            {
              "number": 93,
              "ticks": 600,
              "time": 0.5,
              "value": 0.31496062992125984
            }
          ]
        },
        "pitchBends": [],
        "instrument": {
          "family": "guitar",
          "number": 25,
          "name": "acoustic guitar (steel)"
        },
        "name": "",
        "notes": [
          {
            "duration": 0.3814936145833334,
            "durationTicks": 235,
            "midi": 55,
            "name": "G3",
            "ticks": 2280,
            "time": 2.37402625,
            "velocity": 0.905511811023622
          },
          {
            "duration": 0.39772738541666675,
            "durationTicks": 245,
            "midi": 59,
            "name": "B3",
            "ticks": 2520,
            "time": 2.76363675,
            "velocity": 0.7007874015748031
          },
          {
            "duration": 0.4139611562500001,
            "durationTicks": 255,
            "midi": 62,
            "name": "D4",
            "ticks": 2520,
            "time": 2.76363675,
            "velocity": 0.7007874015748031
          },
          {
            "duration": 1.7207797083333336,
            "durationTicks": 1060,
            "midi": 55,
            "name": "G3",
            "ticks": 2760,
            "time": 3.1532472499999997,
            "velocity": 0.8818897637795275
          },
          {
            "duration": 1.5259744583333337,
            "durationTicks": 940,
            "midi": 59,
            "name": "B3",
            "ticks": 2880,
            "time": 3.3480524999999997,
            "velocity": 0.7244094488188977
          },
          {
            "duration": 1.5259744583333337,
            "durationTicks": 940,
            "midi": 62,
            "name": "D4",
            "ticks": 2880,
            "time": 3.3480524999999997,
            "velocity": 0.7244094488188977
          },
          {
            "duration": 0.3814936145833334,
            "durationTicks": 235,
            "midi": 54,
            "name": "F#3",
            "ticks": 4200,
            "time": 5.49091025,
            "velocity": 0.84251968503937
          },
          {
            "duration": 0.3814936145833334,
            "durationTicks": 235,
            "midi": 57,
            "name": "A3",
            "ticks": 4440,
            "time": 5.88052075,
            "velocity": 0.7480314960629921
          },
          {
            "duration": 0.3814936145833334,
            "durationTicks": 235,
            "midi": 62,
            "name": "D4",
            "ticks": 4440,
            "time": 5.88052075,
            "velocity": 0.7480314960629921
          },
          {
            "duration": 1.7207797083333336,
            "durationTicks": 1060,
            "midi": 54,
            "name": "F#3",
            "ticks": 4680,
            "time": 6.27013125,
            "velocity": 0.8582677165354331
          },
          {
            "duration": 1.5259744583333337,
            "durationTicks": 940,
            "midi": 57,
            "name": "A3",
            "ticks": 4800,
            "time": 6.4649365,
            "velocity": 0.7952755905511811
          },
          {
            "duration": 1.5259744583333337,
            "durationTicks": 940,
            "midi": 62,
            "name": "D4",
            "ticks": 4800,
            "time": 6.4649365,
            "velocity": 0.7952755905511811
          },
          {
            "duration": 0.3814936145833343,
            "durationTicks": 235,
            "midi": 54,
            "name": "F#3",
            "ticks": 6120,
            "time": 8.60779425,
            "velocity": 0.84251968503937
          },
          {
            "duration": 0.3814936145833343,
            "durationTicks": 235,
            "midi": 58,
            "name": "A#3",
            "ticks": 6360,
            "time": 8.99740475,
            "velocity": 0.7480314960629921
          },
          {
            "duration": 0.3814936145833343,
            "durationTicks": 235,
            "midi": 61,
            "name": "C#4",
            "ticks": 6360,
            "time": 8.99740475,
            "velocity": 0.7480314960629921
          },
          {
            "duration": 1.7207797083333336,
            "durationTicks": 1060,
            "midi": 54,
            "name": "F#3",
            "ticks": 6600,
            "time": 9.38701525,
            "velocity": 0.8188976377952756
          },
          {
            "duration": 1.5259744583333337,
            "durationTicks": 940,
            "midi": 58,
            "name": "A#3",
            "ticks": 6720,
            "time": 9.5818205,
            "velocity": 0.7480314960629921
          },
          {
            "duration": 1.5259744583333337,
            "durationTicks": 940,
            "midi": 61,
            "name": "C#4",
            "ticks": 6720,
            "time": 9.5818205,
            "velocity": 0.7480314960629921
          },
          {
            "duration": 0.38149361458333253,
            "durationTicks": 235,
            "midi": 54,
            "name": "F#3",
            "ticks": 8040,
            "time": 11.72467825,
            "velocity": 0.8818897637795275
          },
          {
            "duration": 0.38149361458333253,
            "durationTicks": 235,
            "midi": 59,
            "name": "B3",
            "ticks": 8280,
            "time": 12.11428875,
            "velocity": 0.7716535433070866
          },
          {
            "duration": 0.38149361458333253,
            "durationTicks": 235,
            "midi": 62,
            "name": "D4",
            "ticks": 8280,
            "time": 12.11428875,
            "velocity": 0.7716535433070866
          },
          {
            "duration": 1.7207797083333318,
            "durationTicks": 1060,
            "midi": 54,
            "name": "F#3",
            "ticks": 8520,
            "time": 12.50389925,
            "velocity": 0.8582677165354331
          },
          {
            "duration": 1.525974458333332,
            "durationTicks": 940,
            "midi": 59,
            "name": "B3",
            "ticks": 8640,
            "time": 12.6987045,
            "velocity": 0.7007874015748031
          },
          {
            "duration": 1.525974458333332,
            "durationTicks": 940,
            "midi": 62,
            "name": "D4",
            "ticks": 8640,
            "time": 12.6987045,
            "velocity": 0.7007874015748031
          },
          {
            "duration": 0.38149361458333253,
            "durationTicks": 235,
            "midi": 55,
            "name": "G3",
            "ticks": 9960,
            "time": 14.841562249999999,
            "velocity": 0.8818897637795275
          },
          {
            "duration": 0.38149361458333253,
            "durationTicks": 235,
            "midi": 59,
            "name": "B3",
            "ticks": 10200,
            "time": 15.231172749999999,
            "velocity": 0.7244094488188977
          },
          {
            "duration": 0.38149361458333253,
            "durationTicks": 235,
            "midi": 62,
            "name": "D4",
            "ticks": 10200,
            "time": 15.231172749999999,
            "velocity": 0.7244094488188977
          },
          {
            "duration": 1.7207797083333318,
            "durationTicks": 1060,
            "midi": 55,
            "name": "G3",
            "ticks": 10440,
            "time": 15.620783249999999,
            "velocity": 0.8582677165354331
          },
          {
            "duration": 1.525974458333332,
            "durationTicks": 940,
            "midi": 59,
            "name": "B3",
            "ticks": 10560,
            "time": 15.815588499999999,
            "velocity": 0.7480314960629921
          },
          {
            "duration": 1.525974458333332,
            "durationTicks": 940,
            "midi": 62,
            "name": "D4",
            "ticks": 10560,
            "time": 15.815588499999999,
            "velocity": 0.7480314960629921
          },
          {
            "duration": 0.38149361458333075,
            "durationTicks": 235,
            "midi": 54,
            "name": "F#3",
            "ticks": 11880,
            "time": 17.958446249999998,
            "velocity": 0.8582677165354331
          },
          {
            "duration": 0.38149361458333075,
            "durationTicks": 235,
            "midi": 57,
            "name": "A3",
            "ticks": 12120,
            "time": 18.348056749999998,
            "velocity": 0.7480314960629921
          },
          {
            "duration": 0.38149361458333075,
            "durationTicks": 235,
            "midi": 62,
            "name": "D4",
            "ticks": 12120,
            "time": 18.348056749999998,
            "velocity": 0.7480314960629921
          },
          {
            "duration": 1.7207797083333318,
            "durationTicks": 1060,
            "midi": 54,
            "name": "F#3",
            "ticks": 12360,
            "time": 18.737667249999998,
            "velocity": 0.8188976377952756
          },
          {
            "duration": 1.5259744583333337,
            "durationTicks": 940,
            "midi": 57,
            "name": "A3",
            "ticks": 12480,
            "time": 18.932472499999996,
            "velocity": 0.7007874015748031
          },
          {
            "duration": 1.5259744583333337,
            "durationTicks": 940,
            "midi": 62,
            "name": "D4",
            "ticks": 12480,
            "time": 18.932472499999996,
            "velocity": 0.7007874015748031
          },
          {
            "duration": 0.3814936145833343,
            "durationTicks": 235,
            "midi": 55,
            "name": "G3",
            "ticks": 13800,
            "time": 21.075330249999997,
            "velocity": 0.8818897637795275
          },
          {
            "duration": 0.3814936145833343,
            "durationTicks": 235,
            "midi": 59,
            "name": "B3",
            "ticks": 14040,
            "time": 21.464940749999997,
            "velocity": 0.7480314960629921
          },
          {
            "duration": 0.3814936145833343,
            "durationTicks": 235,
            "midi": 64,
            "name": "E4",
            "ticks": 14040,
            "time": 21.464940749999997,
            "velocity": 0.7480314960629921
          },
          {
            "duration": 1.7207797083333318,
            "durationTicks": 1060,
            "midi": 55,
            "name": "G3",
            "ticks": 14280,
            "time": 21.854551249999997,
            "velocity": 0.8582677165354331
          },
          {
            "duration": 1.5259744583333301,
            "durationTicks": 940,
            "midi": 59,
            "name": "B3",
            "ticks": 14400,
            "time": 22.0493565,
            "velocity": 0.7244094488188977
          },
          {
            "duration": 1.5259744583333301,
            "durationTicks": 940,
            "midi": 64,
            "name": "E4",
            "ticks": 14400,
            "time": 22.0493565,
            "velocity": 0.7244094488188977
          },
          {
            "duration": 0.3814936145833343,
            "durationTicks": 235,
            "midi": 54,
            "name": "F#3",
            "ticks": 15720,
            "time": 24.192214249999996,
            "velocity": 0.8818897637795275
          },
          {
            "duration": 0.3814936145833343,
            "durationTicks": 235,
            "midi": 58,
            "name": "A#3",
            "ticks": 15960,
            "time": 24.581824749999996,
            "velocity": 0.7480314960629921
          },
          {
            "duration": 0.3814936145833343,
            "durationTicks": 235,
            "midi": 61,
            "name": "C#4",
            "ticks": 15960,
            "time": 24.581824749999996,
            "velocity": 0.7480314960629921
          },
          {
            "duration": 1.7207797083333354,
            "durationTicks": 1060,
            "midi": 54,
            "name": "F#3",
            "ticks": 16200,
            "time": 24.971435249999995,
            "velocity": 0.84251968503937
          },
          {
            "duration": 1.5259744583333337,
            "durationTicks": 940,
            "midi": 58,
            "name": "A#3",
            "ticks": 16320,
            "time": 25.166240499999997,
            "velocity": 0.7480314960629921
          },
          {
            "duration": 1.5259744583333337,
            "durationTicks": 940,
            "midi": 61,
            "name": "C#4",
            "ticks": 16320,
            "time": 25.166240499999997,
            "velocity": 0.7480314960629921
          },
          {
            "duration": 0.1785714791666635,
            "durationTicks": 110,
            "midi": 66,
            "name": "F#4",
            "ticks": 17280,
            "time": 26.724682499999997,
            "velocity": 0.6141732283464567
          },
          {
            "duration": 0.1785714791666635,
            "durationTicks": 110,
            "midi": 71,
            "name": "B4",
            "ticks": 17280,
            "time": 26.724682499999997,
            "velocity": 0.6692913385826772
          }
        ]
      },
      {
        "channel": 0,
        "controlChanges": {
          "7": [
            {
              "number": 7,
              "ticks": 5,
              "time": 0.004166666666666667,
              "value": 0.7795275590551181
            }
          ],
          "11": [
            {
              "number": 11,
              "ticks": 5,
              "time": 0.004166666666666667,
              "value": 1
            }
          ]
        },
        "pitchBends": [],
        "instrument": {
          "family": "piano",
          "number": 0,
          "name": "acoustic grand piano"
        },
        "name": "(C) HitTrax: Hotel California",
        "notes": [],
        "endOfTrackTicks": 19200
      },
      {
        "channel": 6,
        "controlChanges": {
          "10": [
            {
              "number": 10,
              "ticks": 620,
              "time": 0.5166666666666667,
              "value": 0.8976377952755905
            }
          ],
          "91": [
            {
              "number": 91,
              "ticks": 625,
              "time": 0.5208333333333334,
              "value": 0.7874015748031497
            }
          ],
          "93": [
            {
              "number": 93,
              "ticks": 625,
              "time": 0.5208333333333334,
              "value": 0.1968503937007874
            }
          ]
        },
        "pitchBends": [],
        "instrument": {
          "family": "guitar",
          "number": 25,
          "name": "acoustic guitar (steel)"
        },
        "name": "",
        "notes": [
          {
            "duration": 0.1704545937500015,
            "durationTicks": 105,
            "midi": 59,
            "name": "B3",
            "ticks": 17280,
            "time": 26.724682499999997,
            "velocity": 0.8661417322834646
          }
        ]
      },
      {
        "channel": 0,
        "controlChanges": {
          "7": [
            {
              "number": 7,
              "ticks": 6,
              "time": 0.005000000000000001,
              "value": 0.905511811023622
            }
          ],
          "11": [
            {
              "number": 11,
              "ticks": 6,
              "time": 0.005000000000000001,
              "value": 1
            }
          ]
        },
        "pitchBends": [],
        "instrument": {
          "family": "piano",
          "number": 0,
          "name": "acoustic grand piano"
        },
        "name": "(C) HitTrax: Hotel California",
        "notes": [],
        "endOfTrackTicks": 19200
      },
      {
        "channel": 0,
        "controlChanges": {
          "10": [
            {
              "number": 10,
              "ticks": 645,
              "time": 0.5375,
              "value": 0.11023622047244094
            }
          ],
          "91": [
            {
              "number": 91,
              "ticks": 650,
              "time": 0.5416666666666667,
              "value": 0.7874015748031497
            }
          ],
          "93": [
            {
              "number": 93,
              "ticks": 650,
              "time": 0.5416666666666667,
              "value": 0.1968503937007874
            }
          ]
        },
        "pitchBends": [],
        "instrument": {
          "family": "guitar",
          "number": 26,
          "name": "electric guitar (jazz)"
        },
        "name": "",
        "notes": []
      },
      {
        "channel": 0,
        "controlChanges": {
          "7": [
            {
              "number": 7,
              "ticks": 7,
              "time": 0.005833333333333334,
              "value": 0.9291338582677166
            }
          ],
          "11": [
            {
              "number": 11,
              "ticks": 7,
              "time": 0.005833333333333334,
              "value": 1
            }
          ]
        },
        "pitchBends": [],
        "instrument": {
          "family": "piano",
          "number": 0,
          "name": "acoustic grand piano"
        },
        "name": "(C) HitTrax: Hotel California",
        "notes": [],
        "endOfTrackTicks": 19200
      },
      {
        "channel": 0,
        "controlChanges": {
          "10": [
            {
              "number": 10,
              "ticks": 670,
              "time": 0.5583333333333333,
              "value": 0.5826771653543307
            }
          ],
          "91": [
            {
              "number": 91,
              "ticks": 675,
              "time": 0.5625,
              "value": 0.8740157480314961
            }
          ],
          "93": [
            {
              "number": 93,
              "ticks": 675,
              "time": 0.5625,
              "value": 0.5039370078740157
            }
          ]
        },
        "pitchBends": [],
        "instrument": {
          "family": "guitar",
          "number": 30,
          "name": "distortion guitar"
        },
        "name": "",
        "notes": []
      },
      {
        "channel": 9,
        "controlChanges": {
          "7": [
            {
              "number": 7,
              "ticks": 8,
              "time": 0.006666666666666667,
              "value": 1
            }
          ],
          "11": [
            {
              "number": 11,
              "ticks": 8,
              "time": 0.006666666666666667,
              "value": 1
            }
          ],
          "91": [
            {
              "number": 91,
              "ticks": 715,
              "time": 0.5958333333333333,
              "value": 0.5275590551181102
            }
          ],
          "93": [
            {
              "number": 93,
              "ticks": 715,
              "time": 0.5958333333333333,
              "value": 0
            }
          ]
        },
        "pitchBends": [],
        "instrument": {
          "family": "drums",
          "number": 0,
          "name": "standard kit"
        },
        "name": "(C) HitTrax: Hotel California",
        "notes": [
          {
            "duration": 0.008116885416666442,
            "durationTicks": 5,
            "midi": 36,
            "name": "C2",
            "ticks": 1920,
            "time": 1.7896105000000002,
            "velocity": 0.8110236220472441
          },
          {
            "duration": 0.008116885416666442,
            "durationTicks": 5,
            "midi": 42,
            "name": "F#2",
            "ticks": 1920,
            "time": 1.7896105000000002,
            "velocity": 0.5669291338582677
          },
          {
            "duration": 0.008116885416666442,
            "durationTicks": 5,
            "midi": 57,
            "name": "A3",
            "ticks": 1920,
            "time": 1.7896105000000002,
            "velocity": 0.6614173228346457
          },
          {
            "duration": 0.008116885416666886,
            "durationTicks": 5,
            "midi": 44,
            "name": "G#2",
            "ticks": 2160,
            "time": 2.179221,
            "velocity": 0.7952755905511811
          },
          {
            "duration": 0.008116885416666886,
            "durationTicks": 5,
            "midi": 42,
            "name": "F#2",
            "ticks": 2280,
            "time": 2.37402625,
            "velocity": 0.7007874015748031
          },
          {
            "duration": 0.008116885416666886,
            "durationTicks": 5,
            "midi": 40,
            "name": "E2",
            "ticks": 2400,
            "time": 2.5688315,
            "velocity": 0.8031496062992126
          },
          {
            "duration": 0.008116885416666886,
            "durationTicks": 5,
            "midi": 42,
            "name": "F#2",
            "ticks": 2400,
            "time": 2.5688315,
            "velocity": 0.3543307086614173
          },
          {
            "duration": 0.008116885416666442,
            "durationTicks": 5,
            "midi": 44,
            "name": "G#2",
            "ticks": 2640,
            "time": 2.958442,
            "velocity": 0.7480314960629921
          },
          {
            "duration": 0.008116885416666886,
            "durationTicks": 5,
            "midi": 42,
            "name": "F#2",
            "ticks": 2760,
            "time": 3.1532472499999997,
            "velocity": 0.6535433070866141
          },
          {
            "duration": 0.008116885416666886,
            "durationTicks": 5,
            "midi": 36,
            "name": "C2",
            "ticks": 2880,
            "time": 3.3480524999999997,
            "velocity": 0.8110236220472441
          },
          {
            "duration": 0.008116885416666886,
            "durationTicks": 5,
            "midi": 42,
            "name": "F#2",
            "ticks": 2880,
            "time": 3.3480524999999997,
            "velocity": 0.30708661417322836
          },
          {
            "duration": 0.008116885416666442,
            "durationTicks": 5,
            "midi": 44,
            "name": "G#2",
            "ticks": 3120,
            "time": 3.7376630000000004,
            "velocity": 0.7480314960629921
          },
          {
            "duration": 0.008116885416666442,
            "durationTicks": 5,
            "midi": 42,
            "name": "F#2",
            "ticks": 3240,
            "time": 3.9324682500000003,
            "velocity": 0.7007874015748031
          },
          {
            "duration": 0.008116885416666442,
            "durationTicks": 5,
            "midi": 40,
            "name": "E2",
            "ticks": 3360,
            "time": 4.1272735,
            "velocity": 0.8031496062992126
          },
          {
            "duration": 0.008116885416666442,
            "durationTicks": 5,
            "midi": 41,
            "name": "F2",
            "ticks": 3360,
            "time": 4.1272735,
            "velocity": 0.6299212598425197
          },
          {
            "duration": 0.008116885416666442,
            "durationTicks": 5,
            "midi": 42,
            "name": "F#2",
            "ticks": 3360,
            "time": 4.1272735,
            "velocity": 0.3543307086614173
          },
          {
            "duration": 0.008116885416666442,
            "durationTicks": 5,
            "midi": 44,
            "name": "G#2",
            "ticks": 3600,
            "time": 4.516884,
            "velocity": 0.7637795275590551
          },
          {
            "duration": 0.008116885416666442,
            "durationTicks": 5,
            "midi": 42,
            "name": "F#2",
            "ticks": 3720,
            "time": 4.71168925,
            "velocity": 0.6771653543307087
          },
          {
            "duration": 0.008116885416666442,
            "durationTicks": 5,
            "midi": 36,
            "name": "C2",
            "ticks": 3840,
            "time": 4.9064945,
            "velocity": 0.8110236220472441
          },
          {
            "duration": 0.008116885416666442,
            "durationTicks": 5,
            "midi": 42,
            "name": "F#2",
            "ticks": 3840,
            "time": 4.9064945,
            "velocity": 0.3779527559055118
          },
          {
            "duration": 0.00811688541666733,
            "durationTicks": 5,
            "midi": 44,
            "name": "G#2",
            "ticks": 4080,
            "time": 5.296105,
            "velocity": 0.7480314960629921
          },
          {
            "duration": 0.00811688541666733,
            "durationTicks": 5,
            "midi": 42,
            "name": "F#2",
            "ticks": 4200,
            "time": 5.49091025,
            "velocity": 0.6771653543307087
          },
          {
            "duration": 0.00811688541666733,
            "durationTicks": 5,
            "midi": 40,
            "name": "E2",
            "ticks": 4320,
            "time": 5.6857155,
            "velocity": 0.8031496062992126
          },
          {
            "duration": 0.00811688541666733,
            "durationTicks": 5,
            "midi": 42,
            "name": "F#2",
            "ticks": 4320,
            "time": 5.6857155,
            "velocity": 0.4015748031496063
          },
          {
            "duration": 0.008116885416666442,
            "durationTicks": 5,
            "midi": 44,
            "name": "G#2",
            "ticks": 4560,
            "time": 6.0753260000000004,
            "velocity": 0.7480314960629921
          },
          {
            "duration": 0.008116885416666442,
            "durationTicks": 5,
            "midi": 42,
            "name": "F#2",
            "ticks": 4680,
            "time": 6.27013125,
            "velocity": 0.6535433070866141
          },
          {
            "duration": 0.008116885416666442,
            "durationTicks": 5,
            "midi": 36,
            "name": "C2",
            "ticks": 4800,
            "time": 6.4649365,
            "velocity": 0.8110236220472441
          },
          {
            "duration": 0.008116885416666442,
            "durationTicks": 5,
            "midi": 42,
            "name": "F#2",
            "ticks": 4800,
            "time": 6.4649365,
            "velocity": 0.4251968503937008
          },
          {
            "duration": 0.008116885416666442,
            "durationTicks": 5,
            "midi": 44,
            "name": "G#2",
            "ticks": 5040,
            "time": 6.854547,
            "velocity": 0.7637795275590551
          },
          {
            "duration": 0.008116885416666442,
            "durationTicks": 5,
            "midi": 42,
            "name": "F#2",
            "ticks": 5160,
            "time": 7.04935225,
            "velocity": 0.7007874015748031
          },
          {
            "duration": 0.008116885416666442,
            "durationTicks": 5,
            "midi": 40,
            "name": "E2",
            "ticks": 5280,
            "time": 7.2441575,
            "velocity": 0.8031496062992126
          },
          {
            "duration": 0.008116885416666442,
            "durationTicks": 5,
            "midi": 43,
            "name": "G2",
            "ticks": 5280,
            "time": 7.2441575,
            "velocity": 0.5669291338582677
          },
          {
            "duration": 0.008116885416666442,
            "durationTicks": 5,
            "midi": 46,
            "name": "A#2",
            "ticks": 5280,
            "time": 7.2441575,
            "velocity": 0.4330708661417323
          },
          {
            "duration": 0.008116885416666442,
            "durationTicks": 5,
            "midi": 40,
            "name": "E2",
            "ticks": 5520,
            "time": 7.633768,
            "velocity": 0.5826771653543307
          },
          {
            "duration": 0.008116885416666442,
            "durationTicks": 5,
            "midi": 43,
            "name": "G2",
            "ticks": 5520,
            "time": 7.633768,
            "velocity": 0.6299212598425197
          },
          {
            "duration": 0.008116885416666442,
            "durationTicks": 5,
            "midi": 46,
            "name": "A#2",
            "ticks": 5520,
            "time": 7.633768,
            "velocity": 0.5748031496062992
          },
          {
            "duration": 0.008116885416665554,
            "durationTicks": 5,
            "midi": 36,
            "name": "C2",
            "ticks": 5760,
            "time": 8.0233785,
            "velocity": 0.8110236220472441
          },
          {
            "duration": 0.008116885416665554,
            "durationTicks": 5,
            "midi": 42,
            "name": "F#2",
            "ticks": 5760,
            "time": 8.0233785,
            "velocity": 0.6535433070866141
          },
          {
            "duration": 0.008116885416665554,
            "durationTicks": 5,
            "midi": 44,
            "name": "G#2",
            "ticks": 6000,
            "time": 8.412989,
            "velocity": 0.7401574803149606
          },
          {
            "duration": 0.008116885416665554,
            "durationTicks": 5,
            "midi": 42,
            "name": "F#2",
            "ticks": 6120,
            "time": 8.60779425,
            "velocity": 0.6535433070866141
          },
          {
            "duration": 0.008116885416665554,
            "durationTicks": 5,
            "midi": 40,
            "name": "E2",
            "ticks": 6240,
            "time": 8.8025995,
            "velocity": 0.8031496062992126
          },
          {
            "duration": 0.008116885416665554,
            "durationTicks": 5,
            "midi": 42,
            "name": "F#2",
            "ticks": 6240,
            "time": 8.8025995,
            "velocity": 0.3543307086614173
          },
          {
            "duration": 0.008116885416665554,
            "durationTicks": 5,
            "midi": 44,
            "name": "G#2",
            "ticks": 6480,
            "time": 9.19221,
            "velocity": 0.6929133858267716
          },
          {
            "duration": 0.008116885416665554,
            "durationTicks": 5,
            "midi": 42,
            "name": "F#2",
            "ticks": 6600,
            "time": 9.38701525,
            "velocity": 0.6535433070866141
          },
          {
            "duration": 0.00811688541666733,
            "durationTicks": 5,
            "midi": 36,
            "name": "C2",
            "ticks": 6720,
            "time": 9.5818205,
            "velocity": 0.8110236220472441
          },
          {
            "duration": 0.00811688541666733,
            "durationTicks": 5,
            "midi": 42,
            "name": "F#2",
            "ticks": 6720,
            "time": 9.5818205,
            "velocity": 0.4251968503937008
          },
          {
            "duration": 0.00811688541666733,
            "durationTicks": 5,
            "midi": 44,
            "name": "G#2",
            "ticks": 6960,
            "time": 9.971430999999999,
            "velocity": 0.7086614173228346
          },
          {
            "duration": 0.00811688541666733,
            "durationTicks": 5,
            "midi": 42,
            "name": "F#2",
            "ticks": 7080,
            "time": 10.166236249999999,
            "velocity": 0.6771653543307087
          },
          {
            "duration": 0.00811688541666733,
            "durationTicks": 5,
            "midi": 40,
            "name": "E2",
            "ticks": 7200,
            "time": 10.361041499999999,
            "velocity": 0.8031496062992126
          },
          {
            "duration": 0.00811688541666733,
            "durationTicks": 5,
            "midi": 42,
            "name": "F#2",
            "ticks": 7200,
            "time": 10.361041499999999,
            "velocity": 0.44881889763779526
          },
          {
            "duration": 0.00811688541666733,
            "durationTicks": 5,
            "midi": 43,
            "name": "G2",
            "ticks": 7200,
            "time": 10.361041499999999,
            "velocity": 0.6299212598425197
          },
          {
            "duration": 0.008116885416665554,
            "durationTicks": 5,
            "midi": 40,
            "name": "E2",
            "ticks": 7440,
            "time": 10.750652,
            "velocity": 0.5826771653543307
          },
          {
            "duration": 0.008116885416665554,
            "durationTicks": 5,
            "midi": 42,
            "name": "F#2",
            "ticks": 7440,
            "time": 10.750652,
            "velocity": 0.6535433070866141
          },
          {
            "duration": 0.008116885416665554,
            "durationTicks": 5,
            "midi": 43,
            "name": "G2",
            "ticks": 7440,
            "time": 10.750652,
            "velocity": 0.6929133858267716
          },
          {
            "duration": 0.008116885416665554,
            "durationTicks": 5,
            "midi": 36,
            "name": "C2",
            "ticks": 7680,
            "time": 11.1402625,
            "velocity": 0.8110236220472441
          },
          {
            "duration": 0.008116885416665554,
            "durationTicks": 5,
            "midi": 42,
            "name": "F#2",
            "ticks": 7680,
            "time": 11.1402625,
            "velocity": 0.5669291338582677
          },
          {
            "duration": 0.008116885416665554,
            "durationTicks": 5,
            "midi": 44,
            "name": "G#2",
            "ticks": 7920,
            "time": 11.529873,
            "velocity": 0.6141732283464567
          },
          {
            "duration": 0.008116885416665554,
            "durationTicks": 5,
            "midi": 42,
            "name": "F#2",
            "ticks": 8040,
            "time": 11.72467825,
            "velocity": 0.6062992125984252
          },
          {
            "duration": 0.008116885416665554,
            "durationTicks": 5,
            "midi": 40,
            "name": "E2",
            "ticks": 8160,
            "time": 11.9194835,
            "velocity": 0.8031496062992126
          },
          {
            "duration": 0.008116885416665554,
            "durationTicks": 5,
            "midi": 42,
            "name": "F#2",
            "ticks": 8160,
            "time": 11.9194835,
            "velocity": 0.3543307086614173
          },
          {
            "duration": 0.008116885416665554,
            "durationTicks": 5,
            "midi": 44,
            "name": "G#2",
            "ticks": 8400,
            "time": 12.309094,
            "velocity": 0.6535433070866141
          },
          {
            "duration": 0.008116885416665554,
            "durationTicks": 5,
            "midi": 42,
            "name": "F#2",
            "ticks": 8520,
            "time": 12.50389925,
            "velocity": 0.6535433070866141
          },
          {
            "duration": 0.008116885416665554,
            "durationTicks": 5,
            "midi": 36,
            "name": "C2",
            "ticks": 8640,
            "time": 12.6987045,
            "velocity": 0.8110236220472441
          },
          {
            "duration": 0.008116885416665554,
            "durationTicks": 5,
            "midi": 44,
            "name": "G#2",
            "ticks": 8640,
            "time": 12.6987045,
            "velocity": 0.6771653543307087
          },
          {
            "duration": 0.008116885416665554,
            "durationTicks": 5,
            "midi": 40,
            "name": "E2",
            "ticks": 8760,
            "time": 12.89350975,
            "velocity": 0.4645669291338583
          },
          {
            "duration": 0.008116885416665554,
            "durationTicks": 5,
            "midi": 40,
            "name": "E2",
            "ticks": 8760,
            "time": 12.89350975,
            "velocity": 0.6220472440944882
          },
          {
            "duration": 0.008116885416665554,
            "durationTicks": 5,
            "midi": 40,
            "name": "E2",
            "ticks": 8880,
            "time": 13.088315,
            "velocity": 0.7637795275590551
          },
          {
            "duration": 0.008116885416665554,
            "durationTicks": 5,
            "midi": 40,
            "name": "E2",
            "ticks": 9000,
            "time": 13.28312025,
            "velocity": 0.7165354330708661
          },
          {
            "duration": 0.008116885416665554,
            "durationTicks": 5,
            "midi": 40,
            "name": "E2",
            "ticks": 9120,
            "time": 13.4779255,
            "velocity": 0.5748031496062992
          },
          {
            "duration": 0.008116885416665554,
            "durationTicks": 5,
            "midi": 43,
            "name": "G2",
            "ticks": 9120,
            "time": 13.4779255,
            "velocity": 0.6929133858267716
          },
          {
            "duration": 0.008116885416665554,
            "durationTicks": 5,
            "midi": 44,
            "name": "G#2",
            "ticks": 9120,
            "time": 13.4779255,
            "velocity": 0.84251968503937
          },
          {
            "duration": 0.008116885416665554,
            "durationTicks": 5,
            "midi": 43,
            "name": "G2",
            "ticks": 9240,
            "time": 13.67273075,
            "velocity": 0.5590551181102362
          },
          {
            "duration": 0.00811688541666733,
            "durationTicks": 5,
            "midi": 41,
            "name": "F2",
            "ticks": 9360,
            "time": 13.867536,
            "velocity": 0.5669291338582677
          },
          {
            "duration": 0.00811688541666733,
            "durationTicks": 5,
            "midi": 66,
            "name": "F#4",
            "ticks": 9360,
            "time": 13.867536,
            "velocity": 0.6377952755905512
          },
          {
            "duration": 0.00811688541666733,
            "durationTicks": 5,
            "midi": 41,
            "name": "F2",
            "ticks": 9480,
            "time": 14.06234125,
            "velocity": 0.6929133858267716
          },
          {
            "duration": 0.00811688541666733,
            "durationTicks": 5,
            "midi": 66,
            "name": "F#4",
            "ticks": 9480,
            "time": 14.06234125,
            "velocity": 0.4094488188976378
          },
          {
            "duration": 0.00811688541666733,
            "durationTicks": 5,
            "midi": 36,
            "name": "C2",
            "ticks": 9600,
            "time": 14.2571465,
            "velocity": 0.8110236220472441
          },
          {
            "duration": 0.00811688541666733,
            "durationTicks": 5,
            "midi": 42,
            "name": "F#2",
            "ticks": 9600,
            "time": 14.2571465,
            "velocity": 0.6141732283464567
          },
          {
            "duration": 0.00811688541666733,
            "durationTicks": 5,
            "midi": 57,
            "name": "A3",
            "ticks": 9600,
            "time": 14.2571465,
            "velocity": 0.6614173228346457
          },
          {
            "duration": 0.00811688541666733,
            "durationTicks": 5,
            "midi": 44,
            "name": "G#2",
            "ticks": 9840,
            "time": 14.646757,
            "velocity": 0.7086614173228346
          },
          {
            "duration": 0.00811688541666733,
            "durationTicks": 5,
            "midi": 42,
            "name": "F#2",
            "ticks": 9960,
            "time": 14.841562249999999,
            "velocity": 0.6299212598425197
          },
          {
            "duration": 0.00811688541666733,
            "durationTicks": 5,
            "midi": 40,
            "name": "E2",
            "ticks": 10080,
            "time": 15.036367499999999,
            "velocity": 0.8031496062992126
          },
          {
            "duration": 0.00811688541666733,
            "durationTicks": 5,
            "midi": 42,
            "name": "F#2",
            "ticks": 10080,
            "time": 15.036367499999999,
            "velocity": 0.44881889763779526
          },
          {
            "duration": 0.00811688541666733,
            "durationTicks": 5,
            "midi": 44,
            "name": "G#2",
            "ticks": 10320,
            "time": 15.425977999999999,
            "velocity": 0.6141732283464567
          },
          {
            "duration": 0.00811688541666733,
            "durationTicks": 5,
            "midi": 42,
            "name": "F#2",
            "ticks": 10440,
            "time": 15.620783249999999,
            "velocity": 0.6062992125984252
          },
          {
            "duration": 0.00811688541666733,
            "durationTicks": 5,
            "midi": 36,
            "name": "C2",
            "ticks": 10560,
            "time": 15.815588499999999,
            "velocity": 0.8110236220472441
          },
          {
            "duration": 0.00811688541666733,
            "durationTicks": 5,
            "midi": 42,
            "name": "F#2",
            "ticks": 10560,
            "time": 15.815588499999999,
            "velocity": 0.4251968503937008
          },
          {
            "duration": 0.008116885416669106,
            "durationTicks": 5,
            "midi": 44,
            "name": "G#2",
            "ticks": 10800,
            "time": 16.205198999999997,
            "velocity": 0.6141732283464567
          },
          {
            "duration": 0.008116885416669106,
            "durationTicks": 5,
            "midi": 42,
            "name": "F#2",
            "ticks": 10920,
            "time": 16.40000425,
            "velocity": 0.6299212598425197
          },
          {
            "duration": 0.008116885416669106,
            "durationTicks": 5,
            "midi": 40,
            "name": "E2",
            "ticks": 11040,
            "time": 16.594809499999997,
            "velocity": 0.8031496062992126
          },
          {
            "duration": 0.008116885416669106,
            "durationTicks": 5,
            "midi": 41,
            "name": "F2",
            "ticks": 11040,
            "time": 16.594809499999997,
            "velocity": 0.5118110236220472
          },
          {
            "duration": 0.008116885416669106,
            "durationTicks": 5,
            "midi": 42,
            "name": "F#2",
            "ticks": 11040,
            "time": 16.594809499999997,
            "velocity": 0.3779527559055118
          },
          {
            "duration": 0.008116885416669106,
            "durationTicks": 5,
            "midi": 40,
            "name": "E2",
            "ticks": 11280,
            "time": 16.984419999999997,
            "velocity": 0.6456692913385826
          },
          {
            "duration": 0.008116885416669106,
            "durationTicks": 5,
            "midi": 41,
            "name": "F2",
            "ticks": 11280,
            "time": 16.984419999999997,
            "velocity": 0.6299212598425197
          },
          {
            "duration": 0.008116885416669106,
            "durationTicks": 5,
            "midi": 46,
            "name": "A#2",
            "ticks": 11280,
            "time": 16.984419999999997,
            "velocity": 0.5039370078740157
          },
          {
            "duration": 0.008116885416665554,
            "durationTicks": 5,
            "midi": 36,
            "name": "C2",
            "ticks": 11520,
            "time": 17.3740305,
            "velocity": 0.8110236220472441
          },
          {
            "duration": 0.008116885416665554,
            "durationTicks": 5,
            "midi": 42,
            "name": "F#2",
            "ticks": 11520,
            "time": 17.3740305,
            "velocity": 0.5669291338582677
          },
          {
            "duration": 0.008116885416669106,
            "durationTicks": 5,
            "midi": 44,
            "name": "G#2",
            "ticks": 11760,
            "time": 17.763640999999996,
            "velocity": 0.6141732283464567
          },
          {
            "duration": 0.008116885416665554,
            "durationTicks": 5,
            "midi": 42,
            "name": "F#2",
            "ticks": 11880,
            "time": 17.958446249999998,
            "velocity": 0.6062992125984252
          },
          {
            "duration": 0.008116885416669106,
            "durationTicks": 5,
            "midi": 40,
            "name": "E2",
            "ticks": 12000,
            "time": 18.153251499999996,
            "velocity": 0.8031496062992126
          },
          {
            "duration": 0.008116885416669106,
            "durationTicks": 5,
            "midi": 42,
            "name": "F#2",
            "ticks": 12000,
            "time": 18.153251499999996,
            "velocity": 0.44881889763779526
          },
          {
            "duration": 0.008116885416669106,
            "durationTicks": 5,
            "midi": 44,
            "name": "G#2",
            "ticks": 12240,
            "time": 18.542861999999996,
            "velocity": 0.6062992125984252
          },
          {
            "duration": 0.008116885416665554,
            "durationTicks": 5,
            "midi": 42,
            "name": "F#2",
            "ticks": 12360,
            "time": 18.737667249999998,
            "velocity": 0.6535433070866141
          },
          {
            "duration": 0.008116885416669106,
            "durationTicks": 5,
            "midi": 36,
            "name": "C2",
            "ticks": 12480,
            "time": 18.932472499999996,
            "velocity": 0.8110236220472441
          },
          {
            "duration": 0.008116885416669106,
            "durationTicks": 5,
            "midi": 42,
            "name": "F#2",
            "ticks": 12480,
            "time": 18.932472499999996,
            "velocity": 0.44881889763779526
          },
          {
            "duration": 0.008116885416669106,
            "durationTicks": 5,
            "midi": 44,
            "name": "G#2",
            "ticks": 12720,
            "time": 19.322082999999996,
            "velocity": 0.4881889763779528
          },
          {
            "duration": 0.008116885416669106,
            "durationTicks": 5,
            "midi": 42,
            "name": "F#2",
            "ticks": 12840,
            "time": 19.516888249999997,
            "velocity": 0.6062992125984252
          },
          {
            "duration": 0.008116885416669106,
            "durationTicks": 5,
            "midi": 40,
            "name": "E2",
            "ticks": 12960,
            "time": 19.711693499999996,
            "velocity": 0.8031496062992126
          },
          {
            "duration": 0.008116885416669106,
            "durationTicks": 5,
            "midi": 41,
            "name": "F2",
            "ticks": 12960,
            "time": 19.711693499999996,
            "velocity": 0.6929133858267716
          },
          {
            "duration": 0.008116885416669106,
            "durationTicks": 5,
            "midi": 42,
            "name": "F#2",
            "ticks": 12960,
            "time": 19.711693499999996,
            "velocity": 0.44881889763779526
          },
          {
            "duration": 0.008116885416665554,
            "durationTicks": 5,
            "midi": 36,
            "name": "C2",
            "ticks": 13200,
            "time": 20.101304,
            "velocity": 0.8110236220472441
          },
          {
            "duration": 0.008116885416665554,
            "durationTicks": 5,
            "midi": 44,
            "name": "G#2",
            "ticks": 13200,
            "time": 20.101304,
            "velocity": 0.952755905511811
          },
          {
            "duration": 0.008116885416669106,
            "durationTicks": 5,
            "midi": 42,
            "name": "F#2",
            "ticks": 13320,
            "time": 20.296109249999997,
            "velocity": 0.6535433070866141
          },
          {
            "duration": 0.008116885416665554,
            "durationTicks": 5,
            "midi": 36,
            "name": "C2",
            "ticks": 13440,
            "time": 20.4909145,
            "velocity": 0.8110236220472441
          },
          {
            "duration": 0.008116885416665554,
            "durationTicks": 5,
            "midi": 42,
            "name": "F#2",
            "ticks": 13440,
            "time": 20.4909145,
            "velocity": 0.49606299212598426
          },
          {
            "duration": 0.008116885416665554,
            "durationTicks": 5,
            "midi": 44,
            "name": "G#2",
            "ticks": 13680,
            "time": 20.880525,
            "velocity": 0.6299212598425197
          },
          {
            "duration": 0.008116885416669106,
            "durationTicks": 5,
            "midi": 42,
            "name": "F#2",
            "ticks": 13800,
            "time": 21.075330249999997,
            "velocity": 0.6299212598425197
          },
          {
            "duration": 0.008116885416665554,
            "durationTicks": 5,
            "midi": 40,
            "name": "E2",
            "ticks": 13920,
            "time": 21.2701355,
            "velocity": 0.8031496062992126
          },
          {
            "duration": 0.008116885416665554,
            "durationTicks": 5,
            "midi": 42,
            "name": "F#2",
            "ticks": 13920,
            "time": 21.2701355,
            "velocity": 0.44881889763779526
          },
          {
            "duration": 0.008116885416665554,
            "durationTicks": 5,
            "midi": 44,
            "name": "G#2",
            "ticks": 14160,
            "time": 21.659746,
            "velocity": 0.7007874015748031
          },
          {
            "duration": 0.008116885416669106,
            "durationTicks": 5,
            "midi": 42,
            "name": "F#2",
            "ticks": 14280,
            "time": 21.854551249999997,
            "velocity": 0.7401574803149606
          },
          {
            "duration": 0.008116885416665554,
            "durationTicks": 5,
            "midi": 36,
            "name": "C2",
            "ticks": 14400,
            "time": 22.0493565,
            "velocity": 0.8110236220472441
          },
          {
            "duration": 0.008116885416665554,
            "durationTicks": 5,
            "midi": 42,
            "name": "F#2",
            "ticks": 14400,
            "time": 22.0493565,
            "velocity": 0.5196850393700787
          },
          {
            "duration": 0.008116885416665554,
            "durationTicks": 5,
            "midi": 44,
            "name": "G#2",
            "ticks": 14640,
            "time": 22.438966999999998,
            "velocity": 0.7244094488188977
          },
          {
            "duration": 0.008116885416669106,
            "durationTicks": 5,
            "midi": 42,
            "name": "F#2",
            "ticks": 14760,
            "time": 22.633772249999996,
            "velocity": 0.7244094488188977
          },
          {
            "duration": 0.008116885416665554,
            "durationTicks": 5,
            "midi": 40,
            "name": "E2",
            "ticks": 14880,
            "time": 22.828577499999998,
            "velocity": 0.8031496062992126
          },
          {
            "duration": 0.008116885416665554,
            "durationTicks": 5,
            "midi": 41,
            "name": "F2",
            "ticks": 14880,
            "time": 22.828577499999998,
            "velocity": 0.6929133858267716
          },
          {
            "duration": 0.008116885416665554,
            "durationTicks": 5,
            "midi": 42,
            "name": "F#2",
            "ticks": 14880,
            "time": 22.828577499999998,
            "velocity": 0.49606299212598426
          },
          {
            "duration": 0.008116885416665554,
            "durationTicks": 5,
            "midi": 36,
            "name": "C2",
            "ticks": 15120,
            "time": 23.218187999999998,
            "velocity": 0.8110236220472441
          },
          {
            "duration": 0.008116885416665554,
            "durationTicks": 5,
            "midi": 44,
            "name": "G#2",
            "ticks": 15120,
            "time": 23.218187999999998,
            "velocity": 0.6141732283464567
          },
          {
            "duration": 0.008116885416669106,
            "durationTicks": 5,
            "midi": 42,
            "name": "F#2",
            "ticks": 15240,
            "time": 23.412993249999996,
            "velocity": 0.7007874015748031
          },
          {
            "duration": 0.008116885416665554,
            "durationTicks": 5,
            "midi": 36,
            "name": "C2",
            "ticks": 15360,
            "time": 23.607798499999998,
            "velocity": 0.8110236220472441
          },
          {
            "duration": 0.008116885416665554,
            "durationTicks": 5,
            "midi": 42,
            "name": "F#2",
            "ticks": 15360,
            "time": 23.607798499999998,
            "velocity": 0.49606299212598426
          },
          {
            "duration": 0.008116885416665554,
            "durationTicks": 5,
            "midi": 44,
            "name": "G#2",
            "ticks": 15600,
            "time": 23.997408999999998,
            "velocity": 0.6692913385826772
          },
          {
            "duration": 0.008116885416669106,
            "durationTicks": 5,
            "midi": 42,
            "name": "F#2",
            "ticks": 15720,
            "time": 24.192214249999996,
            "velocity": 0.7244094488188977
          },
          {
            "duration": 0.008116885416665554,
            "durationTicks": 5,
            "midi": 40,
            "name": "E2",
            "ticks": 15840,
            "time": 24.387019499999997,
            "velocity": 0.8031496062992126
          },
          {
            "duration": 0.008116885416665554,
            "durationTicks": 5,
            "midi": 42,
            "name": "F#2",
            "ticks": 15840,
            "time": 24.387019499999997,
            "velocity": 0.49606299212598426
          },
          {
            "duration": 0.008116885416665554,
            "durationTicks": 5,
            "midi": 44,
            "name": "G#2",
            "ticks": 16080,
            "time": 24.776629999999997,
            "velocity": 0.5354330708661418
          },
          {
            "duration": 0.008116885416669106,
            "durationTicks": 5,
            "midi": 42,
            "name": "F#2",
            "ticks": 16200,
            "time": 24.971435249999995,
            "velocity": 0.6535433070866141
          },
          {
            "duration": 0.008116885416665554,
            "durationTicks": 5,
            "midi": 36,
            "name": "C2",
            "ticks": 16320,
            "time": 25.166240499999997,
            "velocity": 0.8110236220472441
          },
          {
            "duration": 0.008116885416665554,
            "durationTicks": 5,
            "midi": 46,
            "name": "A#2",
            "ticks": 16320,
            "time": 25.166240499999997,
            "velocity": 0.5669291338582677
          },
          {
            "duration": 0.008116885416669106,
            "durationTicks": 5,
            "midi": 40,
            "name": "E2",
            "ticks": 16440,
            "time": 25.361045749999995,
            "velocity": 0.3937007874015748
          },
          {
            "duration": 0.008116885416669106,
            "durationTicks": 5,
            "midi": 40,
            "name": "E2",
            "ticks": 16440,
            "time": 25.361045749999995,
            "velocity": 0.4881889763779528
          },
          {
            "duration": 0.008116885416669106,
            "durationTicks": 5,
            "midi": 40,
            "name": "E2",
            "ticks": 16560,
            "time": 25.555850999999997,
            "velocity": 0.6220472440944882
          },
          {
            "duration": 0.008116885416669106,
            "durationTicks": 5,
            "midi": 40,
            "name": "E2",
            "ticks": 16680,
            "time": 25.750656249999995,
            "velocity": 0.7637795275590551
          },
          {
            "duration": 0.008116885416669106,
            "durationTicks": 5,
            "midi": 40,
            "name": "E2",
            "ticks": 16800,
            "time": 25.945461499999997,
            "velocity": 0.6220472440944882
          },
          {
            "duration": 0.008116885416665554,
            "durationTicks": 5,
            "midi": 40,
            "name": "E2",
            "ticks": 17040,
            "time": 26.335071999999997,
            "velocity": 0.7086614173228346
          },
          {
            "duration": 0.008116885416665554,
            "durationTicks": 5,
            "midi": 36,
            "name": "C2",
            "ticks": 17280,
            "time": 26.724682499999997,
            "velocity": 0.8110236220472441
          },
          {
            "duration": 0.008116885416665554,
            "durationTicks": 5,
            "midi": 42,
            "name": "F#2",
            "ticks": 17280,
            "time": 26.724682499999997,
            "velocity": 0.8346456692913385
          },
          {
            "duration": 0.008116885416665554,
            "durationTicks": 5,
            "midi": 57,
            "name": "A3",
            "ticks": 17280,
            "time": 26.724682499999997,
            "velocity": 0.6614173228346457
          },
          {
            "duration": 0.008116885416665554,
            "durationTicks": 5,
            "midi": 69,
            "name": "A4",
            "ticks": 17280,
            "time": 26.724682499999997,
            "velocity": 0.6141732283464567
          }
        ],
        "endOfTrackTicks": 19200
      },
      {
        "channel": 0,
        "controlChanges": {
          "7": [
            {
              "number": 7,
              "ticks": 9,
              "time": 0.0075,
              "value": 0.8031496062992126
            }
          ],
          "11": [
            {
              "number": 11,
              "ticks": 9,
              "time": 0.0075,
              "value": 1
            }
          ]
        },
        "pitchBends": [],
        "instrument": {
          "family": "piano",
          "number": 0,
          "name": "acoustic grand piano"
        },
        "name": "(C) HitTrax: Hotel California",
        "notes": [],
        "endOfTrackTicks": 19200
      },
      {
        "channel": 10,
        "controlChanges": {
          "10": [
            {
              "number": 10,
              "ticks": 735,
              "time": 0.6125,
              "value": 0.8188976377952756
            }
          ],
          "91": [
            {
              "number": 91,
              "ticks": 740,
              "time": 0.6166666666666667,
              "value": 0.5905511811023622
            }
          ],
          "93": [
            {
              "number": 93,
              "ticks": 740,
              "time": 0.6166666666666667,
              "value": 0.47244094488188976
            }
          ]
        },
        "pitchBends": [],
        "instrument": {
          "family": "guitar",
          "number": 29,
          "name": "overdriven guitar"
        },
        "name": "",
        "notes": [
          {
            "duration": 3.0519489166666665,
            "durationTicks": 1880,
            "midi": 50,
            "name": "D3",
            "ticks": 1920,
            "time": 1.7896105000000002,
            "velocity": 0.6850393700787402
          },
          {
            "duration": 0.19480524999999993,
            "durationTicks": 120,
            "midi": 66,
            "name": "F#4",
            "ticks": 4080,
            "time": 5.296105,
            "velocity": 0.8503937007874016
          },
          {
            "duration": 0.19480524999999993,
            "durationTicks": 120,
            "midi": 66,
            "name": "F#4",
            "ticks": 4200,
            "time": 5.49091025,
            "velocity": 0.7795275590551181
          },
          {
            "duration": 0.20292213541666726,
            "durationTicks": 125,
            "midi": 67,
            "name": "G4",
            "ticks": 4440,
            "time": 5.88052075,
            "velocity": 0.8267716535433071
          },
          {
            "duration": 0.09740262499999996,
            "durationTicks": 60,
            "midi": 66,
            "name": "F#4",
            "ticks": 4680,
            "time": 6.27013125,
            "velocity": 0.8740157480314961
          },
          {
            "duration": 0.09740262499999996,
            "durationTicks": 60,
            "midi": 67,
            "name": "G4",
            "ticks": 4680,
            "time": 6.27013125,
            "velocity": 0.6062992125984252
          },
          {
            "duration": 0.19480524999999993,
            "durationTicks": 120,
            "midi": 69,
            "name": "A4",
            "ticks": 4800,
            "time": 6.4649365,
            "velocity": 0.7559055118110236
          },
          {
            "duration": 0.19480524999999993,
            "durationTicks": 120,
            "midi": 67,
            "name": "G4",
            "ticks": 5040,
            "time": 6.854547,
            "velocity": 0.8740157480314961
          },
          {
            "duration": 0.7629872291666651,
            "durationTicks": 470,
            "midi": 66,
            "name": "F#4",
            "ticks": 5280,
            "time": 7.2441575,
            "velocity": 0.7559055118110236
          },
          {
            "duration": 0.7629872291666651,
            "durationTicks": 470,
            "midi": 47,
            "name": "B2",
            "ticks": 7680,
            "time": 11.1402625,
            "velocity": 0.8503937007874016
          },
          {
            "duration": 0.7629872291666651,
            "durationTicks": 470,
            "midi": 49,
            "name": "C#3",
            "ticks": 8160,
            "time": 11.9194835,
            "velocity": 0.7795275590551181
          },
          {
            "duration": 0.7629872291666651,
            "durationTicks": 470,
            "midi": 50,
            "name": "D3",
            "ticks": 8640,
            "time": 12.6987045,
            "velocity": 0.8267716535433071
          },
          {
            "duration": 0.3814936145833343,
            "durationTicks": 235,
            "midi": 52,
            "name": "E3",
            "ticks": 9120,
            "time": 13.4779255,
            "velocity": 0.7795275590551181
          },
          {
            "duration": 0.38149361458333253,
            "durationTicks": 235,
            "midi": 54,
            "name": "F#3",
            "ticks": 9360,
            "time": 13.867536,
            "velocity": 0.8267716535433071
          },
          {
            "duration": 3.0519489166666656,
            "durationTicks": 1880,
            "midi": 55,
            "name": "G3",
            "ticks": 9600,
            "time": 14.2571465,
            "velocity": 0.6377952755905512
          },
          {
            "duration": 0.09740262500000085,
            "durationTicks": 60,
            "midi": 71,
            "name": "B4",
            "ticks": 11760,
            "time": 17.763640999999996,
            "velocity": 0.8503937007874016
          },
          {
            "duration": 0.38149361458333075,
            "durationTicks": 235,
            "midi": 71,
            "name": "B4",
            "ticks": 11880,
            "time": 17.958446249999998,
            "velocity": 0.7559055118110236
          },
          {
            "duration": 0.28409098958333345,
            "durationTicks": 175,
            "midi": 69,
            "name": "A4",
            "ticks": 12120,
            "time": 18.348056749999998,
            "velocity": 0.7322834645669292
          },
          {
            "duration": 0.19480524999999815,
            "durationTicks": 120,
            "midi": 69,
            "name": "A4",
            "ticks": 12360,
            "time": 18.737667249999998,
            "velocity": 0.6377952755905512
          },
          {
            "duration": 0.1948052500000017,
            "durationTicks": 120,
            "midi": 57,
            "name": "A3",
            "ticks": 12480,
            "time": 18.932472499999996,
            "velocity": 0.8503937007874016
          },
          {
            "duration": 0.19480524999999815,
            "durationTicks": 120,
            "midi": 62,
            "name": "D4",
            "ticks": 12600,
            "time": 19.127277749999998,
            "velocity": 0.7559055118110236
          },
          {
            "duration": 0.19480524999999815,
            "durationTicks": 120,
            "midi": 67,
            "name": "G4",
            "ticks": 12840,
            "time": 19.516888249999997,
            "velocity": 0.8031496062992126
          },
          {
            "duration": 0.7629872291666686,
            "durationTicks": 470,
            "midi": 66,
            "name": "F#4",
            "ticks": 12960,
            "time": 19.711693499999996,
            "velocity": 0.7086614173228346
          },
          {
            "duration": 0.1948052500000017,
            "durationTicks": 120,
            "midi": 59,
            "name": "B3",
            "ticks": 17280,
            "time": 26.724682499999997,
            "velocity": 0.8031496062992126
          }
        ]
      },
      {
        "channel": 0,
        "controlChanges": {
          "7": [
            {
              "number": 7,
              "ticks": 10,
              "time": 0.008333333333333333,
              "value": 0.8661417322834646
            }
          ],
          "11": [
            {
              "number": 11,
              "ticks": 10,
              "time": 0.008333333333333333,
              "value": 1
            }
          ]
        },
        "pitchBends": [],
        "instrument": {
          "family": "piano",
          "number": 0,
          "name": "acoustic grand piano"
        },
        "name": "(C) HitTrax: Hotel California",
        "notes": [],
        "endOfTrackTicks": 19200
      },
      {
        "channel": 11,
        "controlChanges": {
          "10": [
            {
              "number": 10,
              "ticks": 760,
              "time": 0.6333333333333333,
              "value": 0.1889763779527559
            }
          ],
          "91": [
            {
              "number": 91,
              "ticks": 765,
              "time": 0.6375000000000001,
              "value": 0.5905511811023622
            }
          ],
          "93": [
            {
              "number": 93,
              "ticks": 765,
              "time": 0.6375000000000001,
              "value": 0.47244094488188976
            }
          ]
        },
        "pitchBends": [],
        "instrument": {
          "family": "guitar",
          "number": 29,
          "name": "overdriven guitar"
        },
        "name": "",
        "notes": [
          {
            "duration": 3.1168839999999998,
            "durationTicks": 1920,
            "midi": 50,
            "name": "D3",
            "ticks": 1920,
            "time": 1.7896105000000002,
            "velocity": 0.6850393700787402
          },
          {
            "duration": 0.19480524999999993,
            "durationTicks": 120,
            "midi": 69,
            "name": "A4",
            "ticks": 4080,
            "time": 5.296105,
            "velocity": 0.8503937007874016
          },
          {
            "duration": 0.19480524999999993,
            "durationTicks": 120,
            "midi": 69,
            "name": "A4",
            "ticks": 4200,
            "time": 5.49091025,
            "velocity": 0.8031496062992126
          },
          {
            "duration": 0.19480525000000082,
            "durationTicks": 120,
            "midi": 71,
            "name": "B4",
            "ticks": 4440,
            "time": 5.88052075,
            "velocity": 0.8503937007874016
          },
          {
            "duration": 0.09740262499999996,
            "durationTicks": 60,
            "midi": 69,
            "name": "A4",
            "ticks": 4680,
            "time": 6.27013125,
            "velocity": 0.8267716535433071
          },
          {
            "duration": 0.09740262499999996,
            "durationTicks": 60,
            "midi": 71,
            "name": "B4",
            "ticks": 4680,
            "time": 6.27013125,
            "velocity": 0.6377952755905512
          },
          {
            "duration": 0.19480524999999993,
            "durationTicks": 120,
            "midi": 73,
            "name": "C#5",
            "ticks": 4800,
            "time": 6.4649365,
            "velocity": 0.8031496062992126
          },
          {
            "duration": 0.19480524999999993,
            "durationTicks": 120,
            "midi": 71,
            "name": "B4",
            "ticks": 5040,
            "time": 6.854547,
            "velocity": 0.8503937007874016
          },
          {
            "duration": 0.7792209999999997,
            "durationTicks": 480,
            "midi": 69,
            "name": "A4",
            "ticks": 5280,
            "time": 7.2441575,
            "velocity": 0.7559055118110236
          },
          {
            "duration": 0.7792209999999997,
            "durationTicks": 480,
            "midi": 47,
            "name": "B2",
            "ticks": 7680,
            "time": 11.1402625,
            "velocity": 0.8267716535433071
          },
          {
            "duration": 0.7792209999999997,
            "durationTicks": 480,
            "midi": 49,
            "name": "C#3",
            "ticks": 8160,
            "time": 11.9194835,
            "velocity": 0.7086614173228346
          },
          {
            "duration": 0.7792209999999997,
            "durationTicks": 480,
            "midi": 50,
            "name": "D3",
            "ticks": 8640,
            "time": 12.6987045,
            "velocity": 0.8503937007874016
          },
          {
            "duration": 0.38961049999999986,
            "durationTicks": 240,
            "midi": 52,
            "name": "E3",
            "ticks": 9120,
            "time": 13.4779255,
            "velocity": 0.8267716535433071
          },
          {
            "duration": 0.38961049999999986,
            "durationTicks": 240,
            "midi": 54,
            "name": "F#3",
            "ticks": 9360,
            "time": 13.867536,
            "velocity": 0.7322834645669292
          },
          {
            "duration": 3.0844164583333313,
            "durationTicks": 1900,
            "midi": 55,
            "name": "G3",
            "ticks": 9600,
            "time": 14.2571465,
            "velocity": 0.6614173228346457
          },
          {
            "duration": 0.09740262500000085,
            "durationTicks": 60,
            "midi": 67,
            "name": "G4",
            "ticks": 11760,
            "time": 17.763640999999996,
            "velocity": 0.8503937007874016
          },
          {
            "duration": 0.38961049999999986,
            "durationTicks": 240,
            "midi": 67,
            "name": "G4",
            "ticks": 11880,
            "time": 17.958446249999998,
            "velocity": 0.7559055118110236
          },
          {
            "duration": 0.2678572187499988,
            "durationTicks": 165,
            "midi": 66,
            "name": "F#4",
            "ticks": 12120,
            "time": 18.348056749999998,
            "velocity": 0.7086614173228346
          },
          {
            "duration": 0.20292213541666726,
            "durationTicks": 125,
            "midi": 66,
            "name": "F#4",
            "ticks": 12360,
            "time": 18.737667249999998,
            "velocity": 0.6220472440944882
          },
          {
            "duration": 0.1948052500000017,
            "durationTicks": 120,
            "midi": 54,
            "name": "F#3",
            "ticks": 12480,
            "time": 18.932472499999996,
            "velocity": 0.8503937007874016
          },
          {
            "duration": 0.19480524999999815,
            "durationTicks": 120,
            "midi": 57,
            "name": "A3",
            "ticks": 12600,
            "time": 19.127277749999998,
            "velocity": 0.7795275590551181
          },
          {
            "duration": 0.19480524999999815,
            "durationTicks": 120,
            "midi": 64,
            "name": "E4",
            "ticks": 12840,
            "time": 19.516888249999997,
            "velocity": 0.8740157480314961
          },
          {
            "duration": 0.7792210000000033,
            "durationTicks": 480,
            "midi": 62,
            "name": "D4",
            "ticks": 12960,
            "time": 19.711693499999996,
            "velocity": 0.7795275590551181
          },
          {
            "duration": 0.1948052500000017,
            "durationTicks": 120,
            "midi": 62,
            "name": "D4",
            "ticks": 17280,
            "time": 26.724682499999997,
            "velocity": 0.8267716535433071
          }
        ]
      },
      {
        "channel": 0,
        "controlChanges": {
          "7": [
            {
              "number": 7,
              "ticks": 11,
              "time": 0.009166666666666667,
              "value": 0.8110236220472441
            }
          ],
          "11": [
            {
              "number": 11,
              "ticks": 11,
              "time": 0.009166666666666667,
              "value": 1
            }
          ]
        },
        "pitchBends": [],
        "instrument": {
          "family": "piano",
          "number": 0,
          "name": "acoustic grand piano"
        },
        "name": "(C) HitTrax: Hotel California",
        "notes": [],
        "endOfTrackTicks": 19200
      },
      {
        "channel": 12,
        "controlChanges": {
          "10": [
            {
              "number": 10,
              "ticks": 785,
              "time": 0.6541666666666668,
              "value": 0.2677165354330709
            }
          ],
          "91": [
            {
              "number": 91,
              "ticks": 790,
              "time": 0.6583333333333333,
              "value": 0.11811023622047244
            }
          ],
          "93": [
            {
              "number": 93,
              "ticks": 790,
              "time": 0.6583333333333333,
              "value": 0.3937007874015748
            }
          ]
        },
        "pitchBends": [],
        "instrument": {
          "family": "guitar",
          "number": 28,
          "name": "electric guitar (muted)"
        },
        "name": "",
        "notes": [
          {
            "duration": 0.09740262500000085,
            "durationTicks": 60,
            "midi": 47,
            "name": "B2",
            "ticks": 17280,
            "time": 26.724682499999997,
            "velocity": 0.7637795275590551
          }
        ]
      },
      {
        "channel": 0,
        "controlChanges": {
          "7": [
            {
              "number": 7,
              "ticks": 12,
              "time": 0.010000000000000002,
              "value": 0.7007874015748031
            }
          ],
          "11": [
            {
              "number": 11,
              "ticks": 12,
              "time": 0.010000000000000002,
              "value": 1
            }
          ]
        },
        "pitchBends": [],
        "instrument": {
          "family": "piano",
          "number": 0,
          "name": "acoustic grand piano"
        },
        "name": "(C) HitTrax: Hotel California",
        "notes": [],
        "endOfTrackTicks": 19200
      },
      {
        "channel": 13,
        "controlChanges": {
          "10": [
            {
              "number": 10,
              "ticks": 810,
              "time": 0.675,
              "value": 0.7401574803149606
            }
          ],
          "91": [
            {
              "number": 91,
              "ticks": 815,
              "time": 0.6791666666666667,
              "value": 0.1968503937007874
            }
          ],
          "93": [
            {
              "number": 93,
              "ticks": 815,
              "time": 0.6791666666666667,
              "value": 0.3937007874015748
            }
          ]
        },
        "pitchBends": [],
        "instrument": {
          "family": "guitar",
          "number": 27,
          "name": "electric guitar (clean)"
        },
        "name": "",
        "notes": [
          {
            "duration": 0.04870131249999998,
            "durationTicks": 30,
            "midi": 67,
            "name": "G4",
            "ticks": 2160,
            "time": 2.179221,
            "velocity": 0.5984251968503937
          },
          {
            "duration": 0.04870131249999998,
            "durationTicks": 30,
            "midi": 71,
            "name": "B4",
            "ticks": 2160,
            "time": 2.179221,
            "velocity": 0.5984251968503937
          },
          {
            "duration": 0.04870131249999998,
            "durationTicks": 30,
            "midi": 67,
            "name": "G4",
            "ticks": 2280,
            "time": 2.37402625,
            "velocity": 0.952755905511811
          },
          {
            "duration": 0.04870131249999998,
            "durationTicks": 30,
            "midi": 71,
            "name": "B4",
            "ticks": 2280,
            "time": 2.37402625,
            "velocity": 0.8976377952755905
          },
          {
            "duration": 0.04870131250000043,
            "durationTicks": 30,
            "midi": 67,
            "name": "G4",
            "ticks": 2640,
            "time": 2.958442,
            "velocity": 0.6692913385826772
          },
          {
            "duration": 0.04870131250000043,
            "durationTicks": 30,
            "midi": 71,
            "name": "B4",
            "ticks": 2640,
            "time": 2.958442,
            "velocity": 0.6062992125984252
          },
          {
            "duration": 0.04870131250000043,
            "durationTicks": 30,
            "midi": 67,
            "name": "G4",
            "ticks": 2760,
            "time": 3.1532472499999997,
            "velocity": 0.8976377952755905
          },
          {
            "duration": 0.04870131250000043,
            "durationTicks": 30,
            "midi": 71,
            "name": "B4",
            "ticks": 2760,
            "time": 3.1532472499999997,
            "velocity": 0.8582677165354331
          },
          {
            "duration": 0.04870131249999954,
            "durationTicks": 30,
            "midi": 67,
            "name": "G4",
            "ticks": 3120,
            "time": 3.7376630000000004,
            "velocity": 0.6692913385826772
          },
          {
            "duration": 0.04870131249999954,
            "durationTicks": 30,
            "midi": 71,
            "name": "B4",
            "ticks": 3120,
            "time": 3.7376630000000004,
            "velocity": 0.6692913385826772
          },
          {
            "duration": 0.04870131249999954,
            "durationTicks": 30,
            "midi": 67,
            "name": "G4",
            "ticks": 3240,
            "time": 3.9324682500000003,
            "velocity": 0.8976377952755905
          },
          {
            "duration": 0.04870131249999954,
            "durationTicks": 30,
            "midi": 71,
            "name": "B4",
            "ticks": 3240,
            "time": 3.9324682500000003,
            "velocity": 0.8110236220472441
          },
          {
            "duration": 0.04870131249999954,
            "durationTicks": 30,
            "midi": 67,
            "name": "G4",
            "ticks": 3600,
            "time": 4.516884,
            "velocity": 0.7401574803149606
          },
          {
            "duration": 0.04870131249999954,
            "durationTicks": 30,
            "midi": 71,
            "name": "B4",
            "ticks": 3600,
            "time": 4.516884,
            "velocity": 0.7086614173228346
          },
          {
            "duration": 0.04870131249999954,
            "durationTicks": 30,
            "midi": 67,
            "name": "G4",
            "ticks": 3720,
            "time": 4.71168925,
            "velocity": 0.8582677165354331
          },
          {
            "duration": 0.04870131249999954,
            "durationTicks": 30,
            "midi": 71,
            "name": "B4",
            "ticks": 3720,
            "time": 4.71168925,
            "velocity": 0.7795275590551181
          },
          {
            "duration": 0.04870131250000043,
            "durationTicks": 30,
            "midi": 66,
            "name": "F#4",
            "ticks": 4080,
            "time": 5.296105,
            "velocity": 0.7086614173228346
          },
          {
            "duration": 0.04870131250000043,
            "durationTicks": 30,
            "midi": 69,
            "name": "A4",
            "ticks": 4080,
            "time": 5.296105,
            "velocity": 0.6850393700787402
          },
          {
            "duration": 0.04870131250000043,
            "durationTicks": 30,
            "midi": 66,
            "name": "F#4",
            "ticks": 4200,
            "time": 5.49091025,
            "velocity": 0.952755905511811
          },
          {
            "duration": 0.04870131250000043,
            "durationTicks": 30,
            "midi": 69,
            "name": "A4",
            "ticks": 4200,
            "time": 5.49091025,
            "velocity": 0.8110236220472441
          },
          {
            "duration": 0.04870131249999954,
            "durationTicks": 30,
            "midi": 66,
            "name": "F#4",
            "ticks": 4560,
            "time": 6.0753260000000004,
            "velocity": 0.6850393700787402
          },
          {
            "duration": 0.04870131249999954,
            "durationTicks": 30,
            "midi": 69,
            "name": "A4",
            "ticks": 4560,
            "time": 6.0753260000000004,
            "velocity": 0.6299212598425197
          },
          {
            "duration": 0.04870131249999954,
            "durationTicks": 30,
            "midi": 66,
            "name": "F#4",
            "ticks": 4680,
            "time": 6.27013125,
            "velocity": 0.8976377952755905
          },
          {
            "duration": 0.04870131249999954,
            "durationTicks": 30,
            "midi": 69,
            "name": "A4",
            "ticks": 4680,
            "time": 6.27013125,
            "velocity": 0.7637795275590551
          },
          {
            "duration": 0.04870131249999954,
            "durationTicks": 30,
            "midi": 66,
            "name": "F#4",
            "ticks": 5040,
            "time": 6.854547,
            "velocity": 0.6456692913385826
          },
          {
            "duration": 0.04870131249999954,
            "durationTicks": 30,
            "midi": 69,
            "name": "A4",
            "ticks": 5040,
            "time": 6.854547,
            "velocity": 0.6456692913385826
          },
          {
            "duration": 0.04870131249999954,
            "durationTicks": 30,
            "midi": 66,
            "name": "F#4",
            "ticks": 5160,
            "time": 7.04935225,
            "velocity": 0.8976377952755905
          },
          {
            "duration": 0.04870131249999954,
            "durationTicks": 30,
            "midi": 69,
            "name": "A4",
            "ticks": 5160,
            "time": 7.04935225,
            "velocity": 0.7795275590551181
          },
          {
            "duration": 0.04870131250000043,
            "durationTicks": 30,
            "midi": 66,
            "name": "F#4",
            "ticks": 5520,
            "time": 7.633768,
            "velocity": 0.7086614173228346
          },
          {
            "duration": 0.04870131250000043,
            "durationTicks": 30,
            "midi": 69,
            "name": "A4",
            "ticks": 5520,
            "time": 7.633768,
            "velocity": 0.6456692913385826
          },
          {
            "duration": 0.04870131250000043,
            "durationTicks": 30,
            "midi": 66,
            "name": "F#4",
            "ticks": 5640,
            "time": 7.82857325,
            "velocity": 0.8976377952755905
          },
          {
            "duration": 0.04870131250000043,
            "durationTicks": 30,
            "midi": 69,
            "name": "A4",
            "ticks": 5640,
            "time": 7.82857325,
            "velocity": 0.7637795275590551
          },
          {
            "duration": 0.04870131250000043,
            "durationTicks": 30,
            "midi": 66,
            "name": "F#4",
            "ticks": 6000,
            "time": 8.412989,
            "velocity": 0.6692913385826772
          },
          {
            "duration": 0.04870131250000043,
            "durationTicks": 30,
            "midi": 70,
            "name": "A#4",
            "ticks": 6000,
            "time": 8.412989,
            "velocity": 0.6850393700787402
          },
          {
            "duration": 0.04870131250000043,
            "durationTicks": 30,
            "midi": 66,
            "name": "F#4",
            "ticks": 6120,
            "time": 8.60779425,
            "velocity": 0.952755905511811
          },
          {
            "duration": 0.04870131250000043,
            "durationTicks": 30,
            "midi": 70,
            "name": "A#4",
            "ticks": 6120,
            "time": 8.60779425,
            "velocity": 0.8976377952755905
          },
          {
            "duration": 0.04870131250000043,
            "durationTicks": 30,
            "midi": 66,
            "name": "F#4",
            "ticks": 6480,
            "time": 9.19221,
            "velocity": 0.6692913385826772
          },
          {
            "duration": 0.04870131250000043,
            "durationTicks": 30,
            "midi": 70,
            "name": "A#4",
            "ticks": 6480,
            "time": 9.19221,
            "velocity": 0.6692913385826772
          },
          {
            "duration": 0.04870131250000043,
            "durationTicks": 30,
            "midi": 66,
            "name": "F#4",
            "ticks": 6600,
            "time": 9.38701525,
            "velocity": 0.8582677165354331
          },
          {
            "duration": 0.04870131250000043,
            "durationTicks": 30,
            "midi": 70,
            "name": "A#4",
            "ticks": 6600,
            "time": 9.38701525,
            "velocity": 0.8110236220472441
          },
          {
            "duration": 0.04870131250000043,
            "durationTicks": 30,
            "midi": 66,
            "name": "F#4",
            "ticks": 6960,
            "time": 9.971430999999999,
            "velocity": 0.6692913385826772
          },
          {
            "duration": 0.04870131250000043,
            "durationTicks": 30,
            "midi": 70,
            "name": "A#4",
            "ticks": 6960,
            "time": 9.971430999999999,
            "velocity": 0.6456692913385826
          },
          {
            "duration": 0.04870131250000043,
            "durationTicks": 30,
            "midi": 66,
            "name": "F#4",
            "ticks": 7080,
            "time": 10.166236249999999,
            "velocity": 0.8582677165354331
          },
          {
            "duration": 0.04870131250000043,
            "durationTicks": 30,
            "midi": 70,
            "name": "A#4",
            "ticks": 7080,
            "time": 10.166236249999999,
            "velocity": 0.7637795275590551
          },
          {
            "duration": 0.04870131249999865,
            "durationTicks": 30,
            "midi": 66,
            "name": "F#4",
            "ticks": 7440,
            "time": 10.750652,
            "velocity": 0.6850393700787402
          },
          {
            "duration": 0.04870131249999865,
            "durationTicks": 30,
            "midi": 70,
            "name": "A#4",
            "ticks": 7440,
            "time": 10.750652,
            "velocity": 0.6692913385826772
          },
          {
            "duration": 0.04870131249999865,
            "durationTicks": 30,
            "midi": 66,
            "name": "F#4",
            "ticks": 7560,
            "time": 10.94545725,
            "velocity": 0.952755905511811
          },
          {
            "duration": 0.04870131249999865,
            "durationTicks": 30,
            "midi": 70,
            "name": "A#4",
            "ticks": 7560,
            "time": 10.94545725,
            "velocity": 0.8976377952755905
          },
          {
            "duration": 0.04870131249999865,
            "durationTicks": 30,
            "midi": 66,
            "name": "F#4",
            "ticks": 7920,
            "time": 11.529873,
            "velocity": 0.6062992125984252
          },
          {
            "duration": 0.04870131249999865,
            "durationTicks": 30,
            "midi": 71,
            "name": "B4",
            "ticks": 7920,
            "time": 11.529873,
            "velocity": 0.6692913385826772
          },
          {
            "duration": 0.04870131249999865,
            "durationTicks": 30,
            "midi": 66,
            "name": "F#4",
            "ticks": 8040,
            "time": 11.72467825,
            "velocity": 0.8976377952755905
          },
          {
            "duration": 0.04870131249999865,
            "durationTicks": 30,
            "midi": 71,
            "name": "B4",
            "ticks": 8040,
            "time": 11.72467825,
            "velocity": 0.8976377952755905
          },
          {
            "duration": 0.04870131250000043,
            "durationTicks": 30,
            "midi": 66,
            "name": "F#4",
            "ticks": 8400,
            "time": 12.309094,
            "velocity": 0.7086614173228346
          },
          {
            "duration": 0.04870131250000043,
            "durationTicks": 30,
            "midi": 71,
            "name": "B4",
            "ticks": 8400,
            "time": 12.309094,
            "velocity": 0.6692913385826772
          },
          {
            "duration": 0.04870131250000043,
            "durationTicks": 30,
            "midi": 66,
            "name": "F#4",
            "ticks": 8520,
            "time": 12.50389925,
            "velocity": 0.8976377952755905
          },
          {
            "duration": 0.04870131250000043,
            "durationTicks": 30,
            "midi": 71,
            "name": "B4",
            "ticks": 8520,
            "time": 12.50389925,
            "velocity": 0.8582677165354331
          },
          {
            "duration": 0.04870131250000043,
            "durationTicks": 30,
            "midi": 66,
            "name": "F#4",
            "ticks": 8880,
            "time": 13.088315,
            "velocity": 0.6850393700787402
          },
          {
            "duration": 0.04870131250000043,
            "durationTicks": 30,
            "midi": 71,
            "name": "B4",
            "ticks": 8880,
            "time": 13.088315,
            "velocity": 0.6692913385826772
          },
          {
            "duration": 0.04870131250000043,
            "durationTicks": 30,
            "midi": 66,
            "name": "F#4",
            "ticks": 9000,
            "time": 13.28312025,
            "velocity": 0.952755905511811
          },
          {
            "duration": 0.04870131250000043,
            "durationTicks": 30,
            "midi": 71,
            "name": "B4",
            "ticks": 9000,
            "time": 13.28312025,
            "velocity": 0.8582677165354331
          },
          {
            "duration": 0.04870131250000043,
            "durationTicks": 30,
            "midi": 66,
            "name": "F#4",
            "ticks": 9360,
            "time": 13.867536,
            "velocity": 0.6850393700787402
          },
          {
            "duration": 0.04870131250000043,
            "durationTicks": 30,
            "midi": 71,
            "name": "B4",
            "ticks": 9360,
            "time": 13.867536,
            "velocity": 0.7244094488188977
          },
          {
            "duration": 0.04870131250000043,
            "durationTicks": 30,
            "midi": 66,
            "name": "F#4",
            "ticks": 9480,
            "time": 14.06234125,
            "velocity": 0.952755905511811
          },
          {
            "duration": 0.04870131250000043,
            "durationTicks": 30,
            "midi": 71,
            "name": "B4",
            "ticks": 9480,
            "time": 14.06234125,
            "velocity": 0.8582677165354331
          },
          {
            "duration": 0.04870131250000043,
            "durationTicks": 30,
            "midi": 67,
            "name": "G4",
            "ticks": 9840,
            "time": 14.646757,
            "velocity": 0.6850393700787402
          },
          {
            "duration": 0.04870131250000043,
            "durationTicks": 30,
            "midi": 71,
            "name": "B4",
            "ticks": 9840,
            "time": 14.646757,
            "velocity": 0.6850393700787402
          },
          {
            "duration": 0.04870131250000043,
            "durationTicks": 30,
            "midi": 67,
            "name": "G4",
            "ticks": 9960,
            "time": 14.841562249999999,
            "velocity": 0.8976377952755905
          },
          {
            "duration": 0.04870131250000043,
            "durationTicks": 30,
            "midi": 71,
            "name": "B4",
            "ticks": 9960,
            "time": 14.841562249999999,
            "velocity": 0.8582677165354331
          },
          {
            "duration": 0.04870131250000043,
            "durationTicks": 30,
            "midi": 67,
            "name": "G4",
            "ticks": 10320,
            "time": 15.425977999999999,
            "velocity": 0.7401574803149606
          },
          {
            "duration": 0.04870131250000043,
            "durationTicks": 30,
            "midi": 71,
            "name": "B4",
            "ticks": 10320,
            "time": 15.425977999999999,
            "velocity": 0.7244094488188977
          },
          {
            "duration": 0.04870131250000043,
            "durationTicks": 30,
            "midi": 67,
            "name": "G4",
            "ticks": 10440,
            "time": 15.620783249999999,
            "velocity": 0.8976377952755905
          },
          {
            "duration": 0.04870131250000043,
            "durationTicks": 30,
            "midi": 71,
            "name": "B4",
            "ticks": 10440,
            "time": 15.620783249999999,
            "velocity": 0.8582677165354331
          },
          {
            "duration": 0.04870131250000043,
            "durationTicks": 30,
            "midi": 67,
            "name": "G4",
            "ticks": 10800,
            "time": 16.205198999999997,
            "velocity": 0.7244094488188977
          },
          {
            "duration": 0.04870131250000043,
            "durationTicks": 30,
            "midi": 71,
            "name": "B4",
            "ticks": 10800,
            "time": 16.205198999999997,
            "velocity": 0.6692913385826772
          },
          {
            "duration": 0.04870131250000043,
            "durationTicks": 30,
            "midi": 67,
            "name": "G4",
            "ticks": 10920,
            "time": 16.40000425,
            "velocity": 0.8110236220472441
          },
          {
            "duration": 0.04870131250000043,
            "durationTicks": 30,
            "midi": 71,
            "name": "B4",
            "ticks": 10920,
            "time": 16.40000425,
            "velocity": 0.7795275590551181
          },
          {
            "duration": 0.04870131250000043,
            "durationTicks": 30,
            "midi": 67,
            "name": "G4",
            "ticks": 11280,
            "time": 16.984419999999997,
            "velocity": 0.6692913385826772
          },
          {
            "duration": 0.04870131250000043,
            "durationTicks": 30,
            "midi": 71,
            "name": "B4",
            "ticks": 11280,
            "time": 16.984419999999997,
            "velocity": 0.6692913385826772
          },
          {
            "duration": 0.04870131250000043,
            "durationTicks": 30,
            "midi": 67,
            "name": "G4",
            "ticks": 11400,
            "time": 17.17922525,
            "velocity": 0.8976377952755905
          },
          {
            "duration": 0.04870131250000043,
            "durationTicks": 30,
            "midi": 71,
            "name": "B4",
            "ticks": 11400,
            "time": 17.17922525,
            "velocity": 0.8976377952755905
          },
          {
            "duration": 0.04870131250000043,
            "durationTicks": 30,
            "midi": 66,
            "name": "F#4",
            "ticks": 11760,
            "time": 17.763640999999996,
            "velocity": 0.7086614173228346
          },
          {
            "duration": 0.04870131250000043,
            "durationTicks": 30,
            "midi": 69,
            "name": "A4",
            "ticks": 11760,
            "time": 17.763640999999996,
            "velocity": 0.6692913385826772
          },
          {
            "duration": 0.04870131250000043,
            "durationTicks": 30,
            "midi": 66,
            "name": "F#4",
            "ticks": 11880,
            "time": 17.958446249999998,
            "velocity": 0.8976377952755905
          },
          {
            "duration": 0.04870131250000043,
            "durationTicks": 30,
            "midi": 69,
            "name": "A4",
            "ticks": 11880,
            "time": 17.958446249999998,
            "velocity": 0.8110236220472441
          },
          {
            "duration": 0.04870131250000043,
            "durationTicks": 30,
            "midi": 66,
            "name": "F#4",
            "ticks": 12240,
            "time": 18.542861999999996,
            "velocity": 0.7244094488188977
          },
          {
            "duration": 0.04870131250000043,
            "durationTicks": 30,
            "midi": 69,
            "name": "A4",
            "ticks": 12240,
            "time": 18.542861999999996,
            "velocity": 0.6692913385826772
          },
          {
            "duration": 0.04870131250000043,
            "durationTicks": 30,
            "midi": 66,
            "name": "F#4",
            "ticks": 12360,
            "time": 18.737667249999998,
            "velocity": 0.952755905511811
          },
          {
            "duration": 0.04870131250000043,
            "durationTicks": 30,
            "midi": 69,
            "name": "A4",
            "ticks": 12360,
            "time": 18.737667249999998,
            "velocity": 0.7401574803149606
          },
          {
            "duration": 0.04870131250000043,
            "durationTicks": 30,
            "midi": 66,
            "name": "F#4",
            "ticks": 12720,
            "time": 19.322082999999996,
            "velocity": 0.6456692913385826
          },
          {
            "duration": 0.04870131250000043,
            "durationTicks": 30,
            "midi": 69,
            "name": "A4",
            "ticks": 12720,
            "time": 19.322082999999996,
            "velocity": 0.6456692913385826
          },
          {
            "duration": 0.04870131250000043,
            "durationTicks": 30,
            "midi": 66,
            "name": "F#4",
            "ticks": 12840,
            "time": 19.516888249999997,
            "velocity": 0.952755905511811
          },
          {
            "duration": 0.04870131250000043,
            "durationTicks": 30,
            "midi": 69,
            "name": "A4",
            "ticks": 12840,
            "time": 19.516888249999997,
            "velocity": 0.7795275590551181
          },
          {
            "duration": 0.048701312499996874,
            "durationTicks": 30,
            "midi": 66,
            "name": "F#4",
            "ticks": 13200,
            "time": 20.101304,
            "velocity": 0.7244094488188977
          },
          {
            "duration": 0.048701312499996874,
            "durationTicks": 30,
            "midi": 69,
            "name": "A4",
            "ticks": 13200,
            "time": 20.101304,
            "velocity": 0.6299212598425197
          },
          {
            "duration": 0.04870131250000043,
            "durationTicks": 30,
            "midi": 66,
            "name": "F#4",
            "ticks": 13320,
            "time": 20.296109249999997,
            "velocity": 0.952755905511811
          },
          {
            "duration": 0.04870131250000043,
            "durationTicks": 30,
            "midi": 69,
            "name": "A4",
            "ticks": 13320,
            "time": 20.296109249999997,
            "velocity": 0.8110236220472441
          },
          {
            "duration": 0.048701312499996874,
            "durationTicks": 30,
            "midi": 67,
            "name": "G4",
            "ticks": 13680,
            "time": 20.880525,
            "velocity": 0.6850393700787402
          },
          {
            "duration": 0.048701312499996874,
            "durationTicks": 30,
            "midi": 69,
            "name": "A4",
            "ticks": 13680,
            "time": 20.880525,
            "velocity": 0.28346456692913385
          },
          {
            "duration": 0.048701312499996874,
            "durationTicks": 30,
            "midi": 71,
            "name": "B4",
            "ticks": 13680,
            "time": 20.880525,
            "velocity": 0.49606299212598426
          },
          {
            "duration": 0.04870131250000043,
            "durationTicks": 30,
            "midi": 67,
            "name": "G4",
            "ticks": 13800,
            "time": 21.075330249999997,
            "velocity": 1
          },
          {
            "duration": 0.04870131250000043,
            "durationTicks": 30,
            "midi": 71,
            "name": "B4",
            "ticks": 13800,
            "time": 21.075330249999997,
            "velocity": 0.8110236220472441
          },
          {
            "duration": 0.04870131250000043,
            "durationTicks": 30,
            "midi": 67,
            "name": "G4",
            "ticks": 14160,
            "time": 21.659746,
            "velocity": 0.7244094488188977
          },
          {
            "duration": 0.04870131250000043,
            "durationTicks": 30,
            "midi": 71,
            "name": "B4",
            "ticks": 14160,
            "time": 21.659746,
            "velocity": 0.7086614173228346
          },
          {
            "duration": 0.04870131250000043,
            "durationTicks": 30,
            "midi": 67,
            "name": "G4",
            "ticks": 14280,
            "time": 21.854551249999997,
            "velocity": 0.8976377952755905
          },
          {
            "duration": 0.04870131250000043,
            "durationTicks": 30,
            "midi": 71,
            "name": "B4",
            "ticks": 14280,
            "time": 21.854551249999997,
            "velocity": 0.8582677165354331
          },
          {
            "duration": 0.04870131250000043,
            "durationTicks": 30,
            "midi": 67,
            "name": "G4",
            "ticks": 14640,
            "time": 22.438966999999998,
            "velocity": 0.7401574803149606
          },
          {
            "duration": 0.04870131250000043,
            "durationTicks": 30,
            "midi": 71,
            "name": "B4",
            "ticks": 14640,
            "time": 22.438966999999998,
            "velocity": 0.6692913385826772
          },
          {
            "duration": 0.04870131250000043,
            "durationTicks": 30,
            "midi": 67,
            "name": "G4",
            "ticks": 14760,
            "time": 22.633772249999996,
            "velocity": 0.8110236220472441
          },
          {
            "duration": 0.04870131250000043,
            "durationTicks": 30,
            "midi": 71,
            "name": "B4",
            "ticks": 14760,
            "time": 22.633772249999996,
            "velocity": 0.8582677165354331
          },
          {
            "duration": 0.04870131250000043,
            "durationTicks": 30,
            "midi": 67,
            "name": "G4",
            "ticks": 15120,
            "time": 23.218187999999998,
            "velocity": 0.7086614173228346
          },
          {
            "duration": 0.04870131250000043,
            "durationTicks": 30,
            "midi": 71,
            "name": "B4",
            "ticks": 15120,
            "time": 23.218187999999998,
            "velocity": 0.6850393700787402
          },
          {
            "duration": 0.04870131250000043,
            "durationTicks": 30,
            "midi": 67,
            "name": "G4",
            "ticks": 15240,
            "time": 23.412993249999996,
            "velocity": 0.952755905511811
          },
          {
            "duration": 0.04870131250000043,
            "durationTicks": 30,
            "midi": 71,
            "name": "B4",
            "ticks": 15240,
            "time": 23.412993249999996,
            "velocity": 0.8582677165354331
          },
          {
            "duration": 0.04870131250000043,
            "durationTicks": 30,
            "midi": 66,
            "name": "F#4",
            "ticks": 15600,
            "time": 23.997408999999998,
            "velocity": 0.6692913385826772
          },
          {
            "duration": 0.04870131250000043,
            "durationTicks": 30,
            "midi": 70,
            "name": "A#4",
            "ticks": 15600,
            "time": 23.997408999999998,
            "velocity": 0.6456692913385826
          },
          {
            "duration": 0.04870131250000043,
            "durationTicks": 30,
            "midi": 66,
            "name": "F#4",
            "ticks": 15720,
            "time": 24.192214249999996,
            "velocity": 0.8976377952755905
          },
          {
            "duration": 0.04870131250000043,
            "durationTicks": 30,
            "midi": 70,
            "name": "A#4",
            "ticks": 15720,
            "time": 24.192214249999996,
            "velocity": 0.8110236220472441
          },
          {
            "duration": 0.04870131250000043,
            "durationTicks": 30,
            "midi": 66,
            "name": "F#4",
            "ticks": 16080,
            "time": 24.776629999999997,
            "velocity": 0.7086614173228346
          },
          {
            "duration": 0.04870131250000043,
            "durationTicks": 30,
            "midi": 70,
            "name": "A#4",
            "ticks": 16080,
            "time": 24.776629999999997,
            "velocity": 0.7244094488188977
          },
          {
            "duration": 0.04870131250000043,
            "durationTicks": 30,
            "midi": 66,
            "name": "F#4",
            "ticks": 16200,
            "time": 24.971435249999995,
            "velocity": 0.8976377952755905
          },
          {
            "duration": 0.04870131250000043,
            "durationTicks": 30,
            "midi": 70,
            "name": "A#4",
            "ticks": 16200,
            "time": 24.971435249999995,
            "velocity": 0.7795275590551181
          },
          {
            "duration": 0.04870131250000043,
            "durationTicks": 30,
            "midi": 66,
            "name": "F#4",
            "ticks": 16560,
            "time": 25.555850999999997,
            "velocity": 0.7244094488188977
          },
          {
            "duration": 0.04870131250000043,
            "durationTicks": 30,
            "midi": 70,
            "name": "A#4",
            "ticks": 16560,
            "time": 25.555850999999997,
            "velocity": 0.7086614173228346
          },
          {
            "duration": 0.04870131250000043,
            "durationTicks": 30,
            "midi": 66,
            "name": "F#4",
            "ticks": 16680,
            "time": 25.750656249999995,
            "velocity": 0.8976377952755905
          },
          {
            "duration": 0.04870131250000043,
            "durationTicks": 30,
            "midi": 70,
            "name": "A#4",
            "ticks": 16680,
            "time": 25.750656249999995,
            "velocity": 0.8582677165354331
          },
          {
            "duration": 0.04870131250000043,
            "durationTicks": 30,
            "midi": 66,
            "name": "F#4",
            "ticks": 17040,
            "time": 26.335071999999997,
            "velocity": 0.7244094488188977
          },
          {
            "duration": 0.04870131250000043,
            "durationTicks": 30,
            "midi": 70,
            "name": "A#4",
            "ticks": 17040,
            "time": 26.335071999999997,
            "velocity": 0.7244094488188977
          },
          {
            "duration": 0.048701312499996874,
            "durationTicks": 30,
            "midi": 66,
            "name": "F#4",
            "ticks": 17160,
            "time": 26.52987725,
            "velocity": 0.8976377952755905
          },
          {
            "duration": 0.048701312499996874,
            "durationTicks": 30,
            "midi": 70,
            "name": "A#4",
            "ticks": 17160,
            "time": 26.52987725,
            "velocity": 0.8110236220472441
          }
        ]
      },
      {
        "channel": 0,
        "controlChanges": {
          "7": [
            {
              "number": 7,
              "ticks": 13,
              "time": 0.010833333333333334,
              "value": 0.3858267716535433
            }
          ],
          "11": [
            {
              "number": 11,
              "ticks": 13,
              "time": 0.010833333333333334,
              "value": 0.05511811023622047
            }
          ]
        },
        "pitchBends": [],
        "instrument": {
          "family": "piano",
          "number": 0,
          "name": "acoustic grand piano"
        },
        "name": "(C) HitTrax: Hotel California",
        "notes": [],
        "endOfTrackTicks": 19200
      },
      {
        "channel": 14,
        "controlChanges": {
          "10": [
            {
              "number": 10,
              "ticks": 835,
              "time": 0.6958333333333333,
              "value": 0.4251968503937008
            }
          ],
          "91": [
            {
              "number": 91,
              "ticks": 840,
              "time": 0.7000000000000001,
              "value": 0.7874015748031497
            }
          ],
          "93": [
            {
              "number": 93,
              "ticks": 840,
              "time": 0.7000000000000001,
              "value": 0.5039370078740157
            }
          ]
        },
        "pitchBends": [],
        "instrument": {
          "family": "organ",
          "number": 18,
          "name": "rock organ"
        },
        "name": "",
        "notes": [
          {
            "duration": 6.2337679999999995,
            "durationTicks": 3840,
            "midi": 74,
            "name": "D5",
            "ticks": 1920,
            "time": 1.7896105000000002,
            "velocity": 0.7952755905511811
          },
          {
            "duration": 3.1168839999999998,
            "durationTicks": 1920,
            "midi": 79,
            "name": "G5",
            "ticks": 1920,
            "time": 1.7896105000000002,
            "velocity": 0.7952755905511811
          },
          {
            "duration": 3.1168839999999998,
            "durationTicks": 1920,
            "midi": 83,
            "name": "B5",
            "ticks": 1920,
            "time": 1.7896105000000002,
            "velocity": 0.8346456692913385
          },
          {
            "duration": 9.350652,
            "durationTicks": 5760,
            "midi": 78,
            "name": "F#5",
            "ticks": 3840,
            "time": 4.9064945,
            "velocity": 0.8346456692913385
          },
          {
            "duration": 3.1168839999999998,
            "durationTicks": 1920,
            "midi": 81,
            "name": "A5",
            "ticks": 3840,
            "time": 4.9064945,
            "velocity": 0.7165354330708661
          },
          {
            "duration": 3.1168840000000007,
            "durationTicks": 1920,
            "midi": 73,
            "name": "C#5",
            "ticks": 5760,
            "time": 8.0233785,
            "velocity": 0.7480314960629921
          },
          {
            "duration": 3.1168840000000007,
            "durationTicks": 1920,
            "midi": 82,
            "name": "A#5",
            "ticks": 5760,
            "time": 8.0233785,
            "velocity": 0.7165354330708661
          },
          {
            "duration": 9.350651999999998,
            "durationTicks": 5760,
            "midi": 74,
            "name": "D5",
            "ticks": 7680,
            "time": 11.1402625,
            "velocity": 0.7952755905511811
          },
          {
            "duration": 6.2337679999999995,
            "durationTicks": 3840,
            "midi": 83,
            "name": "B5",
            "ticks": 7680,
            "time": 11.1402625,
            "velocity": 0.7165354330708661
          },
          {
            "duration": 3.1168840000000007,
            "durationTicks": 1920,
            "midi": 79,
            "name": "G5",
            "ticks": 9600,
            "time": 14.2571465,
            "velocity": 0.8346456692913385
          },
          {
            "duration": 3.116883999999999,
            "durationTicks": 1920,
            "midi": 78,
            "name": "F#5",
            "ticks": 11520,
            "time": 17.3740305,
            "velocity": 0.8346456692913385
          },
          {
            "duration": 3.116883999999999,
            "durationTicks": 1920,
            "midi": 81,
            "name": "A5",
            "ticks": 11520,
            "time": 17.3740305,
            "velocity": 0.7480314960629921
          },
          {
            "duration": 3.116883999999999,
            "durationTicks": 1920,
            "midi": 76,
            "name": "E5",
            "ticks": 13440,
            "time": 20.4909145,
            "velocity": 0.8346456692913385
          },
          {
            "duration": 3.116883999999999,
            "durationTicks": 1920,
            "midi": 79,
            "name": "G5",
            "ticks": 13440,
            "time": 20.4909145,
            "velocity": 0.7165354330708661
          },
          {
            "duration": 3.116883999999999,
            "durationTicks": 1920,
            "midi": 83,
            "name": "B5",
            "ticks": 13440,
            "time": 20.4909145,
            "velocity": 0.6456692913385826
          },
          {
            "duration": 3.116883999999999,
            "durationTicks": 1920,
            "midi": 78,
            "name": "F#5",
            "ticks": 15360,
            "time": 23.607798499999998,
            "velocity": 0.6771653543307087
          },
          {
            "duration": 3.116883999999999,
            "durationTicks": 1920,
            "midi": 82,
            "name": "A#5",
            "ticks": 15360,
            "time": 23.607798499999998,
            "velocity": 0.6771653543307087
          },
          {
            "duration": 3.116883999999999,
            "durationTicks": 1920,
            "midi": 85,
            "name": "C#6",
            "ticks": 15360,
            "time": 23.607798499999998,
            "velocity": 0.6771653543307087
          },
          {
            "duration": 0.1948052500000017,
            "durationTicks": 120,
            "midi": 66,
            "name": "F#4",
            "ticks": 17280,
            "time": 26.724682499999997,
            "velocity": 0.889763779527559
          },
          {
            "duration": 0.1948052500000017,
            "durationTicks": 120,
            "midi": 71,
            "name": "B4",
            "ticks": 17280,
            "time": 26.724682499999997,
            "velocity": 0.84251968503937
          },
          {
            "duration": 0.1948052500000017,
            "durationTicks": 120,
            "midi": 74,
            "name": "D5",
            "ticks": 17280,
            "time": 26.724682499999997,
            "velocity": 0.7244094488188977
          }
        ]
      }
    ]
  }