{
  "header": {
    "keySignatures": [
      {
        "key": "G",
        "scale": "major",
        "ticks": 0
      }
    ],
    "meta": [],
    "name": "I Believe",
    "ppq": 480,
    "tempos": [
      {
        "bpm": 64.99999458333379,
        "ticks": 0
      }
    ],
    "timeSignatures": [
      {
        "ticks": 0,
        "timeSignature": [
          2,
          4
        ],
        "measures": 0
      }
    ]
  },
  "tracks": [
    {
      "channel": 0,
      "controlChanges": {},
      "pitchBends": [],
      "instrument": {
        "family": "piano",
        "number": 0,
        "name": "acoustic grand piano"
      },
      "name": "I Believe",
      "notes": [],
      "endOfTrackTicks": 59520
    },
    {
      "channel": 5,
      "controlChanges": {
        "7": [
          {
            "number": 7,
            "ticks": 0,
            "time": 0,
            "value": 1
          },
          {
            "number": 7,
            "ticks": 0,
            "time": 0,
            "value": 1
          }
        ],
        "10": [
          {
            "number": 10,
            "ticks": 0,
            "time": 0,
            "value": 0.5039370078740157
          },
          {
            "number": 10,
            "ticks": 0,
            "time": 0,
            "value": 0.5039370078740157
          }
        ]
      },
      "pitchBends": [],
      "instrument": {
        "family": "synth lead",
        "number": 80,
        "name": "lead 1 (square)"
      },
      "name": "",
      "notes": [
        {
          "duration": 0.40769234166666735,
          "durationTicks": 212,
          "midi": 74,
          "name": "D5",
          "ticks": 8160,
          "time": 15.692308999999998,
          "velocity": 0.968503937007874
        },
        {
          "duration": 0.21538463333333624,
          "durationTicks": 112,
          "midi": 67,
          "name": "G4",
          "ticks": 8400,
          "time": 16.153847499999998,
          "velocity": 0.968503937007874
        },
        {
          "duration": 0.48461542499999766,
          "durationTicks": 252,
          "midi": 69,
          "name": "A4",
          "ticks": 8520,
          "time": 16.38461675,
          "velocity": 0.968503937007874
        },
        {
          "duration": 0.2153846333333327,
          "durationTicks": 112,
          "midi": 69,
          "name": "A4",
          "ticks": 9360,
          "time": 18.0000015,
          "velocity": 0.968503937007874
        },
        {
          "duration": 0.21538463333333624,
          "durationTicks": 112,
          "midi": 71,
          "name": "B4",
          "ticks": 9480,
          "time": 18.230770749999998,
          "velocity": 0.968503937007874
        },
        {
          "duration": 0.4230769583333327,
          "durationTicks": 220,
          "midi": 72,
          "name": "C5",
          "ticks": 9600,
          "time": 18.46154,
          "velocity": 0.968503937007874
        },
        {
          "duration": 0.1923077083333311,
          "durationTicks": 100,
          "midi": 71,
          "name": "B4",
          "ticks": 9840,
          "time": 18.9230785,
          "velocity": 0.968503937007874
        },
        {
          "duration": 0.4461538833333343,
          "durationTicks": 232,
          "midi": 72,
          "name": "C5",
          "ticks": 9960,
          "time": 19.153847749999997,
          "velocity": 0.968503937007874
        },
        {
          "duration": 0.4230769583333327,
          "durationTicks": 220,
          "midi": 74,
          "name": "D5",
          "ticks": 10200,
          "time": 19.615386249999997,
          "velocity": 0.968503937007874
        },
        {
          "duration": 0.46153849999999963,
          "durationTicks": 240,
          "midi": 74,
          "name": "D5",
          "ticks": 10440,
          "time": 20.07692475,
          "velocity": 0.968503937007874
        },
        {
          "duration": 0.11538462499999724,
          "durationTicks": 60,
          "midi": 72,
          "name": "C5",
          "ticks": 10680,
          "time": 20.53846325,
          "velocity": 0.968503937007874
        },
        {
          "duration": 0.1153846250000008,
          "durationTicks": 60,
          "midi": 71,
          "name": "B4",
          "ticks": 10740,
          "time": 20.653847874999997,
          "velocity": 0.968503937007874
        },
        {
          "duration": 0.4230769583333327,
          "durationTicks": 220,
          "midi": 71,
          "name": "B4",
          "ticks": 12000,
          "time": 23.076925,
          "velocity": 0.968503937007874
        },
        {
          "duration": 0.2153846333333327,
          "durationTicks": 112,
          "midi": 64,
          "name": "E4",
          "ticks": 12240,
          "time": 23.5384635,
          "velocity": 0.968503937007874
        },
        {
          "duration": 0.5769231250000004,
          "durationTicks": 300,
          "midi": 69,
          "name": "A4",
          "ticks": 12360,
          "time": 23.769232749999997,
          "velocity": 0.968503937007874
        },
        {
          "duration": 0.21538463333333624,
          "durationTicks": 112,
          "midi": 64,
          "name": "E4",
          "ticks": 13200,
          "time": 25.384617499999997,
          "velocity": 0.968503937007874
        },
        {
          "duration": 0.2153846333333327,
          "durationTicks": 112,
          "midi": 66,
          "name": "F#4",
          "ticks": 13320,
          "time": 25.61538675,
          "velocity": 0.968503937007874
        },
        {
          "duration": 0.4230769583333327,
          "durationTicks": 220,
          "midi": 67,
          "name": "G4",
          "ticks": 13440,
          "time": 25.846155999999997,
          "velocity": 0.968503937007874
        },
        {
          "duration": 0.21538463333333624,
          "durationTicks": 112,
          "midi": 66,
          "name": "F#4",
          "ticks": 13680,
          "time": 26.307694499999997,
          "velocity": 0.968503937007874
        },
        {
          "duration": 0.4461538833333343,
          "durationTicks": 232,
          "midi": 67,
          "name": "G4",
          "ticks": 13800,
          "time": 26.53846375,
          "velocity": 0.968503937007874
        },
        {
          "duration": 0.4230769583333327,
          "durationTicks": 220,
          "midi": 69,
          "name": "A4",
          "ticks": 14040,
          "time": 27.000002249999998,
          "velocity": 0.968503937007874
        },
        {
          "duration": 0.7538462166666662,
          "durationTicks": 392,
          "midi": 69,
          "name": "A4",
          "ticks": 14280,
          "time": 27.461540749999998,
          "velocity": 0.968503937007874
        },
        {
          "duration": 0.4076923416666709,
          "durationTicks": 212,
          "midi": 74,
          "name": "D5",
          "ticks": 15840,
          "time": 30.461540999999997,
          "velocity": 0.968503937007874
        },
        {
          "duration": 0.21538463333333624,
          "durationTicks": 112,
          "midi": 67,
          "name": "G4",
          "ticks": 16080,
          "time": 30.923079499999997,
          "velocity": 0.968503937007874
        },
        {
          "duration": 0.48461542499999766,
          "durationTicks": 252,
          "midi": 69,
          "name": "A4",
          "ticks": 16200,
          "time": 31.153848749999998,
          "velocity": 0.968503937007874
        },
        {
          "duration": 0.21538463333333624,
          "durationTicks": 112,
          "midi": 69,
          "name": "A4",
          "ticks": 17040,
          "time": 32.7692335,
          "velocity": 0.968503937007874
        },
        {
          "duration": 0.21538463333332913,
          "durationTicks": 112,
          "midi": 71,
          "name": "B4",
          "ticks": 17160,
          "time": 33.00000275,
          "velocity": 0.968503937007874
        },
        {
          "duration": 0.4230769583333398,
          "durationTicks": 220,
          "midi": 72,
          "name": "C5",
          "ticks": 17280,
          "time": 33.230771999999995,
          "velocity": 0.968503937007874
        },
        {
          "duration": 0.1923077083333382,
          "durationTicks": 100,
          "midi": 71,
          "name": "B4",
          "ticks": 17520,
          "time": 33.6923105,
          "velocity": 0.968503937007874
        },
        {
          "duration": 0.4461538833333307,
          "durationTicks": 232,
          "midi": 72,
          "name": "C5",
          "ticks": 17640,
          "time": 33.92307975,
          "velocity": 0.968503937007874
        },
        {
          "duration": 0.4230769583333398,
          "durationTicks": 220,
          "midi": 74,
          "name": "D5",
          "ticks": 17880,
          "time": 34.384618249999995,
          "velocity": 0.968503937007874
        },
        {
          "duration": 0.4615384999999961,
          "durationTicks": 240,
          "midi": 74,
          "name": "D5",
          "ticks": 18120,
          "time": 34.84615675,
          "velocity": 0.968503937007874
        },
        {
          "duration": 0.11538462500000435,
          "durationTicks": 60,
          "midi": 72,
          "name": "C5",
          "ticks": 18360,
          "time": 35.307695249999995,
          "velocity": 0.968503937007874
        },
        {
          "duration": 0.11538462499999724,
          "durationTicks": 60,
          "midi": 71,
          "name": "B4",
          "ticks": 18420,
          "time": 35.423079875,
          "velocity": 0.968503937007874
        },
        {
          "duration": 0.4230769583333327,
          "durationTicks": 220,
          "midi": 71,
          "name": "B4",
          "ticks": 19560,
          "time": 37.61538775,
          "velocity": 0.968503937007874
        },
        {
          "duration": 0.4461538833333307,
          "durationTicks": 232,
          "midi": 76,
          "name": "E5",
          "ticks": 19800,
          "time": 38.07692625,
          "velocity": 0.968503937007874
        },
        {
          "duration": 0.4230769583333398,
          "durationTicks": 220,
          "midi": 71,
          "name": "B4",
          "ticks": 20040,
          "time": 38.538464749999996,
          "velocity": 0.968503937007874
        },
        {
          "duration": 0.5769231250000004,
          "durationTicks": 300,
          "midi": 69,
          "name": "A4",
          "ticks": 20280,
          "time": 39.00000325,
          "velocity": 0.968503937007874
        },
        {
          "duration": 0.21538463333332913,
          "durationTicks": 112,
          "midi": 64,
          "name": "E4",
          "ticks": 20880,
          "time": 40.1538495,
          "velocity": 0.968503937007874
        },
        {
          "duration": 0.21538463333333624,
          "durationTicks": 112,
          "midi": 66,
          "name": "F#4",
          "ticks": 21000,
          "time": 40.384618749999994,
          "velocity": 0.968503937007874
        },
        {
          "duration": 0.4230769583333398,
          "durationTicks": 220,
          "midi": 67,
          "name": "G4",
          "ticks": 21120,
          "time": 40.615387999999996,
          "velocity": 0.968503937007874
        },
        {
          "duration": 0.21538463333332913,
          "durationTicks": 112,
          "midi": 66,
          "name": "F#4",
          "ticks": 21360,
          "time": 41.0769265,
          "velocity": 0.968503937007874
        },
        {
          "duration": 0.44615388333333783,
          "durationTicks": 232,
          "midi": 67,
          "name": "G4",
          "ticks": 21480,
          "time": 41.30769574999999,
          "velocity": 0.968503937007874
        },
        {
          "duration": 0.4615385000000032,
          "durationTicks": 240,
          "midi": 69,
          "name": "A4",
          "ticks": 21720,
          "time": 41.76923425,
          "velocity": 0.968503937007874
        },
        {
          "duration": 0.7923077583333296,
          "durationTicks": 412,
          "midi": 69,
          "name": "A4",
          "ticks": 21960,
          "time": 42.23077275,
          "velocity": 0.968503937007874
        },
        {
          "duration": 0.4461538833333307,
          "durationTicks": 232,
          "midi": 67,
          "name": "G4",
          "ticks": 23520,
          "time": 45.230773,
          "velocity": 0.968503937007874
        },
        {
          "duration": 0.44615388333333783,
          "durationTicks": 232,
          "midi": 69,
          "name": "A4",
          "ticks": 23760,
          "time": 45.692311499999995,
          "velocity": 0.968503937007874
        },
        {
          "duration": 0.4230769583333327,
          "durationTicks": 220,
          "midi": 71,
          "name": "B4",
          "ticks": 24000,
          "time": 46.15385,
          "velocity": 0.968503937007874
        },
        {
          "duration": 0.21538463333333624,
          "durationTicks": 112,
          "midi": 74,
          "name": "D5",
          "ticks": 24240,
          "time": 46.615388499999995,
          "velocity": 0.968503937007874
        },
        {
          "duration": 0.4461538833333307,
          "durationTicks": 232,
          "midi": 74,
          "name": "D5",
          "ticks": 24360,
          "time": 46.846157749999996,
          "velocity": 0.968503937007874
        },
        {
          "duration": 0.21538463333333624,
          "durationTicks": 112,
          "midi": 74,
          "name": "D5",
          "ticks": 24840,
          "time": 47.769234749999995,
          "velocity": 0.968503937007874
        },
        {
          "duration": 0.4230769583333327,
          "durationTicks": 220,
          "midi": 74,
          "name": "D5",
          "ticks": 24960,
          "time": 48.000004,
          "velocity": 0.968503937007874
        },
        {
          "duration": 0.44615388333333783,
          "durationTicks": 232,
          "midi": 76,
          "name": "E5",
          "ticks": 25200,
          "time": 48.46154249999999,
          "velocity": 0.968503937007874
        },
        {
          "duration": 0.4230769583333327,
          "durationTicks": 220,
          "midi": 72,
          "name": "C5",
          "ticks": 25440,
          "time": 48.923080999999996,
          "velocity": 0.968503937007874
        },
        {
          "duration": 0.21538463333332913,
          "durationTicks": 112,
          "midi": 74,
          "name": "D5",
          "ticks": 25680,
          "time": 49.3846195,
          "velocity": 0.968503937007874
        },
        {
          "duration": 0.4615385000000032,
          "durationTicks": 240,
          "midi": 74,
          "name": "D5",
          "ticks": 25800,
          "time": 49.615388749999994,
          "velocity": 0.968503937007874
        },
        {
          "duration": 0.11538462499999724,
          "durationTicks": 60,
          "midi": 72,
          "name": "C5",
          "ticks": 26040,
          "time": 50.07692725,
          "velocity": 0.968503937007874
        },
        {
          "duration": 0.11538462500000435,
          "durationTicks": 60,
          "midi": 71,
          "name": "B4",
          "ticks": 26100,
          "time": 50.192311874999994,
          "velocity": 0.968503937007874
        },
        {
          "duration": 0.21538463333332913,
          "durationTicks": 112,
          "midi": 76,
          "name": "E5",
          "ticks": 26640,
          "time": 51.2307735,
          "velocity": 0.968503937007874
        },
        {
          "duration": 0.21538463333333624,
          "durationTicks": 112,
          "midi": 78,
          "name": "F#5",
          "ticks": 26760,
          "time": 51.46154274999999,
          "velocity": 0.968503937007874
        },
        {
          "duration": 0.4230769583333398,
          "durationTicks": 220,
          "midi": 79,
          "name": "G5",
          "ticks": 26880,
          "time": 51.692311999999994,
          "velocity": 0.968503937007874
        },
        {
          "duration": 0.21538463333333624,
          "durationTicks": 112,
          "midi": 78,
          "name": "F#5",
          "ticks": 27120,
          "time": 52.1538505,
          "velocity": 0.968503937007874
        },
        {
          "duration": 0.561538508333328,
          "durationTicks": 292,
          "midi": 79,
          "name": "G5",
          "ticks": 27240,
          "time": 52.38461975,
          "velocity": 0.968503937007874
        },
        {
          "duration": 0.4230769583333327,
          "durationTicks": 220,
          "midi": 71,
          "name": "B4",
          "ticks": 27600,
          "time": 53.0769275,
          "velocity": 0.968503937007874
        },
        {
          "duration": 0.4615385000000032,
          "durationTicks": 240,
          "midi": 69,
          "name": "A4",
          "ticks": 27840,
          "time": 53.53846599999999,
          "velocity": 0.968503937007874
        },
        {
          "duration": 0.1923077083333382,
          "durationTicks": 100,
          "midi": 76,
          "name": "E5",
          "ticks": 28080,
          "time": 54.000004499999996,
          "velocity": 0.968503937007874
        },
        {
          "duration": 0.4461538833333307,
          "durationTicks": 232,
          "midi": 76,
          "name": "E5",
          "ticks": 28200,
          "time": 54.23077375,
          "velocity": 0.968503937007874
        },
        {
          "duration": 0.1923077083333311,
          "durationTicks": 100,
          "midi": 76,
          "name": "E5",
          "ticks": 28680,
          "time": 55.15385075,
          "velocity": 0.968503937007874
        },
        {
          "duration": 0.40769234166666735,
          "durationTicks": 212,
          "midi": 76,
          "name": "E5",
          "ticks": 28800,
          "time": 55.38462,
          "velocity": 0.968503937007874
        },
        {
          "duration": 0.1923077083333382,
          "durationTicks": 100,
          "midi": 76,
          "name": "E5",
          "ticks": 29040,
          "time": 55.846158499999994,
          "velocity": 0.968503937007874
        },
        {
          "duration": 0.11538462499999724,
          "durationTicks": 60,
          "midi": 76,
          "name": "E5",
          "ticks": 29160,
          "time": 56.076927749999996,
          "velocity": 0.968503937007874
        },
        {
          "duration": 0.11538462500000435,
          "durationTicks": 60,
          "midi": 77,
          "name": "F5",
          "ticks": 29220,
          "time": 56.19231237499999,
          "velocity": 0.968503937007874
        },
        {
          "duration": 0.4230769583333327,
          "durationTicks": 220,
          "midi": 76,
          "name": "E5",
          "ticks": 29280,
          "time": 56.307697,
          "velocity": 0.968503937007874
        },
        {
          "duration": 0.17692309166667286,
          "durationTicks": 92,
          "midi": 74,
          "name": "D5",
          "ticks": 29520,
          "time": 56.76923549999999,
          "velocity": 0.968503937007874
        },
        {
          "duration": 2.884615625000002,
          "durationTicks": 1500,
          "midi": 74,
          "name": "D5",
          "ticks": 29640,
          "time": 57.000004749999995,
          "velocity": 0.968503937007874
        },
        {
          "duration": 0.4615384999999961,
          "durationTicks": 240,
          "midi": 62,
          "name": "D4",
          "ticks": 31920,
          "time": 61.3846205,
          "velocity": 1
        },
        {
          "duration": 0.4615385000000032,
          "durationTicks": 240,
          "midi": 67,
          "name": "G4",
          "ticks": 32160,
          "time": 61.84615899999999,
          "velocity": 1
        },
        {
          "duration": 0.4615384999999961,
          "durationTicks": 240,
          "midi": 74,
          "name": "D5",
          "ticks": 32400,
          "time": 62.307697499999996,
          "velocity": 1
        },
        {
          "duration": 0.4615385000000032,
          "durationTicks": 240,
          "midi": 72,
          "name": "C5",
          "ticks": 32640,
          "time": 62.76923599999999,
          "velocity": 1
        },
        {
          "duration": 0.2307692500000016,
          "durationTicks": 120,
          "midi": 71,
          "name": "B4",
          "ticks": 32880,
          "time": 63.230774499999995,
          "velocity": 1
        },
        {
          "duration": 0.4615384999999961,
          "durationTicks": 240,
          "midi": 72,
          "name": "C5",
          "ticks": 33000,
          "time": 63.46154375,
          "velocity": 1
        },
        {
          "duration": 0.4615385000000032,
          "durationTicks": 240,
          "midi": 76,
          "name": "E5",
          "ticks": 33240,
          "time": 63.92308224999999,
          "velocity": 1
        },
        {
          "duration": 0.23076924999999449,
          "durationTicks": 120,
          "midi": 74,
          "name": "D5",
          "ticks": 33480,
          "time": 64.38462075,
          "velocity": 1
        },
        {
          "duration": 0.4615385000000032,
          "durationTicks": 240,
          "midi": 74,
          "name": "D5",
          "ticks": 33600,
          "time": 64.61538999999999,
          "velocity": 1
        },
        {
          "duration": 0.4615385000000032,
          "durationTicks": 240,
          "midi": 67,
          "name": "G4",
          "ticks": 34080,
          "time": 65.538467,
          "velocity": 1
        },
        {
          "duration": 0.46153849999998897,
          "durationTicks": 240,
          "midi": 79,
          "name": "G5",
          "ticks": 34320,
          "time": 66.0000055,
          "velocity": 1
        },
        {
          "duration": 0.4615385000000032,
          "durationTicks": 240,
          "midi": 78,
          "name": "F#5",
          "ticks": 34560,
          "time": 66.46154399999999,
          "velocity": 1
        },
        {
          "duration": 0.4615385000000032,
          "durationTicks": 240,
          "midi": 76,
          "name": "E5",
          "ticks": 34800,
          "time": 66.92308249999999,
          "velocity": 1
        },
        {
          "duration": 0.4615385000000032,
          "durationTicks": 240,
          "midi": 76,
          "name": "E5",
          "ticks": 35040,
          "time": 67.384621,
          "velocity": 1
        },
        {
          "duration": 0.4615385000000032,
          "durationTicks": 240,
          "midi": 74,
          "name": "D5",
          "ticks": 35520,
          "time": 68.30769799999999,
          "velocity": 1
        },
        {
          "duration": 0.4615385000000032,
          "durationTicks": 240,
          "midi": 76,
          "name": "E5",
          "ticks": 35760,
          "time": 68.76923649999999,
          "velocity": 1
        },
        {
          "duration": 0.4615385000000032,
          "durationTicks": 240,
          "midi": 72,
          "name": "C5",
          "ticks": 36000,
          "time": 69.230775,
          "velocity": 1
        },
        {
          "duration": 0.23076924999999449,
          "durationTicks": 120,
          "midi": 71,
          "name": "B4",
          "ticks": 36240,
          "time": 69.6923135,
          "velocity": 1
        },
        {
          "duration": 0.4615385000000032,
          "durationTicks": 240,
          "midi": 72,
          "name": "C5",
          "ticks": 36360,
          "time": 69.92308274999999,
          "velocity": 1
        },
        {
          "duration": 0.23076924999999449,
          "durationTicks": 120,
          "midi": 64,
          "name": "E4",
          "ticks": 36840,
          "time": 70.84615975,
          "velocity": 1
        },
        {
          "duration": 0.4615385000000032,
          "durationTicks": 240,
          "midi": 66,
          "name": "F#4",
          "ticks": 36960,
          "time": 71.07692899999999,
          "velocity": 1
        },
        {
          "duration": 0.4615385000000032,
          "durationTicks": 240,
          "midi": 67,
          "name": "G4",
          "ticks": 37200,
          "time": 71.5384675,
          "velocity": 1
        },
        {
          "duration": 0.46153849999998897,
          "durationTicks": 240,
          "midi": 72,
          "name": "C5",
          "ticks": 37440,
          "time": 72.000006,
          "velocity": 1
        },
        {
          "duration": 0.2307692500000087,
          "durationTicks": 120,
          "midi": 74,
          "name": "D5",
          "ticks": 37680,
          "time": 72.46154449999999,
          "velocity": 1
        },
        {
          "duration": 0.6923077499999977,
          "durationTicks": 360,
          "midi": 76,
          "name": "E5",
          "ticks": 37800,
          "time": 72.69231375,
          "velocity": 1
        },
        {
          "duration": 0.4615385000000032,
          "durationTicks": 240,
          "midi": 74,
          "name": "D5",
          "ticks": 38160,
          "time": 73.3846215,
          "velocity": 1
        },
        {
          "duration": 0.6923077499999977,
          "durationTicks": 360,
          "midi": 69,
          "name": "A4",
          "ticks": 38400,
          "time": 73.84616,
          "velocity": 1
        },
        {
          "duration": 0.46153849999998897,
          "durationTicks": 240,
          "midi": 62,
          "name": "D4",
          "ticks": 39600,
          "time": 76.1538525,
          "velocity": 1
        },
        {
          "duration": 0.4615385000000032,
          "durationTicks": 240,
          "midi": 67,
          "name": "G4",
          "ticks": 39840,
          "time": 76.61539099999999,
          "velocity": 1
        },
        {
          "duration": 0.4615385000000032,
          "durationTicks": 240,
          "midi": 74,
          "name": "D5",
          "ticks": 40080,
          "time": 77.07692949999999,
          "velocity": 1
        },
        {
          "duration": 0.4615385000000032,
          "durationTicks": 240,
          "midi": 72,
          "name": "C5",
          "ticks": 40320,
          "time": 77.538468,
          "velocity": 1
        },
        {
          "duration": 0.23076924999999449,
          "durationTicks": 120,
          "midi": 71,
          "name": "B4",
          "ticks": 40560,
          "time": 78.0000065,
          "velocity": 1
        },
        {
          "duration": 0.4615385000000032,
          "durationTicks": 240,
          "midi": 72,
          "name": "C5",
          "ticks": 40680,
          "time": 78.23077574999999,
          "velocity": 1
        },
        {
          "duration": 0.4615385000000032,
          "durationTicks": 240,
          "midi": 76,
          "name": "E5",
          "ticks": 40920,
          "time": 78.69231425,
          "velocity": 1
        },
        {
          "duration": 0.23076924999999449,
          "durationTicks": 120,
          "midi": 74,
          "name": "D5",
          "ticks": 41160,
          "time": 79.15385275,
          "velocity": 1
        },
        {
          "duration": 0.4615385000000032,
          "durationTicks": 240,
          "midi": 74,
          "name": "D5",
          "ticks": 41280,
          "time": 79.384622,
          "velocity": 1
        },
        {
          "duration": 0.23076924999999449,
          "durationTicks": 120,
          "midi": 74,
          "name": "D5",
          "ticks": 42120,
          "time": 81.00000675,
          "velocity": 1
        },
        {
          "duration": 0.4615385000000032,
          "durationTicks": 240,
          "midi": 75,
          "name": "D#5",
          "ticks": 42240,
          "time": 81.23077599999999,
          "velocity": 1
        },
        {
          "duration": 0.23076924999999449,
          "durationTicks": 120,
          "midi": 75,
          "name": "D#5",
          "ticks": 42480,
          "time": 81.6923145,
          "velocity": 1
        },
        {
          "duration": 0.4615385000000032,
          "durationTicks": 240,
          "midi": 76,
          "name": "E5",
          "ticks": 42600,
          "time": 81.92308374999999,
          "velocity": 1
        },
        {
          "duration": 0.4615385000000032,
          "durationTicks": 240,
          "midi": 78,
          "name": "F#5",
          "ticks": 42840,
          "time": 82.38462224999999,
          "velocity": 1
        },
        {
          "duration": 0.6923077499999977,
          "durationTicks": 360,
          "midi": 78,
          "name": "F#5",
          "ticks": 43080,
          "time": 82.84616075,
          "velocity": 1
        },
        {
          "duration": 0.23076924999999449,
          "durationTicks": 120,
          "midi": 79,
          "name": "G5",
          "ticks": 43440,
          "time": 83.5384685,
          "velocity": 1
        },
        {
          "duration": 0.9230770000000064,
          "durationTicks": 480,
          "midi": 79,
          "name": "G5",
          "ticks": 43560,
          "time": 83.76923774999999,
          "velocity": 1
        },
        {
          "duration": 0.4615385000000032,
          "durationTicks": 240,
          "midi": 79,
          "name": "G5",
          "ticks": 44400,
          "time": 85.38462249999999,
          "velocity": 1
        },
        {
          "duration": 0.4615385000000032,
          "durationTicks": 240,
          "midi": 78,
          "name": "F#5",
          "ticks": 44640,
          "time": 85.846161,
          "velocity": 1
        },
        {
          "duration": 0.46153849999998897,
          "durationTicks": 240,
          "midi": 79,
          "name": "G5",
          "ticks": 44880,
          "time": 86.3076995,
          "velocity": 1
        },
        {
          "duration": 0.4615385000000032,
          "durationTicks": 240,
          "midi": 78,
          "name": "F#5",
          "ticks": 45120,
          "time": 86.76923799999999,
          "velocity": 1
        },
        {
          "duration": 0.2307692500000087,
          "durationTicks": 120,
          "midi": 76,
          "name": "E5",
          "ticks": 45360,
          "time": 87.23077649999999,
          "velocity": 1
        },
        {
          "duration": 0.9230769999999922,
          "durationTicks": 480,
          "midi": 76,
          "name": "E5",
          "ticks": 45480,
          "time": 87.46154575,
          "velocity": 1
        },
        {
          "duration": 0.6923077499999977,
          "durationTicks": 360,
          "midi": 71,
          "name": "B4",
          "ticks": 47520,
          "time": 91.38462299999999,
          "velocity": 1
        },
        {
          "duration": 0.11538462500000435,
          "durationTicks": 60,
          "midi": 72,
          "name": "C5",
          "ticks": 47880,
          "time": 92.07693074999999,
          "velocity": 1
        },
        {
          "duration": 0.11538462500000435,
          "durationTicks": 60,
          "midi": 71,
          "name": "B4",
          "ticks": 47940,
          "time": 92.19231537499999,
          "velocity": 1
        },
        {
          "duration": 0.9230769999999922,
          "durationTicks": 480,
          "midi": 69,
          "name": "A4",
          "ticks": 48000,
          "time": 92.3077,
          "velocity": 1
        },
        {
          "duration": 0.2307692500000087,
          "durationTicks": 120,
          "midi": 71,
          "name": "B4",
          "ticks": 48840,
          "time": 93.92308474999999,
          "velocity": 1
        },
        {
          "duration": 0.23076924999999449,
          "durationTicks": 120,
          "midi": 72,
          "name": "C5",
          "ticks": 48960,
          "time": 94.153854,
          "velocity": 1
        },
        {
          "duration": 0.6923077499999977,
          "durationTicks": 360,
          "midi": 71,
          "name": "B4",
          "ticks": 49080,
          "time": 94.38462324999999,
          "velocity": 1
        },
        {
          "duration": 0.34615387499999883,
          "durationTicks": 180,
          "midi": 64,
          "name": "E4",
          "ticks": 49560,
          "time": 95.30770025,
          "velocity": 1
        },
        {
          "duration": 0.34615387499999883,
          "durationTicks": 180,
          "midi": 65,
          "name": "F4",
          "ticks": 49740,
          "time": 95.653854125,
          "velocity": 1
        },
        {
          "duration": 1.0384616249999965,
          "durationTicks": 540,
          "midi": 66,
          "name": "F#4",
          "ticks": 49920,
          "time": 96.000008,
          "velocity": 1
        },
        {
          "duration": 0.4615385000000032,
          "durationTicks": 240,
          "midi": 71,
          "name": "B4",
          "ticks": 51120,
          "time": 98.3077005,
          "velocity": 1
        },
        {
          "duration": 0.9230769999999922,
          "durationTicks": 480,
          "midi": 69,
          "name": "A4",
          "ticks": 51360,
          "time": 98.769239,
          "velocity": 1
        },
        {
          "duration": 0.4615385000000032,
          "durationTicks": 240,
          "midi": 69,
          "name": "A4",
          "ticks": 51840,
          "time": 99.69231599999999,
          "velocity": 1
        },
        {
          "duration": 3.230769499999994,
          "durationTicks": 1680,
          "midi": 67,
          "name": "G4",
          "ticks": 52080,
          "time": 100.1538545,
          "velocity": 1
        }
      ]
    },
    {
      "channel": 0,
      "controlChanges": {
        "7": [
          {
            "number": 7,
            "ticks": 0,
            "time": 0,
            "value": 0.9448818897637795
          }
        ],
        "10": [
          {
            "number": 10,
            "ticks": 0,
            "time": 0,
            "value": 0.5039370078740157
          }
        ]
      },
      "pitchBends": [],
      "instrument": {
        "family": "piano",
        "number": 0,
        "name": "acoustic grand piano"
      },
      "name": "I Believe",
      "notes": [
        {
          "duration": 0.4923077333333333,
          "durationTicks": 256,
          "midi": 88,
          "name": "E6",
          "ticks": 0,
          "time": 0,
          "velocity": 0.905511811023622
        },
        {
          "duration": 0.4692308083333333,
          "durationTicks": 244,
          "midi": 83,
          "name": "B5",
          "ticks": 240,
          "time": 0.46153849999999996,
          "velocity": 0.8110236220472441
        },
        {
          "duration": 0.5153846583333332,
          "durationTicks": 268,
          "midi": 81,
          "name": "A5",
          "ticks": 480,
          "time": 0.9230769999999999,
          "velocity": 0.8267716535433071
        },
        {
          "duration": 0.4923077333333332,
          "durationTicks": 256,
          "midi": 79,
          "name": "G5",
          "ticks": 720,
          "time": 1.3846154999999998,
          "velocity": 1
        },
        {
          "duration": 1.5076924333333332,
          "durationTicks": 784,
          "midi": 86,
          "name": "D6",
          "ticks": 960,
          "time": 1.8461539999999999,
          "velocity": 1
        },
        {
          "duration": 0.46153849999999963,
          "durationTicks": 240,
          "midi": 84,
          "name": "C6",
          "ticks": 1920,
          "time": 3.6923079999999997,
          "velocity": 1
        },
        {
          "duration": 0.43076926666666715,
          "durationTicks": 224,
          "midi": 83,
          "name": "B5",
          "ticks": 2160,
          "time": 4.153846499999999,
          "velocity": 0.8267716535433071
        },
        {
          "duration": 0.5307692749999999,
          "durationTicks": 276,
          "midi": 76,
          "name": "E5",
          "ticks": 2400,
          "time": 4.615385,
          "velocity": 0.8740157480314961
        },
        {
          "duration": 0.45384619166666607,
          "durationTicks": 236,
          "midi": 77,
          "name": "F5",
          "ticks": 2640,
          "time": 5.0769234999999995,
          "velocity": 0.9133858267716536
        },
        {
          "duration": 0.9461539250000008,
          "durationTicks": 492,
          "midi": 78,
          "name": "F#5",
          "ticks": 2880,
          "time": 5.538461999999999,
          "velocity": 0.9921259842519685
        },
        {
          "duration": 0.9307693083333328,
          "durationTicks": 484,
          "midi": 83,
          "name": "B5",
          "ticks": 3360,
          "time": 6.461538999999999,
          "velocity": 0.9921259842519685
        },
        {
          "duration": 1.4076924250000005,
          "durationTicks": 732,
          "midi": 55,
          "name": "G3",
          "ticks": 3840,
          "time": 7.384615999999999,
          "velocity": 0.8110236220472441
        },
        {
          "duration": 0.4230769583333336,
          "durationTicks": 220,
          "midi": 79,
          "name": "G5",
          "ticks": 3840,
          "time": 7.384615999999999,
          "velocity": 1
        },
        {
          "duration": 0.9692308500000006,
          "durationTicks": 504,
          "midi": 62,
          "name": "D4",
          "ticks": 4080,
          "time": 7.846154499999999,
          "velocity": 0.8267716535433071
        },
        {
          "duration": 0.869230841666667,
          "durationTicks": 452,
          "midi": 67,
          "name": "G4",
          "ticks": 4320,
          "time": 8.307692999999999,
          "velocity": 0.8740157480314961
        },
        {
          "duration": 0.4923077333333321,
          "durationTicks": 256,
          "midi": 71,
          "name": "B4",
          "ticks": 4560,
          "time": 8.7692315,
          "velocity": 0.8110236220472441
        },
        {
          "duration": 1.3461539583333337,
          "durationTicks": 700,
          "midi": 55,
          "name": "G3",
          "ticks": 4800,
          "time": 9.23077,
          "velocity": 0.905511811023622
        },
        {
          "duration": 0.9615385416666662,
          "durationTicks": 500,
          "midi": 72,
          "name": "C5",
          "ticks": 4800,
          "time": 9.23077,
          "velocity": 0.905511811023622
        },
        {
          "duration": 0.9615385416666662,
          "durationTicks": 500,
          "midi": 64,
          "name": "E4",
          "ticks": 5040,
          "time": 9.6923085,
          "velocity": 0.7007874015748031
        },
        {
          "duration": 0.9692308500000006,
          "durationTicks": 504,
          "midi": 67,
          "name": "G4",
          "ticks": 5280,
          "time": 10.153846999999999,
          "velocity": 0.3937007874015748
        },
        {
          "duration": 0.9923077749999987,
          "durationTicks": 516,
          "midi": 76,
          "name": "E5",
          "ticks": 5280,
          "time": 10.153846999999999,
          "velocity": 0.8503937007874016
        },
        {
          "duration": 1.376923191666668,
          "durationTicks": 716,
          "midi": 55,
          "name": "G3",
          "ticks": 5760,
          "time": 11.076923999999998,
          "velocity": 0.9133858267716536
        },
        {
          "duration": 1.376923191666668,
          "durationTicks": 716,
          "midi": 74,
          "name": "D5",
          "ticks": 5760,
          "time": 11.076923999999998,
          "velocity": 0.8740157480314961
        },
        {
          "duration": 0.8923077666666668,
          "durationTicks": 464,
          "midi": 62,
          "name": "D4",
          "ticks": 6000,
          "time": 11.5384625,
          "velocity": 0.7244094488188977
        },
        {
          "duration": 0.3538461833333333,
          "durationTicks": 184,
          "midi": 67,
          "name": "G4",
          "ticks": 6240,
          "time": 12.000001,
          "velocity": 0.6220472440944882
        },
        {
          "duration": 0.10000000833333189,
          "durationTicks": 52,
          "midi": 71,
          "name": "B4",
          "ticks": 6480,
          "time": 12.461539499999999,
          "velocity": 0.4566929133858268
        },
        {
          "duration": 1.3692308833333335,
          "durationTicks": 712,
          "midi": 62,
          "name": "D4",
          "ticks": 6720,
          "time": 12.923077999999999,
          "velocity": 0.5669291338582677
        },
        {
          "duration": 1.3384616499999993,
          "durationTicks": 696,
          "midi": 72,
          "name": "C5",
          "ticks": 6720,
          "time": 12.923077999999999,
          "velocity": 0.4330708661417323
        },
        {
          "duration": 0.9384616166666717,
          "durationTicks": 488,
          "midi": 74,
          "name": "D5",
          "ticks": 23040,
          "time": 44.30769599999999,
          "velocity": 0.6929133858267716
        },
        {
          "duration": 0.5307692749999973,
          "durationTicks": 276,
          "midi": 72,
          "name": "C5",
          "ticks": 23520,
          "time": 45.230773,
          "velocity": 0.7795275590551181
        },
        {
          "duration": 0.538461583333337,
          "durationTicks": 280,
          "midi": 71,
          "name": "B4",
          "ticks": 23760,
          "time": 45.692311499999995,
          "velocity": 0.8110236220472441
        },
        {
          "duration": 0.8923077666666686,
          "durationTicks": 464,
          "midi": 69,
          "name": "A4",
          "ticks": 24000,
          "time": 46.15385,
          "velocity": 0.7795275590551181
        },
        {
          "duration": 0.9230769999999993,
          "durationTicks": 480,
          "midi": 67,
          "name": "G4",
          "ticks": 24480,
          "time": 47.076927,
          "velocity": 0.905511811023622
        },
        {
          "duration": 0.661538516666667,
          "durationTicks": 344,
          "midi": 74,
          "name": "D5",
          "ticks": 25440,
          "time": 48.923080999999996,
          "velocity": 0.5196850393700787
        },
        {
          "duration": 1.3769231916666698,
          "durationTicks": 716,
          "midi": 67,
          "name": "G4",
          "ticks": 25920,
          "time": 49.846157999999996,
          "velocity": 0.8740157480314961
        },
        {
          "duration": 0.661538516666667,
          "durationTicks": 344,
          "midi": 71,
          "name": "B4",
          "ticks": 25920,
          "time": 49.846157999999996,
          "velocity": 0.8267716535433071
        },
        {
          "duration": 0.40000003333333467,
          "durationTicks": 208,
          "midi": 79,
          "name": "G5",
          "ticks": 26400,
          "time": 50.769234999999995,
          "velocity": 1
        },
        {
          "duration": 1.5538462833333284,
          "durationTicks": 808,
          "midi": 71,
          "name": "B4",
          "ticks": 26880,
          "time": 51.692311999999994,
          "velocity": 0.36220472440944884
        },
        {
          "duration": 1.3769231916666698,
          "durationTicks": 716,
          "midi": 76,
          "name": "E5",
          "ticks": 26880,
          "time": 51.692311999999994,
          "velocity": 0.7559055118110236
        },
        {
          "duration": 1.692307833333338,
          "durationTicks": 880,
          "midi": 69,
          "name": "A4",
          "ticks": 27840,
          "time": 53.53846599999999,
          "velocity": 0.36220472440944884
        },
        {
          "duration": 1.692307833333338,
          "durationTicks": 880,
          "midi": 73,
          "name": "C#5",
          "ticks": 27840,
          "time": 53.53846599999999,
          "velocity": 0.33070866141732286
        },
        {
          "duration": 1.346153958333332,
          "durationTicks": 700,
          "midi": 69,
          "name": "A4",
          "ticks": 28800,
          "time": 55.38462,
          "velocity": 0.30708661417322836
        },
        {
          "duration": 1.3538462666666646,
          "durationTicks": 704,
          "midi": 72,
          "name": "C5",
          "ticks": 28800,
          "time": 55.38462,
          "velocity": 0.36220472440944884
        },
        {
          "duration": 1.5615385916666682,
          "durationTicks": 812,
          "midi": 50,
          "name": "D3",
          "ticks": 29760,
          "time": 57.230774,
          "velocity": 0.9133858267716536
        },
        {
          "duration": 0.09230769999999922,
          "durationTicks": 48,
          "midi": 66,
          "name": "F#4",
          "ticks": 29760,
          "time": 57.230774,
          "velocity": 0.25984251968503935
        },
        {
          "duration": 0.5230769666666717,
          "durationTicks": 272,
          "midi": 62,
          "name": "D4",
          "ticks": 30000,
          "time": 57.69231249999999,
          "velocity": 0.29133858267716534
        },
        {
          "duration": 0.5615385083333351,
          "durationTicks": 292,
          "midi": 72,
          "name": "C5",
          "ticks": 30240,
          "time": 58.153850999999996,
          "velocity": 0.7559055118110236
        },
        {
          "duration": 1.9615386250000029,
          "durationTicks": 1020,
          "midi": 62,
          "name": "D4",
          "ticks": 30480,
          "time": 58.61538949999999,
          "velocity": 0.5826771653543307
        },
        {
          "duration": 1.4846155083333343,
          "durationTicks": 772,
          "midi": 74,
          "name": "D5",
          "ticks": 30720,
          "time": 59.076927999999995,
          "velocity": 0.8110236220472441
        },
        {
          "duration": 0.5307692750000044,
          "durationTicks": 276,
          "midi": 62,
          "name": "D4",
          "ticks": 31680,
          "time": 60.923081999999994,
          "velocity": 0.5354330708661418
        },
        {
          "duration": 0.8846154583333288,
          "durationTicks": 460,
          "midi": 71,
          "name": "B4",
          "ticks": 31680,
          "time": 60.923081999999994,
          "velocity": 0.41732283464566927
        },
        {
          "duration": 0.7230769833333284,
          "durationTicks": 376,
          "midi": 55,
          "name": "G3",
          "ticks": 31920,
          "time": 61.3846205,
          "velocity": 0.8110236220472441
        },
        {
          "duration": 0.3846154166666764,
          "durationTicks": 200,
          "midi": 62,
          "name": "D4",
          "ticks": 32160,
          "time": 61.84615899999999,
          "velocity": 0.8740157480314961
        },
        {
          "duration": 0.3615384916666642,
          "durationTicks": 188,
          "midi": 55,
          "name": "G3",
          "ticks": 32400,
          "time": 62.307697499999996,
          "velocity": 0.7637795275590551
        },
        {
          "duration": 0.10000000833333189,
          "durationTicks": 52,
          "midi": 62,
          "name": "D4",
          "ticks": 32400,
          "time": 62.307697499999996,
          "velocity": 0.8110236220472441
        },
        {
          "duration": 0.13846155000000238,
          "durationTicks": 72,
          "midi": 71,
          "name": "B4",
          "ticks": 32400,
          "time": 62.307697499999996,
          "velocity": 0.8110236220472441
        },
        {
          "duration": 1.2923078000000032,
          "durationTicks": 672,
          "midi": 64,
          "name": "E4",
          "ticks": 32640,
          "time": 62.76923599999999,
          "velocity": 0.8110236220472441
        },
        {
          "duration": 0.9000000749999941,
          "durationTicks": 468,
          "midi": 72,
          "name": "C5",
          "ticks": 32640,
          "time": 62.76923599999999,
          "velocity": 0.8740157480314961
        },
        {
          "duration": 0.9538462333333371,
          "durationTicks": 496,
          "midi": 57,
          "name": "A3",
          "ticks": 32880,
          "time": 63.230774499999995,
          "velocity": 0.5669291338582677
        },
        {
          "duration": 0.4538461916666634,
          "durationTicks": 236,
          "midi": 76,
          "name": "E5",
          "ticks": 33120,
          "time": 63.69231299999999,
          "velocity": 0.968503937007874
        },
        {
          "duration": 0.46923080833335007,
          "durationTicks": 244,
          "midi": 67,
          "name": "G4",
          "ticks": 33600,
          "time": 64.61538999999999,
          "velocity": 0.7795275590551181
        },
        {
          "duration": 0.5615385083333422,
          "durationTicks": 292,
          "midi": 74,
          "name": "D5",
          "ticks": 33600,
          "time": 64.61538999999999,
          "velocity": 0.8740157480314961
        },
        {
          "duration": 0.9846154666666678,
          "durationTicks": 512,
          "midi": 59,
          "name": "B3",
          "ticks": 33840,
          "time": 65.0769285,
          "velocity": 0.7559055118110236
        },
        {
          "duration": 0.5692308166666606,
          "durationTicks": 296,
          "midi": 67,
          "name": "G4",
          "ticks": 34080,
          "time": 65.538467,
          "velocity": 0.905511811023622
        },
        {
          "duration": 0.09230769999999211,
          "durationTicks": 48,
          "midi": 74,
          "name": "D5",
          "ticks": 34320,
          "time": 66.0000055,
          "velocity": 0.8267716535433071
        },
        {
          "duration": 1.3230770333333481,
          "durationTicks": 688,
          "midi": 40,
          "name": "E2",
          "ticks": 34560,
          "time": 66.46154399999999,
          "velocity": 1
        },
        {
          "duration": 0.33846156666666616,
          "durationTicks": 176,
          "midi": 68,
          "name": "G#4",
          "ticks": 34560,
          "time": 66.46154399999999,
          "velocity": 0.8740157480314961
        },
        {
          "duration": 1.36923088333333,
          "durationTicks": 712,
          "midi": 52,
          "name": "E3",
          "ticks": 34800,
          "time": 66.92308249999999,
          "velocity": 0.8267716535433071
        },
        {
          "duration": 0.46923080833333586,
          "durationTicks": 244,
          "midi": 56,
          "name": "G#3",
          "ticks": 35040,
          "time": 67.384621,
          "velocity": 0.8110236220472441
        },
        {
          "duration": 0.4538461916666563,
          "durationTicks": 236,
          "midi": 59,
          "name": "B3",
          "ticks": 35280,
          "time": 67.8461595,
          "velocity": 0.9133858267716536
        },
        {
          "duration": 1.7692309166666718,
          "durationTicks": 920,
          "midi": 60,
          "name": "C4",
          "ticks": 35520,
          "time": 68.30769799999999,
          "velocity": 0.9921259842519685
        },
        {
          "duration": 0.7000000583333446,
          "durationTicks": 364,
          "midi": 52,
          "name": "E3",
          "ticks": 35760,
          "time": 68.76923649999999,
          "velocity": 0.905511811023622
        },
        {
          "duration": 0.43846157499999094,
          "durationTicks": 228,
          "midi": 57,
          "name": "A3",
          "ticks": 36000,
          "time": 69.230775,
          "velocity": 0.3937007874015748
        },
        {
          "duration": 0.7000000583333446,
          "durationTicks": 364,
          "midi": 64,
          "name": "E4",
          "ticks": 36000,
          "time": 69.230775,
          "velocity": 0.8503937007874016
        },
        {
          "duration": 0.6846154416666508,
          "durationTicks": 356,
          "midi": 52,
          "name": "E3",
          "ticks": 36240,
          "time": 69.6923135,
          "velocity": 0.7795275590551181
        },
        {
          "duration": 0.8000000666666551,
          "durationTicks": 416,
          "midi": 60,
          "name": "C4",
          "ticks": 36480,
          "time": 70.153852,
          "velocity": 0.8110236220472441
        },
        {
          "duration": 0.8000000666666551,
          "durationTicks": 416,
          "midi": 64,
          "name": "E4",
          "ticks": 36480,
          "time": 70.153852,
          "velocity": 0.8503937007874016
        },
        {
          "duration": 1.2076924083333438,
          "durationTicks": 628,
          "midi": 56,
          "name": "G#3",
          "ticks": 36720,
          "time": 70.61539049999999,
          "velocity": 0.7086614173228346
        },
        {
          "duration": 1.200000099999997,
          "durationTicks": 624,
          "midi": 60,
          "name": "C4",
          "ticks": 36960,
          "time": 71.07692899999999,
          "velocity": 0.9921259842519685
        },
        {
          "duration": 1.0461539333333434,
          "durationTicks": 544,
          "midi": 64,
          "name": "E4",
          "ticks": 36960,
          "time": 71.07692899999999,
          "velocity": 0.9921259842519685
        },
        {
          "duration": 0.7769231416666571,
          "durationTicks": 404,
          "midi": 60,
          "name": "C4",
          "ticks": 37440,
          "time": 72.000006,
          "velocity": 0.968503937007874
        },
        {
          "duration": 1.1230770166666701,
          "durationTicks": 584,
          "midi": 64,
          "name": "E4",
          "ticks": 37440,
          "time": 72.000006,
          "velocity": 0.905511811023622
        },
        {
          "duration": 1.2076924083333438,
          "durationTicks": 628,
          "midi": 55,
          "name": "G3",
          "ticks": 37680,
          "time": 72.46154449999999,
          "velocity": 0.7637795275590551
        },
        {
          "duration": 0.8461539166666796,
          "durationTicks": 440,
          "midi": 60,
          "name": "C4",
          "ticks": 37920,
          "time": 72.92308299999999,
          "velocity": 0.8740157480314961
        },
        {
          "duration": 0.8461539166666796,
          "durationTicks": 440,
          "midi": 64,
          "name": "E4",
          "ticks": 37920,
          "time": 72.92308299999999,
          "velocity": 0.8740157480314961
        },
        {
          "duration": 1.8461539999999985,
          "durationTicks": 960,
          "midi": 38,
          "name": "D2",
          "ticks": 38400,
          "time": 73.84616,
          "velocity": 1
        },
        {
          "duration": 1.4000001166666607,
          "durationTicks": 728,
          "midi": 50,
          "name": "D3",
          "ticks": 38640,
          "time": 74.3076985,
          "velocity": 0.7795275590551181
        },
        {
          "duration": 0.36923079999999686,
          "durationTicks": 192,
          "midi": 62,
          "name": "D4",
          "ticks": 38640,
          "time": 74.3076985,
          "velocity": 0.8267716535433071
        },
        {
          "duration": 0.4153846499999929,
          "durationTicks": 216,
          "midi": 66,
          "name": "F#4",
          "ticks": 38640,
          "time": 74.3076985,
          "velocity": 0.968503937007874
        },
        {
          "duration": 0.8000000666666693,
          "durationTicks": 416,
          "midi": 64,
          "name": "E4",
          "ticks": 38880,
          "time": 74.76923699999999,
          "velocity": 0.9921259842519685
        },
        {
          "duration": 0.9000000749999941,
          "durationTicks": 468,
          "midi": 67,
          "name": "G4",
          "ticks": 38880,
          "time": 74.76923699999999,
          "velocity": 0.9921259842519685
        },
        {
          "duration": 0.5846154333333402,
          "durationTicks": 304,
          "midi": 69,
          "name": "A4",
          "ticks": 39120,
          "time": 75.2307755,
          "velocity": 1
        },
        {
          "duration": 1.3615385749999973,
          "durationTicks": 708,
          "midi": 43,
          "name": "G2",
          "ticks": 39360,
          "time": 75.692314,
          "velocity": 0.8740157480314961
        },
        {
          "duration": 0.5230769666666646,
          "durationTicks": 272,
          "midi": 62,
          "name": "D4",
          "ticks": 39360,
          "time": 75.692314,
          "velocity": 1
        },
        {
          "duration": 0.46923080833333586,
          "durationTicks": 244,
          "midi": 71,
          "name": "B4",
          "ticks": 39360,
          "time": 75.692314,
          "velocity": 1
        },
        {
          "duration": 0.930769308333339,
          "durationTicks": 484,
          "midi": 50,
          "name": "D3",
          "ticks": 39600,
          "time": 76.1538525,
          "velocity": 0.8503937007874016
        },
        {
          "duration": 0.930769308333339,
          "durationTicks": 484,
          "midi": 55,
          "name": "G3",
          "ticks": 39840,
          "time": 76.61539099999999,
          "velocity": 0.7244094488188977
        },
        {
          "duration": 0.5076923499999992,
          "durationTicks": 264,
          "midi": 59,
          "name": "B3",
          "ticks": 39840,
          "time": 76.61539099999999,
          "velocity": 0.9921259842519685
        },
        {
          "duration": 0.4615385000000032,
          "durationTicks": 240,
          "midi": 62,
          "name": "D4",
          "ticks": 40080,
          "time": 77.07692949999999,
          "velocity": 0.9921259842519685
        },
        {
          "duration": 0.6230769749999894,
          "durationTicks": 324,
          "midi": 60,
          "name": "C4",
          "ticks": 40320,
          "time": 77.538468,
          "velocity": 0.8740157480314961
        },
        {
          "duration": 0.561538508333328,
          "durationTicks": 292,
          "midi": 69,
          "name": "A4",
          "ticks": 40320,
          "time": 77.538468,
          "velocity": 0.905511811023622
        },
        {
          "duration": 0.2230769416666618,
          "durationTicks": 116,
          "midi": 57,
          "name": "A3",
          "ticks": 40800,
          "time": 78.46154499999999,
          "velocity": 0.2677165354330709
        },
        {
          "duration": 0.4307692666666725,
          "durationTicks": 224,
          "midi": 60,
          "name": "C4",
          "ticks": 40800,
          "time": 78.46154499999999,
          "velocity": 0.8740157480314961
        },
        {
          "duration": 0.8692308416666634,
          "durationTicks": 452,
          "midi": 69,
          "name": "A4",
          "ticks": 40800,
          "time": 78.46154499999999,
          "velocity": 0.8740157480314961
        },
        {
          "duration": 0.4000000333333418,
          "durationTicks": 208,
          "midi": 57,
          "name": "A3",
          "ticks": 41040,
          "time": 78.92308349999999,
          "velocity": 0.7559055118110236
        },
        {
          "duration": 1.7692309166666718,
          "durationTicks": 920,
          "midi": 62,
          "name": "D4",
          "ticks": 41280,
          "time": 79.384622,
          "velocity": 0.905511811023622
        },
        {
          "duration": 0.4230769583333256,
          "durationTicks": 220,
          "midi": 71,
          "name": "B4",
          "ticks": 41280,
          "time": 79.384622,
          "velocity": 0.8740157480314961
        },
        {
          "duration": 0.5923077416666587,
          "durationTicks": 308,
          "midi": 59,
          "name": "B3",
          "ticks": 41520,
          "time": 79.8461605,
          "velocity": 0.7795275590551181
        },
        {
          "duration": 0.8384616083333185,
          "durationTicks": 436,
          "midi": 74,
          "name": "D5",
          "ticks": 41760,
          "time": 80.307699,
          "velocity": 0.8740157480314961
        },
        {
          "duration": 0.3230769500000008,
          "durationTicks": 168,
          "midi": 59,
          "name": "B3",
          "ticks": 42000,
          "time": 80.76923749999999,
          "velocity": 0.7637795275590551
        },
        {
          "duration": 0.761538525000006,
          "durationTicks": 396,
          "midi": 59,
          "name": "B3",
          "ticks": 42480,
          "time": 81.6923145,
          "velocity": 0.7637795275590551
        },
        {
          "duration": 1.0384616249999965,
          "durationTicks": 540,
          "midi": 63,
          "name": "D#4",
          "ticks": 42480,
          "time": 81.6923145,
          "velocity": 1
        },
        {
          "duration": 0.4846154250000012,
          "durationTicks": 252,
          "midi": 66,
          "name": "F#4",
          "ticks": 42720,
          "time": 82.153853,
          "velocity": 0.8267716535433071
        },
        {
          "duration": 0.08461539166667364,
          "durationTicks": 44,
          "midi": 71,
          "name": "B4",
          "ticks": 42960,
          "time": 82.61539149999999,
          "velocity": 0.8110236220472441
        },
        {
          "duration": 0.6076923583333382,
          "durationTicks": 316,
          "midi": 59,
          "name": "B3",
          "ticks": 43200,
          "time": 83.07692999999999,
          "velocity": 0.7086614173228346
        },
        {
          "duration": 1.6615386,
          "durationTicks": 864,
          "midi": 62,
          "name": "D4",
          "ticks": 43200,
          "time": 83.07692999999999,
          "velocity": 0.8740157480314961
        },
        {
          "duration": 1.6230770583333367,
          "durationTicks": 844,
          "midi": 67,
          "name": "G4",
          "ticks": 43200,
          "time": 83.07692999999999,
          "velocity": 0.8740157480314961
        },
        {
          "duration": 1.1307693249999886,
          "durationTicks": 588,
          "midi": 52,
          "name": "E3",
          "ticks": 43440,
          "time": 83.5384685,
          "velocity": 0.7559055118110236
        },
        {
          "duration": 0.7692308333333244,
          "durationTicks": 400,
          "midi": 59,
          "name": "B3",
          "ticks": 43680,
          "time": 84.000007,
          "velocity": 0.7244094488188977
        },
        {
          "duration": 1.2384616416666745,
          "durationTicks": 644,
          "midi": 50,
          "name": "D3",
          "ticks": 44160,
          "time": 84.92308399999999,
          "velocity": 0.8740157480314961
        },
        {
          "duration": 1.4076924250000076,
          "durationTicks": 732,
          "midi": 59,
          "name": "B3",
          "ticks": 44160,
          "time": 84.92308399999999,
          "velocity": 0.8503937007874016
        },
        {
          "duration": 1.300000108333336,
          "durationTicks": 676,
          "midi": 62,
          "name": "D4",
          "ticks": 44160,
          "time": 84.92308399999999,
          "velocity": 0.8110236220472441
        },
        {
          "duration": 1.300000108333336,
          "durationTicks": 676,
          "midi": 67,
          "name": "G4",
          "ticks": 44160,
          "time": 84.92308399999999,
          "velocity": 0.7795275590551181
        },
        {
          "duration": 3.1000002583333384,
          "durationTicks": 1612,
          "midi": 49,
          "name": "C#3",
          "ticks": 45120,
          "time": 86.76923799999999,
          "velocity": 0.7559055118110236
        },
        {
          "duration": 1.7076924499999961,
          "durationTicks": 888,
          "midi": 61,
          "name": "C#4",
          "ticks": 45120,
          "time": 86.76923799999999,
          "velocity": 0.7244094488188977
        },
        {
          "duration": 3.0076925583333463,
          "durationTicks": 1564,
          "midi": 69,
          "name": "A4",
          "ticks": 45120,
          "time": 86.76923799999999,
          "velocity": 0.905511811023622
        },
        {
          "duration": 1.1230770166666701,
          "durationTicks": 584,
          "midi": 61,
          "name": "C#4",
          "ticks": 46080,
          "time": 88.61539199999999,
          "velocity": 0.5826771653543307
        },
        {
          "duration": 0.5000000416666666,
          "durationTicks": 260,
          "midi": 88,
          "name": "E6",
          "ticks": 47040,
          "time": 90.461546,
          "velocity": 0.9133858267716536
        },
        {
          "duration": 1.400000116666675,
          "durationTicks": 728,
          "midi": 83,
          "name": "B5",
          "ticks": 47280,
          "time": 90.92308449999999,
          "velocity": 0.8110236220472441
        },
        {
          "duration": 0.9230770000000064,
          "durationTicks": 480,
          "midi": 81,
          "name": "A5",
          "ticks": 47520,
          "time": 91.38462299999999,
          "velocity": 0.7244094488188977
        },
        {
          "duration": 0.4846154250000012,
          "durationTicks": 252,
          "midi": 79,
          "name": "G5",
          "ticks": 47760,
          "time": 91.8461615,
          "velocity": 0.7795275590551181
        },
        {
          "duration": 1.2384616416666603,
          "durationTicks": 644,
          "midi": 86,
          "name": "D6",
          "ticks": 48000,
          "time": 92.3077,
          "velocity": 0.9133858267716536
        },
        {
          "duration": 1.5230770499999977,
          "durationTicks": 792,
          "midi": 57,
          "name": "A3",
          "ticks": 48960,
          "time": 94.153854,
          "velocity": 0.9133858267716536
        },
        {
          "duration": 0.2692307916666721,
          "durationTicks": 140,
          "midi": 84,
          "name": "C6",
          "ticks": 48960,
          "time": 94.153854,
          "velocity": 1
        },
        {
          "duration": 1.0230770083333312,
          "durationTicks": 532,
          "midi": 64,
          "name": "E4",
          "ticks": 49260,
          "time": 94.73077712499999,
          "velocity": 0.8503937007874016
        },
        {
          "duration": 4.392308058333342,
          "durationTicks": 2284,
          "midi": 67,
          "name": "G4",
          "ticks": 49560,
          "time": 95.30770025,
          "velocity": 0.8503937007874016
        },
        {
          "duration": 0.7000000583333446,
          "durationTicks": 364,
          "midi": 71,
          "name": "B4",
          "ticks": 49860,
          "time": 95.88462337499999,
          "velocity": 0.7007874015748031
        },
        {
          "duration": 2.938461783333338,
          "durationTicks": 1528,
          "midi": 62,
          "name": "D4",
          "ticks": 50280,
          "time": 96.69231574999999,
          "velocity": 0.41732283464566927
        },
        {
          "duration": 3.346154124999998,
          "durationTicks": 1740,
          "midi": 72,
          "name": "C5",
          "ticks": 50280,
          "time": 96.69231574999999,
          "velocity": 0.905511811023622
        },
        {
          "duration": 1.4076924250000076,
          "durationTicks": 732,
          "midi": 55,
          "name": "G3",
          "ticks": 52800,
          "time": 101.53846999999999,
          "velocity": 0.8110236220472441
        },
        {
          "duration": 0.4230769583333256,
          "durationTicks": 220,
          "midi": 79,
          "name": "G5",
          "ticks": 52800,
          "time": 101.53846999999999,
          "velocity": 1
        },
        {
          "duration": 0.9692308500000024,
          "durationTicks": 504,
          "midi": 62,
          "name": "D4",
          "ticks": 53040,
          "time": 102.00000849999999,
          "velocity": 0.8267716535433071
        },
        {
          "duration": 0.8692308416666634,
          "durationTicks": 452,
          "midi": 67,
          "name": "G4",
          "ticks": 53280,
          "time": 102.461547,
          "velocity": 0.8740157480314961
        },
        {
          "duration": 0.4923077333333339,
          "durationTicks": 256,
          "midi": 71,
          "name": "B4",
          "ticks": 53520,
          "time": 102.92308549999998,
          "velocity": 0.8110236220472441
        },
        {
          "duration": 1.346153958333332,
          "durationTicks": 700,
          "midi": 55,
          "name": "G3",
          "ticks": 53760,
          "time": 103.38462399999999,
          "velocity": 0.905511811023622
        },
        {
          "duration": 0.9615385416666697,
          "durationTicks": 500,
          "midi": 72,
          "name": "C5",
          "ticks": 53760,
          "time": 103.38462399999999,
          "velocity": 0.905511811023622
        },
        {
          "duration": 0.9615385416666697,
          "durationTicks": 500,
          "midi": 64,
          "name": "E4",
          "ticks": 54000,
          "time": 103.84616249999999,
          "velocity": 0.7007874015748031
        },
        {
          "duration": 0.9692308499999882,
          "durationTicks": 504,
          "midi": 67,
          "name": "G4",
          "ticks": 54240,
          "time": 104.307701,
          "velocity": 0.3937007874015748
        },
        {
          "duration": 0.9923077750000004,
          "durationTicks": 516,
          "midi": 76,
          "name": "E5",
          "ticks": 54240,
          "time": 104.307701,
          "velocity": 0.8503937007874016
        },
        {
          "duration": 1.3769231916666627,
          "durationTicks": 716,
          "midi": 55,
          "name": "G3",
          "ticks": 54720,
          "time": 105.23077799999999,
          "velocity": 0.9133858267716536
        },
        {
          "duration": 1.3769231916666627,
          "durationTicks": 716,
          "midi": 74,
          "name": "D5",
          "ticks": 54720,
          "time": 105.23077799999999,
          "velocity": 0.8740157480314961
        },
        {
          "duration": 0.8923077666666757,
          "durationTicks": 464,
          "midi": 62,
          "name": "D4",
          "ticks": 54960,
          "time": 105.69231649999999,
          "velocity": 0.7244094488188977
        },
        {
          "duration": 0.3538461833333315,
          "durationTicks": 184,
          "midi": 67,
          "name": "G4",
          "ticks": 55200,
          "time": 106.153855,
          "velocity": 0.6220472440944882
        },
        {
          "duration": 0.10000000833332479,
          "durationTicks": 52,
          "midi": 71,
          "name": "B4",
          "ticks": 55440,
          "time": 106.6153935,
          "velocity": 0.4566929133858268
        },
        {
          "duration": 1.2846154916666706,
          "durationTicks": 668,
          "midi": 50,
          "name": "D3",
          "ticks": 55680,
          "time": 107.07693199999999,
          "velocity": 0.8503937007874016
        },
        {
          "duration": 1.3692308833333442,
          "durationTicks": 712,
          "midi": 62,
          "name": "D4",
          "ticks": 55680,
          "time": 107.07693199999999,
          "velocity": 0.5669291338582677
        },
        {
          "duration": 1.2846154916666706,
          "durationTicks": 668,
          "midi": 66,
          "name": "F#4",
          "ticks": 55680,
          "time": 107.07693199999999,
          "velocity": 0.5354330708661418
        },
        {
          "duration": 1.3384616500000135,
          "durationTicks": 696,
          "midi": 72,
          "name": "C5",
          "ticks": 55680,
          "time": 107.07693199999999,
          "velocity": 0.4330708661417323
        },
        {
          "duration": 0.4000000333333418,
          "durationTicks": 208,
          "midi": 86,
          "name": "D6",
          "ticks": 56160,
          "time": 108.00000899999999,
          "velocity": 0.8110236220472441
        },
        {
          "duration": 3.869231091666663,
          "durationTicks": 2012,
          "midi": 67,
          "name": "G4",
          "ticks": 56940,
          "time": 109.50000912499999,
          "velocity": 0.6771653543307087
        },
        {
          "duration": 3.8307695499999994,
          "durationTicks": 1992,
          "midi": 79,
          "name": "G5",
          "ticks": 56940,
          "time": 109.50000912499999,
          "velocity": 0.6771653543307087
        },
        {
          "duration": 3.7538464666666584,
          "durationTicks": 1952,
          "midi": 86,
          "name": "D6",
          "ticks": 57000,
          "time": 109.61539375,
          "velocity": 0.6771653543307087
        },
        {
          "duration": 3.68461569166665,
          "durationTicks": 1916,
          "midi": 91,
          "name": "G6",
          "ticks": 57000,
          "time": 109.61539375,
          "velocity": 0.6771653543307087
        },
        {
          "duration": 3.6076926083333376,
          "durationTicks": 1876,
          "midi": 98,
          "name": "D7",
          "ticks": 57060,
          "time": 109.73077837499999,
          "velocity": 0.6771653543307087
        }
      ],
      "endOfTrackTicks": 59520
    },
    {
      "channel": 0,
      "controlChanges": {},
      "pitchBends": [],
      "instrument": {
        "family": "piano",
        "number": 0,
        "name": "acoustic grand piano"
      },
      "name": "I Believe",
      "notes": [],
      "endOfTrackTicks": 59520
    },
    {
      "channel": 1,
      "controlChanges": {
        "7": [
          {
            "number": 7,
            "ticks": 0,
            "time": 0,
            "value": 0.7086614173228346
          }
        ],
        "10": [
          {
            "number": 10,
            "ticks": 0,
            "time": 0,
            "value": 0.5039370078740157
          }
        ]
      },
      "pitchBends": [],
      "instrument": {
        "family": "guitar",
        "number": 25,
        "name": "acoustic guitar (steel)"
      },
      "name": "",
      "notes": [
        {
          "duration": 1.2538462583333332,
          "durationTicks": 652,
          "midi": 48,
          "name": "C3",
          "ticks": 0,
          "time": 0,
          "velocity": 0.7401574803149606
        },
        {
          "duration": 1.3307693416666666,
          "durationTicks": 692,
          "midi": 55,
          "name": "G3",
          "ticks": 240,
          "time": 0.46153849999999996,
          "velocity": 0.7795275590551181
        },
        {
          "duration": 1.2384616416666667,
          "durationTicks": 644,
          "midi": 62,
          "name": "D4",
          "ticks": 480,
          "time": 0.9230769999999999,
          "velocity": 0.7795275590551181
        },
        {
          "duration": 1.4230770416666663,
          "durationTicks": 740,
          "midi": 47,
          "name": "B2",
          "ticks": 960,
          "time": 1.8461539999999999,
          "velocity": 0.7244094488188977
        },
        {
          "duration": 1.3076924166666664,
          "durationTicks": 680,
          "midi": 69,
          "name": "A4",
          "ticks": 1200,
          "time": 2.3076925,
          "velocity": 0.7559055118110236
        },
        {
          "duration": 0.9538462333333335,
          "durationTicks": 496,
          "midi": 62,
          "name": "D4",
          "ticks": 1440,
          "time": 2.7692309999999996,
          "velocity": 0.7559055118110236
        },
        {
          "duration": 0.38461541666666665,
          "durationTicks": 200,
          "midi": 55,
          "name": "G3",
          "ticks": 1680,
          "time": 3.2307694999999996,
          "velocity": 0.7244094488188977
        },
        {
          "duration": 1.3692308833333335,
          "durationTicks": 712,
          "midi": 45,
          "name": "A2",
          "ticks": 1920,
          "time": 3.6923079999999997,
          "velocity": 0.7007874015748031
        },
        {
          "duration": 1.3692308833333335,
          "durationTicks": 712,
          "midi": 57,
          "name": "A3",
          "ticks": 2160,
          "time": 4.153846499999999,
          "velocity": 0.7086614173228346
        },
        {
          "duration": 1.0461539333333336,
          "durationTicks": 544,
          "midi": 60,
          "name": "C4",
          "ticks": 2400,
          "time": 4.615385,
          "velocity": 0.7401574803149606
        },
        {
          "duration": 0.4461538833333334,
          "durationTicks": 232,
          "midi": 64,
          "name": "E4",
          "ticks": 2640,
          "time": 5.0769234999999995,
          "velocity": 0.7559055118110236
        },
        {
          "duration": 1.400000116666667,
          "durationTicks": 728,
          "midi": 50,
          "name": "D3",
          "ticks": 2880,
          "time": 5.538461999999999,
          "velocity": 0.9606299212598425
        },
        {
          "duration": 1.4230770416666658,
          "durationTicks": 740,
          "midi": 60,
          "name": "C4",
          "ticks": 3120,
          "time": 6.0000005,
          "velocity": 0.7007874015748031
        },
        {
          "duration": 1.1384616333333328,
          "durationTicks": 592,
          "midi": 69,
          "name": "A4",
          "ticks": 3360,
          "time": 6.461538999999999,
          "velocity": 0.7401574803149606
        },
        {
          "duration": 1.3846155000000007,
          "durationTicks": 720,
          "midi": 43,
          "name": "G2",
          "ticks": 3840,
          "time": 7.384615999999999,
          "velocity": 0.7401574803149606
        },
        {
          "duration": 1.3461539583333337,
          "durationTicks": 700,
          "midi": 55,
          "name": "G3",
          "ticks": 4080,
          "time": 7.846154499999999,
          "velocity": 0.6299212598425197
        },
        {
          "duration": 0.9615385416666662,
          "durationTicks": 500,
          "midi": 59,
          "name": "B3",
          "ticks": 4320,
          "time": 8.307692999999999,
          "velocity": 0.7401574803149606
        },
        {
          "duration": 0.4000000333333329,
          "durationTicks": 208,
          "midi": 62,
          "name": "D4",
          "ticks": 4560,
          "time": 8.7692315,
          "velocity": 0.8267716535433071
        },
        {
          "duration": 1.4615385833333328,
          "durationTicks": 760,
          "midi": 43,
          "name": "G2",
          "ticks": 4800,
          "time": 9.23077,
          "velocity": 0.7559055118110236
        },
        {
          "duration": 0.984615466666666,
          "durationTicks": 512,
          "midi": 64,
          "name": "E4",
          "ticks": 4800,
          "time": 9.23077,
          "velocity": 0.7952755905511811
        },
        {
          "duration": 0.5538461999999988,
          "durationTicks": 288,
          "midi": 55,
          "name": "G3",
          "ticks": 5040,
          "time": 9.6923085,
          "velocity": 0.6929133858267716
        },
        {
          "duration": 0.9538462333333335,
          "durationTicks": 496,
          "midi": 67,
          "name": "G4",
          "ticks": 5280,
          "time": 10.153846999999999,
          "velocity": 0.8818897637795275
        },
        {
          "duration": 0.4692308083333341,
          "durationTicks": 244,
          "midi": 55,
          "name": "G3",
          "ticks": 5520,
          "time": 10.615385499999999,
          "velocity": 0.3464566929133858
        },
        {
          "duration": 1.323077033333334,
          "durationTicks": 688,
          "midi": 43,
          "name": "G2",
          "ticks": 5760,
          "time": 11.076923999999998,
          "velocity": 0.7401574803149606
        },
        {
          "duration": 0.9076923833333339,
          "durationTicks": 472,
          "midi": 62,
          "name": "D4",
          "ticks": 5760,
          "time": 11.076923999999998,
          "velocity": 0.8031496062992126
        },
        {
          "duration": 0.8384616083333327,
          "durationTicks": 436,
          "midi": 55,
          "name": "G3",
          "ticks": 6000,
          "time": 11.5384625,
          "velocity": 0.5354330708661418
        },
        {
          "duration": 0.507692350000001,
          "durationTicks": 264,
          "midi": 59,
          "name": "B3",
          "ticks": 6240,
          "time": 12.000001,
          "velocity": 0.6771653543307087
        },
        {
          "duration": 0.3076923333333337,
          "durationTicks": 160,
          "midi": 62,
          "name": "D4",
          "ticks": 6480,
          "time": 12.461539499999999,
          "velocity": 0.7086614173228346
        },
        {
          "duration": 1.853846308333333,
          "durationTicks": 964,
          "midi": 38,
          "name": "D2",
          "ticks": 6720,
          "time": 12.923077999999999,
          "velocity": 0.6771653543307087
        },
        {
          "duration": 1.738461683333334,
          "durationTicks": 904,
          "midi": 54,
          "name": "F#3",
          "ticks": 6720,
          "time": 12.923077999999999,
          "velocity": 0.7401574803149606
        },
        {
          "duration": 1.853846308333333,
          "durationTicks": 964,
          "midi": 57,
          "name": "A3",
          "ticks": 6720,
          "time": 12.923077999999999,
          "velocity": 0.7244094488188977
        },
        {
          "duration": 1.2538462583333256,
          "durationTicks": 652,
          "midi": 48,
          "name": "C3",
          "ticks": 47040,
          "time": 90.461546,
          "velocity": 0.7401574803149606
        },
        {
          "duration": 1.3307693416666666,
          "durationTicks": 692,
          "midi": 55,
          "name": "G3",
          "ticks": 47280,
          "time": 90.92308449999999,
          "velocity": 0.7795275590551181
        },
        {
          "duration": 1.2384616416666745,
          "durationTicks": 644,
          "midi": 62,
          "name": "D4",
          "ticks": 47520,
          "time": 91.38462299999999,
          "velocity": 0.7795275590551181
        },
        {
          "duration": 1.423077041666673,
          "durationTicks": 740,
          "midi": 47,
          "name": "B2",
          "ticks": 48000,
          "time": 92.3077,
          "velocity": 0.7244094488188977
        },
        {
          "duration": 1.3076924166666828,
          "durationTicks": 680,
          "midi": 69,
          "name": "A4",
          "ticks": 48240,
          "time": 92.76923849999999,
          "velocity": 0.7559055118110236
        },
        {
          "duration": 0.9538462333333371,
          "durationTicks": 496,
          "midi": 62,
          "name": "D4",
          "ticks": 48480,
          "time": 93.23077699999999,
          "velocity": 0.7559055118110236
        },
        {
          "duration": 0.3846154166666764,
          "durationTicks": 200,
          "midi": 55,
          "name": "G3",
          "ticks": 48720,
          "time": 93.69231549999999,
          "velocity": 0.7244094488188977
        },
        {
          "duration": 1.36923088333333,
          "durationTicks": 712,
          "midi": 45,
          "name": "A2",
          "ticks": 48960,
          "time": 94.153854,
          "velocity": 0.7007874015748031
        },
        {
          "duration": 1.3692308833333442,
          "durationTicks": 712,
          "midi": 57,
          "name": "A3",
          "ticks": 49260,
          "time": 94.73077712499999,
          "velocity": 0.7086614173228346
        },
        {
          "duration": 1.0461539333333434,
          "durationTicks": 544,
          "midi": 60,
          "name": "C4",
          "ticks": 49500,
          "time": 95.19231562499999,
          "velocity": 0.7401574803149606
        },
        {
          "duration": 0.44615388333333783,
          "durationTicks": 232,
          "midi": 64,
          "name": "E4",
          "ticks": 49800,
          "time": 95.76923874999999,
          "velocity": 0.7559055118110236
        },
        {
          "duration": 4.6307696166666545,
          "durationTicks": 2408,
          "midi": 50,
          "name": "D3",
          "ticks": 50160,
          "time": 96.4615465,
          "velocity": 0.6220472440944882
        },
        {
          "duration": 4.638461925000016,
          "durationTicks": 2412,
          "midi": 60,
          "name": "C4",
          "ticks": 50220,
          "time": 96.57693112499999,
          "velocity": 0.6220472440944882
        },
        {
          "duration": 4.369231133333329,
          "durationTicks": 2272,
          "midi": 69,
          "name": "A4",
          "ticks": 50340,
          "time": 96.807700375,
          "velocity": 0.6220472440944882
        },
        {
          "duration": 1.3846154999999953,
          "durationTicks": 720,
          "midi": 43,
          "name": "G2",
          "ticks": 52800,
          "time": 101.53846999999999,
          "velocity": 0.7401574803149606
        },
        {
          "duration": 1.346153958333332,
          "durationTicks": 700,
          "midi": 55,
          "name": "G3",
          "ticks": 53040,
          "time": 102.00000849999999,
          "velocity": 0.6299212598425197
        },
        {
          "duration": 0.9615385416666697,
          "durationTicks": 500,
          "midi": 59,
          "name": "B3",
          "ticks": 53280,
          "time": 102.461547,
          "velocity": 0.7401574803149606
        },
        {
          "duration": 0.4000000333333418,
          "durationTicks": 208,
          "midi": 62,
          "name": "D4",
          "ticks": 53520,
          "time": 102.92308549999998,
          "velocity": 0.8267716535433071
        },
        {
          "duration": 1.4615385833333363,
          "durationTicks": 760,
          "midi": 43,
          "name": "G2",
          "ticks": 53760,
          "time": 103.38462399999999,
          "velocity": 0.7559055118110236
        },
        {
          "duration": 0.9846154666666678,
          "durationTicks": 512,
          "midi": 64,
          "name": "E4",
          "ticks": 53760,
          "time": 103.38462399999999,
          "velocity": 0.7952755905511811
        },
        {
          "duration": 0.5538461999999953,
          "durationTicks": 288,
          "midi": 55,
          "name": "G3",
          "ticks": 54000,
          "time": 103.84616249999999,
          "velocity": 0.6929133858267716
        },
        {
          "duration": 0.9538462333333229,
          "durationTicks": 496,
          "midi": 67,
          "name": "G4",
          "ticks": 54240,
          "time": 104.307701,
          "velocity": 0.8818897637795275
        },
        {
          "duration": 0.46923080833333586,
          "durationTicks": 244,
          "midi": 55,
          "name": "G3",
          "ticks": 54480,
          "time": 104.7692395,
          "velocity": 0.3464566929133858
        },
        {
          "duration": 1.3230770333333481,
          "durationTicks": 688,
          "midi": 43,
          "name": "G2",
          "ticks": 54720,
          "time": 105.23077799999999,
          "velocity": 0.7401574803149606
        },
        {
          "duration": 0.907692383333341,
          "durationTicks": 472,
          "midi": 62,
          "name": "D4",
          "ticks": 54720,
          "time": 105.23077799999999,
          "velocity": 0.8031496062992126
        },
        {
          "duration": 0.8384616083333327,
          "durationTicks": 436,
          "midi": 55,
          "name": "G3",
          "ticks": 54960,
          "time": 105.69231649999999,
          "velocity": 0.5354330708661418
        },
        {
          "duration": 0.5076923499999992,
          "durationTicks": 264,
          "midi": 59,
          "name": "B3",
          "ticks": 55200,
          "time": 106.153855,
          "velocity": 0.6771653543307087
        },
        {
          "duration": 0.30769233333332124,
          "durationTicks": 160,
          "midi": 62,
          "name": "D4",
          "ticks": 55440,
          "time": 106.6153935,
          "velocity": 0.7086614173228346
        },
        {
          "duration": 0.5461538916666768,
          "durationTicks": 284,
          "midi": 38,
          "name": "D2",
          "ticks": 55680,
          "time": 107.07693199999999,
          "velocity": 0.6771653543307087
        },
        {
          "duration": 0.5692308166666606,
          "durationTicks": 296,
          "midi": 57,
          "name": "A3",
          "ticks": 55860,
          "time": 107.423085875,
          "velocity": 0.7244094488188977
        },
        {
          "duration": 0.5769231249999933,
          "durationTicks": 300,
          "midi": 50,
          "name": "D3",
          "ticks": 56040,
          "time": 107.76923975,
          "velocity": 0.6220472440944882
        },
        {
          "duration": 0.6230769750000036,
          "durationTicks": 324,
          "midi": 57,
          "name": "A3",
          "ticks": 56160,
          "time": 108.00000899999999,
          "velocity": 0.6220472440944882
        },
        {
          "duration": 0.6769231333333465,
          "durationTicks": 352,
          "midi": 62,
          "name": "D4",
          "ticks": 56280,
          "time": 108.23077824999999,
          "velocity": 0.6220472440944882
        },
        {
          "duration": 3.869231091666663,
          "durationTicks": 2012,
          "midi": 43,
          "name": "G2",
          "ticks": 56940,
          "time": 109.50000912499999,
          "velocity": 0.5826771653543307
        },
        {
          "duration": 3.8307695499999994,
          "durationTicks": 1992,
          "midi": 55,
          "name": "G3",
          "ticks": 56940,
          "time": 109.50000912499999,
          "velocity": 0.5826771653543307
        },
        {
          "duration": 3.7538464666666584,
          "durationTicks": 1952,
          "midi": 62,
          "name": "D4",
          "ticks": 57000,
          "time": 109.61539375,
          "velocity": 0.5826771653543307
        },
        {
          "duration": 3.68461569166665,
          "durationTicks": 1916,
          "midi": 71,
          "name": "B4",
          "ticks": 57000,
          "time": 109.61539375,
          "velocity": 0.5826771653543307
        },
        {
          "duration": 3.6153849166666703,
          "durationTicks": 1880,
          "midi": 79,
          "name": "G5",
          "ticks": 57060,
          "time": 109.73077837499999,
          "velocity": 0.5826771653543307
        }
      ]
    },
    {
      "channel": 0,
      "controlChanges": {},
      "pitchBends": [],
      "instrument": {
        "family": "piano",
        "number": 0,
        "name": "acoustic grand piano"
      },
      "name": "I Believe",
      "notes": [],
      "endOfTrackTicks": 59520
    },
    {
      "channel": 2,
      "controlChanges": {
        "7": [
          {
            "number": 7,
            "ticks": 0,
            "time": 0,
            "value": 0.5511811023622047
          }
        ],
        "10": [
          {
            "number": 10,
            "ticks": 0,
            "time": 0,
            "value": 0.5039370078740157
          }
        ]
      },
      "pitchBends": [],
      "instrument": {
        "family": "ensemble",
        "number": 48,
        "name": "string ensemble 1"
      },
      "name": "",
      "notes": [
        {
          "duration": 1.8384616916666676,
          "durationTicks": 956,
          "midi": 43,
          "name": "G2",
          "ticks": 3840,
          "time": 7.384615999999999,
          "velocity": 0.7874015748031497
        },
        {
          "duration": 1.8384616916666676,
          "durationTicks": 956,
          "midi": 59,
          "name": "B3",
          "ticks": 3840,
          "time": 7.384615999999999,
          "velocity": 0.5905511811023622
        },
        {
          "duration": 1.8461540000000003,
          "durationTicks": 960,
          "midi": 67,
          "name": "G4",
          "ticks": 3840,
          "time": 7.384615999999999,
          "velocity": 0.3858267716535433
        },
        {
          "duration": 0.507692350000001,
          "durationTicks": 264,
          "midi": 50,
          "name": "D3",
          "ticks": 4080,
          "time": 7.846154499999999,
          "velocity": 0.7874015748031497
        },
        {
          "duration": 0.4615385000000014,
          "durationTicks": 240,
          "midi": 57,
          "name": "A3",
          "ticks": 4320,
          "time": 8.307692999999999,
          "velocity": 0.6771653543307087
        },
        {
          "duration": 0.4923077333333321,
          "durationTicks": 256,
          "midi": 59,
          "name": "B3",
          "ticks": 4560,
          "time": 8.7692315,
          "velocity": 0.7244094488188977
        },
        {
          "duration": 3.292307966666666,
          "durationTicks": 1712,
          "midi": 43,
          "name": "G2",
          "ticks": 4800,
          "time": 9.23077,
          "velocity": 0.25984251968503935
        },
        {
          "duration": 1.0000000833333331,
          "durationTicks": 520,
          "midi": 52,
          "name": "E3",
          "ticks": 4800,
          "time": 9.23077,
          "velocity": 0.7244094488188977
        },
        {
          "duration": 0.9692308500000006,
          "durationTicks": 504,
          "midi": 60,
          "name": "C4",
          "ticks": 4800,
          "time": 9.23077,
          "velocity": 0.6377952755905512
        },
        {
          "duration": 1.0000000833333331,
          "durationTicks": 520,
          "midi": 64,
          "name": "E4",
          "ticks": 4800,
          "time": 9.23077,
          "velocity": 0.49606299212598426
        },
        {
          "duration": 0.5230769666666664,
          "durationTicks": 272,
          "midi": 54,
          "name": "F#3",
          "ticks": 5280,
          "time": 10.153846999999999,
          "velocity": 0.6614173228346457
        },
        {
          "duration": 0.9923077749999987,
          "durationTicks": 516,
          "midi": 62,
          "name": "D4",
          "ticks": 5280,
          "time": 10.153846999999999,
          "velocity": 0.6614173228346457
        },
        {
          "duration": 0.9230769999999993,
          "durationTicks": 480,
          "midi": 66,
          "name": "F#4",
          "ticks": 5280,
          "time": 10.153846999999999,
          "velocity": 0.49606299212598426
        },
        {
          "duration": 1.8384616916666676,
          "durationTicks": 956,
          "midi": 59,
          "name": "B3",
          "ticks": 5700,
          "time": 10.961539375,
          "velocity": 0.5905511811023622
        },
        {
          "duration": 0.9692308500000006,
          "durationTicks": 504,
          "midi": 50,
          "name": "D3",
          "ticks": 5760,
          "time": 11.076923999999998,
          "velocity": 0.6771653543307087
        },
        {
          "duration": 1.8461540000000003,
          "durationTicks": 960,
          "midi": 62,
          "name": "D4",
          "ticks": 5760,
          "time": 11.076923999999998,
          "velocity": 0.3858267716535433
        },
        {
          "duration": 1.153846249999999,
          "durationTicks": 600,
          "midi": 50,
          "name": "D3",
          "ticks": 6000,
          "time": 11.5384625,
          "velocity": 0.6614173228346457
        },
        {
          "duration": 0.46153849999999963,
          "durationTicks": 240,
          "midi": 57,
          "name": "A3",
          "ticks": 6240,
          "time": 12.000001,
          "velocity": 0.6377952755905512
        },
        {
          "duration": 0.5076923499999992,
          "durationTicks": 264,
          "midi": 59,
          "name": "B3",
          "ticks": 6420,
          "time": 12.346154875,
          "velocity": 0.6614173228346457
        },
        {
          "duration": 0.9923077749999987,
          "durationTicks": 516,
          "midi": 60,
          "name": "C4",
          "ticks": 6660,
          "time": 12.807693375,
          "velocity": 0.6377952755905512
        },
        {
          "duration": 0.9230769999999993,
          "durationTicks": 480,
          "midi": 67,
          "name": "G4",
          "ticks": 6660,
          "time": 12.807693375,
          "velocity": 0.5905511811023622
        },
        {
          "duration": 0.9000000749999995,
          "durationTicks": 468,
          "midi": 50,
          "name": "D3",
          "ticks": 6720,
          "time": 12.923077999999999,
          "velocity": 0.6299212598425197
        },
        {
          "duration": 0.6769231333333323,
          "durationTicks": 352,
          "midi": 48,
          "name": "C3",
          "ticks": 7140,
          "time": 13.730770374999999,
          "velocity": 0.6299212598425197
        },
        {
          "duration": 0.9076923833333321,
          "durationTicks": 472,
          "midi": 62,
          "name": "D4",
          "ticks": 7140,
          "time": 13.730770374999999,
          "velocity": 0.47244094488188976
        },
        {
          "duration": 0.6769231333333323,
          "durationTicks": 352,
          "midi": 66,
          "name": "F#4",
          "ticks": 7140,
          "time": 13.730770374999999,
          "velocity": 0.49606299212598426
        },
        {
          "duration": 1.8538463083333383,
          "durationTicks": 964,
          "midi": 60,
          "name": "C4",
          "ticks": 23040,
          "time": 44.30769599999999,
          "velocity": 0.5905511811023622
        },
        {
          "duration": 0.9230770000000064,
          "durationTicks": 480,
          "midi": 74,
          "name": "D5",
          "ticks": 23040,
          "time": 44.30769599999999,
          "velocity": 0.5905511811023622
        },
        {
          "duration": 0.5307692750000044,
          "durationTicks": 276,
          "midi": 72,
          "name": "C5",
          "ticks": 23460,
          "time": 45.115388374999995,
          "velocity": 0.6299212598425197
        },
        {
          "duration": 0.5230769666666646,
          "durationTicks": 272,
          "midi": 71,
          "name": "B4",
          "ticks": 23700,
          "time": 45.576926875,
          "velocity": 0.5669291338582677
        },
        {
          "duration": 1.8923078500000017,
          "durationTicks": 984,
          "midi": 59,
          "name": "B3",
          "ticks": 23940,
          "time": 46.038465374999994,
          "velocity": 0.5354330708661418
        },
        {
          "duration": 0.8923077666666686,
          "durationTicks": 464,
          "midi": 69,
          "name": "A4",
          "ticks": 23940,
          "time": 46.038465374999994,
          "velocity": 0.5669291338582677
        },
        {
          "duration": 1.030769316666671,
          "durationTicks": 536,
          "midi": 67,
          "name": "G4",
          "ticks": 24420,
          "time": 46.96154237499999,
          "velocity": 0.5590551181102362
        },
        {
          "duration": 0.9538462333333371,
          "durationTicks": 496,
          "midi": 57,
          "name": "A3",
          "ticks": 24900,
          "time": 47.88461937499999,
          "velocity": 0.5354330708661418
        },
        {
          "duration": 1.0000000833333402,
          "durationTicks": 520,
          "midi": 74,
          "name": "D5",
          "ticks": 24900,
          "time": 47.88461937499999,
          "velocity": 0.5590551181102362
        },
        {
          "duration": 0.6769231333333323,
          "durationTicks": 352,
          "midi": 50,
          "name": "D3",
          "ticks": 25440,
          "time": 48.923080999999996,
          "velocity": 0.5511811023622047
        },
        {
          "duration": 0.9230769999999993,
          "durationTicks": 480,
          "midi": 76,
          "name": "E5",
          "ticks": 25440,
          "time": 48.923080999999996,
          "velocity": 0.6299212598425197
        },
        {
          "duration": 1.930769391666665,
          "durationTicks": 1004,
          "midi": 55,
          "name": "G3",
          "ticks": 25860,
          "time": 49.730773375,
          "velocity": 0.5118110236220472
        },
        {
          "duration": 1.8923078499999946,
          "durationTicks": 984,
          "midi": 74,
          "name": "D5",
          "ticks": 25860,
          "time": 49.730773375,
          "velocity": 0.5511811023622047
        },
        {
          "duration": 0.23076924999999449,
          "durationTicks": 120,
          "midi": 71,
          "name": "B4",
          "ticks": 26460,
          "time": 50.884619625,
          "velocity": 0.2125984251968504
        },
        {
          "duration": 1.8692309249999965,
          "durationTicks": 972,
          "midi": 52,
          "name": "E3",
          "ticks": 26820,
          "time": 51.576927375,
          "velocity": 0.6614173228346457
        },
        {
          "duration": 1.8230770750000005,
          "durationTicks": 948,
          "midi": 71,
          "name": "B4",
          "ticks": 26820,
          "time": 51.576927375,
          "velocity": 0.4645669291338583
        },
        {
          "duration": 1.8538463083333312,
          "durationTicks": 964,
          "midi": 79,
          "name": "G5",
          "ticks": 26820,
          "time": 51.576927375,
          "velocity": 0.5511811023622047
        },
        {
          "duration": 1.9230770833333324,
          "durationTicks": 1000,
          "midi": 57,
          "name": "A3",
          "ticks": 27780,
          "time": 53.423081374999995,
          "velocity": 0.5905511811023622
        },
        {
          "duration": 1.2538462583333327,
          "durationTicks": 652,
          "midi": 69,
          "name": "A4",
          "ticks": 27780,
          "time": 53.423081374999995,
          "velocity": 0.2755905511811024
        },
        {
          "duration": 1.0000000833333331,
          "durationTicks": 520,
          "midi": 76,
          "name": "E5",
          "ticks": 27780,
          "time": 53.423081374999995,
          "velocity": 0.2204724409448819
        },
        {
          "duration": 0.8384616083333256,
          "durationTicks": 436,
          "midi": 69,
          "name": "A4",
          "ticks": 28320,
          "time": 54.461543,
          "velocity": 0.31496062992125984
        },
        {
          "duration": 0.8692308416666634,
          "durationTicks": 452,
          "midi": 76,
          "name": "E5",
          "ticks": 28320,
          "time": 54.461543,
          "velocity": 0.6377952755905512
        },
        {
          "duration": 4.892308100000001,
          "durationTicks": 2544,
          "midi": 64,
          "name": "E4",
          "ticks": 28740,
          "time": 55.269235374999994,
          "velocity": 0.3779527559055118
        },
        {
          "duration": 3.676923383333339,
          "durationTicks": 1912,
          "midi": 72,
          "name": "C5",
          "ticks": 28740,
          "time": 55.269235374999994,
          "velocity": 0.5354330708661418
        },
        {
          "duration": 3.0153848666666647,
          "durationTicks": 1568,
          "midi": 50,
          "name": "D3",
          "ticks": 29760,
          "time": 57.230774,
          "velocity": 0.5511811023622047
        },
        {
          "duration": 3.0153848666666647,
          "durationTicks": 1568,
          "midi": 62,
          "name": "D4",
          "ticks": 29760,
          "time": 57.230774,
          "velocity": 0.5118110236220472
        },
        {
          "duration": 0.1307692416666626,
          "durationTicks": 68,
          "midi": 74,
          "name": "D5",
          "ticks": 29760,
          "time": 57.230774,
          "velocity": 0.6062992125984252
        },
        {
          "duration": 1.223077025000002,
          "durationTicks": 636,
          "midi": 74,
          "name": "D5",
          "ticks": 30660,
          "time": 58.961543375,
          "velocity": 0.2755905511811024
        },
        {
          "duration": 1.5076924333333395,
          "durationTicks": 784,
          "midi": 43,
          "name": "G2",
          "ticks": 31680,
          "time": 60.923081999999994,
          "velocity": 0.3858267716535433
        },
        {
          "duration": 1.6230770583333438,
          "durationTicks": 844,
          "midi": 55,
          "name": "G3",
          "ticks": 31680,
          "time": 60.923081999999994,
          "velocity": 0.3858267716535433
        },
        {
          "duration": 1.6307693666666694,
          "durationTicks": 848,
          "midi": 74,
          "name": "D5",
          "ticks": 31680,
          "time": 60.923081999999994,
          "velocity": 0.3858267716535433
        },
        {
          "duration": 1.9230770833333324,
          "durationTicks": 1000,
          "midi": 83,
          "name": "B5",
          "ticks": 31680,
          "time": 60.923081999999994,
          "velocity": 0.3858267716535433
        },
        {
          "duration": 1.1538462500000009,
          "durationTicks": 600,
          "midi": 45,
          "name": "A2",
          "ticks": 32640,
          "time": 62.76923599999999,
          "velocity": 0.2755905511811024
        },
        {
          "duration": 1.2692308750000052,
          "durationTicks": 660,
          "midi": 57,
          "name": "A3",
          "ticks": 32640,
          "time": 62.76923599999999,
          "velocity": 0.5039370078740157
        },
        {
          "duration": 1.2769231833333379,
          "durationTicks": 664,
          "midi": 76,
          "name": "E5",
          "ticks": 32640,
          "time": 62.76923599999999,
          "velocity": 0.2992125984251969
        },
        {
          "duration": 1.7769232250000044,
          "durationTicks": 924,
          "midi": 84,
          "name": "C6",
          "ticks": 32640,
          "time": 62.76923599999999,
          "velocity": 0.3858267716535433
        },
        {
          "duration": 1.8615386166666639,
          "durationTicks": 968,
          "midi": 59,
          "name": "B3",
          "ticks": 33540,
          "time": 64.500005375,
          "velocity": 0.2125984251968504
        },
        {
          "duration": 0.930769308333339,
          "durationTicks": 484,
          "midi": 83,
          "name": "B5",
          "ticks": 33540,
          "time": 64.500005375,
          "velocity": 0.30708661417322836
        },
        {
          "duration": 1.2615385666666583,
          "durationTicks": 656,
          "midi": 47,
          "name": "B2",
          "ticks": 33600,
          "time": 64.61538999999999,
          "velocity": 0.2204724409448819
        },
        {
          "duration": 1.884615541666676,
          "durationTicks": 980,
          "midi": 74,
          "name": "D5",
          "ticks": 33600,
          "time": 64.61538999999999,
          "velocity": 0.28346456692913385
        },
        {
          "duration": 0.9923077750000004,
          "durationTicks": 516,
          "midi": 79,
          "name": "G5",
          "ticks": 34020,
          "time": 65.42308237499999,
          "velocity": 0.7874015748031497
        },
        {
          "duration": 1.4615385833333363,
          "durationTicks": 760,
          "midi": 52,
          "name": "E3",
          "ticks": 34560,
          "time": 66.46154399999999,
          "velocity": 0.7952755905511811
        },
        {
          "duration": 0.9692308500000024,
          "durationTicks": 504,
          "midi": 80,
          "name": "G#5",
          "ticks": 34560,
          "time": 66.46154399999999,
          "velocity": 0.6062992125984252
        },
        {
          "duration": 0.8692308416666634,
          "durationTicks": 452,
          "midi": 64,
          "name": "E4",
          "ticks": 34800,
          "time": 66.92308249999999,
          "velocity": 0.2440944881889764
        },
        {
          "duration": 0.9230769999999922,
          "durationTicks": 480,
          "midi": 83,
          "name": "B5",
          "ticks": 35040,
          "time": 67.384621,
          "velocity": 0.6062992125984252
        },
        {
          "duration": 5.507692766666665,
          "durationTicks": 2864,
          "midi": 84,
          "name": "C6",
          "ticks": 35460,
          "time": 68.192313375,
          "velocity": 0.3858267716535433
        },
        {
          "duration": 1.423077041666673,
          "durationTicks": 740,
          "midi": 45,
          "name": "A2",
          "ticks": 35520,
          "time": 68.30769799999999,
          "velocity": 0.5984251968503937
        },
        {
          "duration": 0.43846157499999094,
          "durationTicks": 228,
          "midi": 57,
          "name": "A3",
          "ticks": 36000,
          "time": 69.230775,
          "velocity": 0.2125984251968504
        },
        {
          "duration": 1.6769232166666512,
          "durationTicks": 872,
          "midi": 44,
          "name": "G#2",
          "ticks": 36480,
          "time": 70.153852,
          "velocity": 0.1889763779527559
        },
        {
          "duration": 1.7000001416666635,
          "durationTicks": 884,
          "midi": 56,
          "name": "G#3",
          "ticks": 36480,
          "time": 70.153852,
          "velocity": 0.4330708661417323
        },
        {
          "duration": 1.8538463083333454,
          "durationTicks": 964,
          "midi": 55,
          "name": "G3",
          "ticks": 37380,
          "time": 71.884621375,
          "velocity": 0.31496062992125984
        },
        {
          "duration": 1.1923077916666642,
          "durationTicks": 620,
          "midi": 43,
          "name": "G2",
          "ticks": 37440,
          "time": 72.000006,
          "velocity": 0.25196850393700787
        },
        {
          "duration": 1.469230891666669,
          "durationTicks": 764,
          "midi": 50,
          "name": "D3",
          "ticks": 38400,
          "time": 73.84616,
          "velocity": 0.7874015748031497
        },
        {
          "duration": 0.5307692749999973,
          "durationTicks": 276,
          "midi": 62,
          "name": "D4",
          "ticks": 38640,
          "time": 74.3076985,
          "velocity": 0.6377952755905512
        },
        {
          "duration": 0.4846154250000012,
          "durationTicks": 252,
          "midi": 66,
          "name": "F#4",
          "ticks": 38640,
          "time": 74.3076985,
          "velocity": 0.7637795275590551
        },
        {
          "duration": 0.47692311666666853,
          "durationTicks": 248,
          "midi": 64,
          "name": "E4",
          "ticks": 38880,
          "time": 74.76923699999999,
          "velocity": 0.7401574803149606
        },
        {
          "duration": 0.5076923499999992,
          "durationTicks": 264,
          "midi": 67,
          "name": "G4",
          "ticks": 38880,
          "time": 74.76923699999999,
          "velocity": 0.7401574803149606
        },
        {
          "duration": 0.5153846583333319,
          "durationTicks": 268,
          "midi": 69,
          "name": "A4",
          "ticks": 39120,
          "time": 75.2307755,
          "velocity": 0.7244094488188977
        },
        {
          "duration": 1.4000001166666607,
          "durationTicks": 728,
          "midi": 43,
          "name": "G2",
          "ticks": 39360,
          "time": 75.692314,
          "velocity": 0.7637795275590551
        },
        {
          "duration": 1.7538463000000064,
          "durationTicks": 912,
          "midi": 62,
          "name": "D4",
          "ticks": 39360,
          "time": 75.692314,
          "velocity": 0.6614173228346457
        },
        {
          "duration": 0.9384616166666575,
          "durationTicks": 488,
          "midi": 71,
          "name": "B4",
          "ticks": 39360,
          "time": 75.692314,
          "velocity": 0.6771653543307087
        },
        {
          "duration": 0.8384616083333327,
          "durationTicks": 436,
          "midi": 55,
          "name": "G3",
          "ticks": 39840,
          "time": 76.61539099999999,
          "velocity": 0.5354330708661418
        },
        {
          "duration": 0.7923077583333367,
          "durationTicks": 412,
          "midi": 74,
          "name": "D5",
          "ticks": 39840,
          "time": 76.61539099999999,
          "velocity": 0.6614173228346457
        },
        {
          "duration": 1.423077041666673,
          "durationTicks": 740,
          "midi": 45,
          "name": "A2",
          "ticks": 40320,
          "time": 77.538468,
          "velocity": 0.5590551181102362
        },
        {
          "duration": 1.461538583333322,
          "durationTicks": 760,
          "midi": 64,
          "name": "E4",
          "ticks": 40320,
          "time": 77.538468,
          "velocity": 0.6771653543307087
        },
        {
          "duration": 0.9076923833333268,
          "durationTicks": 472,
          "midi": 72,
          "name": "C5",
          "ticks": 40320,
          "time": 77.538468,
          "velocity": 0.6220472440944882
        },
        {
          "duration": 0.9538462333333229,
          "durationTicks": 496,
          "midi": 57,
          "name": "A3",
          "ticks": 40560,
          "time": 78.0000065,
          "velocity": 0.2755905511811024
        },
        {
          "duration": 0.9307693083333533,
          "durationTicks": 484,
          "midi": 76,
          "name": "E5",
          "ticks": 40800,
          "time": 78.46154499999999,
          "velocity": 0.6771653543307087
        },
        {
          "duration": 1.6230770583333367,
          "durationTicks": 844,
          "midi": 47,
          "name": "B2",
          "ticks": 41280,
          "time": 79.384622,
          "velocity": 0.44881889763779526
        },
        {
          "duration": 3.6615387666666663,
          "durationTicks": 1904,
          "midi": 59,
          "name": "B3",
          "ticks": 41280,
          "time": 79.384622,
          "velocity": 0.5354330708661418
        },
        {
          "duration": 1.7923078416666698,
          "durationTicks": 932,
          "midi": 67,
          "name": "G4",
          "ticks": 41280,
          "time": 79.384622,
          "velocity": 0.5511811023622047
        },
        {
          "duration": 1.8692309250000108,
          "durationTicks": 972,
          "midi": 74,
          "name": "D5",
          "ticks": 41280,
          "time": 79.384622,
          "velocity": 0.5905511811023622
        },
        {
          "duration": 1.4307693500000056,
          "durationTicks": 744,
          "midi": 47,
          "name": "B2",
          "ticks": 42240,
          "time": 81.23077599999999,
          "velocity": 0.5511811023622047
        },
        {
          "duration": 0.9538462333333371,
          "durationTicks": 496,
          "midi": 75,
          "name": "D#5",
          "ticks": 42240,
          "time": 81.23077599999999,
          "velocity": 0.6062992125984252
        },
        {
          "duration": 0.930769308333339,
          "durationTicks": 484,
          "midi": 78,
          "name": "F#5",
          "ticks": 42720,
          "time": 82.153853,
          "velocity": 0.6299212598425197
        },
        {
          "duration": 1.7307693750000084,
          "durationTicks": 900,
          "midi": 52,
          "name": "E3",
          "ticks": 43200,
          "time": 83.07692999999999,
          "velocity": 0.7874015748031497
        },
        {
          "duration": 2.769231000000005,
          "durationTicks": 1440,
          "midi": 76,
          "name": "E5",
          "ticks": 43200,
          "time": 83.07692999999999,
          "velocity": 0.6299212598425197
        },
        {
          "duration": 1.1230770166666701,
          "durationTicks": 584,
          "midi": 64,
          "name": "E4",
          "ticks": 43440,
          "time": 83.5384685,
          "velocity": 0.2204724409448819
        },
        {
          "duration": 1.4076924250000076,
          "durationTicks": 732,
          "midi": 50,
          "name": "D3",
          "ticks": 44160,
          "time": 84.92308399999999,
          "velocity": 0.5905511811023622
        },
        {
          "duration": 1.4538462750000036,
          "durationTicks": 756,
          "midi": 62,
          "name": "D4",
          "ticks": 44160,
          "time": 84.92308399999999,
          "velocity": 0.5511811023622047
        },
        {
          "duration": 0.8615385333333307,
          "durationTicks": 448,
          "midi": 74,
          "name": "D5",
          "ticks": 44640,
          "time": 85.846161,
          "velocity": 0.4251968503937008
        },
        {
          "duration": 3.2384618083333407,
          "durationTicks": 1684,
          "midi": 49,
          "name": "C#3",
          "ticks": 45120,
          "time": 86.76923799999999,
          "velocity": 0.3779527559055118
        },
        {
          "duration": 3.0538464083333423,
          "durationTicks": 1588,
          "midi": 61,
          "name": "C#4",
          "ticks": 45120,
          "time": 86.76923799999999,
          "velocity": 0.2283464566929134
        },
        {
          "duration": 1.9000001583333415,
          "durationTicks": 988,
          "midi": 76,
          "name": "E5",
          "ticks": 45120,
          "time": 86.76923799999999,
          "velocity": 0.2755905511811024
        },
        {
          "duration": 1.3615385749999973,
          "durationTicks": 708,
          "midi": 69,
          "name": "A4",
          "ticks": 46080,
          "time": 88.61539199999999,
          "velocity": 0.2125984251968504
        },
        {
          "duration": 0.4769231166666543,
          "durationTicks": 248,
          "midi": 76,
          "name": "E5",
          "ticks": 47040,
          "time": 90.461546,
          "velocity": 0.5905511811023622
        },
        {
          "duration": 0.5000000416666808,
          "durationTicks": 260,
          "midi": 71,
          "name": "B4",
          "ticks": 47280,
          "time": 90.92308449999999,
          "velocity": 0.7637795275590551
        },
        {
          "duration": 0.4307692666666725,
          "durationTicks": 224,
          "midi": 69,
          "name": "A4",
          "ticks": 47520,
          "time": 91.38462299999999,
          "velocity": 0.7007874015748031
        },
        {
          "duration": 0.5538461999999953,
          "durationTicks": 288,
          "midi": 67,
          "name": "G4",
          "ticks": 47760,
          "time": 91.8461615,
          "velocity": 0.7874015748031497
        },
        {
          "duration": 1.8000001500000025,
          "durationTicks": 936,
          "midi": 74,
          "name": "D5",
          "ticks": 48000,
          "time": 92.3077,
          "velocity": 0.6220472440944882
        },
        {
          "duration": 0.5230769666666646,
          "durationTicks": 272,
          "midi": 72,
          "name": "C5",
          "ticks": 48960,
          "time": 94.153854,
          "velocity": 0.6614173228346457
        },
        {
          "duration": 0.5230769666666646,
          "durationTicks": 272,
          "midi": 71,
          "name": "B4",
          "ticks": 49260,
          "time": 94.73077712499999,
          "velocity": 0.6771653543307087
        },
        {
          "duration": 0.6230769749999894,
          "durationTicks": 324,
          "midi": 64,
          "name": "E4",
          "ticks": 49560,
          "time": 95.30770025,
          "velocity": 0.7952755905511811
        },
        {
          "duration": 0.8384616083333327,
          "durationTicks": 436,
          "midi": 65,
          "name": "F4",
          "ticks": 49800,
          "time": 95.76923874999999,
          "velocity": 0.7401574803149606
        },
        {
          "duration": 2.7692309999999907,
          "durationTicks": 1440,
          "midi": 66,
          "name": "F#4",
          "ticks": 50160,
          "time": 96.4615465,
          "velocity": 0.5590551181102362
        },
        {
          "duration": 0.5076923499999992,
          "durationTicks": 264,
          "midi": 50,
          "name": "D3",
          "ticks": 53040,
          "time": 102.00000849999999,
          "velocity": 0.7874015748031497
        },
        {
          "duration": 0.46153849999998897,
          "durationTicks": 240,
          "midi": 57,
          "name": "A3",
          "ticks": 53280,
          "time": 102.461547,
          "velocity": 0.6771653543307087
        },
        {
          "duration": 0.4923077333333339,
          "durationTicks": 256,
          "midi": 59,
          "name": "B3",
          "ticks": 53520,
          "time": 102.92308549999998,
          "velocity": 0.7244094488188977
        },
        {
          "duration": 3.2923079666666695,
          "durationTicks": 1712,
          "midi": 43,
          "name": "G2",
          "ticks": 53760,
          "time": 103.38462399999999,
          "velocity": 0.25984251968503935
        },
        {
          "duration": 1.0000000833333331,
          "durationTicks": 520,
          "midi": 52,
          "name": "E3",
          "ticks": 53760,
          "time": 103.38462399999999,
          "velocity": 0.7244094488188977
        },
        {
          "duration": 0.9692308500000024,
          "durationTicks": 504,
          "midi": 60,
          "name": "C4",
          "ticks": 53760,
          "time": 103.38462399999999,
          "velocity": 0.6377952755905512
        },
        {
          "duration": 1.0000000833333331,
          "durationTicks": 520,
          "midi": 64,
          "name": "E4",
          "ticks": 53760,
          "time": 103.38462399999999,
          "velocity": 0.49606299212598426
        },
        {
          "duration": 0.5230769666666646,
          "durationTicks": 272,
          "midi": 54,
          "name": "F#3",
          "ticks": 54240,
          "time": 104.307701,
          "velocity": 0.6614173228346457
        },
        {
          "duration": 0.9923077750000004,
          "durationTicks": 516,
          "midi": 62,
          "name": "D4",
          "ticks": 54240,
          "time": 104.307701,
          "velocity": 0.6614173228346457
        },
        {
          "duration": 0.9230769999999922,
          "durationTicks": 480,
          "midi": 66,
          "name": "F#4",
          "ticks": 54240,
          "time": 104.307701,
          "velocity": 0.49606299212598426
        },
        {
          "duration": 0.9692308500000024,
          "durationTicks": 504,
          "midi": 50,
          "name": "D3",
          "ticks": 54720,
          "time": 105.23077799999999,
          "velocity": 0.6771653543307087
        },
        {
          "duration": 1.8384616916666658,
          "durationTicks": 956,
          "midi": 59,
          "name": "B3",
          "ticks": 54720,
          "time": 105.23077799999999,
          "velocity": 0.5905511811023622
        },
        {
          "duration": 1.8461539999999985,
          "durationTicks": 960,
          "midi": 62,
          "name": "D4",
          "ticks": 54720,
          "time": 105.23077799999999,
          "velocity": 0.3858267716535433
        },
        {
          "duration": 1.1538462500000009,
          "durationTicks": 600,
          "midi": 50,
          "name": "D3",
          "ticks": 54960,
          "time": 105.69231649999999,
          "velocity": 0.6614173228346457
        },
        {
          "duration": 0.4615385000000032,
          "durationTicks": 240,
          "midi": 57,
          "name": "A3",
          "ticks": 55200,
          "time": 106.153855,
          "velocity": 0.6377952755905512
        },
        {
          "duration": 0.5076923499999992,
          "durationTicks": 264,
          "midi": 59,
          "name": "B3",
          "ticks": 55440,
          "time": 106.6153935,
          "velocity": 0.6614173228346457
        },
        {
          "duration": 0.9923077750000147,
          "durationTicks": 516,
          "midi": 60,
          "name": "C4",
          "ticks": 55680,
          "time": 107.07693199999999,
          "velocity": 0.6377952755905512
        },
        {
          "duration": 0.9230770000000064,
          "durationTicks": 480,
          "midi": 67,
          "name": "G4",
          "ticks": 55680,
          "time": 107.07693199999999,
          "velocity": 0.5905511811023622
        },
        {
          "duration": 0.9000000749999941,
          "durationTicks": 468,
          "midi": 50,
          "name": "D3",
          "ticks": 55740,
          "time": 107.19231662499999,
          "velocity": 0.6299212598425197
        },
        {
          "duration": 0.8461539166666654,
          "durationTicks": 440,
          "midi": 48,
          "name": "C3",
          "ticks": 56160,
          "time": 108.00000899999999,
          "velocity": 0.6299212598425197
        },
        {
          "duration": 0.8230769916666674,
          "durationTicks": 428,
          "midi": 62,
          "name": "D4",
          "ticks": 56160,
          "time": 108.00000899999999,
          "velocity": 0.47244094488188976
        },
        {
          "duration": 1.0000000833333331,
          "durationTicks": 520,
          "midi": 66,
          "name": "F#4",
          "ticks": 56160,
          "time": 108.00000899999999,
          "velocity": 0.49606299212598426
        },
        {
          "duration": 2.546154058333343,
          "durationTicks": 1324,
          "midi": 43,
          "name": "G2",
          "ticks": 56940,
          "time": 109.50000912499999,
          "velocity": 0.49606299212598426
        },
        {
          "duration": 2.546154058333343,
          "durationTicks": 1324,
          "midi": 50,
          "name": "D3",
          "ticks": 56940,
          "time": 109.50000912499999,
          "velocity": 0.49606299212598426
        },
        {
          "duration": 2.6461540666666536,
          "durationTicks": 1376,
          "midi": 57,
          "name": "A3",
          "ticks": 56940,
          "time": 109.50000912499999,
          "velocity": 0.28346456692913385
        }
      ]
    },
    {
      "channel": 0,
      "controlChanges": {},
      "pitchBends": [],
      "instrument": {
        "family": "piano",
        "number": 0,
        "name": "acoustic grand piano"
      },
      "name": "I Believe",
      "notes": [],
      "endOfTrackTicks": 59520
    },
    {
      "channel": 3,
      "controlChanges": {
        "7": [
          {
            "number": 7,
            "ticks": 0,
            "time": 0,
            "value": 0.9448818897637795
          }
        ],
        "10": [
          {
            "number": 10,
            "ticks": 0,
            "time": 0,
            "value": 0.5039370078740157
          }
        ]
      },
      "pitchBends": [],
      "instrument": {
        "family": "bass",
        "number": 33,
        "name": "electric bass (finger)"
      },
      "name": "",
      "notes": [
        {
          "duration": 1.6000001333333316,
          "durationTicks": 832,
          "midi": 55,
          "name": "G3",
          "ticks": 3840,
          "time": 7.384615999999999,
          "velocity": 0.7874015748031497
        },
        {
          "duration": 1.6538462916666656,
          "durationTicks": 860,
          "midi": 55,
          "name": "G3",
          "ticks": 4800,
          "time": 9.23077,
          "velocity": 0.7874015748031497
        },
        {
          "duration": 1.8076924583333351,
          "durationTicks": 940,
          "midi": 55,
          "name": "G3",
          "ticks": 5760,
          "time": 11.076923999999998,
          "velocity": 0.7874015748031497
        },
        {
          "duration": 1.3692308833333335,
          "durationTicks": 712,
          "midi": 50,
          "name": "D3",
          "ticks": 6720,
          "time": 12.923077999999999,
          "velocity": 0.7874015748031497
        },
        {
          "duration": 1.7538462999999993,
          "durationTicks": 912,
          "midi": 55,
          "name": "G3",
          "ticks": 7680,
          "time": 14.769231999999999,
          "velocity": 0.7874015748031497
        },
        {
          "duration": 1.7076924500000032,
          "durationTicks": 888,
          "midi": 55,
          "name": "G3",
          "ticks": 8640,
          "time": 16.615385999999997,
          "velocity": 0.7874015748031497
        },
        {
          "duration": 1.6230770583333332,
          "durationTicks": 844,
          "midi": 55,
          "name": "G3",
          "ticks": 9600,
          "time": 18.46154,
          "velocity": 0.7874015748031497
        },
        {
          "duration": 0.9000000750000012,
          "durationTicks": 468,
          "midi": 55,
          "name": "G3",
          "ticks": 10560,
          "time": 20.307693999999998,
          "velocity": 0.7874015748031497
        },
        {
          "duration": 0.9615385416666697,
          "durationTicks": 500,
          "midi": 51,
          "name": "D#3",
          "ticks": 11040,
          "time": 21.230770999999997,
          "velocity": 0.7874015748031497
        },
        {
          "duration": 1.9153847749999997,
          "durationTicks": 996,
          "midi": 52,
          "name": "E3",
          "ticks": 11520,
          "time": 22.153847999999996,
          "velocity": 0.7874015748031497
        },
        {
          "duration": 1.8538463083333312,
          "durationTicks": 964,
          "midi": 57,
          "name": "A3",
          "ticks": 12480,
          "time": 24.000002,
          "velocity": 0.7874015748031497
        },
        {
          "duration": 1.6000001333333351,
          "durationTicks": 832,
          "midi": 60,
          "name": "C4",
          "ticks": 13440,
          "time": 25.846155999999997,
          "velocity": 0.7874015748031497
        },
        {
          "duration": 1.8153847666666643,
          "durationTicks": 944,
          "midi": 62,
          "name": "D4",
          "ticks": 14400,
          "time": 27.69231,
          "velocity": 0.7874015748031497
        },
        {
          "duration": 1.7692309166666647,
          "durationTicks": 920,
          "midi": 55,
          "name": "G3",
          "ticks": 15360,
          "time": 29.538463999999998,
          "velocity": 0.7874015748031497
        },
        {
          "duration": 1.7000001416666706,
          "durationTicks": 884,
          "midi": 55,
          "name": "G3",
          "ticks": 16320,
          "time": 31.384617999999996,
          "velocity": 0.7874015748031497
        },
        {
          "duration": 1.7307693750000013,
          "durationTicks": 900,
          "midi": 55,
          "name": "G3",
          "ticks": 17280,
          "time": 33.230771999999995,
          "velocity": 0.7874015748031497
        },
        {
          "duration": 0.8384616083333256,
          "durationTicks": 436,
          "midi": 55,
          "name": "G3",
          "ticks": 18240,
          "time": 35.076926,
          "velocity": 0.7874015748031497
        },
        {
          "duration": 0.9230769999999993,
          "durationTicks": 480,
          "midi": 51,
          "name": "D#3",
          "ticks": 18720,
          "time": 36.000003,
          "velocity": 0.7874015748031497
        },
        {
          "duration": 1.8692309249999965,
          "durationTicks": 972,
          "midi": 52,
          "name": "E3",
          "ticks": 19200,
          "time": 36.92308,
          "velocity": 0.7874015748031497
        },
        {
          "duration": 1.7307693750000013,
          "durationTicks": 900,
          "midi": 57,
          "name": "A3",
          "ticks": 20160,
          "time": 38.769234,
          "velocity": 0.7874015748031497
        },
        {
          "duration": 1.8461539999999985,
          "durationTicks": 960,
          "midi": 60,
          "name": "C4",
          "ticks": 21120,
          "time": 40.615387999999996,
          "velocity": 0.7874015748031497
        },
        {
          "duration": 1.738461683333334,
          "durationTicks": 904,
          "midi": 62,
          "name": "D4",
          "ticks": 22080,
          "time": 42.461541999999994,
          "velocity": 0.7874015748031497
        },
        {
          "duration": 1.8461540000000056,
          "durationTicks": 960,
          "midi": 60,
          "name": "C4",
          "ticks": 23040,
          "time": 44.30769599999999,
          "velocity": 0.7874015748031497
        },
        {
          "duration": 1.8153847666666678,
          "durationTicks": 944,
          "midi": 59,
          "name": "B3",
          "ticks": 24000,
          "time": 46.15385,
          "velocity": 0.7874015748031497
        },
        {
          "duration": 0.9000000750000012,
          "durationTicks": 468,
          "midi": 57,
          "name": "A3",
          "ticks": 24960,
          "time": 48.000004,
          "velocity": 0.7874015748031497
        },
        {
          "duration": 0.9384616166666646,
          "durationTicks": 488,
          "midi": 62,
          "name": "D4",
          "ticks": 25440,
          "time": 48.923080999999996,
          "velocity": 0.7874015748031497
        },
        {
          "duration": 1.5000001249999997,
          "durationTicks": 780,
          "midi": 55,
          "name": "G3",
          "ticks": 25920,
          "time": 49.846157999999996,
          "velocity": 0.7874015748031497
        },
        {
          "duration": 1.8692309250000037,
          "durationTicks": 972,
          "midi": 52,
          "name": "E3",
          "ticks": 26880,
          "time": 51.692311999999994,
          "velocity": 0.7874015748031497
        },
        {
          "duration": 1.569230900000008,
          "durationTicks": 816,
          "midi": 57,
          "name": "A3",
          "ticks": 27840,
          "time": 53.53846599999999,
          "velocity": 0.7874015748031497
        },
        {
          "duration": 1.8384616916666658,
          "durationTicks": 956,
          "midi": 57,
          "name": "A3",
          "ticks": 28800,
          "time": 55.38462,
          "velocity": 0.7874015748031497
        },
        {
          "duration": 3.2923079666666624,
          "durationTicks": 1712,
          "midi": 62,
          "name": "D4",
          "ticks": 29760,
          "time": 57.230774,
          "velocity": 0.7874015748031497
        },
        {
          "duration": 1.8384616916666587,
          "durationTicks": 956,
          "midi": 55,
          "name": "G3",
          "ticks": 31680,
          "time": 60.923081999999994,
          "velocity": 0.7874015748031497
        },
        {
          "duration": 1.8384616916666658,
          "durationTicks": 956,
          "midi": 57,
          "name": "A3",
          "ticks": 32640,
          "time": 62.76923599999999,
          "velocity": 0.7874015748031497
        },
        {
          "duration": 1.8076924583333351,
          "durationTicks": 940,
          "midi": 59,
          "name": "B3",
          "ticks": 33600,
          "time": 64.61538999999999,
          "velocity": 0.7874015748031497
        },
        {
          "duration": 1.2307693333333276,
          "durationTicks": 640,
          "midi": 52,
          "name": "E3",
          "ticks": 34560,
          "time": 66.46154399999999,
          "velocity": 0.7874015748031497
        },
        {
          "duration": 0.5000000416666666,
          "durationTicks": 260,
          "midi": 52,
          "name": "E3",
          "ticks": 35280,
          "time": 67.8461595,
          "velocity": 0.7874015748031497
        },
        {
          "duration": 1.8307693833333474,
          "durationTicks": 952,
          "midi": 57,
          "name": "A3",
          "ticks": 35520,
          "time": 68.30769799999999,
          "velocity": 0.7874015748031497
        },
        {
          "duration": 1.2615385666666583,
          "durationTicks": 656,
          "midi": 56,
          "name": "G#3",
          "ticks": 36480,
          "time": 70.153852,
          "velocity": 0.7874015748031497
        },
        {
          "duration": 0.4307692666666725,
          "durationTicks": 224,
          "midi": 56,
          "name": "G#3",
          "ticks": 37200,
          "time": 71.5384675,
          "velocity": 0.7874015748031497
        },
        {
          "duration": 1.269230874999991,
          "durationTicks": 660,
          "midi": 55,
          "name": "G3",
          "ticks": 37440,
          "time": 72.000006,
          "velocity": 0.7874015748031497
        },
        {
          "duration": 0.46923080833333586,
          "durationTicks": 244,
          "midi": 55,
          "name": "G3",
          "ticks": 38160,
          "time": 73.3846215,
          "velocity": 0.7874015748031497
        },
        {
          "duration": 1.0076923916666658,
          "durationTicks": 524,
          "midi": 50,
          "name": "D3",
          "ticks": 38400,
          "time": 73.84616,
          "velocity": 0.7874015748031497
        },
        {
          "duration": 0.9000000749999941,
          "durationTicks": 468,
          "midi": 62,
          "name": "D4",
          "ticks": 38880,
          "time": 74.76923699999999,
          "velocity": 0.7874015748031497
        },
        {
          "duration": 1.3153847250000013,
          "durationTicks": 684,
          "midi": 55,
          "name": "G3",
          "ticks": 39360,
          "time": 75.692314,
          "velocity": 0.7874015748031497
        },
        {
          "duration": 0.5230769666666646,
          "durationTicks": 272,
          "midi": 55,
          "name": "G3",
          "ticks": 40080,
          "time": 77.07692949999999,
          "velocity": 0.7874015748031497
        },
        {
          "duration": 1.8307693833333332,
          "durationTicks": 952,
          "midi": 57,
          "name": "A3",
          "ticks": 40320,
          "time": 77.538468,
          "velocity": 0.7874015748031497
        },
        {
          "duration": 1.2923078000000032,
          "durationTicks": 672,
          "midi": 59,
          "name": "B3",
          "ticks": 41280,
          "time": 79.384622,
          "velocity": 0.7874015748031497
        },
        {
          "duration": 0.3230769500000008,
          "durationTicks": 168,
          "midi": 59,
          "name": "B3",
          "ticks": 42000,
          "time": 80.76923749999999,
          "velocity": 0.7874015748031497
        },
        {
          "duration": 1.8307693833333332,
          "durationTicks": 952,
          "midi": 59,
          "name": "B3",
          "ticks": 42240,
          "time": 81.23077599999999,
          "velocity": 0.7874015748031497
        },
        {
          "duration": 1.2615385666666583,
          "durationTicks": 656,
          "midi": 52,
          "name": "E3",
          "ticks": 43200,
          "time": 83.07692999999999,
          "velocity": 0.7874015748031497
        },
        {
          "duration": 0.46923080833333586,
          "durationTicks": 244,
          "midi": 52,
          "name": "E3",
          "ticks": 43920,
          "time": 84.4615455,
          "velocity": 0.7874015748031497
        },
        {
          "duration": 1.300000108333336,
          "durationTicks": 676,
          "midi": 50,
          "name": "D3",
          "ticks": 44160,
          "time": 84.92308399999999,
          "velocity": 0.7874015748031497
        },
        {
          "duration": 0.4461538833333236,
          "durationTicks": 232,
          "midi": 50,
          "name": "D3",
          "ticks": 44880,
          "time": 86.3076995,
          "velocity": 0.7874015748031497
        },
        {
          "duration": 1.8692309250000108,
          "durationTicks": 972,
          "midi": 49,
          "name": "C#3",
          "ticks": 45120,
          "time": 86.76923799999999,
          "velocity": 0.7874015748031497
        },
        {
          "duration": 1.8692309250000108,
          "durationTicks": 972,
          "midi": 61,
          "name": "C#4",
          "ticks": 46080,
          "time": 88.61539199999999,
          "velocity": 0.7874015748031497
        },
        {
          "duration": 1.6769232166666512,
          "durationTicks": 872,
          "midi": 60,
          "name": "C4",
          "ticks": 47040,
          "time": 90.461546,
          "velocity": 0.7874015748031497
        },
        {
          "duration": 1.6769232166666654,
          "durationTicks": 872,
          "midi": 59,
          "name": "B3",
          "ticks": 48000,
          "time": 92.3077,
          "velocity": 0.7874015748031497
        },
        {
          "duration": 1.6769232166666654,
          "durationTicks": 872,
          "midi": 57,
          "name": "A3",
          "ticks": 48960,
          "time": 94.153854,
          "velocity": 0.7874015748031497
        },
        {
          "duration": 4.838461941666665,
          "durationTicks": 2516,
          "midi": 50,
          "name": "D3",
          "ticks": 50220,
          "time": 96.57693112499999,
          "velocity": 0.7874015748031497
        },
        {
          "duration": 1.6000001333333387,
          "durationTicks": 832,
          "midi": 55,
          "name": "G3",
          "ticks": 52800,
          "time": 101.53846999999999,
          "velocity": 0.7874015748031497
        },
        {
          "duration": 1.6000001333333387,
          "durationTicks": 832,
          "midi": 55,
          "name": "G3",
          "ticks": 53760,
          "time": 103.38462399999999,
          "velocity": 0.7874015748031497
        },
        {
          "duration": 1.8076924583333351,
          "durationTicks": 940,
          "midi": 55,
          "name": "G3",
          "ticks": 54720,
          "time": 105.23077799999999,
          "velocity": 0.7874015748031497
        },
        {
          "duration": 0.8692308416666634,
          "durationTicks": 452,
          "midi": 50,
          "name": "D3",
          "ticks": 55680,
          "time": 107.07693199999999,
          "velocity": 0.7874015748031497
        },
        {
          "duration": 1.3307693416666666,
          "durationTicks": 692,
          "midi": 50,
          "name": "D3",
          "ticks": 56160,
          "time": 108.00000899999999,
          "velocity": 0.7874015748031497
        },
        {
          "duration": 3.1923079583333305,
          "durationTicks": 1660,
          "midi": 55,
          "name": "G3",
          "ticks": 56880,
          "time": 109.38462449999999,
          "velocity": 0.7874015748031497
        }
      ]
    },
    {
      "channel": 0,
      "controlChanges": {},
      "pitchBends": [],
      "instrument": {
        "family": "piano",
        "number": 0,
        "name": "acoustic grand piano"
      },
      "name": "I Believe",
      "notes": [],
      "endOfTrackTicks": 59520
    },
    {
      "channel": 4,
      "controlChanges": {
        "7": [
          {
            "number": 7,
            "ticks": 0,
            "time": 0,
            "value": 0.7086614173228346
          }
        ],
        "10": [
          {
            "number": 10,
            "ticks": 0,
            "time": 0,
            "value": 0.5039370078740157
          }
        ]
      },
      "pitchBends": [],
      "instrument": {
        "family": "guitar",
        "number": 25,
        "name": "acoustic guitar (steel)"
      },
      "name": "",
      "notes": [
        {
          "duration": 1.6000001333333351,
          "durationTicks": 832,
          "midi": 43,
          "name": "G2",
          "ticks": 7680,
          "time": 14.769231999999999,
          "velocity": 0.9921259842519685
        },
        {
          "duration": 0.9230769999999993,
          "durationTicks": 480,
          "midi": 50,
          "name": "D3",
          "ticks": 7920,
          "time": 15.230770499999998,
          "velocity": 0.9921259842519685
        },
        {
          "duration": 0.9230769999999993,
          "durationTicks": 480,
          "midi": 59,
          "name": "B3",
          "ticks": 8160,
          "time": 15.692308999999998,
          "velocity": 0.9921259842519685
        },
        {
          "duration": 0.476923116666665,
          "durationTicks": 248,
          "midi": 55,
          "name": "G3",
          "ticks": 8400,
          "time": 16.153847499999998,
          "velocity": 0.9921259842519685
        },
        {
          "duration": 0.46153849999999963,
          "durationTicks": 240,
          "midi": 43,
          "name": "G2",
          "ticks": 8640,
          "time": 16.615385999999997,
          "velocity": 0.9921259842519685
        },
        {
          "duration": 0.46153849999999963,
          "durationTicks": 240,
          "midi": 62,
          "name": "D4",
          "ticks": 8640,
          "time": 16.615385999999997,
          "velocity": 0.7401574803149606
        },
        {
          "duration": 0.46153849999999963,
          "durationTicks": 240,
          "midi": 66,
          "name": "F#4",
          "ticks": 8640,
          "time": 16.615385999999997,
          "velocity": 0.7401574803149606
        },
        {
          "duration": 0.4615385000000032,
          "durationTicks": 240,
          "midi": 50,
          "name": "D3",
          "ticks": 8880,
          "time": 17.076924499999997,
          "velocity": 0.9921259842519685
        },
        {
          "duration": 0.46153849999999963,
          "durationTicks": 240,
          "midi": 57,
          "name": "A3",
          "ticks": 9120,
          "time": 17.538463,
          "velocity": 0.9921259842519685
        },
        {
          "duration": 0.46153849999999963,
          "durationTicks": 240,
          "midi": 62,
          "name": "D4",
          "ticks": 9120,
          "time": 17.538463,
          "velocity": 0.9921259842519685
        },
        {
          "duration": 0.46153849999999963,
          "durationTicks": 240,
          "midi": 57,
          "name": "A3",
          "ticks": 9360,
          "time": 18.0000015,
          "velocity": 0.9921259842519685
        },
        {
          "duration": 0.46153849999999963,
          "durationTicks": 240,
          "midi": 43,
          "name": "G2",
          "ticks": 9600,
          "time": 18.46154,
          "velocity": 0.9921259842519685
        },
        {
          "duration": 0.46153849999999963,
          "durationTicks": 240,
          "midi": 52,
          "name": "E3",
          "ticks": 9840,
          "time": 18.9230785,
          "velocity": 0.9921259842519685
        },
        {
          "duration": 0.46153849999999963,
          "durationTicks": 240,
          "midi": 60,
          "name": "C4",
          "ticks": 10080,
          "time": 19.384617,
          "velocity": 0.9921259842519685
        },
        {
          "duration": 0.46153849999999963,
          "durationTicks": 240,
          "midi": 55,
          "name": "G3",
          "ticks": 10320,
          "time": 19.8461555,
          "velocity": 0.9921259842519685
        },
        {
          "duration": 0.9230769999999993,
          "durationTicks": 480,
          "midi": 43,
          "name": "G2",
          "ticks": 10560,
          "time": 20.307693999999998,
          "velocity": 0.9921259842519685
        },
        {
          "duration": 0.46153849999999963,
          "durationTicks": 240,
          "midi": 55,
          "name": "G3",
          "ticks": 10560,
          "time": 20.307693999999998,
          "velocity": 0.9921259842519685
        },
        {
          "duration": 0.9230769999999993,
          "durationTicks": 480,
          "midi": 59,
          "name": "B3",
          "ticks": 10560,
          "time": 20.307693999999998,
          "velocity": 0.9921259842519685
        },
        {
          "duration": 0.476923116666665,
          "durationTicks": 248,
          "midi": 55,
          "name": "G3",
          "ticks": 10800,
          "time": 20.769232499999998,
          "velocity": 0.9921259842519685
        },
        {
          "duration": 0.9230769999999993,
          "durationTicks": 480,
          "midi": 39,
          "name": "D#2",
          "ticks": 11040,
          "time": 21.230770999999997,
          "velocity": 0.9921259842519685
        },
        {
          "duration": 0.9230769999999993,
          "durationTicks": 480,
          "midi": 54,
          "name": "F#3",
          "ticks": 11040,
          "time": 21.230770999999997,
          "velocity": 0.9921259842519685
        },
        {
          "duration": 0.9230769999999993,
          "durationTicks": 480,
          "midi": 59,
          "name": "B3",
          "ticks": 11040,
          "time": 21.230770999999997,
          "velocity": 0.9921259842519685
        },
        {
          "duration": 0.46153849999999963,
          "durationTicks": 240,
          "midi": 57,
          "name": "A3",
          "ticks": 11280,
          "time": 21.692309499999997,
          "velocity": 0.9921259842519685
        },
        {
          "duration": 0.4615385000000032,
          "durationTicks": 240,
          "midi": 40,
          "name": "E2",
          "ticks": 11520,
          "time": 22.153847999999996,
          "velocity": 0.9921259842519685
        },
        {
          "duration": 0.46153849999999963,
          "durationTicks": 240,
          "midi": 55,
          "name": "G3",
          "ticks": 11760,
          "time": 22.6153865,
          "velocity": 0.9921259842519685
        },
        {
          "duration": 0.46153849999999963,
          "durationTicks": 240,
          "midi": 62,
          "name": "D4",
          "ticks": 12000,
          "time": 23.076925,
          "velocity": 0.9921259842519685
        },
        {
          "duration": 0.46153849999999963,
          "durationTicks": 240,
          "midi": 59,
          "name": "B3",
          "ticks": 12240,
          "time": 23.5384635,
          "velocity": 0.9921259842519685
        },
        {
          "duration": 0.46153849999999963,
          "durationTicks": 240,
          "midi": 45,
          "name": "A2",
          "ticks": 12480,
          "time": 24.000002,
          "velocity": 0.9921259842519685
        },
        {
          "duration": 0.46153849999999963,
          "durationTicks": 240,
          "midi": 61,
          "name": "C#4",
          "ticks": 12480,
          "time": 24.000002,
          "velocity": 0.9921259842519685
        },
        {
          "duration": 0.46153849999999963,
          "durationTicks": 240,
          "midi": 52,
          "name": "E3",
          "ticks": 12720,
          "time": 24.461540499999998,
          "velocity": 0.9921259842519685
        },
        {
          "duration": 0.46153849999999963,
          "durationTicks": 240,
          "midi": 61,
          "name": "C#4",
          "ticks": 12960,
          "time": 24.923078999999998,
          "velocity": 0.9921259842519685
        },
        {
          "duration": 0.46153849999999963,
          "durationTicks": 240,
          "midi": 64,
          "name": "E4",
          "ticks": 12960,
          "time": 24.923078999999998,
          "velocity": 0.9921259842519685
        },
        {
          "duration": 0.46153849999999963,
          "durationTicks": 240,
          "midi": 57,
          "name": "A3",
          "ticks": 13200,
          "time": 25.384617499999997,
          "velocity": 0.9921259842519685
        },
        {
          "duration": 0.46153849999999963,
          "durationTicks": 240,
          "midi": 48,
          "name": "C3",
          "ticks": 13440,
          "time": 25.846155999999997,
          "velocity": 0.9921259842519685
        },
        {
          "duration": 0.46153849999999963,
          "durationTicks": 240,
          "midi": 66,
          "name": "F#4",
          "ticks": 13440,
          "time": 25.846155999999997,
          "velocity": 0.4881889763779528
        },
        {
          "duration": 0.46153849999999963,
          "durationTicks": 240,
          "midi": 69,
          "name": "A4",
          "ticks": 13440,
          "time": 25.846155999999997,
          "velocity": 0.7401574803149606
        },
        {
          "duration": 0.46153849999999963,
          "durationTicks": 240,
          "midi": 57,
          "name": "A3",
          "ticks": 13680,
          "time": 26.307694499999997,
          "velocity": 0.7401574803149606
        },
        {
          "duration": 0.46153849999999963,
          "durationTicks": 240,
          "midi": 60,
          "name": "C4",
          "ticks": 13680,
          "time": 26.307694499999997,
          "velocity": 0.4881889763779528
        },
        {
          "duration": 0.46153849999999963,
          "durationTicks": 240,
          "midi": 63,
          "name": "D#4",
          "ticks": 13680,
          "time": 26.307694499999997,
          "velocity": 0.4881889763779528
        },
        {
          "duration": 0.4615385000000032,
          "durationTicks": 240,
          "midi": 60,
          "name": "C4",
          "ticks": 13920,
          "time": 26.769232999999996,
          "velocity": 0.7401574803149606
        },
        {
          "duration": 0.4615385000000032,
          "durationTicks": 240,
          "midi": 66,
          "name": "F#4",
          "ticks": 13920,
          "time": 26.769232999999996,
          "velocity": 0.4881889763779528
        },
        {
          "duration": 0.4615385000000032,
          "durationTicks": 240,
          "midi": 69,
          "name": "A4",
          "ticks": 13920,
          "time": 26.769232999999996,
          "velocity": 0.7401574803149606
        },
        {
          "duration": 0.46153849999999963,
          "durationTicks": 240,
          "midi": 60,
          "name": "C4",
          "ticks": 14160,
          "time": 27.2307715,
          "velocity": 0.4881889763779528
        },
        {
          "duration": 0.46153849999999963,
          "durationTicks": 240,
          "midi": 63,
          "name": "D#4",
          "ticks": 14160,
          "time": 27.2307715,
          "velocity": 0.4881889763779528
        },
        {
          "duration": 0.46153849999999963,
          "durationTicks": 240,
          "midi": 50,
          "name": "D3",
          "ticks": 14400,
          "time": 27.69231,
          "velocity": 0.9921259842519685
        },
        {
          "duration": 0.46153849999999963,
          "durationTicks": 240,
          "midi": 62,
          "name": "D4",
          "ticks": 14400,
          "time": 27.69231,
          "velocity": 0.4881889763779528
        },
        {
          "duration": 0.46153849999999963,
          "durationTicks": 240,
          "midi": 66,
          "name": "F#4",
          "ticks": 14400,
          "time": 27.69231,
          "velocity": 0.4881889763779528
        },
        {
          "duration": 0.46153849999999963,
          "durationTicks": 240,
          "midi": 57,
          "name": "A3",
          "ticks": 14640,
          "time": 28.1538485,
          "velocity": 0.9921259842519685
        },
        {
          "duration": 0.46153849999999963,
          "durationTicks": 240,
          "midi": 66,
          "name": "F#4",
          "ticks": 14880,
          "time": 28.615387,
          "velocity": 0.7401574803149606
        },
        {
          "duration": 0.23076924999999804,
          "durationTicks": 120,
          "midi": 62,
          "name": "D4",
          "ticks": 15120,
          "time": 29.076925499999998,
          "velocity": 0.9921259842519685
        },
        {
          "duration": 0.2538461749999996,
          "durationTicks": 132,
          "midi": 60,
          "name": "C4",
          "ticks": 15240,
          "time": 29.307694749999996,
          "velocity": 0.9921259842519685
        },
        {
          "duration": 1.6000001333333351,
          "durationTicks": 832,
          "midi": 43,
          "name": "G2",
          "ticks": 15360,
          "time": 29.538463999999998,
          "velocity": 0.9921259842519685
        },
        {
          "duration": 0.9230769999999993,
          "durationTicks": 480,
          "midi": 59,
          "name": "B3",
          "ticks": 15360,
          "time": 29.538463999999998,
          "velocity": 0.7401574803149606
        },
        {
          "duration": 0.9230769999999993,
          "durationTicks": 480,
          "midi": 50,
          "name": "D3",
          "ticks": 15600,
          "time": 30.000002499999997,
          "velocity": 0.9921259842519685
        },
        {
          "duration": 0.9230769999999993,
          "durationTicks": 480,
          "midi": 59,
          "name": "B3",
          "ticks": 15840,
          "time": 30.461540999999997,
          "velocity": 0.9921259842519685
        },
        {
          "duration": 0.476923116666665,
          "durationTicks": 248,
          "midi": 55,
          "name": "G3",
          "ticks": 16080,
          "time": 30.923079499999997,
          "velocity": 0.9921259842519685
        },
        {
          "duration": 0.46153849999999963,
          "durationTicks": 240,
          "midi": 43,
          "name": "G2",
          "ticks": 16320,
          "time": 31.384617999999996,
          "velocity": 0.9921259842519685
        },
        {
          "duration": 0.46153849999999963,
          "durationTicks": 240,
          "midi": 62,
          "name": "D4",
          "ticks": 16320,
          "time": 31.384617999999996,
          "velocity": 0.7401574803149606
        },
        {
          "duration": 0.46153849999999963,
          "durationTicks": 240,
          "midi": 66,
          "name": "F#4",
          "ticks": 16320,
          "time": 31.384617999999996,
          "velocity": 0.7401574803149606
        },
        {
          "duration": 0.46153849999999963,
          "durationTicks": 240,
          "midi": 50,
          "name": "D3",
          "ticks": 16560,
          "time": 31.846156499999996,
          "velocity": 0.9921259842519685
        },
        {
          "duration": 0.4615385000000032,
          "durationTicks": 240,
          "midi": 57,
          "name": "A3",
          "ticks": 16800,
          "time": 32.307694999999995,
          "velocity": 0.9921259842519685
        },
        {
          "duration": 0.4615385000000032,
          "durationTicks": 240,
          "midi": 62,
          "name": "D4",
          "ticks": 16800,
          "time": 32.307694999999995,
          "velocity": 0.9921259842519685
        },
        {
          "duration": 0.4615384999999961,
          "durationTicks": 240,
          "midi": 57,
          "name": "A3",
          "ticks": 17040,
          "time": 32.7692335,
          "velocity": 0.9921259842519685
        },
        {
          "duration": 0.4615385000000032,
          "durationTicks": 240,
          "midi": 43,
          "name": "G2",
          "ticks": 17280,
          "time": 33.230771999999995,
          "velocity": 0.9921259842519685
        },
        {
          "duration": 0.4615384999999961,
          "durationTicks": 240,
          "midi": 52,
          "name": "E3",
          "ticks": 17520,
          "time": 33.6923105,
          "velocity": 0.9921259842519685
        },
        {
          "duration": 0.4615385000000032,
          "durationTicks": 240,
          "midi": 60,
          "name": "C4",
          "ticks": 17760,
          "time": 34.153848999999994,
          "velocity": 0.9921259842519685
        },
        {
          "duration": 0.4615385000000032,
          "durationTicks": 240,
          "midi": 55,
          "name": "G3",
          "ticks": 18000,
          "time": 34.6153875,
          "velocity": 0.9921259842519685
        },
        {
          "duration": 0.9230769999999993,
          "durationTicks": 480,
          "midi": 43,
          "name": "G2",
          "ticks": 18240,
          "time": 35.076926,
          "velocity": 0.9921259842519685
        },
        {
          "duration": 0.4615384999999961,
          "durationTicks": 240,
          "midi": 55,
          "name": "G3",
          "ticks": 18240,
          "time": 35.076926,
          "velocity": 0.9921259842519685
        },
        {
          "duration": 0.9230769999999993,
          "durationTicks": 480,
          "midi": 59,
          "name": "B3",
          "ticks": 18240,
          "time": 35.076926,
          "velocity": 0.9921259842519685
        },
        {
          "duration": 0.47692311666666853,
          "durationTicks": 248,
          "midi": 55,
          "name": "G3",
          "ticks": 18480,
          "time": 35.538464499999996,
          "velocity": 0.9921259842519685
        },
        {
          "duration": 0.9230769999999993,
          "durationTicks": 480,
          "midi": 39,
          "name": "D#2",
          "ticks": 18720,
          "time": 36.000003,
          "velocity": 0.9921259842519685
        },
        {
          "duration": 0.9230769999999993,
          "durationTicks": 480,
          "midi": 54,
          "name": "F#3",
          "ticks": 18720,
          "time": 36.000003,
          "velocity": 0.9921259842519685
        },
        {
          "duration": 0.9230769999999993,
          "durationTicks": 480,
          "midi": 59,
          "name": "B3",
          "ticks": 18720,
          "time": 36.000003,
          "velocity": 0.9921259842519685
        },
        {
          "duration": 0.4615385000000032,
          "durationTicks": 240,
          "midi": 57,
          "name": "A3",
          "ticks": 18960,
          "time": 36.461541499999996,
          "velocity": 0.9921259842519685
        },
        {
          "duration": 0.4615384999999961,
          "durationTicks": 240,
          "midi": 40,
          "name": "E2",
          "ticks": 19200,
          "time": 36.92308,
          "velocity": 0.9921259842519685
        },
        {
          "duration": 0.4615385000000032,
          "durationTicks": 240,
          "midi": 55,
          "name": "G3",
          "ticks": 19440,
          "time": 37.384618499999995,
          "velocity": 0.9921259842519685
        },
        {
          "duration": 0.4615384999999961,
          "durationTicks": 240,
          "midi": 62,
          "name": "D4",
          "ticks": 19680,
          "time": 37.846157,
          "velocity": 0.9921259842519685
        },
        {
          "duration": 0.4615385000000032,
          "durationTicks": 240,
          "midi": 59,
          "name": "B3",
          "ticks": 19920,
          "time": 38.307695499999994,
          "velocity": 0.9921259842519685
        },
        {
          "duration": 0.4615384999999961,
          "durationTicks": 240,
          "midi": 45,
          "name": "A2",
          "ticks": 20160,
          "time": 38.769234,
          "velocity": 0.9921259842519685
        },
        {
          "duration": 0.4615384999999961,
          "durationTicks": 240,
          "midi": 61,
          "name": "C#4",
          "ticks": 20160,
          "time": 38.769234,
          "velocity": 0.9921259842519685
        },
        {
          "duration": 0.4615385000000032,
          "durationTicks": 240,
          "midi": 52,
          "name": "E3",
          "ticks": 20400,
          "time": 39.23077249999999,
          "velocity": 0.9921259842519685
        },
        {
          "duration": 0.4615385000000032,
          "durationTicks": 240,
          "midi": 61,
          "name": "C#4",
          "ticks": 20640,
          "time": 39.692311,
          "velocity": 0.9921259842519685
        },
        {
          "duration": 0.4615385000000032,
          "durationTicks": 240,
          "midi": 64,
          "name": "E4",
          "ticks": 20640,
          "time": 39.692311,
          "velocity": 0.9921259842519685
        },
        {
          "duration": 0.4615384999999961,
          "durationTicks": 240,
          "midi": 57,
          "name": "A3",
          "ticks": 20880,
          "time": 40.1538495,
          "velocity": 0.9921259842519685
        },
        {
          "duration": 0.4615385000000032,
          "durationTicks": 240,
          "midi": 48,
          "name": "C3",
          "ticks": 21120,
          "time": 40.615387999999996,
          "velocity": 0.9921259842519685
        },
        {
          "duration": 0.4615385000000032,
          "durationTicks": 240,
          "midi": 66,
          "name": "F#4",
          "ticks": 21120,
          "time": 40.615387999999996,
          "velocity": 0.4881889763779528
        },
        {
          "duration": 0.4615385000000032,
          "durationTicks": 240,
          "midi": 69,
          "name": "A4",
          "ticks": 21120,
          "time": 40.615387999999996,
          "velocity": 0.7401574803149606
        },
        {
          "duration": 0.4615384999999961,
          "durationTicks": 240,
          "midi": 57,
          "name": "A3",
          "ticks": 21360,
          "time": 41.0769265,
          "velocity": 0.7401574803149606
        },
        {
          "duration": 0.4615384999999961,
          "durationTicks": 240,
          "midi": 60,
          "name": "C4",
          "ticks": 21360,
          "time": 41.0769265,
          "velocity": 0.4881889763779528
        },
        {
          "duration": 0.4615384999999961,
          "durationTicks": 240,
          "midi": 63,
          "name": "D#4",
          "ticks": 21360,
          "time": 41.0769265,
          "velocity": 0.4881889763779528
        },
        {
          "duration": 0.4615385000000032,
          "durationTicks": 240,
          "midi": 60,
          "name": "C4",
          "ticks": 21600,
          "time": 41.538464999999995,
          "velocity": 0.7401574803149606
        },
        {
          "duration": 0.4615385000000032,
          "durationTicks": 240,
          "midi": 66,
          "name": "F#4",
          "ticks": 21600,
          "time": 41.538464999999995,
          "velocity": 0.4881889763779528
        },
        {
          "duration": 0.4615385000000032,
          "durationTicks": 240,
          "midi": 69,
          "name": "A4",
          "ticks": 21600,
          "time": 41.538464999999995,
          "velocity": 0.7401574803149606
        },
        {
          "duration": 0.4615384999999961,
          "durationTicks": 240,
          "midi": 60,
          "name": "C4",
          "ticks": 21840,
          "time": 42.0000035,
          "velocity": 0.4881889763779528
        },
        {
          "duration": 0.4615384999999961,
          "durationTicks": 240,
          "midi": 63,
          "name": "D#4",
          "ticks": 21840,
          "time": 42.0000035,
          "velocity": 0.4881889763779528
        },
        {
          "duration": 0.4615385000000032,
          "durationTicks": 240,
          "midi": 50,
          "name": "D3",
          "ticks": 22080,
          "time": 42.461541999999994,
          "velocity": 0.9921259842519685
        },
        {
          "duration": 0.4615385000000032,
          "durationTicks": 240,
          "midi": 62,
          "name": "D4",
          "ticks": 22080,
          "time": 42.461541999999994,
          "velocity": 0.4881889763779528
        },
        {
          "duration": 0.4615385000000032,
          "durationTicks": 240,
          "midi": 66,
          "name": "F#4",
          "ticks": 22080,
          "time": 42.461541999999994,
          "velocity": 0.4881889763779528
        },
        {
          "duration": 0.4615384999999961,
          "durationTicks": 240,
          "midi": 57,
          "name": "A3",
          "ticks": 22320,
          "time": 42.9230805,
          "velocity": 0.9921259842519685
        },
        {
          "duration": 0.4615385000000032,
          "durationTicks": 240,
          "midi": 57,
          "name": "A3",
          "ticks": 22560,
          "time": 43.384618999999994,
          "velocity": 0.4881889763779528
        },
        {
          "duration": 0.4615385000000032,
          "durationTicks": 240,
          "midi": 62,
          "name": "D4",
          "ticks": 22560,
          "time": 43.384618999999994,
          "velocity": 0.9921259842519685
        },
        {
          "duration": 0.4615384999999961,
          "durationTicks": 240,
          "midi": 57,
          "name": "A3",
          "ticks": 22800,
          "time": 43.8461575,
          "velocity": 0.9921259842519685
        },
        {
          "duration": 0.4615384999999961,
          "durationTicks": 240,
          "midi": 60,
          "name": "C4",
          "ticks": 22800,
          "time": 43.8461575,
          "velocity": 0.9921259842519685
        },
        {
          "duration": 0.4615385000000032,
          "durationTicks": 240,
          "midi": 48,
          "name": "C3",
          "ticks": 22980,
          "time": 44.192311374999996,
          "velocity": 0.9921259842519685
        },
        {
          "duration": 0.4615385000000032,
          "durationTicks": 240,
          "midi": 55,
          "name": "G3",
          "ticks": 22980,
          "time": 44.192311374999996,
          "velocity": 0.9921259842519685
        },
        {
          "duration": 0.4615385000000032,
          "durationTicks": 240,
          "midi": 60,
          "name": "C4",
          "ticks": 23040,
          "time": 44.30769599999999,
          "velocity": 0.9921259842519685
        },
        {
          "duration": 0.4615385000000032,
          "durationTicks": 240,
          "midi": 55,
          "name": "G3",
          "ticks": 23280,
          "time": 44.769234499999996,
          "velocity": 0.9921259842519685
        },
        {
          "duration": 0.4615384999999961,
          "durationTicks": 240,
          "midi": 64,
          "name": "E4",
          "ticks": 23520,
          "time": 45.230773,
          "velocity": 0.9921259842519685
        },
        {
          "duration": 0.4615385000000032,
          "durationTicks": 240,
          "midi": 60,
          "name": "C4",
          "ticks": 23760,
          "time": 45.692311499999995,
          "velocity": 0.9921259842519685
        },
        {
          "duration": 0.4615384999999961,
          "durationTicks": 240,
          "midi": 47,
          "name": "B2",
          "ticks": 24000,
          "time": 46.15385,
          "velocity": 0.9921259842519685
        },
        {
          "duration": 0.4615385000000032,
          "durationTicks": 240,
          "midi": 55,
          "name": "G3",
          "ticks": 24240,
          "time": 46.615388499999995,
          "velocity": 0.9921259842519685
        },
        {
          "duration": 0.4615384999999961,
          "durationTicks": 240,
          "midi": 62,
          "name": "D4",
          "ticks": 24480,
          "time": 47.076927,
          "velocity": 0.9921259842519685
        },
        {
          "duration": 0.4615385000000032,
          "durationTicks": 240,
          "midi": 59,
          "name": "B3",
          "ticks": 24720,
          "time": 47.538465499999994,
          "velocity": 0.9921259842519685
        },
        {
          "duration": 0.9230769999999993,
          "durationTicks": 480,
          "midi": 45,
          "name": "A2",
          "ticks": 24960,
          "time": 48.000004,
          "velocity": 0.9921259842519685
        },
        {
          "duration": 1.4000001166666678,
          "durationTicks": 728,
          "midi": 55,
          "name": "G3",
          "ticks": 25200,
          "time": 48.46154249999999,
          "velocity": 0.9921259842519685
        },
        {
          "duration": 0.4615385000000032,
          "durationTicks": 240,
          "midi": 50,
          "name": "D3",
          "ticks": 25440,
          "time": 48.923080999999996,
          "velocity": 0.9921259842519685
        },
        {
          "duration": 0.4615385000000032,
          "durationTicks": 240,
          "midi": 64,
          "name": "E4",
          "ticks": 25440,
          "time": 48.923080999999996,
          "velocity": 0.9921259842519685
        },
        {
          "duration": 0.4615384999999961,
          "durationTicks": 240,
          "midi": 60,
          "name": "C4",
          "ticks": 25680,
          "time": 49.3846195,
          "velocity": 0.9921259842519685
        },
        {
          "duration": 0.9230769999999993,
          "durationTicks": 480,
          "midi": 43,
          "name": "G2",
          "ticks": 25920,
          "time": 49.846157999999996,
          "velocity": 0.9921259842519685
        },
        {
          "duration": 0.4615384999999961,
          "durationTicks": 240,
          "midi": 55,
          "name": "G3",
          "ticks": 26160,
          "time": 50.3076965,
          "velocity": 0.9921259842519685
        },
        {
          "duration": 0.4615385000000032,
          "durationTicks": 240,
          "midi": 57,
          "name": "A3",
          "ticks": 26400,
          "time": 50.769234999999995,
          "velocity": 0.9921259842519685
        },
        {
          "duration": 0.4615384999999961,
          "durationTicks": 240,
          "midi": 59,
          "name": "B3",
          "ticks": 26640,
          "time": 51.2307735,
          "velocity": 0.9921259842519685
        },
        {
          "duration": 0.4615385000000032,
          "durationTicks": 240,
          "midi": 40,
          "name": "E2",
          "ticks": 26880,
          "time": 51.692311999999994,
          "velocity": 0.9921259842519685
        },
        {
          "duration": 0.4615384999999961,
          "durationTicks": 240,
          "midi": 59,
          "name": "B3",
          "ticks": 27120,
          "time": 52.1538505,
          "velocity": 0.9921259842519685
        },
        {
          "duration": 0.4615385000000032,
          "durationTicks": 240,
          "midi": 64,
          "name": "E4",
          "ticks": 27360,
          "time": 52.61538899999999,
          "velocity": 0.9921259842519685
        },
        {
          "duration": 0.4615384999999961,
          "durationTicks": 240,
          "midi": 59,
          "name": "B3",
          "ticks": 27600,
          "time": 53.0769275,
          "velocity": 0.9921259842519685
        },
        {
          "duration": 0.4615385000000032,
          "durationTicks": 240,
          "midi": 45,
          "name": "A2",
          "ticks": 27840,
          "time": 53.53846599999999,
          "velocity": 0.9921259842519685
        },
        {
          "duration": 0.4615385000000032,
          "durationTicks": 240,
          "midi": 52,
          "name": "E3",
          "ticks": 28080,
          "time": 54.000004499999996,
          "velocity": 0.9921259842519685
        },
        {
          "duration": 0.36923079999999686,
          "durationTicks": 192,
          "midi": 61,
          "name": "C#4",
          "ticks": 28320,
          "time": 54.461543,
          "velocity": 0.9921259842519685
        },
        {
          "duration": 0.4615385000000032,
          "durationTicks": 240,
          "midi": 57,
          "name": "A3",
          "ticks": 28560,
          "time": 54.923081499999995,
          "velocity": 0.9921259842519685
        },
        {
          "duration": 0.4615384999999961,
          "durationTicks": 240,
          "midi": 45,
          "name": "A2",
          "ticks": 28800,
          "time": 55.38462,
          "velocity": 0.9921259842519685
        },
        {
          "duration": 0.4615384999999961,
          "durationTicks": 240,
          "midi": 64,
          "name": "E4",
          "ticks": 28800,
          "time": 55.38462,
          "velocity": 0.9921259842519685
        },
        {
          "duration": 0.4615385000000032,
          "durationTicks": 240,
          "midi": 55,
          "name": "G3",
          "ticks": 29040,
          "time": 55.846158499999994,
          "velocity": 0.9921259842519685
        },
        {
          "duration": 0.4615384999999961,
          "durationTicks": 240,
          "midi": 60,
          "name": "C4",
          "ticks": 29280,
          "time": 56.307697,
          "velocity": 0.9921259842519685
        },
        {
          "duration": 0.4615385000000032,
          "durationTicks": 240,
          "midi": 57,
          "name": "A3",
          "ticks": 29520,
          "time": 56.76923549999999,
          "velocity": 0.9921259842519685
        },
        {
          "duration": 0.4615384999999961,
          "durationTicks": 240,
          "midi": 50,
          "name": "D3",
          "ticks": 29760,
          "time": 57.230774,
          "velocity": 0.9921259842519685
        },
        {
          "duration": 0.36923080000000397,
          "durationTicks": 192,
          "midi": 57,
          "name": "A3",
          "ticks": 30000,
          "time": 57.69231249999999,
          "velocity": 0.9921259842519685
        },
        {
          "duration": 0.36923079999999686,
          "durationTicks": 192,
          "midi": 62,
          "name": "D4",
          "ticks": 30240,
          "time": 58.153850999999996,
          "velocity": 0.9921259842519685
        },
        {
          "duration": 0.36923080000000397,
          "durationTicks": 192,
          "midi": 67,
          "name": "G4",
          "ticks": 30480,
          "time": 58.61538949999999,
          "velocity": 0.952755905511811
        },
        {
          "duration": 0.4461538833333307,
          "durationTicks": 232,
          "midi": 50,
          "name": "D3",
          "ticks": 30720,
          "time": 59.076927999999995,
          "velocity": 0.8503937007874016
        },
        {
          "duration": 0.4461538833333307,
          "durationTicks": 232,
          "midi": 57,
          "name": "A3",
          "ticks": 30960,
          "time": 59.5384665,
          "velocity": 0.8503937007874016
        },
        {
          "duration": 0.44615388333333783,
          "durationTicks": 232,
          "midi": 62,
          "name": "D4",
          "ticks": 31200,
          "time": 60.000004999999994,
          "velocity": 0.8503937007874016
        },
        {
          "duration": 0.4615385000000032,
          "durationTicks": 240,
          "midi": 43,
          "name": "G2",
          "ticks": 31680,
          "time": 60.923081999999994,
          "velocity": 0.9921259842519685
        },
        {
          "duration": 0.4615384999999961,
          "durationTicks": 240,
          "midi": 50,
          "name": "D3",
          "ticks": 31920,
          "time": 61.3846205,
          "velocity": 0.9921259842519685
        },
        {
          "duration": 0.4615385000000032,
          "durationTicks": 240,
          "midi": 59,
          "name": "B3",
          "ticks": 32160,
          "time": 61.84615899999999,
          "velocity": 0.9921259842519685
        },
        {
          "duration": 0.4615384999999961,
          "durationTicks": 240,
          "midi": 55,
          "name": "G3",
          "ticks": 32400,
          "time": 62.307697499999996,
          "velocity": 0.9921259842519685
        },
        {
          "duration": 0.4615385000000032,
          "durationTicks": 240,
          "midi": 45,
          "name": "A2",
          "ticks": 32640,
          "time": 62.76923599999999,
          "velocity": 0.9921259842519685
        },
        {
          "duration": 0.4615384999999961,
          "durationTicks": 240,
          "midi": 52,
          "name": "E3",
          "ticks": 32880,
          "time": 63.230774499999995,
          "velocity": 0.9921259842519685
        },
        {
          "duration": 0.4615385000000103,
          "durationTicks": 240,
          "midi": 60,
          "name": "C4",
          "ticks": 33120,
          "time": 63.69231299999999,
          "velocity": 0.9921259842519685
        },
        {
          "duration": 0.46153849999998897,
          "durationTicks": 240,
          "midi": 55,
          "name": "G3",
          "ticks": 33360,
          "time": 64.1538515,
          "velocity": 0.9921259842519685
        },
        {
          "duration": 0.4615385000000032,
          "durationTicks": 240,
          "midi": 47,
          "name": "B2",
          "ticks": 33600,
          "time": 64.61538999999999,
          "velocity": 0.9921259842519685
        },
        {
          "duration": 0.4615385000000032,
          "durationTicks": 240,
          "midi": 55,
          "name": "G3",
          "ticks": 33840,
          "time": 65.0769285,
          "velocity": 0.9921259842519685
        },
        {
          "duration": 0.4615385000000032,
          "durationTicks": 240,
          "midi": 62,
          "name": "D4",
          "ticks": 34080,
          "time": 65.538467,
          "velocity": 0.9921259842519685
        },
        {
          "duration": 0.46153849999998897,
          "durationTicks": 240,
          "midi": 59,
          "name": "B3",
          "ticks": 34320,
          "time": 66.0000055,
          "velocity": 0.9921259842519685
        },
        {
          "duration": 0.4615385000000032,
          "durationTicks": 240,
          "midi": 40,
          "name": "E2",
          "ticks": 34560,
          "time": 66.46154399999999,
          "velocity": 0.9921259842519685
        },
        {
          "duration": 0.4615385000000032,
          "durationTicks": 240,
          "midi": 56,
          "name": "G#3",
          "ticks": 34800,
          "time": 66.92308249999999,
          "velocity": 0.9921259842519685
        },
        {
          "duration": 0.4615385000000032,
          "durationTicks": 240,
          "midi": 59,
          "name": "B3",
          "ticks": 35040,
          "time": 67.384621,
          "velocity": 0.9921259842519685
        },
        {
          "duration": 0.46153849999998897,
          "durationTicks": 240,
          "midi": 52,
          "name": "E3",
          "ticks": 35280,
          "time": 67.8461595,
          "velocity": 0.9921259842519685
        },
        {
          "duration": 0.4615385000000032,
          "durationTicks": 240,
          "midi": 45,
          "name": "A2",
          "ticks": 35520,
          "time": 68.30769799999999,
          "velocity": 0.9921259842519685
        },
        {
          "duration": 0.4615385000000032,
          "durationTicks": 240,
          "midi": 55,
          "name": "G3",
          "ticks": 35760,
          "time": 68.76923649999999,
          "velocity": 0.9921259842519685
        },
        {
          "duration": 0.4615385000000032,
          "durationTicks": 240,
          "midi": 64,
          "name": "E4",
          "ticks": 36000,
          "time": 69.230775,
          "velocity": 0.9921259842519685
        },
        {
          "duration": 0.36923079999999686,
          "durationTicks": 192,
          "midi": 59,
          "name": "B3",
          "ticks": 36240,
          "time": 69.6923135,
          "velocity": 0.9921259842519685
        },
        {
          "duration": 0.46153849999998897,
          "durationTicks": 240,
          "midi": 44,
          "name": "G#2",
          "ticks": 36480,
          "time": 70.153852,
          "velocity": 0.9921259842519685
        },
        {
          "duration": 0.4615385000000032,
          "durationTicks": 240,
          "midi": 52,
          "name": "E3",
          "ticks": 36720,
          "time": 70.61539049999999,
          "velocity": 0.9921259842519685
        },
        {
          "duration": 0.4615385000000032,
          "durationTicks": 240,
          "midi": 59,
          "name": "B3",
          "ticks": 36960,
          "time": 71.07692899999999,
          "velocity": 0.9921259842519685
        },
        {
          "duration": 0.4615385000000032,
          "durationTicks": 240,
          "midi": 52,
          "name": "E3",
          "ticks": 37200,
          "time": 71.5384675,
          "velocity": 0.9921259842519685
        },
        {
          "duration": 0.46153849999998897,
          "durationTicks": 240,
          "midi": 43,
          "name": "G2",
          "ticks": 37440,
          "time": 72.000006,
          "velocity": 0.9921259842519685
        },
        {
          "duration": 0.4615385000000032,
          "durationTicks": 240,
          "midi": 52,
          "name": "E3",
          "ticks": 37680,
          "time": 72.46154449999999,
          "velocity": 0.9921259842519685
        },
        {
          "duration": 0.4615385000000032,
          "durationTicks": 240,
          "midi": 60,
          "name": "C4",
          "ticks": 37920,
          "time": 72.92308299999999,
          "velocity": 0.9921259842519685
        },
        {
          "duration": 0.4615385000000032,
          "durationTicks": 240,
          "midi": 55,
          "name": "G3",
          "ticks": 38160,
          "time": 73.3846215,
          "velocity": 0.9921259842519685
        },
        {
          "duration": 0.4615385000000032,
          "durationTicks": 240,
          "midi": 50,
          "name": "D3",
          "ticks": 38400,
          "time": 73.84616,
          "velocity": 0.9921259842519685
        },
        {
          "duration": 0.46153849999998897,
          "durationTicks": 240,
          "midi": 57,
          "name": "A3",
          "ticks": 38640,
          "time": 74.3076985,
          "velocity": 0.9921259842519685
        },
        {
          "duration": 0.4615385000000032,
          "durationTicks": 240,
          "midi": 66,
          "name": "F#4",
          "ticks": 38880,
          "time": 74.76923699999999,
          "velocity": 0.9921259842519685
        },
        {
          "duration": 0.4615385000000032,
          "durationTicks": 240,
          "midi": 62,
          "name": "D4",
          "ticks": 39120,
          "time": 75.2307755,
          "velocity": 0.9921259842519685
        },
        {
          "duration": 0.4615385000000032,
          "durationTicks": 240,
          "midi": 43,
          "name": "G2",
          "ticks": 39360,
          "time": 75.692314,
          "velocity": 0.9921259842519685
        },
        {
          "duration": 0.46153849999998897,
          "durationTicks": 240,
          "midi": 50,
          "name": "D3",
          "ticks": 39600,
          "time": 76.1538525,
          "velocity": 0.9921259842519685
        },
        {
          "duration": 0.4615385000000032,
          "durationTicks": 240,
          "midi": 59,
          "name": "B3",
          "ticks": 39840,
          "time": 76.61539099999999,
          "velocity": 0.9921259842519685
        },
        {
          "duration": 0.4615385000000032,
          "durationTicks": 240,
          "midi": 55,
          "name": "G3",
          "ticks": 40080,
          "time": 77.07692949999999,
          "velocity": 0.9921259842519685
        },
        {
          "duration": 0.4615385000000032,
          "durationTicks": 240,
          "midi": 45,
          "name": "A2",
          "ticks": 40320,
          "time": 77.538468,
          "velocity": 0.9921259842519685
        },
        {
          "duration": 0.46153849999998897,
          "durationTicks": 240,
          "midi": 52,
          "name": "E3",
          "ticks": 40560,
          "time": 78.0000065,
          "velocity": 0.9921259842519685
        },
        {
          "duration": 0.4615385000000032,
          "durationTicks": 240,
          "midi": 60,
          "name": "C4",
          "ticks": 40800,
          "time": 78.46154499999999,
          "velocity": 0.9921259842519685
        },
        {
          "duration": 0.4615385000000032,
          "durationTicks": 240,
          "midi": 55,
          "name": "G3",
          "ticks": 41040,
          "time": 78.92308349999999,
          "velocity": 0.9921259842519685
        },
        {
          "duration": 0.4615385000000032,
          "durationTicks": 240,
          "midi": 47,
          "name": "B2",
          "ticks": 41280,
          "time": 79.384622,
          "velocity": 0.9921259842519685
        },
        {
          "duration": 0.4615385000000032,
          "durationTicks": 240,
          "midi": 55,
          "name": "G3",
          "ticks": 41520,
          "time": 79.8461605,
          "velocity": 0.9921259842519685
        },
        {
          "duration": 0.46153849999998897,
          "durationTicks": 240,
          "midi": 62,
          "name": "D4",
          "ticks": 41760,
          "time": 80.307699,
          "velocity": 0.9921259842519685
        },
        {
          "duration": 0.4615385000000032,
          "durationTicks": 240,
          "midi": 59,
          "name": "B3",
          "ticks": 42000,
          "time": 80.76923749999999,
          "velocity": 0.9921259842519685
        },
        {
          "duration": 0.4615385000000032,
          "durationTicks": 240,
          "midi": 47,
          "name": "B2",
          "ticks": 42240,
          "time": 81.23077599999999,
          "velocity": 0.9921259842519685
        },
        {
          "duration": 0.4615385000000032,
          "durationTicks": 240,
          "midi": 54,
          "name": "F#3",
          "ticks": 42480,
          "time": 81.6923145,
          "velocity": 0.9921259842519685
        },
        {
          "duration": 0.46153849999998897,
          "durationTicks": 240,
          "midi": 59,
          "name": "B3",
          "ticks": 42720,
          "time": 82.153853,
          "velocity": 0.9921259842519685
        },
        {
          "duration": 0.4615385000000032,
          "durationTicks": 240,
          "midi": 57,
          "name": "A3",
          "ticks": 42960,
          "time": 82.61539149999999,
          "velocity": 0.9921259842519685
        },
        {
          "duration": 0.4615385000000032,
          "durationTicks": 240,
          "midi": 52,
          "name": "E3",
          "ticks": 43200,
          "time": 83.07692999999999,
          "velocity": 0.9921259842519685
        },
        {
          "duration": 0.4615385000000032,
          "durationTicks": 240,
          "midi": 59,
          "name": "B3",
          "ticks": 43440,
          "time": 83.5384685,
          "velocity": 0.9921259842519685
        },
        {
          "duration": 0.4615385000000032,
          "durationTicks": 240,
          "midi": 64,
          "name": "E4",
          "ticks": 43680,
          "time": 84.000007,
          "velocity": 0.9921259842519685
        },
        {
          "duration": 0.46153849999998897,
          "durationTicks": 240,
          "midi": 59,
          "name": "B3",
          "ticks": 43920,
          "time": 84.4615455,
          "velocity": 0.9921259842519685
        },
        {
          "duration": 0.4615385000000032,
          "durationTicks": 240,
          "midi": 50,
          "name": "D3",
          "ticks": 44160,
          "time": 84.92308399999999,
          "velocity": 0.9921259842519685
        },
        {
          "duration": 0.4615385000000032,
          "durationTicks": 240,
          "midi": 57,
          "name": "A3",
          "ticks": 44400,
          "time": 85.38462249999999,
          "velocity": 0.9921259842519685
        },
        {
          "duration": 0.4615385000000032,
          "durationTicks": 240,
          "midi": 62,
          "name": "D4",
          "ticks": 44640,
          "time": 85.846161,
          "velocity": 0.9921259842519685
        },
        {
          "duration": 0.46153849999998897,
          "durationTicks": 240,
          "midi": 59,
          "name": "B3",
          "ticks": 44880,
          "time": 86.3076995,
          "velocity": 0.9921259842519685
        },
        {
          "duration": 0.4615385000000032,
          "durationTicks": 240,
          "midi": 49,
          "name": "C#3",
          "ticks": 45120,
          "time": 86.76923799999999,
          "velocity": 0.9921259842519685
        },
        {
          "duration": 0.4615385000000032,
          "durationTicks": 240,
          "midi": 55,
          "name": "G3",
          "ticks": 45360,
          "time": 87.23077649999999,
          "velocity": 0.9921259842519685
        },
        {
          "duration": 0.4615385000000032,
          "durationTicks": 240,
          "midi": 61,
          "name": "C#4",
          "ticks": 45600,
          "time": 87.692315,
          "velocity": 0.9921259842519685
        },
        {
          "duration": 0.46153849999998897,
          "durationTicks": 240,
          "midi": 64,
          "name": "E4",
          "ticks": 45840,
          "time": 88.1538535,
          "velocity": 0.9921259842519685
        },
        {
          "duration": 1.8461540000000127,
          "durationTicks": 960,
          "midi": 64,
          "name": "E4",
          "ticks": 46080,
          "time": 88.61539199999999,
          "velocity": 0.9921259842519685
        }
      ]
    },
    {
      "channel": 9,
      "controlChanges": {
        "7": [
          {
            "number": 7,
            "ticks": 0,
            "time": 0,
            "value": 0.9448818897637795
          },
          {
            "number": 7,
            "ticks": 0,
            "time": 0,
            "value": 0.9448818897637795
          }
        ],
        "10": [
          {
            "number": 10,
            "ticks": 0,
            "time": 0,
            "value": 0.5039370078740157
          },
          {
            "number": 10,
            "ticks": 0,
            "time": 0,
            "value": 0.5039370078740157
          }
        ]
      },
      "pitchBends": [],
      "instrument": {
        "family": "drums",
        "number": 0,
        "name": "standard kit"
      },
      "name": "I Believe",
      "notes": [
        {
          "duration": 0.07692308333332676,
          "durationTicks": 40,
          "midi": 49,
          "name": "C#3",
          "ticks": 30720,
          "time": 59.076927999999995,
          "velocity": 0.16535433070866143
        },
        {
          "duration": 0.07692308333332676,
          "durationTicks": 40,
          "midi": 49,
          "name": "C#3",
          "ticks": 30720,
          "time": 59.076927999999995,
          "velocity": 0.18110236220472442
        },
        {
          "duration": 0.07692308333333386,
          "durationTicks": 40,
          "midi": 49,
          "name": "C#3",
          "ticks": 30780,
          "time": 59.19231262499999,
          "velocity": 0.2047244094488189
        },
        {
          "duration": 0.07692308333332676,
          "durationTicks": 40,
          "midi": 49,
          "name": "C#3",
          "ticks": 30840,
          "time": 59.30769725,
          "velocity": 0.23622047244094488
        },
        {
          "duration": 0.07692308333332676,
          "durationTicks": 40,
          "midi": 49,
          "name": "C#3",
          "ticks": 30840,
          "time": 59.30769725,
          "velocity": 0.25196850393700787
        },
        {
          "duration": 0.07692308333332676,
          "durationTicks": 40,
          "midi": 49,
          "name": "C#3",
          "ticks": 30900,
          "time": 59.423081874999994,
          "velocity": 0.2755905511811024
        },
        {
          "duration": 0.07692308333332676,
          "durationTicks": 40,
          "midi": 49,
          "name": "C#3",
          "ticks": 30960,
          "time": 59.5384665,
          "velocity": 0.2992125984251969
        },
        {
          "duration": 0.07692308333332676,
          "durationTicks": 40,
          "midi": 49,
          "name": "C#3",
          "ticks": 30960,
          "time": 59.5384665,
          "velocity": 0.31496062992125984
        },
        {
          "duration": 0.07692308333332676,
          "durationTicks": 40,
          "midi": 49,
          "name": "C#3",
          "ticks": 31020,
          "time": 59.653851124999996,
          "velocity": 0.33858267716535434
        },
        {
          "duration": 0.07692308333333386,
          "durationTicks": 40,
          "midi": 49,
          "name": "C#3",
          "ticks": 31080,
          "time": 59.76923574999999,
          "velocity": 0.36220472440944884
        },
        {
          "duration": 0.07692308333333386,
          "durationTicks": 40,
          "midi": 49,
          "name": "C#3",
          "ticks": 31080,
          "time": 59.76923574999999,
          "velocity": 0.3858267716535433
        },
        {
          "duration": 0.07692308333332676,
          "durationTicks": 40,
          "midi": 49,
          "name": "C#3",
          "ticks": 31140,
          "time": 59.884620375,
          "velocity": 0.4094488188976378
        },
        {
          "duration": 0.07692308333332676,
          "durationTicks": 40,
          "midi": 49,
          "name": "C#3",
          "ticks": 31200,
          "time": 60.000004999999994,
          "velocity": 0.4330708661417323
        },
        {
          "duration": 0.07692308333332676,
          "durationTicks": 40,
          "midi": 49,
          "name": "C#3",
          "ticks": 31200,
          "time": 60.000004999999994,
          "velocity": 0.44881889763779526
        },
        {
          "duration": 1.8615386166666639,
          "durationTicks": 968,
          "midi": 36,
          "name": "C2",
          "ticks": 31680,
          "time": 60.923081999999994,
          "velocity": 1
        },
        {
          "duration": 0.09230769999999922,
          "durationTicks": 48,
          "midi": 42,
          "name": "F#2",
          "ticks": 31680,
          "time": 60.923081999999994,
          "velocity": 0.5354330708661418
        },
        {
          "duration": 0.09230769999999922,
          "durationTicks": 48,
          "midi": 42,
          "name": "F#2",
          "ticks": 32160,
          "time": 61.84615899999999,
          "velocity": 0.5354330708661418
        },
        {
          "duration": 1.638461675000002,
          "durationTicks": 852,
          "midi": 37,
          "name": "C#2",
          "ticks": 32640,
          "time": 62.76923599999999,
          "velocity": 1
        },
        {
          "duration": 0.09230769999999922,
          "durationTicks": 48,
          "midi": 42,
          "name": "F#2",
          "ticks": 32640,
          "time": 62.76923599999999,
          "velocity": 0.5354330708661418
        },
        {
          "duration": 0.40769234166666735,
          "durationTicks": 212,
          "midi": 42,
          "name": "F#2",
          "ticks": 33120,
          "time": 63.69231299999999,
          "velocity": 0.5354330708661418
        },
        {
          "duration": 1.738461683333341,
          "durationTicks": 904,
          "midi": 36,
          "name": "C2",
          "ticks": 33600,
          "time": 64.61538999999999,
          "velocity": 1
        },
        {
          "duration": 0.17692309166666575,
          "durationTicks": 92,
          "midi": 42,
          "name": "F#2",
          "ticks": 33600,
          "time": 64.61538999999999,
          "velocity": 0.5354330708661418
        },
        {
          "duration": 0.43846157499999094,
          "durationTicks": 228,
          "midi": 42,
          "name": "F#2",
          "ticks": 34080,
          "time": 65.538467,
          "velocity": 0.5354330708661418
        },
        {
          "duration": 1.4384616583333383,
          "durationTicks": 748,
          "midi": 37,
          "name": "C#2",
          "ticks": 34560,
          "time": 66.46154399999999,
          "velocity": 1
        },
        {
          "duration": 0.1384615500000166,
          "durationTicks": 72,
          "midi": 42,
          "name": "F#2",
          "ticks": 34560,
          "time": 66.46154399999999,
          "velocity": 0.5354330708661418
        },
        {
          "duration": 0.23076924999999449,
          "durationTicks": 120,
          "midi": 42,
          "name": "F#2",
          "ticks": 35040,
          "time": 67.384621,
          "velocity": 0.5354330708661418
        },
        {
          "duration": 1.6076924416666714,
          "durationTicks": 836,
          "midi": 36,
          "name": "C2",
          "ticks": 35520,
          "time": 68.30769799999999,
          "velocity": 1
        },
        {
          "duration": 0.12307693333335123,
          "durationTicks": 64,
          "midi": 42,
          "name": "F#2",
          "ticks": 35520,
          "time": 68.30769799999999,
          "velocity": 0.5354330708661418
        },
        {
          "duration": 0.13846155000000238,
          "durationTicks": 72,
          "midi": 42,
          "name": "F#2",
          "ticks": 36000,
          "time": 69.230775,
          "velocity": 0.5354330708661418
        },
        {
          "duration": 1.438461658333324,
          "durationTicks": 748,
          "midi": 37,
          "name": "C#2",
          "ticks": 36480,
          "time": 70.153852,
          "velocity": 1
        },
        {
          "duration": 0.09230769999999211,
          "durationTicks": 48,
          "midi": 42,
          "name": "F#2",
          "ticks": 36480,
          "time": 70.153852,
          "velocity": 0.5354330708661418
        },
        {
          "duration": 0.3692308000000111,
          "durationTicks": 192,
          "midi": 42,
          "name": "F#2",
          "ticks": 36960,
          "time": 71.07692899999999,
          "velocity": 0.5354330708661418
        },
        {
          "duration": 1.8230770749999863,
          "durationTicks": 948,
          "midi": 36,
          "name": "C2",
          "ticks": 37440,
          "time": 72.000006,
          "velocity": 1
        },
        {
          "duration": 0.10769231666665746,
          "durationTicks": 56,
          "midi": 42,
          "name": "F#2",
          "ticks": 37440,
          "time": 72.000006,
          "velocity": 0.5354330708661418
        },
        {
          "duration": 0.3538461833333457,
          "durationTicks": 184,
          "midi": 42,
          "name": "F#2",
          "ticks": 37920,
          "time": 72.92308299999999,
          "velocity": 0.5354330708661418
        },
        {
          "duration": 1.2076924083333296,
          "durationTicks": 628,
          "midi": 37,
          "name": "C#2",
          "ticks": 38400,
          "time": 73.84616,
          "velocity": 1
        },
        {
          "duration": 0.11538462499999014,
          "durationTicks": 60,
          "midi": 42,
          "name": "F#2",
          "ticks": 38400,
          "time": 73.84616,
          "velocity": 0.5354330708661418
        },
        {
          "duration": 0.30769233333333545,
          "durationTicks": 160,
          "midi": 42,
          "name": "F#2",
          "ticks": 38880,
          "time": 74.76923699999999,
          "velocity": 0.5354330708661418
        },
        {
          "duration": 1.8230770749999863,
          "durationTicks": 948,
          "midi": 36,
          "name": "C2",
          "ticks": 39360,
          "time": 75.692314,
          "velocity": 1
        },
        {
          "duration": 0.100000008333339,
          "durationTicks": 52,
          "midi": 42,
          "name": "F#2",
          "ticks": 39360,
          "time": 75.692314,
          "velocity": 0.5354330708661418
        },
        {
          "duration": 0.4000000333333418,
          "durationTicks": 208,
          "midi": 42,
          "name": "F#2",
          "ticks": 39840,
          "time": 76.61539099999999,
          "velocity": 0.5354330708661418
        },
        {
          "duration": 1.4000001166666607,
          "durationTicks": 728,
          "midi": 37,
          "name": "C#2",
          "ticks": 40320,
          "time": 77.538468,
          "velocity": 1
        },
        {
          "duration": 0.09230769999999211,
          "durationTicks": 48,
          "midi": 42,
          "name": "F#2",
          "ticks": 40320,
          "time": 77.538468,
          "velocity": 0.5354330708661418
        },
        {
          "duration": 0.1615384750000004,
          "durationTicks": 84,
          "midi": 42,
          "name": "F#2",
          "ticks": 40800,
          "time": 78.46154499999999,
          "velocity": 0.5354330708661418
        },
        {
          "duration": 1.5923078249999918,
          "durationTicks": 828,
          "midi": 36,
          "name": "C2",
          "ticks": 41280,
          "time": 79.384622,
          "velocity": 1
        },
        {
          "duration": 0.09230769999999211,
          "durationTicks": 48,
          "midi": 42,
          "name": "F#2",
          "ticks": 41280,
          "time": 79.384622,
          "velocity": 0.5354330708661418
        },
        {
          "duration": 0.34615387499999883,
          "durationTicks": 180,
          "midi": 42,
          "name": "F#2",
          "ticks": 41760,
          "time": 80.307699,
          "velocity": 0.5354330708661418
        },
        {
          "duration": 1.423077041666673,
          "durationTicks": 740,
          "midi": 37,
          "name": "C#2",
          "ticks": 42240,
          "time": 81.23077599999999,
          "velocity": 1
        },
        {
          "duration": 0.09230769999999211,
          "durationTicks": 48,
          "midi": 42,
          "name": "F#2",
          "ticks": 42240,
          "time": 81.23077599999999,
          "velocity": 0.5354330708661418
        },
        {
          "duration": 0.20769232499999646,
          "durationTicks": 108,
          "midi": 42,
          "name": "F#2",
          "ticks": 42720,
          "time": 82.153853,
          "velocity": 0.5354330708661418
        },
        {
          "duration": 1.6923078333333308,
          "durationTicks": 880,
          "midi": 36,
          "name": "C2",
          "ticks": 43200,
          "time": 83.07692999999999,
          "velocity": 1
        },
        {
          "duration": 0.09230769999999211,
          "durationTicks": 48,
          "midi": 42,
          "name": "F#2",
          "ticks": 43200,
          "time": 83.07692999999999,
          "velocity": 0.5354330708661418
        },
        {
          "duration": 0.2692307916666721,
          "durationTicks": 140,
          "midi": 42,
          "name": "F#2",
          "ticks": 43680,
          "time": 84.000007,
          "velocity": 0.5354330708661418
        },
        {
          "duration": 1.4307693500000056,
          "durationTicks": 744,
          "midi": 37,
          "name": "C#2",
          "ticks": 44160,
          "time": 84.92308399999999,
          "velocity": 1
        },
        {
          "duration": 0.10769231666667167,
          "durationTicks": 56,
          "midi": 42,
          "name": "F#2",
          "ticks": 44160,
          "time": 84.92308399999999,
          "velocity": 0.5354330708661418
        },
        {
          "duration": 0.2230769416666618,
          "durationTicks": 116,
          "midi": 42,
          "name": "F#2",
          "ticks": 44640,
          "time": 85.846161,
          "velocity": 0.5354330708661418
        },
        {
          "duration": 1.7846155333333371,
          "durationTicks": 928,
          "midi": 36,
          "name": "C2",
          "ticks": 45120,
          "time": 86.76923799999999,
          "velocity": 1
        },
        {
          "duration": 0.12307693333335123,
          "durationTicks": 64,
          "midi": 42,
          "name": "F#2",
          "ticks": 45120,
          "time": 86.76923799999999,
          "velocity": 0.5354330708661418
        },
        {
          "duration": 0.3538461833333457,
          "durationTicks": 184,
          "midi": 42,
          "name": "F#2",
          "ticks": 45600,
          "time": 87.692315,
          "velocity": 0.5354330708661418
        },
        {
          "duration": 1.3846155000000095,
          "durationTicks": 720,
          "midi": 37,
          "name": "C#2",
          "ticks": 46080,
          "time": 88.61539199999999,
          "velocity": 1
        },
        {
          "duration": 0.1692307833333473,
          "durationTicks": 88,
          "midi": 57,
          "name": "A3",
          "ticks": 46080,
          "time": 88.61539199999999,
          "velocity": 0.5196850393700787
        }
      ],
      "endOfTrackTicks": 59520
    }
  ]
}