{
  "header": {
    "keySignatures": [],
    "meta": [
      {
        "text": "#AUT#EvitaLMR@aol.com",
        "ticks": 0,
        "type": "text"
      }
    ],
    "name": "",
    "ppq": 192,
    "tempos": [
      {
        "bpm": 115.00002875000719,
        "ticks": 0
      }
    ],
    "timeSignatures": [
      {
        "ticks": 0,
        "timeSignature": [
          2,
          2
        ],
        "measures": 0
      }
    ]
  },
  "tracks": [
    {
      "channel": 0,
      "controlChanges": {
        "7": [
          {
            "number": 7,
            "ticks": 0,
            "time": 0,
            "value": 1
          }
        ]
      },
      "pitchBends": [],
      "instrument": {
        "family": "piano",
        "number": 0,
        "name": "acoustic grand piano"
      },
      "name": "\"In My Life\" by The Beatles",
      "notes": [],
      "endOfTrackTicks": 41952
    },
    {
      "channel": 0,
      "controlChanges": {},
      "pitchBends": [],
      "instrument": {
        "family": "guitar",
        "number": 26,
        "name": "acoustic guitar (nylon)"
      },
      "name": "",
      "notes": [
        {
          "duration": 0.521739,
          "durationTicks": 192,
          "midi": 71,
          "name": "B4",
          "ticks": 0,
          "time": 0,
          "velocity": 0.7480314960629921
        },
        {
          "duration": 1.043478,
          "durationTicks": 384,
          "midi": 43,
          "name": "G2",
          "ticks": 0,
          "time": 0,
          "velocity": 0.7480314960629921
        },
        {
          "duration": 0.521739,
          "durationTicks": 192,
          "midi": 79,
          "name": "G5",
          "ticks": 192,
          "time": 0.521739,
          "velocity": 0.7480314960629921
        },
        {
          "duration": 1.5652169999999999,
          "durationTicks": 576,
          "midi": 67,
          "name": "G4",
          "ticks": 192,
          "time": 0.521739,
          "velocity": 0.7480314960629921
        },
        {
          "duration": 0.7826085,
          "durationTicks": 288,
          "midi": 71,
          "name": "B4",
          "ticks": 192,
          "time": 0.521739,
          "velocity": 0.7480314960629921
        },
        {
          "duration": 1.043478,
          "durationTicks": 384,
          "midi": 71,
          "name": "B4",
          "ticks": 384,
          "time": 1.043478,
          "velocity": 0.7480314960629921
        },
        {
          "duration": 0.2608695000000001,
          "durationTicks": 96,
          "midi": 43,
          "name": "G2",
          "ticks": 384,
          "time": 1.043478,
          "velocity": 0.7480314960629921
        },
        {
          "duration": 0.26086949999999987,
          "durationTicks": 96,
          "midi": 72,
          "name": "C5",
          "ticks": 480,
          "time": 1.3043475,
          "velocity": 0.7480314960629921
        },
        {
          "duration": 0.26086949999999987,
          "durationTicks": 96,
          "midi": 47,
          "name": "B2",
          "ticks": 480,
          "time": 1.3043475,
          "velocity": 0.7480314960629921
        },
        {
          "duration": 0.26086949999999987,
          "durationTicks": 96,
          "midi": 74,
          "name": "D5",
          "ticks": 576,
          "time": 1.5652169999999999,
          "velocity": 0.7480314960629921
        },
        {
          "duration": 0.26086949999999987,
          "durationTicks": 96,
          "midi": 48,
          "name": "C3",
          "ticks": 576,
          "time": 1.5652169999999999,
          "velocity": 0.7480314960629921
        },
        {
          "duration": 2.3478255,
          "durationTicks": 864,
          "midi": 78,
          "name": "F#5",
          "ticks": 672,
          "time": 1.8260864999999997,
          "velocity": 0.7480314960629921
        },
        {
          "duration": 2.3478255,
          "durationTicks": 864,
          "midi": 74,
          "name": "D5",
          "ticks": 672,
          "time": 1.8260864999999997,
          "velocity": 0.7480314960629921
        },
        {
          "duration": 2.3478255,
          "durationTicks": 864,
          "midi": 69,
          "name": "A4",
          "ticks": 672,
          "time": 1.8260864999999997,
          "velocity": 0.7480314960629921
        },
        {
          "duration": 0.7826085000000003,
          "durationTicks": 288,
          "midi": 50,
          "name": "D3",
          "ticks": 672,
          "time": 1.8260864999999997,
          "velocity": 0.7480314960629921
        },
        {
          "duration": 0.5217389999999997,
          "durationTicks": 192,
          "midi": 50,
          "name": "D3",
          "ticks": 960,
          "time": 2.608695,
          "velocity": 0.7480314960629921
        },
        {
          "duration": 0.2608695000000001,
          "durationTicks": 96,
          "midi": 50,
          "name": "D3",
          "ticks": 1152,
          "time": 3.1304339999999997,
          "velocity": 0.7480314960629921
        },
        {
          "duration": 0.26086949999999964,
          "durationTicks": 96,
          "midi": 50,
          "name": "D3",
          "ticks": 1248,
          "time": 3.3913035,
          "velocity": 0.7480314960629921
        },
        {
          "duration": 0.2608695000000001,
          "durationTicks": 96,
          "midi": 54,
          "name": "F#3",
          "ticks": 1344,
          "time": 3.6521729999999994,
          "velocity": 0.7480314960629921
        },
        {
          "duration": 0.2608695000000001,
          "durationTicks": 96,
          "midi": 55,
          "name": "G3",
          "ticks": 1440,
          "time": 3.9130424999999995,
          "velocity": 0.7480314960629921
        },
        {
          "duration": 0.5217390000000002,
          "durationTicks": 192,
          "midi": 71,
          "name": "B4",
          "ticks": 1536,
          "time": 4.173912,
          "velocity": 0.7480314960629921
        },
        {
          "duration": 0.5217390000000002,
          "durationTicks": 192,
          "midi": 79,
          "name": "G5",
          "ticks": 1728,
          "time": 4.695651,
          "velocity": 0.7480314960629921
        },
        {
          "duration": 0.7826084999999994,
          "durationTicks": 288,
          "midi": 43,
          "name": "G2",
          "ticks": 1728,
          "time": 4.695651,
          "velocity": 0.7480314960629921
        },
        {
          "duration": 1.5652169999999996,
          "durationTicks": 576,
          "midi": 67,
          "name": "G4",
          "ticks": 1728,
          "time": 4.695651,
          "velocity": 0.7480314960629921
        },
        {
          "duration": 0.7826084999999994,
          "durationTicks": 288,
          "midi": 71,
          "name": "B4",
          "ticks": 1728,
          "time": 4.695651,
          "velocity": 0.7480314960629921
        },
        {
          "duration": 1.0434779999999995,
          "durationTicks": 384,
          "midi": 71,
          "name": "B4",
          "ticks": 1920,
          "time": 5.21739,
          "velocity": 0.7480314960629921
        },
        {
          "duration": 0.5217389999999993,
          "durationTicks": 192,
          "midi": 43,
          "name": "G2",
          "ticks": 1920,
          "time": 5.21739,
          "velocity": 0.7480314960629921
        },
        {
          "duration": 0.2608695000000001,
          "durationTicks": 96,
          "midi": 72,
          "name": "C5",
          "ticks": 2016,
          "time": 5.478259499999999,
          "velocity": 0.7480314960629921
        },
        {
          "duration": 0.2608695000000001,
          "durationTicks": 96,
          "midi": 47,
          "name": "B2",
          "ticks": 2016,
          "time": 5.478259499999999,
          "velocity": 0.7480314960629921
        },
        {
          "duration": 0.2608695000000001,
          "durationTicks": 96,
          "midi": 74,
          "name": "D5",
          "ticks": 2112,
          "time": 5.739128999999999,
          "velocity": 0.7480314960629921
        },
        {
          "duration": 0.2608695000000001,
          "durationTicks": 96,
          "midi": 48,
          "name": "C3",
          "ticks": 2112,
          "time": 5.739128999999999,
          "velocity": 0.7480314960629921
        },
        {
          "duration": 1.3043474999999995,
          "durationTicks": 480,
          "midi": 78,
          "name": "F#5",
          "ticks": 2208,
          "time": 5.999998499999999,
          "velocity": 0.7480314960629921
        },
        {
          "duration": 1.3043474999999995,
          "durationTicks": 480,
          "midi": 74,
          "name": "D5",
          "ticks": 2208,
          "time": 5.999998499999999,
          "velocity": 0.7480314960629921
        },
        {
          "duration": 1.3043474999999995,
          "durationTicks": 480,
          "midi": 69,
          "name": "A4",
          "ticks": 2208,
          "time": 5.999998499999999,
          "velocity": 0.7480314960629921
        },
        {
          "duration": 1.0434780000000003,
          "durationTicks": 384,
          "midi": 50,
          "name": "D3",
          "ticks": 2208,
          "time": 5.999998499999999,
          "velocity": 0.7480314960629921
        },
        {
          "duration": 0.2608694999999992,
          "durationTicks": 96,
          "midi": 50,
          "name": "D3",
          "ticks": 2592,
          "time": 7.0434765,
          "velocity": 0.7480314960629921
        },
        {
          "duration": 0.5217390000000002,
          "durationTicks": 192,
          "midi": 50,
          "name": "D3",
          "ticks": 2688,
          "time": 7.304345999999999,
          "velocity": 0.7480314960629921
        },
        {
          "duration": 0.2608695000000001,
          "durationTicks": 96,
          "midi": 62,
          "name": "D4",
          "ticks": 2880,
          "time": 7.826084999999999,
          "velocity": 0.7480314960629921
        },
        {
          "duration": 0.2608695000000001,
          "durationTicks": 96,
          "midi": 64,
          "name": "E4",
          "ticks": 2976,
          "time": 8.0869545,
          "velocity": 0.7480314960629921
        },
        {
          "duration": 0.5217390000000002,
          "durationTicks": 192,
          "midi": 69,
          "name": "A4",
          "ticks": 3072,
          "time": 8.347824,
          "velocity": 0.7480314960629921
        },
        {
          "duration": 0.7826085000000003,
          "durationTicks": 288,
          "midi": 43,
          "name": "G2",
          "ticks": 3072,
          "time": 8.347824,
          "velocity": 0.7480314960629921
        },
        {
          "duration": 0.2608695000000001,
          "durationTicks": 96,
          "midi": 62,
          "name": "D4",
          "ticks": 3264,
          "time": 8.869563,
          "velocity": 0.7480314960629921
        },
        {
          "duration": 0.2608695000000001,
          "durationTicks": 96,
          "midi": 59,
          "name": "B3",
          "ticks": 3264,
          "time": 8.869563,
          "velocity": 0.7480314960629921
        },
        {
          "duration": 0.5217390000000002,
          "durationTicks": 192,
          "midi": 67,
          "name": "G4",
          "ticks": 3264,
          "time": 8.869563,
          "velocity": 0.7480314960629921
        },
        {
          "duration": 0.2608695000000001,
          "durationTicks": 96,
          "midi": 62,
          "name": "D4",
          "ticks": 3360,
          "time": 9.1304325,
          "velocity": 0.7480314960629921
        },
        {
          "duration": 0.2608695000000001,
          "durationTicks": 96,
          "midi": 59,
          "name": "B3",
          "ticks": 3360,
          "time": 9.1304325,
          "velocity": 0.7480314960629921
        },
        {
          "duration": 0.2608695000000001,
          "durationTicks": 96,
          "midi": 43,
          "name": "G2",
          "ticks": 3360,
          "time": 9.1304325,
          "velocity": 0.7480314960629921
        },
        {
          "duration": 0.5217390000000002,
          "durationTicks": 192,
          "midi": 69,
          "name": "A4",
          "ticks": 3456,
          "time": 9.391302,
          "velocity": 0.7480314960629921
        },
        {
          "duration": 0.7826085000000003,
          "durationTicks": 288,
          "midi": 50,
          "name": "D3",
          "ticks": 3456,
          "time": 9.391302,
          "velocity": 0.7480314960629921
        },
        {
          "duration": 0.2608695000000001,
          "durationTicks": 96,
          "midi": 67,
          "name": "G4",
          "ticks": 3648,
          "time": 9.913041,
          "velocity": 0.7480314960629921
        },
        {
          "duration": 0.2608695000000001,
          "durationTicks": 96,
          "midi": 62,
          "name": "D4",
          "ticks": 3648,
          "time": 9.913041,
          "velocity": 0.7480314960629921
        },
        {
          "duration": 0.2608695000000001,
          "durationTicks": 96,
          "midi": 71,
          "name": "B4",
          "ticks": 3648,
          "time": 9.913041,
          "velocity": 0.7480314960629921
        },
        {
          "duration": 0.2608695000000001,
          "durationTicks": 96,
          "midi": 62,
          "name": "D4",
          "ticks": 3744,
          "time": 10.1739105,
          "velocity": 0.7480314960629921
        },
        {
          "duration": 0.2608695000000001,
          "durationTicks": 96,
          "midi": 67,
          "name": "G4",
          "ticks": 3744,
          "time": 10.1739105,
          "velocity": 0.7480314960629921
        },
        {
          "duration": 0.2608695000000001,
          "durationTicks": 96,
          "midi": 50,
          "name": "D3",
          "ticks": 3744,
          "time": 10.1739105,
          "velocity": 0.7480314960629921
        },
        {
          "duration": 0.2608694999999983,
          "durationTicks": 96,
          "midi": 74,
          "name": "D5",
          "ticks": 3840,
          "time": 10.43478,
          "velocity": 0.7480314960629921
        },
        {
          "duration": 0.2608694999999983,
          "durationTicks": 96,
          "midi": 67,
          "name": "G4",
          "ticks": 3840,
          "time": 10.43478,
          "velocity": 0.7480314960629921
        },
        {
          "duration": 0.2608694999999983,
          "durationTicks": 96,
          "midi": 64,
          "name": "E4",
          "ticks": 3840,
          "time": 10.43478,
          "velocity": 0.7480314960629921
        },
        {
          "duration": 0.7826084999999985,
          "durationTicks": 288,
          "midi": 52,
          "name": "E3",
          "ticks": 3840,
          "time": 10.43478,
          "velocity": 0.7480314960629921
        },
        {
          "duration": 0.2608695000000001,
          "durationTicks": 96,
          "midi": 67,
          "name": "G4",
          "ticks": 3936,
          "time": 10.695649499999998,
          "velocity": 0.7480314960629921
        },
        {
          "duration": 0.2608695000000001,
          "durationTicks": 96,
          "midi": 64,
          "name": "E4",
          "ticks": 3936,
          "time": 10.695649499999998,
          "velocity": 0.7480314960629921
        },
        {
          "duration": 1.3043475000000004,
          "durationTicks": 480,
          "midi": 71,
          "name": "B4",
          "ticks": 3936,
          "time": 10.695649499999998,
          "velocity": 0.7480314960629921
        },
        {
          "duration": 0.2608695000000001,
          "durationTicks": 96,
          "midi": 67,
          "name": "G4",
          "ticks": 4032,
          "time": 10.956518999999998,
          "velocity": 0.7480314960629921
        },
        {
          "duration": 0.2608695000000001,
          "durationTicks": 96,
          "midi": 64,
          "name": "E4",
          "ticks": 4032,
          "time": 10.956518999999998,
          "velocity": 0.7480314960629921
        },
        {
          "duration": 0.2608695000000001,
          "durationTicks": 96,
          "midi": 53,
          "name": "F3",
          "ticks": 4128,
          "time": 11.217388499999998,
          "velocity": 0.7480314960629921
        },
        {
          "duration": 0.5217390000000002,
          "durationTicks": 192,
          "midi": 62,
          "name": "D4",
          "ticks": 4128,
          "time": 11.217388499999998,
          "velocity": 0.7480314960629921
        },
        {
          "duration": 0.7826085000000003,
          "durationTicks": 288,
          "midi": 67,
          "name": "G4",
          "ticks": 4128,
          "time": 11.217388499999998,
          "velocity": 0.7480314960629921
        },
        {
          "duration": 0.5217390000000002,
          "durationTicks": 192,
          "midi": 53,
          "name": "F3",
          "ticks": 4224,
          "time": 11.478257999999999,
          "velocity": 0.7480314960629921
        },
        {
          "duration": 0.2608695000000001,
          "durationTicks": 96,
          "midi": 53,
          "name": "F3",
          "ticks": 4320,
          "time": 11.739127499999999,
          "velocity": 0.7480314960629921
        },
        {
          "duration": 0.2608695000000001,
          "durationTicks": 96,
          "midi": 69,
          "name": "A4",
          "ticks": 4320,
          "time": 11.739127499999999,
          "velocity": 0.7480314960629921
        },
        {
          "duration": 0.5217390000000002,
          "durationTicks": 192,
          "midi": 62,
          "name": "D4",
          "ticks": 4320,
          "time": 11.739127499999999,
          "velocity": 0.7480314960629921
        },
        {
          "duration": 0.5217390000000002,
          "durationTicks": 192,
          "midi": 59,
          "name": "B3",
          "ticks": 4320,
          "time": 11.739127499999999,
          "velocity": 0.7480314960629921
        },
        {
          "duration": 0.2608695000000001,
          "durationTicks": 96,
          "midi": 71,
          "name": "B4",
          "ticks": 4416,
          "time": 11.999996999999999,
          "velocity": 0.7480314960629921
        },
        {
          "duration": 0.2608695000000001,
          "durationTicks": 96,
          "midi": 55,
          "name": "G3",
          "ticks": 4416,
          "time": 11.999996999999999,
          "velocity": 0.7480314960629921
        },
        {
          "duration": 0.5217390000000002,
          "durationTicks": 192,
          "midi": 69,
          "name": "A4",
          "ticks": 4512,
          "time": 12.260866499999999,
          "velocity": 0.7480314960629921
        },
        {
          "duration": 0.7826085000000003,
          "durationTicks": 288,
          "midi": 48,
          "name": "C3",
          "ticks": 4512,
          "time": 12.260866499999999,
          "velocity": 0.7480314960629921
        },
        {
          "duration": 0.2608695000000001,
          "durationTicks": 96,
          "midi": 69,
          "name": "A4",
          "ticks": 4704,
          "time": 12.782605499999999,
          "velocity": 0.7480314960629921
        },
        {
          "duration": 0.5217390000000002,
          "durationTicks": 192,
          "midi": 64,
          "name": "E4",
          "ticks": 4704,
          "time": 12.782605499999999,
          "velocity": 0.7480314960629921
        },
        {
          "duration": 0.5217390000000002,
          "durationTicks": 192,
          "midi": 60,
          "name": "C4",
          "ticks": 4704,
          "time": 12.782605499999999,
          "velocity": 0.7480314960629921
        },
        {
          "duration": 0.13043474999999916,
          "durationTicks": 48,
          "midi": 71,
          "name": "B4",
          "ticks": 4800,
          "time": 13.043474999999999,
          "velocity": 0.7480314960629921
        },
        {
          "duration": 0.2608695000000001,
          "durationTicks": 96,
          "midi": 48,
          "name": "C3",
          "ticks": 4800,
          "time": 13.043474999999999,
          "velocity": 0.7480314960629921
        },
        {
          "duration": 0.13043475000000093,
          "durationTicks": 48,
          "midi": 69,
          "name": "A4",
          "ticks": 4848,
          "time": 13.173909749999998,
          "velocity": 0.7480314960629921
        },
        {
          "duration": 0.7826085000000003,
          "durationTicks": 288,
          "midi": 67,
          "name": "G4",
          "ticks": 4896,
          "time": 13.3043445,
          "velocity": 0.7480314960629921
        },
        {
          "duration": 0.7826085000000003,
          "durationTicks": 288,
          "midi": 48,
          "name": "C3",
          "ticks": 4896,
          "time": 13.3043445,
          "velocity": 0.7480314960629921
        },
        {
          "duration": 0.2608695000000001,
          "durationTicks": 96,
          "midi": 63,
          "name": "D#4",
          "ticks": 5088,
          "time": 13.8260835,
          "velocity": 0.7480314960629921
        },
        {
          "duration": 0.2608695000000001,
          "durationTicks": 96,
          "midi": 60,
          "name": "C4",
          "ticks": 5088,
          "time": 13.8260835,
          "velocity": 0.7480314960629921
        },
        {
          "duration": 0.2608695000000001,
          "durationTicks": 96,
          "midi": 60,
          "name": "C4",
          "ticks": 5184,
          "time": 14.086953,
          "velocity": 0.7480314960629921
        },
        {
          "duration": 0.2608695000000001,
          "durationTicks": 96,
          "midi": 63,
          "name": "D#4",
          "ticks": 5184,
          "time": 14.086953,
          "velocity": 0.7480314960629921
        },
        {
          "duration": 0.2608695000000001,
          "durationTicks": 96,
          "midi": 48,
          "name": "C3",
          "ticks": 5184,
          "time": 14.086953,
          "velocity": 0.7480314960629921
        },
        {
          "duration": 0.2608694999999983,
          "durationTicks": 96,
          "midi": 62,
          "name": "D4",
          "ticks": 5280,
          "time": 14.3478225,
          "velocity": 0.7480314960629921
        },
        {
          "duration": 0.2608694999999983,
          "durationTicks": 96,
          "midi": 59,
          "name": "B3",
          "ticks": 5280,
          "time": 14.3478225,
          "velocity": 0.7480314960629921
        },
        {
          "duration": 0.7826084999999985,
          "durationTicks": 288,
          "midi": 43,
          "name": "G2",
          "ticks": 5280,
          "time": 14.3478225,
          "velocity": 0.7480314960629921
        },
        {
          "duration": 0.5217390000000002,
          "durationTicks": 192,
          "midi": 71,
          "name": "B4",
          "ticks": 5376,
          "time": 14.608691999999998,
          "velocity": 0.7480314960629921
        },
        {
          "duration": 0.5217390000000002,
          "durationTicks": 192,
          "midi": 62,
          "name": "D4",
          "ticks": 5376,
          "time": 14.608691999999998,
          "velocity": 0.7480314960629921
        },
        {
          "duration": 0.5217390000000002,
          "durationTicks": 192,
          "midi": 67,
          "name": "G4",
          "ticks": 5376,
          "time": 14.608691999999998,
          "velocity": 0.7480314960629921
        },
        {
          "duration": 0.7826085000000003,
          "durationTicks": 288,
          "midi": 71,
          "name": "B4",
          "ticks": 5568,
          "time": 15.130430999999998,
          "velocity": 0.7480314960629921
        },
        {
          "duration": 0.7826085000000003,
          "durationTicks": 288,
          "midi": 62,
          "name": "D4",
          "ticks": 5568,
          "time": 15.130430999999998,
          "velocity": 0.7480314960629921
        },
        {
          "duration": 0.7826085000000003,
          "durationTicks": 288,
          "midi": 67,
          "name": "G4",
          "ticks": 5568,
          "time": 15.130430999999998,
          "velocity": 0.7480314960629921
        },
        {
          "duration": 0.7826085000000003,
          "durationTicks": 288,
          "midi": 43,
          "name": "G2",
          "ticks": 5568,
          "time": 15.130430999999998,
          "velocity": 0.7480314960629921
        },
        {
          "duration": 0.2608695000000001,
          "durationTicks": 96,
          "midi": 62,
          "name": "D4",
          "ticks": 5856,
          "time": 15.913039499999998,
          "velocity": 0.7480314960629921
        },
        {
          "duration": 0.521739000000002,
          "durationTicks": 192,
          "midi": 59,
          "name": "B3",
          "ticks": 5856,
          "time": 15.913039499999998,
          "velocity": 0.7480314960629921
        },
        {
          "duration": 0.26086950000000186,
          "durationTicks": 96,
          "midi": 64,
          "name": "E4",
          "ticks": 5952,
          "time": 16.173909,
          "velocity": 0.7480314960629921
        },
        {
          "duration": 0.5217389999999966,
          "durationTicks": 192,
          "midi": 69,
          "name": "A4",
          "ticks": 6048,
          "time": 16.4347785,
          "velocity": 0.7480314960629921
        },
        {
          "duration": 0.7826084999999985,
          "durationTicks": 288,
          "midi": 43,
          "name": "G2",
          "ticks": 6048,
          "time": 16.4347785,
          "velocity": 0.7480314960629921
        },
        {
          "duration": 0.26086950000000186,
          "durationTicks": 96,
          "midi": 62,
          "name": "D4",
          "ticks": 6240,
          "time": 16.956517499999997,
          "velocity": 0.7480314960629921
        },
        {
          "duration": 0.26086950000000186,
          "durationTicks": 96,
          "midi": 59,
          "name": "B3",
          "ticks": 6240,
          "time": 16.956517499999997,
          "velocity": 0.7480314960629921
        },
        {
          "duration": 0.5217390000000002,
          "durationTicks": 192,
          "midi": 67,
          "name": "G4",
          "ticks": 6240,
          "time": 16.956517499999997,
          "velocity": 0.7480314960629921
        },
        {
          "duration": 0.2608694999999983,
          "durationTicks": 96,
          "midi": 62,
          "name": "D4",
          "ticks": 6336,
          "time": 17.217387,
          "velocity": 0.7480314960629921
        },
        {
          "duration": 0.2608694999999983,
          "durationTicks": 96,
          "midi": 59,
          "name": "B3",
          "ticks": 6336,
          "time": 17.217387,
          "velocity": 0.7480314960629921
        },
        {
          "duration": 0.2608694999999983,
          "durationTicks": 96,
          "midi": 43,
          "name": "G2",
          "ticks": 6336,
          "time": 17.217387,
          "velocity": 0.7480314960629921
        },
        {
          "duration": 0.5217390000000002,
          "durationTicks": 192,
          "midi": 69,
          "name": "A4",
          "ticks": 6432,
          "time": 17.478256499999997,
          "velocity": 0.7480314960629921
        },
        {
          "duration": 0.782608500000002,
          "durationTicks": 288,
          "midi": 50,
          "name": "D3",
          "ticks": 6432,
          "time": 17.478256499999997,
          "velocity": 0.7480314960629921
        },
        {
          "duration": 0.26086950000000186,
          "durationTicks": 96,
          "midi": 67,
          "name": "G4",
          "ticks": 6624,
          "time": 17.999995499999997,
          "velocity": 0.7480314960629921
        },
        {
          "duration": 0.26086950000000186,
          "durationTicks": 96,
          "midi": 62,
          "name": "D4",
          "ticks": 6624,
          "time": 17.999995499999997,
          "velocity": 0.7480314960629921
        },
        {
          "duration": 0.5217390000000002,
          "durationTicks": 192,
          "midi": 71,
          "name": "B4",
          "ticks": 6624,
          "time": 17.999995499999997,
          "velocity": 0.7480314960629921
        },
        {
          "duration": 0.2608694999999983,
          "durationTicks": 96,
          "midi": 62,
          "name": "D4",
          "ticks": 6720,
          "time": 18.260865,
          "velocity": 0.7480314960629921
        },
        {
          "duration": 0.2608694999999983,
          "durationTicks": 96,
          "midi": 67,
          "name": "G4",
          "ticks": 6720,
          "time": 18.260865,
          "velocity": 0.7480314960629921
        },
        {
          "duration": 0.2608694999999983,
          "durationTicks": 96,
          "midi": 50,
          "name": "D3",
          "ticks": 6720,
          "time": 18.260865,
          "velocity": 0.7480314960629921
        },
        {
          "duration": 0.26086950000000186,
          "durationTicks": 96,
          "midi": 74,
          "name": "D5",
          "ticks": 6816,
          "time": 18.521734499999997,
          "velocity": 0.7480314960629921
        },
        {
          "duration": 0.5217390000000002,
          "durationTicks": 192,
          "midi": 52,
          "name": "E3",
          "ticks": 6816,
          "time": 18.521734499999997,
          "velocity": 0.7480314960629921
        },
        {
          "duration": 0.2608694999999983,
          "durationTicks": 96,
          "midi": 67,
          "name": "G4",
          "ticks": 6912,
          "time": 18.782604,
          "velocity": 0.7480314960629921
        },
        {
          "duration": 0.2608694999999983,
          "durationTicks": 96,
          "midi": 62,
          "name": "D4",
          "ticks": 6912,
          "time": 18.782604,
          "velocity": 0.7480314960629921
        },
        {
          "duration": 1.3043474999999987,
          "durationTicks": 480,
          "midi": 71,
          "name": "B4",
          "ticks": 6912,
          "time": 18.782604,
          "velocity": 0.7480314960629921
        },
        {
          "duration": 0.26086950000000186,
          "durationTicks": 96,
          "midi": 67,
          "name": "G4",
          "ticks": 7008,
          "time": 19.043473499999998,
          "velocity": 0.7480314960629921
        },
        {
          "duration": 0.26086950000000186,
          "durationTicks": 96,
          "midi": 52,
          "name": "E3",
          "ticks": 7008,
          "time": 19.043473499999998,
          "velocity": 0.7480314960629921
        },
        {
          "duration": 0.26086950000000186,
          "durationTicks": 96,
          "midi": 62,
          "name": "D4",
          "ticks": 7008,
          "time": 19.043473499999998,
          "velocity": 0.7480314960629921
        },
        {
          "duration": 0.2608694999999983,
          "durationTicks": 96,
          "midi": 62,
          "name": "D4",
          "ticks": 7104,
          "time": 19.304343,
          "velocity": 0.7480314960629921
        },
        {
          "duration": 0.2608694999999983,
          "durationTicks": 96,
          "midi": 67,
          "name": "G4",
          "ticks": 7104,
          "time": 19.304343,
          "velocity": 0.7480314960629921
        },
        {
          "duration": 0.2608694999999983,
          "durationTicks": 96,
          "midi": 55,
          "name": "G3",
          "ticks": 7104,
          "time": 19.304343,
          "velocity": 0.7480314960629921
        },
        {
          "duration": 0.782608500000002,
          "durationTicks": 288,
          "midi": 53,
          "name": "F3",
          "ticks": 7200,
          "time": 19.565212499999998,
          "velocity": 0.7480314960629921
        },
        {
          "duration": 1.0434780000000003,
          "durationTicks": 384,
          "midi": 67,
          "name": "G4",
          "ticks": 7200,
          "time": 19.565212499999998,
          "velocity": 0.7480314960629921
        },
        {
          "duration": 1.0434780000000003,
          "durationTicks": 384,
          "midi": 62,
          "name": "D4",
          "ticks": 7200,
          "time": 19.565212499999998,
          "velocity": 0.7480314960629921
        },
        {
          "duration": 0.26086950000000186,
          "durationTicks": 96,
          "midi": 69,
          "name": "A4",
          "ticks": 7392,
          "time": 20.086951499999998,
          "velocity": 0.7480314960629921
        },
        {
          "duration": 0.2608694999999983,
          "durationTicks": 96,
          "midi": 71,
          "name": "B4",
          "ticks": 7488,
          "time": 20.347821,
          "velocity": 0.7480314960629921
        },
        {
          "duration": 0.2608694999999983,
          "durationTicks": 96,
          "midi": 55,
          "name": "G3",
          "ticks": 7488,
          "time": 20.347821,
          "velocity": 0.7480314960629921
        },
        {
          "duration": 0.7826084999999985,
          "durationTicks": 288,
          "midi": 69,
          "name": "A4",
          "ticks": 7584,
          "time": 20.608690499999998,
          "velocity": 0.7480314960629921
        },
        {
          "duration": 0.7826084999999985,
          "durationTicks": 288,
          "midi": 48,
          "name": "C3",
          "ticks": 7584,
          "time": 20.608690499999998,
          "velocity": 0.7480314960629921
        },
        {
          "duration": 0.5217390000000002,
          "durationTicks": 192,
          "midi": 64,
          "name": "E4",
          "ticks": 7776,
          "time": 21.130429499999998,
          "velocity": 0.7480314960629921
        },
        {
          "duration": 0.5217390000000002,
          "durationTicks": 192,
          "midi": 60,
          "name": "C4",
          "ticks": 7776,
          "time": 21.130429499999998,
          "velocity": 0.7480314960629921
        },
        {
          "duration": 0.1304347500000027,
          "durationTicks": 48,
          "midi": 71,
          "name": "B4",
          "ticks": 7872,
          "time": 21.391298999999997,
          "velocity": 0.7480314960629921
        },
        {
          "duration": 0.26086950000000186,
          "durationTicks": 96,
          "midi": 48,
          "name": "C3",
          "ticks": 7872,
          "time": 21.391298999999997,
          "velocity": 0.7480314960629921
        },
        {
          "duration": 0.13043474999999916,
          "durationTicks": 48,
          "midi": 69,
          "name": "A4",
          "ticks": 7920,
          "time": 21.52173375,
          "velocity": 0.7480314960629921
        },
        {
          "duration": 0.7826084999999985,
          "durationTicks": 288,
          "midi": 67,
          "name": "G4",
          "ticks": 7968,
          "time": 21.6521685,
          "velocity": 0.7480314960629921
        },
        {
          "duration": 0.7826084999999985,
          "durationTicks": 288,
          "midi": 48,
          "name": "C3",
          "ticks": 7968,
          "time": 21.6521685,
          "velocity": 0.7480314960629921
        },
        {
          "duration": 0.2608694999999983,
          "durationTicks": 96,
          "midi": 63,
          "name": "D#4",
          "ticks": 8160,
          "time": 22.1739075,
          "velocity": 0.7480314960629921
        },
        {
          "duration": 0.2608694999999983,
          "durationTicks": 96,
          "midi": 60,
          "name": "C4",
          "ticks": 8160,
          "time": 22.1739075,
          "velocity": 0.7480314960629921
        },
        {
          "duration": 0.26086950000000186,
          "durationTicks": 96,
          "midi": 60,
          "name": "C4",
          "ticks": 8256,
          "time": 22.434776999999997,
          "velocity": 0.7480314960629921
        },
        {
          "duration": 0.26086950000000186,
          "durationTicks": 96,
          "midi": 63,
          "name": "D#4",
          "ticks": 8256,
          "time": 22.434776999999997,
          "velocity": 0.7480314960629921
        },
        {
          "duration": 0.26086950000000186,
          "durationTicks": 96,
          "midi": 48,
          "name": "C3",
          "ticks": 8256,
          "time": 22.434776999999997,
          "velocity": 0.7480314960629921
        },
        {
          "duration": 0.2608694999999983,
          "durationTicks": 96,
          "midi": 62,
          "name": "D4",
          "ticks": 8352,
          "time": 22.6956465,
          "velocity": 0.7480314960629921
        },
        {
          "duration": 0.2608694999999983,
          "durationTicks": 96,
          "midi": 59,
          "name": "B3",
          "ticks": 8352,
          "time": 22.6956465,
          "velocity": 0.7480314960629921
        },
        {
          "duration": 0.7826084999999985,
          "durationTicks": 288,
          "midi": 43,
          "name": "G2",
          "ticks": 8352,
          "time": 22.6956465,
          "velocity": 0.7480314960629921
        },
        {
          "duration": 0.5217390000000002,
          "durationTicks": 192,
          "midi": 71,
          "name": "B4",
          "ticks": 8448,
          "time": 22.956515999999997,
          "velocity": 0.7480314960629921
        },
        {
          "duration": 0.5217390000000002,
          "durationTicks": 192,
          "midi": 62,
          "name": "D4",
          "ticks": 8448,
          "time": 22.956515999999997,
          "velocity": 0.7480314960629921
        },
        {
          "duration": 0.5217390000000002,
          "durationTicks": 192,
          "midi": 67,
          "name": "G4",
          "ticks": 8448,
          "time": 22.956515999999997,
          "velocity": 0.7480314960629921
        },
        {
          "duration": 0.782608500000002,
          "durationTicks": 288,
          "midi": 71,
          "name": "B4",
          "ticks": 8640,
          "time": 23.478254999999997,
          "velocity": 0.7480314960629921
        },
        {
          "duration": 0.782608500000002,
          "durationTicks": 288,
          "midi": 62,
          "name": "D4",
          "ticks": 8640,
          "time": 23.478254999999997,
          "velocity": 0.7480314960629921
        },
        {
          "duration": 0.782608500000002,
          "durationTicks": 288,
          "midi": 67,
          "name": "G4",
          "ticks": 8640,
          "time": 23.478254999999997,
          "velocity": 0.7480314960629921
        },
        {
          "duration": 0.782608500000002,
          "durationTicks": 288,
          "midi": 43,
          "name": "G2",
          "ticks": 8640,
          "time": 23.478254999999997,
          "velocity": 0.7480314960629921
        },
        {
          "duration": 0.2608694999999983,
          "durationTicks": 96,
          "midi": 43,
          "name": "G2",
          "ticks": 8928,
          "time": 24.2608635,
          "velocity": 0.7480314960629921
        },
        {
          "duration": 0.2608694999999983,
          "durationTicks": 96,
          "midi": 67,
          "name": "G4",
          "ticks": 8928,
          "time": 24.2608635,
          "velocity": 0.7480314960629921
        },
        {
          "duration": 0.5217390000000002,
          "durationTicks": 192,
          "midi": 59,
          "name": "B3",
          "ticks": 8928,
          "time": 24.2608635,
          "velocity": 0.7480314960629921
        },
        {
          "duration": 0.5217390000000002,
          "durationTicks": 192,
          "midi": 62,
          "name": "D4",
          "ticks": 8928,
          "time": 24.2608635,
          "velocity": 0.7480314960629921
        },
        {
          "duration": 0.26086950000000186,
          "durationTicks": 96,
          "midi": 42,
          "name": "F#2",
          "ticks": 9024,
          "time": 24.521732999999998,
          "velocity": 0.7480314960629921
        },
        {
          "duration": 0.26086950000000186,
          "durationTicks": 96,
          "midi": 69,
          "name": "A4",
          "ticks": 9024,
          "time": 24.521732999999998,
          "velocity": 0.7480314960629921
        },
        {
          "duration": 0.2608694999999983,
          "durationTicks": 96,
          "midi": 71,
          "name": "B4",
          "ticks": 9120,
          "time": 24.7826025,
          "velocity": 0.7480314960629921
        },
        {
          "duration": 0.2608694999999983,
          "durationTicks": 96,
          "midi": 66,
          "name": "F#4",
          "ticks": 9120,
          "time": 24.7826025,
          "velocity": 0.7480314960629921
        },
        {
          "duration": 0.5217389999999966,
          "durationTicks": 192,
          "midi": 62,
          "name": "D4",
          "ticks": 9120,
          "time": 24.7826025,
          "velocity": 0.7480314960629921
        },
        {
          "duration": 0.7826084999999985,
          "durationTicks": 288,
          "midi": 40,
          "name": "E2",
          "ticks": 9120,
          "time": 24.7826025,
          "velocity": 0.7480314960629921
        },
        {
          "duration": 0.2608694999999983,
          "durationTicks": 96,
          "midi": 69,
          "name": "A4",
          "ticks": 9216,
          "time": 25.043471999999998,
          "velocity": 0.7480314960629921
        },
        {
          "duration": 0.2608694999999983,
          "durationTicks": 96,
          "midi": 64,
          "name": "E4",
          "ticks": 9216,
          "time": 25.043471999999998,
          "velocity": 0.7480314960629921
        },
        {
          "duration": 0.26086950000000186,
          "durationTicks": 96,
          "midi": 69,
          "name": "A4",
          "ticks": 9312,
          "time": 25.304341499999996,
          "velocity": 0.7480314960629921
        },
        {
          "duration": 0.26086950000000186,
          "durationTicks": 96,
          "midi": 64,
          "name": "E4",
          "ticks": 9312,
          "time": 25.304341499999996,
          "velocity": 0.7480314960629921
        },
        {
          "duration": 0.5217390000000002,
          "durationTicks": 192,
          "midi": 59,
          "name": "B3",
          "ticks": 9312,
          "time": 25.304341499999996,
          "velocity": 0.7480314960629921
        },
        {
          "duration": 0.2608694999999983,
          "durationTicks": 96,
          "midi": 67,
          "name": "G4",
          "ticks": 9408,
          "time": 25.565210999999998,
          "velocity": 0.7480314960629921
        },
        {
          "duration": 0.2608694999999983,
          "durationTicks": 96,
          "midi": 62,
          "name": "D4",
          "ticks": 9408,
          "time": 25.565210999999998,
          "velocity": 0.7480314960629921
        },
        {
          "duration": 0.2608694999999983,
          "durationTicks": 96,
          "midi": 40,
          "name": "E2",
          "ticks": 9408,
          "time": 25.565210999999998,
          "velocity": 0.7480314960629921
        },
        {
          "duration": 0.26086950000000186,
          "durationTicks": 96,
          "midi": 67,
          "name": "G4",
          "ticks": 9504,
          "time": 25.826080499999996,
          "velocity": 0.7480314960629921
        },
        {
          "duration": 0.26086950000000186,
          "durationTicks": 96,
          "midi": 62,
          "name": "D4",
          "ticks": 9504,
          "time": 25.826080499999996,
          "velocity": 0.7480314960629921
        },
        {
          "duration": 0.5217390000000002,
          "durationTicks": 192,
          "midi": 55,
          "name": "G3",
          "ticks": 9504,
          "time": 25.826080499999996,
          "velocity": 0.7480314960629921
        },
        {
          "duration": 1.0434780000000003,
          "durationTicks": 384,
          "midi": 40,
          "name": "E2",
          "ticks": 9504,
          "time": 25.826080499999996,
          "velocity": 0.7480314960629921
        },
        {
          "duration": 0.2608694999999983,
          "durationTicks": 96,
          "midi": 64,
          "name": "E4",
          "ticks": 9600,
          "time": 26.086949999999998,
          "velocity": 0.7480314960629921
        },
        {
          "duration": 0.2608694999999983,
          "durationTicks": 96,
          "midi": 59,
          "name": "B3",
          "ticks": 9600,
          "time": 26.086949999999998,
          "velocity": 0.7480314960629921
        },
        {
          "duration": 0.26086950000000186,
          "durationTicks": 96,
          "midi": 64,
          "name": "E4",
          "ticks": 9696,
          "time": 26.347819499999996,
          "velocity": 0.7480314960629921
        },
        {
          "duration": 0.26086950000000186,
          "durationTicks": 96,
          "midi": 59,
          "name": "B3",
          "ticks": 9696,
          "time": 26.347819499999996,
          "velocity": 0.7480314960629921
        },
        {
          "duration": 0.26086950000000186,
          "durationTicks": 96,
          "midi": 55,
          "name": "G3",
          "ticks": 9696,
          "time": 26.347819499999996,
          "velocity": 0.7480314960629921
        },
        {
          "duration": 0.2608694999999983,
          "durationTicks": 96,
          "midi": 67,
          "name": "G4",
          "ticks": 9792,
          "time": 26.608689,
          "velocity": 0.7480314960629921
        },
        {
          "duration": 0.2608694999999983,
          "durationTicks": 96,
          "midi": 62,
          "name": "D4",
          "ticks": 9792,
          "time": 26.608689,
          "velocity": 0.7480314960629921
        },
        {
          "duration": 0.2608694999999983,
          "durationTicks": 96,
          "midi": 59,
          "name": "B3",
          "ticks": 9792,
          "time": 26.608689,
          "velocity": 0.7480314960629921
        },
        {
          "duration": 0.26086950000000186,
          "durationTicks": 96,
          "midi": 64,
          "name": "E4",
          "ticks": 9888,
          "time": 26.869558499999997,
          "velocity": 0.7480314960629921
        },
        {
          "duration": 0.26086950000000186,
          "durationTicks": 96,
          "midi": 60,
          "name": "C4",
          "ticks": 9888,
          "time": 26.869558499999997,
          "velocity": 0.7480314960629921
        },
        {
          "duration": 0.26086950000000186,
          "durationTicks": 96,
          "midi": 71,
          "name": "B4",
          "ticks": 9888,
          "time": 26.869558499999997,
          "velocity": 0.7480314960629921
        },
        {
          "duration": 0.782608500000002,
          "durationTicks": 288,
          "midi": 48,
          "name": "C3",
          "ticks": 9888,
          "time": 26.869558499999997,
          "velocity": 0.7480314960629921
        },
        {
          "duration": 0.2608694999999983,
          "durationTicks": 96,
          "midi": 64,
          "name": "E4",
          "ticks": 9984,
          "time": 27.130428,
          "velocity": 0.7480314960629921
        },
        {
          "duration": 0.2608694999999983,
          "durationTicks": 96,
          "midi": 60,
          "name": "C4",
          "ticks": 9984,
          "time": 27.130428,
          "velocity": 0.7480314960629921
        },
        {
          "duration": 0.7826084999999985,
          "durationTicks": 288,
          "midi": 69,
          "name": "A4",
          "ticks": 9984,
          "time": 27.130428,
          "velocity": 0.7480314960629921
        },
        {
          "duration": 0.26086950000000186,
          "durationTicks": 96,
          "midi": 64,
          "name": "E4",
          "ticks": 10080,
          "time": 27.391297499999997,
          "velocity": 0.7480314960629921
        },
        {
          "duration": 0.26086950000000186,
          "durationTicks": 96,
          "midi": 60,
          "name": "C4",
          "ticks": 10080,
          "time": 27.391297499999997,
          "velocity": 0.7480314960629921
        },
        {
          "duration": 0.2608694999999983,
          "durationTicks": 96,
          "midi": 64,
          "name": "E4",
          "ticks": 10176,
          "time": 27.652167,
          "velocity": 0.7480314960629921
        },
        {
          "duration": 0.2608694999999983,
          "durationTicks": 96,
          "midi": 60,
          "name": "C4",
          "ticks": 10176,
          "time": 27.652167,
          "velocity": 0.7480314960629921
        },
        {
          "duration": 0.2608694999999983,
          "durationTicks": 96,
          "midi": 48,
          "name": "C3",
          "ticks": 10176,
          "time": 27.652167,
          "velocity": 0.7480314960629921
        },
        {
          "duration": 0.26086950000000186,
          "durationTicks": 96,
          "midi": 64,
          "name": "E4",
          "ticks": 10272,
          "time": 27.913036499999997,
          "velocity": 0.7480314960629921
        },
        {
          "duration": 0.26086950000000186,
          "durationTicks": 96,
          "midi": 60,
          "name": "C4",
          "ticks": 10272,
          "time": 27.913036499999997,
          "velocity": 0.7480314960629921
        },
        {
          "duration": 0.5217390000000002,
          "durationTicks": 192,
          "midi": 48,
          "name": "C3",
          "ticks": 10272,
          "time": 27.913036499999997,
          "velocity": 0.7480314960629921
        },
        {
          "duration": 0.2608694999999983,
          "durationTicks": 96,
          "midi": 64,
          "name": "E4",
          "ticks": 10368,
          "time": 28.173906,
          "velocity": 0.7480314960629921
        },
        {
          "duration": 0.2608694999999983,
          "durationTicks": 96,
          "midi": 60,
          "name": "C4",
          "ticks": 10368,
          "time": 28.173906,
          "velocity": 0.7480314960629921
        },
        {
          "duration": 0.26086950000000186,
          "durationTicks": 96,
          "midi": 67,
          "name": "G4",
          "ticks": 10464,
          "time": 28.434775499999997,
          "velocity": 0.7480314960629921
        },
        {
          "duration": 0.26086950000000186,
          "durationTicks": 96,
          "midi": 48,
          "name": "C3",
          "ticks": 10464,
          "time": 28.434775499999997,
          "velocity": 0.7480314960629921
        },
        {
          "duration": 0.5217390000000002,
          "durationTicks": 192,
          "midi": 64,
          "name": "E4",
          "ticks": 10464,
          "time": 28.434775499999997,
          "velocity": 0.7480314960629921
        },
        {
          "duration": 0.5217390000000002,
          "durationTicks": 192,
          "midi": 60,
          "name": "C4",
          "ticks": 10464,
          "time": 28.434775499999997,
          "velocity": 0.7480314960629921
        },
        {
          "duration": 0.2608694999999983,
          "durationTicks": 96,
          "midi": 71,
          "name": "B4",
          "ticks": 10560,
          "time": 28.695645,
          "velocity": 0.7480314960629921
        },
        {
          "duration": 0.2608694999999983,
          "durationTicks": 96,
          "midi": 50,
          "name": "D3",
          "ticks": 10560,
          "time": 28.695645,
          "velocity": 0.7480314960629921
        },
        {
          "duration": 0.2608694999999983,
          "durationTicks": 96,
          "midi": 72,
          "name": "C5",
          "ticks": 10656,
          "time": 28.956514499999997,
          "velocity": 0.7480314960629921
        },
        {
          "duration": 0.7826084999999985,
          "durationTicks": 288,
          "midi": 60,
          "name": "C4",
          "ticks": 10656,
          "time": 28.956514499999997,
          "velocity": 0.7480314960629921
        },
        {
          "duration": 0.7826084999999985,
          "durationTicks": 288,
          "midi": 41,
          "name": "F2",
          "ticks": 10656,
          "time": 28.956514499999997,
          "velocity": 0.7480314960629921
        },
        {
          "duration": 0.7826084999999985,
          "durationTicks": 288,
          "midi": 65,
          "name": "F4",
          "ticks": 10656,
          "time": 28.956514499999997,
          "velocity": 0.7480314960629921
        },
        {
          "duration": 0.26086950000000186,
          "durationTicks": 96,
          "midi": 71,
          "name": "B4",
          "ticks": 10752,
          "time": 29.217383999999996,
          "velocity": 0.7480314960629921
        },
        {
          "duration": 0.2608694999999983,
          "durationTicks": 96,
          "midi": 69,
          "name": "A4",
          "ticks": 10848,
          "time": 29.478253499999997,
          "velocity": 0.7480314960629921
        },
        {
          "duration": 0.782608500000002,
          "durationTicks": 288,
          "midi": 67,
          "name": "G4",
          "ticks": 10944,
          "time": 29.739122999999996,
          "velocity": 0.7480314960629921
        },
        {
          "duration": 0.5217390000000002,
          "durationTicks": 192,
          "midi": 60,
          "name": "C4",
          "ticks": 10944,
          "time": 29.739122999999996,
          "velocity": 0.7480314960629921
        },
        {
          "duration": 0.5217390000000002,
          "durationTicks": 192,
          "midi": 57,
          "name": "A3",
          "ticks": 10944,
          "time": 29.739122999999996,
          "velocity": 0.7480314960629921
        },
        {
          "duration": 0.26086950000000186,
          "durationTicks": 96,
          "midi": 41,
          "name": "F2",
          "ticks": 10944,
          "time": 29.739122999999996,
          "velocity": 0.7480314960629921
        },
        {
          "duration": 0.7826084999999985,
          "durationTicks": 288,
          "midi": 41,
          "name": "F2",
          "ticks": 11040,
          "time": 29.999992499999998,
          "velocity": 0.7480314960629921
        },
        {
          "duration": 0.26086950000000186,
          "durationTicks": 96,
          "midi": 60,
          "name": "C4",
          "ticks": 11136,
          "time": 30.260861999999996,
          "velocity": 0.7480314960629921
        },
        {
          "duration": 0.26086950000000186,
          "durationTicks": 96,
          "midi": 57,
          "name": "A3",
          "ticks": 11136,
          "time": 30.260861999999996,
          "velocity": 0.7480314960629921
        },
        {
          "duration": 0.2608694999999983,
          "durationTicks": 96,
          "midi": 60,
          "name": "C4",
          "ticks": 11232,
          "time": 30.521731499999998,
          "velocity": 0.7480314960629921
        },
        {
          "duration": 0.2608694999999983,
          "durationTicks": 96,
          "midi": 57,
          "name": "A3",
          "ticks": 11232,
          "time": 30.521731499999998,
          "velocity": 0.7480314960629921
        },
        {
          "duration": 0.26086950000000186,
          "durationTicks": 96,
          "midi": 60,
          "name": "C4",
          "ticks": 11328,
          "time": 30.782600999999996,
          "velocity": 0.7480314960629921
        },
        {
          "duration": 0.26086950000000186,
          "durationTicks": 96,
          "midi": 57,
          "name": "A3",
          "ticks": 11328,
          "time": 30.782600999999996,
          "velocity": 0.7480314960629921
        },
        {
          "duration": 0.26086950000000186,
          "durationTicks": 96,
          "midi": 64,
          "name": "E4",
          "ticks": 11328,
          "time": 30.782600999999996,
          "velocity": 0.7480314960629921
        },
        {
          "duration": 0.26086950000000186,
          "durationTicks": 96,
          "midi": 41,
          "name": "F2",
          "ticks": 11328,
          "time": 30.782600999999996,
          "velocity": 0.7480314960629921
        },
        {
          "duration": 0.2608694999999983,
          "durationTicks": 96,
          "midi": 59,
          "name": "B3",
          "ticks": 11424,
          "time": 31.043470499999998,
          "velocity": 0.7480314960629921
        },
        {
          "duration": 0.2608694999999983,
          "durationTicks": 96,
          "midi": 62,
          "name": "D4",
          "ticks": 11424,
          "time": 31.043470499999998,
          "velocity": 0.7480314960629921
        },
        {
          "duration": 0.2608694999999983,
          "durationTicks": 96,
          "midi": 43,
          "name": "G2",
          "ticks": 11424,
          "time": 31.043470499999998,
          "velocity": 0.7480314960629921
        },
        {
          "duration": 0.26086950000000186,
          "durationTicks": 96,
          "midi": 62,
          "name": "D4",
          "ticks": 11520,
          "time": 31.304339999999996,
          "velocity": 0.7480314960629921
        },
        {
          "duration": 0.26086950000000186,
          "durationTicks": 96,
          "midi": 67,
          "name": "G4",
          "ticks": 11520,
          "time": 31.304339999999996,
          "velocity": 0.7480314960629921
        },
        {
          "duration": 0.26086950000000186,
          "durationTicks": 96,
          "midi": 71,
          "name": "B4",
          "ticks": 11520,
          "time": 31.304339999999996,
          "velocity": 0.7480314960629921
        },
        {
          "duration": 0.26086950000000186,
          "durationTicks": 96,
          "midi": 43,
          "name": "G2",
          "ticks": 11520,
          "time": 31.304339999999996,
          "velocity": 0.7480314960629921
        },
        {
          "duration": 0.2608694999999983,
          "durationTicks": 96,
          "midi": 62,
          "name": "D4",
          "ticks": 11616,
          "time": 31.565209499999998,
          "velocity": 0.7480314960629921
        },
        {
          "duration": 0.2608694999999983,
          "durationTicks": 96,
          "midi": 67,
          "name": "G4",
          "ticks": 11616,
          "time": 31.565209499999998,
          "velocity": 0.7480314960629921
        },
        {
          "duration": 0.2608694999999983,
          "durationTicks": 96,
          "midi": 71,
          "name": "B4",
          "ticks": 11616,
          "time": 31.565209499999998,
          "velocity": 0.7480314960629921
        },
        {
          "duration": 0.2608694999999983,
          "durationTicks": 96,
          "midi": 43,
          "name": "G2",
          "ticks": 11616,
          "time": 31.565209499999998,
          "velocity": 0.7480314960629921
        },
        {
          "duration": 0.7826084999999985,
          "durationTicks": 288,
          "midi": 62,
          "name": "D4",
          "ticks": 11712,
          "time": 31.826078999999996,
          "velocity": 0.7480314960629921
        },
        {
          "duration": 0.7826084999999985,
          "durationTicks": 288,
          "midi": 67,
          "name": "G4",
          "ticks": 11712,
          "time": 31.826078999999996,
          "velocity": 0.7480314960629921
        },
        {
          "duration": 0.7826084999999985,
          "durationTicks": 288,
          "midi": 71,
          "name": "B4",
          "ticks": 11712,
          "time": 31.826078999999996,
          "velocity": 0.7480314960629921
        },
        {
          "duration": 0.26086950000000186,
          "durationTicks": 96,
          "midi": 43,
          "name": "G2",
          "ticks": 11712,
          "time": 31.826078999999996,
          "velocity": 0.7480314960629921
        },
        {
          "duration": 0.2608695000000054,
          "durationTicks": 96,
          "midi": 67,
          "name": "G4",
          "ticks": 12000,
          "time": 32.608687499999995,
          "velocity": 0.7480314960629921
        },
        {
          "duration": 0.2608695000000054,
          "durationTicks": 96,
          "midi": 43,
          "name": "G2",
          "ticks": 12000,
          "time": 32.608687499999995,
          "velocity": 0.7480314960629921
        },
        {
          "duration": 0.5217390000000037,
          "durationTicks": 192,
          "midi": 62,
          "name": "D4",
          "ticks": 12000,
          "time": 32.608687499999995,
          "velocity": 0.7480314960629921
        },
        {
          "duration": 0.5217390000000037,
          "durationTicks": 192,
          "midi": 59,
          "name": "B3",
          "ticks": 12000,
          "time": 32.608687499999995,
          "velocity": 0.7480314960629921
        },
        {
          "duration": 0.2608694999999983,
          "durationTicks": 96,
          "midi": 69,
          "name": "A4",
          "ticks": 12096,
          "time": 32.869557,
          "velocity": 0.7480314960629921
        },
        {
          "duration": 0.2608694999999983,
          "durationTicks": 96,
          "midi": 42,
          "name": "F#2",
          "ticks": 12096,
          "time": 32.869557,
          "velocity": 0.7480314960629921
        },
        {
          "duration": 0.2608694999999983,
          "durationTicks": 96,
          "midi": 71,
          "name": "B4",
          "ticks": 12192,
          "time": 33.1304265,
          "velocity": 0.7480314960629921
        },
        {
          "duration": 0.2608694999999983,
          "durationTicks": 96,
          "midi": 66,
          "name": "F#4",
          "ticks": 12192,
          "time": 33.1304265,
          "velocity": 0.7480314960629921
        },
        {
          "duration": 0.5217389999999966,
          "durationTicks": 192,
          "midi": 62,
          "name": "D4",
          "ticks": 12192,
          "time": 33.1304265,
          "velocity": 0.7480314960629921
        },
        {
          "duration": 0.7826084999999949,
          "durationTicks": 288,
          "midi": 40,
          "name": "E2",
          "ticks": 12192,
          "time": 33.1304265,
          "velocity": 0.7480314960629921
        },
        {
          "duration": 0.2608694999999983,
          "durationTicks": 96,
          "midi": 69,
          "name": "A4",
          "ticks": 12288,
          "time": 33.391296,
          "velocity": 0.7480314960629921
        },
        {
          "duration": 0.2608694999999983,
          "durationTicks": 96,
          "midi": 64,
          "name": "E4",
          "ticks": 12288,
          "time": 33.391296,
          "velocity": 0.7480314960629921
        },
        {
          "duration": 0.2608694999999983,
          "durationTicks": 96,
          "midi": 69,
          "name": "A4",
          "ticks": 12384,
          "time": 33.652165499999995,
          "velocity": 0.7480314960629921
        },
        {
          "duration": 0.2608694999999983,
          "durationTicks": 96,
          "midi": 64,
          "name": "E4",
          "ticks": 12384,
          "time": 33.652165499999995,
          "velocity": 0.7480314960629921
        },
        {
          "duration": 0.5217390000000037,
          "durationTicks": 192,
          "midi": 59,
          "name": "B3",
          "ticks": 12384,
          "time": 33.652165499999995,
          "velocity": 0.7480314960629921
        },
        {
          "duration": 0.2608695000000054,
          "durationTicks": 96,
          "midi": 67,
          "name": "G4",
          "ticks": 12480,
          "time": 33.913034999999994,
          "velocity": 0.7480314960629921
        },
        {
          "duration": 0.2608695000000054,
          "durationTicks": 96,
          "midi": 62,
          "name": "D4",
          "ticks": 12480,
          "time": 33.913034999999994,
          "velocity": 0.7480314960629921
        },
        {
          "duration": 0.2608695000000054,
          "durationTicks": 96,
          "midi": 40,
          "name": "E2",
          "ticks": 12480,
          "time": 33.913034999999994,
          "velocity": 0.7480314960629921
        },
        {
          "duration": 0.2608694999999983,
          "durationTicks": 96,
          "midi": 67,
          "name": "G4",
          "ticks": 12576,
          "time": 34.1739045,
          "velocity": 0.7480314960629921
        },
        {
          "duration": 0.2608694999999983,
          "durationTicks": 96,
          "midi": 62,
          "name": "D4",
          "ticks": 12576,
          "time": 34.1739045,
          "velocity": 0.7480314960629921
        },
        {
          "duration": 0.5217389999999966,
          "durationTicks": 192,
          "midi": 55,
          "name": "G3",
          "ticks": 12576,
          "time": 34.1739045,
          "velocity": 0.7480314960629921
        },
        {
          "duration": 1.0434780000000003,
          "durationTicks": 384,
          "midi": 40,
          "name": "E2",
          "ticks": 12576,
          "time": 34.1739045,
          "velocity": 0.7480314960629921
        },
        {
          "duration": 0.2608694999999983,
          "durationTicks": 96,
          "midi": 64,
          "name": "E4",
          "ticks": 12672,
          "time": 34.434774,
          "velocity": 0.7480314960629921
        },
        {
          "duration": 0.2608694999999983,
          "durationTicks": 96,
          "midi": 59,
          "name": "B3",
          "ticks": 12672,
          "time": 34.434774,
          "velocity": 0.7480314960629921
        },
        {
          "duration": 0.2608694999999983,
          "durationTicks": 96,
          "midi": 64,
          "name": "E4",
          "ticks": 12768,
          "time": 34.695643499999996,
          "velocity": 0.7480314960629921
        },
        {
          "duration": 0.2608694999999983,
          "durationTicks": 96,
          "midi": 59,
          "name": "B3",
          "ticks": 12768,
          "time": 34.695643499999996,
          "velocity": 0.7480314960629921
        },
        {
          "duration": 0.2608694999999983,
          "durationTicks": 96,
          "midi": 55,
          "name": "G3",
          "ticks": 12768,
          "time": 34.695643499999996,
          "velocity": 0.7480314960629921
        },
        {
          "duration": 0.2608695000000054,
          "durationTicks": 96,
          "midi": 67,
          "name": "G4",
          "ticks": 12864,
          "time": 34.956512999999994,
          "velocity": 0.7480314960629921
        },
        {
          "duration": 0.2608695000000054,
          "durationTicks": 96,
          "midi": 62,
          "name": "D4",
          "ticks": 12864,
          "time": 34.956512999999994,
          "velocity": 0.7480314960629921
        },
        {
          "duration": 0.2608695000000054,
          "durationTicks": 96,
          "midi": 59,
          "name": "B3",
          "ticks": 12864,
          "time": 34.956512999999994,
          "velocity": 0.7480314960629921
        },
        {
          "duration": 0.2608694999999983,
          "durationTicks": 96,
          "midi": 71,
          "name": "B4",
          "ticks": 12960,
          "time": 35.2173825,
          "velocity": 0.7480314960629921
        },
        {
          "duration": 0.7826084999999949,
          "durationTicks": 288,
          "midi": 45,
          "name": "A2",
          "ticks": 12960,
          "time": 35.2173825,
          "velocity": 0.7480314960629921
        },
        {
          "duration": 1.0434780000000003,
          "durationTicks": 384,
          "midi": 61,
          "name": "C#4",
          "ticks": 12960,
          "time": 35.2173825,
          "velocity": 0.7480314960629921
        },
        {
          "duration": 1.0434780000000003,
          "durationTicks": 384,
          "midi": 67,
          "name": "G4",
          "ticks": 12960,
          "time": 35.2173825,
          "velocity": 0.7480314960629921
        },
        {
          "duration": 0.5217389999999966,
          "durationTicks": 192,
          "midi": 69,
          "name": "A4",
          "ticks": 13056,
          "time": 35.478252,
          "velocity": 0.7480314960629921
        },
        {
          "duration": 0.2608695000000054,
          "durationTicks": 96,
          "midi": 45,
          "name": "A2",
          "ticks": 13248,
          "time": 35.999990999999994,
          "velocity": 0.7480314960629921
        },
        {
          "duration": 0.2608694999999983,
          "durationTicks": 96,
          "midi": 64,
          "name": "E4",
          "ticks": 13344,
          "time": 36.2608605,
          "velocity": 0.7480314960629921
        },
        {
          "duration": 0.2608694999999983,
          "durationTicks": 96,
          "midi": 67,
          "name": "G4",
          "ticks": 13344,
          "time": 36.2608605,
          "velocity": 0.7480314960629921
        },
        {
          "duration": 0.2608694999999983,
          "durationTicks": 96,
          "midi": 61,
          "name": "C#4",
          "ticks": 13344,
          "time": 36.2608605,
          "velocity": 0.7480314960629921
        },
        {
          "duration": 0.7826084999999949,
          "durationTicks": 288,
          "midi": 45,
          "name": "A2",
          "ticks": 13344,
          "time": 36.2608605,
          "velocity": 0.7480314960629921
        },
        {
          "duration": 0.2608694999999983,
          "durationTicks": 96,
          "midi": 67,
          "name": "G4",
          "ticks": 13440,
          "time": 36.52173,
          "velocity": 0.7480314960629921
        },
        {
          "duration": 0.2608694999999983,
          "durationTicks": 96,
          "midi": 64,
          "name": "E4",
          "ticks": 13440,
          "time": 36.52173,
          "velocity": 0.7480314960629921
        },
        {
          "duration": 0.2608694999999983,
          "durationTicks": 96,
          "midi": 61,
          "name": "C#4",
          "ticks": 13440,
          "time": 36.52173,
          "velocity": 0.7480314960629921
        },
        {
          "duration": 0.2608694999999983,
          "durationTicks": 96,
          "midi": 67,
          "name": "G4",
          "ticks": 13536,
          "time": 36.782599499999996,
          "velocity": 0.7480314960629921
        },
        {
          "duration": 0.2608694999999983,
          "durationTicks": 96,
          "midi": 64,
          "name": "E4",
          "ticks": 13536,
          "time": 36.782599499999996,
          "velocity": 0.7480314960629921
        },
        {
          "duration": 0.2608694999999983,
          "durationTicks": 96,
          "midi": 61,
          "name": "C#4",
          "ticks": 13536,
          "time": 36.782599499999996,
          "velocity": 0.7480314960629921
        },
        {
          "duration": 0.2608695000000054,
          "durationTicks": 96,
          "midi": 62,
          "name": "D4",
          "ticks": 13632,
          "time": 37.043468999999995,
          "velocity": 0.7480314960629921
        },
        {
          "duration": 0.2608695000000054,
          "durationTicks": 96,
          "midi": 45,
          "name": "A2",
          "ticks": 13632,
          "time": 37.043468999999995,
          "velocity": 0.7480314960629921
        },
        {
          "duration": 0.2608694999999983,
          "durationTicks": 96,
          "midi": 71,
          "name": "B4",
          "ticks": 13728,
          "time": 37.3043385,
          "velocity": 0.7480314960629921
        },
        {
          "duration": 0.7826084999999949,
          "durationTicks": 288,
          "midi": 48,
          "name": "C3",
          "ticks": 13728,
          "time": 37.3043385,
          "velocity": 0.7480314960629921
        },
        {
          "duration": 1.0434779999999932,
          "durationTicks": 384,
          "midi": 63,
          "name": "D#4",
          "ticks": 13728,
          "time": 37.3043385,
          "velocity": 0.7480314960629921
        },
        {
          "duration": 1.0434779999999932,
          "durationTicks": 384,
          "midi": 60,
          "name": "C4",
          "ticks": 13728,
          "time": 37.3043385,
          "velocity": 0.7480314960629921
        },
        {
          "duration": 0.5217389999999966,
          "durationTicks": 192,
          "midi": 69,
          "name": "A4",
          "ticks": 13824,
          "time": 37.565208,
          "velocity": 0.7480314960629921
        },
        {
          "duration": 0.13043474999999916,
          "durationTicks": 48,
          "midi": 67,
          "name": "G4",
          "ticks": 14016,
          "time": 38.086946999999995,
          "velocity": 0.7480314960629921
        },
        {
          "duration": 0.2608694999999983,
          "durationTicks": 96,
          "midi": 48,
          "name": "C3",
          "ticks": 14016,
          "time": 38.086946999999995,
          "velocity": 0.7480314960629921
        },
        {
          "duration": 0.13043474999999916,
          "durationTicks": 48,
          "midi": 69,
          "name": "A4",
          "ticks": 14064,
          "time": 38.217381749999994,
          "velocity": 0.7480314960629921
        },
        {
          "duration": 0.9130432500000012,
          "durationTicks": 336,
          "midi": 48,
          "name": "C3",
          "ticks": 14064,
          "time": 38.217381749999994,
          "velocity": 0.7480314960629921
        },
        {
          "duration": 0.782608500000002,
          "durationTicks": 288,
          "midi": 67,
          "name": "G4",
          "ticks": 14112,
          "time": 38.34781649999999,
          "velocity": 0.7480314960629921
        },
        {
          "duration": 0.2608694999999983,
          "durationTicks": 96,
          "midi": 60,
          "name": "C4",
          "ticks": 14400,
          "time": 39.130424999999995,
          "velocity": 0.7480314960629921
        },
        {
          "duration": 0.2608694999999983,
          "durationTicks": 96,
          "midi": 55,
          "name": "G3",
          "ticks": 14400,
          "time": 39.130424999999995,
          "velocity": 0.7480314960629921
        },
        {
          "duration": 0.2608695000000054,
          "durationTicks": 96,
          "midi": 60,
          "name": "C4",
          "ticks": 14496,
          "time": 39.391294499999994,
          "velocity": 0.7480314960629921
        },
        {
          "duration": 0.2608695000000054,
          "durationTicks": 96,
          "midi": 55,
          "name": "G3",
          "ticks": 14496,
          "time": 39.391294499999994,
          "velocity": 0.7480314960629921
        },
        {
          "duration": 0.2608695000000054,
          "durationTicks": 96,
          "midi": 63,
          "name": "D#4",
          "ticks": 14496,
          "time": 39.391294499999994,
          "velocity": 0.7480314960629921
        },
        {
          "duration": 0.2608695000000054,
          "durationTicks": 96,
          "midi": 48,
          "name": "C3",
          "ticks": 14496,
          "time": 39.391294499999994,
          "velocity": 0.7480314960629921
        },
        {
          "duration": 0.5217389999999966,
          "durationTicks": 192,
          "midi": 59,
          "name": "B3",
          "ticks": 14592,
          "time": 39.652164,
          "velocity": 0.7480314960629921
        },
        {
          "duration": 0.5217389999999966,
          "durationTicks": 192,
          "midi": 55,
          "name": "G3",
          "ticks": 14592,
          "time": 39.652164,
          "velocity": 0.7480314960629921
        },
        {
          "duration": 0.5217389999999966,
          "durationTicks": 192,
          "midi": 62,
          "name": "D4",
          "ticks": 14592,
          "time": 39.652164,
          "velocity": 0.7480314960629921
        },
        {
          "duration": 0.7826084999999949,
          "durationTicks": 288,
          "midi": 43,
          "name": "G2",
          "ticks": 14592,
          "time": 39.652164,
          "velocity": 0.7480314960629921
        },
        {
          "duration": 0.2608694999999983,
          "durationTicks": 96,
          "midi": 67,
          "name": "G4",
          "ticks": 14784,
          "time": 40.173902999999996,
          "velocity": 0.7480314960629921
        },
        {
          "duration": 0.2608694999999983,
          "durationTicks": 96,
          "midi": 62,
          "name": "D4",
          "ticks": 14784,
          "time": 40.173902999999996,
          "velocity": 0.7480314960629921
        },
        {
          "duration": 0.2608694999999983,
          "durationTicks": 96,
          "midi": 71,
          "name": "B4",
          "ticks": 14784,
          "time": 40.173902999999996,
          "velocity": 0.7480314960629921
        },
        {
          "duration": 0.782608500000002,
          "durationTicks": 288,
          "midi": 67,
          "name": "G4",
          "ticks": 14880,
          "time": 40.434772499999994,
          "velocity": 0.7480314960629921
        },
        {
          "duration": 0.782608500000002,
          "durationTicks": 288,
          "midi": 62,
          "name": "D4",
          "ticks": 14880,
          "time": 40.434772499999994,
          "velocity": 0.7480314960629921
        },
        {
          "duration": 0.782608500000002,
          "durationTicks": 288,
          "midi": 71,
          "name": "B4",
          "ticks": 14880,
          "time": 40.434772499999994,
          "velocity": 0.7480314960629921
        },
        {
          "duration": 0.2608695000000054,
          "durationTicks": 96,
          "midi": 43,
          "name": "G2",
          "ticks": 14880,
          "time": 40.434772499999994,
          "velocity": 0.7480314960629921
        },
        {
          "duration": 1.0434780000000003,
          "durationTicks": 384,
          "midi": 43,
          "name": "G2",
          "ticks": 14976,
          "time": 40.695642,
          "velocity": 0.7480314960629921
        },
        {
          "duration": 0.2608695000000054,
          "durationTicks": 96,
          "midi": 62,
          "name": "D4",
          "ticks": 15264,
          "time": 41.478250499999994,
          "velocity": 0.7480314960629921
        },
        {
          "duration": 0.2608695000000054,
          "durationTicks": 96,
          "midi": 59,
          "name": "B3",
          "ticks": 15264,
          "time": 41.478250499999994,
          "velocity": 0.7480314960629921
        },
        {
          "duration": 0.2608695000000054,
          "durationTicks": 96,
          "midi": 67,
          "name": "G4",
          "ticks": 15264,
          "time": 41.478250499999994,
          "velocity": 0.7480314960629921
        },
        {
          "duration": 0.2608694999999983,
          "durationTicks": 96,
          "midi": 62,
          "name": "D4",
          "ticks": 15360,
          "time": 41.73912,
          "velocity": 0.7480314960629921
        },
        {
          "duration": 0.2608694999999983,
          "durationTicks": 96,
          "midi": 59,
          "name": "B3",
          "ticks": 15360,
          "time": 41.73912,
          "velocity": 0.7480314960629921
        },
        {
          "duration": 0.2608694999999983,
          "durationTicks": 96,
          "midi": 67,
          "name": "G4",
          "ticks": 15360,
          "time": 41.73912,
          "velocity": 0.7480314960629921
        },
        {
          "duration": 0.5217389999999966,
          "durationTicks": 192,
          "midi": 71,
          "name": "B4",
          "ticks": 15456,
          "time": 41.9999895,
          "velocity": 0.7480314960629921
        },
        {
          "duration": 1.0434780000000003,
          "durationTicks": 384,
          "midi": 43,
          "name": "G2",
          "ticks": 15456,
          "time": 41.9999895,
          "velocity": 0.7480314960629921
        },
        {
          "duration": 0.5217390000000037,
          "durationTicks": 192,
          "midi": 79,
          "name": "G5",
          "ticks": 15648,
          "time": 42.521728499999995,
          "velocity": 0.7480314960629921
        },
        {
          "duration": 1.565217000000004,
          "durationTicks": 576,
          "midi": 67,
          "name": "G4",
          "ticks": 15648,
          "time": 42.521728499999995,
          "velocity": 0.7480314960629921
        },
        {
          "duration": 0.782608500000002,
          "durationTicks": 288,
          "midi": 71,
          "name": "B4",
          "ticks": 15648,
          "time": 42.521728499999995,
          "velocity": 0.7480314960629921
        },
        {
          "duration": 1.0434780000000003,
          "durationTicks": 384,
          "midi": 71,
          "name": "B4",
          "ticks": 15840,
          "time": 43.0434675,
          "velocity": 0.7480314960629921
        },
        {
          "duration": 0.2608694999999983,
          "durationTicks": 96,
          "midi": 43,
          "name": "G2",
          "ticks": 15840,
          "time": 43.0434675,
          "velocity": 0.7480314960629921
        },
        {
          "duration": 0.2608694999999983,
          "durationTicks": 96,
          "midi": 72,
          "name": "C5",
          "ticks": 15936,
          "time": 43.304337,
          "velocity": 0.7480314960629921
        },
        {
          "duration": 0.2608694999999983,
          "durationTicks": 96,
          "midi": 47,
          "name": "B2",
          "ticks": 15936,
          "time": 43.304337,
          "velocity": 0.7480314960629921
        },
        {
          "duration": 0.2608694999999983,
          "durationTicks": 96,
          "midi": 74,
          "name": "D5",
          "ticks": 16032,
          "time": 43.565206499999995,
          "velocity": 0.7480314960629921
        },
        {
          "duration": 0.2608694999999983,
          "durationTicks": 96,
          "midi": 48,
          "name": "C3",
          "ticks": 16032,
          "time": 43.565206499999995,
          "velocity": 0.7480314960629921
        },
        {
          "duration": 1.3043475000000058,
          "durationTicks": 480,
          "midi": 78,
          "name": "F#5",
          "ticks": 16128,
          "time": 43.82607599999999,
          "velocity": 0.7480314960629921
        },
        {
          "duration": 1.3043475000000058,
          "durationTicks": 480,
          "midi": 74,
          "name": "D5",
          "ticks": 16128,
          "time": 43.82607599999999,
          "velocity": 0.7480314960629921
        },
        {
          "duration": 1.3043475000000058,
          "durationTicks": 480,
          "midi": 69,
          "name": "A4",
          "ticks": 16128,
          "time": 43.82607599999999,
          "velocity": 0.7480314960629921
        },
        {
          "duration": 1.0434780000000003,
          "durationTicks": 384,
          "midi": 50,
          "name": "D3",
          "ticks": 16128,
          "time": 43.82607599999999,
          "velocity": 0.7480314960629921
        },
        {
          "duration": 0.2608695000000054,
          "durationTicks": 96,
          "midi": 50,
          "name": "D3",
          "ticks": 16512,
          "time": 44.869553999999994,
          "velocity": 0.7480314960629921
        },
        {
          "duration": 0.5217389999999966,
          "durationTicks": 192,
          "midi": 50,
          "name": "D3",
          "ticks": 16608,
          "time": 45.1304235,
          "velocity": 0.7480314960629921
        },
        {
          "duration": 0.2608694999999983,
          "durationTicks": 96,
          "midi": 62,
          "name": "D4",
          "ticks": 16800,
          "time": 45.652162499999996,
          "velocity": 0.7480314960629921
        },
        {
          "duration": 0.2608694999999983,
          "durationTicks": 96,
          "midi": 64,
          "name": "E4",
          "ticks": 16896,
          "time": 45.913031999999994,
          "velocity": 0.7480314960629921
        },
        {
          "duration": 0.5217390000000037,
          "durationTicks": 192,
          "midi": 69,
          "name": "A4",
          "ticks": 16992,
          "time": 46.17390149999999,
          "velocity": 0.7480314960629921
        },
        {
          "duration": 0.782608500000002,
          "durationTicks": 288,
          "midi": 43,
          "name": "G2",
          "ticks": 16992,
          "time": 46.17390149999999,
          "velocity": 0.7480314960629921
        },
        {
          "duration": 0.2608694999999983,
          "durationTicks": 96,
          "midi": 62,
          "name": "D4",
          "ticks": 17184,
          "time": 46.695640499999996,
          "velocity": 0.7480314960629921
        },
        {
          "duration": 0.2608694999999983,
          "durationTicks": 96,
          "midi": 59,
          "name": "B3",
          "ticks": 17184,
          "time": 46.695640499999996,
          "velocity": 0.7480314960629921
        },
        {
          "duration": 0.5217389999999966,
          "durationTicks": 192,
          "midi": 67,
          "name": "G4",
          "ticks": 17184,
          "time": 46.695640499999996,
          "velocity": 0.7480314960629921
        },
        {
          "duration": 0.2608694999999983,
          "durationTicks": 96,
          "midi": 62,
          "name": "D4",
          "ticks": 17280,
          "time": 46.956509999999994,
          "velocity": 0.7480314960629921
        },
        {
          "duration": 0.2608694999999983,
          "durationTicks": 96,
          "midi": 59,
          "name": "B3",
          "ticks": 17280,
          "time": 46.956509999999994,
          "velocity": 0.7480314960629921
        },
        {
          "duration": 0.2608694999999983,
          "durationTicks": 96,
          "midi": 43,
          "name": "G2",
          "ticks": 17280,
          "time": 46.956509999999994,
          "velocity": 0.7480314960629921
        },
        {
          "duration": 0.5217390000000037,
          "durationTicks": 192,
          "midi": 69,
          "name": "A4",
          "ticks": 17376,
          "time": 47.21737949999999,
          "velocity": 0.7480314960629921
        },
        {
          "duration": 0.782608500000002,
          "durationTicks": 288,
          "midi": 50,
          "name": "D3",
          "ticks": 17376,
          "time": 47.21737949999999,
          "velocity": 0.7480314960629921
        },
        {
          "duration": 0.2608694999999983,
          "durationTicks": 96,
          "midi": 67,
          "name": "G4",
          "ticks": 17568,
          "time": 47.7391185,
          "velocity": 0.7480314960629921
        },
        {
          "duration": 0.2608694999999983,
          "durationTicks": 96,
          "midi": 62,
          "name": "D4",
          "ticks": 17568,
          "time": 47.7391185,
          "velocity": 0.7480314960629921
        },
        {
          "duration": 0.2608694999999983,
          "durationTicks": 96,
          "midi": 71,
          "name": "B4",
          "ticks": 17568,
          "time": 47.7391185,
          "velocity": 0.7480314960629921
        },
        {
          "duration": 0.2608694999999983,
          "durationTicks": 96,
          "midi": 62,
          "name": "D4",
          "ticks": 17664,
          "time": 47.999987999999995,
          "velocity": 0.7480314960629921
        },
        {
          "duration": 0.2608694999999983,
          "durationTicks": 96,
          "midi": 67,
          "name": "G4",
          "ticks": 17664,
          "time": 47.999987999999995,
          "velocity": 0.7480314960629921
        },
        {
          "duration": 0.2608694999999983,
          "durationTicks": 96,
          "midi": 50,
          "name": "D3",
          "ticks": 17664,
          "time": 47.999987999999995,
          "velocity": 0.7480314960629921
        },
        {
          "duration": 0.2608695000000054,
          "durationTicks": 96,
          "midi": 74,
          "name": "D5",
          "ticks": 17760,
          "time": 48.26085749999999,
          "velocity": 0.7480314960629921
        },
        {
          "duration": 0.2608695000000054,
          "durationTicks": 96,
          "midi": 67,
          "name": "G4",
          "ticks": 17760,
          "time": 48.26085749999999,
          "velocity": 0.7480314960629921
        },
        {
          "duration": 0.2608695000000054,
          "durationTicks": 96,
          "midi": 64,
          "name": "E4",
          "ticks": 17760,
          "time": 48.26085749999999,
          "velocity": 0.7480314960629921
        },
        {
          "duration": 0.782608500000002,
          "durationTicks": 288,
          "midi": 52,
          "name": "E3",
          "ticks": 17760,
          "time": 48.26085749999999,
          "velocity": 0.7480314960629921
        },
        {
          "duration": 0.2608694999999983,
          "durationTicks": 96,
          "midi": 67,
          "name": "G4",
          "ticks": 17856,
          "time": 48.521727,
          "velocity": 0.7480314960629921
        },
        {
          "duration": 0.2608694999999983,
          "durationTicks": 96,
          "midi": 64,
          "name": "E4",
          "ticks": 17856,
          "time": 48.521727,
          "velocity": 0.7480314960629921
        },
        {
          "duration": 1.3043474999999987,
          "durationTicks": 480,
          "midi": 71,
          "name": "B4",
          "ticks": 17856,
          "time": 48.521727,
          "velocity": 0.7480314960629921
        },
        {
          "duration": 0.2608694999999983,
          "durationTicks": 96,
          "midi": 67,
          "name": "G4",
          "ticks": 17952,
          "time": 48.7825965,
          "velocity": 0.7480314960629921
        },
        {
          "duration": 0.2608694999999983,
          "durationTicks": 96,
          "midi": 64,
          "name": "E4",
          "ticks": 17952,
          "time": 48.7825965,
          "velocity": 0.7480314960629921
        },
        {
          "duration": 0.2608694999999983,
          "durationTicks": 96,
          "midi": 53,
          "name": "F3",
          "ticks": 18048,
          "time": 49.043465999999995,
          "velocity": 0.7480314960629921
        },
        {
          "duration": 0.5217390000000037,
          "durationTicks": 192,
          "midi": 62,
          "name": "D4",
          "ticks": 18048,
          "time": 49.043465999999995,
          "velocity": 0.7480314960629921
        },
        {
          "duration": 0.782608500000002,
          "durationTicks": 288,
          "midi": 67,
          "name": "G4",
          "ticks": 18048,
          "time": 49.043465999999995,
          "velocity": 0.7480314960629921
        },
        {
          "duration": 0.5217390000000037,
          "durationTicks": 192,
          "midi": 53,
          "name": "F3",
          "ticks": 18144,
          "time": 49.30433549999999,
          "velocity": 0.7480314960629921
        },
        {
          "duration": 0.2608694999999983,
          "durationTicks": 96,
          "midi": 53,
          "name": "F3",
          "ticks": 18240,
          "time": 49.565205,
          "velocity": 0.7480314960629921
        },
        {
          "duration": 0.2608694999999983,
          "durationTicks": 96,
          "midi": 69,
          "name": "A4",
          "ticks": 18240,
          "time": 49.565205,
          "velocity": 0.7480314960629921
        },
        {
          "duration": 0.5217389999999966,
          "durationTicks": 192,
          "midi": 62,
          "name": "D4",
          "ticks": 18240,
          "time": 49.565205,
          "velocity": 0.7480314960629921
        },
        {
          "duration": 0.5217389999999966,
          "durationTicks": 192,
          "midi": 59,
          "name": "B3",
          "ticks": 18240,
          "time": 49.565205,
          "velocity": 0.7480314960629921
        },
        {
          "duration": 0.2608694999999983,
          "durationTicks": 96,
          "midi": 71,
          "name": "B4",
          "ticks": 18336,
          "time": 49.8260745,
          "velocity": 0.7480314960629921
        },
        {
          "duration": 0.2608694999999983,
          "durationTicks": 96,
          "midi": 55,
          "name": "G3",
          "ticks": 18336,
          "time": 49.8260745,
          "velocity": 0.7480314960629921
        },
        {
          "duration": 0.5217389999999966,
          "durationTicks": 192,
          "midi": 69,
          "name": "A4",
          "ticks": 18432,
          "time": 50.086943999999995,
          "velocity": 0.7480314960629921
        },
        {
          "duration": 0.782608500000002,
          "durationTicks": 288,
          "midi": 48,
          "name": "C3",
          "ticks": 18432,
          "time": 50.086943999999995,
          "velocity": 0.7480314960629921
        },
        {
          "duration": 0.2608695000000054,
          "durationTicks": 96,
          "midi": 69,
          "name": "A4",
          "ticks": 18624,
          "time": 50.60868299999999,
          "velocity": 0.7480314960629921
        },
        {
          "duration": 0.5217390000000037,
          "durationTicks": 192,
          "midi": 64,
          "name": "E4",
          "ticks": 18624,
          "time": 50.60868299999999,
          "velocity": 0.7480314960629921
        },
        {
          "duration": 0.5217390000000037,
          "durationTicks": 192,
          "midi": 60,
          "name": "C4",
          "ticks": 18624,
          "time": 50.60868299999999,
          "velocity": 0.7480314960629921
        },
        {
          "duration": 0.13043474999999916,
          "durationTicks": 48,
          "midi": 71,
          "name": "B4",
          "ticks": 18720,
          "time": 50.8695525,
          "velocity": 0.7480314960629921
        },
        {
          "duration": 0.2608694999999983,
          "durationTicks": 96,
          "midi": 48,
          "name": "C3",
          "ticks": 18720,
          "time": 50.8695525,
          "velocity": 0.7480314960629921
        },
        {
          "duration": 0.13043474999999916,
          "durationTicks": 48,
          "midi": 69,
          "name": "A4",
          "ticks": 18768,
          "time": 50.99998725,
          "velocity": 0.7480314960629921
        },
        {
          "duration": 0.782608500000002,
          "durationTicks": 288,
          "midi": 67,
          "name": "G4",
          "ticks": 18816,
          "time": 51.130421999999996,
          "velocity": 0.7480314960629921
        },
        {
          "duration": 0.782608500000002,
          "durationTicks": 288,
          "midi": 48,
          "name": "C3",
          "ticks": 18816,
          "time": 51.130421999999996,
          "velocity": 0.7480314960629921
        },
        {
          "duration": 0.2608695000000054,
          "durationTicks": 96,
          "midi": 63,
          "name": "D#4",
          "ticks": 19008,
          "time": 51.65216099999999,
          "velocity": 0.7480314960629921
        },
        {
          "duration": 0.2608695000000054,
          "durationTicks": 96,
          "midi": 60,
          "name": "C4",
          "ticks": 19008,
          "time": 51.65216099999999,
          "velocity": 0.7480314960629921
        },
        {
          "duration": 0.2608694999999983,
          "durationTicks": 96,
          "midi": 60,
          "name": "C4",
          "ticks": 19104,
          "time": 51.9130305,
          "velocity": 0.7480314960629921
        },
        {
          "duration": 0.2608694999999983,
          "durationTicks": 96,
          "midi": 63,
          "name": "D#4",
          "ticks": 19104,
          "time": 51.9130305,
          "velocity": 0.7480314960629921
        },
        {
          "duration": 0.2608694999999983,
          "durationTicks": 96,
          "midi": 48,
          "name": "C3",
          "ticks": 19104,
          "time": 51.9130305,
          "velocity": 0.7480314960629921
        },
        {
          "duration": 0.2608694999999983,
          "durationTicks": 96,
          "midi": 62,
          "name": "D4",
          "ticks": 19200,
          "time": 52.173899999999996,
          "velocity": 0.7480314960629921
        },
        {
          "duration": 0.2608694999999983,
          "durationTicks": 96,
          "midi": 59,
          "name": "B3",
          "ticks": 19200,
          "time": 52.173899999999996,
          "velocity": 0.7480314960629921
        },
        {
          "duration": 0.782608500000002,
          "durationTicks": 288,
          "midi": 43,
          "name": "G2",
          "ticks": 19200,
          "time": 52.173899999999996,
          "velocity": 0.7480314960629921
        },
        {
          "duration": 0.5217390000000037,
          "durationTicks": 192,
          "midi": 71,
          "name": "B4",
          "ticks": 19296,
          "time": 52.434769499999994,
          "velocity": 0.7480314960629921
        },
        {
          "duration": 0.5217390000000037,
          "durationTicks": 192,
          "midi": 62,
          "name": "D4",
          "ticks": 19296,
          "time": 52.434769499999994,
          "velocity": 0.7480314960629921
        },
        {
          "duration": 0.5217390000000037,
          "durationTicks": 192,
          "midi": 67,
          "name": "G4",
          "ticks": 19296,
          "time": 52.434769499999994,
          "velocity": 0.7480314960629921
        },
        {
          "duration": 0.7826084999999949,
          "durationTicks": 288,
          "midi": 71,
          "name": "B4",
          "ticks": 19488,
          "time": 52.9565085,
          "velocity": 0.7480314960629921
        },
        {
          "duration": 0.7826084999999949,
          "durationTicks": 288,
          "midi": 62,
          "name": "D4",
          "ticks": 19488,
          "time": 52.9565085,
          "velocity": 0.7480314960629921
        },
        {
          "duration": 0.7826084999999949,
          "durationTicks": 288,
          "midi": 67,
          "name": "G4",
          "ticks": 19488,
          "time": 52.9565085,
          "velocity": 0.7480314960629921
        },
        {
          "duration": 0.7826084999999949,
          "durationTicks": 288,
          "midi": 43,
          "name": "G2",
          "ticks": 19488,
          "time": 52.9565085,
          "velocity": 0.7480314960629921
        },
        {
          "duration": 0.2608695000000054,
          "durationTicks": 96,
          "midi": 62,
          "name": "D4",
          "ticks": 19776,
          "time": 53.73911699999999,
          "velocity": 0.7480314960629921
        },
        {
          "duration": 0.5217390000000037,
          "durationTicks": 192,
          "midi": 59,
          "name": "B3",
          "ticks": 19776,
          "time": 53.73911699999999,
          "velocity": 0.7480314960629921
        },
        {
          "duration": 0.2608694999999983,
          "durationTicks": 96,
          "midi": 64,
          "name": "E4",
          "ticks": 19872,
          "time": 53.9999865,
          "velocity": 0.7480314960629921
        },
        {
          "duration": 0.5217389999999966,
          "durationTicks": 192,
          "midi": 69,
          "name": "A4",
          "ticks": 19968,
          "time": 54.260856,
          "velocity": 0.7480314960629921
        },
        {
          "duration": 0.7826084999999949,
          "durationTicks": 288,
          "midi": 43,
          "name": "G2",
          "ticks": 19968,
          "time": 54.260856,
          "velocity": 0.7480314960629921
        },
        {
          "duration": 0.2608694999999983,
          "durationTicks": 96,
          "midi": 62,
          "name": "D4",
          "ticks": 20160,
          "time": 54.78259499999999,
          "velocity": 0.7480314960629921
        },
        {
          "duration": 0.2608694999999983,
          "durationTicks": 96,
          "midi": 59,
          "name": "B3",
          "ticks": 20160,
          "time": 54.78259499999999,
          "velocity": 0.7480314960629921
        },
        {
          "duration": 0.5217390000000037,
          "durationTicks": 192,
          "midi": 67,
          "name": "G4",
          "ticks": 20160,
          "time": 54.78259499999999,
          "velocity": 0.7480314960629921
        },
        {
          "duration": 0.2608695000000054,
          "durationTicks": 96,
          "midi": 62,
          "name": "D4",
          "ticks": 20256,
          "time": 55.04346449999999,
          "velocity": 0.7480314960629921
        },
        {
          "duration": 0.2608695000000054,
          "durationTicks": 96,
          "midi": 59,
          "name": "B3",
          "ticks": 20256,
          "time": 55.04346449999999,
          "velocity": 0.7480314960629921
        },
        {
          "duration": 0.2608695000000054,
          "durationTicks": 96,
          "midi": 43,
          "name": "G2",
          "ticks": 20256,
          "time": 55.04346449999999,
          "velocity": 0.7480314960629921
        },
        {
          "duration": 0.5217389999999966,
          "durationTicks": 192,
          "midi": 69,
          "name": "A4",
          "ticks": 20352,
          "time": 55.304334,
          "velocity": 0.7480314960629921
        },
        {
          "duration": 0.7826084999999949,
          "durationTicks": 288,
          "midi": 50,
          "name": "D3",
          "ticks": 20352,
          "time": 55.304334,
          "velocity": 0.7480314960629921
        },
        {
          "duration": 0.2608694999999983,
          "durationTicks": 96,
          "midi": 67,
          "name": "G4",
          "ticks": 20544,
          "time": 55.826072999999994,
          "velocity": 0.7480314960629921
        },
        {
          "duration": 0.2608694999999983,
          "durationTicks": 96,
          "midi": 62,
          "name": "D4",
          "ticks": 20544,
          "time": 55.826072999999994,
          "velocity": 0.7480314960629921
        },
        {
          "duration": 0.5217390000000037,
          "durationTicks": 192,
          "midi": 71,
          "name": "B4",
          "ticks": 20544,
          "time": 55.826072999999994,
          "velocity": 0.7480314960629921
        },
        {
          "duration": 0.2608695000000054,
          "durationTicks": 96,
          "midi": 62,
          "name": "D4",
          "ticks": 20640,
          "time": 56.08694249999999,
          "velocity": 0.7480314960629921
        },
        {
          "duration": 0.2608695000000054,
          "durationTicks": 96,
          "midi": 67,
          "name": "G4",
          "ticks": 20640,
          "time": 56.08694249999999,
          "velocity": 0.7480314960629921
        },
        {
          "duration": 0.2608695000000054,
          "durationTicks": 96,
          "midi": 50,
          "name": "D3",
          "ticks": 20640,
          "time": 56.08694249999999,
          "velocity": 0.7480314960629921
        },
        {
          "duration": 0.2608694999999983,
          "durationTicks": 96,
          "midi": 74,
          "name": "D5",
          "ticks": 20736,
          "time": 56.347812,
          "velocity": 0.7480314960629921
        },
        {
          "duration": 0.5217389999999966,
          "durationTicks": 192,
          "midi": 52,
          "name": "E3",
          "ticks": 20736,
          "time": 56.347812,
          "velocity": 0.7480314960629921
        },
        {
          "duration": 0.2608694999999983,
          "durationTicks": 96,
          "midi": 67,
          "name": "G4",
          "ticks": 20832,
          "time": 56.608681499999996,
          "velocity": 0.7480314960629921
        },
        {
          "duration": 0.2608694999999983,
          "durationTicks": 96,
          "midi": 62,
          "name": "D4",
          "ticks": 20832,
          "time": 56.608681499999996,
          "velocity": 0.7480314960629921
        },
        {
          "duration": 1.3043474999999987,
          "durationTicks": 480,
          "midi": 71,
          "name": "B4",
          "ticks": 20832,
          "time": 56.608681499999996,
          "velocity": 0.7480314960629921
        },
        {
          "duration": 0.2608694999999983,
          "durationTicks": 96,
          "midi": 67,
          "name": "G4",
          "ticks": 20928,
          "time": 56.869550999999994,
          "velocity": 0.7480314960629921
        },
        {
          "duration": 0.2608694999999983,
          "durationTicks": 96,
          "midi": 52,
          "name": "E3",
          "ticks": 20928,
          "time": 56.869550999999994,
          "velocity": 0.7480314960629921
        },
        {
          "duration": 0.2608694999999983,
          "durationTicks": 96,
          "midi": 62,
          "name": "D4",
          "ticks": 20928,
          "time": 56.869550999999994,
          "velocity": 0.7480314960629921
        },
        {
          "duration": 0.2608695000000054,
          "durationTicks": 96,
          "midi": 62,
          "name": "D4",
          "ticks": 21024,
          "time": 57.13042049999999,
          "velocity": 0.7480314960629921
        },
        {
          "duration": 0.2608695000000054,
          "durationTicks": 96,
          "midi": 67,
          "name": "G4",
          "ticks": 21024,
          "time": 57.13042049999999,
          "velocity": 0.7480314960629921
        },
        {
          "duration": 0.2608695000000054,
          "durationTicks": 96,
          "midi": 55,
          "name": "G3",
          "ticks": 21024,
          "time": 57.13042049999999,
          "velocity": 0.7480314960629921
        },
        {
          "duration": 0.7826084999999949,
          "durationTicks": 288,
          "midi": 53,
          "name": "F3",
          "ticks": 21120,
          "time": 57.39129,
          "velocity": 0.7480314960629921
        },
        {
          "duration": 1.0434779999999932,
          "durationTicks": 384,
          "midi": 67,
          "name": "G4",
          "ticks": 21120,
          "time": 57.39129,
          "velocity": 0.7480314960629921
        },
        {
          "duration": 1.0434779999999932,
          "durationTicks": 384,
          "midi": 62,
          "name": "D4",
          "ticks": 21120,
          "time": 57.39129,
          "velocity": 0.7480314960629921
        },
        {
          "duration": 0.2608694999999983,
          "durationTicks": 96,
          "midi": 69,
          "name": "A4",
          "ticks": 21312,
          "time": 57.913028999999995,
          "velocity": 0.7480314960629921
        },
        {
          "duration": 0.2608694999999983,
          "durationTicks": 96,
          "midi": 71,
          "name": "B4",
          "ticks": 21408,
          "time": 58.17389849999999,
          "velocity": 0.7480314960629921
        },
        {
          "duration": 0.2608694999999983,
          "durationTicks": 96,
          "midi": 55,
          "name": "G3",
          "ticks": 21408,
          "time": 58.17389849999999,
          "velocity": 0.7480314960629921
        },
        {
          "duration": 0.782608500000002,
          "durationTicks": 288,
          "midi": 69,
          "name": "A4",
          "ticks": 21504,
          "time": 58.43476799999999,
          "velocity": 0.7480314960629921
        },
        {
          "duration": 0.782608500000002,
          "durationTicks": 288,
          "midi": 48,
          "name": "C3",
          "ticks": 21504,
          "time": 58.43476799999999,
          "velocity": 0.7480314960629921
        },
        {
          "duration": 0.5217389999999966,
          "durationTicks": 192,
          "midi": 64,
          "name": "E4",
          "ticks": 21696,
          "time": 58.956506999999995,
          "velocity": 0.7480314960629921
        },
        {
          "duration": 0.5217389999999966,
          "durationTicks": 192,
          "midi": 60,
          "name": "C4",
          "ticks": 21696,
          "time": 58.956506999999995,
          "velocity": 0.7480314960629921
        },
        {
          "duration": 0.13043474999999916,
          "durationTicks": 48,
          "midi": 71,
          "name": "B4",
          "ticks": 21792,
          "time": 59.21737649999999,
          "velocity": 0.7480314960629921
        },
        {
          "duration": 0.2608694999999983,
          "durationTicks": 96,
          "midi": 48,
          "name": "C3",
          "ticks": 21792,
          "time": 59.21737649999999,
          "velocity": 0.7480314960629921
        },
        {
          "duration": 0.13043474999999916,
          "durationTicks": 48,
          "midi": 69,
          "name": "A4",
          "ticks": 21840,
          "time": 59.34781124999999,
          "velocity": 0.7480314960629921
        },
        {
          "duration": 0.782608500000002,
          "durationTicks": 288,
          "midi": 67,
          "name": "G4",
          "ticks": 21888,
          "time": 59.47824599999999,
          "velocity": 0.7480314960629921
        },
        {
          "duration": 0.782608500000002,
          "durationTicks": 288,
          "midi": 48,
          "name": "C3",
          "ticks": 21888,
          "time": 59.47824599999999,
          "velocity": 0.7480314960629921
        },
        {
          "duration": 0.2608694999999983,
          "durationTicks": 96,
          "midi": 63,
          "name": "D#4",
          "ticks": 22080,
          "time": 59.999984999999995,
          "velocity": 0.7480314960629921
        },
        {
          "duration": 0.2608694999999983,
          "durationTicks": 96,
          "midi": 60,
          "name": "C4",
          "ticks": 22080,
          "time": 59.999984999999995,
          "velocity": 0.7480314960629921
        },
        {
          "duration": 0.2608694999999983,
          "durationTicks": 96,
          "midi": 60,
          "name": "C4",
          "ticks": 22176,
          "time": 60.26085449999999,
          "velocity": 0.7480314960629921
        },
        {
          "duration": 0.2608694999999983,
          "durationTicks": 96,
          "midi": 63,
          "name": "D#4",
          "ticks": 22176,
          "time": 60.26085449999999,
          "velocity": 0.7480314960629921
        },
        {
          "duration": 0.2608694999999983,
          "durationTicks": 96,
          "midi": 48,
          "name": "C3",
          "ticks": 22176,
          "time": 60.26085449999999,
          "velocity": 0.7480314960629921
        },
        {
          "duration": 0.2608695000000054,
          "durationTicks": 96,
          "midi": 62,
          "name": "D4",
          "ticks": 22272,
          "time": 60.52172399999999,
          "velocity": 0.7480314960629921
        },
        {
          "duration": 0.2608695000000054,
          "durationTicks": 96,
          "midi": 59,
          "name": "B3",
          "ticks": 22272,
          "time": 60.52172399999999,
          "velocity": 0.7480314960629921
        },
        {
          "duration": 0.782608500000002,
          "durationTicks": 288,
          "midi": 43,
          "name": "G2",
          "ticks": 22272,
          "time": 60.52172399999999,
          "velocity": 0.7480314960629921
        },
        {
          "duration": 0.5217389999999966,
          "durationTicks": 192,
          "midi": 71,
          "name": "B4",
          "ticks": 22368,
          "time": 60.7825935,
          "velocity": 0.7480314960629921
        },
        {
          "duration": 0.5217389999999966,
          "durationTicks": 192,
          "midi": 62,
          "name": "D4",
          "ticks": 22368,
          "time": 60.7825935,
          "velocity": 0.7480314960629921
        },
        {
          "duration": 0.5217389999999966,
          "durationTicks": 192,
          "midi": 67,
          "name": "G4",
          "ticks": 22368,
          "time": 60.7825935,
          "velocity": 0.7480314960629921
        },
        {
          "duration": 0.782608500000002,
          "durationTicks": 288,
          "midi": 71,
          "name": "B4",
          "ticks": 22560,
          "time": 61.304332499999994,
          "velocity": 0.7480314960629921
        },
        {
          "duration": 0.782608500000002,
          "durationTicks": 288,
          "midi": 62,
          "name": "D4",
          "ticks": 22560,
          "time": 61.304332499999994,
          "velocity": 0.7480314960629921
        },
        {
          "duration": 0.782608500000002,
          "durationTicks": 288,
          "midi": 67,
          "name": "G4",
          "ticks": 22560,
          "time": 61.304332499999994,
          "velocity": 0.7480314960629921
        },
        {
          "duration": 0.782608500000002,
          "durationTicks": 288,
          "midi": 43,
          "name": "G2",
          "ticks": 22560,
          "time": 61.304332499999994,
          "velocity": 0.7480314960629921
        },
        {
          "duration": 0.2608694999999983,
          "durationTicks": 96,
          "midi": 43,
          "name": "G2",
          "ticks": 22848,
          "time": 62.086940999999996,
          "velocity": 0.7480314960629921
        },
        {
          "duration": 0.2608694999999983,
          "durationTicks": 96,
          "midi": 67,
          "name": "G4",
          "ticks": 22848,
          "time": 62.086940999999996,
          "velocity": 0.7480314960629921
        },
        {
          "duration": 0.5217389999999966,
          "durationTicks": 192,
          "midi": 59,
          "name": "B3",
          "ticks": 22848,
          "time": 62.086940999999996,
          "velocity": 0.7480314960629921
        },
        {
          "duration": 0.5217389999999966,
          "durationTicks": 192,
          "midi": 62,
          "name": "D4",
          "ticks": 22848,
          "time": 62.086940999999996,
          "velocity": 0.7480314960629921
        },
        {
          "duration": 0.2608694999999983,
          "durationTicks": 96,
          "midi": 42,
          "name": "F#2",
          "ticks": 22944,
          "time": 62.347810499999994,
          "velocity": 0.7480314960629921
        },
        {
          "duration": 0.2608694999999983,
          "durationTicks": 96,
          "midi": 69,
          "name": "A4",
          "ticks": 22944,
          "time": 62.347810499999994,
          "velocity": 0.7480314960629921
        },
        {
          "duration": 0.2608694999999983,
          "durationTicks": 96,
          "midi": 71,
          "name": "B4",
          "ticks": 23040,
          "time": 62.60867999999999,
          "velocity": 0.7480314960629921
        },
        {
          "duration": 0.2608694999999983,
          "durationTicks": 96,
          "midi": 66,
          "name": "F#4",
          "ticks": 23040,
          "time": 62.60867999999999,
          "velocity": 0.7480314960629921
        },
        {
          "duration": 0.5217390000000037,
          "durationTicks": 192,
          "midi": 62,
          "name": "D4",
          "ticks": 23040,
          "time": 62.60867999999999,
          "velocity": 0.7480314960629921
        },
        {
          "duration": 0.782608500000002,
          "durationTicks": 288,
          "midi": 40,
          "name": "E2",
          "ticks": 23040,
          "time": 62.60867999999999,
          "velocity": 0.7480314960629921
        },
        {
          "duration": 0.2608695000000054,
          "durationTicks": 96,
          "midi": 69,
          "name": "A4",
          "ticks": 23136,
          "time": 62.86954949999999,
          "velocity": 0.7480314960629921
        },
        {
          "duration": 0.2608695000000054,
          "durationTicks": 96,
          "midi": 64,
          "name": "E4",
          "ticks": 23136,
          "time": 62.86954949999999,
          "velocity": 0.7480314960629921
        },
        {
          "duration": 0.2608694999999983,
          "durationTicks": 96,
          "midi": 69,
          "name": "A4",
          "ticks": 23232,
          "time": 63.130418999999996,
          "velocity": 0.7480314960629921
        },
        {
          "duration": 0.2608694999999983,
          "durationTicks": 96,
          "midi": 64,
          "name": "E4",
          "ticks": 23232,
          "time": 63.130418999999996,
          "velocity": 0.7480314960629921
        },
        {
          "duration": 0.5217389999999966,
          "durationTicks": 192,
          "midi": 59,
          "name": "B3",
          "ticks": 23232,
          "time": 63.130418999999996,
          "velocity": 0.7480314960629921
        },
        {
          "duration": 0.2608694999999983,
          "durationTicks": 96,
          "midi": 67,
          "name": "G4",
          "ticks": 23328,
          "time": 63.391288499999995,
          "velocity": 0.7480314960629921
        },
        {
          "duration": 0.2608694999999983,
          "durationTicks": 96,
          "midi": 62,
          "name": "D4",
          "ticks": 23328,
          "time": 63.391288499999995,
          "velocity": 0.7480314960629921
        },
        {
          "duration": 0.2608694999999983,
          "durationTicks": 96,
          "midi": 40,
          "name": "E2",
          "ticks": 23328,
          "time": 63.391288499999995,
          "velocity": 0.7480314960629921
        },
        {
          "duration": 0.2608694999999983,
          "durationTicks": 96,
          "midi": 67,
          "name": "G4",
          "ticks": 23424,
          "time": 63.65215799999999,
          "velocity": 0.7480314960629921
        },
        {
          "duration": 0.2608694999999983,
          "durationTicks": 96,
          "midi": 62,
          "name": "D4",
          "ticks": 23424,
          "time": 63.65215799999999,
          "velocity": 0.7480314960629921
        },
        {
          "duration": 0.5217390000000037,
          "durationTicks": 192,
          "midi": 55,
          "name": "G3",
          "ticks": 23424,
          "time": 63.65215799999999,
          "velocity": 0.7480314960629921
        },
        {
          "duration": 1.0434780000000003,
          "durationTicks": 384,
          "midi": 40,
          "name": "E2",
          "ticks": 23424,
          "time": 63.65215799999999,
          "velocity": 0.7480314960629921
        },
        {
          "duration": 0.2608695000000054,
          "durationTicks": 96,
          "midi": 64,
          "name": "E4",
          "ticks": 23520,
          "time": 63.91302749999999,
          "velocity": 0.7480314960629921
        },
        {
          "duration": 0.2608695000000054,
          "durationTicks": 96,
          "midi": 59,
          "name": "B3",
          "ticks": 23520,
          "time": 63.91302749999999,
          "velocity": 0.7480314960629921
        },
        {
          "duration": 0.2608694999999983,
          "durationTicks": 96,
          "midi": 64,
          "name": "E4",
          "ticks": 23616,
          "time": 64.173897,
          "velocity": 0.7480314960629921
        },
        {
          "duration": 0.2608694999999983,
          "durationTicks": 96,
          "midi": 59,
          "name": "B3",
          "ticks": 23616,
          "time": 64.173897,
          "velocity": 0.7480314960629921
        },
        {
          "duration": 0.2608694999999983,
          "durationTicks": 96,
          "midi": 55,
          "name": "G3",
          "ticks": 23616,
          "time": 64.173897,
          "velocity": 0.7480314960629921
        },
        {
          "duration": 0.2608694999999983,
          "durationTicks": 96,
          "midi": 67,
          "name": "G4",
          "ticks": 23712,
          "time": 64.4347665,
          "velocity": 0.7480314960629921
        },
        {
          "duration": 0.2608694999999983,
          "durationTicks": 96,
          "midi": 62,
          "name": "D4",
          "ticks": 23712,
          "time": 64.4347665,
          "velocity": 0.7480314960629921
        },
        {
          "duration": 0.2608694999999983,
          "durationTicks": 96,
          "midi": 59,
          "name": "B3",
          "ticks": 23712,
          "time": 64.4347665,
          "velocity": 0.7480314960629921
        },
        {
          "duration": 0.2608694999999983,
          "durationTicks": 96,
          "midi": 64,
          "name": "E4",
          "ticks": 23808,
          "time": 64.695636,
          "velocity": 0.7480314960629921
        },
        {
          "duration": 0.2608694999999983,
          "durationTicks": 96,
          "midi": 60,
          "name": "C4",
          "ticks": 23808,
          "time": 64.695636,
          "velocity": 0.7480314960629921
        },
        {
          "duration": 0.2608694999999983,
          "durationTicks": 96,
          "midi": 71,
          "name": "B4",
          "ticks": 23808,
          "time": 64.695636,
          "velocity": 0.7480314960629921
        },
        {
          "duration": 0.7826084999999949,
          "durationTicks": 288,
          "midi": 48,
          "name": "C3",
          "ticks": 23808,
          "time": 64.695636,
          "velocity": 0.7480314960629921
        },
        {
          "duration": 0.2608694999999983,
          "durationTicks": 96,
          "midi": 64,
          "name": "E4",
          "ticks": 23904,
          "time": 64.95650549999999,
          "velocity": 0.7480314960629921
        },
        {
          "duration": 0.2608694999999983,
          "durationTicks": 96,
          "midi": 60,
          "name": "C4",
          "ticks": 23904,
          "time": 64.95650549999999,
          "velocity": 0.7480314960629921
        },
        {
          "duration": 0.7826085000000091,
          "durationTicks": 288,
          "midi": 69,
          "name": "A4",
          "ticks": 23904,
          "time": 64.95650549999999,
          "velocity": 0.7480314960629921
        },
        {
          "duration": 0.2608694999999983,
          "durationTicks": 96,
          "midi": 64,
          "name": "E4",
          "ticks": 24000,
          "time": 65.21737499999999,
          "velocity": 0.7480314960629921
        },
        {
          "duration": 0.2608694999999983,
          "durationTicks": 96,
          "midi": 60,
          "name": "C4",
          "ticks": 24000,
          "time": 65.21737499999999,
          "velocity": 0.7480314960629921
        },
        {
          "duration": 0.2608695000000125,
          "durationTicks": 96,
          "midi": 64,
          "name": "E4",
          "ticks": 24096,
          "time": 65.47824449999999,
          "velocity": 0.7480314960629921
        },
        {
          "duration": 0.2608695000000125,
          "durationTicks": 96,
          "midi": 60,
          "name": "C4",
          "ticks": 24096,
          "time": 65.47824449999999,
          "velocity": 0.7480314960629921
        },
        {
          "duration": 0.2608695000000125,
          "durationTicks": 96,
          "midi": 48,
          "name": "C3",
          "ticks": 24096,
          "time": 65.47824449999999,
          "velocity": 0.7480314960629921
        },
        {
          "duration": 0.2608694999999983,
          "durationTicks": 96,
          "midi": 64,
          "name": "E4",
          "ticks": 24192,
          "time": 65.739114,
          "velocity": 0.7480314960629921
        },
        {
          "duration": 0.2608694999999983,
          "durationTicks": 96,
          "midi": 60,
          "name": "C4",
          "ticks": 24192,
          "time": 65.739114,
          "velocity": 0.7480314960629921
        },
        {
          "duration": 0.5217389999999966,
          "durationTicks": 192,
          "midi": 48,
          "name": "C3",
          "ticks": 24192,
          "time": 65.739114,
          "velocity": 0.7480314960629921
        },
        {
          "duration": 0.2608694999999983,
          "durationTicks": 96,
          "midi": 64,
          "name": "E4",
          "ticks": 24288,
          "time": 65.9999835,
          "velocity": 0.7480314960629921
        },
        {
          "duration": 0.2608694999999983,
          "durationTicks": 96,
          "midi": 60,
          "name": "C4",
          "ticks": 24288,
          "time": 65.9999835,
          "velocity": 0.7480314960629921
        },
        {
          "duration": 0.2608694999999983,
          "durationTicks": 96,
          "midi": 67,
          "name": "G4",
          "ticks": 24384,
          "time": 66.260853,
          "velocity": 0.7480314960629921
        },
        {
          "duration": 0.2608694999999983,
          "durationTicks": 96,
          "midi": 48,
          "name": "C3",
          "ticks": 24384,
          "time": 66.260853,
          "velocity": 0.7480314960629921
        },
        {
          "duration": 0.5217389999999966,
          "durationTicks": 192,
          "midi": 64,
          "name": "E4",
          "ticks": 24384,
          "time": 66.260853,
          "velocity": 0.7480314960629921
        },
        {
          "duration": 0.5217389999999966,
          "durationTicks": 192,
          "midi": 60,
          "name": "C4",
          "ticks": 24384,
          "time": 66.260853,
          "velocity": 0.7480314960629921
        },
        {
          "duration": 0.2608694999999983,
          "durationTicks": 96,
          "midi": 71,
          "name": "B4",
          "ticks": 24480,
          "time": 66.5217225,
          "velocity": 0.7480314960629921
        },
        {
          "duration": 0.2608694999999983,
          "durationTicks": 96,
          "midi": 50,
          "name": "D3",
          "ticks": 24480,
          "time": 66.5217225,
          "velocity": 0.7480314960629921
        },
        {
          "duration": 0.2608694999999983,
          "durationTicks": 96,
          "midi": 72,
          "name": "C5",
          "ticks": 24576,
          "time": 66.782592,
          "velocity": 0.7480314960629921
        },
        {
          "duration": 0.7826084999999949,
          "durationTicks": 288,
          "midi": 60,
          "name": "C4",
          "ticks": 24576,
          "time": 66.782592,
          "velocity": 0.7480314960629921
        },
        {
          "duration": 0.7826084999999949,
          "durationTicks": 288,
          "midi": 41,
          "name": "F2",
          "ticks": 24576,
          "time": 66.782592,
          "velocity": 0.7480314960629921
        },
        {
          "duration": 0.7826084999999949,
          "durationTicks": 288,
          "midi": 65,
          "name": "F4",
          "ticks": 24576,
          "time": 66.782592,
          "velocity": 0.7480314960629921
        },
        {
          "duration": 0.2608694999999983,
          "durationTicks": 96,
          "midi": 71,
          "name": "B4",
          "ticks": 24672,
          "time": 67.04346149999999,
          "velocity": 0.7480314960629921
        },
        {
          "duration": 0.2608694999999983,
          "durationTicks": 96,
          "midi": 69,
          "name": "A4",
          "ticks": 24768,
          "time": 67.30433099999999,
          "velocity": 0.7480314960629921
        },
        {
          "duration": 0.7826085000000091,
          "durationTicks": 288,
          "midi": 67,
          "name": "G4",
          "ticks": 24864,
          "time": 67.56520049999999,
          "velocity": 0.7480314960629921
        },
        {
          "duration": 0.5217390000000108,
          "durationTicks": 192,
          "midi": 60,
          "name": "C4",
          "ticks": 24864,
          "time": 67.56520049999999,
          "velocity": 0.7480314960629921
        },
        {
          "duration": 0.5217390000000108,
          "durationTicks": 192,
          "midi": 57,
          "name": "A3",
          "ticks": 24864,
          "time": 67.56520049999999,
          "velocity": 0.7480314960629921
        },
        {
          "duration": 0.2608694999999983,
          "durationTicks": 96,
          "midi": 41,
          "name": "F2",
          "ticks": 24864,
          "time": 67.56520049999999,
          "velocity": 0.7480314960629921
        },
        {
          "duration": 0.7826085000000091,
          "durationTicks": 288,
          "midi": 41,
          "name": "F2",
          "ticks": 24960,
          "time": 67.82606999999999,
          "velocity": 0.7480314960629921
        },
        {
          "duration": 0.2608694999999983,
          "durationTicks": 96,
          "midi": 60,
          "name": "C4",
          "ticks": 25056,
          "time": 68.0869395,
          "velocity": 0.7480314960629921
        },
        {
          "duration": 0.2608694999999983,
          "durationTicks": 96,
          "midi": 57,
          "name": "A3",
          "ticks": 25056,
          "time": 68.0869395,
          "velocity": 0.7480314960629921
        },
        {
          "duration": 0.2608694999999983,
          "durationTicks": 96,
          "midi": 60,
          "name": "C4",
          "ticks": 25152,
          "time": 68.347809,
          "velocity": 0.7480314960629921
        },
        {
          "duration": 0.2608694999999983,
          "durationTicks": 96,
          "midi": 57,
          "name": "A3",
          "ticks": 25152,
          "time": 68.347809,
          "velocity": 0.7480314960629921
        },
        {
          "duration": 0.2608694999999983,
          "durationTicks": 96,
          "midi": 60,
          "name": "C4",
          "ticks": 25248,
          "time": 68.6086785,
          "velocity": 0.7480314960629921
        },
        {
          "duration": 0.2608694999999983,
          "durationTicks": 96,
          "midi": 57,
          "name": "A3",
          "ticks": 25248,
          "time": 68.6086785,
          "velocity": 0.7480314960629921
        },
        {
          "duration": 0.2608694999999983,
          "durationTicks": 96,
          "midi": 64,
          "name": "E4",
          "ticks": 25248,
          "time": 68.6086785,
          "velocity": 0.7480314960629921
        },
        {
          "duration": 0.2608694999999983,
          "durationTicks": 96,
          "midi": 41,
          "name": "F2",
          "ticks": 25248,
          "time": 68.6086785,
          "velocity": 0.7480314960629921
        },
        {
          "duration": 0.2608694999999983,
          "durationTicks": 96,
          "midi": 59,
          "name": "B3",
          "ticks": 25344,
          "time": 68.869548,
          "velocity": 0.7480314960629921
        },
        {
          "duration": 0.2608694999999983,
          "durationTicks": 96,
          "midi": 62,
          "name": "D4",
          "ticks": 25344,
          "time": 68.869548,
          "velocity": 0.7480314960629921
        },
        {
          "duration": 0.2608694999999983,
          "durationTicks": 96,
          "midi": 43,
          "name": "G2",
          "ticks": 25344,
          "time": 68.869548,
          "velocity": 0.7480314960629921
        },
        {
          "duration": 0.2608694999999983,
          "durationTicks": 96,
          "midi": 62,
          "name": "D4",
          "ticks": 25440,
          "time": 69.1304175,
          "velocity": 0.7480314960629921
        },
        {
          "duration": 0.2608694999999983,
          "durationTicks": 96,
          "midi": 67,
          "name": "G4",
          "ticks": 25440,
          "time": 69.1304175,
          "velocity": 0.7480314960629921
        },
        {
          "duration": 0.2608694999999983,
          "durationTicks": 96,
          "midi": 71,
          "name": "B4",
          "ticks": 25440,
          "time": 69.1304175,
          "velocity": 0.7480314960629921
        },
        {
          "duration": 0.2608694999999983,
          "durationTicks": 96,
          "midi": 43,
          "name": "G2",
          "ticks": 25440,
          "time": 69.1304175,
          "velocity": 0.7480314960629921
        },
        {
          "duration": 0.2608694999999983,
          "durationTicks": 96,
          "midi": 62,
          "name": "D4",
          "ticks": 25536,
          "time": 69.39128699999999,
          "velocity": 0.7480314960629921
        },
        {
          "duration": 0.2608694999999983,
          "durationTicks": 96,
          "midi": 67,
          "name": "G4",
          "ticks": 25536,
          "time": 69.39128699999999,
          "velocity": 0.7480314960629921
        },
        {
          "duration": 0.2608694999999983,
          "durationTicks": 96,
          "midi": 71,
          "name": "B4",
          "ticks": 25536,
          "time": 69.39128699999999,
          "velocity": 0.7480314960629921
        },
        {
          "duration": 0.2608694999999983,
          "durationTicks": 96,
          "midi": 43,
          "name": "G2",
          "ticks": 25536,
          "time": 69.39128699999999,
          "velocity": 0.7480314960629921
        },
        {
          "duration": 0.7826085000000091,
          "durationTicks": 288,
          "midi": 62,
          "name": "D4",
          "ticks": 25632,
          "time": 69.65215649999999,
          "velocity": 0.7480314960629921
        },
        {
          "duration": 0.7826085000000091,
          "durationTicks": 288,
          "midi": 67,
          "name": "G4",
          "ticks": 25632,
          "time": 69.65215649999999,
          "velocity": 0.7480314960629921
        },
        {
          "duration": 0.7826085000000091,
          "durationTicks": 288,
          "midi": 71,
          "name": "B4",
          "ticks": 25632,
          "time": 69.65215649999999,
          "velocity": 0.7480314960629921
        },
        {
          "duration": 0.2608694999999983,
          "durationTicks": 96,
          "midi": 43,
          "name": "G2",
          "ticks": 25632,
          "time": 69.65215649999999,
          "velocity": 0.7480314960629921
        },
        {
          "duration": 0.2608694999999983,
          "durationTicks": 96,
          "midi": 67,
          "name": "G4",
          "ticks": 25920,
          "time": 70.434765,
          "velocity": 0.7480314960629921
        },
        {
          "duration": 0.2608694999999983,
          "durationTicks": 96,
          "midi": 43,
          "name": "G2",
          "ticks": 25920,
          "time": 70.434765,
          "velocity": 0.7480314960629921
        },
        {
          "duration": 0.5217389999999966,
          "durationTicks": 192,
          "midi": 62,
          "name": "D4",
          "ticks": 25920,
          "time": 70.434765,
          "velocity": 0.7480314960629921
        },
        {
          "duration": 0.5217389999999966,
          "durationTicks": 192,
          "midi": 59,
          "name": "B3",
          "ticks": 25920,
          "time": 70.434765,
          "velocity": 0.7480314960629921
        },
        {
          "duration": 0.2608694999999983,
          "durationTicks": 96,
          "midi": 69,
          "name": "A4",
          "ticks": 26016,
          "time": 70.6956345,
          "velocity": 0.7480314960629921
        },
        {
          "duration": 0.2608694999999983,
          "durationTicks": 96,
          "midi": 42,
          "name": "F#2",
          "ticks": 26016,
          "time": 70.6956345,
          "velocity": 0.7480314960629921
        },
        {
          "duration": 0.2608694999999983,
          "durationTicks": 96,
          "midi": 71,
          "name": "B4",
          "ticks": 26112,
          "time": 70.956504,
          "velocity": 0.7480314960629921
        },
        {
          "duration": 0.2608694999999983,
          "durationTicks": 96,
          "midi": 66,
          "name": "F#4",
          "ticks": 26112,
          "time": 70.956504,
          "velocity": 0.7480314960629921
        },
        {
          "duration": 0.5217389999999966,
          "durationTicks": 192,
          "midi": 62,
          "name": "D4",
          "ticks": 26112,
          "time": 70.956504,
          "velocity": 0.7480314960629921
        },
        {
          "duration": 0.7826084999999949,
          "durationTicks": 288,
          "midi": 40,
          "name": "E2",
          "ticks": 26112,
          "time": 70.956504,
          "velocity": 0.7480314960629921
        },
        {
          "duration": 0.2608694999999983,
          "durationTicks": 96,
          "midi": 69,
          "name": "A4",
          "ticks": 26208,
          "time": 71.2173735,
          "velocity": 0.7480314960629921
        },
        {
          "duration": 0.2608694999999983,
          "durationTicks": 96,
          "midi": 64,
          "name": "E4",
          "ticks": 26208,
          "time": 71.2173735,
          "velocity": 0.7480314960629921
        },
        {
          "duration": 0.2608694999999983,
          "durationTicks": 96,
          "midi": 69,
          "name": "A4",
          "ticks": 26304,
          "time": 71.47824299999999,
          "velocity": 0.7480314960629921
        },
        {
          "duration": 0.2608694999999983,
          "durationTicks": 96,
          "midi": 64,
          "name": "E4",
          "ticks": 26304,
          "time": 71.47824299999999,
          "velocity": 0.7480314960629921
        },
        {
          "duration": 0.5217389999999966,
          "durationTicks": 192,
          "midi": 59,
          "name": "B3",
          "ticks": 26304,
          "time": 71.47824299999999,
          "velocity": 0.7480314960629921
        },
        {
          "duration": 0.2608694999999983,
          "durationTicks": 96,
          "midi": 67,
          "name": "G4",
          "ticks": 26400,
          "time": 71.73911249999999,
          "velocity": 0.7480314960629921
        },
        {
          "duration": 0.2608694999999983,
          "durationTicks": 96,
          "midi": 62,
          "name": "D4",
          "ticks": 26400,
          "time": 71.73911249999999,
          "velocity": 0.7480314960629921
        },
        {
          "duration": 0.2608694999999983,
          "durationTicks": 96,
          "midi": 40,
          "name": "E2",
          "ticks": 26400,
          "time": 71.73911249999999,
          "velocity": 0.7480314960629921
        },
        {
          "duration": 0.2608694999999983,
          "durationTicks": 96,
          "midi": 67,
          "name": "G4",
          "ticks": 26496,
          "time": 71.99998199999999,
          "velocity": 0.7480314960629921
        },
        {
          "duration": 0.2608694999999983,
          "durationTicks": 96,
          "midi": 62,
          "name": "D4",
          "ticks": 26496,
          "time": 71.99998199999999,
          "velocity": 0.7480314960629921
        },
        {
          "duration": 0.5217390000000108,
          "durationTicks": 192,
          "midi": 55,
          "name": "G3",
          "ticks": 26496,
          "time": 71.99998199999999,
          "velocity": 0.7480314960629921
        },
        {
          "duration": 1.0434780000000075,
          "durationTicks": 384,
          "midi": 40,
          "name": "E2",
          "ticks": 26496,
          "time": 71.99998199999999,
          "velocity": 0.7480314960629921
        },
        {
          "duration": 0.2608695000000125,
          "durationTicks": 96,
          "midi": 64,
          "name": "E4",
          "ticks": 26592,
          "time": 72.26085149999999,
          "velocity": 0.7480314960629921
        },
        {
          "duration": 0.2608695000000125,
          "durationTicks": 96,
          "midi": 59,
          "name": "B3",
          "ticks": 26592,
          "time": 72.26085149999999,
          "velocity": 0.7480314960629921
        },
        {
          "duration": 0.2608694999999983,
          "durationTicks": 96,
          "midi": 64,
          "name": "E4",
          "ticks": 26688,
          "time": 72.521721,
          "velocity": 0.7480314960629921
        },
        {
          "duration": 0.2608694999999983,
          "durationTicks": 96,
          "midi": 59,
          "name": "B3",
          "ticks": 26688,
          "time": 72.521721,
          "velocity": 0.7480314960629921
        },
        {
          "duration": 0.2608694999999983,
          "durationTicks": 96,
          "midi": 55,
          "name": "G3",
          "ticks": 26688,
          "time": 72.521721,
          "velocity": 0.7480314960629921
        },
        {
          "duration": 0.2608694999999983,
          "durationTicks": 96,
          "midi": 67,
          "name": "G4",
          "ticks": 26784,
          "time": 72.7825905,
          "velocity": 0.7480314960629921
        },
        {
          "duration": 0.2608694999999983,
          "durationTicks": 96,
          "midi": 62,
          "name": "D4",
          "ticks": 26784,
          "time": 72.7825905,
          "velocity": 0.7480314960629921
        },
        {
          "duration": 0.2608694999999983,
          "durationTicks": 96,
          "midi": 59,
          "name": "B3",
          "ticks": 26784,
          "time": 72.7825905,
          "velocity": 0.7480314960629921
        },
        {
          "duration": 0.2608694999999983,
          "durationTicks": 96,
          "midi": 71,
          "name": "B4",
          "ticks": 26880,
          "time": 73.04346,
          "velocity": 0.7480314960629921
        },
        {
          "duration": 0.7826084999999949,
          "durationTicks": 288,
          "midi": 45,
          "name": "A2",
          "ticks": 26880,
          "time": 73.04346,
          "velocity": 0.7480314960629921
        },
        {
          "duration": 1.0434779999999932,
          "durationTicks": 384,
          "midi": 61,
          "name": "C#4",
          "ticks": 26880,
          "time": 73.04346,
          "velocity": 0.7480314960629921
        },
        {
          "duration": 1.0434779999999932,
          "durationTicks": 384,
          "midi": 67,
          "name": "G4",
          "ticks": 26880,
          "time": 73.04346,
          "velocity": 0.7480314960629921
        },
        {
          "duration": 0.5217389999999966,
          "durationTicks": 192,
          "midi": 69,
          "name": "A4",
          "ticks": 26976,
          "time": 73.3043295,
          "velocity": 0.7480314960629921
        },
        {
          "duration": 0.2608694999999983,
          "durationTicks": 96,
          "midi": 45,
          "name": "A2",
          "ticks": 27168,
          "time": 73.82606849999999,
          "velocity": 0.7480314960629921
        },
        {
          "duration": 0.2608694999999983,
          "durationTicks": 96,
          "midi": 64,
          "name": "E4",
          "ticks": 27264,
          "time": 74.08693799999999,
          "velocity": 0.7480314960629921
        },
        {
          "duration": 0.2608694999999983,
          "durationTicks": 96,
          "midi": 67,
          "name": "G4",
          "ticks": 27264,
          "time": 74.08693799999999,
          "velocity": 0.7480314960629921
        },
        {
          "duration": 0.2608694999999983,
          "durationTicks": 96,
          "midi": 61,
          "name": "C#4",
          "ticks": 27264,
          "time": 74.08693799999999,
          "velocity": 0.7480314960629921
        },
        {
          "duration": 0.7826085000000091,
          "durationTicks": 288,
          "midi": 45,
          "name": "A2",
          "ticks": 27264,
          "time": 74.08693799999999,
          "velocity": 0.7480314960629921
        },
        {
          "duration": 0.2608695000000125,
          "durationTicks": 96,
          "midi": 67,
          "name": "G4",
          "ticks": 27360,
          "time": 74.34780749999999,
          "velocity": 0.7480314960629921
        },
        {
          "duration": 0.2608695000000125,
          "durationTicks": 96,
          "midi": 64,
          "name": "E4",
          "ticks": 27360,
          "time": 74.34780749999999,
          "velocity": 0.7480314960629921
        },
        {
          "duration": 0.2608695000000125,
          "durationTicks": 96,
          "midi": 61,
          "name": "C#4",
          "ticks": 27360,
          "time": 74.34780749999999,
          "velocity": 0.7480314960629921
        },
        {
          "duration": 0.2608694999999983,
          "durationTicks": 96,
          "midi": 67,
          "name": "G4",
          "ticks": 27456,
          "time": 74.608677,
          "velocity": 0.7480314960629921
        },
        {
          "duration": 0.2608694999999983,
          "durationTicks": 96,
          "midi": 64,
          "name": "E4",
          "ticks": 27456,
          "time": 74.608677,
          "velocity": 0.7480314960629921
        },
        {
          "duration": 0.2608694999999983,
          "durationTicks": 96,
          "midi": 61,
          "name": "C#4",
          "ticks": 27456,
          "time": 74.608677,
          "velocity": 0.7480314960629921
        },
        {
          "duration": 0.2608694999999983,
          "durationTicks": 96,
          "midi": 62,
          "name": "D4",
          "ticks": 27552,
          "time": 74.8695465,
          "velocity": 0.7480314960629921
        },
        {
          "duration": 0.2608694999999983,
          "durationTicks": 96,
          "midi": 45,
          "name": "A2",
          "ticks": 27552,
          "time": 74.8695465,
          "velocity": 0.7480314960629921
        },
        {
          "duration": 0.2608694999999983,
          "durationTicks": 96,
          "midi": 71,
          "name": "B4",
          "ticks": 27648,
          "time": 75.130416,
          "velocity": 0.7480314960629921
        },
        {
          "duration": 0.7826084999999949,
          "durationTicks": 288,
          "midi": 48,
          "name": "C3",
          "ticks": 27648,
          "time": 75.130416,
          "velocity": 0.7480314960629921
        },
        {
          "duration": 1.0434779999999932,
          "durationTicks": 384,
          "midi": 63,
          "name": "D#4",
          "ticks": 27648,
          "time": 75.130416,
          "velocity": 0.7480314960629921
        },
        {
          "duration": 1.0434779999999932,
          "durationTicks": 384,
          "midi": 60,
          "name": "C4",
          "ticks": 27648,
          "time": 75.130416,
          "velocity": 0.7480314960629921
        },
        {
          "duration": 0.5217389999999966,
          "durationTicks": 192,
          "midi": 69,
          "name": "A4",
          "ticks": 27744,
          "time": 75.3912855,
          "velocity": 0.7480314960629921
        },
        {
          "duration": 0.13043475000000626,
          "durationTicks": 48,
          "midi": 67,
          "name": "G4",
          "ticks": 27936,
          "time": 75.91302449999999,
          "velocity": 0.7480314960629921
        },
        {
          "duration": 0.2608694999999983,
          "durationTicks": 96,
          "midi": 48,
          "name": "C3",
          "ticks": 27936,
          "time": 75.91302449999999,
          "velocity": 0.7480314960629921
        },
        {
          "duration": 0.13043474999999205,
          "durationTicks": 48,
          "midi": 69,
          "name": "A4",
          "ticks": 27984,
          "time": 76.04345925,
          "velocity": 0.7480314960629921
        },
        {
          "duration": 0.9130432500000012,
          "durationTicks": 336,
          "midi": 48,
          "name": "C3",
          "ticks": 27984,
          "time": 76.04345925,
          "velocity": 0.7480314960629921
        },
        {
          "duration": 0.7826085000000091,
          "durationTicks": 288,
          "midi": 67,
          "name": "G4",
          "ticks": 28032,
          "time": 76.17389399999999,
          "velocity": 0.7480314960629921
        },
        {
          "duration": 0.2608694999999983,
          "durationTicks": 96,
          "midi": 60,
          "name": "C4",
          "ticks": 28320,
          "time": 76.9565025,
          "velocity": 0.7480314960629921
        },
        {
          "duration": 0.2608694999999983,
          "durationTicks": 96,
          "midi": 55,
          "name": "G3",
          "ticks": 28320,
          "time": 76.9565025,
          "velocity": 0.7480314960629921
        },
        {
          "duration": 0.2608694999999983,
          "durationTicks": 96,
          "midi": 60,
          "name": "C4",
          "ticks": 28416,
          "time": 77.217372,
          "velocity": 0.7480314960629921
        },
        {
          "duration": 0.2608694999999983,
          "durationTicks": 96,
          "midi": 55,
          "name": "G3",
          "ticks": 28416,
          "time": 77.217372,
          "velocity": 0.7480314960629921
        },
        {
          "duration": 0.2608694999999983,
          "durationTicks": 96,
          "midi": 63,
          "name": "D#4",
          "ticks": 28416,
          "time": 77.217372,
          "velocity": 0.7480314960629921
        },
        {
          "duration": 0.2608694999999983,
          "durationTicks": 96,
          "midi": 48,
          "name": "C3",
          "ticks": 28416,
          "time": 77.217372,
          "velocity": 0.7480314960629921
        },
        {
          "duration": 0.5217389999999966,
          "durationTicks": 192,
          "midi": 59,
          "name": "B3",
          "ticks": 28512,
          "time": 77.4782415,
          "velocity": 0.7480314960629921
        },
        {
          "duration": 0.5217389999999966,
          "durationTicks": 192,
          "midi": 55,
          "name": "G3",
          "ticks": 28512,
          "time": 77.4782415,
          "velocity": 0.7480314960629921
        },
        {
          "duration": 0.5217389999999966,
          "durationTicks": 192,
          "midi": 62,
          "name": "D4",
          "ticks": 28512,
          "time": 77.4782415,
          "velocity": 0.7480314960629921
        },
        {
          "duration": 0.7826084999999949,
          "durationTicks": 288,
          "midi": 43,
          "name": "G2",
          "ticks": 28512,
          "time": 77.4782415,
          "velocity": 0.7480314960629921
        },
        {
          "duration": 0.2608694999999983,
          "durationTicks": 96,
          "midi": 62,
          "name": "D4",
          "ticks": 28704,
          "time": 77.99998049999999,
          "velocity": 0.7480314960629921
        },
        {
          "duration": 0.2608694999999983,
          "durationTicks": 96,
          "midi": 67,
          "name": "G4",
          "ticks": 28704,
          "time": 77.99998049999999,
          "velocity": 0.7480314960629921
        },
        {
          "duration": 0.2608694999999983,
          "durationTicks": 96,
          "midi": 71,
          "name": "B4",
          "ticks": 28704,
          "time": 77.99998049999999,
          "velocity": 0.7480314960629921
        },
        {
          "duration": 0.7826085000000091,
          "durationTicks": 288,
          "midi": 62,
          "name": "D4",
          "ticks": 28800,
          "time": 78.26084999999999,
          "velocity": 0.7480314960629921
        },
        {
          "duration": 0.7826085000000091,
          "durationTicks": 288,
          "midi": 67,
          "name": "G4",
          "ticks": 28800,
          "time": 78.26084999999999,
          "velocity": 0.7480314960629921
        },
        {
          "duration": 0.7826085000000091,
          "durationTicks": 288,
          "midi": 71,
          "name": "B4",
          "ticks": 28800,
          "time": 78.26084999999999,
          "velocity": 0.7480314960629921
        },
        {
          "duration": 0.2608694999999983,
          "durationTicks": 96,
          "midi": 43,
          "name": "G2",
          "ticks": 28800,
          "time": 78.26084999999999,
          "velocity": 0.7480314960629921
        },
        {
          "duration": 1.0434780000000075,
          "durationTicks": 384,
          "midi": 43,
          "name": "G2",
          "ticks": 28896,
          "time": 78.52171949999999,
          "velocity": 0.7480314960629921
        },
        {
          "duration": 0.2608694999999983,
          "durationTicks": 96,
          "midi": 62,
          "name": "D4",
          "ticks": 29184,
          "time": 79.304328,
          "velocity": 0.7480314960629921
        },
        {
          "duration": 0.2608694999999983,
          "durationTicks": 96,
          "midi": 59,
          "name": "B3",
          "ticks": 29184,
          "time": 79.304328,
          "velocity": 0.7480314960629921
        },
        {
          "duration": 0.2608694999999983,
          "durationTicks": 96,
          "midi": 67,
          "name": "G4",
          "ticks": 29184,
          "time": 79.304328,
          "velocity": 0.7480314960629921
        },
        {
          "duration": 0.2608694999999983,
          "durationTicks": 96,
          "midi": 62,
          "name": "D4",
          "ticks": 29280,
          "time": 79.5651975,
          "velocity": 0.7480314960629921
        },
        {
          "duration": 0.2608694999999983,
          "durationTicks": 96,
          "midi": 59,
          "name": "B3",
          "ticks": 29280,
          "time": 79.5651975,
          "velocity": 0.7480314960629921
        },
        {
          "duration": 0.2608694999999983,
          "durationTicks": 96,
          "midi": 67,
          "name": "G4",
          "ticks": 29280,
          "time": 79.5651975,
          "velocity": 0.7480314960629921
        },
        {
          "duration": 0.5217389999999966,
          "durationTicks": 192,
          "midi": 71,
          "name": "B4",
          "ticks": 29376,
          "time": 79.826067,
          "velocity": 0.7480314960629921
        },
        {
          "duration": 1.0434779999999932,
          "durationTicks": 384,
          "midi": 43,
          "name": "G2",
          "ticks": 29376,
          "time": 79.826067,
          "velocity": 0.7480314960629921
        },
        {
          "duration": 0.5217389999999966,
          "durationTicks": 192,
          "midi": 79,
          "name": "G5",
          "ticks": 29568,
          "time": 80.34780599999999,
          "velocity": 0.7480314960629921
        },
        {
          "duration": 1.565217000000004,
          "durationTicks": 576,
          "midi": 67,
          "name": "G4",
          "ticks": 29568,
          "time": 80.34780599999999,
          "velocity": 0.7480314960629921
        },
        {
          "duration": 0.7826084999999949,
          "durationTicks": 288,
          "midi": 71,
          "name": "B4",
          "ticks": 29568,
          "time": 80.34780599999999,
          "velocity": 0.7480314960629921
        },
        {
          "duration": 1.0434780000000075,
          "durationTicks": 384,
          "midi": 71,
          "name": "B4",
          "ticks": 29760,
          "time": 80.86954499999999,
          "velocity": 0.7480314960629921
        },
        {
          "duration": 0.2608694999999983,
          "durationTicks": 96,
          "midi": 43,
          "name": "G2",
          "ticks": 29760,
          "time": 80.86954499999999,
          "velocity": 0.7480314960629921
        },
        {
          "duration": 0.2608695000000125,
          "durationTicks": 96,
          "midi": 72,
          "name": "C5",
          "ticks": 29856,
          "time": 81.13041449999999,
          "velocity": 0.7480314960629921
        },
        {
          "duration": 0.2608695000000125,
          "durationTicks": 96,
          "midi": 47,
          "name": "B2",
          "ticks": 29856,
          "time": 81.13041449999999,
          "velocity": 0.7480314960629921
        },
        {
          "duration": 0.2608694999999983,
          "durationTicks": 96,
          "midi": 74,
          "name": "D5",
          "ticks": 29952,
          "time": 81.391284,
          "velocity": 0.7480314960629921
        },
        {
          "duration": 0.2608694999999983,
          "durationTicks": 96,
          "midi": 48,
          "name": "C3",
          "ticks": 29952,
          "time": 81.391284,
          "velocity": 0.7480314960629921
        },
        {
          "duration": 1.3043474999999916,
          "durationTicks": 480,
          "midi": 78,
          "name": "F#5",
          "ticks": 30048,
          "time": 81.6521535,
          "velocity": 0.7480314960629921
        },
        {
          "duration": 1.3043474999999916,
          "durationTicks": 480,
          "midi": 74,
          "name": "D5",
          "ticks": 30048,
          "time": 81.6521535,
          "velocity": 0.7480314960629921
        },
        {
          "duration": 1.3043474999999916,
          "durationTicks": 480,
          "midi": 69,
          "name": "A4",
          "ticks": 30048,
          "time": 81.6521535,
          "velocity": 0.7480314960629921
        },
        {
          "duration": 1.0434779999999932,
          "durationTicks": 384,
          "midi": 50,
          "name": "D3",
          "ticks": 30048,
          "time": 81.6521535,
          "velocity": 0.7480314960629921
        },
        {
          "duration": 0.2608694999999983,
          "durationTicks": 96,
          "midi": 50,
          "name": "D3",
          "ticks": 30432,
          "time": 82.69563149999999,
          "velocity": 0.7480314960629921
        },
        {
          "duration": 0.5217390000000108,
          "durationTicks": 192,
          "midi": 50,
          "name": "D3",
          "ticks": 30528,
          "time": 82.95650099999999,
          "velocity": 0.7480314960629921
        },
        {
          "duration": 0.2608694999999983,
          "durationTicks": 96,
          "midi": 43,
          "name": "G2",
          "ticks": 30720,
          "time": 83.47824,
          "velocity": 0.7480314960629921
        },
        {
          "duration": 0.2608694999999983,
          "durationTicks": 96,
          "midi": 67,
          "name": "G4",
          "ticks": 30720,
          "time": 83.47824,
          "velocity": 0.7480314960629921
        },
        {
          "duration": 0.5217389999999966,
          "durationTicks": 192,
          "midi": 59,
          "name": "B3",
          "ticks": 30720,
          "time": 83.47824,
          "velocity": 0.7480314960629921
        },
        {
          "duration": 0.5217389999999966,
          "durationTicks": 192,
          "midi": 62,
          "name": "D4",
          "ticks": 30720,
          "time": 83.47824,
          "velocity": 0.7480314960629921
        },
        {
          "duration": 0.2608694999999983,
          "durationTicks": 96,
          "midi": 42,
          "name": "F#2",
          "ticks": 30816,
          "time": 83.7391095,
          "velocity": 0.7480314960629921
        },
        {
          "duration": 0.2608694999999983,
          "durationTicks": 96,
          "midi": 69,
          "name": "A4",
          "ticks": 30816,
          "time": 83.7391095,
          "velocity": 0.7480314960629921
        },
        {
          "duration": 0.2608694999999983,
          "durationTicks": 96,
          "midi": 71,
          "name": "B4",
          "ticks": 30912,
          "time": 83.999979,
          "velocity": 0.7480314960629921
        },
        {
          "duration": 0.2608694999999983,
          "durationTicks": 96,
          "midi": 66,
          "name": "F#4",
          "ticks": 30912,
          "time": 83.999979,
          "velocity": 0.7480314960629921
        },
        {
          "duration": 0.5217389999999966,
          "durationTicks": 192,
          "midi": 62,
          "name": "D4",
          "ticks": 30912,
          "time": 83.999979,
          "velocity": 0.7480314960629921
        },
        {
          "duration": 0.7826084999999949,
          "durationTicks": 288,
          "midi": 40,
          "name": "E2",
          "ticks": 30912,
          "time": 83.999979,
          "velocity": 0.7480314960629921
        },
        {
          "duration": 0.2608694999999983,
          "durationTicks": 96,
          "midi": 69,
          "name": "A4",
          "ticks": 31008,
          "time": 84.2608485,
          "velocity": 0.7480314960629921
        },
        {
          "duration": 0.2608694999999983,
          "durationTicks": 96,
          "midi": 64,
          "name": "E4",
          "ticks": 31008,
          "time": 84.2608485,
          "velocity": 0.7480314960629921
        },
        {
          "duration": 0.2608694999999983,
          "durationTicks": 96,
          "midi": 69,
          "name": "A4",
          "ticks": 31104,
          "time": 84.52171799999999,
          "velocity": 0.7480314960629921
        },
        {
          "duration": 0.2608694999999983,
          "durationTicks": 96,
          "midi": 64,
          "name": "E4",
          "ticks": 31104,
          "time": 84.52171799999999,
          "velocity": 0.7480314960629921
        },
        {
          "duration": 0.5217389999999966,
          "durationTicks": 192,
          "midi": 59,
          "name": "B3",
          "ticks": 31104,
          "time": 84.52171799999999,
          "velocity": 0.7480314960629921
        },
        {
          "duration": 0.2608694999999983,
          "durationTicks": 96,
          "midi": 67,
          "name": "G4",
          "ticks": 31200,
          "time": 84.78258749999999,
          "velocity": 0.7480314960629921
        },
        {
          "duration": 0.2608694999999983,
          "durationTicks": 96,
          "midi": 62,
          "name": "D4",
          "ticks": 31200,
          "time": 84.78258749999999,
          "velocity": 0.7480314960629921
        },
        {
          "duration": 0.2608694999999983,
          "durationTicks": 96,
          "midi": 40,
          "name": "E2",
          "ticks": 31200,
          "time": 84.78258749999999,
          "velocity": 0.7480314960629921
        },
        {
          "duration": 0.2608694999999983,
          "durationTicks": 96,
          "midi": 67,
          "name": "G4",
          "ticks": 31296,
          "time": 85.04345699999999,
          "velocity": 0.7480314960629921
        },
        {
          "duration": 0.2608694999999983,
          "durationTicks": 96,
          "midi": 62,
          "name": "D4",
          "ticks": 31296,
          "time": 85.04345699999999,
          "velocity": 0.7480314960629921
        },
        {
          "duration": 0.5217389999999966,
          "durationTicks": 192,
          "midi": 55,
          "name": "G3",
          "ticks": 31296,
          "time": 85.04345699999999,
          "velocity": 0.7480314960629921
        },
        {
          "duration": 1.0434780000000075,
          "durationTicks": 384,
          "midi": 40,
          "name": "E2",
          "ticks": 31296,
          "time": 85.04345699999999,
          "velocity": 0.7480314960629921
        },
        {
          "duration": 0.2608694999999983,
          "durationTicks": 96,
          "midi": 64,
          "name": "E4",
          "ticks": 31392,
          "time": 85.30432649999999,
          "velocity": 0.7480314960629921
        },
        {
          "duration": 0.2608694999999983,
          "durationTicks": 96,
          "midi": 59,
          "name": "B3",
          "ticks": 31392,
          "time": 85.30432649999999,
          "velocity": 0.7480314960629921
        },
        {
          "duration": 0.2608695000000125,
          "durationTicks": 96,
          "midi": 64,
          "name": "E4",
          "ticks": 31488,
          "time": 85.56519599999999,
          "velocity": 0.7480314960629921
        },
        {
          "duration": 0.2608695000000125,
          "durationTicks": 96,
          "midi": 59,
          "name": "B3",
          "ticks": 31488,
          "time": 85.56519599999999,
          "velocity": 0.7480314960629921
        },
        {
          "duration": 0.2608695000000125,
          "durationTicks": 96,
          "midi": 55,
          "name": "G3",
          "ticks": 31488,
          "time": 85.56519599999999,
          "velocity": 0.7480314960629921
        },
        {
          "duration": 0.2608694999999983,
          "durationTicks": 96,
          "midi": 67,
          "name": "G4",
          "ticks": 31584,
          "time": 85.8260655,
          "velocity": 0.7480314960629921
        },
        {
          "duration": 0.2608694999999983,
          "durationTicks": 96,
          "midi": 62,
          "name": "D4",
          "ticks": 31584,
          "time": 85.8260655,
          "velocity": 0.7480314960629921
        },
        {
          "duration": 0.2608694999999983,
          "durationTicks": 96,
          "midi": 59,
          "name": "B3",
          "ticks": 31584,
          "time": 85.8260655,
          "velocity": 0.7480314960629921
        },
        {
          "duration": 0.2608694999999983,
          "durationTicks": 96,
          "midi": 64,
          "name": "E4",
          "ticks": 31680,
          "time": 86.086935,
          "velocity": 0.7480314960629921
        },
        {
          "duration": 0.2608694999999983,
          "durationTicks": 96,
          "midi": 60,
          "name": "C4",
          "ticks": 31680,
          "time": 86.086935,
          "velocity": 0.7480314960629921
        },
        {
          "duration": 0.2608694999999983,
          "durationTicks": 96,
          "midi": 71,
          "name": "B4",
          "ticks": 31680,
          "time": 86.086935,
          "velocity": 0.7480314960629921
        },
        {
          "duration": 0.7826084999999949,
          "durationTicks": 288,
          "midi": 48,
          "name": "C3",
          "ticks": 31680,
          "time": 86.086935,
          "velocity": 0.7480314960629921
        },
        {
          "duration": 0.2608694999999983,
          "durationTicks": 96,
          "midi": 64,
          "name": "E4",
          "ticks": 31776,
          "time": 86.3478045,
          "velocity": 0.7480314960629921
        },
        {
          "duration": 0.2608694999999983,
          "durationTicks": 96,
          "midi": 60,
          "name": "C4",
          "ticks": 31776,
          "time": 86.3478045,
          "velocity": 0.7480314960629921
        },
        {
          "duration": 0.7826084999999949,
          "durationTicks": 288,
          "midi": 69,
          "name": "A4",
          "ticks": 31776,
          "time": 86.3478045,
          "velocity": 0.7480314960629921
        },
        {
          "duration": 0.2608694999999983,
          "durationTicks": 96,
          "midi": 64,
          "name": "E4",
          "ticks": 31872,
          "time": 86.608674,
          "velocity": 0.7480314960629921
        },
        {
          "duration": 0.2608694999999983,
          "durationTicks": 96,
          "midi": 60,
          "name": "C4",
          "ticks": 31872,
          "time": 86.608674,
          "velocity": 0.7480314960629921
        },
        {
          "duration": 0.2608694999999983,
          "durationTicks": 96,
          "midi": 64,
          "name": "E4",
          "ticks": 31968,
          "time": 86.86954349999999,
          "velocity": 0.7480314960629921
        },
        {
          "duration": 0.2608694999999983,
          "durationTicks": 96,
          "midi": 60,
          "name": "C4",
          "ticks": 31968,
          "time": 86.86954349999999,
          "velocity": 0.7480314960629921
        },
        {
          "duration": 0.2608694999999983,
          "durationTicks": 96,
          "midi": 48,
          "name": "C3",
          "ticks": 31968,
          "time": 86.86954349999999,
          "velocity": 0.7480314960629921
        },
        {
          "duration": 0.2608694999999983,
          "durationTicks": 96,
          "midi": 64,
          "name": "E4",
          "ticks": 32064,
          "time": 87.13041299999999,
          "velocity": 0.7480314960629921
        },
        {
          "duration": 0.2608694999999983,
          "durationTicks": 96,
          "midi": 60,
          "name": "C4",
          "ticks": 32064,
          "time": 87.13041299999999,
          "velocity": 0.7480314960629921
        },
        {
          "duration": 0.5217389999999966,
          "durationTicks": 192,
          "midi": 48,
          "name": "C3",
          "ticks": 32064,
          "time": 87.13041299999999,
          "velocity": 0.7480314960629921
        },
        {
          "duration": 0.2608694999999983,
          "durationTicks": 96,
          "midi": 64,
          "name": "E4",
          "ticks": 32160,
          "time": 87.39128249999999,
          "velocity": 0.7480314960629921
        },
        {
          "duration": 0.2608694999999983,
          "durationTicks": 96,
          "midi": 60,
          "name": "C4",
          "ticks": 32160,
          "time": 87.39128249999999,
          "velocity": 0.7480314960629921
        },
        {
          "duration": 0.2608694999999983,
          "durationTicks": 96,
          "midi": 67,
          "name": "G4",
          "ticks": 32256,
          "time": 87.65215199999999,
          "velocity": 0.7480314960629921
        },
        {
          "duration": 0.2608694999999983,
          "durationTicks": 96,
          "midi": 48,
          "name": "C3",
          "ticks": 32256,
          "time": 87.65215199999999,
          "velocity": 0.7480314960629921
        },
        {
          "duration": 0.5217390000000108,
          "durationTicks": 192,
          "midi": 64,
          "name": "E4",
          "ticks": 32256,
          "time": 87.65215199999999,
          "velocity": 0.7480314960629921
        },
        {
          "duration": 0.5217390000000108,
          "durationTicks": 192,
          "midi": 60,
          "name": "C4",
          "ticks": 32256,
          "time": 87.65215199999999,
          "velocity": 0.7480314960629921
        },
        {
          "duration": 0.2608695000000125,
          "durationTicks": 96,
          "midi": 71,
          "name": "B4",
          "ticks": 32352,
          "time": 87.91302149999999,
          "velocity": 0.7480314960629921
        },
        {
          "duration": 0.2608695000000125,
          "durationTicks": 96,
          "midi": 50,
          "name": "D3",
          "ticks": 32352,
          "time": 87.91302149999999,
          "velocity": 0.7480314960629921
        },
        {
          "duration": 0.2608694999999983,
          "durationTicks": 96,
          "midi": 72,
          "name": "C5",
          "ticks": 32448,
          "time": 88.173891,
          "velocity": 0.7480314960629921
        },
        {
          "duration": 0.7826084999999949,
          "durationTicks": 288,
          "midi": 60,
          "name": "C4",
          "ticks": 32448,
          "time": 88.173891,
          "velocity": 0.7480314960629921
        },
        {
          "duration": 0.7826084999999949,
          "durationTicks": 288,
          "midi": 41,
          "name": "F2",
          "ticks": 32448,
          "time": 88.173891,
          "velocity": 0.7480314960629921
        },
        {
          "duration": 0.7826084999999949,
          "durationTicks": 288,
          "midi": 65,
          "name": "F4",
          "ticks": 32448,
          "time": 88.173891,
          "velocity": 0.7480314960629921
        },
        {
          "duration": 0.2608694999999983,
          "durationTicks": 96,
          "midi": 71,
          "name": "B4",
          "ticks": 32544,
          "time": 88.4347605,
          "velocity": 0.7480314960629921
        },
        {
          "duration": 0.2608694999999983,
          "durationTicks": 96,
          "midi": 69,
          "name": "A4",
          "ticks": 32640,
          "time": 88.69563,
          "velocity": 0.7480314960629921
        },
        {
          "duration": 0.7826084999999949,
          "durationTicks": 288,
          "midi": 67,
          "name": "G4",
          "ticks": 32736,
          "time": 88.95649949999999,
          "velocity": 0.7480314960629921
        },
        {
          "duration": 0.5217389999999966,
          "durationTicks": 192,
          "midi": 60,
          "name": "C4",
          "ticks": 32736,
          "time": 88.95649949999999,
          "velocity": 0.7480314960629921
        },
        {
          "duration": 0.5217389999999966,
          "durationTicks": 192,
          "midi": 57,
          "name": "A3",
          "ticks": 32736,
          "time": 88.95649949999999,
          "velocity": 0.7480314960629921
        },
        {
          "duration": 0.2608694999999983,
          "durationTicks": 96,
          "midi": 41,
          "name": "F2",
          "ticks": 32736,
          "time": 88.95649949999999,
          "velocity": 0.7480314960629921
        },
        {
          "duration": 0.7826084999999949,
          "durationTicks": 288,
          "midi": 41,
          "name": "F2",
          "ticks": 32832,
          "time": 89.21736899999999,
          "velocity": 0.7480314960629921
        },
        {
          "duration": 0.2608694999999983,
          "durationTicks": 96,
          "midi": 60,
          "name": "C4",
          "ticks": 32928,
          "time": 89.47823849999999,
          "velocity": 0.7480314960629921
        },
        {
          "duration": 0.2608694999999983,
          "durationTicks": 96,
          "midi": 57,
          "name": "A3",
          "ticks": 32928,
          "time": 89.47823849999999,
          "velocity": 0.7480314960629921
        },
        {
          "duration": 0.2608694999999983,
          "durationTicks": 96,
          "midi": 60,
          "name": "C4",
          "ticks": 33024,
          "time": 89.73910799999999,
          "velocity": 0.7480314960629921
        },
        {
          "duration": 0.2608694999999983,
          "durationTicks": 96,
          "midi": 57,
          "name": "A3",
          "ticks": 33024,
          "time": 89.73910799999999,
          "velocity": 0.7480314960629921
        },
        {
          "duration": 0.2608695000000125,
          "durationTicks": 96,
          "midi": 60,
          "name": "C4",
          "ticks": 33120,
          "time": 89.99997749999999,
          "velocity": 0.7480314960629921
        },
        {
          "duration": 0.2608695000000125,
          "durationTicks": 96,
          "midi": 57,
          "name": "A3",
          "ticks": 33120,
          "time": 89.99997749999999,
          "velocity": 0.7480314960629921
        },
        {
          "duration": 0.2608695000000125,
          "durationTicks": 96,
          "midi": 64,
          "name": "E4",
          "ticks": 33120,
          "time": 89.99997749999999,
          "velocity": 0.7480314960629921
        },
        {
          "duration": 0.2608695000000125,
          "durationTicks": 96,
          "midi": 41,
          "name": "F2",
          "ticks": 33120,
          "time": 89.99997749999999,
          "velocity": 0.7480314960629921
        },
        {
          "duration": 0.2608694999999983,
          "durationTicks": 96,
          "midi": 59,
          "name": "B3",
          "ticks": 33216,
          "time": 90.260847,
          "velocity": 0.7480314960629921
        },
        {
          "duration": 0.2608694999999983,
          "durationTicks": 96,
          "midi": 62,
          "name": "D4",
          "ticks": 33216,
          "time": 90.260847,
          "velocity": 0.7480314960629921
        },
        {
          "duration": 0.2608694999999983,
          "durationTicks": 96,
          "midi": 43,
          "name": "G2",
          "ticks": 33216,
          "time": 90.260847,
          "velocity": 0.7480314960629921
        },
        {
          "duration": 0.2608694999999983,
          "durationTicks": 96,
          "midi": 62,
          "name": "D4",
          "ticks": 33312,
          "time": 90.5217165,
          "velocity": 0.7480314960629921
        },
        {
          "duration": 0.2608694999999983,
          "durationTicks": 96,
          "midi": 67,
          "name": "G4",
          "ticks": 33312,
          "time": 90.5217165,
          "velocity": 0.7480314960629921
        },
        {
          "duration": 0.2608694999999983,
          "durationTicks": 96,
          "midi": 71,
          "name": "B4",
          "ticks": 33312,
          "time": 90.5217165,
          "velocity": 0.7480314960629921
        },
        {
          "duration": 0.2608694999999983,
          "durationTicks": 96,
          "midi": 43,
          "name": "G2",
          "ticks": 33312,
          "time": 90.5217165,
          "velocity": 0.7480314960629921
        },
        {
          "duration": 0.2608694999999983,
          "durationTicks": 96,
          "midi": 62,
          "name": "D4",
          "ticks": 33408,
          "time": 90.782586,
          "velocity": 0.7480314960629921
        },
        {
          "duration": 0.2608694999999983,
          "durationTicks": 96,
          "midi": 67,
          "name": "G4",
          "ticks": 33408,
          "time": 90.782586,
          "velocity": 0.7480314960629921
        },
        {
          "duration": 0.2608694999999983,
          "durationTicks": 96,
          "midi": 71,
          "name": "B4",
          "ticks": 33408,
          "time": 90.782586,
          "velocity": 0.7480314960629921
        },
        {
          "duration": 0.2608694999999983,
          "durationTicks": 96,
          "midi": 43,
          "name": "G2",
          "ticks": 33408,
          "time": 90.782586,
          "velocity": 0.7480314960629921
        },
        {
          "duration": 0.7826084999999949,
          "durationTicks": 288,
          "midi": 62,
          "name": "D4",
          "ticks": 33504,
          "time": 91.0434555,
          "velocity": 0.7480314960629921
        },
        {
          "duration": 0.7826084999999949,
          "durationTicks": 288,
          "midi": 67,
          "name": "G4",
          "ticks": 33504,
          "time": 91.0434555,
          "velocity": 0.7480314960629921
        },
        {
          "duration": 0.7826084999999949,
          "durationTicks": 288,
          "midi": 71,
          "name": "B4",
          "ticks": 33504,
          "time": 91.0434555,
          "velocity": 0.7480314960629921
        },
        {
          "duration": 0.2608694999999983,
          "durationTicks": 96,
          "midi": 43,
          "name": "G2",
          "ticks": 33504,
          "time": 91.0434555,
          "velocity": 0.7480314960629921
        },
        {
          "duration": 0.2608694999999983,
          "durationTicks": 96,
          "midi": 67,
          "name": "G4",
          "ticks": 33792,
          "time": 91.82606399999999,
          "velocity": 0.7480314960629921
        },
        {
          "duration": 0.2608694999999983,
          "durationTicks": 96,
          "midi": 43,
          "name": "G2",
          "ticks": 33792,
          "time": 91.82606399999999,
          "velocity": 0.7480314960629921
        },
        {
          "duration": 0.5217389999999966,
          "durationTicks": 192,
          "midi": 62,
          "name": "D4",
          "ticks": 33792,
          "time": 91.82606399999999,
          "velocity": 0.7480314960629921
        },
        {
          "duration": 0.5217389999999966,
          "durationTicks": 192,
          "midi": 59,
          "name": "B3",
          "ticks": 33792,
          "time": 91.82606399999999,
          "velocity": 0.7480314960629921
        },
        {
          "duration": 0.2608694999999983,
          "durationTicks": 96,
          "midi": 69,
          "name": "A4",
          "ticks": 33888,
          "time": 92.08693349999999,
          "velocity": 0.7480314960629921
        },
        {
          "duration": 0.2608694999999983,
          "durationTicks": 96,
          "midi": 42,
          "name": "F#2",
          "ticks": 33888,
          "time": 92.08693349999999,
          "velocity": 0.7480314960629921
        },
        {
          "duration": 0.2608695000000125,
          "durationTicks": 96,
          "midi": 71,
          "name": "B4",
          "ticks": 33984,
          "time": 92.34780299999998,
          "velocity": 0.7480314960629921
        },
        {
          "duration": 0.2608695000000125,
          "durationTicks": 96,
          "midi": 66,
          "name": "F#4",
          "ticks": 33984,
          "time": 92.34780299999998,
          "velocity": 0.7480314960629921
        },
        {
          "duration": 0.5217390000000108,
          "durationTicks": 192,
          "midi": 62,
          "name": "D4",
          "ticks": 33984,
          "time": 92.34780299999998,
          "velocity": 0.7480314960629921
        },
        {
          "duration": 0.7826085000000091,
          "durationTicks": 288,
          "midi": 40,
          "name": "E2",
          "ticks": 33984,
          "time": 92.34780299999998,
          "velocity": 0.7480314960629921
        },
        {
          "duration": 0.2608694999999983,
          "durationTicks": 96,
          "midi": 69,
          "name": "A4",
          "ticks": 34080,
          "time": 92.6086725,
          "velocity": 0.7480314960629921
        },
        {
          "duration": 0.2608694999999983,
          "durationTicks": 96,
          "midi": 64,
          "name": "E4",
          "ticks": 34080,
          "time": 92.6086725,
          "velocity": 0.7480314960629921
        },
        {
          "duration": 0.2608694999999983,
          "durationTicks": 96,
          "midi": 69,
          "name": "A4",
          "ticks": 34176,
          "time": 92.869542,
          "velocity": 0.7480314960629921
        },
        {
          "duration": 0.2608694999999983,
          "durationTicks": 96,
          "midi": 64,
          "name": "E4",
          "ticks": 34176,
          "time": 92.869542,
          "velocity": 0.7480314960629921
        },
        {
          "duration": 0.5217389999999966,
          "durationTicks": 192,
          "midi": 59,
          "name": "B3",
          "ticks": 34176,
          "time": 92.869542,
          "velocity": 0.7480314960629921
        },
        {
          "duration": 0.2608694999999983,
          "durationTicks": 96,
          "midi": 67,
          "name": "G4",
          "ticks": 34272,
          "time": 93.1304115,
          "velocity": 0.7480314960629921
        },
        {
          "duration": 0.2608694999999983,
          "durationTicks": 96,
          "midi": 62,
          "name": "D4",
          "ticks": 34272,
          "time": 93.1304115,
          "velocity": 0.7480314960629921
        },
        {
          "duration": 0.2608694999999983,
          "durationTicks": 96,
          "midi": 40,
          "name": "E2",
          "ticks": 34272,
          "time": 93.1304115,
          "velocity": 0.7480314960629921
        },
        {
          "duration": 0.2608694999999983,
          "durationTicks": 96,
          "midi": 67,
          "name": "G4",
          "ticks": 34368,
          "time": 93.39128099999999,
          "velocity": 0.7480314960629921
        },
        {
          "duration": 0.2608694999999983,
          "durationTicks": 96,
          "midi": 62,
          "name": "D4",
          "ticks": 34368,
          "time": 93.39128099999999,
          "velocity": 0.7480314960629921
        },
        {
          "duration": 0.5217389999999966,
          "durationTicks": 192,
          "midi": 55,
          "name": "G3",
          "ticks": 34368,
          "time": 93.39128099999999,
          "velocity": 0.7480314960629921
        },
        {
          "duration": 1.0434779999999932,
          "durationTicks": 384,
          "midi": 40,
          "name": "E2",
          "ticks": 34368,
          "time": 93.39128099999999,
          "velocity": 0.7480314960629921
        },
        {
          "duration": 0.2608694999999983,
          "durationTicks": 96,
          "midi": 64,
          "name": "E4",
          "ticks": 34464,
          "time": 93.65215049999999,
          "velocity": 0.7480314960629921
        },
        {
          "duration": 0.2608694999999983,
          "durationTicks": 96,
          "midi": 59,
          "name": "B3",
          "ticks": 34464,
          "time": 93.65215049999999,
          "velocity": 0.7480314960629921
        },
        {
          "duration": 0.2608694999999983,
          "durationTicks": 96,
          "midi": 64,
          "name": "E4",
          "ticks": 34560,
          "time": 93.91301999999999,
          "velocity": 0.7480314960629921
        },
        {
          "duration": 0.2608694999999983,
          "durationTicks": 96,
          "midi": 59,
          "name": "B3",
          "ticks": 34560,
          "time": 93.91301999999999,
          "velocity": 0.7480314960629921
        },
        {
          "duration": 0.2608694999999983,
          "durationTicks": 96,
          "midi": 55,
          "name": "G3",
          "ticks": 34560,
          "time": 93.91301999999999,
          "velocity": 0.7480314960629921
        },
        {
          "duration": 0.2608694999999983,
          "durationTicks": 96,
          "midi": 67,
          "name": "G4",
          "ticks": 34656,
          "time": 94.17388949999999,
          "velocity": 0.7480314960629921
        },
        {
          "duration": 0.2608694999999983,
          "durationTicks": 96,
          "midi": 62,
          "name": "D4",
          "ticks": 34656,
          "time": 94.17388949999999,
          "velocity": 0.7480314960629921
        },
        {
          "duration": 0.2608694999999983,
          "durationTicks": 96,
          "midi": 59,
          "name": "B3",
          "ticks": 34656,
          "time": 94.17388949999999,
          "velocity": 0.7480314960629921
        },
        {
          "duration": 0.2608695000000125,
          "durationTicks": 96,
          "midi": 71,
          "name": "B4",
          "ticks": 34752,
          "time": 94.43475899999999,
          "velocity": 0.7480314960629921
        },
        {
          "duration": 0.7826085000000091,
          "durationTicks": 288,
          "midi": 45,
          "name": "A2",
          "ticks": 34752,
          "time": 94.43475899999999,
          "velocity": 0.7480314960629921
        },
        {
          "duration": 1.0434780000000075,
          "durationTicks": 384,
          "midi": 61,
          "name": "C#4",
          "ticks": 34752,
          "time": 94.43475899999999,
          "velocity": 0.7480314960629921
        },
        {
          "duration": 1.0434780000000075,
          "durationTicks": 384,
          "midi": 67,
          "name": "G4",
          "ticks": 34752,
          "time": 94.43475899999999,
          "velocity": 0.7480314960629921
        },
        {
          "duration": 0.5217389999999966,
          "durationTicks": 192,
          "midi": 69,
          "name": "A4",
          "ticks": 34848,
          "time": 94.6956285,
          "velocity": 0.7480314960629921
        },
        {
          "duration": 0.2608694999999983,
          "durationTicks": 96,
          "midi": 45,
          "name": "A2",
          "ticks": 35040,
          "time": 95.2173675,
          "velocity": 0.7480314960629921
        },
        {
          "duration": 0.2608694999999983,
          "durationTicks": 96,
          "midi": 64,
          "name": "E4",
          "ticks": 35136,
          "time": 95.478237,
          "velocity": 0.7480314960629921
        },
        {
          "duration": 0.2608694999999983,
          "durationTicks": 96,
          "midi": 67,
          "name": "G4",
          "ticks": 35136,
          "time": 95.478237,
          "velocity": 0.7480314960629921
        },
        {
          "duration": 0.2608694999999983,
          "durationTicks": 96,
          "midi": 61,
          "name": "C#4",
          "ticks": 35136,
          "time": 95.478237,
          "velocity": 0.7480314960629921
        },
        {
          "duration": 0.7826084999999949,
          "durationTicks": 288,
          "midi": 45,
          "name": "A2",
          "ticks": 35136,
          "time": 95.478237,
          "velocity": 0.7480314960629921
        },
        {
          "duration": 0.2608694999999983,
          "durationTicks": 96,
          "midi": 67,
          "name": "G4",
          "ticks": 35232,
          "time": 95.73910649999999,
          "velocity": 0.7480314960629921
        },
        {
          "duration": 0.2608694999999983,
          "durationTicks": 96,
          "midi": 64,
          "name": "E4",
          "ticks": 35232,
          "time": 95.73910649999999,
          "velocity": 0.7480314960629921
        },
        {
          "duration": 0.2608694999999983,
          "durationTicks": 96,
          "midi": 61,
          "name": "C#4",
          "ticks": 35232,
          "time": 95.73910649999999,
          "velocity": 0.7480314960629921
        },
        {
          "duration": 0.2608694999999983,
          "durationTicks": 96,
          "midi": 67,
          "name": "G4",
          "ticks": 35328,
          "time": 95.99997599999999,
          "velocity": 0.7480314960629921
        },
        {
          "duration": 0.2608694999999983,
          "durationTicks": 96,
          "midi": 64,
          "name": "E4",
          "ticks": 35328,
          "time": 95.99997599999999,
          "velocity": 0.7480314960629921
        },
        {
          "duration": 0.2608694999999983,
          "durationTicks": 96,
          "midi": 61,
          "name": "C#4",
          "ticks": 35328,
          "time": 95.99997599999999,
          "velocity": 0.7480314960629921
        },
        {
          "duration": 0.2608694999999983,
          "durationTicks": 96,
          "midi": 62,
          "name": "D4",
          "ticks": 35424,
          "time": 96.26084549999999,
          "velocity": 0.7480314960629921
        },
        {
          "duration": 0.2608694999999983,
          "durationTicks": 96,
          "midi": 45,
          "name": "A2",
          "ticks": 35424,
          "time": 96.26084549999999,
          "velocity": 0.7480314960629921
        },
        {
          "duration": 0.2608694999999983,
          "durationTicks": 96,
          "midi": 71,
          "name": "B4",
          "ticks": 35520,
          "time": 96.52171499999999,
          "velocity": 0.7480314960629921
        },
        {
          "duration": 0.7826085000000091,
          "durationTicks": 288,
          "midi": 48,
          "name": "C3",
          "ticks": 35520,
          "time": 96.52171499999999,
          "velocity": 0.7480314960629921
        },
        {
          "duration": 1.0434780000000075,
          "durationTicks": 384,
          "midi": 63,
          "name": "D#4",
          "ticks": 35520,
          "time": 96.52171499999999,
          "velocity": 0.7480314960629921
        },
        {
          "duration": 1.0434780000000075,
          "durationTicks": 384,
          "midi": 60,
          "name": "C4",
          "ticks": 35520,
          "time": 96.52171499999999,
          "velocity": 0.7480314960629921
        },
        {
          "duration": 0.5217390000000108,
          "durationTicks": 192,
          "midi": 69,
          "name": "A4",
          "ticks": 35616,
          "time": 96.78258449999998,
          "velocity": 0.7480314960629921
        },
        {
          "duration": 0.13043474999999205,
          "durationTicks": 48,
          "midi": 67,
          "name": "G4",
          "ticks": 35808,
          "time": 97.3043235,
          "velocity": 0.7480314960629921
        },
        {
          "duration": 0.2608694999999983,
          "durationTicks": 96,
          "midi": 48,
          "name": "C3",
          "ticks": 35808,
          "time": 97.3043235,
          "velocity": 0.7480314960629921
        },
        {
          "duration": 0.13043475000000626,
          "durationTicks": 48,
          "midi": 69,
          "name": "A4",
          "ticks": 35856,
          "time": 97.43475824999999,
          "velocity": 0.7480314960629921
        },
        {
          "duration": 0.9130432500000012,
          "durationTicks": 336,
          "midi": 48,
          "name": "C3",
          "ticks": 35856,
          "time": 97.43475824999999,
          "velocity": 0.7480314960629921
        },
        {
          "duration": 0.7826084999999949,
          "durationTicks": 288,
          "midi": 67,
          "name": "G4",
          "ticks": 35904,
          "time": 97.565193,
          "velocity": 0.7480314960629921
        },
        {
          "duration": 0.2608694999999983,
          "durationTicks": 96,
          "midi": 60,
          "name": "C4",
          "ticks": 36192,
          "time": 98.34780149999999,
          "velocity": 0.7480314960629921
        },
        {
          "duration": 0.2608694999999983,
          "durationTicks": 96,
          "midi": 55,
          "name": "G3",
          "ticks": 36192,
          "time": 98.34780149999999,
          "velocity": 0.7480314960629921
        },
        {
          "duration": 0.2608694999999983,
          "durationTicks": 96,
          "midi": 60,
          "name": "C4",
          "ticks": 36288,
          "time": 98.60867099999999,
          "velocity": 0.7480314960629921
        },
        {
          "duration": 0.2608694999999983,
          "durationTicks": 96,
          "midi": 55,
          "name": "G3",
          "ticks": 36288,
          "time": 98.60867099999999,
          "velocity": 0.7480314960629921
        },
        {
          "duration": 0.2608694999999983,
          "durationTicks": 96,
          "midi": 63,
          "name": "D#4",
          "ticks": 36288,
          "time": 98.60867099999999,
          "velocity": 0.7480314960629921
        },
        {
          "duration": 0.2608694999999983,
          "durationTicks": 96,
          "midi": 48,
          "name": "C3",
          "ticks": 36288,
          "time": 98.60867099999999,
          "velocity": 0.7480314960629921
        },
        {
          "duration": 0.5217390000000108,
          "durationTicks": 192,
          "midi": 59,
          "name": "B3",
          "ticks": 36384,
          "time": 98.86954049999999,
          "velocity": 0.7480314960629921
        },
        {
          "duration": 0.5217390000000108,
          "durationTicks": 192,
          "midi": 55,
          "name": "G3",
          "ticks": 36384,
          "time": 98.86954049999999,
          "velocity": 0.7480314960629921
        },
        {
          "duration": 0.5217390000000108,
          "durationTicks": 192,
          "midi": 62,
          "name": "D4",
          "ticks": 36384,
          "time": 98.86954049999999,
          "velocity": 0.7480314960629921
        },
        {
          "duration": 0.7826085000000091,
          "durationTicks": 288,
          "midi": 43,
          "name": "G2",
          "ticks": 36384,
          "time": 98.86954049999999,
          "velocity": 0.7480314960629921
        },
        {
          "duration": 0.2608694999999983,
          "durationTicks": 96,
          "midi": 62,
          "name": "D4",
          "ticks": 36576,
          "time": 99.3912795,
          "velocity": 0.7480314960629921
        },
        {
          "duration": 0.2608694999999983,
          "durationTicks": 96,
          "midi": 67,
          "name": "G4",
          "ticks": 36576,
          "time": 99.3912795,
          "velocity": 0.7480314960629921
        },
        {
          "duration": 0.2608694999999983,
          "durationTicks": 96,
          "midi": 71,
          "name": "B4",
          "ticks": 36576,
          "time": 99.3912795,
          "velocity": 0.7480314960629921
        },
        {
          "duration": 0.7826084999999949,
          "durationTicks": 288,
          "midi": 62,
          "name": "D4",
          "ticks": 36672,
          "time": 99.652149,
          "velocity": 0.7480314960629921
        },
        {
          "duration": 0.7826084999999949,
          "durationTicks": 288,
          "midi": 67,
          "name": "G4",
          "ticks": 36672,
          "time": 99.652149,
          "velocity": 0.7480314960629921
        },
        {
          "duration": 0.7826084999999949,
          "durationTicks": 288,
          "midi": 71,
          "name": "B4",
          "ticks": 36672,
          "time": 99.652149,
          "velocity": 0.7480314960629921
        },
        {
          "duration": 0.2608694999999983,
          "durationTicks": 96,
          "midi": 43,
          "name": "G2",
          "ticks": 36672,
          "time": 99.652149,
          "velocity": 0.7480314960629921
        },
        {
          "duration": 1.0434779999999932,
          "durationTicks": 384,
          "midi": 43,
          "name": "G2",
          "ticks": 36768,
          "time": 99.91301849999999,
          "velocity": 0.7480314960629921
        },
        {
          "duration": 0.2608694999999983,
          "durationTicks": 96,
          "midi": 62,
          "name": "D4",
          "ticks": 37056,
          "time": 100.69562699999999,
          "velocity": 0.7480314960629921
        },
        {
          "duration": 0.2608694999999983,
          "durationTicks": 96,
          "midi": 59,
          "name": "B3",
          "ticks": 37056,
          "time": 100.69562699999999,
          "velocity": 0.7480314960629921
        },
        {
          "duration": 0.2608694999999983,
          "durationTicks": 96,
          "midi": 67,
          "name": "G4",
          "ticks": 37056,
          "time": 100.69562699999999,
          "velocity": 0.7480314960629921
        },
        {
          "duration": 0.2608694999999983,
          "durationTicks": 96,
          "midi": 62,
          "name": "D4",
          "ticks": 37152,
          "time": 100.95649649999999,
          "velocity": 0.7480314960629921
        },
        {
          "duration": 0.2608694999999983,
          "durationTicks": 96,
          "midi": 59,
          "name": "B3",
          "ticks": 37152,
          "time": 100.95649649999999,
          "velocity": 0.7480314960629921
        },
        {
          "duration": 0.2608694999999983,
          "durationTicks": 96,
          "midi": 67,
          "name": "G4",
          "ticks": 37152,
          "time": 100.95649649999999,
          "velocity": 0.7480314960629921
        },
        {
          "duration": 0.5217390000000108,
          "durationTicks": 192,
          "midi": 71,
          "name": "B4",
          "ticks": 37248,
          "time": 101.21736599999998,
          "velocity": 0.7480314960629921
        },
        {
          "duration": 1.0434780000000075,
          "durationTicks": 384,
          "midi": 43,
          "name": "G2",
          "ticks": 37248,
          "time": 101.21736599999998,
          "velocity": 0.7480314960629921
        },
        {
          "duration": 0.5217389999999966,
          "durationTicks": 192,
          "midi": 79,
          "name": "G5",
          "ticks": 37440,
          "time": 101.739105,
          "velocity": 0.7480314960629921
        },
        {
          "duration": 1.5652169999999899,
          "durationTicks": 576,
          "midi": 67,
          "name": "G4",
          "ticks": 37440,
          "time": 101.739105,
          "velocity": 0.7480314960629921
        },
        {
          "duration": 0.7826084999999949,
          "durationTicks": 288,
          "midi": 71,
          "name": "B4",
          "ticks": 37440,
          "time": 101.739105,
          "velocity": 0.7480314960629921
        },
        {
          "duration": 1.0434779999999932,
          "durationTicks": 384,
          "midi": 71,
          "name": "B4",
          "ticks": 37632,
          "time": 102.26084399999999,
          "velocity": 0.7480314960629921
        },
        {
          "duration": 0.2608694999999983,
          "durationTicks": 96,
          "midi": 43,
          "name": "G2",
          "ticks": 37632,
          "time": 102.26084399999999,
          "velocity": 0.7480314960629921
        },
        {
          "duration": 0.2608694999999983,
          "durationTicks": 96,
          "midi": 72,
          "name": "C5",
          "ticks": 37728,
          "time": 102.52171349999999,
          "velocity": 0.7480314960629921
        },
        {
          "duration": 0.2608694999999983,
          "durationTicks": 96,
          "midi": 47,
          "name": "B2",
          "ticks": 37728,
          "time": 102.52171349999999,
          "velocity": 0.7480314960629921
        },
        {
          "duration": 0.2608694999999983,
          "durationTicks": 96,
          "midi": 74,
          "name": "D5",
          "ticks": 37824,
          "time": 102.78258299999999,
          "velocity": 0.7480314960629921
        },
        {
          "duration": 0.2608694999999983,
          "durationTicks": 96,
          "midi": 48,
          "name": "C3",
          "ticks": 37824,
          "time": 102.78258299999999,
          "velocity": 0.7480314960629921
        },
        {
          "duration": 1.8260865000000024,
          "durationTicks": 672,
          "midi": 78,
          "name": "F#5",
          "ticks": 37920,
          "time": 103.04345249999999,
          "velocity": 0.7480314960629921
        },
        {
          "duration": 1.8260865000000024,
          "durationTicks": 672,
          "midi": 74,
          "name": "D5",
          "ticks": 37920,
          "time": 103.04345249999999,
          "velocity": 0.7480314960629921
        },
        {
          "duration": 1.8260865000000024,
          "durationTicks": 672,
          "midi": 69,
          "name": "A4",
          "ticks": 37920,
          "time": 103.04345249999999,
          "velocity": 0.7480314960629921
        },
        {
          "duration": 1.0434780000000075,
          "durationTicks": 384,
          "midi": 50,
          "name": "D3",
          "ticks": 37920,
          "time": 103.04345249999999,
          "velocity": 0.7480314960629921
        },
        {
          "duration": 0.2608694999999983,
          "durationTicks": 96,
          "midi": 50,
          "name": "D3",
          "ticks": 38304,
          "time": 104.0869305,
          "velocity": 0.7480314960629921
        },
        {
          "duration": 0.5217389999999966,
          "durationTicks": 192,
          "midi": 50,
          "name": "D3",
          "ticks": 38400,
          "time": 104.34779999999999,
          "velocity": 0.7480314960629921
        },
        {
          "duration": 0.2608694999999983,
          "durationTicks": 96,
          "midi": 62,
          "name": "D4",
          "ticks": 38784,
          "time": 105.39127799999999,
          "velocity": 0.7480314960629921
        },
        {
          "duration": 0.5217390000000108,
          "durationTicks": 192,
          "midi": 69,
          "name": "A4",
          "ticks": 38880,
          "time": 105.65214749999998,
          "velocity": 0.7480314960629921
        },
        {
          "duration": 0.5217390000000108,
          "durationTicks": 192,
          "midi": 74,
          "name": "D5",
          "ticks": 38880,
          "time": 105.65214749999998,
          "velocity": 0.7480314960629921
        },
        {
          "duration": 0.39130424999999036,
          "durationTicks": 144,
          "midi": 67,
          "name": "G4",
          "ticks": 39072,
          "time": 106.1738865,
          "velocity": 0.7480314960629921
        },
        {
          "duration": 0.13043474999999205,
          "durationTicks": 48,
          "midi": 79,
          "name": "G5",
          "ticks": 39072,
          "time": 106.1738865,
          "velocity": 0.7480314960629921
        },
        {
          "duration": 0.2608694999999983,
          "durationTicks": 96,
          "midi": 79,
          "name": "G5",
          "ticks": 39120,
          "time": 106.30432124999999,
          "velocity": 0.7480314960629921
        },
        {
          "duration": 0.13043475000000626,
          "durationTicks": 48,
          "midi": 69,
          "name": "A4",
          "ticks": 39216,
          "time": 106.56519074999999,
          "velocity": 0.7480314960629921
        },
        {
          "duration": 0.13043475000000626,
          "durationTicks": 48,
          "midi": 81,
          "name": "A5",
          "ticks": 39216,
          "time": 106.56519074999999,
          "velocity": 0.7480314960629921
        },
        {
          "duration": 0.7826084999999949,
          "durationTicks": 288,
          "midi": 67,
          "name": "G4",
          "ticks": 39264,
          "time": 106.69562549999999,
          "velocity": 0.7480314960629921
        },
        {
          "duration": 0.7826084999999949,
          "durationTicks": 288,
          "midi": 74,
          "name": "D5",
          "ticks": 39264,
          "time": 106.69562549999999,
          "velocity": 0.7480314960629921
        },
        {
          "duration": 0.2608694999999983,
          "durationTicks": 96,
          "midi": 63,
          "name": "D#4",
          "ticks": 39552,
          "time": 107.47823399999999,
          "velocity": 0.7480314960629921
        },
        {
          "duration": 0.5217390000000108,
          "durationTicks": 192,
          "midi": 69,
          "name": "A4",
          "ticks": 39552,
          "time": 107.47823399999999,
          "velocity": 0.7480314960629921
        },
        {
          "duration": 0.5217390000000108,
          "durationTicks": 192,
          "midi": 62,
          "name": "D4",
          "ticks": 39648,
          "time": 107.73910349999998,
          "velocity": 0.7480314960629921
        },
        {
          "duration": 0.2608694999999983,
          "durationTicks": 96,
          "midi": 71,
          "name": "B4",
          "ticks": 39744,
          "time": 107.999973,
          "velocity": 0.7480314960629921
        },
        {
          "duration": 1.0434779999999932,
          "durationTicks": 384,
          "midi": 71,
          "name": "B4",
          "ticks": 39840,
          "time": 108.2608425,
          "velocity": 0.7480314960629921
        },
        {
          "duration": 0.5217389999999966,
          "durationTicks": 192,
          "midi": 67,
          "name": "G4",
          "ticks": 40032,
          "time": 108.78258149999999,
          "velocity": 0.7480314960629921
        },
        {
          "duration": 0.5217389999999966,
          "durationTicks": 192,
          "midi": 62,
          "name": "D4",
          "ticks": 40032,
          "time": 108.78258149999999,
          "velocity": 0.7480314960629921
        },
        {
          "duration": 0.5217389999999966,
          "durationTicks": 192,
          "midi": 79,
          "name": "G5",
          "ticks": 40224,
          "time": 109.30432049999999,
          "velocity": 0.7480314960629921
        },
        {
          "duration": 0.2608694999999983,
          "durationTicks": 96,
          "midi": 71,
          "name": "B4",
          "ticks": 40416,
          "time": 109.82605949999999,
          "velocity": 0.7480314960629921
        },
        {
          "duration": 0.2608694999999983,
          "durationTicks": 96,
          "midi": 43,
          "name": "G2",
          "ticks": 40416,
          "time": 109.82605949999999,
          "velocity": 0.7480314960629921
        },
        {
          "duration": 0.2608695000000125,
          "durationTicks": 96,
          "midi": 72,
          "name": "C5",
          "ticks": 40512,
          "time": 110.08692899999998,
          "velocity": 0.7480314960629921
        },
        {
          "duration": 0.2608695000000125,
          "durationTicks": 96,
          "midi": 47,
          "name": "B2",
          "ticks": 40512,
          "time": 110.08692899999998,
          "velocity": 0.7480314960629921
        },
        {
          "duration": 0.2608694999999983,
          "durationTicks": 96,
          "midi": 74,
          "name": "D5",
          "ticks": 40608,
          "time": 110.3477985,
          "velocity": 0.7480314960629921
        },
        {
          "duration": 0.2608694999999983,
          "durationTicks": 96,
          "midi": 48,
          "name": "C3",
          "ticks": 40608,
          "time": 110.3477985,
          "velocity": 0.7480314960629921
        },
        {
          "duration": 1.3043474999999916,
          "durationTicks": 480,
          "midi": 78,
          "name": "F#5",
          "ticks": 40704,
          "time": 110.608668,
          "velocity": 0.7480314960629921
        },
        {
          "duration": 1.3043474999999916,
          "durationTicks": 480,
          "midi": 74,
          "name": "D5",
          "ticks": 40704,
          "time": 110.608668,
          "velocity": 0.7480314960629921
        },
        {
          "duration": 1.3043474999999916,
          "durationTicks": 480,
          "midi": 69,
          "name": "A4",
          "ticks": 40704,
          "time": 110.608668,
          "velocity": 0.7480314960629921
        },
        {
          "duration": 0.2608694999999983,
          "durationTicks": 96,
          "midi": 50,
          "name": "D3",
          "ticks": 40704,
          "time": 110.608668,
          "velocity": 0.7480314960629921
        },
        {
          "duration": 1.0434779999999932,
          "durationTicks": 384,
          "midi": 50,
          "name": "D3",
          "ticks": 40800,
          "time": 110.86953749999999,
          "velocity": 0.7480314960629921
        },
        {
          "duration": 0.2608694999999983,
          "durationTicks": 96,
          "midi": 78,
          "name": "F#5",
          "ticks": 41184,
          "time": 111.91301549999999,
          "velocity": 0.7480314960629921
        },
        {
          "duration": 0.5217390000000108,
          "durationTicks": 192,
          "midi": 50,
          "name": "D3",
          "ticks": 41184,
          "time": 111.91301549999999,
          "velocity": 0.7480314960629921
        },
        {
          "duration": 1.0434780000000075,
          "durationTicks": 384,
          "midi": 69,
          "name": "A4",
          "ticks": 41184,
          "time": 111.91301549999999,
          "velocity": 0.7480314960629921
        },
        {
          "duration": 1.0434780000000075,
          "durationTicks": 384,
          "midi": 72,
          "name": "C5",
          "ticks": 41184,
          "time": 111.91301549999999,
          "velocity": 0.7480314960629921
        },
        {
          "duration": 0.2608695000000125,
          "durationTicks": 96,
          "midi": 76,
          "name": "E5",
          "ticks": 41280,
          "time": 112.17388499999998,
          "velocity": 0.7480314960629921
        },
        {
          "duration": 0.5217389999999966,
          "durationTicks": 192,
          "midi": 78,
          "name": "F#5",
          "ticks": 41376,
          "time": 112.4347545,
          "velocity": 0.7480314960629921
        },
        {
          "duration": 0.5217389999999966,
          "durationTicks": 192,
          "midi": 50,
          "name": "D3",
          "ticks": 41376,
          "time": 112.4347545,
          "velocity": 0.7480314960629921
        },
        {
          "duration": 1.0434779999999932,
          "durationTicks": 384,
          "midi": 55,
          "name": "G3",
          "ticks": 41568,
          "time": 112.9564935,
          "velocity": 0.7480314960629921
        },
        {
          "duration": 1.0434779999999932,
          "durationTicks": 384,
          "midi": 67,
          "name": "G4",
          "ticks": 41568,
          "time": 112.9564935,
          "velocity": 0.7480314960629921
        },
        {
          "duration": 1.0434779999999932,
          "durationTicks": 384,
          "midi": 74,
          "name": "D5",
          "ticks": 41568,
          "time": 112.9564935,
          "velocity": 0.7480314960629921
        },
        {
          "duration": 1.0434779999999932,
          "durationTicks": 384,
          "midi": 79,
          "name": "G5",
          "ticks": 41568,
          "time": 112.9564935,
          "velocity": 0.7480314960629921
        }
      ]
    }
  ]
}