{
    "header": {
      "keySignatures": [
        {
          "key": "C",
          "scale": "major",
          "ticks": 0
        }
      ],
      "meta": [],
      "name": "",
      "ppq": 480,
      "tempos": [
        {
          "bpm": 72.00002880001152,
          "ticks": 0
        }
      ],
      "timeSignatures": [
        {
          "ticks": 0,
          "timeSignature": [
            4,
            4
          ],
          "measures": 0
        }
      ]
    },
    "tracks": [
      {
        "channel": 0,
        "controlChanges": {},
        "pitchBends": [],
        "instrument": {
          "family": "piano",
          "number": 0,
          "name": "acoustic grand piano"
        },
        "name": "Lead",
        "notes": [],
        "endOfTrackTicks": 21120
      },
      {
        "channel": 0,
        "controlChanges": {},
        "pitchBends": [],
        "instrument": {
          "family": "piano",
          "number": 0,
          "name": "acoustic grand piano"
        },
        "name": "Lead",
        "notes": [],
        "endOfTrackTicks": 21120
      },
      {
        "channel": 0,
        "controlChanges": {
          "7": [
            {
              "number": 7,
              "ticks": 492,
              "time": 0.8541663249999999,
              "value": 1
            }
          ],
          "10": [
            {
              "number": 10,
              "ticks": 492,
              "time": 0.8541663249999999,
              "value": 0.5039370078740157
            }
          ],
          "11": [
            {
              "number": 11,
              "ticks": 492,
              "time": 0.8541663249999999,
              "value": 1
            }
          ],
          "91": [
            {
              "number": 91,
              "ticks": 496,
              "time": 0.8611107666666667,
              "value": 0.5511811023622047
            }
          ],
          "93": [
            {
              "number": 93,
              "ticks": 496,
              "time": 0.8611107666666667,
              "value": 0.15748031496062992
            }
          ]
        },
        "pitchBends": [],
        "instrument": {
          "family": "synth lead",
          "number": 82,
          "name": "lead 3 (calliope)"
        },
        "name": "",
        "notes": []
      },
      {
        "channel": 0,
        "controlChanges": {},
        "pitchBends": [],
        "instrument": {
          "family": "piano",
          "number": 0,
          "name": "acoustic grand piano"
        },
        "name": "Lead",
        "notes": [],
        "endOfTrackTicks": 21120
      },
      {
        "channel": 1,
        "controlChanges": {
          "7": [
            {
              "number": 7,
              "ticks": 512,
              "time": 0.8888885333333333,
              "value": 0.9448818897637795
            }
          ],
          "10": [
            {
              "number": 10,
              "ticks": 512,
              "time": 0.8888885333333333,
              "value": 0.5039370078740157
            }
          ],
          "11": [
            {
              "number": 11,
              "ticks": 512,
              "time": 0.8888885333333333,
              "value": 1
            }
          ],
          "91": [
            {
              "number": 91,
              "ticks": 516,
              "time": 0.8958329749999999,
              "value": 0
            }
          ],
          "93": [
            {
              "number": 93,
              "ticks": 516,
              "time": 0.8958329749999999,
              "value": 0
            }
          ]
        },
        "pitchBends": [],
        "instrument": {
          "family": "bass",
          "number": 33,
          "name": "electric bass (finger)"
        },
        "name": "",
        "notes": [
          {
            "duration": 0.3489581937500006,
            "durationTicks": 201,
            "midi": 45,
            "name": "A2",
            "ticks": 9600,
            "time": 16.66666,
            "velocity": 0.937007874015748
          },
          {
            "duration": 0.3454859729166664,
            "durationTicks": 199,
            "midi": 45,
            "name": "A2",
            "ticks": 9840,
            "time": 17.0833265,
            "velocity": 0.6850393700787402
          },
          {
            "duration": 0.3281248687499989,
            "durationTicks": 189,
            "midi": 45,
            "name": "A2",
            "ticks": 10080,
            "time": 17.499993,
            "velocity": 0.9133858267716536
          },
          {
            "duration": 0.13888883333333268,
            "durationTicks": 80,
            "midi": 45,
            "name": "A2",
            "ticks": 10320,
            "time": 17.9166595,
            "velocity": 0.6850393700787402
          },
          {
            "duration": 0.40277761666666834,
            "durationTicks": 232,
            "midi": 45,
            "name": "A2",
            "ticks": 10440,
            "time": 18.12499275,
            "velocity": 0.8031496062992126
          },
          {
            "duration": 0.15104160625000063,
            "durationTicks": 87,
            "midi": 44,
            "name": "G#2",
            "ticks": 10680,
            "time": 18.54165925,
            "velocity": 0.6692913385826772
          },
          {
            "duration": 0.3229165374999994,
            "durationTicks": 186,
            "midi": 44,
            "name": "G#2",
            "ticks": 10800,
            "time": 18.7499925,
            "velocity": 0.7480314960629921
          },
          {
            "duration": 0.34722208333333526,
            "durationTicks": 200,
            "midi": 44,
            "name": "G#2",
            "ticks": 11040,
            "time": 19.166659,
            "velocity": 0.889763779527559
          },
          {
            "duration": 0.303819322916663,
            "durationTicks": 175,
            "midi": 44,
            "name": "G#2",
            "ticks": 11280,
            "time": 19.5833255,
            "velocity": 0.6850393700787402
          },
          {
            "duration": 0.3454859729166664,
            "durationTicks": 199,
            "midi": 49,
            "name": "C#3",
            "ticks": 11520,
            "time": 19.999992,
            "velocity": 0.84251968503937
          },
          {
            "duration": 0.361110966666665,
            "durationTicks": 208,
            "midi": 49,
            "name": "C#3",
            "ticks": 11760,
            "time": 20.4166585,
            "velocity": 0.6850393700787402
          },
          {
            "duration": 0.3038193229166666,
            "durationTicks": 175,
            "midi": 49,
            "name": "C#3",
            "ticks": 12000,
            "time": 20.833325,
            "velocity": 0.7874015748031497
          },
          {
            "duration": 0.13541661250000203,
            "durationTicks": 78,
            "midi": 49,
            "name": "C#3",
            "ticks": 12240,
            "time": 21.2499915,
            "velocity": 0.6850393700787402
          },
          {
            "duration": 0.4131942791666674,
            "durationTicks": 238,
            "midi": 49,
            "name": "C#3",
            "ticks": 12360,
            "time": 21.45832475,
            "velocity": 0.8661417322834646
          },
          {
            "duration": 0.20833324999999903,
            "durationTicks": 120,
            "midi": 40,
            "name": "E2",
            "ticks": 12600,
            "time": 21.87499125,
            "velocity": 0.5905511811023622
          },
          {
            "duration": 0.34374986250000106,
            "durationTicks": 198,
            "midi": 40,
            "name": "E2",
            "ticks": 12720,
            "time": 22.0833245,
            "velocity": 0.6850393700787402
          },
          {
            "duration": 0.3003471020833324,
            "durationTicks": 173,
            "midi": 40,
            "name": "E2",
            "ticks": 12960,
            "time": 22.499991,
            "velocity": 0.9606299212598425
          },
          {
            "duration": 0.4166665000000016,
            "durationTicks": 240,
            "midi": 40,
            "name": "E2",
            "ticks": 13200,
            "time": 22.9166575,
            "velocity": 0.8267716535433071
          },
          {
            "duration": 0.34895819374999704,
            "durationTicks": 201,
            "midi": 45,
            "name": "A2",
            "ticks": 13440,
            "time": 23.333324,
            "velocity": 0.937007874015748
          },
          {
            "duration": 0.3454859729166664,
            "durationTicks": 199,
            "midi": 45,
            "name": "A2",
            "ticks": 13680,
            "time": 23.7499905,
            "velocity": 0.6850393700787402
          },
          {
            "duration": 0.3281248687499989,
            "durationTicks": 189,
            "midi": 45,
            "name": "A2",
            "ticks": 13920,
            "time": 24.166657,
            "velocity": 0.9133858267716536
          },
          {
            "duration": 0.13888883333333624,
            "durationTicks": 80,
            "midi": 45,
            "name": "A2",
            "ticks": 14160,
            "time": 24.5833235,
            "velocity": 0.6850393700787402
          },
          {
            "duration": 0.4027776166666648,
            "durationTicks": 232,
            "midi": 45,
            "name": "A2",
            "ticks": 14280,
            "time": 24.79165675,
            "velocity": 0.8031496062992126
          },
          {
            "duration": 0.15104160625000063,
            "durationTicks": 87,
            "midi": 42,
            "name": "F#2",
            "ticks": 14520,
            "time": 25.20832325,
            "velocity": 0.6692913385826772
          },
          {
            "duration": 0.3229165374999994,
            "durationTicks": 186,
            "midi": 42,
            "name": "F#2",
            "ticks": 14640,
            "time": 25.4166565,
            "velocity": 0.7480314960629921
          },
          {
            "duration": 0.34722208333333526,
            "durationTicks": 200,
            "midi": 42,
            "name": "F#2",
            "ticks": 14880,
            "time": 25.833323,
            "velocity": 0.889763779527559
          },
          {
            "duration": 0.3038193229166666,
            "durationTicks": 175,
            "midi": 42,
            "name": "F#2",
            "ticks": 15120,
            "time": 26.249989499999998,
            "velocity": 0.6850393700787402
          },
          {
            "duration": 0.3454859729166664,
            "durationTicks": 199,
            "midi": 49,
            "name": "C#3",
            "ticks": 15360,
            "time": 26.666656,
            "velocity": 0.84251968503937
          },
          {
            "duration": 0.3611109666666614,
            "durationTicks": 208,
            "midi": 49,
            "name": "C#3",
            "ticks": 15600,
            "time": 27.0833225,
            "velocity": 0.6850393700787402
          },
          {
            "duration": 0.30381932291667013,
            "durationTicks": 175,
            "midi": 49,
            "name": "C#3",
            "ticks": 15840,
            "time": 27.499989,
            "velocity": 0.7874015748031497
          },
          {
            "duration": 0.13541661249999848,
            "durationTicks": 78,
            "midi": 49,
            "name": "C#3",
            "ticks": 16080,
            "time": 27.9166555,
            "velocity": 0.6850393700787402
          },
          {
            "duration": 0.41319427916666385,
            "durationTicks": 238,
            "midi": 49,
            "name": "C#3",
            "ticks": 16200,
            "time": 28.12498875,
            "velocity": 0.8661417322834646
          },
          {
            "duration": 0.20833325000000258,
            "durationTicks": 120,
            "midi": 40,
            "name": "E2",
            "ticks": 16440,
            "time": 28.541655249999998,
            "velocity": 0.5905511811023622
          },
          {
            "duration": 0.34374986250000106,
            "durationTicks": 198,
            "midi": 40,
            "name": "E2",
            "ticks": 16560,
            "time": 28.7499885,
            "velocity": 0.6850393700787402
          },
          {
            "duration": 0.3003471020833324,
            "durationTicks": 173,
            "midi": 40,
            "name": "E2",
            "ticks": 16800,
            "time": 29.166655,
            "velocity": 0.9606299212598425
          },
          {
            "duration": 0.41666649999999805,
            "durationTicks": 240,
            "midi": 40,
            "name": "E2",
            "ticks": 17040,
            "time": 29.5833215,
            "velocity": 0.8267716535433071
          },
          {
            "duration": 0.34895819375000414,
            "durationTicks": 201,
            "midi": 45,
            "name": "A2",
            "ticks": 17280,
            "time": 29.999988,
            "velocity": 0.937007874015748
          },
          {
            "duration": 0.3454859729166664,
            "durationTicks": 199,
            "midi": 45,
            "name": "A2",
            "ticks": 17520,
            "time": 30.4166545,
            "velocity": 0.6850393700787402
          },
          {
            "duration": 0.3281248687499989,
            "durationTicks": 189,
            "midi": 45,
            "name": "A2",
            "ticks": 17760,
            "time": 30.833320999999998,
            "velocity": 0.9133858267716536
          },
          {
            "duration": 0.13888883333333268,
            "durationTicks": 80,
            "midi": 45,
            "name": "A2",
            "ticks": 18000,
            "time": 31.2499875,
            "velocity": 0.6850393700787402
          },
          {
            "duration": 0.40277761666666834,
            "durationTicks": 232,
            "midi": 45,
            "name": "A2",
            "ticks": 18120,
            "time": 31.45832075,
            "velocity": 0.8031496062992126
          },
          {
            "duration": 0.15104160625000063,
            "durationTicks": 87,
            "midi": 44,
            "name": "G#2",
            "ticks": 18360,
            "time": 31.87498725,
            "velocity": 0.6692913385826772
          },
          {
            "duration": 0.3229165374999994,
            "durationTicks": 186,
            "midi": 44,
            "name": "G#2",
            "ticks": 18480,
            "time": 32.0833205,
            "velocity": 0.7480314960629921
          },
          {
            "duration": 0.34722208333333526,
            "durationTicks": 200,
            "midi": 44,
            "name": "G#2",
            "ticks": 18720,
            "time": 32.499987,
            "velocity": 0.889763779527559
          },
          {
            "duration": 0.3038193229166666,
            "durationTicks": 175,
            "midi": 44,
            "name": "G#2",
            "ticks": 18960,
            "time": 32.9166535,
            "velocity": 0.6850393700787402
          },
          {
            "duration": 0.34548597291666283,
            "durationTicks": 199,
            "midi": 49,
            "name": "C#3",
            "ticks": 19200,
            "time": 33.33332,
            "velocity": 0.84251968503937
          },
          {
            "duration": 0.361110966666665,
            "durationTicks": 208,
            "midi": 49,
            "name": "C#3",
            "ticks": 19440,
            "time": 33.7499865,
            "velocity": 0.6850393700787402
          },
          {
            "duration": 0.3038193229166737,
            "durationTicks": 175,
            "midi": 49,
            "name": "C#3",
            "ticks": 19680,
            "time": 34.166653,
            "velocity": 0.7874015748031497
          },
          {
            "duration": 0.13541661250000203,
            "durationTicks": 78,
            "midi": 49,
            "name": "C#3",
            "ticks": 19920,
            "time": 34.5833195,
            "velocity": 0.6850393700787402
          },
          {
            "duration": 0.8333330000000032,
            "durationTicks": 480,
            "midi": 49,
            "name": "C#3",
            "ticks": 20040,
            "time": 34.79165275,
            "velocity": 0.8661417322834646
          }
        ]
      },
      {
        "channel": 0,
        "controlChanges": {},
        "pitchBends": [],
        "instrument": {
          "family": "piano",
          "number": 0,
          "name": "acoustic grand piano"
        },
        "name": "Lead",
        "notes": [],
        "endOfTrackTicks": 21120
      },
      {
        "channel": 2,
        "controlChanges": {
          "7": [
            {
              "number": 7,
              "ticks": 532,
              "time": 0.9236107416666667,
              "value": 1
            }
          ],
          "10": [
            {
              "number": 10,
              "ticks": 532,
              "time": 0.9236107416666667,
              "value": 0.15748031496062992
            }
          ],
          "11": [
            {
              "number": 11,
              "ticks": 532,
              "time": 0.9236107416666667,
              "value": 1
            }
          ],
          "91": [
            {
              "number": 91,
              "ticks": 536,
              "time": 0.9305551833333333,
              "value": 0.7086614173228346
            }
          ],
          "93": [
            {
              "number": 93,
              "ticks": 536,
              "time": 0.9305551833333333,
              "value": 0.06299212598425197
            }
          ]
        },
        "pitchBends": [
          {
            "ticks": 16059,
            "time": 27.880197181249997,
            "value": -0.125
          },
          {
            "ticks": 16069,
            "time": 27.897558285416665,
            "value": -1
          },
          {
            "ticks": 16111,
            "time": 27.970474922916665,
            "value": -0.890625
          },
          {
            "ticks": 16114,
            "time": 27.975683254166665,
            "value": 0
          }
        ],
        "instrument": {
          "family": "guitar",
          "number": 26,
          "name": "electric guitar (jazz)"
        },
        "name": "",
        "notes": [
          {
            "duration": 0.7482635895833347,
            "durationTicks": 431,
            "midi": 76,
            "name": "E5",
            "ticks": 9600,
            "time": 16.66666,
            "velocity": 0.889763779527559
          },
          {
            "duration": 0.7118052708333344,
            "durationTicks": 410,
            "midi": 64,
            "name": "E4",
            "ticks": 9840,
            "time": 17.0833265,
            "velocity": 0.7480314960629921
          },
          {
            "duration": 2.1649296895833317,
            "durationTicks": 1247,
            "midi": 76,
            "name": "E5",
            "ticks": 10080,
            "time": 17.499993,
            "velocity": 0.84251968503937
          },
          {
            "duration": 2.390624043749998,
            "durationTicks": 1377,
            "midi": 64,
            "name": "E4",
            "ticks": 10320,
            "time": 17.9166595,
            "velocity": 0.84251968503937
          },
          {
            "duration": 0.7187497124999993,
            "durationTicks": 414,
            "midi": 71,
            "name": "B4",
            "ticks": 10560,
            "time": 18.333326,
            "velocity": 0.8267716535433071
          },
          {
            "duration": 0.6059025354166643,
            "durationTicks": 349,
            "midi": 73,
            "name": "C#5",
            "ticks": 10800,
            "time": 18.7499925,
            "velocity": 0.7874015748031497
          },
          {
            "duration": 2.380207381249999,
            "durationTicks": 1371,
            "midi": 71,
            "name": "B4",
            "ticks": 11040,
            "time": 19.166659,
            "velocity": 0.8267716535433071
          },
          {
            "duration": 2.0399297395833322,
            "durationTicks": 1175,
            "midi": 73,
            "name": "C#5",
            "ticks": 11280,
            "time": 19.5833255,
            "velocity": 0.7874015748031497
          },
          {
            "duration": 0.7031247187500007,
            "durationTicks": 405,
            "midi": 76,
            "name": "E5",
            "ticks": 11520,
            "time": 19.999992,
            "velocity": 0.84251968503937
          },
          {
            "duration": 0.7395830374999974,
            "durationTicks": 426,
            "midi": 64,
            "name": "E4",
            "ticks": 11760,
            "time": 20.4166585,
            "velocity": 0.8267716535433071
          },
          {
            "duration": 2.161457468750001,
            "durationTicks": 1245,
            "midi": 76,
            "name": "E5",
            "ticks": 12000,
            "time": 20.833325,
            "velocity": 0.84251968503937
          },
          {
            "duration": 2.3732629395833342,
            "durationTicks": 1367,
            "midi": 64,
            "name": "E4",
            "ticks": 12240,
            "time": 21.2499915,
            "velocity": 0.8031496062992126
          },
          {
            "duration": 0.7413191479166699,
            "durationTicks": 427,
            "midi": 71,
            "name": "B4",
            "ticks": 12480,
            "time": 21.666657999999998,
            "velocity": 0.8661417322834646
          },
          {
            "duration": 0.5364581187500015,
            "durationTicks": 309,
            "midi": 73,
            "name": "C#5",
            "ticks": 12720,
            "time": 22.0833245,
            "velocity": 0.7716535433070866
          },
          {
            "duration": 2.1631935791666663,
            "durationTicks": 1246,
            "midi": 71,
            "name": "B4",
            "ticks": 12960,
            "time": 22.499991,
            "velocity": 0.8661417322834646
          },
          {
            "duration": 1.951388108333333,
            "durationTicks": 1124,
            "midi": 73,
            "name": "C#5",
            "ticks": 13200,
            "time": 22.9166575,
            "velocity": 0.7165354330708661
          },
          {
            "duration": 0.6857636145833332,
            "durationTicks": 395,
            "midi": 76,
            "name": "E5",
            "ticks": 13440,
            "time": 23.333324,
            "velocity": 0.8267716535433071
          },
          {
            "duration": 0.6770830624999995,
            "durationTicks": 390,
            "midi": 64,
            "name": "E4",
            "ticks": 13680,
            "time": 23.7499905,
            "velocity": 0.7716535433070866
          },
          {
            "duration": 2.1302074812499967,
            "durationTicks": 1227,
            "midi": 76,
            "name": "E5",
            "ticks": 13920,
            "time": 24.166657,
            "velocity": 0.7874015748031497
          },
          {
            "duration": 2.329860179166669,
            "durationTicks": 1342,
            "midi": 64,
            "name": "E4",
            "ticks": 14160,
            "time": 24.5833235,
            "velocity": 0.8267716535433071
          },
          {
            "duration": 0.6145830875000016,
            "durationTicks": 354,
            "midi": 71,
            "name": "B4",
            "ticks": 14400,
            "time": 24.99999,
            "velocity": 0.8661417322834646
          },
          {
            "duration": 0.553819222916669,
            "durationTicks": 319,
            "midi": 73,
            "name": "C#5",
            "ticks": 14640,
            "time": 25.4166565,
            "velocity": 0.7480314960629921
          },
          {
            "duration": 1.6996520979166654,
            "durationTicks": 979,
            "midi": 71,
            "name": "B4",
            "ticks": 14880,
            "time": 25.833323,
            "velocity": 0.84251968503937
          },
          {
            "duration": 1.0104162625000015,
            "durationTicks": 582,
            "midi": 73,
            "name": "C#5",
            "ticks": 15120,
            "time": 26.249989499999998,
            "velocity": 0.6850393700787402
          },
          {
            "duration": 0.7152774916666687,
            "durationTicks": 412,
            "midi": 76,
            "name": "E5",
            "ticks": 15360,
            "time": 26.666656,
            "velocity": 0.7874015748031497
          },
          {
            "duration": 2.8697905187500012,
            "durationTicks": 1653,
            "midi": 64,
            "name": "E4",
            "ticks": 15600,
            "time": 27.0833225,
            "velocity": 0.8267716535433071
          },
          {
            "duration": 0.31770820624999985,
            "durationTicks": 183,
            "midi": 76,
            "name": "E5",
            "ticks": 15840,
            "time": 27.499989,
            "velocity": 0.8031496062992126
          },
          {
            "duration": 0.45659703958333253,
            "durationTicks": 263,
            "midi": 73,
            "name": "C#5",
            "ticks": 16080,
            "time": 27.9166555,
            "velocity": 0.84251968503937
          },
          {
            "duration": 0.47743036458333066,
            "durationTicks": 275,
            "midi": 71,
            "name": "B4",
            "ticks": 16320,
            "time": 28.333322,
            "velocity": 0.889763779527559
          },
          {
            "duration": 0.4930553583333328,
            "durationTicks": 284,
            "midi": 73,
            "name": "C#5",
            "ticks": 16560,
            "time": 28.7499885,
            "velocity": 0.7716535433070866
          },
          {
            "duration": 0.8177080062500046,
            "durationTicks": 471,
            "midi": 71,
            "name": "B4",
            "ticks": 16800,
            "time": 29.166655,
            "velocity": 0.889763779527559
          },
          {
            "duration": 0.3749998500000018,
            "durationTicks": 216,
            "midi": 73,
            "name": "C#5",
            "ticks": 17040,
            "time": 29.5833215,
            "velocity": 0.8031496062992126
          },
          {
            "duration": 0.7482635895833347,
            "durationTicks": 431,
            "midi": 76,
            "name": "E5",
            "ticks": 17280,
            "time": 29.999988,
            "velocity": 0.889763779527559
          },
          {
            "duration": 0.7118052708333309,
            "durationTicks": 410,
            "midi": 64,
            "name": "E4",
            "ticks": 17520,
            "time": 30.4166545,
            "velocity": 0.7480314960629921
          },
          {
            "duration": 2.1649296895833388,
            "durationTicks": 1247,
            "midi": 76,
            "name": "E5",
            "ticks": 17760,
            "time": 30.833320999999998,
            "velocity": 0.84251968503937
          },
          {
            "duration": 2.390624043749998,
            "durationTicks": 1377,
            "midi": 64,
            "name": "E4",
            "ticks": 18000,
            "time": 31.2499875,
            "velocity": 0.84251968503937
          },
          {
            "duration": 0.7187497124999993,
            "durationTicks": 414,
            "midi": 71,
            "name": "B4",
            "ticks": 18240,
            "time": 31.666654,
            "velocity": 0.8267716535433071
          },
          {
            "duration": 0.6059025354166678,
            "durationTicks": 349,
            "midi": 73,
            "name": "C#5",
            "ticks": 18480,
            "time": 32.0833205,
            "velocity": 0.7874015748031497
          },
          {
            "duration": 2.3802073812500026,
            "durationTicks": 1371,
            "midi": 71,
            "name": "B4",
            "ticks": 18720,
            "time": 32.499987,
            "velocity": 0.8267716535433071
          },
          {
            "duration": 2.0399297395833287,
            "durationTicks": 1175,
            "midi": 73,
            "name": "C#5",
            "ticks": 18960,
            "time": 32.9166535,
            "velocity": 0.7874015748031497
          },
          {
            "duration": 0.7031247187499972,
            "durationTicks": 405,
            "midi": 76,
            "name": "E5",
            "ticks": 19200,
            "time": 33.33332,
            "velocity": 0.84251968503937
          },
          {
            "duration": 0.7395830375000045,
            "durationTicks": 426,
            "midi": 64,
            "name": "E4",
            "ticks": 19440,
            "time": 33.7499865,
            "velocity": 0.8267716535433071
          },
          {
            "duration": 0.8333330000000032,
            "durationTicks": 480,
            "midi": 76,
            "name": "E5",
            "ticks": 19680,
            "time": 34.166653,
            "velocity": 0.84251968503937
          },
          {
            "duration": 0.8333329999999961,
            "durationTicks": 480,
            "midi": 64,
            "name": "E4",
            "ticks": 19920,
            "time": 34.5833195,
            "velocity": 0.8031496062992126
          },
          {
            "duration": 0.8333330000000032,
            "durationTicks": 480,
            "midi": 71,
            "name": "B4",
            "ticks": 20160,
            "time": 34.999986,
            "velocity": 0.8661417322834646
          }
        ]
      },
      {
        "channel": 0,
        "controlChanges": {},
        "pitchBends": [],
        "instrument": {
          "family": "piano",
          "number": 0,
          "name": "acoustic grand piano"
        },
        "name": "Lead",
        "notes": [],
        "endOfTrackTicks": 21120
      },
      {
        "channel": 3,
        "controlChanges": {
          "7": [
            {
              "number": 7,
              "ticks": 552,
              "time": 0.95833295,
              "value": 1
            }
          ],
          "10": [
            {
              "number": 10,
              "ticks": 552,
              "time": 0.95833295,
              "value": 0.8661417322834646
            }
          ],
          "11": [
            {
              "number": 11,
              "ticks": 552,
              "time": 0.95833295,
              "value": 1
            }
          ],
          "91": [
            {
              "number": 91,
              "ticks": 556,
              "time": 0.9652773916666667,
              "value": 0.7086614173228346
            }
          ],
          "93": [
            {
              "number": 93,
              "ticks": 556,
              "time": 0.9652773916666667,
              "value": 0.06299212598425197
            }
          ]
        },
        "pitchBends": [],
        "instrument": {
          "family": "guitar",
          "number": 26,
          "name": "electric guitar (jazz)"
        },
        "name": "",
        "notes": [
          {
            "duration": 1.3802077812500002,
            "durationTicks": 795,
            "midi": 52,
            "name": "E3",
            "ticks": 9600,
            "time": 16.66666,
            "velocity": 0.7322834645669292
          },
          {
            "duration": 1.3732633395833318,
            "durationTicks": 791,
            "midi": 57,
            "name": "A3",
            "ticks": 9600,
            "time": 16.66666,
            "velocity": 0.8031496062992126
          },
          {
            "duration": 1.4305549833333302,
            "durationTicks": 824,
            "midi": 61,
            "name": "C#4",
            "ticks": 9600,
            "time": 16.66666,
            "velocity": 0.8267716535433071
          },
          {
            "duration": 1.3975688854166641,
            "durationTicks": 805,
            "midi": 64,
            "name": "E4",
            "ticks": 9600,
            "time": 16.66666,
            "velocity": 0.8031496062992126
          },
          {
            "duration": 1.6822909937500015,
            "durationTicks": 969,
            "midi": 52,
            "name": "E3",
            "ticks": 10440,
            "time": 18.12499275,
            "velocity": 0.6456692913385826
          },
          {
            "duration": 1.6614576687499998,
            "durationTicks": 957,
            "midi": 56,
            "name": "G#3",
            "ticks": 10440,
            "time": 18.12499275,
            "velocity": 0.84251968503937
          },
          {
            "duration": 1.6163187979166658,
            "durationTicks": 931,
            "midi": 61,
            "name": "C#4",
            "ticks": 10440,
            "time": 18.12499275,
            "velocity": 0.7480314960629921
          },
          {
            "duration": 1.6371521229166675,
            "durationTicks": 943,
            "midi": 64,
            "name": "E4",
            "ticks": 10440,
            "time": 18.12499275,
            "velocity": 0.8661417322834646
          },
          {
            "duration": 1.4704855229166647,
            "durationTicks": 847,
            "midi": 56,
            "name": "G#3",
            "ticks": 11460,
            "time": 19.895825375,
            "velocity": 0.7480314960629921
          },
          {
            "duration": 1.4531244187499972,
            "durationTicks": 837,
            "midi": 59,
            "name": "B3",
            "ticks": 11460,
            "time": 19.895825375,
            "velocity": 0.6692913385826772
          },
          {
            "duration": 1.454860529166666,
            "durationTicks": 838,
            "midi": 61,
            "name": "C#4",
            "ticks": 11460,
            "time": 19.895825375,
            "velocity": 0.7874015748031497
          },
          {
            "duration": 1.47222163333333,
            "durationTicks": 848,
            "midi": 64,
            "name": "E4",
            "ticks": 11460,
            "time": 19.895825375,
            "velocity": 0.6141732283464567
          },
          {
            "duration": 1.6440965645833323,
            "durationTicks": 947,
            "midi": 52,
            "name": "E3",
            "ticks": 12360,
            "time": 21.45832475,
            "velocity": 0.7007874015748031
          },
          {
            "duration": 1.6579854479166656,
            "durationTicks": 955,
            "midi": 56,
            "name": "G#3",
            "ticks": 12360,
            "time": 21.45832475,
            "velocity": 0.8031496062992126
          },
          {
            "duration": 1.6406243437500017,
            "durationTicks": 945,
            "midi": 59,
            "name": "B3",
            "ticks": 12360,
            "time": 21.45832475,
            "velocity": 0.8267716535433071
          },
          {
            "duration": 1.5815965895833344,
            "durationTicks": 911,
            "midi": 62,
            "name": "D4",
            "ticks": 12360,
            "time": 21.45832475,
            "velocity": 0.84251968503937
          },
          {
            "duration": 1.4166661000000005,
            "durationTicks": 816,
            "midi": 52,
            "name": "E3",
            "ticks": 13380,
            "time": 23.229157375,
            "velocity": 0.6456692913385826
          },
          {
            "duration": 1.3923605541666682,
            "durationTicks": 802,
            "midi": 57,
            "name": "A3",
            "ticks": 13380,
            "time": 23.229157375,
            "velocity": 0.7874015748031497
          },
          {
            "duration": 1.432291093749999,
            "durationTicks": 825,
            "midi": 61,
            "name": "C#4",
            "ticks": 13440,
            "time": 23.333324,
            "velocity": 0.7874015748031497
          },
          {
            "duration": 1.4374994249999986,
            "durationTicks": 828,
            "midi": 64,
            "name": "E4",
            "ticks": 13440,
            "time": 23.333324,
            "velocity": 0.7874015748031497
          },
          {
            "duration": 1.4635410812499998,
            "durationTicks": 843,
            "midi": 54,
            "name": "F#3",
            "ticks": 14280,
            "time": 24.79165675,
            "velocity": 0.7007874015748031
          },
          {
            "duration": 1.3975688854166641,
            "durationTicks": 805,
            "midi": 57,
            "name": "A3",
            "ticks": 14280,
            "time": 24.79165675,
            "velocity": 0.7322834645669292
          },
          {
            "duration": 1.449652197916663,
            "durationTicks": 835,
            "midi": 61,
            "name": "C#4",
            "ticks": 14280,
            "time": 24.79165675,
            "velocity": 0.7007874015748031
          },
          {
            "duration": 1.432291093749999,
            "durationTicks": 825,
            "midi": 64,
            "name": "E4",
            "ticks": 14280,
            "time": 24.79165675,
            "velocity": 0.6299212598425197
          },
          {
            "duration": 1.1770828625000007,
            "durationTicks": 678,
            "midi": 56,
            "name": "G#3",
            "ticks": 15360,
            "time": 26.666656,
            "velocity": 0.6692913385826772
          },
          {
            "duration": 1.1736106416666665,
            "durationTicks": 676,
            "midi": 59,
            "name": "B3",
            "ticks": 15360,
            "time": 26.666656,
            "velocity": 0.7322834645669292
          },
          {
            "duration": 1.1388884333333351,
            "durationTicks": 656,
            "midi": 61,
            "name": "C#4",
            "ticks": 15360,
            "time": 26.666656,
            "velocity": 0.6850393700787402
          },
          {
            "duration": 1.1753467520833354,
            "durationTicks": 677,
            "midi": 64,
            "name": "E4",
            "ticks": 15360,
            "time": 26.666656,
            "velocity": 0.7716535433070866
          },
          {
            "duration": 1.7170132020833329,
            "durationTicks": 989,
            "midi": 52,
            "name": "E3",
            "ticks": 16200,
            "time": 28.12498875,
            "velocity": 0.5511811023622047
          },
          {
            "duration": 1.6597215583333345,
            "durationTicks": 956,
            "midi": 56,
            "name": "G#3",
            "ticks": 16200,
            "time": 28.12498875,
            "velocity": 0.8267716535433071
          },
          {
            "duration": 1.6788187729166673,
            "durationTicks": 967,
            "midi": 59,
            "name": "B3",
            "ticks": 16200,
            "time": 28.12498875,
            "velocity": 0.8267716535433071
          },
          {
            "duration": 1.640624343749998,
            "durationTicks": 945,
            "midi": 62,
            "name": "D4",
            "ticks": 16200,
            "time": 28.12498875,
            "velocity": 0.7007874015748031
          },
          {
            "duration": 1.3802077812500002,
            "durationTicks": 795,
            "midi": 52,
            "name": "E3",
            "ticks": 17280,
            "time": 29.999988,
            "velocity": 0.7322834645669292
          },
          {
            "duration": 1.3732633395833354,
            "durationTicks": 791,
            "midi": 57,
            "name": "A3",
            "ticks": 17280,
            "time": 29.999988,
            "velocity": 0.8031496062992126
          },
          {
            "duration": 1.4305549833333373,
            "durationTicks": 824,
            "midi": 61,
            "name": "C#4",
            "ticks": 17280,
            "time": 29.999988,
            "velocity": 0.8267716535433071
          },
          {
            "duration": 1.3975688854166712,
            "durationTicks": 805,
            "midi": 64,
            "name": "E4",
            "ticks": 17280,
            "time": 29.999988,
            "velocity": 0.8031496062992126
          },
          {
            "duration": 1.6822909937500015,
            "durationTicks": 969,
            "midi": 52,
            "name": "E3",
            "ticks": 18120,
            "time": 31.45832075,
            "velocity": 0.6456692913385826
          },
          {
            "duration": 1.6614576687500033,
            "durationTicks": 957,
            "midi": 56,
            "name": "G#3",
            "ticks": 18120,
            "time": 31.45832075,
            "velocity": 0.84251968503937
          },
          {
            "duration": 1.6163187979166693,
            "durationTicks": 931,
            "midi": 61,
            "name": "C#4",
            "ticks": 18120,
            "time": 31.45832075,
            "velocity": 0.7480314960629921
          },
          {
            "duration": 1.6371521229166675,
            "durationTicks": 943,
            "midi": 64,
            "name": "E4",
            "ticks": 18120,
            "time": 31.45832075,
            "velocity": 0.8661417322834646
          },
          {
            "duration": 1.4704855229166611,
            "durationTicks": 847,
            "midi": 56,
            "name": "G#3",
            "ticks": 19140,
            "time": 33.229153375,
            "velocity": 0.7480314960629921
          },
          {
            "duration": 1.4531244187499937,
            "durationTicks": 837,
            "midi": 59,
            "name": "B3",
            "ticks": 19140,
            "time": 33.229153375,
            "velocity": 0.6692913385826772
          },
          {
            "duration": 1.454860529166659,
            "durationTicks": 838,
            "midi": 61,
            "name": "C#4",
            "ticks": 19140,
            "time": 33.229153375,
            "velocity": 0.7874015748031497
          },
          {
            "duration": 1.4722216333333265,
            "durationTicks": 848,
            "midi": 64,
            "name": "E4",
            "ticks": 19140,
            "time": 33.229153375,
            "velocity": 0.6141732283464567
          },
          {
            "duration": 0.8333330000000032,
            "durationTicks": 480,
            "midi": 52,
            "name": "E3",
            "ticks": 20040,
            "time": 34.79165275,
            "velocity": 0.7007874015748031
          },
          {
            "duration": 0.8333330000000032,
            "durationTicks": 480,
            "midi": 56,
            "name": "G#3",
            "ticks": 20040,
            "time": 34.79165275,
            "velocity": 0.8031496062992126
          },
          {
            "duration": 0.8333330000000032,
            "durationTicks": 480,
            "midi": 59,
            "name": "B3",
            "ticks": 20040,
            "time": 34.79165275,
            "velocity": 0.8267716535433071
          },
          {
            "duration": 0.8333330000000032,
            "durationTicks": 480,
            "midi": 62,
            "name": "D4",
            "ticks": 20040,
            "time": 34.79165275,
            "velocity": 0.84251968503937
          }
        ]
      },
      {
        "channel": 0,
        "controlChanges": {},
        "pitchBends": [],
        "instrument": {
          "family": "piano",
          "number": 0,
          "name": "acoustic grand piano"
        },
        "name": "Lead",
        "notes": [],
        "endOfTrackTicks": 21120
      },
      {
        "channel": 0,
        "controlChanges": {
          "7": [
            {
              "number": 7,
              "ticks": 572,
              "time": 0.9930551583333334,
              "value": 0.9448818897637795
            }
          ],
          "10": [
            {
              "number": 10,
              "ticks": 572,
              "time": 0.9930551583333334,
              "value": 0.5039370078740157
            }
          ],
          "11": [
            {
              "number": 11,
              "ticks": 572,
              "time": 0.9930551583333334,
              "value": 1
            }
          ],
          "91": [
            {
              "number": 91,
              "ticks": 576,
              "time": 0.9999996,
              "value": 0.47244094488188976
            }
          ],
          "93": [
            {
              "number": 93,
              "ticks": 576,
              "time": 0.9999996,
              "value": 0
            }
          ]
        },
        "pitchBends": [],
        "instrument": {
          "family": "synth lead",
          "number": 82,
          "name": "lead 3 (calliope)"
        },
        "name": "",
        "notes": []
      },
      {
        "channel": 0,
        "controlChanges": {},
        "pitchBends": [],
        "instrument": {
          "family": "piano",
          "number": 0,
          "name": "acoustic grand piano"
        },
        "name": "Lead",
        "notes": [],
        "endOfTrackTicks": 21120
      },
      {
        "channel": 5,
        "controlChanges": {
          "7": [
            {
              "number": 7,
              "ticks": 592,
              "time": 1.0277773666666667,
              "value": 0.7874015748031497
            }
          ],
          "10": [
            {
              "number": 10,
              "ticks": 592,
              "time": 1.0277773666666667,
              "value": 0.15748031496062992
            }
          ],
          "11": [
            {
              "number": 11,
              "ticks": 592,
              "time": 1.0277773666666667,
              "value": 1
            }
          ],
          "91": [
            {
              "number": 91,
              "ticks": 596,
              "time": 1.0347218083333334,
              "value": 0.7086614173228346
            }
          ],
          "93": [
            {
              "number": 93,
              "ticks": 596,
              "time": 1.0347218083333334,
              "value": 0.047244094488188976
            }
          ]
        },
        "pitchBends": [],
        "instrument": {
          "family": "guitar",
          "number": 30,
          "name": "distortion guitar"
        },
        "name": "",
        "notes": [
          {
            "duration": 1.6024299145833325,
            "durationTicks": 923,
            "midi": 45,
            "name": "A2",
            "ticks": 9600,
            "time": 16.66666,
            "velocity": 0.937007874015748
          },
          {
            "duration": 0.7031247187500007,
            "durationTicks": 405,
            "midi": 52,
            "name": "E3",
            "ticks": 9840,
            "time": 17.0833265,
            "velocity": 0.6456692913385826
          },
          {
            "duration": 1.225693954166669,
            "durationTicks": 706,
            "midi": 57,
            "name": "A3",
            "ticks": 10080,
            "time": 17.499993,
            "velocity": 0.7322834645669292
          },
          {
            "duration": 0.496527579166667,
            "durationTicks": 286,
            "midi": 52,
            "name": "E3",
            "ticks": 10320,
            "time": 17.9166595,
            "velocity": 0.6850393700787402
          },
          {
            "duration": 1.6840271041666668,
            "durationTicks": 970,
            "midi": 44,
            "name": "G#2",
            "ticks": 10560,
            "time": 18.333326,
            "velocity": 0.84251968503937
          },
          {
            "duration": 0.7031247187499972,
            "durationTicks": 405,
            "midi": 52,
            "name": "E3",
            "ticks": 10800,
            "time": 18.7499925,
            "velocity": 0.8267716535433071
          },
          {
            "duration": 0.8489579937500018,
            "durationTicks": 489,
            "midi": 56,
            "name": "G#3",
            "ticks": 11040,
            "time": 19.166659,
            "velocity": 0.8267716535433071
          },
          {
            "duration": 0.42187483125000114,
            "durationTicks": 243,
            "midi": 52,
            "name": "E3",
            "ticks": 11280,
            "time": 19.5833255,
            "velocity": 0.6850393700787402
          },
          {
            "duration": 1.4722216333333336,
            "durationTicks": 848,
            "midi": 49,
            "name": "C#3",
            "ticks": 11520,
            "time": 19.999992,
            "velocity": 0.7165354330708661
          },
          {
            "duration": 0.7638885833333333,
            "durationTicks": 440,
            "midi": 56,
            "name": "G#3",
            "ticks": 11760,
            "time": 20.4166585,
            "velocity": 0.84251968503937
          },
          {
            "duration": 0.4999998000000012,
            "durationTicks": 288,
            "midi": 61,
            "name": "C#4",
            "ticks": 12000,
            "time": 20.833325,
            "velocity": 0.8267716535433071
          },
          {
            "duration": 0.24652767916666818,
            "durationTicks": 142,
            "midi": 56,
            "name": "G#3",
            "ticks": 12240,
            "time": 21.2499915,
            "velocity": 0.7165354330708661
          },
          {
            "duration": 1.7864576187500028,
            "durationTicks": 1029,
            "midi": 40,
            "name": "E2",
            "ticks": 12360,
            "time": 21.45832475,
            "velocity": 0.84251968503937
          },
          {
            "duration": 1.22395784375,
            "durationTicks": 705,
            "midi": 47,
            "name": "B2",
            "ticks": 12720,
            "time": 22.0833245,
            "velocity": 0.8267716535433071
          },
          {
            "duration": 0.7621524729166644,
            "durationTicks": 439,
            "midi": 52,
            "name": "E3",
            "ticks": 12960,
            "time": 22.499991,
            "velocity": 0.8661417322834646
          },
          {
            "duration": 0.43749982499999973,
            "durationTicks": 252,
            "midi": 59,
            "name": "B3",
            "ticks": 13200,
            "time": 22.9166575,
            "velocity": 0.84251968503937
          },
          {
            "duration": 1.4600688604166656,
            "durationTicks": 841,
            "midi": 45,
            "name": "A2",
            "ticks": 13440,
            "time": 23.333324,
            "velocity": 0.8661417322834646
          },
          {
            "duration": 0.7048608291666696,
            "durationTicks": 406,
            "midi": 52,
            "name": "E3",
            "ticks": 13680,
            "time": 23.7499905,
            "velocity": 0.7874015748031497
          },
          {
            "duration": 0.7656246937499986,
            "durationTicks": 441,
            "midi": 57,
            "name": "A3",
            "ticks": 13920,
            "time": 24.166657,
            "velocity": 0.7480314960629921
          },
          {
            "duration": 0.288194329166668,
            "durationTicks": 166,
            "midi": 52,
            "name": "E3",
            "ticks": 14160,
            "time": 24.5833235,
            "velocity": 0.6850393700787402
          },
          {
            "duration": 1.8437492624999976,
            "durationTicks": 1062,
            "midi": 42,
            "name": "F#2",
            "ticks": 14280,
            "time": 24.79165675,
            "velocity": 0.7165354330708661
          },
          {
            "duration": 1.1041662250000002,
            "durationTicks": 636,
            "midi": 49,
            "name": "C#3",
            "ticks": 14640,
            "time": 25.4166565,
            "velocity": 0.5984251968503937
          },
          {
            "duration": 0.7013886083333318,
            "durationTicks": 404,
            "midi": 54,
            "name": "F#3",
            "ticks": 14880,
            "time": 25.833323,
            "velocity": 0.8661417322834646
          },
          {
            "duration": 0.8107635645833362,
            "durationTicks": 467,
            "midi": 61,
            "name": "C#4",
            "ticks": 15120,
            "time": 26.249989499999998,
            "velocity": 0.9133858267716536
          },
          {
            "duration": 1.4739577437499989,
            "durationTicks": 849,
            "midi": 49,
            "name": "C#3",
            "ticks": 15360,
            "time": 26.666656,
            "velocity": 0.7716535433070866
          },
          {
            "duration": 0.7656246937500022,
            "durationTicks": 441,
            "midi": 56,
            "name": "G#3",
            "ticks": 15600,
            "time": 27.0833225,
            "velocity": 0.84251968503937
          },
          {
            "duration": 0.6909719458333328,
            "durationTicks": 398,
            "midi": 61,
            "name": "C#4",
            "ticks": 15840,
            "time": 27.499989,
            "velocity": 0.8661417322834646
          },
          {
            "duration": 0.3038193229166666,
            "durationTicks": 175,
            "midi": 56,
            "name": "G#3",
            "ticks": 16080,
            "time": 27.9166555,
            "velocity": 0.7874015748031497
          },
          {
            "duration": 1.3368050208333315,
            "durationTicks": 770,
            "midi": 52,
            "name": "E3",
            "ticks": 16200,
            "time": 28.12498875,
            "velocity": 1
          },
          {
            "duration": 1.1979161874999988,
            "durationTicks": 690,
            "midi": 64,
            "name": "E4",
            "ticks": 16560,
            "time": 28.7499885,
            "velocity": 0.84251968503937
          },
          {
            "duration": 0.8020830124999989,
            "durationTicks": 462,
            "midi": 59,
            "name": "B3",
            "ticks": 16800,
            "time": 29.166655,
            "velocity": 0.937007874015748
          },
          {
            "duration": 0.4149303895833327,
            "durationTicks": 239,
            "midi": 52,
            "name": "E3",
            "ticks": 17040,
            "time": 29.5833215,
            "velocity": 0.8661417322834646
          },
          {
            "duration": 1.6024299145833325,
            "durationTicks": 923,
            "midi": 45,
            "name": "A2",
            "ticks": 17280,
            "time": 29.999988,
            "velocity": 0.937007874015748
          },
          {
            "duration": 0.7031247187500007,
            "durationTicks": 405,
            "midi": 52,
            "name": "E3",
            "ticks": 17520,
            "time": 30.4166545,
            "velocity": 0.6456692913385826
          },
          {
            "duration": 1.2256939541666654,
            "durationTicks": 706,
            "midi": 57,
            "name": "A3",
            "ticks": 17760,
            "time": 30.833320999999998,
            "velocity": 0.7322834645669292
          },
          {
            "duration": 0.49652757916666346,
            "durationTicks": 286,
            "midi": 52,
            "name": "E3",
            "ticks": 18000,
            "time": 31.2499875,
            "velocity": 0.6850393700787402
          },
          {
            "duration": 1.6840271041666668,
            "durationTicks": 970,
            "midi": 44,
            "name": "G#2",
            "ticks": 18240,
            "time": 31.666654,
            "velocity": 0.84251968503937
          },
          {
            "duration": 0.7031247187499972,
            "durationTicks": 405,
            "midi": 52,
            "name": "E3",
            "ticks": 18480,
            "time": 32.0833205,
            "velocity": 0.8267716535433071
          },
          {
            "duration": 0.8489579937499983,
            "durationTicks": 489,
            "midi": 56,
            "name": "G#3",
            "ticks": 18720,
            "time": 32.499987,
            "velocity": 0.8267716535433071
          },
          {
            "duration": 0.42187483125000114,
            "durationTicks": 243,
            "midi": 52,
            "name": "E3",
            "ticks": 18960,
            "time": 32.9166535,
            "velocity": 0.6850393700787402
          },
          {
            "duration": 1.4722216333333336,
            "durationTicks": 848,
            "midi": 49,
            "name": "C#3",
            "ticks": 19200,
            "time": 33.33332,
            "velocity": 0.7165354330708661
          },
          {
            "duration": 0.7638885833333333,
            "durationTicks": 440,
            "midi": 56,
            "name": "G#3",
            "ticks": 19440,
            "time": 33.7499865,
            "velocity": 0.84251968503937
          },
          {
            "duration": 0.49999980000000477,
            "durationTicks": 288,
            "midi": 61,
            "name": "C#4",
            "ticks": 19680,
            "time": 34.166653,
            "velocity": 0.8267716535433071
          },
          {
            "duration": 0.24652767916666818,
            "durationTicks": 142,
            "midi": 56,
            "name": "G#3",
            "ticks": 19920,
            "time": 34.5833195,
            "velocity": 0.7165354330708661
          },
          {
            "duration": 0.8333330000000032,
            "durationTicks": 480,
            "midi": 40,
            "name": "E2",
            "ticks": 20040,
            "time": 34.79165275,
            "velocity": 0.84251968503937
          }
        ]
      },
      {
        "channel": 0,
        "controlChanges": {},
        "pitchBends": [],
        "instrument": {
          "family": "piano",
          "number": 0,
          "name": "acoustic grand piano"
        },
        "name": "Lead",
        "notes": [],
        "endOfTrackTicks": 21120
      },
      {
        "channel": 6,
        "controlChanges": {
          "7": [
            {
              "number": 7,
              "ticks": 612,
              "time": 1.062499575,
              "value": 0.7874015748031497
            }
          ],
          "10": [
            {
              "number": 10,
              "ticks": 612,
              "time": 1.062499575,
              "value": 0.7874015748031497
            }
          ],
          "11": [
            {
              "number": 11,
              "ticks": 612,
              "time": 1.062499575,
              "value": 1
            }
          ],
          "91": [
            {
              "number": 91,
              "ticks": 616,
              "time": 1.0694440166666668,
              "value": 0.7086614173228346
            }
          ],
          "93": [
            {
              "number": 93,
              "ticks": 616,
              "time": 1.0694440166666668,
              "value": 0.047244094488188976
            }
          ]
        },
        "pitchBends": [
          {
            "ticks": 10154,
            "time": 17.62846517083333,
            "value": 0.09375
          },
          {
            "ticks": 10166,
            "time": 17.649298495833335,
            "value": 0.171875
          },
          {
            "ticks": 10207,
            "time": 17.720479022916667,
            "value": 0
          },
          {
            "ticks": 10285,
            "time": 17.855895635416665,
            "value": 0.1875
          },
          {
            "ticks": 10303,
            "time": 17.887145622916666,
            "value": 0.203125
          },
          {
            "ticks": 10328,
            "time": 17.93054838333333,
            "value": 0
          },
          {
            "ticks": 10841,
            "time": 18.821173027083333,
            "value": 0.140625
          },
          {
            "ticks": 10852,
            "time": 18.840270241666666,
            "value": 0.171875
          },
          {
            "ticks": 10893,
            "time": 18.91145076875,
            "value": 0
          },
          {
            "ticks": 10981,
            "time": 19.064228485416667,
            "value": 0.203125
          },
          {
            "ticks": 11027,
            "time": 19.144089564583332,
            "value": 0.125
          },
          {
            "ticks": 11038,
            "time": 19.163186779166665,
            "value": 0
          },
          {
            "ticks": 11093,
            "time": 19.258672852083333,
            "value": 0.234375
          },
          {
            "ticks": 11112,
            "time": 19.29165895,
            "value": 0.25
          },
          {
            "ticks": 11137,
            "time": 19.335061710416667,
            "value": 0.21875
          },
          {
            "ticks": 11148,
            "time": 19.354158925,
            "value": 0.109375
          },
          {
            "ticks": 11160,
            "time": 19.37499225,
            "value": 0
          },
          {
            "ticks": 11234,
            "time": 19.503464420833332,
            "value": 0.21875
          },
          {
            "ticks": 11247,
            "time": 19.52603385625,
            "value": 0.234375
          },
          {
            "ticks": 11281,
            "time": 19.585061610416666,
            "value": 0.125
          },
          {
            "ticks": 11291,
            "time": 19.602422714583334,
            "value": 0
          },
          {
            "ticks": 11359,
            "time": 19.720478222916665,
            "value": 0.1875
          },
          {
            "ticks": 11380,
            "time": 19.756936541666665,
            "value": 0.21875
          },
          {
            "ticks": 11392,
            "time": 19.777769866666667,
            "value": 0.1875
          },
          {
            "ticks": 11413,
            "time": 19.814228185416667,
            "value": 0
          },
          {
            "ticks": 11951,
            "time": 20.748255589583334,
            "value": 0.078125
          },
          {
            "ticks": 12003,
            "time": 20.83853333125,
            "value": 0
          },
          {
            "ticks": 12072,
            "time": 20.958324949999998,
            "value": 0.15625
          },
          {
            "ticks": 12093,
            "time": 20.994783268750002,
            "value": 0.171875
          },
          {
            "ticks": 12126,
            "time": 21.0520749125,
            "value": 0.109375
          },
          {
            "ticks": 12140,
            "time": 21.076380458333333,
            "value": 0
          },
          {
            "ticks": 12227,
            "time": 21.227422064583333,
            "value": 0.21875
          },
          {
            "ticks": 12246,
            "time": 21.2604081625,
            "value": 0.25
          },
          {
            "ticks": 12278,
            "time": 21.315963695833332,
            "value": 0.109375
          },
          {
            "ticks": 12282,
            "time": 21.322908137499997,
            "value": 0
          },
          {
            "ticks": 12771,
            "time": 22.17186613125,
            "value": 0.09375
          },
          {
            "ticks": 12817,
            "time": 22.251727210416668,
            "value": 0.03125
          },
          {
            "ticks": 12827,
            "time": 22.269088314583332,
            "value": 0
          },
          {
            "ticks": 12892,
            "time": 22.381935491666667,
            "value": 0.109375
          },
          {
            "ticks": 12949,
            "time": 22.480893785416665,
            "value": 0
          },
          {
            "ticks": 13026,
            "time": 22.614574287499998,
            "value": 0.109375
          },
          {
            "ticks": 13037,
            "time": 22.633671502083335,
            "value": 0.15625
          },
          {
            "ticks": 13080,
            "time": 22.70832425,
            "value": 0.046875
          },
          {
            "ticks": 13091,
            "time": 22.727421464583333,
            "value": 0
          },
          {
            "ticks": 13167,
            "time": 22.859365856249998,
            "value": 0.15625
          },
          {
            "ticks": 13174,
            "time": 22.871518629166665,
            "value": 0.203125
          },
          {
            "ticks": 13211,
            "time": 22.935754714583332,
            "value": 0.078125
          },
          {
            "ticks": 13231,
            "time": 22.970476922916667,
            "value": 0
          },
          {
            "ticks": 13299,
            "time": 23.08853243125,
            "value": 0.15625
          },
          {
            "ticks": 13352,
            "time": 23.18054628333333,
            "value": 0
          },
          {
            "ticks": 13918,
            "time": 24.163184779166667,
            "value": 0.109375
          },
          {
            "ticks": 13929,
            "time": 24.18228199375,
            "value": 0.15625
          },
          {
            "ticks": 13947,
            "time": 24.21353198125,
            "value": 0.1875
          },
          {
            "ticks": 13962,
            "time": 24.239573637499998,
            "value": 0.015625
          },
          {
            "ticks": 13985,
            "time": 24.279504177083336,
            "value": 0
          },
          {
            "ticks": 14051,
            "time": 24.394087464583333,
            "value": 0.1875
          },
          {
            "ticks": 14084,
            "time": 24.45137910833333,
            "value": 0.109375
          },
          {
            "ticks": 14101,
            "time": 24.480892985416666,
            "value": 0
          },
          {
            "ticks": 14894,
            "time": 25.857628545833332,
            "value": 0.21875
          },
          {
            "ticks": 14941,
            "time": 25.939225735416667,
            "value": 0
          },
          {
            "ticks": 15020,
            "time": 26.076378458333334,
            "value": 0.171875
          },
          {
            "ticks": 15031,
            "time": 26.095475672916667,
            "value": 0.1875
          },
          {
            "ticks": 15073,
            "time": 26.168392310416667,
            "value": 0.046875
          },
          {
            "ticks": 15086,
            "time": 26.190961745833334,
            "value": 0
          },
          {
            "ticks": 15162,
            "time": 26.3229061375,
            "value": 0.21875
          },
          {
            "ticks": 15176,
            "time": 26.347211683333335,
            "value": 0.234375
          },
          {
            "ticks": 15208,
            "time": 26.402767216666668,
            "value": 0
          },
          {
            "ticks": 15812,
            "time": 27.451377908333335,
            "value": 0.140625
          },
          {
            "ticks": 15822,
            "time": 27.4687390125,
            "value": 0.15625
          },
          {
            "ticks": 15866,
            "time": 27.545127870833333,
            "value": 0.109375
          },
          {
            "ticks": 15874,
            "time": 27.559016754166667,
            "value": 0
          },
          {
            "ticks": 15934,
            "time": 27.663183379166664,
            "value": 0.140625
          },
          {
            "ticks": 15945,
            "time": 27.68228059375,
            "value": 0.15625
          },
          {
            "ticks": 15997,
            "time": 27.77255833541667,
            "value": 0
          },
          {
            "ticks": 16077,
            "time": 27.911447168749998,
            "value": 0.203125
          },
          {
            "ticks": 16121,
            "time": 27.987836027083333,
            "value": 0.125
          },
          {
            "ticks": 16132,
            "time": 28.006933241666665,
            "value": 0
          },
          {
            "ticks": 16596,
            "time": 28.812488475000002,
            "value": 0.125
          },
          {
            "ticks": 16605,
            "time": 28.82811346875,
            "value": 0.140625
          },
          {
            "ticks": 16639,
            "time": 28.887141222916664,
            "value": 0
          },
          {
            "ticks": 16726,
            "time": 29.038182829166665,
            "value": 0.125
          },
          {
            "ticks": 16770,
            "time": 29.1145716875,
            "value": 0
          },
          {
            "ticks": 16845,
            "time": 29.24477996875,
            "value": 0.15625
          },
          {
            "ticks": 16885,
            "time": 29.31422438541667,
            "value": 0
          },
          {
            "ticks": 16965,
            "time": 29.45311321875,
            "value": 0.046875
          },
          {
            "ticks": 16975,
            "time": 29.47047432291667,
            "value": 0.109375
          },
          {
            "ticks": 16996,
            "time": 29.506932641666666,
            "value": 0.09375
          },
          {
            "ticks": 17006,
            "time": 29.524293745833333,
            "value": 0
          },
          {
            "ticks": 17074,
            "time": 29.642349254166668,
            "value": 0.125
          },
          {
            "ticks": 17103,
            "time": 29.69269645625,
            "value": 0
          },
          {
            "ticks": 17834,
            "time": 30.961793170833335,
            "value": 0.09375
          },
          {
            "ticks": 17846,
            "time": 30.982626495833333,
            "value": 0.171875
          },
          {
            "ticks": 17887,
            "time": 31.05380702291667,
            "value": 0
          },
          {
            "ticks": 17965,
            "time": 31.189223635416667,
            "value": 0.15625
          },
          {
            "ticks": 17976,
            "time": 31.208320850000003,
            "value": 0.203125
          },
          {
            "ticks": 18008,
            "time": 31.263876383333333,
            "value": 0
          },
          {
            "ticks": 18521,
            "time": 32.154501027083334,
            "value": 0.140625
          },
          {
            "ticks": 18532,
            "time": 32.17359824166667,
            "value": 0.171875
          },
          {
            "ticks": 18573,
            "time": 32.24477876875,
            "value": 0
          },
          {
            "ticks": 18661,
            "time": 32.397556485416665,
            "value": 0.203125
          },
          {
            "ticks": 18707,
            "time": 32.477417564583334,
            "value": 0
          },
          {
            "ticks": 18773,
            "time": 32.59200085208333,
            "value": 0.234375
          },
          {
            "ticks": 18792,
            "time": 32.62498695,
            "value": 0.25
          },
          {
            "ticks": 18817,
            "time": 32.66838971041667,
            "value": 0.21875
          },
          {
            "ticks": 18828,
            "time": 32.687486925,
            "value": 0
          },
          {
            "ticks": 18914,
            "time": 32.83679242083333,
            "value": 0.234375
          },
          {
            "ticks": 18961,
            "time": 32.91838961041667,
            "value": 0.125
          },
          {
            "ticks": 18971,
            "time": 32.935750714583335,
            "value": 0
          },
          {
            "ticks": 19039,
            "time": 33.05380622291666,
            "value": 0.1875
          },
          {
            "ticks": 19060,
            "time": 33.09026454166667,
            "value": 0.21875
          },
          {
            "ticks": 19072,
            "time": 33.11109786666667,
            "value": 0.1875
          },
          {
            "ticks": 19093,
            "time": 33.14755618541666,
            "value": 0
          },
          {
            "ticks": 19631,
            "time": 34.08158358958333,
            "value": 0.078125
          },
          {
            "ticks": 19683,
            "time": 34.17186133125,
            "value": 0
          },
          {
            "ticks": 19752,
            "time": 34.29165295,
            "value": 0.15625
          },
          {
            "ticks": 19773,
            "time": 34.32811126875,
            "value": 0.171875
          },
          {
            "ticks": 19806,
            "time": 34.385402912500005,
            "value": 0
          },
          {
            "ticks": 19907,
            "time": 34.56075006458334,
            "value": 0.21875
          },
          {
            "ticks": 19918,
            "time": 34.579847279166664,
            "value": 0.25
          },
          {
            "ticks": 19958,
            "time": 34.649291695833334,
            "value": 0
          }
        ],
        "instrument": {
          "family": "guitar",
          "number": 30,
          "name": "distortion guitar"
        },
        "name": "",
        "notes": [
          {
            "duration": 1.4982632895833312,
            "durationTicks": 863,
            "midi": 45,
            "name": "A2",
            "ticks": 9600,
            "time": 16.66666,
            "velocity": 1
          },
          {
            "duration": 1.8854159124999974,
            "durationTicks": 1086,
            "midi": 44,
            "name": "G#2",
            "ticks": 10440,
            "time": 18.12499275,
            "velocity": 0.937007874015748
          },
          {
            "duration": 1.4635410812500034,
            "durationTicks": 843,
            "midi": 49,
            "name": "C#3",
            "ticks": 11520,
            "time": 19.999992,
            "velocity": 0.9291338582677166
          },
          {
            "duration": 1.895832575,
            "durationTicks": 1092,
            "midi": 40,
            "name": "E2",
            "ticks": 12360,
            "time": 21.45832475,
            "velocity": 0.9212598425196851
          },
          {
            "duration": 1.529513277083332,
            "durationTicks": 881,
            "midi": 45,
            "name": "A2",
            "ticks": 13440,
            "time": 23.333324,
            "velocity": 1
          },
          {
            "duration": 1.8576381458333344,
            "durationTicks": 1070,
            "midi": 42,
            "name": "F#2",
            "ticks": 14280,
            "time": 24.79165675,
            "velocity": 0.889763779527559
          },
          {
            "duration": 1.5086799520833338,
            "durationTicks": 869,
            "midi": 49,
            "name": "C#3",
            "ticks": 15360,
            "time": 26.666656,
            "velocity": 0.952755905511811
          },
          {
            "duration": 1.7447909687499994,
            "durationTicks": 1005,
            "midi": 40,
            "name": "E2",
            "ticks": 16200,
            "time": 28.12498875,
            "velocity": 0.9606299212598425
          },
          {
            "duration": 1.4982632895833348,
            "durationTicks": 863,
            "midi": 45,
            "name": "A2",
            "ticks": 17280,
            "time": 29.999988,
            "velocity": 1
          },
          {
            "duration": 1.885415912500001,
            "durationTicks": 1086,
            "midi": 44,
            "name": "G#2",
            "ticks": 18120,
            "time": 31.45832075,
            "velocity": 0.937007874015748
          },
          {
            "duration": 1.4635410812499998,
            "durationTicks": 843,
            "midi": 49,
            "name": "C#3",
            "ticks": 19200,
            "time": 33.33332,
            "velocity": 0.9291338582677166
          },
          {
            "duration": 0.8333330000000032,
            "durationTicks": 480,
            "midi": 40,
            "name": "E2",
            "ticks": 20040,
            "time": 34.79165275,
            "velocity": 0.9212598425196851
          }
        ]
      },
      {
        "channel": 0,
        "controlChanges": {},
        "pitchBends": [],
        "instrument": {
          "family": "piano",
          "number": 0,
          "name": "acoustic grand piano"
        },
        "name": "Lead",
        "notes": [],
        "endOfTrackTicks": 21120
      },
      {
        "channel": 0,
        "controlChanges": {
          "7": [
            {
              "number": 7,
              "ticks": 632,
              "time": 1.0972217833333333,
              "value": 0.7874015748031497
            }
          ],
          "10": [
            {
              "number": 10,
              "ticks": 632,
              "time": 1.0972217833333333,
              "value": 0.5039370078740157
            }
          ],
          "11": [
            {
              "number": 11,
              "ticks": 632,
              "time": 1.0972217833333333,
              "value": 1
            }
          ],
          "91": [
            {
              "number": 91,
              "ticks": 636,
              "time": 1.104166225,
              "value": 0.8661417322834646
            }
          ],
          "93": [
            {
              "number": 93,
              "ticks": 636,
              "time": 1.104166225,
              "value": 0
            }
          ]
        },
        "pitchBends": [],
        "instrument": {
          "family": "ensemble",
          "number": 48,
          "name": "string ensemble 1"
        },
        "name": "",
        "notes": []
      },
      {
        "channel": 0,
        "controlChanges": {},
        "pitchBends": [],
        "instrument": {
          "family": "piano",
          "number": 0,
          "name": "acoustic grand piano"
        },
        "name": "Lead",
        "notes": [],
        "endOfTrackTicks": 21120
      },
      {
        "channel": 8,
        "controlChanges": {
          "7": [
            {
              "number": 7,
              "ticks": 652,
              "time": 1.1319439916666667,
              "value": 0.7086614173228346
            }
          ],
          "10": [
            {
              "number": 10,
              "ticks": 652,
              "time": 1.1319439916666667,
              "value": 0.5039370078740157
            }
          ],
          "11": [
            {
              "number": 11,
              "ticks": 652,
              "time": 1.1319439916666667,
              "value": 1
            }
          ],
          "91": [
            {
              "number": 91,
              "ticks": 656,
              "time": 1.1388884333333333,
              "value": 0.6299212598425197
            }
          ],
          "93": [
            {
              "number": 93,
              "ticks": 656,
              "time": 1.1388884333333333,
              "value": 0.07874015748031496
            }
          ]
        },
        "pitchBends": [],
        "instrument": {
          "family": "organ",
          "number": 18,
          "name": "rock organ"
        },
        "name": "",
        "notes": [
          {
            "duration": 8.008677352083332,
            "durationTicks": 4613,
            "midi": 76,
            "name": "E5",
            "ticks": 9600,
            "time": 16.66666,
            "velocity": 0.7637795275590551
          },
          {
            "duration": 1.336805020833335,
            "durationTicks": 770,
            "midi": 81,
            "name": "A5",
            "ticks": 9600,
            "time": 16.66666,
            "velocity": 0.8110236220472441
          },
          {
            "duration": 4.713539781249999,
            "durationTicks": 2715,
            "midi": 85,
            "name": "C#6",
            "ticks": 9600,
            "time": 16.66666,
            "velocity": 0.7637795275590551
          },
          {
            "duration": 13.300341902083332,
            "durationTicks": 7661,
            "midi": 88,
            "name": "E6",
            "ticks": 9600,
            "time": 16.66666,
            "velocity": 0.7874015748031497
          },
          {
            "duration": 5.1527757166666674,
            "durationTicks": 2968,
            "midi": 80,
            "name": "G#5",
            "ticks": 10440,
            "time": 18.12499275,
            "velocity": 0.8346456692913385
          },
          {
            "duration": 1.7708326250000006,
            "durationTicks": 1020,
            "midi": 83,
            "name": "B5",
            "ticks": 12360,
            "time": 21.45832475,
            "velocity": 0.7874015748031497
          },
          {
            "duration": 3.2152764916666676,
            "durationTicks": 1852,
            "midi": 81,
            "name": "A5",
            "ticks": 13440,
            "time": 23.333324,
            "velocity": 0.7874015748031497
          },
          {
            "duration": 4.7239564437500015,
            "durationTicks": 2721,
            "midi": 85,
            "name": "C#6",
            "ticks": 13440,
            "time": 23.333324,
            "velocity": 0.7480314960629921
          },
          {
            "duration": 1.7343743062500003,
            "durationTicks": 999,
            "midi": 78,
            "name": "F#5",
            "ticks": 14280,
            "time": 24.79165675,
            "velocity": 0.8346456692913385
          },
          {
            "duration": 3.380206981249998,
            "durationTicks": 1947,
            "midi": 76,
            "name": "E5",
            "ticks": 15360,
            "time": 26.666656,
            "velocity": 0.7086614173228346
          },
          {
            "duration": 3.3784708708333326,
            "durationTicks": 1946,
            "midi": 80,
            "name": "G#5",
            "ticks": 15360,
            "time": 26.666656,
            "velocity": 0.7637795275590551
          },
          {
            "duration": 1.873263139583333,
            "durationTicks": 1079,
            "midi": 83,
            "name": "B5",
            "ticks": 16200,
            "time": 28.12498875,
            "velocity": 0.7874015748031497
          },
          {
            "duration": 0.8333329999999997,
            "durationTicks": 480,
            "midi": 76,
            "name": "E5",
            "ticks": 17280,
            "time": 29.999988,
            "velocity": 0.7637795275590551
          },
          {
            "duration": 1.3368050208333315,
            "durationTicks": 770,
            "midi": 81,
            "name": "A5",
            "ticks": 17280,
            "time": 29.999988,
            "velocity": 0.8110236220472441
          },
          {
            "duration": 4.713539781250002,
            "durationTicks": 2715,
            "midi": 85,
            "name": "C#6",
            "ticks": 17280,
            "time": 29.999988,
            "velocity": 0.7637795275590551
          },
          {
            "duration": 0.8333329999999997,
            "durationTicks": 480,
            "midi": 88,
            "name": "E6",
            "ticks": 17280,
            "time": 29.999988,
            "velocity": 0.7874015748031497
          },
          {
            "duration": 0.8333330000000032,
            "durationTicks": 480,
            "midi": 80,
            "name": "G#5",
            "ticks": 18120,
            "time": 31.45832075,
            "velocity": 0.8346456692913385
          },
          {
            "duration": 0.8333330000000032,
            "durationTicks": 480,
            "midi": 83,
            "name": "B5",
            "ticks": 20040,
            "time": 34.79165275,
            "velocity": 0.7874015748031497
          }
        ]
      },
      {
        "channel": 9,
        "controlChanges": {
          "7": [
            {
              "number": 7,
              "ticks": 672,
              "time": 1.1666661999999999,
              "value": 0.9606299212598425
            }
          ],
          "10": [
            {
              "number": 10,
              "ticks": 2881,
              "time": 5.001734110416667,
              "value": 0.5039370078740157
            }
          ],
          "11": [
            {
              "number": 11,
              "ticks": 672,
              "time": 1.1666661999999999,
              "value": 0.8188976377952756
            },
            {
              "number": 11,
              "ticks": 2880,
              "time": 4.999998,
              "value": 1
            },
            {
              "number": 11,
              "ticks": 2882,
              "time": 5.003470220833333,
              "value": 1
            }
          ],
          "91": [
            {
              "number": 91,
              "ticks": 676,
              "time": 1.1736106416666667,
              "value": 0.31496062992125984
            },
            {
              "number": 91,
              "ticks": 2888,
              "time": 5.013886883333333,
              "value": 0.7874015748031497
            }
          ],
          "93": [
            {
              "number": 93,
              "ticks": 676,
              "time": 1.1736106416666667,
              "value": 0
            },
            {
              "number": 93,
              "ticks": 2889,
              "time": 5.01562299375,
              "value": 0
            }
          ]
        },
        "pitchBends": [],
        "instrument": {
          "family": "drums",
          "number": 0,
          "name": "standard kit"
        },
        "name": "Lead",
        "notes": [
          {
            "duration": 0.02604165624999988,
            "durationTicks": 15,
            "midi": 42,
            "name": "F#2",
            "ticks": 1920,
            "time": 3.333332,
            "velocity": 0.6850393700787402
          },
          {
            "duration": 0.026041656250000322,
            "durationTicks": 15,
            "midi": 42,
            "name": "F#2",
            "ticks": 2880,
            "time": 4.999998,
            "velocity": 0.6850393700787402
          },
          {
            "duration": 0.026041656250000322,
            "durationTicks": 15,
            "midi": 42,
            "name": "F#2",
            "ticks": 3840,
            "time": 6.666664,
            "velocity": 0.6692913385826772
          },
          {
            "duration": 0.026041656250000322,
            "durationTicks": 15,
            "midi": 42,
            "name": "F#2",
            "ticks": 4320,
            "time": 7.499997,
            "velocity": 0.6692913385826772
          },
          {
            "duration": 0.026041656249999434,
            "durationTicks": 15,
            "midi": 42,
            "name": "F#2",
            "ticks": 4800,
            "time": 8.33333,
            "velocity": 0.6692913385826772
          },
          {
            "duration": 0.026041656249999434,
            "durationTicks": 15,
            "midi": 42,
            "name": "F#2",
            "ticks": 5280,
            "time": 9.166663,
            "velocity": 0.6692913385826772
          },
          {
            "duration": 0.02604165625000121,
            "durationTicks": 15,
            "midi": 36,
            "name": "C2",
            "ticks": 5760,
            "time": 9.999996,
            "velocity": 1
          },
          {
            "duration": 0.02604165625000121,
            "durationTicks": 15,
            "midi": 49,
            "name": "C#3",
            "ticks": 5760,
            "time": 9.999996,
            "velocity": 0.7086614173228346
          },
          {
            "duration": 0.02604165625000121,
            "durationTicks": 15,
            "midi": 46,
            "name": "A#2",
            "ticks": 6000,
            "time": 10.4166625,
            "velocity": 0.49606299212598426
          },
          {
            "duration": 0.02604165625000121,
            "durationTicks": 15,
            "midi": 38,
            "name": "D2",
            "ticks": 6240,
            "time": 10.833328999999999,
            "velocity": 1
          },
          {
            "duration": 0.02604165625000121,
            "durationTicks": 15,
            "midi": 46,
            "name": "A#2",
            "ticks": 6240,
            "time": 10.833328999999999,
            "velocity": 0.9606299212598425
          },
          {
            "duration": 0.026041656249999434,
            "durationTicks": 15,
            "midi": 46,
            "name": "A#2",
            "ticks": 6480,
            "time": 11.2499955,
            "velocity": 0.5196850393700787
          },
          {
            "duration": 0.026041656249999434,
            "durationTicks": 15,
            "midi": 36,
            "name": "C2",
            "ticks": 6600,
            "time": 11.45832875,
            "velocity": 1
          },
          {
            "duration": 0.026041656249999434,
            "durationTicks": 15,
            "midi": 46,
            "name": "A#2",
            "ticks": 6720,
            "time": 11.666662,
            "velocity": 0.937007874015748
          },
          {
            "duration": 0.026041656249999434,
            "durationTicks": 15,
            "midi": 36,
            "name": "C2",
            "ticks": 6840,
            "time": 11.87499525,
            "velocity": 0.7165354330708661
          },
          {
            "duration": 0.026041656249999434,
            "durationTicks": 15,
            "midi": 36,
            "name": "C2",
            "ticks": 6960,
            "time": 12.0833285,
            "velocity": 0.7480314960629921
          },
          {
            "duration": 0.026041656249999434,
            "durationTicks": 15,
            "midi": 46,
            "name": "A#2",
            "ticks": 6960,
            "time": 12.0833285,
            "velocity": 0.8031496062992126
          },
          {
            "duration": 0.026041656249999434,
            "durationTicks": 15,
            "midi": 38,
            "name": "D2",
            "ticks": 7200,
            "time": 12.499995,
            "velocity": 1
          },
          {
            "duration": 0.026041656249999434,
            "durationTicks": 15,
            "midi": 46,
            "name": "A#2",
            "ticks": 7200,
            "time": 12.499995,
            "velocity": 1
          },
          {
            "duration": 0.026041656249999434,
            "durationTicks": 15,
            "midi": 46,
            "name": "A#2",
            "ticks": 7440,
            "time": 12.9166615,
            "velocity": 0.4645669291338583
          },
          {
            "duration": 0.02604165625000121,
            "durationTicks": 15,
            "midi": 36,
            "name": "C2",
            "ticks": 7560,
            "time": 13.124994749999999,
            "velocity": 0.2283464566929134
          },
          {
            "duration": 0.026041656249999434,
            "durationTicks": 15,
            "midi": 36,
            "name": "C2",
            "ticks": 7620,
            "time": 13.229161375,
            "velocity": 0.3779527559055118
          },
          {
            "duration": 0.026041656249999434,
            "durationTicks": 15,
            "midi": 36,
            "name": "C2",
            "ticks": 7620,
            "time": 13.229161375,
            "velocity": 0.29133858267716534
          },
          {
            "duration": 0.026041656249999434,
            "durationTicks": 15,
            "midi": 36,
            "name": "C2",
            "ticks": 7680,
            "time": 13.333328,
            "velocity": 1
          },
          {
            "duration": 0.026041656249999434,
            "durationTicks": 15,
            "midi": 46,
            "name": "A#2",
            "ticks": 7680,
            "time": 13.333328,
            "velocity": 0.9606299212598425
          },
          {
            "duration": 0.026041656249999434,
            "durationTicks": 15,
            "midi": 46,
            "name": "A#2",
            "ticks": 7920,
            "time": 13.7499945,
            "velocity": 0.49606299212598426
          },
          {
            "duration": 0.02604165625000121,
            "durationTicks": 15,
            "midi": 38,
            "name": "D2",
            "ticks": 8160,
            "time": 14.166661,
            "velocity": 1
          },
          {
            "duration": 0.02604165625000121,
            "durationTicks": 15,
            "midi": 46,
            "name": "A#2",
            "ticks": 8160,
            "time": 14.166661,
            "velocity": 0.9606299212598425
          },
          {
            "duration": 0.02604165625000121,
            "durationTicks": 15,
            "midi": 46,
            "name": "A#2",
            "ticks": 8400,
            "time": 14.5833275,
            "velocity": 0.5196850393700787
          },
          {
            "duration": 0.026041656249999434,
            "durationTicks": 15,
            "midi": 36,
            "name": "C2",
            "ticks": 8520,
            "time": 14.79166075,
            "velocity": 1
          },
          {
            "duration": 0.02604165625000121,
            "durationTicks": 15,
            "midi": 46,
            "name": "A#2",
            "ticks": 8640,
            "time": 14.999994,
            "velocity": 0.937007874015748
          },
          {
            "duration": 0.026041656249999434,
            "durationTicks": 15,
            "midi": 36,
            "name": "C2",
            "ticks": 8760,
            "time": 15.20832725,
            "velocity": 0.7165354330708661
          },
          {
            "duration": 0.02604165625000121,
            "durationTicks": 15,
            "midi": 36,
            "name": "C2",
            "ticks": 8880,
            "time": 15.416660499999999,
            "velocity": 0.7480314960629921
          },
          {
            "duration": 0.02604165625000121,
            "durationTicks": 15,
            "midi": 46,
            "name": "A#2",
            "ticks": 8880,
            "time": 15.416660499999999,
            "velocity": 0.8031496062992126
          },
          {
            "duration": 0.026041656249999434,
            "durationTicks": 15,
            "midi": 38,
            "name": "D2",
            "ticks": 9120,
            "time": 15.833327,
            "velocity": 1
          },
          {
            "duration": 0.026041656249999434,
            "durationTicks": 15,
            "midi": 46,
            "name": "A#2",
            "ticks": 9120,
            "time": 15.833327,
            "velocity": 1
          },
          {
            "duration": 0.02604165625000121,
            "durationTicks": 15,
            "midi": 46,
            "name": "A#2",
            "ticks": 9360,
            "time": 16.2499935,
            "velocity": 0.4645669291338583
          },
          {
            "duration": 0.026041656249997658,
            "durationTicks": 15,
            "midi": 45,
            "name": "A2",
            "ticks": 9480,
            "time": 16.45832675,
            "velocity": 0.5511811023622047
          },
          {
            "duration": 0.02604165625000121,
            "durationTicks": 15,
            "midi": 41,
            "name": "F2",
            "ticks": 9540,
            "time": 16.562493375,
            "velocity": 0.6929133858267716
          },
          {
            "duration": 0.02604165625000121,
            "durationTicks": 15,
            "midi": 43,
            "name": "G2",
            "ticks": 9540,
            "time": 16.562493375,
            "velocity": 0.7559055118110236
          },
          {
            "duration": 0.02604165625000121,
            "durationTicks": 15,
            "midi": 36,
            "name": "C2",
            "ticks": 9600,
            "time": 16.66666,
            "velocity": 1
          },
          {
            "duration": 0.02604165625000121,
            "durationTicks": 15,
            "midi": 49,
            "name": "C#3",
            "ticks": 9600,
            "time": 16.66666,
            "velocity": 0.7874015748031497
          },
          {
            "duration": 0.02604165625000121,
            "durationTicks": 15,
            "midi": 46,
            "name": "A#2",
            "ticks": 9840,
            "time": 17.0833265,
            "velocity": 0.49606299212598426
          },
          {
            "duration": 0.02604165625000121,
            "durationTicks": 15,
            "midi": 38,
            "name": "D2",
            "ticks": 10080,
            "time": 17.499993,
            "velocity": 1
          },
          {
            "duration": 0.02604165625000121,
            "durationTicks": 15,
            "midi": 46,
            "name": "A#2",
            "ticks": 10080,
            "time": 17.499993,
            "velocity": 0.9606299212598425
          },
          {
            "duration": 0.026041656249997658,
            "durationTicks": 15,
            "midi": 46,
            "name": "A#2",
            "ticks": 10320,
            "time": 17.9166595,
            "velocity": 0.5196850393700787
          },
          {
            "duration": 0.026041656249997658,
            "durationTicks": 15,
            "midi": 36,
            "name": "C2",
            "ticks": 10440,
            "time": 18.12499275,
            "velocity": 1
          },
          {
            "duration": 0.02604165625000121,
            "durationTicks": 15,
            "midi": 46,
            "name": "A#2",
            "ticks": 10560,
            "time": 18.333326,
            "velocity": 0.937007874015748
          },
          {
            "duration": 0.02604165625000121,
            "durationTicks": 15,
            "midi": 36,
            "name": "C2",
            "ticks": 10680,
            "time": 18.54165925,
            "velocity": 0.7165354330708661
          },
          {
            "duration": 0.026041656249997658,
            "durationTicks": 15,
            "midi": 36,
            "name": "C2",
            "ticks": 10800,
            "time": 18.7499925,
            "velocity": 0.7480314960629921
          },
          {
            "duration": 0.026041656249997658,
            "durationTicks": 15,
            "midi": 46,
            "name": "A#2",
            "ticks": 10800,
            "time": 18.7499925,
            "velocity": 0.8031496062992126
          },
          {
            "duration": 0.02604165625000121,
            "durationTicks": 15,
            "midi": 38,
            "name": "D2",
            "ticks": 11040,
            "time": 19.166659,
            "velocity": 1
          },
          {
            "duration": 0.02604165625000121,
            "durationTicks": 15,
            "midi": 46,
            "name": "A#2",
            "ticks": 11040,
            "time": 19.166659,
            "velocity": 1
          },
          {
            "duration": 0.026041656249997658,
            "durationTicks": 15,
            "midi": 46,
            "name": "A#2",
            "ticks": 11280,
            "time": 19.5833255,
            "velocity": 0.4645669291338583
          },
          {
            "duration": 0.02604165625000121,
            "durationTicks": 15,
            "midi": 36,
            "name": "C2",
            "ticks": 11520,
            "time": 19.999992,
            "velocity": 1
          },
          {
            "duration": 0.02604165625000121,
            "durationTicks": 15,
            "midi": 46,
            "name": "A#2",
            "ticks": 11520,
            "time": 19.999992,
            "velocity": 0.9606299212598425
          },
          {
            "duration": 0.026041656249997658,
            "durationTicks": 15,
            "midi": 46,
            "name": "A#2",
            "ticks": 11760,
            "time": 20.4166585,
            "velocity": 0.49606299212598426
          },
          {
            "duration": 0.02604165625000121,
            "durationTicks": 15,
            "midi": 38,
            "name": "D2",
            "ticks": 12000,
            "time": 20.833325,
            "velocity": 1
          },
          {
            "duration": 0.02604165625000121,
            "durationTicks": 15,
            "midi": 46,
            "name": "A#2",
            "ticks": 12000,
            "time": 20.833325,
            "velocity": 0.9606299212598425
          },
          {
            "duration": 0.02604165625000121,
            "durationTicks": 15,
            "midi": 46,
            "name": "A#2",
            "ticks": 12240,
            "time": 21.2499915,
            "velocity": 0.5196850393700787
          },
          {
            "duration": 0.02604165625000121,
            "durationTicks": 15,
            "midi": 36,
            "name": "C2",
            "ticks": 12360,
            "time": 21.45832475,
            "velocity": 1
          },
          {
            "duration": 0.02604165625000121,
            "durationTicks": 15,
            "midi": 46,
            "name": "A#2",
            "ticks": 12480,
            "time": 21.666657999999998,
            "velocity": 0.937007874015748
          },
          {
            "duration": 0.026041656249997658,
            "durationTicks": 15,
            "midi": 36,
            "name": "C2",
            "ticks": 12600,
            "time": 21.87499125,
            "velocity": 0.7165354330708661
          },
          {
            "duration": 0.02604165625000121,
            "durationTicks": 15,
            "midi": 36,
            "name": "C2",
            "ticks": 12720,
            "time": 22.0833245,
            "velocity": 0.7480314960629921
          },
          {
            "duration": 0.02604165625000121,
            "durationTicks": 15,
            "midi": 46,
            "name": "A#2",
            "ticks": 12720,
            "time": 22.0833245,
            "velocity": 0.8031496062992126
          },
          {
            "duration": 0.026041656249997658,
            "durationTicks": 15,
            "midi": 38,
            "name": "D2",
            "ticks": 12960,
            "time": 22.499991,
            "velocity": 1
          },
          {
            "duration": 0.026041656249997658,
            "durationTicks": 15,
            "midi": 46,
            "name": "A#2",
            "ticks": 12960,
            "time": 22.499991,
            "velocity": 1
          },
          {
            "duration": 0.02604165625000121,
            "durationTicks": 15,
            "midi": 46,
            "name": "A#2",
            "ticks": 13200,
            "time": 22.9166575,
            "velocity": 0.4645669291338583
          },
          {
            "duration": 0.026041656249997658,
            "durationTicks": 15,
            "midi": 36,
            "name": "C2",
            "ticks": 13440,
            "time": 23.333324,
            "velocity": 1
          },
          {
            "duration": 0.026041656249997658,
            "durationTicks": 15,
            "midi": 46,
            "name": "A#2",
            "ticks": 13440,
            "time": 23.333324,
            "velocity": 0.9606299212598425
          },
          {
            "duration": 0.02604165625000121,
            "durationTicks": 15,
            "midi": 46,
            "name": "A#2",
            "ticks": 13680,
            "time": 23.7499905,
            "velocity": 0.49606299212598426
          },
          {
            "duration": 0.026041656249997658,
            "durationTicks": 15,
            "midi": 38,
            "name": "D2",
            "ticks": 13920,
            "time": 24.166657,
            "velocity": 1
          },
          {
            "duration": 0.026041656249997658,
            "durationTicks": 15,
            "midi": 46,
            "name": "A#2",
            "ticks": 13920,
            "time": 24.166657,
            "velocity": 0.9606299212598425
          },
          {
            "duration": 0.02604165625000121,
            "durationTicks": 15,
            "midi": 46,
            "name": "A#2",
            "ticks": 14160,
            "time": 24.5833235,
            "velocity": 0.5196850393700787
          },
          {
            "duration": 0.026041656249997658,
            "durationTicks": 15,
            "midi": 36,
            "name": "C2",
            "ticks": 14280,
            "time": 24.79165675,
            "velocity": 1
          },
          {
            "duration": 0.026041656249997658,
            "durationTicks": 15,
            "midi": 46,
            "name": "A#2",
            "ticks": 14400,
            "time": 24.99999,
            "velocity": 0.937007874015748
          },
          {
            "duration": 0.02604165625000121,
            "durationTicks": 15,
            "midi": 36,
            "name": "C2",
            "ticks": 14520,
            "time": 25.20832325,
            "velocity": 0.7165354330708661
          },
          {
            "duration": 0.02604165625000121,
            "durationTicks": 15,
            "midi": 36,
            "name": "C2",
            "ticks": 14640,
            "time": 25.4166565,
            "velocity": 0.7480314960629921
          },
          {
            "duration": 0.02604165625000121,
            "durationTicks": 15,
            "midi": 46,
            "name": "A#2",
            "ticks": 14640,
            "time": 25.4166565,
            "velocity": 0.8031496062992126
          },
          {
            "duration": 0.02604165625000121,
            "durationTicks": 15,
            "midi": 38,
            "name": "D2",
            "ticks": 14880,
            "time": 25.833323,
            "velocity": 1
          },
          {
            "duration": 0.02604165625000121,
            "durationTicks": 15,
            "midi": 46,
            "name": "A#2",
            "ticks": 14880,
            "time": 25.833323,
            "velocity": 1
          },
          {
            "duration": 0.02604165625000121,
            "durationTicks": 15,
            "midi": 46,
            "name": "A#2",
            "ticks": 15120,
            "time": 26.249989499999998,
            "velocity": 0.4645669291338583
          },
          {
            "duration": 0.02604165625000121,
            "durationTicks": 15,
            "midi": 36,
            "name": "C2",
            "ticks": 15360,
            "time": 26.666656,
            "velocity": 1
          },
          {
            "duration": 0.02604165625000121,
            "durationTicks": 15,
            "midi": 46,
            "name": "A#2",
            "ticks": 15360,
            "time": 26.666656,
            "velocity": 0.9606299212598425
          },
          {
            "duration": 0.026041656249997658,
            "durationTicks": 15,
            "midi": 46,
            "name": "A#2",
            "ticks": 15600,
            "time": 27.0833225,
            "velocity": 0.49606299212598426
          },
          {
            "duration": 0.02604165625000121,
            "durationTicks": 15,
            "midi": 38,
            "name": "D2",
            "ticks": 15840,
            "time": 27.499989,
            "velocity": 1
          },
          {
            "duration": 0.02604165625000121,
            "durationTicks": 15,
            "midi": 46,
            "name": "A#2",
            "ticks": 15840,
            "time": 27.499989,
            "velocity": 0.9606299212598425
          },
          {
            "duration": 0.026041656249997658,
            "durationTicks": 15,
            "midi": 46,
            "name": "A#2",
            "ticks": 16080,
            "time": 27.9166555,
            "velocity": 0.5196850393700787
          },
          {
            "duration": 0.02604165625000121,
            "durationTicks": 15,
            "midi": 36,
            "name": "C2",
            "ticks": 16200,
            "time": 28.12498875,
            "velocity": 1
          },
          {
            "duration": 0.02604165625000121,
            "durationTicks": 15,
            "midi": 46,
            "name": "A#2",
            "ticks": 16320,
            "time": 28.333322,
            "velocity": 0.937007874015748
          },
          {
            "duration": 0.02604165625000121,
            "durationTicks": 15,
            "midi": 36,
            "name": "C2",
            "ticks": 16440,
            "time": 28.541655249999998,
            "velocity": 0.7165354330708661
          },
          {
            "duration": 0.026041656249997658,
            "durationTicks": 15,
            "midi": 36,
            "name": "C2",
            "ticks": 16560,
            "time": 28.7499885,
            "velocity": 0.7480314960629921
          },
          {
            "duration": 0.026041656249997658,
            "durationTicks": 15,
            "midi": 46,
            "name": "A#2",
            "ticks": 16560,
            "time": 28.7499885,
            "velocity": 0.8031496062992126
          },
          {
            "duration": 0.02604165625000121,
            "durationTicks": 15,
            "midi": 38,
            "name": "D2",
            "ticks": 16800,
            "time": 29.166655,
            "velocity": 1
          },
          {
            "duration": 0.02604165625000121,
            "durationTicks": 15,
            "midi": 46,
            "name": "A#2",
            "ticks": 16800,
            "time": 29.166655,
            "velocity": 1
          },
          {
            "duration": 0.026041656249997658,
            "durationTicks": 15,
            "midi": 46,
            "name": "A#2",
            "ticks": 17040,
            "time": 29.5833215,
            "velocity": 0.4645669291338583
          },
          {
            "duration": 0.02604165625000121,
            "durationTicks": 15,
            "midi": 36,
            "name": "C2",
            "ticks": 17280,
            "time": 29.999988,
            "velocity": 1
          },
          {
            "duration": 0.02604165625000121,
            "durationTicks": 15,
            "midi": 57,
            "name": "A3",
            "ticks": 17280,
            "time": 29.999988,
            "velocity": 0.7480314960629921
          },
          {
            "duration": 0.02604165625000121,
            "durationTicks": 15,
            "midi": 46,
            "name": "A#2",
            "ticks": 17520,
            "time": 30.4166545,
            "velocity": 0.49606299212598426
          },
          {
            "duration": 0.02604165625000121,
            "durationTicks": 15,
            "midi": 38,
            "name": "D2",
            "ticks": 17760,
            "time": 30.833320999999998,
            "velocity": 1
          },
          {
            "duration": 0.02604165625000121,
            "durationTicks": 15,
            "midi": 46,
            "name": "A#2",
            "ticks": 17760,
            "time": 30.833320999999998,
            "velocity": 0.9606299212598425
          },
          {
            "duration": 0.02604165625000121,
            "durationTicks": 15,
            "midi": 46,
            "name": "A#2",
            "ticks": 18000,
            "time": 31.2499875,
            "velocity": 0.5196850393700787
          },
          {
            "duration": 0.02604165625000121,
            "durationTicks": 15,
            "midi": 36,
            "name": "C2",
            "ticks": 18120,
            "time": 31.45832075,
            "velocity": 1
          },
          {
            "duration": 0.026041656249997658,
            "durationTicks": 15,
            "midi": 46,
            "name": "A#2",
            "ticks": 18240,
            "time": 31.666654,
            "velocity": 0.937007874015748
          },
          {
            "duration": 0.026041656249997658,
            "durationTicks": 15,
            "midi": 36,
            "name": "C2",
            "ticks": 18360,
            "time": 31.87498725,
            "velocity": 0.7165354330708661
          },
          {
            "duration": 0.02604165625000121,
            "durationTicks": 15,
            "midi": 36,
            "name": "C2",
            "ticks": 18480,
            "time": 32.0833205,
            "velocity": 0.7480314960629921
          },
          {
            "duration": 0.02604165625000121,
            "durationTicks": 15,
            "midi": 46,
            "name": "A#2",
            "ticks": 18480,
            "time": 32.0833205,
            "velocity": 0.8031496062992126
          },
          {
            "duration": 0.02604165625000121,
            "durationTicks": 15,
            "midi": 38,
            "name": "D2",
            "ticks": 18720,
            "time": 32.499987,
            "velocity": 1
          },
          {
            "duration": 0.02604165625000121,
            "durationTicks": 15,
            "midi": 46,
            "name": "A#2",
            "ticks": 18720,
            "time": 32.499987,
            "velocity": 1
          },
          {
            "duration": 0.026041656249994105,
            "durationTicks": 15,
            "midi": 46,
            "name": "A#2",
            "ticks": 18960,
            "time": 32.9166535,
            "velocity": 0.4645669291338583
          },
          {
            "duration": 0.02604165625000121,
            "durationTicks": 15,
            "midi": 36,
            "name": "C2",
            "ticks": 19200,
            "time": 33.33332,
            "velocity": 1
          },
          {
            "duration": 0.02604165625000121,
            "durationTicks": 15,
            "midi": 46,
            "name": "A#2",
            "ticks": 19200,
            "time": 33.33332,
            "velocity": 0.9606299212598425
          },
          {
            "duration": 0.02604165625000121,
            "durationTicks": 15,
            "midi": 46,
            "name": "A#2",
            "ticks": 19440,
            "time": 33.7499865,
            "velocity": 0.49606299212598426
          },
          {
            "duration": 0.02604165625000121,
            "durationTicks": 15,
            "midi": 38,
            "name": "D2",
            "ticks": 19680,
            "time": 34.166653,
            "velocity": 1
          },
          {
            "duration": 0.02604165625000121,
            "durationTicks": 15,
            "midi": 46,
            "name": "A#2",
            "ticks": 19680,
            "time": 34.166653,
            "velocity": 0.9606299212598425
          },
          {
            "duration": 0.02604165625000121,
            "durationTicks": 15,
            "midi": 46,
            "name": "A#2",
            "ticks": 19920,
            "time": 34.5833195,
            "velocity": 0.5196850393700787
          },
          {
            "duration": 0.02604165625000121,
            "durationTicks": 15,
            "midi": 36,
            "name": "C2",
            "ticks": 20040,
            "time": 34.79165275,
            "velocity": 1
          },
          {
            "duration": 0.8333330000000032,
            "durationTicks": 480,
            "midi": 46,
            "name": "A#2",
            "ticks": 20160,
            "time": 34.999986,
            "velocity": 0.937007874015748
          }
        ],
        "endOfTrackTicks": 21120
      },
      {
        "channel": 0,
        "controlChanges": {},
        "pitchBends": [],
        "instrument": {
          "family": "piano",
          "number": 0,
          "name": "acoustic grand piano"
        },
        "name": "Lead",
        "notes": [],
        "endOfTrackTicks": 21120
      },
      {
        "channel": 10,
        "controlChanges": {
          "7": [
            {
              "number": 7,
              "ticks": 692,
              "time": 1.2013884083333333,
              "value": 0.7086614173228346
            }
          ],
          "10": [
            {
              "number": 10,
              "ticks": 692,
              "time": 1.2013884083333333,
              "value": 0.5039370078740157
            }
          ],
          "11": [
            {
              "number": 11,
              "ticks": 692,
              "time": 1.2013884083333333,
              "value": 1
            }
          ],
          "91": [
            {
              "number": 91,
              "ticks": 696,
              "time": 1.20833285,
              "value": 0.47244094488188976
            }
          ],
          "93": [
            {
              "number": 93,
              "ticks": 696,
              "time": 1.20833285,
              "value": 0.03937007874015748
            }
          ]
        },
        "pitchBends": [],
        "instrument": {
          "family": "guitar",
          "number": 25,
          "name": "acoustic guitar (steel)"
        },
        "name": "",
        "notes": [
          {
            "duration": 0.38020818125000133,
            "durationTicks": 219,
            "midi": 52,
            "name": "E3",
            "ticks": 9600,
            "time": 16.66666,
            "velocity": 1
          },
          {
            "duration": 0.39930539583333413,
            "durationTicks": 230,
            "midi": 57,
            "name": "A3",
            "ticks": 9600,
            "time": 16.66666,
            "velocity": 1
          },
          {
            "duration": 0.3888887333333315,
            "durationTicks": 224,
            "midi": 64,
            "name": "E4",
            "ticks": 9600,
            "time": 16.66666,
            "velocity": 0.9212598425196851
          },
          {
            "duration": 0.39756928541666525,
            "durationTicks": 229,
            "midi": 69,
            "name": "A4",
            "ticks": 9600,
            "time": 16.66666,
            "velocity": 0.5196850393700787
          },
          {
            "duration": 0.3906248437500004,
            "durationTicks": 225,
            "midi": 73,
            "name": "C#5",
            "ticks": 9600,
            "time": 16.66666,
            "velocity": 1
          },
          {
            "duration": 0.3854165124999973,
            "durationTicks": 222,
            "midi": 76,
            "name": "E5",
            "ticks": 9600,
            "time": 16.66666,
            "velocity": 1
          },
          {
            "duration": 0.2517360104166677,
            "durationTicks": 145,
            "midi": 52,
            "name": "E3",
            "ticks": 9840,
            "time": 17.0833265,
            "velocity": 0.5196850393700787
          },
          {
            "duration": 0.2291665750000007,
            "durationTicks": 132,
            "midi": 57,
            "name": "A3",
            "ticks": 9840,
            "time": 17.0833265,
            "velocity": 0.7322834645669292
          },
          {
            "duration": 0.22048602291667052,
            "durationTicks": 127,
            "midi": 64,
            "name": "E4",
            "ticks": 9840,
            "time": 17.0833265,
            "velocity": 0.7086614173228346
          },
          {
            "duration": 0.17361104166666763,
            "durationTicks": 100,
            "midi": 69,
            "name": "A4",
            "ticks": 9840,
            "time": 17.0833265,
            "velocity": 0.7322834645669292
          },
          {
            "duration": 0.18402770416667025,
            "durationTicks": 106,
            "midi": 73,
            "name": "C#5",
            "ticks": 9840,
            "time": 17.0833265,
            "velocity": 0.7086614173228346
          },
          {
            "duration": 0.15624993750000016,
            "durationTicks": 90,
            "midi": 76,
            "name": "E5",
            "ticks": 9840,
            "time": 17.0833265,
            "velocity": 0.6456692913385826
          },
          {
            "duration": 0.17708326249999828,
            "durationTicks": 102,
            "midi": 52,
            "name": "E3",
            "ticks": 9960,
            "time": 17.29165975,
            "velocity": 0.5196850393700787
          },
          {
            "duration": 0.18923603541666623,
            "durationTicks": 109,
            "midi": 57,
            "name": "A3",
            "ticks": 9960,
            "time": 17.29165975,
            "velocity": 0.6141732283464567
          },
          {
            "duration": 0.19270825624999688,
            "durationTicks": 111,
            "midi": 64,
            "name": "E4",
            "ticks": 9960,
            "time": 17.29165975,
            "velocity": 0.7559055118110236
          },
          {
            "duration": 0.2222221333333323,
            "durationTicks": 128,
            "midi": 69,
            "name": "A4",
            "ticks": 9960,
            "time": 17.29165975,
            "velocity": 0.6141732283464567
          },
          {
            "duration": 0.22916657499999715,
            "durationTicks": 132,
            "midi": 73,
            "name": "C#5",
            "ticks": 9960,
            "time": 17.29165975,
            "velocity": 1
          },
          {
            "duration": 0.23958323749999977,
            "durationTicks": 138,
            "midi": 76,
            "name": "E5",
            "ticks": 9960,
            "time": 17.29165975,
            "velocity": 1
          },
          {
            "duration": 0.4149303895833327,
            "durationTicks": 239,
            "midi": 52,
            "name": "E3",
            "ticks": 10080,
            "time": 17.499993,
            "velocity": 1
          },
          {
            "duration": 0.41840261041666693,
            "durationTicks": 241,
            "midi": 57,
            "name": "A3",
            "ticks": 10080,
            "time": 17.499993,
            "velocity": 1
          },
          {
            "duration": 0.41840261041666693,
            "durationTicks": 241,
            "midi": 64,
            "name": "E4",
            "ticks": 10080,
            "time": 17.499993,
            "velocity": 1
          },
          {
            "duration": 0.42013872083333226,
            "durationTicks": 242,
            "midi": 69,
            "name": "A4",
            "ticks": 10080,
            "time": 17.499993,
            "velocity": 0.7559055118110236
          },
          {
            "duration": 0.42013872083333226,
            "durationTicks": 242,
            "midi": 73,
            "name": "C#5",
            "ticks": 10080,
            "time": 17.499993,
            "velocity": 0.5984251968503937
          },
          {
            "duration": 0.4097220583333332,
            "durationTicks": 236,
            "midi": 76,
            "name": "E5",
            "ticks": 10080,
            "time": 17.499993,
            "velocity": 1
          },
          {
            "duration": 0.17013882083332987,
            "durationTicks": 98,
            "midi": 52,
            "name": "E3",
            "ticks": 10320,
            "time": 17.9166595,
            "velocity": 0.6456692913385826
          },
          {
            "duration": 0.16840271041666455,
            "durationTicks": 97,
            "midi": 57,
            "name": "A3",
            "ticks": 10320,
            "time": 17.9166595,
            "velocity": 0.8740157480314961
          },
          {
            "duration": 0.1562499374999966,
            "durationTicks": 90,
            "midi": 64,
            "name": "E4",
            "ticks": 10320,
            "time": 17.9166595,
            "velocity": 0.8503937007874016
          },
          {
            "duration": 0.15277771666666595,
            "durationTicks": 88,
            "midi": 69,
            "name": "A4",
            "ticks": 10320,
            "time": 17.9166595,
            "velocity": 0.9212598425196851
          },
          {
            "duration": 0.15277771666666595,
            "durationTicks": 88,
            "midi": 73,
            "name": "C#5",
            "ticks": 10320,
            "time": 17.9166595,
            "velocity": 1
          },
          {
            "duration": 0.1423610541666669,
            "durationTicks": 82,
            "midi": 76,
            "name": "E5",
            "ticks": 10320,
            "time": 17.9166595,
            "velocity": 1
          },
          {
            "duration": 0.41666649999999805,
            "durationTicks": 240,
            "midi": 56,
            "name": "G#3",
            "ticks": 10440,
            "time": 18.12499275,
            "velocity": 0.8976377952755905
          },
          {
            "duration": 0.4114581687499985,
            "durationTicks": 237,
            "midi": 61,
            "name": "C#4",
            "ticks": 10440,
            "time": 18.12499275,
            "velocity": 1
          },
          {
            "duration": 0.40277761666666834,
            "durationTicks": 232,
            "midi": 68,
            "name": "G#4",
            "ticks": 10440,
            "time": 18.12499275,
            "velocity": 1
          },
          {
            "duration": 0.406249837499999,
            "durationTicks": 234,
            "midi": 71,
            "name": "B4",
            "ticks": 10440,
            "time": 18.12499275,
            "velocity": 1
          },
          {
            "duration": 0.40104150624999946,
            "durationTicks": 231,
            "midi": 76,
            "name": "E5",
            "ticks": 10440,
            "time": 18.12499275,
            "velocity": 1
          },
          {
            "duration": 0.1874999250000009,
            "durationTicks": 108,
            "midi": 56,
            "name": "G#3",
            "ticks": 10680,
            "time": 18.54165925,
            "velocity": 0.9212598425196851
          },
          {
            "duration": 0.1909721458333351,
            "durationTicks": 110,
            "midi": 61,
            "name": "C#4",
            "ticks": 10680,
            "time": 18.54165925,
            "velocity": 1
          },
          {
            "duration": 0.21527769166666744,
            "durationTicks": 124,
            "midi": 68,
            "name": "G#4",
            "ticks": 10680,
            "time": 18.54165925,
            "velocity": 0.8031496062992126
          },
          {
            "duration": 0.23090268541666958,
            "durationTicks": 133,
            "midi": 71,
            "name": "B4",
            "ticks": 10680,
            "time": 18.54165925,
            "velocity": 1
          },
          {
            "duration": 0.2447915687499993,
            "durationTicks": 141,
            "midi": 76,
            "name": "E5",
            "ticks": 10680,
            "time": 18.54165925,
            "velocity": 1
          },
          {
            "duration": 0.21354158124999856,
            "durationTicks": 123,
            "midi": 56,
            "name": "G#3",
            "ticks": 10800,
            "time": 18.7499925,
            "velocity": 0.7086614173228346
          },
          {
            "duration": 0.19618047708333108,
            "durationTicks": 113,
            "midi": 61,
            "name": "C#4",
            "ticks": 10800,
            "time": 18.7499925,
            "velocity": 0.968503937007874
          },
          {
            "duration": 0.17534715208333296,
            "durationTicks": 101,
            "midi": 68,
            "name": "G#4",
            "ticks": 10800,
            "time": 18.7499925,
            "velocity": 0.9212598425196851
          },
          {
            "duration": 0.17013882083332987,
            "durationTicks": 98,
            "midi": 71,
            "name": "B4",
            "ticks": 10800,
            "time": 18.7499925,
            "velocity": 1
          },
          {
            "duration": 0.13541661249999848,
            "durationTicks": 78,
            "midi": 76,
            "name": "E5",
            "ticks": 10800,
            "time": 18.7499925,
            "velocity": 0.7322834645669292
          },
          {
            "duration": 0.1909721458333351,
            "durationTicks": 110,
            "midi": 56,
            "name": "G#3",
            "ticks": 10920,
            "time": 18.95832575,
            "velocity": 0.6850393700787402
          },
          {
            "duration": 0.20486102916666482,
            "durationTicks": 118,
            "midi": 61,
            "name": "C#4",
            "ticks": 10920,
            "time": 18.95832575,
            "velocity": 0.7795275590551181
          },
          {
            "duration": 0.21180547083333323,
            "durationTicks": 122,
            "midi": 68,
            "name": "G#4",
            "ticks": 10920,
            "time": 18.95832575,
            "velocity": 0.7322834645669292
          },
          {
            "duration": 0.23263879583333136,
            "durationTicks": 134,
            "midi": 71,
            "name": "B4",
            "ticks": 10920,
            "time": 18.95832575,
            "velocity": 0.6850393700787402
          },
          {
            "duration": 0.23611101666666912,
            "durationTicks": 136,
            "midi": 76,
            "name": "E5",
            "ticks": 10920,
            "time": 18.95832575,
            "velocity": 0.6850393700787402
          },
          {
            "duration": 0.3906248437500004,
            "durationTicks": 225,
            "midi": 56,
            "name": "G#3",
            "ticks": 11040,
            "time": 19.166659,
            "velocity": 1
          },
          {
            "duration": 0.3888887333333315,
            "durationTicks": 224,
            "midi": 61,
            "name": "C#4",
            "ticks": 11040,
            "time": 19.166659,
            "velocity": 1
          },
          {
            "duration": 0.40277761666666834,
            "durationTicks": 232,
            "midi": 68,
            "name": "G#4",
            "ticks": 11040,
            "time": 19.166659,
            "velocity": 1
          },
          {
            "duration": 0.40451372708333366,
            "durationTicks": 233,
            "midi": 71,
            "name": "B4",
            "ticks": 11040,
            "time": 19.166659,
            "velocity": 1
          },
          {
            "duration": 0.5885414312500004,
            "durationTicks": 339,
            "midi": 76,
            "name": "E5",
            "ticks": 11040,
            "time": 19.166659,
            "velocity": 1
          },
          {
            "duration": 0.23263879583333136,
            "durationTicks": 134,
            "midi": 56,
            "name": "G#3",
            "ticks": 11280,
            "time": 19.5833255,
            "velocity": 0.7086614173228346
          },
          {
            "duration": 0.21527769166666388,
            "durationTicks": 124,
            "midi": 61,
            "name": "C#4",
            "ticks": 11280,
            "time": 19.5833255,
            "velocity": 0.7086614173228346
          },
          {
            "duration": 0.2031249187499995,
            "durationTicks": 117,
            "midi": 68,
            "name": "G#4",
            "ticks": 11280,
            "time": 19.5833255,
            "velocity": 0.6614173228346457
          },
          {
            "duration": 0.18923603541666623,
            "durationTicks": 109,
            "midi": 71,
            "name": "B4",
            "ticks": 11280,
            "time": 19.5833255,
            "velocity": 0.7322834645669292
          },
          {
            "duration": 0.19444436666666576,
            "durationTicks": 112,
            "midi": 56,
            "name": "G#3",
            "ticks": 11400,
            "time": 19.79165875,
            "velocity": 0.6141732283464567
          },
          {
            "duration": 0.20659713958333015,
            "durationTicks": 119,
            "midi": 61,
            "name": "C#4",
            "ticks": 11400,
            "time": 19.79165875,
            "velocity": 0.7086614173228346
          },
          {
            "duration": 0.21180547083333323,
            "durationTicks": 122,
            "midi": 68,
            "name": "G#4",
            "ticks": 11400,
            "time": 19.79165875,
            "velocity": 0.8503937007874016
          },
          {
            "duration": 0.22916657499999715,
            "durationTicks": 132,
            "midi": 71,
            "name": "B4",
            "ticks": 11400,
            "time": 19.79165875,
            "velocity": 0.7559055118110236
          },
          {
            "duration": 0.24652767916666818,
            "durationTicks": 142,
            "midi": 76,
            "name": "E5",
            "ticks": 11400,
            "time": 19.79165875,
            "velocity": 0.7322834645669292
          },
          {
            "duration": 0.3940970645833346,
            "durationTicks": 227,
            "midi": 56,
            "name": "G#3",
            "ticks": 11520,
            "time": 19.999992,
            "velocity": 1
          },
          {
            "duration": 0.3975692854166688,
            "durationTicks": 229,
            "midi": 61,
            "name": "C#4",
            "ticks": 11520,
            "time": 19.999992,
            "velocity": 0.7559055118110236
          },
          {
            "duration": 0.4131942791666674,
            "durationTicks": 238,
            "midi": 68,
            "name": "G#4",
            "ticks": 11520,
            "time": 19.999992,
            "velocity": 0.8976377952755905
          },
          {
            "duration": 0.4131942791666674,
            "durationTicks": 238,
            "midi": 73,
            "name": "C#5",
            "ticks": 11520,
            "time": 19.999992,
            "velocity": 0.8031496062992126
          },
          {
            "duration": 0.4097220583333332,
            "durationTicks": 236,
            "midi": 76,
            "name": "E5",
            "ticks": 11520,
            "time": 19.999992,
            "velocity": 1
          },
          {
            "duration": 0.22743046458333183,
            "durationTicks": 131,
            "midi": 56,
            "name": "G#3",
            "ticks": 11760,
            "time": 20.4166585,
            "velocity": 0.7086614173228346
          },
          {
            "duration": 0.20138880833333417,
            "durationTicks": 116,
            "midi": 61,
            "name": "C#4",
            "ticks": 11760,
            "time": 20.4166585,
            "velocity": 0.7086614173228346
          },
          {
            "duration": 0.1909721458333351,
            "durationTicks": 110,
            "midi": 68,
            "name": "G#4",
            "ticks": 11760,
            "time": 20.4166585,
            "velocity": 0.6456692913385826
          },
          {
            "duration": 0.18229159374999782,
            "durationTicks": 105,
            "midi": 73,
            "name": "C#5",
            "ticks": 11760,
            "time": 20.4166585,
            "velocity": 0.6850393700787402
          },
          {
            "duration": 0.15624993750000016,
            "durationTicks": 90,
            "midi": 76,
            "name": "E5",
            "ticks": 11760,
            "time": 20.4166585,
            "velocity": 0.5826771653543307
          },
          {
            "duration": 0.18923603541666623,
            "durationTicks": 109,
            "midi": 56,
            "name": "G#3",
            "ticks": 11880,
            "time": 20.62499175,
            "velocity": 0.6850393700787402
          },
          {
            "duration": 0.19270825625000043,
            "durationTicks": 111,
            "midi": 61,
            "name": "C#4",
            "ticks": 11880,
            "time": 20.62499175,
            "velocity": 0.6850393700787402
          },
          {
            "duration": 0.20833324999999903,
            "durationTicks": 120,
            "midi": 68,
            "name": "G#4",
            "ticks": 11880,
            "time": 20.62499175,
            "velocity": 0.7795275590551181
          },
          {
            "duration": 0.22048602291666697,
            "durationTicks": 127,
            "midi": 73,
            "name": "C#5",
            "ticks": 11880,
            "time": 20.62499175,
            "velocity": 0.8267716535433071
          },
          {
            "duration": 0.23437490625000024,
            "durationTicks": 135,
            "midi": 76,
            "name": "E5",
            "ticks": 11880,
            "time": 20.62499175,
            "velocity": 0.7322834645669292
          },
          {
            "duration": 0.4201387208333358,
            "durationTicks": 242,
            "midi": 56,
            "name": "G#3",
            "ticks": 12000,
            "time": 20.833325,
            "velocity": 1
          },
          {
            "duration": 0.4201387208333358,
            "durationTicks": 242,
            "midi": 61,
            "name": "C#4",
            "ticks": 12000,
            "time": 20.833325,
            "velocity": 1
          },
          {
            "duration": 0.42187483125000114,
            "durationTicks": 243,
            "midi": 68,
            "name": "G#4",
            "ticks": 12000,
            "time": 20.833325,
            "velocity": 0.8267716535433071
          },
          {
            "duration": 0.42361094166666646,
            "durationTicks": 244,
            "midi": 73,
            "name": "C#5",
            "ticks": 12000,
            "time": 20.833325,
            "velocity": 0.5826771653543307
          },
          {
            "duration": 0.42361094166666646,
            "durationTicks": 244,
            "midi": 76,
            "name": "E5",
            "ticks": 12000,
            "time": 20.833325,
            "velocity": 1
          },
          {
            "duration": 0.23437490625000024,
            "durationTicks": 135,
            "midi": 56,
            "name": "G#3",
            "ticks": 12240,
            "time": 21.2499915,
            "velocity": 0.8031496062992126
          },
          {
            "duration": 0.22743046458333183,
            "durationTicks": 131,
            "midi": 61,
            "name": "C#4",
            "ticks": 12240,
            "time": 21.2499915,
            "velocity": 0.9212598425196851
          },
          {
            "duration": 0.2135415812500021,
            "durationTicks": 123,
            "midi": 68,
            "name": "G#4",
            "ticks": 12240,
            "time": 21.2499915,
            "velocity": 1
          },
          {
            "duration": 0.19270825625000043,
            "durationTicks": 111,
            "midi": 73,
            "name": "C#5",
            "ticks": 12240,
            "time": 21.2499915,
            "velocity": 1
          },
          {
            "duration": 0.18229159375000137,
            "durationTicks": 105,
            "midi": 76,
            "name": "E5",
            "ticks": 12240,
            "time": 21.2499915,
            "velocity": 0.6850393700787402
          },
          {
            "duration": 0.8229163375000006,
            "durationTicks": 474,
            "midi": 52,
            "name": "E3",
            "ticks": 12360,
            "time": 21.45832475,
            "velocity": 0.47244094488188976
          },
          {
            "duration": 0.40104150624999946,
            "durationTicks": 231,
            "midi": 59,
            "name": "B3",
            "ticks": 12360,
            "time": 21.45832475,
            "velocity": 1
          },
          {
            "duration": 0.3958331750000035,
            "durationTicks": 228,
            "midi": 64,
            "name": "E4",
            "ticks": 12360,
            "time": 21.45832475,
            "velocity": 0.8740157480314961
          },
          {
            "duration": 0.3888887333333315,
            "durationTicks": 224,
            "midi": 68,
            "name": "G#4",
            "ticks": 12360,
            "time": 21.45832475,
            "velocity": 1
          },
          {
            "duration": 0.3888887333333315,
            "durationTicks": 224,
            "midi": 71,
            "name": "B4",
            "ticks": 12360,
            "time": 21.45832475,
            "velocity": 1
          },
          {
            "duration": 0.40277761666666834,
            "durationTicks": 232,
            "midi": 74,
            "name": "D5",
            "ticks": 12360,
            "time": 21.45832475,
            "velocity": 0.8503937007874016
          },
          {
            "duration": 0.41840261041666693,
            "durationTicks": 241,
            "midi": 59,
            "name": "B3",
            "ticks": 12600,
            "time": 21.87499125,
            "velocity": 0.7086614173228346
          },
          {
            "duration": 0.42013872083333226,
            "durationTicks": 242,
            "midi": 64,
            "name": "E4",
            "ticks": 12600,
            "time": 21.87499125,
            "velocity": 1
          },
          {
            "duration": 0.2222221333333323,
            "durationTicks": 128,
            "midi": 68,
            "name": "G#4",
            "ticks": 12600,
            "time": 21.87499125,
            "velocity": 1
          },
          {
            "duration": 0.22743046458333183,
            "durationTicks": 131,
            "midi": 71,
            "name": "B4",
            "ticks": 12600,
            "time": 21.87499125,
            "velocity": 0.8267716535433071
          },
          {
            "duration": 0.23090268541666603,
            "durationTicks": 133,
            "midi": 74,
            "name": "D5",
            "ticks": 12600,
            "time": 21.87499125,
            "velocity": 0.6850393700787402
          },
          {
            "duration": 0.2031249187499995,
            "durationTicks": 117,
            "midi": 68,
            "name": "G#4",
            "ticks": 12720,
            "time": 22.0833245,
            "velocity": 0.6850393700787402
          },
          {
            "duration": 0.18576381458333202,
            "durationTicks": 107,
            "midi": 71,
            "name": "B4",
            "ticks": 12720,
            "time": 22.0833245,
            "velocity": 0.7559055118110236
          },
          {
            "duration": 0.4114581687499985,
            "durationTicks": 237,
            "midi": 74,
            "name": "D5",
            "ticks": 12720,
            "time": 22.0833245,
            "velocity": 0.5984251968503937
          },
          {
            "duration": 0.1718749312500023,
            "durationTicks": 99,
            "midi": 52,
            "name": "E3",
            "ticks": 12840,
            "time": 22.29165775,
            "velocity": 0.7086614173228346
          },
          {
            "duration": 0.20138880833333417,
            "durationTicks": 116,
            "midi": 59,
            "name": "B3",
            "ticks": 12840,
            "time": 22.29165775,
            "velocity": 0.6456692913385826
          },
          {
            "duration": 0.20833325000000258,
            "durationTicks": 120,
            "midi": 64,
            "name": "E4",
            "ticks": 12840,
            "time": 22.29165775,
            "velocity": 0.7795275590551181
          },
          {
            "duration": 0.21874991250000164,
            "durationTicks": 126,
            "midi": 68,
            "name": "G#4",
            "ticks": 12840,
            "time": 22.29165775,
            "velocity": 0.7322834645669292
          },
          {
            "duration": 0.23611101666666912,
            "durationTicks": 136,
            "midi": 71,
            "name": "B4",
            "ticks": 12840,
            "time": 22.29165775,
            "velocity": 0.5354330708661418
          },
          {
            "duration": 0.3888887333333315,
            "durationTicks": 224,
            "midi": 52,
            "name": "E3",
            "ticks": 12960,
            "time": 22.499991,
            "velocity": 0.8740157480314961
          },
          {
            "duration": 0.3854165124999973,
            "durationTicks": 222,
            "midi": 59,
            "name": "B3",
            "ticks": 12960,
            "time": 22.499991,
            "velocity": 0.7322834645669292
          },
          {
            "duration": 0.39756928541666525,
            "durationTicks": 229,
            "midi": 64,
            "name": "E4",
            "ticks": 12960,
            "time": 22.499991,
            "velocity": 1
          },
          {
            "duration": 0.40104150624999946,
            "durationTicks": 231,
            "midi": 68,
            "name": "G#4",
            "ticks": 12960,
            "time": 22.499991,
            "velocity": 1
          },
          {
            "duration": 0.40104150624999946,
            "durationTicks": 231,
            "midi": 71,
            "name": "B4",
            "ticks": 12960,
            "time": 22.499991,
            "velocity": 1
          },
          {
            "duration": 0.406249837499999,
            "durationTicks": 234,
            "midi": 74,
            "name": "D5",
            "ticks": 12960,
            "time": 22.499991,
            "velocity": 1
          },
          {
            "duration": 0.2447915687499993,
            "durationTicks": 141,
            "midi": 52,
            "name": "E3",
            "ticks": 13200,
            "time": 22.9166575,
            "velocity": 0.5984251968503937
          },
          {
            "duration": 0.21701380208333632,
            "durationTicks": 125,
            "midi": 59,
            "name": "B3",
            "ticks": 13200,
            "time": 22.9166575,
            "velocity": 0.6141732283464567
          },
          {
            "duration": 0.2065971395833337,
            "durationTicks": 119,
            "midi": 64,
            "name": "E4",
            "ticks": 13200,
            "time": 22.9166575,
            "velocity": 0.7795275590551181
          },
          {
            "duration": 0.18923603541666623,
            "durationTicks": 109,
            "midi": 68,
            "name": "G#4",
            "ticks": 13200,
            "time": 22.9166575,
            "velocity": 0.8031496062992126
          },
          {
            "duration": 0.17534715208333296,
            "durationTicks": 101,
            "midi": 71,
            "name": "B4",
            "ticks": 13200,
            "time": 22.9166575,
            "velocity": 0.7086614173228346
          },
          {
            "duration": 0.15104160625000063,
            "durationTicks": 87,
            "midi": 74,
            "name": "D5",
            "ticks": 13200,
            "time": 22.9166575,
            "velocity": 0.6299212598425197
          },
          {
            "duration": 0.15451382708333483,
            "durationTicks": 89,
            "midi": 52,
            "name": "E3",
            "ticks": 13320,
            "time": 23.12499075,
            "velocity": 0.8976377952755905
          },
          {
            "duration": 0.16145826875000324,
            "durationTicks": 93,
            "midi": 59,
            "name": "B3",
            "ticks": 13320,
            "time": 23.12499075,
            "velocity": 0.7559055118110236
          },
          {
            "duration": 0.17361104166666763,
            "durationTicks": 100,
            "midi": 64,
            "name": "E4",
            "ticks": 13320,
            "time": 23.12499075,
            "velocity": 0.7322834645669292
          },
          {
            "duration": 0.17881937291666716,
            "durationTicks": 103,
            "midi": 68,
            "name": "G#4",
            "ticks": 13320,
            "time": 23.12499075,
            "velocity": 0.6456692913385826
          },
          {
            "duration": 0.19618047708333464,
            "durationTicks": 113,
            "midi": 71,
            "name": "B4",
            "ticks": 13320,
            "time": 23.12499075,
            "velocity": 1
          },
          {
            "duration": 0.20833325000000258,
            "durationTicks": 120,
            "midi": 74,
            "name": "D5",
            "ticks": 13320,
            "time": 23.12499075,
            "velocity": 0.8503937007874016
          },
          {
            "duration": 0.8263885583333312,
            "durationTicks": 476,
            "midi": 52,
            "name": "E3",
            "ticks": 13440,
            "time": 23.333324,
            "velocity": 0.8503937007874016
          },
          {
            "duration": 0.8333329999999997,
            "durationTicks": 480,
            "midi": 57,
            "name": "A3",
            "ticks": 13440,
            "time": 23.333324,
            "velocity": 1
          },
          {
            "duration": 0.406249837499999,
            "durationTicks": 234,
            "midi": 64,
            "name": "E4",
            "ticks": 13440,
            "time": 23.333324,
            "velocity": 1
          },
          {
            "duration": 0.4027776166666648,
            "durationTicks": 232,
            "midi": 69,
            "name": "A4",
            "ticks": 13440,
            "time": 23.333324,
            "velocity": 0.8031496062992126
          },
          {
            "duration": 0.4027776166666648,
            "durationTicks": 232,
            "midi": 73,
            "name": "C#5",
            "ticks": 13440,
            "time": 23.333324,
            "velocity": 1
          },
          {
            "duration": 0.4027776166666648,
            "durationTicks": 232,
            "midi": 76,
            "name": "E5",
            "ticks": 13440,
            "time": 23.333324,
            "velocity": 1
          },
          {
            "duration": 0.2291665750000007,
            "durationTicks": 132,
            "midi": 64,
            "name": "E4",
            "ticks": 13680,
            "time": 23.7499905,
            "velocity": 0.6614173228346457
          },
          {
            "duration": 0.21180547083333323,
            "durationTicks": 122,
            "midi": 69,
            "name": "A4",
            "ticks": 13680,
            "time": 23.7499905,
            "velocity": 0.8503937007874016
          },
          {
            "duration": 0.18923603541666623,
            "durationTicks": 109,
            "midi": 73,
            "name": "C#5",
            "ticks": 13680,
            "time": 23.7499905,
            "velocity": 0.8976377952755905
          },
          {
            "duration": 0.16666659999999922,
            "durationTicks": 96,
            "midi": 76,
            "name": "E5",
            "ticks": 13680,
            "time": 23.7499905,
            "velocity": 0.7795275590551181
          },
          {
            "duration": 0.2031249187499995,
            "durationTicks": 117,
            "midi": 64,
            "name": "E4",
            "ticks": 13800,
            "time": 23.958323749999998,
            "velocity": 0.6614173228346457
          },
          {
            "duration": 0.2100693604166679,
            "durationTicks": 121,
            "midi": 69,
            "name": "A4",
            "ticks": 13800,
            "time": 23.958323749999998,
            "velocity": 0.7559055118110236
          },
          {
            "duration": 0.22048602291667052,
            "durationTicks": 127,
            "midi": 73,
            "name": "C#5",
            "ticks": 13800,
            "time": 23.958323749999998,
            "velocity": 0.7559055118110236
          },
          {
            "duration": 0.25868045208333257,
            "durationTicks": 149,
            "midi": 76,
            "name": "E5",
            "ticks": 13800,
            "time": 23.958323749999998,
            "velocity": 0.25196850393700787
          },
          {
            "duration": 0.41666649999999805,
            "durationTicks": 240,
            "midi": 52,
            "name": "E3",
            "ticks": 13920,
            "time": 24.166657,
            "velocity": 0.8031496062992126
          },
          {
            "duration": 0.4079859479166643,
            "durationTicks": 235,
            "midi": 57,
            "name": "A3",
            "ticks": 13920,
            "time": 24.166657,
            "velocity": 0.8267716535433071
          },
          {
            "duration": 0.41666649999999805,
            "durationTicks": 240,
            "midi": 64,
            "name": "E4",
            "ticks": 13920,
            "time": 24.166657,
            "velocity": 1
          },
          {
            "duration": 0.41666649999999805,
            "durationTicks": 240,
            "midi": 69,
            "name": "A4",
            "ticks": 13920,
            "time": 24.166657,
            "velocity": 1
          },
          {
            "duration": 0.41666649999999805,
            "durationTicks": 240,
            "midi": 73,
            "name": "C#5",
            "ticks": 13920,
            "time": 24.166657,
            "velocity": 1
          },
          {
            "duration": 0.4114581687499985,
            "durationTicks": 237,
            "midi": 76,
            "name": "E5",
            "ticks": 13920,
            "time": 24.166657,
            "velocity": 1
          },
          {
            "duration": 0.25347212083333304,
            "durationTicks": 146,
            "midi": 52,
            "name": "E3",
            "ticks": 14160,
            "time": 24.5833235,
            "velocity": 0.5669291338582677
          },
          {
            "duration": 0.24999990000000238,
            "durationTicks": 144,
            "midi": 57,
            "name": "A3",
            "ticks": 14160,
            "time": 24.5833235,
            "velocity": 0.8031496062992126
          },
          {
            "duration": 0.23090268541666603,
            "durationTicks": 133,
            "midi": 64,
            "name": "E4",
            "ticks": 14160,
            "time": 24.5833235,
            "velocity": 0.7795275590551181
          },
          {
            "duration": 0.2222221333333323,
            "durationTicks": 128,
            "midi": 69,
            "name": "A4",
            "ticks": 14160,
            "time": 24.5833235,
            "velocity": 0.7559055118110236
          },
          {
            "duration": 0.20486102916666837,
            "durationTicks": 118,
            "midi": 73,
            "name": "C#5",
            "ticks": 14160,
            "time": 24.5833235,
            "velocity": 0.7322834645669292
          },
          {
            "duration": 0.20138880833333417,
            "durationTicks": 116,
            "midi": 76,
            "name": "E5",
            "ticks": 14160,
            "time": 24.5833235,
            "velocity": 0.6456692913385826
          },
          {
            "duration": 0.8159718958333322,
            "durationTicks": 470,
            "midi": 54,
            "name": "F#3",
            "ticks": 14280,
            "time": 24.79165675,
            "velocity": 1
          },
          {
            "duration": 0.39062484374999684,
            "durationTicks": 225,
            "midi": 57,
            "name": "A3",
            "ticks": 14280,
            "time": 24.79165675,
            "velocity": 1
          },
          {
            "duration": 0.3802081812499978,
            "durationTicks": 219,
            "midi": 61,
            "name": "C#4",
            "ticks": 14280,
            "time": 24.79165675,
            "velocity": 1
          },
          {
            "duration": 0.383680402083332,
            "durationTicks": 221,
            "midi": 66,
            "name": "F#4",
            "ticks": 14280,
            "time": 24.79165675,
            "velocity": 1
          },
          {
            "duration": 0.3923609541666657,
            "durationTicks": 226,
            "midi": 69,
            "name": "A4",
            "ticks": 14280,
            "time": 24.79165675,
            "velocity": 1
          },
          {
            "duration": 0.3802081812499978,
            "durationTicks": 219,
            "midi": 78,
            "name": "F#5",
            "ticks": 14280,
            "time": 24.79165675,
            "velocity": 1
          },
          {
            "duration": 0.42187483125000114,
            "durationTicks": 243,
            "midi": 57,
            "name": "A3",
            "ticks": 14520,
            "time": 25.20832325,
            "velocity": 0.6850393700787402
          },
          {
            "duration": 0.42187483125000114,
            "durationTicks": 243,
            "midi": 61,
            "name": "C#4",
            "ticks": 14520,
            "time": 25.20832325,
            "velocity": 0.7086614173228346
          },
          {
            "duration": 0.22395824375000117,
            "durationTicks": 129,
            "midi": 66,
            "name": "F#4",
            "ticks": 14520,
            "time": 25.20832325,
            "velocity": 0.8031496062992126
          },
          {
            "duration": 0.2291665750000007,
            "durationTicks": 132,
            "midi": 69,
            "name": "A4",
            "ticks": 14520,
            "time": 25.20832325,
            "velocity": 0.9448818897637795
          },
          {
            "duration": 0.23611101666666912,
            "durationTicks": 136,
            "midi": 78,
            "name": "F#5",
            "ticks": 14520,
            "time": 25.20832325,
            "velocity": 0.6299212598425197
          },
          {
            "duration": 0.19270825625000043,
            "durationTicks": 111,
            "midi": 66,
            "name": "F#4",
            "ticks": 14640,
            "time": 25.4166565,
            "velocity": 0.6456692913385826
          },
          {
            "duration": 0.1874999250000009,
            "durationTicks": 108,
            "midi": 69,
            "name": "A4",
            "ticks": 14640,
            "time": 25.4166565,
            "velocity": 0.6850393700787402
          },
          {
            "duration": 0.15624993750000016,
            "durationTicks": 90,
            "midi": 78,
            "name": "F#5",
            "ticks": 14640,
            "time": 25.4166565,
            "velocity": 0.5354330708661418
          },
          {
            "duration": 0.17534715208333296,
            "durationTicks": 101,
            "midi": 54,
            "name": "F#3",
            "ticks": 14760,
            "time": 25.62498975,
            "velocity": 0.7795275590551181
          },
          {
            "duration": 0.19097214583333155,
            "durationTicks": 110,
            "midi": 57,
            "name": "A3",
            "ticks": 14760,
            "time": 25.62498975,
            "velocity": 0.6456692913385826
          },
          {
            "duration": 0.19097214583333155,
            "durationTicks": 110,
            "midi": 61,
            "name": "C#4",
            "ticks": 14760,
            "time": 25.62498975,
            "velocity": 0.7795275590551181
          },
          {
            "duration": 0.19791658749999996,
            "durationTicks": 114,
            "midi": 66,
            "name": "F#4",
            "ticks": 14760,
            "time": 25.62498975,
            "velocity": 0.968503937007874
          },
          {
            "duration": 0.22395824374999762,
            "durationTicks": 129,
            "midi": 69,
            "name": "A4",
            "ticks": 14760,
            "time": 25.62498975,
            "velocity": 1
          },
          {
            "duration": 0.23090268541666603,
            "durationTicks": 133,
            "midi": 78,
            "name": "F#5",
            "ticks": 14760,
            "time": 25.62498975,
            "velocity": 0.8267716535433071
          },
          {
            "duration": 0.41666649999999805,
            "durationTicks": 240,
            "midi": 54,
            "name": "F#3",
            "ticks": 14880,
            "time": 25.833323,
            "velocity": 1
          },
          {
            "duration": 0.41666649999999805,
            "durationTicks": 240,
            "midi": 57,
            "name": "A3",
            "ticks": 14880,
            "time": 25.833323,
            "velocity": 0.8031496062992126
          },
          {
            "duration": 0.42187483125000114,
            "durationTicks": 243,
            "midi": 61,
            "name": "C#4",
            "ticks": 14880,
            "time": 25.833323,
            "velocity": 0.7795275590551181
          },
          {
            "duration": 0.42187483125000114,
            "durationTicks": 243,
            "midi": 66,
            "name": "F#4",
            "ticks": 14880,
            "time": 25.833323,
            "velocity": 0.8031496062992126
          },
          {
            "duration": 0.42534705208333534,
            "durationTicks": 245,
            "midi": 69,
            "name": "A4",
            "ticks": 14880,
            "time": 25.833323,
            "velocity": 0.6850393700787402
          },
          {
            "duration": 0.42187483125000114,
            "durationTicks": 243,
            "midi": 78,
            "name": "F#5",
            "ticks": 14880,
            "time": 25.833323,
            "velocity": 1
          },
          {
            "duration": 0.2447915687499993,
            "durationTicks": 141,
            "midi": 54,
            "name": "F#3",
            "ticks": 15120,
            "time": 26.249989499999998,
            "velocity": 0.5669291338582677
          },
          {
            "duration": 0.22743046458333538,
            "durationTicks": 131,
            "midi": 57,
            "name": "A3",
            "ticks": 15120,
            "time": 26.249989499999998,
            "velocity": 0.9448818897637795
          },
          {
            "duration": 0.22395824375000117,
            "durationTicks": 129,
            "midi": 61,
            "name": "C#4",
            "ticks": 15120,
            "time": 26.249989499999998,
            "velocity": 0.8740157480314961
          },
          {
            "duration": 0.19618047708333464,
            "durationTicks": 113,
            "midi": 66,
            "name": "F#4",
            "ticks": 15120,
            "time": 26.249989499999998,
            "velocity": 0.7322834645669292
          },
          {
            "duration": 0.1909721458333351,
            "durationTicks": 110,
            "midi": 69,
            "name": "A4",
            "ticks": 15120,
            "time": 26.249989499999998,
            "velocity": 1
          },
          {
            "duration": 0.18229159375000137,
            "durationTicks": 105,
            "midi": 78,
            "name": "F#5",
            "ticks": 15120,
            "time": 26.249989499999998,
            "velocity": 0.7795275590551181
          },
          {
            "duration": 0.13194439166666783,
            "durationTicks": 76,
            "midi": 54,
            "name": "F#3",
            "ticks": 15240,
            "time": 26.45832275,
            "velocity": 0.8503937007874016
          },
          {
            "duration": 0.17708326249999828,
            "durationTicks": 102,
            "midi": 57,
            "name": "A3",
            "ticks": 15240,
            "time": 26.45832275,
            "velocity": 0.6614173228346457
          },
          {
            "duration": 0.1909721458333351,
            "durationTicks": 110,
            "midi": 61,
            "name": "C#4",
            "ticks": 15240,
            "time": 26.45832275,
            "velocity": 0.8503937007874016
          },
          {
            "duration": 0.20659713958333015,
            "durationTicks": 119,
            "midi": 66,
            "name": "F#4",
            "ticks": 15240,
            "time": 26.45832275,
            "velocity": 0.8267716535433071
          },
          {
            "duration": 0.2256943541666665,
            "durationTicks": 130,
            "midi": 69,
            "name": "A4",
            "ticks": 15240,
            "time": 26.45832275,
            "velocity": 0.7795275590551181
          },
          {
            "duration": 0.22916657499999715,
            "durationTicks": 132,
            "midi": 78,
            "name": "F#5",
            "ticks": 15240,
            "time": 26.45832275,
            "velocity": 0.6850393700787402
          },
          {
            "duration": 0.6319441916666655,
            "durationTicks": 364,
            "midi": 56,
            "name": "G#3",
            "ticks": 15360,
            "time": 26.666656,
            "velocity": 0.6456692913385826
          },
          {
            "duration": 0.6180553083333322,
            "durationTicks": 356,
            "midi": 61,
            "name": "C#4",
            "ticks": 15360,
            "time": 26.666656,
            "velocity": 0.7795275590551181
          },
          {
            "duration": 0.6006942041666647,
            "durationTicks": 346,
            "midi": 68,
            "name": "G#4",
            "ticks": 15360,
            "time": 26.666656,
            "velocity": 1
          },
          {
            "duration": 0.40451372708333366,
            "durationTicks": 233,
            "midi": 73,
            "name": "C#5",
            "ticks": 15360,
            "time": 26.666656,
            "velocity": 1
          },
          {
            "duration": 0.40798594791666787,
            "durationTicks": 235,
            "midi": 76,
            "name": "E5",
            "ticks": 15360,
            "time": 26.666656,
            "velocity": 1
          },
          {
            "duration": 0.17708326249999828,
            "durationTicks": 102,
            "midi": 73,
            "name": "C#5",
            "ticks": 15600,
            "time": 27.0833225,
            "velocity": 0.6456692913385826
          },
          {
            "duration": 0.16666659999999922,
            "durationTicks": 96,
            "midi": 76,
            "name": "E5",
            "ticks": 15600,
            "time": 27.0833225,
            "velocity": 0.6299212598425197
          },
          {
            "duration": 0.18923603541666623,
            "durationTicks": 109,
            "midi": 56,
            "name": "G#3",
            "ticks": 15720,
            "time": 27.29165575,
            "velocity": 0.6456692913385826
          },
          {
            "duration": 0.2065971395833337,
            "durationTicks": 119,
            "midi": 61,
            "name": "C#4",
            "ticks": 15720,
            "time": 27.29165575,
            "velocity": 0.7086614173228346
          },
          {
            "duration": 0.21006936041666435,
            "durationTicks": 121,
            "midi": 68,
            "name": "G#4",
            "ticks": 15720,
            "time": 27.29165575,
            "velocity": 0.6614173228346457
          },
          {
            "duration": 0.21874991250000164,
            "durationTicks": 126,
            "midi": 73,
            "name": "C#5",
            "ticks": 15720,
            "time": 27.29165575,
            "velocity": 0.7795275590551181
          },
          {
            "duration": 0.24479156875000285,
            "durationTicks": 141,
            "midi": 76,
            "name": "E5",
            "ticks": 15720,
            "time": 27.29165575,
            "velocity": 0.7795275590551181
          },
          {
            "duration": 0.6423608541666681,
            "durationTicks": 370,
            "midi": 56,
            "name": "G#3",
            "ticks": 15840,
            "time": 27.499989,
            "velocity": 1
          },
          {
            "duration": 0.6319441916666655,
            "durationTicks": 364,
            "midi": 61,
            "name": "C#4",
            "ticks": 15840,
            "time": 27.499989,
            "velocity": 0.7322834645669292
          },
          {
            "duration": 0.6284719708333348,
            "durationTicks": 362,
            "midi": 68,
            "name": "G#4",
            "ticks": 15840,
            "time": 27.499989,
            "velocity": 0.8503937007874016
          },
          {
            "duration": 0.406249837499999,
            "durationTicks": 234,
            "midi": 73,
            "name": "C#5",
            "ticks": 15840,
            "time": 27.499989,
            "velocity": 0.6456692913385826
          },
          {
            "duration": 0.40277761666666834,
            "durationTicks": 232,
            "midi": 76,
            "name": "E5",
            "ticks": 15840,
            "time": 27.499989,
            "velocity": 1
          },
          {
            "duration": 0.2065971395833337,
            "durationTicks": 119,
            "midi": 73,
            "name": "C#5",
            "ticks": 16080,
            "time": 27.9166555,
            "velocity": 0.6456692913385826
          },
          {
            "duration": 0.17534715208333296,
            "durationTicks": 101,
            "midi": 76,
            "name": "E5",
            "ticks": 16080,
            "time": 27.9166555,
            "velocity": 0.6614173228346457
          },
          {
            "duration": 0.3958331749999999,
            "durationTicks": 228,
            "midi": 59,
            "name": "B3",
            "ticks": 16200,
            "time": 28.12498875,
            "velocity": 0.8031496062992126
          },
          {
            "duration": 0.3958331749999999,
            "durationTicks": 228,
            "midi": 64,
            "name": "E4",
            "ticks": 16200,
            "time": 28.12498875,
            "velocity": 1
          },
          {
            "duration": 0.3993053958333306,
            "durationTicks": 230,
            "midi": 68,
            "name": "G#4",
            "ticks": 16200,
            "time": 28.12498875,
            "velocity": 1
          },
          {
            "duration": 0.3958331749999999,
            "durationTicks": 228,
            "midi": 71,
            "name": "B4",
            "ticks": 16200,
            "time": 28.12498875,
            "velocity": 1
          },
          {
            "duration": 0.38194429166666666,
            "durationTicks": 220,
            "midi": 74,
            "name": "D5",
            "ticks": 16200,
            "time": 28.12498875,
            "velocity": 1
          },
          {
            "duration": 0.1684027104166681,
            "durationTicks": 97,
            "midi": 52,
            "name": "E3",
            "ticks": 16440,
            "time": 28.541655249999998,
            "velocity": 0.6850393700787402
          },
          {
            "duration": 0.1840277041666667,
            "durationTicks": 106,
            "midi": 59,
            "name": "B3",
            "ticks": 16440,
            "time": 28.541655249999998,
            "velocity": 0.6456692913385826
          },
          {
            "duration": 0.19097214583333155,
            "durationTicks": 110,
            "midi": 64,
            "name": "E4",
            "ticks": 16440,
            "time": 28.541655249999998,
            "velocity": 0.8031496062992126
          },
          {
            "duration": 0.20659713958333725,
            "durationTicks": 119,
            "midi": 68,
            "name": "G#4",
            "ticks": 16440,
            "time": 28.541655249999998,
            "velocity": 0.9212598425196851
          },
          {
            "duration": 0.22222213333333585,
            "durationTicks": 128,
            "midi": 71,
            "name": "B4",
            "ticks": 16440,
            "time": 28.541655249999998,
            "velocity": 0.8976377952755905
          },
          {
            "duration": 0.2326387958333349,
            "durationTicks": 134,
            "midi": 74,
            "name": "D5",
            "ticks": 16440,
            "time": 28.541655249999998,
            "velocity": 1
          },
          {
            "duration": 0.24999989999999528,
            "durationTicks": 144,
            "midi": 52,
            "name": "E3",
            "ticks": 16560,
            "time": 28.7499885,
            "velocity": 0.6614173228346457
          },
          {
            "duration": 0.21874991250000164,
            "durationTicks": 126,
            "midi": 59,
            "name": "B3",
            "ticks": 16560,
            "time": 28.7499885,
            "velocity": 1
          },
          {
            "duration": 0.21180547083333678,
            "durationTicks": 122,
            "midi": 64,
            "name": "E4",
            "ticks": 16560,
            "time": 28.7499885,
            "velocity": 0.9212598425196851
          },
          {
            "duration": 0.20486102916666127,
            "durationTicks": 118,
            "midi": 68,
            "name": "G#4",
            "ticks": 16560,
            "time": 28.7499885,
            "velocity": 0.7086614173228346
          },
          {
            "duration": 0.17534715208333296,
            "durationTicks": 101,
            "midi": 71,
            "name": "B4",
            "ticks": 16560,
            "time": 28.7499885,
            "velocity": 1
          },
          {
            "duration": 0.1718749312499952,
            "durationTicks": 99,
            "midi": 74,
            "name": "D5",
            "ticks": 16560,
            "time": 28.7499885,
            "velocity": 0.6456692913385826
          },
          {
            "duration": 0.17187493124999875,
            "durationTicks": 99,
            "midi": 52,
            "name": "E3",
            "ticks": 16680,
            "time": 28.95832175,
            "velocity": 0.8740157480314961
          },
          {
            "duration": 0.18923603541666623,
            "durationTicks": 109,
            "midi": 59,
            "name": "B3",
            "ticks": 16680,
            "time": 28.95832175,
            "velocity": 0.5669291338582677
          },
          {
            "duration": 0.19097214583333155,
            "durationTicks": 110,
            "midi": 64,
            "name": "E4",
            "ticks": 16680,
            "time": 28.95832175,
            "velocity": 0.7795275590551181
          },
          {
            "duration": 0.21006936041666435,
            "durationTicks": 121,
            "midi": 68,
            "name": "G#4",
            "ticks": 16680,
            "time": 28.95832175,
            "velocity": 0.7559055118110236
          },
          {
            "duration": 0.21874991250000164,
            "durationTicks": 126,
            "midi": 71,
            "name": "B4",
            "ticks": 16680,
            "time": 28.95832175,
            "velocity": 0.8503937007874016
          },
          {
            "duration": 0.24305545833333042,
            "durationTicks": 140,
            "midi": 74,
            "name": "D5",
            "ticks": 16680,
            "time": 28.95832175,
            "velocity": 1
          },
          {
            "duration": 0.406249837499999,
            "durationTicks": 234,
            "midi": 52,
            "name": "E3",
            "ticks": 16800,
            "time": 29.166655,
            "velocity": 1
          },
          {
            "duration": 0.41319427916666385,
            "durationTicks": 238,
            "midi": 59,
            "name": "B3",
            "ticks": 16800,
            "time": 29.166655,
            "velocity": 1
          },
          {
            "duration": 0.4201387208333358,
            "durationTicks": 242,
            "midi": 64,
            "name": "E4",
            "ticks": 16800,
            "time": 29.166655,
            "velocity": 1
          },
          {
            "duration": 0.4201387208333358,
            "durationTicks": 242,
            "midi": 68,
            "name": "G#4",
            "ticks": 16800,
            "time": 29.166655,
            "velocity": 1
          },
          {
            "duration": 0.41840261041666693,
            "durationTicks": 241,
            "midi": 71,
            "name": "B4",
            "ticks": 16800,
            "time": 29.166655,
            "velocity": 0.6456692913385826
          },
          {
            "duration": 0.4166665000000016,
            "durationTicks": 240,
            "midi": 74,
            "name": "D5",
            "ticks": 16800,
            "time": 29.166655,
            "velocity": 1
          },
          {
            "duration": 0.41666649999999805,
            "durationTicks": 240,
            "midi": 52,
            "name": "E3",
            "ticks": 17040,
            "time": 29.5833215,
            "velocity": 0.6614173228346457
          },
          {
            "duration": 0.22048602291666697,
            "durationTicks": 127,
            "midi": 59,
            "name": "B3",
            "ticks": 17040,
            "time": 29.5833215,
            "velocity": 0.6456692913385826
          },
          {
            "duration": 0.2135415812500021,
            "durationTicks": 123,
            "midi": 64,
            "name": "E4",
            "ticks": 17040,
            "time": 29.5833215,
            "velocity": 0.6614173228346457
          },
          {
            "duration": 0.2031249187499995,
            "durationTicks": 117,
            "midi": 68,
            "name": "G#4",
            "ticks": 17040,
            "time": 29.5833215,
            "velocity": 0.6299212598425197
          },
          {
            "duration": 0.1874999250000009,
            "durationTicks": 108,
            "midi": 71,
            "name": "B4",
            "ticks": 17040,
            "time": 29.5833215,
            "velocity": 0.6456692913385826
          },
          {
            "duration": 0.17361104166666763,
            "durationTicks": 100,
            "midi": 74,
            "name": "D5",
            "ticks": 17040,
            "time": 29.5833215,
            "velocity": 0.5984251968503937
          },
          {
            "duration": 0.17534715208333296,
            "durationTicks": 101,
            "midi": 59,
            "name": "B3",
            "ticks": 17160,
            "time": 29.79165475,
            "velocity": 0.6850393700787402
          },
          {
            "duration": 0.18576381458333557,
            "durationTicks": 107,
            "midi": 64,
            "name": "E4",
            "ticks": 17160,
            "time": 29.79165475,
            "velocity": 0.968503937007874
          },
          {
            "duration": 0.1874999250000009,
            "durationTicks": 108,
            "midi": 68,
            "name": "G#4",
            "ticks": 17160,
            "time": 29.79165475,
            "velocity": 1
          },
          {
            "duration": 0.19270825625000398,
            "durationTicks": 111,
            "midi": 71,
            "name": "B4",
            "ticks": 17160,
            "time": 29.79165475,
            "velocity": 1
          },
          {
            "duration": 0.20833324999999903,
            "durationTicks": 120,
            "midi": 74,
            "name": "D5",
            "ticks": 17160,
            "time": 29.79165475,
            "velocity": 1
          },
          {
            "duration": 0.3802081812499978,
            "durationTicks": 219,
            "midi": 52,
            "name": "E3",
            "ticks": 17280,
            "time": 29.999988,
            "velocity": 1
          },
          {
            "duration": 0.39930539583333413,
            "durationTicks": 230,
            "midi": 57,
            "name": "A3",
            "ticks": 17280,
            "time": 29.999988,
            "velocity": 1
          },
          {
            "duration": 0.38888873333333507,
            "durationTicks": 224,
            "midi": 64,
            "name": "E4",
            "ticks": 17280,
            "time": 29.999988,
            "velocity": 0.9212598425196851
          },
          {
            "duration": 0.3975692854166688,
            "durationTicks": 229,
            "midi": 69,
            "name": "A4",
            "ticks": 17280,
            "time": 29.999988,
            "velocity": 0.5196850393700787
          },
          {
            "duration": 0.3906248437500004,
            "durationTicks": 225,
            "midi": 73,
            "name": "C#5",
            "ticks": 17280,
            "time": 29.999988,
            "velocity": 1
          },
          {
            "duration": 0.38541651250000086,
            "durationTicks": 222,
            "midi": 76,
            "name": "E5",
            "ticks": 17280,
            "time": 29.999988,
            "velocity": 1
          },
          {
            "duration": 0.2517360104166677,
            "durationTicks": 145,
            "midi": 52,
            "name": "E3",
            "ticks": 17520,
            "time": 30.4166545,
            "velocity": 0.5196850393700787
          },
          {
            "duration": 0.22916657499999715,
            "durationTicks": 132,
            "midi": 57,
            "name": "A3",
            "ticks": 17520,
            "time": 30.4166545,
            "velocity": 0.7322834645669292
          },
          {
            "duration": 0.22048602291666697,
            "durationTicks": 127,
            "midi": 64,
            "name": "E4",
            "ticks": 17520,
            "time": 30.4166545,
            "velocity": 0.7086614173228346
          },
          {
            "duration": 0.17361104166666763,
            "durationTicks": 100,
            "midi": 69,
            "name": "A4",
            "ticks": 17520,
            "time": 30.4166545,
            "velocity": 0.7322834645669292
          },
          {
            "duration": 0.18402770416666314,
            "durationTicks": 106,
            "midi": 73,
            "name": "C#5",
            "ticks": 17520,
            "time": 30.4166545,
            "velocity": 0.7086614173228346
          },
          {
            "duration": 0.15624993750000016,
            "durationTicks": 90,
            "midi": 76,
            "name": "E5",
            "ticks": 17520,
            "time": 30.4166545,
            "velocity": 0.6456692913385826
          },
          {
            "duration": 0.17708326249999828,
            "durationTicks": 102,
            "midi": 52,
            "name": "E3",
            "ticks": 17640,
            "time": 30.62498775,
            "velocity": 0.5196850393700787
          },
          {
            "duration": 0.18923603541666623,
            "durationTicks": 109,
            "midi": 57,
            "name": "A3",
            "ticks": 17640,
            "time": 30.62498775,
            "velocity": 0.6141732283464567
          },
          {
            "duration": 0.19270825625000398,
            "durationTicks": 111,
            "midi": 64,
            "name": "E4",
            "ticks": 17640,
            "time": 30.62498775,
            "velocity": 0.7559055118110236
          },
          {
            "duration": 0.2222221333333323,
            "durationTicks": 128,
            "midi": 69,
            "name": "A4",
            "ticks": 17640,
            "time": 30.62498775,
            "velocity": 0.6141732283464567
          },
          {
            "duration": 0.2291665750000007,
            "durationTicks": 132,
            "midi": 73,
            "name": "C#5",
            "ticks": 17640,
            "time": 30.62498775,
            "velocity": 1
          },
          {
            "duration": 0.23958323750000332,
            "durationTicks": 138,
            "midi": 76,
            "name": "E5",
            "ticks": 17640,
            "time": 30.62498775,
            "velocity": 1
          },
          {
            "duration": 0.4149303895833363,
            "durationTicks": 239,
            "midi": 52,
            "name": "E3",
            "ticks": 17760,
            "time": 30.833320999999998,
            "velocity": 1
          },
          {
            "duration": 0.41840261041666693,
            "durationTicks": 241,
            "midi": 57,
            "name": "A3",
            "ticks": 17760,
            "time": 30.833320999999998,
            "velocity": 1
          },
          {
            "duration": 0.41840261041666693,
            "durationTicks": 241,
            "midi": 64,
            "name": "E4",
            "ticks": 17760,
            "time": 30.833320999999998,
            "velocity": 1
          },
          {
            "duration": 0.42013872083333936,
            "durationTicks": 242,
            "midi": 69,
            "name": "A4",
            "ticks": 17760,
            "time": 30.833320999999998,
            "velocity": 0.7559055118110236
          },
          {
            "duration": 0.42013872083333936,
            "durationTicks": 242,
            "midi": 73,
            "name": "C#5",
            "ticks": 17760,
            "time": 30.833320999999998,
            "velocity": 0.5984251968503937
          },
          {
            "duration": 0.40972205833333675,
            "durationTicks": 236,
            "midi": 76,
            "name": "E5",
            "ticks": 17760,
            "time": 30.833320999999998,
            "velocity": 1
          },
          {
            "duration": 0.17013882083333343,
            "durationTicks": 98,
            "midi": 52,
            "name": "E3",
            "ticks": 18000,
            "time": 31.2499875,
            "velocity": 0.6456692913385826
          },
          {
            "duration": 0.1684027104166681,
            "durationTicks": 97,
            "midi": 57,
            "name": "A3",
            "ticks": 18000,
            "time": 31.2499875,
            "velocity": 0.8740157480314961
          },
          {
            "duration": 0.15624993750000016,
            "durationTicks": 90,
            "midi": 64,
            "name": "E4",
            "ticks": 18000,
            "time": 31.2499875,
            "velocity": 0.8503937007874016
          },
          {
            "duration": 0.1527777166666624,
            "durationTicks": 88,
            "midi": 69,
            "name": "A4",
            "ticks": 18000,
            "time": 31.2499875,
            "velocity": 0.9212598425196851
          },
          {
            "duration": 0.1527777166666624,
            "durationTicks": 88,
            "midi": 73,
            "name": "C#5",
            "ticks": 18000,
            "time": 31.2499875,
            "velocity": 1
          },
          {
            "duration": 0.1423610541666669,
            "durationTicks": 82,
            "midi": 76,
            "name": "E5",
            "ticks": 18000,
            "time": 31.2499875,
            "velocity": 1
          },
          {
            "duration": 0.4166665000000016,
            "durationTicks": 240,
            "midi": 56,
            "name": "G#3",
            "ticks": 18120,
            "time": 31.45832075,
            "velocity": 0.8976377952755905
          },
          {
            "duration": 0.4114581687499985,
            "durationTicks": 237,
            "midi": 61,
            "name": "C#4",
            "ticks": 18120,
            "time": 31.45832075,
            "velocity": 1
          },
          {
            "duration": 0.40277761666666834,
            "durationTicks": 232,
            "midi": 68,
            "name": "G#4",
            "ticks": 18120,
            "time": 31.45832075,
            "velocity": 1
          },
          {
            "duration": 0.406249837499999,
            "durationTicks": 234,
            "midi": 71,
            "name": "B4",
            "ticks": 18120,
            "time": 31.45832075,
            "velocity": 1
          },
          {
            "duration": 0.401041506250003,
            "durationTicks": 231,
            "midi": 76,
            "name": "E5",
            "ticks": 18120,
            "time": 31.45832075,
            "velocity": 1
          },
          {
            "duration": 0.1874999250000009,
            "durationTicks": 108,
            "midi": 56,
            "name": "G#3",
            "ticks": 18360,
            "time": 31.87498725,
            "velocity": 0.9212598425196851
          },
          {
            "duration": 0.19097214583333155,
            "durationTicks": 110,
            "midi": 61,
            "name": "C#4",
            "ticks": 18360,
            "time": 31.87498725,
            "velocity": 1
          },
          {
            "duration": 0.21527769166666744,
            "durationTicks": 124,
            "midi": 68,
            "name": "G#4",
            "ticks": 18360,
            "time": 31.87498725,
            "velocity": 0.8031496062992126
          },
          {
            "duration": 0.23090268541666248,
            "durationTicks": 133,
            "midi": 71,
            "name": "B4",
            "ticks": 18360,
            "time": 31.87498725,
            "velocity": 1
          },
          {
            "duration": 0.2447915687499993,
            "durationTicks": 141,
            "midi": 76,
            "name": "E5",
            "ticks": 18360,
            "time": 31.87498725,
            "velocity": 1
          },
          {
            "duration": 0.21354158124999856,
            "durationTicks": 123,
            "midi": 56,
            "name": "G#3",
            "ticks": 18480,
            "time": 32.0833205,
            "velocity": 0.7086614173228346
          },
          {
            "duration": 0.19618047708333108,
            "durationTicks": 113,
            "midi": 61,
            "name": "C#4",
            "ticks": 18480,
            "time": 32.0833205,
            "velocity": 0.968503937007874
          },
          {
            "duration": 0.17534715208333296,
            "durationTicks": 101,
            "midi": 68,
            "name": "G#4",
            "ticks": 18480,
            "time": 32.0833205,
            "velocity": 0.9212598425196851
          },
          {
            "duration": 0.17013882083332987,
            "durationTicks": 98,
            "midi": 71,
            "name": "B4",
            "ticks": 18480,
            "time": 32.0833205,
            "velocity": 1
          },
          {
            "duration": 0.13541661250000203,
            "durationTicks": 78,
            "midi": 76,
            "name": "E5",
            "ticks": 18480,
            "time": 32.0833205,
            "velocity": 0.7322834645669292
          },
          {
            "duration": 0.190972145833328,
            "durationTicks": 110,
            "midi": 56,
            "name": "G#3",
            "ticks": 18600,
            "time": 32.29165375,
            "velocity": 0.6850393700787402
          },
          {
            "duration": 0.20486102916666482,
            "durationTicks": 118,
            "midi": 61,
            "name": "C#4",
            "ticks": 18600,
            "time": 32.29165375,
            "velocity": 0.7795275590551181
          },
          {
            "duration": 0.21180547083333323,
            "durationTicks": 122,
            "midi": 68,
            "name": "G#4",
            "ticks": 18600,
            "time": 32.29165375,
            "velocity": 0.7322834645669292
          },
          {
            "duration": 0.23263879583333136,
            "durationTicks": 134,
            "midi": 71,
            "name": "B4",
            "ticks": 18600,
            "time": 32.29165375,
            "velocity": 0.6850393700787402
          },
          {
            "duration": 0.236111016666662,
            "durationTicks": 136,
            "midi": 76,
            "name": "E5",
            "ticks": 18600,
            "time": 32.29165375,
            "velocity": 0.6850393700787402
          },
          {
            "duration": 0.39062484375000395,
            "durationTicks": 225,
            "midi": 56,
            "name": "G#3",
            "ticks": 18720,
            "time": 32.499987,
            "velocity": 1
          },
          {
            "duration": 0.3888887333333386,
            "durationTicks": 224,
            "midi": 61,
            "name": "C#4",
            "ticks": 18720,
            "time": 32.499987,
            "velocity": 1
          },
          {
            "duration": 0.40277761666666834,
            "durationTicks": 232,
            "midi": 68,
            "name": "G#4",
            "ticks": 18720,
            "time": 32.499987,
            "velocity": 1
          },
          {
            "duration": 0.40451372708333366,
            "durationTicks": 233,
            "midi": 71,
            "name": "B4",
            "ticks": 18720,
            "time": 32.499987,
            "velocity": 1
          },
          {
            "duration": 0.5885414312500004,
            "durationTicks": 339,
            "midi": 76,
            "name": "E5",
            "ticks": 18720,
            "time": 32.499987,
            "velocity": 1
          },
          {
            "duration": 0.23263879583333136,
            "durationTicks": 134,
            "midi": 56,
            "name": "G#3",
            "ticks": 18960,
            "time": 32.9166535,
            "velocity": 0.7086614173228346
          },
          {
            "duration": 0.21527769166666388,
            "durationTicks": 124,
            "midi": 61,
            "name": "C#4",
            "ticks": 18960,
            "time": 32.9166535,
            "velocity": 0.7086614173228346
          },
          {
            "duration": 0.2031249187499995,
            "durationTicks": 117,
            "midi": 68,
            "name": "G#4",
            "ticks": 18960,
            "time": 32.9166535,
            "velocity": 0.6614173228346457
          },
          {
            "duration": 0.18923603541666267,
            "durationTicks": 109,
            "midi": 71,
            "name": "B4",
            "ticks": 18960,
            "time": 32.9166535,
            "velocity": 0.7322834645669292
          },
          {
            "duration": 0.19444436666666576,
            "durationTicks": 112,
            "midi": 56,
            "name": "G#3",
            "ticks": 19080,
            "time": 33.12498675,
            "velocity": 0.6141732283464567
          },
          {
            "duration": 0.20659713958333725,
            "durationTicks": 119,
            "midi": 61,
            "name": "C#4",
            "ticks": 19080,
            "time": 33.12498675,
            "velocity": 0.7086614173228346
          },
          {
            "duration": 0.21180547083334034,
            "durationTicks": 122,
            "midi": 68,
            "name": "G#4",
            "ticks": 19080,
            "time": 33.12498675,
            "velocity": 0.8503937007874016
          },
          {
            "duration": 0.2291665750000007,
            "durationTicks": 132,
            "midi": 71,
            "name": "B4",
            "ticks": 19080,
            "time": 33.12498675,
            "velocity": 0.7559055118110236
          },
          {
            "duration": 0.24652767916666818,
            "durationTicks": 142,
            "midi": 76,
            "name": "E5",
            "ticks": 19080,
            "time": 33.12498675,
            "velocity": 0.7322834645669292
          },
          {
            "duration": 0.3940970645833346,
            "durationTicks": 227,
            "midi": 56,
            "name": "G#3",
            "ticks": 19200,
            "time": 33.33332,
            "velocity": 1
          },
          {
            "duration": 0.39756928541666525,
            "durationTicks": 229,
            "midi": 61,
            "name": "C#4",
            "ticks": 19200,
            "time": 33.33332,
            "velocity": 0.7559055118110236
          },
          {
            "duration": 0.4131942791666603,
            "durationTicks": 238,
            "midi": 68,
            "name": "G#4",
            "ticks": 19200,
            "time": 33.33332,
            "velocity": 0.8976377952755905
          },
          {
            "duration": 0.4131942791666603,
            "durationTicks": 238,
            "midi": 73,
            "name": "C#5",
            "ticks": 19200,
            "time": 33.33332,
            "velocity": 0.8031496062992126
          },
          {
            "duration": 0.40972205833332964,
            "durationTicks": 236,
            "midi": 76,
            "name": "E5",
            "ticks": 19200,
            "time": 33.33332,
            "velocity": 1
          },
          {
            "duration": 0.22743046458333538,
            "durationTicks": 131,
            "midi": 56,
            "name": "G#3",
            "ticks": 19440,
            "time": 33.7499865,
            "velocity": 0.7086614173228346
          },
          {
            "duration": 0.20138880833333417,
            "durationTicks": 116,
            "midi": 61,
            "name": "C#4",
            "ticks": 19440,
            "time": 33.7499865,
            "velocity": 0.7086614173228346
          },
          {
            "duration": 0.1909721458333351,
            "durationTicks": 110,
            "midi": 68,
            "name": "G#4",
            "ticks": 19440,
            "time": 33.7499865,
            "velocity": 0.6456692913385826
          },
          {
            "duration": 0.18229159375000137,
            "durationTicks": 105,
            "midi": 73,
            "name": "C#5",
            "ticks": 19440,
            "time": 33.7499865,
            "velocity": 0.6850393700787402
          },
          {
            "duration": 0.15624993750000016,
            "durationTicks": 90,
            "midi": 76,
            "name": "E5",
            "ticks": 19440,
            "time": 33.7499865,
            "velocity": 0.5826771653543307
          },
          {
            "duration": 0.18923603541666267,
            "durationTicks": 109,
            "midi": 56,
            "name": "G#3",
            "ticks": 19560,
            "time": 33.95831975,
            "velocity": 0.6850393700787402
          },
          {
            "duration": 0.19270825625000043,
            "durationTicks": 111,
            "midi": 61,
            "name": "C#4",
            "ticks": 19560,
            "time": 33.95831975,
            "velocity": 0.6850393700787402
          },
          {
            "duration": 0.20833324999999547,
            "durationTicks": 120,
            "midi": 68,
            "name": "G#4",
            "ticks": 19560,
            "time": 33.95831975,
            "velocity": 0.7795275590551181
          },
          {
            "duration": 0.22048602291666697,
            "durationTicks": 127,
            "midi": 73,
            "name": "C#5",
            "ticks": 19560,
            "time": 33.95831975,
            "velocity": 0.8267716535433071
          },
          {
            "duration": 0.23437490624999668,
            "durationTicks": 135,
            "midi": 76,
            "name": "E5",
            "ticks": 19560,
            "time": 33.95831975,
            "velocity": 0.7322834645669292
          },
          {
            "duration": 0.4201387208333358,
            "durationTicks": 242,
            "midi": 56,
            "name": "G#3",
            "ticks": 19680,
            "time": 34.166653,
            "velocity": 1
          },
          {
            "duration": 0.4201387208333358,
            "durationTicks": 242,
            "midi": 61,
            "name": "C#4",
            "ticks": 19680,
            "time": 34.166653,
            "velocity": 1
          },
          {
            "duration": 0.42187483125000114,
            "durationTicks": 243,
            "midi": 68,
            "name": "G#4",
            "ticks": 19680,
            "time": 34.166653,
            "velocity": 0.8267716535433071
          },
          {
            "duration": 0.42361094166666646,
            "durationTicks": 244,
            "midi": 73,
            "name": "C#5",
            "ticks": 19680,
            "time": 34.166653,
            "velocity": 0.5826771653543307
          },
          {
            "duration": 0.42361094166666646,
            "durationTicks": 244,
            "midi": 76,
            "name": "E5",
            "ticks": 19680,
            "time": 34.166653,
            "velocity": 1
          },
          {
            "duration": 0.23437490624999668,
            "durationTicks": 135,
            "midi": 56,
            "name": "G#3",
            "ticks": 19920,
            "time": 34.5833195,
            "velocity": 0.8031496062992126
          },
          {
            "duration": 0.22743046458332827,
            "durationTicks": 131,
            "midi": 61,
            "name": "C#4",
            "ticks": 19920,
            "time": 34.5833195,
            "velocity": 0.9212598425196851
          },
          {
            "duration": 0.21354158124999856,
            "durationTicks": 123,
            "midi": 68,
            "name": "G#4",
            "ticks": 19920,
            "time": 34.5833195,
            "velocity": 1
          },
          {
            "duration": 0.19270825625000043,
            "durationTicks": 111,
            "midi": 73,
            "name": "C#5",
            "ticks": 19920,
            "time": 34.5833195,
            "velocity": 1
          },
          {
            "duration": 0.18229159375000137,
            "durationTicks": 105,
            "midi": 76,
            "name": "E5",
            "ticks": 19920,
            "time": 34.5833195,
            "velocity": 0.6850393700787402
          },
          {
            "duration": 0.8333330000000032,
            "durationTicks": 480,
            "midi": 52,
            "name": "E3",
            "ticks": 20040,
            "time": 34.79165275,
            "velocity": 0.47244094488188976
          },
          {
            "duration": 0.8333330000000032,
            "durationTicks": 480,
            "midi": 59,
            "name": "B3",
            "ticks": 20040,
            "time": 34.79165275,
            "velocity": 1
          },
          {
            "duration": 0.8333330000000032,
            "durationTicks": 480,
            "midi": 64,
            "name": "E4",
            "ticks": 20040,
            "time": 34.79165275,
            "velocity": 0.8740157480314961
          },
          {
            "duration": 0.8333330000000032,
            "durationTicks": 480,
            "midi": 68,
            "name": "G#4",
            "ticks": 20040,
            "time": 34.79165275,
            "velocity": 1
          },
          {
            "duration": 0.8333330000000032,
            "durationTicks": 480,
            "midi": 71,
            "name": "B4",
            "ticks": 20040,
            "time": 34.79165275,
            "velocity": 1
          },
          {
            "duration": 0.8333330000000032,
            "durationTicks": 480,
            "midi": 74,
            "name": "D5",
            "ticks": 20040,
            "time": 34.79165275,
            "velocity": 0.8503937007874016
          }
        ]
      },
      {
        "channel": 0,
        "controlChanges": {},
        "pitchBends": [],
        "instrument": {
          "family": "piano",
          "number": 0,
          "name": "acoustic grand piano"
        },
        "name": "Lead",
        "notes": [],
        "endOfTrackTicks": 21120
      },
      {
        "channel": 0,
        "controlChanges": {
          "7": [
            {
              "number": 7,
              "ticks": 712,
              "time": 1.2361106166666667,
              "value": 0.6299212598425197
            }
          ],
          "10": [
            {
              "number": 10,
              "ticks": 712,
              "time": 1.2361106166666667,
              "value": 0.5039370078740157
            }
          ],
          "11": [
            {
              "number": 11,
              "ticks": 712,
              "time": 1.2361106166666667,
              "value": 1
            }
          ],
          "91": [
            {
              "number": 91,
              "ticks": 716,
              "time": 1.2430550583333333,
              "value": 0.8661417322834646
            }
          ],
          "93": [
            {
              "number": 93,
              "ticks": 716,
              "time": 1.2430550583333333,
              "value": 0
            }
          ]
        },
        "pitchBends": [],
        "instrument": {
          "family": "ensemble",
          "number": 49,
          "name": "string ensemble 2"
        },
        "name": "",
        "notes": []
      }
    ]
  }