{
  "header": {
    "keySignatures": [
      {
        "key": "C#",
        "scale": "major",
        "ticks": 0
      }
    ],
    "meta": [],
    "name": "寂寞的季节-陶喆",
    "ppq": 480,
    "tempos": [
      {
        "bpm": 77.99997660000702,
        "ticks": 0
      }
    ],
    "timeSignatures": [
      {
        "ticks": 0,
        "timeSignature": [
          2,
          4
        ],
        "measures": 0
      }
    ]
  },
  "tracks": [
    {
      "channel": 0,
      "controlChanges": {},
      "pitchBends": [],
      "instrument": {
        "family": "piano",
        "number": 0,
        "name": "acoustic grand piano"
      },
      "name": "untitled",
      "notes": [],
      "endOfTrackTicks": 17280
    },
    {
      "channel": 0,
      "controlChanges": {
        "7": [
          {
            "number": 7,
            "ticks": 0,
            "time": 0,
            "value": 1
          }
        ],
        "10": [
          {
            "number": 10,
            "ticks": 0,
            "time": 0,
            "value": 0.5039370078740157
          }
        ]
      },
      "pitchBends": [],
      "instrument": {
        "family": "pipe",
        "number": 73,
        "name": "flute"
      },
      "name": "",
      "notes": [
        {
          "duration": 0.3846155,
          "durationTicks": 240,
          "midi": 85,
          "name": "C#6",
          "ticks": 0,
          "time": 0,
          "velocity": 0.8661417322834646
        },
        {
          "duration": 0.3846155,
          "durationTicks": 240,
          "midi": 87,
          "name": "D#6",
          "ticks": 240,
          "time": 0.3846155,
          "velocity": 0.8661417322834646
        },
        {
          "duration": 0.3846155,
          "durationTicks": 240,
          "midi": 89,
          "name": "F6",
          "ticks": 480,
          "time": 0.769231,
          "velocity": 0.8661417322834646
        },
        {
          "duration": 0.769231,
          "durationTicks": 480,
          "midi": 87,
          "name": "D#6",
          "ticks": 720,
          "time": 1.1538465,
          "velocity": 0.8661417322834646
        },
        {
          "duration": 0.3846155,
          "durationTicks": 240,
          "midi": 85,
          "name": "C#6",
          "ticks": 1200,
          "time": 1.9230775,
          "velocity": 0.8661417322834646
        },
        {
          "duration": 0.3846155000000002,
          "durationTicks": 240,
          "midi": 84,
          "name": "C6",
          "ticks": 1440,
          "time": 2.307693,
          "velocity": 0.8661417322834646
        },
        {
          "duration": 1.9230774999999998,
          "durationTicks": 1200,
          "midi": 85,
          "name": "C#6",
          "ticks": 1680,
          "time": 2.6923085,
          "velocity": 0.8661417322834646
        },
        {
          "duration": 0.3846154999999998,
          "durationTicks": 240,
          "midi": 80,
          "name": "G#5",
          "ticks": 3600,
          "time": 5.7692325,
          "velocity": 0.8661417322834646
        },
        {
          "duration": 0.3846154999999998,
          "durationTicks": 240,
          "midi": 82,
          "name": "A#5",
          "ticks": 3840,
          "time": 6.153848,
          "velocity": 0.8661417322834646
        },
        {
          "duration": 0.3846154999999998,
          "durationTicks": 240,
          "midi": 84,
          "name": "C6",
          "ticks": 4080,
          "time": 6.5384635,
          "velocity": 0.8661417322834646
        },
        {
          "duration": 0.38461550000000067,
          "durationTicks": 240,
          "midi": 85,
          "name": "C#6",
          "ticks": 4320,
          "time": 6.9230789999999995,
          "velocity": 0.8661417322834646
        },
        {
          "duration": 0.7692309999999996,
          "durationTicks": 480,
          "midi": 80,
          "name": "G#5",
          "ticks": 4560,
          "time": 7.3076945,
          "velocity": 0.8661417322834646
        },
        {
          "duration": 0.7692309999999996,
          "durationTicks": 480,
          "midi": 85,
          "name": "C#6",
          "ticks": 5040,
          "time": 8.0769255,
          "velocity": 0.8661417322834646
        },
        {
          "duration": 1.1538465000000002,
          "durationTicks": 720,
          "midi": 78,
          "name": "F#5",
          "ticks": 5520,
          "time": 8.8461565,
          "velocity": 0.8661417322834646
        },
        {
          "duration": 0.38461550000000067,
          "durationTicks": 240,
          "midi": 82,
          "name": "A#5",
          "ticks": 6240,
          "time": 10.000003,
          "velocity": 0.8661417322834646
        },
        {
          "duration": 1.1538465000000002,
          "durationTicks": 720,
          "midi": 80,
          "name": "G#5",
          "ticks": 6480,
          "time": 10.3846185,
          "velocity": 0.8661417322834646
        },
        {
          "duration": 0.38461550000000067,
          "durationTicks": 240,
          "midi": 80,
          "name": "G#5",
          "ticks": 7440,
          "time": 11.9230805,
          "velocity": 0.8661417322834646
        },
        {
          "duration": 0.38461550000000067,
          "durationTicks": 240,
          "midi": 85,
          "name": "C#6",
          "ticks": 7680,
          "time": 12.307696,
          "velocity": 0.8661417322834646
        },
        {
          "duration": 0.3846154999999989,
          "durationTicks": 240,
          "midi": 87,
          "name": "D#6",
          "ticks": 7920,
          "time": 12.6923115,
          "velocity": 0.8661417322834646
        },
        {
          "duration": 0.38461550000000067,
          "durationTicks": 240,
          "midi": 89,
          "name": "F6",
          "ticks": 8160,
          "time": 13.076927,
          "velocity": 0.8661417322834646
        },
        {
          "duration": 0.7692309999999996,
          "durationTicks": 480,
          "midi": 92,
          "name": "G#6",
          "ticks": 8400,
          "time": 13.4615425,
          "velocity": 0.8661417322834646
        },
        {
          "duration": 0.38461550000000067,
          "durationTicks": 240,
          "midi": 87,
          "name": "D#6",
          "ticks": 8880,
          "time": 14.2307735,
          "velocity": 0.8661417322834646
        },
        {
          "duration": 0.3846154999999989,
          "durationTicks": 240,
          "midi": 89,
          "name": "F6",
          "ticks": 9120,
          "time": 14.615389,
          "velocity": 0.8661417322834646
        },
        {
          "duration": 0.19230775000000122,
          "durationTicks": 120,
          "midi": 89,
          "name": "F6",
          "ticks": 9360,
          "time": 15.0000045,
          "velocity": 0.8661417322834646
        },
        {
          "duration": 0.19230774999999944,
          "durationTicks": 120,
          "midi": 87,
          "name": "D#6",
          "ticks": 9480,
          "time": 15.19231225,
          "velocity": 0.8661417322834646
        },
        {
          "duration": 1.9230774999999998,
          "durationTicks": 1200,
          "midi": 85,
          "name": "C#6",
          "ticks": 9600,
          "time": 15.38462,
          "velocity": 0.8661417322834646
        },
        {
          "duration": 0.1346154249999998,
          "durationTicks": 84,
          "midi": 80,
          "name": "G#5",
          "ticks": 11280,
          "time": 18.0769285,
          "velocity": 0.8661417322834646
        },
        {
          "duration": 0.19230775000000122,
          "durationTicks": 120,
          "midi": 80,
          "name": "G#5",
          "ticks": 11400,
          "time": 18.26923625,
          "velocity": 0.8661417322834646
        },
        {
          "duration": 0.3846154999999989,
          "durationTicks": 240,
          "midi": 82,
          "name": "A#5",
          "ticks": 11520,
          "time": 18.461544,
          "velocity": 0.8661417322834646
        },
        {
          "duration": 0.38461550000000244,
          "durationTicks": 240,
          "midi": 84,
          "name": "C6",
          "ticks": 11760,
          "time": 18.8461595,
          "velocity": 0.8661417322834646
        },
        {
          "duration": 0.3846154999999989,
          "durationTicks": 240,
          "midi": 85,
          "name": "C#6",
          "ticks": 12000,
          "time": 19.230775,
          "velocity": 0.8661417322834646
        },
        {
          "duration": 0.7692310000000013,
          "durationTicks": 480,
          "midi": 80,
          "name": "G#5",
          "ticks": 12240,
          "time": 19.6153905,
          "velocity": 0.8661417322834646
        },
        {
          "duration": 0.19230774999999767,
          "durationTicks": 120,
          "midi": 84,
          "name": "C6",
          "ticks": 12720,
          "time": 20.3846215,
          "velocity": 0.8661417322834646
        },
        {
          "duration": 0.19230775000000122,
          "durationTicks": 120,
          "midi": 85,
          "name": "C#6",
          "ticks": 12840,
          "time": 20.57692925,
          "velocity": 0.8661417322834646
        },
        {
          "duration": 0.3846154999999989,
          "durationTicks": 240,
          "midi": 84,
          "name": "C6",
          "ticks": 12960,
          "time": 20.769237,
          "velocity": 0.8661417322834646
        },
        {
          "duration": 2.6923084999999993,
          "durationTicks": 1680,
          "midi": 85,
          "name": "C#6",
          "ticks": 13200,
          "time": 21.1538525,
          "velocity": 0.8661417322834646
        }
      ]
    },
    {
      "channel": 0,
      "controlChanges": {},
      "pitchBends": [],
      "instrument": {
        "family": "piano",
        "number": 0,
        "name": "acoustic grand piano"
      },
      "name": "untitled",
      "notes": [],
      "endOfTrackTicks": 17280
    },
    {
      "channel": 1,
      "controlChanges": {
        "7": [
          {
            "number": 7,
            "ticks": 0,
            "time": 0,
            "value": 0.8661417322834646
          }
        ],
        "10": [
          {
            "number": 10,
            "ticks": 0,
            "time": 0,
            "value": 0.5039370078740157
          }
        ]
      },
      "pitchBends": [],
      "instrument": {
        "family": "bass",
        "number": 33,
        "name": "electric bass (finger)"
      },
      "name": "",
      "notes": [
        {
          "duration": 1.538462,
          "durationTicks": 960,
          "midi": 49,
          "name": "C#3",
          "ticks": 0,
          "time": 0,
          "velocity": 0.7874015748031497
        },
        {
          "duration": 1.538462,
          "durationTicks": 960,
          "midi": 48,
          "name": "C3",
          "ticks": 960,
          "time": 1.538462,
          "velocity": 0.7874015748031497
        },
        {
          "duration": 1.538462,
          "durationTicks": 960,
          "midi": 46,
          "name": "A#2",
          "ticks": 1920,
          "time": 3.076924,
          "velocity": 0.7874015748031497
        },
        {
          "duration": 1.538462,
          "durationTicks": 960,
          "midi": 44,
          "name": "G#2",
          "ticks": 2880,
          "time": 4.615386,
          "velocity": 0.7874015748031497
        },
        {
          "duration": 1.538462,
          "durationTicks": 960,
          "midi": 42,
          "name": "F#2",
          "ticks": 3840,
          "time": 6.153848,
          "velocity": 0.7874015748031497
        },
        {
          "duration": 1.538462,
          "durationTicks": 960,
          "midi": 41,
          "name": "F2",
          "ticks": 4800,
          "time": 7.69231,
          "velocity": 0.7874015748031497
        },
        {
          "duration": 1.5384620000000009,
          "durationTicks": 960,
          "midi": 51,
          "name": "D#3",
          "ticks": 5760,
          "time": 9.230772,
          "velocity": 0.7874015748031497
        },
        {
          "duration": 1.538461999999999,
          "durationTicks": 960,
          "midi": 44,
          "name": "G#2",
          "ticks": 6720,
          "time": 10.769234,
          "velocity": 0.7874015748031497
        },
        {
          "duration": 1.538461999999999,
          "durationTicks": 960,
          "midi": 49,
          "name": "C#3",
          "ticks": 7680,
          "time": 12.307696,
          "velocity": 0.7874015748031497
        },
        {
          "duration": 1.5384620000000009,
          "durationTicks": 960,
          "midi": 48,
          "name": "C3",
          "ticks": 8640,
          "time": 13.846157999999999,
          "velocity": 0.7874015748031497
        },
        {
          "duration": 1.5384620000000009,
          "durationTicks": 960,
          "midi": 46,
          "name": "A#2",
          "ticks": 9600,
          "time": 15.38462,
          "velocity": 0.7874015748031497
        },
        {
          "duration": 1.538461999999999,
          "durationTicks": 960,
          "midi": 44,
          "name": "G#2",
          "ticks": 10560,
          "time": 16.923082,
          "velocity": 0.7874015748031497
        },
        {
          "duration": 1.538461999999999,
          "durationTicks": 960,
          "midi": 42,
          "name": "F#2",
          "ticks": 11520,
          "time": 18.461544,
          "velocity": 0.7874015748031497
        },
        {
          "duration": 1.5384620000000027,
          "durationTicks": 960,
          "midi": 44,
          "name": "G#2",
          "ticks": 12480,
          "time": 20.000006,
          "velocity": 0.7874015748031497
        },
        {
          "duration": 2.6923084999999993,
          "durationTicks": 1680,
          "midi": 49,
          "name": "C#3",
          "ticks": 13440,
          "time": 21.538468,
          "velocity": 0.7874015748031497
        }
      ]
    },
    {
      "channel": 0,
      "controlChanges": {},
      "pitchBends": [],
      "instrument": {
        "family": "piano",
        "number": 0,
        "name": "acoustic grand piano"
      },
      "name": "untitled",
      "notes": [],
      "endOfTrackTicks": 17280
    },
    {
      "channel": 3,
      "controlChanges": {
        "7": [
          {
            "number": 7,
            "ticks": 0,
            "time": 0,
            "value": 0.7874015748031497
          }
        ],
        "10": [
          {
            "number": 10,
            "ticks": 0,
            "time": 0,
            "value": 1
          }
        ]
      },
      "pitchBends": [],
      "instrument": {
        "family": "guitar",
        "number": 25,
        "name": "acoustic guitar (steel)"
      },
      "name": "",
      "notes": [
        {
          "duration": 1.4615388999999999,
          "durationTicks": 912,
          "midi": 49,
          "name": "C#3",
          "ticks": 0,
          "time": 0,
          "velocity": 0.7874015748031497
        },
        {
          "duration": 0.3205129166666667,
          "durationTicks": 200,
          "midi": 56,
          "name": "G#3",
          "ticks": 0,
          "time": 0,
          "velocity": 0.7874015748031497
        },
        {
          "duration": 0.96153875,
          "durationTicks": 600,
          "midi": 65,
          "name": "F4",
          "ticks": 120,
          "time": 0.19230775,
          "velocity": 0.7874015748031497
        },
        {
          "duration": 0.3846155,
          "durationTicks": 240,
          "midi": 53,
          "name": "F3",
          "ticks": 240,
          "time": 0.3846155,
          "velocity": 0.7874015748031497
        },
        {
          "duration": 0.3846155,
          "durationTicks": 240,
          "midi": 56,
          "name": "G#3",
          "ticks": 480,
          "time": 0.769231,
          "velocity": 0.7874015748031497
        },
        {
          "duration": 0.3846155,
          "durationTicks": 240,
          "midi": 53,
          "name": "F3",
          "ticks": 720,
          "time": 1.1538465,
          "velocity": 0.7874015748031497
        },
        {
          "duration": 1.538462,
          "durationTicks": 960,
          "midi": 48,
          "name": "C3",
          "ticks": 960,
          "time": 1.538462,
          "velocity": 0.7874015748031497
        },
        {
          "duration": 0.3846155,
          "durationTicks": 240,
          "midi": 51,
          "name": "D#3",
          "ticks": 1200,
          "time": 1.9230775,
          "velocity": 0.7874015748031497
        },
        {
          "duration": 0.3846155000000002,
          "durationTicks": 240,
          "midi": 56,
          "name": "G#3",
          "ticks": 1440,
          "time": 2.307693,
          "velocity": 0.7874015748031497
        },
        {
          "duration": 0.3846154999999998,
          "durationTicks": 240,
          "midi": 51,
          "name": "D#3",
          "ticks": 1680,
          "time": 2.6923085,
          "velocity": 0.7874015748031497
        },
        {
          "duration": 1.538462,
          "durationTicks": 960,
          "midi": 46,
          "name": "A#2",
          "ticks": 1920,
          "time": 3.076924,
          "velocity": 0.7874015748031497
        },
        {
          "duration": 0.3846155000000002,
          "durationTicks": 240,
          "midi": 53,
          "name": "F3",
          "ticks": 2160,
          "time": 3.4615394999999998,
          "velocity": 0.7874015748031497
        },
        {
          "duration": 0.3846155000000002,
          "durationTicks": 240,
          "midi": 61,
          "name": "C#4",
          "ticks": 2400,
          "time": 3.846155,
          "velocity": 0.7874015748031497
        },
        {
          "duration": 0.5769232499999997,
          "durationTicks": 360,
          "midi": 65,
          "name": "F4",
          "ticks": 2400,
          "time": 3.846155,
          "velocity": 0.7874015748031497
        },
        {
          "duration": 0.3846154999999998,
          "durationTicks": 240,
          "midi": 53,
          "name": "F3",
          "ticks": 2640,
          "time": 4.2307705,
          "velocity": 0.7874015748031497
        },
        {
          "duration": 1.538462,
          "durationTicks": 960,
          "midi": 44,
          "name": "G#2",
          "ticks": 2880,
          "time": 4.615386,
          "velocity": 0.7874015748031497
        },
        {
          "duration": 0.38461550000000067,
          "durationTicks": 240,
          "midi": 53,
          "name": "F3",
          "ticks": 3120,
          "time": 5.0000015,
          "velocity": 0.7874015748031497
        },
        {
          "duration": 0.3846154999999998,
          "durationTicks": 240,
          "midi": 56,
          "name": "G#3",
          "ticks": 3360,
          "time": 5.384617,
          "velocity": 0.7874015748031497
        },
        {
          "duration": 0.3846154999999998,
          "durationTicks": 240,
          "midi": 61,
          "name": "C#4",
          "ticks": 3360,
          "time": 5.384617,
          "velocity": 0.7874015748031497
        },
        {
          "duration": 0.3846154999999998,
          "durationTicks": 240,
          "midi": 53,
          "name": "F3",
          "ticks": 3600,
          "time": 5.7692325,
          "velocity": 0.7874015748031497
        },
        {
          "duration": 1.538462,
          "durationTicks": 960,
          "midi": 42,
          "name": "F#2",
          "ticks": 3840,
          "time": 6.153848,
          "velocity": 0.7874015748031497
        },
        {
          "duration": 0.3846154999999998,
          "durationTicks": 240,
          "midi": 54,
          "name": "F#3",
          "ticks": 4080,
          "time": 6.5384635,
          "velocity": 0.7874015748031497
        },
        {
          "duration": 0.38461550000000067,
          "durationTicks": 240,
          "midi": 56,
          "name": "G#3",
          "ticks": 4320,
          "time": 6.9230789999999995,
          "velocity": 0.7874015748031497
        },
        {
          "duration": 0.38461550000000067,
          "durationTicks": 240,
          "midi": 61,
          "name": "C#4",
          "ticks": 4320,
          "time": 6.9230789999999995,
          "velocity": 0.7874015748031497
        },
        {
          "duration": 0.3846154999999998,
          "durationTicks": 240,
          "midi": 54,
          "name": "F#3",
          "ticks": 4560,
          "time": 7.3076945,
          "velocity": 0.7874015748031497
        },
        {
          "duration": 1.538462,
          "durationTicks": 960,
          "midi": 41,
          "name": "F2",
          "ticks": 4800,
          "time": 7.69231,
          "velocity": 0.7874015748031497
        },
        {
          "duration": 0.38461550000000067,
          "durationTicks": 240,
          "midi": 53,
          "name": "F3",
          "ticks": 5040,
          "time": 8.0769255,
          "velocity": 0.7874015748031497
        },
        {
          "duration": 0.3846154999999989,
          "durationTicks": 240,
          "midi": 56,
          "name": "G#3",
          "ticks": 5280,
          "time": 8.461541,
          "velocity": 0.7874015748031497
        },
        {
          "duration": 0.3846154999999989,
          "durationTicks": 240,
          "midi": 61,
          "name": "C#4",
          "ticks": 5280,
          "time": 8.461541,
          "velocity": 0.7874015748031497
        },
        {
          "duration": 0.38461550000000067,
          "durationTicks": 240,
          "midi": 53,
          "name": "F3",
          "ticks": 5520,
          "time": 8.8461565,
          "velocity": 0.7874015748031497
        },
        {
          "duration": 1.5384620000000009,
          "durationTicks": 960,
          "midi": 51,
          "name": "D#3",
          "ticks": 5760,
          "time": 9.230772,
          "velocity": 0.7874015748031497
        },
        {
          "duration": 0.3846154999999989,
          "durationTicks": 240,
          "midi": 58,
          "name": "A#3",
          "ticks": 6000,
          "time": 9.6153875,
          "velocity": 0.7874015748031497
        },
        {
          "duration": 0.38461550000000067,
          "durationTicks": 240,
          "midi": 61,
          "name": "C#4",
          "ticks": 6240,
          "time": 10.000003,
          "velocity": 0.7874015748031497
        },
        {
          "duration": 0.5769232500000001,
          "durationTicks": 360,
          "midi": 66,
          "name": "F#4",
          "ticks": 6240,
          "time": 10.000003,
          "velocity": 0.7874015748031497
        },
        {
          "duration": 0.38461550000000067,
          "durationTicks": 240,
          "midi": 58,
          "name": "A#3",
          "ticks": 6480,
          "time": 10.3846185,
          "velocity": 0.7874015748031497
        },
        {
          "duration": 1.538461999999999,
          "durationTicks": 960,
          "midi": 44,
          "name": "G#2",
          "ticks": 6720,
          "time": 10.769234,
          "velocity": 0.7874015748031497
        },
        {
          "duration": 0.38461550000000067,
          "durationTicks": 240,
          "midi": 54,
          "name": "F#3",
          "ticks": 6960,
          "time": 11.1538495,
          "velocity": 0.7874015748031497
        },
        {
          "duration": 0.3846154999999989,
          "durationTicks": 240,
          "midi": 56,
          "name": "G#3",
          "ticks": 7200,
          "time": 11.538465,
          "velocity": 0.7874015748031497
        },
        {
          "duration": 0.3846154999999989,
          "durationTicks": 240,
          "midi": 61,
          "name": "C#4",
          "ticks": 7200,
          "time": 11.538465,
          "velocity": 0.7874015748031497
        },
        {
          "duration": 0.38461550000000067,
          "durationTicks": 240,
          "midi": 54,
          "name": "F#3",
          "ticks": 7440,
          "time": 11.9230805,
          "velocity": 0.7874015748031497
        },
        {
          "duration": 1.3461542499999997,
          "durationTicks": 840,
          "midi": 49,
          "name": "C#3",
          "ticks": 7680,
          "time": 12.307696,
          "velocity": 0.7874015748031497
        },
        {
          "duration": 0.19230774999999944,
          "durationTicks": 120,
          "midi": 51,
          "name": "D#3",
          "ticks": 7920,
          "time": 12.6923115,
          "velocity": 0.7874015748031497
        },
        {
          "duration": 0.19230774999999944,
          "durationTicks": 120,
          "midi": 53,
          "name": "F3",
          "ticks": 8040,
          "time": 12.88461925,
          "velocity": 0.7874015748031497
        },
        {
          "duration": 0.38461550000000067,
          "durationTicks": 240,
          "midi": 56,
          "name": "G#3",
          "ticks": 8160,
          "time": 13.076927,
          "velocity": 0.7874015748031497
        },
        {
          "duration": 0.5769232500000001,
          "durationTicks": 360,
          "midi": 61,
          "name": "C#4",
          "ticks": 8160,
          "time": 13.076927,
          "velocity": 0.7874015748031497
        },
        {
          "duration": 0.19230774999999944,
          "durationTicks": 120,
          "midi": 53,
          "name": "F3",
          "ticks": 8400,
          "time": 13.4615425,
          "velocity": 0.7874015748031497
        },
        {
          "duration": 1.5384620000000009,
          "durationTicks": 960,
          "midi": 48,
          "name": "C3",
          "ticks": 8640,
          "time": 13.846157999999999,
          "velocity": 0.7874015748031497
        },
        {
          "duration": 0.7692310000000013,
          "durationTicks": 480,
          "midi": 63,
          "name": "D#4",
          "ticks": 8640,
          "time": 13.846157999999999,
          "velocity": 0.7874015748031497
        },
        {
          "duration": 0.7692309999999996,
          "durationTicks": 480,
          "midi": 51,
          "name": "D#3",
          "ticks": 8880,
          "time": 14.2307735,
          "velocity": 0.7874015748031497
        },
        {
          "duration": 0.3846154999999989,
          "durationTicks": 240,
          "midi": 65,
          "name": "F4",
          "ticks": 9120,
          "time": 14.615389,
          "velocity": 0.7874015748031497
        },
        {
          "duration": 0.5769232500000001,
          "durationTicks": 360,
          "midi": 61,
          "name": "C#4",
          "ticks": 9360,
          "time": 15.0000045,
          "velocity": 0.7874015748031497
        },
        {
          "duration": 1.5384620000000009,
          "durationTicks": 960,
          "midi": 46,
          "name": "A#2",
          "ticks": 9600,
          "time": 15.38462,
          "velocity": 0.7874015748031497
        },
        {
          "duration": 0.3846154999999989,
          "durationTicks": 240,
          "midi": 53,
          "name": "F3",
          "ticks": 9840,
          "time": 15.7692355,
          "velocity": 0.7874015748031497
        },
        {
          "duration": 0.3846154999999989,
          "durationTicks": 240,
          "midi": 56,
          "name": "G#3",
          "ticks": 10080,
          "time": 16.153851,
          "velocity": 0.7874015748031497
        },
        {
          "duration": 0.3846154999999989,
          "durationTicks": 240,
          "midi": 61,
          "name": "C#4",
          "ticks": 10080,
          "time": 16.153851,
          "velocity": 0.7874015748031497
        },
        {
          "duration": 0.38461550000000244,
          "durationTicks": 240,
          "midi": 53,
          "name": "F3",
          "ticks": 10320,
          "time": 16.5384665,
          "velocity": 0.7874015748031497
        },
        {
          "duration": 1.538461999999999,
          "durationTicks": 960,
          "midi": 44,
          "name": "G#2",
          "ticks": 10560,
          "time": 16.923082,
          "velocity": 0.7874015748031497
        },
        {
          "duration": 0.3846154999999989,
          "durationTicks": 240,
          "midi": 53,
          "name": "F3",
          "ticks": 10800,
          "time": 17.3076975,
          "velocity": 0.7874015748031497
        },
        {
          "duration": 0.326923175000001,
          "durationTicks": 204,
          "midi": 56,
          "name": "G#3",
          "ticks": 11040,
          "time": 17.692313,
          "velocity": 0.7874015748031497
        },
        {
          "duration": 0.38461550000000244,
          "durationTicks": 240,
          "midi": 60,
          "name": "C4",
          "ticks": 11040,
          "time": 17.692313,
          "velocity": 0.7874015748031497
        },
        {
          "duration": 0.3846154999999989,
          "durationTicks": 240,
          "midi": 56,
          "name": "G#3",
          "ticks": 11280,
          "time": 18.0769285,
          "velocity": 0.7874015748031497
        },
        {
          "duration": 0.3846154999999989,
          "durationTicks": 240,
          "midi": 61,
          "name": "C#4",
          "ticks": 11280,
          "time": 18.0769285,
          "velocity": 0.7874015748031497
        },
        {
          "duration": 1.538461999999999,
          "durationTicks": 960,
          "midi": 42,
          "name": "F#2",
          "ticks": 11520,
          "time": 18.461544,
          "velocity": 0.7874015748031497
        },
        {
          "duration": 0.38461550000000244,
          "durationTicks": 240,
          "midi": 54,
          "name": "F#3",
          "ticks": 11760,
          "time": 18.8461595,
          "velocity": 0.7874015748031497
        },
        {
          "duration": 0.3846154999999989,
          "durationTicks": 240,
          "midi": 56,
          "name": "G#3",
          "ticks": 12000,
          "time": 19.230775,
          "velocity": 0.7874015748031497
        },
        {
          "duration": 0.3846154999999989,
          "durationTicks": 240,
          "midi": 61,
          "name": "C#4",
          "ticks": 12240,
          "time": 19.6153905,
          "velocity": 0.7874015748031497
        },
        {
          "duration": 1.5384620000000027,
          "durationTicks": 960,
          "midi": 44,
          "name": "G#2",
          "ticks": 12480,
          "time": 20.000006,
          "velocity": 0.7874015748031497
        },
        {
          "duration": 0.307692399999997,
          "durationTicks": 192,
          "midi": 54,
          "name": "F#3",
          "ticks": 12720,
          "time": 20.3846215,
          "velocity": 0.7874015748031497
        },
        {
          "duration": 0.326923175000001,
          "durationTicks": 204,
          "midi": 56,
          "name": "G#3",
          "ticks": 12960,
          "time": 20.769237,
          "velocity": 0.7874015748031497
        },
        {
          "duration": 0.3846154999999989,
          "durationTicks": 240,
          "midi": 60,
          "name": "C4",
          "ticks": 12960,
          "time": 20.769237,
          "velocity": 0.7874015748031497
        },
        {
          "duration": 0.38461550000000244,
          "durationTicks": 240,
          "midi": 56,
          "name": "G#3",
          "ticks": 13200,
          "time": 21.1538525,
          "velocity": 0.7874015748031497
        },
        {
          "duration": 0.38461550000000244,
          "durationTicks": 240,
          "midi": 61,
          "name": "C#4",
          "ticks": 13200,
          "time": 21.1538525,
          "velocity": 0.7874015748031497
        },
        {
          "duration": 2.884616249999997,
          "durationTicks": 1800,
          "midi": 49,
          "name": "C#3",
          "ticks": 13440,
          "time": 21.538468,
          "velocity": 0.7874015748031497
        },
        {
          "duration": 0.19230774999999767,
          "durationTicks": 120,
          "midi": 51,
          "name": "D#3",
          "ticks": 13680,
          "time": 21.9230835,
          "velocity": 0.7874015748031497
        },
        {
          "duration": 0.19230775000000122,
          "durationTicks": 120,
          "midi": 53,
          "name": "F3",
          "ticks": 13800,
          "time": 22.11539125,
          "velocity": 0.7874015748031497
        },
        {
          "duration": 0.3846154999999989,
          "durationTicks": 240,
          "midi": 56,
          "name": "G#3",
          "ticks": 13920,
          "time": 22.307699,
          "velocity": 0.7874015748031497
        },
        {
          "duration": 2.3076930000000004,
          "durationTicks": 1440,
          "midi": 61,
          "name": "C#4",
          "ticks": 13920,
          "time": 22.307699,
          "velocity": 0.7874015748031497
        },
        {
          "duration": 0.19230775000000122,
          "durationTicks": 120,
          "midi": 53,
          "name": "F3",
          "ticks": 14160,
          "time": 22.6923145,
          "velocity": 0.7874015748031497
        },
        {
          "duration": 0.19230775000000122,
          "durationTicks": 120,
          "midi": 54,
          "name": "F#3",
          "ticks": 14280,
          "time": 22.88462225,
          "velocity": 0.7874015748031497
        },
        {
          "duration": 1.3461542499999979,
          "durationTicks": 840,
          "midi": 53,
          "name": "F3",
          "ticks": 14400,
          "time": 23.07693,
          "velocity": 0.7874015748031497
        }
      ]
    },
    {
      "channel": 9,
      "controlChanges": {
        "7": [
          {
            "number": 7,
            "ticks": 0,
            "time": 0,
            "value": 0.9448818897637795
          }
        ],
        "10": [
          {
            "number": 10,
            "ticks": 0,
            "time": 0,
            "value": 0.5039370078740157
          }
        ]
      },
      "pitchBends": [],
      "instrument": {
        "family": "drums",
        "number": 0,
        "name": "standard kit"
      },
      "name": "untitled",
      "notes": [
        {
          "duration": 0.769231,
          "durationTicks": 480,
          "midi": 36,
          "name": "C2",
          "ticks": 0,
          "time": 0,
          "velocity": 0.8661417322834646
        },
        {
          "duration": 0.19230775,
          "durationTicks": 120,
          "midi": 42,
          "name": "F#2",
          "ticks": 0,
          "time": 0,
          "velocity": 0.6299212598425197
        },
        {
          "duration": 0.19230775,
          "durationTicks": 120,
          "midi": 42,
          "name": "F#2",
          "ticks": 240,
          "time": 0.3846155,
          "velocity": 0.6299212598425197
        },
        {
          "duration": 0.3846155,
          "durationTicks": 240,
          "midi": 40,
          "name": "E2",
          "ticks": 480,
          "time": 0.769231,
          "velocity": 0.9448818897637795
        },
        {
          "duration": 0.3846155,
          "durationTicks": 240,
          "midi": 46,
          "name": "A#2",
          "ticks": 480,
          "time": 0.769231,
          "velocity": 0.6299212598425197
        },
        {
          "duration": 0.3846155,
          "durationTicks": 240,
          "midi": 36,
          "name": "C2",
          "ticks": 720,
          "time": 1.1538465,
          "velocity": 0.8503937007874016
        },
        {
          "duration": 0.1923077500000001,
          "durationTicks": 120,
          "midi": 42,
          "name": "F#2",
          "ticks": 720,
          "time": 1.1538465,
          "velocity": 0.6299212598425197
        },
        {
          "duration": 0.1923077499999999,
          "durationTicks": 120,
          "midi": 42,
          "name": "F#2",
          "ticks": 960,
          "time": 1.538462,
          "velocity": 0.6299212598425197
        },
        {
          "duration": 0.3846155,
          "durationTicks": 240,
          "midi": 36,
          "name": "C2",
          "ticks": 1200,
          "time": 1.9230775,
          "velocity": 0.8503937007874016
        },
        {
          "duration": 0.1923077500000001,
          "durationTicks": 120,
          "midi": 42,
          "name": "F#2",
          "ticks": 1200,
          "time": 1.9230775,
          "velocity": 0.6299212598425197
        },
        {
          "duration": 0.3846155000000002,
          "durationTicks": 240,
          "midi": 40,
          "name": "E2",
          "ticks": 1440,
          "time": 2.307693,
          "velocity": 0.9448818897637795
        },
        {
          "duration": 0.3846155000000002,
          "durationTicks": 240,
          "midi": 46,
          "name": "A#2",
          "ticks": 1440,
          "time": 2.307693,
          "velocity": 0.6299212598425197
        },
        {
          "duration": 0.1923077499999999,
          "durationTicks": 120,
          "midi": 42,
          "name": "F#2",
          "ticks": 1680,
          "time": 2.6923085,
          "velocity": 0.6299212598425197
        },
        {
          "duration": 0.5769232500000001,
          "durationTicks": 360,
          "midi": 36,
          "name": "C2",
          "ticks": 1920,
          "time": 3.076924,
          "velocity": 0.8818897637795275
        },
        {
          "duration": 0.1923077499999999,
          "durationTicks": 120,
          "midi": 42,
          "name": "F#2",
          "ticks": 1920,
          "time": 3.076924,
          "velocity": 0.6299212598425197
        },
        {
          "duration": 0.19230775000000033,
          "durationTicks": 120,
          "midi": 42,
          "name": "F#2",
          "ticks": 2160,
          "time": 3.4615394999999998,
          "velocity": 0.6299212598425197
        },
        {
          "duration": 0.3846155000000002,
          "durationTicks": 240,
          "midi": 40,
          "name": "E2",
          "ticks": 2400,
          "time": 3.846155,
          "velocity": 0.9448818897637795
        },
        {
          "duration": 0.1923077499999999,
          "durationTicks": 120,
          "midi": 46,
          "name": "A#2",
          "ticks": 2400,
          "time": 3.846155,
          "velocity": 0.6299212598425197
        },
        {
          "duration": 0.3846154999999998,
          "durationTicks": 240,
          "midi": 36,
          "name": "C2",
          "ticks": 2640,
          "time": 4.2307705,
          "velocity": 0.8661417322834646
        },
        {
          "duration": 0.19230774999999944,
          "durationTicks": 120,
          "midi": 42,
          "name": "F#2",
          "ticks": 2640,
          "time": 4.2307705,
          "velocity": 0.6299212598425197
        },
        {
          "duration": 0.19230775000000033,
          "durationTicks": 120,
          "midi": 42,
          "name": "F#2",
          "ticks": 2880,
          "time": 4.615386,
          "velocity": 0.6299212598425197
        },
        {
          "duration": 0.38461550000000067,
          "durationTicks": 240,
          "midi": 36,
          "name": "C2",
          "ticks": 3120,
          "time": 5.0000015,
          "velocity": 0.8031496062992126
        },
        {
          "duration": 0.19230775000000033,
          "durationTicks": 120,
          "midi": 42,
          "name": "F#2",
          "ticks": 3120,
          "time": 5.0000015,
          "velocity": 0.6299212598425197
        },
        {
          "duration": 0.19230774999999944,
          "durationTicks": 120,
          "midi": 40,
          "name": "E2",
          "ticks": 3360,
          "time": 5.384617,
          "velocity": 0.9448818897637795
        },
        {
          "duration": 0.19230774999999944,
          "durationTicks": 120,
          "midi": 46,
          "name": "A#2",
          "ticks": 3360,
          "time": 5.384617,
          "velocity": 0.6299212598425197
        },
        {
          "duration": 0.19230775000000033,
          "durationTicks": 120,
          "midi": 36,
          "name": "C2",
          "ticks": 3480,
          "time": 5.57692475,
          "velocity": 0.8267716535433071
        },
        {
          "duration": 0.19230774999999944,
          "durationTicks": 120,
          "midi": 40,
          "name": "E2",
          "ticks": 3600,
          "time": 5.7692325,
          "velocity": 0.9448818897637795
        },
        {
          "duration": 0.19230774999999944,
          "durationTicks": 120,
          "midi": 42,
          "name": "F#2",
          "ticks": 3600,
          "time": 5.7692325,
          "velocity": 0.6299212598425197
        },
        {
          "duration": 0.5769232500000001,
          "durationTicks": 360,
          "midi": 36,
          "name": "C2",
          "ticks": 3840,
          "time": 6.153848,
          "velocity": 0.8661417322834646
        },
        {
          "duration": 0.19230775000000033,
          "durationTicks": 120,
          "midi": 42,
          "name": "F#2",
          "ticks": 3840,
          "time": 6.153848,
          "velocity": 0.6299212598425197
        },
        {
          "duration": 0.19230775000000033,
          "durationTicks": 120,
          "midi": 42,
          "name": "F#2",
          "ticks": 4080,
          "time": 6.5384635,
          "velocity": 0.6299212598425197
        },
        {
          "duration": 0.38461550000000067,
          "durationTicks": 240,
          "midi": 40,
          "name": "E2",
          "ticks": 4320,
          "time": 6.9230789999999995,
          "velocity": 0.9448818897637795
        },
        {
          "duration": 0.38461550000000067,
          "durationTicks": 240,
          "midi": 46,
          "name": "A#2",
          "ticks": 4320,
          "time": 6.9230789999999995,
          "velocity": 0.6299212598425197
        },
        {
          "duration": 0.3846154999999998,
          "durationTicks": 240,
          "midi": 36,
          "name": "C2",
          "ticks": 4560,
          "time": 7.3076945,
          "velocity": 0.8818897637795275
        },
        {
          "duration": 0.19230774999999944,
          "durationTicks": 120,
          "midi": 42,
          "name": "F#2",
          "ticks": 4560,
          "time": 7.3076945,
          "velocity": 0.6299212598425197
        },
        {
          "duration": 0.19230775000000033,
          "durationTicks": 120,
          "midi": 42,
          "name": "F#2",
          "ticks": 4800,
          "time": 7.69231,
          "velocity": 0.6299212598425197
        },
        {
          "duration": 0.38461550000000067,
          "durationTicks": 240,
          "midi": 36,
          "name": "C2",
          "ticks": 5040,
          "time": 8.0769255,
          "velocity": 0.889763779527559
        },
        {
          "duration": 0.19230774999999944,
          "durationTicks": 120,
          "midi": 42,
          "name": "F#2",
          "ticks": 5040,
          "time": 8.0769255,
          "velocity": 0.6299212598425197
        },
        {
          "duration": 0.3846154999999989,
          "durationTicks": 240,
          "midi": 40,
          "name": "E2",
          "ticks": 5280,
          "time": 8.461541,
          "velocity": 0.9448818897637795
        },
        {
          "duration": 0.19230774999999944,
          "durationTicks": 120,
          "midi": 46,
          "name": "A#2",
          "ticks": 5280,
          "time": 8.461541,
          "velocity": 0.6299212598425197
        },
        {
          "duration": 0.38461550000000067,
          "durationTicks": 240,
          "midi": 36,
          "name": "C2",
          "ticks": 5400,
          "time": 8.65384875,
          "velocity": 0.889763779527559
        },
        {
          "duration": 0.19230775000000122,
          "durationTicks": 120,
          "midi": 42,
          "name": "F#2",
          "ticks": 5520,
          "time": 8.8461565,
          "velocity": 0.6299212598425197
        },
        {
          "duration": 0.5769232500000001,
          "durationTicks": 360,
          "midi": 36,
          "name": "C2",
          "ticks": 5760,
          "time": 9.230772,
          "velocity": 0.8818897637795275
        },
        {
          "duration": 0.19230774999999944,
          "durationTicks": 120,
          "midi": 42,
          "name": "F#2",
          "ticks": 5760,
          "time": 9.230772,
          "velocity": 0.6299212598425197
        },
        {
          "duration": 0.19230774999999944,
          "durationTicks": 120,
          "midi": 42,
          "name": "F#2",
          "ticks": 6000,
          "time": 9.6153875,
          "velocity": 0.6299212598425197
        },
        {
          "duration": 0.38461550000000067,
          "durationTicks": 240,
          "midi": 40,
          "name": "E2",
          "ticks": 6240,
          "time": 10.000003,
          "velocity": 0.9448818897637795
        },
        {
          "duration": 0.19230775000000122,
          "durationTicks": 120,
          "midi": 46,
          "name": "A#2",
          "ticks": 6240,
          "time": 10.000003,
          "velocity": 0.6299212598425197
        },
        {
          "duration": 0.38461550000000067,
          "durationTicks": 240,
          "midi": 36,
          "name": "C2",
          "ticks": 6480,
          "time": 10.3846185,
          "velocity": 0.8818897637795275
        },
        {
          "duration": 0.19230774999999944,
          "durationTicks": 120,
          "midi": 42,
          "name": "F#2",
          "ticks": 6480,
          "time": 10.3846185,
          "velocity": 0.6299212598425197
        },
        {
          "duration": 0.19230774999999944,
          "durationTicks": 120,
          "midi": 42,
          "name": "F#2",
          "ticks": 6720,
          "time": 10.769234,
          "velocity": 0.6299212598425197
        },
        {
          "duration": 0.38461550000000067,
          "durationTicks": 240,
          "midi": 36,
          "name": "C2",
          "ticks": 6960,
          "time": 11.1538495,
          "velocity": 0.8818897637795275
        },
        {
          "duration": 0.19230774999999944,
          "durationTicks": 120,
          "midi": 42,
          "name": "F#2",
          "ticks": 6960,
          "time": 11.1538495,
          "velocity": 0.6299212598425197
        },
        {
          "duration": 0.19230774999999944,
          "durationTicks": 120,
          "midi": 40,
          "name": "E2",
          "ticks": 7200,
          "time": 11.538465,
          "velocity": 0.9448818897637795
        },
        {
          "duration": 0.3846154999999989,
          "durationTicks": 240,
          "midi": 46,
          "name": "A#2",
          "ticks": 7200,
          "time": 11.538465,
          "velocity": 0.6299212598425197
        },
        {
          "duration": 0.19230774999999944,
          "durationTicks": 120,
          "midi": 40,
          "name": "E2",
          "ticks": 7320,
          "time": 11.73077275,
          "velocity": 0.9448818897637795
        },
        {
          "duration": 0.38461550000000067,
          "durationTicks": 240,
          "midi": 36,
          "name": "C2",
          "ticks": 7440,
          "time": 11.9230805,
          "velocity": 0.7716535433070866
        },
        {
          "duration": 0.7692309999999996,
          "durationTicks": 480,
          "midi": 36,
          "name": "C2",
          "ticks": 7680,
          "time": 12.307696,
          "velocity": 0.889763779527559
        },
        {
          "duration": 0.19230774999999944,
          "durationTicks": 120,
          "midi": 42,
          "name": "F#2",
          "ticks": 7680,
          "time": 12.307696,
          "velocity": 0.6299212598425197
        },
        {
          "duration": 0.19230774999999944,
          "durationTicks": 120,
          "midi": 42,
          "name": "F#2",
          "ticks": 7920,
          "time": 12.6923115,
          "velocity": 0.6299212598425197
        },
        {
          "duration": 0.38461550000000067,
          "durationTicks": 240,
          "midi": 40,
          "name": "E2",
          "ticks": 8160,
          "time": 13.076927,
          "velocity": 0.9448818897637795
        },
        {
          "duration": 0.19230775000000122,
          "durationTicks": 120,
          "midi": 46,
          "name": "A#2",
          "ticks": 8160,
          "time": 13.076927,
          "velocity": 0.6299212598425197
        },
        {
          "duration": 0.5769232500000001,
          "durationTicks": 360,
          "midi": 36,
          "name": "C2",
          "ticks": 8400,
          "time": 13.4615425,
          "velocity": 0.8267716535433071
        },
        {
          "duration": 0.19230774999999944,
          "durationTicks": 120,
          "midi": 42,
          "name": "F#2",
          "ticks": 8400,
          "time": 13.4615425,
          "velocity": 0.6299212598425197
        },
        {
          "duration": 0.19230775000000122,
          "durationTicks": 120,
          "midi": 42,
          "name": "F#2",
          "ticks": 8640,
          "time": 13.846157999999999,
          "velocity": 0.6299212598425197
        },
        {
          "duration": 0.38461550000000067,
          "durationTicks": 240,
          "midi": 36,
          "name": "C2",
          "ticks": 8880,
          "time": 14.2307735,
          "velocity": 0.8503937007874016
        },
        {
          "duration": 0.19230774999999944,
          "durationTicks": 120,
          "midi": 42,
          "name": "F#2",
          "ticks": 8880,
          "time": 14.2307735,
          "velocity": 0.6299212598425197
        },
        {
          "duration": 0.3846154999999989,
          "durationTicks": 240,
          "midi": 40,
          "name": "E2",
          "ticks": 9120,
          "time": 14.615389,
          "velocity": 0.9448818897637795
        },
        {
          "duration": 0.19230774999999944,
          "durationTicks": 120,
          "midi": 46,
          "name": "A#2",
          "ticks": 9120,
          "time": 14.615389,
          "velocity": 0.6299212598425197
        },
        {
          "duration": 0.19230775000000122,
          "durationTicks": 120,
          "midi": 36,
          "name": "C2",
          "ticks": 9360,
          "time": 15.0000045,
          "velocity": 0.8818897637795275
        },
        {
          "duration": 0.19230775000000122,
          "durationTicks": 120,
          "midi": 42,
          "name": "F#2",
          "ticks": 9360,
          "time": 15.0000045,
          "velocity": 0.6299212598425197
        },
        {
          "duration": 0.5769232500000001,
          "durationTicks": 360,
          "midi": 36,
          "name": "C2",
          "ticks": 9600,
          "time": 15.38462,
          "velocity": 0.8818897637795275
        },
        {
          "duration": 0.19230774999999944,
          "durationTicks": 120,
          "midi": 42,
          "name": "F#2",
          "ticks": 9600,
          "time": 15.38462,
          "velocity": 0.6299212598425197
        },
        {
          "duration": 0.19230774999999944,
          "durationTicks": 120,
          "midi": 42,
          "name": "F#2",
          "ticks": 9840,
          "time": 15.7692355,
          "velocity": 0.6299212598425197
        },
        {
          "duration": 0.3846154999999989,
          "durationTicks": 240,
          "midi": 40,
          "name": "E2",
          "ticks": 10080,
          "time": 16.153851,
          "velocity": 0.9448818897637795
        },
        {
          "duration": 0.19230775000000122,
          "durationTicks": 120,
          "midi": 46,
          "name": "A#2",
          "ticks": 10080,
          "time": 16.153851,
          "velocity": 0.6299212598425197
        },
        {
          "duration": 0.38461550000000244,
          "durationTicks": 240,
          "midi": 36,
          "name": "C2",
          "ticks": 10320,
          "time": 16.5384665,
          "velocity": 0.8503937007874016
        },
        {
          "duration": 0.19230775000000122,
          "durationTicks": 120,
          "midi": 42,
          "name": "F#2",
          "ticks": 10320,
          "time": 16.5384665,
          "velocity": 0.6299212598425197
        },
        {
          "duration": 0.19230774999999767,
          "durationTicks": 120,
          "midi": 42,
          "name": "F#2",
          "ticks": 10560,
          "time": 16.923082,
          "velocity": 0.6299212598425197
        },
        {
          "duration": 0.3846154999999989,
          "durationTicks": 240,
          "midi": 36,
          "name": "C2",
          "ticks": 10800,
          "time": 17.3076975,
          "velocity": 0.8818897637795275
        },
        {
          "duration": 0.19230775000000122,
          "durationTicks": 120,
          "midi": 42,
          "name": "F#2",
          "ticks": 10800,
          "time": 17.3076975,
          "velocity": 0.6299212598425197
        },
        {
          "duration": 0.38461550000000244,
          "durationTicks": 240,
          "midi": 40,
          "name": "E2",
          "ticks": 11040,
          "time": 17.692313,
          "velocity": 0.9448818897637795
        },
        {
          "duration": 0.19230775000000122,
          "durationTicks": 120,
          "midi": 46,
          "name": "A#2",
          "ticks": 11040,
          "time": 17.692313,
          "velocity": 0.6299212598425197
        },
        {
          "duration": 0.19230774999999767,
          "durationTicks": 120,
          "midi": 42,
          "name": "F#2",
          "ticks": 11280,
          "time": 18.0769285,
          "velocity": 0.6299212598425197
        },
        {
          "duration": 0.5769232500000001,
          "durationTicks": 360,
          "midi": 36,
          "name": "C2",
          "ticks": 11520,
          "time": 18.461544,
          "velocity": 0.8661417322834646
        },
        {
          "duration": 0.19230775000000122,
          "durationTicks": 120,
          "midi": 42,
          "name": "F#2",
          "ticks": 11520,
          "time": 18.461544,
          "velocity": 0.6299212598425197
        },
        {
          "duration": 0.19230775000000122,
          "durationTicks": 120,
          "midi": 42,
          "name": "F#2",
          "ticks": 11760,
          "time": 18.8461595,
          "velocity": 0.6299212598425197
        },
        {
          "duration": 0.5769232500000001,
          "durationTicks": 360,
          "midi": 40,
          "name": "E2",
          "ticks": 12000,
          "time": 19.230775,
          "velocity": 0.9448818897637795
        },
        {
          "duration": 0.19230774999999767,
          "durationTicks": 120,
          "midi": 46,
          "name": "A#2",
          "ticks": 12000,
          "time": 19.230775,
          "velocity": 0.6299212598425197
        },
        {
          "duration": 0.19230775000000122,
          "durationTicks": 120,
          "midi": 42,
          "name": "F#2",
          "ticks": 12240,
          "time": 19.6153905,
          "velocity": 0.6299212598425197
        },
        {
          "duration": 0.5769232500000001,
          "durationTicks": 360,
          "midi": 36,
          "name": "C2",
          "ticks": 12480,
          "time": 20.000006,
          "velocity": 0.8818897637795275
        },
        {
          "duration": 0.19230775000000122,
          "durationTicks": 120,
          "midi": 42,
          "name": "F#2",
          "ticks": 12480,
          "time": 20.000006,
          "velocity": 0.6299212598425197
        },
        {
          "duration": 0.19230774999999767,
          "durationTicks": 120,
          "midi": 42,
          "name": "F#2",
          "ticks": 12720,
          "time": 20.3846215,
          "velocity": 0.6299212598425197
        },
        {
          "duration": 0.19230775000000122,
          "durationTicks": 120,
          "midi": 40,
          "name": "E2",
          "ticks": 12960,
          "time": 20.769237,
          "velocity": 0.9448818897637795
        },
        {
          "duration": 0.19230775000000122,
          "durationTicks": 120,
          "midi": 46,
          "name": "A#2",
          "ticks": 12960,
          "time": 20.769237,
          "velocity": 0.6299212598425197
        },
        {
          "duration": 0.38461550000000244,
          "durationTicks": 240,
          "midi": 40,
          "name": "E2",
          "ticks": 13200,
          "time": 21.1538525,
          "velocity": 0.9448818897637795
        },
        {
          "duration": 0.19230775000000122,
          "durationTicks": 120,
          "midi": 42,
          "name": "F#2",
          "ticks": 13200,
          "time": 21.1538525,
          "velocity": 0.6299212598425197
        },
        {
          "duration": 0.5769232499999966,
          "durationTicks": 360,
          "midi": 36,
          "name": "C2",
          "ticks": 13440,
          "time": 21.538468,
          "velocity": 0.8267716535433071
        },
        {
          "duration": 0.19230774999999767,
          "durationTicks": 120,
          "midi": 42,
          "name": "F#2",
          "ticks": 13440,
          "time": 21.538468,
          "velocity": 0.6299212598425197
        },
        {
          "duration": 0.19230774999999767,
          "durationTicks": 120,
          "midi": 42,
          "name": "F#2",
          "ticks": 13680,
          "time": 21.9230835,
          "velocity": 0.6299212598425197
        },
        {
          "duration": 0.3846154999999989,
          "durationTicks": 240,
          "midi": 40,
          "name": "E2",
          "ticks": 13920,
          "time": 22.307699,
          "velocity": 0.9448818897637795
        },
        {
          "duration": 0.19230775000000122,
          "durationTicks": 120,
          "midi": 46,
          "name": "A#2",
          "ticks": 13920,
          "time": 22.307699,
          "velocity": 0.6299212598425197
        },
        {
          "duration": 0.19230775000000122,
          "durationTicks": 120,
          "midi": 36,
          "name": "C2",
          "ticks": 14160,
          "time": 22.6923145,
          "velocity": 0.8188976377952756
        },
        {
          "duration": 0.19230775000000122,
          "durationTicks": 120,
          "midi": 42,
          "name": "F#2",
          "ticks": 14160,
          "time": 22.6923145,
          "velocity": 0.6299212598425197
        },
        {
          "duration": 0.5769232500000001,
          "durationTicks": 360,
          "midi": 46,
          "name": "A#2",
          "ticks": 14400,
          "time": 23.07693,
          "velocity": 0.6299212598425197
        },
        {
          "duration": 0.3846154999999989,
          "durationTicks": 240,
          "midi": 36,
          "name": "C2",
          "ticks": 14640,
          "time": 23.4615455,
          "velocity": 0.8188976377952756
        },
        {
          "duration": 0.38461550000000244,
          "durationTicks": 240,
          "midi": 40,
          "name": "E2",
          "ticks": 14880,
          "time": 23.846161,
          "velocity": 0.9448818897637795
        }
      ],
      "endOfTrackTicks": 17280
    }
  ]
}