{
  "header": {
    "keySignatures": [
      {
        "key": "Eb",
        "scale": "major",
        "ticks": 0
      }
    ],
    "meta": [],
    "name": "",
    "ppq": 480,
    "tempos": [
      {
        "bpm": 155.00031000062,
        "ticks": 0
      },
      {
        "bpm": 60,
        "ticks": 491520
      },
      {
        "bpm": 120,
        "ticks": 504200
      },
      {
        "bpm": 109.99990833340972,
        "ticks": 545280
      },
      {
        "bpm": 85.00004250002125,
        "ticks": 545520
      },
      {
        "bpm": 69.99998833333528,
        "ticks": 546040
      },
      {
        "bpm": 40,
        "ticks": 546240
      },
      {
        "bpm": 120,
        "ticks": 547680
      },
      {
        "bpm": 145.00003625000906,
        "ticks": 559200
      }
    ],
    "timeSignatures": [
      {
        "ticks": 0,
        "timeSignature": [
          4,
          4
        ],
        "measures": 0
      },
      {
        "ticks": 503040,
        "timeSignature": [
          6,
          8
        ],
        "measures": 262
      }
    ]
  },
  "tracks": [
    {
      "channel": 0,
      "controlChanges": {},
      "pitchBends": [],
      "instrument": {
        "family": "piano",
        "number": 0,
        "name": "acoustic grand piano"
      },
      "name": "Solo Oboe",
      "notes": [],
      "endOfTrackTicks": 566400
    },
    {
      "channel": 0,
      "controlChanges": {
        "7": [
          {
            "number": 7,
            "ticks": 0,
            "time": 0,
            "value": 0.9448818897637795
          }
        ],
        "10": [
          {
            "number": 10,
            "ticks": 0,
            "time": 0,
            "value": 0.4330708661417323
          }
        ],
        "91": [
          {
            "number": 91,
            "ticks": 0,
            "time": 0,
            "value": 0.7086614173228346
          },
          {
            "number": 91,
            "ticks": 544800,
            "time": 465.0946373333334,
            "value": 0.03937007874015748
          },
          {
            "number": 91,
            "ticks": 547680,
            "time": 471.48921325000003,
            "value": 0.5905511811023622
          }
        ]
      },
      "pitchBends": [],
      "instrument": {
        "family": "reed",
        "number": 68,
        "name": "oboe"
      },
      "name": "",
      "notes": [
        {
          "duration": 0.12903200000000026,
          "durationTicks": 160,
          "midi": 70,
          "name": "A#4",
          "ticks": 1440,
          "time": 1.1612879999999999,
          "velocity": 0.5905511811023622
        },
        {
          "duration": 0.3870960000000001,
          "durationTicks": 480,
          "midi": 70,
          "name": "A#4",
          "ticks": 1920,
          "time": 1.548384,
          "velocity": 0.5905511811023622
        },
        {
          "duration": 0.1290319999999996,
          "durationTicks": 160,
          "midi": 75,
          "name": "D#5",
          "ticks": 2400,
          "time": 1.93548,
          "velocity": 0.5905511811023622
        },
        {
          "duration": 0.12903200000000004,
          "durationTicks": 160,
          "midi": 75,
          "name": "D#5",
          "ticks": 2880,
          "time": 2.3225759999999998,
          "velocity": 0.5905511811023622
        },
        {
          "duration": 0.12903200000000004,
          "durationTicks": 160,
          "midi": 70,
          "name": "A#4",
          "ticks": 3360,
          "time": 2.709672,
          "velocity": 0.5905511811023622
        },
        {
          "duration": 0.3870960000000001,
          "durationTicks": 480,
          "midi": 70,
          "name": "A#4",
          "ticks": 3840,
          "time": 3.096768,
          "velocity": 0.5905511811023622
        },
        {
          "duration": 0.12903200000000004,
          "durationTicks": 160,
          "midi": 77,
          "name": "F5",
          "ticks": 4320,
          "time": 3.483864,
          "velocity": 0.5905511811023622
        },
        {
          "duration": 0.12903200000000004,
          "durationTicks": 160,
          "midi": 77,
          "name": "F5",
          "ticks": 4800,
          "time": 3.87096,
          "velocity": 0.5905511811023622
        },
        {
          "duration": 0.12903200000000048,
          "durationTicks": 160,
          "midi": 70,
          "name": "A#4",
          "ticks": 5280,
          "time": 4.258056,
          "velocity": 0.5905511811023622
        },
        {
          "duration": 0.12903200000000048,
          "durationTicks": 160,
          "midi": 79,
          "name": "G5",
          "ticks": 5760,
          "time": 4.6451519999999995,
          "velocity": 0.5905511811023622
        },
        {
          "duration": 0.12903200000000048,
          "durationTicks": 160,
          "midi": 79,
          "name": "G5",
          "ticks": 6240,
          "time": 5.032248,
          "velocity": 0.5905511811023622
        },
        {
          "duration": 0.12903200000000048,
          "durationTicks": 160,
          "midi": 80,
          "name": "G#5",
          "ticks": 6720,
          "time": 5.419344,
          "velocity": 0.5905511811023622
        },
        {
          "duration": 0.1290319999999996,
          "durationTicks": 160,
          "midi": 80,
          "name": "G#5",
          "ticks": 7200,
          "time": 5.80644,
          "velocity": 0.5905511811023622
        },
        {
          "duration": 0.19354799999999983,
          "durationTicks": 240,
          "midi": 77,
          "name": "F5",
          "ticks": 7680,
          "time": 6.193536,
          "velocity": 0.5905511811023622
        },
        {
          "duration": 0.19354799999999983,
          "durationTicks": 240,
          "midi": 75,
          "name": "D#5",
          "ticks": 7920,
          "time": 6.387084,
          "velocity": 0.5905511811023622
        },
        {
          "duration": 0.19354800000000072,
          "durationTicks": 240,
          "midi": 74,
          "name": "D5",
          "ticks": 8160,
          "time": 6.580632,
          "velocity": 0.5905511811023622
        },
        {
          "duration": 0.19354799999999983,
          "durationTicks": 240,
          "midi": 72,
          "name": "C5",
          "ticks": 8400,
          "time": 6.77418,
          "velocity": 0.5905511811023622
        },
        {
          "duration": 0.1290319999999996,
          "durationTicks": 160,
          "midi": 70,
          "name": "A#4",
          "ticks": 8640,
          "time": 6.967728,
          "velocity": 0.5905511811023622
        },
        {
          "duration": 0.1290319999999996,
          "durationTicks": 160,
          "midi": 82,
          "name": "A#5",
          "ticks": 9120,
          "time": 7.354824,
          "velocity": 0.5905511811023622
        },
        {
          "duration": 0.1290319999999987,
          "durationTicks": 160,
          "midi": 72,
          "name": "C5",
          "ticks": 9600,
          "time": 7.74192,
          "velocity": 0.5905511811023622
        },
        {
          "duration": 0.1290319999999987,
          "durationTicks": 160,
          "midi": 76,
          "name": "E5",
          "ticks": 10080,
          "time": 8.129016,
          "velocity": 0.5905511811023622
        },
        {
          "duration": 0.12903200000000048,
          "durationTicks": 160,
          "midi": 77,
          "name": "F5",
          "ticks": 10560,
          "time": 8.516112,
          "velocity": 0.5905511811023622
        },
        {
          "duration": 0.12903200000000048,
          "durationTicks": 160,
          "midi": 80,
          "name": "G#5",
          "ticks": 11040,
          "time": 8.903208,
          "velocity": 0.5905511811023622
        },
        {
          "duration": 0.12903200000000048,
          "durationTicks": 160,
          "midi": 70,
          "name": "A#4",
          "ticks": 11520,
          "time": 9.290303999999999,
          "velocity": 0.5905511811023622
        },
        {
          "duration": 0.1290319999999987,
          "durationTicks": 160,
          "midi": 74,
          "name": "D5",
          "ticks": 12000,
          "time": 9.6774,
          "velocity": 0.5905511811023622
        },
        {
          "duration": 0.1290319999999987,
          "durationTicks": 160,
          "midi": 75,
          "name": "D#5",
          "ticks": 12480,
          "time": 10.064496,
          "velocity": 0.5905511811023622
        },
        {
          "duration": 0.12903200000000048,
          "durationTicks": 160,
          "midi": 79,
          "name": "G5",
          "ticks": 12960,
          "time": 10.451592,
          "velocity": 0.5905511811023622
        },
        {
          "duration": 0.12903200000000048,
          "durationTicks": 160,
          "midi": 77,
          "name": "F5",
          "ticks": 13440,
          "time": 10.838688,
          "velocity": 0.5905511811023622
        },
        {
          "duration": 0.12903200000000048,
          "durationTicks": 160,
          "midi": 80,
          "name": "G#5",
          "ticks": 13920,
          "time": 11.225783999999999,
          "velocity": 0.5905511811023622
        },
        {
          "duration": 0.1290319999999987,
          "durationTicks": 160,
          "midi": 70,
          "name": "A#4",
          "ticks": 14400,
          "time": 11.61288,
          "velocity": 0.5905511811023622
        },
        {
          "duration": 0.1290319999999987,
          "durationTicks": 160,
          "midi": 74,
          "name": "D5",
          "ticks": 14880,
          "time": 11.999976,
          "velocity": 0.5905511811023622
        },
        {
          "duration": 0.6129020000000001,
          "durationTicks": 760,
          "midi": 75,
          "name": "D#5",
          "ticks": 15360,
          "time": 12.387072,
          "velocity": 0.5905511811023622
        },
        {
          "duration": 0.12903200000000048,
          "durationTicks": 160,
          "midi": 79,
          "name": "G5",
          "ticks": 16800,
          "time": 13.54836,
          "velocity": 0.5905511811023622
        },
        {
          "duration": 0.9999979999999997,
          "durationTicks": 1240,
          "midi": 79,
          "name": "G5",
          "ticks": 17280,
          "time": 13.935456,
          "velocity": 0.5905511811023622
        },
        {
          "duration": 0.19354799999999983,
          "durationTicks": 240,
          "midi": 81,
          "name": "A5",
          "ticks": 18720,
          "time": 15.096744,
          "velocity": 0.5905511811023622
        },
        {
          "duration": 0.1935480000000016,
          "durationTicks": 240,
          "midi": 83,
          "name": "B5",
          "ticks": 18960,
          "time": 15.290291999999999,
          "velocity": 0.5905511811023622
        },
        {
          "duration": 0.12903200000000048,
          "durationTicks": 160,
          "midi": 84,
          "name": "C6",
          "ticks": 19200,
          "time": 15.48384,
          "velocity": 0.5905511811023622
        },
        {
          "duration": 0.12903200000000048,
          "durationTicks": 160,
          "midi": 84,
          "name": "C6",
          "ticks": 19680,
          "time": 15.870936,
          "velocity": 0.5905511811023622
        },
        {
          "duration": 0.12903200000000226,
          "durationTicks": 160,
          "midi": 84,
          "name": "C6",
          "ticks": 20160,
          "time": 16.258032,
          "velocity": 0.5905511811023622
        },
        {
          "duration": 0.12903200000000226,
          "durationTicks": 160,
          "midi": 77,
          "name": "F5",
          "ticks": 20640,
          "time": 16.645128,
          "velocity": 0.5905511811023622
        },
        {
          "duration": 0.9999980000000015,
          "durationTicks": 1240,
          "midi": 77,
          "name": "F5",
          "ticks": 21120,
          "time": 17.032224,
          "velocity": 0.5905511811023622
        },
        {
          "duration": 0.19354799999999983,
          "durationTicks": 240,
          "midi": 79,
          "name": "G5",
          "ticks": 22560,
          "time": 18.193512,
          "velocity": 0.5905511811023622
        },
        {
          "duration": 0.19354799999999983,
          "durationTicks": 240,
          "midi": 81,
          "name": "A5",
          "ticks": 22800,
          "time": 18.387059999999998,
          "velocity": 0.5905511811023622
        },
        {
          "duration": 0.12903200000000226,
          "durationTicks": 160,
          "midi": 82,
          "name": "A#5",
          "ticks": 23040,
          "time": 18.580607999999998,
          "velocity": 0.5905511811023622
        },
        {
          "duration": 0.1290319999999987,
          "durationTicks": 160,
          "midi": 82,
          "name": "A#5",
          "ticks": 23520,
          "time": 18.967704,
          "velocity": 0.5905511811023622
        },
        {
          "duration": 0.1290319999999987,
          "durationTicks": 160,
          "midi": 82,
          "name": "A#5",
          "ticks": 24000,
          "time": 19.3548,
          "velocity": 0.5905511811023622
        },
        {
          "duration": 0.1290319999999987,
          "durationTicks": 160,
          "midi": 82,
          "name": "A#5",
          "ticks": 24480,
          "time": 19.741896,
          "velocity": 0.5905511811023622
        },
        {
          "duration": 0.1290319999999987,
          "durationTicks": 160,
          "midi": 72,
          "name": "C5",
          "ticks": 24960,
          "time": 20.128992,
          "velocity": 0.5905511811023622
        },
        {
          "duration": 0.12903200000000226,
          "durationTicks": 160,
          "midi": 76,
          "name": "E5",
          "ticks": 25440,
          "time": 20.516088,
          "velocity": 0.5905511811023622
        },
        {
          "duration": 0.12903200000000226,
          "durationTicks": 160,
          "midi": 77,
          "name": "F5",
          "ticks": 25920,
          "time": 20.903184,
          "velocity": 0.5905511811023622
        },
        {
          "duration": 0.12903200000000226,
          "durationTicks": 160,
          "midi": 80,
          "name": "G#5",
          "ticks": 26400,
          "time": 21.29028,
          "velocity": 0.5905511811023622
        },
        {
          "duration": 0.12903200000000226,
          "durationTicks": 160,
          "midi": 70,
          "name": "A#4",
          "ticks": 26880,
          "time": 21.677376,
          "velocity": 0.5905511811023622
        },
        {
          "duration": 0.12903200000000226,
          "durationTicks": 160,
          "midi": 74,
          "name": "D5",
          "ticks": 27360,
          "time": 22.064472,
          "velocity": 0.5905511811023622
        },
        {
          "duration": 0.12903200000000226,
          "durationTicks": 160,
          "midi": 75,
          "name": "D#5",
          "ticks": 27840,
          "time": 22.451567999999998,
          "velocity": 0.5905511811023622
        },
        {
          "duration": 0.1290319999999987,
          "durationTicks": 160,
          "midi": 79,
          "name": "G5",
          "ticks": 28320,
          "time": 22.838664,
          "velocity": 0.5905511811023622
        },
        {
          "duration": 0.1290319999999987,
          "durationTicks": 160,
          "midi": 77,
          "name": "F5",
          "ticks": 28800,
          "time": 23.22576,
          "velocity": 0.5905511811023622
        },
        {
          "duration": 0.1290319999999987,
          "durationTicks": 160,
          "midi": 80,
          "name": "G#5",
          "ticks": 29280,
          "time": 23.612856,
          "velocity": 0.5905511811023622
        },
        {
          "duration": 0.1290319999999987,
          "durationTicks": 160,
          "midi": 70,
          "name": "A#4",
          "ticks": 29760,
          "time": 23.999952,
          "velocity": 0.5905511811023622
        },
        {
          "duration": 0.12903200000000226,
          "durationTicks": 160,
          "midi": 74,
          "name": "D5",
          "ticks": 30240,
          "time": 24.387048,
          "velocity": 0.5905511811023622
        },
        {
          "duration": 0.6129019999999983,
          "durationTicks": 760,
          "midi": 75,
          "name": "D#5",
          "ticks": 30720,
          "time": 24.774144,
          "velocity": 0.5905511811023622
        },
        {
          "duration": 0.23387049999999476,
          "durationTicks": 290,
          "midi": 82,
          "name": "A#5",
          "ticks": 101280,
          "time": 81.677256,
          "velocity": 0.5905511811023622
        },
        {
          "duration": 0.7741919999999993,
          "durationTicks": 960,
          "midi": 82,
          "name": "A#5",
          "ticks": 101760,
          "time": 82.064352,
          "velocity": 0.5905511811023622
        },
        {
          "duration": 0.7741919999999993,
          "durationTicks": 960,
          "midi": 81,
          "name": "A5",
          "ticks": 102720,
          "time": 82.838544,
          "velocity": 0.5905511811023622
        },
        {
          "duration": 0.7741919999999993,
          "durationTicks": 960,
          "midi": 80,
          "name": "G#5",
          "ticks": 103680,
          "time": 83.612736,
          "velocity": 0.5905511811023622
        },
        {
          "duration": 0.7096760000000017,
          "durationTicks": 880,
          "midi": 79,
          "name": "G5",
          "ticks": 104640,
          "time": 84.386928,
          "velocity": 0.5905511811023622
        },
        {
          "duration": 0.11693525000001159,
          "durationTicks": 145,
          "midi": 77,
          "name": "F5",
          "ticks": 105600,
          "time": 85.16112,
          "velocity": 0.5905511811023622
        },
        {
          "duration": 0.11693524999999738,
          "durationTicks": 145,
          "midi": 84,
          "name": "C6",
          "ticks": 105840,
          "time": 85.354668,
          "velocity": 0.5905511811023622
        },
        {
          "duration": 0.11693525000001159,
          "durationTicks": 145,
          "midi": 82,
          "name": "A#5",
          "ticks": 106080,
          "time": 85.548216,
          "velocity": 0.5905511811023622
        },
        {
          "duration": 0.11693524999999738,
          "durationTicks": 145,
          "midi": 80,
          "name": "G#5",
          "ticks": 106320,
          "time": 85.741764,
          "velocity": 0.5905511811023622
        },
        {
          "duration": 0.11693525000001159,
          "durationTicks": 145,
          "midi": 79,
          "name": "G5",
          "ticks": 106560,
          "time": 85.935312,
          "velocity": 0.5905511811023622
        },
        {
          "duration": 0.11693524999999738,
          "durationTicks": 145,
          "midi": 77,
          "name": "F5",
          "ticks": 106800,
          "time": 86.12886,
          "velocity": 0.5905511811023622
        },
        {
          "duration": 0.11693525000001159,
          "durationTicks": 145,
          "midi": 75,
          "name": "D#5",
          "ticks": 107040,
          "time": 86.322408,
          "velocity": 0.5905511811023622
        },
        {
          "duration": 0.11693524999999738,
          "durationTicks": 145,
          "midi": 74,
          "name": "D5",
          "ticks": 107280,
          "time": 86.515956,
          "velocity": 0.5905511811023622
        },
        {
          "duration": 0.7741919999999993,
          "durationTicks": 960,
          "midi": 77,
          "name": "F5",
          "ticks": 107520,
          "time": 86.709504,
          "velocity": 0.5905511811023622
        },
        {
          "duration": 0.12903200000000936,
          "durationTicks": 160,
          "midi": 75,
          "name": "D#5",
          "ticks": 108480,
          "time": 87.483696,
          "velocity": 0.5905511811023622
        },
        {
          "duration": 0.23387049999999476,
          "durationTicks": 290,
          "midi": 82,
          "name": "A#5",
          "ticks": 116640,
          "time": 94.064328,
          "velocity": 0.5905511811023622
        },
        {
          "duration": 0.7741919999999993,
          "durationTicks": 960,
          "midi": 82,
          "name": "A#5",
          "ticks": 117120,
          "time": 94.451424,
          "velocity": 0.5905511811023622
        },
        {
          "duration": 0.7741919999999993,
          "durationTicks": 960,
          "midi": 81,
          "name": "A5",
          "ticks": 118080,
          "time": 95.225616,
          "velocity": 0.5905511811023622
        },
        {
          "duration": 0.7741919999999993,
          "durationTicks": 960,
          "midi": 80,
          "name": "G#5",
          "ticks": 119040,
          "time": 95.999808,
          "velocity": 0.5905511811023622
        },
        {
          "duration": 0.7096760000000017,
          "durationTicks": 880,
          "midi": 79,
          "name": "G5",
          "ticks": 120000,
          "time": 96.774,
          "velocity": 0.5905511811023622
        },
        {
          "duration": 0.11693524999999738,
          "durationTicks": 145,
          "midi": 77,
          "name": "F5",
          "ticks": 120960,
          "time": 97.548192,
          "velocity": 0.5905511811023622
        },
        {
          "duration": 0.11693525000001159,
          "durationTicks": 145,
          "midi": 84,
          "name": "C6",
          "ticks": 121200,
          "time": 97.74174,
          "velocity": 0.5905511811023622
        },
        {
          "duration": 0.11693524999999738,
          "durationTicks": 145,
          "midi": 82,
          "name": "A#5",
          "ticks": 121440,
          "time": 97.935288,
          "velocity": 0.5905511811023622
        },
        {
          "duration": 0.11693525000001159,
          "durationTicks": 145,
          "midi": 80,
          "name": "G#5",
          "ticks": 121680,
          "time": 98.12883599999999,
          "velocity": 0.5905511811023622
        },
        {
          "duration": 0.11693524999999738,
          "durationTicks": 145,
          "midi": 79,
          "name": "G5",
          "ticks": 121920,
          "time": 98.322384,
          "velocity": 0.5905511811023622
        },
        {
          "duration": 0.11693525000001159,
          "durationTicks": 145,
          "midi": 77,
          "name": "F5",
          "ticks": 122160,
          "time": 98.51593199999999,
          "velocity": 0.5905511811023622
        },
        {
          "duration": 0.11693524999999738,
          "durationTicks": 145,
          "midi": 75,
          "name": "D#5",
          "ticks": 122400,
          "time": 98.70948,
          "velocity": 0.5905511811023622
        },
        {
          "duration": 0.11693525000001159,
          "durationTicks": 145,
          "midi": 74,
          "name": "D5",
          "ticks": 122640,
          "time": 98.90302799999999,
          "velocity": 0.5905511811023622
        },
        {
          "duration": 0.7741919999999993,
          "durationTicks": 960,
          "midi": 77,
          "name": "F5",
          "ticks": 122880,
          "time": 99.096576,
          "velocity": 0.5905511811023622
        },
        {
          "duration": 0.12903199999999515,
          "durationTicks": 160,
          "midi": 75,
          "name": "D#5",
          "ticks": 123840,
          "time": 99.870768,
          "velocity": 0.5905511811023622
        },
        {
          "duration": 0.3225800000000021,
          "durationTicks": 400,
          "midi": 82,
          "name": "A#5",
          "ticks": 147360,
          "time": 118.838472,
          "velocity": 0.5905511811023622
        },
        {
          "duration": 0.7096760000000017,
          "durationTicks": 880,
          "midi": 82,
          "name": "A#5",
          "ticks": 147840,
          "time": 119.225568,
          "velocity": 0.5905511811023622
        },
        {
          "duration": 1.5483839999999987,
          "durationTicks": 1920,
          "midi": 80,
          "name": "G#5",
          "ticks": 148800,
          "time": 119.99976,
          "velocity": 0.5905511811023622
        },
        {
          "duration": 0.6129019999999912,
          "durationTicks": 760,
          "midi": 79,
          "name": "G5",
          "ticks": 150720,
          "time": 121.548144,
          "velocity": 0.5905511811023622
        },
        {
          "duration": 0.1370964999999984,
          "durationTicks": 170,
          "midi": 79,
          "name": "G5",
          "ticks": 155040,
          "time": 125.032008,
          "velocity": 0.5905511811023622
        },
        {
          "duration": 0.38709599999999966,
          "durationTicks": 480,
          "midi": 79,
          "name": "G5",
          "ticks": 155520,
          "time": 125.419104,
          "velocity": 0.5905511811023622
        },
        {
          "duration": 0.1370964999999984,
          "durationTicks": 170,
          "midi": 71,
          "name": "B4",
          "ticks": 156000,
          "time": 125.8062,
          "velocity": 0.5905511811023622
        },
        {
          "duration": 0.1370964999999984,
          "durationTicks": 170,
          "midi": 79,
          "name": "G5",
          "ticks": 156960,
          "time": 126.580392,
          "velocity": 0.5905511811023622
        },
        {
          "duration": 0.12903199999999515,
          "durationTicks": 160,
          "midi": 79,
          "name": "G5",
          "ticks": 157440,
          "time": 126.967488,
          "velocity": 0.5905511811023622
        },
        {
          "duration": 0.04032250000001625,
          "durationTicks": 50,
          "midi": 75,
          "name": "D#5",
          "ticks": 157800,
          "time": 127.25780999999999,
          "velocity": 0.5905511811023622
        },
        {
          "duration": 0.12903199999999515,
          "durationTicks": 160,
          "midi": 72,
          "name": "C5",
          "ticks": 157920,
          "time": 127.354584,
          "velocity": 0.5905511811023622
        },
        {
          "duration": 0.1370965000000126,
          "durationTicks": 170,
          "midi": 79,
          "name": "G5",
          "ticks": 158880,
          "time": 128.128776,
          "velocity": 0.5905511811023622
        },
        {
          "duration": 0.38709599999998545,
          "durationTicks": 480,
          "midi": 77,
          "name": "F5",
          "ticks": 159360,
          "time": 128.515872,
          "velocity": 0.5905511811023622
        },
        {
          "duration": 0.1370965000000126,
          "durationTicks": 170,
          "midi": 69,
          "name": "A4",
          "ticks": 159840,
          "time": 128.902968,
          "velocity": 0.5905511811023622
        },
        {
          "duration": 0.1370965000000126,
          "durationTicks": 170,
          "midi": 77,
          "name": "F5",
          "ticks": 160800,
          "time": 129.67716,
          "velocity": 0.5905511811023622
        },
        {
          "duration": 0.12903199999999515,
          "durationTicks": 160,
          "midi": 77,
          "name": "F5",
          "ticks": 161280,
          "time": 130.064256,
          "velocity": 0.5905511811023622
        },
        {
          "duration": 0.04032250000000204,
          "durationTicks": 50,
          "midi": 74,
          "name": "D5",
          "ticks": 161640,
          "time": 130.354578,
          "velocity": 0.5905511811023622
        },
        {
          "duration": 0.12903199999999515,
          "durationTicks": 160,
          "midi": 70,
          "name": "A#4",
          "ticks": 161760,
          "time": 130.45135199999999,
          "velocity": 0.5905511811023622
        },
        {
          "duration": 0.3225800000000163,
          "durationTicks": 400,
          "midi": 82,
          "name": "A#5",
          "ticks": 162720,
          "time": 131.22554399999999,
          "velocity": 0.5905511811023622
        },
        {
          "duration": 0.7096760000000017,
          "durationTicks": 880,
          "midi": 82,
          "name": "A#5",
          "ticks": 163200,
          "time": 131.61264,
          "velocity": 0.5905511811023622
        },
        {
          "duration": 1.5483839999999987,
          "durationTicks": 1920,
          "midi": 80,
          "name": "G#5",
          "ticks": 164160,
          "time": 132.386832,
          "velocity": 0.5905511811023622
        },
        {
          "duration": 0.6129019999999912,
          "durationTicks": 760,
          "midi": 79,
          "name": "G5",
          "ticks": 166080,
          "time": 133.935216,
          "velocity": 0.5905511811023622
        },
        {
          "duration": 0.23387049999999476,
          "durationTicks": 290,
          "midi": 70,
          "name": "A#4",
          "ticks": 185760,
          "time": 149.806152,
          "velocity": 0.5905511811023622
        },
        {
          "duration": 0.38709599999998545,
          "durationTicks": 480,
          "midi": 79,
          "name": "G5",
          "ticks": 186240,
          "time": 150.193248,
          "velocity": 0.5905511811023622
        },
        {
          "duration": 0.1370965000000126,
          "durationTicks": 170,
          "midi": 75,
          "name": "D#5",
          "ticks": 186720,
          "time": 150.580344,
          "velocity": 0.5905511811023622
        },
        {
          "duration": 0.19354799999999273,
          "durationTicks": 240,
          "midi": 79,
          "name": "G5",
          "ticks": 187680,
          "time": 151.354536,
          "velocity": 0.5905511811023622
        },
        {
          "duration": 0.19354800000002115,
          "durationTicks": 240,
          "midi": 75,
          "name": "D#5",
          "ticks": 187920,
          "time": 151.548084,
          "velocity": 0.5905511811023622
        },
        {
          "duration": 0.38709599999998545,
          "durationTicks": 480,
          "midi": 80,
          "name": "G#5",
          "ticks": 188160,
          "time": 151.741632,
          "velocity": 0.5905511811023622
        },
        {
          "duration": 0.1370965000000126,
          "durationTicks": 170,
          "midi": 79,
          "name": "G5",
          "ticks": 188640,
          "time": 152.128728,
          "velocity": 0.5905511811023622
        },
        {
          "duration": 0.19354799999999273,
          "durationTicks": 240,
          "midi": 80,
          "name": "G#5",
          "ticks": 189600,
          "time": 152.90292,
          "velocity": 0.5905511811023622
        },
        {
          "duration": 0.19354800000002115,
          "durationTicks": 240,
          "midi": 77,
          "name": "F5",
          "ticks": 189840,
          "time": 153.096468,
          "velocity": 0.5905511811023622
        },
        {
          "duration": 0.38709599999998545,
          "durationTicks": 480,
          "midi": 79,
          "name": "G5",
          "ticks": 190080,
          "time": 153.290016,
          "velocity": 0.5905511811023622
        },
        {
          "duration": 0.3225799999999879,
          "durationTicks": 400,
          "midi": 75,
          "name": "D#5",
          "ticks": 190560,
          "time": 153.677112,
          "velocity": 0.5905511811023622
        },
        {
          "duration": 0.38709599999998545,
          "durationTicks": 480,
          "midi": 72,
          "name": "C5",
          "ticks": 191040,
          "time": 154.064208,
          "velocity": 0.5905511811023622
        },
        {
          "duration": 0.3225799999999879,
          "durationTicks": 400,
          "midi": 80,
          "name": "G#5",
          "ticks": 191520,
          "time": 154.451304,
          "velocity": 0.5905511811023622
        },
        {
          "duration": 0.7741919999999993,
          "durationTicks": 960,
          "midi": 79,
          "name": "G5",
          "ticks": 192000,
          "time": 154.8384,
          "velocity": 0.5905511811023622
        },
        {
          "duration": 0.23387049999999476,
          "durationTicks": 290,
          "midi": 77,
          "name": "F5",
          "ticks": 192960,
          "time": 155.612592,
          "velocity": 0.5905511811023622
        },
        {
          "duration": 0.19354799999999273,
          "durationTicks": 240,
          "midi": 79,
          "name": "G5",
          "ticks": 193440,
          "time": 155.999688,
          "velocity": 0.5905511811023622
        },
        {
          "duration": 0.19354800000002115,
          "durationTicks": 240,
          "midi": 80,
          "name": "G#5",
          "ticks": 193680,
          "time": 156.19323599999998,
          "velocity": 0.5905511811023622
        },
        {
          "duration": 0.1370965000000126,
          "durationTicks": 170,
          "midi": 82,
          "name": "A#5",
          "ticks": 193920,
          "time": 156.386784,
          "velocity": 0.5905511811023622
        },
        {
          "duration": 0.06129020000003038,
          "durationTicks": 76,
          "midi": 82,
          "name": "A#5",
          "ticks": 194400,
          "time": 156.77388,
          "velocity": 0.7086614173228346
        },
        {
          "duration": 0.06129019999997354,
          "durationTicks": 76,
          "midi": 83,
          "name": "B5",
          "ticks": 194480,
          "time": 156.83839600000002,
          "velocity": 0.7086614173228346
        },
        {
          "duration": 0.06129020000000196,
          "durationTicks": 76,
          "midi": 82,
          "name": "A#5",
          "ticks": 194560,
          "time": 156.902912,
          "velocity": 0.7086614173228346
        },
        {
          "duration": 0.06129020000000196,
          "durationTicks": 76,
          "midi": 83,
          "name": "B5",
          "ticks": 194640,
          "time": 156.967428,
          "velocity": 0.7086614173228346
        },
        {
          "duration": 0.06129019999997354,
          "durationTicks": 76,
          "midi": 82,
          "name": "A#5",
          "ticks": 194720,
          "time": 157.031944,
          "velocity": 0.7086614173228346
        },
        {
          "duration": 0.06129020000003038,
          "durationTicks": 76,
          "midi": 83,
          "name": "B5",
          "ticks": 194800,
          "time": 157.09645999999998,
          "velocity": 0.7086614173228346
        },
        {
          "duration": 0.1370965000000126,
          "durationTicks": 170,
          "midi": 84,
          "name": "C6",
          "ticks": 194880,
          "time": 157.160976,
          "velocity": 0.5905511811023622
        },
        {
          "duration": 0.3870960000000139,
          "durationTicks": 480,
          "midi": 82,
          "name": "A#5",
          "ticks": 195360,
          "time": 157.548072,
          "velocity": 0.5905511811023622
        },
        {
          "duration": 0.3225799999999879,
          "durationTicks": 400,
          "midi": 80,
          "name": "G#5",
          "ticks": 195840,
          "time": 157.935168,
          "velocity": 0.5905511811023622
        },
        {
          "duration": 0.3870960000000139,
          "durationTicks": 480,
          "midi": 81,
          "name": "A5",
          "ticks": 196320,
          "time": 158.322264,
          "velocity": 0.5905511811023622
        },
        {
          "duration": 0.3225799999999879,
          "durationTicks": 400,
          "midi": 82,
          "name": "A#5",
          "ticks": 196800,
          "time": 158.70936,
          "velocity": 0.5905511811023622
        },
        {
          "duration": 0.3870960000000139,
          "durationTicks": 480,
          "midi": 80,
          "name": "G#5",
          "ticks": 197280,
          "time": 159.096456,
          "velocity": 0.5905511811023622
        },
        {
          "duration": 0.1370965000000126,
          "durationTicks": 170,
          "midi": 79,
          "name": "G5",
          "ticks": 197760,
          "time": 159.483552,
          "velocity": 0.5905511811023622
        },
        {
          "duration": 0.19354799999999273,
          "durationTicks": 240,
          "midi": 82,
          "name": "A#5",
          "ticks": 198000,
          "time": 159.6771,
          "velocity": 0.5905511811023622
        },
        {
          "duration": 0.19354800000002115,
          "durationTicks": 240,
          "midi": 80,
          "name": "G#5",
          "ticks": 198240,
          "time": 159.870648,
          "velocity": 0.5905511811023622
        },
        {
          "duration": 0.19354799999999273,
          "durationTicks": 240,
          "midi": 79,
          "name": "G5",
          "ticks": 198480,
          "time": 160.064196,
          "velocity": 0.5905511811023622
        },
        {
          "duration": 0.19354799999999273,
          "durationTicks": 240,
          "midi": 77,
          "name": "F5",
          "ticks": 198720,
          "time": 160.257744,
          "velocity": 0.5905511811023622
        },
        {
          "duration": 0.19354799999999273,
          "durationTicks": 240,
          "midi": 75,
          "name": "D#5",
          "ticks": 198960,
          "time": 160.451292,
          "velocity": 0.5905511811023622
        },
        {
          "duration": 0.19354800000002115,
          "durationTicks": 240,
          "midi": 77,
          "name": "F5",
          "ticks": 199200,
          "time": 160.64484,
          "velocity": 0.5905511811023622
        },
        {
          "duration": 0.19354799999999273,
          "durationTicks": 240,
          "midi": 79,
          "name": "G5",
          "ticks": 199440,
          "time": 160.838388,
          "velocity": 0.5905511811023622
        },
        {
          "duration": 0.6129019999999912,
          "durationTicks": 760,
          "midi": 75,
          "name": "D#5",
          "ticks": 199680,
          "time": 161.031936,
          "velocity": 0.5905511811023622
        },
        {
          "duration": 0.23387050000002318,
          "durationTicks": 290,
          "midi": 79,
          "name": "G5",
          "ticks": 201120,
          "time": 162.193224,
          "velocity": 0.5905511811023622
        },
        {
          "duration": 0.38709599999998545,
          "durationTicks": 480,
          "midi": 79,
          "name": "G5",
          "ticks": 201600,
          "time": 162.58032,
          "velocity": 0.5905511811023622
        },
        {
          "duration": 0.1370965000000126,
          "durationTicks": 170,
          "midi": 74,
          "name": "D5",
          "ticks": 202080,
          "time": 162.967416,
          "velocity": 0.5905511811023622
        },
        {
          "duration": 0.19354800000002115,
          "durationTicks": 240,
          "midi": 79,
          "name": "G5",
          "ticks": 203040,
          "time": 163.74160799999999,
          "velocity": 0.5905511811023622
        },
        {
          "duration": 0.19354799999999273,
          "durationTicks": 240,
          "midi": 74,
          "name": "D5",
          "ticks": 203280,
          "time": 163.935156,
          "velocity": 0.5905511811023622
        },
        {
          "duration": 0.38709599999998545,
          "durationTicks": 480,
          "midi": 77,
          "name": "F5",
          "ticks": 203520,
          "time": 164.128704,
          "velocity": 0.5905511811023622
        },
        {
          "duration": 0.1370965000000126,
          "durationTicks": 170,
          "midi": 75,
          "name": "D#5",
          "ticks": 204000,
          "time": 164.51579999999998,
          "velocity": 0.5905511811023622
        },
        {
          "duration": 0.19354799999999273,
          "durationTicks": 240,
          "midi": 78,
          "name": "F#5",
          "ticks": 204960,
          "time": 165.289992,
          "velocity": 0.5905511811023622
        },
        {
          "duration": 0.1572577499999852,
          "durationTicks": 195,
          "midi": 77,
          "name": "F5",
          "ticks": 205200,
          "time": 165.48354,
          "velocity": 0.5905511811023622
        },
        {
          "duration": 0.3870960000000139,
          "durationTicks": 480,
          "midi": 77,
          "name": "F5",
          "ticks": 205440,
          "time": 165.677088,
          "velocity": 0.5905511811023622
        },
        {
          "duration": 0.1370964999999842,
          "durationTicks": 170,
          "midi": 72,
          "name": "C5",
          "ticks": 205920,
          "time": 166.064184,
          "velocity": 0.5905511811023622
        },
        {
          "duration": 0.19354799999999273,
          "durationTicks": 240,
          "midi": 77,
          "name": "F5",
          "ticks": 206880,
          "time": 166.838376,
          "velocity": 0.5905511811023622
        },
        {
          "duration": 0.19354799999999273,
          "durationTicks": 240,
          "midi": 72,
          "name": "C5",
          "ticks": 207120,
          "time": 167.031924,
          "velocity": 0.5905511811023622
        },
        {
          "duration": 0.3870960000000139,
          "durationTicks": 480,
          "midi": 75,
          "name": "D#5",
          "ticks": 207360,
          "time": 167.225472,
          "velocity": 0.5905511811023622
        },
        {
          "duration": 0.1370964999999842,
          "durationTicks": 170,
          "midi": 74,
          "name": "D5",
          "ticks": 207840,
          "time": 167.612568,
          "velocity": 0.5905511811023622
        },
        {
          "duration": 0.19354799999999273,
          "durationTicks": 240,
          "midi": 79,
          "name": "G5",
          "ticks": 208800,
          "time": 168.38676,
          "velocity": 0.5905511811023622
        },
        {
          "duration": 0.19354799999999273,
          "durationTicks": 240,
          "midi": 80,
          "name": "G#5",
          "ticks": 209040,
          "time": 168.580308,
          "velocity": 0.5905511811023622
        },
        {
          "duration": 0.1370965000000126,
          "durationTicks": 170,
          "midi": 82,
          "name": "A#5",
          "ticks": 209280,
          "time": 168.773856,
          "velocity": 0.5905511811023622
        },
        {
          "duration": 0.06129020000000196,
          "durationTicks": 76,
          "midi": 82,
          "name": "A#5",
          "ticks": 209760,
          "time": 169.160952,
          "velocity": 0.7086614173228346
        },
        {
          "duration": 0.06129019999997354,
          "durationTicks": 76,
          "midi": 83,
          "name": "B5",
          "ticks": 209840,
          "time": 169.225468,
          "velocity": 0.7086614173228346
        },
        {
          "duration": 0.06129020000000196,
          "durationTicks": 76,
          "midi": 82,
          "name": "A#5",
          "ticks": 209920,
          "time": 169.289984,
          "velocity": 0.7086614173228346
        },
        {
          "duration": 0.06129020000000196,
          "durationTicks": 76,
          "midi": 83,
          "name": "B5",
          "ticks": 210000,
          "time": 169.3545,
          "velocity": 0.7086614173228346
        },
        {
          "duration": 0.06129020000000196,
          "durationTicks": 76,
          "midi": 82,
          "name": "A#5",
          "ticks": 210080,
          "time": 169.419016,
          "velocity": 0.7086614173228346
        },
        {
          "duration": 0.06129020000000196,
          "durationTicks": 76,
          "midi": 83,
          "name": "B5",
          "ticks": 210160,
          "time": 169.483532,
          "velocity": 0.7086614173228346
        },
        {
          "duration": 0.1370965000000126,
          "durationTicks": 170,
          "midi": 84,
          "name": "C6",
          "ticks": 210240,
          "time": 169.548048,
          "velocity": 0.5905511811023622
        },
        {
          "duration": 0.38709599999998545,
          "durationTicks": 480,
          "midi": 82,
          "name": "A#5",
          "ticks": 210720,
          "time": 169.935144,
          "velocity": 0.5905511811023622
        },
        {
          "duration": 0.3225799999999879,
          "durationTicks": 400,
          "midi": 80,
          "name": "G#5",
          "ticks": 211200,
          "time": 170.32224,
          "velocity": 0.5905511811023622
        },
        {
          "duration": 0.38709599999998545,
          "durationTicks": 480,
          "midi": 81,
          "name": "A5",
          "ticks": 211680,
          "time": 170.709336,
          "velocity": 0.5905511811023622
        },
        {
          "duration": 0.3225799999999879,
          "durationTicks": 400,
          "midi": 82,
          "name": "A#5",
          "ticks": 212160,
          "time": 171.096432,
          "velocity": 0.5905511811023622
        },
        {
          "duration": 0.38709599999998545,
          "durationTicks": 480,
          "midi": 80,
          "name": "G#5",
          "ticks": 212640,
          "time": 171.483528,
          "velocity": 0.5905511811023622
        },
        {
          "duration": 0.1370965000000126,
          "durationTicks": 170,
          "midi": 79,
          "name": "G5",
          "ticks": 213120,
          "time": 171.870624,
          "velocity": 0.5905511811023622
        },
        {
          "duration": 0.19354800000002115,
          "durationTicks": 240,
          "midi": 82,
          "name": "A#5",
          "ticks": 213360,
          "time": 172.06417199999999,
          "velocity": 0.5905511811023622
        },
        {
          "duration": 0.19354799999999273,
          "durationTicks": 240,
          "midi": 80,
          "name": "G#5",
          "ticks": 213600,
          "time": 172.25772,
          "velocity": 0.5905511811023622
        },
        {
          "duration": 0.1370965000000126,
          "durationTicks": 170,
          "midi": 79,
          "name": "G5",
          "ticks": 213840,
          "time": 172.451268,
          "velocity": 0.5905511811023622
        },
        {
          "duration": 0.19354799999999273,
          "durationTicks": 240,
          "midi": 77,
          "name": "F5",
          "ticks": 214080,
          "time": 172.644816,
          "velocity": 0.5905511811023622
        },
        {
          "duration": 0.09354820000001496,
          "durationTicks": 116,
          "midi": 79,
          "name": "G5",
          "ticks": 214080,
          "time": 172.644816,
          "velocity": 0.5905511811023622
        },
        {
          "duration": 0.19032220000002553,
          "durationTicks": 236,
          "midi": 75,
          "name": "D#5",
          "ticks": 214320,
          "time": 172.83836399999998,
          "velocity": 0.5905511811023622
        },
        {
          "duration": 0.19354799999999273,
          "durationTicks": 240,
          "midi": 77,
          "name": "F5",
          "ticks": 214560,
          "time": 173.031912,
          "velocity": 0.5905511811023622
        },
        {
          "duration": 0.19354799999999273,
          "durationTicks": 240,
          "midi": 79,
          "name": "G5",
          "ticks": 214800,
          "time": 173.22546,
          "velocity": 0.5905511811023622
        },
        {
          "duration": 0.6129019999999912,
          "durationTicks": 760,
          "midi": 75,
          "name": "D#5",
          "ticks": 215040,
          "time": 173.419008,
          "velocity": 0.5905511811023622
        },
        {
          "duration": 0.23387050000002318,
          "durationTicks": 290,
          "midi": 70,
          "name": "A#4",
          "ticks": 231840,
          "time": 186.967368,
          "velocity": 0.5905511811023622
        },
        {
          "duration": 0.19354799999999273,
          "durationTicks": 240,
          "midi": 79,
          "name": "G5",
          "ticks": 232320,
          "time": 187.354464,
          "velocity": 0.5905511811023622
        },
        {
          "duration": 0.19354799999999273,
          "durationTicks": 240,
          "midi": 80,
          "name": "G#5",
          "ticks": 232560,
          "time": 187.548012,
          "velocity": 0.5905511811023622
        },
        {
          "duration": 0.19354799999999273,
          "durationTicks": 240,
          "midi": 81,
          "name": "A5",
          "ticks": 232800,
          "time": 187.74156,
          "velocity": 0.5905511811023622
        },
        {
          "duration": 0.19354800000002115,
          "durationTicks": 240,
          "midi": 82,
          "name": "A#5",
          "ticks": 233040,
          "time": 187.93510799999999,
          "velocity": 0.5905511811023622
        },
        {
          "duration": 0.19354799999999273,
          "durationTicks": 240,
          "midi": 80,
          "name": "G#5",
          "ticks": 233280,
          "time": 188.128656,
          "velocity": 0.5905511811023622
        },
        {
          "duration": 0.19354799999999273,
          "durationTicks": 240,
          "midi": 79,
          "name": "G5",
          "ticks": 233520,
          "time": 188.322204,
          "velocity": 0.5905511811023622
        },
        {
          "duration": 0.19354799999999273,
          "durationTicks": 240,
          "midi": 77,
          "name": "F5",
          "ticks": 233760,
          "time": 188.515752,
          "velocity": 0.5905511811023622
        },
        {
          "duration": 0.19354800000002115,
          "durationTicks": 240,
          "midi": 75,
          "name": "D#5",
          "ticks": 234000,
          "time": 188.70929999999998,
          "velocity": 0.5905511811023622
        },
        {
          "duration": 0.19354799999999273,
          "durationTicks": 240,
          "midi": 74,
          "name": "D5",
          "ticks": 234240,
          "time": 188.902848,
          "velocity": 0.5905511811023622
        },
        {
          "duration": 0.19354799999999273,
          "durationTicks": 240,
          "midi": 75,
          "name": "D#5",
          "ticks": 234480,
          "time": 189.096396,
          "velocity": 0.5905511811023622
        },
        {
          "duration": 0.19354799999999273,
          "durationTicks": 240,
          "midi": 76,
          "name": "E5",
          "ticks": 234720,
          "time": 189.289944,
          "velocity": 0.5905511811023622
        },
        {
          "duration": 0.19354800000002115,
          "durationTicks": 240,
          "midi": 77,
          "name": "F5",
          "ticks": 234960,
          "time": 189.48349199999998,
          "velocity": 0.5905511811023622
        },
        {
          "duration": 0.19354799999999273,
          "durationTicks": 240,
          "midi": 75,
          "name": "D#5",
          "ticks": 235200,
          "time": 189.67704,
          "velocity": 0.5905511811023622
        },
        {
          "duration": 0.19354799999999273,
          "durationTicks": 240,
          "midi": 74,
          "name": "D5",
          "ticks": 235440,
          "time": 189.870588,
          "velocity": 0.5905511811023622
        },
        {
          "duration": 0.19354800000002115,
          "durationTicks": 240,
          "midi": 72,
          "name": "C5",
          "ticks": 235680,
          "time": 190.064136,
          "velocity": 0.5905511811023622
        },
        {
          "duration": 0.1572577499999852,
          "durationTicks": 195,
          "midi": 70,
          "name": "A#4",
          "ticks": 235920,
          "time": 190.257684,
          "velocity": 0.5905511811023622
        },
        {
          "duration": 0.19354799999999273,
          "durationTicks": 240,
          "midi": 75,
          "name": "D#5",
          "ticks": 236160,
          "time": 190.451232,
          "velocity": 0.5905511811023622
        },
        {
          "duration": 0.1370965000000126,
          "durationTicks": 170,
          "midi": 74,
          "name": "D5",
          "ticks": 236400,
          "time": 190.64478,
          "velocity": 0.5905511811023622
        },
        {
          "duration": 0.19354800000002115,
          "durationTicks": 240,
          "midi": 77,
          "name": "F5",
          "ticks": 236640,
          "time": 190.838328,
          "velocity": 0.5905511811023622
        },
        {
          "duration": 0.1370964999999842,
          "durationTicks": 170,
          "midi": 75,
          "name": "D#5",
          "ticks": 236880,
          "time": 191.031876,
          "velocity": 0.5905511811023622
        },
        {
          "duration": 0.19354799999999273,
          "durationTicks": 240,
          "midi": 74,
          "name": "D5",
          "ticks": 237120,
          "time": 191.225424,
          "velocity": 0.5905511811023622
        },
        {
          "duration": 0.1370965000000126,
          "durationTicks": 170,
          "midi": 72,
          "name": "C5",
          "ticks": 237360,
          "time": 191.418972,
          "velocity": 0.5905511811023622
        },
        {
          "duration": 0.19354800000002115,
          "durationTicks": 240,
          "midi": 82,
          "name": "A#5",
          "ticks": 237600,
          "time": 191.61252,
          "velocity": 0.5905511811023622
        },
        {
          "duration": 0.1370964999999842,
          "durationTicks": 170,
          "midi": 80,
          "name": "G#5",
          "ticks": 237840,
          "time": 191.806068,
          "velocity": 0.5905511811023622
        },
        {
          "duration": 0.19354799999999273,
          "durationTicks": 240,
          "midi": 79,
          "name": "G5",
          "ticks": 238080,
          "time": 191.999616,
          "velocity": 0.5905511811023622
        },
        {
          "duration": 0.19354799999999273,
          "durationTicks": 240,
          "midi": 80,
          "name": "G#5",
          "ticks": 238320,
          "time": 192.193164,
          "velocity": 0.5905511811023622
        },
        {
          "duration": 0.19354800000002115,
          "durationTicks": 240,
          "midi": 81,
          "name": "A5",
          "ticks": 238560,
          "time": 192.386712,
          "velocity": 0.5905511811023622
        },
        {
          "duration": 0.1572577499999852,
          "durationTicks": 195,
          "midi": 82,
          "name": "A#5",
          "ticks": 238800,
          "time": 192.58026,
          "velocity": 0.5905511811023622
        },
        {
          "duration": 0.12903199999999515,
          "durationTicks": 160,
          "midi": 77,
          "name": "F5",
          "ticks": 239040,
          "time": 192.773808,
          "velocity": 0.5905511811023622
        },
        {
          "duration": 0.19354799999999273,
          "durationTicks": 240,
          "midi": 79,
          "name": "G5",
          "ticks": 247200,
          "time": 199.35444,
          "velocity": 0.5905511811023622
        },
        {
          "duration": 0.19354799999999273,
          "durationTicks": 240,
          "midi": 78,
          "name": "F#5",
          "ticks": 247440,
          "time": 199.547988,
          "velocity": 0.5905511811023622
        },
        {
          "duration": 0.19354799999999273,
          "durationTicks": 240,
          "midi": 79,
          "name": "G5",
          "ticks": 247680,
          "time": 199.741536,
          "velocity": 0.5905511811023622
        },
        {
          "duration": 0.19354800000002115,
          "durationTicks": 240,
          "midi": 78,
          "name": "F#5",
          "ticks": 247920,
          "time": 199.935084,
          "velocity": 0.5905511811023622
        },
        {
          "duration": 0.19354799999999273,
          "durationTicks": 240,
          "midi": 79,
          "name": "G5",
          "ticks": 248160,
          "time": 200.128632,
          "velocity": 0.5905511811023622
        },
        {
          "duration": 0.19354799999999273,
          "durationTicks": 240,
          "midi": 78,
          "name": "F#5",
          "ticks": 248400,
          "time": 200.32218,
          "velocity": 0.5905511811023622
        },
        {
          "duration": 0.19354799999999273,
          "durationTicks": 240,
          "midi": 79,
          "name": "G5",
          "ticks": 248640,
          "time": 200.515728,
          "velocity": 0.5905511811023622
        },
        {
          "duration": 0.19354800000002115,
          "durationTicks": 240,
          "midi": 77,
          "name": "F5",
          "ticks": 248880,
          "time": 200.709276,
          "velocity": 0.5905511811023622
        },
        {
          "duration": 0.19354799999999273,
          "durationTicks": 240,
          "midi": 75,
          "name": "D#5",
          "ticks": 249120,
          "time": 200.902824,
          "velocity": 0.5905511811023622
        },
        {
          "duration": 0.19354799999999273,
          "durationTicks": 240,
          "midi": 74,
          "name": "D5",
          "ticks": 249360,
          "time": 201.096372,
          "velocity": 0.5905511811023622
        },
        {
          "duration": 0.19354799999999273,
          "durationTicks": 240,
          "midi": 75,
          "name": "D#5",
          "ticks": 249600,
          "time": 201.28992,
          "velocity": 0.5905511811023622
        },
        {
          "duration": 0.19354800000002115,
          "durationTicks": 240,
          "midi": 77,
          "name": "F5",
          "ticks": 249840,
          "time": 201.483468,
          "velocity": 0.5905511811023622
        },
        {
          "duration": 0.19354799999999273,
          "durationTicks": 240,
          "midi": 74,
          "name": "D5",
          "ticks": 250080,
          "time": 201.677016,
          "velocity": 0.5905511811023622
        },
        {
          "duration": 0.19354799999999273,
          "durationTicks": 240,
          "midi": 75,
          "name": "D#5",
          "ticks": 250320,
          "time": 201.870564,
          "velocity": 0.5905511811023622
        },
        {
          "duration": 0.15725775000001363,
          "durationTicks": 195,
          "midi": 72,
          "name": "C5",
          "ticks": 250560,
          "time": 202.064112,
          "velocity": 0.5905511811023622
        },
        {
          "duration": 0.1903221999999971,
          "durationTicks": 236,
          "midi": 77,
          "name": "F5",
          "ticks": 251040,
          "time": 202.451208,
          "velocity": 0.5905511811023622
        },
        {
          "duration": 0.1370964999999842,
          "durationTicks": 170,
          "midi": 76,
          "name": "E5",
          "ticks": 251280,
          "time": 202.644756,
          "velocity": 0.5905511811023622
        },
        {
          "duration": 0.19354799999999273,
          "durationTicks": 240,
          "midi": 77,
          "name": "F5",
          "ticks": 251520,
          "time": 202.838304,
          "velocity": 0.5905511811023622
        },
        {
          "duration": 0.1370964999999842,
          "durationTicks": 170,
          "midi": 76,
          "name": "E5",
          "ticks": 251760,
          "time": 203.031852,
          "velocity": 0.5905511811023622
        },
        {
          "duration": 0.19354799999999273,
          "durationTicks": 240,
          "midi": 77,
          "name": "F5",
          "ticks": 252000,
          "time": 203.2254,
          "velocity": 0.5905511811023622
        },
        {
          "duration": 0.1370964999999842,
          "durationTicks": 170,
          "midi": 76,
          "name": "E5",
          "ticks": 252240,
          "time": 203.418948,
          "velocity": 0.5905511811023622
        },
        {
          "duration": 0.19354799999999273,
          "durationTicks": 240,
          "midi": 77,
          "name": "F5",
          "ticks": 252480,
          "time": 203.612496,
          "velocity": 0.5905511811023622
        },
        {
          "duration": 0.1370964999999842,
          "durationTicks": 170,
          "midi": 75,
          "name": "D#5",
          "ticks": 252720,
          "time": 203.80604399999999,
          "velocity": 0.5905511811023622
        },
        {
          "duration": 0.19354799999999273,
          "durationTicks": 240,
          "midi": 74,
          "name": "D5",
          "ticks": 252960,
          "time": 203.999592,
          "velocity": 0.5905511811023622
        },
        {
          "duration": 0.1370964999999842,
          "durationTicks": 170,
          "midi": 72,
          "name": "C5",
          "ticks": 253200,
          "time": 204.19314,
          "velocity": 0.5905511811023622
        },
        {
          "duration": 0.19354799999999273,
          "durationTicks": 240,
          "midi": 74,
          "name": "D5",
          "ticks": 253440,
          "time": 204.386688,
          "velocity": 0.5905511811023622
        },
        {
          "duration": 0.19354800000002115,
          "durationTicks": 240,
          "midi": 75,
          "name": "D#5",
          "ticks": 253680,
          "time": 204.58023599999999,
          "velocity": 0.5905511811023622
        },
        {
          "duration": 0.19354799999999273,
          "durationTicks": 240,
          "midi": 72,
          "name": "C5",
          "ticks": 253920,
          "time": 204.773784,
          "velocity": 0.5905511811023622
        },
        {
          "duration": 0.1370964999999842,
          "durationTicks": 170,
          "midi": 74,
          "name": "D5",
          "ticks": 254160,
          "time": 204.967332,
          "velocity": 0.5905511811023622
        },
        {
          "duration": 0.1370964999999842,
          "durationTicks": 170,
          "midi": 70,
          "name": "A#4",
          "ticks": 254400,
          "time": 205.16088,
          "velocity": 0.5905511811023622
        },
        {
          "duration": 0.3225800000000163,
          "durationTicks": 400,
          "midi": 70,
          "name": "A#4",
          "ticks": 277920,
          "time": 224.128584,
          "velocity": 0.5905511811023622
        },
        {
          "duration": 0.19354799999999273,
          "durationTicks": 240,
          "midi": 63,
          "name": "D#4",
          "ticks": 278400,
          "time": 224.51568,
          "velocity": 0.5905511811023622
        },
        {
          "duration": 0.09677400000001057,
          "durationTicks": 120,
          "midi": 65,
          "name": "F4",
          "ticks": 278640,
          "time": 224.709228,
          "velocity": 0.5905511811023622
        },
        {
          "duration": 0.09677399999998215,
          "durationTicks": 120,
          "midi": 67,
          "name": "G4",
          "ticks": 278760,
          "time": 224.806002,
          "velocity": 0.5905511811023622
        },
        {
          "duration": 0.09677400000001057,
          "durationTicks": 120,
          "midi": 68,
          "name": "G#4",
          "ticks": 278880,
          "time": 224.902776,
          "velocity": 0.5905511811023622
        },
        {
          "duration": 0.09677400000001057,
          "durationTicks": 120,
          "midi": 70,
          "name": "A#4",
          "ticks": 279000,
          "time": 224.99955,
          "velocity": 0.5905511811023622
        },
        {
          "duration": 0.09677399999998215,
          "durationTicks": 120,
          "midi": 72,
          "name": "C5",
          "ticks": 279120,
          "time": 225.096324,
          "velocity": 0.5905511811023622
        },
        {
          "duration": 0.09677400000001057,
          "durationTicks": 120,
          "midi": 74,
          "name": "D5",
          "ticks": 279240,
          "time": 225.193098,
          "velocity": 0.5905511811023622
        },
        {
          "duration": 0.09677399999998215,
          "durationTicks": 120,
          "midi": 75,
          "name": "D#5",
          "ticks": 279360,
          "time": 225.289872,
          "velocity": 0.5905511811023622
        },
        {
          "duration": 0.09677400000001057,
          "durationTicks": 120,
          "midi": 77,
          "name": "F5",
          "ticks": 279480,
          "time": 225.38664599999998,
          "velocity": 0.5905511811023622
        },
        {
          "duration": 0.09677400000001057,
          "durationTicks": 120,
          "midi": 79,
          "name": "G5",
          "ticks": 279600,
          "time": 225.48342,
          "velocity": 0.5905511811023622
        },
        {
          "duration": 0.09677399999998215,
          "durationTicks": 120,
          "midi": 80,
          "name": "G#5",
          "ticks": 279720,
          "time": 225.580194,
          "velocity": 0.5905511811023622
        },
        {
          "duration": 0.09677400000001057,
          "durationTicks": 120,
          "midi": 82,
          "name": "A#5",
          "ticks": 279840,
          "time": 225.676968,
          "velocity": 0.5905511811023622
        },
        {
          "duration": 0.09677400000001057,
          "durationTicks": 120,
          "midi": 79,
          "name": "G5",
          "ticks": 279960,
          "time": 225.773742,
          "velocity": 0.5905511811023622
        },
        {
          "duration": 0.09677399999998215,
          "durationTicks": 120,
          "midi": 77,
          "name": "F5",
          "ticks": 280080,
          "time": 225.870516,
          "velocity": 0.5905511811023622
        },
        {
          "duration": 0.09677400000001057,
          "durationTicks": 120,
          "midi": 75,
          "name": "D#5",
          "ticks": 280200,
          "time": 225.96729,
          "velocity": 0.5905511811023622
        },
        {
          "duration": 0.09677399999998215,
          "durationTicks": 120,
          "midi": 74,
          "name": "D5",
          "ticks": 280320,
          "time": 226.064064,
          "velocity": 0.5905511811023622
        },
        {
          "duration": 0.09677400000001057,
          "durationTicks": 120,
          "midi": 75,
          "name": "D#5",
          "ticks": 280440,
          "time": 226.16083799999998,
          "velocity": 0.5905511811023622
        },
        {
          "duration": 0.09677400000001057,
          "durationTicks": 120,
          "midi": 77,
          "name": "F5",
          "ticks": 280560,
          "time": 226.257612,
          "velocity": 0.5905511811023622
        },
        {
          "duration": 0.09677399999998215,
          "durationTicks": 120,
          "midi": 75,
          "name": "D#5",
          "ticks": 280680,
          "time": 226.354386,
          "velocity": 0.5905511811023622
        },
        {
          "duration": 0.09677400000001057,
          "durationTicks": 120,
          "midi": 74,
          "name": "D5",
          "ticks": 280800,
          "time": 226.45116,
          "velocity": 0.5905511811023622
        },
        {
          "duration": 0.09677400000001057,
          "durationTicks": 120,
          "midi": 75,
          "name": "D#5",
          "ticks": 280920,
          "time": 226.547934,
          "velocity": 0.5905511811023622
        },
        {
          "duration": 0.09677399999998215,
          "durationTicks": 120,
          "midi": 72,
          "name": "C5",
          "ticks": 281040,
          "time": 226.644708,
          "velocity": 0.5905511811023622
        },
        {
          "duration": 0.04032250000000204,
          "durationTicks": 50,
          "midi": 74,
          "name": "D5",
          "ticks": 281160,
          "time": 226.741482,
          "velocity": 0.5905511811023622
        },
        {
          "duration": 0.12903200000002357,
          "durationTicks": 160,
          "midi": 70,
          "name": "A#4",
          "ticks": 281280,
          "time": 226.838256,
          "velocity": 0.5905511811023622
        },
        {
          "duration": 0.6258052000000305,
          "durationTicks": 776,
          "midi": 82,
          "name": "A#5",
          "ticks": 285600,
          "time": 230.32211999999998,
          "velocity": 0.5905511811023622
        },
        {
          "duration": 0.09677399999998215,
          "durationTicks": 120,
          "midi": 84,
          "name": "C6",
          "ticks": 286200,
          "time": 230.80599,
          "velocity": 0.5905511811023622
        },
        {
          "duration": 0.09677400000001057,
          "durationTicks": 120,
          "midi": 80,
          "name": "G#5",
          "ticks": 286320,
          "time": 230.902764,
          "velocity": 0.5905511811023622
        },
        {
          "duration": 0.09677399999998215,
          "durationTicks": 120,
          "midi": 79,
          "name": "G5",
          "ticks": 286440,
          "time": 230.999538,
          "velocity": 0.5905511811023622
        },
        {
          "duration": 0.6209665000000086,
          "durationTicks": 770,
          "midi": 80,
          "name": "G#5",
          "ticks": 286560,
          "time": 231.09631199999998,
          "velocity": 0.5905511811023622
        },
        {
          "duration": 0.6258052000000021,
          "durationTicks": 776,
          "midi": 80,
          "name": "G#5",
          "ticks": 287520,
          "time": 231.870504,
          "velocity": 0.5905511811023622
        },
        {
          "duration": 0.09677399999998215,
          "durationTicks": 120,
          "midi": 82,
          "name": "A#5",
          "ticks": 288120,
          "time": 232.354374,
          "velocity": 0.5905511811023622
        },
        {
          "duration": 0.09677400000001057,
          "durationTicks": 120,
          "midi": 79,
          "name": "G5",
          "ticks": 288240,
          "time": 232.451148,
          "velocity": 0.5905511811023622
        },
        {
          "duration": 0.09677400000001057,
          "durationTicks": 120,
          "midi": 77,
          "name": "F5",
          "ticks": 288360,
          "time": 232.547922,
          "velocity": 0.5905511811023622
        },
        {
          "duration": 0.6209664999999802,
          "durationTicks": 770,
          "midi": 79,
          "name": "G5",
          "ticks": 288480,
          "time": 232.644696,
          "velocity": 0.5905511811023622
        },
        {
          "duration": 0.3225800000000163,
          "durationTicks": 400,
          "midi": 79,
          "name": "G5",
          "ticks": 289440,
          "time": 233.418888,
          "velocity": 0.5905511811023622
        },
        {
          "duration": 0.09677400000001057,
          "durationTicks": 120,
          "midi": 77,
          "name": "F5",
          "ticks": 289920,
          "time": 233.805984,
          "velocity": 0.5905511811023622
        },
        {
          "duration": 0.09677399999998215,
          "durationTicks": 120,
          "midi": 80,
          "name": "G#5",
          "ticks": 290040,
          "time": 233.902758,
          "velocity": 0.5905511811023622
        },
        {
          "duration": 0.09677400000001057,
          "durationTicks": 120,
          "midi": 84,
          "name": "C6",
          "ticks": 290160,
          "time": 233.999532,
          "velocity": 0.5905511811023622
        },
        {
          "duration": 0.09677400000001057,
          "durationTicks": 120,
          "midi": 82,
          "name": "A#5",
          "ticks": 290280,
          "time": 234.096306,
          "velocity": 0.5905511811023622
        },
        {
          "duration": 0.09677399999998215,
          "durationTicks": 120,
          "midi": 80,
          "name": "G#5",
          "ticks": 290400,
          "time": 234.19308,
          "velocity": 0.5905511811023622
        },
        {
          "duration": 0.09677400000001057,
          "durationTicks": 120,
          "midi": 79,
          "name": "G5",
          "ticks": 290520,
          "time": 234.289854,
          "velocity": 0.5905511811023622
        },
        {
          "duration": 0.09677399999998215,
          "durationTicks": 120,
          "midi": 77,
          "name": "F5",
          "ticks": 290640,
          "time": 234.386628,
          "velocity": 0.5905511811023622
        },
        {
          "duration": 0.09677400000001057,
          "durationTicks": 120,
          "midi": 75,
          "name": "D#5",
          "ticks": 290760,
          "time": 234.48340199999998,
          "velocity": 0.5905511811023622
        },
        {
          "duration": 0.12903200000002357,
          "durationTicks": 160,
          "midi": 74,
          "name": "D5",
          "ticks": 290880,
          "time": 234.580176,
          "velocity": 0.5905511811023622
        },
        {
          "duration": 0.12903199999999515,
          "durationTicks": 160,
          "midi": 79,
          "name": "G5",
          "ticks": 293280,
          "time": 236.515656,
          "velocity": 0.5905511811023622
        },
        {
          "duration": 0.048386999999991076,
          "durationTicks": 60,
          "midi": 79,
          "name": "G5",
          "ticks": 293640,
          "time": 236.805978,
          "velocity": 0.5905511811023622
        },
        {
          "duration": 1.6419322000000136,
          "durationTicks": 2036,
          "midi": 79,
          "name": "G5",
          "ticks": 293760,
          "time": 236.902752,
          "velocity": 0.5905511811023622
        },
        {
          "duration": 0.1370965000000126,
          "durationTicks": 170,
          "midi": 84,
          "name": "C6",
          "ticks": 295920,
          "time": 238.64468399999998,
          "velocity": 0.5905511811023622
        },
        {
          "duration": 0.09677399999998215,
          "durationTicks": 120,
          "midi": 83,
          "name": "B5",
          "ticks": 296160,
          "time": 238.838232,
          "velocity": 0.5905511811023622
        },
        {
          "duration": 0.09677400000001057,
          "durationTicks": 120,
          "midi": 84,
          "name": "C6",
          "ticks": 296280,
          "time": 238.935006,
          "velocity": 0.5905511811023622
        },
        {
          "duration": 0.09677400000001057,
          "durationTicks": 120,
          "midi": 86,
          "name": "D6",
          "ticks": 296400,
          "time": 239.03178,
          "velocity": 0.5905511811023622
        },
        {
          "duration": 0.09677399999998215,
          "durationTicks": 120,
          "midi": 83,
          "name": "B5",
          "ticks": 296520,
          "time": 239.128554,
          "velocity": 0.5905511811023622
        },
        {
          "duration": 0.1370964999999842,
          "durationTicks": 170,
          "midi": 84,
          "name": "C6",
          "ticks": 296640,
          "time": 239.225328,
          "velocity": 0.5905511811023622
        },
        {
          "duration": 0.12903199999999515,
          "durationTicks": 160,
          "midi": 77,
          "name": "F5",
          "ticks": 297120,
          "time": 239.612424,
          "velocity": 0.5905511811023622
        },
        {
          "duration": 0.048386999999991076,
          "durationTicks": 60,
          "midi": 77,
          "name": "F5",
          "ticks": 297480,
          "time": 239.902746,
          "velocity": 0.5905511811023622
        },
        {
          "duration": 1.6419322000000136,
          "durationTicks": 2036,
          "midi": 77,
          "name": "F5",
          "ticks": 297600,
          "time": 239.99952,
          "velocity": 0.5905511811023622
        },
        {
          "duration": 0.1370964999999842,
          "durationTicks": 170,
          "midi": 82,
          "name": "A#5",
          "ticks": 299760,
          "time": 241.741452,
          "velocity": 0.5905511811023622
        },
        {
          "duration": 0.09677399999998215,
          "durationTicks": 120,
          "midi": 81,
          "name": "A5",
          "ticks": 300000,
          "time": 241.935,
          "velocity": 0.5905511811023622
        },
        {
          "duration": 0.09677400000001057,
          "durationTicks": 120,
          "midi": 82,
          "name": "A#5",
          "ticks": 300120,
          "time": 242.03177399999998,
          "velocity": 0.5905511811023622
        },
        {
          "duration": 0.09677400000001057,
          "durationTicks": 120,
          "midi": 84,
          "name": "C6",
          "ticks": 300240,
          "time": 242.128548,
          "velocity": 0.5905511811023622
        },
        {
          "duration": 0.09677399999998215,
          "durationTicks": 120,
          "midi": 81,
          "name": "A5",
          "ticks": 300360,
          "time": 242.225322,
          "velocity": 0.5905511811023622
        },
        {
          "duration": 0.1370964999999842,
          "durationTicks": 170,
          "midi": 82,
          "name": "A#5",
          "ticks": 300480,
          "time": 242.322096,
          "velocity": 0.5905511811023622
        },
        {
          "duration": 0.6258052000000021,
          "durationTicks": 776,
          "midi": 82,
          "name": "A#5",
          "ticks": 300960,
          "time": 242.709192,
          "velocity": 0.5905511811023622
        },
        {
          "duration": 0.09677400000001057,
          "durationTicks": 120,
          "midi": 84,
          "name": "C6",
          "ticks": 301560,
          "time": 243.193062,
          "velocity": 0.5905511811023622
        },
        {
          "duration": 0.09677399999998215,
          "durationTicks": 120,
          "midi": 80,
          "name": "G#5",
          "ticks": 301680,
          "time": 243.289836,
          "velocity": 0.5905511811023622
        },
        {
          "duration": 0.09677400000001057,
          "durationTicks": 120,
          "midi": 79,
          "name": "G5",
          "ticks": 301800,
          "time": 243.38661,
          "velocity": 0.5905511811023622
        },
        {
          "duration": 0.6209664999999802,
          "durationTicks": 770,
          "midi": 80,
          "name": "G#5",
          "ticks": 301920,
          "time": 243.483384,
          "velocity": 0.5905511811023622
        },
        {
          "duration": 0.6258052000000021,
          "durationTicks": 776,
          "midi": 80,
          "name": "G#5",
          "ticks": 302880,
          "time": 244.257576,
          "velocity": 0.5905511811023622
        },
        {
          "duration": 0.09677400000001057,
          "durationTicks": 120,
          "midi": 82,
          "name": "A#5",
          "ticks": 303480,
          "time": 244.741446,
          "velocity": 0.5905511811023622
        },
        {
          "duration": 0.09677399999998215,
          "durationTicks": 120,
          "midi": 79,
          "name": "G5",
          "ticks": 303600,
          "time": 244.83822,
          "velocity": 0.5905511811023622
        },
        {
          "duration": 0.09677400000001057,
          "durationTicks": 120,
          "midi": 77,
          "name": "F5",
          "ticks": 303720,
          "time": 244.934994,
          "velocity": 0.5905511811023622
        },
        {
          "duration": 0.6209664999999802,
          "durationTicks": 770,
          "midi": 79,
          "name": "G5",
          "ticks": 303840,
          "time": 245.031768,
          "velocity": 0.5905511811023622
        },
        {
          "duration": 0.3225800000000163,
          "durationTicks": 400,
          "midi": 79,
          "name": "G5",
          "ticks": 304800,
          "time": 245.80596,
          "velocity": 0.5905511811023622
        },
        {
          "duration": 0.09677400000001057,
          "durationTicks": 120,
          "midi": 77,
          "name": "F5",
          "ticks": 305280,
          "time": 246.19305599999998,
          "velocity": 0.5905511811023622
        },
        {
          "duration": 0.09677400000001057,
          "durationTicks": 120,
          "midi": 80,
          "name": "G#5",
          "ticks": 305400,
          "time": 246.28983,
          "velocity": 0.5905511811023622
        },
        {
          "duration": 0.09677399999998215,
          "durationTicks": 120,
          "midi": 84,
          "name": "C6",
          "ticks": 305520,
          "time": 246.386604,
          "velocity": 0.5905511811023622
        },
        {
          "duration": 0.09677400000001057,
          "durationTicks": 120,
          "midi": 82,
          "name": "A#5",
          "ticks": 305640,
          "time": 246.483378,
          "velocity": 0.5905511811023622
        },
        {
          "duration": 0.09677400000001057,
          "durationTicks": 120,
          "midi": 80,
          "name": "G#5",
          "ticks": 305760,
          "time": 246.580152,
          "velocity": 0.5905511811023622
        },
        {
          "duration": 0.09677399999998215,
          "durationTicks": 120,
          "midi": 79,
          "name": "G5",
          "ticks": 305880,
          "time": 246.676926,
          "velocity": 0.5905511811023622
        },
        {
          "duration": 0.09677400000001057,
          "durationTicks": 120,
          "midi": 77,
          "name": "F5",
          "ticks": 306000,
          "time": 246.7737,
          "velocity": 0.5905511811023622
        },
        {
          "duration": 0.09677399999998215,
          "durationTicks": 120,
          "midi": 75,
          "name": "D#5",
          "ticks": 306120,
          "time": 246.870474,
          "velocity": 0.5905511811023622
        },
        {
          "duration": 0.12903200000002357,
          "durationTicks": 160,
          "midi": 74,
          "name": "D5",
          "ticks": 306240,
          "time": 246.96724799999998,
          "velocity": 0.5905511811023622
        },
        {
          "duration": 0.12903199999999515,
          "durationTicks": 160,
          "midi": 70,
          "name": "A#4",
          "ticks": 326640,
          "time": 263.418828,
          "velocity": 0.31496062992125984
        },
        {
          "duration": 0.12096750000000611,
          "durationTicks": 150,
          "midi": 80,
          "name": "G#5",
          "ticks": 326880,
          "time": 263.612376,
          "velocity": 0.6299212598425197
        },
        {
          "duration": 0.12096750000000611,
          "durationTicks": 150,
          "midi": 79,
          "name": "G5",
          "ticks": 327120,
          "time": 263.805924,
          "velocity": 0.6299212598425197
        },
        {
          "duration": 0.12096750000000611,
          "durationTicks": 150,
          "midi": 77,
          "name": "F5",
          "ticks": 327360,
          "time": 263.99947199999997,
          "velocity": 0.6299212598425197
        },
        {
          "duration": 0.12096750000000611,
          "durationTicks": 150,
          "midi": 75,
          "name": "D#5",
          "ticks": 327600,
          "time": 264.19302,
          "velocity": 0.6299212598425197
        },
        {
          "duration": 0.12096750000000611,
          "durationTicks": 150,
          "midi": 74,
          "name": "D5",
          "ticks": 327840,
          "time": 264.386568,
          "velocity": 0.6299212598425197
        },
        {
          "duration": 0.12096750000000611,
          "durationTicks": 150,
          "midi": 70,
          "name": "A#4",
          "ticks": 328080,
          "time": 264.580116,
          "velocity": 0.6299212598425197
        },
        {
          "duration": 0.3225800000000163,
          "durationTicks": 400,
          "midi": 75,
          "name": "D#5",
          "ticks": 328320,
          "time": 264.773664,
          "velocity": 0.6299212598425197
        },
        {
          "duration": 0.6209665000000086,
          "durationTicks": 770,
          "midi": 75,
          "name": "D#5",
          "ticks": 328800,
          "time": 265.16076,
          "velocity": 0.6299212598425197
        },
        {
          "duration": 0.3225800000000163,
          "durationTicks": 400,
          "midi": 75,
          "name": "D#5",
          "ticks": 329760,
          "time": 265.934952,
          "velocity": 0.6299212598425197
        },
        {
          "duration": 0.7741920000000277,
          "durationTicks": 960,
          "midi": 75,
          "name": "D#5",
          "ticks": 330240,
          "time": 266.322048,
          "velocity": 0.6299212598425197
        },
        {
          "duration": 0.38709599999998545,
          "durationTicks": 480,
          "midi": 74,
          "name": "D5",
          "ticks": 331200,
          "time": 267.09624,
          "velocity": 0.6299212598425197
        },
        {
          "duration": 0.38709599999998545,
          "durationTicks": 480,
          "midi": 73,
          "name": "C#5",
          "ticks": 331680,
          "time": 267.483336,
          "velocity": 0.5905511811023622
        },
        {
          "duration": 0.12903199999999515,
          "durationTicks": 160,
          "midi": 72,
          "name": "C5",
          "ticks": 332160,
          "time": 267.870432,
          "velocity": 0.5905511811023622
        },
        {
          "duration": 0.38709599999998545,
          "durationTicks": 480,
          "midi": 71,
          "name": "B4",
          "ticks": 333600,
          "time": 269.03172,
          "velocity": 0.5905511811023622
        },
        {
          "duration": 0.12903199999999515,
          "durationTicks": 160,
          "midi": 70,
          "name": "A#4",
          "ticks": 334080,
          "time": 269.418816,
          "velocity": 0.5905511811023622
        },
        {
          "duration": 0.3225800000000163,
          "durationTicks": 400,
          "midi": 75,
          "name": "D#5",
          "ticks": 335520,
          "time": 270.580104,
          "velocity": 0.5905511811023622
        },
        {
          "duration": 0.12903199999999515,
          "durationTicks": 160,
          "midi": 75,
          "name": "D#5",
          "ticks": 336000,
          "time": 270.9672,
          "velocity": 0.5905511811023622
        },
        {
          "duration": 0.129032000000052,
          "durationTicks": 160,
          "midi": 75,
          "name": "D#5",
          "ticks": 336480,
          "time": 271.354296,
          "velocity": 0.5905511811023622
        },
        {
          "duration": 0.12903199999999515,
          "durationTicks": 160,
          "midi": 75,
          "name": "D#5",
          "ticks": 336720,
          "time": 271.547844,
          "velocity": 0.5905511811023622
        },
        {
          "duration": 0.12903199999999515,
          "durationTicks": 160,
          "midi": 74,
          "name": "D5",
          "ticks": 336960,
          "time": 271.741392,
          "velocity": 0.5905511811023622
        },
        {
          "duration": 0.12903199999999515,
          "durationTicks": 160,
          "midi": 74,
          "name": "D5",
          "ticks": 337440,
          "time": 272.128488,
          "velocity": 0.5905511811023622
        },
        {
          "duration": 0.6129020000000196,
          "durationTicks": 760,
          "midi": 75,
          "name": "D#5",
          "ticks": 337920,
          "time": 272.515584,
          "velocity": 0.5905511811023622
        },
        {
          "duration": 0.5806440000000066,
          "durationTicks": 720,
          "midi": 82,
          "name": "A#5",
          "ticks": 347040,
          "time": 279.870408,
          "velocity": 0.6299212598425197
        },
        {
          "duration": 0.1935479999999643,
          "durationTicks": 240,
          "midi": 81,
          "name": "A5",
          "ticks": 347760,
          "time": 280.451052,
          "velocity": 0.6299212598425197
        },
        {
          "duration": 0.19354800000002115,
          "durationTicks": 240,
          "midi": 77,
          "name": "F5",
          "ticks": 348000,
          "time": 280.64459999999997,
          "velocity": 0.6299212598425197
        },
        {
          "duration": 0.19354800000002115,
          "durationTicks": 240,
          "midi": 79,
          "name": "G5",
          "ticks": 348240,
          "time": 280.838148,
          "velocity": 0.6299212598425197
        },
        {
          "duration": 0.967739999999992,
          "durationTicks": 1200,
          "midi": 80,
          "name": "G#5",
          "ticks": 348480,
          "time": 281.031696,
          "velocity": 0.6299212598425197
        },
        {
          "duration": 0.19354800000002115,
          "durationTicks": 240,
          "midi": 79,
          "name": "G5",
          "ticks": 349680,
          "time": 281.999436,
          "velocity": 0.6299212598425197
        },
        {
          "duration": 0.1935479999999643,
          "durationTicks": 240,
          "midi": 75,
          "name": "D#5",
          "ticks": 349920,
          "time": 282.192984,
          "velocity": 0.6299212598425197
        },
        {
          "duration": 0.19354800000002115,
          "durationTicks": 240,
          "midi": 77,
          "name": "F5",
          "ticks": 350160,
          "time": 282.386532,
          "velocity": 0.6299212598425197
        },
        {
          "duration": 0.6129020000000196,
          "durationTicks": 760,
          "midi": 78,
          "name": "F#5",
          "ticks": 350400,
          "time": 282.58008,
          "velocity": 0.6299212598425197
        },
        {
          "duration": 0.129032000000052,
          "durationTicks": 160,
          "midi": 77,
          "name": "F5",
          "ticks": 351360,
          "time": 283.354272,
          "velocity": 0.6299212598425197
        },
        {
          "duration": 0.12903199999999515,
          "durationTicks": 160,
          "midi": 77,
          "name": "F5",
          "ticks": 351840,
          "time": 283.741368,
          "velocity": 0.6299212598425197
        },
        {
          "duration": 0.129032000000052,
          "durationTicks": 160,
          "midi": 77,
          "name": "F5",
          "ticks": 352080,
          "time": 283.934916,
          "velocity": 0.6299212598425197
        },
        {
          "duration": 0.1370964999999842,
          "durationTicks": 170,
          "midi": 82,
          "name": "A#5",
          "ticks": 352320,
          "time": 284.128464,
          "velocity": 0.6299212598425197
        },
        {
          "duration": 0.1370964999999842,
          "durationTicks": 170,
          "midi": 82,
          "name": "A#5",
          "ticks": 352800,
          "time": 284.51556,
          "velocity": 0.6299212598425197
        },
        {
          "duration": 0.6129020000000196,
          "durationTicks": 760,
          "midi": 75,
          "name": "D#5",
          "ticks": 353280,
          "time": 284.902656,
          "velocity": 0.6299212598425197
        },
        {
          "duration": 0.23387050000002318,
          "durationTicks": 290,
          "midi": 70,
          "name": "A#4",
          "ticks": 370080,
          "time": 298.451016,
          "velocity": 0.5905511811023622
        },
        {
          "duration": 0.12096749999994927,
          "durationTicks": 150,
          "midi": 63,
          "name": "D#4",
          "ticks": 370560,
          "time": 298.838112,
          "velocity": 0.5905511811023622
        },
        {
          "duration": 0.12096750000000611,
          "durationTicks": 150,
          "midi": 70,
          "name": "A#4",
          "ticks": 370800,
          "time": 299.03166,
          "velocity": 0.5905511811023622
        },
        {
          "duration": 0.12096750000000611,
          "durationTicks": 150,
          "midi": 67,
          "name": "G4",
          "ticks": 371040,
          "time": 299.225208,
          "velocity": 0.5905511811023622
        },
        {
          "duration": 0.12096750000000611,
          "durationTicks": 150,
          "midi": 75,
          "name": "D#5",
          "ticks": 371280,
          "time": 299.418756,
          "velocity": 0.5905511811023622
        },
        {
          "duration": 0.12096750000000611,
          "durationTicks": 150,
          "midi": 70,
          "name": "A#4",
          "ticks": 371520,
          "time": 299.612304,
          "velocity": 0.5905511811023622
        },
        {
          "duration": 0.12096750000000611,
          "durationTicks": 150,
          "midi": 79,
          "name": "G5",
          "ticks": 371760,
          "time": 299.805852,
          "velocity": 0.5905511811023622
        },
        {
          "duration": 0.12096750000000611,
          "durationTicks": 150,
          "midi": 75,
          "name": "D#5",
          "ticks": 372000,
          "time": 299.9994,
          "velocity": 0.5905511811023622
        },
        {
          "duration": 0.12096750000000611,
          "durationTicks": 150,
          "midi": 63,
          "name": "D#4",
          "ticks": 372240,
          "time": 300.192948,
          "velocity": 0.5905511811023622
        },
        {
          "duration": 0.12096749999994927,
          "durationTicks": 150,
          "midi": 62,
          "name": "D4",
          "ticks": 372480,
          "time": 300.386496,
          "velocity": 0.5905511811023622
        },
        {
          "duration": 0.12096750000000611,
          "durationTicks": 150,
          "midi": 70,
          "name": "A#4",
          "ticks": 372720,
          "time": 300.580044,
          "velocity": 0.5905511811023622
        },
        {
          "duration": 0.12096750000000611,
          "durationTicks": 150,
          "midi": 65,
          "name": "F4",
          "ticks": 372960,
          "time": 300.773592,
          "velocity": 0.5905511811023622
        },
        {
          "duration": 0.12096750000000611,
          "durationTicks": 150,
          "midi": 74,
          "name": "D5",
          "ticks": 373200,
          "time": 300.96714,
          "velocity": 0.5905511811023622
        },
        {
          "duration": 0.12096750000000611,
          "durationTicks": 150,
          "midi": 70,
          "name": "A#4",
          "ticks": 373440,
          "time": 301.160688,
          "velocity": 0.5905511811023622
        },
        {
          "duration": 0.12096750000000611,
          "durationTicks": 150,
          "midi": 80,
          "name": "G#5",
          "ticks": 373680,
          "time": 301.354236,
          "velocity": 0.5905511811023622
        },
        {
          "duration": 0.12096750000000611,
          "durationTicks": 150,
          "midi": 77,
          "name": "F5",
          "ticks": 373920,
          "time": 301.547784,
          "velocity": 0.5905511811023622
        },
        {
          "duration": 0.12096750000000611,
          "durationTicks": 150,
          "midi": 62,
          "name": "D4",
          "ticks": 374160,
          "time": 301.741332,
          "velocity": 0.5905511811023622
        },
        {
          "duration": 0.12096749999994927,
          "durationTicks": 150,
          "midi": 63,
          "name": "D#4",
          "ticks": 374400,
          "time": 301.93488,
          "velocity": 0.5905511811023622
        },
        {
          "duration": 0.12096750000000611,
          "durationTicks": 150,
          "midi": 70,
          "name": "A#4",
          "ticks": 374640,
          "time": 302.128428,
          "velocity": 0.5905511811023622
        },
        {
          "duration": 0.12096750000000611,
          "durationTicks": 150,
          "midi": 67,
          "name": "G4",
          "ticks": 374880,
          "time": 302.321976,
          "velocity": 0.5905511811023622
        },
        {
          "duration": 0.12096750000000611,
          "durationTicks": 150,
          "midi": 75,
          "name": "D#5",
          "ticks": 375120,
          "time": 302.51552399999997,
          "velocity": 0.5905511811023622
        },
        {
          "duration": 0.12096750000000611,
          "durationTicks": 150,
          "midi": 72,
          "name": "C5",
          "ticks": 375360,
          "time": 302.709072,
          "velocity": 0.5905511811023622
        },
        {
          "duration": 0.12096750000000611,
          "durationTicks": 150,
          "midi": 80,
          "name": "G#5",
          "ticks": 375600,
          "time": 302.90262,
          "velocity": 0.5905511811023622
        },
        {
          "duration": 0.12096750000000611,
          "durationTicks": 150,
          "midi": 77,
          "name": "F5",
          "ticks": 375840,
          "time": 303.096168,
          "velocity": 0.5905511811023622
        },
        {
          "duration": 0.12096750000000611,
          "durationTicks": 150,
          "midi": 84,
          "name": "C6",
          "ticks": 376080,
          "time": 303.289716,
          "velocity": 0.5905511811023622
        },
        {
          "duration": 0.12096749999994927,
          "durationTicks": 150,
          "midi": 79,
          "name": "G5",
          "ticks": 376320,
          "time": 303.483264,
          "velocity": 0.5905511811023622
        },
        {
          "duration": 0.12096750000000611,
          "durationTicks": 150,
          "midi": 87,
          "name": "D#6",
          "ticks": 376560,
          "time": 303.676812,
          "velocity": 0.5905511811023622
        },
        {
          "duration": 0.12096750000000611,
          "durationTicks": 150,
          "midi": 82,
          "name": "A#5",
          "ticks": 376800,
          "time": 303.87036,
          "velocity": 0.5905511811023622
        },
        {
          "duration": 0.12096750000000611,
          "durationTicks": 150,
          "midi": 79,
          "name": "G5",
          "ticks": 377040,
          "time": 304.06390799999997,
          "velocity": 0.5905511811023622
        },
        {
          "duration": 0.12903199999999515,
          "durationTicks": 160,
          "midi": 77,
          "name": "F5",
          "ticks": 377280,
          "time": 304.257456,
          "velocity": 0.5905511811023622
        },
        {
          "duration": 0.12096750000000611,
          "durationTicks": 150,
          "midi": 82,
          "name": "A#5",
          "ticks": 378000,
          "time": 304.8381,
          "velocity": 0.5905511811023622
        },
        {
          "duration": 0.12096750000000611,
          "durationTicks": 150,
          "midi": 72,
          "name": "C5",
          "ticks": 378240,
          "time": 305.031648,
          "velocity": 0.5905511811023622
        },
        {
          "duration": 0.12096750000000611,
          "durationTicks": 150,
          "midi": 64,
          "name": "E4",
          "ticks": 378480,
          "time": 305.225196,
          "velocity": 0.5905511811023622
        },
        {
          "duration": 0.12096750000000611,
          "durationTicks": 150,
          "midi": 82,
          "name": "A#5",
          "ticks": 378720,
          "time": 305.418744,
          "velocity": 0.5905511811023622
        },
        {
          "duration": 0.12096749999994927,
          "durationTicks": 150,
          "midi": 79,
          "name": "G5",
          "ticks": 378960,
          "time": 305.612292,
          "velocity": 0.5905511811023622
        },
        {
          "duration": 0.12096750000000611,
          "durationTicks": 150,
          "midi": 80,
          "name": "G#5",
          "ticks": 379200,
          "time": 305.80584,
          "velocity": 0.5905511811023622
        },
        {
          "duration": 0.12096750000000611,
          "durationTicks": 150,
          "midi": 65,
          "name": "F4",
          "ticks": 379440,
          "time": 305.999388,
          "velocity": 0.5905511811023622
        },
        {
          "duration": 0.12096750000000611,
          "durationTicks": 150,
          "midi": 77,
          "name": "F5",
          "ticks": 379680,
          "time": 306.192936,
          "velocity": 0.5905511811023622
        },
        {
          "duration": 0.12096750000000611,
          "durationTicks": 150,
          "midi": 80,
          "name": "G#5",
          "ticks": 379920,
          "time": 306.386484,
          "velocity": 0.5905511811023622
        },
        {
          "duration": 0.12096750000000611,
          "durationTicks": 150,
          "midi": 70,
          "name": "A#4",
          "ticks": 380160,
          "time": 306.580032,
          "velocity": 0.5905511811023622
        },
        {
          "duration": 0.12096750000000611,
          "durationTicks": 150,
          "midi": 62,
          "name": "D4",
          "ticks": 380400,
          "time": 306.77358,
          "velocity": 0.5905511811023622
        },
        {
          "duration": 0.12096750000000611,
          "durationTicks": 150,
          "midi": 80,
          "name": "G#5",
          "ticks": 380640,
          "time": 306.967128,
          "velocity": 0.5905511811023622
        },
        {
          "duration": 0.12096749999994927,
          "durationTicks": 150,
          "midi": 77,
          "name": "F5",
          "ticks": 380880,
          "time": 307.160676,
          "velocity": 0.5905511811023622
        },
        {
          "duration": 0.12096750000000611,
          "durationTicks": 150,
          "midi": 79,
          "name": "G5",
          "ticks": 381120,
          "time": 307.354224,
          "velocity": 0.5905511811023622
        },
        {
          "duration": 0.12096750000000611,
          "durationTicks": 150,
          "midi": 63,
          "name": "D#4",
          "ticks": 381360,
          "time": 307.547772,
          "velocity": 0.5905511811023622
        },
        {
          "duration": 0.12096750000000611,
          "durationTicks": 150,
          "midi": 75,
          "name": "D#5",
          "ticks": 381600,
          "time": 307.74132,
          "velocity": 0.5905511811023622
        },
        {
          "duration": 0.12096750000000611,
          "durationTicks": 150,
          "midi": 79,
          "name": "G5",
          "ticks": 381840,
          "time": 307.934868,
          "velocity": 0.5905511811023622
        },
        {
          "duration": 0.12096750000000611,
          "durationTicks": 150,
          "midi": 77,
          "name": "F5",
          "ticks": 382080,
          "time": 308.128416,
          "velocity": 0.5905511811023622
        },
        {
          "duration": 0.12096750000000611,
          "durationTicks": 150,
          "midi": 72,
          "name": "C5",
          "ticks": 382320,
          "time": 308.321964,
          "velocity": 0.5905511811023622
        },
        {
          "duration": 0.12096750000000611,
          "durationTicks": 150,
          "midi": 80,
          "name": "G#5",
          "ticks": 382560,
          "time": 308.515512,
          "velocity": 0.5905511811023622
        },
        {
          "duration": 0.12096749999994927,
          "durationTicks": 150,
          "midi": 77,
          "name": "F5",
          "ticks": 382800,
          "time": 308.70906,
          "velocity": 0.5905511811023622
        },
        {
          "duration": 0.12096750000000611,
          "durationTicks": 150,
          "midi": 74,
          "name": "D5",
          "ticks": 383040,
          "time": 308.902608,
          "velocity": 0.5905511811023622
        },
        {
          "duration": 0.12096750000000611,
          "durationTicks": 150,
          "midi": 70,
          "name": "A#4",
          "ticks": 383280,
          "time": 309.096156,
          "velocity": 0.5905511811023622
        },
        {
          "duration": 0.12096750000000611,
          "durationTicks": 150,
          "midi": 77,
          "name": "F5",
          "ticks": 383520,
          "time": 309.289704,
          "velocity": 0.5905511811023622
        },
        {
          "duration": 0.12096750000000611,
          "durationTicks": 150,
          "midi": 74,
          "name": "D5",
          "ticks": 383760,
          "time": 309.483252,
          "velocity": 0.5905511811023622
        },
        {
          "duration": 0.12096750000000611,
          "durationTicks": 150,
          "midi": 75,
          "name": "D#5",
          "ticks": 384000,
          "time": 309.6768,
          "velocity": 0.5905511811023622
        },
        {
          "duration": 0.12096750000000611,
          "durationTicks": 150,
          "midi": 70,
          "name": "A#4",
          "ticks": 384240,
          "time": 309.870348,
          "velocity": 0.5905511811023622
        },
        {
          "duration": 0.12096750000000611,
          "durationTicks": 150,
          "midi": 79,
          "name": "G5",
          "ticks": 384480,
          "time": 310.063896,
          "velocity": 0.5905511811023622
        },
        {
          "duration": 0.12096749999994927,
          "durationTicks": 150,
          "midi": 77,
          "name": "F5",
          "ticks": 384720,
          "time": 310.257444,
          "velocity": 0.5905511811023622
        },
        {
          "duration": 0.129032000000052,
          "durationTicks": 160,
          "midi": 75,
          "name": "D#5",
          "ticks": 384960,
          "time": 310.450992,
          "velocity": 0.5905511811023622
        },
        {
          "duration": 0.12096750000000611,
          "durationTicks": 150,
          "midi": 79,
          "name": "G5",
          "ticks": 385680,
          "time": 311.031636,
          "velocity": 0.5905511811023622
        },
        {
          "duration": 0.12096750000000611,
          "durationTicks": 150,
          "midi": 71,
          "name": "B4",
          "ticks": 385920,
          "time": 311.225184,
          "velocity": 0.5905511811023622
        },
        {
          "duration": 0.12096750000000611,
          "durationTicks": 150,
          "midi": 79,
          "name": "G5",
          "ticks": 386160,
          "time": 311.418732,
          "velocity": 0.5905511811023622
        },
        {
          "duration": 0.12096750000000611,
          "durationTicks": 150,
          "midi": 74,
          "name": "D5",
          "ticks": 386400,
          "time": 311.61228,
          "velocity": 0.5905511811023622
        },
        {
          "duration": 0.12096749999994927,
          "durationTicks": 150,
          "midi": 81,
          "name": "A5",
          "ticks": 386640,
          "time": 311.805828,
          "velocity": 0.5905511811023622
        },
        {
          "duration": 0.12096750000000611,
          "durationTicks": 150,
          "midi": 71,
          "name": "B4",
          "ticks": 386880,
          "time": 311.999376,
          "velocity": 0.5905511811023622
        },
        {
          "duration": 0.12096750000000611,
          "durationTicks": 150,
          "midi": 79,
          "name": "G5",
          "ticks": 387120,
          "time": 312.192924,
          "velocity": 0.5905511811023622
        },
        {
          "duration": 0.12096750000000611,
          "durationTicks": 150,
          "midi": 74,
          "name": "D5",
          "ticks": 387360,
          "time": 312.38647199999997,
          "velocity": 0.5905511811023622
        },
        {
          "duration": 0.12096750000000611,
          "durationTicks": 150,
          "midi": 81,
          "name": "A5",
          "ticks": 387600,
          "time": 312.58002,
          "velocity": 0.5905511811023622
        },
        {
          "duration": 0.12096750000000611,
          "durationTicks": 150,
          "midi": 72,
          "name": "C5",
          "ticks": 387840,
          "time": 312.773568,
          "velocity": 0.5905511811023622
        },
        {
          "duration": 0.12096750000000611,
          "durationTicks": 150,
          "midi": 79,
          "name": "G5",
          "ticks": 388080,
          "time": 312.967116,
          "velocity": 0.5905511811023622
        },
        {
          "duration": 0.12096750000000611,
          "durationTicks": 150,
          "midi": 75,
          "name": "D#5",
          "ticks": 388320,
          "time": 313.160664,
          "velocity": 0.5905511811023622
        },
        {
          "duration": 0.12096750000000611,
          "durationTicks": 150,
          "midi": 84,
          "name": "C6",
          "ticks": 388560,
          "time": 313.354212,
          "velocity": 0.5905511811023622
        },
        {
          "duration": 0.12096750000000611,
          "durationTicks": 150,
          "midi": 72,
          "name": "C5",
          "ticks": 388800,
          "time": 313.54776,
          "velocity": 0.5905511811023622
        },
        {
          "duration": 0.12096750000000611,
          "durationTicks": 150,
          "midi": 79,
          "name": "G5",
          "ticks": 389040,
          "time": 313.741308,
          "velocity": 0.5905511811023622
        },
        {
          "duration": 0.12096749999994927,
          "durationTicks": 150,
          "midi": 72,
          "name": "C5",
          "ticks": 389280,
          "time": 313.934856,
          "velocity": 0.5905511811023622
        },
        {
          "duration": 0.12096750000000611,
          "durationTicks": 150,
          "midi": 70,
          "name": "A#4",
          "ticks": 389520,
          "time": 314.128404,
          "velocity": 0.5905511811023622
        },
        {
          "duration": 0.12096750000000611,
          "durationTicks": 150,
          "midi": 69,
          "name": "A4",
          "ticks": 389760,
          "time": 314.321952,
          "velocity": 0.5905511811023622
        },
        {
          "duration": 0.12096750000000611,
          "durationTicks": 150,
          "midi": 77,
          "name": "F5",
          "ticks": 390000,
          "time": 314.5155,
          "velocity": 0.5905511811023622
        },
        {
          "duration": 0.12096750000000611,
          "durationTicks": 150,
          "midi": 72,
          "name": "C5",
          "ticks": 390240,
          "time": 314.709048,
          "velocity": 0.5905511811023622
        },
        {
          "duration": 0.12096750000000611,
          "durationTicks": 150,
          "midi": 81,
          "name": "A5",
          "ticks": 390480,
          "time": 314.902596,
          "velocity": 0.5905511811023622
        },
        {
          "duration": 0.12096750000000611,
          "durationTicks": 150,
          "midi": 69,
          "name": "A4",
          "ticks": 390720,
          "time": 315.096144,
          "velocity": 0.5905511811023622
        },
        {
          "duration": 0.12096750000000611,
          "durationTicks": 150,
          "midi": 77,
          "name": "F5",
          "ticks": 390960,
          "time": 315.289692,
          "velocity": 0.5905511811023622
        },
        {
          "duration": 0.12096749999994927,
          "durationTicks": 150,
          "midi": 72,
          "name": "C5",
          "ticks": 391200,
          "time": 315.48324,
          "velocity": 0.5905511811023622
        },
        {
          "duration": 0.12096750000000611,
          "durationTicks": 150,
          "midi": 81,
          "name": "A5",
          "ticks": 391440,
          "time": 315.676788,
          "velocity": 0.5905511811023622
        },
        {
          "duration": 0.12096750000000611,
          "durationTicks": 150,
          "midi": 70,
          "name": "A#4",
          "ticks": 391680,
          "time": 315.870336,
          "velocity": 0.5905511811023622
        },
        {
          "duration": 0.12096750000000611,
          "durationTicks": 150,
          "midi": 77,
          "name": "F5",
          "ticks": 391920,
          "time": 316.063884,
          "velocity": 0.5905511811023622
        },
        {
          "duration": 0.12096750000000611,
          "durationTicks": 150,
          "midi": 74,
          "name": "D5",
          "ticks": 392160,
          "time": 316.257432,
          "velocity": 0.5905511811023622
        },
        {
          "duration": 0.12096750000000611,
          "durationTicks": 150,
          "midi": 82,
          "name": "A#5",
          "ticks": 392400,
          "time": 316.45098,
          "velocity": 0.5905511811023622
        },
        {
          "duration": 0.12499975000002905,
          "durationTicks": 155,
          "midi": 70,
          "name": "A#4",
          "ticks": 392640,
          "time": 316.644528,
          "velocity": 0.5905511811023622
        },
        {
          "duration": 0.12499974999997221,
          "durationTicks": 155,
          "midi": 77,
          "name": "F5",
          "ticks": 392880,
          "time": 316.838076,
          "velocity": 0.5905511811023622
        },
        {
          "duration": 0.12499974999997221,
          "durationTicks": 155,
          "midi": 74,
          "name": "D5",
          "ticks": 393120,
          "time": 317.031624,
          "velocity": 0.5905511811023622
        },
        {
          "duration": 0.12499974999997221,
          "durationTicks": 155,
          "midi": 82,
          "name": "A#5",
          "ticks": 393360,
          "time": 317.225172,
          "velocity": 0.5905511811023622
        },
        {
          "duration": 0.12096750000000611,
          "durationTicks": 150,
          "midi": 72,
          "name": "C5",
          "ticks": 393600,
          "time": 317.41872,
          "velocity": 0.5905511811023622
        },
        {
          "duration": 0.12096750000000611,
          "durationTicks": 150,
          "midi": 64,
          "name": "E4",
          "ticks": 393840,
          "time": 317.612268,
          "velocity": 0.5905511811023622
        },
        {
          "duration": 0.12096750000000611,
          "durationTicks": 150,
          "midi": 82,
          "name": "A#5",
          "ticks": 394080,
          "time": 317.805816,
          "velocity": 0.5905511811023622
        },
        {
          "duration": 0.12096750000000611,
          "durationTicks": 150,
          "midi": 79,
          "name": "G5",
          "ticks": 394320,
          "time": 317.999364,
          "velocity": 0.5905511811023622
        },
        {
          "duration": 0.12096750000000611,
          "durationTicks": 150,
          "midi": 80,
          "name": "G#5",
          "ticks": 394560,
          "time": 318.192912,
          "velocity": 0.5905511811023622
        },
        {
          "duration": 0.12096750000000611,
          "durationTicks": 150,
          "midi": 65,
          "name": "F4",
          "ticks": 394800,
          "time": 318.38646,
          "velocity": 0.5905511811023622
        },
        {
          "duration": 0.12096749999994927,
          "durationTicks": 150,
          "midi": 77,
          "name": "F5",
          "ticks": 395040,
          "time": 318.580008,
          "velocity": 0.5905511811023622
        },
        {
          "duration": 0.12096750000000611,
          "durationTicks": 150,
          "midi": 80,
          "name": "G#5",
          "ticks": 395280,
          "time": 318.773556,
          "velocity": 0.5905511811023622
        },
        {
          "duration": 0.12096750000000611,
          "durationTicks": 150,
          "midi": 70,
          "name": "A#4",
          "ticks": 395520,
          "time": 318.967104,
          "velocity": 0.5905511811023622
        },
        {
          "duration": 0.12096750000000611,
          "durationTicks": 150,
          "midi": 62,
          "name": "D4",
          "ticks": 395760,
          "time": 319.16065199999997,
          "velocity": 0.5905511811023622
        },
        {
          "duration": 0.12096750000000611,
          "durationTicks": 150,
          "midi": 80,
          "name": "G#5",
          "ticks": 396000,
          "time": 319.3542,
          "velocity": 0.5905511811023622
        },
        {
          "duration": 0.12096750000000611,
          "durationTicks": 150,
          "midi": 77,
          "name": "F5",
          "ticks": 396240,
          "time": 319.547748,
          "velocity": 0.5905511811023622
        },
        {
          "duration": 0.12096750000000611,
          "durationTicks": 150,
          "midi": 79,
          "name": "G5",
          "ticks": 396480,
          "time": 319.741296,
          "velocity": 0.5905511811023622
        },
        {
          "duration": 0.12096750000000611,
          "durationTicks": 150,
          "midi": 63,
          "name": "D#4",
          "ticks": 396720,
          "time": 319.934844,
          "velocity": 0.5905511811023622
        },
        {
          "duration": 0.12096749999994927,
          "durationTicks": 150,
          "midi": 75,
          "name": "D#5",
          "ticks": 396960,
          "time": 320.128392,
          "velocity": 0.5905511811023622
        },
        {
          "duration": 0.12096750000000611,
          "durationTicks": 150,
          "midi": 79,
          "name": "G5",
          "ticks": 397200,
          "time": 320.32194,
          "velocity": 0.5905511811023622
        },
        {
          "duration": 0.12096750000000611,
          "durationTicks": 150,
          "midi": 77,
          "name": "F5",
          "ticks": 397440,
          "time": 320.515488,
          "velocity": 0.5905511811023622
        },
        {
          "duration": 0.12096750000000611,
          "durationTicks": 150,
          "midi": 72,
          "name": "C5",
          "ticks": 397680,
          "time": 320.70903599999997,
          "velocity": 0.5905511811023622
        },
        {
          "duration": 0.12096750000000611,
          "durationTicks": 150,
          "midi": 80,
          "name": "G#5",
          "ticks": 397920,
          "time": 320.902584,
          "velocity": 0.5905511811023622
        },
        {
          "duration": 0.12096750000000611,
          "durationTicks": 150,
          "midi": 77,
          "name": "F5",
          "ticks": 398160,
          "time": 321.096132,
          "velocity": 0.5905511811023622
        },
        {
          "duration": 0.12096750000000611,
          "durationTicks": 150,
          "midi": 74,
          "name": "D5",
          "ticks": 398400,
          "time": 321.28968,
          "velocity": 0.5905511811023622
        },
        {
          "duration": 0.12096750000000611,
          "durationTicks": 150,
          "midi": 70,
          "name": "A#4",
          "ticks": 398640,
          "time": 321.483228,
          "velocity": 0.5905511811023622
        },
        {
          "duration": 0.12096750000000611,
          "durationTicks": 150,
          "midi": 77,
          "name": "F5",
          "ticks": 398880,
          "time": 321.676776,
          "velocity": 0.5905511811023622
        },
        {
          "duration": 0.12096750000000611,
          "durationTicks": 150,
          "midi": 74,
          "name": "D5",
          "ticks": 399120,
          "time": 321.870324,
          "velocity": 0.5905511811023622
        },
        {
          "duration": 0.12096750000000611,
          "durationTicks": 150,
          "midi": 75,
          "name": "D#5",
          "ticks": 399360,
          "time": 322.063872,
          "velocity": 0.5905511811023622
        },
        {
          "duration": 0.12096749999994927,
          "durationTicks": 150,
          "midi": 70,
          "name": "A#4",
          "ticks": 399600,
          "time": 322.25742,
          "velocity": 0.5905511811023622
        },
        {
          "duration": 0.12096750000000611,
          "durationTicks": 150,
          "midi": 79,
          "name": "G5",
          "ticks": 399840,
          "time": 322.450968,
          "velocity": 0.5905511811023622
        },
        {
          "duration": 0.12096750000000611,
          "durationTicks": 150,
          "midi": 77,
          "name": "F5",
          "ticks": 400080,
          "time": 322.644516,
          "velocity": 0.5905511811023622
        },
        {
          "duration": 0.129032000000052,
          "durationTicks": 160,
          "midi": 75,
          "name": "D#5",
          "ticks": 400320,
          "time": 322.838064,
          "velocity": 0.5905511811023622
        },
        {
          "duration": 0.19354800000002115,
          "durationTicks": 240,
          "midi": 70,
          "name": "A#4",
          "ticks": 418560,
          "time": 337.547712,
          "velocity": 0.6299212598425197
        },
        {
          "duration": 0.09677399999998215,
          "durationTicks": 120,
          "midi": 72,
          "name": "C5",
          "ticks": 418800,
          "time": 337.74126,
          "velocity": 0.6299212598425197
        },
        {
          "duration": 0.09677399999998215,
          "durationTicks": 120,
          "midi": 74,
          "name": "D5",
          "ticks": 418920,
          "time": 337.838034,
          "velocity": 0.6299212598425197
        },
        {
          "duration": 0.096774000000039,
          "durationTicks": 120,
          "midi": 75,
          "name": "D#5",
          "ticks": 419040,
          "time": 337.934808,
          "velocity": 0.6299212598425197
        },
        {
          "duration": 0.09677399999998215,
          "durationTicks": 120,
          "midi": 77,
          "name": "F5",
          "ticks": 419160,
          "time": 338.031582,
          "velocity": 0.6299212598425197
        },
        {
          "duration": 0.09677399999998215,
          "durationTicks": 120,
          "midi": 79,
          "name": "G5",
          "ticks": 419280,
          "time": 338.128356,
          "velocity": 0.6299212598425197
        },
        {
          "duration": 0.096774000000039,
          "durationTicks": 120,
          "midi": 81,
          "name": "A5",
          "ticks": 419400,
          "time": 338.22513,
          "velocity": 0.6299212598425197
        },
        {
          "duration": 0.09677399999998215,
          "durationTicks": 120,
          "midi": 82,
          "name": "A#5",
          "ticks": 419520,
          "time": 338.321904,
          "velocity": 0.6299212598425197
        },
        {
          "duration": 0.09677399999998215,
          "durationTicks": 120,
          "midi": 81,
          "name": "A5",
          "ticks": 419640,
          "time": 338.418678,
          "velocity": 0.6299212598425197
        },
        {
          "duration": 0.096774000000039,
          "durationTicks": 120,
          "midi": 82,
          "name": "A#5",
          "ticks": 419760,
          "time": 338.515452,
          "velocity": 0.6299212598425197
        },
        {
          "duration": 0.09677399999998215,
          "durationTicks": 120,
          "midi": 84,
          "name": "C6",
          "ticks": 419880,
          "time": 338.612226,
          "velocity": 0.6299212598425197
        },
        {
          "duration": 0.09677399999998215,
          "durationTicks": 120,
          "midi": 82,
          "name": "A#5",
          "ticks": 420000,
          "time": 338.709,
          "velocity": 0.6299212598425197
        },
        {
          "duration": 0.096774000000039,
          "durationTicks": 120,
          "midi": 80,
          "name": "G#5",
          "ticks": 420120,
          "time": 338.805774,
          "velocity": 0.6299212598425197
        },
        {
          "duration": 0.09677399999998215,
          "durationTicks": 120,
          "midi": 79,
          "name": "G5",
          "ticks": 420240,
          "time": 338.902548,
          "velocity": 0.6299212598425197
        },
        {
          "duration": 0.048386999999991076,
          "durationTicks": 60,
          "midi": 77,
          "name": "F5",
          "ticks": 420360,
          "time": 338.999322,
          "velocity": 0.6299212598425197
        },
        {
          "duration": 0.23387049999996634,
          "durationTicks": 290,
          "midi": 75,
          "name": "D#5",
          "ticks": 420480,
          "time": 339.096096,
          "velocity": 0.6299212598425197
        },
        {
          "duration": 0.7096760000000586,
          "durationTicks": 880,
          "midi": 75,
          "name": "D#5",
          "ticks": 420960,
          "time": 339.483192,
          "velocity": 0.6299212598425197
        },
        {
          "duration": 0.23387049999996634,
          "durationTicks": 290,
          "midi": 75,
          "name": "D#5",
          "ticks": 421920,
          "time": 340.257384,
          "velocity": 0.6299212598425197
        },
        {
          "duration": 0.1572577499999852,
          "durationTicks": 195,
          "midi": 75,
          "name": "D#5",
          "ticks": 422400,
          "time": 340.64448,
          "velocity": 0.6299212598425197
        },
        {
          "duration": 0.1572577499999852,
          "durationTicks": 195,
          "midi": 74,
          "name": "D5",
          "ticks": 422640,
          "time": 340.838028,
          "velocity": 0.6299212598425197
        },
        {
          "duration": 0.6129020000000196,
          "durationTicks": 760,
          "midi": 74,
          "name": "D5",
          "ticks": 422880,
          "time": 341.031576,
          "velocity": 0.6299212598425197
        },
        {
          "duration": 0.12903199999999515,
          "durationTicks": 160,
          "midi": 79,
          "name": "G5",
          "ticks": 432240,
          "time": 348.579948,
          "velocity": 0.6299212598425197
        },
        {
          "duration": 0.12903199999999515,
          "durationTicks": 160,
          "midi": 80,
          "name": "G#5",
          "ticks": 432480,
          "time": 348.773496,
          "velocity": 0.6299212598425197
        },
        {
          "duration": 0.129032000000052,
          "durationTicks": 160,
          "midi": 79,
          "name": "G5",
          "ticks": 432720,
          "time": 348.967044,
          "velocity": 0.6299212598425197
        },
        {
          "duration": 0.12903199999999515,
          "durationTicks": 160,
          "midi": 80,
          "name": "G#5",
          "ticks": 432960,
          "time": 349.160592,
          "velocity": 0.6299212598425197
        },
        {
          "duration": 0.129032000000052,
          "durationTicks": 160,
          "midi": 79,
          "name": "G5",
          "ticks": 433200,
          "time": 349.35414,
          "velocity": 0.6299212598425197
        },
        {
          "duration": 0.12903199999999515,
          "durationTicks": 160,
          "midi": 80,
          "name": "G#5",
          "ticks": 433440,
          "time": 349.547688,
          "velocity": 0.6299212598425197
        },
        {
          "duration": 0.12903199999999515,
          "durationTicks": 160,
          "midi": 79,
          "name": "G5",
          "ticks": 433680,
          "time": 349.741236,
          "velocity": 0.6299212598425197
        },
        {
          "duration": 0.5806440000000066,
          "durationTicks": 720,
          "midi": 79,
          "name": "G5",
          "ticks": 433920,
          "time": 349.934784,
          "velocity": 0.6299212598425197
        },
        {
          "duration": 0.09677399999998215,
          "durationTicks": 120,
          "midi": 81,
          "name": "A5",
          "ticks": 434640,
          "time": 350.515428,
          "velocity": 0.6299212598425197
        },
        {
          "duration": 0.096774000000039,
          "durationTicks": 120,
          "midi": 83,
          "name": "B5",
          "ticks": 434760,
          "time": 350.61220199999997,
          "velocity": 0.6299212598425197
        },
        {
          "duration": 0.12903199999999515,
          "durationTicks": 160,
          "midi": 84,
          "name": "C6",
          "ticks": 434880,
          "time": 350.708976,
          "velocity": 0.6299212598425197
        },
        {
          "duration": 0.12903199999999515,
          "durationTicks": 160,
          "midi": 77,
          "name": "F5",
          "ticks": 436080,
          "time": 351.676716,
          "velocity": 0.6299212598425197
        },
        {
          "duration": 0.12903199999999515,
          "durationTicks": 160,
          "midi": 78,
          "name": "F#5",
          "ticks": 436320,
          "time": 351.870264,
          "velocity": 0.6299212598425197
        },
        {
          "duration": 0.129032000000052,
          "durationTicks": 160,
          "midi": 77,
          "name": "F5",
          "ticks": 436560,
          "time": 352.063812,
          "velocity": 0.6299212598425197
        },
        {
          "duration": 0.12903199999999515,
          "durationTicks": 160,
          "midi": 78,
          "name": "F#5",
          "ticks": 436800,
          "time": 352.25736,
          "velocity": 0.6299212598425197
        },
        {
          "duration": 0.129032000000052,
          "durationTicks": 160,
          "midi": 77,
          "name": "F5",
          "ticks": 437040,
          "time": 352.45090799999997,
          "velocity": 0.6299212598425197
        },
        {
          "duration": 0.12903199999999515,
          "durationTicks": 160,
          "midi": 78,
          "name": "F#5",
          "ticks": 437280,
          "time": 352.644456,
          "velocity": 0.6299212598425197
        },
        {
          "duration": 0.12903199999999515,
          "durationTicks": 160,
          "midi": 77,
          "name": "F5",
          "ticks": 437520,
          "time": 352.838004,
          "velocity": 0.6299212598425197
        },
        {
          "duration": 0.5806440000000066,
          "durationTicks": 720,
          "midi": 77,
          "name": "F5",
          "ticks": 437760,
          "time": 353.031552,
          "velocity": 0.6299212598425197
        },
        {
          "duration": 0.096774000000039,
          "durationTicks": 120,
          "midi": 79,
          "name": "G5",
          "ticks": 438480,
          "time": 353.612196,
          "velocity": 0.6299212598425197
        },
        {
          "duration": 0.09677399999998215,
          "durationTicks": 120,
          "midi": 81,
          "name": "A5",
          "ticks": 438600,
          "time": 353.70897,
          "velocity": 0.6299212598425197
        },
        {
          "duration": 0.12903199999999515,
          "durationTicks": 160,
          "midi": 82,
          "name": "A#5",
          "ticks": 438720,
          "time": 353.805744,
          "velocity": 0.6299212598425197
        },
        {
          "duration": 0.23387050000002318,
          "durationTicks": 290,
          "midi": 70,
          "name": "A#4",
          "ticks": 462240,
          "time": 372.773448,
          "velocity": 0.6299212598425197
        },
        {
          "duration": 0.1935479999999643,
          "durationTicks": 240,
          "midi": 70,
          "name": "A#4",
          "ticks": 462720,
          "time": 373.160544,
          "velocity": 0.6299212598425197
        },
        {
          "duration": 0.1370964999999842,
          "durationTicks": 170,
          "midi": 75,
          "name": "D#5",
          "ticks": 462960,
          "time": 373.354092,
          "velocity": 0.6299212598425197
        },
        {
          "duration": 0.1370964999999842,
          "durationTicks": 170,
          "midi": 75,
          "name": "D#5",
          "ticks": 463200,
          "time": 373.54764,
          "velocity": 0.6299212598425197
        },
        {
          "duration": 0.23387050000002318,
          "durationTicks": 290,
          "midi": 70,
          "name": "A#4",
          "ticks": 464160,
          "time": 374.321832,
          "velocity": 0.6299212598425197
        },
        {
          "duration": 0.1935479999999643,
          "durationTicks": 240,
          "midi": 70,
          "name": "A#4",
          "ticks": 464640,
          "time": 374.708928,
          "velocity": 0.6299212598425197
        },
        {
          "duration": 0.1370964999999842,
          "durationTicks": 170,
          "midi": 77,
          "name": "F5",
          "ticks": 464880,
          "time": 374.902476,
          "velocity": 0.6299212598425197
        },
        {
          "duration": 0.1370964999999842,
          "durationTicks": 170,
          "midi": 77,
          "name": "F5",
          "ticks": 465120,
          "time": 375.096024,
          "velocity": 0.6299212598425197
        },
        {
          "duration": 0.23387050000002318,
          "durationTicks": 290,
          "midi": 70,
          "name": "A#4",
          "ticks": 466080,
          "time": 375.87021599999997,
          "velocity": 0.6299212598425197
        },
        {
          "duration": 0.1935479999999643,
          "durationTicks": 240,
          "midi": 70,
          "name": "A#4",
          "ticks": 466560,
          "time": 376.257312,
          "velocity": 0.6299212598425197
        },
        {
          "duration": 0.1370964999999842,
          "durationTicks": 170,
          "midi": 79,
          "name": "G5",
          "ticks": 466800,
          "time": 376.45086,
          "velocity": 0.6299212598425197
        },
        {
          "duration": 0.1370964999999842,
          "durationTicks": 170,
          "midi": 79,
          "name": "G5",
          "ticks": 467040,
          "time": 376.644408,
          "velocity": 0.6299212598425197
        },
        {
          "duration": 0.23387050000002318,
          "durationTicks": 290,
          "midi": 80,
          "name": "G#5",
          "ticks": 468000,
          "time": 377.41859999999997,
          "velocity": 0.6299212598425197
        },
        {
          "duration": 0.12903199999999515,
          "durationTicks": 160,
          "midi": 77,
          "name": "F5",
          "ticks": 468480,
          "time": 377.805696,
          "velocity": 0.6299212598425197
        },
        {
          "duration": 0.129032000000052,
          "durationTicks": 160,
          "midi": 75,
          "name": "D#5",
          "ticks": 468720,
          "time": 377.999244,
          "velocity": 0.6299212598425197
        },
        {
          "duration": 0.12903199999999515,
          "durationTicks": 160,
          "midi": 74,
          "name": "D5",
          "ticks": 468960,
          "time": 378.192792,
          "velocity": 0.6299212598425197
        },
        {
          "duration": 0.12903199999999515,
          "durationTicks": 160,
          "midi": 72,
          "name": "C5",
          "ticks": 469200,
          "time": 378.38634,
          "velocity": 0.6299212598425197
        },
        {
          "duration": 0.129032000000052,
          "durationTicks": 160,
          "midi": 70,
          "name": "A#4",
          "ticks": 469440,
          "time": 378.579888,
          "velocity": 0.6299212598425197
        },
        {
          "duration": 0.5161280000000374,
          "durationTicks": 640,
          "midi": 82,
          "name": "A#5",
          "ticks": 469920,
          "time": 378.96698399999997,
          "velocity": 0.6299212598425197
        },
        {
          "duration": 0.3225800000000163,
          "durationTicks": 400,
          "midi": 72,
          "name": "C5",
          "ticks": 470640,
          "time": 379.547628,
          "velocity": 0.6299212598425197
        },
        {
          "duration": 0.3225800000000163,
          "durationTicks": 400,
          "midi": 76,
          "name": "E5",
          "ticks": 471120,
          "time": 379.934724,
          "velocity": 0.6299212598425197
        },
        {
          "duration": 0.3225800000000163,
          "durationTicks": 400,
          "midi": 77,
          "name": "F5",
          "ticks": 471600,
          "time": 380.32182,
          "velocity": 0.6299212598425197
        },
        {
          "duration": 0.3225800000000163,
          "durationTicks": 400,
          "midi": 80,
          "name": "G#5",
          "ticks": 472080,
          "time": 380.708916,
          "velocity": 0.6299212598425197
        },
        {
          "duration": 0.3225800000000163,
          "durationTicks": 400,
          "midi": 70,
          "name": "A#4",
          "ticks": 472560,
          "time": 381.096012,
          "velocity": 0.6299212598425197
        },
        {
          "duration": 0.3225800000000163,
          "durationTicks": 400,
          "midi": 74,
          "name": "D5",
          "ticks": 473040,
          "time": 381.483108,
          "velocity": 0.6299212598425197
        },
        {
          "duration": 0.3225800000000163,
          "durationTicks": 400,
          "midi": 75,
          "name": "D#5",
          "ticks": 473520,
          "time": 381.870204,
          "velocity": 0.6299212598425197
        },
        {
          "duration": 0.19354800000002115,
          "durationTicks": 240,
          "midi": 79,
          "name": "G5",
          "ticks": 474000,
          "time": 382.2573,
          "velocity": 0.6299212598425197
        },
        {
          "duration": 0.1370964999999842,
          "durationTicks": 170,
          "midi": 77,
          "name": "F5",
          "ticks": 474240,
          "time": 382.450848,
          "velocity": 0.6299212598425197
        },
        {
          "duration": 0.3225800000000163,
          "durationTicks": 400,
          "midi": 84,
          "name": "C6",
          "ticks": 474480,
          "time": 382.644396,
          "velocity": 0.6299212598425197
        },
        {
          "duration": 0.3225800000000163,
          "durationTicks": 400,
          "midi": 80,
          "name": "G#5",
          "ticks": 474960,
          "time": 383.031492,
          "velocity": 0.6299212598425197
        },
        {
          "duration": 0.3225800000000163,
          "durationTicks": 400,
          "midi": 77,
          "name": "F5",
          "ticks": 475440,
          "time": 383.418588,
          "velocity": 0.6299212598425197
        },
        {
          "duration": 0.1370964999999842,
          "durationTicks": 170,
          "midi": 74,
          "name": "D5",
          "ticks": 475920,
          "time": 383.805684,
          "velocity": 0.6299212598425197
        },
        {
          "duration": 0.6129020000000196,
          "durationTicks": 760,
          "midi": 75,
          "name": "D#5",
          "ticks": 476160,
          "time": 383.999232,
          "velocity": 0.6299212598425197
        },
        {
          "duration": 0.12903199999999515,
          "durationTicks": 160,
          "midi": 79,
          "name": "G5",
          "ticks": 477360,
          "time": 384.966972,
          "velocity": 0.6299212598425197
        },
        {
          "duration": 0.12903199999999515,
          "durationTicks": 160,
          "midi": 79,
          "name": "G5",
          "ticks": 477600,
          "time": 385.16052,
          "velocity": 0.6299212598425197
        },
        {
          "duration": 0.129032000000052,
          "durationTicks": 160,
          "midi": 79,
          "name": "G5",
          "ticks": 477840,
          "time": 385.354068,
          "velocity": 0.6299212598425197
        },
        {
          "duration": 0.1935479999999643,
          "durationTicks": 240,
          "midi": 79,
          "name": "G5",
          "ticks": 478080,
          "time": 385.547616,
          "velocity": 0.6299212598425197
        },
        {
          "duration": 0.15725775000004205,
          "durationTicks": 195,
          "midi": 71,
          "name": "B4",
          "ticks": 478320,
          "time": 385.74116399999997,
          "velocity": 0.6299212598425197
        },
        {
          "duration": 0.23387049999996634,
          "durationTicks": 290,
          "midi": 71,
          "name": "B4",
          "ticks": 478560,
          "time": 385.934712,
          "velocity": 0.6299212598425197
        },
        {
          "duration": 0.19354800000002115,
          "durationTicks": 240,
          "midi": 71,
          "name": "B4",
          "ticks": 479280,
          "time": 386.515356,
          "velocity": 0.6299212598425197
        },
        {
          "duration": 0.15645130000001473,
          "durationTicks": 194,
          "midi": 79,
          "name": "G5",
          "ticks": 479520,
          "time": 386.708904,
          "velocity": 0.6299212598425197
        },
        {
          "duration": 0.129032000000052,
          "durationTicks": 160,
          "midi": 77,
          "name": "F5",
          "ticks": 479760,
          "time": 386.902452,
          "velocity": 0.6299212598425197
        },
        {
          "duration": 0.1935479999999643,
          "durationTicks": 240,
          "midi": 77,
          "name": "F5",
          "ticks": 480000,
          "time": 387.096,
          "velocity": 0.6299212598425197
        },
        {
          "duration": 0.15725775000004205,
          "durationTicks": 195,
          "midi": 75,
          "name": "D#5",
          "ticks": 480240,
          "time": 387.28954799999997,
          "velocity": 0.6299212598425197
        },
        {
          "duration": 0.23387049999996634,
          "durationTicks": 290,
          "midi": 75,
          "name": "D#5",
          "ticks": 480480,
          "time": 387.483096,
          "velocity": 0.6299212598425197
        },
        {
          "duration": 0.12903199999999515,
          "durationTicks": 160,
          "midi": 75,
          "name": "D#5",
          "ticks": 481200,
          "time": 388.06374,
          "velocity": 0.6299212598425197
        },
        {
          "duration": 0.12903199999999515,
          "durationTicks": 160,
          "midi": 75,
          "name": "D#5",
          "ticks": 481440,
          "time": 388.257288,
          "velocity": 0.6299212598425197
        },
        {
          "duration": 0.129032000000052,
          "durationTicks": 160,
          "midi": 76,
          "name": "E5",
          "ticks": 481680,
          "time": 388.450836,
          "velocity": 0.6299212598425197
        },
        {
          "duration": 0.19354800000002115,
          "durationTicks": 240,
          "midi": 79,
          "name": "G5",
          "ticks": 481920,
          "time": 388.644384,
          "velocity": 0.6299212598425197
        },
        {
          "duration": 0.1572577499999852,
          "durationTicks": 195,
          "midi": 77,
          "name": "F5",
          "ticks": 482160,
          "time": 388.837932,
          "velocity": 0.6299212598425197
        },
        {
          "duration": 0.23387049999996634,
          "durationTicks": 290,
          "midi": 77,
          "name": "F5",
          "ticks": 482400,
          "time": 389.03148,
          "velocity": 0.6299212598425197
        },
        {
          "duration": 0.19354800000002115,
          "durationTicks": 240,
          "midi": 69,
          "name": "A4",
          "ticks": 483120,
          "time": 389.612124,
          "velocity": 0.6299212598425197
        },
        {
          "duration": 0.15645130000001473,
          "durationTicks": 194,
          "midi": 77,
          "name": "F5",
          "ticks": 483360,
          "time": 389.805672,
          "velocity": 0.6299212598425197
        },
        {
          "duration": 0.129032000000052,
          "durationTicks": 160,
          "midi": 75,
          "name": "D#5",
          "ticks": 483600,
          "time": 389.99922,
          "velocity": 0.6299212598425197
        },
        {
          "duration": 0.19354800000002115,
          "durationTicks": 240,
          "midi": 75,
          "name": "D#5",
          "ticks": 483840,
          "time": 390.192768,
          "velocity": 0.6299212598425197
        },
        {
          "duration": 0.1572577499999852,
          "durationTicks": 195,
          "midi": 74,
          "name": "D5",
          "ticks": 484080,
          "time": 390.386316,
          "velocity": 0.6299212598425197
        },
        {
          "duration": 0.23387049999996634,
          "durationTicks": 290,
          "midi": 74,
          "name": "D5",
          "ticks": 484320,
          "time": 390.579864,
          "velocity": 0.6299212598425197
        },
        {
          "duration": 0.12903199999999515,
          "durationTicks": 160,
          "midi": 82,
          "name": "A#5",
          "ticks": 485040,
          "time": 391.160508,
          "velocity": 0.6299212598425197
        },
        {
          "duration": 0.12903199999999515,
          "durationTicks": 160,
          "midi": 82,
          "name": "A#5",
          "ticks": 485280,
          "time": 391.354056,
          "velocity": 0.6299212598425197
        },
        {
          "duration": 0.129032000000052,
          "durationTicks": 160,
          "midi": 82,
          "name": "A#5",
          "ticks": 485520,
          "time": 391.547604,
          "velocity": 0.6299212598425197
        },
        {
          "duration": 0.1370964999999842,
          "durationTicks": 170,
          "midi": 82,
          "name": "A#5",
          "ticks": 485760,
          "time": 391.741152,
          "velocity": 0.6299212598425197
        },
        {
          "duration": 0.3225800000000163,
          "durationTicks": 400,
          "midi": 72,
          "name": "C5",
          "ticks": 486000,
          "time": 391.9347,
          "velocity": 0.6299212598425197
        },
        {
          "duration": 0.3225800000000163,
          "durationTicks": 400,
          "midi": 76,
          "name": "E5",
          "ticks": 486480,
          "time": 392.321796,
          "velocity": 0.6299212598425197
        },
        {
          "duration": 0.3225800000000163,
          "durationTicks": 400,
          "midi": 77,
          "name": "F5",
          "ticks": 486960,
          "time": 392.708892,
          "velocity": 0.6299212598425197
        },
        {
          "duration": 0.3225800000000163,
          "durationTicks": 400,
          "midi": 80,
          "name": "G#5",
          "ticks": 487440,
          "time": 393.095988,
          "velocity": 0.6299212598425197
        },
        {
          "duration": 0.3225800000000163,
          "durationTicks": 400,
          "midi": 70,
          "name": "A#4",
          "ticks": 487920,
          "time": 393.483084,
          "velocity": 0.6299212598425197
        },
        {
          "duration": 0.3225800000000163,
          "durationTicks": 400,
          "midi": 74,
          "name": "D5",
          "ticks": 488400,
          "time": 393.87018,
          "velocity": 0.6299212598425197
        },
        {
          "duration": 0.3225800000000163,
          "durationTicks": 400,
          "midi": 75,
          "name": "D#5",
          "ticks": 488880,
          "time": 394.257276,
          "velocity": 0.6299212598425197
        },
        {
          "duration": 0.19354800000002115,
          "durationTicks": 240,
          "midi": 79,
          "name": "G5",
          "ticks": 489360,
          "time": 394.644372,
          "velocity": 0.6299212598425197
        },
        {
          "duration": 0.1370964999999842,
          "durationTicks": 170,
          "midi": 77,
          "name": "F5",
          "ticks": 489600,
          "time": 394.83792,
          "velocity": 0.6299212598425197
        },
        {
          "duration": 0.3225800000000163,
          "durationTicks": 400,
          "midi": 84,
          "name": "C6",
          "ticks": 489840,
          "time": 395.031468,
          "velocity": 0.6299212598425197
        },
        {
          "duration": 0.3225800000000163,
          "durationTicks": 400,
          "midi": 80,
          "name": "G#5",
          "ticks": 490320,
          "time": 395.418564,
          "velocity": 0.6299212598425197
        },
        {
          "duration": 0.3225800000000163,
          "durationTicks": 400,
          "midi": 77,
          "name": "F5",
          "ticks": 490800,
          "time": 395.80566,
          "velocity": 0.6299212598425197
        },
        {
          "duration": 0.1370964999999842,
          "durationTicks": 170,
          "midi": 74,
          "name": "D5",
          "ticks": 491280,
          "time": 396.192756,
          "velocity": 0.6299212598425197
        },
        {
          "duration": 0.5,
          "durationTicks": 240,
          "midi": 77,
          "name": "F5",
          "ticks": 491520,
          "time": 396.386304,
          "velocity": 0.5905511811023622
        },
        {
          "duration": 0.40625,
          "durationTicks": 195,
          "midi": 75,
          "name": "D#5",
          "ticks": 491760,
          "time": 396.886304,
          "velocity": 0.5905511811023622
        },
        {
          "duration": 0.6041666666666856,
          "durationTicks": 290,
          "midi": 75,
          "name": "D#5",
          "ticks": 492000,
          "time": 397.386304,
          "velocity": 0.5905511811023622
        },
        {
          "duration": 0.25,
          "durationTicks": 120,
          "midi": 74,
          "name": "D5",
          "ticks": 492720,
          "time": 398.886304,
          "velocity": 0.5905511811023622
        },
        {
          "duration": 0.25,
          "durationTicks": 120,
          "midi": 75,
          "name": "D#5",
          "ticks": 492840,
          "time": 399.136304,
          "velocity": 0.5905511811023622
        },
        {
          "duration": 0.25,
          "durationTicks": 120,
          "midi": 74,
          "name": "D5",
          "ticks": 492960,
          "time": 399.386304,
          "velocity": 0.5905511811023622
        },
        {
          "duration": 0.25,
          "durationTicks": 120,
          "midi": 75,
          "name": "D#5",
          "ticks": 493080,
          "time": 399.636304,
          "velocity": 0.5905511811023622
        },
        {
          "duration": 0.25,
          "durationTicks": 120,
          "midi": 77,
          "name": "F5",
          "ticks": 493200,
          "time": 399.886304,
          "velocity": 0.5905511811023622
        },
        {
          "duration": 0.21875,
          "durationTicks": 105,
          "midi": 75,
          "name": "D#5",
          "ticks": 493320,
          "time": 400.136304,
          "velocity": 0.5905511811023622
        },
        {
          "duration": 0.25,
          "durationTicks": 120,
          "midi": 75,
          "name": "D#5",
          "ticks": 493440,
          "time": 400.386304,
          "velocity": 0.5905511811023622
        },
        {
          "duration": 0.25,
          "durationTicks": 120,
          "midi": 74,
          "name": "D5",
          "ticks": 493560,
          "time": 400.636304,
          "velocity": 0.5905511811023622
        },
        {
          "duration": 0.25,
          "durationTicks": 120,
          "midi": 72,
          "name": "C5",
          "ticks": 493680,
          "time": 400.886304,
          "velocity": 0.5905511811023622
        },
        {
          "duration": 0.15625,
          "durationTicks": 75,
          "midi": 70,
          "name": "A#4",
          "ticks": 493800,
          "time": 401.136304,
          "velocity": 0.5905511811023622
        },
        {
          "duration": 0.6041666666666856,
          "durationTicks": 290,
          "midi": 70,
          "name": "A#4",
          "ticks": 493920,
          "time": 401.386304,
          "velocity": 0.5905511811023622
        },
        {
          "duration": 0.5,
          "durationTicks": 240,
          "midi": 70,
          "name": "A#4",
          "ticks": 494640,
          "time": 402.886304,
          "velocity": 0.5905511811023622
        },
        {
          "duration": 0.5,
          "durationTicks": 240,
          "midi": 72,
          "name": "C5",
          "ticks": 494880,
          "time": 403.386304,
          "velocity": 0.5905511811023622
        },
        {
          "duration": 0.5,
          "durationTicks": 240,
          "midi": 74,
          "name": "D5",
          "ticks": 495120,
          "time": 403.886304,
          "velocity": 0.5905511811023622
        },
        {
          "duration": 0.25,
          "durationTicks": 120,
          "midi": 77,
          "name": "F5",
          "ticks": 495360,
          "time": 404.386304,
          "velocity": 0.5905511811023622
        },
        {
          "duration": 0.25,
          "durationTicks": 120,
          "midi": 75,
          "name": "D#5",
          "ticks": 495480,
          "time": 404.636304,
          "velocity": 0.5905511811023622
        },
        {
          "duration": 0.25,
          "durationTicks": 120,
          "midi": 74,
          "name": "D5",
          "ticks": 495600,
          "time": 404.886304,
          "velocity": 0.5905511811023622
        },
        {
          "duration": 0.21875,
          "durationTicks": 105,
          "midi": 75,
          "name": "D#5",
          "ticks": 495720,
          "time": 405.136304,
          "velocity": 0.5905511811023622
        },
        {
          "duration": 0.6041666666666856,
          "durationTicks": 290,
          "midi": 75,
          "name": "D#5",
          "ticks": 495840,
          "time": 405.386304,
          "velocity": 0.5905511811023622
        },
        {
          "duration": 0.25,
          "durationTicks": 120,
          "midi": 74,
          "name": "D5",
          "ticks": 496560,
          "time": 406.886304,
          "velocity": 0.5905511811023622
        },
        {
          "duration": 0.25,
          "durationTicks": 120,
          "midi": 75,
          "name": "D#5",
          "ticks": 496680,
          "time": 407.136304,
          "velocity": 0.5905511811023622
        },
        {
          "duration": 0.25,
          "durationTicks": 120,
          "midi": 74,
          "name": "D5",
          "ticks": 496800,
          "time": 407.386304,
          "velocity": 0.5905511811023622
        },
        {
          "duration": 0.25,
          "durationTicks": 120,
          "midi": 75,
          "name": "D#5",
          "ticks": 496920,
          "time": 407.636304,
          "velocity": 0.5905511811023622
        },
        {
          "duration": 0.25,
          "durationTicks": 120,
          "midi": 77,
          "name": "F5",
          "ticks": 497040,
          "time": 407.886304,
          "velocity": 0.5905511811023622
        },
        {
          "duration": 0.21875,
          "durationTicks": 105,
          "midi": 75,
          "name": "D#5",
          "ticks": 497160,
          "time": 408.136304,
          "velocity": 0.5905511811023622
        },
        {
          "duration": 0.25,
          "durationTicks": 120,
          "midi": 75,
          "name": "D#5",
          "ticks": 497280,
          "time": 408.386304,
          "velocity": 0.5905511811023622
        },
        {
          "duration": 0.25,
          "durationTicks": 120,
          "midi": 74,
          "name": "D5",
          "ticks": 497400,
          "time": 408.636304,
          "velocity": 0.5905511811023622
        },
        {
          "duration": 0.25,
          "durationTicks": 120,
          "midi": 77,
          "name": "F5",
          "ticks": 497520,
          "time": 408.886304,
          "velocity": 0.5905511811023622
        },
        {
          "duration": 0.21875,
          "durationTicks": 105,
          "midi": 75,
          "name": "D#5",
          "ticks": 497640,
          "time": 409.136304,
          "velocity": 0.5905511811023622
        },
        {
          "duration": 0.6041666666666856,
          "durationTicks": 290,
          "midi": 74,
          "name": "D5",
          "ticks": 497760,
          "time": 409.386304,
          "velocity": 0.5905511811023622
        },
        {
          "duration": 0.17708333333331439,
          "durationTicks": 170,
          "midi": 82,
          "name": "A#5",
          "ticks": 510000,
          "time": 428.8446373333334,
          "velocity": 0.6377952755905512
        },
        {
          "duration": 0.22916666666662877,
          "durationTicks": 220,
          "midi": 72,
          "name": "C5",
          "ticks": 510240,
          "time": 429.0946373333334,
          "velocity": 0.6377952755905512
        },
        {
          "duration": 0.052083333333314386,
          "durationTicks": 50,
          "midi": 74,
          "name": "D5",
          "ticks": 510600,
          "time": 429.4696373333334,
          "velocity": 0.6377952755905512
        },
        {
          "duration": 0.17708333333331439,
          "durationTicks": 170,
          "midi": 76,
          "name": "E5",
          "ticks": 510720,
          "time": 429.5946373333334,
          "velocity": 0.6377952755905512
        },
        {
          "duration": 0.22916666666662877,
          "durationTicks": 220,
          "midi": 77,
          "name": "F5",
          "ticks": 510960,
          "time": 429.8446373333334,
          "velocity": 0.6377952755905512
        },
        {
          "duration": 0.052083333333314386,
          "durationTicks": 50,
          "midi": 79,
          "name": "G5",
          "ticks": 511320,
          "time": 430.2196373333334,
          "velocity": 0.6377952755905512
        },
        {
          "duration": 0.17708333333331439,
          "durationTicks": 170,
          "midi": 80,
          "name": "G#5",
          "ticks": 511440,
          "time": 430.3446373333334,
          "velocity": 0.6377952755905512
        },
        {
          "duration": 0.22916666666662877,
          "durationTicks": 220,
          "midi": 70,
          "name": "A#4",
          "ticks": 511680,
          "time": 430.5946373333334,
          "velocity": 0.6377952755905512
        },
        {
          "duration": 0.052083333333314386,
          "durationTicks": 50,
          "midi": 72,
          "name": "C5",
          "ticks": 512040,
          "time": 430.9696373333334,
          "velocity": 0.6377952755905512
        },
        {
          "duration": 0.17708333333331439,
          "durationTicks": 170,
          "midi": 74,
          "name": "D5",
          "ticks": 512160,
          "time": 431.0946373333334,
          "velocity": 0.6377952755905512
        },
        {
          "duration": 0.22916666666662877,
          "durationTicks": 220,
          "midi": 75,
          "name": "D#5",
          "ticks": 512400,
          "time": 431.3446373333334,
          "velocity": 0.6377952755905512
        },
        {
          "duration": 0.052083333333314386,
          "durationTicks": 50,
          "midi": 77,
          "name": "F5",
          "ticks": 512760,
          "time": 431.7196373333334,
          "velocity": 0.6377952755905512
        },
        {
          "duration": 0.17708333333331439,
          "durationTicks": 170,
          "midi": 79,
          "name": "G5",
          "ticks": 512880,
          "time": 431.8446373333334,
          "velocity": 0.6377952755905512
        },
        {
          "duration": 0.22916666666662877,
          "durationTicks": 220,
          "midi": 77,
          "name": "F5",
          "ticks": 513120,
          "time": 432.0946373333334,
          "velocity": 0.6377952755905512
        },
        {
          "duration": 0.052083333333314386,
          "durationTicks": 50,
          "midi": 79,
          "name": "G5",
          "ticks": 513480,
          "time": 432.4696373333334,
          "velocity": 0.6377952755905512
        },
        {
          "duration": 0.17708333333331439,
          "durationTicks": 170,
          "midi": 80,
          "name": "G#5",
          "ticks": 513600,
          "time": 432.5946373333334,
          "velocity": 0.6377952755905512
        },
        {
          "duration": 0.22916666666662877,
          "durationTicks": 220,
          "midi": 70,
          "name": "A#4",
          "ticks": 513840,
          "time": 432.8446373333334,
          "velocity": 0.6377952755905512
        },
        {
          "duration": 0.052083333333314386,
          "durationTicks": 50,
          "midi": 72,
          "name": "C5",
          "ticks": 514200,
          "time": 433.2196373333334,
          "velocity": 0.6377952755905512
        },
        {
          "duration": 0.17708333333331439,
          "durationTicks": 170,
          "midi": 74,
          "name": "D5",
          "ticks": 514320,
          "time": 433.3446373333334,
          "velocity": 0.6377952755905512
        },
        {
          "duration": 0.41666666666662877,
          "durationTicks": 400,
          "midi": 75,
          "name": "D#5",
          "ticks": 514560,
          "time": 433.5946373333334,
          "velocity": 0.6377952755905512
        },
        {
          "duration": 0.17708333333331439,
          "durationTicks": 170,
          "midi": 82,
          "name": "A#5",
          "ticks": 521520,
          "time": 440.8446373333334,
          "velocity": 0.6299212598425197
        },
        {
          "duration": 0.22916666666662877,
          "durationTicks": 220,
          "midi": 72,
          "name": "C5",
          "ticks": 521760,
          "time": 441.0946373333334,
          "velocity": 0.6299212598425197
        },
        {
          "duration": 0.052083333333314386,
          "durationTicks": 50,
          "midi": 74,
          "name": "D5",
          "ticks": 522120,
          "time": 441.4696373333334,
          "velocity": 0.6299212598425197
        },
        {
          "duration": 0.17708333333331439,
          "durationTicks": 170,
          "midi": 76,
          "name": "E5",
          "ticks": 522240,
          "time": 441.5946373333334,
          "velocity": 0.6299212598425197
        },
        {
          "duration": 0.22916666666662877,
          "durationTicks": 220,
          "midi": 77,
          "name": "F5",
          "ticks": 522480,
          "time": 441.8446373333334,
          "velocity": 0.6299212598425197
        },
        {
          "duration": 0.052083333333314386,
          "durationTicks": 50,
          "midi": 79,
          "name": "G5",
          "ticks": 522840,
          "time": 442.2196373333334,
          "velocity": 0.6299212598425197
        },
        {
          "duration": 0.17708333333331439,
          "durationTicks": 170,
          "midi": 80,
          "name": "G#5",
          "ticks": 522960,
          "time": 442.3446373333334,
          "velocity": 0.6299212598425197
        },
        {
          "duration": 0.22916666666662877,
          "durationTicks": 220,
          "midi": 70,
          "name": "A#4",
          "ticks": 523200,
          "time": 442.5946373333334,
          "velocity": 0.6299212598425197
        },
        {
          "duration": 0.052083333333314386,
          "durationTicks": 50,
          "midi": 72,
          "name": "C5",
          "ticks": 523560,
          "time": 442.9696373333334,
          "velocity": 0.6299212598425197
        },
        {
          "duration": 0.17708333333331439,
          "durationTicks": 170,
          "midi": 74,
          "name": "D5",
          "ticks": 523680,
          "time": 443.0946373333334,
          "velocity": 0.6299212598425197
        },
        {
          "duration": 0.22916666666662877,
          "durationTicks": 220,
          "midi": 75,
          "name": "D#5",
          "ticks": 523920,
          "time": 443.3446373333334,
          "velocity": 0.6299212598425197
        },
        {
          "duration": 0.052083333333314386,
          "durationTicks": 50,
          "midi": 77,
          "name": "F5",
          "ticks": 524280,
          "time": 443.7196373333334,
          "velocity": 0.6299212598425197
        },
        {
          "duration": 0.17708333333331439,
          "durationTicks": 170,
          "midi": 79,
          "name": "G5",
          "ticks": 524400,
          "time": 443.8446373333334,
          "velocity": 0.6299212598425197
        },
        {
          "duration": 0.22916666666662877,
          "durationTicks": 220,
          "midi": 77,
          "name": "F5",
          "ticks": 524640,
          "time": 444.0946373333334,
          "velocity": 0.6299212598425197
        },
        {
          "duration": 0.052083333333314386,
          "durationTicks": 50,
          "midi": 79,
          "name": "G5",
          "ticks": 525000,
          "time": 444.4696373333334,
          "velocity": 0.6299212598425197
        },
        {
          "duration": 0.17708333333331439,
          "durationTicks": 170,
          "midi": 80,
          "name": "G#5",
          "ticks": 525120,
          "time": 444.5946373333334,
          "velocity": 0.6299212598425197
        },
        {
          "duration": 0.22916666666662877,
          "durationTicks": 220,
          "midi": 70,
          "name": "A#4",
          "ticks": 525360,
          "time": 444.8446373333334,
          "velocity": 0.6299212598425197
        },
        {
          "duration": 0.052083333333314386,
          "durationTicks": 50,
          "midi": 72,
          "name": "C5",
          "ticks": 525720,
          "time": 445.2196373333334,
          "velocity": 0.6299212598425197
        },
        {
          "duration": 0.17708333333331439,
          "durationTicks": 170,
          "midi": 74,
          "name": "D5",
          "ticks": 525840,
          "time": 445.3446373333334,
          "velocity": 0.6299212598425197
        },
        {
          "duration": 0.41666666666662877,
          "durationTicks": 400,
          "midi": 75,
          "name": "D#5",
          "ticks": 526080,
          "time": 445.5946373333334,
          "velocity": 0.6299212598425197
        },
        {
          "duration": 0.17708333333331439,
          "durationTicks": 170,
          "midi": 74,
          "name": "D5",
          "ticks": 537360,
          "time": 457.3446373333334,
          "velocity": 0.6299212598425197
        },
        {
          "duration": 0.125,
          "durationTicks": 120,
          "midi": 75,
          "name": "D#5",
          "ticks": 537600,
          "time": 457.5946373333334,
          "velocity": 0.6299212598425197
        },
        {
          "duration": 0.125,
          "durationTicks": 120,
          "midi": 77,
          "name": "F5",
          "ticks": 537720,
          "time": 457.7196373333334,
          "velocity": 0.6299212598425197
        },
        {
          "duration": 0.125,
          "durationTicks": 120,
          "midi": 79,
          "name": "G5",
          "ticks": 537840,
          "time": 457.8446373333334,
          "velocity": 0.6299212598425197
        },
        {
          "duration": 0.125,
          "durationTicks": 120,
          "midi": 80,
          "name": "G#5",
          "ticks": 537960,
          "time": 457.9696373333334,
          "velocity": 0.6299212598425197
        },
        {
          "duration": 0.125,
          "durationTicks": 120,
          "midi": 82,
          "name": "A#5",
          "ticks": 538080,
          "time": 458.0946373333334,
          "velocity": 0.6299212598425197
        },
        {
          "duration": 0.125,
          "durationTicks": 120,
          "midi": 84,
          "name": "C6",
          "ticks": 538200,
          "time": 458.2196373333334,
          "velocity": 0.6299212598425197
        },
        {
          "duration": 0.16666666666662877,
          "durationTicks": 160,
          "midi": 82,
          "name": "A#5",
          "ticks": 538320,
          "time": 458.3446373333334,
          "velocity": 0.6299212598425197
        },
        {
          "duration": 0.16666666666662877,
          "durationTicks": 160,
          "midi": 82,
          "name": "A#5",
          "ticks": 538560,
          "time": 458.5946373333334,
          "velocity": 0.6299212598425197
        },
        {
          "duration": 0.17708333333331439,
          "durationTicks": 170,
          "midi": 74,
          "name": "D5",
          "ticks": 540240,
          "time": 460.3446373333334,
          "velocity": 0.6299212598425197
        },
        {
          "duration": 0.125,
          "durationTicks": 120,
          "midi": 75,
          "name": "D#5",
          "ticks": 540480,
          "time": 460.5946373333334,
          "velocity": 0.6299212598425197
        },
        {
          "duration": 0.125,
          "durationTicks": 120,
          "midi": 77,
          "name": "F5",
          "ticks": 540600,
          "time": 460.7196373333334,
          "velocity": 0.6299212598425197
        },
        {
          "duration": 0.125,
          "durationTicks": 120,
          "midi": 79,
          "name": "G5",
          "ticks": 540720,
          "time": 460.8446373333334,
          "velocity": 0.6299212598425197
        },
        {
          "duration": 0.125,
          "durationTicks": 120,
          "midi": 80,
          "name": "G#5",
          "ticks": 540840,
          "time": 460.9696373333334,
          "velocity": 0.6299212598425197
        },
        {
          "duration": 0.125,
          "durationTicks": 120,
          "midi": 82,
          "name": "A#5",
          "ticks": 540960,
          "time": 461.0946373333334,
          "velocity": 0.6299212598425197
        },
        {
          "duration": 0.125,
          "durationTicks": 120,
          "midi": 84,
          "name": "C6",
          "ticks": 541080,
          "time": 461.2196373333334,
          "velocity": 0.6299212598425197
        },
        {
          "duration": 0.16666666666662877,
          "durationTicks": 160,
          "midi": 82,
          "name": "A#5",
          "ticks": 541200,
          "time": 461.3446373333334,
          "velocity": 0.6299212598425197
        },
        {
          "duration": 0.16666666666662877,
          "durationTicks": 160,
          "midi": 82,
          "name": "A#5",
          "ticks": 541440,
          "time": 461.5946373333334,
          "velocity": 0.6299212598425197
        },
        {
          "duration": 1.7517187499998386,
          "durationTicks": 1360,
          "midi": 82,
          "name": "A#5",
          "ticks": 544800,
          "time": 465.0946373333334,
          "velocity": 0.5118110236220472
        },
        {
          "duration": 1.4875000000000114,
          "durationTicks": 476,
          "midi": 82,
          "name": "A#5",
          "ticks": 546240,
          "time": 466.98921325000003,
          "velocity": 0.5118110236220472
        },
        {
          "duration": 1.4958333333333371,
          "durationTicks": 1436,
          "midi": 79,
          "name": "G5",
          "ticks": 547680,
          "time": 471.48921325000003,
          "velocity": 0.5118110236220472
        },
        {
          "duration": 1.4958333333333371,
          "durationTicks": 1436,
          "midi": 84,
          "name": "C6",
          "ticks": 549120,
          "time": 472.98921325000003,
          "velocity": 0.5118110236220472
        },
        {
          "duration": 1.4958333333333371,
          "durationTicks": 1436,
          "midi": 82,
          "name": "A#5",
          "ticks": 550560,
          "time": 474.48921325000003,
          "velocity": 0.5118110236220472
        },
        {
          "duration": 1.4958333333333371,
          "durationTicks": 1436,
          "midi": 80,
          "name": "G#5",
          "ticks": 552000,
          "time": 475.98921325000003,
          "velocity": 0.5118110236220472
        },
        {
          "duration": 1.4958333333333371,
          "durationTicks": 1436,
          "midi": 79,
          "name": "G5",
          "ticks": 553440,
          "time": 477.48921325000003,
          "velocity": 0.5118110236220472
        },
        {
          "duration": 1.4958333333333371,
          "durationTicks": 1436,
          "midi": 77,
          "name": "F5",
          "ticks": 554880,
          "time": 478.98921325000003,
          "velocity": 0.5118110236220472
        },
        {
          "duration": 1.4958333333333371,
          "durationTicks": 1436,
          "midi": 75,
          "name": "D#5",
          "ticks": 556320,
          "time": 480.48921325000003,
          "velocity": 0.5118110236220472
        },
        {
          "duration": 1.4958333333333371,
          "durationTicks": 1436,
          "midi": 74,
          "name": "D5",
          "ticks": 557760,
          "time": 481.98921325000003,
          "velocity": 0.5118110236220472
        },
        {
          "duration": 0.14655168749999348,
          "durationTicks": 170,
          "midi": 75,
          "name": "D#5",
          "ticks": 559200,
          "time": 483.48921325000003,
          "velocity": 0.5905511811023622
        },
        {
          "duration": 0.14655168749999348,
          "durationTicks": 170,
          "midi": 70,
          "name": "A#4",
          "ticks": 559680,
          "time": 483.90300625000003,
          "velocity": 0.5905511811023622
        },
        {
          "duration": 0.14655168749999348,
          "durationTicks": 170,
          "midi": 77,
          "name": "F5",
          "ticks": 559920,
          "time": 484.10990275000006,
          "velocity": 0.5905511811023622
        },
        {
          "duration": 0.14655168749999348,
          "durationTicks": 170,
          "midi": 77,
          "name": "F5",
          "ticks": 560160,
          "time": 484.31679925000003,
          "velocity": 0.5905511811023622
        },
        {
          "duration": 0.14655168749999348,
          "durationTicks": 170,
          "midi": 77,
          "name": "F5",
          "ticks": 560400,
          "time": 484.52369575000006,
          "velocity": 0.5905511811023622
        },
        {
          "duration": 0.20689650000002757,
          "durationTicks": 240,
          "midi": 78,
          "name": "F#5",
          "ticks": 560640,
          "time": 484.73059225000003,
          "velocity": 0.5905511811023622
        },
        {
          "duration": 0.14655168749999348,
          "durationTicks": 170,
          "midi": 79,
          "name": "G5",
          "ticks": 560880,
          "time": 484.93748875000006,
          "velocity": 0.5905511811023622
        },
        {
          "duration": 0.14655168749999348,
          "durationTicks": 170,
          "midi": 75,
          "name": "D#5",
          "ticks": 561120,
          "time": 485.14438525,
          "velocity": 0.5905511811023622
        },
        {
          "duration": 0.05172412499996426,
          "durationTicks": 60,
          "midi": 75,
          "name": "D#5",
          "ticks": 561360,
          "time": 485.35128175000006,
          "velocity": 0.5905511811023622
        },
        {
          "duration": 0.15517237500000647,
          "durationTicks": 180,
          "midi": 74,
          "name": "D5",
          "ticks": 561420,
          "time": 485.403005875,
          "velocity": 0.5905511811023622
        },
        {
          "duration": 0.20689650000002757,
          "durationTicks": 240,
          "midi": 72,
          "name": "C5",
          "ticks": 561600,
          "time": 485.55817825,
          "velocity": 0.5905511811023622
        },
        {
          "duration": 0.16551719999995385,
          "durationTicks": 192,
          "midi": 74,
          "name": "D5",
          "ticks": 561840,
          "time": 485.76507475000005,
          "velocity": 0.5905511811023622
        },
        {
          "duration": 0.14655168749999348,
          "durationTicks": 170,
          "midi": 75,
          "name": "D#5",
          "ticks": 562080,
          "time": 485.97197125,
          "velocity": 0.5905511811023622
        },
        {
          "duration": 0.14655168749999348,
          "durationTicks": 170,
          "midi": 70,
          "name": "A#4",
          "ticks": 562560,
          "time": 486.38576425,
          "velocity": 0.5905511811023622
        },
        {
          "duration": 0.14655168749999348,
          "durationTicks": 170,
          "midi": 77,
          "name": "F5",
          "ticks": 562800,
          "time": 486.59266075000005,
          "velocity": 0.5905511811023622
        },
        {
          "duration": 0.14655168749999348,
          "durationTicks": 170,
          "midi": 77,
          "name": "F5",
          "ticks": 563040,
          "time": 486.79955725,
          "velocity": 0.5905511811023622
        },
        {
          "duration": 0.14655168749999348,
          "durationTicks": 170,
          "midi": 77,
          "name": "F5",
          "ticks": 563280,
          "time": 487.00645375000005,
          "velocity": 0.5905511811023622
        },
        {
          "duration": 0.20689650000002757,
          "durationTicks": 240,
          "midi": 78,
          "name": "F#5",
          "ticks": 563520,
          "time": 487.21335025,
          "velocity": 0.5905511811023622
        },
        {
          "duration": 0.14655168749999348,
          "durationTicks": 170,
          "midi": 79,
          "name": "G5",
          "ticks": 563760,
          "time": 487.42024675000005,
          "velocity": 0.5905511811023622
        },
        {
          "duration": 0.14655168749999348,
          "durationTicks": 170,
          "midi": 75,
          "name": "D#5",
          "ticks": 564000,
          "time": 487.62714325,
          "velocity": 0.5905511811023622
        },
        {
          "duration": 0.20689649999997073,
          "durationTicks": 240,
          "midi": 75,
          "name": "D#5",
          "ticks": 564240,
          "time": 487.83403975000004,
          "velocity": 0.5905511811023622
        },
        {
          "duration": 0.14655168749999348,
          "durationTicks": 170,
          "midi": 77,
          "name": "F5",
          "ticks": 564480,
          "time": 488.04093625,
          "velocity": 0.5905511811023622
        },
        {
          "duration": 0.14655168749999348,
          "durationTicks": 170,
          "midi": 74,
          "name": "D5",
          "ticks": 564720,
          "time": 488.24783275000004,
          "velocity": 0.5905511811023622
        },
        {
          "duration": 0.13793100000003733,
          "durationTicks": 160,
          "midi": 75,
          "name": "D#5",
          "ticks": 564960,
          "time": 488.45472925,
          "velocity": 0.5905511811023622
        }
      ]
    },
    {
      "channel": 0,
      "controlChanges": {},
      "pitchBends": [],
      "instrument": {
        "family": "piano",
        "number": 0,
        "name": "acoustic grand piano"
      },
      "name": "Solo Bb Clarinet",
      "notes": [],
      "endOfTrackTicks": 566400
    },
    {
      "channel": 1,
      "controlChanges": {
        "7": [
          {
            "number": 7,
            "ticks": 0,
            "time": 0,
            "value": 0.905511811023622
          }
        ],
        "10": [
          {
            "number": 10,
            "ticks": 0,
            "time": 0,
            "value": 0.4330708661417323
          }
        ],
        "91": [
          {
            "number": 91,
            "ticks": 0,
            "time": 0,
            "value": 0.7086614173228346
          }
        ]
      },
      "pitchBends": [],
      "instrument": {
        "family": "reed",
        "number": 71,
        "name": "clarinet"
      },
      "name": "",
      "notes": [
        {
          "duration": 0.1290319999999996,
          "durationTicks": 160,
          "midi": 67,
          "name": "G4",
          "ticks": 2400,
          "time": 1.93548,
          "velocity": 0.5118110236220472
        },
        {
          "duration": 0.12903200000000004,
          "durationTicks": 160,
          "midi": 67,
          "name": "G4",
          "ticks": 2880,
          "time": 2.3225759999999998,
          "velocity": 0.5118110236220472
        },
        {
          "duration": 0.12903200000000004,
          "durationTicks": 160,
          "midi": 68,
          "name": "G#4",
          "ticks": 4320,
          "time": 3.483864,
          "velocity": 0.5118110236220472
        },
        {
          "duration": 0.12903200000000004,
          "durationTicks": 160,
          "midi": 68,
          "name": "G#4",
          "ticks": 4800,
          "time": 3.87096,
          "velocity": 0.5118110236220472
        },
        {
          "duration": 0.12903200000000048,
          "durationTicks": 160,
          "midi": 67,
          "name": "G4",
          "ticks": 5760,
          "time": 4.6451519999999995,
          "velocity": 0.5118110236220472
        },
        {
          "duration": 0.12903200000000048,
          "durationTicks": 160,
          "midi": 67,
          "name": "G4",
          "ticks": 6240,
          "time": 5.032248,
          "velocity": 0.5118110236220472
        },
        {
          "duration": 0.12903200000000048,
          "durationTicks": 160,
          "midi": 68,
          "name": "G#4",
          "ticks": 6720,
          "time": 5.419344,
          "velocity": 0.5118110236220472
        },
        {
          "duration": 0.1290319999999996,
          "durationTicks": 160,
          "midi": 68,
          "name": "G#4",
          "ticks": 7200,
          "time": 5.80644,
          "velocity": 0.5118110236220472
        },
        {
          "duration": 0.19354799999999983,
          "durationTicks": 240,
          "midi": 65,
          "name": "F4",
          "ticks": 7680,
          "time": 6.193536,
          "velocity": 0.5118110236220472
        },
        {
          "duration": 0.19354799999999983,
          "durationTicks": 240,
          "midi": 63,
          "name": "D#4",
          "ticks": 7920,
          "time": 6.387084,
          "velocity": 0.5118110236220472
        },
        {
          "duration": 0.19354800000000072,
          "durationTicks": 240,
          "midi": 62,
          "name": "D4",
          "ticks": 8160,
          "time": 6.580632,
          "velocity": 0.5118110236220472
        },
        {
          "duration": 0.19354799999999983,
          "durationTicks": 240,
          "midi": 60,
          "name": "C4",
          "ticks": 8400,
          "time": 6.77418,
          "velocity": 0.5118110236220472
        },
        {
          "duration": 0.1290319999999996,
          "durationTicks": 160,
          "midi": 58,
          "name": "A#3",
          "ticks": 8640,
          "time": 6.967728,
          "velocity": 0.5118110236220472
        },
        {
          "duration": 0.1290319999999987,
          "durationTicks": 160,
          "midi": 72,
          "name": "C5",
          "ticks": 10080,
          "time": 8.129016,
          "velocity": 0.5118110236220472
        },
        {
          "duration": 0.12903200000000048,
          "durationTicks": 160,
          "midi": 72,
          "name": "C5",
          "ticks": 11040,
          "time": 8.903208,
          "velocity": 0.5118110236220472
        },
        {
          "duration": 0.1290319999999987,
          "durationTicks": 160,
          "midi": 70,
          "name": "A#4",
          "ticks": 12000,
          "time": 9.6774,
          "velocity": 0.5118110236220472
        },
        {
          "duration": 0.12903200000000048,
          "durationTicks": 160,
          "midi": 70,
          "name": "A#4",
          "ticks": 12960,
          "time": 10.451592,
          "velocity": 0.5118110236220472
        },
        {
          "duration": 0.12903200000000048,
          "durationTicks": 160,
          "midi": 72,
          "name": "C5",
          "ticks": 13920,
          "time": 11.225783999999999,
          "velocity": 0.5118110236220472
        },
        {
          "duration": 0.1290319999999987,
          "durationTicks": 160,
          "midi": 68,
          "name": "G#4",
          "ticks": 14880,
          "time": 11.999976,
          "velocity": 0.5118110236220472
        },
        {
          "duration": 0.6129020000000001,
          "durationTicks": 760,
          "midi": 67,
          "name": "G4",
          "ticks": 15360,
          "time": 12.387072,
          "velocity": 0.5118110236220472
        },
        {
          "duration": 0.12903200000000226,
          "durationTicks": 160,
          "midi": 72,
          "name": "C5",
          "ticks": 25440,
          "time": 20.516088,
          "velocity": 0.5118110236220472
        },
        {
          "duration": 0.12903200000000226,
          "durationTicks": 160,
          "midi": 72,
          "name": "C5",
          "ticks": 26400,
          "time": 21.29028,
          "velocity": 0.5118110236220472
        },
        {
          "duration": 0.12903200000000226,
          "durationTicks": 160,
          "midi": 70,
          "name": "A#4",
          "ticks": 27360,
          "time": 22.064472,
          "velocity": 0.5118110236220472
        },
        {
          "duration": 0.1290319999999987,
          "durationTicks": 160,
          "midi": 70,
          "name": "A#4",
          "ticks": 28320,
          "time": 22.838664,
          "velocity": 0.5118110236220472
        },
        {
          "duration": 0.1290319999999987,
          "durationTicks": 160,
          "midi": 72,
          "name": "C5",
          "ticks": 29280,
          "time": 23.612856,
          "velocity": 0.5118110236220472
        },
        {
          "duration": 0.12903200000000226,
          "durationTicks": 160,
          "midi": 68,
          "name": "G#4",
          "ticks": 30240,
          "time": 24.387048,
          "velocity": 0.5118110236220472
        },
        {
          "duration": 0.6129019999999983,
          "durationTicks": 760,
          "midi": 67,
          "name": "G4",
          "ticks": 30720,
          "time": 24.774144,
          "velocity": 0.5118110236220472
        },
        {
          "duration": 0.12903199999999515,
          "durationTicks": 160,
          "midi": 70,
          "name": "A#4",
          "ticks": 47520,
          "time": 38.322504,
          "velocity": 0.5905511811023622
        },
        {
          "duration": 0.5774181999999968,
          "durationTicks": 716,
          "midi": 70,
          "name": "A#4",
          "ticks": 48000,
          "time": 38.7096,
          "velocity": 0.5905511811023622
        },
        {
          "duration": 0.09677399999999636,
          "durationTicks": 120,
          "midi": 72,
          "name": "C5",
          "ticks": 48720,
          "time": 39.290244,
          "velocity": 0.5905511811023622
        },
        {
          "duration": 0.09677400000000347,
          "durationTicks": 120,
          "midi": 74,
          "name": "D5",
          "ticks": 48840,
          "time": 39.387018,
          "velocity": 0.5905511811023622
        },
        {
          "duration": 0.11693524999999738,
          "durationTicks": 145,
          "midi": 75,
          "name": "D#5",
          "ticks": 48960,
          "time": 39.483792,
          "velocity": 0.5905511811023622
        },
        {
          "duration": 0.11693524999999738,
          "durationTicks": 145,
          "midi": 77,
          "name": "F5",
          "ticks": 49200,
          "time": 39.67734,
          "velocity": 0.5905511811023622
        },
        {
          "duration": 0.11693524999999738,
          "durationTicks": 145,
          "midi": 79,
          "name": "G5",
          "ticks": 49440,
          "time": 39.870888,
          "velocity": 0.5905511811023622
        },
        {
          "duration": 0.5774181999999968,
          "durationTicks": 716,
          "midi": 70,
          "name": "A#4",
          "ticks": 49920,
          "time": 40.257984,
          "velocity": 0.5905511811023622
        },
        {
          "duration": 0.06129020000000196,
          "durationTicks": 76,
          "midi": 72,
          "name": "C5",
          "ticks": 50640,
          "time": 40.838628,
          "velocity": 0.5905511811023622
        },
        {
          "duration": 0.061290199999994854,
          "durationTicks": 76,
          "midi": 74,
          "name": "D5",
          "ticks": 50720,
          "time": 40.903144000000005,
          "velocity": 0.5905511811023622
        },
        {
          "duration": 0.06129020000000196,
          "durationTicks": 76,
          "midi": 75,
          "name": "D#5",
          "ticks": 50800,
          "time": 40.967659999999995,
          "velocity": 0.5905511811023622
        },
        {
          "duration": 0.11693524999999738,
          "durationTicks": 145,
          "midi": 77,
          "name": "F5",
          "ticks": 50880,
          "time": 41.032176,
          "velocity": 0.5905511811023622
        },
        {
          "duration": 0.11693524999999738,
          "durationTicks": 145,
          "midi": 79,
          "name": "G5",
          "ticks": 51120,
          "time": 41.225724,
          "velocity": 0.5905511811023622
        },
        {
          "duration": 0.11693524999999738,
          "durationTicks": 145,
          "midi": 80,
          "name": "G#5",
          "ticks": 51360,
          "time": 41.419272,
          "velocity": 0.5905511811023622
        },
        {
          "duration": 0.23387050000000187,
          "durationTicks": 290,
          "midi": 82,
          "name": "A#5",
          "ticks": 55200,
          "time": 44.51604,
          "velocity": 0.5905511811023622
        },
        {
          "duration": 0.5774182000000039,
          "durationTicks": 716,
          "midi": 72,
          "name": "C5",
          "ticks": 55680,
          "time": 44.903135999999996,
          "velocity": 0.5905511811023622
        },
        {
          "duration": 0.09677399999999636,
          "durationTicks": 120,
          "midi": 74,
          "name": "D5",
          "ticks": 56400,
          "time": 45.48378,
          "velocity": 0.5905511811023622
        },
        {
          "duration": 0.09677400000000347,
          "durationTicks": 120,
          "midi": 76,
          "name": "E5",
          "ticks": 56520,
          "time": 45.580554,
          "velocity": 0.5905511811023622
        },
        {
          "duration": 0.11693524999999738,
          "durationTicks": 145,
          "midi": 77,
          "name": "F5",
          "ticks": 56640,
          "time": 45.677328,
          "velocity": 0.5905511811023622
        },
        {
          "duration": 0.11693524999999738,
          "durationTicks": 145,
          "midi": 79,
          "name": "G5",
          "ticks": 56880,
          "time": 45.870876,
          "velocity": 0.5905511811023622
        },
        {
          "duration": 0.11693524999999738,
          "durationTicks": 145,
          "midi": 80,
          "name": "G#5",
          "ticks": 57120,
          "time": 46.064424,
          "velocity": 0.5905511811023622
        },
        {
          "duration": 0.5774181999999968,
          "durationTicks": 716,
          "midi": 70,
          "name": "A#4",
          "ticks": 57600,
          "time": 46.45152,
          "velocity": 0.5905511811023622
        },
        {
          "duration": 0.09677399999999636,
          "durationTicks": 120,
          "midi": 72,
          "name": "C5",
          "ticks": 58320,
          "time": 47.032164,
          "velocity": 0.5905511811023622
        },
        {
          "duration": 0.09677400000000347,
          "durationTicks": 120,
          "midi": 74,
          "name": "D5",
          "ticks": 58440,
          "time": 47.128938,
          "velocity": 0.5905511811023622
        },
        {
          "duration": 0.11693524999999738,
          "durationTicks": 145,
          "midi": 75,
          "name": "D#5",
          "ticks": 58560,
          "time": 47.225712,
          "velocity": 0.5905511811023622
        },
        {
          "duration": 0.11693524999999738,
          "durationTicks": 145,
          "midi": 77,
          "name": "F5",
          "ticks": 58800,
          "time": 47.41926,
          "velocity": 0.5905511811023622
        },
        {
          "duration": 0.11693524999999738,
          "durationTicks": 145,
          "midi": 79,
          "name": "G5",
          "ticks": 59040,
          "time": 47.612808,
          "velocity": 0.5905511811023622
        },
        {
          "duration": 0.12903200000000226,
          "durationTicks": 160,
          "midi": 79,
          "name": "G5",
          "ticks": 62880,
          "time": 50.709576,
          "velocity": 0.5905511811023622
        },
        {
          "duration": 0.12903200000000226,
          "durationTicks": 160,
          "midi": 79,
          "name": "G5",
          "ticks": 63360,
          "time": 51.096672,
          "velocity": 0.5905511811023622
        },
        {
          "duration": 0.12903200000000226,
          "durationTicks": 160,
          "midi": 79,
          "name": "G5",
          "ticks": 63840,
          "time": 51.483768,
          "velocity": 0.5905511811023622
        },
        {
          "duration": 0.12903200000000226,
          "durationTicks": 160,
          "midi": 79,
          "name": "G5",
          "ticks": 64320,
          "time": 51.870864,
          "velocity": 0.5905511811023622
        },
        {
          "duration": 0.12903200000000936,
          "durationTicks": 160,
          "midi": 79,
          "name": "G5",
          "ticks": 64800,
          "time": 52.25796,
          "velocity": 0.5905511811023622
        },
        {
          "duration": 0.5774182000000039,
          "durationTicks": 716,
          "midi": 79,
          "name": "G5",
          "ticks": 65280,
          "time": 52.645056,
          "velocity": 0.5905511811023622
        },
        {
          "duration": 0.06129020000000196,
          "durationTicks": 76,
          "midi": 77,
          "name": "F5",
          "ticks": 66000,
          "time": 53.225699999999996,
          "velocity": 0.5905511811023622
        },
        {
          "duration": 0.06129020000000196,
          "durationTicks": 76,
          "midi": 75,
          "name": "D#5",
          "ticks": 66080,
          "time": 53.290215999999994,
          "velocity": 0.5905511811023622
        },
        {
          "duration": 0.061290199999994854,
          "durationTicks": 76,
          "midi": 74,
          "name": "D5",
          "ticks": 66160,
          "time": 53.354732000000006,
          "velocity": 0.5905511811023622
        },
        {
          "duration": 0.11693525000000449,
          "durationTicks": 145,
          "midi": 72,
          "name": "C5",
          "ticks": 66240,
          "time": 53.419247999999996,
          "velocity": 0.5905511811023622
        },
        {
          "duration": 0.11693525000000449,
          "durationTicks": 145,
          "midi": 74,
          "name": "D5",
          "ticks": 66480,
          "time": 53.612795999999996,
          "velocity": 0.5905511811023622
        },
        {
          "duration": 0.11693524999999738,
          "durationTicks": 145,
          "midi": 75,
          "name": "D#5",
          "ticks": 66720,
          "time": 53.806344,
          "velocity": 0.5905511811023622
        },
        {
          "duration": 0.11693524999999738,
          "durationTicks": 145,
          "midi": 76,
          "name": "E5",
          "ticks": 66960,
          "time": 53.999892,
          "velocity": 0.5905511811023622
        },
        {
          "duration": 0.12903200000000226,
          "durationTicks": 160,
          "midi": 77,
          "name": "F5",
          "ticks": 67200,
          "time": 54.19344,
          "velocity": 0.5905511811023622
        },
        {
          "duration": 0.12903200000000226,
          "durationTicks": 160,
          "midi": 77,
          "name": "F5",
          "ticks": 67680,
          "time": 54.580536,
          "velocity": 0.5905511811023622
        },
        {
          "duration": 0.12903200000000226,
          "durationTicks": 160,
          "midi": 77,
          "name": "F5",
          "ticks": 68160,
          "time": 54.967632,
          "velocity": 0.5905511811023622
        },
        {
          "duration": 0.12903200000000226,
          "durationTicks": 160,
          "midi": 77,
          "name": "F5",
          "ticks": 68640,
          "time": 55.354728,
          "velocity": 0.5905511811023622
        },
        {
          "duration": 0.5774182000000039,
          "durationTicks": 716,
          "midi": 77,
          "name": "F5",
          "ticks": 69120,
          "time": 55.741824,
          "velocity": 0.5905511811023622
        },
        {
          "duration": 0.061290199999994854,
          "durationTicks": 76,
          "midi": 75,
          "name": "D#5",
          "ticks": 69840,
          "time": 56.322468,
          "velocity": 0.5905511811023622
        },
        {
          "duration": 0.061290199999994854,
          "durationTicks": 76,
          "midi": 74,
          "name": "D5",
          "ticks": 69920,
          "time": 56.386984,
          "velocity": 0.5905511811023622
        },
        {
          "duration": 0.06129020000000196,
          "durationTicks": 76,
          "midi": 72,
          "name": "C5",
          "ticks": 70000,
          "time": 56.4515,
          "velocity": 0.5905511811023622
        },
        {
          "duration": 0.12903200000000226,
          "durationTicks": 160,
          "midi": 70,
          "name": "A#4",
          "ticks": 70080,
          "time": 56.516016,
          "velocity": 0.5905511811023622
        },
        {
          "duration": 0.23387049999999476,
          "durationTicks": 290,
          "midi": 82,
          "name": "A#5",
          "ticks": 70560,
          "time": 56.903112,
          "velocity": 0.5905511811023622
        },
        {
          "duration": 0.5774182000000039,
          "durationTicks": 716,
          "midi": 72,
          "name": "C5",
          "ticks": 71040,
          "time": 57.290208,
          "velocity": 0.5905511811023622
        },
        {
          "duration": 0.09677400000000347,
          "durationTicks": 120,
          "midi": 74,
          "name": "D5",
          "ticks": 71760,
          "time": 57.870852,
          "velocity": 0.5905511811023622
        },
        {
          "duration": 0.09677399999999636,
          "durationTicks": 120,
          "midi": 76,
          "name": "E5",
          "ticks": 71880,
          "time": 57.967626,
          "velocity": 0.5905511811023622
        },
        {
          "duration": 0.11693525000000449,
          "durationTicks": 145,
          "midi": 77,
          "name": "F5",
          "ticks": 72000,
          "time": 58.0644,
          "velocity": 0.5905511811023622
        },
        {
          "duration": 0.11693525000000449,
          "durationTicks": 145,
          "midi": 79,
          "name": "G5",
          "ticks": 72240,
          "time": 58.257948,
          "velocity": 0.5905511811023622
        },
        {
          "duration": 0.11693525000000449,
          "durationTicks": 145,
          "midi": 80,
          "name": "G#5",
          "ticks": 72480,
          "time": 58.451496,
          "velocity": 0.5905511811023622
        },
        {
          "duration": 0.5774182000000039,
          "durationTicks": 716,
          "midi": 70,
          "name": "A#4",
          "ticks": 72960,
          "time": 58.838592,
          "velocity": 0.5905511811023622
        },
        {
          "duration": 0.09677400000000347,
          "durationTicks": 120,
          "midi": 72,
          "name": "C5",
          "ticks": 73680,
          "time": 59.419236,
          "velocity": 0.5905511811023622
        },
        {
          "duration": 0.09677399999999636,
          "durationTicks": 120,
          "midi": 74,
          "name": "D5",
          "ticks": 73800,
          "time": 59.51601,
          "velocity": 0.5905511811023622
        },
        {
          "duration": 0.11693525000000449,
          "durationTicks": 145,
          "midi": 75,
          "name": "D#5",
          "ticks": 73920,
          "time": 59.612784,
          "velocity": 0.5905511811023622
        },
        {
          "duration": 0.11693525000000449,
          "durationTicks": 145,
          "midi": 77,
          "name": "F5",
          "ticks": 74160,
          "time": 59.806332,
          "velocity": 0.5905511811023622
        },
        {
          "duration": 0.11693525000000449,
          "durationTicks": 145,
          "midi": 79,
          "name": "G5",
          "ticks": 74400,
          "time": 59.99988,
          "velocity": 0.5905511811023622
        },
        {
          "duration": 0.23387049999999476,
          "durationTicks": 290,
          "midi": 74,
          "name": "D5",
          "ticks": 101280,
          "time": 81.677256,
          "velocity": 0.5511811023622047
        },
        {
          "duration": 0.7741919999999993,
          "durationTicks": 960,
          "midi": 76,
          "name": "E5",
          "ticks": 101760,
          "time": 82.064352,
          "velocity": 0.5511811023622047
        },
        {
          "duration": 0.7741919999999993,
          "durationTicks": 960,
          "midi": 77,
          "name": "F5",
          "ticks": 102720,
          "time": 82.838544,
          "velocity": 0.5511811023622047
        },
        {
          "duration": 0.7741919999999993,
          "durationTicks": 960,
          "midi": 74,
          "name": "D5",
          "ticks": 103680,
          "time": 83.612736,
          "velocity": 0.5511811023622047
        },
        {
          "duration": 0.7096760000000017,
          "durationTicks": 880,
          "midi": 75,
          "name": "D#5",
          "ticks": 104640,
          "time": 84.386928,
          "velocity": 0.5511811023622047
        },
        {
          "duration": 0.6129020000000054,
          "durationTicks": 760,
          "midi": 72,
          "name": "C5",
          "ticks": 105600,
          "time": 85.16112,
          "velocity": 0.5511811023622047
        },
        {
          "duration": 0.23387049999999476,
          "durationTicks": 290,
          "midi": 68,
          "name": "G#4",
          "ticks": 107040,
          "time": 86.322408,
          "velocity": 0.5511811023622047
        },
        {
          "duration": 0.7741919999999993,
          "durationTicks": 960,
          "midi": 68,
          "name": "G#4",
          "ticks": 107520,
          "time": 86.709504,
          "velocity": 0.5511811023622047
        },
        {
          "duration": 0.12903200000000936,
          "durationTicks": 160,
          "midi": 67,
          "name": "G4",
          "ticks": 108480,
          "time": 87.483696,
          "velocity": 0.5511811023622047
        },
        {
          "duration": 0.23387049999999476,
          "durationTicks": 290,
          "midi": 74,
          "name": "D5",
          "ticks": 116640,
          "time": 94.064328,
          "velocity": 0.5511811023622047
        },
        {
          "duration": 0.7741919999999993,
          "durationTicks": 960,
          "midi": 76,
          "name": "E5",
          "ticks": 117120,
          "time": 94.451424,
          "velocity": 0.5511811023622047
        },
        {
          "duration": 0.7741919999999993,
          "durationTicks": 960,
          "midi": 77,
          "name": "F5",
          "ticks": 118080,
          "time": 95.225616,
          "velocity": 0.5511811023622047
        },
        {
          "duration": 0.7741919999999993,
          "durationTicks": 960,
          "midi": 74,
          "name": "D5",
          "ticks": 119040,
          "time": 95.999808,
          "velocity": 0.5511811023622047
        },
        {
          "duration": 0.7096760000000017,
          "durationTicks": 880,
          "midi": 75,
          "name": "D#5",
          "ticks": 120000,
          "time": 96.774,
          "velocity": 0.5511811023622047
        },
        {
          "duration": 0.6129020000000054,
          "durationTicks": 760,
          "midi": 72,
          "name": "C5",
          "ticks": 120960,
          "time": 97.548192,
          "velocity": 0.5511811023622047
        },
        {
          "duration": 0.23387049999999476,
          "durationTicks": 290,
          "midi": 68,
          "name": "G#4",
          "ticks": 122400,
          "time": 98.70948,
          "velocity": 0.5511811023622047
        },
        {
          "duration": 0.7741919999999993,
          "durationTicks": 960,
          "midi": 68,
          "name": "G#4",
          "ticks": 122880,
          "time": 99.096576,
          "velocity": 0.5511811023622047
        },
        {
          "duration": 0.12903199999999515,
          "durationTicks": 160,
          "midi": 67,
          "name": "G4",
          "ticks": 123840,
          "time": 99.870768,
          "velocity": 0.5511811023622047
        },
        {
          "duration": 0.23387050000000897,
          "durationTicks": 290,
          "midi": 58,
          "name": "A#3",
          "ticks": 139680,
          "time": 112.644936,
          "velocity": 0.5905511811023622
        },
        {
          "duration": 0.0846772499999986,
          "durationTicks": 105,
          "midi": 51,
          "name": "D#3",
          "ticks": 140160,
          "time": 113.032032,
          "velocity": 0.5905511811023622
        },
        {
          "duration": 0.0846772499999986,
          "durationTicks": 105,
          "midi": 55,
          "name": "G3",
          "ticks": 140320,
          "time": 113.161064,
          "velocity": 0.5905511811023622
        },
        {
          "duration": 0.0846772499999986,
          "durationTicks": 105,
          "midi": 58,
          "name": "A#3",
          "ticks": 140480,
          "time": 113.290096,
          "velocity": 0.5905511811023622
        },
        {
          "duration": 0.0846772499999986,
          "durationTicks": 105,
          "midi": 63,
          "name": "D#4",
          "ticks": 140640,
          "time": 113.419128,
          "velocity": 0.5905511811023622
        },
        {
          "duration": 0.0846772499999986,
          "durationTicks": 105,
          "midi": 67,
          "name": "G4",
          "ticks": 140800,
          "time": 113.54816,
          "velocity": 0.5905511811023622
        },
        {
          "duration": 0.0846772499999986,
          "durationTicks": 105,
          "midi": 70,
          "name": "A#4",
          "ticks": 140960,
          "time": 113.677192,
          "velocity": 0.5905511811023622
        },
        {
          "duration": 0.0846772499999986,
          "durationTicks": 105,
          "midi": 75,
          "name": "D#5",
          "ticks": 141120,
          "time": 113.806224,
          "velocity": 0.5905511811023622
        },
        {
          "duration": 0.0846772499999986,
          "durationTicks": 105,
          "midi": 79,
          "name": "G5",
          "ticks": 141280,
          "time": 113.935256,
          "velocity": 0.5905511811023622
        },
        {
          "duration": 0.0846772499999986,
          "durationTicks": 105,
          "midi": 77,
          "name": "F5",
          "ticks": 141440,
          "time": 114.064288,
          "velocity": 0.5905511811023622
        },
        {
          "duration": 0.0846772499999986,
          "durationTicks": 105,
          "midi": 75,
          "name": "D#5",
          "ticks": 141600,
          "time": 114.19332,
          "velocity": 0.5905511811023622
        },
        {
          "duration": 0.09354820000000075,
          "durationTicks": 116,
          "midi": 77,
          "name": "F5",
          "ticks": 141600,
          "time": 114.19332,
          "velocity": 0.5905511811023622
        },
        {
          "duration": 0.0846772499999986,
          "durationTicks": 105,
          "midi": 74,
          "name": "D5",
          "ticks": 141760,
          "time": 114.322352,
          "velocity": 0.5905511811023622
        },
        {
          "duration": 0.0846772499999986,
          "durationTicks": 105,
          "midi": 75,
          "name": "D#5",
          "ticks": 141920,
          "time": 114.451384,
          "velocity": 0.5905511811023622
        },
        {
          "duration": 0.12903199999999515,
          "durationTicks": 160,
          "midi": 74,
          "name": "D5",
          "ticks": 142080,
          "time": 114.580416,
          "velocity": 0.5905511811023622
        },
        {
          "duration": 0.12903199999999515,
          "durationTicks": 160,
          "midi": 75,
          "name": "D#5",
          "ticks": 142200,
          "time": 114.67719,
          "velocity": 0.5905511811023622
        },
        {
          "duration": 0.12903199999999515,
          "durationTicks": 160,
          "midi": 76,
          "name": "E5",
          "ticks": 142400,
          "time": 114.83848,
          "velocity": 0.5905511811023622
        },
        {
          "duration": 0.12903199999999515,
          "durationTicks": 160,
          "midi": 77,
          "name": "F5",
          "ticks": 142560,
          "time": 114.967512,
          "velocity": 0.5905511811023622
        },
        {
          "duration": 0.12903199999999515,
          "durationTicks": 160,
          "midi": 79,
          "name": "G5",
          "ticks": 142680,
          "time": 115.064286,
          "velocity": 0.5905511811023622
        },
        {
          "duration": 0.12903199999999515,
          "durationTicks": 160,
          "midi": 77,
          "name": "F5",
          "ticks": 142880,
          "time": 115.225576,
          "velocity": 0.5905511811023622
        },
        {
          "duration": 0.12903199999999515,
          "durationTicks": 160,
          "midi": 75,
          "name": "D#5",
          "ticks": 143040,
          "time": 115.354608,
          "velocity": 0.5905511811023622
        },
        {
          "duration": 0.12903199999999515,
          "durationTicks": 160,
          "midi": 74,
          "name": "D5",
          "ticks": 143160,
          "time": 115.451382,
          "velocity": 0.5905511811023622
        },
        {
          "duration": 0.12903199999999515,
          "durationTicks": 160,
          "midi": 72,
          "name": "C5",
          "ticks": 143360,
          "time": 115.612672,
          "velocity": 0.5905511811023622
        },
        {
          "duration": 0.12903199999999515,
          "durationTicks": 160,
          "midi": 70,
          "name": "A#4",
          "ticks": 143520,
          "time": 115.741704,
          "velocity": 0.5905511811023622
        },
        {
          "duration": 0.12903199999999515,
          "durationTicks": 160,
          "midi": 74,
          "name": "D5",
          "ticks": 143640,
          "time": 115.838478,
          "velocity": 0.5905511811023622
        },
        {
          "duration": 0.12903199999999515,
          "durationTicks": 160,
          "midi": 77,
          "name": "F5",
          "ticks": 143840,
          "time": 115.999768,
          "velocity": 0.5905511811023622
        },
        {
          "duration": 0.12903199999999515,
          "durationTicks": 160,
          "midi": 75,
          "name": "D#5",
          "ticks": 144000,
          "time": 116.1288,
          "velocity": 0.5905511811023622
        },
        {
          "duration": 0.060483750000003056,
          "durationTicks": 75,
          "midi": 79,
          "name": "G5",
          "ticks": 144120,
          "time": 116.225574,
          "velocity": 0.5905511811023622
        },
        {
          "duration": 0.060483750000003056,
          "durationTicks": 75,
          "midi": 75,
          "name": "D#5",
          "ticks": 144320,
          "time": 116.386864,
          "velocity": 0.5905511811023622
        },
        {
          "duration": 0.12903199999999515,
          "durationTicks": 160,
          "midi": 77,
          "name": "F5",
          "ticks": 144480,
          "time": 116.515896,
          "velocity": 0.5905511811023622
        },
        {
          "duration": 0.060483750000003056,
          "durationTicks": 75,
          "midi": 80,
          "name": "G#5",
          "ticks": 144600,
          "time": 116.61267,
          "velocity": 0.5905511811023622
        },
        {
          "duration": 0.060483750000003056,
          "durationTicks": 75,
          "midi": 77,
          "name": "F5",
          "ticks": 144800,
          "time": 116.77396,
          "velocity": 0.5905511811023622
        },
        {
          "duration": 0.12903199999999515,
          "durationTicks": 160,
          "midi": 79,
          "name": "G5",
          "ticks": 144960,
          "time": 116.902992,
          "velocity": 0.5905511811023622
        },
        {
          "duration": 0.060483750000003056,
          "durationTicks": 75,
          "midi": 82,
          "name": "A#5",
          "ticks": 145080,
          "time": 116.999766,
          "velocity": 0.5905511811023622
        },
        {
          "duration": 0.060483750000003056,
          "durationTicks": 75,
          "midi": 79,
          "name": "G5",
          "ticks": 145280,
          "time": 117.161056,
          "velocity": 0.5905511811023622
        },
        {
          "duration": 0.12903199999999515,
          "durationTicks": 160,
          "midi": 80,
          "name": "G#5",
          "ticks": 145440,
          "time": 117.290088,
          "velocity": 0.5905511811023622
        },
        {
          "duration": 0.060483750000003056,
          "durationTicks": 75,
          "midi": 82,
          "name": "A#5",
          "ticks": 145560,
          "time": 117.386862,
          "velocity": 0.5905511811023622
        },
        {
          "duration": 0.060483750000003056,
          "durationTicks": 75,
          "midi": 80,
          "name": "G#5",
          "ticks": 145760,
          "time": 117.548152,
          "velocity": 0.5905511811023622
        },
        {
          "duration": 0.12903199999999515,
          "durationTicks": 160,
          "midi": 79,
          "name": "G5",
          "ticks": 145920,
          "time": 117.677184,
          "velocity": 0.5905511811023622
        },
        {
          "duration": 0.060483750000003056,
          "durationTicks": 75,
          "midi": 82,
          "name": "A#5",
          "ticks": 146040,
          "time": 117.773958,
          "velocity": 0.5905511811023622
        },
        {
          "duration": 0.060483750000003056,
          "durationTicks": 75,
          "midi": 81,
          "name": "A5",
          "ticks": 146240,
          "time": 117.935248,
          "velocity": 0.5905511811023622
        },
        {
          "duration": 0.12499975000001484,
          "durationTicks": 155,
          "midi": 82,
          "name": "A#5",
          "ticks": 146400,
          "time": 118.06428,
          "velocity": 0.5905511811023622
        },
        {
          "duration": 0.12499975000000063,
          "durationTicks": 155,
          "midi": 80,
          "name": "G#5",
          "ticks": 146560,
          "time": 118.19331199999999,
          "velocity": 0.5905511811023622
        },
        {
          "duration": 0.12499974999998642,
          "durationTicks": 155,
          "midi": 79,
          "name": "G5",
          "ticks": 146720,
          "time": 118.322344,
          "velocity": 0.5905511811023622
        },
        {
          "duration": 0.12903199999999515,
          "durationTicks": 160,
          "midi": 77,
          "name": "F5",
          "ticks": 146880,
          "time": 118.451376,
          "velocity": 0.5905511811023622
        },
        {
          "duration": 0.0846772499999986,
          "durationTicks": 105,
          "midi": 77,
          "name": "F5",
          "ticks": 148960,
          "time": 120.12879199999999,
          "velocity": 0.5905511811023622
        },
        {
          "duration": 0.0846772500000128,
          "durationTicks": 105,
          "midi": 79,
          "name": "G5",
          "ticks": 149120,
          "time": 120.257824,
          "velocity": 0.5905511811023622
        },
        {
          "duration": 0.12903199999999515,
          "durationTicks": 160,
          "midi": 82,
          "name": "A#5",
          "ticks": 149280,
          "time": 120.386856,
          "velocity": 0.5905511811023622
        },
        {
          "duration": 0.060483749999988845,
          "durationTicks": 75,
          "midi": 77,
          "name": "F5",
          "ticks": 149400,
          "time": 120.48363,
          "velocity": 0.5905511811023622
        },
        {
          "duration": 0.060483750000003056,
          "durationTicks": 75,
          "midi": 75,
          "name": "D#5",
          "ticks": 149600,
          "time": 120.64492,
          "velocity": 0.5905511811023622
        },
        {
          "duration": 0.6129019999999912,
          "durationTicks": 760,
          "midi": 74,
          "name": "D5",
          "ticks": 149760,
          "time": 120.773952,
          "velocity": 0.5905511811023622
        },
        {
          "duration": 0.0846772499999986,
          "durationTicks": 105,
          "midi": 75,
          "name": "D#5",
          "ticks": 150880,
          "time": 121.67717599999999,
          "velocity": 0.5905511811023622
        },
        {
          "duration": 0.0846772499999986,
          "durationTicks": 105,
          "midi": 77,
          "name": "F5",
          "ticks": 151040,
          "time": 121.80620800000001,
          "velocity": 0.5905511811023622
        },
        {
          "duration": 0.0846772499999986,
          "durationTicks": 105,
          "midi": 79,
          "name": "G5",
          "ticks": 151200,
          "time": 121.93524,
          "velocity": 0.5905511811023622
        },
        {
          "duration": 0.0846772499999986,
          "durationTicks": 105,
          "midi": 80,
          "name": "G#5",
          "ticks": 151360,
          "time": 122.06427199999999,
          "velocity": 0.5905511811023622
        },
        {
          "duration": 0.0846772499999986,
          "durationTicks": 105,
          "midi": 82,
          "name": "A#5",
          "ticks": 151520,
          "time": 122.19330400000001,
          "velocity": 0.5905511811023622
        },
        {
          "duration": 0.05241925000001402,
          "durationTicks": 65,
          "midi": 68,
          "name": "G#4",
          "ticks": 151680,
          "time": 122.32233599999999,
          "velocity": 0.5905511811023622
        },
        {
          "duration": 0.0846772499999986,
          "durationTicks": 105,
          "midi": 80,
          "name": "G#5",
          "ticks": 151840,
          "time": 122.45136799999999,
          "velocity": 0.5905511811023622
        },
        {
          "duration": 0.0846772499999986,
          "durationTicks": 105,
          "midi": 79,
          "name": "G5",
          "ticks": 152000,
          "time": 122.58040000000001,
          "velocity": 0.5905511811023622
        },
        {
          "duration": 0.12903199999999515,
          "durationTicks": 160,
          "midi": 77,
          "name": "F5",
          "ticks": 152160,
          "time": 122.70943199999999,
          "velocity": 0.5905511811023622
        },
        {
          "duration": 0.060483749999988845,
          "durationTicks": 75,
          "midi": 79,
          "name": "G5",
          "ticks": 152280,
          "time": 122.806206,
          "velocity": 0.5905511811023622
        },
        {
          "duration": 0.060483749999988845,
          "durationTicks": 75,
          "midi": 80,
          "name": "G#5",
          "ticks": 152480,
          "time": 122.96749600000001,
          "velocity": 0.5905511811023622
        },
        {
          "duration": 0.12903199999999515,
          "durationTicks": 160,
          "midi": 79,
          "name": "G5",
          "ticks": 152640,
          "time": 123.09652799999999,
          "velocity": 0.5905511811023622
        },
        {
          "duration": 0.060483749999988845,
          "durationTicks": 75,
          "midi": 82,
          "name": "A#5",
          "ticks": 152760,
          "time": 123.193302,
          "velocity": 0.5905511811023622
        },
        {
          "duration": 0.060483749999988845,
          "durationTicks": 75,
          "midi": 75,
          "name": "D#5",
          "ticks": 152960,
          "time": 123.35459200000001,
          "velocity": 0.5905511811023622
        },
        {
          "duration": 0.12903199999999515,
          "durationTicks": 160,
          "midi": 77,
          "name": "F5",
          "ticks": 153120,
          "time": 123.48362399999999,
          "velocity": 0.5905511811023622
        },
        {
          "duration": 0.060483750000003056,
          "durationTicks": 75,
          "midi": 80,
          "name": "G#5",
          "ticks": 153240,
          "time": 123.580398,
          "velocity": 0.5905511811023622
        },
        {
          "duration": 0.060483749999988845,
          "durationTicks": 75,
          "midi": 74,
          "name": "D5",
          "ticks": 153440,
          "time": 123.74168800000001,
          "velocity": 0.5905511811023622
        },
        {
          "duration": 0.7741919999999993,
          "durationTicks": 960,
          "midi": 77,
          "name": "F5",
          "ticks": 153600,
          "time": 123.87072,
          "velocity": 0.5905511811023622
        },
        {
          "duration": 0.12903199999998094,
          "durationTicks": 160,
          "midi": 75,
          "name": "D#5",
          "ticks": 154560,
          "time": 124.644912,
          "velocity": 0.5905511811023622
        },
        {
          "duration": 0.12903199999998094,
          "durationTicks": 160,
          "midi": 71,
          "name": "B4",
          "ticks": 155520,
          "time": 125.419104,
          "velocity": 0.5905511811023622
        },
        {
          "duration": 0.060483750000003056,
          "durationTicks": 75,
          "midi": 72,
          "name": "C5",
          "ticks": 155640,
          "time": 125.515878,
          "velocity": 0.5905511811023622
        },
        {
          "duration": 0.060483750000003056,
          "durationTicks": 75,
          "midi": 75,
          "name": "D#5",
          "ticks": 155840,
          "time": 125.67716800000001,
          "velocity": 0.5905511811023622
        },
        {
          "duration": 0.0846772499999986,
          "durationTicks": 105,
          "midi": 79,
          "name": "G5",
          "ticks": 156000,
          "time": 125.8062,
          "velocity": 0.5905511811023622
        },
        {
          "duration": 0.0846772500000128,
          "durationTicks": 105,
          "midi": 79,
          "name": "G5",
          "ticks": 156160,
          "time": 125.93523199999998,
          "velocity": 0.5905511811023622
        },
        {
          "duration": 0.0846772499999986,
          "durationTicks": 105,
          "midi": 79,
          "name": "G5",
          "ticks": 156320,
          "time": 126.06426400000001,
          "velocity": 0.5905511811023622
        },
        {
          "duration": 0.12903199999998094,
          "durationTicks": 160,
          "midi": 79,
          "name": "G5",
          "ticks": 156480,
          "time": 126.193296,
          "velocity": 0.5905511811023622
        },
        {
          "duration": 0.060483750000003056,
          "durationTicks": 75,
          "midi": 80,
          "name": "G#5",
          "ticks": 156600,
          "time": 126.29007,
          "velocity": 0.5905511811023622
        },
        {
          "duration": 0.060483750000003056,
          "durationTicks": 75,
          "midi": 79,
          "name": "G5",
          "ticks": 156800,
          "time": 126.45136000000001,
          "velocity": 0.5905511811023622
        },
        {
          "duration": 0.12903199999998094,
          "durationTicks": 160,
          "midi": 77,
          "name": "F5",
          "ticks": 156960,
          "time": 126.580392,
          "velocity": 0.5905511811023622
        },
        {
          "duration": 0.060483750000003056,
          "durationTicks": 75,
          "midi": 75,
          "name": "D#5",
          "ticks": 157080,
          "time": 126.677166,
          "velocity": 0.5905511811023622
        },
        {
          "duration": 0.060483750000003056,
          "durationTicks": 75,
          "midi": 74,
          "name": "D5",
          "ticks": 157280,
          "time": 126.83845600000001,
          "velocity": 0.5905511811023622
        },
        {
          "duration": 0.6129019999999912,
          "durationTicks": 760,
          "midi": 75,
          "name": "D#5",
          "ticks": 157440,
          "time": 126.967488,
          "velocity": 0.5905511811023622
        },
        {
          "duration": 0.0846772499999986,
          "durationTicks": 105,
          "midi": 69,
          "name": "A4",
          "ticks": 159360,
          "time": 128.515872,
          "velocity": 0.5905511811023622
        },
        {
          "duration": 0.0846772499999986,
          "durationTicks": 105,
          "midi": 72,
          "name": "C5",
          "ticks": 159520,
          "time": 128.644904,
          "velocity": 0.5905511811023622
        },
        {
          "duration": 0.08467725000002702,
          "durationTicks": 105,
          "midi": 77,
          "name": "F5",
          "ticks": 159680,
          "time": 128.773936,
          "velocity": 0.5905511811023622
        },
        {
          "duration": 0.0846772499999986,
          "durationTicks": 105,
          "midi": 77,
          "name": "F5",
          "ticks": 159840,
          "time": 128.902968,
          "velocity": 0.5905511811023622
        },
        {
          "duration": 0.0846772499999986,
          "durationTicks": 105,
          "midi": 77,
          "name": "F5",
          "ticks": 160000,
          "time": 129.03199999999998,
          "velocity": 0.5905511811023622
        },
        {
          "duration": 0.0846772499999986,
          "durationTicks": 105,
          "midi": 77,
          "name": "F5",
          "ticks": 160160,
          "time": 129.161032,
          "velocity": 0.5905511811023622
        },
        {
          "duration": 0.12903199999999515,
          "durationTicks": 160,
          "midi": 77,
          "name": "F5",
          "ticks": 160320,
          "time": 129.290064,
          "velocity": 0.5905511811023622
        },
        {
          "duration": 0.060483749999974634,
          "durationTicks": 75,
          "midi": 79,
          "name": "G5",
          "ticks": 160440,
          "time": 129.386838,
          "velocity": 0.5905511811023622
        },
        {
          "duration": 0.060483749999974634,
          "durationTicks": 75,
          "midi": 77,
          "name": "F5",
          "ticks": 160640,
          "time": 129.54812800000002,
          "velocity": 0.5905511811023622
        },
        {
          "duration": 0.12903199999999515,
          "durationTicks": 160,
          "midi": 75,
          "name": "D#5",
          "ticks": 160800,
          "time": 129.67716,
          "velocity": 0.5905511811023622
        },
        {
          "duration": 0.060483750000003056,
          "durationTicks": 75,
          "midi": 74,
          "name": "D5",
          "ticks": 160920,
          "time": 129.773934,
          "velocity": 0.5905511811023622
        },
        {
          "duration": 0.060483750000003056,
          "durationTicks": 75,
          "midi": 72,
          "name": "C5",
          "ticks": 161120,
          "time": 129.935224,
          "velocity": 0.5905511811023622
        },
        {
          "duration": 0.6129019999999912,
          "durationTicks": 760,
          "midi": 74,
          "name": "D5",
          "ticks": 161280,
          "time": 130.064256,
          "velocity": 0.5905511811023622
        },
        {
          "duration": 0.0846772499999986,
          "durationTicks": 105,
          "midi": 77,
          "name": "F5",
          "ticks": 164320,
          "time": 132.515864,
          "velocity": 0.5905511811023622
        },
        {
          "duration": 0.0846772499999986,
          "durationTicks": 105,
          "midi": 79,
          "name": "G5",
          "ticks": 164480,
          "time": 132.64489600000002,
          "velocity": 0.5905511811023622
        },
        {
          "duration": 0.12903199999996673,
          "durationTicks": 160,
          "midi": 80,
          "name": "G#5",
          "ticks": 164640,
          "time": 132.773928,
          "velocity": 0.5905511811023622
        },
        {
          "duration": 0.060483750000003056,
          "durationTicks": 75,
          "midi": 77,
          "name": "F5",
          "ticks": 164760,
          "time": 132.870702,
          "velocity": 0.5905511811023622
        },
        {
          "duration": 0.060483750000003056,
          "durationTicks": 75,
          "midi": 75,
          "name": "D#5",
          "ticks": 164960,
          "time": 133.031992,
          "velocity": 0.5905511811023622
        },
        {
          "duration": 0.6129019999999912,
          "durationTicks": 760,
          "midi": 74,
          "name": "D5",
          "ticks": 165120,
          "time": 133.161024,
          "velocity": 0.5905511811023622
        },
        {
          "duration": 0.0846772499999986,
          "durationTicks": 105,
          "midi": 75,
          "name": "D#5",
          "ticks": 166240,
          "time": 134.064248,
          "velocity": 0.5905511811023622
        },
        {
          "duration": 0.0846772499999986,
          "durationTicks": 105,
          "midi": 77,
          "name": "F5",
          "ticks": 166400,
          "time": 134.19328000000002,
          "velocity": 0.5905511811023622
        },
        {
          "duration": 0.0846772499999986,
          "durationTicks": 105,
          "midi": 79,
          "name": "G5",
          "ticks": 166560,
          "time": 134.322312,
          "velocity": 0.5905511811023622
        },
        {
          "duration": 0.08467725000002702,
          "durationTicks": 105,
          "midi": 80,
          "name": "G#5",
          "ticks": 166720,
          "time": 134.45134399999998,
          "velocity": 0.5905511811023622
        },
        {
          "duration": 0.0846772499999986,
          "durationTicks": 105,
          "midi": 82,
          "name": "A#5",
          "ticks": 166880,
          "time": 134.580376,
          "velocity": 0.5905511811023622
        },
        {
          "duration": 0.0846772499999986,
          "durationTicks": 105,
          "midi": 68,
          "name": "G#4",
          "ticks": 167040,
          "time": 134.709408,
          "velocity": 0.5905511811023622
        },
        {
          "duration": 0.0846772499999986,
          "durationTicks": 105,
          "midi": 80,
          "name": "G#5",
          "ticks": 167200,
          "time": 134.83844,
          "velocity": 0.5905511811023622
        },
        {
          "duration": 0.0846772499999986,
          "durationTicks": 105,
          "midi": 79,
          "name": "G5",
          "ticks": 167360,
          "time": 134.96747200000001,
          "velocity": 0.5905511811023622
        },
        {
          "duration": 0.12903199999999515,
          "durationTicks": 160,
          "midi": 77,
          "name": "F5",
          "ticks": 167520,
          "time": 135.096504,
          "velocity": 0.5905511811023622
        },
        {
          "duration": 0.060483750000003056,
          "durationTicks": 75,
          "midi": 79,
          "name": "G5",
          "ticks": 167640,
          "time": 135.193278,
          "velocity": 0.5905511811023622
        },
        {
          "duration": 0.060483750000003056,
          "durationTicks": 75,
          "midi": 80,
          "name": "G#5",
          "ticks": 167840,
          "time": 135.354568,
          "velocity": 0.5905511811023622
        },
        {
          "duration": 0.12903199999999515,
          "durationTicks": 160,
          "midi": 79,
          "name": "G5",
          "ticks": 168000,
          "time": 135.4836,
          "velocity": 0.5905511811023622
        },
        {
          "duration": 0.060483750000003056,
          "durationTicks": 75,
          "midi": 82,
          "name": "A#5",
          "ticks": 168120,
          "time": 135.580374,
          "velocity": 0.5905511811023622
        },
        {
          "duration": 0.060483750000003056,
          "durationTicks": 75,
          "midi": 75,
          "name": "D#5",
          "ticks": 168320,
          "time": 135.74166400000001,
          "velocity": 0.5905511811023622
        },
        {
          "duration": 0.12903199999999515,
          "durationTicks": 160,
          "midi": 77,
          "name": "F5",
          "ticks": 168480,
          "time": 135.870696,
          "velocity": 0.5905511811023622
        },
        {
          "duration": 0.060483750000003056,
          "durationTicks": 75,
          "midi": 80,
          "name": "G#5",
          "ticks": 168600,
          "time": 135.96747,
          "velocity": 0.5905511811023622
        },
        {
          "duration": 0.060483750000003056,
          "durationTicks": 75,
          "midi": 74,
          "name": "D5",
          "ticks": 168800,
          "time": 136.12876,
          "velocity": 0.5905511811023622
        },
        {
          "duration": 0.7741919999999993,
          "durationTicks": 960,
          "midi": 77,
          "name": "F5",
          "ticks": 168960,
          "time": 136.257792,
          "velocity": 0.5905511811023622
        },
        {
          "duration": 0.12903199999999515,
          "durationTicks": 160,
          "midi": 75,
          "name": "D#5",
          "ticks": 169920,
          "time": 137.031984,
          "velocity": 0.5905511811023622
        },
        {
          "duration": 0.7741919999999993,
          "durationTicks": 960,
          "midi": 75,
          "name": "D#5",
          "ticks": 192000,
          "time": 154.8384,
          "velocity": 0.5905511811023622
        },
        {
          "duration": 0.23387049999999476,
          "durationTicks": 290,
          "midi": 74,
          "name": "D5",
          "ticks": 192960,
          "time": 155.612592,
          "velocity": 0.5905511811023622
        },
        {
          "duration": 0.23387050000002318,
          "durationTicks": 290,
          "midi": 72,
          "name": "C5",
          "ticks": 195360,
          "time": 157.548072,
          "velocity": 0.5511811023622047
        },
        {
          "duration": 0.6129019999999912,
          "durationTicks": 760,
          "midi": 72,
          "name": "C5",
          "ticks": 195840,
          "time": 157.935168,
          "velocity": 0.5511811023622047
        },
        {
          "duration": 0.6129019999999912,
          "durationTicks": 760,
          "midi": 74,
          "name": "D5",
          "ticks": 196800,
          "time": 158.70936,
          "velocity": 0.5511811023622047
        },
        {
          "duration": 0.23387049999999476,
          "durationTicks": 290,
          "midi": 75,
          "name": "D#5",
          "ticks": 197760,
          "time": 159.483552,
          "velocity": 0.5511811023622047
        },
        {
          "duration": 0.6129019999999912,
          "durationTicks": 760,
          "midi": 68,
          "name": "G#4",
          "ticks": 198720,
          "time": 160.257744,
          "velocity": 0.5511811023622047
        },
        {
          "duration": 0.6129019999999912,
          "durationTicks": 760,
          "midi": 67,
          "name": "G4",
          "ticks": 199680,
          "time": 161.031936,
          "velocity": 0.5511811023622047
        },
        {
          "duration": 0.23387049999999476,
          "durationTicks": 290,
          "midi": 72,
          "name": "C5",
          "ticks": 210720,
          "time": 169.935144,
          "velocity": 0.5511811023622047
        },
        {
          "duration": 0.6129019999999912,
          "durationTicks": 760,
          "midi": 72,
          "name": "C5",
          "ticks": 211200,
          "time": 170.32224,
          "velocity": 0.5511811023622047
        },
        {
          "duration": 0.6129019999999912,
          "durationTicks": 760,
          "midi": 74,
          "name": "D5",
          "ticks": 212160,
          "time": 171.096432,
          "velocity": 0.5511811023622047
        },
        {
          "duration": 0.23387050000002318,
          "durationTicks": 290,
          "midi": 75,
          "name": "D#5",
          "ticks": 213120,
          "time": 171.870624,
          "velocity": 0.5511811023622047
        },
        {
          "duration": 0.15725775000001363,
          "durationTicks": 195,
          "midi": 68,
          "name": "G#4",
          "ticks": 214080,
          "time": 172.644816,
          "velocity": 0.5511811023622047
        },
        {
          "duration": 0.1572577499999852,
          "durationTicks": 195,
          "midi": 68,
          "name": "G#4",
          "ticks": 214560,
          "time": 173.031912,
          "velocity": 0.5511811023622047
        },
        {
          "duration": 0.6129019999999912,
          "durationTicks": 760,
          "midi": 67,
          "name": "G4",
          "ticks": 215040,
          "time": 173.419008,
          "velocity": 0.5511811023622047
        },
        {
          "duration": 0.3225800000000163,
          "durationTicks": 400,
          "midi": 82,
          "name": "A#5",
          "ticks": 239520,
          "time": 193.160904,
          "velocity": 0.5905511811023622
        },
        {
          "duration": 0.19354799999999273,
          "durationTicks": 240,
          "midi": 72,
          "name": "C5",
          "ticks": 240000,
          "time": 193.548,
          "velocity": 0.5905511811023622
        },
        {
          "duration": 0.19354799999999273,
          "durationTicks": 240,
          "midi": 73,
          "name": "C#5",
          "ticks": 240240,
          "time": 193.741548,
          "velocity": 0.5905511811023622
        },
        {
          "duration": 0.19354800000002115,
          "durationTicks": 240,
          "midi": 74,
          "name": "D5",
          "ticks": 240480,
          "time": 193.935096,
          "velocity": 0.5905511811023622
        },
        {
          "duration": 0.19354799999999273,
          "durationTicks": 240,
          "midi": 75,
          "name": "D#5",
          "ticks": 240720,
          "time": 194.128644,
          "velocity": 0.5905511811023622
        },
        {
          "duration": 0.19354799999999273,
          "durationTicks": 240,
          "midi": 76,
          "name": "E5",
          "ticks": 240960,
          "time": 194.322192,
          "velocity": 0.5905511811023622
        },
        {
          "duration": 0.19354799999999273,
          "durationTicks": 240,
          "midi": 77,
          "name": "F5",
          "ticks": 241200,
          "time": 194.51574,
          "velocity": 0.5905511811023622
        },
        {
          "duration": 0.19354800000002115,
          "durationTicks": 240,
          "midi": 79,
          "name": "G5",
          "ticks": 241440,
          "time": 194.709288,
          "velocity": 0.5905511811023622
        },
        {
          "duration": 0.1370964999999842,
          "durationTicks": 170,
          "midi": 80,
          "name": "G#5",
          "ticks": 241680,
          "time": 194.902836,
          "velocity": 0.5905511811023622
        },
        {
          "duration": 0.19354799999999273,
          "durationTicks": 240,
          "midi": 70,
          "name": "A#4",
          "ticks": 241920,
          "time": 195.096384,
          "velocity": 0.5905511811023622
        },
        {
          "duration": 0.19354799999999273,
          "durationTicks": 240,
          "midi": 71,
          "name": "B4",
          "ticks": 242160,
          "time": 195.289932,
          "velocity": 0.5905511811023622
        },
        {
          "duration": 0.19354800000002115,
          "durationTicks": 240,
          "midi": 72,
          "name": "C5",
          "ticks": 242400,
          "time": 195.48348,
          "velocity": 0.5905511811023622
        },
        {
          "duration": 0.19354799999999273,
          "durationTicks": 240,
          "midi": 73,
          "name": "C#5",
          "ticks": 242640,
          "time": 195.677028,
          "velocity": 0.5905511811023622
        },
        {
          "duration": 0.19354799999999273,
          "durationTicks": 240,
          "midi": 74,
          "name": "D5",
          "ticks": 242880,
          "time": 195.870576,
          "velocity": 0.5905511811023622
        },
        {
          "duration": 0.19354799999999273,
          "durationTicks": 240,
          "midi": 75,
          "name": "D#5",
          "ticks": 243120,
          "time": 196.064124,
          "velocity": 0.5905511811023622
        },
        {
          "duration": 0.19354800000002115,
          "durationTicks": 240,
          "midi": 77,
          "name": "F5",
          "ticks": 243360,
          "time": 196.25767199999999,
          "velocity": 0.5905511811023622
        },
        {
          "duration": 0.1370965000000126,
          "durationTicks": 170,
          "midi": 79,
          "name": "G5",
          "ticks": 243600,
          "time": 196.45122,
          "velocity": 0.5905511811023622
        },
        {
          "duration": 0.19354799999999273,
          "durationTicks": 240,
          "midi": 77,
          "name": "F5",
          "ticks": 243840,
          "time": 196.644768,
          "velocity": 0.5905511811023622
        },
        {
          "duration": 0.1370965000000126,
          "durationTicks": 170,
          "midi": 80,
          "name": "G#5",
          "ticks": 244080,
          "time": 196.838316,
          "velocity": 0.5905511811023622
        },
        {
          "duration": 0.19354800000002115,
          "durationTicks": 240,
          "midi": 79,
          "name": "G5",
          "ticks": 244320,
          "time": 197.03186399999998,
          "velocity": 0.5905511811023622
        },
        {
          "duration": 0.1370965000000126,
          "durationTicks": 170,
          "midi": 77,
          "name": "F5",
          "ticks": 244560,
          "time": 197.225412,
          "velocity": 0.5905511811023622
        },
        {
          "duration": 0.19354799999999273,
          "durationTicks": 240,
          "midi": 75,
          "name": "D#5",
          "ticks": 244800,
          "time": 197.41896,
          "velocity": 0.5905511811023622
        },
        {
          "duration": 0.19274154999999382,
          "durationTicks": 239,
          "midi": 74,
          "name": "D5",
          "ticks": 245040,
          "time": 197.612508,
          "velocity": 0.5905511811023622
        },
        {
          "duration": 0.19354800000002115,
          "durationTicks": 240,
          "midi": 72,
          "name": "C5",
          "ticks": 245280,
          "time": 197.80605599999998,
          "velocity": 0.5905511811023622
        },
        {
          "duration": 0.1370965000000126,
          "durationTicks": 170,
          "midi": 74,
          "name": "D5",
          "ticks": 245520,
          "time": 197.999604,
          "velocity": 0.5905511811023622
        },
        {
          "duration": 0.7741919999999993,
          "durationTicks": 960,
          "midi": 77,
          "name": "F5",
          "ticks": 245760,
          "time": 198.193152,
          "velocity": 0.5905511811023622
        },
        {
          "duration": 0.23387049999999476,
          "durationTicks": 290,
          "midi": 75,
          "name": "D#5",
          "ticks": 246720,
          "time": 198.967344,
          "velocity": 0.5905511811023622
        },
        {
          "duration": 0.3225800000000163,
          "durationTicks": 400,
          "midi": 82,
          "name": "A#5",
          "ticks": 254880,
          "time": 205.547976,
          "velocity": 0.5905511811023622
        },
        {
          "duration": 0.19354799999999273,
          "durationTicks": 240,
          "midi": 72,
          "name": "C5",
          "ticks": 255360,
          "time": 205.935072,
          "velocity": 0.5905511811023622
        },
        {
          "duration": 0.19354800000002115,
          "durationTicks": 240,
          "midi": 73,
          "name": "C#5",
          "ticks": 255600,
          "time": 206.12861999999998,
          "velocity": 0.5905511811023622
        },
        {
          "duration": 0.19354799999999273,
          "durationTicks": 240,
          "midi": 74,
          "name": "D5",
          "ticks": 255840,
          "time": 206.322168,
          "velocity": 0.5905511811023622
        },
        {
          "duration": 0.19354799999999273,
          "durationTicks": 240,
          "midi": 75,
          "name": "D#5",
          "ticks": 256080,
          "time": 206.515716,
          "velocity": 0.5905511811023622
        },
        {
          "duration": 0.19354800000002115,
          "durationTicks": 240,
          "midi": 76,
          "name": "E5",
          "ticks": 256320,
          "time": 206.709264,
          "velocity": 0.5905511811023622
        },
        {
          "duration": 0.19354799999999273,
          "durationTicks": 240,
          "midi": 77,
          "name": "F5",
          "ticks": 256560,
          "time": 206.902812,
          "velocity": 0.5905511811023622
        },
        {
          "duration": 0.19354799999999273,
          "durationTicks": 240,
          "midi": 79,
          "name": "G5",
          "ticks": 256800,
          "time": 207.09636,
          "velocity": 0.5905511811023622
        },
        {
          "duration": 0.1370964999999842,
          "durationTicks": 170,
          "midi": 80,
          "name": "G#5",
          "ticks": 257040,
          "time": 207.289908,
          "velocity": 0.5905511811023622
        },
        {
          "duration": 0.19354800000002115,
          "durationTicks": 240,
          "midi": 70,
          "name": "A#4",
          "ticks": 257280,
          "time": 207.483456,
          "velocity": 0.5905511811023622
        },
        {
          "duration": 0.19354799999999273,
          "durationTicks": 240,
          "midi": 71,
          "name": "B4",
          "ticks": 257520,
          "time": 207.677004,
          "velocity": 0.5905511811023622
        },
        {
          "duration": 0.19354799999999273,
          "durationTicks": 240,
          "midi": 72,
          "name": "C5",
          "ticks": 257760,
          "time": 207.870552,
          "velocity": 0.5905511811023622
        },
        {
          "duration": 0.19354799999999273,
          "durationTicks": 240,
          "midi": 73,
          "name": "C#5",
          "ticks": 258000,
          "time": 208.0641,
          "velocity": 0.5905511811023622
        },
        {
          "duration": 0.19354800000002115,
          "durationTicks": 240,
          "midi": 74,
          "name": "D5",
          "ticks": 258240,
          "time": 208.257648,
          "velocity": 0.5905511811023622
        },
        {
          "duration": 0.19354799999999273,
          "durationTicks": 240,
          "midi": 75,
          "name": "D#5",
          "ticks": 258480,
          "time": 208.451196,
          "velocity": 0.5905511811023622
        },
        {
          "duration": 0.19354799999999273,
          "durationTicks": 240,
          "midi": 77,
          "name": "F5",
          "ticks": 258720,
          "time": 208.644744,
          "velocity": 0.5905511811023622
        },
        {
          "duration": 0.1370964999999842,
          "durationTicks": 170,
          "midi": 79,
          "name": "G5",
          "ticks": 258960,
          "time": 208.838292,
          "velocity": 0.5905511811023622
        },
        {
          "duration": 0.19354800000002115,
          "durationTicks": 240,
          "midi": 77,
          "name": "F5",
          "ticks": 259200,
          "time": 209.03184,
          "velocity": 0.5905511811023622
        },
        {
          "duration": 0.1370964999999842,
          "durationTicks": 170,
          "midi": 80,
          "name": "G#5",
          "ticks": 259440,
          "time": 209.225388,
          "velocity": 0.5905511811023622
        },
        {
          "duration": 0.19354799999999273,
          "durationTicks": 240,
          "midi": 79,
          "name": "G5",
          "ticks": 259680,
          "time": 209.418936,
          "velocity": 0.5905511811023622
        },
        {
          "duration": 0.1370964999999842,
          "durationTicks": 170,
          "midi": 77,
          "name": "F5",
          "ticks": 259920,
          "time": 209.612484,
          "velocity": 0.5905511811023622
        },
        {
          "duration": 0.19354800000002115,
          "durationTicks": 240,
          "midi": 75,
          "name": "D#5",
          "ticks": 260160,
          "time": 209.806032,
          "velocity": 0.5905511811023622
        },
        {
          "duration": 0.19274154999999382,
          "durationTicks": 239,
          "midi": 74,
          "name": "D5",
          "ticks": 260400,
          "time": 209.99958,
          "velocity": 0.5905511811023622
        },
        {
          "duration": 0.19354799999999273,
          "durationTicks": 240,
          "midi": 72,
          "name": "C5",
          "ticks": 260640,
          "time": 210.193128,
          "velocity": 0.5905511811023622
        },
        {
          "duration": 0.1370964999999842,
          "durationTicks": 170,
          "midi": 74,
          "name": "D5",
          "ticks": 260880,
          "time": 210.386676,
          "velocity": 0.5905511811023622
        },
        {
          "duration": 0.7741919999999993,
          "durationTicks": 960,
          "midi": 77,
          "name": "F5",
          "ticks": 261120,
          "time": 210.580224,
          "velocity": 0.5905511811023622
        },
        {
          "duration": 0.23387049999999476,
          "durationTicks": 290,
          "midi": 75,
          "name": "D#5",
          "ticks": 262080,
          "time": 211.354416,
          "velocity": 0.5905511811023622
        },
        {
          "duration": 0.12903199999999515,
          "durationTicks": 160,
          "midi": 55,
          "name": "G3",
          "ticks": 278400,
          "time": 224.51568,
          "velocity": 0.5511811023622047
        },
        {
          "duration": 0.22580600000003415,
          "durationTicks": 280,
          "midi": 55,
          "name": "G3",
          "ticks": 279840,
          "time": 225.676968,
          "velocity": 0.5511811023622047
        },
        {
          "duration": 0.12903200000002357,
          "durationTicks": 160,
          "midi": 53,
          "name": "F3",
          "ticks": 280320,
          "time": 226.064064,
          "velocity": 0.5511811023622047
        },
        {
          "duration": 0.09677399999998215,
          "durationTicks": 120,
          "midi": 75,
          "name": "D#5",
          "ticks": 282360,
          "time": 227.709222,
          "velocity": 0.6692913385826772
        },
        {
          "duration": 0.09677400000001057,
          "durationTicks": 120,
          "midi": 74,
          "name": "D5",
          "ticks": 282480,
          "time": 227.805996,
          "velocity": 0.6692913385826772
        },
        {
          "duration": 0.09677399999998215,
          "durationTicks": 120,
          "midi": 75,
          "name": "D#5",
          "ticks": 282600,
          "time": 227.90277,
          "velocity": 0.6692913385826772
        },
        {
          "duration": 0.09677400000001057,
          "durationTicks": 120,
          "midi": 77,
          "name": "F5",
          "ticks": 282720,
          "time": 227.999544,
          "velocity": 0.6692913385826772
        },
        {
          "duration": 0.09677400000001057,
          "durationTicks": 120,
          "midi": 75,
          "name": "D#5",
          "ticks": 282840,
          "time": 228.096318,
          "velocity": 0.6692913385826772
        },
        {
          "duration": 0.09677399999998215,
          "durationTicks": 120,
          "midi": 74,
          "name": "D5",
          "ticks": 282960,
          "time": 228.193092,
          "velocity": 0.6692913385826772
        },
        {
          "duration": 0.09677400000001057,
          "durationTicks": 120,
          "midi": 75,
          "name": "D#5",
          "ticks": 283080,
          "time": 228.289866,
          "velocity": 0.6692913385826772
        },
        {
          "duration": 0.09677400000001057,
          "durationTicks": 120,
          "midi": 72,
          "name": "C5",
          "ticks": 283200,
          "time": 228.38664,
          "velocity": 0.6692913385826772
        },
        {
          "duration": 0.09677399999998215,
          "durationTicks": 120,
          "midi": 77,
          "name": "F5",
          "ticks": 283320,
          "time": 228.483414,
          "velocity": 0.6692913385826772
        },
        {
          "duration": 0.09677400000001057,
          "durationTicks": 120,
          "midi": 76,
          "name": "E5",
          "ticks": 283440,
          "time": 228.580188,
          "velocity": 0.6692913385826772
        },
        {
          "duration": 0.09677399999998215,
          "durationTicks": 120,
          "midi": 77,
          "name": "F5",
          "ticks": 283560,
          "time": 228.676962,
          "velocity": 0.6692913385826772
        },
        {
          "duration": 0.09677400000001057,
          "durationTicks": 120,
          "midi": 79,
          "name": "G5",
          "ticks": 283680,
          "time": 228.77373599999999,
          "velocity": 0.6692913385826772
        },
        {
          "duration": 0.09677400000001057,
          "durationTicks": 120,
          "midi": 77,
          "name": "F5",
          "ticks": 283800,
          "time": 228.87051,
          "velocity": 0.6692913385826772
        },
        {
          "duration": 0.09677399999998215,
          "durationTicks": 120,
          "midi": 80,
          "name": "G#5",
          "ticks": 283920,
          "time": 228.967284,
          "velocity": 0.6692913385826772
        },
        {
          "duration": 0.09677400000001057,
          "durationTicks": 120,
          "midi": 77,
          "name": "F5",
          "ticks": 284040,
          "time": 229.064058,
          "velocity": 0.6692913385826772
        },
        {
          "duration": 0.09677400000001057,
          "durationTicks": 120,
          "midi": 76,
          "name": "E5",
          "ticks": 284160,
          "time": 229.160832,
          "velocity": 0.6692913385826772
        },
        {
          "duration": 0.09677399999998215,
          "durationTicks": 120,
          "midi": 74,
          "name": "D5",
          "ticks": 284280,
          "time": 229.257606,
          "velocity": 0.6692913385826772
        },
        {
          "duration": 0.09677400000001057,
          "durationTicks": 120,
          "midi": 79,
          "name": "G5",
          "ticks": 284400,
          "time": 229.35438,
          "velocity": 0.6692913385826772
        },
        {
          "duration": 0.09677399999998215,
          "durationTicks": 120,
          "midi": 77,
          "name": "F5",
          "ticks": 284520,
          "time": 229.451154,
          "velocity": 0.6692913385826772
        },
        {
          "duration": 0.09677400000001057,
          "durationTicks": 120,
          "midi": 76,
          "name": "E5",
          "ticks": 284640,
          "time": 229.54792799999998,
          "velocity": 0.6692913385826772
        },
        {
          "duration": 0.09677400000001057,
          "durationTicks": 120,
          "midi": 74,
          "name": "D5",
          "ticks": 284760,
          "time": 229.644702,
          "velocity": 0.6692913385826772
        },
        {
          "duration": 0.09677399999998215,
          "durationTicks": 120,
          "midi": 75,
          "name": "D#5",
          "ticks": 284880,
          "time": 229.741476,
          "velocity": 0.6692913385826772
        },
        {
          "duration": 0.04032250000000204,
          "durationTicks": 50,
          "midi": 72,
          "name": "C5",
          "ticks": 285000,
          "time": 229.83825,
          "velocity": 0.6692913385826772
        },
        {
          "duration": 0.12903200000002357,
          "durationTicks": 160,
          "midi": 70,
          "name": "A#4",
          "ticks": 285120,
          "time": 229.935024,
          "velocity": 0.6692913385826772
        },
        {
          "duration": 0.5806440000000066,
          "durationTicks": 720,
          "midi": 72,
          "name": "C5",
          "ticks": 286080,
          "time": 230.709216,
          "velocity": 0.6692913385826772
        },
        {
          "duration": 0.09677399999998215,
          "durationTicks": 120,
          "midi": 74,
          "name": "D5",
          "ticks": 286800,
          "time": 231.28986,
          "velocity": 0.6692913385826772
        },
        {
          "duration": 0.09677400000001057,
          "durationTicks": 120,
          "midi": 76,
          "name": "E5",
          "ticks": 286920,
          "time": 231.386634,
          "velocity": 0.6692913385826772
        },
        {
          "duration": 0.09677400000001057,
          "durationTicks": 120,
          "midi": 77,
          "name": "F5",
          "ticks": 287040,
          "time": 231.483408,
          "velocity": 0.6692913385826772
        },
        {
          "duration": 0.09677399999998215,
          "durationTicks": 120,
          "midi": 79,
          "name": "G5",
          "ticks": 287160,
          "time": 231.580182,
          "velocity": 0.6692913385826772
        },
        {
          "duration": 0.09677400000001057,
          "durationTicks": 120,
          "midi": 80,
          "name": "G#5",
          "ticks": 287280,
          "time": 231.676956,
          "velocity": 0.6692913385826772
        },
        {
          "duration": 0.09677400000001057,
          "durationTicks": 120,
          "midi": 79,
          "name": "G5",
          "ticks": 287400,
          "time": 231.77373,
          "velocity": 0.6692913385826772
        },
        {
          "duration": 0.09677399999998215,
          "durationTicks": 120,
          "midi": 77,
          "name": "F5",
          "ticks": 287520,
          "time": 231.870504,
          "velocity": 0.6692913385826772
        },
        {
          "duration": 0.09677400000001057,
          "durationTicks": 120,
          "midi": 76,
          "name": "E5",
          "ticks": 287640,
          "time": 231.967278,
          "velocity": 0.6692913385826772
        },
        {
          "duration": 0.09677399999998215,
          "durationTicks": 120,
          "midi": 74,
          "name": "D5",
          "ticks": 287760,
          "time": 232.064052,
          "velocity": 0.6692913385826772
        },
        {
          "duration": 0.04032250000000204,
          "durationTicks": 50,
          "midi": 72,
          "name": "C5",
          "ticks": 287880,
          "time": 232.160826,
          "velocity": 0.6692913385826772
        },
        {
          "duration": 0.5806440000000066,
          "durationTicks": 720,
          "midi": 70,
          "name": "A#4",
          "ticks": 288000,
          "time": 232.2576,
          "velocity": 0.6692913385826772
        },
        {
          "duration": 0.09677399999998215,
          "durationTicks": 120,
          "midi": 72,
          "name": "C5",
          "ticks": 288720,
          "time": 232.838244,
          "velocity": 0.6692913385826772
        },
        {
          "duration": 0.09677400000001057,
          "durationTicks": 120,
          "midi": 74,
          "name": "D5",
          "ticks": 288840,
          "time": 232.93501799999999,
          "velocity": 0.6692913385826772
        },
        {
          "duration": 0.09677400000001057,
          "durationTicks": 120,
          "midi": 75,
          "name": "D#5",
          "ticks": 288960,
          "time": 233.031792,
          "velocity": 0.6692913385826772
        },
        {
          "duration": 0.09677399999998215,
          "durationTicks": 120,
          "midi": 77,
          "name": "F5",
          "ticks": 289080,
          "time": 233.128566,
          "velocity": 0.6692913385826772
        },
        {
          "duration": 0.09677400000001057,
          "durationTicks": 120,
          "midi": 79,
          "name": "G5",
          "ticks": 289200,
          "time": 233.22534,
          "velocity": 0.6692913385826772
        },
        {
          "duration": 0.09677400000001057,
          "durationTicks": 120,
          "midi": 77,
          "name": "F5",
          "ticks": 289320,
          "time": 233.322114,
          "velocity": 0.6692913385826772
        },
        {
          "duration": 0.09677399999998215,
          "durationTicks": 120,
          "midi": 75,
          "name": "D#5",
          "ticks": 289440,
          "time": 233.418888,
          "velocity": 0.6692913385826772
        },
        {
          "duration": 0.09677400000001057,
          "durationTicks": 120,
          "midi": 74,
          "name": "D5",
          "ticks": 289560,
          "time": 233.515662,
          "velocity": 0.6692913385826772
        },
        {
          "duration": 0.09677399999998215,
          "durationTicks": 120,
          "midi": 72,
          "name": "C5",
          "ticks": 289680,
          "time": 233.612436,
          "velocity": 0.6692913385826772
        },
        {
          "duration": 0.04032250000000204,
          "durationTicks": 50,
          "midi": 70,
          "name": "A#4",
          "ticks": 289800,
          "time": 233.70920999999998,
          "velocity": 0.6692913385826772
        },
        {
          "duration": 0.7096760000000302,
          "durationTicks": 880,
          "midi": 72,
          "name": "C5",
          "ticks": 289920,
          "time": 233.805984,
          "velocity": 0.6692913385826772
        },
        {
          "duration": 0.09677400000001057,
          "durationTicks": 120,
          "midi": 74,
          "name": "D5",
          "ticks": 290880,
          "time": 234.580176,
          "velocity": 0.6692913385826772
        },
        {
          "duration": 0.09677399999998215,
          "durationTicks": 120,
          "midi": 77,
          "name": "F5",
          "ticks": 291000,
          "time": 234.67695,
          "velocity": 0.6692913385826772
        },
        {
          "duration": 0.09677400000001057,
          "durationTicks": 120,
          "midi": 82,
          "name": "A#5",
          "ticks": 291120,
          "time": 234.773724,
          "velocity": 0.6692913385826772
        },
        {
          "duration": 0.09677400000001057,
          "durationTicks": 120,
          "midi": 80,
          "name": "G#5",
          "ticks": 291240,
          "time": 234.870498,
          "velocity": 0.6692913385826772
        },
        {
          "duration": 0.09677399999998215,
          "durationTicks": 120,
          "midi": 79,
          "name": "G5",
          "ticks": 291360,
          "time": 234.967272,
          "velocity": 0.6692913385826772
        },
        {
          "duration": 0.09677400000001057,
          "durationTicks": 120,
          "midi": 77,
          "name": "F5",
          "ticks": 291480,
          "time": 235.064046,
          "velocity": 0.6692913385826772
        },
        {
          "duration": 0.09677399999998215,
          "durationTicks": 120,
          "midi": 75,
          "name": "D#5",
          "ticks": 291600,
          "time": 235.16082,
          "velocity": 0.6692913385826772
        },
        {
          "duration": 0.09677400000001057,
          "durationTicks": 120,
          "midi": 74,
          "name": "D5",
          "ticks": 291720,
          "time": 235.25759399999998,
          "velocity": 0.6692913385826772
        },
        {
          "duration": 0.6129020000000196,
          "durationTicks": 760,
          "midi": 75,
          "name": "D#5",
          "ticks": 291840,
          "time": 235.354368,
          "velocity": 0.6692913385826772
        },
        {
          "duration": 0.09677399999998215,
          "durationTicks": 120,
          "midi": 71,
          "name": "B4",
          "ticks": 294240,
          "time": 237.289848,
          "velocity": 0.6692913385826772
        },
        {
          "duration": 0.09677400000001057,
          "durationTicks": 120,
          "midi": 72,
          "name": "C5",
          "ticks": 294360,
          "time": 237.386622,
          "velocity": 0.6692913385826772
        },
        {
          "duration": 0.09677400000001057,
          "durationTicks": 120,
          "midi": 74,
          "name": "D5",
          "ticks": 294480,
          "time": 237.483396,
          "velocity": 0.6692913385826772
        },
        {
          "duration": 0.09677399999998215,
          "durationTicks": 120,
          "midi": 71,
          "name": "B4",
          "ticks": 294600,
          "time": 237.58017,
          "velocity": 0.6692913385826772
        },
        {
          "duration": 0.09677400000001057,
          "durationTicks": 120,
          "midi": 72,
          "name": "C5",
          "ticks": 294720,
          "time": 237.676944,
          "velocity": 0.6692913385826772
        },
        {
          "duration": 0.09677399999998215,
          "durationTicks": 120,
          "midi": 74,
          "name": "D5",
          "ticks": 294840,
          "time": 237.773718,
          "velocity": 0.6692913385826772
        },
        {
          "duration": 0.09677400000001057,
          "durationTicks": 120,
          "midi": 75,
          "name": "D#5",
          "ticks": 294960,
          "time": 237.87049199999998,
          "velocity": 0.6692913385826772
        },
        {
          "duration": 0.09677400000001057,
          "durationTicks": 120,
          "midi": 72,
          "name": "C5",
          "ticks": 295080,
          "time": 237.967266,
          "velocity": 0.6692913385826772
        },
        {
          "duration": 0.09677399999998215,
          "durationTicks": 120,
          "midi": 74,
          "name": "D5",
          "ticks": 295200,
          "time": 238.06404,
          "velocity": 0.6692913385826772
        },
        {
          "duration": 0.09677400000001057,
          "durationTicks": 120,
          "midi": 75,
          "name": "D#5",
          "ticks": 295320,
          "time": 238.160814,
          "velocity": 0.6692913385826772
        },
        {
          "duration": 0.09677400000001057,
          "durationTicks": 120,
          "midi": 77,
          "name": "F5",
          "ticks": 295440,
          "time": 238.257588,
          "velocity": 0.6692913385826772
        },
        {
          "duration": 0.09677399999998215,
          "durationTicks": 120,
          "midi": 74,
          "name": "D5",
          "ticks": 295560,
          "time": 238.354362,
          "velocity": 0.6692913385826772
        },
        {
          "duration": 0.12903200000002357,
          "durationTicks": 160,
          "midi": 75,
          "name": "D#5",
          "ticks": 295680,
          "time": 238.451136,
          "velocity": 0.6692913385826772
        },
        {
          "duration": 0.09677399999998215,
          "durationTicks": 120,
          "midi": 69,
          "name": "A4",
          "ticks": 298080,
          "time": 240.386616,
          "velocity": 0.6692913385826772
        },
        {
          "duration": 0.09677400000001057,
          "durationTicks": 120,
          "midi": 70,
          "name": "A#4",
          "ticks": 298200,
          "time": 240.48338999999999,
          "velocity": 0.6692913385826772
        },
        {
          "duration": 0.09677400000001057,
          "durationTicks": 120,
          "midi": 72,
          "name": "C5",
          "ticks": 298320,
          "time": 240.580164,
          "velocity": 0.6692913385826772
        },
        {
          "duration": 0.09677399999998215,
          "durationTicks": 120,
          "midi": 69,
          "name": "A4",
          "ticks": 298440,
          "time": 240.676938,
          "velocity": 0.6692913385826772
        },
        {
          "duration": 0.09677400000001057,
          "durationTicks": 120,
          "midi": 70,
          "name": "A#4",
          "ticks": 298560,
          "time": 240.773712,
          "velocity": 0.6692913385826772
        },
        {
          "duration": 0.09677400000001057,
          "durationTicks": 120,
          "midi": 72,
          "name": "C5",
          "ticks": 298680,
          "time": 240.870486,
          "velocity": 0.6692913385826772
        },
        {
          "duration": 0.09677399999998215,
          "durationTicks": 120,
          "midi": 74,
          "name": "D5",
          "ticks": 298800,
          "time": 240.96726,
          "velocity": 0.6692913385826772
        },
        {
          "duration": 0.09677400000001057,
          "durationTicks": 120,
          "midi": 70,
          "name": "A#4",
          "ticks": 298920,
          "time": 241.064034,
          "velocity": 0.6692913385826772
        },
        {
          "duration": 0.09677399999998215,
          "durationTicks": 120,
          "midi": 72,
          "name": "C5",
          "ticks": 299040,
          "time": 241.160808,
          "velocity": 0.6692913385826772
        },
        {
          "duration": 0.09677400000001057,
          "durationTicks": 120,
          "midi": 74,
          "name": "D5",
          "ticks": 299160,
          "time": 241.25758199999999,
          "velocity": 0.6692913385826772
        },
        {
          "duration": 0.09677400000001057,
          "durationTicks": 120,
          "midi": 75,
          "name": "D#5",
          "ticks": 299280,
          "time": 241.354356,
          "velocity": 0.6692913385826772
        },
        {
          "duration": 0.09677399999998215,
          "durationTicks": 120,
          "midi": 72,
          "name": "C5",
          "ticks": 299400,
          "time": 241.45113,
          "velocity": 0.6692913385826772
        },
        {
          "duration": 0.12903200000002357,
          "durationTicks": 160,
          "midi": 74,
          "name": "D5",
          "ticks": 299520,
          "time": 241.547904,
          "velocity": 0.6692913385826772
        },
        {
          "duration": 0.12903199999999515,
          "durationTicks": 160,
          "midi": 70,
          "name": "A#4",
          "ticks": 300720,
          "time": 242.515644,
          "velocity": 0.6692913385826772
        },
        {
          "duration": 0.12903200000002357,
          "durationTicks": 160,
          "midi": 70,
          "name": "A#4",
          "ticks": 300960,
          "time": 242.709192,
          "velocity": 0.6692913385826772
        },
        {
          "duration": 0.12903200000002357,
          "durationTicks": 160,
          "midi": 70,
          "name": "A#4",
          "ticks": 301200,
          "time": 242.90274,
          "velocity": 0.6692913385826772
        },
        {
          "duration": 0.5806440000000066,
          "durationTicks": 720,
          "midi": 72,
          "name": "C5",
          "ticks": 301440,
          "time": 243.096288,
          "velocity": 0.6692913385826772
        },
        {
          "duration": 0.09677400000001057,
          "durationTicks": 120,
          "midi": 74,
          "name": "D5",
          "ticks": 302160,
          "time": 243.676932,
          "velocity": 0.6692913385826772
        },
        {
          "duration": 0.09677399999998215,
          "durationTicks": 120,
          "midi": 76,
          "name": "E5",
          "ticks": 302280,
          "time": 243.773706,
          "velocity": 0.6692913385826772
        },
        {
          "duration": 0.09677400000001057,
          "durationTicks": 120,
          "midi": 77,
          "name": "F5",
          "ticks": 302400,
          "time": 243.87048,
          "velocity": 0.6692913385826772
        },
        {
          "duration": 0.09677400000001057,
          "durationTicks": 120,
          "midi": 79,
          "name": "G5",
          "ticks": 302520,
          "time": 243.967254,
          "velocity": 0.6692913385826772
        },
        {
          "duration": 0.09677399999998215,
          "durationTicks": 120,
          "midi": 80,
          "name": "G#5",
          "ticks": 302640,
          "time": 244.064028,
          "velocity": 0.6692913385826772
        },
        {
          "duration": 0.09677400000001057,
          "durationTicks": 120,
          "midi": 79,
          "name": "G5",
          "ticks": 302760,
          "time": 244.160802,
          "velocity": 0.6692913385826772
        },
        {
          "duration": 0.09677400000001057,
          "durationTicks": 120,
          "midi": 77,
          "name": "F5",
          "ticks": 302880,
          "time": 244.257576,
          "velocity": 0.6692913385826772
        },
        {
          "duration": 0.09677399999998215,
          "durationTicks": 120,
          "midi": 76,
          "name": "E5",
          "ticks": 303000,
          "time": 244.35435,
          "velocity": 0.6692913385826772
        },
        {
          "duration": 0.09677400000001057,
          "durationTicks": 120,
          "midi": 74,
          "name": "D5",
          "ticks": 303120,
          "time": 244.451124,
          "velocity": 0.6692913385826772
        },
        {
          "duration": 0.040322499999973616,
          "durationTicks": 50,
          "midi": 72,
          "name": "C5",
          "ticks": 303240,
          "time": 244.547898,
          "velocity": 0.6692913385826772
        },
        {
          "duration": 0.5806440000000066,
          "durationTicks": 720,
          "midi": 70,
          "name": "A#4",
          "ticks": 303360,
          "time": 244.64467199999999,
          "velocity": 0.6692913385826772
        },
        {
          "duration": 0.09677400000001057,
          "durationTicks": 120,
          "midi": 72,
          "name": "C5",
          "ticks": 304080,
          "time": 245.225316,
          "velocity": 0.6692913385826772
        },
        {
          "duration": 0.09677399999998215,
          "durationTicks": 120,
          "midi": 74,
          "name": "D5",
          "ticks": 304200,
          "time": 245.32209,
          "velocity": 0.6692913385826772
        },
        {
          "duration": 0.09677400000001057,
          "durationTicks": 120,
          "midi": 75,
          "name": "D#5",
          "ticks": 304320,
          "time": 245.41886399999999,
          "velocity": 0.6692913385826772
        },
        {
          "duration": 0.09677400000001057,
          "durationTicks": 120,
          "midi": 77,
          "name": "F5",
          "ticks": 304440,
          "time": 245.515638,
          "velocity": 0.6692913385826772
        },
        {
          "duration": 0.09677399999998215,
          "durationTicks": 120,
          "midi": 79,
          "name": "G5",
          "ticks": 304560,
          "time": 245.612412,
          "velocity": 0.6692913385826772
        },
        {
          "duration": 0.09677400000001057,
          "durationTicks": 120,
          "midi": 77,
          "name": "F5",
          "ticks": 304680,
          "time": 245.709186,
          "velocity": 0.6692913385826772
        },
        {
          "duration": 0.09677400000001057,
          "durationTicks": 120,
          "midi": 75,
          "name": "D#5",
          "ticks": 304800,
          "time": 245.80596,
          "velocity": 0.6692913385826772
        },
        {
          "duration": 0.09677399999998215,
          "durationTicks": 120,
          "midi": 74,
          "name": "D5",
          "ticks": 304920,
          "time": 245.902734,
          "velocity": 0.6692913385826772
        },
        {
          "duration": 0.09677400000001057,
          "durationTicks": 120,
          "midi": 72,
          "name": "C5",
          "ticks": 305040,
          "time": 245.999508,
          "velocity": 0.6692913385826772
        },
        {
          "duration": 0.040322499999973616,
          "durationTicks": 50,
          "midi": 70,
          "name": "A#4",
          "ticks": 305160,
          "time": 246.096282,
          "velocity": 0.6692913385826772
        },
        {
          "duration": 0.7096760000000302,
          "durationTicks": 880,
          "midi": 72,
          "name": "C5",
          "ticks": 305280,
          "time": 246.19305599999998,
          "velocity": 0.6692913385826772
        },
        {
          "duration": 0.09677400000001057,
          "durationTicks": 120,
          "midi": 74,
          "name": "D5",
          "ticks": 306240,
          "time": 246.96724799999998,
          "velocity": 0.6692913385826772
        },
        {
          "duration": 0.09677400000001057,
          "durationTicks": 120,
          "midi": 77,
          "name": "F5",
          "ticks": 306360,
          "time": 247.064022,
          "velocity": 0.6692913385826772
        },
        {
          "duration": 0.09677399999998215,
          "durationTicks": 120,
          "midi": 82,
          "name": "A#5",
          "ticks": 306480,
          "time": 247.160796,
          "velocity": 0.6692913385826772
        },
        {
          "duration": 0.09677400000001057,
          "durationTicks": 120,
          "midi": 80,
          "name": "G#5",
          "ticks": 306600,
          "time": 247.25757,
          "velocity": 0.6692913385826772
        },
        {
          "duration": 0.09677400000001057,
          "durationTicks": 120,
          "midi": 79,
          "name": "G5",
          "ticks": 306720,
          "time": 247.354344,
          "velocity": 0.6692913385826772
        },
        {
          "duration": 0.09677399999998215,
          "durationTicks": 120,
          "midi": 77,
          "name": "F5",
          "ticks": 306840,
          "time": 247.451118,
          "velocity": 0.6692913385826772
        },
        {
          "duration": 0.09677400000001057,
          "durationTicks": 120,
          "midi": 75,
          "name": "D#5",
          "ticks": 306960,
          "time": 247.547892,
          "velocity": 0.6692913385826772
        },
        {
          "duration": 0.09677400000001057,
          "durationTicks": 120,
          "midi": 74,
          "name": "D5",
          "ticks": 307080,
          "time": 247.644666,
          "velocity": 0.6692913385826772
        },
        {
          "duration": 0.6129019999999912,
          "durationTicks": 760,
          "midi": 75,
          "name": "D#5",
          "ticks": 307200,
          "time": 247.74144,
          "velocity": 0.6692913385826772
        },
        {
          "duration": 0.5806440000000066,
          "durationTicks": 720,
          "midi": 82,
          "name": "A#5",
          "ticks": 331680,
          "time": 267.483336,
          "velocity": 0.6299212598425197
        },
        {
          "duration": 0.1935479999999643,
          "durationTicks": 240,
          "midi": 81,
          "name": "A5",
          "ticks": 332400,
          "time": 268.06398,
          "velocity": 0.6299212598425197
        },
        {
          "duration": 0.19354800000002115,
          "durationTicks": 240,
          "midi": 77,
          "name": "F5",
          "ticks": 332640,
          "time": 268.257528,
          "velocity": 0.6299212598425197
        },
        {
          "duration": 0.19354800000002115,
          "durationTicks": 240,
          "midi": 79,
          "name": "G5",
          "ticks": 332880,
          "time": 268.451076,
          "velocity": 0.6299212598425197
        },
        {
          "duration": 0.967739999999992,
          "durationTicks": 1200,
          "midi": 80,
          "name": "G#5",
          "ticks": 333120,
          "time": 268.644624,
          "velocity": 0.6299212598425197
        },
        {
          "duration": 0.1935479999999643,
          "durationTicks": 240,
          "midi": 79,
          "name": "G5",
          "ticks": 334320,
          "time": 269.612364,
          "velocity": 0.6299212598425197
        },
        {
          "duration": 0.19354800000002115,
          "durationTicks": 240,
          "midi": 75,
          "name": "D#5",
          "ticks": 334560,
          "time": 269.805912,
          "velocity": 0.6299212598425197
        },
        {
          "duration": 0.19354800000002115,
          "durationTicks": 240,
          "midi": 77,
          "name": "F5",
          "ticks": 334800,
          "time": 269.99946,
          "velocity": 0.6299212598425197
        },
        {
          "duration": 0.6129020000000196,
          "durationTicks": 760,
          "midi": 78,
          "name": "F#5",
          "ticks": 335040,
          "time": 270.193008,
          "velocity": 0.6299212598425197
        },
        {
          "duration": 0.12903199999999515,
          "durationTicks": 160,
          "midi": 77,
          "name": "F5",
          "ticks": 336000,
          "time": 270.9672,
          "velocity": 0.6299212598425197
        },
        {
          "duration": 0.129032000000052,
          "durationTicks": 160,
          "midi": 77,
          "name": "F5",
          "ticks": 336480,
          "time": 271.354296,
          "velocity": 0.6299212598425197
        },
        {
          "duration": 0.12903199999999515,
          "durationTicks": 160,
          "midi": 77,
          "name": "F5",
          "ticks": 336720,
          "time": 271.547844,
          "velocity": 0.6299212598425197
        },
        {
          "duration": 0.1370964999999842,
          "durationTicks": 170,
          "midi": 82,
          "name": "A#5",
          "ticks": 336960,
          "time": 271.741392,
          "velocity": 0.6299212598425197
        },
        {
          "duration": 0.1370964999999842,
          "durationTicks": 170,
          "midi": 82,
          "name": "A#5",
          "ticks": 337440,
          "time": 272.128488,
          "velocity": 0.6299212598425197
        },
        {
          "duration": 0.6129020000000196,
          "durationTicks": 760,
          "midi": 75,
          "name": "D#5",
          "ticks": 337920,
          "time": 272.515584,
          "velocity": 0.6299212598425197
        },
        {
          "duration": 0.19354800000002115,
          "durationTicks": 240,
          "midi": 75,
          "name": "D#5",
          "ticks": 339360,
          "time": 273.676872,
          "velocity": 0.6299212598425197
        },
        {
          "duration": 0.1935479999999643,
          "durationTicks": 240,
          "midi": 77,
          "name": "F5",
          "ticks": 339600,
          "time": 273.87042,
          "velocity": 0.6299212598425197
        },
        {
          "duration": 0.7096760000000017,
          "durationTicks": 880,
          "midi": 79,
          "name": "G5",
          "ticks": 339840,
          "time": 274.063968,
          "velocity": 0.6299212598425197
        },
        {
          "duration": 0.1935479999999643,
          "durationTicks": 240,
          "midi": 77,
          "name": "F5",
          "ticks": 340800,
          "time": 274.83816,
          "velocity": 0.6299212598425197
        },
        {
          "duration": 0.19354800000002115,
          "durationTicks": 240,
          "midi": 75,
          "name": "D#5",
          "ticks": 341040,
          "time": 275.031708,
          "velocity": 0.6299212598425197
        },
        {
          "duration": 0.19354800000002115,
          "durationTicks": 240,
          "midi": 74,
          "name": "D5",
          "ticks": 341280,
          "time": 275.225256,
          "velocity": 0.6299212598425197
        },
        {
          "duration": 0.1370964999999842,
          "durationTicks": 170,
          "midi": 72,
          "name": "C5",
          "ticks": 341520,
          "time": 275.418804,
          "velocity": 0.6299212598425197
        },
        {
          "duration": 0.5806440000000066,
          "durationTicks": 720,
          "midi": 71,
          "name": "B4",
          "ticks": 341760,
          "time": 275.612352,
          "velocity": 0.6299212598425197
        },
        {
          "duration": 0.09677399999998215,
          "durationTicks": 120,
          "midi": 72,
          "name": "C5",
          "ticks": 342480,
          "time": 276.192996,
          "velocity": 0.6299212598425197
        },
        {
          "duration": 0.04838700000004792,
          "durationTicks": 60,
          "midi": 74,
          "name": "D5",
          "ticks": 342600,
          "time": 276.28977,
          "velocity": 0.6299212598425197
        },
        {
          "duration": 0.1935479999999643,
          "durationTicks": 240,
          "midi": 72,
          "name": "C5",
          "ticks": 342720,
          "time": 276.386544,
          "velocity": 0.6299212598425197
        },
        {
          "duration": 0.19354800000002115,
          "durationTicks": 240,
          "midi": 74,
          "name": "D5",
          "ticks": 342960,
          "time": 276.580092,
          "velocity": 0.6299212598425197
        },
        {
          "duration": 0.19354800000002115,
          "durationTicks": 240,
          "midi": 75,
          "name": "D#5",
          "ticks": 343200,
          "time": 276.77364,
          "velocity": 0.6299212598425197
        },
        {
          "duration": 0.1935479999999643,
          "durationTicks": 240,
          "midi": 76,
          "name": "E5",
          "ticks": 343440,
          "time": 276.967188,
          "velocity": 0.6299212598425197
        },
        {
          "duration": 0.6209665000000086,
          "durationTicks": 770,
          "midi": 77,
          "name": "F5",
          "ticks": 343680,
          "time": 277.160736,
          "velocity": 0.6299212598425197
        },
        {
          "duration": 0.1935479999999643,
          "durationTicks": 240,
          "midi": 75,
          "name": "D#5",
          "ticks": 344640,
          "time": 277.934928,
          "velocity": 0.6299212598425197
        },
        {
          "duration": 0.19354800000002115,
          "durationTicks": 240,
          "midi": 74,
          "name": "D5",
          "ticks": 344880,
          "time": 278.128476,
          "velocity": 0.6299212598425197
        },
        {
          "duration": 0.19354800000002115,
          "durationTicks": 240,
          "midi": 72,
          "name": "C5",
          "ticks": 345120,
          "time": 278.322024,
          "velocity": 0.6299212598425197
        },
        {
          "duration": 0.1370964999999842,
          "durationTicks": 170,
          "midi": 71,
          "name": "B4",
          "ticks": 345360,
          "time": 278.515572,
          "velocity": 0.6299212598425197
        },
        {
          "duration": 0.5806440000000066,
          "durationTicks": 720,
          "midi": 69,
          "name": "A4",
          "ticks": 345600,
          "time": 278.70912,
          "velocity": 0.6299212598425197
        },
        {
          "duration": 0.09677399999998215,
          "durationTicks": 120,
          "midi": 70,
          "name": "A#4",
          "ticks": 346320,
          "time": 279.289764,
          "velocity": 0.6299212598425197
        },
        {
          "duration": 0.096774000000039,
          "durationTicks": 120,
          "midi": 72,
          "name": "C5",
          "ticks": 346440,
          "time": 279.386538,
          "velocity": 0.6299212598425197
        },
        {
          "duration": 0.1572577499999852,
          "durationTicks": 195,
          "midi": 70,
          "name": "A#4",
          "ticks": 346560,
          "time": 279.483312,
          "velocity": 0.6299212598425197
        },
        {
          "duration": 0.38387019999998984,
          "durationTicks": 476,
          "midi": 73,
          "name": "C#5",
          "ticks": 347040,
          "time": 279.870408,
          "velocity": 0.6299212598425197
        },
        {
          "duration": 0.1370964999999842,
          "durationTicks": 170,
          "midi": 72,
          "name": "C5",
          "ticks": 347520,
          "time": 280.257504,
          "velocity": 0.6299212598425197
        },
        {
          "duration": 0.38709599999998545,
          "durationTicks": 480,
          "midi": 71,
          "name": "B4",
          "ticks": 348960,
          "time": 281.418792,
          "velocity": 0.6299212598425197
        },
        {
          "duration": 0.1370964999999842,
          "durationTicks": 170,
          "midi": 70,
          "name": "A#4",
          "ticks": 349440,
          "time": 281.805888,
          "velocity": 0.6299212598425197
        },
        {
          "duration": 0.3225800000000163,
          "durationTicks": 400,
          "midi": 75,
          "name": "D#5",
          "ticks": 350880,
          "time": 282.967176,
          "velocity": 0.6299212598425197
        },
        {
          "duration": 0.129032000000052,
          "durationTicks": 160,
          "midi": 75,
          "name": "D#5",
          "ticks": 351360,
          "time": 283.354272,
          "velocity": 0.6299212598425197
        },
        {
          "duration": 0.12903199999999515,
          "durationTicks": 160,
          "midi": 75,
          "name": "D#5",
          "ticks": 351840,
          "time": 283.741368,
          "velocity": 0.6299212598425197
        },
        {
          "duration": 0.129032000000052,
          "durationTicks": 160,
          "midi": 75,
          "name": "D#5",
          "ticks": 352080,
          "time": 283.934916,
          "velocity": 0.6299212598425197
        },
        {
          "duration": 0.12903199999999515,
          "durationTicks": 160,
          "midi": 74,
          "name": "D5",
          "ticks": 352320,
          "time": 284.128464,
          "velocity": 0.6299212598425197
        },
        {
          "duration": 0.12903199999999515,
          "durationTicks": 160,
          "midi": 74,
          "name": "D5",
          "ticks": 352800,
          "time": 284.51556,
          "velocity": 0.6299212598425197
        },
        {
          "duration": 0.6129020000000196,
          "durationTicks": 760,
          "midi": 75,
          "name": "D#5",
          "ticks": 353280,
          "time": 284.902656,
          "velocity": 0.6299212598425197
        },
        {
          "duration": 1.3870939999999905,
          "durationTicks": 1720,
          "midi": 72,
          "name": "C5",
          "ticks": 378240,
          "time": 305.031648,
          "velocity": 0.5905511811023622
        },
        {
          "duration": 1.3870939999999905,
          "durationTicks": 1720,
          "midi": 70,
          "name": "A#4",
          "ticks": 380160,
          "time": 306.580032,
          "velocity": 0.5905511811023622
        },
        {
          "duration": 0.12903199999999515,
          "durationTicks": 160,
          "midi": 72,
          "name": "C5",
          "ticks": 382560,
          "time": 308.515512,
          "velocity": 0.5905511811023622
        },
        {
          "duration": 0.129032000000052,
          "durationTicks": 160,
          "midi": 68,
          "name": "G#4",
          "ticks": 383520,
          "time": 309.289704,
          "velocity": 0.5905511811023622
        },
        {
          "duration": 0.6129020000000196,
          "durationTicks": 760,
          "midi": 67,
          "name": "G4",
          "ticks": 384000,
          "time": 309.6768,
          "velocity": 0.5905511811023622
        },
        {
          "duration": 1.3870939999999905,
          "durationTicks": 1720,
          "midi": 72,
          "name": "C5",
          "ticks": 393600,
          "time": 317.41872,
          "velocity": 0.5905511811023622
        },
        {
          "duration": 1.3870939999999905,
          "durationTicks": 1720,
          "midi": 70,
          "name": "A#4",
          "ticks": 395520,
          "time": 318.967104,
          "velocity": 0.5905511811023622
        },
        {
          "duration": 0.12903199999999515,
          "durationTicks": 160,
          "midi": 72,
          "name": "C5",
          "ticks": 397920,
          "time": 320.902584,
          "velocity": 0.5905511811023622
        },
        {
          "duration": 0.12903199999999515,
          "durationTicks": 160,
          "midi": 68,
          "name": "G#4",
          "ticks": 398880,
          "time": 321.676776,
          "velocity": 0.5905511811023622
        },
        {
          "duration": 0.6129020000000196,
          "durationTicks": 760,
          "midi": 67,
          "name": "G4",
          "ticks": 399360,
          "time": 322.063872,
          "velocity": 0.5905511811023622
        },
        {
          "duration": 0.1370964999999842,
          "durationTicks": 170,
          "midi": 82,
          "name": "A#5",
          "ticks": 423600,
          "time": 341.61222,
          "velocity": 0.6299212598425197
        },
        {
          "duration": 0.1370964999999842,
          "durationTicks": 170,
          "midi": 82,
          "name": "A#5",
          "ticks": 423840,
          "time": 341.805768,
          "velocity": 0.6299212598425197
        },
        {
          "duration": 0.1370964999999842,
          "durationTicks": 170,
          "midi": 82,
          "name": "A#5",
          "ticks": 424080,
          "time": 341.999316,
          "velocity": 0.6299212598425197
        },
        {
          "duration": 0.1370964999999842,
          "durationTicks": 170,
          "midi": 82,
          "name": "A#5",
          "ticks": 424320,
          "time": 342.192864,
          "velocity": 0.6299212598425197
        },
        {
          "duration": 0.1935479999999643,
          "durationTicks": 240,
          "midi": 72,
          "name": "C5",
          "ticks": 424560,
          "time": 342.386412,
          "velocity": 0.6299212598425197
        },
        {
          "duration": 0.19354800000002115,
          "durationTicks": 240,
          "midi": 73,
          "name": "C#5",
          "ticks": 424800,
          "time": 342.57995999999997,
          "velocity": 0.6299212598425197
        },
        {
          "duration": 0.1370964999999842,
          "durationTicks": 170,
          "midi": 72,
          "name": "C5",
          "ticks": 425040,
          "time": 342.773508,
          "velocity": 0.6299212598425197
        },
        {
          "duration": 0.19354800000002115,
          "durationTicks": 240,
          "midi": 77,
          "name": "F5",
          "ticks": 425520,
          "time": 343.160604,
          "velocity": 0.6299212598425197
        },
        {
          "duration": 0.19354800000002115,
          "durationTicks": 240,
          "midi": 79,
          "name": "G5",
          "ticks": 425760,
          "time": 343.354152,
          "velocity": 0.6299212598425197
        },
        {
          "duration": 0.1935479999999643,
          "durationTicks": 240,
          "midi": 80,
          "name": "G#5",
          "ticks": 426000,
          "time": 343.5477,
          "velocity": 0.6299212598425197
        },
        {
          "duration": 0.1370964999999842,
          "durationTicks": 170,
          "midi": 80,
          "name": "G#5",
          "ticks": 426240,
          "time": 343.741248,
          "velocity": 0.6299212598425197
        },
        {
          "duration": 0.1935479999999643,
          "durationTicks": 240,
          "midi": 70,
          "name": "A#4",
          "ticks": 426480,
          "time": 343.934796,
          "velocity": 0.6299212598425197
        },
        {
          "duration": 0.19354800000002115,
          "durationTicks": 240,
          "midi": 71,
          "name": "B4",
          "ticks": 426720,
          "time": 344.12834399999997,
          "velocity": 0.6299212598425197
        },
        {
          "duration": 0.1370964999999842,
          "durationTicks": 170,
          "midi": 70,
          "name": "A#4",
          "ticks": 426960,
          "time": 344.321892,
          "velocity": 0.6299212598425197
        },
        {
          "duration": 0.19354800000002115,
          "durationTicks": 240,
          "midi": 75,
          "name": "D#5",
          "ticks": 427440,
          "time": 344.708988,
          "velocity": 0.6299212598425197
        },
        {
          "duration": 0.19354800000002115,
          "durationTicks": 240,
          "midi": 77,
          "name": "F5",
          "ticks": 427680,
          "time": 344.902536,
          "velocity": 0.6299212598425197
        },
        {
          "duration": 0.1370964999999842,
          "durationTicks": 170,
          "midi": 79,
          "name": "G5",
          "ticks": 427920,
          "time": 345.096084,
          "velocity": 0.6299212598425197
        },
        {
          "duration": 0.096774000000039,
          "durationTicks": 120,
          "midi": 77,
          "name": "F5",
          "ticks": 428160,
          "time": 345.289632,
          "velocity": 0.6299212598425197
        },
        {
          "duration": 0.09677399999998215,
          "durationTicks": 120,
          "midi": 82,
          "name": "A#5",
          "ticks": 428280,
          "time": 345.386406,
          "velocity": 0.6299212598425197
        },
        {
          "duration": 0.09677399999998215,
          "durationTicks": 120,
          "midi": 84,
          "name": "C6",
          "ticks": 428400,
          "time": 345.48318,
          "velocity": 0.6299212598425197
        },
        {
          "duration": 0.09677399999998215,
          "durationTicks": 120,
          "midi": 82,
          "name": "A#5",
          "ticks": 428520,
          "time": 345.579954,
          "velocity": 0.6299212598425197
        },
        {
          "duration": 0.096774000000039,
          "durationTicks": 120,
          "midi": 80,
          "name": "G#5",
          "ticks": 428640,
          "time": 345.67672799999997,
          "velocity": 0.6299212598425197
        },
        {
          "duration": 0.09677399999998215,
          "durationTicks": 120,
          "midi": 79,
          "name": "G5",
          "ticks": 428760,
          "time": 345.773502,
          "velocity": 0.6299212598425197
        },
        {
          "duration": 0.09677399999998215,
          "durationTicks": 120,
          "midi": 77,
          "name": "F5",
          "ticks": 428880,
          "time": 345.870276,
          "velocity": 0.6299212598425197
        },
        {
          "duration": 0.096774000000039,
          "durationTicks": 120,
          "midi": 75,
          "name": "D#5",
          "ticks": 429000,
          "time": 345.96705,
          "velocity": 0.6299212598425197
        },
        {
          "duration": 0.09677399999998215,
          "durationTicks": 120,
          "midi": 74,
          "name": "D5",
          "ticks": 429120,
          "time": 346.063824,
          "velocity": 0.6299212598425197
        },
        {
          "duration": 0.09677399999998215,
          "durationTicks": 120,
          "midi": 72,
          "name": "C5",
          "ticks": 429240,
          "time": 346.160598,
          "velocity": 0.6299212598425197
        },
        {
          "duration": 0.096774000000039,
          "durationTicks": 120,
          "midi": 70,
          "name": "A#4",
          "ticks": 429360,
          "time": 346.257372,
          "velocity": 0.6299212598425197
        },
        {
          "duration": 0.09677399999998215,
          "durationTicks": 120,
          "midi": 68,
          "name": "G#4",
          "ticks": 429480,
          "time": 346.354146,
          "velocity": 0.6299212598425197
        },
        {
          "duration": 0.09677399999998215,
          "durationTicks": 120,
          "midi": 67,
          "name": "G4",
          "ticks": 429600,
          "time": 346.45092,
          "velocity": 0.6299212598425197
        },
        {
          "duration": 0.096774000000039,
          "durationTicks": 120,
          "midi": 65,
          "name": "F4",
          "ticks": 429720,
          "time": 346.547694,
          "velocity": 0.6299212598425197
        },
        {
          "duration": 0.09677399999998215,
          "durationTicks": 120,
          "midi": 63,
          "name": "D#4",
          "ticks": 429840,
          "time": 346.644468,
          "velocity": 0.6299212598425197
        },
        {
          "duration": 0.09677399999998215,
          "durationTicks": 120,
          "midi": 62,
          "name": "D4",
          "ticks": 429960,
          "time": 346.741242,
          "velocity": 0.6299212598425197
        },
        {
          "duration": 0.6129020000000196,
          "durationTicks": 760,
          "midi": 63,
          "name": "D#4",
          "ticks": 430080,
          "time": 346.838016,
          "velocity": 0.6299212598425197
        },
        {
          "duration": 1.5483839999999987,
          "durationTicks": 1920,
          "midi": 62,
          "name": "D4",
          "ticks": 432000,
          "time": 348.3864,
          "velocity": 0.6299212598425197
        },
        {
          "duration": 0.1370964999999842,
          "durationTicks": 170,
          "midi": 63,
          "name": "D#4",
          "ticks": 433920,
          "time": 349.934784,
          "velocity": 0.6299212598425197
        },
        {
          "duration": 1.5483839999999987,
          "durationTicks": 1920,
          "midi": 60,
          "name": "C4",
          "ticks": 435840,
          "time": 351.483168,
          "velocity": 0.6299212598425197
        },
        {
          "duration": 0.1370964999999842,
          "durationTicks": 170,
          "midi": 62,
          "name": "D4",
          "ticks": 437760,
          "time": 353.031552,
          "velocity": 0.6299212598425197
        },
        {
          "duration": 0.13709650000004103,
          "durationTicks": 170,
          "midi": 82,
          "name": "A#5",
          "ticks": 438960,
          "time": 353.99929199999997,
          "velocity": 0.6299212598425197
        },
        {
          "duration": 0.1370964999999842,
          "durationTicks": 170,
          "midi": 82,
          "name": "A#5",
          "ticks": 439200,
          "time": 354.19284,
          "velocity": 0.6299212598425197
        },
        {
          "duration": 0.1370964999999842,
          "durationTicks": 170,
          "midi": 82,
          "name": "A#5",
          "ticks": 439440,
          "time": 354.386388,
          "velocity": 0.6299212598425197
        },
        {
          "duration": 0.1370964999999842,
          "durationTicks": 170,
          "midi": 82,
          "name": "A#5",
          "ticks": 439680,
          "time": 354.579936,
          "velocity": 0.6299212598425197
        },
        {
          "duration": 0.19354800000002115,
          "durationTicks": 240,
          "midi": 72,
          "name": "C5",
          "ticks": 439920,
          "time": 354.773484,
          "velocity": 0.6299212598425197
        },
        {
          "duration": 0.1935479999999643,
          "durationTicks": 240,
          "midi": 73,
          "name": "C#5",
          "ticks": 440160,
          "time": 354.967032,
          "velocity": 0.6299212598425197
        },
        {
          "duration": 0.1370964999999842,
          "durationTicks": 170,
          "midi": 72,
          "name": "C5",
          "ticks": 440400,
          "time": 355.16058,
          "velocity": 0.6299212598425197
        },
        {
          "duration": 0.1935479999999643,
          "durationTicks": 240,
          "midi": 77,
          "name": "F5",
          "ticks": 440880,
          "time": 355.547676,
          "velocity": 0.6299212598425197
        },
        {
          "duration": 0.19354800000002115,
          "durationTicks": 240,
          "midi": 79,
          "name": "G5",
          "ticks": 441120,
          "time": 355.741224,
          "velocity": 0.6299212598425197
        },
        {
          "duration": 0.1935479999999643,
          "durationTicks": 240,
          "midi": 80,
          "name": "G#5",
          "ticks": 441360,
          "time": 355.934772,
          "velocity": 0.6299212598425197
        },
        {
          "duration": 0.1370964999999842,
          "durationTicks": 170,
          "midi": 80,
          "name": "G#5",
          "ticks": 441600,
          "time": 356.12832,
          "velocity": 0.6299212598425197
        },
        {
          "duration": 0.19354800000002115,
          "durationTicks": 240,
          "midi": 70,
          "name": "A#4",
          "ticks": 441840,
          "time": 356.321868,
          "velocity": 0.6299212598425197
        },
        {
          "duration": 0.1935479999999643,
          "durationTicks": 240,
          "midi": 71,
          "name": "B4",
          "ticks": 442080,
          "time": 356.515416,
          "velocity": 0.6299212598425197
        },
        {
          "duration": 0.1370964999999842,
          "durationTicks": 170,
          "midi": 70,
          "name": "A#4",
          "ticks": 442320,
          "time": 356.708964,
          "velocity": 0.6299212598425197
        },
        {
          "duration": 0.1935479999999643,
          "durationTicks": 240,
          "midi": 75,
          "name": "D#5",
          "ticks": 442800,
          "time": 357.09606,
          "velocity": 0.6299212598425197
        },
        {
          "duration": 0.19354800000002115,
          "durationTicks": 240,
          "midi": 77,
          "name": "F5",
          "ticks": 443040,
          "time": 357.289608,
          "velocity": 0.6299212598425197
        },
        {
          "duration": 0.1370964999999842,
          "durationTicks": 170,
          "midi": 79,
          "name": "G5",
          "ticks": 443280,
          "time": 357.483156,
          "velocity": 0.6299212598425197
        },
        {
          "duration": 0.096774000000039,
          "durationTicks": 120,
          "midi": 77,
          "name": "F5",
          "ticks": 443520,
          "time": 357.676704,
          "velocity": 0.6299212598425197
        },
        {
          "duration": 0.09677399999998215,
          "durationTicks": 120,
          "midi": 82,
          "name": "A#5",
          "ticks": 443640,
          "time": 357.773478,
          "velocity": 0.6299212598425197
        },
        {
          "duration": 0.09677399999998215,
          "durationTicks": 120,
          "midi": 84,
          "name": "C6",
          "ticks": 443760,
          "time": 357.870252,
          "velocity": 0.6299212598425197
        },
        {
          "duration": 0.096774000000039,
          "durationTicks": 120,
          "midi": 82,
          "name": "A#5",
          "ticks": 443880,
          "time": 357.967026,
          "velocity": 0.6299212598425197
        },
        {
          "duration": 0.09677399999998215,
          "durationTicks": 120,
          "midi": 80,
          "name": "G#5",
          "ticks": 444000,
          "time": 358.0638,
          "velocity": 0.6299212598425197
        },
        {
          "duration": 0.09677399999998215,
          "durationTicks": 120,
          "midi": 79,
          "name": "G5",
          "ticks": 444120,
          "time": 358.160574,
          "velocity": 0.6299212598425197
        },
        {
          "duration": 0.096774000000039,
          "durationTicks": 120,
          "midi": 77,
          "name": "F5",
          "ticks": 444240,
          "time": 358.257348,
          "velocity": 0.6299212598425197
        },
        {
          "duration": 0.09677399999998215,
          "durationTicks": 120,
          "midi": 75,
          "name": "D#5",
          "ticks": 444360,
          "time": 358.354122,
          "velocity": 0.6299212598425197
        },
        {
          "duration": 0.09677399999998215,
          "durationTicks": 120,
          "midi": 74,
          "name": "D5",
          "ticks": 444480,
          "time": 358.450896,
          "velocity": 0.6299212598425197
        },
        {
          "duration": 0.096774000000039,
          "durationTicks": 120,
          "midi": 72,
          "name": "C5",
          "ticks": 444600,
          "time": 358.54767,
          "velocity": 0.6299212598425197
        },
        {
          "duration": 0.09677399999998215,
          "durationTicks": 120,
          "midi": 70,
          "name": "A#4",
          "ticks": 444720,
          "time": 358.644444,
          "velocity": 0.6299212598425197
        },
        {
          "duration": 0.09677399999998215,
          "durationTicks": 120,
          "midi": 68,
          "name": "G#4",
          "ticks": 444840,
          "time": 358.741218,
          "velocity": 0.6299212598425197
        },
        {
          "duration": 0.09677399999998215,
          "durationTicks": 120,
          "midi": 67,
          "name": "G4",
          "ticks": 444960,
          "time": 358.837992,
          "velocity": 0.6299212598425197
        },
        {
          "duration": 0.096774000000039,
          "durationTicks": 120,
          "midi": 65,
          "name": "F4",
          "ticks": 445080,
          "time": 358.93476599999997,
          "velocity": 0.6299212598425197
        },
        {
          "duration": 0.09677399999998215,
          "durationTicks": 120,
          "midi": 63,
          "name": "D#4",
          "ticks": 445200,
          "time": 359.03154,
          "velocity": 0.6299212598425197
        },
        {
          "duration": 0.09677399999998215,
          "durationTicks": 120,
          "midi": 62,
          "name": "D4",
          "ticks": 445320,
          "time": 359.128314,
          "velocity": 0.6299212598425197
        },
        {
          "duration": 0.6129020000000196,
          "durationTicks": 760,
          "midi": 63,
          "name": "D#4",
          "ticks": 445440,
          "time": 359.22508799999997,
          "velocity": 0.6299212598425197
        },
        {
          "duration": 0.129032000000052,
          "durationTicks": 160,
          "midi": 51,
          "name": "D#3",
          "ticks": 462960,
          "time": 373.354092,
          "velocity": 0.47244094488188976
        },
        {
          "duration": 0.12903199999999515,
          "durationTicks": 160,
          "midi": 51,
          "name": "D#3",
          "ticks": 463200,
          "time": 373.54764,
          "velocity": 0.47244094488188976
        },
        {
          "duration": 0.12903199999999515,
          "durationTicks": 160,
          "midi": 51,
          "name": "D#3",
          "ticks": 463440,
          "time": 373.741188,
          "velocity": 0.47244094488188976
        },
        {
          "duration": 0.129032000000052,
          "durationTicks": 160,
          "midi": 51,
          "name": "D#3",
          "ticks": 463680,
          "time": 373.934736,
          "velocity": 0.47244094488188976
        },
        {
          "duration": 0.12903199999999515,
          "durationTicks": 160,
          "midi": 51,
          "name": "D#3",
          "ticks": 463920,
          "time": 374.128284,
          "velocity": 0.47244094488188976
        },
        {
          "duration": 0.129032000000052,
          "durationTicks": 160,
          "midi": 51,
          "name": "D#3",
          "ticks": 464160,
          "time": 374.321832,
          "velocity": 0.47244094488188976
        },
        {
          "duration": 0.12903199999999515,
          "durationTicks": 160,
          "midi": 51,
          "name": "D#3",
          "ticks": 464400,
          "time": 374.51538,
          "velocity": 0.47244094488188976
        },
        {
          "duration": 0.129032000000052,
          "durationTicks": 160,
          "midi": 53,
          "name": "F3",
          "ticks": 464880,
          "time": 374.902476,
          "velocity": 0.47244094488188976
        },
        {
          "duration": 0.12903199999999515,
          "durationTicks": 160,
          "midi": 53,
          "name": "F3",
          "ticks": 465120,
          "time": 375.096024,
          "velocity": 0.47244094488188976
        },
        {
          "duration": 0.12903199999999515,
          "durationTicks": 160,
          "midi": 53,
          "name": "F3",
          "ticks": 465360,
          "time": 375.289572,
          "velocity": 0.47244094488188976
        },
        {
          "duration": 0.129032000000052,
          "durationTicks": 160,
          "midi": 53,
          "name": "F3",
          "ticks": 465600,
          "time": 375.48312,
          "velocity": 0.47244094488188976
        },
        {
          "duration": 0.12903199999999515,
          "durationTicks": 160,
          "midi": 53,
          "name": "F3",
          "ticks": 465840,
          "time": 375.676668,
          "velocity": 0.47244094488188976
        },
        {
          "duration": 0.129032000000052,
          "durationTicks": 160,
          "midi": 53,
          "name": "F3",
          "ticks": 466080,
          "time": 375.87021599999997,
          "velocity": 0.47244094488188976
        },
        {
          "duration": 0.12903199999999515,
          "durationTicks": 160,
          "midi": 53,
          "name": "F3",
          "ticks": 466320,
          "time": 376.063764,
          "velocity": 0.47244094488188976
        },
        {
          "duration": 0.129032000000052,
          "durationTicks": 160,
          "midi": 58,
          "name": "A#3",
          "ticks": 466800,
          "time": 376.45086,
          "velocity": 0.47244094488188976
        },
        {
          "duration": 0.12903199999999515,
          "durationTicks": 160,
          "midi": 58,
          "name": "A#3",
          "ticks": 467040,
          "time": 376.644408,
          "velocity": 0.47244094488188976
        },
        {
          "duration": 0.12903199999999515,
          "durationTicks": 160,
          "midi": 58,
          "name": "A#3",
          "ticks": 467280,
          "time": 376.837956,
          "velocity": 0.47244094488188976
        },
        {
          "duration": 0.129032000000052,
          "durationTicks": 160,
          "midi": 58,
          "name": "A#3",
          "ticks": 467520,
          "time": 377.031504,
          "velocity": 0.47244094488188976
        },
        {
          "duration": 0.12903199999999515,
          "durationTicks": 160,
          "midi": 58,
          "name": "A#3",
          "ticks": 467760,
          "time": 377.225052,
          "velocity": 0.47244094488188976
        },
        {
          "duration": 0.129032000000052,
          "durationTicks": 160,
          "midi": 60,
          "name": "C4",
          "ticks": 468000,
          "time": 377.41859999999997,
          "velocity": 0.47244094488188976
        },
        {
          "duration": 0.12903199999999515,
          "durationTicks": 160,
          "midi": 60,
          "name": "C4",
          "ticks": 468240,
          "time": 377.612148,
          "velocity": 0.47244094488188976
        },
        {
          "duration": 0.12903199999999515,
          "durationTicks": 160,
          "midi": 62,
          "name": "D4",
          "ticks": 468480,
          "time": 377.805696,
          "velocity": 0.47244094488188976
        },
        {
          "duration": 0.129032000000052,
          "durationTicks": 160,
          "midi": 62,
          "name": "D4",
          "ticks": 468720,
          "time": 377.999244,
          "velocity": 0.47244094488188976
        },
        {
          "duration": 0.12903199999999515,
          "durationTicks": 160,
          "midi": 62,
          "name": "D4",
          "ticks": 468960,
          "time": 378.192792,
          "velocity": 0.47244094488188976
        },
        {
          "duration": 0.12903199999999515,
          "durationTicks": 160,
          "midi": 62,
          "name": "D4",
          "ticks": 469200,
          "time": 378.38634,
          "velocity": 0.47244094488188976
        },
        {
          "duration": 0.129032000000052,
          "durationTicks": 160,
          "midi": 62,
          "name": "D4",
          "ticks": 469440,
          "time": 378.579888,
          "velocity": 0.47244094488188976
        },
        {
          "duration": 0.38387019999998984,
          "durationTicks": 476,
          "midi": 55,
          "name": "G3",
          "ticks": 470880,
          "time": 379.741176,
          "velocity": 0.5511811023622047
        },
        {
          "duration": 0.38387019999998984,
          "durationTicks": 476,
          "midi": 53,
          "name": "F3",
          "ticks": 471360,
          "time": 380.128272,
          "velocity": 0.5511811023622047
        },
        {
          "duration": 0.38387019999998984,
          "durationTicks": 476,
          "midi": 53,
          "name": "F3",
          "ticks": 472800,
          "time": 381.28956,
          "velocity": 0.5511811023622047
        },
        {
          "duration": 0.3838702000000467,
          "durationTicks": 476,
          "midi": 51,
          "name": "D#3",
          "ticks": 473280,
          "time": 381.676656,
          "velocity": 0.5511811023622047
        },
        {
          "duration": 0.1370964999999842,
          "durationTicks": 170,
          "midi": 60,
          "name": "C4",
          "ticks": 474720,
          "time": 382.837944,
          "velocity": 0.5511811023622047
        },
        {
          "duration": 0.1370964999999842,
          "durationTicks": 170,
          "midi": 56,
          "name": "G#3",
          "ticks": 475680,
          "time": 383.612136,
          "velocity": 0.5511811023622047
        },
        {
          "duration": 0.12903199999999515,
          "durationTicks": 160,
          "midi": 55,
          "name": "G3",
          "ticks": 476160,
          "time": 383.999232,
          "velocity": 0.5511811023622047
        },
        {
          "duration": 0.129032000000052,
          "durationTicks": 160,
          "midi": 55,
          "name": "G3",
          "ticks": 476400,
          "time": 384.19277999999997,
          "velocity": 0.5511811023622047
        },
        {
          "duration": 0.12903199999999515,
          "durationTicks": 160,
          "midi": 55,
          "name": "G3",
          "ticks": 476640,
          "time": 384.386328,
          "velocity": 0.5511811023622047
        },
        {
          "duration": 0.12903199999999515,
          "durationTicks": 160,
          "midi": 55,
          "name": "G3",
          "ticks": 476880,
          "time": 384.579876,
          "velocity": 0.5511811023622047
        },
        {
          "duration": 0.129032000000052,
          "durationTicks": 160,
          "midi": 55,
          "name": "G3",
          "ticks": 477120,
          "time": 384.773424,
          "velocity": 0.5511811023622047
        },
        {
          "duration": 0.129032000000052,
          "durationTicks": 160,
          "midi": 62,
          "name": "D4",
          "ticks": 478320,
          "time": 385.74116399999997,
          "velocity": 0.47244094488188976
        },
        {
          "duration": 0.12903199999999515,
          "durationTicks": 160,
          "midi": 62,
          "name": "D4",
          "ticks": 478560,
          "time": 385.934712,
          "velocity": 0.47244094488188976
        },
        {
          "duration": 0.12903199999999515,
          "durationTicks": 160,
          "midi": 62,
          "name": "D4",
          "ticks": 478800,
          "time": 386.12826,
          "velocity": 0.47244094488188976
        },
        {
          "duration": 0.129032000000052,
          "durationTicks": 160,
          "midi": 62,
          "name": "D4",
          "ticks": 479040,
          "time": 386.321808,
          "velocity": 0.47244094488188976
        },
        {
          "duration": 0.12903199999999515,
          "durationTicks": 160,
          "midi": 62,
          "name": "D4",
          "ticks": 479280,
          "time": 386.515356,
          "velocity": 0.47244094488188976
        },
        {
          "duration": 0.12903199999999515,
          "durationTicks": 160,
          "midi": 62,
          "name": "D4",
          "ticks": 479520,
          "time": 386.708904,
          "velocity": 0.47244094488188976
        },
        {
          "duration": 0.129032000000052,
          "durationTicks": 160,
          "midi": 62,
          "name": "D4",
          "ticks": 479760,
          "time": 386.902452,
          "velocity": 0.47244094488188976
        },
        {
          "duration": 0.129032000000052,
          "durationTicks": 160,
          "midi": 63,
          "name": "D#4",
          "ticks": 480240,
          "time": 387.28954799999997,
          "velocity": 0.47244094488188976
        },
        {
          "duration": 0.12903199999999515,
          "durationTicks": 160,
          "midi": 63,
          "name": "D#4",
          "ticks": 480480,
          "time": 387.483096,
          "velocity": 0.47244094488188976
        },
        {
          "duration": 0.12903199999999515,
          "durationTicks": 160,
          "midi": 63,
          "name": "D#4",
          "ticks": 480720,
          "time": 387.676644,
          "velocity": 0.47244094488188976
        },
        {
          "duration": 0.129032000000052,
          "durationTicks": 160,
          "midi": 63,
          "name": "D#4",
          "ticks": 480960,
          "time": 387.870192,
          "velocity": 0.47244094488188976
        },
        {
          "duration": 0.12903199999999515,
          "durationTicks": 160,
          "midi": 63,
          "name": "D#4",
          "ticks": 481200,
          "time": 388.06374,
          "velocity": 0.47244094488188976
        },
        {
          "duration": 0.12903199999999515,
          "durationTicks": 160,
          "midi": 67,
          "name": "G4",
          "ticks": 481440,
          "time": 388.257288,
          "velocity": 0.47244094488188976
        },
        {
          "duration": 0.129032000000052,
          "durationTicks": 160,
          "midi": 67,
          "name": "G4",
          "ticks": 481680,
          "time": 388.450836,
          "velocity": 0.47244094488188976
        },
        {
          "duration": 0.12903199999999515,
          "durationTicks": 160,
          "midi": 60,
          "name": "C4",
          "ticks": 482160,
          "time": 388.837932,
          "velocity": 0.47244094488188976
        },
        {
          "duration": 0.12903199999999515,
          "durationTicks": 160,
          "midi": 60,
          "name": "C4",
          "ticks": 482400,
          "time": 389.03148,
          "velocity": 0.47244094488188976
        },
        {
          "duration": 0.12903199999999515,
          "durationTicks": 160,
          "midi": 60,
          "name": "C4",
          "ticks": 482640,
          "time": 389.225028,
          "velocity": 0.47244094488188976
        },
        {
          "duration": 0.129032000000052,
          "durationTicks": 160,
          "midi": 60,
          "name": "C4",
          "ticks": 482880,
          "time": 389.418576,
          "velocity": 0.47244094488188976
        },
        {
          "duration": 0.12903199999999515,
          "durationTicks": 160,
          "midi": 60,
          "name": "C4",
          "ticks": 483120,
          "time": 389.612124,
          "velocity": 0.47244094488188976
        },
        {
          "duration": 0.12903199999999515,
          "durationTicks": 160,
          "midi": 60,
          "name": "C4",
          "ticks": 483360,
          "time": 389.805672,
          "velocity": 0.47244094488188976
        },
        {
          "duration": 0.129032000000052,
          "durationTicks": 160,
          "midi": 60,
          "name": "C4",
          "ticks": 483600,
          "time": 389.99922,
          "velocity": 0.47244094488188976
        },
        {
          "duration": 0.12903199999999515,
          "durationTicks": 160,
          "midi": 62,
          "name": "D4",
          "ticks": 484080,
          "time": 390.386316,
          "velocity": 0.47244094488188976
        },
        {
          "duration": 0.129032000000052,
          "durationTicks": 160,
          "midi": 62,
          "name": "D4",
          "ticks": 484320,
          "time": 390.579864,
          "velocity": 0.47244094488188976
        },
        {
          "duration": 0.12903199999999515,
          "durationTicks": 160,
          "midi": 62,
          "name": "D4",
          "ticks": 484560,
          "time": 390.773412,
          "velocity": 0.47244094488188976
        },
        {
          "duration": 0.129032000000052,
          "durationTicks": 160,
          "midi": 62,
          "name": "D4",
          "ticks": 484800,
          "time": 390.96696,
          "velocity": 0.47244094488188976
        },
        {
          "duration": 0.12903199999999515,
          "durationTicks": 160,
          "midi": 62,
          "name": "D4",
          "ticks": 485040,
          "time": 391.160508,
          "velocity": 0.47244094488188976
        },
        {
          "duration": 0.12903199999999515,
          "durationTicks": 160,
          "midi": 62,
          "name": "D4",
          "ticks": 485280,
          "time": 391.354056,
          "velocity": 0.47244094488188976
        },
        {
          "duration": 0.129032000000052,
          "durationTicks": 160,
          "midi": 62,
          "name": "D4",
          "ticks": 485520,
          "time": 391.547604,
          "velocity": 0.47244094488188976
        },
        {
          "duration": 0.38387019999998984,
          "durationTicks": 476,
          "midi": 55,
          "name": "G3",
          "ticks": 486240,
          "time": 392.128248,
          "velocity": 0.5511811023622047
        },
        {
          "duration": 0.3838702000000467,
          "durationTicks": 476,
          "midi": 53,
          "name": "F3",
          "ticks": 486720,
          "time": 392.51534399999997,
          "velocity": 0.5511811023622047
        },
        {
          "duration": 0.38387019999998984,
          "durationTicks": 476,
          "midi": 53,
          "name": "F3",
          "ticks": 488160,
          "time": 393.676632,
          "velocity": 0.5511811023622047
        },
        {
          "duration": 0.3838702000000467,
          "durationTicks": 476,
          "midi": 51,
          "name": "D#3",
          "ticks": 488640,
          "time": 394.06372799999997,
          "velocity": 0.5511811023622047
        },
        {
          "duration": 0.1370964999999842,
          "durationTicks": 170,
          "midi": 60,
          "name": "C4",
          "ticks": 490080,
          "time": 395.225016,
          "velocity": 0.5511811023622047
        },
        {
          "duration": 0.1370964999999842,
          "durationTicks": 170,
          "midi": 65,
          "name": "F4",
          "ticks": 491040,
          "time": 395.999208,
          "velocity": 0.5511811023622047
        },
        {
          "duration": 0.6041666666666856,
          "durationTicks": 290,
          "midi": 63,
          "name": "D#4",
          "ticks": 491520,
          "time": 396.386304,
          "velocity": 0.5511811023622047
        },
        {
          "duration": 0.16666666666662877,
          "durationTicks": 160,
          "midi": 70,
          "name": "A#4",
          "ticks": 504240,
          "time": 422.8446373333334,
          "velocity": 0.6299212598425197
        },
        {
          "duration": 0.25,
          "durationTicks": 240,
          "midi": 70,
          "name": "A#4",
          "ticks": 504480,
          "time": 423.0946373333334,
          "velocity": 0.6299212598425197
        },
        {
          "duration": 0.16666666666662877,
          "durationTicks": 160,
          "midi": 75,
          "name": "D#5",
          "ticks": 504720,
          "time": 423.3446373333334,
          "velocity": 0.6299212598425197
        },
        {
          "duration": 0.16666666666662877,
          "durationTicks": 160,
          "midi": 75,
          "name": "D#5",
          "ticks": 504960,
          "time": 423.5946373333334,
          "velocity": 0.6299212598425197
        },
        {
          "duration": 0.3020833333333144,
          "durationTicks": 290,
          "midi": 75,
          "name": "D#5",
          "ticks": 505200,
          "time": 423.8446373333334,
          "velocity": 0.6299212598425197
        },
        {
          "duration": 0.16666666666662877,
          "durationTicks": 160,
          "midi": 70,
          "name": "A#4",
          "ticks": 505680,
          "time": 424.3446373333334,
          "velocity": 0.6299212598425197
        },
        {
          "duration": 0.25,
          "durationTicks": 240,
          "midi": 70,
          "name": "A#4",
          "ticks": 505920,
          "time": 424.5946373333334,
          "velocity": 0.6299212598425197
        },
        {
          "duration": 0.16666666666662877,
          "durationTicks": 160,
          "midi": 77,
          "name": "F5",
          "ticks": 506160,
          "time": 424.8446373333334,
          "velocity": 0.6299212598425197
        },
        {
          "duration": 0.16666666666662877,
          "durationTicks": 160,
          "midi": 77,
          "name": "F5",
          "ticks": 506400,
          "time": 425.0946373333334,
          "velocity": 0.6299212598425197
        },
        {
          "duration": 0.3020833333333144,
          "durationTicks": 290,
          "midi": 77,
          "name": "F5",
          "ticks": 506640,
          "time": 425.3446373333334,
          "velocity": 0.6299212598425197
        },
        {
          "duration": 0.16666666666662877,
          "durationTicks": 160,
          "midi": 70,
          "name": "A#4",
          "ticks": 507120,
          "time": 425.8446373333334,
          "velocity": 0.6299212598425197
        },
        {
          "duration": 0.25,
          "durationTicks": 240,
          "midi": 70,
          "name": "A#4",
          "ticks": 507360,
          "time": 426.0946373333334,
          "velocity": 0.6299212598425197
        },
        {
          "duration": 0.16666666666662877,
          "durationTicks": 160,
          "midi": 79,
          "name": "G5",
          "ticks": 507600,
          "time": 426.3446373333334,
          "velocity": 0.6299212598425197
        },
        {
          "duration": 0.16666666666662877,
          "durationTicks": 160,
          "midi": 79,
          "name": "G5",
          "ticks": 507840,
          "time": 426.5946373333334,
          "velocity": 0.6299212598425197
        },
        {
          "duration": 0.0625,
          "durationTicks": 60,
          "midi": 82,
          "name": "A#5",
          "ticks": 508080,
          "time": 426.8446373333334,
          "velocity": 0.6299212598425197
        },
        {
          "duration": 0.1875,
          "durationTicks": 180,
          "midi": 80,
          "name": "G#5",
          "ticks": 508140,
          "time": 426.9071373333334,
          "velocity": 0.6299212598425197
        },
        {
          "duration": 0.25,
          "durationTicks": 240,
          "midi": 79,
          "name": "G5",
          "ticks": 508320,
          "time": 427.0946373333334,
          "velocity": 0.6299212598425197
        },
        {
          "duration": 0.19999999999998863,
          "durationTicks": 192,
          "midi": 80,
          "name": "G#5",
          "ticks": 508560,
          "time": 427.3446373333334,
          "velocity": 0.6299212598425197
        },
        {
          "duration": 0.125,
          "durationTicks": 120,
          "midi": 77,
          "name": "F5",
          "ticks": 508800,
          "time": 427.5946373333334,
          "velocity": 0.6299212598425197
        },
        {
          "duration": 0.125,
          "durationTicks": 120,
          "midi": 79,
          "name": "G5",
          "ticks": 508920,
          "time": 427.7196373333334,
          "velocity": 0.6299212598425197
        },
        {
          "duration": 0.125,
          "durationTicks": 120,
          "midi": 77,
          "name": "F5",
          "ticks": 509040,
          "time": 427.8446373333334,
          "velocity": 0.6299212598425197
        },
        {
          "duration": 0.125,
          "durationTicks": 120,
          "midi": 75,
          "name": "D#5",
          "ticks": 509160,
          "time": 427.9696373333334,
          "velocity": 0.6299212598425197
        },
        {
          "duration": 0.125,
          "durationTicks": 120,
          "midi": 74,
          "name": "D5",
          "ticks": 509280,
          "time": 428.0946373333334,
          "velocity": 0.6299212598425197
        },
        {
          "duration": 0.125,
          "durationTicks": 120,
          "midi": 72,
          "name": "C5",
          "ticks": 509400,
          "time": 428.2196373333334,
          "velocity": 0.6299212598425197
        },
        {
          "duration": 0.3020833333333144,
          "durationTicks": 290,
          "midi": 70,
          "name": "A#4",
          "ticks": 509520,
          "time": 428.3446373333334,
          "velocity": 0.6299212598425197
        },
        {
          "duration": 0.17708333333331439,
          "durationTicks": 170,
          "midi": 79,
          "name": "G5",
          "ticks": 515760,
          "time": 434.8446373333334,
          "velocity": 0.6299212598425197
        },
        {
          "duration": 0.22916666666662877,
          "durationTicks": 220,
          "midi": 79,
          "name": "G5",
          "ticks": 516000,
          "time": 435.0946373333334,
          "velocity": 0.6299212598425197
        },
        {
          "duration": 0.052083333333314386,
          "durationTicks": 50,
          "midi": 80,
          "name": "G#5",
          "ticks": 516360,
          "time": 435.4696373333334,
          "velocity": 0.6299212598425197
        },
        {
          "duration": 0.17708333333331439,
          "durationTicks": 170,
          "midi": 79,
          "name": "G5",
          "ticks": 516480,
          "time": 435.5946373333334,
          "velocity": 0.6299212598425197
        },
        {
          "duration": 0.17708333333331439,
          "durationTicks": 170,
          "midi": 74,
          "name": "D5",
          "ticks": 516720,
          "time": 435.8446373333334,
          "velocity": 0.6299212598425197
        },
        {
          "duration": 0.17708333333331439,
          "durationTicks": 170,
          "midi": 79,
          "name": "G5",
          "ticks": 516960,
          "time": 436.0946373333334,
          "velocity": 0.6299212598425197
        },
        {
          "duration": 0.17708333333331439,
          "durationTicks": 170,
          "midi": 77,
          "name": "F5",
          "ticks": 517200,
          "time": 436.3446373333334,
          "velocity": 0.6299212598425197
        },
        {
          "duration": 0.125,
          "durationTicks": 120,
          "midi": 75,
          "name": "D#5",
          "ticks": 517440,
          "time": 436.5946373333334,
          "velocity": 0.6299212598425197
        },
        {
          "duration": 0.125,
          "durationTicks": 120,
          "midi": 77,
          "name": "F5",
          "ticks": 517560,
          "time": 436.7196373333334,
          "velocity": 0.6299212598425197
        },
        {
          "duration": 0.125,
          "durationTicks": 120,
          "midi": 79,
          "name": "G5",
          "ticks": 517680,
          "time": 436.8446373333334,
          "velocity": 0.6299212598425197
        },
        {
          "duration": 0.125,
          "durationTicks": 120,
          "midi": 77,
          "name": "F5",
          "ticks": 517800,
          "time": 436.9696373333334,
          "velocity": 0.6299212598425197
        },
        {
          "duration": 0.125,
          "durationTicks": 120,
          "midi": 75,
          "name": "D#5",
          "ticks": 517920,
          "time": 437.0946373333334,
          "velocity": 0.6299212598425197
        },
        {
          "duration": 0.125,
          "durationTicks": 120,
          "midi": 74,
          "name": "D5",
          "ticks": 518040,
          "time": 437.2196373333334,
          "velocity": 0.6299212598425197
        },
        {
          "duration": 0.16666666666662877,
          "durationTicks": 160,
          "midi": 72,
          "name": "C5",
          "ticks": 518160,
          "time": 437.3446373333334,
          "velocity": 0.6299212598425197
        },
        {
          "duration": 0.17708333333331439,
          "durationTicks": 170,
          "midi": 76,
          "name": "E5",
          "ticks": 518640,
          "time": 437.8446373333334,
          "velocity": 0.6299212598425197
        },
        {
          "duration": 0.22916666666662877,
          "durationTicks": 220,
          "midi": 77,
          "name": "F5",
          "ticks": 518880,
          "time": 438.0946373333334,
          "velocity": 0.6299212598425197
        },
        {
          "duration": 0.052083333333314386,
          "durationTicks": 50,
          "midi": 79,
          "name": "G5",
          "ticks": 519240,
          "time": 438.4696373333334,
          "velocity": 0.6299212598425197
        },
        {
          "duration": 0.17708333333331439,
          "durationTicks": 170,
          "midi": 77,
          "name": "F5",
          "ticks": 519360,
          "time": 438.5946373333334,
          "velocity": 0.6299212598425197
        },
        {
          "duration": 0.17708333333331439,
          "durationTicks": 170,
          "midi": 72,
          "name": "C5",
          "ticks": 519600,
          "time": 438.8446373333334,
          "velocity": 0.6299212598425197
        },
        {
          "duration": 0.17708333333331439,
          "durationTicks": 170,
          "midi": 77,
          "name": "F5",
          "ticks": 519840,
          "time": 439.0946373333334,
          "velocity": 0.6299212598425197
        },
        {
          "duration": 0.17708333333331439,
          "durationTicks": 170,
          "midi": 75,
          "name": "D#5",
          "ticks": 520080,
          "time": 439.3446373333334,
          "velocity": 0.6299212598425197
        },
        {
          "duration": 0.125,
          "durationTicks": 120,
          "midi": 74,
          "name": "D5",
          "ticks": 520320,
          "time": 439.5946373333334,
          "velocity": 0.6299212598425197
        },
        {
          "duration": 0.125,
          "durationTicks": 120,
          "midi": 75,
          "name": "D#5",
          "ticks": 520440,
          "time": 439.7196373333334,
          "velocity": 0.6299212598425197
        },
        {
          "duration": 0.125,
          "durationTicks": 120,
          "midi": 77,
          "name": "F5",
          "ticks": 520560,
          "time": 439.8446373333334,
          "velocity": 0.6299212598425197
        },
        {
          "duration": 0.125,
          "durationTicks": 120,
          "midi": 75,
          "name": "D#5",
          "ticks": 520680,
          "time": 439.9696373333334,
          "velocity": 0.6299212598425197
        },
        {
          "duration": 0.125,
          "durationTicks": 120,
          "midi": 74,
          "name": "D5",
          "ticks": 520800,
          "time": 440.0946373333334,
          "velocity": 0.6299212598425197
        },
        {
          "duration": 0.125,
          "durationTicks": 120,
          "midi": 72,
          "name": "C5",
          "ticks": 520920,
          "time": 440.2196373333334,
          "velocity": 0.6299212598425197
        },
        {
          "duration": 0.16666666666662877,
          "durationTicks": 160,
          "midi": 70,
          "name": "A#4",
          "ticks": 521040,
          "time": 440.3446373333334,
          "velocity": 0.6299212598425197
        },
        {
          "duration": 0.125,
          "durationTicks": 120,
          "midi": 80,
          "name": "G#5",
          "ticks": 535920,
          "time": 455.8446373333334,
          "velocity": 0.6299212598425197
        },
        {
          "duration": 0.125,
          "durationTicks": 120,
          "midi": 79,
          "name": "G5",
          "ticks": 536040,
          "time": 455.9696373333334,
          "velocity": 0.6299212598425197
        },
        {
          "duration": 0.125,
          "durationTicks": 120,
          "midi": 80,
          "name": "G#5",
          "ticks": 536160,
          "time": 456.0946373333334,
          "velocity": 0.6299212598425197
        },
        {
          "duration": 0.125,
          "durationTicks": 120,
          "midi": 82,
          "name": "A#5",
          "ticks": 536280,
          "time": 456.2196373333334,
          "velocity": 0.6299212598425197
        },
        {
          "duration": 0.125,
          "durationTicks": 120,
          "midi": 80,
          "name": "G#5",
          "ticks": 536400,
          "time": 456.3446373333334,
          "velocity": 0.6299212598425197
        },
        {
          "duration": 0.125,
          "durationTicks": 120,
          "midi": 79,
          "name": "G5",
          "ticks": 536520,
          "time": 456.4696373333334,
          "velocity": 0.6299212598425197
        },
        {
          "duration": 0.125,
          "durationTicks": 120,
          "midi": 77,
          "name": "F5",
          "ticks": 536640,
          "time": 456.5946373333334,
          "velocity": 0.6299212598425197
        },
        {
          "duration": 0.125,
          "durationTicks": 120,
          "midi": 75,
          "name": "D#5",
          "ticks": 536760,
          "time": 456.7196373333334,
          "velocity": 0.6299212598425197
        },
        {
          "duration": 0.16666666666662877,
          "durationTicks": 160,
          "midi": 74,
          "name": "D5",
          "ticks": 536880,
          "time": 456.8446373333334,
          "velocity": 0.6299212598425197
        },
        {
          "duration": 0.16666666666662877,
          "durationTicks": 160,
          "midi": 74,
          "name": "D5",
          "ticks": 537120,
          "time": 457.0946373333334,
          "velocity": 0.6299212598425197
        },
        {
          "duration": 0.17708333333331439,
          "durationTicks": 170,
          "midi": 82,
          "name": "A#5",
          "ticks": 538800,
          "time": 458.8446373333334,
          "velocity": 0.6299212598425197
        },
        {
          "duration": 0.125,
          "durationTicks": 120,
          "midi": 80,
          "name": "G#5",
          "ticks": 539040,
          "time": 459.0946373333334,
          "velocity": 0.6299212598425197
        },
        {
          "duration": 0.125,
          "durationTicks": 120,
          "midi": 82,
          "name": "A#5",
          "ticks": 539160,
          "time": 459.2196373333334,
          "velocity": 0.6299212598425197
        },
        {
          "duration": 0.125,
          "durationTicks": 120,
          "midi": 80,
          "name": "G#5",
          "ticks": 539280,
          "time": 459.3446373333334,
          "velocity": 0.6299212598425197
        },
        {
          "duration": 0.125,
          "durationTicks": 120,
          "midi": 79,
          "name": "G5",
          "ticks": 539400,
          "time": 459.4696373333334,
          "velocity": 0.6299212598425197
        },
        {
          "duration": 0.125,
          "durationTicks": 120,
          "midi": 77,
          "name": "F5",
          "ticks": 539520,
          "time": 459.5946373333334,
          "velocity": 0.6299212598425197
        },
        {
          "duration": 0.125,
          "durationTicks": 120,
          "midi": 75,
          "name": "D#5",
          "ticks": 539640,
          "time": 459.7196373333334,
          "velocity": 0.6299212598425197
        },
        {
          "duration": 0.16666666666662877,
          "durationTicks": 160,
          "midi": 74,
          "name": "D5",
          "ticks": 539760,
          "time": 459.8446373333334,
          "velocity": 0.6299212598425197
        },
        {
          "duration": 0.16666666666662877,
          "durationTicks": 160,
          "midi": 74,
          "name": "D5",
          "ticks": 540000,
          "time": 460.0946373333334,
          "velocity": 0.6299212598425197
        },
        {
          "duration": 0.17708333333331439,
          "durationTicks": 170,
          "midi": 82,
          "name": "A#5",
          "ticks": 541680,
          "time": 461.8446373333334,
          "velocity": 0.6299212598425197
        },
        {
          "duration": 0.125,
          "durationTicks": 120,
          "midi": 80,
          "name": "G#5",
          "ticks": 541920,
          "time": 462.0946373333334,
          "velocity": 0.6299212598425197
        },
        {
          "duration": 0.125,
          "durationTicks": 120,
          "midi": 82,
          "name": "A#5",
          "ticks": 542040,
          "time": 462.2196373333334,
          "velocity": 0.6299212598425197
        },
        {
          "duration": 0.125,
          "durationTicks": 120,
          "midi": 80,
          "name": "G#5",
          "ticks": 542160,
          "time": 462.3446373333334,
          "velocity": 0.6299212598425197
        },
        {
          "duration": 0.125,
          "durationTicks": 120,
          "midi": 79,
          "name": "G5",
          "ticks": 542280,
          "time": 462.4696373333334,
          "velocity": 0.6299212598425197
        },
        {
          "duration": 0.125,
          "durationTicks": 120,
          "midi": 77,
          "name": "F5",
          "ticks": 542400,
          "time": 462.5946373333334,
          "velocity": 0.6299212598425197
        },
        {
          "duration": 0.125,
          "durationTicks": 120,
          "midi": 79,
          "name": "G5",
          "ticks": 542520,
          "time": 462.7196373333334,
          "velocity": 0.6299212598425197
        },
        {
          "duration": 0.125,
          "durationTicks": 120,
          "midi": 80,
          "name": "G#5",
          "ticks": 542640,
          "time": 462.8446373333334,
          "velocity": 0.6299212598425197
        },
        {
          "duration": 0.125,
          "durationTicks": 120,
          "midi": 82,
          "name": "A#5",
          "ticks": 542760,
          "time": 462.9696373333334,
          "velocity": 0.6299212598425197
        },
        {
          "duration": 0.125,
          "durationTicks": 120,
          "midi": 80,
          "name": "G#5",
          "ticks": 542880,
          "time": 463.0946373333334,
          "velocity": 0.6299212598425197
        },
        {
          "duration": 0.125,
          "durationTicks": 120,
          "midi": 79,
          "name": "G5",
          "ticks": 543000,
          "time": 463.2196373333334,
          "velocity": 0.6299212598425197
        },
        {
          "duration": 0.125,
          "durationTicks": 120,
          "midi": 77,
          "name": "F5",
          "ticks": 543120,
          "time": 463.3446373333334,
          "velocity": 0.6299212598425197
        },
        {
          "duration": 0.125,
          "durationTicks": 120,
          "midi": 79,
          "name": "G5",
          "ticks": 543240,
          "time": 463.4696373333334,
          "velocity": 0.6299212598425197
        },
        {
          "duration": 0.125,
          "durationTicks": 120,
          "midi": 80,
          "name": "G#5",
          "ticks": 543360,
          "time": 463.5946373333334,
          "velocity": 0.6299212598425197
        },
        {
          "duration": 0.125,
          "durationTicks": 120,
          "midi": 82,
          "name": "A#5",
          "ticks": 543480,
          "time": 463.7196373333334,
          "velocity": 0.6299212598425197
        },
        {
          "duration": 0.125,
          "durationTicks": 120,
          "midi": 80,
          "name": "G#5",
          "ticks": 543600,
          "time": 463.8446373333334,
          "velocity": 0.6299212598425197
        },
        {
          "duration": 0.125,
          "durationTicks": 120,
          "midi": 79,
          "name": "G5",
          "ticks": 543720,
          "time": 463.9696373333334,
          "velocity": 0.6299212598425197
        },
        {
          "duration": 0.125,
          "durationTicks": 120,
          "midi": 77,
          "name": "F5",
          "ticks": 543840,
          "time": 464.0946373333334,
          "velocity": 0.6299212598425197
        },
        {
          "duration": 0.125,
          "durationTicks": 120,
          "midi": 79,
          "name": "G5",
          "ticks": 543960,
          "time": 464.2196373333334,
          "velocity": 0.6299212598425197
        },
        {
          "duration": 0.125,
          "durationTicks": 120,
          "midi": 80,
          "name": "G#5",
          "ticks": 544080,
          "time": 464.3446373333334,
          "velocity": 0.6299212598425197
        },
        {
          "duration": 0.125,
          "durationTicks": 120,
          "midi": 82,
          "name": "A#5",
          "ticks": 544200,
          "time": 464.4696373333334,
          "velocity": 0.6299212598425197
        },
        {
          "duration": 0.125,
          "durationTicks": 120,
          "midi": 80,
          "name": "G#5",
          "ticks": 544320,
          "time": 464.5946373333334,
          "velocity": 0.6299212598425197
        },
        {
          "duration": 0.125,
          "durationTicks": 120,
          "midi": 79,
          "name": "G5",
          "ticks": 544440,
          "time": 464.7196373333334,
          "velocity": 0.6299212598425197
        },
        {
          "duration": 0.125,
          "durationTicks": 120,
          "midi": 77,
          "name": "F5",
          "ticks": 544560,
          "time": 464.8446373333334,
          "velocity": 0.6299212598425197
        },
        {
          "duration": 0.125,
          "durationTicks": 120,
          "midi": 79,
          "name": "G5",
          "ticks": 544680,
          "time": 464.9696373333334,
          "velocity": 0.6299212598425197
        },
        {
          "duration": 0.49999999999994316,
          "durationTicks": 480,
          "midi": 80,
          "name": "G#5",
          "ticks": 544800,
          "time": 465.0946373333334,
          "velocity": 0.6299212598425197
        },
        {
          "duration": 0.22159109375002117,
          "durationTicks": 195,
          "midi": 79,
          "name": "G5",
          "ticks": 545280,
          "time": 465.59463733333337,
          "velocity": 0.6299212598425197
        },
        {
          "duration": 0.7058819999999741,
          "durationTicks": 480,
          "midi": 80,
          "name": "G#5",
          "ticks": 545520,
          "time": 465.86736483333334,
          "velocity": 0.6299212598425197
        },
        {
          "duration": 0.6503414166667199,
          "durationTicks": 315,
          "midi": 79,
          "name": "G5",
          "ticks": 546000,
          "time": 466.5732468333333,
          "velocity": 0.6299212598425197
        },
        {
          "duration": 1.4875000000000114,
          "durationTicks": 476,
          "midi": 80,
          "name": "G#5",
          "ticks": 546240,
          "time": 466.98921325000003,
          "velocity": 0.6299212598425197
        },
        {
          "duration": 4.245833333333337,
          "durationTicks": 4076,
          "midi": 75,
          "name": "D#5",
          "ticks": 547680,
          "time": 471.48921325000003,
          "velocity": 0.5118110236220472
        },
        {
          "duration": 1.4958333333333371,
          "durationTicks": 1436,
          "midi": 74,
          "name": "D5",
          "ticks": 552000,
          "time": 475.98921325000003,
          "velocity": 0.5118110236220472
        },
        {
          "duration": 1.4958333333333371,
          "durationTicks": 1436,
          "midi": 75,
          "name": "D#5",
          "ticks": 553440,
          "time": 477.48921325000003,
          "velocity": 0.5118110236220472
        },
        {
          "duration": 1.4958333333333371,
          "durationTicks": 1436,
          "midi": 72,
          "name": "C5",
          "ticks": 554880,
          "time": 478.98921325000003,
          "velocity": 0.5118110236220472
        },
        {
          "duration": 1.4958333333333371,
          "durationTicks": 1436,
          "midi": 70,
          "name": "A#4",
          "ticks": 556320,
          "time": 480.48921325000003,
          "velocity": 0.5118110236220472
        },
        {
          "duration": 1.4958333333333371,
          "durationTicks": 1436,
          "midi": 68,
          "name": "G#4",
          "ticks": 557760,
          "time": 481.98921325000003,
          "velocity": 0.5118110236220472
        },
        {
          "duration": 0.0999999750000029,
          "durationTicks": 116,
          "midi": 55,
          "name": "G3",
          "ticks": 559200,
          "time": 483.48921325000003,
          "velocity": 0.5905511811023622
        },
        {
          "duration": 0.0999999750000029,
          "durationTicks": 116,
          "midi": 58,
          "name": "A#3",
          "ticks": 559320,
          "time": 483.5926615,
          "velocity": 0.5905511811023622
        },
        {
          "duration": 0.09999997499994606,
          "durationTicks": 116,
          "midi": 55,
          "name": "G3",
          "ticks": 559440,
          "time": 483.69610975000006,
          "velocity": 0.5905511811023622
        },
        {
          "duration": 0.0999999750000029,
          "durationTicks": 116,
          "midi": 58,
          "name": "A#3",
          "ticks": 559560,
          "time": 483.79955800000005,
          "velocity": 0.5905511811023622
        },
        {
          "duration": 0.0999999750000029,
          "durationTicks": 116,
          "midi": 55,
          "name": "G3",
          "ticks": 559680,
          "time": 483.90300625000003,
          "velocity": 0.5905511811023622
        },
        {
          "duration": 0.0999999750000029,
          "durationTicks": 116,
          "midi": 58,
          "name": "A#3",
          "ticks": 559800,
          "time": 484.0064545,
          "velocity": 0.5905511811023622
        },
        {
          "duration": 0.09999997499994606,
          "durationTicks": 116,
          "midi": 50,
          "name": "D3",
          "ticks": 559920,
          "time": 484.10990275000006,
          "velocity": 0.5905511811023622
        },
        {
          "duration": 0.0999999750000029,
          "durationTicks": 116,
          "midi": 58,
          "name": "A#3",
          "ticks": 560040,
          "time": 484.21335100000005,
          "velocity": 0.5905511811023622
        },
        {
          "duration": 0.0999999750000029,
          "durationTicks": 116,
          "midi": 50,
          "name": "D3",
          "ticks": 560160,
          "time": 484.31679925000003,
          "velocity": 0.5905511811023622
        },
        {
          "duration": 0.0999999750000029,
          "durationTicks": 116,
          "midi": 58,
          "name": "A#3",
          "ticks": 560280,
          "time": 484.4202475,
          "velocity": 0.5905511811023622
        },
        {
          "duration": 0.0999999750000029,
          "durationTicks": 116,
          "midi": 50,
          "name": "D3",
          "ticks": 560400,
          "time": 484.52369575000006,
          "velocity": 0.5905511811023622
        },
        {
          "duration": 0.0999999750000029,
          "durationTicks": 116,
          "midi": 58,
          "name": "A#3",
          "ticks": 560520,
          "time": 484.62714400000004,
          "velocity": 0.5905511811023622
        },
        {
          "duration": 0.0999999750000029,
          "durationTicks": 116,
          "midi": 51,
          "name": "D#3",
          "ticks": 560640,
          "time": 484.73059225000003,
          "velocity": 0.5905511811023622
        },
        {
          "duration": 0.0999999750000029,
          "durationTicks": 116,
          "midi": 58,
          "name": "A#3",
          "ticks": 560760,
          "time": 484.8340405,
          "velocity": 0.5905511811023622
        },
        {
          "duration": 0.0999999750000029,
          "durationTicks": 116,
          "midi": 51,
          "name": "D#3",
          "ticks": 560880,
          "time": 484.93748875000006,
          "velocity": 0.5905511811023622
        },
        {
          "duration": 0.0999999750000029,
          "durationTicks": 116,
          "midi": 58,
          "name": "A#3",
          "ticks": 561000,
          "time": 485.04093700000004,
          "velocity": 0.5905511811023622
        },
        {
          "duration": 0.0999999750000029,
          "durationTicks": 116,
          "midi": 51,
          "name": "D#3",
          "ticks": 561120,
          "time": 485.14438525,
          "velocity": 0.5905511811023622
        },
        {
          "duration": 0.0999999750000029,
          "durationTicks": 116,
          "midi": 58,
          "name": "A#3",
          "ticks": 561240,
          "time": 485.2478335,
          "velocity": 0.5905511811023622
        },
        {
          "duration": 0.0999999750000029,
          "durationTicks": 116,
          "midi": 56,
          "name": "G#3",
          "ticks": 561360,
          "time": 485.35128175000006,
          "velocity": 0.5905511811023622
        },
        {
          "duration": 0.0999999750000029,
          "durationTicks": 116,
          "midi": 58,
          "name": "A#3",
          "ticks": 561480,
          "time": 485.45473000000004,
          "velocity": 0.5905511811023622
        },
        {
          "duration": 0.0999999750000029,
          "durationTicks": 116,
          "midi": 56,
          "name": "G#3",
          "ticks": 561600,
          "time": 485.55817825,
          "velocity": 0.5905511811023622
        },
        {
          "duration": 0.0999999750000029,
          "durationTicks": 116,
          "midi": 58,
          "name": "A#3",
          "ticks": 561720,
          "time": 485.6616265,
          "velocity": 0.5905511811023622
        },
        {
          "duration": 0.0999999750000029,
          "durationTicks": 116,
          "midi": 56,
          "name": "G#3",
          "ticks": 561840,
          "time": 485.76507475000005,
          "velocity": 0.5905511811023622
        },
        {
          "duration": 0.0999999750000029,
          "durationTicks": 116,
          "midi": 58,
          "name": "A#3",
          "ticks": 561960,
          "time": 485.86852300000004,
          "velocity": 0.5905511811023622
        },
        {
          "duration": 0.0999999750000029,
          "durationTicks": 116,
          "midi": 55,
          "name": "G3",
          "ticks": 562080,
          "time": 485.97197125,
          "velocity": 0.5905511811023622
        },
        {
          "duration": 0.0999999750000029,
          "durationTicks": 116,
          "midi": 58,
          "name": "A#3",
          "ticks": 562200,
          "time": 486.0754195,
          "velocity": 0.5905511811023622
        },
        {
          "duration": 0.0999999750000029,
          "durationTicks": 116,
          "midi": 55,
          "name": "G3",
          "ticks": 562320,
          "time": 486.17886775000005,
          "velocity": 0.5905511811023622
        },
        {
          "duration": 0.0999999750000029,
          "durationTicks": 116,
          "midi": 58,
          "name": "A#3",
          "ticks": 562440,
          "time": 486.28231600000004,
          "velocity": 0.5905511811023622
        },
        {
          "duration": 0.0999999750000029,
          "durationTicks": 116,
          "midi": 55,
          "name": "G3",
          "ticks": 562560,
          "time": 486.38576425,
          "velocity": 0.5905511811023622
        },
        {
          "duration": 0.0999999750000029,
          "durationTicks": 116,
          "midi": 58,
          "name": "A#3",
          "ticks": 562680,
          "time": 486.4892125,
          "velocity": 0.5905511811023622
        },
        {
          "duration": 0.0999999750000029,
          "durationTicks": 116,
          "midi": 50,
          "name": "D3",
          "ticks": 562800,
          "time": 486.59266075000005,
          "velocity": 0.5905511811023622
        },
        {
          "duration": 0.0999999750000029,
          "durationTicks": 116,
          "midi": 58,
          "name": "A#3",
          "ticks": 562920,
          "time": 486.69610900000004,
          "velocity": 0.5905511811023622
        },
        {
          "duration": 0.0999999750000029,
          "durationTicks": 116,
          "midi": 50,
          "name": "D3",
          "ticks": 563040,
          "time": 486.79955725,
          "velocity": 0.5905511811023622
        },
        {
          "duration": 0.09999997499994606,
          "durationTicks": 116,
          "midi": 58,
          "name": "A#3",
          "ticks": 563160,
          "time": 486.90300550000006,
          "velocity": 0.5905511811023622
        },
        {
          "duration": 0.0999999750000029,
          "durationTicks": 116,
          "midi": 50,
          "name": "D3",
          "ticks": 563280,
          "time": 487.00645375000005,
          "velocity": 0.5905511811023622
        },
        {
          "duration": 0.0999999750000029,
          "durationTicks": 116,
          "midi": 58,
          "name": "A#3",
          "ticks": 563400,
          "time": 487.10990200000003,
          "velocity": 0.5905511811023622
        },
        {
          "duration": 0.0999999750000029,
          "durationTicks": 116,
          "midi": 51,
          "name": "D#3",
          "ticks": 563520,
          "time": 487.21335025,
          "velocity": 0.5905511811023622
        },
        {
          "duration": 0.09999997499994606,
          "durationTicks": 116,
          "midi": 58,
          "name": "A#3",
          "ticks": 563640,
          "time": 487.31679850000006,
          "velocity": 0.5905511811023622
        },
        {
          "duration": 0.0999999750000029,
          "durationTicks": 116,
          "midi": 51,
          "name": "D#3",
          "ticks": 563760,
          "time": 487.42024675000005,
          "velocity": 0.5905511811023622
        },
        {
          "duration": 0.0999999750000029,
          "durationTicks": 116,
          "midi": 58,
          "name": "A#3",
          "ticks": 563880,
          "time": 487.52369500000003,
          "velocity": 0.5905511811023622
        },
        {
          "duration": 0.0999999750000029,
          "durationTicks": 116,
          "midi": 51,
          "name": "D#3",
          "ticks": 564000,
          "time": 487.62714325,
          "velocity": 0.5905511811023622
        },
        {
          "duration": 0.0999999750000029,
          "durationTicks": 116,
          "midi": 58,
          "name": "A#3",
          "ticks": 564120,
          "time": 487.73059150000006,
          "velocity": 0.5905511811023622
        },
        {
          "duration": 0.0999999750000029,
          "durationTicks": 116,
          "midi": 55,
          "name": "G3",
          "ticks": 564240,
          "time": 487.83403975000004,
          "velocity": 0.5905511811023622
        },
        {
          "duration": 0.0999999750000029,
          "durationTicks": 116,
          "midi": 58,
          "name": "A#3",
          "ticks": 564360,
          "time": 487.93748800000003,
          "velocity": 0.5905511811023622
        },
        {
          "duration": 0.0999999750000029,
          "durationTicks": 116,
          "midi": 56,
          "name": "G#3",
          "ticks": 564480,
          "time": 488.04093625,
          "velocity": 0.5905511811023622
        },
        {
          "duration": 0.0999999750000029,
          "durationTicks": 116,
          "midi": 58,
          "name": "A#3",
          "ticks": 564600,
          "time": 488.14438450000006,
          "velocity": 0.5905511811023622
        },
        {
          "duration": 0.0999999750000029,
          "durationTicks": 116,
          "midi": 53,
          "name": "F3",
          "ticks": 564720,
          "time": 488.24783275000004,
          "velocity": 0.5905511811023622
        },
        {
          "duration": 0.0999999750000029,
          "durationTicks": 116,
          "midi": 58,
          "name": "A#3",
          "ticks": 564840,
          "time": 488.35128100000003,
          "velocity": 0.5905511811023622
        },
        {
          "duration": 0.13793100000003733,
          "durationTicks": 160,
          "midi": 55,
          "name": "G3",
          "ticks": 564960,
          "time": 488.45472925,
          "velocity": 0.5905511811023622
        }
      ]
    },
    {
      "channel": 0,
      "controlChanges": {},
      "pitchBends": [],
      "instrument": {
        "family": "piano",
        "number": 0,
        "name": "acoustic grand piano"
      },
      "name": "Solo French Horn",
      "notes": [],
      "endOfTrackTicks": 566400
    },
    {
      "channel": 2,
      "controlChanges": {
        "7": [
          {
            "number": 7,
            "ticks": 0,
            "time": 0,
            "value": 1
          }
        ],
        "10": [
          {
            "number": 10,
            "ticks": 0,
            "time": 0,
            "value": 0.4330708661417323
          }
        ],
        "91": [
          {
            "number": 91,
            "ticks": 0,
            "time": 0,
            "value": 0.7086614173228346
          }
        ]
      },
      "pitchBends": [],
      "instrument": {
        "family": "brass",
        "number": 60,
        "name": "french horn"
      },
      "name": "",
      "notes": [
        {
          "duration": 0.1290319999999996,
          "durationTicks": 160,
          "midi": 58,
          "name": "A#3",
          "ticks": 2400,
          "time": 1.93548,
          "velocity": 0.5511811023622047
        },
        {
          "duration": 0.12903200000000004,
          "durationTicks": 160,
          "midi": 58,
          "name": "A#3",
          "ticks": 2880,
          "time": 2.3225759999999998,
          "velocity": 0.5511811023622047
        },
        {
          "duration": 0.12903200000000004,
          "durationTicks": 160,
          "midi": 58,
          "name": "A#3",
          "ticks": 4320,
          "time": 3.483864,
          "velocity": 0.5511811023622047
        },
        {
          "duration": 0.12903200000000004,
          "durationTicks": 160,
          "midi": 58,
          "name": "A#3",
          "ticks": 4800,
          "time": 3.87096,
          "velocity": 0.5511811023622047
        },
        {
          "duration": 0.12903200000000048,
          "durationTicks": 160,
          "midi": 58,
          "name": "A#3",
          "ticks": 5760,
          "time": 4.6451519999999995,
          "velocity": 0.5511811023622047
        },
        {
          "duration": 0.12903200000000048,
          "durationTicks": 160,
          "midi": 58,
          "name": "A#3",
          "ticks": 6240,
          "time": 5.032248,
          "velocity": 0.5511811023622047
        },
        {
          "duration": 0.12903200000000048,
          "durationTicks": 160,
          "midi": 60,
          "name": "C4",
          "ticks": 6720,
          "time": 5.419344,
          "velocity": 0.5511811023622047
        },
        {
          "duration": 0.1290319999999996,
          "durationTicks": 160,
          "midi": 60,
          "name": "C4",
          "ticks": 7200,
          "time": 5.80644,
          "velocity": 0.5511811023622047
        },
        {
          "duration": 0.1290319999999996,
          "durationTicks": 160,
          "midi": 62,
          "name": "D4",
          "ticks": 7680,
          "time": 6.193536,
          "velocity": 0.5511811023622047
        },
        {
          "duration": 0.1290319999999987,
          "durationTicks": 160,
          "midi": 67,
          "name": "G4",
          "ticks": 10080,
          "time": 8.129016,
          "velocity": 0.5511811023622047
        },
        {
          "duration": 0.12903200000000048,
          "durationTicks": 160,
          "midi": 65,
          "name": "F4",
          "ticks": 11040,
          "time": 8.903208,
          "velocity": 0.5511811023622047
        },
        {
          "duration": 0.1290319999999987,
          "durationTicks": 160,
          "midi": 65,
          "name": "F4",
          "ticks": 12000,
          "time": 9.6774,
          "velocity": 0.5511811023622047
        },
        {
          "duration": 0.12903200000000048,
          "durationTicks": 160,
          "midi": 63,
          "name": "D#4",
          "ticks": 12960,
          "time": 10.451592,
          "velocity": 0.5511811023622047
        },
        {
          "duration": 0.12903200000000048,
          "durationTicks": 160,
          "midi": 65,
          "name": "F4",
          "ticks": 13920,
          "time": 11.225783999999999,
          "velocity": 0.5511811023622047
        },
        {
          "duration": 0.1290319999999987,
          "durationTicks": 160,
          "midi": 65,
          "name": "F4",
          "ticks": 14880,
          "time": 11.999976,
          "velocity": 0.5511811023622047
        },
        {
          "duration": 0.6129020000000001,
          "durationTicks": 760,
          "midi": 63,
          "name": "D#4",
          "ticks": 15360,
          "time": 12.387072,
          "velocity": 0.5511811023622047
        },
        {
          "duration": 0.12903200000000226,
          "durationTicks": 160,
          "midi": 67,
          "name": "G4",
          "ticks": 18720,
          "time": 15.096744,
          "velocity": 0.5511811023622047
        },
        {
          "duration": 0.12903200000000048,
          "durationTicks": 160,
          "midi": 67,
          "name": "G4",
          "ticks": 19200,
          "time": 15.48384,
          "velocity": 0.5511811023622047
        },
        {
          "duration": 0.12903200000000048,
          "durationTicks": 160,
          "midi": 67,
          "name": "G4",
          "ticks": 19680,
          "time": 15.870936,
          "velocity": 0.5511811023622047
        },
        {
          "duration": 0.12903200000000226,
          "durationTicks": 160,
          "midi": 67,
          "name": "G4",
          "ticks": 20160,
          "time": 16.258032,
          "velocity": 0.5511811023622047
        },
        {
          "duration": 0.12903200000000226,
          "durationTicks": 160,
          "midi": 65,
          "name": "F4",
          "ticks": 22560,
          "time": 18.193512,
          "velocity": 0.5511811023622047
        },
        {
          "duration": 0.12903200000000226,
          "durationTicks": 160,
          "midi": 65,
          "name": "F4",
          "ticks": 23040,
          "time": 18.580607999999998,
          "velocity": 0.5511811023622047
        },
        {
          "duration": 0.1290319999999987,
          "durationTicks": 160,
          "midi": 65,
          "name": "F4",
          "ticks": 23520,
          "time": 18.967704,
          "velocity": 0.5511811023622047
        },
        {
          "duration": 0.1290319999999987,
          "durationTicks": 160,
          "midi": 65,
          "name": "F4",
          "ticks": 24000,
          "time": 19.3548,
          "velocity": 0.5511811023622047
        },
        {
          "duration": 0.12903200000000226,
          "durationTicks": 160,
          "midi": 67,
          "name": "G4",
          "ticks": 25440,
          "time": 20.516088,
          "velocity": 0.5511811023622047
        },
        {
          "duration": 0.12903200000000226,
          "durationTicks": 160,
          "midi": 65,
          "name": "F4",
          "ticks": 26400,
          "time": 21.29028,
          "velocity": 0.5511811023622047
        },
        {
          "duration": 0.12903200000000226,
          "durationTicks": 160,
          "midi": 65,
          "name": "F4",
          "ticks": 27360,
          "time": 22.064472,
          "velocity": 0.5511811023622047
        },
        {
          "duration": 0.1290319999999987,
          "durationTicks": 160,
          "midi": 63,
          "name": "D#4",
          "ticks": 28320,
          "time": 22.838664,
          "velocity": 0.5511811023622047
        },
        {
          "duration": 0.1290319999999987,
          "durationTicks": 160,
          "midi": 65,
          "name": "F4",
          "ticks": 29280,
          "time": 23.612856,
          "velocity": 0.5511811023622047
        },
        {
          "duration": 0.12903200000000226,
          "durationTicks": 160,
          "midi": 65,
          "name": "F4",
          "ticks": 30240,
          "time": 24.387048,
          "velocity": 0.5511811023622047
        },
        {
          "duration": 0.6129019999999983,
          "durationTicks": 760,
          "midi": 63,
          "name": "D#4",
          "ticks": 30720,
          "time": 24.774144,
          "velocity": 0.5511811023622047
        },
        {
          "duration": 0.322579999999995,
          "durationTicks": 400,
          "midi": 65,
          "name": "F4",
          "ticks": 51360,
          "time": 41.419272,
          "velocity": 0.7086614173228346
        },
        {
          "duration": 0.3225800000000021,
          "durationTicks": 400,
          "midi": 67,
          "name": "G4",
          "ticks": 51840,
          "time": 41.806368,
          "velocity": 0.7086614173228346
        },
        {
          "duration": 0.3225800000000021,
          "durationTicks": 400,
          "midi": 67,
          "name": "G4",
          "ticks": 52320,
          "time": 42.193464,
          "velocity": 0.7086614173228346
        },
        {
          "duration": 0.19354799999999983,
          "durationTicks": 240,
          "midi": 68,
          "name": "G#4",
          "ticks": 52800,
          "time": 42.58056,
          "velocity": 0.7086614173228346
        },
        {
          "duration": 0.19354799999999983,
          "durationTicks": 240,
          "midi": 70,
          "name": "A#4",
          "ticks": 53040,
          "time": 42.774108,
          "velocity": 0.7086614173228346
        },
        {
          "duration": 0.19354799999999983,
          "durationTicks": 240,
          "midi": 72,
          "name": "C5",
          "ticks": 53280,
          "time": 42.967656,
          "velocity": 0.7086614173228346
        },
        {
          "duration": 0.19354799999999983,
          "durationTicks": 240,
          "midi": 68,
          "name": "G#4",
          "ticks": 53520,
          "time": 43.161204,
          "velocity": 0.7086614173228346
        },
        {
          "duration": 0.7741919999999993,
          "durationTicks": 960,
          "midi": 67,
          "name": "G4",
          "ticks": 53760,
          "time": 43.354752,
          "velocity": 0.7086614173228346
        },
        {
          "duration": 0.22580599999999862,
          "durationTicks": 280,
          "midi": 65,
          "name": "F4",
          "ticks": 54720,
          "time": 44.128944,
          "velocity": 0.7086614173228346
        },
        {
          "duration": 0.322579999999995,
          "durationTicks": 400,
          "midi": 63,
          "name": "D#4",
          "ticks": 59040,
          "time": 47.612808,
          "velocity": 0.7086614173228346
        },
        {
          "duration": 0.19354799999999983,
          "durationTicks": 240,
          "midi": 65,
          "name": "F4",
          "ticks": 59520,
          "time": 47.999904,
          "velocity": 0.7086614173228346
        },
        {
          "duration": 0.19354799999999983,
          "durationTicks": 240,
          "midi": 67,
          "name": "G4",
          "ticks": 59760,
          "time": 48.193452,
          "velocity": 0.7086614173228346
        },
        {
          "duration": 0.19354799999999983,
          "durationTicks": 240,
          "midi": 68,
          "name": "G#4",
          "ticks": 60000,
          "time": 48.387,
          "velocity": 0.7086614173228346
        },
        {
          "duration": 0.19354799999999983,
          "durationTicks": 240,
          "midi": 65,
          "name": "F4",
          "ticks": 60240,
          "time": 48.580548,
          "velocity": 0.7086614173228346
        },
        {
          "duration": 0.19354799999999983,
          "durationTicks": 240,
          "midi": 63,
          "name": "D#4",
          "ticks": 60480,
          "time": 48.774096,
          "velocity": 0.7086614173228346
        },
        {
          "duration": 0.19354799999999983,
          "durationTicks": 240,
          "midi": 62,
          "name": "D4",
          "ticks": 60720,
          "time": 48.967644,
          "velocity": 0.7086614173228346
        },
        {
          "duration": 0.19354799999999983,
          "durationTicks": 240,
          "midi": 60,
          "name": "C4",
          "ticks": 60960,
          "time": 49.161192,
          "velocity": 0.7086614173228346
        },
        {
          "duration": 0.17741900000000044,
          "durationTicks": 220,
          "midi": 62,
          "name": "D4",
          "ticks": 61200,
          "time": 49.35474,
          "velocity": 0.7086614173228346
        },
        {
          "duration": 0.7741919999999993,
          "durationTicks": 960,
          "midi": 65,
          "name": "F4",
          "ticks": 61440,
          "time": 49.548288,
          "velocity": 0.7086614173228346
        },
        {
          "duration": 0.12903200000000226,
          "durationTicks": 160,
          "midi": 63,
          "name": "D#4",
          "ticks": 62400,
          "time": 50.32248,
          "velocity": 0.7086614173228346
        },
        {
          "duration": 0.22580600000000572,
          "durationTicks": 280,
          "midi": 62,
          "name": "D4",
          "ticks": 63360,
          "time": 51.096672,
          "velocity": 0.5905511811023622
        },
        {
          "duration": 0.22580600000000572,
          "durationTicks": 280,
          "midi": 62,
          "name": "D4",
          "ticks": 63840,
          "time": 51.483768,
          "velocity": 0.5905511811023622
        },
        {
          "duration": 0.19354799999999983,
          "durationTicks": 240,
          "midi": 62,
          "name": "D4",
          "ticks": 64320,
          "time": 51.870864,
          "velocity": 0.5905511811023622
        },
        {
          "duration": 0.19354799999999983,
          "durationTicks": 240,
          "midi": 63,
          "name": "D#4",
          "ticks": 64560,
          "time": 52.064412,
          "velocity": 0.5905511811023622
        },
        {
          "duration": 0.19354799999999983,
          "durationTicks": 240,
          "midi": 65,
          "name": "F4",
          "ticks": 64800,
          "time": 52.25796,
          "velocity": 0.5905511811023622
        },
        {
          "duration": 0.17741900000000754,
          "durationTicks": 220,
          "midi": 62,
          "name": "D4",
          "ticks": 65040,
          "time": 52.451508,
          "velocity": 0.5905511811023622
        },
        {
          "duration": 0.22580600000000572,
          "durationTicks": 280,
          "midi": 63,
          "name": "D#4",
          "ticks": 65280,
          "time": 52.645056,
          "velocity": 0.5905511811023622
        },
        {
          "duration": 0.22580600000000572,
          "durationTicks": 280,
          "midi": 65,
          "name": "F4",
          "ticks": 65760,
          "time": 53.032151999999996,
          "velocity": 0.5905511811023622
        },
        {
          "duration": 0.22580600000000572,
          "durationTicks": 280,
          "midi": 67,
          "name": "G4",
          "ticks": 66240,
          "time": 53.419247999999996,
          "velocity": 0.5905511811023622
        },
        {
          "duration": 0.22580599999999862,
          "durationTicks": 280,
          "midi": 60,
          "name": "C4",
          "ticks": 67200,
          "time": 54.19344,
          "velocity": 0.5905511811023622
        },
        {
          "duration": 0.22580599999999862,
          "durationTicks": 280,
          "midi": 60,
          "name": "C4",
          "ticks": 67680,
          "time": 54.580536,
          "velocity": 0.5905511811023622
        },
        {
          "duration": 0.19354799999999983,
          "durationTicks": 240,
          "midi": 60,
          "name": "C4",
          "ticks": 68160,
          "time": 54.967632,
          "velocity": 0.5905511811023622
        },
        {
          "duration": 0.19354799999999983,
          "durationTicks": 240,
          "midi": 62,
          "name": "D4",
          "ticks": 68400,
          "time": 55.16118,
          "velocity": 0.5905511811023622
        },
        {
          "duration": 0.19354799999999983,
          "durationTicks": 240,
          "midi": 63,
          "name": "D#4",
          "ticks": 68640,
          "time": 55.354728,
          "velocity": 0.5905511811023622
        },
        {
          "duration": 0.17741900000000044,
          "durationTicks": 220,
          "midi": 60,
          "name": "C4",
          "ticks": 68880,
          "time": 55.548276,
          "velocity": 0.5905511811023622
        },
        {
          "duration": 0.22580599999999862,
          "durationTicks": 280,
          "midi": 62,
          "name": "D4",
          "ticks": 69120,
          "time": 55.741824,
          "velocity": 0.5905511811023622
        },
        {
          "duration": 0.22580600000000572,
          "durationTicks": 280,
          "midi": 63,
          "name": "D#4",
          "ticks": 69600,
          "time": 56.12892,
          "velocity": 0.5905511811023622
        },
        {
          "duration": 0.22580600000000572,
          "durationTicks": 280,
          "midi": 65,
          "name": "F4",
          "ticks": 70080,
          "time": 56.516016,
          "velocity": 0.5905511811023622
        },
        {
          "duration": 0.3225800000000021,
          "durationTicks": 400,
          "midi": 63,
          "name": "D#4",
          "ticks": 74400,
          "time": 59.99988,
          "velocity": 0.7086614173228346
        },
        {
          "duration": 0.19354799999999983,
          "durationTicks": 240,
          "midi": 65,
          "name": "F4",
          "ticks": 74880,
          "time": 60.386976,
          "velocity": 0.7086614173228346
        },
        {
          "duration": 0.19354799999999983,
          "durationTicks": 240,
          "midi": 67,
          "name": "G4",
          "ticks": 75120,
          "time": 60.580524,
          "velocity": 0.7086614173228346
        },
        {
          "duration": 0.19354799999999983,
          "durationTicks": 240,
          "midi": 68,
          "name": "G#4",
          "ticks": 75360,
          "time": 60.774072,
          "velocity": 0.7086614173228346
        },
        {
          "duration": 0.19354799999999983,
          "durationTicks": 240,
          "midi": 65,
          "name": "F4",
          "ticks": 75600,
          "time": 60.96762,
          "velocity": 0.7086614173228346
        },
        {
          "duration": 0.19354799999999983,
          "durationTicks": 240,
          "midi": 63,
          "name": "D#4",
          "ticks": 75840,
          "time": 61.161167999999996,
          "velocity": 0.7086614173228346
        },
        {
          "duration": 0.19354799999999983,
          "durationTicks": 240,
          "midi": 62,
          "name": "D4",
          "ticks": 76080,
          "time": 61.354715999999996,
          "velocity": 0.7086614173228346
        },
        {
          "duration": 0.19354799999999983,
          "durationTicks": 240,
          "midi": 60,
          "name": "C4",
          "ticks": 76320,
          "time": 61.548263999999996,
          "velocity": 0.7086614173228346
        },
        {
          "duration": 0.17741900000000754,
          "durationTicks": 220,
          "midi": 62,
          "name": "D4",
          "ticks": 76560,
          "time": 61.741811999999996,
          "velocity": 0.7086614173228346
        },
        {
          "duration": 0.7741919999999993,
          "durationTicks": 960,
          "midi": 65,
          "name": "F4",
          "ticks": 76800,
          "time": 61.93536,
          "velocity": 0.7086614173228346
        },
        {
          "duration": 0.12903200000000226,
          "durationTicks": 160,
          "midi": 63,
          "name": "D#4",
          "ticks": 77760,
          "time": 62.709552,
          "velocity": 0.7086614173228346
        },
        {
          "duration": 0.6129020000000054,
          "durationTicks": 760,
          "midi": 67,
          "name": "G4",
          "ticks": 101760,
          "time": 82.064352,
          "velocity": 0.5511811023622047
        },
        {
          "duration": 1.3870940000000047,
          "durationTicks": 1720,
          "midi": 65,
          "name": "F4",
          "ticks": 102720,
          "time": 82.838544,
          "velocity": 0.5511811023622047
        },
        {
          "duration": 0.6129020000000054,
          "durationTicks": 760,
          "midi": 63,
          "name": "D#4",
          "ticks": 104640,
          "time": 84.386928,
          "velocity": 0.5511811023622047
        },
        {
          "duration": 0.6129020000000054,
          "durationTicks": 760,
          "midi": 65,
          "name": "F4",
          "ticks": 105600,
          "time": 85.16112,
          "velocity": 0.5511811023622047
        },
        {
          "duration": 0.23387049999999476,
          "durationTicks": 290,
          "midi": 65,
          "name": "F4",
          "ticks": 107040,
          "time": 86.322408,
          "velocity": 0.5511811023622047
        },
        {
          "duration": 0.7741919999999993,
          "durationTicks": 960,
          "midi": 62,
          "name": "D4",
          "ticks": 107520,
          "time": 86.709504,
          "velocity": 0.5511811023622047
        },
        {
          "duration": 0.1370964999999984,
          "durationTicks": 170,
          "midi": 63,
          "name": "D#4",
          "ticks": 108480,
          "time": 87.483696,
          "velocity": 0.5511811023622047
        },
        {
          "duration": 0.12903200000000936,
          "durationTicks": 160,
          "midi": 67,
          "name": "G4",
          "ticks": 108960,
          "time": 87.870792,
          "velocity": 0.5511811023622047
        },
        {
          "duration": 0.06451599999999758,
          "durationTicks": 80,
          "midi": 67,
          "name": "G4",
          "ticks": 109320,
          "time": 88.161114,
          "velocity": 0.5511811023622047
        },
        {
          "duration": 2.5483820000000037,
          "durationTicks": 3160,
          "midi": 67,
          "name": "G4",
          "ticks": 109440,
          "time": 88.257888,
          "velocity": 0.5511811023622047
        },
        {
          "duration": 0.2258059999999915,
          "durationTicks": 280,
          "midi": 66,
          "name": "F#4",
          "ticks": 112800,
          "time": 90.96756,
          "velocity": 0.5511811023622047
        },
        {
          "duration": 2.491930499999995,
          "durationTicks": 3090,
          "midi": 65,
          "name": "F4",
          "ticks": 113280,
          "time": 91.354656,
          "velocity": 0.5511811023622047
        },
        {
          "duration": 0.6129020000000054,
          "durationTicks": 760,
          "midi": 67,
          "name": "G4",
          "ticks": 117120,
          "time": 94.451424,
          "velocity": 0.5511811023622047
        },
        {
          "duration": 1.3870940000000047,
          "durationTicks": 1720,
          "midi": 65,
          "name": "F4",
          "ticks": 118080,
          "time": 95.225616,
          "velocity": 0.5511811023622047
        },
        {
          "duration": 0.6129020000000054,
          "durationTicks": 760,
          "midi": 63,
          "name": "D#4",
          "ticks": 120000,
          "time": 96.774,
          "velocity": 0.5511811023622047
        },
        {
          "duration": 0.6129020000000054,
          "durationTicks": 760,
          "midi": 65,
          "name": "F4",
          "ticks": 120960,
          "time": 97.548192,
          "velocity": 0.5511811023622047
        },
        {
          "duration": 0.23387049999999476,
          "durationTicks": 290,
          "midi": 65,
          "name": "F4",
          "ticks": 122400,
          "time": 98.70948,
          "velocity": 0.5511811023622047
        },
        {
          "duration": 0.7741919999999993,
          "durationTicks": 960,
          "midi": 62,
          "name": "D4",
          "ticks": 122880,
          "time": 99.096576,
          "velocity": 0.5511811023622047
        },
        {
          "duration": 0.1370965000000126,
          "durationTicks": 170,
          "midi": 63,
          "name": "D#4",
          "ticks": 123840,
          "time": 99.870768,
          "velocity": 0.5511811023622047
        },
        {
          "duration": 0.7741919999999993,
          "durationTicks": 960,
          "midi": 67,
          "name": "G4",
          "ticks": 147840,
          "time": 119.225568,
          "velocity": 0.5905511811023622
        },
        {
          "duration": 0.3225800000000021,
          "durationTicks": 400,
          "midi": 65,
          "name": "F4",
          "ticks": 148800,
          "time": 119.99976,
          "velocity": 0.5905511811023622
        },
        {
          "duration": 0.7741919999999993,
          "durationTicks": 960,
          "midi": 65,
          "name": "F4",
          "ticks": 149760,
          "time": 120.773952,
          "velocity": 0.5905511811023622
        },
        {
          "duration": 0.3225800000000021,
          "durationTicks": 400,
          "midi": 63,
          "name": "D#4",
          "ticks": 150720,
          "time": 121.548144,
          "velocity": 0.5905511811023622
        },
        {
          "duration": 0.23387050000000897,
          "durationTicks": 290,
          "midi": 70,
          "name": "A#4",
          "ticks": 152640,
          "time": 123.09652799999999,
          "velocity": 0.5905511811023622
        },
        {
          "duration": 0.23387050000000897,
          "durationTicks": 290,
          "midi": 68,
          "name": "G#4",
          "ticks": 153120,
          "time": 123.48362399999999,
          "velocity": 0.5905511811023622
        },
        {
          "duration": 0.7741919999999993,
          "durationTicks": 960,
          "midi": 68,
          "name": "G#4",
          "ticks": 153600,
          "time": 123.87072,
          "velocity": 0.5905511811023622
        },
        {
          "duration": 0.12903199999998094,
          "durationTicks": 160,
          "midi": 67,
          "name": "G4",
          "ticks": 154560,
          "time": 124.644912,
          "velocity": 0.5905511811023622
        },
        {
          "duration": 1.5483839999999987,
          "durationTicks": 1920,
          "midi": 65,
          "name": "F4",
          "ticks": 155520,
          "time": 125.419104,
          "velocity": 0.5905511811023622
        },
        {
          "duration": 0.6209665000000086,
          "durationTicks": 770,
          "midi": 63,
          "name": "D#4",
          "ticks": 157440,
          "time": 126.967488,
          "velocity": 0.5905511811023622
        },
        {
          "duration": 1.5483839999999987,
          "durationTicks": 1920,
          "midi": 63,
          "name": "D#4",
          "ticks": 159360,
          "time": 128.515872,
          "velocity": 0.5905511811023622
        },
        {
          "duration": 0.6209665000000086,
          "durationTicks": 770,
          "midi": 62,
          "name": "D4",
          "ticks": 161280,
          "time": 130.064256,
          "velocity": 0.5905511811023622
        },
        {
          "duration": 0.7741919999999993,
          "durationTicks": 960,
          "midi": 67,
          "name": "G4",
          "ticks": 163200,
          "time": 131.61264,
          "velocity": 0.5905511811023622
        },
        {
          "duration": 0.3225799999999879,
          "durationTicks": 400,
          "midi": 65,
          "name": "F4",
          "ticks": 164160,
          "time": 132.386832,
          "velocity": 0.5905511811023622
        },
        {
          "duration": 0.7741919999999993,
          "durationTicks": 960,
          "midi": 65,
          "name": "F4",
          "ticks": 165120,
          "time": 133.161024,
          "velocity": 0.5905511811023622
        },
        {
          "duration": 0.3225799999999879,
          "durationTicks": 400,
          "midi": 63,
          "name": "D#4",
          "ticks": 166080,
          "time": 133.935216,
          "velocity": 0.5905511811023622
        },
        {
          "duration": 0.23387050000002318,
          "durationTicks": 290,
          "midi": 70,
          "name": "A#4",
          "ticks": 168000,
          "time": 135.4836,
          "velocity": 0.5905511811023622
        },
        {
          "duration": 0.23387049999999476,
          "durationTicks": 290,
          "midi": 68,
          "name": "G#4",
          "ticks": 168480,
          "time": 135.870696,
          "velocity": 0.5905511811023622
        },
        {
          "duration": 0.7741919999999993,
          "durationTicks": 960,
          "midi": 68,
          "name": "G#4",
          "ticks": 168960,
          "time": 136.257792,
          "velocity": 0.5905511811023622
        },
        {
          "duration": 0.12903199999999515,
          "durationTicks": 160,
          "midi": 67,
          "name": "G4",
          "ticks": 169920,
          "time": 137.031984,
          "velocity": 0.5905511811023622
        },
        {
          "duration": 0.23387050000002318,
          "durationTicks": 290,
          "midi": 67,
          "name": "G4",
          "ticks": 195360,
          "time": 157.548072,
          "velocity": 0.6692913385826772
        },
        {
          "duration": 1.4838679999999727,
          "durationTicks": 1840,
          "midi": 65,
          "name": "F4",
          "ticks": 195840,
          "time": 157.935168,
          "velocity": 0.6692913385826772
        },
        {
          "duration": 0.19354799999999273,
          "durationTicks": 240,
          "midi": 63,
          "name": "D#4",
          "ticks": 197760,
          "time": 159.483552,
          "velocity": 0.6692913385826772
        },
        {
          "duration": 0.19354799999999273,
          "durationTicks": 240,
          "midi": 67,
          "name": "G4",
          "ticks": 198000,
          "time": 159.6771,
          "velocity": 0.6692913385826772
        },
        {
          "duration": 0.19354800000002115,
          "durationTicks": 240,
          "midi": 65,
          "name": "F4",
          "ticks": 198240,
          "time": 159.870648,
          "velocity": 0.6692913385826772
        },
        {
          "duration": 0.19354799999999273,
          "durationTicks": 240,
          "midi": 63,
          "name": "D#4",
          "ticks": 198480,
          "time": 160.064196,
          "velocity": 0.6692913385826772
        },
        {
          "duration": 0.6209665000000086,
          "durationTicks": 770,
          "midi": 62,
          "name": "D4",
          "ticks": 198720,
          "time": 160.257744,
          "velocity": 0.6692913385826772
        },
        {
          "duration": 0.6129019999999912,
          "durationTicks": 760,
          "midi": 63,
          "name": "D#4",
          "ticks": 199680,
          "time": 161.031936,
          "velocity": 0.6692913385826772
        },
        {
          "duration": 0.23387049999999476,
          "durationTicks": 290,
          "midi": 67,
          "name": "G4",
          "ticks": 210720,
          "time": 169.935144,
          "velocity": 0.6692913385826772
        },
        {
          "duration": 1.483868000000001,
          "durationTicks": 1840,
          "midi": 65,
          "name": "F4",
          "ticks": 211200,
          "time": 170.32224,
          "velocity": 0.6692913385826772
        },
        {
          "duration": 0.19354799999999273,
          "durationTicks": 240,
          "midi": 67,
          "name": "G4",
          "ticks": 213120,
          "time": 171.870624,
          "velocity": 0.6692913385826772
        },
        {
          "duration": 0.19354800000002115,
          "durationTicks": 240,
          "midi": 70,
          "name": "A#4",
          "ticks": 213360,
          "time": 172.06417199999999,
          "velocity": 0.6692913385826772
        },
        {
          "duration": 0.19354799999999273,
          "durationTicks": 240,
          "midi": 68,
          "name": "G#4",
          "ticks": 213600,
          "time": 172.25772,
          "velocity": 0.6692913385826772
        },
        {
          "duration": 0.1370965000000126,
          "durationTicks": 170,
          "midi": 67,
          "name": "G4",
          "ticks": 213840,
          "time": 172.451268,
          "velocity": 0.6692913385826772
        },
        {
          "duration": 0.19354799999999273,
          "durationTicks": 240,
          "midi": 65,
          "name": "F4",
          "ticks": 214080,
          "time": 172.644816,
          "velocity": 0.6692913385826772
        },
        {
          "duration": 0.09354820000001496,
          "durationTicks": 116,
          "midi": 67,
          "name": "G4",
          "ticks": 214080,
          "time": 172.644816,
          "velocity": 0.6692913385826772
        },
        {
          "duration": 0.19354800000002115,
          "durationTicks": 240,
          "midi": 63,
          "name": "D#4",
          "ticks": 214320,
          "time": 172.83836399999998,
          "velocity": 0.6692913385826772
        },
        {
          "duration": 0.19354799999999273,
          "durationTicks": 240,
          "midi": 65,
          "name": "F4",
          "ticks": 214560,
          "time": 173.031912,
          "velocity": 0.6692913385826772
        },
        {
          "duration": 0.19354799999999273,
          "durationTicks": 240,
          "midi": 67,
          "name": "G4",
          "ticks": 214800,
          "time": 173.22546,
          "velocity": 0.6692913385826772
        },
        {
          "duration": 0.6129019999999912,
          "durationTicks": 760,
          "midi": 63,
          "name": "D#4",
          "ticks": 215040,
          "time": 173.419008,
          "velocity": 0.6692913385826772
        },
        {
          "duration": 0.23387049999996634,
          "durationTicks": 290,
          "midi": 67,
          "name": "G4",
          "ticks": 249120,
          "time": 200.902824,
          "velocity": 0.6692913385826772
        },
        {
          "duration": 0.23387049999999476,
          "durationTicks": 290,
          "midi": 67,
          "name": "G4",
          "ticks": 249600,
          "time": 201.28992,
          "velocity": 0.6692913385826772
        },
        {
          "duration": 0.23387049999996634,
          "durationTicks": 290,
          "midi": 67,
          "name": "G4",
          "ticks": 250080,
          "time": 201.677016,
          "velocity": 0.6692913385826772
        },
        {
          "duration": 0.23387049999999476,
          "durationTicks": 290,
          "midi": 67,
          "name": "G4",
          "ticks": 250560,
          "time": 202.064112,
          "velocity": 0.6692913385826772
        },
        {
          "duration": 0.23387049999996634,
          "durationTicks": 290,
          "midi": 65,
          "name": "F4",
          "ticks": 252960,
          "time": 203.999592,
          "velocity": 0.6692913385826772
        },
        {
          "duration": 0.23387049999999476,
          "durationTicks": 290,
          "midi": 65,
          "name": "F4",
          "ticks": 253440,
          "time": 204.386688,
          "velocity": 0.6692913385826772
        },
        {
          "duration": 0.23387049999996634,
          "durationTicks": 290,
          "midi": 65,
          "name": "F4",
          "ticks": 253920,
          "time": 204.773784,
          "velocity": 0.6692913385826772
        },
        {
          "duration": 0.23387049999999476,
          "durationTicks": 290,
          "midi": 65,
          "name": "F4",
          "ticks": 254400,
          "time": 205.16088,
          "velocity": 0.6692913385826772
        },
        {
          "duration": 0.12903199999999515,
          "durationTicks": 160,
          "midi": 67,
          "name": "G4",
          "ticks": 278400,
          "time": 224.51568,
          "velocity": 0.5511811023622047
        },
        {
          "duration": 0.22580600000003415,
          "durationTicks": 280,
          "midi": 67,
          "name": "G4",
          "ticks": 279840,
          "time": 225.676968,
          "velocity": 0.5511811023622047
        },
        {
          "duration": 0.12903200000002357,
          "durationTicks": 160,
          "midi": 67,
          "name": "G4",
          "ticks": 280320,
          "time": 226.064064,
          "velocity": 0.5511811023622047
        },
        {
          "duration": 0.3225800000000163,
          "durationTicks": 400,
          "midi": 67,
          "name": "G4",
          "ticks": 286080,
          "time": 230.709216,
          "velocity": 0.6692913385826772
        },
        {
          "duration": 0.7096760000000302,
          "durationTicks": 880,
          "midi": 65,
          "name": "F4",
          "ticks": 286560,
          "time": 231.09631199999998,
          "velocity": 0.6692913385826772
        },
        {
          "duration": 0.7096760000000017,
          "durationTicks": 880,
          "midi": 65,
          "name": "F4",
          "ticks": 287520,
          "time": 231.870504,
          "velocity": 0.6692913385826772
        },
        {
          "duration": 0.7096760000000017,
          "durationTicks": 880,
          "midi": 63,
          "name": "D#4",
          "ticks": 288480,
          "time": 232.644696,
          "velocity": 0.6692913385826772
        },
        {
          "duration": 0.3225800000000163,
          "durationTicks": 400,
          "midi": 63,
          "name": "D#4",
          "ticks": 289440,
          "time": 233.418888,
          "velocity": 0.6692913385826772
        },
        {
          "duration": 0.7096760000000302,
          "durationTicks": 880,
          "midi": 68,
          "name": "G#4",
          "ticks": 290880,
          "time": 234.580176,
          "velocity": 0.6692913385826772
        },
        {
          "duration": 0.6129020000000196,
          "durationTicks": 760,
          "midi": 67,
          "name": "G4",
          "ticks": 291840,
          "time": 235.354368,
          "velocity": 0.6692913385826772
        },
        {
          "duration": 0.12822554999996782,
          "durationTicks": 159,
          "midi": 67,
          "name": "G4",
          "ticks": 293280,
          "time": 236.515656,
          "velocity": 0.6692913385826772
        },
        {
          "duration": 0.048386999999991076,
          "durationTicks": 60,
          "midi": 67,
          "name": "G4",
          "ticks": 293640,
          "time": 236.805978,
          "velocity": 0.6692913385826772
        },
        {
          "duration": 1.387094000000019,
          "durationTicks": 1720,
          "midi": 67,
          "name": "G4",
          "ticks": 293760,
          "time": 236.902752,
          "velocity": 0.6692913385826772
        },
        {
          "duration": 1.008062499999994,
          "durationTicks": 1250,
          "midi": 67,
          "name": "G4",
          "ticks": 295680,
          "time": 238.451136,
          "velocity": 0.6692913385826772
        },
        {
          "duration": 0.12822554999996782,
          "durationTicks": 159,
          "midi": 65,
          "name": "F4",
          "ticks": 297120,
          "time": 239.612424,
          "velocity": 0.6692913385826772
        },
        {
          "duration": 0.048386999999991076,
          "durationTicks": 60,
          "midi": 65,
          "name": "F4",
          "ticks": 297480,
          "time": 239.902746,
          "velocity": 0.6692913385826772
        },
        {
          "duration": 1.387094000000019,
          "durationTicks": 1720,
          "midi": 65,
          "name": "F4",
          "ticks": 297600,
          "time": 239.99952,
          "velocity": 0.6692913385826772
        },
        {
          "duration": 1.008062499999994,
          "durationTicks": 1250,
          "midi": 65,
          "name": "F4",
          "ticks": 299520,
          "time": 241.547904,
          "velocity": 0.6692913385826772
        },
        {
          "duration": 0.3225800000000163,
          "durationTicks": 400,
          "midi": 67,
          "name": "G4",
          "ticks": 301440,
          "time": 243.096288,
          "velocity": 0.6692913385826772
        },
        {
          "duration": 0.7096760000000017,
          "durationTicks": 880,
          "midi": 65,
          "name": "F4",
          "ticks": 301920,
          "time": 243.483384,
          "velocity": 0.6692913385826772
        },
        {
          "duration": 0.7096760000000017,
          "durationTicks": 880,
          "midi": 65,
          "name": "F4",
          "ticks": 302880,
          "time": 244.257576,
          "velocity": 0.6692913385826772
        },
        {
          "duration": 0.7096760000000017,
          "durationTicks": 880,
          "midi": 63,
          "name": "D#4",
          "ticks": 303840,
          "time": 245.031768,
          "velocity": 0.6692913385826772
        },
        {
          "duration": 0.3225800000000163,
          "durationTicks": 400,
          "midi": 63,
          "name": "D#4",
          "ticks": 304800,
          "time": 245.80596,
          "velocity": 0.6692913385826772
        },
        {
          "duration": 0.7096760000000302,
          "durationTicks": 880,
          "midi": 68,
          "name": "G#4",
          "ticks": 306240,
          "time": 246.96724799999998,
          "velocity": 0.6692913385826772
        },
        {
          "duration": 0.6129019999999912,
          "durationTicks": 760,
          "midi": 67,
          "name": "G4",
          "ticks": 307200,
          "time": 247.74144,
          "velocity": 0.6692913385826772
        },
        {
          "duration": 0.1935479999999643,
          "durationTicks": 240,
          "midi": 67,
          "name": "G4",
          "ticks": 324000,
          "time": 261.2898,
          "velocity": 0.7086614173228346
        },
        {
          "duration": 0.19354800000002115,
          "durationTicks": 240,
          "midi": 68,
          "name": "G#4",
          "ticks": 324240,
          "time": 261.483348,
          "velocity": 0.7086614173228346
        },
        {
          "duration": 0.7096760000000017,
          "durationTicks": 880,
          "midi": 70,
          "name": "A#4",
          "ticks": 324480,
          "time": 261.676896,
          "velocity": 0.7086614173228346
        },
        {
          "duration": 0.19354800000002115,
          "durationTicks": 240,
          "midi": 68,
          "name": "G#4",
          "ticks": 325440,
          "time": 262.45108799999997,
          "velocity": 0.7086614173228346
        },
        {
          "duration": 0.19354800000002115,
          "durationTicks": 240,
          "midi": 67,
          "name": "G4",
          "ticks": 325680,
          "time": 262.644636,
          "velocity": 0.7086614173228346
        },
        {
          "duration": 0.1935479999999643,
          "durationTicks": 240,
          "midi": 65,
          "name": "F4",
          "ticks": 325920,
          "time": 262.838184,
          "velocity": 0.7086614173228346
        },
        {
          "duration": 0.19354800000002115,
          "durationTicks": 240,
          "midi": 67,
          "name": "G4",
          "ticks": 326160,
          "time": 263.031732,
          "velocity": 0.7086614173228346
        },
        {
          "duration": 0.19354800000002115,
          "durationTicks": 240,
          "midi": 70,
          "name": "A#4",
          "ticks": 326400,
          "time": 263.22528,
          "velocity": 0.7086614173228346
        },
        {
          "duration": 0.1572577499999852,
          "durationTicks": 195,
          "midi": 68,
          "name": "G#4",
          "ticks": 326640,
          "time": 263.418828,
          "velocity": 0.7086614173228346
        },
        {
          "duration": 0.6209665000000086,
          "durationTicks": 770,
          "midi": 68,
          "name": "G#4",
          "ticks": 326880,
          "time": 263.612376,
          "velocity": 0.7086614173228346
        },
        {
          "duration": 0.23387049999996634,
          "durationTicks": 290,
          "midi": 65,
          "name": "F4",
          "ticks": 327840,
          "time": 264.386568,
          "velocity": 0.7086614173228346
        },
        {
          "duration": 0.38709599999998545,
          "durationTicks": 480,
          "midi": 67,
          "name": "G4",
          "ticks": 328320,
          "time": 264.773664,
          "velocity": 0.7086614173228346
        },
        {
          "duration": 0.3870960000000423,
          "durationTicks": 480,
          "midi": 68,
          "name": "G#4",
          "ticks": 328800,
          "time": 265.16076,
          "velocity": 0.7086614173228346
        },
        {
          "duration": 0.38709599999998545,
          "durationTicks": 480,
          "midi": 70,
          "name": "A#4",
          "ticks": 329280,
          "time": 265.547856,
          "velocity": 0.7086614173228346
        },
        {
          "duration": 0.38387019999998984,
          "durationTicks": 476,
          "midi": 72,
          "name": "C5",
          "ticks": 329760,
          "time": 265.934952,
          "velocity": 0.7086614173228346
        },
        {
          "duration": 0.7741920000000277,
          "durationTicks": 960,
          "midi": 67,
          "name": "G4",
          "ticks": 330240,
          "time": 266.322048,
          "velocity": 0.7086614173228346
        },
        {
          "duration": 0.23387049999996634,
          "durationTicks": 290,
          "midi": 65,
          "name": "F4",
          "ticks": 331200,
          "time": 267.09624,
          "velocity": 0.7086614173228346
        },
        {
          "duration": 0.23387049999996634,
          "durationTicks": 290,
          "midi": 67,
          "name": "G4",
          "ticks": 331680,
          "time": 267.483336,
          "velocity": 0.5905511811023622
        },
        {
          "duration": 0.12903199999999515,
          "durationTicks": 160,
          "midi": 65,
          "name": "F4",
          "ticks": 332160,
          "time": 267.870432,
          "velocity": 0.5905511811023622
        },
        {
          "duration": 0.38709599999998545,
          "durationTicks": 480,
          "midi": 65,
          "name": "F4",
          "ticks": 333600,
          "time": 269.03172,
          "velocity": 0.5905511811023622
        },
        {
          "duration": 0.12903199999999515,
          "durationTicks": 160,
          "midi": 63,
          "name": "D#4",
          "ticks": 334080,
          "time": 269.418816,
          "velocity": 0.5905511811023622
        },
        {
          "duration": 0.3225800000000163,
          "durationTicks": 400,
          "midi": 60,
          "name": "C4",
          "ticks": 335520,
          "time": 270.580104,
          "velocity": 0.5905511811023622
        },
        {
          "duration": 0.12903199999999515,
          "durationTicks": 160,
          "midi": 58,
          "name": "A#3",
          "ticks": 336000,
          "time": 270.9672,
          "velocity": 0.5905511811023622
        },
        {
          "duration": 0.129032000000052,
          "durationTicks": 160,
          "midi": 58,
          "name": "A#3",
          "ticks": 336480,
          "time": 271.354296,
          "velocity": 0.5905511811023622
        },
        {
          "duration": 0.12903199999999515,
          "durationTicks": 160,
          "midi": 58,
          "name": "A#3",
          "ticks": 336720,
          "time": 271.547844,
          "velocity": 0.5905511811023622
        },
        {
          "duration": 0.12903199999999515,
          "durationTicks": 160,
          "midi": 58,
          "name": "A#3",
          "ticks": 336960,
          "time": 271.741392,
          "velocity": 0.5905511811023622
        },
        {
          "duration": 0.12903199999999515,
          "durationTicks": 160,
          "midi": 58,
          "name": "A#3",
          "ticks": 337440,
          "time": 272.128488,
          "velocity": 0.5905511811023622
        },
        {
          "duration": 0.6129020000000196,
          "durationTicks": 760,
          "midi": 58,
          "name": "A#3",
          "ticks": 337920,
          "time": 272.515584,
          "velocity": 0.5905511811023622
        },
        {
          "duration": 0.19354800000002115,
          "durationTicks": 240,
          "midi": 63,
          "name": "D#4",
          "ticks": 341040,
          "time": 275.031708,
          "velocity": 0.5905511811023622
        },
        {
          "duration": 0.19354800000002115,
          "durationTicks": 240,
          "midi": 65,
          "name": "F4",
          "ticks": 341280,
          "time": 275.225256,
          "velocity": 0.5905511811023622
        },
        {
          "duration": 0.1935479999999643,
          "durationTicks": 240,
          "midi": 67,
          "name": "G4",
          "ticks": 341520,
          "time": 275.418804,
          "velocity": 0.5905511811023622
        },
        {
          "duration": 0.7741920000000277,
          "durationTicks": 960,
          "midi": 68,
          "name": "G#4",
          "ticks": 341760,
          "time": 275.612352,
          "velocity": 0.5905511811023622
        },
        {
          "duration": 0.1370964999999842,
          "durationTicks": 170,
          "midi": 67,
          "name": "G4",
          "ticks": 342720,
          "time": 276.386544,
          "velocity": 0.5905511811023622
        },
        {
          "duration": 0.19354800000002115,
          "durationTicks": 240,
          "midi": 62,
          "name": "D4",
          "ticks": 344880,
          "time": 278.128476,
          "velocity": 0.5905511811023622
        },
        {
          "duration": 0.19354800000002115,
          "durationTicks": 240,
          "midi": 63,
          "name": "D#4",
          "ticks": 345120,
          "time": 278.322024,
          "velocity": 0.5905511811023622
        },
        {
          "duration": 0.1935479999999643,
          "durationTicks": 240,
          "midi": 65,
          "name": "F4",
          "ticks": 345360,
          "time": 278.515572,
          "velocity": 0.5905511811023622
        },
        {
          "duration": 0.7741920000000277,
          "durationTicks": 960,
          "midi": 66,
          "name": "F#4",
          "ticks": 345600,
          "time": 278.70912,
          "velocity": 0.5905511811023622
        },
        {
          "duration": 0.1370964999999842,
          "durationTicks": 170,
          "midi": 65,
          "name": "F4",
          "ticks": 346560,
          "time": 279.483312,
          "velocity": 0.5905511811023622
        },
        {
          "duration": 0.38387019999998984,
          "durationTicks": 476,
          "midi": 67,
          "name": "G4",
          "ticks": 347040,
          "time": 279.870408,
          "velocity": 0.5905511811023622
        },
        {
          "duration": 0.129032000000052,
          "durationTicks": 160,
          "midi": 65,
          "name": "F4",
          "ticks": 347520,
          "time": 280.257504,
          "velocity": 0.5905511811023622
        },
        {
          "duration": 0.38709599999998545,
          "durationTicks": 480,
          "midi": 65,
          "name": "F4",
          "ticks": 348960,
          "time": 281.418792,
          "velocity": 0.5905511811023622
        },
        {
          "duration": 0.129032000000052,
          "durationTicks": 160,
          "midi": 63,
          "name": "D#4",
          "ticks": 349440,
          "time": 281.805888,
          "velocity": 0.5905511811023622
        },
        {
          "duration": 0.3225800000000163,
          "durationTicks": 400,
          "midi": 60,
          "name": "C4",
          "ticks": 350880,
          "time": 282.967176,
          "velocity": 0.5905511811023622
        },
        {
          "duration": 0.129032000000052,
          "durationTicks": 160,
          "midi": 58,
          "name": "A#3",
          "ticks": 351360,
          "time": 283.354272,
          "velocity": 0.5905511811023622
        },
        {
          "duration": 0.12903199999999515,
          "durationTicks": 160,
          "midi": 58,
          "name": "A#3",
          "ticks": 351840,
          "time": 283.741368,
          "velocity": 0.5905511811023622
        },
        {
          "duration": 0.129032000000052,
          "durationTicks": 160,
          "midi": 58,
          "name": "A#3",
          "ticks": 352080,
          "time": 283.934916,
          "velocity": 0.5905511811023622
        },
        {
          "duration": 0.12903199999999515,
          "durationTicks": 160,
          "midi": 58,
          "name": "A#3",
          "ticks": 352320,
          "time": 284.128464,
          "velocity": 0.5905511811023622
        },
        {
          "duration": 0.12903199999999515,
          "durationTicks": 160,
          "midi": 58,
          "name": "A#3",
          "ticks": 352800,
          "time": 284.51556,
          "velocity": 0.5905511811023622
        },
        {
          "duration": 0.6129020000000196,
          "durationTicks": 760,
          "midi": 58,
          "name": "A#3",
          "ticks": 353280,
          "time": 284.902656,
          "velocity": 0.5905511811023622
        },
        {
          "duration": 0.12903199999999515,
          "durationTicks": 160,
          "midi": 67,
          "name": "G4",
          "ticks": 371040,
          "time": 299.225208,
          "velocity": 0.6692913385826772
        },
        {
          "duration": 0.129032000000052,
          "durationTicks": 160,
          "midi": 67,
          "name": "G4",
          "ticks": 372000,
          "time": 299.9994,
          "velocity": 0.6692913385826772
        },
        {
          "duration": 0.12903199999999515,
          "durationTicks": 160,
          "midi": 68,
          "name": "G#4",
          "ticks": 372960,
          "time": 300.773592,
          "velocity": 0.6692913385826772
        },
        {
          "duration": 0.129032000000052,
          "durationTicks": 160,
          "midi": 68,
          "name": "G#4",
          "ticks": 373920,
          "time": 301.547784,
          "velocity": 0.6692913385826772
        },
        {
          "duration": 0.12903199999999515,
          "durationTicks": 160,
          "midi": 67,
          "name": "G4",
          "ticks": 374880,
          "time": 302.321976,
          "velocity": 0.6692913385826772
        },
        {
          "duration": 0.129032000000052,
          "durationTicks": 160,
          "midi": 68,
          "name": "G#4",
          "ticks": 375840,
          "time": 303.096168,
          "velocity": 0.6692913385826772
        },
        {
          "duration": 0.7741919999999709,
          "durationTicks": 960,
          "midi": 67,
          "name": "G4",
          "ticks": 376320,
          "time": 303.483264,
          "velocity": 0.6692913385826772
        },
        {
          "duration": 0.12903199999999515,
          "durationTicks": 160,
          "midi": 65,
          "name": "F4",
          "ticks": 377280,
          "time": 304.257456,
          "velocity": 0.6692913385826772
        },
        {
          "duration": 0.6129020000000196,
          "durationTicks": 760,
          "midi": 70,
          "name": "A#4",
          "ticks": 378240,
          "time": 305.031648,
          "velocity": 0.5905511811023622
        },
        {
          "duration": 1.4838680000000295,
          "durationTicks": 1840,
          "midi": 68,
          "name": "G#4",
          "ticks": 379200,
          "time": 305.80584,
          "velocity": 0.5905511811023622
        },
        {
          "duration": 0.6129020000000196,
          "durationTicks": 760,
          "midi": 67,
          "name": "G4",
          "ticks": 381120,
          "time": 307.354224,
          "velocity": 0.5905511811023622
        },
        {
          "duration": 0.12903199999999515,
          "durationTicks": 160,
          "midi": 65,
          "name": "F4",
          "ticks": 382560,
          "time": 308.515512,
          "velocity": 0.6692913385826772
        },
        {
          "duration": 0.129032000000052,
          "durationTicks": 160,
          "midi": 65,
          "name": "F4",
          "ticks": 383520,
          "time": 309.289704,
          "velocity": 0.6692913385826772
        },
        {
          "duration": 0.6129020000000196,
          "durationTicks": 760,
          "midi": 63,
          "name": "D#4",
          "ticks": 384000,
          "time": 309.6768,
          "velocity": 0.6692913385826772
        },
        {
          "duration": 0.23387050000002318,
          "durationTicks": 290,
          "midi": 67,
          "name": "G4",
          "ticks": 387360,
          "time": 312.38647199999997,
          "velocity": 0.6692913385826772
        },
        {
          "duration": 1.3870939999999905,
          "durationTicks": 1720,
          "midi": 67,
          "name": "G4",
          "ticks": 387840,
          "time": 312.773568,
          "velocity": 0.6692913385826772
        },
        {
          "duration": 0.23387049999996634,
          "durationTicks": 290,
          "midi": 65,
          "name": "F4",
          "ticks": 391200,
          "time": 315.48324,
          "velocity": 0.6692913385826772
        },
        {
          "duration": 1.2903200000000083,
          "durationTicks": 1600,
          "midi": 65,
          "name": "F4",
          "ticks": 391680,
          "time": 315.870336,
          "velocity": 0.6692913385826772
        },
        {
          "duration": 0.6129020000000196,
          "durationTicks": 760,
          "midi": 70,
          "name": "A#4",
          "ticks": 393600,
          "time": 317.41872,
          "velocity": 0.5905511811023622
        },
        {
          "duration": 1.4838680000000295,
          "durationTicks": 1840,
          "midi": 68,
          "name": "G#4",
          "ticks": 394560,
          "time": 318.192912,
          "velocity": 0.5905511811023622
        },
        {
          "duration": 0.6129020000000196,
          "durationTicks": 760,
          "midi": 67,
          "name": "G4",
          "ticks": 396480,
          "time": 319.741296,
          "velocity": 0.5905511811023622
        },
        {
          "duration": 0.12903199999999515,
          "durationTicks": 160,
          "midi": 65,
          "name": "F4",
          "ticks": 397920,
          "time": 320.902584,
          "velocity": 0.6692913385826772
        },
        {
          "duration": 0.12903199999999515,
          "durationTicks": 160,
          "midi": 65,
          "name": "F4",
          "ticks": 398880,
          "time": 321.676776,
          "velocity": 0.6692913385826772
        },
        {
          "duration": 0.6129020000000196,
          "durationTicks": 760,
          "midi": 63,
          "name": "D#4",
          "ticks": 399360,
          "time": 322.063872,
          "velocity": 0.6692913385826772
        },
        {
          "duration": 0.23387049999996634,
          "durationTicks": 290,
          "midi": 58,
          "name": "A#3",
          "ticks": 416160,
          "time": 335.612232,
          "velocity": 0.7086614173228346
        },
        {
          "duration": 0.19354800000002115,
          "durationTicks": 240,
          "midi": 63,
          "name": "D#4",
          "ticks": 416640,
          "time": 335.999328,
          "velocity": 0.7086614173228346
        },
        {
          "duration": 0.09677399999998215,
          "durationTicks": 120,
          "midi": 65,
          "name": "F4",
          "ticks": 416880,
          "time": 336.192876,
          "velocity": 0.7086614173228346
        },
        {
          "duration": 0.09677399999998215,
          "durationTicks": 120,
          "midi": 67,
          "name": "G4",
          "ticks": 417000,
          "time": 336.28965,
          "velocity": 0.7086614173228346
        },
        {
          "duration": 0.096774000000039,
          "durationTicks": 120,
          "midi": 68,
          "name": "G#4",
          "ticks": 417120,
          "time": 336.386424,
          "velocity": 0.7086614173228346
        },
        {
          "duration": 0.09677399999998215,
          "durationTicks": 120,
          "midi": 70,
          "name": "A#4",
          "ticks": 417240,
          "time": 336.483198,
          "velocity": 0.7086614173228346
        },
        {
          "duration": 0.09677399999998215,
          "durationTicks": 120,
          "midi": 72,
          "name": "C5",
          "ticks": 417360,
          "time": 336.579972,
          "velocity": 0.7086614173228346
        },
        {
          "duration": 0.096774000000039,
          "durationTicks": 120,
          "midi": 74,
          "name": "D5",
          "ticks": 417480,
          "time": 336.676746,
          "velocity": 0.7086614173228346
        },
        {
          "duration": 0.1370964999999842,
          "durationTicks": 170,
          "midi": 75,
          "name": "D#5",
          "ticks": 417600,
          "time": 336.77352,
          "velocity": 0.7086614173228346
        },
        {
          "duration": 0.1370964999999842,
          "durationTicks": 170,
          "midi": 70,
          "name": "A#4",
          "ticks": 417840,
          "time": 336.967068,
          "velocity": 0.7086614173228346
        },
        {
          "duration": 0.1370964999999842,
          "durationTicks": 170,
          "midi": 67,
          "name": "G4",
          "ticks": 418080,
          "time": 337.160616,
          "velocity": 0.7086614173228346
        },
        {
          "duration": 0.13709650000004103,
          "durationTicks": 170,
          "midi": 63,
          "name": "D#4",
          "ticks": 418320,
          "time": 337.35416399999997,
          "velocity": 0.7086614173228346
        },
        {
          "duration": 0.1370964999999842,
          "durationTicks": 170,
          "midi": 63,
          "name": "D#4",
          "ticks": 418560,
          "time": 337.547712,
          "velocity": 0.7086614173228346
        },
        {
          "duration": 0.09354819999998654,
          "durationTicks": 116,
          "midi": 65,
          "name": "F4",
          "ticks": 418560,
          "time": 337.547712,
          "velocity": 0.7086614173228346
        },
        {
          "duration": 0.1370964999999842,
          "durationTicks": 170,
          "midi": 62,
          "name": "D4",
          "ticks": 418800,
          "time": 337.74126,
          "velocity": 0.7086614173228346
        },
        {
          "duration": 0.6209665000000086,
          "durationTicks": 770,
          "midi": 62,
          "name": "D4",
          "ticks": 419040,
          "time": 337.934808,
          "velocity": 0.7086614173228346
        },
        {
          "duration": 0.23387049999996634,
          "durationTicks": 290,
          "midi": 68,
          "name": "G#4",
          "ticks": 420000,
          "time": 338.709,
          "velocity": 0.7086614173228346
        },
        {
          "duration": 0.23387049999996634,
          "durationTicks": 290,
          "midi": 67,
          "name": "G4",
          "ticks": 420480,
          "time": 339.096096,
          "velocity": 0.7086614173228346
        },
        {
          "duration": 0.7096760000000586,
          "durationTicks": 880,
          "midi": 67,
          "name": "G4",
          "ticks": 420960,
          "time": 339.483192,
          "velocity": 0.7086614173228346
        },
        {
          "duration": 0.23387049999996634,
          "durationTicks": 290,
          "midi": 65,
          "name": "F4",
          "ticks": 421920,
          "time": 340.257384,
          "velocity": 0.7086614173228346
        },
        {
          "duration": 0.999998000000005,
          "durationTicks": 1240,
          "midi": 65,
          "name": "F4",
          "ticks": 422400,
          "time": 340.64448,
          "velocity": 0.7086614173228346
        },
        {
          "duration": 0.7741920000000277,
          "durationTicks": 960,
          "midi": 70,
          "name": "A#4",
          "ticks": 424320,
          "time": 342.192864,
          "velocity": 0.7086614173228346
        },
        {
          "duration": 0.1370964999999842,
          "durationTicks": 170,
          "midi": 68,
          "name": "G#4",
          "ticks": 425280,
          "time": 342.967056,
          "velocity": 0.7086614173228346
        },
        {
          "duration": 0.7741920000000277,
          "durationTicks": 960,
          "midi": 68,
          "name": "G#4",
          "ticks": 426240,
          "time": 343.741248,
          "velocity": 0.7086614173228346
        },
        {
          "duration": 0.1370964999999842,
          "durationTicks": 170,
          "midi": 67,
          "name": "G4",
          "ticks": 427200,
          "time": 344.51544,
          "velocity": 0.7086614173228346
        },
        {
          "duration": 0.129032000000052,
          "durationTicks": 160,
          "midi": 65,
          "name": "F4",
          "ticks": 428160,
          "time": 345.289632,
          "velocity": 0.7086614173228346
        },
        {
          "duration": 0.12903199999999515,
          "durationTicks": 160,
          "midi": 68,
          "name": "G#4",
          "ticks": 429120,
          "time": 346.063824,
          "velocity": 0.7086614173228346
        },
        {
          "duration": 0.6129020000000196,
          "durationTicks": 760,
          "midi": 67,
          "name": "G4",
          "ticks": 430080,
          "time": 346.838016,
          "velocity": 0.7086614173228346
        },
        {
          "duration": 0.6209664999999518,
          "durationTicks": 770,
          "midi": 65,
          "name": "F4",
          "ticks": 432480,
          "time": 348.773496,
          "velocity": 0.7086614173228346
        },
        {
          "duration": 0.23387049999996634,
          "durationTicks": 290,
          "midi": 65,
          "name": "F4",
          "ticks": 433440,
          "time": 349.547688,
          "velocity": 0.7086614173228346
        },
        {
          "duration": 0.1370964999999842,
          "durationTicks": 170,
          "midi": 63,
          "name": "D#4",
          "ticks": 433920,
          "time": 349.934784,
          "velocity": 0.7086614173228346
        },
        {
          "duration": 0.6209664999999518,
          "durationTicks": 770,
          "midi": 63,
          "name": "D#4",
          "ticks": 436320,
          "time": 351.870264,
          "velocity": 0.7086614173228346
        },
        {
          "duration": 0.23387049999996634,
          "durationTicks": 290,
          "midi": 63,
          "name": "D#4",
          "ticks": 437280,
          "time": 352.644456,
          "velocity": 0.7086614173228346
        },
        {
          "duration": 0.1370964999999842,
          "durationTicks": 170,
          "midi": 62,
          "name": "D4",
          "ticks": 437760,
          "time": 353.031552,
          "velocity": 0.7086614173228346
        },
        {
          "duration": 0.7741920000000277,
          "durationTicks": 960,
          "midi": 70,
          "name": "A#4",
          "ticks": 439680,
          "time": 354.579936,
          "velocity": 0.7086614173228346
        },
        {
          "duration": 0.1370964999999842,
          "durationTicks": 170,
          "midi": 68,
          "name": "G#4",
          "ticks": 440640,
          "time": 355.354128,
          "velocity": 0.7086614173228346
        },
        {
          "duration": 0.7741920000000277,
          "durationTicks": 960,
          "midi": 68,
          "name": "G#4",
          "ticks": 441600,
          "time": 356.12832,
          "velocity": 0.7086614173228346
        },
        {
          "duration": 0.1370964999999842,
          "durationTicks": 170,
          "midi": 67,
          "name": "G4",
          "ticks": 442560,
          "time": 356.902512,
          "velocity": 0.7086614173228346
        },
        {
          "duration": 0.129032000000052,
          "durationTicks": 160,
          "midi": 65,
          "name": "F4",
          "ticks": 443520,
          "time": 357.676704,
          "velocity": 0.7086614173228346
        },
        {
          "duration": 0.12903199999999515,
          "durationTicks": 160,
          "midi": 68,
          "name": "G#4",
          "ticks": 444480,
          "time": 358.450896,
          "velocity": 0.7086614173228346
        },
        {
          "duration": 0.6129020000000196,
          "durationTicks": 760,
          "midi": 67,
          "name": "G4",
          "ticks": 445440,
          "time": 359.22508799999997,
          "velocity": 0.7086614173228346
        },
        {
          "duration": 0.129032000000052,
          "durationTicks": 160,
          "midi": 67,
          "name": "G4",
          "ticks": 462960,
          "time": 373.354092,
          "velocity": 0.47244094488188976
        },
        {
          "duration": 0.12903199999999515,
          "durationTicks": 160,
          "midi": 67,
          "name": "G4",
          "ticks": 463200,
          "time": 373.54764,
          "velocity": 0.47244094488188976
        },
        {
          "duration": 0.12903199999999515,
          "durationTicks": 160,
          "midi": 67,
          "name": "G4",
          "ticks": 463440,
          "time": 373.741188,
          "velocity": 0.47244094488188976
        },
        {
          "duration": 0.129032000000052,
          "durationTicks": 160,
          "midi": 67,
          "name": "G4",
          "ticks": 463680,
          "time": 373.934736,
          "velocity": 0.47244094488188976
        },
        {
          "duration": 0.12903199999999515,
          "durationTicks": 160,
          "midi": 67,
          "name": "G4",
          "ticks": 463920,
          "time": 374.128284,
          "velocity": 0.47244094488188976
        },
        {
          "duration": 0.129032000000052,
          "durationTicks": 160,
          "midi": 67,
          "name": "G4",
          "ticks": 464160,
          "time": 374.321832,
          "velocity": 0.47244094488188976
        },
        {
          "duration": 0.12903199999999515,
          "durationTicks": 160,
          "midi": 67,
          "name": "G4",
          "ticks": 464400,
          "time": 374.51538,
          "velocity": 0.47244094488188976
        },
        {
          "duration": 0.129032000000052,
          "durationTicks": 160,
          "midi": 68,
          "name": "G#4",
          "ticks": 464880,
          "time": 374.902476,
          "velocity": 0.47244094488188976
        },
        {
          "duration": 0.12903199999999515,
          "durationTicks": 160,
          "midi": 68,
          "name": "G#4",
          "ticks": 465120,
          "time": 375.096024,
          "velocity": 0.47244094488188976
        },
        {
          "duration": 0.12903199999999515,
          "durationTicks": 160,
          "midi": 68,
          "name": "G#4",
          "ticks": 465360,
          "time": 375.289572,
          "velocity": 0.47244094488188976
        },
        {
          "duration": 0.129032000000052,
          "durationTicks": 160,
          "midi": 68,
          "name": "G#4",
          "ticks": 465600,
          "time": 375.48312,
          "velocity": 0.47244094488188976
        },
        {
          "duration": 0.12903199999999515,
          "durationTicks": 160,
          "midi": 68,
          "name": "G#4",
          "ticks": 465840,
          "time": 375.676668,
          "velocity": 0.47244094488188976
        },
        {
          "duration": 0.129032000000052,
          "durationTicks": 160,
          "midi": 68,
          "name": "G#4",
          "ticks": 466080,
          "time": 375.87021599999997,
          "velocity": 0.47244094488188976
        },
        {
          "duration": 0.12903199999999515,
          "durationTicks": 160,
          "midi": 68,
          "name": "G#4",
          "ticks": 466320,
          "time": 376.063764,
          "velocity": 0.47244094488188976
        },
        {
          "duration": 0.129032000000052,
          "durationTicks": 160,
          "midi": 63,
          "name": "D#4",
          "ticks": 466800,
          "time": 376.45086,
          "velocity": 0.47244094488188976
        },
        {
          "duration": 0.12903199999999515,
          "durationTicks": 160,
          "midi": 63,
          "name": "D#4",
          "ticks": 467040,
          "time": 376.644408,
          "velocity": 0.47244094488188976
        },
        {
          "duration": 0.12903199999999515,
          "durationTicks": 160,
          "midi": 63,
          "name": "D#4",
          "ticks": 467280,
          "time": 376.837956,
          "velocity": 0.47244094488188976
        },
        {
          "duration": 0.129032000000052,
          "durationTicks": 160,
          "midi": 63,
          "name": "D#4",
          "ticks": 467520,
          "time": 377.031504,
          "velocity": 0.47244094488188976
        },
        {
          "duration": 0.12903199999999515,
          "durationTicks": 160,
          "midi": 63,
          "name": "D#4",
          "ticks": 467760,
          "time": 377.225052,
          "velocity": 0.47244094488188976
        },
        {
          "duration": 0.129032000000052,
          "durationTicks": 160,
          "midi": 65,
          "name": "F4",
          "ticks": 468000,
          "time": 377.41859999999997,
          "velocity": 0.47244094488188976
        },
        {
          "duration": 0.12903199999999515,
          "durationTicks": 160,
          "midi": 65,
          "name": "F4",
          "ticks": 468240,
          "time": 377.612148,
          "velocity": 0.47244094488188976
        },
        {
          "duration": 0.12903199999999515,
          "durationTicks": 160,
          "midi": 65,
          "name": "F4",
          "ticks": 468480,
          "time": 377.805696,
          "velocity": 0.47244094488188976
        },
        {
          "duration": 0.129032000000052,
          "durationTicks": 160,
          "midi": 65,
          "name": "F4",
          "ticks": 468720,
          "time": 377.999244,
          "velocity": 0.47244094488188976
        },
        {
          "duration": 0.12903199999999515,
          "durationTicks": 160,
          "midi": 65,
          "name": "F4",
          "ticks": 468960,
          "time": 378.192792,
          "velocity": 0.47244094488188976
        },
        {
          "duration": 0.12903199999999515,
          "durationTicks": 160,
          "midi": 65,
          "name": "F4",
          "ticks": 469200,
          "time": 378.38634,
          "velocity": 0.47244094488188976
        },
        {
          "duration": 0.129032000000052,
          "durationTicks": 160,
          "midi": 65,
          "name": "F4",
          "ticks": 469440,
          "time": 378.579888,
          "velocity": 0.47244094488188976
        },
        {
          "duration": 0.38387019999998984,
          "durationTicks": 476,
          "midi": 70,
          "name": "A#4",
          "ticks": 470880,
          "time": 379.741176,
          "velocity": 0.5511811023622047
        },
        {
          "duration": 0.38387019999998984,
          "durationTicks": 476,
          "midi": 68,
          "name": "G#4",
          "ticks": 471360,
          "time": 380.128272,
          "velocity": 0.5511811023622047
        },
        {
          "duration": 0.38387019999998984,
          "durationTicks": 476,
          "midi": 68,
          "name": "G#4",
          "ticks": 472800,
          "time": 381.28956,
          "velocity": 0.5511811023622047
        },
        {
          "duration": 0.3838702000000467,
          "durationTicks": 476,
          "midi": 67,
          "name": "G4",
          "ticks": 473280,
          "time": 381.676656,
          "velocity": 0.5511811023622047
        },
        {
          "duration": 0.1370964999999842,
          "durationTicks": 170,
          "midi": 65,
          "name": "F4",
          "ticks": 474720,
          "time": 382.837944,
          "velocity": 0.5511811023622047
        },
        {
          "duration": 0.1370964999999842,
          "durationTicks": 170,
          "midi": 65,
          "name": "F4",
          "ticks": 475680,
          "time": 383.612136,
          "velocity": 0.5511811023622047
        },
        {
          "duration": 0.12903199999999515,
          "durationTicks": 160,
          "midi": 63,
          "name": "D#4",
          "ticks": 476160,
          "time": 383.999232,
          "velocity": 0.5511811023622047
        },
        {
          "duration": 0.129032000000052,
          "durationTicks": 160,
          "midi": 63,
          "name": "D#4",
          "ticks": 476400,
          "time": 384.19277999999997,
          "velocity": 0.5511811023622047
        },
        {
          "duration": 0.12903199999999515,
          "durationTicks": 160,
          "midi": 63,
          "name": "D#4",
          "ticks": 476640,
          "time": 384.386328,
          "velocity": 0.5511811023622047
        },
        {
          "duration": 0.12903199999999515,
          "durationTicks": 160,
          "midi": 63,
          "name": "D#4",
          "ticks": 476880,
          "time": 384.579876,
          "velocity": 0.5511811023622047
        },
        {
          "duration": 0.129032000000052,
          "durationTicks": 160,
          "midi": 63,
          "name": "D#4",
          "ticks": 477120,
          "time": 384.773424,
          "velocity": 0.5511811023622047
        },
        {
          "duration": 0.129032000000052,
          "durationTicks": 160,
          "midi": 67,
          "name": "G4",
          "ticks": 478320,
          "time": 385.74116399999997,
          "velocity": 0.47244094488188976
        },
        {
          "duration": 0.12903199999999515,
          "durationTicks": 160,
          "midi": 67,
          "name": "G4",
          "ticks": 478560,
          "time": 385.934712,
          "velocity": 0.47244094488188976
        },
        {
          "duration": 0.12903199999999515,
          "durationTicks": 160,
          "midi": 67,
          "name": "G4",
          "ticks": 478800,
          "time": 386.12826,
          "velocity": 0.47244094488188976
        },
        {
          "duration": 0.129032000000052,
          "durationTicks": 160,
          "midi": 67,
          "name": "G4",
          "ticks": 479040,
          "time": 386.321808,
          "velocity": 0.47244094488188976
        },
        {
          "duration": 0.12903199999999515,
          "durationTicks": 160,
          "midi": 67,
          "name": "G4",
          "ticks": 479280,
          "time": 386.515356,
          "velocity": 0.47244094488188976
        },
        {
          "duration": 0.12903199999999515,
          "durationTicks": 160,
          "midi": 67,
          "name": "G4",
          "ticks": 479520,
          "time": 386.708904,
          "velocity": 0.47244094488188976
        },
        {
          "duration": 0.129032000000052,
          "durationTicks": 160,
          "midi": 67,
          "name": "G4",
          "ticks": 479760,
          "time": 386.902452,
          "velocity": 0.47244094488188976
        },
        {
          "duration": 0.129032000000052,
          "durationTicks": 160,
          "midi": 67,
          "name": "G4",
          "ticks": 480240,
          "time": 387.28954799999997,
          "velocity": 0.47244094488188976
        },
        {
          "duration": 0.12903199999999515,
          "durationTicks": 160,
          "midi": 67,
          "name": "G4",
          "ticks": 480480,
          "time": 387.483096,
          "velocity": 0.47244094488188976
        },
        {
          "duration": 0.12903199999999515,
          "durationTicks": 160,
          "midi": 67,
          "name": "G4",
          "ticks": 480720,
          "time": 387.676644,
          "velocity": 0.47244094488188976
        },
        {
          "duration": 0.129032000000052,
          "durationTicks": 160,
          "midi": 67,
          "name": "G4",
          "ticks": 480960,
          "time": 387.870192,
          "velocity": 0.47244094488188976
        },
        {
          "duration": 0.12903199999999515,
          "durationTicks": 160,
          "midi": 67,
          "name": "G4",
          "ticks": 481200,
          "time": 388.06374,
          "velocity": 0.47244094488188976
        },
        {
          "duration": 0.12903199999999515,
          "durationTicks": 160,
          "midi": 67,
          "name": "G4",
          "ticks": 481440,
          "time": 388.257288,
          "velocity": 0.47244094488188976
        },
        {
          "duration": 0.129032000000052,
          "durationTicks": 160,
          "midi": 67,
          "name": "G4",
          "ticks": 481680,
          "time": 388.450836,
          "velocity": 0.47244094488188976
        },
        {
          "duration": 0.12903199999999515,
          "durationTicks": 160,
          "midi": 65,
          "name": "F4",
          "ticks": 482160,
          "time": 388.837932,
          "velocity": 0.47244094488188976
        },
        {
          "duration": 0.12903199999999515,
          "durationTicks": 160,
          "midi": 65,
          "name": "F4",
          "ticks": 482400,
          "time": 389.03148,
          "velocity": 0.47244094488188976
        },
        {
          "duration": 0.12903199999999515,
          "durationTicks": 160,
          "midi": 65,
          "name": "F4",
          "ticks": 482640,
          "time": 389.225028,
          "velocity": 0.47244094488188976
        },
        {
          "duration": 0.129032000000052,
          "durationTicks": 160,
          "midi": 65,
          "name": "F4",
          "ticks": 482880,
          "time": 389.418576,
          "velocity": 0.47244094488188976
        },
        {
          "duration": 0.12903199999999515,
          "durationTicks": 160,
          "midi": 65,
          "name": "F4",
          "ticks": 483120,
          "time": 389.612124,
          "velocity": 0.47244094488188976
        },
        {
          "duration": 0.12903199999999515,
          "durationTicks": 160,
          "midi": 65,
          "name": "F4",
          "ticks": 483360,
          "time": 389.805672,
          "velocity": 0.47244094488188976
        },
        {
          "duration": 0.129032000000052,
          "durationTicks": 160,
          "midi": 65,
          "name": "F4",
          "ticks": 483600,
          "time": 389.99922,
          "velocity": 0.47244094488188976
        },
        {
          "duration": 0.12903199999999515,
          "durationTicks": 160,
          "midi": 65,
          "name": "F4",
          "ticks": 484080,
          "time": 390.386316,
          "velocity": 0.47244094488188976
        },
        {
          "duration": 0.129032000000052,
          "durationTicks": 160,
          "midi": 65,
          "name": "F4",
          "ticks": 484320,
          "time": 390.579864,
          "velocity": 0.47244094488188976
        },
        {
          "duration": 0.12903199999999515,
          "durationTicks": 160,
          "midi": 65,
          "name": "F4",
          "ticks": 484560,
          "time": 390.773412,
          "velocity": 0.47244094488188976
        },
        {
          "duration": 0.129032000000052,
          "durationTicks": 160,
          "midi": 65,
          "name": "F4",
          "ticks": 484800,
          "time": 390.96696,
          "velocity": 0.47244094488188976
        },
        {
          "duration": 0.12903199999999515,
          "durationTicks": 160,
          "midi": 65,
          "name": "F4",
          "ticks": 485040,
          "time": 391.160508,
          "velocity": 0.47244094488188976
        },
        {
          "duration": 0.12903199999999515,
          "durationTicks": 160,
          "midi": 65,
          "name": "F4",
          "ticks": 485280,
          "time": 391.354056,
          "velocity": 0.47244094488188976
        },
        {
          "duration": 0.129032000000052,
          "durationTicks": 160,
          "midi": 65,
          "name": "F4",
          "ticks": 485520,
          "time": 391.547604,
          "velocity": 0.47244094488188976
        },
        {
          "duration": 0.38387019999998984,
          "durationTicks": 476,
          "midi": 70,
          "name": "A#4",
          "ticks": 486240,
          "time": 392.128248,
          "velocity": 0.5511811023622047
        },
        {
          "duration": 0.3838702000000467,
          "durationTicks": 476,
          "midi": 68,
          "name": "G#4",
          "ticks": 486720,
          "time": 392.51534399999997,
          "velocity": 0.5511811023622047
        },
        {
          "duration": 0.38387019999998984,
          "durationTicks": 476,
          "midi": 68,
          "name": "G#4",
          "ticks": 488160,
          "time": 393.676632,
          "velocity": 0.5511811023622047
        },
        {
          "duration": 0.3838702000000467,
          "durationTicks": 476,
          "midi": 67,
          "name": "G4",
          "ticks": 488640,
          "time": 394.06372799999997,
          "velocity": 0.5511811023622047
        },
        {
          "duration": 0.1370964999999842,
          "durationTicks": 170,
          "midi": 65,
          "name": "F4",
          "ticks": 490080,
          "time": 395.225016,
          "velocity": 0.5511811023622047
        },
        {
          "duration": 0.1370964999999842,
          "durationTicks": 170,
          "midi": 68,
          "name": "G#4",
          "ticks": 491040,
          "time": 395.999208,
          "velocity": 0.5511811023622047
        },
        {
          "duration": 2,
          "durationTicks": 960,
          "midi": 67,
          "name": "G4",
          "ticks": 491520,
          "time": 396.386304,
          "velocity": 0.47244094488188976
        },
        {
          "duration": 2,
          "durationTicks": 960,
          "midi": 69,
          "name": "A4",
          "ticks": 492480,
          "time": 398.386304,
          "velocity": 0.47244094488188976
        },
        {
          "duration": 2,
          "durationTicks": 960,
          "midi": 70,
          "name": "A#4",
          "ticks": 493440,
          "time": 400.386304,
          "velocity": 0.47244094488188976
        },
        {
          "duration": 1.9562500000000114,
          "durationTicks": 939,
          "midi": 68,
          "name": "G#4",
          "ticks": 494400,
          "time": 402.386304,
          "velocity": 0.47244094488188976
        },
        {
          "duration": 2,
          "durationTicks": 960,
          "midi": 67,
          "name": "G4",
          "ticks": 495360,
          "time": 404.386304,
          "velocity": 0.47244094488188976
        },
        {
          "duration": 2,
          "durationTicks": 960,
          "midi": 69,
          "name": "A4",
          "ticks": 496320,
          "time": 406.386304,
          "velocity": 0.47244094488188976
        },
        {
          "duration": 1.6041666666666856,
          "durationTicks": 770,
          "midi": 68,
          "name": "G#4",
          "ticks": 497280,
          "time": 408.386304,
          "velocity": 0.47244094488188976
        },
        {
          "duration": 1.3020833333333144,
          "durationTicks": 1250,
          "midi": 67,
          "name": "G4",
          "ticks": 504480,
          "time": 423.0946373333334,
          "velocity": 0.5511811023622047
        },
        {
          "duration": 1.3020833333333144,
          "durationTicks": 1250,
          "midi": 68,
          "name": "G#4",
          "ticks": 505920,
          "time": 424.5946373333334,
          "velocity": 0.5511811023622047
        },
        {
          "duration": 0.703125,
          "durationTicks": 675,
          "midi": 67,
          "name": "G4",
          "ticks": 507360,
          "time": 426.0946373333334,
          "velocity": 0.5511811023622047
        },
        {
          "duration": 0.703125,
          "durationTicks": 675,
          "midi": 65,
          "name": "F4",
          "ticks": 508080,
          "time": 426.8446373333334,
          "velocity": 0.5511811023622047
        },
        {
          "duration": 0.15104166666662877,
          "durationTicks": 145,
          "midi": 65,
          "name": "F4",
          "ticks": 508800,
          "time": 427.5946373333334,
          "velocity": 0.5511811023622047
        },
        {
          "duration": 0.15104166666662877,
          "durationTicks": 145,
          "midi": 65,
          "name": "F4",
          "ticks": 509040,
          "time": 427.8446373333334,
          "velocity": 0.5511811023622047
        },
        {
          "duration": 0.15104166666662877,
          "durationTicks": 145,
          "midi": 65,
          "name": "F4",
          "ticks": 509280,
          "time": 428.0946373333334,
          "velocity": 0.5511811023622047
        },
        {
          "duration": 0.3020833333333144,
          "durationTicks": 290,
          "midi": 65,
          "name": "F4",
          "ticks": 509520,
          "time": 428.3446373333334,
          "velocity": 0.5511811023622047
        },
        {
          "duration": 1.4958333333333371,
          "durationTicks": 1436,
          "midi": 62,
          "name": "D4",
          "ticks": 516000,
          "time": 435.0946373333334,
          "velocity": 0.5511811023622047
        },
        {
          "duration": 0.4958333333333371,
          "durationTicks": 476,
          "midi": 60,
          "name": "C4",
          "ticks": 517440,
          "time": 436.5946373333334,
          "velocity": 0.5511811023622047
        },
        {
          "duration": 1.4958333333333371,
          "durationTicks": 1436,
          "midi": 60,
          "name": "C4",
          "ticks": 518880,
          "time": 438.0946373333334,
          "velocity": 0.5511811023622047
        },
        {
          "duration": 0.4958333333333371,
          "durationTicks": 476,
          "midi": 58,
          "name": "A#3",
          "ticks": 520320,
          "time": 439.5946373333334,
          "velocity": 0.5511811023622047
        },
        {
          "duration": 0.16666666666662877,
          "durationTicks": 160,
          "midi": 65,
          "name": "F4",
          "ticks": 534720,
          "time": 454.5946373333334,
          "velocity": 0.5118110236220472
        },
        {
          "duration": 0.16666666666662877,
          "durationTicks": 160,
          "midi": 65,
          "name": "F4",
          "ticks": 534960,
          "time": 454.8446373333334,
          "velocity": 0.5118110236220472
        },
        {
          "duration": 0.16666666666662877,
          "durationTicks": 160,
          "midi": 65,
          "name": "F4",
          "ticks": 535200,
          "time": 455.0946373333334,
          "velocity": 0.5118110236220472
        },
        {
          "duration": 0.16666666666662877,
          "durationTicks": 160,
          "midi": 65,
          "name": "F4",
          "ticks": 535440,
          "time": 455.3446373333334,
          "velocity": 0.5118110236220472
        },
        {
          "duration": 0.16666666666662877,
          "durationTicks": 160,
          "midi": 65,
          "name": "F4",
          "ticks": 535680,
          "time": 455.5946373333334,
          "velocity": 0.5118110236220472
        },
        {
          "duration": 0.16666666666662877,
          "durationTicks": 160,
          "midi": 65,
          "name": "F4",
          "ticks": 535920,
          "time": 455.8446373333334,
          "velocity": 0.5118110236220472
        },
        {
          "duration": 0.16666666666662877,
          "durationTicks": 160,
          "midi": 65,
          "name": "F4",
          "ticks": 536160,
          "time": 456.0946373333334,
          "velocity": 0.5118110236220472
        },
        {
          "duration": 0.16666666666662877,
          "durationTicks": 160,
          "midi": 65,
          "name": "F4",
          "ticks": 536400,
          "time": 456.3446373333334,
          "velocity": 0.5118110236220472
        },
        {
          "duration": 0.16666666666662877,
          "durationTicks": 160,
          "midi": 65,
          "name": "F4",
          "ticks": 536640,
          "time": 456.5946373333334,
          "velocity": 0.5118110236220472
        },
        {
          "duration": 0.16666666666662877,
          "durationTicks": 160,
          "midi": 65,
          "name": "F4",
          "ticks": 536880,
          "time": 456.8446373333334,
          "velocity": 0.5118110236220472
        },
        {
          "duration": 0.16666666666662877,
          "durationTicks": 160,
          "midi": 65,
          "name": "F4",
          "ticks": 537120,
          "time": 457.0946373333334,
          "velocity": 0.5118110236220472
        },
        {
          "duration": 0.16666666666662877,
          "durationTicks": 160,
          "midi": 65,
          "name": "F4",
          "ticks": 537360,
          "time": 457.3446373333334,
          "velocity": 0.5118110236220472
        },
        {
          "duration": 0.16666666666662877,
          "durationTicks": 160,
          "midi": 67,
          "name": "G4",
          "ticks": 537600,
          "time": 457.5946373333334,
          "velocity": 0.5118110236220472
        },
        {
          "duration": 0.16666666666662877,
          "durationTicks": 160,
          "midi": 67,
          "name": "G4",
          "ticks": 537840,
          "time": 457.8446373333334,
          "velocity": 0.5118110236220472
        },
        {
          "duration": 0.16666666666662877,
          "durationTicks": 160,
          "midi": 67,
          "name": "G4",
          "ticks": 538080,
          "time": 458.0946373333334,
          "velocity": 0.5118110236220472
        },
        {
          "duration": 0.16666666666662877,
          "durationTicks": 160,
          "midi": 67,
          "name": "G4",
          "ticks": 538320,
          "time": 458.3446373333334,
          "velocity": 0.5118110236220472
        },
        {
          "duration": 0.16666666666662877,
          "durationTicks": 160,
          "midi": 67,
          "name": "G4",
          "ticks": 538560,
          "time": 458.5946373333334,
          "velocity": 0.5118110236220472
        },
        {
          "duration": 0.16666666666662877,
          "durationTicks": 160,
          "midi": 67,
          "name": "G4",
          "ticks": 538800,
          "time": 458.8446373333334,
          "velocity": 0.5118110236220472
        },
        {
          "duration": 0.16666666666662877,
          "durationTicks": 160,
          "midi": 65,
          "name": "F4",
          "ticks": 539040,
          "time": 459.0946373333334,
          "velocity": 0.5118110236220472
        },
        {
          "duration": 0.16666666666662877,
          "durationTicks": 160,
          "midi": 65,
          "name": "F4",
          "ticks": 539280,
          "time": 459.3446373333334,
          "velocity": 0.5118110236220472
        },
        {
          "duration": 0.16666666666662877,
          "durationTicks": 160,
          "midi": 65,
          "name": "F4",
          "ticks": 539520,
          "time": 459.5946373333334,
          "velocity": 0.5118110236220472
        },
        {
          "duration": 0.16666666666662877,
          "durationTicks": 160,
          "midi": 65,
          "name": "F4",
          "ticks": 539760,
          "time": 459.8446373333334,
          "velocity": 0.5118110236220472
        },
        {
          "duration": 0.16666666666662877,
          "durationTicks": 160,
          "midi": 65,
          "name": "F4",
          "ticks": 540000,
          "time": 460.0946373333334,
          "velocity": 0.5118110236220472
        },
        {
          "duration": 0.16666666666662877,
          "durationTicks": 160,
          "midi": 65,
          "name": "F4",
          "ticks": 540240,
          "time": 460.3446373333334,
          "velocity": 0.5118110236220472
        },
        {
          "duration": 0.16666666666662877,
          "durationTicks": 160,
          "midi": 67,
          "name": "G4",
          "ticks": 540480,
          "time": 460.5946373333334,
          "velocity": 0.5118110236220472
        },
        {
          "duration": 0.16666666666662877,
          "durationTicks": 160,
          "midi": 67,
          "name": "G4",
          "ticks": 540720,
          "time": 460.8446373333334,
          "velocity": 0.5118110236220472
        },
        {
          "duration": 0.16666666666662877,
          "durationTicks": 160,
          "midi": 67,
          "name": "G4",
          "ticks": 540960,
          "time": 461.0946373333334,
          "velocity": 0.5118110236220472
        },
        {
          "duration": 0.16666666666662877,
          "durationTicks": 160,
          "midi": 67,
          "name": "G4",
          "ticks": 541200,
          "time": 461.3446373333334,
          "velocity": 0.5118110236220472
        },
        {
          "duration": 0.16666666666662877,
          "durationTicks": 160,
          "midi": 67,
          "name": "G4",
          "ticks": 541440,
          "time": 461.5946373333334,
          "velocity": 0.5118110236220472
        },
        {
          "duration": 0.16666666666662877,
          "durationTicks": 160,
          "midi": 67,
          "name": "G4",
          "ticks": 541680,
          "time": 461.8446373333334,
          "velocity": 0.5118110236220472
        },
        {
          "duration": 0.16666666666662877,
          "durationTicks": 160,
          "midi": 65,
          "name": "F4",
          "ticks": 541920,
          "time": 462.0946373333334,
          "velocity": 0.5118110236220472
        },
        {
          "duration": 0.16666666666662877,
          "durationTicks": 160,
          "midi": 65,
          "name": "F4",
          "ticks": 542160,
          "time": 462.3446373333334,
          "velocity": 0.5118110236220472
        },
        {
          "duration": 0.16666666666662877,
          "durationTicks": 160,
          "midi": 65,
          "name": "F4",
          "ticks": 542640,
          "time": 462.8446373333334,
          "velocity": 0.5118110236220472
        },
        {
          "duration": 0.16666666666662877,
          "durationTicks": 160,
          "midi": 65,
          "name": "F4",
          "ticks": 542880,
          "time": 463.0946373333334,
          "velocity": 0.5118110236220472
        },
        {
          "duration": 0.16666666666662877,
          "durationTicks": 160,
          "midi": 65,
          "name": "F4",
          "ticks": 543360,
          "time": 463.5946373333334,
          "velocity": 0.5118110236220472
        },
        {
          "duration": 0.16666666666662877,
          "durationTicks": 160,
          "midi": 65,
          "name": "F4",
          "ticks": 543600,
          "time": 463.8446373333334,
          "velocity": 0.5118110236220472
        },
        {
          "duration": 0.16666666666662877,
          "durationTicks": 160,
          "midi": 65,
          "name": "F4",
          "ticks": 544080,
          "time": 464.3446373333334,
          "velocity": 0.5118110236220472
        },
        {
          "duration": 0.16666666666662877,
          "durationTicks": 160,
          "midi": 65,
          "name": "F4",
          "ticks": 544320,
          "time": 464.5946373333334,
          "velocity": 0.5118110236220472
        },
        {
          "duration": 0.49999999999994316,
          "durationTicks": 480,
          "midi": 65,
          "name": "F4",
          "ticks": 544800,
          "time": 465.0946373333334,
          "velocity": 0.6299212598425197
        },
        {
          "duration": 0.22159109375002117,
          "durationTicks": 195,
          "midi": 63,
          "name": "D#4",
          "ticks": 545280,
          "time": 465.59463733333337,
          "velocity": 0.6299212598425197
        },
        {
          "duration": 0.7058819999999741,
          "durationTicks": 480,
          "midi": 65,
          "name": "F4",
          "ticks": 545520,
          "time": 465.86736483333334,
          "velocity": 0.6299212598425197
        },
        {
          "duration": 0.6503414166667199,
          "durationTicks": 315,
          "midi": 63,
          "name": "D#4",
          "ticks": 546000,
          "time": 466.5732468333333,
          "velocity": 0.6299212598425197
        },
        {
          "duration": 1.4875000000000114,
          "durationTicks": 476,
          "midi": 65,
          "name": "F4",
          "ticks": 546240,
          "time": 466.98921325000003,
          "velocity": 0.6299212598425197
        },
        {
          "duration": 1.4958333333333371,
          "durationTicks": 1436,
          "midi": 70,
          "name": "A#4",
          "ticks": 547680,
          "time": 471.48921325000003,
          "velocity": 0.5905511811023622
        },
        {
          "duration": 1.4958333333333371,
          "durationTicks": 1436,
          "midi": 68,
          "name": "G#4",
          "ticks": 549120,
          "time": 472.98921325000003,
          "velocity": 0.5905511811023622
        },
        {
          "duration": 1.4958333333333371,
          "durationTicks": 1436,
          "midi": 67,
          "name": "G4",
          "ticks": 550560,
          "time": 474.48921325000003,
          "velocity": 0.5905511811023622
        },
        {
          "duration": 1.4958333333333371,
          "durationTicks": 1436,
          "midi": 65,
          "name": "F4",
          "ticks": 552000,
          "time": 475.98921325000003,
          "velocity": 0.5905511811023622
        },
        {
          "duration": 1.4958333333333371,
          "durationTicks": 1436,
          "midi": 63,
          "name": "D#4",
          "ticks": 553440,
          "time": 477.48921325000003,
          "velocity": 0.5905511811023622
        },
        {
          "duration": 1.4958333333333371,
          "durationTicks": 1436,
          "midi": 68,
          "name": "G#4",
          "ticks": 554880,
          "time": 478.98921325000003,
          "velocity": 0.5905511811023622
        },
        {
          "duration": 1.4958333333333371,
          "durationTicks": 1436,
          "midi": 67,
          "name": "G4",
          "ticks": 556320,
          "time": 480.48921325000003,
          "velocity": 0.5905511811023622
        },
        {
          "duration": 1.4958333333333371,
          "durationTicks": 1436,
          "midi": 65,
          "name": "F4",
          "ticks": 557760,
          "time": 481.98921325000003,
          "velocity": 0.5905511811023622
        },
        {
          "duration": 0.14655168749999348,
          "durationTicks": 170,
          "midi": 63,
          "name": "D#4",
          "ticks": 559200,
          "time": 483.48921325000003,
          "velocity": 0.6692913385826772
        },
        {
          "duration": 0.14655168749999348,
          "durationTicks": 170,
          "midi": 65,
          "name": "F4",
          "ticks": 559920,
          "time": 484.10990275000006,
          "velocity": 0.6692913385826772
        },
        {
          "duration": 0.14655168749999348,
          "durationTicks": 170,
          "midi": 65,
          "name": "F4",
          "ticks": 560160,
          "time": 484.31679925000003,
          "velocity": 0.6692913385826772
        },
        {
          "duration": 0.14655168749999348,
          "durationTicks": 170,
          "midi": 65,
          "name": "F4",
          "ticks": 560400,
          "time": 484.52369575000006,
          "velocity": 0.6692913385826772
        },
        {
          "duration": 0.20689650000002757,
          "durationTicks": 240,
          "midi": 66,
          "name": "F#4",
          "ticks": 560640,
          "time": 484.73059225000003,
          "velocity": 0.6692913385826772
        },
        {
          "duration": 0.14655168749999348,
          "durationTicks": 170,
          "midi": 67,
          "name": "G4",
          "ticks": 560880,
          "time": 484.93748875000006,
          "velocity": 0.6692913385826772
        },
        {
          "duration": 0.14655168749999348,
          "durationTicks": 170,
          "midi": 63,
          "name": "D#4",
          "ticks": 561120,
          "time": 485.14438525,
          "velocity": 0.6692913385826772
        },
        {
          "duration": 0.05172412499996426,
          "durationTicks": 60,
          "midi": 63,
          "name": "D#4",
          "ticks": 561360,
          "time": 485.35128175000006,
          "velocity": 0.6692913385826772
        },
        {
          "duration": 0.15517237500000647,
          "durationTicks": 180,
          "midi": 62,
          "name": "D4",
          "ticks": 561420,
          "time": 485.403005875,
          "velocity": 0.6692913385826772
        },
        {
          "duration": 0.20689650000002757,
          "durationTicks": 240,
          "midi": 60,
          "name": "C4",
          "ticks": 561600,
          "time": 485.55817825,
          "velocity": 0.6692913385826772
        },
        {
          "duration": 0.16551719999995385,
          "durationTicks": 192,
          "midi": 62,
          "name": "D4",
          "ticks": 561840,
          "time": 485.76507475000005,
          "velocity": 0.6692913385826772
        },
        {
          "duration": 0.14655168749999348,
          "durationTicks": 170,
          "midi": 63,
          "name": "D#4",
          "ticks": 562080,
          "time": 485.97197125,
          "velocity": 0.6692913385826772
        },
        {
          "duration": 0.14655168749999348,
          "durationTicks": 170,
          "midi": 63,
          "name": "D#4",
          "ticks": 562560,
          "time": 486.38576425,
          "velocity": 0.6692913385826772
        },
        {
          "duration": 0.14655168749999348,
          "durationTicks": 170,
          "midi": 65,
          "name": "F4",
          "ticks": 562800,
          "time": 486.59266075000005,
          "velocity": 0.6692913385826772
        },
        {
          "duration": 0.14655168749999348,
          "durationTicks": 170,
          "midi": 65,
          "name": "F4",
          "ticks": 563040,
          "time": 486.79955725,
          "velocity": 0.6692913385826772
        },
        {
          "duration": 0.14655168749999348,
          "durationTicks": 170,
          "midi": 65,
          "name": "F4",
          "ticks": 563280,
          "time": 487.00645375000005,
          "velocity": 0.6692913385826772
        },
        {
          "duration": 0.20689650000002757,
          "durationTicks": 240,
          "midi": 66,
          "name": "F#4",
          "ticks": 563520,
          "time": 487.21335025,
          "velocity": 0.6692913385826772
        },
        {
          "duration": 0.14655168749999348,
          "durationTicks": 170,
          "midi": 67,
          "name": "G4",
          "ticks": 563760,
          "time": 487.42024675000005,
          "velocity": 0.6692913385826772
        },
        {
          "duration": 0.14655168749999348,
          "durationTicks": 170,
          "midi": 63,
          "name": "D#4",
          "ticks": 564000,
          "time": 487.62714325,
          "velocity": 0.6692913385826772
        },
        {
          "duration": 0.20689649999997073,
          "durationTicks": 240,
          "midi": 63,
          "name": "D#4",
          "ticks": 564240,
          "time": 487.83403975000004,
          "velocity": 0.6692913385826772
        },
        {
          "duration": 0.14655168749999348,
          "durationTicks": 170,
          "midi": 65,
          "name": "F4",
          "ticks": 564480,
          "time": 488.04093625,
          "velocity": 0.6692913385826772
        },
        {
          "duration": 0.14655168749999348,
          "durationTicks": 170,
          "midi": 62,
          "name": "D4",
          "ticks": 564720,
          "time": 488.24783275000004,
          "velocity": 0.6692913385826772
        },
        {
          "duration": 0.13793100000003733,
          "durationTicks": 160,
          "midi": 63,
          "name": "D#4",
          "ticks": 564960,
          "time": 488.45472925,
          "velocity": 0.6692913385826772
        }
      ]
    },
    {
      "channel": 0,
      "controlChanges": {},
      "pitchBends": [],
      "instrument": {
        "family": "piano",
        "number": 0,
        "name": "acoustic grand piano"
      },
      "name": "Solo Bassoon",
      "notes": [],
      "endOfTrackTicks": 566400
    },
    {
      "channel": 3,
      "controlChanges": {
        "7": [
          {
            "number": 7,
            "ticks": 0,
            "time": 0,
            "value": 0.905511811023622
          }
        ],
        "10": [
          {
            "number": 10,
            "ticks": 0,
            "time": 0,
            "value": 0.4330708661417323
          }
        ],
        "91": [
          {
            "number": 91,
            "ticks": 0,
            "time": 0,
            "value": 0.7086614173228346
          }
        ]
      },
      "pitchBends": [],
      "instrument": {
        "family": "reed",
        "number": 70,
        "name": "bassoon"
      },
      "name": "",
      "notes": [
        {
          "duration": 0.1209674999999999,
          "durationTicks": 150,
          "midi": 51,
          "name": "D#3",
          "ticks": 1920,
          "time": 1.548384,
          "velocity": 0.5905511811023622
        },
        {
          "duration": 0.1209674999999999,
          "durationTicks": 150,
          "midi": 58,
          "name": "A#3",
          "ticks": 2160,
          "time": 1.741932,
          "velocity": 0.5905511811023622
        },
        {
          "duration": 0.1209674999999999,
          "durationTicks": 150,
          "midi": 55,
          "name": "G3",
          "ticks": 2400,
          "time": 1.93548,
          "velocity": 0.5905511811023622
        },
        {
          "duration": 0.1209674999999999,
          "durationTicks": 150,
          "midi": 58,
          "name": "A#3",
          "ticks": 2640,
          "time": 2.129028,
          "velocity": 0.5905511811023622
        },
        {
          "duration": 0.12096750000000034,
          "durationTicks": 150,
          "midi": 51,
          "name": "D#3",
          "ticks": 2880,
          "time": 2.3225759999999998,
          "velocity": 0.5905511811023622
        },
        {
          "duration": 0.1209674999999999,
          "durationTicks": 150,
          "midi": 58,
          "name": "A#3",
          "ticks": 3120,
          "time": 2.516124,
          "velocity": 0.5905511811023622
        },
        {
          "duration": 0.1209674999999999,
          "durationTicks": 150,
          "midi": 55,
          "name": "G3",
          "ticks": 3360,
          "time": 2.709672,
          "velocity": 0.5905511811023622
        },
        {
          "duration": 0.1209674999999999,
          "durationTicks": 150,
          "midi": 58,
          "name": "A#3",
          "ticks": 3600,
          "time": 2.90322,
          "velocity": 0.5905511811023622
        },
        {
          "duration": 0.1209674999999999,
          "durationTicks": 150,
          "midi": 50,
          "name": "D3",
          "ticks": 3840,
          "time": 3.096768,
          "velocity": 0.5905511811023622
        },
        {
          "duration": 0.12096750000000034,
          "durationTicks": 150,
          "midi": 58,
          "name": "A#3",
          "ticks": 4080,
          "time": 3.290316,
          "velocity": 0.5905511811023622
        },
        {
          "duration": 0.1209674999999999,
          "durationTicks": 150,
          "midi": 53,
          "name": "F3",
          "ticks": 4320,
          "time": 3.483864,
          "velocity": 0.5905511811023622
        },
        {
          "duration": 0.1209674999999999,
          "durationTicks": 150,
          "midi": 58,
          "name": "A#3",
          "ticks": 4560,
          "time": 3.677412,
          "velocity": 0.5905511811023622
        },
        {
          "duration": 0.1209674999999999,
          "durationTicks": 150,
          "midi": 50,
          "name": "D3",
          "ticks": 4800,
          "time": 3.87096,
          "velocity": 0.5905511811023622
        },
        {
          "duration": 0.1209674999999999,
          "durationTicks": 150,
          "midi": 58,
          "name": "A#3",
          "ticks": 5040,
          "time": 4.064508,
          "velocity": 0.5905511811023622
        },
        {
          "duration": 0.1209674999999999,
          "durationTicks": 150,
          "midi": 53,
          "name": "F3",
          "ticks": 5280,
          "time": 4.258056,
          "velocity": 0.5905511811023622
        },
        {
          "duration": 0.1209674999999999,
          "durationTicks": 150,
          "midi": 58,
          "name": "A#3",
          "ticks": 5520,
          "time": 4.451604,
          "velocity": 0.5905511811023622
        },
        {
          "duration": 0.12096750000000078,
          "durationTicks": 150,
          "midi": 51,
          "name": "D#3",
          "ticks": 5760,
          "time": 4.6451519999999995,
          "velocity": 0.5905511811023622
        },
        {
          "duration": 0.1209674999999999,
          "durationTicks": 150,
          "midi": 58,
          "name": "A#3",
          "ticks": 6000,
          "time": 4.8387,
          "velocity": 0.5905511811023622
        },
        {
          "duration": 0.1209674999999999,
          "durationTicks": 150,
          "midi": 55,
          "name": "G3",
          "ticks": 6240,
          "time": 5.032248,
          "velocity": 0.5905511811023622
        },
        {
          "duration": 0.1209674999999999,
          "durationTicks": 150,
          "midi": 58,
          "name": "A#3",
          "ticks": 6480,
          "time": 5.225796,
          "velocity": 0.5905511811023622
        },
        {
          "duration": 0.1209674999999999,
          "durationTicks": 150,
          "midi": 44,
          "name": "G#2",
          "ticks": 6720,
          "time": 5.419344,
          "velocity": 0.5905511811023622
        },
        {
          "duration": 0.12096750000000078,
          "durationTicks": 150,
          "midi": 53,
          "name": "F3",
          "ticks": 6960,
          "time": 5.6128919999999995,
          "velocity": 0.5905511811023622
        },
        {
          "duration": 0.1209674999999999,
          "durationTicks": 150,
          "midi": 48,
          "name": "C3",
          "ticks": 7200,
          "time": 5.80644,
          "velocity": 0.5905511811023622
        },
        {
          "duration": 0.1209674999999999,
          "durationTicks": 150,
          "midi": 53,
          "name": "F3",
          "ticks": 7440,
          "time": 5.999988,
          "velocity": 0.5905511811023622
        },
        {
          "duration": 0.1209674999999999,
          "durationTicks": 150,
          "midi": 46,
          "name": "A#2",
          "ticks": 7680,
          "time": 6.193536,
          "velocity": 0.5905511811023622
        },
        {
          "duration": 0.1209674999999999,
          "durationTicks": 150,
          "midi": 53,
          "name": "F3",
          "ticks": 7920,
          "time": 6.387084,
          "velocity": 0.5905511811023622
        },
        {
          "duration": 0.1209674999999999,
          "durationTicks": 150,
          "midi": 50,
          "name": "D3",
          "ticks": 8160,
          "time": 6.580632,
          "velocity": 0.5905511811023622
        },
        {
          "duration": 0.1209674999999999,
          "durationTicks": 150,
          "midi": 53,
          "name": "F3",
          "ticks": 8400,
          "time": 6.77418,
          "velocity": 0.5905511811023622
        },
        {
          "duration": 0.1209674999999999,
          "durationTicks": 150,
          "midi": 46,
          "name": "A#2",
          "ticks": 8640,
          "time": 6.967728,
          "velocity": 0.5905511811023622
        },
        {
          "duration": 0.1209674999999999,
          "durationTicks": 150,
          "midi": 58,
          "name": "A#3",
          "ticks": 9600,
          "time": 7.74192,
          "velocity": 0.5905511811023622
        },
        {
          "duration": 0.120967499999999,
          "durationTicks": 150,
          "midi": 60,
          "name": "C4",
          "ticks": 9840,
          "time": 7.935468,
          "velocity": 0.5905511811023622
        },
        {
          "duration": 0.120967499999999,
          "durationTicks": 150,
          "midi": 55,
          "name": "G3",
          "ticks": 10080,
          "time": 8.129016,
          "velocity": 0.5905511811023622
        },
        {
          "duration": 0.12096750000000078,
          "durationTicks": 150,
          "midi": 60,
          "name": "C4",
          "ticks": 10320,
          "time": 8.322564,
          "velocity": 0.5905511811023622
        },
        {
          "duration": 0.12096750000000078,
          "durationTicks": 150,
          "midi": 56,
          "name": "G#3",
          "ticks": 10560,
          "time": 8.516112,
          "velocity": 0.5905511811023622
        },
        {
          "duration": 0.12096750000000078,
          "durationTicks": 150,
          "midi": 60,
          "name": "C4",
          "ticks": 10800,
          "time": 8.70966,
          "velocity": 0.5905511811023622
        },
        {
          "duration": 0.12096750000000078,
          "durationTicks": 150,
          "midi": 53,
          "name": "F3",
          "ticks": 11040,
          "time": 8.903208,
          "velocity": 0.5905511811023622
        },
        {
          "duration": 0.12096750000000078,
          "durationTicks": 150,
          "midi": 60,
          "name": "C4",
          "ticks": 11280,
          "time": 9.096756,
          "velocity": 0.5905511811023622
        },
        {
          "duration": 0.12096750000000078,
          "durationTicks": 150,
          "midi": 56,
          "name": "G#3",
          "ticks": 11520,
          "time": 9.290303999999999,
          "velocity": 0.5905511811023622
        },
        {
          "duration": 0.120967499999999,
          "durationTicks": 150,
          "midi": 58,
          "name": "A#3",
          "ticks": 11760,
          "time": 9.483852,
          "velocity": 0.5905511811023622
        },
        {
          "duration": 0.120967499999999,
          "durationTicks": 150,
          "midi": 53,
          "name": "F3",
          "ticks": 12000,
          "time": 9.6774,
          "velocity": 0.5905511811023622
        },
        {
          "duration": 0.120967499999999,
          "durationTicks": 150,
          "midi": 58,
          "name": "A#3",
          "ticks": 12240,
          "time": 9.870948,
          "velocity": 0.5905511811023622
        },
        {
          "duration": 0.120967499999999,
          "durationTicks": 150,
          "midi": 55,
          "name": "G3",
          "ticks": 12480,
          "time": 10.064496,
          "velocity": 0.5905511811023622
        },
        {
          "duration": 0.12096750000000078,
          "durationTicks": 150,
          "midi": 58,
          "name": "A#3",
          "ticks": 12720,
          "time": 10.258044,
          "velocity": 0.5905511811023622
        },
        {
          "duration": 0.12096750000000078,
          "durationTicks": 150,
          "midi": 51,
          "name": "D#3",
          "ticks": 12960,
          "time": 10.451592,
          "velocity": 0.5905511811023622
        },
        {
          "duration": 0.12096750000000078,
          "durationTicks": 150,
          "midi": 58,
          "name": "A#3",
          "ticks": 13200,
          "time": 10.64514,
          "velocity": 0.5905511811023622
        },
        {
          "duration": 0.12096750000000078,
          "durationTicks": 150,
          "midi": 56,
          "name": "G#3",
          "ticks": 13440,
          "time": 10.838688,
          "velocity": 0.5905511811023622
        },
        {
          "duration": 0.12096750000000078,
          "durationTicks": 150,
          "midi": 65,
          "name": "F4",
          "ticks": 13680,
          "time": 11.032236,
          "velocity": 0.5905511811023622
        },
        {
          "duration": 0.12096750000000078,
          "durationTicks": 150,
          "midi": 60,
          "name": "C4",
          "ticks": 13920,
          "time": 11.225783999999999,
          "velocity": 0.5905511811023622
        },
        {
          "duration": 0.120967499999999,
          "durationTicks": 150,
          "midi": 65,
          "name": "F4",
          "ticks": 14160,
          "time": 11.419332,
          "velocity": 0.5905511811023622
        },
        {
          "duration": 0.120967499999999,
          "durationTicks": 150,
          "midi": 58,
          "name": "A#3",
          "ticks": 14400,
          "time": 11.61288,
          "velocity": 0.5905511811023622
        },
        {
          "duration": 0.120967499999999,
          "durationTicks": 150,
          "midi": 65,
          "name": "F4",
          "ticks": 14640,
          "time": 11.806428,
          "velocity": 0.5905511811023622
        },
        {
          "duration": 0.120967499999999,
          "durationTicks": 150,
          "midi": 62,
          "name": "D4",
          "ticks": 14880,
          "time": 11.999976,
          "velocity": 0.5905511811023622
        },
        {
          "duration": 0.120967499999999,
          "durationTicks": 150,
          "midi": 65,
          "name": "F4",
          "ticks": 15120,
          "time": 12.193524,
          "velocity": 0.5905511811023622
        },
        {
          "duration": 0.12096750000000078,
          "durationTicks": 150,
          "midi": 63,
          "name": "D#4",
          "ticks": 15360,
          "time": 12.387072,
          "velocity": 0.5905511811023622
        },
        {
          "duration": 0.12096750000000078,
          "durationTicks": 150,
          "midi": 58,
          "name": "A#3",
          "ticks": 15600,
          "time": 12.58062,
          "velocity": 0.5905511811023622
        },
        {
          "duration": 0.12096750000000078,
          "durationTicks": 150,
          "midi": 55,
          "name": "G3",
          "ticks": 15840,
          "time": 12.774168,
          "velocity": 0.5905511811023622
        },
        {
          "duration": 0.12096750000000078,
          "durationTicks": 150,
          "midi": 58,
          "name": "A#3",
          "ticks": 16080,
          "time": 12.967716,
          "velocity": 0.5905511811023622
        },
        {
          "duration": 0.12096750000000078,
          "durationTicks": 150,
          "midi": 51,
          "name": "D#3",
          "ticks": 16320,
          "time": 13.161264,
          "velocity": 0.5905511811023622
        },
        {
          "duration": 0.19354799999999983,
          "durationTicks": 240,
          "midi": 43,
          "name": "G2",
          "ticks": 17280,
          "time": 13.935456,
          "velocity": 0.5511811023622047
        },
        {
          "duration": 0.19354799999999983,
          "durationTicks": 240,
          "midi": 47,
          "name": "B2",
          "ticks": 17520,
          "time": 14.129004,
          "velocity": 0.5511811023622047
        },
        {
          "duration": 0.19354799999999983,
          "durationTicks": 240,
          "midi": 50,
          "name": "D3",
          "ticks": 17760,
          "time": 14.322552,
          "velocity": 0.5511811023622047
        },
        {
          "duration": 0.19354799999999983,
          "durationTicks": 240,
          "midi": 55,
          "name": "G3",
          "ticks": 18000,
          "time": 14.5161,
          "velocity": 0.5511811023622047
        },
        {
          "duration": 0.19354799999999983,
          "durationTicks": 240,
          "midi": 59,
          "name": "B3",
          "ticks": 18240,
          "time": 14.709648,
          "velocity": 0.5511811023622047
        },
        {
          "duration": 0.19354799999999983,
          "durationTicks": 240,
          "midi": 62,
          "name": "D4",
          "ticks": 18480,
          "time": 14.903196,
          "velocity": 0.5511811023622047
        },
        {
          "duration": 0.19354799999999983,
          "durationTicks": 240,
          "midi": 67,
          "name": "G4",
          "ticks": 18720,
          "time": 15.096744,
          "velocity": 0.5511811023622047
        },
        {
          "duration": 0.1935480000000016,
          "durationTicks": 240,
          "midi": 65,
          "name": "F4",
          "ticks": 18960,
          "time": 15.290291999999999,
          "velocity": 0.5511811023622047
        },
        {
          "duration": 0.12903200000000048,
          "durationTicks": 160,
          "midi": 63,
          "name": "D#4",
          "ticks": 19200,
          "time": 15.48384,
          "velocity": 0.5511811023622047
        },
        {
          "duration": 0.12903200000000048,
          "durationTicks": 160,
          "midi": 63,
          "name": "D#4",
          "ticks": 19680,
          "time": 15.870936,
          "velocity": 0.5511811023622047
        },
        {
          "duration": 0.12903200000000226,
          "durationTicks": 160,
          "midi": 63,
          "name": "D#4",
          "ticks": 20160,
          "time": 16.258032,
          "velocity": 0.5511811023622047
        },
        {
          "duration": 0.19354799999999983,
          "durationTicks": 240,
          "midi": 41,
          "name": "F2",
          "ticks": 21120,
          "time": 17.032224,
          "velocity": 0.5905511811023622
        },
        {
          "duration": 0.19354799999999983,
          "durationTicks": 240,
          "midi": 45,
          "name": "A2",
          "ticks": 21360,
          "time": 17.225772,
          "velocity": 0.5905511811023622
        },
        {
          "duration": 0.19354799999999983,
          "durationTicks": 240,
          "midi": 48,
          "name": "C3",
          "ticks": 21600,
          "time": 17.41932,
          "velocity": 0.5905511811023622
        },
        {
          "duration": 0.19354799999999983,
          "durationTicks": 240,
          "midi": 53,
          "name": "F3",
          "ticks": 21840,
          "time": 17.612868,
          "velocity": 0.5905511811023622
        },
        {
          "duration": 0.19354799999999983,
          "durationTicks": 240,
          "midi": 57,
          "name": "A3",
          "ticks": 22080,
          "time": 17.806416,
          "velocity": 0.5905511811023622
        },
        {
          "duration": 0.19354799999999983,
          "durationTicks": 240,
          "midi": 60,
          "name": "C4",
          "ticks": 22320,
          "time": 17.999964,
          "velocity": 0.5905511811023622
        },
        {
          "duration": 0.19354799999999983,
          "durationTicks": 240,
          "midi": 65,
          "name": "F4",
          "ticks": 22560,
          "time": 18.193512,
          "velocity": 0.5905511811023622
        },
        {
          "duration": 0.19354799999999983,
          "durationTicks": 240,
          "midi": 63,
          "name": "D#4",
          "ticks": 22800,
          "time": 18.387059999999998,
          "velocity": 0.5905511811023622
        },
        {
          "duration": 0.12903200000000226,
          "durationTicks": 160,
          "midi": 62,
          "name": "D4",
          "ticks": 23040,
          "time": 18.580607999999998,
          "velocity": 0.5905511811023622
        },
        {
          "duration": 0.1290319999999987,
          "durationTicks": 160,
          "midi": 62,
          "name": "D4",
          "ticks": 23520,
          "time": 18.967704,
          "velocity": 0.5905511811023622
        },
        {
          "duration": 0.1290319999999987,
          "durationTicks": 160,
          "midi": 62,
          "name": "D4",
          "ticks": 24000,
          "time": 19.3548,
          "velocity": 0.5905511811023622
        },
        {
          "duration": 0.120967499999999,
          "durationTicks": 150,
          "midi": 58,
          "name": "A#3",
          "ticks": 24960,
          "time": 20.128992,
          "velocity": 0.5905511811023622
        },
        {
          "duration": 0.120967499999999,
          "durationTicks": 150,
          "midi": 60,
          "name": "C4",
          "ticks": 25200,
          "time": 20.32254,
          "velocity": 0.5905511811023622
        },
        {
          "duration": 0.120967499999999,
          "durationTicks": 150,
          "midi": 55,
          "name": "G3",
          "ticks": 25440,
          "time": 20.516088,
          "velocity": 0.5905511811023622
        },
        {
          "duration": 0.120967499999999,
          "durationTicks": 150,
          "midi": 60,
          "name": "C4",
          "ticks": 25680,
          "time": 20.709636,
          "velocity": 0.5905511811023622
        },
        {
          "duration": 0.120967499999999,
          "durationTicks": 150,
          "midi": 56,
          "name": "G#3",
          "ticks": 25920,
          "time": 20.903184,
          "velocity": 0.5905511811023622
        },
        {
          "duration": 0.120967499999999,
          "durationTicks": 150,
          "midi": 60,
          "name": "C4",
          "ticks": 26160,
          "time": 21.096732,
          "velocity": 0.5905511811023622
        },
        {
          "duration": 0.120967499999999,
          "durationTicks": 150,
          "midi": 53,
          "name": "F3",
          "ticks": 26400,
          "time": 21.29028,
          "velocity": 0.5905511811023622
        },
        {
          "duration": 0.120967499999999,
          "durationTicks": 150,
          "midi": 60,
          "name": "C4",
          "ticks": 26640,
          "time": 21.483828,
          "velocity": 0.5905511811023622
        },
        {
          "duration": 0.12096750000000256,
          "durationTicks": 150,
          "midi": 56,
          "name": "G#3",
          "ticks": 26880,
          "time": 21.677376,
          "velocity": 0.5905511811023622
        },
        {
          "duration": 0.12096750000000256,
          "durationTicks": 150,
          "midi": 58,
          "name": "A#3",
          "ticks": 27120,
          "time": 21.870924,
          "velocity": 0.5905511811023622
        },
        {
          "duration": 0.12096750000000256,
          "durationTicks": 150,
          "midi": 53,
          "name": "F3",
          "ticks": 27360,
          "time": 22.064472,
          "velocity": 0.5905511811023622
        },
        {
          "duration": 0.12096750000000256,
          "durationTicks": 150,
          "midi": 58,
          "name": "A#3",
          "ticks": 27600,
          "time": 22.25802,
          "velocity": 0.5905511811023622
        },
        {
          "duration": 0.12096750000000256,
          "durationTicks": 150,
          "midi": 55,
          "name": "G3",
          "ticks": 27840,
          "time": 22.451567999999998,
          "velocity": 0.5905511811023622
        },
        {
          "duration": 0.12096750000000256,
          "durationTicks": 150,
          "midi": 58,
          "name": "A#3",
          "ticks": 28080,
          "time": 22.645115999999998,
          "velocity": 0.5905511811023622
        },
        {
          "duration": 0.120967499999999,
          "durationTicks": 150,
          "midi": 51,
          "name": "D#3",
          "ticks": 28320,
          "time": 22.838664,
          "velocity": 0.5905511811023622
        },
        {
          "duration": 0.120967499999999,
          "durationTicks": 150,
          "midi": 58,
          "name": "A#3",
          "ticks": 28560,
          "time": 23.032212,
          "velocity": 0.5905511811023622
        },
        {
          "duration": 0.120967499999999,
          "durationTicks": 150,
          "midi": 56,
          "name": "G#3",
          "ticks": 28800,
          "time": 23.22576,
          "velocity": 0.5905511811023622
        },
        {
          "duration": 0.120967499999999,
          "durationTicks": 150,
          "midi": 65,
          "name": "F4",
          "ticks": 29040,
          "time": 23.419308,
          "velocity": 0.5905511811023622
        },
        {
          "duration": 0.120967499999999,
          "durationTicks": 150,
          "midi": 60,
          "name": "C4",
          "ticks": 29280,
          "time": 23.612856,
          "velocity": 0.5905511811023622
        },
        {
          "duration": 0.120967499999999,
          "durationTicks": 150,
          "midi": 65,
          "name": "F4",
          "ticks": 29520,
          "time": 23.806404,
          "velocity": 0.5905511811023622
        },
        {
          "duration": 0.120967499999999,
          "durationTicks": 150,
          "midi": 58,
          "name": "A#3",
          "ticks": 29760,
          "time": 23.999952,
          "velocity": 0.5905511811023622
        },
        {
          "duration": 0.120967499999999,
          "durationTicks": 150,
          "midi": 65,
          "name": "F4",
          "ticks": 30000,
          "time": 24.1935,
          "velocity": 0.5905511811023622
        },
        {
          "duration": 0.120967499999999,
          "durationTicks": 150,
          "midi": 62,
          "name": "D4",
          "ticks": 30240,
          "time": 24.387048,
          "velocity": 0.5905511811023622
        },
        {
          "duration": 0.120967499999999,
          "durationTicks": 150,
          "midi": 65,
          "name": "F4",
          "ticks": 30480,
          "time": 24.580596,
          "velocity": 0.5905511811023622
        },
        {
          "duration": 0.120967499999999,
          "durationTicks": 150,
          "midi": 63,
          "name": "D#4",
          "ticks": 30720,
          "time": 24.774144,
          "velocity": 0.5905511811023622
        },
        {
          "duration": 0.120967499999999,
          "durationTicks": 150,
          "midi": 58,
          "name": "A#3",
          "ticks": 30960,
          "time": 24.967692,
          "velocity": 0.5905511811023622
        },
        {
          "duration": 0.120967499999999,
          "durationTicks": 150,
          "midi": 55,
          "name": "G3",
          "ticks": 31200,
          "time": 25.16124,
          "velocity": 0.5905511811023622
        },
        {
          "duration": 0.120967499999999,
          "durationTicks": 150,
          "midi": 58,
          "name": "A#3",
          "ticks": 31440,
          "time": 25.354788,
          "velocity": 0.5905511811023622
        },
        {
          "duration": 0.120967499999999,
          "durationTicks": 150,
          "midi": 51,
          "name": "D#3",
          "ticks": 31680,
          "time": 25.548336,
          "velocity": 0.5905511811023622
        },
        {
          "duration": 0.22580599999999862,
          "durationTicks": 280,
          "midi": 62,
          "name": "D4",
          "ticks": 51360,
          "time": 41.419272,
          "velocity": 0.47244094488188976
        },
        {
          "duration": 0.22580599999999862,
          "durationTicks": 280,
          "midi": 63,
          "name": "D#4",
          "ticks": 51840,
          "time": 41.806368,
          "velocity": 0.47244094488188976
        },
        {
          "duration": 0.22580599999999862,
          "durationTicks": 280,
          "midi": 63,
          "name": "D#4",
          "ticks": 52320,
          "time": 42.193464,
          "velocity": 0.47244094488188976
        },
        {
          "duration": 0.22580599999999862,
          "durationTicks": 280,
          "midi": 65,
          "name": "F4",
          "ticks": 52800,
          "time": 42.58056,
          "velocity": 0.47244094488188976
        },
        {
          "duration": 0.22580599999999862,
          "durationTicks": 280,
          "midi": 65,
          "name": "F4",
          "ticks": 53280,
          "time": 42.967656,
          "velocity": 0.47244094488188976
        },
        {
          "duration": 0.7741919999999993,
          "durationTicks": 960,
          "midi": 63,
          "name": "D#4",
          "ticks": 53760,
          "time": 43.354752,
          "velocity": 0.47244094488188976
        },
        {
          "duration": 0.22580599999999862,
          "durationTicks": 280,
          "midi": 62,
          "name": "D4",
          "ticks": 54720,
          "time": 44.128944,
          "velocity": 0.47244094488188976
        },
        {
          "duration": 0.22580599999999862,
          "durationTicks": 280,
          "midi": 60,
          "name": "C4",
          "ticks": 59520,
          "time": 47.999904,
          "velocity": 0.47244094488188976
        },
        {
          "duration": 0.22580599999999862,
          "durationTicks": 280,
          "midi": 60,
          "name": "C4",
          "ticks": 60000,
          "time": 48.387,
          "velocity": 0.47244094488188976
        },
        {
          "duration": 0.22580599999999862,
          "durationTicks": 280,
          "midi": 56,
          "name": "G#3",
          "ticks": 60480,
          "time": 48.774096,
          "velocity": 0.47244094488188976
        },
        {
          "duration": 0.22580599999999862,
          "durationTicks": 280,
          "midi": 56,
          "name": "G#3",
          "ticks": 60960,
          "time": 49.161192,
          "velocity": 0.47244094488188976
        },
        {
          "duration": 0.7741919999999993,
          "durationTicks": 960,
          "midi": 56,
          "name": "G#3",
          "ticks": 61440,
          "time": 49.548288,
          "velocity": 0.47244094488188976
        },
        {
          "duration": 0.12903200000000226,
          "durationTicks": 160,
          "midi": 55,
          "name": "G3",
          "ticks": 62400,
          "time": 50.32248,
          "velocity": 0.47244094488188976
        },
        {
          "duration": 0.22580600000000572,
          "durationTicks": 280,
          "midi": 59,
          "name": "B3",
          "ticks": 63360,
          "time": 51.096672,
          "velocity": 0.5118110236220472
        },
        {
          "duration": 0.22580600000000572,
          "durationTicks": 280,
          "midi": 59,
          "name": "B3",
          "ticks": 63840,
          "time": 51.483768,
          "velocity": 0.5118110236220472
        },
        {
          "duration": 0.19354799999999983,
          "durationTicks": 240,
          "midi": 59,
          "name": "B3",
          "ticks": 64320,
          "time": 51.870864,
          "velocity": 0.5118110236220472
        },
        {
          "duration": 0.19354799999999983,
          "durationTicks": 240,
          "midi": 60,
          "name": "C4",
          "ticks": 64560,
          "time": 52.064412,
          "velocity": 0.5118110236220472
        },
        {
          "duration": 0.19354799999999983,
          "durationTicks": 240,
          "midi": 62,
          "name": "D4",
          "ticks": 64800,
          "time": 52.25796,
          "velocity": 0.5118110236220472
        },
        {
          "duration": 0.17741900000000754,
          "durationTicks": 220,
          "midi": 59,
          "name": "B3",
          "ticks": 65040,
          "time": 52.451508,
          "velocity": 0.5118110236220472
        },
        {
          "duration": 0.22580600000000572,
          "durationTicks": 280,
          "midi": 60,
          "name": "C4",
          "ticks": 65280,
          "time": 52.645056,
          "velocity": 0.5118110236220472
        },
        {
          "duration": 0.22580600000000572,
          "durationTicks": 280,
          "midi": 62,
          "name": "D4",
          "ticks": 65760,
          "time": 53.032151999999996,
          "velocity": 0.5118110236220472
        },
        {
          "duration": 0.19032220000000422,
          "durationTicks": 236,
          "midi": 63,
          "name": "D#4",
          "ticks": 66240,
          "time": 53.419247999999996,
          "velocity": 0.5118110236220472
        },
        {
          "duration": 0.19032220000000422,
          "durationTicks": 236,
          "midi": 62,
          "name": "D4",
          "ticks": 66480,
          "time": 53.612795999999996,
          "velocity": 0.5118110236220472
        },
        {
          "duration": 0.1903221999999971,
          "durationTicks": 236,
          "midi": 60,
          "name": "C4",
          "ticks": 66720,
          "time": 53.806344,
          "velocity": 0.5118110236220472
        },
        {
          "duration": 0.1903221999999971,
          "durationTicks": 236,
          "midi": 58,
          "name": "A#3",
          "ticks": 66960,
          "time": 53.999892,
          "velocity": 0.5118110236220472
        },
        {
          "duration": 0.22580599999999862,
          "durationTicks": 280,
          "midi": 57,
          "name": "A3",
          "ticks": 67200,
          "time": 54.19344,
          "velocity": 0.5118110236220472
        },
        {
          "duration": 0.22580599999999862,
          "durationTicks": 280,
          "midi": 57,
          "name": "A3",
          "ticks": 67680,
          "time": 54.580536,
          "velocity": 0.5118110236220472
        },
        {
          "duration": 0.19354799999999983,
          "durationTicks": 240,
          "midi": 57,
          "name": "A3",
          "ticks": 68160,
          "time": 54.967632,
          "velocity": 0.5118110236220472
        },
        {
          "duration": 0.19354799999999983,
          "durationTicks": 240,
          "midi": 58,
          "name": "A#3",
          "ticks": 68400,
          "time": 55.16118,
          "velocity": 0.5118110236220472
        },
        {
          "duration": 0.19354799999999983,
          "durationTicks": 240,
          "midi": 60,
          "name": "C4",
          "ticks": 68640,
          "time": 55.354728,
          "velocity": 0.5118110236220472
        },
        {
          "duration": 0.17741900000000044,
          "durationTicks": 220,
          "midi": 57,
          "name": "A3",
          "ticks": 68880,
          "time": 55.548276,
          "velocity": 0.5118110236220472
        },
        {
          "duration": 0.22580599999999862,
          "durationTicks": 280,
          "midi": 58,
          "name": "A#3",
          "ticks": 69120,
          "time": 55.741824,
          "velocity": 0.5118110236220472
        },
        {
          "duration": 0.22580600000000572,
          "durationTicks": 280,
          "midi": 60,
          "name": "C4",
          "ticks": 69600,
          "time": 56.12892,
          "velocity": 0.5118110236220472
        },
        {
          "duration": 0.22580600000000572,
          "durationTicks": 280,
          "midi": 62,
          "name": "D4",
          "ticks": 70080,
          "time": 56.516016,
          "velocity": 0.5118110236220472
        },
        {
          "duration": 0.22580600000000572,
          "durationTicks": 280,
          "midi": 60,
          "name": "C4",
          "ticks": 74880,
          "time": 60.386976,
          "velocity": 0.47244094488188976
        },
        {
          "duration": 0.22580600000000572,
          "durationTicks": 280,
          "midi": 60,
          "name": "C4",
          "ticks": 75360,
          "time": 60.774072,
          "velocity": 0.47244094488188976
        },
        {
          "duration": 0.22580600000000572,
          "durationTicks": 280,
          "midi": 56,
          "name": "G#3",
          "ticks": 75840,
          "time": 61.161167999999996,
          "velocity": 0.47244094488188976
        },
        {
          "duration": 0.22580600000000572,
          "durationTicks": 280,
          "midi": 56,
          "name": "G#3",
          "ticks": 76320,
          "time": 61.548263999999996,
          "velocity": 0.47244094488188976
        },
        {
          "duration": 0.7741919999999993,
          "durationTicks": 960,
          "midi": 56,
          "name": "G#3",
          "ticks": 76800,
          "time": 61.93536,
          "velocity": 0.47244094488188976
        },
        {
          "duration": 0.12903200000000226,
          "durationTicks": 160,
          "midi": 55,
          "name": "G3",
          "ticks": 77760,
          "time": 62.709552,
          "velocity": 0.47244094488188976
        },
        {
          "duration": 0.23387049999999476,
          "durationTicks": 290,
          "midi": 58,
          "name": "A#3",
          "ticks": 93600,
          "time": 75.48372,
          "velocity": 0.5511811023622047
        },
        {
          "duration": 0.38709599999999966,
          "durationTicks": 480,
          "midi": 58,
          "name": "A#3",
          "ticks": 94080,
          "time": 75.870816,
          "velocity": 0.5511811023622047
        },
        {
          "duration": 0.19354799999999273,
          "durationTicks": 240,
          "midi": 60,
          "name": "C4",
          "ticks": 94560,
          "time": 76.257912,
          "velocity": 0.5511811023622047
        },
        {
          "duration": 0.19354800000000694,
          "durationTicks": 240,
          "midi": 62,
          "name": "D4",
          "ticks": 94800,
          "time": 76.45146,
          "velocity": 0.5511811023622047
        },
        {
          "duration": 0.19354799999999273,
          "durationTicks": 240,
          "midi": 63,
          "name": "D#4",
          "ticks": 95040,
          "time": 76.645008,
          "velocity": 0.5511811023622047
        },
        {
          "duration": 0.19354800000000694,
          "durationTicks": 240,
          "midi": 65,
          "name": "F4",
          "ticks": 95280,
          "time": 76.838556,
          "velocity": 0.5511811023622047
        },
        {
          "duration": 0.19354799999999273,
          "durationTicks": 240,
          "midi": 67,
          "name": "G4",
          "ticks": 95520,
          "time": 77.032104,
          "velocity": 0.5511811023622047
        },
        {
          "duration": 0.19354800000000694,
          "durationTicks": 240,
          "midi": 63,
          "name": "D#4",
          "ticks": 95760,
          "time": 77.225652,
          "velocity": 0.5511811023622047
        },
        {
          "duration": 0.19354799999999273,
          "durationTicks": 240,
          "midi": 65,
          "name": "F4",
          "ticks": 96000,
          "time": 77.4192,
          "velocity": 0.5511811023622047
        },
        {
          "duration": 0.19354800000000694,
          "durationTicks": 240,
          "midi": 67,
          "name": "G4",
          "ticks": 96240,
          "time": 77.612748,
          "velocity": 0.5511811023622047
        },
        {
          "duration": 0.19354799999999273,
          "durationTicks": 240,
          "midi": 65,
          "name": "F4",
          "ticks": 96480,
          "time": 77.806296,
          "velocity": 0.5511811023622047
        },
        {
          "duration": 0.19354800000000694,
          "durationTicks": 240,
          "midi": 63,
          "name": "D#4",
          "ticks": 96720,
          "time": 77.999844,
          "velocity": 0.5511811023622047
        },
        {
          "duration": 0.19354799999999273,
          "durationTicks": 240,
          "midi": 62,
          "name": "D4",
          "ticks": 96960,
          "time": 78.193392,
          "velocity": 0.5511811023622047
        },
        {
          "duration": 0.19354800000000694,
          "durationTicks": 240,
          "midi": 60,
          "name": "C4",
          "ticks": 97200,
          "time": 78.38694,
          "velocity": 0.5511811023622047
        },
        {
          "duration": 0.19354799999999273,
          "durationTicks": 240,
          "midi": 62,
          "name": "D4",
          "ticks": 97440,
          "time": 78.580488,
          "velocity": 0.5511811023622047
        },
        {
          "duration": 0.19354800000000694,
          "durationTicks": 240,
          "midi": 58,
          "name": "A#3",
          "ticks": 97680,
          "time": 78.774036,
          "velocity": 0.5511811023622047
        },
        {
          "duration": 0.19354799999999273,
          "durationTicks": 240,
          "midi": 63,
          "name": "D#4",
          "ticks": 97920,
          "time": 78.967584,
          "velocity": 0.5511811023622047
        },
        {
          "duration": 0.19354800000000694,
          "durationTicks": 240,
          "midi": 65,
          "name": "F4",
          "ticks": 98160,
          "time": 79.161132,
          "velocity": 0.5511811023622047
        },
        {
          "duration": 0.19354799999999273,
          "durationTicks": 240,
          "midi": 67,
          "name": "G4",
          "ticks": 98400,
          "time": 79.35468,
          "velocity": 0.5511811023622047
        },
        {
          "duration": 0.19354800000000694,
          "durationTicks": 240,
          "midi": 63,
          "name": "D#4",
          "ticks": 98640,
          "time": 79.548228,
          "velocity": 0.5511811023622047
        },
        {
          "duration": 0.19354799999999273,
          "durationTicks": 240,
          "midi": 60,
          "name": "C4",
          "ticks": 98880,
          "time": 79.741776,
          "velocity": 0.5511811023622047
        },
        {
          "duration": 0.19354800000000694,
          "durationTicks": 240,
          "midi": 62,
          "name": "D4",
          "ticks": 99120,
          "time": 79.935324,
          "velocity": 0.5511811023622047
        },
        {
          "duration": 0.19354799999999273,
          "durationTicks": 240,
          "midi": 63,
          "name": "D#4",
          "ticks": 99360,
          "time": 80.128872,
          "velocity": 0.5511811023622047
        },
        {
          "duration": 0.19354800000000694,
          "durationTicks": 240,
          "midi": 65,
          "name": "F4",
          "ticks": 99600,
          "time": 80.32242,
          "velocity": 0.5511811023622047
        },
        {
          "duration": 0.19354799999999273,
          "durationTicks": 240,
          "midi": 63,
          "name": "D#4",
          "ticks": 99840,
          "time": 80.515968,
          "velocity": 0.5511811023622047
        },
        {
          "duration": 0.19354800000000694,
          "durationTicks": 240,
          "midi": 62,
          "name": "D4",
          "ticks": 100080,
          "time": 80.709516,
          "velocity": 0.5511811023622047
        },
        {
          "duration": 0.19354799999999273,
          "durationTicks": 240,
          "midi": 65,
          "name": "F4",
          "ticks": 100320,
          "time": 80.903064,
          "velocity": 0.5511811023622047
        },
        {
          "duration": 0.19354800000000694,
          "durationTicks": 240,
          "midi": 62,
          "name": "D4",
          "ticks": 100560,
          "time": 81.096612,
          "velocity": 0.5511811023622047
        },
        {
          "duration": 0.12903200000000936,
          "durationTicks": 160,
          "midi": 58,
          "name": "A#3",
          "ticks": 100800,
          "time": 81.29016,
          "velocity": 0.5511811023622047
        },
        {
          "duration": 0.19354800000000694,
          "durationTicks": 240,
          "midi": 48,
          "name": "C3",
          "ticks": 102000,
          "time": 82.25789999999999,
          "velocity": 0.5511811023622047
        },
        {
          "duration": 0.19354800000000694,
          "durationTicks": 240,
          "midi": 52,
          "name": "E3",
          "ticks": 102240,
          "time": 82.451448,
          "velocity": 0.5511811023622047
        },
        {
          "duration": 0.1370964999999842,
          "durationTicks": 170,
          "midi": 55,
          "name": "G3",
          "ticks": 102480,
          "time": 82.644996,
          "velocity": 0.5511811023622047
        },
        {
          "duration": 0.19354799999999273,
          "durationTicks": 240,
          "midi": 53,
          "name": "F3",
          "ticks": 102960,
          "time": 83.032092,
          "velocity": 0.5511811023622047
        },
        {
          "duration": 0.19354800000000694,
          "durationTicks": 240,
          "midi": 57,
          "name": "A3",
          "ticks": 103200,
          "time": 83.22564,
          "velocity": 0.5511811023622047
        },
        {
          "duration": 0.1370964999999842,
          "durationTicks": 170,
          "midi": 60,
          "name": "C4",
          "ticks": 103440,
          "time": 83.419188,
          "velocity": 0.5511811023622047
        },
        {
          "duration": 0.19354799999999273,
          "durationTicks": 240,
          "midi": 46,
          "name": "A#2",
          "ticks": 103920,
          "time": 83.806284,
          "velocity": 0.5511811023622047
        },
        {
          "duration": 0.19354800000000694,
          "durationTicks": 240,
          "midi": 50,
          "name": "D3",
          "ticks": 104160,
          "time": 83.999832,
          "velocity": 0.5511811023622047
        },
        {
          "duration": 0.1370964999999842,
          "durationTicks": 170,
          "midi": 53,
          "name": "F3",
          "ticks": 104400,
          "time": 84.19338,
          "velocity": 0.5511811023622047
        },
        {
          "duration": 0.19354799999999273,
          "durationTicks": 240,
          "midi": 51,
          "name": "D#3",
          "ticks": 104880,
          "time": 84.580476,
          "velocity": 0.5511811023622047
        },
        {
          "duration": 0.19354800000000694,
          "durationTicks": 240,
          "midi": 55,
          "name": "G3",
          "ticks": 105120,
          "time": 84.774024,
          "velocity": 0.5511811023622047
        },
        {
          "duration": 0.19354799999999273,
          "durationTicks": 240,
          "midi": 58,
          "name": "A#3",
          "ticks": 105360,
          "time": 84.967572,
          "velocity": 0.5511811023622047
        },
        {
          "duration": 0.6129020000000054,
          "durationTicks": 760,
          "midi": 56,
          "name": "G#3",
          "ticks": 105600,
          "time": 85.16112,
          "velocity": 0.5511811023622047
        },
        {
          "duration": 0.12903200000000936,
          "durationTicks": 160,
          "midi": 58,
          "name": "A#3",
          "ticks": 107040,
          "time": 86.322408,
          "velocity": 0.5511811023622047
        },
        {
          "duration": 0.12903200000000936,
          "durationTicks": 160,
          "midi": 51,
          "name": "D#3",
          "ticks": 107520,
          "time": 86.709504,
          "velocity": 0.5511811023622047
        },
        {
          "duration": 0.12903200000000936,
          "durationTicks": 160,
          "midi": 51,
          "name": "D#3",
          "ticks": 108000,
          "time": 87.0966,
          "velocity": 0.5511811023622047
        },
        {
          "duration": 0.12903200000000936,
          "durationTicks": 160,
          "midi": 51,
          "name": "D#3",
          "ticks": 108480,
          "time": 87.483696,
          "velocity": 0.5511811023622047
        },
        {
          "duration": 0.19354800000000694,
          "durationTicks": 240,
          "midi": 59,
          "name": "B3",
          "ticks": 109440,
          "time": 88.257888,
          "velocity": 0.5511811023622047
        },
        {
          "duration": 0.19354799999999273,
          "durationTicks": 240,
          "midi": 62,
          "name": "D4",
          "ticks": 109680,
          "time": 88.451436,
          "velocity": 0.5511811023622047
        },
        {
          "duration": 0.12903200000000936,
          "durationTicks": 160,
          "midi": 67,
          "name": "G4",
          "ticks": 109920,
          "time": 88.644984,
          "velocity": 0.5511811023622047
        },
        {
          "duration": 0.12903199999999515,
          "durationTicks": 160,
          "midi": 67,
          "name": "G4",
          "ticks": 110160,
          "time": 88.838532,
          "velocity": 0.5511811023622047
        },
        {
          "duration": 0.19354800000000694,
          "durationTicks": 240,
          "midi": 67,
          "name": "G4",
          "ticks": 110400,
          "time": 89.03208,
          "velocity": 0.5511811023622047
        },
        {
          "duration": 0.19354799999999273,
          "durationTicks": 240,
          "midi": 65,
          "name": "F4",
          "ticks": 110640,
          "time": 89.225628,
          "velocity": 0.5511811023622047
        },
        {
          "duration": 0.19354800000000694,
          "durationTicks": 240,
          "midi": 63,
          "name": "D#4",
          "ticks": 110880,
          "time": 89.419176,
          "velocity": 0.5511811023622047
        },
        {
          "duration": 0.19354799999999273,
          "durationTicks": 240,
          "midi": 62,
          "name": "D4",
          "ticks": 111120,
          "time": 89.612724,
          "velocity": 0.5511811023622047
        },
        {
          "duration": 0.19354800000000694,
          "durationTicks": 240,
          "midi": 65,
          "name": "F4",
          "ticks": 111360,
          "time": 89.80627199999999,
          "velocity": 0.5511811023622047
        },
        {
          "duration": 0.19354799999999273,
          "durationTicks": 240,
          "midi": 63,
          "name": "D#4",
          "ticks": 111600,
          "time": 89.99982,
          "velocity": 0.5511811023622047
        },
        {
          "duration": 0.19354800000000694,
          "durationTicks": 240,
          "midi": 62,
          "name": "D4",
          "ticks": 111840,
          "time": 90.19336799999999,
          "velocity": 0.5511811023622047
        },
        {
          "duration": 0.19354799999999273,
          "durationTicks": 240,
          "midi": 63,
          "name": "D#4",
          "ticks": 112080,
          "time": 90.386916,
          "velocity": 0.5511811023622047
        },
        {
          "duration": 0.12903200000000936,
          "durationTicks": 160,
          "midi": 60,
          "name": "C4",
          "ticks": 112320,
          "time": 90.58046399999999,
          "velocity": 0.5511811023622047
        },
        {
          "duration": 0.19354799999999273,
          "durationTicks": 240,
          "midi": 57,
          "name": "A3",
          "ticks": 113280,
          "time": 91.354656,
          "velocity": 0.5511811023622047
        },
        {
          "duration": 0.19354800000000694,
          "durationTicks": 240,
          "midi": 60,
          "name": "C4",
          "ticks": 113520,
          "time": 91.548204,
          "velocity": 0.5511811023622047
        },
        {
          "duration": 0.12903199999999515,
          "durationTicks": 160,
          "midi": 65,
          "name": "F4",
          "ticks": 113760,
          "time": 91.741752,
          "velocity": 0.5511811023622047
        },
        {
          "duration": 0.12903200000000936,
          "durationTicks": 160,
          "midi": 65,
          "name": "F4",
          "ticks": 114000,
          "time": 91.9353,
          "velocity": 0.5511811023622047
        },
        {
          "duration": 0.19354799999999273,
          "durationTicks": 240,
          "midi": 65,
          "name": "F4",
          "ticks": 114240,
          "time": 92.128848,
          "velocity": 0.5511811023622047
        },
        {
          "duration": 0.19354800000000694,
          "durationTicks": 240,
          "midi": 63,
          "name": "D#4",
          "ticks": 114480,
          "time": 92.322396,
          "velocity": 0.5511811023622047
        },
        {
          "duration": 0.19354799999999273,
          "durationTicks": 240,
          "midi": 62,
          "name": "D4",
          "ticks": 114720,
          "time": 92.515944,
          "velocity": 0.5511811023622047
        },
        {
          "duration": 0.19354800000000694,
          "durationTicks": 240,
          "midi": 60,
          "name": "C4",
          "ticks": 114960,
          "time": 92.709492,
          "velocity": 0.5511811023622047
        },
        {
          "duration": 0.19354799999999273,
          "durationTicks": 240,
          "midi": 63,
          "name": "D#4",
          "ticks": 115200,
          "time": 92.90304,
          "velocity": 0.5511811023622047
        },
        {
          "duration": 0.19354800000000694,
          "durationTicks": 240,
          "midi": 62,
          "name": "D4",
          "ticks": 115440,
          "time": 93.096588,
          "velocity": 0.5511811023622047
        },
        {
          "duration": 0.19354799999999273,
          "durationTicks": 240,
          "midi": 60,
          "name": "C4",
          "ticks": 115680,
          "time": 93.290136,
          "velocity": 0.5511811023622047
        },
        {
          "duration": 0.19354800000000694,
          "durationTicks": 240,
          "midi": 62,
          "name": "D4",
          "ticks": 115920,
          "time": 93.483684,
          "velocity": 0.5511811023622047
        },
        {
          "duration": 0.12903199999999515,
          "durationTicks": 160,
          "midi": 58,
          "name": "A#3",
          "ticks": 116160,
          "time": 93.677232,
          "velocity": 0.5511811023622047
        },
        {
          "duration": 0.19354800000000694,
          "durationTicks": 240,
          "midi": 48,
          "name": "C3",
          "ticks": 117360,
          "time": 94.644972,
          "velocity": 0.5511811023622047
        },
        {
          "duration": 0.19354799999999273,
          "durationTicks": 240,
          "midi": 52,
          "name": "E3",
          "ticks": 117600,
          "time": 94.83852,
          "velocity": 0.5511811023622047
        },
        {
          "duration": 0.1370964999999984,
          "durationTicks": 170,
          "midi": 55,
          "name": "G3",
          "ticks": 117840,
          "time": 95.032068,
          "velocity": 0.5511811023622047
        },
        {
          "duration": 0.19354800000000694,
          "durationTicks": 240,
          "midi": 53,
          "name": "F3",
          "ticks": 118320,
          "time": 95.419164,
          "velocity": 0.5511811023622047
        },
        {
          "duration": 0.19354799999999273,
          "durationTicks": 240,
          "midi": 57,
          "name": "A3",
          "ticks": 118560,
          "time": 95.612712,
          "velocity": 0.5511811023622047
        },
        {
          "duration": 0.1370964999999984,
          "durationTicks": 170,
          "midi": 60,
          "name": "C4",
          "ticks": 118800,
          "time": 95.80626,
          "velocity": 0.5511811023622047
        },
        {
          "duration": 0.19354800000000694,
          "durationTicks": 240,
          "midi": 46,
          "name": "A#2",
          "ticks": 119280,
          "time": 96.193356,
          "velocity": 0.5511811023622047
        },
        {
          "duration": 0.19354799999999273,
          "durationTicks": 240,
          "midi": 50,
          "name": "D3",
          "ticks": 119520,
          "time": 96.386904,
          "velocity": 0.5511811023622047
        },
        {
          "duration": 0.1370964999999984,
          "durationTicks": 170,
          "midi": 53,
          "name": "F3",
          "ticks": 119760,
          "time": 96.580452,
          "velocity": 0.5511811023622047
        },
        {
          "duration": 0.19354800000000694,
          "durationTicks": 240,
          "midi": 51,
          "name": "D#3",
          "ticks": 120240,
          "time": 96.967548,
          "velocity": 0.5511811023622047
        },
        {
          "duration": 0.19354799999999273,
          "durationTicks": 240,
          "midi": 55,
          "name": "G3",
          "ticks": 120480,
          "time": 97.161096,
          "velocity": 0.5511811023622047
        },
        {
          "duration": 0.19354800000000694,
          "durationTicks": 240,
          "midi": 58,
          "name": "A#3",
          "ticks": 120720,
          "time": 97.354644,
          "velocity": 0.5511811023622047
        },
        {
          "duration": 0.6129020000000054,
          "durationTicks": 760,
          "midi": 56,
          "name": "G#3",
          "ticks": 120960,
          "time": 97.548192,
          "velocity": 0.5511811023622047
        },
        {
          "duration": 0.12903200000000936,
          "durationTicks": 160,
          "midi": 58,
          "name": "A#3",
          "ticks": 122400,
          "time": 98.70948,
          "velocity": 0.5511811023622047
        },
        {
          "duration": 0.9999979999999908,
          "durationTicks": 1240,
          "midi": 58,
          "name": "A#3",
          "ticks": 122880,
          "time": 99.096576,
          "velocity": 0.5511811023622047
        },
        {
          "duration": 0.3225799999999879,
          "durationTicks": 400,
          "midi": 65,
          "name": "F4",
          "ticks": 145440,
          "time": 117.290088,
          "velocity": 0.5905511811023622
        },
        {
          "duration": 0.15725774999999942,
          "durationTicks": 195,
          "midi": 63,
          "name": "D#4",
          "ticks": 145920,
          "time": 117.677184,
          "velocity": 0.5905511811023622
        },
        {
          "duration": 0.15725774999999942,
          "durationTicks": 195,
          "midi": 67,
          "name": "G4",
          "ticks": 146040,
          "time": 117.773958,
          "velocity": 0.5905511811023622
        },
        {
          "duration": 0.15725774999999942,
          "durationTicks": 195,
          "midi": 66,
          "name": "F#4",
          "ticks": 146240,
          "time": 117.935248,
          "velocity": 0.5905511811023622
        },
        {
          "duration": 0.15725774999999942,
          "durationTicks": 195,
          "midi": 67,
          "name": "G4",
          "ticks": 146400,
          "time": 118.06428,
          "velocity": 0.5905511811023622
        },
        {
          "duration": 0.15725774999999942,
          "durationTicks": 195,
          "midi": 65,
          "name": "F4",
          "ticks": 146520,
          "time": 118.161054,
          "velocity": 0.5905511811023622
        },
        {
          "duration": 0.15725774999999942,
          "durationTicks": 195,
          "midi": 63,
          "name": "D#4",
          "ticks": 146720,
          "time": 118.322344,
          "velocity": 0.5905511811023622
        },
        {
          "duration": 0.15725774999999942,
          "durationTicks": 195,
          "midi": 62,
          "name": "D4",
          "ticks": 146880,
          "time": 118.451376,
          "velocity": 0.5905511811023622
        },
        {
          "duration": 0.12903199999999515,
          "durationTicks": 160,
          "midi": 60,
          "name": "C4",
          "ticks": 147840,
          "time": 119.225568,
          "velocity": 0.5905511811023622
        },
        {
          "duration": 0.060483750000003056,
          "durationTicks": 75,
          "midi": 64,
          "name": "E4",
          "ticks": 147960,
          "time": 119.32234199999999,
          "velocity": 0.5905511811023622
        },
        {
          "duration": 0.060483750000003056,
          "durationTicks": 75,
          "midi": 62,
          "name": "D4",
          "ticks": 148160,
          "time": 119.483632,
          "velocity": 0.5905511811023622
        },
        {
          "duration": 0.12903199999999515,
          "durationTicks": 160,
          "midi": 60,
          "name": "C4",
          "ticks": 148320,
          "time": 119.612664,
          "velocity": 0.5905511811023622
        },
        {
          "duration": 0.060483750000003056,
          "durationTicks": 75,
          "midi": 62,
          "name": "D4",
          "ticks": 148440,
          "time": 119.70943799999999,
          "velocity": 0.5905511811023622
        },
        {
          "duration": 0.060483750000003056,
          "durationTicks": 75,
          "midi": 64,
          "name": "E4",
          "ticks": 148640,
          "time": 119.870728,
          "velocity": 0.5905511811023622
        },
        {
          "duration": 0.12903199999999515,
          "durationTicks": 160,
          "midi": 65,
          "name": "F4",
          "ticks": 148800,
          "time": 119.99976,
          "velocity": 0.5905511811023622
        },
        {
          "duration": 0.12903199999999515,
          "durationTicks": 160,
          "midi": 58,
          "name": "A#3",
          "ticks": 149760,
          "time": 120.773952,
          "velocity": 0.5905511811023622
        },
        {
          "duration": 0.060483749999988845,
          "durationTicks": 75,
          "midi": 62,
          "name": "D4",
          "ticks": 149880,
          "time": 120.870726,
          "velocity": 0.5905511811023622
        },
        {
          "duration": 0.060483749999988845,
          "durationTicks": 75,
          "midi": 60,
          "name": "C4",
          "ticks": 150080,
          "time": 121.03201600000001,
          "velocity": 0.5905511811023622
        },
        {
          "duration": 0.12903199999999515,
          "durationTicks": 160,
          "midi": 58,
          "name": "A#3",
          "ticks": 150240,
          "time": 121.161048,
          "velocity": 0.5905511811023622
        },
        {
          "duration": 0.060483749999988845,
          "durationTicks": 75,
          "midi": 60,
          "name": "C4",
          "ticks": 150360,
          "time": 121.257822,
          "velocity": 0.5905511811023622
        },
        {
          "duration": 0.060483749999988845,
          "durationTicks": 75,
          "midi": 62,
          "name": "D4",
          "ticks": 150560,
          "time": 121.41911200000001,
          "velocity": 0.5905511811023622
        },
        {
          "duration": 0.12903199999999515,
          "durationTicks": 160,
          "midi": 63,
          "name": "D#4",
          "ticks": 150720,
          "time": 121.548144,
          "velocity": 0.5905511811023622
        },
        {
          "duration": 0.12903199999999515,
          "durationTicks": 160,
          "midi": 56,
          "name": "G#3",
          "ticks": 151680,
          "time": 122.32233599999999,
          "velocity": 0.5905511811023622
        },
        {
          "duration": 0.12903199999999515,
          "durationTicks": 160,
          "midi": 58,
          "name": "A#3",
          "ticks": 152640,
          "time": 123.09652799999999,
          "velocity": 0.5905511811023622
        },
        {
          "duration": 0.12903199999999515,
          "durationTicks": 160,
          "midi": 46,
          "name": "A#2",
          "ticks": 153120,
          "time": 123.48362399999999,
          "velocity": 0.5905511811023622
        },
        {
          "duration": 0.12903199999998094,
          "durationTicks": 160,
          "midi": 51,
          "name": "D#3",
          "ticks": 153600,
          "time": 123.87072,
          "velocity": 0.5905511811023622
        },
        {
          "duration": 0.12903199999998094,
          "durationTicks": 160,
          "midi": 39,
          "name": "D#2",
          "ticks": 154080,
          "time": 124.257816,
          "velocity": 0.5905511811023622
        },
        {
          "duration": 0.12903199999998094,
          "durationTicks": 160,
          "midi": 39,
          "name": "D#2",
          "ticks": 154560,
          "time": 124.644912,
          "velocity": 0.5905511811023622
        },
        {
          "duration": 0.0846772499999986,
          "durationTicks": 105,
          "midi": 48,
          "name": "C3",
          "ticks": 157440,
          "time": 126.967488,
          "velocity": 0.5905511811023622
        },
        {
          "duration": 0.0846772499999986,
          "durationTicks": 105,
          "midi": 51,
          "name": "D#3",
          "ticks": 157600,
          "time": 127.09652,
          "velocity": 0.5905511811023622
        },
        {
          "duration": 0.0846772499999986,
          "durationTicks": 105,
          "midi": 55,
          "name": "G3",
          "ticks": 157760,
          "time": 127.22555200000001,
          "velocity": 0.5905511811023622
        },
        {
          "duration": 0.0846772499999986,
          "durationTicks": 105,
          "midi": 60,
          "name": "C4",
          "ticks": 157920,
          "time": 127.354584,
          "velocity": 0.5905511811023622
        },
        {
          "duration": 0.0846772499999986,
          "durationTicks": 105,
          "midi": 63,
          "name": "D#4",
          "ticks": 158080,
          "time": 127.483616,
          "velocity": 0.5905511811023622
        },
        {
          "duration": 0.0846772499999986,
          "durationTicks": 105,
          "midi": 67,
          "name": "G4",
          "ticks": 158240,
          "time": 127.61264800000001,
          "velocity": 0.5905511811023622
        },
        {
          "duration": 0.12903199999999515,
          "durationTicks": 160,
          "midi": 65,
          "name": "F4",
          "ticks": 158400,
          "time": 127.74168,
          "velocity": 0.5905511811023622
        },
        {
          "duration": 0.060483750000003056,
          "durationTicks": 75,
          "midi": 63,
          "name": "D#4",
          "ticks": 158520,
          "time": 127.838454,
          "velocity": 0.5905511811023622
        },
        {
          "duration": 0.060483749999988845,
          "durationTicks": 75,
          "midi": 62,
          "name": "D4",
          "ticks": 158720,
          "time": 127.999744,
          "velocity": 0.5905511811023622
        },
        {
          "duration": 0.12903199999999515,
          "durationTicks": 160,
          "midi": 60,
          "name": "C4",
          "ticks": 158880,
          "time": 128.128776,
          "velocity": 0.5905511811023622
        },
        {
          "duration": 0.060483750000003056,
          "durationTicks": 75,
          "midi": 62,
          "name": "D4",
          "ticks": 159000,
          "time": 128.22555,
          "velocity": 0.5905511811023622
        },
        {
          "duration": 0.060483750000003056,
          "durationTicks": 75,
          "midi": 58,
          "name": "A#3",
          "ticks": 159200,
          "time": 128.38684,
          "velocity": 0.5905511811023622
        },
        {
          "duration": 0.6129019999999912,
          "durationTicks": 760,
          "midi": 57,
          "name": "A3",
          "ticks": 159360,
          "time": 128.515872,
          "velocity": 0.5905511811023622
        },
        {
          "duration": 0.0846772499999986,
          "durationTicks": 105,
          "midi": 46,
          "name": "A#2",
          "ticks": 161280,
          "time": 130.064256,
          "velocity": 0.5905511811023622
        },
        {
          "duration": 0.0846772499999986,
          "durationTicks": 105,
          "midi": 50,
          "name": "D3",
          "ticks": 161440,
          "time": 130.193288,
          "velocity": 0.5905511811023622
        },
        {
          "duration": 0.0846772499999986,
          "durationTicks": 105,
          "midi": 53,
          "name": "F3",
          "ticks": 161600,
          "time": 130.32232000000002,
          "velocity": 0.5905511811023622
        },
        {
          "duration": 0.12903199999999515,
          "durationTicks": 160,
          "midi": 58,
          "name": "A#3",
          "ticks": 161760,
          "time": 130.45135199999999,
          "velocity": 0.5905511811023622
        },
        {
          "duration": 0.060483750000003056,
          "durationTicks": 75,
          "midi": 62,
          "name": "D4",
          "ticks": 161880,
          "time": 130.548126,
          "velocity": 0.5905511811023622
        },
        {
          "duration": 0.060483750000003056,
          "durationTicks": 75,
          "midi": 60,
          "name": "C4",
          "ticks": 162080,
          "time": 130.709416,
          "velocity": 0.5905511811023622
        },
        {
          "duration": 0.1370965000000126,
          "durationTicks": 170,
          "midi": 58,
          "name": "A#3",
          "ticks": 162240,
          "time": 130.838448,
          "velocity": 0.5905511811023622
        },
        {
          "duration": 0.12903199999999515,
          "durationTicks": 160,
          "midi": 60,
          "name": "C4",
          "ticks": 163200,
          "time": 131.61264,
          "velocity": 0.5905511811023622
        },
        {
          "duration": 0.060483750000003056,
          "durationTicks": 75,
          "midi": 64,
          "name": "E4",
          "ticks": 163320,
          "time": 131.709414,
          "velocity": 0.5905511811023622
        },
        {
          "duration": 0.060483749999974634,
          "durationTicks": 75,
          "midi": 62,
          "name": "D4",
          "ticks": 163520,
          "time": 131.87070400000002,
          "velocity": 0.5905511811023622
        },
        {
          "duration": 0.12903199999999515,
          "durationTicks": 160,
          "midi": 60,
          "name": "C4",
          "ticks": 163680,
          "time": 131.99973599999998,
          "velocity": 0.5905511811023622
        },
        {
          "duration": 0.060483750000003056,
          "durationTicks": 75,
          "midi": 62,
          "name": "D4",
          "ticks": 163800,
          "time": 132.09651,
          "velocity": 0.5905511811023622
        },
        {
          "duration": 0.060483750000003056,
          "durationTicks": 75,
          "midi": 64,
          "name": "E4",
          "ticks": 164000,
          "time": 132.2578,
          "velocity": 0.5905511811023622
        },
        {
          "duration": 0.12903199999999515,
          "durationTicks": 160,
          "midi": 65,
          "name": "F4",
          "ticks": 164160,
          "time": 132.386832,
          "velocity": 0.5905511811023622
        },
        {
          "duration": 0.12903199999999515,
          "durationTicks": 160,
          "midi": 58,
          "name": "A#3",
          "ticks": 165120,
          "time": 133.161024,
          "velocity": 0.5905511811023622
        },
        {
          "duration": 0.060483750000003056,
          "durationTicks": 75,
          "midi": 62,
          "name": "D4",
          "ticks": 165240,
          "time": 133.257798,
          "velocity": 0.5905511811023622
        },
        {
          "duration": 0.060483750000003056,
          "durationTicks": 75,
          "midi": 60,
          "name": "C4",
          "ticks": 165440,
          "time": 133.41908800000002,
          "velocity": 0.5905511811023622
        },
        {
          "duration": 0.12903199999996673,
          "durationTicks": 160,
          "midi": 58,
          "name": "A#3",
          "ticks": 165600,
          "time": 133.54812,
          "velocity": 0.5905511811023622
        },
        {
          "duration": 0.060483750000003056,
          "durationTicks": 75,
          "midi": 60,
          "name": "C4",
          "ticks": 165720,
          "time": 133.644894,
          "velocity": 0.5905511811023622
        },
        {
          "duration": 0.060483750000003056,
          "durationTicks": 75,
          "midi": 62,
          "name": "D4",
          "ticks": 165920,
          "time": 133.806184,
          "velocity": 0.5905511811023622
        },
        {
          "duration": 0.12903199999999515,
          "durationTicks": 160,
          "midi": 63,
          "name": "D#4",
          "ticks": 166080,
          "time": 133.935216,
          "velocity": 0.5905511811023622
        },
        {
          "duration": 0.12903199999999515,
          "durationTicks": 160,
          "midi": 56,
          "name": "G#3",
          "ticks": 167040,
          "time": 134.709408,
          "velocity": 0.5905511811023622
        },
        {
          "duration": 0.12903199999999515,
          "durationTicks": 160,
          "midi": 58,
          "name": "A#3",
          "ticks": 168000,
          "time": 135.4836,
          "velocity": 0.5905511811023622
        },
        {
          "duration": 0.12903199999999515,
          "durationTicks": 160,
          "midi": 46,
          "name": "A#2",
          "ticks": 168480,
          "time": 135.870696,
          "velocity": 0.5905511811023622
        },
        {
          "duration": 0.12903199999999515,
          "durationTicks": 160,
          "midi": 51,
          "name": "D#3",
          "ticks": 168960,
          "time": 136.257792,
          "velocity": 0.5905511811023622
        },
        {
          "duration": 0.12903199999999515,
          "durationTicks": 160,
          "midi": 39,
          "name": "D#2",
          "ticks": 169440,
          "time": 136.644888,
          "velocity": 0.5905511811023622
        },
        {
          "duration": 0.12903199999999515,
          "durationTicks": 160,
          "midi": 39,
          "name": "D#2",
          "ticks": 169920,
          "time": 137.031984,
          "velocity": 0.5905511811023622
        },
        {
          "duration": 0.12903199999999515,
          "durationTicks": 160,
          "midi": 51,
          "name": "D#3",
          "ticks": 186480,
          "time": 150.386796,
          "velocity": 0.5511811023622047
        },
        {
          "duration": 0.12903199999999515,
          "durationTicks": 160,
          "midi": 55,
          "name": "G3",
          "ticks": 186720,
          "time": 150.580344,
          "velocity": 0.5511811023622047
        },
        {
          "duration": 0.12903199999999515,
          "durationTicks": 160,
          "midi": 58,
          "name": "A#3",
          "ticks": 186960,
          "time": 150.773892,
          "velocity": 0.5511811023622047
        },
        {
          "duration": 0.12903199999996673,
          "durationTicks": 160,
          "midi": 63,
          "name": "D#4",
          "ticks": 187200,
          "time": 150.96744,
          "velocity": 0.5511811023622047
        },
        {
          "duration": 0.12903199999999515,
          "durationTicks": 160,
          "midi": 50,
          "name": "D3",
          "ticks": 188400,
          "time": 151.93518,
          "velocity": 0.5511811023622047
        },
        {
          "duration": 0.12903199999999515,
          "durationTicks": 160,
          "midi": 53,
          "name": "F3",
          "ticks": 188640,
          "time": 152.128728,
          "velocity": 0.5511811023622047
        },
        {
          "duration": 0.12903199999999515,
          "durationTicks": 160,
          "midi": 58,
          "name": "A#3",
          "ticks": 188880,
          "time": 152.322276,
          "velocity": 0.5511811023622047
        },
        {
          "duration": 0.12903199999999515,
          "durationTicks": 160,
          "midi": 62,
          "name": "D4",
          "ticks": 189120,
          "time": 152.515824,
          "velocity": 0.5511811023622047
        },
        {
          "duration": 0.12903199999999515,
          "durationTicks": 160,
          "midi": 51,
          "name": "D#3",
          "ticks": 190320,
          "time": 153.483564,
          "velocity": 0.5511811023622047
        },
        {
          "duration": 0.12903199999999515,
          "durationTicks": 160,
          "midi": 55,
          "name": "G3",
          "ticks": 190560,
          "time": 153.677112,
          "velocity": 0.5511811023622047
        },
        {
          "duration": 0.12903199999999515,
          "durationTicks": 160,
          "midi": 58,
          "name": "A#3",
          "ticks": 190800,
          "time": 153.87066,
          "velocity": 0.5511811023622047
        },
        {
          "duration": 0.12903199999999515,
          "durationTicks": 160,
          "midi": 56,
          "name": "G#3",
          "ticks": 191280,
          "time": 154.257756,
          "velocity": 0.5511811023622047
        },
        {
          "duration": 0.12903199999999515,
          "durationTicks": 160,
          "midi": 60,
          "name": "C4",
          "ticks": 191520,
          "time": 154.451304,
          "velocity": 0.5511811023622047
        },
        {
          "duration": 0.12903199999999515,
          "durationTicks": 160,
          "midi": 65,
          "name": "F4",
          "ticks": 191760,
          "time": 154.644852,
          "velocity": 0.5511811023622047
        },
        {
          "duration": 0.19354799999999273,
          "durationTicks": 240,
          "midi": 57,
          "name": "A3",
          "ticks": 192240,
          "time": 155.031948,
          "velocity": 0.5511811023622047
        },
        {
          "duration": 0.19354799999999273,
          "durationTicks": 240,
          "midi": 58,
          "name": "A#3",
          "ticks": 192480,
          "time": 155.225496,
          "velocity": 0.5511811023622047
        },
        {
          "duration": 0.19354800000002115,
          "durationTicks": 240,
          "midi": 57,
          "name": "A3",
          "ticks": 192720,
          "time": 155.41904399999999,
          "velocity": 0.5511811023622047
        },
        {
          "duration": 0.12903199999999515,
          "durationTicks": 160,
          "midi": 58,
          "name": "A#3",
          "ticks": 192960,
          "time": 155.612592,
          "velocity": 0.5905511811023622
        },
        {
          "duration": 0.3870960000000139,
          "durationTicks": 480,
          "midi": 64,
          "name": "E4",
          "ticks": 195360,
          "time": 157.548072,
          "velocity": 0.5905511811023622
        },
        {
          "duration": 0.3225799999999879,
          "durationTicks": 400,
          "midi": 65,
          "name": "F4",
          "ticks": 195840,
          "time": 157.935168,
          "velocity": 0.5905511811023622
        },
        {
          "duration": 0.3870960000000139,
          "durationTicks": 480,
          "midi": 63,
          "name": "D#4",
          "ticks": 196320,
          "time": 158.322264,
          "velocity": 0.5905511811023622
        },
        {
          "duration": 0.3225799999999879,
          "durationTicks": 400,
          "midi": 62,
          "name": "D4",
          "ticks": 196800,
          "time": 158.70936,
          "velocity": 0.5905511811023622
        },
        {
          "duration": 0.38387020000001826,
          "durationTicks": 476,
          "midi": 58,
          "name": "A#3",
          "ticks": 197280,
          "time": 159.096456,
          "velocity": 0.5905511811023622
        },
        {
          "duration": 0.19354799999999273,
          "durationTicks": 240,
          "midi": 63,
          "name": "D#4",
          "ticks": 197760,
          "time": 159.483552,
          "velocity": 0.5905511811023622
        },
        {
          "duration": 0.19354799999999273,
          "durationTicks": 240,
          "midi": 67,
          "name": "G4",
          "ticks": 198000,
          "time": 159.6771,
          "velocity": 0.5905511811023622
        },
        {
          "duration": 0.19354800000002115,
          "durationTicks": 240,
          "midi": 65,
          "name": "F4",
          "ticks": 198240,
          "time": 159.870648,
          "velocity": 0.5905511811023622
        },
        {
          "duration": 0.19354799999999273,
          "durationTicks": 240,
          "midi": 63,
          "name": "D#4",
          "ticks": 198480,
          "time": 160.064196,
          "velocity": 0.5905511811023622
        },
        {
          "duration": 0.7096760000000017,
          "durationTicks": 880,
          "midi": 62,
          "name": "D4",
          "ticks": 198720,
          "time": 160.257744,
          "velocity": 0.5905511811023622
        },
        {
          "duration": 0.6129019999999912,
          "durationTicks": 760,
          "midi": 63,
          "name": "D#4",
          "ticks": 199680,
          "time": 161.031936,
          "velocity": 0.5905511811023622
        },
        {
          "duration": 0.12903199999999515,
          "durationTicks": 160,
          "midi": 47,
          "name": "B2",
          "ticks": 201840,
          "time": 162.773868,
          "velocity": 0.5511811023622047
        },
        {
          "duration": 0.12903199999999515,
          "durationTicks": 160,
          "midi": 50,
          "name": "D3",
          "ticks": 202080,
          "time": 162.967416,
          "velocity": 0.5511811023622047
        },
        {
          "duration": 0.12903199999999515,
          "durationTicks": 160,
          "midi": 55,
          "name": "G3",
          "ticks": 202320,
          "time": 163.160964,
          "velocity": 0.5511811023622047
        },
        {
          "duration": 0.12903199999999515,
          "durationTicks": 160,
          "midi": 59,
          "name": "B3",
          "ticks": 202560,
          "time": 163.354512,
          "velocity": 0.5511811023622047
        },
        {
          "duration": 0.12903199999999515,
          "durationTicks": 160,
          "midi": 48,
          "name": "C3",
          "ticks": 203760,
          "time": 164.322252,
          "velocity": 0.5511811023622047
        },
        {
          "duration": 0.12903199999999515,
          "durationTicks": 160,
          "midi": 51,
          "name": "D#3",
          "ticks": 204000,
          "time": 164.51579999999998,
          "velocity": 0.5511811023622047
        },
        {
          "duration": 0.12903199999999515,
          "durationTicks": 160,
          "midi": 55,
          "name": "G3",
          "ticks": 204240,
          "time": 164.709348,
          "velocity": 0.5511811023622047
        },
        {
          "duration": 0.12903199999999515,
          "durationTicks": 160,
          "midi": 60,
          "name": "C4",
          "ticks": 204480,
          "time": 164.902896,
          "velocity": 0.5511811023622047
        },
        {
          "duration": 0.12903199999999515,
          "durationTicks": 160,
          "midi": 45,
          "name": "A2",
          "ticks": 205680,
          "time": 165.870636,
          "velocity": 0.5511811023622047
        },
        {
          "duration": 0.12903199999996673,
          "durationTicks": 160,
          "midi": 48,
          "name": "C3",
          "ticks": 205920,
          "time": 166.064184,
          "velocity": 0.5511811023622047
        },
        {
          "duration": 0.12903199999999515,
          "durationTicks": 160,
          "midi": 53,
          "name": "F3",
          "ticks": 206160,
          "time": 166.257732,
          "velocity": 0.5511811023622047
        },
        {
          "duration": 0.12903199999999515,
          "durationTicks": 160,
          "midi": 57,
          "name": "A3",
          "ticks": 206400,
          "time": 166.45128,
          "velocity": 0.5511811023622047
        },
        {
          "duration": 0.12903199999999515,
          "durationTicks": 160,
          "midi": 46,
          "name": "A#2",
          "ticks": 207600,
          "time": 167.41902,
          "velocity": 0.5511811023622047
        },
        {
          "duration": 0.12903199999996673,
          "durationTicks": 160,
          "midi": 50,
          "name": "D3",
          "ticks": 207840,
          "time": 167.612568,
          "velocity": 0.5511811023622047
        },
        {
          "duration": 0.12903199999999515,
          "durationTicks": 160,
          "midi": 53,
          "name": "F3",
          "ticks": 208080,
          "time": 167.806116,
          "velocity": 0.5511811023622047
        },
        {
          "duration": 0.12903199999999515,
          "durationTicks": 160,
          "midi": 58,
          "name": "A#3",
          "ticks": 208320,
          "time": 167.999664,
          "velocity": 0.5511811023622047
        },
        {
          "duration": 0.38709599999998545,
          "durationTicks": 480,
          "midi": 64,
          "name": "E4",
          "ticks": 210720,
          "time": 169.935144,
          "velocity": 0.5905511811023622
        },
        {
          "duration": 0.3225799999999879,
          "durationTicks": 400,
          "midi": 65,
          "name": "F4",
          "ticks": 211200,
          "time": 170.32224,
          "velocity": 0.5905511811023622
        },
        {
          "duration": 0.38709599999998545,
          "durationTicks": 480,
          "midi": 63,
          "name": "D#4",
          "ticks": 211680,
          "time": 170.709336,
          "velocity": 0.5905511811023622
        },
        {
          "duration": 0.3225799999999879,
          "durationTicks": 400,
          "midi": 62,
          "name": "D4",
          "ticks": 212160,
          "time": 171.096432,
          "velocity": 0.5905511811023622
        },
        {
          "duration": 0.38387019999998984,
          "durationTicks": 476,
          "midi": 58,
          "name": "A#3",
          "ticks": 212640,
          "time": 171.483528,
          "velocity": 0.5905511811023622
        },
        {
          "duration": 0.19354799999999273,
          "durationTicks": 240,
          "midi": 63,
          "name": "D#4",
          "ticks": 213120,
          "time": 171.870624,
          "velocity": 0.5905511811023622
        },
        {
          "duration": 0.19354800000002115,
          "durationTicks": 240,
          "midi": 67,
          "name": "G4",
          "ticks": 213360,
          "time": 172.06417199999999,
          "velocity": 0.5905511811023622
        },
        {
          "duration": 0.19354799999999273,
          "durationTicks": 240,
          "midi": 65,
          "name": "F4",
          "ticks": 213600,
          "time": 172.25772,
          "velocity": 0.5905511811023622
        },
        {
          "duration": 0.19354799999999273,
          "durationTicks": 240,
          "midi": 63,
          "name": "D#4",
          "ticks": 213840,
          "time": 172.451268,
          "velocity": 0.5905511811023622
        },
        {
          "duration": 0.7096760000000017,
          "durationTicks": 880,
          "midi": 62,
          "name": "D4",
          "ticks": 214080,
          "time": 172.644816,
          "velocity": 0.5905511811023622
        },
        {
          "duration": 0.6129019999999912,
          "durationTicks": 760,
          "midi": 63,
          "name": "D#4",
          "ticks": 215040,
          "time": 173.419008,
          "velocity": 0.5905511811023622
        },
        {
          "duration": 0.19354799999999273,
          "durationTicks": 240,
          "midi": 67,
          "name": "G4",
          "ticks": 247200,
          "time": 199.35444,
          "velocity": 0.5118110236220472
        },
        {
          "duration": 0.19354799999999273,
          "durationTicks": 240,
          "midi": 66,
          "name": "F#4",
          "ticks": 247440,
          "time": 199.547988,
          "velocity": 0.5118110236220472
        },
        {
          "duration": 0.19354799999999273,
          "durationTicks": 240,
          "midi": 67,
          "name": "G4",
          "ticks": 247680,
          "time": 199.741536,
          "velocity": 0.5118110236220472
        },
        {
          "duration": 0.19354800000002115,
          "durationTicks": 240,
          "midi": 66,
          "name": "F#4",
          "ticks": 247920,
          "time": 199.935084,
          "velocity": 0.5118110236220472
        },
        {
          "duration": 0.19354799999999273,
          "durationTicks": 240,
          "midi": 67,
          "name": "G4",
          "ticks": 248160,
          "time": 200.128632,
          "velocity": 0.5118110236220472
        },
        {
          "duration": 0.19354799999999273,
          "durationTicks": 240,
          "midi": 66,
          "name": "F#4",
          "ticks": 248400,
          "time": 200.32218,
          "velocity": 0.5118110236220472
        },
        {
          "duration": 0.19354799999999273,
          "durationTicks": 240,
          "midi": 67,
          "name": "G4",
          "ticks": 248640,
          "time": 200.515728,
          "velocity": 0.5118110236220472
        },
        {
          "duration": 0.19354800000002115,
          "durationTicks": 240,
          "midi": 65,
          "name": "F4",
          "ticks": 248880,
          "time": 200.709276,
          "velocity": 0.5118110236220472
        },
        {
          "duration": 0.19354799999999273,
          "durationTicks": 240,
          "midi": 63,
          "name": "D#4",
          "ticks": 249120,
          "time": 200.902824,
          "velocity": 0.5118110236220472
        },
        {
          "duration": 0.19354799999999273,
          "durationTicks": 240,
          "midi": 62,
          "name": "D4",
          "ticks": 249360,
          "time": 201.096372,
          "velocity": 0.5118110236220472
        },
        {
          "duration": 0.19354799999999273,
          "durationTicks": 240,
          "midi": 63,
          "name": "D#4",
          "ticks": 249600,
          "time": 201.28992,
          "velocity": 0.5118110236220472
        },
        {
          "duration": 0.19354800000002115,
          "durationTicks": 240,
          "midi": 65,
          "name": "F4",
          "ticks": 249840,
          "time": 201.483468,
          "velocity": 0.5118110236220472
        },
        {
          "duration": 0.19354799999999273,
          "durationTicks": 240,
          "midi": 62,
          "name": "D4",
          "ticks": 250080,
          "time": 201.677016,
          "velocity": 0.5118110236220472
        },
        {
          "duration": 0.19354799999999273,
          "durationTicks": 240,
          "midi": 63,
          "name": "D#4",
          "ticks": 250320,
          "time": 201.870564,
          "velocity": 0.5118110236220472
        },
        {
          "duration": 0.15725775000001363,
          "durationTicks": 195,
          "midi": 60,
          "name": "C4",
          "ticks": 250560,
          "time": 202.064112,
          "velocity": 0.5118110236220472
        },
        {
          "duration": 0.1903221999999971,
          "durationTicks": 236,
          "midi": 65,
          "name": "F4",
          "ticks": 251040,
          "time": 202.451208,
          "velocity": 0.5118110236220472
        },
        {
          "duration": 0.1370964999999842,
          "durationTicks": 170,
          "midi": 64,
          "name": "E4",
          "ticks": 251280,
          "time": 202.644756,
          "velocity": 0.5118110236220472
        },
        {
          "duration": 0.19354799999999273,
          "durationTicks": 240,
          "midi": 65,
          "name": "F4",
          "ticks": 251520,
          "time": 202.838304,
          "velocity": 0.5118110236220472
        },
        {
          "duration": 0.1370964999999842,
          "durationTicks": 170,
          "midi": 64,
          "name": "E4",
          "ticks": 251760,
          "time": 203.031852,
          "velocity": 0.5118110236220472
        },
        {
          "duration": 0.19354799999999273,
          "durationTicks": 240,
          "midi": 65,
          "name": "F4",
          "ticks": 252000,
          "time": 203.2254,
          "velocity": 0.5118110236220472
        },
        {
          "duration": 0.1370964999999842,
          "durationTicks": 170,
          "midi": 64,
          "name": "E4",
          "ticks": 252240,
          "time": 203.418948,
          "velocity": 0.5118110236220472
        },
        {
          "duration": 0.19354799999999273,
          "durationTicks": 240,
          "midi": 65,
          "name": "F4",
          "ticks": 252480,
          "time": 203.612496,
          "velocity": 0.5118110236220472
        },
        {
          "duration": 0.1370964999999842,
          "durationTicks": 170,
          "midi": 63,
          "name": "D#4",
          "ticks": 252720,
          "time": 203.80604399999999,
          "velocity": 0.5118110236220472
        },
        {
          "duration": 0.19354799999999273,
          "durationTicks": 240,
          "midi": 62,
          "name": "D4",
          "ticks": 252960,
          "time": 203.999592,
          "velocity": 0.5118110236220472
        },
        {
          "duration": 0.1370964999999842,
          "durationTicks": 170,
          "midi": 60,
          "name": "C4",
          "ticks": 253200,
          "time": 204.19314,
          "velocity": 0.5118110236220472
        },
        {
          "duration": 0.19354799999999273,
          "durationTicks": 240,
          "midi": 62,
          "name": "D4",
          "ticks": 253440,
          "time": 204.386688,
          "velocity": 0.5118110236220472
        },
        {
          "duration": 0.19354800000002115,
          "durationTicks": 240,
          "midi": 63,
          "name": "D#4",
          "ticks": 253680,
          "time": 204.58023599999999,
          "velocity": 0.5118110236220472
        },
        {
          "duration": 0.19354799999999273,
          "durationTicks": 240,
          "midi": 60,
          "name": "C4",
          "ticks": 253920,
          "time": 204.773784,
          "velocity": 0.5118110236220472
        },
        {
          "duration": 0.1370964999999842,
          "durationTicks": 170,
          "midi": 62,
          "name": "D4",
          "ticks": 254160,
          "time": 204.967332,
          "velocity": 0.5118110236220472
        },
        {
          "duration": 0.1370964999999842,
          "durationTicks": 170,
          "midi": 58,
          "name": "A#3",
          "ticks": 254400,
          "time": 205.16088,
          "velocity": 0.5118110236220472
        },
        {
          "duration": 0.12903199999999515,
          "durationTicks": 160,
          "midi": 51,
          "name": "D#3",
          "ticks": 278400,
          "time": 224.51568,
          "velocity": 0.5511811023622047
        },
        {
          "duration": 0.22580600000003415,
          "durationTicks": 280,
          "midi": 55,
          "name": "G3",
          "ticks": 279840,
          "time": 225.676968,
          "velocity": 0.5511811023622047
        },
        {
          "duration": 0.12903200000002357,
          "durationTicks": 160,
          "midi": 58,
          "name": "A#3",
          "ticks": 280320,
          "time": 226.064064,
          "velocity": 0.5511811023622047
        },
        {
          "duration": 0.3225800000000163,
          "durationTicks": 400,
          "midi": 62,
          "name": "D4",
          "ticks": 285600,
          "time": 230.32211999999998,
          "velocity": 0.5511811023622047
        },
        {
          "duration": 0.3225800000000163,
          "durationTicks": 400,
          "midi": 64,
          "name": "E4",
          "ticks": 286080,
          "time": 230.709216,
          "velocity": 0.5511811023622047
        },
        {
          "duration": 0.7096760000000302,
          "durationTicks": 880,
          "midi": 65,
          "name": "F4",
          "ticks": 286560,
          "time": 231.09631199999998,
          "velocity": 0.5511811023622047
        },
        {
          "duration": 0.3225799999999879,
          "durationTicks": 400,
          "midi": 65,
          "name": "F4",
          "ticks": 287520,
          "time": 231.870504,
          "velocity": 0.5511811023622047
        },
        {
          "duration": 0.3225800000000163,
          "durationTicks": 400,
          "midi": 62,
          "name": "D4",
          "ticks": 288000,
          "time": 232.2576,
          "velocity": 0.5511811023622047
        },
        {
          "duration": 0.7096760000000017,
          "durationTicks": 880,
          "midi": 63,
          "name": "D#4",
          "ticks": 288480,
          "time": 232.644696,
          "velocity": 0.5511811023622047
        },
        {
          "duration": 0.3225800000000163,
          "durationTicks": 400,
          "midi": 63,
          "name": "D#4",
          "ticks": 289440,
          "time": 233.418888,
          "velocity": 0.5511811023622047
        },
        {
          "duration": 0.6209664999999802,
          "durationTicks": 770,
          "midi": 63,
          "name": "D#4",
          "ticks": 289920,
          "time": 233.805984,
          "velocity": 0.5511811023622047
        },
        {
          "duration": 0.23387049999999476,
          "durationTicks": 290,
          "midi": 62,
          "name": "D4",
          "ticks": 290880,
          "time": 234.580176,
          "velocity": 0.5511811023622047
        },
        {
          "duration": 0.23387049999996634,
          "durationTicks": 290,
          "midi": 65,
          "name": "F4",
          "ticks": 291360,
          "time": 234.967272,
          "velocity": 0.5511811023622047
        },
        {
          "duration": 0.6129020000000196,
          "durationTicks": 760,
          "midi": 63,
          "name": "D#4",
          "ticks": 291840,
          "time": 235.354368,
          "velocity": 0.5511811023622047
        },
        {
          "duration": 0.38709599999998545,
          "durationTicks": 480,
          "midi": 65,
          "name": "F4",
          "ticks": 294240,
          "time": 237.289848,
          "velocity": 0.5511811023622047
        },
        {
          "duration": 0.3870960000000139,
          "durationTicks": 480,
          "midi": 63,
          "name": "D#4",
          "ticks": 294720,
          "time": 237.676944,
          "velocity": 0.5511811023622047
        },
        {
          "duration": 0.3225800000000163,
          "durationTicks": 400,
          "midi": 59,
          "name": "B3",
          "ticks": 295200,
          "time": 238.06404,
          "velocity": 0.5511811023622047
        },
        {
          "duration": 0.12903200000002357,
          "durationTicks": 160,
          "midi": 60,
          "name": "C4",
          "ticks": 295680,
          "time": 238.451136,
          "velocity": 0.5511811023622047
        },
        {
          "duration": 0.12903200000002357,
          "durationTicks": 160,
          "midi": 60,
          "name": "C4",
          "ticks": 295920,
          "time": 238.64468399999998,
          "velocity": 0.5511811023622047
        },
        {
          "duration": 0.12903199999999515,
          "durationTicks": 160,
          "midi": 62,
          "name": "D4",
          "ticks": 296160,
          "time": 238.838232,
          "velocity": 0.5511811023622047
        },
        {
          "duration": 0.12903200000002357,
          "durationTicks": 160,
          "midi": 62,
          "name": "D4",
          "ticks": 296400,
          "time": 239.03178,
          "velocity": 0.5511811023622047
        },
        {
          "duration": 0.12903200000002357,
          "durationTicks": 160,
          "midi": 63,
          "name": "D#4",
          "ticks": 296640,
          "time": 239.225328,
          "velocity": 0.5511811023622047
        },
        {
          "duration": 0.38709599999998545,
          "durationTicks": 480,
          "midi": 63,
          "name": "D#4",
          "ticks": 298080,
          "time": 240.386616,
          "velocity": 0.5511811023622047
        },
        {
          "duration": 0.3870960000000139,
          "durationTicks": 480,
          "midi": 62,
          "name": "D4",
          "ticks": 298560,
          "time": 240.773712,
          "velocity": 0.5511811023622047
        },
        {
          "duration": 0.3225800000000163,
          "durationTicks": 400,
          "midi": 57,
          "name": "A3",
          "ticks": 299040,
          "time": 241.160808,
          "velocity": 0.5511811023622047
        },
        {
          "duration": 0.12903200000002357,
          "durationTicks": 160,
          "midi": 58,
          "name": "A#3",
          "ticks": 299520,
          "time": 241.547904,
          "velocity": 0.5511811023622047
        },
        {
          "duration": 0.12903199999999515,
          "durationTicks": 160,
          "midi": 58,
          "name": "A#3",
          "ticks": 299760,
          "time": 241.741452,
          "velocity": 0.5511811023622047
        },
        {
          "duration": 0.12903200000002357,
          "durationTicks": 160,
          "midi": 60,
          "name": "C4",
          "ticks": 300000,
          "time": 241.935,
          "velocity": 0.5511811023622047
        },
        {
          "duration": 0.12903200000002357,
          "durationTicks": 160,
          "midi": 60,
          "name": "C4",
          "ticks": 300240,
          "time": 242.128548,
          "velocity": 0.5511811023622047
        },
        {
          "duration": 0.12903200000002357,
          "durationTicks": 160,
          "midi": 62,
          "name": "D4",
          "ticks": 300480,
          "time": 242.322096,
          "velocity": 0.5511811023622047
        },
        {
          "duration": 0.3225800000000163,
          "durationTicks": 400,
          "midi": 62,
          "name": "D4",
          "ticks": 300960,
          "time": 242.709192,
          "velocity": 0.6692913385826772
        },
        {
          "duration": 0.3225800000000163,
          "durationTicks": 400,
          "midi": 64,
          "name": "E4",
          "ticks": 301440,
          "time": 243.096288,
          "velocity": 0.5511811023622047
        },
        {
          "duration": 0.7096760000000017,
          "durationTicks": 880,
          "midi": 65,
          "name": "F4",
          "ticks": 301920,
          "time": 243.483384,
          "velocity": 0.5511811023622047
        },
        {
          "duration": 0.3225800000000163,
          "durationTicks": 400,
          "midi": 65,
          "name": "F4",
          "ticks": 302880,
          "time": 244.257576,
          "velocity": 0.5511811023622047
        },
        {
          "duration": 0.3225800000000163,
          "durationTicks": 400,
          "midi": 62,
          "name": "D4",
          "ticks": 303360,
          "time": 244.64467199999999,
          "velocity": 0.5511811023622047
        },
        {
          "duration": 0.7096760000000017,
          "durationTicks": 880,
          "midi": 63,
          "name": "D#4",
          "ticks": 303840,
          "time": 245.031768,
          "velocity": 0.5511811023622047
        },
        {
          "duration": 0.3225800000000163,
          "durationTicks": 400,
          "midi": 63,
          "name": "D#4",
          "ticks": 304800,
          "time": 245.80596,
          "velocity": 0.5511811023622047
        },
        {
          "duration": 0.6209665000000086,
          "durationTicks": 770,
          "midi": 63,
          "name": "D#4",
          "ticks": 305280,
          "time": 246.19305599999998,
          "velocity": 0.5511811023622047
        },
        {
          "duration": 0.23387049999999476,
          "durationTicks": 290,
          "midi": 62,
          "name": "D4",
          "ticks": 306240,
          "time": 246.96724799999998,
          "velocity": 0.5511811023622047
        },
        {
          "duration": 0.23387049999999476,
          "durationTicks": 290,
          "midi": 65,
          "name": "F4",
          "ticks": 306720,
          "time": 247.354344,
          "velocity": 0.5511811023622047
        },
        {
          "duration": 0.6129019999999912,
          "durationTicks": 760,
          "midi": 63,
          "name": "D#4",
          "ticks": 307200,
          "time": 247.74144,
          "velocity": 0.5511811023622047
        },
        {
          "duration": 0.1935479999999643,
          "durationTicks": 240,
          "midi": 63,
          "name": "D#4",
          "ticks": 324000,
          "time": 261.2898,
          "velocity": 0.5905511811023622
        },
        {
          "duration": 0.19354800000002115,
          "durationTicks": 240,
          "midi": 65,
          "name": "F4",
          "ticks": 324240,
          "time": 261.483348,
          "velocity": 0.5905511811023622
        },
        {
          "duration": 0.7096760000000017,
          "durationTicks": 880,
          "midi": 67,
          "name": "G4",
          "ticks": 324480,
          "time": 261.676896,
          "velocity": 0.5905511811023622
        },
        {
          "duration": 0.19354800000002115,
          "durationTicks": 240,
          "midi": 65,
          "name": "F4",
          "ticks": 325440,
          "time": 262.45108799999997,
          "velocity": 0.5905511811023622
        },
        {
          "duration": 0.19354800000002115,
          "durationTicks": 240,
          "midi": 63,
          "name": "D#4",
          "ticks": 325680,
          "time": 262.644636,
          "velocity": 0.5905511811023622
        },
        {
          "duration": 0.1935479999999643,
          "durationTicks": 240,
          "midi": 62,
          "name": "D4",
          "ticks": 325920,
          "time": 262.838184,
          "velocity": 0.5905511811023622
        },
        {
          "duration": 0.19354800000002115,
          "durationTicks": 240,
          "midi": 63,
          "name": "D#4",
          "ticks": 326160,
          "time": 263.031732,
          "velocity": 0.5905511811023622
        },
        {
          "duration": 0.19354800000002115,
          "durationTicks": 240,
          "midi": 67,
          "name": "G4",
          "ticks": 326400,
          "time": 263.22528,
          "velocity": 0.5905511811023622
        },
        {
          "duration": 0.1572577499999852,
          "durationTicks": 195,
          "midi": 65,
          "name": "F4",
          "ticks": 326640,
          "time": 263.418828,
          "velocity": 0.5905511811023622
        },
        {
          "duration": 0.6209665000000086,
          "durationTicks": 770,
          "midi": 65,
          "name": "F4",
          "ticks": 326880,
          "time": 263.612376,
          "velocity": 0.5905511811023622
        },
        {
          "duration": 0.23387049999996634,
          "durationTicks": 290,
          "midi": 62,
          "name": "D4",
          "ticks": 327840,
          "time": 264.386568,
          "velocity": 0.5905511811023622
        },
        {
          "duration": 0.12096750000000611,
          "durationTicks": 150,
          "midi": 51,
          "name": "D#3",
          "ticks": 328320,
          "time": 264.773664,
          "velocity": 0.5905511811023622
        },
        {
          "duration": 0.12096750000000611,
          "durationTicks": 150,
          "midi": 63,
          "name": "D#4",
          "ticks": 328560,
          "time": 264.967212,
          "velocity": 0.5905511811023622
        },
        {
          "duration": 0.12096750000000611,
          "durationTicks": 150,
          "midi": 53,
          "name": "F3",
          "ticks": 328800,
          "time": 265.16076,
          "velocity": 0.5905511811023622
        },
        {
          "duration": 0.12096750000000611,
          "durationTicks": 150,
          "midi": 63,
          "name": "D#4",
          "ticks": 329040,
          "time": 265.354308,
          "velocity": 0.5905511811023622
        },
        {
          "duration": 0.12096749999994927,
          "durationTicks": 150,
          "midi": 55,
          "name": "G3",
          "ticks": 329280,
          "time": 265.547856,
          "velocity": 0.5905511811023622
        },
        {
          "duration": 0.12096750000000611,
          "durationTicks": 150,
          "midi": 63,
          "name": "D#4",
          "ticks": 329520,
          "time": 265.741404,
          "velocity": 0.5905511811023622
        },
        {
          "duration": 0.12096750000000611,
          "durationTicks": 150,
          "midi": 56,
          "name": "G#3",
          "ticks": 329760,
          "time": 265.934952,
          "velocity": 0.5905511811023622
        },
        {
          "duration": 0.12096750000000611,
          "durationTicks": 150,
          "midi": 63,
          "name": "D#4",
          "ticks": 330000,
          "time": 266.1285,
          "velocity": 0.5905511811023622
        },
        {
          "duration": 0.12096750000000611,
          "durationTicks": 150,
          "midi": 58,
          "name": "A#3",
          "ticks": 330240,
          "time": 266.322048,
          "velocity": 0.5905511811023622
        },
        {
          "duration": 0.12096750000000611,
          "durationTicks": 150,
          "midi": 63,
          "name": "D#4",
          "ticks": 330480,
          "time": 266.515596,
          "velocity": 0.5905511811023622
        },
        {
          "duration": 0.12096750000000611,
          "durationTicks": 150,
          "midi": 67,
          "name": "G4",
          "ticks": 330720,
          "time": 266.709144,
          "velocity": 0.5905511811023622
        },
        {
          "duration": 0.12096750000000611,
          "durationTicks": 150,
          "midi": 65,
          "name": "F4",
          "ticks": 330960,
          "time": 266.902692,
          "velocity": 0.5905511811023622
        },
        {
          "duration": 0.1370964999999842,
          "durationTicks": 170,
          "midi": 58,
          "name": "A#3",
          "ticks": 331200,
          "time": 267.09624,
          "velocity": 0.5905511811023622
        },
        {
          "duration": 0.1370964999999842,
          "durationTicks": 170,
          "midi": 64,
          "name": "E4",
          "ticks": 331680,
          "time": 267.483336,
          "velocity": 0.5905511811023622
        },
        {
          "duration": 0.12903199999999515,
          "durationTicks": 160,
          "midi": 65,
          "name": "F4",
          "ticks": 332160,
          "time": 267.870432,
          "velocity": 0.5905511811023622
        },
        {
          "duration": 0.38709599999998545,
          "durationTicks": 480,
          "midi": 62,
          "name": "D4",
          "ticks": 333600,
          "time": 269.03172,
          "velocity": 0.5905511811023622
        },
        {
          "duration": 0.12903199999999515,
          "durationTicks": 160,
          "midi": 63,
          "name": "D#4",
          "ticks": 334080,
          "time": 269.418816,
          "velocity": 0.5905511811023622
        },
        {
          "duration": 0.3233864499999868,
          "durationTicks": 401,
          "midi": 57,
          "name": "A3",
          "ticks": 335520,
          "time": 270.580104,
          "velocity": 0.5905511811023622
        },
        {
          "duration": 0.12903199999999515,
          "durationTicks": 160,
          "midi": 58,
          "name": "A#3",
          "ticks": 336000,
          "time": 270.9672,
          "velocity": 0.5905511811023622
        },
        {
          "duration": 0.129032000000052,
          "durationTicks": 160,
          "midi": 58,
          "name": "A#3",
          "ticks": 336480,
          "time": 271.354296,
          "velocity": 0.5905511811023622
        },
        {
          "duration": 0.12903199999999515,
          "durationTicks": 160,
          "midi": 58,
          "name": "A#3",
          "ticks": 336720,
          "time": 271.547844,
          "velocity": 0.5905511811023622
        },
        {
          "duration": 0.12903199999999515,
          "durationTicks": 160,
          "midi": 46,
          "name": "A#2",
          "ticks": 336960,
          "time": 271.741392,
          "velocity": 0.5905511811023622
        },
        {
          "duration": 0.12903199999999515,
          "durationTicks": 160,
          "midi": 46,
          "name": "A#2",
          "ticks": 337440,
          "time": 272.128488,
          "velocity": 0.5905511811023622
        },
        {
          "duration": 0.6129020000000196,
          "durationTicks": 760,
          "midi": 51,
          "name": "D#3",
          "ticks": 337920,
          "time": 272.515584,
          "velocity": 0.5905511811023622
        },
        {
          "duration": 0.19354800000002115,
          "durationTicks": 240,
          "midi": 60,
          "name": "C4",
          "ticks": 341040,
          "time": 275.031708,
          "velocity": 0.5905511811023622
        },
        {
          "duration": 0.19354800000002115,
          "durationTicks": 240,
          "midi": 62,
          "name": "D4",
          "ticks": 341280,
          "time": 275.225256,
          "velocity": 0.5905511811023622
        },
        {
          "duration": 0.1935479999999643,
          "durationTicks": 240,
          "midi": 63,
          "name": "D#4",
          "ticks": 341520,
          "time": 275.418804,
          "velocity": 0.5905511811023622
        },
        {
          "duration": 0.7741920000000277,
          "durationTicks": 960,
          "midi": 65,
          "name": "F4",
          "ticks": 341760,
          "time": 275.612352,
          "velocity": 0.5905511811023622
        },
        {
          "duration": 0.1370964999999842,
          "durationTicks": 170,
          "midi": 63,
          "name": "D#4",
          "ticks": 342720,
          "time": 276.386544,
          "velocity": 0.5905511811023622
        },
        {
          "duration": 0.19354800000002115,
          "durationTicks": 240,
          "midi": 58,
          "name": "A#3",
          "ticks": 344880,
          "time": 278.128476,
          "velocity": 0.5905511811023622
        },
        {
          "duration": 0.19354800000002115,
          "durationTicks": 240,
          "midi": 60,
          "name": "C4",
          "ticks": 345120,
          "time": 278.322024,
          "velocity": 0.5905511811023622
        },
        {
          "duration": 0.1935479999999643,
          "durationTicks": 240,
          "midi": 62,
          "name": "D4",
          "ticks": 345360,
          "time": 278.515572,
          "velocity": 0.5905511811023622
        },
        {
          "duration": 0.7741920000000277,
          "durationTicks": 960,
          "midi": 63,
          "name": "D#4",
          "ticks": 345600,
          "time": 278.70912,
          "velocity": 0.5905511811023622
        },
        {
          "duration": 0.1370964999999842,
          "durationTicks": 170,
          "midi": 62,
          "name": "D4",
          "ticks": 346560,
          "time": 279.483312,
          "velocity": 0.5905511811023622
        },
        {
          "duration": 0.38387019999998984,
          "durationTicks": 476,
          "midi": 64,
          "name": "E4",
          "ticks": 347040,
          "time": 279.870408,
          "velocity": 0.5905511811023622
        },
        {
          "duration": 0.129032000000052,
          "durationTicks": 160,
          "midi": 65,
          "name": "F4",
          "ticks": 347520,
          "time": 280.257504,
          "velocity": 0.5905511811023622
        },
        {
          "duration": 0.38709599999998545,
          "durationTicks": 480,
          "midi": 62,
          "name": "D4",
          "ticks": 348960,
          "time": 281.418792,
          "velocity": 0.5905511811023622
        },
        {
          "duration": 0.129032000000052,
          "durationTicks": 160,
          "midi": 63,
          "name": "D#4",
          "ticks": 349440,
          "time": 281.805888,
          "velocity": 0.5905511811023622
        },
        {
          "duration": 0.3233864499999868,
          "durationTicks": 401,
          "midi": 57,
          "name": "A3",
          "ticks": 350880,
          "time": 282.967176,
          "velocity": 0.5905511811023622
        },
        {
          "duration": 0.129032000000052,
          "durationTicks": 160,
          "midi": 58,
          "name": "A#3",
          "ticks": 351360,
          "time": 283.354272,
          "velocity": 0.5905511811023622
        },
        {
          "duration": 0.12903199999999515,
          "durationTicks": 160,
          "midi": 58,
          "name": "A#3",
          "ticks": 351840,
          "time": 283.741368,
          "velocity": 0.5905511811023622
        },
        {
          "duration": 0.129032000000052,
          "durationTicks": 160,
          "midi": 58,
          "name": "A#3",
          "ticks": 352080,
          "time": 283.934916,
          "velocity": 0.5905511811023622
        },
        {
          "duration": 0.12903199999999515,
          "durationTicks": 160,
          "midi": 46,
          "name": "A#2",
          "ticks": 352320,
          "time": 284.128464,
          "velocity": 0.5905511811023622
        },
        {
          "duration": 0.12903199999999515,
          "durationTicks": 160,
          "midi": 46,
          "name": "A#2",
          "ticks": 352800,
          "time": 284.51556,
          "velocity": 0.5905511811023622
        },
        {
          "duration": 0.6129020000000196,
          "durationTicks": 760,
          "midi": 51,
          "name": "D#3",
          "ticks": 353280,
          "time": 284.902656,
          "velocity": 0.5905511811023622
        },
        {
          "duration": 0.23387050000002318,
          "durationTicks": 290,
          "midi": 58,
          "name": "A#3",
          "ticks": 370080,
          "time": 298.451016,
          "velocity": 0.5905511811023622
        },
        {
          "duration": 0.38709599999998545,
          "durationTicks": 480,
          "midi": 58,
          "name": "A#3",
          "ticks": 370560,
          "time": 298.838112,
          "velocity": 0.5905511811023622
        },
        {
          "duration": 0.3225800000000163,
          "durationTicks": 400,
          "midi": 63,
          "name": "D#4",
          "ticks": 371040,
          "time": 299.225208,
          "velocity": 0.5905511811023622
        },
        {
          "duration": 0.1370964999999842,
          "durationTicks": 170,
          "midi": 63,
          "name": "D#4",
          "ticks": 371520,
          "time": 299.612304,
          "velocity": 0.5905511811023622
        },
        {
          "duration": 0.1370964999999842,
          "durationTicks": 170,
          "midi": 58,
          "name": "A#3",
          "ticks": 372000,
          "time": 299.9994,
          "velocity": 0.5905511811023622
        },
        {
          "duration": 0.38709599999998545,
          "durationTicks": 480,
          "midi": 58,
          "name": "A#3",
          "ticks": 372480,
          "time": 300.386496,
          "velocity": 0.5905511811023622
        },
        {
          "duration": 0.3225800000000163,
          "durationTicks": 400,
          "midi": 65,
          "name": "F4",
          "ticks": 372960,
          "time": 300.773592,
          "velocity": 0.5905511811023622
        },
        {
          "duration": 0.1370964999999842,
          "durationTicks": 170,
          "midi": 65,
          "name": "F4",
          "ticks": 373440,
          "time": 301.160688,
          "velocity": 0.5905511811023622
        },
        {
          "duration": 0.1370964999999842,
          "durationTicks": 170,
          "midi": 58,
          "name": "A#3",
          "ticks": 373920,
          "time": 301.547784,
          "velocity": 0.5905511811023622
        },
        {
          "duration": 0.1370964999999842,
          "durationTicks": 170,
          "midi": 67,
          "name": "G4",
          "ticks": 374400,
          "time": 301.93488,
          "velocity": 0.5905511811023622
        },
        {
          "duration": 0.1370964999999842,
          "durationTicks": 170,
          "midi": 67,
          "name": "G4",
          "ticks": 374880,
          "time": 302.321976,
          "velocity": 0.5905511811023622
        },
        {
          "duration": 0.1370964999999842,
          "durationTicks": 170,
          "midi": 65,
          "name": "F4",
          "ticks": 375360,
          "time": 302.709072,
          "velocity": 0.5905511811023622
        },
        {
          "duration": 0.1370964999999842,
          "durationTicks": 170,
          "midi": 65,
          "name": "F4",
          "ticks": 375840,
          "time": 303.096168,
          "velocity": 0.5905511811023622
        },
        {
          "duration": 0.7741919999999709,
          "durationTicks": 960,
          "midi": 63,
          "name": "D#4",
          "ticks": 376320,
          "time": 303.483264,
          "velocity": 0.5905511811023622
        },
        {
          "duration": 0.12903199999999515,
          "durationTicks": 160,
          "midi": 62,
          "name": "D4",
          "ticks": 377280,
          "time": 304.257456,
          "velocity": 0.5905511811023622
        },
        {
          "duration": 0.38709599999998545,
          "durationTicks": 480,
          "midi": 64,
          "name": "E4",
          "ticks": 378240,
          "time": 305.031648,
          "velocity": 0.5905511811023622
        },
        {
          "duration": 0.38709599999998545,
          "durationTicks": 480,
          "midi": 67,
          "name": "G4",
          "ticks": 378720,
          "time": 305.418744,
          "velocity": 0.5905511811023622
        },
        {
          "duration": 0.6129020000000196,
          "durationTicks": 760,
          "midi": 65,
          "name": "F4",
          "ticks": 379200,
          "time": 305.80584,
          "velocity": 0.5905511811023622
        },
        {
          "duration": 0.38709599999998545,
          "durationTicks": 480,
          "midi": 62,
          "name": "D4",
          "ticks": 380160,
          "time": 306.580032,
          "velocity": 0.5905511811023622
        },
        {
          "duration": 0.38709599999998545,
          "durationTicks": 480,
          "midi": 65,
          "name": "F4",
          "ticks": 380640,
          "time": 306.967128,
          "velocity": 0.5905511811023622
        },
        {
          "duration": 0.6129020000000196,
          "durationTicks": 760,
          "midi": 63,
          "name": "D#4",
          "ticks": 381120,
          "time": 307.354224,
          "velocity": 0.5905511811023622
        },
        {
          "duration": 0.12903199999999515,
          "durationTicks": 160,
          "midi": 56,
          "name": "G#3",
          "ticks": 382560,
          "time": 308.515512,
          "velocity": 0.5905511811023622
        },
        {
          "duration": 0.129032000000052,
          "durationTicks": 160,
          "midi": 58,
          "name": "A#3",
          "ticks": 383520,
          "time": 309.289704,
          "velocity": 0.5905511811023622
        },
        {
          "duration": 0.6129020000000196,
          "durationTicks": 760,
          "midi": 51,
          "name": "D#3",
          "ticks": 384000,
          "time": 309.6768,
          "velocity": 0.5905511811023622
        },
        {
          "duration": 0.23387049999996634,
          "durationTicks": 290,
          "midi": 67,
          "name": "G4",
          "ticks": 385920,
          "time": 311.225184,
          "velocity": 0.5905511811023622
        },
        {
          "duration": 0.6129020000000196,
          "durationTicks": 760,
          "midi": 67,
          "name": "G4",
          "ticks": 386400,
          "time": 311.61228,
          "velocity": 0.5905511811023622
        },
        {
          "duration": 0.2903220000000033,
          "durationTicks": 360,
          "midi": 65,
          "name": "F4",
          "ticks": 387360,
          "time": 312.38647199999997,
          "velocity": 0.5905511811023622
        },
        {
          "duration": 0.09354820000004338,
          "durationTicks": 116,
          "midi": 67,
          "name": "G4",
          "ticks": 387720,
          "time": 312.676794,
          "velocity": 0.5905511811023622
        },
        {
          "duration": 0.1935479999999643,
          "durationTicks": 240,
          "midi": 65,
          "name": "F4",
          "ticks": 387840,
          "time": 312.773568,
          "velocity": 0.5905511811023622
        },
        {
          "duration": 0.1370964999999842,
          "durationTicks": 170,
          "midi": 63,
          "name": "D#4",
          "ticks": 388080,
          "time": 312.967116,
          "velocity": 0.5905511811023622
        },
        {
          "duration": 0.6129020000000196,
          "durationTicks": 760,
          "midi": 63,
          "name": "D#4",
          "ticks": 388320,
          "time": 313.160664,
          "velocity": 0.5905511811023622
        },
        {
          "duration": 0.32257999999995945,
          "durationTicks": 400,
          "midi": 64,
          "name": "E4",
          "ticks": 389280,
          "time": 313.934856,
          "velocity": 0.5905511811023622
        },
        {
          "duration": 0.23387049999996634,
          "durationTicks": 290,
          "midi": 65,
          "name": "F4",
          "ticks": 389760,
          "time": 314.321952,
          "velocity": 0.5905511811023622
        },
        {
          "duration": 0.6129020000000196,
          "durationTicks": 760,
          "midi": 65,
          "name": "F4",
          "ticks": 390240,
          "time": 314.709048,
          "velocity": 0.5905511811023622
        },
        {
          "duration": 0.29032199999994646,
          "durationTicks": 360,
          "midi": 63,
          "name": "D#4",
          "ticks": 391200,
          "time": 315.48324,
          "velocity": 0.5905511811023622
        },
        {
          "duration": 0.09354820000004338,
          "durationTicks": 116,
          "midi": 65,
          "name": "F4",
          "ticks": 391560,
          "time": 315.77356199999997,
          "velocity": 0.5905511811023622
        },
        {
          "duration": 0.1935479999999643,
          "durationTicks": 240,
          "midi": 63,
          "name": "D#4",
          "ticks": 391680,
          "time": 315.870336,
          "velocity": 0.5905511811023622
        },
        {
          "duration": 0.1370964999999842,
          "durationTicks": 170,
          "midi": 62,
          "name": "D4",
          "ticks": 391920,
          "time": 316.063884,
          "velocity": 0.5905511811023622
        },
        {
          "duration": 0.6129020000000196,
          "durationTicks": 760,
          "midi": 62,
          "name": "D4",
          "ticks": 392160,
          "time": 316.257432,
          "velocity": 0.5905511811023622
        },
        {
          "duration": 0.38709599999998545,
          "durationTicks": 480,
          "midi": 64,
          "name": "E4",
          "ticks": 393600,
          "time": 317.41872,
          "velocity": 0.5905511811023622
        },
        {
          "duration": 0.38709599999998545,
          "durationTicks": 480,
          "midi": 67,
          "name": "G4",
          "ticks": 394080,
          "time": 317.805816,
          "velocity": 0.5905511811023622
        },
        {
          "duration": 0.6129020000000196,
          "durationTicks": 760,
          "midi": 65,
          "name": "F4",
          "ticks": 394560,
          "time": 318.192912,
          "velocity": 0.5905511811023622
        },
        {
          "duration": 0.38709599999998545,
          "durationTicks": 480,
          "midi": 62,
          "name": "D4",
          "ticks": 395520,
          "time": 318.967104,
          "velocity": 0.5905511811023622
        },
        {
          "duration": 0.38709599999998545,
          "durationTicks": 480,
          "midi": 65,
          "name": "F4",
          "ticks": 396000,
          "time": 319.3542,
          "velocity": 0.5905511811023622
        },
        {
          "duration": 0.6129020000000196,
          "durationTicks": 760,
          "midi": 63,
          "name": "D#4",
          "ticks": 396480,
          "time": 319.741296,
          "velocity": 0.5905511811023622
        },
        {
          "duration": 0.12903199999999515,
          "durationTicks": 160,
          "midi": 56,
          "name": "G#3",
          "ticks": 397920,
          "time": 320.902584,
          "velocity": 0.5905511811023622
        },
        {
          "duration": 0.12903199999999515,
          "durationTicks": 160,
          "midi": 58,
          "name": "A#3",
          "ticks": 398880,
          "time": 321.676776,
          "velocity": 0.5905511811023622
        },
        {
          "duration": 0.6129020000000196,
          "durationTicks": 760,
          "midi": 51,
          "name": "D#3",
          "ticks": 399360,
          "time": 322.063872,
          "velocity": 0.5905511811023622
        },
        {
          "duration": 0.19354800000002115,
          "durationTicks": 240,
          "midi": 48,
          "name": "C3",
          "ticks": 420480,
          "time": 339.096096,
          "velocity": 0.5905511811023622
        },
        {
          "duration": 0.09677399999998215,
          "durationTicks": 120,
          "midi": 50,
          "name": "D3",
          "ticks": 420720,
          "time": 339.289644,
          "velocity": 0.5905511811023622
        },
        {
          "duration": 0.09677399999998215,
          "durationTicks": 120,
          "midi": 51,
          "name": "D#3",
          "ticks": 420840,
          "time": 339.386418,
          "velocity": 0.5905511811023622
        },
        {
          "duration": 0.096774000000039,
          "durationTicks": 120,
          "midi": 53,
          "name": "F3",
          "ticks": 420960,
          "time": 339.483192,
          "velocity": 0.5905511811023622
        },
        {
          "duration": 0.09677399999998215,
          "durationTicks": 120,
          "midi": 55,
          "name": "G3",
          "ticks": 421080,
          "time": 339.579966,
          "velocity": 0.5905511811023622
        },
        {
          "duration": 0.09677399999998215,
          "durationTicks": 120,
          "midi": 57,
          "name": "A3",
          "ticks": 421200,
          "time": 339.67674,
          "velocity": 0.5905511811023622
        },
        {
          "duration": 0.096774000000039,
          "durationTicks": 120,
          "midi": 59,
          "name": "B3",
          "ticks": 421320,
          "time": 339.773514,
          "velocity": 0.5905511811023622
        },
        {
          "duration": 0.1370964999999842,
          "durationTicks": 170,
          "midi": 60,
          "name": "C4",
          "ticks": 421440,
          "time": 339.870288,
          "velocity": 0.5905511811023622
        },
        {
          "duration": 0.1370964999999842,
          "durationTicks": 170,
          "midi": 62,
          "name": "D4",
          "ticks": 421680,
          "time": 340.063836,
          "velocity": 0.5905511811023622
        },
        {
          "duration": 0.1370964999999842,
          "durationTicks": 170,
          "midi": 63,
          "name": "D#4",
          "ticks": 421920,
          "time": 340.257384,
          "velocity": 0.5905511811023622
        },
        {
          "duration": 0.1370964999999842,
          "durationTicks": 170,
          "midi": 57,
          "name": "A3",
          "ticks": 422160,
          "time": 340.450932,
          "velocity": 0.5905511811023622
        },
        {
          "duration": 0.1572577499999852,
          "durationTicks": 195,
          "midi": 60,
          "name": "C4",
          "ticks": 422400,
          "time": 340.64448,
          "velocity": 0.5905511811023622
        },
        {
          "duration": 0.1572577499999852,
          "durationTicks": 195,
          "midi": 58,
          "name": "A#3",
          "ticks": 422640,
          "time": 340.838028,
          "velocity": 0.5905511811023622
        },
        {
          "duration": 0.6129020000000196,
          "durationTicks": 760,
          "midi": 58,
          "name": "A#3",
          "ticks": 422880,
          "time": 341.031576,
          "velocity": 0.5905511811023622
        },
        {
          "duration": 0.7741920000000277,
          "durationTicks": 960,
          "midi": 67,
          "name": "G4",
          "ticks": 424320,
          "time": 342.192864,
          "velocity": 0.5905511811023622
        },
        {
          "duration": 0.1370964999999842,
          "durationTicks": 170,
          "midi": 65,
          "name": "F4",
          "ticks": 425280,
          "time": 342.967056,
          "velocity": 0.5905511811023622
        },
        {
          "duration": 0.7741920000000277,
          "durationTicks": 960,
          "midi": 65,
          "name": "F4",
          "ticks": 426240,
          "time": 343.741248,
          "velocity": 0.5905511811023622
        },
        {
          "duration": 0.1370964999999842,
          "durationTicks": 170,
          "midi": 63,
          "name": "D#4",
          "ticks": 427200,
          "time": 344.51544,
          "velocity": 0.5905511811023622
        },
        {
          "duration": 0.129032000000052,
          "durationTicks": 160,
          "midi": 56,
          "name": "G#3",
          "ticks": 428160,
          "time": 345.289632,
          "velocity": 0.5905511811023622
        },
        {
          "duration": 0.12903199999999515,
          "durationTicks": 160,
          "midi": 58,
          "name": "A#3",
          "ticks": 429120,
          "time": 346.063824,
          "velocity": 0.5905511811023622
        },
        {
          "duration": 0.6129020000000196,
          "durationTicks": 760,
          "midi": 51,
          "name": "D#3",
          "ticks": 430080,
          "time": 346.838016,
          "velocity": 0.5905511811023622
        },
        {
          "duration": 0.19354800000002115,
          "durationTicks": 240,
          "midi": 63,
          "name": "D#4",
          "ticks": 431280,
          "time": 347.805756,
          "velocity": 0.5905511811023622
        },
        {
          "duration": 0.19354800000002115,
          "durationTicks": 240,
          "midi": 62,
          "name": "D4",
          "ticks": 431520,
          "time": 347.999304,
          "velocity": 0.5905511811023622
        },
        {
          "duration": 0.1935479999999643,
          "durationTicks": 240,
          "midi": 60,
          "name": "C4",
          "ticks": 431760,
          "time": 348.192852,
          "velocity": 0.5905511811023622
        },
        {
          "duration": 1.5483839999999987,
          "durationTicks": 1920,
          "midi": 59,
          "name": "B3",
          "ticks": 432000,
          "time": 348.3864,
          "velocity": 0.5905511811023622
        },
        {
          "duration": 0.1370964999999842,
          "durationTicks": 170,
          "midi": 60,
          "name": "C4",
          "ticks": 433920,
          "time": 349.934784,
          "velocity": 0.5905511811023622
        },
        {
          "duration": 0.09677399999998215,
          "durationTicks": 120,
          "midi": 60,
          "name": "C4",
          "ticks": 434880,
          "time": 350.708976,
          "velocity": 0.5905511811023622
        },
        {
          "duration": 0.09677399999998215,
          "durationTicks": 120,
          "midi": 63,
          "name": "D#4",
          "ticks": 435000,
          "time": 350.80575,
          "velocity": 0.5905511811023622
        },
        {
          "duration": 0.096774000000039,
          "durationTicks": 120,
          "midi": 67,
          "name": "G4",
          "ticks": 435120,
          "time": 350.90252399999997,
          "velocity": 0.5905511811023622
        },
        {
          "duration": 0.09677399999998215,
          "durationTicks": 120,
          "midi": 65,
          "name": "F4",
          "ticks": 435240,
          "time": 350.999298,
          "velocity": 0.5905511811023622
        },
        {
          "duration": 0.09677399999998215,
          "durationTicks": 120,
          "midi": 63,
          "name": "D#4",
          "ticks": 435360,
          "time": 351.096072,
          "velocity": 0.5905511811023622
        },
        {
          "duration": 0.096774000000039,
          "durationTicks": 120,
          "midi": 62,
          "name": "D4",
          "ticks": 435480,
          "time": 351.192846,
          "velocity": 0.5905511811023622
        },
        {
          "duration": 0.09677399999998215,
          "durationTicks": 120,
          "midi": 60,
          "name": "C4",
          "ticks": 435600,
          "time": 351.28962,
          "velocity": 0.5905511811023622
        },
        {
          "duration": 0.048386999999991076,
          "durationTicks": 60,
          "midi": 58,
          "name": "A#3",
          "ticks": 435720,
          "time": 351.386394,
          "velocity": 0.5905511811023622
        },
        {
          "duration": 1.5483839999999987,
          "durationTicks": 1920,
          "midi": 57,
          "name": "A3",
          "ticks": 435840,
          "time": 351.483168,
          "velocity": 0.5905511811023622
        },
        {
          "duration": 0.1370964999999842,
          "durationTicks": 170,
          "midi": 58,
          "name": "A#3",
          "ticks": 437760,
          "time": 353.031552,
          "velocity": 0.5905511811023622
        },
        {
          "duration": 0.7741920000000277,
          "durationTicks": 960,
          "midi": 67,
          "name": "G4",
          "ticks": 439680,
          "time": 354.579936,
          "velocity": 0.5905511811023622
        },
        {
          "duration": 0.1370964999999842,
          "durationTicks": 170,
          "midi": 65,
          "name": "F4",
          "ticks": 440640,
          "time": 355.354128,
          "velocity": 0.5905511811023622
        },
        {
          "duration": 0.7741920000000277,
          "durationTicks": 960,
          "midi": 65,
          "name": "F4",
          "ticks": 441600,
          "time": 356.12832,
          "velocity": 0.5905511811023622
        },
        {
          "duration": 0.1370964999999842,
          "durationTicks": 170,
          "midi": 63,
          "name": "D#4",
          "ticks": 442560,
          "time": 356.902512,
          "velocity": 0.5905511811023622
        },
        {
          "duration": 0.129032000000052,
          "durationTicks": 160,
          "midi": 56,
          "name": "G#3",
          "ticks": 443520,
          "time": 357.676704,
          "velocity": 0.5905511811023622
        },
        {
          "duration": 0.12903199999999515,
          "durationTicks": 160,
          "midi": 58,
          "name": "A#3",
          "ticks": 444480,
          "time": 358.450896,
          "velocity": 0.5905511811023622
        },
        {
          "duration": 0.6129020000000196,
          "durationTicks": 760,
          "midi": 51,
          "name": "D#3",
          "ticks": 445440,
          "time": 359.22508799999997,
          "velocity": 0.5905511811023622
        },
        {
          "duration": 0.12096750000000611,
          "durationTicks": 150,
          "midi": 51,
          "name": "D#3",
          "ticks": 462960,
          "time": 373.354092,
          "velocity": 0.6299212598425197
        },
        {
          "duration": 0.12096750000000611,
          "durationTicks": 150,
          "midi": 55,
          "name": "G3",
          "ticks": 463200,
          "time": 373.54764,
          "velocity": 0.6299212598425197
        },
        {
          "duration": 0.12096749999994927,
          "durationTicks": 150,
          "midi": 58,
          "name": "A#3",
          "ticks": 463440,
          "time": 373.741188,
          "velocity": 0.6299212598425197
        },
        {
          "duration": 0.12096750000000611,
          "durationTicks": 150,
          "midi": 55,
          "name": "G3",
          "ticks": 463680,
          "time": 373.934736,
          "velocity": 0.6299212598425197
        },
        {
          "duration": 0.12096750000000611,
          "durationTicks": 150,
          "midi": 58,
          "name": "A#3",
          "ticks": 463920,
          "time": 374.128284,
          "velocity": 0.6299212598425197
        },
        {
          "duration": 0.12096750000000611,
          "durationTicks": 150,
          "midi": 55,
          "name": "G3",
          "ticks": 464160,
          "time": 374.321832,
          "velocity": 0.6299212598425197
        },
        {
          "duration": 0.12096750000000611,
          "durationTicks": 150,
          "midi": 51,
          "name": "D#3",
          "ticks": 464400,
          "time": 374.51538,
          "velocity": 0.6299212598425197
        },
        {
          "duration": 0.12096750000000611,
          "durationTicks": 150,
          "midi": 50,
          "name": "D3",
          "ticks": 464880,
          "time": 374.902476,
          "velocity": 0.6299212598425197
        },
        {
          "duration": 0.12096750000000611,
          "durationTicks": 150,
          "midi": 53,
          "name": "F3",
          "ticks": 465120,
          "time": 375.096024,
          "velocity": 0.6299212598425197
        },
        {
          "duration": 0.12096749999994927,
          "durationTicks": 150,
          "midi": 58,
          "name": "A#3",
          "ticks": 465360,
          "time": 375.289572,
          "velocity": 0.6299212598425197
        },
        {
          "duration": 0.12096750000000611,
          "durationTicks": 150,
          "midi": 53,
          "name": "F3",
          "ticks": 465600,
          "time": 375.48312,
          "velocity": 0.6299212598425197
        },
        {
          "duration": 0.12096750000000611,
          "durationTicks": 150,
          "midi": 58,
          "name": "A#3",
          "ticks": 465840,
          "time": 375.676668,
          "velocity": 0.6299212598425197
        },
        {
          "duration": 0.12096750000000611,
          "durationTicks": 150,
          "midi": 53,
          "name": "F3",
          "ticks": 466080,
          "time": 375.87021599999997,
          "velocity": 0.6299212598425197
        },
        {
          "duration": 0.12096750000000611,
          "durationTicks": 150,
          "midi": 50,
          "name": "D3",
          "ticks": 466320,
          "time": 376.063764,
          "velocity": 0.6299212598425197
        },
        {
          "duration": 0.12096750000000611,
          "durationTicks": 150,
          "midi": 51,
          "name": "D#3",
          "ticks": 466800,
          "time": 376.45086,
          "velocity": 0.6299212598425197
        },
        {
          "duration": 0.12096750000000611,
          "durationTicks": 150,
          "midi": 55,
          "name": "G3",
          "ticks": 467040,
          "time": 376.644408,
          "velocity": 0.6299212598425197
        },
        {
          "duration": 0.12096749999994927,
          "durationTicks": 150,
          "midi": 58,
          "name": "A#3",
          "ticks": 467280,
          "time": 376.837956,
          "velocity": 0.6299212598425197
        },
        {
          "duration": 0.12096750000000611,
          "durationTicks": 150,
          "midi": 55,
          "name": "G3",
          "ticks": 467520,
          "time": 377.031504,
          "velocity": 0.6299212598425197
        },
        {
          "duration": 0.12096750000000611,
          "durationTicks": 150,
          "midi": 51,
          "name": "D#3",
          "ticks": 467760,
          "time": 377.225052,
          "velocity": 0.6299212598425197
        },
        {
          "duration": 0.12096750000000611,
          "durationTicks": 150,
          "midi": 44,
          "name": "G#2",
          "ticks": 468000,
          "time": 377.41859999999997,
          "velocity": 0.6299212598425197
        },
        {
          "duration": 0.12096750000000611,
          "durationTicks": 150,
          "midi": 48,
          "name": "C3",
          "ticks": 468240,
          "time": 377.612148,
          "velocity": 0.6299212598425197
        },
        {
          "duration": 0.12096750000000611,
          "durationTicks": 150,
          "midi": 46,
          "name": "A#2",
          "ticks": 468480,
          "time": 377.805696,
          "velocity": 0.6299212598425197
        },
        {
          "duration": 0.12096750000000611,
          "durationTicks": 150,
          "midi": 53,
          "name": "F3",
          "ticks": 468720,
          "time": 377.999244,
          "velocity": 0.6299212598425197
        },
        {
          "duration": 0.12096750000000611,
          "durationTicks": 150,
          "midi": 50,
          "name": "D3",
          "ticks": 468960,
          "time": 378.192792,
          "velocity": 0.6299212598425197
        },
        {
          "duration": 0.12096749999994927,
          "durationTicks": 150,
          "midi": 53,
          "name": "F3",
          "ticks": 469200,
          "time": 378.38634,
          "velocity": 0.6299212598425197
        },
        {
          "duration": 0.12096750000000611,
          "durationTicks": 150,
          "midi": 46,
          "name": "A#2",
          "ticks": 469440,
          "time": 378.579888,
          "velocity": 0.6299212598425197
        },
        {
          "duration": 0.12096750000000611,
          "durationTicks": 150,
          "midi": 52,
          "name": "E3",
          "ticks": 470400,
          "time": 379.35408,
          "velocity": 0.6299212598425197
        },
        {
          "duration": 0.12096750000000611,
          "durationTicks": 150,
          "midi": 60,
          "name": "C4",
          "ticks": 470640,
          "time": 379.547628,
          "velocity": 0.6299212598425197
        },
        {
          "duration": 0.12096750000000611,
          "durationTicks": 150,
          "midi": 55,
          "name": "G3",
          "ticks": 470880,
          "time": 379.741176,
          "velocity": 0.6299212598425197
        },
        {
          "duration": 0.12096750000000611,
          "durationTicks": 150,
          "midi": 60,
          "name": "C4",
          "ticks": 471120,
          "time": 379.934724,
          "velocity": 0.6299212598425197
        },
        {
          "duration": 0.12096750000000611,
          "durationTicks": 150,
          "midi": 53,
          "name": "F3",
          "ticks": 471360,
          "time": 380.128272,
          "velocity": 0.6299212598425197
        },
        {
          "duration": 0.12096750000000611,
          "durationTicks": 150,
          "midi": 60,
          "name": "C4",
          "ticks": 471600,
          "time": 380.32182,
          "velocity": 0.6299212598425197
        },
        {
          "duration": 0.12096749999994927,
          "durationTicks": 150,
          "midi": 56,
          "name": "G#3",
          "ticks": 471840,
          "time": 380.515368,
          "velocity": 0.6299212598425197
        },
        {
          "duration": 0.12096750000000611,
          "durationTicks": 150,
          "midi": 60,
          "name": "C4",
          "ticks": 472080,
          "time": 380.708916,
          "velocity": 0.6299212598425197
        },
        {
          "duration": 0.12096750000000611,
          "durationTicks": 150,
          "midi": 50,
          "name": "D3",
          "ticks": 472320,
          "time": 380.902464,
          "velocity": 0.6299212598425197
        },
        {
          "duration": 0.12096750000000611,
          "durationTicks": 150,
          "midi": 58,
          "name": "A#3",
          "ticks": 472560,
          "time": 381.096012,
          "velocity": 0.6299212598425197
        },
        {
          "duration": 0.12096750000000611,
          "durationTicks": 150,
          "midi": 53,
          "name": "F3",
          "ticks": 472800,
          "time": 381.28956,
          "velocity": 0.6299212598425197
        },
        {
          "duration": 0.12096750000000611,
          "durationTicks": 150,
          "midi": 58,
          "name": "A#3",
          "ticks": 473040,
          "time": 381.483108,
          "velocity": 0.6299212598425197
        },
        {
          "duration": 0.12096750000000611,
          "durationTicks": 150,
          "midi": 51,
          "name": "D#3",
          "ticks": 473280,
          "time": 381.676656,
          "velocity": 0.6299212598425197
        },
        {
          "duration": 0.12096750000000611,
          "durationTicks": 150,
          "midi": 58,
          "name": "A#3",
          "ticks": 473520,
          "time": 381.870204,
          "velocity": 0.6299212598425197
        },
        {
          "duration": 0.12096749999994927,
          "durationTicks": 150,
          "midi": 55,
          "name": "G3",
          "ticks": 473760,
          "time": 382.063752,
          "velocity": 0.6299212598425197
        },
        {
          "duration": 0.12096750000000611,
          "durationTicks": 150,
          "midi": 58,
          "name": "A#3",
          "ticks": 474000,
          "time": 382.2573,
          "velocity": 0.6299212598425197
        },
        {
          "duration": 0.12096750000000611,
          "durationTicks": 150,
          "midi": 44,
          "name": "G#2",
          "ticks": 474240,
          "time": 382.450848,
          "velocity": 0.6299212598425197
        },
        {
          "duration": 0.12096750000000611,
          "durationTicks": 150,
          "midi": 53,
          "name": "F3",
          "ticks": 474480,
          "time": 382.644396,
          "velocity": 0.6299212598425197
        },
        {
          "duration": 0.12096750000000611,
          "durationTicks": 150,
          "midi": 48,
          "name": "C3",
          "ticks": 474720,
          "time": 382.837944,
          "velocity": 0.6299212598425197
        },
        {
          "duration": 0.12096750000000611,
          "durationTicks": 150,
          "midi": 53,
          "name": "F3",
          "ticks": 474960,
          "time": 383.031492,
          "velocity": 0.6299212598425197
        },
        {
          "duration": 0.12096750000000611,
          "durationTicks": 150,
          "midi": 46,
          "name": "A#2",
          "ticks": 475200,
          "time": 383.22504,
          "velocity": 0.6299212598425197
        },
        {
          "duration": 0.12096750000000611,
          "durationTicks": 150,
          "midi": 53,
          "name": "F3",
          "ticks": 475440,
          "time": 383.418588,
          "velocity": 0.6299212598425197
        },
        {
          "duration": 0.12096749999994927,
          "durationTicks": 150,
          "midi": 50,
          "name": "D3",
          "ticks": 475680,
          "time": 383.612136,
          "velocity": 0.6299212598425197
        },
        {
          "duration": 0.12096750000000611,
          "durationTicks": 150,
          "midi": 53,
          "name": "F3",
          "ticks": 475920,
          "time": 383.805684,
          "velocity": 0.6299212598425197
        },
        {
          "duration": 0.12096750000000611,
          "durationTicks": 150,
          "midi": 51,
          "name": "D#3",
          "ticks": 476160,
          "time": 383.999232,
          "velocity": 0.6299212598425197
        },
        {
          "duration": 0.12096750000000611,
          "durationTicks": 150,
          "midi": 58,
          "name": "A#3",
          "ticks": 476400,
          "time": 384.19277999999997,
          "velocity": 0.6299212598425197
        },
        {
          "duration": 0.12096750000000611,
          "durationTicks": 150,
          "midi": 55,
          "name": "G3",
          "ticks": 476640,
          "time": 384.386328,
          "velocity": 0.6299212598425197
        },
        {
          "duration": 0.12096750000000611,
          "durationTicks": 150,
          "midi": 58,
          "name": "A#3",
          "ticks": 476880,
          "time": 384.579876,
          "velocity": 0.6299212598425197
        },
        {
          "duration": 0.12096750000000611,
          "durationTicks": 150,
          "midi": 51,
          "name": "D#3",
          "ticks": 477120,
          "time": 384.773424,
          "velocity": 0.6299212598425197
        },
        {
          "duration": 0.12096750000000611,
          "durationTicks": 150,
          "midi": 55,
          "name": "G3",
          "ticks": 478320,
          "time": 385.74116399999997,
          "velocity": 0.6299212598425197
        },
        {
          "duration": 0.12096750000000611,
          "durationTicks": 150,
          "midi": 59,
          "name": "B3",
          "ticks": 478560,
          "time": 385.934712,
          "velocity": 0.6299212598425197
        },
        {
          "duration": 0.12096750000000611,
          "durationTicks": 150,
          "midi": 62,
          "name": "D4",
          "ticks": 478800,
          "time": 386.12826,
          "velocity": 0.6299212598425197
        },
        {
          "duration": 0.12096750000000611,
          "durationTicks": 150,
          "midi": 55,
          "name": "G3",
          "ticks": 479040,
          "time": 386.321808,
          "velocity": 0.6299212598425197
        },
        {
          "duration": 0.12096750000000611,
          "durationTicks": 150,
          "midi": 62,
          "name": "D4",
          "ticks": 479280,
          "time": 386.515356,
          "velocity": 0.6299212598425197
        },
        {
          "duration": 0.12096749999994927,
          "durationTicks": 150,
          "midi": 59,
          "name": "B3",
          "ticks": 479520,
          "time": 386.708904,
          "velocity": 0.6299212598425197
        },
        {
          "duration": 0.12096750000000611,
          "durationTicks": 150,
          "midi": 55,
          "name": "G3",
          "ticks": 479760,
          "time": 386.902452,
          "velocity": 0.6299212598425197
        },
        {
          "duration": 0.12096750000000611,
          "durationTicks": 150,
          "midi": 60,
          "name": "C4",
          "ticks": 480240,
          "time": 387.28954799999997,
          "velocity": 0.6299212598425197
        },
        {
          "duration": 0.12096750000000611,
          "durationTicks": 150,
          "midi": 63,
          "name": "D#4",
          "ticks": 480480,
          "time": 387.483096,
          "velocity": 0.6299212598425197
        },
        {
          "duration": 0.12096750000000611,
          "durationTicks": 150,
          "midi": 67,
          "name": "G4",
          "ticks": 480720,
          "time": 387.676644,
          "velocity": 0.6299212598425197
        },
        {
          "duration": 0.12096750000000611,
          "durationTicks": 150,
          "midi": 63,
          "name": "D#4",
          "ticks": 480960,
          "time": 387.870192,
          "velocity": 0.6299212598425197
        },
        {
          "duration": 0.12096750000000611,
          "durationTicks": 150,
          "midi": 67,
          "name": "G4",
          "ticks": 481200,
          "time": 388.06374,
          "velocity": 0.6299212598425197
        },
        {
          "duration": 0.12096750000000611,
          "durationTicks": 150,
          "midi": 60,
          "name": "C4",
          "ticks": 481440,
          "time": 388.257288,
          "velocity": 0.6299212598425197
        },
        {
          "duration": 0.12096750000000611,
          "durationTicks": 150,
          "midi": 58,
          "name": "A#3",
          "ticks": 481680,
          "time": 388.450836,
          "velocity": 0.6299212598425197
        },
        {
          "duration": 0.12096750000000611,
          "durationTicks": 150,
          "midi": 57,
          "name": "A3",
          "ticks": 481920,
          "time": 388.644384,
          "velocity": 0.6299212598425197
        },
        {
          "duration": 0.12096749999994927,
          "durationTicks": 150,
          "midi": 53,
          "name": "F3",
          "ticks": 482160,
          "time": 388.837932,
          "velocity": 0.6299212598425197
        },
        {
          "duration": 0.12096750000000611,
          "durationTicks": 150,
          "midi": 57,
          "name": "A3",
          "ticks": 482400,
          "time": 389.03148,
          "velocity": 0.6299212598425197
        },
        {
          "duration": 0.12096750000000611,
          "durationTicks": 150,
          "midi": 60,
          "name": "C4",
          "ticks": 482640,
          "time": 389.225028,
          "velocity": 0.6299212598425197
        },
        {
          "duration": 0.12096750000000611,
          "durationTicks": 150,
          "midi": 57,
          "name": "A3",
          "ticks": 482880,
          "time": 389.418576,
          "velocity": 0.6299212598425197
        },
        {
          "duration": 0.12096750000000611,
          "durationTicks": 150,
          "midi": 60,
          "name": "C4",
          "ticks": 483120,
          "time": 389.612124,
          "velocity": 0.6299212598425197
        },
        {
          "duration": 0.12096750000000611,
          "durationTicks": 150,
          "midi": 57,
          "name": "A3",
          "ticks": 483360,
          "time": 389.805672,
          "velocity": 0.6299212598425197
        },
        {
          "duration": 0.12096750000000611,
          "durationTicks": 150,
          "midi": 53,
          "name": "F3",
          "ticks": 483600,
          "time": 389.99922,
          "velocity": 0.6299212598425197
        },
        {
          "duration": 0.12096749999994927,
          "durationTicks": 150,
          "midi": 58,
          "name": "A#3",
          "ticks": 484080,
          "time": 390.386316,
          "velocity": 0.6299212598425197
        },
        {
          "duration": 0.12096750000000611,
          "durationTicks": 150,
          "midi": 62,
          "name": "D4",
          "ticks": 484320,
          "time": 390.579864,
          "velocity": 0.6299212598425197
        },
        {
          "duration": 0.12096750000000611,
          "durationTicks": 150,
          "midi": 65,
          "name": "F4",
          "ticks": 484560,
          "time": 390.773412,
          "velocity": 0.6299212598425197
        },
        {
          "duration": 0.12096750000000611,
          "durationTicks": 150,
          "midi": 62,
          "name": "D4",
          "ticks": 484800,
          "time": 390.96696,
          "velocity": 0.6299212598425197
        },
        {
          "duration": 0.12096750000000611,
          "durationTicks": 150,
          "midi": 65,
          "name": "F4",
          "ticks": 485040,
          "time": 391.160508,
          "velocity": 0.6299212598425197
        },
        {
          "duration": 0.12096750000000611,
          "durationTicks": 150,
          "midi": 62,
          "name": "D4",
          "ticks": 485280,
          "time": 391.354056,
          "velocity": 0.6299212598425197
        },
        {
          "duration": 0.12096750000000611,
          "durationTicks": 150,
          "midi": 58,
          "name": "A#3",
          "ticks": 485520,
          "time": 391.547604,
          "velocity": 0.6299212598425197
        },
        {
          "duration": 0.12096750000000611,
          "durationTicks": 150,
          "midi": 52,
          "name": "E3",
          "ticks": 485760,
          "time": 391.741152,
          "velocity": 0.6299212598425197
        },
        {
          "duration": 0.12096749999994927,
          "durationTicks": 150,
          "midi": 60,
          "name": "C4",
          "ticks": 486000,
          "time": 391.9347,
          "velocity": 0.6299212598425197
        },
        {
          "duration": 0.12096750000000611,
          "durationTicks": 150,
          "midi": 55,
          "name": "G3",
          "ticks": 486240,
          "time": 392.128248,
          "velocity": 0.6299212598425197
        },
        {
          "duration": 0.12096750000000611,
          "durationTicks": 150,
          "midi": 60,
          "name": "C4",
          "ticks": 486480,
          "time": 392.321796,
          "velocity": 0.6299212598425197
        },
        {
          "duration": 0.12096750000000611,
          "durationTicks": 150,
          "midi": 53,
          "name": "F3",
          "ticks": 486720,
          "time": 392.51534399999997,
          "velocity": 0.6299212598425197
        },
        {
          "duration": 0.12096750000000611,
          "durationTicks": 150,
          "midi": 60,
          "name": "C4",
          "ticks": 486960,
          "time": 392.708892,
          "velocity": 0.6299212598425197
        },
        {
          "duration": 0.12096750000000611,
          "durationTicks": 150,
          "midi": 56,
          "name": "G#3",
          "ticks": 487200,
          "time": 392.90244,
          "velocity": 0.6299212598425197
        },
        {
          "duration": 0.12096750000000611,
          "durationTicks": 150,
          "midi": 60,
          "name": "C4",
          "ticks": 487440,
          "time": 393.095988,
          "velocity": 0.6299212598425197
        },
        {
          "duration": 0.12096750000000611,
          "durationTicks": 150,
          "midi": 50,
          "name": "D3",
          "ticks": 487680,
          "time": 393.289536,
          "velocity": 0.6299212598425197
        },
        {
          "duration": 0.12096749999994927,
          "durationTicks": 150,
          "midi": 58,
          "name": "A#3",
          "ticks": 487920,
          "time": 393.483084,
          "velocity": 0.6299212598425197
        },
        {
          "duration": 0.12096750000000611,
          "durationTicks": 150,
          "midi": 53,
          "name": "F3",
          "ticks": 488160,
          "time": 393.676632,
          "velocity": 0.6299212598425197
        },
        {
          "duration": 0.12096750000000611,
          "durationTicks": 150,
          "midi": 58,
          "name": "A#3",
          "ticks": 488400,
          "time": 393.87018,
          "velocity": 0.6299212598425197
        },
        {
          "duration": 0.12096750000000611,
          "durationTicks": 150,
          "midi": 51,
          "name": "D#3",
          "ticks": 488640,
          "time": 394.06372799999997,
          "velocity": 0.6299212598425197
        },
        {
          "duration": 0.12096750000000611,
          "durationTicks": 150,
          "midi": 58,
          "name": "A#3",
          "ticks": 488880,
          "time": 394.257276,
          "velocity": 0.6299212598425197
        },
        {
          "duration": 0.12096750000000611,
          "durationTicks": 150,
          "midi": 55,
          "name": "G3",
          "ticks": 489120,
          "time": 394.450824,
          "velocity": 0.6299212598425197
        },
        {
          "duration": 0.12096750000000611,
          "durationTicks": 150,
          "midi": 58,
          "name": "A#3",
          "ticks": 489360,
          "time": 394.644372,
          "velocity": 0.6299212598425197
        },
        {
          "duration": 0.12096750000000611,
          "durationTicks": 150,
          "midi": 56,
          "name": "G#3",
          "ticks": 489600,
          "time": 394.83792,
          "velocity": 0.6299212598425197
        },
        {
          "duration": 0.12096749999994927,
          "durationTicks": 150,
          "midi": 65,
          "name": "F4",
          "ticks": 489840,
          "time": 395.031468,
          "velocity": 0.6299212598425197
        },
        {
          "duration": 0.12096750000000611,
          "durationTicks": 150,
          "midi": 60,
          "name": "C4",
          "ticks": 490080,
          "time": 395.225016,
          "velocity": 0.6299212598425197
        },
        {
          "duration": 0.12096750000000611,
          "durationTicks": 150,
          "midi": 65,
          "name": "F4",
          "ticks": 490320,
          "time": 395.418564,
          "velocity": 0.6299212598425197
        },
        {
          "duration": 0.12096750000000611,
          "durationTicks": 150,
          "midi": 58,
          "name": "A#3",
          "ticks": 490560,
          "time": 395.61211199999997,
          "velocity": 0.6299212598425197
        },
        {
          "duration": 0.12096750000000611,
          "durationTicks": 150,
          "midi": 65,
          "name": "F4",
          "ticks": 490800,
          "time": 395.80566,
          "velocity": 0.6299212598425197
        },
        {
          "duration": 0.12096750000000611,
          "durationTicks": 150,
          "midi": 62,
          "name": "D4",
          "ticks": 491040,
          "time": 395.999208,
          "velocity": 0.6299212598425197
        },
        {
          "duration": 0.12096750000000611,
          "durationTicks": 150,
          "midi": 65,
          "name": "F4",
          "ticks": 491280,
          "time": 396.192756,
          "velocity": 0.6299212598425197
        },
        {
          "duration": 2,
          "durationTicks": 960,
          "midi": 63,
          "name": "D#4",
          "ticks": 491520,
          "time": 396.386304,
          "velocity": 0.47244094488188976
        },
        {
          "duration": 2,
          "durationTicks": 960,
          "midi": 65,
          "name": "F4",
          "ticks": 492480,
          "time": 398.386304,
          "velocity": 0.47244094488188976
        },
        {
          "duration": 3.8333333333333144,
          "durationTicks": 1840,
          "midi": 65,
          "name": "F4",
          "ticks": 493440,
          "time": 400.386304,
          "velocity": 0.47244094488188976
        },
        {
          "duration": 2,
          "durationTicks": 960,
          "midi": 63,
          "name": "D#4",
          "ticks": 495360,
          "time": 404.386304,
          "velocity": 0.47244094488188976
        },
        {
          "duration": 1.8541666666666856,
          "durationTicks": 890,
          "midi": 65,
          "name": "F4",
          "ticks": 496320,
          "time": 406.386304,
          "velocity": 0.47244094488188976
        },
        {
          "duration": 1.6041666666666856,
          "durationTicks": 770,
          "midi": 65,
          "name": "F4",
          "ticks": 497280,
          "time": 408.386304,
          "velocity": 0.47244094488188976
        },
        {
          "duration": 0.15625,
          "durationTicks": 150,
          "midi": 51,
          "name": "D#3",
          "ticks": 504480,
          "time": 423.0946373333334,
          "velocity": 0.5905511811023622
        },
        {
          "duration": 0.15625,
          "durationTicks": 150,
          "midi": 55,
          "name": "G3",
          "ticks": 504720,
          "time": 423.3446373333334,
          "velocity": 0.5905511811023622
        },
        {
          "duration": 0.15625,
          "durationTicks": 150,
          "midi": 58,
          "name": "A#3",
          "ticks": 504960,
          "time": 423.5946373333334,
          "velocity": 0.5905511811023622
        },
        {
          "duration": 0.15625,
          "durationTicks": 150,
          "midi": 51,
          "name": "D#3",
          "ticks": 505200,
          "time": 423.8446373333334,
          "velocity": 0.5905511811023622
        },
        {
          "duration": 0.15625,
          "durationTicks": 150,
          "midi": 55,
          "name": "G3",
          "ticks": 505440,
          "time": 424.0946373333334,
          "velocity": 0.5905511811023622
        },
        {
          "duration": 0.15625,
          "durationTicks": 150,
          "midi": 58,
          "name": "A#3",
          "ticks": 505680,
          "time": 424.3446373333334,
          "velocity": 0.5905511811023622
        },
        {
          "duration": 0.15625,
          "durationTicks": 150,
          "midi": 50,
          "name": "D3",
          "ticks": 505920,
          "time": 424.5946373333334,
          "velocity": 0.5905511811023622
        },
        {
          "duration": 0.15625,
          "durationTicks": 150,
          "midi": 53,
          "name": "F3",
          "ticks": 506160,
          "time": 424.8446373333334,
          "velocity": 0.5905511811023622
        },
        {
          "duration": 0.15625,
          "durationTicks": 150,
          "midi": 58,
          "name": "A#3",
          "ticks": 506400,
          "time": 425.0946373333334,
          "velocity": 0.5905511811023622
        },
        {
          "duration": 0.15625,
          "durationTicks": 150,
          "midi": 50,
          "name": "D3",
          "ticks": 506640,
          "time": 425.3446373333334,
          "velocity": 0.5905511811023622
        },
        {
          "duration": 0.15625,
          "durationTicks": 150,
          "midi": 53,
          "name": "F3",
          "ticks": 506880,
          "time": 425.5946373333334,
          "velocity": 0.5905511811023622
        },
        {
          "duration": 0.15625,
          "durationTicks": 150,
          "midi": 58,
          "name": "A#3",
          "ticks": 507120,
          "time": 425.8446373333334,
          "velocity": 0.5905511811023622
        },
        {
          "duration": 0.15625,
          "durationTicks": 150,
          "midi": 51,
          "name": "D#3",
          "ticks": 507360,
          "time": 426.0946373333334,
          "velocity": 0.5905511811023622
        },
        {
          "duration": 0.15625,
          "durationTicks": 150,
          "midi": 55,
          "name": "G3",
          "ticks": 507600,
          "time": 426.3446373333334,
          "velocity": 0.5905511811023622
        },
        {
          "duration": 0.15625,
          "durationTicks": 150,
          "midi": 58,
          "name": "A#3",
          "ticks": 507840,
          "time": 426.5946373333334,
          "velocity": 0.5905511811023622
        },
        {
          "duration": 0.15625,
          "durationTicks": 150,
          "midi": 44,
          "name": "G#2",
          "ticks": 508080,
          "time": 426.8446373333334,
          "velocity": 0.5905511811023622
        },
        {
          "duration": 0.15625,
          "durationTicks": 150,
          "midi": 48,
          "name": "C3",
          "ticks": 508320,
          "time": 427.0946373333334,
          "velocity": 0.5905511811023622
        },
        {
          "duration": 0.15625,
          "durationTicks": 150,
          "midi": 53,
          "name": "F3",
          "ticks": 508560,
          "time": 427.3446373333334,
          "velocity": 0.5905511811023622
        },
        {
          "duration": 0.15625,
          "durationTicks": 150,
          "midi": 46,
          "name": "A#2",
          "ticks": 508800,
          "time": 427.5946373333334,
          "velocity": 0.5905511811023622
        },
        {
          "duration": 0.15625,
          "durationTicks": 150,
          "midi": 50,
          "name": "D3",
          "ticks": 509040,
          "time": 427.8446373333334,
          "velocity": 0.5905511811023622
        },
        {
          "duration": 0.15625,
          "durationTicks": 150,
          "midi": 53,
          "name": "F3",
          "ticks": 509280,
          "time": 428.0946373333334,
          "velocity": 0.5905511811023622
        },
        {
          "duration": 0.3020833333333144,
          "durationTicks": 290,
          "midi": 58,
          "name": "A#3",
          "ticks": 509520,
          "time": 428.3446373333334,
          "velocity": 0.5905511811023622
        },
        {
          "duration": 0.16666666666662877,
          "durationTicks": 160,
          "midi": 47,
          "name": "B2",
          "ticks": 516000,
          "time": 435.0946373333334,
          "velocity": 0.5905511811023622
        },
        {
          "duration": 0.16666666666662877,
          "durationTicks": 160,
          "midi": 50,
          "name": "D3",
          "ticks": 516240,
          "time": 435.3446373333334,
          "velocity": 0.5905511811023622
        },
        {
          "duration": 0.16666666666662877,
          "durationTicks": 160,
          "midi": 55,
          "name": "G3",
          "ticks": 516480,
          "time": 435.5946373333334,
          "velocity": 0.5905511811023622
        },
        {
          "duration": 0.16666666666662877,
          "durationTicks": 160,
          "midi": 47,
          "name": "B2",
          "ticks": 516720,
          "time": 435.8446373333334,
          "velocity": 0.5905511811023622
        },
        {
          "duration": 0.16666666666662877,
          "durationTicks": 160,
          "midi": 50,
          "name": "D3",
          "ticks": 516960,
          "time": 436.0946373333334,
          "velocity": 0.5905511811023622
        },
        {
          "duration": 0.16666666666662877,
          "durationTicks": 160,
          "midi": 55,
          "name": "G3",
          "ticks": 517200,
          "time": 436.3446373333334,
          "velocity": 0.5905511811023622
        },
        {
          "duration": 0.16666666666662877,
          "durationTicks": 160,
          "midi": 48,
          "name": "C3",
          "ticks": 517440,
          "time": 436.5946373333334,
          "velocity": 0.5905511811023622
        },
        {
          "duration": 0.16666666666662877,
          "durationTicks": 160,
          "midi": 51,
          "name": "D#3",
          "ticks": 517680,
          "time": 436.8446373333334,
          "velocity": 0.5905511811023622
        },
        {
          "duration": 0.16666666666662877,
          "durationTicks": 160,
          "midi": 55,
          "name": "G3",
          "ticks": 517920,
          "time": 437.0946373333334,
          "velocity": 0.5905511811023622
        },
        {
          "duration": 0.125,
          "durationTicks": 120,
          "midi": 60,
          "name": "C4",
          "ticks": 518160,
          "time": 437.3446373333334,
          "velocity": 0.5905511811023622
        },
        {
          "duration": 0.125,
          "durationTicks": 120,
          "midi": 62,
          "name": "D4",
          "ticks": 518280,
          "time": 437.4696373333334,
          "velocity": 0.5905511811023622
        },
        {
          "duration": 0.125,
          "durationTicks": 120,
          "midi": 63,
          "name": "D#4",
          "ticks": 518400,
          "time": 437.5946373333334,
          "velocity": 0.5905511811023622
        },
        {
          "duration": 0.125,
          "durationTicks": 120,
          "midi": 62,
          "name": "D4",
          "ticks": 518520,
          "time": 437.7196373333334,
          "velocity": 0.5905511811023622
        },
        {
          "duration": 0.125,
          "durationTicks": 120,
          "midi": 60,
          "name": "C4",
          "ticks": 518640,
          "time": 437.8446373333334,
          "velocity": 0.5905511811023622
        },
        {
          "duration": 0.125,
          "durationTicks": 120,
          "midi": 58,
          "name": "A#3",
          "ticks": 518760,
          "time": 437.9696373333334,
          "velocity": 0.5905511811023622
        },
        {
          "duration": 0.16666666666662877,
          "durationTicks": 160,
          "midi": 57,
          "name": "A3",
          "ticks": 518880,
          "time": 438.0946373333334,
          "velocity": 0.5905511811023622
        },
        {
          "duration": 0.16666666666662877,
          "durationTicks": 160,
          "midi": 60,
          "name": "C4",
          "ticks": 519120,
          "time": 438.3446373333334,
          "velocity": 0.5905511811023622
        },
        {
          "duration": 0.16666666666662877,
          "durationTicks": 160,
          "midi": 65,
          "name": "F4",
          "ticks": 519360,
          "time": 438.5946373333334,
          "velocity": 0.5905511811023622
        },
        {
          "duration": 0.16666666666662877,
          "durationTicks": 160,
          "midi": 57,
          "name": "A3",
          "ticks": 519600,
          "time": 438.8446373333334,
          "velocity": 0.5905511811023622
        },
        {
          "duration": 0.16666666666662877,
          "durationTicks": 160,
          "midi": 60,
          "name": "C4",
          "ticks": 519840,
          "time": 439.0946373333334,
          "velocity": 0.5905511811023622
        },
        {
          "duration": 0.16666666666662877,
          "durationTicks": 160,
          "midi": 65,
          "name": "F4",
          "ticks": 520080,
          "time": 439.3446373333334,
          "velocity": 0.5905511811023622
        },
        {
          "duration": 0.16666666666662877,
          "durationTicks": 160,
          "midi": 58,
          "name": "A#3",
          "ticks": 520320,
          "time": 439.5946373333334,
          "velocity": 0.5905511811023622
        },
        {
          "duration": 0.16666666666662877,
          "durationTicks": 160,
          "midi": 62,
          "name": "D4",
          "ticks": 520560,
          "time": 439.8446373333334,
          "velocity": 0.5905511811023622
        },
        {
          "duration": 0.16666666666662877,
          "durationTicks": 160,
          "midi": 65,
          "name": "F4",
          "ticks": 520800,
          "time": 440.0946373333334,
          "velocity": 0.5905511811023622
        },
        {
          "duration": 0.16666666666662877,
          "durationTicks": 160,
          "midi": 58,
          "name": "A#3",
          "ticks": 521040,
          "time": 440.3446373333334,
          "velocity": 0.5905511811023622
        },
        {
          "duration": 0.16666666666662877,
          "durationTicks": 160,
          "midi": 62,
          "name": "D4",
          "ticks": 534720,
          "time": 454.5946373333334,
          "velocity": 0.5118110236220472
        },
        {
          "duration": 0.16666666666662877,
          "durationTicks": 160,
          "midi": 62,
          "name": "D4",
          "ticks": 534960,
          "time": 454.8446373333334,
          "velocity": 0.5118110236220472
        },
        {
          "duration": 0.16666666666662877,
          "durationTicks": 160,
          "midi": 62,
          "name": "D4",
          "ticks": 535200,
          "time": 455.0946373333334,
          "velocity": 0.5118110236220472
        },
        {
          "duration": 0.16666666666662877,
          "durationTicks": 160,
          "midi": 62,
          "name": "D4",
          "ticks": 535440,
          "time": 455.3446373333334,
          "velocity": 0.5118110236220472
        },
        {
          "duration": 0.16666666666662877,
          "durationTicks": 160,
          "midi": 62,
          "name": "D4",
          "ticks": 535680,
          "time": 455.5946373333334,
          "velocity": 0.5118110236220472
        },
        {
          "duration": 0.16666666666662877,
          "durationTicks": 160,
          "midi": 62,
          "name": "D4",
          "ticks": 535920,
          "time": 455.8446373333334,
          "velocity": 0.5118110236220472
        },
        {
          "duration": 0.16666666666662877,
          "durationTicks": 160,
          "midi": 62,
          "name": "D4",
          "ticks": 536160,
          "time": 456.0946373333334,
          "velocity": 0.5118110236220472
        },
        {
          "duration": 0.16666666666662877,
          "durationTicks": 160,
          "midi": 62,
          "name": "D4",
          "ticks": 536400,
          "time": 456.3446373333334,
          "velocity": 0.5118110236220472
        },
        {
          "duration": 0.16666666666662877,
          "durationTicks": 160,
          "midi": 62,
          "name": "D4",
          "ticks": 536640,
          "time": 456.5946373333334,
          "velocity": 0.5118110236220472
        },
        {
          "duration": 0.16666666666662877,
          "durationTicks": 160,
          "midi": 62,
          "name": "D4",
          "ticks": 536880,
          "time": 456.8446373333334,
          "velocity": 0.5118110236220472
        },
        {
          "duration": 0.16666666666662877,
          "durationTicks": 160,
          "midi": 62,
          "name": "D4",
          "ticks": 537120,
          "time": 457.0946373333334,
          "velocity": 0.5118110236220472
        },
        {
          "duration": 0.16666666666662877,
          "durationTicks": 160,
          "midi": 62,
          "name": "D4",
          "ticks": 537360,
          "time": 457.3446373333334,
          "velocity": 0.5118110236220472
        },
        {
          "duration": 0.16666666666662877,
          "durationTicks": 160,
          "midi": 63,
          "name": "D#4",
          "ticks": 537600,
          "time": 457.5946373333334,
          "velocity": 0.5118110236220472
        },
        {
          "duration": 0.16666666666662877,
          "durationTicks": 160,
          "midi": 63,
          "name": "D#4",
          "ticks": 537840,
          "time": 457.8446373333334,
          "velocity": 0.5118110236220472
        },
        {
          "duration": 0.16666666666662877,
          "durationTicks": 160,
          "midi": 63,
          "name": "D#4",
          "ticks": 538080,
          "time": 458.0946373333334,
          "velocity": 0.5118110236220472
        },
        {
          "duration": 0.16666666666662877,
          "durationTicks": 160,
          "midi": 63,
          "name": "D#4",
          "ticks": 538320,
          "time": 458.3446373333334,
          "velocity": 0.5118110236220472
        },
        {
          "duration": 0.16666666666662877,
          "durationTicks": 160,
          "midi": 63,
          "name": "D#4",
          "ticks": 538560,
          "time": 458.5946373333334,
          "velocity": 0.5118110236220472
        },
        {
          "duration": 0.16666666666662877,
          "durationTicks": 160,
          "midi": 63,
          "name": "D#4",
          "ticks": 538800,
          "time": 458.8446373333334,
          "velocity": 0.5118110236220472
        },
        {
          "duration": 0.16666666666662877,
          "durationTicks": 160,
          "midi": 62,
          "name": "D4",
          "ticks": 539040,
          "time": 459.0946373333334,
          "velocity": 0.5118110236220472
        },
        {
          "duration": 0.16666666666662877,
          "durationTicks": 160,
          "midi": 62,
          "name": "D4",
          "ticks": 539280,
          "time": 459.3446373333334,
          "velocity": 0.5118110236220472
        },
        {
          "duration": 0.16666666666662877,
          "durationTicks": 160,
          "midi": 62,
          "name": "D4",
          "ticks": 539520,
          "time": 459.5946373333334,
          "velocity": 0.5118110236220472
        },
        {
          "duration": 0.16666666666662877,
          "durationTicks": 160,
          "midi": 62,
          "name": "D4",
          "ticks": 539760,
          "time": 459.8446373333334,
          "velocity": 0.5118110236220472
        },
        {
          "duration": 0.16666666666662877,
          "durationTicks": 160,
          "midi": 62,
          "name": "D4",
          "ticks": 540000,
          "time": 460.0946373333334,
          "velocity": 0.5118110236220472
        },
        {
          "duration": 0.16666666666662877,
          "durationTicks": 160,
          "midi": 62,
          "name": "D4",
          "ticks": 540240,
          "time": 460.3446373333334,
          "velocity": 0.5118110236220472
        },
        {
          "duration": 0.16666666666662877,
          "durationTicks": 160,
          "midi": 63,
          "name": "D#4",
          "ticks": 540480,
          "time": 460.5946373333334,
          "velocity": 0.5118110236220472
        },
        {
          "duration": 0.16666666666662877,
          "durationTicks": 160,
          "midi": 63,
          "name": "D#4",
          "ticks": 540720,
          "time": 460.8446373333334,
          "velocity": 0.5118110236220472
        },
        {
          "duration": 0.16666666666662877,
          "durationTicks": 160,
          "midi": 63,
          "name": "D#4",
          "ticks": 540960,
          "time": 461.0946373333334,
          "velocity": 0.5118110236220472
        },
        {
          "duration": 0.16666666666662877,
          "durationTicks": 160,
          "midi": 63,
          "name": "D#4",
          "ticks": 541200,
          "time": 461.3446373333334,
          "velocity": 0.5118110236220472
        },
        {
          "duration": 0.16666666666662877,
          "durationTicks": 160,
          "midi": 63,
          "name": "D#4",
          "ticks": 541440,
          "time": 461.5946373333334,
          "velocity": 0.5118110236220472
        },
        {
          "duration": 0.16666666666662877,
          "durationTicks": 160,
          "midi": 63,
          "name": "D#4",
          "ticks": 541680,
          "time": 461.8446373333334,
          "velocity": 0.5118110236220472
        },
        {
          "duration": 0.16666666666662877,
          "durationTicks": 160,
          "midi": 62,
          "name": "D4",
          "ticks": 541920,
          "time": 462.0946373333334,
          "velocity": 0.5118110236220472
        },
        {
          "duration": 0.16666666666662877,
          "durationTicks": 160,
          "midi": 62,
          "name": "D4",
          "ticks": 542160,
          "time": 462.3446373333334,
          "velocity": 0.5118110236220472
        },
        {
          "duration": 0.16666666666662877,
          "durationTicks": 160,
          "midi": 62,
          "name": "D4",
          "ticks": 542640,
          "time": 462.8446373333334,
          "velocity": 0.5118110236220472
        },
        {
          "duration": 0.16666666666662877,
          "durationTicks": 160,
          "midi": 62,
          "name": "D4",
          "ticks": 542880,
          "time": 463.0946373333334,
          "velocity": 0.5118110236220472
        },
        {
          "duration": 0.16666666666662877,
          "durationTicks": 160,
          "midi": 62,
          "name": "D4",
          "ticks": 543360,
          "time": 463.5946373333334,
          "velocity": 0.5118110236220472
        },
        {
          "duration": 0.16666666666662877,
          "durationTicks": 160,
          "midi": 62,
          "name": "D4",
          "ticks": 543600,
          "time": 463.8446373333334,
          "velocity": 0.5118110236220472
        },
        {
          "duration": 0.16666666666662877,
          "durationTicks": 160,
          "midi": 62,
          "name": "D4",
          "ticks": 544080,
          "time": 464.3446373333334,
          "velocity": 0.5118110236220472
        },
        {
          "duration": 0.16666666666662877,
          "durationTicks": 160,
          "midi": 62,
          "name": "D4",
          "ticks": 544320,
          "time": 464.5946373333334,
          "velocity": 0.5118110236220472
        },
        {
          "duration": 0.49999999999994316,
          "durationTicks": 480,
          "midi": 62,
          "name": "D4",
          "ticks": 544800,
          "time": 465.0946373333334,
          "velocity": 0.5118110236220472
        },
        {
          "duration": 0.22159109375002117,
          "durationTicks": 195,
          "midi": 63,
          "name": "D#4",
          "ticks": 545280,
          "time": 465.59463733333337,
          "velocity": 0.5118110236220472
        },
        {
          "duration": 0.7058819999999741,
          "durationTicks": 480,
          "midi": 62,
          "name": "D4",
          "ticks": 545520,
          "time": 465.86736483333334,
          "velocity": 0.5118110236220472
        },
        {
          "duration": 0.6503414166667199,
          "durationTicks": 315,
          "midi": 63,
          "name": "D#4",
          "ticks": 546000,
          "time": 466.5732468333333,
          "velocity": 0.5118110236220472
        },
        {
          "duration": 1.4875000000000114,
          "durationTicks": 476,
          "midi": 62,
          "name": "D4",
          "ticks": 546240,
          "time": 466.98921325000003,
          "velocity": 0.5118110236220472
        },
        {
          "duration": 0.25,
          "durationTicks": 240,
          "midi": 51,
          "name": "D#3",
          "ticks": 547920,
          "time": 471.73921325000003,
          "velocity": 0.5905511811023622
        },
        {
          "duration": 0.25,
          "durationTicks": 240,
          "midi": 55,
          "name": "G3",
          "ticks": 548160,
          "time": 471.98921325000003,
          "velocity": 0.5905511811023622
        },
        {
          "duration": 0.25,
          "durationTicks": 240,
          "midi": 58,
          "name": "A#3",
          "ticks": 548400,
          "time": 472.23921325000003,
          "velocity": 0.5905511811023622
        },
        {
          "duration": 0.25,
          "durationTicks": 240,
          "midi": 55,
          "name": "G3",
          "ticks": 548640,
          "time": 472.48921325000003,
          "velocity": 0.5905511811023622
        },
        {
          "duration": 0.25,
          "durationTicks": 240,
          "midi": 51,
          "name": "D#3",
          "ticks": 548880,
          "time": 472.73921325000003,
          "velocity": 0.5905511811023622
        },
        {
          "duration": 0.25,
          "durationTicks": 240,
          "midi": 56,
          "name": "G#3",
          "ticks": 549360,
          "time": 473.23921325000003,
          "velocity": 0.5905511811023622
        },
        {
          "duration": 0.25,
          "durationTicks": 240,
          "midi": 60,
          "name": "C4",
          "ticks": 549600,
          "time": 473.48921325000003,
          "velocity": 0.5905511811023622
        },
        {
          "duration": 0.25,
          "durationTicks": 240,
          "midi": 63,
          "name": "D#4",
          "ticks": 549840,
          "time": 473.73921325000003,
          "velocity": 0.5905511811023622
        },
        {
          "duration": 0.25,
          "durationTicks": 240,
          "midi": 60,
          "name": "C4",
          "ticks": 550080,
          "time": 473.98921325000003,
          "velocity": 0.5905511811023622
        },
        {
          "duration": 0.25,
          "durationTicks": 240,
          "midi": 56,
          "name": "G#3",
          "ticks": 550320,
          "time": 474.23921325000003,
          "velocity": 0.5905511811023622
        },
        {
          "duration": 0.25,
          "durationTicks": 240,
          "midi": 58,
          "name": "A#3",
          "ticks": 550800,
          "time": 474.73921325000003,
          "velocity": 0.5905511811023622
        },
        {
          "duration": 0.25,
          "durationTicks": 240,
          "midi": 63,
          "name": "D#4",
          "ticks": 551040,
          "time": 474.98921325000003,
          "velocity": 0.5905511811023622
        },
        {
          "duration": 0.25,
          "durationTicks": 240,
          "midi": 67,
          "name": "G4",
          "ticks": 551280,
          "time": 475.23921325000003,
          "velocity": 0.5905511811023622
        },
        {
          "duration": 0.25,
          "durationTicks": 240,
          "midi": 63,
          "name": "D#4",
          "ticks": 551520,
          "time": 475.48921325000003,
          "velocity": 0.5905511811023622
        },
        {
          "duration": 0.25,
          "durationTicks": 240,
          "midi": 58,
          "name": "A#3",
          "ticks": 551760,
          "time": 475.73921325000003,
          "velocity": 0.5905511811023622
        },
        {
          "duration": 0.25,
          "durationTicks": 240,
          "midi": 59,
          "name": "B3",
          "ticks": 552240,
          "time": 476.23921325000003,
          "velocity": 0.5905511811023622
        },
        {
          "duration": 0.25,
          "durationTicks": 240,
          "midi": 62,
          "name": "D4",
          "ticks": 552480,
          "time": 476.48921325000003,
          "velocity": 0.5905511811023622
        },
        {
          "duration": 0.25,
          "durationTicks": 240,
          "midi": 65,
          "name": "F4",
          "ticks": 552720,
          "time": 476.73921325000003,
          "velocity": 0.5905511811023622
        },
        {
          "duration": 0.25,
          "durationTicks": 240,
          "midi": 62,
          "name": "D4",
          "ticks": 552960,
          "time": 476.98921325000003,
          "velocity": 0.5905511811023622
        },
        {
          "duration": 0.25,
          "durationTicks": 240,
          "midi": 59,
          "name": "B3",
          "ticks": 553200,
          "time": 477.23921325000003,
          "velocity": 0.5905511811023622
        },
        {
          "duration": 0.25,
          "durationTicks": 240,
          "midi": 60,
          "name": "C4",
          "ticks": 553680,
          "time": 477.73921325000003,
          "velocity": 0.5905511811023622
        },
        {
          "duration": 0.25,
          "durationTicks": 240,
          "midi": 63,
          "name": "D#4",
          "ticks": 553920,
          "time": 477.98921325000003,
          "velocity": 0.5905511811023622
        },
        {
          "duration": 0.25,
          "durationTicks": 240,
          "midi": 67,
          "name": "G4",
          "ticks": 554160,
          "time": 478.23921325000003,
          "velocity": 0.5905511811023622
        },
        {
          "duration": 0.25,
          "durationTicks": 240,
          "midi": 63,
          "name": "D#4",
          "ticks": 554400,
          "time": 478.48921325000003,
          "velocity": 0.5905511811023622
        },
        {
          "duration": 0.25,
          "durationTicks": 240,
          "midi": 60,
          "name": "C4",
          "ticks": 554640,
          "time": 478.73921325000003,
          "velocity": 0.5905511811023622
        },
        {
          "duration": 0.25,
          "durationTicks": 240,
          "midi": 56,
          "name": "G#3",
          "ticks": 555120,
          "time": 479.23921325000003,
          "velocity": 0.5905511811023622
        },
        {
          "duration": 0.25,
          "durationTicks": 240,
          "midi": 60,
          "name": "C4",
          "ticks": 555360,
          "time": 479.48921325000003,
          "velocity": 0.5905511811023622
        },
        {
          "duration": 0.25,
          "durationTicks": 240,
          "midi": 63,
          "name": "D#4",
          "ticks": 555600,
          "time": 479.73921325000003,
          "velocity": 0.5905511811023622
        },
        {
          "duration": 0.25,
          "durationTicks": 240,
          "midi": 60,
          "name": "C4",
          "ticks": 555840,
          "time": 479.98921325000003,
          "velocity": 0.5905511811023622
        },
        {
          "duration": 0.25,
          "durationTicks": 240,
          "midi": 56,
          "name": "G#3",
          "ticks": 556080,
          "time": 480.23921325000003,
          "velocity": 0.5905511811023622
        },
        {
          "duration": 0.25,
          "durationTicks": 240,
          "midi": 58,
          "name": "A#3",
          "ticks": 556560,
          "time": 480.73921325000003,
          "velocity": 0.5905511811023622
        },
        {
          "duration": 0.25,
          "durationTicks": 240,
          "midi": 63,
          "name": "D#4",
          "ticks": 556800,
          "time": 480.98921325000003,
          "velocity": 0.5905511811023622
        },
        {
          "duration": 0.25,
          "durationTicks": 240,
          "midi": 67,
          "name": "G4",
          "ticks": 557040,
          "time": 481.23921325000003,
          "velocity": 0.5905511811023622
        },
        {
          "duration": 0.25,
          "durationTicks": 240,
          "midi": 63,
          "name": "D#4",
          "ticks": 557280,
          "time": 481.48921325000003,
          "velocity": 0.5905511811023622
        },
        {
          "duration": 0.25,
          "durationTicks": 240,
          "midi": 58,
          "name": "A#3",
          "ticks": 557520,
          "time": 481.73921325000003,
          "velocity": 0.5905511811023622
        },
        {
          "duration": 0.25,
          "durationTicks": 240,
          "midi": 58,
          "name": "A#3",
          "ticks": 558000,
          "time": 482.23921325000003,
          "velocity": 0.5905511811023622
        },
        {
          "duration": 0.25,
          "durationTicks": 240,
          "midi": 62,
          "name": "D4",
          "ticks": 558240,
          "time": 482.48921325000003,
          "velocity": 0.5905511811023622
        },
        {
          "duration": 0.25,
          "durationTicks": 240,
          "midi": 65,
          "name": "F4",
          "ticks": 558480,
          "time": 482.73921325000003,
          "velocity": 0.5905511811023622
        },
        {
          "duration": 0.25,
          "durationTicks": 240,
          "midi": 62,
          "name": "D4",
          "ticks": 558720,
          "time": 482.98921325000003,
          "velocity": 0.5905511811023622
        },
        {
          "duration": 0.25,
          "durationTicks": 240,
          "midi": 58,
          "name": "A#3",
          "ticks": 558960,
          "time": 483.23921325000003,
          "velocity": 0.5905511811023622
        },
        {
          "duration": 0.13793099999998049,
          "durationTicks": 160,
          "midi": 63,
          "name": "D#4",
          "ticks": 559200,
          "time": 483.48921325000003,
          "velocity": 0.5511811023622047
        },
        {
          "duration": 0.13793099999998049,
          "durationTicks": 160,
          "midi": 63,
          "name": "D#4",
          "ticks": 559440,
          "time": 483.69610975000006,
          "velocity": 0.5511811023622047
        },
        {
          "duration": 0.13793099999998049,
          "durationTicks": 160,
          "midi": 63,
          "name": "D#4",
          "ticks": 559680,
          "time": 483.90300625000003,
          "velocity": 0.5511811023622047
        },
        {
          "duration": 0.13793099999998049,
          "durationTicks": 160,
          "midi": 62,
          "name": "D4",
          "ticks": 559920,
          "time": 484.10990275000006,
          "velocity": 0.5511811023622047
        },
        {
          "duration": 0.13793099999998049,
          "durationTicks": 160,
          "midi": 62,
          "name": "D4",
          "ticks": 560160,
          "time": 484.31679925000003,
          "velocity": 0.5511811023622047
        },
        {
          "duration": 0.13793099999998049,
          "durationTicks": 160,
          "midi": 62,
          "name": "D4",
          "ticks": 560400,
          "time": 484.52369575000006,
          "velocity": 0.5511811023622047
        },
        {
          "duration": 0.13793099999998049,
          "durationTicks": 160,
          "midi": 63,
          "name": "D#4",
          "ticks": 560640,
          "time": 484.73059225000003,
          "velocity": 0.5511811023622047
        },
        {
          "duration": 0.13793099999998049,
          "durationTicks": 160,
          "midi": 63,
          "name": "D#4",
          "ticks": 560880,
          "time": 484.93748875000006,
          "velocity": 0.5511811023622047
        },
        {
          "duration": 0.13793099999998049,
          "durationTicks": 160,
          "midi": 63,
          "name": "D#4",
          "ticks": 561120,
          "time": 485.14438525,
          "velocity": 0.5511811023622047
        },
        {
          "duration": 0.13793099999998049,
          "durationTicks": 160,
          "midi": 65,
          "name": "F4",
          "ticks": 561360,
          "time": 485.35128175000006,
          "velocity": 0.5511811023622047
        },
        {
          "duration": 0.13793099999998049,
          "durationTicks": 160,
          "midi": 65,
          "name": "F4",
          "ticks": 561600,
          "time": 485.55817825,
          "velocity": 0.5511811023622047
        },
        {
          "duration": 0.13793099999998049,
          "durationTicks": 160,
          "midi": 65,
          "name": "F4",
          "ticks": 561840,
          "time": 485.76507475000005,
          "velocity": 0.5511811023622047
        },
        {
          "duration": 0.13793100000003733,
          "durationTicks": 160,
          "midi": 67,
          "name": "G4",
          "ticks": 562080,
          "time": 485.97197125,
          "velocity": 0.5511811023622047
        },
        {
          "duration": 0.13793099999998049,
          "durationTicks": 160,
          "midi": 67,
          "name": "G4",
          "ticks": 562320,
          "time": 486.17886775000005,
          "velocity": 0.5511811023622047
        },
        {
          "duration": 0.13793100000003733,
          "durationTicks": 160,
          "midi": 67,
          "name": "G4",
          "ticks": 562560,
          "time": 486.38576425,
          "velocity": 0.5511811023622047
        },
        {
          "duration": 0.13793099999998049,
          "durationTicks": 160,
          "midi": 62,
          "name": "D4",
          "ticks": 562800,
          "time": 486.59266075000005,
          "velocity": 0.5511811023622047
        },
        {
          "duration": 0.13793100000003733,
          "durationTicks": 160,
          "midi": 62,
          "name": "D4",
          "ticks": 563040,
          "time": 486.79955725,
          "velocity": 0.5511811023622047
        },
        {
          "duration": 0.13793099999998049,
          "durationTicks": 160,
          "midi": 62,
          "name": "D4",
          "ticks": 563280,
          "time": 487.00645375000005,
          "velocity": 0.5511811023622047
        },
        {
          "duration": 0.13793100000003733,
          "durationTicks": 160,
          "midi": 63,
          "name": "D#4",
          "ticks": 563520,
          "time": 487.21335025,
          "velocity": 0.5511811023622047
        },
        {
          "duration": 0.13793099999998049,
          "durationTicks": 160,
          "midi": 63,
          "name": "D#4",
          "ticks": 563760,
          "time": 487.42024675000005,
          "velocity": 0.5511811023622047
        },
        {
          "duration": 0.13793100000003733,
          "durationTicks": 160,
          "midi": 63,
          "name": "D#4",
          "ticks": 564000,
          "time": 487.62714325,
          "velocity": 0.5511811023622047
        },
        {
          "duration": 0.13793099999998049,
          "durationTicks": 160,
          "midi": 62,
          "name": "D4",
          "ticks": 564240,
          "time": 487.83403975000004,
          "velocity": 0.5511811023622047
        },
        {
          "duration": 0.13793100000003733,
          "durationTicks": 160,
          "midi": 62,
          "name": "D4",
          "ticks": 564480,
          "time": 488.04093625,
          "velocity": 0.5511811023622047
        },
        {
          "duration": 0.13793099999998049,
          "durationTicks": 160,
          "midi": 62,
          "name": "D4",
          "ticks": 564720,
          "time": 488.24783275000004,
          "velocity": 0.5511811023622047
        },
        {
          "duration": 0.13793100000003733,
          "durationTicks": 160,
          "midi": 51,
          "name": "D#3",
          "ticks": 564960,
          "time": 488.45472925,
          "velocity": 0.5118110236220472
        }
      ]
    },
    {
      "channel": 0,
      "controlChanges": {},
      "pitchBends": [],
      "instrument": {
        "family": "piano",
        "number": 0,
        "name": "acoustic grand piano"
      },
      "name": "Oboe *created",
      "notes": [],
      "endOfTrackTicks": 575040
    },
    {
      "channel": 4,
      "controlChanges": {
        "7": [
          {
            "number": 7,
            "ticks": 0,
            "time": 0,
            "value": 0.8661417322834646
          }
        ],
        "10": [
          {
            "number": 10,
            "ticks": 0,
            "time": 0,
            "value": 0.3937007874015748
          }
        ],
        "91": [
          {
            "number": 91,
            "ticks": 0,
            "time": 0,
            "value": 0.5905511811023622
          }
        ]
      },
      "pitchBends": [],
      "instrument": {
        "family": "reed",
        "number": 68,
        "name": "oboe"
      },
      "name": "",
      "notes": [
        {
          "duration": 0.12903200000000048,
          "durationTicks": 160,
          "midi": 70,
          "name": "A#4",
          "ticks": 15840,
          "time": 12.774168,
          "velocity": 0.3937007874015748
        },
        {
          "duration": 0.12903200000000048,
          "durationTicks": 160,
          "midi": 75,
          "name": "D#5",
          "ticks": 15840,
          "time": 12.774168,
          "velocity": 0.3937007874015748
        },
        {
          "duration": 0.12903200000000226,
          "durationTicks": 160,
          "midi": 70,
          "name": "A#4",
          "ticks": 16320,
          "time": 13.161264,
          "velocity": 0.3937007874015748
        },
        {
          "duration": 0.12903200000000226,
          "durationTicks": 160,
          "midi": 75,
          "name": "D#5",
          "ticks": 16320,
          "time": 13.161264,
          "velocity": 0.3937007874015748
        },
        {
          "duration": 0.1290319999999987,
          "durationTicks": 160,
          "midi": 70,
          "name": "A#4",
          "ticks": 31200,
          "time": 25.16124,
          "velocity": 0.3937007874015748
        },
        {
          "duration": 0.1290319999999987,
          "durationTicks": 160,
          "midi": 75,
          "name": "D#5",
          "ticks": 31200,
          "time": 25.16124,
          "velocity": 0.3937007874015748
        },
        {
          "duration": 0.1290319999999987,
          "durationTicks": 160,
          "midi": 70,
          "name": "A#4",
          "ticks": 31680,
          "time": 25.548336,
          "velocity": 0.3937007874015748
        },
        {
          "duration": 0.1290319999999987,
          "durationTicks": 160,
          "midi": 75,
          "name": "D#5",
          "ticks": 31680,
          "time": 25.548336,
          "velocity": 0.3937007874015748
        },
        {
          "duration": 0.19354799999999983,
          "durationTicks": 240,
          "midi": 70,
          "name": "A#4",
          "ticks": 32160,
          "time": 25.935432,
          "velocity": 0.5118110236220472
        },
        {
          "duration": 0.19354799999999983,
          "durationTicks": 240,
          "midi": 74,
          "name": "D5",
          "ticks": 32160,
          "time": 25.935432,
          "velocity": 0.5118110236220472
        },
        {
          "duration": 0.19354799999999983,
          "durationTicks": 240,
          "midi": 72,
          "name": "C5",
          "ticks": 32400,
          "time": 26.12898,
          "velocity": 0.5118110236220472
        },
        {
          "duration": 0.19354799999999983,
          "durationTicks": 240,
          "midi": 75,
          "name": "D#5",
          "ticks": 32400,
          "time": 26.12898,
          "velocity": 0.5118110236220472
        },
        {
          "duration": 0.1290319999999987,
          "durationTicks": 160,
          "midi": 74,
          "name": "D5",
          "ticks": 32640,
          "time": 26.322528,
          "velocity": 0.5118110236220472
        },
        {
          "duration": 0.1290319999999987,
          "durationTicks": 160,
          "midi": 77,
          "name": "F5",
          "ticks": 32640,
          "time": 26.322528,
          "velocity": 0.5118110236220472
        },
        {
          "duration": 0.1290319999999987,
          "durationTicks": 160,
          "midi": 74,
          "name": "D5",
          "ticks": 33120,
          "time": 26.709623999999998,
          "velocity": 0.5118110236220472
        },
        {
          "duration": 0.1290319999999987,
          "durationTicks": 160,
          "midi": 77,
          "name": "F5",
          "ticks": 33120,
          "time": 26.709623999999998,
          "velocity": 0.5118110236220472
        },
        {
          "duration": 0.12903199999999515,
          "durationTicks": 160,
          "midi": 76,
          "name": "E5",
          "ticks": 33600,
          "time": 27.09672,
          "velocity": 0.5118110236220472
        },
        {
          "duration": 0.12903199999999515,
          "durationTicks": 160,
          "midi": 79,
          "name": "G5",
          "ticks": 33600,
          "time": 27.09672,
          "velocity": 0.5118110236220472
        },
        {
          "duration": 0.1290319999999987,
          "durationTicks": 160,
          "midi": 76,
          "name": "E5",
          "ticks": 34080,
          "time": 27.483816,
          "velocity": 0.5118110236220472
        },
        {
          "duration": 0.1290319999999987,
          "durationTicks": 160,
          "midi": 79,
          "name": "G5",
          "ticks": 34080,
          "time": 27.483816,
          "velocity": 0.5118110236220472
        },
        {
          "duration": 0.7741919999999993,
          "durationTicks": 960,
          "midi": 77,
          "name": "F5",
          "ticks": 34560,
          "time": 27.870912,
          "velocity": 0.5118110236220472
        },
        {
          "duration": 0.7741919999999993,
          "durationTicks": 960,
          "midi": 80,
          "name": "G#5",
          "ticks": 34560,
          "time": 27.870912,
          "velocity": 0.5118110236220472
        },
        {
          "duration": 0.1290319999999987,
          "durationTicks": 160,
          "midi": 74,
          "name": "D5",
          "ticks": 35520,
          "time": 28.645104,
          "velocity": 0.5118110236220472
        },
        {
          "duration": 0.1290319999999987,
          "durationTicks": 160,
          "midi": 77,
          "name": "F5",
          "ticks": 35520,
          "time": 28.645104,
          "velocity": 0.5118110236220472
        },
        {
          "duration": 0.19354799999999983,
          "durationTicks": 240,
          "midi": 70,
          "name": "A#4",
          "ticks": 36000,
          "time": 29.0322,
          "velocity": 0.5118110236220472
        },
        {
          "duration": 0.19354799999999983,
          "durationTicks": 240,
          "midi": 74,
          "name": "D5",
          "ticks": 36000,
          "time": 29.0322,
          "velocity": 0.5118110236220472
        },
        {
          "duration": 0.19354799999999983,
          "durationTicks": 240,
          "midi": 72,
          "name": "C5",
          "ticks": 36240,
          "time": 29.225748,
          "velocity": 0.5118110236220472
        },
        {
          "duration": 0.19354799999999983,
          "durationTicks": 240,
          "midi": 75,
          "name": "D#5",
          "ticks": 36240,
          "time": 29.225748,
          "velocity": 0.5118110236220472
        },
        {
          "duration": 0.1290319999999987,
          "durationTicks": 160,
          "midi": 74,
          "name": "D5",
          "ticks": 36480,
          "time": 29.419296,
          "velocity": 0.5118110236220472
        },
        {
          "duration": 0.1290319999999987,
          "durationTicks": 160,
          "midi": 77,
          "name": "F5",
          "ticks": 36480,
          "time": 29.419296,
          "velocity": 0.5118110236220472
        },
        {
          "duration": 0.1290319999999987,
          "durationTicks": 160,
          "midi": 74,
          "name": "D5",
          "ticks": 36960,
          "time": 29.806392,
          "velocity": 0.5118110236220472
        },
        {
          "duration": 0.1290319999999987,
          "durationTicks": 160,
          "midi": 77,
          "name": "F5",
          "ticks": 36960,
          "time": 29.806392,
          "velocity": 0.5118110236220472
        },
        {
          "duration": 0.1290319999999987,
          "durationTicks": 160,
          "midi": 76,
          "name": "E5",
          "ticks": 37440,
          "time": 30.193488,
          "velocity": 0.5118110236220472
        },
        {
          "duration": 0.1290319999999987,
          "durationTicks": 160,
          "midi": 79,
          "name": "G5",
          "ticks": 37440,
          "time": 30.193488,
          "velocity": 0.5118110236220472
        },
        {
          "duration": 0.1290319999999987,
          "durationTicks": 160,
          "midi": 76,
          "name": "E5",
          "ticks": 37920,
          "time": 30.580583999999998,
          "velocity": 0.5118110236220472
        },
        {
          "duration": 0.1290319999999987,
          "durationTicks": 160,
          "midi": 79,
          "name": "G5",
          "ticks": 37920,
          "time": 30.580583999999998,
          "velocity": 0.5118110236220472
        },
        {
          "duration": 0.7741919999999993,
          "durationTicks": 960,
          "midi": 77,
          "name": "F5",
          "ticks": 38400,
          "time": 30.96768,
          "velocity": 0.5118110236220472
        },
        {
          "duration": 0.7741919999999993,
          "durationTicks": 960,
          "midi": 80,
          "name": "G#5",
          "ticks": 38400,
          "time": 30.96768,
          "velocity": 0.5118110236220472
        },
        {
          "duration": 0.1290319999999987,
          "durationTicks": 160,
          "midi": 74,
          "name": "D5",
          "ticks": 39360,
          "time": 31.741872,
          "velocity": 0.5118110236220472
        },
        {
          "duration": 0.1290319999999987,
          "durationTicks": 160,
          "midi": 77,
          "name": "F5",
          "ticks": 39360,
          "time": 31.741872,
          "velocity": 0.5118110236220472
        },
        {
          "duration": 0.19354799999999983,
          "durationTicks": 240,
          "midi": 79,
          "name": "G5",
          "ticks": 39840,
          "time": 32.128968,
          "velocity": 0.7086614173228346
        },
        {
          "duration": 0.19354799999999983,
          "durationTicks": 240,
          "midi": 80,
          "name": "G#5",
          "ticks": 40080,
          "time": 32.322516,
          "velocity": 0.7086614173228346
        },
        {
          "duration": 3.233864500000003,
          "durationTicks": 4010,
          "midi": 82,
          "name": "A#5",
          "ticks": 40320,
          "time": 32.516064,
          "velocity": 0.7086614173228346
        },
        {
          "duration": 0.19354799999999983,
          "durationTicks": 240,
          "midi": 74,
          "name": "D5",
          "ticks": 44400,
          "time": 35.80638,
          "velocity": 0.7086614173228346
        },
        {
          "duration": 0.19354799999999983,
          "durationTicks": 240,
          "midi": 75,
          "name": "D#5",
          "ticks": 44640,
          "time": 35.999928,
          "velocity": 0.7086614173228346
        },
        {
          "duration": 0.19354799999999983,
          "durationTicks": 240,
          "midi": 77,
          "name": "F5",
          "ticks": 44880,
          "time": 36.193476,
          "velocity": 0.7086614173228346
        },
        {
          "duration": 0.12903200000000226,
          "durationTicks": 160,
          "midi": 75,
          "name": "D#5",
          "ticks": 45120,
          "time": 36.387024,
          "velocity": 0.7086614173228346
        },
        {
          "duration": 0.12903200000000226,
          "durationTicks": 160,
          "midi": 79,
          "name": "G5",
          "ticks": 45120,
          "time": 36.387024,
          "velocity": 0.7086614173228346
        },
        {
          "duration": 0.12903200000000226,
          "durationTicks": 160,
          "midi": 74,
          "name": "D5",
          "ticks": 45600,
          "time": 36.774119999999996,
          "velocity": 0.7086614173228346
        },
        {
          "duration": 0.12903200000000226,
          "durationTicks": 160,
          "midi": 77,
          "name": "F5",
          "ticks": 45600,
          "time": 36.774119999999996,
          "velocity": 0.7086614173228346
        },
        {
          "duration": 0.12903200000000226,
          "durationTicks": 160,
          "midi": 75,
          "name": "D#5",
          "ticks": 46080,
          "time": 37.161215999999996,
          "velocity": 0.7086614173228346
        },
        {
          "duration": 0.12903199999999515,
          "durationTicks": 160,
          "midi": 67,
          "name": "G4",
          "ticks": 46560,
          "time": 37.548312,
          "velocity": 0.7086614173228346
        },
        {
          "duration": 0.12903199999999515,
          "durationTicks": 160,
          "midi": 75,
          "name": "D#5",
          "ticks": 46560,
          "time": 37.548312,
          "velocity": 0.7086614173228346
        },
        {
          "duration": 0.12903199999999515,
          "durationTicks": 160,
          "midi": 67,
          "name": "G4",
          "ticks": 47040,
          "time": 37.935408,
          "velocity": 0.7086614173228346
        },
        {
          "duration": 0.12903199999999515,
          "durationTicks": 160,
          "midi": 75,
          "name": "D#5",
          "ticks": 47040,
          "time": 37.935408,
          "velocity": 0.7086614173228346
        },
        {
          "duration": 0.19354799999999983,
          "durationTicks": 240,
          "midi": 70,
          "name": "A#4",
          "ticks": 78240,
          "time": 63.096648,
          "velocity": 0.5118110236220472
        },
        {
          "duration": 0.19354799999999983,
          "durationTicks": 240,
          "midi": 74,
          "name": "D5",
          "ticks": 78240,
          "time": 63.096648,
          "velocity": 0.5118110236220472
        },
        {
          "duration": 0.19354799999999983,
          "durationTicks": 240,
          "midi": 72,
          "name": "C5",
          "ticks": 78480,
          "time": 63.290196,
          "velocity": 0.5118110236220472
        },
        {
          "duration": 0.19354799999999983,
          "durationTicks": 240,
          "midi": 75,
          "name": "D#5",
          "ticks": 78480,
          "time": 63.290196,
          "velocity": 0.5118110236220472
        },
        {
          "duration": 0.12903200000000226,
          "durationTicks": 160,
          "midi": 74,
          "name": "D5",
          "ticks": 78720,
          "time": 63.483744,
          "velocity": 0.5118110236220472
        },
        {
          "duration": 0.12903200000000226,
          "durationTicks": 160,
          "midi": 77,
          "name": "F5",
          "ticks": 78720,
          "time": 63.483744,
          "velocity": 0.5118110236220472
        },
        {
          "duration": 0.12903200000000226,
          "durationTicks": 160,
          "midi": 74,
          "name": "D5",
          "ticks": 79200,
          "time": 63.87084,
          "velocity": 0.5118110236220472
        },
        {
          "duration": 0.12903200000000226,
          "durationTicks": 160,
          "midi": 77,
          "name": "F5",
          "ticks": 79200,
          "time": 63.87084,
          "velocity": 0.5118110236220472
        },
        {
          "duration": 0.12903199999999515,
          "durationTicks": 160,
          "midi": 76,
          "name": "E5",
          "ticks": 79680,
          "time": 64.257936,
          "velocity": 0.5118110236220472
        },
        {
          "duration": 0.12903199999999515,
          "durationTicks": 160,
          "midi": 79,
          "name": "G5",
          "ticks": 79680,
          "time": 64.257936,
          "velocity": 0.5118110236220472
        },
        {
          "duration": 0.12903200000000936,
          "durationTicks": 160,
          "midi": 76,
          "name": "E5",
          "ticks": 80160,
          "time": 64.645032,
          "velocity": 0.5118110236220472
        },
        {
          "duration": 0.12903200000000936,
          "durationTicks": 160,
          "midi": 79,
          "name": "G5",
          "ticks": 80160,
          "time": 64.645032,
          "velocity": 0.5118110236220472
        },
        {
          "duration": 0.7741919999999993,
          "durationTicks": 960,
          "midi": 77,
          "name": "F5",
          "ticks": 80640,
          "time": 65.032128,
          "velocity": 0.5118110236220472
        },
        {
          "duration": 0.7741919999999993,
          "durationTicks": 960,
          "midi": 80,
          "name": "G#5",
          "ticks": 80640,
          "time": 65.032128,
          "velocity": 0.5118110236220472
        },
        {
          "duration": 0.12903200000000936,
          "durationTicks": 160,
          "midi": 74,
          "name": "D5",
          "ticks": 81600,
          "time": 65.80632,
          "velocity": 0.5118110236220472
        },
        {
          "duration": 0.12903200000000936,
          "durationTicks": 160,
          "midi": 77,
          "name": "F5",
          "ticks": 81600,
          "time": 65.80632,
          "velocity": 0.5118110236220472
        },
        {
          "duration": 0.19354800000000694,
          "durationTicks": 240,
          "midi": 70,
          "name": "A#4",
          "ticks": 82080,
          "time": 66.193416,
          "velocity": 0.5118110236220472
        },
        {
          "duration": 0.19354800000000694,
          "durationTicks": 240,
          "midi": 74,
          "name": "D5",
          "ticks": 82080,
          "time": 66.193416,
          "velocity": 0.5118110236220472
        },
        {
          "duration": 0.19354799999999273,
          "durationTicks": 240,
          "midi": 72,
          "name": "C5",
          "ticks": 82320,
          "time": 66.386964,
          "velocity": 0.5118110236220472
        },
        {
          "duration": 0.19354799999999273,
          "durationTicks": 240,
          "midi": 75,
          "name": "D#5",
          "ticks": 82320,
          "time": 66.386964,
          "velocity": 0.5118110236220472
        },
        {
          "duration": 0.12903200000000936,
          "durationTicks": 160,
          "midi": 74,
          "name": "D5",
          "ticks": 82560,
          "time": 66.580512,
          "velocity": 0.5118110236220472
        },
        {
          "duration": 0.12903200000000936,
          "durationTicks": 160,
          "midi": 77,
          "name": "F5",
          "ticks": 82560,
          "time": 66.580512,
          "velocity": 0.5118110236220472
        },
        {
          "duration": 0.12903200000000936,
          "durationTicks": 160,
          "midi": 74,
          "name": "D5",
          "ticks": 83040,
          "time": 66.967608,
          "velocity": 0.5118110236220472
        },
        {
          "duration": 0.12903200000000936,
          "durationTicks": 160,
          "midi": 77,
          "name": "F5",
          "ticks": 83040,
          "time": 66.967608,
          "velocity": 0.5118110236220472
        },
        {
          "duration": 0.12903200000000936,
          "durationTicks": 160,
          "midi": 76,
          "name": "E5",
          "ticks": 83520,
          "time": 67.354704,
          "velocity": 0.5118110236220472
        },
        {
          "duration": 0.12903200000000936,
          "durationTicks": 160,
          "midi": 79,
          "name": "G5",
          "ticks": 83520,
          "time": 67.354704,
          "velocity": 0.5118110236220472
        },
        {
          "duration": 0.12903200000000936,
          "durationTicks": 160,
          "midi": 76,
          "name": "E5",
          "ticks": 84000,
          "time": 67.7418,
          "velocity": 0.5118110236220472
        },
        {
          "duration": 0.12903200000000936,
          "durationTicks": 160,
          "midi": 79,
          "name": "G5",
          "ticks": 84000,
          "time": 67.7418,
          "velocity": 0.5118110236220472
        },
        {
          "duration": 0.7741919999999993,
          "durationTicks": 960,
          "midi": 77,
          "name": "F5",
          "ticks": 84480,
          "time": 68.128896,
          "velocity": 0.5118110236220472
        },
        {
          "duration": 0.7741919999999993,
          "durationTicks": 960,
          "midi": 80,
          "name": "G#5",
          "ticks": 84480,
          "time": 68.128896,
          "velocity": 0.5118110236220472
        },
        {
          "duration": 0.12903200000000936,
          "durationTicks": 160,
          "midi": 74,
          "name": "D5",
          "ticks": 85440,
          "time": 68.903088,
          "velocity": 0.5118110236220472
        },
        {
          "duration": 0.12903200000000936,
          "durationTicks": 160,
          "midi": 77,
          "name": "F5",
          "ticks": 85440,
          "time": 68.903088,
          "velocity": 0.5118110236220472
        },
        {
          "duration": 0.38709599999999966,
          "durationTicks": 480,
          "midi": 67,
          "name": "G4",
          "ticks": 86880,
          "time": 70.064376,
          "velocity": 0.7086614173228346
        },
        {
          "duration": 0.38709599999999966,
          "durationTicks": 480,
          "midi": 75,
          "name": "D#5",
          "ticks": 86880,
          "time": 70.064376,
          "velocity": 0.7086614173228346
        },
        {
          "duration": 0.38709599999999966,
          "durationTicks": 480,
          "midi": 65,
          "name": "F4",
          "ticks": 87360,
          "time": 70.451472,
          "velocity": 0.7086614173228346
        },
        {
          "duration": 0.38709599999999966,
          "durationTicks": 480,
          "midi": 74,
          "name": "D5",
          "ticks": 87360,
          "time": 70.451472,
          "velocity": 0.7086614173228346
        },
        {
          "duration": 0.38709599999999966,
          "durationTicks": 480,
          "midi": 68,
          "name": "G#4",
          "ticks": 87840,
          "time": 70.838568,
          "velocity": 0.7086614173228346
        },
        {
          "duration": 0.38709599999999966,
          "durationTicks": 480,
          "midi": 77,
          "name": "F5",
          "ticks": 87840,
          "time": 70.838568,
          "velocity": 0.7086614173228346
        },
        {
          "duration": 0.38709599999999966,
          "durationTicks": 480,
          "midi": 67,
          "name": "G4",
          "ticks": 88320,
          "time": 71.225664,
          "velocity": 0.7086614173228346
        },
        {
          "duration": 0.38709599999999966,
          "durationTicks": 480,
          "midi": 75,
          "name": "D#5",
          "ticks": 88320,
          "time": 71.225664,
          "velocity": 0.7086614173228346
        },
        {
          "duration": 0.38709599999999966,
          "durationTicks": 480,
          "midi": 75,
          "name": "D#5",
          "ticks": 88800,
          "time": 71.61276,
          "velocity": 0.7086614173228346
        },
        {
          "duration": 0.38709599999999966,
          "durationTicks": 480,
          "midi": 79,
          "name": "G5",
          "ticks": 88800,
          "time": 71.61276,
          "velocity": 0.7086614173228346
        },
        {
          "duration": 0.38709599999999966,
          "durationTicks": 480,
          "midi": 74,
          "name": "D5",
          "ticks": 89280,
          "time": 71.999856,
          "velocity": 0.7086614173228346
        },
        {
          "duration": 0.38709599999999966,
          "durationTicks": 480,
          "midi": 77,
          "name": "F5",
          "ticks": 89280,
          "time": 71.999856,
          "velocity": 0.7086614173228346
        },
        {
          "duration": 0.38709599999999966,
          "durationTicks": 480,
          "midi": 77,
          "name": "F5",
          "ticks": 89760,
          "time": 72.386952,
          "velocity": 0.7086614173228346
        },
        {
          "duration": 0.38709599999999966,
          "durationTicks": 480,
          "midi": 80,
          "name": "G#5",
          "ticks": 89760,
          "time": 72.386952,
          "velocity": 0.7086614173228346
        },
        {
          "duration": 0.1370964999999984,
          "durationTicks": 170,
          "midi": 75,
          "name": "D#5",
          "ticks": 90240,
          "time": 72.774048,
          "velocity": 0.7086614173228346
        },
        {
          "duration": 0.1370964999999984,
          "durationTicks": 170,
          "midi": 79,
          "name": "G5",
          "ticks": 90240,
          "time": 72.774048,
          "velocity": 0.7086614173228346
        },
        {
          "duration": 0.19354799999999273,
          "durationTicks": 240,
          "midi": 68,
          "name": "G#4",
          "ticks": 90480,
          "time": 72.967596,
          "velocity": 0.7086614173228346
        },
        {
          "duration": 0.19354799999999273,
          "durationTicks": 240,
          "midi": 74,
          "name": "D5",
          "ticks": 90480,
          "time": 72.967596,
          "velocity": 0.7086614173228346
        },
        {
          "duration": 0.19354800000000694,
          "durationTicks": 240,
          "midi": 67,
          "name": "G4",
          "ticks": 90720,
          "time": 73.161144,
          "velocity": 0.7086614173228346
        },
        {
          "duration": 0.19354800000000694,
          "durationTicks": 240,
          "midi": 75,
          "name": "D#5",
          "ticks": 90720,
          "time": 73.161144,
          "velocity": 0.7086614173228346
        },
        {
          "duration": 0.19354799999999273,
          "durationTicks": 240,
          "midi": 65,
          "name": "F4",
          "ticks": 90960,
          "time": 73.354692,
          "velocity": 0.7086614173228346
        },
        {
          "duration": 0.19354799999999273,
          "durationTicks": 240,
          "midi": 77,
          "name": "F5",
          "ticks": 90960,
          "time": 73.354692,
          "velocity": 0.7086614173228346
        },
        {
          "duration": 0.12903200000000936,
          "durationTicks": 160,
          "midi": 63,
          "name": "D#4",
          "ticks": 91200,
          "time": 73.54823999999999,
          "velocity": 0.7086614173228346
        },
        {
          "duration": 0.12903200000000936,
          "durationTicks": 160,
          "midi": 79,
          "name": "G5",
          "ticks": 91200,
          "time": 73.54823999999999,
          "velocity": 0.7086614173228346
        },
        {
          "duration": 0.12903200000000936,
          "durationTicks": 160,
          "midi": 62,
          "name": "D4",
          "ticks": 91680,
          "time": 73.93533599999999,
          "velocity": 0.7086614173228346
        },
        {
          "duration": 0.12903200000000936,
          "durationTicks": 160,
          "midi": 77,
          "name": "F5",
          "ticks": 91680,
          "time": 73.93533599999999,
          "velocity": 0.7086614173228346
        },
        {
          "duration": 0.12903200000000936,
          "durationTicks": 160,
          "midi": 63,
          "name": "D#4",
          "ticks": 92160,
          "time": 74.32243199999999,
          "velocity": 0.7086614173228346
        },
        {
          "duration": 0.12903200000000936,
          "durationTicks": 160,
          "midi": 75,
          "name": "D#5",
          "ticks": 92160,
          "time": 74.32243199999999,
          "velocity": 0.7086614173228346
        },
        {
          "duration": 0.12903199999999515,
          "durationTicks": 160,
          "midi": 67,
          "name": "G4",
          "ticks": 92640,
          "time": 74.709528,
          "velocity": 0.7086614173228346
        },
        {
          "duration": 0.12903199999999515,
          "durationTicks": 160,
          "midi": 75,
          "name": "D#5",
          "ticks": 92640,
          "time": 74.709528,
          "velocity": 0.7086614173228346
        },
        {
          "duration": 0.12903199999999515,
          "durationTicks": 160,
          "midi": 67,
          "name": "G4",
          "ticks": 93120,
          "time": 75.096624,
          "velocity": 0.7086614173228346
        },
        {
          "duration": 0.12903199999999515,
          "durationTicks": 160,
          "midi": 75,
          "name": "D#5",
          "ticks": 93120,
          "time": 75.096624,
          "velocity": 0.7086614173228346
        },
        {
          "duration": 0.19354800000000694,
          "durationTicks": 240,
          "midi": 79,
          "name": "G5",
          "ticks": 132000,
          "time": 106.45139999999999,
          "velocity": 0.7086614173228346
        },
        {
          "duration": 0.19354799999999273,
          "durationTicks": 240,
          "midi": 80,
          "name": "G#5",
          "ticks": 132240,
          "time": 106.644948,
          "velocity": 0.7086614173228346
        },
        {
          "duration": 3.23386450000001,
          "durationTicks": 4010,
          "midi": 82,
          "name": "A#5",
          "ticks": 132480,
          "time": 106.83849599999999,
          "velocity": 0.7086614173228346
        },
        {
          "duration": 0.3870960000000139,
          "durationTicks": 480,
          "midi": 75,
          "name": "D#5",
          "ticks": 132960,
          "time": 107.22559199999999,
          "velocity": 0.7086614173228346
        },
        {
          "duration": 0.38709599999999966,
          "durationTicks": 480,
          "midi": 74,
          "name": "D5",
          "ticks": 133440,
          "time": 107.612688,
          "velocity": 0.7086614173228346
        },
        {
          "duration": 0.38709599999999966,
          "durationTicks": 480,
          "midi": 77,
          "name": "F5",
          "ticks": 133920,
          "time": 107.999784,
          "velocity": 0.7086614173228346
        },
        {
          "duration": 0.38709599999999966,
          "durationTicks": 480,
          "midi": 75,
          "name": "D#5",
          "ticks": 134400,
          "time": 108.38688,
          "velocity": 0.7086614173228346
        },
        {
          "duration": 0.38709599999999966,
          "durationTicks": 480,
          "midi": 79,
          "name": "G5",
          "ticks": 134880,
          "time": 108.773976,
          "velocity": 0.7086614173228346
        },
        {
          "duration": 0.38709599999999966,
          "durationTicks": 480,
          "midi": 77,
          "name": "F5",
          "ticks": 135360,
          "time": 109.161072,
          "velocity": 0.7086614173228346
        },
        {
          "duration": 0.38709599999999966,
          "durationTicks": 480,
          "midi": 80,
          "name": "G#5",
          "ticks": 135840,
          "time": 109.548168,
          "velocity": 0.7086614173228346
        },
        {
          "duration": 0.1370964999999984,
          "durationTicks": 170,
          "midi": 79,
          "name": "G5",
          "ticks": 136320,
          "time": 109.935264,
          "velocity": 0.7086614173228346
        },
        {
          "duration": 0.19354800000000694,
          "durationTicks": 240,
          "midi": 68,
          "name": "G#4",
          "ticks": 136560,
          "time": 110.128812,
          "velocity": 0.7086614173228346
        },
        {
          "duration": 0.19354800000000694,
          "durationTicks": 240,
          "midi": 74,
          "name": "D5",
          "ticks": 136560,
          "time": 110.128812,
          "velocity": 0.7086614173228346
        },
        {
          "duration": 0.19354799999999273,
          "durationTicks": 240,
          "midi": 67,
          "name": "G4",
          "ticks": 136800,
          "time": 110.32236,
          "velocity": 0.7086614173228346
        },
        {
          "duration": 0.19354799999999273,
          "durationTicks": 240,
          "midi": 75,
          "name": "D#5",
          "ticks": 136800,
          "time": 110.32236,
          "velocity": 0.7086614173228346
        },
        {
          "duration": 0.19354800000000694,
          "durationTicks": 240,
          "midi": 65,
          "name": "F4",
          "ticks": 137040,
          "time": 110.515908,
          "velocity": 0.7086614173228346
        },
        {
          "duration": 0.19354800000000694,
          "durationTicks": 240,
          "midi": 77,
          "name": "F5",
          "ticks": 137040,
          "time": 110.515908,
          "velocity": 0.7086614173228346
        },
        {
          "duration": 0.12903199999999515,
          "durationTicks": 160,
          "midi": 63,
          "name": "D#4",
          "ticks": 137280,
          "time": 110.709456,
          "velocity": 0.7086614173228346
        },
        {
          "duration": 0.12903199999999515,
          "durationTicks": 160,
          "midi": 79,
          "name": "G5",
          "ticks": 137280,
          "time": 110.709456,
          "velocity": 0.7086614173228346
        },
        {
          "duration": 0.12903199999999515,
          "durationTicks": 160,
          "midi": 62,
          "name": "D4",
          "ticks": 137760,
          "time": 111.096552,
          "velocity": 0.7086614173228346
        },
        {
          "duration": 0.12903199999999515,
          "durationTicks": 160,
          "midi": 77,
          "name": "F5",
          "ticks": 137760,
          "time": 111.096552,
          "velocity": 0.7086614173228346
        },
        {
          "duration": 0.12903199999999515,
          "durationTicks": 160,
          "midi": 63,
          "name": "D#4",
          "ticks": 138240,
          "time": 111.483648,
          "velocity": 0.7086614173228346
        },
        {
          "duration": 0.12903199999999515,
          "durationTicks": 160,
          "midi": 75,
          "name": "D#5",
          "ticks": 138240,
          "time": 111.483648,
          "velocity": 0.7086614173228346
        },
        {
          "duration": 0.12903199999999515,
          "durationTicks": 160,
          "midi": 67,
          "name": "G4",
          "ticks": 138720,
          "time": 111.870744,
          "velocity": 0.7086614173228346
        },
        {
          "duration": 0.12903199999999515,
          "durationTicks": 160,
          "midi": 75,
          "name": "D#5",
          "ticks": 138720,
          "time": 111.870744,
          "velocity": 0.7086614173228346
        },
        {
          "duration": 0.12903199999999515,
          "durationTicks": 160,
          "midi": 67,
          "name": "G4",
          "ticks": 139200,
          "time": 112.25784,
          "velocity": 0.7086614173228346
        },
        {
          "duration": 0.12903199999999515,
          "durationTicks": 160,
          "midi": 75,
          "name": "D#5",
          "ticks": 139200,
          "time": 112.25784,
          "velocity": 0.7086614173228346
        },
        {
          "duration": 0.19354799999999273,
          "durationTicks": 240,
          "midi": 79,
          "name": "G5",
          "ticks": 178080,
          "time": 143.612616,
          "velocity": 0.7086614173228346
        },
        {
          "duration": 0.19354799999999273,
          "durationTicks": 240,
          "midi": 80,
          "name": "G#5",
          "ticks": 178320,
          "time": 143.806164,
          "velocity": 0.7086614173228346
        },
        {
          "duration": 3.23386450000001,
          "durationTicks": 4010,
          "midi": 82,
          "name": "A#5",
          "ticks": 178560,
          "time": 143.999712,
          "velocity": 0.7086614173228346
        },
        {
          "duration": 0.38709599999998545,
          "durationTicks": 480,
          "midi": 75,
          "name": "D#5",
          "ticks": 179040,
          "time": 144.386808,
          "velocity": 0.7086614173228346
        },
        {
          "duration": 0.3870960000000139,
          "durationTicks": 480,
          "midi": 74,
          "name": "D5",
          "ticks": 179520,
          "time": 144.773904,
          "velocity": 0.7086614173228346
        },
        {
          "duration": 0.38709599999998545,
          "durationTicks": 480,
          "midi": 77,
          "name": "F5",
          "ticks": 180000,
          "time": 145.161,
          "velocity": 0.7086614173228346
        },
        {
          "duration": 0.3870960000000139,
          "durationTicks": 480,
          "midi": 75,
          "name": "D#5",
          "ticks": 180480,
          "time": 145.548096,
          "velocity": 0.7086614173228346
        },
        {
          "duration": 0.38709599999998545,
          "durationTicks": 480,
          "midi": 79,
          "name": "G5",
          "ticks": 180960,
          "time": 145.935192,
          "velocity": 0.7086614173228346
        },
        {
          "duration": 0.3870960000000139,
          "durationTicks": 480,
          "midi": 77,
          "name": "F5",
          "ticks": 181440,
          "time": 146.322288,
          "velocity": 0.7086614173228346
        },
        {
          "duration": 0.38709599999998545,
          "durationTicks": 480,
          "midi": 80,
          "name": "G#5",
          "ticks": 181920,
          "time": 146.709384,
          "velocity": 0.7086614173228346
        },
        {
          "duration": 0.1370965000000126,
          "durationTicks": 170,
          "midi": 79,
          "name": "G5",
          "ticks": 182400,
          "time": 147.09647999999999,
          "velocity": 0.7086614173228346
        },
        {
          "duration": 0.19354799999999273,
          "durationTicks": 240,
          "midi": 68,
          "name": "G#4",
          "ticks": 182640,
          "time": 147.290028,
          "velocity": 0.7086614173228346
        },
        {
          "duration": 0.19354799999999273,
          "durationTicks": 240,
          "midi": 74,
          "name": "D5",
          "ticks": 182640,
          "time": 147.290028,
          "velocity": 0.7086614173228346
        },
        {
          "duration": 0.19354799999999273,
          "durationTicks": 240,
          "midi": 67,
          "name": "G4",
          "ticks": 182880,
          "time": 147.483576,
          "velocity": 0.7086614173228346
        },
        {
          "duration": 0.19354799999999273,
          "durationTicks": 240,
          "midi": 75,
          "name": "D#5",
          "ticks": 182880,
          "time": 147.483576,
          "velocity": 0.7086614173228346
        },
        {
          "duration": 0.19354799999999273,
          "durationTicks": 240,
          "midi": 65,
          "name": "F4",
          "ticks": 183120,
          "time": 147.677124,
          "velocity": 0.7086614173228346
        },
        {
          "duration": 0.19354799999999273,
          "durationTicks": 240,
          "midi": 77,
          "name": "F5",
          "ticks": 183120,
          "time": 147.677124,
          "velocity": 0.7086614173228346
        },
        {
          "duration": 0.12903199999999515,
          "durationTicks": 160,
          "midi": 63,
          "name": "D#4",
          "ticks": 183360,
          "time": 147.87067199999998,
          "velocity": 0.7086614173228346
        },
        {
          "duration": 0.12903199999999515,
          "durationTicks": 160,
          "midi": 79,
          "name": "G5",
          "ticks": 183360,
          "time": 147.87067199999998,
          "velocity": 0.7086614173228346
        },
        {
          "duration": 0.12903199999999515,
          "durationTicks": 160,
          "midi": 62,
          "name": "D4",
          "ticks": 183840,
          "time": 148.257768,
          "velocity": 0.7086614173228346
        },
        {
          "duration": 0.12903199999999515,
          "durationTicks": 160,
          "midi": 77,
          "name": "F5",
          "ticks": 183840,
          "time": 148.257768,
          "velocity": 0.7086614173228346
        },
        {
          "duration": 0.12903199999999515,
          "durationTicks": 160,
          "midi": 63,
          "name": "D#4",
          "ticks": 184320,
          "time": 148.64486399999998,
          "velocity": 0.7086614173228346
        },
        {
          "duration": 0.12903199999999515,
          "durationTicks": 160,
          "midi": 75,
          "name": "D#5",
          "ticks": 184320,
          "time": 148.64486399999998,
          "velocity": 0.7086614173228346
        },
        {
          "duration": 0.12903199999999515,
          "durationTicks": 160,
          "midi": 67,
          "name": "G4",
          "ticks": 184800,
          "time": 149.03196,
          "velocity": 0.7086614173228346
        },
        {
          "duration": 0.12903199999999515,
          "durationTicks": 160,
          "midi": 75,
          "name": "D#5",
          "ticks": 184800,
          "time": 149.03196,
          "velocity": 0.7086614173228346
        },
        {
          "duration": 0.12903199999996673,
          "durationTicks": 160,
          "midi": 67,
          "name": "G4",
          "ticks": 185280,
          "time": 149.419056,
          "velocity": 0.7086614173228346
        },
        {
          "duration": 0.12903199999996673,
          "durationTicks": 160,
          "midi": 75,
          "name": "D#5",
          "ticks": 185280,
          "time": 149.419056,
          "velocity": 0.7086614173228346
        },
        {
          "duration": 0.12903199999999515,
          "durationTicks": 160,
          "midi": 77,
          "name": "F5",
          "ticks": 218880,
          "time": 176.515776,
          "velocity": 0.5118110236220472
        },
        {
          "duration": 0.12903199999999515,
          "durationTicks": 160,
          "midi": 80,
          "name": "G#5",
          "ticks": 218880,
          "time": 176.515776,
          "velocity": 0.5118110236220472
        },
        {
          "duration": 0.12903199999999515,
          "durationTicks": 160,
          "midi": 77,
          "name": "F5",
          "ticks": 219120,
          "time": 176.709324,
          "velocity": 0.5118110236220472
        },
        {
          "duration": 0.12903199999999515,
          "durationTicks": 160,
          "midi": 80,
          "name": "G#5",
          "ticks": 219120,
          "time": 176.709324,
          "velocity": 0.5118110236220472
        },
        {
          "duration": 0.12903199999999515,
          "durationTicks": 160,
          "midi": 77,
          "name": "F5",
          "ticks": 219360,
          "time": 176.902872,
          "velocity": 0.5118110236220472
        },
        {
          "duration": 0.12903199999999515,
          "durationTicks": 160,
          "midi": 80,
          "name": "G#5",
          "ticks": 219360,
          "time": 176.902872,
          "velocity": 0.5118110236220472
        },
        {
          "duration": 0.12903199999999515,
          "durationTicks": 160,
          "midi": 77,
          "name": "F5",
          "ticks": 219600,
          "time": 177.09642,
          "velocity": 0.5118110236220472
        },
        {
          "duration": 0.12903199999999515,
          "durationTicks": 160,
          "midi": 80,
          "name": "G#5",
          "ticks": 219600,
          "time": 177.09642,
          "velocity": 0.5118110236220472
        },
        {
          "duration": 0.12903199999999515,
          "durationTicks": 160,
          "midi": 74,
          "name": "D5",
          "ticks": 219840,
          "time": 177.289968,
          "velocity": 0.5118110236220472
        },
        {
          "duration": 0.12903199999999515,
          "durationTicks": 160,
          "midi": 80,
          "name": "G#5",
          "ticks": 219840,
          "time": 177.289968,
          "velocity": 0.5118110236220472
        },
        {
          "duration": 0.12903199999999515,
          "durationTicks": 160,
          "midi": 77,
          "name": "F5",
          "ticks": 222720,
          "time": 179.61254399999999,
          "velocity": 0.5118110236220472
        },
        {
          "duration": 0.12903199999999515,
          "durationTicks": 160,
          "midi": 80,
          "name": "G#5",
          "ticks": 222720,
          "time": 179.61254399999999,
          "velocity": 0.5118110236220472
        },
        {
          "duration": 0.12903199999999515,
          "durationTicks": 160,
          "midi": 77,
          "name": "F5",
          "ticks": 222960,
          "time": 179.806092,
          "velocity": 0.5118110236220472
        },
        {
          "duration": 0.12903199999999515,
          "durationTicks": 160,
          "midi": 80,
          "name": "G#5",
          "ticks": 222960,
          "time": 179.806092,
          "velocity": 0.5118110236220472
        },
        {
          "duration": 0.12903199999999515,
          "durationTicks": 160,
          "midi": 77,
          "name": "F5",
          "ticks": 223200,
          "time": 179.99964,
          "velocity": 0.5118110236220472
        },
        {
          "duration": 0.12903199999999515,
          "durationTicks": 160,
          "midi": 80,
          "name": "G#5",
          "ticks": 223200,
          "time": 179.99964,
          "velocity": 0.5118110236220472
        },
        {
          "duration": 0.12903199999999515,
          "durationTicks": 160,
          "midi": 77,
          "name": "F5",
          "ticks": 223440,
          "time": 180.193188,
          "velocity": 0.5118110236220472
        },
        {
          "duration": 0.12903199999999515,
          "durationTicks": 160,
          "midi": 80,
          "name": "G#5",
          "ticks": 223440,
          "time": 180.193188,
          "velocity": 0.5118110236220472
        },
        {
          "duration": 0.12903199999999515,
          "durationTicks": 160,
          "midi": 74,
          "name": "D5",
          "ticks": 223680,
          "time": 180.38673599999998,
          "velocity": 0.5118110236220472
        },
        {
          "duration": 0.12903199999999515,
          "durationTicks": 160,
          "midi": 80,
          "name": "G#5",
          "ticks": 223680,
          "time": 180.38673599999998,
          "velocity": 0.5118110236220472
        },
        {
          "duration": 3.23386450000001,
          "durationTicks": 4010,
          "midi": 82,
          "name": "A#5",
          "ticks": 224640,
          "time": 181.16092799999998,
          "velocity": 0.7086614173228346
        },
        {
          "duration": 0.3870960000000139,
          "durationTicks": 480,
          "midi": 75,
          "name": "D#5",
          "ticks": 225120,
          "time": 181.548024,
          "velocity": 0.7086614173228346
        },
        {
          "duration": 0.38709599999998545,
          "durationTicks": 480,
          "midi": 74,
          "name": "D5",
          "ticks": 225600,
          "time": 181.93512,
          "velocity": 0.7086614173228346
        },
        {
          "duration": 0.3870960000000139,
          "durationTicks": 480,
          "midi": 77,
          "name": "F5",
          "ticks": 226080,
          "time": 182.322216,
          "velocity": 0.7086614173228346
        },
        {
          "duration": 0.7741919999999993,
          "durationTicks": 960,
          "midi": 75,
          "name": "D#5",
          "ticks": 226560,
          "time": 182.709312,
          "velocity": 0.7086614173228346
        },
        {
          "duration": 0.38709599999998545,
          "durationTicks": 480,
          "midi": 74,
          "name": "D5",
          "ticks": 227520,
          "time": 183.483504,
          "velocity": 0.7086614173228346
        },
        {
          "duration": 0.3870960000000139,
          "durationTicks": 480,
          "midi": 77,
          "name": "F5",
          "ticks": 228000,
          "time": 183.8706,
          "velocity": 0.7086614173228346
        },
        {
          "duration": 0.1370964999999842,
          "durationTicks": 170,
          "midi": 79,
          "name": "G5",
          "ticks": 228480,
          "time": 184.257696,
          "velocity": 0.7086614173228346
        },
        {
          "duration": 0.19354799999999273,
          "durationTicks": 240,
          "midi": 68,
          "name": "G#4",
          "ticks": 228720,
          "time": 184.451244,
          "velocity": 0.7086614173228346
        },
        {
          "duration": 0.19354799999999273,
          "durationTicks": 240,
          "midi": 74,
          "name": "D5",
          "ticks": 228720,
          "time": 184.451244,
          "velocity": 0.7086614173228346
        },
        {
          "duration": 0.19354799999999273,
          "durationTicks": 240,
          "midi": 67,
          "name": "G4",
          "ticks": 228960,
          "time": 184.644792,
          "velocity": 0.7086614173228346
        },
        {
          "duration": 0.19354799999999273,
          "durationTicks": 240,
          "midi": 75,
          "name": "D#5",
          "ticks": 228960,
          "time": 184.644792,
          "velocity": 0.7086614173228346
        },
        {
          "duration": 0.19354800000002115,
          "durationTicks": 240,
          "midi": 65,
          "name": "F4",
          "ticks": 229200,
          "time": 184.83834,
          "velocity": 0.7086614173228346
        },
        {
          "duration": 0.19354800000002115,
          "durationTicks": 240,
          "midi": 77,
          "name": "F5",
          "ticks": 229200,
          "time": 184.83834,
          "velocity": 0.7086614173228346
        },
        {
          "duration": 0.12903199999999515,
          "durationTicks": 160,
          "midi": 63,
          "name": "D#4",
          "ticks": 229440,
          "time": 185.031888,
          "velocity": 0.7086614173228346
        },
        {
          "duration": 0.12903199999999515,
          "durationTicks": 160,
          "midi": 79,
          "name": "G5",
          "ticks": 229440,
          "time": 185.031888,
          "velocity": 0.7086614173228346
        },
        {
          "duration": 0.12903199999999515,
          "durationTicks": 160,
          "midi": 62,
          "name": "D4",
          "ticks": 229920,
          "time": 185.418984,
          "velocity": 0.7086614173228346
        },
        {
          "duration": 0.12903199999999515,
          "durationTicks": 160,
          "midi": 77,
          "name": "F5",
          "ticks": 229920,
          "time": 185.418984,
          "velocity": 0.7086614173228346
        },
        {
          "duration": 0.12903199999999515,
          "durationTicks": 160,
          "midi": 63,
          "name": "D#4",
          "ticks": 230400,
          "time": 185.80608,
          "velocity": 0.7086614173228346
        },
        {
          "duration": 0.12903199999999515,
          "durationTicks": 160,
          "midi": 75,
          "name": "D#5",
          "ticks": 230400,
          "time": 185.80608,
          "velocity": 0.7086614173228346
        },
        {
          "duration": 0.12903199999999515,
          "durationTicks": 160,
          "midi": 67,
          "name": "G4",
          "ticks": 230880,
          "time": 186.193176,
          "velocity": 0.7086614173228346
        },
        {
          "duration": 0.12903199999999515,
          "durationTicks": 160,
          "midi": 75,
          "name": "D#5",
          "ticks": 230880,
          "time": 186.193176,
          "velocity": 0.7086614173228346
        },
        {
          "duration": 0.12903199999999515,
          "durationTicks": 160,
          "midi": 67,
          "name": "G4",
          "ticks": 231360,
          "time": 186.580272,
          "velocity": 0.7086614173228346
        },
        {
          "duration": 0.12903199999999515,
          "durationTicks": 160,
          "midi": 75,
          "name": "D#5",
          "ticks": 231360,
          "time": 186.580272,
          "velocity": 0.7086614173228346
        },
        {
          "duration": 0.19354799999999273,
          "durationTicks": 240,
          "midi": 70,
          "name": "A#4",
          "ticks": 262560,
          "time": 211.741512,
          "velocity": 0.4330708661417323
        },
        {
          "duration": 0.19354799999999273,
          "durationTicks": 240,
          "midi": 74,
          "name": "D5",
          "ticks": 262560,
          "time": 211.741512,
          "velocity": 0.4330708661417323
        },
        {
          "duration": 0.19354799999999273,
          "durationTicks": 240,
          "midi": 72,
          "name": "C5",
          "ticks": 262800,
          "time": 211.93506,
          "velocity": 0.4330708661417323
        },
        {
          "duration": 0.19354799999999273,
          "durationTicks": 240,
          "midi": 75,
          "name": "D#5",
          "ticks": 262800,
          "time": 211.93506,
          "velocity": 0.4330708661417323
        },
        {
          "duration": 0.12903200000002357,
          "durationTicks": 160,
          "midi": 74,
          "name": "D5",
          "ticks": 263040,
          "time": 212.12860799999999,
          "velocity": 0.4330708661417323
        },
        {
          "duration": 0.12903200000002357,
          "durationTicks": 160,
          "midi": 77,
          "name": "F5",
          "ticks": 263040,
          "time": 212.12860799999999,
          "velocity": 0.4330708661417323
        },
        {
          "duration": 0.12903200000002357,
          "durationTicks": 160,
          "midi": 74,
          "name": "D5",
          "ticks": 263520,
          "time": 212.515704,
          "velocity": 0.4330708661417323
        },
        {
          "duration": 0.12903200000002357,
          "durationTicks": 160,
          "midi": 77,
          "name": "F5",
          "ticks": 263520,
          "time": 212.515704,
          "velocity": 0.4330708661417323
        },
        {
          "duration": 0.12903200000002357,
          "durationTicks": 160,
          "midi": 76,
          "name": "E5",
          "ticks": 264000,
          "time": 212.90279999999998,
          "velocity": 0.4330708661417323
        },
        {
          "duration": 0.12903200000002357,
          "durationTicks": 160,
          "midi": 79,
          "name": "G5",
          "ticks": 264000,
          "time": 212.90279999999998,
          "velocity": 0.4330708661417323
        },
        {
          "duration": 0.12903200000002357,
          "durationTicks": 160,
          "midi": 76,
          "name": "E5",
          "ticks": 264480,
          "time": 213.289896,
          "velocity": 0.4330708661417323
        },
        {
          "duration": 0.12903200000002357,
          "durationTicks": 160,
          "midi": 79,
          "name": "G5",
          "ticks": 264480,
          "time": 213.289896,
          "velocity": 0.4330708661417323
        },
        {
          "duration": 0.12903200000002357,
          "durationTicks": 160,
          "midi": 77,
          "name": "F5",
          "ticks": 264960,
          "time": 213.67699199999998,
          "velocity": 0.4330708661417323
        },
        {
          "duration": 0.12903200000002357,
          "durationTicks": 160,
          "midi": 80,
          "name": "G#5",
          "ticks": 264960,
          "time": 213.67699199999998,
          "velocity": 0.4330708661417323
        },
        {
          "duration": 0.12903199999999515,
          "durationTicks": 160,
          "midi": 77,
          "name": "F5",
          "ticks": 265200,
          "time": 213.87054,
          "velocity": 0.4330708661417323
        },
        {
          "duration": 0.12903199999999515,
          "durationTicks": 160,
          "midi": 80,
          "name": "G#5",
          "ticks": 265200,
          "time": 213.87054,
          "velocity": 0.4330708661417323
        },
        {
          "duration": 0.12903200000002357,
          "durationTicks": 160,
          "midi": 77,
          "name": "F5",
          "ticks": 265440,
          "time": 214.064088,
          "velocity": 0.4330708661417323
        },
        {
          "duration": 0.12903200000002357,
          "durationTicks": 160,
          "midi": 80,
          "name": "G#5",
          "ticks": 265440,
          "time": 214.064088,
          "velocity": 0.4330708661417323
        },
        {
          "duration": 0.12903200000002357,
          "durationTicks": 160,
          "midi": 77,
          "name": "F5",
          "ticks": 265680,
          "time": 214.257636,
          "velocity": 0.4330708661417323
        },
        {
          "duration": 0.12903200000002357,
          "durationTicks": 160,
          "midi": 80,
          "name": "G#5",
          "ticks": 265680,
          "time": 214.257636,
          "velocity": 0.4330708661417323
        },
        {
          "duration": 0.12903200000002357,
          "durationTicks": 160,
          "midi": 74,
          "name": "D5",
          "ticks": 265920,
          "time": 214.45118399999998,
          "velocity": 0.4330708661417323
        },
        {
          "duration": 0.12903200000002357,
          "durationTicks": 160,
          "midi": 80,
          "name": "G#5",
          "ticks": 265920,
          "time": 214.45118399999998,
          "velocity": 0.4330708661417323
        },
        {
          "duration": 0.12903199999999515,
          "durationTicks": 160,
          "midi": 74,
          "name": "D5",
          "ticks": 266880,
          "time": 215.225376,
          "velocity": 0.4330708661417323
        },
        {
          "duration": 0.12903199999999515,
          "durationTicks": 160,
          "midi": 77,
          "name": "F5",
          "ticks": 266880,
          "time": 215.225376,
          "velocity": 0.4330708661417323
        },
        {
          "duration": 0.12903200000002357,
          "durationTicks": 160,
          "midi": 74,
          "name": "D5",
          "ticks": 267360,
          "time": 215.612472,
          "velocity": 0.4330708661417323
        },
        {
          "duration": 0.12903200000002357,
          "durationTicks": 160,
          "midi": 77,
          "name": "F5",
          "ticks": 267360,
          "time": 215.612472,
          "velocity": 0.4330708661417323
        },
        {
          "duration": 0.12903199999999515,
          "durationTicks": 160,
          "midi": 76,
          "name": "E5",
          "ticks": 267840,
          "time": 215.999568,
          "velocity": 0.4330708661417323
        },
        {
          "duration": 0.12903199999999515,
          "durationTicks": 160,
          "midi": 79,
          "name": "G5",
          "ticks": 267840,
          "time": 215.999568,
          "velocity": 0.4330708661417323
        },
        {
          "duration": 0.12903200000002357,
          "durationTicks": 160,
          "midi": 76,
          "name": "E5",
          "ticks": 268320,
          "time": 216.386664,
          "velocity": 0.4330708661417323
        },
        {
          "duration": 0.12903200000002357,
          "durationTicks": 160,
          "midi": 79,
          "name": "G5",
          "ticks": 268320,
          "time": 216.386664,
          "velocity": 0.4330708661417323
        },
        {
          "duration": 0.12903199999999515,
          "durationTicks": 160,
          "midi": 77,
          "name": "F5",
          "ticks": 268800,
          "time": 216.77376,
          "velocity": 0.4330708661417323
        },
        {
          "duration": 0.12903199999999515,
          "durationTicks": 160,
          "midi": 80,
          "name": "G#5",
          "ticks": 268800,
          "time": 216.77376,
          "velocity": 0.4330708661417323
        },
        {
          "duration": 0.12903200000002357,
          "durationTicks": 160,
          "midi": 77,
          "name": "F5",
          "ticks": 269040,
          "time": 216.967308,
          "velocity": 0.4330708661417323
        },
        {
          "duration": 0.12903200000002357,
          "durationTicks": 160,
          "midi": 80,
          "name": "G#5",
          "ticks": 269040,
          "time": 216.967308,
          "velocity": 0.4330708661417323
        },
        {
          "duration": 0.12903200000002357,
          "durationTicks": 160,
          "midi": 77,
          "name": "F5",
          "ticks": 269280,
          "time": 217.160856,
          "velocity": 0.4330708661417323
        },
        {
          "duration": 0.12903200000002357,
          "durationTicks": 160,
          "midi": 80,
          "name": "G#5",
          "ticks": 269280,
          "time": 217.160856,
          "velocity": 0.4330708661417323
        },
        {
          "duration": 0.12903200000002357,
          "durationTicks": 160,
          "midi": 77,
          "name": "F5",
          "ticks": 269520,
          "time": 217.354404,
          "velocity": 0.4330708661417323
        },
        {
          "duration": 0.12903200000002357,
          "durationTicks": 160,
          "midi": 80,
          "name": "G#5",
          "ticks": 269520,
          "time": 217.354404,
          "velocity": 0.4330708661417323
        },
        {
          "duration": 0.12903199999999515,
          "durationTicks": 160,
          "midi": 74,
          "name": "D5",
          "ticks": 269760,
          "time": 217.547952,
          "velocity": 0.4330708661417323
        },
        {
          "duration": 0.12903199999999515,
          "durationTicks": 160,
          "midi": 80,
          "name": "G#5",
          "ticks": 269760,
          "time": 217.547952,
          "velocity": 0.4330708661417323
        },
        {
          "duration": 0.3870960000000139,
          "durationTicks": 480,
          "midi": 75,
          "name": "D#5",
          "ticks": 271200,
          "time": 218.70924,
          "velocity": 0.7086614173228346
        },
        {
          "duration": 0.38709599999998545,
          "durationTicks": 480,
          "midi": 74,
          "name": "D5",
          "ticks": 271680,
          "time": 219.096336,
          "velocity": 0.7086614173228346
        },
        {
          "duration": 0.3870960000000139,
          "durationTicks": 480,
          "midi": 77,
          "name": "F5",
          "ticks": 272160,
          "time": 219.483432,
          "velocity": 0.7086614173228346
        },
        {
          "duration": 0.3870960000000139,
          "durationTicks": 480,
          "midi": 80,
          "name": "G#5",
          "ticks": 272160,
          "time": 219.483432,
          "velocity": 0.7086614173228346
        },
        {
          "duration": 0.12903199999999515,
          "durationTicks": 160,
          "midi": 75,
          "name": "D#5",
          "ticks": 272640,
          "time": 219.870528,
          "velocity": 0.7086614173228346
        },
        {
          "duration": 0.12903199999999515,
          "durationTicks": 160,
          "midi": 79,
          "name": "G5",
          "ticks": 272640,
          "time": 219.870528,
          "velocity": 0.7086614173228346
        },
        {
          "duration": 0.3225800000000163,
          "durationTicks": 400,
          "midi": 74,
          "name": "D5",
          "ticks": 273600,
          "time": 220.64472,
          "velocity": 0.7086614173228346
        },
        {
          "duration": 0.3870960000000139,
          "durationTicks": 480,
          "midi": 77,
          "name": "F5",
          "ticks": 274080,
          "time": 221.031816,
          "velocity": 0.7086614173228346
        },
        {
          "duration": 0.3870960000000139,
          "durationTicks": 480,
          "midi": 80,
          "name": "G#5",
          "ticks": 274080,
          "time": 221.031816,
          "velocity": 0.7086614173228346
        },
        {
          "duration": 0.1370964999999842,
          "durationTicks": 170,
          "midi": 79,
          "name": "G5",
          "ticks": 274560,
          "time": 221.418912,
          "velocity": 0.7086614173228346
        },
        {
          "duration": 0.19354799999999273,
          "durationTicks": 240,
          "midi": 68,
          "name": "G#4",
          "ticks": 274800,
          "time": 221.61246,
          "velocity": 0.7086614173228346
        },
        {
          "duration": 0.19354799999999273,
          "durationTicks": 240,
          "midi": 74,
          "name": "D5",
          "ticks": 274800,
          "time": 221.61246,
          "velocity": 0.7086614173228346
        },
        {
          "duration": 0.19354799999999273,
          "durationTicks": 240,
          "midi": 67,
          "name": "G4",
          "ticks": 275040,
          "time": 221.806008,
          "velocity": 0.7086614173228346
        },
        {
          "duration": 0.19354799999999273,
          "durationTicks": 240,
          "midi": 75,
          "name": "D#5",
          "ticks": 275040,
          "time": 221.806008,
          "velocity": 0.7086614173228346
        },
        {
          "duration": 0.19354800000002115,
          "durationTicks": 240,
          "midi": 65,
          "name": "F4",
          "ticks": 275280,
          "time": 221.99955599999998,
          "velocity": 0.7086614173228346
        },
        {
          "duration": 0.19354800000002115,
          "durationTicks": 240,
          "midi": 77,
          "name": "F5",
          "ticks": 275280,
          "time": 221.99955599999998,
          "velocity": 0.7086614173228346
        },
        {
          "duration": 0.12903199999999515,
          "durationTicks": 160,
          "midi": 63,
          "name": "D#4",
          "ticks": 275520,
          "time": 222.193104,
          "velocity": 0.7086614173228346
        },
        {
          "duration": 0.12903199999999515,
          "durationTicks": 160,
          "midi": 79,
          "name": "G5",
          "ticks": 275520,
          "time": 222.193104,
          "velocity": 0.7086614173228346
        },
        {
          "duration": 0.12903200000002357,
          "durationTicks": 160,
          "midi": 62,
          "name": "D4",
          "ticks": 276000,
          "time": 222.5802,
          "velocity": 0.7086614173228346
        },
        {
          "duration": 0.12903200000002357,
          "durationTicks": 160,
          "midi": 77,
          "name": "F5",
          "ticks": 276000,
          "time": 222.5802,
          "velocity": 0.7086614173228346
        },
        {
          "duration": 0.12903199999999515,
          "durationTicks": 160,
          "midi": 63,
          "name": "D#4",
          "ticks": 276480,
          "time": 222.967296,
          "velocity": 0.7086614173228346
        },
        {
          "duration": 0.12903199999999515,
          "durationTicks": 160,
          "midi": 75,
          "name": "D#5",
          "ticks": 276480,
          "time": 222.967296,
          "velocity": 0.7086614173228346
        },
        {
          "duration": 0.12903200000002357,
          "durationTicks": 160,
          "midi": 67,
          "name": "G4",
          "ticks": 276960,
          "time": 223.354392,
          "velocity": 0.7086614173228346
        },
        {
          "duration": 0.12903200000002357,
          "durationTicks": 160,
          "midi": 75,
          "name": "D#5",
          "ticks": 276960,
          "time": 223.354392,
          "velocity": 0.7086614173228346
        },
        {
          "duration": 0.12903199999999515,
          "durationTicks": 160,
          "midi": 67,
          "name": "G4",
          "ticks": 277440,
          "time": 223.741488,
          "velocity": 0.7086614173228346
        },
        {
          "duration": 0.12903199999999515,
          "durationTicks": 160,
          "midi": 75,
          "name": "D#5",
          "ticks": 277440,
          "time": 223.741488,
          "velocity": 0.7086614173228346
        },
        {
          "duration": 0.12903200000002357,
          "durationTicks": 160,
          "midi": 74,
          "name": "D5",
          "ticks": 281520,
          "time": 227.031804,
          "velocity": 0.47244094488188976
        },
        {
          "duration": 0.12903200000002357,
          "durationTicks": 160,
          "midi": 80,
          "name": "G#5",
          "ticks": 281520,
          "time": 227.031804,
          "velocity": 0.47244094488188976
        },
        {
          "duration": 0.12903200000002357,
          "durationTicks": 160,
          "midi": 74,
          "name": "D5",
          "ticks": 281760,
          "time": 227.225352,
          "velocity": 0.47244094488188976
        },
        {
          "duration": 0.12903200000002357,
          "durationTicks": 160,
          "midi": 80,
          "name": "G#5",
          "ticks": 281760,
          "time": 227.225352,
          "velocity": 0.47244094488188976
        },
        {
          "duration": 0.12903199999999515,
          "durationTicks": 160,
          "midi": 74,
          "name": "D5",
          "ticks": 282000,
          "time": 227.4189,
          "velocity": 0.47244094488188976
        },
        {
          "duration": 0.12903199999999515,
          "durationTicks": 160,
          "midi": 80,
          "name": "G#5",
          "ticks": 282000,
          "time": 227.4189,
          "velocity": 0.47244094488188976
        },
        {
          "duration": 0.12903200000002357,
          "durationTicks": 160,
          "midi": 75,
          "name": "D#5",
          "ticks": 282240,
          "time": 227.612448,
          "velocity": 0.47244094488188976
        },
        {
          "duration": 0.12903200000002357,
          "durationTicks": 160,
          "midi": 79,
          "name": "G5",
          "ticks": 282240,
          "time": 227.612448,
          "velocity": 0.47244094488188976
        },
        {
          "duration": 0.19354799999999273,
          "durationTicks": 240,
          "midi": 70,
          "name": "A#4",
          "ticks": 308640,
          "time": 248.902728,
          "velocity": 0.5118110236220472
        },
        {
          "duration": 0.19354799999999273,
          "durationTicks": 240,
          "midi": 74,
          "name": "D5",
          "ticks": 308640,
          "time": 248.902728,
          "velocity": 0.5118110236220472
        },
        {
          "duration": 0.19354800000002115,
          "durationTicks": 240,
          "midi": 72,
          "name": "C5",
          "ticks": 308880,
          "time": 249.096276,
          "velocity": 0.5118110236220472
        },
        {
          "duration": 0.19354800000002115,
          "durationTicks": 240,
          "midi": 75,
          "name": "D#5",
          "ticks": 308880,
          "time": 249.096276,
          "velocity": 0.5118110236220472
        },
        {
          "duration": 0.3225799999999879,
          "durationTicks": 400,
          "midi": 74,
          "name": "D5",
          "ticks": 309120,
          "time": 249.289824,
          "velocity": 0.5118110236220472
        },
        {
          "duration": 0.19354799999999273,
          "durationTicks": 240,
          "midi": 77,
          "name": "F5",
          "ticks": 309120,
          "time": 249.289824,
          "velocity": 0.5118110236220472
        },
        {
          "duration": 0.3225800000000163,
          "durationTicks": 400,
          "midi": 74,
          "name": "D5",
          "ticks": 309600,
          "time": 249.67692,
          "velocity": 0.5118110236220472
        },
        {
          "duration": 0.19354799999999273,
          "durationTicks": 240,
          "midi": 78,
          "name": "F#5",
          "ticks": 309600,
          "time": 249.67692,
          "velocity": 0.5118110236220472
        },
        {
          "duration": 0.3225800000000163,
          "durationTicks": 400,
          "midi": 75,
          "name": "D#5",
          "ticks": 310080,
          "time": 250.064016,
          "velocity": 0.5118110236220472
        },
        {
          "duration": 0.19354799999999273,
          "durationTicks": 240,
          "midi": 79,
          "name": "G5",
          "ticks": 310080,
          "time": 250.064016,
          "velocity": 0.5118110236220472
        },
        {
          "duration": 0.3225800000000163,
          "durationTicks": 400,
          "midi": 76,
          "name": "E5",
          "ticks": 310560,
          "time": 250.451112,
          "velocity": 0.5118110236220472
        },
        {
          "duration": 0.12903200000002357,
          "durationTicks": 160,
          "midi": 82,
          "name": "A#5",
          "ticks": 310560,
          "time": 250.451112,
          "velocity": 0.5118110236220472
        },
        {
          "duration": 0.14516100000000165,
          "durationTicks": 180,
          "midi": 77,
          "name": "F5",
          "ticks": 311040,
          "time": 250.838208,
          "velocity": 0.5118110236220472
        },
        {
          "duration": 0.5774181999999826,
          "durationTicks": 716,
          "midi": 80,
          "name": "G#5",
          "ticks": 311040,
          "time": 250.838208,
          "velocity": 0.5118110236220472
        },
        {
          "duration": 0.14516100000000165,
          "durationTicks": 180,
          "midi": 77,
          "name": "F5",
          "ticks": 311280,
          "time": 251.031756,
          "velocity": 0.5118110236220472
        },
        {
          "duration": 0.14516100000000165,
          "durationTicks": 180,
          "midi": 77,
          "name": "F5",
          "ticks": 311520,
          "time": 251.225304,
          "velocity": 0.5118110236220472
        },
        {
          "duration": 0.09354820000001496,
          "durationTicks": 116,
          "midi": 77,
          "name": "F5",
          "ticks": 311760,
          "time": 251.418852,
          "velocity": 0.5118110236220472
        },
        {
          "duration": 0.14516100000000165,
          "durationTicks": 180,
          "midi": 77,
          "name": "F5",
          "ticks": 311760,
          "time": 251.418852,
          "velocity": 0.5118110236220472
        },
        {
          "duration": 0.09354820000001496,
          "durationTicks": 116,
          "midi": 74,
          "name": "D5",
          "ticks": 311880,
          "time": 251.515626,
          "velocity": 0.5118110236220472
        },
        {
          "duration": 0.14516100000000165,
          "durationTicks": 180,
          "midi": 70,
          "name": "A#4",
          "ticks": 312000,
          "time": 251.6124,
          "velocity": 0.5118110236220472
        },
        {
          "duration": 0.14516100000000165,
          "durationTicks": 180,
          "midi": 77,
          "name": "F5",
          "ticks": 312000,
          "time": 251.6124,
          "velocity": 0.5118110236220472
        },
        {
          "duration": 0.19354799999999273,
          "durationTicks": 240,
          "midi": 69,
          "name": "A4",
          "ticks": 312240,
          "time": 251.805948,
          "velocity": 0.5118110236220472
        },
        {
          "duration": 0.19354799999999273,
          "durationTicks": 240,
          "midi": 72,
          "name": "C5",
          "ticks": 312240,
          "time": 251.805948,
          "velocity": 0.5118110236220472
        },
        {
          "duration": 0.19354799999999273,
          "durationTicks": 240,
          "midi": 70,
          "name": "A#4",
          "ticks": 312480,
          "time": 251.999496,
          "velocity": 0.5118110236220472
        },
        {
          "duration": 0.19354799999999273,
          "durationTicks": 240,
          "midi": 74,
          "name": "D5",
          "ticks": 312480,
          "time": 251.999496,
          "velocity": 0.5118110236220472
        },
        {
          "duration": 0.19354800000002115,
          "durationTicks": 240,
          "midi": 72,
          "name": "C5",
          "ticks": 312720,
          "time": 252.193044,
          "velocity": 0.5118110236220472
        },
        {
          "duration": 0.19354800000002115,
          "durationTicks": 240,
          "midi": 75,
          "name": "D#5",
          "ticks": 312720,
          "time": 252.193044,
          "velocity": 0.5118110236220472
        },
        {
          "duration": 0.3225800000000163,
          "durationTicks": 400,
          "midi": 74,
          "name": "D5",
          "ticks": 312960,
          "time": 252.386592,
          "velocity": 0.5118110236220472
        },
        {
          "duration": 0.19354799999999273,
          "durationTicks": 240,
          "midi": 77,
          "name": "F5",
          "ticks": 312960,
          "time": 252.386592,
          "velocity": 0.5118110236220472
        },
        {
          "duration": 0.3225800000000163,
          "durationTicks": 400,
          "midi": 74,
          "name": "D5",
          "ticks": 313440,
          "time": 252.773688,
          "velocity": 0.5118110236220472
        },
        {
          "duration": 0.19354799999999273,
          "durationTicks": 240,
          "midi": 78,
          "name": "F#5",
          "ticks": 313440,
          "time": 252.773688,
          "velocity": 0.5118110236220472
        },
        {
          "duration": 0.3225800000000163,
          "durationTicks": 400,
          "midi": 75,
          "name": "D#5",
          "ticks": 313920,
          "time": 253.160784,
          "velocity": 0.5118110236220472
        },
        {
          "duration": 0.19354799999999273,
          "durationTicks": 240,
          "midi": 79,
          "name": "G5",
          "ticks": 313920,
          "time": 253.160784,
          "velocity": 0.5118110236220472
        },
        {
          "duration": 0.3225800000000163,
          "durationTicks": 400,
          "midi": 76,
          "name": "E5",
          "ticks": 314400,
          "time": 253.54788,
          "velocity": 0.5118110236220472
        },
        {
          "duration": 0.12903200000002357,
          "durationTicks": 160,
          "midi": 82,
          "name": "A#5",
          "ticks": 314400,
          "time": 253.54788,
          "velocity": 0.5118110236220472
        },
        {
          "duration": 0.14516100000000165,
          "durationTicks": 180,
          "midi": 77,
          "name": "F5",
          "ticks": 314880,
          "time": 253.934976,
          "velocity": 0.5118110236220472
        },
        {
          "duration": 0.5774181999999826,
          "durationTicks": 716,
          "midi": 80,
          "name": "G#5",
          "ticks": 314880,
          "time": 253.934976,
          "velocity": 0.5118110236220472
        },
        {
          "duration": 0.14516100000000165,
          "durationTicks": 180,
          "midi": 77,
          "name": "F5",
          "ticks": 315120,
          "time": 254.128524,
          "velocity": 0.5118110236220472
        },
        {
          "duration": 0.14516100000000165,
          "durationTicks": 180,
          "midi": 77,
          "name": "F5",
          "ticks": 315360,
          "time": 254.322072,
          "velocity": 0.5118110236220472
        },
        {
          "duration": 0.09354820000001496,
          "durationTicks": 116,
          "midi": 77,
          "name": "F5",
          "ticks": 315600,
          "time": 254.51561999999998,
          "velocity": 0.5118110236220472
        },
        {
          "duration": 0.14516100000000165,
          "durationTicks": 180,
          "midi": 77,
          "name": "F5",
          "ticks": 315600,
          "time": 254.51561999999998,
          "velocity": 0.5118110236220472
        },
        {
          "duration": 0.09354820000001496,
          "durationTicks": 116,
          "midi": 74,
          "name": "D5",
          "ticks": 315720,
          "time": 254.612394,
          "velocity": 0.5118110236220472
        },
        {
          "duration": 0.12903199999999515,
          "durationTicks": 160,
          "midi": 70,
          "name": "A#4",
          "ticks": 315840,
          "time": 254.709168,
          "velocity": 0.5118110236220472
        },
        {
          "duration": 0.12903199999999515,
          "durationTicks": 160,
          "midi": 77,
          "name": "F5",
          "ticks": 315840,
          "time": 254.709168,
          "velocity": 0.5118110236220472
        },
        {
          "duration": 0.38709599999998545,
          "durationTicks": 480,
          "midi": 75,
          "name": "D#5",
          "ticks": 317280,
          "time": 255.870456,
          "velocity": 0.7086614173228346
        },
        {
          "duration": 0.3870960000000423,
          "durationTicks": 480,
          "midi": 74,
          "name": "D5",
          "ticks": 317760,
          "time": 256.257552,
          "velocity": 0.7086614173228346
        },
        {
          "duration": 0.38709599999998545,
          "durationTicks": 480,
          "midi": 77,
          "name": "F5",
          "ticks": 318240,
          "time": 256.644648,
          "velocity": 0.7086614173228346
        },
        {
          "duration": 0.38709599999998545,
          "durationTicks": 480,
          "midi": 80,
          "name": "G#5",
          "ticks": 318240,
          "time": 256.644648,
          "velocity": 0.7086614173228346
        },
        {
          "duration": 0.12903199999999515,
          "durationTicks": 160,
          "midi": 75,
          "name": "D#5",
          "ticks": 318720,
          "time": 257.031744,
          "velocity": 0.7086614173228346
        },
        {
          "duration": 0.12903199999999515,
          "durationTicks": 160,
          "midi": 79,
          "name": "G5",
          "ticks": 318720,
          "time": 257.031744,
          "velocity": 0.7086614173228346
        },
        {
          "duration": 0.3225800000000163,
          "durationTicks": 400,
          "midi": 74,
          "name": "D5",
          "ticks": 319680,
          "time": 257.805936,
          "velocity": 0.7086614173228346
        },
        {
          "duration": 0.38709599999998545,
          "durationTicks": 480,
          "midi": 77,
          "name": "F5",
          "ticks": 320160,
          "time": 258.193032,
          "velocity": 0.7086614173228346
        },
        {
          "duration": 0.38709599999998545,
          "durationTicks": 480,
          "midi": 80,
          "name": "G#5",
          "ticks": 320160,
          "time": 258.193032,
          "velocity": 0.7086614173228346
        },
        {
          "duration": 0.1370964999999842,
          "durationTicks": 170,
          "midi": 79,
          "name": "G5",
          "ticks": 320640,
          "time": 258.580128,
          "velocity": 0.7086614173228346
        },
        {
          "duration": 0.1935479999999643,
          "durationTicks": 240,
          "midi": 68,
          "name": "G#4",
          "ticks": 320880,
          "time": 258.773676,
          "velocity": 0.7086614173228346
        },
        {
          "duration": 0.1935479999999643,
          "durationTicks": 240,
          "midi": 74,
          "name": "D5",
          "ticks": 320880,
          "time": 258.773676,
          "velocity": 0.7086614173228346
        },
        {
          "duration": 0.19354800000002115,
          "durationTicks": 240,
          "midi": 67,
          "name": "G4",
          "ticks": 321120,
          "time": 258.967224,
          "velocity": 0.7086614173228346
        },
        {
          "duration": 0.19354800000002115,
          "durationTicks": 240,
          "midi": 75,
          "name": "D#5",
          "ticks": 321120,
          "time": 258.967224,
          "velocity": 0.7086614173228346
        },
        {
          "duration": 0.1935479999999643,
          "durationTicks": 240,
          "midi": 65,
          "name": "F4",
          "ticks": 321360,
          "time": 259.160772,
          "velocity": 0.7086614173228346
        },
        {
          "duration": 0.1935479999999643,
          "durationTicks": 240,
          "midi": 77,
          "name": "F5",
          "ticks": 321360,
          "time": 259.160772,
          "velocity": 0.7086614173228346
        },
        {
          "duration": 0.129032000000052,
          "durationTicks": 160,
          "midi": 63,
          "name": "D#4",
          "ticks": 321600,
          "time": 259.35432,
          "velocity": 0.7086614173228346
        },
        {
          "duration": 0.129032000000052,
          "durationTicks": 160,
          "midi": 79,
          "name": "G5",
          "ticks": 321600,
          "time": 259.35432,
          "velocity": 0.7086614173228346
        },
        {
          "duration": 0.12903199999999515,
          "durationTicks": 160,
          "midi": 62,
          "name": "D4",
          "ticks": 322080,
          "time": 259.741416,
          "velocity": 0.7086614173228346
        },
        {
          "duration": 0.12903199999999515,
          "durationTicks": 160,
          "midi": 77,
          "name": "F5",
          "ticks": 322080,
          "time": 259.741416,
          "velocity": 0.7086614173228346
        },
        {
          "duration": 0.12903199999999515,
          "durationTicks": 160,
          "midi": 63,
          "name": "D#4",
          "ticks": 322560,
          "time": 260.128512,
          "velocity": 0.7086614173228346
        },
        {
          "duration": 0.12903199999999515,
          "durationTicks": 160,
          "midi": 75,
          "name": "D#5",
          "ticks": 322560,
          "time": 260.128512,
          "velocity": 0.7086614173228346
        },
        {
          "duration": 0.129032000000052,
          "durationTicks": 160,
          "midi": 67,
          "name": "G4",
          "ticks": 323040,
          "time": 260.515608,
          "velocity": 0.7086614173228346
        },
        {
          "duration": 0.129032000000052,
          "durationTicks": 160,
          "midi": 75,
          "name": "D#5",
          "ticks": 323040,
          "time": 260.515608,
          "velocity": 0.7086614173228346
        },
        {
          "duration": 0.129032000000052,
          "durationTicks": 160,
          "midi": 67,
          "name": "G4",
          "ticks": 323520,
          "time": 260.90270399999997,
          "velocity": 0.7086614173228346
        },
        {
          "duration": 0.129032000000052,
          "durationTicks": 160,
          "midi": 75,
          "name": "D#5",
          "ticks": 323520,
          "time": 260.90270399999997,
          "velocity": 0.7086614173228346
        },
        {
          "duration": 0.19032220000002553,
          "durationTicks": 236,
          "midi": 70,
          "name": "A#4",
          "ticks": 354720,
          "time": 286.063944,
          "velocity": 0.5511811023622047
        },
        {
          "duration": 0.19032220000002553,
          "durationTicks": 236,
          "midi": 74,
          "name": "D5",
          "ticks": 354720,
          "time": 286.063944,
          "velocity": 0.5511811023622047
        },
        {
          "duration": 0.1935479999999643,
          "durationTicks": 240,
          "midi": 72,
          "name": "C5",
          "ticks": 354960,
          "time": 286.257492,
          "velocity": 0.5511811023622047
        },
        {
          "duration": 0.1903221999999687,
          "durationTicks": 236,
          "midi": 75,
          "name": "D#5",
          "ticks": 354960,
          "time": 286.257492,
          "velocity": 0.5511811023622047
        },
        {
          "duration": 0.7741920000000277,
          "durationTicks": 960,
          "midi": 74,
          "name": "D5",
          "ticks": 355200,
          "time": 286.45104,
          "velocity": 0.5511811023622047
        },
        {
          "duration": 0.3870960000000423,
          "durationTicks": 480,
          "midi": 77,
          "name": "F5",
          "ticks": 355200,
          "time": 286.45104,
          "velocity": 0.5511811023622047
        },
        {
          "duration": 0.38709599999998545,
          "durationTicks": 480,
          "midi": 78,
          "name": "F#5",
          "ticks": 355680,
          "time": 286.838136,
          "velocity": 0.5511811023622047
        },
        {
          "duration": 0.38709599999998545,
          "durationTicks": 480,
          "midi": 75,
          "name": "D#5",
          "ticks": 356160,
          "time": 287.225232,
          "velocity": 0.5511811023622047
        },
        {
          "duration": 0.7096760000000017,
          "durationTicks": 880,
          "midi": 79,
          "name": "G5",
          "ticks": 356160,
          "time": 287.225232,
          "velocity": 0.5511811023622047
        },
        {
          "duration": 0.3225800000000163,
          "durationTicks": 400,
          "midi": 76,
          "name": "E5",
          "ticks": 356640,
          "time": 287.612328,
          "velocity": 0.5511811023622047
        },
        {
          "duration": 0.129032000000052,
          "durationTicks": 160,
          "midi": 77,
          "name": "F5",
          "ticks": 357120,
          "time": 287.999424,
          "velocity": 0.5511811023622047
        },
        {
          "duration": 0.129032000000052,
          "durationTicks": 160,
          "midi": 80,
          "name": "G#5",
          "ticks": 357120,
          "time": 287.999424,
          "velocity": 0.5511811023622047
        },
        {
          "duration": 0.12903199999999515,
          "durationTicks": 160,
          "midi": 77,
          "name": "F5",
          "ticks": 357360,
          "time": 288.192972,
          "velocity": 0.5511811023622047
        },
        {
          "duration": 0.12903199999999515,
          "durationTicks": 160,
          "midi": 80,
          "name": "G#5",
          "ticks": 357360,
          "time": 288.192972,
          "velocity": 0.5511811023622047
        },
        {
          "duration": 0.12903199999999515,
          "durationTicks": 160,
          "midi": 77,
          "name": "F5",
          "ticks": 357600,
          "time": 288.38652,
          "velocity": 0.5511811023622047
        },
        {
          "duration": 0.12903199999999515,
          "durationTicks": 160,
          "midi": 80,
          "name": "G#5",
          "ticks": 357600,
          "time": 288.38652,
          "velocity": 0.5511811023622047
        },
        {
          "duration": 0.129032000000052,
          "durationTicks": 160,
          "midi": 77,
          "name": "F5",
          "ticks": 357840,
          "time": 288.580068,
          "velocity": 0.5511811023622047
        },
        {
          "duration": 0.129032000000052,
          "durationTicks": 160,
          "midi": 80,
          "name": "G#5",
          "ticks": 357840,
          "time": 288.580068,
          "velocity": 0.5511811023622047
        },
        {
          "duration": 0.12903199999999515,
          "durationTicks": 160,
          "midi": 77,
          "name": "F5",
          "ticks": 358080,
          "time": 288.773616,
          "velocity": 0.5511811023622047
        },
        {
          "duration": 0.12903199999999515,
          "durationTicks": 160,
          "midi": 80,
          "name": "G#5",
          "ticks": 358080,
          "time": 288.773616,
          "velocity": 0.5511811023622047
        },
        {
          "duration": 0.7741920000000277,
          "durationTicks": 960,
          "midi": 74,
          "name": "D5",
          "ticks": 359040,
          "time": 289.547808,
          "velocity": 0.5511811023622047
        },
        {
          "duration": 0.3870960000000423,
          "durationTicks": 480,
          "midi": 77,
          "name": "F5",
          "ticks": 359040,
          "time": 289.547808,
          "velocity": 0.5511811023622047
        },
        {
          "duration": 0.38709599999998545,
          "durationTicks": 480,
          "midi": 78,
          "name": "F#5",
          "ticks": 359520,
          "time": 289.934904,
          "velocity": 0.5511811023622047
        },
        {
          "duration": 0.38709599999998545,
          "durationTicks": 480,
          "midi": 75,
          "name": "D#5",
          "ticks": 360000,
          "time": 290.322,
          "velocity": 0.5511811023622047
        },
        {
          "duration": 0.7096760000000017,
          "durationTicks": 880,
          "midi": 79,
          "name": "G5",
          "ticks": 360000,
          "time": 290.322,
          "velocity": 0.5511811023622047
        },
        {
          "duration": 0.3225800000000163,
          "durationTicks": 400,
          "midi": 76,
          "name": "E5",
          "ticks": 360480,
          "time": 290.709096,
          "velocity": 0.5511811023622047
        },
        {
          "duration": 0.129032000000052,
          "durationTicks": 160,
          "midi": 77,
          "name": "F5",
          "ticks": 360960,
          "time": 291.096192,
          "velocity": 0.5511811023622047
        },
        {
          "duration": 0.129032000000052,
          "durationTicks": 160,
          "midi": 80,
          "name": "G#5",
          "ticks": 360960,
          "time": 291.096192,
          "velocity": 0.5511811023622047
        },
        {
          "duration": 0.12903199999999515,
          "durationTicks": 160,
          "midi": 77,
          "name": "F5",
          "ticks": 361200,
          "time": 291.28974,
          "velocity": 0.5511811023622047
        },
        {
          "duration": 0.12903199999999515,
          "durationTicks": 160,
          "midi": 80,
          "name": "G#5",
          "ticks": 361200,
          "time": 291.28974,
          "velocity": 0.5511811023622047
        },
        {
          "duration": 0.12903199999999515,
          "durationTicks": 160,
          "midi": 77,
          "name": "F5",
          "ticks": 361440,
          "time": 291.483288,
          "velocity": 0.5511811023622047
        },
        {
          "duration": 0.12903199999999515,
          "durationTicks": 160,
          "midi": 80,
          "name": "G#5",
          "ticks": 361440,
          "time": 291.483288,
          "velocity": 0.5511811023622047
        },
        {
          "duration": 0.129032000000052,
          "durationTicks": 160,
          "midi": 77,
          "name": "F5",
          "ticks": 361680,
          "time": 291.676836,
          "velocity": 0.5511811023622047
        },
        {
          "duration": 0.129032000000052,
          "durationTicks": 160,
          "midi": 80,
          "name": "G#5",
          "ticks": 361680,
          "time": 291.676836,
          "velocity": 0.5511811023622047
        },
        {
          "duration": 0.12903199999999515,
          "durationTicks": 160,
          "midi": 77,
          "name": "F5",
          "ticks": 361920,
          "time": 291.870384,
          "velocity": 0.5511811023622047
        },
        {
          "duration": 0.12903199999999515,
          "durationTicks": 160,
          "midi": 80,
          "name": "G#5",
          "ticks": 361920,
          "time": 291.870384,
          "velocity": 0.5511811023622047
        },
        {
          "duration": 0.38709599999998545,
          "durationTicks": 480,
          "midi": 75,
          "name": "D#5",
          "ticks": 363360,
          "time": 293.031672,
          "velocity": 0.7086614173228346
        },
        {
          "duration": 0.38709599999998545,
          "durationTicks": 480,
          "midi": 74,
          "name": "D5",
          "ticks": 363840,
          "time": 293.418768,
          "velocity": 0.7086614173228346
        },
        {
          "duration": 0.38709599999998545,
          "durationTicks": 480,
          "midi": 77,
          "name": "F5",
          "ticks": 364320,
          "time": 293.805864,
          "velocity": 0.7086614173228346
        },
        {
          "duration": 0.38709599999998545,
          "durationTicks": 480,
          "midi": 80,
          "name": "G#5",
          "ticks": 364320,
          "time": 293.805864,
          "velocity": 0.7086614173228346
        },
        {
          "duration": 0.129032000000052,
          "durationTicks": 160,
          "midi": 75,
          "name": "D#5",
          "ticks": 364800,
          "time": 294.19295999999997,
          "velocity": 0.7086614173228346
        },
        {
          "duration": 0.129032000000052,
          "durationTicks": 160,
          "midi": 79,
          "name": "G5",
          "ticks": 364800,
          "time": 294.19295999999997,
          "velocity": 0.7086614173228346
        },
        {
          "duration": 0.3225800000000163,
          "durationTicks": 400,
          "midi": 74,
          "name": "D5",
          "ticks": 365760,
          "time": 294.967152,
          "velocity": 0.7086614173228346
        },
        {
          "duration": 0.38709599999998545,
          "durationTicks": 480,
          "midi": 77,
          "name": "F5",
          "ticks": 366240,
          "time": 295.354248,
          "velocity": 0.7086614173228346
        },
        {
          "duration": 0.38709599999998545,
          "durationTicks": 480,
          "midi": 80,
          "name": "G#5",
          "ticks": 366240,
          "time": 295.354248,
          "velocity": 0.7086614173228346
        },
        {
          "duration": 0.1370964999999842,
          "durationTicks": 170,
          "midi": 79,
          "name": "G5",
          "ticks": 366720,
          "time": 295.74134399999997,
          "velocity": 0.7086614173228346
        },
        {
          "duration": 0.19354800000002115,
          "durationTicks": 240,
          "midi": 68,
          "name": "G#4",
          "ticks": 366960,
          "time": 295.934892,
          "velocity": 0.7086614173228346
        },
        {
          "duration": 0.19354800000002115,
          "durationTicks": 240,
          "midi": 74,
          "name": "D5",
          "ticks": 366960,
          "time": 295.934892,
          "velocity": 0.7086614173228346
        },
        {
          "duration": 0.1935479999999643,
          "durationTicks": 240,
          "midi": 67,
          "name": "G4",
          "ticks": 367200,
          "time": 296.12844,
          "velocity": 0.7086614173228346
        },
        {
          "duration": 0.1935479999999643,
          "durationTicks": 240,
          "midi": 75,
          "name": "D#5",
          "ticks": 367200,
          "time": 296.12844,
          "velocity": 0.7086614173228346
        },
        {
          "duration": 0.19354800000002115,
          "durationTicks": 240,
          "midi": 65,
          "name": "F4",
          "ticks": 367440,
          "time": 296.321988,
          "velocity": 0.7086614173228346
        },
        {
          "duration": 0.19354800000002115,
          "durationTicks": 240,
          "midi": 77,
          "name": "F5",
          "ticks": 367440,
          "time": 296.321988,
          "velocity": 0.7086614173228346
        },
        {
          "duration": 0.12903199999999515,
          "durationTicks": 160,
          "midi": 63,
          "name": "D#4",
          "ticks": 367680,
          "time": 296.515536,
          "velocity": 0.7086614173228346
        },
        {
          "duration": 0.12903199999999515,
          "durationTicks": 160,
          "midi": 79,
          "name": "G5",
          "ticks": 367680,
          "time": 296.515536,
          "velocity": 0.7086614173228346
        },
        {
          "duration": 0.129032000000052,
          "durationTicks": 160,
          "midi": 62,
          "name": "D4",
          "ticks": 368160,
          "time": 296.902632,
          "velocity": 0.7086614173228346
        },
        {
          "duration": 0.129032000000052,
          "durationTicks": 160,
          "midi": 77,
          "name": "F5",
          "ticks": 368160,
          "time": 296.902632,
          "velocity": 0.7086614173228346
        },
        {
          "duration": 0.129032000000052,
          "durationTicks": 160,
          "midi": 63,
          "name": "D#4",
          "ticks": 368640,
          "time": 297.28972799999997,
          "velocity": 0.7086614173228346
        },
        {
          "duration": 0.129032000000052,
          "durationTicks": 160,
          "midi": 75,
          "name": "D#5",
          "ticks": 368640,
          "time": 297.28972799999997,
          "velocity": 0.7086614173228346
        },
        {
          "duration": 0.12903199999999515,
          "durationTicks": 160,
          "midi": 67,
          "name": "G4",
          "ticks": 369120,
          "time": 297.676824,
          "velocity": 0.7086614173228346
        },
        {
          "duration": 0.12903199999999515,
          "durationTicks": 160,
          "midi": 75,
          "name": "D#5",
          "ticks": 369120,
          "time": 297.676824,
          "velocity": 0.7086614173228346
        },
        {
          "duration": 0.12903199999999515,
          "durationTicks": 160,
          "midi": 67,
          "name": "G4",
          "ticks": 369600,
          "time": 298.06392,
          "velocity": 0.7086614173228346
        },
        {
          "duration": 0.12903199999999515,
          "durationTicks": 160,
          "midi": 75,
          "name": "D#5",
          "ticks": 369600,
          "time": 298.06392,
          "velocity": 0.7086614173228346
        },
        {
          "duration": 0.1903221999999687,
          "durationTicks": 236,
          "midi": 70,
          "name": "A#4",
          "ticks": 400800,
          "time": 323.22516,
          "velocity": 0.5511811023622047
        },
        {
          "duration": 0.1903221999999687,
          "durationTicks": 236,
          "midi": 74,
          "name": "D5",
          "ticks": 400800,
          "time": 323.22516,
          "velocity": 0.5511811023622047
        },
        {
          "duration": 0.19354800000002115,
          "durationTicks": 240,
          "midi": 72,
          "name": "C5",
          "ticks": 401040,
          "time": 323.418708,
          "velocity": 0.5511811023622047
        },
        {
          "duration": 0.19032220000002553,
          "durationTicks": 236,
          "midi": 75,
          "name": "D#5",
          "ticks": 401040,
          "time": 323.418708,
          "velocity": 0.5511811023622047
        },
        {
          "duration": 0.7741919999999709,
          "durationTicks": 960,
          "midi": 74,
          "name": "D5",
          "ticks": 401280,
          "time": 323.612256,
          "velocity": 0.5511811023622047
        },
        {
          "duration": 0.38709599999998545,
          "durationTicks": 480,
          "midi": 77,
          "name": "F5",
          "ticks": 401280,
          "time": 323.612256,
          "velocity": 0.5511811023622047
        },
        {
          "duration": 0.38709599999998545,
          "durationTicks": 480,
          "midi": 78,
          "name": "F#5",
          "ticks": 401760,
          "time": 323.999352,
          "velocity": 0.5511811023622047
        },
        {
          "duration": 0.3870960000000423,
          "durationTicks": 480,
          "midi": 75,
          "name": "D#5",
          "ticks": 402240,
          "time": 324.386448,
          "velocity": 0.5511811023622047
        },
        {
          "duration": 0.7096760000000586,
          "durationTicks": 880,
          "midi": 79,
          "name": "G5",
          "ticks": 402240,
          "time": 324.386448,
          "velocity": 0.5511811023622047
        },
        {
          "duration": 0.3225800000000163,
          "durationTicks": 400,
          "midi": 76,
          "name": "E5",
          "ticks": 402720,
          "time": 324.773544,
          "velocity": 0.5511811023622047
        },
        {
          "duration": 0.12903199999999515,
          "durationTicks": 160,
          "midi": 77,
          "name": "F5",
          "ticks": 403200,
          "time": 325.16064,
          "velocity": 0.5511811023622047
        },
        {
          "duration": 0.12903199999999515,
          "durationTicks": 160,
          "midi": 80,
          "name": "G#5",
          "ticks": 403200,
          "time": 325.16064,
          "velocity": 0.5511811023622047
        },
        {
          "duration": 0.12903199999999515,
          "durationTicks": 160,
          "midi": 77,
          "name": "F5",
          "ticks": 403440,
          "time": 325.354188,
          "velocity": 0.5511811023622047
        },
        {
          "duration": 0.12903199999999515,
          "durationTicks": 160,
          "midi": 80,
          "name": "G#5",
          "ticks": 403440,
          "time": 325.354188,
          "velocity": 0.5511811023622047
        },
        {
          "duration": 0.129032000000052,
          "durationTicks": 160,
          "midi": 77,
          "name": "F5",
          "ticks": 403680,
          "time": 325.547736,
          "velocity": 0.5511811023622047
        },
        {
          "duration": 0.129032000000052,
          "durationTicks": 160,
          "midi": 80,
          "name": "G#5",
          "ticks": 403680,
          "time": 325.547736,
          "velocity": 0.5511811023622047
        },
        {
          "duration": 0.12903199999999515,
          "durationTicks": 160,
          "midi": 77,
          "name": "F5",
          "ticks": 403920,
          "time": 325.741284,
          "velocity": 0.5511811023622047
        },
        {
          "duration": 0.12903199999999515,
          "durationTicks": 160,
          "midi": 80,
          "name": "G#5",
          "ticks": 403920,
          "time": 325.741284,
          "velocity": 0.5511811023622047
        },
        {
          "duration": 0.129032000000052,
          "durationTicks": 160,
          "midi": 77,
          "name": "F5",
          "ticks": 404160,
          "time": 325.934832,
          "velocity": 0.5511811023622047
        },
        {
          "duration": 0.129032000000052,
          "durationTicks": 160,
          "midi": 80,
          "name": "G#5",
          "ticks": 404160,
          "time": 325.934832,
          "velocity": 0.5511811023622047
        },
        {
          "duration": 0.1903221999999687,
          "durationTicks": 236,
          "midi": 70,
          "name": "A#4",
          "ticks": 404640,
          "time": 326.321928,
          "velocity": 0.5511811023622047
        },
        {
          "duration": 0.1903221999999687,
          "durationTicks": 236,
          "midi": 74,
          "name": "D5",
          "ticks": 404640,
          "time": 326.321928,
          "velocity": 0.5511811023622047
        },
        {
          "duration": 0.19354800000002115,
          "durationTicks": 240,
          "midi": 72,
          "name": "C5",
          "ticks": 404880,
          "time": 326.515476,
          "velocity": 0.5511811023622047
        },
        {
          "duration": 0.19032220000002553,
          "durationTicks": 236,
          "midi": 75,
          "name": "D#5",
          "ticks": 404880,
          "time": 326.515476,
          "velocity": 0.5511811023622047
        },
        {
          "duration": 0.7741919999999709,
          "durationTicks": 960,
          "midi": 74,
          "name": "D5",
          "ticks": 405120,
          "time": 326.709024,
          "velocity": 0.5511811023622047
        },
        {
          "duration": 0.38709599999998545,
          "durationTicks": 480,
          "midi": 77,
          "name": "F5",
          "ticks": 405120,
          "time": 326.709024,
          "velocity": 0.5511811023622047
        },
        {
          "duration": 0.38709599999998545,
          "durationTicks": 480,
          "midi": 78,
          "name": "F#5",
          "ticks": 405600,
          "time": 327.09612,
          "velocity": 0.5511811023622047
        },
        {
          "duration": 0.3870960000000423,
          "durationTicks": 480,
          "midi": 75,
          "name": "D#5",
          "ticks": 406080,
          "time": 327.48321599999997,
          "velocity": 0.5511811023622047
        },
        {
          "duration": 0.7096760000000586,
          "durationTicks": 880,
          "midi": 79,
          "name": "G5",
          "ticks": 406080,
          "time": 327.48321599999997,
          "velocity": 0.5511811023622047
        },
        {
          "duration": 0.3225800000000163,
          "durationTicks": 400,
          "midi": 76,
          "name": "E5",
          "ticks": 406560,
          "time": 327.870312,
          "velocity": 0.5511811023622047
        },
        {
          "duration": 0.12903199999999515,
          "durationTicks": 160,
          "midi": 77,
          "name": "F5",
          "ticks": 407040,
          "time": 328.257408,
          "velocity": 0.5511811023622047
        },
        {
          "duration": 0.12903199999999515,
          "durationTicks": 160,
          "midi": 80,
          "name": "G#5",
          "ticks": 407040,
          "time": 328.257408,
          "velocity": 0.5511811023622047
        },
        {
          "duration": 0.12903199999999515,
          "durationTicks": 160,
          "midi": 77,
          "name": "F5",
          "ticks": 407280,
          "time": 328.450956,
          "velocity": 0.5511811023622047
        },
        {
          "duration": 0.12903199999999515,
          "durationTicks": 160,
          "midi": 80,
          "name": "G#5",
          "ticks": 407280,
          "time": 328.450956,
          "velocity": 0.5511811023622047
        },
        {
          "duration": 0.129032000000052,
          "durationTicks": 160,
          "midi": 77,
          "name": "F5",
          "ticks": 407520,
          "time": 328.644504,
          "velocity": 0.5511811023622047
        },
        {
          "duration": 0.129032000000052,
          "durationTicks": 160,
          "midi": 80,
          "name": "G#5",
          "ticks": 407520,
          "time": 328.644504,
          "velocity": 0.5511811023622047
        },
        {
          "duration": 0.12903199999999515,
          "durationTicks": 160,
          "midi": 77,
          "name": "F5",
          "ticks": 407760,
          "time": 328.838052,
          "velocity": 0.5511811023622047
        },
        {
          "duration": 0.12903199999999515,
          "durationTicks": 160,
          "midi": 80,
          "name": "G#5",
          "ticks": 407760,
          "time": 328.838052,
          "velocity": 0.5511811023622047
        },
        {
          "duration": 0.129032000000052,
          "durationTicks": 160,
          "midi": 77,
          "name": "F5",
          "ticks": 408000,
          "time": 329.03159999999997,
          "velocity": 0.5511811023622047
        },
        {
          "duration": 0.129032000000052,
          "durationTicks": 160,
          "midi": 80,
          "name": "G#5",
          "ticks": 408000,
          "time": 329.03159999999997,
          "velocity": 0.5511811023622047
        },
        {
          "duration": 0.3870960000000423,
          "durationTicks": 480,
          "midi": 75,
          "name": "D#5",
          "ticks": 409440,
          "time": 330.192888,
          "velocity": 0.7086614173228346
        },
        {
          "duration": 0.38709599999998545,
          "durationTicks": 480,
          "midi": 74,
          "name": "D5",
          "ticks": 409920,
          "time": 330.579984,
          "velocity": 0.7086614173228346
        },
        {
          "duration": 0.38709599999998545,
          "durationTicks": 480,
          "midi": 77,
          "name": "F5",
          "ticks": 410400,
          "time": 330.96708,
          "velocity": 0.7086614173228346
        },
        {
          "duration": 0.38709599999998545,
          "durationTicks": 480,
          "midi": 80,
          "name": "G#5",
          "ticks": 410400,
          "time": 330.96708,
          "velocity": 0.7086614173228346
        },
        {
          "duration": 0.12903199999999515,
          "durationTicks": 160,
          "midi": 75,
          "name": "D#5",
          "ticks": 410880,
          "time": 331.354176,
          "velocity": 0.7086614173228346
        },
        {
          "duration": 0.12903199999999515,
          "durationTicks": 160,
          "midi": 79,
          "name": "G5",
          "ticks": 410880,
          "time": 331.354176,
          "velocity": 0.7086614173228346
        },
        {
          "duration": 0.32257999999995945,
          "durationTicks": 400,
          "midi": 74,
          "name": "D5",
          "ticks": 411840,
          "time": 332.128368,
          "velocity": 0.7086614173228346
        },
        {
          "duration": 0.38709599999998545,
          "durationTicks": 480,
          "midi": 77,
          "name": "F5",
          "ticks": 412320,
          "time": 332.515464,
          "velocity": 0.7086614173228346
        },
        {
          "duration": 0.38709599999998545,
          "durationTicks": 480,
          "midi": 80,
          "name": "G#5",
          "ticks": 412320,
          "time": 332.515464,
          "velocity": 0.7086614173228346
        },
        {
          "duration": 0.1370964999999842,
          "durationTicks": 170,
          "midi": 79,
          "name": "G5",
          "ticks": 412800,
          "time": 332.90256,
          "velocity": 0.7086614173228346
        },
        {
          "duration": 0.1935479999999643,
          "durationTicks": 240,
          "midi": 68,
          "name": "G#4",
          "ticks": 413040,
          "time": 333.096108,
          "velocity": 0.7086614173228346
        },
        {
          "duration": 0.1935479999999643,
          "durationTicks": 240,
          "midi": 74,
          "name": "D5",
          "ticks": 413040,
          "time": 333.096108,
          "velocity": 0.7086614173228346
        },
        {
          "duration": 0.19354800000002115,
          "durationTicks": 240,
          "midi": 67,
          "name": "G4",
          "ticks": 413280,
          "time": 333.289656,
          "velocity": 0.7086614173228346
        },
        {
          "duration": 0.19354800000002115,
          "durationTicks": 240,
          "midi": 75,
          "name": "D#5",
          "ticks": 413280,
          "time": 333.289656,
          "velocity": 0.7086614173228346
        },
        {
          "duration": 0.19354800000002115,
          "durationTicks": 240,
          "midi": 65,
          "name": "F4",
          "ticks": 413520,
          "time": 333.483204,
          "velocity": 0.7086614173228346
        },
        {
          "duration": 0.19354800000002115,
          "durationTicks": 240,
          "midi": 77,
          "name": "F5",
          "ticks": 413520,
          "time": 333.483204,
          "velocity": 0.7086614173228346
        },
        {
          "duration": 0.12903199999999515,
          "durationTicks": 160,
          "midi": 63,
          "name": "D#4",
          "ticks": 413760,
          "time": 333.676752,
          "velocity": 0.7086614173228346
        },
        {
          "duration": 0.12903199999999515,
          "durationTicks": 160,
          "midi": 79,
          "name": "G5",
          "ticks": 413760,
          "time": 333.676752,
          "velocity": 0.7086614173228346
        },
        {
          "duration": 0.12903199999999515,
          "durationTicks": 160,
          "midi": 62,
          "name": "D4",
          "ticks": 414240,
          "time": 334.063848,
          "velocity": 0.7086614173228346
        },
        {
          "duration": 0.12903199999999515,
          "durationTicks": 160,
          "midi": 77,
          "name": "F5",
          "ticks": 414240,
          "time": 334.063848,
          "velocity": 0.7086614173228346
        },
        {
          "duration": 0.12903199999999515,
          "durationTicks": 160,
          "midi": 63,
          "name": "D#4",
          "ticks": 414720,
          "time": 334.450944,
          "velocity": 0.7086614173228346
        },
        {
          "duration": 0.12903199999999515,
          "durationTicks": 160,
          "midi": 75,
          "name": "D#5",
          "ticks": 414720,
          "time": 334.450944,
          "velocity": 0.7086614173228346
        },
        {
          "duration": 0.129032000000052,
          "durationTicks": 160,
          "midi": 67,
          "name": "G4",
          "ticks": 415200,
          "time": 334.83804,
          "velocity": 0.7086614173228346
        },
        {
          "duration": 0.129032000000052,
          "durationTicks": 160,
          "midi": 75,
          "name": "D#5",
          "ticks": 415200,
          "time": 334.83804,
          "velocity": 0.7086614173228346
        },
        {
          "duration": 0.12903199999999515,
          "durationTicks": 160,
          "midi": 67,
          "name": "G4",
          "ticks": 415680,
          "time": 335.225136,
          "velocity": 0.7086614173228346
        },
        {
          "duration": 0.12903199999999515,
          "durationTicks": 160,
          "midi": 75,
          "name": "D#5",
          "ticks": 415680,
          "time": 335.225136,
          "velocity": 0.7086614173228346
        },
        {
          "duration": 0.19354800000002115,
          "durationTicks": 240,
          "midi": 75,
          "name": "D#5",
          "ticks": 431280,
          "time": 347.805756,
          "velocity": 0.4330708661417323
        },
        {
          "duration": 0.19354800000002115,
          "durationTicks": 240,
          "midi": 79,
          "name": "G5",
          "ticks": 431280,
          "time": 347.805756,
          "velocity": 0.4330708661417323
        },
        {
          "duration": 0.19354800000002115,
          "durationTicks": 240,
          "midi": 74,
          "name": "D5",
          "ticks": 431520,
          "time": 347.999304,
          "velocity": 0.4330708661417323
        },
        {
          "duration": 0.19354800000002115,
          "durationTicks": 240,
          "midi": 77,
          "name": "F5",
          "ticks": 431520,
          "time": 347.999304,
          "velocity": 0.4330708661417323
        },
        {
          "duration": 0.1935479999999643,
          "durationTicks": 240,
          "midi": 72,
          "name": "C5",
          "ticks": 431760,
          "time": 348.192852,
          "velocity": 0.4330708661417323
        },
        {
          "duration": 0.1935479999999643,
          "durationTicks": 240,
          "midi": 75,
          "name": "D#5",
          "ticks": 431760,
          "time": 348.192852,
          "velocity": 0.4330708661417323
        },
        {
          "duration": 0.129032000000052,
          "durationTicks": 160,
          "midi": 71,
          "name": "B4",
          "ticks": 432000,
          "time": 348.3864,
          "velocity": 0.4330708661417323
        },
        {
          "duration": 0.129032000000052,
          "durationTicks": 160,
          "midi": 74,
          "name": "D5",
          "ticks": 432000,
          "time": 348.3864,
          "velocity": 0.4330708661417323
        },
        {
          "duration": 0.19032220000002553,
          "durationTicks": 236,
          "midi": 70,
          "name": "A#4",
          "ticks": 446880,
          "time": 360.386376,
          "velocity": 0.5511811023622047
        },
        {
          "duration": 0.19032220000002553,
          "durationTicks": 236,
          "midi": 74,
          "name": "D5",
          "ticks": 446880,
          "time": 360.386376,
          "velocity": 0.5511811023622047
        },
        {
          "duration": 0.1935479999999643,
          "durationTicks": 240,
          "midi": 72,
          "name": "C5",
          "ticks": 447120,
          "time": 360.579924,
          "velocity": 0.5511811023622047
        },
        {
          "duration": 0.1903221999999687,
          "durationTicks": 236,
          "midi": 75,
          "name": "D#5",
          "ticks": 447120,
          "time": 360.579924,
          "velocity": 0.5511811023622047
        },
        {
          "duration": 0.7741920000000277,
          "durationTicks": 960,
          "midi": 74,
          "name": "D5",
          "ticks": 447360,
          "time": 360.77347199999997,
          "velocity": 0.5511811023622047
        },
        {
          "duration": 0.3870960000000423,
          "durationTicks": 480,
          "midi": 77,
          "name": "F5",
          "ticks": 447360,
          "time": 360.77347199999997,
          "velocity": 0.5511811023622047
        },
        {
          "duration": 0.38709599999998545,
          "durationTicks": 480,
          "midi": 78,
          "name": "F#5",
          "ticks": 447840,
          "time": 361.160568,
          "velocity": 0.5511811023622047
        },
        {
          "duration": 0.38709599999998545,
          "durationTicks": 480,
          "midi": 75,
          "name": "D#5",
          "ticks": 448320,
          "time": 361.547664,
          "velocity": 0.5511811023622047
        },
        {
          "duration": 0.7096760000000017,
          "durationTicks": 880,
          "midi": 79,
          "name": "G5",
          "ticks": 448320,
          "time": 361.547664,
          "velocity": 0.5511811023622047
        },
        {
          "duration": 0.3225800000000163,
          "durationTicks": 400,
          "midi": 76,
          "name": "E5",
          "ticks": 448800,
          "time": 361.93476,
          "velocity": 0.5511811023622047
        },
        {
          "duration": 0.129032000000052,
          "durationTicks": 160,
          "midi": 77,
          "name": "F5",
          "ticks": 449280,
          "time": 362.32185599999997,
          "velocity": 0.5511811023622047
        },
        {
          "duration": 0.129032000000052,
          "durationTicks": 160,
          "midi": 80,
          "name": "G#5",
          "ticks": 449280,
          "time": 362.32185599999997,
          "velocity": 0.5511811023622047
        },
        {
          "duration": 0.12903199999999515,
          "durationTicks": 160,
          "midi": 77,
          "name": "F5",
          "ticks": 449520,
          "time": 362.515404,
          "velocity": 0.5511811023622047
        },
        {
          "duration": 0.12903199999999515,
          "durationTicks": 160,
          "midi": 80,
          "name": "G#5",
          "ticks": 449520,
          "time": 362.515404,
          "velocity": 0.5511811023622047
        },
        {
          "duration": 0.12903199999999515,
          "durationTicks": 160,
          "midi": 77,
          "name": "F5",
          "ticks": 449760,
          "time": 362.708952,
          "velocity": 0.5511811023622047
        },
        {
          "duration": 0.12903199999999515,
          "durationTicks": 160,
          "midi": 80,
          "name": "G#5",
          "ticks": 449760,
          "time": 362.708952,
          "velocity": 0.5511811023622047
        },
        {
          "duration": 0.129032000000052,
          "durationTicks": 160,
          "midi": 77,
          "name": "F5",
          "ticks": 450000,
          "time": 362.9025,
          "velocity": 0.5511811023622047
        },
        {
          "duration": 0.129032000000052,
          "durationTicks": 160,
          "midi": 80,
          "name": "G#5",
          "ticks": 450000,
          "time": 362.9025,
          "velocity": 0.5511811023622047
        },
        {
          "duration": 0.12903199999999515,
          "durationTicks": 160,
          "midi": 77,
          "name": "F5",
          "ticks": 450240,
          "time": 363.096048,
          "velocity": 0.5511811023622047
        },
        {
          "duration": 0.12903199999999515,
          "durationTicks": 160,
          "midi": 80,
          "name": "G#5",
          "ticks": 450240,
          "time": 363.096048,
          "velocity": 0.5511811023622047
        },
        {
          "duration": 0.19032220000002553,
          "durationTicks": 236,
          "midi": 70,
          "name": "A#4",
          "ticks": 450720,
          "time": 363.483144,
          "velocity": 0.5511811023622047
        },
        {
          "duration": 0.19032220000002553,
          "durationTicks": 236,
          "midi": 74,
          "name": "D5",
          "ticks": 450720,
          "time": 363.483144,
          "velocity": 0.5511811023622047
        },
        {
          "duration": 0.19354800000002115,
          "durationTicks": 240,
          "midi": 72,
          "name": "C5",
          "ticks": 450960,
          "time": 363.676692,
          "velocity": 0.5511811023622047
        },
        {
          "duration": 0.1903221999999687,
          "durationTicks": 236,
          "midi": 75,
          "name": "D#5",
          "ticks": 450960,
          "time": 363.676692,
          "velocity": 0.5511811023622047
        },
        {
          "duration": 0.7741919999999709,
          "durationTicks": 960,
          "midi": 74,
          "name": "D5",
          "ticks": 451200,
          "time": 363.87024,
          "velocity": 0.5511811023622047
        },
        {
          "duration": 0.38709599999998545,
          "durationTicks": 480,
          "midi": 77,
          "name": "F5",
          "ticks": 451200,
          "time": 363.87024,
          "velocity": 0.5511811023622047
        },
        {
          "duration": 0.38709599999998545,
          "durationTicks": 480,
          "midi": 78,
          "name": "F#5",
          "ticks": 451680,
          "time": 364.257336,
          "velocity": 0.5511811023622047
        },
        {
          "duration": 0.38709599999998545,
          "durationTicks": 480,
          "midi": 75,
          "name": "D#5",
          "ticks": 452160,
          "time": 364.644432,
          "velocity": 0.5511811023622047
        },
        {
          "duration": 0.7096760000000017,
          "durationTicks": 880,
          "midi": 79,
          "name": "G5",
          "ticks": 452160,
          "time": 364.644432,
          "velocity": 0.5511811023622047
        },
        {
          "duration": 0.3225800000000163,
          "durationTicks": 400,
          "midi": 76,
          "name": "E5",
          "ticks": 452640,
          "time": 365.031528,
          "velocity": 0.5511811023622047
        },
        {
          "duration": 0.12903199999999515,
          "durationTicks": 160,
          "midi": 77,
          "name": "F5",
          "ticks": 453120,
          "time": 365.418624,
          "velocity": 0.5511811023622047
        },
        {
          "duration": 0.12903199999999515,
          "durationTicks": 160,
          "midi": 80,
          "name": "G#5",
          "ticks": 453120,
          "time": 365.418624,
          "velocity": 0.5511811023622047
        },
        {
          "duration": 0.129032000000052,
          "durationTicks": 160,
          "midi": 77,
          "name": "F5",
          "ticks": 453360,
          "time": 365.612172,
          "velocity": 0.5511811023622047
        },
        {
          "duration": 0.129032000000052,
          "durationTicks": 160,
          "midi": 80,
          "name": "G#5",
          "ticks": 453360,
          "time": 365.612172,
          "velocity": 0.5511811023622047
        },
        {
          "duration": 0.12903199999999515,
          "durationTicks": 160,
          "midi": 77,
          "name": "F5",
          "ticks": 453600,
          "time": 365.80572,
          "velocity": 0.5511811023622047
        },
        {
          "duration": 0.12903199999999515,
          "durationTicks": 160,
          "midi": 80,
          "name": "G#5",
          "ticks": 453600,
          "time": 365.80572,
          "velocity": 0.5511811023622047
        },
        {
          "duration": 0.129032000000052,
          "durationTicks": 160,
          "midi": 77,
          "name": "F5",
          "ticks": 453840,
          "time": 365.999268,
          "velocity": 0.5511811023622047
        },
        {
          "duration": 0.129032000000052,
          "durationTicks": 160,
          "midi": 80,
          "name": "G#5",
          "ticks": 453840,
          "time": 365.999268,
          "velocity": 0.5511811023622047
        },
        {
          "duration": 0.12903199999999515,
          "durationTicks": 160,
          "midi": 77,
          "name": "F5",
          "ticks": 454080,
          "time": 366.192816,
          "velocity": 0.5511811023622047
        },
        {
          "duration": 0.12903199999999515,
          "durationTicks": 160,
          "midi": 80,
          "name": "G#5",
          "ticks": 454080,
          "time": 366.192816,
          "velocity": 0.5511811023622047
        },
        {
          "duration": 0.38709599999998545,
          "durationTicks": 480,
          "midi": 75,
          "name": "D#5",
          "ticks": 455520,
          "time": 367.354104,
          "velocity": 0.7086614173228346
        },
        {
          "duration": 0.38709599999998545,
          "durationTicks": 480,
          "midi": 74,
          "name": "D5",
          "ticks": 456000,
          "time": 367.7412,
          "velocity": 0.7086614173228346
        },
        {
          "duration": 0.3870960000000423,
          "durationTicks": 480,
          "midi": 77,
          "name": "F5",
          "ticks": 456480,
          "time": 368.128296,
          "velocity": 0.7086614173228346
        },
        {
          "duration": 0.3870960000000423,
          "durationTicks": 480,
          "midi": 80,
          "name": "G#5",
          "ticks": 456480,
          "time": 368.128296,
          "velocity": 0.7086614173228346
        },
        {
          "duration": 0.12903199999999515,
          "durationTicks": 160,
          "midi": 75,
          "name": "D#5",
          "ticks": 456960,
          "time": 368.515392,
          "velocity": 0.7086614173228346
        },
        {
          "duration": 0.12903199999999515,
          "durationTicks": 160,
          "midi": 79,
          "name": "G5",
          "ticks": 456960,
          "time": 368.515392,
          "velocity": 0.7086614173228346
        },
        {
          "duration": 0.3225800000000163,
          "durationTicks": 400,
          "midi": 74,
          "name": "D5",
          "ticks": 457920,
          "time": 369.289584,
          "velocity": 0.7086614173228346
        },
        {
          "duration": 0.3870960000000423,
          "durationTicks": 480,
          "midi": 77,
          "name": "F5",
          "ticks": 458400,
          "time": 369.67668,
          "velocity": 0.7086614173228346
        },
        {
          "duration": 0.3870960000000423,
          "durationTicks": 480,
          "midi": 80,
          "name": "G#5",
          "ticks": 458400,
          "time": 369.67668,
          "velocity": 0.7086614173228346
        },
        {
          "duration": 0.1370964999999842,
          "durationTicks": 170,
          "midi": 79,
          "name": "G5",
          "ticks": 458880,
          "time": 370.063776,
          "velocity": 0.7086614173228346
        },
        {
          "duration": 0.19354800000002115,
          "durationTicks": 240,
          "midi": 68,
          "name": "G#4",
          "ticks": 459120,
          "time": 370.257324,
          "velocity": 0.7086614173228346
        },
        {
          "duration": 0.19354800000002115,
          "durationTicks": 240,
          "midi": 74,
          "name": "D5",
          "ticks": 459120,
          "time": 370.257324,
          "velocity": 0.7086614173228346
        },
        {
          "duration": 0.1935479999999643,
          "durationTicks": 240,
          "midi": 67,
          "name": "G4",
          "ticks": 459360,
          "time": 370.450872,
          "velocity": 0.7086614173228346
        },
        {
          "duration": 0.1935479999999643,
          "durationTicks": 240,
          "midi": 75,
          "name": "D#5",
          "ticks": 459360,
          "time": 370.450872,
          "velocity": 0.7086614173228346
        },
        {
          "duration": 0.19354800000002115,
          "durationTicks": 240,
          "midi": 65,
          "name": "F4",
          "ticks": 459600,
          "time": 370.64441999999997,
          "velocity": 0.7086614173228346
        },
        {
          "duration": 0.19354800000002115,
          "durationTicks": 240,
          "midi": 77,
          "name": "F5",
          "ticks": 459600,
          "time": 370.64441999999997,
          "velocity": 0.7086614173228346
        },
        {
          "duration": 0.12903199999999515,
          "durationTicks": 160,
          "midi": 63,
          "name": "D#4",
          "ticks": 459840,
          "time": 370.837968,
          "velocity": 0.7086614173228346
        },
        {
          "duration": 0.12903199999999515,
          "durationTicks": 160,
          "midi": 79,
          "name": "G5",
          "ticks": 459840,
          "time": 370.837968,
          "velocity": 0.7086614173228346
        },
        {
          "duration": 0.129032000000052,
          "durationTicks": 160,
          "midi": 62,
          "name": "D4",
          "ticks": 460320,
          "time": 371.225064,
          "velocity": 0.7086614173228346
        },
        {
          "duration": 0.129032000000052,
          "durationTicks": 160,
          "midi": 77,
          "name": "F5",
          "ticks": 460320,
          "time": 371.225064,
          "velocity": 0.7086614173228346
        },
        {
          "duration": 0.12903199999999515,
          "durationTicks": 160,
          "midi": 63,
          "name": "D#4",
          "ticks": 460800,
          "time": 371.61216,
          "velocity": 0.7086614173228346
        },
        {
          "duration": 0.12903199999999515,
          "durationTicks": 160,
          "midi": 75,
          "name": "D#5",
          "ticks": 460800,
          "time": 371.61216,
          "velocity": 0.7086614173228346
        },
        {
          "duration": 0.12903199999999515,
          "durationTicks": 160,
          "midi": 67,
          "name": "G4",
          "ticks": 461280,
          "time": 371.999256,
          "velocity": 0.7086614173228346
        },
        {
          "duration": 0.12903199999999515,
          "durationTicks": 160,
          "midi": 75,
          "name": "D#5",
          "ticks": 461280,
          "time": 371.999256,
          "velocity": 0.7086614173228346
        },
        {
          "duration": 0.12903199999999515,
          "durationTicks": 160,
          "midi": 67,
          "name": "G4",
          "ticks": 461760,
          "time": 372.386352,
          "velocity": 0.7086614173228346
        },
        {
          "duration": 0.12903199999999515,
          "durationTicks": 160,
          "midi": 75,
          "name": "D#5",
          "ticks": 461760,
          "time": 372.386352,
          "velocity": 0.7086614173228346
        },
        {
          "duration": 0.16666666666668561,
          "durationTicks": 80,
          "midi": 77,
          "name": "F5",
          "ticks": 498120,
          "time": 410.136304,
          "velocity": 0.5905511811023622
        },
        {
          "duration": 0.16666666666668561,
          "durationTicks": 80,
          "midi": 80,
          "name": "G#5",
          "ticks": 498120,
          "time": 410.136304,
          "velocity": 0.5905511811023622
        },
        {
          "duration": 0.4583333333333144,
          "durationTicks": 220,
          "midi": 77,
          "name": "F5",
          "ticks": 498240,
          "time": 410.386304,
          "velocity": 0.5905511811023622
        },
        {
          "duration": 0.4583333333333144,
          "durationTicks": 220,
          "midi": 80,
          "name": "G#5",
          "ticks": 498240,
          "time": 410.386304,
          "velocity": 0.5905511811023622
        },
        {
          "duration": 0.16666666666668561,
          "durationTicks": 80,
          "midi": 77,
          "name": "F5",
          "ticks": 498600,
          "time": 411.136304,
          "velocity": 0.5905511811023622
        },
        {
          "duration": 0.16666666666668561,
          "durationTicks": 80,
          "midi": 80,
          "name": "G#5",
          "ticks": 498600,
          "time": 411.136304,
          "velocity": 0.5905511811023622
        },
        {
          "duration": 0.4583333333333144,
          "durationTicks": 220,
          "midi": 77,
          "name": "F5",
          "ticks": 498720,
          "time": 411.386304,
          "velocity": 0.5905511811023622
        },
        {
          "duration": 0.4583333333333144,
          "durationTicks": 220,
          "midi": 80,
          "name": "G#5",
          "ticks": 498720,
          "time": 411.386304,
          "velocity": 0.5905511811023622
        },
        {
          "duration": 0.16666666666668561,
          "durationTicks": 80,
          "midi": 77,
          "name": "F5",
          "ticks": 499080,
          "time": 412.136304,
          "velocity": 0.5905511811023622
        },
        {
          "duration": 0.16666666666668561,
          "durationTicks": 80,
          "midi": 80,
          "name": "G#5",
          "ticks": 499080,
          "time": 412.136304,
          "velocity": 0.5905511811023622
        },
        {
          "duration": 0.9916666666666742,
          "durationTicks": 476,
          "midi": 77,
          "name": "F5",
          "ticks": 499200,
          "time": 412.386304,
          "velocity": 0.5905511811023622
        },
        {
          "duration": 0.9916666666666742,
          "durationTicks": 476,
          "midi": 80,
          "name": "G#5",
          "ticks": 499200,
          "time": 412.386304,
          "velocity": 0.5905511811023622
        },
        {
          "duration": 0.16666666666668561,
          "durationTicks": 80,
          "midi": 77,
          "name": "F5",
          "ticks": 500040,
          "time": 414.136304,
          "velocity": 0.5905511811023622
        },
        {
          "duration": 0.16666666666668561,
          "durationTicks": 80,
          "midi": 80,
          "name": "G#5",
          "ticks": 500040,
          "time": 414.136304,
          "velocity": 0.5905511811023622
        },
        {
          "duration": 0.4583333333333144,
          "durationTicks": 220,
          "midi": 77,
          "name": "F5",
          "ticks": 500160,
          "time": 414.386304,
          "velocity": 0.5905511811023622
        },
        {
          "duration": 0.4583333333333144,
          "durationTicks": 220,
          "midi": 80,
          "name": "G#5",
          "ticks": 500160,
          "time": 414.386304,
          "velocity": 0.5905511811023622
        },
        {
          "duration": 0.16666666666668561,
          "durationTicks": 80,
          "midi": 77,
          "name": "F5",
          "ticks": 500520,
          "time": 415.136304,
          "velocity": 0.5905511811023622
        },
        {
          "duration": 0.16666666666668561,
          "durationTicks": 80,
          "midi": 80,
          "name": "G#5",
          "ticks": 500520,
          "time": 415.136304,
          "velocity": 0.5905511811023622
        },
        {
          "duration": 0.4583333333333144,
          "durationTicks": 220,
          "midi": 77,
          "name": "F5",
          "ticks": 500640,
          "time": 415.386304,
          "velocity": 0.5905511811023622
        },
        {
          "duration": 0.4583333333333144,
          "durationTicks": 220,
          "midi": 80,
          "name": "G#5",
          "ticks": 500640,
          "time": 415.386304,
          "velocity": 0.5905511811023622
        },
        {
          "duration": 0.16666666666668561,
          "durationTicks": 80,
          "midi": 77,
          "name": "F5",
          "ticks": 501000,
          "time": 416.136304,
          "velocity": 0.5905511811023622
        },
        {
          "duration": 0.16666666666668561,
          "durationTicks": 80,
          "midi": 80,
          "name": "G#5",
          "ticks": 501000,
          "time": 416.136304,
          "velocity": 0.5905511811023622
        },
        {
          "duration": 1.6041666666666856,
          "durationTicks": 770,
          "midi": 77,
          "name": "F5",
          "ticks": 501120,
          "time": 416.386304,
          "velocity": 0.5905511811023622
        },
        {
          "duration": 1.6041666666666856,
          "durationTicks": 770,
          "midi": 80,
          "name": "G#5",
          "ticks": 501120,
          "time": 416.386304,
          "velocity": 0.5905511811023622
        },
        {
          "duration": 1.9916666666666742,
          "durationTicks": 956,
          "midi": 77,
          "name": "F5",
          "ticks": 502080,
          "time": 418.386304,
          "velocity": 0.5905511811023622
        },
        {
          "duration": 1.9916666666666742,
          "durationTicks": 956,
          "midi": 80,
          "name": "G#5",
          "ticks": 502080,
          "time": 418.386304,
          "velocity": 0.5905511811023622
        },
        {
          "duration": 0.16666666666662877,
          "durationTicks": 160,
          "midi": 67,
          "name": "G4",
          "ticks": 514800,
          "time": 433.8446373333334,
          "velocity": 0.5511811023622047
        },
        {
          "duration": 0.16666666666662877,
          "durationTicks": 160,
          "midi": 75,
          "name": "D#5",
          "ticks": 514800,
          "time": 433.8446373333334,
          "velocity": 0.5511811023622047
        },
        {
          "duration": 0.16666666666662877,
          "durationTicks": 160,
          "midi": 67,
          "name": "G4",
          "ticks": 515040,
          "time": 434.0946373333334,
          "velocity": 0.5511811023622047
        },
        {
          "duration": 0.16666666666662877,
          "durationTicks": 160,
          "midi": 75,
          "name": "D#5",
          "ticks": 515040,
          "time": 434.0946373333334,
          "velocity": 0.5511811023622047
        },
        {
          "duration": 0.41666666666662877,
          "durationTicks": 400,
          "midi": 67,
          "name": "G4",
          "ticks": 515280,
          "time": 434.3446373333334,
          "velocity": 0.5511811023622047
        },
        {
          "duration": 0.41666666666662877,
          "durationTicks": 400,
          "midi": 75,
          "name": "D#5",
          "ticks": 515280,
          "time": 434.3446373333334,
          "velocity": 0.5511811023622047
        },
        {
          "duration": 2.9166666666666288,
          "durationTicks": 2800,
          "midi": 63,
          "name": "D#4",
          "ticks": 530400,
          "time": 450.0946373333334,
          "velocity": 0.31496062992125984
        },
        {
          "duration": 2.9166666666666288,
          "durationTicks": 2800,
          "midi": 75,
          "name": "D#5",
          "ticks": 530400,
          "time": 450.0946373333334,
          "velocity": 0.31496062992125984
        },
        {
          "duration": 1.4958333333333371,
          "durationTicks": 1436,
          "midi": 72,
          "name": "C5",
          "ticks": 533280,
          "time": 453.0946373333334,
          "velocity": 0.6299212598425197
        },
        {
          "duration": 1.4958333333333371,
          "durationTicks": 1436,
          "midi": 75,
          "name": "D#5",
          "ticks": 533280,
          "time": 453.0946373333334,
          "velocity": 0.6299212598425197
        },
        {
          "duration": 0.16666666666662877,
          "durationTicks": 160,
          "midi": 70,
          "name": "A#4",
          "ticks": 534720,
          "time": 454.5946373333334,
          "velocity": 0.6299212598425197
        },
        {
          "duration": 0.16666666666662877,
          "durationTicks": 160,
          "midi": 74,
          "name": "D5",
          "ticks": 534720,
          "time": 454.5946373333334,
          "velocity": 0.6299212598425197
        },
        {
          "duration": 0.13793100000003733,
          "durationTicks": 160,
          "midi": 70,
          "name": "A#4",
          "ticks": 565440,
          "time": 488.86852225,
          "velocity": 0.7086614173228346
        },
        {
          "duration": 0.13793100000003733,
          "durationTicks": 160,
          "midi": 82,
          "name": "A#5",
          "ticks": 565440,
          "time": 488.86852225,
          "velocity": 0.7086614173228346
        },
        {
          "duration": 0.13793099999998049,
          "durationTicks": 160,
          "midi": 67,
          "name": "G4",
          "ticks": 565680,
          "time": 489.07541875000004,
          "velocity": 0.7086614173228346
        },
        {
          "duration": 0.13793099999998049,
          "durationTicks": 160,
          "midi": 79,
          "name": "G5",
          "ticks": 565680,
          "time": 489.07541875000004,
          "velocity": 0.7086614173228346
        },
        {
          "duration": 0.13793100000003733,
          "durationTicks": 160,
          "midi": 70,
          "name": "A#4",
          "ticks": 565920,
          "time": 489.28231525,
          "velocity": 0.7086614173228346
        },
        {
          "duration": 0.13793100000003733,
          "durationTicks": 160,
          "midi": 82,
          "name": "A#5",
          "ticks": 565920,
          "time": 489.28231525,
          "velocity": 0.7086614173228346
        },
        {
          "duration": 0.13793099999998049,
          "durationTicks": 160,
          "midi": 63,
          "name": "D#4",
          "ticks": 566160,
          "time": 489.48921175000004,
          "velocity": 0.7086614173228346
        },
        {
          "duration": 0.13793099999998049,
          "durationTicks": 160,
          "midi": 75,
          "name": "D#5",
          "ticks": 566160,
          "time": 489.48921175000004,
          "velocity": 0.7086614173228346
        },
        {
          "duration": 0.13793100000003733,
          "durationTicks": 160,
          "midi": 67,
          "name": "G4",
          "ticks": 566400,
          "time": 489.69610825,
          "velocity": 0.7086614173228346
        },
        {
          "duration": 0.13793100000003733,
          "durationTicks": 160,
          "midi": 79,
          "name": "G5",
          "ticks": 566400,
          "time": 489.69610825,
          "velocity": 0.7086614173228346
        },
        {
          "duration": 0.13793099999998049,
          "durationTicks": 160,
          "midi": 70,
          "name": "A#4",
          "ticks": 566640,
          "time": 489.90300475000004,
          "velocity": 0.7086614173228346
        },
        {
          "duration": 0.13793099999998049,
          "durationTicks": 160,
          "midi": 70,
          "name": "A#4",
          "ticks": 566640,
          "time": 489.90300475000004,
          "velocity": 0.7086614173228346
        },
        {
          "duration": 0.13793100000003733,
          "durationTicks": 160,
          "midi": 75,
          "name": "D#5",
          "ticks": 566880,
          "time": 490.10990125,
          "velocity": 0.7086614173228346
        },
        {
          "duration": 0.13793100000003733,
          "durationTicks": 160,
          "midi": 75,
          "name": "D#5",
          "ticks": 566880,
          "time": 490.10990125,
          "velocity": 0.7086614173228346
        },
        {
          "duration": 0.13793099999998049,
          "durationTicks": 160,
          "midi": 68,
          "name": "G#4",
          "ticks": 567120,
          "time": 490.31679775000003,
          "velocity": 0.7086614173228346
        },
        {
          "duration": 0.13793099999998049,
          "durationTicks": 160,
          "midi": 74,
          "name": "D5",
          "ticks": 567120,
          "time": 490.31679775000003,
          "velocity": 0.7086614173228346
        },
        {
          "duration": 0.13793099999998049,
          "durationTicks": 160,
          "midi": 68,
          "name": "G#4",
          "ticks": 567360,
          "time": 490.52369425000006,
          "velocity": 0.7086614173228346
        },
        {
          "duration": 0.13793099999998049,
          "durationTicks": 160,
          "midi": 74,
          "name": "D5",
          "ticks": 567360,
          "time": 490.52369425000006,
          "velocity": 0.7086614173228346
        },
        {
          "duration": 0.13793099999998049,
          "durationTicks": 160,
          "midi": 68,
          "name": "G#4",
          "ticks": 567600,
          "time": 490.73059075000003,
          "velocity": 0.7086614173228346
        },
        {
          "duration": 0.13793099999998049,
          "durationTicks": 160,
          "midi": 74,
          "name": "D5",
          "ticks": 567600,
          "time": 490.73059075000003,
          "velocity": 0.7086614173228346
        },
        {
          "duration": 0.16810340624999753,
          "durationTicks": 195,
          "midi": 67,
          "name": "G4",
          "ticks": 567840,
          "time": 490.93748725000006,
          "velocity": 0.7086614173228346
        },
        {
          "duration": 0.16810340624999753,
          "durationTicks": 195,
          "midi": 75,
          "name": "D#5",
          "ticks": 567840,
          "time": 490.93748725000006,
          "velocity": 0.7086614173228346
        },
        {
          "duration": 0.13793099999998049,
          "durationTicks": 160,
          "midi": 70,
          "name": "A#4",
          "ticks": 568320,
          "time": 491.35128025000006,
          "velocity": 0.7086614173228346
        },
        {
          "duration": 0.13793099999998049,
          "durationTicks": 160,
          "midi": 82,
          "name": "A#5",
          "ticks": 568320,
          "time": 491.35128025000006,
          "velocity": 0.7086614173228346
        },
        {
          "duration": 0.13793099999998049,
          "durationTicks": 160,
          "midi": 67,
          "name": "G4",
          "ticks": 568560,
          "time": 491.55817675000003,
          "velocity": 0.7086614173228346
        },
        {
          "duration": 0.13793099999998049,
          "durationTicks": 160,
          "midi": 79,
          "name": "G5",
          "ticks": 568560,
          "time": 491.55817675000003,
          "velocity": 0.7086614173228346
        },
        {
          "duration": 0.13793099999998049,
          "durationTicks": 160,
          "midi": 70,
          "name": "A#4",
          "ticks": 568800,
          "time": 491.76507325000006,
          "velocity": 0.7086614173228346
        },
        {
          "duration": 0.13793099999998049,
          "durationTicks": 160,
          "midi": 82,
          "name": "A#5",
          "ticks": 568800,
          "time": 491.76507325000006,
          "velocity": 0.7086614173228346
        },
        {
          "duration": 0.13793099999998049,
          "durationTicks": 160,
          "midi": 63,
          "name": "D#4",
          "ticks": 569040,
          "time": 491.97196975,
          "velocity": 0.7086614173228346
        },
        {
          "duration": 0.13793099999998049,
          "durationTicks": 160,
          "midi": 75,
          "name": "D#5",
          "ticks": 569040,
          "time": 491.97196975,
          "velocity": 0.7086614173228346
        },
        {
          "duration": 0.13793099999998049,
          "durationTicks": 160,
          "midi": 67,
          "name": "G4",
          "ticks": 569280,
          "time": 492.17886625000006,
          "velocity": 0.7086614173228346
        },
        {
          "duration": 0.13793099999998049,
          "durationTicks": 160,
          "midi": 79,
          "name": "G5",
          "ticks": 569280,
          "time": 492.17886625000006,
          "velocity": 0.7086614173228346
        },
        {
          "duration": 0.13793099999998049,
          "durationTicks": 160,
          "midi": 70,
          "name": "A#4",
          "ticks": 569520,
          "time": 492.38576275,
          "velocity": 0.7086614173228346
        },
        {
          "duration": 0.13793099999998049,
          "durationTicks": 160,
          "midi": 70,
          "name": "A#4",
          "ticks": 569520,
          "time": 492.38576275,
          "velocity": 0.7086614173228346
        },
        {
          "duration": 0.13793099999998049,
          "durationTicks": 160,
          "midi": 75,
          "name": "D#5",
          "ticks": 569760,
          "time": 492.59265925000005,
          "velocity": 0.7086614173228346
        },
        {
          "duration": 0.13793099999998049,
          "durationTicks": 160,
          "midi": 75,
          "name": "D#5",
          "ticks": 569760,
          "time": 492.59265925000005,
          "velocity": 0.7086614173228346
        },
        {
          "duration": 0.13793100000003733,
          "durationTicks": 160,
          "midi": 68,
          "name": "G#4",
          "ticks": 570000,
          "time": 492.79955575,
          "velocity": 0.7086614173228346
        },
        {
          "duration": 0.13793100000003733,
          "durationTicks": 160,
          "midi": 74,
          "name": "D5",
          "ticks": 570000,
          "time": 492.79955575,
          "velocity": 0.7086614173228346
        },
        {
          "duration": 0.13793099999998049,
          "durationTicks": 160,
          "midi": 68,
          "name": "G#4",
          "ticks": 570240,
          "time": 493.00645225000005,
          "velocity": 0.7086614173228346
        },
        {
          "duration": 0.13793099999998049,
          "durationTicks": 160,
          "midi": 74,
          "name": "D5",
          "ticks": 570240,
          "time": 493.00645225000005,
          "velocity": 0.7086614173228346
        },
        {
          "duration": 0.13793100000003733,
          "durationTicks": 160,
          "midi": 68,
          "name": "G#4",
          "ticks": 570480,
          "time": 493.21334875,
          "velocity": 0.7086614173228346
        },
        {
          "duration": 0.13793100000003733,
          "durationTicks": 160,
          "midi": 74,
          "name": "D5",
          "ticks": 570480,
          "time": 493.21334875,
          "velocity": 0.7086614173228346
        },
        {
          "duration": 0.16810340624999753,
          "durationTicks": 195,
          "midi": 67,
          "name": "G4",
          "ticks": 570720,
          "time": 493.42024525000005,
          "velocity": 0.7086614173228346
        },
        {
          "duration": 0.16810340624999753,
          "durationTicks": 195,
          "midi": 75,
          "name": "D#5",
          "ticks": 570720,
          "time": 493.42024525000005,
          "velocity": 0.7086614173228346
        },
        {
          "duration": 0.14655168749999348,
          "durationTicks": 170,
          "midi": 68,
          "name": "G#4",
          "ticks": 571200,
          "time": 493.83403825000005,
          "velocity": 0.7086614173228346
        },
        {
          "duration": 0.14655168749999348,
          "durationTicks": 170,
          "midi": 74,
          "name": "D5",
          "ticks": 571200,
          "time": 493.83403825000005,
          "velocity": 0.7086614173228346
        },
        {
          "duration": 0.16810340624999753,
          "durationTicks": 195,
          "midi": 67,
          "name": "G4",
          "ticks": 571440,
          "time": 494.04093475,
          "velocity": 0.7086614173228346
        },
        {
          "duration": 0.16810340624999753,
          "durationTicks": 195,
          "midi": 75,
          "name": "D#5",
          "ticks": 571440,
          "time": 494.04093475,
          "velocity": 0.7086614173228346
        },
        {
          "duration": 0.14655168749999348,
          "durationTicks": 170,
          "midi": 68,
          "name": "G#4",
          "ticks": 571920,
          "time": 494.45472775,
          "velocity": 0.7086614173228346
        },
        {
          "duration": 0.14655168749999348,
          "durationTicks": 170,
          "midi": 74,
          "name": "D5",
          "ticks": 571920,
          "time": 494.45472775,
          "velocity": 0.7086614173228346
        },
        {
          "duration": 0.16810340624999753,
          "durationTicks": 195,
          "midi": 67,
          "name": "G4",
          "ticks": 572160,
          "time": 494.66162425000005,
          "velocity": 0.7086614173228346
        },
        {
          "duration": 0.16810340624999753,
          "durationTicks": 195,
          "midi": 75,
          "name": "D#5",
          "ticks": 572160,
          "time": 494.66162425000005,
          "velocity": 0.7086614173228346
        },
        {
          "duration": 0.14655168749999348,
          "durationTicks": 170,
          "midi": 68,
          "name": "G#4",
          "ticks": 572640,
          "time": 495.07541725000004,
          "velocity": 0.7086614173228346
        },
        {
          "duration": 0.14655168749999348,
          "durationTicks": 170,
          "midi": 74,
          "name": "D5",
          "ticks": 572640,
          "time": 495.07541725000004,
          "velocity": 0.7086614173228346
        },
        {
          "duration": 0.16810340624999753,
          "durationTicks": 195,
          "midi": 67,
          "name": "G4",
          "ticks": 572880,
          "time": 495.28231375,
          "velocity": 0.7086614173228346
        },
        {
          "duration": 0.16810340624999753,
          "durationTicks": 195,
          "midi": 75,
          "name": "D#5",
          "ticks": 572880,
          "time": 495.28231375,
          "velocity": 0.7086614173228346
        },
        {
          "duration": 0.14655168750005032,
          "durationTicks": 170,
          "midi": 68,
          "name": "G#4",
          "ticks": 573360,
          "time": 495.69610675,
          "velocity": 0.7086614173228346
        },
        {
          "duration": 0.14655168750005032,
          "durationTicks": 170,
          "midi": 74,
          "name": "D5",
          "ticks": 573360,
          "time": 495.69610675,
          "velocity": 0.7086614173228346
        },
        {
          "duration": 0.16810340624999753,
          "durationTicks": 195,
          "midi": 67,
          "name": "G4",
          "ticks": 573600,
          "time": 495.90300325000004,
          "velocity": 0.7086614173228346
        },
        {
          "duration": 0.16810340624999753,
          "durationTicks": 195,
          "midi": 75,
          "name": "D#5",
          "ticks": 573600,
          "time": 495.90300325000004,
          "velocity": 0.7086614173228346
        }
      ]
    },
    {
      "channel": 0,
      "controlChanges": {},
      "pitchBends": [],
      "instrument": {
        "family": "piano",
        "number": 0,
        "name": "acoustic grand piano"
      },
      "name": "French Horn *created",
      "notes": [],
      "endOfTrackTicks": 575040
    },
    {
      "channel": 5,
      "controlChanges": {
        "7": [
          {
            "number": 7,
            "ticks": 0,
            "time": 0,
            "value": 0.984251968503937
          }
        ],
        "10": [
          {
            "number": 10,
            "ticks": 0,
            "time": 0,
            "value": 0.6299212598425197
          }
        ],
        "91": [
          {
            "number": 91,
            "ticks": 0,
            "time": 0,
            "value": 0.5905511811023622
          }
        ]
      },
      "pitchBends": [],
      "instrument": {
        "family": "brass",
        "number": 60,
        "name": "french horn"
      },
      "name": "",
      "notes": [
        {
          "duration": 0.12903200000000048,
          "durationTicks": 160,
          "midi": 63,
          "name": "D#4",
          "ticks": 15840,
          "time": 12.774168,
          "velocity": 0.5118110236220472
        },
        {
          "duration": 0.12903200000000048,
          "durationTicks": 160,
          "midi": 67,
          "name": "G4",
          "ticks": 15840,
          "time": 12.774168,
          "velocity": 0.5118110236220472
        },
        {
          "duration": 0.12903200000000226,
          "durationTicks": 160,
          "midi": 63,
          "name": "D#4",
          "ticks": 16320,
          "time": 13.161264,
          "velocity": 0.5118110236220472
        },
        {
          "duration": 0.12903200000000226,
          "durationTicks": 160,
          "midi": 67,
          "name": "G4",
          "ticks": 16320,
          "time": 13.161264,
          "velocity": 0.5118110236220472
        },
        {
          "duration": 0.1290319999999987,
          "durationTicks": 160,
          "midi": 63,
          "name": "D#4",
          "ticks": 31200,
          "time": 25.16124,
          "velocity": 0.5118110236220472
        },
        {
          "duration": 0.1290319999999987,
          "durationTicks": 160,
          "midi": 67,
          "name": "G4",
          "ticks": 31200,
          "time": 25.16124,
          "velocity": 0.5118110236220472
        },
        {
          "duration": 0.1290319999999987,
          "durationTicks": 160,
          "midi": 63,
          "name": "D#4",
          "ticks": 31680,
          "time": 25.548336,
          "velocity": 0.5118110236220472
        },
        {
          "duration": 0.1290319999999987,
          "durationTicks": 160,
          "midi": 67,
          "name": "G4",
          "ticks": 31680,
          "time": 25.548336,
          "velocity": 0.5118110236220472
        },
        {
          "duration": 0.13709650000000195,
          "durationTicks": 170,
          "midi": 58,
          "name": "A#3",
          "ticks": 34560,
          "time": 27.870912,
          "velocity": 0.47244094488188976
        },
        {
          "duration": 0.13709650000000195,
          "durationTicks": 170,
          "midi": 65,
          "name": "F4",
          "ticks": 34560,
          "time": 27.870912,
          "velocity": 0.47244094488188976
        },
        {
          "duration": 0.13709650000000195,
          "durationTicks": 170,
          "midi": 58,
          "name": "A#3",
          "ticks": 35040,
          "time": 28.258008,
          "velocity": 0.47244094488188976
        },
        {
          "duration": 0.13709650000000195,
          "durationTicks": 170,
          "midi": 65,
          "name": "F4",
          "ticks": 35040,
          "time": 28.258008,
          "velocity": 0.47244094488188976
        },
        {
          "duration": 0.13709650000000195,
          "durationTicks": 170,
          "midi": 58,
          "name": "A#3",
          "ticks": 35520,
          "time": 28.645104,
          "velocity": 0.47244094488188976
        },
        {
          "duration": 0.13709650000000195,
          "durationTicks": 170,
          "midi": 65,
          "name": "F4",
          "ticks": 35520,
          "time": 28.645104,
          "velocity": 0.47244094488188976
        },
        {
          "duration": 0.1370964999999984,
          "durationTicks": 170,
          "midi": 58,
          "name": "A#3",
          "ticks": 38400,
          "time": 30.96768,
          "velocity": 0.47244094488188976
        },
        {
          "duration": 0.1370964999999984,
          "durationTicks": 170,
          "midi": 65,
          "name": "F4",
          "ticks": 38400,
          "time": 30.96768,
          "velocity": 0.47244094488188976
        },
        {
          "duration": 0.13709650000000195,
          "durationTicks": 170,
          "midi": 58,
          "name": "A#3",
          "ticks": 38880,
          "time": 31.354776,
          "velocity": 0.47244094488188976
        },
        {
          "duration": 0.13709650000000195,
          "durationTicks": 170,
          "midi": 65,
          "name": "F4",
          "ticks": 38880,
          "time": 31.354776,
          "velocity": 0.47244094488188976
        },
        {
          "duration": 0.13709650000000195,
          "durationTicks": 170,
          "midi": 58,
          "name": "A#3",
          "ticks": 39360,
          "time": 31.741872,
          "velocity": 0.47244094488188976
        },
        {
          "duration": 0.13709650000000195,
          "durationTicks": 170,
          "midi": 65,
          "name": "F4",
          "ticks": 39360,
          "time": 31.741872,
          "velocity": 0.47244094488188976
        },
        {
          "duration": 0.23387050000000187,
          "durationTicks": 290,
          "midi": 55,
          "name": "G3",
          "ticks": 40800,
          "time": 32.90316,
          "velocity": 0.5511811023622047
        },
        {
          "duration": 0.23387050000000187,
          "durationTicks": 290,
          "midi": 63,
          "name": "D#4",
          "ticks": 40800,
          "time": 32.90316,
          "velocity": 0.5511811023622047
        },
        {
          "duration": 0.23387050000000187,
          "durationTicks": 290,
          "midi": 58,
          "name": "A#3",
          "ticks": 41280,
          "time": 33.290256,
          "velocity": 0.5511811023622047
        },
        {
          "duration": 0.23387050000000187,
          "durationTicks": 290,
          "midi": 65,
          "name": "F4",
          "ticks": 41280,
          "time": 33.290256,
          "velocity": 0.5511811023622047
        },
        {
          "duration": 0.23387050000000187,
          "durationTicks": 290,
          "midi": 58,
          "name": "A#3",
          "ticks": 41760,
          "time": 33.677352,
          "velocity": 0.5511811023622047
        },
        {
          "duration": 0.23387050000000187,
          "durationTicks": 290,
          "midi": 65,
          "name": "F4",
          "ticks": 41760,
          "time": 33.677352,
          "velocity": 0.5511811023622047
        },
        {
          "duration": 0.23387050000000187,
          "durationTicks": 290,
          "midi": 63,
          "name": "D#4",
          "ticks": 42240,
          "time": 34.064448,
          "velocity": 0.5511811023622047
        },
        {
          "duration": 0.23387050000000187,
          "durationTicks": 290,
          "midi": 67,
          "name": "G4",
          "ticks": 42240,
          "time": 34.064448,
          "velocity": 0.5511811023622047
        },
        {
          "duration": 0.23387050000000187,
          "durationTicks": 290,
          "midi": 55,
          "name": "G3",
          "ticks": 42720,
          "time": 34.451544,
          "velocity": 0.5511811023622047
        },
        {
          "duration": 0.23387050000000187,
          "durationTicks": 290,
          "midi": 63,
          "name": "D#4",
          "ticks": 42720,
          "time": 34.451544,
          "velocity": 0.5511811023622047
        },
        {
          "duration": 0.23387050000000187,
          "durationTicks": 290,
          "midi": 58,
          "name": "A#3",
          "ticks": 43200,
          "time": 34.83864,
          "velocity": 0.5511811023622047
        },
        {
          "duration": 0.23387050000000187,
          "durationTicks": 290,
          "midi": 65,
          "name": "F4",
          "ticks": 43200,
          "time": 34.83864,
          "velocity": 0.5511811023622047
        },
        {
          "duration": 0.23387050000000187,
          "durationTicks": 290,
          "midi": 58,
          "name": "A#3",
          "ticks": 43680,
          "time": 35.225736,
          "velocity": 0.5511811023622047
        },
        {
          "duration": 0.23387050000000187,
          "durationTicks": 290,
          "midi": 65,
          "name": "F4",
          "ticks": 43680,
          "time": 35.225736,
          "velocity": 0.5511811023622047
        },
        {
          "duration": 0.1370965000000055,
          "durationTicks": 170,
          "midi": 63,
          "name": "D#4",
          "ticks": 44160,
          "time": 35.612832,
          "velocity": 0.5511811023622047
        },
        {
          "duration": 0.1370965000000055,
          "durationTicks": 170,
          "midi": 67,
          "name": "G4",
          "ticks": 44160,
          "time": 35.612832,
          "velocity": 0.5511811023622047
        },
        {
          "duration": 0.1370965000000055,
          "durationTicks": 170,
          "midi": 58,
          "name": "A#3",
          "ticks": 44400,
          "time": 35.80638,
          "velocity": 0.8661417322834646
        },
        {
          "duration": 0.1370965000000055,
          "durationTicks": 170,
          "midi": 65,
          "name": "F4",
          "ticks": 44400,
          "time": 35.80638,
          "velocity": 0.8661417322834646
        },
        {
          "duration": 0.1370965000000055,
          "durationTicks": 170,
          "midi": 55,
          "name": "G3",
          "ticks": 44640,
          "time": 35.999928,
          "velocity": 0.8661417322834646
        },
        {
          "duration": 0.1370965000000055,
          "durationTicks": 170,
          "midi": 63,
          "name": "D#4",
          "ticks": 44640,
          "time": 35.999928,
          "velocity": 0.8661417322834646
        },
        {
          "duration": 0.1370965000000055,
          "durationTicks": 170,
          "midi": 65,
          "name": "F4",
          "ticks": 44880,
          "time": 36.193476,
          "velocity": 0.8661417322834646
        },
        {
          "duration": 0.1370965000000055,
          "durationTicks": 170,
          "midi": 68,
          "name": "G#4",
          "ticks": 44880,
          "time": 36.193476,
          "velocity": 0.8661417322834646
        },
        {
          "duration": 0.1370965000000055,
          "durationTicks": 170,
          "midi": 63,
          "name": "D#4",
          "ticks": 45120,
          "time": 36.387024,
          "velocity": 0.8661417322834646
        },
        {
          "duration": 0.1370965000000055,
          "durationTicks": 170,
          "midi": 67,
          "name": "G4",
          "ticks": 45120,
          "time": 36.387024,
          "velocity": 0.8661417322834646
        },
        {
          "duration": 0.1370965000000055,
          "durationTicks": 170,
          "midi": 58,
          "name": "A#3",
          "ticks": 45600,
          "time": 36.774119999999996,
          "velocity": 0.8661417322834646
        },
        {
          "duration": 0.1370965000000055,
          "durationTicks": 170,
          "midi": 65,
          "name": "F4",
          "ticks": 45600,
          "time": 36.774119999999996,
          "velocity": 0.8661417322834646
        },
        {
          "duration": 0.12903200000000226,
          "durationTicks": 160,
          "midi": 55,
          "name": "G3",
          "ticks": 46080,
          "time": 37.161215999999996,
          "velocity": 0.8661417322834646
        },
        {
          "duration": 0.12903200000000226,
          "durationTicks": 160,
          "midi": 63,
          "name": "D#4",
          "ticks": 46080,
          "time": 37.161215999999996,
          "velocity": 0.8661417322834646
        },
        {
          "duration": 0.12903199999999515,
          "durationTicks": 160,
          "midi": 55,
          "name": "G3",
          "ticks": 46560,
          "time": 37.548312,
          "velocity": 0.8661417322834646
        },
        {
          "duration": 0.12903199999999515,
          "durationTicks": 160,
          "midi": 63,
          "name": "D#4",
          "ticks": 46560,
          "time": 37.548312,
          "velocity": 0.8661417322834646
        },
        {
          "duration": 0.12903199999999515,
          "durationTicks": 160,
          "midi": 55,
          "name": "G3",
          "ticks": 47040,
          "time": 37.935408,
          "velocity": 0.8661417322834646
        },
        {
          "duration": 0.12903199999999515,
          "durationTicks": 160,
          "midi": 63,
          "name": "D#4",
          "ticks": 47040,
          "time": 37.935408,
          "velocity": 0.8661417322834646
        },
        {
          "duration": 0.14112874999999292,
          "durationTicks": 175,
          "midi": 55,
          "name": "G3",
          "ticks": 48000,
          "time": 38.7096,
          "velocity": 0.47244094488188976
        },
        {
          "duration": 0.14112874999999292,
          "durationTicks": 175,
          "midi": 63,
          "name": "D#4",
          "ticks": 48000,
          "time": 38.7096,
          "velocity": 0.47244094488188976
        },
        {
          "duration": 0.14112875000000003,
          "durationTicks": 175,
          "midi": 55,
          "name": "G3",
          "ticks": 49440,
          "time": 39.870888,
          "velocity": 0.47244094488188976
        },
        {
          "duration": 0.14112875000000003,
          "durationTicks": 175,
          "midi": 63,
          "name": "D#4",
          "ticks": 49440,
          "time": 39.870888,
          "velocity": 0.47244094488188976
        },
        {
          "duration": 0.14112875000000003,
          "durationTicks": 175,
          "midi": 58,
          "name": "A#3",
          "ticks": 49920,
          "time": 40.257984,
          "velocity": 0.47244094488188976
        },
        {
          "duration": 0.14112875000000003,
          "durationTicks": 175,
          "midi": 65,
          "name": "F4",
          "ticks": 49920,
          "time": 40.257984,
          "velocity": 0.47244094488188976
        },
        {
          "duration": 0.14112875000000003,
          "durationTicks": 175,
          "midi": 58,
          "name": "A#3",
          "ticks": 51360,
          "time": 41.419272,
          "velocity": 0.47244094488188976
        },
        {
          "duration": 0.14112875000000003,
          "durationTicks": 175,
          "midi": 65,
          "name": "F4",
          "ticks": 51360,
          "time": 41.419272,
          "velocity": 0.47244094488188976
        },
        {
          "duration": 0.6129019999999983,
          "durationTicks": 760,
          "midi": 63,
          "name": "D#4",
          "ticks": 51840,
          "time": 41.806368,
          "velocity": 0.47244094488188976
        },
        {
          "duration": 0.6129019999999983,
          "durationTicks": 760,
          "midi": 67,
          "name": "G4",
          "ticks": 51840,
          "time": 41.806368,
          "velocity": 0.47244094488188976
        },
        {
          "duration": 0.14112875000000003,
          "durationTicks": 175,
          "midi": 46,
          "name": "A#2",
          "ticks": 53760,
          "time": 43.354752,
          "velocity": 0.47244094488188976
        },
        {
          "duration": 0.14112875000000003,
          "durationTicks": 175,
          "midi": 58,
          "name": "A#3",
          "ticks": 53760,
          "time": 43.354752,
          "velocity": 0.47244094488188976
        },
        {
          "duration": 0.14112875000000003,
          "durationTicks": 175,
          "midi": 46,
          "name": "A#2",
          "ticks": 54240,
          "time": 43.741848,
          "velocity": 0.47244094488188976
        },
        {
          "duration": 0.14112875000000003,
          "durationTicks": 175,
          "midi": 58,
          "name": "A#3",
          "ticks": 54240,
          "time": 43.741848,
          "velocity": 0.47244094488188976
        },
        {
          "duration": 0.14112875000000003,
          "durationTicks": 175,
          "midi": 46,
          "name": "A#2",
          "ticks": 54720,
          "time": 44.128944,
          "velocity": 0.47244094488188976
        },
        {
          "duration": 0.14112875000000003,
          "durationTicks": 175,
          "midi": 58,
          "name": "A#3",
          "ticks": 54720,
          "time": 44.128944,
          "velocity": 0.47244094488188976
        },
        {
          "duration": 0.1370964999999984,
          "durationTicks": 170,
          "midi": 58,
          "name": "A#3",
          "ticks": 80640,
          "time": 65.032128,
          "velocity": 0.47244094488188976
        },
        {
          "duration": 0.1370964999999984,
          "durationTicks": 170,
          "midi": 65,
          "name": "F4",
          "ticks": 80640,
          "time": 65.032128,
          "velocity": 0.47244094488188976
        },
        {
          "duration": 0.1370964999999984,
          "durationTicks": 170,
          "midi": 58,
          "name": "A#3",
          "ticks": 81120,
          "time": 65.419224,
          "velocity": 0.47244094488188976
        },
        {
          "duration": 0.1370964999999984,
          "durationTicks": 170,
          "midi": 65,
          "name": "F4",
          "ticks": 81120,
          "time": 65.419224,
          "velocity": 0.47244094488188976
        },
        {
          "duration": 0.1370964999999984,
          "durationTicks": 170,
          "midi": 58,
          "name": "A#3",
          "ticks": 81600,
          "time": 65.80632,
          "velocity": 0.47244094488188976
        },
        {
          "duration": 0.1370964999999984,
          "durationTicks": 170,
          "midi": 65,
          "name": "F4",
          "ticks": 81600,
          "time": 65.80632,
          "velocity": 0.47244094488188976
        },
        {
          "duration": 0.1370964999999984,
          "durationTicks": 170,
          "midi": 58,
          "name": "A#3",
          "ticks": 84480,
          "time": 68.128896,
          "velocity": 0.47244094488188976
        },
        {
          "duration": 0.1370964999999984,
          "durationTicks": 170,
          "midi": 65,
          "name": "F4",
          "ticks": 84480,
          "time": 68.128896,
          "velocity": 0.47244094488188976
        },
        {
          "duration": 0.1370964999999984,
          "durationTicks": 170,
          "midi": 58,
          "name": "A#3",
          "ticks": 84960,
          "time": 68.515992,
          "velocity": 0.47244094488188976
        },
        {
          "duration": 0.1370964999999984,
          "durationTicks": 170,
          "midi": 65,
          "name": "F4",
          "ticks": 84960,
          "time": 68.515992,
          "velocity": 0.47244094488188976
        },
        {
          "duration": 0.1370964999999984,
          "durationTicks": 170,
          "midi": 58,
          "name": "A#3",
          "ticks": 85440,
          "time": 68.903088,
          "velocity": 0.47244094488188976
        },
        {
          "duration": 0.1370964999999984,
          "durationTicks": 170,
          "midi": 65,
          "name": "F4",
          "ticks": 85440,
          "time": 68.903088,
          "velocity": 0.47244094488188976
        },
        {
          "duration": 0.23387049999999476,
          "durationTicks": 290,
          "midi": 55,
          "name": "G3",
          "ticks": 86880,
          "time": 70.064376,
          "velocity": 0.5511811023622047
        },
        {
          "duration": 0.23387049999999476,
          "durationTicks": 290,
          "midi": 63,
          "name": "D#4",
          "ticks": 86880,
          "time": 70.064376,
          "velocity": 0.5511811023622047
        },
        {
          "duration": 0.23387049999999476,
          "durationTicks": 290,
          "midi": 58,
          "name": "A#3",
          "ticks": 87360,
          "time": 70.451472,
          "velocity": 0.5511811023622047
        },
        {
          "duration": 0.23387049999999476,
          "durationTicks": 290,
          "midi": 65,
          "name": "F4",
          "ticks": 87360,
          "time": 70.451472,
          "velocity": 0.5511811023622047
        },
        {
          "duration": 0.23387049999999476,
          "durationTicks": 290,
          "midi": 58,
          "name": "A#3",
          "ticks": 87840,
          "time": 70.838568,
          "velocity": 0.5511811023622047
        },
        {
          "duration": 0.23387049999999476,
          "durationTicks": 290,
          "midi": 65,
          "name": "F4",
          "ticks": 87840,
          "time": 70.838568,
          "velocity": 0.5511811023622047
        },
        {
          "duration": 0.23387049999999476,
          "durationTicks": 290,
          "midi": 63,
          "name": "D#4",
          "ticks": 88320,
          "time": 71.225664,
          "velocity": 0.5511811023622047
        },
        {
          "duration": 0.23387049999999476,
          "durationTicks": 290,
          "midi": 67,
          "name": "G4",
          "ticks": 88320,
          "time": 71.225664,
          "velocity": 0.5511811023622047
        },
        {
          "duration": 0.23387049999999476,
          "durationTicks": 290,
          "midi": 55,
          "name": "G3",
          "ticks": 88800,
          "time": 71.61276,
          "velocity": 0.5511811023622047
        },
        {
          "duration": 0.23387049999999476,
          "durationTicks": 290,
          "midi": 63,
          "name": "D#4",
          "ticks": 88800,
          "time": 71.61276,
          "velocity": 0.5511811023622047
        },
        {
          "duration": 0.23387049999999476,
          "durationTicks": 290,
          "midi": 58,
          "name": "A#3",
          "ticks": 89280,
          "time": 71.999856,
          "velocity": 0.5511811023622047
        },
        {
          "duration": 0.23387049999999476,
          "durationTicks": 290,
          "midi": 65,
          "name": "F4",
          "ticks": 89280,
          "time": 71.999856,
          "velocity": 0.5511811023622047
        },
        {
          "duration": 0.23387049999999476,
          "durationTicks": 290,
          "midi": 58,
          "name": "A#3",
          "ticks": 89760,
          "time": 72.386952,
          "velocity": 0.5511811023622047
        },
        {
          "duration": 0.23387049999999476,
          "durationTicks": 290,
          "midi": 65,
          "name": "F4",
          "ticks": 89760,
          "time": 72.386952,
          "velocity": 0.5511811023622047
        },
        {
          "duration": 0.1370964999999984,
          "durationTicks": 170,
          "midi": 63,
          "name": "D#4",
          "ticks": 90240,
          "time": 72.774048,
          "velocity": 0.5511811023622047
        },
        {
          "duration": 0.1370964999999984,
          "durationTicks": 170,
          "midi": 67,
          "name": "G4",
          "ticks": 90240,
          "time": 72.774048,
          "velocity": 0.5511811023622047
        },
        {
          "duration": 0.1370964999999984,
          "durationTicks": 170,
          "midi": 58,
          "name": "A#3",
          "ticks": 90480,
          "time": 72.967596,
          "velocity": 0.8661417322834646
        },
        {
          "duration": 0.1370964999999984,
          "durationTicks": 170,
          "midi": 65,
          "name": "F4",
          "ticks": 90480,
          "time": 72.967596,
          "velocity": 0.8661417322834646
        },
        {
          "duration": 0.1370964999999984,
          "durationTicks": 170,
          "midi": 55,
          "name": "G3",
          "ticks": 90720,
          "time": 73.161144,
          "velocity": 0.8661417322834646
        },
        {
          "duration": 0.1370964999999984,
          "durationTicks": 170,
          "midi": 63,
          "name": "D#4",
          "ticks": 90720,
          "time": 73.161144,
          "velocity": 0.8661417322834646
        },
        {
          "duration": 0.1370964999999984,
          "durationTicks": 170,
          "midi": 65,
          "name": "F4",
          "ticks": 90960,
          "time": 73.354692,
          "velocity": 0.8661417322834646
        },
        {
          "duration": 0.1370964999999984,
          "durationTicks": 170,
          "midi": 68,
          "name": "G#4",
          "ticks": 90960,
          "time": 73.354692,
          "velocity": 0.8661417322834646
        },
        {
          "duration": 0.1370964999999984,
          "durationTicks": 170,
          "midi": 63,
          "name": "D#4",
          "ticks": 91200,
          "time": 73.54823999999999,
          "velocity": 0.8661417322834646
        },
        {
          "duration": 0.1370964999999984,
          "durationTicks": 170,
          "midi": 67,
          "name": "G4",
          "ticks": 91200,
          "time": 73.54823999999999,
          "velocity": 0.8661417322834646
        },
        {
          "duration": 0.1370964999999984,
          "durationTicks": 170,
          "midi": 58,
          "name": "A#3",
          "ticks": 91680,
          "time": 73.93533599999999,
          "velocity": 0.8661417322834646
        },
        {
          "duration": 0.1370964999999984,
          "durationTicks": 170,
          "midi": 65,
          "name": "F4",
          "ticks": 91680,
          "time": 73.93533599999999,
          "velocity": 0.8661417322834646
        },
        {
          "duration": 0.12903200000000936,
          "durationTicks": 160,
          "midi": 55,
          "name": "G3",
          "ticks": 92160,
          "time": 74.32243199999999,
          "velocity": 0.8661417322834646
        },
        {
          "duration": 0.12903200000000936,
          "durationTicks": 160,
          "midi": 63,
          "name": "D#4",
          "ticks": 92160,
          "time": 74.32243199999999,
          "velocity": 0.8661417322834646
        },
        {
          "duration": 0.12903199999999515,
          "durationTicks": 160,
          "midi": 55,
          "name": "G3",
          "ticks": 92640,
          "time": 74.709528,
          "velocity": 0.8661417322834646
        },
        {
          "duration": 0.12903199999999515,
          "durationTicks": 160,
          "midi": 63,
          "name": "D#4",
          "ticks": 92640,
          "time": 74.709528,
          "velocity": 0.8661417322834646
        },
        {
          "duration": 0.12903199999999515,
          "durationTicks": 160,
          "midi": 55,
          "name": "G3",
          "ticks": 93120,
          "time": 75.096624,
          "velocity": 0.8661417322834646
        },
        {
          "duration": 0.12903199999999515,
          "durationTicks": 160,
          "midi": 63,
          "name": "D#4",
          "ticks": 93120,
          "time": 75.096624,
          "velocity": 0.8661417322834646
        },
        {
          "duration": 0.6129019999999912,
          "durationTicks": 760,
          "midi": 55,
          "name": "G3",
          "ticks": 94080,
          "time": 75.870816,
          "velocity": 0.4330708661417323
        },
        {
          "duration": 0.6129019999999912,
          "durationTicks": 760,
          "midi": 63,
          "name": "D#4",
          "ticks": 94080,
          "time": 75.870816,
          "velocity": 0.4330708661417323
        },
        {
          "duration": 0.22580600000000572,
          "durationTicks": 280,
          "midi": 55,
          "name": "G3",
          "ticks": 95520,
          "time": 77.032104,
          "velocity": 0.4330708661417323
        },
        {
          "duration": 0.22580600000000572,
          "durationTicks": 280,
          "midi": 63,
          "name": "D#4",
          "ticks": 95520,
          "time": 77.032104,
          "velocity": 0.4330708661417323
        },
        {
          "duration": 0.6129020000000054,
          "durationTicks": 760,
          "midi": 58,
          "name": "A#3",
          "ticks": 96000,
          "time": 77.4192,
          "velocity": 0.4330708661417323
        },
        {
          "duration": 0.6129020000000054,
          "durationTicks": 760,
          "midi": 65,
          "name": "F4",
          "ticks": 96000,
          "time": 77.4192,
          "velocity": 0.4330708661417323
        },
        {
          "duration": 0.22580600000000572,
          "durationTicks": 280,
          "midi": 58,
          "name": "A#3",
          "ticks": 97440,
          "time": 78.580488,
          "velocity": 0.4330708661417323
        },
        {
          "duration": 0.22580600000000572,
          "durationTicks": 280,
          "midi": 65,
          "name": "F4",
          "ticks": 97440,
          "time": 78.580488,
          "velocity": 0.4330708661417323
        },
        {
          "duration": 0.6129020000000054,
          "durationTicks": 760,
          "midi": 63,
          "name": "D#4",
          "ticks": 97920,
          "time": 78.967584,
          "velocity": 0.4330708661417323
        },
        {
          "duration": 0.6129020000000054,
          "durationTicks": 760,
          "midi": 67,
          "name": "G4",
          "ticks": 97920,
          "time": 78.967584,
          "velocity": 0.4330708661417323
        },
        {
          "duration": 0.14112875000000713,
          "durationTicks": 175,
          "midi": 58,
          "name": "A#3",
          "ticks": 99840,
          "time": 80.515968,
          "velocity": 0.4330708661417323
        },
        {
          "duration": 0.14112875000000713,
          "durationTicks": 175,
          "midi": 65,
          "name": "F4",
          "ticks": 99840,
          "time": 80.515968,
          "velocity": 0.4330708661417323
        },
        {
          "duration": 0.14112875000000713,
          "durationTicks": 175,
          "midi": 58,
          "name": "A#3",
          "ticks": 100320,
          "time": 80.903064,
          "velocity": 0.4330708661417323
        },
        {
          "duration": 0.14112875000000713,
          "durationTicks": 175,
          "midi": 65,
          "name": "F4",
          "ticks": 100320,
          "time": 80.903064,
          "velocity": 0.4330708661417323
        },
        {
          "duration": 0.14112875000000713,
          "durationTicks": 175,
          "midi": 58,
          "name": "A#3",
          "ticks": 100800,
          "time": 81.29016,
          "velocity": 0.4330708661417323
        },
        {
          "duration": 0.14112875000000713,
          "durationTicks": 175,
          "midi": 65,
          "name": "F4",
          "ticks": 100800,
          "time": 81.29016,
          "velocity": 0.4330708661417323
        },
        {
          "duration": 0.1370965000000126,
          "durationTicks": 170,
          "midi": 46,
          "name": "A#2",
          "ticks": 124800,
          "time": 100.64496,
          "velocity": 0.47244094488188976
        },
        {
          "duration": 0.1370965000000126,
          "durationTicks": 170,
          "midi": 58,
          "name": "A#3",
          "ticks": 124800,
          "time": 100.64496,
          "velocity": 0.47244094488188976
        },
        {
          "duration": 0.1370965000000126,
          "durationTicks": 170,
          "midi": 46,
          "name": "A#2",
          "ticks": 125280,
          "time": 101.032056,
          "velocity": 0.47244094488188976
        },
        {
          "duration": 0.1370965000000126,
          "durationTicks": 170,
          "midi": 58,
          "name": "A#3",
          "ticks": 125280,
          "time": 101.032056,
          "velocity": 0.47244094488188976
        },
        {
          "duration": 0.1370965000000126,
          "durationTicks": 170,
          "midi": 46,
          "name": "A#2",
          "ticks": 125760,
          "time": 101.419152,
          "velocity": 0.47244094488188976
        },
        {
          "duration": 0.1370965000000126,
          "durationTicks": 170,
          "midi": 58,
          "name": "A#3",
          "ticks": 125760,
          "time": 101.419152,
          "velocity": 0.47244094488188976
        },
        {
          "duration": 0.1370965000000126,
          "durationTicks": 170,
          "midi": 46,
          "name": "A#2",
          "ticks": 126240,
          "time": 101.806248,
          "velocity": 0.47244094488188976
        },
        {
          "duration": 0.1370965000000126,
          "durationTicks": 170,
          "midi": 58,
          "name": "A#3",
          "ticks": 126240,
          "time": 101.806248,
          "velocity": 0.47244094488188976
        },
        {
          "duration": 0.1370965000000126,
          "durationTicks": 170,
          "midi": 46,
          "name": "A#2",
          "ticks": 126720,
          "time": 102.193344,
          "velocity": 0.47244094488188976
        },
        {
          "duration": 0.1370965000000126,
          "durationTicks": 170,
          "midi": 58,
          "name": "A#3",
          "ticks": 126720,
          "time": 102.193344,
          "velocity": 0.47244094488188976
        },
        {
          "duration": 0.1370965000000126,
          "durationTicks": 170,
          "midi": 46,
          "name": "A#2",
          "ticks": 127200,
          "time": 102.58044,
          "velocity": 0.47244094488188976
        },
        {
          "duration": 0.1370965000000126,
          "durationTicks": 170,
          "midi": 58,
          "name": "A#3",
          "ticks": 127200,
          "time": 102.58044,
          "velocity": 0.47244094488188976
        },
        {
          "duration": 0.1370965000000126,
          "durationTicks": 170,
          "midi": 46,
          "name": "A#2",
          "ticks": 127680,
          "time": 102.967536,
          "velocity": 0.47244094488188976
        },
        {
          "duration": 0.1370965000000126,
          "durationTicks": 170,
          "midi": 58,
          "name": "A#3",
          "ticks": 127680,
          "time": 102.967536,
          "velocity": 0.47244094488188976
        },
        {
          "duration": 0.1370965000000126,
          "durationTicks": 170,
          "midi": 46,
          "name": "A#2",
          "ticks": 128160,
          "time": 103.354632,
          "velocity": 0.47244094488188976
        },
        {
          "duration": 0.1370965000000126,
          "durationTicks": 170,
          "midi": 58,
          "name": "A#3",
          "ticks": 128160,
          "time": 103.354632,
          "velocity": 0.47244094488188976
        },
        {
          "duration": 0.1370965000000126,
          "durationTicks": 170,
          "midi": 46,
          "name": "A#2",
          "ticks": 128640,
          "time": 103.741728,
          "velocity": 0.47244094488188976
        },
        {
          "duration": 0.1370965000000126,
          "durationTicks": 170,
          "midi": 58,
          "name": "A#3",
          "ticks": 128640,
          "time": 103.741728,
          "velocity": 0.47244094488188976
        },
        {
          "duration": 0.1370965000000126,
          "durationTicks": 170,
          "midi": 46,
          "name": "A#2",
          "ticks": 129120,
          "time": 104.128824,
          "velocity": 0.47244094488188976
        },
        {
          "duration": 0.1370965000000126,
          "durationTicks": 170,
          "midi": 58,
          "name": "A#3",
          "ticks": 129120,
          "time": 104.128824,
          "velocity": 0.47244094488188976
        },
        {
          "duration": 0.1370965000000126,
          "durationTicks": 170,
          "midi": 46,
          "name": "A#2",
          "ticks": 129600,
          "time": 104.51592,
          "velocity": 0.47244094488188976
        },
        {
          "duration": 0.1370965000000126,
          "durationTicks": 170,
          "midi": 58,
          "name": "A#3",
          "ticks": 129600,
          "time": 104.51592,
          "velocity": 0.47244094488188976
        },
        {
          "duration": 0.1370965000000126,
          "durationTicks": 170,
          "midi": 46,
          "name": "A#2",
          "ticks": 130080,
          "time": 104.903016,
          "velocity": 0.47244094488188976
        },
        {
          "duration": 0.1370965000000126,
          "durationTicks": 170,
          "midi": 58,
          "name": "A#3",
          "ticks": 130080,
          "time": 104.903016,
          "velocity": 0.47244094488188976
        },
        {
          "duration": 0.1370965000000126,
          "durationTicks": 170,
          "midi": 46,
          "name": "A#2",
          "ticks": 130560,
          "time": 105.290112,
          "velocity": 0.47244094488188976
        },
        {
          "duration": 0.1370965000000126,
          "durationTicks": 170,
          "midi": 58,
          "name": "A#3",
          "ticks": 130560,
          "time": 105.290112,
          "velocity": 0.47244094488188976
        },
        {
          "duration": 0.1370965000000126,
          "durationTicks": 170,
          "midi": 46,
          "name": "A#2",
          "ticks": 131040,
          "time": 105.677208,
          "velocity": 0.47244094488188976
        },
        {
          "duration": 0.1370965000000126,
          "durationTicks": 170,
          "midi": 58,
          "name": "A#3",
          "ticks": 131040,
          "time": 105.677208,
          "velocity": 0.47244094488188976
        },
        {
          "duration": 0.1370965000000126,
          "durationTicks": 170,
          "midi": 46,
          "name": "A#2",
          "ticks": 131520,
          "time": 106.06430399999999,
          "velocity": 0.47244094488188976
        },
        {
          "duration": 0.1370965000000126,
          "durationTicks": 170,
          "midi": 58,
          "name": "A#3",
          "ticks": 131520,
          "time": 106.06430399999999,
          "velocity": 0.47244094488188976
        },
        {
          "duration": 0.23387050000000897,
          "durationTicks": 290,
          "midi": 55,
          "name": "G3",
          "ticks": 132960,
          "time": 107.22559199999999,
          "velocity": 0.5511811023622047
        },
        {
          "duration": 0.23387050000000897,
          "durationTicks": 290,
          "midi": 63,
          "name": "D#4",
          "ticks": 132960,
          "time": 107.22559199999999,
          "velocity": 0.5511811023622047
        },
        {
          "duration": 0.23387049999999476,
          "durationTicks": 290,
          "midi": 58,
          "name": "A#3",
          "ticks": 133440,
          "time": 107.612688,
          "velocity": 0.5511811023622047
        },
        {
          "duration": 0.23387049999999476,
          "durationTicks": 290,
          "midi": 65,
          "name": "F4",
          "ticks": 133440,
          "time": 107.612688,
          "velocity": 0.5511811023622047
        },
        {
          "duration": 0.23387049999999476,
          "durationTicks": 290,
          "midi": 58,
          "name": "A#3",
          "ticks": 133920,
          "time": 107.999784,
          "velocity": 0.5511811023622047
        },
        {
          "duration": 0.23387049999999476,
          "durationTicks": 290,
          "midi": 65,
          "name": "F4",
          "ticks": 133920,
          "time": 107.999784,
          "velocity": 0.5511811023622047
        },
        {
          "duration": 0.23387049999999476,
          "durationTicks": 290,
          "midi": 63,
          "name": "D#4",
          "ticks": 134400,
          "time": 108.38688,
          "velocity": 0.5511811023622047
        },
        {
          "duration": 0.23387049999999476,
          "durationTicks": 290,
          "midi": 67,
          "name": "G4",
          "ticks": 134400,
          "time": 108.38688,
          "velocity": 0.5511811023622047
        },
        {
          "duration": 0.23387049999999476,
          "durationTicks": 290,
          "midi": 55,
          "name": "G3",
          "ticks": 134880,
          "time": 108.773976,
          "velocity": 0.5511811023622047
        },
        {
          "duration": 0.23387049999999476,
          "durationTicks": 290,
          "midi": 63,
          "name": "D#4",
          "ticks": 134880,
          "time": 108.773976,
          "velocity": 0.5511811023622047
        },
        {
          "duration": 0.23387049999999476,
          "durationTicks": 290,
          "midi": 58,
          "name": "A#3",
          "ticks": 135360,
          "time": 109.161072,
          "velocity": 0.5511811023622047
        },
        {
          "duration": 0.23387049999999476,
          "durationTicks": 290,
          "midi": 65,
          "name": "F4",
          "ticks": 135360,
          "time": 109.161072,
          "velocity": 0.5511811023622047
        },
        {
          "duration": 0.23387050000000897,
          "durationTicks": 290,
          "midi": 58,
          "name": "A#3",
          "ticks": 135840,
          "time": 109.548168,
          "velocity": 0.5511811023622047
        },
        {
          "duration": 0.23387050000000897,
          "durationTicks": 290,
          "midi": 65,
          "name": "F4",
          "ticks": 135840,
          "time": 109.548168,
          "velocity": 0.5511811023622047
        },
        {
          "duration": 0.1370964999999984,
          "durationTicks": 170,
          "midi": 63,
          "name": "D#4",
          "ticks": 136320,
          "time": 109.935264,
          "velocity": 0.5511811023622047
        },
        {
          "duration": 0.1370964999999984,
          "durationTicks": 170,
          "midi": 67,
          "name": "G4",
          "ticks": 136320,
          "time": 109.935264,
          "velocity": 0.5511811023622047
        },
        {
          "duration": 0.1370965000000126,
          "durationTicks": 170,
          "midi": 65,
          "name": "F4",
          "ticks": 136560,
          "time": 110.128812,
          "velocity": 0.8661417322834646
        },
        {
          "duration": 0.1370965000000126,
          "durationTicks": 170,
          "midi": 65,
          "name": "F4",
          "ticks": 136560,
          "time": 110.128812,
          "velocity": 0.8661417322834646
        },
        {
          "duration": 0.1370964999999984,
          "durationTicks": 170,
          "midi": 63,
          "name": "D#4",
          "ticks": 136800,
          "time": 110.32236,
          "velocity": 0.8661417322834646
        },
        {
          "duration": 0.1370964999999984,
          "durationTicks": 170,
          "midi": 63,
          "name": "D#4",
          "ticks": 136800,
          "time": 110.32236,
          "velocity": 0.8661417322834646
        },
        {
          "duration": 0.1370965000000126,
          "durationTicks": 170,
          "midi": 65,
          "name": "F4",
          "ticks": 137040,
          "time": 110.515908,
          "velocity": 0.8661417322834646
        },
        {
          "duration": 0.1370965000000126,
          "durationTicks": 170,
          "midi": 68,
          "name": "G#4",
          "ticks": 137040,
          "time": 110.515908,
          "velocity": 0.8661417322834646
        },
        {
          "duration": 0.1370964999999984,
          "durationTicks": 170,
          "midi": 63,
          "name": "D#4",
          "ticks": 137280,
          "time": 110.709456,
          "velocity": 0.8661417322834646
        },
        {
          "duration": 0.1370964999999984,
          "durationTicks": 170,
          "midi": 67,
          "name": "G4",
          "ticks": 137280,
          "time": 110.709456,
          "velocity": 0.8661417322834646
        },
        {
          "duration": 0.1370964999999984,
          "durationTicks": 170,
          "midi": 58,
          "name": "A#3",
          "ticks": 137760,
          "time": 111.096552,
          "velocity": 0.8661417322834646
        },
        {
          "duration": 0.1370964999999984,
          "durationTicks": 170,
          "midi": 65,
          "name": "F4",
          "ticks": 137760,
          "time": 111.096552,
          "velocity": 0.8661417322834646
        },
        {
          "duration": 0.12903199999999515,
          "durationTicks": 160,
          "midi": 55,
          "name": "G3",
          "ticks": 138240,
          "time": 111.483648,
          "velocity": 0.8661417322834646
        },
        {
          "duration": 0.12903199999999515,
          "durationTicks": 160,
          "midi": 63,
          "name": "D#4",
          "ticks": 138240,
          "time": 111.483648,
          "velocity": 0.8661417322834646
        },
        {
          "duration": 0.12903199999999515,
          "durationTicks": 160,
          "midi": 55,
          "name": "G3",
          "ticks": 138720,
          "time": 111.870744,
          "velocity": 0.8661417322834646
        },
        {
          "duration": 0.12903199999999515,
          "durationTicks": 160,
          "midi": 63,
          "name": "D#4",
          "ticks": 138720,
          "time": 111.870744,
          "velocity": 0.8661417322834646
        },
        {
          "duration": 0.12903199999999515,
          "durationTicks": 160,
          "midi": 55,
          "name": "G3",
          "ticks": 139200,
          "time": 112.25784,
          "velocity": 0.8661417322834646
        },
        {
          "duration": 0.12903199999999515,
          "durationTicks": 160,
          "midi": 63,
          "name": "D#4",
          "ticks": 139200,
          "time": 112.25784,
          "velocity": 0.8661417322834646
        },
        {
          "duration": 0.1370965000000126,
          "durationTicks": 170,
          "midi": 46,
          "name": "A#2",
          "ticks": 170880,
          "time": 137.806176,
          "velocity": 0.47244094488188976
        },
        {
          "duration": 0.1370965000000126,
          "durationTicks": 170,
          "midi": 58,
          "name": "A#3",
          "ticks": 170880,
          "time": 137.806176,
          "velocity": 0.47244094488188976
        },
        {
          "duration": 0.1370964999999842,
          "durationTicks": 170,
          "midi": 46,
          "name": "A#2",
          "ticks": 171360,
          "time": 138.193272,
          "velocity": 0.47244094488188976
        },
        {
          "duration": 0.1370964999999842,
          "durationTicks": 170,
          "midi": 58,
          "name": "A#3",
          "ticks": 171360,
          "time": 138.193272,
          "velocity": 0.47244094488188976
        },
        {
          "duration": 0.1370965000000126,
          "durationTicks": 170,
          "midi": 46,
          "name": "A#2",
          "ticks": 171840,
          "time": 138.580368,
          "velocity": 0.47244094488188976
        },
        {
          "duration": 0.1370965000000126,
          "durationTicks": 170,
          "midi": 58,
          "name": "A#3",
          "ticks": 171840,
          "time": 138.580368,
          "velocity": 0.47244094488188976
        },
        {
          "duration": 0.1370965000000126,
          "durationTicks": 170,
          "midi": 46,
          "name": "A#2",
          "ticks": 172320,
          "time": 138.967464,
          "velocity": 0.47244094488188976
        },
        {
          "duration": 0.1370965000000126,
          "durationTicks": 170,
          "midi": 58,
          "name": "A#3",
          "ticks": 172320,
          "time": 138.967464,
          "velocity": 0.47244094488188976
        },
        {
          "duration": 0.1370965000000126,
          "durationTicks": 170,
          "midi": 46,
          "name": "A#2",
          "ticks": 172800,
          "time": 139.35456,
          "velocity": 0.47244094488188976
        },
        {
          "duration": 0.1370965000000126,
          "durationTicks": 170,
          "midi": 58,
          "name": "A#3",
          "ticks": 172800,
          "time": 139.35456,
          "velocity": 0.47244094488188976
        },
        {
          "duration": 0.1370965000000126,
          "durationTicks": 170,
          "midi": 46,
          "name": "A#2",
          "ticks": 173280,
          "time": 139.741656,
          "velocity": 0.47244094488188976
        },
        {
          "duration": 0.1370965000000126,
          "durationTicks": 170,
          "midi": 58,
          "name": "A#3",
          "ticks": 173280,
          "time": 139.741656,
          "velocity": 0.47244094488188976
        },
        {
          "duration": 0.1370965000000126,
          "durationTicks": 170,
          "midi": 46,
          "name": "A#2",
          "ticks": 173760,
          "time": 140.128752,
          "velocity": 0.47244094488188976
        },
        {
          "duration": 0.1370965000000126,
          "durationTicks": 170,
          "midi": 58,
          "name": "A#3",
          "ticks": 173760,
          "time": 140.128752,
          "velocity": 0.47244094488188976
        },
        {
          "duration": 0.1370965000000126,
          "durationTicks": 170,
          "midi": 46,
          "name": "A#2",
          "ticks": 174240,
          "time": 140.515848,
          "velocity": 0.47244094488188976
        },
        {
          "duration": 0.1370965000000126,
          "durationTicks": 170,
          "midi": 58,
          "name": "A#3",
          "ticks": 174240,
          "time": 140.515848,
          "velocity": 0.47244094488188976
        },
        {
          "duration": 0.1370965000000126,
          "durationTicks": 170,
          "midi": 46,
          "name": "A#2",
          "ticks": 174720,
          "time": 140.902944,
          "velocity": 0.47244094488188976
        },
        {
          "duration": 0.1370965000000126,
          "durationTicks": 170,
          "midi": 58,
          "name": "A#3",
          "ticks": 174720,
          "time": 140.902944,
          "velocity": 0.47244094488188976
        },
        {
          "duration": 0.1370965000000126,
          "durationTicks": 170,
          "midi": 46,
          "name": "A#2",
          "ticks": 175200,
          "time": 141.29004,
          "velocity": 0.47244094488188976
        },
        {
          "duration": 0.1370965000000126,
          "durationTicks": 170,
          "midi": 58,
          "name": "A#3",
          "ticks": 175200,
          "time": 141.29004,
          "velocity": 0.47244094488188976
        },
        {
          "duration": 0.1370965000000126,
          "durationTicks": 170,
          "midi": 46,
          "name": "A#2",
          "ticks": 175680,
          "time": 141.677136,
          "velocity": 0.47244094488188976
        },
        {
          "duration": 0.1370965000000126,
          "durationTicks": 170,
          "midi": 58,
          "name": "A#3",
          "ticks": 175680,
          "time": 141.677136,
          "velocity": 0.47244094488188976
        },
        {
          "duration": 0.1370965000000126,
          "durationTicks": 170,
          "midi": 46,
          "name": "A#2",
          "ticks": 176160,
          "time": 142.064232,
          "velocity": 0.47244094488188976
        },
        {
          "duration": 0.1370965000000126,
          "durationTicks": 170,
          "midi": 58,
          "name": "A#3",
          "ticks": 176160,
          "time": 142.064232,
          "velocity": 0.47244094488188976
        },
        {
          "duration": 0.1370965000000126,
          "durationTicks": 170,
          "midi": 46,
          "name": "A#2",
          "ticks": 176640,
          "time": 142.451328,
          "velocity": 0.47244094488188976
        },
        {
          "duration": 0.1370965000000126,
          "durationTicks": 170,
          "midi": 58,
          "name": "A#3",
          "ticks": 176640,
          "time": 142.451328,
          "velocity": 0.47244094488188976
        },
        {
          "duration": 0.1370965000000126,
          "durationTicks": 170,
          "midi": 46,
          "name": "A#2",
          "ticks": 177120,
          "time": 142.838424,
          "velocity": 0.47244094488188976
        },
        {
          "duration": 0.1370965000000126,
          "durationTicks": 170,
          "midi": 58,
          "name": "A#3",
          "ticks": 177120,
          "time": 142.838424,
          "velocity": 0.47244094488188976
        },
        {
          "duration": 0.1370965000000126,
          "durationTicks": 170,
          "midi": 46,
          "name": "A#2",
          "ticks": 177600,
          "time": 143.22552,
          "velocity": 0.47244094488188976
        },
        {
          "duration": 0.1370965000000126,
          "durationTicks": 170,
          "midi": 58,
          "name": "A#3",
          "ticks": 177600,
          "time": 143.22552,
          "velocity": 0.47244094488188976
        },
        {
          "duration": 0.23387049999999476,
          "durationTicks": 290,
          "midi": 55,
          "name": "G3",
          "ticks": 179040,
          "time": 144.386808,
          "velocity": 0.5511811023622047
        },
        {
          "duration": 0.23387049999999476,
          "durationTicks": 290,
          "midi": 63,
          "name": "D#4",
          "ticks": 179040,
          "time": 144.386808,
          "velocity": 0.5511811023622047
        },
        {
          "duration": 0.23387050000002318,
          "durationTicks": 290,
          "midi": 58,
          "name": "A#3",
          "ticks": 179520,
          "time": 144.773904,
          "velocity": 0.5511811023622047
        },
        {
          "duration": 0.23387050000002318,
          "durationTicks": 290,
          "midi": 65,
          "name": "F4",
          "ticks": 179520,
          "time": 144.773904,
          "velocity": 0.5511811023622047
        },
        {
          "duration": 0.23387049999999476,
          "durationTicks": 290,
          "midi": 58,
          "name": "A#3",
          "ticks": 180000,
          "time": 145.161,
          "velocity": 0.5511811023622047
        },
        {
          "duration": 0.23387049999999476,
          "durationTicks": 290,
          "midi": 65,
          "name": "F4",
          "ticks": 180000,
          "time": 145.161,
          "velocity": 0.5511811023622047
        },
        {
          "duration": 0.23387050000002318,
          "durationTicks": 290,
          "midi": 63,
          "name": "D#4",
          "ticks": 180480,
          "time": 145.548096,
          "velocity": 0.5511811023622047
        },
        {
          "duration": 0.23387050000002318,
          "durationTicks": 290,
          "midi": 67,
          "name": "G4",
          "ticks": 180480,
          "time": 145.548096,
          "velocity": 0.5511811023622047
        },
        {
          "duration": 0.23387049999999476,
          "durationTicks": 290,
          "midi": 55,
          "name": "G3",
          "ticks": 180960,
          "time": 145.935192,
          "velocity": 0.5511811023622047
        },
        {
          "duration": 0.23387049999999476,
          "durationTicks": 290,
          "midi": 63,
          "name": "D#4",
          "ticks": 180960,
          "time": 145.935192,
          "velocity": 0.5511811023622047
        },
        {
          "duration": 0.23387050000002318,
          "durationTicks": 290,
          "midi": 58,
          "name": "A#3",
          "ticks": 181440,
          "time": 146.322288,
          "velocity": 0.5511811023622047
        },
        {
          "duration": 0.23387050000002318,
          "durationTicks": 290,
          "midi": 65,
          "name": "F4",
          "ticks": 181440,
          "time": 146.322288,
          "velocity": 0.5511811023622047
        },
        {
          "duration": 0.23387049999999476,
          "durationTicks": 290,
          "midi": 58,
          "name": "A#3",
          "ticks": 181920,
          "time": 146.709384,
          "velocity": 0.5511811023622047
        },
        {
          "duration": 0.23387049999999476,
          "durationTicks": 290,
          "midi": 65,
          "name": "F4",
          "ticks": 181920,
          "time": 146.709384,
          "velocity": 0.5511811023622047
        },
        {
          "duration": 0.1370965000000126,
          "durationTicks": 170,
          "midi": 63,
          "name": "D#4",
          "ticks": 182400,
          "time": 147.09647999999999,
          "velocity": 0.5511811023622047
        },
        {
          "duration": 0.1370965000000126,
          "durationTicks": 170,
          "midi": 67,
          "name": "G4",
          "ticks": 182400,
          "time": 147.09647999999999,
          "velocity": 0.5511811023622047
        },
        {
          "duration": 0.1370965000000126,
          "durationTicks": 170,
          "midi": 58,
          "name": "A#3",
          "ticks": 182640,
          "time": 147.290028,
          "velocity": 0.8661417322834646
        },
        {
          "duration": 0.1370965000000126,
          "durationTicks": 170,
          "midi": 65,
          "name": "F4",
          "ticks": 182640,
          "time": 147.290028,
          "velocity": 0.8661417322834646
        },
        {
          "duration": 0.1370965000000126,
          "durationTicks": 170,
          "midi": 55,
          "name": "G3",
          "ticks": 182880,
          "time": 147.483576,
          "velocity": 0.8661417322834646
        },
        {
          "duration": 0.1370965000000126,
          "durationTicks": 170,
          "midi": 63,
          "name": "D#4",
          "ticks": 182880,
          "time": 147.483576,
          "velocity": 0.8661417322834646
        },
        {
          "duration": 0.1370965000000126,
          "durationTicks": 170,
          "midi": 65,
          "name": "F4",
          "ticks": 183120,
          "time": 147.677124,
          "velocity": 0.8661417322834646
        },
        {
          "duration": 0.1370965000000126,
          "durationTicks": 170,
          "midi": 68,
          "name": "G#4",
          "ticks": 183120,
          "time": 147.677124,
          "velocity": 0.8661417322834646
        },
        {
          "duration": 0.1370965000000126,
          "durationTicks": 170,
          "midi": 63,
          "name": "D#4",
          "ticks": 183360,
          "time": 147.87067199999998,
          "velocity": 0.8661417322834646
        },
        {
          "duration": 0.1370965000000126,
          "durationTicks": 170,
          "midi": 67,
          "name": "G4",
          "ticks": 183360,
          "time": 147.87067199999998,
          "velocity": 0.8661417322834646
        },
        {
          "duration": 0.1370965000000126,
          "durationTicks": 170,
          "midi": 58,
          "name": "A#3",
          "ticks": 183840,
          "time": 148.257768,
          "velocity": 0.8661417322834646
        },
        {
          "duration": 0.1370965000000126,
          "durationTicks": 170,
          "midi": 65,
          "name": "F4",
          "ticks": 183840,
          "time": 148.257768,
          "velocity": 0.8661417322834646
        },
        {
          "duration": 0.12903199999999515,
          "durationTicks": 160,
          "midi": 55,
          "name": "G3",
          "ticks": 184320,
          "time": 148.64486399999998,
          "velocity": 0.8661417322834646
        },
        {
          "duration": 0.12903199999999515,
          "durationTicks": 160,
          "midi": 63,
          "name": "D#4",
          "ticks": 184320,
          "time": 148.64486399999998,
          "velocity": 0.8661417322834646
        },
        {
          "duration": 0.12903199999999515,
          "durationTicks": 160,
          "midi": 55,
          "name": "G3",
          "ticks": 184800,
          "time": 149.03196,
          "velocity": 0.8661417322834646
        },
        {
          "duration": 0.12903199999999515,
          "durationTicks": 160,
          "midi": 63,
          "name": "D#4",
          "ticks": 184800,
          "time": 149.03196,
          "velocity": 0.8661417322834646
        },
        {
          "duration": 0.12903199999996673,
          "durationTicks": 160,
          "midi": 55,
          "name": "G3",
          "ticks": 185280,
          "time": 149.419056,
          "velocity": 0.8661417322834646
        },
        {
          "duration": 0.12903199999996673,
          "durationTicks": 160,
          "midi": 63,
          "name": "D#4",
          "ticks": 185280,
          "time": 149.419056,
          "velocity": 0.8661417322834646
        },
        {
          "duration": 0.23387050000002318,
          "durationTicks": 290,
          "midi": 58,
          "name": "A#3",
          "ticks": 197280,
          "time": 159.096456,
          "velocity": 0.5118110236220472
        },
        {
          "duration": 0.23387050000002318,
          "durationTicks": 290,
          "midi": 65,
          "name": "F4",
          "ticks": 197280,
          "time": 159.096456,
          "velocity": 0.5118110236220472
        },
        {
          "duration": 0.23387049999999476,
          "durationTicks": 290,
          "midi": 63,
          "name": "D#4",
          "ticks": 197760,
          "time": 159.483552,
          "velocity": 0.5118110236220472
        },
        {
          "duration": 0.23387049999999476,
          "durationTicks": 290,
          "midi": 67,
          "name": "G4",
          "ticks": 197760,
          "time": 159.483552,
          "velocity": 0.5118110236220472
        },
        {
          "duration": 0.23387049999999476,
          "durationTicks": 290,
          "midi": 58,
          "name": "A#3",
          "ticks": 198720,
          "time": 160.257744,
          "velocity": 0.5118110236220472
        },
        {
          "duration": 0.23387049999999476,
          "durationTicks": 290,
          "midi": 65,
          "name": "F4",
          "ticks": 198720,
          "time": 160.257744,
          "velocity": 0.5118110236220472
        },
        {
          "duration": 0.23387050000002318,
          "durationTicks": 290,
          "midi": 58,
          "name": "A#3",
          "ticks": 199200,
          "time": 160.64484,
          "velocity": 0.5118110236220472
        },
        {
          "duration": 0.23387050000002318,
          "durationTicks": 290,
          "midi": 65,
          "name": "F4",
          "ticks": 199200,
          "time": 160.64484,
          "velocity": 0.5118110236220472
        },
        {
          "duration": 0.1370965000000126,
          "durationTicks": 170,
          "midi": 63,
          "name": "D#4",
          "ticks": 199680,
          "time": 161.031936,
          "velocity": 0.5118110236220472
        },
        {
          "duration": 0.1370965000000126,
          "durationTicks": 170,
          "midi": 67,
          "name": "G4",
          "ticks": 199680,
          "time": 161.031936,
          "velocity": 0.5118110236220472
        },
        {
          "duration": 0.12903199999999515,
          "durationTicks": 160,
          "midi": 67,
          "name": "G4",
          "ticks": 200160,
          "time": 161.419032,
          "velocity": 0.5118110236220472
        },
        {
          "duration": 0.12903199999999515,
          "durationTicks": 160,
          "midi": 70,
          "name": "A#4",
          "ticks": 200160,
          "time": 161.419032,
          "velocity": 0.5118110236220472
        },
        {
          "duration": 0.060483750000003056,
          "durationTicks": 75,
          "midi": 65,
          "name": "F4",
          "ticks": 200520,
          "time": 161.709354,
          "velocity": 0.5118110236220472
        },
        {
          "duration": 0.060483750000003056,
          "durationTicks": 75,
          "midi": 68,
          "name": "G#4",
          "ticks": 200520,
          "time": 161.709354,
          "velocity": 0.5118110236220472
        },
        {
          "duration": 0.12903199999999515,
          "durationTicks": 160,
          "midi": 63,
          "name": "D#4",
          "ticks": 200640,
          "time": 161.806128,
          "velocity": 0.5118110236220472
        },
        {
          "duration": 0.12903199999999515,
          "durationTicks": 160,
          "midi": 67,
          "name": "G4",
          "ticks": 200640,
          "time": 161.806128,
          "velocity": 0.5118110236220472
        },
        {
          "duration": 0.23387049999999476,
          "durationTicks": 290,
          "midi": 58,
          "name": "A#3",
          "ticks": 212640,
          "time": 171.483528,
          "velocity": 0.5118110236220472
        },
        {
          "duration": 0.23387049999999476,
          "durationTicks": 290,
          "midi": 65,
          "name": "F4",
          "ticks": 212640,
          "time": 171.483528,
          "velocity": 0.5118110236220472
        },
        {
          "duration": 0.23387050000002318,
          "durationTicks": 290,
          "midi": 63,
          "name": "D#4",
          "ticks": 213120,
          "time": 171.870624,
          "velocity": 0.5118110236220472
        },
        {
          "duration": 0.23387050000002318,
          "durationTicks": 290,
          "midi": 67,
          "name": "G4",
          "ticks": 213120,
          "time": 171.870624,
          "velocity": 0.5118110236220472
        },
        {
          "duration": 0.23387050000002318,
          "durationTicks": 290,
          "midi": 58,
          "name": "A#3",
          "ticks": 214080,
          "time": 172.644816,
          "velocity": 0.5118110236220472
        },
        {
          "duration": 0.23387050000002318,
          "durationTicks": 290,
          "midi": 65,
          "name": "F4",
          "ticks": 214080,
          "time": 172.644816,
          "velocity": 0.5118110236220472
        },
        {
          "duration": 0.23387049999999476,
          "durationTicks": 290,
          "midi": 58,
          "name": "A#3",
          "ticks": 214560,
          "time": 173.031912,
          "velocity": 0.5118110236220472
        },
        {
          "duration": 0.23387049999999476,
          "durationTicks": 290,
          "midi": 65,
          "name": "F4",
          "ticks": 214560,
          "time": 173.031912,
          "velocity": 0.5118110236220472
        },
        {
          "duration": 0.1370965000000126,
          "durationTicks": 170,
          "midi": 63,
          "name": "D#4",
          "ticks": 215040,
          "time": 173.419008,
          "velocity": 0.5118110236220472
        },
        {
          "duration": 0.1370965000000126,
          "durationTicks": 170,
          "midi": 67,
          "name": "G4",
          "ticks": 215040,
          "time": 173.419008,
          "velocity": 0.5118110236220472
        },
        {
          "duration": 0.12903199999999515,
          "durationTicks": 160,
          "midi": 67,
          "name": "G4",
          "ticks": 215520,
          "time": 173.806104,
          "velocity": 0.5118110236220472
        },
        {
          "duration": 0.12903199999999515,
          "durationTicks": 160,
          "midi": 70,
          "name": "A#4",
          "ticks": 215520,
          "time": 173.806104,
          "velocity": 0.5118110236220472
        },
        {
          "duration": 0.060483750000003056,
          "durationTicks": 75,
          "midi": 65,
          "name": "F4",
          "ticks": 215880,
          "time": 174.096426,
          "velocity": 0.5118110236220472
        },
        {
          "duration": 0.060483750000003056,
          "durationTicks": 75,
          "midi": 68,
          "name": "G#4",
          "ticks": 215880,
          "time": 174.096426,
          "velocity": 0.5118110236220472
        },
        {
          "duration": 0.12903199999999515,
          "durationTicks": 160,
          "midi": 63,
          "name": "D#4",
          "ticks": 216000,
          "time": 174.1932,
          "velocity": 0.5118110236220472
        },
        {
          "duration": 0.12903199999999515,
          "durationTicks": 160,
          "midi": 67,
          "name": "G4",
          "ticks": 216000,
          "time": 174.1932,
          "velocity": 0.5118110236220472
        },
        {
          "duration": 0.12903199999999515,
          "durationTicks": 160,
          "midi": 58,
          "name": "A#3",
          "ticks": 218880,
          "time": 176.515776,
          "velocity": 0.5118110236220472
        },
        {
          "duration": 0.12903199999999515,
          "durationTicks": 160,
          "midi": 65,
          "name": "F4",
          "ticks": 218880,
          "time": 176.515776,
          "velocity": 0.5118110236220472
        },
        {
          "duration": 0.12903199999999515,
          "durationTicks": 160,
          "midi": 58,
          "name": "A#3",
          "ticks": 219120,
          "time": 176.709324,
          "velocity": 0.5118110236220472
        },
        {
          "duration": 0.12903199999999515,
          "durationTicks": 160,
          "midi": 65,
          "name": "F4",
          "ticks": 219120,
          "time": 176.709324,
          "velocity": 0.5118110236220472
        },
        {
          "duration": 0.12903199999999515,
          "durationTicks": 160,
          "midi": 58,
          "name": "A#3",
          "ticks": 219360,
          "time": 176.902872,
          "velocity": 0.5118110236220472
        },
        {
          "duration": 0.12903199999999515,
          "durationTicks": 160,
          "midi": 65,
          "name": "F4",
          "ticks": 219360,
          "time": 176.902872,
          "velocity": 0.5118110236220472
        },
        {
          "duration": 0.12903199999999515,
          "durationTicks": 160,
          "midi": 58,
          "name": "A#3",
          "ticks": 219600,
          "time": 177.09642,
          "velocity": 0.5118110236220472
        },
        {
          "duration": 0.12903199999999515,
          "durationTicks": 160,
          "midi": 65,
          "name": "F4",
          "ticks": 219600,
          "time": 177.09642,
          "velocity": 0.5118110236220472
        },
        {
          "duration": 0.12903199999999515,
          "durationTicks": 160,
          "midi": 58,
          "name": "A#3",
          "ticks": 219840,
          "time": 177.289968,
          "velocity": 0.5118110236220472
        },
        {
          "duration": 0.12903199999999515,
          "durationTicks": 160,
          "midi": 65,
          "name": "F4",
          "ticks": 219840,
          "time": 177.289968,
          "velocity": 0.5118110236220472
        },
        {
          "duration": 0.12903199999999515,
          "durationTicks": 160,
          "midi": 58,
          "name": "A#3",
          "ticks": 222720,
          "time": 179.61254399999999,
          "velocity": 0.5118110236220472
        },
        {
          "duration": 0.12903199999999515,
          "durationTicks": 160,
          "midi": 65,
          "name": "F4",
          "ticks": 222720,
          "time": 179.61254399999999,
          "velocity": 0.5118110236220472
        },
        {
          "duration": 0.12903199999999515,
          "durationTicks": 160,
          "midi": 58,
          "name": "A#3",
          "ticks": 222960,
          "time": 179.806092,
          "velocity": 0.5118110236220472
        },
        {
          "duration": 0.12903199999999515,
          "durationTicks": 160,
          "midi": 65,
          "name": "F4",
          "ticks": 222960,
          "time": 179.806092,
          "velocity": 0.5118110236220472
        },
        {
          "duration": 0.12903199999999515,
          "durationTicks": 160,
          "midi": 58,
          "name": "A#3",
          "ticks": 223200,
          "time": 179.99964,
          "velocity": 0.5118110236220472
        },
        {
          "duration": 0.12903199999999515,
          "durationTicks": 160,
          "midi": 65,
          "name": "F4",
          "ticks": 223200,
          "time": 179.99964,
          "velocity": 0.5118110236220472
        },
        {
          "duration": 0.12903199999999515,
          "durationTicks": 160,
          "midi": 58,
          "name": "A#3",
          "ticks": 223440,
          "time": 180.193188,
          "velocity": 0.5118110236220472
        },
        {
          "duration": 0.12903199999999515,
          "durationTicks": 160,
          "midi": 65,
          "name": "F4",
          "ticks": 223440,
          "time": 180.193188,
          "velocity": 0.5118110236220472
        },
        {
          "duration": 0.12903199999999515,
          "durationTicks": 160,
          "midi": 58,
          "name": "A#3",
          "ticks": 223680,
          "time": 180.38673599999998,
          "velocity": 0.5118110236220472
        },
        {
          "duration": 0.12903199999999515,
          "durationTicks": 160,
          "midi": 65,
          "name": "F4",
          "ticks": 223680,
          "time": 180.38673599999998,
          "velocity": 0.5118110236220472
        },
        {
          "duration": 0.12903199999999515,
          "durationTicks": 160,
          "midi": 46,
          "name": "A#2",
          "ticks": 223920,
          "time": 180.580284,
          "velocity": 0.5905511811023622
        },
        {
          "duration": 0.12903199999999515,
          "durationTicks": 160,
          "midi": 58,
          "name": "A#3",
          "ticks": 223920,
          "time": 180.580284,
          "velocity": 0.5905511811023622
        },
        {
          "duration": 0.12903199999999515,
          "durationTicks": 160,
          "midi": 51,
          "name": "D#3",
          "ticks": 224160,
          "time": 180.773832,
          "velocity": 0.5905511811023622
        },
        {
          "duration": 0.12903199999999515,
          "durationTicks": 160,
          "midi": 63,
          "name": "D#4",
          "ticks": 224160,
          "time": 180.773832,
          "velocity": 0.5905511811023622
        },
        {
          "duration": 0.12903199999999515,
          "durationTicks": 160,
          "midi": 55,
          "name": "G3",
          "ticks": 224400,
          "time": 180.96738,
          "velocity": 0.5905511811023622
        },
        {
          "duration": 0.12903199999999515,
          "durationTicks": 160,
          "midi": 67,
          "name": "G4",
          "ticks": 224400,
          "time": 180.96738,
          "velocity": 0.5905511811023622
        },
        {
          "duration": 0.23387050000002318,
          "durationTicks": 290,
          "midi": 58,
          "name": "A#3",
          "ticks": 224640,
          "time": 181.16092799999998,
          "velocity": 0.5905511811023622
        },
        {
          "duration": 0.23387050000002318,
          "durationTicks": 290,
          "midi": 70,
          "name": "A#4",
          "ticks": 224640,
          "time": 181.16092799999998,
          "velocity": 0.5905511811023622
        },
        {
          "duration": 0.23387049999999476,
          "durationTicks": 290,
          "midi": 63,
          "name": "D#4",
          "ticks": 225120,
          "time": 181.548024,
          "velocity": 0.5905511811023622
        },
        {
          "duration": 0.23387049999999476,
          "durationTicks": 290,
          "midi": 67,
          "name": "G4",
          "ticks": 225120,
          "time": 181.548024,
          "velocity": 0.5905511811023622
        },
        {
          "duration": 0.23387049999999476,
          "durationTicks": 290,
          "midi": 65,
          "name": "F4",
          "ticks": 225600,
          "time": 181.93512,
          "velocity": 0.5905511811023622
        },
        {
          "duration": 0.23387049999999476,
          "durationTicks": 290,
          "midi": 68,
          "name": "G#4",
          "ticks": 225600,
          "time": 181.93512,
          "velocity": 0.5905511811023622
        },
        {
          "duration": 0.23387049999999476,
          "durationTicks": 290,
          "midi": 65,
          "name": "F4",
          "ticks": 226080,
          "time": 182.322216,
          "velocity": 0.5905511811023622
        },
        {
          "duration": 0.23387049999999476,
          "durationTicks": 290,
          "midi": 68,
          "name": "G#4",
          "ticks": 226080,
          "time": 182.322216,
          "velocity": 0.5905511811023622
        },
        {
          "duration": 0.12903199999996673,
          "durationTicks": 160,
          "midi": 63,
          "name": "D#4",
          "ticks": 226560,
          "time": 182.709312,
          "velocity": 0.5905511811023622
        },
        {
          "duration": 0.23387049999999476,
          "durationTicks": 290,
          "midi": 67,
          "name": "G4",
          "ticks": 226560,
          "time": 182.709312,
          "velocity": 0.5905511811023622
        },
        {
          "duration": 0.12903199999999515,
          "durationTicks": 160,
          "midi": 58,
          "name": "A#3",
          "ticks": 226800,
          "time": 182.90286,
          "velocity": 0.5905511811023622
        },
        {
          "duration": 0.12903199999999515,
          "durationTicks": 160,
          "midi": 55,
          "name": "G3",
          "ticks": 227040,
          "time": 183.096408,
          "velocity": 0.5905511811023622
        },
        {
          "duration": 0.23387049999999476,
          "durationTicks": 290,
          "midi": 67,
          "name": "G4",
          "ticks": 227040,
          "time": 183.096408,
          "velocity": 0.5905511811023622
        },
        {
          "duration": 0.12903199999999515,
          "durationTicks": 160,
          "midi": 51,
          "name": "D#3",
          "ticks": 227280,
          "time": 183.289956,
          "velocity": 0.5905511811023622
        },
        {
          "duration": 0.23387049999999476,
          "durationTicks": 290,
          "midi": 58,
          "name": "A#3",
          "ticks": 227520,
          "time": 183.483504,
          "velocity": 0.5905511811023622
        },
        {
          "duration": 0.23387049999999476,
          "durationTicks": 290,
          "midi": 68,
          "name": "G#4",
          "ticks": 227520,
          "time": 183.483504,
          "velocity": 0.5905511811023622
        },
        {
          "duration": 0.23387050000002318,
          "durationTicks": 290,
          "midi": 58,
          "name": "A#3",
          "ticks": 228000,
          "time": 183.8706,
          "velocity": 0.5905511811023622
        },
        {
          "duration": 0.23387050000002318,
          "durationTicks": 290,
          "midi": 68,
          "name": "G#4",
          "ticks": 228000,
          "time": 183.8706,
          "velocity": 0.5905511811023622
        },
        {
          "duration": 0.12903199999996673,
          "durationTicks": 160,
          "midi": 63,
          "name": "D#4",
          "ticks": 228480,
          "time": 184.257696,
          "velocity": 0.5905511811023622
        },
        {
          "duration": 0.12903199999996673,
          "durationTicks": 160,
          "midi": 67,
          "name": "G4",
          "ticks": 228480,
          "time": 184.257696,
          "velocity": 0.5905511811023622
        },
        {
          "duration": 0.12903199999999515,
          "durationTicks": 160,
          "midi": 65,
          "name": "F4",
          "ticks": 228720,
          "time": 184.451244,
          "velocity": 0.8661417322834646
        },
        {
          "duration": 0.12903199999999515,
          "durationTicks": 160,
          "midi": 65,
          "name": "F4",
          "ticks": 228720,
          "time": 184.451244,
          "velocity": 0.8661417322834646
        },
        {
          "duration": 0.12903199999999515,
          "durationTicks": 160,
          "midi": 63,
          "name": "D#4",
          "ticks": 228960,
          "time": 184.644792,
          "velocity": 0.8661417322834646
        },
        {
          "duration": 0.12903199999999515,
          "durationTicks": 160,
          "midi": 63,
          "name": "D#4",
          "ticks": 228960,
          "time": 184.644792,
          "velocity": 0.8661417322834646
        },
        {
          "duration": 0.12903199999999515,
          "durationTicks": 160,
          "midi": 65,
          "name": "F4",
          "ticks": 229200,
          "time": 184.83834,
          "velocity": 0.8661417322834646
        },
        {
          "duration": 0.12903199999999515,
          "durationTicks": 160,
          "midi": 68,
          "name": "G#4",
          "ticks": 229200,
          "time": 184.83834,
          "velocity": 0.8661417322834646
        },
        {
          "duration": 0.12903199999999515,
          "durationTicks": 160,
          "midi": 63,
          "name": "D#4",
          "ticks": 229440,
          "time": 185.031888,
          "velocity": 0.8661417322834646
        },
        {
          "duration": 0.12903199999999515,
          "durationTicks": 160,
          "midi": 67,
          "name": "G4",
          "ticks": 229440,
          "time": 185.031888,
          "velocity": 0.8661417322834646
        },
        {
          "duration": 0.12903199999999515,
          "durationTicks": 160,
          "midi": 58,
          "name": "A#3",
          "ticks": 229920,
          "time": 185.418984,
          "velocity": 0.8661417322834646
        },
        {
          "duration": 0.12903199999999515,
          "durationTicks": 160,
          "midi": 65,
          "name": "F4",
          "ticks": 229920,
          "time": 185.418984,
          "velocity": 0.8661417322834646
        },
        {
          "duration": 0.12903199999999515,
          "durationTicks": 160,
          "midi": 55,
          "name": "G3",
          "ticks": 230400,
          "time": 185.80608,
          "velocity": 0.8661417322834646
        },
        {
          "duration": 0.12903199999999515,
          "durationTicks": 160,
          "midi": 63,
          "name": "D#4",
          "ticks": 230400,
          "time": 185.80608,
          "velocity": 0.8661417322834646
        },
        {
          "duration": 0.12903199999999515,
          "durationTicks": 160,
          "midi": 55,
          "name": "G3",
          "ticks": 230880,
          "time": 186.193176,
          "velocity": 0.8661417322834646
        },
        {
          "duration": 0.12903199999999515,
          "durationTicks": 160,
          "midi": 63,
          "name": "D#4",
          "ticks": 230880,
          "time": 186.193176,
          "velocity": 0.8661417322834646
        },
        {
          "duration": 0.12903199999999515,
          "durationTicks": 160,
          "midi": 55,
          "name": "G3",
          "ticks": 231360,
          "time": 186.580272,
          "velocity": 0.8661417322834646
        },
        {
          "duration": 0.12903199999999515,
          "durationTicks": 160,
          "midi": 63,
          "name": "D#4",
          "ticks": 231360,
          "time": 186.580272,
          "velocity": 0.8661417322834646
        },
        {
          "duration": 0.23387049999999476,
          "durationTicks": 290,
          "midi": 63,
          "name": "D#4",
          "ticks": 232320,
          "time": 187.354464,
          "velocity": 0.31496062992125984
        },
        {
          "duration": 0.23387049999999476,
          "durationTicks": 290,
          "midi": 67,
          "name": "G4",
          "ticks": 232320,
          "time": 187.354464,
          "velocity": 0.31496062992125984
        },
        {
          "duration": 0.23387050000002318,
          "durationTicks": 290,
          "midi": 63,
          "name": "D#4",
          "ticks": 233760,
          "time": 188.515752,
          "velocity": 0.31496062992125984
        },
        {
          "duration": 0.23387050000002318,
          "durationTicks": 290,
          "midi": 67,
          "name": "G4",
          "ticks": 233760,
          "time": 188.515752,
          "velocity": 0.31496062992125984
        },
        {
          "duration": 0.23387049999999476,
          "durationTicks": 290,
          "midi": 58,
          "name": "A#3",
          "ticks": 234240,
          "time": 188.902848,
          "velocity": 0.31496062992125984
        },
        {
          "duration": 0.23387049999999476,
          "durationTicks": 290,
          "midi": 65,
          "name": "F4",
          "ticks": 234240,
          "time": 188.902848,
          "velocity": 0.31496062992125984
        },
        {
          "duration": 0.23387050000002318,
          "durationTicks": 290,
          "midi": 58,
          "name": "A#3",
          "ticks": 235680,
          "time": 190.064136,
          "velocity": 0.31496062992125984
        },
        {
          "duration": 0.23387050000002318,
          "durationTicks": 290,
          "midi": 65,
          "name": "F4",
          "ticks": 235680,
          "time": 190.064136,
          "velocity": 0.31496062992125984
        },
        {
          "duration": 0.23387049999999476,
          "durationTicks": 290,
          "midi": 55,
          "name": "G3",
          "ticks": 236160,
          "time": 190.451232,
          "velocity": 0.31496062992125984
        },
        {
          "duration": 0.23387049999999476,
          "durationTicks": 290,
          "midi": 63,
          "name": "D#4",
          "ticks": 236160,
          "time": 190.451232,
          "velocity": 0.31496062992125984
        },
        {
          "duration": 0.1370964999999842,
          "durationTicks": 170,
          "midi": 46,
          "name": "A#2",
          "ticks": 263040,
          "time": 212.12860799999999,
          "velocity": 0.47244094488188976
        },
        {
          "duration": 0.1370964999999842,
          "durationTicks": 170,
          "midi": 58,
          "name": "A#3",
          "ticks": 263040,
          "time": 212.12860799999999,
          "velocity": 0.47244094488188976
        },
        {
          "duration": 0.1370964999999842,
          "durationTicks": 170,
          "midi": 46,
          "name": "A#2",
          "ticks": 263520,
          "time": 212.515704,
          "velocity": 0.47244094488188976
        },
        {
          "duration": 0.1370964999999842,
          "durationTicks": 170,
          "midi": 58,
          "name": "A#3",
          "ticks": 263520,
          "time": 212.515704,
          "velocity": 0.47244094488188976
        },
        {
          "duration": 0.1370964999999842,
          "durationTicks": 170,
          "midi": 46,
          "name": "A#2",
          "ticks": 264000,
          "time": 212.90279999999998,
          "velocity": 0.47244094488188976
        },
        {
          "duration": 0.1370964999999842,
          "durationTicks": 170,
          "midi": 58,
          "name": "A#3",
          "ticks": 264000,
          "time": 212.90279999999998,
          "velocity": 0.47244094488188976
        },
        {
          "duration": 0.1370964999999842,
          "durationTicks": 170,
          "midi": 46,
          "name": "A#2",
          "ticks": 264480,
          "time": 213.289896,
          "velocity": 0.47244094488188976
        },
        {
          "duration": 0.1370964999999842,
          "durationTicks": 170,
          "midi": 58,
          "name": "A#3",
          "ticks": 264480,
          "time": 213.289896,
          "velocity": 0.47244094488188976
        },
        {
          "duration": 0.12903200000002357,
          "durationTicks": 160,
          "midi": 46,
          "name": "A#2",
          "ticks": 264960,
          "time": 213.67699199999998,
          "velocity": 0.5118110236220472
        },
        {
          "duration": 0.12903200000002357,
          "durationTicks": 160,
          "midi": 58,
          "name": "A#3",
          "ticks": 264960,
          "time": 213.67699199999998,
          "velocity": 0.5118110236220472
        },
        {
          "duration": 0.12903199999999515,
          "durationTicks": 160,
          "midi": 46,
          "name": "A#2",
          "ticks": 265200,
          "time": 213.87054,
          "velocity": 0.5118110236220472
        },
        {
          "duration": 0.12903199999999515,
          "durationTicks": 160,
          "midi": 58,
          "name": "A#3",
          "ticks": 265200,
          "time": 213.87054,
          "velocity": 0.5118110236220472
        },
        {
          "duration": 0.12903200000002357,
          "durationTicks": 160,
          "midi": 46,
          "name": "A#2",
          "ticks": 265440,
          "time": 214.064088,
          "velocity": 0.5118110236220472
        },
        {
          "duration": 0.12903200000002357,
          "durationTicks": 160,
          "midi": 58,
          "name": "A#3",
          "ticks": 265440,
          "time": 214.064088,
          "velocity": 0.5118110236220472
        },
        {
          "duration": 0.12903200000002357,
          "durationTicks": 160,
          "midi": 46,
          "name": "A#2",
          "ticks": 265680,
          "time": 214.257636,
          "velocity": 0.5118110236220472
        },
        {
          "duration": 0.12903200000002357,
          "durationTicks": 160,
          "midi": 58,
          "name": "A#3",
          "ticks": 265680,
          "time": 214.257636,
          "velocity": 0.5118110236220472
        },
        {
          "duration": 0.12903200000002357,
          "durationTicks": 160,
          "midi": 46,
          "name": "A#2",
          "ticks": 265920,
          "time": 214.45118399999998,
          "velocity": 0.5118110236220472
        },
        {
          "duration": 0.12903200000002357,
          "durationTicks": 160,
          "midi": 58,
          "name": "A#3",
          "ticks": 265920,
          "time": 214.45118399999998,
          "velocity": 0.5118110236220472
        },
        {
          "duration": 0.1370964999999842,
          "durationTicks": 170,
          "midi": 46,
          "name": "A#2",
          "ticks": 266880,
          "time": 215.225376,
          "velocity": 0.47244094488188976
        },
        {
          "duration": 0.1370964999999842,
          "durationTicks": 170,
          "midi": 58,
          "name": "A#3",
          "ticks": 266880,
          "time": 215.225376,
          "velocity": 0.47244094488188976
        },
        {
          "duration": 0.1370964999999842,
          "durationTicks": 170,
          "midi": 46,
          "name": "A#2",
          "ticks": 267360,
          "time": 215.612472,
          "velocity": 0.47244094488188976
        },
        {
          "duration": 0.1370964999999842,
          "durationTicks": 170,
          "midi": 58,
          "name": "A#3",
          "ticks": 267360,
          "time": 215.612472,
          "velocity": 0.47244094488188976
        },
        {
          "duration": 0.1370964999999842,
          "durationTicks": 170,
          "midi": 46,
          "name": "A#2",
          "ticks": 267840,
          "time": 215.999568,
          "velocity": 0.47244094488188976
        },
        {
          "duration": 0.1370964999999842,
          "durationTicks": 170,
          "midi": 58,
          "name": "A#3",
          "ticks": 267840,
          "time": 215.999568,
          "velocity": 0.47244094488188976
        },
        {
          "duration": 0.1370964999999842,
          "durationTicks": 170,
          "midi": 46,
          "name": "A#2",
          "ticks": 268320,
          "time": 216.386664,
          "velocity": 0.47244094488188976
        },
        {
          "duration": 0.1370964999999842,
          "durationTicks": 170,
          "midi": 58,
          "name": "A#3",
          "ticks": 268320,
          "time": 216.386664,
          "velocity": 0.47244094488188976
        },
        {
          "duration": 0.12903199999999515,
          "durationTicks": 160,
          "midi": 46,
          "name": "A#2",
          "ticks": 268800,
          "time": 216.77376,
          "velocity": 0.5118110236220472
        },
        {
          "duration": 0.12903199999999515,
          "durationTicks": 160,
          "midi": 58,
          "name": "A#3",
          "ticks": 268800,
          "time": 216.77376,
          "velocity": 0.5118110236220472
        },
        {
          "duration": 0.12903200000002357,
          "durationTicks": 160,
          "midi": 46,
          "name": "A#2",
          "ticks": 269040,
          "time": 216.967308,
          "velocity": 0.5118110236220472
        },
        {
          "duration": 0.12903200000002357,
          "durationTicks": 160,
          "midi": 58,
          "name": "A#3",
          "ticks": 269040,
          "time": 216.967308,
          "velocity": 0.5118110236220472
        },
        {
          "duration": 0.12903200000002357,
          "durationTicks": 160,
          "midi": 46,
          "name": "A#2",
          "ticks": 269280,
          "time": 217.160856,
          "velocity": 0.5118110236220472
        },
        {
          "duration": 0.12903200000002357,
          "durationTicks": 160,
          "midi": 58,
          "name": "A#3",
          "ticks": 269280,
          "time": 217.160856,
          "velocity": 0.5118110236220472
        },
        {
          "duration": 0.12903200000002357,
          "durationTicks": 160,
          "midi": 46,
          "name": "A#2",
          "ticks": 269520,
          "time": 217.354404,
          "velocity": 0.5118110236220472
        },
        {
          "duration": 0.12903200000002357,
          "durationTicks": 160,
          "midi": 58,
          "name": "A#3",
          "ticks": 269520,
          "time": 217.354404,
          "velocity": 0.5118110236220472
        },
        {
          "duration": 0.12903199999999515,
          "durationTicks": 160,
          "midi": 46,
          "name": "A#2",
          "ticks": 269760,
          "time": 217.547952,
          "velocity": 0.5118110236220472
        },
        {
          "duration": 0.12903199999999515,
          "durationTicks": 160,
          "midi": 58,
          "name": "A#3",
          "ticks": 269760,
          "time": 217.547952,
          "velocity": 0.5118110236220472
        },
        {
          "duration": 0.12903200000002357,
          "durationTicks": 160,
          "midi": 46,
          "name": "A#2",
          "ticks": 270000,
          "time": 217.7415,
          "velocity": 0.5905511811023622
        },
        {
          "duration": 0.12903200000002357,
          "durationTicks": 160,
          "midi": 58,
          "name": "A#3",
          "ticks": 270000,
          "time": 217.7415,
          "velocity": 0.5905511811023622
        },
        {
          "duration": 0.12903200000002357,
          "durationTicks": 160,
          "midi": 51,
          "name": "D#3",
          "ticks": 270240,
          "time": 217.935048,
          "velocity": 0.5905511811023622
        },
        {
          "duration": 0.12903200000002357,
          "durationTicks": 160,
          "midi": 63,
          "name": "D#4",
          "ticks": 270240,
          "time": 217.935048,
          "velocity": 0.5905511811023622
        },
        {
          "duration": 0.12903200000002357,
          "durationTicks": 160,
          "midi": 55,
          "name": "G3",
          "ticks": 270480,
          "time": 218.128596,
          "velocity": 0.5905511811023622
        },
        {
          "duration": 0.12903200000002357,
          "durationTicks": 160,
          "midi": 67,
          "name": "G4",
          "ticks": 270480,
          "time": 218.128596,
          "velocity": 0.5905511811023622
        },
        {
          "duration": 0.23387049999996634,
          "durationTicks": 290,
          "midi": 58,
          "name": "A#3",
          "ticks": 270720,
          "time": 218.322144,
          "velocity": 0.5905511811023622
        },
        {
          "duration": 0.23387049999996634,
          "durationTicks": 290,
          "midi": 70,
          "name": "A#4",
          "ticks": 270720,
          "time": 218.322144,
          "velocity": 0.5905511811023622
        },
        {
          "duration": 0.23387049999999476,
          "durationTicks": 290,
          "midi": 58,
          "name": "A#3",
          "ticks": 272160,
          "time": 219.483432,
          "velocity": 0.5905511811023622
        },
        {
          "duration": 0.23387049999999476,
          "durationTicks": 290,
          "midi": 65,
          "name": "F4",
          "ticks": 272160,
          "time": 219.483432,
          "velocity": 0.5905511811023622
        },
        {
          "duration": 0.23387049999996634,
          "durationTicks": 290,
          "midi": 63,
          "name": "D#4",
          "ticks": 272640,
          "time": 219.870528,
          "velocity": 0.5905511811023622
        },
        {
          "duration": 0.23387049999996634,
          "durationTicks": 290,
          "midi": 67,
          "name": "G4",
          "ticks": 272640,
          "time": 219.870528,
          "velocity": 0.5905511811023622
        },
        {
          "duration": 0.1370964999999842,
          "durationTicks": 170,
          "midi": 58,
          "name": "A#3",
          "ticks": 274080,
          "time": 221.031816,
          "velocity": 0.5905511811023622
        },
        {
          "duration": 0.23387049999999476,
          "durationTicks": 290,
          "midi": 65,
          "name": "F4",
          "ticks": 274080,
          "time": 221.031816,
          "velocity": 0.5905511811023622
        },
        {
          "duration": 0.12903199999999515,
          "durationTicks": 160,
          "midi": 63,
          "name": "D#4",
          "ticks": 274560,
          "time": 221.418912,
          "velocity": 0.5905511811023622
        },
        {
          "duration": 0.12903199999999515,
          "durationTicks": 160,
          "midi": 67,
          "name": "G4",
          "ticks": 274560,
          "time": 221.418912,
          "velocity": 0.5905511811023622
        },
        {
          "duration": 0.12903200000002357,
          "durationTicks": 160,
          "midi": 65,
          "name": "F4",
          "ticks": 274800,
          "time": 221.61246,
          "velocity": 0.8661417322834646
        },
        {
          "duration": 0.12903200000002357,
          "durationTicks": 160,
          "midi": 65,
          "name": "F4",
          "ticks": 274800,
          "time": 221.61246,
          "velocity": 0.8661417322834646
        },
        {
          "duration": 0.12903200000002357,
          "durationTicks": 160,
          "midi": 63,
          "name": "D#4",
          "ticks": 275040,
          "time": 221.806008,
          "velocity": 0.8661417322834646
        },
        {
          "duration": 0.12903200000002357,
          "durationTicks": 160,
          "midi": 63,
          "name": "D#4",
          "ticks": 275040,
          "time": 221.806008,
          "velocity": 0.8661417322834646
        },
        {
          "duration": 0.12903200000002357,
          "durationTicks": 160,
          "midi": 65,
          "name": "F4",
          "ticks": 275280,
          "time": 221.99955599999998,
          "velocity": 0.8661417322834646
        },
        {
          "duration": 0.12903200000002357,
          "durationTicks": 160,
          "midi": 68,
          "name": "G#4",
          "ticks": 275280,
          "time": 221.99955599999998,
          "velocity": 0.8661417322834646
        },
        {
          "duration": 0.12903199999999515,
          "durationTicks": 160,
          "midi": 63,
          "name": "D#4",
          "ticks": 275520,
          "time": 222.193104,
          "velocity": 0.8661417322834646
        },
        {
          "duration": 0.12903199999999515,
          "durationTicks": 160,
          "midi": 67,
          "name": "G4",
          "ticks": 275520,
          "time": 222.193104,
          "velocity": 0.8661417322834646
        },
        {
          "duration": 0.12903200000002357,
          "durationTicks": 160,
          "midi": 58,
          "name": "A#3",
          "ticks": 276000,
          "time": 222.5802,
          "velocity": 0.8661417322834646
        },
        {
          "duration": 0.12903200000002357,
          "durationTicks": 160,
          "midi": 65,
          "name": "F4",
          "ticks": 276000,
          "time": 222.5802,
          "velocity": 0.8661417322834646
        },
        {
          "duration": 0.12903199999999515,
          "durationTicks": 160,
          "midi": 55,
          "name": "G3",
          "ticks": 276480,
          "time": 222.967296,
          "velocity": 0.8661417322834646
        },
        {
          "duration": 0.12903199999999515,
          "durationTicks": 160,
          "midi": 63,
          "name": "D#4",
          "ticks": 276480,
          "time": 222.967296,
          "velocity": 0.8661417322834646
        },
        {
          "duration": 0.12903200000002357,
          "durationTicks": 160,
          "midi": 55,
          "name": "G3",
          "ticks": 276960,
          "time": 223.354392,
          "velocity": 0.8661417322834646
        },
        {
          "duration": 0.12903200000002357,
          "durationTicks": 160,
          "midi": 63,
          "name": "D#4",
          "ticks": 276960,
          "time": 223.354392,
          "velocity": 0.8661417322834646
        },
        {
          "duration": 0.12903199999999515,
          "durationTicks": 160,
          "midi": 55,
          "name": "G3",
          "ticks": 277440,
          "time": 223.741488,
          "velocity": 0.8661417322834646
        },
        {
          "duration": 0.12903199999999515,
          "durationTicks": 160,
          "midi": 63,
          "name": "D#4",
          "ticks": 277440,
          "time": 223.741488,
          "velocity": 0.8661417322834646
        },
        {
          "duration": 0.1370964999999842,
          "durationTicks": 170,
          "midi": 63,
          "name": "D#4",
          "ticks": 278400,
          "time": 224.51568,
          "velocity": 0.4330708661417323
        },
        {
          "duration": 0.1370964999999842,
          "durationTicks": 170,
          "midi": 63,
          "name": "D#4",
          "ticks": 278400,
          "time": 224.51568,
          "velocity": 0.4330708661417323
        },
        {
          "duration": 0.1370964999999842,
          "durationTicks": 170,
          "midi": 63,
          "name": "D#4",
          "ticks": 279840,
          "time": 225.676968,
          "velocity": 0.4330708661417323
        },
        {
          "duration": 0.1370964999999842,
          "durationTicks": 170,
          "midi": 63,
          "name": "D#4",
          "ticks": 279840,
          "time": 225.676968,
          "velocity": 0.4330708661417323
        },
        {
          "duration": 0.1370964999999842,
          "durationTicks": 170,
          "midi": 58,
          "name": "A#3",
          "ticks": 280320,
          "time": 226.064064,
          "velocity": 0.4330708661417323
        },
        {
          "duration": 0.1370964999999842,
          "durationTicks": 170,
          "midi": 65,
          "name": "F4",
          "ticks": 280320,
          "time": 226.064064,
          "velocity": 0.4330708661417323
        },
        {
          "duration": 0.1370964999999842,
          "durationTicks": 170,
          "midi": 58,
          "name": "A#3",
          "ticks": 281520,
          "time": 227.031804,
          "velocity": 0.47244094488188976
        },
        {
          "duration": 0.1370964999999842,
          "durationTicks": 170,
          "midi": 65,
          "name": "F4",
          "ticks": 281520,
          "time": 227.031804,
          "velocity": 0.47244094488188976
        },
        {
          "duration": 0.1370964999999842,
          "durationTicks": 170,
          "midi": 58,
          "name": "A#3",
          "ticks": 281760,
          "time": 227.225352,
          "velocity": 0.47244094488188976
        },
        {
          "duration": 0.1370964999999842,
          "durationTicks": 170,
          "midi": 65,
          "name": "F4",
          "ticks": 281760,
          "time": 227.225352,
          "velocity": 0.47244094488188976
        },
        {
          "duration": 0.1370964999999842,
          "durationTicks": 170,
          "midi": 58,
          "name": "A#3",
          "ticks": 282000,
          "time": 227.4189,
          "velocity": 0.47244094488188976
        },
        {
          "duration": 0.1370964999999842,
          "durationTicks": 170,
          "midi": 65,
          "name": "F4",
          "ticks": 282000,
          "time": 227.4189,
          "velocity": 0.47244094488188976
        },
        {
          "duration": 0.12903200000002357,
          "durationTicks": 160,
          "midi": 63,
          "name": "D#4",
          "ticks": 282240,
          "time": 227.612448,
          "velocity": 0.47244094488188976
        },
        {
          "duration": 0.12903200000002357,
          "durationTicks": 160,
          "midi": 67,
          "name": "G4",
          "ticks": 282240,
          "time": 227.612448,
          "velocity": 0.47244094488188976
        },
        {
          "duration": 0.23387049999999476,
          "durationTicks": 290,
          "midi": 58,
          "name": "A#3",
          "ticks": 290880,
          "time": 234.580176,
          "velocity": 0.47244094488188976
        },
        {
          "duration": 0.23387049999999476,
          "durationTicks": 290,
          "midi": 65,
          "name": "F4",
          "ticks": 290880,
          "time": 234.580176,
          "velocity": 0.47244094488188976
        },
        {
          "duration": 0.23387049999996634,
          "durationTicks": 290,
          "midi": 58,
          "name": "A#3",
          "ticks": 291360,
          "time": 234.967272,
          "velocity": 0.47244094488188976
        },
        {
          "duration": 0.23387049999996634,
          "durationTicks": 290,
          "midi": 65,
          "name": "F4",
          "ticks": 291360,
          "time": 234.967272,
          "velocity": 0.47244094488188976
        },
        {
          "duration": 0.12903200000002357,
          "durationTicks": 160,
          "midi": 55,
          "name": "G3",
          "ticks": 291840,
          "time": 235.354368,
          "velocity": 0.4330708661417323
        },
        {
          "duration": 0.12903200000002357,
          "durationTicks": 160,
          "midi": 63,
          "name": "D#4",
          "ticks": 291840,
          "time": 235.354368,
          "velocity": 0.4330708661417323
        },
        {
          "duration": 0.12903200000002357,
          "durationTicks": 160,
          "midi": 55,
          "name": "G3",
          "ticks": 292080,
          "time": 235.547916,
          "velocity": 0.4330708661417323
        },
        {
          "duration": 0.12903200000002357,
          "durationTicks": 160,
          "midi": 63,
          "name": "D#4",
          "ticks": 292080,
          "time": 235.547916,
          "velocity": 0.4330708661417323
        },
        {
          "duration": 0.12903199999999515,
          "durationTicks": 160,
          "midi": 58,
          "name": "A#3",
          "ticks": 292320,
          "time": 235.741464,
          "velocity": 0.4330708661417323
        },
        {
          "duration": 0.12903199999999515,
          "durationTicks": 160,
          "midi": 67,
          "name": "G4",
          "ticks": 292320,
          "time": 235.741464,
          "velocity": 0.4330708661417323
        },
        {
          "duration": 0.12903200000002357,
          "durationTicks": 160,
          "midi": 58,
          "name": "A#3",
          "ticks": 292560,
          "time": 235.935012,
          "velocity": 0.4330708661417323
        },
        {
          "duration": 0.12903200000002357,
          "durationTicks": 160,
          "midi": 67,
          "name": "G4",
          "ticks": 292560,
          "time": 235.935012,
          "velocity": 0.4330708661417323
        },
        {
          "duration": 0.12903200000002357,
          "durationTicks": 160,
          "midi": 55,
          "name": "G3",
          "ticks": 292800,
          "time": 236.12856,
          "velocity": 0.4330708661417323
        },
        {
          "duration": 0.12903200000002357,
          "durationTicks": 160,
          "midi": 63,
          "name": "D#4",
          "ticks": 292800,
          "time": 236.12856,
          "velocity": 0.4330708661417323
        },
        {
          "duration": 0.23387049999999476,
          "durationTicks": 290,
          "midi": 58,
          "name": "A#3",
          "ticks": 306240,
          "time": 246.96724799999998,
          "velocity": 0.47244094488188976
        },
        {
          "duration": 0.23387049999999476,
          "durationTicks": 290,
          "midi": 65,
          "name": "F4",
          "ticks": 306240,
          "time": 246.96724799999998,
          "velocity": 0.47244094488188976
        },
        {
          "duration": 0.23387049999999476,
          "durationTicks": 290,
          "midi": 58,
          "name": "A#3",
          "ticks": 306720,
          "time": 247.354344,
          "velocity": 0.47244094488188976
        },
        {
          "duration": 0.23387049999999476,
          "durationTicks": 290,
          "midi": 65,
          "name": "F4",
          "ticks": 306720,
          "time": 247.354344,
          "velocity": 0.47244094488188976
        },
        {
          "duration": 0.12903199999999515,
          "durationTicks": 160,
          "midi": 55,
          "name": "G3",
          "ticks": 307200,
          "time": 247.74144,
          "velocity": 0.4330708661417323
        },
        {
          "duration": 0.12903199999999515,
          "durationTicks": 160,
          "midi": 63,
          "name": "D#4",
          "ticks": 307200,
          "time": 247.74144,
          "velocity": 0.4330708661417323
        },
        {
          "duration": 0.12903199999999515,
          "durationTicks": 160,
          "midi": 55,
          "name": "G3",
          "ticks": 307440,
          "time": 247.934988,
          "velocity": 0.4330708661417323
        },
        {
          "duration": 0.12903199999999515,
          "durationTicks": 160,
          "midi": 63,
          "name": "D#4",
          "ticks": 307440,
          "time": 247.934988,
          "velocity": 0.4330708661417323
        },
        {
          "duration": 0.12903200000002357,
          "durationTicks": 160,
          "midi": 58,
          "name": "A#3",
          "ticks": 307680,
          "time": 248.128536,
          "velocity": 0.4330708661417323
        },
        {
          "duration": 0.12903200000002357,
          "durationTicks": 160,
          "midi": 67,
          "name": "G4",
          "ticks": 307680,
          "time": 248.128536,
          "velocity": 0.4330708661417323
        },
        {
          "duration": 0.12903200000002357,
          "durationTicks": 160,
          "midi": 58,
          "name": "A#3",
          "ticks": 307920,
          "time": 248.322084,
          "velocity": 0.4330708661417323
        },
        {
          "duration": 0.12903200000002357,
          "durationTicks": 160,
          "midi": 67,
          "name": "G4",
          "ticks": 307920,
          "time": 248.322084,
          "velocity": 0.4330708661417323
        },
        {
          "duration": 0.12903199999999515,
          "durationTicks": 160,
          "midi": 55,
          "name": "G3",
          "ticks": 308160,
          "time": 248.515632,
          "velocity": 0.4330708661417323
        },
        {
          "duration": 0.12903199999999515,
          "durationTicks": 160,
          "midi": 63,
          "name": "D#4",
          "ticks": 308160,
          "time": 248.515632,
          "velocity": 0.4330708661417323
        },
        {
          "duration": 0.12903199999999515,
          "durationTicks": 160,
          "midi": 58,
          "name": "A#3",
          "ticks": 311040,
          "time": 250.838208,
          "velocity": 0.5118110236220472
        },
        {
          "duration": 0.12903199999999515,
          "durationTicks": 160,
          "midi": 65,
          "name": "F4",
          "ticks": 311040,
          "time": 250.838208,
          "velocity": 0.5118110236220472
        },
        {
          "duration": 0.12903200000002357,
          "durationTicks": 160,
          "midi": 58,
          "name": "A#3",
          "ticks": 311280,
          "time": 251.031756,
          "velocity": 0.5118110236220472
        },
        {
          "duration": 0.12903200000002357,
          "durationTicks": 160,
          "midi": 65,
          "name": "F4",
          "ticks": 311280,
          "time": 251.031756,
          "velocity": 0.5118110236220472
        },
        {
          "duration": 0.12903200000002357,
          "durationTicks": 160,
          "midi": 58,
          "name": "A#3",
          "ticks": 311520,
          "time": 251.225304,
          "velocity": 0.5118110236220472
        },
        {
          "duration": 0.12903200000002357,
          "durationTicks": 160,
          "midi": 65,
          "name": "F4",
          "ticks": 311520,
          "time": 251.225304,
          "velocity": 0.5118110236220472
        },
        {
          "duration": 0.12903200000002357,
          "durationTicks": 160,
          "midi": 58,
          "name": "A#3",
          "ticks": 311760,
          "time": 251.418852,
          "velocity": 0.5118110236220472
        },
        {
          "duration": 0.12903200000002357,
          "durationTicks": 160,
          "midi": 65,
          "name": "F4",
          "ticks": 311760,
          "time": 251.418852,
          "velocity": 0.5118110236220472
        },
        {
          "duration": 0.12903199999999515,
          "durationTicks": 160,
          "midi": 58,
          "name": "A#3",
          "ticks": 312000,
          "time": 251.6124,
          "velocity": 0.5118110236220472
        },
        {
          "duration": 0.12903199999999515,
          "durationTicks": 160,
          "midi": 65,
          "name": "F4",
          "ticks": 312000,
          "time": 251.6124,
          "velocity": 0.5118110236220472
        },
        {
          "duration": 0.12903199999999515,
          "durationTicks": 160,
          "midi": 58,
          "name": "A#3",
          "ticks": 314880,
          "time": 253.934976,
          "velocity": 0.5118110236220472
        },
        {
          "duration": 0.12903199999999515,
          "durationTicks": 160,
          "midi": 65,
          "name": "F4",
          "ticks": 314880,
          "time": 253.934976,
          "velocity": 0.5118110236220472
        },
        {
          "duration": 0.12903200000002357,
          "durationTicks": 160,
          "midi": 58,
          "name": "A#3",
          "ticks": 315120,
          "time": 254.128524,
          "velocity": 0.5118110236220472
        },
        {
          "duration": 0.12903200000002357,
          "durationTicks": 160,
          "midi": 65,
          "name": "F4",
          "ticks": 315120,
          "time": 254.128524,
          "velocity": 0.5118110236220472
        },
        {
          "duration": 0.12903200000002357,
          "durationTicks": 160,
          "midi": 58,
          "name": "A#3",
          "ticks": 315360,
          "time": 254.322072,
          "velocity": 0.5118110236220472
        },
        {
          "duration": 0.12903200000002357,
          "durationTicks": 160,
          "midi": 65,
          "name": "F4",
          "ticks": 315360,
          "time": 254.322072,
          "velocity": 0.5118110236220472
        },
        {
          "duration": 0.12903200000002357,
          "durationTicks": 160,
          "midi": 58,
          "name": "A#3",
          "ticks": 315600,
          "time": 254.51561999999998,
          "velocity": 0.5118110236220472
        },
        {
          "duration": 0.12903200000002357,
          "durationTicks": 160,
          "midi": 65,
          "name": "F4",
          "ticks": 315600,
          "time": 254.51561999999998,
          "velocity": 0.5118110236220472
        },
        {
          "duration": 0.12903199999999515,
          "durationTicks": 160,
          "midi": 58,
          "name": "A#3",
          "ticks": 315840,
          "time": 254.709168,
          "velocity": 0.5118110236220472
        },
        {
          "duration": 0.12903199999999515,
          "durationTicks": 160,
          "midi": 65,
          "name": "F4",
          "ticks": 315840,
          "time": 254.709168,
          "velocity": 0.5118110236220472
        },
        {
          "duration": 0.12903200000002357,
          "durationTicks": 160,
          "midi": 46,
          "name": "A#2",
          "ticks": 316080,
          "time": 254.902716,
          "velocity": 0.5905511811023622
        },
        {
          "duration": 0.12903200000002357,
          "durationTicks": 160,
          "midi": 58,
          "name": "A#3",
          "ticks": 316080,
          "time": 254.902716,
          "velocity": 0.5905511811023622
        },
        {
          "duration": 0.12903200000002357,
          "durationTicks": 160,
          "midi": 51,
          "name": "D#3",
          "ticks": 316320,
          "time": 255.096264,
          "velocity": 0.5905511811023622
        },
        {
          "duration": 0.12903200000002357,
          "durationTicks": 160,
          "midi": 63,
          "name": "D#4",
          "ticks": 316320,
          "time": 255.096264,
          "velocity": 0.5905511811023622
        },
        {
          "duration": 0.12903200000002357,
          "durationTicks": 160,
          "midi": 55,
          "name": "G3",
          "ticks": 316560,
          "time": 255.28981199999998,
          "velocity": 0.5905511811023622
        },
        {
          "duration": 0.12903200000002357,
          "durationTicks": 160,
          "midi": 67,
          "name": "G4",
          "ticks": 316560,
          "time": 255.28981199999998,
          "velocity": 0.5905511811023622
        },
        {
          "duration": 0.23387049999996634,
          "durationTicks": 290,
          "midi": 58,
          "name": "A#3",
          "ticks": 316800,
          "time": 255.48336,
          "velocity": 0.5905511811023622
        },
        {
          "duration": 0.23387049999996634,
          "durationTicks": 290,
          "midi": 70,
          "name": "A#4",
          "ticks": 316800,
          "time": 255.48336,
          "velocity": 0.5905511811023622
        },
        {
          "duration": 0.23387049999996634,
          "durationTicks": 290,
          "midi": 58,
          "name": "A#3",
          "ticks": 318240,
          "time": 256.644648,
          "velocity": 0.5905511811023622
        },
        {
          "duration": 0.23387049999996634,
          "durationTicks": 290,
          "midi": 65,
          "name": "F4",
          "ticks": 318240,
          "time": 256.644648,
          "velocity": 0.5905511811023622
        },
        {
          "duration": 0.23387049999996634,
          "durationTicks": 290,
          "midi": 63,
          "name": "D#4",
          "ticks": 318720,
          "time": 257.031744,
          "velocity": 0.5905511811023622
        },
        {
          "duration": 0.23387049999996634,
          "durationTicks": 290,
          "midi": 67,
          "name": "G4",
          "ticks": 318720,
          "time": 257.031744,
          "velocity": 0.5905511811023622
        },
        {
          "duration": 0.1370964999999842,
          "durationTicks": 170,
          "midi": 58,
          "name": "A#3",
          "ticks": 320160,
          "time": 258.193032,
          "velocity": 0.5905511811023622
        },
        {
          "duration": 0.23387049999996634,
          "durationTicks": 290,
          "midi": 65,
          "name": "F4",
          "ticks": 320160,
          "time": 258.193032,
          "velocity": 0.5905511811023622
        },
        {
          "duration": 0.12903199999999515,
          "durationTicks": 160,
          "midi": 63,
          "name": "D#4",
          "ticks": 320640,
          "time": 258.580128,
          "velocity": 0.5905511811023622
        },
        {
          "duration": 0.12903199999999515,
          "durationTicks": 160,
          "midi": 67,
          "name": "G4",
          "ticks": 320640,
          "time": 258.580128,
          "velocity": 0.5905511811023622
        },
        {
          "duration": 0.12903199999999515,
          "durationTicks": 160,
          "midi": 65,
          "name": "F4",
          "ticks": 320880,
          "time": 258.773676,
          "velocity": 0.8661417322834646
        },
        {
          "duration": 0.12903199999999515,
          "durationTicks": 160,
          "midi": 65,
          "name": "F4",
          "ticks": 320880,
          "time": 258.773676,
          "velocity": 0.8661417322834646
        },
        {
          "duration": 0.129032000000052,
          "durationTicks": 160,
          "midi": 63,
          "name": "D#4",
          "ticks": 321120,
          "time": 258.967224,
          "velocity": 0.8661417322834646
        },
        {
          "duration": 0.129032000000052,
          "durationTicks": 160,
          "midi": 63,
          "name": "D#4",
          "ticks": 321120,
          "time": 258.967224,
          "velocity": 0.8661417322834646
        },
        {
          "duration": 0.12903199999999515,
          "durationTicks": 160,
          "midi": 65,
          "name": "F4",
          "ticks": 321360,
          "time": 259.160772,
          "velocity": 0.8661417322834646
        },
        {
          "duration": 0.12903199999999515,
          "durationTicks": 160,
          "midi": 68,
          "name": "G#4",
          "ticks": 321360,
          "time": 259.160772,
          "velocity": 0.8661417322834646
        },
        {
          "duration": 0.129032000000052,
          "durationTicks": 160,
          "midi": 63,
          "name": "D#4",
          "ticks": 321600,
          "time": 259.35432,
          "velocity": 0.8661417322834646
        },
        {
          "duration": 0.129032000000052,
          "durationTicks": 160,
          "midi": 67,
          "name": "G4",
          "ticks": 321600,
          "time": 259.35432,
          "velocity": 0.8661417322834646
        },
        {
          "duration": 0.12903199999999515,
          "durationTicks": 160,
          "midi": 58,
          "name": "A#3",
          "ticks": 322080,
          "time": 259.741416,
          "velocity": 0.8661417322834646
        },
        {
          "duration": 0.12903199999999515,
          "durationTicks": 160,
          "midi": 65,
          "name": "F4",
          "ticks": 322080,
          "time": 259.741416,
          "velocity": 0.8661417322834646
        },
        {
          "duration": 0.12903199999999515,
          "durationTicks": 160,
          "midi": 55,
          "name": "G3",
          "ticks": 322560,
          "time": 260.128512,
          "velocity": 0.8661417322834646
        },
        {
          "duration": 0.12903199999999515,
          "durationTicks": 160,
          "midi": 63,
          "name": "D#4",
          "ticks": 322560,
          "time": 260.128512,
          "velocity": 0.8661417322834646
        },
        {
          "duration": 0.129032000000052,
          "durationTicks": 160,
          "midi": 55,
          "name": "G3",
          "ticks": 323040,
          "time": 260.515608,
          "velocity": 0.8661417322834646
        },
        {
          "duration": 0.129032000000052,
          "durationTicks": 160,
          "midi": 63,
          "name": "D#4",
          "ticks": 323040,
          "time": 260.515608,
          "velocity": 0.8661417322834646
        },
        {
          "duration": 0.129032000000052,
          "durationTicks": 160,
          "midi": 55,
          "name": "G3",
          "ticks": 323520,
          "time": 260.90270399999997,
          "velocity": 0.8661417322834646
        },
        {
          "duration": 0.129032000000052,
          "durationTicks": 160,
          "midi": 63,
          "name": "D#4",
          "ticks": 323520,
          "time": 260.90270399999997,
          "velocity": 0.8661417322834646
        },
        {
          "duration": 0.23387049999996634,
          "durationTicks": 290,
          "midi": 58,
          "name": "A#3",
          "ticks": 337440,
          "time": 272.128488,
          "velocity": 0.47244094488188976
        },
        {
          "duration": 0.23387049999996634,
          "durationTicks": 290,
          "midi": 65,
          "name": "F4",
          "ticks": 337440,
          "time": 272.128488,
          "velocity": 0.47244094488188976
        },
        {
          "duration": 0.12903199999999515,
          "durationTicks": 160,
          "midi": 55,
          "name": "G3",
          "ticks": 337920,
          "time": 272.515584,
          "velocity": 0.47244094488188976
        },
        {
          "duration": 0.12903199999999515,
          "durationTicks": 160,
          "midi": 63,
          "name": "D#4",
          "ticks": 337920,
          "time": 272.515584,
          "velocity": 0.47244094488188976
        },
        {
          "duration": 0.12903199999999515,
          "durationTicks": 160,
          "midi": 55,
          "name": "G3",
          "ticks": 338160,
          "time": 272.709132,
          "velocity": 0.47244094488188976
        },
        {
          "duration": 0.12903199999999515,
          "durationTicks": 160,
          "midi": 63,
          "name": "D#4",
          "ticks": 338160,
          "time": 272.709132,
          "velocity": 0.47244094488188976
        },
        {
          "duration": 0.129032000000052,
          "durationTicks": 160,
          "midi": 58,
          "name": "A#3",
          "ticks": 338400,
          "time": 272.90268,
          "velocity": 0.47244094488188976
        },
        {
          "duration": 0.129032000000052,
          "durationTicks": 160,
          "midi": 67,
          "name": "G4",
          "ticks": 338400,
          "time": 272.90268,
          "velocity": 0.47244094488188976
        },
        {
          "duration": 0.12903199999999515,
          "durationTicks": 160,
          "midi": 58,
          "name": "A#3",
          "ticks": 338640,
          "time": 273.096228,
          "velocity": 0.47244094488188976
        },
        {
          "duration": 0.12903199999999515,
          "durationTicks": 160,
          "midi": 67,
          "name": "G4",
          "ticks": 338640,
          "time": 273.096228,
          "velocity": 0.47244094488188976
        },
        {
          "duration": 0.12903199999999515,
          "durationTicks": 160,
          "midi": 55,
          "name": "G3",
          "ticks": 338880,
          "time": 273.289776,
          "velocity": 0.47244094488188976
        },
        {
          "duration": 0.12903199999999515,
          "durationTicks": 160,
          "midi": 63,
          "name": "D#4",
          "ticks": 338880,
          "time": 273.289776,
          "velocity": 0.47244094488188976
        },
        {
          "duration": 0.23387049999996634,
          "durationTicks": 290,
          "midi": 58,
          "name": "A#3",
          "ticks": 352800,
          "time": 284.51556,
          "velocity": 0.47244094488188976
        },
        {
          "duration": 0.23387049999996634,
          "durationTicks": 290,
          "midi": 65,
          "name": "F4",
          "ticks": 352800,
          "time": 284.51556,
          "velocity": 0.47244094488188976
        },
        {
          "duration": 0.129032000000052,
          "durationTicks": 160,
          "midi": 55,
          "name": "G3",
          "ticks": 353280,
          "time": 284.902656,
          "velocity": 0.47244094488188976
        },
        {
          "duration": 0.129032000000052,
          "durationTicks": 160,
          "midi": 63,
          "name": "D#4",
          "ticks": 353280,
          "time": 284.902656,
          "velocity": 0.47244094488188976
        },
        {
          "duration": 0.12903199999999515,
          "durationTicks": 160,
          "midi": 55,
          "name": "G3",
          "ticks": 353520,
          "time": 285.096204,
          "velocity": 0.47244094488188976
        },
        {
          "duration": 0.12903199999999515,
          "durationTicks": 160,
          "midi": 63,
          "name": "D#4",
          "ticks": 353520,
          "time": 285.096204,
          "velocity": 0.47244094488188976
        },
        {
          "duration": 0.12903199999999515,
          "durationTicks": 160,
          "midi": 58,
          "name": "A#3",
          "ticks": 353760,
          "time": 285.289752,
          "velocity": 0.47244094488188976
        },
        {
          "duration": 0.12903199999999515,
          "durationTicks": 160,
          "midi": 67,
          "name": "G4",
          "ticks": 353760,
          "time": 285.289752,
          "velocity": 0.47244094488188976
        },
        {
          "duration": 0.129032000000052,
          "durationTicks": 160,
          "midi": 58,
          "name": "A#3",
          "ticks": 354000,
          "time": 285.4833,
          "velocity": 0.47244094488188976
        },
        {
          "duration": 0.129032000000052,
          "durationTicks": 160,
          "midi": 67,
          "name": "G4",
          "ticks": 354000,
          "time": 285.4833,
          "velocity": 0.47244094488188976
        },
        {
          "duration": 0.12903199999999515,
          "durationTicks": 160,
          "midi": 55,
          "name": "G3",
          "ticks": 354240,
          "time": 285.676848,
          "velocity": 0.47244094488188976
        },
        {
          "duration": 0.12903199999999515,
          "durationTicks": 160,
          "midi": 63,
          "name": "D#4",
          "ticks": 354240,
          "time": 285.676848,
          "velocity": 0.47244094488188976
        },
        {
          "duration": 0.129032000000052,
          "durationTicks": 160,
          "midi": 46,
          "name": "A#2",
          "ticks": 355200,
          "time": 286.45104,
          "velocity": 0.5118110236220472
        },
        {
          "duration": 0.129032000000052,
          "durationTicks": 160,
          "midi": 58,
          "name": "A#3",
          "ticks": 355200,
          "time": 286.45104,
          "velocity": 0.5118110236220472
        },
        {
          "duration": 0.12903199999999515,
          "durationTicks": 160,
          "midi": 46,
          "name": "A#2",
          "ticks": 355440,
          "time": 286.644588,
          "velocity": 0.5118110236220472
        },
        {
          "duration": 0.12903199999999515,
          "durationTicks": 160,
          "midi": 58,
          "name": "A#3",
          "ticks": 355440,
          "time": 286.644588,
          "velocity": 0.5118110236220472
        },
        {
          "duration": 0.12903199999999515,
          "durationTicks": 160,
          "midi": 46,
          "name": "A#2",
          "ticks": 355680,
          "time": 286.838136,
          "velocity": 0.5118110236220472
        },
        {
          "duration": 0.12903199999999515,
          "durationTicks": 160,
          "midi": 58,
          "name": "A#3",
          "ticks": 355680,
          "time": 286.838136,
          "velocity": 0.5118110236220472
        },
        {
          "duration": 0.129032000000052,
          "durationTicks": 160,
          "midi": 46,
          "name": "A#2",
          "ticks": 355920,
          "time": 287.031684,
          "velocity": 0.5118110236220472
        },
        {
          "duration": 0.129032000000052,
          "durationTicks": 160,
          "midi": 58,
          "name": "A#3",
          "ticks": 355920,
          "time": 287.031684,
          "velocity": 0.5118110236220472
        },
        {
          "duration": 0.12903199999999515,
          "durationTicks": 160,
          "midi": 46,
          "name": "A#2",
          "ticks": 356160,
          "time": 287.225232,
          "velocity": 0.5118110236220472
        },
        {
          "duration": 0.12903199999999515,
          "durationTicks": 160,
          "midi": 58,
          "name": "A#3",
          "ticks": 356160,
          "time": 287.225232,
          "velocity": 0.5118110236220472
        },
        {
          "duration": 0.129032000000052,
          "durationTicks": 160,
          "midi": 46,
          "name": "A#2",
          "ticks": 356400,
          "time": 287.41877999999997,
          "velocity": 0.5118110236220472
        },
        {
          "duration": 0.129032000000052,
          "durationTicks": 160,
          "midi": 58,
          "name": "A#3",
          "ticks": 356400,
          "time": 287.41877999999997,
          "velocity": 0.5118110236220472
        },
        {
          "duration": 0.12903199999999515,
          "durationTicks": 160,
          "midi": 46,
          "name": "A#2",
          "ticks": 356640,
          "time": 287.612328,
          "velocity": 0.5118110236220472
        },
        {
          "duration": 0.12903199999999515,
          "durationTicks": 160,
          "midi": 58,
          "name": "A#3",
          "ticks": 356640,
          "time": 287.612328,
          "velocity": 0.5118110236220472
        },
        {
          "duration": 0.12903199999999515,
          "durationTicks": 160,
          "midi": 46,
          "name": "A#2",
          "ticks": 356880,
          "time": 287.805876,
          "velocity": 0.5118110236220472
        },
        {
          "duration": 0.12903199999999515,
          "durationTicks": 160,
          "midi": 58,
          "name": "A#3",
          "ticks": 356880,
          "time": 287.805876,
          "velocity": 0.5118110236220472
        },
        {
          "duration": 0.129032000000052,
          "durationTicks": 160,
          "midi": 46,
          "name": "A#2",
          "ticks": 357120,
          "time": 287.999424,
          "velocity": 0.5118110236220472
        },
        {
          "duration": 0.129032000000052,
          "durationTicks": 160,
          "midi": 58,
          "name": "A#3",
          "ticks": 357120,
          "time": 287.999424,
          "velocity": 0.5118110236220472
        },
        {
          "duration": 0.12903199999999515,
          "durationTicks": 160,
          "midi": 46,
          "name": "A#2",
          "ticks": 357360,
          "time": 288.192972,
          "velocity": 0.5118110236220472
        },
        {
          "duration": 0.12903199999999515,
          "durationTicks": 160,
          "midi": 58,
          "name": "A#3",
          "ticks": 357360,
          "time": 288.192972,
          "velocity": 0.5118110236220472
        },
        {
          "duration": 0.12903199999999515,
          "durationTicks": 160,
          "midi": 46,
          "name": "A#2",
          "ticks": 357600,
          "time": 288.38652,
          "velocity": 0.5118110236220472
        },
        {
          "duration": 0.12903199999999515,
          "durationTicks": 160,
          "midi": 58,
          "name": "A#3",
          "ticks": 357600,
          "time": 288.38652,
          "velocity": 0.5118110236220472
        },
        {
          "duration": 0.129032000000052,
          "durationTicks": 160,
          "midi": 46,
          "name": "A#2",
          "ticks": 357840,
          "time": 288.580068,
          "velocity": 0.5118110236220472
        },
        {
          "duration": 0.129032000000052,
          "durationTicks": 160,
          "midi": 58,
          "name": "A#3",
          "ticks": 357840,
          "time": 288.580068,
          "velocity": 0.5118110236220472
        },
        {
          "duration": 0.12903199999999515,
          "durationTicks": 160,
          "midi": 46,
          "name": "A#2",
          "ticks": 358080,
          "time": 288.773616,
          "velocity": 0.5118110236220472
        },
        {
          "duration": 0.12903199999999515,
          "durationTicks": 160,
          "midi": 58,
          "name": "A#3",
          "ticks": 358080,
          "time": 288.773616,
          "velocity": 0.5118110236220472
        },
        {
          "duration": 0.129032000000052,
          "durationTicks": 160,
          "midi": 46,
          "name": "A#2",
          "ticks": 359040,
          "time": 289.547808,
          "velocity": 0.5118110236220472
        },
        {
          "duration": 0.129032000000052,
          "durationTicks": 160,
          "midi": 58,
          "name": "A#3",
          "ticks": 359040,
          "time": 289.547808,
          "velocity": 0.5118110236220472
        },
        {
          "duration": 0.12903199999999515,
          "durationTicks": 160,
          "midi": 46,
          "name": "A#2",
          "ticks": 359280,
          "time": 289.741356,
          "velocity": 0.5118110236220472
        },
        {
          "duration": 0.12903199999999515,
          "durationTicks": 160,
          "midi": 58,
          "name": "A#3",
          "ticks": 359280,
          "time": 289.741356,
          "velocity": 0.5118110236220472
        },
        {
          "duration": 0.12903199999999515,
          "durationTicks": 160,
          "midi": 46,
          "name": "A#2",
          "ticks": 359520,
          "time": 289.934904,
          "velocity": 0.5118110236220472
        },
        {
          "duration": 0.12903199999999515,
          "durationTicks": 160,
          "midi": 58,
          "name": "A#3",
          "ticks": 359520,
          "time": 289.934904,
          "velocity": 0.5118110236220472
        },
        {
          "duration": 0.129032000000052,
          "durationTicks": 160,
          "midi": 46,
          "name": "A#2",
          "ticks": 359760,
          "time": 290.128452,
          "velocity": 0.5118110236220472
        },
        {
          "duration": 0.129032000000052,
          "durationTicks": 160,
          "midi": 58,
          "name": "A#3",
          "ticks": 359760,
          "time": 290.128452,
          "velocity": 0.5118110236220472
        },
        {
          "duration": 0.12903199999999515,
          "durationTicks": 160,
          "midi": 46,
          "name": "A#2",
          "ticks": 360000,
          "time": 290.322,
          "velocity": 0.5118110236220472
        },
        {
          "duration": 0.12903199999999515,
          "durationTicks": 160,
          "midi": 58,
          "name": "A#3",
          "ticks": 360000,
          "time": 290.322,
          "velocity": 0.5118110236220472
        },
        {
          "duration": 0.12903199999999515,
          "durationTicks": 160,
          "midi": 46,
          "name": "A#2",
          "ticks": 360240,
          "time": 290.515548,
          "velocity": 0.5118110236220472
        },
        {
          "duration": 0.12903199999999515,
          "durationTicks": 160,
          "midi": 58,
          "name": "A#3",
          "ticks": 360240,
          "time": 290.515548,
          "velocity": 0.5118110236220472
        },
        {
          "duration": 0.12903199999999515,
          "durationTicks": 160,
          "midi": 46,
          "name": "A#2",
          "ticks": 360480,
          "time": 290.709096,
          "velocity": 0.5118110236220472
        },
        {
          "duration": 0.12903199999999515,
          "durationTicks": 160,
          "midi": 58,
          "name": "A#3",
          "ticks": 360480,
          "time": 290.709096,
          "velocity": 0.5118110236220472
        },
        {
          "duration": 0.12903199999999515,
          "durationTicks": 160,
          "midi": 46,
          "name": "A#2",
          "ticks": 360720,
          "time": 290.902644,
          "velocity": 0.5118110236220472
        },
        {
          "duration": 0.12903199999999515,
          "durationTicks": 160,
          "midi": 58,
          "name": "A#3",
          "ticks": 360720,
          "time": 290.902644,
          "velocity": 0.5118110236220472
        },
        {
          "duration": 0.129032000000052,
          "durationTicks": 160,
          "midi": 46,
          "name": "A#2",
          "ticks": 360960,
          "time": 291.096192,
          "velocity": 0.5118110236220472
        },
        {
          "duration": 0.129032000000052,
          "durationTicks": 160,
          "midi": 58,
          "name": "A#3",
          "ticks": 360960,
          "time": 291.096192,
          "velocity": 0.5118110236220472
        },
        {
          "duration": 0.12903199999999515,
          "durationTicks": 160,
          "midi": 46,
          "name": "A#2",
          "ticks": 361200,
          "time": 291.28974,
          "velocity": 0.5118110236220472
        },
        {
          "duration": 0.12903199999999515,
          "durationTicks": 160,
          "midi": 58,
          "name": "A#3",
          "ticks": 361200,
          "time": 291.28974,
          "velocity": 0.5118110236220472
        },
        {
          "duration": 0.12903199999999515,
          "durationTicks": 160,
          "midi": 46,
          "name": "A#2",
          "ticks": 361440,
          "time": 291.483288,
          "velocity": 0.5118110236220472
        },
        {
          "duration": 0.12903199999999515,
          "durationTicks": 160,
          "midi": 58,
          "name": "A#3",
          "ticks": 361440,
          "time": 291.483288,
          "velocity": 0.5118110236220472
        },
        {
          "duration": 0.129032000000052,
          "durationTicks": 160,
          "midi": 46,
          "name": "A#2",
          "ticks": 361680,
          "time": 291.676836,
          "velocity": 0.5118110236220472
        },
        {
          "duration": 0.129032000000052,
          "durationTicks": 160,
          "midi": 58,
          "name": "A#3",
          "ticks": 361680,
          "time": 291.676836,
          "velocity": 0.5118110236220472
        },
        {
          "duration": 0.12903199999999515,
          "durationTicks": 160,
          "midi": 46,
          "name": "A#2",
          "ticks": 361920,
          "time": 291.870384,
          "velocity": 0.5118110236220472
        },
        {
          "duration": 0.12903199999999515,
          "durationTicks": 160,
          "midi": 58,
          "name": "A#3",
          "ticks": 361920,
          "time": 291.870384,
          "velocity": 0.5118110236220472
        },
        {
          "duration": 0.12903199999999515,
          "durationTicks": 160,
          "midi": 46,
          "name": "A#2",
          "ticks": 362160,
          "time": 292.063932,
          "velocity": 0.5905511811023622
        },
        {
          "duration": 0.12903199999999515,
          "durationTicks": 160,
          "midi": 58,
          "name": "A#3",
          "ticks": 362160,
          "time": 292.063932,
          "velocity": 0.5905511811023622
        },
        {
          "duration": 0.129032000000052,
          "durationTicks": 160,
          "midi": 51,
          "name": "D#3",
          "ticks": 362400,
          "time": 292.25748,
          "velocity": 0.5905511811023622
        },
        {
          "duration": 0.129032000000052,
          "durationTicks": 160,
          "midi": 63,
          "name": "D#4",
          "ticks": 362400,
          "time": 292.25748,
          "velocity": 0.5905511811023622
        },
        {
          "duration": 0.12903199999999515,
          "durationTicks": 160,
          "midi": 55,
          "name": "G3",
          "ticks": 362640,
          "time": 292.451028,
          "velocity": 0.5905511811023622
        },
        {
          "duration": 0.12903199999999515,
          "durationTicks": 160,
          "midi": 67,
          "name": "G4",
          "ticks": 362640,
          "time": 292.451028,
          "velocity": 0.5905511811023622
        },
        {
          "duration": 0.23387050000002318,
          "durationTicks": 290,
          "midi": 58,
          "name": "A#3",
          "ticks": 362880,
          "time": 292.644576,
          "velocity": 0.5905511811023622
        },
        {
          "duration": 0.23387050000002318,
          "durationTicks": 290,
          "midi": 70,
          "name": "A#4",
          "ticks": 362880,
          "time": 292.644576,
          "velocity": 0.5905511811023622
        },
        {
          "duration": 0.23387050000002318,
          "durationTicks": 290,
          "midi": 58,
          "name": "A#3",
          "ticks": 364320,
          "time": 293.805864,
          "velocity": 0.5905511811023622
        },
        {
          "duration": 0.23387050000002318,
          "durationTicks": 290,
          "midi": 65,
          "name": "F4",
          "ticks": 364320,
          "time": 293.805864,
          "velocity": 0.5905511811023622
        },
        {
          "duration": 0.23387050000002318,
          "durationTicks": 290,
          "midi": 63,
          "name": "D#4",
          "ticks": 364800,
          "time": 294.19295999999997,
          "velocity": 0.5905511811023622
        },
        {
          "duration": 0.23387050000002318,
          "durationTicks": 290,
          "midi": 67,
          "name": "G4",
          "ticks": 364800,
          "time": 294.19295999999997,
          "velocity": 0.5905511811023622
        },
        {
          "duration": 0.1370964999999842,
          "durationTicks": 170,
          "midi": 58,
          "name": "A#3",
          "ticks": 366240,
          "time": 295.354248,
          "velocity": 0.5905511811023622
        },
        {
          "duration": 0.23387050000002318,
          "durationTicks": 290,
          "midi": 65,
          "name": "F4",
          "ticks": 366240,
          "time": 295.354248,
          "velocity": 0.5905511811023622
        },
        {
          "duration": 0.129032000000052,
          "durationTicks": 160,
          "midi": 63,
          "name": "D#4",
          "ticks": 366720,
          "time": 295.74134399999997,
          "velocity": 0.5905511811023622
        },
        {
          "duration": 0.129032000000052,
          "durationTicks": 160,
          "midi": 67,
          "name": "G4",
          "ticks": 366720,
          "time": 295.74134399999997,
          "velocity": 0.5905511811023622
        },
        {
          "duration": 0.12903199999999515,
          "durationTicks": 160,
          "midi": 65,
          "name": "F4",
          "ticks": 366960,
          "time": 295.934892,
          "velocity": 0.8661417322834646
        },
        {
          "duration": 0.12903199999999515,
          "durationTicks": 160,
          "midi": 65,
          "name": "F4",
          "ticks": 366960,
          "time": 295.934892,
          "velocity": 0.8661417322834646
        },
        {
          "duration": 0.12903199999999515,
          "durationTicks": 160,
          "midi": 63,
          "name": "D#4",
          "ticks": 367200,
          "time": 296.12844,
          "velocity": 0.8661417322834646
        },
        {
          "duration": 0.12903199999999515,
          "durationTicks": 160,
          "midi": 63,
          "name": "D#4",
          "ticks": 367200,
          "time": 296.12844,
          "velocity": 0.8661417322834646
        },
        {
          "duration": 0.129032000000052,
          "durationTicks": 160,
          "midi": 65,
          "name": "F4",
          "ticks": 367440,
          "time": 296.321988,
          "velocity": 0.8661417322834646
        },
        {
          "duration": 0.129032000000052,
          "durationTicks": 160,
          "midi": 68,
          "name": "G#4",
          "ticks": 367440,
          "time": 296.321988,
          "velocity": 0.8661417322834646
        },
        {
          "duration": 0.12903199999999515,
          "durationTicks": 160,
          "midi": 63,
          "name": "D#4",
          "ticks": 367680,
          "time": 296.515536,
          "velocity": 0.8661417322834646
        },
        {
          "duration": 0.12903199999999515,
          "durationTicks": 160,
          "midi": 67,
          "name": "G4",
          "ticks": 367680,
          "time": 296.515536,
          "velocity": 0.8661417322834646
        },
        {
          "duration": 0.129032000000052,
          "durationTicks": 160,
          "midi": 58,
          "name": "A#3",
          "ticks": 368160,
          "time": 296.902632,
          "velocity": 0.8661417322834646
        },
        {
          "duration": 0.129032000000052,
          "durationTicks": 160,
          "midi": 65,
          "name": "F4",
          "ticks": 368160,
          "time": 296.902632,
          "velocity": 0.8661417322834646
        },
        {
          "duration": 0.129032000000052,
          "durationTicks": 160,
          "midi": 55,
          "name": "G3",
          "ticks": 368640,
          "time": 297.28972799999997,
          "velocity": 0.8661417322834646
        },
        {
          "duration": 0.129032000000052,
          "durationTicks": 160,
          "midi": 63,
          "name": "D#4",
          "ticks": 368640,
          "time": 297.28972799999997,
          "velocity": 0.8661417322834646
        },
        {
          "duration": 0.12903199999999515,
          "durationTicks": 160,
          "midi": 55,
          "name": "G3",
          "ticks": 369120,
          "time": 297.676824,
          "velocity": 0.8661417322834646
        },
        {
          "duration": 0.12903199999999515,
          "durationTicks": 160,
          "midi": 63,
          "name": "D#4",
          "ticks": 369120,
          "time": 297.676824,
          "velocity": 0.8661417322834646
        },
        {
          "duration": 0.12903199999999515,
          "durationTicks": 160,
          "midi": 55,
          "name": "G3",
          "ticks": 369600,
          "time": 298.06392,
          "velocity": 0.8661417322834646
        },
        {
          "duration": 0.12903199999999515,
          "durationTicks": 160,
          "midi": 63,
          "name": "D#4",
          "ticks": 369600,
          "time": 298.06392,
          "velocity": 0.8661417322834646
        },
        {
          "duration": 0.12903199999999515,
          "durationTicks": 160,
          "midi": 46,
          "name": "A#2",
          "ticks": 401280,
          "time": 323.612256,
          "velocity": 0.5118110236220472
        },
        {
          "duration": 0.12903199999999515,
          "durationTicks": 160,
          "midi": 58,
          "name": "A#3",
          "ticks": 401280,
          "time": 323.612256,
          "velocity": 0.5118110236220472
        },
        {
          "duration": 0.12903199999999515,
          "durationTicks": 160,
          "midi": 46,
          "name": "A#2",
          "ticks": 401520,
          "time": 323.805804,
          "velocity": 0.5118110236220472
        },
        {
          "duration": 0.12903199999999515,
          "durationTicks": 160,
          "midi": 58,
          "name": "A#3",
          "ticks": 401520,
          "time": 323.805804,
          "velocity": 0.5118110236220472
        },
        {
          "duration": 0.12903199999999515,
          "durationTicks": 160,
          "midi": 46,
          "name": "A#2",
          "ticks": 401760,
          "time": 323.999352,
          "velocity": 0.5118110236220472
        },
        {
          "duration": 0.12903199999999515,
          "durationTicks": 160,
          "midi": 58,
          "name": "A#3",
          "ticks": 401760,
          "time": 323.999352,
          "velocity": 0.5118110236220472
        },
        {
          "duration": 0.12903199999999515,
          "durationTicks": 160,
          "midi": 46,
          "name": "A#2",
          "ticks": 402000,
          "time": 324.1929,
          "velocity": 0.5118110236220472
        },
        {
          "duration": 0.12903199999999515,
          "durationTicks": 160,
          "midi": 58,
          "name": "A#3",
          "ticks": 402000,
          "time": 324.1929,
          "velocity": 0.5118110236220472
        },
        {
          "duration": 0.129032000000052,
          "durationTicks": 160,
          "midi": 46,
          "name": "A#2",
          "ticks": 402240,
          "time": 324.386448,
          "velocity": 0.5118110236220472
        },
        {
          "duration": 0.129032000000052,
          "durationTicks": 160,
          "midi": 58,
          "name": "A#3",
          "ticks": 402240,
          "time": 324.386448,
          "velocity": 0.5118110236220472
        },
        {
          "duration": 0.12903199999999515,
          "durationTicks": 160,
          "midi": 46,
          "name": "A#2",
          "ticks": 402480,
          "time": 324.579996,
          "velocity": 0.5118110236220472
        },
        {
          "duration": 0.12903199999999515,
          "durationTicks": 160,
          "midi": 58,
          "name": "A#3",
          "ticks": 402480,
          "time": 324.579996,
          "velocity": 0.5118110236220472
        },
        {
          "duration": 0.12903199999999515,
          "durationTicks": 160,
          "midi": 46,
          "name": "A#2",
          "ticks": 402720,
          "time": 324.773544,
          "velocity": 0.5118110236220472
        },
        {
          "duration": 0.12903199999999515,
          "durationTicks": 160,
          "midi": 58,
          "name": "A#3",
          "ticks": 402720,
          "time": 324.773544,
          "velocity": 0.5118110236220472
        },
        {
          "duration": 0.129032000000052,
          "durationTicks": 160,
          "midi": 46,
          "name": "A#2",
          "ticks": 402960,
          "time": 324.967092,
          "velocity": 0.5118110236220472
        },
        {
          "duration": 0.129032000000052,
          "durationTicks": 160,
          "midi": 58,
          "name": "A#3",
          "ticks": 402960,
          "time": 324.967092,
          "velocity": 0.5118110236220472
        },
        {
          "duration": 0.12903199999999515,
          "durationTicks": 160,
          "midi": 46,
          "name": "A#2",
          "ticks": 403200,
          "time": 325.16064,
          "velocity": 0.5118110236220472
        },
        {
          "duration": 0.12903199999999515,
          "durationTicks": 160,
          "midi": 58,
          "name": "A#3",
          "ticks": 403200,
          "time": 325.16064,
          "velocity": 0.5118110236220472
        },
        {
          "duration": 0.12903199999999515,
          "durationTicks": 160,
          "midi": 46,
          "name": "A#2",
          "ticks": 403440,
          "time": 325.354188,
          "velocity": 0.5118110236220472
        },
        {
          "duration": 0.12903199999999515,
          "durationTicks": 160,
          "midi": 58,
          "name": "A#3",
          "ticks": 403440,
          "time": 325.354188,
          "velocity": 0.5118110236220472
        },
        {
          "duration": 0.129032000000052,
          "durationTicks": 160,
          "midi": 46,
          "name": "A#2",
          "ticks": 403680,
          "time": 325.547736,
          "velocity": 0.5118110236220472
        },
        {
          "duration": 0.129032000000052,
          "durationTicks": 160,
          "midi": 58,
          "name": "A#3",
          "ticks": 403680,
          "time": 325.547736,
          "velocity": 0.5118110236220472
        },
        {
          "duration": 0.12903199999999515,
          "durationTicks": 160,
          "midi": 46,
          "name": "A#2",
          "ticks": 403920,
          "time": 325.741284,
          "velocity": 0.5118110236220472
        },
        {
          "duration": 0.12903199999999515,
          "durationTicks": 160,
          "midi": 58,
          "name": "A#3",
          "ticks": 403920,
          "time": 325.741284,
          "velocity": 0.5118110236220472
        },
        {
          "duration": 0.129032000000052,
          "durationTicks": 160,
          "midi": 46,
          "name": "A#2",
          "ticks": 404160,
          "time": 325.934832,
          "velocity": 0.5118110236220472
        },
        {
          "duration": 0.129032000000052,
          "durationTicks": 160,
          "midi": 58,
          "name": "A#3",
          "ticks": 404160,
          "time": 325.934832,
          "velocity": 0.5118110236220472
        },
        {
          "duration": 0.12903199999999515,
          "durationTicks": 160,
          "midi": 46,
          "name": "A#2",
          "ticks": 405120,
          "time": 326.709024,
          "velocity": 0.5118110236220472
        },
        {
          "duration": 0.12903199999999515,
          "durationTicks": 160,
          "midi": 58,
          "name": "A#3",
          "ticks": 405120,
          "time": 326.709024,
          "velocity": 0.5118110236220472
        },
        {
          "duration": 0.12903199999999515,
          "durationTicks": 160,
          "midi": 46,
          "name": "A#2",
          "ticks": 405360,
          "time": 326.902572,
          "velocity": 0.5118110236220472
        },
        {
          "duration": 0.12903199999999515,
          "durationTicks": 160,
          "midi": 58,
          "name": "A#3",
          "ticks": 405360,
          "time": 326.902572,
          "velocity": 0.5118110236220472
        },
        {
          "duration": 0.129032000000052,
          "durationTicks": 160,
          "midi": 46,
          "name": "A#2",
          "ticks": 405600,
          "time": 327.09612,
          "velocity": 0.5118110236220472
        },
        {
          "duration": 0.129032000000052,
          "durationTicks": 160,
          "midi": 58,
          "name": "A#3",
          "ticks": 405600,
          "time": 327.09612,
          "velocity": 0.5118110236220472
        },
        {
          "duration": 0.12903199999999515,
          "durationTicks": 160,
          "midi": 46,
          "name": "A#2",
          "ticks": 405840,
          "time": 327.289668,
          "velocity": 0.5118110236220472
        },
        {
          "duration": 0.12903199999999515,
          "durationTicks": 160,
          "midi": 58,
          "name": "A#3",
          "ticks": 405840,
          "time": 327.289668,
          "velocity": 0.5118110236220472
        },
        {
          "duration": 0.129032000000052,
          "durationTicks": 160,
          "midi": 46,
          "name": "A#2",
          "ticks": 406080,
          "time": 327.48321599999997,
          "velocity": 0.5118110236220472
        },
        {
          "duration": 0.129032000000052,
          "durationTicks": 160,
          "midi": 58,
          "name": "A#3",
          "ticks": 406080,
          "time": 327.48321599999997,
          "velocity": 0.5118110236220472
        },
        {
          "duration": 0.12903199999999515,
          "durationTicks": 160,
          "midi": 46,
          "name": "A#2",
          "ticks": 406320,
          "time": 327.676764,
          "velocity": 0.5118110236220472
        },
        {
          "duration": 0.12903199999999515,
          "durationTicks": 160,
          "midi": 58,
          "name": "A#3",
          "ticks": 406320,
          "time": 327.676764,
          "velocity": 0.5118110236220472
        },
        {
          "duration": 0.12903199999999515,
          "durationTicks": 160,
          "midi": 46,
          "name": "A#2",
          "ticks": 406560,
          "time": 327.870312,
          "velocity": 0.5118110236220472
        },
        {
          "duration": 0.12903199999999515,
          "durationTicks": 160,
          "midi": 58,
          "name": "A#3",
          "ticks": 406560,
          "time": 327.870312,
          "velocity": 0.5118110236220472
        },
        {
          "duration": 0.129032000000052,
          "durationTicks": 160,
          "midi": 46,
          "name": "A#2",
          "ticks": 406800,
          "time": 328.06386,
          "velocity": 0.5118110236220472
        },
        {
          "duration": 0.129032000000052,
          "durationTicks": 160,
          "midi": 58,
          "name": "A#3",
          "ticks": 406800,
          "time": 328.06386,
          "velocity": 0.5118110236220472
        },
        {
          "duration": 0.12903199999999515,
          "durationTicks": 160,
          "midi": 46,
          "name": "A#2",
          "ticks": 407040,
          "time": 328.257408,
          "velocity": 0.5118110236220472
        },
        {
          "duration": 0.12903199999999515,
          "durationTicks": 160,
          "midi": 58,
          "name": "A#3",
          "ticks": 407040,
          "time": 328.257408,
          "velocity": 0.5118110236220472
        },
        {
          "duration": 0.12903199999999515,
          "durationTicks": 160,
          "midi": 46,
          "name": "A#2",
          "ticks": 407280,
          "time": 328.450956,
          "velocity": 0.5118110236220472
        },
        {
          "duration": 0.12903199999999515,
          "durationTicks": 160,
          "midi": 58,
          "name": "A#3",
          "ticks": 407280,
          "time": 328.450956,
          "velocity": 0.5118110236220472
        },
        {
          "duration": 0.129032000000052,
          "durationTicks": 160,
          "midi": 46,
          "name": "A#2",
          "ticks": 407520,
          "time": 328.644504,
          "velocity": 0.5118110236220472
        },
        {
          "duration": 0.129032000000052,
          "durationTicks": 160,
          "midi": 58,
          "name": "A#3",
          "ticks": 407520,
          "time": 328.644504,
          "velocity": 0.5118110236220472
        },
        {
          "duration": 0.12903199999999515,
          "durationTicks": 160,
          "midi": 46,
          "name": "A#2",
          "ticks": 407760,
          "time": 328.838052,
          "velocity": 0.5118110236220472
        },
        {
          "duration": 0.12903199999999515,
          "durationTicks": 160,
          "midi": 58,
          "name": "A#3",
          "ticks": 407760,
          "time": 328.838052,
          "velocity": 0.5118110236220472
        },
        {
          "duration": 0.129032000000052,
          "durationTicks": 160,
          "midi": 46,
          "name": "A#2",
          "ticks": 408000,
          "time": 329.03159999999997,
          "velocity": 0.5118110236220472
        },
        {
          "duration": 0.129032000000052,
          "durationTicks": 160,
          "midi": 58,
          "name": "A#3",
          "ticks": 408000,
          "time": 329.03159999999997,
          "velocity": 0.5118110236220472
        },
        {
          "duration": 0.12903199999999515,
          "durationTicks": 160,
          "midi": 46,
          "name": "A#2",
          "ticks": 408240,
          "time": 329.225148,
          "velocity": 0.5905511811023622
        },
        {
          "duration": 0.12903199999999515,
          "durationTicks": 160,
          "midi": 58,
          "name": "A#3",
          "ticks": 408240,
          "time": 329.225148,
          "velocity": 0.5905511811023622
        },
        {
          "duration": 0.12903199999999515,
          "durationTicks": 160,
          "midi": 51,
          "name": "D#3",
          "ticks": 408480,
          "time": 329.418696,
          "velocity": 0.5905511811023622
        },
        {
          "duration": 0.12903199999999515,
          "durationTicks": 160,
          "midi": 63,
          "name": "D#4",
          "ticks": 408480,
          "time": 329.418696,
          "velocity": 0.5905511811023622
        },
        {
          "duration": 0.129032000000052,
          "durationTicks": 160,
          "midi": 55,
          "name": "G3",
          "ticks": 408720,
          "time": 329.612244,
          "velocity": 0.5905511811023622
        },
        {
          "duration": 0.129032000000052,
          "durationTicks": 160,
          "midi": 67,
          "name": "G4",
          "ticks": 408720,
          "time": 329.612244,
          "velocity": 0.5905511811023622
        },
        {
          "duration": 0.23387049999996634,
          "durationTicks": 290,
          "midi": 58,
          "name": "A#3",
          "ticks": 408960,
          "time": 329.805792,
          "velocity": 0.5905511811023622
        },
        {
          "duration": 0.23387049999996634,
          "durationTicks": 290,
          "midi": 70,
          "name": "A#4",
          "ticks": 408960,
          "time": 329.805792,
          "velocity": 0.5905511811023622
        },
        {
          "duration": 0.129032000000052,
          "durationTicks": 160,
          "midi": 55,
          "name": "G3",
          "ticks": 409440,
          "time": 330.192888,
          "velocity": 0.5905511811023622
        },
        {
          "duration": 0.129032000000052,
          "durationTicks": 160,
          "midi": 63,
          "name": "D#4",
          "ticks": 409440,
          "time": 330.192888,
          "velocity": 0.5905511811023622
        },
        {
          "duration": 0.048386999999991076,
          "durationTicks": 60,
          "midi": 55,
          "name": "G3",
          "ticks": 409800,
          "time": 330.48321,
          "velocity": 0.5905511811023622
        },
        {
          "duration": 0.09354819999998654,
          "durationTicks": 116,
          "midi": 63,
          "name": "D#4",
          "ticks": 409800,
          "time": 330.48321,
          "velocity": 0.5905511811023622
        },
        {
          "duration": 0.23387049999996634,
          "durationTicks": 290,
          "midi": 58,
          "name": "A#3",
          "ticks": 409920,
          "time": 330.579984,
          "velocity": 0.5905511811023622
        },
        {
          "duration": 0.23387049999996634,
          "durationTicks": 290,
          "midi": 65,
          "name": "F4",
          "ticks": 409920,
          "time": 330.579984,
          "velocity": 0.5905511811023622
        },
        {
          "duration": 0.23387049999996634,
          "durationTicks": 290,
          "midi": 58,
          "name": "A#3",
          "ticks": 410400,
          "time": 330.96708,
          "velocity": 0.5905511811023622
        },
        {
          "duration": 0.23387049999996634,
          "durationTicks": 290,
          "midi": 65,
          "name": "F4",
          "ticks": 410400,
          "time": 330.96708,
          "velocity": 0.5905511811023622
        },
        {
          "duration": 0.23387049999996634,
          "durationTicks": 290,
          "midi": 63,
          "name": "D#4",
          "ticks": 410880,
          "time": 331.354176,
          "velocity": 0.5905511811023622
        },
        {
          "duration": 0.23387049999996634,
          "durationTicks": 290,
          "midi": 67,
          "name": "G4",
          "ticks": 410880,
          "time": 331.354176,
          "velocity": 0.5905511811023622
        },
        {
          "duration": 0.129032000000052,
          "durationTicks": 160,
          "midi": 63,
          "name": "D#4",
          "ticks": 411360,
          "time": 331.741272,
          "velocity": 0.5905511811023622
        },
        {
          "duration": 0.129032000000052,
          "durationTicks": 160,
          "midi": 67,
          "name": "G4",
          "ticks": 411360,
          "time": 331.741272,
          "velocity": 0.5905511811023622
        },
        {
          "duration": 0.048386999999991076,
          "durationTicks": 60,
          "midi": 63,
          "name": "D#4",
          "ticks": 411720,
          "time": 332.031594,
          "velocity": 0.5905511811023622
        },
        {
          "duration": 0.048386999999991076,
          "durationTicks": 60,
          "midi": 67,
          "name": "G4",
          "ticks": 411720,
          "time": 332.031594,
          "velocity": 0.5905511811023622
        },
        {
          "duration": 0.23387049999996634,
          "durationTicks": 290,
          "midi": 58,
          "name": "A#3",
          "ticks": 411840,
          "time": 332.128368,
          "velocity": 0.5905511811023622
        },
        {
          "duration": 0.23387049999996634,
          "durationTicks": 290,
          "midi": 65,
          "name": "F4",
          "ticks": 411840,
          "time": 332.128368,
          "velocity": 0.5905511811023622
        },
        {
          "duration": 0.1370964999999842,
          "durationTicks": 170,
          "midi": 58,
          "name": "A#3",
          "ticks": 412320,
          "time": 332.515464,
          "velocity": 0.5905511811023622
        },
        {
          "duration": 0.23387049999996634,
          "durationTicks": 290,
          "midi": 65,
          "name": "F4",
          "ticks": 412320,
          "time": 332.515464,
          "velocity": 0.5905511811023622
        },
        {
          "duration": 0.12903199999999515,
          "durationTicks": 160,
          "midi": 63,
          "name": "D#4",
          "ticks": 412800,
          "time": 332.90256,
          "velocity": 0.5905511811023622
        },
        {
          "duration": 0.12903199999999515,
          "durationTicks": 160,
          "midi": 67,
          "name": "G4",
          "ticks": 412800,
          "time": 332.90256,
          "velocity": 0.5905511811023622
        },
        {
          "duration": 0.12903199999999515,
          "durationTicks": 160,
          "midi": 65,
          "name": "F4",
          "ticks": 413040,
          "time": 333.096108,
          "velocity": 0.8661417322834646
        },
        {
          "duration": 0.12903199999999515,
          "durationTicks": 160,
          "midi": 65,
          "name": "F4",
          "ticks": 413040,
          "time": 333.096108,
          "velocity": 0.8661417322834646
        },
        {
          "duration": 0.129032000000052,
          "durationTicks": 160,
          "midi": 63,
          "name": "D#4",
          "ticks": 413280,
          "time": 333.289656,
          "velocity": 0.8661417322834646
        },
        {
          "duration": 0.129032000000052,
          "durationTicks": 160,
          "midi": 63,
          "name": "D#4",
          "ticks": 413280,
          "time": 333.289656,
          "velocity": 0.8661417322834646
        },
        {
          "duration": 0.12903199999999515,
          "durationTicks": 160,
          "midi": 65,
          "name": "F4",
          "ticks": 413520,
          "time": 333.483204,
          "velocity": 0.8661417322834646
        },
        {
          "duration": 0.12903199999999515,
          "durationTicks": 160,
          "midi": 68,
          "name": "G#4",
          "ticks": 413520,
          "time": 333.483204,
          "velocity": 0.8661417322834646
        },
        {
          "duration": 0.12903199999999515,
          "durationTicks": 160,
          "midi": 63,
          "name": "D#4",
          "ticks": 413760,
          "time": 333.676752,
          "velocity": 0.8661417322834646
        },
        {
          "duration": 0.12903199999999515,
          "durationTicks": 160,
          "midi": 67,
          "name": "G4",
          "ticks": 413760,
          "time": 333.676752,
          "velocity": 0.8661417322834646
        },
        {
          "duration": 0.12903199999999515,
          "durationTicks": 160,
          "midi": 58,
          "name": "A#3",
          "ticks": 414240,
          "time": 334.063848,
          "velocity": 0.8661417322834646
        },
        {
          "duration": 0.12903199999999515,
          "durationTicks": 160,
          "midi": 65,
          "name": "F4",
          "ticks": 414240,
          "time": 334.063848,
          "velocity": 0.8661417322834646
        },
        {
          "duration": 0.12903199999999515,
          "durationTicks": 160,
          "midi": 55,
          "name": "G3",
          "ticks": 414720,
          "time": 334.450944,
          "velocity": 0.8661417322834646
        },
        {
          "duration": 0.12903199999999515,
          "durationTicks": 160,
          "midi": 63,
          "name": "D#4",
          "ticks": 414720,
          "time": 334.450944,
          "velocity": 0.8661417322834646
        },
        {
          "duration": 0.129032000000052,
          "durationTicks": 160,
          "midi": 55,
          "name": "G3",
          "ticks": 415200,
          "time": 334.83804,
          "velocity": 0.8661417322834646
        },
        {
          "duration": 0.129032000000052,
          "durationTicks": 160,
          "midi": 63,
          "name": "D#4",
          "ticks": 415200,
          "time": 334.83804,
          "velocity": 0.8661417322834646
        },
        {
          "duration": 0.12903199999999515,
          "durationTicks": 160,
          "midi": 55,
          "name": "G3",
          "ticks": 415680,
          "time": 335.225136,
          "velocity": 0.8661417322834646
        },
        {
          "duration": 0.12903199999999515,
          "durationTicks": 160,
          "midi": 63,
          "name": "D#4",
          "ticks": 415680,
          "time": 335.225136,
          "velocity": 0.8661417322834646
        },
        {
          "duration": 0.23387049999996634,
          "durationTicks": 290,
          "midi": 58,
          "name": "A#3",
          "ticks": 429600,
          "time": 346.45092,
          "velocity": 0.47244094488188976
        },
        {
          "duration": 0.23387049999996634,
          "durationTicks": 290,
          "midi": 65,
          "name": "F4",
          "ticks": 429600,
          "time": 346.45092,
          "velocity": 0.47244094488188976
        },
        {
          "duration": 0.1370964999999842,
          "durationTicks": 170,
          "midi": 55,
          "name": "G3",
          "ticks": 430080,
          "time": 346.838016,
          "velocity": 0.47244094488188976
        },
        {
          "duration": 0.1370964999999842,
          "durationTicks": 170,
          "midi": 63,
          "name": "D#4",
          "ticks": 430080,
          "time": 346.838016,
          "velocity": 0.47244094488188976
        },
        {
          "duration": 0.1370964999999842,
          "durationTicks": 170,
          "midi": 55,
          "name": "G3",
          "ticks": 430320,
          "time": 347.031564,
          "velocity": 0.47244094488188976
        },
        {
          "duration": 0.1370964999999842,
          "durationTicks": 170,
          "midi": 63,
          "name": "D#4",
          "ticks": 430320,
          "time": 347.031564,
          "velocity": 0.47244094488188976
        },
        {
          "duration": 0.1370964999999842,
          "durationTicks": 170,
          "midi": 58,
          "name": "A#3",
          "ticks": 430560,
          "time": 347.225112,
          "velocity": 0.47244094488188976
        },
        {
          "duration": 0.1370964999999842,
          "durationTicks": 170,
          "midi": 67,
          "name": "G4",
          "ticks": 430560,
          "time": 347.225112,
          "velocity": 0.47244094488188976
        },
        {
          "duration": 0.1370964999999842,
          "durationTicks": 170,
          "midi": 58,
          "name": "A#3",
          "ticks": 430800,
          "time": 347.41866,
          "velocity": 0.47244094488188976
        },
        {
          "duration": 0.1370964999999842,
          "durationTicks": 170,
          "midi": 67,
          "name": "G4",
          "ticks": 430800,
          "time": 347.41866,
          "velocity": 0.47244094488188976
        },
        {
          "duration": 0.12903199999999515,
          "durationTicks": 160,
          "midi": 55,
          "name": "G3",
          "ticks": 431040,
          "time": 347.612208,
          "velocity": 0.47244094488188976
        },
        {
          "duration": 0.12903199999999515,
          "durationTicks": 160,
          "midi": 63,
          "name": "D#4",
          "ticks": 431040,
          "time": 347.612208,
          "velocity": 0.47244094488188976
        },
        {
          "duration": 0.23387050000002318,
          "durationTicks": 290,
          "midi": 58,
          "name": "A#3",
          "ticks": 444960,
          "time": 358.837992,
          "velocity": 0.47244094488188976
        },
        {
          "duration": 0.23387050000002318,
          "durationTicks": 290,
          "midi": 65,
          "name": "F4",
          "ticks": 444960,
          "time": 358.837992,
          "velocity": 0.47244094488188976
        },
        {
          "duration": 0.1370964999999842,
          "durationTicks": 170,
          "midi": 55,
          "name": "G3",
          "ticks": 445440,
          "time": 359.22508799999997,
          "velocity": 0.47244094488188976
        },
        {
          "duration": 0.1370964999999842,
          "durationTicks": 170,
          "midi": 63,
          "name": "D#4",
          "ticks": 445440,
          "time": 359.22508799999997,
          "velocity": 0.47244094488188976
        },
        {
          "duration": 0.1370964999999842,
          "durationTicks": 170,
          "midi": 55,
          "name": "G3",
          "ticks": 445680,
          "time": 359.418636,
          "velocity": 0.47244094488188976
        },
        {
          "duration": 0.1370964999999842,
          "durationTicks": 170,
          "midi": 63,
          "name": "D#4",
          "ticks": 445680,
          "time": 359.418636,
          "velocity": 0.47244094488188976
        },
        {
          "duration": 0.1370964999999842,
          "durationTicks": 170,
          "midi": 58,
          "name": "A#3",
          "ticks": 445920,
          "time": 359.612184,
          "velocity": 0.47244094488188976
        },
        {
          "duration": 0.1370964999999842,
          "durationTicks": 170,
          "midi": 67,
          "name": "G4",
          "ticks": 445920,
          "time": 359.612184,
          "velocity": 0.47244094488188976
        },
        {
          "duration": 0.1370964999999842,
          "durationTicks": 170,
          "midi": 58,
          "name": "A#3",
          "ticks": 446160,
          "time": 359.805732,
          "velocity": 0.47244094488188976
        },
        {
          "duration": 0.1370964999999842,
          "durationTicks": 170,
          "midi": 67,
          "name": "G4",
          "ticks": 446160,
          "time": 359.805732,
          "velocity": 0.47244094488188976
        },
        {
          "duration": 0.12903199999999515,
          "durationTicks": 160,
          "midi": 55,
          "name": "G3",
          "ticks": 446400,
          "time": 359.99928,
          "velocity": 0.47244094488188976
        },
        {
          "duration": 0.12903199999999515,
          "durationTicks": 160,
          "midi": 63,
          "name": "D#4",
          "ticks": 446400,
          "time": 359.99928,
          "velocity": 0.47244094488188976
        },
        {
          "duration": 0.129032000000052,
          "durationTicks": 160,
          "midi": 46,
          "name": "A#2",
          "ticks": 447360,
          "time": 360.77347199999997,
          "velocity": 0.5118110236220472
        },
        {
          "duration": 0.129032000000052,
          "durationTicks": 160,
          "midi": 58,
          "name": "A#3",
          "ticks": 447360,
          "time": 360.77347199999997,
          "velocity": 0.5118110236220472
        },
        {
          "duration": 0.12903199999999515,
          "durationTicks": 160,
          "midi": 46,
          "name": "A#2",
          "ticks": 447600,
          "time": 360.96702,
          "velocity": 0.5118110236220472
        },
        {
          "duration": 0.12903199999999515,
          "durationTicks": 160,
          "midi": 58,
          "name": "A#3",
          "ticks": 447600,
          "time": 360.96702,
          "velocity": 0.5118110236220472
        },
        {
          "duration": 0.12903199999999515,
          "durationTicks": 160,
          "midi": 46,
          "name": "A#2",
          "ticks": 447840,
          "time": 361.160568,
          "velocity": 0.5118110236220472
        },
        {
          "duration": 0.12903199999999515,
          "durationTicks": 160,
          "midi": 58,
          "name": "A#3",
          "ticks": 447840,
          "time": 361.160568,
          "velocity": 0.5118110236220472
        },
        {
          "duration": 0.129032000000052,
          "durationTicks": 160,
          "midi": 46,
          "name": "A#2",
          "ticks": 448080,
          "time": 361.354116,
          "velocity": 0.5118110236220472
        },
        {
          "duration": 0.129032000000052,
          "durationTicks": 160,
          "midi": 58,
          "name": "A#3",
          "ticks": 448080,
          "time": 361.354116,
          "velocity": 0.5118110236220472
        },
        {
          "duration": 0.12903199999999515,
          "durationTicks": 160,
          "midi": 46,
          "name": "A#2",
          "ticks": 448320,
          "time": 361.547664,
          "velocity": 0.5118110236220472
        },
        {
          "duration": 0.12903199999999515,
          "durationTicks": 160,
          "midi": 58,
          "name": "A#3",
          "ticks": 448320,
          "time": 361.547664,
          "velocity": 0.5118110236220472
        },
        {
          "duration": 0.12903199999999515,
          "durationTicks": 160,
          "midi": 46,
          "name": "A#2",
          "ticks": 448560,
          "time": 361.741212,
          "velocity": 0.5118110236220472
        },
        {
          "duration": 0.12903199999999515,
          "durationTicks": 160,
          "midi": 58,
          "name": "A#3",
          "ticks": 448560,
          "time": 361.741212,
          "velocity": 0.5118110236220472
        },
        {
          "duration": 0.129032000000052,
          "durationTicks": 160,
          "midi": 46,
          "name": "A#2",
          "ticks": 448800,
          "time": 361.93476,
          "velocity": 0.5118110236220472
        },
        {
          "duration": 0.129032000000052,
          "durationTicks": 160,
          "midi": 58,
          "name": "A#3",
          "ticks": 448800,
          "time": 361.93476,
          "velocity": 0.5118110236220472
        },
        {
          "duration": 0.12903199999999515,
          "durationTicks": 160,
          "midi": 46,
          "name": "A#2",
          "ticks": 449040,
          "time": 362.128308,
          "velocity": 0.5118110236220472
        },
        {
          "duration": 0.12903199999999515,
          "durationTicks": 160,
          "midi": 58,
          "name": "A#3",
          "ticks": 449040,
          "time": 362.128308,
          "velocity": 0.5118110236220472
        },
        {
          "duration": 0.129032000000052,
          "durationTicks": 160,
          "midi": 46,
          "name": "A#2",
          "ticks": 449280,
          "time": 362.32185599999997,
          "velocity": 0.5118110236220472
        },
        {
          "duration": 0.129032000000052,
          "durationTicks": 160,
          "midi": 58,
          "name": "A#3",
          "ticks": 449280,
          "time": 362.32185599999997,
          "velocity": 0.5118110236220472
        },
        {
          "duration": 0.12903199999999515,
          "durationTicks": 160,
          "midi": 46,
          "name": "A#2",
          "ticks": 449520,
          "time": 362.515404,
          "velocity": 0.5118110236220472
        },
        {
          "duration": 0.12903199999999515,
          "durationTicks": 160,
          "midi": 58,
          "name": "A#3",
          "ticks": 449520,
          "time": 362.515404,
          "velocity": 0.5118110236220472
        },
        {
          "duration": 0.12903199999999515,
          "durationTicks": 160,
          "midi": 46,
          "name": "A#2",
          "ticks": 449760,
          "time": 362.708952,
          "velocity": 0.5118110236220472
        },
        {
          "duration": 0.12903199999999515,
          "durationTicks": 160,
          "midi": 58,
          "name": "A#3",
          "ticks": 449760,
          "time": 362.708952,
          "velocity": 0.5118110236220472
        },
        {
          "duration": 0.129032000000052,
          "durationTicks": 160,
          "midi": 46,
          "name": "A#2",
          "ticks": 450000,
          "time": 362.9025,
          "velocity": 0.5118110236220472
        },
        {
          "duration": 0.129032000000052,
          "durationTicks": 160,
          "midi": 58,
          "name": "A#3",
          "ticks": 450000,
          "time": 362.9025,
          "velocity": 0.5118110236220472
        },
        {
          "duration": 0.12903199999999515,
          "durationTicks": 160,
          "midi": 46,
          "name": "A#2",
          "ticks": 450240,
          "time": 363.096048,
          "velocity": 0.5118110236220472
        },
        {
          "duration": 0.12903199999999515,
          "durationTicks": 160,
          "midi": 58,
          "name": "A#3",
          "ticks": 450240,
          "time": 363.096048,
          "velocity": 0.5118110236220472
        },
        {
          "duration": 0.12903199999999515,
          "durationTicks": 160,
          "midi": 46,
          "name": "A#2",
          "ticks": 451200,
          "time": 363.87024,
          "velocity": 0.5118110236220472
        },
        {
          "duration": 0.12903199999999515,
          "durationTicks": 160,
          "midi": 58,
          "name": "A#3",
          "ticks": 451200,
          "time": 363.87024,
          "velocity": 0.5118110236220472
        },
        {
          "duration": 0.12903199999999515,
          "durationTicks": 160,
          "midi": 46,
          "name": "A#2",
          "ticks": 451440,
          "time": 364.063788,
          "velocity": 0.5118110236220472
        },
        {
          "duration": 0.12903199999999515,
          "durationTicks": 160,
          "midi": 58,
          "name": "A#3",
          "ticks": 451440,
          "time": 364.063788,
          "velocity": 0.5118110236220472
        },
        {
          "duration": 0.12903199999999515,
          "durationTicks": 160,
          "midi": 46,
          "name": "A#2",
          "ticks": 451680,
          "time": 364.257336,
          "velocity": 0.5118110236220472
        },
        {
          "duration": 0.12903199999999515,
          "durationTicks": 160,
          "midi": 58,
          "name": "A#3",
          "ticks": 451680,
          "time": 364.257336,
          "velocity": 0.5118110236220472
        },
        {
          "duration": 0.129032000000052,
          "durationTicks": 160,
          "midi": 46,
          "name": "A#2",
          "ticks": 451920,
          "time": 364.450884,
          "velocity": 0.5118110236220472
        },
        {
          "duration": 0.129032000000052,
          "durationTicks": 160,
          "midi": 58,
          "name": "A#3",
          "ticks": 451920,
          "time": 364.450884,
          "velocity": 0.5118110236220472
        },
        {
          "duration": 0.12903199999999515,
          "durationTicks": 160,
          "midi": 46,
          "name": "A#2",
          "ticks": 452160,
          "time": 364.644432,
          "velocity": 0.5118110236220472
        },
        {
          "duration": 0.12903199999999515,
          "durationTicks": 160,
          "midi": 58,
          "name": "A#3",
          "ticks": 452160,
          "time": 364.644432,
          "velocity": 0.5118110236220472
        },
        {
          "duration": 0.12903199999999515,
          "durationTicks": 160,
          "midi": 46,
          "name": "A#2",
          "ticks": 452400,
          "time": 364.83798,
          "velocity": 0.5118110236220472
        },
        {
          "duration": 0.12903199999999515,
          "durationTicks": 160,
          "midi": 58,
          "name": "A#3",
          "ticks": 452400,
          "time": 364.83798,
          "velocity": 0.5118110236220472
        },
        {
          "duration": 0.129032000000052,
          "durationTicks": 160,
          "midi": 46,
          "name": "A#2",
          "ticks": 452640,
          "time": 365.031528,
          "velocity": 0.5118110236220472
        },
        {
          "duration": 0.129032000000052,
          "durationTicks": 160,
          "midi": 58,
          "name": "A#3",
          "ticks": 452640,
          "time": 365.031528,
          "velocity": 0.5118110236220472
        },
        {
          "duration": 0.12903199999999515,
          "durationTicks": 160,
          "midi": 46,
          "name": "A#2",
          "ticks": 452880,
          "time": 365.225076,
          "velocity": 0.5118110236220472
        },
        {
          "duration": 0.12903199999999515,
          "durationTicks": 160,
          "midi": 58,
          "name": "A#3",
          "ticks": 452880,
          "time": 365.225076,
          "velocity": 0.5118110236220472
        },
        {
          "duration": 0.12903199999999515,
          "durationTicks": 160,
          "midi": 46,
          "name": "A#2",
          "ticks": 453120,
          "time": 365.418624,
          "velocity": 0.5118110236220472
        },
        {
          "duration": 0.12903199999999515,
          "durationTicks": 160,
          "midi": 58,
          "name": "A#3",
          "ticks": 453120,
          "time": 365.418624,
          "velocity": 0.5118110236220472
        },
        {
          "duration": 0.129032000000052,
          "durationTicks": 160,
          "midi": 46,
          "name": "A#2",
          "ticks": 453360,
          "time": 365.612172,
          "velocity": 0.5118110236220472
        },
        {
          "duration": 0.129032000000052,
          "durationTicks": 160,
          "midi": 58,
          "name": "A#3",
          "ticks": 453360,
          "time": 365.612172,
          "velocity": 0.5118110236220472
        },
        {
          "duration": 0.12903199999999515,
          "durationTicks": 160,
          "midi": 46,
          "name": "A#2",
          "ticks": 453600,
          "time": 365.80572,
          "velocity": 0.5118110236220472
        },
        {
          "duration": 0.12903199999999515,
          "durationTicks": 160,
          "midi": 58,
          "name": "A#3",
          "ticks": 453600,
          "time": 365.80572,
          "velocity": 0.5118110236220472
        },
        {
          "duration": 0.129032000000052,
          "durationTicks": 160,
          "midi": 46,
          "name": "A#2",
          "ticks": 453840,
          "time": 365.999268,
          "velocity": 0.5118110236220472
        },
        {
          "duration": 0.129032000000052,
          "durationTicks": 160,
          "midi": 58,
          "name": "A#3",
          "ticks": 453840,
          "time": 365.999268,
          "velocity": 0.5118110236220472
        },
        {
          "duration": 0.12903199999999515,
          "durationTicks": 160,
          "midi": 46,
          "name": "A#2",
          "ticks": 454080,
          "time": 366.192816,
          "velocity": 0.5118110236220472
        },
        {
          "duration": 0.12903199999999515,
          "durationTicks": 160,
          "midi": 58,
          "name": "A#3",
          "ticks": 454080,
          "time": 366.192816,
          "velocity": 0.5118110236220472
        },
        {
          "duration": 0.12903199999999515,
          "durationTicks": 160,
          "midi": 46,
          "name": "A#2",
          "ticks": 454320,
          "time": 366.386364,
          "velocity": 0.5905511811023622
        },
        {
          "duration": 0.12903199999999515,
          "durationTicks": 160,
          "midi": 58,
          "name": "A#3",
          "ticks": 454320,
          "time": 366.386364,
          "velocity": 0.5905511811023622
        },
        {
          "duration": 0.129032000000052,
          "durationTicks": 160,
          "midi": 51,
          "name": "D#3",
          "ticks": 454560,
          "time": 366.579912,
          "velocity": 0.5905511811023622
        },
        {
          "duration": 0.129032000000052,
          "durationTicks": 160,
          "midi": 63,
          "name": "D#4",
          "ticks": 454560,
          "time": 366.579912,
          "velocity": 0.5905511811023622
        },
        {
          "duration": 0.12903199999999515,
          "durationTicks": 160,
          "midi": 55,
          "name": "G3",
          "ticks": 454800,
          "time": 366.77346,
          "velocity": 0.5905511811023622
        },
        {
          "duration": 0.12903199999999515,
          "durationTicks": 160,
          "midi": 67,
          "name": "G4",
          "ticks": 454800,
          "time": 366.77346,
          "velocity": 0.5905511811023622
        },
        {
          "duration": 0.23387049999996634,
          "durationTicks": 290,
          "midi": 58,
          "name": "A#3",
          "ticks": 455040,
          "time": 366.967008,
          "velocity": 0.5905511811023622
        },
        {
          "duration": 0.23387049999996634,
          "durationTicks": 290,
          "midi": 70,
          "name": "A#4",
          "ticks": 455040,
          "time": 366.967008,
          "velocity": 0.5905511811023622
        },
        {
          "duration": 0.12903199999999515,
          "durationTicks": 160,
          "midi": 55,
          "name": "G3",
          "ticks": 455520,
          "time": 367.354104,
          "velocity": 0.5905511811023622
        },
        {
          "duration": 0.12903199999999515,
          "durationTicks": 160,
          "midi": 63,
          "name": "D#4",
          "ticks": 455520,
          "time": 367.354104,
          "velocity": 0.5905511811023622
        },
        {
          "duration": 0.048386999999991076,
          "durationTicks": 60,
          "midi": 55,
          "name": "G3",
          "ticks": 455880,
          "time": 367.644426,
          "velocity": 0.5905511811023622
        },
        {
          "duration": 0.09354819999998654,
          "durationTicks": 116,
          "midi": 63,
          "name": "D#4",
          "ticks": 455880,
          "time": 367.644426,
          "velocity": 0.5905511811023622
        },
        {
          "duration": 0.23387049999996634,
          "durationTicks": 290,
          "midi": 58,
          "name": "A#3",
          "ticks": 456000,
          "time": 367.7412,
          "velocity": 0.5905511811023622
        },
        {
          "duration": 0.23387049999996634,
          "durationTicks": 290,
          "midi": 65,
          "name": "F4",
          "ticks": 456000,
          "time": 367.7412,
          "velocity": 0.5905511811023622
        },
        {
          "duration": 0.23387050000002318,
          "durationTicks": 290,
          "midi": 58,
          "name": "A#3",
          "ticks": 456480,
          "time": 368.128296,
          "velocity": 0.5905511811023622
        },
        {
          "duration": 0.23387050000002318,
          "durationTicks": 290,
          "midi": 65,
          "name": "F4",
          "ticks": 456480,
          "time": 368.128296,
          "velocity": 0.5905511811023622
        },
        {
          "duration": 0.23387049999996634,
          "durationTicks": 290,
          "midi": 63,
          "name": "D#4",
          "ticks": 456960,
          "time": 368.515392,
          "velocity": 0.5905511811023622
        },
        {
          "duration": 0.23387049999996634,
          "durationTicks": 290,
          "midi": 67,
          "name": "G4",
          "ticks": 456960,
          "time": 368.515392,
          "velocity": 0.5905511811023622
        },
        {
          "duration": 0.12903199999999515,
          "durationTicks": 160,
          "midi": 63,
          "name": "D#4",
          "ticks": 457440,
          "time": 368.902488,
          "velocity": 0.5905511811023622
        },
        {
          "duration": 0.12903199999999515,
          "durationTicks": 160,
          "midi": 67,
          "name": "G4",
          "ticks": 457440,
          "time": 368.902488,
          "velocity": 0.5905511811023622
        },
        {
          "duration": 0.048386999999991076,
          "durationTicks": 60,
          "midi": 63,
          "name": "D#4",
          "ticks": 457800,
          "time": 369.19281,
          "velocity": 0.5905511811023622
        },
        {
          "duration": 0.048386999999991076,
          "durationTicks": 60,
          "midi": 67,
          "name": "G4",
          "ticks": 457800,
          "time": 369.19281,
          "velocity": 0.5905511811023622
        },
        {
          "duration": 0.23387049999996634,
          "durationTicks": 290,
          "midi": 58,
          "name": "A#3",
          "ticks": 457920,
          "time": 369.289584,
          "velocity": 0.5905511811023622
        },
        {
          "duration": 0.23387049999996634,
          "durationTicks": 290,
          "midi": 65,
          "name": "F4",
          "ticks": 457920,
          "time": 369.289584,
          "velocity": 0.5905511811023622
        },
        {
          "duration": 0.1370964999999842,
          "durationTicks": 170,
          "midi": 58,
          "name": "A#3",
          "ticks": 458400,
          "time": 369.67668,
          "velocity": 0.5905511811023622
        },
        {
          "duration": 0.23387050000002318,
          "durationTicks": 290,
          "midi": 65,
          "name": "F4",
          "ticks": 458400,
          "time": 369.67668,
          "velocity": 0.5905511811023622
        },
        {
          "duration": 0.12903199999999515,
          "durationTicks": 160,
          "midi": 63,
          "name": "D#4",
          "ticks": 458880,
          "time": 370.063776,
          "velocity": 0.5905511811023622
        },
        {
          "duration": 0.12903199999999515,
          "durationTicks": 160,
          "midi": 67,
          "name": "G4",
          "ticks": 458880,
          "time": 370.063776,
          "velocity": 0.5905511811023622
        },
        {
          "duration": 0.129032000000052,
          "durationTicks": 160,
          "midi": 65,
          "name": "F4",
          "ticks": 459120,
          "time": 370.257324,
          "velocity": 0.8661417322834646
        },
        {
          "duration": 0.129032000000052,
          "durationTicks": 160,
          "midi": 65,
          "name": "F4",
          "ticks": 459120,
          "time": 370.257324,
          "velocity": 0.8661417322834646
        },
        {
          "duration": 0.12903199999999515,
          "durationTicks": 160,
          "midi": 63,
          "name": "D#4",
          "ticks": 459360,
          "time": 370.450872,
          "velocity": 0.8661417322834646
        },
        {
          "duration": 0.12903199999999515,
          "durationTicks": 160,
          "midi": 63,
          "name": "D#4",
          "ticks": 459360,
          "time": 370.450872,
          "velocity": 0.8661417322834646
        },
        {
          "duration": 0.129032000000052,
          "durationTicks": 160,
          "midi": 65,
          "name": "F4",
          "ticks": 459600,
          "time": 370.64441999999997,
          "velocity": 0.8661417322834646
        },
        {
          "duration": 0.129032000000052,
          "durationTicks": 160,
          "midi": 68,
          "name": "G#4",
          "ticks": 459600,
          "time": 370.64441999999997,
          "velocity": 0.8661417322834646
        },
        {
          "duration": 0.12903199999999515,
          "durationTicks": 160,
          "midi": 63,
          "name": "D#4",
          "ticks": 459840,
          "time": 370.837968,
          "velocity": 0.8661417322834646
        },
        {
          "duration": 0.12903199999999515,
          "durationTicks": 160,
          "midi": 67,
          "name": "G4",
          "ticks": 459840,
          "time": 370.837968,
          "velocity": 0.8661417322834646
        },
        {
          "duration": 0.129032000000052,
          "durationTicks": 160,
          "midi": 58,
          "name": "A#3",
          "ticks": 460320,
          "time": 371.225064,
          "velocity": 0.8661417322834646
        },
        {
          "duration": 0.129032000000052,
          "durationTicks": 160,
          "midi": 65,
          "name": "F4",
          "ticks": 460320,
          "time": 371.225064,
          "velocity": 0.8661417322834646
        },
        {
          "duration": 0.12903199999999515,
          "durationTicks": 160,
          "midi": 55,
          "name": "G3",
          "ticks": 460800,
          "time": 371.61216,
          "velocity": 0.8661417322834646
        },
        {
          "duration": 0.12903199999999515,
          "durationTicks": 160,
          "midi": 63,
          "name": "D#4",
          "ticks": 460800,
          "time": 371.61216,
          "velocity": 0.8661417322834646
        },
        {
          "duration": 0.12903199999999515,
          "durationTicks": 160,
          "midi": 55,
          "name": "G3",
          "ticks": 461280,
          "time": 371.999256,
          "velocity": 0.8661417322834646
        },
        {
          "duration": 0.12903199999999515,
          "durationTicks": 160,
          "midi": 63,
          "name": "D#4",
          "ticks": 461280,
          "time": 371.999256,
          "velocity": 0.8661417322834646
        },
        {
          "duration": 0.12903199999999515,
          "durationTicks": 160,
          "midi": 55,
          "name": "G3",
          "ticks": 461760,
          "time": 372.386352,
          "velocity": 0.8661417322834646
        },
        {
          "duration": 0.12903199999999515,
          "durationTicks": 160,
          "midi": 63,
          "name": "D#4",
          "ticks": 461760,
          "time": 372.386352,
          "velocity": 0.8661417322834646
        },
        {
          "duration": 0.9916666666666742,
          "durationTicks": 476,
          "midi": 58,
          "name": "A#3",
          "ticks": 497280,
          "time": 408.386304,
          "velocity": 0.47244094488188976
        },
        {
          "duration": 0.9916666666666742,
          "durationTicks": 476,
          "midi": 65,
          "name": "F4",
          "ticks": 497280,
          "time": 408.386304,
          "velocity": 0.47244094488188976
        },
        {
          "duration": 0.16666666666668561,
          "durationTicks": 80,
          "midi": 65,
          "name": "F4",
          "ticks": 498120,
          "time": 410.136304,
          "velocity": 0.7086614173228346
        },
        {
          "duration": 0.4583333333333144,
          "durationTicks": 220,
          "midi": 65,
          "name": "F4",
          "ticks": 498240,
          "time": 410.386304,
          "velocity": 0.7086614173228346
        },
        {
          "duration": 0.16666666666668561,
          "durationTicks": 80,
          "midi": 65,
          "name": "F4",
          "ticks": 498600,
          "time": 411.136304,
          "velocity": 0.7086614173228346
        },
        {
          "duration": 0.4583333333333144,
          "durationTicks": 220,
          "midi": 65,
          "name": "F4",
          "ticks": 498720,
          "time": 411.386304,
          "velocity": 0.7086614173228346
        },
        {
          "duration": 0.16666666666668561,
          "durationTicks": 80,
          "midi": 65,
          "name": "F4",
          "ticks": 499080,
          "time": 412.136304,
          "velocity": 0.7086614173228346
        },
        {
          "duration": 0.9916666666666742,
          "durationTicks": 476,
          "midi": 65,
          "name": "F4",
          "ticks": 499200,
          "time": 412.386304,
          "velocity": 0.7086614173228346
        },
        {
          "duration": 0.16666666666668561,
          "durationTicks": 80,
          "midi": 65,
          "name": "F4",
          "ticks": 500040,
          "time": 414.136304,
          "velocity": 0.7086614173228346
        },
        {
          "duration": 0.4583333333333144,
          "durationTicks": 220,
          "midi": 65,
          "name": "F4",
          "ticks": 500160,
          "time": 414.386304,
          "velocity": 0.7086614173228346
        },
        {
          "duration": 0.16666666666668561,
          "durationTicks": 80,
          "midi": 65,
          "name": "F4",
          "ticks": 500520,
          "time": 415.136304,
          "velocity": 0.7086614173228346
        },
        {
          "duration": 0.4583333333333144,
          "durationTicks": 220,
          "midi": 65,
          "name": "F4",
          "ticks": 500640,
          "time": 415.386304,
          "velocity": 0.7086614173228346
        },
        {
          "duration": 0.16666666666668561,
          "durationTicks": 80,
          "midi": 65,
          "name": "F4",
          "ticks": 501000,
          "time": 416.136304,
          "velocity": 0.7086614173228346
        },
        {
          "duration": 1.6041666666666856,
          "durationTicks": 770,
          "midi": 58,
          "name": "A#3",
          "ticks": 501120,
          "time": 416.386304,
          "velocity": 0.7086614173228346
        },
        {
          "duration": 1.6041666666666856,
          "durationTicks": 770,
          "midi": 65,
          "name": "F4",
          "ticks": 501120,
          "time": 416.386304,
          "velocity": 0.7086614173228346
        },
        {
          "duration": 1.9916666666666742,
          "durationTicks": 956,
          "midi": 58,
          "name": "A#3",
          "ticks": 502080,
          "time": 418.386304,
          "velocity": 0.7086614173228346
        },
        {
          "duration": 1.9916666666666742,
          "durationTicks": 956,
          "midi": 65,
          "name": "F4",
          "ticks": 502080,
          "time": 418.386304,
          "velocity": 0.7086614173228346
        },
        {
          "duration": 0.703125,
          "durationTicks": 675,
          "midi": 58,
          "name": "A#3",
          "ticks": 513840,
          "time": 432.8446373333334,
          "velocity": 0.47244094488188976
        },
        {
          "duration": 0.703125,
          "durationTicks": 675,
          "midi": 65,
          "name": "F4",
          "ticks": 513840,
          "time": 432.8446373333334,
          "velocity": 0.47244094488188976
        },
        {
          "duration": 0.16666666666662877,
          "durationTicks": 160,
          "midi": 55,
          "name": "G3",
          "ticks": 514560,
          "time": 433.5946373333334,
          "velocity": 0.6299212598425197
        },
        {
          "duration": 0.16666666666662877,
          "durationTicks": 160,
          "midi": 67,
          "name": "G4",
          "ticks": 514560,
          "time": 433.5946373333334,
          "velocity": 0.6299212598425197
        },
        {
          "duration": 0.16666666666662877,
          "durationTicks": 160,
          "midi": 55,
          "name": "G3",
          "ticks": 514800,
          "time": 433.8446373333334,
          "velocity": 0.6299212598425197
        },
        {
          "duration": 0.16666666666662877,
          "durationTicks": 160,
          "midi": 67,
          "name": "G4",
          "ticks": 514800,
          "time": 433.8446373333334,
          "velocity": 0.6299212598425197
        },
        {
          "duration": 0.16666666666662877,
          "durationTicks": 160,
          "midi": 55,
          "name": "G3",
          "ticks": 515040,
          "time": 434.0946373333334,
          "velocity": 0.6299212598425197
        },
        {
          "duration": 0.16666666666662877,
          "durationTicks": 160,
          "midi": 67,
          "name": "G4",
          "ticks": 515040,
          "time": 434.0946373333334,
          "velocity": 0.6299212598425197
        },
        {
          "duration": 0.41666666666662877,
          "durationTicks": 400,
          "midi": 55,
          "name": "G3",
          "ticks": 515280,
          "time": 434.3446373333334,
          "velocity": 0.6299212598425197
        },
        {
          "duration": 0.41666666666662877,
          "durationTicks": 400,
          "midi": 67,
          "name": "G4",
          "ticks": 515280,
          "time": 434.3446373333334,
          "velocity": 0.6299212598425197
        },
        {
          "duration": 0.16666666666662877,
          "durationTicks": 160,
          "midi": 51,
          "name": "D#3",
          "ticks": 530400,
          "time": 450.0946373333334,
          "velocity": 0.4330708661417323
        },
        {
          "duration": 0.16666666666662877,
          "durationTicks": 160,
          "midi": 63,
          "name": "D#4",
          "ticks": 530400,
          "time": 450.0946373333334,
          "velocity": 0.4330708661417323
        },
        {
          "duration": 0.16666666666662877,
          "durationTicks": 160,
          "midi": 51,
          "name": "D#3",
          "ticks": 530640,
          "time": 450.3446373333334,
          "velocity": 0.4330708661417323
        },
        {
          "duration": 0.16666666666662877,
          "durationTicks": 160,
          "midi": 63,
          "name": "D#4",
          "ticks": 530640,
          "time": 450.3446373333334,
          "velocity": 0.4330708661417323
        },
        {
          "duration": 0.16666666666662877,
          "durationTicks": 160,
          "midi": 51,
          "name": "D#3",
          "ticks": 530880,
          "time": 450.5946373333334,
          "velocity": 0.4330708661417323
        },
        {
          "duration": 0.16666666666662877,
          "durationTicks": 160,
          "midi": 63,
          "name": "D#4",
          "ticks": 530880,
          "time": 450.5946373333334,
          "velocity": 0.4330708661417323
        },
        {
          "duration": 0.16666666666662877,
          "durationTicks": 160,
          "midi": 51,
          "name": "D#3",
          "ticks": 531120,
          "time": 450.8446373333334,
          "velocity": 0.4330708661417323
        },
        {
          "duration": 0.16666666666662877,
          "durationTicks": 160,
          "midi": 63,
          "name": "D#4",
          "ticks": 531120,
          "time": 450.8446373333334,
          "velocity": 0.4330708661417323
        },
        {
          "duration": 0.16666666666662877,
          "durationTicks": 160,
          "midi": 51,
          "name": "D#3",
          "ticks": 531360,
          "time": 451.0946373333334,
          "velocity": 0.4330708661417323
        },
        {
          "duration": 0.16666666666662877,
          "durationTicks": 160,
          "midi": 63,
          "name": "D#4",
          "ticks": 531360,
          "time": 451.0946373333334,
          "velocity": 0.4330708661417323
        },
        {
          "duration": 0.16666666666662877,
          "durationTicks": 160,
          "midi": 51,
          "name": "D#3",
          "ticks": 531600,
          "time": 451.3446373333334,
          "velocity": 0.4330708661417323
        },
        {
          "duration": 0.16666666666662877,
          "durationTicks": 160,
          "midi": 63,
          "name": "D#4",
          "ticks": 531600,
          "time": 451.3446373333334,
          "velocity": 0.4330708661417323
        },
        {
          "duration": 0.16666666666662877,
          "durationTicks": 160,
          "midi": 51,
          "name": "D#3",
          "ticks": 531840,
          "time": 451.5946373333334,
          "velocity": 0.4330708661417323
        },
        {
          "duration": 0.16666666666662877,
          "durationTicks": 160,
          "midi": 63,
          "name": "D#4",
          "ticks": 531840,
          "time": 451.5946373333334,
          "velocity": 0.4330708661417323
        },
        {
          "duration": 0.16666666666662877,
          "durationTicks": 160,
          "midi": 51,
          "name": "D#3",
          "ticks": 532080,
          "time": 451.8446373333334,
          "velocity": 0.4330708661417323
        },
        {
          "duration": 0.16666666666662877,
          "durationTicks": 160,
          "midi": 63,
          "name": "D#4",
          "ticks": 532080,
          "time": 451.8446373333334,
          "velocity": 0.4330708661417323
        },
        {
          "duration": 0.16666666666662877,
          "durationTicks": 160,
          "midi": 51,
          "name": "D#3",
          "ticks": 532320,
          "time": 452.0946373333334,
          "velocity": 0.4330708661417323
        },
        {
          "duration": 0.16666666666662877,
          "durationTicks": 160,
          "midi": 63,
          "name": "D#4",
          "ticks": 532320,
          "time": 452.0946373333334,
          "velocity": 0.4330708661417323
        },
        {
          "duration": 0.16666666666662877,
          "durationTicks": 160,
          "midi": 51,
          "name": "D#3",
          "ticks": 532560,
          "time": 452.3446373333334,
          "velocity": 0.4330708661417323
        },
        {
          "duration": 0.16666666666662877,
          "durationTicks": 160,
          "midi": 63,
          "name": "D#4",
          "ticks": 532560,
          "time": 452.3446373333334,
          "velocity": 0.4330708661417323
        },
        {
          "duration": 0.16666666666662877,
          "durationTicks": 160,
          "midi": 51,
          "name": "D#3",
          "ticks": 532800,
          "time": 452.5946373333334,
          "velocity": 0.4330708661417323
        },
        {
          "duration": 0.16666666666662877,
          "durationTicks": 160,
          "midi": 63,
          "name": "D#4",
          "ticks": 532800,
          "time": 452.5946373333334,
          "velocity": 0.4330708661417323
        },
        {
          "duration": 0.16666666666662877,
          "durationTicks": 160,
          "midi": 51,
          "name": "D#3",
          "ticks": 533040,
          "time": 452.8446373333334,
          "velocity": 0.4330708661417323
        },
        {
          "duration": 0.16666666666662877,
          "durationTicks": 160,
          "midi": 63,
          "name": "D#4",
          "ticks": 533040,
          "time": 452.8446373333334,
          "velocity": 0.4330708661417323
        },
        {
          "duration": 0.17708333333331439,
          "durationTicks": 170,
          "midi": 51,
          "name": "D#3",
          "ticks": 533280,
          "time": 453.0946373333334,
          "velocity": 0.6299212598425197
        },
        {
          "duration": 0.17708333333331439,
          "durationTicks": 170,
          "midi": 63,
          "name": "D#4",
          "ticks": 533280,
          "time": 453.0946373333334,
          "velocity": 0.6299212598425197
        },
        {
          "duration": 0.17708333333331439,
          "durationTicks": 170,
          "midi": 63,
          "name": "D#4",
          "ticks": 534000,
          "time": 453.8446373333334,
          "velocity": 0.6299212598425197
        },
        {
          "duration": 0.17708333333331439,
          "durationTicks": 170,
          "midi": 63,
          "name": "D#4",
          "ticks": 534000,
          "time": 453.8446373333334,
          "velocity": 0.6299212598425197
        },
        {
          "duration": 0.17708333333331439,
          "durationTicks": 170,
          "midi": 58,
          "name": "A#3",
          "ticks": 534720,
          "time": 454.5946373333334,
          "velocity": 0.6299212598425197
        },
        {
          "duration": 0.17708333333331439,
          "durationTicks": 170,
          "midi": 65,
          "name": "F4",
          "ticks": 534720,
          "time": 454.5946373333334,
          "velocity": 0.6299212598425197
        },
        {
          "duration": 0.16666666666662877,
          "durationTicks": 160,
          "midi": 58,
          "name": "A#3",
          "ticks": 541920,
          "time": 462.0946373333334,
          "velocity": 0.4330708661417323
        },
        {
          "duration": 0.16666666666662877,
          "durationTicks": 160,
          "midi": 65,
          "name": "F4",
          "ticks": 541920,
          "time": 462.0946373333334,
          "velocity": 0.4330708661417323
        },
        {
          "duration": 0.16666666666662877,
          "durationTicks": 160,
          "midi": 58,
          "name": "A#3",
          "ticks": 542160,
          "time": 462.3446373333334,
          "velocity": 0.4330708661417323
        },
        {
          "duration": 0.16666666666662877,
          "durationTicks": 160,
          "midi": 65,
          "name": "F4",
          "ticks": 542160,
          "time": 462.3446373333334,
          "velocity": 0.4330708661417323
        },
        {
          "duration": 0.16666666666662877,
          "durationTicks": 160,
          "midi": 58,
          "name": "A#3",
          "ticks": 542640,
          "time": 462.8446373333334,
          "velocity": 0.4330708661417323
        },
        {
          "duration": 0.16666666666662877,
          "durationTicks": 160,
          "midi": 65,
          "name": "F4",
          "ticks": 542640,
          "time": 462.8446373333334,
          "velocity": 0.4330708661417323
        },
        {
          "duration": 0.16666666666662877,
          "durationTicks": 160,
          "midi": 58,
          "name": "A#3",
          "ticks": 542880,
          "time": 463.0946373333334,
          "velocity": 0.4330708661417323
        },
        {
          "duration": 0.16666666666662877,
          "durationTicks": 160,
          "midi": 65,
          "name": "F4",
          "ticks": 542880,
          "time": 463.0946373333334,
          "velocity": 0.4330708661417323
        },
        {
          "duration": 0.16666666666662877,
          "durationTicks": 160,
          "midi": 58,
          "name": "A#3",
          "ticks": 543360,
          "time": 463.5946373333334,
          "velocity": 0.4330708661417323
        },
        {
          "duration": 0.16666666666662877,
          "durationTicks": 160,
          "midi": 65,
          "name": "F4",
          "ticks": 543360,
          "time": 463.5946373333334,
          "velocity": 0.4330708661417323
        },
        {
          "duration": 0.16666666666662877,
          "durationTicks": 160,
          "midi": 58,
          "name": "A#3",
          "ticks": 543600,
          "time": 463.8446373333334,
          "velocity": 0.4330708661417323
        },
        {
          "duration": 0.16666666666662877,
          "durationTicks": 160,
          "midi": 65,
          "name": "F4",
          "ticks": 543600,
          "time": 463.8446373333334,
          "velocity": 0.4330708661417323
        },
        {
          "duration": 0.16666666666662877,
          "durationTicks": 160,
          "midi": 58,
          "name": "A#3",
          "ticks": 544080,
          "time": 464.3446373333334,
          "velocity": 0.4330708661417323
        },
        {
          "duration": 0.16666666666662877,
          "durationTicks": 160,
          "midi": 65,
          "name": "F4",
          "ticks": 544080,
          "time": 464.3446373333334,
          "velocity": 0.4330708661417323
        },
        {
          "duration": 0.16666666666662877,
          "durationTicks": 160,
          "midi": 58,
          "name": "A#3",
          "ticks": 544320,
          "time": 464.5946373333334,
          "velocity": 0.4330708661417323
        },
        {
          "duration": 0.16666666666662877,
          "durationTicks": 160,
          "midi": 65,
          "name": "F4",
          "ticks": 544320,
          "time": 464.5946373333334,
          "velocity": 0.4330708661417323
        },
        {
          "duration": 1.5374329999998508,
          "durationTicks": 1240,
          "midi": 46,
          "name": "A#2",
          "ticks": 544800,
          "time": 465.0946373333334,
          "velocity": 0.4330708661417323
        },
        {
          "duration": 1.5374329999998508,
          "durationTicks": 1240,
          "midi": 58,
          "name": "A#3",
          "ticks": 544800,
          "time": 465.0946373333334,
          "velocity": 0.4330708661417323
        },
        {
          "duration": 1.4875000000000114,
          "durationTicks": 476,
          "midi": 46,
          "name": "A#2",
          "ticks": 546240,
          "time": 466.98921325000003,
          "velocity": 0.4330708661417323
        },
        {
          "duration": 1.4875000000000114,
          "durationTicks": 476,
          "midi": 58,
          "name": "A#3",
          "ticks": 546240,
          "time": 466.98921325000003,
          "velocity": 0.4330708661417323
        },
        {
          "duration": 0.14655168749999348,
          "durationTicks": 170,
          "midi": 58,
          "name": "A#3",
          "ticks": 564720,
          "time": 488.24783275000004,
          "velocity": 0.47244094488188976
        },
        {
          "duration": 0.14655168749999348,
          "durationTicks": 170,
          "midi": 65,
          "name": "F4",
          "ticks": 564720,
          "time": 488.24783275000004,
          "velocity": 0.47244094488188976
        },
        {
          "duration": 0.16810340624999753,
          "durationTicks": 195,
          "midi": 55,
          "name": "G3",
          "ticks": 564960,
          "time": 488.45472925,
          "velocity": 0.47244094488188976
        },
        {
          "duration": 0.16810340624999753,
          "durationTicks": 195,
          "midi": 63,
          "name": "D#4",
          "ticks": 564960,
          "time": 488.45472925,
          "velocity": 0.47244094488188976
        },
        {
          "duration": 0.13793100000003733,
          "durationTicks": 160,
          "midi": 58,
          "name": "A#3",
          "ticks": 565440,
          "time": 488.86852225,
          "velocity": 0.8661417322834646
        },
        {
          "duration": 0.13793100000003733,
          "durationTicks": 160,
          "midi": 70,
          "name": "A#4",
          "ticks": 565440,
          "time": 488.86852225,
          "velocity": 0.8661417322834646
        },
        {
          "duration": 0.13793099999998049,
          "durationTicks": 160,
          "midi": 55,
          "name": "G3",
          "ticks": 565680,
          "time": 489.07541875000004,
          "velocity": 0.8661417322834646
        },
        {
          "duration": 0.13793099999998049,
          "durationTicks": 160,
          "midi": 67,
          "name": "G4",
          "ticks": 565680,
          "time": 489.07541875000004,
          "velocity": 0.8661417322834646
        },
        {
          "duration": 0.13793100000003733,
          "durationTicks": 160,
          "midi": 58,
          "name": "A#3",
          "ticks": 565920,
          "time": 489.28231525,
          "velocity": 0.8661417322834646
        },
        {
          "duration": 0.13793100000003733,
          "durationTicks": 160,
          "midi": 70,
          "name": "A#4",
          "ticks": 565920,
          "time": 489.28231525,
          "velocity": 0.8661417322834646
        },
        {
          "duration": 0.13793099999998049,
          "durationTicks": 160,
          "midi": 51,
          "name": "D#3",
          "ticks": 566160,
          "time": 489.48921175000004,
          "velocity": 0.8661417322834646
        },
        {
          "duration": 0.13793099999998049,
          "durationTicks": 160,
          "midi": 63,
          "name": "D#4",
          "ticks": 566160,
          "time": 489.48921175000004,
          "velocity": 0.8661417322834646
        },
        {
          "duration": 0.13793100000003733,
          "durationTicks": 160,
          "midi": 55,
          "name": "G3",
          "ticks": 566400,
          "time": 489.69610825,
          "velocity": 0.8661417322834646
        },
        {
          "duration": 0.13793100000003733,
          "durationTicks": 160,
          "midi": 67,
          "name": "G4",
          "ticks": 566400,
          "time": 489.69610825,
          "velocity": 0.8661417322834646
        },
        {
          "duration": 0.13793099999998049,
          "durationTicks": 160,
          "midi": 46,
          "name": "A#2",
          "ticks": 566640,
          "time": 489.90300475000004,
          "velocity": 0.8661417322834646
        },
        {
          "duration": 0.13793099999998049,
          "durationTicks": 160,
          "midi": 58,
          "name": "A#3",
          "ticks": 566640,
          "time": 489.90300475000004,
          "velocity": 0.8661417322834646
        },
        {
          "duration": 0.13793100000003733,
          "durationTicks": 160,
          "midi": 51,
          "name": "D#3",
          "ticks": 566880,
          "time": 490.10990125,
          "velocity": 0.8661417322834646
        },
        {
          "duration": 0.13793100000003733,
          "durationTicks": 160,
          "midi": 63,
          "name": "D#4",
          "ticks": 566880,
          "time": 490.10990125,
          "velocity": 0.8661417322834646
        },
        {
          "duration": 0.13793099999998049,
          "durationTicks": 160,
          "midi": 58,
          "name": "A#3",
          "ticks": 567120,
          "time": 490.31679775000003,
          "velocity": 0.8661417322834646
        },
        {
          "duration": 0.13793099999998049,
          "durationTicks": 160,
          "midi": 65,
          "name": "F4",
          "ticks": 567120,
          "time": 490.31679775000003,
          "velocity": 0.8661417322834646
        },
        {
          "duration": 0.13793099999998049,
          "durationTicks": 160,
          "midi": 58,
          "name": "A#3",
          "ticks": 567360,
          "time": 490.52369425000006,
          "velocity": 0.8661417322834646
        },
        {
          "duration": 0.13793099999998049,
          "durationTicks": 160,
          "midi": 65,
          "name": "F4",
          "ticks": 567360,
          "time": 490.52369425000006,
          "velocity": 0.8661417322834646
        },
        {
          "duration": 0.13793099999998049,
          "durationTicks": 160,
          "midi": 58,
          "name": "A#3",
          "ticks": 567600,
          "time": 490.73059075000003,
          "velocity": 0.8661417322834646
        },
        {
          "duration": 0.13793099999998049,
          "durationTicks": 160,
          "midi": 65,
          "name": "F4",
          "ticks": 567600,
          "time": 490.73059075000003,
          "velocity": 0.8661417322834646
        },
        {
          "duration": 0.16810340624999753,
          "durationTicks": 195,
          "midi": 55,
          "name": "G3",
          "ticks": 567840,
          "time": 490.93748725000006,
          "velocity": 0.8661417322834646
        },
        {
          "duration": 0.16810340624999753,
          "durationTicks": 195,
          "midi": 63,
          "name": "D#4",
          "ticks": 567840,
          "time": 490.93748725000006,
          "velocity": 0.8661417322834646
        },
        {
          "duration": 0.13793099999998049,
          "durationTicks": 160,
          "midi": 58,
          "name": "A#3",
          "ticks": 568320,
          "time": 491.35128025000006,
          "velocity": 0.8661417322834646
        },
        {
          "duration": 0.13793099999998049,
          "durationTicks": 160,
          "midi": 70,
          "name": "A#4",
          "ticks": 568320,
          "time": 491.35128025000006,
          "velocity": 0.8661417322834646
        },
        {
          "duration": 0.13793099999998049,
          "durationTicks": 160,
          "midi": 55,
          "name": "G3",
          "ticks": 568560,
          "time": 491.55817675000003,
          "velocity": 0.8661417322834646
        },
        {
          "duration": 0.13793099999998049,
          "durationTicks": 160,
          "midi": 67,
          "name": "G4",
          "ticks": 568560,
          "time": 491.55817675000003,
          "velocity": 0.8661417322834646
        },
        {
          "duration": 0.13793099999998049,
          "durationTicks": 160,
          "midi": 58,
          "name": "A#3",
          "ticks": 568800,
          "time": 491.76507325000006,
          "velocity": 0.8661417322834646
        },
        {
          "duration": 0.13793099999998049,
          "durationTicks": 160,
          "midi": 70,
          "name": "A#4",
          "ticks": 568800,
          "time": 491.76507325000006,
          "velocity": 0.8661417322834646
        },
        {
          "duration": 0.13793099999998049,
          "durationTicks": 160,
          "midi": 51,
          "name": "D#3",
          "ticks": 569040,
          "time": 491.97196975,
          "velocity": 0.8661417322834646
        },
        {
          "duration": 0.13793099999998049,
          "durationTicks": 160,
          "midi": 63,
          "name": "D#4",
          "ticks": 569040,
          "time": 491.97196975,
          "velocity": 0.8661417322834646
        },
        {
          "duration": 0.13793099999998049,
          "durationTicks": 160,
          "midi": 55,
          "name": "G3",
          "ticks": 569280,
          "time": 492.17886625000006,
          "velocity": 0.8661417322834646
        },
        {
          "duration": 0.13793099999998049,
          "durationTicks": 160,
          "midi": 67,
          "name": "G4",
          "ticks": 569280,
          "time": 492.17886625000006,
          "velocity": 0.8661417322834646
        },
        {
          "duration": 0.13793099999998049,
          "durationTicks": 160,
          "midi": 46,
          "name": "A#2",
          "ticks": 569520,
          "time": 492.38576275,
          "velocity": 0.8661417322834646
        },
        {
          "duration": 0.13793099999998049,
          "durationTicks": 160,
          "midi": 58,
          "name": "A#3",
          "ticks": 569520,
          "time": 492.38576275,
          "velocity": 0.8661417322834646
        },
        {
          "duration": 0.13793099999998049,
          "durationTicks": 160,
          "midi": 51,
          "name": "D#3",
          "ticks": 569760,
          "time": 492.59265925000005,
          "velocity": 0.8661417322834646
        },
        {
          "duration": 0.13793099999998049,
          "durationTicks": 160,
          "midi": 63,
          "name": "D#4",
          "ticks": 569760,
          "time": 492.59265925000005,
          "velocity": 0.8661417322834646
        },
        {
          "duration": 0.13793100000003733,
          "durationTicks": 160,
          "midi": 58,
          "name": "A#3",
          "ticks": 570000,
          "time": 492.79955575,
          "velocity": 0.8661417322834646
        },
        {
          "duration": 0.13793100000003733,
          "durationTicks": 160,
          "midi": 65,
          "name": "F4",
          "ticks": 570000,
          "time": 492.79955575,
          "velocity": 0.8661417322834646
        },
        {
          "duration": 0.13793099999998049,
          "durationTicks": 160,
          "midi": 58,
          "name": "A#3",
          "ticks": 570240,
          "time": 493.00645225000005,
          "velocity": 0.8661417322834646
        },
        {
          "duration": 0.13793099999998049,
          "durationTicks": 160,
          "midi": 65,
          "name": "F4",
          "ticks": 570240,
          "time": 493.00645225000005,
          "velocity": 0.8661417322834646
        },
        {
          "duration": 0.13793100000003733,
          "durationTicks": 160,
          "midi": 58,
          "name": "A#3",
          "ticks": 570480,
          "time": 493.21334875,
          "velocity": 0.8661417322834646
        },
        {
          "duration": 0.13793100000003733,
          "durationTicks": 160,
          "midi": 65,
          "name": "F4",
          "ticks": 570480,
          "time": 493.21334875,
          "velocity": 0.8661417322834646
        },
        {
          "duration": 0.16810340624999753,
          "durationTicks": 195,
          "midi": 55,
          "name": "G3",
          "ticks": 570720,
          "time": 493.42024525000005,
          "velocity": 0.8661417322834646
        },
        {
          "duration": 0.16810340624999753,
          "durationTicks": 195,
          "midi": 63,
          "name": "D#4",
          "ticks": 570720,
          "time": 493.42024525000005,
          "velocity": 0.8661417322834646
        },
        {
          "duration": 0.14655168749999348,
          "durationTicks": 170,
          "midi": 58,
          "name": "A#3",
          "ticks": 571200,
          "time": 493.83403825000005,
          "velocity": 0.8661417322834646
        },
        {
          "duration": 0.14655168749999348,
          "durationTicks": 170,
          "midi": 65,
          "name": "F4",
          "ticks": 571200,
          "time": 493.83403825000005,
          "velocity": 0.8661417322834646
        },
        {
          "duration": 0.16810340624999753,
          "durationTicks": 195,
          "midi": 63,
          "name": "D#4",
          "ticks": 571440,
          "time": 494.04093475,
          "velocity": 0.8661417322834646
        },
        {
          "duration": 0.16810340624999753,
          "durationTicks": 195,
          "midi": 67,
          "name": "G4",
          "ticks": 571440,
          "time": 494.04093475,
          "velocity": 0.8661417322834646
        },
        {
          "duration": 0.14655168749999348,
          "durationTicks": 170,
          "midi": 58,
          "name": "A#3",
          "ticks": 571920,
          "time": 494.45472775,
          "velocity": 0.8661417322834646
        },
        {
          "duration": 0.14655168749999348,
          "durationTicks": 170,
          "midi": 65,
          "name": "F4",
          "ticks": 571920,
          "time": 494.45472775,
          "velocity": 0.8661417322834646
        },
        {
          "duration": 0.16810340624999753,
          "durationTicks": 195,
          "midi": 63,
          "name": "D#4",
          "ticks": 572160,
          "time": 494.66162425000005,
          "velocity": 0.8661417322834646
        },
        {
          "duration": 0.16810340624999753,
          "durationTicks": 195,
          "midi": 67,
          "name": "G4",
          "ticks": 572160,
          "time": 494.66162425000005,
          "velocity": 0.8661417322834646
        },
        {
          "duration": 0.14655168749999348,
          "durationTicks": 170,
          "midi": 58,
          "name": "A#3",
          "ticks": 572640,
          "time": 495.07541725000004,
          "velocity": 0.8661417322834646
        },
        {
          "duration": 0.14655168749999348,
          "durationTicks": 170,
          "midi": 65,
          "name": "F4",
          "ticks": 572640,
          "time": 495.07541725000004,
          "velocity": 0.8661417322834646
        },
        {
          "duration": 0.16810340624999753,
          "durationTicks": 195,
          "midi": 63,
          "name": "D#4",
          "ticks": 572880,
          "time": 495.28231375,
          "velocity": 0.8661417322834646
        },
        {
          "duration": 0.16810340624999753,
          "durationTicks": 195,
          "midi": 67,
          "name": "G4",
          "ticks": 572880,
          "time": 495.28231375,
          "velocity": 0.8661417322834646
        },
        {
          "duration": 0.14655168750005032,
          "durationTicks": 170,
          "midi": 58,
          "name": "A#3",
          "ticks": 573360,
          "time": 495.69610675,
          "velocity": 0.8661417322834646
        },
        {
          "duration": 0.14655168750005032,
          "durationTicks": 170,
          "midi": 65,
          "name": "F4",
          "ticks": 573360,
          "time": 495.69610675,
          "velocity": 0.8661417322834646
        },
        {
          "duration": 0.16810340624999753,
          "durationTicks": 195,
          "midi": 55,
          "name": "G3",
          "ticks": 573600,
          "time": 495.90300325000004,
          "velocity": 0.8661417322834646
        },
        {
          "duration": 0.16810340624999753,
          "durationTicks": 195,
          "midi": 63,
          "name": "D#4",
          "ticks": 573600,
          "time": 495.90300325000004,
          "velocity": 0.8661417322834646
        }
      ]
    },
    {
      "channel": 0,
      "controlChanges": {},
      "pitchBends": [],
      "instrument": {
        "family": "piano",
        "number": 0,
        "name": "acoustic grand piano"
      },
      "name": "1st Violin",
      "notes": [],
      "endOfTrackTicks": 576480
    },
    {
      "channel": 6,
      "controlChanges": {
        "7": [
          {
            "number": 7,
            "ticks": 0,
            "time": 0,
            "value": 1
          },
          {
            "number": 7,
            "ticks": 575040,
            "time": 497.14438225000004,
            "value": 0
          }
        ],
        "10": [
          {
            "number": 10,
            "ticks": 0,
            "time": 0,
            "value": 0.15748031496062992
          }
        ],
        "91": [
          {
            "number": 91,
            "ticks": 0,
            "time": 0,
            "value": 0.5905511811023622
          }
        ]
      },
      "pitchBends": [],
      "instrument": {
        "family": "ensemble",
        "number": 48,
        "name": "string ensemble 1"
      },
      "name": "",
      "notes": [
        {
          "duration": 0.1290319999999987,
          "durationTicks": 160,
          "midi": 65,
          "name": "F4",
          "ticks": 32640,
          "time": 26.322528,
          "velocity": 0.31496062992125984
        },
        {
          "duration": 0.1290319999999987,
          "durationTicks": 160,
          "midi": 58,
          "name": "A#3",
          "ticks": 32880,
          "time": 26.516075999999998,
          "velocity": 0.31496062992125984
        },
        {
          "duration": 0.1290319999999987,
          "durationTicks": 160,
          "midi": 65,
          "name": "F4",
          "ticks": 33120,
          "time": 26.709623999999998,
          "velocity": 0.31496062992125984
        },
        {
          "duration": 0.12903199999999515,
          "durationTicks": 160,
          "midi": 58,
          "name": "A#3",
          "ticks": 33360,
          "time": 26.903172,
          "velocity": 0.31496062992125984
        },
        {
          "duration": 0.12903199999999515,
          "durationTicks": 160,
          "midi": 67,
          "name": "G4",
          "ticks": 33600,
          "time": 27.09672,
          "velocity": 0.31496062992125984
        },
        {
          "duration": 0.12903199999999515,
          "durationTicks": 160,
          "midi": 58,
          "name": "A#3",
          "ticks": 33840,
          "time": 27.290268,
          "velocity": 0.31496062992125984
        },
        {
          "duration": 0.1290319999999987,
          "durationTicks": 160,
          "midi": 67,
          "name": "G4",
          "ticks": 34080,
          "time": 27.483816,
          "velocity": 0.31496062992125984
        },
        {
          "duration": 0.1290319999999987,
          "durationTicks": 160,
          "midi": 58,
          "name": "A#3",
          "ticks": 34320,
          "time": 27.677364,
          "velocity": 0.31496062992125984
        },
        {
          "duration": 0.1290319999999987,
          "durationTicks": 160,
          "midi": 68,
          "name": "G#4",
          "ticks": 34560,
          "time": 27.870912,
          "velocity": 0.31496062992125984
        },
        {
          "duration": 0.1290319999999987,
          "durationTicks": 160,
          "midi": 58,
          "name": "A#3",
          "ticks": 34800,
          "time": 28.06446,
          "velocity": 0.31496062992125984
        },
        {
          "duration": 0.1290319999999987,
          "durationTicks": 160,
          "midi": 68,
          "name": "G#4",
          "ticks": 35040,
          "time": 28.258008,
          "velocity": 0.31496062992125984
        },
        {
          "duration": 0.1290319999999987,
          "durationTicks": 160,
          "midi": 58,
          "name": "A#3",
          "ticks": 35280,
          "time": 28.451556,
          "velocity": 0.31496062992125984
        },
        {
          "duration": 0.1290319999999987,
          "durationTicks": 160,
          "midi": 65,
          "name": "F4",
          "ticks": 35520,
          "time": 28.645104,
          "velocity": 0.31496062992125984
        },
        {
          "duration": 0.1290319999999987,
          "durationTicks": 160,
          "midi": 65,
          "name": "F4",
          "ticks": 36480,
          "time": 29.419296,
          "velocity": 0.31496062992125984
        },
        {
          "duration": 0.1290319999999987,
          "durationTicks": 160,
          "midi": 58,
          "name": "A#3",
          "ticks": 36720,
          "time": 29.612844,
          "velocity": 0.31496062992125984
        },
        {
          "duration": 0.1290319999999987,
          "durationTicks": 160,
          "midi": 65,
          "name": "F4",
          "ticks": 36960,
          "time": 29.806392,
          "velocity": 0.31496062992125984
        },
        {
          "duration": 0.1290319999999987,
          "durationTicks": 160,
          "midi": 58,
          "name": "A#3",
          "ticks": 37200,
          "time": 29.99994,
          "velocity": 0.31496062992125984
        },
        {
          "duration": 0.1290319999999987,
          "durationTicks": 160,
          "midi": 67,
          "name": "G4",
          "ticks": 37440,
          "time": 30.193488,
          "velocity": 0.31496062992125984
        },
        {
          "duration": 0.1290319999999987,
          "durationTicks": 160,
          "midi": 58,
          "name": "A#3",
          "ticks": 37680,
          "time": 30.387036,
          "velocity": 0.31496062992125984
        },
        {
          "duration": 0.1290319999999987,
          "durationTicks": 160,
          "midi": 67,
          "name": "G4",
          "ticks": 37920,
          "time": 30.580583999999998,
          "velocity": 0.31496062992125984
        },
        {
          "duration": 0.1290319999999987,
          "durationTicks": 160,
          "midi": 58,
          "name": "A#3",
          "ticks": 38160,
          "time": 30.774131999999998,
          "velocity": 0.31496062992125984
        },
        {
          "duration": 0.12903199999999515,
          "durationTicks": 160,
          "midi": 68,
          "name": "G#4",
          "ticks": 38400,
          "time": 30.96768,
          "velocity": 0.31496062992125984
        },
        {
          "duration": 0.12903199999999515,
          "durationTicks": 160,
          "midi": 58,
          "name": "A#3",
          "ticks": 38640,
          "time": 31.161228,
          "velocity": 0.31496062992125984
        },
        {
          "duration": 0.12903199999999515,
          "durationTicks": 160,
          "midi": 68,
          "name": "G#4",
          "ticks": 38880,
          "time": 31.354776,
          "velocity": 0.31496062992125984
        },
        {
          "duration": 0.12903199999999515,
          "durationTicks": 160,
          "midi": 58,
          "name": "A#3",
          "ticks": 39120,
          "time": 31.548324,
          "velocity": 0.31496062992125984
        },
        {
          "duration": 0.1290319999999987,
          "durationTicks": 160,
          "midi": 65,
          "name": "F4",
          "ticks": 39360,
          "time": 31.741872,
          "velocity": 0.31496062992125984
        },
        {
          "duration": 0.38709599999999966,
          "durationTicks": 480,
          "midi": 75,
          "name": "D#5",
          "ticks": 40800,
          "time": 32.90316,
          "velocity": 0.5511811023622047
        },
        {
          "duration": 0.38709599999999966,
          "durationTicks": 480,
          "midi": 74,
          "name": "D5",
          "ticks": 41280,
          "time": 33.290256,
          "velocity": 0.5511811023622047
        },
        {
          "duration": 0.38709599999999966,
          "durationTicks": 480,
          "midi": 77,
          "name": "F5",
          "ticks": 41760,
          "time": 33.677352,
          "velocity": 0.5511811023622047
        },
        {
          "duration": 0.38709599999999966,
          "durationTicks": 480,
          "midi": 75,
          "name": "D#5",
          "ticks": 42240,
          "time": 34.064448,
          "velocity": 0.5511811023622047
        },
        {
          "duration": 0.38709599999999966,
          "durationTicks": 480,
          "midi": 79,
          "name": "G5",
          "ticks": 42720,
          "time": 34.451544,
          "velocity": 0.5511811023622047
        },
        {
          "duration": 0.38709599999999966,
          "durationTicks": 480,
          "midi": 77,
          "name": "F5",
          "ticks": 43200,
          "time": 34.83864,
          "velocity": 0.5511811023622047
        },
        {
          "duration": 0.38709599999999966,
          "durationTicks": 480,
          "midi": 80,
          "name": "G#5",
          "ticks": 43680,
          "time": 35.225736,
          "velocity": 0.5511811023622047
        },
        {
          "duration": 0.1370965000000055,
          "durationTicks": 170,
          "midi": 79,
          "name": "G5",
          "ticks": 44160,
          "time": 35.612832,
          "velocity": 0.5511811023622047
        },
        {
          "duration": 0.19354799999999983,
          "durationTicks": 240,
          "midi": 74,
          "name": "D5",
          "ticks": 44400,
          "time": 35.80638,
          "velocity": 0.7086614173228346
        },
        {
          "duration": 0.19354799999999983,
          "durationTicks": 240,
          "midi": 75,
          "name": "D#5",
          "ticks": 44640,
          "time": 35.999928,
          "velocity": 0.7086614173228346
        },
        {
          "duration": 0.19354799999999983,
          "durationTicks": 240,
          "midi": 77,
          "name": "F5",
          "ticks": 44880,
          "time": 36.193476,
          "velocity": 0.7086614173228346
        },
        {
          "duration": 0.12903200000000226,
          "durationTicks": 160,
          "midi": 79,
          "name": "G5",
          "ticks": 45120,
          "time": 36.387024,
          "velocity": 0.7086614173228346
        },
        {
          "duration": 0.06129020000000196,
          "durationTicks": 76,
          "midi": 77,
          "name": "F5",
          "ticks": 45600,
          "time": 36.774119999999996,
          "velocity": 0.7086614173228346
        },
        {
          "duration": 0.06129020000000196,
          "durationTicks": 76,
          "midi": 79,
          "name": "G5",
          "ticks": 45680,
          "time": 36.838636,
          "velocity": 0.7086614173228346
        },
        {
          "duration": 0.061290199999994854,
          "durationTicks": 76,
          "midi": 77,
          "name": "F5",
          "ticks": 45760,
          "time": 36.903152,
          "velocity": 0.7086614173228346
        },
        {
          "duration": 0.06129020000000196,
          "durationTicks": 76,
          "midi": 79,
          "name": "G5",
          "ticks": 45840,
          "time": 36.967667999999996,
          "velocity": 0.7086614173228346
        },
        {
          "duration": 0.06129020000000196,
          "durationTicks": 76,
          "midi": 75,
          "name": "D#5",
          "ticks": 45920,
          "time": 37.032184,
          "velocity": 0.7086614173228346
        },
        {
          "duration": 0.06129020000000196,
          "durationTicks": 76,
          "midi": 77,
          "name": "F5",
          "ticks": 46000,
          "time": 37.0967,
          "velocity": 0.7086614173228346
        },
        {
          "duration": 0.12903200000000226,
          "durationTicks": 160,
          "midi": 75,
          "name": "D#5",
          "ticks": 46080,
          "time": 37.161215999999996,
          "velocity": 0.7086614173228346
        },
        {
          "duration": 0.12903199999999515,
          "durationTicks": 160,
          "midi": 67,
          "name": "G4",
          "ticks": 48000,
          "time": 38.7096,
          "velocity": 0.3543307086614173
        },
        {
          "duration": 0.12903199999999515,
          "durationTicks": 160,
          "midi": 67,
          "name": "G4",
          "ticks": 49440,
          "time": 39.870888,
          "velocity": 0.3543307086614173
        },
        {
          "duration": 0.12903199999999515,
          "durationTicks": 160,
          "midi": 68,
          "name": "G#4",
          "ticks": 49920,
          "time": 40.257984,
          "velocity": 0.3543307086614173
        },
        {
          "duration": 0.12903199999999515,
          "durationTicks": 160,
          "midi": 68,
          "name": "G#4",
          "ticks": 51360,
          "time": 41.419272,
          "velocity": 0.3543307086614173
        },
        {
          "duration": 0.12903199999999515,
          "durationTicks": 160,
          "midi": 67,
          "name": "G4",
          "ticks": 51840,
          "time": 41.806368,
          "velocity": 0.3543307086614173
        },
        {
          "duration": 0.12903200000000226,
          "durationTicks": 160,
          "midi": 67,
          "name": "G4",
          "ticks": 52320,
          "time": 42.193464,
          "velocity": 0.3543307086614173
        },
        {
          "duration": 0.12903200000000226,
          "durationTicks": 160,
          "midi": 68,
          "name": "G#4",
          "ticks": 52800,
          "time": 42.58056,
          "velocity": 0.3543307086614173
        },
        {
          "duration": 0.12903200000000226,
          "durationTicks": 160,
          "midi": 68,
          "name": "G#4",
          "ticks": 53280,
          "time": 42.967656,
          "velocity": 0.3543307086614173
        },
        {
          "duration": 0.7741919999999993,
          "durationTicks": 960,
          "midi": 67,
          "name": "G4",
          "ticks": 53760,
          "time": 43.354752,
          "velocity": 0.3543307086614173
        },
        {
          "duration": 0.12903200000000226,
          "durationTicks": 160,
          "midi": 65,
          "name": "F4",
          "ticks": 54720,
          "time": 44.128944,
          "velocity": 0.3543307086614173
        },
        {
          "duration": 1.161288000000006,
          "durationTicks": 1440,
          "midi": 72,
          "name": "C5",
          "ticks": 55680,
          "time": 44.903135999999996,
          "velocity": 0.3543307086614173
        },
        {
          "duration": 0.23387050000000187,
          "durationTicks": 290,
          "midi": 71,
          "name": "B4",
          "ticks": 57120,
          "time": 46.064424,
          "velocity": 0.3543307086614173
        },
        {
          "duration": 1.0080625000000012,
          "durationTicks": 1250,
          "midi": 70,
          "name": "A#4",
          "ticks": 57600,
          "time": 46.45152,
          "velocity": 0.3543307086614173
        },
        {
          "duration": 0.38387019999999694,
          "durationTicks": 476,
          "midi": 63,
          "name": "D#4",
          "ticks": 59040,
          "time": 47.612808,
          "velocity": 0.3543307086614173
        },
        {
          "duration": 0.38387019999999694,
          "durationTicks": 476,
          "midi": 63,
          "name": "D#4",
          "ticks": 59520,
          "time": 47.999904,
          "velocity": 0.3543307086614173
        },
        {
          "duration": 0.38387019999999694,
          "durationTicks": 476,
          "midi": 63,
          "name": "D#4",
          "ticks": 60000,
          "time": 48.387,
          "velocity": 0.3543307086614173
        },
        {
          "duration": 0.38387019999999694,
          "durationTicks": 476,
          "midi": 62,
          "name": "D4",
          "ticks": 60480,
          "time": 48.774096,
          "velocity": 0.3543307086614173
        },
        {
          "duration": 0.38387019999999694,
          "durationTicks": 476,
          "midi": 62,
          "name": "D4",
          "ticks": 60960,
          "time": 49.161192,
          "velocity": 0.3543307086614173
        },
        {
          "duration": 0.7741919999999993,
          "durationTicks": 960,
          "midi": 65,
          "name": "F4",
          "ticks": 61440,
          "time": 49.548288,
          "velocity": 0.3543307086614173
        },
        {
          "duration": 0.12903200000000226,
          "durationTicks": 160,
          "midi": 63,
          "name": "D#4",
          "ticks": 62400,
          "time": 50.32248,
          "velocity": 0.3543307086614173
        },
        {
          "duration": 0.12903200000000226,
          "durationTicks": 160,
          "midi": 71,
          "name": "B4",
          "ticks": 63360,
          "time": 51.096672,
          "velocity": 0.3543307086614173
        },
        {
          "duration": 0.12903200000000936,
          "durationTicks": 160,
          "midi": 71,
          "name": "B4",
          "ticks": 64800,
          "time": 52.25796,
          "velocity": 0.3543307086614173
        },
        {
          "duration": 0.12903200000000936,
          "durationTicks": 160,
          "midi": 72,
          "name": "C5",
          "ticks": 65280,
          "time": 52.645056,
          "velocity": 0.3543307086614173
        },
        {
          "duration": 0.12903200000000936,
          "durationTicks": 160,
          "midi": 71,
          "name": "B4",
          "ticks": 65760,
          "time": 53.032151999999996,
          "velocity": 0.3543307086614173
        },
        {
          "duration": 0.12903200000000936,
          "durationTicks": 160,
          "midi": 72,
          "name": "C5",
          "ticks": 66240,
          "time": 53.419247999999996,
          "velocity": 0.3543307086614173
        },
        {
          "duration": 0.12903200000000226,
          "durationTicks": 160,
          "midi": 69,
          "name": "A4",
          "ticks": 67200,
          "time": 54.19344,
          "velocity": 0.3543307086614173
        },
        {
          "duration": 0.12903200000000226,
          "durationTicks": 160,
          "midi": 69,
          "name": "A4",
          "ticks": 68640,
          "time": 55.354728,
          "velocity": 0.3543307086614173
        },
        {
          "duration": 0.12903200000000226,
          "durationTicks": 160,
          "midi": 70,
          "name": "A#4",
          "ticks": 69120,
          "time": 55.741824,
          "velocity": 0.3543307086614173
        },
        {
          "duration": 0.12903200000000226,
          "durationTicks": 160,
          "midi": 69,
          "name": "A4",
          "ticks": 69600,
          "time": 56.12892,
          "velocity": 0.3543307086614173
        },
        {
          "duration": 0.12903200000000226,
          "durationTicks": 160,
          "midi": 70,
          "name": "A#4",
          "ticks": 70080,
          "time": 56.516016,
          "velocity": 0.3543307086614173
        },
        {
          "duration": 1.161287999999999,
          "durationTicks": 1440,
          "midi": 72,
          "name": "C5",
          "ticks": 71040,
          "time": 57.290208,
          "velocity": 0.3543307086614173
        },
        {
          "duration": 0.23387049999999476,
          "durationTicks": 290,
          "midi": 71,
          "name": "B4",
          "ticks": 72480,
          "time": 58.451496,
          "velocity": 0.3543307086614173
        },
        {
          "duration": 1.008062499999994,
          "durationTicks": 1250,
          "midi": 70,
          "name": "A#4",
          "ticks": 72960,
          "time": 58.838592,
          "velocity": 0.3543307086614173
        },
        {
          "duration": 0.38387020000000405,
          "durationTicks": 476,
          "midi": 63,
          "name": "D#4",
          "ticks": 74400,
          "time": 59.99988,
          "velocity": 0.3543307086614173
        },
        {
          "duration": 0.38387020000000405,
          "durationTicks": 476,
          "midi": 63,
          "name": "D#4",
          "ticks": 74880,
          "time": 60.386976,
          "velocity": 0.3543307086614173
        },
        {
          "duration": 0.38387020000000405,
          "durationTicks": 476,
          "midi": 63,
          "name": "D#4",
          "ticks": 75360,
          "time": 60.774072,
          "velocity": 0.3543307086614173
        },
        {
          "duration": 0.38387020000000405,
          "durationTicks": 476,
          "midi": 62,
          "name": "D4",
          "ticks": 75840,
          "time": 61.161167999999996,
          "velocity": 0.3543307086614173
        },
        {
          "duration": 0.38387020000000405,
          "durationTicks": 476,
          "midi": 62,
          "name": "D4",
          "ticks": 76320,
          "time": 61.548263999999996,
          "velocity": 0.3543307086614173
        },
        {
          "duration": 0.7741919999999993,
          "durationTicks": 960,
          "midi": 65,
          "name": "F4",
          "ticks": 76800,
          "time": 61.93536,
          "velocity": 0.3543307086614173
        },
        {
          "duration": 0.12903200000000226,
          "durationTicks": 160,
          "midi": 63,
          "name": "D#4",
          "ticks": 77760,
          "time": 62.709552,
          "velocity": 0.3543307086614173
        },
        {
          "duration": 0.12903200000000226,
          "durationTicks": 160,
          "midi": 65,
          "name": "F4",
          "ticks": 78720,
          "time": 63.483744,
          "velocity": 0.31496062992125984
        },
        {
          "duration": 0.12903200000000226,
          "durationTicks": 160,
          "midi": 58,
          "name": "A#3",
          "ticks": 78960,
          "time": 63.677292,
          "velocity": 0.31496062992125984
        },
        {
          "duration": 0.12903200000000226,
          "durationTicks": 160,
          "midi": 65,
          "name": "F4",
          "ticks": 79200,
          "time": 63.87084,
          "velocity": 0.31496062992125984
        },
        {
          "duration": 0.12903200000000936,
          "durationTicks": 160,
          "midi": 58,
          "name": "A#3",
          "ticks": 79440,
          "time": 64.064388,
          "velocity": 0.31496062992125984
        },
        {
          "duration": 0.12903199999999515,
          "durationTicks": 160,
          "midi": 67,
          "name": "G4",
          "ticks": 79680,
          "time": 64.257936,
          "velocity": 0.31496062992125984
        },
        {
          "duration": 0.12903200000000936,
          "durationTicks": 160,
          "midi": 58,
          "name": "A#3",
          "ticks": 79920,
          "time": 64.451484,
          "velocity": 0.31496062992125984
        },
        {
          "duration": 0.12903200000000936,
          "durationTicks": 160,
          "midi": 67,
          "name": "G4",
          "ticks": 80160,
          "time": 64.645032,
          "velocity": 0.31496062992125984
        },
        {
          "duration": 0.12903200000000936,
          "durationTicks": 160,
          "midi": 58,
          "name": "A#3",
          "ticks": 80400,
          "time": 64.83858,
          "velocity": 0.31496062992125984
        },
        {
          "duration": 0.12903200000000936,
          "durationTicks": 160,
          "midi": 68,
          "name": "G#4",
          "ticks": 80640,
          "time": 65.032128,
          "velocity": 0.31496062992125984
        },
        {
          "duration": 0.12903200000000936,
          "durationTicks": 160,
          "midi": 58,
          "name": "A#3",
          "ticks": 80880,
          "time": 65.22567599999999,
          "velocity": 0.31496062992125984
        },
        {
          "duration": 0.12903200000000936,
          "durationTicks": 160,
          "midi": 68,
          "name": "G#4",
          "ticks": 81120,
          "time": 65.419224,
          "velocity": 0.31496062992125984
        },
        {
          "duration": 0.12903200000000936,
          "durationTicks": 160,
          "midi": 58,
          "name": "A#3",
          "ticks": 81360,
          "time": 65.61277199999999,
          "velocity": 0.31496062992125984
        },
        {
          "duration": 0.12903200000000936,
          "durationTicks": 160,
          "midi": 65,
          "name": "F4",
          "ticks": 81600,
          "time": 65.80632,
          "velocity": 0.31496062992125984
        },
        {
          "duration": 0.12903200000000936,
          "durationTicks": 160,
          "midi": 58,
          "name": "A#3",
          "ticks": 81840,
          "time": 65.99986799999999,
          "velocity": 0.31496062992125984
        },
        {
          "duration": 0.12903200000000936,
          "durationTicks": 160,
          "midi": 62,
          "name": "D4",
          "ticks": 82080,
          "time": 66.193416,
          "velocity": 0.31496062992125984
        },
        {
          "duration": 0.12903199999999515,
          "durationTicks": 160,
          "midi": 63,
          "name": "D#4",
          "ticks": 82320,
          "time": 66.386964,
          "velocity": 0.31496062992125984
        },
        {
          "duration": 0.12903200000000936,
          "durationTicks": 160,
          "midi": 65,
          "name": "F4",
          "ticks": 82560,
          "time": 66.580512,
          "velocity": 0.31496062992125984
        },
        {
          "duration": 0.12903199999999515,
          "durationTicks": 160,
          "midi": 58,
          "name": "A#3",
          "ticks": 82800,
          "time": 66.77406,
          "velocity": 0.31496062992125984
        },
        {
          "duration": 0.12903200000000936,
          "durationTicks": 160,
          "midi": 65,
          "name": "F4",
          "ticks": 83040,
          "time": 66.967608,
          "velocity": 0.31496062992125984
        },
        {
          "duration": 0.12903199999999515,
          "durationTicks": 160,
          "midi": 58,
          "name": "A#3",
          "ticks": 83280,
          "time": 67.161156,
          "velocity": 0.31496062992125984
        },
        {
          "duration": 0.12903200000000936,
          "durationTicks": 160,
          "midi": 67,
          "name": "G4",
          "ticks": 83520,
          "time": 67.354704,
          "velocity": 0.31496062992125984
        },
        {
          "duration": 0.12903199999999515,
          "durationTicks": 160,
          "midi": 58,
          "name": "A#3",
          "ticks": 83760,
          "time": 67.548252,
          "velocity": 0.31496062992125984
        },
        {
          "duration": 0.12903200000000936,
          "durationTicks": 160,
          "midi": 67,
          "name": "G4",
          "ticks": 84000,
          "time": 67.7418,
          "velocity": 0.31496062992125984
        },
        {
          "duration": 0.12903199999999515,
          "durationTicks": 160,
          "midi": 58,
          "name": "A#3",
          "ticks": 84240,
          "time": 67.935348,
          "velocity": 0.31496062992125984
        },
        {
          "duration": 0.12903200000000936,
          "durationTicks": 160,
          "midi": 68,
          "name": "G#4",
          "ticks": 84480,
          "time": 68.128896,
          "velocity": 0.31496062992125984
        },
        {
          "duration": 0.12903199999999515,
          "durationTicks": 160,
          "midi": 58,
          "name": "A#3",
          "ticks": 84720,
          "time": 68.322444,
          "velocity": 0.31496062992125984
        },
        {
          "duration": 0.12903200000000936,
          "durationTicks": 160,
          "midi": 68,
          "name": "G#4",
          "ticks": 84960,
          "time": 68.515992,
          "velocity": 0.31496062992125984
        },
        {
          "duration": 0.12903199999999515,
          "durationTicks": 160,
          "midi": 58,
          "name": "A#3",
          "ticks": 85200,
          "time": 68.70954,
          "velocity": 0.31496062992125984
        },
        {
          "duration": 0.12903200000000936,
          "durationTicks": 160,
          "midi": 65,
          "name": "F4",
          "ticks": 85440,
          "time": 68.903088,
          "velocity": 0.31496062992125984
        },
        {
          "duration": 0.12903199999999515,
          "durationTicks": 160,
          "midi": 70,
          "name": "A#4",
          "ticks": 85680,
          "time": 69.096636,
          "velocity": 0.5511811023622047
        },
        {
          "duration": 0.12903200000000936,
          "durationTicks": 160,
          "midi": 75,
          "name": "D#5",
          "ticks": 85920,
          "time": 69.290184,
          "velocity": 0.5511811023622047
        },
        {
          "duration": 0.12903199999999515,
          "durationTicks": 160,
          "midi": 79,
          "name": "G5",
          "ticks": 86160,
          "time": 69.483732,
          "velocity": 0.5511811023622047
        },
        {
          "duration": 0.12903200000000936,
          "durationTicks": 160,
          "midi": 82,
          "name": "A#5",
          "ticks": 86400,
          "time": 69.67728,
          "velocity": 0.5511811023622047
        },
        {
          "duration": 0.12903199999999515,
          "durationTicks": 160,
          "midi": 82,
          "name": "A#5",
          "ticks": 86640,
          "time": 69.870828,
          "velocity": 0.5511811023622047
        },
        {
          "duration": 0.12903200000000936,
          "durationTicks": 160,
          "midi": 82,
          "name": "A#5",
          "ticks": 86880,
          "time": 70.064376,
          "velocity": 0.5511811023622047
        },
        {
          "duration": 0.12903199999999515,
          "durationTicks": 160,
          "midi": 82,
          "name": "A#5",
          "ticks": 87120,
          "time": 70.257924,
          "velocity": 0.5511811023622047
        },
        {
          "duration": 0.12903200000000936,
          "durationTicks": 160,
          "midi": 82,
          "name": "A#5",
          "ticks": 87360,
          "time": 70.451472,
          "velocity": 0.5511811023622047
        },
        {
          "duration": 0.12903199999999515,
          "durationTicks": 160,
          "midi": 82,
          "name": "A#5",
          "ticks": 87600,
          "time": 70.64502,
          "velocity": 0.5511811023622047
        },
        {
          "duration": 0.12903200000000936,
          "durationTicks": 160,
          "midi": 82,
          "name": "A#5",
          "ticks": 87840,
          "time": 70.838568,
          "velocity": 0.5511811023622047
        },
        {
          "duration": 0.12903199999999515,
          "durationTicks": 160,
          "midi": 82,
          "name": "A#5",
          "ticks": 88080,
          "time": 71.032116,
          "velocity": 0.5511811023622047
        },
        {
          "duration": 0.12903200000000936,
          "durationTicks": 160,
          "midi": 82,
          "name": "A#5",
          "ticks": 88320,
          "time": 71.225664,
          "velocity": 0.5511811023622047
        },
        {
          "duration": 0.12903199999999515,
          "durationTicks": 160,
          "midi": 82,
          "name": "A#5",
          "ticks": 88560,
          "time": 71.419212,
          "velocity": 0.5511811023622047
        },
        {
          "duration": 0.12903200000000936,
          "durationTicks": 160,
          "midi": 82,
          "name": "A#5",
          "ticks": 88800,
          "time": 71.61276,
          "velocity": 0.5511811023622047
        },
        {
          "duration": 0.12903199999999515,
          "durationTicks": 160,
          "midi": 82,
          "name": "A#5",
          "ticks": 89040,
          "time": 71.806308,
          "velocity": 0.5511811023622047
        },
        {
          "duration": 0.12903200000000936,
          "durationTicks": 160,
          "midi": 82,
          "name": "A#5",
          "ticks": 89280,
          "time": 71.999856,
          "velocity": 0.5511811023622047
        },
        {
          "duration": 0.12903199999999515,
          "durationTicks": 160,
          "midi": 82,
          "name": "A#5",
          "ticks": 89520,
          "time": 72.193404,
          "velocity": 0.5511811023622047
        },
        {
          "duration": 0.12903200000000936,
          "durationTicks": 160,
          "midi": 82,
          "name": "A#5",
          "ticks": 89760,
          "time": 72.386952,
          "velocity": 0.5511811023622047
        },
        {
          "duration": 0.12903199999999515,
          "durationTicks": 160,
          "midi": 82,
          "name": "A#5",
          "ticks": 90000,
          "time": 72.5805,
          "velocity": 0.5511811023622047
        },
        {
          "duration": 0.1370964999999984,
          "durationTicks": 170,
          "midi": 79,
          "name": "G5",
          "ticks": 90240,
          "time": 72.774048,
          "velocity": 0.5511811023622047
        },
        {
          "duration": 0.19354799999999273,
          "durationTicks": 240,
          "midi": 74,
          "name": "D5",
          "ticks": 90480,
          "time": 72.967596,
          "velocity": 0.7086614173228346
        },
        {
          "duration": 0.19354800000000694,
          "durationTicks": 240,
          "midi": 75,
          "name": "D#5",
          "ticks": 90720,
          "time": 73.161144,
          "velocity": 0.7086614173228346
        },
        {
          "duration": 0.19354799999999273,
          "durationTicks": 240,
          "midi": 77,
          "name": "F5",
          "ticks": 90960,
          "time": 73.354692,
          "velocity": 0.7086614173228346
        },
        {
          "duration": 0.12903200000000936,
          "durationTicks": 160,
          "midi": 79,
          "name": "G5",
          "ticks": 91200,
          "time": 73.54823999999999,
          "velocity": 0.7086614173228346
        },
        {
          "duration": 0.12903200000000936,
          "durationTicks": 160,
          "midi": 77,
          "name": "F5",
          "ticks": 91680,
          "time": 73.93533599999999,
          "velocity": 0.7086614173228346
        },
        {
          "duration": 0.12903200000000936,
          "durationTicks": 160,
          "midi": 75,
          "name": "D#5",
          "ticks": 92160,
          "time": 74.32243199999999,
          "velocity": 0.7086614173228346
        },
        {
          "duration": 0.12903199999999515,
          "durationTicks": 160,
          "midi": 58,
          "name": "A#3",
          "ticks": 92640,
          "time": 74.709528,
          "velocity": 0.7086614173228346
        },
        {
          "duration": 0.12903199999999515,
          "durationTicks": 160,
          "midi": 63,
          "name": "D#4",
          "ticks": 92640,
          "time": 74.709528,
          "velocity": 0.7086614173228346
        },
        {
          "duration": 0.12903199999999515,
          "durationTicks": 160,
          "midi": 75,
          "name": "D#5",
          "ticks": 92640,
          "time": 74.709528,
          "velocity": 0.7086614173228346
        },
        {
          "duration": 0.12903199999999515,
          "durationTicks": 160,
          "midi": 58,
          "name": "A#3",
          "ticks": 93120,
          "time": 75.096624,
          "velocity": 0.7086614173228346
        },
        {
          "duration": 0.12903199999999515,
          "durationTicks": 160,
          "midi": 63,
          "name": "D#4",
          "ticks": 93120,
          "time": 75.096624,
          "velocity": 0.7086614173228346
        },
        {
          "duration": 0.12903199999999515,
          "durationTicks": 160,
          "midi": 75,
          "name": "D#5",
          "ticks": 93120,
          "time": 75.096624,
          "velocity": 0.7086614173228346
        },
        {
          "duration": 0.12903199999999515,
          "durationTicks": 160,
          "midi": 58,
          "name": "A#3",
          "ticks": 94080,
          "time": 75.870816,
          "velocity": 0.31496062992125984
        },
        {
          "duration": 0.12903199999999515,
          "durationTicks": 160,
          "midi": 67,
          "name": "G4",
          "ticks": 94080,
          "time": 75.870816,
          "velocity": 0.31496062992125984
        },
        {
          "duration": 0.12903199999999515,
          "durationTicks": 160,
          "midi": 58,
          "name": "A#3",
          "ticks": 94560,
          "time": 76.257912,
          "velocity": 0.31496062992125984
        },
        {
          "duration": 0.12903199999999515,
          "durationTicks": 160,
          "midi": 67,
          "name": "G4",
          "ticks": 94560,
          "time": 76.257912,
          "velocity": 0.31496062992125984
        },
        {
          "duration": 0.12903199999999515,
          "durationTicks": 160,
          "midi": 58,
          "name": "A#3",
          "ticks": 95040,
          "time": 76.645008,
          "velocity": 0.31496062992125984
        },
        {
          "duration": 0.12903199999999515,
          "durationTicks": 160,
          "midi": 67,
          "name": "G4",
          "ticks": 95040,
          "time": 76.645008,
          "velocity": 0.31496062992125984
        },
        {
          "duration": 0.12903199999999515,
          "durationTicks": 160,
          "midi": 58,
          "name": "A#3",
          "ticks": 95520,
          "time": 77.032104,
          "velocity": 0.31496062992125984
        },
        {
          "duration": 0.12903199999999515,
          "durationTicks": 160,
          "midi": 67,
          "name": "G4",
          "ticks": 95520,
          "time": 77.032104,
          "velocity": 0.31496062992125984
        },
        {
          "duration": 0.12903199999999515,
          "durationTicks": 160,
          "midi": 58,
          "name": "A#3",
          "ticks": 96000,
          "time": 77.4192,
          "velocity": 0.31496062992125984
        },
        {
          "duration": 0.12903199999999515,
          "durationTicks": 160,
          "midi": 68,
          "name": "G#4",
          "ticks": 96000,
          "time": 77.4192,
          "velocity": 0.31496062992125984
        },
        {
          "duration": 0.12903199999999515,
          "durationTicks": 160,
          "midi": 58,
          "name": "A#3",
          "ticks": 96480,
          "time": 77.806296,
          "velocity": 0.31496062992125984
        },
        {
          "duration": 0.12903199999999515,
          "durationTicks": 160,
          "midi": 68,
          "name": "G#4",
          "ticks": 96480,
          "time": 77.806296,
          "velocity": 0.31496062992125984
        },
        {
          "duration": 0.12903199999999515,
          "durationTicks": 160,
          "midi": 58,
          "name": "A#3",
          "ticks": 96960,
          "time": 78.193392,
          "velocity": 0.31496062992125984
        },
        {
          "duration": 0.12903199999999515,
          "durationTicks": 160,
          "midi": 68,
          "name": "G#4",
          "ticks": 96960,
          "time": 78.193392,
          "velocity": 0.31496062992125984
        },
        {
          "duration": 0.12903199999999515,
          "durationTicks": 160,
          "midi": 58,
          "name": "A#3",
          "ticks": 97440,
          "time": 78.580488,
          "velocity": 0.31496062992125984
        },
        {
          "duration": 0.12903199999999515,
          "durationTicks": 160,
          "midi": 68,
          "name": "G#4",
          "ticks": 97440,
          "time": 78.580488,
          "velocity": 0.31496062992125984
        },
        {
          "duration": 0.12903199999999515,
          "durationTicks": 160,
          "midi": 58,
          "name": "A#3",
          "ticks": 97920,
          "time": 78.967584,
          "velocity": 0.31496062992125984
        },
        {
          "duration": 0.12903199999999515,
          "durationTicks": 160,
          "midi": 67,
          "name": "G4",
          "ticks": 97920,
          "time": 78.967584,
          "velocity": 0.31496062992125984
        },
        {
          "duration": 0.12903199999999515,
          "durationTicks": 160,
          "midi": 58,
          "name": "A#3",
          "ticks": 98400,
          "time": 79.35468,
          "velocity": 0.31496062992125984
        },
        {
          "duration": 0.12903199999999515,
          "durationTicks": 160,
          "midi": 67,
          "name": "G4",
          "ticks": 98400,
          "time": 79.35468,
          "velocity": 0.31496062992125984
        },
        {
          "duration": 0.12903199999999515,
          "durationTicks": 160,
          "midi": 72,
          "name": "C5",
          "ticks": 98880,
          "time": 79.741776,
          "velocity": 0.31496062992125984
        },
        {
          "duration": 0.12903199999999515,
          "durationTicks": 160,
          "midi": 72,
          "name": "C5",
          "ticks": 98880,
          "time": 79.741776,
          "velocity": 0.31496062992125984
        },
        {
          "duration": 0.12903199999999515,
          "durationTicks": 160,
          "midi": 72,
          "name": "C5",
          "ticks": 99360,
          "time": 80.128872,
          "velocity": 0.31496062992125984
        },
        {
          "duration": 0.12903199999999515,
          "durationTicks": 160,
          "midi": 72,
          "name": "C5",
          "ticks": 99360,
          "time": 80.128872,
          "velocity": 0.31496062992125984
        },
        {
          "duration": 0.12903199999999515,
          "durationTicks": 160,
          "midi": 74,
          "name": "D5",
          "ticks": 99840,
          "time": 80.515968,
          "velocity": 0.31496062992125984
        },
        {
          "duration": 0.12903199999999515,
          "durationTicks": 160,
          "midi": 74,
          "name": "D5",
          "ticks": 100320,
          "time": 80.903064,
          "velocity": 0.31496062992125984
        },
        {
          "duration": 0.12903200000000936,
          "durationTicks": 160,
          "midi": 74,
          "name": "D5",
          "ticks": 100800,
          "time": 81.29016,
          "velocity": 0.31496062992125984
        },
        {
          "duration": 0.6129020000000054,
          "durationTicks": 760,
          "midi": 65,
          "name": "F4",
          "ticks": 105600,
          "time": 85.16112,
          "velocity": 0.31496062992125984
        },
        {
          "duration": 0.12903200000000936,
          "durationTicks": 160,
          "midi": 68,
          "name": "G#4",
          "ticks": 107040,
          "time": 86.322408,
          "velocity": 0.31496062992125984
        },
        {
          "duration": 0.7741919999999993,
          "durationTicks": 960,
          "midi": 68,
          "name": "G#4",
          "ticks": 107520,
          "time": 86.709504,
          "velocity": 0.31496062992125984
        },
        {
          "duration": 0.12903200000000936,
          "durationTicks": 160,
          "midi": 67,
          "name": "G4",
          "ticks": 108480,
          "time": 87.483696,
          "velocity": 0.31496062992125984
        },
        {
          "duration": 0.6129020000000054,
          "durationTicks": 760,
          "midi": 71,
          "name": "B4",
          "ticks": 109440,
          "time": 88.257888,
          "velocity": 0.31496062992125984
        },
        {
          "duration": 0.38709599999999966,
          "durationTicks": 480,
          "midi": 71,
          "name": "B4",
          "ticks": 110880,
          "time": 89.419176,
          "velocity": 0.31496062992125984
        },
        {
          "duration": 0.6129020000000054,
          "durationTicks": 760,
          "midi": 72,
          "name": "C5",
          "ticks": 111360,
          "time": 89.80627199999999,
          "velocity": 0.31496062992125984
        },
        {
          "duration": 0.6129019999999912,
          "durationTicks": 760,
          "midi": 69,
          "name": "A4",
          "ticks": 113280,
          "time": 91.354656,
          "velocity": 0.31496062992125984
        },
        {
          "duration": 0.38709599999999966,
          "durationTicks": 480,
          "midi": 69,
          "name": "A4",
          "ticks": 114720,
          "time": 92.515944,
          "velocity": 0.31496062992125984
        },
        {
          "duration": 0.6129020000000054,
          "durationTicks": 760,
          "midi": 70,
          "name": "A#4",
          "ticks": 115200,
          "time": 92.90304,
          "velocity": 0.31496062992125984
        },
        {
          "duration": 0.6129020000000054,
          "durationTicks": 760,
          "midi": 65,
          "name": "F4",
          "ticks": 120960,
          "time": 97.548192,
          "velocity": 0.31496062992125984
        },
        {
          "duration": 0.12903200000000936,
          "durationTicks": 160,
          "midi": 68,
          "name": "G#4",
          "ticks": 122400,
          "time": 98.70948,
          "velocity": 0.31496062992125984
        },
        {
          "duration": 0.7741919999999993,
          "durationTicks": 960,
          "midi": 68,
          "name": "G#4",
          "ticks": 122880,
          "time": 99.096576,
          "velocity": 0.31496062992125984
        },
        {
          "duration": 0.12903199999999515,
          "durationTicks": 160,
          "midi": 67,
          "name": "G4",
          "ticks": 123840,
          "time": 99.870768,
          "velocity": 0.31496062992125984
        },
        {
          "duration": 0.19354800000000694,
          "durationTicks": 240,
          "midi": 74,
          "name": "D5",
          "ticks": 124320,
          "time": 100.257864,
          "velocity": 0.3543307086614173
        },
        {
          "duration": 0.19354799999999273,
          "durationTicks": 240,
          "midi": 75,
          "name": "D#5",
          "ticks": 124560,
          "time": 100.451412,
          "velocity": 0.31496062992125984
        },
        {
          "duration": 0.12903199999999515,
          "durationTicks": 160,
          "midi": 77,
          "name": "F5",
          "ticks": 124800,
          "time": 100.64496,
          "velocity": 0.31496062992125984
        },
        {
          "duration": 0.12903199999999515,
          "durationTicks": 160,
          "midi": 77,
          "name": "F5",
          "ticks": 125280,
          "time": 101.032056,
          "velocity": 0.31496062992125984
        },
        {
          "duration": 0.12903199999999515,
          "durationTicks": 160,
          "midi": 79,
          "name": "G5",
          "ticks": 125760,
          "time": 101.419152,
          "velocity": 0.31496062992125984
        },
        {
          "duration": 0.12903199999999515,
          "durationTicks": 160,
          "midi": 79,
          "name": "G5",
          "ticks": 126240,
          "time": 101.806248,
          "velocity": 0.31496062992125984
        },
        {
          "duration": 0.19354800000000694,
          "durationTicks": 240,
          "midi": 80,
          "name": "G#5",
          "ticks": 126720,
          "time": 102.193344,
          "velocity": 0.31496062992125984
        },
        {
          "duration": 0.19354799999999273,
          "durationTicks": 240,
          "midi": 82,
          "name": "A#5",
          "ticks": 126960,
          "time": 102.386892,
          "velocity": 0.31496062992125984
        },
        {
          "duration": 0.19354800000000694,
          "durationTicks": 240,
          "midi": 79,
          "name": "G5",
          "ticks": 127200,
          "time": 102.58044,
          "velocity": 0.31496062992125984
        },
        {
          "duration": 0.12903199999999515,
          "durationTicks": 160,
          "midi": 80,
          "name": "G#5",
          "ticks": 127440,
          "time": 102.773988,
          "velocity": 0.31496062992125984
        },
        {
          "duration": 0.12903199999999515,
          "durationTicks": 160,
          "midi": 77,
          "name": "F5",
          "ticks": 127680,
          "time": 102.967536,
          "velocity": 0.31496062992125984
        },
        {
          "duration": 0.19354800000000694,
          "durationTicks": 240,
          "midi": 74,
          "name": "D5",
          "ticks": 128160,
          "time": 103.354632,
          "velocity": 0.31496062992125984
        },
        {
          "duration": 0.19354799999999273,
          "durationTicks": 240,
          "midi": 75,
          "name": "D#5",
          "ticks": 128400,
          "time": 103.54818,
          "velocity": 0.31496062992125984
        },
        {
          "duration": 0.12903199999999515,
          "durationTicks": 160,
          "midi": 77,
          "name": "F5",
          "ticks": 128640,
          "time": 103.741728,
          "velocity": 0.31496062992125984
        },
        {
          "duration": 0.12903199999999515,
          "durationTicks": 160,
          "midi": 77,
          "name": "F5",
          "ticks": 129120,
          "time": 104.128824,
          "velocity": 0.31496062992125984
        },
        {
          "duration": 0.12903199999999515,
          "durationTicks": 160,
          "midi": 79,
          "name": "G5",
          "ticks": 129600,
          "time": 104.51592,
          "velocity": 0.31496062992125984
        },
        {
          "duration": 0.12903199999999515,
          "durationTicks": 160,
          "midi": 79,
          "name": "G5",
          "ticks": 130080,
          "time": 104.903016,
          "velocity": 0.31496062992125984
        },
        {
          "duration": 0.19354800000000694,
          "durationTicks": 240,
          "midi": 80,
          "name": "G#5",
          "ticks": 130560,
          "time": 105.290112,
          "velocity": 0.31496062992125984
        },
        {
          "duration": 0.19354799999999273,
          "durationTicks": 240,
          "midi": 82,
          "name": "A#5",
          "ticks": 130800,
          "time": 105.48366,
          "velocity": 0.31496062992125984
        },
        {
          "duration": 0.19354800000000694,
          "durationTicks": 240,
          "midi": 79,
          "name": "G5",
          "ticks": 131040,
          "time": 105.677208,
          "velocity": 0.31496062992125984
        },
        {
          "duration": 0.12903199999999515,
          "durationTicks": 160,
          "midi": 80,
          "name": "G#5",
          "ticks": 131280,
          "time": 105.870756,
          "velocity": 0.31496062992125984
        },
        {
          "duration": 0.12903199999999515,
          "durationTicks": 160,
          "midi": 77,
          "name": "F5",
          "ticks": 131520,
          "time": 106.06430399999999,
          "velocity": 0.31496062992125984
        },
        {
          "duration": 0.38709599999999966,
          "durationTicks": 480,
          "midi": 80,
          "name": "G#5",
          "ticks": 135840,
          "time": 109.548168,
          "velocity": 0.5511811023622047
        },
        {
          "duration": 0.1370964999999984,
          "durationTicks": 170,
          "midi": 79,
          "name": "G5",
          "ticks": 136320,
          "time": 109.935264,
          "velocity": 0.5511811023622047
        },
        {
          "duration": 0.19354800000000694,
          "durationTicks": 240,
          "midi": 74,
          "name": "D5",
          "ticks": 136560,
          "time": 110.128812,
          "velocity": 0.7086614173228346
        },
        {
          "duration": 0.19354799999999273,
          "durationTicks": 240,
          "midi": 75,
          "name": "D#5",
          "ticks": 136800,
          "time": 110.32236,
          "velocity": 0.7086614173228346
        },
        {
          "duration": 0.19354800000000694,
          "durationTicks": 240,
          "midi": 77,
          "name": "F5",
          "ticks": 137040,
          "time": 110.515908,
          "velocity": 0.7086614173228346
        },
        {
          "duration": 0.12903199999999515,
          "durationTicks": 160,
          "midi": 79,
          "name": "G5",
          "ticks": 137280,
          "time": 110.709456,
          "velocity": 0.7086614173228346
        },
        {
          "duration": 0.12903199999999515,
          "durationTicks": 160,
          "midi": 77,
          "name": "F5",
          "ticks": 137760,
          "time": 111.096552,
          "velocity": 0.7086614173228346
        },
        {
          "duration": 0.12903199999999515,
          "durationTicks": 160,
          "midi": 75,
          "name": "D#5",
          "ticks": 138240,
          "time": 111.483648,
          "velocity": 0.7086614173228346
        },
        {
          "duration": 0.12903199999999515,
          "durationTicks": 160,
          "midi": 58,
          "name": "A#3",
          "ticks": 138720,
          "time": 111.870744,
          "velocity": 0.7086614173228346
        },
        {
          "duration": 0.12903199999999515,
          "durationTicks": 160,
          "midi": 63,
          "name": "D#4",
          "ticks": 138720,
          "time": 111.870744,
          "velocity": 0.7086614173228346
        },
        {
          "duration": 0.12903199999999515,
          "durationTicks": 160,
          "midi": 75,
          "name": "D#5",
          "ticks": 138720,
          "time": 111.870744,
          "velocity": 0.7086614173228346
        },
        {
          "duration": 0.12903199999999515,
          "durationTicks": 160,
          "midi": 58,
          "name": "A#3",
          "ticks": 139200,
          "time": 112.25784,
          "velocity": 0.7086614173228346
        },
        {
          "duration": 0.12903199999999515,
          "durationTicks": 160,
          "midi": 63,
          "name": "D#4",
          "ticks": 139200,
          "time": 112.25784,
          "velocity": 0.7086614173228346
        },
        {
          "duration": 0.12903199999999515,
          "durationTicks": 160,
          "midi": 75,
          "name": "D#5",
          "ticks": 139200,
          "time": 112.25784,
          "velocity": 0.7086614173228346
        },
        {
          "duration": 0.38709599999999966,
          "durationTicks": 480,
          "midi": 68,
          "name": "G#4",
          "ticks": 152160,
          "time": 122.70943199999999,
          "velocity": 0.31496062992125984
        },
        {
          "duration": 0.38709599999999966,
          "durationTicks": 480,
          "midi": 67,
          "name": "G4",
          "ticks": 152640,
          "time": 123.09652799999999,
          "velocity": 0.31496062992125984
        },
        {
          "duration": 0.22580600000000572,
          "durationTicks": 280,
          "midi": 65,
          "name": "F4",
          "ticks": 153120,
          "time": 123.48362399999999,
          "velocity": 0.31496062992125984
        },
        {
          "duration": 0.7709661999999895,
          "durationTicks": 956,
          "midi": 68,
          "name": "G#4",
          "ticks": 153600,
          "time": 123.87072,
          "velocity": 0.31496062992125984
        },
        {
          "duration": 0.12903199999998094,
          "durationTicks": 160,
          "midi": 67,
          "name": "G4",
          "ticks": 154560,
          "time": 124.644912,
          "velocity": 0.31496062992125984
        },
        {
          "duration": 1.5483839999999987,
          "durationTicks": 1920,
          "midi": 65,
          "name": "F4",
          "ticks": 155520,
          "time": 125.419104,
          "velocity": 0.31496062992125984
        },
        {
          "duration": 0.6129019999999912,
          "durationTicks": 760,
          "midi": 63,
          "name": "D#4",
          "ticks": 157440,
          "time": 126.967488,
          "velocity": 0.31496062992125984
        },
        {
          "duration": 1.5483839999999987,
          "durationTicks": 1920,
          "midi": 63,
          "name": "D#4",
          "ticks": 159360,
          "time": 128.515872,
          "velocity": 0.31496062992125984
        },
        {
          "duration": 0.6129019999999912,
          "durationTicks": 760,
          "midi": 62,
          "name": "D4",
          "ticks": 161280,
          "time": 130.064256,
          "velocity": 0.31496062992125984
        },
        {
          "duration": 0.38709599999998545,
          "durationTicks": 480,
          "midi": 68,
          "name": "G#4",
          "ticks": 167520,
          "time": 135.096504,
          "velocity": 0.31496062992125984
        },
        {
          "duration": 0.3870960000000139,
          "durationTicks": 480,
          "midi": 67,
          "name": "G4",
          "ticks": 168000,
          "time": 135.4836,
          "velocity": 0.31496062992125984
        },
        {
          "duration": 0.2258059999999773,
          "durationTicks": 280,
          "midi": 65,
          "name": "F4",
          "ticks": 168480,
          "time": 135.870696,
          "velocity": 0.31496062992125984
        },
        {
          "duration": 0.7741919999999993,
          "durationTicks": 960,
          "midi": 68,
          "name": "G#4",
          "ticks": 168960,
          "time": 136.257792,
          "velocity": 0.31496062992125984
        },
        {
          "duration": 0.12903199999999515,
          "durationTicks": 160,
          "midi": 67,
          "name": "G4",
          "ticks": 169920,
          "time": 137.031984,
          "velocity": 0.31496062992125984
        },
        {
          "duration": 0.19354799999999273,
          "durationTicks": 240,
          "midi": 74,
          "name": "D5",
          "ticks": 170400,
          "time": 137.41908,
          "velocity": 0.31496062992125984
        },
        {
          "duration": 0.19354799999999273,
          "durationTicks": 240,
          "midi": 75,
          "name": "D#5",
          "ticks": 170640,
          "time": 137.612628,
          "velocity": 0.31496062992125984
        },
        {
          "duration": 0.12903199999999515,
          "durationTicks": 160,
          "midi": 77,
          "name": "F5",
          "ticks": 170880,
          "time": 137.806176,
          "velocity": 0.31496062992125984
        },
        {
          "duration": 0.12903199999999515,
          "durationTicks": 160,
          "midi": 77,
          "name": "F5",
          "ticks": 171360,
          "time": 138.193272,
          "velocity": 0.31496062992125984
        },
        {
          "duration": 0.12903199999999515,
          "durationTicks": 160,
          "midi": 79,
          "name": "G5",
          "ticks": 171840,
          "time": 138.580368,
          "velocity": 0.31496062992125984
        },
        {
          "duration": 0.12903199999999515,
          "durationTicks": 160,
          "midi": 79,
          "name": "G5",
          "ticks": 172320,
          "time": 138.967464,
          "velocity": 0.31496062992125984
        },
        {
          "duration": 0.19354799999999273,
          "durationTicks": 240,
          "midi": 80,
          "name": "G#5",
          "ticks": 172800,
          "time": 139.35456,
          "velocity": 0.31496062992125984
        },
        {
          "duration": 0.19354800000002115,
          "durationTicks": 240,
          "midi": 79,
          "name": "G5",
          "ticks": 173040,
          "time": 139.54810799999998,
          "velocity": 0.31496062992125984
        },
        {
          "duration": 0.19354799999999273,
          "durationTicks": 240,
          "midi": 80,
          "name": "G#5",
          "ticks": 173280,
          "time": 139.741656,
          "velocity": 0.31496062992125984
        },
        {
          "duration": 0.19354799999999273,
          "durationTicks": 240,
          "midi": 79,
          "name": "G5",
          "ticks": 173520,
          "time": 139.935204,
          "velocity": 0.31496062992125984
        },
        {
          "duration": 0.19354799999999273,
          "durationTicks": 240,
          "midi": 77,
          "name": "F5",
          "ticks": 173760,
          "time": 140.128752,
          "velocity": 0.31496062992125984
        },
        {
          "duration": 0.19354800000002115,
          "durationTicks": 240,
          "midi": 75,
          "name": "D#5",
          "ticks": 174000,
          "time": 140.32229999999998,
          "velocity": 0.31496062992125984
        },
        {
          "duration": 0.19354799999999273,
          "durationTicks": 240,
          "midi": 74,
          "name": "D5",
          "ticks": 174240,
          "time": 140.515848,
          "velocity": 0.31496062992125984
        },
        {
          "duration": 0.19354799999999273,
          "durationTicks": 240,
          "midi": 75,
          "name": "D#5",
          "ticks": 174480,
          "time": 140.709396,
          "velocity": 0.31496062992125984
        },
        {
          "duration": 0.12903199999999515,
          "durationTicks": 160,
          "midi": 77,
          "name": "F5",
          "ticks": 174720,
          "time": 140.902944,
          "velocity": 0.31496062992125984
        },
        {
          "duration": 0.12903199999999515,
          "durationTicks": 160,
          "midi": 77,
          "name": "F5",
          "ticks": 175200,
          "time": 141.29004,
          "velocity": 0.31496062992125984
        },
        {
          "duration": 0.12903199999999515,
          "durationTicks": 160,
          "midi": 79,
          "name": "G5",
          "ticks": 175680,
          "time": 141.677136,
          "velocity": 0.31496062992125984
        },
        {
          "duration": 0.12903199999999515,
          "durationTicks": 160,
          "midi": 79,
          "name": "G5",
          "ticks": 176160,
          "time": 142.064232,
          "velocity": 0.31496062992125984
        },
        {
          "duration": 0.19354800000002115,
          "durationTicks": 240,
          "midi": 80,
          "name": "G#5",
          "ticks": 176640,
          "time": 142.451328,
          "velocity": 0.31496062992125984
        },
        {
          "duration": 0.19354799999999273,
          "durationTicks": 240,
          "midi": 79,
          "name": "G5",
          "ticks": 176880,
          "time": 142.644876,
          "velocity": 0.31496062992125984
        },
        {
          "duration": 0.19354799999999273,
          "durationTicks": 240,
          "midi": 80,
          "name": "G#5",
          "ticks": 177120,
          "time": 142.838424,
          "velocity": 0.31496062992125984
        },
        {
          "duration": 0.19354799999999273,
          "durationTicks": 240,
          "midi": 79,
          "name": "G5",
          "ticks": 177360,
          "time": 143.031972,
          "velocity": 0.31496062992125984
        },
        {
          "duration": 0.19354800000002115,
          "durationTicks": 240,
          "midi": 77,
          "name": "F5",
          "ticks": 177600,
          "time": 143.22552,
          "velocity": 0.31496062992125984
        },
        {
          "duration": 0.38709599999998545,
          "durationTicks": 480,
          "midi": 80,
          "name": "G#5",
          "ticks": 181920,
          "time": 146.709384,
          "velocity": 0.5511811023622047
        },
        {
          "duration": 0.1370965000000126,
          "durationTicks": 170,
          "midi": 79,
          "name": "G5",
          "ticks": 182400,
          "time": 147.09647999999999,
          "velocity": 0.5511811023622047
        },
        {
          "duration": 0.19354799999999273,
          "durationTicks": 240,
          "midi": 74,
          "name": "D5",
          "ticks": 182640,
          "time": 147.290028,
          "velocity": 0.7086614173228346
        },
        {
          "duration": 0.19354799999999273,
          "durationTicks": 240,
          "midi": 75,
          "name": "D#5",
          "ticks": 182880,
          "time": 147.483576,
          "velocity": 0.7086614173228346
        },
        {
          "duration": 0.19354799999999273,
          "durationTicks": 240,
          "midi": 77,
          "name": "F5",
          "ticks": 183120,
          "time": 147.677124,
          "velocity": 0.7086614173228346
        },
        {
          "duration": 0.12903199999999515,
          "durationTicks": 160,
          "midi": 79,
          "name": "G5",
          "ticks": 183360,
          "time": 147.87067199999998,
          "velocity": 0.7086614173228346
        },
        {
          "duration": 0.12903199999999515,
          "durationTicks": 160,
          "midi": 77,
          "name": "F5",
          "ticks": 183840,
          "time": 148.257768,
          "velocity": 0.7086614173228346
        },
        {
          "duration": 0.12903199999999515,
          "durationTicks": 160,
          "midi": 75,
          "name": "D#5",
          "ticks": 184320,
          "time": 148.64486399999998,
          "velocity": 0.7086614173228346
        },
        {
          "duration": 0.12903199999999515,
          "durationTicks": 160,
          "midi": 58,
          "name": "A#3",
          "ticks": 184800,
          "time": 149.03196,
          "velocity": 0.7086614173228346
        },
        {
          "duration": 0.12903199999999515,
          "durationTicks": 160,
          "midi": 63,
          "name": "D#4",
          "ticks": 184800,
          "time": 149.03196,
          "velocity": 0.7086614173228346
        },
        {
          "duration": 0.12903199999999515,
          "durationTicks": 160,
          "midi": 75,
          "name": "D#5",
          "ticks": 184800,
          "time": 149.03196,
          "velocity": 0.7086614173228346
        },
        {
          "duration": 0.12903199999996673,
          "durationTicks": 160,
          "midi": 58,
          "name": "A#3",
          "ticks": 185280,
          "time": 149.419056,
          "velocity": 0.7086614173228346
        },
        {
          "duration": 0.12903199999996673,
          "durationTicks": 160,
          "midi": 63,
          "name": "D#4",
          "ticks": 185280,
          "time": 149.419056,
          "velocity": 0.7086614173228346
        },
        {
          "duration": 0.12903199999996673,
          "durationTicks": 160,
          "midi": 75,
          "name": "D#5",
          "ticks": 185280,
          "time": 149.419056,
          "velocity": 0.7086614173228346
        },
        {
          "duration": 0.1370965000000126,
          "durationTicks": 170,
          "midi": 67,
          "name": "G4",
          "ticks": 186480,
          "time": 150.386796,
          "velocity": 0.31496062992125984
        },
        {
          "duration": 0.1370965000000126,
          "durationTicks": 170,
          "midi": 67,
          "name": "G4",
          "ticks": 186720,
          "time": 150.580344,
          "velocity": 0.31496062992125984
        },
        {
          "duration": 0.1370965000000126,
          "durationTicks": 170,
          "midi": 67,
          "name": "G4",
          "ticks": 186960,
          "time": 150.773892,
          "velocity": 0.31496062992125984
        },
        {
          "duration": 0.1370964999999842,
          "durationTicks": 170,
          "midi": 67,
          "name": "G4",
          "ticks": 187200,
          "time": 150.96744,
          "velocity": 0.31496062992125984
        },
        {
          "duration": 0.1370965000000126,
          "durationTicks": 170,
          "midi": 67,
          "name": "G4",
          "ticks": 187440,
          "time": 151.160988,
          "velocity": 0.31496062992125984
        },
        {
          "duration": 0.1370965000000126,
          "durationTicks": 170,
          "midi": 67,
          "name": "G4",
          "ticks": 187680,
          "time": 151.354536,
          "velocity": 0.31496062992125984
        },
        {
          "duration": 0.1370965000000126,
          "durationTicks": 170,
          "midi": 67,
          "name": "G4",
          "ticks": 187920,
          "time": 151.548084,
          "velocity": 0.31496062992125984
        },
        {
          "duration": 0.1370965000000126,
          "durationTicks": 170,
          "midi": 68,
          "name": "G#4",
          "ticks": 188400,
          "time": 151.93518,
          "velocity": 0.31496062992125984
        },
        {
          "duration": 0.1370965000000126,
          "durationTicks": 170,
          "midi": 68,
          "name": "G#4",
          "ticks": 188640,
          "time": 152.128728,
          "velocity": 0.31496062992125984
        },
        {
          "duration": 0.1370965000000126,
          "durationTicks": 170,
          "midi": 68,
          "name": "G#4",
          "ticks": 188880,
          "time": 152.322276,
          "velocity": 0.31496062992125984
        },
        {
          "duration": 0.1370964999999842,
          "durationTicks": 170,
          "midi": 68,
          "name": "G#4",
          "ticks": 189120,
          "time": 152.515824,
          "velocity": 0.31496062992125984
        },
        {
          "duration": 0.1370965000000126,
          "durationTicks": 170,
          "midi": 68,
          "name": "G#4",
          "ticks": 189360,
          "time": 152.709372,
          "velocity": 0.31496062992125984
        },
        {
          "duration": 0.1370965000000126,
          "durationTicks": 170,
          "midi": 68,
          "name": "G#4",
          "ticks": 189600,
          "time": 152.90292,
          "velocity": 0.31496062992125984
        },
        {
          "duration": 0.1370965000000126,
          "durationTicks": 170,
          "midi": 68,
          "name": "G#4",
          "ticks": 189840,
          "time": 153.096468,
          "velocity": 0.31496062992125984
        },
        {
          "duration": 0.1370965000000126,
          "durationTicks": 170,
          "midi": 67,
          "name": "G4",
          "ticks": 190320,
          "time": 153.483564,
          "velocity": 0.31496062992125984
        },
        {
          "duration": 0.1370965000000126,
          "durationTicks": 170,
          "midi": 67,
          "name": "G4",
          "ticks": 190560,
          "time": 153.677112,
          "velocity": 0.31496062992125984
        },
        {
          "duration": 0.1370965000000126,
          "durationTicks": 170,
          "midi": 67,
          "name": "G4",
          "ticks": 190800,
          "time": 153.87066,
          "velocity": 0.31496062992125984
        },
        {
          "duration": 0.1370965000000126,
          "durationTicks": 170,
          "midi": 68,
          "name": "G#4",
          "ticks": 191280,
          "time": 154.257756,
          "velocity": 0.31496062992125984
        },
        {
          "duration": 0.1370965000000126,
          "durationTicks": 170,
          "midi": 68,
          "name": "G#4",
          "ticks": 191520,
          "time": 154.451304,
          "velocity": 0.31496062992125984
        },
        {
          "duration": 0.1370965000000126,
          "durationTicks": 170,
          "midi": 68,
          "name": "G#4",
          "ticks": 191760,
          "time": 154.644852,
          "velocity": 0.31496062992125984
        },
        {
          "duration": 0.1370965000000126,
          "durationTicks": 170,
          "midi": 67,
          "name": "G4",
          "ticks": 192240,
          "time": 155.031948,
          "velocity": 0.31496062992125984
        },
        {
          "duration": 0.1370965000000126,
          "durationTicks": 170,
          "midi": 67,
          "name": "G4",
          "ticks": 192480,
          "time": 155.225496,
          "velocity": 0.31496062992125984
        },
        {
          "duration": 0.1370965000000126,
          "durationTicks": 170,
          "midi": 67,
          "name": "G4",
          "ticks": 192720,
          "time": 155.41904399999999,
          "velocity": 0.31496062992125984
        },
        {
          "duration": 0.1370965000000126,
          "durationTicks": 170,
          "midi": 65,
          "name": "F4",
          "ticks": 192960,
          "time": 155.612592,
          "velocity": 0.31496062992125984
        },
        {
          "duration": 0.6129019999999912,
          "durationTicks": 760,
          "midi": 70,
          "name": "A#4",
          "ticks": 197280,
          "time": 159.096456,
          "velocity": 0.31496062992125984
        },
        {
          "duration": 0.1370965000000126,
          "durationTicks": 170,
          "midi": 68,
          "name": "G#4",
          "ticks": 198720,
          "time": 160.257744,
          "velocity": 0.31496062992125984
        },
        {
          "duration": 0.1370965000000126,
          "durationTicks": 170,
          "midi": 68,
          "name": "G#4",
          "ticks": 199200,
          "time": 160.64484,
          "velocity": 0.31496062992125984
        },
        {
          "duration": 0.1370965000000126,
          "durationTicks": 170,
          "midi": 67,
          "name": "G4",
          "ticks": 199680,
          "time": 161.031936,
          "velocity": 0.31496062992125984
        },
        {
          "duration": 0.12903199999999515,
          "durationTicks": 160,
          "midi": 70,
          "name": "A#4",
          "ticks": 200160,
          "time": 161.419032,
          "velocity": 0.31496062992125984
        },
        {
          "duration": 0.060483750000003056,
          "durationTicks": 75,
          "midi": 68,
          "name": "G#4",
          "ticks": 200520,
          "time": 161.709354,
          "velocity": 0.31496062992125984
        },
        {
          "duration": 0.12903199999999515,
          "durationTicks": 160,
          "midi": 67,
          "name": "G4",
          "ticks": 200640,
          "time": 161.806128,
          "velocity": 0.31496062992125984
        },
        {
          "duration": 0.12903199999999515,
          "durationTicks": 160,
          "midi": 67,
          "name": "G4",
          "ticks": 201840,
          "time": 162.773868,
          "velocity": 0.31496062992125984
        },
        {
          "duration": 0.12903199999999515,
          "durationTicks": 160,
          "midi": 67,
          "name": "G4",
          "ticks": 202080,
          "time": 162.967416,
          "velocity": 0.31496062992125984
        },
        {
          "duration": 0.12903199999999515,
          "durationTicks": 160,
          "midi": 67,
          "name": "G4",
          "ticks": 202320,
          "time": 163.160964,
          "velocity": 0.31496062992125984
        },
        {
          "duration": 0.12903199999999515,
          "durationTicks": 160,
          "midi": 67,
          "name": "G4",
          "ticks": 202560,
          "time": 163.354512,
          "velocity": 0.31496062992125984
        },
        {
          "duration": 0.12903199999999515,
          "durationTicks": 160,
          "midi": 67,
          "name": "G4",
          "ticks": 203760,
          "time": 164.322252,
          "velocity": 0.31496062992125984
        },
        {
          "duration": 0.12903199999999515,
          "durationTicks": 160,
          "midi": 67,
          "name": "G4",
          "ticks": 204000,
          "time": 164.51579999999998,
          "velocity": 0.31496062992125984
        },
        {
          "duration": 0.12903199999999515,
          "durationTicks": 160,
          "midi": 67,
          "name": "G4",
          "ticks": 204240,
          "time": 164.709348,
          "velocity": 0.31496062992125984
        },
        {
          "duration": 0.12903199999999515,
          "durationTicks": 160,
          "midi": 67,
          "name": "G4",
          "ticks": 204480,
          "time": 164.902896,
          "velocity": 0.31496062992125984
        },
        {
          "duration": 0.12903199999999515,
          "durationTicks": 160,
          "midi": 65,
          "name": "F4",
          "ticks": 205680,
          "time": 165.870636,
          "velocity": 0.31496062992125984
        },
        {
          "duration": 0.12903199999996673,
          "durationTicks": 160,
          "midi": 65,
          "name": "F4",
          "ticks": 205920,
          "time": 166.064184,
          "velocity": 0.31496062992125984
        },
        {
          "duration": 0.12903199999999515,
          "durationTicks": 160,
          "midi": 65,
          "name": "F4",
          "ticks": 206160,
          "time": 166.257732,
          "velocity": 0.31496062992125984
        },
        {
          "duration": 0.12903199999999515,
          "durationTicks": 160,
          "midi": 65,
          "name": "F4",
          "ticks": 206400,
          "time": 166.45128,
          "velocity": 0.31496062992125984
        },
        {
          "duration": 0.12903199999999515,
          "durationTicks": 160,
          "midi": 65,
          "name": "F4",
          "ticks": 207600,
          "time": 167.41902,
          "velocity": 0.31496062992125984
        },
        {
          "duration": 0.12903199999996673,
          "durationTicks": 160,
          "midi": 65,
          "name": "F4",
          "ticks": 207840,
          "time": 167.612568,
          "velocity": 0.31496062992125984
        },
        {
          "duration": 0.12903199999999515,
          "durationTicks": 160,
          "midi": 65,
          "name": "F4",
          "ticks": 208080,
          "time": 167.806116,
          "velocity": 0.31496062992125984
        },
        {
          "duration": 0.12903199999999515,
          "durationTicks": 160,
          "midi": 65,
          "name": "F4",
          "ticks": 208320,
          "time": 167.999664,
          "velocity": 0.31496062992125984
        },
        {
          "duration": 0.6129019999999912,
          "durationTicks": 760,
          "midi": 70,
          "name": "A#4",
          "ticks": 212640,
          "time": 171.483528,
          "velocity": 0.31496062992125984
        },
        {
          "duration": 0.1370965000000126,
          "durationTicks": 170,
          "midi": 68,
          "name": "G#4",
          "ticks": 214080,
          "time": 172.644816,
          "velocity": 0.31496062992125984
        },
        {
          "duration": 0.1370965000000126,
          "durationTicks": 170,
          "midi": 68,
          "name": "G#4",
          "ticks": 214560,
          "time": 173.031912,
          "velocity": 0.31496062992125984
        },
        {
          "duration": 0.1370965000000126,
          "durationTicks": 170,
          "midi": 67,
          "name": "G4",
          "ticks": 215040,
          "time": 173.419008,
          "velocity": 0.31496062992125984
        },
        {
          "duration": 0.12903199999999515,
          "durationTicks": 160,
          "midi": 70,
          "name": "A#4",
          "ticks": 215520,
          "time": 173.806104,
          "velocity": 0.31496062992125984
        },
        {
          "duration": 0.060483750000003056,
          "durationTicks": 75,
          "midi": 68,
          "name": "G#4",
          "ticks": 215880,
          "time": 174.096426,
          "velocity": 0.31496062992125984
        },
        {
          "duration": 0.12903199999999515,
          "durationTicks": 160,
          "midi": 67,
          "name": "G4",
          "ticks": 216000,
          "time": 174.1932,
          "velocity": 0.31496062992125984
        },
        {
          "duration": 0.19354799999999273,
          "durationTicks": 240,
          "midi": 74,
          "name": "D5",
          "ticks": 216480,
          "time": 174.580296,
          "velocity": 0.31496062992125984
        },
        {
          "duration": 0.19354799999999273,
          "durationTicks": 240,
          "midi": 75,
          "name": "D#5",
          "ticks": 216720,
          "time": 174.773844,
          "velocity": 0.31496062992125984
        },
        {
          "duration": 0.12903199999999515,
          "durationTicks": 160,
          "midi": 77,
          "name": "F5",
          "ticks": 216960,
          "time": 174.967392,
          "velocity": 0.31496062992125984
        },
        {
          "duration": 0.12903199999999515,
          "durationTicks": 160,
          "midi": 77,
          "name": "F5",
          "ticks": 217440,
          "time": 175.354488,
          "velocity": 0.31496062992125984
        },
        {
          "duration": 0.12903199999999515,
          "durationTicks": 160,
          "midi": 79,
          "name": "G5",
          "ticks": 217920,
          "time": 175.741584,
          "velocity": 0.31496062992125984
        },
        {
          "duration": 0.12903199999999515,
          "durationTicks": 160,
          "midi": 79,
          "name": "G5",
          "ticks": 218400,
          "time": 176.12868,
          "velocity": 0.31496062992125984
        },
        {
          "duration": 0.12903199999999515,
          "durationTicks": 160,
          "midi": 80,
          "name": "G#5",
          "ticks": 218880,
          "time": 176.515776,
          "velocity": 0.31496062992125984
        },
        {
          "duration": 0.2903220000000033,
          "durationTicks": 360,
          "midi": 77,
          "name": "F5",
          "ticks": 219360,
          "time": 176.902872,
          "velocity": 0.31496062992125984
        },
        {
          "duration": 0.09677399999998215,
          "durationTicks": 120,
          "midi": 74,
          "name": "D5",
          "ticks": 219720,
          "time": 177.193194,
          "velocity": 0.31496062992125984
        },
        {
          "duration": 0.12903199999999515,
          "durationTicks": 160,
          "midi": 70,
          "name": "A#4",
          "ticks": 219840,
          "time": 177.289968,
          "velocity": 0.31496062992125984
        },
        {
          "duration": 0.19354799999999273,
          "durationTicks": 240,
          "midi": 74,
          "name": "D5",
          "ticks": 220320,
          "time": 177.677064,
          "velocity": 0.31496062992125984
        },
        {
          "duration": 0.19354799999999273,
          "durationTicks": 240,
          "midi": 75,
          "name": "D#5",
          "ticks": 220560,
          "time": 177.870612,
          "velocity": 0.31496062992125984
        },
        {
          "duration": 0.12903199999999515,
          "durationTicks": 160,
          "midi": 77,
          "name": "F5",
          "ticks": 220800,
          "time": 178.06416,
          "velocity": 0.31496062992125984
        },
        {
          "duration": 0.12903199999999515,
          "durationTicks": 160,
          "midi": 77,
          "name": "F5",
          "ticks": 221280,
          "time": 178.451256,
          "velocity": 0.31496062992125984
        },
        {
          "duration": 0.12903199999999515,
          "durationTicks": 160,
          "midi": 79,
          "name": "G5",
          "ticks": 221760,
          "time": 178.838352,
          "velocity": 0.31496062992125984
        },
        {
          "duration": 0.12903199999999515,
          "durationTicks": 160,
          "midi": 79,
          "name": "G5",
          "ticks": 222240,
          "time": 179.225448,
          "velocity": 0.31496062992125984
        },
        {
          "duration": 0.12903199999999515,
          "durationTicks": 160,
          "midi": 80,
          "name": "G#5",
          "ticks": 222720,
          "time": 179.61254399999999,
          "velocity": 0.31496062992125984
        },
        {
          "duration": 0.2903220000000033,
          "durationTicks": 360,
          "midi": 77,
          "name": "F5",
          "ticks": 223200,
          "time": 179.99964,
          "velocity": 0.31496062992125984
        },
        {
          "duration": 0.09677399999998215,
          "durationTicks": 120,
          "midi": 74,
          "name": "D5",
          "ticks": 223560,
          "time": 180.289962,
          "velocity": 0.31496062992125984
        },
        {
          "duration": 0.12903199999999515,
          "durationTicks": 160,
          "midi": 70,
          "name": "A#4",
          "ticks": 223680,
          "time": 180.38673599999998,
          "velocity": 0.31496062992125984
        },
        {
          "duration": 0.1903221999999971,
          "durationTicks": 236,
          "midi": 70,
          "name": "A#4",
          "ticks": 223920,
          "time": 180.580284,
          "velocity": 0.5511811023622047
        },
        {
          "duration": 0.1903221999999971,
          "durationTicks": 236,
          "midi": 75,
          "name": "D#5",
          "ticks": 224160,
          "time": 180.773832,
          "velocity": 0.5511811023622047
        },
        {
          "duration": 0.1903221999999971,
          "durationTicks": 236,
          "midi": 79,
          "name": "G5",
          "ticks": 224400,
          "time": 180.96738,
          "velocity": 0.5511811023622047
        },
        {
          "duration": 0.12903199999999515,
          "durationTicks": 160,
          "midi": 82,
          "name": "A#5",
          "ticks": 224640,
          "time": 181.16092799999998,
          "velocity": 0.5511811023622047
        },
        {
          "duration": 0.12903199999999515,
          "durationTicks": 160,
          "midi": 82,
          "name": "A#5",
          "ticks": 224880,
          "time": 181.354476,
          "velocity": 0.5511811023622047
        },
        {
          "duration": 0.12903199999999515,
          "durationTicks": 160,
          "midi": 82,
          "name": "A#5",
          "ticks": 225120,
          "time": 181.548024,
          "velocity": 0.5511811023622047
        },
        {
          "duration": 0.12903199999999515,
          "durationTicks": 160,
          "midi": 82,
          "name": "A#5",
          "ticks": 225360,
          "time": 181.741572,
          "velocity": 0.5511811023622047
        },
        {
          "duration": 0.12903199999996673,
          "durationTicks": 160,
          "midi": 82,
          "name": "A#5",
          "ticks": 225600,
          "time": 181.93512,
          "velocity": 0.5511811023622047
        },
        {
          "duration": 0.12903199999999515,
          "durationTicks": 160,
          "midi": 82,
          "name": "A#5",
          "ticks": 225840,
          "time": 182.128668,
          "velocity": 0.5511811023622047
        },
        {
          "duration": 0.12903199999999515,
          "durationTicks": 160,
          "midi": 82,
          "name": "A#5",
          "ticks": 226080,
          "time": 182.322216,
          "velocity": 0.5511811023622047
        },
        {
          "duration": 0.12903199999999515,
          "durationTicks": 160,
          "midi": 82,
          "name": "A#5",
          "ticks": 226320,
          "time": 182.515764,
          "velocity": 0.5511811023622047
        },
        {
          "duration": 0.12903199999996673,
          "durationTicks": 160,
          "midi": 82,
          "name": "A#5",
          "ticks": 226560,
          "time": 182.709312,
          "velocity": 0.5511811023622047
        },
        {
          "duration": 0.12903199999999515,
          "durationTicks": 160,
          "midi": 82,
          "name": "A#5",
          "ticks": 226800,
          "time": 182.90286,
          "velocity": 0.5511811023622047
        },
        {
          "duration": 0.12903199999999515,
          "durationTicks": 160,
          "midi": 82,
          "name": "A#5",
          "ticks": 227040,
          "time": 183.096408,
          "velocity": 0.5511811023622047
        },
        {
          "duration": 0.12903199999999515,
          "durationTicks": 160,
          "midi": 82,
          "name": "A#5",
          "ticks": 227280,
          "time": 183.289956,
          "velocity": 0.5511811023622047
        },
        {
          "duration": 0.12903199999996673,
          "durationTicks": 160,
          "midi": 82,
          "name": "A#5",
          "ticks": 227520,
          "time": 183.483504,
          "velocity": 0.5511811023622047
        },
        {
          "duration": 0.12903199999999515,
          "durationTicks": 160,
          "midi": 82,
          "name": "A#5",
          "ticks": 227760,
          "time": 183.677052,
          "velocity": 0.5511811023622047
        },
        {
          "duration": 0.12903199999999515,
          "durationTicks": 160,
          "midi": 82,
          "name": "A#5",
          "ticks": 228000,
          "time": 183.8706,
          "velocity": 0.5511811023622047
        },
        {
          "duration": 0.12903199999999515,
          "durationTicks": 160,
          "midi": 82,
          "name": "A#5",
          "ticks": 228240,
          "time": 184.064148,
          "velocity": 0.5511811023622047
        },
        {
          "duration": 0.1370964999999842,
          "durationTicks": 170,
          "midi": 82,
          "name": "A#5",
          "ticks": 228480,
          "time": 184.257696,
          "velocity": 0.5511811023622047
        },
        {
          "duration": 0.19354799999999273,
          "durationTicks": 240,
          "midi": 74,
          "name": "D5",
          "ticks": 228720,
          "time": 184.451244,
          "velocity": 0.7086614173228346
        },
        {
          "duration": 0.19354799999999273,
          "durationTicks": 240,
          "midi": 75,
          "name": "D#5",
          "ticks": 228960,
          "time": 184.644792,
          "velocity": 0.7086614173228346
        },
        {
          "duration": 0.19354800000002115,
          "durationTicks": 240,
          "midi": 77,
          "name": "F5",
          "ticks": 229200,
          "time": 184.83834,
          "velocity": 0.7086614173228346
        },
        {
          "duration": 0.12903199999999515,
          "durationTicks": 160,
          "midi": 79,
          "name": "G5",
          "ticks": 229440,
          "time": 185.031888,
          "velocity": 0.7086614173228346
        },
        {
          "duration": 0.12903199999999515,
          "durationTicks": 160,
          "midi": 77,
          "name": "F5",
          "ticks": 229920,
          "time": 185.418984,
          "velocity": 0.7086614173228346
        },
        {
          "duration": 0.12903199999999515,
          "durationTicks": 160,
          "midi": 75,
          "name": "D#5",
          "ticks": 230400,
          "time": 185.80608,
          "velocity": 0.7086614173228346
        },
        {
          "duration": 0.12903199999999515,
          "durationTicks": 160,
          "midi": 58,
          "name": "A#3",
          "ticks": 230880,
          "time": 186.193176,
          "velocity": 0.7086614173228346
        },
        {
          "duration": 0.12903199999999515,
          "durationTicks": 160,
          "midi": 63,
          "name": "D#4",
          "ticks": 230880,
          "time": 186.193176,
          "velocity": 0.7086614173228346
        },
        {
          "duration": 0.12903199999999515,
          "durationTicks": 160,
          "midi": 75,
          "name": "D#5",
          "ticks": 230880,
          "time": 186.193176,
          "velocity": 0.7086614173228346
        },
        {
          "duration": 0.12903199999999515,
          "durationTicks": 160,
          "midi": 58,
          "name": "A#3",
          "ticks": 231360,
          "time": 186.580272,
          "velocity": 0.7086614173228346
        },
        {
          "duration": 0.12903199999999515,
          "durationTicks": 160,
          "midi": 63,
          "name": "D#4",
          "ticks": 231360,
          "time": 186.580272,
          "velocity": 0.7086614173228346
        },
        {
          "duration": 0.12903199999999515,
          "durationTicks": 160,
          "midi": 75,
          "name": "D#5",
          "ticks": 231360,
          "time": 186.580272,
          "velocity": 0.7086614173228346
        },
        {
          "duration": 0.12903199999999515,
          "durationTicks": 160,
          "midi": 67,
          "name": "G4",
          "ticks": 232320,
          "time": 187.354464,
          "velocity": 0.31496062992125984
        },
        {
          "duration": 0.3870960000000139,
          "durationTicks": 480,
          "midi": 67,
          "name": "G4",
          "ticks": 233760,
          "time": 188.515752,
          "velocity": 0.31496062992125984
        },
        {
          "duration": 0.12903199999999515,
          "durationTicks": 160,
          "midi": 68,
          "name": "G#4",
          "ticks": 234240,
          "time": 188.902848,
          "velocity": 0.31496062992125984
        },
        {
          "duration": 0.3870960000000139,
          "durationTicks": 480,
          "midi": 68,
          "name": "G#4",
          "ticks": 235680,
          "time": 190.064136,
          "velocity": 0.31496062992125984
        },
        {
          "duration": 0.12903199999999515,
          "durationTicks": 160,
          "midi": 67,
          "name": "G4",
          "ticks": 236160,
          "time": 190.451232,
          "velocity": 0.31496062992125984
        },
        {
          "duration": 0.12903199999999515,
          "durationTicks": 160,
          "midi": 68,
          "name": "G#4",
          "ticks": 237120,
          "time": 191.225424,
          "velocity": 0.31496062992125984
        },
        {
          "duration": 0.19354799999999273,
          "durationTicks": 240,
          "midi": 67,
          "name": "G4",
          "ticks": 238080,
          "time": 191.999616,
          "velocity": 0.31496062992125984
        },
        {
          "duration": 0.19354799999999273,
          "durationTicks": 240,
          "midi": 68,
          "name": "G#4",
          "ticks": 238320,
          "time": 192.193164,
          "velocity": 0.31496062992125984
        },
        {
          "duration": 0.19354800000002115,
          "durationTicks": 240,
          "midi": 69,
          "name": "A4",
          "ticks": 238560,
          "time": 192.386712,
          "velocity": 0.31496062992125984
        },
        {
          "duration": 0.12903199999996673,
          "durationTicks": 160,
          "midi": 70,
          "name": "A#4",
          "ticks": 238800,
          "time": 192.58026,
          "velocity": 0.31496062992125984
        },
        {
          "duration": 0.12903199999999515,
          "durationTicks": 160,
          "midi": 65,
          "name": "F4",
          "ticks": 239040,
          "time": 192.773808,
          "velocity": 0.31496062992125984
        },
        {
          "duration": 0.12903199999999515,
          "durationTicks": 160,
          "midi": 72,
          "name": "C5",
          "ticks": 240000,
          "time": 193.548,
          "velocity": 0.31496062992125984
        },
        {
          "duration": 0.12903199999999515,
          "durationTicks": 160,
          "midi": 72,
          "name": "C5",
          "ticks": 240960,
          "time": 194.322192,
          "velocity": 0.31496062992125984
        },
        {
          "duration": 0.12903199999999515,
          "durationTicks": 160,
          "midi": 70,
          "name": "A#4",
          "ticks": 241920,
          "time": 195.096384,
          "velocity": 0.31496062992125984
        },
        {
          "duration": 0.12903199999999515,
          "durationTicks": 160,
          "midi": 70,
          "name": "A#4",
          "ticks": 242880,
          "time": 195.870576,
          "velocity": 0.31496062992125984
        },
        {
          "duration": 0.12903199999999515,
          "durationTicks": 160,
          "midi": 72,
          "name": "C5",
          "ticks": 244320,
          "time": 197.03186399999998,
          "velocity": 0.31496062992125984
        },
        {
          "duration": 0.12903199999999515,
          "durationTicks": 160,
          "midi": 68,
          "name": "G#4",
          "ticks": 245280,
          "time": 197.80605599999998,
          "velocity": 0.31496062992125984
        },
        {
          "duration": 0.19354799999999273,
          "durationTicks": 240,
          "midi": 68,
          "name": "G#4",
          "ticks": 245760,
          "time": 198.193152,
          "velocity": 0.31496062992125984
        },
        {
          "duration": 0.19354800000002115,
          "durationTicks": 240,
          "midi": 65,
          "name": "F4",
          "ticks": 246000,
          "time": 198.3867,
          "velocity": 0.31496062992125984
        },
        {
          "duration": 0.19354799999999273,
          "durationTicks": 240,
          "midi": 70,
          "name": "A#4",
          "ticks": 246240,
          "time": 198.580248,
          "velocity": 0.31496062992125984
        },
        {
          "duration": 0.12903199999999515,
          "durationTicks": 160,
          "midi": 68,
          "name": "G#4",
          "ticks": 246480,
          "time": 198.773796,
          "velocity": 0.31496062992125984
        },
        {
          "duration": 0.12903200000002357,
          "durationTicks": 160,
          "midi": 67,
          "name": "G4",
          "ticks": 246720,
          "time": 198.967344,
          "velocity": 0.31496062992125984
        },
        {
          "duration": 0.23387049999996634,
          "durationTicks": 290,
          "midi": 71,
          "name": "B4",
          "ticks": 249120,
          "time": 200.902824,
          "velocity": 0.31496062992125984
        },
        {
          "duration": 0.3870960000000139,
          "durationTicks": 480,
          "midi": 72,
          "name": "C5",
          "ticks": 249600,
          "time": 201.28992,
          "velocity": 0.31496062992125984
        },
        {
          "duration": 0.38709599999998545,
          "durationTicks": 480,
          "midi": 71,
          "name": "B4",
          "ticks": 250080,
          "time": 201.677016,
          "velocity": 0.31496062992125984
        },
        {
          "duration": 0.12903200000002357,
          "durationTicks": 160,
          "midi": 72,
          "name": "C5",
          "ticks": 250560,
          "time": 202.064112,
          "velocity": 0.31496062992125984
        },
        {
          "duration": 0.12903199999999515,
          "durationTicks": 160,
          "midi": 69,
          "name": "A4",
          "ticks": 252960,
          "time": 203.999592,
          "velocity": 0.31496062992125984
        },
        {
          "duration": 0.3870960000000139,
          "durationTicks": 480,
          "midi": 70,
          "name": "A#4",
          "ticks": 253440,
          "time": 204.386688,
          "velocity": 0.31496062992125984
        },
        {
          "duration": 0.38709599999998545,
          "durationTicks": 480,
          "midi": 69,
          "name": "A4",
          "ticks": 253920,
          "time": 204.773784,
          "velocity": 0.31496062992125984
        },
        {
          "duration": 0.12903200000002357,
          "durationTicks": 160,
          "midi": 70,
          "name": "A#4",
          "ticks": 254400,
          "time": 205.16088,
          "velocity": 0.31496062992125984
        },
        {
          "duration": 0.12903200000002357,
          "durationTicks": 160,
          "midi": 72,
          "name": "C5",
          "ticks": 255360,
          "time": 205.935072,
          "velocity": 0.31496062992125984
        },
        {
          "duration": 0.12903200000002357,
          "durationTicks": 160,
          "midi": 72,
          "name": "C5",
          "ticks": 256320,
          "time": 206.709264,
          "velocity": 0.31496062992125984
        },
        {
          "duration": 0.12903200000002357,
          "durationTicks": 160,
          "midi": 70,
          "name": "A#4",
          "ticks": 257280,
          "time": 207.483456,
          "velocity": 0.31496062992125984
        },
        {
          "duration": 0.12903200000002357,
          "durationTicks": 160,
          "midi": 70,
          "name": "A#4",
          "ticks": 258240,
          "time": 208.257648,
          "velocity": 0.31496062992125984
        },
        {
          "duration": 0.12903200000002357,
          "durationTicks": 160,
          "midi": 72,
          "name": "C5",
          "ticks": 259680,
          "time": 209.418936,
          "velocity": 0.31496062992125984
        },
        {
          "duration": 0.12903200000002357,
          "durationTicks": 160,
          "midi": 68,
          "name": "G#4",
          "ticks": 260640,
          "time": 210.193128,
          "velocity": 0.31496062992125984
        },
        {
          "duration": 0.19354800000002115,
          "durationTicks": 240,
          "midi": 67,
          "name": "G4",
          "ticks": 261120,
          "time": 210.580224,
          "velocity": 0.31496062992125984
        },
        {
          "duration": 0.19354799999999273,
          "durationTicks": 240,
          "midi": 65,
          "name": "F4",
          "ticks": 261360,
          "time": 210.773772,
          "velocity": 0.31496062992125984
        },
        {
          "duration": 0.19354799999999273,
          "durationTicks": 240,
          "midi": 70,
          "name": "A#4",
          "ticks": 261600,
          "time": 210.96732,
          "velocity": 0.31496062992125984
        },
        {
          "duration": 0.12903200000002357,
          "durationTicks": 160,
          "midi": 68,
          "name": "G#4",
          "ticks": 261840,
          "time": 211.160868,
          "velocity": 0.31496062992125984
        },
        {
          "duration": 0.12903200000002357,
          "durationTicks": 160,
          "midi": 67,
          "name": "G4",
          "ticks": 262080,
          "time": 211.354416,
          "velocity": 0.31496062992125984
        },
        {
          "duration": 0.19354799999999273,
          "durationTicks": 240,
          "midi": 74,
          "name": "D5",
          "ticks": 262560,
          "time": 211.741512,
          "velocity": 0.31496062992125984
        },
        {
          "duration": 0.19354799999999273,
          "durationTicks": 240,
          "midi": 75,
          "name": "D#5",
          "ticks": 262800,
          "time": 211.93506,
          "velocity": 0.31496062992125984
        },
        {
          "duration": 0.12903200000002357,
          "durationTicks": 160,
          "midi": 77,
          "name": "F5",
          "ticks": 263040,
          "time": 212.12860799999999,
          "velocity": 0.31496062992125984
        },
        {
          "duration": 0.12903200000002357,
          "durationTicks": 160,
          "midi": 77,
          "name": "F5",
          "ticks": 263520,
          "time": 212.515704,
          "velocity": 0.31496062992125984
        },
        {
          "duration": 0.12903200000002357,
          "durationTicks": 160,
          "midi": 79,
          "name": "G5",
          "ticks": 264000,
          "time": 212.90279999999998,
          "velocity": 0.31496062992125984
        },
        {
          "duration": 0.12903200000002357,
          "durationTicks": 160,
          "midi": 79,
          "name": "G5",
          "ticks": 264480,
          "time": 213.289896,
          "velocity": 0.31496062992125984
        },
        {
          "duration": 0.5806440000000066,
          "durationTicks": 720,
          "midi": 80,
          "name": "G#5",
          "ticks": 264960,
          "time": 213.67699199999998,
          "velocity": 0.31496062992125984
        },
        {
          "duration": 0.09677400000001057,
          "durationTicks": 120,
          "midi": 77,
          "name": "F5",
          "ticks": 265680,
          "time": 214.257636,
          "velocity": 0.31496062992125984
        },
        {
          "duration": 0.09677399999998215,
          "durationTicks": 120,
          "midi": 74,
          "name": "D5",
          "ticks": 265800,
          "time": 214.35441,
          "velocity": 0.31496062992125984
        },
        {
          "duration": 0.12903200000002357,
          "durationTicks": 160,
          "midi": 70,
          "name": "A#4",
          "ticks": 265920,
          "time": 214.45118399999998,
          "velocity": 0.31496062992125984
        },
        {
          "duration": 0.19354799999999273,
          "durationTicks": 240,
          "midi": 72,
          "name": "C5",
          "ticks": 266160,
          "time": 214.644732,
          "velocity": 0.31496062992125984
        },
        {
          "duration": 0.19354799999999273,
          "durationTicks": 240,
          "midi": 74,
          "name": "D5",
          "ticks": 266400,
          "time": 214.83828,
          "velocity": 0.31496062992125984
        },
        {
          "duration": 0.19354800000002115,
          "durationTicks": 240,
          "midi": 75,
          "name": "D#5",
          "ticks": 266640,
          "time": 215.031828,
          "velocity": 0.31496062992125984
        },
        {
          "duration": 0.12903199999999515,
          "durationTicks": 160,
          "midi": 77,
          "name": "F5",
          "ticks": 266880,
          "time": 215.225376,
          "velocity": 0.31496062992125984
        },
        {
          "duration": 0.12903200000002357,
          "durationTicks": 160,
          "midi": 77,
          "name": "F5",
          "ticks": 267360,
          "time": 215.612472,
          "velocity": 0.31496062992125984
        },
        {
          "duration": 0.12903199999999515,
          "durationTicks": 160,
          "midi": 79,
          "name": "G5",
          "ticks": 267840,
          "time": 215.999568,
          "velocity": 0.31496062992125984
        },
        {
          "duration": 0.12903200000002357,
          "durationTicks": 160,
          "midi": 79,
          "name": "G5",
          "ticks": 268320,
          "time": 216.386664,
          "velocity": 0.31496062992125984
        },
        {
          "duration": 0.5806439999999782,
          "durationTicks": 720,
          "midi": 80,
          "name": "G#5",
          "ticks": 268800,
          "time": 216.77376,
          "velocity": 0.31496062992125984
        },
        {
          "duration": 0.09677400000001057,
          "durationTicks": 120,
          "midi": 77,
          "name": "F5",
          "ticks": 269520,
          "time": 217.354404,
          "velocity": 0.31496062992125984
        },
        {
          "duration": 0.09677400000001057,
          "durationTicks": 120,
          "midi": 74,
          "name": "D5",
          "ticks": 269640,
          "time": 217.451178,
          "velocity": 0.31496062992125984
        },
        {
          "duration": 0.12903199999999515,
          "durationTicks": 160,
          "midi": 70,
          "name": "A#4",
          "ticks": 269760,
          "time": 217.547952,
          "velocity": 0.31496062992125984
        },
        {
          "duration": 0.12903200000002357,
          "durationTicks": 160,
          "midi": 70,
          "name": "A#4",
          "ticks": 270000,
          "time": 217.7415,
          "velocity": 0.5511811023622047
        },
        {
          "duration": 0.12903200000002357,
          "durationTicks": 160,
          "midi": 75,
          "name": "D#5",
          "ticks": 270240,
          "time": 217.935048,
          "velocity": 0.5511811023622047
        },
        {
          "duration": 0.12903200000002357,
          "durationTicks": 160,
          "midi": 79,
          "name": "G5",
          "ticks": 270480,
          "time": 218.128596,
          "velocity": 0.5511811023622047
        },
        {
          "duration": 0.12903199999999515,
          "durationTicks": 160,
          "midi": 82,
          "name": "A#5",
          "ticks": 270720,
          "time": 218.322144,
          "velocity": 0.5511811023622047
        },
        {
          "duration": 0.12903200000002357,
          "durationTicks": 160,
          "midi": 82,
          "name": "A#5",
          "ticks": 270960,
          "time": 218.515692,
          "velocity": 0.5511811023622047
        },
        {
          "duration": 0.12903200000002357,
          "durationTicks": 160,
          "midi": 82,
          "name": "A#5",
          "ticks": 271200,
          "time": 218.70924,
          "velocity": 0.5511811023622047
        },
        {
          "duration": 0.12903200000002357,
          "durationTicks": 160,
          "midi": 82,
          "name": "A#5",
          "ticks": 271440,
          "time": 218.902788,
          "velocity": 0.5511811023622047
        },
        {
          "duration": 0.12903199999999515,
          "durationTicks": 160,
          "midi": 82,
          "name": "A#5",
          "ticks": 271680,
          "time": 219.096336,
          "velocity": 0.5511811023622047
        },
        {
          "duration": 0.12903200000002357,
          "durationTicks": 160,
          "midi": 82,
          "name": "A#5",
          "ticks": 271920,
          "time": 219.289884,
          "velocity": 0.5511811023622047
        },
        {
          "duration": 0.12903200000002357,
          "durationTicks": 160,
          "midi": 82,
          "name": "A#5",
          "ticks": 272160,
          "time": 219.483432,
          "velocity": 0.5511811023622047
        },
        {
          "duration": 0.12903200000002357,
          "durationTicks": 160,
          "midi": 82,
          "name": "A#5",
          "ticks": 272400,
          "time": 219.67698,
          "velocity": 0.5511811023622047
        },
        {
          "duration": 0.12903199999999515,
          "durationTicks": 160,
          "midi": 82,
          "name": "A#5",
          "ticks": 272640,
          "time": 219.870528,
          "velocity": 0.5511811023622047
        },
        {
          "duration": 0.12903200000002357,
          "durationTicks": 160,
          "midi": 82,
          "name": "A#5",
          "ticks": 272880,
          "time": 220.064076,
          "velocity": 0.5511811023622047
        },
        {
          "duration": 0.12903200000002357,
          "durationTicks": 160,
          "midi": 82,
          "name": "A#5",
          "ticks": 273120,
          "time": 220.257624,
          "velocity": 0.5511811023622047
        },
        {
          "duration": 0.12903200000002357,
          "durationTicks": 160,
          "midi": 82,
          "name": "A#5",
          "ticks": 273360,
          "time": 220.45117199999999,
          "velocity": 0.5511811023622047
        },
        {
          "duration": 0.12903199999999515,
          "durationTicks": 160,
          "midi": 82,
          "name": "A#5",
          "ticks": 273600,
          "time": 220.64472,
          "velocity": 0.5511811023622047
        },
        {
          "duration": 0.12903200000002357,
          "durationTicks": 160,
          "midi": 82,
          "name": "A#5",
          "ticks": 273840,
          "time": 220.838268,
          "velocity": 0.5511811023622047
        },
        {
          "duration": 0.12903200000002357,
          "durationTicks": 160,
          "midi": 82,
          "name": "A#5",
          "ticks": 274080,
          "time": 221.031816,
          "velocity": 0.5511811023622047
        },
        {
          "duration": 0.12903200000002357,
          "durationTicks": 160,
          "midi": 82,
          "name": "A#5",
          "ticks": 274320,
          "time": 221.22536399999998,
          "velocity": 0.5511811023622047
        },
        {
          "duration": 0.1370964999999842,
          "durationTicks": 170,
          "midi": 82,
          "name": "A#5",
          "ticks": 274560,
          "time": 221.418912,
          "velocity": 0.5511811023622047
        },
        {
          "duration": 0.19354799999999273,
          "durationTicks": 240,
          "midi": 74,
          "name": "D5",
          "ticks": 274800,
          "time": 221.61246,
          "velocity": 0.7086614173228346
        },
        {
          "duration": 0.19354799999999273,
          "durationTicks": 240,
          "midi": 75,
          "name": "D#5",
          "ticks": 275040,
          "time": 221.806008,
          "velocity": 0.7086614173228346
        },
        {
          "duration": 0.19354800000002115,
          "durationTicks": 240,
          "midi": 77,
          "name": "F5",
          "ticks": 275280,
          "time": 221.99955599999998,
          "velocity": 0.7086614173228346
        },
        {
          "duration": 0.12903199999999515,
          "durationTicks": 160,
          "midi": 79,
          "name": "G5",
          "ticks": 275520,
          "time": 222.193104,
          "velocity": 0.7086614173228346
        },
        {
          "duration": 0.06129020000000196,
          "durationTicks": 76,
          "midi": 77,
          "name": "F5",
          "ticks": 276000,
          "time": 222.5802,
          "velocity": 0.7086614173228346
        },
        {
          "duration": 0.06129020000003038,
          "durationTicks": 76,
          "midi": 79,
          "name": "G5",
          "ticks": 276080,
          "time": 222.644716,
          "velocity": 0.7086614173228346
        },
        {
          "duration": 0.06129019999997354,
          "durationTicks": 76,
          "midi": 77,
          "name": "F5",
          "ticks": 276160,
          "time": 222.70923200000001,
          "velocity": 0.7086614173228346
        },
        {
          "duration": 0.06129020000000196,
          "durationTicks": 76,
          "midi": 79,
          "name": "G5",
          "ticks": 276240,
          "time": 222.77374799999998,
          "velocity": 0.7086614173228346
        },
        {
          "duration": 0.06129020000003038,
          "durationTicks": 76,
          "midi": 75,
          "name": "D#5",
          "ticks": 276320,
          "time": 222.83826399999998,
          "velocity": 0.7086614173228346
        },
        {
          "duration": 0.06129020000000196,
          "durationTicks": 76,
          "midi": 77,
          "name": "F5",
          "ticks": 276400,
          "time": 222.90278,
          "velocity": 0.7086614173228346
        },
        {
          "duration": 0.12903199999999515,
          "durationTicks": 160,
          "midi": 75,
          "name": "D#5",
          "ticks": 276480,
          "time": 222.967296,
          "velocity": 0.7086614173228346
        },
        {
          "duration": 0.12903200000002357,
          "durationTicks": 160,
          "midi": 58,
          "name": "A#3",
          "ticks": 276960,
          "time": 223.354392,
          "velocity": 0.7086614173228346
        },
        {
          "duration": 0.12903200000002357,
          "durationTicks": 160,
          "midi": 63,
          "name": "D#4",
          "ticks": 276960,
          "time": 223.354392,
          "velocity": 0.7086614173228346
        },
        {
          "duration": 0.12903200000002357,
          "durationTicks": 160,
          "midi": 75,
          "name": "D#5",
          "ticks": 276960,
          "time": 223.354392,
          "velocity": 0.7086614173228346
        },
        {
          "duration": 0.12903199999999515,
          "durationTicks": 160,
          "midi": 58,
          "name": "A#3",
          "ticks": 277440,
          "time": 223.741488,
          "velocity": 0.7086614173228346
        },
        {
          "duration": 0.12903199999999515,
          "durationTicks": 160,
          "midi": 63,
          "name": "D#4",
          "ticks": 277440,
          "time": 223.741488,
          "velocity": 0.7086614173228346
        },
        {
          "duration": 0.12903199999999515,
          "durationTicks": 160,
          "midi": 75,
          "name": "D#5",
          "ticks": 277440,
          "time": 223.741488,
          "velocity": 0.7086614173228346
        },
        {
          "duration": 0.12903199999999515,
          "durationTicks": 160,
          "midi": 55,
          "name": "G3",
          "ticks": 278400,
          "time": 224.51568,
          "velocity": 0.31496062992125984
        },
        {
          "duration": 0.12903199999999515,
          "durationTicks": 160,
          "midi": 63,
          "name": "D#4",
          "ticks": 278400,
          "time": 224.51568,
          "velocity": 0.31496062992125984
        },
        {
          "duration": 0.12903199999999515,
          "durationTicks": 160,
          "midi": 75,
          "name": "D#5",
          "ticks": 278400,
          "time": 224.51568,
          "velocity": 0.31496062992125984
        },
        {
          "duration": 0.12903200000002357,
          "durationTicks": 160,
          "midi": 75,
          "name": "D#5",
          "ticks": 279840,
          "time": 225.676968,
          "velocity": 0.31496062992125984
        },
        {
          "duration": 0.12903200000002357,
          "durationTicks": 160,
          "midi": 58,
          "name": "A#3",
          "ticks": 280320,
          "time": 226.064064,
          "velocity": 0.31496062992125984
        },
        {
          "duration": 0.12903200000002357,
          "durationTicks": 160,
          "midi": 65,
          "name": "F4",
          "ticks": 280320,
          "time": 226.064064,
          "velocity": 0.31496062992125984
        },
        {
          "duration": 0.12903200000002357,
          "durationTicks": 160,
          "midi": 74,
          "name": "D5",
          "ticks": 280320,
          "time": 226.064064,
          "velocity": 0.31496062992125984
        },
        {
          "duration": 0.12903200000002357,
          "durationTicks": 160,
          "midi": 62,
          "name": "D4",
          "ticks": 281760,
          "time": 227.225352,
          "velocity": 0.31496062992125984
        },
        {
          "duration": 0.12903200000002357,
          "durationTicks": 160,
          "midi": 70,
          "name": "A#4",
          "ticks": 281760,
          "time": 227.225352,
          "velocity": 0.31496062992125984
        },
        {
          "duration": 0.12903200000002357,
          "durationTicks": 160,
          "midi": 80,
          "name": "G#5",
          "ticks": 281760,
          "time": 227.225352,
          "velocity": 0.31496062992125984
        },
        {
          "duration": 0.12903200000002357,
          "durationTicks": 160,
          "midi": 63,
          "name": "D#4",
          "ticks": 282240,
          "time": 227.612448,
          "velocity": 0.31496062992125984
        },
        {
          "duration": 0.12903200000002357,
          "durationTicks": 160,
          "midi": 70,
          "name": "A#4",
          "ticks": 282240,
          "time": 227.612448,
          "velocity": 0.31496062992125984
        },
        {
          "duration": 0.12903200000002357,
          "durationTicks": 160,
          "midi": 79,
          "name": "G5",
          "ticks": 282240,
          "time": 227.612448,
          "velocity": 0.31496062992125984
        },
        {
          "duration": 0.12903200000002357,
          "durationTicks": 160,
          "midi": 65,
          "name": "F4",
          "ticks": 283200,
          "time": 228.38664,
          "velocity": 0.31496062992125984
        },
        {
          "duration": 0.12903200000002357,
          "durationTicks": 160,
          "midi": 65,
          "name": "F4",
          "ticks": 283680,
          "time": 228.77373599999999,
          "velocity": 0.31496062992125984
        },
        {
          "duration": 0.38709599999998545,
          "durationTicks": 480,
          "midi": 65,
          "name": "F4",
          "ticks": 284160,
          "time": 229.160832,
          "velocity": 0.31496062992125984
        },
        {
          "duration": 0.3870960000000139,
          "durationTicks": 480,
          "midi": 69,
          "name": "A4",
          "ticks": 284640,
          "time": 229.54792799999998,
          "velocity": 0.31496062992125984
        },
        {
          "duration": 0.12903200000002357,
          "durationTicks": 160,
          "midi": 70,
          "name": "A#4",
          "ticks": 285120,
          "time": 229.935024,
          "velocity": 0.31496062992125984
        },
        {
          "duration": 0.12903200000002357,
          "durationTicks": 160,
          "midi": 70,
          "name": "A#4",
          "ticks": 285600,
          "time": 230.32211999999998,
          "velocity": 0.31496062992125984
        },
        {
          "duration": 0.38709599999998545,
          "durationTicks": 480,
          "midi": 70,
          "name": "A#4",
          "ticks": 286080,
          "time": 230.709216,
          "velocity": 0.31496062992125984
        },
        {
          "duration": 0.12903200000002357,
          "durationTicks": 160,
          "midi": 68,
          "name": "G#4",
          "ticks": 286560,
          "time": 231.09631199999998,
          "velocity": 0.31496062992125984
        },
        {
          "duration": 0.12903199999999515,
          "durationTicks": 160,
          "midi": 68,
          "name": "G#4",
          "ticks": 287520,
          "time": 231.870504,
          "velocity": 0.31496062992125984
        },
        {
          "duration": 0.3870960000000139,
          "durationTicks": 480,
          "midi": 68,
          "name": "G#4",
          "ticks": 288000,
          "time": 232.2576,
          "velocity": 0.31496062992125984
        },
        {
          "duration": 0.12903199999999515,
          "durationTicks": 160,
          "midi": 67,
          "name": "G4",
          "ticks": 288480,
          "time": 232.644696,
          "velocity": 0.31496062992125984
        },
        {
          "duration": 0.38709599999998545,
          "durationTicks": 480,
          "midi": 67,
          "name": "G4",
          "ticks": 289440,
          "time": 233.418888,
          "velocity": 0.31496062992125984
        },
        {
          "duration": 0.6129020000000196,
          "durationTicks": 760,
          "midi": 65,
          "name": "F4",
          "ticks": 289920,
          "time": 233.805984,
          "velocity": 0.31496062992125984
        },
        {
          "duration": 0.38387020000001826,
          "durationTicks": 476,
          "midi": 65,
          "name": "F4",
          "ticks": 290880,
          "time": 234.580176,
          "velocity": 0.31496062992125984
        },
        {
          "duration": 0.38387019999998984,
          "durationTicks": 476,
          "midi": 65,
          "name": "F4",
          "ticks": 291360,
          "time": 234.967272,
          "velocity": 0.31496062992125984
        },
        {
          "duration": 0.12903200000002357,
          "durationTicks": 160,
          "midi": 63,
          "name": "D#4",
          "ticks": 291840,
          "time": 235.354368,
          "velocity": 0.31496062992125984
        },
        {
          "duration": 0.12903200000002357,
          "durationTicks": 160,
          "midi": 63,
          "name": "D#4",
          "ticks": 292080,
          "time": 235.547916,
          "velocity": 0.31496062992125984
        },
        {
          "duration": 0.12903199999999515,
          "durationTicks": 160,
          "midi": 67,
          "name": "G4",
          "ticks": 292320,
          "time": 235.741464,
          "velocity": 0.31496062992125984
        },
        {
          "duration": 0.12903200000002357,
          "durationTicks": 160,
          "midi": 67,
          "name": "G4",
          "ticks": 292560,
          "time": 235.935012,
          "velocity": 0.31496062992125984
        },
        {
          "duration": 0.12903200000002357,
          "durationTicks": 160,
          "midi": 63,
          "name": "D#4",
          "ticks": 292800,
          "time": 236.12856,
          "velocity": 0.31496062992125984
        },
        {
          "duration": 0.12903200000002357,
          "durationTicks": 160,
          "midi": 79,
          "name": "G5",
          "ticks": 295680,
          "time": 238.451136,
          "velocity": 0.31496062992125984
        },
        {
          "duration": 0.12903200000002357,
          "durationTicks": 160,
          "midi": 79,
          "name": "G5",
          "ticks": 295920,
          "time": 238.64468399999998,
          "velocity": 0.31496062992125984
        },
        {
          "duration": 0.12903199999999515,
          "durationTicks": 160,
          "midi": 79,
          "name": "G5",
          "ticks": 296160,
          "time": 238.838232,
          "velocity": 0.31496062992125984
        },
        {
          "duration": 0.12903200000002357,
          "durationTicks": 160,
          "midi": 79,
          "name": "G5",
          "ticks": 296400,
          "time": 239.03178,
          "velocity": 0.31496062992125984
        },
        {
          "duration": 0.12903200000002357,
          "durationTicks": 160,
          "midi": 79,
          "name": "G5",
          "ticks": 296640,
          "time": 239.225328,
          "velocity": 0.31496062992125984
        },
        {
          "duration": 0.12903200000002357,
          "durationTicks": 160,
          "midi": 77,
          "name": "F5",
          "ticks": 299520,
          "time": 241.547904,
          "velocity": 0.31496062992125984
        },
        {
          "duration": 0.12903199999999515,
          "durationTicks": 160,
          "midi": 77,
          "name": "F5",
          "ticks": 299760,
          "time": 241.741452,
          "velocity": 0.31496062992125984
        },
        {
          "duration": 0.12903200000002357,
          "durationTicks": 160,
          "midi": 77,
          "name": "F5",
          "ticks": 300000,
          "time": 241.935,
          "velocity": 0.31496062992125984
        },
        {
          "duration": 0.12903200000002357,
          "durationTicks": 160,
          "midi": 77,
          "name": "F5",
          "ticks": 300240,
          "time": 242.128548,
          "velocity": 0.31496062992125984
        },
        {
          "duration": 0.12903200000002357,
          "durationTicks": 160,
          "midi": 77,
          "name": "F5",
          "ticks": 300480,
          "time": 242.322096,
          "velocity": 0.31496062992125984
        },
        {
          "duration": 0.3870960000000139,
          "durationTicks": 480,
          "midi": 70,
          "name": "A#4",
          "ticks": 301440,
          "time": 243.096288,
          "velocity": 0.31496062992125984
        },
        {
          "duration": 0.12903200000002357,
          "durationTicks": 160,
          "midi": 68,
          "name": "G#4",
          "ticks": 301920,
          "time": 243.483384,
          "velocity": 0.31496062992125984
        },
        {
          "duration": 0.12903200000002357,
          "durationTicks": 160,
          "midi": 68,
          "name": "G#4",
          "ticks": 302880,
          "time": 244.257576,
          "velocity": 0.31496062992125984
        },
        {
          "duration": 0.3870960000000139,
          "durationTicks": 480,
          "midi": 68,
          "name": "G#4",
          "ticks": 303360,
          "time": 244.64467199999999,
          "velocity": 0.31496062992125984
        },
        {
          "duration": 0.12903200000002357,
          "durationTicks": 160,
          "midi": 67,
          "name": "G4",
          "ticks": 303840,
          "time": 245.031768,
          "velocity": 0.31496062992125984
        },
        {
          "duration": 0.38709599999998545,
          "durationTicks": 480,
          "midi": 67,
          "name": "G4",
          "ticks": 304800,
          "time": 245.80596,
          "velocity": 0.31496062992125984
        },
        {
          "duration": 0.6129020000000196,
          "durationTicks": 760,
          "midi": 65,
          "name": "F4",
          "ticks": 305280,
          "time": 246.19305599999998,
          "velocity": 0.31496062992125984
        },
        {
          "duration": 0.38387020000001826,
          "durationTicks": 476,
          "midi": 65,
          "name": "F4",
          "ticks": 306240,
          "time": 246.96724799999998,
          "velocity": 0.31496062992125984
        },
        {
          "duration": 0.38387019999998984,
          "durationTicks": 476,
          "midi": 65,
          "name": "F4",
          "ticks": 306720,
          "time": 247.354344,
          "velocity": 0.31496062992125984
        },
        {
          "duration": 0.12903199999999515,
          "durationTicks": 160,
          "midi": 63,
          "name": "D#4",
          "ticks": 307200,
          "time": 247.74144,
          "velocity": 0.31496062992125984
        },
        {
          "duration": 0.12903199999999515,
          "durationTicks": 160,
          "midi": 63,
          "name": "D#4",
          "ticks": 307440,
          "time": 247.934988,
          "velocity": 0.31496062992125984
        },
        {
          "duration": 0.12903200000002357,
          "durationTicks": 160,
          "midi": 67,
          "name": "G4",
          "ticks": 307680,
          "time": 248.128536,
          "velocity": 0.31496062992125984
        },
        {
          "duration": 0.12903200000002357,
          "durationTicks": 160,
          "midi": 67,
          "name": "G4",
          "ticks": 307920,
          "time": 248.322084,
          "velocity": 0.31496062992125984
        },
        {
          "duration": 0.12903199999999515,
          "durationTicks": 160,
          "midi": 63,
          "name": "D#4",
          "ticks": 308160,
          "time": 248.515632,
          "velocity": 0.31496062992125984
        },
        {
          "duration": 0.19354799999999273,
          "durationTicks": 240,
          "midi": 62,
          "name": "D4",
          "ticks": 308640,
          "time": 248.902728,
          "velocity": 0.31496062992125984
        },
        {
          "duration": 0.19354800000002115,
          "durationTicks": 240,
          "midi": 63,
          "name": "D#4",
          "ticks": 308880,
          "time": 249.096276,
          "velocity": 0.31496062992125984
        },
        {
          "duration": 0.12903199999999515,
          "durationTicks": 160,
          "midi": 65,
          "name": "F4",
          "ticks": 309120,
          "time": 249.289824,
          "velocity": 0.31496062992125984
        },
        {
          "duration": 0.12903199999999515,
          "durationTicks": 160,
          "midi": 65,
          "name": "F4",
          "ticks": 309360,
          "time": 249.483372,
          "velocity": 0.31496062992125984
        },
        {
          "duration": 0.12903200000002357,
          "durationTicks": 160,
          "midi": 66,
          "name": "F#4",
          "ticks": 309600,
          "time": 249.67692,
          "velocity": 0.31496062992125984
        },
        {
          "duration": 0.12903200000002357,
          "durationTicks": 160,
          "midi": 66,
          "name": "F#4",
          "ticks": 309840,
          "time": 249.870468,
          "velocity": 0.31496062992125984
        },
        {
          "duration": 0.12903199999999515,
          "durationTicks": 160,
          "midi": 67,
          "name": "G4",
          "ticks": 310080,
          "time": 250.064016,
          "velocity": 0.31496062992125984
        },
        {
          "duration": 0.12903200000002357,
          "durationTicks": 160,
          "midi": 67,
          "name": "G4",
          "ticks": 310320,
          "time": 250.257564,
          "velocity": 0.31496062992125984
        },
        {
          "duration": 0.12903200000002357,
          "durationTicks": 160,
          "midi": 67,
          "name": "G4",
          "ticks": 310560,
          "time": 250.451112,
          "velocity": 0.31496062992125984
        },
        {
          "duration": 0.12903200000002357,
          "durationTicks": 160,
          "midi": 67,
          "name": "G4",
          "ticks": 310800,
          "time": 250.64466,
          "velocity": 0.31496062992125984
        },
        {
          "duration": 0.5806439999999782,
          "durationTicks": 720,
          "midi": 68,
          "name": "G#4",
          "ticks": 311040,
          "time": 250.838208,
          "velocity": 0.31496062992125984
        },
        {
          "duration": 0.09677400000001057,
          "durationTicks": 120,
          "midi": 65,
          "name": "F4",
          "ticks": 311760,
          "time": 251.418852,
          "velocity": 0.31496062992125984
        },
        {
          "duration": 0.09677400000001057,
          "durationTicks": 120,
          "midi": 62,
          "name": "D4",
          "ticks": 311880,
          "time": 251.515626,
          "velocity": 0.31496062992125984
        },
        {
          "duration": 0.12903199999999515,
          "durationTicks": 160,
          "midi": 58,
          "name": "A#3",
          "ticks": 312000,
          "time": 251.6124,
          "velocity": 0.31496062992125984
        },
        {
          "duration": 0.19354799999999273,
          "durationTicks": 240,
          "midi": 60,
          "name": "C4",
          "ticks": 312240,
          "time": 251.805948,
          "velocity": 0.31496062992125984
        },
        {
          "duration": 0.19354799999999273,
          "durationTicks": 240,
          "midi": 62,
          "name": "D4",
          "ticks": 312480,
          "time": 251.999496,
          "velocity": 0.31496062992125984
        },
        {
          "duration": 0.19354800000002115,
          "durationTicks": 240,
          "midi": 63,
          "name": "D#4",
          "ticks": 312720,
          "time": 252.193044,
          "velocity": 0.31496062992125984
        },
        {
          "duration": 0.12903199999999515,
          "durationTicks": 160,
          "midi": 65,
          "name": "F4",
          "ticks": 312960,
          "time": 252.386592,
          "velocity": 0.31496062992125984
        },
        {
          "duration": 0.12903200000002357,
          "durationTicks": 160,
          "midi": 65,
          "name": "F4",
          "ticks": 313200,
          "time": 252.58014,
          "velocity": 0.31496062992125984
        },
        {
          "duration": 0.12903200000002357,
          "durationTicks": 160,
          "midi": 66,
          "name": "F#4",
          "ticks": 313440,
          "time": 252.773688,
          "velocity": 0.31496062992125984
        },
        {
          "duration": 0.12903200000002357,
          "durationTicks": 160,
          "midi": 66,
          "name": "F#4",
          "ticks": 313680,
          "time": 252.96723599999999,
          "velocity": 0.31496062992125984
        },
        {
          "duration": 0.12903199999999515,
          "durationTicks": 160,
          "midi": 67,
          "name": "G4",
          "ticks": 313920,
          "time": 253.160784,
          "velocity": 0.31496062992125984
        },
        {
          "duration": 0.12903200000002357,
          "durationTicks": 160,
          "midi": 67,
          "name": "G4",
          "ticks": 314160,
          "time": 253.354332,
          "velocity": 0.31496062992125984
        },
        {
          "duration": 0.12903200000002357,
          "durationTicks": 160,
          "midi": 67,
          "name": "G4",
          "ticks": 314400,
          "time": 253.54788,
          "velocity": 0.31496062992125984
        },
        {
          "duration": 0.12903200000002357,
          "durationTicks": 160,
          "midi": 67,
          "name": "G4",
          "ticks": 314640,
          "time": 253.74142799999998,
          "velocity": 0.31496062992125984
        },
        {
          "duration": 0.5806439999999782,
          "durationTicks": 720,
          "midi": 68,
          "name": "G#4",
          "ticks": 314880,
          "time": 253.934976,
          "velocity": 0.31496062992125984
        },
        {
          "duration": 0.09677400000001057,
          "durationTicks": 120,
          "midi": 65,
          "name": "F4",
          "ticks": 315600,
          "time": 254.51561999999998,
          "velocity": 0.31496062992125984
        },
        {
          "duration": 0.09677400000001057,
          "durationTicks": 120,
          "midi": 62,
          "name": "D4",
          "ticks": 315720,
          "time": 254.612394,
          "velocity": 0.31496062992125984
        },
        {
          "duration": 0.12903199999999515,
          "durationTicks": 160,
          "midi": 58,
          "name": "A#3",
          "ticks": 315840,
          "time": 254.709168,
          "velocity": 0.31496062992125984
        },
        {
          "duration": 0.12903200000002357,
          "durationTicks": 160,
          "midi": 70,
          "name": "A#4",
          "ticks": 316080,
          "time": 254.902716,
          "velocity": 0.5511811023622047
        },
        {
          "duration": 0.12903200000002357,
          "durationTicks": 160,
          "midi": 75,
          "name": "D#5",
          "ticks": 316320,
          "time": 255.096264,
          "velocity": 0.5511811023622047
        },
        {
          "duration": 0.12903200000002357,
          "durationTicks": 160,
          "midi": 79,
          "name": "G5",
          "ticks": 316560,
          "time": 255.28981199999998,
          "velocity": 0.5511811023622047
        },
        {
          "duration": 0.12903199999999515,
          "durationTicks": 160,
          "midi": 82,
          "name": "A#5",
          "ticks": 316800,
          "time": 255.48336,
          "velocity": 0.5511811023622047
        },
        {
          "duration": 0.12903200000002357,
          "durationTicks": 160,
          "midi": 82,
          "name": "A#5",
          "ticks": 317040,
          "time": 255.676908,
          "velocity": 0.5511811023622047
        },
        {
          "duration": 0.12903200000002357,
          "durationTicks": 160,
          "midi": 82,
          "name": "A#5",
          "ticks": 317280,
          "time": 255.870456,
          "velocity": 0.5511811023622047
        },
        {
          "duration": 0.12903199999999515,
          "durationTicks": 160,
          "midi": 82,
          "name": "A#5",
          "ticks": 317520,
          "time": 256.064004,
          "velocity": 0.5511811023622047
        },
        {
          "duration": 0.129032000000052,
          "durationTicks": 160,
          "midi": 82,
          "name": "A#5",
          "ticks": 317760,
          "time": 256.257552,
          "velocity": 0.5511811023622047
        },
        {
          "duration": 0.12903199999999515,
          "durationTicks": 160,
          "midi": 82,
          "name": "A#5",
          "ticks": 318000,
          "time": 256.4511,
          "velocity": 0.5511811023622047
        },
        {
          "duration": 0.12903199999999515,
          "durationTicks": 160,
          "midi": 82,
          "name": "A#5",
          "ticks": 318240,
          "time": 256.644648,
          "velocity": 0.5511811023622047
        },
        {
          "duration": 0.129032000000052,
          "durationTicks": 160,
          "midi": 82,
          "name": "A#5",
          "ticks": 318480,
          "time": 256.838196,
          "velocity": 0.5511811023622047
        },
        {
          "duration": 0.12903199999999515,
          "durationTicks": 160,
          "midi": 82,
          "name": "A#5",
          "ticks": 318720,
          "time": 257.031744,
          "velocity": 0.5511811023622047
        },
        {
          "duration": 0.12903199999999515,
          "durationTicks": 160,
          "midi": 82,
          "name": "A#5",
          "ticks": 318960,
          "time": 257.225292,
          "velocity": 0.5511811023622047
        },
        {
          "duration": 0.12903199999999515,
          "durationTicks": 160,
          "midi": 82,
          "name": "A#5",
          "ticks": 319200,
          "time": 257.41884,
          "velocity": 0.5511811023622047
        },
        {
          "duration": 0.12903199999999515,
          "durationTicks": 160,
          "midi": 82,
          "name": "A#5",
          "ticks": 319440,
          "time": 257.612388,
          "velocity": 0.5511811023622047
        },
        {
          "duration": 0.129032000000052,
          "durationTicks": 160,
          "midi": 82,
          "name": "A#5",
          "ticks": 319680,
          "time": 257.805936,
          "velocity": 0.5511811023622047
        },
        {
          "duration": 0.12903199999999515,
          "durationTicks": 160,
          "midi": 82,
          "name": "A#5",
          "ticks": 319920,
          "time": 257.999484,
          "velocity": 0.5511811023622047
        },
        {
          "duration": 0.12903199999999515,
          "durationTicks": 160,
          "midi": 82,
          "name": "A#5",
          "ticks": 320160,
          "time": 258.193032,
          "velocity": 0.5511811023622047
        },
        {
          "duration": 0.129032000000052,
          "durationTicks": 160,
          "midi": 82,
          "name": "A#5",
          "ticks": 320400,
          "time": 258.38658,
          "velocity": 0.5511811023622047
        },
        {
          "duration": 0.1370964999999842,
          "durationTicks": 170,
          "midi": 82,
          "name": "A#5",
          "ticks": 320640,
          "time": 258.580128,
          "velocity": 0.5511811023622047
        },
        {
          "duration": 0.1935479999999643,
          "durationTicks": 240,
          "midi": 74,
          "name": "D5",
          "ticks": 320880,
          "time": 258.773676,
          "velocity": 0.7086614173228346
        },
        {
          "duration": 0.19354800000002115,
          "durationTicks": 240,
          "midi": 75,
          "name": "D#5",
          "ticks": 321120,
          "time": 258.967224,
          "velocity": 0.7086614173228346
        },
        {
          "duration": 0.1935479999999643,
          "durationTicks": 240,
          "midi": 77,
          "name": "F5",
          "ticks": 321360,
          "time": 259.160772,
          "velocity": 0.7086614173228346
        },
        {
          "duration": 0.129032000000052,
          "durationTicks": 160,
          "midi": 79,
          "name": "G5",
          "ticks": 321600,
          "time": 259.35432,
          "velocity": 0.7086614173228346
        },
        {
          "duration": 0.06129019999997354,
          "durationTicks": 76,
          "midi": 77,
          "name": "F5",
          "ticks": 322080,
          "time": 259.741416,
          "velocity": 0.7086614173228346
        },
        {
          "duration": 0.06129020000003038,
          "durationTicks": 76,
          "midi": 79,
          "name": "G5",
          "ticks": 322160,
          "time": 259.805932,
          "velocity": 0.7086614173228346
        },
        {
          "duration": 0.06129019999997354,
          "durationTicks": 76,
          "midi": 77,
          "name": "F5",
          "ticks": 322240,
          "time": 259.870448,
          "velocity": 0.7086614173228346
        },
        {
          "duration": 0.06129020000003038,
          "durationTicks": 76,
          "midi": 79,
          "name": "G5",
          "ticks": 322320,
          "time": 259.934964,
          "velocity": 0.7086614173228346
        },
        {
          "duration": 0.06129020000003038,
          "durationTicks": 76,
          "midi": 75,
          "name": "D#5",
          "ticks": 322400,
          "time": 259.99948,
          "velocity": 0.7086614173228346
        },
        {
          "duration": 0.06129019999997354,
          "durationTicks": 76,
          "midi": 77,
          "name": "F5",
          "ticks": 322480,
          "time": 260.06399600000003,
          "velocity": 0.7086614173228346
        },
        {
          "duration": 0.12903199999999515,
          "durationTicks": 160,
          "midi": 75,
          "name": "D#5",
          "ticks": 322560,
          "time": 260.128512,
          "velocity": 0.7086614173228346
        },
        {
          "duration": 0.129032000000052,
          "durationTicks": 160,
          "midi": 58,
          "name": "A#3",
          "ticks": 323040,
          "time": 260.515608,
          "velocity": 0.7086614173228346
        },
        {
          "duration": 0.129032000000052,
          "durationTicks": 160,
          "midi": 63,
          "name": "D#4",
          "ticks": 323040,
          "time": 260.515608,
          "velocity": 0.7086614173228346
        },
        {
          "duration": 0.129032000000052,
          "durationTicks": 160,
          "midi": 75,
          "name": "D#5",
          "ticks": 323040,
          "time": 260.515608,
          "velocity": 0.7086614173228346
        },
        {
          "duration": 0.129032000000052,
          "durationTicks": 160,
          "midi": 58,
          "name": "A#3",
          "ticks": 323520,
          "time": 260.90270399999997,
          "velocity": 0.7086614173228346
        },
        {
          "duration": 0.129032000000052,
          "durationTicks": 160,
          "midi": 63,
          "name": "D#4",
          "ticks": 323520,
          "time": 260.90270399999997,
          "velocity": 0.7086614173228346
        },
        {
          "duration": 0.129032000000052,
          "durationTicks": 160,
          "midi": 75,
          "name": "D#5",
          "ticks": 323520,
          "time": 260.90270399999997,
          "velocity": 0.7086614173228346
        },
        {
          "duration": 0.38709599999998545,
          "durationTicks": 480,
          "midi": 66,
          "name": "F#4",
          "ticks": 335520,
          "time": 270.580104,
          "velocity": 0.31496062992125984
        },
        {
          "duration": 0.12903199999999515,
          "durationTicks": 160,
          "midi": 65,
          "name": "F4",
          "ticks": 336000,
          "time": 270.9672,
          "velocity": 0.31496062992125984
        },
        {
          "duration": 0.12903199999999515,
          "durationTicks": 160,
          "midi": 70,
          "name": "A#4",
          "ticks": 336960,
          "time": 271.741392,
          "velocity": 0.31496062992125984
        },
        {
          "duration": 0.12903199999999515,
          "durationTicks": 160,
          "midi": 63,
          "name": "D#4",
          "ticks": 337920,
          "time": 272.515584,
          "velocity": 0.31496062992125984
        },
        {
          "duration": 0.12903199999999515,
          "durationTicks": 160,
          "midi": 63,
          "name": "D#4",
          "ticks": 338160,
          "time": 272.709132,
          "velocity": 0.31496062992125984
        },
        {
          "duration": 0.129032000000052,
          "durationTicks": 160,
          "midi": 67,
          "name": "G4",
          "ticks": 338400,
          "time": 272.90268,
          "velocity": 0.31496062992125984
        },
        {
          "duration": 0.12903199999999515,
          "durationTicks": 160,
          "midi": 67,
          "name": "G4",
          "ticks": 338640,
          "time": 273.096228,
          "velocity": 0.31496062992125984
        },
        {
          "duration": 0.12903199999999515,
          "durationTicks": 160,
          "midi": 63,
          "name": "D#4",
          "ticks": 338880,
          "time": 273.289776,
          "velocity": 0.31496062992125984
        },
        {
          "duration": 0.38709599999998545,
          "durationTicks": 480,
          "midi": 66,
          "name": "F#4",
          "ticks": 350880,
          "time": 282.967176,
          "velocity": 0.31496062992125984
        },
        {
          "duration": 0.129032000000052,
          "durationTicks": 160,
          "midi": 65,
          "name": "F4",
          "ticks": 351360,
          "time": 283.354272,
          "velocity": 0.31496062992125984
        },
        {
          "duration": 0.12903199999999515,
          "durationTicks": 160,
          "midi": 70,
          "name": "A#4",
          "ticks": 352320,
          "time": 284.128464,
          "velocity": 0.31496062992125984
        },
        {
          "duration": 0.129032000000052,
          "durationTicks": 160,
          "midi": 63,
          "name": "D#4",
          "ticks": 353280,
          "time": 284.902656,
          "velocity": 0.31496062992125984
        },
        {
          "duration": 0.12903199999999515,
          "durationTicks": 160,
          "midi": 63,
          "name": "D#4",
          "ticks": 353520,
          "time": 285.096204,
          "velocity": 0.31496062992125984
        },
        {
          "duration": 0.12903199999999515,
          "durationTicks": 160,
          "midi": 67,
          "name": "G4",
          "ticks": 353760,
          "time": 285.289752,
          "velocity": 0.31496062992125984
        },
        {
          "duration": 0.129032000000052,
          "durationTicks": 160,
          "midi": 67,
          "name": "G4",
          "ticks": 354000,
          "time": 285.4833,
          "velocity": 0.31496062992125984
        },
        {
          "duration": 0.12903199999999515,
          "durationTicks": 160,
          "midi": 63,
          "name": "D#4",
          "ticks": 354240,
          "time": 285.676848,
          "velocity": 0.31496062992125984
        },
        {
          "duration": 0.19354800000002115,
          "durationTicks": 240,
          "midi": 74,
          "name": "D5",
          "ticks": 354720,
          "time": 286.063944,
          "velocity": 0.31496062992125984
        },
        {
          "duration": 0.1935479999999643,
          "durationTicks": 240,
          "midi": 75,
          "name": "D#5",
          "ticks": 354960,
          "time": 286.257492,
          "velocity": 0.31496062992125984
        },
        {
          "duration": 0.129032000000052,
          "durationTicks": 160,
          "midi": 77,
          "name": "F5",
          "ticks": 355200,
          "time": 286.45104,
          "velocity": 0.31496062992125984
        },
        {
          "duration": 0.12903199999999515,
          "durationTicks": 160,
          "midi": 77,
          "name": "F5",
          "ticks": 355440,
          "time": 286.644588,
          "velocity": 0.31496062992125984
        },
        {
          "duration": 0.12903199999999515,
          "durationTicks": 160,
          "midi": 78,
          "name": "F#5",
          "ticks": 355680,
          "time": 286.838136,
          "velocity": 0.31496062992125984
        },
        {
          "duration": 0.129032000000052,
          "durationTicks": 160,
          "midi": 78,
          "name": "F#5",
          "ticks": 355920,
          "time": 287.031684,
          "velocity": 0.31496062992125984
        },
        {
          "duration": 0.12903199999999515,
          "durationTicks": 160,
          "midi": 79,
          "name": "G5",
          "ticks": 356160,
          "time": 287.225232,
          "velocity": 0.31496062992125984
        },
        {
          "duration": 0.129032000000052,
          "durationTicks": 160,
          "midi": 79,
          "name": "G5",
          "ticks": 356400,
          "time": 287.41877999999997,
          "velocity": 0.31496062992125984
        },
        {
          "duration": 0.12903199999999515,
          "durationTicks": 160,
          "midi": 79,
          "name": "G5",
          "ticks": 356640,
          "time": 287.612328,
          "velocity": 0.31496062992125984
        },
        {
          "duration": 0.12903199999999515,
          "durationTicks": 160,
          "midi": 79,
          "name": "G5",
          "ticks": 356880,
          "time": 287.805876,
          "velocity": 0.31496062992125984
        },
        {
          "duration": 0.5806440000000066,
          "durationTicks": 720,
          "midi": 80,
          "name": "G#5",
          "ticks": 357120,
          "time": 287.999424,
          "velocity": 0.31496062992125984
        },
        {
          "duration": 0.096774000000039,
          "durationTicks": 120,
          "midi": 77,
          "name": "F5",
          "ticks": 357840,
          "time": 288.580068,
          "velocity": 0.31496062992125984
        },
        {
          "duration": 0.09677399999998215,
          "durationTicks": 120,
          "midi": 74,
          "name": "D5",
          "ticks": 357960,
          "time": 288.676842,
          "velocity": 0.31496062992125984
        },
        {
          "duration": 0.12903199999999515,
          "durationTicks": 160,
          "midi": 70,
          "name": "A#4",
          "ticks": 358080,
          "time": 288.773616,
          "velocity": 0.31496062992125984
        },
        {
          "duration": 0.19354800000002115,
          "durationTicks": 240,
          "midi": 72,
          "name": "C5",
          "ticks": 358320,
          "time": 288.96716399999997,
          "velocity": 0.31496062992125984
        },
        {
          "duration": 0.19354800000002115,
          "durationTicks": 240,
          "midi": 74,
          "name": "D5",
          "ticks": 358560,
          "time": 289.160712,
          "velocity": 0.31496062992125984
        },
        {
          "duration": 0.1935479999999643,
          "durationTicks": 240,
          "midi": 75,
          "name": "D#5",
          "ticks": 358800,
          "time": 289.35426,
          "velocity": 0.31496062992125984
        },
        {
          "duration": 0.129032000000052,
          "durationTicks": 160,
          "midi": 77,
          "name": "F5",
          "ticks": 359040,
          "time": 289.547808,
          "velocity": 0.31496062992125984
        },
        {
          "duration": 0.12903199999999515,
          "durationTicks": 160,
          "midi": 77,
          "name": "F5",
          "ticks": 359280,
          "time": 289.741356,
          "velocity": 0.31496062992125984
        },
        {
          "duration": 0.12903199999999515,
          "durationTicks": 160,
          "midi": 78,
          "name": "F#5",
          "ticks": 359520,
          "time": 289.934904,
          "velocity": 0.31496062992125984
        },
        {
          "duration": 0.129032000000052,
          "durationTicks": 160,
          "midi": 78,
          "name": "F#5",
          "ticks": 359760,
          "time": 290.128452,
          "velocity": 0.31496062992125984
        },
        {
          "duration": 0.12903199999999515,
          "durationTicks": 160,
          "midi": 79,
          "name": "G5",
          "ticks": 360000,
          "time": 290.322,
          "velocity": 0.31496062992125984
        },
        {
          "duration": 0.12903199999999515,
          "durationTicks": 160,
          "midi": 79,
          "name": "G5",
          "ticks": 360240,
          "time": 290.515548,
          "velocity": 0.31496062992125984
        },
        {
          "duration": 0.12903199999999515,
          "durationTicks": 160,
          "midi": 79,
          "name": "G5",
          "ticks": 360480,
          "time": 290.709096,
          "velocity": 0.31496062992125984
        },
        {
          "duration": 0.12903199999999515,
          "durationTicks": 160,
          "midi": 79,
          "name": "G5",
          "ticks": 360720,
          "time": 290.902644,
          "velocity": 0.31496062992125984
        },
        {
          "duration": 0.5806440000000066,
          "durationTicks": 720,
          "midi": 80,
          "name": "G#5",
          "ticks": 360960,
          "time": 291.096192,
          "velocity": 0.31496062992125984
        },
        {
          "duration": 0.096774000000039,
          "durationTicks": 120,
          "midi": 77,
          "name": "F5",
          "ticks": 361680,
          "time": 291.676836,
          "velocity": 0.31496062992125984
        },
        {
          "duration": 0.09677399999998215,
          "durationTicks": 120,
          "midi": 74,
          "name": "D5",
          "ticks": 361800,
          "time": 291.77361,
          "velocity": 0.31496062992125984
        },
        {
          "duration": 0.12903199999999515,
          "durationTicks": 160,
          "midi": 70,
          "name": "A#4",
          "ticks": 361920,
          "time": 291.870384,
          "velocity": 0.31496062992125984
        },
        {
          "duration": 0.12903199999999515,
          "durationTicks": 160,
          "midi": 70,
          "name": "A#4",
          "ticks": 362160,
          "time": 292.063932,
          "velocity": 0.5511811023622047
        },
        {
          "duration": 0.129032000000052,
          "durationTicks": 160,
          "midi": 75,
          "name": "D#5",
          "ticks": 362400,
          "time": 292.25748,
          "velocity": 0.5511811023622047
        },
        {
          "duration": 0.12903199999999515,
          "durationTicks": 160,
          "midi": 79,
          "name": "G5",
          "ticks": 362640,
          "time": 292.451028,
          "velocity": 0.5511811023622047
        },
        {
          "duration": 0.129032000000052,
          "durationTicks": 160,
          "midi": 82,
          "name": "A#5",
          "ticks": 362880,
          "time": 292.644576,
          "velocity": 0.5511811023622047
        },
        {
          "duration": 0.12903199999999515,
          "durationTicks": 160,
          "midi": 82,
          "name": "A#5",
          "ticks": 363120,
          "time": 292.838124,
          "velocity": 0.5511811023622047
        },
        {
          "duration": 0.12903199999999515,
          "durationTicks": 160,
          "midi": 82,
          "name": "A#5",
          "ticks": 363360,
          "time": 293.031672,
          "velocity": 0.5511811023622047
        },
        {
          "duration": 0.129032000000052,
          "durationTicks": 160,
          "midi": 82,
          "name": "A#5",
          "ticks": 363600,
          "time": 293.22522,
          "velocity": 0.5511811023622047
        },
        {
          "duration": 0.12903199999999515,
          "durationTicks": 160,
          "midi": 82,
          "name": "A#5",
          "ticks": 363840,
          "time": 293.418768,
          "velocity": 0.5511811023622047
        },
        {
          "duration": 0.12903199999999515,
          "durationTicks": 160,
          "midi": 82,
          "name": "A#5",
          "ticks": 364080,
          "time": 293.612316,
          "velocity": 0.5511811023622047
        },
        {
          "duration": 0.129032000000052,
          "durationTicks": 160,
          "midi": 82,
          "name": "A#5",
          "ticks": 364320,
          "time": 293.805864,
          "velocity": 0.5511811023622047
        },
        {
          "duration": 0.12903199999999515,
          "durationTicks": 160,
          "midi": 82,
          "name": "A#5",
          "ticks": 364560,
          "time": 293.999412,
          "velocity": 0.5511811023622047
        },
        {
          "duration": 0.129032000000052,
          "durationTicks": 160,
          "midi": 82,
          "name": "A#5",
          "ticks": 364800,
          "time": 294.19295999999997,
          "velocity": 0.5511811023622047
        },
        {
          "duration": 0.12903199999999515,
          "durationTicks": 160,
          "midi": 82,
          "name": "A#5",
          "ticks": 365040,
          "time": 294.386508,
          "velocity": 0.5511811023622047
        },
        {
          "duration": 0.12903199999999515,
          "durationTicks": 160,
          "midi": 82,
          "name": "A#5",
          "ticks": 365280,
          "time": 294.580056,
          "velocity": 0.5511811023622047
        },
        {
          "duration": 0.129032000000052,
          "durationTicks": 160,
          "midi": 82,
          "name": "A#5",
          "ticks": 365520,
          "time": 294.773604,
          "velocity": 0.5511811023622047
        },
        {
          "duration": 0.12903199999999515,
          "durationTicks": 160,
          "midi": 82,
          "name": "A#5",
          "ticks": 365760,
          "time": 294.967152,
          "velocity": 0.5511811023622047
        },
        {
          "duration": 0.12903199999999515,
          "durationTicks": 160,
          "midi": 82,
          "name": "A#5",
          "ticks": 366000,
          "time": 295.1607,
          "velocity": 0.5511811023622047
        },
        {
          "duration": 0.129032000000052,
          "durationTicks": 160,
          "midi": 82,
          "name": "A#5",
          "ticks": 366240,
          "time": 295.354248,
          "velocity": 0.5511811023622047
        },
        {
          "duration": 0.12903199999999515,
          "durationTicks": 160,
          "midi": 82,
          "name": "A#5",
          "ticks": 366480,
          "time": 295.547796,
          "velocity": 0.5511811023622047
        },
        {
          "duration": 0.1370964999999842,
          "durationTicks": 170,
          "midi": 82,
          "name": "A#5",
          "ticks": 366720,
          "time": 295.74134399999997,
          "velocity": 0.5511811023622047
        },
        {
          "duration": 0.19354800000002115,
          "durationTicks": 240,
          "midi": 74,
          "name": "D5",
          "ticks": 366960,
          "time": 295.934892,
          "velocity": 0.7086614173228346
        },
        {
          "duration": 0.1935479999999643,
          "durationTicks": 240,
          "midi": 75,
          "name": "D#5",
          "ticks": 367200,
          "time": 296.12844,
          "velocity": 0.7086614173228346
        },
        {
          "duration": 0.19354800000002115,
          "durationTicks": 240,
          "midi": 77,
          "name": "F5",
          "ticks": 367440,
          "time": 296.321988,
          "velocity": 0.7086614173228346
        },
        {
          "duration": 0.12903199999999515,
          "durationTicks": 160,
          "midi": 79,
          "name": "G5",
          "ticks": 367680,
          "time": 296.515536,
          "velocity": 0.7086614173228346
        },
        {
          "duration": 0.06129020000003038,
          "durationTicks": 76,
          "midi": 77,
          "name": "F5",
          "ticks": 368160,
          "time": 296.902632,
          "velocity": 0.7086614173228346
        },
        {
          "duration": 0.06129020000003038,
          "durationTicks": 76,
          "midi": 79,
          "name": "G5",
          "ticks": 368240,
          "time": 296.967148,
          "velocity": 0.7086614173228346
        },
        {
          "duration": 0.06129019999997354,
          "durationTicks": 76,
          "midi": 77,
          "name": "F5",
          "ticks": 368320,
          "time": 297.03166400000003,
          "velocity": 0.7086614173228346
        },
        {
          "duration": 0.06129019999997354,
          "durationTicks": 76,
          "midi": 79,
          "name": "G5",
          "ticks": 368400,
          "time": 297.09618,
          "velocity": 0.7086614173228346
        },
        {
          "duration": 0.06129020000003038,
          "durationTicks": 76,
          "midi": 75,
          "name": "D#5",
          "ticks": 368480,
          "time": 297.160696,
          "velocity": 0.7086614173228346
        },
        {
          "duration": 0.06129019999997354,
          "durationTicks": 76,
          "midi": 77,
          "name": "F5",
          "ticks": 368560,
          "time": 297.225212,
          "velocity": 0.7086614173228346
        },
        {
          "duration": 0.129032000000052,
          "durationTicks": 160,
          "midi": 75,
          "name": "D#5",
          "ticks": 368640,
          "time": 297.28972799999997,
          "velocity": 0.7086614173228346
        },
        {
          "duration": 0.12903199999999515,
          "durationTicks": 160,
          "midi": 58,
          "name": "A#3",
          "ticks": 369120,
          "time": 297.676824,
          "velocity": 0.7086614173228346
        },
        {
          "duration": 0.12903199999999515,
          "durationTicks": 160,
          "midi": 63,
          "name": "D#4",
          "ticks": 369120,
          "time": 297.676824,
          "velocity": 0.7086614173228346
        },
        {
          "duration": 0.12903199999999515,
          "durationTicks": 160,
          "midi": 75,
          "name": "D#5",
          "ticks": 369120,
          "time": 297.676824,
          "velocity": 0.7086614173228346
        },
        {
          "duration": 0.12903199999999515,
          "durationTicks": 160,
          "midi": 58,
          "name": "A#3",
          "ticks": 369600,
          "time": 298.06392,
          "velocity": 0.7086614173228346
        },
        {
          "duration": 0.12903199999999515,
          "durationTicks": 160,
          "midi": 63,
          "name": "D#4",
          "ticks": 369600,
          "time": 298.06392,
          "velocity": 0.7086614173228346
        },
        {
          "duration": 0.12903199999999515,
          "durationTicks": 160,
          "midi": 75,
          "name": "D#5",
          "ticks": 369600,
          "time": 298.06392,
          "velocity": 0.7086614173228346
        },
        {
          "duration": 0.1935479999999643,
          "durationTicks": 240,
          "midi": 74,
          "name": "D5",
          "ticks": 400800,
          "time": 323.22516,
          "velocity": 0.31496062992125984
        },
        {
          "duration": 0.19354800000002115,
          "durationTicks": 240,
          "midi": 75,
          "name": "D#5",
          "ticks": 401040,
          "time": 323.418708,
          "velocity": 0.31496062992125984
        },
        {
          "duration": 0.12903199999999515,
          "durationTicks": 160,
          "midi": 77,
          "name": "F5",
          "ticks": 401280,
          "time": 323.612256,
          "velocity": 0.31496062992125984
        },
        {
          "duration": 0.12903199999999515,
          "durationTicks": 160,
          "midi": 77,
          "name": "F5",
          "ticks": 401520,
          "time": 323.805804,
          "velocity": 0.31496062992125984
        },
        {
          "duration": 0.12903199999999515,
          "durationTicks": 160,
          "midi": 78,
          "name": "F#5",
          "ticks": 401760,
          "time": 323.999352,
          "velocity": 0.31496062992125984
        },
        {
          "duration": 0.12903199999999515,
          "durationTicks": 160,
          "midi": 78,
          "name": "F#5",
          "ticks": 402000,
          "time": 324.1929,
          "velocity": 0.31496062992125984
        },
        {
          "duration": 0.129032000000052,
          "durationTicks": 160,
          "midi": 79,
          "name": "G5",
          "ticks": 402240,
          "time": 324.386448,
          "velocity": 0.31496062992125984
        },
        {
          "duration": 0.12903199999999515,
          "durationTicks": 160,
          "midi": 79,
          "name": "G5",
          "ticks": 402480,
          "time": 324.579996,
          "velocity": 0.31496062992125984
        },
        {
          "duration": 0.12903199999999515,
          "durationTicks": 160,
          "midi": 79,
          "name": "G5",
          "ticks": 402720,
          "time": 324.773544,
          "velocity": 0.31496062992125984
        },
        {
          "duration": 0.129032000000052,
          "durationTicks": 160,
          "midi": 79,
          "name": "G5",
          "ticks": 402960,
          "time": 324.967092,
          "velocity": 0.31496062992125984
        },
        {
          "duration": 0.09677399999998215,
          "durationTicks": 120,
          "midi": 80,
          "name": "G#5",
          "ticks": 403200,
          "time": 325.16064,
          "velocity": 0.31496062992125984
        },
        {
          "duration": 0.096774000000039,
          "durationTicks": 120,
          "midi": 77,
          "name": "F5",
          "ticks": 403320,
          "time": 325.257414,
          "velocity": 0.31496062992125984
        },
        {
          "duration": 0.09677399999998215,
          "durationTicks": 120,
          "midi": 80,
          "name": "G#5",
          "ticks": 403440,
          "time": 325.354188,
          "velocity": 0.31496062992125984
        },
        {
          "duration": 0.09677399999998215,
          "durationTicks": 120,
          "midi": 77,
          "name": "F5",
          "ticks": 403560,
          "time": 325.450962,
          "velocity": 0.31496062992125984
        },
        {
          "duration": 0.09677399999998215,
          "durationTicks": 120,
          "midi": 80,
          "name": "G#5",
          "ticks": 403680,
          "time": 325.547736,
          "velocity": 0.31496062992125984
        },
        {
          "duration": 0.096774000000039,
          "durationTicks": 120,
          "midi": 76,
          "name": "E5",
          "ticks": 403800,
          "time": 325.64450999999997,
          "velocity": 0.31496062992125984
        },
        {
          "duration": 0.09677399999998215,
          "durationTicks": 120,
          "midi": 80,
          "name": "G#5",
          "ticks": 403920,
          "time": 325.741284,
          "velocity": 0.31496062992125984
        },
        {
          "duration": 0.09677399999998215,
          "durationTicks": 120,
          "midi": 76,
          "name": "E5",
          "ticks": 404040,
          "time": 325.838058,
          "velocity": 0.31496062992125984
        },
        {
          "duration": 0.129032000000052,
          "durationTicks": 160,
          "midi": 80,
          "name": "G#5",
          "ticks": 404160,
          "time": 325.934832,
          "velocity": 0.31496062992125984
        },
        {
          "duration": 0.1935479999999643,
          "durationTicks": 240,
          "midi": 74,
          "name": "D5",
          "ticks": 404640,
          "time": 326.321928,
          "velocity": 0.31496062992125984
        },
        {
          "duration": 0.19354800000002115,
          "durationTicks": 240,
          "midi": 75,
          "name": "D#5",
          "ticks": 404880,
          "time": 326.515476,
          "velocity": 0.31496062992125984
        },
        {
          "duration": 0.12903199999999515,
          "durationTicks": 160,
          "midi": 77,
          "name": "F5",
          "ticks": 405120,
          "time": 326.709024,
          "velocity": 0.31496062992125984
        },
        {
          "duration": 0.12903199999999515,
          "durationTicks": 160,
          "midi": 77,
          "name": "F5",
          "ticks": 405360,
          "time": 326.902572,
          "velocity": 0.31496062992125984
        },
        {
          "duration": 0.129032000000052,
          "durationTicks": 160,
          "midi": 78,
          "name": "F#5",
          "ticks": 405600,
          "time": 327.09612,
          "velocity": 0.31496062992125984
        },
        {
          "duration": 0.12903199999999515,
          "durationTicks": 160,
          "midi": 78,
          "name": "F#5",
          "ticks": 405840,
          "time": 327.289668,
          "velocity": 0.31496062992125984
        },
        {
          "duration": 0.129032000000052,
          "durationTicks": 160,
          "midi": 79,
          "name": "G5",
          "ticks": 406080,
          "time": 327.48321599999997,
          "velocity": 0.31496062992125984
        },
        {
          "duration": 0.12903199999999515,
          "durationTicks": 160,
          "midi": 79,
          "name": "G5",
          "ticks": 406320,
          "time": 327.676764,
          "velocity": 0.31496062992125984
        },
        {
          "duration": 0.12903199999999515,
          "durationTicks": 160,
          "midi": 79,
          "name": "G5",
          "ticks": 406560,
          "time": 327.870312,
          "velocity": 0.31496062992125984
        },
        {
          "duration": 0.129032000000052,
          "durationTicks": 160,
          "midi": 79,
          "name": "G5",
          "ticks": 406800,
          "time": 328.06386,
          "velocity": 0.31496062992125984
        },
        {
          "duration": 0.09677399999998215,
          "durationTicks": 120,
          "midi": 80,
          "name": "G#5",
          "ticks": 407040,
          "time": 328.257408,
          "velocity": 0.31496062992125984
        },
        {
          "duration": 0.096774000000039,
          "durationTicks": 120,
          "midi": 77,
          "name": "F5",
          "ticks": 407160,
          "time": 328.354182,
          "velocity": 0.31496062992125984
        },
        {
          "duration": 0.09677399999998215,
          "durationTicks": 120,
          "midi": 80,
          "name": "G#5",
          "ticks": 407280,
          "time": 328.450956,
          "velocity": 0.31496062992125984
        },
        {
          "duration": 0.09677399999998215,
          "durationTicks": 120,
          "midi": 77,
          "name": "F5",
          "ticks": 407400,
          "time": 328.54773,
          "velocity": 0.31496062992125984
        },
        {
          "duration": 0.096774000000039,
          "durationTicks": 120,
          "midi": 80,
          "name": "G#5",
          "ticks": 407520,
          "time": 328.644504,
          "velocity": 0.31496062992125984
        },
        {
          "duration": 0.09677399999998215,
          "durationTicks": 120,
          "midi": 76,
          "name": "E5",
          "ticks": 407640,
          "time": 328.741278,
          "velocity": 0.31496062992125984
        },
        {
          "duration": 0.09677399999998215,
          "durationTicks": 120,
          "midi": 80,
          "name": "G#5",
          "ticks": 407760,
          "time": 328.838052,
          "velocity": 0.31496062992125984
        },
        {
          "duration": 0.09677399999998215,
          "durationTicks": 120,
          "midi": 76,
          "name": "E5",
          "ticks": 407880,
          "time": 328.934826,
          "velocity": 0.31496062992125984
        },
        {
          "duration": 0.129032000000052,
          "durationTicks": 160,
          "midi": 80,
          "name": "G#5",
          "ticks": 408000,
          "time": 329.03159999999997,
          "velocity": 0.31496062992125984
        },
        {
          "duration": 0.12903199999999515,
          "durationTicks": 160,
          "midi": 70,
          "name": "A#4",
          "ticks": 408240,
          "time": 329.225148,
          "velocity": 0.5511811023622047
        },
        {
          "duration": 0.12903199999999515,
          "durationTicks": 160,
          "midi": 75,
          "name": "D#5",
          "ticks": 408480,
          "time": 329.418696,
          "velocity": 0.5511811023622047
        },
        {
          "duration": 0.129032000000052,
          "durationTicks": 160,
          "midi": 79,
          "name": "G5",
          "ticks": 408720,
          "time": 329.612244,
          "velocity": 0.5511811023622047
        },
        {
          "duration": 0.12903199999999515,
          "durationTicks": 160,
          "midi": 82,
          "name": "A#5",
          "ticks": 408960,
          "time": 329.805792,
          "velocity": 0.5511811023622047
        },
        {
          "duration": 0.12903199999999515,
          "durationTicks": 160,
          "midi": 82,
          "name": "A#5",
          "ticks": 409200,
          "time": 329.99934,
          "velocity": 0.5511811023622047
        },
        {
          "duration": 0.129032000000052,
          "durationTicks": 160,
          "midi": 82,
          "name": "A#5",
          "ticks": 409440,
          "time": 330.192888,
          "velocity": 0.5511811023622047
        },
        {
          "duration": 0.12903199999999515,
          "durationTicks": 160,
          "midi": 82,
          "name": "A#5",
          "ticks": 409680,
          "time": 330.386436,
          "velocity": 0.5511811023622047
        },
        {
          "duration": 0.12903199999999515,
          "durationTicks": 160,
          "midi": 82,
          "name": "A#5",
          "ticks": 409920,
          "time": 330.579984,
          "velocity": 0.5511811023622047
        },
        {
          "duration": 0.12903199999999515,
          "durationTicks": 160,
          "midi": 82,
          "name": "A#5",
          "ticks": 410160,
          "time": 330.773532,
          "velocity": 0.5511811023622047
        },
        {
          "duration": 0.12903199999999515,
          "durationTicks": 160,
          "midi": 82,
          "name": "A#5",
          "ticks": 410400,
          "time": 330.96708,
          "velocity": 0.5511811023622047
        },
        {
          "duration": 0.129032000000052,
          "durationTicks": 160,
          "midi": 82,
          "name": "A#5",
          "ticks": 410640,
          "time": 331.160628,
          "velocity": 0.5511811023622047
        },
        {
          "duration": 0.12903199999999515,
          "durationTicks": 160,
          "midi": 82,
          "name": "A#5",
          "ticks": 410880,
          "time": 331.354176,
          "velocity": 0.5511811023622047
        },
        {
          "duration": 0.12903199999999515,
          "durationTicks": 160,
          "midi": 82,
          "name": "A#5",
          "ticks": 411120,
          "time": 331.547724,
          "velocity": 0.5511811023622047
        },
        {
          "duration": 0.129032000000052,
          "durationTicks": 160,
          "midi": 82,
          "name": "A#5",
          "ticks": 411360,
          "time": 331.741272,
          "velocity": 0.5511811023622047
        },
        {
          "duration": 0.12903199999999515,
          "durationTicks": 160,
          "midi": 82,
          "name": "A#5",
          "ticks": 411600,
          "time": 331.93482,
          "velocity": 0.5511811023622047
        },
        {
          "duration": 0.12903199999999515,
          "durationTicks": 160,
          "midi": 82,
          "name": "A#5",
          "ticks": 411840,
          "time": 332.128368,
          "velocity": 0.5511811023622047
        },
        {
          "duration": 0.12903199999999515,
          "durationTicks": 160,
          "midi": 82,
          "name": "A#5",
          "ticks": 412080,
          "time": 332.321916,
          "velocity": 0.5511811023622047
        },
        {
          "duration": 0.12903199999999515,
          "durationTicks": 160,
          "midi": 82,
          "name": "A#5",
          "ticks": 412320,
          "time": 332.515464,
          "velocity": 0.5511811023622047
        },
        {
          "duration": 0.129032000000052,
          "durationTicks": 160,
          "midi": 82,
          "name": "A#5",
          "ticks": 412560,
          "time": 332.709012,
          "velocity": 0.5511811023622047
        },
        {
          "duration": 0.1370964999999842,
          "durationTicks": 170,
          "midi": 82,
          "name": "A#5",
          "ticks": 412800,
          "time": 332.90256,
          "velocity": 0.5511811023622047
        },
        {
          "duration": 0.1935479999999643,
          "durationTicks": 240,
          "midi": 74,
          "name": "D5",
          "ticks": 413040,
          "time": 333.096108,
          "velocity": 0.7086614173228346
        },
        {
          "duration": 0.19354800000002115,
          "durationTicks": 240,
          "midi": 75,
          "name": "D#5",
          "ticks": 413280,
          "time": 333.289656,
          "velocity": 0.7086614173228346
        },
        {
          "duration": 0.19354800000002115,
          "durationTicks": 240,
          "midi": 77,
          "name": "F5",
          "ticks": 413520,
          "time": 333.483204,
          "velocity": 0.7086614173228346
        },
        {
          "duration": 0.12903199999999515,
          "durationTicks": 160,
          "midi": 79,
          "name": "G5",
          "ticks": 413760,
          "time": 333.676752,
          "velocity": 0.7086614173228346
        },
        {
          "duration": 0.12903199999999515,
          "durationTicks": 160,
          "midi": 77,
          "name": "F5",
          "ticks": 414240,
          "time": 334.063848,
          "velocity": 0.7086614173228346
        },
        {
          "duration": 0.12903199999999515,
          "durationTicks": 160,
          "midi": 75,
          "name": "D#5",
          "ticks": 414720,
          "time": 334.450944,
          "velocity": 0.7086614173228346
        },
        {
          "duration": 0.129032000000052,
          "durationTicks": 160,
          "midi": 58,
          "name": "A#3",
          "ticks": 415200,
          "time": 334.83804,
          "velocity": 0.7086614173228346
        },
        {
          "duration": 0.129032000000052,
          "durationTicks": 160,
          "midi": 63,
          "name": "D#4",
          "ticks": 415200,
          "time": 334.83804,
          "velocity": 0.7086614173228346
        },
        {
          "duration": 0.129032000000052,
          "durationTicks": 160,
          "midi": 75,
          "name": "D#5",
          "ticks": 415200,
          "time": 334.83804,
          "velocity": 0.7086614173228346
        },
        {
          "duration": 0.12903199999999515,
          "durationTicks": 160,
          "midi": 58,
          "name": "A#3",
          "ticks": 415680,
          "time": 335.225136,
          "velocity": 0.7086614173228346
        },
        {
          "duration": 0.12903199999999515,
          "durationTicks": 160,
          "midi": 63,
          "name": "D#4",
          "ticks": 415680,
          "time": 335.225136,
          "velocity": 0.7086614173228346
        },
        {
          "duration": 0.12903199999999515,
          "durationTicks": 160,
          "midi": 75,
          "name": "D#5",
          "ticks": 415680,
          "time": 335.225136,
          "velocity": 0.7086614173228346
        },
        {
          "duration": 0.6129020000000196,
          "durationTicks": 760,
          "midi": 67,
          "name": "G4",
          "ticks": 416640,
          "time": 335.999328,
          "velocity": 0.31496062992125984
        },
        {
          "duration": 0.38709599999998545,
          "durationTicks": 480,
          "midi": 67,
          "name": "G4",
          "ticks": 418080,
          "time": 337.160616,
          "velocity": 0.31496062992125984
        },
        {
          "duration": 0.6129020000000196,
          "durationTicks": 760,
          "midi": 65,
          "name": "F4",
          "ticks": 418560,
          "time": 337.547712,
          "velocity": 0.31496062992125984
        },
        {
          "duration": 0.38709599999998545,
          "durationTicks": 480,
          "midi": 68,
          "name": "G#4",
          "ticks": 420000,
          "time": 338.709,
          "velocity": 0.31496062992125984
        },
        {
          "duration": 0.6129020000000196,
          "durationTicks": 760,
          "midi": 67,
          "name": "G4",
          "ticks": 420480,
          "time": 339.096096,
          "velocity": 0.31496062992125984
        },
        {
          "duration": 0.38709599999998545,
          "durationTicks": 480,
          "midi": 69,
          "name": "A4",
          "ticks": 421920,
          "time": 340.257384,
          "velocity": 0.31496062992125984
        },
        {
          "duration": 0.6129020000000196,
          "durationTicks": 760,
          "midi": 70,
          "name": "A#4",
          "ticks": 422400,
          "time": 340.64448,
          "velocity": 0.31496062992125984
        },
        {
          "duration": 0.7741920000000277,
          "durationTicks": 960,
          "midi": 70,
          "name": "A#4",
          "ticks": 424320,
          "time": 342.192864,
          "velocity": 0.31496062992125984
        },
        {
          "duration": 0.1370964999999842,
          "durationTicks": 170,
          "midi": 68,
          "name": "G#4",
          "ticks": 425280,
          "time": 342.967056,
          "velocity": 0.31496062992125984
        },
        {
          "duration": 0.7741920000000277,
          "durationTicks": 960,
          "midi": 68,
          "name": "G#4",
          "ticks": 426240,
          "time": 343.741248,
          "velocity": 0.31496062992125984
        },
        {
          "duration": 0.1370964999999842,
          "durationTicks": 170,
          "midi": 67,
          "name": "G4",
          "ticks": 427200,
          "time": 344.51544,
          "velocity": 0.31496062992125984
        },
        {
          "duration": 0.129032000000052,
          "durationTicks": 160,
          "midi": 65,
          "name": "F4",
          "ticks": 428160,
          "time": 345.289632,
          "velocity": 0.31496062992125984
        },
        {
          "duration": 0.12903199999999515,
          "durationTicks": 160,
          "midi": 62,
          "name": "D4",
          "ticks": 429120,
          "time": 346.063824,
          "velocity": 0.31496062992125984
        },
        {
          "duration": 0.129032000000052,
          "durationTicks": 160,
          "midi": 63,
          "name": "D#4",
          "ticks": 430080,
          "time": 346.838016,
          "velocity": 0.31496062992125984
        },
        {
          "duration": 0.12903199999999515,
          "durationTicks": 160,
          "midi": 63,
          "name": "D#4",
          "ticks": 430320,
          "time": 347.031564,
          "velocity": 0.31496062992125984
        },
        {
          "duration": 0.12903199999999515,
          "durationTicks": 160,
          "midi": 67,
          "name": "G4",
          "ticks": 430560,
          "time": 347.225112,
          "velocity": 0.31496062992125984
        },
        {
          "duration": 0.12903199999999515,
          "durationTicks": 160,
          "midi": 67,
          "name": "G4",
          "ticks": 430800,
          "time": 347.41866,
          "velocity": 0.31496062992125984
        },
        {
          "duration": 0.12903199999999515,
          "durationTicks": 160,
          "midi": 63,
          "name": "D#4",
          "ticks": 431040,
          "time": 347.612208,
          "velocity": 0.31496062992125984
        },
        {
          "duration": 0.19354800000002115,
          "durationTicks": 240,
          "midi": 67,
          "name": "G4",
          "ticks": 431280,
          "time": 347.805756,
          "velocity": 0.31496062992125984
        },
        {
          "duration": 0.19354800000002115,
          "durationTicks": 240,
          "midi": 65,
          "name": "F4",
          "ticks": 431520,
          "time": 347.999304,
          "velocity": 0.31496062992125984
        },
        {
          "duration": 0.1935479999999643,
          "durationTicks": 240,
          "midi": 63,
          "name": "D#4",
          "ticks": 431760,
          "time": 348.192852,
          "velocity": 0.31496062992125984
        },
        {
          "duration": 0.129032000000052,
          "durationTicks": 160,
          "midi": 62,
          "name": "D4",
          "ticks": 432000,
          "time": 348.3864,
          "velocity": 0.31496062992125984
        },
        {
          "duration": 0.6129020000000196,
          "durationTicks": 760,
          "midi": 72,
          "name": "C5",
          "ticks": 435360,
          "time": 351.096072,
          "velocity": 0.31496062992125984
        },
        {
          "duration": 0.7741920000000277,
          "durationTicks": 960,
          "midi": 70,
          "name": "A#4",
          "ticks": 439680,
          "time": 354.579936,
          "velocity": 0.31496062992125984
        },
        {
          "duration": 0.1370964999999842,
          "durationTicks": 170,
          "midi": 68,
          "name": "G#4",
          "ticks": 440640,
          "time": 355.354128,
          "velocity": 0.31496062992125984
        },
        {
          "duration": 0.7741920000000277,
          "durationTicks": 960,
          "midi": 68,
          "name": "G#4",
          "ticks": 441600,
          "time": 356.12832,
          "velocity": 0.31496062992125984
        },
        {
          "duration": 0.1370964999999842,
          "durationTicks": 170,
          "midi": 67,
          "name": "G4",
          "ticks": 442560,
          "time": 356.902512,
          "velocity": 0.31496062992125984
        },
        {
          "duration": 0.129032000000052,
          "durationTicks": 160,
          "midi": 65,
          "name": "F4",
          "ticks": 443520,
          "time": 357.676704,
          "velocity": 0.31496062992125984
        },
        {
          "duration": 0.12903199999999515,
          "durationTicks": 160,
          "midi": 62,
          "name": "D4",
          "ticks": 444480,
          "time": 358.450896,
          "velocity": 0.31496062992125984
        },
        {
          "duration": 0.129032000000052,
          "durationTicks": 160,
          "midi": 63,
          "name": "D#4",
          "ticks": 445440,
          "time": 359.22508799999997,
          "velocity": 0.31496062992125984
        },
        {
          "duration": 0.12903199999999515,
          "durationTicks": 160,
          "midi": 63,
          "name": "D#4",
          "ticks": 445680,
          "time": 359.418636,
          "velocity": 0.31496062992125984
        },
        {
          "duration": 0.12903199999999515,
          "durationTicks": 160,
          "midi": 67,
          "name": "G4",
          "ticks": 445920,
          "time": 359.612184,
          "velocity": 0.31496062992125984
        },
        {
          "duration": 0.129032000000052,
          "durationTicks": 160,
          "midi": 67,
          "name": "G4",
          "ticks": 446160,
          "time": 359.805732,
          "velocity": 0.31496062992125984
        },
        {
          "duration": 0.12903199999999515,
          "durationTicks": 160,
          "midi": 63,
          "name": "D#4",
          "ticks": 446400,
          "time": 359.99928,
          "velocity": 0.31496062992125984
        },
        {
          "duration": 0.19354800000002115,
          "durationTicks": 240,
          "midi": 74,
          "name": "D5",
          "ticks": 446880,
          "time": 360.386376,
          "velocity": 0.31496062992125984
        },
        {
          "duration": 0.1935479999999643,
          "durationTicks": 240,
          "midi": 75,
          "name": "D#5",
          "ticks": 447120,
          "time": 360.579924,
          "velocity": 0.31496062992125984
        },
        {
          "duration": 0.129032000000052,
          "durationTicks": 160,
          "midi": 77,
          "name": "F5",
          "ticks": 447360,
          "time": 360.77347199999997,
          "velocity": 0.31496062992125984
        },
        {
          "duration": 0.12903199999999515,
          "durationTicks": 160,
          "midi": 77,
          "name": "F5",
          "ticks": 447600,
          "time": 360.96702,
          "velocity": 0.31496062992125984
        },
        {
          "duration": 0.12903199999999515,
          "durationTicks": 160,
          "midi": 78,
          "name": "F#5",
          "ticks": 447840,
          "time": 361.160568,
          "velocity": 0.31496062992125984
        },
        {
          "duration": 0.129032000000052,
          "durationTicks": 160,
          "midi": 78,
          "name": "F#5",
          "ticks": 448080,
          "time": 361.354116,
          "velocity": 0.31496062992125984
        },
        {
          "duration": 0.12903199999999515,
          "durationTicks": 160,
          "midi": 79,
          "name": "G5",
          "ticks": 448320,
          "time": 361.547664,
          "velocity": 0.31496062992125984
        },
        {
          "duration": 0.12903199999999515,
          "durationTicks": 160,
          "midi": 79,
          "name": "G5",
          "ticks": 448560,
          "time": 361.741212,
          "velocity": 0.31496062992125984
        },
        {
          "duration": 0.129032000000052,
          "durationTicks": 160,
          "midi": 79,
          "name": "G5",
          "ticks": 448800,
          "time": 361.93476,
          "velocity": 0.31496062992125984
        },
        {
          "duration": 0.12903199999999515,
          "durationTicks": 160,
          "midi": 79,
          "name": "G5",
          "ticks": 449040,
          "time": 362.128308,
          "velocity": 0.31496062992125984
        },
        {
          "duration": 0.096774000000039,
          "durationTicks": 120,
          "midi": 80,
          "name": "G#5",
          "ticks": 449280,
          "time": 362.32185599999997,
          "velocity": 0.31496062992125984
        },
        {
          "duration": 0.09677399999998215,
          "durationTicks": 120,
          "midi": 77,
          "name": "F5",
          "ticks": 449400,
          "time": 362.41863,
          "velocity": 0.31496062992125984
        },
        {
          "duration": 0.09677399999998215,
          "durationTicks": 120,
          "midi": 80,
          "name": "G#5",
          "ticks": 449520,
          "time": 362.515404,
          "velocity": 0.31496062992125984
        },
        {
          "duration": 0.096774000000039,
          "durationTicks": 120,
          "midi": 77,
          "name": "F5",
          "ticks": 449640,
          "time": 362.612178,
          "velocity": 0.31496062992125984
        },
        {
          "duration": 0.09677399999998215,
          "durationTicks": 120,
          "midi": 80,
          "name": "G#5",
          "ticks": 449760,
          "time": 362.708952,
          "velocity": 0.31496062992125984
        },
        {
          "duration": 0.09677399999998215,
          "durationTicks": 120,
          "midi": 77,
          "name": "F5",
          "ticks": 449880,
          "time": 362.805726,
          "velocity": 0.31496062992125984
        },
        {
          "duration": 0.096774000000039,
          "durationTicks": 120,
          "midi": 80,
          "name": "G#5",
          "ticks": 450000,
          "time": 362.9025,
          "velocity": 0.31496062992125984
        },
        {
          "duration": 0.09677399999998215,
          "durationTicks": 120,
          "midi": 77,
          "name": "F5",
          "ticks": 450120,
          "time": 362.999274,
          "velocity": 0.31496062992125984
        },
        {
          "duration": 0.12903199999999515,
          "durationTicks": 160,
          "midi": 80,
          "name": "G#5",
          "ticks": 450240,
          "time": 363.096048,
          "velocity": 0.31496062992125984
        },
        {
          "duration": 0.19354800000002115,
          "durationTicks": 240,
          "midi": 74,
          "name": "D5",
          "ticks": 450720,
          "time": 363.483144,
          "velocity": 0.31496062992125984
        },
        {
          "duration": 0.19354800000002115,
          "durationTicks": 240,
          "midi": 75,
          "name": "D#5",
          "ticks": 450960,
          "time": 363.676692,
          "velocity": 0.31496062992125984
        },
        {
          "duration": 0.12903199999999515,
          "durationTicks": 160,
          "midi": 77,
          "name": "F5",
          "ticks": 451200,
          "time": 363.87024,
          "velocity": 0.31496062992125984
        },
        {
          "duration": 0.12903199999999515,
          "durationTicks": 160,
          "midi": 77,
          "name": "F5",
          "ticks": 451440,
          "time": 364.063788,
          "velocity": 0.31496062992125984
        },
        {
          "duration": 0.12903199999999515,
          "durationTicks": 160,
          "midi": 78,
          "name": "F#5",
          "ticks": 451680,
          "time": 364.257336,
          "velocity": 0.31496062992125984
        },
        {
          "duration": 0.129032000000052,
          "durationTicks": 160,
          "midi": 78,
          "name": "F#5",
          "ticks": 451920,
          "time": 364.450884,
          "velocity": 0.31496062992125984
        },
        {
          "duration": 0.12903199999999515,
          "durationTicks": 160,
          "midi": 79,
          "name": "G5",
          "ticks": 452160,
          "time": 364.644432,
          "velocity": 0.31496062992125984
        },
        {
          "duration": 0.12903199999999515,
          "durationTicks": 160,
          "midi": 79,
          "name": "G5",
          "ticks": 452400,
          "time": 364.83798,
          "velocity": 0.31496062992125984
        },
        {
          "duration": 0.129032000000052,
          "durationTicks": 160,
          "midi": 79,
          "name": "G5",
          "ticks": 452640,
          "time": 365.031528,
          "velocity": 0.31496062992125984
        },
        {
          "duration": 0.12903199999999515,
          "durationTicks": 160,
          "midi": 79,
          "name": "G5",
          "ticks": 452880,
          "time": 365.225076,
          "velocity": 0.31496062992125984
        },
        {
          "duration": 0.09677399999998215,
          "durationTicks": 120,
          "midi": 80,
          "name": "G#5",
          "ticks": 453120,
          "time": 365.418624,
          "velocity": 0.31496062992125984
        },
        {
          "duration": 0.09677399999998215,
          "durationTicks": 120,
          "midi": 77,
          "name": "F5",
          "ticks": 453240,
          "time": 365.515398,
          "velocity": 0.31496062992125984
        },
        {
          "duration": 0.09677399999998215,
          "durationTicks": 120,
          "midi": 80,
          "name": "G#5",
          "ticks": 453360,
          "time": 365.612172,
          "velocity": 0.31496062992125984
        },
        {
          "duration": 0.096774000000039,
          "durationTicks": 120,
          "midi": 77,
          "name": "F5",
          "ticks": 453480,
          "time": 365.70894599999997,
          "velocity": 0.31496062992125984
        },
        {
          "duration": 0.09677399999998215,
          "durationTicks": 120,
          "midi": 80,
          "name": "G#5",
          "ticks": 453600,
          "time": 365.80572,
          "velocity": 0.31496062992125984
        },
        {
          "duration": 0.09677399999998215,
          "durationTicks": 120,
          "midi": 77,
          "name": "F5",
          "ticks": 453720,
          "time": 365.902494,
          "velocity": 0.31496062992125984
        },
        {
          "duration": 0.096774000000039,
          "durationTicks": 120,
          "midi": 80,
          "name": "G#5",
          "ticks": 453840,
          "time": 365.999268,
          "velocity": 0.31496062992125984
        },
        {
          "duration": 0.09677399999998215,
          "durationTicks": 120,
          "midi": 77,
          "name": "F5",
          "ticks": 453960,
          "time": 366.096042,
          "velocity": 0.31496062992125984
        },
        {
          "duration": 0.12903199999999515,
          "durationTicks": 160,
          "midi": 80,
          "name": "G#5",
          "ticks": 454080,
          "time": 366.192816,
          "velocity": 0.31496062992125984
        },
        {
          "duration": 0.12903199999999515,
          "durationTicks": 160,
          "midi": 70,
          "name": "A#4",
          "ticks": 454320,
          "time": 366.386364,
          "velocity": 0.5511811023622047
        },
        {
          "duration": 0.129032000000052,
          "durationTicks": 160,
          "midi": 75,
          "name": "D#5",
          "ticks": 454560,
          "time": 366.579912,
          "velocity": 0.5511811023622047
        },
        {
          "duration": 0.12903199999999515,
          "durationTicks": 160,
          "midi": 79,
          "name": "G5",
          "ticks": 454800,
          "time": 366.77346,
          "velocity": 0.5511811023622047
        },
        {
          "duration": 0.12903199999999515,
          "durationTicks": 160,
          "midi": 82,
          "name": "A#5",
          "ticks": 455040,
          "time": 366.967008,
          "velocity": 0.5511811023622047
        },
        {
          "duration": 0.129032000000052,
          "durationTicks": 160,
          "midi": 82,
          "name": "A#5",
          "ticks": 455280,
          "time": 367.160556,
          "velocity": 0.5511811023622047
        },
        {
          "duration": 0.12903199999999515,
          "durationTicks": 160,
          "midi": 82,
          "name": "A#5",
          "ticks": 455520,
          "time": 367.354104,
          "velocity": 0.5511811023622047
        },
        {
          "duration": 0.129032000000052,
          "durationTicks": 160,
          "midi": 82,
          "name": "A#5",
          "ticks": 455760,
          "time": 367.54765199999997,
          "velocity": 0.5511811023622047
        },
        {
          "duration": 0.12903199999999515,
          "durationTicks": 160,
          "midi": 82,
          "name": "A#5",
          "ticks": 456000,
          "time": 367.7412,
          "velocity": 0.5511811023622047
        },
        {
          "duration": 0.12903199999999515,
          "durationTicks": 160,
          "midi": 82,
          "name": "A#5",
          "ticks": 456240,
          "time": 367.934748,
          "velocity": 0.5511811023622047
        },
        {
          "duration": 0.129032000000052,
          "durationTicks": 160,
          "midi": 82,
          "name": "A#5",
          "ticks": 456480,
          "time": 368.128296,
          "velocity": 0.5511811023622047
        },
        {
          "duration": 0.12903199999999515,
          "durationTicks": 160,
          "midi": 82,
          "name": "A#5",
          "ticks": 456720,
          "time": 368.321844,
          "velocity": 0.5511811023622047
        },
        {
          "duration": 0.12903199999999515,
          "durationTicks": 160,
          "midi": 82,
          "name": "A#5",
          "ticks": 456960,
          "time": 368.515392,
          "velocity": 0.5511811023622047
        },
        {
          "duration": 0.129032000000052,
          "durationTicks": 160,
          "midi": 82,
          "name": "A#5",
          "ticks": 457200,
          "time": 368.70894,
          "velocity": 0.5511811023622047
        },
        {
          "duration": 0.12903199999999515,
          "durationTicks": 160,
          "midi": 82,
          "name": "A#5",
          "ticks": 457440,
          "time": 368.902488,
          "velocity": 0.5511811023622047
        },
        {
          "duration": 0.129032000000052,
          "durationTicks": 160,
          "midi": 82,
          "name": "A#5",
          "ticks": 457680,
          "time": 369.09603599999997,
          "velocity": 0.5511811023622047
        },
        {
          "duration": 0.12903199999999515,
          "durationTicks": 160,
          "midi": 82,
          "name": "A#5",
          "ticks": 457920,
          "time": 369.289584,
          "velocity": 0.5511811023622047
        },
        {
          "duration": 0.12903199999999515,
          "durationTicks": 160,
          "midi": 82,
          "name": "A#5",
          "ticks": 458160,
          "time": 369.483132,
          "velocity": 0.5511811023622047
        },
        {
          "duration": 0.129032000000052,
          "durationTicks": 160,
          "midi": 82,
          "name": "A#5",
          "ticks": 458400,
          "time": 369.67668,
          "velocity": 0.5511811023622047
        },
        {
          "duration": 0.12903199999999515,
          "durationTicks": 160,
          "midi": 82,
          "name": "A#5",
          "ticks": 458640,
          "time": 369.870228,
          "velocity": 0.5511811023622047
        },
        {
          "duration": 0.1370964999999842,
          "durationTicks": 170,
          "midi": 82,
          "name": "A#5",
          "ticks": 458880,
          "time": 370.063776,
          "velocity": 0.5511811023622047
        },
        {
          "duration": 0.19354800000002115,
          "durationTicks": 240,
          "midi": 74,
          "name": "D5",
          "ticks": 459120,
          "time": 370.257324,
          "velocity": 0.7086614173228346
        },
        {
          "duration": 0.1935479999999643,
          "durationTicks": 240,
          "midi": 75,
          "name": "D#5",
          "ticks": 459360,
          "time": 370.450872,
          "velocity": 0.7086614173228346
        },
        {
          "duration": 0.19354800000002115,
          "durationTicks": 240,
          "midi": 77,
          "name": "F5",
          "ticks": 459600,
          "time": 370.64441999999997,
          "velocity": 0.7086614173228346
        },
        {
          "duration": 0.12903199999999515,
          "durationTicks": 160,
          "midi": 79,
          "name": "G5",
          "ticks": 459840,
          "time": 370.837968,
          "velocity": 0.7086614173228346
        },
        {
          "duration": 0.129032000000052,
          "durationTicks": 160,
          "midi": 77,
          "name": "F5",
          "ticks": 460320,
          "time": 371.225064,
          "velocity": 0.7086614173228346
        },
        {
          "duration": 0.12903199999999515,
          "durationTicks": 160,
          "midi": 75,
          "name": "D#5",
          "ticks": 460800,
          "time": 371.61216,
          "velocity": 0.7086614173228346
        },
        {
          "duration": 0.12903199999999515,
          "durationTicks": 160,
          "midi": 58,
          "name": "A#3",
          "ticks": 461280,
          "time": 371.999256,
          "velocity": 0.7086614173228346
        },
        {
          "duration": 0.12903199999999515,
          "durationTicks": 160,
          "midi": 63,
          "name": "D#4",
          "ticks": 461280,
          "time": 371.999256,
          "velocity": 0.7086614173228346
        },
        {
          "duration": 0.12903199999999515,
          "durationTicks": 160,
          "midi": 75,
          "name": "D#5",
          "ticks": 461280,
          "time": 371.999256,
          "velocity": 0.7086614173228346
        },
        {
          "duration": 0.12903199999999515,
          "durationTicks": 160,
          "midi": 58,
          "name": "A#3",
          "ticks": 461760,
          "time": 372.386352,
          "velocity": 0.7086614173228346
        },
        {
          "duration": 0.12903199999999515,
          "durationTicks": 160,
          "midi": 63,
          "name": "D#4",
          "ticks": 461760,
          "time": 372.386352,
          "velocity": 0.7086614173228346
        },
        {
          "duration": 0.12903199999999515,
          "durationTicks": 160,
          "midi": 75,
          "name": "D#5",
          "ticks": 461760,
          "time": 372.386352,
          "velocity": 0.7086614173228346
        },
        {
          "duration": 0.129032000000052,
          "durationTicks": 160,
          "midi": 70,
          "name": "A#4",
          "ticks": 486240,
          "time": 392.128248,
          "velocity": 0.31496062992125984
        },
        {
          "duration": 0.12903199999999515,
          "durationTicks": 160,
          "midi": 68,
          "name": "G#4",
          "ticks": 487200,
          "time": 392.90244,
          "velocity": 0.31496062992125984
        },
        {
          "duration": 0.129032000000052,
          "durationTicks": 160,
          "midi": 68,
          "name": "G#4",
          "ticks": 488160,
          "time": 393.676632,
          "velocity": 0.31496062992125984
        },
        {
          "duration": 0.12903199999999515,
          "durationTicks": 160,
          "midi": 67,
          "name": "G4",
          "ticks": 489120,
          "time": 394.450824,
          "velocity": 0.31496062992125984
        },
        {
          "duration": 0.129032000000052,
          "durationTicks": 160,
          "midi": 65,
          "name": "F4",
          "ticks": 490080,
          "time": 395.225016,
          "velocity": 0.31496062992125984
        },
        {
          "duration": 0.12903199999999515,
          "durationTicks": 160,
          "midi": 65,
          "name": "F4",
          "ticks": 491040,
          "time": 395.999208,
          "velocity": 0.31496062992125984
        },
        {
          "duration": 2,
          "durationTicks": 960,
          "midi": 63,
          "name": "D#4",
          "ticks": 491520,
          "time": 396.386304,
          "velocity": 0.31496062992125984
        },
        {
          "duration": 1.6041666666666856,
          "durationTicks": 770,
          "midi": 65,
          "name": "F4",
          "ticks": 492480,
          "time": 398.386304,
          "velocity": 0.31496062992125984
        },
        {
          "duration": 3.9583333333333144,
          "durationTicks": 1900,
          "midi": 65,
          "name": "F4",
          "ticks": 493440,
          "time": 400.386304,
          "velocity": 0.31496062992125984
        },
        {
          "duration": 2,
          "durationTicks": 960,
          "midi": 63,
          "name": "D#4",
          "ticks": 495360,
          "time": 404.386304,
          "velocity": 0.31496062992125984
        },
        {
          "duration": 1.6041666666666856,
          "durationTicks": 770,
          "midi": 65,
          "name": "F4",
          "ticks": 496320,
          "time": 406.386304,
          "velocity": 0.31496062992125984
        },
        {
          "duration": 0.9916666666666742,
          "durationTicks": 476,
          "midi": 65,
          "name": "F4",
          "ticks": 497280,
          "time": 408.386304,
          "velocity": 0.31496062992125984
        },
        {
          "duration": 0.16666666666668561,
          "durationTicks": 80,
          "midi": 80,
          "name": "G#5",
          "ticks": 498120,
          "time": 410.136304,
          "velocity": 0.5905511811023622
        },
        {
          "duration": 0.4583333333333144,
          "durationTicks": 220,
          "midi": 80,
          "name": "G#5",
          "ticks": 498240,
          "time": 410.386304,
          "velocity": 0.5905511811023622
        },
        {
          "duration": 0.16666666666668561,
          "durationTicks": 80,
          "midi": 80,
          "name": "G#5",
          "ticks": 498600,
          "time": 411.136304,
          "velocity": 0.5905511811023622
        },
        {
          "duration": 0.4583333333333144,
          "durationTicks": 220,
          "midi": 80,
          "name": "G#5",
          "ticks": 498720,
          "time": 411.386304,
          "velocity": 0.5905511811023622
        },
        {
          "duration": 0.16666666666668561,
          "durationTicks": 80,
          "midi": 80,
          "name": "G#5",
          "ticks": 499080,
          "time": 412.136304,
          "velocity": 0.5905511811023622
        },
        {
          "duration": 0.5833333333333144,
          "durationTicks": 280,
          "midi": 80,
          "name": "G#5",
          "ticks": 499200,
          "time": 412.386304,
          "velocity": 0.5905511811023622
        },
        {
          "duration": 0.15833333333335986,
          "durationTicks": 76,
          "midi": 79,
          "name": "G5",
          "ticks": 499440,
          "time": 412.886304,
          "velocity": 0.5905511811023622
        },
        {
          "duration": 0.15833333333330302,
          "durationTicks": 76,
          "midi": 77,
          "name": "F5",
          "ticks": 499520,
          "time": 413.0529706666667,
          "velocity": 0.5905511811023622
        },
        {
          "duration": 0.15833333333335986,
          "durationTicks": 76,
          "midi": 75,
          "name": "D#5",
          "ticks": 499600,
          "time": 413.2196373333333,
          "velocity": 0.5905511811023622
        },
        {
          "duration": 0.4583333333333144,
          "durationTicks": 220,
          "midi": 74,
          "name": "D5",
          "ticks": 499680,
          "time": 413.386304,
          "velocity": 0.5905511811023622
        },
        {
          "duration": 0.16666666666668561,
          "durationTicks": 80,
          "midi": 80,
          "name": "G#5",
          "ticks": 500040,
          "time": 414.136304,
          "velocity": 0.5905511811023622
        },
        {
          "duration": 0.4583333333333144,
          "durationTicks": 220,
          "midi": 80,
          "name": "G#5",
          "ticks": 500160,
          "time": 414.386304,
          "velocity": 0.5905511811023622
        },
        {
          "duration": 0.16666666666668561,
          "durationTicks": 80,
          "midi": 80,
          "name": "G#5",
          "ticks": 500520,
          "time": 415.136304,
          "velocity": 0.5905511811023622
        },
        {
          "duration": 0.4583333333333144,
          "durationTicks": 220,
          "midi": 80,
          "name": "G#5",
          "ticks": 500640,
          "time": 415.386304,
          "velocity": 0.5905511811023622
        },
        {
          "duration": 0.16666666666668561,
          "durationTicks": 80,
          "midi": 80,
          "name": "G#5",
          "ticks": 501000,
          "time": 416.136304,
          "velocity": 0.5905511811023622
        },
        {
          "duration": 1.4916666666666742,
          "durationTicks": 716,
          "midi": 80,
          "name": "G#5",
          "ticks": 501120,
          "time": 416.386304,
          "velocity": 0.5905511811023622
        },
        {
          "duration": 0.15833333333335986,
          "durationTicks": 76,
          "midi": 79,
          "name": "G5",
          "ticks": 501840,
          "time": 417.886304,
          "velocity": 0.5905511811023622
        },
        {
          "duration": 0.15833333333330302,
          "durationTicks": 76,
          "midi": 77,
          "name": "F5",
          "ticks": 501920,
          "time": 418.0529706666667,
          "velocity": 0.5905511811023622
        },
        {
          "duration": 0.15833333333335986,
          "durationTicks": 76,
          "midi": 75,
          "name": "D#5",
          "ticks": 502000,
          "time": 418.2196373333333,
          "velocity": 0.5905511811023622
        },
        {
          "duration": 1.9916666666666742,
          "durationTicks": 956,
          "midi": 74,
          "name": "D5",
          "ticks": 502080,
          "time": 418.386304,
          "velocity": 0.5905511811023622
        },
        {
          "duration": 0.16666666666662877,
          "durationTicks": 160,
          "midi": 67,
          "name": "G4",
          "ticks": 504720,
          "time": 423.3446373333334,
          "velocity": 0.31496062992125984
        },
        {
          "duration": 0.16666666666662877,
          "durationTicks": 160,
          "midi": 67,
          "name": "G4",
          "ticks": 504960,
          "time": 423.5946373333334,
          "velocity": 0.31496062992125984
        },
        {
          "duration": 0.16666666666662877,
          "durationTicks": 160,
          "midi": 67,
          "name": "G4",
          "ticks": 505200,
          "time": 423.8446373333334,
          "velocity": 0.31496062992125984
        },
        {
          "duration": 0.16666666666662877,
          "durationTicks": 160,
          "midi": 67,
          "name": "G4",
          "ticks": 505440,
          "time": 424.0946373333334,
          "velocity": 0.31496062992125984
        },
        {
          "duration": 0.16666666666662877,
          "durationTicks": 160,
          "midi": 67,
          "name": "G4",
          "ticks": 505680,
          "time": 424.3446373333334,
          "velocity": 0.31496062992125984
        },
        {
          "duration": 0.16666666666662877,
          "durationTicks": 160,
          "midi": 68,
          "name": "G#4",
          "ticks": 506160,
          "time": 424.8446373333334,
          "velocity": 0.31496062992125984
        },
        {
          "duration": 0.16666666666662877,
          "durationTicks": 160,
          "midi": 68,
          "name": "G#4",
          "ticks": 506400,
          "time": 425.0946373333334,
          "velocity": 0.31496062992125984
        },
        {
          "duration": 0.16666666666662877,
          "durationTicks": 160,
          "midi": 68,
          "name": "G#4",
          "ticks": 506640,
          "time": 425.3446373333334,
          "velocity": 0.31496062992125984
        },
        {
          "duration": 0.16666666666662877,
          "durationTicks": 160,
          "midi": 68,
          "name": "G#4",
          "ticks": 506880,
          "time": 425.5946373333334,
          "velocity": 0.31496062992125984
        },
        {
          "duration": 0.16666666666662877,
          "durationTicks": 160,
          "midi": 68,
          "name": "G#4",
          "ticks": 507120,
          "time": 425.8446373333334,
          "velocity": 0.31496062992125984
        },
        {
          "duration": 0.16666666666662877,
          "durationTicks": 160,
          "midi": 67,
          "name": "G4",
          "ticks": 507600,
          "time": 426.3446373333334,
          "velocity": 0.31496062992125984
        },
        {
          "duration": 0.16666666666662877,
          "durationTicks": 160,
          "midi": 67,
          "name": "G4",
          "ticks": 507840,
          "time": 426.5946373333334,
          "velocity": 0.31496062992125984
        },
        {
          "duration": 0.16666666666662877,
          "durationTicks": 160,
          "midi": 68,
          "name": "G#4",
          "ticks": 508320,
          "time": 427.0946373333334,
          "velocity": 0.31496062992125984
        },
        {
          "duration": 0.16666666666662877,
          "durationTicks": 160,
          "midi": 68,
          "name": "G#4",
          "ticks": 508560,
          "time": 427.3446373333334,
          "velocity": 0.31496062992125984
        },
        {
          "duration": 0.5,
          "durationTicks": 480,
          "midi": 65,
          "name": "F4",
          "ticks": 508800,
          "time": 427.5946373333334,
          "velocity": 0.31496062992125984
        },
        {
          "duration": 0.25,
          "durationTicks": 240,
          "midi": 69,
          "name": "A4",
          "ticks": 509280,
          "time": 428.0946373333334,
          "velocity": 0.31496062992125984
        },
        {
          "duration": 0.3020833333333144,
          "durationTicks": 290,
          "midi": 70,
          "name": "A#4",
          "ticks": 509520,
          "time": 428.3446373333334,
          "velocity": 0.31496062992125984
        },
        {
          "duration": 0.16666666666662877,
          "durationTicks": 160,
          "midi": 70,
          "name": "A#4",
          "ticks": 510000,
          "time": 428.8446373333334,
          "velocity": 0.31496062992125984
        },
        {
          "duration": 1.2916666666666288,
          "durationTicks": 1240,
          "midi": 72,
          "name": "C5",
          "ticks": 510240,
          "time": 429.0946373333334,
          "velocity": 0.31496062992125984
        },
        {
          "duration": 1.2916666666666288,
          "durationTicks": 1240,
          "midi": 70,
          "name": "A#4",
          "ticks": 511680,
          "time": 430.5946373333334,
          "velocity": 0.31496062992125984
        },
        {
          "duration": 0.47916666666662877,
          "durationTicks": 460,
          "midi": 72,
          "name": "C5",
          "ticks": 513120,
          "time": 432.0946373333334,
          "velocity": 0.31496062992125984
        },
        {
          "duration": 0.47916666666662877,
          "durationTicks": 460,
          "midi": 68,
          "name": "G#4",
          "ticks": 513840,
          "time": 432.8446373333334,
          "velocity": 0.31496062992125984
        },
        {
          "duration": 0.16666666666662877,
          "durationTicks": 160,
          "midi": 58,
          "name": "A#3",
          "ticks": 514560,
          "time": 433.5946373333334,
          "velocity": 0.5511811023622047
        },
        {
          "duration": 0.16666666666662877,
          "durationTicks": 160,
          "midi": 67,
          "name": "G4",
          "ticks": 514560,
          "time": 433.5946373333334,
          "velocity": 0.5511811023622047
        },
        {
          "duration": 0.16666666666662877,
          "durationTicks": 160,
          "midi": 58,
          "name": "A#3",
          "ticks": 514800,
          "time": 433.8446373333334,
          "velocity": 0.5511811023622047
        },
        {
          "duration": 0.16666666666662877,
          "durationTicks": 160,
          "midi": 67,
          "name": "G4",
          "ticks": 514800,
          "time": 433.8446373333334,
          "velocity": 0.5511811023622047
        },
        {
          "duration": 0.16666666666662877,
          "durationTicks": 160,
          "midi": 58,
          "name": "A#3",
          "ticks": 515040,
          "time": 434.0946373333334,
          "velocity": 0.5511811023622047
        },
        {
          "duration": 0.16666666666662877,
          "durationTicks": 160,
          "midi": 67,
          "name": "G4",
          "ticks": 515040,
          "time": 434.0946373333334,
          "velocity": 0.5511811023622047
        },
        {
          "duration": 0.41666666666662877,
          "durationTicks": 400,
          "midi": 58,
          "name": "A#3",
          "ticks": 515280,
          "time": 434.3446373333334,
          "velocity": 0.5511811023622047
        },
        {
          "duration": 0.41666666666662877,
          "durationTicks": 400,
          "midi": 67,
          "name": "G4",
          "ticks": 515280,
          "time": 434.3446373333334,
          "velocity": 0.5511811023622047
        },
        {
          "duration": 0.16666666666662877,
          "durationTicks": 160,
          "midi": 67,
          "name": "G4",
          "ticks": 516240,
          "time": 435.3446373333334,
          "velocity": 0.31496062992125984
        },
        {
          "duration": 0.16666666666662877,
          "durationTicks": 160,
          "midi": 67,
          "name": "G4",
          "ticks": 516480,
          "time": 435.5946373333334,
          "velocity": 0.31496062992125984
        },
        {
          "duration": 0.16666666666662877,
          "durationTicks": 160,
          "midi": 67,
          "name": "G4",
          "ticks": 516960,
          "time": 436.0946373333334,
          "velocity": 0.31496062992125984
        },
        {
          "duration": 0.16666666666662877,
          "durationTicks": 160,
          "midi": 67,
          "name": "G4",
          "ticks": 517200,
          "time": 436.3446373333334,
          "velocity": 0.31496062992125984
        },
        {
          "duration": 0.16666666666662877,
          "durationTicks": 160,
          "midi": 67,
          "name": "G4",
          "ticks": 517680,
          "time": 436.8446373333334,
          "velocity": 0.31496062992125984
        },
        {
          "duration": 0.16666666666662877,
          "durationTicks": 160,
          "midi": 67,
          "name": "G4",
          "ticks": 517920,
          "time": 437.0946373333334,
          "velocity": 0.31496062992125984
        },
        {
          "duration": 0.17708333333331439,
          "durationTicks": 170,
          "midi": 67,
          "name": "G4",
          "ticks": 518160,
          "time": 437.3446373333334,
          "velocity": 0.31496062992125984
        },
        {
          "duration": 0.16666666666662877,
          "durationTicks": 160,
          "midi": 65,
          "name": "F4",
          "ticks": 519120,
          "time": 438.3446373333334,
          "velocity": 0.31496062992125984
        },
        {
          "duration": 0.16666666666662877,
          "durationTicks": 160,
          "midi": 65,
          "name": "F4",
          "ticks": 519360,
          "time": 438.5946373333334,
          "velocity": 0.31496062992125984
        },
        {
          "duration": 0.16666666666662877,
          "durationTicks": 160,
          "midi": 65,
          "name": "F4",
          "ticks": 519840,
          "time": 439.0946373333334,
          "velocity": 0.31496062992125984
        },
        {
          "duration": 0.16666666666662877,
          "durationTicks": 160,
          "midi": 65,
          "name": "F4",
          "ticks": 520080,
          "time": 439.3446373333334,
          "velocity": 0.31496062992125984
        },
        {
          "duration": 0.16666666666662877,
          "durationTicks": 160,
          "midi": 65,
          "name": "F4",
          "ticks": 520560,
          "time": 439.8446373333334,
          "velocity": 0.31496062992125984
        },
        {
          "duration": 0.16666666666662877,
          "durationTicks": 160,
          "midi": 65,
          "name": "F4",
          "ticks": 520800,
          "time": 440.0946373333334,
          "velocity": 0.31496062992125984
        },
        {
          "duration": 0.17708333333331439,
          "durationTicks": 170,
          "midi": 65,
          "name": "F4",
          "ticks": 521040,
          "time": 440.3446373333334,
          "velocity": 0.31496062992125984
        },
        {
          "duration": 0.203125,
          "durationTicks": 195,
          "midi": 70,
          "name": "A#4",
          "ticks": 521520,
          "time": 440.8446373333334,
          "velocity": 0.31496062992125984
        },
        {
          "duration": 1.2916666666666288,
          "durationTicks": 1240,
          "midi": 72,
          "name": "C5",
          "ticks": 521760,
          "time": 441.0946373333334,
          "velocity": 0.31496062992125984
        },
        {
          "duration": 1.2916666666666288,
          "durationTicks": 1240,
          "midi": 70,
          "name": "A#4",
          "ticks": 523200,
          "time": 442.5946373333334,
          "velocity": 0.31496062992125984
        },
        {
          "duration": 0.47916666666662877,
          "durationTicks": 460,
          "midi": 72,
          "name": "C5",
          "ticks": 524640,
          "time": 444.0946373333334,
          "velocity": 0.31496062992125984
        },
        {
          "duration": 0.47916666666662877,
          "durationTicks": 460,
          "midi": 68,
          "name": "G#4",
          "ticks": 525360,
          "time": 444.8446373333334,
          "velocity": 0.31496062992125984
        },
        {
          "duration": 0.16666666666662877,
          "durationTicks": 160,
          "midi": 67,
          "name": "G4",
          "ticks": 526080,
          "time": 445.5946373333334,
          "velocity": 0.31496062992125984
        },
        {
          "duration": 0.16666666666662877,
          "durationTicks": 160,
          "midi": 79,
          "name": "G5",
          "ticks": 526320,
          "time": 445.8446373333334,
          "velocity": 0.31496062992125984
        },
        {
          "duration": 0.16666666666662877,
          "durationTicks": 160,
          "midi": 80,
          "name": "G#5",
          "ticks": 526560,
          "time": 446.0946373333334,
          "velocity": 0.31496062992125984
        },
        {
          "duration": 0.16666666666662877,
          "durationTicks": 160,
          "midi": 82,
          "name": "A#5",
          "ticks": 526800,
          "time": 446.3446373333334,
          "velocity": 0.31496062992125984
        },
        {
          "duration": 0.16666666666662877,
          "durationTicks": 160,
          "midi": 82,
          "name": "A#5",
          "ticks": 527040,
          "time": 446.5946373333334,
          "velocity": 0.31496062992125984
        },
        {
          "duration": 0.16666666666662877,
          "durationTicks": 160,
          "midi": 82,
          "name": "A#5",
          "ticks": 527280,
          "time": 446.8446373333334,
          "velocity": 0.31496062992125984
        },
        {
          "duration": 0.578125,
          "durationTicks": 555,
          "midi": 82,
          "name": "A#5",
          "ticks": 527520,
          "time": 447.0946373333334,
          "velocity": 0.31496062992125984
        },
        {
          "duration": 1.3020833333333144,
          "durationTicks": 1250,
          "midi": 80,
          "name": "G#5",
          "ticks": 528240,
          "time": 447.8446373333334,
          "velocity": 0.31496062992125984
        },
        {
          "duration": 0.703125,
          "durationTicks": 675,
          "midi": 79,
          "name": "G5",
          "ticks": 529680,
          "time": 449.3446373333334,
          "velocity": 0.31496062992125984
        },
        {
          "duration": 0.125,
          "durationTicks": 120,
          "midi": 79,
          "name": "G5",
          "ticks": 530400,
          "time": 450.0946373333334,
          "velocity": 0.31496062992125984
        },
        {
          "duration": 0.08333333333331439,
          "durationTicks": 80,
          "midi": 77,
          "name": "F5",
          "ticks": 530520,
          "time": 450.2196373333334,
          "velocity": 0.31496062992125984
        },
        {
          "duration": 0.125,
          "durationTicks": 120,
          "midi": 79,
          "name": "G5",
          "ticks": 530640,
          "time": 450.3446373333334,
          "velocity": 0.31496062992125984
        },
        {
          "duration": 0.08333333333331439,
          "durationTicks": 80,
          "midi": 77,
          "name": "F5",
          "ticks": 530760,
          "time": 450.4696373333334,
          "velocity": 0.31496062992125984
        },
        {
          "duration": 0.125,
          "durationTicks": 120,
          "midi": 79,
          "name": "G5",
          "ticks": 530880,
          "time": 450.5946373333334,
          "velocity": 0.31496062992125984
        },
        {
          "duration": 0.08333333333331439,
          "durationTicks": 80,
          "midi": 77,
          "name": "F5",
          "ticks": 531000,
          "time": 450.7196373333334,
          "velocity": 0.31496062992125984
        },
        {
          "duration": 0.125,
          "durationTicks": 120,
          "midi": 80,
          "name": "G#5",
          "ticks": 531120,
          "time": 450.8446373333334,
          "velocity": 0.31496062992125984
        },
        {
          "duration": 0.08333333333331439,
          "durationTicks": 80,
          "midi": 79,
          "name": "G5",
          "ticks": 531240,
          "time": 450.9696373333334,
          "velocity": 0.31496062992125984
        },
        {
          "duration": 0.125,
          "durationTicks": 120,
          "midi": 80,
          "name": "G#5",
          "ticks": 531360,
          "time": 451.0946373333334,
          "velocity": 0.31496062992125984
        },
        {
          "duration": 0.08333333333331439,
          "durationTicks": 80,
          "midi": 79,
          "name": "G5",
          "ticks": 531480,
          "time": 451.2196373333334,
          "velocity": 0.31496062992125984
        },
        {
          "duration": 0.125,
          "durationTicks": 120,
          "midi": 80,
          "name": "G#5",
          "ticks": 531600,
          "time": 451.3446373333334,
          "velocity": 0.31496062992125984
        },
        {
          "duration": 0.08333333333331439,
          "durationTicks": 80,
          "midi": 79,
          "name": "G5",
          "ticks": 531720,
          "time": 451.4696373333334,
          "velocity": 0.31496062992125984
        },
        {
          "duration": 0.125,
          "durationTicks": 120,
          "midi": 82,
          "name": "A#5",
          "ticks": 531840,
          "time": 451.5946373333334,
          "velocity": 0.31496062992125984
        },
        {
          "duration": 0.08333333333331439,
          "durationTicks": 80,
          "midi": 80,
          "name": "G#5",
          "ticks": 531960,
          "time": 451.7196373333334,
          "velocity": 0.31496062992125984
        },
        {
          "duration": 0.125,
          "durationTicks": 120,
          "midi": 82,
          "name": "A#5",
          "ticks": 532080,
          "time": 451.8446373333334,
          "velocity": 0.31496062992125984
        },
        {
          "duration": 0.08333333333331439,
          "durationTicks": 80,
          "midi": 80,
          "name": "G#5",
          "ticks": 532200,
          "time": 451.9696373333334,
          "velocity": 0.31496062992125984
        },
        {
          "duration": 0.125,
          "durationTicks": 120,
          "midi": 82,
          "name": "A#5",
          "ticks": 532320,
          "time": 452.0946373333334,
          "velocity": 0.31496062992125984
        },
        {
          "duration": 0.08333333333331439,
          "durationTicks": 80,
          "midi": 80,
          "name": "G#5",
          "ticks": 532440,
          "time": 452.2196373333334,
          "velocity": 0.31496062992125984
        },
        {
          "duration": 0.125,
          "durationTicks": 120,
          "midi": 80,
          "name": "G#5",
          "ticks": 532560,
          "time": 452.3446373333334,
          "velocity": 0.31496062992125984
        },
        {
          "duration": 0.08333333333331439,
          "durationTicks": 80,
          "midi": 79,
          "name": "G5",
          "ticks": 532680,
          "time": 452.4696373333334,
          "velocity": 0.31496062992125984
        },
        {
          "duration": 0.125,
          "durationTicks": 120,
          "midi": 80,
          "name": "G#5",
          "ticks": 532800,
          "time": 452.5946373333334,
          "velocity": 0.31496062992125984
        },
        {
          "duration": 0.08333333333331439,
          "durationTicks": 80,
          "midi": 79,
          "name": "G5",
          "ticks": 532920,
          "time": 452.7196373333334,
          "velocity": 0.31496062992125984
        },
        {
          "duration": 0.125,
          "durationTicks": 120,
          "midi": 80,
          "name": "G#5",
          "ticks": 533040,
          "time": 452.8446373333334,
          "velocity": 0.31496062992125984
        },
        {
          "duration": 0.08333333333331439,
          "durationTicks": 80,
          "midi": 79,
          "name": "G5",
          "ticks": 533160,
          "time": 452.9696373333334,
          "velocity": 0.31496062992125984
        },
        {
          "duration": 0.125,
          "durationTicks": 120,
          "midi": 79,
          "name": "G5",
          "ticks": 533280,
          "time": 453.0946373333334,
          "velocity": 0.6299212598425197
        },
        {
          "duration": 0.08333333333331439,
          "durationTicks": 80,
          "midi": 77,
          "name": "F5",
          "ticks": 533400,
          "time": 453.2196373333334,
          "velocity": 0.6299212598425197
        },
        {
          "duration": 0.125,
          "durationTicks": 120,
          "midi": 79,
          "name": "G5",
          "ticks": 533520,
          "time": 453.3446373333334,
          "velocity": 0.6299212598425197
        },
        {
          "duration": 0.08333333333331439,
          "durationTicks": 80,
          "midi": 77,
          "name": "F5",
          "ticks": 533640,
          "time": 453.4696373333334,
          "velocity": 0.6299212598425197
        },
        {
          "duration": 0.125,
          "durationTicks": 120,
          "midi": 79,
          "name": "G5",
          "ticks": 533760,
          "time": 453.5946373333334,
          "velocity": 0.6299212598425197
        },
        {
          "duration": 0.08333333333331439,
          "durationTicks": 80,
          "midi": 77,
          "name": "F5",
          "ticks": 533880,
          "time": 453.7196373333334,
          "velocity": 0.6299212598425197
        },
        {
          "duration": 0.125,
          "durationTicks": 120,
          "midi": 79,
          "name": "G5",
          "ticks": 534000,
          "time": 453.8446373333334,
          "velocity": 0.6299212598425197
        },
        {
          "duration": 0.08333333333331439,
          "durationTicks": 80,
          "midi": 77,
          "name": "F5",
          "ticks": 534120,
          "time": 453.9696373333334,
          "velocity": 0.6299212598425197
        },
        {
          "duration": 0.125,
          "durationTicks": 120,
          "midi": 79,
          "name": "G5",
          "ticks": 534240,
          "time": 454.0946373333334,
          "velocity": 0.6299212598425197
        },
        {
          "duration": 0.08333333333331439,
          "durationTicks": 80,
          "midi": 77,
          "name": "F5",
          "ticks": 534360,
          "time": 454.2196373333334,
          "velocity": 0.6299212598425197
        },
        {
          "duration": 0.125,
          "durationTicks": 120,
          "midi": 79,
          "name": "G5",
          "ticks": 534480,
          "time": 454.3446373333334,
          "velocity": 0.6299212598425197
        },
        {
          "duration": 0.08333333333331439,
          "durationTicks": 80,
          "midi": 77,
          "name": "F5",
          "ticks": 534600,
          "time": 454.4696373333334,
          "velocity": 0.6299212598425197
        },
        {
          "duration": 0.16666666666662877,
          "durationTicks": 160,
          "midi": 77,
          "name": "F5",
          "ticks": 534720,
          "time": 454.5946373333334,
          "velocity": 0.6299212598425197
        },
        {
          "duration": 0.16666666666662877,
          "durationTicks": 160,
          "midi": 68,
          "name": "G#4",
          "ticks": 536160,
          "time": 456.0946373333334,
          "velocity": 0.31496062992125984
        },
        {
          "duration": 0.16666666666662877,
          "durationTicks": 160,
          "midi": 68,
          "name": "G#4",
          "ticks": 536400,
          "time": 456.3446373333334,
          "velocity": 0.31496062992125984
        },
        {
          "duration": 0.16666666666662877,
          "durationTicks": 160,
          "midi": 68,
          "name": "G#4",
          "ticks": 536640,
          "time": 456.5946373333334,
          "velocity": 0.31496062992125984
        },
        {
          "duration": 0.16666666666662877,
          "durationTicks": 160,
          "midi": 68,
          "name": "G#4",
          "ticks": 536880,
          "time": 456.8446373333334,
          "velocity": 0.31496062992125984
        },
        {
          "duration": 0.16666666666662877,
          "durationTicks": 160,
          "midi": 68,
          "name": "G#4",
          "ticks": 537120,
          "time": 457.0946373333334,
          "velocity": 0.31496062992125984
        },
        {
          "duration": 0.16666666666662877,
          "durationTicks": 160,
          "midi": 68,
          "name": "G#4",
          "ticks": 537360,
          "time": 457.3446373333334,
          "velocity": 0.31496062992125984
        },
        {
          "duration": 0.16666666666662877,
          "durationTicks": 160,
          "midi": 67,
          "name": "G4",
          "ticks": 537600,
          "time": 457.5946373333334,
          "velocity": 0.31496062992125984
        },
        {
          "duration": 0.16666666666662877,
          "durationTicks": 160,
          "midi": 67,
          "name": "G4",
          "ticks": 537840,
          "time": 457.8446373333334,
          "velocity": 0.31496062992125984
        },
        {
          "duration": 0.16666666666662877,
          "durationTicks": 160,
          "midi": 67,
          "name": "G4",
          "ticks": 538080,
          "time": 458.0946373333334,
          "velocity": 0.31496062992125984
        },
        {
          "duration": 0.16666666666662877,
          "durationTicks": 160,
          "midi": 67,
          "name": "G4",
          "ticks": 538320,
          "time": 458.3446373333334,
          "velocity": 0.31496062992125984
        },
        {
          "duration": 0.16666666666662877,
          "durationTicks": 160,
          "midi": 67,
          "name": "G4",
          "ticks": 538560,
          "time": 458.5946373333334,
          "velocity": 0.31496062992125984
        },
        {
          "duration": 0.16666666666662877,
          "durationTicks": 160,
          "midi": 67,
          "name": "G4",
          "ticks": 538800,
          "time": 458.8446373333334,
          "velocity": 0.31496062992125984
        },
        {
          "duration": 0.16666666666662877,
          "durationTicks": 160,
          "midi": 68,
          "name": "G#4",
          "ticks": 539040,
          "time": 459.0946373333334,
          "velocity": 0.31496062992125984
        },
        {
          "duration": 0.16666666666662877,
          "durationTicks": 160,
          "midi": 68,
          "name": "G#4",
          "ticks": 539280,
          "time": 459.3446373333334,
          "velocity": 0.31496062992125984
        },
        {
          "duration": 0.16666666666662877,
          "durationTicks": 160,
          "midi": 68,
          "name": "G#4",
          "ticks": 539520,
          "time": 459.5946373333334,
          "velocity": 0.31496062992125984
        },
        {
          "duration": 0.16666666666662877,
          "durationTicks": 160,
          "midi": 68,
          "name": "G#4",
          "ticks": 539760,
          "time": 459.8446373333334,
          "velocity": 0.31496062992125984
        },
        {
          "duration": 0.16666666666662877,
          "durationTicks": 160,
          "midi": 68,
          "name": "G#4",
          "ticks": 540000,
          "time": 460.0946373333334,
          "velocity": 0.31496062992125984
        },
        {
          "duration": 0.16666666666662877,
          "durationTicks": 160,
          "midi": 68,
          "name": "G#4",
          "ticks": 540240,
          "time": 460.3446373333334,
          "velocity": 0.31496062992125984
        },
        {
          "duration": 0.16666666666662877,
          "durationTicks": 160,
          "midi": 67,
          "name": "G4",
          "ticks": 540480,
          "time": 460.5946373333334,
          "velocity": 0.31496062992125984
        },
        {
          "duration": 0.16666666666662877,
          "durationTicks": 160,
          "midi": 67,
          "name": "G4",
          "ticks": 540720,
          "time": 460.8446373333334,
          "velocity": 0.31496062992125984
        },
        {
          "duration": 0.16666666666662877,
          "durationTicks": 160,
          "midi": 67,
          "name": "G4",
          "ticks": 540960,
          "time": 461.0946373333334,
          "velocity": 0.31496062992125984
        },
        {
          "duration": 0.16666666666662877,
          "durationTicks": 160,
          "midi": 67,
          "name": "G4",
          "ticks": 541200,
          "time": 461.3446373333334,
          "velocity": 0.31496062992125984
        },
        {
          "duration": 0.16666666666662877,
          "durationTicks": 160,
          "midi": 67,
          "name": "G4",
          "ticks": 541440,
          "time": 461.5946373333334,
          "velocity": 0.31496062992125984
        },
        {
          "duration": 0.16666666666662877,
          "durationTicks": 160,
          "midi": 67,
          "name": "G4",
          "ticks": 541680,
          "time": 461.8446373333334,
          "velocity": 0.31496062992125984
        },
        {
          "duration": 0.16666666666662877,
          "durationTicks": 160,
          "midi": 68,
          "name": "G#4",
          "ticks": 541920,
          "time": 462.0946373333334,
          "velocity": 0.31496062992125984
        },
        {
          "duration": 0.16666666666662877,
          "durationTicks": 160,
          "midi": 68,
          "name": "G#4",
          "ticks": 542160,
          "time": 462.3446373333334,
          "velocity": 0.31496062992125984
        },
        {
          "duration": 0.16666666666662877,
          "durationTicks": 160,
          "midi": 68,
          "name": "G#4",
          "ticks": 542640,
          "time": 462.8446373333334,
          "velocity": 0.31496062992125984
        },
        {
          "duration": 0.16666666666662877,
          "durationTicks": 160,
          "midi": 68,
          "name": "G#4",
          "ticks": 542880,
          "time": 463.0946373333334,
          "velocity": 0.31496062992125984
        },
        {
          "duration": 0.16666666666662877,
          "durationTicks": 160,
          "midi": 68,
          "name": "G#4",
          "ticks": 543360,
          "time": 463.5946373333334,
          "velocity": 0.31496062992125984
        },
        {
          "duration": 0.16666666666662877,
          "durationTicks": 160,
          "midi": 68,
          "name": "G#4",
          "ticks": 543600,
          "time": 463.8446373333334,
          "velocity": 0.31496062992125984
        },
        {
          "duration": 0.16666666666662877,
          "durationTicks": 160,
          "midi": 68,
          "name": "G#4",
          "ticks": 544080,
          "time": 464.3446373333334,
          "velocity": 0.31496062992125984
        },
        {
          "duration": 0.16666666666662877,
          "durationTicks": 160,
          "midi": 68,
          "name": "G#4",
          "ticks": 544320,
          "time": 464.5946373333334,
          "velocity": 0.31496062992125984
        },
        {
          "duration": 1.4875000000000114,
          "durationTicks": 476,
          "midi": 68,
          "name": "G#4",
          "ticks": 546240,
          "time": 466.98921325000003,
          "velocity": 0.31496062992125984
        },
        {
          "duration": 0.16666666666668561,
          "durationTicks": 160,
          "midi": 67,
          "name": "G4",
          "ticks": 547920,
          "time": 471.73921325000003,
          "velocity": 0.31496062992125984
        },
        {
          "duration": 0.16666666666668561,
          "durationTicks": 160,
          "midi": 67,
          "name": "G4",
          "ticks": 548160,
          "time": 471.98921325000003,
          "velocity": 0.31496062992125984
        },
        {
          "duration": 0.16666666666668561,
          "durationTicks": 160,
          "midi": 67,
          "name": "G4",
          "ticks": 548400,
          "time": 472.23921325000003,
          "velocity": 0.31496062992125984
        },
        {
          "duration": 0.16666666666668561,
          "durationTicks": 160,
          "midi": 67,
          "name": "G4",
          "ticks": 548640,
          "time": 472.48921325000003,
          "velocity": 0.31496062992125984
        },
        {
          "duration": 0.16666666666668561,
          "durationTicks": 160,
          "midi": 67,
          "name": "G4",
          "ticks": 548880,
          "time": 472.73921325000003,
          "velocity": 0.31496062992125984
        },
        {
          "duration": 0.16666666666668561,
          "durationTicks": 160,
          "midi": 72,
          "name": "C5",
          "ticks": 549360,
          "time": 473.23921325000003,
          "velocity": 0.31496062992125984
        },
        {
          "duration": 0.16666666666668561,
          "durationTicks": 160,
          "midi": 72,
          "name": "C5",
          "ticks": 549600,
          "time": 473.48921325000003,
          "velocity": 0.31496062992125984
        },
        {
          "duration": 0.16666666666668561,
          "durationTicks": 160,
          "midi": 72,
          "name": "C5",
          "ticks": 549840,
          "time": 473.73921325000003,
          "velocity": 0.31496062992125984
        },
        {
          "duration": 0.16666666666668561,
          "durationTicks": 160,
          "midi": 72,
          "name": "C5",
          "ticks": 550080,
          "time": 473.98921325000003,
          "velocity": 0.31496062992125984
        },
        {
          "duration": 0.16666666666668561,
          "durationTicks": 160,
          "midi": 72,
          "name": "C5",
          "ticks": 550320,
          "time": 474.23921325000003,
          "velocity": 0.31496062992125984
        },
        {
          "duration": 0.16666666666668561,
          "durationTicks": 160,
          "midi": 70,
          "name": "A#4",
          "ticks": 550800,
          "time": 474.73921325000003,
          "velocity": 0.31496062992125984
        },
        {
          "duration": 0.16666666666668561,
          "durationTicks": 160,
          "midi": 70,
          "name": "A#4",
          "ticks": 551040,
          "time": 474.98921325000003,
          "velocity": 0.31496062992125984
        },
        {
          "duration": 0.16666666666668561,
          "durationTicks": 160,
          "midi": 70,
          "name": "A#4",
          "ticks": 551280,
          "time": 475.23921325000003,
          "velocity": 0.31496062992125984
        },
        {
          "duration": 0.16666666666668561,
          "durationTicks": 160,
          "midi": 70,
          "name": "A#4",
          "ticks": 551520,
          "time": 475.48921325000003,
          "velocity": 0.31496062992125984
        },
        {
          "duration": 0.16666666666668561,
          "durationTicks": 160,
          "midi": 70,
          "name": "A#4",
          "ticks": 551760,
          "time": 475.73921325000003,
          "velocity": 0.31496062992125984
        },
        {
          "duration": 0.16666666666668561,
          "durationTicks": 160,
          "midi": 68,
          "name": "G#4",
          "ticks": 552240,
          "time": 476.23921325000003,
          "velocity": 0.31496062992125984
        },
        {
          "duration": 0.16666666666668561,
          "durationTicks": 160,
          "midi": 68,
          "name": "G#4",
          "ticks": 552480,
          "time": 476.48921325000003,
          "velocity": 0.31496062992125984
        },
        {
          "duration": 0.16666666666668561,
          "durationTicks": 160,
          "midi": 68,
          "name": "G#4",
          "ticks": 552720,
          "time": 476.73921325000003,
          "velocity": 0.31496062992125984
        },
        {
          "duration": 0.16666666666668561,
          "durationTicks": 160,
          "midi": 68,
          "name": "G#4",
          "ticks": 552960,
          "time": 476.98921325000003,
          "velocity": 0.31496062992125984
        },
        {
          "duration": 0.16666666666668561,
          "durationTicks": 160,
          "midi": 68,
          "name": "G#4",
          "ticks": 553200,
          "time": 477.23921325000003,
          "velocity": 0.31496062992125984
        },
        {
          "duration": 0.16666666666668561,
          "durationTicks": 160,
          "midi": 67,
          "name": "G4",
          "ticks": 553680,
          "time": 477.73921325000003,
          "velocity": 0.31496062992125984
        },
        {
          "duration": 0.16666666666668561,
          "durationTicks": 160,
          "midi": 67,
          "name": "G4",
          "ticks": 553920,
          "time": 477.98921325000003,
          "velocity": 0.31496062992125984
        },
        {
          "duration": 0.16666666666668561,
          "durationTicks": 160,
          "midi": 67,
          "name": "G4",
          "ticks": 554160,
          "time": 478.23921325000003,
          "velocity": 0.31496062992125984
        },
        {
          "duration": 0.16666666666668561,
          "durationTicks": 160,
          "midi": 67,
          "name": "G4",
          "ticks": 554400,
          "time": 478.48921325000003,
          "velocity": 0.31496062992125984
        },
        {
          "duration": 0.16666666666668561,
          "durationTicks": 160,
          "midi": 67,
          "name": "G4",
          "ticks": 554640,
          "time": 478.73921325000003,
          "velocity": 0.31496062992125984
        },
        {
          "duration": 0.16666666666668561,
          "durationTicks": 160,
          "midi": 65,
          "name": "F4",
          "ticks": 555120,
          "time": 479.23921325000003,
          "velocity": 0.31496062992125984
        },
        {
          "duration": 0.16666666666668561,
          "durationTicks": 160,
          "midi": 65,
          "name": "F4",
          "ticks": 555360,
          "time": 479.48921325000003,
          "velocity": 0.31496062992125984
        },
        {
          "duration": 0.16666666666668561,
          "durationTicks": 160,
          "midi": 65,
          "name": "F4",
          "ticks": 555600,
          "time": 479.73921325000003,
          "velocity": 0.31496062992125984
        },
        {
          "duration": 0.16666666666668561,
          "durationTicks": 160,
          "midi": 65,
          "name": "F4",
          "ticks": 555840,
          "time": 479.98921325000003,
          "velocity": 0.31496062992125984
        },
        {
          "duration": 0.16666666666668561,
          "durationTicks": 160,
          "midi": 65,
          "name": "F4",
          "ticks": 556080,
          "time": 480.23921325000003,
          "velocity": 0.31496062992125984
        },
        {
          "duration": 0.16666666666668561,
          "durationTicks": 160,
          "midi": 63,
          "name": "D#4",
          "ticks": 556560,
          "time": 480.73921325000003,
          "velocity": 0.31496062992125984
        },
        {
          "duration": 0.16666666666668561,
          "durationTicks": 160,
          "midi": 63,
          "name": "D#4",
          "ticks": 556800,
          "time": 480.98921325000003,
          "velocity": 0.31496062992125984
        },
        {
          "duration": 0.16666666666668561,
          "durationTicks": 160,
          "midi": 63,
          "name": "D#4",
          "ticks": 557040,
          "time": 481.23921325000003,
          "velocity": 0.31496062992125984
        },
        {
          "duration": 0.16666666666668561,
          "durationTicks": 160,
          "midi": 63,
          "name": "D#4",
          "ticks": 557280,
          "time": 481.48921325000003,
          "velocity": 0.31496062992125984
        },
        {
          "duration": 0.16666666666668561,
          "durationTicks": 160,
          "midi": 63,
          "name": "D#4",
          "ticks": 557520,
          "time": 481.73921325000003,
          "velocity": 0.31496062992125984
        },
        {
          "duration": 0.16666666666668561,
          "durationTicks": 160,
          "midi": 62,
          "name": "D4",
          "ticks": 558000,
          "time": 482.23921325000003,
          "velocity": 0.31496062992125984
        },
        {
          "duration": 0.16666666666668561,
          "durationTicks": 160,
          "midi": 62,
          "name": "D4",
          "ticks": 558240,
          "time": 482.48921325000003,
          "velocity": 0.31496062992125984
        },
        {
          "duration": 0.16666666666668561,
          "durationTicks": 160,
          "midi": 62,
          "name": "D4",
          "ticks": 558480,
          "time": 482.73921325000003,
          "velocity": 0.31496062992125984
        },
        {
          "duration": 0.16666666666668561,
          "durationTicks": 160,
          "midi": 62,
          "name": "D4",
          "ticks": 558720,
          "time": 482.98921325000003,
          "velocity": 0.31496062992125984
        },
        {
          "duration": 0.16666666666668561,
          "durationTicks": 160,
          "midi": 62,
          "name": "D4",
          "ticks": 558960,
          "time": 483.23921325000003,
          "velocity": 0.31496062992125984
        },
        {
          "duration": 0.14655168749999348,
          "durationTicks": 170,
          "midi": 65,
          "name": "F4",
          "ticks": 562800,
          "time": 486.59266075000005,
          "velocity": 0.31496062992125984
        },
        {
          "duration": 0.14655168749999348,
          "durationTicks": 170,
          "midi": 65,
          "name": "F4",
          "ticks": 563040,
          "time": 486.79955725,
          "velocity": 0.31496062992125984
        },
        {
          "duration": 0.14655168749999348,
          "durationTicks": 170,
          "midi": 65,
          "name": "F4",
          "ticks": 563280,
          "time": 487.00645375000005,
          "velocity": 0.31496062992125984
        },
        {
          "duration": 0.20689650000002757,
          "durationTicks": 240,
          "midi": 66,
          "name": "F#4",
          "ticks": 563520,
          "time": 487.21335025,
          "velocity": 0.31496062992125984
        },
        {
          "duration": 0.14655168749999348,
          "durationTicks": 170,
          "midi": 67,
          "name": "G4",
          "ticks": 563760,
          "time": 487.42024675000005,
          "velocity": 0.31496062992125984
        },
        {
          "duration": 0.14655168749999348,
          "durationTicks": 170,
          "midi": 63,
          "name": "D#4",
          "ticks": 564000,
          "time": 487.62714325,
          "velocity": 0.31496062992125984
        },
        {
          "duration": 0.20689649999997073,
          "durationTicks": 240,
          "midi": 63,
          "name": "D#4",
          "ticks": 564240,
          "time": 487.83403975000004,
          "velocity": 0.31496062992125984
        },
        {
          "duration": 0.14655168749999348,
          "durationTicks": 170,
          "midi": 65,
          "name": "F4",
          "ticks": 564480,
          "time": 488.04093625,
          "velocity": 0.31496062992125984
        },
        {
          "duration": 0.14655168749999348,
          "durationTicks": 170,
          "midi": 62,
          "name": "D4",
          "ticks": 564720,
          "time": 488.24783275000004,
          "velocity": 0.31496062992125984
        },
        {
          "duration": 0.13793100000003733,
          "durationTicks": 160,
          "midi": 63,
          "name": "D#4",
          "ticks": 564960,
          "time": 488.45472925,
          "velocity": 0.31496062992125984
        },
        {
          "duration": 0.10344824999998536,
          "durationTicks": 120,
          "midi": 82,
          "name": "A#5",
          "ticks": 567120,
          "time": 490.31679775000003,
          "velocity": 0.7086614173228346
        },
        {
          "duration": 0.10344825000004221,
          "durationTicks": 120,
          "midi": 84,
          "name": "C6",
          "ticks": 567240,
          "time": 490.420246,
          "velocity": 0.7086614173228346
        },
        {
          "duration": 0.10344824999998536,
          "durationTicks": 120,
          "midi": 82,
          "name": "A#5",
          "ticks": 567360,
          "time": 490.52369425000006,
          "velocity": 0.7086614173228346
        },
        {
          "duration": 0.10344824999998536,
          "durationTicks": 120,
          "midi": 80,
          "name": "G#5",
          "ticks": 567480,
          "time": 490.62714250000005,
          "velocity": 0.7086614173228346
        },
        {
          "duration": 0.10344824999998536,
          "durationTicks": 120,
          "midi": 79,
          "name": "G5",
          "ticks": 567600,
          "time": 490.73059075000003,
          "velocity": 0.7086614173228346
        },
        {
          "duration": 0.10344825000004221,
          "durationTicks": 120,
          "midi": 77,
          "name": "F5",
          "ticks": 567720,
          "time": 490.834039,
          "velocity": 0.7086614173228346
        },
        {
          "duration": 0.16810340624999753,
          "durationTicks": 195,
          "midi": 75,
          "name": "D#5",
          "ticks": 567840,
          "time": 490.93748725000006,
          "velocity": 0.7086614173228346
        },
        {
          "duration": 0.10344824999998536,
          "durationTicks": 120,
          "midi": 82,
          "name": "A#5",
          "ticks": 570000,
          "time": 492.79955575,
          "velocity": 0.7086614173228346
        },
        {
          "duration": 0.10344825000004221,
          "durationTicks": 120,
          "midi": 84,
          "name": "C6",
          "ticks": 570120,
          "time": 492.903004,
          "velocity": 0.7086614173228346
        },
        {
          "duration": 0.10344824999998536,
          "durationTicks": 120,
          "midi": 82,
          "name": "A#5",
          "ticks": 570240,
          "time": 493.00645225000005,
          "velocity": 0.7086614173228346
        },
        {
          "duration": 0.10344824999998536,
          "durationTicks": 120,
          "midi": 80,
          "name": "G#5",
          "ticks": 570360,
          "time": 493.10990050000004,
          "velocity": 0.7086614173228346
        },
        {
          "duration": 0.10344824999998536,
          "durationTicks": 120,
          "midi": 79,
          "name": "G5",
          "ticks": 570480,
          "time": 493.21334875,
          "velocity": 0.7086614173228346
        },
        {
          "duration": 0.10344825000004221,
          "durationTicks": 120,
          "midi": 77,
          "name": "F5",
          "ticks": 570600,
          "time": 493.316797,
          "velocity": 0.7086614173228346
        },
        {
          "duration": 0.10344824999998536,
          "durationTicks": 120,
          "midi": 75,
          "name": "D#5",
          "ticks": 570720,
          "time": 493.42024525000005,
          "velocity": 0.7086614173228346
        },
        {
          "duration": 0.10344824999998536,
          "durationTicks": 120,
          "midi": 74,
          "name": "D5",
          "ticks": 570840,
          "time": 493.52369350000004,
          "velocity": 0.7086614173228346
        },
        {
          "duration": 0.10344824999998536,
          "durationTicks": 120,
          "midi": 75,
          "name": "D#5",
          "ticks": 570960,
          "time": 493.62714175,
          "velocity": 0.7086614173228346
        },
        {
          "duration": 0.10344825000004221,
          "durationTicks": 120,
          "midi": 70,
          "name": "A#4",
          "ticks": 571080,
          "time": 493.73059,
          "velocity": 0.7086614173228346
        },
        {
          "duration": 0.10344824999998536,
          "durationTicks": 120,
          "midi": 72,
          "name": "C5",
          "ticks": 571200,
          "time": 493.83403825000005,
          "velocity": 0.7086614173228346
        },
        {
          "duration": 0.10344824999998536,
          "durationTicks": 120,
          "midi": 74,
          "name": "D5",
          "ticks": 571320,
          "time": 493.93748650000003,
          "velocity": 0.7086614173228346
        },
        {
          "duration": 0.10344825000004221,
          "durationTicks": 120,
          "midi": 75,
          "name": "D#5",
          "ticks": 571440,
          "time": 494.04093475,
          "velocity": 0.7086614173228346
        },
        {
          "duration": 0.10344824999998536,
          "durationTicks": 120,
          "midi": 74,
          "name": "D5",
          "ticks": 571560,
          "time": 494.14438300000006,
          "velocity": 0.7086614173228346
        },
        {
          "duration": 0.10344824999998536,
          "durationTicks": 120,
          "midi": 75,
          "name": "D#5",
          "ticks": 571680,
          "time": 494.24783125000005,
          "velocity": 0.7086614173228346
        },
        {
          "duration": 0.10344824999998536,
          "durationTicks": 120,
          "midi": 70,
          "name": "A#4",
          "ticks": 571800,
          "time": 494.35127950000003,
          "velocity": 0.7086614173228346
        },
        {
          "duration": 0.10344825000004221,
          "durationTicks": 120,
          "midi": 72,
          "name": "C5",
          "ticks": 571920,
          "time": 494.45472775,
          "velocity": 0.7086614173228346
        },
        {
          "duration": 0.10344824999998536,
          "durationTicks": 120,
          "midi": 74,
          "name": "D5",
          "ticks": 572040,
          "time": 494.55817600000006,
          "velocity": 0.7086614173228346
        },
        {
          "duration": 0.10344824999998536,
          "durationTicks": 120,
          "midi": 75,
          "name": "D#5",
          "ticks": 572160,
          "time": 494.66162425000005,
          "velocity": 0.7086614173228346
        },
        {
          "duration": 0.10344824999998536,
          "durationTicks": 120,
          "midi": 74,
          "name": "D5",
          "ticks": 572280,
          "time": 494.76507250000003,
          "velocity": 0.7086614173228346
        },
        {
          "duration": 0.10344825000004221,
          "durationTicks": 120,
          "midi": 75,
          "name": "D#5",
          "ticks": 572400,
          "time": 494.86852075,
          "velocity": 0.7086614173228346
        },
        {
          "duration": 0.10344824999998536,
          "durationTicks": 120,
          "midi": 70,
          "name": "A#4",
          "ticks": 572520,
          "time": 494.97196900000006,
          "velocity": 0.7086614173228346
        },
        {
          "duration": 0.10344824999998536,
          "durationTicks": 120,
          "midi": 72,
          "name": "C5",
          "ticks": 572640,
          "time": 495.07541725000004,
          "velocity": 0.7086614173228346
        },
        {
          "duration": 0.10344824999998536,
          "durationTicks": 120,
          "midi": 74,
          "name": "D5",
          "ticks": 572760,
          "time": 495.17886550000003,
          "velocity": 0.7086614173228346
        },
        {
          "duration": 0.10344825000004221,
          "durationTicks": 120,
          "midi": 75,
          "name": "D#5",
          "ticks": 572880,
          "time": 495.28231375,
          "velocity": 0.7086614173228346
        },
        {
          "duration": 0.10344824999998536,
          "durationTicks": 120,
          "midi": 74,
          "name": "D5",
          "ticks": 573000,
          "time": 495.38576200000006,
          "velocity": 0.7086614173228346
        },
        {
          "duration": 0.10344824999998536,
          "durationTicks": 120,
          "midi": 75,
          "name": "D#5",
          "ticks": 573120,
          "time": 495.48921025000004,
          "velocity": 0.7086614173228346
        },
        {
          "duration": 0.10344824999998536,
          "durationTicks": 120,
          "midi": 70,
          "name": "A#4",
          "ticks": 573240,
          "time": 495.5926585,
          "velocity": 0.7086614173228346
        },
        {
          "duration": 0.10344825000004221,
          "durationTicks": 120,
          "midi": 72,
          "name": "C5",
          "ticks": 573360,
          "time": 495.69610675,
          "velocity": 0.7086614173228346
        },
        {
          "duration": 0.10344824999998536,
          "durationTicks": 120,
          "midi": 74,
          "name": "D5",
          "ticks": 573480,
          "time": 495.79955500000005,
          "velocity": 0.7086614173228346
        },
        {
          "duration": 0.16810340624999753,
          "durationTicks": 195,
          "midi": 75,
          "name": "D#5",
          "ticks": 573600,
          "time": 495.90300325000004,
          "velocity": 0.7086614173228346
        },
        {
          "duration": 0.41034472500001584,
          "durationTicks": 476,
          "midi": 73,
          "name": "C#5",
          "ticks": 576000,
          "time": 497.97196825000003,
          "velocity": 0.7086614173228346
        }
      ]
    },
    {
      "channel": 6,
      "controlChanges": {},
      "pitchBends": [],
      "instrument": {
        "family": "strings",
        "number": 45,
        "name": "pizzicato strings"
      },
      "name": "",
      "notes": [
        {
          "duration": 0.32257999999999987,
          "durationTicks": 400,
          "midi": 67,
          "name": "G4",
          "ticks": 1920,
          "time": 1.548384,
          "velocity": 0.31496062992125984
        },
        {
          "duration": 0.32257999999999987,
          "durationTicks": 400,
          "midi": 67,
          "name": "G4",
          "ticks": 3360,
          "time": 2.709672,
          "velocity": 0.31496062992125984
        },
        {
          "duration": 0.3225800000000003,
          "durationTicks": 400,
          "midi": 68,
          "name": "G#4",
          "ticks": 3840,
          "time": 3.096768,
          "velocity": 0.31496062992125984
        },
        {
          "duration": 0.3225800000000003,
          "durationTicks": 400,
          "midi": 68,
          "name": "G#4",
          "ticks": 5280,
          "time": 4.258056,
          "velocity": 0.31496062992125984
        },
        {
          "duration": 0.3225800000000003,
          "durationTicks": 400,
          "midi": 67,
          "name": "G4",
          "ticks": 5760,
          "time": 4.6451519999999995,
          "velocity": 0.31496062992125984
        },
        {
          "duration": 0.3225800000000003,
          "durationTicks": 400,
          "midi": 67,
          "name": "G4",
          "ticks": 6240,
          "time": 5.032248,
          "velocity": 0.31496062992125984
        },
        {
          "duration": 0.3225800000000003,
          "durationTicks": 400,
          "midi": 68,
          "name": "G#4",
          "ticks": 6720,
          "time": 5.419344,
          "velocity": 0.31496062992125984
        },
        {
          "duration": 0.3225800000000003,
          "durationTicks": 400,
          "midi": 68,
          "name": "G#4",
          "ticks": 7200,
          "time": 5.80644,
          "velocity": 0.31496062992125984
        },
        {
          "duration": 0.9032239999999998,
          "durationTicks": 1120,
          "midi": 65,
          "name": "F4",
          "ticks": 7680,
          "time": 6.193536,
          "velocity": 0.31496062992125984
        },
        {
          "duration": 0.32257999999999853,
          "durationTicks": 400,
          "midi": 72,
          "name": "C5",
          "ticks": 9600,
          "time": 7.74192,
          "velocity": 0.31496062992125984
        },
        {
          "duration": 0.3225800000000003,
          "durationTicks": 400,
          "midi": 72,
          "name": "C5",
          "ticks": 10560,
          "time": 8.516112,
          "velocity": 0.31496062992125984
        },
        {
          "duration": 0.3225800000000003,
          "durationTicks": 400,
          "midi": 70,
          "name": "A#4",
          "ticks": 11520,
          "time": 9.290303999999999,
          "velocity": 0.31496062992125984
        },
        {
          "duration": 0.32257999999999853,
          "durationTicks": 400,
          "midi": 70,
          "name": "A#4",
          "ticks": 12480,
          "time": 10.064496,
          "velocity": 0.31496062992125984
        },
        {
          "duration": 0.3225800000000003,
          "durationTicks": 400,
          "midi": 65,
          "name": "F4",
          "ticks": 13440,
          "time": 10.838688,
          "velocity": 0.31496062992125984
        },
        {
          "duration": 0.32257999999999853,
          "durationTicks": 400,
          "midi": 62,
          "name": "D4",
          "ticks": 14400,
          "time": 11.61288,
          "velocity": 0.31496062992125984
        },
        {
          "duration": 0.9032240000000016,
          "durationTicks": 1120,
          "midi": 63,
          "name": "D#4",
          "ticks": 15360,
          "time": 12.387072,
          "velocity": 0.31496062992125984
        },
        {
          "duration": 0.3225800000000003,
          "durationTicks": 400,
          "midi": 62,
          "name": "D4",
          "ticks": 17280,
          "time": 13.935456,
          "velocity": 0.31496062992125984
        },
        {
          "duration": 0.3225800000000021,
          "durationTicks": 400,
          "midi": 62,
          "name": "D4",
          "ticks": 18720,
          "time": 15.096744,
          "velocity": 0.31496062992125984
        },
        {
          "duration": 0.3225800000000003,
          "durationTicks": 400,
          "midi": 63,
          "name": "D#4",
          "ticks": 19200,
          "time": 15.48384,
          "velocity": 0.31496062992125984
        },
        {
          "duration": 0.3225800000000021,
          "durationTicks": 400,
          "midi": 63,
          "name": "D#4",
          "ticks": 19680,
          "time": 15.870936,
          "velocity": 0.31496062992125984
        },
        {
          "duration": 0.3225800000000021,
          "durationTicks": 400,
          "midi": 63,
          "name": "D#4",
          "ticks": 20160,
          "time": 16.258032,
          "velocity": 0.31496062992125984
        },
        {
          "duration": 0.3225800000000021,
          "durationTicks": 400,
          "midi": 60,
          "name": "C4",
          "ticks": 21120,
          "time": 17.032224,
          "velocity": 0.31496062992125984
        },
        {
          "duration": 0.3225800000000021,
          "durationTicks": 400,
          "midi": 60,
          "name": "C4",
          "ticks": 22560,
          "time": 18.193512,
          "velocity": 0.31496062992125984
        },
        {
          "duration": 0.3225800000000021,
          "durationTicks": 400,
          "midi": 62,
          "name": "D4",
          "ticks": 23040,
          "time": 18.580607999999998,
          "velocity": 0.31496062992125984
        },
        {
          "duration": 0.32257999999999853,
          "durationTicks": 400,
          "midi": 62,
          "name": "D4",
          "ticks": 23520,
          "time": 18.967704,
          "velocity": 0.31496062992125984
        },
        {
          "duration": 0.32257999999999853,
          "durationTicks": 400,
          "midi": 62,
          "name": "D4",
          "ticks": 24000,
          "time": 19.3548,
          "velocity": 0.31496062992125984
        },
        {
          "duration": 0.3225800000000021,
          "durationTicks": 400,
          "midi": 72,
          "name": "C5",
          "ticks": 24960,
          "time": 20.128992,
          "velocity": 0.31496062992125984
        },
        {
          "duration": 0.3225800000000021,
          "durationTicks": 400,
          "midi": 72,
          "name": "C5",
          "ticks": 25920,
          "time": 20.903184,
          "velocity": 0.31496062992125984
        },
        {
          "duration": 0.3225800000000021,
          "durationTicks": 400,
          "midi": 70,
          "name": "A#4",
          "ticks": 26880,
          "time": 21.677376,
          "velocity": 0.31496062992125984
        },
        {
          "duration": 0.3225800000000021,
          "durationTicks": 400,
          "midi": 70,
          "name": "A#4",
          "ticks": 27840,
          "time": 22.451567999999998,
          "velocity": 0.31496062992125984
        },
        {
          "duration": 0.32257999999999853,
          "durationTicks": 400,
          "midi": 65,
          "name": "F4",
          "ticks": 28800,
          "time": 23.22576,
          "velocity": 0.31496062992125984
        },
        {
          "duration": 0.32257999999999853,
          "durationTicks": 400,
          "midi": 62,
          "name": "D4",
          "ticks": 29760,
          "time": 23.999952,
          "velocity": 0.31496062992125984
        },
        {
          "duration": 0.903223999999998,
          "durationTicks": 1120,
          "midi": 63,
          "name": "D#4",
          "ticks": 30720,
          "time": 24.774144,
          "velocity": 0.31496062992125984
        },
        {
          "duration": 0.1370964999999984,
          "durationTicks": 170,
          "midi": 67,
          "name": "G4",
          "ticks": 140640,
          "time": 113.419128,
          "velocity": 0.31496062992125984
        },
        {
          "duration": 0.1370965000000126,
          "durationTicks": 170,
          "midi": 63,
          "name": "D#4",
          "ticks": 141600,
          "time": 114.19332,
          "velocity": 0.31496062992125984
        },
        {
          "duration": 0.1370965000000126,
          "durationTicks": 170,
          "midi": 62,
          "name": "D4",
          "ticks": 142560,
          "time": 114.967512,
          "velocity": 0.31496062992125984
        },
        {
          "duration": 0.1370965000000126,
          "durationTicks": 170,
          "midi": 62,
          "name": "D4",
          "ticks": 143520,
          "time": 115.741704,
          "velocity": 0.31496062992125984
        },
        {
          "duration": 0.12903199999999515,
          "durationTicks": 160,
          "midi": 63,
          "name": "D#4",
          "ticks": 144000,
          "time": 116.1288,
          "velocity": 0.31496062992125984
        },
        {
          "duration": 0.12903199999999515,
          "durationTicks": 160,
          "midi": 65,
          "name": "F4",
          "ticks": 144480,
          "time": 116.515896,
          "velocity": 0.31496062992125984
        },
        {
          "duration": 0.12903199999999515,
          "durationTicks": 160,
          "midi": 67,
          "name": "G4",
          "ticks": 144960,
          "time": 116.902992,
          "velocity": 0.31496062992125984
        },
        {
          "duration": 0.12903199999999515,
          "durationTicks": 160,
          "midi": 68,
          "name": "G#4",
          "ticks": 145440,
          "time": 117.290088,
          "velocity": 0.31496062992125984
        },
        {
          "duration": 0.12903199999999515,
          "durationTicks": 160,
          "midi": 67,
          "name": "G4",
          "ticks": 145920,
          "time": 117.677184,
          "velocity": 0.31496062992125984
        },
        {
          "duration": 0.12903199999999515,
          "durationTicks": 160,
          "midi": 65,
          "name": "F4",
          "ticks": 146880,
          "time": 118.451376,
          "velocity": 0.31496062992125984
        },
        {
          "duration": 0.12903199999999515,
          "durationTicks": 160,
          "midi": 70,
          "name": "A#4",
          "ticks": 148320,
          "time": 119.612664,
          "velocity": 0.31496062992125984
        },
        {
          "duration": 0.12903199999999515,
          "durationTicks": 160,
          "midi": 68,
          "name": "G#4",
          "ticks": 149280,
          "time": 120.386856,
          "velocity": 0.31496062992125984
        },
        {
          "duration": 0.12903199999999515,
          "durationTicks": 160,
          "midi": 68,
          "name": "G#4",
          "ticks": 150240,
          "time": 121.161048,
          "velocity": 0.31496062992125984
        },
        {
          "duration": 0.12903199999999515,
          "durationTicks": 160,
          "midi": 67,
          "name": "G4",
          "ticks": 151200,
          "time": 121.93524,
          "velocity": 0.31496062992125984
        },
        {
          "duration": 0.12903199999999515,
          "durationTicks": 160,
          "midi": 70,
          "name": "A#4",
          "ticks": 163680,
          "time": 131.99973599999998,
          "velocity": 0.31496062992125984
        },
        {
          "duration": 0.12903199999996673,
          "durationTicks": 160,
          "midi": 68,
          "name": "G#4",
          "ticks": 164640,
          "time": 132.773928,
          "velocity": 0.31496062992125984
        },
        {
          "duration": 0.12903199999996673,
          "durationTicks": 160,
          "midi": 68,
          "name": "G#4",
          "ticks": 165600,
          "time": 133.54812,
          "velocity": 0.31496062992125984
        },
        {
          "duration": 0.12903199999996673,
          "durationTicks": 160,
          "midi": 67,
          "name": "G4",
          "ticks": 166560,
          "time": 134.322312,
          "velocity": 0.31496062992125984
        },
        {
          "duration": 0.12903199999999515,
          "durationTicks": 160,
          "midi": 67,
          "name": "G4",
          "ticks": 324480,
          "time": 261.676896,
          "velocity": 0.31496062992125984
        },
        {
          "duration": 0.12903199999999515,
          "durationTicks": 160,
          "midi": 67,
          "name": "G4",
          "ticks": 325920,
          "time": 262.838184,
          "velocity": 0.31496062992125984
        },
        {
          "duration": 0.12903199999999515,
          "durationTicks": 160,
          "midi": 68,
          "name": "G#4",
          "ticks": 326400,
          "time": 263.22528,
          "velocity": 0.31496062992125984
        },
        {
          "duration": 0.12903199999999515,
          "durationTicks": 160,
          "midi": 68,
          "name": "G#4",
          "ticks": 327840,
          "time": 264.386568,
          "velocity": 0.31496062992125984
        },
        {
          "duration": 0.12903199999999515,
          "durationTicks": 160,
          "midi": 67,
          "name": "G4",
          "ticks": 328320,
          "time": 264.773664,
          "velocity": 0.31496062992125984
        },
        {
          "duration": 0.129032000000052,
          "durationTicks": 160,
          "midi": 68,
          "name": "G#4",
          "ticks": 328800,
          "time": 265.16076,
          "velocity": 0.31496062992125984
        },
        {
          "duration": 0.12903199999999515,
          "durationTicks": 160,
          "midi": 70,
          "name": "A#4",
          "ticks": 329280,
          "time": 265.547856,
          "velocity": 0.31496062992125984
        },
        {
          "duration": 0.12903199999999515,
          "durationTicks": 160,
          "midi": 72,
          "name": "C5",
          "ticks": 329760,
          "time": 265.934952,
          "velocity": 0.31496062992125984
        },
        {
          "duration": 0.12903199999999515,
          "durationTicks": 160,
          "midi": 67,
          "name": "G4",
          "ticks": 330240,
          "time": 266.322048,
          "velocity": 0.31496062992125984
        },
        {
          "duration": 0.129032000000052,
          "durationTicks": 160,
          "midi": 67,
          "name": "G4",
          "ticks": 330720,
          "time": 266.709144,
          "velocity": 0.31496062992125984
        },
        {
          "duration": 0.12903199999999515,
          "durationTicks": 160,
          "midi": 65,
          "name": "F4",
          "ticks": 331200,
          "time": 267.09624,
          "velocity": 0.31496062992125984
        },
        {
          "duration": 0.12903199999999515,
          "durationTicks": 160,
          "midi": 67,
          "name": "G4",
          "ticks": 371040,
          "time": 299.225208,
          "velocity": 0.31496062992125984
        },
        {
          "duration": 0.129032000000052,
          "durationTicks": 160,
          "midi": 67,
          "name": "G4",
          "ticks": 372000,
          "time": 299.9994,
          "velocity": 0.31496062992125984
        },
        {
          "duration": 0.12903199999999515,
          "durationTicks": 160,
          "midi": 68,
          "name": "G#4",
          "ticks": 372960,
          "time": 300.773592,
          "velocity": 0.31496062992125984
        },
        {
          "duration": 0.129032000000052,
          "durationTicks": 160,
          "midi": 68,
          "name": "G#4",
          "ticks": 373920,
          "time": 301.547784,
          "velocity": 0.31496062992125984
        },
        {
          "duration": 0.12903199999999515,
          "durationTicks": 160,
          "midi": 67,
          "name": "G4",
          "ticks": 374880,
          "time": 302.321976,
          "velocity": 0.31496062992125984
        },
        {
          "duration": 0.129032000000052,
          "durationTicks": 160,
          "midi": 68,
          "name": "G#4",
          "ticks": 375840,
          "time": 303.096168,
          "velocity": 0.31496062992125984
        },
        {
          "duration": 0.12903199999999515,
          "durationTicks": 160,
          "midi": 67,
          "name": "G4",
          "ticks": 376320,
          "time": 303.483264,
          "velocity": 0.31496062992125984
        },
        {
          "duration": 0.12903199999999515,
          "durationTicks": 160,
          "midi": 67,
          "name": "G4",
          "ticks": 376800,
          "time": 303.87036,
          "velocity": 0.31496062992125984
        },
        {
          "duration": 0.12903199999999515,
          "durationTicks": 160,
          "midi": 65,
          "name": "F4",
          "ticks": 377280,
          "time": 304.257456,
          "velocity": 0.31496062992125984
        },
        {
          "duration": 0.12903199999999515,
          "durationTicks": 160,
          "midi": 72,
          "name": "C5",
          "ticks": 378720,
          "time": 305.418744,
          "velocity": 0.31496062992125984
        },
        {
          "duration": 0.129032000000052,
          "durationTicks": 160,
          "midi": 72,
          "name": "C5",
          "ticks": 379680,
          "time": 306.192936,
          "velocity": 0.31496062992125984
        },
        {
          "duration": 0.12903199999999515,
          "durationTicks": 160,
          "midi": 70,
          "name": "A#4",
          "ticks": 380640,
          "time": 306.967128,
          "velocity": 0.31496062992125984
        },
        {
          "duration": 0.129032000000052,
          "durationTicks": 160,
          "midi": 70,
          "name": "A#4",
          "ticks": 381600,
          "time": 307.74132,
          "velocity": 0.31496062992125984
        },
        {
          "duration": 0.12903199999999515,
          "durationTicks": 160,
          "midi": 72,
          "name": "C5",
          "ticks": 382560,
          "time": 308.515512,
          "velocity": 0.31496062992125984
        },
        {
          "duration": 0.129032000000052,
          "durationTicks": 160,
          "midi": 74,
          "name": "D5",
          "ticks": 383520,
          "time": 309.289704,
          "velocity": 0.31496062992125984
        },
        {
          "duration": 0.6129020000000196,
          "durationTicks": 760,
          "midi": 75,
          "name": "D#5",
          "ticks": 384000,
          "time": 309.6768,
          "velocity": 0.31496062992125984
        },
        {
          "duration": 0.12903199999999515,
          "durationTicks": 160,
          "midi": 71,
          "name": "B4",
          "ticks": 386400,
          "time": 311.61228,
          "velocity": 0.31496062992125984
        },
        {
          "duration": 0.129032000000052,
          "durationTicks": 160,
          "midi": 71,
          "name": "B4",
          "ticks": 387360,
          "time": 312.38647199999997,
          "velocity": 0.31496062992125984
        },
        {
          "duration": 0.12903199999999515,
          "durationTicks": 160,
          "midi": 72,
          "name": "C5",
          "ticks": 388320,
          "time": 313.160664,
          "velocity": 0.31496062992125984
        },
        {
          "duration": 0.12903199999999515,
          "durationTicks": 160,
          "midi": 72,
          "name": "C5",
          "ticks": 389280,
          "time": 313.934856,
          "velocity": 0.31496062992125984
        },
        {
          "duration": 0.12903199999999515,
          "durationTicks": 160,
          "midi": 69,
          "name": "A4",
          "ticks": 390240,
          "time": 314.709048,
          "velocity": 0.31496062992125984
        },
        {
          "duration": 0.12903199999999515,
          "durationTicks": 160,
          "midi": 69,
          "name": "A4",
          "ticks": 391200,
          "time": 315.48324,
          "velocity": 0.31496062992125984
        },
        {
          "duration": 0.12903199999999515,
          "durationTicks": 160,
          "midi": 70,
          "name": "A#4",
          "ticks": 392160,
          "time": 316.257432,
          "velocity": 0.31496062992125984
        },
        {
          "duration": 0.12903199999999515,
          "durationTicks": 160,
          "midi": 70,
          "name": "A#4",
          "ticks": 393120,
          "time": 317.031624,
          "velocity": 0.31496062992125984
        },
        {
          "duration": 0.12903199999999515,
          "durationTicks": 160,
          "midi": 72,
          "name": "C5",
          "ticks": 394080,
          "time": 317.805816,
          "velocity": 0.31496062992125984
        },
        {
          "duration": 0.12903199999999515,
          "durationTicks": 160,
          "midi": 72,
          "name": "C5",
          "ticks": 395040,
          "time": 318.580008,
          "velocity": 0.31496062992125984
        },
        {
          "duration": 0.12903199999999515,
          "durationTicks": 160,
          "midi": 70,
          "name": "A#4",
          "ticks": 396000,
          "time": 319.3542,
          "velocity": 0.31496062992125984
        },
        {
          "duration": 0.12903199999999515,
          "durationTicks": 160,
          "midi": 70,
          "name": "A#4",
          "ticks": 396960,
          "time": 320.128392,
          "velocity": 0.31496062992125984
        },
        {
          "duration": 0.12903199999999515,
          "durationTicks": 160,
          "midi": 72,
          "name": "C5",
          "ticks": 397920,
          "time": 320.902584,
          "velocity": 0.31496062992125984
        },
        {
          "duration": 0.12903199999999515,
          "durationTicks": 160,
          "midi": 74,
          "name": "D5",
          "ticks": 398880,
          "time": 321.676776,
          "velocity": 0.31496062992125984
        },
        {
          "duration": 0.6129020000000196,
          "durationTicks": 760,
          "midi": 75,
          "name": "D#5",
          "ticks": 399360,
          "time": 322.063872,
          "velocity": 0.31496062992125984
        },
        {
          "duration": 0.12903199999999515,
          "durationTicks": 160,
          "midi": 67,
          "name": "G4",
          "ticks": 462720,
          "time": 373.160544,
          "velocity": 0.31496062992125984
        },
        {
          "duration": 0.12903199999999515,
          "durationTicks": 160,
          "midi": 68,
          "name": "G#4",
          "ticks": 464640,
          "time": 374.708928,
          "velocity": 0.31496062992125984
        },
        {
          "duration": 0.12903199999999515,
          "durationTicks": 160,
          "midi": 67,
          "name": "G4",
          "ticks": 466560,
          "time": 376.257312,
          "velocity": 0.31496062992125984
        },
        {
          "duration": 0.129032000000052,
          "durationTicks": 160,
          "midi": 68,
          "name": "G#4",
          "ticks": 468000,
          "time": 377.41859999999997,
          "velocity": 0.31496062992125984
        },
        {
          "duration": 0.12903199999999515,
          "durationTicks": 160,
          "midi": 65,
          "name": "F4",
          "ticks": 468480,
          "time": 377.805696,
          "velocity": 0.31496062992125984
        },
        {
          "duration": 0.12903199999999515,
          "durationTicks": 160,
          "midi": 70,
          "name": "A#4",
          "ticks": 470880,
          "time": 379.741176,
          "velocity": 0.31496062992125984
        },
        {
          "duration": 0.12903199999999515,
          "durationTicks": 160,
          "midi": 68,
          "name": "G#4",
          "ticks": 471840,
          "time": 380.515368,
          "velocity": 0.31496062992125984
        },
        {
          "duration": 0.12903199999999515,
          "durationTicks": 160,
          "midi": 68,
          "name": "G#4",
          "ticks": 472800,
          "time": 381.28956,
          "velocity": 0.31496062992125984
        },
        {
          "duration": 0.12903199999999515,
          "durationTicks": 160,
          "midi": 67,
          "name": "G4",
          "ticks": 473760,
          "time": 382.063752,
          "velocity": 0.31496062992125984
        },
        {
          "duration": 0.12903199999999515,
          "durationTicks": 160,
          "midi": 65,
          "name": "F4",
          "ticks": 474720,
          "time": 382.837944,
          "velocity": 0.31496062992125984
        },
        {
          "duration": 0.12903199999999515,
          "durationTicks": 160,
          "midi": 65,
          "name": "F4",
          "ticks": 475680,
          "time": 383.612136,
          "velocity": 0.31496062992125984
        },
        {
          "duration": 0.12903199999999515,
          "durationTicks": 160,
          "midi": 63,
          "name": "D#4",
          "ticks": 476160,
          "time": 383.999232,
          "velocity": 0.31496062992125984
        },
        {
          "duration": 0.12903199999999515,
          "durationTicks": 160,
          "midi": 63,
          "name": "D#4",
          "ticks": 476640,
          "time": 384.386328,
          "velocity": 0.31496062992125984
        },
        {
          "duration": 0.129032000000052,
          "durationTicks": 160,
          "midi": 63,
          "name": "D#4",
          "ticks": 477120,
          "time": 384.773424,
          "velocity": 0.31496062992125984
        },
        {
          "duration": 0.12903199999999515,
          "durationTicks": 160,
          "midi": 62,
          "name": "D4",
          "ticks": 478080,
          "time": 385.547616,
          "velocity": 0.31496062992125984
        },
        {
          "duration": 0.12903199999999515,
          "durationTicks": 160,
          "midi": 65,
          "name": "F4",
          "ticks": 479520,
          "time": 386.708904,
          "velocity": 0.31496062992125984
        },
        {
          "duration": 0.12903199999999515,
          "durationTicks": 160,
          "midi": 63,
          "name": "D#4",
          "ticks": 480000,
          "time": 387.096,
          "velocity": 0.31496062992125984
        },
        {
          "duration": 0.12903199999999515,
          "durationTicks": 160,
          "midi": 60,
          "name": "C4",
          "ticks": 481920,
          "time": 388.644384,
          "velocity": 0.31496062992125984
        },
        {
          "duration": 0.12903199999999515,
          "durationTicks": 160,
          "midi": 63,
          "name": "D#4",
          "ticks": 483360,
          "time": 389.805672,
          "velocity": 0.31496062992125984
        },
        {
          "duration": 0.12903199999999515,
          "durationTicks": 160,
          "midi": 62,
          "name": "D4",
          "ticks": 483840,
          "time": 390.192768,
          "velocity": 0.31496062992125984
        }
      ]
    },
    {
      "channel": 0,
      "controlChanges": {
        "7": [
          {
            "number": 7,
            "ticks": 0,
            "time": 0,
            "value": 1
          }
        ],
        "10": [
          {
            "number": 10,
            "ticks": 0,
            "time": 0,
            "value": 0.8661417322834646
          }
        ],
        "91": [
          {
            "number": 91,
            "ticks": 0,
            "time": 0,
            "value": 0.5905511811023622
          }
        ]
      },
      "pitchBends": [],
      "instrument": {
        "family": "piano",
        "number": 0,
        "name": "acoustic grand piano"
      },
      "name": "2nd Violin",
      "notes": [],
      "endOfTrackTicks": 575040
    },
    {
      "channel": 7,
      "controlChanges": {},
      "pitchBends": [],
      "instrument": {
        "family": "strings",
        "number": 45,
        "name": "pizzicato strings"
      },
      "name": "",
      "notes": [
        {
          "duration": 0.32257999999999987,
          "durationTicks": 400,
          "midi": 58,
          "name": "A#3",
          "ticks": 1920,
          "time": 1.548384,
          "velocity": 0.31496062992125984
        },
        {
          "duration": 0.32257999999999987,
          "durationTicks": 400,
          "midi": 58,
          "name": "A#3",
          "ticks": 3360,
          "time": 2.709672,
          "velocity": 0.31496062992125984
        },
        {
          "duration": 0.3225800000000003,
          "durationTicks": 400,
          "midi": 58,
          "name": "A#3",
          "ticks": 3840,
          "time": 3.096768,
          "velocity": 0.31496062992125984
        },
        {
          "duration": 0.3225800000000003,
          "durationTicks": 400,
          "midi": 58,
          "name": "A#3",
          "ticks": 5280,
          "time": 4.258056,
          "velocity": 0.31496062992125984
        },
        {
          "duration": 0.3225800000000003,
          "durationTicks": 400,
          "midi": 58,
          "name": "A#3",
          "ticks": 5760,
          "time": 4.6451519999999995,
          "velocity": 0.31496062992125984
        },
        {
          "duration": 0.3225800000000003,
          "durationTicks": 400,
          "midi": 58,
          "name": "A#3",
          "ticks": 6240,
          "time": 5.032248,
          "velocity": 0.31496062992125984
        },
        {
          "duration": 0.3225800000000003,
          "durationTicks": 400,
          "midi": 60,
          "name": "C4",
          "ticks": 6720,
          "time": 5.419344,
          "velocity": 0.31496062992125984
        },
        {
          "duration": 0.3225800000000003,
          "durationTicks": 400,
          "midi": 60,
          "name": "C4",
          "ticks": 7200,
          "time": 5.80644,
          "velocity": 0.31496062992125984
        },
        {
          "duration": 0.9032239999999998,
          "durationTicks": 1120,
          "midi": 62,
          "name": "D4",
          "ticks": 7680,
          "time": 6.193536,
          "velocity": 0.31496062992125984
        },
        {
          "duration": 0.32257999999999853,
          "durationTicks": 400,
          "midi": 67,
          "name": "G4",
          "ticks": 9600,
          "time": 7.74192,
          "velocity": 0.31496062992125984
        },
        {
          "duration": 0.3225800000000003,
          "durationTicks": 400,
          "midi": 65,
          "name": "F4",
          "ticks": 10560,
          "time": 8.516112,
          "velocity": 0.31496062992125984
        },
        {
          "duration": 0.3225800000000003,
          "durationTicks": 400,
          "midi": 65,
          "name": "F4",
          "ticks": 11520,
          "time": 9.290303999999999,
          "velocity": 0.31496062992125984
        },
        {
          "duration": 0.32257999999999853,
          "durationTicks": 400,
          "midi": 63,
          "name": "D#4",
          "ticks": 12480,
          "time": 10.064496,
          "velocity": 0.31496062992125984
        },
        {
          "duration": 0.3225800000000003,
          "durationTicks": 400,
          "midi": 60,
          "name": "C4",
          "ticks": 13440,
          "time": 10.838688,
          "velocity": 0.31496062992125984
        },
        {
          "duration": 0.32257999999999853,
          "durationTicks": 400,
          "midi": 56,
          "name": "G#3",
          "ticks": 14400,
          "time": 11.61288,
          "velocity": 0.31496062992125984
        },
        {
          "duration": 0.9032240000000016,
          "durationTicks": 1120,
          "midi": 55,
          "name": "G3",
          "ticks": 15360,
          "time": 12.387072,
          "velocity": 0.31496062992125984
        },
        {
          "duration": 0.3225800000000003,
          "durationTicks": 400,
          "midi": 59,
          "name": "B3",
          "ticks": 17280,
          "time": 13.935456,
          "velocity": 0.31496062992125984
        },
        {
          "duration": 0.3225800000000021,
          "durationTicks": 400,
          "midi": 59,
          "name": "B3",
          "ticks": 18720,
          "time": 15.096744,
          "velocity": 0.31496062992125984
        },
        {
          "duration": 0.3225800000000003,
          "durationTicks": 400,
          "midi": 60,
          "name": "C4",
          "ticks": 19200,
          "time": 15.48384,
          "velocity": 0.31496062992125984
        },
        {
          "duration": 0.3225800000000021,
          "durationTicks": 400,
          "midi": 60,
          "name": "C4",
          "ticks": 19680,
          "time": 15.870936,
          "velocity": 0.31496062992125984
        },
        {
          "duration": 0.3225800000000021,
          "durationTicks": 400,
          "midi": 60,
          "name": "C4",
          "ticks": 20160,
          "time": 16.258032,
          "velocity": 0.31496062992125984
        },
        {
          "duration": 0.3225800000000021,
          "durationTicks": 400,
          "midi": 57,
          "name": "A3",
          "ticks": 21120,
          "time": 17.032224,
          "velocity": 0.31496062992125984
        },
        {
          "duration": 0.3225800000000021,
          "durationTicks": 400,
          "midi": 57,
          "name": "A3",
          "ticks": 22560,
          "time": 18.193512,
          "velocity": 0.31496062992125984
        },
        {
          "duration": 0.3225800000000021,
          "durationTicks": 400,
          "midi": 58,
          "name": "A#3",
          "ticks": 23040,
          "time": 18.580607999999998,
          "velocity": 0.31496062992125984
        },
        {
          "duration": 0.32257999999999853,
          "durationTicks": 400,
          "midi": 58,
          "name": "A#3",
          "ticks": 23520,
          "time": 18.967704,
          "velocity": 0.31496062992125984
        },
        {
          "duration": 0.32257999999999853,
          "durationTicks": 400,
          "midi": 58,
          "name": "A#3",
          "ticks": 24000,
          "time": 19.3548,
          "velocity": 0.31496062992125984
        },
        {
          "duration": 0.3225800000000021,
          "durationTicks": 400,
          "midi": 67,
          "name": "G4",
          "ticks": 24960,
          "time": 20.128992,
          "velocity": 0.31496062992125984
        },
        {
          "duration": 0.3225800000000021,
          "durationTicks": 400,
          "midi": 65,
          "name": "F4",
          "ticks": 25920,
          "time": 20.903184,
          "velocity": 0.31496062992125984
        },
        {
          "duration": 0.3225800000000021,
          "durationTicks": 400,
          "midi": 65,
          "name": "F4",
          "ticks": 26880,
          "time": 21.677376,
          "velocity": 0.31496062992125984
        },
        {
          "duration": 0.3225800000000021,
          "durationTicks": 400,
          "midi": 63,
          "name": "D#4",
          "ticks": 27840,
          "time": 22.451567999999998,
          "velocity": 0.31496062992125984
        },
        {
          "duration": 0.32257999999999853,
          "durationTicks": 400,
          "midi": 60,
          "name": "C4",
          "ticks": 28800,
          "time": 23.22576,
          "velocity": 0.31496062992125984
        },
        {
          "duration": 0.32257999999999853,
          "durationTicks": 400,
          "midi": 56,
          "name": "G#3",
          "ticks": 29760,
          "time": 23.999952,
          "velocity": 0.31496062992125984
        },
        {
          "duration": 0.903223999999998,
          "durationTicks": 1120,
          "midi": 55,
          "name": "G3",
          "ticks": 30720,
          "time": 24.774144,
          "velocity": 0.31496062992125984
        },
        {
          "duration": 0.1370964999999984,
          "durationTicks": 170,
          "midi": 58,
          "name": "A#3",
          "ticks": 140640,
          "time": 113.419128,
          "velocity": 0.31496062992125984
        },
        {
          "duration": 0.1370965000000126,
          "durationTicks": 170,
          "midi": 58,
          "name": "A#3",
          "ticks": 141600,
          "time": 114.19332,
          "velocity": 0.31496062992125984
        },
        {
          "duration": 0.1370965000000126,
          "durationTicks": 170,
          "midi": 58,
          "name": "A#3",
          "ticks": 142560,
          "time": 114.967512,
          "velocity": 0.31496062992125984
        },
        {
          "duration": 0.1370965000000126,
          "durationTicks": 170,
          "midi": 58,
          "name": "A#3",
          "ticks": 143520,
          "time": 115.741704,
          "velocity": 0.31496062992125984
        },
        {
          "duration": 0.12903199999999515,
          "durationTicks": 160,
          "midi": 58,
          "name": "A#3",
          "ticks": 144000,
          "time": 116.1288,
          "velocity": 0.31496062992125984
        },
        {
          "duration": 0.12903199999999515,
          "durationTicks": 160,
          "midi": 58,
          "name": "A#3",
          "ticks": 144480,
          "time": 116.515896,
          "velocity": 0.31496062992125984
        },
        {
          "duration": 0.12903199999999515,
          "durationTicks": 160,
          "midi": 58,
          "name": "A#3",
          "ticks": 144960,
          "time": 116.902992,
          "velocity": 0.31496062992125984
        },
        {
          "duration": 0.12903199999999515,
          "durationTicks": 160,
          "midi": 60,
          "name": "C4",
          "ticks": 145440,
          "time": 117.290088,
          "velocity": 0.31496062992125984
        },
        {
          "duration": 0.12903199999999515,
          "durationTicks": 160,
          "midi": 63,
          "name": "D#4",
          "ticks": 145920,
          "time": 117.677184,
          "velocity": 0.31496062992125984
        },
        {
          "duration": 0.12903199999999515,
          "durationTicks": 160,
          "midi": 62,
          "name": "D4",
          "ticks": 146880,
          "time": 118.451376,
          "velocity": 0.31496062992125984
        },
        {
          "duration": 0.12903199999999515,
          "durationTicks": 160,
          "midi": 67,
          "name": "G4",
          "ticks": 148320,
          "time": 119.612664,
          "velocity": 0.31496062992125984
        },
        {
          "duration": 0.12903199999999515,
          "durationTicks": 160,
          "midi": 65,
          "name": "F4",
          "ticks": 149280,
          "time": 120.386856,
          "velocity": 0.31496062992125984
        },
        {
          "duration": 0.12903199999999515,
          "durationTicks": 160,
          "midi": 65,
          "name": "F4",
          "ticks": 150240,
          "time": 121.161048,
          "velocity": 0.31496062992125984
        },
        {
          "duration": 0.12903199999999515,
          "durationTicks": 160,
          "midi": 63,
          "name": "D#4",
          "ticks": 151200,
          "time": 121.93524,
          "velocity": 0.31496062992125984
        },
        {
          "duration": 0.12903199999999515,
          "durationTicks": 160,
          "midi": 67,
          "name": "G4",
          "ticks": 163680,
          "time": 131.99973599999998,
          "velocity": 0.31496062992125984
        },
        {
          "duration": 0.12903199999996673,
          "durationTicks": 160,
          "midi": 65,
          "name": "F4",
          "ticks": 164640,
          "time": 132.773928,
          "velocity": 0.31496062992125984
        },
        {
          "duration": 0.12903199999996673,
          "durationTicks": 160,
          "midi": 65,
          "name": "F4",
          "ticks": 165600,
          "time": 133.54812,
          "velocity": 0.31496062992125984
        },
        {
          "duration": 0.12903199999996673,
          "durationTicks": 160,
          "midi": 63,
          "name": "D#4",
          "ticks": 166560,
          "time": 134.322312,
          "velocity": 0.31496062992125984
        },
        {
          "duration": 0.12903199999999515,
          "durationTicks": 160,
          "midi": 63,
          "name": "D#4",
          "ticks": 371040,
          "time": 299.225208,
          "velocity": 0.31496062992125984
        },
        {
          "duration": 0.129032000000052,
          "durationTicks": 160,
          "midi": 63,
          "name": "D#4",
          "ticks": 372000,
          "time": 299.9994,
          "velocity": 0.31496062992125984
        },
        {
          "duration": 0.12903199999999515,
          "durationTicks": 160,
          "midi": 65,
          "name": "F4",
          "ticks": 372960,
          "time": 300.773592,
          "velocity": 0.31496062992125984
        },
        {
          "duration": 0.129032000000052,
          "durationTicks": 160,
          "midi": 65,
          "name": "F4",
          "ticks": 373920,
          "time": 301.547784,
          "velocity": 0.31496062992125984
        },
        {
          "duration": 0.12903199999999515,
          "durationTicks": 160,
          "midi": 63,
          "name": "D#4",
          "ticks": 374880,
          "time": 302.321976,
          "velocity": 0.31496062992125984
        },
        {
          "duration": 0.129032000000052,
          "durationTicks": 160,
          "midi": 65,
          "name": "F4",
          "ticks": 375840,
          "time": 303.096168,
          "velocity": 0.31496062992125984
        },
        {
          "duration": 0.12903199999999515,
          "durationTicks": 160,
          "midi": 63,
          "name": "D#4",
          "ticks": 376320,
          "time": 303.483264,
          "velocity": 0.31496062992125984
        },
        {
          "duration": 0.12903199999999515,
          "durationTicks": 160,
          "midi": 63,
          "name": "D#4",
          "ticks": 376800,
          "time": 303.87036,
          "velocity": 0.31496062992125984
        },
        {
          "duration": 0.12903199999999515,
          "durationTicks": 160,
          "midi": 62,
          "name": "D4",
          "ticks": 377280,
          "time": 304.257456,
          "velocity": 0.31496062992125984
        },
        {
          "duration": 0.12903199999999515,
          "durationTicks": 160,
          "midi": 70,
          "name": "A#4",
          "ticks": 378720,
          "time": 305.418744,
          "velocity": 0.31496062992125984
        },
        {
          "duration": 0.129032000000052,
          "durationTicks": 160,
          "midi": 68,
          "name": "G#4",
          "ticks": 379680,
          "time": 306.192936,
          "velocity": 0.31496062992125984
        },
        {
          "duration": 0.12903199999999515,
          "durationTicks": 160,
          "midi": 68,
          "name": "G#4",
          "ticks": 380640,
          "time": 306.967128,
          "velocity": 0.31496062992125984
        },
        {
          "duration": 0.129032000000052,
          "durationTicks": 160,
          "midi": 67,
          "name": "G4",
          "ticks": 381600,
          "time": 307.74132,
          "velocity": 0.31496062992125984
        },
        {
          "duration": 0.12903199999999515,
          "durationTicks": 160,
          "midi": 65,
          "name": "F4",
          "ticks": 382560,
          "time": 308.515512,
          "velocity": 0.31496062992125984
        },
        {
          "duration": 0.129032000000052,
          "durationTicks": 160,
          "midi": 68,
          "name": "G#4",
          "ticks": 383520,
          "time": 309.289704,
          "velocity": 0.31496062992125984
        },
        {
          "duration": 0.6129020000000196,
          "durationTicks": 760,
          "midi": 67,
          "name": "G4",
          "ticks": 384000,
          "time": 309.6768,
          "velocity": 0.31496062992125984
        },
        {
          "duration": 0.12903199999999515,
          "durationTicks": 160,
          "midi": 62,
          "name": "D4",
          "ticks": 386400,
          "time": 311.61228,
          "velocity": 0.31496062992125984
        },
        {
          "duration": 0.129032000000052,
          "durationTicks": 160,
          "midi": 62,
          "name": "D4",
          "ticks": 387360,
          "time": 312.38647199999997,
          "velocity": 0.31496062992125984
        },
        {
          "duration": 0.12903199999999515,
          "durationTicks": 160,
          "midi": 63,
          "name": "D#4",
          "ticks": 388320,
          "time": 313.160664,
          "velocity": 0.31496062992125984
        },
        {
          "duration": 0.12903199999999515,
          "durationTicks": 160,
          "midi": 64,
          "name": "E4",
          "ticks": 389280,
          "time": 313.934856,
          "velocity": 0.31496062992125984
        },
        {
          "duration": 0.12903199999999515,
          "durationTicks": 160,
          "midi": 60,
          "name": "C4",
          "ticks": 390240,
          "time": 314.709048,
          "velocity": 0.31496062992125984
        },
        {
          "duration": 0.12903199999999515,
          "durationTicks": 160,
          "midi": 60,
          "name": "C4",
          "ticks": 391200,
          "time": 315.48324,
          "velocity": 0.31496062992125984
        },
        {
          "duration": 0.12903199999999515,
          "durationTicks": 160,
          "midi": 62,
          "name": "D4",
          "ticks": 392160,
          "time": 316.257432,
          "velocity": 0.31496062992125984
        },
        {
          "duration": 0.12903199999999515,
          "durationTicks": 160,
          "midi": 62,
          "name": "D4",
          "ticks": 393120,
          "time": 317.031624,
          "velocity": 0.31496062992125984
        },
        {
          "duration": 0.12903199999999515,
          "durationTicks": 160,
          "midi": 70,
          "name": "A#4",
          "ticks": 394080,
          "time": 317.805816,
          "velocity": 0.31496062992125984
        },
        {
          "duration": 0.12903199999999515,
          "durationTicks": 160,
          "midi": 68,
          "name": "G#4",
          "ticks": 395040,
          "time": 318.580008,
          "velocity": 0.31496062992125984
        },
        {
          "duration": 0.12903199999999515,
          "durationTicks": 160,
          "midi": 68,
          "name": "G#4",
          "ticks": 396000,
          "time": 319.3542,
          "velocity": 0.31496062992125984
        },
        {
          "duration": 0.12903199999999515,
          "durationTicks": 160,
          "midi": 67,
          "name": "G4",
          "ticks": 396960,
          "time": 320.128392,
          "velocity": 0.31496062992125984
        },
        {
          "duration": 0.12903199999999515,
          "durationTicks": 160,
          "midi": 65,
          "name": "F4",
          "ticks": 397920,
          "time": 320.902584,
          "velocity": 0.31496062992125984
        },
        {
          "duration": 0.12903199999999515,
          "durationTicks": 160,
          "midi": 68,
          "name": "G#4",
          "ticks": 398880,
          "time": 321.676776,
          "velocity": 0.31496062992125984
        },
        {
          "duration": 0.6129020000000196,
          "durationTicks": 760,
          "midi": 67,
          "name": "G4",
          "ticks": 399360,
          "time": 322.063872,
          "velocity": 0.31496062992125984
        },
        {
          "duration": 0.12903199999999515,
          "durationTicks": 160,
          "midi": 58,
          "name": "A#3",
          "ticks": 462720,
          "time": 373.160544,
          "velocity": 0.31496062992125984
        },
        {
          "duration": 0.12903199999999515,
          "durationTicks": 160,
          "midi": 58,
          "name": "A#3",
          "ticks": 464640,
          "time": 374.708928,
          "velocity": 0.31496062992125984
        },
        {
          "duration": 0.12903199999999515,
          "durationTicks": 160,
          "midi": 58,
          "name": "A#3",
          "ticks": 466560,
          "time": 376.257312,
          "velocity": 0.31496062992125984
        },
        {
          "duration": 0.129032000000052,
          "durationTicks": 160,
          "midi": 60,
          "name": "C4",
          "ticks": 468000,
          "time": 377.41859999999997,
          "velocity": 0.31496062992125984
        },
        {
          "duration": 0.12903199999999515,
          "durationTicks": 160,
          "midi": 62,
          "name": "D4",
          "ticks": 468480,
          "time": 377.805696,
          "velocity": 0.31496062992125984
        },
        {
          "duration": 0.12903199999999515,
          "durationTicks": 160,
          "midi": 67,
          "name": "G4",
          "ticks": 470880,
          "time": 379.741176,
          "velocity": 0.31496062992125984
        },
        {
          "duration": 0.12903199999999515,
          "durationTicks": 160,
          "midi": 65,
          "name": "F4",
          "ticks": 471840,
          "time": 380.515368,
          "velocity": 0.31496062992125984
        },
        {
          "duration": 0.12903199999999515,
          "durationTicks": 160,
          "midi": 65,
          "name": "F4",
          "ticks": 472800,
          "time": 381.28956,
          "velocity": 0.31496062992125984
        },
        {
          "duration": 0.12903199999999515,
          "durationTicks": 160,
          "midi": 63,
          "name": "D#4",
          "ticks": 473760,
          "time": 382.063752,
          "velocity": 0.31496062992125984
        },
        {
          "duration": 0.12903199999999515,
          "durationTicks": 160,
          "midi": 63,
          "name": "D#4",
          "ticks": 474720,
          "time": 382.837944,
          "velocity": 0.31496062992125984
        },
        {
          "duration": 0.12903199999999515,
          "durationTicks": 160,
          "midi": 62,
          "name": "D4",
          "ticks": 475680,
          "time": 383.612136,
          "velocity": 0.31496062992125984
        },
        {
          "duration": 0.12903199999999515,
          "durationTicks": 160,
          "midi": 63,
          "name": "D#4",
          "ticks": 476160,
          "time": 383.999232,
          "velocity": 0.31496062992125984
        },
        {
          "duration": 0.12903199999999515,
          "durationTicks": 160,
          "midi": 63,
          "name": "D#4",
          "ticks": 476640,
          "time": 384.386328,
          "velocity": 0.31496062992125984
        },
        {
          "duration": 0.129032000000052,
          "durationTicks": 160,
          "midi": 63,
          "name": "D#4",
          "ticks": 477120,
          "time": 384.773424,
          "velocity": 0.31496062992125984
        },
        {
          "duration": 0.12903199999999515,
          "durationTicks": 160,
          "midi": 59,
          "name": "B3",
          "ticks": 478080,
          "time": 385.547616,
          "velocity": 0.31496062992125984
        },
        {
          "duration": 0.12903199999999515,
          "durationTicks": 160,
          "midi": 62,
          "name": "D4",
          "ticks": 479520,
          "time": 386.708904,
          "velocity": 0.31496062992125984
        },
        {
          "duration": 0.12903199999999515,
          "durationTicks": 160,
          "midi": 63,
          "name": "D#4",
          "ticks": 480000,
          "time": 387.096,
          "velocity": 0.31496062992125984
        },
        {
          "duration": 0.12903199999999515,
          "durationTicks": 160,
          "midi": 57,
          "name": "A3",
          "ticks": 481920,
          "time": 388.644384,
          "velocity": 0.31496062992125984
        },
        {
          "duration": 0.12903199999999515,
          "durationTicks": 160,
          "midi": 60,
          "name": "C4",
          "ticks": 483360,
          "time": 389.805672,
          "velocity": 0.31496062992125984
        },
        {
          "duration": 0.12903199999999515,
          "durationTicks": 160,
          "midi": 58,
          "name": "A#3",
          "ticks": 483840,
          "time": 390.192768,
          "velocity": 0.31496062992125984
        }
      ]
    },
    {
      "channel": 7,
      "controlChanges": {},
      "pitchBends": [],
      "instrument": {
        "family": "ensemble",
        "number": 48,
        "name": "string ensemble 1"
      },
      "name": "",
      "notes": [
        {
          "duration": 0.1290319999999987,
          "durationTicks": 160,
          "midi": 62,
          "name": "D4",
          "ticks": 32640,
          "time": 26.322528,
          "velocity": 0.31496062992125984
        },
        {
          "duration": 0.1290319999999987,
          "durationTicks": 160,
          "midi": 58,
          "name": "A#3",
          "ticks": 32880,
          "time": 26.516075999999998,
          "velocity": 0.31496062992125984
        },
        {
          "duration": 0.1290319999999987,
          "durationTicks": 160,
          "midi": 62,
          "name": "D4",
          "ticks": 33120,
          "time": 26.709623999999998,
          "velocity": 0.31496062992125984
        },
        {
          "duration": 0.12903199999999515,
          "durationTicks": 160,
          "midi": 58,
          "name": "A#3",
          "ticks": 33360,
          "time": 26.903172,
          "velocity": 0.31496062992125984
        },
        {
          "duration": 0.12903199999999515,
          "durationTicks": 160,
          "midi": 64,
          "name": "E4",
          "ticks": 33600,
          "time": 27.09672,
          "velocity": 0.31496062992125984
        },
        {
          "duration": 0.12903199999999515,
          "durationTicks": 160,
          "midi": 58,
          "name": "A#3",
          "ticks": 33840,
          "time": 27.290268,
          "velocity": 0.31496062992125984
        },
        {
          "duration": 0.1290319999999987,
          "durationTicks": 160,
          "midi": 64,
          "name": "E4",
          "ticks": 34080,
          "time": 27.483816,
          "velocity": 0.31496062992125984
        },
        {
          "duration": 0.1290319999999987,
          "durationTicks": 160,
          "midi": 58,
          "name": "A#3",
          "ticks": 34320,
          "time": 27.677364,
          "velocity": 0.31496062992125984
        },
        {
          "duration": 0.1290319999999987,
          "durationTicks": 160,
          "midi": 65,
          "name": "F4",
          "ticks": 34560,
          "time": 27.870912,
          "velocity": 0.31496062992125984
        },
        {
          "duration": 0.1290319999999987,
          "durationTicks": 160,
          "midi": 58,
          "name": "A#3",
          "ticks": 34800,
          "time": 28.06446,
          "velocity": 0.31496062992125984
        },
        {
          "duration": 0.1290319999999987,
          "durationTicks": 160,
          "midi": 65,
          "name": "F4",
          "ticks": 35040,
          "time": 28.258008,
          "velocity": 0.31496062992125984
        },
        {
          "duration": 0.1290319999999987,
          "durationTicks": 160,
          "midi": 58,
          "name": "A#3",
          "ticks": 35280,
          "time": 28.451556,
          "velocity": 0.31496062992125984
        },
        {
          "duration": 0.1290319999999987,
          "durationTicks": 160,
          "midi": 62,
          "name": "D4",
          "ticks": 35520,
          "time": 28.645104,
          "velocity": 0.31496062992125984
        },
        {
          "duration": 0.1290319999999987,
          "durationTicks": 160,
          "midi": 62,
          "name": "D4",
          "ticks": 36480,
          "time": 29.419296,
          "velocity": 0.31496062992125984
        },
        {
          "duration": 0.1290319999999987,
          "durationTicks": 160,
          "midi": 58,
          "name": "A#3",
          "ticks": 36720,
          "time": 29.612844,
          "velocity": 0.31496062992125984
        },
        {
          "duration": 0.1290319999999987,
          "durationTicks": 160,
          "midi": 62,
          "name": "D4",
          "ticks": 36960,
          "time": 29.806392,
          "velocity": 0.31496062992125984
        },
        {
          "duration": 0.1290319999999987,
          "durationTicks": 160,
          "midi": 58,
          "name": "A#3",
          "ticks": 37200,
          "time": 29.99994,
          "velocity": 0.31496062992125984
        },
        {
          "duration": 0.1290319999999987,
          "durationTicks": 160,
          "midi": 64,
          "name": "E4",
          "ticks": 37440,
          "time": 30.193488,
          "velocity": 0.31496062992125984
        },
        {
          "duration": 0.1290319999999987,
          "durationTicks": 160,
          "midi": 58,
          "name": "A#3",
          "ticks": 37680,
          "time": 30.387036,
          "velocity": 0.31496062992125984
        },
        {
          "duration": 0.1290319999999987,
          "durationTicks": 160,
          "midi": 64,
          "name": "E4",
          "ticks": 37920,
          "time": 30.580583999999998,
          "velocity": 0.31496062992125984
        },
        {
          "duration": 0.1290319999999987,
          "durationTicks": 160,
          "midi": 58,
          "name": "A#3",
          "ticks": 38160,
          "time": 30.774131999999998,
          "velocity": 0.31496062992125984
        },
        {
          "duration": 0.12903199999999515,
          "durationTicks": 160,
          "midi": 65,
          "name": "F4",
          "ticks": 38400,
          "time": 30.96768,
          "velocity": 0.31496062992125984
        },
        {
          "duration": 0.12903199999999515,
          "durationTicks": 160,
          "midi": 58,
          "name": "A#3",
          "ticks": 38640,
          "time": 31.161228,
          "velocity": 0.31496062992125984
        },
        {
          "duration": 0.12903199999999515,
          "durationTicks": 160,
          "midi": 65,
          "name": "F4",
          "ticks": 38880,
          "time": 31.354776,
          "velocity": 0.31496062992125984
        },
        {
          "duration": 0.12903199999999515,
          "durationTicks": 160,
          "midi": 58,
          "name": "A#3",
          "ticks": 39120,
          "time": 31.548324,
          "velocity": 0.31496062992125984
        },
        {
          "duration": 0.1290319999999987,
          "durationTicks": 160,
          "midi": 62,
          "name": "D4",
          "ticks": 39360,
          "time": 31.741872,
          "velocity": 0.31496062992125984
        },
        {
          "duration": 0.38709599999999966,
          "durationTicks": 480,
          "midi": 67,
          "name": "G4",
          "ticks": 40800,
          "time": 32.90316,
          "velocity": 0.5511811023622047
        },
        {
          "duration": 0.38709599999999966,
          "durationTicks": 480,
          "midi": 65,
          "name": "F4",
          "ticks": 41280,
          "time": 33.290256,
          "velocity": 0.5511811023622047
        },
        {
          "duration": 0.38709599999999966,
          "durationTicks": 480,
          "midi": 68,
          "name": "G#4",
          "ticks": 41760,
          "time": 33.677352,
          "velocity": 0.5511811023622047
        },
        {
          "duration": 0.38709599999999966,
          "durationTicks": 480,
          "midi": 67,
          "name": "G4",
          "ticks": 42240,
          "time": 34.064448,
          "velocity": 0.5511811023622047
        },
        {
          "duration": 0.38709599999999966,
          "durationTicks": 480,
          "midi": 75,
          "name": "D#5",
          "ticks": 42720,
          "time": 34.451544,
          "velocity": 0.5511811023622047
        },
        {
          "duration": 0.38709599999999966,
          "durationTicks": 480,
          "midi": 74,
          "name": "D5",
          "ticks": 43200,
          "time": 34.83864,
          "velocity": 0.5511811023622047
        },
        {
          "duration": 0.38709599999999966,
          "durationTicks": 480,
          "midi": 77,
          "name": "F5",
          "ticks": 43680,
          "time": 35.225736,
          "velocity": 0.5511811023622047
        },
        {
          "duration": 0.1370965000000055,
          "durationTicks": 170,
          "midi": 75,
          "name": "D#5",
          "ticks": 44160,
          "time": 35.612832,
          "velocity": 0.5511811023622047
        },
        {
          "duration": 0.19354799999999983,
          "durationTicks": 240,
          "midi": 68,
          "name": "G#4",
          "ticks": 44400,
          "time": 35.80638,
          "velocity": 0.7086614173228346
        },
        {
          "duration": 0.19354799999999983,
          "durationTicks": 240,
          "midi": 67,
          "name": "G4",
          "ticks": 44640,
          "time": 35.999928,
          "velocity": 0.7086614173228346
        },
        {
          "duration": 0.19354799999999983,
          "durationTicks": 240,
          "midi": 65,
          "name": "F4",
          "ticks": 44880,
          "time": 36.193476,
          "velocity": 0.7086614173228346
        },
        {
          "duration": 0.12903200000000226,
          "durationTicks": 160,
          "midi": 63,
          "name": "D#4",
          "ticks": 45120,
          "time": 36.387024,
          "velocity": 0.7086614173228346
        },
        {
          "duration": 0.12903200000000226,
          "durationTicks": 160,
          "midi": 62,
          "name": "D4",
          "ticks": 45600,
          "time": 36.774119999999996,
          "velocity": 0.31496062992125984
        },
        {
          "duration": 0.12903200000000226,
          "durationTicks": 160,
          "midi": 63,
          "name": "D#4",
          "ticks": 46080,
          "time": 37.161215999999996,
          "velocity": 0.7086614173228346
        },
        {
          "duration": 0.12903199999999515,
          "durationTicks": 160,
          "midi": 58,
          "name": "A#3",
          "ticks": 48000,
          "time": 38.7096,
          "velocity": 0.3543307086614173
        },
        {
          "duration": 0.12903199999999515,
          "durationTicks": 160,
          "midi": 58,
          "name": "A#3",
          "ticks": 49440,
          "time": 39.870888,
          "velocity": 0.3543307086614173
        },
        {
          "duration": 0.12903199999999515,
          "durationTicks": 160,
          "midi": 58,
          "name": "A#3",
          "ticks": 49920,
          "time": 40.257984,
          "velocity": 0.3543307086614173
        },
        {
          "duration": 0.12903199999999515,
          "durationTicks": 160,
          "midi": 58,
          "name": "A#3",
          "ticks": 51360,
          "time": 41.419272,
          "velocity": 0.3543307086614173
        },
        {
          "duration": 0.12903199999999515,
          "durationTicks": 160,
          "midi": 58,
          "name": "A#3",
          "ticks": 51840,
          "time": 41.806368,
          "velocity": 0.3543307086614173
        },
        {
          "duration": 0.12903200000000226,
          "durationTicks": 160,
          "midi": 58,
          "name": "A#3",
          "ticks": 52320,
          "time": 42.193464,
          "velocity": 0.3543307086614173
        },
        {
          "duration": 0.12903200000000226,
          "durationTicks": 160,
          "midi": 60,
          "name": "C4",
          "ticks": 52800,
          "time": 42.58056,
          "velocity": 0.3543307086614173
        },
        {
          "duration": 0.12903200000000226,
          "durationTicks": 160,
          "midi": 60,
          "name": "C4",
          "ticks": 53280,
          "time": 42.967656,
          "velocity": 0.3543307086614173
        },
        {
          "duration": 0.7741919999999993,
          "durationTicks": 960,
          "midi": 63,
          "name": "D#4",
          "ticks": 53760,
          "time": 43.354752,
          "velocity": 0.3543307086614173
        },
        {
          "duration": 0.12903200000000226,
          "durationTicks": 160,
          "midi": 62,
          "name": "D4",
          "ticks": 54720,
          "time": 44.128944,
          "velocity": 0.3543307086614173
        },
        {
          "duration": 0.7741920000000064,
          "durationTicks": 960,
          "midi": 67,
          "name": "G4",
          "ticks": 55680,
          "time": 44.903135999999996,
          "velocity": 0.3543307086614173
        },
        {
          "duration": 0.6209665000000015,
          "durationTicks": 770,
          "midi": 68,
          "name": "G#4",
          "ticks": 56640,
          "time": 45.677328,
          "velocity": 0.3543307086614173
        },
        {
          "duration": 1.0080625000000012,
          "durationTicks": 1250,
          "midi": 65,
          "name": "F4",
          "ticks": 57600,
          "time": 46.45152,
          "velocity": 0.3543307086614173
        },
        {
          "duration": 0.12903199999999515,
          "durationTicks": 160,
          "midi": 58,
          "name": "A#3",
          "ticks": 59040,
          "time": 47.612808,
          "velocity": 0.3543307086614173
        },
        {
          "duration": 0.12903199999999515,
          "durationTicks": 160,
          "midi": 60,
          "name": "C4",
          "ticks": 59520,
          "time": 47.999904,
          "velocity": 0.3543307086614173
        },
        {
          "duration": 0.12903199999999515,
          "durationTicks": 160,
          "midi": 60,
          "name": "C4",
          "ticks": 60000,
          "time": 48.387,
          "velocity": 0.3543307086614173
        },
        {
          "duration": 0.12903199999999515,
          "durationTicks": 160,
          "midi": 56,
          "name": "G#3",
          "ticks": 60480,
          "time": 48.774096,
          "velocity": 0.3543307086614173
        },
        {
          "duration": 0.12903199999999515,
          "durationTicks": 160,
          "midi": 56,
          "name": "G#3",
          "ticks": 60960,
          "time": 49.161192,
          "velocity": 0.3543307086614173
        },
        {
          "duration": 0.7741919999999993,
          "durationTicks": 960,
          "midi": 56,
          "name": "G#3",
          "ticks": 61440,
          "time": 49.548288,
          "velocity": 0.3543307086614173
        },
        {
          "duration": 0.7741919999999993,
          "durationTicks": 960,
          "midi": 62,
          "name": "D4",
          "ticks": 61440,
          "time": 49.548288,
          "velocity": 0.3543307086614173
        },
        {
          "duration": 0.12903200000000226,
          "durationTicks": 160,
          "midi": 55,
          "name": "G3",
          "ticks": 62400,
          "time": 50.32248,
          "velocity": 0.3543307086614173
        },
        {
          "duration": 0.12903200000000226,
          "durationTicks": 160,
          "midi": 63,
          "name": "D#4",
          "ticks": 62400,
          "time": 50.32248,
          "velocity": 0.3543307086614173
        },
        {
          "duration": 0.12903200000000226,
          "durationTicks": 160,
          "midi": 62,
          "name": "D4",
          "ticks": 63360,
          "time": 51.096672,
          "velocity": 0.3543307086614173
        },
        {
          "duration": 0.12903200000000936,
          "durationTicks": 160,
          "midi": 62,
          "name": "D4",
          "ticks": 64800,
          "time": 52.25796,
          "velocity": 0.3543307086614173
        },
        {
          "duration": 0.12903200000000936,
          "durationTicks": 160,
          "midi": 63,
          "name": "D#4",
          "ticks": 65280,
          "time": 52.645056,
          "velocity": 0.3543307086614173
        },
        {
          "duration": 0.12903200000000936,
          "durationTicks": 160,
          "midi": 65,
          "name": "F4",
          "ticks": 65760,
          "time": 53.032151999999996,
          "velocity": 0.3543307086614173
        },
        {
          "duration": 0.12903200000000936,
          "durationTicks": 160,
          "midi": 67,
          "name": "G4",
          "ticks": 66240,
          "time": 53.419247999999996,
          "velocity": 0.3543307086614173
        },
        {
          "duration": 0.12903200000000226,
          "durationTicks": 160,
          "midi": 60,
          "name": "C4",
          "ticks": 67200,
          "time": 54.19344,
          "velocity": 0.3543307086614173
        },
        {
          "duration": 0.12903200000000226,
          "durationTicks": 160,
          "midi": 60,
          "name": "C4",
          "ticks": 68640,
          "time": 55.354728,
          "velocity": 0.3543307086614173
        },
        {
          "duration": 0.12903200000000226,
          "durationTicks": 160,
          "midi": 62,
          "name": "D4",
          "ticks": 69120,
          "time": 55.741824,
          "velocity": 0.3543307086614173
        },
        {
          "duration": 0.12903200000000226,
          "durationTicks": 160,
          "midi": 63,
          "name": "D#4",
          "ticks": 69600,
          "time": 56.12892,
          "velocity": 0.3543307086614173
        },
        {
          "duration": 0.12903200000000226,
          "durationTicks": 160,
          "midi": 65,
          "name": "F4",
          "ticks": 70080,
          "time": 56.516016,
          "velocity": 0.3543307086614173
        },
        {
          "duration": 0.7741919999999993,
          "durationTicks": 960,
          "midi": 67,
          "name": "G4",
          "ticks": 71040,
          "time": 57.290208,
          "velocity": 0.3543307086614173
        },
        {
          "duration": 0.6209664999999944,
          "durationTicks": 770,
          "midi": 68,
          "name": "G#4",
          "ticks": 72000,
          "time": 58.0644,
          "velocity": 0.3543307086614173
        },
        {
          "duration": 1.008062499999994,
          "durationTicks": 1250,
          "midi": 65,
          "name": "F4",
          "ticks": 72960,
          "time": 58.838592,
          "velocity": 0.3543307086614173
        },
        {
          "duration": 0.12903200000000226,
          "durationTicks": 160,
          "midi": 58,
          "name": "A#3",
          "ticks": 74400,
          "time": 59.99988,
          "velocity": 0.3543307086614173
        },
        {
          "duration": 0.12903200000000936,
          "durationTicks": 160,
          "midi": 60,
          "name": "C4",
          "ticks": 74880,
          "time": 60.386976,
          "velocity": 0.3543307086614173
        },
        {
          "duration": 0.12903200000000936,
          "durationTicks": 160,
          "midi": 60,
          "name": "C4",
          "ticks": 75360,
          "time": 60.774072,
          "velocity": 0.3543307086614173
        },
        {
          "duration": 0.12903200000000936,
          "durationTicks": 160,
          "midi": 56,
          "name": "G#3",
          "ticks": 75840,
          "time": 61.161167999999996,
          "velocity": 0.3543307086614173
        },
        {
          "duration": 0.12903200000000936,
          "durationTicks": 160,
          "midi": 56,
          "name": "G#3",
          "ticks": 76320,
          "time": 61.548263999999996,
          "velocity": 0.3543307086614173
        },
        {
          "duration": 0.7741919999999993,
          "durationTicks": 960,
          "midi": 56,
          "name": "G#3",
          "ticks": 76800,
          "time": 61.93536,
          "velocity": 0.3543307086614173
        },
        {
          "duration": 0.7741919999999993,
          "durationTicks": 960,
          "midi": 62,
          "name": "D4",
          "ticks": 76800,
          "time": 61.93536,
          "velocity": 0.3543307086614173
        },
        {
          "duration": 0.12903200000000226,
          "durationTicks": 160,
          "midi": 55,
          "name": "G3",
          "ticks": 77760,
          "time": 62.709552,
          "velocity": 0.3543307086614173
        },
        {
          "duration": 0.12903200000000226,
          "durationTicks": 160,
          "midi": 63,
          "name": "D#4",
          "ticks": 77760,
          "time": 62.709552,
          "velocity": 0.3543307086614173
        },
        {
          "duration": 0.12903200000000226,
          "durationTicks": 160,
          "midi": 62,
          "name": "D4",
          "ticks": 78720,
          "time": 63.483744,
          "velocity": 0.31496062992125984
        },
        {
          "duration": 0.12903200000000226,
          "durationTicks": 160,
          "midi": 58,
          "name": "A#3",
          "ticks": 78960,
          "time": 63.677292,
          "velocity": 0.31496062992125984
        },
        {
          "duration": 0.12903200000000226,
          "durationTicks": 160,
          "midi": 62,
          "name": "D4",
          "ticks": 79200,
          "time": 63.87084,
          "velocity": 0.31496062992125984
        },
        {
          "duration": 0.12903200000000936,
          "durationTicks": 160,
          "midi": 58,
          "name": "A#3",
          "ticks": 79440,
          "time": 64.064388,
          "velocity": 0.31496062992125984
        },
        {
          "duration": 0.12903199999999515,
          "durationTicks": 160,
          "midi": 64,
          "name": "E4",
          "ticks": 79680,
          "time": 64.257936,
          "velocity": 0.31496062992125984
        },
        {
          "duration": 0.12903200000000936,
          "durationTicks": 160,
          "midi": 58,
          "name": "A#3",
          "ticks": 79920,
          "time": 64.451484,
          "velocity": 0.31496062992125984
        },
        {
          "duration": 0.12903200000000936,
          "durationTicks": 160,
          "midi": 64,
          "name": "E4",
          "ticks": 80160,
          "time": 64.645032,
          "velocity": 0.31496062992125984
        },
        {
          "duration": 0.12903200000000936,
          "durationTicks": 160,
          "midi": 58,
          "name": "A#3",
          "ticks": 80400,
          "time": 64.83858,
          "velocity": 0.31496062992125984
        },
        {
          "duration": 0.12903200000000936,
          "durationTicks": 160,
          "midi": 65,
          "name": "F4",
          "ticks": 80640,
          "time": 65.032128,
          "velocity": 0.31496062992125984
        },
        {
          "duration": 0.12903200000000936,
          "durationTicks": 160,
          "midi": 58,
          "name": "A#3",
          "ticks": 80880,
          "time": 65.22567599999999,
          "velocity": 0.31496062992125984
        },
        {
          "duration": 0.12903200000000936,
          "durationTicks": 160,
          "midi": 65,
          "name": "F4",
          "ticks": 81120,
          "time": 65.419224,
          "velocity": 0.31496062992125984
        },
        {
          "duration": 0.12903200000000936,
          "durationTicks": 160,
          "midi": 58,
          "name": "A#3",
          "ticks": 81360,
          "time": 65.61277199999999,
          "velocity": 0.31496062992125984
        },
        {
          "duration": 0.12903200000000936,
          "durationTicks": 160,
          "midi": 62,
          "name": "D4",
          "ticks": 81600,
          "time": 65.80632,
          "velocity": 0.31496062992125984
        },
        {
          "duration": 0.12903200000000936,
          "durationTicks": 160,
          "midi": 62,
          "name": "D4",
          "ticks": 81840,
          "time": 65.99986799999999,
          "velocity": 0.31496062992125984
        },
        {
          "duration": 0.12903200000000936,
          "durationTicks": 160,
          "midi": 58,
          "name": "A#3",
          "ticks": 82080,
          "time": 66.193416,
          "velocity": 0.31496062992125984
        },
        {
          "duration": 0.12903199999999515,
          "durationTicks": 160,
          "midi": 60,
          "name": "C4",
          "ticks": 82320,
          "time": 66.386964,
          "velocity": 0.31496062992125984
        },
        {
          "duration": 0.12903200000000936,
          "durationTicks": 160,
          "midi": 62,
          "name": "D4",
          "ticks": 82560,
          "time": 66.580512,
          "velocity": 0.31496062992125984
        },
        {
          "duration": 0.12903199999999515,
          "durationTicks": 160,
          "midi": 58,
          "name": "A#3",
          "ticks": 82800,
          "time": 66.77406,
          "velocity": 0.31496062992125984
        },
        {
          "duration": 0.12903200000000936,
          "durationTicks": 160,
          "midi": 62,
          "name": "D4",
          "ticks": 83040,
          "time": 66.967608,
          "velocity": 0.31496062992125984
        },
        {
          "duration": 0.12903199999999515,
          "durationTicks": 160,
          "midi": 58,
          "name": "A#3",
          "ticks": 83280,
          "time": 67.161156,
          "velocity": 0.31496062992125984
        },
        {
          "duration": 0.12903200000000936,
          "durationTicks": 160,
          "midi": 64,
          "name": "E4",
          "ticks": 83520,
          "time": 67.354704,
          "velocity": 0.31496062992125984
        },
        {
          "duration": 0.12903199999999515,
          "durationTicks": 160,
          "midi": 58,
          "name": "A#3",
          "ticks": 83760,
          "time": 67.548252,
          "velocity": 0.31496062992125984
        },
        {
          "duration": 0.12903200000000936,
          "durationTicks": 160,
          "midi": 64,
          "name": "E4",
          "ticks": 84000,
          "time": 67.7418,
          "velocity": 0.31496062992125984
        },
        {
          "duration": 0.12903199999999515,
          "durationTicks": 160,
          "midi": 58,
          "name": "A#3",
          "ticks": 84240,
          "time": 67.935348,
          "velocity": 0.31496062992125984
        },
        {
          "duration": 0.12903200000000936,
          "durationTicks": 160,
          "midi": 65,
          "name": "F4",
          "ticks": 84480,
          "time": 68.128896,
          "velocity": 0.31496062992125984
        },
        {
          "duration": 0.12903199999999515,
          "durationTicks": 160,
          "midi": 58,
          "name": "A#3",
          "ticks": 84720,
          "time": 68.322444,
          "velocity": 0.31496062992125984
        },
        {
          "duration": 0.12903200000000936,
          "durationTicks": 160,
          "midi": 65,
          "name": "F4",
          "ticks": 84960,
          "time": 68.515992,
          "velocity": 0.31496062992125984
        },
        {
          "duration": 0.12903199999999515,
          "durationTicks": 160,
          "midi": 58,
          "name": "A#3",
          "ticks": 85200,
          "time": 68.70954,
          "velocity": 0.31496062992125984
        },
        {
          "duration": 0.12903200000000936,
          "durationTicks": 160,
          "midi": 62,
          "name": "D4",
          "ticks": 85440,
          "time": 68.903088,
          "velocity": 0.31496062992125984
        },
        {
          "duration": 0.12903199999999515,
          "durationTicks": 160,
          "midi": 58,
          "name": "A#3",
          "ticks": 85680,
          "time": 69.096636,
          "velocity": 0.5511811023622047
        },
        {
          "duration": 0.12903200000000936,
          "durationTicks": 160,
          "midi": 63,
          "name": "D#4",
          "ticks": 85920,
          "time": 69.290184,
          "velocity": 0.5511811023622047
        },
        {
          "duration": 0.12903199999999515,
          "durationTicks": 160,
          "midi": 67,
          "name": "G4",
          "ticks": 86160,
          "time": 69.483732,
          "velocity": 0.5511811023622047
        },
        {
          "duration": 0.12903200000000936,
          "durationTicks": 160,
          "midi": 70,
          "name": "A#4",
          "ticks": 86400,
          "time": 69.67728,
          "velocity": 0.5511811023622047
        },
        {
          "duration": 0.12903199999999515,
          "durationTicks": 160,
          "midi": 70,
          "name": "A#4",
          "ticks": 86640,
          "time": 69.870828,
          "velocity": 0.5511811023622047
        },
        {
          "duration": 0.12903200000000936,
          "durationTicks": 160,
          "midi": 70,
          "name": "A#4",
          "ticks": 86880,
          "time": 70.064376,
          "velocity": 0.5511811023622047
        },
        {
          "duration": 0.12903199999999515,
          "durationTicks": 160,
          "midi": 70,
          "name": "A#4",
          "ticks": 87120,
          "time": 70.257924,
          "velocity": 0.5511811023622047
        },
        {
          "duration": 0.12903200000000936,
          "durationTicks": 160,
          "midi": 70,
          "name": "A#4",
          "ticks": 87360,
          "time": 70.451472,
          "velocity": 0.5511811023622047
        },
        {
          "duration": 0.12903199999999515,
          "durationTicks": 160,
          "midi": 70,
          "name": "A#4",
          "ticks": 87600,
          "time": 70.64502,
          "velocity": 0.5511811023622047
        },
        {
          "duration": 0.12903200000000936,
          "durationTicks": 160,
          "midi": 70,
          "name": "A#4",
          "ticks": 87840,
          "time": 70.838568,
          "velocity": 0.5511811023622047
        },
        {
          "duration": 0.12903199999999515,
          "durationTicks": 160,
          "midi": 70,
          "name": "A#4",
          "ticks": 88080,
          "time": 71.032116,
          "velocity": 0.5511811023622047
        },
        {
          "duration": 0.12903200000000936,
          "durationTicks": 160,
          "midi": 70,
          "name": "A#4",
          "ticks": 88320,
          "time": 71.225664,
          "velocity": 0.5511811023622047
        },
        {
          "duration": 0.12903199999999515,
          "durationTicks": 160,
          "midi": 70,
          "name": "A#4",
          "ticks": 88560,
          "time": 71.419212,
          "velocity": 0.5511811023622047
        },
        {
          "duration": 0.12903200000000936,
          "durationTicks": 160,
          "midi": 70,
          "name": "A#4",
          "ticks": 88800,
          "time": 71.61276,
          "velocity": 0.5511811023622047
        },
        {
          "duration": 0.12903199999999515,
          "durationTicks": 160,
          "midi": 70,
          "name": "A#4",
          "ticks": 89040,
          "time": 71.806308,
          "velocity": 0.5511811023622047
        },
        {
          "duration": 0.12903200000000936,
          "durationTicks": 160,
          "midi": 70,
          "name": "A#4",
          "ticks": 89280,
          "time": 71.999856,
          "velocity": 0.5511811023622047
        },
        {
          "duration": 0.12903199999999515,
          "durationTicks": 160,
          "midi": 70,
          "name": "A#4",
          "ticks": 89520,
          "time": 72.193404,
          "velocity": 0.5511811023622047
        },
        {
          "duration": 0.12903200000000936,
          "durationTicks": 160,
          "midi": 70,
          "name": "A#4",
          "ticks": 89760,
          "time": 72.386952,
          "velocity": 0.5511811023622047
        },
        {
          "duration": 0.12903199999999515,
          "durationTicks": 160,
          "midi": 70,
          "name": "A#4",
          "ticks": 90000,
          "time": 72.5805,
          "velocity": 0.5511811023622047
        },
        {
          "duration": 0.1370964999999984,
          "durationTicks": 170,
          "midi": 70,
          "name": "A#4",
          "ticks": 90240,
          "time": 72.774048,
          "velocity": 0.5511811023622047
        },
        {
          "duration": 0.19354799999999273,
          "durationTicks": 240,
          "midi": 68,
          "name": "G#4",
          "ticks": 90480,
          "time": 72.967596,
          "velocity": 0.7086614173228346
        },
        {
          "duration": 0.19354800000000694,
          "durationTicks": 240,
          "midi": 67,
          "name": "G4",
          "ticks": 90720,
          "time": 73.161144,
          "velocity": 0.7086614173228346
        },
        {
          "duration": 0.19354799999999273,
          "durationTicks": 240,
          "midi": 65,
          "name": "F4",
          "ticks": 90960,
          "time": 73.354692,
          "velocity": 0.7086614173228346
        },
        {
          "duration": 0.12903200000000936,
          "durationTicks": 160,
          "midi": 63,
          "name": "D#4",
          "ticks": 91200,
          "time": 73.54823999999999,
          "velocity": 0.7086614173228346
        },
        {
          "duration": 0.12903200000000936,
          "durationTicks": 160,
          "midi": 62,
          "name": "D4",
          "ticks": 91680,
          "time": 73.93533599999999,
          "velocity": 0.31496062992125984
        },
        {
          "duration": 0.12903200000000936,
          "durationTicks": 160,
          "midi": 63,
          "name": "D#4",
          "ticks": 92160,
          "time": 74.32243199999999,
          "velocity": 0.7086614173228346
        },
        {
          "duration": 0.12903199999999515,
          "durationTicks": 160,
          "midi": 58,
          "name": "A#3",
          "ticks": 92640,
          "time": 74.709528,
          "velocity": 0.7086614173228346
        },
        {
          "duration": 0.12903199999999515,
          "durationTicks": 160,
          "midi": 63,
          "name": "D#4",
          "ticks": 92640,
          "time": 74.709528,
          "velocity": 0.7086614173228346
        },
        {
          "duration": 0.12903199999999515,
          "durationTicks": 160,
          "midi": 58,
          "name": "A#3",
          "ticks": 93120,
          "time": 75.096624,
          "velocity": 0.7086614173228346
        },
        {
          "duration": 0.12903199999999515,
          "durationTicks": 160,
          "midi": 63,
          "name": "D#4",
          "ticks": 93120,
          "time": 75.096624,
          "velocity": 0.7086614173228346
        },
        {
          "duration": 0.12903199999999515,
          "durationTicks": 160,
          "midi": 63,
          "name": "D#4",
          "ticks": 94080,
          "time": 75.870816,
          "velocity": 0.31496062992125984
        },
        {
          "duration": 0.12903199999999515,
          "durationTicks": 160,
          "midi": 63,
          "name": "D#4",
          "ticks": 94560,
          "time": 76.257912,
          "velocity": 0.31496062992125984
        },
        {
          "duration": 0.12903199999999515,
          "durationTicks": 160,
          "midi": 63,
          "name": "D#4",
          "ticks": 95040,
          "time": 76.645008,
          "velocity": 0.31496062992125984
        },
        {
          "duration": 0.12903199999999515,
          "durationTicks": 160,
          "midi": 63,
          "name": "D#4",
          "ticks": 95520,
          "time": 77.032104,
          "velocity": 0.31496062992125984
        },
        {
          "duration": 0.12903199999999515,
          "durationTicks": 160,
          "midi": 65,
          "name": "F4",
          "ticks": 96000,
          "time": 77.4192,
          "velocity": 0.31496062992125984
        },
        {
          "duration": 0.12903199999999515,
          "durationTicks": 160,
          "midi": 65,
          "name": "F4",
          "ticks": 96480,
          "time": 77.806296,
          "velocity": 0.31496062992125984
        },
        {
          "duration": 0.12903199999999515,
          "durationTicks": 160,
          "midi": 65,
          "name": "F4",
          "ticks": 96960,
          "time": 78.193392,
          "velocity": 0.31496062992125984
        },
        {
          "duration": 0.12903199999999515,
          "durationTicks": 160,
          "midi": 65,
          "name": "F4",
          "ticks": 97440,
          "time": 78.580488,
          "velocity": 0.31496062992125984
        },
        {
          "duration": 0.12903199999999515,
          "durationTicks": 160,
          "midi": 63,
          "name": "D#4",
          "ticks": 97920,
          "time": 78.967584,
          "velocity": 0.31496062992125984
        },
        {
          "duration": 0.12903199999999515,
          "durationTicks": 160,
          "midi": 63,
          "name": "D#4",
          "ticks": 98400,
          "time": 79.35468,
          "velocity": 0.31496062992125984
        },
        {
          "duration": 0.12903199999999515,
          "durationTicks": 160,
          "midi": 65,
          "name": "F4",
          "ticks": 98880,
          "time": 79.741776,
          "velocity": 0.31496062992125984
        },
        {
          "duration": 0.12903199999999515,
          "durationTicks": 160,
          "midi": 65,
          "name": "F4",
          "ticks": 99360,
          "time": 80.128872,
          "velocity": 0.31496062992125984
        },
        {
          "duration": 0.12903199999999515,
          "durationTicks": 160,
          "midi": 65,
          "name": "F4",
          "ticks": 99840,
          "time": 80.515968,
          "velocity": 0.31496062992125984
        },
        {
          "duration": 0.12903199999999515,
          "durationTicks": 160,
          "midi": 65,
          "name": "F4",
          "ticks": 100320,
          "time": 80.903064,
          "velocity": 0.31496062992125984
        },
        {
          "duration": 0.12903200000000936,
          "durationTicks": 160,
          "midi": 65,
          "name": "F4",
          "ticks": 100800,
          "time": 81.29016,
          "velocity": 0.31496062992125984
        },
        {
          "duration": 0.6129020000000054,
          "durationTicks": 760,
          "midi": 60,
          "name": "C4",
          "ticks": 105600,
          "time": 85.16112,
          "velocity": 0.31496062992125984
        },
        {
          "duration": 0.12903200000000936,
          "durationTicks": 160,
          "midi": 65,
          "name": "F4",
          "ticks": 107040,
          "time": 86.322408,
          "velocity": 0.31496062992125984
        },
        {
          "duration": 0.7741919999999993,
          "durationTicks": 960,
          "midi": 62,
          "name": "D4",
          "ticks": 107520,
          "time": 86.709504,
          "velocity": 0.31496062992125984
        },
        {
          "duration": 0.12903200000000936,
          "durationTicks": 160,
          "midi": 63,
          "name": "D#4",
          "ticks": 108480,
          "time": 87.483696,
          "velocity": 0.31496062992125984
        },
        {
          "duration": 0.6129020000000054,
          "durationTicks": 760,
          "midi": 62,
          "name": "D4",
          "ticks": 109440,
          "time": 88.257888,
          "velocity": 0.31496062992125984
        },
        {
          "duration": 0.38709599999999966,
          "durationTicks": 480,
          "midi": 67,
          "name": "G4",
          "ticks": 110880,
          "time": 89.419176,
          "velocity": 0.31496062992125984
        },
        {
          "duration": 0.6129020000000054,
          "durationTicks": 760,
          "midi": 63,
          "name": "D#4",
          "ticks": 111360,
          "time": 89.80627199999999,
          "velocity": 0.31496062992125984
        },
        {
          "duration": 0.6129019999999912,
          "durationTicks": 760,
          "midi": 60,
          "name": "C4",
          "ticks": 113280,
          "time": 91.354656,
          "velocity": 0.31496062992125984
        },
        {
          "duration": 0.38709599999999966,
          "durationTicks": 480,
          "midi": 63,
          "name": "D#4",
          "ticks": 114720,
          "time": 92.515944,
          "velocity": 0.31496062992125984
        },
        {
          "duration": 0.6129020000000054,
          "durationTicks": 760,
          "midi": 62,
          "name": "D4",
          "ticks": 115200,
          "time": 92.90304,
          "velocity": 0.31496062992125984
        },
        {
          "duration": 0.6129020000000054,
          "durationTicks": 760,
          "midi": 60,
          "name": "C4",
          "ticks": 120960,
          "time": 97.548192,
          "velocity": 0.31496062992125984
        },
        {
          "duration": 0.12903200000000936,
          "durationTicks": 160,
          "midi": 65,
          "name": "F4",
          "ticks": 122400,
          "time": 98.70948,
          "velocity": 0.31496062992125984
        },
        {
          "duration": 0.7741919999999993,
          "durationTicks": 960,
          "midi": 62,
          "name": "D4",
          "ticks": 122880,
          "time": 99.096576,
          "velocity": 0.31496062992125984
        },
        {
          "duration": 0.12903199999999515,
          "durationTicks": 160,
          "midi": 63,
          "name": "D#4",
          "ticks": 123840,
          "time": 99.870768,
          "velocity": 0.31496062992125984
        },
        {
          "duration": 0.19354800000000694,
          "durationTicks": 240,
          "midi": 58,
          "name": "A#3",
          "ticks": 124320,
          "time": 100.257864,
          "velocity": 0.3543307086614173
        },
        {
          "duration": 0.19354799999999273,
          "durationTicks": 240,
          "midi": 60,
          "name": "C4",
          "ticks": 124560,
          "time": 100.451412,
          "velocity": 0.31496062992125984
        },
        {
          "duration": 0.12903199999999515,
          "durationTicks": 160,
          "midi": 62,
          "name": "D4",
          "ticks": 124800,
          "time": 100.64496,
          "velocity": 0.31496062992125984
        },
        {
          "duration": 0.12903199999999515,
          "durationTicks": 160,
          "midi": 62,
          "name": "D4",
          "ticks": 125280,
          "time": 101.032056,
          "velocity": 0.31496062992125984
        },
        {
          "duration": 0.12903199999999515,
          "durationTicks": 160,
          "midi": 64,
          "name": "E4",
          "ticks": 125760,
          "time": 101.419152,
          "velocity": 0.31496062992125984
        },
        {
          "duration": 0.12903199999999515,
          "durationTicks": 160,
          "midi": 64,
          "name": "E4",
          "ticks": 126240,
          "time": 101.806248,
          "velocity": 0.31496062992125984
        },
        {
          "duration": 0.19354800000000694,
          "durationTicks": 240,
          "midi": 65,
          "name": "F4",
          "ticks": 126720,
          "time": 102.193344,
          "velocity": 0.31496062992125984
        },
        {
          "duration": 0.19354799999999273,
          "durationTicks": 240,
          "midi": 67,
          "name": "G4",
          "ticks": 126960,
          "time": 102.386892,
          "velocity": 0.31496062992125984
        },
        {
          "duration": 0.19354800000000694,
          "durationTicks": 240,
          "midi": 63,
          "name": "D#4",
          "ticks": 127200,
          "time": 102.58044,
          "velocity": 0.31496062992125984
        },
        {
          "duration": 0.12903199999999515,
          "durationTicks": 160,
          "midi": 65,
          "name": "F4",
          "ticks": 127440,
          "time": 102.773988,
          "velocity": 0.31496062992125984
        },
        {
          "duration": 0.12903199999999515,
          "durationTicks": 160,
          "midi": 62,
          "name": "D4",
          "ticks": 127680,
          "time": 102.967536,
          "velocity": 0.31496062992125984
        },
        {
          "duration": 0.19354800000000694,
          "durationTicks": 240,
          "midi": 58,
          "name": "A#3",
          "ticks": 128160,
          "time": 103.354632,
          "velocity": 0.31496062992125984
        },
        {
          "duration": 0.19354799999999273,
          "durationTicks": 240,
          "midi": 60,
          "name": "C4",
          "ticks": 128400,
          "time": 103.54818,
          "velocity": 0.31496062992125984
        },
        {
          "duration": 0.12903199999999515,
          "durationTicks": 160,
          "midi": 62,
          "name": "D4",
          "ticks": 128640,
          "time": 103.741728,
          "velocity": 0.31496062992125984
        },
        {
          "duration": 0.12903199999999515,
          "durationTicks": 160,
          "midi": 62,
          "name": "D4",
          "ticks": 129120,
          "time": 104.128824,
          "velocity": 0.31496062992125984
        },
        {
          "duration": 0.12903199999999515,
          "durationTicks": 160,
          "midi": 64,
          "name": "E4",
          "ticks": 129600,
          "time": 104.51592,
          "velocity": 0.31496062992125984
        },
        {
          "duration": 0.12903199999999515,
          "durationTicks": 160,
          "midi": 64,
          "name": "E4",
          "ticks": 130080,
          "time": 104.903016,
          "velocity": 0.31496062992125984
        },
        {
          "duration": 0.19354800000000694,
          "durationTicks": 240,
          "midi": 65,
          "name": "F4",
          "ticks": 130560,
          "time": 105.290112,
          "velocity": 0.31496062992125984
        },
        {
          "duration": 0.19354799999999273,
          "durationTicks": 240,
          "midi": 67,
          "name": "G4",
          "ticks": 130800,
          "time": 105.48366,
          "velocity": 0.31496062992125984
        },
        {
          "duration": 0.19354800000000694,
          "durationTicks": 240,
          "midi": 63,
          "name": "D#4",
          "ticks": 131040,
          "time": 105.677208,
          "velocity": 0.31496062992125984
        },
        {
          "duration": 0.12903199999999515,
          "durationTicks": 160,
          "midi": 65,
          "name": "F4",
          "ticks": 131280,
          "time": 105.870756,
          "velocity": 0.31496062992125984
        },
        {
          "duration": 0.12903199999999515,
          "durationTicks": 160,
          "midi": 62,
          "name": "D4",
          "ticks": 131520,
          "time": 106.06430399999999,
          "velocity": 0.31496062992125984
        },
        {
          "duration": 0.38709599999999966,
          "durationTicks": 480,
          "midi": 70,
          "name": "A#4",
          "ticks": 135840,
          "time": 109.548168,
          "velocity": 0.5511811023622047
        },
        {
          "duration": 0.1370964999999984,
          "durationTicks": 170,
          "midi": 70,
          "name": "A#4",
          "ticks": 136320,
          "time": 109.935264,
          "velocity": 0.5511811023622047
        },
        {
          "duration": 0.19354800000000694,
          "durationTicks": 240,
          "midi": 68,
          "name": "G#4",
          "ticks": 136560,
          "time": 110.128812,
          "velocity": 0.7086614173228346
        },
        {
          "duration": 0.19354799999999273,
          "durationTicks": 240,
          "midi": 67,
          "name": "G4",
          "ticks": 136800,
          "time": 110.32236,
          "velocity": 0.7086614173228346
        },
        {
          "duration": 0.19354800000000694,
          "durationTicks": 240,
          "midi": 65,
          "name": "F4",
          "ticks": 137040,
          "time": 110.515908,
          "velocity": 0.7086614173228346
        },
        {
          "duration": 0.19354799999999273,
          "durationTicks": 240,
          "midi": 63,
          "name": "D#4",
          "ticks": 137280,
          "time": 110.709456,
          "velocity": 0.7086614173228346
        },
        {
          "duration": 0.19354800000000694,
          "durationTicks": 240,
          "midi": 58,
          "name": "A#3",
          "ticks": 137520,
          "time": 110.903004,
          "velocity": 0.7086614173228346
        },
        {
          "duration": 0.19354799999999273,
          "durationTicks": 240,
          "midi": 62,
          "name": "D4",
          "ticks": 137760,
          "time": 111.096552,
          "velocity": 0.7086614173228346
        },
        {
          "duration": 0.19354800000000694,
          "durationTicks": 240,
          "midi": 56,
          "name": "G#3",
          "ticks": 138000,
          "time": 111.2901,
          "velocity": 0.7086614173228346
        },
        {
          "duration": 0.12903199999999515,
          "durationTicks": 160,
          "midi": 55,
          "name": "G3",
          "ticks": 138240,
          "time": 111.483648,
          "velocity": 0.7086614173228346
        },
        {
          "duration": 0.12903199999999515,
          "durationTicks": 160,
          "midi": 55,
          "name": "G3",
          "ticks": 138720,
          "time": 111.870744,
          "velocity": 0.7086614173228346
        },
        {
          "duration": 0.12903199999999515,
          "durationTicks": 160,
          "midi": 63,
          "name": "D#4",
          "ticks": 138720,
          "time": 111.870744,
          "velocity": 0.7086614173228346
        },
        {
          "duration": 0.12903199999999515,
          "durationTicks": 160,
          "midi": 55,
          "name": "G3",
          "ticks": 139200,
          "time": 112.25784,
          "velocity": 0.7086614173228346
        },
        {
          "duration": 0.12903199999999515,
          "durationTicks": 160,
          "midi": 63,
          "name": "D#4",
          "ticks": 139200,
          "time": 112.25784,
          "velocity": 0.7086614173228346
        },
        {
          "duration": 0.38709599999999966,
          "durationTicks": 480,
          "midi": 65,
          "name": "F4",
          "ticks": 152160,
          "time": 122.70943199999999,
          "velocity": 0.31496062992125984
        },
        {
          "duration": 0.38709599999999966,
          "durationTicks": 480,
          "midi": 63,
          "name": "D#4",
          "ticks": 152640,
          "time": 123.09652799999999,
          "velocity": 0.31496062992125984
        },
        {
          "duration": 0.22580600000000572,
          "durationTicks": 280,
          "midi": 62,
          "name": "D4",
          "ticks": 153120,
          "time": 123.48362399999999,
          "velocity": 0.31496062992125984
        },
        {
          "duration": 0.7709661999999895,
          "durationTicks": 956,
          "midi": 65,
          "name": "F4",
          "ticks": 153600,
          "time": 123.87072,
          "velocity": 0.31496062992125984
        },
        {
          "duration": 0.12903199999998094,
          "durationTicks": 160,
          "midi": 63,
          "name": "D#4",
          "ticks": 154560,
          "time": 124.644912,
          "velocity": 0.31496062992125984
        },
        {
          "duration": 1.5483839999999987,
          "durationTicks": 1920,
          "midi": 59,
          "name": "B3",
          "ticks": 155520,
          "time": 125.419104,
          "velocity": 0.31496062992125984
        },
        {
          "duration": 0.6129019999999912,
          "durationTicks": 760,
          "midi": 60,
          "name": "C4",
          "ticks": 157440,
          "time": 126.967488,
          "velocity": 0.31496062992125984
        },
        {
          "duration": 1.5483839999999987,
          "durationTicks": 1920,
          "midi": 57,
          "name": "A3",
          "ticks": 159360,
          "time": 128.515872,
          "velocity": 0.31496062992125984
        },
        {
          "duration": 0.6129019999999912,
          "durationTicks": 760,
          "midi": 58,
          "name": "A#3",
          "ticks": 161280,
          "time": 130.064256,
          "velocity": 0.31496062992125984
        },
        {
          "duration": 0.38709599999998545,
          "durationTicks": 480,
          "midi": 65,
          "name": "F4",
          "ticks": 167520,
          "time": 135.096504,
          "velocity": 0.31496062992125984
        },
        {
          "duration": 0.3870960000000139,
          "durationTicks": 480,
          "midi": 63,
          "name": "D#4",
          "ticks": 168000,
          "time": 135.4836,
          "velocity": 0.31496062992125984
        },
        {
          "duration": 0.2258059999999773,
          "durationTicks": 280,
          "midi": 62,
          "name": "D4",
          "ticks": 168480,
          "time": 135.870696,
          "velocity": 0.31496062992125984
        },
        {
          "duration": 0.7741919999999993,
          "durationTicks": 960,
          "midi": 65,
          "name": "F4",
          "ticks": 168960,
          "time": 136.257792,
          "velocity": 0.31496062992125984
        },
        {
          "duration": 0.12903199999999515,
          "durationTicks": 160,
          "midi": 63,
          "name": "D#4",
          "ticks": 169920,
          "time": 137.031984,
          "velocity": 0.31496062992125984
        },
        {
          "duration": 0.19354799999999273,
          "durationTicks": 240,
          "midi": 58,
          "name": "A#3",
          "ticks": 170400,
          "time": 137.41908,
          "velocity": 0.31496062992125984
        },
        {
          "duration": 0.19354799999999273,
          "durationTicks": 240,
          "midi": 60,
          "name": "C4",
          "ticks": 170640,
          "time": 137.612628,
          "velocity": 0.31496062992125984
        },
        {
          "duration": 0.12903199999999515,
          "durationTicks": 160,
          "midi": 62,
          "name": "D4",
          "ticks": 170880,
          "time": 137.806176,
          "velocity": 0.31496062992125984
        },
        {
          "duration": 0.12903199999999515,
          "durationTicks": 160,
          "midi": 58,
          "name": "A#3",
          "ticks": 171120,
          "time": 137.999724,
          "velocity": 0.31496062992125984
        },
        {
          "duration": 0.12903199999999515,
          "durationTicks": 160,
          "midi": 62,
          "name": "D4",
          "ticks": 171360,
          "time": 138.193272,
          "velocity": 0.31496062992125984
        },
        {
          "duration": 0.12903199999999515,
          "durationTicks": 160,
          "midi": 58,
          "name": "A#3",
          "ticks": 171600,
          "time": 138.38682,
          "velocity": 0.31496062992125984
        },
        {
          "duration": 0.12903199999999515,
          "durationTicks": 160,
          "midi": 64,
          "name": "E4",
          "ticks": 171840,
          "time": 138.580368,
          "velocity": 0.31496062992125984
        },
        {
          "duration": 0.12903199999999515,
          "durationTicks": 160,
          "midi": 58,
          "name": "A#3",
          "ticks": 172080,
          "time": 138.77391599999999,
          "velocity": 0.31496062992125984
        },
        {
          "duration": 0.12903199999999515,
          "durationTicks": 160,
          "midi": 64,
          "name": "E4",
          "ticks": 172320,
          "time": 138.967464,
          "velocity": 0.31496062992125984
        },
        {
          "duration": 0.12903199999999515,
          "durationTicks": 160,
          "midi": 58,
          "name": "A#3",
          "ticks": 172560,
          "time": 139.161012,
          "velocity": 0.31496062992125984
        },
        {
          "duration": 0.19354799999999273,
          "durationTicks": 240,
          "midi": 65,
          "name": "F4",
          "ticks": 172800,
          "time": 139.35456,
          "velocity": 0.31496062992125984
        },
        {
          "duration": 0.19354800000002115,
          "durationTicks": 240,
          "midi": 64,
          "name": "E4",
          "ticks": 173040,
          "time": 139.54810799999998,
          "velocity": 0.31496062992125984
        },
        {
          "duration": 0.19354799999999273,
          "durationTicks": 240,
          "midi": 65,
          "name": "F4",
          "ticks": 173280,
          "time": 139.741656,
          "velocity": 0.31496062992125984
        },
        {
          "duration": 0.19354799999999273,
          "durationTicks": 240,
          "midi": 63,
          "name": "D#4",
          "ticks": 173520,
          "time": 139.935204,
          "velocity": 0.31496062992125984
        },
        {
          "duration": 0.19354799999999273,
          "durationTicks": 240,
          "midi": 62,
          "name": "D4",
          "ticks": 173760,
          "time": 140.128752,
          "velocity": 0.31496062992125984
        },
        {
          "duration": 0.19354800000002115,
          "durationTicks": 240,
          "midi": 60,
          "name": "C4",
          "ticks": 174000,
          "time": 140.32229999999998,
          "velocity": 0.31496062992125984
        },
        {
          "duration": 0.19354799999999273,
          "durationTicks": 240,
          "midi": 58,
          "name": "A#3",
          "ticks": 174240,
          "time": 140.515848,
          "velocity": 0.31496062992125984
        },
        {
          "duration": 0.19354799999999273,
          "durationTicks": 240,
          "midi": 60,
          "name": "C4",
          "ticks": 174480,
          "time": 140.709396,
          "velocity": 0.31496062992125984
        },
        {
          "duration": 0.12903199999999515,
          "durationTicks": 160,
          "midi": 62,
          "name": "D4",
          "ticks": 174720,
          "time": 140.902944,
          "velocity": 0.31496062992125984
        },
        {
          "duration": 0.12903199999996673,
          "durationTicks": 160,
          "midi": 58,
          "name": "A#3",
          "ticks": 174960,
          "time": 141.096492,
          "velocity": 0.31496062992125984
        },
        {
          "duration": 0.12903199999999515,
          "durationTicks": 160,
          "midi": 62,
          "name": "D4",
          "ticks": 175200,
          "time": 141.29004,
          "velocity": 0.31496062992125984
        },
        {
          "duration": 0.12903199999999515,
          "durationTicks": 160,
          "midi": 58,
          "name": "A#3",
          "ticks": 175440,
          "time": 141.483588,
          "velocity": 0.31496062992125984
        },
        {
          "duration": 0.12903199999999515,
          "durationTicks": 160,
          "midi": 64,
          "name": "E4",
          "ticks": 175680,
          "time": 141.677136,
          "velocity": 0.31496062992125984
        },
        {
          "duration": 0.12903199999996673,
          "durationTicks": 160,
          "midi": 58,
          "name": "A#3",
          "ticks": 175920,
          "time": 141.870684,
          "velocity": 0.31496062992125984
        },
        {
          "duration": 0.12903199999999515,
          "durationTicks": 160,
          "midi": 64,
          "name": "E4",
          "ticks": 176160,
          "time": 142.064232,
          "velocity": 0.31496062992125984
        },
        {
          "duration": 0.12903199999999515,
          "durationTicks": 160,
          "midi": 58,
          "name": "A#3",
          "ticks": 176400,
          "time": 142.25778,
          "velocity": 0.31496062992125984
        },
        {
          "duration": 0.19354800000002115,
          "durationTicks": 240,
          "midi": 65,
          "name": "F4",
          "ticks": 176640,
          "time": 142.451328,
          "velocity": 0.31496062992125984
        },
        {
          "duration": 0.19354799999999273,
          "durationTicks": 240,
          "midi": 64,
          "name": "E4",
          "ticks": 176880,
          "time": 142.644876,
          "velocity": 0.31496062992125984
        },
        {
          "duration": 0.19354799999999273,
          "durationTicks": 240,
          "midi": 65,
          "name": "F4",
          "ticks": 177120,
          "time": 142.838424,
          "velocity": 0.31496062992125984
        },
        {
          "duration": 0.19354799999999273,
          "durationTicks": 240,
          "midi": 63,
          "name": "D#4",
          "ticks": 177360,
          "time": 143.031972,
          "velocity": 0.31496062992125984
        },
        {
          "duration": 0.19354800000002115,
          "durationTicks": 240,
          "midi": 62,
          "name": "D4",
          "ticks": 177600,
          "time": 143.22552,
          "velocity": 0.31496062992125984
        },
        {
          "duration": 0.38709599999998545,
          "durationTicks": 480,
          "midi": 70,
          "name": "A#4",
          "ticks": 181920,
          "time": 146.709384,
          "velocity": 0.5511811023622047
        },
        {
          "duration": 0.1370965000000126,
          "durationTicks": 170,
          "midi": 70,
          "name": "A#4",
          "ticks": 182400,
          "time": 147.09647999999999,
          "velocity": 0.5511811023622047
        },
        {
          "duration": 0.19354799999999273,
          "durationTicks": 240,
          "midi": 68,
          "name": "G#4",
          "ticks": 182640,
          "time": 147.290028,
          "velocity": 0.7086614173228346
        },
        {
          "duration": 0.19354799999999273,
          "durationTicks": 240,
          "midi": 67,
          "name": "G4",
          "ticks": 182880,
          "time": 147.483576,
          "velocity": 0.7086614173228346
        },
        {
          "duration": 0.19354799999999273,
          "durationTicks": 240,
          "midi": 65,
          "name": "F4",
          "ticks": 183120,
          "time": 147.677124,
          "velocity": 0.7086614173228346
        },
        {
          "duration": 0.19354800000002115,
          "durationTicks": 240,
          "midi": 63,
          "name": "D#4",
          "ticks": 183360,
          "time": 147.87067199999998,
          "velocity": 0.7086614173228346
        },
        {
          "duration": 0.19354799999999273,
          "durationTicks": 240,
          "midi": 58,
          "name": "A#3",
          "ticks": 183600,
          "time": 148.06422,
          "velocity": 0.7086614173228346
        },
        {
          "duration": 0.19354799999999273,
          "durationTicks": 240,
          "midi": 62,
          "name": "D4",
          "ticks": 183840,
          "time": 148.257768,
          "velocity": 0.7086614173228346
        },
        {
          "duration": 0.19354799999999273,
          "durationTicks": 240,
          "midi": 56,
          "name": "G#3",
          "ticks": 184080,
          "time": 148.451316,
          "velocity": 0.7086614173228346
        },
        {
          "duration": 0.12903199999999515,
          "durationTicks": 160,
          "midi": 63,
          "name": "D#4",
          "ticks": 184320,
          "time": 148.64486399999998,
          "velocity": 0.7086614173228346
        },
        {
          "duration": 0.12903199999999515,
          "durationTicks": 160,
          "midi": 55,
          "name": "G3",
          "ticks": 184800,
          "time": 149.03196,
          "velocity": 0.7086614173228346
        },
        {
          "duration": 0.12903199999999515,
          "durationTicks": 160,
          "midi": 63,
          "name": "D#4",
          "ticks": 184800,
          "time": 149.03196,
          "velocity": 0.7086614173228346
        },
        {
          "duration": 0.12903199999996673,
          "durationTicks": 160,
          "midi": 55,
          "name": "G3",
          "ticks": 185280,
          "time": 149.419056,
          "velocity": 0.7086614173228346
        },
        {
          "duration": 0.12903199999996673,
          "durationTicks": 160,
          "midi": 63,
          "name": "D#4",
          "ticks": 185280,
          "time": 149.419056,
          "velocity": 0.7086614173228346
        },
        {
          "duration": 0.1370965000000126,
          "durationTicks": 170,
          "midi": 63,
          "name": "D#4",
          "ticks": 186480,
          "time": 150.386796,
          "velocity": 0.31496062992125984
        },
        {
          "duration": 0.1370965000000126,
          "durationTicks": 170,
          "midi": 63,
          "name": "D#4",
          "ticks": 186720,
          "time": 150.580344,
          "velocity": 0.31496062992125984
        },
        {
          "duration": 0.1370965000000126,
          "durationTicks": 170,
          "midi": 63,
          "name": "D#4",
          "ticks": 186960,
          "time": 150.773892,
          "velocity": 0.31496062992125984
        },
        {
          "duration": 0.1370964999999842,
          "durationTicks": 170,
          "midi": 63,
          "name": "D#4",
          "ticks": 187200,
          "time": 150.96744,
          "velocity": 0.31496062992125984
        },
        {
          "duration": 0.1370965000000126,
          "durationTicks": 170,
          "midi": 63,
          "name": "D#4",
          "ticks": 187440,
          "time": 151.160988,
          "velocity": 0.31496062992125984
        },
        {
          "duration": 0.1370965000000126,
          "durationTicks": 170,
          "midi": 63,
          "name": "D#4",
          "ticks": 187680,
          "time": 151.354536,
          "velocity": 0.31496062992125984
        },
        {
          "duration": 0.1370965000000126,
          "durationTicks": 170,
          "midi": 63,
          "name": "D#4",
          "ticks": 187920,
          "time": 151.548084,
          "velocity": 0.31496062992125984
        },
        {
          "duration": 0.1370965000000126,
          "durationTicks": 170,
          "midi": 65,
          "name": "F4",
          "ticks": 188400,
          "time": 151.93518,
          "velocity": 0.31496062992125984
        },
        {
          "duration": 0.1370965000000126,
          "durationTicks": 170,
          "midi": 65,
          "name": "F4",
          "ticks": 188640,
          "time": 152.128728,
          "velocity": 0.31496062992125984
        },
        {
          "duration": 0.1370965000000126,
          "durationTicks": 170,
          "midi": 65,
          "name": "F4",
          "ticks": 188880,
          "time": 152.322276,
          "velocity": 0.31496062992125984
        },
        {
          "duration": 0.1370964999999842,
          "durationTicks": 170,
          "midi": 65,
          "name": "F4",
          "ticks": 189120,
          "time": 152.515824,
          "velocity": 0.31496062992125984
        },
        {
          "duration": 0.1370965000000126,
          "durationTicks": 170,
          "midi": 65,
          "name": "F4",
          "ticks": 189360,
          "time": 152.709372,
          "velocity": 0.31496062992125984
        },
        {
          "duration": 0.1370965000000126,
          "durationTicks": 170,
          "midi": 65,
          "name": "F4",
          "ticks": 189600,
          "time": 152.90292,
          "velocity": 0.31496062992125984
        },
        {
          "duration": 0.1370965000000126,
          "durationTicks": 170,
          "midi": 65,
          "name": "F4",
          "ticks": 189840,
          "time": 153.096468,
          "velocity": 0.31496062992125984
        },
        {
          "duration": 0.1370965000000126,
          "durationTicks": 170,
          "midi": 63,
          "name": "D#4",
          "ticks": 190320,
          "time": 153.483564,
          "velocity": 0.31496062992125984
        },
        {
          "duration": 0.1370965000000126,
          "durationTicks": 170,
          "midi": 63,
          "name": "D#4",
          "ticks": 190560,
          "time": 153.677112,
          "velocity": 0.31496062992125984
        },
        {
          "duration": 0.1370965000000126,
          "durationTicks": 170,
          "midi": 63,
          "name": "D#4",
          "ticks": 190800,
          "time": 153.87066,
          "velocity": 0.31496062992125984
        },
        {
          "duration": 0.1370965000000126,
          "durationTicks": 170,
          "midi": 65,
          "name": "F4",
          "ticks": 191280,
          "time": 154.257756,
          "velocity": 0.31496062992125984
        },
        {
          "duration": 0.1370965000000126,
          "durationTicks": 170,
          "midi": 65,
          "name": "F4",
          "ticks": 191520,
          "time": 154.451304,
          "velocity": 0.31496062992125984
        },
        {
          "duration": 0.1370965000000126,
          "durationTicks": 170,
          "midi": 65,
          "name": "F4",
          "ticks": 191760,
          "time": 154.644852,
          "velocity": 0.31496062992125984
        },
        {
          "duration": 0.1370965000000126,
          "durationTicks": 170,
          "midi": 63,
          "name": "D#4",
          "ticks": 192240,
          "time": 155.031948,
          "velocity": 0.31496062992125984
        },
        {
          "duration": 0.1370965000000126,
          "durationTicks": 170,
          "midi": 63,
          "name": "D#4",
          "ticks": 192480,
          "time": 155.225496,
          "velocity": 0.31496062992125984
        },
        {
          "duration": 0.1370965000000126,
          "durationTicks": 170,
          "midi": 63,
          "name": "D#4",
          "ticks": 192720,
          "time": 155.41904399999999,
          "velocity": 0.31496062992125984
        },
        {
          "duration": 0.1370965000000126,
          "durationTicks": 170,
          "midi": 62,
          "name": "D4",
          "ticks": 192960,
          "time": 155.612592,
          "velocity": 0.31496062992125984
        },
        {
          "duration": 0.3870960000000139,
          "durationTicks": 480,
          "midi": 65,
          "name": "F4",
          "ticks": 197280,
          "time": 159.096456,
          "velocity": 0.31496062992125984
        },
        {
          "duration": 0.12903199999999515,
          "durationTicks": 160,
          "midi": 67,
          "name": "G4",
          "ticks": 197760,
          "time": 159.483552,
          "velocity": 0.31496062992125984
        },
        {
          "duration": 0.1370965000000126,
          "durationTicks": 170,
          "midi": 62,
          "name": "D4",
          "ticks": 198720,
          "time": 160.257744,
          "velocity": 0.31496062992125984
        },
        {
          "duration": 0.1370965000000126,
          "durationTicks": 170,
          "midi": 62,
          "name": "D4",
          "ticks": 199200,
          "time": 160.64484,
          "velocity": 0.31496062992125984
        },
        {
          "duration": 0.1370965000000126,
          "durationTicks": 170,
          "midi": 63,
          "name": "D#4",
          "ticks": 199680,
          "time": 161.031936,
          "velocity": 0.31496062992125984
        },
        {
          "duration": 0.12903199999999515,
          "durationTicks": 160,
          "midi": 67,
          "name": "G4",
          "ticks": 200160,
          "time": 161.419032,
          "velocity": 0.31496062992125984
        },
        {
          "duration": 0.060483750000003056,
          "durationTicks": 75,
          "midi": 65,
          "name": "F4",
          "ticks": 200520,
          "time": 161.709354,
          "velocity": 0.31496062992125984
        },
        {
          "duration": 0.12903199999999515,
          "durationTicks": 160,
          "midi": 63,
          "name": "D#4",
          "ticks": 200640,
          "time": 161.806128,
          "velocity": 0.31496062992125984
        },
        {
          "duration": 0.12903199999999515,
          "durationTicks": 160,
          "midi": 65,
          "name": "F4",
          "ticks": 201840,
          "time": 162.773868,
          "velocity": 0.31496062992125984
        },
        {
          "duration": 0.12903199999999515,
          "durationTicks": 160,
          "midi": 65,
          "name": "F4",
          "ticks": 202080,
          "time": 162.967416,
          "velocity": 0.31496062992125984
        },
        {
          "duration": 0.12903199999999515,
          "durationTicks": 160,
          "midi": 65,
          "name": "F4",
          "ticks": 202320,
          "time": 163.160964,
          "velocity": 0.31496062992125984
        },
        {
          "duration": 0.12903199999999515,
          "durationTicks": 160,
          "midi": 65,
          "name": "F4",
          "ticks": 202560,
          "time": 163.354512,
          "velocity": 0.31496062992125984
        },
        {
          "duration": 0.12903199999999515,
          "durationTicks": 160,
          "midi": 63,
          "name": "D#4",
          "ticks": 203760,
          "time": 164.322252,
          "velocity": 0.31496062992125984
        },
        {
          "duration": 0.12903199999999515,
          "durationTicks": 160,
          "midi": 63,
          "name": "D#4",
          "ticks": 204000,
          "time": 164.51579999999998,
          "velocity": 0.31496062992125984
        },
        {
          "duration": 0.12903199999999515,
          "durationTicks": 160,
          "midi": 63,
          "name": "D#4",
          "ticks": 204240,
          "time": 164.709348,
          "velocity": 0.31496062992125984
        },
        {
          "duration": 0.12903199999999515,
          "durationTicks": 160,
          "midi": 63,
          "name": "D#4",
          "ticks": 204480,
          "time": 164.902896,
          "velocity": 0.31496062992125984
        },
        {
          "duration": 0.12903199999999515,
          "durationTicks": 160,
          "midi": 63,
          "name": "D#4",
          "ticks": 205680,
          "time": 165.870636,
          "velocity": 0.31496062992125984
        },
        {
          "duration": 0.12903199999996673,
          "durationTicks": 160,
          "midi": 63,
          "name": "D#4",
          "ticks": 205920,
          "time": 166.064184,
          "velocity": 0.31496062992125984
        },
        {
          "duration": 0.12903199999999515,
          "durationTicks": 160,
          "midi": 63,
          "name": "D#4",
          "ticks": 206160,
          "time": 166.257732,
          "velocity": 0.31496062992125984
        },
        {
          "duration": 0.12903199999999515,
          "durationTicks": 160,
          "midi": 63,
          "name": "D#4",
          "ticks": 206400,
          "time": 166.45128,
          "velocity": 0.31496062992125984
        },
        {
          "duration": 0.12903199999999515,
          "durationTicks": 160,
          "midi": 62,
          "name": "D4",
          "ticks": 207600,
          "time": 167.41902,
          "velocity": 0.31496062992125984
        },
        {
          "duration": 0.12903199999996673,
          "durationTicks": 160,
          "midi": 62,
          "name": "D4",
          "ticks": 207840,
          "time": 167.612568,
          "velocity": 0.31496062992125984
        },
        {
          "duration": 0.12903199999999515,
          "durationTicks": 160,
          "midi": 62,
          "name": "D4",
          "ticks": 208080,
          "time": 167.806116,
          "velocity": 0.31496062992125984
        },
        {
          "duration": 0.12903199999999515,
          "durationTicks": 160,
          "midi": 62,
          "name": "D4",
          "ticks": 208320,
          "time": 167.999664,
          "velocity": 0.31496062992125984
        },
        {
          "duration": 0.38709599999998545,
          "durationTicks": 480,
          "midi": 65,
          "name": "F4",
          "ticks": 212640,
          "time": 171.483528,
          "velocity": 0.31496062992125984
        },
        {
          "duration": 0.12903199999999515,
          "durationTicks": 160,
          "midi": 67,
          "name": "G4",
          "ticks": 213120,
          "time": 171.870624,
          "velocity": 0.31496062992125984
        },
        {
          "duration": 0.1370965000000126,
          "durationTicks": 170,
          "midi": 62,
          "name": "D4",
          "ticks": 214080,
          "time": 172.644816,
          "velocity": 0.31496062992125984
        },
        {
          "duration": 0.1370965000000126,
          "durationTicks": 170,
          "midi": 62,
          "name": "D4",
          "ticks": 214560,
          "time": 173.031912,
          "velocity": 0.31496062992125984
        },
        {
          "duration": 0.1370965000000126,
          "durationTicks": 170,
          "midi": 63,
          "name": "D#4",
          "ticks": 215040,
          "time": 173.419008,
          "velocity": 0.31496062992125984
        },
        {
          "duration": 0.12903199999999515,
          "durationTicks": 160,
          "midi": 67,
          "name": "G4",
          "ticks": 215520,
          "time": 173.806104,
          "velocity": 0.31496062992125984
        },
        {
          "duration": 0.060483750000003056,
          "durationTicks": 75,
          "midi": 65,
          "name": "F4",
          "ticks": 215880,
          "time": 174.096426,
          "velocity": 0.31496062992125984
        },
        {
          "duration": 0.12903199999999515,
          "durationTicks": 160,
          "midi": 63,
          "name": "D#4",
          "ticks": 216000,
          "time": 174.1932,
          "velocity": 0.31496062992125984
        },
        {
          "duration": 0.19354799999999273,
          "durationTicks": 240,
          "midi": 58,
          "name": "A#3",
          "ticks": 216480,
          "time": 174.580296,
          "velocity": 0.31496062992125984
        },
        {
          "duration": 0.19354799999999273,
          "durationTicks": 240,
          "midi": 60,
          "name": "C4",
          "ticks": 216720,
          "time": 174.773844,
          "velocity": 0.31496062992125984
        },
        {
          "duration": 0.12903199999999515,
          "durationTicks": 160,
          "midi": 62,
          "name": "D4",
          "ticks": 216960,
          "time": 174.967392,
          "velocity": 0.31496062992125984
        },
        {
          "duration": 0.12903199999996673,
          "durationTicks": 160,
          "midi": 58,
          "name": "A#3",
          "ticks": 217200,
          "time": 175.16094,
          "velocity": 0.31496062992125984
        },
        {
          "duration": 0.12903199999999515,
          "durationTicks": 160,
          "midi": 62,
          "name": "D4",
          "ticks": 217440,
          "time": 175.354488,
          "velocity": 0.31496062992125984
        },
        {
          "duration": 0.12903199999999515,
          "durationTicks": 160,
          "midi": 58,
          "name": "A#3",
          "ticks": 217680,
          "time": 175.548036,
          "velocity": 0.31496062992125984
        },
        {
          "duration": 0.12903199999999515,
          "durationTicks": 160,
          "midi": 64,
          "name": "E4",
          "ticks": 217920,
          "time": 175.741584,
          "velocity": 0.31496062992125984
        },
        {
          "duration": 0.12903199999996673,
          "durationTicks": 160,
          "midi": 58,
          "name": "A#3",
          "ticks": 218160,
          "time": 175.935132,
          "velocity": 0.31496062992125984
        },
        {
          "duration": 0.12903199999999515,
          "durationTicks": 160,
          "midi": 64,
          "name": "E4",
          "ticks": 218400,
          "time": 176.12868,
          "velocity": 0.31496062992125984
        },
        {
          "duration": 0.12903199999999515,
          "durationTicks": 160,
          "midi": 58,
          "name": "A#3",
          "ticks": 218640,
          "time": 176.322228,
          "velocity": 0.31496062992125984
        },
        {
          "duration": 0.12903199999999515,
          "durationTicks": 160,
          "midi": 65,
          "name": "F4",
          "ticks": 218880,
          "time": 176.515776,
          "velocity": 0.31496062992125984
        },
        {
          "duration": 0.12903199999999515,
          "durationTicks": 160,
          "midi": 65,
          "name": "F4",
          "ticks": 219120,
          "time": 176.709324,
          "velocity": 0.31496062992125984
        },
        {
          "duration": 0.12903199999999515,
          "durationTicks": 160,
          "midi": 65,
          "name": "F4",
          "ticks": 219360,
          "time": 176.902872,
          "velocity": 0.31496062992125984
        },
        {
          "duration": 0.12903199999999515,
          "durationTicks": 160,
          "midi": 65,
          "name": "F4",
          "ticks": 219600,
          "time": 177.09642,
          "velocity": 0.31496062992125984
        },
        {
          "duration": 0.12903199999999515,
          "durationTicks": 160,
          "midi": 62,
          "name": "D4",
          "ticks": 219840,
          "time": 177.289968,
          "velocity": 0.31496062992125984
        },
        {
          "duration": 0.19354799999999273,
          "durationTicks": 240,
          "midi": 58,
          "name": "A#3",
          "ticks": 220320,
          "time": 177.677064,
          "velocity": 0.31496062992125984
        },
        {
          "duration": 0.19354799999999273,
          "durationTicks": 240,
          "midi": 60,
          "name": "C4",
          "ticks": 220560,
          "time": 177.870612,
          "velocity": 0.31496062992125984
        },
        {
          "duration": 0.12903199999999515,
          "durationTicks": 160,
          "midi": 62,
          "name": "D4",
          "ticks": 220800,
          "time": 178.06416,
          "velocity": 0.31496062992125984
        },
        {
          "duration": 0.12903199999999515,
          "durationTicks": 160,
          "midi": 58,
          "name": "A#3",
          "ticks": 221040,
          "time": 178.257708,
          "velocity": 0.31496062992125984
        },
        {
          "duration": 0.12903199999999515,
          "durationTicks": 160,
          "midi": 62,
          "name": "D4",
          "ticks": 221280,
          "time": 178.451256,
          "velocity": 0.31496062992125984
        },
        {
          "duration": 0.12903199999999515,
          "durationTicks": 160,
          "midi": 58,
          "name": "A#3",
          "ticks": 221520,
          "time": 178.644804,
          "velocity": 0.31496062992125984
        },
        {
          "duration": 0.12903199999999515,
          "durationTicks": 160,
          "midi": 64,
          "name": "E4",
          "ticks": 221760,
          "time": 178.838352,
          "velocity": 0.31496062992125984
        },
        {
          "duration": 0.12903199999999515,
          "durationTicks": 160,
          "midi": 58,
          "name": "A#3",
          "ticks": 222000,
          "time": 179.0319,
          "velocity": 0.31496062992125984
        },
        {
          "duration": 0.12903199999999515,
          "durationTicks": 160,
          "midi": 64,
          "name": "E4",
          "ticks": 222240,
          "time": 179.225448,
          "velocity": 0.31496062992125984
        },
        {
          "duration": 0.12903199999999515,
          "durationTicks": 160,
          "midi": 58,
          "name": "A#3",
          "ticks": 222480,
          "time": 179.418996,
          "velocity": 0.31496062992125984
        },
        {
          "duration": 0.12903199999999515,
          "durationTicks": 160,
          "midi": 65,
          "name": "F4",
          "ticks": 222720,
          "time": 179.61254399999999,
          "velocity": 0.31496062992125984
        },
        {
          "duration": 0.12903199999999515,
          "durationTicks": 160,
          "midi": 65,
          "name": "F4",
          "ticks": 222960,
          "time": 179.806092,
          "velocity": 0.31496062992125984
        },
        {
          "duration": 0.12903199999999515,
          "durationTicks": 160,
          "midi": 65,
          "name": "F4",
          "ticks": 223200,
          "time": 179.99964,
          "velocity": 0.31496062992125984
        },
        {
          "duration": 0.12903199999999515,
          "durationTicks": 160,
          "midi": 65,
          "name": "F4",
          "ticks": 223440,
          "time": 180.193188,
          "velocity": 0.31496062992125984
        },
        {
          "duration": 0.12903199999999515,
          "durationTicks": 160,
          "midi": 62,
          "name": "D4",
          "ticks": 223680,
          "time": 180.38673599999998,
          "velocity": 0.31496062992125984
        },
        {
          "duration": 0.1903221999999971,
          "durationTicks": 236,
          "midi": 58,
          "name": "A#3",
          "ticks": 223920,
          "time": 180.580284,
          "velocity": 0.5511811023622047
        },
        {
          "duration": 0.1903221999999971,
          "durationTicks": 236,
          "midi": 63,
          "name": "D#4",
          "ticks": 224160,
          "time": 180.773832,
          "velocity": 0.5511811023622047
        },
        {
          "duration": 0.1903221999999971,
          "durationTicks": 236,
          "midi": 67,
          "name": "G4",
          "ticks": 224400,
          "time": 180.96738,
          "velocity": 0.5511811023622047
        },
        {
          "duration": 0.12903199999999515,
          "durationTicks": 160,
          "midi": 70,
          "name": "A#4",
          "ticks": 224640,
          "time": 181.16092799999998,
          "velocity": 0.5511811023622047
        },
        {
          "duration": 0.12903199999999515,
          "durationTicks": 160,
          "midi": 70,
          "name": "A#4",
          "ticks": 224880,
          "time": 181.354476,
          "velocity": 0.5511811023622047
        },
        {
          "duration": 0.12903199999999515,
          "durationTicks": 160,
          "midi": 70,
          "name": "A#4",
          "ticks": 225120,
          "time": 181.548024,
          "velocity": 0.5511811023622047
        },
        {
          "duration": 0.12903199999999515,
          "durationTicks": 160,
          "midi": 70,
          "name": "A#4",
          "ticks": 225360,
          "time": 181.741572,
          "velocity": 0.5511811023622047
        },
        {
          "duration": 0.12903199999996673,
          "durationTicks": 160,
          "midi": 70,
          "name": "A#4",
          "ticks": 225600,
          "time": 181.93512,
          "velocity": 0.5511811023622047
        },
        {
          "duration": 0.12903199999999515,
          "durationTicks": 160,
          "midi": 70,
          "name": "A#4",
          "ticks": 225840,
          "time": 182.128668,
          "velocity": 0.5511811023622047
        },
        {
          "duration": 0.12903199999999515,
          "durationTicks": 160,
          "midi": 70,
          "name": "A#4",
          "ticks": 226080,
          "time": 182.322216,
          "velocity": 0.5511811023622047
        },
        {
          "duration": 0.12903199999999515,
          "durationTicks": 160,
          "midi": 70,
          "name": "A#4",
          "ticks": 226320,
          "time": 182.515764,
          "velocity": 0.5511811023622047
        },
        {
          "duration": 0.12903199999996673,
          "durationTicks": 160,
          "midi": 70,
          "name": "A#4",
          "ticks": 226560,
          "time": 182.709312,
          "velocity": 0.5511811023622047
        },
        {
          "duration": 0.12903199999999515,
          "durationTicks": 160,
          "midi": 70,
          "name": "A#4",
          "ticks": 226800,
          "time": 182.90286,
          "velocity": 0.5511811023622047
        },
        {
          "duration": 0.12903199999999515,
          "durationTicks": 160,
          "midi": 70,
          "name": "A#4",
          "ticks": 227040,
          "time": 183.096408,
          "velocity": 0.5511811023622047
        },
        {
          "duration": 0.12903199999999515,
          "durationTicks": 160,
          "midi": 70,
          "name": "A#4",
          "ticks": 227280,
          "time": 183.289956,
          "velocity": 0.5511811023622047
        },
        {
          "duration": 0.12903199999996673,
          "durationTicks": 160,
          "midi": 70,
          "name": "A#4",
          "ticks": 227520,
          "time": 183.483504,
          "velocity": 0.5511811023622047
        },
        {
          "duration": 0.12903199999999515,
          "durationTicks": 160,
          "midi": 70,
          "name": "A#4",
          "ticks": 227760,
          "time": 183.677052,
          "velocity": 0.5511811023622047
        },
        {
          "duration": 0.12903199999999515,
          "durationTicks": 160,
          "midi": 70,
          "name": "A#4",
          "ticks": 228000,
          "time": 183.8706,
          "velocity": 0.5511811023622047
        },
        {
          "duration": 0.12903199999999515,
          "durationTicks": 160,
          "midi": 70,
          "name": "A#4",
          "ticks": 228240,
          "time": 184.064148,
          "velocity": 0.5511811023622047
        },
        {
          "duration": 0.1370964999999842,
          "durationTicks": 170,
          "midi": 70,
          "name": "A#4",
          "ticks": 228480,
          "time": 184.257696,
          "velocity": 0.5511811023622047
        },
        {
          "duration": 0.19354799999999273,
          "durationTicks": 240,
          "midi": 68,
          "name": "G#4",
          "ticks": 228720,
          "time": 184.451244,
          "velocity": 0.7086614173228346
        },
        {
          "duration": 0.19354799999999273,
          "durationTicks": 240,
          "midi": 67,
          "name": "G4",
          "ticks": 228960,
          "time": 184.644792,
          "velocity": 0.7086614173228346
        },
        {
          "duration": 0.19354800000002115,
          "durationTicks": 240,
          "midi": 65,
          "name": "F4",
          "ticks": 229200,
          "time": 184.83834,
          "velocity": 0.7086614173228346
        },
        {
          "duration": 0.19354799999999273,
          "durationTicks": 240,
          "midi": 63,
          "name": "D#4",
          "ticks": 229440,
          "time": 185.031888,
          "velocity": 0.7086614173228346
        },
        {
          "duration": 0.19354799999999273,
          "durationTicks": 240,
          "midi": 58,
          "name": "A#3",
          "ticks": 229680,
          "time": 185.225436,
          "velocity": 0.7086614173228346
        },
        {
          "duration": 0.19354799999999273,
          "durationTicks": 240,
          "midi": 62,
          "name": "D4",
          "ticks": 229920,
          "time": 185.418984,
          "velocity": 0.7086614173228346
        },
        {
          "duration": 0.19354800000002115,
          "durationTicks": 240,
          "midi": 56,
          "name": "G#3",
          "ticks": 230160,
          "time": 185.612532,
          "velocity": 0.7086614173228346
        },
        {
          "duration": 0.12903199999999515,
          "durationTicks": 160,
          "midi": 55,
          "name": "G3",
          "ticks": 230400,
          "time": 185.80608,
          "velocity": 0.7086614173228346
        },
        {
          "duration": 0.12903199999999515,
          "durationTicks": 160,
          "midi": 55,
          "name": "G3",
          "ticks": 230880,
          "time": 186.193176,
          "velocity": 0.7086614173228346
        },
        {
          "duration": 0.12903199999999515,
          "durationTicks": 160,
          "midi": 63,
          "name": "D#4",
          "ticks": 230880,
          "time": 186.193176,
          "velocity": 0.7086614173228346
        },
        {
          "duration": 0.12903199999999515,
          "durationTicks": 160,
          "midi": 55,
          "name": "G3",
          "ticks": 231360,
          "time": 186.580272,
          "velocity": 0.7086614173228346
        },
        {
          "duration": 0.12903199999999515,
          "durationTicks": 160,
          "midi": 63,
          "name": "D#4",
          "ticks": 231360,
          "time": 186.580272,
          "velocity": 0.7086614173228346
        },
        {
          "duration": 0.12903199999999515,
          "durationTicks": 160,
          "midi": 63,
          "name": "D#4",
          "ticks": 232320,
          "time": 187.354464,
          "velocity": 0.31496062992125984
        },
        {
          "duration": 0.3870960000000139,
          "durationTicks": 480,
          "midi": 63,
          "name": "D#4",
          "ticks": 233760,
          "time": 188.515752,
          "velocity": 0.31496062992125984
        },
        {
          "duration": 0.12903199999999515,
          "durationTicks": 160,
          "midi": 65,
          "name": "F4",
          "ticks": 234240,
          "time": 188.902848,
          "velocity": 0.31496062992125984
        },
        {
          "duration": 0.3870960000000139,
          "durationTicks": 480,
          "midi": 68,
          "name": "G#4",
          "ticks": 235680,
          "time": 190.064136,
          "velocity": 0.31496062992125984
        },
        {
          "duration": 0.12903199999999515,
          "durationTicks": 160,
          "midi": 67,
          "name": "G4",
          "ticks": 236160,
          "time": 190.451232,
          "velocity": 0.31496062992125984
        },
        {
          "duration": 0.12903199999999515,
          "durationTicks": 160,
          "midi": 65,
          "name": "F4",
          "ticks": 237120,
          "time": 191.225424,
          "velocity": 0.31496062992125984
        },
        {
          "duration": 0.19354799999999273,
          "durationTicks": 240,
          "midi": 63,
          "name": "D#4",
          "ticks": 238080,
          "time": 191.999616,
          "velocity": 0.31496062992125984
        },
        {
          "duration": 0.19354799999999273,
          "durationTicks": 240,
          "midi": 65,
          "name": "F4",
          "ticks": 238320,
          "time": 192.193164,
          "velocity": 0.31496062992125984
        },
        {
          "duration": 0.19354800000002115,
          "durationTicks": 240,
          "midi": 66,
          "name": "F#4",
          "ticks": 238560,
          "time": 192.386712,
          "velocity": 0.31496062992125984
        },
        {
          "duration": 0.12903199999996673,
          "durationTicks": 160,
          "midi": 67,
          "name": "G4",
          "ticks": 238800,
          "time": 192.58026,
          "velocity": 0.31496062992125984
        },
        {
          "duration": 0.12903199999999515,
          "durationTicks": 160,
          "midi": 62,
          "name": "D4",
          "ticks": 239040,
          "time": 192.773808,
          "velocity": 0.31496062992125984
        },
        {
          "duration": 0.12903199999999515,
          "durationTicks": 160,
          "midi": 67,
          "name": "G4",
          "ticks": 240000,
          "time": 193.548,
          "velocity": 0.31496062992125984
        },
        {
          "duration": 0.12903199999999515,
          "durationTicks": 160,
          "midi": 65,
          "name": "F4",
          "ticks": 240960,
          "time": 194.322192,
          "velocity": 0.31496062992125984
        },
        {
          "duration": 0.12903199999999515,
          "durationTicks": 160,
          "midi": 65,
          "name": "F4",
          "ticks": 241920,
          "time": 195.096384,
          "velocity": 0.31496062992125984
        },
        {
          "duration": 0.12903199999999515,
          "durationTicks": 160,
          "midi": 63,
          "name": "D#4",
          "ticks": 242880,
          "time": 195.870576,
          "velocity": 0.31496062992125984
        },
        {
          "duration": 0.12903199999999515,
          "durationTicks": 160,
          "midi": 63,
          "name": "D#4",
          "ticks": 244320,
          "time": 197.03186399999998,
          "velocity": 0.31496062992125984
        },
        {
          "duration": 0.12903199999999515,
          "durationTicks": 160,
          "midi": 62,
          "name": "D4",
          "ticks": 245280,
          "time": 197.80605599999998,
          "velocity": 0.31496062992125984
        },
        {
          "duration": 0.7741919999999993,
          "durationTicks": 960,
          "midi": 62,
          "name": "D4",
          "ticks": 245760,
          "time": 198.193152,
          "velocity": 0.31496062992125984
        },
        {
          "duration": 0.12903200000002357,
          "durationTicks": 160,
          "midi": 63,
          "name": "D#4",
          "ticks": 246720,
          "time": 198.967344,
          "velocity": 0.31496062992125984
        },
        {
          "duration": 0.23387049999996634,
          "durationTicks": 290,
          "midi": 55,
          "name": "G3",
          "ticks": 249120,
          "time": 200.902824,
          "velocity": 0.31496062992125984
        },
        {
          "duration": 0.23387049999996634,
          "durationTicks": 290,
          "midi": 65,
          "name": "F4",
          "ticks": 249120,
          "time": 200.902824,
          "velocity": 0.31496062992125984
        },
        {
          "duration": 0.12903200000002357,
          "durationTicks": 160,
          "midi": 55,
          "name": "G3",
          "ticks": 249600,
          "time": 201.28992,
          "velocity": 0.31496062992125984
        },
        {
          "duration": 0.3870960000000139,
          "durationTicks": 480,
          "midi": 63,
          "name": "D#4",
          "ticks": 249600,
          "time": 201.28992,
          "velocity": 0.31496062992125984
        },
        {
          "duration": 0.12903199999999515,
          "durationTicks": 160,
          "midi": 55,
          "name": "G3",
          "ticks": 250080,
          "time": 201.677016,
          "velocity": 0.31496062992125984
        },
        {
          "duration": 0.38709599999998545,
          "durationTicks": 480,
          "midi": 65,
          "name": "F4",
          "ticks": 250080,
          "time": 201.677016,
          "velocity": 0.31496062992125984
        },
        {
          "duration": 0.12903200000002357,
          "durationTicks": 160,
          "midi": 55,
          "name": "G3",
          "ticks": 250560,
          "time": 202.064112,
          "velocity": 0.31496062992125984
        },
        {
          "duration": 0.12903200000002357,
          "durationTicks": 160,
          "midi": 63,
          "name": "D#4",
          "ticks": 250560,
          "time": 202.064112,
          "velocity": 0.31496062992125984
        },
        {
          "duration": 0.12903199999999515,
          "durationTicks": 160,
          "midi": 63,
          "name": "D#4",
          "ticks": 252960,
          "time": 203.999592,
          "velocity": 0.31496062992125984
        },
        {
          "duration": 0.3870960000000139,
          "durationTicks": 480,
          "midi": 62,
          "name": "D4",
          "ticks": 253440,
          "time": 204.386688,
          "velocity": 0.31496062992125984
        },
        {
          "duration": 0.38709599999998545,
          "durationTicks": 480,
          "midi": 63,
          "name": "D#4",
          "ticks": 253920,
          "time": 204.773784,
          "velocity": 0.31496062992125984
        },
        {
          "duration": 0.12903200000002357,
          "durationTicks": 160,
          "midi": 62,
          "name": "D4",
          "ticks": 254400,
          "time": 205.16088,
          "velocity": 0.31496062992125984
        },
        {
          "duration": 0.12903200000002357,
          "durationTicks": 160,
          "midi": 67,
          "name": "G4",
          "ticks": 255360,
          "time": 205.935072,
          "velocity": 0.31496062992125984
        },
        {
          "duration": 0.12903200000002357,
          "durationTicks": 160,
          "midi": 65,
          "name": "F4",
          "ticks": 256320,
          "time": 206.709264,
          "velocity": 0.31496062992125984
        },
        {
          "duration": 0.12903200000002357,
          "durationTicks": 160,
          "midi": 65,
          "name": "F4",
          "ticks": 257280,
          "time": 207.483456,
          "velocity": 0.31496062992125984
        },
        {
          "duration": 0.12903200000002357,
          "durationTicks": 160,
          "midi": 63,
          "name": "D#4",
          "ticks": 258240,
          "time": 208.257648,
          "velocity": 0.31496062992125984
        },
        {
          "duration": 0.12903200000002357,
          "durationTicks": 160,
          "midi": 63,
          "name": "D#4",
          "ticks": 259680,
          "time": 209.418936,
          "velocity": 0.31496062992125984
        },
        {
          "duration": 0.12903200000002357,
          "durationTicks": 160,
          "midi": 62,
          "name": "D4",
          "ticks": 260640,
          "time": 210.193128,
          "velocity": 0.31496062992125984
        },
        {
          "duration": 0.7741919999999993,
          "durationTicks": 960,
          "midi": 62,
          "name": "D4",
          "ticks": 261120,
          "time": 210.580224,
          "velocity": 0.31496062992125984
        },
        {
          "duration": 0.12903200000002357,
          "durationTicks": 160,
          "midi": 63,
          "name": "D#4",
          "ticks": 262080,
          "time": 211.354416,
          "velocity": 0.31496062992125984
        },
        {
          "duration": 0.19354799999999273,
          "durationTicks": 240,
          "midi": 58,
          "name": "A#3",
          "ticks": 262560,
          "time": 211.741512,
          "velocity": 0.31496062992125984
        },
        {
          "duration": 0.19354799999999273,
          "durationTicks": 240,
          "midi": 60,
          "name": "C4",
          "ticks": 262800,
          "time": 211.93506,
          "velocity": 0.31496062992125984
        },
        {
          "duration": 0.12903200000002357,
          "durationTicks": 160,
          "midi": 62,
          "name": "D4",
          "ticks": 263040,
          "time": 212.12860799999999,
          "velocity": 0.31496062992125984
        },
        {
          "duration": 0.12903199999999515,
          "durationTicks": 160,
          "midi": 58,
          "name": "A#3",
          "ticks": 263280,
          "time": 212.322156,
          "velocity": 0.31496062992125984
        },
        {
          "duration": 0.12903200000002357,
          "durationTicks": 160,
          "midi": 62,
          "name": "D4",
          "ticks": 263520,
          "time": 212.515704,
          "velocity": 0.31496062992125984
        },
        {
          "duration": 0.12903200000002357,
          "durationTicks": 160,
          "midi": 58,
          "name": "A#3",
          "ticks": 263760,
          "time": 212.709252,
          "velocity": 0.31496062992125984
        },
        {
          "duration": 0.12903200000002357,
          "durationTicks": 160,
          "midi": 64,
          "name": "E4",
          "ticks": 264000,
          "time": 212.90279999999998,
          "velocity": 0.31496062992125984
        },
        {
          "duration": 0.12903199999999515,
          "durationTicks": 160,
          "midi": 58,
          "name": "A#3",
          "ticks": 264240,
          "time": 213.096348,
          "velocity": 0.31496062992125984
        },
        {
          "duration": 0.12903200000002357,
          "durationTicks": 160,
          "midi": 64,
          "name": "E4",
          "ticks": 264480,
          "time": 213.289896,
          "velocity": 0.31496062992125984
        },
        {
          "duration": 0.12903200000002357,
          "durationTicks": 160,
          "midi": 58,
          "name": "A#3",
          "ticks": 264720,
          "time": 213.483444,
          "velocity": 0.31496062992125984
        },
        {
          "duration": 0.12903200000002357,
          "durationTicks": 160,
          "midi": 65,
          "name": "F4",
          "ticks": 264960,
          "time": 213.67699199999998,
          "velocity": 0.31496062992125984
        },
        {
          "duration": 0.12903199999999515,
          "durationTicks": 160,
          "midi": 65,
          "name": "F4",
          "ticks": 265200,
          "time": 213.87054,
          "velocity": 0.31496062992125984
        },
        {
          "duration": 0.12903200000002357,
          "durationTicks": 160,
          "midi": 65,
          "name": "F4",
          "ticks": 265440,
          "time": 214.064088,
          "velocity": 0.31496062992125984
        },
        {
          "duration": 0.12903200000002357,
          "durationTicks": 160,
          "midi": 65,
          "name": "F4",
          "ticks": 265680,
          "time": 214.257636,
          "velocity": 0.31496062992125984
        },
        {
          "duration": 0.12903200000002357,
          "durationTicks": 160,
          "midi": 62,
          "name": "D4",
          "ticks": 265920,
          "time": 214.45118399999998,
          "velocity": 0.31496062992125984
        },
        {
          "duration": 0.19354799999999273,
          "durationTicks": 240,
          "midi": 60,
          "name": "C4",
          "ticks": 266160,
          "time": 214.644732,
          "velocity": 0.31496062992125984
        },
        {
          "duration": 0.19354799999999273,
          "durationTicks": 240,
          "midi": 58,
          "name": "A#3",
          "ticks": 266400,
          "time": 214.83828,
          "velocity": 0.31496062992125984
        },
        {
          "duration": 0.19354800000002115,
          "durationTicks": 240,
          "midi": 60,
          "name": "C4",
          "ticks": 266640,
          "time": 215.031828,
          "velocity": 0.31496062992125984
        },
        {
          "duration": 0.12903199999999515,
          "durationTicks": 160,
          "midi": 62,
          "name": "D4",
          "ticks": 266880,
          "time": 215.225376,
          "velocity": 0.31496062992125984
        },
        {
          "duration": 0.12903199999999515,
          "durationTicks": 160,
          "midi": 58,
          "name": "A#3",
          "ticks": 267120,
          "time": 215.418924,
          "velocity": 0.31496062992125984
        },
        {
          "duration": 0.12903200000002357,
          "durationTicks": 160,
          "midi": 62,
          "name": "D4",
          "ticks": 267360,
          "time": 215.612472,
          "velocity": 0.31496062992125984
        },
        {
          "duration": 0.12903200000002357,
          "durationTicks": 160,
          "midi": 58,
          "name": "A#3",
          "ticks": 267600,
          "time": 215.80602,
          "velocity": 0.31496062992125984
        },
        {
          "duration": 0.12903199999999515,
          "durationTicks": 160,
          "midi": 64,
          "name": "E4",
          "ticks": 267840,
          "time": 215.999568,
          "velocity": 0.31496062992125984
        },
        {
          "duration": 0.12903199999999515,
          "durationTicks": 160,
          "midi": 58,
          "name": "A#3",
          "ticks": 268080,
          "time": 216.193116,
          "velocity": 0.31496062992125984
        },
        {
          "duration": 0.12903200000002357,
          "durationTicks": 160,
          "midi": 64,
          "name": "E4",
          "ticks": 268320,
          "time": 216.386664,
          "velocity": 0.31496062992125984
        },
        {
          "duration": 0.12903200000002357,
          "durationTicks": 160,
          "midi": 58,
          "name": "A#3",
          "ticks": 268560,
          "time": 216.580212,
          "velocity": 0.31496062992125984
        },
        {
          "duration": 0.12903199999999515,
          "durationTicks": 160,
          "midi": 65,
          "name": "F4",
          "ticks": 268800,
          "time": 216.77376,
          "velocity": 0.31496062992125984
        },
        {
          "duration": 0.12903200000002357,
          "durationTicks": 160,
          "midi": 65,
          "name": "F4",
          "ticks": 269040,
          "time": 216.967308,
          "velocity": 0.31496062992125984
        },
        {
          "duration": 0.12903200000002357,
          "durationTicks": 160,
          "midi": 65,
          "name": "F4",
          "ticks": 269280,
          "time": 217.160856,
          "velocity": 0.31496062992125984
        },
        {
          "duration": 0.12903200000002357,
          "durationTicks": 160,
          "midi": 65,
          "name": "F4",
          "ticks": 269520,
          "time": 217.354404,
          "velocity": 0.31496062992125984
        },
        {
          "duration": 0.12903199999999515,
          "durationTicks": 160,
          "midi": 62,
          "name": "D4",
          "ticks": 269760,
          "time": 217.547952,
          "velocity": 0.31496062992125984
        },
        {
          "duration": 0.12903200000002357,
          "durationTicks": 160,
          "midi": 58,
          "name": "A#3",
          "ticks": 270000,
          "time": 217.7415,
          "velocity": 0.5511811023622047
        },
        {
          "duration": 0.12903200000002357,
          "durationTicks": 160,
          "midi": 63,
          "name": "D#4",
          "ticks": 270240,
          "time": 217.935048,
          "velocity": 0.5511811023622047
        },
        {
          "duration": 0.12903200000002357,
          "durationTicks": 160,
          "midi": 67,
          "name": "G4",
          "ticks": 270480,
          "time": 218.128596,
          "velocity": 0.5511811023622047
        },
        {
          "duration": 0.12903199999999515,
          "durationTicks": 160,
          "midi": 70,
          "name": "A#4",
          "ticks": 270720,
          "time": 218.322144,
          "velocity": 0.5511811023622047
        },
        {
          "duration": 0.12903200000002357,
          "durationTicks": 160,
          "midi": 70,
          "name": "A#4",
          "ticks": 270960,
          "time": 218.515692,
          "velocity": 0.5511811023622047
        },
        {
          "duration": 0.12903200000002357,
          "durationTicks": 160,
          "midi": 70,
          "name": "A#4",
          "ticks": 271200,
          "time": 218.70924,
          "velocity": 0.5511811023622047
        },
        {
          "duration": 0.12903200000002357,
          "durationTicks": 160,
          "midi": 70,
          "name": "A#4",
          "ticks": 271440,
          "time": 218.902788,
          "velocity": 0.5511811023622047
        },
        {
          "duration": 0.12903199999999515,
          "durationTicks": 160,
          "midi": 70,
          "name": "A#4",
          "ticks": 271680,
          "time": 219.096336,
          "velocity": 0.5511811023622047
        },
        {
          "duration": 0.12903200000002357,
          "durationTicks": 160,
          "midi": 70,
          "name": "A#4",
          "ticks": 271920,
          "time": 219.289884,
          "velocity": 0.5511811023622047
        },
        {
          "duration": 0.12903200000002357,
          "durationTicks": 160,
          "midi": 70,
          "name": "A#4",
          "ticks": 272160,
          "time": 219.483432,
          "velocity": 0.5511811023622047
        },
        {
          "duration": 0.12903200000002357,
          "durationTicks": 160,
          "midi": 70,
          "name": "A#4",
          "ticks": 272400,
          "time": 219.67698,
          "velocity": 0.5511811023622047
        },
        {
          "duration": 0.12903199999999515,
          "durationTicks": 160,
          "midi": 70,
          "name": "A#4",
          "ticks": 272640,
          "time": 219.870528,
          "velocity": 0.5511811023622047
        },
        {
          "duration": 0.12903200000002357,
          "durationTicks": 160,
          "midi": 70,
          "name": "A#4",
          "ticks": 272880,
          "time": 220.064076,
          "velocity": 0.5511811023622047
        },
        {
          "duration": 0.12903200000002357,
          "durationTicks": 160,
          "midi": 70,
          "name": "A#4",
          "ticks": 273120,
          "time": 220.257624,
          "velocity": 0.5511811023622047
        },
        {
          "duration": 0.12903200000002357,
          "durationTicks": 160,
          "midi": 70,
          "name": "A#4",
          "ticks": 273360,
          "time": 220.45117199999999,
          "velocity": 0.5511811023622047
        },
        {
          "duration": 0.12903199999999515,
          "durationTicks": 160,
          "midi": 70,
          "name": "A#4",
          "ticks": 273600,
          "time": 220.64472,
          "velocity": 0.5511811023622047
        },
        {
          "duration": 0.12903200000002357,
          "durationTicks": 160,
          "midi": 70,
          "name": "A#4",
          "ticks": 273840,
          "time": 220.838268,
          "velocity": 0.5511811023622047
        },
        {
          "duration": 0.12903200000002357,
          "durationTicks": 160,
          "midi": 70,
          "name": "A#4",
          "ticks": 274080,
          "time": 221.031816,
          "velocity": 0.5511811023622047
        },
        {
          "duration": 0.12903200000002357,
          "durationTicks": 160,
          "midi": 70,
          "name": "A#4",
          "ticks": 274320,
          "time": 221.22536399999998,
          "velocity": 0.5511811023622047
        },
        {
          "duration": 0.1370964999999842,
          "durationTicks": 170,
          "midi": 70,
          "name": "A#4",
          "ticks": 274560,
          "time": 221.418912,
          "velocity": 0.5511811023622047
        },
        {
          "duration": 0.19354799999999273,
          "durationTicks": 240,
          "midi": 68,
          "name": "G#4",
          "ticks": 274800,
          "time": 221.61246,
          "velocity": 0.7086614173228346
        },
        {
          "duration": 0.19354799999999273,
          "durationTicks": 240,
          "midi": 67,
          "name": "G4",
          "ticks": 275040,
          "time": 221.806008,
          "velocity": 0.7086614173228346
        },
        {
          "duration": 0.19354800000002115,
          "durationTicks": 240,
          "midi": 65,
          "name": "F4",
          "ticks": 275280,
          "time": 221.99955599999998,
          "velocity": 0.7086614173228346
        },
        {
          "duration": 0.19354799999999273,
          "durationTicks": 240,
          "midi": 63,
          "name": "D#4",
          "ticks": 275520,
          "time": 222.193104,
          "velocity": 0.7086614173228346
        },
        {
          "duration": 0.19354799999999273,
          "durationTicks": 240,
          "midi": 58,
          "name": "A#3",
          "ticks": 275760,
          "time": 222.386652,
          "velocity": 0.7086614173228346
        },
        {
          "duration": 0.19354799999999273,
          "durationTicks": 240,
          "midi": 62,
          "name": "D4",
          "ticks": 276000,
          "time": 222.5802,
          "velocity": 0.7086614173228346
        },
        {
          "duration": 0.19354800000002115,
          "durationTicks": 240,
          "midi": 56,
          "name": "G#3",
          "ticks": 276240,
          "time": 222.77374799999998,
          "velocity": 0.7086614173228346
        },
        {
          "duration": 0.12903199999999515,
          "durationTicks": 160,
          "midi": 55,
          "name": "G3",
          "ticks": 276480,
          "time": 222.967296,
          "velocity": 0.7086614173228346
        },
        {
          "duration": 0.12903200000002357,
          "durationTicks": 160,
          "midi": 55,
          "name": "G3",
          "ticks": 276960,
          "time": 223.354392,
          "velocity": 0.7086614173228346
        },
        {
          "duration": 0.12903200000002357,
          "durationTicks": 160,
          "midi": 63,
          "name": "D#4",
          "ticks": 276960,
          "time": 223.354392,
          "velocity": 0.7086614173228346
        },
        {
          "duration": 0.12903199999999515,
          "durationTicks": 160,
          "midi": 55,
          "name": "G3",
          "ticks": 277440,
          "time": 223.741488,
          "velocity": 0.7086614173228346
        },
        {
          "duration": 0.12903199999999515,
          "durationTicks": 160,
          "midi": 63,
          "name": "D#4",
          "ticks": 277440,
          "time": 223.741488,
          "velocity": 0.7086614173228346
        },
        {
          "duration": 0.12903199999999515,
          "durationTicks": 160,
          "midi": 55,
          "name": "G3",
          "ticks": 278400,
          "time": 224.51568,
          "velocity": 0.31496062992125984
        },
        {
          "duration": 0.12903199999999515,
          "durationTicks": 160,
          "midi": 63,
          "name": "D#4",
          "ticks": 278400,
          "time": 224.51568,
          "velocity": 0.31496062992125984
        },
        {
          "duration": 0.12903200000002357,
          "durationTicks": 160,
          "midi": 75,
          "name": "D#5",
          "ticks": 279840,
          "time": 225.676968,
          "velocity": 0.31496062992125984
        },
        {
          "duration": 0.12903200000002357,
          "durationTicks": 160,
          "midi": 58,
          "name": "A#3",
          "ticks": 280320,
          "time": 226.064064,
          "velocity": 0.31496062992125984
        },
        {
          "duration": 0.12903200000002357,
          "durationTicks": 160,
          "midi": 65,
          "name": "F4",
          "ticks": 280320,
          "time": 226.064064,
          "velocity": 0.31496062992125984
        },
        {
          "duration": 0.12903200000002357,
          "durationTicks": 160,
          "midi": 62,
          "name": "D4",
          "ticks": 281760,
          "time": 227.225352,
          "velocity": 0.31496062992125984
        },
        {
          "duration": 0.12903200000002357,
          "durationTicks": 160,
          "midi": 65,
          "name": "F4",
          "ticks": 281760,
          "time": 227.225352,
          "velocity": 0.31496062992125984
        },
        {
          "duration": 0.12903200000002357,
          "durationTicks": 160,
          "midi": 55,
          "name": "G3",
          "ticks": 282240,
          "time": 227.612448,
          "velocity": 0.31496062992125984
        },
        {
          "duration": 0.12903200000002357,
          "durationTicks": 160,
          "midi": 63,
          "name": "D#4",
          "ticks": 282240,
          "time": 227.612448,
          "velocity": 0.31496062992125984
        },
        {
          "duration": 0.12903200000002357,
          "durationTicks": 160,
          "midi": 60,
          "name": "C4",
          "ticks": 283200,
          "time": 228.38664,
          "velocity": 0.31496062992125984
        },
        {
          "duration": 0.12903200000002357,
          "durationTicks": 160,
          "midi": 60,
          "name": "C4",
          "ticks": 283680,
          "time": 228.77373599999999,
          "velocity": 0.31496062992125984
        },
        {
          "duration": 0.38709599999998545,
          "durationTicks": 480,
          "midi": 62,
          "name": "D4",
          "ticks": 284160,
          "time": 229.160832,
          "velocity": 0.31496062992125984
        },
        {
          "duration": 0.3870960000000139,
          "durationTicks": 480,
          "midi": 63,
          "name": "D#4",
          "ticks": 284640,
          "time": 229.54792799999998,
          "velocity": 0.31496062992125984
        },
        {
          "duration": 0.12903200000002357,
          "durationTicks": 160,
          "midi": 62,
          "name": "D4",
          "ticks": 285120,
          "time": 229.935024,
          "velocity": 0.31496062992125984
        },
        {
          "duration": 0.38709599999998545,
          "durationTicks": 480,
          "midi": 67,
          "name": "G4",
          "ticks": 286080,
          "time": 230.709216,
          "velocity": 0.31496062992125984
        },
        {
          "duration": 0.12903200000002357,
          "durationTicks": 160,
          "midi": 65,
          "name": "F4",
          "ticks": 286560,
          "time": 231.09631199999998,
          "velocity": 0.31496062992125984
        },
        {
          "duration": 0.12903199999999515,
          "durationTicks": 160,
          "midi": 65,
          "name": "F4",
          "ticks": 287520,
          "time": 231.870504,
          "velocity": 0.31496062992125984
        },
        {
          "duration": 0.3870960000000139,
          "durationTicks": 480,
          "midi": 65,
          "name": "F4",
          "ticks": 288000,
          "time": 232.2576,
          "velocity": 0.31496062992125984
        },
        {
          "duration": 0.12903199999999515,
          "durationTicks": 160,
          "midi": 63,
          "name": "D#4",
          "ticks": 288480,
          "time": 232.644696,
          "velocity": 0.31496062992125984
        },
        {
          "duration": 0.999998000000005,
          "durationTicks": 1240,
          "midi": 63,
          "name": "D#4",
          "ticks": 289440,
          "time": 233.418888,
          "velocity": 0.31496062992125984
        },
        {
          "duration": 0.38387020000001826,
          "durationTicks": 476,
          "midi": 62,
          "name": "D4",
          "ticks": 290880,
          "time": 234.580176,
          "velocity": 0.31496062992125984
        },
        {
          "duration": 0.38387019999998984,
          "durationTicks": 476,
          "midi": 62,
          "name": "D4",
          "ticks": 291360,
          "time": 234.967272,
          "velocity": 0.31496062992125984
        },
        {
          "duration": 0.12903200000002357,
          "durationTicks": 160,
          "midi": 55,
          "name": "G3",
          "ticks": 291840,
          "time": 235.354368,
          "velocity": 0.31496062992125984
        },
        {
          "duration": 0.12903200000002357,
          "durationTicks": 160,
          "midi": 55,
          "name": "G3",
          "ticks": 292080,
          "time": 235.547916,
          "velocity": 0.31496062992125984
        },
        {
          "duration": 0.12903199999999515,
          "durationTicks": 160,
          "midi": 58,
          "name": "A#3",
          "ticks": 292320,
          "time": 235.741464,
          "velocity": 0.31496062992125984
        },
        {
          "duration": 0.12903200000002357,
          "durationTicks": 160,
          "midi": 58,
          "name": "A#3",
          "ticks": 292560,
          "time": 235.935012,
          "velocity": 0.31496062992125984
        },
        {
          "duration": 0.12903200000002357,
          "durationTicks": 160,
          "midi": 55,
          "name": "G3",
          "ticks": 292800,
          "time": 236.12856,
          "velocity": 0.31496062992125984
        },
        {
          "duration": 0.12903200000002357,
          "durationTicks": 160,
          "midi": 72,
          "name": "C5",
          "ticks": 295680,
          "time": 238.451136,
          "velocity": 0.31496062992125984
        },
        {
          "duration": 0.12903200000002357,
          "durationTicks": 160,
          "midi": 72,
          "name": "C5",
          "ticks": 295920,
          "time": 238.64468399999998,
          "velocity": 0.31496062992125984
        },
        {
          "duration": 0.12903199999999515,
          "durationTicks": 160,
          "midi": 71,
          "name": "B4",
          "ticks": 296160,
          "time": 238.838232,
          "velocity": 0.31496062992125984
        },
        {
          "duration": 0.12903200000002357,
          "durationTicks": 160,
          "midi": 71,
          "name": "B4",
          "ticks": 296400,
          "time": 239.03178,
          "velocity": 0.31496062992125984
        },
        {
          "duration": 0.12903200000002357,
          "durationTicks": 160,
          "midi": 72,
          "name": "C5",
          "ticks": 296640,
          "time": 239.225328,
          "velocity": 0.31496062992125984
        },
        {
          "duration": 0.12903200000002357,
          "durationTicks": 160,
          "midi": 70,
          "name": "A#4",
          "ticks": 299520,
          "time": 241.547904,
          "velocity": 0.31496062992125984
        },
        {
          "duration": 0.12903199999999515,
          "durationTicks": 160,
          "midi": 70,
          "name": "A#4",
          "ticks": 299760,
          "time": 241.741452,
          "velocity": 0.31496062992125984
        },
        {
          "duration": 0.12903200000002357,
          "durationTicks": 160,
          "midi": 69,
          "name": "A4",
          "ticks": 300000,
          "time": 241.935,
          "velocity": 0.31496062992125984
        },
        {
          "duration": 0.12903200000002357,
          "durationTicks": 160,
          "midi": 69,
          "name": "A4",
          "ticks": 300240,
          "time": 242.128548,
          "velocity": 0.31496062992125984
        },
        {
          "duration": 0.12903200000002357,
          "durationTicks": 160,
          "midi": 70,
          "name": "A#4",
          "ticks": 300480,
          "time": 242.322096,
          "velocity": 0.31496062992125984
        },
        {
          "duration": 0.3870960000000139,
          "durationTicks": 480,
          "midi": 67,
          "name": "G4",
          "ticks": 301440,
          "time": 243.096288,
          "velocity": 0.31496062992125984
        },
        {
          "duration": 0.12903200000002357,
          "durationTicks": 160,
          "midi": 65,
          "name": "F4",
          "ticks": 301920,
          "time": 243.483384,
          "velocity": 0.31496062992125984
        },
        {
          "duration": 0.12903200000002357,
          "durationTicks": 160,
          "midi": 65,
          "name": "F4",
          "ticks": 302880,
          "time": 244.257576,
          "velocity": 0.31496062992125984
        },
        {
          "duration": 0.3870960000000139,
          "durationTicks": 480,
          "midi": 65,
          "name": "F4",
          "ticks": 303360,
          "time": 244.64467199999999,
          "velocity": 0.31496062992125984
        },
        {
          "duration": 0.12903200000002357,
          "durationTicks": 160,
          "midi": 63,
          "name": "D#4",
          "ticks": 303840,
          "time": 245.031768,
          "velocity": 0.31496062992125984
        },
        {
          "duration": 0.999998000000005,
          "durationTicks": 1240,
          "midi": 63,
          "name": "D#4",
          "ticks": 304800,
          "time": 245.80596,
          "velocity": 0.31496062992125984
        },
        {
          "duration": 0.38387020000001826,
          "durationTicks": 476,
          "midi": 62,
          "name": "D4",
          "ticks": 306240,
          "time": 246.96724799999998,
          "velocity": 0.31496062992125984
        },
        {
          "duration": 0.38387019999998984,
          "durationTicks": 476,
          "midi": 62,
          "name": "D4",
          "ticks": 306720,
          "time": 247.354344,
          "velocity": 0.31496062992125984
        },
        {
          "duration": 0.12903199999999515,
          "durationTicks": 160,
          "midi": 55,
          "name": "G3",
          "ticks": 307200,
          "time": 247.74144,
          "velocity": 0.31496062992125984
        },
        {
          "duration": 0.12903199999999515,
          "durationTicks": 160,
          "midi": 55,
          "name": "G3",
          "ticks": 307440,
          "time": 247.934988,
          "velocity": 0.31496062992125984
        },
        {
          "duration": 0.12903200000002357,
          "durationTicks": 160,
          "midi": 58,
          "name": "A#3",
          "ticks": 307680,
          "time": 248.128536,
          "velocity": 0.31496062992125984
        },
        {
          "duration": 0.12903200000002357,
          "durationTicks": 160,
          "midi": 58,
          "name": "A#3",
          "ticks": 307920,
          "time": 248.322084,
          "velocity": 0.31496062992125984
        },
        {
          "duration": 0.12903199999999515,
          "durationTicks": 160,
          "midi": 55,
          "name": "G3",
          "ticks": 308160,
          "time": 248.515632,
          "velocity": 0.31496062992125984
        },
        {
          "duration": 0.19354799999999273,
          "durationTicks": 240,
          "midi": 58,
          "name": "A#3",
          "ticks": 308640,
          "time": 248.902728,
          "velocity": 0.31496062992125984
        },
        {
          "duration": 0.19354800000002115,
          "durationTicks": 240,
          "midi": 60,
          "name": "C4",
          "ticks": 308880,
          "time": 249.096276,
          "velocity": 0.31496062992125984
        },
        {
          "duration": 0.12903199999999515,
          "durationTicks": 160,
          "midi": 62,
          "name": "D4",
          "ticks": 309120,
          "time": 249.289824,
          "velocity": 0.31496062992125984
        },
        {
          "duration": 0.12903199999999515,
          "durationTicks": 160,
          "midi": 62,
          "name": "D4",
          "ticks": 309360,
          "time": 249.483372,
          "velocity": 0.31496062992125984
        },
        {
          "duration": 0.12903200000002357,
          "durationTicks": 160,
          "midi": 62,
          "name": "D4",
          "ticks": 309600,
          "time": 249.67692,
          "velocity": 0.31496062992125984
        },
        {
          "duration": 0.12903200000002357,
          "durationTicks": 160,
          "midi": 62,
          "name": "D4",
          "ticks": 309840,
          "time": 249.870468,
          "velocity": 0.31496062992125984
        },
        {
          "duration": 0.12903199999999515,
          "durationTicks": 160,
          "midi": 63,
          "name": "D#4",
          "ticks": 310080,
          "time": 250.064016,
          "velocity": 0.31496062992125984
        },
        {
          "duration": 0.12903200000002357,
          "durationTicks": 160,
          "midi": 63,
          "name": "D#4",
          "ticks": 310320,
          "time": 250.257564,
          "velocity": 0.31496062992125984
        },
        {
          "duration": 0.12903200000002357,
          "durationTicks": 160,
          "midi": 64,
          "name": "E4",
          "ticks": 310560,
          "time": 250.451112,
          "velocity": 0.31496062992125984
        },
        {
          "duration": 0.12903200000002357,
          "durationTicks": 160,
          "midi": 64,
          "name": "E4",
          "ticks": 310800,
          "time": 250.64466,
          "velocity": 0.31496062992125984
        },
        {
          "duration": 0.12903199999999515,
          "durationTicks": 160,
          "midi": 65,
          "name": "F4",
          "ticks": 311040,
          "time": 250.838208,
          "velocity": 0.31496062992125984
        },
        {
          "duration": 0.12903200000002357,
          "durationTicks": 160,
          "midi": 65,
          "name": "F4",
          "ticks": 311280,
          "time": 251.031756,
          "velocity": 0.31496062992125984
        },
        {
          "duration": 0.12903200000002357,
          "durationTicks": 160,
          "midi": 65,
          "name": "F4",
          "ticks": 311520,
          "time": 251.225304,
          "velocity": 0.31496062992125984
        },
        {
          "duration": 0.12903200000002357,
          "durationTicks": 160,
          "midi": 65,
          "name": "F4",
          "ticks": 311760,
          "time": 251.418852,
          "velocity": 0.31496062992125984
        },
        {
          "duration": 0.12903199999999515,
          "durationTicks": 160,
          "midi": 65,
          "name": "F4",
          "ticks": 312000,
          "time": 251.6124,
          "velocity": 0.31496062992125984
        },
        {
          "duration": 0.19354799999999273,
          "durationTicks": 240,
          "midi": 57,
          "name": "A3",
          "ticks": 312240,
          "time": 251.805948,
          "velocity": 0.31496062992125984
        },
        {
          "duration": 0.19354799999999273,
          "durationTicks": 240,
          "midi": 58,
          "name": "A#3",
          "ticks": 312480,
          "time": 251.999496,
          "velocity": 0.31496062992125984
        },
        {
          "duration": 0.19354800000002115,
          "durationTicks": 240,
          "midi": 60,
          "name": "C4",
          "ticks": 312720,
          "time": 252.193044,
          "velocity": 0.31496062992125984
        },
        {
          "duration": 0.12903199999999515,
          "durationTicks": 160,
          "midi": 62,
          "name": "D4",
          "ticks": 312960,
          "time": 252.386592,
          "velocity": 0.31496062992125984
        },
        {
          "duration": 0.12903200000002357,
          "durationTicks": 160,
          "midi": 62,
          "name": "D4",
          "ticks": 313200,
          "time": 252.58014,
          "velocity": 0.31496062992125984
        },
        {
          "duration": 0.12903200000002357,
          "durationTicks": 160,
          "midi": 62,
          "name": "D4",
          "ticks": 313440,
          "time": 252.773688,
          "velocity": 0.31496062992125984
        },
        {
          "duration": 0.12903200000002357,
          "durationTicks": 160,
          "midi": 62,
          "name": "D4",
          "ticks": 313680,
          "time": 252.96723599999999,
          "velocity": 0.31496062992125984
        },
        {
          "duration": 0.12903199999999515,
          "durationTicks": 160,
          "midi": 63,
          "name": "D#4",
          "ticks": 313920,
          "time": 253.160784,
          "velocity": 0.31496062992125984
        },
        {
          "duration": 0.12903200000002357,
          "durationTicks": 160,
          "midi": 63,
          "name": "D#4",
          "ticks": 314160,
          "time": 253.354332,
          "velocity": 0.31496062992125984
        },
        {
          "duration": 0.12903200000002357,
          "durationTicks": 160,
          "midi": 64,
          "name": "E4",
          "ticks": 314400,
          "time": 253.54788,
          "velocity": 0.31496062992125984
        },
        {
          "duration": 0.12903200000002357,
          "durationTicks": 160,
          "midi": 64,
          "name": "E4",
          "ticks": 314640,
          "time": 253.74142799999998,
          "velocity": 0.31496062992125984
        },
        {
          "duration": 0.12903199999999515,
          "durationTicks": 160,
          "midi": 65,
          "name": "F4",
          "ticks": 314880,
          "time": 253.934976,
          "velocity": 0.31496062992125984
        },
        {
          "duration": 0.12903200000002357,
          "durationTicks": 160,
          "midi": 65,
          "name": "F4",
          "ticks": 315120,
          "time": 254.128524,
          "velocity": 0.31496062992125984
        },
        {
          "duration": 0.12903200000002357,
          "durationTicks": 160,
          "midi": 65,
          "name": "F4",
          "ticks": 315360,
          "time": 254.322072,
          "velocity": 0.31496062992125984
        },
        {
          "duration": 0.12903200000002357,
          "durationTicks": 160,
          "midi": 65,
          "name": "F4",
          "ticks": 315600,
          "time": 254.51561999999998,
          "velocity": 0.31496062992125984
        },
        {
          "duration": 0.12903199999999515,
          "durationTicks": 160,
          "midi": 62,
          "name": "D4",
          "ticks": 315840,
          "time": 254.709168,
          "velocity": 0.31496062992125984
        },
        {
          "duration": 0.12903200000002357,
          "durationTicks": 160,
          "midi": 58,
          "name": "A#3",
          "ticks": 316080,
          "time": 254.902716,
          "velocity": 0.5511811023622047
        },
        {
          "duration": 0.12903200000002357,
          "durationTicks": 160,
          "midi": 63,
          "name": "D#4",
          "ticks": 316320,
          "time": 255.096264,
          "velocity": 0.5511811023622047
        },
        {
          "duration": 0.12903200000002357,
          "durationTicks": 160,
          "midi": 67,
          "name": "G4",
          "ticks": 316560,
          "time": 255.28981199999998,
          "velocity": 0.5511811023622047
        },
        {
          "duration": 0.12903199999999515,
          "durationTicks": 160,
          "midi": 70,
          "name": "A#4",
          "ticks": 316800,
          "time": 255.48336,
          "velocity": 0.5511811023622047
        },
        {
          "duration": 0.12903200000002357,
          "durationTicks": 160,
          "midi": 70,
          "name": "A#4",
          "ticks": 317040,
          "time": 255.676908,
          "velocity": 0.5511811023622047
        },
        {
          "duration": 0.12903200000002357,
          "durationTicks": 160,
          "midi": 70,
          "name": "A#4",
          "ticks": 317280,
          "time": 255.870456,
          "velocity": 0.5511811023622047
        },
        {
          "duration": 0.12903199999999515,
          "durationTicks": 160,
          "midi": 70,
          "name": "A#4",
          "ticks": 317520,
          "time": 256.064004,
          "velocity": 0.5511811023622047
        },
        {
          "duration": 0.129032000000052,
          "durationTicks": 160,
          "midi": 70,
          "name": "A#4",
          "ticks": 317760,
          "time": 256.257552,
          "velocity": 0.5511811023622047
        },
        {
          "duration": 0.12903199999999515,
          "durationTicks": 160,
          "midi": 70,
          "name": "A#4",
          "ticks": 318000,
          "time": 256.4511,
          "velocity": 0.5511811023622047
        },
        {
          "duration": 0.12903199999999515,
          "durationTicks": 160,
          "midi": 70,
          "name": "A#4",
          "ticks": 318240,
          "time": 256.644648,
          "velocity": 0.5511811023622047
        },
        {
          "duration": 0.129032000000052,
          "durationTicks": 160,
          "midi": 70,
          "name": "A#4",
          "ticks": 318480,
          "time": 256.838196,
          "velocity": 0.5511811023622047
        },
        {
          "duration": 0.12903199999999515,
          "durationTicks": 160,
          "midi": 70,
          "name": "A#4",
          "ticks": 318720,
          "time": 257.031744,
          "velocity": 0.5511811023622047
        },
        {
          "duration": 0.12903199999999515,
          "durationTicks": 160,
          "midi": 70,
          "name": "A#4",
          "ticks": 318960,
          "time": 257.225292,
          "velocity": 0.5511811023622047
        },
        {
          "duration": 0.12903199999999515,
          "durationTicks": 160,
          "midi": 70,
          "name": "A#4",
          "ticks": 319200,
          "time": 257.41884,
          "velocity": 0.5511811023622047
        },
        {
          "duration": 0.12903199999999515,
          "durationTicks": 160,
          "midi": 70,
          "name": "A#4",
          "ticks": 319440,
          "time": 257.612388,
          "velocity": 0.5511811023622047
        },
        {
          "duration": 0.129032000000052,
          "durationTicks": 160,
          "midi": 70,
          "name": "A#4",
          "ticks": 319680,
          "time": 257.805936,
          "velocity": 0.5511811023622047
        },
        {
          "duration": 0.12903199999999515,
          "durationTicks": 160,
          "midi": 70,
          "name": "A#4",
          "ticks": 319920,
          "time": 257.999484,
          "velocity": 0.5511811023622047
        },
        {
          "duration": 0.12903199999999515,
          "durationTicks": 160,
          "midi": 70,
          "name": "A#4",
          "ticks": 320160,
          "time": 258.193032,
          "velocity": 0.5511811023622047
        },
        {
          "duration": 0.129032000000052,
          "durationTicks": 160,
          "midi": 70,
          "name": "A#4",
          "ticks": 320400,
          "time": 258.38658,
          "velocity": 0.5511811023622047
        },
        {
          "duration": 0.1370964999999842,
          "durationTicks": 170,
          "midi": 70,
          "name": "A#4",
          "ticks": 320640,
          "time": 258.580128,
          "velocity": 0.5511811023622047
        },
        {
          "duration": 0.1935479999999643,
          "durationTicks": 240,
          "midi": 68,
          "name": "G#4",
          "ticks": 320880,
          "time": 258.773676,
          "velocity": 0.7086614173228346
        },
        {
          "duration": 0.19354800000002115,
          "durationTicks": 240,
          "midi": 67,
          "name": "G4",
          "ticks": 321120,
          "time": 258.967224,
          "velocity": 0.7086614173228346
        },
        {
          "duration": 0.1935479999999643,
          "durationTicks": 240,
          "midi": 65,
          "name": "F4",
          "ticks": 321360,
          "time": 259.160772,
          "velocity": 0.7086614173228346
        },
        {
          "duration": 0.19354800000002115,
          "durationTicks": 240,
          "midi": 63,
          "name": "D#4",
          "ticks": 321600,
          "time": 259.35432,
          "velocity": 0.7086614173228346
        },
        {
          "duration": 0.19354800000002115,
          "durationTicks": 240,
          "midi": 58,
          "name": "A#3",
          "ticks": 321840,
          "time": 259.547868,
          "velocity": 0.7086614173228346
        },
        {
          "duration": 0.1935479999999643,
          "durationTicks": 240,
          "midi": 62,
          "name": "D4",
          "ticks": 322080,
          "time": 259.741416,
          "velocity": 0.7086614173228346
        },
        {
          "duration": 0.19354800000002115,
          "durationTicks": 240,
          "midi": 56,
          "name": "G#3",
          "ticks": 322320,
          "time": 259.934964,
          "velocity": 0.7086614173228346
        },
        {
          "duration": 0.12903199999999515,
          "durationTicks": 160,
          "midi": 55,
          "name": "G3",
          "ticks": 322560,
          "time": 260.128512,
          "velocity": 0.7086614173228346
        },
        {
          "duration": 0.129032000000052,
          "durationTicks": 160,
          "midi": 55,
          "name": "G3",
          "ticks": 323040,
          "time": 260.515608,
          "velocity": 0.7086614173228346
        },
        {
          "duration": 0.129032000000052,
          "durationTicks": 160,
          "midi": 63,
          "name": "D#4",
          "ticks": 323040,
          "time": 260.515608,
          "velocity": 0.7086614173228346
        },
        {
          "duration": 0.129032000000052,
          "durationTicks": 160,
          "midi": 55,
          "name": "G3",
          "ticks": 323520,
          "time": 260.90270399999997,
          "velocity": 0.7086614173228346
        },
        {
          "duration": 0.129032000000052,
          "durationTicks": 160,
          "midi": 63,
          "name": "D#4",
          "ticks": 323520,
          "time": 260.90270399999997,
          "velocity": 0.7086614173228346
        },
        {
          "duration": 0.12903199999999515,
          "durationTicks": 160,
          "midi": 63,
          "name": "D#4",
          "ticks": 324480,
          "time": 261.676896,
          "velocity": 0.31496062992125984
        },
        {
          "duration": 0.12903199999999515,
          "durationTicks": 160,
          "midi": 63,
          "name": "D#4",
          "ticks": 325920,
          "time": 262.838184,
          "velocity": 0.31496062992125984
        },
        {
          "duration": 0.12903199999999515,
          "durationTicks": 160,
          "midi": 64,
          "name": "E4",
          "ticks": 326400,
          "time": 263.22528,
          "velocity": 0.31496062992125984
        },
        {
          "duration": 0.12903199999999515,
          "durationTicks": 160,
          "midi": 64,
          "name": "E4",
          "ticks": 327840,
          "time": 264.386568,
          "velocity": 0.31496062992125984
        },
        {
          "duration": 0.12903199999999515,
          "durationTicks": 160,
          "midi": 63,
          "name": "D#4",
          "ticks": 328320,
          "time": 264.773664,
          "velocity": 0.31496062992125984
        },
        {
          "duration": 0.129032000000052,
          "durationTicks": 160,
          "midi": 63,
          "name": "D#4",
          "ticks": 328800,
          "time": 265.16076,
          "velocity": 0.31496062992125984
        },
        {
          "duration": 0.12903199999999515,
          "durationTicks": 160,
          "midi": 63,
          "name": "D#4",
          "ticks": 329280,
          "time": 265.547856,
          "velocity": 0.31496062992125984
        },
        {
          "duration": 0.12903199999999515,
          "durationTicks": 160,
          "midi": 63,
          "name": "D#4",
          "ticks": 329760,
          "time": 265.934952,
          "velocity": 0.31496062992125984
        },
        {
          "duration": 0.12903199999999515,
          "durationTicks": 160,
          "midi": 63,
          "name": "D#4",
          "ticks": 330240,
          "time": 266.322048,
          "velocity": 0.31496062992125984
        },
        {
          "duration": 0.129032000000052,
          "durationTicks": 160,
          "midi": 63,
          "name": "D#4",
          "ticks": 330720,
          "time": 266.709144,
          "velocity": 0.31496062992125984
        },
        {
          "duration": 0.12903199999999515,
          "durationTicks": 160,
          "midi": 62,
          "name": "D4",
          "ticks": 331200,
          "time": 267.09624,
          "velocity": 0.31496062992125984
        },
        {
          "duration": 0.6129020000000196,
          "durationTicks": 760,
          "midi": 63,
          "name": "D#4",
          "ticks": 335520,
          "time": 270.580104,
          "velocity": 0.31496062992125984
        },
        {
          "duration": 0.12903199999999515,
          "durationTicks": 160,
          "midi": 56,
          "name": "G#3",
          "ticks": 336960,
          "time": 271.741392,
          "velocity": 0.31496062992125984
        },
        {
          "duration": 0.12903199999999515,
          "durationTicks": 160,
          "midi": 62,
          "name": "D4",
          "ticks": 336960,
          "time": 271.741392,
          "velocity": 0.31496062992125984
        },
        {
          "duration": 0.12903199999999515,
          "durationTicks": 160,
          "midi": 55,
          "name": "G3",
          "ticks": 337920,
          "time": 272.515584,
          "velocity": 0.31496062992125984
        },
        {
          "duration": 0.12903199999999515,
          "durationTicks": 160,
          "midi": 55,
          "name": "G3",
          "ticks": 338160,
          "time": 272.709132,
          "velocity": 0.31496062992125984
        },
        {
          "duration": 0.129032000000052,
          "durationTicks": 160,
          "midi": 58,
          "name": "A#3",
          "ticks": 338400,
          "time": 272.90268,
          "velocity": 0.31496062992125984
        },
        {
          "duration": 0.12903199999999515,
          "durationTicks": 160,
          "midi": 58,
          "name": "A#3",
          "ticks": 338640,
          "time": 273.096228,
          "velocity": 0.31496062992125984
        },
        {
          "duration": 0.12903199999999515,
          "durationTicks": 160,
          "midi": 55,
          "name": "G3",
          "ticks": 338880,
          "time": 273.289776,
          "velocity": 0.31496062992125984
        },
        {
          "duration": 0.6129020000000196,
          "durationTicks": 760,
          "midi": 63,
          "name": "D#4",
          "ticks": 350880,
          "time": 282.967176,
          "velocity": 0.31496062992125984
        },
        {
          "duration": 0.12903199999999515,
          "durationTicks": 160,
          "midi": 56,
          "name": "G#3",
          "ticks": 352320,
          "time": 284.128464,
          "velocity": 0.31496062992125984
        },
        {
          "duration": 0.12903199999999515,
          "durationTicks": 160,
          "midi": 62,
          "name": "D4",
          "ticks": 352320,
          "time": 284.128464,
          "velocity": 0.31496062992125984
        },
        {
          "duration": 0.129032000000052,
          "durationTicks": 160,
          "midi": 55,
          "name": "G3",
          "ticks": 353280,
          "time": 284.902656,
          "velocity": 0.31496062992125984
        },
        {
          "duration": 0.12903199999999515,
          "durationTicks": 160,
          "midi": 55,
          "name": "G3",
          "ticks": 353520,
          "time": 285.096204,
          "velocity": 0.31496062992125984
        },
        {
          "duration": 0.12903199999999515,
          "durationTicks": 160,
          "midi": 58,
          "name": "A#3",
          "ticks": 353760,
          "time": 285.289752,
          "velocity": 0.31496062992125984
        },
        {
          "duration": 0.129032000000052,
          "durationTicks": 160,
          "midi": 58,
          "name": "A#3",
          "ticks": 354000,
          "time": 285.4833,
          "velocity": 0.31496062992125984
        },
        {
          "duration": 0.12903199999999515,
          "durationTicks": 160,
          "midi": 55,
          "name": "G3",
          "ticks": 354240,
          "time": 285.676848,
          "velocity": 0.31496062992125984
        },
        {
          "duration": 0.19354800000002115,
          "durationTicks": 240,
          "midi": 58,
          "name": "A#3",
          "ticks": 354720,
          "time": 286.063944,
          "velocity": 0.31496062992125984
        },
        {
          "duration": 0.1935479999999643,
          "durationTicks": 240,
          "midi": 60,
          "name": "C4",
          "ticks": 354960,
          "time": 286.257492,
          "velocity": 0.31496062992125984
        },
        {
          "duration": 0.129032000000052,
          "durationTicks": 160,
          "midi": 62,
          "name": "D4",
          "ticks": 355200,
          "time": 286.45104,
          "velocity": 0.31496062992125984
        },
        {
          "duration": 0.12903199999999515,
          "durationTicks": 160,
          "midi": 62,
          "name": "D4",
          "ticks": 355440,
          "time": 286.644588,
          "velocity": 0.31496062992125984
        },
        {
          "duration": 0.12903199999999515,
          "durationTicks": 160,
          "midi": 62,
          "name": "D4",
          "ticks": 355680,
          "time": 286.838136,
          "velocity": 0.31496062992125984
        },
        {
          "duration": 0.129032000000052,
          "durationTicks": 160,
          "midi": 62,
          "name": "D4",
          "ticks": 355920,
          "time": 287.031684,
          "velocity": 0.31496062992125984
        },
        {
          "duration": 0.12903199999999515,
          "durationTicks": 160,
          "midi": 63,
          "name": "D#4",
          "ticks": 356160,
          "time": 287.225232,
          "velocity": 0.31496062992125984
        },
        {
          "duration": 0.129032000000052,
          "durationTicks": 160,
          "midi": 63,
          "name": "D#4",
          "ticks": 356400,
          "time": 287.41877999999997,
          "velocity": 0.31496062992125984
        },
        {
          "duration": 0.12903199999999515,
          "durationTicks": 160,
          "midi": 64,
          "name": "E4",
          "ticks": 356640,
          "time": 287.612328,
          "velocity": 0.31496062992125984
        },
        {
          "duration": 0.12903199999999515,
          "durationTicks": 160,
          "midi": 64,
          "name": "E4",
          "ticks": 356880,
          "time": 287.805876,
          "velocity": 0.31496062992125984
        },
        {
          "duration": 0.129032000000052,
          "durationTicks": 160,
          "midi": 65,
          "name": "F4",
          "ticks": 357120,
          "time": 287.999424,
          "velocity": 0.31496062992125984
        },
        {
          "duration": 0.12903199999999515,
          "durationTicks": 160,
          "midi": 65,
          "name": "F4",
          "ticks": 357360,
          "time": 288.192972,
          "velocity": 0.31496062992125984
        },
        {
          "duration": 0.12903199999999515,
          "durationTicks": 160,
          "midi": 65,
          "name": "F4",
          "ticks": 357600,
          "time": 288.38652,
          "velocity": 0.31496062992125984
        },
        {
          "duration": 0.129032000000052,
          "durationTicks": 160,
          "midi": 65,
          "name": "F4",
          "ticks": 357840,
          "time": 288.580068,
          "velocity": 0.31496062992125984
        },
        {
          "duration": 0.12903199999999515,
          "durationTicks": 160,
          "midi": 65,
          "name": "F4",
          "ticks": 358080,
          "time": 288.773616,
          "velocity": 0.31496062992125984
        },
        {
          "duration": 0.19354800000002115,
          "durationTicks": 240,
          "midi": 57,
          "name": "A3",
          "ticks": 358320,
          "time": 288.96716399999997,
          "velocity": 0.31496062992125984
        },
        {
          "duration": 0.19354800000002115,
          "durationTicks": 240,
          "midi": 58,
          "name": "A#3",
          "ticks": 358560,
          "time": 289.160712,
          "velocity": 0.31496062992125984
        },
        {
          "duration": 0.1935479999999643,
          "durationTicks": 240,
          "midi": 60,
          "name": "C4",
          "ticks": 358800,
          "time": 289.35426,
          "velocity": 0.31496062992125984
        },
        {
          "duration": 0.129032000000052,
          "durationTicks": 160,
          "midi": 62,
          "name": "D4",
          "ticks": 359040,
          "time": 289.547808,
          "velocity": 0.31496062992125984
        },
        {
          "duration": 0.12903199999999515,
          "durationTicks": 160,
          "midi": 62,
          "name": "D4",
          "ticks": 359280,
          "time": 289.741356,
          "velocity": 0.31496062992125984
        },
        {
          "duration": 0.12903199999999515,
          "durationTicks": 160,
          "midi": 62,
          "name": "D4",
          "ticks": 359520,
          "time": 289.934904,
          "velocity": 0.31496062992125984
        },
        {
          "duration": 0.129032000000052,
          "durationTicks": 160,
          "midi": 62,
          "name": "D4",
          "ticks": 359760,
          "time": 290.128452,
          "velocity": 0.31496062992125984
        },
        {
          "duration": 0.12903199999999515,
          "durationTicks": 160,
          "midi": 63,
          "name": "D#4",
          "ticks": 360000,
          "time": 290.322,
          "velocity": 0.31496062992125984
        },
        {
          "duration": 0.12903199999999515,
          "durationTicks": 160,
          "midi": 63,
          "name": "D#4",
          "ticks": 360240,
          "time": 290.515548,
          "velocity": 0.31496062992125984
        },
        {
          "duration": 0.12903199999999515,
          "durationTicks": 160,
          "midi": 64,
          "name": "E4",
          "ticks": 360480,
          "time": 290.709096,
          "velocity": 0.31496062992125984
        },
        {
          "duration": 0.12903199999999515,
          "durationTicks": 160,
          "midi": 64,
          "name": "E4",
          "ticks": 360720,
          "time": 290.902644,
          "velocity": 0.31496062992125984
        },
        {
          "duration": 0.129032000000052,
          "durationTicks": 160,
          "midi": 65,
          "name": "F4",
          "ticks": 360960,
          "time": 291.096192,
          "velocity": 0.31496062992125984
        },
        {
          "duration": 0.12903199999999515,
          "durationTicks": 160,
          "midi": 65,
          "name": "F4",
          "ticks": 361200,
          "time": 291.28974,
          "velocity": 0.31496062992125984
        },
        {
          "duration": 0.12903199999999515,
          "durationTicks": 160,
          "midi": 65,
          "name": "F4",
          "ticks": 361440,
          "time": 291.483288,
          "velocity": 0.31496062992125984
        },
        {
          "duration": 0.129032000000052,
          "durationTicks": 160,
          "midi": 65,
          "name": "F4",
          "ticks": 361680,
          "time": 291.676836,
          "velocity": 0.31496062992125984
        },
        {
          "duration": 0.12903199999999515,
          "durationTicks": 160,
          "midi": 62,
          "name": "D4",
          "ticks": 361920,
          "time": 291.870384,
          "velocity": 0.31496062992125984
        },
        {
          "duration": 0.12903199999999515,
          "durationTicks": 160,
          "midi": 58,
          "name": "A#3",
          "ticks": 362160,
          "time": 292.063932,
          "velocity": 0.5511811023622047
        },
        {
          "duration": 0.129032000000052,
          "durationTicks": 160,
          "midi": 63,
          "name": "D#4",
          "ticks": 362400,
          "time": 292.25748,
          "velocity": 0.5511811023622047
        },
        {
          "duration": 0.12903199999999515,
          "durationTicks": 160,
          "midi": 67,
          "name": "G4",
          "ticks": 362640,
          "time": 292.451028,
          "velocity": 0.5511811023622047
        },
        {
          "duration": 0.129032000000052,
          "durationTicks": 160,
          "midi": 70,
          "name": "A#4",
          "ticks": 362880,
          "time": 292.644576,
          "velocity": 0.5511811023622047
        },
        {
          "duration": 0.12903199999999515,
          "durationTicks": 160,
          "midi": 70,
          "name": "A#4",
          "ticks": 363120,
          "time": 292.838124,
          "velocity": 0.5511811023622047
        },
        {
          "duration": 0.12903199999999515,
          "durationTicks": 160,
          "midi": 70,
          "name": "A#4",
          "ticks": 363360,
          "time": 293.031672,
          "velocity": 0.5511811023622047
        },
        {
          "duration": 0.129032000000052,
          "durationTicks": 160,
          "midi": 70,
          "name": "A#4",
          "ticks": 363600,
          "time": 293.22522,
          "velocity": 0.5511811023622047
        },
        {
          "duration": 0.12903199999999515,
          "durationTicks": 160,
          "midi": 70,
          "name": "A#4",
          "ticks": 363840,
          "time": 293.418768,
          "velocity": 0.5511811023622047
        },
        {
          "duration": 0.12903199999999515,
          "durationTicks": 160,
          "midi": 70,
          "name": "A#4",
          "ticks": 364080,
          "time": 293.612316,
          "velocity": 0.5511811023622047
        },
        {
          "duration": 0.129032000000052,
          "durationTicks": 160,
          "midi": 70,
          "name": "A#4",
          "ticks": 364320,
          "time": 293.805864,
          "velocity": 0.5511811023622047
        },
        {
          "duration": 0.12903199999999515,
          "durationTicks": 160,
          "midi": 70,
          "name": "A#4",
          "ticks": 364560,
          "time": 293.999412,
          "velocity": 0.5511811023622047
        },
        {
          "duration": 0.129032000000052,
          "durationTicks": 160,
          "midi": 70,
          "name": "A#4",
          "ticks": 364800,
          "time": 294.19295999999997,
          "velocity": 0.5511811023622047
        },
        {
          "duration": 0.12903199999999515,
          "durationTicks": 160,
          "midi": 70,
          "name": "A#4",
          "ticks": 365040,
          "time": 294.386508,
          "velocity": 0.5511811023622047
        },
        {
          "duration": 0.12903199999999515,
          "durationTicks": 160,
          "midi": 70,
          "name": "A#4",
          "ticks": 365280,
          "time": 294.580056,
          "velocity": 0.5511811023622047
        },
        {
          "duration": 0.129032000000052,
          "durationTicks": 160,
          "midi": 70,
          "name": "A#4",
          "ticks": 365520,
          "time": 294.773604,
          "velocity": 0.5511811023622047
        },
        {
          "duration": 0.12903199999999515,
          "durationTicks": 160,
          "midi": 70,
          "name": "A#4",
          "ticks": 365760,
          "time": 294.967152,
          "velocity": 0.5511811023622047
        },
        {
          "duration": 0.12903199999999515,
          "durationTicks": 160,
          "midi": 70,
          "name": "A#4",
          "ticks": 366000,
          "time": 295.1607,
          "velocity": 0.5511811023622047
        },
        {
          "duration": 0.129032000000052,
          "durationTicks": 160,
          "midi": 70,
          "name": "A#4",
          "ticks": 366240,
          "time": 295.354248,
          "velocity": 0.5511811023622047
        },
        {
          "duration": 0.12903199999999515,
          "durationTicks": 160,
          "midi": 70,
          "name": "A#4",
          "ticks": 366480,
          "time": 295.547796,
          "velocity": 0.5511811023622047
        },
        {
          "duration": 0.1370964999999842,
          "durationTicks": 170,
          "midi": 70,
          "name": "A#4",
          "ticks": 366720,
          "time": 295.74134399999997,
          "velocity": 0.5511811023622047
        },
        {
          "duration": 0.19354800000002115,
          "durationTicks": 240,
          "midi": 68,
          "name": "G#4",
          "ticks": 366960,
          "time": 295.934892,
          "velocity": 0.7086614173228346
        },
        {
          "duration": 0.1935479999999643,
          "durationTicks": 240,
          "midi": 67,
          "name": "G4",
          "ticks": 367200,
          "time": 296.12844,
          "velocity": 0.7086614173228346
        },
        {
          "duration": 0.19354800000002115,
          "durationTicks": 240,
          "midi": 65,
          "name": "F4",
          "ticks": 367440,
          "time": 296.321988,
          "velocity": 0.7086614173228346
        },
        {
          "duration": 0.19354800000002115,
          "durationTicks": 240,
          "midi": 63,
          "name": "D#4",
          "ticks": 367680,
          "time": 296.515536,
          "velocity": 0.7086614173228346
        },
        {
          "duration": 0.1935479999999643,
          "durationTicks": 240,
          "midi": 58,
          "name": "A#3",
          "ticks": 367920,
          "time": 296.709084,
          "velocity": 0.7086614173228346
        },
        {
          "duration": 0.19354800000002115,
          "durationTicks": 240,
          "midi": 62,
          "name": "D4",
          "ticks": 368160,
          "time": 296.902632,
          "velocity": 0.7086614173228346
        },
        {
          "duration": 0.1935479999999643,
          "durationTicks": 240,
          "midi": 56,
          "name": "G#3",
          "ticks": 368400,
          "time": 297.09618,
          "velocity": 0.7086614173228346
        },
        {
          "duration": 0.129032000000052,
          "durationTicks": 160,
          "midi": 55,
          "name": "G3",
          "ticks": 368640,
          "time": 297.28972799999997,
          "velocity": 0.7086614173228346
        },
        {
          "duration": 0.12903199999999515,
          "durationTicks": 160,
          "midi": 55,
          "name": "G3",
          "ticks": 369120,
          "time": 297.676824,
          "velocity": 0.7086614173228346
        },
        {
          "duration": 0.12903199999999515,
          "durationTicks": 160,
          "midi": 63,
          "name": "D#4",
          "ticks": 369120,
          "time": 297.676824,
          "velocity": 0.7086614173228346
        },
        {
          "duration": 0.12903199999999515,
          "durationTicks": 160,
          "midi": 55,
          "name": "G3",
          "ticks": 369600,
          "time": 298.06392,
          "velocity": 0.7086614173228346
        },
        {
          "duration": 0.12903199999999515,
          "durationTicks": 160,
          "midi": 63,
          "name": "D#4",
          "ticks": 369600,
          "time": 298.06392,
          "velocity": 0.7086614173228346
        },
        {
          "duration": 0.1935479999999643,
          "durationTicks": 240,
          "midi": 58,
          "name": "A#3",
          "ticks": 400800,
          "time": 323.22516,
          "velocity": 0.31496062992125984
        },
        {
          "duration": 0.19354800000002115,
          "durationTicks": 240,
          "midi": 60,
          "name": "C4",
          "ticks": 401040,
          "time": 323.418708,
          "velocity": 0.31496062992125984
        },
        {
          "duration": 0.12903199999999515,
          "durationTicks": 160,
          "midi": 62,
          "name": "D4",
          "ticks": 401280,
          "time": 323.612256,
          "velocity": 0.31496062992125984
        },
        {
          "duration": 0.12903199999999515,
          "durationTicks": 160,
          "midi": 62,
          "name": "D4",
          "ticks": 401520,
          "time": 323.805804,
          "velocity": 0.31496062992125984
        },
        {
          "duration": 0.12903199999999515,
          "durationTicks": 160,
          "midi": 62,
          "name": "D4",
          "ticks": 401760,
          "time": 323.999352,
          "velocity": 0.31496062992125984
        },
        {
          "duration": 0.12903199999999515,
          "durationTicks": 160,
          "midi": 62,
          "name": "D4",
          "ticks": 402000,
          "time": 324.1929,
          "velocity": 0.31496062992125984
        },
        {
          "duration": 0.129032000000052,
          "durationTicks": 160,
          "midi": 63,
          "name": "D#4",
          "ticks": 402240,
          "time": 324.386448,
          "velocity": 0.31496062992125984
        },
        {
          "duration": 0.12903199999999515,
          "durationTicks": 160,
          "midi": 63,
          "name": "D#4",
          "ticks": 402480,
          "time": 324.579996,
          "velocity": 0.31496062992125984
        },
        {
          "duration": 0.12903199999999515,
          "durationTicks": 160,
          "midi": 64,
          "name": "E4",
          "ticks": 402720,
          "time": 324.773544,
          "velocity": 0.31496062992125984
        },
        {
          "duration": 0.129032000000052,
          "durationTicks": 160,
          "midi": 64,
          "name": "E4",
          "ticks": 402960,
          "time": 324.967092,
          "velocity": 0.31496062992125984
        },
        {
          "duration": 0.09677399999998215,
          "durationTicks": 120,
          "midi": 65,
          "name": "F4",
          "ticks": 403200,
          "time": 325.16064,
          "velocity": 0.31496062992125984
        },
        {
          "duration": 0.096774000000039,
          "durationTicks": 120,
          "midi": 62,
          "name": "D4",
          "ticks": 403320,
          "time": 325.257414,
          "velocity": 0.31496062992125984
        },
        {
          "duration": 0.09677399999998215,
          "durationTicks": 120,
          "midi": 65,
          "name": "F4",
          "ticks": 403440,
          "time": 325.354188,
          "velocity": 0.31496062992125984
        },
        {
          "duration": 0.09677399999998215,
          "durationTicks": 120,
          "midi": 62,
          "name": "D4",
          "ticks": 403560,
          "time": 325.450962,
          "velocity": 0.31496062992125984
        },
        {
          "duration": 0.09677399999998215,
          "durationTicks": 120,
          "midi": 65,
          "name": "F4",
          "ticks": 403680,
          "time": 325.547736,
          "velocity": 0.31496062992125984
        },
        {
          "duration": 0.096774000000039,
          "durationTicks": 120,
          "midi": 62,
          "name": "D4",
          "ticks": 403800,
          "time": 325.64450999999997,
          "velocity": 0.31496062992125984
        },
        {
          "duration": 0.09677399999998215,
          "durationTicks": 120,
          "midi": 65,
          "name": "F4",
          "ticks": 403920,
          "time": 325.741284,
          "velocity": 0.31496062992125984
        },
        {
          "duration": 0.09677399999998215,
          "durationTicks": 120,
          "midi": 62,
          "name": "D4",
          "ticks": 404040,
          "time": 325.838058,
          "velocity": 0.31496062992125984
        },
        {
          "duration": 0.129032000000052,
          "durationTicks": 160,
          "midi": 65,
          "name": "F4",
          "ticks": 404160,
          "time": 325.934832,
          "velocity": 0.31496062992125984
        },
        {
          "duration": 0.1935479999999643,
          "durationTicks": 240,
          "midi": 58,
          "name": "A#3",
          "ticks": 404640,
          "time": 326.321928,
          "velocity": 0.31496062992125984
        },
        {
          "duration": 0.19354800000002115,
          "durationTicks": 240,
          "midi": 60,
          "name": "C4",
          "ticks": 404880,
          "time": 326.515476,
          "velocity": 0.31496062992125984
        },
        {
          "duration": 0.12903199999999515,
          "durationTicks": 160,
          "midi": 62,
          "name": "D4",
          "ticks": 405120,
          "time": 326.709024,
          "velocity": 0.31496062992125984
        },
        {
          "duration": 0.12903199999999515,
          "durationTicks": 160,
          "midi": 62,
          "name": "D4",
          "ticks": 405360,
          "time": 326.902572,
          "velocity": 0.31496062992125984
        },
        {
          "duration": 0.129032000000052,
          "durationTicks": 160,
          "midi": 62,
          "name": "D4",
          "ticks": 405600,
          "time": 327.09612,
          "velocity": 0.31496062992125984
        },
        {
          "duration": 0.12903199999999515,
          "durationTicks": 160,
          "midi": 62,
          "name": "D4",
          "ticks": 405840,
          "time": 327.289668,
          "velocity": 0.31496062992125984
        },
        {
          "duration": 0.129032000000052,
          "durationTicks": 160,
          "midi": 63,
          "name": "D#4",
          "ticks": 406080,
          "time": 327.48321599999997,
          "velocity": 0.31496062992125984
        },
        {
          "duration": 0.12903199999999515,
          "durationTicks": 160,
          "midi": 63,
          "name": "D#4",
          "ticks": 406320,
          "time": 327.676764,
          "velocity": 0.31496062992125984
        },
        {
          "duration": 0.12903199999999515,
          "durationTicks": 160,
          "midi": 64,
          "name": "E4",
          "ticks": 406560,
          "time": 327.870312,
          "velocity": 0.31496062992125984
        },
        {
          "duration": 0.129032000000052,
          "durationTicks": 160,
          "midi": 64,
          "name": "E4",
          "ticks": 406800,
          "time": 328.06386,
          "velocity": 0.31496062992125984
        },
        {
          "duration": 0.09677399999998215,
          "durationTicks": 120,
          "midi": 65,
          "name": "F4",
          "ticks": 407040,
          "time": 328.257408,
          "velocity": 0.31496062992125984
        },
        {
          "duration": 0.096774000000039,
          "durationTicks": 120,
          "midi": 62,
          "name": "D4",
          "ticks": 407160,
          "time": 328.354182,
          "velocity": 0.31496062992125984
        },
        {
          "duration": 0.09677399999998215,
          "durationTicks": 120,
          "midi": 65,
          "name": "F4",
          "ticks": 407280,
          "time": 328.450956,
          "velocity": 0.31496062992125984
        },
        {
          "duration": 0.09677399999998215,
          "durationTicks": 120,
          "midi": 62,
          "name": "D4",
          "ticks": 407400,
          "time": 328.54773,
          "velocity": 0.31496062992125984
        },
        {
          "duration": 0.096774000000039,
          "durationTicks": 120,
          "midi": 65,
          "name": "F4",
          "ticks": 407520,
          "time": 328.644504,
          "velocity": 0.31496062992125984
        },
        {
          "duration": 0.09677399999998215,
          "durationTicks": 120,
          "midi": 62,
          "name": "D4",
          "ticks": 407640,
          "time": 328.741278,
          "velocity": 0.31496062992125984
        },
        {
          "duration": 0.09677399999998215,
          "durationTicks": 120,
          "midi": 65,
          "name": "F4",
          "ticks": 407760,
          "time": 328.838052,
          "velocity": 0.31496062992125984
        },
        {
          "duration": 0.09677399999998215,
          "durationTicks": 120,
          "midi": 62,
          "name": "D4",
          "ticks": 407880,
          "time": 328.934826,
          "velocity": 0.31496062992125984
        },
        {
          "duration": 0.129032000000052,
          "durationTicks": 160,
          "midi": 65,
          "name": "F4",
          "ticks": 408000,
          "time": 329.03159999999997,
          "velocity": 0.31496062992125984
        },
        {
          "duration": 0.12903199999999515,
          "durationTicks": 160,
          "midi": 58,
          "name": "A#3",
          "ticks": 408240,
          "time": 329.225148,
          "velocity": 0.5511811023622047
        },
        {
          "duration": 0.12903199999999515,
          "durationTicks": 160,
          "midi": 63,
          "name": "D#4",
          "ticks": 408480,
          "time": 329.418696,
          "velocity": 0.5511811023622047
        },
        {
          "duration": 0.129032000000052,
          "durationTicks": 160,
          "midi": 67,
          "name": "G4",
          "ticks": 408720,
          "time": 329.612244,
          "velocity": 0.5511811023622047
        },
        {
          "duration": 0.12903199999999515,
          "durationTicks": 160,
          "midi": 70,
          "name": "A#4",
          "ticks": 408960,
          "time": 329.805792,
          "velocity": 0.5511811023622047
        },
        {
          "duration": 0.12903199999999515,
          "durationTicks": 160,
          "midi": 70,
          "name": "A#4",
          "ticks": 409200,
          "time": 329.99934,
          "velocity": 0.5511811023622047
        },
        {
          "duration": 0.129032000000052,
          "durationTicks": 160,
          "midi": 70,
          "name": "A#4",
          "ticks": 409440,
          "time": 330.192888,
          "velocity": 0.5511811023622047
        },
        {
          "duration": 0.12903199999999515,
          "durationTicks": 160,
          "midi": 70,
          "name": "A#4",
          "ticks": 409680,
          "time": 330.386436,
          "velocity": 0.5511811023622047
        },
        {
          "duration": 0.12903199999999515,
          "durationTicks": 160,
          "midi": 70,
          "name": "A#4",
          "ticks": 409920,
          "time": 330.579984,
          "velocity": 0.5511811023622047
        },
        {
          "duration": 0.12903199999999515,
          "durationTicks": 160,
          "midi": 70,
          "name": "A#4",
          "ticks": 410160,
          "time": 330.773532,
          "velocity": 0.5511811023622047
        },
        {
          "duration": 0.12903199999999515,
          "durationTicks": 160,
          "midi": 70,
          "name": "A#4",
          "ticks": 410400,
          "time": 330.96708,
          "velocity": 0.5511811023622047
        },
        {
          "duration": 0.129032000000052,
          "durationTicks": 160,
          "midi": 70,
          "name": "A#4",
          "ticks": 410640,
          "time": 331.160628,
          "velocity": 0.5511811023622047
        },
        {
          "duration": 0.12903199999999515,
          "durationTicks": 160,
          "midi": 70,
          "name": "A#4",
          "ticks": 410880,
          "time": 331.354176,
          "velocity": 0.5511811023622047
        },
        {
          "duration": 0.12903199999999515,
          "durationTicks": 160,
          "midi": 70,
          "name": "A#4",
          "ticks": 411120,
          "time": 331.547724,
          "velocity": 0.5511811023622047
        },
        {
          "duration": 0.129032000000052,
          "durationTicks": 160,
          "midi": 70,
          "name": "A#4",
          "ticks": 411360,
          "time": 331.741272,
          "velocity": 0.5511811023622047
        },
        {
          "duration": 0.12903199999999515,
          "durationTicks": 160,
          "midi": 70,
          "name": "A#4",
          "ticks": 411600,
          "time": 331.93482,
          "velocity": 0.5511811023622047
        },
        {
          "duration": 0.12903199999999515,
          "durationTicks": 160,
          "midi": 70,
          "name": "A#4",
          "ticks": 411840,
          "time": 332.128368,
          "velocity": 0.5511811023622047
        },
        {
          "duration": 0.12903199999999515,
          "durationTicks": 160,
          "midi": 70,
          "name": "A#4",
          "ticks": 412080,
          "time": 332.321916,
          "velocity": 0.5511811023622047
        },
        {
          "duration": 0.12903199999999515,
          "durationTicks": 160,
          "midi": 70,
          "name": "A#4",
          "ticks": 412320,
          "time": 332.515464,
          "velocity": 0.5511811023622047
        },
        {
          "duration": 0.129032000000052,
          "durationTicks": 160,
          "midi": 70,
          "name": "A#4",
          "ticks": 412560,
          "time": 332.709012,
          "velocity": 0.5511811023622047
        },
        {
          "duration": 0.1370964999999842,
          "durationTicks": 170,
          "midi": 70,
          "name": "A#4",
          "ticks": 412800,
          "time": 332.90256,
          "velocity": 0.5511811023622047
        },
        {
          "duration": 0.1935479999999643,
          "durationTicks": 240,
          "midi": 68,
          "name": "G#4",
          "ticks": 413040,
          "time": 333.096108,
          "velocity": 0.7086614173228346
        },
        {
          "duration": 0.19354800000002115,
          "durationTicks": 240,
          "midi": 67,
          "name": "G4",
          "ticks": 413280,
          "time": 333.289656,
          "velocity": 0.7086614173228346
        },
        {
          "duration": 0.19354800000002115,
          "durationTicks": 240,
          "midi": 65,
          "name": "F4",
          "ticks": 413520,
          "time": 333.483204,
          "velocity": 0.7086614173228346
        },
        {
          "duration": 0.1935479999999643,
          "durationTicks": 240,
          "midi": 63,
          "name": "D#4",
          "ticks": 413760,
          "time": 333.676752,
          "velocity": 0.7086614173228346
        },
        {
          "duration": 0.19354800000002115,
          "durationTicks": 240,
          "midi": 58,
          "name": "A#3",
          "ticks": 414000,
          "time": 333.8703,
          "velocity": 0.7086614173228346
        },
        {
          "duration": 0.1935479999999643,
          "durationTicks": 240,
          "midi": 62,
          "name": "D4",
          "ticks": 414240,
          "time": 334.063848,
          "velocity": 0.7086614173228346
        },
        {
          "duration": 0.19354800000002115,
          "durationTicks": 240,
          "midi": 56,
          "name": "G#3",
          "ticks": 414480,
          "time": 334.25739599999997,
          "velocity": 0.7086614173228346
        },
        {
          "duration": 0.12903199999999515,
          "durationTicks": 160,
          "midi": 55,
          "name": "G3",
          "ticks": 414720,
          "time": 334.450944,
          "velocity": 0.7086614173228346
        },
        {
          "duration": 0.129032000000052,
          "durationTicks": 160,
          "midi": 55,
          "name": "G3",
          "ticks": 415200,
          "time": 334.83804,
          "velocity": 0.7086614173228346
        },
        {
          "duration": 0.129032000000052,
          "durationTicks": 160,
          "midi": 63,
          "name": "D#4",
          "ticks": 415200,
          "time": 334.83804,
          "velocity": 0.7086614173228346
        },
        {
          "duration": 0.12903199999999515,
          "durationTicks": 160,
          "midi": 55,
          "name": "G3",
          "ticks": 415680,
          "time": 335.225136,
          "velocity": 0.7086614173228346
        },
        {
          "duration": 0.12903199999999515,
          "durationTicks": 160,
          "midi": 63,
          "name": "D#4",
          "ticks": 415680,
          "time": 335.225136,
          "velocity": 0.7086614173228346
        },
        {
          "duration": 0.6129020000000196,
          "durationTicks": 760,
          "midi": 63,
          "name": "D#4",
          "ticks": 416640,
          "time": 335.999328,
          "velocity": 0.31496062992125984
        },
        {
          "duration": 0.38709599999998545,
          "durationTicks": 480,
          "midi": 63,
          "name": "D#4",
          "ticks": 418080,
          "time": 337.160616,
          "velocity": 0.31496062992125984
        },
        {
          "duration": 0.6129020000000196,
          "durationTicks": 760,
          "midi": 62,
          "name": "D4",
          "ticks": 418560,
          "time": 337.547712,
          "velocity": 0.31496062992125984
        },
        {
          "duration": 0.38709599999998545,
          "durationTicks": 480,
          "midi": 65,
          "name": "F4",
          "ticks": 420000,
          "time": 338.709,
          "velocity": 0.31496062992125984
        },
        {
          "duration": 0.6129020000000196,
          "durationTicks": 760,
          "midi": 63,
          "name": "D#4",
          "ticks": 420480,
          "time": 339.096096,
          "velocity": 0.31496062992125984
        },
        {
          "duration": 0.38709599999998545,
          "durationTicks": 480,
          "midi": 63,
          "name": "D#4",
          "ticks": 421920,
          "time": 340.257384,
          "velocity": 0.31496062992125984
        },
        {
          "duration": 0.6129020000000196,
          "durationTicks": 760,
          "midi": 62,
          "name": "D4",
          "ticks": 422400,
          "time": 340.64448,
          "velocity": 0.31496062992125984
        },
        {
          "duration": 0.7741920000000277,
          "durationTicks": 960,
          "midi": 67,
          "name": "G4",
          "ticks": 424320,
          "time": 342.192864,
          "velocity": 0.31496062992125984
        },
        {
          "duration": 0.1370964999999842,
          "durationTicks": 170,
          "midi": 65,
          "name": "F4",
          "ticks": 425280,
          "time": 342.967056,
          "velocity": 0.31496062992125984
        },
        {
          "duration": 0.7741920000000277,
          "durationTicks": 960,
          "midi": 65,
          "name": "F4",
          "ticks": 426240,
          "time": 343.741248,
          "velocity": 0.31496062992125984
        },
        {
          "duration": 0.1370964999999842,
          "durationTicks": 170,
          "midi": 63,
          "name": "D#4",
          "ticks": 427200,
          "time": 344.51544,
          "velocity": 0.31496062992125984
        },
        {
          "duration": 0.129032000000052,
          "durationTicks": 160,
          "midi": 63,
          "name": "D#4",
          "ticks": 428160,
          "time": 345.289632,
          "velocity": 0.31496062992125984
        },
        {
          "duration": 0.12903199999999515,
          "durationTicks": 160,
          "midi": 62,
          "name": "D4",
          "ticks": 429120,
          "time": 346.063824,
          "velocity": 0.31496062992125984
        },
        {
          "duration": 0.129032000000052,
          "durationTicks": 160,
          "midi": 55,
          "name": "G3",
          "ticks": 430080,
          "time": 346.838016,
          "velocity": 0.31496062992125984
        },
        {
          "duration": 0.12903199999999515,
          "durationTicks": 160,
          "midi": 55,
          "name": "G3",
          "ticks": 430320,
          "time": 347.031564,
          "velocity": 0.31496062992125984
        },
        {
          "duration": 0.12903199999999515,
          "durationTicks": 160,
          "midi": 58,
          "name": "A#3",
          "ticks": 430560,
          "time": 347.225112,
          "velocity": 0.31496062992125984
        },
        {
          "duration": 0.12903199999999515,
          "durationTicks": 160,
          "midi": 58,
          "name": "A#3",
          "ticks": 430800,
          "time": 347.41866,
          "velocity": 0.31496062992125984
        },
        {
          "duration": 0.12903199999999515,
          "durationTicks": 160,
          "midi": 55,
          "name": "G3",
          "ticks": 431040,
          "time": 347.612208,
          "velocity": 0.31496062992125984
        },
        {
          "duration": 0.19354800000002115,
          "durationTicks": 240,
          "midi": 63,
          "name": "D#4",
          "ticks": 431280,
          "time": 347.805756,
          "velocity": 0.31496062992125984
        },
        {
          "duration": 0.19354800000002115,
          "durationTicks": 240,
          "midi": 62,
          "name": "D4",
          "ticks": 431520,
          "time": 347.999304,
          "velocity": 0.31496062992125984
        },
        {
          "duration": 0.1935479999999643,
          "durationTicks": 240,
          "midi": 60,
          "name": "C4",
          "ticks": 431760,
          "time": 348.192852,
          "velocity": 0.31496062992125984
        },
        {
          "duration": 0.129032000000052,
          "durationTicks": 160,
          "midi": 59,
          "name": "B3",
          "ticks": 432000,
          "time": 348.3864,
          "velocity": 0.31496062992125984
        },
        {
          "duration": 0.38709599999998545,
          "durationTicks": 480,
          "midi": 67,
          "name": "G4",
          "ticks": 435360,
          "time": 351.096072,
          "velocity": 0.31496062992125984
        },
        {
          "duration": 0.129032000000052,
          "durationTicks": 160,
          "midi": 65,
          "name": "F4",
          "ticks": 435840,
          "time": 351.483168,
          "velocity": 0.31496062992125984
        },
        {
          "duration": 0.7741920000000277,
          "durationTicks": 960,
          "midi": 67,
          "name": "G4",
          "ticks": 439680,
          "time": 354.579936,
          "velocity": 0.31496062992125984
        },
        {
          "duration": 0.1370964999999842,
          "durationTicks": 170,
          "midi": 65,
          "name": "F4",
          "ticks": 440640,
          "time": 355.354128,
          "velocity": 0.31496062992125984
        },
        {
          "duration": 0.7741920000000277,
          "durationTicks": 960,
          "midi": 65,
          "name": "F4",
          "ticks": 441600,
          "time": 356.12832,
          "velocity": 0.31496062992125984
        },
        {
          "duration": 0.1370964999999842,
          "durationTicks": 170,
          "midi": 63,
          "name": "D#4",
          "ticks": 442560,
          "time": 356.902512,
          "velocity": 0.31496062992125984
        },
        {
          "duration": 0.129032000000052,
          "durationTicks": 160,
          "midi": 63,
          "name": "D#4",
          "ticks": 443520,
          "time": 357.676704,
          "velocity": 0.31496062992125984
        },
        {
          "duration": 0.12903199999999515,
          "durationTicks": 160,
          "midi": 62,
          "name": "D4",
          "ticks": 444480,
          "time": 358.450896,
          "velocity": 0.31496062992125984
        },
        {
          "duration": 0.129032000000052,
          "durationTicks": 160,
          "midi": 55,
          "name": "G3",
          "ticks": 445440,
          "time": 359.22508799999997,
          "velocity": 0.31496062992125984
        },
        {
          "duration": 0.12903199999999515,
          "durationTicks": 160,
          "midi": 55,
          "name": "G3",
          "ticks": 445680,
          "time": 359.418636,
          "velocity": 0.31496062992125984
        },
        {
          "duration": 0.12903199999999515,
          "durationTicks": 160,
          "midi": 58,
          "name": "A#3",
          "ticks": 445920,
          "time": 359.612184,
          "velocity": 0.31496062992125984
        },
        {
          "duration": 0.129032000000052,
          "durationTicks": 160,
          "midi": 58,
          "name": "A#3",
          "ticks": 446160,
          "time": 359.805732,
          "velocity": 0.31496062992125984
        },
        {
          "duration": 0.12903199999999515,
          "durationTicks": 160,
          "midi": 55,
          "name": "G3",
          "ticks": 446400,
          "time": 359.99928,
          "velocity": 0.31496062992125984
        },
        {
          "duration": 0.19354800000002115,
          "durationTicks": 240,
          "midi": 58,
          "name": "A#3",
          "ticks": 446880,
          "time": 360.386376,
          "velocity": 0.31496062992125984
        },
        {
          "duration": 0.1935479999999643,
          "durationTicks": 240,
          "midi": 60,
          "name": "C4",
          "ticks": 447120,
          "time": 360.579924,
          "velocity": 0.31496062992125984
        },
        {
          "duration": 0.129032000000052,
          "durationTicks": 160,
          "midi": 62,
          "name": "D4",
          "ticks": 447360,
          "time": 360.77347199999997,
          "velocity": 0.31496062992125984
        },
        {
          "duration": 0.12903199999999515,
          "durationTicks": 160,
          "midi": 62,
          "name": "D4",
          "ticks": 447600,
          "time": 360.96702,
          "velocity": 0.31496062992125984
        },
        {
          "duration": 0.12903199999999515,
          "durationTicks": 160,
          "midi": 62,
          "name": "D4",
          "ticks": 447840,
          "time": 361.160568,
          "velocity": 0.31496062992125984
        },
        {
          "duration": 0.129032000000052,
          "durationTicks": 160,
          "midi": 62,
          "name": "D4",
          "ticks": 448080,
          "time": 361.354116,
          "velocity": 0.31496062992125984
        },
        {
          "duration": 0.12903199999999515,
          "durationTicks": 160,
          "midi": 63,
          "name": "D#4",
          "ticks": 448320,
          "time": 361.547664,
          "velocity": 0.31496062992125984
        },
        {
          "duration": 0.12903199999999515,
          "durationTicks": 160,
          "midi": 63,
          "name": "D#4",
          "ticks": 448560,
          "time": 361.741212,
          "velocity": 0.31496062992125984
        },
        {
          "duration": 0.129032000000052,
          "durationTicks": 160,
          "midi": 64,
          "name": "E4",
          "ticks": 448800,
          "time": 361.93476,
          "velocity": 0.31496062992125984
        },
        {
          "duration": 0.12903199999999515,
          "durationTicks": 160,
          "midi": 64,
          "name": "E4",
          "ticks": 449040,
          "time": 362.128308,
          "velocity": 0.31496062992125984
        },
        {
          "duration": 0.096774000000039,
          "durationTicks": 120,
          "midi": 65,
          "name": "F4",
          "ticks": 449280,
          "time": 362.32185599999997,
          "velocity": 0.31496062992125984
        },
        {
          "duration": 0.09677399999998215,
          "durationTicks": 120,
          "midi": 62,
          "name": "D4",
          "ticks": 449400,
          "time": 362.41863,
          "velocity": 0.31496062992125984
        },
        {
          "duration": 0.09677399999998215,
          "durationTicks": 120,
          "midi": 65,
          "name": "F4",
          "ticks": 449520,
          "time": 362.515404,
          "velocity": 0.31496062992125984
        },
        {
          "duration": 0.096774000000039,
          "durationTicks": 120,
          "midi": 62,
          "name": "D4",
          "ticks": 449640,
          "time": 362.612178,
          "velocity": 0.31496062992125984
        },
        {
          "duration": 0.09677399999998215,
          "durationTicks": 120,
          "midi": 65,
          "name": "F4",
          "ticks": 449760,
          "time": 362.708952,
          "velocity": 0.31496062992125984
        },
        {
          "duration": 0.09677399999998215,
          "durationTicks": 120,
          "midi": 62,
          "name": "D4",
          "ticks": 449880,
          "time": 362.805726,
          "velocity": 0.31496062992125984
        },
        {
          "duration": 0.096774000000039,
          "durationTicks": 120,
          "midi": 65,
          "name": "F4",
          "ticks": 450000,
          "time": 362.9025,
          "velocity": 0.31496062992125984
        },
        {
          "duration": 0.09677399999998215,
          "durationTicks": 120,
          "midi": 62,
          "name": "D4",
          "ticks": 450120,
          "time": 362.999274,
          "velocity": 0.31496062992125984
        },
        {
          "duration": 0.12903199999999515,
          "durationTicks": 160,
          "midi": 65,
          "name": "F4",
          "ticks": 450240,
          "time": 363.096048,
          "velocity": 0.31496062992125984
        },
        {
          "duration": 0.19354800000002115,
          "durationTicks": 240,
          "midi": 58,
          "name": "A#3",
          "ticks": 450720,
          "time": 363.483144,
          "velocity": 0.31496062992125984
        },
        {
          "duration": 0.19354800000002115,
          "durationTicks": 240,
          "midi": 60,
          "name": "C4",
          "ticks": 450960,
          "time": 363.676692,
          "velocity": 0.31496062992125984
        },
        {
          "duration": 0.12903199999999515,
          "durationTicks": 160,
          "midi": 62,
          "name": "D4",
          "ticks": 451200,
          "time": 363.87024,
          "velocity": 0.31496062992125984
        },
        {
          "duration": 0.12903199999999515,
          "durationTicks": 160,
          "midi": 62,
          "name": "D4",
          "ticks": 451440,
          "time": 364.063788,
          "velocity": 0.31496062992125984
        },
        {
          "duration": 0.12903199999999515,
          "durationTicks": 160,
          "midi": 62,
          "name": "D4",
          "ticks": 451680,
          "time": 364.257336,
          "velocity": 0.31496062992125984
        },
        {
          "duration": 0.129032000000052,
          "durationTicks": 160,
          "midi": 62,
          "name": "D4",
          "ticks": 451920,
          "time": 364.450884,
          "velocity": 0.31496062992125984
        },
        {
          "duration": 0.12903199999999515,
          "durationTicks": 160,
          "midi": 63,
          "name": "D#4",
          "ticks": 452160,
          "time": 364.644432,
          "velocity": 0.31496062992125984
        },
        {
          "duration": 0.12903199999999515,
          "durationTicks": 160,
          "midi": 63,
          "name": "D#4",
          "ticks": 452400,
          "time": 364.83798,
          "velocity": 0.31496062992125984
        },
        {
          "duration": 0.129032000000052,
          "durationTicks": 160,
          "midi": 64,
          "name": "E4",
          "ticks": 452640,
          "time": 365.031528,
          "velocity": 0.31496062992125984
        },
        {
          "duration": 0.12903199999999515,
          "durationTicks": 160,
          "midi": 64,
          "name": "E4",
          "ticks": 452880,
          "time": 365.225076,
          "velocity": 0.31496062992125984
        },
        {
          "duration": 0.09677399999998215,
          "durationTicks": 120,
          "midi": 65,
          "name": "F4",
          "ticks": 453120,
          "time": 365.418624,
          "velocity": 0.31496062992125984
        },
        {
          "duration": 0.09677399999998215,
          "durationTicks": 120,
          "midi": 62,
          "name": "D4",
          "ticks": 453240,
          "time": 365.515398,
          "velocity": 0.31496062992125984
        },
        {
          "duration": 0.09677399999998215,
          "durationTicks": 120,
          "midi": 65,
          "name": "F4",
          "ticks": 453360,
          "time": 365.612172,
          "velocity": 0.31496062992125984
        },
        {
          "duration": 0.096774000000039,
          "durationTicks": 120,
          "midi": 62,
          "name": "D4",
          "ticks": 453480,
          "time": 365.70894599999997,
          "velocity": 0.31496062992125984
        },
        {
          "duration": 0.09677399999998215,
          "durationTicks": 120,
          "midi": 65,
          "name": "F4",
          "ticks": 453600,
          "time": 365.80572,
          "velocity": 0.31496062992125984
        },
        {
          "duration": 0.09677399999998215,
          "durationTicks": 120,
          "midi": 62,
          "name": "D4",
          "ticks": 453720,
          "time": 365.902494,
          "velocity": 0.31496062992125984
        },
        {
          "duration": 0.096774000000039,
          "durationTicks": 120,
          "midi": 65,
          "name": "F4",
          "ticks": 453840,
          "time": 365.999268,
          "velocity": 0.31496062992125984
        },
        {
          "duration": 0.09677399999998215,
          "durationTicks": 120,
          "midi": 62,
          "name": "D4",
          "ticks": 453960,
          "time": 366.096042,
          "velocity": 0.31496062992125984
        },
        {
          "duration": 0.12903199999999515,
          "durationTicks": 160,
          "midi": 65,
          "name": "F4",
          "ticks": 454080,
          "time": 366.192816,
          "velocity": 0.31496062992125984
        },
        {
          "duration": 0.12903199999999515,
          "durationTicks": 160,
          "midi": 58,
          "name": "A#3",
          "ticks": 454320,
          "time": 366.386364,
          "velocity": 0.5511811023622047
        },
        {
          "duration": 0.129032000000052,
          "durationTicks": 160,
          "midi": 63,
          "name": "D#4",
          "ticks": 454560,
          "time": 366.579912,
          "velocity": 0.5511811023622047
        },
        {
          "duration": 0.12903199999999515,
          "durationTicks": 160,
          "midi": 67,
          "name": "G4",
          "ticks": 454800,
          "time": 366.77346,
          "velocity": 0.5511811023622047
        },
        {
          "duration": 0.12903199999999515,
          "durationTicks": 160,
          "midi": 70,
          "name": "A#4",
          "ticks": 455040,
          "time": 366.967008,
          "velocity": 0.5511811023622047
        },
        {
          "duration": 0.129032000000052,
          "durationTicks": 160,
          "midi": 70,
          "name": "A#4",
          "ticks": 455280,
          "time": 367.160556,
          "velocity": 0.5511811023622047
        },
        {
          "duration": 0.12903199999999515,
          "durationTicks": 160,
          "midi": 70,
          "name": "A#4",
          "ticks": 455520,
          "time": 367.354104,
          "velocity": 0.5511811023622047
        },
        {
          "duration": 0.129032000000052,
          "durationTicks": 160,
          "midi": 70,
          "name": "A#4",
          "ticks": 455760,
          "time": 367.54765199999997,
          "velocity": 0.5511811023622047
        },
        {
          "duration": 0.12903199999999515,
          "durationTicks": 160,
          "midi": 70,
          "name": "A#4",
          "ticks": 456000,
          "time": 367.7412,
          "velocity": 0.5511811023622047
        },
        {
          "duration": 0.12903199999999515,
          "durationTicks": 160,
          "midi": 70,
          "name": "A#4",
          "ticks": 456240,
          "time": 367.934748,
          "velocity": 0.5511811023622047
        },
        {
          "duration": 0.129032000000052,
          "durationTicks": 160,
          "midi": 70,
          "name": "A#4",
          "ticks": 456480,
          "time": 368.128296,
          "velocity": 0.5511811023622047
        },
        {
          "duration": 0.12903199999999515,
          "durationTicks": 160,
          "midi": 70,
          "name": "A#4",
          "ticks": 456720,
          "time": 368.321844,
          "velocity": 0.5511811023622047
        },
        {
          "duration": 0.12903199999999515,
          "durationTicks": 160,
          "midi": 70,
          "name": "A#4",
          "ticks": 456960,
          "time": 368.515392,
          "velocity": 0.5511811023622047
        },
        {
          "duration": 0.129032000000052,
          "durationTicks": 160,
          "midi": 70,
          "name": "A#4",
          "ticks": 457200,
          "time": 368.70894,
          "velocity": 0.5511811023622047
        },
        {
          "duration": 0.12903199999999515,
          "durationTicks": 160,
          "midi": 70,
          "name": "A#4",
          "ticks": 457440,
          "time": 368.902488,
          "velocity": 0.5511811023622047
        },
        {
          "duration": 0.129032000000052,
          "durationTicks": 160,
          "midi": 70,
          "name": "A#4",
          "ticks": 457680,
          "time": 369.09603599999997,
          "velocity": 0.5511811023622047
        },
        {
          "duration": 0.12903199999999515,
          "durationTicks": 160,
          "midi": 70,
          "name": "A#4",
          "ticks": 457920,
          "time": 369.289584,
          "velocity": 0.5511811023622047
        },
        {
          "duration": 0.12903199999999515,
          "durationTicks": 160,
          "midi": 70,
          "name": "A#4",
          "ticks": 458160,
          "time": 369.483132,
          "velocity": 0.5511811023622047
        },
        {
          "duration": 0.129032000000052,
          "durationTicks": 160,
          "midi": 70,
          "name": "A#4",
          "ticks": 458400,
          "time": 369.67668,
          "velocity": 0.5511811023622047
        },
        {
          "duration": 0.12903199999999515,
          "durationTicks": 160,
          "midi": 70,
          "name": "A#4",
          "ticks": 458640,
          "time": 369.870228,
          "velocity": 0.5511811023622047
        },
        {
          "duration": 0.1370964999999842,
          "durationTicks": 170,
          "midi": 70,
          "name": "A#4",
          "ticks": 458880,
          "time": 370.063776,
          "velocity": 0.5511811023622047
        },
        {
          "duration": 0.19354800000002115,
          "durationTicks": 240,
          "midi": 68,
          "name": "G#4",
          "ticks": 459120,
          "time": 370.257324,
          "velocity": 0.7086614173228346
        },
        {
          "duration": 0.1935479999999643,
          "durationTicks": 240,
          "midi": 67,
          "name": "G4",
          "ticks": 459360,
          "time": 370.450872,
          "velocity": 0.7086614173228346
        },
        {
          "duration": 0.19354800000002115,
          "durationTicks": 240,
          "midi": 65,
          "name": "F4",
          "ticks": 459600,
          "time": 370.64441999999997,
          "velocity": 0.7086614173228346
        },
        {
          "duration": 0.19354800000002115,
          "durationTicks": 240,
          "midi": 63,
          "name": "D#4",
          "ticks": 459840,
          "time": 370.837968,
          "velocity": 0.7086614173228346
        },
        {
          "duration": 0.1935479999999643,
          "durationTicks": 240,
          "midi": 58,
          "name": "A#3",
          "ticks": 460080,
          "time": 371.031516,
          "velocity": 0.7086614173228346
        },
        {
          "duration": 0.19354800000002115,
          "durationTicks": 240,
          "midi": 62,
          "name": "D4",
          "ticks": 460320,
          "time": 371.225064,
          "velocity": 0.7086614173228346
        },
        {
          "duration": 0.19354800000002115,
          "durationTicks": 240,
          "midi": 56,
          "name": "G#3",
          "ticks": 460560,
          "time": 371.418612,
          "velocity": 0.7086614173228346
        },
        {
          "duration": 0.12903199999999515,
          "durationTicks": 160,
          "midi": 55,
          "name": "G3",
          "ticks": 460800,
          "time": 371.61216,
          "velocity": 0.7086614173228346
        },
        {
          "duration": 0.12903199999999515,
          "durationTicks": 160,
          "midi": 55,
          "name": "G3",
          "ticks": 461280,
          "time": 371.999256,
          "velocity": 0.7086614173228346
        },
        {
          "duration": 0.12903199999999515,
          "durationTicks": 160,
          "midi": 63,
          "name": "D#4",
          "ticks": 461280,
          "time": 371.999256,
          "velocity": 0.7086614173228346
        },
        {
          "duration": 0.12903199999999515,
          "durationTicks": 160,
          "midi": 55,
          "name": "G3",
          "ticks": 461760,
          "time": 372.386352,
          "velocity": 0.7086614173228346
        },
        {
          "duration": 0.12903199999999515,
          "durationTicks": 160,
          "midi": 63,
          "name": "D#4",
          "ticks": 461760,
          "time": 372.386352,
          "velocity": 0.7086614173228346
        },
        {
          "duration": 0.129032000000052,
          "durationTicks": 160,
          "midi": 67,
          "name": "G4",
          "ticks": 486240,
          "time": 392.128248,
          "velocity": 0.31496062992125984
        },
        {
          "duration": 0.12903199999999515,
          "durationTicks": 160,
          "midi": 65,
          "name": "F4",
          "ticks": 487200,
          "time": 392.90244,
          "velocity": 0.31496062992125984
        },
        {
          "duration": 0.129032000000052,
          "durationTicks": 160,
          "midi": 65,
          "name": "F4",
          "ticks": 488160,
          "time": 393.676632,
          "velocity": 0.31496062992125984
        },
        {
          "duration": 0.12903199999999515,
          "durationTicks": 160,
          "midi": 63,
          "name": "D#4",
          "ticks": 489120,
          "time": 394.450824,
          "velocity": 0.31496062992125984
        },
        {
          "duration": 0.129032000000052,
          "durationTicks": 160,
          "midi": 63,
          "name": "D#4",
          "ticks": 490080,
          "time": 395.225016,
          "velocity": 0.31496062992125984
        },
        {
          "duration": 0.12903199999999515,
          "durationTicks": 160,
          "midi": 56,
          "name": "G#3",
          "ticks": 491040,
          "time": 395.999208,
          "velocity": 0.31496062992125984
        },
        {
          "duration": 2,
          "durationTicks": 960,
          "midi": 55,
          "name": "G3",
          "ticks": 491520,
          "time": 396.386304,
          "velocity": 0.31496062992125984
        },
        {
          "duration": 2,
          "durationTicks": 960,
          "midi": 57,
          "name": "A3",
          "ticks": 492480,
          "time": 398.386304,
          "velocity": 0.31496062992125984
        },
        {
          "duration": 2,
          "durationTicks": 960,
          "midi": 58,
          "name": "A#3",
          "ticks": 493440,
          "time": 400.386304,
          "velocity": 0.31496062992125984
        },
        {
          "duration": 2,
          "durationTicks": 960,
          "midi": 56,
          "name": "G#3",
          "ticks": 494400,
          "time": 402.386304,
          "velocity": 0.31496062992125984
        },
        {
          "duration": 2,
          "durationTicks": 960,
          "midi": 55,
          "name": "G3",
          "ticks": 495360,
          "time": 404.386304,
          "velocity": 0.31496062992125984
        },
        {
          "duration": 1.6041666666666856,
          "durationTicks": 770,
          "midi": 57,
          "name": "A3",
          "ticks": 496320,
          "time": 406.386304,
          "velocity": 0.31496062992125984
        },
        {
          "duration": 0.9916666666666742,
          "durationTicks": 476,
          "midi": 56,
          "name": "G#3",
          "ticks": 497280,
          "time": 408.386304,
          "velocity": 0.31496062992125984
        },
        {
          "duration": 0.16666666666668561,
          "durationTicks": 80,
          "midi": 65,
          "name": "F4",
          "ticks": 498120,
          "time": 410.136304,
          "velocity": 0.5905511811023622
        },
        {
          "duration": 0.4583333333333144,
          "durationTicks": 220,
          "midi": 65,
          "name": "F4",
          "ticks": 498240,
          "time": 410.386304,
          "velocity": 0.5905511811023622
        },
        {
          "duration": 0.16666666666668561,
          "durationTicks": 80,
          "midi": 65,
          "name": "F4",
          "ticks": 498600,
          "time": 411.136304,
          "velocity": 0.5905511811023622
        },
        {
          "duration": 0.4583333333333144,
          "durationTicks": 220,
          "midi": 65,
          "name": "F4",
          "ticks": 498720,
          "time": 411.386304,
          "velocity": 0.5905511811023622
        },
        {
          "duration": 0.16666666666668561,
          "durationTicks": 80,
          "midi": 65,
          "name": "F4",
          "ticks": 499080,
          "time": 412.136304,
          "velocity": 0.5905511811023622
        },
        {
          "duration": 0.9916666666666742,
          "durationTicks": 476,
          "midi": 65,
          "name": "F4",
          "ticks": 499200,
          "time": 412.386304,
          "velocity": 0.5905511811023622
        },
        {
          "duration": 0.16666666666668561,
          "durationTicks": 80,
          "midi": 65,
          "name": "F4",
          "ticks": 500040,
          "time": 414.136304,
          "velocity": 0.5905511811023622
        },
        {
          "duration": 0.4583333333333144,
          "durationTicks": 220,
          "midi": 65,
          "name": "F4",
          "ticks": 500160,
          "time": 414.386304,
          "velocity": 0.5905511811023622
        },
        {
          "duration": 0.16666666666668561,
          "durationTicks": 80,
          "midi": 65,
          "name": "F4",
          "ticks": 500520,
          "time": 415.136304,
          "velocity": 0.5905511811023622
        },
        {
          "duration": 0.4583333333333144,
          "durationTicks": 220,
          "midi": 65,
          "name": "F4",
          "ticks": 500640,
          "time": 415.386304,
          "velocity": 0.5905511811023622
        },
        {
          "duration": 0.16666666666668561,
          "durationTicks": 80,
          "midi": 65,
          "name": "F4",
          "ticks": 501000,
          "time": 416.136304,
          "velocity": 0.5905511811023622
        },
        {
          "duration": 1.6041666666666856,
          "durationTicks": 770,
          "midi": 65,
          "name": "F4",
          "ticks": 501120,
          "time": 416.386304,
          "velocity": 0.5905511811023622
        },
        {
          "duration": 1.9916666666666742,
          "durationTicks": 956,
          "midi": 65,
          "name": "F4",
          "ticks": 502080,
          "time": 418.386304,
          "velocity": 0.5905511811023622
        },
        {
          "duration": 0.16666666666662877,
          "durationTicks": 160,
          "midi": 63,
          "name": "D#4",
          "ticks": 504720,
          "time": 423.3446373333334,
          "velocity": 0.31496062992125984
        },
        {
          "duration": 0.16666666666662877,
          "durationTicks": 160,
          "midi": 63,
          "name": "D#4",
          "ticks": 504960,
          "time": 423.5946373333334,
          "velocity": 0.31496062992125984
        },
        {
          "duration": 0.16666666666662877,
          "durationTicks": 160,
          "midi": 63,
          "name": "D#4",
          "ticks": 505200,
          "time": 423.8446373333334,
          "velocity": 0.31496062992125984
        },
        {
          "duration": 0.16666666666662877,
          "durationTicks": 160,
          "midi": 63,
          "name": "D#4",
          "ticks": 505440,
          "time": 424.0946373333334,
          "velocity": 0.31496062992125984
        },
        {
          "duration": 0.16666666666662877,
          "durationTicks": 160,
          "midi": 63,
          "name": "D#4",
          "ticks": 505680,
          "time": 424.3446373333334,
          "velocity": 0.31496062992125984
        },
        {
          "duration": 0.16666666666662877,
          "durationTicks": 160,
          "midi": 65,
          "name": "F4",
          "ticks": 506160,
          "time": 424.8446373333334,
          "velocity": 0.31496062992125984
        },
        {
          "duration": 0.16666666666662877,
          "durationTicks": 160,
          "midi": 65,
          "name": "F4",
          "ticks": 506400,
          "time": 425.0946373333334,
          "velocity": 0.31496062992125984
        },
        {
          "duration": 0.16666666666662877,
          "durationTicks": 160,
          "midi": 65,
          "name": "F4",
          "ticks": 506640,
          "time": 425.3446373333334,
          "velocity": 0.31496062992125984
        },
        {
          "duration": 0.16666666666662877,
          "durationTicks": 160,
          "midi": 65,
          "name": "F4",
          "ticks": 506880,
          "time": 425.5946373333334,
          "velocity": 0.31496062992125984
        },
        {
          "duration": 0.16666666666662877,
          "durationTicks": 160,
          "midi": 65,
          "name": "F4",
          "ticks": 507120,
          "time": 425.8446373333334,
          "velocity": 0.31496062992125984
        },
        {
          "duration": 0.16666666666662877,
          "durationTicks": 160,
          "midi": 63,
          "name": "D#4",
          "ticks": 507600,
          "time": 426.3446373333334,
          "velocity": 0.31496062992125984
        },
        {
          "duration": 0.16666666666662877,
          "durationTicks": 160,
          "midi": 63,
          "name": "D#4",
          "ticks": 507840,
          "time": 426.5946373333334,
          "velocity": 0.31496062992125984
        },
        {
          "duration": 0.16666666666662877,
          "durationTicks": 160,
          "midi": 65,
          "name": "F4",
          "ticks": 508320,
          "time": 427.0946373333334,
          "velocity": 0.31496062992125984
        },
        {
          "duration": 0.16666666666662877,
          "durationTicks": 160,
          "midi": 65,
          "name": "F4",
          "ticks": 508560,
          "time": 427.3446373333334,
          "velocity": 0.31496062992125984
        },
        {
          "duration": 0.5,
          "durationTicks": 480,
          "midi": 65,
          "name": "F4",
          "ticks": 508800,
          "time": 427.5946373333334,
          "velocity": 0.31496062992125984
        },
        {
          "duration": 0.25,
          "durationTicks": 240,
          "midi": 63,
          "name": "D#4",
          "ticks": 509280,
          "time": 428.0946373333334,
          "velocity": 0.31496062992125984
        },
        {
          "duration": 0.3020833333333144,
          "durationTicks": 290,
          "midi": 62,
          "name": "D4",
          "ticks": 509520,
          "time": 428.3446373333334,
          "velocity": 0.31496062992125984
        },
        {
          "duration": 0.703125,
          "durationTicks": 675,
          "midi": 67,
          "name": "G4",
          "ticks": 510240,
          "time": 429.0946373333334,
          "velocity": 0.31496062992125984
        },
        {
          "duration": 1.203125,
          "durationTicks": 1155,
          "midi": 65,
          "name": "F4",
          "ticks": 510960,
          "time": 429.8446373333334,
          "velocity": 0.31496062992125984
        },
        {
          "duration": 0.703125,
          "durationTicks": 675,
          "midi": 63,
          "name": "D#4",
          "ticks": 512400,
          "time": 431.3446373333334,
          "velocity": 0.31496062992125984
        },
        {
          "duration": 0.47916666666662877,
          "durationTicks": 460,
          "midi": 68,
          "name": "G#4",
          "ticks": 513120,
          "time": 432.0946373333334,
          "velocity": 0.31496062992125984
        },
        {
          "duration": 0.47916666666662877,
          "durationTicks": 460,
          "midi": 62,
          "name": "D4",
          "ticks": 513840,
          "time": 432.8446373333334,
          "velocity": 0.31496062992125984
        },
        {
          "duration": 0.16666666666662877,
          "durationTicks": 160,
          "midi": 63,
          "name": "D#4",
          "ticks": 514560,
          "time": 433.5946373333334,
          "velocity": 0.5511811023622047
        },
        {
          "duration": 0.16666666666662877,
          "durationTicks": 160,
          "midi": 63,
          "name": "D#4",
          "ticks": 514800,
          "time": 433.8446373333334,
          "velocity": 0.5511811023622047
        },
        {
          "duration": 0.16666666666662877,
          "durationTicks": 160,
          "midi": 63,
          "name": "D#4",
          "ticks": 515040,
          "time": 434.0946373333334,
          "velocity": 0.5511811023622047
        },
        {
          "duration": 0.41666666666662877,
          "durationTicks": 400,
          "midi": 63,
          "name": "D#4",
          "ticks": 515280,
          "time": 434.3446373333334,
          "velocity": 0.5511811023622047
        },
        {
          "duration": 0.16666666666662877,
          "durationTicks": 160,
          "midi": 62,
          "name": "D4",
          "ticks": 516240,
          "time": 435.3446373333334,
          "velocity": 0.31496062992125984
        },
        {
          "duration": 0.16666666666662877,
          "durationTicks": 160,
          "midi": 62,
          "name": "D4",
          "ticks": 516480,
          "time": 435.5946373333334,
          "velocity": 0.31496062992125984
        },
        {
          "duration": 0.16666666666662877,
          "durationTicks": 160,
          "midi": 62,
          "name": "D4",
          "ticks": 516960,
          "time": 436.0946373333334,
          "velocity": 0.31496062992125984
        },
        {
          "duration": 0.16666666666662877,
          "durationTicks": 160,
          "midi": 62,
          "name": "D4",
          "ticks": 517200,
          "time": 436.3446373333334,
          "velocity": 0.31496062992125984
        },
        {
          "duration": 0.16666666666662877,
          "durationTicks": 160,
          "midi": 63,
          "name": "D#4",
          "ticks": 517680,
          "time": 436.8446373333334,
          "velocity": 0.31496062992125984
        },
        {
          "duration": 0.16666666666662877,
          "durationTicks": 160,
          "midi": 63,
          "name": "D#4",
          "ticks": 517920,
          "time": 437.0946373333334,
          "velocity": 0.31496062992125984
        },
        {
          "duration": 0.17708333333331439,
          "durationTicks": 170,
          "midi": 63,
          "name": "D#4",
          "ticks": 518160,
          "time": 437.3446373333334,
          "velocity": 0.31496062992125984
        },
        {
          "duration": 0.16666666666662877,
          "durationTicks": 160,
          "midi": 60,
          "name": "C4",
          "ticks": 519120,
          "time": 438.3446373333334,
          "velocity": 0.31496062992125984
        },
        {
          "duration": 0.16666666666662877,
          "durationTicks": 160,
          "midi": 60,
          "name": "C4",
          "ticks": 519360,
          "time": 438.5946373333334,
          "velocity": 0.31496062992125984
        },
        {
          "duration": 0.16666666666662877,
          "durationTicks": 160,
          "midi": 60,
          "name": "C4",
          "ticks": 519840,
          "time": 439.0946373333334,
          "velocity": 0.31496062992125984
        },
        {
          "duration": 0.16666666666662877,
          "durationTicks": 160,
          "midi": 60,
          "name": "C4",
          "ticks": 520080,
          "time": 439.3446373333334,
          "velocity": 0.31496062992125984
        },
        {
          "duration": 0.16666666666662877,
          "durationTicks": 160,
          "midi": 62,
          "name": "D4",
          "ticks": 520560,
          "time": 439.8446373333334,
          "velocity": 0.31496062992125984
        },
        {
          "duration": 0.16666666666662877,
          "durationTicks": 160,
          "midi": 62,
          "name": "D4",
          "ticks": 520800,
          "time": 440.0946373333334,
          "velocity": 0.31496062992125984
        },
        {
          "duration": 0.17708333333331439,
          "durationTicks": 170,
          "midi": 62,
          "name": "D4",
          "ticks": 521040,
          "time": 440.3446373333334,
          "velocity": 0.31496062992125984
        },
        {
          "duration": 0.703125,
          "durationTicks": 675,
          "midi": 67,
          "name": "G4",
          "ticks": 521760,
          "time": 441.0946373333334,
          "velocity": 0.31496062992125984
        },
        {
          "duration": 1.203125,
          "durationTicks": 1155,
          "midi": 65,
          "name": "F4",
          "ticks": 522480,
          "time": 441.8446373333334,
          "velocity": 0.31496062992125984
        },
        {
          "duration": 0.703125,
          "durationTicks": 675,
          "midi": 63,
          "name": "D#4",
          "ticks": 523920,
          "time": 443.3446373333334,
          "velocity": 0.31496062992125984
        },
        {
          "duration": 0.47916666666662877,
          "durationTicks": 460,
          "midi": 68,
          "name": "G#4",
          "ticks": 524640,
          "time": 444.0946373333334,
          "velocity": 0.31496062992125984
        },
        {
          "duration": 0.47916666666662877,
          "durationTicks": 460,
          "midi": 62,
          "name": "D4",
          "ticks": 525360,
          "time": 444.8446373333334,
          "velocity": 0.31496062992125984
        },
        {
          "duration": 0.16666666666662877,
          "durationTicks": 160,
          "midi": 63,
          "name": "D#4",
          "ticks": 526080,
          "time": 445.5946373333334,
          "velocity": 0.31496062992125984
        },
        {
          "duration": 0.16666666666662877,
          "durationTicks": 160,
          "midi": 75,
          "name": "D#5",
          "ticks": 526320,
          "time": 445.8446373333334,
          "velocity": 0.31496062992125984
        },
        {
          "duration": 0.16666666666662877,
          "durationTicks": 160,
          "midi": 77,
          "name": "F5",
          "ticks": 526560,
          "time": 446.0946373333334,
          "velocity": 0.31496062992125984
        },
        {
          "duration": 0.16666666666662877,
          "durationTicks": 160,
          "midi": 79,
          "name": "G5",
          "ticks": 526800,
          "time": 446.3446373333334,
          "velocity": 0.31496062992125984
        },
        {
          "duration": 0.16666666666662877,
          "durationTicks": 160,
          "midi": 79,
          "name": "G5",
          "ticks": 527040,
          "time": 446.5946373333334,
          "velocity": 0.31496062992125984
        },
        {
          "duration": 0.16666666666662877,
          "durationTicks": 160,
          "midi": 79,
          "name": "G5",
          "ticks": 527280,
          "time": 446.8446373333334,
          "velocity": 0.31496062992125984
        },
        {
          "duration": 0.578125,
          "durationTicks": 555,
          "midi": 79,
          "name": "G5",
          "ticks": 527520,
          "time": 447.0946373333334,
          "velocity": 0.31496062992125984
        },
        {
          "duration": 1.3020833333333144,
          "durationTicks": 1250,
          "midi": 77,
          "name": "F5",
          "ticks": 528240,
          "time": 447.8446373333334,
          "velocity": 0.31496062992125984
        },
        {
          "duration": 0.703125,
          "durationTicks": 675,
          "midi": 75,
          "name": "D#5",
          "ticks": 529680,
          "time": 449.3446373333334,
          "velocity": 0.31496062992125984
        },
        {
          "duration": 0.16666666666662877,
          "durationTicks": 160,
          "midi": 63,
          "name": "D#4",
          "ticks": 530400,
          "time": 450.0946373333334,
          "velocity": 0.31496062992125984
        },
        {
          "duration": 0.16666666666662877,
          "durationTicks": 160,
          "midi": 75,
          "name": "D#5",
          "ticks": 530400,
          "time": 450.0946373333334,
          "velocity": 0.31496062992125984
        },
        {
          "duration": 0.16666666666662877,
          "durationTicks": 160,
          "midi": 63,
          "name": "D#4",
          "ticks": 530640,
          "time": 450.3446373333334,
          "velocity": 0.31496062992125984
        },
        {
          "duration": 0.16666666666662877,
          "durationTicks": 160,
          "midi": 75,
          "name": "D#5",
          "ticks": 530640,
          "time": 450.3446373333334,
          "velocity": 0.31496062992125984
        },
        {
          "duration": 0.16666666666662877,
          "durationTicks": 160,
          "midi": 63,
          "name": "D#4",
          "ticks": 530880,
          "time": 450.5946373333334,
          "velocity": 0.31496062992125984
        },
        {
          "duration": 0.16666666666662877,
          "durationTicks": 160,
          "midi": 75,
          "name": "D#5",
          "ticks": 530880,
          "time": 450.5946373333334,
          "velocity": 0.31496062992125984
        },
        {
          "duration": 0.16666666666662877,
          "durationTicks": 160,
          "midi": 63,
          "name": "D#4",
          "ticks": 531120,
          "time": 450.8446373333334,
          "velocity": 0.31496062992125984
        },
        {
          "duration": 0.16666666666662877,
          "durationTicks": 160,
          "midi": 75,
          "name": "D#5",
          "ticks": 531120,
          "time": 450.8446373333334,
          "velocity": 0.31496062992125984
        },
        {
          "duration": 0.16666666666662877,
          "durationTicks": 160,
          "midi": 63,
          "name": "D#4",
          "ticks": 531360,
          "time": 451.0946373333334,
          "velocity": 0.31496062992125984
        },
        {
          "duration": 0.16666666666662877,
          "durationTicks": 160,
          "midi": 75,
          "name": "D#5",
          "ticks": 531360,
          "time": 451.0946373333334,
          "velocity": 0.31496062992125984
        },
        {
          "duration": 0.16666666666662877,
          "durationTicks": 160,
          "midi": 63,
          "name": "D#4",
          "ticks": 531600,
          "time": 451.3446373333334,
          "velocity": 0.31496062992125984
        },
        {
          "duration": 0.16666666666662877,
          "durationTicks": 160,
          "midi": 75,
          "name": "D#5",
          "ticks": 531600,
          "time": 451.3446373333334,
          "velocity": 0.31496062992125984
        },
        {
          "duration": 0.16666666666662877,
          "durationTicks": 160,
          "midi": 63,
          "name": "D#4",
          "ticks": 531840,
          "time": 451.5946373333334,
          "velocity": 0.31496062992125984
        },
        {
          "duration": 0.16666666666662877,
          "durationTicks": 160,
          "midi": 75,
          "name": "D#5",
          "ticks": 531840,
          "time": 451.5946373333334,
          "velocity": 0.31496062992125984
        },
        {
          "duration": 0.16666666666662877,
          "durationTicks": 160,
          "midi": 63,
          "name": "D#4",
          "ticks": 532080,
          "time": 451.8446373333334,
          "velocity": 0.31496062992125984
        },
        {
          "duration": 0.16666666666662877,
          "durationTicks": 160,
          "midi": 75,
          "name": "D#5",
          "ticks": 532080,
          "time": 451.8446373333334,
          "velocity": 0.31496062992125984
        },
        {
          "duration": 0.16666666666662877,
          "durationTicks": 160,
          "midi": 63,
          "name": "D#4",
          "ticks": 532320,
          "time": 452.0946373333334,
          "velocity": 0.31496062992125984
        },
        {
          "duration": 0.16666666666662877,
          "durationTicks": 160,
          "midi": 75,
          "name": "D#5",
          "ticks": 532320,
          "time": 452.0946373333334,
          "velocity": 0.31496062992125984
        },
        {
          "duration": 0.16666666666662877,
          "durationTicks": 160,
          "midi": 63,
          "name": "D#4",
          "ticks": 532560,
          "time": 452.3446373333334,
          "velocity": 0.31496062992125984
        },
        {
          "duration": 0.16666666666662877,
          "durationTicks": 160,
          "midi": 75,
          "name": "D#5",
          "ticks": 532560,
          "time": 452.3446373333334,
          "velocity": 0.31496062992125984
        },
        {
          "duration": 0.16666666666662877,
          "durationTicks": 160,
          "midi": 63,
          "name": "D#4",
          "ticks": 532800,
          "time": 452.5946373333334,
          "velocity": 0.31496062992125984
        },
        {
          "duration": 0.16666666666662877,
          "durationTicks": 160,
          "midi": 75,
          "name": "D#5",
          "ticks": 532800,
          "time": 452.5946373333334,
          "velocity": 0.31496062992125984
        },
        {
          "duration": 0.16666666666662877,
          "durationTicks": 160,
          "midi": 63,
          "name": "D#4",
          "ticks": 533040,
          "time": 452.8446373333334,
          "velocity": 0.31496062992125984
        },
        {
          "duration": 0.16666666666662877,
          "durationTicks": 160,
          "midi": 75,
          "name": "D#5",
          "ticks": 533040,
          "time": 452.8446373333334,
          "velocity": 0.31496062992125984
        },
        {
          "duration": 0.16666666666662877,
          "durationTicks": 160,
          "midi": 63,
          "name": "D#4",
          "ticks": 533280,
          "time": 453.0946373333334,
          "velocity": 0.6299212598425197
        },
        {
          "duration": 0.16666666666662877,
          "durationTicks": 160,
          "midi": 75,
          "name": "D#5",
          "ticks": 533280,
          "time": 453.0946373333334,
          "velocity": 0.6299212598425197
        },
        {
          "duration": 0.16666666666662877,
          "durationTicks": 160,
          "midi": 63,
          "name": "D#4",
          "ticks": 533520,
          "time": 453.3446373333334,
          "velocity": 0.6299212598425197
        },
        {
          "duration": 0.16666666666662877,
          "durationTicks": 160,
          "midi": 75,
          "name": "D#5",
          "ticks": 533520,
          "time": 453.3446373333334,
          "velocity": 0.6299212598425197
        },
        {
          "duration": 0.16666666666662877,
          "durationTicks": 160,
          "midi": 63,
          "name": "D#4",
          "ticks": 533760,
          "time": 453.5946373333334,
          "velocity": 0.6299212598425197
        },
        {
          "duration": 0.16666666666662877,
          "durationTicks": 160,
          "midi": 75,
          "name": "D#5",
          "ticks": 533760,
          "time": 453.5946373333334,
          "velocity": 0.6299212598425197
        },
        {
          "duration": 0.16666666666662877,
          "durationTicks": 160,
          "midi": 63,
          "name": "D#4",
          "ticks": 534000,
          "time": 453.8446373333334,
          "velocity": 0.6299212598425197
        },
        {
          "duration": 0.16666666666662877,
          "durationTicks": 160,
          "midi": 75,
          "name": "D#5",
          "ticks": 534000,
          "time": 453.8446373333334,
          "velocity": 0.6299212598425197
        },
        {
          "duration": 0.16666666666662877,
          "durationTicks": 160,
          "midi": 63,
          "name": "D#4",
          "ticks": 534240,
          "time": 454.0946373333334,
          "velocity": 0.6299212598425197
        },
        {
          "duration": 0.16666666666662877,
          "durationTicks": 160,
          "midi": 75,
          "name": "D#5",
          "ticks": 534240,
          "time": 454.0946373333334,
          "velocity": 0.6299212598425197
        },
        {
          "duration": 0.16666666666662877,
          "durationTicks": 160,
          "midi": 63,
          "name": "D#4",
          "ticks": 534480,
          "time": 454.3446373333334,
          "velocity": 0.6299212598425197
        },
        {
          "duration": 0.16666666666662877,
          "durationTicks": 160,
          "midi": 75,
          "name": "D#5",
          "ticks": 534480,
          "time": 454.3446373333334,
          "velocity": 0.6299212598425197
        },
        {
          "duration": 0.16666666666662877,
          "durationTicks": 160,
          "midi": 62,
          "name": "D4",
          "ticks": 534720,
          "time": 454.5946373333334,
          "velocity": 0.6299212598425197
        },
        {
          "duration": 0.16666666666662877,
          "durationTicks": 160,
          "midi": 74,
          "name": "D5",
          "ticks": 534720,
          "time": 454.5946373333334,
          "velocity": 0.6299212598425197
        },
        {
          "duration": 0.16666666666662877,
          "durationTicks": 160,
          "midi": 62,
          "name": "D4",
          "ticks": 536160,
          "time": 456.0946373333334,
          "velocity": 0.31496062992125984
        },
        {
          "duration": 0.16666666666662877,
          "durationTicks": 160,
          "midi": 62,
          "name": "D4",
          "ticks": 536400,
          "time": 456.3446373333334,
          "velocity": 0.31496062992125984
        },
        {
          "duration": 0.16666666666662877,
          "durationTicks": 160,
          "midi": 62,
          "name": "D4",
          "ticks": 536640,
          "time": 456.5946373333334,
          "velocity": 0.31496062992125984
        },
        {
          "duration": 0.16666666666662877,
          "durationTicks": 160,
          "midi": 62,
          "name": "D4",
          "ticks": 536880,
          "time": 456.8446373333334,
          "velocity": 0.31496062992125984
        },
        {
          "duration": 0.16666666666662877,
          "durationTicks": 160,
          "midi": 62,
          "name": "D4",
          "ticks": 537120,
          "time": 457.0946373333334,
          "velocity": 0.31496062992125984
        },
        {
          "duration": 0.16666666666662877,
          "durationTicks": 160,
          "midi": 62,
          "name": "D4",
          "ticks": 537360,
          "time": 457.3446373333334,
          "velocity": 0.31496062992125984
        },
        {
          "duration": 0.16666666666662877,
          "durationTicks": 160,
          "midi": 63,
          "name": "D#4",
          "ticks": 537600,
          "time": 457.5946373333334,
          "velocity": 0.31496062992125984
        },
        {
          "duration": 0.16666666666662877,
          "durationTicks": 160,
          "midi": 63,
          "name": "D#4",
          "ticks": 537840,
          "time": 457.8446373333334,
          "velocity": 0.31496062992125984
        },
        {
          "duration": 0.16666666666662877,
          "durationTicks": 160,
          "midi": 63,
          "name": "D#4",
          "ticks": 538080,
          "time": 458.0946373333334,
          "velocity": 0.31496062992125984
        },
        {
          "duration": 0.16666666666662877,
          "durationTicks": 160,
          "midi": 63,
          "name": "D#4",
          "ticks": 538320,
          "time": 458.3446373333334,
          "velocity": 0.31496062992125984
        },
        {
          "duration": 0.16666666666662877,
          "durationTicks": 160,
          "midi": 63,
          "name": "D#4",
          "ticks": 538560,
          "time": 458.5946373333334,
          "velocity": 0.31496062992125984
        },
        {
          "duration": 0.16666666666662877,
          "durationTicks": 160,
          "midi": 63,
          "name": "D#4",
          "ticks": 538800,
          "time": 458.8446373333334,
          "velocity": 0.31496062992125984
        },
        {
          "duration": 0.16666666666662877,
          "durationTicks": 160,
          "midi": 62,
          "name": "D4",
          "ticks": 539040,
          "time": 459.0946373333334,
          "velocity": 0.31496062992125984
        },
        {
          "duration": 0.16666666666662877,
          "durationTicks": 160,
          "midi": 62,
          "name": "D4",
          "ticks": 539280,
          "time": 459.3446373333334,
          "velocity": 0.31496062992125984
        },
        {
          "duration": 0.16666666666662877,
          "durationTicks": 160,
          "midi": 62,
          "name": "D4",
          "ticks": 539520,
          "time": 459.5946373333334,
          "velocity": 0.31496062992125984
        },
        {
          "duration": 0.16666666666662877,
          "durationTicks": 160,
          "midi": 62,
          "name": "D4",
          "ticks": 539760,
          "time": 459.8446373333334,
          "velocity": 0.31496062992125984
        },
        {
          "duration": 0.16666666666662877,
          "durationTicks": 160,
          "midi": 62,
          "name": "D4",
          "ticks": 540000,
          "time": 460.0946373333334,
          "velocity": 0.31496062992125984
        },
        {
          "duration": 0.16666666666662877,
          "durationTicks": 160,
          "midi": 62,
          "name": "D4",
          "ticks": 540240,
          "time": 460.3446373333334,
          "velocity": 0.31496062992125984
        },
        {
          "duration": 0.16666666666662877,
          "durationTicks": 160,
          "midi": 63,
          "name": "D#4",
          "ticks": 540480,
          "time": 460.5946373333334,
          "velocity": 0.31496062992125984
        },
        {
          "duration": 0.16666666666662877,
          "durationTicks": 160,
          "midi": 63,
          "name": "D#4",
          "ticks": 540720,
          "time": 460.8446373333334,
          "velocity": 0.31496062992125984
        },
        {
          "duration": 0.16666666666662877,
          "durationTicks": 160,
          "midi": 63,
          "name": "D#4",
          "ticks": 540960,
          "time": 461.0946373333334,
          "velocity": 0.31496062992125984
        },
        {
          "duration": 0.16666666666662877,
          "durationTicks": 160,
          "midi": 63,
          "name": "D#4",
          "ticks": 541200,
          "time": 461.3446373333334,
          "velocity": 0.31496062992125984
        },
        {
          "duration": 0.16666666666662877,
          "durationTicks": 160,
          "midi": 63,
          "name": "D#4",
          "ticks": 541440,
          "time": 461.5946373333334,
          "velocity": 0.31496062992125984
        },
        {
          "duration": 0.16666666666662877,
          "durationTicks": 160,
          "midi": 63,
          "name": "D#4",
          "ticks": 541680,
          "time": 461.8446373333334,
          "velocity": 0.31496062992125984
        },
        {
          "duration": 0.16666666666662877,
          "durationTicks": 160,
          "midi": 62,
          "name": "D4",
          "ticks": 541920,
          "time": 462.0946373333334,
          "velocity": 0.31496062992125984
        },
        {
          "duration": 0.16666666666662877,
          "durationTicks": 160,
          "midi": 62,
          "name": "D4",
          "ticks": 542160,
          "time": 462.3446373333334,
          "velocity": 0.31496062992125984
        },
        {
          "duration": 0.16666666666662877,
          "durationTicks": 160,
          "midi": 62,
          "name": "D4",
          "ticks": 542640,
          "time": 462.8446373333334,
          "velocity": 0.31496062992125984
        },
        {
          "duration": 0.16666666666662877,
          "durationTicks": 160,
          "midi": 62,
          "name": "D4",
          "ticks": 542880,
          "time": 463.0946373333334,
          "velocity": 0.31496062992125984
        },
        {
          "duration": 0.16666666666662877,
          "durationTicks": 160,
          "midi": 62,
          "name": "D4",
          "ticks": 543360,
          "time": 463.5946373333334,
          "velocity": 0.31496062992125984
        },
        {
          "duration": 0.16666666666662877,
          "durationTicks": 160,
          "midi": 62,
          "name": "D4",
          "ticks": 543600,
          "time": 463.8446373333334,
          "velocity": 0.31496062992125984
        },
        {
          "duration": 0.16666666666662877,
          "durationTicks": 160,
          "midi": 62,
          "name": "D4",
          "ticks": 544080,
          "time": 464.3446373333334,
          "velocity": 0.31496062992125984
        },
        {
          "duration": 0.16666666666662877,
          "durationTicks": 160,
          "midi": 62,
          "name": "D4",
          "ticks": 544320,
          "time": 464.5946373333334,
          "velocity": 0.31496062992125984
        },
        {
          "duration": 1.4875000000000114,
          "durationTicks": 476,
          "midi": 65,
          "name": "F4",
          "ticks": 546240,
          "time": 466.98921325000003,
          "velocity": 0.31496062992125984
        },
        {
          "duration": 0.16666666666668561,
          "durationTicks": 160,
          "midi": 63,
          "name": "D#4",
          "ticks": 547920,
          "time": 471.73921325000003,
          "velocity": 0.31496062992125984
        },
        {
          "duration": 0.16666666666668561,
          "durationTicks": 160,
          "midi": 63,
          "name": "D#4",
          "ticks": 548160,
          "time": 471.98921325000003,
          "velocity": 0.31496062992125984
        },
        {
          "duration": 0.16666666666668561,
          "durationTicks": 160,
          "midi": 63,
          "name": "D#4",
          "ticks": 548400,
          "time": 472.23921325000003,
          "velocity": 0.31496062992125984
        },
        {
          "duration": 0.16666666666668561,
          "durationTicks": 160,
          "midi": 63,
          "name": "D#4",
          "ticks": 548640,
          "time": 472.48921325000003,
          "velocity": 0.31496062992125984
        },
        {
          "duration": 0.16666666666668561,
          "durationTicks": 160,
          "midi": 63,
          "name": "D#4",
          "ticks": 548880,
          "time": 472.73921325000003,
          "velocity": 0.31496062992125984
        },
        {
          "duration": 0.16666666666668561,
          "durationTicks": 160,
          "midi": 63,
          "name": "D#4",
          "ticks": 549360,
          "time": 473.23921325000003,
          "velocity": 0.31496062992125984
        },
        {
          "duration": 0.16666666666668561,
          "durationTicks": 160,
          "midi": 63,
          "name": "D#4",
          "ticks": 549600,
          "time": 473.48921325000003,
          "velocity": 0.31496062992125984
        },
        {
          "duration": 0.16666666666668561,
          "durationTicks": 160,
          "midi": 63,
          "name": "D#4",
          "ticks": 549840,
          "time": 473.73921325000003,
          "velocity": 0.31496062992125984
        },
        {
          "duration": 0.16666666666668561,
          "durationTicks": 160,
          "midi": 63,
          "name": "D#4",
          "ticks": 550080,
          "time": 473.98921325000003,
          "velocity": 0.31496062992125984
        },
        {
          "duration": 0.16666666666668561,
          "durationTicks": 160,
          "midi": 63,
          "name": "D#4",
          "ticks": 550320,
          "time": 474.23921325000003,
          "velocity": 0.31496062992125984
        },
        {
          "duration": 0.16666666666668561,
          "durationTicks": 160,
          "midi": 63,
          "name": "D#4",
          "ticks": 550800,
          "time": 474.73921325000003,
          "velocity": 0.31496062992125984
        },
        {
          "duration": 0.16666666666668561,
          "durationTicks": 160,
          "midi": 63,
          "name": "D#4",
          "ticks": 551040,
          "time": 474.98921325000003,
          "velocity": 0.31496062992125984
        },
        {
          "duration": 0.16666666666668561,
          "durationTicks": 160,
          "midi": 63,
          "name": "D#4",
          "ticks": 551280,
          "time": 475.23921325000003,
          "velocity": 0.31496062992125984
        },
        {
          "duration": 0.16666666666668561,
          "durationTicks": 160,
          "midi": 63,
          "name": "D#4",
          "ticks": 551520,
          "time": 475.48921325000003,
          "velocity": 0.31496062992125984
        },
        {
          "duration": 0.16666666666668561,
          "durationTicks": 160,
          "midi": 63,
          "name": "D#4",
          "ticks": 551760,
          "time": 475.73921325000003,
          "velocity": 0.31496062992125984
        },
        {
          "duration": 0.16666666666668561,
          "durationTicks": 160,
          "midi": 65,
          "name": "F4",
          "ticks": 552240,
          "time": 476.23921325000003,
          "velocity": 0.31496062992125984
        },
        {
          "duration": 0.16666666666668561,
          "durationTicks": 160,
          "midi": 65,
          "name": "F4",
          "ticks": 552480,
          "time": 476.48921325000003,
          "velocity": 0.31496062992125984
        },
        {
          "duration": 0.16666666666668561,
          "durationTicks": 160,
          "midi": 65,
          "name": "F4",
          "ticks": 552720,
          "time": 476.73921325000003,
          "velocity": 0.31496062992125984
        },
        {
          "duration": 0.16666666666668561,
          "durationTicks": 160,
          "midi": 65,
          "name": "F4",
          "ticks": 552960,
          "time": 476.98921325000003,
          "velocity": 0.31496062992125984
        },
        {
          "duration": 0.16666666666668561,
          "durationTicks": 160,
          "midi": 65,
          "name": "F4",
          "ticks": 553200,
          "time": 477.23921325000003,
          "velocity": 0.31496062992125984
        },
        {
          "duration": 0.16666666666668561,
          "durationTicks": 160,
          "midi": 63,
          "name": "D#4",
          "ticks": 553680,
          "time": 477.73921325000003,
          "velocity": 0.31496062992125984
        },
        {
          "duration": 0.16666666666668561,
          "durationTicks": 160,
          "midi": 63,
          "name": "D#4",
          "ticks": 553920,
          "time": 477.98921325000003,
          "velocity": 0.31496062992125984
        },
        {
          "duration": 0.16666666666668561,
          "durationTicks": 160,
          "midi": 63,
          "name": "D#4",
          "ticks": 554160,
          "time": 478.23921325000003,
          "velocity": 0.31496062992125984
        },
        {
          "duration": 0.16666666666668561,
          "durationTicks": 160,
          "midi": 63,
          "name": "D#4",
          "ticks": 554400,
          "time": 478.48921325000003,
          "velocity": 0.31496062992125984
        },
        {
          "duration": 0.16666666666668561,
          "durationTicks": 160,
          "midi": 63,
          "name": "D#4",
          "ticks": 554640,
          "time": 478.73921325000003,
          "velocity": 0.31496062992125984
        },
        {
          "duration": 0.16666666666668561,
          "durationTicks": 160,
          "midi": 60,
          "name": "C4",
          "ticks": 555120,
          "time": 479.23921325000003,
          "velocity": 0.31496062992125984
        },
        {
          "duration": 0.16666666666668561,
          "durationTicks": 160,
          "midi": 60,
          "name": "C4",
          "ticks": 555360,
          "time": 479.48921325000003,
          "velocity": 0.31496062992125984
        },
        {
          "duration": 0.16666666666668561,
          "durationTicks": 160,
          "midi": 60,
          "name": "C4",
          "ticks": 555600,
          "time": 479.73921325000003,
          "velocity": 0.31496062992125984
        },
        {
          "duration": 0.16666666666668561,
          "durationTicks": 160,
          "midi": 60,
          "name": "C4",
          "ticks": 555840,
          "time": 479.98921325000003,
          "velocity": 0.31496062992125984
        },
        {
          "duration": 0.16666666666668561,
          "durationTicks": 160,
          "midi": 60,
          "name": "C4",
          "ticks": 556080,
          "time": 480.23921325000003,
          "velocity": 0.31496062992125984
        },
        {
          "duration": 0.16666666666668561,
          "durationTicks": 160,
          "midi": 55,
          "name": "G3",
          "ticks": 556560,
          "time": 480.73921325000003,
          "velocity": 0.31496062992125984
        },
        {
          "duration": 0.16666666666668561,
          "durationTicks": 160,
          "midi": 55,
          "name": "G3",
          "ticks": 556800,
          "time": 480.98921325000003,
          "velocity": 0.31496062992125984
        },
        {
          "duration": 0.16666666666668561,
          "durationTicks": 160,
          "midi": 55,
          "name": "G3",
          "ticks": 557040,
          "time": 481.23921325000003,
          "velocity": 0.31496062992125984
        },
        {
          "duration": 0.16666666666668561,
          "durationTicks": 160,
          "midi": 55,
          "name": "G3",
          "ticks": 557280,
          "time": 481.48921325000003,
          "velocity": 0.31496062992125984
        },
        {
          "duration": 0.16666666666668561,
          "durationTicks": 160,
          "midi": 55,
          "name": "G3",
          "ticks": 557520,
          "time": 481.73921325000003,
          "velocity": 0.31496062992125984
        },
        {
          "duration": 0.16666666666668561,
          "durationTicks": 160,
          "midi": 56,
          "name": "G#3",
          "ticks": 558000,
          "time": 482.23921325000003,
          "velocity": 0.31496062992125984
        },
        {
          "duration": 0.16666666666668561,
          "durationTicks": 160,
          "midi": 56,
          "name": "G#3",
          "ticks": 558240,
          "time": 482.48921325000003,
          "velocity": 0.31496062992125984
        },
        {
          "duration": 0.16666666666668561,
          "durationTicks": 160,
          "midi": 56,
          "name": "G#3",
          "ticks": 558480,
          "time": 482.73921325000003,
          "velocity": 0.31496062992125984
        },
        {
          "duration": 0.16666666666668561,
          "durationTicks": 160,
          "midi": 56,
          "name": "G#3",
          "ticks": 558720,
          "time": 482.98921325000003,
          "velocity": 0.31496062992125984
        },
        {
          "duration": 0.16666666666668561,
          "durationTicks": 160,
          "midi": 56,
          "name": "G#3",
          "ticks": 558960,
          "time": 483.23921325000003,
          "velocity": 0.31496062992125984
        },
        {
          "duration": 0.14655168749999348,
          "durationTicks": 170,
          "midi": 62,
          "name": "D4",
          "ticks": 562800,
          "time": 486.59266075000005,
          "velocity": 0.31496062992125984
        },
        {
          "duration": 0.14655168749999348,
          "durationTicks": 170,
          "midi": 62,
          "name": "D4",
          "ticks": 563040,
          "time": 486.79955725,
          "velocity": 0.31496062992125984
        },
        {
          "duration": 0.14655168749999348,
          "durationTicks": 170,
          "midi": 62,
          "name": "D4",
          "ticks": 563280,
          "time": 487.00645375000005,
          "velocity": 0.31496062992125984
        },
        {
          "duration": 0.20689650000002757,
          "durationTicks": 240,
          "midi": 62,
          "name": "D4",
          "ticks": 563520,
          "time": 487.21335025,
          "velocity": 0.31496062992125984
        },
        {
          "duration": 0.14655168749999348,
          "durationTicks": 170,
          "midi": 63,
          "name": "D#4",
          "ticks": 563760,
          "time": 487.42024675000005,
          "velocity": 0.31496062992125984
        },
        {
          "duration": 0.14655168749999348,
          "durationTicks": 170,
          "midi": 55,
          "name": "G3",
          "ticks": 564000,
          "time": 487.62714325,
          "velocity": 0.31496062992125984
        },
        {
          "duration": 0.20689649999997073,
          "durationTicks": 240,
          "midi": 55,
          "name": "G3",
          "ticks": 564240,
          "time": 487.83403975000004,
          "velocity": 0.31496062992125984
        },
        {
          "duration": 0.14655168749999348,
          "durationTicks": 170,
          "midi": 56,
          "name": "G#3",
          "ticks": 564480,
          "time": 488.04093625,
          "velocity": 0.31496062992125984
        },
        {
          "duration": 0.14655168749999348,
          "durationTicks": 170,
          "midi": 56,
          "name": "G#3",
          "ticks": 564720,
          "time": 488.24783275000004,
          "velocity": 0.31496062992125984
        },
        {
          "duration": 0.13793100000003733,
          "durationTicks": 160,
          "midi": 55,
          "name": "G3",
          "ticks": 564960,
          "time": 488.45472925,
          "velocity": 0.31496062992125984
        },
        {
          "duration": 0.10344824999998536,
          "durationTicks": 120,
          "midi": 70,
          "name": "A#4",
          "ticks": 567120,
          "time": 490.31679775000003,
          "velocity": 0.7086614173228346
        },
        {
          "duration": 0.10344825000004221,
          "durationTicks": 120,
          "midi": 72,
          "name": "C5",
          "ticks": 567240,
          "time": 490.420246,
          "velocity": 0.7086614173228346
        },
        {
          "duration": 0.10344824999998536,
          "durationTicks": 120,
          "midi": 70,
          "name": "A#4",
          "ticks": 567360,
          "time": 490.52369425000006,
          "velocity": 0.7086614173228346
        },
        {
          "duration": 0.10344824999998536,
          "durationTicks": 120,
          "midi": 68,
          "name": "G#4",
          "ticks": 567480,
          "time": 490.62714250000005,
          "velocity": 0.7086614173228346
        },
        {
          "duration": 0.10344824999998536,
          "durationTicks": 120,
          "midi": 67,
          "name": "G4",
          "ticks": 567600,
          "time": 490.73059075000003,
          "velocity": 0.7086614173228346
        },
        {
          "duration": 0.10344825000004221,
          "durationTicks": 120,
          "midi": 65,
          "name": "F4",
          "ticks": 567720,
          "time": 490.834039,
          "velocity": 0.7086614173228346
        },
        {
          "duration": 0.16810340624999753,
          "durationTicks": 195,
          "midi": 63,
          "name": "D#4",
          "ticks": 567840,
          "time": 490.93748725000006,
          "velocity": 0.7086614173228346
        },
        {
          "duration": 0.10344824999998536,
          "durationTicks": 120,
          "midi": 70,
          "name": "A#4",
          "ticks": 570000,
          "time": 492.79955575,
          "velocity": 0.7086614173228346
        },
        {
          "duration": 0.10344825000004221,
          "durationTicks": 120,
          "midi": 72,
          "name": "C5",
          "ticks": 570120,
          "time": 492.903004,
          "velocity": 0.7086614173228346
        },
        {
          "duration": 0.10344824999998536,
          "durationTicks": 120,
          "midi": 70,
          "name": "A#4",
          "ticks": 570240,
          "time": 493.00645225000005,
          "velocity": 0.7086614173228346
        },
        {
          "duration": 0.10344824999998536,
          "durationTicks": 120,
          "midi": 68,
          "name": "G#4",
          "ticks": 570360,
          "time": 493.10990050000004,
          "velocity": 0.7086614173228346
        },
        {
          "duration": 0.10344824999998536,
          "durationTicks": 120,
          "midi": 67,
          "name": "G4",
          "ticks": 570480,
          "time": 493.21334875,
          "velocity": 0.7086614173228346
        },
        {
          "duration": 0.10344825000004221,
          "durationTicks": 120,
          "midi": 65,
          "name": "F4",
          "ticks": 570600,
          "time": 493.316797,
          "velocity": 0.7086614173228346
        },
        {
          "duration": 1.0775859374999754,
          "durationTicks": 1250,
          "midi": 58,
          "name": "A#3",
          "ticks": 570720,
          "time": 493.42024525000005,
          "velocity": 0.7086614173228346
        },
        {
          "duration": 0.24999993749997884,
          "durationTicks": 290,
          "midi": 67,
          "name": "G4",
          "ticks": 570720,
          "time": 493.42024525000005,
          "velocity": 0.7086614173228346
        },
        {
          "duration": 0.16810340624999753,
          "durationTicks": 195,
          "midi": 68,
          "name": "G#4",
          "ticks": 571200,
          "time": 493.83403825000005,
          "velocity": 0.7086614173228346
        },
        {
          "duration": 0.24999993750003568,
          "durationTicks": 290,
          "midi": 67,
          "name": "G4",
          "ticks": 571440,
          "time": 494.04093475,
          "velocity": 0.7086614173228346
        },
        {
          "duration": 0.16810340624999753,
          "durationTicks": 195,
          "midi": 68,
          "name": "G#4",
          "ticks": 571920,
          "time": 494.45472775,
          "velocity": 0.7086614173228346
        },
        {
          "duration": 1.0775859374999754,
          "durationTicks": 1250,
          "midi": 58,
          "name": "A#3",
          "ticks": 572160,
          "time": 494.66162425000005,
          "velocity": 0.7086614173228346
        },
        {
          "duration": 0.24999993749997884,
          "durationTicks": 290,
          "midi": 67,
          "name": "G4",
          "ticks": 572160,
          "time": 494.66162425000005,
          "velocity": 0.7086614173228346
        },
        {
          "duration": 0.16810340624999753,
          "durationTicks": 195,
          "midi": 68,
          "name": "G#4",
          "ticks": 572640,
          "time": 495.07541725000004,
          "velocity": 0.7086614173228346
        },
        {
          "duration": 0.24999993750003568,
          "durationTicks": 290,
          "midi": 67,
          "name": "G4",
          "ticks": 572880,
          "time": 495.28231375,
          "velocity": 0.7086614173228346
        },
        {
          "duration": 0.16810340624999753,
          "durationTicks": 195,
          "midi": 68,
          "name": "G#4",
          "ticks": 573360,
          "time": 495.69610675,
          "velocity": 0.7086614173228346
        },
        {
          "duration": 0.16810340624999753,
          "durationTicks": 195,
          "midi": 58,
          "name": "A#3",
          "ticks": 573600,
          "time": 495.90300325000004,
          "velocity": 0.7086614173228346
        },
        {
          "duration": 0.16810340624999753,
          "durationTicks": 195,
          "midi": 67,
          "name": "G4",
          "ticks": 573600,
          "time": 495.90300325000004,
          "velocity": 0.7086614173228346
        }
      ]
    },
    {
      "channel": 0,
      "controlChanges": {},
      "pitchBends": [],
      "instrument": {
        "family": "piano",
        "number": 0,
        "name": "acoustic grand piano"
      },
      "name": "Viola",
      "notes": [],
      "endOfTrackTicks": 575040
    },
    {
      "channel": 8,
      "controlChanges": {
        "7": [
          {
            "number": 7,
            "ticks": 0,
            "time": 0,
            "value": 1
          }
        ],
        "10": [
          {
            "number": 10,
            "ticks": 0,
            "time": 0,
            "value": 0.47244094488188976
          }
        ],
        "91": [
          {
            "number": 91,
            "ticks": 0,
            "time": 0,
            "value": 0.5905511811023622
          }
        ]
      },
      "pitchBends": [],
      "instrument": {
        "family": "strings",
        "number": 45,
        "name": "pizzicato strings"
      },
      "name": "",
      "notes": [
        {
          "duration": 0.32257999999999987,
          "durationTicks": 400,
          "midi": 63,
          "name": "D#4",
          "ticks": 1920,
          "time": 1.548384,
          "velocity": 0.31496062992125984
        },
        {
          "duration": 0.32257999999999987,
          "durationTicks": 400,
          "midi": 63,
          "name": "D#4",
          "ticks": 3360,
          "time": 2.709672,
          "velocity": 0.31496062992125984
        },
        {
          "duration": 0.3225800000000003,
          "durationTicks": 400,
          "midi": 65,
          "name": "F4",
          "ticks": 3840,
          "time": 3.096768,
          "velocity": 0.31496062992125984
        },
        {
          "duration": 0.3225800000000003,
          "durationTicks": 400,
          "midi": 65,
          "name": "F4",
          "ticks": 5280,
          "time": 4.258056,
          "velocity": 0.31496062992125984
        },
        {
          "duration": 0.3225800000000003,
          "durationTicks": 400,
          "midi": 63,
          "name": "D#4",
          "ticks": 5760,
          "time": 4.6451519999999995,
          "velocity": 0.31496062992125984
        },
        {
          "duration": 0.3225800000000003,
          "durationTicks": 400,
          "midi": 63,
          "name": "D#4",
          "ticks": 6240,
          "time": 5.032248,
          "velocity": 0.31496062992125984
        },
        {
          "duration": 0.3225800000000003,
          "durationTicks": 400,
          "midi": 56,
          "name": "G#3",
          "ticks": 6720,
          "time": 5.419344,
          "velocity": 0.31496062992125984
        },
        {
          "duration": 0.3225800000000003,
          "durationTicks": 400,
          "midi": 65,
          "name": "F4",
          "ticks": 6720,
          "time": 5.419344,
          "velocity": 0.31496062992125984
        },
        {
          "duration": 0.3225800000000003,
          "durationTicks": 400,
          "midi": 56,
          "name": "G#3",
          "ticks": 7200,
          "time": 5.80644,
          "velocity": 0.31496062992125984
        },
        {
          "duration": 0.3225800000000003,
          "durationTicks": 400,
          "midi": 65,
          "name": "F4",
          "ticks": 7200,
          "time": 5.80644,
          "velocity": 0.31496062992125984
        },
        {
          "duration": 0.9032239999999998,
          "durationTicks": 1120,
          "midi": 58,
          "name": "A#3",
          "ticks": 7680,
          "time": 6.193536,
          "velocity": 0.31496062992125984
        },
        {
          "duration": 0.9032239999999998,
          "durationTicks": 1120,
          "midi": 65,
          "name": "F4",
          "ticks": 7680,
          "time": 6.193536,
          "velocity": 0.31496062992125984
        },
        {
          "duration": 0.32257999999999853,
          "durationTicks": 400,
          "midi": 64,
          "name": "E4",
          "ticks": 9600,
          "time": 7.74192,
          "velocity": 0.31496062992125984
        },
        {
          "duration": 0.3225800000000003,
          "durationTicks": 400,
          "midi": 65,
          "name": "F4",
          "ticks": 10560,
          "time": 8.516112,
          "velocity": 0.31496062992125984
        },
        {
          "duration": 0.3225800000000003,
          "durationTicks": 400,
          "midi": 62,
          "name": "D4",
          "ticks": 11520,
          "time": 9.290303999999999,
          "velocity": 0.31496062992125984
        },
        {
          "duration": 0.32257999999999853,
          "durationTicks": 400,
          "midi": 63,
          "name": "D#4",
          "ticks": 12480,
          "time": 10.064496,
          "velocity": 0.31496062992125984
        },
        {
          "duration": 0.3225800000000003,
          "durationTicks": 400,
          "midi": 56,
          "name": "G#3",
          "ticks": 13440,
          "time": 10.838688,
          "velocity": 0.31496062992125984
        },
        {
          "duration": 0.32257999999999853,
          "durationTicks": 400,
          "midi": 53,
          "name": "F3",
          "ticks": 14400,
          "time": 11.61288,
          "velocity": 0.31496062992125984
        },
        {
          "duration": 0.9032240000000016,
          "durationTicks": 1120,
          "midi": 51,
          "name": "D#3",
          "ticks": 15360,
          "time": 12.387072,
          "velocity": 0.31496062992125984
        },
        {
          "duration": 0.3225800000000003,
          "durationTicks": 400,
          "midi": 55,
          "name": "G3",
          "ticks": 17280,
          "time": 13.935456,
          "velocity": 0.31496062992125984
        },
        {
          "duration": 0.3225800000000021,
          "durationTicks": 400,
          "midi": 55,
          "name": "G3",
          "ticks": 18720,
          "time": 15.096744,
          "velocity": 0.31496062992125984
        },
        {
          "duration": 0.3225800000000003,
          "durationTicks": 400,
          "midi": 55,
          "name": "G3",
          "ticks": 19200,
          "time": 15.48384,
          "velocity": 0.31496062992125984
        },
        {
          "duration": 0.3225800000000021,
          "durationTicks": 400,
          "midi": 55,
          "name": "G3",
          "ticks": 19680,
          "time": 15.870936,
          "velocity": 0.31496062992125984
        },
        {
          "duration": 0.3225800000000021,
          "durationTicks": 400,
          "midi": 55,
          "name": "G3",
          "ticks": 20160,
          "time": 16.258032,
          "velocity": 0.31496062992125984
        },
        {
          "duration": 0.3225800000000021,
          "durationTicks": 400,
          "midi": 53,
          "name": "F3",
          "ticks": 21120,
          "time": 17.032224,
          "velocity": 0.31496062992125984
        },
        {
          "duration": 0.3225800000000021,
          "durationTicks": 400,
          "midi": 53,
          "name": "F3",
          "ticks": 22560,
          "time": 18.193512,
          "velocity": 0.31496062992125984
        },
        {
          "duration": 0.3225800000000021,
          "durationTicks": 400,
          "midi": 53,
          "name": "F3",
          "ticks": 23040,
          "time": 18.580607999999998,
          "velocity": 0.31496062992125984
        },
        {
          "duration": 0.32257999999999853,
          "durationTicks": 400,
          "midi": 53,
          "name": "F3",
          "ticks": 23520,
          "time": 18.967704,
          "velocity": 0.31496062992125984
        },
        {
          "duration": 0.32257999999999853,
          "durationTicks": 400,
          "midi": 53,
          "name": "F3",
          "ticks": 24000,
          "time": 19.3548,
          "velocity": 0.31496062992125984
        },
        {
          "duration": 0.3225800000000021,
          "durationTicks": 400,
          "midi": 64,
          "name": "E4",
          "ticks": 24960,
          "time": 20.128992,
          "velocity": 0.31496062992125984
        },
        {
          "duration": 0.3225800000000021,
          "durationTicks": 400,
          "midi": 65,
          "name": "F4",
          "ticks": 25920,
          "time": 20.903184,
          "velocity": 0.31496062992125984
        },
        {
          "duration": 0.3225800000000021,
          "durationTicks": 400,
          "midi": 62,
          "name": "D4",
          "ticks": 26880,
          "time": 21.677376,
          "velocity": 0.31496062992125984
        },
        {
          "duration": 0.3225800000000021,
          "durationTicks": 400,
          "midi": 63,
          "name": "D#4",
          "ticks": 27840,
          "time": 22.451567999999998,
          "velocity": 0.31496062992125984
        },
        {
          "duration": 0.32257999999999853,
          "durationTicks": 400,
          "midi": 56,
          "name": "G#3",
          "ticks": 28800,
          "time": 23.22576,
          "velocity": 0.31496062992125984
        },
        {
          "duration": 0.32257999999999853,
          "durationTicks": 400,
          "midi": 53,
          "name": "F3",
          "ticks": 29760,
          "time": 23.999952,
          "velocity": 0.31496062992125984
        },
        {
          "duration": 0.903223999999998,
          "durationTicks": 1120,
          "midi": 51,
          "name": "D#3",
          "ticks": 30720,
          "time": 24.774144,
          "velocity": 0.31496062992125984
        },
        {
          "duration": 0.1370964999999984,
          "durationTicks": 170,
          "midi": 51,
          "name": "D#3",
          "ticks": 140640,
          "time": 113.419128,
          "velocity": 0.31496062992125984
        },
        {
          "duration": 0.1370965000000126,
          "durationTicks": 170,
          "midi": 55,
          "name": "G3",
          "ticks": 141600,
          "time": 114.19332,
          "velocity": 0.31496062992125984
        },
        {
          "duration": 0.12903199999999515,
          "durationTicks": 160,
          "midi": 53,
          "name": "F3",
          "ticks": 142560,
          "time": 114.967512,
          "velocity": 0.31496062992125984
        },
        {
          "duration": 0.1370965000000126,
          "durationTicks": 170,
          "midi": 56,
          "name": "G#3",
          "ticks": 142560,
          "time": 114.967512,
          "velocity": 0.31496062992125984
        },
        {
          "duration": 0.12903199999999515,
          "durationTicks": 160,
          "midi": 53,
          "name": "F3",
          "ticks": 143520,
          "time": 115.741704,
          "velocity": 0.31496062992125984
        },
        {
          "duration": 0.1370965000000126,
          "durationTicks": 170,
          "midi": 56,
          "name": "G#3",
          "ticks": 143520,
          "time": 115.741704,
          "velocity": 0.31496062992125984
        },
        {
          "duration": 0.12903199999999515,
          "durationTicks": 160,
          "midi": 51,
          "name": "D#3",
          "ticks": 144000,
          "time": 116.1288,
          "velocity": 0.31496062992125984
        },
        {
          "duration": 0.12903199999999515,
          "durationTicks": 160,
          "midi": 50,
          "name": "D3",
          "ticks": 144480,
          "time": 116.515896,
          "velocity": 0.31496062992125984
        },
        {
          "duration": 0.12903199999999515,
          "durationTicks": 160,
          "midi": 51,
          "name": "D#3",
          "ticks": 144960,
          "time": 116.902992,
          "velocity": 0.31496062992125984
        },
        {
          "duration": 0.12903199999999515,
          "durationTicks": 160,
          "midi": 56,
          "name": "G#3",
          "ticks": 145440,
          "time": 117.290088,
          "velocity": 0.31496062992125984
        },
        {
          "duration": 0.12903199999999515,
          "durationTicks": 160,
          "midi": 58,
          "name": "A#3",
          "ticks": 145920,
          "time": 117.677184,
          "velocity": 0.31496062992125984
        },
        {
          "duration": 0.12903199999999515,
          "durationTicks": 160,
          "midi": 60,
          "name": "C4",
          "ticks": 148320,
          "time": 119.612664,
          "velocity": 0.31496062992125984
        },
        {
          "duration": 0.12903199999999515,
          "durationTicks": 160,
          "midi": 64,
          "name": "E4",
          "ticks": 148320,
          "time": 119.612664,
          "velocity": 0.31496062992125984
        },
        {
          "duration": 0.12903199999999515,
          "durationTicks": 160,
          "midi": 60,
          "name": "C4",
          "ticks": 149280,
          "time": 120.386856,
          "velocity": 0.31496062992125984
        },
        {
          "duration": 0.12903199999999515,
          "durationTicks": 160,
          "midi": 65,
          "name": "F4",
          "ticks": 149280,
          "time": 120.386856,
          "velocity": 0.31496062992125984
        },
        {
          "duration": 0.12903199999999515,
          "durationTicks": 160,
          "midi": 58,
          "name": "A#3",
          "ticks": 150240,
          "time": 121.161048,
          "velocity": 0.31496062992125984
        },
        {
          "duration": 0.12903199999999515,
          "durationTicks": 160,
          "midi": 62,
          "name": "D4",
          "ticks": 150240,
          "time": 121.161048,
          "velocity": 0.31496062992125984
        },
        {
          "duration": 0.12903199999999515,
          "durationTicks": 160,
          "midi": 58,
          "name": "A#3",
          "ticks": 151200,
          "time": 121.93524,
          "velocity": 0.31496062992125984
        },
        {
          "duration": 0.12903199999999515,
          "durationTicks": 160,
          "midi": 63,
          "name": "D#4",
          "ticks": 151200,
          "time": 121.93524,
          "velocity": 0.31496062992125984
        },
        {
          "duration": 0.12903199999999515,
          "durationTicks": 160,
          "midi": 64,
          "name": "E4",
          "ticks": 163680,
          "time": 131.99973599999998,
          "velocity": 0.31496062992125984
        },
        {
          "duration": 0.12903199999999515,
          "durationTicks": 160,
          "midi": 72,
          "name": "C5",
          "ticks": 163680,
          "time": 131.99973599999998,
          "velocity": 0.31496062992125984
        },
        {
          "duration": 0.12903199999996673,
          "durationTicks": 160,
          "midi": 65,
          "name": "F4",
          "ticks": 164640,
          "time": 132.773928,
          "velocity": 0.31496062992125984
        },
        {
          "duration": 0.12903199999996673,
          "durationTicks": 160,
          "midi": 72,
          "name": "C5",
          "ticks": 164640,
          "time": 132.773928,
          "velocity": 0.31496062992125984
        },
        {
          "duration": 0.12903199999996673,
          "durationTicks": 160,
          "midi": 62,
          "name": "D4",
          "ticks": 165600,
          "time": 133.54812,
          "velocity": 0.31496062992125984
        },
        {
          "duration": 0.12903199999996673,
          "durationTicks": 160,
          "midi": 70,
          "name": "A#4",
          "ticks": 165600,
          "time": 133.54812,
          "velocity": 0.31496062992125984
        },
        {
          "duration": 0.12903199999996673,
          "durationTicks": 160,
          "midi": 63,
          "name": "D#4",
          "ticks": 166560,
          "time": 134.322312,
          "velocity": 0.31496062992125984
        },
        {
          "duration": 0.12903199999996673,
          "durationTicks": 160,
          "midi": 70,
          "name": "A#4",
          "ticks": 166560,
          "time": 134.322312,
          "velocity": 0.31496062992125984
        },
        {
          "duration": 0.12903199999999515,
          "durationTicks": 160,
          "midi": 58,
          "name": "A#3",
          "ticks": 371040,
          "time": 299.225208,
          "velocity": 0.31496062992125984
        },
        {
          "duration": 0.129032000000052,
          "durationTicks": 160,
          "midi": 58,
          "name": "A#3",
          "ticks": 372000,
          "time": 299.9994,
          "velocity": 0.31496062992125984
        },
        {
          "duration": 0.12903199999999515,
          "durationTicks": 160,
          "midi": 58,
          "name": "A#3",
          "ticks": 372960,
          "time": 300.773592,
          "velocity": 0.31496062992125984
        },
        {
          "duration": 0.129032000000052,
          "durationTicks": 160,
          "midi": 58,
          "name": "A#3",
          "ticks": 373920,
          "time": 301.547784,
          "velocity": 0.31496062992125984
        },
        {
          "duration": 0.12903199999999515,
          "durationTicks": 160,
          "midi": 58,
          "name": "A#3",
          "ticks": 374880,
          "time": 302.321976,
          "velocity": 0.31496062992125984
        },
        {
          "duration": 0.129032000000052,
          "durationTicks": 160,
          "midi": 60,
          "name": "C4",
          "ticks": 375840,
          "time": 303.096168,
          "velocity": 0.31496062992125984
        },
        {
          "duration": 0.12903199999999515,
          "durationTicks": 160,
          "midi": 58,
          "name": "A#3",
          "ticks": 376320,
          "time": 303.483264,
          "velocity": 0.31496062992125984
        },
        {
          "duration": 0.12903199999999515,
          "durationTicks": 160,
          "midi": 58,
          "name": "A#3",
          "ticks": 376800,
          "time": 303.87036,
          "velocity": 0.31496062992125984
        },
        {
          "duration": 0.12903199999999515,
          "durationTicks": 160,
          "midi": 58,
          "name": "A#3",
          "ticks": 377280,
          "time": 304.257456,
          "velocity": 0.31496062992125984
        },
        {
          "duration": 0.12903199999999515,
          "durationTicks": 160,
          "midi": 64,
          "name": "E4",
          "ticks": 378720,
          "time": 305.418744,
          "velocity": 0.31496062992125984
        },
        {
          "duration": 0.129032000000052,
          "durationTicks": 160,
          "midi": 65,
          "name": "F4",
          "ticks": 379680,
          "time": 306.192936,
          "velocity": 0.3228346456692913
        },
        {
          "duration": 0.12903199999999515,
          "durationTicks": 160,
          "midi": 62,
          "name": "D4",
          "ticks": 380640,
          "time": 306.967128,
          "velocity": 0.31496062992125984
        },
        {
          "duration": 0.129032000000052,
          "durationTicks": 160,
          "midi": 63,
          "name": "D#4",
          "ticks": 381600,
          "time": 307.74132,
          "velocity": 0.31496062992125984
        },
        {
          "duration": 0.12903199999999515,
          "durationTicks": 160,
          "midi": 56,
          "name": "G#3",
          "ticks": 382560,
          "time": 308.515512,
          "velocity": 0.31496062992125984
        },
        {
          "duration": 0.129032000000052,
          "durationTicks": 160,
          "midi": 53,
          "name": "F3",
          "ticks": 383520,
          "time": 309.289704,
          "velocity": 0.31496062992125984
        },
        {
          "duration": 0.6129020000000196,
          "durationTicks": 760,
          "midi": 51,
          "name": "D#3",
          "ticks": 384000,
          "time": 309.6768,
          "velocity": 0.31496062992125984
        },
        {
          "duration": 0.38387019999998984,
          "durationTicks": 476,
          "midi": 55,
          "name": "G3",
          "ticks": 386400,
          "time": 311.61228,
          "velocity": 0.31496062992125984
        },
        {
          "duration": 0.3838702000000467,
          "durationTicks": 476,
          "midi": 55,
          "name": "G3",
          "ticks": 387360,
          "time": 312.38647199999997,
          "velocity": 0.31496062992125984
        },
        {
          "duration": 0.38387019999998984,
          "durationTicks": 476,
          "midi": 55,
          "name": "G3",
          "ticks": 388320,
          "time": 313.160664,
          "velocity": 0.31496062992125984
        },
        {
          "duration": 0.38387019999998984,
          "durationTicks": 476,
          "midi": 55,
          "name": "G3",
          "ticks": 389280,
          "time": 313.934856,
          "velocity": 0.31496062992125984
        },
        {
          "duration": 0.38387019999998984,
          "durationTicks": 476,
          "midi": 53,
          "name": "F3",
          "ticks": 390240,
          "time": 314.709048,
          "velocity": 0.31496062992125984
        },
        {
          "duration": 0.38387019999998984,
          "durationTicks": 476,
          "midi": 53,
          "name": "F3",
          "ticks": 391200,
          "time": 315.48324,
          "velocity": 0.31496062992125984
        },
        {
          "duration": 0.38387019999998984,
          "durationTicks": 476,
          "midi": 53,
          "name": "F3",
          "ticks": 392160,
          "time": 316.257432,
          "velocity": 0.31496062992125984
        },
        {
          "duration": 0.38387019999998984,
          "durationTicks": 476,
          "midi": 53,
          "name": "F3",
          "ticks": 393120,
          "time": 317.031624,
          "velocity": 0.31496062992125984
        },
        {
          "duration": 0.38387019999998984,
          "durationTicks": 476,
          "midi": 64,
          "name": "E4",
          "ticks": 394080,
          "time": 317.805816,
          "velocity": 0.31496062992125984
        },
        {
          "duration": 0.38387019999998984,
          "durationTicks": 476,
          "midi": 65,
          "name": "F4",
          "ticks": 395040,
          "time": 318.580008,
          "velocity": 0.3228346456692913
        },
        {
          "duration": 0.38387019999998984,
          "durationTicks": 476,
          "midi": 62,
          "name": "D4",
          "ticks": 396000,
          "time": 319.3542,
          "velocity": 0.31496062992125984
        },
        {
          "duration": 0.38387019999998984,
          "durationTicks": 476,
          "midi": 63,
          "name": "D#4",
          "ticks": 396960,
          "time": 320.128392,
          "velocity": 0.31496062992125984
        },
        {
          "duration": 0.38387019999998984,
          "durationTicks": 476,
          "midi": 56,
          "name": "G#3",
          "ticks": 397920,
          "time": 320.902584,
          "velocity": 0.31496062992125984
        },
        {
          "duration": 0.38387019999998984,
          "durationTicks": 476,
          "midi": 58,
          "name": "A#3",
          "ticks": 398880,
          "time": 321.676776,
          "velocity": 0.31496062992125984
        },
        {
          "duration": 0.6129020000000196,
          "durationTicks": 760,
          "midi": 51,
          "name": "D#3",
          "ticks": 399360,
          "time": 322.063872,
          "velocity": 0.3228346456692913
        },
        {
          "duration": 0.12903199999999515,
          "durationTicks": 160,
          "midi": 63,
          "name": "D#4",
          "ticks": 462720,
          "time": 373.160544,
          "velocity": 0.31496062992125984
        },
        {
          "duration": 0.12903199999999515,
          "durationTicks": 160,
          "midi": 65,
          "name": "F4",
          "ticks": 464640,
          "time": 374.708928,
          "velocity": 0.31496062992125984
        },
        {
          "duration": 0.12903199999999515,
          "durationTicks": 160,
          "midi": 63,
          "name": "D#4",
          "ticks": 466560,
          "time": 376.257312,
          "velocity": 0.31496062992125984
        },
        {
          "duration": 0.129032000000052,
          "durationTicks": 160,
          "midi": 65,
          "name": "F4",
          "ticks": 468000,
          "time": 377.41859999999997,
          "velocity": 0.31496062992125984
        },
        {
          "duration": 0.12903199999999515,
          "durationTicks": 160,
          "midi": 65,
          "name": "F4",
          "ticks": 468480,
          "time": 377.805696,
          "velocity": 0.31496062992125984
        },
        {
          "duration": 0.12903199999999515,
          "durationTicks": 160,
          "midi": 60,
          "name": "C4",
          "ticks": 470880,
          "time": 379.741176,
          "velocity": 0.31496062992125984
        },
        {
          "duration": 0.12903199999999515,
          "durationTicks": 160,
          "midi": 64,
          "name": "E4",
          "ticks": 470880,
          "time": 379.741176,
          "velocity": 0.31496062992125984
        },
        {
          "duration": 0.12903199999999515,
          "durationTicks": 160,
          "midi": 60,
          "name": "C4",
          "ticks": 471840,
          "time": 380.515368,
          "velocity": 0.31496062992125984
        },
        {
          "duration": 0.12903199999999515,
          "durationTicks": 160,
          "midi": 65,
          "name": "F4",
          "ticks": 471840,
          "time": 380.515368,
          "velocity": 0.31496062992125984
        },
        {
          "duration": 0.12903199999999515,
          "durationTicks": 160,
          "midi": 58,
          "name": "A#3",
          "ticks": 472800,
          "time": 381.28956,
          "velocity": 0.31496062992125984
        },
        {
          "duration": 0.12903199999999515,
          "durationTicks": 160,
          "midi": 62,
          "name": "D4",
          "ticks": 472800,
          "time": 381.28956,
          "velocity": 0.31496062992125984
        },
        {
          "duration": 0.12903199999999515,
          "durationTicks": 160,
          "midi": 58,
          "name": "A#3",
          "ticks": 473760,
          "time": 382.063752,
          "velocity": 0.31496062992125984
        },
        {
          "duration": 0.12903199999999515,
          "durationTicks": 160,
          "midi": 63,
          "name": "D#4",
          "ticks": 473760,
          "time": 382.063752,
          "velocity": 0.31496062992125984
        },
        {
          "duration": 0.12903199999999515,
          "durationTicks": 160,
          "midi": 56,
          "name": "G#3",
          "ticks": 474720,
          "time": 382.837944,
          "velocity": 0.31496062992125984
        },
        {
          "duration": 0.12903199999999515,
          "durationTicks": 160,
          "midi": 60,
          "name": "C4",
          "ticks": 474720,
          "time": 382.837944,
          "velocity": 0.31496062992125984
        },
        {
          "duration": 0.12903199999999515,
          "durationTicks": 160,
          "midi": 56,
          "name": "G#3",
          "ticks": 475680,
          "time": 383.612136,
          "velocity": 0.31496062992125984
        },
        {
          "duration": 0.12903199999999515,
          "durationTicks": 160,
          "midi": 58,
          "name": "A#3",
          "ticks": 475680,
          "time": 383.612136,
          "velocity": 0.31496062992125984
        },
        {
          "duration": 0.12903199999999515,
          "durationTicks": 160,
          "midi": 55,
          "name": "G3",
          "ticks": 476160,
          "time": 383.999232,
          "velocity": 0.31496062992125984
        },
        {
          "duration": 0.12903199999999515,
          "durationTicks": 160,
          "midi": 58,
          "name": "A#3",
          "ticks": 476160,
          "time": 383.999232,
          "velocity": 0.31496062992125984
        },
        {
          "duration": 0.12903199999999515,
          "durationTicks": 160,
          "midi": 55,
          "name": "G3",
          "ticks": 476640,
          "time": 384.386328,
          "velocity": 0.31496062992125984
        },
        {
          "duration": 0.12903199999999515,
          "durationTicks": 160,
          "midi": 58,
          "name": "A#3",
          "ticks": 476640,
          "time": 384.386328,
          "velocity": 0.31496062992125984
        },
        {
          "duration": 0.129032000000052,
          "durationTicks": 160,
          "midi": 55,
          "name": "G3",
          "ticks": 477120,
          "time": 384.773424,
          "velocity": 0.31496062992125984
        },
        {
          "duration": 0.129032000000052,
          "durationTicks": 160,
          "midi": 58,
          "name": "A#3",
          "ticks": 477120,
          "time": 384.773424,
          "velocity": 0.31496062992125984
        },
        {
          "duration": 0.12903199999999515,
          "durationTicks": 160,
          "midi": 55,
          "name": "G3",
          "ticks": 478080,
          "time": 385.547616,
          "velocity": 0.31496062992125984
        },
        {
          "duration": 0.12903199999999515,
          "durationTicks": 160,
          "midi": 59,
          "name": "B3",
          "ticks": 479520,
          "time": 386.708904,
          "velocity": 0.31496062992125984
        },
        {
          "duration": 0.12903199999999515,
          "durationTicks": 160,
          "midi": 60,
          "name": "C4",
          "ticks": 480000,
          "time": 387.096,
          "velocity": 0.31496062992125984
        },
        {
          "duration": 0.12903199999999515,
          "durationTicks": 160,
          "midi": 53,
          "name": "F3",
          "ticks": 481920,
          "time": 388.644384,
          "velocity": 0.31496062992125984
        },
        {
          "duration": 0.12903199999999515,
          "durationTicks": 160,
          "midi": 57,
          "name": "A3",
          "ticks": 483360,
          "time": 389.805672,
          "velocity": 0.31496062992125984
        },
        {
          "duration": 0.12903199999999515,
          "durationTicks": 160,
          "midi": 58,
          "name": "A#3",
          "ticks": 483840,
          "time": 390.192768,
          "velocity": 0.31496062992125984
        }
      ]
    },
    {
      "channel": 8,
      "controlChanges": {},
      "pitchBends": [],
      "instrument": {
        "family": "ensemble",
        "number": 48,
        "name": "string ensemble 1"
      },
      "name": "",
      "notes": [
        {
          "duration": 0.1290319999999987,
          "durationTicks": 160,
          "midi": 58,
          "name": "A#3",
          "ticks": 32640,
          "time": 26.322528,
          "velocity": 0.31496062992125984
        },
        {
          "duration": 0.1290319999999987,
          "durationTicks": 160,
          "midi": 58,
          "name": "A#3",
          "ticks": 33120,
          "time": 26.709623999999998,
          "velocity": 0.31496062992125984
        },
        {
          "duration": 0.12903199999999515,
          "durationTicks": 160,
          "midi": 58,
          "name": "A#3",
          "ticks": 33600,
          "time": 27.09672,
          "velocity": 0.31496062992125984
        },
        {
          "duration": 0.1290319999999987,
          "durationTicks": 160,
          "midi": 58,
          "name": "A#3",
          "ticks": 34080,
          "time": 27.483816,
          "velocity": 0.31496062992125984
        },
        {
          "duration": 0.1290319999999987,
          "durationTicks": 160,
          "midi": 58,
          "name": "A#3",
          "ticks": 34560,
          "time": 27.870912,
          "velocity": 0.31496062992125984
        },
        {
          "duration": 0.1290319999999987,
          "durationTicks": 160,
          "midi": 58,
          "name": "A#3",
          "ticks": 35040,
          "time": 28.258008,
          "velocity": 0.31496062992125984
        },
        {
          "duration": 0.1290319999999987,
          "durationTicks": 160,
          "midi": 58,
          "name": "A#3",
          "ticks": 35520,
          "time": 28.645104,
          "velocity": 0.31496062992125984
        },
        {
          "duration": 0.1290319999999987,
          "durationTicks": 160,
          "midi": 58,
          "name": "A#3",
          "ticks": 36480,
          "time": 29.419296,
          "velocity": 0.31496062992125984
        },
        {
          "duration": 0.1290319999999987,
          "durationTicks": 160,
          "midi": 58,
          "name": "A#3",
          "ticks": 36960,
          "time": 29.806392,
          "velocity": 0.31496062992125984
        },
        {
          "duration": 0.1290319999999987,
          "durationTicks": 160,
          "midi": 58,
          "name": "A#3",
          "ticks": 37440,
          "time": 30.193488,
          "velocity": 0.31496062992125984
        },
        {
          "duration": 0.1290319999999987,
          "durationTicks": 160,
          "midi": 58,
          "name": "A#3",
          "ticks": 37920,
          "time": 30.580583999999998,
          "velocity": 0.31496062992125984
        },
        {
          "duration": 0.12903199999999515,
          "durationTicks": 160,
          "midi": 58,
          "name": "A#3",
          "ticks": 38400,
          "time": 30.96768,
          "velocity": 0.31496062992125984
        },
        {
          "duration": 0.12903199999999515,
          "durationTicks": 160,
          "midi": 58,
          "name": "A#3",
          "ticks": 38880,
          "time": 31.354776,
          "velocity": 0.31496062992125984
        },
        {
          "duration": 0.1290319999999987,
          "durationTicks": 160,
          "midi": 58,
          "name": "A#3",
          "ticks": 39360,
          "time": 31.741872,
          "velocity": 0.31496062992125984
        },
        {
          "duration": 0.7096760000000017,
          "durationTicks": 880,
          "midi": 58,
          "name": "A#3",
          "ticks": 43680,
          "time": 35.225736,
          "velocity": 0.5511811023622047
        },
        {
          "duration": 0.12903200000000226,
          "durationTicks": 160,
          "midi": 60,
          "name": "C4",
          "ticks": 44640,
          "time": 35.999928,
          "velocity": 0.7086614173228346
        },
        {
          "duration": 0.12903200000000226,
          "durationTicks": 160,
          "midi": 58,
          "name": "A#3",
          "ticks": 45120,
          "time": 36.387024,
          "velocity": 0.7086614173228346
        },
        {
          "duration": 0.12903200000000226,
          "durationTicks": 160,
          "midi": 56,
          "name": "G#3",
          "ticks": 45600,
          "time": 36.774119999999996,
          "velocity": 0.7086614173228346
        },
        {
          "duration": 0.12903200000000226,
          "durationTicks": 160,
          "midi": 55,
          "name": "G3",
          "ticks": 46080,
          "time": 37.161215999999996,
          "velocity": 0.7086614173228346
        },
        {
          "duration": 0.12903199999999515,
          "durationTicks": 160,
          "midi": 63,
          "name": "D#4",
          "ticks": 48000,
          "time": 38.7096,
          "velocity": 0.3543307086614173
        },
        {
          "duration": 0.12903199999999515,
          "durationTicks": 160,
          "midi": 63,
          "name": "D#4",
          "ticks": 49440,
          "time": 39.870888,
          "velocity": 0.3543307086614173
        },
        {
          "duration": 0.12903199999999515,
          "durationTicks": 160,
          "midi": 65,
          "name": "F4",
          "ticks": 49920,
          "time": 40.257984,
          "velocity": 0.3543307086614173
        },
        {
          "duration": 0.12903199999999515,
          "durationTicks": 160,
          "midi": 65,
          "name": "F4",
          "ticks": 51360,
          "time": 41.419272,
          "velocity": 0.3543307086614173
        },
        {
          "duration": 0.12903199999999515,
          "durationTicks": 160,
          "midi": 63,
          "name": "D#4",
          "ticks": 51840,
          "time": 41.806368,
          "velocity": 0.3543307086614173
        },
        {
          "duration": 0.12903200000000226,
          "durationTicks": 160,
          "midi": 63,
          "name": "D#4",
          "ticks": 52320,
          "time": 42.193464,
          "velocity": 0.3543307086614173
        },
        {
          "duration": 0.12903200000000226,
          "durationTicks": 160,
          "midi": 56,
          "name": "G#3",
          "ticks": 52800,
          "time": 42.58056,
          "velocity": 0.3543307086614173
        },
        {
          "duration": 0.12903200000000226,
          "durationTicks": 160,
          "midi": 56,
          "name": "G#3",
          "ticks": 53280,
          "time": 42.967656,
          "velocity": 0.3543307086614173
        },
        {
          "duration": 0.12903200000000226,
          "durationTicks": 160,
          "midi": 58,
          "name": "A#3",
          "ticks": 53760,
          "time": 43.354752,
          "velocity": 0.3543307086614173
        },
        {
          "duration": 0.12903200000000226,
          "durationTicks": 160,
          "midi": 58,
          "name": "A#3",
          "ticks": 54240,
          "time": 43.741848,
          "velocity": 0.3543307086614173
        },
        {
          "duration": 0.12903200000000226,
          "durationTicks": 160,
          "midi": 58,
          "name": "A#3",
          "ticks": 54720,
          "time": 44.128944,
          "velocity": 0.3543307086614173
        },
        {
          "duration": 0.6129019999999983,
          "durationTicks": 760,
          "midi": 64,
          "name": "E4",
          "ticks": 55680,
          "time": 44.903135999999996,
          "velocity": 0.3543307086614173
        },
        {
          "duration": 0.38709599999999966,
          "durationTicks": 480,
          "midi": 65,
          "name": "F4",
          "ticks": 56640,
          "time": 45.677328,
          "velocity": 0.3543307086614173
        },
        {
          "duration": 0.38387019999999694,
          "durationTicks": 476,
          "midi": 63,
          "name": "D#4",
          "ticks": 57120,
          "time": 46.064424,
          "velocity": 0.3543307086614173
        },
        {
          "duration": 0.6129019999999983,
          "durationTicks": 760,
          "midi": 62,
          "name": "D4",
          "ticks": 57600,
          "time": 46.45152,
          "velocity": 0.3543307086614173
        },
        {
          "duration": 0.12903199999999515,
          "durationTicks": 160,
          "midi": 63,
          "name": "D#4",
          "ticks": 58560,
          "time": 47.225712,
          "velocity": 0.3543307086614173
        },
        {
          "duration": 0.12903199999999515,
          "durationTicks": 160,
          "midi": 55,
          "name": "G3",
          "ticks": 59040,
          "time": 47.612808,
          "velocity": 0.3543307086614173
        },
        {
          "duration": 0.12903199999999515,
          "durationTicks": 160,
          "midi": 56,
          "name": "G#3",
          "ticks": 59520,
          "time": 47.999904,
          "velocity": 0.3543307086614173
        },
        {
          "duration": 0.12903199999999515,
          "durationTicks": 160,
          "midi": 56,
          "name": "G#3",
          "ticks": 60000,
          "time": 48.387,
          "velocity": 0.3543307086614173
        },
        {
          "duration": 0.12903199999999515,
          "durationTicks": 160,
          "midi": 53,
          "name": "F3",
          "ticks": 60480,
          "time": 48.774096,
          "velocity": 0.3543307086614173
        },
        {
          "duration": 0.12903199999999515,
          "durationTicks": 160,
          "midi": 53,
          "name": "F3",
          "ticks": 60960,
          "time": 49.161192,
          "velocity": 0.3543307086614173
        },
        {
          "duration": 0.5161280000000019,
          "durationTicks": 640,
          "midi": 51,
          "name": "D#3",
          "ticks": 61440,
          "time": 49.548288,
          "velocity": 0.3543307086614173
        },
        {
          "duration": 0.12903200000000226,
          "durationTicks": 160,
          "midi": 55,
          "name": "G3",
          "ticks": 63360,
          "time": 51.096672,
          "velocity": 0.3543307086614173
        },
        {
          "duration": 0.12903200000000936,
          "durationTicks": 160,
          "midi": 55,
          "name": "G3",
          "ticks": 64800,
          "time": 52.25796,
          "velocity": 0.3543307086614173
        },
        {
          "duration": 0.12903200000000936,
          "durationTicks": 160,
          "midi": 55,
          "name": "G3",
          "ticks": 65280,
          "time": 52.645056,
          "velocity": 0.3543307086614173
        },
        {
          "duration": 0.12903200000000936,
          "durationTicks": 160,
          "midi": 55,
          "name": "G3",
          "ticks": 65760,
          "time": 53.032151999999996,
          "velocity": 0.3543307086614173
        },
        {
          "duration": 0.12903200000000936,
          "durationTicks": 160,
          "midi": 55,
          "name": "G3",
          "ticks": 66240,
          "time": 53.419247999999996,
          "velocity": 0.3543307086614173
        },
        {
          "duration": 0.12903200000000226,
          "durationTicks": 160,
          "midi": 53,
          "name": "F3",
          "ticks": 67200,
          "time": 54.19344,
          "velocity": 0.3543307086614173
        },
        {
          "duration": 0.12903200000000226,
          "durationTicks": 160,
          "midi": 53,
          "name": "F3",
          "ticks": 68640,
          "time": 55.354728,
          "velocity": 0.3543307086614173
        },
        {
          "duration": 0.12903200000000226,
          "durationTicks": 160,
          "midi": 53,
          "name": "F3",
          "ticks": 69120,
          "time": 55.741824,
          "velocity": 0.3543307086614173
        },
        {
          "duration": 0.12903200000000226,
          "durationTicks": 160,
          "midi": 53,
          "name": "F3",
          "ticks": 69600,
          "time": 56.12892,
          "velocity": 0.3543307086614173
        },
        {
          "duration": 0.12903200000000226,
          "durationTicks": 160,
          "midi": 53,
          "name": "F3",
          "ticks": 70080,
          "time": 56.516016,
          "velocity": 0.3543307086614173
        },
        {
          "duration": 0.6129020000000054,
          "durationTicks": 760,
          "midi": 64,
          "name": "E4",
          "ticks": 71040,
          "time": 57.290208,
          "velocity": 0.3543307086614173
        },
        {
          "duration": 0.38709599999999966,
          "durationTicks": 480,
          "midi": 65,
          "name": "F4",
          "ticks": 72000,
          "time": 58.0644,
          "velocity": 0.3543307086614173
        },
        {
          "duration": 0.38387020000000405,
          "durationTicks": 476,
          "midi": 63,
          "name": "D#4",
          "ticks": 72480,
          "time": 58.451496,
          "velocity": 0.3543307086614173
        },
        {
          "duration": 0.6129020000000054,
          "durationTicks": 760,
          "midi": 62,
          "name": "D4",
          "ticks": 72960,
          "time": 58.838592,
          "velocity": 0.3543307086614173
        },
        {
          "duration": 0.12903200000000226,
          "durationTicks": 160,
          "midi": 63,
          "name": "D#4",
          "ticks": 73920,
          "time": 59.612784,
          "velocity": 0.3543307086614173
        },
        {
          "duration": 0.12903200000000226,
          "durationTicks": 160,
          "midi": 55,
          "name": "G3",
          "ticks": 74400,
          "time": 59.99988,
          "velocity": 0.3543307086614173
        },
        {
          "duration": 0.12903200000000936,
          "durationTicks": 160,
          "midi": 56,
          "name": "G#3",
          "ticks": 74880,
          "time": 60.386976,
          "velocity": 0.3543307086614173
        },
        {
          "duration": 0.12903200000000936,
          "durationTicks": 160,
          "midi": 56,
          "name": "G#3",
          "ticks": 75360,
          "time": 60.774072,
          "velocity": 0.3543307086614173
        },
        {
          "duration": 0.12903200000000936,
          "durationTicks": 160,
          "midi": 53,
          "name": "F3",
          "ticks": 75840,
          "time": 61.161167999999996,
          "velocity": 0.3543307086614173
        },
        {
          "duration": 0.12903200000000936,
          "durationTicks": 160,
          "midi": 53,
          "name": "F3",
          "ticks": 76320,
          "time": 61.548263999999996,
          "velocity": 0.3543307086614173
        },
        {
          "duration": 0.5161280000000019,
          "durationTicks": 640,
          "midi": 51,
          "name": "D#3",
          "ticks": 76800,
          "time": 61.93536,
          "velocity": 0.3543307086614173
        },
        {
          "duration": 0.12903200000000226,
          "durationTicks": 160,
          "midi": 58,
          "name": "A#3",
          "ticks": 78720,
          "time": 63.483744,
          "velocity": 0.31496062992125984
        },
        {
          "duration": 0.12903200000000226,
          "durationTicks": 160,
          "midi": 58,
          "name": "A#3",
          "ticks": 79200,
          "time": 63.87084,
          "velocity": 0.31496062992125984
        },
        {
          "duration": 0.12903199999999515,
          "durationTicks": 160,
          "midi": 58,
          "name": "A#3",
          "ticks": 79680,
          "time": 64.257936,
          "velocity": 0.31496062992125984
        },
        {
          "duration": 0.12903200000000936,
          "durationTicks": 160,
          "midi": 58,
          "name": "A#3",
          "ticks": 80160,
          "time": 64.645032,
          "velocity": 0.31496062992125984
        },
        {
          "duration": 0.12903200000000936,
          "durationTicks": 160,
          "midi": 58,
          "name": "A#3",
          "ticks": 80640,
          "time": 65.032128,
          "velocity": 0.31496062992125984
        },
        {
          "duration": 0.12903200000000936,
          "durationTicks": 160,
          "midi": 58,
          "name": "A#3",
          "ticks": 81120,
          "time": 65.419224,
          "velocity": 0.31496062992125984
        },
        {
          "duration": 0.12903200000000936,
          "durationTicks": 160,
          "midi": 58,
          "name": "A#3",
          "ticks": 81600,
          "time": 65.80632,
          "velocity": 0.31496062992125984
        },
        {
          "duration": 0.12903200000000936,
          "durationTicks": 160,
          "midi": 58,
          "name": "A#3",
          "ticks": 82560,
          "time": 66.580512,
          "velocity": 0.31496062992125984
        },
        {
          "duration": 0.12903200000000936,
          "durationTicks": 160,
          "midi": 58,
          "name": "A#3",
          "ticks": 83040,
          "time": 66.967608,
          "velocity": 0.31496062992125984
        },
        {
          "duration": 0.12903200000000936,
          "durationTicks": 160,
          "midi": 58,
          "name": "A#3",
          "ticks": 83520,
          "time": 67.354704,
          "velocity": 0.31496062992125984
        },
        {
          "duration": 0.12903200000000936,
          "durationTicks": 160,
          "midi": 58,
          "name": "A#3",
          "ticks": 84000,
          "time": 67.7418,
          "velocity": 0.31496062992125984
        },
        {
          "duration": 0.12903200000000936,
          "durationTicks": 160,
          "midi": 58,
          "name": "A#3",
          "ticks": 84480,
          "time": 68.128896,
          "velocity": 0.31496062992125984
        },
        {
          "duration": 0.12903200000000936,
          "durationTicks": 160,
          "midi": 58,
          "name": "A#3",
          "ticks": 84960,
          "time": 68.515992,
          "velocity": 0.31496062992125984
        },
        {
          "duration": 0.12903200000000936,
          "durationTicks": 160,
          "midi": 58,
          "name": "A#3",
          "ticks": 85440,
          "time": 68.903088,
          "velocity": 0.31496062992125984
        },
        {
          "duration": 0.709676000000016,
          "durationTicks": 880,
          "midi": 58,
          "name": "A#3",
          "ticks": 89760,
          "time": 72.386952,
          "velocity": 0.5511811023622047
        },
        {
          "duration": 0.12903200000000936,
          "durationTicks": 160,
          "midi": 60,
          "name": "C4",
          "ticks": 90720,
          "time": 73.161144,
          "velocity": 0.7086614173228346
        },
        {
          "duration": 0.12903200000000936,
          "durationTicks": 160,
          "midi": 58,
          "name": "A#3",
          "ticks": 91200,
          "time": 73.54823999999999,
          "velocity": 0.7086614173228346
        },
        {
          "duration": 0.12903200000000936,
          "durationTicks": 160,
          "midi": 56,
          "name": "G#3",
          "ticks": 91680,
          "time": 73.93533599999999,
          "velocity": 0.7086614173228346
        },
        {
          "duration": 0.12903200000000936,
          "durationTicks": 160,
          "midi": 55,
          "name": "G3",
          "ticks": 92160,
          "time": 74.32243199999999,
          "velocity": 0.7086614173228346
        },
        {
          "duration": 0.12903199999999515,
          "durationTicks": 160,
          "midi": 58,
          "name": "A#3",
          "ticks": 92640,
          "time": 74.709528,
          "velocity": 0.7086614173228346
        },
        {
          "duration": 0.12903199999999515,
          "durationTicks": 160,
          "midi": 58,
          "name": "A#3",
          "ticks": 93120,
          "time": 75.096624,
          "velocity": 0.7086614173228346
        },
        {
          "duration": 0.12903199999999515,
          "durationTicks": 160,
          "midi": 63,
          "name": "D#4",
          "ticks": 94080,
          "time": 75.870816,
          "velocity": 0.31496062992125984
        },
        {
          "duration": 0.12903199999999515,
          "durationTicks": 160,
          "midi": 63,
          "name": "D#4",
          "ticks": 94560,
          "time": 76.257912,
          "velocity": 0.31496062992125984
        },
        {
          "duration": 0.12903199999999515,
          "durationTicks": 160,
          "midi": 63,
          "name": "D#4",
          "ticks": 95040,
          "time": 76.645008,
          "velocity": 0.31496062992125984
        },
        {
          "duration": 0.12903199999999515,
          "durationTicks": 160,
          "midi": 63,
          "name": "D#4",
          "ticks": 95520,
          "time": 77.032104,
          "velocity": 0.31496062992125984
        },
        {
          "duration": 0.12903199999999515,
          "durationTicks": 160,
          "midi": 62,
          "name": "D4",
          "ticks": 96000,
          "time": 77.4192,
          "velocity": 0.31496062992125984
        },
        {
          "duration": 0.12903199999999515,
          "durationTicks": 160,
          "midi": 62,
          "name": "D4",
          "ticks": 96480,
          "time": 77.806296,
          "velocity": 0.31496062992125984
        },
        {
          "duration": 0.12903199999999515,
          "durationTicks": 160,
          "midi": 62,
          "name": "D4",
          "ticks": 96960,
          "time": 78.193392,
          "velocity": 0.31496062992125984
        },
        {
          "duration": 0.12903199999999515,
          "durationTicks": 160,
          "midi": 62,
          "name": "D4",
          "ticks": 97440,
          "time": 78.580488,
          "velocity": 0.31496062992125984
        },
        {
          "duration": 0.12903199999999515,
          "durationTicks": 160,
          "midi": 63,
          "name": "D#4",
          "ticks": 97920,
          "time": 78.967584,
          "velocity": 0.31496062992125984
        },
        {
          "duration": 0.12903199999999515,
          "durationTicks": 160,
          "midi": 63,
          "name": "D#4",
          "ticks": 98400,
          "time": 79.35468,
          "velocity": 0.31496062992125984
        },
        {
          "duration": 0.12903199999999515,
          "durationTicks": 160,
          "midi": 56,
          "name": "G#3",
          "ticks": 98880,
          "time": 79.741776,
          "velocity": 0.31496062992125984
        },
        {
          "duration": 0.12903199999999515,
          "durationTicks": 160,
          "midi": 56,
          "name": "G#3",
          "ticks": 99360,
          "time": 80.128872,
          "velocity": 0.31496062992125984
        },
        {
          "duration": 0.12903199999999515,
          "durationTicks": 160,
          "midi": 58,
          "name": "A#3",
          "ticks": 99840,
          "time": 80.515968,
          "velocity": 0.31496062992125984
        },
        {
          "duration": 0.12903199999999515,
          "durationTicks": 160,
          "midi": 58,
          "name": "A#3",
          "ticks": 100320,
          "time": 80.903064,
          "velocity": 0.31496062992125984
        },
        {
          "duration": 0.12903200000000936,
          "durationTicks": 160,
          "midi": 58,
          "name": "A#3",
          "ticks": 100800,
          "time": 81.29016,
          "velocity": 0.31496062992125984
        },
        {
          "duration": 0.6129020000000054,
          "durationTicks": 760,
          "midi": 56,
          "name": "G#3",
          "ticks": 105600,
          "time": 85.16112,
          "velocity": 0.31496062992125984
        },
        {
          "duration": 0.12903200000000936,
          "durationTicks": 160,
          "midi": 58,
          "name": "A#3",
          "ticks": 107040,
          "time": 86.322408,
          "velocity": 0.31496062992125984
        },
        {
          "duration": 0.12903200000000936,
          "durationTicks": 160,
          "midi": 58,
          "name": "A#3",
          "ticks": 107520,
          "time": 86.709504,
          "velocity": 0.31496062992125984
        },
        {
          "duration": 0.12903200000000936,
          "durationTicks": 160,
          "midi": 58,
          "name": "A#3",
          "ticks": 108000,
          "time": 87.0966,
          "velocity": 0.31496062992125984
        },
        {
          "duration": 0.12903200000000936,
          "durationTicks": 160,
          "midi": 58,
          "name": "A#3",
          "ticks": 108480,
          "time": 87.483696,
          "velocity": 0.31496062992125984
        },
        {
          "duration": 0.6129020000000054,
          "durationTicks": 760,
          "midi": 55,
          "name": "G3",
          "ticks": 109440,
          "time": 88.257888,
          "velocity": 0.31496062992125984
        },
        {
          "duration": 0.12903200000000936,
          "durationTicks": 160,
          "midi": 55,
          "name": "G3",
          "ticks": 110880,
          "time": 89.419176,
          "velocity": 0.31496062992125984
        },
        {
          "duration": 0.6129020000000054,
          "durationTicks": 760,
          "midi": 55,
          "name": "G3",
          "ticks": 111360,
          "time": 89.80627199999999,
          "velocity": 0.31496062992125984
        },
        {
          "duration": 0.6129019999999912,
          "durationTicks": 760,
          "midi": 53,
          "name": "F3",
          "ticks": 113280,
          "time": 91.354656,
          "velocity": 0.31496062992125984
        },
        {
          "duration": 0.12903199999999515,
          "durationTicks": 160,
          "midi": 53,
          "name": "F3",
          "ticks": 114720,
          "time": 92.515944,
          "velocity": 0.31496062992125984
        },
        {
          "duration": 0.6129020000000054,
          "durationTicks": 760,
          "midi": 53,
          "name": "F3",
          "ticks": 115200,
          "time": 92.90304,
          "velocity": 0.31496062992125984
        },
        {
          "duration": 0.6129020000000054,
          "durationTicks": 760,
          "midi": 56,
          "name": "G#3",
          "ticks": 120960,
          "time": 97.548192,
          "velocity": 0.31496062992125984
        },
        {
          "duration": 0.12903200000000936,
          "durationTicks": 160,
          "midi": 58,
          "name": "A#3",
          "ticks": 122400,
          "time": 98.70948,
          "velocity": 0.31496062992125984
        },
        {
          "duration": 0.12903199999999515,
          "durationTicks": 160,
          "midi": 58,
          "name": "A#3",
          "ticks": 122880,
          "time": 99.096576,
          "velocity": 0.31496062992125984
        },
        {
          "duration": 0.12903199999999515,
          "durationTicks": 160,
          "midi": 58,
          "name": "A#3",
          "ticks": 123360,
          "time": 99.483672,
          "velocity": 0.31496062992125984
        },
        {
          "duration": 0.12903199999999515,
          "durationTicks": 160,
          "midi": 58,
          "name": "A#3",
          "ticks": 123840,
          "time": 99.870768,
          "velocity": 0.31496062992125984
        },
        {
          "duration": 0.19354800000000694,
          "durationTicks": 240,
          "midi": 62,
          "name": "D4",
          "ticks": 124320,
          "time": 100.257864,
          "velocity": 0.3543307086614173
        },
        {
          "duration": 0.19354799999999273,
          "durationTicks": 240,
          "midi": 63,
          "name": "D#4",
          "ticks": 124560,
          "time": 100.451412,
          "velocity": 0.31496062992125984
        },
        {
          "duration": 0.12903199999999515,
          "durationTicks": 160,
          "midi": 58,
          "name": "A#3",
          "ticks": 124800,
          "time": 100.64496,
          "velocity": 0.31496062992125984
        },
        {
          "duration": 0.12903199999999515,
          "durationTicks": 160,
          "midi": 65,
          "name": "F4",
          "ticks": 124800,
          "time": 100.64496,
          "velocity": 0.31496062992125984
        },
        {
          "duration": 0.12903199999999515,
          "durationTicks": 160,
          "midi": 58,
          "name": "A#3",
          "ticks": 125280,
          "time": 101.032056,
          "velocity": 0.31496062992125984
        },
        {
          "duration": 0.12903199999999515,
          "durationTicks": 160,
          "midi": 65,
          "name": "F4",
          "ticks": 125280,
          "time": 101.032056,
          "velocity": 0.31496062992125984
        },
        {
          "duration": 0.12903199999999515,
          "durationTicks": 160,
          "midi": 58,
          "name": "A#3",
          "ticks": 125760,
          "time": 101.419152,
          "velocity": 0.31496062992125984
        },
        {
          "duration": 0.12903199999999515,
          "durationTicks": 160,
          "midi": 67,
          "name": "G4",
          "ticks": 125760,
          "time": 101.419152,
          "velocity": 0.31496062992125984
        },
        {
          "duration": 0.12903199999999515,
          "durationTicks": 160,
          "midi": 58,
          "name": "A#3",
          "ticks": 126240,
          "time": 101.806248,
          "velocity": 0.31496062992125984
        },
        {
          "duration": 0.12903199999999515,
          "durationTicks": 160,
          "midi": 67,
          "name": "G4",
          "ticks": 126240,
          "time": 101.806248,
          "velocity": 0.31496062992125984
        },
        {
          "duration": 0.12903199999999515,
          "durationTicks": 160,
          "midi": 58,
          "name": "A#3",
          "ticks": 126720,
          "time": 102.193344,
          "velocity": 0.31496062992125984
        },
        {
          "duration": 0.19354800000000694,
          "durationTicks": 240,
          "midi": 68,
          "name": "G#4",
          "ticks": 126720,
          "time": 102.193344,
          "velocity": 0.31496062992125984
        },
        {
          "duration": 0.19354799999999273,
          "durationTicks": 240,
          "midi": 70,
          "name": "A#4",
          "ticks": 126960,
          "time": 102.386892,
          "velocity": 0.31496062992125984
        },
        {
          "duration": 0.12903199999999515,
          "durationTicks": 160,
          "midi": 58,
          "name": "A#3",
          "ticks": 127200,
          "time": 102.58044,
          "velocity": 0.31496062992125984
        },
        {
          "duration": 0.19354800000000694,
          "durationTicks": 240,
          "midi": 67,
          "name": "G4",
          "ticks": 127200,
          "time": 102.58044,
          "velocity": 0.31496062992125984
        },
        {
          "duration": 0.12903199999999515,
          "durationTicks": 160,
          "midi": 68,
          "name": "G#4",
          "ticks": 127440,
          "time": 102.773988,
          "velocity": 0.31496062992125984
        },
        {
          "duration": 0.12903199999999515,
          "durationTicks": 160,
          "midi": 58,
          "name": "A#3",
          "ticks": 127680,
          "time": 102.967536,
          "velocity": 0.31496062992125984
        },
        {
          "duration": 0.12903199999999515,
          "durationTicks": 160,
          "midi": 65,
          "name": "F4",
          "ticks": 127680,
          "time": 102.967536,
          "velocity": 0.31496062992125984
        },
        {
          "duration": 0.12903199999999515,
          "durationTicks": 160,
          "midi": 58,
          "name": "A#3",
          "ticks": 128160,
          "time": 103.354632,
          "velocity": 0.31496062992125984
        },
        {
          "duration": 0.19354800000000694,
          "durationTicks": 240,
          "midi": 62,
          "name": "D4",
          "ticks": 128160,
          "time": 103.354632,
          "velocity": 0.31496062992125984
        },
        {
          "duration": 0.19354799999999273,
          "durationTicks": 240,
          "midi": 63,
          "name": "D#4",
          "ticks": 128400,
          "time": 103.54818,
          "velocity": 0.31496062992125984
        },
        {
          "duration": 0.12903199999999515,
          "durationTicks": 160,
          "midi": 58,
          "name": "A#3",
          "ticks": 128640,
          "time": 103.741728,
          "velocity": 0.31496062992125984
        },
        {
          "duration": 0.12903199999999515,
          "durationTicks": 160,
          "midi": 65,
          "name": "F4",
          "ticks": 128640,
          "time": 103.741728,
          "velocity": 0.31496062992125984
        },
        {
          "duration": 0.12903199999999515,
          "durationTicks": 160,
          "midi": 58,
          "name": "A#3",
          "ticks": 129120,
          "time": 104.128824,
          "velocity": 0.31496062992125984
        },
        {
          "duration": 0.12903199999999515,
          "durationTicks": 160,
          "midi": 65,
          "name": "F4",
          "ticks": 129120,
          "time": 104.128824,
          "velocity": 0.31496062992125984
        },
        {
          "duration": 0.12903199999999515,
          "durationTicks": 160,
          "midi": 58,
          "name": "A#3",
          "ticks": 129600,
          "time": 104.51592,
          "velocity": 0.31496062992125984
        },
        {
          "duration": 0.12903199999999515,
          "durationTicks": 160,
          "midi": 67,
          "name": "G4",
          "ticks": 129600,
          "time": 104.51592,
          "velocity": 0.31496062992125984
        },
        {
          "duration": 0.12903199999999515,
          "durationTicks": 160,
          "midi": 58,
          "name": "A#3",
          "ticks": 130080,
          "time": 104.903016,
          "velocity": 0.31496062992125984
        },
        {
          "duration": 0.12903199999999515,
          "durationTicks": 160,
          "midi": 67,
          "name": "G4",
          "ticks": 130080,
          "time": 104.903016,
          "velocity": 0.31496062992125984
        },
        {
          "duration": 0.12903199999999515,
          "durationTicks": 160,
          "midi": 58,
          "name": "A#3",
          "ticks": 130560,
          "time": 105.290112,
          "velocity": 0.31496062992125984
        },
        {
          "duration": 0.19354800000000694,
          "durationTicks": 240,
          "midi": 68,
          "name": "G#4",
          "ticks": 130560,
          "time": 105.290112,
          "velocity": 0.31496062992125984
        },
        {
          "duration": 0.19354799999999273,
          "durationTicks": 240,
          "midi": 70,
          "name": "A#4",
          "ticks": 130800,
          "time": 105.48366,
          "velocity": 0.31496062992125984
        },
        {
          "duration": 0.12903199999999515,
          "durationTicks": 160,
          "midi": 58,
          "name": "A#3",
          "ticks": 131040,
          "time": 105.677208,
          "velocity": 0.31496062992125984
        },
        {
          "duration": 0.19354800000000694,
          "durationTicks": 240,
          "midi": 67,
          "name": "G4",
          "ticks": 131040,
          "time": 105.677208,
          "velocity": 0.31496062992125984
        },
        {
          "duration": 0.12903199999999515,
          "durationTicks": 160,
          "midi": 68,
          "name": "G#4",
          "ticks": 131280,
          "time": 105.870756,
          "velocity": 0.31496062992125984
        },
        {
          "duration": 0.12903199999999515,
          "durationTicks": 160,
          "midi": 58,
          "name": "A#3",
          "ticks": 131520,
          "time": 106.06430399999999,
          "velocity": 0.31496062992125984
        },
        {
          "duration": 0.12903199999999515,
          "durationTicks": 160,
          "midi": 65,
          "name": "F4",
          "ticks": 131520,
          "time": 106.06430399999999,
          "velocity": 0.31496062992125984
        },
        {
          "duration": 0.38709599999999966,
          "durationTicks": 480,
          "midi": 65,
          "name": "F4",
          "ticks": 135840,
          "time": 109.548168,
          "velocity": 0.5511811023622047
        },
        {
          "duration": 0.1370964999999984,
          "durationTicks": 170,
          "midi": 67,
          "name": "G4",
          "ticks": 136320,
          "time": 109.935264,
          "velocity": 0.5511811023622047
        },
        {
          "duration": 0.19354800000000694,
          "durationTicks": 240,
          "midi": 65,
          "name": "F4",
          "ticks": 136560,
          "time": 110.128812,
          "velocity": 0.7086614173228346
        },
        {
          "duration": 0.19354799999999273,
          "durationTicks": 240,
          "midi": 62,
          "name": "D4",
          "ticks": 136800,
          "time": 110.32236,
          "velocity": 0.7086614173228346
        },
        {
          "duration": 0.19354800000000694,
          "durationTicks": 240,
          "midi": 56,
          "name": "G#3",
          "ticks": 137040,
          "time": 110.515908,
          "velocity": 0.7086614173228346
        },
        {
          "duration": 0.19354800000000694,
          "durationTicks": 240,
          "midi": 60,
          "name": "C4",
          "ticks": 137040,
          "time": 110.515908,
          "velocity": 0.7086614173228346
        },
        {
          "duration": 0.12903199999999515,
          "durationTicks": 160,
          "midi": 58,
          "name": "A#3",
          "ticks": 137280,
          "time": 110.709456,
          "velocity": 0.7086614173228346
        },
        {
          "duration": 0.12903199999999515,
          "durationTicks": 160,
          "midi": 58,
          "name": "A#3",
          "ticks": 137760,
          "time": 111.096552,
          "velocity": 0.7086614173228346
        },
        {
          "duration": 0.12903199999999515,
          "durationTicks": 160,
          "midi": 58,
          "name": "A#3",
          "ticks": 138240,
          "time": 111.483648,
          "velocity": 0.7086614173228346
        },
        {
          "duration": 0.12903199999999515,
          "durationTicks": 160,
          "midi": 58,
          "name": "A#3",
          "ticks": 138720,
          "time": 111.870744,
          "velocity": 0.7086614173228346
        },
        {
          "duration": 0.12903199999999515,
          "durationTicks": 160,
          "midi": 58,
          "name": "A#3",
          "ticks": 139200,
          "time": 112.25784,
          "velocity": 0.7086614173228346
        },
        {
          "duration": 0.38709599999999966,
          "durationTicks": 480,
          "midi": 56,
          "name": "G#3",
          "ticks": 152160,
          "time": 122.70943199999999,
          "velocity": 0.31496062992125984
        },
        {
          "duration": 0.38709599999999966,
          "durationTicks": 480,
          "midi": 58,
          "name": "A#3",
          "ticks": 152640,
          "time": 123.09652799999999,
          "velocity": 0.31496062992125984
        },
        {
          "duration": 0.22580600000000572,
          "durationTicks": 280,
          "midi": 56,
          "name": "G#3",
          "ticks": 153120,
          "time": 123.48362399999999,
          "velocity": 0.31496062992125984
        },
        {
          "duration": 0.7709661999999895,
          "durationTicks": 956,
          "midi": 56,
          "name": "G#3",
          "ticks": 153600,
          "time": 123.87072,
          "velocity": 0.31496062992125984
        },
        {
          "duration": 0.7709661999999895,
          "durationTicks": 956,
          "midi": 62,
          "name": "D4",
          "ticks": 153600,
          "time": 123.87072,
          "velocity": 0.31496062992125984
        },
        {
          "duration": 0.12903199999998094,
          "durationTicks": 160,
          "midi": 55,
          "name": "G3",
          "ticks": 154560,
          "time": 124.644912,
          "velocity": 0.31496062992125984
        },
        {
          "duration": 0.12903199999998094,
          "durationTicks": 160,
          "midi": 63,
          "name": "D#4",
          "ticks": 154560,
          "time": 124.644912,
          "velocity": 0.31496062992125984
        },
        {
          "duration": 2.16128599999999,
          "durationTicks": 2680,
          "midi": 55,
          "name": "G3",
          "ticks": 155520,
          "time": 125.419104,
          "velocity": 0.31496062992125984
        },
        {
          "duration": 1.5483839999999987,
          "durationTicks": 1920,
          "midi": 62,
          "name": "D4",
          "ticks": 155520,
          "time": 125.419104,
          "velocity": 0.31496062992125984
        },
        {
          "duration": 0.6129019999999912,
          "durationTicks": 760,
          "midi": 63,
          "name": "D#4",
          "ticks": 157440,
          "time": 126.967488,
          "velocity": 0.31496062992125984
        },
        {
          "duration": 2.16128599999999,
          "durationTicks": 2680,
          "midi": 53,
          "name": "F3",
          "ticks": 159360,
          "time": 128.515872,
          "velocity": 0.31496062992125984
        },
        {
          "duration": 1.5483839999999987,
          "durationTicks": 1920,
          "midi": 60,
          "name": "C4",
          "ticks": 159360,
          "time": 128.515872,
          "velocity": 0.31496062992125984
        },
        {
          "duration": 0.6129019999999912,
          "durationTicks": 760,
          "midi": 62,
          "name": "D4",
          "ticks": 161280,
          "time": 130.064256,
          "velocity": 0.31496062992125984
        },
        {
          "duration": 0.38709599999998545,
          "durationTicks": 480,
          "midi": 56,
          "name": "G#3",
          "ticks": 167520,
          "time": 135.096504,
          "velocity": 0.31496062992125984
        },
        {
          "duration": 0.3870960000000139,
          "durationTicks": 480,
          "midi": 58,
          "name": "A#3",
          "ticks": 168000,
          "time": 135.4836,
          "velocity": 0.31496062992125984
        },
        {
          "duration": 0.2258059999999773,
          "durationTicks": 280,
          "midi": 56,
          "name": "G#3",
          "ticks": 168480,
          "time": 135.870696,
          "velocity": 0.31496062992125984
        },
        {
          "duration": 0.7741919999999993,
          "durationTicks": 960,
          "midi": 56,
          "name": "G#3",
          "ticks": 168960,
          "time": 136.257792,
          "velocity": 0.31496062992125984
        },
        {
          "duration": 0.7741919999999993,
          "durationTicks": 960,
          "midi": 62,
          "name": "D4",
          "ticks": 168960,
          "time": 136.257792,
          "velocity": 0.31496062992125984
        },
        {
          "duration": 0.12903199999999515,
          "durationTicks": 160,
          "midi": 55,
          "name": "G3",
          "ticks": 169920,
          "time": 137.031984,
          "velocity": 0.31496062992125984
        },
        {
          "duration": 0.12903199999999515,
          "durationTicks": 160,
          "midi": 63,
          "name": "D#4",
          "ticks": 169920,
          "time": 137.031984,
          "velocity": 0.31496062992125984
        },
        {
          "duration": 0.19354799999999273,
          "durationTicks": 240,
          "midi": 62,
          "name": "D4",
          "ticks": 170400,
          "time": 137.41908,
          "velocity": 0.31496062992125984
        },
        {
          "duration": 0.19354799999999273,
          "durationTicks": 240,
          "midi": 63,
          "name": "D#4",
          "ticks": 170640,
          "time": 137.612628,
          "velocity": 0.31496062992125984
        },
        {
          "duration": 0.12903199999999515,
          "durationTicks": 160,
          "midi": 58,
          "name": "A#3",
          "ticks": 170880,
          "time": 137.806176,
          "velocity": 0.31496062992125984
        },
        {
          "duration": 0.12903199999999515,
          "durationTicks": 160,
          "midi": 65,
          "name": "F4",
          "ticks": 170880,
          "time": 137.806176,
          "velocity": 0.31496062992125984
        },
        {
          "duration": 0.12903199999999515,
          "durationTicks": 160,
          "midi": 58,
          "name": "A#3",
          "ticks": 171360,
          "time": 138.193272,
          "velocity": 0.31496062992125984
        },
        {
          "duration": 0.12903199999999515,
          "durationTicks": 160,
          "midi": 65,
          "name": "F4",
          "ticks": 171360,
          "time": 138.193272,
          "velocity": 0.31496062992125984
        },
        {
          "duration": 0.12903199999999515,
          "durationTicks": 160,
          "midi": 58,
          "name": "A#3",
          "ticks": 171840,
          "time": 138.580368,
          "velocity": 0.31496062992125984
        },
        {
          "duration": 0.12903199999999515,
          "durationTicks": 160,
          "midi": 67,
          "name": "G4",
          "ticks": 171840,
          "time": 138.580368,
          "velocity": 0.31496062992125984
        },
        {
          "duration": 0.12903199999999515,
          "durationTicks": 160,
          "midi": 58,
          "name": "A#3",
          "ticks": 172320,
          "time": 138.967464,
          "velocity": 0.31496062992125984
        },
        {
          "duration": 0.12903199999999515,
          "durationTicks": 160,
          "midi": 67,
          "name": "G4",
          "ticks": 172320,
          "time": 138.967464,
          "velocity": 0.31496062992125984
        },
        {
          "duration": 0.12903199999999515,
          "durationTicks": 160,
          "midi": 58,
          "name": "A#3",
          "ticks": 172800,
          "time": 139.35456,
          "velocity": 0.31496062992125984
        },
        {
          "duration": 0.19354799999999273,
          "durationTicks": 240,
          "midi": 68,
          "name": "G#4",
          "ticks": 172800,
          "time": 139.35456,
          "velocity": 0.31496062992125984
        },
        {
          "duration": 0.19354800000002115,
          "durationTicks": 240,
          "midi": 67,
          "name": "G4",
          "ticks": 173040,
          "time": 139.54810799999998,
          "velocity": 0.31496062992125984
        },
        {
          "duration": 0.12903199999999515,
          "durationTicks": 160,
          "midi": 58,
          "name": "A#3",
          "ticks": 173280,
          "time": 139.741656,
          "velocity": 0.31496062992125984
        },
        {
          "duration": 0.19354799999999273,
          "durationTicks": 240,
          "midi": 68,
          "name": "G#4",
          "ticks": 173280,
          "time": 139.741656,
          "velocity": 0.31496062992125984
        },
        {
          "duration": 0.19354799999999273,
          "durationTicks": 240,
          "midi": 67,
          "name": "G4",
          "ticks": 173520,
          "time": 139.935204,
          "velocity": 0.31496062992125984
        },
        {
          "duration": 0.12903199999999515,
          "durationTicks": 160,
          "midi": 58,
          "name": "A#3",
          "ticks": 173760,
          "time": 140.128752,
          "velocity": 0.31496062992125984
        },
        {
          "duration": 0.19354799999999273,
          "durationTicks": 240,
          "midi": 65,
          "name": "F4",
          "ticks": 173760,
          "time": 140.128752,
          "velocity": 0.31496062992125984
        },
        {
          "duration": 0.19354800000002115,
          "durationTicks": 240,
          "midi": 63,
          "name": "D#4",
          "ticks": 174000,
          "time": 140.32229999999998,
          "velocity": 0.31496062992125984
        },
        {
          "duration": 0.12903199999999515,
          "durationTicks": 160,
          "midi": 58,
          "name": "A#3",
          "ticks": 174240,
          "time": 140.515848,
          "velocity": 0.31496062992125984
        },
        {
          "duration": 0.19354799999999273,
          "durationTicks": 240,
          "midi": 62,
          "name": "D4",
          "ticks": 174240,
          "time": 140.515848,
          "velocity": 0.31496062992125984
        },
        {
          "duration": 0.19354799999999273,
          "durationTicks": 240,
          "midi": 63,
          "name": "D#4",
          "ticks": 174480,
          "time": 140.709396,
          "velocity": 0.31496062992125984
        },
        {
          "duration": 0.12903199999999515,
          "durationTicks": 160,
          "midi": 58,
          "name": "A#3",
          "ticks": 174720,
          "time": 140.902944,
          "velocity": 0.31496062992125984
        },
        {
          "duration": 0.12903199999999515,
          "durationTicks": 160,
          "midi": 65,
          "name": "F4",
          "ticks": 174720,
          "time": 140.902944,
          "velocity": 0.31496062992125984
        },
        {
          "duration": 0.12903199999999515,
          "durationTicks": 160,
          "midi": 58,
          "name": "A#3",
          "ticks": 175200,
          "time": 141.29004,
          "velocity": 0.31496062992125984
        },
        {
          "duration": 0.12903199999999515,
          "durationTicks": 160,
          "midi": 65,
          "name": "F4",
          "ticks": 175200,
          "time": 141.29004,
          "velocity": 0.31496062992125984
        },
        {
          "duration": 0.12903199999999515,
          "durationTicks": 160,
          "midi": 58,
          "name": "A#3",
          "ticks": 175680,
          "time": 141.677136,
          "velocity": 0.31496062992125984
        },
        {
          "duration": 0.12903199999999515,
          "durationTicks": 160,
          "midi": 67,
          "name": "G4",
          "ticks": 175680,
          "time": 141.677136,
          "velocity": 0.31496062992125984
        },
        {
          "duration": 0.12903199999999515,
          "durationTicks": 160,
          "midi": 58,
          "name": "A#3",
          "ticks": 176160,
          "time": 142.064232,
          "velocity": 0.31496062992125984
        },
        {
          "duration": 0.12903199999999515,
          "durationTicks": 160,
          "midi": 67,
          "name": "G4",
          "ticks": 176160,
          "time": 142.064232,
          "velocity": 0.31496062992125984
        },
        {
          "duration": 0.12903199999999515,
          "durationTicks": 160,
          "midi": 58,
          "name": "A#3",
          "ticks": 176640,
          "time": 142.451328,
          "velocity": 0.31496062992125984
        },
        {
          "duration": 0.19354800000002115,
          "durationTicks": 240,
          "midi": 68,
          "name": "G#4",
          "ticks": 176640,
          "time": 142.451328,
          "velocity": 0.31496062992125984
        },
        {
          "duration": 0.19354799999999273,
          "durationTicks": 240,
          "midi": 67,
          "name": "G4",
          "ticks": 176880,
          "time": 142.644876,
          "velocity": 0.31496062992125984
        },
        {
          "duration": 0.12903199999999515,
          "durationTicks": 160,
          "midi": 58,
          "name": "A#3",
          "ticks": 177120,
          "time": 142.838424,
          "velocity": 0.31496062992125984
        },
        {
          "duration": 0.19354799999999273,
          "durationTicks": 240,
          "midi": 68,
          "name": "G#4",
          "ticks": 177120,
          "time": 142.838424,
          "velocity": 0.31496062992125984
        },
        {
          "duration": 0.19354799999999273,
          "durationTicks": 240,
          "midi": 67,
          "name": "G4",
          "ticks": 177360,
          "time": 143.031972,
          "velocity": 0.31496062992125984
        },
        {
          "duration": 0.12903199999999515,
          "durationTicks": 160,
          "midi": 58,
          "name": "A#3",
          "ticks": 177600,
          "time": 143.22552,
          "velocity": 0.31496062992125984
        },
        {
          "duration": 0.19354800000002115,
          "durationTicks": 240,
          "midi": 65,
          "name": "F4",
          "ticks": 177600,
          "time": 143.22552,
          "velocity": 0.31496062992125984
        },
        {
          "duration": 0.38709599999998545,
          "durationTicks": 480,
          "midi": 65,
          "name": "F4",
          "ticks": 181920,
          "time": 146.709384,
          "velocity": 0.5511811023622047
        },
        {
          "duration": 0.1370965000000126,
          "durationTicks": 170,
          "midi": 67,
          "name": "G4",
          "ticks": 182400,
          "time": 147.09647999999999,
          "velocity": 0.5511811023622047
        },
        {
          "duration": 0.19354799999999273,
          "durationTicks": 240,
          "midi": 65,
          "name": "F4",
          "ticks": 182640,
          "time": 147.290028,
          "velocity": 0.7086614173228346
        },
        {
          "duration": 0.19354799999999273,
          "durationTicks": 240,
          "midi": 62,
          "name": "D4",
          "ticks": 182880,
          "time": 147.483576,
          "velocity": 0.7086614173228346
        },
        {
          "duration": 0.19354799999999273,
          "durationTicks": 240,
          "midi": 60,
          "name": "C4",
          "ticks": 183120,
          "time": 147.677124,
          "velocity": 0.7086614173228346
        },
        {
          "duration": 0.12903199999999515,
          "durationTicks": 160,
          "midi": 58,
          "name": "A#3",
          "ticks": 183360,
          "time": 147.87067199999998,
          "velocity": 0.7086614173228346
        },
        {
          "duration": 0.12903199999999515,
          "durationTicks": 160,
          "midi": 58,
          "name": "A#3",
          "ticks": 183840,
          "time": 148.257768,
          "velocity": 0.7086614173228346
        },
        {
          "duration": 0.12903199999999515,
          "durationTicks": 160,
          "midi": 58,
          "name": "A#3",
          "ticks": 184320,
          "time": 148.64486399999998,
          "velocity": 0.7086614173228346
        },
        {
          "duration": 0.12903199999999515,
          "durationTicks": 160,
          "midi": 58,
          "name": "A#3",
          "ticks": 184800,
          "time": 149.03196,
          "velocity": 0.7086614173228346
        },
        {
          "duration": 0.12903199999996673,
          "durationTicks": 160,
          "midi": 58,
          "name": "A#3",
          "ticks": 185280,
          "time": 149.419056,
          "velocity": 0.7086614173228346
        },
        {
          "duration": 0.1370965000000126,
          "durationTicks": 170,
          "midi": 58,
          "name": "A#3",
          "ticks": 186480,
          "time": 150.386796,
          "velocity": 0.31496062992125984
        },
        {
          "duration": 0.1370965000000126,
          "durationTicks": 170,
          "midi": 58,
          "name": "A#3",
          "ticks": 186720,
          "time": 150.580344,
          "velocity": 0.31496062992125984
        },
        {
          "duration": 0.1370965000000126,
          "durationTicks": 170,
          "midi": 58,
          "name": "A#3",
          "ticks": 186960,
          "time": 150.773892,
          "velocity": 0.31496062992125984
        },
        {
          "duration": 0.1370964999999842,
          "durationTicks": 170,
          "midi": 58,
          "name": "A#3",
          "ticks": 187200,
          "time": 150.96744,
          "velocity": 0.31496062992125984
        },
        {
          "duration": 0.1370965000000126,
          "durationTicks": 170,
          "midi": 58,
          "name": "A#3",
          "ticks": 187440,
          "time": 151.160988,
          "velocity": 0.31496062992125984
        },
        {
          "duration": 0.1370965000000126,
          "durationTicks": 170,
          "midi": 58,
          "name": "A#3",
          "ticks": 187680,
          "time": 151.354536,
          "velocity": 0.31496062992125984
        },
        {
          "duration": 0.1370965000000126,
          "durationTicks": 170,
          "midi": 58,
          "name": "A#3",
          "ticks": 187920,
          "time": 151.548084,
          "velocity": 0.31496062992125984
        },
        {
          "duration": 0.1370965000000126,
          "durationTicks": 170,
          "midi": 58,
          "name": "A#3",
          "ticks": 188400,
          "time": 151.93518,
          "velocity": 0.31496062992125984
        },
        {
          "duration": 0.1370965000000126,
          "durationTicks": 170,
          "midi": 58,
          "name": "A#3",
          "ticks": 188640,
          "time": 152.128728,
          "velocity": 0.31496062992125984
        },
        {
          "duration": 0.1370965000000126,
          "durationTicks": 170,
          "midi": 58,
          "name": "A#3",
          "ticks": 188880,
          "time": 152.322276,
          "velocity": 0.31496062992125984
        },
        {
          "duration": 0.1370964999999842,
          "durationTicks": 170,
          "midi": 58,
          "name": "A#3",
          "ticks": 189120,
          "time": 152.515824,
          "velocity": 0.31496062992125984
        },
        {
          "duration": 0.1370965000000126,
          "durationTicks": 170,
          "midi": 58,
          "name": "A#3",
          "ticks": 189360,
          "time": 152.709372,
          "velocity": 0.31496062992125984
        },
        {
          "duration": 0.1370965000000126,
          "durationTicks": 170,
          "midi": 58,
          "name": "A#3",
          "ticks": 189600,
          "time": 152.90292,
          "velocity": 0.31496062992125984
        },
        {
          "duration": 0.1370965000000126,
          "durationTicks": 170,
          "midi": 58,
          "name": "A#3",
          "ticks": 189840,
          "time": 153.096468,
          "velocity": 0.31496062992125984
        },
        {
          "duration": 0.1370965000000126,
          "durationTicks": 170,
          "midi": 58,
          "name": "A#3",
          "ticks": 190320,
          "time": 153.483564,
          "velocity": 0.31496062992125984
        },
        {
          "duration": 0.1370965000000126,
          "durationTicks": 170,
          "midi": 58,
          "name": "A#3",
          "ticks": 190560,
          "time": 153.677112,
          "velocity": 0.31496062992125984
        },
        {
          "duration": 0.1370965000000126,
          "durationTicks": 170,
          "midi": 58,
          "name": "A#3",
          "ticks": 190800,
          "time": 153.87066,
          "velocity": 0.31496062992125984
        },
        {
          "duration": 0.1370965000000126,
          "durationTicks": 170,
          "midi": 56,
          "name": "G#3",
          "ticks": 191280,
          "time": 154.257756,
          "velocity": 0.31496062992125984
        },
        {
          "duration": 0.1370965000000126,
          "durationTicks": 170,
          "midi": 56,
          "name": "G#3",
          "ticks": 191520,
          "time": 154.451304,
          "velocity": 0.31496062992125984
        },
        {
          "duration": 0.1370965000000126,
          "durationTicks": 170,
          "midi": 56,
          "name": "G#3",
          "ticks": 191760,
          "time": 154.644852,
          "velocity": 0.31496062992125984
        },
        {
          "duration": 0.19354799999999273,
          "durationTicks": 240,
          "midi": 57,
          "name": "A3",
          "ticks": 192240,
          "time": 155.031948,
          "velocity": 0.31496062992125984
        },
        {
          "duration": 0.19354799999999273,
          "durationTicks": 240,
          "midi": 58,
          "name": "A#3",
          "ticks": 192480,
          "time": 155.225496,
          "velocity": 0.31496062992125984
        },
        {
          "duration": 0.1370965000000126,
          "durationTicks": 170,
          "midi": 57,
          "name": "A3",
          "ticks": 192720,
          "time": 155.41904399999999,
          "velocity": 0.31496062992125984
        },
        {
          "duration": 0.1370965000000126,
          "durationTicks": 170,
          "midi": 56,
          "name": "G#3",
          "ticks": 192960,
          "time": 155.612592,
          "velocity": 0.31496062992125984
        },
        {
          "duration": 0.6129019999999912,
          "durationTicks": 760,
          "midi": 58,
          "name": "A#3",
          "ticks": 197280,
          "time": 159.096456,
          "velocity": 0.31496062992125984
        },
        {
          "duration": 0.3870960000000139,
          "durationTicks": 480,
          "midi": 62,
          "name": "D4",
          "ticks": 197280,
          "time": 159.096456,
          "velocity": 0.31496062992125984
        },
        {
          "duration": 0.12903199999999515,
          "durationTicks": 160,
          "midi": 63,
          "name": "D#4",
          "ticks": 197760,
          "time": 159.483552,
          "velocity": 0.31496062992125984
        },
        {
          "duration": 0.1370965000000126,
          "durationTicks": 170,
          "midi": 58,
          "name": "A#3",
          "ticks": 198720,
          "time": 160.257744,
          "velocity": 0.31496062992125984
        },
        {
          "duration": 0.1370965000000126,
          "durationTicks": 170,
          "midi": 58,
          "name": "A#3",
          "ticks": 199200,
          "time": 160.64484,
          "velocity": 0.31496062992125984
        },
        {
          "duration": 0.6129019999999912,
          "durationTicks": 760,
          "midi": 58,
          "name": "A#3",
          "ticks": 199680,
          "time": 161.031936,
          "velocity": 0.31496062992125984
        },
        {
          "duration": 0.12903199999999515,
          "durationTicks": 160,
          "midi": 59,
          "name": "B3",
          "ticks": 201840,
          "time": 162.773868,
          "velocity": 0.31496062992125984
        },
        {
          "duration": 0.12903199999999515,
          "durationTicks": 160,
          "midi": 62,
          "name": "D4",
          "ticks": 201840,
          "time": 162.773868,
          "velocity": 0.31496062992125984
        },
        {
          "duration": 0.12903199999999515,
          "durationTicks": 160,
          "midi": 59,
          "name": "B3",
          "ticks": 202080,
          "time": 162.967416,
          "velocity": 0.31496062992125984
        },
        {
          "duration": 0.12903199999999515,
          "durationTicks": 160,
          "midi": 62,
          "name": "D4",
          "ticks": 202080,
          "time": 162.967416,
          "velocity": 0.31496062992125984
        },
        {
          "duration": 0.12903199999999515,
          "durationTicks": 160,
          "midi": 59,
          "name": "B3",
          "ticks": 202320,
          "time": 163.160964,
          "velocity": 0.31496062992125984
        },
        {
          "duration": 0.12903199999999515,
          "durationTicks": 160,
          "midi": 62,
          "name": "D4",
          "ticks": 202320,
          "time": 163.160964,
          "velocity": 0.31496062992125984
        },
        {
          "duration": 0.12903199999999515,
          "durationTicks": 160,
          "midi": 59,
          "name": "B3",
          "ticks": 202560,
          "time": 163.354512,
          "velocity": 0.31496062992125984
        },
        {
          "duration": 0.12903199999999515,
          "durationTicks": 160,
          "midi": 62,
          "name": "D4",
          "ticks": 202560,
          "time": 163.354512,
          "velocity": 0.31496062992125984
        },
        {
          "duration": 0.12903199999999515,
          "durationTicks": 160,
          "midi": 60,
          "name": "C4",
          "ticks": 203760,
          "time": 164.322252,
          "velocity": 0.31496062992125984
        },
        {
          "duration": 0.12903199999999515,
          "durationTicks": 160,
          "midi": 60,
          "name": "C4",
          "ticks": 204000,
          "time": 164.51579999999998,
          "velocity": 0.31496062992125984
        },
        {
          "duration": 0.12903199999999515,
          "durationTicks": 160,
          "midi": 60,
          "name": "C4",
          "ticks": 204240,
          "time": 164.709348,
          "velocity": 0.31496062992125984
        },
        {
          "duration": 0.12903199999999515,
          "durationTicks": 160,
          "midi": 60,
          "name": "C4",
          "ticks": 204480,
          "time": 164.902896,
          "velocity": 0.31496062992125984
        },
        {
          "duration": 0.12903199999999515,
          "durationTicks": 160,
          "midi": 57,
          "name": "A3",
          "ticks": 205680,
          "time": 165.870636,
          "velocity": 0.31496062992125984
        },
        {
          "duration": 0.12903199999999515,
          "durationTicks": 160,
          "midi": 60,
          "name": "C4",
          "ticks": 205680,
          "time": 165.870636,
          "velocity": 0.31496062992125984
        },
        {
          "duration": 0.12903199999996673,
          "durationTicks": 160,
          "midi": 57,
          "name": "A3",
          "ticks": 205920,
          "time": 166.064184,
          "velocity": 0.31496062992125984
        },
        {
          "duration": 0.12903199999996673,
          "durationTicks": 160,
          "midi": 60,
          "name": "C4",
          "ticks": 205920,
          "time": 166.064184,
          "velocity": 0.31496062992125984
        },
        {
          "duration": 0.12903199999999515,
          "durationTicks": 160,
          "midi": 57,
          "name": "A3",
          "ticks": 206160,
          "time": 166.257732,
          "velocity": 0.31496062992125984
        },
        {
          "duration": 0.12903199999999515,
          "durationTicks": 160,
          "midi": 60,
          "name": "C4",
          "ticks": 206160,
          "time": 166.257732,
          "velocity": 0.31496062992125984
        },
        {
          "duration": 0.12903199999999515,
          "durationTicks": 160,
          "midi": 57,
          "name": "A3",
          "ticks": 206400,
          "time": 166.45128,
          "velocity": 0.31496062992125984
        },
        {
          "duration": 0.12903199999999515,
          "durationTicks": 160,
          "midi": 60,
          "name": "C4",
          "ticks": 206400,
          "time": 166.45128,
          "velocity": 0.31496062992125984
        },
        {
          "duration": 0.12903199999999515,
          "durationTicks": 160,
          "midi": 58,
          "name": "A#3",
          "ticks": 207600,
          "time": 167.41902,
          "velocity": 0.31496062992125984
        },
        {
          "duration": 0.12903199999996673,
          "durationTicks": 160,
          "midi": 58,
          "name": "A#3",
          "ticks": 207840,
          "time": 167.612568,
          "velocity": 0.31496062992125984
        },
        {
          "duration": 0.12903199999999515,
          "durationTicks": 160,
          "midi": 58,
          "name": "A#3",
          "ticks": 208080,
          "time": 167.806116,
          "velocity": 0.31496062992125984
        },
        {
          "duration": 0.12903199999999515,
          "durationTicks": 160,
          "midi": 58,
          "name": "A#3",
          "ticks": 208320,
          "time": 167.999664,
          "velocity": 0.31496062992125984
        },
        {
          "duration": 0.6129019999999912,
          "durationTicks": 760,
          "midi": 58,
          "name": "A#3",
          "ticks": 212640,
          "time": 171.483528,
          "velocity": 0.31496062992125984
        },
        {
          "duration": 0.38709599999998545,
          "durationTicks": 480,
          "midi": 62,
          "name": "D4",
          "ticks": 212640,
          "time": 171.483528,
          "velocity": 0.31496062992125984
        },
        {
          "duration": 0.12903199999999515,
          "durationTicks": 160,
          "midi": 63,
          "name": "D#4",
          "ticks": 213120,
          "time": 171.870624,
          "velocity": 0.31496062992125984
        },
        {
          "duration": 0.1370965000000126,
          "durationTicks": 170,
          "midi": 58,
          "name": "A#3",
          "ticks": 214080,
          "time": 172.644816,
          "velocity": 0.31496062992125984
        },
        {
          "duration": 0.1370965000000126,
          "durationTicks": 170,
          "midi": 58,
          "name": "A#3",
          "ticks": 214560,
          "time": 173.031912,
          "velocity": 0.31496062992125984
        },
        {
          "duration": 0.6129019999999912,
          "durationTicks": 760,
          "midi": 58,
          "name": "A#3",
          "ticks": 215040,
          "time": 173.419008,
          "velocity": 0.31496062992125984
        },
        {
          "duration": 0.19354799999999273,
          "durationTicks": 240,
          "midi": 62,
          "name": "D4",
          "ticks": 216480,
          "time": 174.580296,
          "velocity": 0.31496062992125984
        },
        {
          "duration": 0.19354799999999273,
          "durationTicks": 240,
          "midi": 63,
          "name": "D#4",
          "ticks": 216720,
          "time": 174.773844,
          "velocity": 0.31496062992125984
        },
        {
          "duration": 0.12903199999999515,
          "durationTicks": 160,
          "midi": 58,
          "name": "A#3",
          "ticks": 216960,
          "time": 174.967392,
          "velocity": 0.31496062992125984
        },
        {
          "duration": 0.12903199999999515,
          "durationTicks": 160,
          "midi": 65,
          "name": "F4",
          "ticks": 216960,
          "time": 174.967392,
          "velocity": 0.31496062992125984
        },
        {
          "duration": 0.12903199999999515,
          "durationTicks": 160,
          "midi": 58,
          "name": "A#3",
          "ticks": 217440,
          "time": 175.354488,
          "velocity": 0.31496062992125984
        },
        {
          "duration": 0.12903199999999515,
          "durationTicks": 160,
          "midi": 65,
          "name": "F4",
          "ticks": 217440,
          "time": 175.354488,
          "velocity": 0.31496062992125984
        },
        {
          "duration": 0.12903199999999515,
          "durationTicks": 160,
          "midi": 58,
          "name": "A#3",
          "ticks": 217920,
          "time": 175.741584,
          "velocity": 0.31496062992125984
        },
        {
          "duration": 0.12903199999999515,
          "durationTicks": 160,
          "midi": 67,
          "name": "G4",
          "ticks": 217920,
          "time": 175.741584,
          "velocity": 0.31496062992125984
        },
        {
          "duration": 0.12903199999999515,
          "durationTicks": 160,
          "midi": 58,
          "name": "A#3",
          "ticks": 218400,
          "time": 176.12868,
          "velocity": 0.31496062992125984
        },
        {
          "duration": 0.12903199999999515,
          "durationTicks": 160,
          "midi": 67,
          "name": "G4",
          "ticks": 218400,
          "time": 176.12868,
          "velocity": 0.31496062992125984
        },
        {
          "duration": 0.12903199999999515,
          "durationTicks": 160,
          "midi": 58,
          "name": "A#3",
          "ticks": 218880,
          "time": 176.515776,
          "velocity": 0.31496062992125984
        },
        {
          "duration": 0.12903199999999515,
          "durationTicks": 160,
          "midi": 68,
          "name": "G#4",
          "ticks": 218880,
          "time": 176.515776,
          "velocity": 0.31496062992125984
        },
        {
          "duration": 0.12903199999999515,
          "durationTicks": 160,
          "midi": 58,
          "name": "A#3",
          "ticks": 219120,
          "time": 176.709324,
          "velocity": 0.31496062992125984
        },
        {
          "duration": 0.12903199999999515,
          "durationTicks": 160,
          "midi": 68,
          "name": "G#4",
          "ticks": 219120,
          "time": 176.709324,
          "velocity": 0.31496062992125984
        },
        {
          "duration": 0.12903199999999515,
          "durationTicks": 160,
          "midi": 58,
          "name": "A#3",
          "ticks": 219360,
          "time": 176.902872,
          "velocity": 0.31496062992125984
        },
        {
          "duration": 0.12903199999999515,
          "durationTicks": 160,
          "midi": 68,
          "name": "G#4",
          "ticks": 219360,
          "time": 176.902872,
          "velocity": 0.31496062992125984
        },
        {
          "duration": 0.12903199999999515,
          "durationTicks": 160,
          "midi": 58,
          "name": "A#3",
          "ticks": 219600,
          "time": 177.09642,
          "velocity": 0.31496062992125984
        },
        {
          "duration": 0.12903199999999515,
          "durationTicks": 160,
          "midi": 68,
          "name": "G#4",
          "ticks": 219600,
          "time": 177.09642,
          "velocity": 0.31496062992125984
        },
        {
          "duration": 0.12903199999999515,
          "durationTicks": 160,
          "midi": 58,
          "name": "A#3",
          "ticks": 219840,
          "time": 177.289968,
          "velocity": 0.31496062992125984
        },
        {
          "duration": 0.19354799999999273,
          "durationTicks": 240,
          "midi": 62,
          "name": "D4",
          "ticks": 220320,
          "time": 177.677064,
          "velocity": 0.31496062992125984
        },
        {
          "duration": 0.19354799999999273,
          "durationTicks": 240,
          "midi": 63,
          "name": "D#4",
          "ticks": 220560,
          "time": 177.870612,
          "velocity": 0.31496062992125984
        },
        {
          "duration": 0.12903199999999515,
          "durationTicks": 160,
          "midi": 58,
          "name": "A#3",
          "ticks": 220800,
          "time": 178.06416,
          "velocity": 0.31496062992125984
        },
        {
          "duration": 0.12903199999999515,
          "durationTicks": 160,
          "midi": 65,
          "name": "F4",
          "ticks": 220800,
          "time": 178.06416,
          "velocity": 0.31496062992125984
        },
        {
          "duration": 0.12903199999999515,
          "durationTicks": 160,
          "midi": 58,
          "name": "A#3",
          "ticks": 221280,
          "time": 178.451256,
          "velocity": 0.31496062992125984
        },
        {
          "duration": 0.12903199999999515,
          "durationTicks": 160,
          "midi": 65,
          "name": "F4",
          "ticks": 221280,
          "time": 178.451256,
          "velocity": 0.31496062992125984
        },
        {
          "duration": 0.12903199999999515,
          "durationTicks": 160,
          "midi": 58,
          "name": "A#3",
          "ticks": 221760,
          "time": 178.838352,
          "velocity": 0.31496062992125984
        },
        {
          "duration": 0.12903199999999515,
          "durationTicks": 160,
          "midi": 67,
          "name": "G4",
          "ticks": 221760,
          "time": 178.838352,
          "velocity": 0.31496062992125984
        },
        {
          "duration": 0.12903199999999515,
          "durationTicks": 160,
          "midi": 58,
          "name": "A#3",
          "ticks": 222240,
          "time": 179.225448,
          "velocity": 0.31496062992125984
        },
        {
          "duration": 0.12903199999999515,
          "durationTicks": 160,
          "midi": 67,
          "name": "G4",
          "ticks": 222240,
          "time": 179.225448,
          "velocity": 0.31496062992125984
        },
        {
          "duration": 0.12903199999999515,
          "durationTicks": 160,
          "midi": 58,
          "name": "A#3",
          "ticks": 222720,
          "time": 179.61254399999999,
          "velocity": 0.31496062992125984
        },
        {
          "duration": 0.12903199999999515,
          "durationTicks": 160,
          "midi": 68,
          "name": "G#4",
          "ticks": 222720,
          "time": 179.61254399999999,
          "velocity": 0.31496062992125984
        },
        {
          "duration": 0.12903199999999515,
          "durationTicks": 160,
          "midi": 58,
          "name": "A#3",
          "ticks": 222960,
          "time": 179.806092,
          "velocity": 0.31496062992125984
        },
        {
          "duration": 0.12903199999999515,
          "durationTicks": 160,
          "midi": 68,
          "name": "G#4",
          "ticks": 222960,
          "time": 179.806092,
          "velocity": 0.31496062992125984
        },
        {
          "duration": 0.12903199999999515,
          "durationTicks": 160,
          "midi": 58,
          "name": "A#3",
          "ticks": 223200,
          "time": 179.99964,
          "velocity": 0.31496062992125984
        },
        {
          "duration": 0.12903199999999515,
          "durationTicks": 160,
          "midi": 68,
          "name": "G#4",
          "ticks": 223200,
          "time": 179.99964,
          "velocity": 0.31496062992125984
        },
        {
          "duration": 0.12903199999999515,
          "durationTicks": 160,
          "midi": 58,
          "name": "A#3",
          "ticks": 223440,
          "time": 180.193188,
          "velocity": 0.31496062992125984
        },
        {
          "duration": 0.12903199999999515,
          "durationTicks": 160,
          "midi": 68,
          "name": "G#4",
          "ticks": 223440,
          "time": 180.193188,
          "velocity": 0.31496062992125984
        },
        {
          "duration": 0.12903199999999515,
          "durationTicks": 160,
          "midi": 58,
          "name": "A#3",
          "ticks": 223680,
          "time": 180.38673599999998,
          "velocity": 0.31496062992125984
        },
        {
          "duration": 0.12903199999999515,
          "durationTicks": 160,
          "midi": 67,
          "name": "G4",
          "ticks": 225120,
          "time": 181.548024,
          "velocity": 0.5511811023622047
        },
        {
          "duration": 0.12903199999999515,
          "durationTicks": 160,
          "midi": 63,
          "name": "D#4",
          "ticks": 225360,
          "time": 181.741572,
          "velocity": 0.5511811023622047
        },
        {
          "duration": 0.12903199999996673,
          "durationTicks": 160,
          "midi": 68,
          "name": "G#4",
          "ticks": 225600,
          "time": 181.93512,
          "velocity": 0.5511811023622047
        },
        {
          "duration": 0.12903199999999515,
          "durationTicks": 160,
          "midi": 65,
          "name": "F4",
          "ticks": 225840,
          "time": 182.128668,
          "velocity": 0.5511811023622047
        },
        {
          "duration": 0.12903199999999515,
          "durationTicks": 160,
          "midi": 62,
          "name": "D4",
          "ticks": 226080,
          "time": 182.322216,
          "velocity": 0.5511811023622047
        },
        {
          "duration": 0.12903199999999515,
          "durationTicks": 160,
          "midi": 74,
          "name": "D5",
          "ticks": 226320,
          "time": 182.515764,
          "velocity": 0.5511811023622047
        },
        {
          "duration": 0.12903199999996673,
          "durationTicks": 160,
          "midi": 75,
          "name": "D#5",
          "ticks": 226560,
          "time": 182.709312,
          "velocity": 0.5511811023622047
        },
        {
          "duration": 0.12903199999999515,
          "durationTicks": 160,
          "midi": 70,
          "name": "A#4",
          "ticks": 226800,
          "time": 182.90286,
          "velocity": 0.5511811023622047
        },
        {
          "duration": 0.12903199999999515,
          "durationTicks": 160,
          "midi": 67,
          "name": "G4",
          "ticks": 227040,
          "time": 183.096408,
          "velocity": 0.5511811023622047
        },
        {
          "duration": 0.12903199999999515,
          "durationTicks": 160,
          "midi": 63,
          "name": "D#4",
          "ticks": 227280,
          "time": 183.289956,
          "velocity": 0.5511811023622047
        },
        {
          "duration": 0.12903199999996673,
          "durationTicks": 160,
          "midi": 68,
          "name": "G#4",
          "ticks": 227520,
          "time": 183.483504,
          "velocity": 0.5511811023622047
        },
        {
          "duration": 0.12903199999999515,
          "durationTicks": 160,
          "midi": 65,
          "name": "F4",
          "ticks": 227760,
          "time": 183.677052,
          "velocity": 0.5511811023622047
        },
        {
          "duration": 0.12903199999999515,
          "durationTicks": 160,
          "midi": 62,
          "name": "D4",
          "ticks": 228000,
          "time": 183.8706,
          "velocity": 0.5511811023622047
        },
        {
          "duration": 0.12903199999999515,
          "durationTicks": 160,
          "midi": 74,
          "name": "D5",
          "ticks": 228240,
          "time": 184.064148,
          "velocity": 0.5511811023622047
        },
        {
          "duration": 0.12903199999996673,
          "durationTicks": 160,
          "midi": 75,
          "name": "D#5",
          "ticks": 228480,
          "time": 184.257696,
          "velocity": 0.5511811023622047
        },
        {
          "duration": 0.19354799999999273,
          "durationTicks": 240,
          "midi": 65,
          "name": "F4",
          "ticks": 228720,
          "time": 184.451244,
          "velocity": 0.7086614173228346
        },
        {
          "duration": 0.19354799999999273,
          "durationTicks": 240,
          "midi": 63,
          "name": "D#4",
          "ticks": 228960,
          "time": 184.644792,
          "velocity": 0.7086614173228346
        },
        {
          "duration": 0.12903199999999515,
          "durationTicks": 160,
          "midi": 60,
          "name": "C4",
          "ticks": 229200,
          "time": 184.83834,
          "velocity": 0.7086614173228346
        },
        {
          "duration": 0.12903199999999515,
          "durationTicks": 160,
          "midi": 58,
          "name": "A#3",
          "ticks": 229440,
          "time": 185.031888,
          "velocity": 0.7086614173228346
        },
        {
          "duration": 0.12903199999999515,
          "durationTicks": 160,
          "midi": 58,
          "name": "A#3",
          "ticks": 229680,
          "time": 185.225436,
          "velocity": 0.7086614173228346
        },
        {
          "duration": 0.12903199999999515,
          "durationTicks": 160,
          "midi": 58,
          "name": "A#3",
          "ticks": 229920,
          "time": 185.418984,
          "velocity": 0.7086614173228346
        },
        {
          "duration": 0.12903199999999515,
          "durationTicks": 160,
          "midi": 58,
          "name": "A#3",
          "ticks": 230160,
          "time": 185.612532,
          "velocity": 0.7086614173228346
        },
        {
          "duration": 0.12903199999999515,
          "durationTicks": 160,
          "midi": 58,
          "name": "A#3",
          "ticks": 230400,
          "time": 185.80608,
          "velocity": 0.5511811023622047
        },
        {
          "duration": 0.12903199999999515,
          "durationTicks": 160,
          "midi": 58,
          "name": "A#3",
          "ticks": 230880,
          "time": 186.193176,
          "velocity": 0.5511811023622047
        },
        {
          "duration": 0.12903199999999515,
          "durationTicks": 160,
          "midi": 58,
          "name": "A#3",
          "ticks": 231360,
          "time": 186.580272,
          "velocity": 0.5511811023622047
        },
        {
          "duration": 0.12903199999999515,
          "durationTicks": 160,
          "midi": 58,
          "name": "A#3",
          "ticks": 232320,
          "time": 187.354464,
          "velocity": 0.31496062992125984
        },
        {
          "duration": 0.6209665000000086,
          "durationTicks": 770,
          "midi": 58,
          "name": "A#3",
          "ticks": 233760,
          "time": 188.515752,
          "velocity": 0.31496062992125984
        },
        {
          "duration": 0.3870960000000139,
          "durationTicks": 480,
          "midi": 58,
          "name": "A#3",
          "ticks": 235680,
          "time": 190.064136,
          "velocity": 0.31496062992125984
        },
        {
          "duration": 0.12903199999999515,
          "durationTicks": 160,
          "midi": 60,
          "name": "C4",
          "ticks": 236160,
          "time": 190.451232,
          "velocity": 0.31496062992125984
        },
        {
          "duration": 0.12903199999999515,
          "durationTicks": 160,
          "midi": 60,
          "name": "C4",
          "ticks": 237120,
          "time": 191.225424,
          "velocity": 0.31496062992125984
        },
        {
          "duration": 0.9999979999999766,
          "durationTicks": 1240,
          "midi": 58,
          "name": "A#3",
          "ticks": 238080,
          "time": 191.999616,
          "velocity": 0.31496062992125984
        },
        {
          "duration": 0.12903199999999515,
          "durationTicks": 160,
          "midi": 64,
          "name": "E4",
          "ticks": 240000,
          "time": 193.548,
          "velocity": 0.31496062992125984
        },
        {
          "duration": 0.12903199999999515,
          "durationTicks": 160,
          "midi": 65,
          "name": "F4",
          "ticks": 240960,
          "time": 194.322192,
          "velocity": 0.31496062992125984
        },
        {
          "duration": 0.12903199999999515,
          "durationTicks": 160,
          "midi": 62,
          "name": "D4",
          "ticks": 241920,
          "time": 195.096384,
          "velocity": 0.31496062992125984
        },
        {
          "duration": 0.12903199999999515,
          "durationTicks": 160,
          "midi": 63,
          "name": "D#4",
          "ticks": 242880,
          "time": 195.870576,
          "velocity": 0.31496062992125984
        },
        {
          "duration": 0.12903199999999515,
          "durationTicks": 160,
          "midi": 56,
          "name": "G#3",
          "ticks": 244320,
          "time": 197.03186399999998,
          "velocity": 0.31496062992125984
        },
        {
          "duration": 0.12903199999999515,
          "durationTicks": 160,
          "midi": 53,
          "name": "F3",
          "ticks": 245280,
          "time": 197.80605599999998,
          "velocity": 0.31496062992125984
        },
        {
          "duration": 0.12903199999999515,
          "durationTicks": 160,
          "midi": 58,
          "name": "A#3",
          "ticks": 245280,
          "time": 197.80605599999998,
          "velocity": 0.31496062992125984
        },
        {
          "duration": 0.12903200000002357,
          "durationTicks": 160,
          "midi": 51,
          "name": "D#3",
          "ticks": 245760,
          "time": 198.193152,
          "velocity": 0.31496062992125984
        },
        {
          "duration": 0.999998000000005,
          "durationTicks": 1240,
          "midi": 58,
          "name": "A#3",
          "ticks": 245760,
          "time": 198.193152,
          "velocity": 0.31496062992125984
        },
        {
          "duration": 0.12903199999999515,
          "durationTicks": 160,
          "midi": 51,
          "name": "D#3",
          "ticks": 246240,
          "time": 198.580248,
          "velocity": 0.31496062992125984
        },
        {
          "duration": 0.12903200000002357,
          "durationTicks": 160,
          "midi": 51,
          "name": "D#3",
          "ticks": 246720,
          "time": 198.967344,
          "velocity": 0.31496062992125984
        },
        {
          "duration": 0.23387049999996634,
          "durationTicks": 290,
          "midi": 55,
          "name": "G3",
          "ticks": 249120,
          "time": 200.902824,
          "velocity": 0.31496062992125984
        },
        {
          "duration": 0.23387049999996634,
          "durationTicks": 290,
          "midi": 62,
          "name": "D4",
          "ticks": 249120,
          "time": 200.902824,
          "velocity": 0.31496062992125984
        },
        {
          "duration": 0.3870960000000139,
          "durationTicks": 480,
          "midi": 60,
          "name": "C4",
          "ticks": 249600,
          "time": 201.28992,
          "velocity": 0.31496062992125984
        },
        {
          "duration": 0.38709599999998545,
          "durationTicks": 480,
          "midi": 62,
          "name": "D4",
          "ticks": 250080,
          "time": 201.677016,
          "velocity": 0.31496062992125984
        },
        {
          "duration": 0.12903200000002357,
          "durationTicks": 160,
          "midi": 63,
          "name": "D#4",
          "ticks": 250560,
          "time": 202.064112,
          "velocity": 0.31496062992125984
        },
        {
          "duration": 0.12903199999999515,
          "durationTicks": 160,
          "midi": 60,
          "name": "C4",
          "ticks": 252960,
          "time": 203.999592,
          "velocity": 0.31496062992125984
        },
        {
          "duration": 0.12903199999999515,
          "durationTicks": 160,
          "midi": 65,
          "name": "F4",
          "ticks": 252960,
          "time": 203.999592,
          "velocity": 0.31496062992125984
        },
        {
          "duration": 0.3870960000000139,
          "durationTicks": 480,
          "midi": 58,
          "name": "A#3",
          "ticks": 253440,
          "time": 204.386688,
          "velocity": 0.31496062992125984
        },
        {
          "duration": 0.38387020000001826,
          "durationTicks": 476,
          "midi": 65,
          "name": "F4",
          "ticks": 253440,
          "time": 204.386688,
          "velocity": 0.31496062992125984
        },
        {
          "duration": 0.38709599999998545,
          "durationTicks": 480,
          "midi": 60,
          "name": "C4",
          "ticks": 253920,
          "time": 204.773784,
          "velocity": 0.31496062992125984
        },
        {
          "duration": 0.38387019999998984,
          "durationTicks": 476,
          "midi": 65,
          "name": "F4",
          "ticks": 253920,
          "time": 204.773784,
          "velocity": 0.31496062992125984
        },
        {
          "duration": 0.12903200000002357,
          "durationTicks": 160,
          "midi": 62,
          "name": "D4",
          "ticks": 254400,
          "time": 205.16088,
          "velocity": 0.31496062992125984
        },
        {
          "duration": 0.12903200000002357,
          "durationTicks": 160,
          "midi": 65,
          "name": "F4",
          "ticks": 254400,
          "time": 205.16088,
          "velocity": 0.31496062992125984
        },
        {
          "duration": 0.12903200000002357,
          "durationTicks": 160,
          "midi": 64,
          "name": "E4",
          "ticks": 255360,
          "time": 205.935072,
          "velocity": 0.31496062992125984
        },
        {
          "duration": 0.12903200000002357,
          "durationTicks": 160,
          "midi": 65,
          "name": "F4",
          "ticks": 256320,
          "time": 206.709264,
          "velocity": 0.31496062992125984
        },
        {
          "duration": 0.12903200000002357,
          "durationTicks": 160,
          "midi": 62,
          "name": "D4",
          "ticks": 257280,
          "time": 207.483456,
          "velocity": 0.31496062992125984
        },
        {
          "duration": 0.12903200000002357,
          "durationTicks": 160,
          "midi": 63,
          "name": "D#4",
          "ticks": 258240,
          "time": 208.257648,
          "velocity": 0.31496062992125984
        },
        {
          "duration": 0.12903200000002357,
          "durationTicks": 160,
          "midi": 56,
          "name": "G#3",
          "ticks": 259680,
          "time": 209.418936,
          "velocity": 0.31496062992125984
        },
        {
          "duration": 0.12903200000002357,
          "durationTicks": 160,
          "midi": 53,
          "name": "F3",
          "ticks": 260640,
          "time": 210.193128,
          "velocity": 0.31496062992125984
        },
        {
          "duration": 0.12903200000002357,
          "durationTicks": 160,
          "midi": 58,
          "name": "A#3",
          "ticks": 260640,
          "time": 210.193128,
          "velocity": 0.31496062992125984
        },
        {
          "duration": 0.12903200000002357,
          "durationTicks": 160,
          "midi": 51,
          "name": "D#3",
          "ticks": 261120,
          "time": 210.580224,
          "velocity": 0.31496062992125984
        },
        {
          "duration": 0.9999980000000335,
          "durationTicks": 1240,
          "midi": 58,
          "name": "A#3",
          "ticks": 261120,
          "time": 210.580224,
          "velocity": 0.31496062992125984
        },
        {
          "duration": 0.12903200000002357,
          "durationTicks": 160,
          "midi": 51,
          "name": "D#3",
          "ticks": 261600,
          "time": 210.96732,
          "velocity": 0.31496062992125984
        },
        {
          "duration": 0.12903200000002357,
          "durationTicks": 160,
          "midi": 51,
          "name": "D#3",
          "ticks": 262080,
          "time": 211.354416,
          "velocity": 0.31496062992125984
        },
        {
          "duration": 0.12903200000002357,
          "durationTicks": 160,
          "midi": 58,
          "name": "A#3",
          "ticks": 263040,
          "time": 212.12860799999999,
          "velocity": 0.31496062992125984
        },
        {
          "duration": 0.12903200000002357,
          "durationTicks": 160,
          "midi": 58,
          "name": "A#3",
          "ticks": 263520,
          "time": 212.515704,
          "velocity": 0.31496062992125984
        },
        {
          "duration": 0.12903200000002357,
          "durationTicks": 160,
          "midi": 58,
          "name": "A#3",
          "ticks": 264000,
          "time": 212.90279999999998,
          "velocity": 0.31496062992125984
        },
        {
          "duration": 0.12903200000002357,
          "durationTicks": 160,
          "midi": 58,
          "name": "A#3",
          "ticks": 264480,
          "time": 213.289896,
          "velocity": 0.31496062992125984
        },
        {
          "duration": 0.12903200000002357,
          "durationTicks": 160,
          "midi": 58,
          "name": "A#3",
          "ticks": 264960,
          "time": 213.67699199999998,
          "velocity": 0.31496062992125984
        },
        {
          "duration": 0.12903200000002357,
          "durationTicks": 160,
          "midi": 65,
          "name": "F4",
          "ticks": 264960,
          "time": 213.67699199999998,
          "velocity": 0.31496062992125984
        },
        {
          "duration": 0.12903199999999515,
          "durationTicks": 160,
          "midi": 58,
          "name": "A#3",
          "ticks": 265200,
          "time": 213.87054,
          "velocity": 0.31496062992125984
        },
        {
          "duration": 0.12903199999999515,
          "durationTicks": 160,
          "midi": 65,
          "name": "F4",
          "ticks": 265200,
          "time": 213.87054,
          "velocity": 0.31496062992125984
        },
        {
          "duration": 0.12903200000002357,
          "durationTicks": 160,
          "midi": 58,
          "name": "A#3",
          "ticks": 265440,
          "time": 214.064088,
          "velocity": 0.31496062992125984
        },
        {
          "duration": 0.12903200000002357,
          "durationTicks": 160,
          "midi": 65,
          "name": "F4",
          "ticks": 265440,
          "time": 214.064088,
          "velocity": 0.31496062992125984
        },
        {
          "duration": 0.12903200000002357,
          "durationTicks": 160,
          "midi": 58,
          "name": "A#3",
          "ticks": 265680,
          "time": 214.257636,
          "velocity": 0.31496062992125984
        },
        {
          "duration": 0.12903200000002357,
          "durationTicks": 160,
          "midi": 65,
          "name": "F4",
          "ticks": 265680,
          "time": 214.257636,
          "velocity": 0.31496062992125984
        },
        {
          "duration": 0.12903200000002357,
          "durationTicks": 160,
          "midi": 58,
          "name": "A#3",
          "ticks": 265920,
          "time": 214.45118399999998,
          "velocity": 0.31496062992125984
        },
        {
          "duration": 0.12903200000002357,
          "durationTicks": 160,
          "midi": 65,
          "name": "F4",
          "ticks": 265920,
          "time": 214.45118399999998,
          "velocity": 0.31496062992125984
        },
        {
          "duration": 0.12903199999999515,
          "durationTicks": 160,
          "midi": 58,
          "name": "A#3",
          "ticks": 266880,
          "time": 215.225376,
          "velocity": 0.31496062992125984
        },
        {
          "duration": 0.12903200000002357,
          "durationTicks": 160,
          "midi": 58,
          "name": "A#3",
          "ticks": 267360,
          "time": 215.612472,
          "velocity": 0.31496062992125984
        },
        {
          "duration": 0.12903199999999515,
          "durationTicks": 160,
          "midi": 58,
          "name": "A#3",
          "ticks": 267840,
          "time": 215.999568,
          "velocity": 0.31496062992125984
        },
        {
          "duration": 0.12903200000002357,
          "durationTicks": 160,
          "midi": 58,
          "name": "A#3",
          "ticks": 268320,
          "time": 216.386664,
          "velocity": 0.31496062992125984
        },
        {
          "duration": 0.12903199999999515,
          "durationTicks": 160,
          "midi": 58,
          "name": "A#3",
          "ticks": 268800,
          "time": 216.77376,
          "velocity": 0.31496062992125984
        },
        {
          "duration": 0.12903199999999515,
          "durationTicks": 160,
          "midi": 65,
          "name": "F4",
          "ticks": 268800,
          "time": 216.77376,
          "velocity": 0.31496062992125984
        },
        {
          "duration": 0.12903200000002357,
          "durationTicks": 160,
          "midi": 58,
          "name": "A#3",
          "ticks": 269040,
          "time": 216.967308,
          "velocity": 0.31496062992125984
        },
        {
          "duration": 0.12903200000002357,
          "durationTicks": 160,
          "midi": 65,
          "name": "F4",
          "ticks": 269040,
          "time": 216.967308,
          "velocity": 0.31496062992125984
        },
        {
          "duration": 0.12903200000002357,
          "durationTicks": 160,
          "midi": 58,
          "name": "A#3",
          "ticks": 269280,
          "time": 217.160856,
          "velocity": 0.31496062992125984
        },
        {
          "duration": 0.12903200000002357,
          "durationTicks": 160,
          "midi": 65,
          "name": "F4",
          "ticks": 269280,
          "time": 217.160856,
          "velocity": 0.31496062992125984
        },
        {
          "duration": 0.12903200000002357,
          "durationTicks": 160,
          "midi": 58,
          "name": "A#3",
          "ticks": 269520,
          "time": 217.354404,
          "velocity": 0.31496062992125984
        },
        {
          "duration": 0.12903200000002357,
          "durationTicks": 160,
          "midi": 65,
          "name": "F4",
          "ticks": 269520,
          "time": 217.354404,
          "velocity": 0.31496062992125984
        },
        {
          "duration": 0.12903199999999515,
          "durationTicks": 160,
          "midi": 58,
          "name": "A#3",
          "ticks": 269760,
          "time": 217.547952,
          "velocity": 0.31496062992125984
        },
        {
          "duration": 0.12903199999999515,
          "durationTicks": 160,
          "midi": 65,
          "name": "F4",
          "ticks": 269760,
          "time": 217.547952,
          "velocity": 0.31496062992125984
        },
        {
          "duration": 0.12903200000002357,
          "durationTicks": 160,
          "midi": 55,
          "name": "G3",
          "ticks": 271200,
          "time": 218.70924,
          "velocity": 0.5511811023622047
        },
        {
          "duration": 0.12903200000002357,
          "durationTicks": 160,
          "midi": 51,
          "name": "D#3",
          "ticks": 271440,
          "time": 218.902788,
          "velocity": 0.5511811023622047
        },
        {
          "duration": 0.12903199999999515,
          "durationTicks": 160,
          "midi": 56,
          "name": "G#3",
          "ticks": 271680,
          "time": 219.096336,
          "velocity": 0.5511811023622047
        },
        {
          "duration": 0.12903200000002357,
          "durationTicks": 160,
          "midi": 53,
          "name": "F3",
          "ticks": 271920,
          "time": 219.289884,
          "velocity": 0.5511811023622047
        },
        {
          "duration": 0.12903200000002357,
          "durationTicks": 160,
          "midi": 50,
          "name": "D3",
          "ticks": 272160,
          "time": 219.483432,
          "velocity": 0.5511811023622047
        },
        {
          "duration": 0.12903200000002357,
          "durationTicks": 160,
          "midi": 62,
          "name": "D4",
          "ticks": 272400,
          "time": 219.67698,
          "velocity": 0.5511811023622047
        },
        {
          "duration": 0.12903199999999515,
          "durationTicks": 160,
          "midi": 63,
          "name": "D#4",
          "ticks": 272640,
          "time": 219.870528,
          "velocity": 0.5511811023622047
        },
        {
          "duration": 0.12903200000002357,
          "durationTicks": 160,
          "midi": 58,
          "name": "A#3",
          "ticks": 272880,
          "time": 220.064076,
          "velocity": 0.5511811023622047
        },
        {
          "duration": 0.12903200000002357,
          "durationTicks": 160,
          "midi": 55,
          "name": "G3",
          "ticks": 273120,
          "time": 220.257624,
          "velocity": 0.5511811023622047
        },
        {
          "duration": 0.12903200000002357,
          "durationTicks": 160,
          "midi": 51,
          "name": "D#3",
          "ticks": 273360,
          "time": 220.45117199999999,
          "velocity": 0.5511811023622047
        },
        {
          "duration": 0.12903199999999515,
          "durationTicks": 160,
          "midi": 56,
          "name": "G#3",
          "ticks": 273600,
          "time": 220.64472,
          "velocity": 0.5511811023622047
        },
        {
          "duration": 0.12903200000002357,
          "durationTicks": 160,
          "midi": 53,
          "name": "F3",
          "ticks": 273840,
          "time": 220.838268,
          "velocity": 0.5511811023622047
        },
        {
          "duration": 0.12903200000002357,
          "durationTicks": 160,
          "midi": 50,
          "name": "D3",
          "ticks": 274080,
          "time": 221.031816,
          "velocity": 0.5511811023622047
        },
        {
          "duration": 0.12903200000002357,
          "durationTicks": 160,
          "midi": 62,
          "name": "D4",
          "ticks": 274320,
          "time": 221.22536399999998,
          "velocity": 0.5511811023622047
        },
        {
          "duration": 0.12903199999999515,
          "durationTicks": 160,
          "midi": 63,
          "name": "D#4",
          "ticks": 274560,
          "time": 221.418912,
          "velocity": 0.5511811023622047
        },
        {
          "duration": 0.19354799999999273,
          "durationTicks": 240,
          "midi": 65,
          "name": "F4",
          "ticks": 274800,
          "time": 221.61246,
          "velocity": 0.7086614173228346
        },
        {
          "duration": 0.19354799999999273,
          "durationTicks": 240,
          "midi": 63,
          "name": "D#4",
          "ticks": 275040,
          "time": 221.806008,
          "velocity": 0.7086614173228346
        },
        {
          "duration": 0.12903200000002357,
          "durationTicks": 160,
          "midi": 60,
          "name": "C4",
          "ticks": 275280,
          "time": 221.99955599999998,
          "velocity": 0.7086614173228346
        },
        {
          "duration": 0.12903199999999515,
          "durationTicks": 160,
          "midi": 58,
          "name": "A#3",
          "ticks": 275520,
          "time": 222.193104,
          "velocity": 0.7086614173228346
        },
        {
          "duration": 0.12903200000002357,
          "durationTicks": 160,
          "midi": 58,
          "name": "A#3",
          "ticks": 276000,
          "time": 222.5802,
          "velocity": 0.7086614173228346
        },
        {
          "duration": 0.12903199999999515,
          "durationTicks": 160,
          "midi": 58,
          "name": "A#3",
          "ticks": 276480,
          "time": 222.967296,
          "velocity": 0.5511811023622047
        },
        {
          "duration": 0.12903200000002357,
          "durationTicks": 160,
          "midi": 58,
          "name": "A#3",
          "ticks": 276960,
          "time": 223.354392,
          "velocity": 0.5511811023622047
        },
        {
          "duration": 0.12903199999999515,
          "durationTicks": 160,
          "midi": 58,
          "name": "A#3",
          "ticks": 277440,
          "time": 223.741488,
          "velocity": 0.5511811023622047
        },
        {
          "duration": 0.12903199999999515,
          "durationTicks": 160,
          "midi": 58,
          "name": "A#3",
          "ticks": 278400,
          "time": 224.51568,
          "velocity": 0.31496062992125984
        },
        {
          "duration": 0.12903200000002357,
          "durationTicks": 160,
          "midi": 58,
          "name": "A#3",
          "ticks": 279840,
          "time": 225.676968,
          "velocity": 0.31496062992125984
        },
        {
          "duration": 0.12903200000002357,
          "durationTicks": 160,
          "midi": 58,
          "name": "A#3",
          "ticks": 280320,
          "time": 226.064064,
          "velocity": 0.31496062992125984
        },
        {
          "duration": 0.12903200000002357,
          "durationTicks": 160,
          "midi": 58,
          "name": "A#3",
          "ticks": 281760,
          "time": 227.225352,
          "velocity": 0.31496062992125984
        },
        {
          "duration": 0.12903200000002357,
          "durationTicks": 160,
          "midi": 58,
          "name": "A#3",
          "ticks": 282240,
          "time": 227.612448,
          "velocity": 0.31496062992125984
        },
        {
          "duration": 0.12903200000002357,
          "durationTicks": 160,
          "midi": 60,
          "name": "C4",
          "ticks": 283200,
          "time": 228.38664,
          "velocity": 0.31496062992125984
        },
        {
          "duration": 0.12903200000002357,
          "durationTicks": 160,
          "midi": 60,
          "name": "C4",
          "ticks": 283680,
          "time": 228.77373599999999,
          "velocity": 0.31496062992125984
        },
        {
          "duration": 0.38709599999998545,
          "durationTicks": 480,
          "midi": 58,
          "name": "A#3",
          "ticks": 284160,
          "time": 229.160832,
          "velocity": 0.31496062992125984
        },
        {
          "duration": 0.3870960000000139,
          "durationTicks": 480,
          "midi": 60,
          "name": "C4",
          "ticks": 284640,
          "time": 229.54792799999998,
          "velocity": 0.31496062992125984
        },
        {
          "duration": 0.12903200000002357,
          "durationTicks": 160,
          "midi": 58,
          "name": "A#3",
          "ticks": 285120,
          "time": 229.935024,
          "velocity": 0.31496062992125984
        },
        {
          "duration": 0.38709599999998545,
          "durationTicks": 480,
          "midi": 64,
          "name": "E4",
          "ticks": 286080,
          "time": 230.709216,
          "velocity": 0.31496062992125984
        },
        {
          "duration": 0.12903200000002357,
          "durationTicks": 160,
          "midi": 65,
          "name": "F4",
          "ticks": 286560,
          "time": 231.09631199999998,
          "velocity": 0.31496062992125984
        },
        {
          "duration": 0.12903199999999515,
          "durationTicks": 160,
          "midi": 65,
          "name": "F4",
          "ticks": 287520,
          "time": 231.870504,
          "velocity": 0.31496062992125984
        },
        {
          "duration": 0.3870960000000139,
          "durationTicks": 480,
          "midi": 62,
          "name": "D4",
          "ticks": 288000,
          "time": 232.2576,
          "velocity": 0.31496062992125984
        },
        {
          "duration": 0.12903199999999515,
          "durationTicks": 160,
          "midi": 63,
          "name": "D#4",
          "ticks": 288480,
          "time": 232.644696,
          "velocity": 0.31496062992125984
        },
        {
          "duration": 0.38709599999998545,
          "durationTicks": 480,
          "midi": 58,
          "name": "A#3",
          "ticks": 289440,
          "time": 233.418888,
          "velocity": 0.31496062992125984
        },
        {
          "duration": 0.6129020000000196,
          "durationTicks": 760,
          "midi": 60,
          "name": "C4",
          "ticks": 289920,
          "time": 233.805984,
          "velocity": 0.31496062992125984
        },
        {
          "duration": 0.12903200000002357,
          "durationTicks": 160,
          "midi": 56,
          "name": "G#3",
          "ticks": 290880,
          "time": 234.580176,
          "velocity": 0.31496062992125984
        },
        {
          "duration": 0.12903200000002357,
          "durationTicks": 160,
          "midi": 58,
          "name": "A#3",
          "ticks": 290880,
          "time": 234.580176,
          "velocity": 0.31496062992125984
        },
        {
          "duration": 0.12903199999999515,
          "durationTicks": 160,
          "midi": 56,
          "name": "G#3",
          "ticks": 291360,
          "time": 234.967272,
          "velocity": 0.31496062992125984
        },
        {
          "duration": 0.12903199999999515,
          "durationTicks": 160,
          "midi": 58,
          "name": "A#3",
          "ticks": 291360,
          "time": 234.967272,
          "velocity": 0.31496062992125984
        },
        {
          "duration": 0.6129020000000196,
          "durationTicks": 760,
          "midi": 55,
          "name": "G3",
          "ticks": 291840,
          "time": 235.354368,
          "velocity": 0.31496062992125984
        },
        {
          "duration": 0.6129020000000196,
          "durationTicks": 760,
          "midi": 58,
          "name": "A#3",
          "ticks": 291840,
          "time": 235.354368,
          "velocity": 0.31496062992125984
        },
        {
          "duration": 0.12903200000002357,
          "durationTicks": 160,
          "midi": 63,
          "name": "D#4",
          "ticks": 295680,
          "time": 238.451136,
          "velocity": 0.31496062992125984
        },
        {
          "duration": 0.12903200000002357,
          "durationTicks": 160,
          "midi": 63,
          "name": "D#4",
          "ticks": 295920,
          "time": 238.64468399999998,
          "velocity": 0.31496062992125984
        },
        {
          "duration": 0.12903199999999515,
          "durationTicks": 160,
          "midi": 65,
          "name": "F4",
          "ticks": 296160,
          "time": 238.838232,
          "velocity": 0.31496062992125984
        },
        {
          "duration": 0.12903200000002357,
          "durationTicks": 160,
          "midi": 65,
          "name": "F4",
          "ticks": 296400,
          "time": 239.03178,
          "velocity": 0.31496062992125984
        },
        {
          "duration": 0.12903200000002357,
          "durationTicks": 160,
          "midi": 63,
          "name": "D#4",
          "ticks": 296640,
          "time": 239.225328,
          "velocity": 0.31496062992125984
        },
        {
          "duration": 0.12903200000002357,
          "durationTicks": 160,
          "midi": 62,
          "name": "D4",
          "ticks": 299520,
          "time": 241.547904,
          "velocity": 0.31496062992125984
        },
        {
          "duration": 0.12903199999999515,
          "durationTicks": 160,
          "midi": 62,
          "name": "D4",
          "ticks": 299760,
          "time": 241.741452,
          "velocity": 0.31496062992125984
        },
        {
          "duration": 0.12903200000002357,
          "durationTicks": 160,
          "midi": 63,
          "name": "D#4",
          "ticks": 300000,
          "time": 241.935,
          "velocity": 0.31496062992125984
        },
        {
          "duration": 0.12903200000002357,
          "durationTicks": 160,
          "midi": 63,
          "name": "D#4",
          "ticks": 300240,
          "time": 242.128548,
          "velocity": 0.31496062992125984
        },
        {
          "duration": 0.12903200000002357,
          "durationTicks": 160,
          "midi": 62,
          "name": "D4",
          "ticks": 300480,
          "time": 242.322096,
          "velocity": 0.31496062992125984
        },
        {
          "duration": 0.3870960000000139,
          "durationTicks": 480,
          "midi": 64,
          "name": "E4",
          "ticks": 301440,
          "time": 243.096288,
          "velocity": 0.31496062992125984
        },
        {
          "duration": 0.12903200000002357,
          "durationTicks": 160,
          "midi": 65,
          "name": "F4",
          "ticks": 301920,
          "time": 243.483384,
          "velocity": 0.31496062992125984
        },
        {
          "duration": 0.12903200000002357,
          "durationTicks": 160,
          "midi": 65,
          "name": "F4",
          "ticks": 302880,
          "time": 244.257576,
          "velocity": 0.31496062992125984
        },
        {
          "duration": 0.3870960000000139,
          "durationTicks": 480,
          "midi": 62,
          "name": "D4",
          "ticks": 303360,
          "time": 244.64467199999999,
          "velocity": 0.31496062992125984
        },
        {
          "duration": 0.12903200000002357,
          "durationTicks": 160,
          "midi": 63,
          "name": "D#4",
          "ticks": 303840,
          "time": 245.031768,
          "velocity": 0.31496062992125984
        },
        {
          "duration": 0.38709599999998545,
          "durationTicks": 480,
          "midi": 58,
          "name": "A#3",
          "ticks": 304800,
          "time": 245.80596,
          "velocity": 0.31496062992125984
        },
        {
          "duration": 0.6129020000000196,
          "durationTicks": 760,
          "midi": 60,
          "name": "C4",
          "ticks": 305280,
          "time": 246.19305599999998,
          "velocity": 0.31496062992125984
        },
        {
          "duration": 0.12903200000002357,
          "durationTicks": 160,
          "midi": 56,
          "name": "G#3",
          "ticks": 306240,
          "time": 246.96724799999998,
          "velocity": 0.31496062992125984
        },
        {
          "duration": 0.12903200000002357,
          "durationTicks": 160,
          "midi": 58,
          "name": "A#3",
          "ticks": 306240,
          "time": 246.96724799999998,
          "velocity": 0.31496062992125984
        },
        {
          "duration": 0.12903200000002357,
          "durationTicks": 160,
          "midi": 56,
          "name": "G#3",
          "ticks": 306720,
          "time": 247.354344,
          "velocity": 0.31496062992125984
        },
        {
          "duration": 0.12903200000002357,
          "durationTicks": 160,
          "midi": 58,
          "name": "A#3",
          "ticks": 306720,
          "time": 247.354344,
          "velocity": 0.31496062992125984
        },
        {
          "duration": 0.6129019999999912,
          "durationTicks": 760,
          "midi": 55,
          "name": "G3",
          "ticks": 307200,
          "time": 247.74144,
          "velocity": 0.31496062992125984
        },
        {
          "duration": 0.6129019999999912,
          "durationTicks": 760,
          "midi": 58,
          "name": "A#3",
          "ticks": 307200,
          "time": 247.74144,
          "velocity": 0.31496062992125984
        },
        {
          "duration": 0.12903199999999515,
          "durationTicks": 160,
          "midi": 58,
          "name": "A#3",
          "ticks": 309120,
          "time": 249.289824,
          "velocity": 0.31496062992125984
        },
        {
          "duration": 0.12903200000002357,
          "durationTicks": 160,
          "midi": 58,
          "name": "A#3",
          "ticks": 309600,
          "time": 249.67692,
          "velocity": 0.31496062992125984
        },
        {
          "duration": 0.12903199999999515,
          "durationTicks": 160,
          "midi": 58,
          "name": "A#3",
          "ticks": 310080,
          "time": 250.064016,
          "velocity": 0.31496062992125984
        },
        {
          "duration": 0.12903200000002357,
          "durationTicks": 160,
          "midi": 58,
          "name": "A#3",
          "ticks": 310560,
          "time": 250.451112,
          "velocity": 0.31496062992125984
        },
        {
          "duration": 0.12903199999999515,
          "durationTicks": 160,
          "midi": 58,
          "name": "A#3",
          "ticks": 311040,
          "time": 250.838208,
          "velocity": 0.31496062992125984
        },
        {
          "duration": 0.12903200000002357,
          "durationTicks": 160,
          "midi": 58,
          "name": "A#3",
          "ticks": 311280,
          "time": 251.031756,
          "velocity": 0.31496062992125984
        },
        {
          "duration": 0.12903200000002357,
          "durationTicks": 160,
          "midi": 58,
          "name": "A#3",
          "ticks": 311520,
          "time": 251.225304,
          "velocity": 0.31496062992125984
        },
        {
          "duration": 0.12903200000002357,
          "durationTicks": 160,
          "midi": 58,
          "name": "A#3",
          "ticks": 311760,
          "time": 251.418852,
          "velocity": 0.31496062992125984
        },
        {
          "duration": 0.12903199999999515,
          "durationTicks": 160,
          "midi": 58,
          "name": "A#3",
          "ticks": 312000,
          "time": 251.6124,
          "velocity": 0.31496062992125984
        },
        {
          "duration": 0.12903199999999515,
          "durationTicks": 160,
          "midi": 58,
          "name": "A#3",
          "ticks": 312960,
          "time": 252.386592,
          "velocity": 0.31496062992125984
        },
        {
          "duration": 0.12903200000002357,
          "durationTicks": 160,
          "midi": 58,
          "name": "A#3",
          "ticks": 313440,
          "time": 252.773688,
          "velocity": 0.31496062992125984
        },
        {
          "duration": 0.12903199999999515,
          "durationTicks": 160,
          "midi": 58,
          "name": "A#3",
          "ticks": 313920,
          "time": 253.160784,
          "velocity": 0.31496062992125984
        },
        {
          "duration": 0.12903200000002357,
          "durationTicks": 160,
          "midi": 58,
          "name": "A#3",
          "ticks": 314400,
          "time": 253.54788,
          "velocity": 0.31496062992125984
        },
        {
          "duration": 0.12903199999999515,
          "durationTicks": 160,
          "midi": 58,
          "name": "A#3",
          "ticks": 314880,
          "time": 253.934976,
          "velocity": 0.31496062992125984
        },
        {
          "duration": 0.12903200000002357,
          "durationTicks": 160,
          "midi": 58,
          "name": "A#3",
          "ticks": 315120,
          "time": 254.128524,
          "velocity": 0.31496062992125984
        },
        {
          "duration": 0.12903200000002357,
          "durationTicks": 160,
          "midi": 58,
          "name": "A#3",
          "ticks": 315360,
          "time": 254.322072,
          "velocity": 0.31496062992125984
        },
        {
          "duration": 0.12903200000002357,
          "durationTicks": 160,
          "midi": 58,
          "name": "A#3",
          "ticks": 315600,
          "time": 254.51561999999998,
          "velocity": 0.31496062992125984
        },
        {
          "duration": 0.12903199999999515,
          "durationTicks": 160,
          "midi": 58,
          "name": "A#3",
          "ticks": 315840,
          "time": 254.709168,
          "velocity": 0.31496062992125984
        },
        {
          "duration": 0.12903200000002357,
          "durationTicks": 160,
          "midi": 55,
          "name": "G3",
          "ticks": 317280,
          "time": 255.870456,
          "velocity": 0.5511811023622047
        },
        {
          "duration": 0.12903199999999515,
          "durationTicks": 160,
          "midi": 51,
          "name": "D#3",
          "ticks": 317520,
          "time": 256.064004,
          "velocity": 0.5511811023622047
        },
        {
          "duration": 0.129032000000052,
          "durationTicks": 160,
          "midi": 56,
          "name": "G#3",
          "ticks": 317760,
          "time": 256.257552,
          "velocity": 0.5511811023622047
        },
        {
          "duration": 0.12903199999999515,
          "durationTicks": 160,
          "midi": 53,
          "name": "F3",
          "ticks": 318000,
          "time": 256.4511,
          "velocity": 0.5511811023622047
        },
        {
          "duration": 0.12903199999999515,
          "durationTicks": 160,
          "midi": 50,
          "name": "D3",
          "ticks": 318240,
          "time": 256.644648,
          "velocity": 0.5511811023622047
        },
        {
          "duration": 0.129032000000052,
          "durationTicks": 160,
          "midi": 62,
          "name": "D4",
          "ticks": 318480,
          "time": 256.838196,
          "velocity": 0.5511811023622047
        },
        {
          "duration": 0.12903199999999515,
          "durationTicks": 160,
          "midi": 63,
          "name": "D#4",
          "ticks": 318720,
          "time": 257.031744,
          "velocity": 0.5511811023622047
        },
        {
          "duration": 0.12903199999999515,
          "durationTicks": 160,
          "midi": 58,
          "name": "A#3",
          "ticks": 318960,
          "time": 257.225292,
          "velocity": 0.5511811023622047
        },
        {
          "duration": 0.12903199999999515,
          "durationTicks": 160,
          "midi": 55,
          "name": "G3",
          "ticks": 319200,
          "time": 257.41884,
          "velocity": 0.5511811023622047
        },
        {
          "duration": 0.12903199999999515,
          "durationTicks": 160,
          "midi": 51,
          "name": "D#3",
          "ticks": 319440,
          "time": 257.612388,
          "velocity": 0.5511811023622047
        },
        {
          "duration": 0.129032000000052,
          "durationTicks": 160,
          "midi": 56,
          "name": "G#3",
          "ticks": 319680,
          "time": 257.805936,
          "velocity": 0.5511811023622047
        },
        {
          "duration": 0.12903199999999515,
          "durationTicks": 160,
          "midi": 53,
          "name": "F3",
          "ticks": 319920,
          "time": 257.999484,
          "velocity": 0.5511811023622047
        },
        {
          "duration": 0.12903199999999515,
          "durationTicks": 160,
          "midi": 50,
          "name": "D3",
          "ticks": 320160,
          "time": 258.193032,
          "velocity": 0.5511811023622047
        },
        {
          "duration": 0.129032000000052,
          "durationTicks": 160,
          "midi": 62,
          "name": "D4",
          "ticks": 320400,
          "time": 258.38658,
          "velocity": 0.5511811023622047
        },
        {
          "duration": 0.12903199999999515,
          "durationTicks": 160,
          "midi": 63,
          "name": "D#4",
          "ticks": 320640,
          "time": 258.580128,
          "velocity": 0.5511811023622047
        },
        {
          "duration": 0.1935479999999643,
          "durationTicks": 240,
          "midi": 65,
          "name": "F4",
          "ticks": 320880,
          "time": 258.773676,
          "velocity": 0.7086614173228346
        },
        {
          "duration": 0.19354800000002115,
          "durationTicks": 240,
          "midi": 63,
          "name": "D#4",
          "ticks": 321120,
          "time": 258.967224,
          "velocity": 0.7086614173228346
        },
        {
          "duration": 0.12903199999999515,
          "durationTicks": 160,
          "midi": 60,
          "name": "C4",
          "ticks": 321360,
          "time": 259.160772,
          "velocity": 0.7086614173228346
        },
        {
          "duration": 0.129032000000052,
          "durationTicks": 160,
          "midi": 58,
          "name": "A#3",
          "ticks": 321600,
          "time": 259.35432,
          "velocity": 0.7086614173228346
        },
        {
          "duration": 0.12903199999999515,
          "durationTicks": 160,
          "midi": 58,
          "name": "A#3",
          "ticks": 322080,
          "time": 259.741416,
          "velocity": 0.7086614173228346
        },
        {
          "duration": 0.12903199999999515,
          "durationTicks": 160,
          "midi": 58,
          "name": "A#3",
          "ticks": 322560,
          "time": 260.128512,
          "velocity": 0.5511811023622047
        },
        {
          "duration": 0.129032000000052,
          "durationTicks": 160,
          "midi": 58,
          "name": "A#3",
          "ticks": 323040,
          "time": 260.515608,
          "velocity": 0.5511811023622047
        },
        {
          "duration": 0.129032000000052,
          "durationTicks": 160,
          "midi": 58,
          "name": "A#3",
          "ticks": 323520,
          "time": 260.90270399999997,
          "velocity": 0.5511811023622047
        },
        {
          "duration": 0.12903199999999515,
          "durationTicks": 160,
          "midi": 58,
          "name": "A#3",
          "ticks": 324480,
          "time": 261.676896,
          "velocity": 0.31496062992125984
        },
        {
          "duration": 0.12903199999999515,
          "durationTicks": 160,
          "midi": 58,
          "name": "A#3",
          "ticks": 325920,
          "time": 262.838184,
          "velocity": 0.31496062992125984
        },
        {
          "duration": 0.12903199999999515,
          "durationTicks": 160,
          "midi": 58,
          "name": "A#3",
          "ticks": 326400,
          "time": 263.22528,
          "velocity": 0.31496062992125984
        },
        {
          "duration": 0.12903199999999515,
          "durationTicks": 160,
          "midi": 58,
          "name": "A#3",
          "ticks": 327840,
          "time": 264.386568,
          "velocity": 0.31496062992125984
        },
        {
          "duration": 0.12903199999999515,
          "durationTicks": 160,
          "midi": 51,
          "name": "D#3",
          "ticks": 328320,
          "time": 264.773664,
          "velocity": 0.31496062992125984
        },
        {
          "duration": 0.129032000000052,
          "durationTicks": 160,
          "midi": 53,
          "name": "F3",
          "ticks": 328800,
          "time": 265.16076,
          "velocity": 0.31496062992125984
        },
        {
          "duration": 0.12903199999999515,
          "durationTicks": 160,
          "midi": 55,
          "name": "G3",
          "ticks": 329280,
          "time": 265.547856,
          "velocity": 0.31496062992125984
        },
        {
          "duration": 0.12903199999999515,
          "durationTicks": 160,
          "midi": 57,
          "name": "A3",
          "ticks": 329760,
          "time": 265.934952,
          "velocity": 0.31496062992125984
        },
        {
          "duration": 0.12903199999999515,
          "durationTicks": 160,
          "midi": 58,
          "name": "A#3",
          "ticks": 330240,
          "time": 266.322048,
          "velocity": 0.31496062992125984
        },
        {
          "duration": 0.129032000000052,
          "durationTicks": 160,
          "midi": 58,
          "name": "A#3",
          "ticks": 330720,
          "time": 266.709144,
          "velocity": 0.31496062992125984
        },
        {
          "duration": 0.12903199999999515,
          "durationTicks": 160,
          "midi": 58,
          "name": "A#3",
          "ticks": 331200,
          "time": 267.09624,
          "velocity": 0.31496062992125984
        },
        {
          "duration": 0.38709599999998545,
          "durationTicks": 480,
          "midi": 60,
          "name": "C4",
          "ticks": 335520,
          "time": 270.580104,
          "velocity": 0.31496062992125984
        },
        {
          "duration": 0.12903199999999515,
          "durationTicks": 160,
          "midi": 58,
          "name": "A#3",
          "ticks": 336000,
          "time": 270.9672,
          "velocity": 0.31496062992125984
        },
        {
          "duration": 0.12903199999999515,
          "durationTicks": 160,
          "midi": 58,
          "name": "A#3",
          "ticks": 336960,
          "time": 271.741392,
          "velocity": 0.31496062992125984
        },
        {
          "duration": 0.6129020000000196,
          "durationTicks": 760,
          "midi": 58,
          "name": "A#3",
          "ticks": 337920,
          "time": 272.515584,
          "velocity": 0.31496062992125984
        },
        {
          "duration": 0.38709599999998545,
          "durationTicks": 480,
          "midi": 60,
          "name": "C4",
          "ticks": 350880,
          "time": 282.967176,
          "velocity": 0.31496062992125984
        },
        {
          "duration": 0.129032000000052,
          "durationTicks": 160,
          "midi": 58,
          "name": "A#3",
          "ticks": 351360,
          "time": 283.354272,
          "velocity": 0.31496062992125984
        },
        {
          "duration": 0.12903199999999515,
          "durationTicks": 160,
          "midi": 58,
          "name": "A#3",
          "ticks": 352320,
          "time": 284.128464,
          "velocity": 0.31496062992125984
        },
        {
          "duration": 0.6129020000000196,
          "durationTicks": 760,
          "midi": 58,
          "name": "A#3",
          "ticks": 353280,
          "time": 284.902656,
          "velocity": 0.31496062992125984
        },
        {
          "duration": 0.19354800000002115,
          "durationTicks": 240,
          "midi": 62,
          "name": "D4",
          "ticks": 354720,
          "time": 286.063944,
          "velocity": 0.31496062992125984
        },
        {
          "duration": 0.1935479999999643,
          "durationTicks": 240,
          "midi": 63,
          "name": "D#4",
          "ticks": 354960,
          "time": 286.257492,
          "velocity": 0.31496062992125984
        },
        {
          "duration": 0.129032000000052,
          "durationTicks": 160,
          "midi": 58,
          "name": "A#3",
          "ticks": 355200,
          "time": 286.45104,
          "velocity": 0.31496062992125984
        },
        {
          "duration": 0.129032000000052,
          "durationTicks": 160,
          "midi": 65,
          "name": "F4",
          "ticks": 355200,
          "time": 286.45104,
          "velocity": 0.31496062992125984
        },
        {
          "duration": 0.12903199999999515,
          "durationTicks": 160,
          "midi": 58,
          "name": "A#3",
          "ticks": 355440,
          "time": 286.644588,
          "velocity": 0.31496062992125984
        },
        {
          "duration": 0.12903199999999515,
          "durationTicks": 160,
          "midi": 65,
          "name": "F4",
          "ticks": 355440,
          "time": 286.644588,
          "velocity": 0.31496062992125984
        },
        {
          "duration": 0.12903199999999515,
          "durationTicks": 160,
          "midi": 58,
          "name": "A#3",
          "ticks": 355680,
          "time": 286.838136,
          "velocity": 0.31496062992125984
        },
        {
          "duration": 0.12903199999999515,
          "durationTicks": 160,
          "midi": 66,
          "name": "F#4",
          "ticks": 355680,
          "time": 286.838136,
          "velocity": 0.31496062992125984
        },
        {
          "duration": 0.129032000000052,
          "durationTicks": 160,
          "midi": 58,
          "name": "A#3",
          "ticks": 355920,
          "time": 287.031684,
          "velocity": 0.31496062992125984
        },
        {
          "duration": 0.129032000000052,
          "durationTicks": 160,
          "midi": 66,
          "name": "F#4",
          "ticks": 355920,
          "time": 287.031684,
          "velocity": 0.31496062992125984
        },
        {
          "duration": 0.12903199999999515,
          "durationTicks": 160,
          "midi": 58,
          "name": "A#3",
          "ticks": 356160,
          "time": 287.225232,
          "velocity": 0.31496062992125984
        },
        {
          "duration": 0.12903199999999515,
          "durationTicks": 160,
          "midi": 67,
          "name": "G4",
          "ticks": 356160,
          "time": 287.225232,
          "velocity": 0.31496062992125984
        },
        {
          "duration": 0.129032000000052,
          "durationTicks": 160,
          "midi": 58,
          "name": "A#3",
          "ticks": 356400,
          "time": 287.41877999999997,
          "velocity": 0.31496062992125984
        },
        {
          "duration": 0.129032000000052,
          "durationTicks": 160,
          "midi": 67,
          "name": "G4",
          "ticks": 356400,
          "time": 287.41877999999997,
          "velocity": 0.31496062992125984
        },
        {
          "duration": 0.12903199999999515,
          "durationTicks": 160,
          "midi": 58,
          "name": "A#3",
          "ticks": 356640,
          "time": 287.612328,
          "velocity": 0.31496062992125984
        },
        {
          "duration": 0.12903199999999515,
          "durationTicks": 160,
          "midi": 67,
          "name": "G4",
          "ticks": 356640,
          "time": 287.612328,
          "velocity": 0.31496062992125984
        },
        {
          "duration": 0.12903199999999515,
          "durationTicks": 160,
          "midi": 58,
          "name": "A#3",
          "ticks": 356880,
          "time": 287.805876,
          "velocity": 0.31496062992125984
        },
        {
          "duration": 0.12903199999999515,
          "durationTicks": 160,
          "midi": 67,
          "name": "G4",
          "ticks": 356880,
          "time": 287.805876,
          "velocity": 0.31496062992125984
        },
        {
          "duration": 0.129032000000052,
          "durationTicks": 160,
          "midi": 58,
          "name": "A#3",
          "ticks": 357120,
          "time": 287.999424,
          "velocity": 0.31496062992125984
        },
        {
          "duration": 0.5806440000000066,
          "durationTicks": 720,
          "midi": 68,
          "name": "G#4",
          "ticks": 357120,
          "time": 287.999424,
          "velocity": 0.31496062992125984
        },
        {
          "duration": 0.12903199999999515,
          "durationTicks": 160,
          "midi": 58,
          "name": "A#3",
          "ticks": 357360,
          "time": 288.192972,
          "velocity": 0.31496062992125984
        },
        {
          "duration": 0.12903199999999515,
          "durationTicks": 160,
          "midi": 58,
          "name": "A#3",
          "ticks": 357600,
          "time": 288.38652,
          "velocity": 0.31496062992125984
        },
        {
          "duration": 0.129032000000052,
          "durationTicks": 160,
          "midi": 58,
          "name": "A#3",
          "ticks": 357840,
          "time": 288.580068,
          "velocity": 0.31496062992125984
        },
        {
          "duration": 0.096774000000039,
          "durationTicks": 120,
          "midi": 65,
          "name": "F4",
          "ticks": 357840,
          "time": 288.580068,
          "velocity": 0.31496062992125984
        },
        {
          "duration": 0.09677399999998215,
          "durationTicks": 120,
          "midi": 62,
          "name": "D4",
          "ticks": 357960,
          "time": 288.676842,
          "velocity": 0.31496062992125984
        },
        {
          "duration": 0.12903199999999515,
          "durationTicks": 160,
          "midi": 58,
          "name": "A#3",
          "ticks": 358080,
          "time": 288.773616,
          "velocity": 0.31496062992125984
        },
        {
          "duration": 0.12903199999999515,
          "durationTicks": 160,
          "midi": 58,
          "name": "A#3",
          "ticks": 358080,
          "time": 288.773616,
          "velocity": 0.31496062992125984
        },
        {
          "duration": 0.19354800000002115,
          "durationTicks": 240,
          "midi": 60,
          "name": "C4",
          "ticks": 358320,
          "time": 288.96716399999997,
          "velocity": 0.31496062992125984
        },
        {
          "duration": 0.19354800000002115,
          "durationTicks": 240,
          "midi": 62,
          "name": "D4",
          "ticks": 358560,
          "time": 289.160712,
          "velocity": 0.31496062992125984
        },
        {
          "duration": 0.1935479999999643,
          "durationTicks": 240,
          "midi": 63,
          "name": "D#4",
          "ticks": 358800,
          "time": 289.35426,
          "velocity": 0.31496062992125984
        },
        {
          "duration": 0.129032000000052,
          "durationTicks": 160,
          "midi": 58,
          "name": "A#3",
          "ticks": 359040,
          "time": 289.547808,
          "velocity": 0.31496062992125984
        },
        {
          "duration": 0.129032000000052,
          "durationTicks": 160,
          "midi": 65,
          "name": "F4",
          "ticks": 359040,
          "time": 289.547808,
          "velocity": 0.31496062992125984
        },
        {
          "duration": 0.12903199999999515,
          "durationTicks": 160,
          "midi": 58,
          "name": "A#3",
          "ticks": 359280,
          "time": 289.741356,
          "velocity": 0.31496062992125984
        },
        {
          "duration": 0.12903199999999515,
          "durationTicks": 160,
          "midi": 65,
          "name": "F4",
          "ticks": 359280,
          "time": 289.741356,
          "velocity": 0.31496062992125984
        },
        {
          "duration": 0.12903199999999515,
          "durationTicks": 160,
          "midi": 58,
          "name": "A#3",
          "ticks": 359520,
          "time": 289.934904,
          "velocity": 0.31496062992125984
        },
        {
          "duration": 0.12903199999999515,
          "durationTicks": 160,
          "midi": 66,
          "name": "F#4",
          "ticks": 359520,
          "time": 289.934904,
          "velocity": 0.31496062992125984
        },
        {
          "duration": 0.129032000000052,
          "durationTicks": 160,
          "midi": 58,
          "name": "A#3",
          "ticks": 359760,
          "time": 290.128452,
          "velocity": 0.31496062992125984
        },
        {
          "duration": 0.129032000000052,
          "durationTicks": 160,
          "midi": 66,
          "name": "F#4",
          "ticks": 359760,
          "time": 290.128452,
          "velocity": 0.31496062992125984
        },
        {
          "duration": 0.12903199999999515,
          "durationTicks": 160,
          "midi": 58,
          "name": "A#3",
          "ticks": 360000,
          "time": 290.322,
          "velocity": 0.31496062992125984
        },
        {
          "duration": 0.12903199999999515,
          "durationTicks": 160,
          "midi": 67,
          "name": "G4",
          "ticks": 360000,
          "time": 290.322,
          "velocity": 0.31496062992125984
        },
        {
          "duration": 0.12903199999999515,
          "durationTicks": 160,
          "midi": 58,
          "name": "A#3",
          "ticks": 360240,
          "time": 290.515548,
          "velocity": 0.31496062992125984
        },
        {
          "duration": 0.12903199999999515,
          "durationTicks": 160,
          "midi": 67,
          "name": "G4",
          "ticks": 360240,
          "time": 290.515548,
          "velocity": 0.31496062992125984
        },
        {
          "duration": 0.12903199999999515,
          "durationTicks": 160,
          "midi": 58,
          "name": "A#3",
          "ticks": 360480,
          "time": 290.709096,
          "velocity": 0.31496062992125984
        },
        {
          "duration": 0.12903199999999515,
          "durationTicks": 160,
          "midi": 67,
          "name": "G4",
          "ticks": 360480,
          "time": 290.709096,
          "velocity": 0.31496062992125984
        },
        {
          "duration": 0.12903199999999515,
          "durationTicks": 160,
          "midi": 58,
          "name": "A#3",
          "ticks": 360720,
          "time": 290.902644,
          "velocity": 0.31496062992125984
        },
        {
          "duration": 0.12903199999999515,
          "durationTicks": 160,
          "midi": 67,
          "name": "G4",
          "ticks": 360720,
          "time": 290.902644,
          "velocity": 0.31496062992125984
        },
        {
          "duration": 0.129032000000052,
          "durationTicks": 160,
          "midi": 58,
          "name": "A#3",
          "ticks": 360960,
          "time": 291.096192,
          "velocity": 0.31496062992125984
        },
        {
          "duration": 0.5806440000000066,
          "durationTicks": 720,
          "midi": 68,
          "name": "G#4",
          "ticks": 360960,
          "time": 291.096192,
          "velocity": 0.31496062992125984
        },
        {
          "duration": 0.12903199999999515,
          "durationTicks": 160,
          "midi": 58,
          "name": "A#3",
          "ticks": 361200,
          "time": 291.28974,
          "velocity": 0.31496062992125984
        },
        {
          "duration": 0.12903199999999515,
          "durationTicks": 160,
          "midi": 58,
          "name": "A#3",
          "ticks": 361440,
          "time": 291.483288,
          "velocity": 0.31496062992125984
        },
        {
          "duration": 0.129032000000052,
          "durationTicks": 160,
          "midi": 58,
          "name": "A#3",
          "ticks": 361680,
          "time": 291.676836,
          "velocity": 0.31496062992125984
        },
        {
          "duration": 0.096774000000039,
          "durationTicks": 120,
          "midi": 65,
          "name": "F4",
          "ticks": 361680,
          "time": 291.676836,
          "velocity": 0.31496062992125984
        },
        {
          "duration": 0.09677399999998215,
          "durationTicks": 120,
          "midi": 62,
          "name": "D4",
          "ticks": 361800,
          "time": 291.77361,
          "velocity": 0.31496062992125984
        },
        {
          "duration": 0.12903199999999515,
          "durationTicks": 160,
          "midi": 58,
          "name": "A#3",
          "ticks": 361920,
          "time": 291.870384,
          "velocity": 0.31496062992125984
        },
        {
          "duration": 0.12903199999999515,
          "durationTicks": 160,
          "midi": 58,
          "name": "A#3",
          "ticks": 361920,
          "time": 291.870384,
          "velocity": 0.31496062992125984
        },
        {
          "duration": 0.12903199999999515,
          "durationTicks": 160,
          "midi": 55,
          "name": "G3",
          "ticks": 363360,
          "time": 293.031672,
          "velocity": 0.5511811023622047
        },
        {
          "duration": 0.129032000000052,
          "durationTicks": 160,
          "midi": 51,
          "name": "D#3",
          "ticks": 363600,
          "time": 293.22522,
          "velocity": 0.5511811023622047
        },
        {
          "duration": 0.12903199999999515,
          "durationTicks": 160,
          "midi": 56,
          "name": "G#3",
          "ticks": 363840,
          "time": 293.418768,
          "velocity": 0.5511811023622047
        },
        {
          "duration": 0.12903199999999515,
          "durationTicks": 160,
          "midi": 53,
          "name": "F3",
          "ticks": 364080,
          "time": 293.612316,
          "velocity": 0.5511811023622047
        },
        {
          "duration": 0.129032000000052,
          "durationTicks": 160,
          "midi": 50,
          "name": "D3",
          "ticks": 364320,
          "time": 293.805864,
          "velocity": 0.5511811023622047
        },
        {
          "duration": 0.12903199999999515,
          "durationTicks": 160,
          "midi": 62,
          "name": "D4",
          "ticks": 364560,
          "time": 293.999412,
          "velocity": 0.5511811023622047
        },
        {
          "duration": 0.129032000000052,
          "durationTicks": 160,
          "midi": 63,
          "name": "D#4",
          "ticks": 364800,
          "time": 294.19295999999997,
          "velocity": 0.5511811023622047
        },
        {
          "duration": 0.12903199999999515,
          "durationTicks": 160,
          "midi": 58,
          "name": "A#3",
          "ticks": 365040,
          "time": 294.386508,
          "velocity": 0.5511811023622047
        },
        {
          "duration": 0.12903199999999515,
          "durationTicks": 160,
          "midi": 55,
          "name": "G3",
          "ticks": 365280,
          "time": 294.580056,
          "velocity": 0.5511811023622047
        },
        {
          "duration": 0.129032000000052,
          "durationTicks": 160,
          "midi": 51,
          "name": "D#3",
          "ticks": 365520,
          "time": 294.773604,
          "velocity": 0.5511811023622047
        },
        {
          "duration": 0.12903199999999515,
          "durationTicks": 160,
          "midi": 56,
          "name": "G#3",
          "ticks": 365760,
          "time": 294.967152,
          "velocity": 0.5511811023622047
        },
        {
          "duration": 0.12903199999999515,
          "durationTicks": 160,
          "midi": 53,
          "name": "F3",
          "ticks": 366000,
          "time": 295.1607,
          "velocity": 0.5511811023622047
        },
        {
          "duration": 0.129032000000052,
          "durationTicks": 160,
          "midi": 50,
          "name": "D3",
          "ticks": 366240,
          "time": 295.354248,
          "velocity": 0.5511811023622047
        },
        {
          "duration": 0.12903199999999515,
          "durationTicks": 160,
          "midi": 62,
          "name": "D4",
          "ticks": 366480,
          "time": 295.547796,
          "velocity": 0.5511811023622047
        },
        {
          "duration": 0.129032000000052,
          "durationTicks": 160,
          "midi": 63,
          "name": "D#4",
          "ticks": 366720,
          "time": 295.74134399999997,
          "velocity": 0.5511811023622047
        },
        {
          "duration": 0.19354800000002115,
          "durationTicks": 240,
          "midi": 65,
          "name": "F4",
          "ticks": 366960,
          "time": 295.934892,
          "velocity": 0.7086614173228346
        },
        {
          "duration": 0.1935479999999643,
          "durationTicks": 240,
          "midi": 63,
          "name": "D#4",
          "ticks": 367200,
          "time": 296.12844,
          "velocity": 0.7086614173228346
        },
        {
          "duration": 0.19354800000002115,
          "durationTicks": 240,
          "midi": 60,
          "name": "C4",
          "ticks": 367440,
          "time": 296.321988,
          "velocity": 0.7086614173228346
        },
        {
          "duration": 0.12903199999999515,
          "durationTicks": 160,
          "midi": 58,
          "name": "A#3",
          "ticks": 367680,
          "time": 296.515536,
          "velocity": 0.7086614173228346
        },
        {
          "duration": 0.129032000000052,
          "durationTicks": 160,
          "midi": 58,
          "name": "A#3",
          "ticks": 368160,
          "time": 296.902632,
          "velocity": 0.7086614173228346
        },
        {
          "duration": 0.12903199999999515,
          "durationTicks": 160,
          "midi": 58,
          "name": "A#3",
          "ticks": 401280,
          "time": 323.612256,
          "velocity": 0.31496062992125984
        },
        {
          "duration": 0.12903199999999515,
          "durationTicks": 160,
          "midi": 65,
          "name": "F4",
          "ticks": 401280,
          "time": 323.612256,
          "velocity": 0.31496062992125984
        },
        {
          "duration": 0.12903199999999515,
          "durationTicks": 160,
          "midi": 58,
          "name": "A#3",
          "ticks": 401520,
          "time": 323.805804,
          "velocity": 0.31496062992125984
        },
        {
          "duration": 0.12903199999999515,
          "durationTicks": 160,
          "midi": 65,
          "name": "F4",
          "ticks": 401520,
          "time": 323.805804,
          "velocity": 0.31496062992125984
        },
        {
          "duration": 0.12903199999999515,
          "durationTicks": 160,
          "midi": 58,
          "name": "A#3",
          "ticks": 401760,
          "time": 323.999352,
          "velocity": 0.31496062992125984
        },
        {
          "duration": 0.12903199999999515,
          "durationTicks": 160,
          "midi": 66,
          "name": "F#4",
          "ticks": 401760,
          "time": 323.999352,
          "velocity": 0.31496062992125984
        },
        {
          "duration": 0.12903199999999515,
          "durationTicks": 160,
          "midi": 58,
          "name": "A#3",
          "ticks": 402000,
          "time": 324.1929,
          "velocity": 0.31496062992125984
        },
        {
          "duration": 0.12903199999999515,
          "durationTicks": 160,
          "midi": 66,
          "name": "F#4",
          "ticks": 402000,
          "time": 324.1929,
          "velocity": 0.31496062992125984
        },
        {
          "duration": 0.129032000000052,
          "durationTicks": 160,
          "midi": 58,
          "name": "A#3",
          "ticks": 402240,
          "time": 324.386448,
          "velocity": 0.31496062992125984
        },
        {
          "duration": 0.129032000000052,
          "durationTicks": 160,
          "midi": 67,
          "name": "G4",
          "ticks": 402240,
          "time": 324.386448,
          "velocity": 0.31496062992125984
        },
        {
          "duration": 0.12903199999999515,
          "durationTicks": 160,
          "midi": 58,
          "name": "A#3",
          "ticks": 402480,
          "time": 324.579996,
          "velocity": 0.31496062992125984
        },
        {
          "duration": 0.12903199999999515,
          "durationTicks": 160,
          "midi": 67,
          "name": "G4",
          "ticks": 402480,
          "time": 324.579996,
          "velocity": 0.31496062992125984
        },
        {
          "duration": 0.12903199999999515,
          "durationTicks": 160,
          "midi": 58,
          "name": "A#3",
          "ticks": 402720,
          "time": 324.773544,
          "velocity": 0.31496062992125984
        },
        {
          "duration": 0.12903199999999515,
          "durationTicks": 160,
          "midi": 67,
          "name": "G4",
          "ticks": 402720,
          "time": 324.773544,
          "velocity": 0.31496062992125984
        },
        {
          "duration": 0.129032000000052,
          "durationTicks": 160,
          "midi": 58,
          "name": "A#3",
          "ticks": 402960,
          "time": 324.967092,
          "velocity": 0.31496062992125984
        },
        {
          "duration": 0.129032000000052,
          "durationTicks": 160,
          "midi": 67,
          "name": "G4",
          "ticks": 402960,
          "time": 324.967092,
          "velocity": 0.31496062992125984
        },
        {
          "duration": 0.12903199999999515,
          "durationTicks": 160,
          "midi": 58,
          "name": "A#3",
          "ticks": 403200,
          "time": 325.16064,
          "velocity": 0.31496062992125984
        },
        {
          "duration": 0.09677399999998215,
          "durationTicks": 120,
          "midi": 68,
          "name": "G#4",
          "ticks": 403200,
          "time": 325.16064,
          "velocity": 0.31496062992125984
        },
        {
          "duration": 0.096774000000039,
          "durationTicks": 120,
          "midi": 65,
          "name": "F4",
          "ticks": 403320,
          "time": 325.257414,
          "velocity": 0.31496062992125984
        },
        {
          "duration": 0.12903199999999515,
          "durationTicks": 160,
          "midi": 58,
          "name": "A#3",
          "ticks": 403440,
          "time": 325.354188,
          "velocity": 0.31496062992125984
        },
        {
          "duration": 0.09677399999998215,
          "durationTicks": 120,
          "midi": 68,
          "name": "G#4",
          "ticks": 403440,
          "time": 325.354188,
          "velocity": 0.31496062992125984
        },
        {
          "duration": 0.09677399999998215,
          "durationTicks": 120,
          "midi": 65,
          "name": "F4",
          "ticks": 403560,
          "time": 325.450962,
          "velocity": 0.31496062992125984
        },
        {
          "duration": 0.129032000000052,
          "durationTicks": 160,
          "midi": 58,
          "name": "A#3",
          "ticks": 403680,
          "time": 325.547736,
          "velocity": 0.31496062992125984
        },
        {
          "duration": 0.09677399999998215,
          "durationTicks": 120,
          "midi": 68,
          "name": "G#4",
          "ticks": 403680,
          "time": 325.547736,
          "velocity": 0.31496062992125984
        },
        {
          "duration": 0.096774000000039,
          "durationTicks": 120,
          "midi": 65,
          "name": "F4",
          "ticks": 403800,
          "time": 325.64450999999997,
          "velocity": 0.31496062992125984
        },
        {
          "duration": 0.12903199999999515,
          "durationTicks": 160,
          "midi": 58,
          "name": "A#3",
          "ticks": 403920,
          "time": 325.741284,
          "velocity": 0.31496062992125984
        },
        {
          "duration": 0.09677399999998215,
          "durationTicks": 120,
          "midi": 68,
          "name": "G#4",
          "ticks": 403920,
          "time": 325.741284,
          "velocity": 0.31496062992125984
        },
        {
          "duration": 0.09677399999998215,
          "durationTicks": 120,
          "midi": 65,
          "name": "F4",
          "ticks": 404040,
          "time": 325.838058,
          "velocity": 0.31496062992125984
        },
        {
          "duration": 0.129032000000052,
          "durationTicks": 160,
          "midi": 58,
          "name": "A#3",
          "ticks": 404160,
          "time": 325.934832,
          "velocity": 0.31496062992125984
        },
        {
          "duration": 0.129032000000052,
          "durationTicks": 160,
          "midi": 68,
          "name": "G#4",
          "ticks": 404160,
          "time": 325.934832,
          "velocity": 0.31496062992125984
        },
        {
          "duration": 0.1935479999999643,
          "durationTicks": 240,
          "midi": 62,
          "name": "D4",
          "ticks": 404640,
          "time": 326.321928,
          "velocity": 0.31496062992125984
        },
        {
          "duration": 0.19354800000002115,
          "durationTicks": 240,
          "midi": 63,
          "name": "D#4",
          "ticks": 404880,
          "time": 326.515476,
          "velocity": 0.31496062992125984
        },
        {
          "duration": 0.12903199999999515,
          "durationTicks": 160,
          "midi": 58,
          "name": "A#3",
          "ticks": 405120,
          "time": 326.709024,
          "velocity": 0.31496062992125984
        },
        {
          "duration": 0.12903199999999515,
          "durationTicks": 160,
          "midi": 65,
          "name": "F4",
          "ticks": 405120,
          "time": 326.709024,
          "velocity": 0.31496062992125984
        },
        {
          "duration": 0.12903199999999515,
          "durationTicks": 160,
          "midi": 58,
          "name": "A#3",
          "ticks": 405360,
          "time": 326.902572,
          "velocity": 0.31496062992125984
        },
        {
          "duration": 0.12903199999999515,
          "durationTicks": 160,
          "midi": 65,
          "name": "F4",
          "ticks": 405360,
          "time": 326.902572,
          "velocity": 0.31496062992125984
        },
        {
          "duration": 0.129032000000052,
          "durationTicks": 160,
          "midi": 58,
          "name": "A#3",
          "ticks": 405600,
          "time": 327.09612,
          "velocity": 0.31496062992125984
        },
        {
          "duration": 0.129032000000052,
          "durationTicks": 160,
          "midi": 66,
          "name": "F#4",
          "ticks": 405600,
          "time": 327.09612,
          "velocity": 0.31496062992125984
        },
        {
          "duration": 0.12903199999999515,
          "durationTicks": 160,
          "midi": 58,
          "name": "A#3",
          "ticks": 405840,
          "time": 327.289668,
          "velocity": 0.31496062992125984
        },
        {
          "duration": 0.12903199999999515,
          "durationTicks": 160,
          "midi": 66,
          "name": "F#4",
          "ticks": 405840,
          "time": 327.289668,
          "velocity": 0.31496062992125984
        },
        {
          "duration": 0.129032000000052,
          "durationTicks": 160,
          "midi": 58,
          "name": "A#3",
          "ticks": 406080,
          "time": 327.48321599999997,
          "velocity": 0.31496062992125984
        },
        {
          "duration": 0.129032000000052,
          "durationTicks": 160,
          "midi": 67,
          "name": "G4",
          "ticks": 406080,
          "time": 327.48321599999997,
          "velocity": 0.31496062992125984
        },
        {
          "duration": 0.12903199999999515,
          "durationTicks": 160,
          "midi": 58,
          "name": "A#3",
          "ticks": 406320,
          "time": 327.676764,
          "velocity": 0.31496062992125984
        },
        {
          "duration": 0.12903199999999515,
          "durationTicks": 160,
          "midi": 67,
          "name": "G4",
          "ticks": 406320,
          "time": 327.676764,
          "velocity": 0.31496062992125984
        },
        {
          "duration": 0.12903199999999515,
          "durationTicks": 160,
          "midi": 58,
          "name": "A#3",
          "ticks": 406560,
          "time": 327.870312,
          "velocity": 0.31496062992125984
        },
        {
          "duration": 0.12903199999999515,
          "durationTicks": 160,
          "midi": 67,
          "name": "G4",
          "ticks": 406560,
          "time": 327.870312,
          "velocity": 0.31496062992125984
        },
        {
          "duration": 0.129032000000052,
          "durationTicks": 160,
          "midi": 58,
          "name": "A#3",
          "ticks": 406800,
          "time": 328.06386,
          "velocity": 0.31496062992125984
        },
        {
          "duration": 0.129032000000052,
          "durationTicks": 160,
          "midi": 67,
          "name": "G4",
          "ticks": 406800,
          "time": 328.06386,
          "velocity": 0.31496062992125984
        },
        {
          "duration": 0.12903199999999515,
          "durationTicks": 160,
          "midi": 58,
          "name": "A#3",
          "ticks": 407040,
          "time": 328.257408,
          "velocity": 0.31496062992125984
        },
        {
          "duration": 0.09677399999998215,
          "durationTicks": 120,
          "midi": 68,
          "name": "G#4",
          "ticks": 407040,
          "time": 328.257408,
          "velocity": 0.31496062992125984
        },
        {
          "duration": 0.096774000000039,
          "durationTicks": 120,
          "midi": 65,
          "name": "F4",
          "ticks": 407160,
          "time": 328.354182,
          "velocity": 0.31496062992125984
        },
        {
          "duration": 0.12903199999999515,
          "durationTicks": 160,
          "midi": 58,
          "name": "A#3",
          "ticks": 407280,
          "time": 328.450956,
          "velocity": 0.31496062992125984
        },
        {
          "duration": 0.09677399999998215,
          "durationTicks": 120,
          "midi": 68,
          "name": "G#4",
          "ticks": 407280,
          "time": 328.450956,
          "velocity": 0.31496062992125984
        },
        {
          "duration": 0.09677399999998215,
          "durationTicks": 120,
          "midi": 65,
          "name": "F4",
          "ticks": 407400,
          "time": 328.54773,
          "velocity": 0.31496062992125984
        },
        {
          "duration": 0.129032000000052,
          "durationTicks": 160,
          "midi": 58,
          "name": "A#3",
          "ticks": 407520,
          "time": 328.644504,
          "velocity": 0.31496062992125984
        },
        {
          "duration": 0.096774000000039,
          "durationTicks": 120,
          "midi": 68,
          "name": "G#4",
          "ticks": 407520,
          "time": 328.644504,
          "velocity": 0.31496062992125984
        },
        {
          "duration": 0.09677399999998215,
          "durationTicks": 120,
          "midi": 65,
          "name": "F4",
          "ticks": 407640,
          "time": 328.741278,
          "velocity": 0.31496062992125984
        },
        {
          "duration": 0.12903199999999515,
          "durationTicks": 160,
          "midi": 58,
          "name": "A#3",
          "ticks": 407760,
          "time": 328.838052,
          "velocity": 0.31496062992125984
        },
        {
          "duration": 0.09677399999998215,
          "durationTicks": 120,
          "midi": 68,
          "name": "G#4",
          "ticks": 407760,
          "time": 328.838052,
          "velocity": 0.31496062992125984
        },
        {
          "duration": 0.09677399999998215,
          "durationTicks": 120,
          "midi": 65,
          "name": "F4",
          "ticks": 407880,
          "time": 328.934826,
          "velocity": 0.31496062992125984
        },
        {
          "duration": 0.129032000000052,
          "durationTicks": 160,
          "midi": 58,
          "name": "A#3",
          "ticks": 408000,
          "time": 329.03159999999997,
          "velocity": 0.31496062992125984
        },
        {
          "duration": 0.129032000000052,
          "durationTicks": 160,
          "midi": 68,
          "name": "G#4",
          "ticks": 408000,
          "time": 329.03159999999997,
          "velocity": 0.31496062992125984
        },
        {
          "duration": 0.129032000000052,
          "durationTicks": 160,
          "midi": 55,
          "name": "G3",
          "ticks": 409440,
          "time": 330.192888,
          "velocity": 0.5511811023622047
        },
        {
          "duration": 0.12903199999999515,
          "durationTicks": 160,
          "midi": 51,
          "name": "D#3",
          "ticks": 409680,
          "time": 330.386436,
          "velocity": 0.5511811023622047
        },
        {
          "duration": 0.12903199999999515,
          "durationTicks": 160,
          "midi": 56,
          "name": "G#3",
          "ticks": 409920,
          "time": 330.579984,
          "velocity": 0.5511811023622047
        },
        {
          "duration": 0.12903199999999515,
          "durationTicks": 160,
          "midi": 53,
          "name": "F3",
          "ticks": 410160,
          "time": 330.773532,
          "velocity": 0.5511811023622047
        },
        {
          "duration": 0.12903199999999515,
          "durationTicks": 160,
          "midi": 50,
          "name": "D3",
          "ticks": 410400,
          "time": 330.96708,
          "velocity": 0.5511811023622047
        },
        {
          "duration": 0.129032000000052,
          "durationTicks": 160,
          "midi": 62,
          "name": "D4",
          "ticks": 410640,
          "time": 331.160628,
          "velocity": 0.5511811023622047
        },
        {
          "duration": 0.12903199999999515,
          "durationTicks": 160,
          "midi": 63,
          "name": "D#4",
          "ticks": 410880,
          "time": 331.354176,
          "velocity": 0.5511811023622047
        },
        {
          "duration": 0.12903199999999515,
          "durationTicks": 160,
          "midi": 58,
          "name": "A#3",
          "ticks": 411120,
          "time": 331.547724,
          "velocity": 0.5511811023622047
        },
        {
          "duration": 0.129032000000052,
          "durationTicks": 160,
          "midi": 55,
          "name": "G3",
          "ticks": 411360,
          "time": 331.741272,
          "velocity": 0.5511811023622047
        },
        {
          "duration": 0.12903199999999515,
          "durationTicks": 160,
          "midi": 51,
          "name": "D#3",
          "ticks": 411600,
          "time": 331.93482,
          "velocity": 0.5511811023622047
        },
        {
          "duration": 0.12903199999999515,
          "durationTicks": 160,
          "midi": 56,
          "name": "G#3",
          "ticks": 411840,
          "time": 332.128368,
          "velocity": 0.5511811023622047
        },
        {
          "duration": 0.12903199999999515,
          "durationTicks": 160,
          "midi": 53,
          "name": "F3",
          "ticks": 412080,
          "time": 332.321916,
          "velocity": 0.5511811023622047
        },
        {
          "duration": 0.12903199999999515,
          "durationTicks": 160,
          "midi": 50,
          "name": "D3",
          "ticks": 412320,
          "time": 332.515464,
          "velocity": 0.5511811023622047
        },
        {
          "duration": 0.129032000000052,
          "durationTicks": 160,
          "midi": 62,
          "name": "D4",
          "ticks": 412560,
          "time": 332.709012,
          "velocity": 0.5511811023622047
        },
        {
          "duration": 0.12903199999999515,
          "durationTicks": 160,
          "midi": 63,
          "name": "D#4",
          "ticks": 412800,
          "time": 332.90256,
          "velocity": 0.5511811023622047
        },
        {
          "duration": 0.1935479999999643,
          "durationTicks": 240,
          "midi": 65,
          "name": "F4",
          "ticks": 413040,
          "time": 333.096108,
          "velocity": 0.7086614173228346
        },
        {
          "duration": 0.19354800000002115,
          "durationTicks": 240,
          "midi": 63,
          "name": "D#4",
          "ticks": 413280,
          "time": 333.289656,
          "velocity": 0.7086614173228346
        },
        {
          "duration": 0.19354800000002115,
          "durationTicks": 240,
          "midi": 60,
          "name": "C4",
          "ticks": 413520,
          "time": 333.483204,
          "velocity": 0.7086614173228346
        },
        {
          "duration": 0.12903199999999515,
          "durationTicks": 160,
          "midi": 58,
          "name": "A#3",
          "ticks": 413760,
          "time": 333.676752,
          "velocity": 0.7086614173228346
        },
        {
          "duration": 0.12903199999999515,
          "durationTicks": 160,
          "midi": 58,
          "name": "A#3",
          "ticks": 414240,
          "time": 334.063848,
          "velocity": 0.7086614173228346
        },
        {
          "duration": 0.12903199999999515,
          "durationTicks": 160,
          "midi": 58,
          "name": "A#3",
          "ticks": 414720,
          "time": 334.450944,
          "velocity": 0.7086614173228346
        },
        {
          "duration": 0.129032000000052,
          "durationTicks": 160,
          "midi": 58,
          "name": "A#3",
          "ticks": 415200,
          "time": 334.83804,
          "velocity": 0.7086614173228346
        },
        {
          "duration": 0.12903199999999515,
          "durationTicks": 160,
          "midi": 58,
          "name": "A#3",
          "ticks": 415680,
          "time": 335.225136,
          "velocity": 0.7086614173228346
        },
        {
          "duration": 0.6129020000000196,
          "durationTicks": 760,
          "midi": 58,
          "name": "A#3",
          "ticks": 416640,
          "time": 335.999328,
          "velocity": 0.31496062992125984
        },
        {
          "duration": 0.3225800000000163,
          "durationTicks": 400,
          "midi": 58,
          "name": "A#3",
          "ticks": 418080,
          "time": 337.160616,
          "velocity": 0.31496062992125984
        },
        {
          "duration": 0.6129020000000196,
          "durationTicks": 760,
          "midi": 58,
          "name": "A#3",
          "ticks": 418560,
          "time": 337.547712,
          "velocity": 0.31496062992125984
        },
        {
          "duration": 0.38709599999998545,
          "durationTicks": 480,
          "midi": 58,
          "name": "A#3",
          "ticks": 420000,
          "time": 338.709,
          "velocity": 0.31496062992125984
        },
        {
          "duration": 0.3225800000000163,
          "durationTicks": 400,
          "midi": 62,
          "name": "D4",
          "ticks": 420000,
          "time": 338.709,
          "velocity": 0.31496062992125984
        },
        {
          "duration": 0.6129020000000196,
          "durationTicks": 760,
          "midi": 60,
          "name": "C4",
          "ticks": 420480,
          "time": 339.096096,
          "velocity": 0.31496062992125984
        },
        {
          "duration": 0.6129020000000196,
          "durationTicks": 760,
          "midi": 63,
          "name": "D#4",
          "ticks": 420480,
          "time": 339.096096,
          "velocity": 0.31496062992125984
        },
        {
          "duration": 0.38709599999998545,
          "durationTicks": 480,
          "midi": 60,
          "name": "C4",
          "ticks": 421920,
          "time": 340.257384,
          "velocity": 0.31496062992125984
        },
        {
          "duration": 0.6129020000000196,
          "durationTicks": 760,
          "midi": 58,
          "name": "A#3",
          "ticks": 422400,
          "time": 340.64448,
          "velocity": 0.31496062992125984
        },
        {
          "duration": 0.7741920000000277,
          "durationTicks": 960,
          "midi": 64,
          "name": "E4",
          "ticks": 424320,
          "time": 342.192864,
          "velocity": 0.31496062992125984
        },
        {
          "duration": 0.1370964999999842,
          "durationTicks": 170,
          "midi": 65,
          "name": "F4",
          "ticks": 425280,
          "time": 342.967056,
          "velocity": 0.31496062992125984
        },
        {
          "duration": 0.7741920000000277,
          "durationTicks": 960,
          "midi": 62,
          "name": "D4",
          "ticks": 426240,
          "time": 343.741248,
          "velocity": 0.31496062992125984
        },
        {
          "duration": 0.1370964999999842,
          "durationTicks": 170,
          "midi": 63,
          "name": "D#4",
          "ticks": 427200,
          "time": 344.51544,
          "velocity": 0.31496062992125984
        },
        {
          "duration": 0.129032000000052,
          "durationTicks": 160,
          "midi": 60,
          "name": "C4",
          "ticks": 428160,
          "time": 345.289632,
          "velocity": 0.31496062992125984
        },
        {
          "duration": 0.12903199999999515,
          "durationTicks": 160,
          "midi": 56,
          "name": "G#3",
          "ticks": 429120,
          "time": 346.063824,
          "velocity": 0.31496062992125984
        },
        {
          "duration": 0.12903199999999515,
          "durationTicks": 160,
          "midi": 58,
          "name": "A#3",
          "ticks": 429120,
          "time": 346.063824,
          "velocity": 0.31496062992125984
        },
        {
          "duration": 0.129032000000052,
          "durationTicks": 160,
          "midi": 55,
          "name": "G3",
          "ticks": 430080,
          "time": 346.838016,
          "velocity": 0.31496062992125984
        },
        {
          "duration": 0.129032000000052,
          "durationTicks": 160,
          "midi": 58,
          "name": "A#3",
          "ticks": 430080,
          "time": 346.838016,
          "velocity": 0.31496062992125984
        },
        {
          "duration": 0.19354800000002115,
          "durationTicks": 240,
          "midi": 55,
          "name": "G3",
          "ticks": 431280,
          "time": 347.805756,
          "velocity": 0.31496062992125984
        },
        {
          "duration": 0.19354800000002115,
          "durationTicks": 240,
          "midi": 59,
          "name": "B3",
          "ticks": 431520,
          "time": 347.999304,
          "velocity": 0.31496062992125984
        },
        {
          "duration": 0.1935479999999643,
          "durationTicks": 240,
          "midi": 60,
          "name": "C4",
          "ticks": 431760,
          "time": 348.192852,
          "velocity": 0.31496062992125984
        },
        {
          "duration": 0.129032000000052,
          "durationTicks": 160,
          "midi": 55,
          "name": "G3",
          "ticks": 432000,
          "time": 348.3864,
          "velocity": 0.31496062992125984
        },
        {
          "duration": 0.38709599999998545,
          "durationTicks": 480,
          "midi": 63,
          "name": "D#4",
          "ticks": 435360,
          "time": 351.096072,
          "velocity": 0.31496062992125984
        },
        {
          "duration": 0.129032000000052,
          "durationTicks": 160,
          "midi": 65,
          "name": "F4",
          "ticks": 435840,
          "time": 351.483168,
          "velocity": 0.31496062992125984
        },
        {
          "duration": 0.7741920000000277,
          "durationTicks": 960,
          "midi": 64,
          "name": "E4",
          "ticks": 439680,
          "time": 354.579936,
          "velocity": 0.31496062992125984
        },
        {
          "duration": 0.1370964999999842,
          "durationTicks": 170,
          "midi": 65,
          "name": "F4",
          "ticks": 440640,
          "time": 355.354128,
          "velocity": 0.31496062992125984
        },
        {
          "duration": 0.7741920000000277,
          "durationTicks": 960,
          "midi": 62,
          "name": "D4",
          "ticks": 441600,
          "time": 356.12832,
          "velocity": 0.31496062992125984
        },
        {
          "duration": 0.1370964999999842,
          "durationTicks": 170,
          "midi": 63,
          "name": "D#4",
          "ticks": 442560,
          "time": 356.902512,
          "velocity": 0.31496062992125984
        },
        {
          "duration": 0.129032000000052,
          "durationTicks": 160,
          "midi": 60,
          "name": "C4",
          "ticks": 443520,
          "time": 357.676704,
          "velocity": 0.31496062992125984
        },
        {
          "duration": 0.12903199999999515,
          "durationTicks": 160,
          "midi": 56,
          "name": "G#3",
          "ticks": 444480,
          "time": 358.450896,
          "velocity": 0.31496062992125984
        },
        {
          "duration": 0.12903199999999515,
          "durationTicks": 160,
          "midi": 58,
          "name": "A#3",
          "ticks": 444480,
          "time": 358.450896,
          "velocity": 0.31496062992125984
        },
        {
          "duration": 0.129032000000052,
          "durationTicks": 160,
          "midi": 55,
          "name": "G3",
          "ticks": 445440,
          "time": 359.22508799999997,
          "velocity": 0.31496062992125984
        },
        {
          "duration": 0.129032000000052,
          "durationTicks": 160,
          "midi": 58,
          "name": "A#3",
          "ticks": 445440,
          "time": 359.22508799999997,
          "velocity": 0.31496062992125984
        },
        {
          "duration": 0.129032000000052,
          "durationTicks": 160,
          "midi": 58,
          "name": "A#3",
          "ticks": 447360,
          "time": 360.77347199999997,
          "velocity": 0.31496062992125984
        },
        {
          "duration": 0.129032000000052,
          "durationTicks": 160,
          "midi": 65,
          "name": "F4",
          "ticks": 447360,
          "time": 360.77347199999997,
          "velocity": 0.31496062992125984
        },
        {
          "duration": 0.12903199999999515,
          "durationTicks": 160,
          "midi": 58,
          "name": "A#3",
          "ticks": 447600,
          "time": 360.96702,
          "velocity": 0.31496062992125984
        },
        {
          "duration": 0.12903199999999515,
          "durationTicks": 160,
          "midi": 65,
          "name": "F4",
          "ticks": 447600,
          "time": 360.96702,
          "velocity": 0.31496062992125984
        },
        {
          "duration": 0.12903199999999515,
          "durationTicks": 160,
          "midi": 58,
          "name": "A#3",
          "ticks": 447840,
          "time": 361.160568,
          "velocity": 0.31496062992125984
        },
        {
          "duration": 0.12903199999999515,
          "durationTicks": 160,
          "midi": 66,
          "name": "F#4",
          "ticks": 447840,
          "time": 361.160568,
          "velocity": 0.31496062992125984
        },
        {
          "duration": 0.129032000000052,
          "durationTicks": 160,
          "midi": 58,
          "name": "A#3",
          "ticks": 448080,
          "time": 361.354116,
          "velocity": 0.31496062992125984
        },
        {
          "duration": 0.129032000000052,
          "durationTicks": 160,
          "midi": 66,
          "name": "F#4",
          "ticks": 448080,
          "time": 361.354116,
          "velocity": 0.31496062992125984
        },
        {
          "duration": 0.12903199999999515,
          "durationTicks": 160,
          "midi": 58,
          "name": "A#3",
          "ticks": 448320,
          "time": 361.547664,
          "velocity": 0.31496062992125984
        },
        {
          "duration": 0.12903199999999515,
          "durationTicks": 160,
          "midi": 67,
          "name": "G4",
          "ticks": 448320,
          "time": 361.547664,
          "velocity": 0.31496062992125984
        },
        {
          "duration": 0.12903199999999515,
          "durationTicks": 160,
          "midi": 58,
          "name": "A#3",
          "ticks": 448560,
          "time": 361.741212,
          "velocity": 0.31496062992125984
        },
        {
          "duration": 0.12903199999999515,
          "durationTicks": 160,
          "midi": 67,
          "name": "G4",
          "ticks": 448560,
          "time": 361.741212,
          "velocity": 0.31496062992125984
        },
        {
          "duration": 0.129032000000052,
          "durationTicks": 160,
          "midi": 58,
          "name": "A#3",
          "ticks": 448800,
          "time": 361.93476,
          "velocity": 0.31496062992125984
        },
        {
          "duration": 0.129032000000052,
          "durationTicks": 160,
          "midi": 67,
          "name": "G4",
          "ticks": 448800,
          "time": 361.93476,
          "velocity": 0.31496062992125984
        },
        {
          "duration": 0.12903199999999515,
          "durationTicks": 160,
          "midi": 58,
          "name": "A#3",
          "ticks": 449040,
          "time": 362.128308,
          "velocity": 0.31496062992125984
        },
        {
          "duration": 0.12903199999999515,
          "durationTicks": 160,
          "midi": 67,
          "name": "G4",
          "ticks": 449040,
          "time": 362.128308,
          "velocity": 0.31496062992125984
        },
        {
          "duration": 0.129032000000052,
          "durationTicks": 160,
          "midi": 58,
          "name": "A#3",
          "ticks": 449280,
          "time": 362.32185599999997,
          "velocity": 0.31496062992125984
        },
        {
          "duration": 0.096774000000039,
          "durationTicks": 120,
          "midi": 68,
          "name": "G#4",
          "ticks": 449280,
          "time": 362.32185599999997,
          "velocity": 0.31496062992125984
        },
        {
          "duration": 0.09677399999998215,
          "durationTicks": 120,
          "midi": 65,
          "name": "F4",
          "ticks": 449400,
          "time": 362.41863,
          "velocity": 0.31496062992125984
        },
        {
          "duration": 0.12903199999999515,
          "durationTicks": 160,
          "midi": 58,
          "name": "A#3",
          "ticks": 449520,
          "time": 362.515404,
          "velocity": 0.31496062992125984
        },
        {
          "duration": 0.09677399999998215,
          "durationTicks": 120,
          "midi": 68,
          "name": "G#4",
          "ticks": 449520,
          "time": 362.515404,
          "velocity": 0.31496062992125984
        },
        {
          "duration": 0.096774000000039,
          "durationTicks": 120,
          "midi": 65,
          "name": "F4",
          "ticks": 449640,
          "time": 362.612178,
          "velocity": 0.31496062992125984
        },
        {
          "duration": 0.12903199999999515,
          "durationTicks": 160,
          "midi": 58,
          "name": "A#3",
          "ticks": 449760,
          "time": 362.708952,
          "velocity": 0.31496062992125984
        },
        {
          "duration": 0.09677399999998215,
          "durationTicks": 120,
          "midi": 68,
          "name": "G#4",
          "ticks": 449760,
          "time": 362.708952,
          "velocity": 0.31496062992125984
        },
        {
          "duration": 0.09677399999998215,
          "durationTicks": 120,
          "midi": 65,
          "name": "F4",
          "ticks": 449880,
          "time": 362.805726,
          "velocity": 0.31496062992125984
        },
        {
          "duration": 0.129032000000052,
          "durationTicks": 160,
          "midi": 58,
          "name": "A#3",
          "ticks": 450000,
          "time": 362.9025,
          "velocity": 0.31496062992125984
        },
        {
          "duration": 0.096774000000039,
          "durationTicks": 120,
          "midi": 68,
          "name": "G#4",
          "ticks": 450000,
          "time": 362.9025,
          "velocity": 0.31496062992125984
        },
        {
          "duration": 0.09677399999998215,
          "durationTicks": 120,
          "midi": 65,
          "name": "F4",
          "ticks": 450120,
          "time": 362.999274,
          "velocity": 0.31496062992125984
        },
        {
          "duration": 0.12903199999999515,
          "durationTicks": 160,
          "midi": 58,
          "name": "A#3",
          "ticks": 450240,
          "time": 363.096048,
          "velocity": 0.31496062992125984
        },
        {
          "duration": 0.12903199999999515,
          "durationTicks": 160,
          "midi": 68,
          "name": "G#4",
          "ticks": 450240,
          "time": 363.096048,
          "velocity": 0.31496062992125984
        },
        {
          "duration": 0.19354800000002115,
          "durationTicks": 240,
          "midi": 62,
          "name": "D4",
          "ticks": 450720,
          "time": 363.483144,
          "velocity": 0.31496062992125984
        },
        {
          "duration": 0.19354800000002115,
          "durationTicks": 240,
          "midi": 63,
          "name": "D#4",
          "ticks": 450960,
          "time": 363.676692,
          "velocity": 0.31496062992125984
        },
        {
          "duration": 0.12903199999999515,
          "durationTicks": 160,
          "midi": 58,
          "name": "A#3",
          "ticks": 451200,
          "time": 363.87024,
          "velocity": 0.31496062992125984
        },
        {
          "duration": 0.12903199999999515,
          "durationTicks": 160,
          "midi": 65,
          "name": "F4",
          "ticks": 451200,
          "time": 363.87024,
          "velocity": 0.31496062992125984
        },
        {
          "duration": 0.12903199999999515,
          "durationTicks": 160,
          "midi": 58,
          "name": "A#3",
          "ticks": 451440,
          "time": 364.063788,
          "velocity": 0.31496062992125984
        },
        {
          "duration": 0.12903199999999515,
          "durationTicks": 160,
          "midi": 65,
          "name": "F4",
          "ticks": 451440,
          "time": 364.063788,
          "velocity": 0.31496062992125984
        },
        {
          "duration": 0.12903199999999515,
          "durationTicks": 160,
          "midi": 58,
          "name": "A#3",
          "ticks": 451680,
          "time": 364.257336,
          "velocity": 0.31496062992125984
        },
        {
          "duration": 0.12903199999999515,
          "durationTicks": 160,
          "midi": 66,
          "name": "F#4",
          "ticks": 451680,
          "time": 364.257336,
          "velocity": 0.31496062992125984
        },
        {
          "duration": 0.129032000000052,
          "durationTicks": 160,
          "midi": 58,
          "name": "A#3",
          "ticks": 451920,
          "time": 364.450884,
          "velocity": 0.31496062992125984
        },
        {
          "duration": 0.129032000000052,
          "durationTicks": 160,
          "midi": 66,
          "name": "F#4",
          "ticks": 451920,
          "time": 364.450884,
          "velocity": 0.31496062992125984
        },
        {
          "duration": 0.12903199999999515,
          "durationTicks": 160,
          "midi": 58,
          "name": "A#3",
          "ticks": 452160,
          "time": 364.644432,
          "velocity": 0.31496062992125984
        },
        {
          "duration": 0.12903199999999515,
          "durationTicks": 160,
          "midi": 67,
          "name": "G4",
          "ticks": 452160,
          "time": 364.644432,
          "velocity": 0.31496062992125984
        },
        {
          "duration": 0.12903199999999515,
          "durationTicks": 160,
          "midi": 58,
          "name": "A#3",
          "ticks": 452400,
          "time": 364.83798,
          "velocity": 0.31496062992125984
        },
        {
          "duration": 0.12903199999999515,
          "durationTicks": 160,
          "midi": 67,
          "name": "G4",
          "ticks": 452400,
          "time": 364.83798,
          "velocity": 0.31496062992125984
        },
        {
          "duration": 0.129032000000052,
          "durationTicks": 160,
          "midi": 58,
          "name": "A#3",
          "ticks": 452640,
          "time": 365.031528,
          "velocity": 0.31496062992125984
        },
        {
          "duration": 0.129032000000052,
          "durationTicks": 160,
          "midi": 67,
          "name": "G4",
          "ticks": 452640,
          "time": 365.031528,
          "velocity": 0.31496062992125984
        },
        {
          "duration": 0.12903199999999515,
          "durationTicks": 160,
          "midi": 58,
          "name": "A#3",
          "ticks": 452880,
          "time": 365.225076,
          "velocity": 0.31496062992125984
        },
        {
          "duration": 0.12903199999999515,
          "durationTicks": 160,
          "midi": 67,
          "name": "G4",
          "ticks": 452880,
          "time": 365.225076,
          "velocity": 0.31496062992125984
        },
        {
          "duration": 0.12903199999999515,
          "durationTicks": 160,
          "midi": 58,
          "name": "A#3",
          "ticks": 453120,
          "time": 365.418624,
          "velocity": 0.31496062992125984
        },
        {
          "duration": 0.09677399999998215,
          "durationTicks": 120,
          "midi": 68,
          "name": "G#4",
          "ticks": 453120,
          "time": 365.418624,
          "velocity": 0.31496062992125984
        },
        {
          "duration": 0.09677399999998215,
          "durationTicks": 120,
          "midi": 65,
          "name": "F4",
          "ticks": 453240,
          "time": 365.515398,
          "velocity": 0.31496062992125984
        },
        {
          "duration": 0.129032000000052,
          "durationTicks": 160,
          "midi": 58,
          "name": "A#3",
          "ticks": 453360,
          "time": 365.612172,
          "velocity": 0.31496062992125984
        },
        {
          "duration": 0.09677399999998215,
          "durationTicks": 120,
          "midi": 68,
          "name": "G#4",
          "ticks": 453360,
          "time": 365.612172,
          "velocity": 0.31496062992125984
        },
        {
          "duration": 0.096774000000039,
          "durationTicks": 120,
          "midi": 65,
          "name": "F4",
          "ticks": 453480,
          "time": 365.70894599999997,
          "velocity": 0.31496062992125984
        },
        {
          "duration": 0.12903199999999515,
          "durationTicks": 160,
          "midi": 58,
          "name": "A#3",
          "ticks": 453600,
          "time": 365.80572,
          "velocity": 0.31496062992125984
        },
        {
          "duration": 0.09677399999998215,
          "durationTicks": 120,
          "midi": 68,
          "name": "G#4",
          "ticks": 453600,
          "time": 365.80572,
          "velocity": 0.31496062992125984
        },
        {
          "duration": 0.09677399999998215,
          "durationTicks": 120,
          "midi": 65,
          "name": "F4",
          "ticks": 453720,
          "time": 365.902494,
          "velocity": 0.31496062992125984
        },
        {
          "duration": 0.129032000000052,
          "durationTicks": 160,
          "midi": 58,
          "name": "A#3",
          "ticks": 453840,
          "time": 365.999268,
          "velocity": 0.31496062992125984
        },
        {
          "duration": 0.096774000000039,
          "durationTicks": 120,
          "midi": 68,
          "name": "G#4",
          "ticks": 453840,
          "time": 365.999268,
          "velocity": 0.31496062992125984
        },
        {
          "duration": 0.09677399999998215,
          "durationTicks": 120,
          "midi": 65,
          "name": "F4",
          "ticks": 453960,
          "time": 366.096042,
          "velocity": 0.31496062992125984
        },
        {
          "duration": 0.12903199999999515,
          "durationTicks": 160,
          "midi": 58,
          "name": "A#3",
          "ticks": 454080,
          "time": 366.192816,
          "velocity": 0.31496062992125984
        },
        {
          "duration": 0.12903199999999515,
          "durationTicks": 160,
          "midi": 68,
          "name": "G#4",
          "ticks": 454080,
          "time": 366.192816,
          "velocity": 0.31496062992125984
        },
        {
          "duration": 0.12903199999999515,
          "durationTicks": 160,
          "midi": 55,
          "name": "G3",
          "ticks": 455520,
          "time": 367.354104,
          "velocity": 0.5511811023622047
        },
        {
          "duration": 0.129032000000052,
          "durationTicks": 160,
          "midi": 51,
          "name": "D#3",
          "ticks": 455760,
          "time": 367.54765199999997,
          "velocity": 0.5511811023622047
        },
        {
          "duration": 0.12903199999999515,
          "durationTicks": 160,
          "midi": 56,
          "name": "G#3",
          "ticks": 456000,
          "time": 367.7412,
          "velocity": 0.5511811023622047
        },
        {
          "duration": 0.12903199999999515,
          "durationTicks": 160,
          "midi": 53,
          "name": "F3",
          "ticks": 456240,
          "time": 367.934748,
          "velocity": 0.5511811023622047
        },
        {
          "duration": 0.129032000000052,
          "durationTicks": 160,
          "midi": 50,
          "name": "D3",
          "ticks": 456480,
          "time": 368.128296,
          "velocity": 0.5511811023622047
        },
        {
          "duration": 0.12903199999999515,
          "durationTicks": 160,
          "midi": 62,
          "name": "D4",
          "ticks": 456720,
          "time": 368.321844,
          "velocity": 0.5511811023622047
        },
        {
          "duration": 0.12903199999999515,
          "durationTicks": 160,
          "midi": 63,
          "name": "D#4",
          "ticks": 456960,
          "time": 368.515392,
          "velocity": 0.5511811023622047
        },
        {
          "duration": 0.129032000000052,
          "durationTicks": 160,
          "midi": 58,
          "name": "A#3",
          "ticks": 457200,
          "time": 368.70894,
          "velocity": 0.5511811023622047
        },
        {
          "duration": 0.12903199999999515,
          "durationTicks": 160,
          "midi": 55,
          "name": "G3",
          "ticks": 457440,
          "time": 368.902488,
          "velocity": 0.5511811023622047
        },
        {
          "duration": 0.129032000000052,
          "durationTicks": 160,
          "midi": 51,
          "name": "D#3",
          "ticks": 457680,
          "time": 369.09603599999997,
          "velocity": 0.5511811023622047
        },
        {
          "duration": 0.12903199999999515,
          "durationTicks": 160,
          "midi": 56,
          "name": "G#3",
          "ticks": 457920,
          "time": 369.289584,
          "velocity": 0.5511811023622047
        },
        {
          "duration": 0.12903199999999515,
          "durationTicks": 160,
          "midi": 53,
          "name": "F3",
          "ticks": 458160,
          "time": 369.483132,
          "velocity": 0.5511811023622047
        },
        {
          "duration": 0.129032000000052,
          "durationTicks": 160,
          "midi": 50,
          "name": "D3",
          "ticks": 458400,
          "time": 369.67668,
          "velocity": 0.5511811023622047
        },
        {
          "duration": 0.12903199999999515,
          "durationTicks": 160,
          "midi": 62,
          "name": "D4",
          "ticks": 458640,
          "time": 369.870228,
          "velocity": 0.5511811023622047
        },
        {
          "duration": 0.12903199999999515,
          "durationTicks": 160,
          "midi": 63,
          "name": "D#4",
          "ticks": 458880,
          "time": 370.063776,
          "velocity": 0.5511811023622047
        },
        {
          "duration": 0.19354800000002115,
          "durationTicks": 240,
          "midi": 65,
          "name": "F4",
          "ticks": 459120,
          "time": 370.257324,
          "velocity": 0.7086614173228346
        },
        {
          "duration": 0.1935479999999643,
          "durationTicks": 240,
          "midi": 63,
          "name": "D#4",
          "ticks": 459360,
          "time": 370.450872,
          "velocity": 0.7086614173228346
        },
        {
          "duration": 0.19354800000002115,
          "durationTicks": 240,
          "midi": 60,
          "name": "C4",
          "ticks": 459600,
          "time": 370.64441999999997,
          "velocity": 0.7086614173228346
        },
        {
          "duration": 0.12903199999999515,
          "durationTicks": 160,
          "midi": 58,
          "name": "A#3",
          "ticks": 459840,
          "time": 370.837968,
          "velocity": 0.7086614173228346
        },
        {
          "duration": 0.12903199999999515,
          "durationTicks": 160,
          "midi": 58,
          "name": "A#3",
          "ticks": 460080,
          "time": 371.031516,
          "velocity": 0.7086614173228346
        },
        {
          "duration": 0.129032000000052,
          "durationTicks": 160,
          "midi": 58,
          "name": "A#3",
          "ticks": 460320,
          "time": 371.225064,
          "velocity": 0.7086614173228346
        },
        {
          "duration": 0.12903199999999515,
          "durationTicks": 160,
          "midi": 58,
          "name": "A#3",
          "ticks": 460560,
          "time": 371.418612,
          "velocity": 0.7086614173228346
        },
        {
          "duration": 0.12903199999999515,
          "durationTicks": 160,
          "midi": 58,
          "name": "A#3",
          "ticks": 460800,
          "time": 371.61216,
          "velocity": 0.7086614173228346
        },
        {
          "duration": 0.129032000000052,
          "durationTicks": 160,
          "midi": 58,
          "name": "A#3",
          "ticks": 461040,
          "time": 371.805708,
          "velocity": 0.7086614173228346
        },
        {
          "duration": 0.12903199999999515,
          "durationTicks": 160,
          "midi": 58,
          "name": "A#3",
          "ticks": 461280,
          "time": 371.999256,
          "velocity": 0.7086614173228346
        },
        {
          "duration": 0.12903199999999515,
          "durationTicks": 160,
          "midi": 58,
          "name": "A#3",
          "ticks": 461520,
          "time": 372.192804,
          "velocity": 0.7086614173228346
        },
        {
          "duration": 0.12903199999999515,
          "durationTicks": 160,
          "midi": 58,
          "name": "A#3",
          "ticks": 461760,
          "time": 372.386352,
          "velocity": 0.7086614173228346
        },
        {
          "duration": 0.129032000000052,
          "durationTicks": 160,
          "midi": 60,
          "name": "C4",
          "ticks": 486240,
          "time": 392.128248,
          "velocity": 0.31496062992125984
        },
        {
          "duration": 0.129032000000052,
          "durationTicks": 160,
          "midi": 64,
          "name": "E4",
          "ticks": 486240,
          "time": 392.128248,
          "velocity": 0.31496062992125984
        },
        {
          "duration": 0.12903199999999515,
          "durationTicks": 160,
          "midi": 60,
          "name": "C4",
          "ticks": 487200,
          "time": 392.90244,
          "velocity": 0.31496062992125984
        },
        {
          "duration": 0.12903199999999515,
          "durationTicks": 160,
          "midi": 65,
          "name": "F4",
          "ticks": 487200,
          "time": 392.90244,
          "velocity": 0.31496062992125984
        },
        {
          "duration": 0.129032000000052,
          "durationTicks": 160,
          "midi": 58,
          "name": "A#3",
          "ticks": 488160,
          "time": 393.676632,
          "velocity": 0.31496062992125984
        },
        {
          "duration": 0.129032000000052,
          "durationTicks": 160,
          "midi": 62,
          "name": "D4",
          "ticks": 488160,
          "time": 393.676632,
          "velocity": 0.31496062992125984
        },
        {
          "duration": 0.12903199999999515,
          "durationTicks": 160,
          "midi": 58,
          "name": "A#3",
          "ticks": 489120,
          "time": 394.450824,
          "velocity": 0.31496062992125984
        },
        {
          "duration": 0.12903199999999515,
          "durationTicks": 160,
          "midi": 63,
          "name": "D#4",
          "ticks": 489120,
          "time": 394.450824,
          "velocity": 0.31496062992125984
        },
        {
          "duration": 0.129032000000052,
          "durationTicks": 160,
          "midi": 60,
          "name": "C4",
          "ticks": 490080,
          "time": 395.225016,
          "velocity": 0.31496062992125984
        },
        {
          "duration": 0.12903199999999515,
          "durationTicks": 160,
          "midi": 62,
          "name": "D4",
          "ticks": 491040,
          "time": 395.999208,
          "velocity": 0.31496062992125984
        },
        {
          "duration": 3.9916666666666742,
          "durationTicks": 1916,
          "midi": 63,
          "name": "D#4",
          "ticks": 491520,
          "time": 396.386304,
          "velocity": 0.31496062992125984
        },
        {
          "duration": 3.9583333333333144,
          "durationTicks": 1900,
          "midi": 62,
          "name": "D4",
          "ticks": 493440,
          "time": 400.386304,
          "velocity": 0.31496062992125984
        },
        {
          "duration": 3.9583333333333144,
          "durationTicks": 1900,
          "midi": 63,
          "name": "D#4",
          "ticks": 495360,
          "time": 404.386304,
          "velocity": 0.31496062992125984
        },
        {
          "duration": 0.9916666666666742,
          "durationTicks": 476,
          "midi": 62,
          "name": "D4",
          "ticks": 497280,
          "time": 408.386304,
          "velocity": 0.31496062992125984
        },
        {
          "duration": 0.16666666666668561,
          "durationTicks": 80,
          "midi": 62,
          "name": "D4",
          "ticks": 498120,
          "time": 410.136304,
          "velocity": 0.5905511811023622
        },
        {
          "duration": 0.4583333333333144,
          "durationTicks": 220,
          "midi": 62,
          "name": "D4",
          "ticks": 498240,
          "time": 410.386304,
          "velocity": 0.5905511811023622
        },
        {
          "duration": 0.16666666666668561,
          "durationTicks": 80,
          "midi": 62,
          "name": "D4",
          "ticks": 498600,
          "time": 411.136304,
          "velocity": 0.5905511811023622
        },
        {
          "duration": 0.4583333333333144,
          "durationTicks": 220,
          "midi": 62,
          "name": "D4",
          "ticks": 498720,
          "time": 411.386304,
          "velocity": 0.5905511811023622
        },
        {
          "duration": 0.16666666666668561,
          "durationTicks": 80,
          "midi": 62,
          "name": "D4",
          "ticks": 499080,
          "time": 412.136304,
          "velocity": 0.5905511811023622
        },
        {
          "duration": 0.9916666666666742,
          "durationTicks": 476,
          "midi": 62,
          "name": "D4",
          "ticks": 499200,
          "time": 412.386304,
          "velocity": 0.5905511811023622
        },
        {
          "duration": 0.16666666666668561,
          "durationTicks": 80,
          "midi": 62,
          "name": "D4",
          "ticks": 500040,
          "time": 414.136304,
          "velocity": 0.5905511811023622
        },
        {
          "duration": 0.4583333333333144,
          "durationTicks": 220,
          "midi": 62,
          "name": "D4",
          "ticks": 500160,
          "time": 414.386304,
          "velocity": 0.5905511811023622
        },
        {
          "duration": 0.16666666666668561,
          "durationTicks": 80,
          "midi": 62,
          "name": "D4",
          "ticks": 500520,
          "time": 415.136304,
          "velocity": 0.5905511811023622
        },
        {
          "duration": 0.4583333333333144,
          "durationTicks": 220,
          "midi": 62,
          "name": "D4",
          "ticks": 500640,
          "time": 415.386304,
          "velocity": 0.5905511811023622
        },
        {
          "duration": 0.16666666666668561,
          "durationTicks": 80,
          "midi": 62,
          "name": "D4",
          "ticks": 501000,
          "time": 416.136304,
          "velocity": 0.5905511811023622
        },
        {
          "duration": 1.6041666666666856,
          "durationTicks": 770,
          "midi": 62,
          "name": "D4",
          "ticks": 501120,
          "time": 416.386304,
          "velocity": 0.5905511811023622
        },
        {
          "duration": 1.9916666666666742,
          "durationTicks": 956,
          "midi": 62,
          "name": "D4",
          "ticks": 502080,
          "time": 418.386304,
          "velocity": 0.5905511811023622
        },
        {
          "duration": 0.16666666666662877,
          "durationTicks": 160,
          "midi": 58,
          "name": "A#3",
          "ticks": 504720,
          "time": 423.3446373333334,
          "velocity": 0.31496062992125984
        },
        {
          "duration": 0.16666666666662877,
          "durationTicks": 160,
          "midi": 58,
          "name": "A#3",
          "ticks": 504960,
          "time": 423.5946373333334,
          "velocity": 0.31496062992125984
        },
        {
          "duration": 0.16666666666662877,
          "durationTicks": 160,
          "midi": 58,
          "name": "A#3",
          "ticks": 505200,
          "time": 423.8446373333334,
          "velocity": 0.31496062992125984
        },
        {
          "duration": 0.16666666666662877,
          "durationTicks": 160,
          "midi": 58,
          "name": "A#3",
          "ticks": 505440,
          "time": 424.0946373333334,
          "velocity": 0.31496062992125984
        },
        {
          "duration": 0.16666666666662877,
          "durationTicks": 160,
          "midi": 58,
          "name": "A#3",
          "ticks": 505680,
          "time": 424.3446373333334,
          "velocity": 0.31496062992125984
        },
        {
          "duration": 0.16666666666662877,
          "durationTicks": 160,
          "midi": 58,
          "name": "A#3",
          "ticks": 506160,
          "time": 424.8446373333334,
          "velocity": 0.31496062992125984
        },
        {
          "duration": 0.16666666666662877,
          "durationTicks": 160,
          "midi": 58,
          "name": "A#3",
          "ticks": 506400,
          "time": 425.0946373333334,
          "velocity": 0.31496062992125984
        },
        {
          "duration": 0.16666666666662877,
          "durationTicks": 160,
          "midi": 58,
          "name": "A#3",
          "ticks": 506640,
          "time": 425.3446373333334,
          "velocity": 0.31496062992125984
        },
        {
          "duration": 0.16666666666662877,
          "durationTicks": 160,
          "midi": 58,
          "name": "A#3",
          "ticks": 506880,
          "time": 425.5946373333334,
          "velocity": 0.31496062992125984
        },
        {
          "duration": 0.16666666666662877,
          "durationTicks": 160,
          "midi": 58,
          "name": "A#3",
          "ticks": 507120,
          "time": 425.8446373333334,
          "velocity": 0.31496062992125984
        },
        {
          "duration": 0.16666666666662877,
          "durationTicks": 160,
          "midi": 58,
          "name": "A#3",
          "ticks": 507600,
          "time": 426.3446373333334,
          "velocity": 0.31496062992125984
        },
        {
          "duration": 0.16666666666662877,
          "durationTicks": 160,
          "midi": 58,
          "name": "A#3",
          "ticks": 507840,
          "time": 426.5946373333334,
          "velocity": 0.31496062992125984
        },
        {
          "duration": 0.16666666666662877,
          "durationTicks": 160,
          "midi": 60,
          "name": "C4",
          "ticks": 508320,
          "time": 427.0946373333334,
          "velocity": 0.31496062992125984
        },
        {
          "duration": 0.16666666666662877,
          "durationTicks": 160,
          "midi": 60,
          "name": "C4",
          "ticks": 508560,
          "time": 427.3446373333334,
          "velocity": 0.31496062992125984
        },
        {
          "duration": 0.5,
          "durationTicks": 480,
          "midi": 62,
          "name": "D4",
          "ticks": 508800,
          "time": 427.5946373333334,
          "velocity": 0.31496062992125984
        },
        {
          "duration": 0.25,
          "durationTicks": 240,
          "midi": 60,
          "name": "C4",
          "ticks": 509280,
          "time": 428.0946373333334,
          "velocity": 0.31496062992125984
        },
        {
          "duration": 0.3020833333333144,
          "durationTicks": 290,
          "midi": 58,
          "name": "A#3",
          "ticks": 509520,
          "time": 428.3446373333334,
          "velocity": 0.31496062992125984
        },
        {
          "duration": 0.16666666666662877,
          "durationTicks": 160,
          "midi": 62,
          "name": "D4",
          "ticks": 510000,
          "time": 428.8446373333334,
          "velocity": 0.31496062992125984
        },
        {
          "duration": 0.75,
          "durationTicks": 720,
          "midi": 64,
          "name": "E4",
          "ticks": 510240,
          "time": 429.0946373333334,
          "velocity": 0.31496062992125984
        },
        {
          "duration": 0.703125,
          "durationTicks": 675,
          "midi": 65,
          "name": "F4",
          "ticks": 510960,
          "time": 429.8446373333334,
          "velocity": 0.31496062992125984
        },
        {
          "duration": 0.75,
          "durationTicks": 720,
          "midi": 62,
          "name": "D4",
          "ticks": 511680,
          "time": 430.5946373333334,
          "velocity": 0.31496062992125984
        },
        {
          "duration": 0.703125,
          "durationTicks": 675,
          "midi": 63,
          "name": "D#4",
          "ticks": 512400,
          "time": 431.3446373333334,
          "velocity": 0.31496062992125984
        },
        {
          "duration": 0.47916666666662877,
          "durationTicks": 460,
          "midi": 65,
          "name": "F4",
          "ticks": 513120,
          "time": 432.0946373333334,
          "velocity": 0.31496062992125984
        },
        {
          "duration": 0.47916666666662877,
          "durationTicks": 460,
          "midi": 65,
          "name": "F4",
          "ticks": 513840,
          "time": 432.8446373333334,
          "velocity": 0.31496062992125984
        },
        {
          "duration": 0.16666666666662877,
          "durationTicks": 160,
          "midi": 63,
          "name": "D#4",
          "ticks": 514560,
          "time": 433.5946373333334,
          "velocity": 0.5511811023622047
        },
        {
          "duration": 0.16666666666662877,
          "durationTicks": 160,
          "midi": 63,
          "name": "D#4",
          "ticks": 514800,
          "time": 433.8446373333334,
          "velocity": 0.5511811023622047
        },
        {
          "duration": 0.16666666666662877,
          "durationTicks": 160,
          "midi": 63,
          "name": "D#4",
          "ticks": 515040,
          "time": 434.0946373333334,
          "velocity": 0.5511811023622047
        },
        {
          "duration": 0.41666666666662877,
          "durationTicks": 400,
          "midi": 63,
          "name": "D#4",
          "ticks": 515280,
          "time": 434.3446373333334,
          "velocity": 0.5511811023622047
        },
        {
          "duration": 0.16666666666662877,
          "durationTicks": 160,
          "midi": 59,
          "name": "B3",
          "ticks": 516240,
          "time": 435.3446373333334,
          "velocity": 0.31496062992125984
        },
        {
          "duration": 0.16666666666662877,
          "durationTicks": 160,
          "midi": 59,
          "name": "B3",
          "ticks": 516480,
          "time": 435.5946373333334,
          "velocity": 0.31496062992125984
        },
        {
          "duration": 0.16666666666662877,
          "durationTicks": 160,
          "midi": 59,
          "name": "B3",
          "ticks": 516960,
          "time": 436.0946373333334,
          "velocity": 0.31496062992125984
        },
        {
          "duration": 0.16666666666662877,
          "durationTicks": 160,
          "midi": 59,
          "name": "B3",
          "ticks": 517200,
          "time": 436.3446373333334,
          "velocity": 0.31496062992125984
        },
        {
          "duration": 0.16666666666662877,
          "durationTicks": 160,
          "midi": 60,
          "name": "C4",
          "ticks": 517680,
          "time": 436.8446373333334,
          "velocity": 0.31496062992125984
        },
        {
          "duration": 0.16666666666662877,
          "durationTicks": 160,
          "midi": 60,
          "name": "C4",
          "ticks": 517920,
          "time": 437.0946373333334,
          "velocity": 0.31496062992125984
        },
        {
          "duration": 0.17708333333331439,
          "durationTicks": 170,
          "midi": 60,
          "name": "C4",
          "ticks": 518160,
          "time": 437.3446373333334,
          "velocity": 0.31496062992125984
        },
        {
          "duration": 0.16666666666662877,
          "durationTicks": 160,
          "midi": 57,
          "name": "A3",
          "ticks": 519120,
          "time": 438.3446373333334,
          "velocity": 0.31496062992125984
        },
        {
          "duration": 0.16666666666662877,
          "durationTicks": 160,
          "midi": 57,
          "name": "A3",
          "ticks": 519360,
          "time": 438.5946373333334,
          "velocity": 0.31496062992125984
        },
        {
          "duration": 0.16666666666662877,
          "durationTicks": 160,
          "midi": 57,
          "name": "A3",
          "ticks": 519840,
          "time": 439.0946373333334,
          "velocity": 0.31496062992125984
        },
        {
          "duration": 0.16666666666662877,
          "durationTicks": 160,
          "midi": 57,
          "name": "A3",
          "ticks": 520080,
          "time": 439.3446373333334,
          "velocity": 0.31496062992125984
        },
        {
          "duration": 0.16666666666662877,
          "durationTicks": 160,
          "midi": 58,
          "name": "A#3",
          "ticks": 520560,
          "time": 439.8446373333334,
          "velocity": 0.31496062992125984
        },
        {
          "duration": 0.16666666666662877,
          "durationTicks": 160,
          "midi": 58,
          "name": "A#3",
          "ticks": 520800,
          "time": 440.0946373333334,
          "velocity": 0.31496062992125984
        },
        {
          "duration": 0.17708333333331439,
          "durationTicks": 170,
          "midi": 58,
          "name": "A#3",
          "ticks": 521040,
          "time": 440.3446373333334,
          "velocity": 0.31496062992125984
        },
        {
          "duration": 0.203125,
          "durationTicks": 195,
          "midi": 62,
          "name": "D4",
          "ticks": 521520,
          "time": 440.8446373333334,
          "velocity": 0.31496062992125984
        },
        {
          "duration": 0.75,
          "durationTicks": 720,
          "midi": 64,
          "name": "E4",
          "ticks": 521760,
          "time": 441.0946373333334,
          "velocity": 0.31496062992125984
        },
        {
          "duration": 0.703125,
          "durationTicks": 675,
          "midi": 65,
          "name": "F4",
          "ticks": 522480,
          "time": 441.8446373333334,
          "velocity": 0.31496062992125984
        },
        {
          "duration": 0.75,
          "durationTicks": 720,
          "midi": 62,
          "name": "D4",
          "ticks": 523200,
          "time": 442.5946373333334,
          "velocity": 0.31496062992125984
        },
        {
          "duration": 0.703125,
          "durationTicks": 675,
          "midi": 63,
          "name": "D#4",
          "ticks": 523920,
          "time": 443.3446373333334,
          "velocity": 0.31496062992125984
        },
        {
          "duration": 0.47916666666662877,
          "durationTicks": 460,
          "midi": 65,
          "name": "F4",
          "ticks": 524640,
          "time": 444.0946373333334,
          "velocity": 0.31496062992125984
        },
        {
          "duration": 0.47916666666662877,
          "durationTicks": 460,
          "midi": 65,
          "name": "F4",
          "ticks": 525360,
          "time": 444.8446373333334,
          "velocity": 0.31496062992125984
        },
        {
          "duration": 0.41666666666662877,
          "durationTicks": 400,
          "midi": 63,
          "name": "D#4",
          "ticks": 526080,
          "time": 445.5946373333334,
          "velocity": 0.31496062992125984
        },
        {
          "duration": 1.1666666666666288,
          "durationTicks": 1120,
          "midi": 72,
          "name": "C5",
          "ticks": 527520,
          "time": 447.0946373333334,
          "velocity": 0.31496062992125984
        },
        {
          "duration": 1.1666666666666288,
          "durationTicks": 1120,
          "midi": 70,
          "name": "A#4",
          "ticks": 528960,
          "time": 448.5946373333334,
          "velocity": 0.31496062992125984
        },
        {
          "duration": 0.16666666666662877,
          "durationTicks": 160,
          "midi": 68,
          "name": "G#4",
          "ticks": 530400,
          "time": 450.0946373333334,
          "velocity": 0.31496062992125984
        },
        {
          "duration": 0.16666666666662877,
          "durationTicks": 160,
          "midi": 56,
          "name": "G#3",
          "ticks": 530640,
          "time": 450.3446373333334,
          "velocity": 0.31496062992125984
        },
        {
          "duration": 0.16666666666662877,
          "durationTicks": 160,
          "midi": 56,
          "name": "G#3",
          "ticks": 530880,
          "time": 450.5946373333334,
          "velocity": 0.31496062992125984
        },
        {
          "duration": 0.16666666666662877,
          "durationTicks": 160,
          "midi": 58,
          "name": "A#3",
          "ticks": 531120,
          "time": 450.8446373333334,
          "velocity": 0.31496062992125984
        },
        {
          "duration": 0.16666666666662877,
          "durationTicks": 160,
          "midi": 58,
          "name": "A#3",
          "ticks": 531360,
          "time": 451.0946373333334,
          "velocity": 0.31496062992125984
        },
        {
          "duration": 0.16666666666662877,
          "durationTicks": 160,
          "midi": 58,
          "name": "A#3",
          "ticks": 531600,
          "time": 451.3446373333334,
          "velocity": 0.31496062992125984
        },
        {
          "duration": 0.16666666666662877,
          "durationTicks": 160,
          "midi": 60,
          "name": "C4",
          "ticks": 531840,
          "time": 451.5946373333334,
          "velocity": 0.31496062992125984
        },
        {
          "duration": 0.16666666666662877,
          "durationTicks": 160,
          "midi": 60,
          "name": "C4",
          "ticks": 532080,
          "time": 451.8446373333334,
          "velocity": 0.31496062992125984
        },
        {
          "duration": 0.16666666666662877,
          "durationTicks": 160,
          "midi": 60,
          "name": "C4",
          "ticks": 532320,
          "time": 452.0946373333334,
          "velocity": 0.31496062992125984
        },
        {
          "duration": 0.16666666666662877,
          "durationTicks": 160,
          "midi": 58,
          "name": "A#3",
          "ticks": 532560,
          "time": 452.3446373333334,
          "velocity": 0.31496062992125984
        },
        {
          "duration": 0.16666666666662877,
          "durationTicks": 160,
          "midi": 58,
          "name": "A#3",
          "ticks": 532800,
          "time": 452.5946373333334,
          "velocity": 0.31496062992125984
        },
        {
          "duration": 0.16666666666662877,
          "durationTicks": 160,
          "midi": 58,
          "name": "A#3",
          "ticks": 533040,
          "time": 452.8446373333334,
          "velocity": 0.31496062992125984
        },
        {
          "duration": 0.16666666666662877,
          "durationTicks": 160,
          "midi": 60,
          "name": "C4",
          "ticks": 533280,
          "time": 453.0946373333334,
          "velocity": 0.6299212598425197
        },
        {
          "duration": 0.16666666666662877,
          "durationTicks": 160,
          "midi": 60,
          "name": "C4",
          "ticks": 533520,
          "time": 453.3446373333334,
          "velocity": 0.6299212598425197
        },
        {
          "duration": 0.16666666666662877,
          "durationTicks": 160,
          "midi": 60,
          "name": "C4",
          "ticks": 533760,
          "time": 453.5946373333334,
          "velocity": 0.6299212598425197
        },
        {
          "duration": 0.16666666666662877,
          "durationTicks": 160,
          "midi": 60,
          "name": "C4",
          "ticks": 534000,
          "time": 453.8446373333334,
          "velocity": 0.6299212598425197
        },
        {
          "duration": 0.16666666666662877,
          "durationTicks": 160,
          "midi": 60,
          "name": "C4",
          "ticks": 534240,
          "time": 454.0946373333334,
          "velocity": 0.6299212598425197
        },
        {
          "duration": 0.16666666666662877,
          "durationTicks": 160,
          "midi": 60,
          "name": "C4",
          "ticks": 534480,
          "time": 454.3446373333334,
          "velocity": 0.6299212598425197
        },
        {
          "duration": 0.16666666666662877,
          "durationTicks": 160,
          "midi": 58,
          "name": "A#3",
          "ticks": 534720,
          "time": 454.5946373333334,
          "velocity": 0.6299212598425197
        },
        {
          "duration": 0.16666666666662877,
          "durationTicks": 160,
          "midi": 53,
          "name": "F3",
          "ticks": 536160,
          "time": 456.0946373333334,
          "velocity": 0.31496062992125984
        },
        {
          "duration": 0.16666666666662877,
          "durationTicks": 160,
          "midi": 53,
          "name": "F3",
          "ticks": 536400,
          "time": 456.3446373333334,
          "velocity": 0.31496062992125984
        },
        {
          "duration": 0.16666666666662877,
          "durationTicks": 160,
          "midi": 53,
          "name": "F3",
          "ticks": 536640,
          "time": 456.5946373333334,
          "velocity": 0.31496062992125984
        },
        {
          "duration": 0.16666666666662877,
          "durationTicks": 160,
          "midi": 53,
          "name": "F3",
          "ticks": 536880,
          "time": 456.8446373333334,
          "velocity": 0.31496062992125984
        },
        {
          "duration": 0.16666666666662877,
          "durationTicks": 160,
          "midi": 53,
          "name": "F3",
          "ticks": 537120,
          "time": 457.0946373333334,
          "velocity": 0.31496062992125984
        },
        {
          "duration": 0.16666666666662877,
          "durationTicks": 160,
          "midi": 53,
          "name": "F3",
          "ticks": 537360,
          "time": 457.3446373333334,
          "velocity": 0.31496062992125984
        },
        {
          "duration": 0.16666666666662877,
          "durationTicks": 160,
          "midi": 51,
          "name": "D#3",
          "ticks": 537600,
          "time": 457.5946373333334,
          "velocity": 0.31496062992125984
        },
        {
          "duration": 0.16666666666662877,
          "durationTicks": 160,
          "midi": 51,
          "name": "D#3",
          "ticks": 537840,
          "time": 457.8446373333334,
          "velocity": 0.31496062992125984
        },
        {
          "duration": 0.16666666666662877,
          "durationTicks": 160,
          "midi": 51,
          "name": "D#3",
          "ticks": 538080,
          "time": 458.0946373333334,
          "velocity": 0.31496062992125984
        },
        {
          "duration": 0.16666666666662877,
          "durationTicks": 160,
          "midi": 51,
          "name": "D#3",
          "ticks": 538320,
          "time": 458.3446373333334,
          "velocity": 0.31496062992125984
        },
        {
          "duration": 0.16666666666662877,
          "durationTicks": 160,
          "midi": 51,
          "name": "D#3",
          "ticks": 538560,
          "time": 458.5946373333334,
          "velocity": 0.31496062992125984
        },
        {
          "duration": 0.16666666666662877,
          "durationTicks": 160,
          "midi": 51,
          "name": "D#3",
          "ticks": 538800,
          "time": 458.8446373333334,
          "velocity": 0.31496062992125984
        },
        {
          "duration": 0.16666666666662877,
          "durationTicks": 160,
          "midi": 53,
          "name": "F3",
          "ticks": 539040,
          "time": 459.0946373333334,
          "velocity": 0.31496062992125984
        },
        {
          "duration": 0.16666666666662877,
          "durationTicks": 160,
          "midi": 53,
          "name": "F3",
          "ticks": 539280,
          "time": 459.3446373333334,
          "velocity": 0.31496062992125984
        },
        {
          "duration": 0.16666666666662877,
          "durationTicks": 160,
          "midi": 53,
          "name": "F3",
          "ticks": 539520,
          "time": 459.5946373333334,
          "velocity": 0.31496062992125984
        },
        {
          "duration": 0.16666666666662877,
          "durationTicks": 160,
          "midi": 53,
          "name": "F3",
          "ticks": 539760,
          "time": 459.8446373333334,
          "velocity": 0.31496062992125984
        },
        {
          "duration": 0.16666666666662877,
          "durationTicks": 160,
          "midi": 53,
          "name": "F3",
          "ticks": 540000,
          "time": 460.0946373333334,
          "velocity": 0.31496062992125984
        },
        {
          "duration": 0.16666666666662877,
          "durationTicks": 160,
          "midi": 53,
          "name": "F3",
          "ticks": 540240,
          "time": 460.3446373333334,
          "velocity": 0.31496062992125984
        },
        {
          "duration": 0.16666666666662877,
          "durationTicks": 160,
          "midi": 51,
          "name": "D#3",
          "ticks": 540480,
          "time": 460.5946373333334,
          "velocity": 0.31496062992125984
        },
        {
          "duration": 0.16666666666662877,
          "durationTicks": 160,
          "midi": 51,
          "name": "D#3",
          "ticks": 540720,
          "time": 460.8446373333334,
          "velocity": 0.31496062992125984
        },
        {
          "duration": 0.16666666666662877,
          "durationTicks": 160,
          "midi": 51,
          "name": "D#3",
          "ticks": 540960,
          "time": 461.0946373333334,
          "velocity": 0.31496062992125984
        },
        {
          "duration": 0.16666666666662877,
          "durationTicks": 160,
          "midi": 51,
          "name": "D#3",
          "ticks": 541200,
          "time": 461.3446373333334,
          "velocity": 0.31496062992125984
        },
        {
          "duration": 0.16666666666662877,
          "durationTicks": 160,
          "midi": 51,
          "name": "D#3",
          "ticks": 541440,
          "time": 461.5946373333334,
          "velocity": 0.31496062992125984
        },
        {
          "duration": 0.16666666666662877,
          "durationTicks": 160,
          "midi": 51,
          "name": "D#3",
          "ticks": 541680,
          "time": 461.8446373333334,
          "velocity": 0.31496062992125984
        },
        {
          "duration": 0.16666666666662877,
          "durationTicks": 160,
          "midi": 53,
          "name": "F3",
          "ticks": 541920,
          "time": 462.0946373333334,
          "velocity": 0.31496062992125984
        },
        {
          "duration": 0.16666666666662877,
          "durationTicks": 160,
          "midi": 53,
          "name": "F3",
          "ticks": 542160,
          "time": 462.3446373333334,
          "velocity": 0.31496062992125984
        },
        {
          "duration": 0.16666666666662877,
          "durationTicks": 160,
          "midi": 53,
          "name": "F3",
          "ticks": 542640,
          "time": 462.8446373333334,
          "velocity": 0.31496062992125984
        },
        {
          "duration": 0.16666666666662877,
          "durationTicks": 160,
          "midi": 53,
          "name": "F3",
          "ticks": 542880,
          "time": 463.0946373333334,
          "velocity": 0.31496062992125984
        },
        {
          "duration": 0.16666666666662877,
          "durationTicks": 160,
          "midi": 53,
          "name": "F3",
          "ticks": 543360,
          "time": 463.5946373333334,
          "velocity": 0.31496062992125984
        },
        {
          "duration": 0.16666666666662877,
          "durationTicks": 160,
          "midi": 53,
          "name": "F3",
          "ticks": 543600,
          "time": 463.8446373333334,
          "velocity": 0.31496062992125984
        },
        {
          "duration": 0.16666666666662877,
          "durationTicks": 160,
          "midi": 53,
          "name": "F3",
          "ticks": 544080,
          "time": 464.3446373333334,
          "velocity": 0.31496062992125984
        },
        {
          "duration": 0.16666666666662877,
          "durationTicks": 160,
          "midi": 53,
          "name": "F3",
          "ticks": 544320,
          "time": 464.5946373333334,
          "velocity": 0.31496062992125984
        },
        {
          "duration": 1.4875000000000114,
          "durationTicks": 476,
          "midi": 62,
          "name": "D4",
          "ticks": 546240,
          "time": 466.98921325000003,
          "velocity": 0.31496062992125984
        },
        {
          "duration": 0.16666666666668561,
          "durationTicks": 160,
          "midi": 58,
          "name": "A#3",
          "ticks": 547920,
          "time": 471.73921325000003,
          "velocity": 0.31496062992125984
        },
        {
          "duration": 0.16666666666668561,
          "durationTicks": 160,
          "midi": 58,
          "name": "A#3",
          "ticks": 548160,
          "time": 471.98921325000003,
          "velocity": 0.31496062992125984
        },
        {
          "duration": 0.16666666666668561,
          "durationTicks": 160,
          "midi": 58,
          "name": "A#3",
          "ticks": 548400,
          "time": 472.23921325000003,
          "velocity": 0.31496062992125984
        },
        {
          "duration": 0.16666666666668561,
          "durationTicks": 160,
          "midi": 58,
          "name": "A#3",
          "ticks": 548640,
          "time": 472.48921325000003,
          "velocity": 0.31496062992125984
        },
        {
          "duration": 0.16666666666668561,
          "durationTicks": 160,
          "midi": 58,
          "name": "A#3",
          "ticks": 548880,
          "time": 472.73921325000003,
          "velocity": 0.31496062992125984
        },
        {
          "duration": 0.16666666666668561,
          "durationTicks": 160,
          "midi": 56,
          "name": "G#3",
          "ticks": 549360,
          "time": 473.23921325000003,
          "velocity": 0.31496062992125984
        },
        {
          "duration": 0.16666666666668561,
          "durationTicks": 160,
          "midi": 56,
          "name": "G#3",
          "ticks": 549600,
          "time": 473.48921325000003,
          "velocity": 0.31496062992125984
        },
        {
          "duration": 0.16666666666668561,
          "durationTicks": 160,
          "midi": 56,
          "name": "G#3",
          "ticks": 549840,
          "time": 473.73921325000003,
          "velocity": 0.31496062992125984
        },
        {
          "duration": 0.16666666666668561,
          "durationTicks": 160,
          "midi": 56,
          "name": "G#3",
          "ticks": 550080,
          "time": 473.98921325000003,
          "velocity": 0.31496062992125984
        },
        {
          "duration": 0.16666666666668561,
          "durationTicks": 160,
          "midi": 56,
          "name": "G#3",
          "ticks": 550320,
          "time": 474.23921325000003,
          "velocity": 0.31496062992125984
        },
        {
          "duration": 0.16666666666668561,
          "durationTicks": 160,
          "midi": 55,
          "name": "G3",
          "ticks": 550800,
          "time": 474.73921325000003,
          "velocity": 0.31496062992125984
        },
        {
          "duration": 0.16666666666668561,
          "durationTicks": 160,
          "midi": 55,
          "name": "G3",
          "ticks": 551040,
          "time": 474.98921325000003,
          "velocity": 0.31496062992125984
        },
        {
          "duration": 0.16666666666668561,
          "durationTicks": 160,
          "midi": 55,
          "name": "G3",
          "ticks": 551280,
          "time": 475.23921325000003,
          "velocity": 0.31496062992125984
        },
        {
          "duration": 0.16666666666668561,
          "durationTicks": 160,
          "midi": 55,
          "name": "G3",
          "ticks": 551520,
          "time": 475.48921325000003,
          "velocity": 0.31496062992125984
        },
        {
          "duration": 0.16666666666668561,
          "durationTicks": 160,
          "midi": 55,
          "name": "G3",
          "ticks": 551760,
          "time": 475.73921325000003,
          "velocity": 0.31496062992125984
        },
        {
          "duration": 0.16666666666668561,
          "durationTicks": 160,
          "midi": 59,
          "name": "B3",
          "ticks": 552240,
          "time": 476.23921325000003,
          "velocity": 0.31496062992125984
        },
        {
          "duration": 0.16666666666668561,
          "durationTicks": 160,
          "midi": 62,
          "name": "D4",
          "ticks": 552240,
          "time": 476.23921325000003,
          "velocity": 0.31496062992125984
        },
        {
          "duration": 0.16666666666668561,
          "durationTicks": 160,
          "midi": 59,
          "name": "B3",
          "ticks": 552480,
          "time": 476.48921325000003,
          "velocity": 0.31496062992125984
        },
        {
          "duration": 0.16666666666668561,
          "durationTicks": 160,
          "midi": 62,
          "name": "D4",
          "ticks": 552480,
          "time": 476.48921325000003,
          "velocity": 0.31496062992125984
        },
        {
          "duration": 0.16666666666668561,
          "durationTicks": 160,
          "midi": 59,
          "name": "B3",
          "ticks": 552720,
          "time": 476.73921325000003,
          "velocity": 0.31496062992125984
        },
        {
          "duration": 0.16666666666668561,
          "durationTicks": 160,
          "midi": 62,
          "name": "D4",
          "ticks": 552720,
          "time": 476.73921325000003,
          "velocity": 0.31496062992125984
        },
        {
          "duration": 0.16666666666668561,
          "durationTicks": 160,
          "midi": 59,
          "name": "B3",
          "ticks": 552960,
          "time": 476.98921325000003,
          "velocity": 0.31496062992125984
        },
        {
          "duration": 0.16666666666668561,
          "durationTicks": 160,
          "midi": 62,
          "name": "D4",
          "ticks": 552960,
          "time": 476.98921325000003,
          "velocity": 0.31496062992125984
        },
        {
          "duration": 0.16666666666668561,
          "durationTicks": 160,
          "midi": 59,
          "name": "B3",
          "ticks": 553200,
          "time": 477.23921325000003,
          "velocity": 0.31496062992125984
        },
        {
          "duration": 0.16666666666668561,
          "durationTicks": 160,
          "midi": 62,
          "name": "D4",
          "ticks": 553200,
          "time": 477.23921325000003,
          "velocity": 0.31496062992125984
        },
        {
          "duration": 0.16666666666668561,
          "durationTicks": 160,
          "midi": 60,
          "name": "C4",
          "ticks": 553680,
          "time": 477.73921325000003,
          "velocity": 0.31496062992125984
        },
        {
          "duration": 0.16666666666668561,
          "durationTicks": 160,
          "midi": 63,
          "name": "D#4",
          "ticks": 553680,
          "time": 477.73921325000003,
          "velocity": 0.31496062992125984
        },
        {
          "duration": 0.16666666666668561,
          "durationTicks": 160,
          "midi": 60,
          "name": "C4",
          "ticks": 553920,
          "time": 477.98921325000003,
          "velocity": 0.31496062992125984
        },
        {
          "duration": 0.16666666666668561,
          "durationTicks": 160,
          "midi": 63,
          "name": "D#4",
          "ticks": 553920,
          "time": 477.98921325000003,
          "velocity": 0.31496062992125984
        },
        {
          "duration": 0.16666666666668561,
          "durationTicks": 160,
          "midi": 60,
          "name": "C4",
          "ticks": 554160,
          "time": 478.23921325000003,
          "velocity": 0.31496062992125984
        },
        {
          "duration": 0.16666666666668561,
          "durationTicks": 160,
          "midi": 63,
          "name": "D#4",
          "ticks": 554160,
          "time": 478.23921325000003,
          "velocity": 0.31496062992125984
        },
        {
          "duration": 0.16666666666668561,
          "durationTicks": 160,
          "midi": 60,
          "name": "C4",
          "ticks": 554400,
          "time": 478.48921325000003,
          "velocity": 0.31496062992125984
        },
        {
          "duration": 0.16666666666668561,
          "durationTicks": 160,
          "midi": 63,
          "name": "D#4",
          "ticks": 554400,
          "time": 478.48921325000003,
          "velocity": 0.31496062992125984
        },
        {
          "duration": 0.16666666666668561,
          "durationTicks": 160,
          "midi": 60,
          "name": "C4",
          "ticks": 554640,
          "time": 478.73921325000003,
          "velocity": 0.31496062992125984
        },
        {
          "duration": 0.16666666666668561,
          "durationTicks": 160,
          "midi": 63,
          "name": "D#4",
          "ticks": 554640,
          "time": 478.73921325000003,
          "velocity": 0.31496062992125984
        },
        {
          "duration": 0.16666666666668561,
          "durationTicks": 160,
          "midi": 56,
          "name": "G#3",
          "ticks": 555120,
          "time": 479.23921325000003,
          "velocity": 0.31496062992125984
        },
        {
          "duration": 0.16666666666668561,
          "durationTicks": 160,
          "midi": 56,
          "name": "G#3",
          "ticks": 555360,
          "time": 479.48921325000003,
          "velocity": 0.31496062992125984
        },
        {
          "duration": 0.16666666666668561,
          "durationTicks": 160,
          "midi": 56,
          "name": "G#3",
          "ticks": 555600,
          "time": 479.73921325000003,
          "velocity": 0.31496062992125984
        },
        {
          "duration": 0.16666666666668561,
          "durationTicks": 160,
          "midi": 56,
          "name": "G#3",
          "ticks": 555840,
          "time": 479.98921325000003,
          "velocity": 0.31496062992125984
        },
        {
          "duration": 0.16666666666668561,
          "durationTicks": 160,
          "midi": 56,
          "name": "G#3",
          "ticks": 556080,
          "time": 480.23921325000003,
          "velocity": 0.31496062992125984
        },
        {
          "duration": 0.16666666666668561,
          "durationTicks": 160,
          "midi": 58,
          "name": "A#3",
          "ticks": 556560,
          "time": 480.73921325000003,
          "velocity": 0.31496062992125984
        },
        {
          "duration": 0.16666666666668561,
          "durationTicks": 160,
          "midi": 58,
          "name": "A#3",
          "ticks": 556800,
          "time": 480.98921325000003,
          "velocity": 0.31496062992125984
        },
        {
          "duration": 0.16666666666668561,
          "durationTicks": 160,
          "midi": 58,
          "name": "A#3",
          "ticks": 557040,
          "time": 481.23921325000003,
          "velocity": 0.31496062992125984
        },
        {
          "duration": 0.16666666666668561,
          "durationTicks": 160,
          "midi": 58,
          "name": "A#3",
          "ticks": 557280,
          "time": 481.48921325000003,
          "velocity": 0.31496062992125984
        },
        {
          "duration": 0.16666666666668561,
          "durationTicks": 160,
          "midi": 58,
          "name": "A#3",
          "ticks": 557520,
          "time": 481.73921325000003,
          "velocity": 0.31496062992125984
        },
        {
          "duration": 0.16666666666668561,
          "durationTicks": 160,
          "midi": 53,
          "name": "F3",
          "ticks": 558000,
          "time": 482.23921325000003,
          "velocity": 0.31496062992125984
        },
        {
          "duration": 0.16666666666668561,
          "durationTicks": 160,
          "midi": 53,
          "name": "F3",
          "ticks": 558240,
          "time": 482.48921325000003,
          "velocity": 0.31496062992125984
        },
        {
          "duration": 0.16666666666668561,
          "durationTicks": 160,
          "midi": 53,
          "name": "F3",
          "ticks": 558480,
          "time": 482.73921325000003,
          "velocity": 0.31496062992125984
        },
        {
          "duration": 0.16666666666668561,
          "durationTicks": 160,
          "midi": 53,
          "name": "F3",
          "ticks": 558720,
          "time": 482.98921325000003,
          "velocity": 0.31496062992125984
        },
        {
          "duration": 0.16666666666668561,
          "durationTicks": 160,
          "midi": 53,
          "name": "F3",
          "ticks": 558960,
          "time": 483.23921325000003,
          "velocity": 0.31496062992125984
        },
        {
          "duration": 0.14655168749999348,
          "durationTicks": 170,
          "midi": 58,
          "name": "A#3",
          "ticks": 562800,
          "time": 486.59266075000005,
          "velocity": 0.31496062992125984
        },
        {
          "duration": 0.14655168749999348,
          "durationTicks": 170,
          "midi": 58,
          "name": "A#3",
          "ticks": 563040,
          "time": 486.79955725,
          "velocity": 0.31496062992125984
        },
        {
          "duration": 0.14655168749999348,
          "durationTicks": 170,
          "midi": 58,
          "name": "A#3",
          "ticks": 563280,
          "time": 487.00645375000005,
          "velocity": 0.31496062992125984
        },
        {
          "duration": 0.20689650000002757,
          "durationTicks": 240,
          "midi": 58,
          "name": "A#3",
          "ticks": 563520,
          "time": 487.21335025,
          "velocity": 0.31496062992125984
        },
        {
          "duration": 0.14655168749999348,
          "durationTicks": 170,
          "midi": 58,
          "name": "A#3",
          "ticks": 563760,
          "time": 487.42024675000005,
          "velocity": 0.31496062992125984
        },
        {
          "duration": 0.14655168749999348,
          "durationTicks": 170,
          "midi": 58,
          "name": "A#3",
          "ticks": 564000,
          "time": 487.62714325,
          "velocity": 0.31496062992125984
        },
        {
          "duration": 0.20689649999997073,
          "durationTicks": 240,
          "midi": 58,
          "name": "A#3",
          "ticks": 564240,
          "time": 487.83403975000004,
          "velocity": 0.31496062992125984
        },
        {
          "duration": 0.14655168749999348,
          "durationTicks": 170,
          "midi": 58,
          "name": "A#3",
          "ticks": 564480,
          "time": 488.04093625,
          "velocity": 0.31496062992125984
        },
        {
          "duration": 0.14655168749999348,
          "durationTicks": 170,
          "midi": 58,
          "name": "A#3",
          "ticks": 564720,
          "time": 488.24783275000004,
          "velocity": 0.31496062992125984
        },
        {
          "duration": 0.13793100000003733,
          "durationTicks": 160,
          "midi": 58,
          "name": "A#3",
          "ticks": 564960,
          "time": 488.45472925,
          "velocity": 0.31496062992125984
        },
        {
          "duration": 0.13793099999998049,
          "durationTicks": 160,
          "midi": 56,
          "name": "G#3",
          "ticks": 567120,
          "time": 490.31679775000003,
          "velocity": 0.7086614173228346
        },
        {
          "duration": 0.13793099999998049,
          "durationTicks": 160,
          "midi": 62,
          "name": "D4",
          "ticks": 567120,
          "time": 490.31679775000003,
          "velocity": 0.7086614173228346
        },
        {
          "duration": 0.13793099999998049,
          "durationTicks": 160,
          "midi": 56,
          "name": "G#3",
          "ticks": 567360,
          "time": 490.52369425000006,
          "velocity": 0.7086614173228346
        },
        {
          "duration": 0.13793099999998049,
          "durationTicks": 160,
          "midi": 62,
          "name": "D4",
          "ticks": 567360,
          "time": 490.52369425000006,
          "velocity": 0.7086614173228346
        },
        {
          "duration": 0.13793099999998049,
          "durationTicks": 160,
          "midi": 56,
          "name": "G#3",
          "ticks": 567600,
          "time": 490.73059075000003,
          "velocity": 0.7086614173228346
        },
        {
          "duration": 0.13793099999998049,
          "durationTicks": 160,
          "midi": 62,
          "name": "D4",
          "ticks": 567600,
          "time": 490.73059075000003,
          "velocity": 0.7086614173228346
        },
        {
          "duration": 0.16810340624999753,
          "durationTicks": 195,
          "midi": 55,
          "name": "G3",
          "ticks": 567840,
          "time": 490.93748725000006,
          "velocity": 0.7086614173228346
        },
        {
          "duration": 0.16810340624999753,
          "durationTicks": 195,
          "midi": 63,
          "name": "D#4",
          "ticks": 567840,
          "time": 490.93748725000006,
          "velocity": 0.7086614173228346
        },
        {
          "duration": 0.13793100000003733,
          "durationTicks": 160,
          "midi": 56,
          "name": "G#3",
          "ticks": 570000,
          "time": 492.79955575,
          "velocity": 0.7086614173228346
        },
        {
          "duration": 0.13793100000003733,
          "durationTicks": 160,
          "midi": 62,
          "name": "D4",
          "ticks": 570000,
          "time": 492.79955575,
          "velocity": 0.7086614173228346
        },
        {
          "duration": 0.13793099999998049,
          "durationTicks": 160,
          "midi": 56,
          "name": "G#3",
          "ticks": 570240,
          "time": 493.00645225000005,
          "velocity": 0.7086614173228346
        },
        {
          "duration": 0.13793099999998049,
          "durationTicks": 160,
          "midi": 62,
          "name": "D4",
          "ticks": 570240,
          "time": 493.00645225000005,
          "velocity": 0.7086614173228346
        },
        {
          "duration": 0.13793100000003733,
          "durationTicks": 160,
          "midi": 56,
          "name": "G#3",
          "ticks": 570480,
          "time": 493.21334875,
          "velocity": 0.7086614173228346
        },
        {
          "duration": 0.13793100000003733,
          "durationTicks": 160,
          "midi": 62,
          "name": "D4",
          "ticks": 570480,
          "time": 493.21334875,
          "velocity": 0.7086614173228346
        },
        {
          "duration": 0.24999993749997884,
          "durationTicks": 290,
          "midi": 63,
          "name": "D#4",
          "ticks": 570720,
          "time": 493.42024525000005,
          "velocity": 0.7086614173228346
        },
        {
          "duration": 0.16810340624999753,
          "durationTicks": 195,
          "midi": 65,
          "name": "F4",
          "ticks": 571200,
          "time": 493.83403825000005,
          "velocity": 0.7086614173228346
        },
        {
          "duration": 0.24999993750003568,
          "durationTicks": 290,
          "midi": 63,
          "name": "D#4",
          "ticks": 571440,
          "time": 494.04093475,
          "velocity": 0.7086614173228346
        },
        {
          "duration": 0.16810340624999753,
          "durationTicks": 195,
          "midi": 65,
          "name": "F4",
          "ticks": 571920,
          "time": 494.45472775,
          "velocity": 0.7086614173228346
        },
        {
          "duration": 0.24999993749997884,
          "durationTicks": 290,
          "midi": 63,
          "name": "D#4",
          "ticks": 572160,
          "time": 494.66162425000005,
          "velocity": 0.7086614173228346
        },
        {
          "duration": 0.16810340624999753,
          "durationTicks": 195,
          "midi": 65,
          "name": "F4",
          "ticks": 572640,
          "time": 495.07541725000004,
          "velocity": 0.7086614173228346
        },
        {
          "duration": 0.24999993750003568,
          "durationTicks": 290,
          "midi": 63,
          "name": "D#4",
          "ticks": 572880,
          "time": 495.28231375,
          "velocity": 0.7086614173228346
        },
        {
          "duration": 0.16810340624999753,
          "durationTicks": 195,
          "midi": 65,
          "name": "F4",
          "ticks": 573360,
          "time": 495.69610675,
          "velocity": 0.7086614173228346
        },
        {
          "duration": 0.16810340624999753,
          "durationTicks": 195,
          "midi": 63,
          "name": "D#4",
          "ticks": 573600,
          "time": 495.90300325000004,
          "velocity": 0.7086614173228346
        }
      ]
    },
    {
      "channel": 0,
      "controlChanges": {},
      "pitchBends": [],
      "instrument": {
        "family": "piano",
        "number": 0,
        "name": "acoustic grand piano"
      },
      "name": "String Bass",
      "notes": [],
      "endOfTrackTicks": 575040
    },
    {
      "channel": 10,
      "controlChanges": {
        "7": [
          {
            "number": 7,
            "ticks": 0,
            "time": 0,
            "value": 0.7874015748031497
          }
        ],
        "10": [
          {
            "number": 10,
            "ticks": 0,
            "time": 0,
            "value": 0.7086614173228346
          }
        ],
        "91": [
          {
            "number": 91,
            "ticks": 0,
            "time": 0,
            "value": 0.5905511811023622
          }
        ]
      },
      "pitchBends": [],
      "instrument": {
        "family": "strings",
        "number": 45,
        "name": "pizzicato strings"
      },
      "name": "",
      "notes": [
        {
          "duration": 0.32257999999999987,
          "durationTicks": 400,
          "midi": 39,
          "name": "D#2",
          "ticks": 1920,
          "time": 1.548384,
          "velocity": 0.4330708661417323
        },
        {
          "duration": 0.32257999999999987,
          "durationTicks": 400,
          "midi": 39,
          "name": "D#2",
          "ticks": 3360,
          "time": 2.709672,
          "velocity": 0.4330708661417323
        },
        {
          "duration": 0.3225800000000003,
          "durationTicks": 400,
          "midi": 38,
          "name": "D2",
          "ticks": 3840,
          "time": 3.096768,
          "velocity": 0.4330708661417323
        },
        {
          "duration": 0.3225800000000003,
          "durationTicks": 400,
          "midi": 38,
          "name": "D2",
          "ticks": 5280,
          "time": 4.258056,
          "velocity": 0.4330708661417323
        },
        {
          "duration": 0.3225800000000003,
          "durationTicks": 400,
          "midi": 39,
          "name": "D#2",
          "ticks": 5760,
          "time": 4.6451519999999995,
          "velocity": 0.4330708661417323
        },
        {
          "duration": 0.3225800000000003,
          "durationTicks": 400,
          "midi": 39,
          "name": "D#2",
          "ticks": 6240,
          "time": 5.032248,
          "velocity": 0.4330708661417323
        },
        {
          "duration": 0.3225800000000003,
          "durationTicks": 400,
          "midi": 32,
          "name": "G#1",
          "ticks": 6720,
          "time": 5.419344,
          "velocity": 0.4330708661417323
        },
        {
          "duration": 0.3225800000000003,
          "durationTicks": 400,
          "midi": 32,
          "name": "G#1",
          "ticks": 7200,
          "time": 5.80644,
          "velocity": 0.4330708661417323
        },
        {
          "duration": 0.9032239999999998,
          "durationTicks": 1120,
          "midi": 34,
          "name": "A#1",
          "ticks": 7680,
          "time": 6.193536,
          "velocity": 0.4330708661417323
        },
        {
          "duration": 0.32257999999999853,
          "durationTicks": 400,
          "midi": 46,
          "name": "A#2",
          "ticks": 9600,
          "time": 7.74192,
          "velocity": 0.4330708661417323
        },
        {
          "duration": 0.3225800000000003,
          "durationTicks": 400,
          "midi": 44,
          "name": "G#2",
          "ticks": 10560,
          "time": 8.516112,
          "velocity": 0.4330708661417323
        },
        {
          "duration": 0.3225800000000003,
          "durationTicks": 400,
          "midi": 44,
          "name": "G#2",
          "ticks": 11520,
          "time": 9.290303999999999,
          "velocity": 0.4330708661417323
        },
        {
          "duration": 0.32257999999999853,
          "durationTicks": 400,
          "midi": 43,
          "name": "G2",
          "ticks": 12480,
          "time": 10.064496,
          "velocity": 0.4330708661417323
        },
        {
          "duration": 0.3225800000000003,
          "durationTicks": 400,
          "midi": 44,
          "name": "G#2",
          "ticks": 13440,
          "time": 10.838688,
          "velocity": 0.4330708661417323
        },
        {
          "duration": 0.32257999999999853,
          "durationTicks": 400,
          "midi": 46,
          "name": "A#2",
          "ticks": 14400,
          "time": 11.61288,
          "velocity": 0.4330708661417323
        },
        {
          "duration": 0.9032240000000016,
          "durationTicks": 1120,
          "midi": 39,
          "name": "D#2",
          "ticks": 15360,
          "time": 12.387072,
          "velocity": 0.4330708661417323
        },
        {
          "duration": 0.3225800000000021,
          "durationTicks": 400,
          "midi": 43,
          "name": "G2",
          "ticks": 18720,
          "time": 15.096744,
          "velocity": 0.4330708661417323
        },
        {
          "duration": 0.3225800000000003,
          "durationTicks": 400,
          "midi": 48,
          "name": "C3",
          "ticks": 19200,
          "time": 15.48384,
          "velocity": 0.4330708661417323
        },
        {
          "duration": 0.3225800000000021,
          "durationTicks": 400,
          "midi": 48,
          "name": "C3",
          "ticks": 19680,
          "time": 15.870936,
          "velocity": 0.4330708661417323
        },
        {
          "duration": 0.3225800000000021,
          "durationTicks": 400,
          "midi": 48,
          "name": "C3",
          "ticks": 20160,
          "time": 16.258032,
          "velocity": 0.4330708661417323
        },
        {
          "duration": 0.3225800000000021,
          "durationTicks": 400,
          "midi": 41,
          "name": "F2",
          "ticks": 22560,
          "time": 18.193512,
          "velocity": 0.4330708661417323
        },
        {
          "duration": 0.3225800000000021,
          "durationTicks": 400,
          "midi": 46,
          "name": "A#2",
          "ticks": 23040,
          "time": 18.580607999999998,
          "velocity": 0.4330708661417323
        },
        {
          "duration": 0.32257999999999853,
          "durationTicks": 400,
          "midi": 46,
          "name": "A#2",
          "ticks": 23520,
          "time": 18.967704,
          "velocity": 0.4330708661417323
        },
        {
          "duration": 0.32257999999999853,
          "durationTicks": 400,
          "midi": 46,
          "name": "A#2",
          "ticks": 24000,
          "time": 19.3548,
          "velocity": 0.4330708661417323
        },
        {
          "duration": 0.3225800000000021,
          "durationTicks": 400,
          "midi": 46,
          "name": "A#2",
          "ticks": 24960,
          "time": 20.128992,
          "velocity": 0.4330708661417323
        },
        {
          "duration": 0.3225800000000021,
          "durationTicks": 400,
          "midi": 44,
          "name": "G#2",
          "ticks": 25920,
          "time": 20.903184,
          "velocity": 0.4330708661417323
        },
        {
          "duration": 0.3225800000000021,
          "durationTicks": 400,
          "midi": 44,
          "name": "G#2",
          "ticks": 26880,
          "time": 21.677376,
          "velocity": 0.4330708661417323
        },
        {
          "duration": 0.3225800000000021,
          "durationTicks": 400,
          "midi": 43,
          "name": "G2",
          "ticks": 27840,
          "time": 22.451567999999998,
          "velocity": 0.4330708661417323
        },
        {
          "duration": 0.32257999999999853,
          "durationTicks": 400,
          "midi": 44,
          "name": "G#2",
          "ticks": 28800,
          "time": 23.22576,
          "velocity": 0.4330708661417323
        },
        {
          "duration": 0.32257999999999853,
          "durationTicks": 400,
          "midi": 46,
          "name": "A#2",
          "ticks": 29760,
          "time": 23.999952,
          "velocity": 0.4330708661417323
        },
        {
          "duration": 0.903223999999998,
          "durationTicks": 1120,
          "midi": 39,
          "name": "D#2",
          "ticks": 30720,
          "time": 24.774144,
          "velocity": 0.4330708661417323
        },
        {
          "duration": 0.12903199999999515,
          "durationTicks": 160,
          "midi": 39,
          "name": "D#2",
          "ticks": 140160,
          "time": 113.032032,
          "velocity": 0.4330708661417323
        },
        {
          "duration": 0.12903199999999515,
          "durationTicks": 160,
          "midi": 43,
          "name": "G2",
          "ticks": 141120,
          "time": 113.806224,
          "velocity": 0.4330708661417323
        },
        {
          "duration": 0.12903199999999515,
          "durationTicks": 160,
          "midi": 46,
          "name": "A#2",
          "ticks": 142080,
          "time": 114.580416,
          "velocity": 0.4330708661417323
        },
        {
          "duration": 0.12903199999999515,
          "durationTicks": 160,
          "midi": 34,
          "name": "A#1",
          "ticks": 143040,
          "time": 115.354608,
          "velocity": 0.4330708661417323
        },
        {
          "duration": 0.12903199999999515,
          "durationTicks": 160,
          "midi": 39,
          "name": "D#2",
          "ticks": 144000,
          "time": 116.1288,
          "velocity": 0.4330708661417323
        },
        {
          "duration": 0.12903199999999515,
          "durationTicks": 160,
          "midi": 38,
          "name": "D2",
          "ticks": 144480,
          "time": 116.515896,
          "velocity": 0.4330708661417323
        },
        {
          "duration": 0.12903199999999515,
          "durationTicks": 160,
          "midi": 39,
          "name": "D#2",
          "ticks": 144960,
          "time": 116.902992,
          "velocity": 0.4330708661417323
        },
        {
          "duration": 0.12903199999999515,
          "durationTicks": 160,
          "midi": 32,
          "name": "G#1",
          "ticks": 145440,
          "time": 117.290088,
          "velocity": 0.4330708661417323
        },
        {
          "duration": 0.38387020000000405,
          "durationTicks": 476,
          "midi": 34,
          "name": "A#1",
          "ticks": 145920,
          "time": 117.677184,
          "velocity": 0.4330708661417323
        },
        {
          "duration": 0.38387020000000405,
          "durationTicks": 476,
          "midi": 34,
          "name": "A#1",
          "ticks": 146400,
          "time": 118.06428,
          "velocity": 0.4330708661417323
        },
        {
          "duration": 0.38387020000000405,
          "durationTicks": 476,
          "midi": 34,
          "name": "A#1",
          "ticks": 146880,
          "time": 118.451376,
          "velocity": 0.4330708661417323
        },
        {
          "duration": 0.1370965000000126,
          "durationTicks": 170,
          "midi": 36,
          "name": "C2",
          "ticks": 147840,
          "time": 119.225568,
          "velocity": 0.4330708661417323
        },
        {
          "duration": 0.1370965000000126,
          "durationTicks": 170,
          "midi": 41,
          "name": "F2",
          "ticks": 148800,
          "time": 119.99976,
          "velocity": 0.4330708661417323
        },
        {
          "duration": 0.1370965000000126,
          "durationTicks": 170,
          "midi": 34,
          "name": "A#1",
          "ticks": 149760,
          "time": 120.773952,
          "velocity": 0.4330708661417323
        },
        {
          "duration": 0.1370965000000126,
          "durationTicks": 170,
          "midi": 39,
          "name": "D#2",
          "ticks": 150720,
          "time": 121.548144,
          "velocity": 0.4330708661417323
        },
        {
          "duration": 0.1370965000000126,
          "durationTicks": 170,
          "midi": 36,
          "name": "C2",
          "ticks": 163200,
          "time": 131.61264,
          "velocity": 0.4330708661417323
        },
        {
          "duration": 0.1370965000000126,
          "durationTicks": 170,
          "midi": 41,
          "name": "F2",
          "ticks": 164160,
          "time": 132.386832,
          "velocity": 0.4330708661417323
        },
        {
          "duration": 0.1370965000000126,
          "durationTicks": 170,
          "midi": 34,
          "name": "A#1",
          "ticks": 165120,
          "time": 133.161024,
          "velocity": 0.4330708661417323
        },
        {
          "duration": 0.1370965000000126,
          "durationTicks": 170,
          "midi": 39,
          "name": "D#2",
          "ticks": 166080,
          "time": 133.935216,
          "velocity": 0.4330708661417323
        },
        {
          "duration": 0.12903199999999515,
          "durationTicks": 160,
          "midi": 39,
          "name": "D#2",
          "ticks": 370560,
          "time": 298.838112,
          "velocity": 0.4330708661417323
        },
        {
          "duration": 0.12903199999999515,
          "durationTicks": 160,
          "midi": 39,
          "name": "D#2",
          "ticks": 371520,
          "time": 299.612304,
          "velocity": 0.4330708661417323
        },
        {
          "duration": 0.12903199999999515,
          "durationTicks": 160,
          "midi": 38,
          "name": "D2",
          "ticks": 372480,
          "time": 300.386496,
          "velocity": 0.4330708661417323
        },
        {
          "duration": 0.12903199999999515,
          "durationTicks": 160,
          "midi": 38,
          "name": "D2",
          "ticks": 373440,
          "time": 301.160688,
          "velocity": 0.4330708661417323
        },
        {
          "duration": 0.12903199999999515,
          "durationTicks": 160,
          "midi": 39,
          "name": "D#2",
          "ticks": 374400,
          "time": 301.93488,
          "velocity": 0.4330708661417323
        },
        {
          "duration": 0.12903199999999515,
          "durationTicks": 160,
          "midi": 32,
          "name": "G#1",
          "ticks": 375360,
          "time": 302.709072,
          "velocity": 0.4330708661417323
        },
        {
          "duration": 0.12903199999999515,
          "durationTicks": 160,
          "midi": 34,
          "name": "A#1",
          "ticks": 376320,
          "time": 303.483264,
          "velocity": 0.4330708661417323
        },
        {
          "duration": 0.12903199999999515,
          "durationTicks": 160,
          "midi": 34,
          "name": "A#1",
          "ticks": 376800,
          "time": 303.87036,
          "velocity": 0.4330708661417323
        },
        {
          "duration": 0.12903199999999515,
          "durationTicks": 160,
          "midi": 34,
          "name": "A#1",
          "ticks": 377280,
          "time": 304.257456,
          "velocity": 0.4330708661417323
        },
        {
          "duration": 0.12903199999999515,
          "durationTicks": 160,
          "midi": 40,
          "name": "E2",
          "ticks": 378240,
          "time": 305.031648,
          "velocity": 0.4330708661417323
        },
        {
          "duration": 0.12903199999999515,
          "durationTicks": 160,
          "midi": 41,
          "name": "F2",
          "ticks": 379200,
          "time": 305.80584,
          "velocity": 0.4330708661417323
        },
        {
          "duration": 0.12903199999999515,
          "durationTicks": 160,
          "midi": 38,
          "name": "D2",
          "ticks": 380160,
          "time": 306.580032,
          "velocity": 0.4330708661417323
        },
        {
          "duration": 0.12903199999999515,
          "durationTicks": 160,
          "midi": 39,
          "name": "D#2",
          "ticks": 381120,
          "time": 307.354224,
          "velocity": 0.4330708661417323
        },
        {
          "duration": 0.12903199999999515,
          "durationTicks": 160,
          "midi": 44,
          "name": "G#2",
          "ticks": 382080,
          "time": 308.128416,
          "velocity": 0.4330708661417323
        },
        {
          "duration": 0.129032000000052,
          "durationTicks": 160,
          "midi": 46,
          "name": "A#2",
          "ticks": 383040,
          "time": 308.902608,
          "velocity": 0.4330708661417323
        },
        {
          "duration": 0.6129020000000196,
          "durationTicks": 760,
          "midi": 39,
          "name": "D#2",
          "ticks": 384000,
          "time": 309.6768,
          "velocity": 0.4330708661417323
        },
        {
          "duration": 0.12903199999999515,
          "durationTicks": 160,
          "midi": 43,
          "name": "G2",
          "ticks": 385920,
          "time": 311.225184,
          "velocity": 0.4330708661417323
        },
        {
          "duration": 0.129032000000052,
          "durationTicks": 160,
          "midi": 43,
          "name": "G2",
          "ticks": 386880,
          "time": 311.999376,
          "velocity": 0.4330708661417323
        },
        {
          "duration": 0.12903199999999515,
          "durationTicks": 160,
          "midi": 36,
          "name": "C2",
          "ticks": 387840,
          "time": 312.773568,
          "velocity": 0.4330708661417323
        },
        {
          "duration": 0.129032000000052,
          "durationTicks": 160,
          "midi": 36,
          "name": "C2",
          "ticks": 388800,
          "time": 313.54776,
          "velocity": 0.4330708661417323
        },
        {
          "duration": 0.12903199999999515,
          "durationTicks": 160,
          "midi": 41,
          "name": "F2",
          "ticks": 389760,
          "time": 314.321952,
          "velocity": 0.4330708661417323
        },
        {
          "duration": 0.129032000000052,
          "durationTicks": 160,
          "midi": 41,
          "name": "F2",
          "ticks": 390720,
          "time": 315.096144,
          "velocity": 0.4330708661417323
        },
        {
          "duration": 0.12903199999999515,
          "durationTicks": 160,
          "midi": 34,
          "name": "A#1",
          "ticks": 391680,
          "time": 315.870336,
          "velocity": 0.4330708661417323
        },
        {
          "duration": 0.129032000000052,
          "durationTicks": 160,
          "midi": 46,
          "name": "A#2",
          "ticks": 392640,
          "time": 316.644528,
          "velocity": 0.4330708661417323
        },
        {
          "duration": 0.12903199999999515,
          "durationTicks": 160,
          "midi": 40,
          "name": "E2",
          "ticks": 393600,
          "time": 317.41872,
          "velocity": 0.4330708661417323
        },
        {
          "duration": 0.129032000000052,
          "durationTicks": 160,
          "midi": 41,
          "name": "F2",
          "ticks": 394560,
          "time": 318.192912,
          "velocity": 0.4330708661417323
        },
        {
          "duration": 0.12903199999999515,
          "durationTicks": 160,
          "midi": 38,
          "name": "D2",
          "ticks": 395520,
          "time": 318.967104,
          "velocity": 0.4330708661417323
        },
        {
          "duration": 0.129032000000052,
          "durationTicks": 160,
          "midi": 39,
          "name": "D#2",
          "ticks": 396480,
          "time": 319.741296,
          "velocity": 0.4330708661417323
        },
        {
          "duration": 0.12903199999999515,
          "durationTicks": 160,
          "midi": 44,
          "name": "G#2",
          "ticks": 397440,
          "time": 320.515488,
          "velocity": 0.4330708661417323
        },
        {
          "duration": 0.129032000000052,
          "durationTicks": 160,
          "midi": 46,
          "name": "A#2",
          "ticks": 398400,
          "time": 321.28968,
          "velocity": 0.4330708661417323
        },
        {
          "duration": 0.6129020000000196,
          "durationTicks": 760,
          "midi": 39,
          "name": "D#2",
          "ticks": 399360,
          "time": 322.063872,
          "velocity": 0.31496062992125984
        },
        {
          "duration": 0.12903199999999515,
          "durationTicks": 160,
          "midi": 39,
          "name": "D#2",
          "ticks": 462720,
          "time": 373.160544,
          "velocity": 0.4330708661417323
        },
        {
          "duration": 0.12903199999999515,
          "durationTicks": 160,
          "midi": 38,
          "name": "D2",
          "ticks": 464640,
          "time": 374.708928,
          "velocity": 0.4330708661417323
        },
        {
          "duration": 0.12903199999999515,
          "durationTicks": 160,
          "midi": 39,
          "name": "D#2",
          "ticks": 466560,
          "time": 376.257312,
          "velocity": 0.4330708661417323
        },
        {
          "duration": 0.129032000000052,
          "durationTicks": 160,
          "midi": 32,
          "name": "G#1",
          "ticks": 468000,
          "time": 377.41859999999997,
          "velocity": 0.4330708661417323
        },
        {
          "duration": 0.12903199999999515,
          "durationTicks": 160,
          "midi": 34,
          "name": "A#1",
          "ticks": 468480,
          "time": 377.805696,
          "velocity": 0.4330708661417323
        },
        {
          "duration": 0.12903199999999515,
          "durationTicks": 160,
          "midi": 34,
          "name": "A#1",
          "ticks": 468960,
          "time": 378.192792,
          "velocity": 0.4330708661417323
        },
        {
          "duration": 0.129032000000052,
          "durationTicks": 160,
          "midi": 34,
          "name": "A#1",
          "ticks": 469440,
          "time": 378.579888,
          "velocity": 0.4330708661417323
        },
        {
          "duration": 0.12903199999999515,
          "durationTicks": 160,
          "midi": 36,
          "name": "C2",
          "ticks": 470400,
          "time": 379.35408,
          "velocity": 0.4330708661417323
        },
        {
          "duration": 0.129032000000052,
          "durationTicks": 160,
          "midi": 41,
          "name": "F2",
          "ticks": 471360,
          "time": 380.128272,
          "velocity": 0.4330708661417323
        },
        {
          "duration": 0.12903199999999515,
          "durationTicks": 160,
          "midi": 34,
          "name": "A#1",
          "ticks": 472320,
          "time": 380.902464,
          "velocity": 0.4330708661417323
        },
        {
          "duration": 0.129032000000052,
          "durationTicks": 160,
          "midi": 39,
          "name": "D#2",
          "ticks": 473280,
          "time": 381.676656,
          "velocity": 0.4330708661417323
        },
        {
          "duration": 0.12903199999999515,
          "durationTicks": 160,
          "midi": 44,
          "name": "G#2",
          "ticks": 474240,
          "time": 382.450848,
          "velocity": 0.4330708661417323
        },
        {
          "duration": 0.129032000000052,
          "durationTicks": 160,
          "midi": 46,
          "name": "A#2",
          "ticks": 475200,
          "time": 383.22504,
          "velocity": 0.4330708661417323
        },
        {
          "duration": 0.12903199999999515,
          "durationTicks": 160,
          "midi": 39,
          "name": "D#2",
          "ticks": 476160,
          "time": 383.999232,
          "velocity": 0.4330708661417323
        },
        {
          "duration": 0.12903199999999515,
          "durationTicks": 160,
          "midi": 43,
          "name": "G2",
          "ticks": 478080,
          "time": 385.547616,
          "velocity": 0.4330708661417323
        },
        {
          "duration": 0.12903199999999515,
          "durationTicks": 160,
          "midi": 48,
          "name": "C3",
          "ticks": 480000,
          "time": 387.096,
          "velocity": 0.4330708661417323
        },
        {
          "duration": 0.12903199999999515,
          "durationTicks": 160,
          "midi": 41,
          "name": "F2",
          "ticks": 481920,
          "time": 388.644384,
          "velocity": 0.4330708661417323
        },
        {
          "duration": 0.12903199999999515,
          "durationTicks": 160,
          "midi": 46,
          "name": "A#2",
          "ticks": 483840,
          "time": 390.192768,
          "velocity": 0.4330708661417323
        },
        {
          "duration": 0.4958333333333371,
          "durationTicks": 476,
          "midi": 39,
          "name": "D#2",
          "ticks": 547680,
          "time": 471.48921325000003,
          "velocity": 0.4330708661417323
        },
        {
          "duration": 0.4958333333333371,
          "durationTicks": 476,
          "midi": 44,
          "name": "G#2",
          "ticks": 549120,
          "time": 472.98921325000003,
          "velocity": 0.4330708661417323
        },
        {
          "duration": 0.4958333333333371,
          "durationTicks": 476,
          "midi": 46,
          "name": "A#2",
          "ticks": 550560,
          "time": 474.48921325000003,
          "velocity": 0.4330708661417323
        },
        {
          "duration": 0.4958333333333371,
          "durationTicks": 476,
          "midi": 47,
          "name": "B2",
          "ticks": 552000,
          "time": 475.98921325000003,
          "velocity": 0.4330708661417323
        },
        {
          "duration": 0.4958333333333371,
          "durationTicks": 476,
          "midi": 48,
          "name": "C3",
          "ticks": 553440,
          "time": 477.48921325000003,
          "velocity": 0.4330708661417323
        },
        {
          "duration": 0.4958333333333371,
          "durationTicks": 476,
          "midi": 44,
          "name": "G#2",
          "ticks": 554880,
          "time": 478.98921325000003,
          "velocity": 0.4330708661417323
        },
        {
          "duration": 0.4958333333333371,
          "durationTicks": 476,
          "midi": 46,
          "name": "A#2",
          "ticks": 556320,
          "time": 480.48921325000003,
          "velocity": 0.4330708661417323
        },
        {
          "duration": 0.4958333333333371,
          "durationTicks": 476,
          "midi": 34,
          "name": "A#1",
          "ticks": 557760,
          "time": 481.98921325000003,
          "velocity": 0.4330708661417323
        },
        {
          "duration": 0.24999993749997884,
          "durationTicks": 290,
          "midi": 39,
          "name": "D#2",
          "ticks": 559200,
          "time": 483.48921325000003,
          "velocity": 0.4330708661417323
        },
        {
          "duration": 0.24999993749997884,
          "durationTicks": 290,
          "midi": 46,
          "name": "A#2",
          "ticks": 559920,
          "time": 484.10990275000006,
          "velocity": 0.4330708661417323
        },
        {
          "duration": 0.24999993749997884,
          "durationTicks": 290,
          "midi": 51,
          "name": "D#3",
          "ticks": 560640,
          "time": 484.73059225000003,
          "velocity": 0.4330708661417323
        },
        {
          "duration": 0.24999993749997884,
          "durationTicks": 290,
          "midi": 46,
          "name": "A#2",
          "ticks": 561360,
          "time": 485.35128175000006,
          "velocity": 0.4330708661417323
        },
        {
          "duration": 0.24999993750003568,
          "durationTicks": 290,
          "midi": 39,
          "name": "D#2",
          "ticks": 562080,
          "time": 485.97197125,
          "velocity": 0.4330708661417323
        },
        {
          "duration": 0.24999993749997884,
          "durationTicks": 290,
          "midi": 46,
          "name": "A#2",
          "ticks": 562800,
          "time": 486.59266075000005,
          "velocity": 0.4330708661417323
        },
        {
          "duration": 0.24999993750003568,
          "durationTicks": 290,
          "midi": 51,
          "name": "D#3",
          "ticks": 563520,
          "time": 487.21335025,
          "velocity": 0.4330708661417323
        },
        {
          "duration": 0.24999993749997884,
          "durationTicks": 290,
          "midi": 46,
          "name": "A#2",
          "ticks": 564240,
          "time": 487.83403975000004,
          "velocity": 0.4330708661417323
        },
        {
          "duration": 0.24999993750003568,
          "durationTicks": 290,
          "midi": 39,
          "name": "D#2",
          "ticks": 564960,
          "time": 488.45472925,
          "velocity": 0.4330708661417323
        }
      ]
    },
    {
      "channel": 10,
      "controlChanges": {},
      "pitchBends": [],
      "instrument": {
        "family": "ensemble",
        "number": 48,
        "name": "string ensemble 1"
      },
      "name": "",
      "notes": [
        {
          "duration": 0.1290319999999987,
          "durationTicks": 160,
          "midi": 46,
          "name": "A#2",
          "ticks": 32640,
          "time": 26.322528,
          "velocity": 0.4330708661417323
        },
        {
          "duration": 0.1290319999999987,
          "durationTicks": 160,
          "midi": 46,
          "name": "A#2",
          "ticks": 33120,
          "time": 26.709623999999998,
          "velocity": 0.4330708661417323
        },
        {
          "duration": 0.12903199999999515,
          "durationTicks": 160,
          "midi": 46,
          "name": "A#2",
          "ticks": 33600,
          "time": 27.09672,
          "velocity": 0.4330708661417323
        },
        {
          "duration": 0.1290319999999987,
          "durationTicks": 160,
          "midi": 46,
          "name": "A#2",
          "ticks": 34080,
          "time": 27.483816,
          "velocity": 0.4330708661417323
        },
        {
          "duration": 0.1290319999999987,
          "durationTicks": 160,
          "midi": 46,
          "name": "A#2",
          "ticks": 34560,
          "time": 27.870912,
          "velocity": 0.4330708661417323
        },
        {
          "duration": 0.1290319999999987,
          "durationTicks": 160,
          "midi": 46,
          "name": "A#2",
          "ticks": 35040,
          "time": 28.258008,
          "velocity": 0.4330708661417323
        },
        {
          "duration": 0.1290319999999987,
          "durationTicks": 160,
          "midi": 46,
          "name": "A#2",
          "ticks": 35520,
          "time": 28.645104,
          "velocity": 0.4330708661417323
        },
        {
          "duration": 0.1290319999999987,
          "durationTicks": 160,
          "midi": 46,
          "name": "A#2",
          "ticks": 36480,
          "time": 29.419296,
          "velocity": 0.4330708661417323
        },
        {
          "duration": 0.1290319999999987,
          "durationTicks": 160,
          "midi": 46,
          "name": "A#2",
          "ticks": 36960,
          "time": 29.806392,
          "velocity": 0.4330708661417323
        },
        {
          "duration": 0.1290319999999987,
          "durationTicks": 160,
          "midi": 46,
          "name": "A#2",
          "ticks": 37440,
          "time": 30.193488,
          "velocity": 0.4330708661417323
        },
        {
          "duration": 0.1290319999999987,
          "durationTicks": 160,
          "midi": 46,
          "name": "A#2",
          "ticks": 37920,
          "time": 30.580583999999998,
          "velocity": 0.4330708661417323
        },
        {
          "duration": 0.12903199999999515,
          "durationTicks": 160,
          "midi": 46,
          "name": "A#2",
          "ticks": 38400,
          "time": 30.96768,
          "velocity": 0.4330708661417323
        },
        {
          "duration": 0.12903199999999515,
          "durationTicks": 160,
          "midi": 46,
          "name": "A#2",
          "ticks": 38880,
          "time": 31.354776,
          "velocity": 0.4330708661417323
        },
        {
          "duration": 0.1290319999999987,
          "durationTicks": 160,
          "midi": 46,
          "name": "A#2",
          "ticks": 39360,
          "time": 31.741872,
          "velocity": 0.4330708661417323
        },
        {
          "duration": 0.38709599999999966,
          "durationTicks": 480,
          "midi": 50,
          "name": "D3",
          "ticks": 43680,
          "time": 35.225736,
          "velocity": 0.5511811023622047
        },
        {
          "duration": 0.1370965000000055,
          "durationTicks": 170,
          "midi": 51,
          "name": "D#3",
          "ticks": 44160,
          "time": 35.612832,
          "velocity": 0.5511811023622047
        },
        {
          "duration": 0.19354799999999983,
          "durationTicks": 240,
          "midi": 46,
          "name": "A#2",
          "ticks": 44400,
          "time": 35.80638,
          "velocity": 0.7086614173228346
        },
        {
          "duration": 0.19354799999999983,
          "durationTicks": 240,
          "midi": 48,
          "name": "C3",
          "ticks": 44640,
          "time": 35.999928,
          "velocity": 0.7086614173228346
        },
        {
          "duration": 0.19354799999999983,
          "durationTicks": 240,
          "midi": 44,
          "name": "G#2",
          "ticks": 44880,
          "time": 36.193476,
          "velocity": 0.7086614173228346
        },
        {
          "duration": 0.1370965000000055,
          "durationTicks": 170,
          "midi": 46,
          "name": "A#2",
          "ticks": 45120,
          "time": 36.387024,
          "velocity": 0.7086614173228346
        },
        {
          "duration": 0.1370965000000055,
          "durationTicks": 170,
          "midi": 34,
          "name": "A#1",
          "ticks": 45600,
          "time": 36.774119999999996,
          "velocity": 0.7086614173228346
        },
        {
          "duration": 0.1370965000000055,
          "durationTicks": 170,
          "midi": 39,
          "name": "D#2",
          "ticks": 46080,
          "time": 37.161215999999996,
          "velocity": 0.7086614173228346
        },
        {
          "duration": 0.12903199999999515,
          "durationTicks": 160,
          "midi": 39,
          "name": "D#2",
          "ticks": 46560,
          "time": 37.548312,
          "velocity": 0.7086614173228346
        },
        {
          "duration": 0.12903199999999515,
          "durationTicks": 160,
          "midi": 39,
          "name": "D#2",
          "ticks": 47040,
          "time": 37.935408,
          "velocity": 0.7086614173228346
        },
        {
          "duration": 0.12903199999999515,
          "durationTicks": 160,
          "midi": 39,
          "name": "D#2",
          "ticks": 48000,
          "time": 38.7096,
          "velocity": 0.4330708661417323
        },
        {
          "duration": 0.12903199999999515,
          "durationTicks": 160,
          "midi": 39,
          "name": "D#2",
          "ticks": 49440,
          "time": 39.870888,
          "velocity": 0.4330708661417323
        },
        {
          "duration": 0.38387019999999694,
          "durationTicks": 476,
          "midi": 38,
          "name": "D2",
          "ticks": 49920,
          "time": 40.257984,
          "velocity": 0.4330708661417323
        },
        {
          "duration": 0.38387019999999694,
          "durationTicks": 476,
          "midi": 38,
          "name": "D2",
          "ticks": 51360,
          "time": 41.419272,
          "velocity": 0.4330708661417323
        },
        {
          "duration": 0.38387019999999694,
          "durationTicks": 476,
          "midi": 39,
          "name": "D#2",
          "ticks": 51840,
          "time": 41.806368,
          "velocity": 0.4330708661417323
        },
        {
          "duration": 0.38387019999999694,
          "durationTicks": 476,
          "midi": 39,
          "name": "D#2",
          "ticks": 52320,
          "time": 42.193464,
          "velocity": 0.4330708661417323
        },
        {
          "duration": 0.38387019999999694,
          "durationTicks": 476,
          "midi": 32,
          "name": "G#1",
          "ticks": 52800,
          "time": 42.58056,
          "velocity": 0.4330708661417323
        },
        {
          "duration": 0.38387019999999694,
          "durationTicks": 476,
          "midi": 32,
          "name": "G#1",
          "ticks": 53280,
          "time": 42.967656,
          "velocity": 0.4330708661417323
        },
        {
          "duration": 0.38387019999999694,
          "durationTicks": 476,
          "midi": 34,
          "name": "A#1",
          "ticks": 53760,
          "time": 43.354752,
          "velocity": 0.4330708661417323
        },
        {
          "duration": 0.38387019999999694,
          "durationTicks": 476,
          "midi": 46,
          "name": "A#2",
          "ticks": 54240,
          "time": 43.741848,
          "velocity": 0.4330708661417323
        },
        {
          "duration": 0.38387019999999694,
          "durationTicks": 476,
          "midi": 34,
          "name": "A#1",
          "ticks": 54720,
          "time": 44.128944,
          "velocity": 0.4330708661417323
        },
        {
          "duration": 0.6129019999999983,
          "durationTicks": 760,
          "midi": 46,
          "name": "A#2",
          "ticks": 55680,
          "time": 44.903135999999996,
          "velocity": 0.4330708661417323
        },
        {
          "duration": 1.483867999999994,
          "durationTicks": 1840,
          "midi": 44,
          "name": "G#2",
          "ticks": 56640,
          "time": 45.677328,
          "velocity": 0.4330708661417323
        },
        {
          "duration": 0.6129019999999983,
          "durationTicks": 760,
          "midi": 43,
          "name": "G2",
          "ticks": 58560,
          "time": 47.225712,
          "velocity": 0.4330708661417323
        },
        {
          "duration": 0.12903199999999515,
          "durationTicks": 160,
          "midi": 44,
          "name": "G#2",
          "ticks": 59520,
          "time": 47.999904,
          "velocity": 0.4330708661417323
        },
        {
          "duration": 0.12903199999999515,
          "durationTicks": 160,
          "midi": 44,
          "name": "G#2",
          "ticks": 60000,
          "time": 48.387,
          "velocity": 0.4330708661417323
        },
        {
          "duration": 0.12903199999999515,
          "durationTicks": 160,
          "midi": 46,
          "name": "A#2",
          "ticks": 60480,
          "time": 48.774096,
          "velocity": 0.4330708661417323
        },
        {
          "duration": 0.12903199999999515,
          "durationTicks": 160,
          "midi": 46,
          "name": "A#2",
          "ticks": 60960,
          "time": 49.161192,
          "velocity": 0.4330708661417323
        },
        {
          "duration": 0.7741919999999993,
          "durationTicks": 960,
          "midi": 39,
          "name": "D#2",
          "ticks": 61440,
          "time": 49.548288,
          "velocity": 0.4330708661417323
        },
        {
          "duration": 0.12903200000000226,
          "durationTicks": 160,
          "midi": 27,
          "name": "D#1",
          "ticks": 62400,
          "time": 50.32248,
          "velocity": 0.4330708661417323
        },
        {
          "duration": 0.12903200000000226,
          "durationTicks": 160,
          "midi": 43,
          "name": "G2",
          "ticks": 63360,
          "time": 51.096672,
          "velocity": 0.4330708661417323
        },
        {
          "duration": 0.12903200000000936,
          "durationTicks": 160,
          "midi": 43,
          "name": "G2",
          "ticks": 64800,
          "time": 52.25796,
          "velocity": 0.4330708661417323
        },
        {
          "duration": 0.12903200000000936,
          "durationTicks": 160,
          "midi": 36,
          "name": "C2",
          "ticks": 65280,
          "time": 52.645056,
          "velocity": 0.4251968503937008
        },
        {
          "duration": 0.12903200000000226,
          "durationTicks": 160,
          "midi": 41,
          "name": "F2",
          "ticks": 67200,
          "time": 54.19344,
          "velocity": 0.4330708661417323
        },
        {
          "duration": 0.12903200000000226,
          "durationTicks": 160,
          "midi": 41,
          "name": "F2",
          "ticks": 68640,
          "time": 55.354728,
          "velocity": 0.4330708661417323
        },
        {
          "duration": 0.12903200000000226,
          "durationTicks": 160,
          "midi": 34,
          "name": "A#1",
          "ticks": 69120,
          "time": 55.741824,
          "velocity": 0.4330708661417323
        },
        {
          "duration": 0.6129020000000054,
          "durationTicks": 760,
          "midi": 46,
          "name": "A#2",
          "ticks": 71040,
          "time": 57.290208,
          "velocity": 0.4330708661417323
        },
        {
          "duration": 1.483868000000001,
          "durationTicks": 1840,
          "midi": 44,
          "name": "G#2",
          "ticks": 72000,
          "time": 58.0644,
          "velocity": 0.4330708661417323
        },
        {
          "duration": 0.6129020000000054,
          "durationTicks": 760,
          "midi": 43,
          "name": "G2",
          "ticks": 73920,
          "time": 59.612784,
          "velocity": 0.4330708661417323
        },
        {
          "duration": 0.12903200000000936,
          "durationTicks": 160,
          "midi": 44,
          "name": "G#2",
          "ticks": 74880,
          "time": 60.386976,
          "velocity": 0.4330708661417323
        },
        {
          "duration": 0.12903200000000936,
          "durationTicks": 160,
          "midi": 44,
          "name": "G#2",
          "ticks": 75360,
          "time": 60.774072,
          "velocity": 0.4330708661417323
        },
        {
          "duration": 0.12903200000000936,
          "durationTicks": 160,
          "midi": 46,
          "name": "A#2",
          "ticks": 75840,
          "time": 61.161167999999996,
          "velocity": 0.4330708661417323
        },
        {
          "duration": 0.12903200000000936,
          "durationTicks": 160,
          "midi": 46,
          "name": "A#2",
          "ticks": 76320,
          "time": 61.548263999999996,
          "velocity": 0.4330708661417323
        },
        {
          "duration": 0.7741919999999993,
          "durationTicks": 960,
          "midi": 39,
          "name": "D#2",
          "ticks": 76800,
          "time": 61.93536,
          "velocity": 0.4330708661417323
        },
        {
          "duration": 0.12903200000000226,
          "durationTicks": 160,
          "midi": 27,
          "name": "D#1",
          "ticks": 77760,
          "time": 62.709552,
          "velocity": 0.4330708661417323
        },
        {
          "duration": 0.12903200000000226,
          "durationTicks": 160,
          "midi": 46,
          "name": "A#2",
          "ticks": 78720,
          "time": 63.483744,
          "velocity": 0.4330708661417323
        },
        {
          "duration": 0.12903200000000226,
          "durationTicks": 160,
          "midi": 46,
          "name": "A#2",
          "ticks": 79200,
          "time": 63.87084,
          "velocity": 0.4330708661417323
        },
        {
          "duration": 0.12903199999999515,
          "durationTicks": 160,
          "midi": 46,
          "name": "A#2",
          "ticks": 79680,
          "time": 64.257936,
          "velocity": 0.4330708661417323
        },
        {
          "duration": 0.12903200000000936,
          "durationTicks": 160,
          "midi": 46,
          "name": "A#2",
          "ticks": 80160,
          "time": 64.645032,
          "velocity": 0.4330708661417323
        },
        {
          "duration": 0.12903200000000936,
          "durationTicks": 160,
          "midi": 46,
          "name": "A#2",
          "ticks": 80640,
          "time": 65.032128,
          "velocity": 0.4330708661417323
        },
        {
          "duration": 0.12903200000000936,
          "durationTicks": 160,
          "midi": 46,
          "name": "A#2",
          "ticks": 81120,
          "time": 65.419224,
          "velocity": 0.4330708661417323
        },
        {
          "duration": 0.12903200000000936,
          "durationTicks": 160,
          "midi": 46,
          "name": "A#2",
          "ticks": 81600,
          "time": 65.80632,
          "velocity": 0.4330708661417323
        },
        {
          "duration": 0.12903200000000936,
          "durationTicks": 160,
          "midi": 46,
          "name": "A#2",
          "ticks": 82560,
          "time": 66.580512,
          "velocity": 0.4330708661417323
        },
        {
          "duration": 0.12903200000000936,
          "durationTicks": 160,
          "midi": 46,
          "name": "A#2",
          "ticks": 83040,
          "time": 66.967608,
          "velocity": 0.4330708661417323
        },
        {
          "duration": 0.12903200000000936,
          "durationTicks": 160,
          "midi": 46,
          "name": "A#2",
          "ticks": 83520,
          "time": 67.354704,
          "velocity": 0.4330708661417323
        },
        {
          "duration": 0.12903200000000936,
          "durationTicks": 160,
          "midi": 46,
          "name": "A#2",
          "ticks": 84000,
          "time": 67.7418,
          "velocity": 0.4330708661417323
        },
        {
          "duration": 0.12903200000000936,
          "durationTicks": 160,
          "midi": 46,
          "name": "A#2",
          "ticks": 84480,
          "time": 68.128896,
          "velocity": 0.4330708661417323
        },
        {
          "duration": 0.12903200000000936,
          "durationTicks": 160,
          "midi": 46,
          "name": "A#2",
          "ticks": 84960,
          "time": 68.515992,
          "velocity": 0.4330708661417323
        },
        {
          "duration": 0.12903200000000936,
          "durationTicks": 160,
          "midi": 46,
          "name": "A#2",
          "ticks": 85440,
          "time": 68.903088,
          "velocity": 0.4330708661417323
        },
        {
          "duration": 0.38709599999999966,
          "durationTicks": 480,
          "midi": 50,
          "name": "D3",
          "ticks": 89760,
          "time": 72.386952,
          "velocity": 0.5511811023622047
        },
        {
          "duration": 0.1370964999999984,
          "durationTicks": 170,
          "midi": 51,
          "name": "D#3",
          "ticks": 90240,
          "time": 72.774048,
          "velocity": 0.5511811023622047
        },
        {
          "duration": 0.19354799999999273,
          "durationTicks": 240,
          "midi": 46,
          "name": "A#2",
          "ticks": 90480,
          "time": 72.967596,
          "velocity": 0.7086614173228346
        },
        {
          "duration": 0.19354800000000694,
          "durationTicks": 240,
          "midi": 48,
          "name": "C3",
          "ticks": 90720,
          "time": 73.161144,
          "velocity": 0.7086614173228346
        },
        {
          "duration": 0.19354799999999273,
          "durationTicks": 240,
          "midi": 44,
          "name": "G#2",
          "ticks": 90960,
          "time": 73.354692,
          "velocity": 0.7086614173228346
        },
        {
          "duration": 0.1370964999999984,
          "durationTicks": 170,
          "midi": 46,
          "name": "A#2",
          "ticks": 91200,
          "time": 73.54823999999999,
          "velocity": 0.7086614173228346
        },
        {
          "duration": 0.1370964999999984,
          "durationTicks": 170,
          "midi": 34,
          "name": "A#1",
          "ticks": 91680,
          "time": 73.93533599999999,
          "velocity": 0.7086614173228346
        },
        {
          "duration": 0.12903200000000936,
          "durationTicks": 160,
          "midi": 39,
          "name": "D#2",
          "ticks": 92160,
          "time": 74.32243199999999,
          "velocity": 0.7086614173228346
        },
        {
          "duration": 0.12903199999999515,
          "durationTicks": 160,
          "midi": 27,
          "name": "D#1",
          "ticks": 92640,
          "time": 74.709528,
          "velocity": 0.7086614173228346
        },
        {
          "duration": 0.12903199999999515,
          "durationTicks": 160,
          "midi": 27,
          "name": "D#1",
          "ticks": 93120,
          "time": 75.096624,
          "velocity": 0.7086614173228346
        },
        {
          "duration": 0.12903199999999515,
          "durationTicks": 160,
          "midi": 39,
          "name": "D#2",
          "ticks": 94080,
          "time": 75.870816,
          "velocity": 0.4330708661417323
        },
        {
          "duration": 0.12903199999999515,
          "durationTicks": 160,
          "midi": 39,
          "name": "D#2",
          "ticks": 94560,
          "time": 76.257912,
          "velocity": 0.4330708661417323
        },
        {
          "duration": 0.12903199999999515,
          "durationTicks": 160,
          "midi": 39,
          "name": "D#2",
          "ticks": 95040,
          "time": 76.645008,
          "velocity": 0.4330708661417323
        },
        {
          "duration": 0.12903199999999515,
          "durationTicks": 160,
          "midi": 39,
          "name": "D#2",
          "ticks": 95520,
          "time": 77.032104,
          "velocity": 0.4330708661417323
        },
        {
          "duration": 0.12903199999999515,
          "durationTicks": 160,
          "midi": 38,
          "name": "D2",
          "ticks": 96000,
          "time": 77.4192,
          "velocity": 0.4330708661417323
        },
        {
          "duration": 0.12903199999999515,
          "durationTicks": 160,
          "midi": 38,
          "name": "D2",
          "ticks": 96480,
          "time": 77.806296,
          "velocity": 0.4330708661417323
        },
        {
          "duration": 0.12903199999999515,
          "durationTicks": 160,
          "midi": 38,
          "name": "D2",
          "ticks": 96960,
          "time": 78.193392,
          "velocity": 0.4330708661417323
        },
        {
          "duration": 0.12903199999999515,
          "durationTicks": 160,
          "midi": 38,
          "name": "D2",
          "ticks": 97440,
          "time": 78.580488,
          "velocity": 0.4330708661417323
        },
        {
          "duration": 0.12903199999999515,
          "durationTicks": 160,
          "midi": 39,
          "name": "D#2",
          "ticks": 97920,
          "time": 78.967584,
          "velocity": 0.4330708661417323
        },
        {
          "duration": 0.12903199999999515,
          "durationTicks": 160,
          "midi": 39,
          "name": "D#2",
          "ticks": 98400,
          "time": 79.35468,
          "velocity": 0.4330708661417323
        },
        {
          "duration": 0.12903199999999515,
          "durationTicks": 160,
          "midi": 32,
          "name": "G#1",
          "ticks": 98880,
          "time": 79.741776,
          "velocity": 0.4330708661417323
        },
        {
          "duration": 0.12903199999999515,
          "durationTicks": 160,
          "midi": 32,
          "name": "G#1",
          "ticks": 99360,
          "time": 80.128872,
          "velocity": 0.4330708661417323
        },
        {
          "duration": 0.12903199999999515,
          "durationTicks": 160,
          "midi": 34,
          "name": "A#1",
          "ticks": 99840,
          "time": 80.515968,
          "velocity": 0.4330708661417323
        },
        {
          "duration": 0.12903199999999515,
          "durationTicks": 160,
          "midi": 46,
          "name": "A#2",
          "ticks": 100320,
          "time": 80.903064,
          "velocity": 0.4330708661417323
        },
        {
          "duration": 0.12903200000000936,
          "durationTicks": 160,
          "midi": 34,
          "name": "A#1",
          "ticks": 100800,
          "time": 81.29016,
          "velocity": 0.4330708661417323
        },
        {
          "duration": 0.12903200000000936,
          "durationTicks": 160,
          "midi": 36,
          "name": "C2",
          "ticks": 101760,
          "time": 82.064352,
          "velocity": 0.4330708661417323
        },
        {
          "duration": 0.12903200000000936,
          "durationTicks": 160,
          "midi": 41,
          "name": "F2",
          "ticks": 102720,
          "time": 82.838544,
          "velocity": 0.4330708661417323
        },
        {
          "duration": 0.12903200000000936,
          "durationTicks": 160,
          "midi": 34,
          "name": "A#1",
          "ticks": 103680,
          "time": 83.612736,
          "velocity": 0.4330708661417323
        },
        {
          "duration": 0.12903200000000936,
          "durationTicks": 160,
          "midi": 39,
          "name": "D#2",
          "ticks": 104640,
          "time": 84.386928,
          "velocity": 0.4330708661417323
        },
        {
          "duration": 0.6129020000000054,
          "durationTicks": 760,
          "midi": 44,
          "name": "G#2",
          "ticks": 105600,
          "time": 85.16112,
          "velocity": 0.4330708661417323
        },
        {
          "duration": 0.12903200000000936,
          "durationTicks": 160,
          "midi": 46,
          "name": "A#2",
          "ticks": 107040,
          "time": 86.322408,
          "velocity": 0.4330708661417323
        },
        {
          "duration": 0.12903200000000936,
          "durationTicks": 160,
          "midi": 39,
          "name": "D#2",
          "ticks": 107520,
          "time": 86.709504,
          "velocity": 0.4330708661417323
        },
        {
          "duration": 0.12903200000000936,
          "durationTicks": 160,
          "midi": 39,
          "name": "D#2",
          "ticks": 108000,
          "time": 87.0966,
          "velocity": 0.4330708661417323
        },
        {
          "duration": 0.12903200000000936,
          "durationTicks": 160,
          "midi": 39,
          "name": "D#2",
          "ticks": 108480,
          "time": 87.483696,
          "velocity": 0.4330708661417323
        },
        {
          "duration": 0.6129020000000054,
          "durationTicks": 760,
          "midi": 43,
          "name": "G2",
          "ticks": 109440,
          "time": 88.257888,
          "velocity": 0.4330708661417323
        },
        {
          "duration": 0.12903200000000936,
          "durationTicks": 160,
          "midi": 43,
          "name": "G2",
          "ticks": 110880,
          "time": 89.419176,
          "velocity": 0.4330708661417323
        },
        {
          "duration": 0.6129020000000054,
          "durationTicks": 760,
          "midi": 36,
          "name": "C2",
          "ticks": 111360,
          "time": 89.80627199999999,
          "velocity": 0.4330708661417323
        },
        {
          "duration": 0.6129019999999912,
          "durationTicks": 760,
          "midi": 41,
          "name": "F2",
          "ticks": 113280,
          "time": 91.354656,
          "velocity": 0.4330708661417323
        },
        {
          "duration": 0.12903199999999515,
          "durationTicks": 160,
          "midi": 41,
          "name": "F2",
          "ticks": 114720,
          "time": 92.515944,
          "velocity": 0.4330708661417323
        },
        {
          "duration": 0.6129020000000054,
          "durationTicks": 760,
          "midi": 34,
          "name": "A#1",
          "ticks": 115200,
          "time": 92.90304,
          "velocity": 0.4330708661417323
        },
        {
          "duration": 0.12903199999999515,
          "durationTicks": 160,
          "midi": 36,
          "name": "C2",
          "ticks": 117120,
          "time": 94.451424,
          "velocity": 0.4330708661417323
        },
        {
          "duration": 0.12903199999999515,
          "durationTicks": 160,
          "midi": 41,
          "name": "F2",
          "ticks": 118080,
          "time": 95.225616,
          "velocity": 0.4330708661417323
        },
        {
          "duration": 0.12903199999999515,
          "durationTicks": 160,
          "midi": 34,
          "name": "A#1",
          "ticks": 119040,
          "time": 95.999808,
          "velocity": 0.4330708661417323
        },
        {
          "duration": 0.12903199999999515,
          "durationTicks": 160,
          "midi": 39,
          "name": "D#2",
          "ticks": 120000,
          "time": 96.774,
          "velocity": 0.4330708661417323
        },
        {
          "duration": 0.6129020000000054,
          "durationTicks": 760,
          "midi": 44,
          "name": "G#2",
          "ticks": 120960,
          "time": 97.548192,
          "velocity": 0.4330708661417323
        },
        {
          "duration": 0.12903200000000936,
          "durationTicks": 160,
          "midi": 46,
          "name": "A#2",
          "ticks": 122400,
          "time": 98.70948,
          "velocity": 0.4330708661417323
        },
        {
          "duration": 0.12903199999999515,
          "durationTicks": 160,
          "midi": 39,
          "name": "D#2",
          "ticks": 122880,
          "time": 99.096576,
          "velocity": 0.4330708661417323
        },
        {
          "duration": 0.12903199999999515,
          "durationTicks": 160,
          "midi": 39,
          "name": "D#2",
          "ticks": 123360,
          "time": 99.483672,
          "velocity": 0.4330708661417323
        },
        {
          "duration": 0.12903199999999515,
          "durationTicks": 160,
          "midi": 39,
          "name": "D#2",
          "ticks": 123840,
          "time": 99.870768,
          "velocity": 0.4330708661417323
        },
        {
          "duration": 0.12903199999999515,
          "durationTicks": 160,
          "midi": 46,
          "name": "A#2",
          "ticks": 124800,
          "time": 100.64496,
          "velocity": 0.4330708661417323
        },
        {
          "duration": 0.12903199999999515,
          "durationTicks": 160,
          "midi": 46,
          "name": "A#2",
          "ticks": 125280,
          "time": 101.032056,
          "velocity": 0.4330708661417323
        },
        {
          "duration": 0.12903199999999515,
          "durationTicks": 160,
          "midi": 46,
          "name": "A#2",
          "ticks": 125760,
          "time": 101.419152,
          "velocity": 0.4330708661417323
        },
        {
          "duration": 0.12903199999999515,
          "durationTicks": 160,
          "midi": 46,
          "name": "A#2",
          "ticks": 126240,
          "time": 101.806248,
          "velocity": 0.4330708661417323
        },
        {
          "duration": 0.12903199999999515,
          "durationTicks": 160,
          "midi": 46,
          "name": "A#2",
          "ticks": 126720,
          "time": 102.193344,
          "velocity": 0.4330708661417323
        },
        {
          "duration": 0.12903199999999515,
          "durationTicks": 160,
          "midi": 46,
          "name": "A#2",
          "ticks": 127200,
          "time": 102.58044,
          "velocity": 0.4330708661417323
        },
        {
          "duration": 0.12903199999999515,
          "durationTicks": 160,
          "midi": 46,
          "name": "A#2",
          "ticks": 127680,
          "time": 102.967536,
          "velocity": 0.4330708661417323
        },
        {
          "duration": 0.12903199999999515,
          "durationTicks": 160,
          "midi": 46,
          "name": "A#2",
          "ticks": 128160,
          "time": 103.354632,
          "velocity": 0.4330708661417323
        },
        {
          "duration": 0.12903199999999515,
          "durationTicks": 160,
          "midi": 46,
          "name": "A#2",
          "ticks": 128640,
          "time": 103.741728,
          "velocity": 0.4330708661417323
        },
        {
          "duration": 0.12903199999999515,
          "durationTicks": 160,
          "midi": 46,
          "name": "A#2",
          "ticks": 129120,
          "time": 104.128824,
          "velocity": 0.4330708661417323
        },
        {
          "duration": 0.12903199999999515,
          "durationTicks": 160,
          "midi": 46,
          "name": "A#2",
          "ticks": 129600,
          "time": 104.51592,
          "velocity": 0.4330708661417323
        },
        {
          "duration": 0.12903199999999515,
          "durationTicks": 160,
          "midi": 46,
          "name": "A#2",
          "ticks": 130080,
          "time": 104.903016,
          "velocity": 0.4330708661417323
        },
        {
          "duration": 0.12903199999999515,
          "durationTicks": 160,
          "midi": 46,
          "name": "A#2",
          "ticks": 130560,
          "time": 105.290112,
          "velocity": 0.4330708661417323
        },
        {
          "duration": 0.12903199999999515,
          "durationTicks": 160,
          "midi": 46,
          "name": "A#2",
          "ticks": 131040,
          "time": 105.677208,
          "velocity": 0.4330708661417323
        },
        {
          "duration": 0.12903199999999515,
          "durationTicks": 160,
          "midi": 46,
          "name": "A#2",
          "ticks": 131520,
          "time": 106.06430399999999,
          "velocity": 0.4330708661417323
        },
        {
          "duration": 0.3870960000000139,
          "durationTicks": 480,
          "midi": 55,
          "name": "G3",
          "ticks": 132960,
          "time": 107.22559199999999,
          "velocity": 0.5511811023622047
        },
        {
          "duration": 0.38709599999999966,
          "durationTicks": 480,
          "midi": 53,
          "name": "F3",
          "ticks": 133440,
          "time": 107.612688,
          "velocity": 0.5511811023622047
        },
        {
          "duration": 0.38709599999999966,
          "durationTicks": 480,
          "midi": 56,
          "name": "G#3",
          "ticks": 133920,
          "time": 107.999784,
          "velocity": 0.5511811023622047
        },
        {
          "duration": 0.38709599999999966,
          "durationTicks": 480,
          "midi": 55,
          "name": "G3",
          "ticks": 134400,
          "time": 108.38688,
          "velocity": 0.5511811023622047
        },
        {
          "duration": 0.38709599999999966,
          "durationTicks": 480,
          "midi": 51,
          "name": "D#3",
          "ticks": 134880,
          "time": 108.773976,
          "velocity": 0.5511811023622047
        },
        {
          "duration": 0.38709599999999966,
          "durationTicks": 480,
          "midi": 50,
          "name": "D3",
          "ticks": 135360,
          "time": 109.161072,
          "velocity": 0.5511811023622047
        },
        {
          "duration": 0.38709599999999966,
          "durationTicks": 480,
          "midi": 50,
          "name": "D3",
          "ticks": 135840,
          "time": 109.548168,
          "velocity": 0.5511811023622047
        },
        {
          "duration": 0.38709599999999966,
          "durationTicks": 480,
          "midi": 53,
          "name": "F3",
          "ticks": 135840,
          "time": 109.548168,
          "velocity": 0.5511811023622047
        },
        {
          "duration": 0.12903199999998094,
          "durationTicks": 160,
          "midi": 51,
          "name": "D#3",
          "ticks": 136320,
          "time": 109.935264,
          "velocity": 0.5511811023622047
        },
        {
          "duration": 0.19354800000000694,
          "durationTicks": 240,
          "midi": 46,
          "name": "A#2",
          "ticks": 136560,
          "time": 110.128812,
          "velocity": 0.7086614173228346
        },
        {
          "duration": 0.19354799999999273,
          "durationTicks": 240,
          "midi": 48,
          "name": "C3",
          "ticks": 136800,
          "time": 110.32236,
          "velocity": 0.7086614173228346
        },
        {
          "duration": 0.19354800000000694,
          "durationTicks": 240,
          "midi": 44,
          "name": "G#2",
          "ticks": 137040,
          "time": 110.515908,
          "velocity": 0.7086614173228346
        },
        {
          "duration": 0.12903199999999515,
          "durationTicks": 160,
          "midi": 46,
          "name": "A#2",
          "ticks": 137280,
          "time": 110.709456,
          "velocity": 0.7086614173228346
        },
        {
          "duration": 0.12903199999999515,
          "durationTicks": 160,
          "midi": 34,
          "name": "A#1",
          "ticks": 137760,
          "time": 111.096552,
          "velocity": 0.7086614173228346
        },
        {
          "duration": 0.12903199999999515,
          "durationTicks": 160,
          "midi": 39,
          "name": "D#2",
          "ticks": 138240,
          "time": 111.483648,
          "velocity": 0.7086614173228346
        },
        {
          "duration": 0.12903199999999515,
          "durationTicks": 160,
          "midi": 39,
          "name": "D#2",
          "ticks": 138720,
          "time": 111.870744,
          "velocity": 0.7086614173228346
        },
        {
          "duration": 0.12903199999999515,
          "durationTicks": 160,
          "midi": 39,
          "name": "D#2",
          "ticks": 139200,
          "time": 112.25784,
          "velocity": 0.7086614173228346
        },
        {
          "duration": 0.12903199999999515,
          "durationTicks": 160,
          "midi": 44,
          "name": "G#2",
          "ticks": 151680,
          "time": 122.32233599999999,
          "velocity": 0.4330708661417323
        },
        {
          "duration": 0.12903199999999515,
          "durationTicks": 160,
          "midi": 46,
          "name": "A#2",
          "ticks": 152640,
          "time": 123.09652799999999,
          "velocity": 0.4330708661417323
        },
        {
          "duration": 0.12903199999999515,
          "durationTicks": 160,
          "midi": 34,
          "name": "A#1",
          "ticks": 153120,
          "time": 123.48362399999999,
          "velocity": 0.4330708661417323
        },
        {
          "duration": 0.12903199999998094,
          "durationTicks": 160,
          "midi": 39,
          "name": "D#2",
          "ticks": 153600,
          "time": 123.87072,
          "velocity": 0.4330708661417323
        },
        {
          "duration": 0.12903199999998094,
          "durationTicks": 160,
          "midi": 39,
          "name": "D#2",
          "ticks": 154080,
          "time": 124.257816,
          "velocity": 0.4330708661417323
        },
        {
          "duration": 0.12903199999998094,
          "durationTicks": 160,
          "midi": 39,
          "name": "D#2",
          "ticks": 154560,
          "time": 124.644912,
          "velocity": 0.4330708661417323
        },
        {
          "duration": 0.12903199999998094,
          "durationTicks": 160,
          "midi": 43,
          "name": "G2",
          "ticks": 155520,
          "time": 125.419104,
          "velocity": 0.4330708661417323
        },
        {
          "duration": 0.38709599999999966,
          "durationTicks": 480,
          "midi": 50,
          "name": "D3",
          "ticks": 156000,
          "time": 125.8062,
          "velocity": 0.4330708661417323
        },
        {
          "duration": 0.38709599999999966,
          "durationTicks": 480,
          "midi": 47,
          "name": "B2",
          "ticks": 156480,
          "time": 126.193296,
          "velocity": 0.4330708661417323
        },
        {
          "duration": 0.38709599999999966,
          "durationTicks": 480,
          "midi": 43,
          "name": "G2",
          "ticks": 156960,
          "time": 126.580392,
          "velocity": 0.4330708661417323
        },
        {
          "duration": 0.6129019999999912,
          "durationTicks": 760,
          "midi": 48,
          "name": "C3",
          "ticks": 157440,
          "time": 126.967488,
          "velocity": 0.4330708661417323
        },
        {
          "duration": 0.3870960000000139,
          "durationTicks": 480,
          "midi": 39,
          "name": "D#2",
          "ticks": 158880,
          "time": 128.128776,
          "velocity": 0.4330708661417323
        },
        {
          "duration": 0.12903199999999515,
          "durationTicks": 160,
          "midi": 41,
          "name": "F2",
          "ticks": 159360,
          "time": 128.515872,
          "velocity": 0.4330708661417323
        },
        {
          "duration": 0.3870960000000139,
          "durationTicks": 480,
          "midi": 48,
          "name": "C3",
          "ticks": 159840,
          "time": 128.902968,
          "velocity": 0.4330708661417323
        },
        {
          "duration": 0.38709599999998545,
          "durationTicks": 480,
          "midi": 45,
          "name": "A2",
          "ticks": 160320,
          "time": 129.290064,
          "velocity": 0.4330708661417323
        },
        {
          "duration": 0.3870960000000139,
          "durationTicks": 480,
          "midi": 41,
          "name": "F2",
          "ticks": 160800,
          "time": 129.67716,
          "velocity": 0.4330708661417323
        },
        {
          "duration": 0.6129019999999912,
          "durationTicks": 760,
          "midi": 46,
          "name": "A#2",
          "ticks": 161280,
          "time": 130.064256,
          "velocity": 0.4330708661417323
        },
        {
          "duration": 0.12903199999999515,
          "durationTicks": 160,
          "midi": 44,
          "name": "G#2",
          "ticks": 167040,
          "time": 134.709408,
          "velocity": 0.4330708661417323
        },
        {
          "duration": 0.12903199999999515,
          "durationTicks": 160,
          "midi": 46,
          "name": "A#2",
          "ticks": 168000,
          "time": 135.4836,
          "velocity": 0.4330708661417323
        },
        {
          "duration": 0.12903199999999515,
          "durationTicks": 160,
          "midi": 34,
          "name": "A#1",
          "ticks": 168480,
          "time": 135.870696,
          "velocity": 0.4330708661417323
        },
        {
          "duration": 0.12903199999999515,
          "durationTicks": 160,
          "midi": 39,
          "name": "D#2",
          "ticks": 168960,
          "time": 136.257792,
          "velocity": 0.4330708661417323
        },
        {
          "duration": 0.12903199999999515,
          "durationTicks": 160,
          "midi": 39,
          "name": "D#2",
          "ticks": 169440,
          "time": 136.644888,
          "velocity": 0.4330708661417323
        },
        {
          "duration": 0.12903199999999515,
          "durationTicks": 160,
          "midi": 39,
          "name": "D#2",
          "ticks": 169920,
          "time": 137.031984,
          "velocity": 0.4330708661417323
        },
        {
          "duration": 0.12903199999999515,
          "durationTicks": 160,
          "midi": 46,
          "name": "A#2",
          "ticks": 170880,
          "time": 137.806176,
          "velocity": 0.4330708661417323
        },
        {
          "duration": 0.12903199999999515,
          "durationTicks": 160,
          "midi": 46,
          "name": "A#2",
          "ticks": 171360,
          "time": 138.193272,
          "velocity": 0.4330708661417323
        },
        {
          "duration": 0.12903199999999515,
          "durationTicks": 160,
          "midi": 46,
          "name": "A#2",
          "ticks": 171840,
          "time": 138.580368,
          "velocity": 0.4330708661417323
        },
        {
          "duration": 0.12903199999999515,
          "durationTicks": 160,
          "midi": 46,
          "name": "A#2",
          "ticks": 172320,
          "time": 138.967464,
          "velocity": 0.4330708661417323
        },
        {
          "duration": 0.12903199999999515,
          "durationTicks": 160,
          "midi": 46,
          "name": "A#2",
          "ticks": 172800,
          "time": 139.35456,
          "velocity": 0.4330708661417323
        },
        {
          "duration": 0.12903199999999515,
          "durationTicks": 160,
          "midi": 46,
          "name": "A#2",
          "ticks": 173280,
          "time": 139.741656,
          "velocity": 0.4330708661417323
        },
        {
          "duration": 0.12903199999999515,
          "durationTicks": 160,
          "midi": 46,
          "name": "A#2",
          "ticks": 173760,
          "time": 140.128752,
          "velocity": 0.4330708661417323
        },
        {
          "duration": 0.12903199999999515,
          "durationTicks": 160,
          "midi": 46,
          "name": "A#2",
          "ticks": 174240,
          "time": 140.515848,
          "velocity": 0.4330708661417323
        },
        {
          "duration": 0.12903199999999515,
          "durationTicks": 160,
          "midi": 46,
          "name": "A#2",
          "ticks": 174720,
          "time": 140.902944,
          "velocity": 0.4330708661417323
        },
        {
          "duration": 0.12903199999999515,
          "durationTicks": 160,
          "midi": 46,
          "name": "A#2",
          "ticks": 175200,
          "time": 141.29004,
          "velocity": 0.4330708661417323
        },
        {
          "duration": 0.12903199999999515,
          "durationTicks": 160,
          "midi": 46,
          "name": "A#2",
          "ticks": 175680,
          "time": 141.677136,
          "velocity": 0.4330708661417323
        },
        {
          "duration": 0.12903199999999515,
          "durationTicks": 160,
          "midi": 46,
          "name": "A#2",
          "ticks": 176160,
          "time": 142.064232,
          "velocity": 0.4330708661417323
        },
        {
          "duration": 0.12903199999999515,
          "durationTicks": 160,
          "midi": 46,
          "name": "A#2",
          "ticks": 176640,
          "time": 142.451328,
          "velocity": 0.4330708661417323
        },
        {
          "duration": 0.12903199999999515,
          "durationTicks": 160,
          "midi": 46,
          "name": "A#2",
          "ticks": 177120,
          "time": 142.838424,
          "velocity": 0.4330708661417323
        },
        {
          "duration": 0.12903199999999515,
          "durationTicks": 160,
          "midi": 46,
          "name": "A#2",
          "ticks": 177600,
          "time": 143.22552,
          "velocity": 0.4330708661417323
        },
        {
          "duration": 0.38709599999998545,
          "durationTicks": 480,
          "midi": 55,
          "name": "G3",
          "ticks": 179040,
          "time": 144.386808,
          "velocity": 0.5511811023622047
        },
        {
          "duration": 0.3870960000000139,
          "durationTicks": 480,
          "midi": 53,
          "name": "F3",
          "ticks": 179520,
          "time": 144.773904,
          "velocity": 0.5511811023622047
        },
        {
          "duration": 0.38709599999998545,
          "durationTicks": 480,
          "midi": 56,
          "name": "G#3",
          "ticks": 180000,
          "time": 145.161,
          "velocity": 0.5511811023622047
        },
        {
          "duration": 0.3870960000000139,
          "durationTicks": 480,
          "midi": 55,
          "name": "G3",
          "ticks": 180480,
          "time": 145.548096,
          "velocity": 0.5511811023622047
        },
        {
          "duration": 0.38709599999998545,
          "durationTicks": 480,
          "midi": 51,
          "name": "D#3",
          "ticks": 180960,
          "time": 145.935192,
          "velocity": 0.5511811023622047
        },
        {
          "duration": 0.3870960000000139,
          "durationTicks": 480,
          "midi": 50,
          "name": "D3",
          "ticks": 181440,
          "time": 146.322288,
          "velocity": 0.5511811023622047
        },
        {
          "duration": 0.38709599999998545,
          "durationTicks": 480,
          "midi": 50,
          "name": "D3",
          "ticks": 181920,
          "time": 146.709384,
          "velocity": 0.5511811023622047
        },
        {
          "duration": 0.38709599999998545,
          "durationTicks": 480,
          "midi": 53,
          "name": "F3",
          "ticks": 181920,
          "time": 146.709384,
          "velocity": 0.5511811023622047
        },
        {
          "duration": 0.12903199999999515,
          "durationTicks": 160,
          "midi": 51,
          "name": "D#3",
          "ticks": 182400,
          "time": 147.09647999999999,
          "velocity": 0.5511811023622047
        },
        {
          "duration": 0.19354799999999273,
          "durationTicks": 240,
          "midi": 46,
          "name": "A#2",
          "ticks": 182640,
          "time": 147.290028,
          "velocity": 0.7086614173228346
        },
        {
          "duration": 0.19354799999999273,
          "durationTicks": 240,
          "midi": 48,
          "name": "C3",
          "ticks": 182880,
          "time": 147.483576,
          "velocity": 0.7086614173228346
        },
        {
          "duration": 0.19354799999999273,
          "durationTicks": 240,
          "midi": 44,
          "name": "G#2",
          "ticks": 183120,
          "time": 147.677124,
          "velocity": 0.7086614173228346
        },
        {
          "duration": 0.12903199999999515,
          "durationTicks": 160,
          "midi": 46,
          "name": "A#2",
          "ticks": 183360,
          "time": 147.87067199999998,
          "velocity": 0.7086614173228346
        },
        {
          "duration": 0.12903199999999515,
          "durationTicks": 160,
          "midi": 34,
          "name": "A#1",
          "ticks": 183840,
          "time": 148.257768,
          "velocity": 0.7086614173228346
        },
        {
          "duration": 0.12903199999999515,
          "durationTicks": 160,
          "midi": 39,
          "name": "D#2",
          "ticks": 184320,
          "time": 148.64486399999998,
          "velocity": 0.7086614173228346
        },
        {
          "duration": 0.12903199999999515,
          "durationTicks": 160,
          "midi": 39,
          "name": "D#2",
          "ticks": 184800,
          "time": 149.03196,
          "velocity": 0.7086614173228346
        },
        {
          "duration": 0.12903199999996673,
          "durationTicks": 160,
          "midi": 39,
          "name": "D#2",
          "ticks": 185280,
          "time": 149.419056,
          "velocity": 0.7086614173228346
        },
        {
          "duration": 0.12903199999996673,
          "durationTicks": 160,
          "midi": 39,
          "name": "D#2",
          "ticks": 186240,
          "time": 150.193248,
          "velocity": 0.4330708661417323
        },
        {
          "duration": 0.12903199999999515,
          "durationTicks": 160,
          "midi": 38,
          "name": "D2",
          "ticks": 188160,
          "time": 151.741632,
          "velocity": 0.4330708661417323
        },
        {
          "duration": 0.12903199999999515,
          "durationTicks": 160,
          "midi": 39,
          "name": "D#2",
          "ticks": 190080,
          "time": 153.290016,
          "velocity": 0.4330708661417323
        },
        {
          "duration": 0.12903199999999515,
          "durationTicks": 160,
          "midi": 32,
          "name": "G#1",
          "ticks": 191040,
          "time": 154.064208,
          "velocity": 0.4330708661417323
        },
        {
          "duration": 0.12903199999999515,
          "durationTicks": 160,
          "midi": 34,
          "name": "A#1",
          "ticks": 192000,
          "time": 154.8384,
          "velocity": 0.4330708661417323
        },
        {
          "duration": 0.12903199999999515,
          "durationTicks": 160,
          "midi": 46,
          "name": "A#2",
          "ticks": 197280,
          "time": 159.096456,
          "velocity": 0.4330708661417323
        },
        {
          "duration": 0.12903199999999515,
          "durationTicks": 160,
          "midi": 51,
          "name": "D#3",
          "ticks": 197760,
          "time": 159.483552,
          "velocity": 0.4330708661417323
        },
        {
          "duration": 0.12903199999999515,
          "durationTicks": 160,
          "midi": 39,
          "name": "D#2",
          "ticks": 198240,
          "time": 159.870648,
          "velocity": 0.4330708661417323
        },
        {
          "duration": 0.12903199999999515,
          "durationTicks": 160,
          "midi": 46,
          "name": "A#2",
          "ticks": 198720,
          "time": 160.257744,
          "velocity": 0.4330708661417323
        },
        {
          "duration": 0.12903199999999515,
          "durationTicks": 160,
          "midi": 34,
          "name": "A#1",
          "ticks": 199200,
          "time": 160.64484,
          "velocity": 0.4330708661417323
        },
        {
          "duration": 0.6129019999999912,
          "durationTicks": 760,
          "midi": 39,
          "name": "D#2",
          "ticks": 199680,
          "time": 161.031936,
          "velocity": 0.4330708661417323
        },
        {
          "duration": 0.38387019999998984,
          "durationTicks": 476,
          "midi": 47,
          "name": "B2",
          "ticks": 201600,
          "time": 162.58032,
          "velocity": 0.4330708661417323
        },
        {
          "duration": 0.12903199999999515,
          "durationTicks": 160,
          "midi": 48,
          "name": "C3",
          "ticks": 203520,
          "time": 164.128704,
          "velocity": 0.4330708661417323
        },
        {
          "duration": 0.12903199999999515,
          "durationTicks": 160,
          "midi": 45,
          "name": "A2",
          "ticks": 205440,
          "time": 165.677088,
          "velocity": 0.4330708661417323
        },
        {
          "duration": 0.12903199999999515,
          "durationTicks": 160,
          "midi": 46,
          "name": "A#2",
          "ticks": 207360,
          "time": 167.225472,
          "velocity": 0.4330708661417323
        },
        {
          "duration": 0.12903199999999515,
          "durationTicks": 160,
          "midi": 46,
          "name": "A#2",
          "ticks": 212640,
          "time": 171.483528,
          "velocity": 0.4330708661417323
        },
        {
          "duration": 0.12903199999999515,
          "durationTicks": 160,
          "midi": 51,
          "name": "D#3",
          "ticks": 213120,
          "time": 171.870624,
          "velocity": 0.4330708661417323
        },
        {
          "duration": 0.12903199999999515,
          "durationTicks": 160,
          "midi": 39,
          "name": "D#2",
          "ticks": 213600,
          "time": 172.25772,
          "velocity": 0.4330708661417323
        },
        {
          "duration": 0.12903199999999515,
          "durationTicks": 160,
          "midi": 46,
          "name": "A#2",
          "ticks": 214080,
          "time": 172.644816,
          "velocity": 0.4330708661417323
        },
        {
          "duration": 0.12903199999999515,
          "durationTicks": 160,
          "midi": 34,
          "name": "A#1",
          "ticks": 214560,
          "time": 173.031912,
          "velocity": 0.4330708661417323
        },
        {
          "duration": 0.6129019999999912,
          "durationTicks": 760,
          "midi": 39,
          "name": "D#2",
          "ticks": 215040,
          "time": 173.419008,
          "velocity": 0.4330708661417323
        },
        {
          "duration": 0.12903199999999515,
          "durationTicks": 160,
          "midi": 46,
          "name": "A#2",
          "ticks": 216960,
          "time": 174.967392,
          "velocity": 0.4330708661417323
        },
        {
          "duration": 0.12903199999999515,
          "durationTicks": 160,
          "midi": 46,
          "name": "A#2",
          "ticks": 217440,
          "time": 175.354488,
          "velocity": 0.4330708661417323
        },
        {
          "duration": 0.12903199999999515,
          "durationTicks": 160,
          "midi": 46,
          "name": "A#2",
          "ticks": 217920,
          "time": 175.741584,
          "velocity": 0.4330708661417323
        },
        {
          "duration": 0.12903199999999515,
          "durationTicks": 160,
          "midi": 46,
          "name": "A#2",
          "ticks": 218400,
          "time": 176.12868,
          "velocity": 0.4330708661417323
        },
        {
          "duration": 0.12903199999999515,
          "durationTicks": 160,
          "midi": 46,
          "name": "A#2",
          "ticks": 218880,
          "time": 176.515776,
          "velocity": 0.4330708661417323
        },
        {
          "duration": 0.12903199999999515,
          "durationTicks": 160,
          "midi": 46,
          "name": "A#2",
          "ticks": 219120,
          "time": 176.709324,
          "velocity": 0.4330708661417323
        },
        {
          "duration": 0.12903199999999515,
          "durationTicks": 160,
          "midi": 46,
          "name": "A#2",
          "ticks": 219360,
          "time": 176.902872,
          "velocity": 0.4330708661417323
        },
        {
          "duration": 0.12903199999999515,
          "durationTicks": 160,
          "midi": 46,
          "name": "A#2",
          "ticks": 219600,
          "time": 177.09642,
          "velocity": 0.4330708661417323
        },
        {
          "duration": 0.12903199999999515,
          "durationTicks": 160,
          "midi": 46,
          "name": "A#2",
          "ticks": 219840,
          "time": 177.289968,
          "velocity": 0.4330708661417323
        },
        {
          "duration": 0.12903199999999515,
          "durationTicks": 160,
          "midi": 46,
          "name": "A#2",
          "ticks": 220800,
          "time": 178.06416,
          "velocity": 0.4330708661417323
        },
        {
          "duration": 0.12903199999999515,
          "durationTicks": 160,
          "midi": 46,
          "name": "A#2",
          "ticks": 221280,
          "time": 178.451256,
          "velocity": 0.4330708661417323
        },
        {
          "duration": 0.12903199999999515,
          "durationTicks": 160,
          "midi": 46,
          "name": "A#2",
          "ticks": 221760,
          "time": 178.838352,
          "velocity": 0.4330708661417323
        },
        {
          "duration": 0.12903199999999515,
          "durationTicks": 160,
          "midi": 46,
          "name": "A#2",
          "ticks": 222240,
          "time": 179.225448,
          "velocity": 0.4330708661417323
        },
        {
          "duration": 0.12903199999999515,
          "durationTicks": 160,
          "midi": 46,
          "name": "A#2",
          "ticks": 222720,
          "time": 179.61254399999999,
          "velocity": 0.4330708661417323
        },
        {
          "duration": 0.12903199999999515,
          "durationTicks": 160,
          "midi": 46,
          "name": "A#2",
          "ticks": 222960,
          "time": 179.806092,
          "velocity": 0.4330708661417323
        },
        {
          "duration": 0.12903199999999515,
          "durationTicks": 160,
          "midi": 46,
          "name": "A#2",
          "ticks": 223200,
          "time": 179.99964,
          "velocity": 0.4330708661417323
        },
        {
          "duration": 0.12903199999999515,
          "durationTicks": 160,
          "midi": 46,
          "name": "A#2",
          "ticks": 223440,
          "time": 180.193188,
          "velocity": 0.4330708661417323
        },
        {
          "duration": 0.12903199999999515,
          "durationTicks": 160,
          "midi": 46,
          "name": "A#2",
          "ticks": 223680,
          "time": 180.38673599999998,
          "velocity": 0.4330708661417323
        },
        {
          "duration": 0.12903199999999515,
          "durationTicks": 160,
          "midi": 43,
          "name": "G2",
          "ticks": 225120,
          "time": 181.548024,
          "velocity": 0.5511811023622047
        },
        {
          "duration": 0.12903199999999515,
          "durationTicks": 160,
          "midi": 39,
          "name": "D#2",
          "ticks": 225360,
          "time": 181.741572,
          "velocity": 0.5511811023622047
        },
        {
          "duration": 0.12903199999996673,
          "durationTicks": 160,
          "midi": 44,
          "name": "G#2",
          "ticks": 225600,
          "time": 181.93512,
          "velocity": 0.5511811023622047
        },
        {
          "duration": 0.12903199999999515,
          "durationTicks": 160,
          "midi": 41,
          "name": "F2",
          "ticks": 225840,
          "time": 182.128668,
          "velocity": 0.5511811023622047
        },
        {
          "duration": 0.12903199999999515,
          "durationTicks": 160,
          "midi": 38,
          "name": "D2",
          "ticks": 226080,
          "time": 182.322216,
          "velocity": 0.5511811023622047
        },
        {
          "duration": 0.12903199999999515,
          "durationTicks": 160,
          "midi": 50,
          "name": "D3",
          "ticks": 226320,
          "time": 182.515764,
          "velocity": 0.5511811023622047
        },
        {
          "duration": 0.12903199999996673,
          "durationTicks": 160,
          "midi": 51,
          "name": "D#3",
          "ticks": 226560,
          "time": 182.709312,
          "velocity": 0.5511811023622047
        },
        {
          "duration": 0.12903199999999515,
          "durationTicks": 160,
          "midi": 46,
          "name": "A#2",
          "ticks": 226800,
          "time": 182.90286,
          "velocity": 0.5511811023622047
        },
        {
          "duration": 0.12903199999999515,
          "durationTicks": 160,
          "midi": 43,
          "name": "G2",
          "ticks": 227040,
          "time": 183.096408,
          "velocity": 0.5511811023622047
        },
        {
          "duration": 0.12903199999999515,
          "durationTicks": 160,
          "midi": 39,
          "name": "D#2",
          "ticks": 227280,
          "time": 183.289956,
          "velocity": 0.5511811023622047
        },
        {
          "duration": 0.12903199999996673,
          "durationTicks": 160,
          "midi": 44,
          "name": "G#2",
          "ticks": 227520,
          "time": 183.483504,
          "velocity": 0.5511811023622047
        },
        {
          "duration": 0.12903199999999515,
          "durationTicks": 160,
          "midi": 41,
          "name": "F2",
          "ticks": 227760,
          "time": 183.677052,
          "velocity": 0.5511811023622047
        },
        {
          "duration": 0.12903199999999515,
          "durationTicks": 160,
          "midi": 38,
          "name": "D2",
          "ticks": 228000,
          "time": 183.8706,
          "velocity": 0.5511811023622047
        },
        {
          "duration": 0.12903199999999515,
          "durationTicks": 160,
          "midi": 50,
          "name": "D3",
          "ticks": 228240,
          "time": 184.064148,
          "velocity": 0.5511811023622047
        },
        {
          "duration": 0.12903199999996673,
          "durationTicks": 160,
          "midi": 51,
          "name": "D#3",
          "ticks": 228480,
          "time": 184.257696,
          "velocity": 0.5511811023622047
        },
        {
          "duration": 0.19354799999999273,
          "durationTicks": 240,
          "midi": 47,
          "name": "B2",
          "ticks": 228720,
          "time": 184.451244,
          "velocity": 0.7086614173228346
        },
        {
          "duration": 0.19354799999999273,
          "durationTicks": 240,
          "midi": 48,
          "name": "C3",
          "ticks": 228960,
          "time": 184.644792,
          "velocity": 0.7086614173228346
        },
        {
          "duration": 0.19354800000002115,
          "durationTicks": 240,
          "midi": 44,
          "name": "G#2",
          "ticks": 229200,
          "time": 184.83834,
          "velocity": 0.7086614173228346
        },
        {
          "duration": 0.1903221999999971,
          "durationTicks": 236,
          "midi": 46,
          "name": "A#2",
          "ticks": 229440,
          "time": 185.031888,
          "velocity": 0.7086614173228346
        },
        {
          "duration": 0.12903199999999515,
          "durationTicks": 160,
          "midi": 46,
          "name": "A#2",
          "ticks": 229680,
          "time": 185.225436,
          "velocity": 0.7086614173228346
        },
        {
          "duration": 0.12903199999999515,
          "durationTicks": 160,
          "midi": 34,
          "name": "A#1",
          "ticks": 229920,
          "time": 185.418984,
          "velocity": 0.7086614173228346
        },
        {
          "duration": 0.12903199999999515,
          "durationTicks": 160,
          "midi": 34,
          "name": "A#1",
          "ticks": 230160,
          "time": 185.612532,
          "velocity": 0.7086614173228346
        },
        {
          "duration": 0.12903199999999515,
          "durationTicks": 160,
          "midi": 39,
          "name": "D#2",
          "ticks": 230400,
          "time": 185.80608,
          "velocity": 0.7086614173228346
        },
        {
          "duration": 0.12903199999999515,
          "durationTicks": 160,
          "midi": 43,
          "name": "G2",
          "ticks": 230640,
          "time": 185.999628,
          "velocity": 0.7086614173228346
        },
        {
          "duration": 0.12903199999999515,
          "durationTicks": 160,
          "midi": 46,
          "name": "A#2",
          "ticks": 230880,
          "time": 186.193176,
          "velocity": 0.7086614173228346
        },
        {
          "duration": 0.12903199999999515,
          "durationTicks": 160,
          "midi": 43,
          "name": "G2",
          "ticks": 231120,
          "time": 186.386724,
          "velocity": 0.7086614173228346
        },
        {
          "duration": 0.12903199999999515,
          "durationTicks": 160,
          "midi": 39,
          "name": "D#2",
          "ticks": 231360,
          "time": 186.580272,
          "velocity": 0.7086614173228346
        },
        {
          "duration": 0.12903199999999515,
          "durationTicks": 160,
          "midi": 39,
          "name": "D#2",
          "ticks": 232320,
          "time": 187.354464,
          "velocity": 0.4330708661417323
        },
        {
          "duration": 0.12903199999999515,
          "durationTicks": 160,
          "midi": 44,
          "name": "G#2",
          "ticks": 233760,
          "time": 188.515752,
          "velocity": 0.4330708661417323
        },
        {
          "duration": 0.12903199999999515,
          "durationTicks": 160,
          "midi": 46,
          "name": "A#2",
          "ticks": 234240,
          "time": 188.902848,
          "velocity": 0.4330708661417323
        },
        {
          "duration": 0.1370965000000126,
          "durationTicks": 170,
          "midi": 34,
          "name": "A#1",
          "ticks": 235680,
          "time": 190.064136,
          "velocity": 0.4330708661417323
        },
        {
          "duration": 0.12903199999999515,
          "durationTicks": 160,
          "midi": 36,
          "name": "C2",
          "ticks": 236160,
          "time": 190.451232,
          "velocity": 0.4330708661417323
        },
        {
          "duration": 0.12903199999999515,
          "durationTicks": 160,
          "midi": 32,
          "name": "G#1",
          "ticks": 237120,
          "time": 191.225424,
          "velocity": 0.4330708661417323
        },
        {
          "duration": 0.9999979999999766,
          "durationTicks": 1240,
          "midi": 34,
          "name": "A#1",
          "ticks": 238080,
          "time": 191.999616,
          "velocity": 0.4330708661417323
        },
        {
          "duration": 0.12903199999999515,
          "durationTicks": 160,
          "midi": 46,
          "name": "A#2",
          "ticks": 240000,
          "time": 193.548,
          "velocity": 0.4330708661417323
        },
        {
          "duration": 0.12903199999999515,
          "durationTicks": 160,
          "midi": 44,
          "name": "G#2",
          "ticks": 240960,
          "time": 194.322192,
          "velocity": 0.4330708661417323
        },
        {
          "duration": 0.12903199999999515,
          "durationTicks": 160,
          "midi": 44,
          "name": "G#2",
          "ticks": 241920,
          "time": 195.096384,
          "velocity": 0.4330708661417323
        },
        {
          "duration": 0.12903199999999515,
          "durationTicks": 160,
          "midi": 43,
          "name": "G2",
          "ticks": 242880,
          "time": 195.870576,
          "velocity": 0.4330708661417323
        },
        {
          "duration": 0.12903199999999515,
          "durationTicks": 160,
          "midi": 44,
          "name": "G#2",
          "ticks": 243840,
          "time": 196.644768,
          "velocity": 0.4330708661417323
        },
        {
          "duration": 0.12903199999999515,
          "durationTicks": 160,
          "midi": 46,
          "name": "A#2",
          "ticks": 244800,
          "time": 197.41896,
          "velocity": 0.4330708661417323
        },
        {
          "duration": 0.12903200000002357,
          "durationTicks": 160,
          "midi": 39,
          "name": "D#2",
          "ticks": 245760,
          "time": 198.193152,
          "velocity": 0.4330708661417323
        },
        {
          "duration": 0.12903199999999515,
          "durationTicks": 160,
          "midi": 39,
          "name": "D#2",
          "ticks": 246240,
          "time": 198.580248,
          "velocity": 0.4330708661417323
        },
        {
          "duration": 0.12903200000002357,
          "durationTicks": 160,
          "midi": 39,
          "name": "D#2",
          "ticks": 246720,
          "time": 198.967344,
          "velocity": 0.4330708661417323
        },
        {
          "duration": 0.3870960000000139,
          "durationTicks": 480,
          "midi": 35,
          "name": "B1",
          "ticks": 247680,
          "time": 199.741536,
          "velocity": 0.4330708661417323
        },
        {
          "duration": 0.38709599999998545,
          "durationTicks": 480,
          "midi": 38,
          "name": "D2",
          "ticks": 248160,
          "time": 200.128632,
          "velocity": 0.4330708661417323
        },
        {
          "duration": 0.12903200000002357,
          "durationTicks": 160,
          "midi": 43,
          "name": "G2",
          "ticks": 248640,
          "time": 200.515728,
          "velocity": 0.4330708661417323
        },
        {
          "duration": 0.3870960000000139,
          "durationTicks": 480,
          "midi": 36,
          "name": "C2",
          "ticks": 249600,
          "time": 201.28992,
          "velocity": 0.4330708661417323
        },
        {
          "duration": 0.38709599999998545,
          "durationTicks": 480,
          "midi": 43,
          "name": "G2",
          "ticks": 250080,
          "time": 201.677016,
          "velocity": 0.4330708661417323
        },
        {
          "duration": 0.12903200000002357,
          "durationTicks": 160,
          "midi": 48,
          "name": "C3",
          "ticks": 250560,
          "time": 202.064112,
          "velocity": 0.4330708661417323
        },
        {
          "duration": 0.3870960000000139,
          "durationTicks": 480,
          "midi": 33,
          "name": "A1",
          "ticks": 251520,
          "time": 202.838304,
          "velocity": 0.4330708661417323
        },
        {
          "duration": 0.38709599999998545,
          "durationTicks": 480,
          "midi": 36,
          "name": "C2",
          "ticks": 252000,
          "time": 203.2254,
          "velocity": 0.4330708661417323
        },
        {
          "duration": 0.12903200000002357,
          "durationTicks": 160,
          "midi": 41,
          "name": "F2",
          "ticks": 252480,
          "time": 203.612496,
          "velocity": 0.4330708661417323
        },
        {
          "duration": 0.3870960000000139,
          "durationTicks": 480,
          "midi": 34,
          "name": "A#1",
          "ticks": 253440,
          "time": 204.386688,
          "velocity": 0.4330708661417323
        },
        {
          "duration": 0.38709599999998545,
          "durationTicks": 480,
          "midi": 41,
          "name": "F2",
          "ticks": 253920,
          "time": 204.773784,
          "velocity": 0.4330708661417323
        },
        {
          "duration": 0.12903200000002357,
          "durationTicks": 160,
          "midi": 46,
          "name": "A#2",
          "ticks": 254400,
          "time": 205.16088,
          "velocity": 0.4330708661417323
        },
        {
          "duration": 0.12903200000002357,
          "durationTicks": 160,
          "midi": 46,
          "name": "A#2",
          "ticks": 255360,
          "time": 205.935072,
          "velocity": 0.4330708661417323
        },
        {
          "duration": 0.12903200000002357,
          "durationTicks": 160,
          "midi": 44,
          "name": "G#2",
          "ticks": 256320,
          "time": 206.709264,
          "velocity": 0.4330708661417323
        },
        {
          "duration": 0.12903200000002357,
          "durationTicks": 160,
          "midi": 44,
          "name": "G#2",
          "ticks": 257280,
          "time": 207.483456,
          "velocity": 0.4330708661417323
        },
        {
          "duration": 0.12903200000002357,
          "durationTicks": 160,
          "midi": 43,
          "name": "G2",
          "ticks": 258240,
          "time": 208.257648,
          "velocity": 0.4330708661417323
        },
        {
          "duration": 0.12903200000002357,
          "durationTicks": 160,
          "midi": 44,
          "name": "G#2",
          "ticks": 259200,
          "time": 209.03184,
          "velocity": 0.4330708661417323
        },
        {
          "duration": 0.12903200000002357,
          "durationTicks": 160,
          "midi": 46,
          "name": "A#2",
          "ticks": 260160,
          "time": 209.806032,
          "velocity": 0.4330708661417323
        },
        {
          "duration": 0.12903200000002357,
          "durationTicks": 160,
          "midi": 39,
          "name": "D#2",
          "ticks": 261120,
          "time": 210.580224,
          "velocity": 0.4330708661417323
        },
        {
          "duration": 0.12903200000002357,
          "durationTicks": 160,
          "midi": 39,
          "name": "D#2",
          "ticks": 261600,
          "time": 210.96732,
          "velocity": 0.4330708661417323
        },
        {
          "duration": 0.12903200000002357,
          "durationTicks": 160,
          "midi": 39,
          "name": "D#2",
          "ticks": 262080,
          "time": 211.354416,
          "velocity": 0.4330708661417323
        },
        {
          "duration": 0.12903200000002357,
          "durationTicks": 160,
          "midi": 46,
          "name": "A#2",
          "ticks": 263040,
          "time": 212.12860799999999,
          "velocity": 0.4330708661417323
        },
        {
          "duration": 0.12903200000002357,
          "durationTicks": 160,
          "midi": 46,
          "name": "A#2",
          "ticks": 263520,
          "time": 212.515704,
          "velocity": 0.4330708661417323
        },
        {
          "duration": 0.12903200000002357,
          "durationTicks": 160,
          "midi": 46,
          "name": "A#2",
          "ticks": 264000,
          "time": 212.90279999999998,
          "velocity": 0.4330708661417323
        },
        {
          "duration": 0.12903200000002357,
          "durationTicks": 160,
          "midi": 46,
          "name": "A#2",
          "ticks": 264480,
          "time": 213.289896,
          "velocity": 0.4330708661417323
        },
        {
          "duration": 0.12903200000002357,
          "durationTicks": 160,
          "midi": 46,
          "name": "A#2",
          "ticks": 264960,
          "time": 213.67699199999998,
          "velocity": 0.4330708661417323
        },
        {
          "duration": 0.12903199999999515,
          "durationTicks": 160,
          "midi": 46,
          "name": "A#2",
          "ticks": 265200,
          "time": 213.87054,
          "velocity": 0.4330708661417323
        },
        {
          "duration": 0.12903200000002357,
          "durationTicks": 160,
          "midi": 46,
          "name": "A#2",
          "ticks": 265440,
          "time": 214.064088,
          "velocity": 0.4330708661417323
        },
        {
          "duration": 0.12903200000002357,
          "durationTicks": 160,
          "midi": 46,
          "name": "A#2",
          "ticks": 265680,
          "time": 214.257636,
          "velocity": 0.4330708661417323
        },
        {
          "duration": 0.12903200000002357,
          "durationTicks": 160,
          "midi": 46,
          "name": "A#2",
          "ticks": 265920,
          "time": 214.45118399999998,
          "velocity": 0.4330708661417323
        },
        {
          "duration": 0.12903199999999515,
          "durationTicks": 160,
          "midi": 46,
          "name": "A#2",
          "ticks": 266880,
          "time": 215.225376,
          "velocity": 0.4330708661417323
        },
        {
          "duration": 0.12903200000002357,
          "durationTicks": 160,
          "midi": 46,
          "name": "A#2",
          "ticks": 267360,
          "time": 215.612472,
          "velocity": 0.4330708661417323
        },
        {
          "duration": 0.12903199999999515,
          "durationTicks": 160,
          "midi": 46,
          "name": "A#2",
          "ticks": 267840,
          "time": 215.999568,
          "velocity": 0.4330708661417323
        },
        {
          "duration": 0.12903200000002357,
          "durationTicks": 160,
          "midi": 46,
          "name": "A#2",
          "ticks": 268320,
          "time": 216.386664,
          "velocity": 0.4330708661417323
        },
        {
          "duration": 0.12903199999999515,
          "durationTicks": 160,
          "midi": 46,
          "name": "A#2",
          "ticks": 268800,
          "time": 216.77376,
          "velocity": 0.4330708661417323
        },
        {
          "duration": 0.12903200000002357,
          "durationTicks": 160,
          "midi": 46,
          "name": "A#2",
          "ticks": 269040,
          "time": 216.967308,
          "velocity": 0.4330708661417323
        },
        {
          "duration": 0.12903200000002357,
          "durationTicks": 160,
          "midi": 46,
          "name": "A#2",
          "ticks": 269280,
          "time": 217.160856,
          "velocity": 0.4330708661417323
        },
        {
          "duration": 0.12903200000002357,
          "durationTicks": 160,
          "midi": 46,
          "name": "A#2",
          "ticks": 269520,
          "time": 217.354404,
          "velocity": 0.4330708661417323
        },
        {
          "duration": 0.12903199999999515,
          "durationTicks": 160,
          "midi": 46,
          "name": "A#2",
          "ticks": 269760,
          "time": 217.547952,
          "velocity": 0.4330708661417323
        },
        {
          "duration": 0.12903200000002357,
          "durationTicks": 160,
          "midi": 43,
          "name": "G2",
          "ticks": 271200,
          "time": 218.70924,
          "velocity": 0.5511811023622047
        },
        {
          "duration": 0.12903200000002357,
          "durationTicks": 160,
          "midi": 39,
          "name": "D#2",
          "ticks": 271440,
          "time": 218.902788,
          "velocity": 0.5511811023622047
        },
        {
          "duration": 0.12903199999999515,
          "durationTicks": 160,
          "midi": 44,
          "name": "G#2",
          "ticks": 271680,
          "time": 219.096336,
          "velocity": 0.5511811023622047
        },
        {
          "duration": 0.12903200000002357,
          "durationTicks": 160,
          "midi": 41,
          "name": "F2",
          "ticks": 271920,
          "time": 219.289884,
          "velocity": 0.5511811023622047
        },
        {
          "duration": 0.12903200000002357,
          "durationTicks": 160,
          "midi": 38,
          "name": "D2",
          "ticks": 272160,
          "time": 219.483432,
          "velocity": 0.5511811023622047
        },
        {
          "duration": 0.12903200000002357,
          "durationTicks": 160,
          "midi": 50,
          "name": "D3",
          "ticks": 272400,
          "time": 219.67698,
          "velocity": 0.5511811023622047
        },
        {
          "duration": 0.12903199999999515,
          "durationTicks": 160,
          "midi": 51,
          "name": "D#3",
          "ticks": 272640,
          "time": 219.870528,
          "velocity": 0.5511811023622047
        },
        {
          "duration": 0.12903200000002357,
          "durationTicks": 160,
          "midi": 46,
          "name": "A#2",
          "ticks": 272880,
          "time": 220.064076,
          "velocity": 0.5511811023622047
        },
        {
          "duration": 0.12903200000002357,
          "durationTicks": 160,
          "midi": 43,
          "name": "G2",
          "ticks": 273120,
          "time": 220.257624,
          "velocity": 0.5511811023622047
        },
        {
          "duration": 0.12903200000002357,
          "durationTicks": 160,
          "midi": 39,
          "name": "D#2",
          "ticks": 273360,
          "time": 220.45117199999999,
          "velocity": 0.5511811023622047
        },
        {
          "duration": 0.12903199999999515,
          "durationTicks": 160,
          "midi": 44,
          "name": "G#2",
          "ticks": 273600,
          "time": 220.64472,
          "velocity": 0.5511811023622047
        },
        {
          "duration": 0.12903200000002357,
          "durationTicks": 160,
          "midi": 41,
          "name": "F2",
          "ticks": 273840,
          "time": 220.838268,
          "velocity": 0.5511811023622047
        },
        {
          "duration": 0.12903200000002357,
          "durationTicks": 160,
          "midi": 38,
          "name": "D2",
          "ticks": 274080,
          "time": 221.031816,
          "velocity": 0.5511811023622047
        },
        {
          "duration": 0.12903200000002357,
          "durationTicks": 160,
          "midi": 50,
          "name": "D3",
          "ticks": 274320,
          "time": 221.22536399999998,
          "velocity": 0.5511811023622047
        },
        {
          "duration": 0.12903199999999515,
          "durationTicks": 160,
          "midi": 51,
          "name": "D#3",
          "ticks": 274560,
          "time": 221.418912,
          "velocity": 0.5511811023622047
        },
        {
          "duration": 0.19354799999999273,
          "durationTicks": 240,
          "midi": 47,
          "name": "B2",
          "ticks": 274800,
          "time": 221.61246,
          "velocity": 0.7086614173228346
        },
        {
          "duration": 0.19354799999999273,
          "durationTicks": 240,
          "midi": 48,
          "name": "C3",
          "ticks": 275040,
          "time": 221.806008,
          "velocity": 0.7086614173228346
        },
        {
          "duration": 0.19354800000002115,
          "durationTicks": 240,
          "midi": 44,
          "name": "G#2",
          "ticks": 275280,
          "time": 221.99955599999998,
          "velocity": 0.7086614173228346
        },
        {
          "duration": 0.12903199999999515,
          "durationTicks": 160,
          "midi": 46,
          "name": "A#2",
          "ticks": 275520,
          "time": 222.193104,
          "velocity": 0.7086614173228346
        },
        {
          "duration": 0.12903200000002357,
          "durationTicks": 160,
          "midi": 34,
          "name": "A#1",
          "ticks": 276000,
          "time": 222.5802,
          "velocity": 0.7086614173228346
        },
        {
          "duration": 0.12903199999999515,
          "durationTicks": 160,
          "midi": 39,
          "name": "D#2",
          "ticks": 276480,
          "time": 222.967296,
          "velocity": 0.7086614173228346
        },
        {
          "duration": 0.12903200000002357,
          "durationTicks": 160,
          "midi": 39,
          "name": "D#2",
          "ticks": 276960,
          "time": 223.354392,
          "velocity": 0.7086614173228346
        },
        {
          "duration": 0.12903199999999515,
          "durationTicks": 160,
          "midi": 39,
          "name": "D#2",
          "ticks": 277440,
          "time": 223.741488,
          "velocity": 0.7086614173228346
        },
        {
          "duration": 0.12903199999999515,
          "durationTicks": 160,
          "midi": 39,
          "name": "D#2",
          "ticks": 278400,
          "time": 224.51568,
          "velocity": 0.4330708661417323
        },
        {
          "duration": 0.12903200000002357,
          "durationTicks": 160,
          "midi": 43,
          "name": "G2",
          "ticks": 279840,
          "time": 225.676968,
          "velocity": 0.4330708661417323
        },
        {
          "duration": 0.12903200000002357,
          "durationTicks": 160,
          "midi": 46,
          "name": "A#2",
          "ticks": 280320,
          "time": 226.064064,
          "velocity": 0.4330708661417323
        },
        {
          "duration": 0.12903200000002357,
          "durationTicks": 160,
          "midi": 34,
          "name": "A#1",
          "ticks": 281760,
          "time": 227.225352,
          "velocity": 0.4330708661417323
        },
        {
          "duration": 0.12903200000002357,
          "durationTicks": 160,
          "midi": 39,
          "name": "D#2",
          "ticks": 282240,
          "time": 227.612448,
          "velocity": 0.4330708661417323
        },
        {
          "duration": 0.12903200000002357,
          "durationTicks": 160,
          "midi": 32,
          "name": "G#1",
          "ticks": 283200,
          "time": 228.38664,
          "velocity": 0.4330708661417323
        },
        {
          "duration": 0.12903200000002357,
          "durationTicks": 160,
          "midi": 44,
          "name": "G#2",
          "ticks": 283680,
          "time": 228.77373599999999,
          "velocity": 0.4330708661417323
        },
        {
          "duration": 0.12903200000002357,
          "durationTicks": 160,
          "midi": 46,
          "name": "A#2",
          "ticks": 284160,
          "time": 229.160832,
          "velocity": 0.4330708661417323
        },
        {
          "duration": 0.12903200000002357,
          "durationTicks": 160,
          "midi": 46,
          "name": "A#2",
          "ticks": 284640,
          "time": 229.54792799999998,
          "velocity": 0.4330708661417323
        },
        {
          "duration": 3.709670000000017,
          "durationTicks": 4600,
          "midi": 46,
          "name": "A#2",
          "ticks": 285120,
          "time": 229.935024,
          "velocity": 0.4330708661417323
        },
        {
          "duration": 0.6129020000000196,
          "durationTicks": 760,
          "midi": 44,
          "name": "G#2",
          "ticks": 289920,
          "time": 233.805984,
          "velocity": 0.4330708661417323
        },
        {
          "duration": 0.12903200000002357,
          "durationTicks": 160,
          "midi": 46,
          "name": "A#2",
          "ticks": 290880,
          "time": 234.580176,
          "velocity": 0.4330708661417323
        },
        {
          "duration": 0.12903199999999515,
          "durationTicks": 160,
          "midi": 34,
          "name": "A#1",
          "ticks": 291360,
          "time": 234.967272,
          "velocity": 0.4330708661417323
        },
        {
          "duration": 0.6129020000000196,
          "durationTicks": 760,
          "midi": 39,
          "name": "D#2",
          "ticks": 291840,
          "time": 235.354368,
          "velocity": 0.4330708661417323
        },
        {
          "duration": 0.3870960000000139,
          "durationTicks": 480,
          "midi": 48,
          "name": "C3",
          "ticks": 295680,
          "time": 238.451136,
          "velocity": 0.4330708661417323
        },
        {
          "duration": 0.38709599999998545,
          "durationTicks": 480,
          "midi": 43,
          "name": "G2",
          "ticks": 296160,
          "time": 238.838232,
          "velocity": 0.4330708661417323
        },
        {
          "duration": 0.12903200000002357,
          "durationTicks": 160,
          "midi": 36,
          "name": "C2",
          "ticks": 296640,
          "time": 239.225328,
          "velocity": 0.4330708661417323
        },
        {
          "duration": 0.12903200000002357,
          "durationTicks": 160,
          "midi": 46,
          "name": "A#2",
          "ticks": 299520,
          "time": 241.547904,
          "velocity": 0.4330708661417323
        },
        {
          "duration": 0.12903200000002357,
          "durationTicks": 160,
          "midi": 41,
          "name": "F2",
          "ticks": 300000,
          "time": 241.935,
          "velocity": 0.4330708661417323
        },
        {
          "duration": 3.709670000000017,
          "durationTicks": 4600,
          "midi": 34,
          "name": "A#1",
          "ticks": 300480,
          "time": 242.322096,
          "velocity": 0.4330708661417323
        },
        {
          "duration": 0.6129020000000196,
          "durationTicks": 760,
          "midi": 32,
          "name": "G#1",
          "ticks": 305280,
          "time": 246.19305599999998,
          "velocity": 0.4330708661417323
        },
        {
          "duration": 0.12903200000002357,
          "durationTicks": 160,
          "midi": 34,
          "name": "A#1",
          "ticks": 306240,
          "time": 246.96724799999998,
          "velocity": 0.4330708661417323
        },
        {
          "duration": 0.12903200000002357,
          "durationTicks": 160,
          "midi": 34,
          "name": "A#1",
          "ticks": 306720,
          "time": 247.354344,
          "velocity": 0.4330708661417323
        },
        {
          "duration": 0.6129019999999912,
          "durationTicks": 760,
          "midi": 39,
          "name": "D#2",
          "ticks": 307200,
          "time": 247.74144,
          "velocity": 0.4330708661417323
        },
        {
          "duration": 0.12903199999999515,
          "durationTicks": 160,
          "midi": 46,
          "name": "A#2",
          "ticks": 309120,
          "time": 249.289824,
          "velocity": 0.4330708661417323
        },
        {
          "duration": 0.12903200000002357,
          "durationTicks": 160,
          "midi": 46,
          "name": "A#2",
          "ticks": 309600,
          "time": 249.67692,
          "velocity": 0.4330708661417323
        },
        {
          "duration": 0.12903199999999515,
          "durationTicks": 160,
          "midi": 46,
          "name": "A#2",
          "ticks": 310080,
          "time": 250.064016,
          "velocity": 0.4330708661417323
        },
        {
          "duration": 0.12903200000002357,
          "durationTicks": 160,
          "midi": 46,
          "name": "A#2",
          "ticks": 310560,
          "time": 250.451112,
          "velocity": 0.4330708661417323
        },
        {
          "duration": 0.12903199999999515,
          "durationTicks": 160,
          "midi": 46,
          "name": "A#2",
          "ticks": 311040,
          "time": 250.838208,
          "velocity": 0.4330708661417323
        },
        {
          "duration": 0.12903200000002357,
          "durationTicks": 160,
          "midi": 46,
          "name": "A#2",
          "ticks": 311280,
          "time": 251.031756,
          "velocity": 0.4330708661417323
        },
        {
          "duration": 0.12903200000002357,
          "durationTicks": 160,
          "midi": 46,
          "name": "A#2",
          "ticks": 311520,
          "time": 251.225304,
          "velocity": 0.4330708661417323
        },
        {
          "duration": 0.12903200000002357,
          "durationTicks": 160,
          "midi": 46,
          "name": "A#2",
          "ticks": 311760,
          "time": 251.418852,
          "velocity": 0.4330708661417323
        },
        {
          "duration": 0.12903199999999515,
          "durationTicks": 160,
          "midi": 46,
          "name": "A#2",
          "ticks": 312000,
          "time": 251.6124,
          "velocity": 0.4330708661417323
        },
        {
          "duration": 0.12903199999999515,
          "durationTicks": 160,
          "midi": 46,
          "name": "A#2",
          "ticks": 312960,
          "time": 252.386592,
          "velocity": 0.4330708661417323
        },
        {
          "duration": 0.12903200000002357,
          "durationTicks": 160,
          "midi": 46,
          "name": "A#2",
          "ticks": 313440,
          "time": 252.773688,
          "velocity": 0.4330708661417323
        },
        {
          "duration": 0.12903199999999515,
          "durationTicks": 160,
          "midi": 46,
          "name": "A#2",
          "ticks": 313920,
          "time": 253.160784,
          "velocity": 0.4330708661417323
        },
        {
          "duration": 0.12903200000002357,
          "durationTicks": 160,
          "midi": 46,
          "name": "A#2",
          "ticks": 314400,
          "time": 253.54788,
          "velocity": 0.4330708661417323
        },
        {
          "duration": 0.12903199999999515,
          "durationTicks": 160,
          "midi": 46,
          "name": "A#2",
          "ticks": 314880,
          "time": 253.934976,
          "velocity": 0.4330708661417323
        },
        {
          "duration": 0.12903200000002357,
          "durationTicks": 160,
          "midi": 46,
          "name": "A#2",
          "ticks": 315120,
          "time": 254.128524,
          "velocity": 0.4330708661417323
        },
        {
          "duration": 0.12903200000002357,
          "durationTicks": 160,
          "midi": 46,
          "name": "A#2",
          "ticks": 315360,
          "time": 254.322072,
          "velocity": 0.4330708661417323
        },
        {
          "duration": 0.12903200000002357,
          "durationTicks": 160,
          "midi": 46,
          "name": "A#2",
          "ticks": 315600,
          "time": 254.51561999999998,
          "velocity": 0.4330708661417323
        },
        {
          "duration": 0.12903199999999515,
          "durationTicks": 160,
          "midi": 46,
          "name": "A#2",
          "ticks": 315840,
          "time": 254.709168,
          "velocity": 0.4330708661417323
        },
        {
          "duration": 0.12903200000002357,
          "durationTicks": 160,
          "midi": 43,
          "name": "G2",
          "ticks": 317280,
          "time": 255.870456,
          "velocity": 0.5511811023622047
        },
        {
          "duration": 0.12903199999999515,
          "durationTicks": 160,
          "midi": 39,
          "name": "D#2",
          "ticks": 317520,
          "time": 256.064004,
          "velocity": 0.5511811023622047
        },
        {
          "duration": 0.129032000000052,
          "durationTicks": 160,
          "midi": 44,
          "name": "G#2",
          "ticks": 317760,
          "time": 256.257552,
          "velocity": 0.5511811023622047
        },
        {
          "duration": 0.12903199999999515,
          "durationTicks": 160,
          "midi": 41,
          "name": "F2",
          "ticks": 318000,
          "time": 256.4511,
          "velocity": 0.5511811023622047
        },
        {
          "duration": 0.12903199999999515,
          "durationTicks": 160,
          "midi": 38,
          "name": "D2",
          "ticks": 318240,
          "time": 256.644648,
          "velocity": 0.5511811023622047
        },
        {
          "duration": 0.129032000000052,
          "durationTicks": 160,
          "midi": 50,
          "name": "D3",
          "ticks": 318480,
          "time": 256.838196,
          "velocity": 0.5511811023622047
        },
        {
          "duration": 0.12903199999999515,
          "durationTicks": 160,
          "midi": 51,
          "name": "D#3",
          "ticks": 318720,
          "time": 257.031744,
          "velocity": 0.5511811023622047
        },
        {
          "duration": 0.12903199999999515,
          "durationTicks": 160,
          "midi": 46,
          "name": "A#2",
          "ticks": 318960,
          "time": 257.225292,
          "velocity": 0.5511811023622047
        },
        {
          "duration": 0.12903199999999515,
          "durationTicks": 160,
          "midi": 43,
          "name": "G2",
          "ticks": 319200,
          "time": 257.41884,
          "velocity": 0.5511811023622047
        },
        {
          "duration": 0.12903199999999515,
          "durationTicks": 160,
          "midi": 39,
          "name": "D#2",
          "ticks": 319440,
          "time": 257.612388,
          "velocity": 0.5511811023622047
        },
        {
          "duration": 0.129032000000052,
          "durationTicks": 160,
          "midi": 44,
          "name": "G#2",
          "ticks": 319680,
          "time": 257.805936,
          "velocity": 0.5511811023622047
        },
        {
          "duration": 0.12903199999999515,
          "durationTicks": 160,
          "midi": 41,
          "name": "F2",
          "ticks": 319920,
          "time": 257.999484,
          "velocity": 0.5511811023622047
        },
        {
          "duration": 0.12903199999999515,
          "durationTicks": 160,
          "midi": 38,
          "name": "D2",
          "ticks": 320160,
          "time": 258.193032,
          "velocity": 0.5511811023622047
        },
        {
          "duration": 0.129032000000052,
          "durationTicks": 160,
          "midi": 50,
          "name": "D3",
          "ticks": 320400,
          "time": 258.38658,
          "velocity": 0.5511811023622047
        },
        {
          "duration": 0.12903199999999515,
          "durationTicks": 160,
          "midi": 51,
          "name": "D#3",
          "ticks": 320640,
          "time": 258.580128,
          "velocity": 0.5511811023622047
        },
        {
          "duration": 0.1935479999999643,
          "durationTicks": 240,
          "midi": 47,
          "name": "B2",
          "ticks": 320880,
          "time": 258.773676,
          "velocity": 0.7086614173228346
        },
        {
          "duration": 0.19354800000002115,
          "durationTicks": 240,
          "midi": 48,
          "name": "C3",
          "ticks": 321120,
          "time": 258.967224,
          "velocity": 0.7086614173228346
        },
        {
          "duration": 0.1935479999999643,
          "durationTicks": 240,
          "midi": 44,
          "name": "G#2",
          "ticks": 321360,
          "time": 259.160772,
          "velocity": 0.7086614173228346
        },
        {
          "duration": 0.129032000000052,
          "durationTicks": 160,
          "midi": 46,
          "name": "A#2",
          "ticks": 321600,
          "time": 259.35432,
          "velocity": 0.7086614173228346
        },
        {
          "duration": 0.12903199999999515,
          "durationTicks": 160,
          "midi": 34,
          "name": "A#1",
          "ticks": 322080,
          "time": 259.741416,
          "velocity": 0.7086614173228346
        },
        {
          "duration": 0.12903199999999515,
          "durationTicks": 160,
          "midi": 39,
          "name": "D#2",
          "ticks": 322560,
          "time": 260.128512,
          "velocity": 0.7086614173228346
        },
        {
          "duration": 0.129032000000052,
          "durationTicks": 160,
          "midi": 39,
          "name": "D#2",
          "ticks": 323040,
          "time": 260.515608,
          "velocity": 0.7086614173228346
        },
        {
          "duration": 0.129032000000052,
          "durationTicks": 160,
          "midi": 39,
          "name": "D#2",
          "ticks": 323520,
          "time": 260.90270399999997,
          "velocity": 0.7086614173228346
        },
        {
          "duration": 0.12903199999999515,
          "durationTicks": 160,
          "midi": 39,
          "name": "D#2",
          "ticks": 324480,
          "time": 261.676896,
          "velocity": 0.4330708661417323
        },
        {
          "duration": 0.12903199999999515,
          "durationTicks": 160,
          "midi": 39,
          "name": "D#2",
          "ticks": 325920,
          "time": 262.838184,
          "velocity": 0.4330708661417323
        },
        {
          "duration": 0.12903199999999515,
          "durationTicks": 160,
          "midi": 38,
          "name": "D2",
          "ticks": 326400,
          "time": 263.22528,
          "velocity": 0.4330708661417323
        },
        {
          "duration": 0.12903199999999515,
          "durationTicks": 160,
          "midi": 38,
          "name": "D2",
          "ticks": 327840,
          "time": 264.386568,
          "velocity": 0.4330708661417323
        },
        {
          "duration": 0.12903199999999515,
          "durationTicks": 160,
          "midi": 39,
          "name": "D#2",
          "ticks": 328320,
          "time": 264.773664,
          "velocity": 0.4330708661417323
        },
        {
          "duration": 0.129032000000052,
          "durationTicks": 160,
          "midi": 41,
          "name": "F2",
          "ticks": 328800,
          "time": 265.16076,
          "velocity": 0.4330708661417323
        },
        {
          "duration": 0.12903199999999515,
          "durationTicks": 160,
          "midi": 43,
          "name": "G2",
          "ticks": 329280,
          "time": 265.547856,
          "velocity": 0.4330708661417323
        },
        {
          "duration": 0.12903199999999515,
          "durationTicks": 160,
          "midi": 44,
          "name": "G#2",
          "ticks": 329760,
          "time": 265.934952,
          "velocity": 0.4330708661417323
        },
        {
          "duration": 0.12903199999999515,
          "durationTicks": 160,
          "midi": 46,
          "name": "A#2",
          "ticks": 330240,
          "time": 266.322048,
          "velocity": 0.4330708661417323
        },
        {
          "duration": 0.129032000000052,
          "durationTicks": 160,
          "midi": 46,
          "name": "A#2",
          "ticks": 330720,
          "time": 266.709144,
          "velocity": 0.4330708661417323
        },
        {
          "duration": 0.12903199999999515,
          "durationTicks": 160,
          "midi": 46,
          "name": "A#2",
          "ticks": 331200,
          "time": 267.09624,
          "velocity": 0.4330708661417323
        },
        {
          "duration": 0.38709599999998545,
          "durationTicks": 480,
          "midi": 45,
          "name": "A2",
          "ticks": 335520,
          "time": 270.580104,
          "velocity": 0.4330708661417323
        },
        {
          "duration": 0.12903199999999515,
          "durationTicks": 160,
          "midi": 46,
          "name": "A#2",
          "ticks": 336000,
          "time": 270.9672,
          "velocity": 0.4330708661417323
        },
        {
          "duration": 0.12903199999999515,
          "durationTicks": 160,
          "midi": 34,
          "name": "A#1",
          "ticks": 336960,
          "time": 271.741392,
          "velocity": 0.4330708661417323
        },
        {
          "duration": 0.6129020000000196,
          "durationTicks": 760,
          "midi": 39,
          "name": "D#2",
          "ticks": 337920,
          "time": 272.515584,
          "velocity": 0.4330708661417323
        },
        {
          "duration": 0.38709599999998545,
          "durationTicks": 480,
          "midi": 45,
          "name": "A2",
          "ticks": 350880,
          "time": 282.967176,
          "velocity": 0.4330708661417323
        },
        {
          "duration": 0.129032000000052,
          "durationTicks": 160,
          "midi": 46,
          "name": "A#2",
          "ticks": 351360,
          "time": 283.354272,
          "velocity": 0.4330708661417323
        },
        {
          "duration": 0.12903199999999515,
          "durationTicks": 160,
          "midi": 34,
          "name": "A#1",
          "ticks": 352320,
          "time": 284.128464,
          "velocity": 0.4330708661417323
        },
        {
          "duration": 0.6129020000000196,
          "durationTicks": 760,
          "midi": 39,
          "name": "D#2",
          "ticks": 353280,
          "time": 284.902656,
          "velocity": 0.4330708661417323
        },
        {
          "duration": 0.129032000000052,
          "durationTicks": 160,
          "midi": 46,
          "name": "A#2",
          "ticks": 355200,
          "time": 286.45104,
          "velocity": 0.4330708661417323
        },
        {
          "duration": 0.12903199999999515,
          "durationTicks": 160,
          "midi": 46,
          "name": "A#2",
          "ticks": 355440,
          "time": 286.644588,
          "velocity": 0.4330708661417323
        },
        {
          "duration": 0.12903199999999515,
          "durationTicks": 160,
          "midi": 46,
          "name": "A#2",
          "ticks": 355680,
          "time": 286.838136,
          "velocity": 0.4330708661417323
        },
        {
          "duration": 0.129032000000052,
          "durationTicks": 160,
          "midi": 46,
          "name": "A#2",
          "ticks": 355920,
          "time": 287.031684,
          "velocity": 0.4330708661417323
        },
        {
          "duration": 0.12903199999999515,
          "durationTicks": 160,
          "midi": 46,
          "name": "A#2",
          "ticks": 356160,
          "time": 287.225232,
          "velocity": 0.4330708661417323
        },
        {
          "duration": 0.129032000000052,
          "durationTicks": 160,
          "midi": 46,
          "name": "A#2",
          "ticks": 356400,
          "time": 287.41877999999997,
          "velocity": 0.4330708661417323
        },
        {
          "duration": 0.12903199999999515,
          "durationTicks": 160,
          "midi": 46,
          "name": "A#2",
          "ticks": 356640,
          "time": 287.612328,
          "velocity": 0.4330708661417323
        },
        {
          "duration": 0.12903199999999515,
          "durationTicks": 160,
          "midi": 46,
          "name": "A#2",
          "ticks": 356880,
          "time": 287.805876,
          "velocity": 0.4330708661417323
        },
        {
          "duration": 0.129032000000052,
          "durationTicks": 160,
          "midi": 46,
          "name": "A#2",
          "ticks": 357120,
          "time": 287.999424,
          "velocity": 0.4330708661417323
        },
        {
          "duration": 0.12903199999999515,
          "durationTicks": 160,
          "midi": 46,
          "name": "A#2",
          "ticks": 357360,
          "time": 288.192972,
          "velocity": 0.4330708661417323
        },
        {
          "duration": 0.12903199999999515,
          "durationTicks": 160,
          "midi": 46,
          "name": "A#2",
          "ticks": 357600,
          "time": 288.38652,
          "velocity": 0.4330708661417323
        },
        {
          "duration": 0.129032000000052,
          "durationTicks": 160,
          "midi": 46,
          "name": "A#2",
          "ticks": 357840,
          "time": 288.580068,
          "velocity": 0.4330708661417323
        },
        {
          "duration": 0.12903199999999515,
          "durationTicks": 160,
          "midi": 46,
          "name": "A#2",
          "ticks": 358080,
          "time": 288.773616,
          "velocity": 0.4330708661417323
        },
        {
          "duration": 0.129032000000052,
          "durationTicks": 160,
          "midi": 46,
          "name": "A#2",
          "ticks": 359040,
          "time": 289.547808,
          "velocity": 0.4330708661417323
        },
        {
          "duration": 0.12903199999999515,
          "durationTicks": 160,
          "midi": 46,
          "name": "A#2",
          "ticks": 359280,
          "time": 289.741356,
          "velocity": 0.4330708661417323
        },
        {
          "duration": 0.12903199999999515,
          "durationTicks": 160,
          "midi": 46,
          "name": "A#2",
          "ticks": 359520,
          "time": 289.934904,
          "velocity": 0.4330708661417323
        },
        {
          "duration": 0.129032000000052,
          "durationTicks": 160,
          "midi": 46,
          "name": "A#2",
          "ticks": 359760,
          "time": 290.128452,
          "velocity": 0.4330708661417323
        },
        {
          "duration": 0.12903199999999515,
          "durationTicks": 160,
          "midi": 46,
          "name": "A#2",
          "ticks": 360000,
          "time": 290.322,
          "velocity": 0.4330708661417323
        },
        {
          "duration": 0.12903199999999515,
          "durationTicks": 160,
          "midi": 46,
          "name": "A#2",
          "ticks": 360240,
          "time": 290.515548,
          "velocity": 0.4330708661417323
        },
        {
          "duration": 0.12903199999999515,
          "durationTicks": 160,
          "midi": 46,
          "name": "A#2",
          "ticks": 360480,
          "time": 290.709096,
          "velocity": 0.4330708661417323
        },
        {
          "duration": 0.12903199999999515,
          "durationTicks": 160,
          "midi": 46,
          "name": "A#2",
          "ticks": 360720,
          "time": 290.902644,
          "velocity": 0.4330708661417323
        },
        {
          "duration": 0.129032000000052,
          "durationTicks": 160,
          "midi": 46,
          "name": "A#2",
          "ticks": 360960,
          "time": 291.096192,
          "velocity": 0.4330708661417323
        },
        {
          "duration": 0.12903199999999515,
          "durationTicks": 160,
          "midi": 46,
          "name": "A#2",
          "ticks": 361200,
          "time": 291.28974,
          "velocity": 0.4330708661417323
        },
        {
          "duration": 0.12903199999999515,
          "durationTicks": 160,
          "midi": 46,
          "name": "A#2",
          "ticks": 361440,
          "time": 291.483288,
          "velocity": 0.4330708661417323
        },
        {
          "duration": 0.129032000000052,
          "durationTicks": 160,
          "midi": 46,
          "name": "A#2",
          "ticks": 361680,
          "time": 291.676836,
          "velocity": 0.4330708661417323
        },
        {
          "duration": 0.12903199999999515,
          "durationTicks": 160,
          "midi": 46,
          "name": "A#2",
          "ticks": 361920,
          "time": 291.870384,
          "velocity": 0.4330708661417323
        },
        {
          "duration": 0.12903199999999515,
          "durationTicks": 160,
          "midi": 43,
          "name": "G2",
          "ticks": 363360,
          "time": 293.031672,
          "velocity": 0.5511811023622047
        },
        {
          "duration": 0.129032000000052,
          "durationTicks": 160,
          "midi": 39,
          "name": "D#2",
          "ticks": 363600,
          "time": 293.22522,
          "velocity": 0.5511811023622047
        },
        {
          "duration": 0.12903199999999515,
          "durationTicks": 160,
          "midi": 44,
          "name": "G#2",
          "ticks": 363840,
          "time": 293.418768,
          "velocity": 0.5511811023622047
        },
        {
          "duration": 0.12903199999999515,
          "durationTicks": 160,
          "midi": 41,
          "name": "F2",
          "ticks": 364080,
          "time": 293.612316,
          "velocity": 0.5511811023622047
        },
        {
          "duration": 0.129032000000052,
          "durationTicks": 160,
          "midi": 38,
          "name": "D2",
          "ticks": 364320,
          "time": 293.805864,
          "velocity": 0.5511811023622047
        },
        {
          "duration": 0.12903199999999515,
          "durationTicks": 160,
          "midi": 50,
          "name": "D3",
          "ticks": 364560,
          "time": 293.999412,
          "velocity": 0.5511811023622047
        },
        {
          "duration": 0.129032000000052,
          "durationTicks": 160,
          "midi": 51,
          "name": "D#3",
          "ticks": 364800,
          "time": 294.19295999999997,
          "velocity": 0.5511811023622047
        },
        {
          "duration": 0.12903199999999515,
          "durationTicks": 160,
          "midi": 46,
          "name": "A#2",
          "ticks": 365040,
          "time": 294.386508,
          "velocity": 0.5511811023622047
        },
        {
          "duration": 0.12903199999999515,
          "durationTicks": 160,
          "midi": 43,
          "name": "G2",
          "ticks": 365280,
          "time": 294.580056,
          "velocity": 0.5511811023622047
        },
        {
          "duration": 0.129032000000052,
          "durationTicks": 160,
          "midi": 39,
          "name": "D#2",
          "ticks": 365520,
          "time": 294.773604,
          "velocity": 0.5511811023622047
        },
        {
          "duration": 0.12903199999999515,
          "durationTicks": 160,
          "midi": 44,
          "name": "G#2",
          "ticks": 365760,
          "time": 294.967152,
          "velocity": 0.5511811023622047
        },
        {
          "duration": 0.12903199999999515,
          "durationTicks": 160,
          "midi": 41,
          "name": "F2",
          "ticks": 366000,
          "time": 295.1607,
          "velocity": 0.5511811023622047
        },
        {
          "duration": 0.129032000000052,
          "durationTicks": 160,
          "midi": 38,
          "name": "D2",
          "ticks": 366240,
          "time": 295.354248,
          "velocity": 0.5511811023622047
        },
        {
          "duration": 0.12903199999999515,
          "durationTicks": 160,
          "midi": 50,
          "name": "D3",
          "ticks": 366480,
          "time": 295.547796,
          "velocity": 0.5511811023622047
        },
        {
          "duration": 0.129032000000052,
          "durationTicks": 160,
          "midi": 51,
          "name": "D#3",
          "ticks": 366720,
          "time": 295.74134399999997,
          "velocity": 0.5511811023622047
        },
        {
          "duration": 0.19354800000002115,
          "durationTicks": 240,
          "midi": 47,
          "name": "B2",
          "ticks": 366960,
          "time": 295.934892,
          "velocity": 0.7086614173228346
        },
        {
          "duration": 0.1935479999999643,
          "durationTicks": 240,
          "midi": 48,
          "name": "C3",
          "ticks": 367200,
          "time": 296.12844,
          "velocity": 0.7086614173228346
        },
        {
          "duration": 0.19354800000002115,
          "durationTicks": 240,
          "midi": 44,
          "name": "G#2",
          "ticks": 367440,
          "time": 296.321988,
          "velocity": 0.7086614173228346
        },
        {
          "duration": 0.12903199999999515,
          "durationTicks": 160,
          "midi": 46,
          "name": "A#2",
          "ticks": 367680,
          "time": 296.515536,
          "velocity": 0.7086614173228346
        },
        {
          "duration": 0.129032000000052,
          "durationTicks": 160,
          "midi": 34,
          "name": "A#1",
          "ticks": 368160,
          "time": 296.902632,
          "velocity": 0.7086614173228346
        },
        {
          "duration": 0.129032000000052,
          "durationTicks": 160,
          "midi": 39,
          "name": "D#2",
          "ticks": 368640,
          "time": 297.28972799999997,
          "velocity": 0.7086614173228346
        },
        {
          "duration": 0.12903199999999515,
          "durationTicks": 160,
          "midi": 43,
          "name": "G2",
          "ticks": 368880,
          "time": 297.483276,
          "velocity": 0.7086614173228346
        },
        {
          "duration": 0.12903199999999515,
          "durationTicks": 160,
          "midi": 46,
          "name": "A#2",
          "ticks": 369120,
          "time": 297.676824,
          "velocity": 0.7086614173228346
        },
        {
          "duration": 0.129032000000052,
          "durationTicks": 160,
          "midi": 43,
          "name": "G2",
          "ticks": 369360,
          "time": 297.870372,
          "velocity": 0.7086614173228346
        },
        {
          "duration": 0.12903199999999515,
          "durationTicks": 160,
          "midi": 39,
          "name": "D#2",
          "ticks": 369600,
          "time": 298.06392,
          "velocity": 0.7086614173228346
        },
        {
          "duration": 0.12903199999999515,
          "durationTicks": 160,
          "midi": 46,
          "name": "A#2",
          "ticks": 401280,
          "time": 323.612256,
          "velocity": 0.4330708661417323
        },
        {
          "duration": 0.12903199999999515,
          "durationTicks": 160,
          "midi": 46,
          "name": "A#2",
          "ticks": 401520,
          "time": 323.805804,
          "velocity": 0.4330708661417323
        },
        {
          "duration": 0.12903199999999515,
          "durationTicks": 160,
          "midi": 46,
          "name": "A#2",
          "ticks": 401760,
          "time": 323.999352,
          "velocity": 0.4330708661417323
        },
        {
          "duration": 0.12903199999999515,
          "durationTicks": 160,
          "midi": 46,
          "name": "A#2",
          "ticks": 402000,
          "time": 324.1929,
          "velocity": 0.4330708661417323
        },
        {
          "duration": 0.129032000000052,
          "durationTicks": 160,
          "midi": 46,
          "name": "A#2",
          "ticks": 402240,
          "time": 324.386448,
          "velocity": 0.4330708661417323
        },
        {
          "duration": 0.12903199999999515,
          "durationTicks": 160,
          "midi": 46,
          "name": "A#2",
          "ticks": 402480,
          "time": 324.579996,
          "velocity": 0.4330708661417323
        },
        {
          "duration": 0.12903199999999515,
          "durationTicks": 160,
          "midi": 46,
          "name": "A#2",
          "ticks": 402720,
          "time": 324.773544,
          "velocity": 0.4330708661417323
        },
        {
          "duration": 0.129032000000052,
          "durationTicks": 160,
          "midi": 46,
          "name": "A#2",
          "ticks": 402960,
          "time": 324.967092,
          "velocity": 0.4330708661417323
        },
        {
          "duration": 0.12903199999999515,
          "durationTicks": 160,
          "midi": 46,
          "name": "A#2",
          "ticks": 403200,
          "time": 325.16064,
          "velocity": 0.4330708661417323
        },
        {
          "duration": 0.12903199999999515,
          "durationTicks": 160,
          "midi": 46,
          "name": "A#2",
          "ticks": 403440,
          "time": 325.354188,
          "velocity": 0.4330708661417323
        },
        {
          "duration": 0.129032000000052,
          "durationTicks": 160,
          "midi": 46,
          "name": "A#2",
          "ticks": 403680,
          "time": 325.547736,
          "velocity": 0.4330708661417323
        },
        {
          "duration": 0.12903199999999515,
          "durationTicks": 160,
          "midi": 46,
          "name": "A#2",
          "ticks": 403920,
          "time": 325.741284,
          "velocity": 0.4330708661417323
        },
        {
          "duration": 0.129032000000052,
          "durationTicks": 160,
          "midi": 46,
          "name": "A#2",
          "ticks": 404160,
          "time": 325.934832,
          "velocity": 0.4330708661417323
        },
        {
          "duration": 0.12903199999999515,
          "durationTicks": 160,
          "midi": 46,
          "name": "A#2",
          "ticks": 405120,
          "time": 326.709024,
          "velocity": 0.4330708661417323
        },
        {
          "duration": 0.12903199999999515,
          "durationTicks": 160,
          "midi": 46,
          "name": "A#2",
          "ticks": 405360,
          "time": 326.902572,
          "velocity": 0.4330708661417323
        },
        {
          "duration": 0.129032000000052,
          "durationTicks": 160,
          "midi": 46,
          "name": "A#2",
          "ticks": 405600,
          "time": 327.09612,
          "velocity": 0.4330708661417323
        },
        {
          "duration": 0.12903199999999515,
          "durationTicks": 160,
          "midi": 46,
          "name": "A#2",
          "ticks": 405840,
          "time": 327.289668,
          "velocity": 0.4330708661417323
        },
        {
          "duration": 0.129032000000052,
          "durationTicks": 160,
          "midi": 46,
          "name": "A#2",
          "ticks": 406080,
          "time": 327.48321599999997,
          "velocity": 0.4330708661417323
        },
        {
          "duration": 0.12903199999999515,
          "durationTicks": 160,
          "midi": 46,
          "name": "A#2",
          "ticks": 406320,
          "time": 327.676764,
          "velocity": 0.4330708661417323
        },
        {
          "duration": 0.12903199999999515,
          "durationTicks": 160,
          "midi": 46,
          "name": "A#2",
          "ticks": 406560,
          "time": 327.870312,
          "velocity": 0.4330708661417323
        },
        {
          "duration": 0.129032000000052,
          "durationTicks": 160,
          "midi": 46,
          "name": "A#2",
          "ticks": 406800,
          "time": 328.06386,
          "velocity": 0.4330708661417323
        },
        {
          "duration": 0.12903199999999515,
          "durationTicks": 160,
          "midi": 46,
          "name": "A#2",
          "ticks": 407040,
          "time": 328.257408,
          "velocity": 0.4330708661417323
        },
        {
          "duration": 0.12903199999999515,
          "durationTicks": 160,
          "midi": 46,
          "name": "A#2",
          "ticks": 407280,
          "time": 328.450956,
          "velocity": 0.4330708661417323
        },
        {
          "duration": 0.129032000000052,
          "durationTicks": 160,
          "midi": 46,
          "name": "A#2",
          "ticks": 407520,
          "time": 328.644504,
          "velocity": 0.4330708661417323
        },
        {
          "duration": 0.12903199999999515,
          "durationTicks": 160,
          "midi": 46,
          "name": "A#2",
          "ticks": 407760,
          "time": 328.838052,
          "velocity": 0.4330708661417323
        },
        {
          "duration": 0.129032000000052,
          "durationTicks": 160,
          "midi": 46,
          "name": "A#2",
          "ticks": 408000,
          "time": 329.03159999999997,
          "velocity": 0.4330708661417323
        },
        {
          "duration": 0.129032000000052,
          "durationTicks": 160,
          "midi": 43,
          "name": "G2",
          "ticks": 409440,
          "time": 330.192888,
          "velocity": 0.5511811023622047
        },
        {
          "duration": 0.12903199999999515,
          "durationTicks": 160,
          "midi": 39,
          "name": "D#2",
          "ticks": 409680,
          "time": 330.386436,
          "velocity": 0.5511811023622047
        },
        {
          "duration": 0.12903199999999515,
          "durationTicks": 160,
          "midi": 44,
          "name": "G#2",
          "ticks": 409920,
          "time": 330.579984,
          "velocity": 0.5511811023622047
        },
        {
          "duration": 0.12903199999999515,
          "durationTicks": 160,
          "midi": 41,
          "name": "F2",
          "ticks": 410160,
          "time": 330.773532,
          "velocity": 0.5511811023622047
        },
        {
          "duration": 0.12903199999999515,
          "durationTicks": 160,
          "midi": 38,
          "name": "D2",
          "ticks": 410400,
          "time": 330.96708,
          "velocity": 0.5511811023622047
        },
        {
          "duration": 0.129032000000052,
          "durationTicks": 160,
          "midi": 50,
          "name": "D3",
          "ticks": 410640,
          "time": 331.160628,
          "velocity": 0.5511811023622047
        },
        {
          "duration": 0.12903199999999515,
          "durationTicks": 160,
          "midi": 51,
          "name": "D#3",
          "ticks": 410880,
          "time": 331.354176,
          "velocity": 0.5511811023622047
        },
        {
          "duration": 0.12903199999999515,
          "durationTicks": 160,
          "midi": 46,
          "name": "A#2",
          "ticks": 411120,
          "time": 331.547724,
          "velocity": 0.5511811023622047
        },
        {
          "duration": 0.129032000000052,
          "durationTicks": 160,
          "midi": 43,
          "name": "G2",
          "ticks": 411360,
          "time": 331.741272,
          "velocity": 0.5511811023622047
        },
        {
          "duration": 0.12903199999999515,
          "durationTicks": 160,
          "midi": 39,
          "name": "D#2",
          "ticks": 411600,
          "time": 331.93482,
          "velocity": 0.5511811023622047
        },
        {
          "duration": 0.12903199999999515,
          "durationTicks": 160,
          "midi": 44,
          "name": "G#2",
          "ticks": 411840,
          "time": 332.128368,
          "velocity": 0.5511811023622047
        },
        {
          "duration": 0.12903199999999515,
          "durationTicks": 160,
          "midi": 41,
          "name": "F2",
          "ticks": 412080,
          "time": 332.321916,
          "velocity": 0.5511811023622047
        },
        {
          "duration": 0.12903199999999515,
          "durationTicks": 160,
          "midi": 38,
          "name": "D2",
          "ticks": 412320,
          "time": 332.515464,
          "velocity": 0.5511811023622047
        },
        {
          "duration": 0.129032000000052,
          "durationTicks": 160,
          "midi": 50,
          "name": "D3",
          "ticks": 412560,
          "time": 332.709012,
          "velocity": 0.5511811023622047
        },
        {
          "duration": 0.12903199999999515,
          "durationTicks": 160,
          "midi": 51,
          "name": "D#3",
          "ticks": 412800,
          "time": 332.90256,
          "velocity": 0.5511811023622047
        },
        {
          "duration": 0.1935479999999643,
          "durationTicks": 240,
          "midi": 47,
          "name": "B2",
          "ticks": 413040,
          "time": 333.096108,
          "velocity": 0.7086614173228346
        },
        {
          "duration": 0.19354800000002115,
          "durationTicks": 240,
          "midi": 48,
          "name": "C3",
          "ticks": 413280,
          "time": 333.289656,
          "velocity": 0.7086614173228346
        },
        {
          "duration": 0.19354800000002115,
          "durationTicks": 240,
          "midi": 44,
          "name": "G#2",
          "ticks": 413520,
          "time": 333.483204,
          "velocity": 0.7086614173228346
        },
        {
          "duration": 0.12903199999999515,
          "durationTicks": 160,
          "midi": 46,
          "name": "A#2",
          "ticks": 413760,
          "time": 333.676752,
          "velocity": 0.7086614173228346
        },
        {
          "duration": 0.12903199999999515,
          "durationTicks": 160,
          "midi": 34,
          "name": "A#1",
          "ticks": 414240,
          "time": 334.063848,
          "velocity": 0.7086614173228346
        },
        {
          "duration": 0.12903199999999515,
          "durationTicks": 160,
          "midi": 39,
          "name": "D#2",
          "ticks": 414720,
          "time": 334.450944,
          "velocity": 0.7086614173228346
        },
        {
          "duration": 0.129032000000052,
          "durationTicks": 160,
          "midi": 39,
          "name": "D#2",
          "ticks": 415200,
          "time": 334.83804,
          "velocity": 0.7086614173228346
        },
        {
          "duration": 0.12903199999999515,
          "durationTicks": 160,
          "midi": 39,
          "name": "D#2",
          "ticks": 415680,
          "time": 335.225136,
          "velocity": 0.7086614173228346
        },
        {
          "duration": 0.6129020000000196,
          "durationTicks": 760,
          "midi": 39,
          "name": "D#2",
          "ticks": 416640,
          "time": 335.999328,
          "velocity": 0.4330708661417323
        },
        {
          "duration": 0.3225800000000163,
          "durationTicks": 400,
          "midi": 39,
          "name": "D#2",
          "ticks": 418080,
          "time": 337.160616,
          "velocity": 0.4330708661417323
        },
        {
          "duration": 0.6129020000000196,
          "durationTicks": 760,
          "midi": 46,
          "name": "A#2",
          "ticks": 418560,
          "time": 337.547712,
          "velocity": 0.4330708661417323
        },
        {
          "duration": 0.3225800000000163,
          "durationTicks": 400,
          "midi": 34,
          "name": "A#1",
          "ticks": 420000,
          "time": 338.709,
          "velocity": 0.4330708661417323
        },
        {
          "duration": 0.6129020000000196,
          "durationTicks": 760,
          "midi": 36,
          "name": "C2",
          "ticks": 420480,
          "time": 339.096096,
          "velocity": 0.4330708661417323
        },
        {
          "duration": 0.38709599999998545,
          "durationTicks": 480,
          "midi": 41,
          "name": "F2",
          "ticks": 421920,
          "time": 340.257384,
          "velocity": 0.4330708661417323
        },
        {
          "duration": 0.6129020000000196,
          "durationTicks": 760,
          "midi": 34,
          "name": "A#1",
          "ticks": 422400,
          "time": 340.64448,
          "velocity": 0.4330708661417323
        },
        {
          "duration": 0.7741920000000277,
          "durationTicks": 960,
          "midi": 40,
          "name": "E2",
          "ticks": 424320,
          "time": 342.192864,
          "velocity": 0.4330708661417323
        },
        {
          "duration": 0.1370964999999842,
          "durationTicks": 170,
          "midi": 41,
          "name": "F2",
          "ticks": 425280,
          "time": 342.967056,
          "velocity": 0.4330708661417323
        },
        {
          "duration": 0.7741920000000277,
          "durationTicks": 960,
          "midi": 38,
          "name": "D2",
          "ticks": 426240,
          "time": 343.741248,
          "velocity": 0.4330708661417323
        },
        {
          "duration": 0.1370964999999842,
          "durationTicks": 170,
          "midi": 39,
          "name": "D#2",
          "ticks": 427200,
          "time": 344.51544,
          "velocity": 0.4330708661417323
        },
        {
          "duration": 0.129032000000052,
          "durationTicks": 160,
          "midi": 44,
          "name": "G#2",
          "ticks": 428160,
          "time": 345.289632,
          "velocity": 0.4330708661417323
        },
        {
          "duration": 0.12903199999999515,
          "durationTicks": 160,
          "midi": 46,
          "name": "A#2",
          "ticks": 429120,
          "time": 346.063824,
          "velocity": 0.4330708661417323
        },
        {
          "duration": 0.129032000000052,
          "durationTicks": 160,
          "midi": 39,
          "name": "D#2",
          "ticks": 430080,
          "time": 346.838016,
          "velocity": 0.4330708661417323
        },
        {
          "duration": 0.19354800000002115,
          "durationTicks": 240,
          "midi": 51,
          "name": "D#3",
          "ticks": 431280,
          "time": 347.805756,
          "velocity": 0.4330708661417323
        },
        {
          "duration": 0.19354800000002115,
          "durationTicks": 240,
          "midi": 47,
          "name": "B2",
          "ticks": 431520,
          "time": 347.999304,
          "velocity": 0.4330708661417323
        },
        {
          "duration": 0.1935479999999643,
          "durationTicks": 240,
          "midi": 48,
          "name": "C3",
          "ticks": 431760,
          "time": 348.192852,
          "velocity": 0.4330708661417323
        },
        {
          "duration": 0.129032000000052,
          "durationTicks": 160,
          "midi": 43,
          "name": "G2",
          "ticks": 432000,
          "time": 348.3864,
          "velocity": 0.4330708661417323
        },
        {
          "duration": 0.38709599999998545,
          "durationTicks": 480,
          "midi": 39,
          "name": "D#2",
          "ticks": 435360,
          "time": 351.096072,
          "velocity": 0.4330708661417323
        },
        {
          "duration": 0.129032000000052,
          "durationTicks": 160,
          "midi": 41,
          "name": "F2",
          "ticks": 435840,
          "time": 351.483168,
          "velocity": 0.4330708661417323
        },
        {
          "duration": 0.7741920000000277,
          "durationTicks": 960,
          "midi": 40,
          "name": "E2",
          "ticks": 439680,
          "time": 354.579936,
          "velocity": 0.4330708661417323
        },
        {
          "duration": 0.1370964999999842,
          "durationTicks": 170,
          "midi": 41,
          "name": "F2",
          "ticks": 440640,
          "time": 355.354128,
          "velocity": 0.4330708661417323
        },
        {
          "duration": 0.7741920000000277,
          "durationTicks": 960,
          "midi": 38,
          "name": "D2",
          "ticks": 441600,
          "time": 356.12832,
          "velocity": 0.4330708661417323
        },
        {
          "duration": 0.1370964999999842,
          "durationTicks": 170,
          "midi": 39,
          "name": "D#2",
          "ticks": 442560,
          "time": 356.902512,
          "velocity": 0.4330708661417323
        },
        {
          "duration": 0.129032000000052,
          "durationTicks": 160,
          "midi": 44,
          "name": "G#2",
          "ticks": 443520,
          "time": 357.676704,
          "velocity": 0.4330708661417323
        },
        {
          "duration": 0.12903199999999515,
          "durationTicks": 160,
          "midi": 46,
          "name": "A#2",
          "ticks": 444480,
          "time": 358.450896,
          "velocity": 0.4330708661417323
        },
        {
          "duration": 0.129032000000052,
          "durationTicks": 160,
          "midi": 39,
          "name": "D#2",
          "ticks": 445440,
          "time": 359.22508799999997,
          "velocity": 0.4330708661417323
        },
        {
          "duration": 0.129032000000052,
          "durationTicks": 160,
          "midi": 46,
          "name": "A#2",
          "ticks": 447360,
          "time": 360.77347199999997,
          "velocity": 0.4330708661417323
        },
        {
          "duration": 0.12903199999999515,
          "durationTicks": 160,
          "midi": 46,
          "name": "A#2",
          "ticks": 447600,
          "time": 360.96702,
          "velocity": 0.4330708661417323
        },
        {
          "duration": 0.12903199999999515,
          "durationTicks": 160,
          "midi": 46,
          "name": "A#2",
          "ticks": 447840,
          "time": 361.160568,
          "velocity": 0.4330708661417323
        },
        {
          "duration": 0.129032000000052,
          "durationTicks": 160,
          "midi": 46,
          "name": "A#2",
          "ticks": 448080,
          "time": 361.354116,
          "velocity": 0.4330708661417323
        },
        {
          "duration": 0.12903199999999515,
          "durationTicks": 160,
          "midi": 46,
          "name": "A#2",
          "ticks": 448320,
          "time": 361.547664,
          "velocity": 0.4330708661417323
        },
        {
          "duration": 0.12903199999999515,
          "durationTicks": 160,
          "midi": 46,
          "name": "A#2",
          "ticks": 448560,
          "time": 361.741212,
          "velocity": 0.4330708661417323
        },
        {
          "duration": 0.129032000000052,
          "durationTicks": 160,
          "midi": 46,
          "name": "A#2",
          "ticks": 448800,
          "time": 361.93476,
          "velocity": 0.4330708661417323
        },
        {
          "duration": 0.12903199999999515,
          "durationTicks": 160,
          "midi": 46,
          "name": "A#2",
          "ticks": 449040,
          "time": 362.128308,
          "velocity": 0.4330708661417323
        },
        {
          "duration": 0.129032000000052,
          "durationTicks": 160,
          "midi": 46,
          "name": "A#2",
          "ticks": 449280,
          "time": 362.32185599999997,
          "velocity": 0.4330708661417323
        },
        {
          "duration": 0.12903199999999515,
          "durationTicks": 160,
          "midi": 46,
          "name": "A#2",
          "ticks": 449520,
          "time": 362.515404,
          "velocity": 0.4330708661417323
        },
        {
          "duration": 0.12903199999999515,
          "durationTicks": 160,
          "midi": 46,
          "name": "A#2",
          "ticks": 449760,
          "time": 362.708952,
          "velocity": 0.4330708661417323
        },
        {
          "duration": 0.129032000000052,
          "durationTicks": 160,
          "midi": 46,
          "name": "A#2",
          "ticks": 450000,
          "time": 362.9025,
          "velocity": 0.4330708661417323
        },
        {
          "duration": 0.12903199999999515,
          "durationTicks": 160,
          "midi": 46,
          "name": "A#2",
          "ticks": 450240,
          "time": 363.096048,
          "velocity": 0.4330708661417323
        },
        {
          "duration": 0.12903199999999515,
          "durationTicks": 160,
          "midi": 46,
          "name": "A#2",
          "ticks": 451200,
          "time": 363.87024,
          "velocity": 0.4330708661417323
        },
        {
          "duration": 0.12903199999999515,
          "durationTicks": 160,
          "midi": 46,
          "name": "A#2",
          "ticks": 451440,
          "time": 364.063788,
          "velocity": 0.4330708661417323
        },
        {
          "duration": 0.12903199999999515,
          "durationTicks": 160,
          "midi": 46,
          "name": "A#2",
          "ticks": 451680,
          "time": 364.257336,
          "velocity": 0.4330708661417323
        },
        {
          "duration": 0.129032000000052,
          "durationTicks": 160,
          "midi": 46,
          "name": "A#2",
          "ticks": 451920,
          "time": 364.450884,
          "velocity": 0.4330708661417323
        },
        {
          "duration": 0.12903199999999515,
          "durationTicks": 160,
          "midi": 46,
          "name": "A#2",
          "ticks": 452160,
          "time": 364.644432,
          "velocity": 0.4330708661417323
        },
        {
          "duration": 0.12903199999999515,
          "durationTicks": 160,
          "midi": 46,
          "name": "A#2",
          "ticks": 452400,
          "time": 364.83798,
          "velocity": 0.4330708661417323
        },
        {
          "duration": 0.129032000000052,
          "durationTicks": 160,
          "midi": 46,
          "name": "A#2",
          "ticks": 452640,
          "time": 365.031528,
          "velocity": 0.4330708661417323
        },
        {
          "duration": 0.12903199999999515,
          "durationTicks": 160,
          "midi": 46,
          "name": "A#2",
          "ticks": 452880,
          "time": 365.225076,
          "velocity": 0.4330708661417323
        },
        {
          "duration": 0.12903199999999515,
          "durationTicks": 160,
          "midi": 46,
          "name": "A#2",
          "ticks": 453120,
          "time": 365.418624,
          "velocity": 0.4330708661417323
        },
        {
          "duration": 0.129032000000052,
          "durationTicks": 160,
          "midi": 46,
          "name": "A#2",
          "ticks": 453360,
          "time": 365.612172,
          "velocity": 0.4330708661417323
        },
        {
          "duration": 0.12903199999999515,
          "durationTicks": 160,
          "midi": 46,
          "name": "A#2",
          "ticks": 453600,
          "time": 365.80572,
          "velocity": 0.4330708661417323
        },
        {
          "duration": 0.129032000000052,
          "durationTicks": 160,
          "midi": 46,
          "name": "A#2",
          "ticks": 453840,
          "time": 365.999268,
          "velocity": 0.4330708661417323
        },
        {
          "duration": 0.12903199999999515,
          "durationTicks": 160,
          "midi": 46,
          "name": "A#2",
          "ticks": 454080,
          "time": 366.192816,
          "velocity": 0.4330708661417323
        },
        {
          "duration": 0.12903199999999515,
          "durationTicks": 160,
          "midi": 43,
          "name": "G2",
          "ticks": 455520,
          "time": 367.354104,
          "velocity": 0.5511811023622047
        },
        {
          "duration": 0.129032000000052,
          "durationTicks": 160,
          "midi": 39,
          "name": "D#2",
          "ticks": 455760,
          "time": 367.54765199999997,
          "velocity": 0.5511811023622047
        },
        {
          "duration": 0.12903199999999515,
          "durationTicks": 160,
          "midi": 44,
          "name": "G#2",
          "ticks": 456000,
          "time": 367.7412,
          "velocity": 0.5511811023622047
        },
        {
          "duration": 0.12903199999999515,
          "durationTicks": 160,
          "midi": 41,
          "name": "F2",
          "ticks": 456240,
          "time": 367.934748,
          "velocity": 0.5511811023622047
        },
        {
          "duration": 0.129032000000052,
          "durationTicks": 160,
          "midi": 38,
          "name": "D2",
          "ticks": 456480,
          "time": 368.128296,
          "velocity": 0.5511811023622047
        },
        {
          "duration": 0.12903199999999515,
          "durationTicks": 160,
          "midi": 50,
          "name": "D3",
          "ticks": 456720,
          "time": 368.321844,
          "velocity": 0.5511811023622047
        },
        {
          "duration": 0.12903199999999515,
          "durationTicks": 160,
          "midi": 51,
          "name": "D#3",
          "ticks": 456960,
          "time": 368.515392,
          "velocity": 0.5511811023622047
        },
        {
          "duration": 0.129032000000052,
          "durationTicks": 160,
          "midi": 46,
          "name": "A#2",
          "ticks": 457200,
          "time": 368.70894,
          "velocity": 0.5511811023622047
        },
        {
          "duration": 0.12903199999999515,
          "durationTicks": 160,
          "midi": 43,
          "name": "G2",
          "ticks": 457440,
          "time": 368.902488,
          "velocity": 0.5511811023622047
        },
        {
          "duration": 0.129032000000052,
          "durationTicks": 160,
          "midi": 39,
          "name": "D#2",
          "ticks": 457680,
          "time": 369.09603599999997,
          "velocity": 0.5511811023622047
        },
        {
          "duration": 0.12903199999999515,
          "durationTicks": 160,
          "midi": 44,
          "name": "G#2",
          "ticks": 457920,
          "time": 369.289584,
          "velocity": 0.5511811023622047
        },
        {
          "duration": 0.12903199999999515,
          "durationTicks": 160,
          "midi": 41,
          "name": "F2",
          "ticks": 458160,
          "time": 369.483132,
          "velocity": 0.5511811023622047
        },
        {
          "duration": 0.129032000000052,
          "durationTicks": 160,
          "midi": 38,
          "name": "D2",
          "ticks": 458400,
          "time": 369.67668,
          "velocity": 0.5511811023622047
        },
        {
          "duration": 0.12903199999999515,
          "durationTicks": 160,
          "midi": 50,
          "name": "D3",
          "ticks": 458640,
          "time": 369.870228,
          "velocity": 0.5511811023622047
        },
        {
          "duration": 0.12903199999999515,
          "durationTicks": 160,
          "midi": 51,
          "name": "D#3",
          "ticks": 458880,
          "time": 370.063776,
          "velocity": 0.5511811023622047
        },
        {
          "duration": 0.19354800000002115,
          "durationTicks": 240,
          "midi": 47,
          "name": "B2",
          "ticks": 459120,
          "time": 370.257324,
          "velocity": 0.7086614173228346
        },
        {
          "duration": 0.1935479999999643,
          "durationTicks": 240,
          "midi": 48,
          "name": "C3",
          "ticks": 459360,
          "time": 370.450872,
          "velocity": 0.7086614173228346
        },
        {
          "duration": 0.19354800000002115,
          "durationTicks": 240,
          "midi": 44,
          "name": "G#2",
          "ticks": 459600,
          "time": 370.64441999999997,
          "velocity": 0.7086614173228346
        },
        {
          "duration": 0.12903199999999515,
          "durationTicks": 160,
          "midi": 46,
          "name": "A#2",
          "ticks": 459840,
          "time": 370.837968,
          "velocity": 0.7086614173228346
        },
        {
          "duration": 0.12903199999999515,
          "durationTicks": 160,
          "midi": 46,
          "name": "A#2",
          "ticks": 460080,
          "time": 371.031516,
          "velocity": 0.7086614173228346
        },
        {
          "duration": 0.129032000000052,
          "durationTicks": 160,
          "midi": 34,
          "name": "A#1",
          "ticks": 460320,
          "time": 371.225064,
          "velocity": 0.7086614173228346
        },
        {
          "duration": 0.12903199999999515,
          "durationTicks": 160,
          "midi": 34,
          "name": "A#1",
          "ticks": 460560,
          "time": 371.418612,
          "velocity": 0.7086614173228346
        },
        {
          "duration": 0.12903199999999515,
          "durationTicks": 160,
          "midi": 39,
          "name": "D#2",
          "ticks": 460800,
          "time": 371.61216,
          "velocity": 0.7086614173228346
        },
        {
          "duration": 0.129032000000052,
          "durationTicks": 160,
          "midi": 39,
          "name": "D#2",
          "ticks": 461040,
          "time": 371.805708,
          "velocity": 0.7086614173228346
        },
        {
          "duration": 0.12903199999999515,
          "durationTicks": 160,
          "midi": 39,
          "name": "D#2",
          "ticks": 461280,
          "time": 371.999256,
          "velocity": 0.7086614173228346
        },
        {
          "duration": 0.12903199999999515,
          "durationTicks": 160,
          "midi": 39,
          "name": "D#2",
          "ticks": 461520,
          "time": 372.192804,
          "velocity": 0.7086614173228346
        },
        {
          "duration": 0.12903199999999515,
          "durationTicks": 160,
          "midi": 39,
          "name": "D#2",
          "ticks": 461760,
          "time": 372.386352,
          "velocity": 0.7086614173228346
        },
        {
          "duration": 0.12903199999999515,
          "durationTicks": 160,
          "midi": 36,
          "name": "C2",
          "ticks": 485760,
          "time": 391.741152,
          "velocity": 0.4330708661417323
        },
        {
          "duration": 0.129032000000052,
          "durationTicks": 160,
          "midi": 41,
          "name": "F2",
          "ticks": 486720,
          "time": 392.51534399999997,
          "velocity": 0.4330708661417323
        },
        {
          "duration": 0.12903199999999515,
          "durationTicks": 160,
          "midi": 34,
          "name": "A#1",
          "ticks": 487680,
          "time": 393.289536,
          "velocity": 0.4330708661417323
        },
        {
          "duration": 0.129032000000052,
          "durationTicks": 160,
          "midi": 39,
          "name": "D#2",
          "ticks": 488640,
          "time": 394.06372799999997,
          "velocity": 0.4330708661417323
        },
        {
          "duration": 0.12903199999999515,
          "durationTicks": 160,
          "midi": 32,
          "name": "G#1",
          "ticks": 489600,
          "time": 394.83792,
          "velocity": 0.4330708661417323
        },
        {
          "duration": 0.129032000000052,
          "durationTicks": 160,
          "midi": 34,
          "name": "A#1",
          "ticks": 490560,
          "time": 395.61211199999997,
          "velocity": 0.4330708661417323
        },
        {
          "duration": 4,
          "durationTicks": 1920,
          "midi": 36,
          "name": "C2",
          "ticks": 491520,
          "time": 396.386304,
          "velocity": 0.4330708661417323
        },
        {
          "duration": 3.9583333333333144,
          "durationTicks": 1900,
          "midi": 34,
          "name": "A#1",
          "ticks": 493440,
          "time": 400.386304,
          "velocity": 0.4330708661417323
        },
        {
          "duration": 3.9916666666666742,
          "durationTicks": 1916,
          "midi": 36,
          "name": "C2",
          "ticks": 495360,
          "time": 404.386304,
          "velocity": 0.4330708661417323
        },
        {
          "duration": 0.9916666666666742,
          "durationTicks": 476,
          "midi": 34,
          "name": "A#1",
          "ticks": 497280,
          "time": 408.386304,
          "velocity": 0.3937007874015748
        },
        {
          "duration": 0.16666666666668561,
          "durationTicks": 80,
          "midi": 34,
          "name": "A#1",
          "ticks": 498120,
          "time": 410.136304,
          "velocity": 0.5905511811023622
        },
        {
          "duration": 0.4583333333333144,
          "durationTicks": 220,
          "midi": 34,
          "name": "A#1",
          "ticks": 498240,
          "time": 410.386304,
          "velocity": 0.5905511811023622
        },
        {
          "duration": 0.16666666666668561,
          "durationTicks": 80,
          "midi": 34,
          "name": "A#1",
          "ticks": 498600,
          "time": 411.136304,
          "velocity": 0.5905511811023622
        },
        {
          "duration": 0.4583333333333144,
          "durationTicks": 220,
          "midi": 35,
          "name": "B1",
          "ticks": 498720,
          "time": 411.386304,
          "velocity": 0.5905511811023622
        },
        {
          "duration": 0.16666666666668561,
          "durationTicks": 80,
          "midi": 35,
          "name": "B1",
          "ticks": 499080,
          "time": 412.136304,
          "velocity": 0.5905511811023622
        },
        {
          "duration": 0.9916666666666742,
          "durationTicks": 476,
          "midi": 34,
          "name": "A#1",
          "ticks": 499200,
          "time": 412.386304,
          "velocity": 0.5905511811023622
        },
        {
          "duration": 0.16666666666668561,
          "durationTicks": 80,
          "midi": 34,
          "name": "A#1",
          "ticks": 500040,
          "time": 414.136304,
          "velocity": 0.5905511811023622
        },
        {
          "duration": 0.4583333333333144,
          "durationTicks": 220,
          "midi": 34,
          "name": "A#1",
          "ticks": 500160,
          "time": 414.386304,
          "velocity": 0.5905511811023622
        },
        {
          "duration": 0.16666666666668561,
          "durationTicks": 80,
          "midi": 34,
          "name": "A#1",
          "ticks": 500520,
          "time": 415.136304,
          "velocity": 0.5905511811023622
        },
        {
          "duration": 0.4583333333333144,
          "durationTicks": 220,
          "midi": 35,
          "name": "B1",
          "ticks": 500640,
          "time": 415.386304,
          "velocity": 0.5905511811023622
        },
        {
          "duration": 0.16666666666668561,
          "durationTicks": 80,
          "midi": 35,
          "name": "B1",
          "ticks": 501000,
          "time": 416.136304,
          "velocity": 0.5905511811023622
        },
        {
          "duration": 1.6041666666666856,
          "durationTicks": 770,
          "midi": 34,
          "name": "A#1",
          "ticks": 501120,
          "time": 416.386304,
          "velocity": 0.5905511811023622
        },
        {
          "duration": 1.9916666666666742,
          "durationTicks": 956,
          "midi": 34,
          "name": "A#1",
          "ticks": 502080,
          "time": 418.386304,
          "velocity": 0.5905511811023622
        },
        {
          "duration": 0.4958333333333371,
          "durationTicks": 476,
          "midi": 39,
          "name": "D#2",
          "ticks": 504480,
          "time": 423.0946373333334,
          "velocity": 0.4330708661417323
        },
        {
          "duration": 0.4958333333333371,
          "durationTicks": 476,
          "midi": 38,
          "name": "D2",
          "ticks": 505920,
          "time": 424.5946373333334,
          "velocity": 0.4330708661417323
        },
        {
          "duration": 0.4270833333333144,
          "durationTicks": 410,
          "midi": 39,
          "name": "D#2",
          "ticks": 507360,
          "time": 426.0946373333334,
          "velocity": 0.4330708661417323
        },
        {
          "duration": 0.4270833333333144,
          "durationTicks": 410,
          "midi": 32,
          "name": "G#1",
          "ticks": 508080,
          "time": 426.8446373333334,
          "velocity": 0.4330708661417323
        },
        {
          "duration": 0.4270833333333144,
          "durationTicks": 410,
          "midi": 34,
          "name": "A#1",
          "ticks": 508800,
          "time": 427.5946373333334,
          "velocity": 0.4330708661417323
        },
        {
          "duration": 0.703125,
          "durationTicks": 675,
          "midi": 46,
          "name": "A#2",
          "ticks": 510240,
          "time": 429.0946373333334,
          "velocity": 0.4330708661417323
        },
        {
          "duration": 1.203125,
          "durationTicks": 1155,
          "midi": 44,
          "name": "G#2",
          "ticks": 510960,
          "time": 429.8446373333334,
          "velocity": 0.4330708661417323
        },
        {
          "duration": 0.703125,
          "durationTicks": 675,
          "midi": 43,
          "name": "G2",
          "ticks": 512400,
          "time": 431.3446373333334,
          "velocity": 0.4330708661417323
        },
        {
          "duration": 0.47916666666662877,
          "durationTicks": 460,
          "midi": 44,
          "name": "G#2",
          "ticks": 513120,
          "time": 432.0946373333334,
          "velocity": 0.4330708661417323
        },
        {
          "duration": 0.47916666666662877,
          "durationTicks": 460,
          "midi": 46,
          "name": "A#2",
          "ticks": 513840,
          "time": 432.8446373333334,
          "velocity": 0.4330708661417323
        },
        {
          "duration": 0.16666666666662877,
          "durationTicks": 160,
          "midi": 39,
          "name": "D#2",
          "ticks": 514560,
          "time": 433.5946373333334,
          "velocity": 0.5511811023622047
        },
        {
          "duration": 0.16666666666662877,
          "durationTicks": 160,
          "midi": 43,
          "name": "G2",
          "ticks": 514800,
          "time": 433.8446373333334,
          "velocity": 0.5511811023622047
        },
        {
          "duration": 0.16666666666662877,
          "durationTicks": 160,
          "midi": 46,
          "name": "A#2",
          "ticks": 515040,
          "time": 434.0946373333334,
          "velocity": 0.5511811023622047
        },
        {
          "duration": 0.41666666666662877,
          "durationTicks": 400,
          "midi": 51,
          "name": "D#3",
          "ticks": 515280,
          "time": 434.3446373333334,
          "velocity": 0.5511811023622047
        },
        {
          "duration": 0.3020833333333144,
          "durationTicks": 290,
          "midi": 43,
          "name": "G2",
          "ticks": 516000,
          "time": 435.0946373333334,
          "velocity": 0.4330708661417323
        },
        {
          "duration": 0.3020833333333144,
          "durationTicks": 290,
          "midi": 43,
          "name": "G2",
          "ticks": 516720,
          "time": 435.8446373333334,
          "velocity": 0.4330708661417323
        },
        {
          "duration": 0.17708333333331439,
          "durationTicks": 170,
          "midi": 36,
          "name": "C2",
          "ticks": 517440,
          "time": 436.5946373333334,
          "velocity": 0.4330708661417323
        },
        {
          "duration": 0.17708333333331439,
          "durationTicks": 170,
          "midi": 39,
          "name": "D#2",
          "ticks": 517680,
          "time": 436.8446373333334,
          "velocity": 0.4330708661417323
        },
        {
          "duration": 0.17708333333331439,
          "durationTicks": 170,
          "midi": 43,
          "name": "G2",
          "ticks": 517920,
          "time": 437.0946373333334,
          "velocity": 0.4330708661417323
        },
        {
          "duration": 0.17708333333331439,
          "durationTicks": 170,
          "midi": 48,
          "name": "C3",
          "ticks": 518160,
          "time": 437.3446373333334,
          "velocity": 0.4330708661417323
        },
        {
          "duration": 0.3020833333333144,
          "durationTicks": 290,
          "midi": 41,
          "name": "F2",
          "ticks": 518880,
          "time": 438.0946373333334,
          "velocity": 0.4330708661417323
        },
        {
          "duration": 0.3020833333333144,
          "durationTicks": 290,
          "midi": 41,
          "name": "F2",
          "ticks": 519600,
          "time": 438.8446373333334,
          "velocity": 0.4330708661417323
        },
        {
          "duration": 0.17708333333331439,
          "durationTicks": 170,
          "midi": 34,
          "name": "A#1",
          "ticks": 520320,
          "time": 439.5946373333334,
          "velocity": 0.4330708661417323
        },
        {
          "duration": 0.17708333333331439,
          "durationTicks": 170,
          "midi": 38,
          "name": "D2",
          "ticks": 520560,
          "time": 439.8446373333334,
          "velocity": 0.4330708661417323
        },
        {
          "duration": 0.17708333333331439,
          "durationTicks": 170,
          "midi": 41,
          "name": "F2",
          "ticks": 520800,
          "time": 440.0946373333334,
          "velocity": 0.4330708661417323
        },
        {
          "duration": 0.17708333333331439,
          "durationTicks": 170,
          "midi": 46,
          "name": "A#2",
          "ticks": 521040,
          "time": 440.3446373333334,
          "velocity": 0.4330708661417323
        },
        {
          "duration": 0.703125,
          "durationTicks": 675,
          "midi": 46,
          "name": "A#2",
          "ticks": 521760,
          "time": 441.0946373333334,
          "velocity": 0.4330708661417323
        },
        {
          "duration": 1.203125,
          "durationTicks": 1155,
          "midi": 44,
          "name": "G#2",
          "ticks": 522480,
          "time": 441.8446373333334,
          "velocity": 0.4330708661417323
        },
        {
          "duration": 0.703125,
          "durationTicks": 675,
          "midi": 43,
          "name": "G2",
          "ticks": 523920,
          "time": 443.3446373333334,
          "velocity": 0.4330708661417323
        },
        {
          "duration": 0.47916666666662877,
          "durationTicks": 460,
          "midi": 44,
          "name": "G#2",
          "ticks": 524640,
          "time": 444.0946373333334,
          "velocity": 0.4330708661417323
        },
        {
          "duration": 0.47916666666662877,
          "durationTicks": 460,
          "midi": 46,
          "name": "A#2",
          "ticks": 525360,
          "time": 444.8446373333334,
          "velocity": 0.4330708661417323
        },
        {
          "duration": 0.41666666666662877,
          "durationTicks": 400,
          "midi": 39,
          "name": "D#2",
          "ticks": 526080,
          "time": 445.5946373333334,
          "velocity": 0.4330708661417323
        },
        {
          "duration": 0.22916666666662877,
          "durationTicks": 220,
          "midi": 48,
          "name": "C3",
          "ticks": 527520,
          "time": 447.0946373333334,
          "velocity": 0.4330708661417323
        },
        {
          "duration": 0.052083333333314386,
          "durationTicks": 50,
          "midi": 50,
          "name": "D3",
          "ticks": 527880,
          "time": 447.4696373333334,
          "velocity": 0.4330708661417323
        },
        {
          "duration": 0.17708333333331439,
          "durationTicks": 170,
          "midi": 52,
          "name": "E3",
          "ticks": 528000,
          "time": 447.5946373333334,
          "velocity": 0.4330708661417323
        },
        {
          "duration": 0.22916666666662877,
          "durationTicks": 220,
          "midi": 53,
          "name": "F3",
          "ticks": 528240,
          "time": 447.8446373333334,
          "velocity": 0.4330708661417323
        },
        {
          "duration": 0.052083333333314386,
          "durationTicks": 50,
          "midi": 55,
          "name": "G3",
          "ticks": 528600,
          "time": 448.2196373333334,
          "velocity": 0.4330708661417323
        },
        {
          "duration": 0.17708333333331439,
          "durationTicks": 170,
          "midi": 56,
          "name": "G#3",
          "ticks": 528720,
          "time": 448.3446373333334,
          "velocity": 0.4330708661417323
        },
        {
          "duration": 0.22916666666662877,
          "durationTicks": 220,
          "midi": 46,
          "name": "A#2",
          "ticks": 528960,
          "time": 448.5946373333334,
          "velocity": 0.4330708661417323
        },
        {
          "duration": 0.052083333333314386,
          "durationTicks": 50,
          "midi": 48,
          "name": "C3",
          "ticks": 529320,
          "time": 448.9696373333334,
          "velocity": 0.4330708661417323
        },
        {
          "duration": 0.17708333333331439,
          "durationTicks": 170,
          "midi": 50,
          "name": "D3",
          "ticks": 529440,
          "time": 449.0946373333334,
          "velocity": 0.4330708661417323
        },
        {
          "duration": 0.22916666666662877,
          "durationTicks": 220,
          "midi": 51,
          "name": "D#3",
          "ticks": 529680,
          "time": 449.3446373333334,
          "velocity": 0.4330708661417323
        },
        {
          "duration": 0.052083333333314386,
          "durationTicks": 50,
          "midi": 53,
          "name": "F3",
          "ticks": 530040,
          "time": 449.7196373333334,
          "velocity": 0.4330708661417323
        },
        {
          "duration": 0.17708333333331439,
          "durationTicks": 170,
          "midi": 55,
          "name": "G3",
          "ticks": 530160,
          "time": 449.8446373333334,
          "velocity": 0.4330708661417323
        },
        {
          "duration": 0.16666666666662877,
          "durationTicks": 160,
          "midi": 44,
          "name": "G#2",
          "ticks": 530400,
          "time": 450.0946373333334,
          "velocity": 0.4330708661417323
        },
        {
          "duration": 0.16666666666662877,
          "durationTicks": 160,
          "midi": 44,
          "name": "G#2",
          "ticks": 530640,
          "time": 450.3446373333334,
          "velocity": 0.4330708661417323
        },
        {
          "duration": 0.16666666666662877,
          "durationTicks": 160,
          "midi": 44,
          "name": "G#2",
          "ticks": 530880,
          "time": 450.5946373333334,
          "velocity": 0.4330708661417323
        },
        {
          "duration": 0.16666666666662877,
          "durationTicks": 160,
          "midi": 46,
          "name": "A#2",
          "ticks": 531120,
          "time": 450.8446373333334,
          "velocity": 0.4330708661417323
        },
        {
          "duration": 0.16666666666662877,
          "durationTicks": 160,
          "midi": 46,
          "name": "A#2",
          "ticks": 531360,
          "time": 451.0946373333334,
          "velocity": 0.4330708661417323
        },
        {
          "duration": 0.16666666666662877,
          "durationTicks": 160,
          "midi": 46,
          "name": "A#2",
          "ticks": 531600,
          "time": 451.3446373333334,
          "velocity": 0.4330708661417323
        },
        {
          "duration": 0.16666666666662877,
          "durationTicks": 160,
          "midi": 48,
          "name": "C3",
          "ticks": 531840,
          "time": 451.5946373333334,
          "velocity": 0.4330708661417323
        },
        {
          "duration": 0.16666666666662877,
          "durationTicks": 160,
          "midi": 48,
          "name": "C3",
          "ticks": 532080,
          "time": 451.8446373333334,
          "velocity": 0.4330708661417323
        },
        {
          "duration": 0.16666666666662877,
          "durationTicks": 160,
          "midi": 48,
          "name": "C3",
          "ticks": 532320,
          "time": 452.0946373333334,
          "velocity": 0.4330708661417323
        },
        {
          "duration": 0.16666666666662877,
          "durationTicks": 160,
          "midi": 46,
          "name": "A#2",
          "ticks": 532560,
          "time": 452.3446373333334,
          "velocity": 0.4330708661417323
        },
        {
          "duration": 0.16666666666662877,
          "durationTicks": 160,
          "midi": 46,
          "name": "A#2",
          "ticks": 532800,
          "time": 452.5946373333334,
          "velocity": 0.4330708661417323
        },
        {
          "duration": 0.16666666666662877,
          "durationTicks": 160,
          "midi": 46,
          "name": "A#2",
          "ticks": 533040,
          "time": 452.8446373333334,
          "velocity": 0.4330708661417323
        },
        {
          "duration": 0.16666666666662877,
          "durationTicks": 160,
          "midi": 44,
          "name": "G#2",
          "ticks": 533280,
          "time": 453.0946373333334,
          "velocity": 0.6299212598425197
        },
        {
          "duration": 0.16666666666662877,
          "durationTicks": 160,
          "midi": 44,
          "name": "G#2",
          "ticks": 533520,
          "time": 453.3446373333334,
          "velocity": 0.6299212598425197
        },
        {
          "duration": 0.16666666666662877,
          "durationTicks": 160,
          "midi": 44,
          "name": "G#2",
          "ticks": 533760,
          "time": 453.5946373333334,
          "velocity": 0.6299212598425197
        },
        {
          "duration": 0.16666666666662877,
          "durationTicks": 160,
          "midi": 45,
          "name": "A2",
          "ticks": 534000,
          "time": 453.8446373333334,
          "velocity": 0.6299212598425197
        },
        {
          "duration": 0.16666666666662877,
          "durationTicks": 160,
          "midi": 45,
          "name": "A2",
          "ticks": 534240,
          "time": 454.0946373333334,
          "velocity": 0.6299212598425197
        },
        {
          "duration": 0.16666666666662877,
          "durationTicks": 160,
          "midi": 45,
          "name": "A2",
          "ticks": 534480,
          "time": 454.3446373333334,
          "velocity": 0.6299212598425197
        },
        {
          "duration": 0.16666666666662877,
          "durationTicks": 160,
          "midi": 46,
          "name": "A#2",
          "ticks": 534720,
          "time": 454.5946373333334,
          "velocity": 0.4330708661417323
        },
        {
          "duration": 0.16666666666662877,
          "durationTicks": 160,
          "midi": 46,
          "name": "A#2",
          "ticks": 534960,
          "time": 454.8446373333334,
          "velocity": 0.4330708661417323
        },
        {
          "duration": 0.16666666666662877,
          "durationTicks": 160,
          "midi": 46,
          "name": "A#2",
          "ticks": 535200,
          "time": 455.0946373333334,
          "velocity": 0.4330708661417323
        },
        {
          "duration": 0.16666666666662877,
          "durationTicks": 160,
          "midi": 46,
          "name": "A#2",
          "ticks": 535440,
          "time": 455.3446373333334,
          "velocity": 0.4330708661417323
        },
        {
          "duration": 0.16666666666662877,
          "durationTicks": 160,
          "midi": 46,
          "name": "A#2",
          "ticks": 535680,
          "time": 455.5946373333334,
          "velocity": 0.4330708661417323
        },
        {
          "duration": 0.16666666666662877,
          "durationTicks": 160,
          "midi": 46,
          "name": "A#2",
          "ticks": 535920,
          "time": 455.8446373333334,
          "velocity": 0.4330708661417323
        },
        {
          "duration": 0.16666666666662877,
          "durationTicks": 160,
          "midi": 46,
          "name": "A#2",
          "ticks": 536160,
          "time": 456.0946373333334,
          "velocity": 0.4330708661417323
        },
        {
          "duration": 0.16666666666662877,
          "durationTicks": 160,
          "midi": 46,
          "name": "A#2",
          "ticks": 536400,
          "time": 456.3446373333334,
          "velocity": 0.4330708661417323
        },
        {
          "duration": 0.16666666666662877,
          "durationTicks": 160,
          "midi": 46,
          "name": "A#2",
          "ticks": 536640,
          "time": 456.5946373333334,
          "velocity": 0.4330708661417323
        },
        {
          "duration": 0.16666666666662877,
          "durationTicks": 160,
          "midi": 46,
          "name": "A#2",
          "ticks": 536880,
          "time": 456.8446373333334,
          "velocity": 0.4330708661417323
        },
        {
          "duration": 0.16666666666662877,
          "durationTicks": 160,
          "midi": 46,
          "name": "A#2",
          "ticks": 537120,
          "time": 457.0946373333334,
          "velocity": 0.4330708661417323
        },
        {
          "duration": 0.16666666666662877,
          "durationTicks": 160,
          "midi": 46,
          "name": "A#2",
          "ticks": 537360,
          "time": 457.3446373333334,
          "velocity": 0.4330708661417323
        },
        {
          "duration": 0.16666666666662877,
          "durationTicks": 160,
          "midi": 46,
          "name": "A#2",
          "ticks": 537600,
          "time": 457.5946373333334,
          "velocity": 0.4330708661417323
        },
        {
          "duration": 0.16666666666662877,
          "durationTicks": 160,
          "midi": 46,
          "name": "A#2",
          "ticks": 537840,
          "time": 457.8446373333334,
          "velocity": 0.4330708661417323
        },
        {
          "duration": 0.16666666666662877,
          "durationTicks": 160,
          "midi": 46,
          "name": "A#2",
          "ticks": 538080,
          "time": 458.0946373333334,
          "velocity": 0.4330708661417323
        },
        {
          "duration": 0.16666666666662877,
          "durationTicks": 160,
          "midi": 46,
          "name": "A#2",
          "ticks": 538320,
          "time": 458.3446373333334,
          "velocity": 0.4330708661417323
        },
        {
          "duration": 0.16666666666662877,
          "durationTicks": 160,
          "midi": 46,
          "name": "A#2",
          "ticks": 538560,
          "time": 458.5946373333334,
          "velocity": 0.4330708661417323
        },
        {
          "duration": 0.16666666666662877,
          "durationTicks": 160,
          "midi": 46,
          "name": "A#2",
          "ticks": 538800,
          "time": 458.8446373333334,
          "velocity": 0.4330708661417323
        },
        {
          "duration": 0.16666666666662877,
          "durationTicks": 160,
          "midi": 46,
          "name": "A#2",
          "ticks": 539040,
          "time": 459.0946373333334,
          "velocity": 0.4330708661417323
        },
        {
          "duration": 0.16666666666662877,
          "durationTicks": 160,
          "midi": 46,
          "name": "A#2",
          "ticks": 539280,
          "time": 459.3446373333334,
          "velocity": 0.4330708661417323
        },
        {
          "duration": 0.16666666666662877,
          "durationTicks": 160,
          "midi": 46,
          "name": "A#2",
          "ticks": 539520,
          "time": 459.5946373333334,
          "velocity": 0.4330708661417323
        },
        {
          "duration": 0.16666666666662877,
          "durationTicks": 160,
          "midi": 46,
          "name": "A#2",
          "ticks": 539760,
          "time": 459.8446373333334,
          "velocity": 0.4330708661417323
        },
        {
          "duration": 0.16666666666662877,
          "durationTicks": 160,
          "midi": 46,
          "name": "A#2",
          "ticks": 540000,
          "time": 460.0946373333334,
          "velocity": 0.4330708661417323
        },
        {
          "duration": 0.16666666666662877,
          "durationTicks": 160,
          "midi": 46,
          "name": "A#2",
          "ticks": 540240,
          "time": 460.3446373333334,
          "velocity": 0.4330708661417323
        },
        {
          "duration": 0.16666666666662877,
          "durationTicks": 160,
          "midi": 46,
          "name": "A#2",
          "ticks": 540480,
          "time": 460.5946373333334,
          "velocity": 0.4330708661417323
        },
        {
          "duration": 0.16666666666662877,
          "durationTicks": 160,
          "midi": 46,
          "name": "A#2",
          "ticks": 540720,
          "time": 460.8446373333334,
          "velocity": 0.4330708661417323
        },
        {
          "duration": 0.16666666666662877,
          "durationTicks": 160,
          "midi": 46,
          "name": "A#2",
          "ticks": 540960,
          "time": 461.0946373333334,
          "velocity": 0.4330708661417323
        },
        {
          "duration": 0.16666666666662877,
          "durationTicks": 160,
          "midi": 46,
          "name": "A#2",
          "ticks": 541200,
          "time": 461.3446373333334,
          "velocity": 0.4330708661417323
        },
        {
          "duration": 0.16666666666662877,
          "durationTicks": 160,
          "midi": 46,
          "name": "A#2",
          "ticks": 541440,
          "time": 461.5946373333334,
          "velocity": 0.4330708661417323
        },
        {
          "duration": 0.16666666666662877,
          "durationTicks": 160,
          "midi": 46,
          "name": "A#2",
          "ticks": 541680,
          "time": 461.8446373333334,
          "velocity": 0.4330708661417323
        },
        {
          "duration": 0.16666666666662877,
          "durationTicks": 160,
          "midi": 46,
          "name": "A#2",
          "ticks": 541920,
          "time": 462.0946373333334,
          "velocity": 0.4330708661417323
        },
        {
          "duration": 0.16666666666662877,
          "durationTicks": 160,
          "midi": 46,
          "name": "A#2",
          "ticks": 542160,
          "time": 462.3446373333334,
          "velocity": 0.4330708661417323
        },
        {
          "duration": 0.16666666666662877,
          "durationTicks": 160,
          "midi": 46,
          "name": "A#2",
          "ticks": 542640,
          "time": 462.8446373333334,
          "velocity": 0.4330708661417323
        },
        {
          "duration": 0.16666666666662877,
          "durationTicks": 160,
          "midi": 46,
          "name": "A#2",
          "ticks": 542880,
          "time": 463.0946373333334,
          "velocity": 0.4330708661417323
        },
        {
          "duration": 0.16666666666662877,
          "durationTicks": 160,
          "midi": 46,
          "name": "A#2",
          "ticks": 543360,
          "time": 463.5946373333334,
          "velocity": 0.4330708661417323
        },
        {
          "duration": 0.16666666666662877,
          "durationTicks": 160,
          "midi": 46,
          "name": "A#2",
          "ticks": 543600,
          "time": 463.8446373333334,
          "velocity": 0.4330708661417323
        },
        {
          "duration": 0.16666666666662877,
          "durationTicks": 160,
          "midi": 46,
          "name": "A#2",
          "ticks": 544080,
          "time": 464.3446373333334,
          "velocity": 0.4330708661417323
        },
        {
          "duration": 0.16666666666662877,
          "durationTicks": 160,
          "midi": 46,
          "name": "A#2",
          "ticks": 544320,
          "time": 464.5946373333334,
          "velocity": 0.4330708661417323
        },
        {
          "duration": 1.4875000000000114,
          "durationTicks": 476,
          "midi": 46,
          "name": "A#2",
          "ticks": 546240,
          "time": 466.98921325000003,
          "velocity": 0.4330708661417323
        },
        {
          "duration": 0.13793099999998049,
          "durationTicks": 160,
          "midi": 46,
          "name": "A#2",
          "ticks": 567120,
          "time": 490.31679775000003,
          "velocity": 0.7086614173228346
        },
        {
          "duration": 0.13793099999998049,
          "durationTicks": 160,
          "midi": 46,
          "name": "A#2",
          "ticks": 567360,
          "time": 490.52369425000006,
          "velocity": 0.7086614173228346
        },
        {
          "duration": 0.13793099999998049,
          "durationTicks": 160,
          "midi": 46,
          "name": "A#2",
          "ticks": 567600,
          "time": 490.73059075000003,
          "velocity": 0.7086614173228346
        },
        {
          "duration": 0.16810340624999753,
          "durationTicks": 195,
          "midi": 51,
          "name": "D#3",
          "ticks": 567840,
          "time": 490.93748725000006,
          "velocity": 0.7086614173228346
        },
        {
          "duration": 0.13793100000003733,
          "durationTicks": 160,
          "midi": 46,
          "name": "A#2",
          "ticks": 570000,
          "time": 492.79955575,
          "velocity": 0.7086614173228346
        },
        {
          "duration": 0.13793099999998049,
          "durationTicks": 160,
          "midi": 46,
          "name": "A#2",
          "ticks": 570240,
          "time": 493.00645225000005,
          "velocity": 0.7086614173228346
        },
        {
          "duration": 0.13793100000003733,
          "durationTicks": 160,
          "midi": 46,
          "name": "A#2",
          "ticks": 570480,
          "time": 493.21334875,
          "velocity": 0.7086614173228346
        },
        {
          "duration": 0.24999993749997884,
          "durationTicks": 290,
          "midi": 51,
          "name": "D#3",
          "ticks": 570720,
          "time": 493.42024525000005,
          "velocity": 0.7086614173228346
        },
        {
          "duration": 0.16810340624999753,
          "durationTicks": 195,
          "midi": 50,
          "name": "D3",
          "ticks": 571200,
          "time": 493.83403825000005,
          "velocity": 0.7086614173228346
        },
        {
          "duration": 0.24999993750003568,
          "durationTicks": 290,
          "midi": 51,
          "name": "D#3",
          "ticks": 571440,
          "time": 494.04093475,
          "velocity": 0.7086614173228346
        },
        {
          "duration": 0.16810340624999753,
          "durationTicks": 195,
          "midi": 50,
          "name": "D3",
          "ticks": 571920,
          "time": 494.45472775,
          "velocity": 0.7086614173228346
        },
        {
          "duration": 0.24999993749997884,
          "durationTicks": 290,
          "midi": 51,
          "name": "D#3",
          "ticks": 572160,
          "time": 494.66162425000005,
          "velocity": 0.7086614173228346
        },
        {
          "duration": 0.16810340624999753,
          "durationTicks": 195,
          "midi": 50,
          "name": "D3",
          "ticks": 572640,
          "time": 495.07541725000004,
          "velocity": 0.7086614173228346
        },
        {
          "duration": 0.24999993750003568,
          "durationTicks": 290,
          "midi": 51,
          "name": "D#3",
          "ticks": 572880,
          "time": 495.28231375,
          "velocity": 0.7086614173228346
        },
        {
          "duration": 0.16810340624999753,
          "durationTicks": 195,
          "midi": 50,
          "name": "D3",
          "ticks": 573360,
          "time": 495.69610675,
          "velocity": 0.7086614173228346
        },
        {
          "duration": 0.16810340624999753,
          "durationTicks": 195,
          "midi": 51,
          "name": "D#3",
          "ticks": 573600,
          "time": 495.90300325000004,
          "velocity": 0.7086614173228346
        }
      ]
    },
    {
      "channel": 0,
      "controlChanges": {},
      "pitchBends": [],
      "instrument": {
        "family": "piano",
        "number": 0,
        "name": "acoustic grand piano"
      },
      "name": "Cello",
      "notes": [],
      "endOfTrackTicks": 575040
    },
    {
      "channel": 11,
      "controlChanges": {
        "7": [
          {
            "number": 7,
            "ticks": 0,
            "time": 0,
            "value": 0.7874015748031497
          }
        ],
        "10": [
          {
            "number": 10,
            "ticks": 0,
            "time": 0,
            "value": 0.31496062992125984
          }
        ],
        "91": [
          {
            "number": 91,
            "ticks": 0,
            "time": 0,
            "value": 0.5905511811023622
          }
        ]
      },
      "pitchBends": [],
      "instrument": {
        "family": "strings",
        "number": 45,
        "name": "pizzicato strings"
      },
      "name": "",
      "notes": [
        {
          "duration": 0.32257999999999987,
          "durationTicks": 400,
          "midi": 51,
          "name": "D#3",
          "ticks": 1920,
          "time": 1.548384,
          "velocity": 0.31496062992125984
        },
        {
          "duration": 0.32257999999999987,
          "durationTicks": 400,
          "midi": 51,
          "name": "D#3",
          "ticks": 3360,
          "time": 2.709672,
          "velocity": 0.31496062992125984
        },
        {
          "duration": 0.3225800000000003,
          "durationTicks": 400,
          "midi": 50,
          "name": "D3",
          "ticks": 3840,
          "time": 3.096768,
          "velocity": 0.31496062992125984
        },
        {
          "duration": 0.3225800000000003,
          "durationTicks": 400,
          "midi": 50,
          "name": "D3",
          "ticks": 5280,
          "time": 4.258056,
          "velocity": 0.31496062992125984
        },
        {
          "duration": 0.3225800000000003,
          "durationTicks": 400,
          "midi": 51,
          "name": "D#3",
          "ticks": 5760,
          "time": 4.6451519999999995,
          "velocity": 0.31496062992125984
        },
        {
          "duration": 0.3225800000000003,
          "durationTicks": 400,
          "midi": 51,
          "name": "D#3",
          "ticks": 6240,
          "time": 5.032248,
          "velocity": 0.31496062992125984
        },
        {
          "duration": 0.3225800000000003,
          "durationTicks": 400,
          "midi": 44,
          "name": "G#2",
          "ticks": 6720,
          "time": 5.419344,
          "velocity": 0.31496062992125984
        },
        {
          "duration": 0.3225800000000003,
          "durationTicks": 400,
          "midi": 44,
          "name": "G#2",
          "ticks": 7200,
          "time": 5.80644,
          "velocity": 0.31496062992125984
        },
        {
          "duration": 0.9032239999999998,
          "durationTicks": 1120,
          "midi": 46,
          "name": "A#2",
          "ticks": 7680,
          "time": 6.193536,
          "velocity": 0.31496062992125984
        },
        {
          "duration": 0.32257999999999853,
          "durationTicks": 400,
          "midi": 58,
          "name": "A#3",
          "ticks": 9600,
          "time": 7.74192,
          "velocity": 0.31496062992125984
        },
        {
          "duration": 0.3225800000000003,
          "durationTicks": 400,
          "midi": 56,
          "name": "G#3",
          "ticks": 10560,
          "time": 8.516112,
          "velocity": 0.31496062992125984
        },
        {
          "duration": 0.3225800000000003,
          "durationTicks": 400,
          "midi": 56,
          "name": "G#3",
          "ticks": 11520,
          "time": 9.290303999999999,
          "velocity": 0.31496062992125984
        },
        {
          "duration": 0.32257999999999853,
          "durationTicks": 400,
          "midi": 55,
          "name": "G3",
          "ticks": 12480,
          "time": 10.064496,
          "velocity": 0.31496062992125984
        },
        {
          "duration": 0.3225800000000003,
          "durationTicks": 400,
          "midi": 56,
          "name": "G#3",
          "ticks": 13440,
          "time": 10.838688,
          "velocity": 0.31496062992125984
        },
        {
          "duration": 0.32257999999999853,
          "durationTicks": 400,
          "midi": 58,
          "name": "A#3",
          "ticks": 14400,
          "time": 11.61288,
          "velocity": 0.31496062992125984
        },
        {
          "duration": 0.9032240000000016,
          "durationTicks": 1120,
          "midi": 51,
          "name": "D#3",
          "ticks": 15360,
          "time": 12.387072,
          "velocity": 0.31496062992125984
        },
        {
          "duration": 0.3225800000000021,
          "durationTicks": 400,
          "midi": 55,
          "name": "G3",
          "ticks": 18720,
          "time": 15.096744,
          "velocity": 0.31496062992125984
        },
        {
          "duration": 0.3225800000000003,
          "durationTicks": 400,
          "midi": 60,
          "name": "C4",
          "ticks": 19200,
          "time": 15.48384,
          "velocity": 0.31496062992125984
        },
        {
          "duration": 0.3225800000000021,
          "durationTicks": 400,
          "midi": 60,
          "name": "C4",
          "ticks": 19680,
          "time": 15.870936,
          "velocity": 0.31496062992125984
        },
        {
          "duration": 0.3225800000000021,
          "durationTicks": 400,
          "midi": 60,
          "name": "C4",
          "ticks": 20160,
          "time": 16.258032,
          "velocity": 0.31496062992125984
        },
        {
          "duration": 0.3225800000000021,
          "durationTicks": 400,
          "midi": 53,
          "name": "F3",
          "ticks": 22560,
          "time": 18.193512,
          "velocity": 0.31496062992125984
        },
        {
          "duration": 0.3225800000000021,
          "durationTicks": 400,
          "midi": 58,
          "name": "A#3",
          "ticks": 23040,
          "time": 18.580607999999998,
          "velocity": 0.31496062992125984
        },
        {
          "duration": 0.32257999999999853,
          "durationTicks": 400,
          "midi": 58,
          "name": "A#3",
          "ticks": 23520,
          "time": 18.967704,
          "velocity": 0.31496062992125984
        },
        {
          "duration": 0.32257999999999853,
          "durationTicks": 400,
          "midi": 58,
          "name": "A#3",
          "ticks": 24000,
          "time": 19.3548,
          "velocity": 0.31496062992125984
        },
        {
          "duration": 0.3225800000000021,
          "durationTicks": 400,
          "midi": 58,
          "name": "A#3",
          "ticks": 24960,
          "time": 20.128992,
          "velocity": 0.31496062992125984
        },
        {
          "duration": 0.3225800000000021,
          "durationTicks": 400,
          "midi": 56,
          "name": "G#3",
          "ticks": 25920,
          "time": 20.903184,
          "velocity": 0.31496062992125984
        },
        {
          "duration": 0.3225800000000021,
          "durationTicks": 400,
          "midi": 56,
          "name": "G#3",
          "ticks": 26880,
          "time": 21.677376,
          "velocity": 0.31496062992125984
        },
        {
          "duration": 0.3225800000000021,
          "durationTicks": 400,
          "midi": 55,
          "name": "G3",
          "ticks": 27840,
          "time": 22.451567999999998,
          "velocity": 0.31496062992125984
        },
        {
          "duration": 0.32257999999999853,
          "durationTicks": 400,
          "midi": 56,
          "name": "G#3",
          "ticks": 28800,
          "time": 23.22576,
          "velocity": 0.31496062992125984
        },
        {
          "duration": 0.32257999999999853,
          "durationTicks": 400,
          "midi": 58,
          "name": "A#3",
          "ticks": 29760,
          "time": 23.999952,
          "velocity": 0.31496062992125984
        },
        {
          "duration": 0.903223999999998,
          "durationTicks": 1120,
          "midi": 51,
          "name": "D#3",
          "ticks": 30720,
          "time": 24.774144,
          "velocity": 0.31496062992125984
        },
        {
          "duration": 0.12903199999999515,
          "durationTicks": 160,
          "midi": 51,
          "name": "D#3",
          "ticks": 140160,
          "time": 113.032032,
          "velocity": 0.31496062992125984
        },
        {
          "duration": 0.12903199999999515,
          "durationTicks": 160,
          "midi": 55,
          "name": "G3",
          "ticks": 141120,
          "time": 113.806224,
          "velocity": 0.31496062992125984
        },
        {
          "duration": 0.12903199999999515,
          "durationTicks": 160,
          "midi": 58,
          "name": "A#3",
          "ticks": 142080,
          "time": 114.580416,
          "velocity": 0.31496062992125984
        },
        {
          "duration": 0.12903199999999515,
          "durationTicks": 160,
          "midi": 46,
          "name": "A#2",
          "ticks": 143040,
          "time": 115.354608,
          "velocity": 0.31496062992125984
        },
        {
          "duration": 0.12903199999999515,
          "durationTicks": 160,
          "midi": 51,
          "name": "D#3",
          "ticks": 144000,
          "time": 116.1288,
          "velocity": 0.31496062992125984
        },
        {
          "duration": 0.12903199999999515,
          "durationTicks": 160,
          "midi": 50,
          "name": "D3",
          "ticks": 144480,
          "time": 116.515896,
          "velocity": 0.31496062992125984
        },
        {
          "duration": 0.12903199999999515,
          "durationTicks": 160,
          "midi": 51,
          "name": "D#3",
          "ticks": 144960,
          "time": 116.902992,
          "velocity": 0.31496062992125984
        },
        {
          "duration": 0.12903199999999515,
          "durationTicks": 160,
          "midi": 44,
          "name": "G#2",
          "ticks": 145440,
          "time": 117.290088,
          "velocity": 0.31496062992125984
        },
        {
          "duration": 0.38387020000000405,
          "durationTicks": 476,
          "midi": 46,
          "name": "A#2",
          "ticks": 145920,
          "time": 117.677184,
          "velocity": 0.31496062992125984
        },
        {
          "duration": 0.38387020000000405,
          "durationTicks": 476,
          "midi": 46,
          "name": "A#2",
          "ticks": 146400,
          "time": 118.06428,
          "velocity": 0.31496062992125984
        },
        {
          "duration": 0.38387020000000405,
          "durationTicks": 476,
          "midi": 46,
          "name": "A#2",
          "ticks": 146880,
          "time": 118.451376,
          "velocity": 0.31496062992125984
        },
        {
          "duration": 0.1370965000000126,
          "durationTicks": 170,
          "midi": 48,
          "name": "C3",
          "ticks": 147840,
          "time": 119.225568,
          "velocity": 0.31496062992125984
        },
        {
          "duration": 0.1370965000000126,
          "durationTicks": 170,
          "midi": 53,
          "name": "F3",
          "ticks": 148800,
          "time": 119.99976,
          "velocity": 0.31496062992125984
        },
        {
          "duration": 0.1370965000000126,
          "durationTicks": 170,
          "midi": 46,
          "name": "A#2",
          "ticks": 149760,
          "time": 120.773952,
          "velocity": 0.31496062992125984
        },
        {
          "duration": 0.1370965000000126,
          "durationTicks": 170,
          "midi": 51,
          "name": "D#3",
          "ticks": 150720,
          "time": 121.548144,
          "velocity": 0.31496062992125984
        },
        {
          "duration": 0.1370965000000126,
          "durationTicks": 170,
          "midi": 48,
          "name": "C3",
          "ticks": 163200,
          "time": 131.61264,
          "velocity": 0.31496062992125984
        },
        {
          "duration": 0.1370965000000126,
          "durationTicks": 170,
          "midi": 53,
          "name": "F3",
          "ticks": 164160,
          "time": 132.386832,
          "velocity": 0.31496062992125984
        },
        {
          "duration": 0.1370965000000126,
          "durationTicks": 170,
          "midi": 46,
          "name": "A#2",
          "ticks": 165120,
          "time": 133.161024,
          "velocity": 0.31496062992125984
        },
        {
          "duration": 0.1370965000000126,
          "durationTicks": 170,
          "midi": 51,
          "name": "D#3",
          "ticks": 166080,
          "time": 133.935216,
          "velocity": 0.31496062992125984
        },
        {
          "duration": 0.12903199999999515,
          "durationTicks": 160,
          "midi": 51,
          "name": "D#3",
          "ticks": 370560,
          "time": 298.838112,
          "velocity": 0.31496062992125984
        },
        {
          "duration": 0.12903199999999515,
          "durationTicks": 160,
          "midi": 51,
          "name": "D#3",
          "ticks": 371520,
          "time": 299.612304,
          "velocity": 0.31496062992125984
        },
        {
          "duration": 0.12903199999999515,
          "durationTicks": 160,
          "midi": 50,
          "name": "D3",
          "ticks": 372480,
          "time": 300.386496,
          "velocity": 0.31496062992125984
        },
        {
          "duration": 0.12903199999999515,
          "durationTicks": 160,
          "midi": 50,
          "name": "D3",
          "ticks": 373440,
          "time": 301.160688,
          "velocity": 0.31496062992125984
        },
        {
          "duration": 0.12903199999999515,
          "durationTicks": 160,
          "midi": 51,
          "name": "D#3",
          "ticks": 374400,
          "time": 301.93488,
          "velocity": 0.31496062992125984
        },
        {
          "duration": 0.12903199999999515,
          "durationTicks": 160,
          "midi": 44,
          "name": "G#2",
          "ticks": 375360,
          "time": 302.709072,
          "velocity": 0.31496062992125984
        },
        {
          "duration": 0.12903199999999515,
          "durationTicks": 160,
          "midi": 46,
          "name": "A#2",
          "ticks": 376320,
          "time": 303.483264,
          "velocity": 0.31496062992125984
        },
        {
          "duration": 0.12903199999999515,
          "durationTicks": 160,
          "midi": 46,
          "name": "A#2",
          "ticks": 376800,
          "time": 303.87036,
          "velocity": 0.31496062992125984
        },
        {
          "duration": 0.12903199999999515,
          "durationTicks": 160,
          "midi": 46,
          "name": "A#2",
          "ticks": 377280,
          "time": 304.257456,
          "velocity": 0.31496062992125984
        },
        {
          "duration": 0.12903199999999515,
          "durationTicks": 160,
          "midi": 52,
          "name": "E3",
          "ticks": 378240,
          "time": 305.031648,
          "velocity": 0.31496062992125984
        },
        {
          "duration": 0.12903199999999515,
          "durationTicks": 160,
          "midi": 53,
          "name": "F3",
          "ticks": 379200,
          "time": 305.80584,
          "velocity": 0.31496062992125984
        },
        {
          "duration": 0.12903199999999515,
          "durationTicks": 160,
          "midi": 50,
          "name": "D3",
          "ticks": 380160,
          "time": 306.580032,
          "velocity": 0.31496062992125984
        },
        {
          "duration": 0.12903199999999515,
          "durationTicks": 160,
          "midi": 51,
          "name": "D#3",
          "ticks": 381120,
          "time": 307.354224,
          "velocity": 0.31496062992125984
        },
        {
          "duration": 0.12903199999999515,
          "durationTicks": 160,
          "midi": 56,
          "name": "G#3",
          "ticks": 382080,
          "time": 308.128416,
          "velocity": 0.31496062992125984
        },
        {
          "duration": 0.129032000000052,
          "durationTicks": 160,
          "midi": 58,
          "name": "A#3",
          "ticks": 383040,
          "time": 308.902608,
          "velocity": 0.31496062992125984
        },
        {
          "duration": 0.6129020000000196,
          "durationTicks": 760,
          "midi": 51,
          "name": "D#3",
          "ticks": 384000,
          "time": 309.6768,
          "velocity": 0.31496062992125984
        },
        {
          "duration": 0.12903199999999515,
          "durationTicks": 160,
          "midi": 55,
          "name": "G3",
          "ticks": 385920,
          "time": 311.225184,
          "velocity": 0.31496062992125984
        },
        {
          "duration": 0.129032000000052,
          "durationTicks": 160,
          "midi": 55,
          "name": "G3",
          "ticks": 386880,
          "time": 311.999376,
          "velocity": 0.31496062992125984
        },
        {
          "duration": 0.12903199999999515,
          "durationTicks": 160,
          "midi": 48,
          "name": "C3",
          "ticks": 387840,
          "time": 312.773568,
          "velocity": 0.31496062992125984
        },
        {
          "duration": 0.129032000000052,
          "durationTicks": 160,
          "midi": 48,
          "name": "C3",
          "ticks": 388800,
          "time": 313.54776,
          "velocity": 0.31496062992125984
        },
        {
          "duration": 0.12903199999999515,
          "durationTicks": 160,
          "midi": 53,
          "name": "F3",
          "ticks": 389760,
          "time": 314.321952,
          "velocity": 0.31496062992125984
        },
        {
          "duration": 0.129032000000052,
          "durationTicks": 160,
          "midi": 53,
          "name": "F3",
          "ticks": 390720,
          "time": 315.096144,
          "velocity": 0.31496062992125984
        },
        {
          "duration": 0.12903199999999515,
          "durationTicks": 160,
          "midi": 46,
          "name": "A#2",
          "ticks": 391680,
          "time": 315.870336,
          "velocity": 0.31496062992125984
        },
        {
          "duration": 0.129032000000052,
          "durationTicks": 160,
          "midi": 58,
          "name": "A#3",
          "ticks": 392640,
          "time": 316.644528,
          "velocity": 0.31496062992125984
        },
        {
          "duration": 0.12903199999999515,
          "durationTicks": 160,
          "midi": 52,
          "name": "E3",
          "ticks": 393600,
          "time": 317.41872,
          "velocity": 0.31496062992125984
        },
        {
          "duration": 0.129032000000052,
          "durationTicks": 160,
          "midi": 53,
          "name": "F3",
          "ticks": 394560,
          "time": 318.192912,
          "velocity": 0.31496062992125984
        },
        {
          "duration": 0.12903199999999515,
          "durationTicks": 160,
          "midi": 50,
          "name": "D3",
          "ticks": 395520,
          "time": 318.967104,
          "velocity": 0.31496062992125984
        },
        {
          "duration": 0.129032000000052,
          "durationTicks": 160,
          "midi": 51,
          "name": "D#3",
          "ticks": 396480,
          "time": 319.741296,
          "velocity": 0.31496062992125984
        },
        {
          "duration": 0.12903199999999515,
          "durationTicks": 160,
          "midi": 56,
          "name": "G#3",
          "ticks": 397440,
          "time": 320.515488,
          "velocity": 0.31496062992125984
        },
        {
          "duration": 0.129032000000052,
          "durationTicks": 160,
          "midi": 58,
          "name": "A#3",
          "ticks": 398400,
          "time": 321.28968,
          "velocity": 0.31496062992125984
        },
        {
          "duration": 0.6129020000000196,
          "durationTicks": 760,
          "midi": 51,
          "name": "D#3",
          "ticks": 399360,
          "time": 322.063872,
          "velocity": 0.31496062992125984
        },
        {
          "duration": 0.12903199999999515,
          "durationTicks": 160,
          "midi": 51,
          "name": "D#3",
          "ticks": 462720,
          "time": 373.160544,
          "velocity": 0.31496062992125984
        },
        {
          "duration": 0.12903199999999515,
          "durationTicks": 160,
          "midi": 50,
          "name": "D3",
          "ticks": 464640,
          "time": 374.708928,
          "velocity": 0.31496062992125984
        },
        {
          "duration": 0.12903199999999515,
          "durationTicks": 160,
          "midi": 51,
          "name": "D#3",
          "ticks": 466560,
          "time": 376.257312,
          "velocity": 0.31496062992125984
        },
        {
          "duration": 0.129032000000052,
          "durationTicks": 160,
          "midi": 44,
          "name": "G#2",
          "ticks": 468000,
          "time": 377.41859999999997,
          "velocity": 0.31496062992125984
        },
        {
          "duration": 0.12903199999999515,
          "durationTicks": 160,
          "midi": 46,
          "name": "A#2",
          "ticks": 468480,
          "time": 377.805696,
          "velocity": 0.31496062992125984
        },
        {
          "duration": 0.12903199999999515,
          "durationTicks": 160,
          "midi": 46,
          "name": "A#2",
          "ticks": 468960,
          "time": 378.192792,
          "velocity": 0.31496062992125984
        },
        {
          "duration": 0.129032000000052,
          "durationTicks": 160,
          "midi": 46,
          "name": "A#2",
          "ticks": 469440,
          "time": 378.579888,
          "velocity": 0.31496062992125984
        },
        {
          "duration": 0.12903199999999515,
          "durationTicks": 160,
          "midi": 48,
          "name": "C3",
          "ticks": 470400,
          "time": 379.35408,
          "velocity": 0.31496062992125984
        },
        {
          "duration": 0.129032000000052,
          "durationTicks": 160,
          "midi": 53,
          "name": "F3",
          "ticks": 471360,
          "time": 380.128272,
          "velocity": 0.31496062992125984
        },
        {
          "duration": 0.12903199999999515,
          "durationTicks": 160,
          "midi": 46,
          "name": "A#2",
          "ticks": 472320,
          "time": 380.902464,
          "velocity": 0.31496062992125984
        },
        {
          "duration": 0.129032000000052,
          "durationTicks": 160,
          "midi": 51,
          "name": "D#3",
          "ticks": 473280,
          "time": 381.676656,
          "velocity": 0.31496062992125984
        },
        {
          "duration": 0.12903199999999515,
          "durationTicks": 160,
          "midi": 56,
          "name": "G#3",
          "ticks": 474240,
          "time": 382.450848,
          "velocity": 0.31496062992125984
        },
        {
          "duration": 0.129032000000052,
          "durationTicks": 160,
          "midi": 58,
          "name": "A#3",
          "ticks": 475200,
          "time": 383.22504,
          "velocity": 0.31496062992125984
        },
        {
          "duration": 0.12903199999999515,
          "durationTicks": 160,
          "midi": 51,
          "name": "D#3",
          "ticks": 476160,
          "time": 383.999232,
          "velocity": 0.31496062992125984
        },
        {
          "duration": 0.12903199999999515,
          "durationTicks": 160,
          "midi": 55,
          "name": "G3",
          "ticks": 478080,
          "time": 385.547616,
          "velocity": 0.31496062992125984
        },
        {
          "duration": 0.12903199999999515,
          "durationTicks": 160,
          "midi": 60,
          "name": "C4",
          "ticks": 480000,
          "time": 387.096,
          "velocity": 0.31496062992125984
        },
        {
          "duration": 0.12903199999999515,
          "durationTicks": 160,
          "midi": 53,
          "name": "F3",
          "ticks": 481920,
          "time": 388.644384,
          "velocity": 0.31496062992125984
        },
        {
          "duration": 0.12903199999999515,
          "durationTicks": 160,
          "midi": 58,
          "name": "A#3",
          "ticks": 483840,
          "time": 390.192768,
          "velocity": 0.31496062992125984
        },
        {
          "duration": 0.4958333333333371,
          "durationTicks": 476,
          "midi": 51,
          "name": "D#3",
          "ticks": 547680,
          "time": 471.48921325000003,
          "velocity": 0.31496062992125984
        },
        {
          "duration": 0.4958333333333371,
          "durationTicks": 476,
          "midi": 56,
          "name": "G#3",
          "ticks": 549120,
          "time": 472.98921325000003,
          "velocity": 0.31496062992125984
        },
        {
          "duration": 0.4958333333333371,
          "durationTicks": 476,
          "midi": 58,
          "name": "A#3",
          "ticks": 550560,
          "time": 474.48921325000003,
          "velocity": 0.31496062992125984
        },
        {
          "duration": 0.4958333333333371,
          "durationTicks": 476,
          "midi": 59,
          "name": "B3",
          "ticks": 552000,
          "time": 475.98921325000003,
          "velocity": 0.31496062992125984
        },
        {
          "duration": 0.4958333333333371,
          "durationTicks": 476,
          "midi": 60,
          "name": "C4",
          "ticks": 553440,
          "time": 477.48921325000003,
          "velocity": 0.31496062992125984
        },
        {
          "duration": 0.4958333333333371,
          "durationTicks": 476,
          "midi": 56,
          "name": "G#3",
          "ticks": 554880,
          "time": 478.98921325000003,
          "velocity": 0.31496062992125984
        },
        {
          "duration": 0.4958333333333371,
          "durationTicks": 476,
          "midi": 58,
          "name": "A#3",
          "ticks": 556320,
          "time": 480.48921325000003,
          "velocity": 0.31496062992125984
        },
        {
          "duration": 0.4958333333333371,
          "durationTicks": 476,
          "midi": 46,
          "name": "A#2",
          "ticks": 557760,
          "time": 481.98921325000003,
          "velocity": 0.31496062992125984
        },
        {
          "duration": 0.24999993749997884,
          "durationTicks": 290,
          "midi": 51,
          "name": "D#3",
          "ticks": 559200,
          "time": 483.48921325000003,
          "velocity": 0.31496062992125984
        },
        {
          "duration": 0.24999993749997884,
          "durationTicks": 290,
          "midi": 58,
          "name": "A#3",
          "ticks": 559920,
          "time": 484.10990275000006,
          "velocity": 0.31496062992125984
        },
        {
          "duration": 0.24999993749997884,
          "durationTicks": 290,
          "midi": 63,
          "name": "D#4",
          "ticks": 560640,
          "time": 484.73059225000003,
          "velocity": 0.31496062992125984
        },
        {
          "duration": 0.24999993749997884,
          "durationTicks": 290,
          "midi": 58,
          "name": "A#3",
          "ticks": 561360,
          "time": 485.35128175000006,
          "velocity": 0.31496062992125984
        },
        {
          "duration": 0.24999993750003568,
          "durationTicks": 290,
          "midi": 51,
          "name": "D#3",
          "ticks": 562080,
          "time": 485.97197125,
          "velocity": 0.31496062992125984
        },
        {
          "duration": 0.24999993749997884,
          "durationTicks": 290,
          "midi": 58,
          "name": "A#3",
          "ticks": 562800,
          "time": 486.59266075000005,
          "velocity": 0.31496062992125984
        },
        {
          "duration": 0.24999993750003568,
          "durationTicks": 290,
          "midi": 63,
          "name": "D#4",
          "ticks": 563520,
          "time": 487.21335025,
          "velocity": 0.31496062992125984
        },
        {
          "duration": 0.24999993749997884,
          "durationTicks": 290,
          "midi": 58,
          "name": "A#3",
          "ticks": 564240,
          "time": 487.83403975000004,
          "velocity": 0.31496062992125984
        },
        {
          "duration": 0.24999993750003568,
          "durationTicks": 290,
          "midi": 51,
          "name": "D#3",
          "ticks": 564960,
          "time": 488.45472925,
          "velocity": 0.31496062992125984
        }
      ]
    },
    {
      "channel": 11,
      "controlChanges": {},
      "pitchBends": [],
      "instrument": {
        "family": "ensemble",
        "number": 48,
        "name": "string ensemble 1"
      },
      "name": "",
      "notes": [
        {
          "duration": 0.1290319999999987,
          "durationTicks": 160,
          "midi": 58,
          "name": "A#3",
          "ticks": 32640,
          "time": 26.322528,
          "velocity": 0.31496062992125984
        },
        {
          "duration": 0.1290319999999987,
          "durationTicks": 160,
          "midi": 58,
          "name": "A#3",
          "ticks": 33120,
          "time": 26.709623999999998,
          "velocity": 0.31496062992125984
        },
        {
          "duration": 0.12903199999999515,
          "durationTicks": 160,
          "midi": 58,
          "name": "A#3",
          "ticks": 33600,
          "time": 27.09672,
          "velocity": 0.31496062992125984
        },
        {
          "duration": 0.1290319999999987,
          "durationTicks": 160,
          "midi": 58,
          "name": "A#3",
          "ticks": 34080,
          "time": 27.483816,
          "velocity": 0.31496062992125984
        },
        {
          "duration": 0.1290319999999987,
          "durationTicks": 160,
          "midi": 58,
          "name": "A#3",
          "ticks": 34560,
          "time": 27.870912,
          "velocity": 0.31496062992125984
        },
        {
          "duration": 0.1290319999999987,
          "durationTicks": 160,
          "midi": 58,
          "name": "A#3",
          "ticks": 35040,
          "time": 28.258008,
          "velocity": 0.31496062992125984
        },
        {
          "duration": 0.1290319999999987,
          "durationTicks": 160,
          "midi": 58,
          "name": "A#3",
          "ticks": 35520,
          "time": 28.645104,
          "velocity": 0.31496062992125984
        },
        {
          "duration": 0.1290319999999987,
          "durationTicks": 160,
          "midi": 58,
          "name": "A#3",
          "ticks": 36480,
          "time": 29.419296,
          "velocity": 0.31496062992125984
        },
        {
          "duration": 0.1290319999999987,
          "durationTicks": 160,
          "midi": 58,
          "name": "A#3",
          "ticks": 36960,
          "time": 29.806392,
          "velocity": 0.31496062992125984
        },
        {
          "duration": 0.1290319999999987,
          "durationTicks": 160,
          "midi": 58,
          "name": "A#3",
          "ticks": 37440,
          "time": 30.193488,
          "velocity": 0.31496062992125984
        },
        {
          "duration": 0.1290319999999987,
          "durationTicks": 160,
          "midi": 58,
          "name": "A#3",
          "ticks": 37920,
          "time": 30.580583999999998,
          "velocity": 0.31496062992125984
        },
        {
          "duration": 0.12903199999999515,
          "durationTicks": 160,
          "midi": 58,
          "name": "A#3",
          "ticks": 38400,
          "time": 30.96768,
          "velocity": 0.31496062992125984
        },
        {
          "duration": 0.12903199999999515,
          "durationTicks": 160,
          "midi": 58,
          "name": "A#3",
          "ticks": 38880,
          "time": 31.354776,
          "velocity": 0.31496062992125984
        },
        {
          "duration": 0.1290319999999987,
          "durationTicks": 160,
          "midi": 58,
          "name": "A#3",
          "ticks": 39360,
          "time": 31.741872,
          "velocity": 0.31496062992125984
        },
        {
          "duration": 0.38709599999999966,
          "durationTicks": 480,
          "midi": 62,
          "name": "D4",
          "ticks": 43680,
          "time": 35.225736,
          "velocity": 0.5511811023622047
        },
        {
          "duration": 0.1370965000000055,
          "durationTicks": 170,
          "midi": 63,
          "name": "D#4",
          "ticks": 44160,
          "time": 35.612832,
          "velocity": 0.5511811023622047
        },
        {
          "duration": 0.19354799999999983,
          "durationTicks": 240,
          "midi": 58,
          "name": "A#3",
          "ticks": 44400,
          "time": 35.80638,
          "velocity": 0.7086614173228346
        },
        {
          "duration": 0.19354799999999983,
          "durationTicks": 240,
          "midi": 60,
          "name": "C4",
          "ticks": 44640,
          "time": 35.999928,
          "velocity": 0.7086614173228346
        },
        {
          "duration": 0.19354799999999983,
          "durationTicks": 240,
          "midi": 56,
          "name": "G#3",
          "ticks": 44880,
          "time": 36.193476,
          "velocity": 0.7086614173228346
        },
        {
          "duration": 0.1370965000000055,
          "durationTicks": 170,
          "midi": 58,
          "name": "A#3",
          "ticks": 45120,
          "time": 36.387024,
          "velocity": 0.7086614173228346
        },
        {
          "duration": 0.1370965000000055,
          "durationTicks": 170,
          "midi": 46,
          "name": "A#2",
          "ticks": 45600,
          "time": 36.774119999999996,
          "velocity": 0.7086614173228346
        },
        {
          "duration": 0.1370965000000055,
          "durationTicks": 170,
          "midi": 51,
          "name": "D#3",
          "ticks": 46080,
          "time": 37.161215999999996,
          "velocity": 0.7086614173228346
        },
        {
          "duration": 0.12903199999999515,
          "durationTicks": 160,
          "midi": 51,
          "name": "D#3",
          "ticks": 46560,
          "time": 37.548312,
          "velocity": 0.7086614173228346
        },
        {
          "duration": 0.12903199999999515,
          "durationTicks": 160,
          "midi": 51,
          "name": "D#3",
          "ticks": 47040,
          "time": 37.935408,
          "velocity": 0.7086614173228346
        },
        {
          "duration": 0.12903199999999515,
          "durationTicks": 160,
          "midi": 51,
          "name": "D#3",
          "ticks": 48000,
          "time": 38.7096,
          "velocity": 0.31496062992125984
        },
        {
          "duration": 0.12903199999999515,
          "durationTicks": 160,
          "midi": 51,
          "name": "D#3",
          "ticks": 49440,
          "time": 39.870888,
          "velocity": 0.31496062992125984
        },
        {
          "duration": 0.38387019999999694,
          "durationTicks": 476,
          "midi": 50,
          "name": "D3",
          "ticks": 49920,
          "time": 40.257984,
          "velocity": 0.31496062992125984
        },
        {
          "duration": 0.38387019999999694,
          "durationTicks": 476,
          "midi": 50,
          "name": "D3",
          "ticks": 51360,
          "time": 41.419272,
          "velocity": 0.31496062992125984
        },
        {
          "duration": 0.38387019999999694,
          "durationTicks": 476,
          "midi": 51,
          "name": "D#3",
          "ticks": 51840,
          "time": 41.806368,
          "velocity": 0.31496062992125984
        },
        {
          "duration": 0.38387019999999694,
          "durationTicks": 476,
          "midi": 51,
          "name": "D#3",
          "ticks": 52320,
          "time": 42.193464,
          "velocity": 0.31496062992125984
        },
        {
          "duration": 0.38387019999999694,
          "durationTicks": 476,
          "midi": 44,
          "name": "G#2",
          "ticks": 52800,
          "time": 42.58056,
          "velocity": 0.31496062992125984
        },
        {
          "duration": 0.38387019999999694,
          "durationTicks": 476,
          "midi": 44,
          "name": "G#2",
          "ticks": 53280,
          "time": 42.967656,
          "velocity": 0.31496062992125984
        },
        {
          "duration": 0.38387019999999694,
          "durationTicks": 476,
          "midi": 46,
          "name": "A#2",
          "ticks": 53760,
          "time": 43.354752,
          "velocity": 0.31496062992125984
        },
        {
          "duration": 0.38387019999999694,
          "durationTicks": 476,
          "midi": 58,
          "name": "A#3",
          "ticks": 54240,
          "time": 43.741848,
          "velocity": 0.31496062992125984
        },
        {
          "duration": 0.38387019999999694,
          "durationTicks": 476,
          "midi": 46,
          "name": "A#2",
          "ticks": 54720,
          "time": 44.128944,
          "velocity": 0.31496062992125984
        },
        {
          "duration": 0.6129019999999983,
          "durationTicks": 760,
          "midi": 58,
          "name": "A#3",
          "ticks": 55680,
          "time": 44.903135999999996,
          "velocity": 0.31496062992125984
        },
        {
          "duration": 1.483867999999994,
          "durationTicks": 1840,
          "midi": 56,
          "name": "G#3",
          "ticks": 56640,
          "time": 45.677328,
          "velocity": 0.31496062992125984
        },
        {
          "duration": 0.6129019999999983,
          "durationTicks": 760,
          "midi": 55,
          "name": "G3",
          "ticks": 58560,
          "time": 47.225712,
          "velocity": 0.31496062992125984
        },
        {
          "duration": 0.12903199999999515,
          "durationTicks": 160,
          "midi": 56,
          "name": "G#3",
          "ticks": 59520,
          "time": 47.999904,
          "velocity": 0.31496062992125984
        },
        {
          "duration": 0.12903199999999515,
          "durationTicks": 160,
          "midi": 56,
          "name": "G#3",
          "ticks": 60000,
          "time": 48.387,
          "velocity": 0.31496062992125984
        },
        {
          "duration": 0.12903199999999515,
          "durationTicks": 160,
          "midi": 58,
          "name": "A#3",
          "ticks": 60480,
          "time": 48.774096,
          "velocity": 0.31496062992125984
        },
        {
          "duration": 0.12903199999999515,
          "durationTicks": 160,
          "midi": 58,
          "name": "A#3",
          "ticks": 60960,
          "time": 49.161192,
          "velocity": 0.31496062992125984
        },
        {
          "duration": 0.7741919999999993,
          "durationTicks": 960,
          "midi": 51,
          "name": "D#3",
          "ticks": 61440,
          "time": 49.548288,
          "velocity": 0.31496062992125984
        },
        {
          "duration": 0.12903200000000226,
          "durationTicks": 160,
          "midi": 39,
          "name": "D#2",
          "ticks": 62400,
          "time": 50.32248,
          "velocity": 0.31496062992125984
        },
        {
          "duration": 0.12903200000000226,
          "durationTicks": 160,
          "midi": 55,
          "name": "G3",
          "ticks": 63360,
          "time": 51.096672,
          "velocity": 0.31496062992125984
        },
        {
          "duration": 0.12903200000000936,
          "durationTicks": 160,
          "midi": 55,
          "name": "G3",
          "ticks": 64800,
          "time": 52.25796,
          "velocity": 0.31496062992125984
        },
        {
          "duration": 0.12903200000000936,
          "durationTicks": 160,
          "midi": 48,
          "name": "C3",
          "ticks": 65280,
          "time": 52.645056,
          "velocity": 0.31496062992125984
        },
        {
          "duration": 0.12903200000000226,
          "durationTicks": 160,
          "midi": 53,
          "name": "F3",
          "ticks": 67200,
          "time": 54.19344,
          "velocity": 0.31496062992125984
        },
        {
          "duration": 0.12903200000000226,
          "durationTicks": 160,
          "midi": 53,
          "name": "F3",
          "ticks": 68640,
          "time": 55.354728,
          "velocity": 0.31496062992125984
        },
        {
          "duration": 0.12903200000000226,
          "durationTicks": 160,
          "midi": 46,
          "name": "A#2",
          "ticks": 69120,
          "time": 55.741824,
          "velocity": 0.31496062992125984
        },
        {
          "duration": 0.6129020000000054,
          "durationTicks": 760,
          "midi": 58,
          "name": "A#3",
          "ticks": 71040,
          "time": 57.290208,
          "velocity": 0.31496062992125984
        },
        {
          "duration": 1.483868000000001,
          "durationTicks": 1840,
          "midi": 56,
          "name": "G#3",
          "ticks": 72000,
          "time": 58.0644,
          "velocity": 0.31496062992125984
        },
        {
          "duration": 0.6129020000000054,
          "durationTicks": 760,
          "midi": 55,
          "name": "G3",
          "ticks": 73920,
          "time": 59.612784,
          "velocity": 0.31496062992125984
        },
        {
          "duration": 0.12903200000000936,
          "durationTicks": 160,
          "midi": 56,
          "name": "G#3",
          "ticks": 74880,
          "time": 60.386976,
          "velocity": 0.31496062992125984
        },
        {
          "duration": 0.12903200000000936,
          "durationTicks": 160,
          "midi": 56,
          "name": "G#3",
          "ticks": 75360,
          "time": 60.774072,
          "velocity": 0.31496062992125984
        },
        {
          "duration": 0.12903200000000936,
          "durationTicks": 160,
          "midi": 58,
          "name": "A#3",
          "ticks": 75840,
          "time": 61.161167999999996,
          "velocity": 0.31496062992125984
        },
        {
          "duration": 0.12903200000000936,
          "durationTicks": 160,
          "midi": 58,
          "name": "A#3",
          "ticks": 76320,
          "time": 61.548263999999996,
          "velocity": 0.31496062992125984
        },
        {
          "duration": 0.7741919999999993,
          "durationTicks": 960,
          "midi": 51,
          "name": "D#3",
          "ticks": 76800,
          "time": 61.93536,
          "velocity": 0.31496062992125984
        },
        {
          "duration": 0.12903200000000226,
          "durationTicks": 160,
          "midi": 39,
          "name": "D#2",
          "ticks": 77760,
          "time": 62.709552,
          "velocity": 0.31496062992125984
        },
        {
          "duration": 0.12903200000000226,
          "durationTicks": 160,
          "midi": 58,
          "name": "A#3",
          "ticks": 78720,
          "time": 63.483744,
          "velocity": 0.31496062992125984
        },
        {
          "duration": 0.12903200000000226,
          "durationTicks": 160,
          "midi": 58,
          "name": "A#3",
          "ticks": 79200,
          "time": 63.87084,
          "velocity": 0.31496062992125984
        },
        {
          "duration": 0.12903199999999515,
          "durationTicks": 160,
          "midi": 58,
          "name": "A#3",
          "ticks": 79680,
          "time": 64.257936,
          "velocity": 0.31496062992125984
        },
        {
          "duration": 0.12903200000000936,
          "durationTicks": 160,
          "midi": 58,
          "name": "A#3",
          "ticks": 80160,
          "time": 64.645032,
          "velocity": 0.31496062992125984
        },
        {
          "duration": 0.12903200000000936,
          "durationTicks": 160,
          "midi": 58,
          "name": "A#3",
          "ticks": 80640,
          "time": 65.032128,
          "velocity": 0.31496062992125984
        },
        {
          "duration": 0.12903200000000936,
          "durationTicks": 160,
          "midi": 58,
          "name": "A#3",
          "ticks": 81120,
          "time": 65.419224,
          "velocity": 0.31496062992125984
        },
        {
          "duration": 0.12903200000000936,
          "durationTicks": 160,
          "midi": 58,
          "name": "A#3",
          "ticks": 81600,
          "time": 65.80632,
          "velocity": 0.31496062992125984
        },
        {
          "duration": 0.12903200000000936,
          "durationTicks": 160,
          "midi": 58,
          "name": "A#3",
          "ticks": 82560,
          "time": 66.580512,
          "velocity": 0.31496062992125984
        },
        {
          "duration": 0.12903200000000936,
          "durationTicks": 160,
          "midi": 58,
          "name": "A#3",
          "ticks": 83040,
          "time": 66.967608,
          "velocity": 0.31496062992125984
        },
        {
          "duration": 0.12903200000000936,
          "durationTicks": 160,
          "midi": 58,
          "name": "A#3",
          "ticks": 83520,
          "time": 67.354704,
          "velocity": 0.31496062992125984
        },
        {
          "duration": 0.12903200000000936,
          "durationTicks": 160,
          "midi": 58,
          "name": "A#3",
          "ticks": 84000,
          "time": 67.7418,
          "velocity": 0.31496062992125984
        },
        {
          "duration": 0.12903200000000936,
          "durationTicks": 160,
          "midi": 58,
          "name": "A#3",
          "ticks": 84480,
          "time": 68.128896,
          "velocity": 0.31496062992125984
        },
        {
          "duration": 0.12903200000000936,
          "durationTicks": 160,
          "midi": 58,
          "name": "A#3",
          "ticks": 84960,
          "time": 68.515992,
          "velocity": 0.31496062992125984
        },
        {
          "duration": 0.12903200000000936,
          "durationTicks": 160,
          "midi": 58,
          "name": "A#3",
          "ticks": 85440,
          "time": 68.903088,
          "velocity": 0.31496062992125984
        },
        {
          "duration": 0.38709599999999966,
          "durationTicks": 480,
          "midi": 62,
          "name": "D4",
          "ticks": 89760,
          "time": 72.386952,
          "velocity": 0.5511811023622047
        },
        {
          "duration": 0.1370964999999984,
          "durationTicks": 170,
          "midi": 63,
          "name": "D#4",
          "ticks": 90240,
          "time": 72.774048,
          "velocity": 0.5511811023622047
        },
        {
          "duration": 0.19354799999999273,
          "durationTicks": 240,
          "midi": 58,
          "name": "A#3",
          "ticks": 90480,
          "time": 72.967596,
          "velocity": 0.7086614173228346
        },
        {
          "duration": 0.19354800000000694,
          "durationTicks": 240,
          "midi": 60,
          "name": "C4",
          "ticks": 90720,
          "time": 73.161144,
          "velocity": 0.7086614173228346
        },
        {
          "duration": 0.19354799999999273,
          "durationTicks": 240,
          "midi": 56,
          "name": "G#3",
          "ticks": 90960,
          "time": 73.354692,
          "velocity": 0.7086614173228346
        },
        {
          "duration": 0.1370964999999984,
          "durationTicks": 170,
          "midi": 58,
          "name": "A#3",
          "ticks": 91200,
          "time": 73.54823999999999,
          "velocity": 0.7086614173228346
        },
        {
          "duration": 0.1370964999999984,
          "durationTicks": 170,
          "midi": 46,
          "name": "A#2",
          "ticks": 91680,
          "time": 73.93533599999999,
          "velocity": 0.7086614173228346
        },
        {
          "duration": 0.12903200000000936,
          "durationTicks": 160,
          "midi": 51,
          "name": "D#3",
          "ticks": 92160,
          "time": 74.32243199999999,
          "velocity": 0.7086614173228346
        },
        {
          "duration": 0.12903199999999515,
          "durationTicks": 160,
          "midi": 39,
          "name": "D#2",
          "ticks": 92640,
          "time": 74.709528,
          "velocity": 0.7086614173228346
        },
        {
          "duration": 0.12903199999999515,
          "durationTicks": 160,
          "midi": 39,
          "name": "D#2",
          "ticks": 93120,
          "time": 75.096624,
          "velocity": 0.7086614173228346
        },
        {
          "duration": 0.12903199999999515,
          "durationTicks": 160,
          "midi": 51,
          "name": "D#3",
          "ticks": 94080,
          "time": 75.870816,
          "velocity": 0.31496062992125984
        },
        {
          "duration": 0.12903199999999515,
          "durationTicks": 160,
          "midi": 51,
          "name": "D#3",
          "ticks": 94560,
          "time": 76.257912,
          "velocity": 0.31496062992125984
        },
        {
          "duration": 0.12903199999999515,
          "durationTicks": 160,
          "midi": 51,
          "name": "D#3",
          "ticks": 95040,
          "time": 76.645008,
          "velocity": 0.31496062992125984
        },
        {
          "duration": 0.12903199999999515,
          "durationTicks": 160,
          "midi": 51,
          "name": "D#3",
          "ticks": 95520,
          "time": 77.032104,
          "velocity": 0.31496062992125984
        },
        {
          "duration": 0.12903199999999515,
          "durationTicks": 160,
          "midi": 50,
          "name": "D3",
          "ticks": 96000,
          "time": 77.4192,
          "velocity": 0.31496062992125984
        },
        {
          "duration": 0.12903199999999515,
          "durationTicks": 160,
          "midi": 50,
          "name": "D3",
          "ticks": 96480,
          "time": 77.806296,
          "velocity": 0.31496062992125984
        },
        {
          "duration": 0.12903199999999515,
          "durationTicks": 160,
          "midi": 50,
          "name": "D3",
          "ticks": 96960,
          "time": 78.193392,
          "velocity": 0.31496062992125984
        },
        {
          "duration": 0.12903199999999515,
          "durationTicks": 160,
          "midi": 50,
          "name": "D3",
          "ticks": 97440,
          "time": 78.580488,
          "velocity": 0.31496062992125984
        },
        {
          "duration": 0.12903199999999515,
          "durationTicks": 160,
          "midi": 51,
          "name": "D#3",
          "ticks": 97920,
          "time": 78.967584,
          "velocity": 0.31496062992125984
        },
        {
          "duration": 0.12903199999999515,
          "durationTicks": 160,
          "midi": 51,
          "name": "D#3",
          "ticks": 98400,
          "time": 79.35468,
          "velocity": 0.31496062992125984
        },
        {
          "duration": 0.12903199999999515,
          "durationTicks": 160,
          "midi": 44,
          "name": "G#2",
          "ticks": 98880,
          "time": 79.741776,
          "velocity": 0.31496062992125984
        },
        {
          "duration": 0.12903199999999515,
          "durationTicks": 160,
          "midi": 44,
          "name": "G#2",
          "ticks": 99360,
          "time": 80.128872,
          "velocity": 0.31496062992125984
        },
        {
          "duration": 0.12903199999999515,
          "durationTicks": 160,
          "midi": 46,
          "name": "A#2",
          "ticks": 99840,
          "time": 80.515968,
          "velocity": 0.31496062992125984
        },
        {
          "duration": 0.12903199999999515,
          "durationTicks": 160,
          "midi": 58,
          "name": "A#3",
          "ticks": 100320,
          "time": 80.903064,
          "velocity": 0.31496062992125984
        },
        {
          "duration": 0.12903200000000936,
          "durationTicks": 160,
          "midi": 46,
          "name": "A#2",
          "ticks": 100800,
          "time": 81.29016,
          "velocity": 0.31496062992125984
        },
        {
          "duration": 0.12903200000000936,
          "durationTicks": 160,
          "midi": 48,
          "name": "C3",
          "ticks": 101760,
          "time": 82.064352,
          "velocity": 0.31496062992125984
        },
        {
          "duration": 0.12903200000000936,
          "durationTicks": 160,
          "midi": 53,
          "name": "F3",
          "ticks": 102720,
          "time": 82.838544,
          "velocity": 0.31496062992125984
        },
        {
          "duration": 0.12903200000000936,
          "durationTicks": 160,
          "midi": 46,
          "name": "A#2",
          "ticks": 103680,
          "time": 83.612736,
          "velocity": 0.31496062992125984
        },
        {
          "duration": 0.12903200000000936,
          "durationTicks": 160,
          "midi": 51,
          "name": "D#3",
          "ticks": 104640,
          "time": 84.386928,
          "velocity": 0.31496062992125984
        },
        {
          "duration": 0.6129020000000054,
          "durationTicks": 760,
          "midi": 56,
          "name": "G#3",
          "ticks": 105600,
          "time": 85.16112,
          "velocity": 0.31496062992125984
        },
        {
          "duration": 0.12903200000000936,
          "durationTicks": 160,
          "midi": 58,
          "name": "A#3",
          "ticks": 107040,
          "time": 86.322408,
          "velocity": 0.31496062992125984
        },
        {
          "duration": 0.12903200000000936,
          "durationTicks": 160,
          "midi": 51,
          "name": "D#3",
          "ticks": 107520,
          "time": 86.709504,
          "velocity": 0.31496062992125984
        },
        {
          "duration": 0.12903200000000936,
          "durationTicks": 160,
          "midi": 51,
          "name": "D#3",
          "ticks": 108000,
          "time": 87.0966,
          "velocity": 0.31496062992125984
        },
        {
          "duration": 0.12903200000000936,
          "durationTicks": 160,
          "midi": 51,
          "name": "D#3",
          "ticks": 108480,
          "time": 87.483696,
          "velocity": 0.31496062992125984
        },
        {
          "duration": 0.6129020000000054,
          "durationTicks": 760,
          "midi": 55,
          "name": "G3",
          "ticks": 109440,
          "time": 88.257888,
          "velocity": 0.31496062992125984
        },
        {
          "duration": 0.12903200000000936,
          "durationTicks": 160,
          "midi": 55,
          "name": "G3",
          "ticks": 110880,
          "time": 89.419176,
          "velocity": 0.31496062992125984
        },
        {
          "duration": 0.6129020000000054,
          "durationTicks": 760,
          "midi": 48,
          "name": "C3",
          "ticks": 111360,
          "time": 89.80627199999999,
          "velocity": 0.31496062992125984
        },
        {
          "duration": 0.6129019999999912,
          "durationTicks": 760,
          "midi": 53,
          "name": "F3",
          "ticks": 113280,
          "time": 91.354656,
          "velocity": 0.31496062992125984
        },
        {
          "duration": 0.12903199999999515,
          "durationTicks": 160,
          "midi": 53,
          "name": "F3",
          "ticks": 114720,
          "time": 92.515944,
          "velocity": 0.31496062992125984
        },
        {
          "duration": 0.6129020000000054,
          "durationTicks": 760,
          "midi": 46,
          "name": "A#2",
          "ticks": 115200,
          "time": 92.90304,
          "velocity": 0.31496062992125984
        },
        {
          "duration": 0.12903199999999515,
          "durationTicks": 160,
          "midi": 48,
          "name": "C3",
          "ticks": 117120,
          "time": 94.451424,
          "velocity": 0.31496062992125984
        },
        {
          "duration": 0.12903199999999515,
          "durationTicks": 160,
          "midi": 53,
          "name": "F3",
          "ticks": 118080,
          "time": 95.225616,
          "velocity": 0.31496062992125984
        },
        {
          "duration": 0.12903199999999515,
          "durationTicks": 160,
          "midi": 46,
          "name": "A#2",
          "ticks": 119040,
          "time": 95.999808,
          "velocity": 0.31496062992125984
        },
        {
          "duration": 0.12903199999999515,
          "durationTicks": 160,
          "midi": 51,
          "name": "D#3",
          "ticks": 120000,
          "time": 96.774,
          "velocity": 0.31496062992125984
        },
        {
          "duration": 0.6129020000000054,
          "durationTicks": 760,
          "midi": 56,
          "name": "G#3",
          "ticks": 120960,
          "time": 97.548192,
          "velocity": 0.31496062992125984
        },
        {
          "duration": 0.12903200000000936,
          "durationTicks": 160,
          "midi": 58,
          "name": "A#3",
          "ticks": 122400,
          "time": 98.70948,
          "velocity": 0.31496062992125984
        },
        {
          "duration": 0.12903199999999515,
          "durationTicks": 160,
          "midi": 51,
          "name": "D#3",
          "ticks": 122880,
          "time": 99.096576,
          "velocity": 0.31496062992125984
        },
        {
          "duration": 0.12903199999999515,
          "durationTicks": 160,
          "midi": 51,
          "name": "D#3",
          "ticks": 123360,
          "time": 99.483672,
          "velocity": 0.31496062992125984
        },
        {
          "duration": 0.12903199999999515,
          "durationTicks": 160,
          "midi": 51,
          "name": "D#3",
          "ticks": 123840,
          "time": 99.870768,
          "velocity": 0.31496062992125984
        },
        {
          "duration": 0.12903199999999515,
          "durationTicks": 160,
          "midi": 58,
          "name": "A#3",
          "ticks": 124800,
          "time": 100.64496,
          "velocity": 0.31496062992125984
        },
        {
          "duration": 0.12903199999999515,
          "durationTicks": 160,
          "midi": 58,
          "name": "A#3",
          "ticks": 125280,
          "time": 101.032056,
          "velocity": 0.31496062992125984
        },
        {
          "duration": 0.12903199999999515,
          "durationTicks": 160,
          "midi": 58,
          "name": "A#3",
          "ticks": 125760,
          "time": 101.419152,
          "velocity": 0.31496062992125984
        },
        {
          "duration": 0.12903199999999515,
          "durationTicks": 160,
          "midi": 58,
          "name": "A#3",
          "ticks": 126240,
          "time": 101.806248,
          "velocity": 0.31496062992125984
        },
        {
          "duration": 0.12903199999999515,
          "durationTicks": 160,
          "midi": 58,
          "name": "A#3",
          "ticks": 126720,
          "time": 102.193344,
          "velocity": 0.31496062992125984
        },
        {
          "duration": 0.12903199999999515,
          "durationTicks": 160,
          "midi": 58,
          "name": "A#3",
          "ticks": 127200,
          "time": 102.58044,
          "velocity": 0.31496062992125984
        },
        {
          "duration": 0.12903199999999515,
          "durationTicks": 160,
          "midi": 58,
          "name": "A#3",
          "ticks": 127680,
          "time": 102.967536,
          "velocity": 0.31496062992125984
        },
        {
          "duration": 0.12903199999999515,
          "durationTicks": 160,
          "midi": 58,
          "name": "A#3",
          "ticks": 128160,
          "time": 103.354632,
          "velocity": 0.31496062992125984
        },
        {
          "duration": 0.12903199999999515,
          "durationTicks": 160,
          "midi": 58,
          "name": "A#3",
          "ticks": 128640,
          "time": 103.741728,
          "velocity": 0.31496062992125984
        },
        {
          "duration": 0.12903199999999515,
          "durationTicks": 160,
          "midi": 58,
          "name": "A#3",
          "ticks": 129120,
          "time": 104.128824,
          "velocity": 0.31496062992125984
        },
        {
          "duration": 0.12903199999999515,
          "durationTicks": 160,
          "midi": 58,
          "name": "A#3",
          "ticks": 129600,
          "time": 104.51592,
          "velocity": 0.31496062992125984
        },
        {
          "duration": 0.12903199999999515,
          "durationTicks": 160,
          "midi": 58,
          "name": "A#3",
          "ticks": 130080,
          "time": 104.903016,
          "velocity": 0.31496062992125984
        },
        {
          "duration": 0.12903199999999515,
          "durationTicks": 160,
          "midi": 58,
          "name": "A#3",
          "ticks": 130560,
          "time": 105.290112,
          "velocity": 0.31496062992125984
        },
        {
          "duration": 0.12903199999999515,
          "durationTicks": 160,
          "midi": 58,
          "name": "A#3",
          "ticks": 131040,
          "time": 105.677208,
          "velocity": 0.31496062992125984
        },
        {
          "duration": 0.12903199999999515,
          "durationTicks": 160,
          "midi": 58,
          "name": "A#3",
          "ticks": 131520,
          "time": 106.06430399999999,
          "velocity": 0.31496062992125984
        },
        {
          "duration": 0.3870960000000139,
          "durationTicks": 480,
          "midi": 67,
          "name": "G4",
          "ticks": 132960,
          "time": 107.22559199999999,
          "velocity": 0.5511811023622047
        },
        {
          "duration": 0.38709599999999966,
          "durationTicks": 480,
          "midi": 65,
          "name": "F4",
          "ticks": 133440,
          "time": 107.612688,
          "velocity": 0.5511811023622047
        },
        {
          "duration": 0.38709599999999966,
          "durationTicks": 480,
          "midi": 68,
          "name": "G#4",
          "ticks": 133920,
          "time": 107.999784,
          "velocity": 0.5511811023622047
        },
        {
          "duration": 0.38709599999999966,
          "durationTicks": 480,
          "midi": 67,
          "name": "G4",
          "ticks": 134400,
          "time": 108.38688,
          "velocity": 0.5511811023622047
        },
        {
          "duration": 0.38709599999999966,
          "durationTicks": 480,
          "midi": 63,
          "name": "D#4",
          "ticks": 134880,
          "time": 108.773976,
          "velocity": 0.5511811023622047
        },
        {
          "duration": 0.38709599999999966,
          "durationTicks": 480,
          "midi": 62,
          "name": "D4",
          "ticks": 135360,
          "time": 109.161072,
          "velocity": 0.5511811023622047
        },
        {
          "duration": 0.38709599999999966,
          "durationTicks": 480,
          "midi": 62,
          "name": "D4",
          "ticks": 135840,
          "time": 109.548168,
          "velocity": 0.5511811023622047
        },
        {
          "duration": 0.38709599999999966,
          "durationTicks": 480,
          "midi": 65,
          "name": "F4",
          "ticks": 135840,
          "time": 109.548168,
          "velocity": 0.5511811023622047
        },
        {
          "duration": 0.12903199999998094,
          "durationTicks": 160,
          "midi": 63,
          "name": "D#4",
          "ticks": 136320,
          "time": 109.935264,
          "velocity": 0.5511811023622047
        },
        {
          "duration": 0.19354800000000694,
          "durationTicks": 240,
          "midi": 58,
          "name": "A#3",
          "ticks": 136560,
          "time": 110.128812,
          "velocity": 0.7086614173228346
        },
        {
          "duration": 0.19354799999999273,
          "durationTicks": 240,
          "midi": 60,
          "name": "C4",
          "ticks": 136800,
          "time": 110.32236,
          "velocity": 0.7086614173228346
        },
        {
          "duration": 0.19354800000000694,
          "durationTicks": 240,
          "midi": 56,
          "name": "G#3",
          "ticks": 137040,
          "time": 110.515908,
          "velocity": 0.7086614173228346
        },
        {
          "duration": 0.12903199999999515,
          "durationTicks": 160,
          "midi": 58,
          "name": "A#3",
          "ticks": 137280,
          "time": 110.709456,
          "velocity": 0.7086614173228346
        },
        {
          "duration": 0.12903199999999515,
          "durationTicks": 160,
          "midi": 46,
          "name": "A#2",
          "ticks": 137760,
          "time": 111.096552,
          "velocity": 0.7086614173228346
        },
        {
          "duration": 0.12903199999999515,
          "durationTicks": 160,
          "midi": 51,
          "name": "D#3",
          "ticks": 138240,
          "time": 111.483648,
          "velocity": 0.7086614173228346
        },
        {
          "duration": 0.12903199999999515,
          "durationTicks": 160,
          "midi": 51,
          "name": "D#3",
          "ticks": 138720,
          "time": 111.870744,
          "velocity": 0.7086614173228346
        },
        {
          "duration": 0.12903199999999515,
          "durationTicks": 160,
          "midi": 51,
          "name": "D#3",
          "ticks": 139200,
          "time": 112.25784,
          "velocity": 0.7086614173228346
        },
        {
          "duration": 0.12903199999999515,
          "durationTicks": 160,
          "midi": 56,
          "name": "G#3",
          "ticks": 151680,
          "time": 122.32233599999999,
          "velocity": 0.31496062992125984
        },
        {
          "duration": 0.12903199999999515,
          "durationTicks": 160,
          "midi": 58,
          "name": "A#3",
          "ticks": 152640,
          "time": 123.09652799999999,
          "velocity": 0.31496062992125984
        },
        {
          "duration": 0.12903199999999515,
          "durationTicks": 160,
          "midi": 46,
          "name": "A#2",
          "ticks": 153120,
          "time": 123.48362399999999,
          "velocity": 0.31496062992125984
        },
        {
          "duration": 0.12903199999998094,
          "durationTicks": 160,
          "midi": 51,
          "name": "D#3",
          "ticks": 153600,
          "time": 123.87072,
          "velocity": 0.31496062992125984
        },
        {
          "duration": 0.12903199999998094,
          "durationTicks": 160,
          "midi": 51,
          "name": "D#3",
          "ticks": 154080,
          "time": 124.257816,
          "velocity": 0.31496062992125984
        },
        {
          "duration": 0.12903199999998094,
          "durationTicks": 160,
          "midi": 51,
          "name": "D#3",
          "ticks": 154560,
          "time": 124.644912,
          "velocity": 0.31496062992125984
        },
        {
          "duration": 0.12903199999998094,
          "durationTicks": 160,
          "midi": 55,
          "name": "G3",
          "ticks": 155520,
          "time": 125.419104,
          "velocity": 0.31496062992125984
        },
        {
          "duration": 0.38709599999999966,
          "durationTicks": 480,
          "midi": 62,
          "name": "D4",
          "ticks": 156000,
          "time": 125.8062,
          "velocity": 0.31496062992125984
        },
        {
          "duration": 0.38709599999999966,
          "durationTicks": 480,
          "midi": 59,
          "name": "B3",
          "ticks": 156480,
          "time": 126.193296,
          "velocity": 0.31496062992125984
        },
        {
          "duration": 0.38709599999999966,
          "durationTicks": 480,
          "midi": 55,
          "name": "G3",
          "ticks": 156960,
          "time": 126.580392,
          "velocity": 0.31496062992125984
        },
        {
          "duration": 0.6129019999999912,
          "durationTicks": 760,
          "midi": 60,
          "name": "C4",
          "ticks": 157440,
          "time": 126.967488,
          "velocity": 0.31496062992125984
        },
        {
          "duration": 0.3870960000000139,
          "durationTicks": 480,
          "midi": 51,
          "name": "D#3",
          "ticks": 158880,
          "time": 128.128776,
          "velocity": 0.31496062992125984
        },
        {
          "duration": 0.12903199999999515,
          "durationTicks": 160,
          "midi": 53,
          "name": "F3",
          "ticks": 159360,
          "time": 128.515872,
          "velocity": 0.31496062992125984
        },
        {
          "duration": 0.3870960000000139,
          "durationTicks": 480,
          "midi": 60,
          "name": "C4",
          "ticks": 159840,
          "time": 128.902968,
          "velocity": 0.31496062992125984
        },
        {
          "duration": 0.38709599999998545,
          "durationTicks": 480,
          "midi": 57,
          "name": "A3",
          "ticks": 160320,
          "time": 129.290064,
          "velocity": 0.31496062992125984
        },
        {
          "duration": 0.3870960000000139,
          "durationTicks": 480,
          "midi": 53,
          "name": "F3",
          "ticks": 160800,
          "time": 129.67716,
          "velocity": 0.31496062992125984
        },
        {
          "duration": 0.6129019999999912,
          "durationTicks": 760,
          "midi": 58,
          "name": "A#3",
          "ticks": 161280,
          "time": 130.064256,
          "velocity": 0.31496062992125984
        },
        {
          "duration": 0.12903199999999515,
          "durationTicks": 160,
          "midi": 56,
          "name": "G#3",
          "ticks": 167040,
          "time": 134.709408,
          "velocity": 0.31496062992125984
        },
        {
          "duration": 0.12903199999999515,
          "durationTicks": 160,
          "midi": 58,
          "name": "A#3",
          "ticks": 168000,
          "time": 135.4836,
          "velocity": 0.31496062992125984
        },
        {
          "duration": 0.12903199999999515,
          "durationTicks": 160,
          "midi": 46,
          "name": "A#2",
          "ticks": 168480,
          "time": 135.870696,
          "velocity": 0.31496062992125984
        },
        {
          "duration": 0.12903199999999515,
          "durationTicks": 160,
          "midi": 51,
          "name": "D#3",
          "ticks": 168960,
          "time": 136.257792,
          "velocity": 0.31496062992125984
        },
        {
          "duration": 0.12903199999999515,
          "durationTicks": 160,
          "midi": 51,
          "name": "D#3",
          "ticks": 169440,
          "time": 136.644888,
          "velocity": 0.31496062992125984
        },
        {
          "duration": 0.12903199999999515,
          "durationTicks": 160,
          "midi": 51,
          "name": "D#3",
          "ticks": 169920,
          "time": 137.031984,
          "velocity": 0.31496062992125984
        },
        {
          "duration": 0.12903199999999515,
          "durationTicks": 160,
          "midi": 58,
          "name": "A#3",
          "ticks": 170880,
          "time": 137.806176,
          "velocity": 0.31496062992125984
        },
        {
          "duration": 0.12903199999999515,
          "durationTicks": 160,
          "midi": 58,
          "name": "A#3",
          "ticks": 171360,
          "time": 138.193272,
          "velocity": 0.31496062992125984
        },
        {
          "duration": 0.12903199999999515,
          "durationTicks": 160,
          "midi": 58,
          "name": "A#3",
          "ticks": 171840,
          "time": 138.580368,
          "velocity": 0.31496062992125984
        },
        {
          "duration": 0.12903199999999515,
          "durationTicks": 160,
          "midi": 58,
          "name": "A#3",
          "ticks": 172320,
          "time": 138.967464,
          "velocity": 0.31496062992125984
        },
        {
          "duration": 0.12903199999999515,
          "durationTicks": 160,
          "midi": 58,
          "name": "A#3",
          "ticks": 172800,
          "time": 139.35456,
          "velocity": 0.31496062992125984
        },
        {
          "duration": 0.12903199999999515,
          "durationTicks": 160,
          "midi": 58,
          "name": "A#3",
          "ticks": 173280,
          "time": 139.741656,
          "velocity": 0.31496062992125984
        },
        {
          "duration": 0.12903199999999515,
          "durationTicks": 160,
          "midi": 58,
          "name": "A#3",
          "ticks": 173760,
          "time": 140.128752,
          "velocity": 0.31496062992125984
        },
        {
          "duration": 0.12903199999999515,
          "durationTicks": 160,
          "midi": 58,
          "name": "A#3",
          "ticks": 174240,
          "time": 140.515848,
          "velocity": 0.31496062992125984
        },
        {
          "duration": 0.12903199999999515,
          "durationTicks": 160,
          "midi": 58,
          "name": "A#3",
          "ticks": 174720,
          "time": 140.902944,
          "velocity": 0.31496062992125984
        },
        {
          "duration": 0.12903199999999515,
          "durationTicks": 160,
          "midi": 58,
          "name": "A#3",
          "ticks": 175200,
          "time": 141.29004,
          "velocity": 0.31496062992125984
        },
        {
          "duration": 0.12903199999999515,
          "durationTicks": 160,
          "midi": 58,
          "name": "A#3",
          "ticks": 175680,
          "time": 141.677136,
          "velocity": 0.31496062992125984
        },
        {
          "duration": 0.12903199999999515,
          "durationTicks": 160,
          "midi": 58,
          "name": "A#3",
          "ticks": 176160,
          "time": 142.064232,
          "velocity": 0.31496062992125984
        },
        {
          "duration": 0.12903199999999515,
          "durationTicks": 160,
          "midi": 58,
          "name": "A#3",
          "ticks": 176640,
          "time": 142.451328,
          "velocity": 0.31496062992125984
        },
        {
          "duration": 0.12903199999999515,
          "durationTicks": 160,
          "midi": 58,
          "name": "A#3",
          "ticks": 177120,
          "time": 142.838424,
          "velocity": 0.31496062992125984
        },
        {
          "duration": 0.12903199999999515,
          "durationTicks": 160,
          "midi": 58,
          "name": "A#3",
          "ticks": 177600,
          "time": 143.22552,
          "velocity": 0.31496062992125984
        },
        {
          "duration": 0.38709599999998545,
          "durationTicks": 480,
          "midi": 67,
          "name": "G4",
          "ticks": 179040,
          "time": 144.386808,
          "velocity": 0.5511811023622047
        },
        {
          "duration": 0.3870960000000139,
          "durationTicks": 480,
          "midi": 65,
          "name": "F4",
          "ticks": 179520,
          "time": 144.773904,
          "velocity": 0.5511811023622047
        },
        {
          "duration": 0.38709599999998545,
          "durationTicks": 480,
          "midi": 68,
          "name": "G#4",
          "ticks": 180000,
          "time": 145.161,
          "velocity": 0.5511811023622047
        },
        {
          "duration": 0.3870960000000139,
          "durationTicks": 480,
          "midi": 67,
          "name": "G4",
          "ticks": 180480,
          "time": 145.548096,
          "velocity": 0.5511811023622047
        },
        {
          "duration": 0.38709599999998545,
          "durationTicks": 480,
          "midi": 63,
          "name": "D#4",
          "ticks": 180960,
          "time": 145.935192,
          "velocity": 0.5511811023622047
        },
        {
          "duration": 0.3870960000000139,
          "durationTicks": 480,
          "midi": 62,
          "name": "D4",
          "ticks": 181440,
          "time": 146.322288,
          "velocity": 0.5511811023622047
        },
        {
          "duration": 0.38709599999998545,
          "durationTicks": 480,
          "midi": 62,
          "name": "D4",
          "ticks": 181920,
          "time": 146.709384,
          "velocity": 0.5511811023622047
        },
        {
          "duration": 0.38709599999998545,
          "durationTicks": 480,
          "midi": 65,
          "name": "F4",
          "ticks": 181920,
          "time": 146.709384,
          "velocity": 0.5511811023622047
        },
        {
          "duration": 0.12903199999999515,
          "durationTicks": 160,
          "midi": 63,
          "name": "D#4",
          "ticks": 182400,
          "time": 147.09647999999999,
          "velocity": 0.5511811023622047
        },
        {
          "duration": 0.19354799999999273,
          "durationTicks": 240,
          "midi": 58,
          "name": "A#3",
          "ticks": 182640,
          "time": 147.290028,
          "velocity": 0.7086614173228346
        },
        {
          "duration": 0.19354799999999273,
          "durationTicks": 240,
          "midi": 60,
          "name": "C4",
          "ticks": 182880,
          "time": 147.483576,
          "velocity": 0.7086614173228346
        },
        {
          "duration": 0.19354799999999273,
          "durationTicks": 240,
          "midi": 56,
          "name": "G#3",
          "ticks": 183120,
          "time": 147.677124,
          "velocity": 0.7086614173228346
        },
        {
          "duration": 0.12903199999999515,
          "durationTicks": 160,
          "midi": 58,
          "name": "A#3",
          "ticks": 183360,
          "time": 147.87067199999998,
          "velocity": 0.7086614173228346
        },
        {
          "duration": 0.12903199999999515,
          "durationTicks": 160,
          "midi": 46,
          "name": "A#2",
          "ticks": 183840,
          "time": 148.257768,
          "velocity": 0.7086614173228346
        },
        {
          "duration": 0.12903199999999515,
          "durationTicks": 160,
          "midi": 51,
          "name": "D#3",
          "ticks": 184320,
          "time": 148.64486399999998,
          "velocity": 0.7086614173228346
        },
        {
          "duration": 0.12903199999999515,
          "durationTicks": 160,
          "midi": 51,
          "name": "D#3",
          "ticks": 184800,
          "time": 149.03196,
          "velocity": 0.7086614173228346
        },
        {
          "duration": 0.12903199999996673,
          "durationTicks": 160,
          "midi": 51,
          "name": "D#3",
          "ticks": 185280,
          "time": 149.419056,
          "velocity": 0.7086614173228346
        },
        {
          "duration": 0.12903199999996673,
          "durationTicks": 160,
          "midi": 51,
          "name": "D#3",
          "ticks": 186240,
          "time": 150.193248,
          "velocity": 0.31496062992125984
        },
        {
          "duration": 0.12903199999999515,
          "durationTicks": 160,
          "midi": 50,
          "name": "D3",
          "ticks": 188160,
          "time": 151.741632,
          "velocity": 0.31496062992125984
        },
        {
          "duration": 0.12903199999999515,
          "durationTicks": 160,
          "midi": 51,
          "name": "D#3",
          "ticks": 190080,
          "time": 153.290016,
          "velocity": 0.31496062992125984
        },
        {
          "duration": 0.12903199999999515,
          "durationTicks": 160,
          "midi": 44,
          "name": "G#2",
          "ticks": 191040,
          "time": 154.064208,
          "velocity": 0.31496062992125984
        },
        {
          "duration": 0.12903199999999515,
          "durationTicks": 160,
          "midi": 46,
          "name": "A#2",
          "ticks": 192000,
          "time": 154.8384,
          "velocity": 0.31496062992125984
        },
        {
          "duration": 0.12903199999999515,
          "durationTicks": 160,
          "midi": 58,
          "name": "A#3",
          "ticks": 197280,
          "time": 159.096456,
          "velocity": 0.31496062992125984
        },
        {
          "duration": 0.12903199999999515,
          "durationTicks": 160,
          "midi": 63,
          "name": "D#4",
          "ticks": 197760,
          "time": 159.483552,
          "velocity": 0.31496062992125984
        },
        {
          "duration": 0.12903199999999515,
          "durationTicks": 160,
          "midi": 51,
          "name": "D#3",
          "ticks": 198240,
          "time": 159.870648,
          "velocity": 0.31496062992125984
        },
        {
          "duration": 0.12903199999999515,
          "durationTicks": 160,
          "midi": 58,
          "name": "A#3",
          "ticks": 198720,
          "time": 160.257744,
          "velocity": 0.31496062992125984
        },
        {
          "duration": 0.12903199999999515,
          "durationTicks": 160,
          "midi": 46,
          "name": "A#2",
          "ticks": 199200,
          "time": 160.64484,
          "velocity": 0.31496062992125984
        },
        {
          "duration": 0.6129019999999912,
          "durationTicks": 760,
          "midi": 51,
          "name": "D#3",
          "ticks": 199680,
          "time": 161.031936,
          "velocity": 0.31496062992125984
        },
        {
          "duration": 0.38387019999998984,
          "durationTicks": 476,
          "midi": 59,
          "name": "B3",
          "ticks": 201600,
          "time": 162.58032,
          "velocity": 0.31496062992125984
        },
        {
          "duration": 0.12903199999999515,
          "durationTicks": 160,
          "midi": 60,
          "name": "C4",
          "ticks": 203520,
          "time": 164.128704,
          "velocity": 0.31496062992125984
        },
        {
          "duration": 0.12903199999999515,
          "durationTicks": 160,
          "midi": 57,
          "name": "A3",
          "ticks": 205440,
          "time": 165.677088,
          "velocity": 0.31496062992125984
        },
        {
          "duration": 0.12903199999999515,
          "durationTicks": 160,
          "midi": 58,
          "name": "A#3",
          "ticks": 207360,
          "time": 167.225472,
          "velocity": 0.31496062992125984
        },
        {
          "duration": 0.12903199999999515,
          "durationTicks": 160,
          "midi": 58,
          "name": "A#3",
          "ticks": 212640,
          "time": 171.483528,
          "velocity": 0.31496062992125984
        },
        {
          "duration": 0.12903199999999515,
          "durationTicks": 160,
          "midi": 63,
          "name": "D#4",
          "ticks": 213120,
          "time": 171.870624,
          "velocity": 0.31496062992125984
        },
        {
          "duration": 0.12903199999999515,
          "durationTicks": 160,
          "midi": 51,
          "name": "D#3",
          "ticks": 213600,
          "time": 172.25772,
          "velocity": 0.31496062992125984
        },
        {
          "duration": 0.12903199999999515,
          "durationTicks": 160,
          "midi": 58,
          "name": "A#3",
          "ticks": 214080,
          "time": 172.644816,
          "velocity": 0.31496062992125984
        },
        {
          "duration": 0.12903199999999515,
          "durationTicks": 160,
          "midi": 46,
          "name": "A#2",
          "ticks": 214560,
          "time": 173.031912,
          "velocity": 0.31496062992125984
        },
        {
          "duration": 0.6129019999999912,
          "durationTicks": 760,
          "midi": 51,
          "name": "D#3",
          "ticks": 215040,
          "time": 173.419008,
          "velocity": 0.31496062992125984
        },
        {
          "duration": 0.12903199999999515,
          "durationTicks": 160,
          "midi": 58,
          "name": "A#3",
          "ticks": 216960,
          "time": 174.967392,
          "velocity": 0.31496062992125984
        },
        {
          "duration": 0.12903199999999515,
          "durationTicks": 160,
          "midi": 58,
          "name": "A#3",
          "ticks": 217440,
          "time": 175.354488,
          "velocity": 0.31496062992125984
        },
        {
          "duration": 0.12903199999999515,
          "durationTicks": 160,
          "midi": 58,
          "name": "A#3",
          "ticks": 217920,
          "time": 175.741584,
          "velocity": 0.31496062992125984
        },
        {
          "duration": 0.12903199999999515,
          "durationTicks": 160,
          "midi": 58,
          "name": "A#3",
          "ticks": 218400,
          "time": 176.12868,
          "velocity": 0.31496062992125984
        },
        {
          "duration": 0.12903199999999515,
          "durationTicks": 160,
          "midi": 58,
          "name": "A#3",
          "ticks": 218880,
          "time": 176.515776,
          "velocity": 0.31496062992125984
        },
        {
          "duration": 0.12903199999999515,
          "durationTicks": 160,
          "midi": 58,
          "name": "A#3",
          "ticks": 219120,
          "time": 176.709324,
          "velocity": 0.31496062992125984
        },
        {
          "duration": 0.12903199999999515,
          "durationTicks": 160,
          "midi": 58,
          "name": "A#3",
          "ticks": 219360,
          "time": 176.902872,
          "velocity": 0.31496062992125984
        },
        {
          "duration": 0.12903199999999515,
          "durationTicks": 160,
          "midi": 58,
          "name": "A#3",
          "ticks": 219600,
          "time": 177.09642,
          "velocity": 0.31496062992125984
        },
        {
          "duration": 0.12903199999999515,
          "durationTicks": 160,
          "midi": 58,
          "name": "A#3",
          "ticks": 219840,
          "time": 177.289968,
          "velocity": 0.31496062992125984
        },
        {
          "duration": 0.12903199999999515,
          "durationTicks": 160,
          "midi": 58,
          "name": "A#3",
          "ticks": 220800,
          "time": 178.06416,
          "velocity": 0.31496062992125984
        },
        {
          "duration": 0.12903199999999515,
          "durationTicks": 160,
          "midi": 58,
          "name": "A#3",
          "ticks": 221280,
          "time": 178.451256,
          "velocity": 0.31496062992125984
        },
        {
          "duration": 0.12903199999999515,
          "durationTicks": 160,
          "midi": 58,
          "name": "A#3",
          "ticks": 221760,
          "time": 178.838352,
          "velocity": 0.31496062992125984
        },
        {
          "duration": 0.12903199999999515,
          "durationTicks": 160,
          "midi": 58,
          "name": "A#3",
          "ticks": 222240,
          "time": 179.225448,
          "velocity": 0.31496062992125984
        },
        {
          "duration": 0.12903199999999515,
          "durationTicks": 160,
          "midi": 58,
          "name": "A#3",
          "ticks": 222720,
          "time": 179.61254399999999,
          "velocity": 0.31496062992125984
        },
        {
          "duration": 0.12903199999999515,
          "durationTicks": 160,
          "midi": 58,
          "name": "A#3",
          "ticks": 222960,
          "time": 179.806092,
          "velocity": 0.31496062992125984
        },
        {
          "duration": 0.12903199999999515,
          "durationTicks": 160,
          "midi": 58,
          "name": "A#3",
          "ticks": 223200,
          "time": 179.99964,
          "velocity": 0.31496062992125984
        },
        {
          "duration": 0.12903199999999515,
          "durationTicks": 160,
          "midi": 58,
          "name": "A#3",
          "ticks": 223440,
          "time": 180.193188,
          "velocity": 0.31496062992125984
        },
        {
          "duration": 0.12903199999999515,
          "durationTicks": 160,
          "midi": 58,
          "name": "A#3",
          "ticks": 223680,
          "time": 180.38673599999998,
          "velocity": 0.31496062992125984
        },
        {
          "duration": 0.12903199999999515,
          "durationTicks": 160,
          "midi": 55,
          "name": "G3",
          "ticks": 225120,
          "time": 181.548024,
          "velocity": 0.5511811023622047
        },
        {
          "duration": 0.12903199999999515,
          "durationTicks": 160,
          "midi": 51,
          "name": "D#3",
          "ticks": 225360,
          "time": 181.741572,
          "velocity": 0.5511811023622047
        },
        {
          "duration": 0.12903199999996673,
          "durationTicks": 160,
          "midi": 56,
          "name": "G#3",
          "ticks": 225600,
          "time": 181.93512,
          "velocity": 0.5511811023622047
        },
        {
          "duration": 0.12903199999999515,
          "durationTicks": 160,
          "midi": 53,
          "name": "F3",
          "ticks": 225840,
          "time": 182.128668,
          "velocity": 0.5511811023622047
        },
        {
          "duration": 0.12903199999999515,
          "durationTicks": 160,
          "midi": 50,
          "name": "D3",
          "ticks": 226080,
          "time": 182.322216,
          "velocity": 0.5511811023622047
        },
        {
          "duration": 0.12903199999999515,
          "durationTicks": 160,
          "midi": 62,
          "name": "D4",
          "ticks": 226320,
          "time": 182.515764,
          "velocity": 0.5511811023622047
        },
        {
          "duration": 0.12903199999996673,
          "durationTicks": 160,
          "midi": 63,
          "name": "D#4",
          "ticks": 226560,
          "time": 182.709312,
          "velocity": 0.5511811023622047
        },
        {
          "duration": 0.12903199999999515,
          "durationTicks": 160,
          "midi": 58,
          "name": "A#3",
          "ticks": 226800,
          "time": 182.90286,
          "velocity": 0.5511811023622047
        },
        {
          "duration": 0.12903199999999515,
          "durationTicks": 160,
          "midi": 55,
          "name": "G3",
          "ticks": 227040,
          "time": 183.096408,
          "velocity": 0.5511811023622047
        },
        {
          "duration": 0.12903199999999515,
          "durationTicks": 160,
          "midi": 51,
          "name": "D#3",
          "ticks": 227280,
          "time": 183.289956,
          "velocity": 0.5511811023622047
        },
        {
          "duration": 0.12903199999996673,
          "durationTicks": 160,
          "midi": 56,
          "name": "G#3",
          "ticks": 227520,
          "time": 183.483504,
          "velocity": 0.5511811023622047
        },
        {
          "duration": 0.12903199999999515,
          "durationTicks": 160,
          "midi": 53,
          "name": "F3",
          "ticks": 227760,
          "time": 183.677052,
          "velocity": 0.5511811023622047
        },
        {
          "duration": 0.12903199999999515,
          "durationTicks": 160,
          "midi": 50,
          "name": "D3",
          "ticks": 228000,
          "time": 183.8706,
          "velocity": 0.5511811023622047
        },
        {
          "duration": 0.12903199999999515,
          "durationTicks": 160,
          "midi": 62,
          "name": "D4",
          "ticks": 228240,
          "time": 184.064148,
          "velocity": 0.5511811023622047
        },
        {
          "duration": 0.12903199999996673,
          "durationTicks": 160,
          "midi": 63,
          "name": "D#4",
          "ticks": 228480,
          "time": 184.257696,
          "velocity": 0.5511811023622047
        },
        {
          "duration": 0.19354799999999273,
          "durationTicks": 240,
          "midi": 59,
          "name": "B3",
          "ticks": 228720,
          "time": 184.451244,
          "velocity": 0.7086614173228346
        },
        {
          "duration": 0.19354799999999273,
          "durationTicks": 240,
          "midi": 60,
          "name": "C4",
          "ticks": 228960,
          "time": 184.644792,
          "velocity": 0.7086614173228346
        },
        {
          "duration": 0.19354800000002115,
          "durationTicks": 240,
          "midi": 56,
          "name": "G#3",
          "ticks": 229200,
          "time": 184.83834,
          "velocity": 0.7086614173228346
        },
        {
          "duration": 0.1903221999999971,
          "durationTicks": 236,
          "midi": 58,
          "name": "A#3",
          "ticks": 229440,
          "time": 185.031888,
          "velocity": 0.7086614173228346
        },
        {
          "duration": 0.12903199999999515,
          "durationTicks": 160,
          "midi": 58,
          "name": "A#3",
          "ticks": 229680,
          "time": 185.225436,
          "velocity": 0.7086614173228346
        },
        {
          "duration": 0.12903199999999515,
          "durationTicks": 160,
          "midi": 46,
          "name": "A#2",
          "ticks": 229920,
          "time": 185.418984,
          "velocity": 0.7086614173228346
        },
        {
          "duration": 0.12903199999999515,
          "durationTicks": 160,
          "midi": 46,
          "name": "A#2",
          "ticks": 230160,
          "time": 185.612532,
          "velocity": 0.7086614173228346
        },
        {
          "duration": 0.12903199999999515,
          "durationTicks": 160,
          "midi": 51,
          "name": "D#3",
          "ticks": 230400,
          "time": 185.80608,
          "velocity": 0.7086614173228346
        },
        {
          "duration": 0.12903199999999515,
          "durationTicks": 160,
          "midi": 55,
          "name": "G3",
          "ticks": 230640,
          "time": 185.999628,
          "velocity": 0.7086614173228346
        },
        {
          "duration": 0.12903199999999515,
          "durationTicks": 160,
          "midi": 58,
          "name": "A#3",
          "ticks": 230880,
          "time": 186.193176,
          "velocity": 0.7086614173228346
        },
        {
          "duration": 0.12903199999999515,
          "durationTicks": 160,
          "midi": 55,
          "name": "G3",
          "ticks": 231120,
          "time": 186.386724,
          "velocity": 0.7086614173228346
        },
        {
          "duration": 0.12903199999999515,
          "durationTicks": 160,
          "midi": 51,
          "name": "D#3",
          "ticks": 231360,
          "time": 186.580272,
          "velocity": 0.7086614173228346
        },
        {
          "duration": 0.12903199999999515,
          "durationTicks": 160,
          "midi": 51,
          "name": "D#3",
          "ticks": 232320,
          "time": 187.354464,
          "velocity": 0.31496062992125984
        },
        {
          "duration": 0.12903199999999515,
          "durationTicks": 160,
          "midi": 56,
          "name": "G#3",
          "ticks": 233760,
          "time": 188.515752,
          "velocity": 0.31496062992125984
        },
        {
          "duration": 0.12903199999999515,
          "durationTicks": 160,
          "midi": 58,
          "name": "A#3",
          "ticks": 234240,
          "time": 188.902848,
          "velocity": 0.31496062992125984
        },
        {
          "duration": 0.1370965000000126,
          "durationTicks": 170,
          "midi": 46,
          "name": "A#2",
          "ticks": 235680,
          "time": 190.064136,
          "velocity": 0.31496062992125984
        },
        {
          "duration": 0.12903199999999515,
          "durationTicks": 160,
          "midi": 48,
          "name": "C3",
          "ticks": 236160,
          "time": 190.451232,
          "velocity": 0.31496062992125984
        },
        {
          "duration": 0.12903199999999515,
          "durationTicks": 160,
          "midi": 44,
          "name": "G#2",
          "ticks": 237120,
          "time": 191.225424,
          "velocity": 0.31496062992125984
        },
        {
          "duration": 0.9999979999999766,
          "durationTicks": 1240,
          "midi": 46,
          "name": "A#2",
          "ticks": 238080,
          "time": 191.999616,
          "velocity": 0.31496062992125984
        },
        {
          "duration": 0.12903199999999515,
          "durationTicks": 160,
          "midi": 58,
          "name": "A#3",
          "ticks": 240000,
          "time": 193.548,
          "velocity": 0.31496062992125984
        },
        {
          "duration": 0.12903199999999515,
          "durationTicks": 160,
          "midi": 56,
          "name": "G#3",
          "ticks": 240960,
          "time": 194.322192,
          "velocity": 0.31496062992125984
        },
        {
          "duration": 0.12903199999999515,
          "durationTicks": 160,
          "midi": 56,
          "name": "G#3",
          "ticks": 241920,
          "time": 195.096384,
          "velocity": 0.31496062992125984
        },
        {
          "duration": 0.12903199999999515,
          "durationTicks": 160,
          "midi": 55,
          "name": "G3",
          "ticks": 242880,
          "time": 195.870576,
          "velocity": 0.31496062992125984
        },
        {
          "duration": 0.12903199999999515,
          "durationTicks": 160,
          "midi": 56,
          "name": "G#3",
          "ticks": 243840,
          "time": 196.644768,
          "velocity": 0.31496062992125984
        },
        {
          "duration": 0.12903199999999515,
          "durationTicks": 160,
          "midi": 58,
          "name": "A#3",
          "ticks": 244800,
          "time": 197.41896,
          "velocity": 0.31496062992125984
        },
        {
          "duration": 0.12903200000002357,
          "durationTicks": 160,
          "midi": 51,
          "name": "D#3",
          "ticks": 245760,
          "time": 198.193152,
          "velocity": 0.31496062992125984
        },
        {
          "duration": 0.12903199999999515,
          "durationTicks": 160,
          "midi": 51,
          "name": "D#3",
          "ticks": 246240,
          "time": 198.580248,
          "velocity": 0.31496062992125984
        },
        {
          "duration": 0.12903200000002357,
          "durationTicks": 160,
          "midi": 51,
          "name": "D#3",
          "ticks": 246720,
          "time": 198.967344,
          "velocity": 0.31496062992125984
        },
        {
          "duration": 0.3870960000000139,
          "durationTicks": 480,
          "midi": 47,
          "name": "B2",
          "ticks": 247680,
          "time": 199.741536,
          "velocity": 0.31496062992125984
        },
        {
          "duration": 0.38709599999998545,
          "durationTicks": 480,
          "midi": 50,
          "name": "D3",
          "ticks": 248160,
          "time": 200.128632,
          "velocity": 0.31496062992125984
        },
        {
          "duration": 0.12903200000002357,
          "durationTicks": 160,
          "midi": 55,
          "name": "G3",
          "ticks": 248640,
          "time": 200.515728,
          "velocity": 0.31496062992125984
        },
        {
          "duration": 0.3870960000000139,
          "durationTicks": 480,
          "midi": 48,
          "name": "C3",
          "ticks": 249600,
          "time": 201.28992,
          "velocity": 0.31496062992125984
        },
        {
          "duration": 0.38709599999998545,
          "durationTicks": 480,
          "midi": 55,
          "name": "G3",
          "ticks": 250080,
          "time": 201.677016,
          "velocity": 0.31496062992125984
        },
        {
          "duration": 0.12903200000002357,
          "durationTicks": 160,
          "midi": 60,
          "name": "C4",
          "ticks": 250560,
          "time": 202.064112,
          "velocity": 0.31496062992125984
        },
        {
          "duration": 0.3870960000000139,
          "durationTicks": 480,
          "midi": 45,
          "name": "A2",
          "ticks": 251520,
          "time": 202.838304,
          "velocity": 0.31496062992125984
        },
        {
          "duration": 0.38709599999998545,
          "durationTicks": 480,
          "midi": 48,
          "name": "C3",
          "ticks": 252000,
          "time": 203.2254,
          "velocity": 0.31496062992125984
        },
        {
          "duration": 0.12903200000002357,
          "durationTicks": 160,
          "midi": 53,
          "name": "F3",
          "ticks": 252480,
          "time": 203.612496,
          "velocity": 0.31496062992125984
        },
        {
          "duration": 0.3870960000000139,
          "durationTicks": 480,
          "midi": 46,
          "name": "A#2",
          "ticks": 253440,
          "time": 204.386688,
          "velocity": 0.31496062992125984
        },
        {
          "duration": 0.38709599999998545,
          "durationTicks": 480,
          "midi": 53,
          "name": "F3",
          "ticks": 253920,
          "time": 204.773784,
          "velocity": 0.31496062992125984
        },
        {
          "duration": 0.12903200000002357,
          "durationTicks": 160,
          "midi": 58,
          "name": "A#3",
          "ticks": 254400,
          "time": 205.16088,
          "velocity": 0.31496062992125984
        },
        {
          "duration": 0.12903200000002357,
          "durationTicks": 160,
          "midi": 58,
          "name": "A#3",
          "ticks": 255360,
          "time": 205.935072,
          "velocity": 0.31496062992125984
        },
        {
          "duration": 0.12903200000002357,
          "durationTicks": 160,
          "midi": 56,
          "name": "G#3",
          "ticks": 256320,
          "time": 206.709264,
          "velocity": 0.31496062992125984
        },
        {
          "duration": 0.12903200000002357,
          "durationTicks": 160,
          "midi": 56,
          "name": "G#3",
          "ticks": 257280,
          "time": 207.483456,
          "velocity": 0.31496062992125984
        },
        {
          "duration": 0.12903200000002357,
          "durationTicks": 160,
          "midi": 55,
          "name": "G3",
          "ticks": 258240,
          "time": 208.257648,
          "velocity": 0.31496062992125984
        },
        {
          "duration": 0.12903200000002357,
          "durationTicks": 160,
          "midi": 56,
          "name": "G#3",
          "ticks": 259200,
          "time": 209.03184,
          "velocity": 0.31496062992125984
        },
        {
          "duration": 0.12903200000002357,
          "durationTicks": 160,
          "midi": 58,
          "name": "A#3",
          "ticks": 260160,
          "time": 209.806032,
          "velocity": 0.31496062992125984
        },
        {
          "duration": 0.12903200000002357,
          "durationTicks": 160,
          "midi": 51,
          "name": "D#3",
          "ticks": 261120,
          "time": 210.580224,
          "velocity": 0.31496062992125984
        },
        {
          "duration": 0.12903200000002357,
          "durationTicks": 160,
          "midi": 51,
          "name": "D#3",
          "ticks": 261600,
          "time": 210.96732,
          "velocity": 0.31496062992125984
        },
        {
          "duration": 0.12903200000002357,
          "durationTicks": 160,
          "midi": 51,
          "name": "D#3",
          "ticks": 262080,
          "time": 211.354416,
          "velocity": 0.31496062992125984
        },
        {
          "duration": 0.12903200000002357,
          "durationTicks": 160,
          "midi": 58,
          "name": "A#3",
          "ticks": 263040,
          "time": 212.12860799999999,
          "velocity": 0.31496062992125984
        },
        {
          "duration": 0.12903200000002357,
          "durationTicks": 160,
          "midi": 58,
          "name": "A#3",
          "ticks": 263520,
          "time": 212.515704,
          "velocity": 0.31496062992125984
        },
        {
          "duration": 0.12903200000002357,
          "durationTicks": 160,
          "midi": 58,
          "name": "A#3",
          "ticks": 264000,
          "time": 212.90279999999998,
          "velocity": 0.31496062992125984
        },
        {
          "duration": 0.12903200000002357,
          "durationTicks": 160,
          "midi": 58,
          "name": "A#3",
          "ticks": 264480,
          "time": 213.289896,
          "velocity": 0.31496062992125984
        },
        {
          "duration": 0.12903200000002357,
          "durationTicks": 160,
          "midi": 58,
          "name": "A#3",
          "ticks": 264960,
          "time": 213.67699199999998,
          "velocity": 0.31496062992125984
        },
        {
          "duration": 0.12903199999999515,
          "durationTicks": 160,
          "midi": 58,
          "name": "A#3",
          "ticks": 265200,
          "time": 213.87054,
          "velocity": 0.31496062992125984
        },
        {
          "duration": 0.12903200000002357,
          "durationTicks": 160,
          "midi": 58,
          "name": "A#3",
          "ticks": 265440,
          "time": 214.064088,
          "velocity": 0.31496062992125984
        },
        {
          "duration": 0.12903200000002357,
          "durationTicks": 160,
          "midi": 58,
          "name": "A#3",
          "ticks": 265680,
          "time": 214.257636,
          "velocity": 0.31496062992125984
        },
        {
          "duration": 0.12903200000002357,
          "durationTicks": 160,
          "midi": 58,
          "name": "A#3",
          "ticks": 265920,
          "time": 214.45118399999998,
          "velocity": 0.31496062992125984
        },
        {
          "duration": 0.12903199999999515,
          "durationTicks": 160,
          "midi": 58,
          "name": "A#3",
          "ticks": 266880,
          "time": 215.225376,
          "velocity": 0.31496062992125984
        },
        {
          "duration": 0.12903200000002357,
          "durationTicks": 160,
          "midi": 58,
          "name": "A#3",
          "ticks": 267360,
          "time": 215.612472,
          "velocity": 0.31496062992125984
        },
        {
          "duration": 0.12903199999999515,
          "durationTicks": 160,
          "midi": 58,
          "name": "A#3",
          "ticks": 267840,
          "time": 215.999568,
          "velocity": 0.31496062992125984
        },
        {
          "duration": 0.12903200000002357,
          "durationTicks": 160,
          "midi": 58,
          "name": "A#3",
          "ticks": 268320,
          "time": 216.386664,
          "velocity": 0.31496062992125984
        },
        {
          "duration": 0.12903199999999515,
          "durationTicks": 160,
          "midi": 58,
          "name": "A#3",
          "ticks": 268800,
          "time": 216.77376,
          "velocity": 0.31496062992125984
        },
        {
          "duration": 0.12903200000002357,
          "durationTicks": 160,
          "midi": 58,
          "name": "A#3",
          "ticks": 269040,
          "time": 216.967308,
          "velocity": 0.31496062992125984
        },
        {
          "duration": 0.12903200000002357,
          "durationTicks": 160,
          "midi": 58,
          "name": "A#3",
          "ticks": 269280,
          "time": 217.160856,
          "velocity": 0.31496062992125984
        },
        {
          "duration": 0.12903200000002357,
          "durationTicks": 160,
          "midi": 58,
          "name": "A#3",
          "ticks": 269520,
          "time": 217.354404,
          "velocity": 0.31496062992125984
        },
        {
          "duration": 0.12903199999999515,
          "durationTicks": 160,
          "midi": 58,
          "name": "A#3",
          "ticks": 269760,
          "time": 217.547952,
          "velocity": 0.31496062992125984
        },
        {
          "duration": 0.12903200000002357,
          "durationTicks": 160,
          "midi": 55,
          "name": "G3",
          "ticks": 271200,
          "time": 218.70924,
          "velocity": 0.5511811023622047
        },
        {
          "duration": 0.12903200000002357,
          "durationTicks": 160,
          "midi": 51,
          "name": "D#3",
          "ticks": 271440,
          "time": 218.902788,
          "velocity": 0.5511811023622047
        },
        {
          "duration": 0.12903199999999515,
          "durationTicks": 160,
          "midi": 56,
          "name": "G#3",
          "ticks": 271680,
          "time": 219.096336,
          "velocity": 0.5511811023622047
        },
        {
          "duration": 0.12903200000002357,
          "durationTicks": 160,
          "midi": 53,
          "name": "F3",
          "ticks": 271920,
          "time": 219.289884,
          "velocity": 0.5511811023622047
        },
        {
          "duration": 0.12903200000002357,
          "durationTicks": 160,
          "midi": 50,
          "name": "D3",
          "ticks": 272160,
          "time": 219.483432,
          "velocity": 0.5511811023622047
        },
        {
          "duration": 0.12903200000002357,
          "durationTicks": 160,
          "midi": 62,
          "name": "D4",
          "ticks": 272400,
          "time": 219.67698,
          "velocity": 0.5511811023622047
        },
        {
          "duration": 0.12903199999999515,
          "durationTicks": 160,
          "midi": 63,
          "name": "D#4",
          "ticks": 272640,
          "time": 219.870528,
          "velocity": 0.5511811023622047
        },
        {
          "duration": 0.12903200000002357,
          "durationTicks": 160,
          "midi": 58,
          "name": "A#3",
          "ticks": 272880,
          "time": 220.064076,
          "velocity": 0.5511811023622047
        },
        {
          "duration": 0.12903200000002357,
          "durationTicks": 160,
          "midi": 55,
          "name": "G3",
          "ticks": 273120,
          "time": 220.257624,
          "velocity": 0.5511811023622047
        },
        {
          "duration": 0.12903200000002357,
          "durationTicks": 160,
          "midi": 51,
          "name": "D#3",
          "ticks": 273360,
          "time": 220.45117199999999,
          "velocity": 0.5511811023622047
        },
        {
          "duration": 0.12903199999999515,
          "durationTicks": 160,
          "midi": 56,
          "name": "G#3",
          "ticks": 273600,
          "time": 220.64472,
          "velocity": 0.5511811023622047
        },
        {
          "duration": 0.12903200000002357,
          "durationTicks": 160,
          "midi": 53,
          "name": "F3",
          "ticks": 273840,
          "time": 220.838268,
          "velocity": 0.5511811023622047
        },
        {
          "duration": 0.12903200000002357,
          "durationTicks": 160,
          "midi": 50,
          "name": "D3",
          "ticks": 274080,
          "time": 221.031816,
          "velocity": 0.5511811023622047
        },
        {
          "duration": 0.12903200000002357,
          "durationTicks": 160,
          "midi": 62,
          "name": "D4",
          "ticks": 274320,
          "time": 221.22536399999998,
          "velocity": 0.5511811023622047
        },
        {
          "duration": 0.12903199999999515,
          "durationTicks": 160,
          "midi": 63,
          "name": "D#4",
          "ticks": 274560,
          "time": 221.418912,
          "velocity": 0.5511811023622047
        },
        {
          "duration": 0.19354799999999273,
          "durationTicks": 240,
          "midi": 59,
          "name": "B3",
          "ticks": 274800,
          "time": 221.61246,
          "velocity": 0.7086614173228346
        },
        {
          "duration": 0.19354799999999273,
          "durationTicks": 240,
          "midi": 60,
          "name": "C4",
          "ticks": 275040,
          "time": 221.806008,
          "velocity": 0.7086614173228346
        },
        {
          "duration": 0.19354800000002115,
          "durationTicks": 240,
          "midi": 56,
          "name": "G#3",
          "ticks": 275280,
          "time": 221.99955599999998,
          "velocity": 0.7086614173228346
        },
        {
          "duration": 0.12903199999999515,
          "durationTicks": 160,
          "midi": 58,
          "name": "A#3",
          "ticks": 275520,
          "time": 222.193104,
          "velocity": 0.7086614173228346
        },
        {
          "duration": 0.12903200000002357,
          "durationTicks": 160,
          "midi": 46,
          "name": "A#2",
          "ticks": 276000,
          "time": 222.5802,
          "velocity": 0.7086614173228346
        },
        {
          "duration": 0.12903199999999515,
          "durationTicks": 160,
          "midi": 51,
          "name": "D#3",
          "ticks": 276480,
          "time": 222.967296,
          "velocity": 0.7086614173228346
        },
        {
          "duration": 0.12903200000002357,
          "durationTicks": 160,
          "midi": 51,
          "name": "D#3",
          "ticks": 276960,
          "time": 223.354392,
          "velocity": 0.7086614173228346
        },
        {
          "duration": 0.12903199999999515,
          "durationTicks": 160,
          "midi": 51,
          "name": "D#3",
          "ticks": 277440,
          "time": 223.741488,
          "velocity": 0.7086614173228346
        },
        {
          "duration": 0.12903199999999515,
          "durationTicks": 160,
          "midi": 51,
          "name": "D#3",
          "ticks": 278400,
          "time": 224.51568,
          "velocity": 0.31496062992125984
        },
        {
          "duration": 0.12903200000002357,
          "durationTicks": 160,
          "midi": 55,
          "name": "G3",
          "ticks": 279840,
          "time": 225.676968,
          "velocity": 0.31496062992125984
        },
        {
          "duration": 0.12903200000002357,
          "durationTicks": 160,
          "midi": 58,
          "name": "A#3",
          "ticks": 280320,
          "time": 226.064064,
          "velocity": 0.31496062992125984
        },
        {
          "duration": 0.12903200000002357,
          "durationTicks": 160,
          "midi": 46,
          "name": "A#2",
          "ticks": 281760,
          "time": 227.225352,
          "velocity": 0.31496062992125984
        },
        {
          "duration": 0.12903200000002357,
          "durationTicks": 160,
          "midi": 51,
          "name": "D#3",
          "ticks": 282240,
          "time": 227.612448,
          "velocity": 0.31496062992125984
        },
        {
          "duration": 0.12903200000002357,
          "durationTicks": 160,
          "midi": 44,
          "name": "G#2",
          "ticks": 283200,
          "time": 228.38664,
          "velocity": 0.31496062992125984
        },
        {
          "duration": 0.12903200000002357,
          "durationTicks": 160,
          "midi": 56,
          "name": "G#3",
          "ticks": 283680,
          "time": 228.77373599999999,
          "velocity": 0.31496062992125984
        },
        {
          "duration": 0.12903200000002357,
          "durationTicks": 160,
          "midi": 58,
          "name": "A#3",
          "ticks": 284160,
          "time": 229.160832,
          "velocity": 0.31496062992125984
        },
        {
          "duration": 0.12903200000002357,
          "durationTicks": 160,
          "midi": 58,
          "name": "A#3",
          "ticks": 284640,
          "time": 229.54792799999998,
          "velocity": 0.31496062992125984
        },
        {
          "duration": 3.709670000000017,
          "durationTicks": 4600,
          "midi": 58,
          "name": "A#3",
          "ticks": 285120,
          "time": 229.935024,
          "velocity": 0.31496062992125984
        },
        {
          "duration": 0.6129020000000196,
          "durationTicks": 760,
          "midi": 56,
          "name": "G#3",
          "ticks": 289920,
          "time": 233.805984,
          "velocity": 0.31496062992125984
        },
        {
          "duration": 0.12903200000002357,
          "durationTicks": 160,
          "midi": 58,
          "name": "A#3",
          "ticks": 290880,
          "time": 234.580176,
          "velocity": 0.31496062992125984
        },
        {
          "duration": 0.12903199999999515,
          "durationTicks": 160,
          "midi": 46,
          "name": "A#2",
          "ticks": 291360,
          "time": 234.967272,
          "velocity": 0.31496062992125984
        },
        {
          "duration": 0.6129020000000196,
          "durationTicks": 760,
          "midi": 51,
          "name": "D#3",
          "ticks": 291840,
          "time": 235.354368,
          "velocity": 0.31496062992125984
        },
        {
          "duration": 0.3870960000000139,
          "durationTicks": 480,
          "midi": 60,
          "name": "C4",
          "ticks": 295680,
          "time": 238.451136,
          "velocity": 0.31496062992125984
        },
        {
          "duration": 0.38709599999998545,
          "durationTicks": 480,
          "midi": 55,
          "name": "G3",
          "ticks": 296160,
          "time": 238.838232,
          "velocity": 0.31496062992125984
        },
        {
          "duration": 0.12903200000002357,
          "durationTicks": 160,
          "midi": 48,
          "name": "C3",
          "ticks": 296640,
          "time": 239.225328,
          "velocity": 0.31496062992125984
        },
        {
          "duration": 0.12903200000002357,
          "durationTicks": 160,
          "midi": 58,
          "name": "A#3",
          "ticks": 299520,
          "time": 241.547904,
          "velocity": 0.31496062992125984
        },
        {
          "duration": 0.12903200000002357,
          "durationTicks": 160,
          "midi": 53,
          "name": "F3",
          "ticks": 300000,
          "time": 241.935,
          "velocity": 0.31496062992125984
        },
        {
          "duration": 3.709670000000017,
          "durationTicks": 4600,
          "midi": 46,
          "name": "A#2",
          "ticks": 300480,
          "time": 242.322096,
          "velocity": 0.31496062992125984
        },
        {
          "duration": 0.6129020000000196,
          "durationTicks": 760,
          "midi": 44,
          "name": "G#2",
          "ticks": 305280,
          "time": 246.19305599999998,
          "velocity": 0.31496062992125984
        },
        {
          "duration": 0.12903200000002357,
          "durationTicks": 160,
          "midi": 46,
          "name": "A#2",
          "ticks": 306240,
          "time": 246.96724799999998,
          "velocity": 0.31496062992125984
        },
        {
          "duration": 0.12903200000002357,
          "durationTicks": 160,
          "midi": 46,
          "name": "A#2",
          "ticks": 306720,
          "time": 247.354344,
          "velocity": 0.31496062992125984
        },
        {
          "duration": 0.6129019999999912,
          "durationTicks": 760,
          "midi": 51,
          "name": "D#3",
          "ticks": 307200,
          "time": 247.74144,
          "velocity": 0.31496062992125984
        },
        {
          "duration": 0.12903199999999515,
          "durationTicks": 160,
          "midi": 58,
          "name": "A#3",
          "ticks": 309120,
          "time": 249.289824,
          "velocity": 0.31496062992125984
        },
        {
          "duration": 0.12903200000002357,
          "durationTicks": 160,
          "midi": 58,
          "name": "A#3",
          "ticks": 309600,
          "time": 249.67692,
          "velocity": 0.31496062992125984
        },
        {
          "duration": 0.12903199999999515,
          "durationTicks": 160,
          "midi": 58,
          "name": "A#3",
          "ticks": 310080,
          "time": 250.064016,
          "velocity": 0.31496062992125984
        },
        {
          "duration": 0.12903200000002357,
          "durationTicks": 160,
          "midi": 58,
          "name": "A#3",
          "ticks": 310560,
          "time": 250.451112,
          "velocity": 0.31496062992125984
        },
        {
          "duration": 0.12903199999999515,
          "durationTicks": 160,
          "midi": 58,
          "name": "A#3",
          "ticks": 311040,
          "time": 250.838208,
          "velocity": 0.31496062992125984
        },
        {
          "duration": 0.12903200000002357,
          "durationTicks": 160,
          "midi": 58,
          "name": "A#3",
          "ticks": 311280,
          "time": 251.031756,
          "velocity": 0.31496062992125984
        },
        {
          "duration": 0.12903200000002357,
          "durationTicks": 160,
          "midi": 58,
          "name": "A#3",
          "ticks": 311520,
          "time": 251.225304,
          "velocity": 0.31496062992125984
        },
        {
          "duration": 0.12903200000002357,
          "durationTicks": 160,
          "midi": 58,
          "name": "A#3",
          "ticks": 311760,
          "time": 251.418852,
          "velocity": 0.31496062992125984
        },
        {
          "duration": 0.12903199999999515,
          "durationTicks": 160,
          "midi": 58,
          "name": "A#3",
          "ticks": 312000,
          "time": 251.6124,
          "velocity": 0.31496062992125984
        },
        {
          "duration": 0.12903199999999515,
          "durationTicks": 160,
          "midi": 58,
          "name": "A#3",
          "ticks": 312960,
          "time": 252.386592,
          "velocity": 0.31496062992125984
        },
        {
          "duration": 0.12903200000002357,
          "durationTicks": 160,
          "midi": 58,
          "name": "A#3",
          "ticks": 313440,
          "time": 252.773688,
          "velocity": 0.31496062992125984
        },
        {
          "duration": 0.12903199999999515,
          "durationTicks": 160,
          "midi": 58,
          "name": "A#3",
          "ticks": 313920,
          "time": 253.160784,
          "velocity": 0.31496062992125984
        },
        {
          "duration": 0.12903200000002357,
          "durationTicks": 160,
          "midi": 58,
          "name": "A#3",
          "ticks": 314400,
          "time": 253.54788,
          "velocity": 0.31496062992125984
        },
        {
          "duration": 0.12903199999999515,
          "durationTicks": 160,
          "midi": 58,
          "name": "A#3",
          "ticks": 314880,
          "time": 253.934976,
          "velocity": 0.31496062992125984
        },
        {
          "duration": 0.12903200000002357,
          "durationTicks": 160,
          "midi": 58,
          "name": "A#3",
          "ticks": 315120,
          "time": 254.128524,
          "velocity": 0.31496062992125984
        },
        {
          "duration": 0.12903200000002357,
          "durationTicks": 160,
          "midi": 58,
          "name": "A#3",
          "ticks": 315360,
          "time": 254.322072,
          "velocity": 0.31496062992125984
        },
        {
          "duration": 0.12903200000002357,
          "durationTicks": 160,
          "midi": 58,
          "name": "A#3",
          "ticks": 315600,
          "time": 254.51561999999998,
          "velocity": 0.31496062992125984
        },
        {
          "duration": 0.12903199999999515,
          "durationTicks": 160,
          "midi": 58,
          "name": "A#3",
          "ticks": 315840,
          "time": 254.709168,
          "velocity": 0.31496062992125984
        },
        {
          "duration": 0.12903200000002357,
          "durationTicks": 160,
          "midi": 55,
          "name": "G3",
          "ticks": 317280,
          "time": 255.870456,
          "velocity": 0.5511811023622047
        },
        {
          "duration": 0.12903199999999515,
          "durationTicks": 160,
          "midi": 51,
          "name": "D#3",
          "ticks": 317520,
          "time": 256.064004,
          "velocity": 0.5511811023622047
        },
        {
          "duration": 0.129032000000052,
          "durationTicks": 160,
          "midi": 56,
          "name": "G#3",
          "ticks": 317760,
          "time": 256.257552,
          "velocity": 0.5511811023622047
        },
        {
          "duration": 0.12903199999999515,
          "durationTicks": 160,
          "midi": 53,
          "name": "F3",
          "ticks": 318000,
          "time": 256.4511,
          "velocity": 0.5511811023622047
        },
        {
          "duration": 0.12903199999999515,
          "durationTicks": 160,
          "midi": 50,
          "name": "D3",
          "ticks": 318240,
          "time": 256.644648,
          "velocity": 0.5511811023622047
        },
        {
          "duration": 0.129032000000052,
          "durationTicks": 160,
          "midi": 62,
          "name": "D4",
          "ticks": 318480,
          "time": 256.838196,
          "velocity": 0.5511811023622047
        },
        {
          "duration": 0.12903199999999515,
          "durationTicks": 160,
          "midi": 63,
          "name": "D#4",
          "ticks": 318720,
          "time": 257.031744,
          "velocity": 0.5511811023622047
        },
        {
          "duration": 0.12903199999999515,
          "durationTicks": 160,
          "midi": 58,
          "name": "A#3",
          "ticks": 318960,
          "time": 257.225292,
          "velocity": 0.5511811023622047
        },
        {
          "duration": 0.12903199999999515,
          "durationTicks": 160,
          "midi": 55,
          "name": "G3",
          "ticks": 319200,
          "time": 257.41884,
          "velocity": 0.5511811023622047
        },
        {
          "duration": 0.12903199999999515,
          "durationTicks": 160,
          "midi": 51,
          "name": "D#3",
          "ticks": 319440,
          "time": 257.612388,
          "velocity": 0.5511811023622047
        },
        {
          "duration": 0.129032000000052,
          "durationTicks": 160,
          "midi": 56,
          "name": "G#3",
          "ticks": 319680,
          "time": 257.805936,
          "velocity": 0.5511811023622047
        },
        {
          "duration": 0.12903199999999515,
          "durationTicks": 160,
          "midi": 53,
          "name": "F3",
          "ticks": 319920,
          "time": 257.999484,
          "velocity": 0.5511811023622047
        },
        {
          "duration": 0.12903199999999515,
          "durationTicks": 160,
          "midi": 50,
          "name": "D3",
          "ticks": 320160,
          "time": 258.193032,
          "velocity": 0.5511811023622047
        },
        {
          "duration": 0.129032000000052,
          "durationTicks": 160,
          "midi": 62,
          "name": "D4",
          "ticks": 320400,
          "time": 258.38658,
          "velocity": 0.5511811023622047
        },
        {
          "duration": 0.12903199999999515,
          "durationTicks": 160,
          "midi": 63,
          "name": "D#4",
          "ticks": 320640,
          "time": 258.580128,
          "velocity": 0.5511811023622047
        },
        {
          "duration": 0.1935479999999643,
          "durationTicks": 240,
          "midi": 59,
          "name": "B3",
          "ticks": 320880,
          "time": 258.773676,
          "velocity": 0.7086614173228346
        },
        {
          "duration": 0.19354800000002115,
          "durationTicks": 240,
          "midi": 60,
          "name": "C4",
          "ticks": 321120,
          "time": 258.967224,
          "velocity": 0.7086614173228346
        },
        {
          "duration": 0.1935479999999643,
          "durationTicks": 240,
          "midi": 56,
          "name": "G#3",
          "ticks": 321360,
          "time": 259.160772,
          "velocity": 0.7086614173228346
        },
        {
          "duration": 0.129032000000052,
          "durationTicks": 160,
          "midi": 58,
          "name": "A#3",
          "ticks": 321600,
          "time": 259.35432,
          "velocity": 0.7086614173228346
        },
        {
          "duration": 0.12903199999999515,
          "durationTicks": 160,
          "midi": 46,
          "name": "A#2",
          "ticks": 322080,
          "time": 259.741416,
          "velocity": 0.7086614173228346
        },
        {
          "duration": 0.12903199999999515,
          "durationTicks": 160,
          "midi": 51,
          "name": "D#3",
          "ticks": 322560,
          "time": 260.128512,
          "velocity": 0.7086614173228346
        },
        {
          "duration": 0.129032000000052,
          "durationTicks": 160,
          "midi": 51,
          "name": "D#3",
          "ticks": 323040,
          "time": 260.515608,
          "velocity": 0.7086614173228346
        },
        {
          "duration": 0.129032000000052,
          "durationTicks": 160,
          "midi": 51,
          "name": "D#3",
          "ticks": 323520,
          "time": 260.90270399999997,
          "velocity": 0.7086614173228346
        },
        {
          "duration": 0.12903199999999515,
          "durationTicks": 160,
          "midi": 51,
          "name": "D#3",
          "ticks": 324480,
          "time": 261.676896,
          "velocity": 0.31496062992125984
        },
        {
          "duration": 0.12903199999999515,
          "durationTicks": 160,
          "midi": 51,
          "name": "D#3",
          "ticks": 325920,
          "time": 262.838184,
          "velocity": 0.31496062992125984
        },
        {
          "duration": 0.12903199999999515,
          "durationTicks": 160,
          "midi": 50,
          "name": "D3",
          "ticks": 326400,
          "time": 263.22528,
          "velocity": 0.31496062992125984
        },
        {
          "duration": 0.12903199999999515,
          "durationTicks": 160,
          "midi": 50,
          "name": "D3",
          "ticks": 327840,
          "time": 264.386568,
          "velocity": 0.31496062992125984
        },
        {
          "duration": 0.12903199999999515,
          "durationTicks": 160,
          "midi": 51,
          "name": "D#3",
          "ticks": 328320,
          "time": 264.773664,
          "velocity": 0.31496062992125984
        },
        {
          "duration": 0.129032000000052,
          "durationTicks": 160,
          "midi": 53,
          "name": "F3",
          "ticks": 328800,
          "time": 265.16076,
          "velocity": 0.31496062992125984
        },
        {
          "duration": 0.12903199999999515,
          "durationTicks": 160,
          "midi": 55,
          "name": "G3",
          "ticks": 329280,
          "time": 265.547856,
          "velocity": 0.31496062992125984
        },
        {
          "duration": 0.12903199999999515,
          "durationTicks": 160,
          "midi": 56,
          "name": "G#3",
          "ticks": 329760,
          "time": 265.934952,
          "velocity": 0.31496062992125984
        },
        {
          "duration": 0.12903199999999515,
          "durationTicks": 160,
          "midi": 58,
          "name": "A#3",
          "ticks": 330240,
          "time": 266.322048,
          "velocity": 0.31496062992125984
        },
        {
          "duration": 0.129032000000052,
          "durationTicks": 160,
          "midi": 58,
          "name": "A#3",
          "ticks": 330720,
          "time": 266.709144,
          "velocity": 0.31496062992125984
        },
        {
          "duration": 0.12903199999999515,
          "durationTicks": 160,
          "midi": 58,
          "name": "A#3",
          "ticks": 331200,
          "time": 267.09624,
          "velocity": 0.31496062992125984
        },
        {
          "duration": 0.38709599999998545,
          "durationTicks": 480,
          "midi": 57,
          "name": "A3",
          "ticks": 335520,
          "time": 270.580104,
          "velocity": 0.31496062992125984
        },
        {
          "duration": 0.12903199999999515,
          "durationTicks": 160,
          "midi": 58,
          "name": "A#3",
          "ticks": 336000,
          "time": 270.9672,
          "velocity": 0.31496062992125984
        },
        {
          "duration": 0.12903199999999515,
          "durationTicks": 160,
          "midi": 46,
          "name": "A#2",
          "ticks": 336960,
          "time": 271.741392,
          "velocity": 0.31496062992125984
        },
        {
          "duration": 0.6129020000000196,
          "durationTicks": 760,
          "midi": 51,
          "name": "D#3",
          "ticks": 337920,
          "time": 272.515584,
          "velocity": 0.31496062992125984
        },
        {
          "duration": 0.38709599999998545,
          "durationTicks": 480,
          "midi": 57,
          "name": "A3",
          "ticks": 350880,
          "time": 282.967176,
          "velocity": 0.31496062992125984
        },
        {
          "duration": 0.129032000000052,
          "durationTicks": 160,
          "midi": 58,
          "name": "A#3",
          "ticks": 351360,
          "time": 283.354272,
          "velocity": 0.31496062992125984
        },
        {
          "duration": 0.12903199999999515,
          "durationTicks": 160,
          "midi": 46,
          "name": "A#2",
          "ticks": 352320,
          "time": 284.128464,
          "velocity": 0.31496062992125984
        },
        {
          "duration": 0.6129020000000196,
          "durationTicks": 760,
          "midi": 51,
          "name": "D#3",
          "ticks": 353280,
          "time": 284.902656,
          "velocity": 0.31496062992125984
        },
        {
          "duration": 0.129032000000052,
          "durationTicks": 160,
          "midi": 58,
          "name": "A#3",
          "ticks": 355200,
          "time": 286.45104,
          "velocity": 0.31496062992125984
        },
        {
          "duration": 0.12903199999999515,
          "durationTicks": 160,
          "midi": 58,
          "name": "A#3",
          "ticks": 355440,
          "time": 286.644588,
          "velocity": 0.31496062992125984
        },
        {
          "duration": 0.12903199999999515,
          "durationTicks": 160,
          "midi": 58,
          "name": "A#3",
          "ticks": 355680,
          "time": 286.838136,
          "velocity": 0.31496062992125984
        },
        {
          "duration": 0.129032000000052,
          "durationTicks": 160,
          "midi": 58,
          "name": "A#3",
          "ticks": 355920,
          "time": 287.031684,
          "velocity": 0.31496062992125984
        },
        {
          "duration": 0.12903199999999515,
          "durationTicks": 160,
          "midi": 58,
          "name": "A#3",
          "ticks": 356160,
          "time": 287.225232,
          "velocity": 0.31496062992125984
        },
        {
          "duration": 0.129032000000052,
          "durationTicks": 160,
          "midi": 58,
          "name": "A#3",
          "ticks": 356400,
          "time": 287.41877999999997,
          "velocity": 0.31496062992125984
        },
        {
          "duration": 0.12903199999999515,
          "durationTicks": 160,
          "midi": 58,
          "name": "A#3",
          "ticks": 356640,
          "time": 287.612328,
          "velocity": 0.31496062992125984
        },
        {
          "duration": 0.12903199999999515,
          "durationTicks": 160,
          "midi": 58,
          "name": "A#3",
          "ticks": 356880,
          "time": 287.805876,
          "velocity": 0.31496062992125984
        },
        {
          "duration": 0.129032000000052,
          "durationTicks": 160,
          "midi": 58,
          "name": "A#3",
          "ticks": 357120,
          "time": 287.999424,
          "velocity": 0.31496062992125984
        },
        {
          "duration": 0.12903199999999515,
          "durationTicks": 160,
          "midi": 58,
          "name": "A#3",
          "ticks": 357360,
          "time": 288.192972,
          "velocity": 0.31496062992125984
        },
        {
          "duration": 0.12903199999999515,
          "durationTicks": 160,
          "midi": 58,
          "name": "A#3",
          "ticks": 357600,
          "time": 288.38652,
          "velocity": 0.31496062992125984
        },
        {
          "duration": 0.129032000000052,
          "durationTicks": 160,
          "midi": 58,
          "name": "A#3",
          "ticks": 357840,
          "time": 288.580068,
          "velocity": 0.31496062992125984
        },
        {
          "duration": 0.12903199999999515,
          "durationTicks": 160,
          "midi": 58,
          "name": "A#3",
          "ticks": 358080,
          "time": 288.773616,
          "velocity": 0.31496062992125984
        },
        {
          "duration": 0.129032000000052,
          "durationTicks": 160,
          "midi": 58,
          "name": "A#3",
          "ticks": 359040,
          "time": 289.547808,
          "velocity": 0.31496062992125984
        },
        {
          "duration": 0.12903199999999515,
          "durationTicks": 160,
          "midi": 58,
          "name": "A#3",
          "ticks": 359280,
          "time": 289.741356,
          "velocity": 0.31496062992125984
        },
        {
          "duration": 0.12903199999999515,
          "durationTicks": 160,
          "midi": 58,
          "name": "A#3",
          "ticks": 359520,
          "time": 289.934904,
          "velocity": 0.31496062992125984
        },
        {
          "duration": 0.129032000000052,
          "durationTicks": 160,
          "midi": 58,
          "name": "A#3",
          "ticks": 359760,
          "time": 290.128452,
          "velocity": 0.31496062992125984
        },
        {
          "duration": 0.12903199999999515,
          "durationTicks": 160,
          "midi": 58,
          "name": "A#3",
          "ticks": 360000,
          "time": 290.322,
          "velocity": 0.31496062992125984
        },
        {
          "duration": 0.12903199999999515,
          "durationTicks": 160,
          "midi": 58,
          "name": "A#3",
          "ticks": 360240,
          "time": 290.515548,
          "velocity": 0.31496062992125984
        },
        {
          "duration": 0.12903199999999515,
          "durationTicks": 160,
          "midi": 58,
          "name": "A#3",
          "ticks": 360480,
          "time": 290.709096,
          "velocity": 0.31496062992125984
        },
        {
          "duration": 0.12903199999999515,
          "durationTicks": 160,
          "midi": 58,
          "name": "A#3",
          "ticks": 360720,
          "time": 290.902644,
          "velocity": 0.31496062992125984
        },
        {
          "duration": 0.129032000000052,
          "durationTicks": 160,
          "midi": 58,
          "name": "A#3",
          "ticks": 360960,
          "time": 291.096192,
          "velocity": 0.31496062992125984
        },
        {
          "duration": 0.12903199999999515,
          "durationTicks": 160,
          "midi": 58,
          "name": "A#3",
          "ticks": 361200,
          "time": 291.28974,
          "velocity": 0.31496062992125984
        },
        {
          "duration": 0.12903199999999515,
          "durationTicks": 160,
          "midi": 58,
          "name": "A#3",
          "ticks": 361440,
          "time": 291.483288,
          "velocity": 0.31496062992125984
        },
        {
          "duration": 0.129032000000052,
          "durationTicks": 160,
          "midi": 58,
          "name": "A#3",
          "ticks": 361680,
          "time": 291.676836,
          "velocity": 0.31496062992125984
        },
        {
          "duration": 0.12903199999999515,
          "durationTicks": 160,
          "midi": 58,
          "name": "A#3",
          "ticks": 361920,
          "time": 291.870384,
          "velocity": 0.31496062992125984
        },
        {
          "duration": 0.12903199999999515,
          "durationTicks": 160,
          "midi": 55,
          "name": "G3",
          "ticks": 363360,
          "time": 293.031672,
          "velocity": 0.5511811023622047
        },
        {
          "duration": 0.129032000000052,
          "durationTicks": 160,
          "midi": 51,
          "name": "D#3",
          "ticks": 363600,
          "time": 293.22522,
          "velocity": 0.5511811023622047
        },
        {
          "duration": 0.12903199999999515,
          "durationTicks": 160,
          "midi": 56,
          "name": "G#3",
          "ticks": 363840,
          "time": 293.418768,
          "velocity": 0.5511811023622047
        },
        {
          "duration": 0.12903199999999515,
          "durationTicks": 160,
          "midi": 53,
          "name": "F3",
          "ticks": 364080,
          "time": 293.612316,
          "velocity": 0.5511811023622047
        },
        {
          "duration": 0.129032000000052,
          "durationTicks": 160,
          "midi": 50,
          "name": "D3",
          "ticks": 364320,
          "time": 293.805864,
          "velocity": 0.5511811023622047
        },
        {
          "duration": 0.12903199999999515,
          "durationTicks": 160,
          "midi": 62,
          "name": "D4",
          "ticks": 364560,
          "time": 293.999412,
          "velocity": 0.5511811023622047
        },
        {
          "duration": 0.129032000000052,
          "durationTicks": 160,
          "midi": 63,
          "name": "D#4",
          "ticks": 364800,
          "time": 294.19295999999997,
          "velocity": 0.5511811023622047
        },
        {
          "duration": 0.12903199999999515,
          "durationTicks": 160,
          "midi": 58,
          "name": "A#3",
          "ticks": 365040,
          "time": 294.386508,
          "velocity": 0.5511811023622047
        },
        {
          "duration": 0.12903199999999515,
          "durationTicks": 160,
          "midi": 55,
          "name": "G3",
          "ticks": 365280,
          "time": 294.580056,
          "velocity": 0.5511811023622047
        },
        {
          "duration": 0.129032000000052,
          "durationTicks": 160,
          "midi": 51,
          "name": "D#3",
          "ticks": 365520,
          "time": 294.773604,
          "velocity": 0.5511811023622047
        },
        {
          "duration": 0.12903199999999515,
          "durationTicks": 160,
          "midi": 56,
          "name": "G#3",
          "ticks": 365760,
          "time": 294.967152,
          "velocity": 0.5511811023622047
        },
        {
          "duration": 0.12903199999999515,
          "durationTicks": 160,
          "midi": 53,
          "name": "F3",
          "ticks": 366000,
          "time": 295.1607,
          "velocity": 0.5511811023622047
        },
        {
          "duration": 0.129032000000052,
          "durationTicks": 160,
          "midi": 50,
          "name": "D3",
          "ticks": 366240,
          "time": 295.354248,
          "velocity": 0.5511811023622047
        },
        {
          "duration": 0.12903199999999515,
          "durationTicks": 160,
          "midi": 62,
          "name": "D4",
          "ticks": 366480,
          "time": 295.547796,
          "velocity": 0.5511811023622047
        },
        {
          "duration": 0.129032000000052,
          "durationTicks": 160,
          "midi": 63,
          "name": "D#4",
          "ticks": 366720,
          "time": 295.74134399999997,
          "velocity": 0.5511811023622047
        },
        {
          "duration": 0.19354800000002115,
          "durationTicks": 240,
          "midi": 59,
          "name": "B3",
          "ticks": 366960,
          "time": 295.934892,
          "velocity": 0.7086614173228346
        },
        {
          "duration": 0.1935479999999643,
          "durationTicks": 240,
          "midi": 60,
          "name": "C4",
          "ticks": 367200,
          "time": 296.12844,
          "velocity": 0.7086614173228346
        },
        {
          "duration": 0.19354800000002115,
          "durationTicks": 240,
          "midi": 56,
          "name": "G#3",
          "ticks": 367440,
          "time": 296.321988,
          "velocity": 0.7086614173228346
        },
        {
          "duration": 0.12903199999999515,
          "durationTicks": 160,
          "midi": 58,
          "name": "A#3",
          "ticks": 367680,
          "time": 296.515536,
          "velocity": 0.7086614173228346
        },
        {
          "duration": 0.129032000000052,
          "durationTicks": 160,
          "midi": 46,
          "name": "A#2",
          "ticks": 368160,
          "time": 296.902632,
          "velocity": 0.7086614173228346
        },
        {
          "duration": 0.129032000000052,
          "durationTicks": 160,
          "midi": 51,
          "name": "D#3",
          "ticks": 368640,
          "time": 297.28972799999997,
          "velocity": 0.7086614173228346
        },
        {
          "duration": 0.12903199999999515,
          "durationTicks": 160,
          "midi": 55,
          "name": "G3",
          "ticks": 368880,
          "time": 297.483276,
          "velocity": 0.7086614173228346
        },
        {
          "duration": 0.12903199999999515,
          "durationTicks": 160,
          "midi": 58,
          "name": "A#3",
          "ticks": 369120,
          "time": 297.676824,
          "velocity": 0.7086614173228346
        },
        {
          "duration": 0.129032000000052,
          "durationTicks": 160,
          "midi": 55,
          "name": "G3",
          "ticks": 369360,
          "time": 297.870372,
          "velocity": 0.7086614173228346
        },
        {
          "duration": 0.12903199999999515,
          "durationTicks": 160,
          "midi": 51,
          "name": "D#3",
          "ticks": 369600,
          "time": 298.06392,
          "velocity": 0.7086614173228346
        },
        {
          "duration": 0.12903199999999515,
          "durationTicks": 160,
          "midi": 58,
          "name": "A#3",
          "ticks": 401280,
          "time": 323.612256,
          "velocity": 0.31496062992125984
        },
        {
          "duration": 0.12903199999999515,
          "durationTicks": 160,
          "midi": 58,
          "name": "A#3",
          "ticks": 401520,
          "time": 323.805804,
          "velocity": 0.31496062992125984
        },
        {
          "duration": 0.12903199999999515,
          "durationTicks": 160,
          "midi": 58,
          "name": "A#3",
          "ticks": 401760,
          "time": 323.999352,
          "velocity": 0.31496062992125984
        },
        {
          "duration": 0.12903199999999515,
          "durationTicks": 160,
          "midi": 58,
          "name": "A#3",
          "ticks": 402000,
          "time": 324.1929,
          "velocity": 0.31496062992125984
        },
        {
          "duration": 0.129032000000052,
          "durationTicks": 160,
          "midi": 58,
          "name": "A#3",
          "ticks": 402240,
          "time": 324.386448,
          "velocity": 0.31496062992125984
        },
        {
          "duration": 0.12903199999999515,
          "durationTicks": 160,
          "midi": 58,
          "name": "A#3",
          "ticks": 402480,
          "time": 324.579996,
          "velocity": 0.31496062992125984
        },
        {
          "duration": 0.12903199999999515,
          "durationTicks": 160,
          "midi": 58,
          "name": "A#3",
          "ticks": 402720,
          "time": 324.773544,
          "velocity": 0.31496062992125984
        },
        {
          "duration": 0.129032000000052,
          "durationTicks": 160,
          "midi": 58,
          "name": "A#3",
          "ticks": 402960,
          "time": 324.967092,
          "velocity": 0.31496062992125984
        },
        {
          "duration": 0.12903199999999515,
          "durationTicks": 160,
          "midi": 58,
          "name": "A#3",
          "ticks": 403200,
          "time": 325.16064,
          "velocity": 0.31496062992125984
        },
        {
          "duration": 0.12903199999999515,
          "durationTicks": 160,
          "midi": 58,
          "name": "A#3",
          "ticks": 403440,
          "time": 325.354188,
          "velocity": 0.31496062992125984
        },
        {
          "duration": 0.129032000000052,
          "durationTicks": 160,
          "midi": 58,
          "name": "A#3",
          "ticks": 403680,
          "time": 325.547736,
          "velocity": 0.31496062992125984
        },
        {
          "duration": 0.12903199999999515,
          "durationTicks": 160,
          "midi": 58,
          "name": "A#3",
          "ticks": 403920,
          "time": 325.741284,
          "velocity": 0.31496062992125984
        },
        {
          "duration": 0.129032000000052,
          "durationTicks": 160,
          "midi": 58,
          "name": "A#3",
          "ticks": 404160,
          "time": 325.934832,
          "velocity": 0.31496062992125984
        },
        {
          "duration": 0.12903199999999515,
          "durationTicks": 160,
          "midi": 58,
          "name": "A#3",
          "ticks": 405120,
          "time": 326.709024,
          "velocity": 0.31496062992125984
        },
        {
          "duration": 0.12903199999999515,
          "durationTicks": 160,
          "midi": 58,
          "name": "A#3",
          "ticks": 405360,
          "time": 326.902572,
          "velocity": 0.31496062992125984
        },
        {
          "duration": 0.129032000000052,
          "durationTicks": 160,
          "midi": 58,
          "name": "A#3",
          "ticks": 405600,
          "time": 327.09612,
          "velocity": 0.31496062992125984
        },
        {
          "duration": 0.12903199999999515,
          "durationTicks": 160,
          "midi": 58,
          "name": "A#3",
          "ticks": 405840,
          "time": 327.289668,
          "velocity": 0.31496062992125984
        },
        {
          "duration": 0.129032000000052,
          "durationTicks": 160,
          "midi": 58,
          "name": "A#3",
          "ticks": 406080,
          "time": 327.48321599999997,
          "velocity": 0.31496062992125984
        },
        {
          "duration": 0.12903199999999515,
          "durationTicks": 160,
          "midi": 58,
          "name": "A#3",
          "ticks": 406320,
          "time": 327.676764,
          "velocity": 0.31496062992125984
        },
        {
          "duration": 0.12903199999999515,
          "durationTicks": 160,
          "midi": 58,
          "name": "A#3",
          "ticks": 406560,
          "time": 327.870312,
          "velocity": 0.31496062992125984
        },
        {
          "duration": 0.129032000000052,
          "durationTicks": 160,
          "midi": 58,
          "name": "A#3",
          "ticks": 406800,
          "time": 328.06386,
          "velocity": 0.31496062992125984
        },
        {
          "duration": 0.12903199999999515,
          "durationTicks": 160,
          "midi": 58,
          "name": "A#3",
          "ticks": 407040,
          "time": 328.257408,
          "velocity": 0.31496062992125984
        },
        {
          "duration": 0.12903199999999515,
          "durationTicks": 160,
          "midi": 58,
          "name": "A#3",
          "ticks": 407280,
          "time": 328.450956,
          "velocity": 0.31496062992125984
        },
        {
          "duration": 0.129032000000052,
          "durationTicks": 160,
          "midi": 58,
          "name": "A#3",
          "ticks": 407520,
          "time": 328.644504,
          "velocity": 0.31496062992125984
        },
        {
          "duration": 0.12903199999999515,
          "durationTicks": 160,
          "midi": 58,
          "name": "A#3",
          "ticks": 407760,
          "time": 328.838052,
          "velocity": 0.31496062992125984
        },
        {
          "duration": 0.129032000000052,
          "durationTicks": 160,
          "midi": 58,
          "name": "A#3",
          "ticks": 408000,
          "time": 329.03159999999997,
          "velocity": 0.31496062992125984
        },
        {
          "duration": 0.129032000000052,
          "durationTicks": 160,
          "midi": 55,
          "name": "G3",
          "ticks": 409440,
          "time": 330.192888,
          "velocity": 0.5511811023622047
        },
        {
          "duration": 0.12903199999999515,
          "durationTicks": 160,
          "midi": 51,
          "name": "D#3",
          "ticks": 409680,
          "time": 330.386436,
          "velocity": 0.5511811023622047
        },
        {
          "duration": 0.12903199999999515,
          "durationTicks": 160,
          "midi": 56,
          "name": "G#3",
          "ticks": 409920,
          "time": 330.579984,
          "velocity": 0.5511811023622047
        },
        {
          "duration": 0.12903199999999515,
          "durationTicks": 160,
          "midi": 53,
          "name": "F3",
          "ticks": 410160,
          "time": 330.773532,
          "velocity": 0.5511811023622047
        },
        {
          "duration": 0.12903199999999515,
          "durationTicks": 160,
          "midi": 50,
          "name": "D3",
          "ticks": 410400,
          "time": 330.96708,
          "velocity": 0.5511811023622047
        },
        {
          "duration": 0.129032000000052,
          "durationTicks": 160,
          "midi": 62,
          "name": "D4",
          "ticks": 410640,
          "time": 331.160628,
          "velocity": 0.5511811023622047
        },
        {
          "duration": 0.12903199999999515,
          "durationTicks": 160,
          "midi": 63,
          "name": "D#4",
          "ticks": 410880,
          "time": 331.354176,
          "velocity": 0.5511811023622047
        },
        {
          "duration": 0.12903199999999515,
          "durationTicks": 160,
          "midi": 58,
          "name": "A#3",
          "ticks": 411120,
          "time": 331.547724,
          "velocity": 0.5511811023622047
        },
        {
          "duration": 0.129032000000052,
          "durationTicks": 160,
          "midi": 55,
          "name": "G3",
          "ticks": 411360,
          "time": 331.741272,
          "velocity": 0.5511811023622047
        },
        {
          "duration": 0.12903199999999515,
          "durationTicks": 160,
          "midi": 51,
          "name": "D#3",
          "ticks": 411600,
          "time": 331.93482,
          "velocity": 0.5511811023622047
        },
        {
          "duration": 0.12903199999999515,
          "durationTicks": 160,
          "midi": 56,
          "name": "G#3",
          "ticks": 411840,
          "time": 332.128368,
          "velocity": 0.5511811023622047
        },
        {
          "duration": 0.12903199999999515,
          "durationTicks": 160,
          "midi": 53,
          "name": "F3",
          "ticks": 412080,
          "time": 332.321916,
          "velocity": 0.5511811023622047
        },
        {
          "duration": 0.12903199999999515,
          "durationTicks": 160,
          "midi": 50,
          "name": "D3",
          "ticks": 412320,
          "time": 332.515464,
          "velocity": 0.5511811023622047
        },
        {
          "duration": 0.129032000000052,
          "durationTicks": 160,
          "midi": 62,
          "name": "D4",
          "ticks": 412560,
          "time": 332.709012,
          "velocity": 0.5511811023622047
        },
        {
          "duration": 0.12903199999999515,
          "durationTicks": 160,
          "midi": 63,
          "name": "D#4",
          "ticks": 412800,
          "time": 332.90256,
          "velocity": 0.5511811023622047
        },
        {
          "duration": 0.1935479999999643,
          "durationTicks": 240,
          "midi": 59,
          "name": "B3",
          "ticks": 413040,
          "time": 333.096108,
          "velocity": 0.7086614173228346
        },
        {
          "duration": 0.19354800000002115,
          "durationTicks": 240,
          "midi": 60,
          "name": "C4",
          "ticks": 413280,
          "time": 333.289656,
          "velocity": 0.7086614173228346
        },
        {
          "duration": 0.19354800000002115,
          "durationTicks": 240,
          "midi": 56,
          "name": "G#3",
          "ticks": 413520,
          "time": 333.483204,
          "velocity": 0.7086614173228346
        },
        {
          "duration": 0.12903199999999515,
          "durationTicks": 160,
          "midi": 58,
          "name": "A#3",
          "ticks": 413760,
          "time": 333.676752,
          "velocity": 0.7086614173228346
        },
        {
          "duration": 0.12903199999999515,
          "durationTicks": 160,
          "midi": 46,
          "name": "A#2",
          "ticks": 414240,
          "time": 334.063848,
          "velocity": 0.7086614173228346
        },
        {
          "duration": 0.12903199999999515,
          "durationTicks": 160,
          "midi": 51,
          "name": "D#3",
          "ticks": 414720,
          "time": 334.450944,
          "velocity": 0.7086614173228346
        },
        {
          "duration": 0.129032000000052,
          "durationTicks": 160,
          "midi": 51,
          "name": "D#3",
          "ticks": 415200,
          "time": 334.83804,
          "velocity": 0.7086614173228346
        },
        {
          "duration": 0.12903199999999515,
          "durationTicks": 160,
          "midi": 51,
          "name": "D#3",
          "ticks": 415680,
          "time": 335.225136,
          "velocity": 0.7086614173228346
        },
        {
          "duration": 0.6129020000000196,
          "durationTicks": 760,
          "midi": 51,
          "name": "D#3",
          "ticks": 416640,
          "time": 335.999328,
          "velocity": 0.31496062992125984
        },
        {
          "duration": 0.3225800000000163,
          "durationTicks": 400,
          "midi": 51,
          "name": "D#3",
          "ticks": 418080,
          "time": 337.160616,
          "velocity": 0.31496062992125984
        },
        {
          "duration": 0.6129020000000196,
          "durationTicks": 760,
          "midi": 58,
          "name": "A#3",
          "ticks": 418560,
          "time": 337.547712,
          "velocity": 0.31496062992125984
        },
        {
          "duration": 0.3225800000000163,
          "durationTicks": 400,
          "midi": 46,
          "name": "A#2",
          "ticks": 420000,
          "time": 338.709,
          "velocity": 0.31496062992125984
        },
        {
          "duration": 0.6129020000000196,
          "durationTicks": 760,
          "midi": 48,
          "name": "C3",
          "ticks": 420480,
          "time": 339.096096,
          "velocity": 0.31496062992125984
        },
        {
          "duration": 0.38709599999998545,
          "durationTicks": 480,
          "midi": 53,
          "name": "F3",
          "ticks": 421920,
          "time": 340.257384,
          "velocity": 0.31496062992125984
        },
        {
          "duration": 0.6129020000000196,
          "durationTicks": 760,
          "midi": 46,
          "name": "A#2",
          "ticks": 422400,
          "time": 340.64448,
          "velocity": 0.31496062992125984
        },
        {
          "duration": 0.7741920000000277,
          "durationTicks": 960,
          "midi": 52,
          "name": "E3",
          "ticks": 424320,
          "time": 342.192864,
          "velocity": 0.31496062992125984
        },
        {
          "duration": 0.1370964999999842,
          "durationTicks": 170,
          "midi": 53,
          "name": "F3",
          "ticks": 425280,
          "time": 342.967056,
          "velocity": 0.31496062992125984
        },
        {
          "duration": 0.7741920000000277,
          "durationTicks": 960,
          "midi": 50,
          "name": "D3",
          "ticks": 426240,
          "time": 343.741248,
          "velocity": 0.31496062992125984
        },
        {
          "duration": 0.1370964999999842,
          "durationTicks": 170,
          "midi": 51,
          "name": "D#3",
          "ticks": 427200,
          "time": 344.51544,
          "velocity": 0.31496062992125984
        },
        {
          "duration": 0.129032000000052,
          "durationTicks": 160,
          "midi": 56,
          "name": "G#3",
          "ticks": 428160,
          "time": 345.289632,
          "velocity": 0.31496062992125984
        },
        {
          "duration": 0.12903199999999515,
          "durationTicks": 160,
          "midi": 58,
          "name": "A#3",
          "ticks": 429120,
          "time": 346.063824,
          "velocity": 0.31496062992125984
        },
        {
          "duration": 0.129032000000052,
          "durationTicks": 160,
          "midi": 51,
          "name": "D#3",
          "ticks": 430080,
          "time": 346.838016,
          "velocity": 0.31496062992125984
        },
        {
          "duration": 0.19354800000002115,
          "durationTicks": 240,
          "midi": 63,
          "name": "D#4",
          "ticks": 431280,
          "time": 347.805756,
          "velocity": 0.31496062992125984
        },
        {
          "duration": 0.19354800000002115,
          "durationTicks": 240,
          "midi": 59,
          "name": "B3",
          "ticks": 431520,
          "time": 347.999304,
          "velocity": 0.31496062992125984
        },
        {
          "duration": 0.1935479999999643,
          "durationTicks": 240,
          "midi": 60,
          "name": "C4",
          "ticks": 431760,
          "time": 348.192852,
          "velocity": 0.31496062992125984
        },
        {
          "duration": 0.129032000000052,
          "durationTicks": 160,
          "midi": 55,
          "name": "G3",
          "ticks": 432000,
          "time": 348.3864,
          "velocity": 0.31496062992125984
        },
        {
          "duration": 0.38709599999998545,
          "durationTicks": 480,
          "midi": 51,
          "name": "D#3",
          "ticks": 435360,
          "time": 351.096072,
          "velocity": 0.31496062992125984
        },
        {
          "duration": 0.129032000000052,
          "durationTicks": 160,
          "midi": 53,
          "name": "F3",
          "ticks": 435840,
          "time": 351.483168,
          "velocity": 0.31496062992125984
        },
        {
          "duration": 0.7741920000000277,
          "durationTicks": 960,
          "midi": 52,
          "name": "E3",
          "ticks": 439680,
          "time": 354.579936,
          "velocity": 0.31496062992125984
        },
        {
          "duration": 0.1370964999999842,
          "durationTicks": 170,
          "midi": 53,
          "name": "F3",
          "ticks": 440640,
          "time": 355.354128,
          "velocity": 0.31496062992125984
        },
        {
          "duration": 0.7741920000000277,
          "durationTicks": 960,
          "midi": 50,
          "name": "D3",
          "ticks": 441600,
          "time": 356.12832,
          "velocity": 0.31496062992125984
        },
        {
          "duration": 0.1370964999999842,
          "durationTicks": 170,
          "midi": 51,
          "name": "D#3",
          "ticks": 442560,
          "time": 356.902512,
          "velocity": 0.31496062992125984
        },
        {
          "duration": 0.129032000000052,
          "durationTicks": 160,
          "midi": 56,
          "name": "G#3",
          "ticks": 443520,
          "time": 357.676704,
          "velocity": 0.31496062992125984
        },
        {
          "duration": 0.12903199999999515,
          "durationTicks": 160,
          "midi": 58,
          "name": "A#3",
          "ticks": 444480,
          "time": 358.450896,
          "velocity": 0.31496062992125984
        },
        {
          "duration": 0.129032000000052,
          "durationTicks": 160,
          "midi": 51,
          "name": "D#3",
          "ticks": 445440,
          "time": 359.22508799999997,
          "velocity": 0.31496062992125984
        },
        {
          "duration": 0.129032000000052,
          "durationTicks": 160,
          "midi": 58,
          "name": "A#3",
          "ticks": 447360,
          "time": 360.77347199999997,
          "velocity": 0.31496062992125984
        },
        {
          "duration": 0.12903199999999515,
          "durationTicks": 160,
          "midi": 58,
          "name": "A#3",
          "ticks": 447600,
          "time": 360.96702,
          "velocity": 0.31496062992125984
        },
        {
          "duration": 0.12903199999999515,
          "durationTicks": 160,
          "midi": 58,
          "name": "A#3",
          "ticks": 447840,
          "time": 361.160568,
          "velocity": 0.31496062992125984
        },
        {
          "duration": 0.129032000000052,
          "durationTicks": 160,
          "midi": 58,
          "name": "A#3",
          "ticks": 448080,
          "time": 361.354116,
          "velocity": 0.31496062992125984
        },
        {
          "duration": 0.12903199999999515,
          "durationTicks": 160,
          "midi": 58,
          "name": "A#3",
          "ticks": 448320,
          "time": 361.547664,
          "velocity": 0.31496062992125984
        },
        {
          "duration": 0.12903199999999515,
          "durationTicks": 160,
          "midi": 58,
          "name": "A#3",
          "ticks": 448560,
          "time": 361.741212,
          "velocity": 0.31496062992125984
        },
        {
          "duration": 0.129032000000052,
          "durationTicks": 160,
          "midi": 58,
          "name": "A#3",
          "ticks": 448800,
          "time": 361.93476,
          "velocity": 0.31496062992125984
        },
        {
          "duration": 0.12903199999999515,
          "durationTicks": 160,
          "midi": 58,
          "name": "A#3",
          "ticks": 449040,
          "time": 362.128308,
          "velocity": 0.31496062992125984
        },
        {
          "duration": 0.129032000000052,
          "durationTicks": 160,
          "midi": 58,
          "name": "A#3",
          "ticks": 449280,
          "time": 362.32185599999997,
          "velocity": 0.31496062992125984
        },
        {
          "duration": 0.12903199999999515,
          "durationTicks": 160,
          "midi": 58,
          "name": "A#3",
          "ticks": 449520,
          "time": 362.515404,
          "velocity": 0.31496062992125984
        },
        {
          "duration": 0.12903199999999515,
          "durationTicks": 160,
          "midi": 58,
          "name": "A#3",
          "ticks": 449760,
          "time": 362.708952,
          "velocity": 0.31496062992125984
        },
        {
          "duration": 0.129032000000052,
          "durationTicks": 160,
          "midi": 58,
          "name": "A#3",
          "ticks": 450000,
          "time": 362.9025,
          "velocity": 0.31496062992125984
        },
        {
          "duration": 0.12903199999999515,
          "durationTicks": 160,
          "midi": 58,
          "name": "A#3",
          "ticks": 450240,
          "time": 363.096048,
          "velocity": 0.31496062992125984
        },
        {
          "duration": 0.12903199999999515,
          "durationTicks": 160,
          "midi": 58,
          "name": "A#3",
          "ticks": 451200,
          "time": 363.87024,
          "velocity": 0.31496062992125984
        },
        {
          "duration": 0.12903199999999515,
          "durationTicks": 160,
          "midi": 58,
          "name": "A#3",
          "ticks": 451440,
          "time": 364.063788,
          "velocity": 0.31496062992125984
        },
        {
          "duration": 0.12903199999999515,
          "durationTicks": 160,
          "midi": 58,
          "name": "A#3",
          "ticks": 451680,
          "time": 364.257336,
          "velocity": 0.31496062992125984
        },
        {
          "duration": 0.129032000000052,
          "durationTicks": 160,
          "midi": 58,
          "name": "A#3",
          "ticks": 451920,
          "time": 364.450884,
          "velocity": 0.31496062992125984
        },
        {
          "duration": 0.12903199999999515,
          "durationTicks": 160,
          "midi": 58,
          "name": "A#3",
          "ticks": 452160,
          "time": 364.644432,
          "velocity": 0.31496062992125984
        },
        {
          "duration": 0.12903199999999515,
          "durationTicks": 160,
          "midi": 58,
          "name": "A#3",
          "ticks": 452400,
          "time": 364.83798,
          "velocity": 0.31496062992125984
        },
        {
          "duration": 0.129032000000052,
          "durationTicks": 160,
          "midi": 58,
          "name": "A#3",
          "ticks": 452640,
          "time": 365.031528,
          "velocity": 0.31496062992125984
        },
        {
          "duration": 0.12903199999999515,
          "durationTicks": 160,
          "midi": 58,
          "name": "A#3",
          "ticks": 452880,
          "time": 365.225076,
          "velocity": 0.31496062992125984
        },
        {
          "duration": 0.12903199999999515,
          "durationTicks": 160,
          "midi": 58,
          "name": "A#3",
          "ticks": 453120,
          "time": 365.418624,
          "velocity": 0.31496062992125984
        },
        {
          "duration": 0.129032000000052,
          "durationTicks": 160,
          "midi": 58,
          "name": "A#3",
          "ticks": 453360,
          "time": 365.612172,
          "velocity": 0.31496062992125984
        },
        {
          "duration": 0.12903199999999515,
          "durationTicks": 160,
          "midi": 58,
          "name": "A#3",
          "ticks": 453600,
          "time": 365.80572,
          "velocity": 0.31496062992125984
        },
        {
          "duration": 0.129032000000052,
          "durationTicks": 160,
          "midi": 58,
          "name": "A#3",
          "ticks": 453840,
          "time": 365.999268,
          "velocity": 0.31496062992125984
        },
        {
          "duration": 0.12903199999999515,
          "durationTicks": 160,
          "midi": 58,
          "name": "A#3",
          "ticks": 454080,
          "time": 366.192816,
          "velocity": 0.31496062992125984
        },
        {
          "duration": 0.12903199999999515,
          "durationTicks": 160,
          "midi": 55,
          "name": "G3",
          "ticks": 455520,
          "time": 367.354104,
          "velocity": 0.5511811023622047
        },
        {
          "duration": 0.129032000000052,
          "durationTicks": 160,
          "midi": 51,
          "name": "D#3",
          "ticks": 455760,
          "time": 367.54765199999997,
          "velocity": 0.5511811023622047
        },
        {
          "duration": 0.12903199999999515,
          "durationTicks": 160,
          "midi": 56,
          "name": "G#3",
          "ticks": 456000,
          "time": 367.7412,
          "velocity": 0.5511811023622047
        },
        {
          "duration": 0.12903199999999515,
          "durationTicks": 160,
          "midi": 53,
          "name": "F3",
          "ticks": 456240,
          "time": 367.934748,
          "velocity": 0.5511811023622047
        },
        {
          "duration": 0.129032000000052,
          "durationTicks": 160,
          "midi": 50,
          "name": "D3",
          "ticks": 456480,
          "time": 368.128296,
          "velocity": 0.5511811023622047
        },
        {
          "duration": 0.12903199999999515,
          "durationTicks": 160,
          "midi": 62,
          "name": "D4",
          "ticks": 456720,
          "time": 368.321844,
          "velocity": 0.5511811023622047
        },
        {
          "duration": 0.12903199999999515,
          "durationTicks": 160,
          "midi": 63,
          "name": "D#4",
          "ticks": 456960,
          "time": 368.515392,
          "velocity": 0.5511811023622047
        },
        {
          "duration": 0.129032000000052,
          "durationTicks": 160,
          "midi": 58,
          "name": "A#3",
          "ticks": 457200,
          "time": 368.70894,
          "velocity": 0.5511811023622047
        },
        {
          "duration": 0.12903199999999515,
          "durationTicks": 160,
          "midi": 55,
          "name": "G3",
          "ticks": 457440,
          "time": 368.902488,
          "velocity": 0.5511811023622047
        },
        {
          "duration": 0.129032000000052,
          "durationTicks": 160,
          "midi": 51,
          "name": "D#3",
          "ticks": 457680,
          "time": 369.09603599999997,
          "velocity": 0.5511811023622047
        },
        {
          "duration": 0.12903199999999515,
          "durationTicks": 160,
          "midi": 56,
          "name": "G#3",
          "ticks": 457920,
          "time": 369.289584,
          "velocity": 0.5511811023622047
        },
        {
          "duration": 0.12903199999999515,
          "durationTicks": 160,
          "midi": 53,
          "name": "F3",
          "ticks": 458160,
          "time": 369.483132,
          "velocity": 0.5511811023622047
        },
        {
          "duration": 0.129032000000052,
          "durationTicks": 160,
          "midi": 50,
          "name": "D3",
          "ticks": 458400,
          "time": 369.67668,
          "velocity": 0.5511811023622047
        },
        {
          "duration": 0.12903199999999515,
          "durationTicks": 160,
          "midi": 62,
          "name": "D4",
          "ticks": 458640,
          "time": 369.870228,
          "velocity": 0.5511811023622047
        },
        {
          "duration": 0.12903199999999515,
          "durationTicks": 160,
          "midi": 63,
          "name": "D#4",
          "ticks": 458880,
          "time": 370.063776,
          "velocity": 0.5511811023622047
        },
        {
          "duration": 0.19354800000002115,
          "durationTicks": 240,
          "midi": 59,
          "name": "B3",
          "ticks": 459120,
          "time": 370.257324,
          "velocity": 0.7086614173228346
        },
        {
          "duration": 0.1935479999999643,
          "durationTicks": 240,
          "midi": 60,
          "name": "C4",
          "ticks": 459360,
          "time": 370.450872,
          "velocity": 0.7086614173228346
        },
        {
          "duration": 0.19354800000002115,
          "durationTicks": 240,
          "midi": 56,
          "name": "G#3",
          "ticks": 459600,
          "time": 370.64441999999997,
          "velocity": 0.7086614173228346
        },
        {
          "duration": 0.12903199999999515,
          "durationTicks": 160,
          "midi": 58,
          "name": "A#3",
          "ticks": 459840,
          "time": 370.837968,
          "velocity": 0.7086614173228346
        },
        {
          "duration": 0.12903199999999515,
          "durationTicks": 160,
          "midi": 58,
          "name": "A#3",
          "ticks": 460080,
          "time": 371.031516,
          "velocity": 0.7086614173228346
        },
        {
          "duration": 0.129032000000052,
          "durationTicks": 160,
          "midi": 46,
          "name": "A#2",
          "ticks": 460320,
          "time": 371.225064,
          "velocity": 0.7086614173228346
        },
        {
          "duration": 0.12903199999999515,
          "durationTicks": 160,
          "midi": 46,
          "name": "A#2",
          "ticks": 460560,
          "time": 371.418612,
          "velocity": 0.7086614173228346
        },
        {
          "duration": 0.12903199999999515,
          "durationTicks": 160,
          "midi": 51,
          "name": "D#3",
          "ticks": 460800,
          "time": 371.61216,
          "velocity": 0.31496062992125984
        },
        {
          "duration": 0.129032000000052,
          "durationTicks": 160,
          "midi": 51,
          "name": "D#3",
          "ticks": 461040,
          "time": 371.805708,
          "velocity": 0.31496062992125984
        },
        {
          "duration": 0.12903199999999515,
          "durationTicks": 160,
          "midi": 51,
          "name": "D#3",
          "ticks": 461280,
          "time": 371.999256,
          "velocity": 0.31496062992125984
        },
        {
          "duration": 0.12903199999999515,
          "durationTicks": 160,
          "midi": 51,
          "name": "D#3",
          "ticks": 461520,
          "time": 372.192804,
          "velocity": 0.31496062992125984
        },
        {
          "duration": 0.12903199999999515,
          "durationTicks": 160,
          "midi": 51,
          "name": "D#3",
          "ticks": 461760,
          "time": 372.386352,
          "velocity": 0.7086614173228346
        },
        {
          "duration": 0.12903199999999515,
          "durationTicks": 160,
          "midi": 48,
          "name": "C3",
          "ticks": 485760,
          "time": 391.741152,
          "velocity": 0.31496062992125984
        },
        {
          "duration": 0.129032000000052,
          "durationTicks": 160,
          "midi": 53,
          "name": "F3",
          "ticks": 486720,
          "time": 392.51534399999997,
          "velocity": 0.31496062992125984
        },
        {
          "duration": 0.12903199999999515,
          "durationTicks": 160,
          "midi": 46,
          "name": "A#2",
          "ticks": 487680,
          "time": 393.289536,
          "velocity": 0.31496062992125984
        },
        {
          "duration": 0.129032000000052,
          "durationTicks": 160,
          "midi": 51,
          "name": "D#3",
          "ticks": 488640,
          "time": 394.06372799999997,
          "velocity": 0.31496062992125984
        },
        {
          "duration": 0.12903199999999515,
          "durationTicks": 160,
          "midi": 44,
          "name": "G#2",
          "ticks": 489600,
          "time": 394.83792,
          "velocity": 0.31496062992125984
        },
        {
          "duration": 0.129032000000052,
          "durationTicks": 160,
          "midi": 46,
          "name": "A#2",
          "ticks": 490560,
          "time": 395.61211199999997,
          "velocity": 0.31496062992125984
        },
        {
          "duration": 4,
          "durationTicks": 1920,
          "midi": 48,
          "name": "C3",
          "ticks": 491520,
          "time": 396.386304,
          "velocity": 0.31496062992125984
        },
        {
          "duration": 3.9583333333333144,
          "durationTicks": 1900,
          "midi": 46,
          "name": "A#2",
          "ticks": 493440,
          "time": 400.386304,
          "velocity": 0.31496062992125984
        },
        {
          "duration": 3.9916666666666742,
          "durationTicks": 1916,
          "midi": 48,
          "name": "C3",
          "ticks": 495360,
          "time": 404.386304,
          "velocity": 0.31496062992125984
        },
        {
          "duration": 0.9916666666666742,
          "durationTicks": 476,
          "midi": 46,
          "name": "A#2",
          "ticks": 497280,
          "time": 408.386304,
          "velocity": 0.31496062992125984
        },
        {
          "duration": 0.16666666666668561,
          "durationTicks": 80,
          "midi": 46,
          "name": "A#2",
          "ticks": 498120,
          "time": 410.136304,
          "velocity": 0.5905511811023622
        },
        {
          "duration": 0.4583333333333144,
          "durationTicks": 220,
          "midi": 46,
          "name": "A#2",
          "ticks": 498240,
          "time": 410.386304,
          "velocity": 0.5905511811023622
        },
        {
          "duration": 0.16666666666668561,
          "durationTicks": 80,
          "midi": 46,
          "name": "A#2",
          "ticks": 498600,
          "time": 411.136304,
          "velocity": 0.5905511811023622
        },
        {
          "duration": 0.4583333333333144,
          "durationTicks": 220,
          "midi": 47,
          "name": "B2",
          "ticks": 498720,
          "time": 411.386304,
          "velocity": 0.5905511811023622
        },
        {
          "duration": 0.16666666666668561,
          "durationTicks": 80,
          "midi": 47,
          "name": "B2",
          "ticks": 499080,
          "time": 412.136304,
          "velocity": 0.5905511811023622
        },
        {
          "duration": 0.9916666666666742,
          "durationTicks": 476,
          "midi": 46,
          "name": "A#2",
          "ticks": 499200,
          "time": 412.386304,
          "velocity": 0.5905511811023622
        },
        {
          "duration": 0.16666666666668561,
          "durationTicks": 80,
          "midi": 46,
          "name": "A#2",
          "ticks": 500040,
          "time": 414.136304,
          "velocity": 0.5905511811023622
        },
        {
          "duration": 0.4583333333333144,
          "durationTicks": 220,
          "midi": 46,
          "name": "A#2",
          "ticks": 500160,
          "time": 414.386304,
          "velocity": 0.5905511811023622
        },
        {
          "duration": 0.16666666666668561,
          "durationTicks": 80,
          "midi": 46,
          "name": "A#2",
          "ticks": 500520,
          "time": 415.136304,
          "velocity": 0.5905511811023622
        },
        {
          "duration": 0.4583333333333144,
          "durationTicks": 220,
          "midi": 47,
          "name": "B2",
          "ticks": 500640,
          "time": 415.386304,
          "velocity": 0.5905511811023622
        },
        {
          "duration": 0.16666666666668561,
          "durationTicks": 80,
          "midi": 47,
          "name": "B2",
          "ticks": 501000,
          "time": 416.136304,
          "velocity": 0.5905511811023622
        },
        {
          "duration": 1.6041666666666856,
          "durationTicks": 770,
          "midi": 46,
          "name": "A#2",
          "ticks": 501120,
          "time": 416.386304,
          "velocity": 0.5905511811023622
        },
        {
          "duration": 1.9916666666666742,
          "durationTicks": 956,
          "midi": 46,
          "name": "A#2",
          "ticks": 502080,
          "time": 418.386304,
          "velocity": 0.5905511811023622
        },
        {
          "duration": 0.4958333333333371,
          "durationTicks": 476,
          "midi": 51,
          "name": "D#3",
          "ticks": 504480,
          "time": 423.0946373333334,
          "velocity": 0.31496062992125984
        },
        {
          "duration": 0.4958333333333371,
          "durationTicks": 476,
          "midi": 50,
          "name": "D3",
          "ticks": 505920,
          "time": 424.5946373333334,
          "velocity": 0.31496062992125984
        },
        {
          "duration": 0.4270833333333144,
          "durationTicks": 410,
          "midi": 51,
          "name": "D#3",
          "ticks": 507360,
          "time": 426.0946373333334,
          "velocity": 0.31496062992125984
        },
        {
          "duration": 0.4270833333333144,
          "durationTicks": 410,
          "midi": 44,
          "name": "G#2",
          "ticks": 508080,
          "time": 426.8446373333334,
          "velocity": 0.31496062992125984
        },
        {
          "duration": 0.4270833333333144,
          "durationTicks": 410,
          "midi": 46,
          "name": "A#2",
          "ticks": 508800,
          "time": 427.5946373333334,
          "velocity": 0.31496062992125984
        },
        {
          "duration": 0.703125,
          "durationTicks": 675,
          "midi": 58,
          "name": "A#3",
          "ticks": 510240,
          "time": 429.0946373333334,
          "velocity": 0.31496062992125984
        },
        {
          "duration": 1.203125,
          "durationTicks": 1155,
          "midi": 56,
          "name": "G#3",
          "ticks": 510960,
          "time": 429.8446373333334,
          "velocity": 0.31496062992125984
        },
        {
          "duration": 0.703125,
          "durationTicks": 675,
          "midi": 55,
          "name": "G3",
          "ticks": 512400,
          "time": 431.3446373333334,
          "velocity": 0.31496062992125984
        },
        {
          "duration": 0.47916666666662877,
          "durationTicks": 460,
          "midi": 56,
          "name": "G#3",
          "ticks": 513120,
          "time": 432.0946373333334,
          "velocity": 0.31496062992125984
        },
        {
          "duration": 0.47916666666662877,
          "durationTicks": 460,
          "midi": 58,
          "name": "A#3",
          "ticks": 513840,
          "time": 432.8446373333334,
          "velocity": 0.31496062992125984
        },
        {
          "duration": 0.16666666666662877,
          "durationTicks": 160,
          "midi": 51,
          "name": "D#3",
          "ticks": 514560,
          "time": 433.5946373333334,
          "velocity": 0.5511811023622047
        },
        {
          "duration": 0.16666666666662877,
          "durationTicks": 160,
          "midi": 55,
          "name": "G3",
          "ticks": 514800,
          "time": 433.8446373333334,
          "velocity": 0.5511811023622047
        },
        {
          "duration": 0.16666666666662877,
          "durationTicks": 160,
          "midi": 58,
          "name": "A#3",
          "ticks": 515040,
          "time": 434.0946373333334,
          "velocity": 0.5511811023622047
        },
        {
          "duration": 0.41666666666662877,
          "durationTicks": 400,
          "midi": 63,
          "name": "D#4",
          "ticks": 515280,
          "time": 434.3446373333334,
          "velocity": 0.5511811023622047
        },
        {
          "duration": 0.3020833333333144,
          "durationTicks": 290,
          "midi": 55,
          "name": "G3",
          "ticks": 516000,
          "time": 435.0946373333334,
          "velocity": 0.31496062992125984
        },
        {
          "duration": 0.3020833333333144,
          "durationTicks": 290,
          "midi": 55,
          "name": "G3",
          "ticks": 516720,
          "time": 435.8446373333334,
          "velocity": 0.31496062992125984
        },
        {
          "duration": 0.17708333333331439,
          "durationTicks": 170,
          "midi": 48,
          "name": "C3",
          "ticks": 517440,
          "time": 436.5946373333334,
          "velocity": 0.31496062992125984
        },
        {
          "duration": 0.17708333333331439,
          "durationTicks": 170,
          "midi": 51,
          "name": "D#3",
          "ticks": 517680,
          "time": 436.8446373333334,
          "velocity": 0.31496062992125984
        },
        {
          "duration": 0.17708333333331439,
          "durationTicks": 170,
          "midi": 55,
          "name": "G3",
          "ticks": 517920,
          "time": 437.0946373333334,
          "velocity": 0.31496062992125984
        },
        {
          "duration": 0.17708333333331439,
          "durationTicks": 170,
          "midi": 60,
          "name": "C4",
          "ticks": 518160,
          "time": 437.3446373333334,
          "velocity": 0.31496062992125984
        },
        {
          "duration": 0.3020833333333144,
          "durationTicks": 290,
          "midi": 53,
          "name": "F3",
          "ticks": 518880,
          "time": 438.0946373333334,
          "velocity": 0.31496062992125984
        },
        {
          "duration": 0.3020833333333144,
          "durationTicks": 290,
          "midi": 53,
          "name": "F3",
          "ticks": 519600,
          "time": 438.8446373333334,
          "velocity": 0.31496062992125984
        },
        {
          "duration": 0.17708333333331439,
          "durationTicks": 170,
          "midi": 46,
          "name": "A#2",
          "ticks": 520320,
          "time": 439.5946373333334,
          "velocity": 0.31496062992125984
        },
        {
          "duration": 0.17708333333331439,
          "durationTicks": 170,
          "midi": 50,
          "name": "D3",
          "ticks": 520560,
          "time": 439.8446373333334,
          "velocity": 0.31496062992125984
        },
        {
          "duration": 0.17708333333331439,
          "durationTicks": 170,
          "midi": 53,
          "name": "F3",
          "ticks": 520800,
          "time": 440.0946373333334,
          "velocity": 0.31496062992125984
        },
        {
          "duration": 0.17708333333331439,
          "durationTicks": 170,
          "midi": 58,
          "name": "A#3",
          "ticks": 521040,
          "time": 440.3446373333334,
          "velocity": 0.31496062992125984
        },
        {
          "duration": 0.703125,
          "durationTicks": 675,
          "midi": 58,
          "name": "A#3",
          "ticks": 521760,
          "time": 441.0946373333334,
          "velocity": 0.31496062992125984
        },
        {
          "duration": 1.203125,
          "durationTicks": 1155,
          "midi": 56,
          "name": "G#3",
          "ticks": 522480,
          "time": 441.8446373333334,
          "velocity": 0.31496062992125984
        },
        {
          "duration": 0.703125,
          "durationTicks": 675,
          "midi": 55,
          "name": "G3",
          "ticks": 523920,
          "time": 443.3446373333334,
          "velocity": 0.31496062992125984
        },
        {
          "duration": 0.47916666666662877,
          "durationTicks": 460,
          "midi": 56,
          "name": "G#3",
          "ticks": 524640,
          "time": 444.0946373333334,
          "velocity": 0.31496062992125984
        },
        {
          "duration": 0.47916666666662877,
          "durationTicks": 460,
          "midi": 58,
          "name": "A#3",
          "ticks": 525360,
          "time": 444.8446373333334,
          "velocity": 0.31496062992125984
        },
        {
          "duration": 0.41666666666662877,
          "durationTicks": 400,
          "midi": 51,
          "name": "D#3",
          "ticks": 526080,
          "time": 445.5946373333334,
          "velocity": 0.31496062992125984
        },
        {
          "duration": 0.22916666666662877,
          "durationTicks": 220,
          "midi": 60,
          "name": "C4",
          "ticks": 527520,
          "time": 447.0946373333334,
          "velocity": 0.31496062992125984
        },
        {
          "duration": 0.052083333333314386,
          "durationTicks": 50,
          "midi": 62,
          "name": "D4",
          "ticks": 527880,
          "time": 447.4696373333334,
          "velocity": 0.31496062992125984
        },
        {
          "duration": 0.17708333333331439,
          "durationTicks": 170,
          "midi": 64,
          "name": "E4",
          "ticks": 528000,
          "time": 447.5946373333334,
          "velocity": 0.31496062992125984
        },
        {
          "duration": 0.22916666666662877,
          "durationTicks": 220,
          "midi": 65,
          "name": "F4",
          "ticks": 528240,
          "time": 447.8446373333334,
          "velocity": 0.31496062992125984
        },
        {
          "duration": 0.052083333333314386,
          "durationTicks": 50,
          "midi": 67,
          "name": "G4",
          "ticks": 528600,
          "time": 448.2196373333334,
          "velocity": 0.31496062992125984
        },
        {
          "duration": 0.17708333333331439,
          "durationTicks": 170,
          "midi": 68,
          "name": "G#4",
          "ticks": 528720,
          "time": 448.3446373333334,
          "velocity": 0.31496062992125984
        },
        {
          "duration": 0.22916666666662877,
          "durationTicks": 220,
          "midi": 58,
          "name": "A#3",
          "ticks": 528960,
          "time": 448.5946373333334,
          "velocity": 0.31496062992125984
        },
        {
          "duration": 0.052083333333314386,
          "durationTicks": 50,
          "midi": 60,
          "name": "C4",
          "ticks": 529320,
          "time": 448.9696373333334,
          "velocity": 0.31496062992125984
        },
        {
          "duration": 0.17708333333331439,
          "durationTicks": 170,
          "midi": 62,
          "name": "D4",
          "ticks": 529440,
          "time": 449.0946373333334,
          "velocity": 0.31496062992125984
        },
        {
          "duration": 0.22916666666662877,
          "durationTicks": 220,
          "midi": 63,
          "name": "D#4",
          "ticks": 529680,
          "time": 449.3446373333334,
          "velocity": 0.31496062992125984
        },
        {
          "duration": 0.052083333333314386,
          "durationTicks": 50,
          "midi": 65,
          "name": "F4",
          "ticks": 530040,
          "time": 449.7196373333334,
          "velocity": 0.31496062992125984
        },
        {
          "duration": 0.17708333333331439,
          "durationTicks": 170,
          "midi": 67,
          "name": "G4",
          "ticks": 530160,
          "time": 449.8446373333334,
          "velocity": 0.31496062992125984
        },
        {
          "duration": 0.16666666666662877,
          "durationTicks": 160,
          "midi": 56,
          "name": "G#3",
          "ticks": 530400,
          "time": 450.0946373333334,
          "velocity": 0.31496062992125984
        },
        {
          "duration": 0.16666666666662877,
          "durationTicks": 160,
          "midi": 56,
          "name": "G#3",
          "ticks": 530640,
          "time": 450.3446373333334,
          "velocity": 0.31496062992125984
        },
        {
          "duration": 0.16666666666662877,
          "durationTicks": 160,
          "midi": 56,
          "name": "G#3",
          "ticks": 530880,
          "time": 450.5946373333334,
          "velocity": 0.31496062992125984
        },
        {
          "duration": 0.16666666666662877,
          "durationTicks": 160,
          "midi": 58,
          "name": "A#3",
          "ticks": 531120,
          "time": 450.8446373333334,
          "velocity": 0.31496062992125984
        },
        {
          "duration": 0.16666666666662877,
          "durationTicks": 160,
          "midi": 58,
          "name": "A#3",
          "ticks": 531360,
          "time": 451.0946373333334,
          "velocity": 0.31496062992125984
        },
        {
          "duration": 0.16666666666662877,
          "durationTicks": 160,
          "midi": 58,
          "name": "A#3",
          "ticks": 531600,
          "time": 451.3446373333334,
          "velocity": 0.31496062992125984
        },
        {
          "duration": 0.16666666666662877,
          "durationTicks": 160,
          "midi": 60,
          "name": "C4",
          "ticks": 531840,
          "time": 451.5946373333334,
          "velocity": 0.31496062992125984
        },
        {
          "duration": 0.16666666666662877,
          "durationTicks": 160,
          "midi": 60,
          "name": "C4",
          "ticks": 532080,
          "time": 451.8446373333334,
          "velocity": 0.31496062992125984
        },
        {
          "duration": 0.16666666666662877,
          "durationTicks": 160,
          "midi": 60,
          "name": "C4",
          "ticks": 532320,
          "time": 452.0946373333334,
          "velocity": 0.31496062992125984
        },
        {
          "duration": 0.16666666666662877,
          "durationTicks": 160,
          "midi": 58,
          "name": "A#3",
          "ticks": 532560,
          "time": 452.3446373333334,
          "velocity": 0.31496062992125984
        },
        {
          "duration": 0.16666666666662877,
          "durationTicks": 160,
          "midi": 58,
          "name": "A#3",
          "ticks": 532800,
          "time": 452.5946373333334,
          "velocity": 0.31496062992125984
        },
        {
          "duration": 0.16666666666662877,
          "durationTicks": 160,
          "midi": 58,
          "name": "A#3",
          "ticks": 533040,
          "time": 452.8446373333334,
          "velocity": 0.31496062992125984
        },
        {
          "duration": 0.16666666666662877,
          "durationTicks": 160,
          "midi": 56,
          "name": "G#3",
          "ticks": 533280,
          "time": 453.0946373333334,
          "velocity": 0.6299212598425197
        },
        {
          "duration": 0.16666666666662877,
          "durationTicks": 160,
          "midi": 56,
          "name": "G#3",
          "ticks": 533520,
          "time": 453.3446373333334,
          "velocity": 0.6299212598425197
        },
        {
          "duration": 0.16666666666662877,
          "durationTicks": 160,
          "midi": 56,
          "name": "G#3",
          "ticks": 533760,
          "time": 453.5946373333334,
          "velocity": 0.6299212598425197
        },
        {
          "duration": 0.16666666666662877,
          "durationTicks": 160,
          "midi": 57,
          "name": "A3",
          "ticks": 534000,
          "time": 453.8446373333334,
          "velocity": 0.6299212598425197
        },
        {
          "duration": 0.16666666666662877,
          "durationTicks": 160,
          "midi": 57,
          "name": "A3",
          "ticks": 534240,
          "time": 454.0946373333334,
          "velocity": 0.6299212598425197
        },
        {
          "duration": 0.16666666666662877,
          "durationTicks": 160,
          "midi": 57,
          "name": "A3",
          "ticks": 534480,
          "time": 454.3446373333334,
          "velocity": 0.6299212598425197
        },
        {
          "duration": 0.16666666666662877,
          "durationTicks": 160,
          "midi": 58,
          "name": "A#3",
          "ticks": 534720,
          "time": 454.5946373333334,
          "velocity": 0.31496062992125984
        },
        {
          "duration": 0.16666666666662877,
          "durationTicks": 160,
          "midi": 58,
          "name": "A#3",
          "ticks": 534960,
          "time": 454.8446373333334,
          "velocity": 0.31496062992125984
        },
        {
          "duration": 0.16666666666662877,
          "durationTicks": 160,
          "midi": 58,
          "name": "A#3",
          "ticks": 535200,
          "time": 455.0946373333334,
          "velocity": 0.31496062992125984
        },
        {
          "duration": 0.16666666666662877,
          "durationTicks": 160,
          "midi": 58,
          "name": "A#3",
          "ticks": 535440,
          "time": 455.3446373333334,
          "velocity": 0.31496062992125984
        },
        {
          "duration": 0.16666666666662877,
          "durationTicks": 160,
          "midi": 58,
          "name": "A#3",
          "ticks": 535680,
          "time": 455.5946373333334,
          "velocity": 0.31496062992125984
        },
        {
          "duration": 0.16666666666662877,
          "durationTicks": 160,
          "midi": 58,
          "name": "A#3",
          "ticks": 535920,
          "time": 455.8446373333334,
          "velocity": 0.31496062992125984
        },
        {
          "duration": 0.16666666666662877,
          "durationTicks": 160,
          "midi": 58,
          "name": "A#3",
          "ticks": 536160,
          "time": 456.0946373333334,
          "velocity": 0.31496062992125984
        },
        {
          "duration": 0.16666666666662877,
          "durationTicks": 160,
          "midi": 58,
          "name": "A#3",
          "ticks": 536400,
          "time": 456.3446373333334,
          "velocity": 0.31496062992125984
        },
        {
          "duration": 0.16666666666662877,
          "durationTicks": 160,
          "midi": 58,
          "name": "A#3",
          "ticks": 536640,
          "time": 456.5946373333334,
          "velocity": 0.31496062992125984
        },
        {
          "duration": 0.16666666666662877,
          "durationTicks": 160,
          "midi": 58,
          "name": "A#3",
          "ticks": 536880,
          "time": 456.8446373333334,
          "velocity": 0.31496062992125984
        },
        {
          "duration": 0.16666666666662877,
          "durationTicks": 160,
          "midi": 58,
          "name": "A#3",
          "ticks": 537120,
          "time": 457.0946373333334,
          "velocity": 0.31496062992125984
        },
        {
          "duration": 0.16666666666662877,
          "durationTicks": 160,
          "midi": 58,
          "name": "A#3",
          "ticks": 537360,
          "time": 457.3446373333334,
          "velocity": 0.31496062992125984
        },
        {
          "duration": 0.16666666666662877,
          "durationTicks": 160,
          "midi": 58,
          "name": "A#3",
          "ticks": 537600,
          "time": 457.5946373333334,
          "velocity": 0.31496062992125984
        },
        {
          "duration": 0.16666666666662877,
          "durationTicks": 160,
          "midi": 58,
          "name": "A#3",
          "ticks": 537840,
          "time": 457.8446373333334,
          "velocity": 0.31496062992125984
        },
        {
          "duration": 0.16666666666662877,
          "durationTicks": 160,
          "midi": 58,
          "name": "A#3",
          "ticks": 538080,
          "time": 458.0946373333334,
          "velocity": 0.31496062992125984
        },
        {
          "duration": 0.16666666666662877,
          "durationTicks": 160,
          "midi": 58,
          "name": "A#3",
          "ticks": 538320,
          "time": 458.3446373333334,
          "velocity": 0.31496062992125984
        },
        {
          "duration": 0.16666666666662877,
          "durationTicks": 160,
          "midi": 58,
          "name": "A#3",
          "ticks": 538560,
          "time": 458.5946373333334,
          "velocity": 0.31496062992125984
        },
        {
          "duration": 0.16666666666662877,
          "durationTicks": 160,
          "midi": 58,
          "name": "A#3",
          "ticks": 538800,
          "time": 458.8446373333334,
          "velocity": 0.31496062992125984
        },
        {
          "duration": 0.16666666666662877,
          "durationTicks": 160,
          "midi": 58,
          "name": "A#3",
          "ticks": 539040,
          "time": 459.0946373333334,
          "velocity": 0.31496062992125984
        },
        {
          "duration": 0.16666666666662877,
          "durationTicks": 160,
          "midi": 58,
          "name": "A#3",
          "ticks": 539280,
          "time": 459.3446373333334,
          "velocity": 0.31496062992125984
        },
        {
          "duration": 0.16666666666662877,
          "durationTicks": 160,
          "midi": 58,
          "name": "A#3",
          "ticks": 539520,
          "time": 459.5946373333334,
          "velocity": 0.31496062992125984
        },
        {
          "duration": 0.16666666666662877,
          "durationTicks": 160,
          "midi": 58,
          "name": "A#3",
          "ticks": 539760,
          "time": 459.8446373333334,
          "velocity": 0.31496062992125984
        },
        {
          "duration": 0.16666666666662877,
          "durationTicks": 160,
          "midi": 58,
          "name": "A#3",
          "ticks": 540000,
          "time": 460.0946373333334,
          "velocity": 0.31496062992125984
        },
        {
          "duration": 0.16666666666662877,
          "durationTicks": 160,
          "midi": 58,
          "name": "A#3",
          "ticks": 540240,
          "time": 460.3446373333334,
          "velocity": 0.31496062992125984
        },
        {
          "duration": 0.16666666666662877,
          "durationTicks": 160,
          "midi": 58,
          "name": "A#3",
          "ticks": 540480,
          "time": 460.5946373333334,
          "velocity": 0.31496062992125984
        },
        {
          "duration": 0.16666666666662877,
          "durationTicks": 160,
          "midi": 58,
          "name": "A#3",
          "ticks": 540720,
          "time": 460.8446373333334,
          "velocity": 0.31496062992125984
        },
        {
          "duration": 0.16666666666662877,
          "durationTicks": 160,
          "midi": 58,
          "name": "A#3",
          "ticks": 540960,
          "time": 461.0946373333334,
          "velocity": 0.31496062992125984
        },
        {
          "duration": 0.16666666666662877,
          "durationTicks": 160,
          "midi": 58,
          "name": "A#3",
          "ticks": 541200,
          "time": 461.3446373333334,
          "velocity": 0.31496062992125984
        },
        {
          "duration": 0.16666666666662877,
          "durationTicks": 160,
          "midi": 58,
          "name": "A#3",
          "ticks": 541440,
          "time": 461.5946373333334,
          "velocity": 0.31496062992125984
        },
        {
          "duration": 0.16666666666662877,
          "durationTicks": 160,
          "midi": 58,
          "name": "A#3",
          "ticks": 541680,
          "time": 461.8446373333334,
          "velocity": 0.31496062992125984
        },
        {
          "duration": 0.16666666666662877,
          "durationTicks": 160,
          "midi": 58,
          "name": "A#3",
          "ticks": 541920,
          "time": 462.0946373333334,
          "velocity": 0.31496062992125984
        },
        {
          "duration": 0.16666666666662877,
          "durationTicks": 160,
          "midi": 58,
          "name": "A#3",
          "ticks": 542160,
          "time": 462.3446373333334,
          "velocity": 0.31496062992125984
        },
        {
          "duration": 0.16666666666662877,
          "durationTicks": 160,
          "midi": 58,
          "name": "A#3",
          "ticks": 542640,
          "time": 462.8446373333334,
          "velocity": 0.31496062992125984
        },
        {
          "duration": 0.16666666666662877,
          "durationTicks": 160,
          "midi": 58,
          "name": "A#3",
          "ticks": 542880,
          "time": 463.0946373333334,
          "velocity": 0.31496062992125984
        },
        {
          "duration": 0.16666666666662877,
          "durationTicks": 160,
          "midi": 58,
          "name": "A#3",
          "ticks": 543360,
          "time": 463.5946373333334,
          "velocity": 0.31496062992125984
        },
        {
          "duration": 0.16666666666662877,
          "durationTicks": 160,
          "midi": 58,
          "name": "A#3",
          "ticks": 543600,
          "time": 463.8446373333334,
          "velocity": 0.31496062992125984
        },
        {
          "duration": 0.16666666666662877,
          "durationTicks": 160,
          "midi": 58,
          "name": "A#3",
          "ticks": 544080,
          "time": 464.3446373333334,
          "velocity": 0.31496062992125984
        },
        {
          "duration": 0.16666666666662877,
          "durationTicks": 160,
          "midi": 58,
          "name": "A#3",
          "ticks": 544320,
          "time": 464.5946373333334,
          "velocity": 0.31496062992125984
        },
        {
          "duration": 1.4875000000000114,
          "durationTicks": 476,
          "midi": 58,
          "name": "A#3",
          "ticks": 546240,
          "time": 466.98921325000003,
          "velocity": 0.31496062992125984
        },
        {
          "duration": 0.13793099999998049,
          "durationTicks": 160,
          "midi": 58,
          "name": "A#3",
          "ticks": 567120,
          "time": 490.31679775000003,
          "velocity": 0.7086614173228346
        },
        {
          "duration": 0.13793099999998049,
          "durationTicks": 160,
          "midi": 58,
          "name": "A#3",
          "ticks": 567360,
          "time": 490.52369425000006,
          "velocity": 0.7086614173228346
        },
        {
          "duration": 0.13793099999998049,
          "durationTicks": 160,
          "midi": 58,
          "name": "A#3",
          "ticks": 567600,
          "time": 490.73059075000003,
          "velocity": 0.7086614173228346
        },
        {
          "duration": 0.16810340624999753,
          "durationTicks": 195,
          "midi": 63,
          "name": "D#4",
          "ticks": 567840,
          "time": 490.93748725000006,
          "velocity": 0.7086614173228346
        },
        {
          "duration": 0.13793100000003733,
          "durationTicks": 160,
          "midi": 58,
          "name": "A#3",
          "ticks": 570000,
          "time": 492.79955575,
          "velocity": 0.7086614173228346
        },
        {
          "duration": 0.13793099999998049,
          "durationTicks": 160,
          "midi": 58,
          "name": "A#3",
          "ticks": 570240,
          "time": 493.00645225000005,
          "velocity": 0.7086614173228346
        },
        {
          "duration": 0.13793100000003733,
          "durationTicks": 160,
          "midi": 58,
          "name": "A#3",
          "ticks": 570480,
          "time": 493.21334875,
          "velocity": 0.7086614173228346
        },
        {
          "duration": 0.24999993749997884,
          "durationTicks": 290,
          "midi": 63,
          "name": "D#4",
          "ticks": 570720,
          "time": 493.42024525000005,
          "velocity": 0.7086614173228346
        },
        {
          "duration": 0.16810340624999753,
          "durationTicks": 195,
          "midi": 62,
          "name": "D4",
          "ticks": 571200,
          "time": 493.83403825000005,
          "velocity": 0.7086614173228346
        },
        {
          "duration": 0.24999993750003568,
          "durationTicks": 290,
          "midi": 63,
          "name": "D#4",
          "ticks": 571440,
          "time": 494.04093475,
          "velocity": 0.7086614173228346
        },
        {
          "duration": 0.16810340624999753,
          "durationTicks": 195,
          "midi": 62,
          "name": "D4",
          "ticks": 571920,
          "time": 494.45472775,
          "velocity": 0.7086614173228346
        },
        {
          "duration": 0.24999993749997884,
          "durationTicks": 290,
          "midi": 63,
          "name": "D#4",
          "ticks": 572160,
          "time": 494.66162425000005,
          "velocity": 0.7086614173228346
        },
        {
          "duration": 0.16810340624999753,
          "durationTicks": 195,
          "midi": 62,
          "name": "D4",
          "ticks": 572640,
          "time": 495.07541725000004,
          "velocity": 0.7086614173228346
        },
        {
          "duration": 0.24999993750003568,
          "durationTicks": 290,
          "midi": 63,
          "name": "D#4",
          "ticks": 572880,
          "time": 495.28231375,
          "velocity": 0.7086614173228346
        },
        {
          "duration": 0.16810340624999753,
          "durationTicks": 195,
          "midi": 62,
          "name": "D4",
          "ticks": 573360,
          "time": 495.69610675,
          "velocity": 0.7086614173228346
        },
        {
          "duration": 0.16810340624999753,
          "durationTicks": 195,
          "midi": 63,
          "name": "D#4",
          "ticks": 573600,
          "time": 495.90300325000004,
          "velocity": 0.7086614173228346
        }
      ]
    }
  ]
}