{
  "header": {
    "keySignatures": [
        {
          "key": "A",
          "scale": "major",
          "ticks": 0
        }
    ],
    "meta": [],
    "name": "莫扎特钢协第23首-第2乐章",
    "ppq": 480,
    "tempos": [
      {
        "bpm": 80,
        "ticks": 0
      },
      {
        "bpm": 40,
        "ticks": 1440
      },
      {
        "bpm": 40,
        "ticks": 48960
      },
      {
        "bpm": 39.000013650004774,
        "ticks": 49680
      },
      {
        "bpm": 37.00001418333877,
        "ticks": 49920
      },
      {
        "bpm": 36.00001440000576,
        "ticks": 50176
      },
      {
        "bpm": 42.00001260000378,
        "ticks": 50400
      },
      {
        "bpm": 41.00001776667437,
        "ticks": 73440
      },
      {
        "bpm": 40.99998975000256,
        "ticks": 75120
      },
      {
        "bpm": 39.000013650004774,
        "ticks": 75360
      },
      {
        "bpm": 38.000008866668736,
        "ticks": 75600
      },
      {
        "bpm": 37.00001418333877,
        "ticks": 75840
      },
      {
        "bpm": 35.00001458333941,
        "ticks": 76080
      },
      {
        "bpm": 40,
        "ticks": 76320
      },
      {
        "bpm": 42.00001260000378,
        "ticks": 120960
      },
      {
        "bpm": 41.00001776667437,
        "ticks": 132480
      },
      {
        "bpm": 40,
        "ticks": 139680
      },
      {
        "bpm": 39.000013650004774,
        "ticks": 140416
      },
      {
        "bpm": 38.000008866668736,
        "ticks": 140656
      },
      {
        "bpm": 36.00001440000576,
        "ticks": 140896
      },
      {
        "bpm": 37.00001418333877,
        "ticks": 141136
      },
      {
        "bpm": 35.00001458333941,
        "ticks": 142288
      },
      {
        "bpm": 33.000014850006686,
        "ticks": 142560
      }
    ],
    "timeSignatures": [
      {
        "ticks": 0,
        "timeSignature": [
          6,
          8
        ],
        "measures": 0
      }
    ]
  },
  "tracks": [
    {
      "channel": 0,
      "controlChanges": {
        "7": [
          {
            "number": 7,
            "ticks": 0,
            "time": 0,
            "value": 0.5984251968503937
          }
        ],
        "10": [
          {
            "number": 10,
            "ticks": 0,
            "time": 0,
            "value": 0.4409448818897638
          }
        ],
        "91": [
          {
            "number": 91,
            "ticks": 0,
            "time": 0,
            "value": 0.7480314960629921
          }
        ]
      },
      "pitchBends": [],
      "instrument": {
        "family": "pipe",
        "number": 73,
        "name": "flute"
      },
      "name": "",
      "notes": [
        {
          "duration": 3,
          "durationTicks": 960,
          "midi": 85,
          "name": "C#6",
          "ticks": 20880,
          "time": 63,
          "velocity": 0.6299212598425197
        },
        {
          "duration": 0.75,
          "durationTicks": 240,
          "midi": 83,
          "name": "B5",
          "ticks": 21840,
          "time": 66,
          "velocity": 0.6299212598425197
        },
        {
          "duration": 0.75,
          "durationTicks": 240,
          "midi": 81,
          "name": "A5",
          "ticks": 22080,
          "time": 66.75,
          "velocity": 0.6299212598425197
        },
        {
          "duration": 0.75,
          "durationTicks": 240,
          "midi": 80,
          "name": "G#5",
          "ticks": 22320,
          "time": 67.5,
          "velocity": 0.6299212598425197
        },
        {
          "duration": 0.75,
          "durationTicks": 240,
          "midi": 81,
          "name": "A5",
          "ticks": 22560,
          "time": 68.25,
          "velocity": 0.6299212598425197
        },
        {
          "duration": 0.75,
          "durationTicks": 240,
          "midi": 83,
          "name": "B5",
          "ticks": 22800,
          "time": 69,
          "velocity": 0.6299212598425197
        },
        {
          "duration": 1.8000000000000114,
          "durationTicks": 576,
          "midi": 77,
          "name": "F5",
          "ticks": 23040,
          "time": 69.75,
          "velocity": 0.47244094488188976
        },
        {
          "duration": 2.1374999999999886,
          "durationTicks": 684,
          "midi": 85,
          "name": "C#6",
          "ticks": 23760,
          "time": 72,
          "velocity": 0.47244094488188976
        },
        {
          "duration": 2.25,
          "durationTicks": 720,
          "midi": 87,
          "name": "D#6",
          "ticks": 24480,
          "time": 74.25,
          "velocity": 0.6299212598425197
        },
        {
          "duration": 2.1374999999999886,
          "durationTicks": 684,
          "midi": 86,
          "name": "D6",
          "ticks": 25200,
          "time": 76.5,
          "velocity": 0.6299212598425197
        },
        {
          "duration": 3,
          "durationTicks": 960,
          "midi": 85,
          "name": "C#6",
          "ticks": 25920,
          "time": 78.75,
          "velocity": 0.6299212598425197
        },
        {
          "duration": 2.25,
          "durationTicks": 720,
          "midi": 83,
          "name": "B5",
          "ticks": 26880,
          "time": 81.75,
          "velocity": 0.6299212598425197
        },
        {
          "duration": 0.75,
          "durationTicks": 240,
          "midi": 85,
          "name": "C#6",
          "ticks": 27600,
          "time": 84,
          "velocity": 0.6299212598425197
        },
        {
          "duration": 1.5,
          "durationTicks": 480,
          "midi": 81,
          "name": "A5",
          "ticks": 27840,
          "time": 84.75,
          "velocity": 0.6299212598425197
        },
        {
          "duration": 0.44999999999998863,
          "durationTicks": 144,
          "midi": 83,
          "name": "B5",
          "ticks": 28320,
          "time": 86.25,
          "velocity": 0.6299212598425197
        },
        {
          "duration": 0.375,
          "durationTicks": 120,
          "midi": 80,
          "name": "G#5",
          "ticks": 28560,
          "time": 87,
          "velocity": 0.6299212598425197
        },
        {
          "duration": 1.4250000000000114,
          "durationTicks": 456,
          "midi": 78,
          "name": "F#5",
          "ticks": 28800,
          "time": 87.75,
          "velocity": 0.5511811023622047
        },
        {
          "duration": 2.1428564999999935,
          "durationTicks": 720,
          "midi": 76,
          "name": "E5",
          "ticks": 50400,
          "time": 155.4118725,
          "velocity": 0.5511811023622047
        },
        {
          "duration": 1.4285710000000051,
          "durationTicks": 480,
          "midi": 73,
          "name": "C#5",
          "ticks": 51120,
          "time": 157.55472899999998,
          "velocity": 0.5511811023622047
        },
        {
          "duration": 0.17857137499998998,
          "durationTicks": 60,
          "midi": 74,
          "name": "D5",
          "ticks": 51600,
          "time": 158.98329999999999,
          "velocity": 0.5511811023622047
        },
        {
          "duration": 0.1785713750000184,
          "durationTicks": 60,
          "midi": 73,
          "name": "C#5",
          "ticks": 51660,
          "time": 159.16187137499998,
          "velocity": 0.5511811023622047
        },
        {
          "duration": 0.17857137499998998,
          "durationTicks": 60,
          "midi": 71,
          "name": "B4",
          "ticks": 51720,
          "time": 159.34044275,
          "velocity": 0.5511811023622047
        },
        {
          "duration": 0.17857137499998998,
          "durationTicks": 60,
          "midi": 73,
          "name": "C#5",
          "ticks": 51780,
          "time": 159.51901412499998,
          "velocity": 0.5511811023622047
        },
        {
          "duration": 0.42857130000001575,
          "durationTicks": 144,
          "midi": 74,
          "name": "D5",
          "ticks": 51840,
          "time": 159.69758549999997,
          "velocity": 0.5511811023622047
        },
        {
          "duration": 0.42857129999998733,
          "durationTicks": 144,
          "midi": 74,
          "name": "D5",
          "ticks": 52080,
          "time": 160.411871,
          "velocity": 0.5511811023622047
        },
        {
          "duration": 0.42857130000001575,
          "durationTicks": 144,
          "midi": 74,
          "name": "D5",
          "ticks": 52320,
          "time": 161.12615649999998,
          "velocity": 0.5511811023622047
        },
        {
          "duration": 0.5714284000000021,
          "durationTicks": 192,
          "midi": 74,
          "name": "D5",
          "ticks": 52560,
          "time": 161.840442,
          "velocity": 0.5511811023622047
        },
        {
          "duration": 0.3571427500000084,
          "durationTicks": 120,
          "midi": 85,
          "name": "C#6",
          "ticks": 54360,
          "time": 167.19758324999998,
          "velocity": 0.5511811023622047
        },
        {
          "duration": 0.3571427500000084,
          "durationTicks": 120,
          "midi": 86,
          "name": "D6",
          "ticks": 54480,
          "time": 167.554726,
          "velocity": 0.5511811023622047
        },
        {
          "duration": 0.35714274999997997,
          "durationTicks": 120,
          "midi": 87,
          "name": "D#6",
          "ticks": 54600,
          "time": 167.91186875,
          "velocity": 0.5511811023622047
        },
        {
          "duration": 0.3571427500000084,
          "durationTicks": 120,
          "midi": 88,
          "name": "E6",
          "ticks": 54720,
          "time": 168.26901149999998,
          "velocity": 0.5511811023622047
        },
        {
          "duration": 0.3571427500000084,
          "durationTicks": 120,
          "midi": 87,
          "name": "D#6",
          "ticks": 54840,
          "time": 168.62615424999998,
          "velocity": 0.5511811023622047
        },
        {
          "duration": 0.35714274999997997,
          "durationTicks": 120,
          "midi": 88,
          "name": "E6",
          "ticks": 54960,
          "time": 168.983297,
          "velocity": 0.5511811023622047
        },
        {
          "duration": 0.3571427500000084,
          "durationTicks": 120,
          "midi": 87,
          "name": "D#6",
          "ticks": 55080,
          "time": 169.34043974999997,
          "velocity": 0.5511811023622047
        },
        {
          "duration": 0.3571427500000084,
          "durationTicks": 120,
          "midi": 88,
          "name": "E6",
          "ticks": 55200,
          "time": 169.69758249999998,
          "velocity": 0.5511811023622047
        },
        {
          "duration": 0.3571427500000084,
          "durationTicks": 120,
          "midi": 85,
          "name": "C#6",
          "ticks": 55320,
          "time": 170.05472525,
          "velocity": 0.5511811023622047
        },
        {
          "duration": 0.5714284000000021,
          "durationTicks": 192,
          "midi": 83,
          "name": "B5",
          "ticks": 55440,
          "time": 170.411868,
          "velocity": 0.5511811023622047
        },
        {
          "duration": 2.1428564999999935,
          "durationTicks": 720,
          "midi": 88,
          "name": "E6",
          "ticks": 56160,
          "time": 172.5547245,
          "velocity": 0.5511811023622047
        },
        {
          "duration": 1.4285710000000051,
          "durationTicks": 480,
          "midi": 85,
          "name": "C#6",
          "ticks": 56880,
          "time": 174.69758099999999,
          "velocity": 0.5511811023622047
        },
        {
          "duration": 0.17857137499998998,
          "durationTicks": 60,
          "midi": 86,
          "name": "D6",
          "ticks": 57360,
          "time": 176.126152,
          "velocity": 0.5511811023622047
        },
        {
          "duration": 0.1785713750000184,
          "durationTicks": 60,
          "midi": 85,
          "name": "C#6",
          "ticks": 57420,
          "time": 176.30472337499998,
          "velocity": 0.5511811023622047
        },
        {
          "duration": 0.17857137499998998,
          "durationTicks": 60,
          "midi": 83,
          "name": "B5",
          "ticks": 57480,
          "time": 176.48329475,
          "velocity": 0.5511811023622047
        },
        {
          "duration": 0.17857137499998998,
          "durationTicks": 60,
          "midi": 85,
          "name": "C#6",
          "ticks": 57540,
          "time": 176.661866125,
          "velocity": 0.5511811023622047
        },
        {
          "duration": 0.42857130000001575,
          "durationTicks": 144,
          "midi": 86,
          "name": "D6",
          "ticks": 57600,
          "time": 176.84043749999998,
          "velocity": 0.5511811023622047
        },
        {
          "duration": 0.42857129999998733,
          "durationTicks": 144,
          "midi": 86,
          "name": "D6",
          "ticks": 57840,
          "time": 177.554723,
          "velocity": 0.5511811023622047
        },
        {
          "duration": 0.42857130000001575,
          "durationTicks": 144,
          "midi": 86,
          "name": "D6",
          "ticks": 58080,
          "time": 178.26900849999998,
          "velocity": 0.5511811023622047
        },
        {
          "duration": 0.5714283999999736,
          "durationTicks": 192,
          "midi": 86,
          "name": "D6",
          "ticks": 58320,
          "time": 178.983294,
          "velocity": 0.5511811023622047
        },
        {
          "duration": 0.15476185833333034,
          "durationTicks": 52,
          "midi": 86,
          "name": "D6",
          "ticks": 67040,
          "time": 204.93566716666666,
          "velocity": 0.6299212598425197
        },
        {
          "duration": 0.15476185833333034,
          "durationTicks": 52,
          "midi": 85,
          "name": "C#6",
          "ticks": 67120,
          "time": 205.17376233333331,
          "velocity": 0.6299212598425197
        },
        {
          "duration": 0.15476185833333034,
          "durationTicks": 52,
          "midi": 83,
          "name": "B5",
          "ticks": 67200,
          "time": 205.4118575,
          "velocity": 0.6299212598425197
        },
        {
          "duration": 0.15476185833333034,
          "durationTicks": 52,
          "midi": 81,
          "name": "A5",
          "ticks": 67280,
          "time": 205.64995266666665,
          "velocity": 0.6299212598425197
        },
        {
          "duration": 0.15476185833333034,
          "durationTicks": 52,
          "midi": 80,
          "name": "G#5",
          "ticks": 67360,
          "time": 205.88804783333333,
          "velocity": 0.6299212598425197
        },
        {
          "duration": 0.15476185833333034,
          "durationTicks": 52,
          "midi": 78,
          "name": "F#5",
          "ticks": 67440,
          "time": 206.12614299999998,
          "velocity": 0.6299212598425197
        },
        {
          "duration": 0.15476185833333034,
          "durationTicks": 52,
          "midi": 76,
          "name": "E5",
          "ticks": 67520,
          "time": 206.36423816666667,
          "velocity": 0.6299212598425197
        },
        {
          "duration": 0.15476185833333034,
          "durationTicks": 52,
          "midi": 74,
          "name": "D5",
          "ticks": 67600,
          "time": 206.60233333333332,
          "velocity": 0.6299212598425197
        },
        {
          "duration": 0.15476185833333034,
          "durationTicks": 52,
          "midi": 88,
          "name": "E6",
          "ticks": 68480,
          "time": 209.22138016666665,
          "velocity": 0.6299212598425197
        },
        {
          "duration": 0.15476185833333034,
          "durationTicks": 52,
          "midi": 86,
          "name": "D6",
          "ticks": 68560,
          "time": 209.45947533333333,
          "velocity": 0.6299212598425197
        },
        {
          "duration": 0.15476185833333034,
          "durationTicks": 52,
          "midi": 85,
          "name": "C#6",
          "ticks": 68640,
          "time": 209.69757049999998,
          "velocity": 0.6299212598425197
        },
        {
          "duration": 0.15476185833335876,
          "durationTicks": 52,
          "midi": 83,
          "name": "B5",
          "ticks": 68720,
          "time": 209.93566566666664,
          "velocity": 0.6299212598425197
        },
        {
          "duration": 0.15476185833333034,
          "durationTicks": 52,
          "midi": 81,
          "name": "A5",
          "ticks": 68800,
          "time": 210.17376083333332,
          "velocity": 0.6299212598425197
        },
        {
          "duration": 0.15476185833333034,
          "durationTicks": 52,
          "midi": 80,
          "name": "G#5",
          "ticks": 68880,
          "time": 210.411856,
          "velocity": 0.6299212598425197
        },
        {
          "duration": 0.15476185833333034,
          "durationTicks": 52,
          "midi": 78,
          "name": "F#5",
          "ticks": 68960,
          "time": 210.64995116666665,
          "velocity": 0.6299212598425197
        },
        {
          "duration": 0.15476185833333034,
          "durationTicks": 52,
          "midi": 76,
          "name": "E5",
          "ticks": 69040,
          "time": 210.88804633333334,
          "velocity": 0.6299212598425197
        },
        {
          "duration": 0.7317070000000001,
          "durationTicks": 240,
          "midi": 73,
          "name": "C#5",
          "ticks": 73680,
          "time": 224.71498749999998,
          "velocity": 0.47244094488188976
        },
        {
          "duration": 0.7317070000000001,
          "durationTicks": 240,
          "midi": 85,
          "name": "C#6",
          "ticks": 73920,
          "time": 225.44669449999998,
          "velocity": 0.47244094488188976
        },
        {
          "duration": 0.7317070000000001,
          "durationTicks": 240,
          "midi": 74,
          "name": "D5",
          "ticks": 74400,
          "time": 226.91010849999998,
          "velocity": 0.47244094488188976
        },
        {
          "duration": 0.7317070000000001,
          "durationTicks": 240,
          "midi": 86,
          "name": "D6",
          "ticks": 74640,
          "time": 227.64181549999998,
          "velocity": 0.47244094488188976
        },
        {
          "duration": 0.18292675000000713,
          "durationTicks": 60,
          "midi": 73,
          "name": "C#5",
          "ticks": 75060,
          "time": 228.92230274999997,
          "velocity": 0.47244094488188976
        },
        {
          "duration": 0.7317074999999988,
          "durationTicks": 240,
          "midi": 85,
          "name": "C#6",
          "ticks": 75120,
          "time": 229.10522949999998,
          "velocity": 0.47244094488188976
        },
        {
          "duration": 0.7692304999999919,
          "durationTicks": 240,
          "midi": 78,
          "name": "F#5",
          "ticks": 75360,
          "time": 229.83693699999998,
          "velocity": 0.47244094488188976
        },
        {
          "duration": 0.1973683750000248,
          "durationTicks": 60,
          "midi": 71,
          "name": "B4",
          "ticks": 75780,
          "time": 231.19827262499996,
          "velocity": 0.47244094488188976
        },
        {
          "duration": 0.8108105000000023,
          "durationTicks": 240,
          "midi": 83,
          "name": "B5",
          "ticks": 75840,
          "time": 231.39564099999998,
          "velocity": 0.47244094488188976
        },
        {
          "duration": 0.857142500000009,
          "durationTicks": 240,
          "midi": 77,
          "name": "F5",
          "ticks": 76080,
          "time": 232.2064515,
          "velocity": 0.4251968503937008
        },
        {
          "duration": 1.1999999999999886,
          "durationTicks": 384,
          "midi": 78,
          "name": "F#5",
          "ticks": 76320,
          "time": 233.063594,
          "velocity": 0.3858267716535433
        },
        {
          "duration": 4.5,
          "durationTicks": 1440,
          "midi": 78,
          "name": "F#5",
          "ticks": 92160,
          "time": 282.56359399999997,
          "velocity": 0.47244094488188976
        },
        {
          "duration": 0.6000000000000227,
          "durationTicks": 192,
          "midi": 79,
          "name": "G5",
          "ticks": 93600,
          "time": 287.06359399999997,
          "velocity": 0.47244094488188976
        },
        {
          "duration": 3,
          "durationTicks": 960,
          "midi": 85,
          "name": "C#6",
          "ticks": 101520,
          "time": 311.81359399999997,
          "velocity": 0.6299212598425197
        },
        {
          "duration": 0.75,
          "durationTicks": 240,
          "midi": 83,
          "name": "B5",
          "ticks": 102480,
          "time": 314.81359399999997,
          "velocity": 0.6299212598425197
        },
        {
          "duration": 0.75,
          "durationTicks": 240,
          "midi": 81,
          "name": "A5",
          "ticks": 102720,
          "time": 315.56359399999997,
          "velocity": 0.6299212598425197
        },
        {
          "duration": 0.75,
          "durationTicks": 240,
          "midi": 80,
          "name": "G#5",
          "ticks": 102960,
          "time": 316.31359399999997,
          "velocity": 0.6299212598425197
        },
        {
          "duration": 0.75,
          "durationTicks": 240,
          "midi": 81,
          "name": "A5",
          "ticks": 103200,
          "time": 317.06359399999997,
          "velocity": 0.6299212598425197
        },
        {
          "duration": 0.75,
          "durationTicks": 240,
          "midi": 83,
          "name": "B5",
          "ticks": 103440,
          "time": 317.81359399999997,
          "velocity": 0.6299212598425197
        },
        {
          "duration": 2.25,
          "durationTicks": 720,
          "midi": 77,
          "name": "F5",
          "ticks": 103680,
          "time": 318.56359399999997,
          "velocity": 0.6299212598425197
        },
        {
          "duration": 2.25,
          "durationTicks": 720,
          "midi": 85,
          "name": "C#6",
          "ticks": 104400,
          "time": 320.81359399999997,
          "velocity": 0.6299212598425197
        },
        {
          "duration": 2.25,
          "durationTicks": 720,
          "midi": 87,
          "name": "D#6",
          "ticks": 105120,
          "time": 323.06359399999997,
          "velocity": 0.6299212598425197
        },
        {
          "duration": 2.25,
          "durationTicks": 720,
          "midi": 86,
          "name": "D6",
          "ticks": 105840,
          "time": 325.31359399999997,
          "velocity": 0.6299212598425197
        },
        {
          "duration": 3,
          "durationTicks": 960,
          "midi": 85,
          "name": "C#6",
          "ticks": 106560,
          "time": 327.56359399999997,
          "velocity": 0.6299212598425197
        },
        {
          "duration": 2.25,
          "durationTicks": 720,
          "midi": 83,
          "name": "B5",
          "ticks": 107520,
          "time": 330.56359399999997,
          "velocity": 0.6299212598425197
        },
        {
          "duration": 0.7125000000000341,
          "durationTicks": 228,
          "midi": 85,
          "name": "C#6",
          "ticks": 108240,
          "time": 332.81359399999997,
          "velocity": 0.6299212598425197
        },
        {
          "duration": 1.5,
          "durationTicks": 480,
          "midi": 81,
          "name": "A5",
          "ticks": 108480,
          "time": 333.56359399999997,
          "velocity": 0.6299212598425197
        },
        {
          "duration": 0.4500000000000455,
          "durationTicks": 144,
          "midi": 83,
          "name": "B5",
          "ticks": 108960,
          "time": 335.06359399999997,
          "velocity": 0.6299212598425197
        },
        {
          "duration": 0.4500000000000455,
          "durationTicks": 144,
          "midi": 80,
          "name": "G#5",
          "ticks": 109200,
          "time": 335.81359399999997,
          "velocity": 0.6299212598425197
        },
        {
          "duration": 1.4250000000000682,
          "durationTicks": 456,
          "midi": 78,
          "name": "F#5",
          "ticks": 109440,
          "time": 336.56359399999997,
          "velocity": 0.5511811023622047
        },
        {
          "duration": 4.5,
          "durationTicks": 1440,
          "midi": 78,
          "name": "F#5",
          "ticks": 115920,
          "time": 356.81359399999997,
          "velocity": 0.47244094488188976
        },
        {
          "duration": 1.5,
          "durationTicks": 480,
          "midi": 77,
          "name": "F5",
          "ticks": 117360,
          "time": 361.31359399999997,
          "velocity": 0.47244094488188976
        },
        {
          "duration": 0.75,
          "durationTicks": 240,
          "midi": 74,
          "name": "D5",
          "ticks": 117840,
          "time": 362.81359399999997,
          "velocity": 0.47244094488188976
        },
        {
          "duration": 4.5,
          "durationTicks": 1440,
          "midi": 73,
          "name": "C#5",
          "ticks": 118080,
          "time": 363.56359399999997,
          "velocity": 0.47244094488188976
        },
        {
          "duration": 0.75,
          "durationTicks": 240,
          "midi": 71,
          "name": "B4",
          "ticks": 119520,
          "time": 368.06359399999997,
          "velocity": 0.47244094488188976
        },
        {
          "duration": 0.75,
          "durationTicks": 240,
          "midi": 73,
          "name": "C#5",
          "ticks": 119760,
          "time": 368.81359399999997,
          "velocity": 0.47244094488188976
        },
        {
          "duration": 1.5,
          "durationTicks": 480,
          "midi": 74,
          "name": "D5",
          "ticks": 120000,
          "time": 369.56359399999997,
          "velocity": 0.47244094488188976
        },
        {
          "duration": 0.75,
          "durationTicks": 240,
          "midi": 73,
          "name": "C#5",
          "ticks": 120480,
          "time": 371.06359399999997,
          "velocity": 0.47244094488188976
        },
        {
          "duration": 0.75,
          "durationTicks": 240,
          "midi": 71,
          "name": "B4",
          "ticks": 120720,
          "time": 371.81359399999997,
          "velocity": 0.47244094488188976
        },
        {
          "duration": 1.1428568000000041,
          "durationTicks": 384,
          "midi": 69,
          "name": "A4",
          "ticks": 120960,
          "time": 372.56359399999997,
          "velocity": 0.47244094488188976
        },
        {
          "duration": 8.571425999999974,
          "durationTicks": 2880,
          "midi": 81,
          "name": "A5",
          "ticks": 126720,
          "time": 389.70644599999997,
          "velocity": 0.47244094488188976
        },
        {
          "duration": 2.1428565000000503,
          "durationTicks": 720,
          "midi": 86,
          "name": "D6",
          "ticks": 129600,
          "time": 398.27787199999995,
          "velocity": 0.47244094488188976
        },
        {
          "duration": 2.1428564999999935,
          "durationTicks": 720,
          "midi": 83,
          "name": "B5",
          "ticks": 130320,
          "time": 400.4207285,
          "velocity": 0.47244094488188976
        },
        {
          "duration": 2.1428564999999935,
          "durationTicks": 720,
          "midi": 81,
          "name": "A5",
          "ticks": 131040,
          "time": 402.563585,
          "velocity": 0.47244094488188976
        },
        {
          "duration": 2.1428564999999935,
          "durationTicks": 720,
          "midi": 80,
          "name": "G#5",
          "ticks": 131760,
          "time": 404.7064415,
          "velocity": 0.47244094488188976
        },
        {
          "duration": 0.5853655999999887,
          "durationTicks": 192,
          "midi": 78,
          "name": "F#5",
          "ticks": 132480,
          "time": 406.849298,
          "velocity": 0.47244094488188976
        },
        {
          "duration": 2.9268280000000004,
          "durationTicks": 960,
          "midi": 81,
          "name": "A5",
          "ticks": 133200,
          "time": 409.04441899999995,
          "velocity": 0.5511811023622047
        },
        {
          "duration": 0.7317070000000285,
          "durationTicks": 240,
          "midi": 80,
          "name": "G#5",
          "ticks": 134160,
          "time": 411.97124699999995,
          "velocity": 0.5511811023622047
        },
        {
          "duration": 0.7317069999999717,
          "durationTicks": 240,
          "midi": 78,
          "name": "F#5",
          "ticks": 134400,
          "time": 412.702954,
          "velocity": 0.5511811023622047
        },
        {
          "duration": 0.7317070000000285,
          "durationTicks": 240,
          "midi": 77,
          "name": "F5",
          "ticks": 134640,
          "time": 413.43466099999995,
          "velocity": 0.5511811023622047
        },
        {
          "duration": 0.7317069999999717,
          "durationTicks": 240,
          "midi": 78,
          "name": "F#5",
          "ticks": 134880,
          "time": 414.166368,
          "velocity": 0.5511811023622047
        },
        {
          "duration": 0.7317070000000285,
          "durationTicks": 240,
          "midi": 80,
          "name": "G#5",
          "ticks": 135120,
          "time": 414.89807499999995,
          "velocity": 0.5511811023622047
        },
        {
          "duration": 2.0853649499999847,
          "durationTicks": 684,
          "midi": 73,
          "name": "C#5",
          "ticks": 135360,
          "time": 415.629782,
          "velocity": 0.5511811023622047
        },
        {
          "duration": 2.9268280000000004,
          "durationTicks": 960,
          "midi": 81,
          "name": "A5",
          "ticks": 136080,
          "time": 417.82490299999995,
          "velocity": 0.5511811023622047
        },
        {
          "duration": 0.7317070000000285,
          "durationTicks": 240,
          "midi": 80,
          "name": "G#5",
          "ticks": 137040,
          "time": 420.75173099999995,
          "velocity": 0.5511811023622047
        },
        {
          "duration": 0.7317069999999717,
          "durationTicks": 240,
          "midi": 78,
          "name": "F#5",
          "ticks": 137280,
          "time": 421.483438,
          "velocity": 0.5511811023622047
        },
        {
          "duration": 0.7317070000000285,
          "durationTicks": 240,
          "midi": 77,
          "name": "F5",
          "ticks": 137520,
          "time": 422.21514499999995,
          "velocity": 0.5511811023622047
        },
        {
          "duration": 0.7317069999999717,
          "durationTicks": 240,
          "midi": 78,
          "name": "F#5",
          "ticks": 137760,
          "time": 422.946852,
          "velocity": 0.5511811023622047
        },
        {
          "duration": 0.7317070000000285,
          "durationTicks": 240,
          "midi": 80,
          "name": "G#5",
          "ticks": 138000,
          "time": 423.67855899999995,
          "velocity": 0.5511811023622047
        },
        {
          "duration": 2.0853649499999847,
          "durationTicks": 684,
          "midi": 73,
          "name": "C#5",
          "ticks": 138240,
          "time": 424.410266,
          "velocity": 0.5511811023622047
        },
        {
          "duration": 2.9451210000000287,
          "durationTicks": 960,
          "midi": 81,
          "name": "A5",
          "ticks": 138960,
          "time": 426.60538699999995,
          "velocity": 0.5511811023622047
        },
        {
          "duration": 0.75,
          "durationTicks": 240,
          "midi": 80,
          "name": "G#5",
          "ticks": 139920,
          "time": 429.550508,
          "velocity": 0.5511811023622047
        },
        {
          "duration": 0.75,
          "durationTicks": 240,
          "midi": 78,
          "name": "F#5",
          "ticks": 140160,
          "time": 430.300508,
          "velocity": 0.5511811023622047
        },
        {
          "duration": 0.7679484666666667,
          "durationTicks": 240,
          "midi": 77,
          "name": "F5",
          "ticks": 140400,
          "time": 431.050508,
          "velocity": 0.5511811023622047
        },
        {
          "duration": 0.7881239666666602,
          "durationTicks": 240,
          "midi": 78,
          "name": "F#5",
          "ticks": 140640,
          "time": 431.81845646666665,
          "velocity": 0.5511811023622047
        },
        {
          "duration": 0.8304090333333534,
          "durationTicks": 240,
          "midi": 80,
          "name": "G#5",
          "ticks": 140880,
          "time": 432.6065804333333,
          "velocity": 0.5511811023622047
        },
        {
          "duration": 0.4879877999999849,
          "durationTicks": 144,
          "midi": 78,
          "name": "F#5",
          "ticks": 141120,
          "time": 433.43698946666666,
          "velocity": 0.4409448818897638
        },
        {
          "duration": 0.4864862999999673,
          "durationTicks": 144,
          "midi": 78,
          "name": "F#5",
          "ticks": 141360,
          "time": 434.2493014666666,
          "velocity": 0.4409448818897638
        },
        {
          "duration": 0.4864862999999673,
          "durationTicks": 144,
          "midi": 85,
          "name": "C#6",
          "ticks": 141840,
          "time": 435.8709224666666,
          "velocity": 0.4409448818897638
        },
        {
          "duration": 0.4864862999999673,
          "durationTicks": 144,
          "midi": 85,
          "name": "C#6",
          "ticks": 142080,
          "time": 436.68173296666663,
          "velocity": 0.4409448818897638
        },
        {
          "duration": 0.49999977499999204,
          "durationTicks": 132,
          "midi": 90,
          "name": "F#6",
          "ticks": 142560,
          "time": 438.3558635666666,
          "velocity": 0.4409448818897638
        },
        {
          "duration": 0.49999977499999204,
          "durationTicks": 132,
          "midi": 90,
          "name": "F#6",
          "ticks": 142800,
          "time": 439.2649540666666,
          "velocity": 0.4409448818897638
        }
      ],
      "endOfTrackTicks": 142932
    },
    {
      "channel": 1,
      "controlChanges": {
        "7": [
          {
            "number": 7,
            "ticks": 0,
            "time": 0,
            "value": 0.5984251968503937
          }
        ],
        "10": [
          {
            "number": 10,
            "ticks": 0,
            "time": 0,
            "value": 0.5039370078740157
          }
        ],
        "91": [
          {
            "number": 91,
            "ticks": 0,
            "time": 0,
            "value": 0.7480314960629921
          }
        ]
      },
      "pitchBends": [],
      "instrument": {
        "family": "reed",
        "number": 71,
        "name": "clarinet"
      },
      "name": "",
      "notes": [
        {
          "duration": 3,
          "durationTicks": 960,
          "midi": 81,
          "name": "A5",
          "ticks": 18000,
          "time": 54,
          "velocity": 0.6299212598425197
        },
        {
          "duration": 0.75,
          "durationTicks": 240,
          "midi": 80,
          "name": "G#5",
          "ticks": 18960,
          "time": 57,
          "velocity": 0.6299212598425197
        },
        {
          "duration": 0.75,
          "durationTicks": 240,
          "midi": 78,
          "name": "F#5",
          "ticks": 19200,
          "time": 57.75,
          "velocity": 0.6299212598425197
        },
        {
          "duration": 0.75,
          "durationTicks": 240,
          "midi": 77,
          "name": "F5",
          "ticks": 19440,
          "time": 58.5,
          "velocity": 0.6299212598425197
        },
        {
          "duration": 0.75,
          "durationTicks": 240,
          "midi": 78,
          "name": "F#5",
          "ticks": 19680,
          "time": 59.25,
          "velocity": 0.6299212598425197
        },
        {
          "duration": 0.75,
          "durationTicks": 240,
          "midi": 80,
          "name": "G#5",
          "ticks": 19920,
          "time": 60,
          "velocity": 0.6299212598425197
        },
        {
          "duration": 2.1374999999999957,
          "durationTicks": 684,
          "midi": 73,
          "name": "C#5",
          "ticks": 20160,
          "time": 60.75,
          "velocity": 0.47244094488188976
        },
        {
          "duration": 3,
          "durationTicks": 960,
          "midi": 81,
          "name": "A5",
          "ticks": 23760,
          "time": 72,
          "velocity": 0.6299212598425197
        },
        {
          "duration": 0.75,
          "durationTicks": 240,
          "midi": 80,
          "name": "G#5",
          "ticks": 24720,
          "time": 75,
          "velocity": 0.6299212598425197
        },
        {
          "duration": 0.75,
          "durationTicks": 240,
          "midi": 78,
          "name": "F#5",
          "ticks": 24960,
          "time": 75.75,
          "velocity": 0.6299212598425197
        },
        {
          "duration": 0.75,
          "durationTicks": 240,
          "midi": 77,
          "name": "F5",
          "ticks": 25200,
          "time": 76.5,
          "velocity": 0.6299212598425197
        },
        {
          "duration": 0.75,
          "durationTicks": 240,
          "midi": 78,
          "name": "F#5",
          "ticks": 25440,
          "time": 77.25,
          "velocity": 0.6299212598425197
        },
        {
          "duration": 0.75,
          "durationTicks": 240,
          "midi": 80,
          "name": "G#5",
          "ticks": 25680,
          "time": 78,
          "velocity": 0.6299212598425197
        },
        {
          "duration": 0.75,
          "durationTicks": 240,
          "midi": 79,
          "name": "G5",
          "ticks": 25920,
          "time": 78.75,
          "velocity": 0.6299212598425197
        },
        {
          "duration": 0.75,
          "durationTicks": 240,
          "midi": 78,
          "name": "F#5",
          "ticks": 26160,
          "time": 79.5,
          "velocity": 0.6299212598425197
        },
        {
          "duration": 0.75,
          "durationTicks": 240,
          "midi": 76,
          "name": "E5",
          "ticks": 26400,
          "time": 80.25,
          "velocity": 0.6299212598425197
        },
        {
          "duration": 2.25,
          "durationTicks": 720,
          "midi": 74,
          "name": "D5",
          "ticks": 26640,
          "time": 81,
          "velocity": 0.6299212598425197
        },
        {
          "duration": 0.75,
          "durationTicks": 240,
          "midi": 73,
          "name": "C#5",
          "ticks": 27360,
          "time": 83.25,
          "velocity": 0.6299212598425197
        },
        {
          "duration": 0.75,
          "durationTicks": 240,
          "midi": 71,
          "name": "B4",
          "ticks": 27600,
          "time": 84,
          "velocity": 0.6299212598425197
        },
        {
          "duration": 1.5,
          "durationTicks": 480,
          "midi": 69,
          "name": "A4",
          "ticks": 27840,
          "time": 84.75,
          "velocity": 0.6299212598425197
        },
        {
          "duration": 0.44999999999998863,
          "durationTicks": 144,
          "midi": 71,
          "name": "B4",
          "ticks": 28320,
          "time": 86.25,
          "velocity": 0.6299212598425197
        },
        {
          "duration": 0.375,
          "durationTicks": 120,
          "midi": 68,
          "name": "G#4",
          "ticks": 28560,
          "time": 87,
          "velocity": 0.6299212598425197
        },
        {
          "duration": 1.4250000000000114,
          "durationTicks": 456,
          "midi": 66,
          "name": "F#4",
          "ticks": 28800,
          "time": 87.75,
          "velocity": 0.5511811023622047
        },
        {
          "duration": 2.25,
          "durationTicks": 720,
          "midi": 71,
          "name": "B4",
          "ticks": 46080,
          "time": 141.75,
          "velocity": 0.47244094488188976
        },
        {
          "duration": 2.25,
          "durationTicks": 720,
          "midi": 72,
          "name": "C5",
          "ticks": 46800,
          "time": 144,
          "velocity": 0.47244094488188976
        },
        {
          "duration": 0.6000000000000227,
          "durationTicks": 192,
          "midi": 71,
          "name": "B4",
          "ticks": 47520,
          "time": 146.25,
          "velocity": 0.47244094488188976
        },
        {
          "duration": 2.1428564999999935,
          "durationTicks": 720,
          "midi": 73,
          "name": "C#5",
          "ticks": 50400,
          "time": 155.4118725,
          "velocity": 0.47244094488188976
        },
        {
          "duration": 1.4285710000000051,
          "durationTicks": 480,
          "midi": 69,
          "name": "A4",
          "ticks": 51120,
          "time": 157.55472899999998,
          "velocity": 0.47244094488188976
        },
        {
          "duration": 0.17857137499998998,
          "durationTicks": 60,
          "midi": 71,
          "name": "B4",
          "ticks": 51600,
          "time": 158.98329999999999,
          "velocity": 0.47244094488188976
        },
        {
          "duration": 0.1785713750000184,
          "durationTicks": 60,
          "midi": 69,
          "name": "A4",
          "ticks": 51660,
          "time": 159.16187137499998,
          "velocity": 0.47244094488188976
        },
        {
          "duration": 0.17857137499998998,
          "durationTicks": 60,
          "midi": 68,
          "name": "G#4",
          "ticks": 51720,
          "time": 159.34044275,
          "velocity": 0.47244094488188976
        },
        {
          "duration": 0.17857137499998998,
          "durationTicks": 60,
          "midi": 69,
          "name": "A4",
          "ticks": 51780,
          "time": 159.51901412499998,
          "velocity": 0.47244094488188976
        },
        {
          "duration": 0.42857130000001575,
          "durationTicks": 144,
          "midi": 71,
          "name": "B4",
          "ticks": 51840,
          "time": 159.69758549999997,
          "velocity": 0.47244094488188976
        },
        {
          "duration": 0.42857129999998733,
          "durationTicks": 144,
          "midi": 71,
          "name": "B4",
          "ticks": 52080,
          "time": 160.411871,
          "velocity": 0.47244094488188976
        },
        {
          "duration": 0.42857130000001575,
          "durationTicks": 144,
          "midi": 71,
          "name": "B4",
          "ticks": 52320,
          "time": 161.12615649999998,
          "velocity": 0.47244094488188976
        },
        {
          "duration": 0.5714284000000021,
          "durationTicks": 192,
          "midi": 71,
          "name": "B4",
          "ticks": 52560,
          "time": 161.840442,
          "velocity": 0.47244094488188976
        },
        {
          "duration": 0.35714274999997997,
          "durationTicks": 120,
          "midi": 73,
          "name": "C#5",
          "ticks": 53400,
          "time": 164.34044125,
          "velocity": 0.5511811023622047
        },
        {
          "duration": 0.3571427500000084,
          "durationTicks": 120,
          "midi": 74,
          "name": "D5",
          "ticks": 53520,
          "time": 164.69758399999998,
          "velocity": 0.5511811023622047
        },
        {
          "duration": 0.3571427500000084,
          "durationTicks": 120,
          "midi": 76,
          "name": "E5",
          "ticks": 53640,
          "time": 165.05472675,
          "velocity": 0.5511811023622047
        },
        {
          "duration": 0.35714274999997997,
          "durationTicks": 120,
          "midi": 78,
          "name": "F#5",
          "ticks": 53760,
          "time": 165.4118695,
          "velocity": 0.5511811023622047
        },
        {
          "duration": 0.3571427500000084,
          "durationTicks": 120,
          "midi": 80,
          "name": "G#5",
          "ticks": 53880,
          "time": 165.76901224999997,
          "velocity": 0.5511811023622047
        },
        {
          "duration": 0.3571427500000084,
          "durationTicks": 120,
          "midi": 81,
          "name": "A5",
          "ticks": 54000,
          "time": 166.12615499999998,
          "velocity": 0.5511811023622047
        },
        {
          "duration": 0.3571427500000084,
          "durationTicks": 120,
          "midi": 83,
          "name": "B5",
          "ticks": 54120,
          "time": 166.48329775,
          "velocity": 0.5511811023622047
        },
        {
          "duration": 0.35714274999997997,
          "durationTicks": 120,
          "midi": 85,
          "name": "C#6",
          "ticks": 54240,
          "time": 166.8404405,
          "velocity": 0.5511811023622047
        },
        {
          "duration": 0.3571427500000084,
          "durationTicks": 120,
          "midi": 73,
          "name": "C#5",
          "ticks": 54360,
          "time": 167.19758324999998,
          "velocity": 0.5511811023622047
        },
        {
          "duration": 0.3571427500000084,
          "durationTicks": 120,
          "midi": 74,
          "name": "D5",
          "ticks": 54480,
          "time": 167.554726,
          "velocity": 0.5511811023622047
        },
        {
          "duration": 0.35714274999997997,
          "durationTicks": 120,
          "midi": 75,
          "name": "D#5",
          "ticks": 54600,
          "time": 167.91186875,
          "velocity": 0.5511811023622047
        },
        {
          "duration": 0.3571427500000084,
          "durationTicks": 120,
          "midi": 76,
          "name": "E5",
          "ticks": 54720,
          "time": 168.26901149999998,
          "velocity": 0.5511811023622047
        },
        {
          "duration": 0.3571427500000084,
          "durationTicks": 120,
          "midi": 75,
          "name": "D#5",
          "ticks": 54840,
          "time": 168.62615424999998,
          "velocity": 0.5511811023622047
        },
        {
          "duration": 0.35714274999997997,
          "durationTicks": 120,
          "midi": 76,
          "name": "E5",
          "ticks": 54960,
          "time": 168.983297,
          "velocity": 0.5511811023622047
        },
        {
          "duration": 0.3571427500000084,
          "durationTicks": 120,
          "midi": 75,
          "name": "D#5",
          "ticks": 55080,
          "time": 169.34043974999997,
          "velocity": 0.5511811023622047
        },
        {
          "duration": 0.3571427500000084,
          "durationTicks": 120,
          "midi": 76,
          "name": "E5",
          "ticks": 55200,
          "time": 169.69758249999998,
          "velocity": 0.5511811023622047
        },
        {
          "duration": 0.3571427500000084,
          "durationTicks": 120,
          "midi": 73,
          "name": "C#5",
          "ticks": 55320,
          "time": 170.05472525,
          "velocity": 0.5511811023622047
        },
        {
          "duration": 0.5714284000000021,
          "durationTicks": 192,
          "midi": 71,
          "name": "B4",
          "ticks": 55440,
          "time": 170.411868,
          "velocity": 0.5511811023622047
        },
        {
          "duration": 2.1428564999999935,
          "durationTicks": 720,
          "midi": 76,
          "name": "E5",
          "ticks": 56160,
          "time": 172.5547245,
          "velocity": 0.47244094488188976
        },
        {
          "duration": 1.4285710000000051,
          "durationTicks": 480,
          "midi": 73,
          "name": "C#5",
          "ticks": 56880,
          "time": 174.69758099999999,
          "velocity": 0.47244094488188976
        },
        {
          "duration": 0.17857137499998998,
          "durationTicks": 60,
          "midi": 74,
          "name": "D5",
          "ticks": 57360,
          "time": 176.126152,
          "velocity": 0.47244094488188976
        },
        {
          "duration": 0.1785713750000184,
          "durationTicks": 60,
          "midi": 73,
          "name": "C#5",
          "ticks": 57420,
          "time": 176.30472337499998,
          "velocity": 0.47244094488188976
        },
        {
          "duration": 0.17857137499998998,
          "durationTicks": 60,
          "midi": 71,
          "name": "B4",
          "ticks": 57480,
          "time": 176.48329475,
          "velocity": 0.47244094488188976
        },
        {
          "duration": 0.17857137499998998,
          "durationTicks": 60,
          "midi": 73,
          "name": "C#5",
          "ticks": 57540,
          "time": 176.661866125,
          "velocity": 0.47244094488188976
        },
        {
          "duration": 0.42857130000001575,
          "durationTicks": 144,
          "midi": 74,
          "name": "D5",
          "ticks": 57600,
          "time": 176.84043749999998,
          "velocity": 0.47244094488188976
        },
        {
          "duration": 0.42857129999998733,
          "durationTicks": 144,
          "midi": 74,
          "name": "D5",
          "ticks": 57840,
          "time": 177.554723,
          "velocity": 0.47244094488188976
        },
        {
          "duration": 0.42857130000001575,
          "durationTicks": 144,
          "midi": 74,
          "name": "D5",
          "ticks": 58080,
          "time": 178.26900849999998,
          "velocity": 0.47244094488188976
        },
        {
          "duration": 0.5714283999999736,
          "durationTicks": 192,
          "midi": 74,
          "name": "D5",
          "ticks": 58320,
          "time": 178.983294,
          "velocity": 0.47244094488188976
        },
        {
          "duration": 1.4285710000000051,
          "durationTicks": 480,
          "midi": 74,
          "name": "D5",
          "ticks": 61920,
          "time": 189.6975765,
          "velocity": 0.5511811023622047
        },
        {
          "duration": 0.7142854999999884,
          "durationTicks": 240,
          "midi": 73,
          "name": "C#5",
          "ticks": 62400,
          "time": 191.1261475,
          "velocity": 0.5196850393700787
        },
        {
          "duration": 0.5714284000000021,
          "durationTicks": 192,
          "midi": 71,
          "name": "B4",
          "ticks": 62640,
          "time": 191.840433,
          "velocity": 0.5118110236220472
        },
        {
          "duration": 1.4285710000000051,
          "durationTicks": 480,
          "midi": 76,
          "name": "E5",
          "ticks": 63360,
          "time": 193.98328949999998,
          "velocity": 0.5748031496062992
        },
        {
          "duration": 0.7142855000000168,
          "durationTicks": 240,
          "midi": 74,
          "name": "D5",
          "ticks": 63840,
          "time": 195.4118605,
          "velocity": 0.5354330708661418
        },
        {
          "duration": 0.5714283999999736,
          "durationTicks": 192,
          "midi": 73,
          "name": "C#5",
          "ticks": 64080,
          "time": 196.126146,
          "velocity": 0.5275590551181102
        },
        {
          "duration": 2.1951210000000003,
          "durationTicks": 720,
          "midi": 73,
          "name": "C#5",
          "ticks": 73440,
          "time": 223.98328049999998,
          "velocity": 0.47244094488188976
        },
        {
          "duration": 2.1951210000000003,
          "durationTicks": 720,
          "midi": 71,
          "name": "B4",
          "ticks": 74160,
          "time": 226.17840149999998,
          "velocity": 0.47244094488188976
        },
        {
          "duration": 2.232644999999991,
          "durationTicks": 720,
          "midi": 69,
          "name": "A4",
          "ticks": 74880,
          "time": 228.37352249999998,
          "velocity": 0.47244094488188976
        },
        {
          "duration": 1.6002840000000162,
          "durationTicks": 480,
          "midi": 68,
          "name": "G#4",
          "ticks": 75600,
          "time": 230.60616749999997,
          "velocity": 0.4645669291338583
        },
        {
          "duration": 0.857142500000009,
          "durationTicks": 240,
          "midi": 71,
          "name": "B4",
          "ticks": 76080,
          "time": 232.2064515,
          "velocity": 0.4409448818897638
        },
        {
          "duration": 1.1999999999999886,
          "durationTicks": 384,
          "midi": 69,
          "name": "A4",
          "ticks": 76320,
          "time": 233.063594,
          "velocity": 0.4330708661417323
        },
        {
          "duration": 4.5,
          "durationTicks": 1440,
          "midi": 66,
          "name": "F#4",
          "ticks": 92160,
          "time": 282.56359399999997,
          "velocity": 0.47244094488188976
        },
        {
          "duration": 5.100000000000023,
          "durationTicks": 1632,
          "midi": 74,
          "name": "D5",
          "ticks": 92160,
          "time": 282.56359399999997,
          "velocity": 0.47244094488188976
        },
        {
          "duration": 0.6000000000000227,
          "durationTicks": 192,
          "midi": 67,
          "name": "G4",
          "ticks": 93600,
          "time": 287.06359399999997,
          "velocity": 0.47244094488188976
        },
        {
          "duration": 3,
          "durationTicks": 960,
          "midi": 81,
          "name": "A5",
          "ticks": 98640,
          "time": 302.81359399999997,
          "velocity": 0.6299212598425197
        },
        {
          "duration": 0.75,
          "durationTicks": 240,
          "midi": 80,
          "name": "G#5",
          "ticks": 99600,
          "time": 305.81359399999997,
          "velocity": 0.6299212598425197
        },
        {
          "duration": 0.75,
          "durationTicks": 240,
          "midi": 78,
          "name": "F#5",
          "ticks": 99840,
          "time": 306.56359399999997,
          "velocity": 0.6299212598425197
        },
        {
          "duration": 0.75,
          "durationTicks": 240,
          "midi": 77,
          "name": "F5",
          "ticks": 100080,
          "time": 307.31359399999997,
          "velocity": 0.6299212598425197
        },
        {
          "duration": 0.75,
          "durationTicks": 240,
          "midi": 78,
          "name": "F#5",
          "ticks": 100320,
          "time": 308.06359399999997,
          "velocity": 0.6299212598425197
        },
        {
          "duration": 0.75,
          "durationTicks": 240,
          "midi": 80,
          "name": "G#5",
          "ticks": 100560,
          "time": 308.81359399999997,
          "velocity": 0.6299212598425197
        },
        {
          "duration": 2.25,
          "durationTicks": 720,
          "midi": 73,
          "name": "C#5",
          "ticks": 100800,
          "time": 309.56359399999997,
          "velocity": 0.47244094488188976
        },
        {
          "duration": 3,
          "durationTicks": 960,
          "midi": 81,
          "name": "A5",
          "ticks": 104400,
          "time": 320.81359399999997,
          "velocity": 0.6299212598425197
        },
        {
          "duration": 0.75,
          "durationTicks": 240,
          "midi": 80,
          "name": "G#5",
          "ticks": 105360,
          "time": 323.81359399999997,
          "velocity": 0.6299212598425197
        },
        {
          "duration": 0.75,
          "durationTicks": 240,
          "midi": 78,
          "name": "F#5",
          "ticks": 105600,
          "time": 324.56359399999997,
          "velocity": 0.6299212598425197
        },
        {
          "duration": 0.75,
          "durationTicks": 240,
          "midi": 77,
          "name": "F5",
          "ticks": 105840,
          "time": 325.31359399999997,
          "velocity": 0.6299212598425197
        },
        {
          "duration": 0.75,
          "durationTicks": 240,
          "midi": 78,
          "name": "F#5",
          "ticks": 106080,
          "time": 326.06359399999997,
          "velocity": 0.6299212598425197
        },
        {
          "duration": 0.75,
          "durationTicks": 240,
          "midi": 80,
          "name": "G#5",
          "ticks": 106320,
          "time": 326.81359399999997,
          "velocity": 0.6299212598425197
        },
        {
          "duration": 0.75,
          "durationTicks": 240,
          "midi": 79,
          "name": "G5",
          "ticks": 106560,
          "time": 327.56359399999997,
          "velocity": 0.6299212598425197
        },
        {
          "duration": 0.75,
          "durationTicks": 240,
          "midi": 78,
          "name": "F#5",
          "ticks": 106800,
          "time": 328.31359399999997,
          "velocity": 0.6299212598425197
        },
        {
          "duration": 0.75,
          "durationTicks": 240,
          "midi": 76,
          "name": "E5",
          "ticks": 107040,
          "time": 329.06359399999997,
          "velocity": 0.6299212598425197
        },
        {
          "duration": 2.25,
          "durationTicks": 720,
          "midi": 74,
          "name": "D5",
          "ticks": 107280,
          "time": 329.81359399999997,
          "velocity": 0.6299212598425197
        },
        {
          "duration": 0.75,
          "durationTicks": 240,
          "midi": 73,
          "name": "C#5",
          "ticks": 108000,
          "time": 332.06359399999997,
          "velocity": 0.6299212598425197
        },
        {
          "duration": 0.7125000000000341,
          "durationTicks": 228,
          "midi": 71,
          "name": "B4",
          "ticks": 108240,
          "time": 332.81359399999997,
          "velocity": 0.6299212598425197
        },
        {
          "duration": 1.5,
          "durationTicks": 480,
          "midi": 69,
          "name": "A4",
          "ticks": 108480,
          "time": 333.56359399999997,
          "velocity": 0.6299212598425197
        },
        {
          "duration": 0.4500000000000455,
          "durationTicks": 144,
          "midi": 71,
          "name": "B4",
          "ticks": 108960,
          "time": 335.06359399999997,
          "velocity": 0.6299212598425197
        },
        {
          "duration": 0.4500000000000455,
          "durationTicks": 144,
          "midi": 68,
          "name": "G#4",
          "ticks": 109200,
          "time": 335.81359399999997,
          "velocity": 0.6299212598425197
        },
        {
          "duration": 1.4250000000000682,
          "durationTicks": 456,
          "midi": 66,
          "name": "F#4",
          "ticks": 109440,
          "time": 336.56359399999997,
          "velocity": 0.5511811023622047
        },
        {
          "duration": 4.5,
          "durationTicks": 1440,
          "midi": 81,
          "name": "A5",
          "ticks": 115920,
          "time": 356.81359399999997,
          "velocity": 0.47244094488188976
        },
        {
          "duration": 4.5,
          "durationTicks": 1440,
          "midi": 80,
          "name": "G#5",
          "ticks": 117360,
          "time": 361.31359399999997,
          "velocity": 0.47244094488188976
        },
        {
          "duration": 4.5,
          "durationTicks": 1440,
          "midi": 78,
          "name": "F#5",
          "ticks": 118800,
          "time": 365.81359399999997,
          "velocity": 0.47244094488188976
        },
        {
          "duration": 2.25,
          "durationTicks": 720,
          "midi": 77,
          "name": "F5",
          "ticks": 120240,
          "time": 370.31359399999997,
          "velocity": 0.47244094488188976
        },
        {
          "duration": 1.1428568000000041,
          "durationTicks": 384,
          "midi": 78,
          "name": "F#5",
          "ticks": 120960,
          "time": 372.56359399999997,
          "velocity": 0.47244094488188976
        },
        {
          "duration": 8.571425999999974,
          "durationTicks": 2880,
          "midi": 78,
          "name": "F#5",
          "ticks": 126720,
          "time": 389.70644599999997,
          "velocity": 0.47244094488188976
        },
        {
          "duration": 4.285713000000044,
          "durationTicks": 1440,
          "midi": 79,
          "name": "G5",
          "ticks": 129600,
          "time": 398.27787199999995,
          "velocity": 0.47244094488188976
        },
        {
          "duration": 2.1428564999999935,
          "durationTicks": 720,
          "midi": 78,
          "name": "F#5",
          "ticks": 131040,
          "time": 402.563585,
          "velocity": 0.47244094488188976
        },
        {
          "duration": 2.1428564999999935,
          "durationTicks": 720,
          "midi": 77,
          "name": "F5",
          "ticks": 131760,
          "time": 404.7064415,
          "velocity": 0.47244094488188976
        },
        {
          "duration": 0.5853655999999887,
          "durationTicks": 192,
          "midi": 78,
          "name": "F#5",
          "ticks": 132480,
          "time": 406.849298,
          "velocity": 0.47244094488188976
        },
        {
          "duration": 2.9268280000000004,
          "durationTicks": 960,
          "midi": 69,
          "name": "A4",
          "ticks": 136080,
          "time": 417.82490299999995,
          "velocity": 0.47244094488188976
        },
        {
          "duration": 0.7317070000000285,
          "durationTicks": 240,
          "midi": 68,
          "name": "G#4",
          "ticks": 137040,
          "time": 420.75173099999995,
          "velocity": 0.47244094488188976
        },
        {
          "duration": 0.7317069999999717,
          "durationTicks": 240,
          "midi": 66,
          "name": "F#4",
          "ticks": 137280,
          "time": 421.483438,
          "velocity": 0.47244094488188976
        },
        {
          "duration": 0.7317070000000285,
          "durationTicks": 240,
          "midi": 65,
          "name": "F4",
          "ticks": 137520,
          "time": 422.21514499999995,
          "velocity": 0.47244094488188976
        },
        {
          "duration": 0.7317069999999717,
          "durationTicks": 240,
          "midi": 66,
          "name": "F#4",
          "ticks": 137760,
          "time": 422.946852,
          "velocity": 0.47244094488188976
        },
        {
          "duration": 0.7317070000000285,
          "durationTicks": 240,
          "midi": 68,
          "name": "G#4",
          "ticks": 138000,
          "time": 423.67855899999995,
          "velocity": 0.47244094488188976
        },
        {
          "duration": 2.0853649499999847,
          "durationTicks": 684,
          "midi": 61,
          "name": "C#4",
          "ticks": 138240,
          "time": 424.410266,
          "velocity": 0.47244094488188976
        },
        {
          "duration": 2.9451210000000287,
          "durationTicks": 960,
          "midi": 69,
          "name": "A4",
          "ticks": 138960,
          "time": 426.60538699999995,
          "velocity": 0.47244094488188976
        },
        {
          "duration": 0.75,
          "durationTicks": 240,
          "midi": 68,
          "name": "G#4",
          "ticks": 139920,
          "time": 429.550508,
          "velocity": 0.47244094488188976
        },
        {
          "duration": 0.75,
          "durationTicks": 240,
          "midi": 66,
          "name": "F#4",
          "ticks": 140160,
          "time": 430.300508,
          "velocity": 0.47244094488188976
        },
        {
          "duration": 0.7679484666666667,
          "durationTicks": 240,
          "midi": 65,
          "name": "F4",
          "ticks": 140400,
          "time": 431.050508,
          "velocity": 0.47244094488188976
        },
        {
          "duration": 0.7881239666666602,
          "durationTicks": 240,
          "midi": 66,
          "name": "F#4",
          "ticks": 140640,
          "time": 431.81845646666665,
          "velocity": 0.47244094488188976
        },
        {
          "duration": 0.8304090333333534,
          "durationTicks": 240,
          "midi": 68,
          "name": "G#4",
          "ticks": 140880,
          "time": 432.6065804333333,
          "velocity": 0.47244094488188976
        },
        {
          "duration": 0.4879877999999849,
          "durationTicks": 144,
          "midi": 66,
          "name": "F#4",
          "ticks": 141120,
          "time": 433.43698946666666,
          "velocity": 0.4330708661417323
        },
        {
          "duration": 0.4864862999999673,
          "durationTicks": 144,
          "midi": 73,
          "name": "C#5",
          "ticks": 141360,
          "time": 434.2493014666666,
          "velocity": 0.4330708661417323
        },
        {
          "duration": 0.4864862999999673,
          "durationTicks": 144,
          "midi": 78,
          "name": "F#5",
          "ticks": 141840,
          "time": 435.8709224666666,
          "velocity": 0.4330708661417323
        },
        {
          "duration": 0.4864862999999673,
          "durationTicks": 144,
          "midi": 78,
          "name": "F#5",
          "ticks": 142080,
          "time": 436.68173296666663,
          "velocity": 0.4330708661417323
        },
        {
          "duration": 0.49999977499999204,
          "durationTicks": 132,
          "midi": 81,
          "name": "A5",
          "ticks": 142560,
          "time": 438.3558635666666,
          "velocity": 0.4330708661417323
        },
        {
          "duration": 0.49999977499999204,
          "durationTicks": 132,
          "midi": 81,
          "name": "A5",
          "ticks": 142800,
          "time": 439.2649540666666,
          "velocity": 0.4330708661417323
        }
      ],
      "endOfTrackTicks": 142932
    },
    {
      "channel": 2,
      "controlChanges": {
        "7": [
          {
            "number": 7,
            "ticks": 0,
            "time": 0,
            "value": 0.5905511811023622
          }
        ],
        "10": [
          {
            "number": 10,
            "ticks": 0,
            "time": 0,
            "value": 0.5039370078740157
          }
        ],
        "91": [
          {
            "number": 91,
            "ticks": 0,
            "time": 0,
            "value": 0.7480314960629921
          }
        ]
      },
      "pitchBends": [],
      "instrument": {
        "family": "reed",
        "number": 71,
        "name": "clarinet"
      },
      "name": "",
      "notes": [
        {
          "duration": 2.25,
          "durationTicks": 720,
          "midi": 73,
          "name": "C#5",
          "ticks": 23760,
          "time": 72,
          "velocity": 0.6299212598425197
        },
        {
          "duration": 2.25,
          "durationTicks": 720,
          "midi": 75,
          "name": "D#5",
          "ticks": 24480,
          "time": 74.25,
          "velocity": 0.6299212598425197
        },
        {
          "duration": 2.25,
          "durationTicks": 720,
          "midi": 74,
          "name": "D5",
          "ticks": 25200,
          "time": 76.5,
          "velocity": 0.6299212598425197
        },
        {
          "duration": 3,
          "durationTicks": 960,
          "midi": 73,
          "name": "C#5",
          "ticks": 25920,
          "time": 78.75,
          "velocity": 0.6299212598425197
        },
        {
          "duration": 0.75,
          "durationTicks": 240,
          "midi": 71,
          "name": "B4",
          "ticks": 26880,
          "time": 81.75,
          "velocity": 0.6299212598425197
        },
        {
          "duration": 0.75,
          "durationTicks": 240,
          "midi": 69,
          "name": "A4",
          "ticks": 27120,
          "time": 82.5,
          "velocity": 0.6299212598425197
        },
        {
          "duration": 0.75,
          "durationTicks": 240,
          "midi": 68,
          "name": "G#4",
          "ticks": 27360,
          "time": 83.25,
          "velocity": 0.6299212598425197
        },
        {
          "duration": 0.75,
          "durationTicks": 240,
          "midi": 65,
          "name": "F4",
          "ticks": 27600,
          "time": 84,
          "velocity": 0.6299212598425197
        },
        {
          "duration": 1.5,
          "durationTicks": 480,
          "midi": 66,
          "name": "F#4",
          "ticks": 27840,
          "time": 84.75,
          "velocity": 0.6299212598425197
        },
        {
          "duration": 0.44999999999998863,
          "durationTicks": 144,
          "midi": 68,
          "name": "G#4",
          "ticks": 28320,
          "time": 86.25,
          "velocity": 0.6299212598425197
        },
        {
          "duration": 0.375,
          "durationTicks": 120,
          "midi": 65,
          "name": "F4",
          "ticks": 28560,
          "time": 87,
          "velocity": 0.6299212598425197
        },
        {
          "duration": 2.25,
          "durationTicks": 720,
          "midi": 68,
          "name": "G#4",
          "ticks": 46080,
          "time": 141.75,
          "velocity": 0.47244094488188976
        },
        {
          "duration": 2.25,
          "durationTicks": 720,
          "midi": 69,
          "name": "A4",
          "ticks": 46800,
          "time": 144,
          "velocity": 0.47244094488188976
        },
        {
          "duration": 0.6000000000000227,
          "durationTicks": 192,
          "midi": 68,
          "name": "G#4",
          "ticks": 47520,
          "time": 146.25,
          "velocity": 0.47244094488188976
        },
        {
          "duration": 0.1428570999999863,
          "durationTicks": 48,
          "midi": 52,
          "name": "E3",
          "ticks": 50400,
          "time": 155.4118725,
          "velocity": 0.5511811023622047
        },
        {
          "duration": 0.14285710000001473,
          "durationTicks": 48,
          "midi": 57,
          "name": "A3",
          "ticks": 50480,
          "time": 155.64996766666664,
          "velocity": 0.5511811023622047
        },
        {
          "duration": 0.1428570999999863,
          "durationTicks": 48,
          "midi": 61,
          "name": "C#4",
          "ticks": 50560,
          "time": 155.88806283333332,
          "velocity": 0.5511811023622047
        },
        {
          "duration": 0.14285710000001473,
          "durationTicks": 48,
          "midi": 64,
          "name": "E4",
          "ticks": 50640,
          "time": 156.12615799999998,
          "velocity": 0.5511811023622047
        },
        {
          "duration": 0.1428570999999863,
          "durationTicks": 48,
          "midi": 61,
          "name": "C#4",
          "ticks": 50720,
          "time": 156.36425316666666,
          "velocity": 0.5511811023622047
        },
        {
          "duration": 0.14285710000001473,
          "durationTicks": 48,
          "midi": 57,
          "name": "A3",
          "ticks": 50800,
          "time": 156.6023483333333,
          "velocity": 0.5511811023622047
        },
        {
          "duration": 0.1428570999999863,
          "durationTicks": 48,
          "midi": 52,
          "name": "E3",
          "ticks": 50880,
          "time": 156.8404435,
          "velocity": 0.5511811023622047
        },
        {
          "duration": 0.14285710000001473,
          "durationTicks": 48,
          "midi": 57,
          "name": "A3",
          "ticks": 50960,
          "time": 157.07853866666665,
          "velocity": 0.5511811023622047
        },
        {
          "duration": 0.1428570999999863,
          "durationTicks": 48,
          "midi": 61,
          "name": "C#4",
          "ticks": 51040,
          "time": 157.31663383333333,
          "velocity": 0.5511811023622047
        },
        {
          "duration": 0.14285710000001473,
          "durationTicks": 48,
          "midi": 52,
          "name": "E3",
          "ticks": 51120,
          "time": 157.55472899999998,
          "velocity": 0.5511811023622047
        },
        {
          "duration": 0.1428570999999863,
          "durationTicks": 48,
          "midi": 57,
          "name": "A3",
          "ticks": 51200,
          "time": 157.79282416666666,
          "velocity": 0.5511811023622047
        },
        {
          "duration": 0.14285710000001473,
          "durationTicks": 48,
          "midi": 61,
          "name": "C#4",
          "ticks": 51280,
          "time": 158.03091933333332,
          "velocity": 0.5511811023622047
        },
        {
          "duration": 0.1428570999999863,
          "durationTicks": 48,
          "midi": 64,
          "name": "E4",
          "ticks": 51360,
          "time": 158.2690145,
          "velocity": 0.5511811023622047
        },
        {
          "duration": 0.14285710000001473,
          "durationTicks": 48,
          "midi": 61,
          "name": "C#4",
          "ticks": 51440,
          "time": 158.50710966666665,
          "velocity": 0.5511811023622047
        },
        {
          "duration": 0.1428570999999863,
          "durationTicks": 48,
          "midi": 57,
          "name": "A3",
          "ticks": 51520,
          "time": 158.74520483333333,
          "velocity": 0.5511811023622047
        },
        {
          "duration": 0.14285710000001473,
          "durationTicks": 48,
          "midi": 52,
          "name": "E3",
          "ticks": 51600,
          "time": 158.98329999999999,
          "velocity": 0.5511811023622047
        },
        {
          "duration": 0.1428570999999863,
          "durationTicks": 48,
          "midi": 57,
          "name": "A3",
          "ticks": 51680,
          "time": 159.22139516666667,
          "velocity": 0.5511811023622047
        },
        {
          "duration": 0.1428570999999863,
          "durationTicks": 48,
          "midi": 61,
          "name": "C#4",
          "ticks": 51760,
          "time": 159.45949033333332,
          "velocity": 0.5511811023622047
        },
        {
          "duration": 0.14285710000001473,
          "durationTicks": 48,
          "midi": 52,
          "name": "E3",
          "ticks": 51840,
          "time": 159.69758549999997,
          "velocity": 0.5511811023622047
        },
        {
          "duration": 0.1428570999999863,
          "durationTicks": 48,
          "midi": 56,
          "name": "G#3",
          "ticks": 51920,
          "time": 159.93568066666666,
          "velocity": 0.5511811023622047
        },
        {
          "duration": 0.14285710000001473,
          "durationTicks": 48,
          "midi": 59,
          "name": "B3",
          "ticks": 52000,
          "time": 160.1737758333333,
          "velocity": 0.5511811023622047
        },
        {
          "duration": 0.1428570999999863,
          "durationTicks": 48,
          "midi": 64,
          "name": "E4",
          "ticks": 52080,
          "time": 160.411871,
          "velocity": 0.5511811023622047
        },
        {
          "duration": 0.14285710000001473,
          "durationTicks": 48,
          "midi": 59,
          "name": "B3",
          "ticks": 52160,
          "time": 160.64996616666664,
          "velocity": 0.5511811023622047
        },
        {
          "duration": 0.1428570999999863,
          "durationTicks": 48,
          "midi": 56,
          "name": "G#3",
          "ticks": 52240,
          "time": 160.88806133333333,
          "velocity": 0.5511811023622047
        },
        {
          "duration": 0.14285710000001473,
          "durationTicks": 48,
          "midi": 52,
          "name": "E3",
          "ticks": 52320,
          "time": 161.12615649999998,
          "velocity": 0.5511811023622047
        },
        {
          "duration": 0.1428570999999863,
          "durationTicks": 48,
          "midi": 56,
          "name": "G#3",
          "ticks": 52400,
          "time": 161.36425166666666,
          "velocity": 0.5511811023622047
        },
        {
          "duration": 0.14285710000001473,
          "durationTicks": 48,
          "midi": 59,
          "name": "B3",
          "ticks": 52480,
          "time": 161.6023468333333,
          "velocity": 0.5511811023622047
        },
        {
          "duration": 0.1428570999999863,
          "durationTicks": 48,
          "midi": 52,
          "name": "E3",
          "ticks": 52560,
          "time": 161.840442,
          "velocity": 0.5511811023622047
        },
        {
          "duration": 0.14285710000001473,
          "durationTicks": 48,
          "midi": 56,
          "name": "G#3",
          "ticks": 52640,
          "time": 162.07853716666665,
          "velocity": 0.5511811023622047
        },
        {
          "duration": 0.1428570999999863,
          "durationTicks": 48,
          "midi": 59,
          "name": "B3",
          "ticks": 52720,
          "time": 162.31663233333333,
          "velocity": 0.5511811023622047
        },
        {
          "duration": 0.14285710000001473,
          "durationTicks": 48,
          "midi": 64,
          "name": "E4",
          "ticks": 52800,
          "time": 162.55472749999998,
          "velocity": 0.5511811023622047
        },
        {
          "duration": 0.1428570999999863,
          "durationTicks": 48,
          "midi": 59,
          "name": "B3",
          "ticks": 52880,
          "time": 162.79282266666667,
          "velocity": 0.5511811023622047
        },
        {
          "duration": 0.14285710000001473,
          "durationTicks": 48,
          "midi": 56,
          "name": "G#3",
          "ticks": 52960,
          "time": 163.03091783333332,
          "velocity": 0.5511811023622047
        },
        {
          "duration": 0.14285710000001473,
          "durationTicks": 48,
          "midi": 52,
          "name": "E3",
          "ticks": 53040,
          "time": 163.26901299999997,
          "velocity": 0.5511811023622047
        },
        {
          "duration": 0.1428570999999863,
          "durationTicks": 48,
          "midi": 56,
          "name": "G#3",
          "ticks": 53120,
          "time": 163.50710816666665,
          "velocity": 0.5511811023622047
        },
        {
          "duration": 0.14285710000001473,
          "durationTicks": 48,
          "midi": 59,
          "name": "B3",
          "ticks": 53200,
          "time": 163.7452033333333,
          "velocity": 0.5511811023622047
        },
        {
          "duration": 0.5714284000000021,
          "durationTicks": 192,
          "midi": 57,
          "name": "A3",
          "ticks": 53280,
          "time": 163.9832985,
          "velocity": 0.47244094488188976
        },
        {
          "duration": 0.3571427500000084,
          "durationTicks": 120,
          "midi": 69,
          "name": "A4",
          "ticks": 54360,
          "time": 167.19758324999998,
          "velocity": 0.47244094488188976
        },
        {
          "duration": 0.3571427500000084,
          "durationTicks": 120,
          "midi": 71,
          "name": "B4",
          "ticks": 54480,
          "time": 167.554726,
          "velocity": 0.47244094488188976
        },
        {
          "duration": 0.35714274999997997,
          "durationTicks": 120,
          "midi": 72,
          "name": "C5",
          "ticks": 54600,
          "time": 167.91186875,
          "velocity": 0.47244094488188976
        },
        {
          "duration": 0.3571427500000084,
          "durationTicks": 120,
          "midi": 73,
          "name": "C#5",
          "ticks": 54720,
          "time": 168.26901149999998,
          "velocity": 0.47244094488188976
        },
        {
          "duration": 0.3571427500000084,
          "durationTicks": 120,
          "midi": 72,
          "name": "C5",
          "ticks": 54840,
          "time": 168.62615424999998,
          "velocity": 0.47244094488188976
        },
        {
          "duration": 0.35714274999997997,
          "durationTicks": 120,
          "midi": 73,
          "name": "C#5",
          "ticks": 54960,
          "time": 168.983297,
          "velocity": 0.47244094488188976
        },
        {
          "duration": 0.3571427500000084,
          "durationTicks": 120,
          "midi": 72,
          "name": "C5",
          "ticks": 55080,
          "time": 169.34043974999997,
          "velocity": 0.47244094488188976
        },
        {
          "duration": 0.3571427500000084,
          "durationTicks": 120,
          "midi": 73,
          "name": "C#5",
          "ticks": 55200,
          "time": 169.69758249999998,
          "velocity": 0.47244094488188976
        },
        {
          "duration": 0.3571427500000084,
          "durationTicks": 120,
          "midi": 69,
          "name": "A4",
          "ticks": 55320,
          "time": 170.05472525,
          "velocity": 0.47244094488188976
        },
        {
          "duration": 0.5714284000000021,
          "durationTicks": 192,
          "midi": 68,
          "name": "G#4",
          "ticks": 55440,
          "time": 170.411868,
          "velocity": 0.47244094488188976
        },
        {
          "duration": 2.1428564999999935,
          "durationTicks": 720,
          "midi": 73,
          "name": "C#5",
          "ticks": 56160,
          "time": 172.5547245,
          "velocity": 0.47244094488188976
        },
        {
          "duration": 1.4285710000000051,
          "durationTicks": 480,
          "midi": 69,
          "name": "A4",
          "ticks": 56880,
          "time": 174.69758099999999,
          "velocity": 0.47244094488188976
        },
        {
          "duration": 0.17857137499998998,
          "durationTicks": 60,
          "midi": 71,
          "name": "B4",
          "ticks": 57360,
          "time": 176.126152,
          "velocity": 0.47244094488188976
        },
        {
          "duration": 0.1785713750000184,
          "durationTicks": 60,
          "midi": 69,
          "name": "A4",
          "ticks": 57420,
          "time": 176.30472337499998,
          "velocity": 0.47244094488188976
        },
        {
          "duration": 0.17857137499998998,
          "durationTicks": 60,
          "midi": 68,
          "name": "G#4",
          "ticks": 57480,
          "time": 176.48329475,
          "velocity": 0.47244094488188976
        },
        {
          "duration": 0.17857137499998998,
          "durationTicks": 60,
          "midi": 69,
          "name": "A4",
          "ticks": 57540,
          "time": 176.661866125,
          "velocity": 0.47244094488188976
        },
        {
          "duration": 0.42857130000001575,
          "durationTicks": 144,
          "midi": 71,
          "name": "B4",
          "ticks": 57600,
          "time": 176.84043749999998,
          "velocity": 0.47244094488188976
        },
        {
          "duration": 0.42857129999998733,
          "durationTicks": 144,
          "midi": 71,
          "name": "B4",
          "ticks": 57840,
          "time": 177.554723,
          "velocity": 0.47244094488188976
        },
        {
          "duration": 0.42857130000001575,
          "durationTicks": 144,
          "midi": 71,
          "name": "B4",
          "ticks": 58080,
          "time": 178.26900849999998,
          "velocity": 0.47244094488188976
        },
        {
          "duration": 0.5714283999999736,
          "durationTicks": 192,
          "midi": 71,
          "name": "B4",
          "ticks": 58320,
          "time": 178.983294,
          "velocity": 0.47244094488188976
        },
        {
          "duration": 1.4285710000000051,
          "durationTicks": 480,
          "midi": 71,
          "name": "B4",
          "ticks": 61920,
          "time": 189.6975765,
          "velocity": 0.5196850393700787
        },
        {
          "duration": 0.7142854999999884,
          "durationTicks": 240,
          "midi": 69,
          "name": "A4",
          "ticks": 62400,
          "time": 191.1261475,
          "velocity": 0.47244094488188976
        },
        {
          "duration": 0.5714284000000021,
          "durationTicks": 192,
          "midi": 68,
          "name": "G#4",
          "ticks": 62640,
          "time": 191.840433,
          "velocity": 0.4645669291338583
        },
        {
          "duration": 1.4285710000000051,
          "durationTicks": 480,
          "midi": 73,
          "name": "C#5",
          "ticks": 63360,
          "time": 193.98328949999998,
          "velocity": 0.5118110236220472
        },
        {
          "duration": 0.7142855000000168,
          "durationTicks": 240,
          "midi": 71,
          "name": "B4",
          "ticks": 63840,
          "time": 195.4118605,
          "velocity": 0.4645669291338583
        },
        {
          "duration": 0.5714283999999736,
          "durationTicks": 192,
          "midi": 69,
          "name": "A4",
          "ticks": 64080,
          "time": 196.126146,
          "velocity": 0.4566929133858268
        },
        {
          "duration": 2.9268280000000004,
          "durationTicks": 960,
          "midi": 69,
          "name": "A4",
          "ticks": 73440,
          "time": 223.98328049999998,
          "velocity": 0.47244094488188976
        },
        {
          "duration": 2.1951210000000003,
          "durationTicks": 720,
          "midi": 68,
          "name": "G#4",
          "ticks": 74400,
          "time": 226.91010849999998,
          "velocity": 0.47244094488188976
        },
        {
          "duration": 2.2904115000000047,
          "durationTicks": 720,
          "midi": 66,
          "name": "F#4",
          "ticks": 75120,
          "time": 229.10522949999998,
          "velocity": 0.47244094488188976
        },
        {
          "duration": 0.8108105000000023,
          "durationTicks": 240,
          "midi": 65,
          "name": "F4",
          "ticks": 75840,
          "time": 231.39564099999998,
          "velocity": 0.44881889763779526
        },
        {
          "duration": 0.857142500000009,
          "durationTicks": 240,
          "midi": 68,
          "name": "G#4",
          "ticks": 76080,
          "time": 232.2064515,
          "velocity": 0.4251968503937008
        },
        {
          "duration": 1.1999999999999886,
          "durationTicks": 384,
          "midi": 66,
          "name": "F#4",
          "ticks": 76320,
          "time": 233.063594,
          "velocity": 0.3937007874015748
        },
        {
          "duration": 2.25,
          "durationTicks": 720,
          "midi": 73,
          "name": "C#5",
          "ticks": 104400,
          "time": 320.81359399999997,
          "velocity": 0.6299212598425197
        },
        {
          "duration": 2.25,
          "durationTicks": 720,
          "midi": 75,
          "name": "D#5",
          "ticks": 105120,
          "time": 323.06359399999997,
          "velocity": 0.6299212598425197
        },
        {
          "duration": 2.25,
          "durationTicks": 720,
          "midi": 74,
          "name": "D5",
          "ticks": 105840,
          "time": 325.31359399999997,
          "velocity": 0.6299212598425197
        },
        {
          "duration": 3,
          "durationTicks": 960,
          "midi": 73,
          "name": "C#5",
          "ticks": 106560,
          "time": 327.56359399999997,
          "velocity": 0.6299212598425197
        },
        {
          "duration": 0.75,
          "durationTicks": 240,
          "midi": 71,
          "name": "B4",
          "ticks": 107520,
          "time": 330.56359399999997,
          "velocity": 0.6299212598425197
        },
        {
          "duration": 0.75,
          "durationTicks": 240,
          "midi": 69,
          "name": "A4",
          "ticks": 107760,
          "time": 331.31359399999997,
          "velocity": 0.6299212598425197
        },
        {
          "duration": 0.75,
          "durationTicks": 240,
          "midi": 68,
          "name": "G#4",
          "ticks": 108000,
          "time": 332.06359399999997,
          "velocity": 0.6299212598425197
        },
        {
          "duration": 0.7125000000000341,
          "durationTicks": 228,
          "midi": 65,
          "name": "F4",
          "ticks": 108240,
          "time": 332.81359399999997,
          "velocity": 0.6299212598425197
        },
        {
          "duration": 1.5,
          "durationTicks": 480,
          "midi": 66,
          "name": "F#4",
          "ticks": 108480,
          "time": 333.56359399999997,
          "velocity": 0.6299212598425197
        },
        {
          "duration": 0.4500000000000455,
          "durationTicks": 144,
          "midi": 68,
          "name": "G#4",
          "ticks": 108960,
          "time": 335.06359399999997,
          "velocity": 0.6299212598425197
        },
        {
          "duration": 0.4500000000000455,
          "durationTicks": 144,
          "midi": 65,
          "name": "F4",
          "ticks": 109200,
          "time": 335.81359399999997,
          "velocity": 0.6299212598425197
        },
        {
          "duration": 4.5,
          "durationTicks": 1440,
          "midi": 73,
          "name": "C#5",
          "ticks": 115200,
          "time": 354.56359399999997,
          "velocity": 0.47244094488188976
        },
        {
          "duration": 2.25,
          "durationTicks": 720,
          "midi": 72,
          "name": "C5",
          "ticks": 116640,
          "time": 359.06359399999997,
          "velocity": 0.47244094488188976
        },
        {
          "duration": 2.25,
          "durationTicks": 720,
          "midi": 71,
          "name": "B4",
          "ticks": 117360,
          "time": 361.31359399999997,
          "velocity": 0.47244094488188976
        },
        {
          "duration": 2.25,
          "durationTicks": 720,
          "midi": 70,
          "name": "A#4",
          "ticks": 118080,
          "time": 363.56359399999997,
          "velocity": 0.47244094488188976
        },
        {
          "duration": 2.25,
          "durationTicks": 720,
          "midi": 69,
          "name": "A4",
          "ticks": 118800,
          "time": 365.81359399999997,
          "velocity": 0.47244094488188976
        },
        {
          "duration": 4.5,
          "durationTicks": 1440,
          "midi": 68,
          "name": "G#4",
          "ticks": 119520,
          "time": 368.06359399999997,
          "velocity": 0.47244094488188976
        },
        {
          "duration": 1.1428568000000041,
          "durationTicks": 384,
          "midi": 66,
          "name": "F#4",
          "ticks": 120960,
          "time": 372.56359399999997,
          "velocity": 0.47244094488188976
        },
        {
          "duration": 4.285712999999987,
          "durationTicks": 1440,
          "midi": 73,
          "name": "C#5",
          "ticks": 126720,
          "time": 389.70644599999997,
          "velocity": 0.47244094488188976
        },
        {
          "duration": 4.285712999999987,
          "durationTicks": 1440,
          "midi": 74,
          "name": "D5",
          "ticks": 128160,
          "time": 393.99215899999996,
          "velocity": 0.47244094488188976
        },
        {
          "duration": 4.285713000000044,
          "durationTicks": 1440,
          "midi": 67,
          "name": "G4",
          "ticks": 129600,
          "time": 398.27787199999995,
          "velocity": 0.47244094488188976
        },
        {
          "duration": 2.1428564999999935,
          "durationTicks": 720,
          "midi": 69,
          "name": "A4",
          "ticks": 131040,
          "time": 402.563585,
          "velocity": 0.47244094488188976
        },
        {
          "duration": 2.1428564999999935,
          "durationTicks": 720,
          "midi": 68,
          "name": "G#4",
          "ticks": 131760,
          "time": 404.7064415,
          "velocity": 0.47244094488188976
        },
        {
          "duration": 0.5853655999999887,
          "durationTicks": 192,
          "midi": 66,
          "name": "F#4",
          "ticks": 132480,
          "time": 406.849298,
          "velocity": 0.47244094488188976
        },
        {
          "duration": 0.4864862999999673,
          "durationTicks": 144,
          "midi": 69,
          "name": "A4",
          "ticks": 141360,
          "time": 434.2493014666666,
          "velocity": 0.4251968503937008
        },
        {
          "duration": 0.4864862999999673,
          "durationTicks": 144,
          "midi": 69,
          "name": "A4",
          "ticks": 141840,
          "time": 435.8709224666666,
          "velocity": 0.4251968503937008
        },
        {
          "duration": 0.4864862999999673,
          "durationTicks": 144,
          "midi": 69,
          "name": "A4",
          "ticks": 142080,
          "time": 436.68173296666663,
          "velocity": 0.4251968503937008
        },
        {
          "duration": 0.49999977499999204,
          "durationTicks": 132,
          "midi": 73,
          "name": "C#5",
          "ticks": 142560,
          "time": 438.3558635666666,
          "velocity": 0.4251968503937008
        },
        {
          "duration": 0.49999977499999204,
          "durationTicks": 132,
          "midi": 73,
          "name": "C#5",
          "ticks": 142800,
          "time": 439.2649540666666,
          "velocity": 0.4251968503937008
        }
      ],
      "endOfTrackTicks": 142932
    },
    {
      "channel": 3,
      "controlChanges": {
        "7": [
          {
            "number": 7,
            "ticks": 0,
            "time": 0,
            "value": 0.5984251968503937
          }
        ],
        "10": [
          {
            "number": 10,
            "ticks": 0,
            "time": 0,
            "value": 0.6299212598425197
          }
        ],
        "91": [
          {
            "number": 91,
            "ticks": 0,
            "time": 0,
            "value": 0.7480314960629921
          }
        ]
      },
      "pitchBends": [],
      "instrument": {
        "family": "reed",
        "number": 70,
        "name": "bassoon"
      },
      "name": "",
      "notes": [
        {
          "duration": 3,
          "durationTicks": 960,
          "midi": 59,
          "name": "B3",
          "ticks": 19440,
          "time": 58.5,
          "velocity": 0.47244094488188976
        },
        {
          "duration": 0.75,
          "durationTicks": 240,
          "midi": 57,
          "name": "A3",
          "ticks": 20400,
          "time": 61.5,
          "velocity": 0.47244094488188976
        },
        {
          "duration": 0.75,
          "durationTicks": 240,
          "midi": 56,
          "name": "G#3",
          "ticks": 20640,
          "time": 62.25,
          "velocity": 0.47244094488188976
        },
        {
          "duration": 0.75,
          "durationTicks": 240,
          "midi": 54,
          "name": "F#3",
          "ticks": 20880,
          "time": 63,
          "velocity": 0.47244094488188976
        },
        {
          "duration": 0.75,
          "durationTicks": 240,
          "midi": 56,
          "name": "G#3",
          "ticks": 21120,
          "time": 63.75,
          "velocity": 0.47244094488188976
        },
        {
          "duration": 0.75,
          "durationTicks": 240,
          "midi": 57,
          "name": "A3",
          "ticks": 21360,
          "time": 64.5,
          "velocity": 0.47244094488188976
        },
        {
          "duration": 2.1374999999999886,
          "durationTicks": 684,
          "midi": 50,
          "name": "D3",
          "ticks": 21600,
          "time": 65.25,
          "velocity": 0.47244094488188976
        },
        {
          "duration": 3,
          "durationTicks": 960,
          "midi": 62,
          "name": "D4",
          "ticks": 22320,
          "time": 67.5,
          "velocity": 0.47244094488188976
        },
        {
          "duration": 0.75,
          "durationTicks": 240,
          "midi": 61,
          "name": "C#4",
          "ticks": 23280,
          "time": 70.5,
          "velocity": 0.47244094488188976
        },
        {
          "duration": 0.75,
          "durationTicks": 240,
          "midi": 59,
          "name": "B3",
          "ticks": 23520,
          "time": 71.25,
          "velocity": 0.47244094488188976
        },
        {
          "duration": 0.75,
          "durationTicks": 240,
          "midi": 57,
          "name": "A3",
          "ticks": 23760,
          "time": 72,
          "velocity": 0.47244094488188976
        },
        {
          "duration": 0.75,
          "durationTicks": 240,
          "midi": 56,
          "name": "G#3",
          "ticks": 24000,
          "time": 72.75,
          "velocity": 0.6299212598425197
        },
        {
          "duration": 0.75,
          "durationTicks": 240,
          "midi": 54,
          "name": "F#3",
          "ticks": 24240,
          "time": 73.5,
          "velocity": 0.6299212598425197
        },
        {
          "duration": 2.25,
          "durationTicks": 720,
          "midi": 63,
          "name": "D#4",
          "ticks": 24480,
          "time": 74.25,
          "velocity": 0.6299212598425197
        },
        {
          "duration": 2.25,
          "durationTicks": 720,
          "midi": 62,
          "name": "D4",
          "ticks": 25200,
          "time": 76.5,
          "velocity": 0.6299212598425197
        },
        {
          "duration": 0.75,
          "durationTicks": 240,
          "midi": 67,
          "name": "G4",
          "ticks": 25920,
          "time": 78.75,
          "velocity": 0.6299212598425197
        },
        {
          "duration": 0.75,
          "durationTicks": 240,
          "midi": 66,
          "name": "F#4",
          "ticks": 26160,
          "time": 79.5,
          "velocity": 0.6299212598425197
        },
        {
          "duration": 0.75,
          "durationTicks": 240,
          "midi": 64,
          "name": "E4",
          "ticks": 26400,
          "time": 80.25,
          "velocity": 0.6299212598425197
        },
        {
          "duration": 2.25,
          "durationTicks": 720,
          "midi": 62,
          "name": "D4",
          "ticks": 26640,
          "time": 81,
          "velocity": 0.6299212598425197
        },
        {
          "duration": 0.75,
          "durationTicks": 240,
          "midi": 61,
          "name": "C#4",
          "ticks": 27360,
          "time": 83.25,
          "velocity": 0.6299212598425197
        },
        {
          "duration": 0.75,
          "durationTicks": 240,
          "midi": 59,
          "name": "B3",
          "ticks": 27600,
          "time": 84,
          "velocity": 0.6299212598425197
        },
        {
          "duration": 1.5,
          "durationTicks": 480,
          "midi": 57,
          "name": "A3",
          "ticks": 27840,
          "time": 84.75,
          "velocity": 0.6299212598425197
        },
        {
          "duration": 0.44999999999998863,
          "durationTicks": 144,
          "midi": 59,
          "name": "B3",
          "ticks": 28320,
          "time": 86.25,
          "velocity": 0.6299212598425197
        },
        {
          "duration": 0.375,
          "durationTicks": 120,
          "midi": 56,
          "name": "G#3",
          "ticks": 28560,
          "time": 87,
          "velocity": 0.6299212598425197
        },
        {
          "duration": 1.4250000000000114,
          "durationTicks": 456,
          "midi": 54,
          "name": "F#3",
          "ticks": 28800,
          "time": 87.75,
          "velocity": 0.5511811023622047
        },
        {
          "duration": 2.25,
          "durationTicks": 720,
          "midi": 56,
          "name": "G#3",
          "ticks": 47520,
          "time": 146.25,
          "velocity": 0.47244094488188976
        },
        {
          "duration": 2.25,
          "durationTicks": 720,
          "midi": 59,
          "name": "B3",
          "ticks": 47520,
          "time": 146.25,
          "velocity": 0.47244094488188976
        },
        {
          "duration": 2.25,
          "durationTicks": 720,
          "midi": 57,
          "name": "A3",
          "ticks": 48240,
          "time": 148.5,
          "velocity": 0.47244094488188976
        },
        {
          "duration": 2.25,
          "durationTicks": 720,
          "midi": 60,
          "name": "C4",
          "ticks": 48240,
          "time": 148.5,
          "velocity": 0.47244094488188976
        },
        {
          "duration": 1.1999999999999886,
          "durationTicks": 384,
          "midi": 56,
          "name": "G#3",
          "ticks": 48960,
          "time": 150.75,
          "velocity": 0.47244094488188976
        },
        {
          "duration": 1.1999999999999886,
          "durationTicks": 384,
          "midi": 59,
          "name": "B3",
          "ticks": 48960,
          "time": 150.75,
          "velocity": 0.47244094488188976
        },
        {
          "duration": 0.35714274999997997,
          "durationTicks": 120,
          "midi": 57,
          "name": "A3",
          "ticks": 53400,
          "time": 164.34044125,
          "velocity": 0.47244094488188976
        },
        {
          "duration": 0.3571427500000084,
          "durationTicks": 120,
          "midi": 59,
          "name": "B3",
          "ticks": 53520,
          "time": 164.69758399999998,
          "velocity": 0.47244094488188976
        },
        {
          "duration": 0.3571427500000084,
          "durationTicks": 120,
          "midi": 61,
          "name": "C#4",
          "ticks": 53640,
          "time": 165.05472675,
          "velocity": 0.47244094488188976
        },
        {
          "duration": 0.35714274999997997,
          "durationTicks": 120,
          "midi": 62,
          "name": "D4",
          "ticks": 53760,
          "time": 165.4118695,
          "velocity": 0.47244094488188976
        },
        {
          "duration": 0.3571427500000084,
          "durationTicks": 120,
          "midi": 59,
          "name": "B3",
          "ticks": 53880,
          "time": 165.76901224999997,
          "velocity": 0.47244094488188976
        },
        {
          "duration": 0.3571427500000084,
          "durationTicks": 120,
          "midi": 61,
          "name": "C#4",
          "ticks": 54000,
          "time": 166.12615499999998,
          "velocity": 0.47244094488188976
        },
        {
          "duration": 0.3571427500000084,
          "durationTicks": 120,
          "midi": 56,
          "name": "G#3",
          "ticks": 54120,
          "time": 166.48329775,
          "velocity": 0.47244094488188976
        },
        {
          "duration": 0.35714274999997997,
          "durationTicks": 120,
          "midi": 57,
          "name": "A3",
          "ticks": 54240,
          "time": 166.8404405,
          "velocity": 0.47244094488188976
        },
        {
          "duration": 0.3571427500000084,
          "durationTicks": 120,
          "midi": 61,
          "name": "C#4",
          "ticks": 54360,
          "time": 167.19758324999998,
          "velocity": 0.47244094488188976
        },
        {
          "duration": 0.3571427500000084,
          "durationTicks": 120,
          "midi": 62,
          "name": "D4",
          "ticks": 54480,
          "time": 167.554726,
          "velocity": 0.47244094488188976
        },
        {
          "duration": 0.35714274999997997,
          "durationTicks": 120,
          "midi": 63,
          "name": "D#4",
          "ticks": 54600,
          "time": 167.91186875,
          "velocity": 0.47244094488188976
        },
        {
          "duration": 0.3571427500000084,
          "durationTicks": 120,
          "midi": 64,
          "name": "E4",
          "ticks": 54720,
          "time": 168.26901149999998,
          "velocity": 0.47244094488188976
        },
        {
          "duration": 0.3571427500000084,
          "durationTicks": 120,
          "midi": 63,
          "name": "D#4",
          "ticks": 54840,
          "time": 168.62615424999998,
          "velocity": 0.47244094488188976
        },
        {
          "duration": 0.35714274999997997,
          "durationTicks": 120,
          "midi": 64,
          "name": "E4",
          "ticks": 54960,
          "time": 168.983297,
          "velocity": 0.47244094488188976
        },
        {
          "duration": 0.3571427500000084,
          "durationTicks": 120,
          "midi": 63,
          "name": "D#4",
          "ticks": 55080,
          "time": 169.34043974999997,
          "velocity": 0.47244094488188976
        },
        {
          "duration": 0.3571427500000084,
          "durationTicks": 120,
          "midi": 64,
          "name": "E4",
          "ticks": 55200,
          "time": 169.69758249999998,
          "velocity": 0.47244094488188976
        },
        {
          "duration": 0.3571427500000084,
          "durationTicks": 120,
          "midi": 61,
          "name": "C#4",
          "ticks": 55320,
          "time": 170.05472525,
          "velocity": 0.47244094488188976
        },
        {
          "duration": 0.5714284000000021,
          "durationTicks": 192,
          "midi": 59,
          "name": "B3",
          "ticks": 55440,
          "time": 170.411868,
          "velocity": 0.47244094488188976
        },
        {
          "duration": 1.3571424499999978,
          "durationTicks": 456,
          "midi": 57,
          "name": "A3",
          "ticks": 56160,
          "time": 172.5547245,
          "velocity": 0.47244094488188976
        },
        {
          "duration": 1.3571424499999978,
          "durationTicks": 456,
          "midi": 45,
          "name": "A2",
          "ticks": 56160,
          "time": 172.5547245,
          "velocity": 0.47244094488188976
        },
        {
          "duration": 0.6785712249999847,
          "durationTicks": 228,
          "midi": 57,
          "name": "A3",
          "ticks": 56640,
          "time": 173.9832955,
          "velocity": 0.47244094488188976
        },
        {
          "duration": 0.6785712249999847,
          "durationTicks": 228,
          "midi": 45,
          "name": "A2",
          "ticks": 56640,
          "time": 173.9832955,
          "velocity": 0.47244094488188976
        },
        {
          "duration": 1.3571424499999978,
          "durationTicks": 456,
          "midi": 57,
          "name": "A3",
          "ticks": 56880,
          "time": 174.69758099999999,
          "velocity": 0.47244094488188976
        },
        {
          "duration": 1.3571424499999978,
          "durationTicks": 456,
          "midi": 45,
          "name": "A2",
          "ticks": 56880,
          "time": 174.69758099999999,
          "velocity": 0.47244094488188976
        },
        {
          "duration": 0.6785712249999847,
          "durationTicks": 228,
          "midi": 45,
          "name": "A2",
          "ticks": 57360,
          "time": 176.126152,
          "velocity": 0.47244094488188976
        },
        {
          "duration": 0.6785712249999847,
          "durationTicks": 228,
          "midi": 57,
          "name": "A3",
          "ticks": 57360,
          "time": 176.126152,
          "velocity": 0.47244094488188976
        },
        {
          "duration": 0.42857130000001575,
          "durationTicks": 144,
          "midi": 44,
          "name": "G#2",
          "ticks": 57600,
          "time": 176.84043749999998,
          "velocity": 0.47244094488188976
        },
        {
          "duration": 0.42857130000001575,
          "durationTicks": 144,
          "midi": 56,
          "name": "G#3",
          "ticks": 57600,
          "time": 176.84043749999998,
          "velocity": 0.47244094488188976
        },
        {
          "duration": 0.42857129999998733,
          "durationTicks": 144,
          "midi": 44,
          "name": "G#2",
          "ticks": 57840,
          "time": 177.554723,
          "velocity": 0.47244094488188976
        },
        {
          "duration": 0.42857129999998733,
          "durationTicks": 144,
          "midi": 56,
          "name": "G#3",
          "ticks": 57840,
          "time": 177.554723,
          "velocity": 0.47244094488188976
        },
        {
          "duration": 0.42857130000001575,
          "durationTicks": 144,
          "midi": 44,
          "name": "G#2",
          "ticks": 58080,
          "time": 178.26900849999998,
          "velocity": 0.47244094488188976
        },
        {
          "duration": 0.42857130000001575,
          "durationTicks": 144,
          "midi": 56,
          "name": "G#3",
          "ticks": 58080,
          "time": 178.26900849999998,
          "velocity": 0.47244094488188976
        },
        {
          "duration": 0.5714283999999736,
          "durationTicks": 192,
          "midi": 56,
          "name": "G#3",
          "ticks": 58320,
          "time": 178.983294,
          "velocity": 0.47244094488188976
        },
        {
          "duration": 0.5714283999999736,
          "durationTicks": 192,
          "midi": 44,
          "name": "G#2",
          "ticks": 58320,
          "time": 178.983294,
          "velocity": 0.47244094488188976
        },
        {
          "duration": 0.7142855000000168,
          "durationTicks": 240,
          "midi": 56,
          "name": "G#3",
          "ticks": 62160,
          "time": 190.41186199999999,
          "velocity": 0.5590551181102362
        },
        {
          "duration": 0.7142855000000168,
          "durationTicks": 240,
          "midi": 44,
          "name": "G#2",
          "ticks": 62160,
          "time": 190.41186199999999,
          "velocity": 0.5590551181102362
        },
        {
          "duration": 0.7142854999999884,
          "durationTicks": 240,
          "midi": 57,
          "name": "A3",
          "ticks": 62400,
          "time": 191.1261475,
          "velocity": 0.5354330708661418
        },
        {
          "duration": 0.7142854999999884,
          "durationTicks": 240,
          "midi": 45,
          "name": "A2",
          "ticks": 62400,
          "time": 191.1261475,
          "velocity": 0.5354330708661418
        },
        {
          "duration": 0.5714284000000021,
          "durationTicks": 192,
          "midi": 52,
          "name": "E3",
          "ticks": 62640,
          "time": 191.840433,
          "velocity": 0.5196850393700787
        },
        {
          "duration": 0.5714284000000021,
          "durationTicks": 192,
          "midi": 40,
          "name": "E2",
          "ticks": 62640,
          "time": 191.840433,
          "velocity": 0.5196850393700787
        },
        {
          "duration": 0.7142854999999884,
          "durationTicks": 240,
          "midi": 45,
          "name": "A2",
          "ticks": 63360,
          "time": 193.98328949999998,
          "velocity": 0.5669291338582677
        },
        {
          "duration": 0.7142854999999884,
          "durationTicks": 240,
          "midi": 57,
          "name": "A3",
          "ticks": 63360,
          "time": 193.98328949999998,
          "velocity": 0.5669291338582677
        },
        {
          "duration": 0.7142855000000168,
          "durationTicks": 240,
          "midi": 49,
          "name": "C#3",
          "ticks": 63600,
          "time": 194.69757499999997,
          "velocity": 0.5433070866141733
        },
        {
          "duration": 0.7142855000000168,
          "durationTicks": 240,
          "midi": 61,
          "name": "C#4",
          "ticks": 63600,
          "time": 194.69757499999997,
          "velocity": 0.5433070866141733
        },
        {
          "duration": 0.7142855000000168,
          "durationTicks": 240,
          "midi": 52,
          "name": "E3",
          "ticks": 63840,
          "time": 195.4118605,
          "velocity": 0.5354330708661418
        },
        {
          "duration": 0.7142855000000168,
          "durationTicks": 240,
          "midi": 56,
          "name": "G#3",
          "ticks": 63840,
          "time": 195.4118605,
          "velocity": 0.5354330708661418
        },
        {
          "duration": 0.5714283999999736,
          "durationTicks": 192,
          "midi": 57,
          "name": "A3",
          "ticks": 64080,
          "time": 196.126146,
          "velocity": 0.5275590551181102
        },
        {
          "duration": 0.15476185833333034,
          "durationTicks": 52,
          "midi": 59,
          "name": "B3",
          "ticks": 67040,
          "time": 204.93566716666666,
          "velocity": 0.6299212598425197
        },
        {
          "duration": 0.15476185833333034,
          "durationTicks": 52,
          "midi": 57,
          "name": "A3",
          "ticks": 67120,
          "time": 205.17376233333331,
          "velocity": 0.6299212598425197
        },
        {
          "duration": 0.15476185833333034,
          "durationTicks": 52,
          "midi": 56,
          "name": "G#3",
          "ticks": 67200,
          "time": 205.4118575,
          "velocity": 0.6299212598425197
        },
        {
          "duration": 0.15476185833333034,
          "durationTicks": 52,
          "midi": 54,
          "name": "F#3",
          "ticks": 67280,
          "time": 205.64995266666665,
          "velocity": 0.6299212598425197
        },
        {
          "duration": 0.15476185833333034,
          "durationTicks": 52,
          "midi": 52,
          "name": "E3",
          "ticks": 67360,
          "time": 205.88804783333333,
          "velocity": 0.6299212598425197
        },
        {
          "duration": 0.15476185833333034,
          "durationTicks": 52,
          "midi": 50,
          "name": "D3",
          "ticks": 67440,
          "time": 206.12614299999998,
          "velocity": 0.6299212598425197
        },
        {
          "duration": 0.15476185833333034,
          "durationTicks": 52,
          "midi": 49,
          "name": "C#3",
          "ticks": 67520,
          "time": 206.36423816666667,
          "velocity": 0.6299212598425197
        },
        {
          "duration": 0.15476185833333034,
          "durationTicks": 52,
          "midi": 47,
          "name": "B2",
          "ticks": 67600,
          "time": 206.60233333333332,
          "velocity": 0.6299212598425197
        },
        {
          "duration": 0.15476185833333034,
          "durationTicks": 52,
          "midi": 61,
          "name": "C#4",
          "ticks": 68480,
          "time": 209.22138016666665,
          "velocity": 0.6299212598425197
        },
        {
          "duration": 0.15476185833333034,
          "durationTicks": 52,
          "midi": 59,
          "name": "B3",
          "ticks": 68560,
          "time": 209.45947533333333,
          "velocity": 0.6299212598425197
        },
        {
          "duration": 0.15476185833333034,
          "durationTicks": 52,
          "midi": 57,
          "name": "A3",
          "ticks": 68640,
          "time": 209.69757049999998,
          "velocity": 0.6299212598425197
        },
        {
          "duration": 0.15476185833335876,
          "durationTicks": 52,
          "midi": 56,
          "name": "G#3",
          "ticks": 68720,
          "time": 209.93566566666664,
          "velocity": 0.6299212598425197
        },
        {
          "duration": 0.15476185833333034,
          "durationTicks": 52,
          "midi": 54,
          "name": "F#3",
          "ticks": 68800,
          "time": 210.17376083333332,
          "velocity": 0.6299212598425197
        },
        {
          "duration": 0.15476185833333034,
          "durationTicks": 52,
          "midi": 52,
          "name": "E3",
          "ticks": 68880,
          "time": 210.411856,
          "velocity": 0.6299212598425197
        },
        {
          "duration": 0.15476185833333034,
          "durationTicks": 52,
          "midi": 50,
          "name": "D3",
          "ticks": 68960,
          "time": 210.64995116666665,
          "velocity": 0.6299212598425197
        },
        {
          "duration": 0.15476185833333034,
          "durationTicks": 52,
          "midi": 49,
          "name": "C#3",
          "ticks": 69040,
          "time": 210.88804633333334,
          "velocity": 0.6299212598425197
        },
        {
          "duration": 4.285712999999987,
          "durationTicks": 1440,
          "midi": 61,
          "name": "C#4",
          "ticks": 70560,
          "time": 215.4118545,
          "velocity": 0.47244094488188976
        },
        {
          "duration": 4.285712999999987,
          "durationTicks": 1440,
          "midi": 59,
          "name": "B3",
          "ticks": 72000,
          "time": 219.6975675,
          "velocity": 0.47244094488188976
        },
        {
          "duration": 0.5853655999999887,
          "durationTicks": 192,
          "midi": 57,
          "name": "A3",
          "ticks": 73440,
          "time": 223.98328049999998,
          "velocity": 0.5511811023622047
        },
        {
          "duration": 0.7317070000000001,
          "durationTicks": 240,
          "midi": 57,
          "name": "A3",
          "ticks": 73920,
          "time": 225.44669449999998,
          "velocity": 0.5511811023622047
        },
        {
          "duration": 0.5853655999999887,
          "durationTicks": 192,
          "midi": 59,
          "name": "B3",
          "ticks": 74160,
          "time": 226.17840149999998,
          "velocity": 0.5511811023622047
        },
        {
          "duration": 0.7317070000000001,
          "durationTicks": 240,
          "midi": 59,
          "name": "B3",
          "ticks": 74640,
          "time": 227.64181549999998,
          "velocity": 0.5511811023622047
        },
        {
          "duration": 0.5853655999999887,
          "durationTicks": 192,
          "midi": 61,
          "name": "C#4",
          "ticks": 74880,
          "time": 228.37352249999998,
          "velocity": 0.5511811023622047
        },
        {
          "duration": 0.7692304999999919,
          "durationTicks": 240,
          "midi": 61,
          "name": "C#4",
          "ticks": 75360,
          "time": 229.83693699999998,
          "velocity": 0.5511811023622047
        },
        {
          "duration": 0.6315787999999998,
          "durationTicks": 192,
          "midi": 49,
          "name": "C#3",
          "ticks": 75600,
          "time": 230.60616749999997,
          "velocity": 0.5433070866141733
        },
        {
          "duration": 0.857142500000009,
          "durationTicks": 240,
          "midi": 49,
          "name": "C#3",
          "ticks": 76080,
          "time": 232.2064515,
          "velocity": 0.47244094488188976
        },
        {
          "duration": 1.1999999999999886,
          "durationTicks": 384,
          "midi": 54,
          "name": "F#3",
          "ticks": 76320,
          "time": 233.063594,
          "velocity": 0.4409448818897638
        },
        {
          "duration": 4.5,
          "durationTicks": 1440,
          "midi": 50,
          "name": "D3",
          "ticks": 92160,
          "time": 282.56359399999997,
          "velocity": 0.47244094488188976
        },
        {
          "duration": 5.100000000000023,
          "durationTicks": 1632,
          "midi": 62,
          "name": "D4",
          "ticks": 92160,
          "time": 282.56359399999997,
          "velocity": 0.47244094488188976
        },
        {
          "duration": 0.6000000000000227,
          "durationTicks": 192,
          "midi": 47,
          "name": "B2",
          "ticks": 93600,
          "time": 287.06359399999997,
          "velocity": 0.47244094488188976
        },
        {
          "duration": 3,
          "durationTicks": 960,
          "midi": 59,
          "name": "B3",
          "ticks": 100080,
          "time": 307.31359399999997,
          "velocity": 0.47244094488188976
        },
        {
          "duration": 0.75,
          "durationTicks": 240,
          "midi": 57,
          "name": "A3",
          "ticks": 101040,
          "time": 310.31359399999997,
          "velocity": 0.47244094488188976
        },
        {
          "duration": 0.75,
          "durationTicks": 240,
          "midi": 56,
          "name": "G#3",
          "ticks": 101280,
          "time": 311.06359399999997,
          "velocity": 0.47244094488188976
        },
        {
          "duration": 0.75,
          "durationTicks": 240,
          "midi": 54,
          "name": "F#3",
          "ticks": 101520,
          "time": 311.81359399999997,
          "velocity": 0.47244094488188976
        },
        {
          "duration": 0.75,
          "durationTicks": 240,
          "midi": 56,
          "name": "G#3",
          "ticks": 101760,
          "time": 312.56359399999997,
          "velocity": 0.47244094488188976
        },
        {
          "duration": 0.75,
          "durationTicks": 240,
          "midi": 57,
          "name": "A3",
          "ticks": 102000,
          "time": 313.31359399999997,
          "velocity": 0.47244094488188976
        },
        {
          "duration": 2.25,
          "durationTicks": 720,
          "midi": 50,
          "name": "D3",
          "ticks": 102240,
          "time": 314.06359399999997,
          "velocity": 0.47244094488188976
        },
        {
          "duration": 3,
          "durationTicks": 960,
          "midi": 62,
          "name": "D4",
          "ticks": 102960,
          "time": 316.31359399999997,
          "velocity": 0.47244094488188976
        },
        {
          "duration": 0.75,
          "durationTicks": 240,
          "midi": 61,
          "name": "C#4",
          "ticks": 103920,
          "time": 319.31359399999997,
          "velocity": 0.47244094488188976
        },
        {
          "duration": 0.75,
          "durationTicks": 240,
          "midi": 59,
          "name": "B3",
          "ticks": 104160,
          "time": 320.06359399999997,
          "velocity": 0.47244094488188976
        },
        {
          "duration": 0.75,
          "durationTicks": 240,
          "midi": 57,
          "name": "A3",
          "ticks": 104400,
          "time": 320.81359399999997,
          "velocity": 0.6299212598425197
        },
        {
          "duration": 0.75,
          "durationTicks": 240,
          "midi": 56,
          "name": "G#3",
          "ticks": 104640,
          "time": 321.56359399999997,
          "velocity": 0.6299212598425197
        },
        {
          "duration": 0.75,
          "durationTicks": 240,
          "midi": 54,
          "name": "F#3",
          "ticks": 104880,
          "time": 322.31359399999997,
          "velocity": 0.6299212598425197
        },
        {
          "duration": 2.25,
          "durationTicks": 720,
          "midi": 63,
          "name": "D#4",
          "ticks": 105120,
          "time": 323.06359399999997,
          "velocity": 0.6299212598425197
        },
        {
          "duration": 2.25,
          "durationTicks": 720,
          "midi": 62,
          "name": "D4",
          "ticks": 105840,
          "time": 325.31359399999997,
          "velocity": 0.6299212598425197
        },
        {
          "duration": 0.75,
          "durationTicks": 240,
          "midi": 67,
          "name": "G4",
          "ticks": 106560,
          "time": 327.56359399999997,
          "velocity": 0.6299212598425197
        },
        {
          "duration": 0.75,
          "durationTicks": 240,
          "midi": 66,
          "name": "F#4",
          "ticks": 106800,
          "time": 328.31359399999997,
          "velocity": 0.6299212598425197
        },
        {
          "duration": 0.75,
          "durationTicks": 240,
          "midi": 64,
          "name": "E4",
          "ticks": 107040,
          "time": 329.06359399999997,
          "velocity": 0.6299212598425197
        },
        {
          "duration": 2.25,
          "durationTicks": 720,
          "midi": 62,
          "name": "D4",
          "ticks": 107280,
          "time": 329.81359399999997,
          "velocity": 0.6299212598425197
        },
        {
          "duration": 0.75,
          "durationTicks": 240,
          "midi": 61,
          "name": "C#4",
          "ticks": 108000,
          "time": 332.06359399999997,
          "velocity": 0.6299212598425197
        },
        {
          "duration": 0.7125000000000341,
          "durationTicks": 228,
          "midi": 59,
          "name": "B3",
          "ticks": 108240,
          "time": 332.81359399999997,
          "velocity": 0.6299212598425197
        },
        {
          "duration": 1.5,
          "durationTicks": 480,
          "midi": 57,
          "name": "A3",
          "ticks": 108480,
          "time": 333.56359399999997,
          "velocity": 0.6299212598425197
        },
        {
          "duration": 0.4500000000000455,
          "durationTicks": 144,
          "midi": 59,
          "name": "B3",
          "ticks": 108960,
          "time": 335.06359399999997,
          "velocity": 0.6299212598425197
        },
        {
          "duration": 0.4500000000000455,
          "durationTicks": 144,
          "midi": 56,
          "name": "G#3",
          "ticks": 109200,
          "time": 335.81359399999997,
          "velocity": 0.6299212598425197
        },
        {
          "duration": 1.4250000000000682,
          "durationTicks": 456,
          "midi": 54,
          "name": "F#3",
          "ticks": 109440,
          "time": 336.56359399999997,
          "velocity": 0.5511811023622047
        },
        {
          "duration": 0.2437500000000341,
          "durationTicks": 78,
          "midi": 49,
          "name": "C#3",
          "ticks": 116040,
          "time": 357.18859399999997,
          "velocity": 0.5511811023622047
        },
        {
          "duration": 0.2437500000000341,
          "durationTicks": 78,
          "midi": 54,
          "name": "F#3",
          "ticks": 116160,
          "time": 357.56359399999997,
          "velocity": 0.5511811023622047
        },
        {
          "duration": 0.2437500000000341,
          "durationTicks": 78,
          "midi": 57,
          "name": "A3",
          "ticks": 116280,
          "time": 357.93859399999997,
          "velocity": 0.5511811023622047
        },
        {
          "duration": 0.2437500000000341,
          "durationTicks": 78,
          "midi": 61,
          "name": "C#4",
          "ticks": 116400,
          "time": 358.31359399999997,
          "velocity": 0.5511811023622047
        },
        {
          "duration": 0.2437500000000341,
          "durationTicks": 78,
          "midi": 49,
          "name": "C#3",
          "ticks": 116520,
          "time": 358.68859399999997,
          "velocity": 0.5511811023622047
        },
        {
          "duration": 0.24374999999997726,
          "durationTicks": 78,
          "midi": 49,
          "name": "C#3",
          "ticks": 117480,
          "time": 361.68859399999997,
          "velocity": 0.5511811023622047
        },
        {
          "duration": 0.24374999999997726,
          "durationTicks": 78,
          "midi": 53,
          "name": "F3",
          "ticks": 117600,
          "time": 362.06359399999997,
          "velocity": 0.5511811023622047
        },
        {
          "duration": 0.24374999999997726,
          "durationTicks": 78,
          "midi": 56,
          "name": "G#3",
          "ticks": 117720,
          "time": 362.43859399999997,
          "velocity": 0.5511811023622047
        },
        {
          "duration": 0.24374999999997726,
          "durationTicks": 78,
          "midi": 61,
          "name": "C#4",
          "ticks": 117840,
          "time": 362.81359399999997,
          "velocity": 0.5511811023622047
        },
        {
          "duration": 0.24374999999997726,
          "durationTicks": 78,
          "midi": 49,
          "name": "C#3",
          "ticks": 117960,
          "time": 363.18859399999997,
          "velocity": 0.5511811023622047
        },
        {
          "duration": 0.24374999999997726,
          "durationTicks": 78,
          "midi": 49,
          "name": "C#3",
          "ticks": 118920,
          "time": 366.18859399999997,
          "velocity": 0.5511811023622047
        },
        {
          "duration": 0.24374999999997726,
          "durationTicks": 78,
          "midi": 54,
          "name": "F#3",
          "ticks": 119040,
          "time": 366.56359399999997,
          "velocity": 0.5511811023622047
        },
        {
          "duration": 0.24374999999997726,
          "durationTicks": 78,
          "midi": 57,
          "name": "A3",
          "ticks": 119160,
          "time": 366.93859399999997,
          "velocity": 0.5511811023622047
        },
        {
          "duration": 0.24374999999997726,
          "durationTicks": 78,
          "midi": 61,
          "name": "C#4",
          "ticks": 119280,
          "time": 367.31359399999997,
          "velocity": 0.5511811023622047
        },
        {
          "duration": 0.24374999999997726,
          "durationTicks": 78,
          "midi": 49,
          "name": "C#3",
          "ticks": 119400,
          "time": 367.68859399999997,
          "velocity": 0.5511811023622047
        },
        {
          "duration": 0.24374999999997726,
          "durationTicks": 78,
          "midi": 49,
          "name": "C#3",
          "ticks": 120360,
          "time": 370.68859399999997,
          "velocity": 0.5511811023622047
        },
        {
          "duration": 0.24374999999997726,
          "durationTicks": 78,
          "midi": 53,
          "name": "F3",
          "ticks": 120480,
          "time": 371.06359399999997,
          "velocity": 0.5511811023622047
        },
        {
          "duration": 0.24374999999997726,
          "durationTicks": 78,
          "midi": 56,
          "name": "G#3",
          "ticks": 120600,
          "time": 371.43859399999997,
          "velocity": 0.5511811023622047
        },
        {
          "duration": 0.24374999999997726,
          "durationTicks": 78,
          "midi": 61,
          "name": "C#4",
          "ticks": 120720,
          "time": 371.81359399999997,
          "velocity": 0.5511811023622047
        },
        {
          "duration": 0.24374999999997726,
          "durationTicks": 78,
          "midi": 49,
          "name": "C#3",
          "ticks": 120840,
          "time": 372.18859399999997,
          "velocity": 0.5511811023622047
        },
        {
          "duration": 1.1428568000000041,
          "durationTicks": 384,
          "midi": 54,
          "name": "F#3",
          "ticks": 120960,
          "time": 372.56359399999997,
          "velocity": 0.5511811023622047
        },
        {
          "duration": 4.285712999999987,
          "durationTicks": 1440,
          "midi": 61,
          "name": "C#4",
          "ticks": 126720,
          "time": 389.70644599999997,
          "velocity": 0.47244094488188976
        },
        {
          "duration": 8.571425999999974,
          "durationTicks": 2880,
          "midi": 66,
          "name": "F#4",
          "ticks": 126720,
          "time": 389.70644599999997,
          "velocity": 0.47244094488188976
        },
        {
          "duration": 4.285712999999987,
          "durationTicks": 1440,
          "midi": 62,
          "name": "D4",
          "ticks": 128160,
          "time": 393.99215899999996,
          "velocity": 0.47244094488188976
        },
        {
          "duration": 4.285713000000044,
          "durationTicks": 1440,
          "midi": 62,
          "name": "D4",
          "ticks": 129600,
          "time": 398.27787199999995,
          "velocity": 0.47244094488188976
        },
        {
          "duration": 4.285713000000044,
          "durationTicks": 1440,
          "midi": 59,
          "name": "B3",
          "ticks": 129600,
          "time": 398.27787199999995,
          "velocity": 0.47244094488188976
        },
        {
          "duration": 2.1428564999999935,
          "durationTicks": 720,
          "midi": 66,
          "name": "F#4",
          "ticks": 131040,
          "time": 402.563585,
          "velocity": 0.47244094488188976
        },
        {
          "duration": 2.1428564999999935,
          "durationTicks": 720,
          "midi": 65,
          "name": "F4",
          "ticks": 131760,
          "time": 404.7064415,
          "velocity": 0.47244094488188976
        },
        {
          "duration": 0.5853655999999887,
          "durationTicks": 192,
          "midi": 66,
          "name": "F#4",
          "ticks": 132480,
          "time": 406.849298,
          "velocity": 0.47244094488188976
        },
        {
          "duration": 2.9451210000000287,
          "durationTicks": 960,
          "midi": 57,
          "name": "A3",
          "ticks": 138960,
          "time": 426.60538699999995,
          "velocity": 0.47244094488188976
        },
        {
          "duration": 0.75,
          "durationTicks": 240,
          "midi": 56,
          "name": "G#3",
          "ticks": 139920,
          "time": 429.550508,
          "velocity": 0.47244094488188976
        },
        {
          "duration": 0.75,
          "durationTicks": 240,
          "midi": 54,
          "name": "F#3",
          "ticks": 140160,
          "time": 430.300508,
          "velocity": 0.47244094488188976
        },
        {
          "duration": 0.7679484666666667,
          "durationTicks": 240,
          "midi": 53,
          "name": "F3",
          "ticks": 140400,
          "time": 431.050508,
          "velocity": 0.47244094488188976
        },
        {
          "duration": 0.7881239666666602,
          "durationTicks": 240,
          "midi": 54,
          "name": "F#3",
          "ticks": 140640,
          "time": 431.81845646666665,
          "velocity": 0.47244094488188976
        },
        {
          "duration": 0.8304090333333534,
          "durationTicks": 240,
          "midi": 56,
          "name": "G#3",
          "ticks": 140880,
          "time": 432.6065804333333,
          "velocity": 0.47244094488188976
        },
        {
          "duration": 0.4879877999999849,
          "durationTicks": 144,
          "midi": 54,
          "name": "F#3",
          "ticks": 141120,
          "time": 433.43698946666666,
          "velocity": 0.4330708661417323
        },
        {
          "duration": 0.4864862999999673,
          "durationTicks": 144,
          "midi": 54,
          "name": "F#3",
          "ticks": 141360,
          "time": 434.2493014666666,
          "velocity": 0.4330708661417323
        },
        {
          "duration": 0.4864862999999673,
          "durationTicks": 144,
          "midi": 57,
          "name": "A3",
          "ticks": 141360,
          "time": 434.2493014666666,
          "velocity": 0.4330708661417323
        },
        {
          "duration": 0.4864862999999673,
          "durationTicks": 144,
          "midi": 66,
          "name": "F#4",
          "ticks": 141840,
          "time": 435.8709224666666,
          "velocity": 0.4330708661417323
        },
        {
          "duration": 0.4864862999999673,
          "durationTicks": 144,
          "midi": 54,
          "name": "F#3",
          "ticks": 141840,
          "time": 435.8709224666666,
          "velocity": 0.4330708661417323
        },
        {
          "duration": 0.4864862999999673,
          "durationTicks": 144,
          "midi": 66,
          "name": "F#4",
          "ticks": 142080,
          "time": 436.68173296666663,
          "velocity": 0.4330708661417323
        },
        {
          "duration": 0.4864862999999673,
          "durationTicks": 144,
          "midi": 54,
          "name": "F#3",
          "ticks": 142080,
          "time": 436.68173296666663,
          "velocity": 0.4330708661417323
        },
        {
          "duration": 0.49999977499999204,
          "durationTicks": 132,
          "midi": 66,
          "name": "F#4",
          "ticks": 142560,
          "time": 438.3558635666666,
          "velocity": 0.4330708661417323
        },
        {
          "duration": 0.49999977499999204,
          "durationTicks": 132,
          "midi": 54,
          "name": "F#3",
          "ticks": 142560,
          "time": 438.3558635666666,
          "velocity": 0.4330708661417323
        },
        {
          "duration": 0.49999977499999204,
          "durationTicks": 132,
          "midi": 66,
          "name": "F#4",
          "ticks": 142800,
          "time": 439.2649540666666,
          "velocity": 0.4330708661417323
        },
        {
          "duration": 0.49999977499999204,
          "durationTicks": 132,
          "midi": 54,
          "name": "F#3",
          "ticks": 142800,
          "time": 439.2649540666666,
          "velocity": 0.4330708661417323
        }
      ],
      "endOfTrackTicks": 142932
    },
    {
      "channel": 3,
      "controlChanges": {
        "7": [
          {
            "number": 7,
            "ticks": 0,
            "time": 0,
            "value": 0.5905511811023622
          }
        ],
        "10": [
          {
            "number": 10,
            "ticks": 0,
            "time": 0,
            "value": 0.6299212598425197
          }
        ],
        "91": [
          {
            "number": 91,
            "ticks": 0,
            "time": 0,
            "value": 0.7480314960629921
          }
        ]
      },
      "pitchBends": [],
      "instrument": {
        "family": "reed",
        "number": 70,
        "name": "bassoon"
      },
      "name": "",
      "notes": [
        {
          "duration": 6.75,
          "durationTicks": 2160,
          "midi": 42,
          "name": "F#2",
          "ticks": 17280,
          "time": 51.75,
          "velocity": 0.47244094488188976
        },
        {
          "duration": 2.25,
          "durationTicks": 720,
          "midi": 44,
          "name": "G#2",
          "ticks": 19440,
          "time": 58.5,
          "velocity": 0.47244094488188976
        },
        {
          "duration": 4.5,
          "durationTicks": 1440,
          "midi": 45,
          "name": "A2",
          "ticks": 20160,
          "time": 60.75,
          "velocity": 0.47244094488188976
        },
        {
          "duration": 3.5999999999999943,
          "durationTicks": 1152,
          "midi": 47,
          "name": "B2",
          "ticks": 21600,
          "time": 65.25,
          "velocity": 0.47244094488188976
        },
        {
          "duration": 1.8000000000000114,
          "durationTicks": 576,
          "midi": 49,
          "name": "C#3",
          "ticks": 23040,
          "time": 69.75,
          "velocity": 0.47244094488188976
        },
        {
          "duration": 1.8000000000000114,
          "durationTicks": 576,
          "midi": 42,
          "name": "F#2",
          "ticks": 23760,
          "time": 72,
          "velocity": 0.6299212598425197
        },
        {
          "duration": 2.25,
          "durationTicks": 720,
          "midi": 48,
          "name": "C3",
          "ticks": 24480,
          "time": 74.25,
          "velocity": 0.6299212598425197
        },
        {
          "duration": 2.25,
          "durationTicks": 720,
          "midi": 47,
          "name": "B2",
          "ticks": 25200,
          "time": 76.5,
          "velocity": 0.6299212598425197
        },
        {
          "duration": 2.25,
          "durationTicks": 720,
          "midi": 46,
          "name": "A#2",
          "ticks": 25920,
          "time": 78.75,
          "velocity": 0.6299212598425197
        },
        {
          "duration": 0.75,
          "durationTicks": 240,
          "midi": 47,
          "name": "B2",
          "ticks": 26640,
          "time": 81,
          "velocity": 0.6299212598425197
        },
        {
          "duration": 0.75,
          "durationTicks": 240,
          "midi": 59,
          "name": "B3",
          "ticks": 26880,
          "time": 81.75,
          "velocity": 0.6299212598425197
        },
        {
          "duration": 0.75,
          "durationTicks": 240,
          "midi": 57,
          "name": "A3",
          "ticks": 27120,
          "time": 82.5,
          "velocity": 0.6299212598425197
        },
        {
          "duration": 0.75,
          "durationTicks": 240,
          "midi": 56,
          "name": "G#3",
          "ticks": 27360,
          "time": 83.25,
          "velocity": 0.6299212598425197
        },
        {
          "duration": 0.75,
          "durationTicks": 240,
          "midi": 53,
          "name": "F3",
          "ticks": 27600,
          "time": 84,
          "velocity": 0.6299212598425197
        },
        {
          "duration": 1.5,
          "durationTicks": 480,
          "midi": 54,
          "name": "F#3",
          "ticks": 27840,
          "time": 84.75,
          "velocity": 0.6299212598425197
        },
        {
          "duration": 0.44999999999998863,
          "durationTicks": 144,
          "midi": 56,
          "name": "G#3",
          "ticks": 28320,
          "time": 86.25,
          "velocity": 0.6299212598425197
        },
        {
          "duration": 0.375,
          "durationTicks": 120,
          "midi": 53,
          "name": "F3",
          "ticks": 28560,
          "time": 87,
          "velocity": 0.6299212598425197
        },
        {
          "duration": 0.3571427500000084,
          "durationTicks": 120,
          "midi": 57,
          "name": "A3",
          "ticks": 54360,
          "time": 167.19758324999998,
          "velocity": 0.47244094488188976
        },
        {
          "duration": 0.3571427500000084,
          "durationTicks": 120,
          "midi": 59,
          "name": "B3",
          "ticks": 54480,
          "time": 167.554726,
          "velocity": 0.47244094488188976
        },
        {
          "duration": 0.35714274999997997,
          "durationTicks": 120,
          "midi": 60,
          "name": "C4",
          "ticks": 54600,
          "time": 167.91186875,
          "velocity": 0.47244094488188976
        },
        {
          "duration": 0.3571427500000084,
          "durationTicks": 120,
          "midi": 61,
          "name": "C#4",
          "ticks": 54720,
          "time": 168.26901149999998,
          "velocity": 0.47244094488188976
        },
        {
          "duration": 0.3571427500000084,
          "durationTicks": 120,
          "midi": 60,
          "name": "C4",
          "ticks": 54840,
          "time": 168.62615424999998,
          "velocity": 0.47244094488188976
        },
        {
          "duration": 0.35714274999997997,
          "durationTicks": 120,
          "midi": 61,
          "name": "C#4",
          "ticks": 54960,
          "time": 168.983297,
          "velocity": 0.47244094488188976
        },
        {
          "duration": 0.3571427500000084,
          "durationTicks": 120,
          "midi": 60,
          "name": "C4",
          "ticks": 55080,
          "time": 169.34043974999997,
          "velocity": 0.47244094488188976
        },
        {
          "duration": 0.3571427500000084,
          "durationTicks": 120,
          "midi": 61,
          "name": "C#4",
          "ticks": 55200,
          "time": 169.69758249999998,
          "velocity": 0.47244094488188976
        },
        {
          "duration": 0.3571427500000084,
          "durationTicks": 120,
          "midi": 57,
          "name": "A3",
          "ticks": 55320,
          "time": 170.05472525,
          "velocity": 0.47244094488188976
        },
        {
          "duration": 0.5714284000000021,
          "durationTicks": 192,
          "midi": 56,
          "name": "G#3",
          "ticks": 55440,
          "time": 170.411868,
          "velocity": 0.47244094488188976
        },
        {
          "duration": 6.4285694999999805,
          "durationTicks": 2160,
          "midi": 57,
          "name": "A3",
          "ticks": 70560,
          "time": 215.4118545,
          "velocity": 0.47244094488188976
        },
        {
          "duration": 2.1428564999999935,
          "durationTicks": 720,
          "midi": 56,
          "name": "G#3",
          "ticks": 72720,
          "time": 221.84042399999998,
          "velocity": 0.47244094488188976
        },
        {
          "duration": 6.75,
          "durationTicks": 2160,
          "midi": 42,
          "name": "F#2",
          "ticks": 97920,
          "time": 300.56359399999997,
          "velocity": 0.47244094488188976
        },
        {
          "duration": 2.25,
          "durationTicks": 720,
          "midi": 44,
          "name": "G#2",
          "ticks": 100080,
          "time": 307.31359399999997,
          "velocity": 0.47244094488188976
        },
        {
          "duration": 4.5,
          "durationTicks": 1440,
          "midi": 45,
          "name": "A2",
          "ticks": 100800,
          "time": 309.56359399999997,
          "velocity": 0.47244094488188976
        },
        {
          "duration": 4.5,
          "durationTicks": 1440,
          "midi": 47,
          "name": "B2",
          "ticks": 102240,
          "time": 314.06359399999997,
          "velocity": 0.47244094488188976
        },
        {
          "duration": 2.25,
          "durationTicks": 720,
          "midi": 49,
          "name": "C#3",
          "ticks": 103680,
          "time": 318.56359399999997,
          "velocity": 0.47244094488188976
        },
        {
          "duration": 2.25,
          "durationTicks": 720,
          "midi": 42,
          "name": "F#2",
          "ticks": 104400,
          "time": 320.81359399999997,
          "velocity": 0.47244094488188976
        },
        {
          "duration": 2.25,
          "durationTicks": 720,
          "midi": 48,
          "name": "C3",
          "ticks": 105120,
          "time": 323.06359399999997,
          "velocity": 0.6299212598425197
        },
        {
          "duration": 2.25,
          "durationTicks": 720,
          "midi": 47,
          "name": "B2",
          "ticks": 105840,
          "time": 325.31359399999997,
          "velocity": 0.6299212598425197
        },
        {
          "duration": 2.25,
          "durationTicks": 720,
          "midi": 46,
          "name": "A#2",
          "ticks": 106560,
          "time": 327.56359399999997,
          "velocity": 0.6299212598425197
        },
        {
          "duration": 0.75,
          "durationTicks": 240,
          "midi": 47,
          "name": "B2",
          "ticks": 107280,
          "time": 329.81359399999997,
          "velocity": 0.6299212598425197
        },
        {
          "duration": 0.75,
          "durationTicks": 240,
          "midi": 59,
          "name": "B3",
          "ticks": 107520,
          "time": 330.56359399999997,
          "velocity": 0.6299212598425197
        },
        {
          "duration": 0.75,
          "durationTicks": 240,
          "midi": 57,
          "name": "A3",
          "ticks": 107760,
          "time": 331.31359399999997,
          "velocity": 0.6299212598425197
        },
        {
          "duration": 0.75,
          "durationTicks": 240,
          "midi": 56,
          "name": "G#3",
          "ticks": 108000,
          "time": 332.06359399999997,
          "velocity": 0.6299212598425197
        },
        {
          "duration": 0.7125000000000341,
          "durationTicks": 228,
          "midi": 53,
          "name": "F3",
          "ticks": 108240,
          "time": 332.81359399999997,
          "velocity": 0.6299212598425197
        },
        {
          "duration": 1.5,
          "durationTicks": 480,
          "midi": 54,
          "name": "F#3",
          "ticks": 108480,
          "time": 333.56359399999997,
          "velocity": 0.6299212598425197
        },
        {
          "duration": 0.4500000000000455,
          "durationTicks": 144,
          "midi": 56,
          "name": "G#3",
          "ticks": 108960,
          "time": 335.06359399999997,
          "velocity": 0.6299212598425197
        },
        {
          "duration": 0.4500000000000455,
          "durationTicks": 144,
          "midi": 53,
          "name": "F3",
          "ticks": 109200,
          "time": 335.81359399999997,
          "velocity": 0.6299212598425197
        },
        {
          "duration": 4.285712999999987,
          "durationTicks": 1440,
          "midi": 61,
          "name": "C#4",
          "ticks": 131040,
          "time": 402.563585,
          "velocity": 0.6299212598425197
        },
        {
          "duration": 0.5853655999999887,
          "durationTicks": 192,
          "midi": 57,
          "name": "A3",
          "ticks": 132480,
          "time": 406.849298,
          "velocity": 0.47244094488188976
        }
      ],
      "endOfTrackTicks": 132672
    },
    {
      "channel": 4,
      "controlChanges": {
        "7": [
          {
            "number": 7,
            "ticks": 0,
            "time": 0,
            "value": 0.7637795275590551
          }
        ],
        "10": [
          {
            "number": 10,
            "ticks": 0,
            "time": 0,
            "value": 0.28346456692913385
          }
        ],
        "91": [
          {
            "number": 91,
            "ticks": 0,
            "time": 0,
            "value": 0.6299212598425197
          }
        ]
      },
      "pitchBends": [],
      "instrument": {
        "family": "brass",
        "number": 60,
        "name": "french horn"
      },
      "name": "",
      "notes": [
        {
          "duration": 1.8000000000000114,
          "durationTicks": 576,
          "midi": 61,
          "name": "C#4",
          "ticks": 27360,
          "time": 83.25,
          "velocity": 0.6299212598425197
        },
        {
          "duration": 0.5999999999999943,
          "durationTicks": 192,
          "midi": 61,
          "name": "C#4",
          "ticks": 28560,
          "time": 87,
          "velocity": 0.6299212598425197
        },
        {
          "duration": 1.4250000000000114,
          "durationTicks": 456,
          "midi": 61,
          "name": "C#4",
          "ticks": 28800,
          "time": 87.75,
          "velocity": 0.5511811023622047
        },
        {
          "duration": 13.412499999999994,
          "durationTicks": 4292,
          "midi": 52,
          "name": "E3",
          "ticks": 40320,
          "time": 123.75,
          "velocity": 0.47244094488188976
        },
        {
          "duration": 13.412499999999994,
          "durationTicks": 4292,
          "midi": 64,
          "name": "E4",
          "ticks": 40320,
          "time": 123.75,
          "velocity": 0.47244094488188976
        },
        {
          "duration": 10.199999999999989,
          "durationTicks": 3264,
          "midi": 52,
          "name": "E3",
          "ticks": 46080,
          "time": 141.75,
          "velocity": 0.47244094488188976
        },
        {
          "duration": 10.199999999999989,
          "durationTicks": 3264,
          "midi": 64,
          "name": "E4",
          "ticks": 46080,
          "time": 141.75,
          "velocity": 0.47244094488188976
        },
        {
          "duration": 4.714284300000003,
          "durationTicks": 1584,
          "midi": 52,
          "name": "E3",
          "ticks": 56160,
          "time": 172.5547245,
          "velocity": 0.47244094488188976
        },
        {
          "duration": 4.714284300000003,
          "durationTicks": 1584,
          "midi": 64,
          "name": "E4",
          "ticks": 56160,
          "time": 172.5547245,
          "velocity": 0.47244094488188976
        },
        {
          "duration": 0.42857129999998733,
          "durationTicks": 144,
          "midi": 64,
          "name": "E4",
          "ticks": 57840,
          "time": 177.554723,
          "velocity": 0.47244094488188976
        },
        {
          "duration": 0.42857129999998733,
          "durationTicks": 144,
          "midi": 52,
          "name": "E3",
          "ticks": 57840,
          "time": 177.554723,
          "velocity": 0.47244094488188976
        },
        {
          "duration": 0.42857130000001575,
          "durationTicks": 144,
          "midi": 64,
          "name": "E4",
          "ticks": 58080,
          "time": 178.26900849999998,
          "velocity": 0.47244094488188976
        },
        {
          "duration": 0.42857130000001575,
          "durationTicks": 144,
          "midi": 52,
          "name": "E3",
          "ticks": 58080,
          "time": 178.26900849999998,
          "velocity": 0.47244094488188976
        },
        {
          "duration": 0.5714283999999736,
          "durationTicks": 192,
          "midi": 64,
          "name": "E4",
          "ticks": 58320,
          "time": 178.983294,
          "velocity": 0.47244094488188976
        },
        {
          "duration": 0.5714283999999736,
          "durationTicks": 192,
          "midi": 52,
          "name": "E3",
          "ticks": 58320,
          "time": 178.983294,
          "velocity": 0.47244094488188976
        },
        {
          "duration": 2.1428564999999935,
          "durationTicks": 720,
          "midi": 64,
          "name": "E4",
          "ticks": 60480,
          "time": 185.41186349999998,
          "velocity": 0.47244094488188976
        },
        {
          "duration": 0.7142855000000168,
          "durationTicks": 240,
          "midi": 57,
          "name": "A3",
          "ticks": 61200,
          "time": 187.55471999999997,
          "velocity": 0.5511811023622047
        },
        {
          "duration": 0.7142855000000168,
          "durationTicks": 240,
          "midi": 69,
          "name": "A4",
          "ticks": 61200,
          "time": 187.55471999999997,
          "velocity": 0.5511811023622047
        },
        {
          "duration": 0.7142854999999884,
          "durationTicks": 240,
          "midi": 61,
          "name": "C#4",
          "ticks": 61440,
          "time": 188.2690055,
          "velocity": 0.5511811023622047
        },
        {
          "duration": 0.7142854999999884,
          "durationTicks": 240,
          "midi": 73,
          "name": "C#5",
          "ticks": 61440,
          "time": 188.2690055,
          "velocity": 0.5511811023622047
        },
        {
          "duration": 0.7142855000000168,
          "durationTicks": 240,
          "midi": 69,
          "name": "A4",
          "ticks": 61680,
          "time": 188.98329099999998,
          "velocity": 0.5511811023622047
        },
        {
          "duration": 0.7142855000000168,
          "durationTicks": 240,
          "midi": 57,
          "name": "A3",
          "ticks": 61680,
          "time": 188.98329099999998,
          "velocity": 0.5511811023622047
        },
        {
          "duration": 6.428569500000009,
          "durationTicks": 2160,
          "midi": 64,
          "name": "E4",
          "ticks": 61920,
          "time": 189.6975765,
          "velocity": 0.47244094488188976
        },
        {
          "duration": 6.428569500000009,
          "durationTicks": 2160,
          "midi": 52,
          "name": "E3",
          "ticks": 61920,
          "time": 189.6975765,
          "velocity": 0.47244094488188976
        },
        {
          "duration": 0.5714283999999736,
          "durationTicks": 192,
          "midi": 57,
          "name": "A3",
          "ticks": 64080,
          "time": 196.126146,
          "velocity": 0.4330708661417323
        },
        {
          "duration": 0.5714283999999736,
          "durationTicks": 192,
          "midi": 69,
          "name": "A4",
          "ticks": 64080,
          "time": 196.126146,
          "velocity": 0.4330708661417323
        },
        {
          "duration": 8.571425999999974,
          "durationTicks": 2880,
          "midi": 52,
          "name": "E3",
          "ticks": 70560,
          "time": 215.4118545,
          "velocity": 0.47244094488188976
        },
        {
          "duration": 8.571425999999974,
          "durationTicks": 2880,
          "midi": 64,
          "name": "E4",
          "ticks": 70560,
          "time": 215.4118545,
          "velocity": 0.47244094488188976
        },
        {
          "duration": 1.1707312000000059,
          "durationTicks": 384,
          "midi": 57,
          "name": "A3",
          "ticks": 73440,
          "time": 223.98328049999998,
          "velocity": 0.47244094488188976
        },
        {
          "duration": 4.590071541666674,
          "durationTicks": 1412,
          "midi": 61,
          "name": "C#4",
          "ticks": 74880,
          "time": 228.37352249999998,
          "velocity": 0.47244094488188976
        },
        {
          "duration": 1.1999999999999886,
          "durationTicks": 384,
          "midi": 61,
          "name": "C#4",
          "ticks": 76320,
          "time": 233.063594,
          "velocity": 0.4251968503937008
        },
        {
          "duration": 4.5,
          "durationTicks": 1440,
          "midi": 57,
          "name": "A3",
          "ticks": 92160,
          "time": 282.56359399999997,
          "velocity": 0.47244094488188976
        },
        {
          "duration": 4.5,
          "durationTicks": 1440,
          "midi": 69,
          "name": "A4",
          "ticks": 92160,
          "time": 282.56359399999997,
          "velocity": 0.47244094488188976
        },
        {
          "duration": 0.6000000000000227,
          "durationTicks": 192,
          "midi": 71,
          "name": "B4",
          "ticks": 93600,
          "time": 287.06359399999997,
          "velocity": 0.47244094488188976
        },
        {
          "duration": 2.2062500000000114,
          "durationTicks": 706,
          "midi": 61,
          "name": "C#4",
          "ticks": 108000,
          "time": 332.06359399999997,
          "velocity": 0.6299212598425197
        },
        {
          "duration": 0.4500000000000455,
          "durationTicks": 144,
          "midi": 61,
          "name": "C#4",
          "ticks": 109200,
          "time": 335.81359399999997,
          "velocity": 0.6299212598425197
        },
        {
          "duration": 13.412500000000023,
          "durationTicks": 4292,
          "midi": 61,
          "name": "C#4",
          "ticks": 109440,
          "time": 336.56359399999997,
          "velocity": 0.47244094488188976
        },
        {
          "duration": 19.142856800000004,
          "durationTicks": 6144,
          "midi": 61,
          "name": "C#4",
          "ticks": 115200,
          "time": 354.56359399999997,
          "velocity": 0.47244094488188976
        },
        {
          "duration": 4.285712999999987,
          "durationTicks": 1440,
          "midi": 61,
          "name": "C#4",
          "ticks": 126720,
          "time": 389.70644599999997,
          "velocity": 0.47244094488188976
        },
        {
          "duration": 8.571425999999974,
          "durationTicks": 2880,
          "midi": 69,
          "name": "A4",
          "ticks": 126720,
          "time": 389.70644599999997,
          "velocity": 0.47244094488188976
        },
        {
          "duration": 4.285712999999987,
          "durationTicks": 1440,
          "midi": 57,
          "name": "A3",
          "ticks": 128160,
          "time": 393.99215899999996,
          "velocity": 0.47244094488188976
        },
        {
          "duration": 4.285713000000044,
          "durationTicks": 1440,
          "midi": 71,
          "name": "B4",
          "ticks": 129600,
          "time": 398.27787199999995,
          "velocity": 0.47244094488188976
        },
        {
          "duration": 4.871078599999976,
          "durationTicks": 1632,
          "midi": 61,
          "name": "C#4",
          "ticks": 131040,
          "time": 402.563585,
          "velocity": 0.47244094488188976
        },
        {
          "duration": 4.871078599999976,
          "durationTicks": 1632,
          "midi": 73,
          "name": "C#5",
          "ticks": 131040,
          "time": 402.563585,
          "velocity": 0.47244094488188976
        },
        {
          "duration": 4.539259283333308,
          "durationTicks": 1412,
          "midi": 61,
          "name": "C#4",
          "ticks": 139680,
          "time": 428.800508,
          "velocity": 0.47244094488188976
        },
        {
          "duration": 0.4879877999999849,
          "durationTicks": 144,
          "midi": 61,
          "name": "C#4",
          "ticks": 141120,
          "time": 433.43698946666666,
          "velocity": 0.47244094488188976
        },
        {
          "duration": 0.4864862999999673,
          "durationTicks": 144,
          "midi": 61,
          "name": "C#4",
          "ticks": 141360,
          "time": 434.2493014666666,
          "velocity": 0.47244094488188976
        },
        {
          "duration": 0.4864862999999673,
          "durationTicks": 144,
          "midi": 61,
          "name": "C#4",
          "ticks": 141840,
          "time": 435.8709224666666,
          "velocity": 0.47244094488188976
        },
        {
          "duration": 0.4864862999999673,
          "durationTicks": 144,
          "midi": 57,
          "name": "A3",
          "ticks": 141840,
          "time": 435.8709224666666,
          "velocity": 0.47244094488188976
        },
        {
          "duration": 0.4864862999999673,
          "durationTicks": 144,
          "midi": 57,
          "name": "A3",
          "ticks": 142080,
          "time": 436.68173296666663,
          "velocity": 0.47244094488188976
        },
        {
          "duration": 0.4864862999999673,
          "durationTicks": 144,
          "midi": 61,
          "name": "C#4",
          "ticks": 142080,
          "time": 436.68173296666663,
          "velocity": 0.47244094488188976
        },
        {
          "duration": 0.49999977499999204,
          "durationTicks": 132,
          "midi": 61,
          "name": "C#4",
          "ticks": 142560,
          "time": 438.3558635666666,
          "velocity": 0.47244094488188976
        },
        {
          "duration": 0.49999977499999204,
          "durationTicks": 132,
          "midi": 69,
          "name": "A4",
          "ticks": 142560,
          "time": 438.3558635666666,
          "velocity": 0.47244094488188976
        },
        {
          "duration": 0.49999977499999204,
          "durationTicks": 132,
          "midi": 69,
          "name": "A4",
          "ticks": 142800,
          "time": 439.2649540666666,
          "velocity": 0.47244094488188976
        },
        {
          "duration": 0.49999977499999204,
          "durationTicks": 132,
          "midi": 61,
          "name": "C#4",
          "ticks": 142800,
          "time": 439.2649540666666,
          "velocity": 0.47244094488188976
        }
      ],
      "endOfTrackTicks": 142932
    },
    {
      "channel": 5,
      "controlChanges": {
        "7": [
          {
            "number": 7,
            "ticks": 0,
            "time": 0,
            "value": 0.9921259842519685
          }
        ],
        "91": [
          {
            "number": 91,
            "ticks": 0,
            "time": 0,
            "value": 0.7874015748031497
          }
        ]
      },
      "pitchBends": [],
      "instrument": {
        "family": "piano",
        "number": 0,
        "name": "acoustic grand piano"
      },
      "name": "",
      "notes": [
        {
          "duration": 1.06875,
          "durationTicks": 342,
          "midi": 73,
          "name": "C#5",
          "ticks": 1440,
          "time": 2.25,
          "velocity": 0.6299212598425197
        },
        {
          "duration": 0.3562500000000002,
          "durationTicks": 114,
          "midi": 74,
          "name": "D5",
          "ticks": 1800,
          "time": 3.375,
          "velocity": 0.6299212598425197
        },
        {
          "duration": 0.7125000000000004,
          "durationTicks": 228,
          "midi": 73,
          "name": "C#5",
          "ticks": 1920,
          "time": 3.75,
          "velocity": 0.6299212598425197
        },
        {
          "duration": 0.75,
          "durationTicks": 240,
          "midi": 73,
          "name": "C#5",
          "ticks": 2160,
          "time": 4.5,
          "velocity": 0.6299212598425197
        },
        {
          "duration": 0.75,
          "durationTicks": 240,
          "midi": 78,
          "name": "F#5",
          "ticks": 2400,
          "time": 5.25,
          "velocity": 0.6299212598425197
        },
        {
          "duration": 0.7374999999999998,
          "durationTicks": 236,
          "midi": 81,
          "name": "A5",
          "ticks": 2640,
          "time": 6,
          "velocity": 0.6299212598425197
        },
        {
          "duration": 0.75,
          "durationTicks": 240,
          "midi": 81,
          "name": "A5",
          "ticks": 2880,
          "time": 6.75,
          "velocity": 0.6299212598425197
        },
        {
          "duration": 0.4499999999999993,
          "durationTicks": 144,
          "midi": 71,
          "name": "B4",
          "ticks": 3120,
          "time": 7.5,
          "velocity": 0.6299212598425197
        },
        {
          "duration": 0.4499999999999993,
          "durationTicks": 144,
          "midi": 80,
          "name": "G#5",
          "ticks": 3360,
          "time": 8.25,
          "velocity": 0.6299212598425197
        },
        {
          "duration": 1.8687500000000004,
          "durationTicks": 598,
          "midi": 71,
          "name": "B4",
          "ticks": 3840,
          "time": 9.75,
          "velocity": 0.6299212598425197
        },
        {
          "duration": 0.36875000000000036,
          "durationTicks": 118,
          "midi": 69,
          "name": "A4",
          "ticks": 4440,
          "time": 11.625,
          "velocity": 0.6299212598425197
        },
        {
          "duration": 2.237499999999999,
          "durationTicks": 716,
          "midi": 78,
          "name": "F#5",
          "ticks": 4560,
          "time": 12,
          "velocity": 0.6299212598425197
        },
        {
          "duration": 0.75,
          "durationTicks": 240,
          "midi": 68,
          "name": "G#4",
          "ticks": 5280,
          "time": 14.25,
          "velocity": 0.6299212598425197
        },
        {
          "duration": 0.75,
          "durationTicks": 240,
          "midi": 74,
          "name": "D5",
          "ticks": 5520,
          "time": 15,
          "velocity": 0.6299212598425197
        },
        {
          "duration": 1.46875,
          "durationTicks": 470,
          "midi": 66,
          "name": "F#4",
          "ticks": 5760,
          "time": 15.75,
          "velocity": 0.5669291338582677
        },
        {
          "duration": 0.1875,
          "durationTicks": 60,
          "midi": 65,
          "name": "F4",
          "ticks": 6240,
          "time": 17.25,
          "velocity": 0.5275590551181102
        },
        {
          "duration": 0.1875,
          "durationTicks": 60,
          "midi": 66,
          "name": "F#4",
          "ticks": 6300,
          "time": 17.4375,
          "velocity": 0.5196850393700787
        },
        {
          "duration": 0.1875,
          "durationTicks": 60,
          "midi": 68,
          "name": "G#4",
          "ticks": 6360,
          "time": 17.625,
          "velocity": 0.5196850393700787
        },
        {
          "duration": 0.1875,
          "durationTicks": 60,
          "midi": 66,
          "name": "F#4",
          "ticks": 6420,
          "time": 17.8125,
          "velocity": 0.5118110236220472
        },
        {
          "duration": 0.7375000000000007,
          "durationTicks": 236,
          "midi": 65,
          "name": "F4",
          "ticks": 6480,
          "time": 18,
          "velocity": 0.5039370078740157
        },
        {
          "duration": 1.0999999999999979,
          "durationTicks": 352,
          "midi": 74,
          "name": "D5",
          "ticks": 7200,
          "time": 20.25,
          "velocity": 0.6299212598425197
        },
        {
          "duration": 0.3687499999999986,
          "durationTicks": 118,
          "midi": 76,
          "name": "E5",
          "ticks": 7560,
          "time": 21.375,
          "velocity": 0.6299212598425197
        },
        {
          "duration": 0.7375000000000007,
          "durationTicks": 236,
          "midi": 74,
          "name": "D5",
          "ticks": 7680,
          "time": 21.75,
          "velocity": 0.6299212598425197
        },
        {
          "duration": 0.09375,
          "durationTicks": 30,
          "midi": 74,
          "name": "D5",
          "ticks": 7920,
          "time": 22.5,
          "velocity": 0.6299212598425197
        },
        {
          "duration": 0.09375,
          "durationTicks": 30,
          "midi": 76,
          "name": "E5",
          "ticks": 7950,
          "time": 22.59375,
          "velocity": 0.6299212598425197
        },
        {
          "duration": 0.9375,
          "durationTicks": 300,
          "midi": 78,
          "name": "F#5",
          "ticks": 7980,
          "time": 22.6875,
          "velocity": 0.6299212598425197
        },
        {
          "duration": 0.3687499999999986,
          "durationTicks": 118,
          "midi": 76,
          "name": "E5",
          "ticks": 8280,
          "time": 23.625,
          "velocity": 0.6299212598425197
        },
        {
          "duration": 0.7375000000000007,
          "durationTicks": 236,
          "midi": 74,
          "name": "D5",
          "ticks": 8400,
          "time": 24,
          "velocity": 0.6299212598425197
        },
        {
          "duration": 2.25,
          "durationTicks": 720,
          "midi": 72,
          "name": "C5",
          "ticks": 8640,
          "time": 24.75,
          "velocity": 0.6299212598425197
        },
        {
          "duration": 0.7125000000000021,
          "durationTicks": 228,
          "midi": 73,
          "name": "C#5",
          "ticks": 9360,
          "time": 27,
          "velocity": 0.5905511811023622
        },
        {
          "duration": 0.375,
          "durationTicks": 120,
          "midi": 73,
          "name": "C#5",
          "ticks": 10080,
          "time": 29.25,
          "velocity": 0.6299212598425197
        },
        {
          "duration": 0.29999999999999716,
          "durationTicks": 96,
          "midi": 71,
          "name": "B4",
          "ticks": 10200,
          "time": 29.625,
          "velocity": 0.6377952755905512
        },
        {
          "duration": 0.375,
          "durationTicks": 120,
          "midi": 70,
          "name": "A#4",
          "ticks": 10320,
          "time": 30,
          "velocity": 0.6456692913385826
        },
        {
          "duration": 0.29999999999999716,
          "durationTicks": 96,
          "midi": 71,
          "name": "B4",
          "ticks": 10440,
          "time": 30.375,
          "velocity": 0.6535433070866141
        },
        {
          "duration": 0.375,
          "durationTicks": 120,
          "midi": 70,
          "name": "A#4",
          "ticks": 10560,
          "time": 30.75,
          "velocity": 0.6614173228346457
        },
        {
          "duration": 0.29999999999999716,
          "durationTicks": 96,
          "midi": 71,
          "name": "B4",
          "ticks": 10680,
          "time": 31.125,
          "velocity": 0.6692913385826772
        },
        {
          "duration": 0.375,
          "durationTicks": 120,
          "midi": 81,
          "name": "A5",
          "ticks": 10800,
          "time": 31.5,
          "velocity": 0.6771653543307087
        },
        {
          "duration": 0.29999999999999716,
          "durationTicks": 96,
          "midi": 80,
          "name": "G#5",
          "ticks": 10920,
          "time": 31.875,
          "velocity": 0.6692913385826772
        },
        {
          "duration": 0.375,
          "durationTicks": 120,
          "midi": 78,
          "name": "F#5",
          "ticks": 11040,
          "time": 32.25,
          "velocity": 0.6535433070866141
        },
        {
          "duration": 0.29999999999999716,
          "durationTicks": 96,
          "midi": 77,
          "name": "F5",
          "ticks": 11160,
          "time": 32.625,
          "velocity": 0.6456692913385826
        },
        {
          "duration": 0.375,
          "durationTicks": 120,
          "midi": 74,
          "name": "D5",
          "ticks": 11280,
          "time": 33,
          "velocity": 0.6299212598425197
        },
        {
          "duration": 0.29999999999999716,
          "durationTicks": 96,
          "midi": 73,
          "name": "C#5",
          "ticks": 11400,
          "time": 33.375,
          "velocity": 0.6220472440944882
        },
        {
          "duration": 1.5,
          "durationTicks": 480,
          "midi": 71,
          "name": "B4",
          "ticks": 11520,
          "time": 33.75,
          "velocity": 0.6062992125984252
        },
        {
          "duration": 0.7125000000000057,
          "durationTicks": 228,
          "midi": 70,
          "name": "A#4",
          "ticks": 12000,
          "time": 35.25,
          "velocity": 0.5590551181102362
        },
        {
          "duration": 0.7125000000000057,
          "durationTicks": 228,
          "midi": 69,
          "name": "A4",
          "ticks": 12240,
          "time": 36,
          "velocity": 0.5354330708661418
        },
        {
          "duration": 1.1000000000000014,
          "durationTicks": 352,
          "midi": 67,
          "name": "G4",
          "ticks": 12960,
          "time": 38.25,
          "velocity": 0.5511811023622047
        },
        {
          "duration": 0.3687499999999986,
          "durationTicks": 118,
          "midi": 69,
          "name": "A4",
          "ticks": 13320,
          "time": 39.375,
          "velocity": 0.5511811023622047
        },
        {
          "duration": 0.7374999999999972,
          "durationTicks": 236,
          "midi": 67,
          "name": "G4",
          "ticks": 13440,
          "time": 39.75,
          "velocity": 0.5511811023622047
        },
        {
          "duration": 1.46875,
          "durationTicks": 470,
          "midi": 67,
          "name": "G4",
          "ticks": 13680,
          "time": 40.5,
          "velocity": 0.5511811023622047
        },
        {
          "duration": 0.7374999999999972,
          "durationTicks": 236,
          "midi": 67,
          "name": "G4",
          "ticks": 14160,
          "time": 42,
          "velocity": 0.5511811023622047
        },
        {
          "duration": 0.45000000000000284,
          "durationTicks": 144,
          "midi": 67,
          "name": "G4",
          "ticks": 14400,
          "time": 42.75,
          "velocity": 0.5511811023622047
        },
        {
          "duration": 0.45000000000000284,
          "durationTicks": 144,
          "midi": 71,
          "name": "B4",
          "ticks": 14640,
          "time": 43.5,
          "velocity": 0.5748031496062992
        },
        {
          "duration": 0.45000000000000284,
          "durationTicks": 144,
          "midi": 74,
          "name": "D5",
          "ticks": 14880,
          "time": 44.25,
          "velocity": 0.5905511811023622
        },
        {
          "duration": 0.45000000000000284,
          "durationTicks": 144,
          "midi": 79,
          "name": "G5",
          "ticks": 15120,
          "time": 45,
          "velocity": 0.6141732283464567
        },
        {
          "duration": 0.45000000000000284,
          "durationTicks": 144,
          "midi": 83,
          "name": "B5",
          "ticks": 15360,
          "time": 45.75,
          "velocity": 0.6299212598425197
        },
        {
          "duration": 0.45000000000000284,
          "durationTicks": 144,
          "midi": 86,
          "name": "D6",
          "ticks": 15600,
          "time": 46.5,
          "velocity": 0.6456692913385826
        },
        {
          "duration": 1.1000000000000014,
          "durationTicks": 352,
          "midi": 66,
          "name": "F#4",
          "ticks": 15840,
          "time": 47.25,
          "velocity": 0.6299212598425197
        },
        {
          "duration": 0.3687499999999986,
          "durationTicks": 118,
          "midi": 68,
          "name": "G#4",
          "ticks": 16200,
          "time": 48.375,
          "velocity": 0.6299212598425197
        },
        {
          "duration": 0.7374999999999972,
          "durationTicks": 236,
          "midi": 66,
          "name": "F#4",
          "ticks": 16320,
          "time": 48.75,
          "velocity": 0.6299212598425197
        },
        {
          "duration": 1.5,
          "durationTicks": 480,
          "midi": 69,
          "name": "A4",
          "ticks": 16560,
          "time": 49.5,
          "velocity": 0.6299212598425197
        },
        {
          "duration": 0.75,
          "durationTicks": 240,
          "midi": 68,
          "name": "G#4",
          "ticks": 17040,
          "time": 51,
          "velocity": 0.5433070866141733
        },
        {
          "duration": 1.46875,
          "durationTicks": 470,
          "midi": 66,
          "name": "F#4",
          "ticks": 17280,
          "time": 51.75,
          "velocity": 0.5039370078740157
        },
        {
          "duration": 0.1875,
          "durationTicks": 60,
          "midi": 73,
          "name": "C#5",
          "ticks": 29220,
          "time": 89.0625,
          "velocity": 0.6299212598425197
        },
        {
          "duration": 0.1875,
          "durationTicks": 60,
          "midi": 74,
          "name": "D5",
          "ticks": 29280,
          "time": 89.25,
          "velocity": 0.6299212598425197
        },
        {
          "duration": 0.1875,
          "durationTicks": 60,
          "midi": 73,
          "name": "C#5",
          "ticks": 29340,
          "time": 89.4375,
          "velocity": 0.6299212598425197
        },
        {
          "duration": 0.1875,
          "durationTicks": 60,
          "midi": 72,
          "name": "C5",
          "ticks": 29400,
          "time": 89.625,
          "velocity": 0.6299212598425197
        },
        {
          "duration": 0.1875,
          "durationTicks": 60,
          "midi": 73,
          "name": "C#5",
          "ticks": 29460,
          "time": 89.8125,
          "velocity": 0.6299212598425197
        },
        {
          "duration": 0.9000000000000057,
          "durationTicks": 288,
          "midi": 81,
          "name": "A5",
          "ticks": 29520,
          "time": 90,
          "velocity": 0.6299212598425197
        },
        {
          "duration": 0.30000000000001137,
          "durationTicks": 96,
          "midi": 80,
          "name": "G#5",
          "ticks": 29880,
          "time": 91.125,
          "velocity": 0.6299212598425197
        },
        {
          "duration": 0.5999999999999943,
          "durationTicks": 192,
          "midi": 78,
          "name": "F#5",
          "ticks": 30000,
          "time": 91.5,
          "velocity": 0.6299212598425197
        },
        {
          "duration": 0.44999999999998863,
          "durationTicks": 144,
          "midi": 77,
          "name": "F5",
          "ticks": 30240,
          "time": 92.25,
          "velocity": 0.6299212598425197
        },
        {
          "duration": 0.44999999999998863,
          "durationTicks": 144,
          "midi": 76,
          "name": "E5",
          "ticks": 30480,
          "time": 93,
          "velocity": 0.6299212598425197
        },
        {
          "duration": 0.44999999999998863,
          "durationTicks": 144,
          "midi": 75,
          "name": "D#5",
          "ticks": 30720,
          "time": 93.75,
          "velocity": 0.6299212598425197
        },
        {
          "duration": 0.44999999999998863,
          "durationTicks": 144,
          "midi": 74,
          "name": "D5",
          "ticks": 30960,
          "time": 94.5,
          "velocity": 0.6299212598425197
        },
        {
          "duration": 0.44999999999998863,
          "durationTicks": 144,
          "midi": 73,
          "name": "C#5",
          "ticks": 31200,
          "time": 95.25,
          "velocity": 0.6299212598425197
        },
        {
          "duration": 0.44999999999998863,
          "durationTicks": 144,
          "midi": 73,
          "name": "C#5",
          "ticks": 31440,
          "time": 96,
          "velocity": 0.6299212598425197
        },
        {
          "duration": 0.5999999999999943,
          "durationTicks": 192,
          "midi": 73,
          "name": "C#5",
          "ticks": 31680,
          "time": 96.75,
          "velocity": 0.6299212598425197
        },
        {
          "duration": 0.1875,
          "durationTicks": 60,
          "midi": 73,
          "name": "C#5",
          "ticks": 32100,
          "time": 98.0625,
          "velocity": 0.6299212598425197
        },
        {
          "duration": 0.1875,
          "durationTicks": 60,
          "midi": 74,
          "name": "D5",
          "ticks": 32160,
          "time": 98.25,
          "velocity": 0.6299212598425197
        },
        {
          "duration": 0.1875,
          "durationTicks": 60,
          "midi": 73,
          "name": "C#5",
          "ticks": 32220,
          "time": 98.4375,
          "velocity": 0.6299212598425197
        },
        {
          "duration": 0.1875,
          "durationTicks": 60,
          "midi": 72,
          "name": "C5",
          "ticks": 32280,
          "time": 98.625,
          "velocity": 0.6299212598425197
        },
        {
          "duration": 0.1875,
          "durationTicks": 60,
          "midi": 73,
          "name": "C#5",
          "ticks": 32340,
          "time": 98.8125,
          "velocity": 0.6299212598425197
        },
        {
          "duration": 0.8999999999999915,
          "durationTicks": 288,
          "midi": 81,
          "name": "A5",
          "ticks": 32400,
          "time": 99,
          "velocity": 0.6299212598425197
        },
        {
          "duration": 0.30000000000001137,
          "durationTicks": 96,
          "midi": 80,
          "name": "G#5",
          "ticks": 32760,
          "time": 100.125,
          "velocity": 0.6299212598425197
        },
        {
          "duration": 0.6000000000000085,
          "durationTicks": 192,
          "midi": 78,
          "name": "F#5",
          "ticks": 32880,
          "time": 100.5,
          "velocity": 0.6299212598425197
        },
        {
          "duration": 0.375,
          "durationTicks": 120,
          "midi": 78,
          "name": "F#5",
          "ticks": 33120,
          "time": 101.25,
          "velocity": 0.6299212598425197
        },
        {
          "duration": 0.22500000000000853,
          "durationTicks": 72,
          "midi": 77,
          "name": "F5",
          "ticks": 33240,
          "time": 101.625,
          "velocity": 0.6299212598425197
        },
        {
          "duration": 0.22500000000000853,
          "durationTicks": 72,
          "midi": 77,
          "name": "F5",
          "ticks": 33360,
          "time": 102,
          "velocity": 0.6299212598425197
        },
        {
          "duration": 0.22500000000000853,
          "durationTicks": 72,
          "midi": 76,
          "name": "E5",
          "ticks": 33480,
          "time": 102.375,
          "velocity": 0.6299212598425197
        },
        {
          "duration": 0.22500000000000853,
          "durationTicks": 72,
          "midi": 75,
          "name": "D#5",
          "ticks": 33600,
          "time": 102.75,
          "velocity": 0.6299212598425197
        },
        {
          "duration": 0.22500000000000853,
          "durationTicks": 72,
          "midi": 74,
          "name": "D5",
          "ticks": 33720,
          "time": 103.125,
          "velocity": 0.6299212598425197
        },
        {
          "duration": 0.375,
          "durationTicks": 120,
          "midi": 74,
          "name": "D5",
          "ticks": 33840,
          "time": 103.5,
          "velocity": 0.6299212598425197
        },
        {
          "duration": 0.22500000000000853,
          "durationTicks": 72,
          "midi": 73,
          "name": "C#5",
          "ticks": 33960,
          "time": 103.875,
          "velocity": 0.6299212598425197
        },
        {
          "duration": 0.22500000000000853,
          "durationTicks": 72,
          "midi": 73,
          "name": "C#5",
          "ticks": 34080,
          "time": 104.25,
          "velocity": 0.6299212598425197
        },
        {
          "duration": 0.22500000000000853,
          "durationTicks": 72,
          "midi": 73,
          "name": "C#5",
          "ticks": 34200,
          "time": 104.625,
          "velocity": 0.6299212598425197
        },
        {
          "duration": 0.22500000000000853,
          "durationTicks": 72,
          "midi": 73,
          "name": "C#5",
          "ticks": 34320,
          "time": 105,
          "velocity": 0.6299212598425197
        },
        {
          "duration": 0.22500000000000853,
          "durationTicks": 72,
          "midi": 73,
          "name": "C#5",
          "ticks": 34440,
          "time": 105.375,
          "velocity": 0.6299212598425197
        },
        {
          "duration": 0.6000000000000085,
          "durationTicks": 192,
          "midi": 73,
          "name": "C#5",
          "ticks": 34560,
          "time": 105.75,
          "velocity": 0.6299212598425197
        },
        {
          "duration": 0.1875,
          "durationTicks": 60,
          "midi": 73,
          "name": "C#5",
          "ticks": 34980,
          "time": 107.0625,
          "velocity": 0.6299212598425197
        },
        {
          "duration": 0.1875,
          "durationTicks": 60,
          "midi": 74,
          "name": "D5",
          "ticks": 35040,
          "time": 107.25,
          "velocity": 0.6299212598425197
        },
        {
          "duration": 0.1875,
          "durationTicks": 60,
          "midi": 73,
          "name": "C#5",
          "ticks": 35100,
          "time": 107.4375,
          "velocity": 0.6299212598425197
        },
        {
          "duration": 0.1875,
          "durationTicks": 60,
          "midi": 72,
          "name": "C5",
          "ticks": 35160,
          "time": 107.625,
          "velocity": 0.6299212598425197
        },
        {
          "duration": 0.1875,
          "durationTicks": 60,
          "midi": 73,
          "name": "C#5",
          "ticks": 35220,
          "time": 107.8125,
          "velocity": 0.6299212598425197
        },
        {
          "duration": 0.8999999999999915,
          "durationTicks": 288,
          "midi": 81,
          "name": "A5",
          "ticks": 35280,
          "time": 108,
          "velocity": 0.6299212598425197
        },
        {
          "duration": 0.30000000000001137,
          "durationTicks": 96,
          "midi": 80,
          "name": "G#5",
          "ticks": 35640,
          "time": 109.125,
          "velocity": 0.6299212598425197
        },
        {
          "duration": 0.6000000000000085,
          "durationTicks": 192,
          "midi": 78,
          "name": "F#5",
          "ticks": 35760,
          "time": 109.5,
          "velocity": 0.6299212598425197
        },
        {
          "duration": 0.375,
          "durationTicks": 120,
          "midi": 78,
          "name": "F#5",
          "ticks": 36000,
          "time": 110.25,
          "velocity": 0.6299212598425197
        },
        {
          "duration": 0.30000000000001137,
          "durationTicks": 96,
          "midi": 76,
          "name": "E5",
          "ticks": 36120,
          "time": 110.625,
          "velocity": 0.6299212598425197
        },
        {
          "duration": 0.6000000000000085,
          "durationTicks": 192,
          "midi": 76,
          "name": "E5",
          "ticks": 36240,
          "time": 111,
          "velocity": 0.6299212598425197
        },
        {
          "duration": 0.6000000000000085,
          "durationTicks": 192,
          "midi": 76,
          "name": "E5",
          "ticks": 36480,
          "time": 111.75,
          "velocity": 0.6299212598425197
        },
        {
          "duration": 0.75,
          "durationTicks": 240,
          "midi": 76,
          "name": "E5",
          "ticks": 36720,
          "time": 112.5,
          "velocity": 0.6299212598425197
        },
        {
          "duration": 0.75,
          "durationTicks": 240,
          "midi": 78,
          "name": "F#5",
          "ticks": 36960,
          "time": 113.25,
          "velocity": 0.6299212598425197
        },
        {
          "duration": 0.75,
          "durationTicks": 240,
          "midi": 74,
          "name": "D5",
          "ticks": 37200,
          "time": 114,
          "velocity": 0.6299212598425197
        },
        {
          "duration": 0.7124999999999915,
          "durationTicks": 228,
          "midi": 73,
          "name": "C#5",
          "ticks": 37440,
          "time": 114.75,
          "velocity": 0.6299212598425197
        },
        {
          "duration": 0.7124999999999915,
          "durationTicks": 228,
          "midi": 76,
          "name": "E5",
          "ticks": 37920,
          "time": 116.25,
          "velocity": 0.6299212598425197
        },
        {
          "duration": 1.0687500000000085,
          "durationTicks": 342,
          "midi": 76,
          "name": "E5",
          "ticks": 38160,
          "time": 117,
          "velocity": 0.6299212598425197
        },
        {
          "duration": 0.35624999999998863,
          "durationTicks": 114,
          "midi": 74,
          "name": "D5",
          "ticks": 38520,
          "time": 118.125,
          "velocity": 0.6299212598425197
        },
        {
          "duration": 0.7124999999999915,
          "durationTicks": 228,
          "midi": 73,
          "name": "C#5",
          "ticks": 38640,
          "time": 118.5,
          "velocity": 0.6299212598425197
        },
        {
          "duration": 0.75,
          "durationTicks": 240,
          "midi": 71,
          "name": "B4",
          "ticks": 38880,
          "time": 119.25,
          "velocity": 0.6299212598425197
        },
        {
          "duration": 0.75,
          "durationTicks": 240,
          "midi": 74,
          "name": "D5",
          "ticks": 39120,
          "time": 120,
          "velocity": 0.6299212598425197
        },
        {
          "duration": 0.75,
          "durationTicks": 240,
          "midi": 78,
          "name": "F#5",
          "ticks": 39360,
          "time": 120.75,
          "velocity": 0.6299212598425197
        },
        {
          "duration": 0.6000000000000085,
          "durationTicks": 192,
          "midi": 81,
          "name": "A5",
          "ticks": 39600,
          "time": 121.5,
          "velocity": 0.6299212598425197
        },
        {
          "duration": 0.6000000000000085,
          "durationTicks": 192,
          "midi": 73,
          "name": "C#5",
          "ticks": 40080,
          "time": 123,
          "velocity": 0.6299212598425197
        },
        {
          "duration": 1.125,
          "durationTicks": 360,
          "midi": 76,
          "name": "E5",
          "ticks": 40320,
          "time": 123.75,
          "velocity": 0.6299212598425197
        },
        {
          "duration": 0.30000000000001137,
          "durationTicks": 96,
          "midi": 73,
          "name": "C#5",
          "ticks": 40680,
          "time": 124.875,
          "velocity": 0.6299212598425197
        },
        {
          "duration": 0.6000000000000085,
          "durationTicks": 192,
          "midi": 71,
          "name": "B4",
          "ticks": 40800,
          "time": 125.25,
          "velocity": 0.6299212598425197
        },
        {
          "duration": 0.30000000000001137,
          "durationTicks": 96,
          "midi": 64,
          "name": "E4",
          "ticks": 41160,
          "time": 126.375,
          "velocity": 0.6141732283464567
        },
        {
          "duration": 0.30000000000001137,
          "durationTicks": 96,
          "midi": 68,
          "name": "G#4",
          "ticks": 41280,
          "time": 126.75,
          "velocity": 0.6220472440944882
        },
        {
          "duration": 0.30000000000001137,
          "durationTicks": 96,
          "midi": 71,
          "name": "B4",
          "ticks": 41400,
          "time": 127.125,
          "velocity": 0.6299212598425197
        },
        {
          "duration": 0.30000000000001137,
          "durationTicks": 96,
          "midi": 76,
          "name": "E5",
          "ticks": 41520,
          "time": 127.5,
          "velocity": 0.6377952755905512
        },
        {
          "duration": 0.30000000000001137,
          "durationTicks": 96,
          "midi": 71,
          "name": "B4",
          "ticks": 41640,
          "time": 127.875,
          "velocity": 0.6456692913385826
        },
        {
          "duration": 0.75,
          "durationTicks": 240,
          "midi": 74,
          "name": "D5",
          "ticks": 41760,
          "time": 128.25,
          "velocity": 0.6377952755905512
        },
        {
          "duration": 0.6000000000000227,
          "durationTicks": 192,
          "midi": 72,
          "name": "C5",
          "ticks": 42000,
          "time": 129,
          "velocity": 0.6141732283464567
        },
        {
          "duration": 0.30000000000001137,
          "durationTicks": 96,
          "midi": 64,
          "name": "E4",
          "ticks": 42600,
          "time": 130.875,
          "velocity": 0.6220472440944882
        },
        {
          "duration": 0.30000000000001137,
          "durationTicks": 96,
          "midi": 69,
          "name": "A4",
          "ticks": 42720,
          "time": 131.25,
          "velocity": 0.6299212598425197
        },
        {
          "duration": 0.30000000000001137,
          "durationTicks": 96,
          "midi": 72,
          "name": "C5",
          "ticks": 42840,
          "time": 131.625,
          "velocity": 0.6456692913385826
        },
        {
          "duration": 0.30000000000001137,
          "durationTicks": 96,
          "midi": 76,
          "name": "E5",
          "ticks": 42960,
          "time": 132,
          "velocity": 0.6535433070866141
        },
        {
          "duration": 0.30000000000001137,
          "durationTicks": 96,
          "midi": 72,
          "name": "C5",
          "ticks": 43080,
          "time": 132.375,
          "velocity": 0.6692913385826772
        },
        {
          "duration": 0.75,
          "durationTicks": 240,
          "midi": 70,
          "name": "A#4",
          "ticks": 43200,
          "time": 132.75,
          "velocity": 0.6535433070866141
        },
        {
          "duration": 0.6000000000000227,
          "durationTicks": 192,
          "midi": 71,
          "name": "B4",
          "ticks": 43440,
          "time": 133.5,
          "velocity": 0.6377952755905512
        },
        {
          "duration": 0.6000000000000227,
          "durationTicks": 192,
          "midi": 64,
          "name": "E4",
          "ticks": 44160,
          "time": 135.75,
          "velocity": 0.6614173228346457
        },
        {
          "duration": 0.6000000000000227,
          "durationTicks": 192,
          "midi": 88,
          "name": "E6",
          "ticks": 44400,
          "time": 136.5,
          "velocity": 0.7716535433070866
        },
        {
          "duration": 1.5,
          "durationTicks": 480,
          "midi": 88,
          "name": "E6",
          "ticks": 44640,
          "time": 137.25,
          "velocity": 0.7952755905511811
        },
        {
          "duration": 0.6000000000000227,
          "durationTicks": 192,
          "midi": 87,
          "name": "D#6",
          "ticks": 45120,
          "time": 138.75,
          "velocity": 0.7480314960629921
        },
        {
          "duration": 0.375,
          "durationTicks": 120,
          "midi": 69,
          "name": "A4",
          "ticks": 45720,
          "time": 140.625,
          "velocity": 0.7086614173228346
        },
        {
          "duration": 0.375,
          "durationTicks": 120,
          "midi": 72,
          "name": "C5",
          "ticks": 45840,
          "time": 141,
          "velocity": 0.7086614173228346
        },
        {
          "duration": 0.375,
          "durationTicks": 120,
          "midi": 69,
          "name": "A4",
          "ticks": 45960,
          "time": 141.375,
          "velocity": 0.7086614173228346
        },
        {
          "duration": 1.1999999999999886,
          "durationTicks": 384,
          "midi": 76,
          "name": "E5",
          "ticks": 46080,
          "time": 141.75,
          "velocity": 0.7086614173228346
        },
        {
          "duration": 0.375,
          "durationTicks": 120,
          "midi": 81,
          "name": "A5",
          "ticks": 47160,
          "time": 145.125,
          "velocity": 0.7086614173228346
        },
        {
          "duration": 0.375,
          "durationTicks": 120,
          "midi": 84,
          "name": "C6",
          "ticks": 47280,
          "time": 145.5,
          "velocity": 0.7086614173228346
        },
        {
          "duration": 0.375,
          "durationTicks": 120,
          "midi": 81,
          "name": "A5",
          "ticks": 47400,
          "time": 145.875,
          "velocity": 0.7086614173228346
        },
        {
          "duration": 1.1999999999999886,
          "durationTicks": 384,
          "midi": 88,
          "name": "E6",
          "ticks": 47520,
          "time": 146.25,
          "velocity": 0.7086614173228346
        },
        {
          "duration": 0.375,
          "durationTicks": 120,
          "midi": 69,
          "name": "A4",
          "ticks": 48600,
          "time": 149.625,
          "velocity": 0.7086614173228346
        },
        {
          "duration": 0.375,
          "durationTicks": 120,
          "midi": 72,
          "name": "C5",
          "ticks": 48720,
          "time": 150,
          "velocity": 0.7086614173228346
        },
        {
          "duration": 0.375,
          "durationTicks": 120,
          "midi": 69,
          "name": "A4",
          "ticks": 48840,
          "time": 150.375,
          "velocity": 0.7086614173228346
        },
        {
          "duration": 0.44999999999998863,
          "durationTicks": 144,
          "midi": 76,
          "name": "E5",
          "ticks": 48960,
          "time": 150.75,
          "velocity": 0.7086614173228346
        },
        {
          "duration": 0.44999999999998863,
          "durationTicks": 144,
          "midi": 76,
          "name": "E5",
          "ticks": 49200,
          "time": 151.5,
          "velocity": 0.7086614173228346
        },
        {
          "duration": 0.44999999999998863,
          "durationTicks": 144,
          "midi": 76,
          "name": "E5",
          "ticks": 49440,
          "time": 152.25,
          "velocity": 0.7086614173228346
        },
        {
          "duration": 0.38461524999999597,
          "durationTicks": 120,
          "midi": 75,
          "name": "D#5",
          "ticks": 49680,
          "time": 153,
          "velocity": 0.7086614173228346
        },
        {
          "duration": 0.38461524999999597,
          "durationTicks": 120,
          "midi": 76,
          "name": "E5",
          "ticks": 49800,
          "time": 153.38461525,
          "velocity": 0.7086614173228346
        },
        {
          "duration": 0.40540525000000116,
          "durationTicks": 120,
          "midi": 78,
          "name": "F#5",
          "ticks": 49920,
          "time": 153.7692305,
          "velocity": 0.7086614173228346
        },
        {
          "duration": 0.40540525000000116,
          "durationTicks": 120,
          "midi": 76,
          "name": "E5",
          "ticks": 50040,
          "time": 154.17463575,
          "velocity": 0.7086614173228346
        },
        {
          "duration": 0.4151650000000018,
          "durationTicks": 120,
          "midi": 74,
          "name": "D5",
          "ticks": 50160,
          "time": 154.580041,
          "velocity": 0.7007874015748031
        },
        {
          "duration": 0.41666649999999095,
          "durationTicks": 120,
          "midi": 71,
          "name": "B4",
          "ticks": 50280,
          "time": 154.995206,
          "velocity": 0.6850393700787402
        },
        {
          "duration": 1.1428568000000041,
          "durationTicks": 384,
          "midi": 69,
          "name": "A4",
          "ticks": 50400,
          "time": 155.4118725,
          "velocity": 0.6220472440944882
        },
        {
          "duration": 0.3571427500000084,
          "durationTicks": 120,
          "midi": 70,
          "name": "A#4",
          "ticks": 55560,
          "time": 170.76901074999998,
          "velocity": 0.6299212598425197
        },
        {
          "duration": 0.3571427500000084,
          "durationTicks": 120,
          "midi": 71,
          "name": "B4",
          "ticks": 55680,
          "time": 171.1261535,
          "velocity": 0.6299212598425197
        },
        {
          "duration": 0.35714274999997997,
          "durationTicks": 120,
          "midi": 73,
          "name": "C#5",
          "ticks": 55800,
          "time": 171.48329625,
          "velocity": 0.6299212598425197
        },
        {
          "duration": 0.3571427500000084,
          "durationTicks": 120,
          "midi": 74,
          "name": "D5",
          "ticks": 55920,
          "time": 171.84043899999998,
          "velocity": 0.6299212598425197
        },
        {
          "duration": 0.3571427500000084,
          "durationTicks": 120,
          "midi": 75,
          "name": "D#5",
          "ticks": 56040,
          "time": 172.19758174999998,
          "velocity": 0.6299212598425197
        },
        {
          "duration": 2.1428564999999935,
          "durationTicks": 720,
          "midi": 76,
          "name": "E5",
          "ticks": 56160,
          "time": 172.5547245,
          "velocity": 0.6299212598425197
        },
        {
          "duration": 1.4285710000000051,
          "durationTicks": 480,
          "midi": 73,
          "name": "C#5",
          "ticks": 56880,
          "time": 174.69758099999999,
          "velocity": 0.6299212598425197
        },
        {
          "duration": 0.17857137499998998,
          "durationTicks": 60,
          "midi": 74,
          "name": "D5",
          "ticks": 57360,
          "time": 176.126152,
          "velocity": 0.6299212598425197
        },
        {
          "duration": 0.1785713750000184,
          "durationTicks": 60,
          "midi": 73,
          "name": "C#5",
          "ticks": 57420,
          "time": 176.30472337499998,
          "velocity": 0.6299212598425197
        },
        {
          "duration": 0.17857137499998998,
          "durationTicks": 60,
          "midi": 71,
          "name": "B4",
          "ticks": 57480,
          "time": 176.48329475,
          "velocity": 0.6299212598425197
        },
        {
          "duration": 0.17857137499998998,
          "durationTicks": 60,
          "midi": 73,
          "name": "C#5",
          "ticks": 57540,
          "time": 176.661866125,
          "velocity": 0.6299212598425197
        },
        {
          "duration": 0.42857130000001575,
          "durationTicks": 144,
          "midi": 74,
          "name": "D5",
          "ticks": 57600,
          "time": 176.84043749999998,
          "velocity": 0.6299212598425197
        },
        {
          "duration": 0.42857129999998733,
          "durationTicks": 144,
          "midi": 74,
          "name": "D5",
          "ticks": 57840,
          "time": 177.554723,
          "velocity": 0.6299212598425197
        },
        {
          "duration": 0.42857130000001575,
          "durationTicks": 144,
          "midi": 74,
          "name": "D5",
          "ticks": 58080,
          "time": 178.26900849999998,
          "velocity": 0.6299212598425197
        },
        {
          "duration": 0.5714283999999736,
          "durationTicks": 192,
          "midi": 74,
          "name": "D5",
          "ticks": 58320,
          "time": 178.983294,
          "velocity": 0.6299212598425197
        },
        {
          "duration": 0.7142855000000168,
          "durationTicks": 240,
          "midi": 73,
          "name": "C#5",
          "ticks": 59280,
          "time": 181.84043599999998,
          "velocity": 0.6299212598425197
        },
        {
          "duration": 0.7142854999999884,
          "durationTicks": 240,
          "midi": 81,
          "name": "A5",
          "ticks": 59520,
          "time": 182.5547215,
          "velocity": 0.6299212598425197
        },
        {
          "duration": 0.35714274999997997,
          "durationTicks": 120,
          "midi": 71,
          "name": "B4",
          "ticks": 59880,
          "time": 183.62614975,
          "velocity": 0.6299212598425197
        },
        {
          "duration": 0.3571427500000084,
          "durationTicks": 120,
          "midi": 73,
          "name": "C#5",
          "ticks": 60000,
          "time": 183.98329249999998,
          "velocity": 0.6299212598425197
        },
        {
          "duration": 0.3571427500000084,
          "durationTicks": 120,
          "midi": 74,
          "name": "D5",
          "ticks": 60120,
          "time": 184.34043524999998,
          "velocity": 0.6299212598425197
        },
        {
          "duration": 0.3571427500000084,
          "durationTicks": 120,
          "midi": 76,
          "name": "E5",
          "ticks": 60240,
          "time": 184.697578,
          "velocity": 0.6299212598425197
        },
        {
          "duration": 0.35714274999997997,
          "durationTicks": 120,
          "midi": 78,
          "name": "F#5",
          "ticks": 60360,
          "time": 185.05472075,
          "velocity": 0.6299212598425197
        },
        {
          "duration": 1.4285710000000051,
          "durationTicks": 480,
          "midi": 69,
          "name": "A4",
          "ticks": 60480,
          "time": 185.41186349999998,
          "velocity": 0.6299212598425197
        },
        {
          "duration": 0.3571427500000084,
          "durationTicks": 120,
          "midi": 73,
          "name": "C#5",
          "ticks": 60960,
          "time": 186.8404345,
          "velocity": 0.6299212598425197
        },
        {
          "duration": 0.35714274999997997,
          "durationTicks": 120,
          "midi": 71,
          "name": "B4",
          "ticks": 61080,
          "time": 187.19757725,
          "velocity": 0.6141732283464567
        },
        {
          "duration": 1.1428568000000041,
          "durationTicks": 384,
          "midi": 69,
          "name": "A4",
          "ticks": 61200,
          "time": 187.55471999999997,
          "velocity": 0.6062992125984252
        },
        {
          "duration": 0.1785713750000184,
          "durationTicks": 60,
          "midi": 83,
          "name": "B5",
          "ticks": 62700,
          "time": 192.01900437499998,
          "velocity": 0.6299212598425197
        },
        {
          "duration": 0.17857137499998998,
          "durationTicks": 60,
          "midi": 86,
          "name": "D6",
          "ticks": 62760,
          "time": 192.19757575,
          "velocity": 0.6299212598425197
        },
        {
          "duration": 0.17857137499998998,
          "durationTicks": 60,
          "midi": 85,
          "name": "C#6",
          "ticks": 62820,
          "time": 192.376147125,
          "velocity": 0.6299212598425197
        },
        {
          "duration": 0.1785713750000184,
          "durationTicks": 60,
          "midi": 83,
          "name": "B5",
          "ticks": 62880,
          "time": 192.55471849999998,
          "velocity": 0.6299212598425197
        },
        {
          "duration": 0.17857137499998998,
          "durationTicks": 60,
          "midi": 81,
          "name": "A5",
          "ticks": 62940,
          "time": 192.733289875,
          "velocity": 0.6299212598425197
        },
        {
          "duration": 0.1785713750000184,
          "durationTicks": 60,
          "midi": 80,
          "name": "G#5",
          "ticks": 63000,
          "time": 192.91186125,
          "velocity": 0.6299212598425197
        },
        {
          "duration": 0.17857137499998998,
          "durationTicks": 60,
          "midi": 78,
          "name": "F#5",
          "ticks": 63060,
          "time": 193.090432625,
          "velocity": 0.6299212598425197
        },
        {
          "duration": 0.17857137499998998,
          "durationTicks": 60,
          "midi": 76,
          "name": "E5",
          "ticks": 63120,
          "time": 193.269004,
          "velocity": 0.6299212598425197
        },
        {
          "duration": 0.17857137499998998,
          "durationTicks": 60,
          "midi": 74,
          "name": "D5",
          "ticks": 63180,
          "time": 193.44757537499999,
          "velocity": 0.6299212598425197
        },
        {
          "duration": 0.1785713750000184,
          "durationTicks": 60,
          "midi": 73,
          "name": "C#5",
          "ticks": 63240,
          "time": 193.62614674999998,
          "velocity": 0.6299212598425197
        },
        {
          "duration": 0.17857137499998998,
          "durationTicks": 60,
          "midi": 71,
          "name": "B4",
          "ticks": 63300,
          "time": 193.804718125,
          "velocity": 0.6299212598425197
        },
        {
          "duration": 0.17857137499998998,
          "durationTicks": 60,
          "midi": 85,
          "name": "C#6",
          "ticks": 64140,
          "time": 196.304717375,
          "velocity": 0.6299212598425197
        },
        {
          "duration": 0.17857137499998998,
          "durationTicks": 60,
          "midi": 88,
          "name": "E6",
          "ticks": 64200,
          "time": 196.48328874999999,
          "velocity": 0.6299212598425197
        },
        {
          "duration": 0.1785713750000184,
          "durationTicks": 60,
          "midi": 86,
          "name": "D6",
          "ticks": 64260,
          "time": 196.66186012499998,
          "velocity": 0.6299212598425197
        },
        {
          "duration": 0.17857137499998998,
          "durationTicks": 60,
          "midi": 85,
          "name": "C#6",
          "ticks": 64320,
          "time": 196.8404315,
          "velocity": 0.6299212598425197
        },
        {
          "duration": 0.1785713750000184,
          "durationTicks": 60,
          "midi": 83,
          "name": "B5",
          "ticks": 64380,
          "time": 197.01900287499998,
          "velocity": 0.6299212598425197
        },
        {
          "duration": 0.17857137499998998,
          "durationTicks": 60,
          "midi": 81,
          "name": "A5",
          "ticks": 64440,
          "time": 197.19757425,
          "velocity": 0.6299212598425197
        },
        {
          "duration": 0.17857137499998998,
          "durationTicks": 60,
          "midi": 80,
          "name": "G#5",
          "ticks": 64500,
          "time": 197.376145625,
          "velocity": 0.6299212598425197
        },
        {
          "duration": 0.17857137499998998,
          "durationTicks": 60,
          "midi": 78,
          "name": "F#5",
          "ticks": 64560,
          "time": 197.55471699999998,
          "velocity": 0.6299212598425197
        },
        {
          "duration": 0.1785713750000184,
          "durationTicks": 60,
          "midi": 76,
          "name": "E5",
          "ticks": 64620,
          "time": 197.73328837499997,
          "velocity": 0.6299212598425197
        },
        {
          "duration": 0.17857137499998998,
          "durationTicks": 60,
          "midi": 74,
          "name": "D5",
          "ticks": 64680,
          "time": 197.91185975,
          "velocity": 0.6299212598425197
        },
        {
          "duration": 0.1785713750000184,
          "durationTicks": 60,
          "midi": 73,
          "name": "C#5",
          "ticks": 64740,
          "time": 198.09043112499998,
          "velocity": 0.6299212598425197
        },
        {
          "duration": 0.7142854999999884,
          "durationTicks": 240,
          "midi": 71,
          "name": "B4",
          "ticks": 64800,
          "time": 198.2690025,
          "velocity": 0.6299212598425197
        },
        {
          "duration": 0.7142854999999884,
          "durationTicks": 240,
          "midi": 74,
          "name": "D5",
          "ticks": 65040,
          "time": 198.983288,
          "velocity": 0.6299212598425197
        },
        {
          "duration": 0.7142855000000168,
          "durationTicks": 240,
          "midi": 68,
          "name": "G#4",
          "ticks": 65280,
          "time": 199.69757349999998,
          "velocity": 0.6299212598425197
        },
        {
          "duration": 0.21428564999999367,
          "durationTicks": 72,
          "midi": 69,
          "name": "A4",
          "ticks": 65520,
          "time": 200.411859,
          "velocity": 0.6299212598425197
        },
        {
          "duration": 0.3571427500000084,
          "durationTicks": 120,
          "midi": 69,
          "name": "A4",
          "ticks": 65640,
          "time": 200.76900174999997,
          "velocity": 0.6299212598425197
        },
        {
          "duration": 0.3571427500000084,
          "durationTicks": 120,
          "midi": 68,
          "name": "G#4",
          "ticks": 65760,
          "time": 201.12614449999998,
          "velocity": 0.6299212598425197
        },
        {
          "duration": 0.3571427500000084,
          "durationTicks": 120,
          "midi": 69,
          "name": "A4",
          "ticks": 65880,
          "time": 201.48328725,
          "velocity": 0.6299212598425197
        },
        {
          "duration": 0.35714274999997997,
          "durationTicks": 120,
          "midi": 71,
          "name": "B4",
          "ticks": 66000,
          "time": 201.84043,
          "velocity": 0.6299212598425197
        },
        {
          "duration": 0.3571427500000084,
          "durationTicks": 120,
          "midi": 73,
          "name": "C#5",
          "ticks": 66120,
          "time": 202.19757274999998,
          "velocity": 0.6299212598425197
        },
        {
          "duration": 0.3571427500000084,
          "durationTicks": 120,
          "midi": 76,
          "name": "E5",
          "ticks": 66240,
          "time": 202.5547155,
          "velocity": 0.6614173228346457
        },
        {
          "duration": 0.3571427500000084,
          "durationTicks": 120,
          "midi": 75,
          "name": "D#5",
          "ticks": 66360,
          "time": 202.91185825,
          "velocity": 0.6456692913385826
        },
        {
          "duration": 0.7142854999999884,
          "durationTicks": 240,
          "midi": 74,
          "name": "D5",
          "ticks": 66480,
          "time": 203.269001,
          "velocity": 0.6377952755905512
        },
        {
          "duration": 0.7142854999999884,
          "durationTicks": 240,
          "midi": 73,
          "name": "C#5",
          "ticks": 66720,
          "time": 203.9832865,
          "velocity": 0.6141732283464567
        },
        {
          "duration": 0.5714284000000021,
          "durationTicks": 192,
          "midi": 71,
          "name": "B4",
          "ticks": 66960,
          "time": 204.69757199999998,
          "velocity": 0.5905511811023622
        },
        {
          "duration": 1.0714282500000252,
          "durationTicks": 360,
          "midi": 76,
          "name": "E5",
          "ticks": 67680,
          "time": 206.84042849999997,
          "velocity": 0.6614173228346457
        },
        {
          "duration": 0.08928568749999499,
          "durationTicks": 30,
          "midi": 78,
          "name": "F#5",
          "ticks": 68040,
          "time": 207.91185675,
          "velocity": 0.6377952755905512
        },
        {
          "duration": 0.08928568749999499,
          "durationTicks": 30,
          "midi": 76,
          "name": "E5",
          "ticks": 68070,
          "time": 208.0011424375,
          "velocity": 0.6377952755905512
        },
        {
          "duration": 0.08928568749999499,
          "durationTicks": 30,
          "midi": 74,
          "name": "D5",
          "ticks": 68100,
          "time": 208.090428125,
          "velocity": 0.6377952755905512
        },
        {
          "duration": 0.08928568749999499,
          "durationTicks": 30,
          "midi": 76,
          "name": "E5",
          "ticks": 68130,
          "time": 208.17971381249998,
          "velocity": 0.6299212598425197
        },
        {
          "duration": 0.3571427500000084,
          "durationTicks": 120,
          "midi": 78,
          "name": "F#5",
          "ticks": 68160,
          "time": 208.26899949999998,
          "velocity": 0.6299212598425197
        },
        {
          "duration": 0.3571427500000084,
          "durationTicks": 120,
          "midi": 74,
          "name": "D5",
          "ticks": 68280,
          "time": 208.62614225,
          "velocity": 0.6220472440944882
        },
        {
          "duration": 0.5714283999999736,
          "durationTicks": 192,
          "midi": 73,
          "name": "C#5",
          "ticks": 68400,
          "time": 208.983285,
          "velocity": 0.6220472440944882
        },
        {
          "duration": 1.4285710000000051,
          "durationTicks": 480,
          "midi": 71,
          "name": "B4",
          "ticks": 69120,
          "time": 211.1261415,
          "velocity": 0.6771653543307087
        },
        {
          "duration": 0.5714284000000021,
          "durationTicks": 192,
          "midi": 78,
          "name": "F#5",
          "ticks": 69600,
          "time": 212.5547125,
          "velocity": 0.7165354330708661
        },
        {
          "duration": 1.0714282499999968,
          "durationTicks": 360,
          "midi": 78,
          "name": "F#5",
          "ticks": 69840,
          "time": 213.26899799999998,
          "velocity": 0.7322834645669292
        },
        {
          "duration": 0.1785713750000184,
          "durationTicks": 60,
          "midi": 80,
          "name": "G#5",
          "ticks": 70200,
          "time": 214.34042624999998,
          "velocity": 0.7637795275590551
        },
        {
          "duration": 0.17857137499998998,
          "durationTicks": 60,
          "midi": 81,
          "name": "A5",
          "ticks": 70260,
          "time": 214.518997625,
          "velocity": 0.7637795275590551
        },
        {
          "duration": 0.21428564999999367,
          "durationTicks": 72,
          "midi": 80,
          "name": "G#5",
          "ticks": 70320,
          "time": 214.697569,
          "velocity": 0.7716535433070866
        },
        {
          "duration": 0.17857137499998998,
          "durationTicks": 60,
          "midi": 78,
          "name": "F#5",
          "ticks": 70440,
          "time": 215.05471175,
          "velocity": 0.7795275590551181
        },
        {
          "duration": 0.5714283999999736,
          "durationTicks": 192,
          "midi": 76,
          "name": "E5",
          "ticks": 70560,
          "time": 215.4118545,
          "velocity": 0.8031496062992126
        },
        {
          "duration": 1.7142852000000062,
          "durationTicks": 576,
          "midi": 88,
          "name": "E6",
          "ticks": 70800,
          "time": 216.12614,
          "velocity": 0.84251968503937
        },
        {
          "duration": 0.28571420000002945,
          "durationTicks": 96,
          "midi": 85,
          "name": "C#6",
          "ticks": 71400,
          "time": 217.91185374999998,
          "velocity": 0.7874015748031497
        },
        {
          "duration": 0.28571420000000103,
          "durationTicks": 96,
          "midi": 81,
          "name": "A5",
          "ticks": 71520,
          "time": 218.2689965,
          "velocity": 0.7716535433070866
        },
        {
          "duration": 0.28571420000000103,
          "durationTicks": 96,
          "midi": 76,
          "name": "E5",
          "ticks": 71640,
          "time": 218.62613925,
          "velocity": 0.7480314960629921
        },
        {
          "duration": 0.28571420000002945,
          "durationTicks": 96,
          "midi": 73,
          "name": "C#5",
          "ticks": 71760,
          "time": 218.98328199999997,
          "velocity": 0.7322834645669292
        },
        {
          "duration": 0.28571420000000103,
          "durationTicks": 96,
          "midi": 69,
          "name": "A4",
          "ticks": 71880,
          "time": 219.34042474999998,
          "velocity": 0.7165354330708661
        },
        {
          "duration": 0.08928568749999499,
          "durationTicks": 30,
          "midi": 73,
          "name": "C#5",
          "ticks": 72000,
          "time": 219.6975675,
          "velocity": 0.6929133858267716
        },
        {
          "duration": 0.08928568749999499,
          "durationTicks": 30,
          "midi": 71,
          "name": "B4",
          "ticks": 72030,
          "time": 219.7868531875,
          "velocity": 0.6929133858267716
        },
        {
          "duration": 0.08928568750002341,
          "durationTicks": 30,
          "midi": 73,
          "name": "C#5",
          "ticks": 72060,
          "time": 219.87613887499998,
          "velocity": 0.6850393700787402
        },
        {
          "duration": 0.08928568749996657,
          "durationTicks": 30,
          "midi": 71,
          "name": "B4",
          "ticks": 72090,
          "time": 219.9654245625,
          "velocity": 0.6771653543307087
        },
        {
          "duration": 0.08928568750002341,
          "durationTicks": 30,
          "midi": 73,
          "name": "C#5",
          "ticks": 72120,
          "time": 220.05471024999997,
          "velocity": 0.6771653543307087
        },
        {
          "duration": 0.08928568749999499,
          "durationTicks": 30,
          "midi": 71,
          "name": "B4",
          "ticks": 72150,
          "time": 220.1439959375,
          "velocity": 0.6692913385826772
        },
        {
          "duration": 0.08928568749999499,
          "durationTicks": 30,
          "midi": 73,
          "name": "C#5",
          "ticks": 72180,
          "time": 220.233281625,
          "velocity": 0.6692913385826772
        },
        {
          "duration": 0.08928568750002341,
          "durationTicks": 30,
          "midi": 71,
          "name": "B4",
          "ticks": 72210,
          "time": 220.32256731249998,
          "velocity": 0.6614173228346457
        },
        {
          "duration": 0.08928568749996657,
          "durationTicks": 30,
          "midi": 73,
          "name": "C#5",
          "ticks": 72240,
          "time": 220.411853,
          "velocity": 0.6535433070866141
        },
        {
          "duration": 0.08928568750002341,
          "durationTicks": 30,
          "midi": 71,
          "name": "B4",
          "ticks": 72270,
          "time": 220.50113868749997,
          "velocity": 0.6535433070866141
        },
        {
          "duration": 0.08928568749999499,
          "durationTicks": 30,
          "midi": 73,
          "name": "C#5",
          "ticks": 72300,
          "time": 220.590424375,
          "velocity": 0.6456692913385826
        },
        {
          "duration": 0.08928568749999499,
          "durationTicks": 30,
          "midi": 71,
          "name": "B4",
          "ticks": 72330,
          "time": 220.6797100625,
          "velocity": 0.6456692913385826
        },
        {
          "duration": 0.08928568749999499,
          "durationTicks": 30,
          "midi": 73,
          "name": "C#5",
          "ticks": 72360,
          "time": 220.76899575,
          "velocity": 0.6377952755905512
        },
        {
          "duration": 0.08928568749999499,
          "durationTicks": 30,
          "midi": 71,
          "name": "B4",
          "ticks": 72390,
          "time": 220.85828143749998,
          "velocity": 0.6299212598425197
        },
        {
          "duration": 0.08928568750002341,
          "durationTicks": 30,
          "midi": 73,
          "name": "C#5",
          "ticks": 72420,
          "time": 220.94756712499998,
          "velocity": 0.6299212598425197
        },
        {
          "duration": 0.08928568749996657,
          "durationTicks": 30,
          "midi": 71,
          "name": "B4",
          "ticks": 72450,
          "time": 221.0368528125,
          "velocity": 0.6299212598425197
        },
        {
          "duration": 0.08928568750002341,
          "durationTicks": 30,
          "midi": 73,
          "name": "C#5",
          "ticks": 72480,
          "time": 221.12613849999997,
          "velocity": 0.6299212598425197
        },
        {
          "duration": 0.08928568749999499,
          "durationTicks": 30,
          "midi": 71,
          "name": "B4",
          "ticks": 72510,
          "time": 221.2154241875,
          "velocity": 0.6299212598425197
        },
        {
          "duration": 0.08928568749999499,
          "durationTicks": 30,
          "midi": 73,
          "name": "C#5",
          "ticks": 72540,
          "time": 221.304709875,
          "velocity": 0.6299212598425197
        },
        {
          "duration": 0.08928568750002341,
          "durationTicks": 30,
          "midi": 71,
          "name": "B4",
          "ticks": 72570,
          "time": 221.39399556249998,
          "velocity": 0.6299212598425197
        },
        {
          "duration": 0.08928568749996657,
          "durationTicks": 30,
          "midi": 73,
          "name": "C#5",
          "ticks": 72600,
          "time": 221.48328125,
          "velocity": 0.6299212598425197
        },
        {
          "duration": 0.08928568750002341,
          "durationTicks": 30,
          "midi": 71,
          "name": "B4",
          "ticks": 72630,
          "time": 221.57256693749997,
          "velocity": 0.6299212598425197
        },
        {
          "duration": 0.08928568749999499,
          "durationTicks": 30,
          "midi": 73,
          "name": "C#5",
          "ticks": 72660,
          "time": 221.661852625,
          "velocity": 0.6299212598425197
        },
        {
          "duration": 0.08928568749999499,
          "durationTicks": 30,
          "midi": 71,
          "name": "B4",
          "ticks": 72690,
          "time": 221.7511383125,
          "velocity": 0.6299212598425197
        },
        {
          "duration": 0.08928568750002341,
          "durationTicks": 30,
          "midi": 73,
          "name": "C#5",
          "ticks": 72720,
          "time": 221.84042399999998,
          "velocity": 0.6299212598425197
        },
        {
          "duration": 0.08928568749996657,
          "durationTicks": 30,
          "midi": 71,
          "name": "B4",
          "ticks": 72750,
          "time": 221.9297096875,
          "velocity": 0.6299212598425197
        },
        {
          "duration": 0.08928568750002341,
          "durationTicks": 30,
          "midi": 73,
          "name": "C#5",
          "ticks": 72780,
          "time": 222.01899537499997,
          "velocity": 0.6299212598425197
        },
        {
          "duration": 0.08928568749999499,
          "durationTicks": 30,
          "midi": 71,
          "name": "B4",
          "ticks": 72810,
          "time": 222.1082810625,
          "velocity": 0.6299212598425197
        },
        {
          "duration": 0.08928568749999499,
          "durationTicks": 30,
          "midi": 73,
          "name": "C#5",
          "ticks": 72840,
          "time": 222.19756675,
          "velocity": 0.6299212598425197
        },
        {
          "duration": 0.08928568749999499,
          "durationTicks": 30,
          "midi": 71,
          "name": "B4",
          "ticks": 72870,
          "time": 222.2868524375,
          "velocity": 0.6299212598425197
        },
        {
          "duration": 0.08928568749999499,
          "durationTicks": 30,
          "midi": 73,
          "name": "C#5",
          "ticks": 72900,
          "time": 222.37613812499998,
          "velocity": 0.6299212598425197
        },
        {
          "duration": 0.08928568750002341,
          "durationTicks": 30,
          "midi": 71,
          "name": "B4",
          "ticks": 72930,
          "time": 222.46542381249998,
          "velocity": 0.6299212598425197
        },
        {
          "duration": 0.08928568749996657,
          "durationTicks": 30,
          "midi": 73,
          "name": "C#5",
          "ticks": 72960,
          "time": 222.5547095,
          "velocity": 0.6299212598425197
        },
        {
          "duration": 0.08928568750002341,
          "durationTicks": 30,
          "midi": 71,
          "name": "B4",
          "ticks": 72990,
          "time": 222.64399518749997,
          "velocity": 0.6299212598425197
        },
        {
          "duration": 0.08928568749999499,
          "durationTicks": 30,
          "midi": 73,
          "name": "C#5",
          "ticks": 73020,
          "time": 222.733280875,
          "velocity": 0.6299212598425197
        },
        {
          "duration": 0.08928568749999499,
          "durationTicks": 30,
          "midi": 71,
          "name": "B4",
          "ticks": 73050,
          "time": 222.8225665625,
          "velocity": 0.6299212598425197
        },
        {
          "duration": 0.08928568750002341,
          "durationTicks": 30,
          "midi": 73,
          "name": "C#5",
          "ticks": 73080,
          "time": 222.91185224999998,
          "velocity": 0.6299212598425197
        },
        {
          "duration": 0.08928568749996657,
          "durationTicks": 30,
          "midi": 71,
          "name": "B4",
          "ticks": 73110,
          "time": 223.0011379375,
          "velocity": 0.6299212598425197
        },
        {
          "duration": 0.08928568750002341,
          "durationTicks": 30,
          "midi": 73,
          "name": "C#5",
          "ticks": 73140,
          "time": 223.09042362499997,
          "velocity": 0.6299212598425197
        },
        {
          "duration": 0.08928568749999499,
          "durationTicks": 30,
          "midi": 71,
          "name": "B4",
          "ticks": 73170,
          "time": 223.1797093125,
          "velocity": 0.6299212598425197
        },
        {
          "duration": 0.08928568749999499,
          "durationTicks": 30,
          "midi": 73,
          "name": "C#5",
          "ticks": 73200,
          "time": 223.268995,
          "velocity": 0.6299212598425197
        },
        {
          "duration": 0.08928568750002341,
          "durationTicks": 30,
          "midi": 71,
          "name": "B4",
          "ticks": 73230,
          "time": 223.35828068749998,
          "velocity": 0.6299212598425197
        },
        {
          "duration": 0.08928568749996657,
          "durationTicks": 30,
          "midi": 73,
          "name": "C#5",
          "ticks": 73260,
          "time": 223.447566375,
          "velocity": 0.6299212598425197
        },
        {
          "duration": 0.08928568750002341,
          "durationTicks": 30,
          "midi": 71,
          "name": "B4",
          "ticks": 73290,
          "time": 223.53685206249997,
          "velocity": 0.6141732283464567
        },
        {
          "duration": 0.17857137499998998,
          "durationTicks": 60,
          "midi": 69,
          "name": "A4",
          "ticks": 73320,
          "time": 223.62613775,
          "velocity": 0.6062992125984252
        },
        {
          "duration": 0.17857137499998998,
          "durationTicks": 60,
          "midi": 71,
          "name": "B4",
          "ticks": 73380,
          "time": 223.804709125,
          "velocity": 0.5905511811023622
        },
        {
          "duration": 1.1707312000000059,
          "durationTicks": 384,
          "midi": 69,
          "name": "A4",
          "ticks": 73440,
          "time": 223.98328049999998,
          "velocity": 0.5748031496062992
        },
        {
          "duration": 1.0687499999999943,
          "durationTicks": 342,
          "midi": 73,
          "name": "C#5",
          "ticks": 76320,
          "time": 233.063594,
          "velocity": 0.6299212598425197
        },
        {
          "duration": 0.35624999999998863,
          "durationTicks": 114,
          "midi": 74,
          "name": "D5",
          "ticks": 76680,
          "time": 234.188594,
          "velocity": 0.6299212598425197
        },
        {
          "duration": 0.7125000000000057,
          "durationTicks": 228,
          "midi": 73,
          "name": "C#5",
          "ticks": 76800,
          "time": 234.563594,
          "velocity": 0.6299212598425197
        },
        {
          "duration": 0.75,
          "durationTicks": 240,
          "midi": 73,
          "name": "C#5",
          "ticks": 77040,
          "time": 235.313594,
          "velocity": 0.6299212598425197
        },
        {
          "duration": 0.75,
          "durationTicks": 240,
          "midi": 78,
          "name": "F#5",
          "ticks": 77280,
          "time": 236.063594,
          "velocity": 0.6299212598425197
        },
        {
          "duration": 0.75,
          "durationTicks": 240,
          "midi": 81,
          "name": "A5",
          "ticks": 77520,
          "time": 236.813594,
          "velocity": 0.6299212598425197
        },
        {
          "duration": 0.75,
          "durationTicks": 240,
          "midi": 81,
          "name": "A5",
          "ticks": 77760,
          "time": 237.563594,
          "velocity": 0.6299212598425197
        },
        {
          "duration": 0.44999999999998863,
          "durationTicks": 144,
          "midi": 71,
          "name": "B4",
          "ticks": 78000,
          "time": 238.313594,
          "velocity": 0.6299212598425197
        },
        {
          "duration": 0.375,
          "durationTicks": 120,
          "midi": 80,
          "name": "G#5",
          "ticks": 78240,
          "time": 239.063594,
          "velocity": 0.6299212598425197
        },
        {
          "duration": 1.875,
          "durationTicks": 600,
          "midi": 71,
          "name": "B4",
          "ticks": 78720,
          "time": 240.563594,
          "velocity": 0.6299212598425197
        },
        {
          "duration": 0.35624999999998863,
          "durationTicks": 114,
          "midi": 69,
          "name": "A4",
          "ticks": 79320,
          "time": 242.438594,
          "velocity": 0.6299212598425197
        },
        {
          "duration": 2.2125000000000057,
          "durationTicks": 708,
          "midi": 78,
          "name": "F#5",
          "ticks": 79440,
          "time": 242.813594,
          "velocity": 0.6299212598425197
        },
        {
          "duration": 0.75,
          "durationTicks": 240,
          "midi": 68,
          "name": "G#4",
          "ticks": 80160,
          "time": 245.063594,
          "velocity": 0.6299212598425197
        },
        {
          "duration": 0.7125000000000057,
          "durationTicks": 228,
          "midi": 74,
          "name": "D5",
          "ticks": 80400,
          "time": 245.813594,
          "velocity": 0.6062992125984252
        },
        {
          "duration": 1.5,
          "durationTicks": 480,
          "midi": 66,
          "name": "F#4",
          "ticks": 80640,
          "time": 246.563594,
          "velocity": 0.5590551181102362
        },
        {
          "duration": 0.1875,
          "durationTicks": 60,
          "midi": 65,
          "name": "F4",
          "ticks": 81120,
          "time": 248.063594,
          "velocity": 0.5039370078740157
        },
        {
          "duration": 0.1875,
          "durationTicks": 60,
          "midi": 66,
          "name": "F#4",
          "ticks": 81180,
          "time": 248.251094,
          "velocity": 0.5039370078740157
        },
        {
          "duration": 0.1875,
          "durationTicks": 60,
          "midi": 68,
          "name": "G#4",
          "ticks": 81240,
          "time": 248.438594,
          "velocity": 0.49606299212598426
        },
        {
          "duration": 0.1875,
          "durationTicks": 60,
          "midi": 66,
          "name": "F#4",
          "ticks": 81300,
          "time": 248.626094,
          "velocity": 0.49606299212598426
        },
        {
          "duration": 0.5999999999999943,
          "durationTicks": 192,
          "midi": 65,
          "name": "F4",
          "ticks": 81360,
          "time": 248.813594,
          "velocity": 0.49606299212598426
        },
        {
          "duration": 1.0999999999999943,
          "durationTicks": 352,
          "midi": 74,
          "name": "D5",
          "ticks": 82080,
          "time": 251.063594,
          "velocity": 0.6299212598425197
        },
        {
          "duration": 0.3687500000000057,
          "durationTicks": 118,
          "midi": 76,
          "name": "E5",
          "ticks": 82440,
          "time": 252.188594,
          "velocity": 0.6299212598425197
        },
        {
          "duration": 0.7375000000000114,
          "durationTicks": 236,
          "midi": 74,
          "name": "D5",
          "ticks": 82560,
          "time": 252.563594,
          "velocity": 0.6299212598425197
        },
        {
          "duration": 0.09375,
          "durationTicks": 30,
          "midi": 74,
          "name": "D5",
          "ticks": 82800,
          "time": 253.313594,
          "velocity": 0.6299212598425197
        },
        {
          "duration": 0.09375,
          "durationTicks": 30,
          "midi": 76,
          "name": "E5",
          "ticks": 82830,
          "time": 253.407344,
          "velocity": 0.6299212598425197
        },
        {
          "duration": 0.9375,
          "durationTicks": 300,
          "midi": 78,
          "name": "F#5",
          "ticks": 82860,
          "time": 253.501094,
          "velocity": 0.6299212598425197
        },
        {
          "duration": 0.3687500000000057,
          "durationTicks": 118,
          "midi": 76,
          "name": "E5",
          "ticks": 83160,
          "time": 254.438594,
          "velocity": 0.6299212598425197
        },
        {
          "duration": 0.7375000000000114,
          "durationTicks": 236,
          "midi": 74,
          "name": "D5",
          "ticks": 83280,
          "time": 254.813594,
          "velocity": 0.6299212598425197
        },
        {
          "duration": 2.2499999999999716,
          "durationTicks": 720,
          "midi": 72,
          "name": "C5",
          "ticks": 83520,
          "time": 255.563594,
          "velocity": 0.6220472440944882
        },
        {
          "duration": 0.7125000000000341,
          "durationTicks": 228,
          "midi": 73,
          "name": "C#5",
          "ticks": 84240,
          "time": 257.81359399999997,
          "velocity": 0.5905511811023622
        },
        {
          "duration": 0.375,
          "durationTicks": 120,
          "midi": 73,
          "name": "C#5",
          "ticks": 84960,
          "time": 260.06359399999997,
          "velocity": 0.6220472440944882
        },
        {
          "duration": 0.30000000000001137,
          "durationTicks": 96,
          "midi": 71,
          "name": "B4",
          "ticks": 85080,
          "time": 260.43859399999997,
          "velocity": 0.6220472440944882
        },
        {
          "duration": 0.375,
          "durationTicks": 120,
          "midi": 70,
          "name": "A#4",
          "ticks": 85200,
          "time": 260.81359399999997,
          "velocity": 0.6299212598425197
        },
        {
          "duration": 0.30000000000001137,
          "durationTicks": 96,
          "midi": 71,
          "name": "B4",
          "ticks": 85320,
          "time": 261.18859399999997,
          "velocity": 0.6299212598425197
        },
        {
          "duration": 0.375,
          "durationTicks": 120,
          "midi": 70,
          "name": "A#4",
          "ticks": 85440,
          "time": 261.56359399999997,
          "velocity": 0.6377952755905512
        },
        {
          "duration": 0.30000000000001137,
          "durationTicks": 96,
          "midi": 71,
          "name": "B4",
          "ticks": 85560,
          "time": 261.93859399999997,
          "velocity": 0.6377952755905512
        },
        {
          "duration": 0.375,
          "durationTicks": 120,
          "midi": 81,
          "name": "A5",
          "ticks": 85680,
          "time": 262.31359399999997,
          "velocity": 0.6456692913385826
        },
        {
          "duration": 0.30000000000001137,
          "durationTicks": 96,
          "midi": 80,
          "name": "G#5",
          "ticks": 85800,
          "time": 262.68859399999997,
          "velocity": 0.6535433070866141
        },
        {
          "duration": 0.375,
          "durationTicks": 120,
          "midi": 78,
          "name": "F#5",
          "ticks": 85920,
          "time": 263.06359399999997,
          "velocity": 0.6377952755905512
        },
        {
          "duration": 0.30000000000001137,
          "durationTicks": 96,
          "midi": 77,
          "name": "F5",
          "ticks": 86040,
          "time": 263.43859399999997,
          "velocity": 0.6220472440944882
        },
        {
          "duration": 0.375,
          "durationTicks": 120,
          "midi": 74,
          "name": "D5",
          "ticks": 86160,
          "time": 263.81359399999997,
          "velocity": 0.6141732283464567
        },
        {
          "duration": 0.30000000000001137,
          "durationTicks": 96,
          "midi": 73,
          "name": "C#5",
          "ticks": 86280,
          "time": 264.18859399999997,
          "velocity": 0.5984251968503937
        },
        {
          "duration": 1.5,
          "durationTicks": 480,
          "midi": 71,
          "name": "B4",
          "ticks": 86400,
          "time": 264.56359399999997,
          "velocity": 0.5905511811023622
        },
        {
          "duration": 0.7125000000000341,
          "durationTicks": 228,
          "midi": 70,
          "name": "A#4",
          "ticks": 86880,
          "time": 266.06359399999997,
          "velocity": 0.5118110236220472
        },
        {
          "duration": 0.7125000000000341,
          "durationTicks": 228,
          "midi": 69,
          "name": "A4",
          "ticks": 87120,
          "time": 266.81359399999997,
          "velocity": 0.47244094488188976
        },
        {
          "duration": 1.1000000000000227,
          "durationTicks": 352,
          "midi": 67,
          "name": "G4",
          "ticks": 87840,
          "time": 269.06359399999997,
          "velocity": 0.5511811023622047
        },
        {
          "duration": 0.3687500000000341,
          "durationTicks": 118,
          "midi": 69,
          "name": "A4",
          "ticks": 88200,
          "time": 270.18859399999997,
          "velocity": 0.5511811023622047
        },
        {
          "duration": 0.7375000000000114,
          "durationTicks": 236,
          "midi": 67,
          "name": "G4",
          "ticks": 88320,
          "time": 270.56359399999997,
          "velocity": 0.5511811023622047
        },
        {
          "duration": 1.46875,
          "durationTicks": 470,
          "midi": 67,
          "name": "G4",
          "ticks": 88560,
          "time": 271.31359399999997,
          "velocity": 0.5511811023622047
        },
        {
          "duration": 0.7375000000000114,
          "durationTicks": 236,
          "midi": 67,
          "name": "G4",
          "ticks": 89040,
          "time": 272.81359399999997,
          "velocity": 0.5511811023622047
        },
        {
          "duration": 0.4500000000000455,
          "durationTicks": 144,
          "midi": 67,
          "name": "G4",
          "ticks": 89280,
          "time": 273.56359399999997,
          "velocity": 0.5590551181102362
        },
        {
          "duration": 0.4500000000000455,
          "durationTicks": 144,
          "midi": 71,
          "name": "B4",
          "ticks": 89520,
          "time": 274.31359399999997,
          "velocity": 0.5748031496062992
        },
        {
          "duration": 0.4500000000000455,
          "durationTicks": 144,
          "midi": 74,
          "name": "D5",
          "ticks": 89760,
          "time": 275.06359399999997,
          "velocity": 0.5905511811023622
        },
        {
          "duration": 0.4500000000000455,
          "durationTicks": 144,
          "midi": 79,
          "name": "G5",
          "ticks": 90000,
          "time": 275.81359399999997,
          "velocity": 0.6141732283464567
        },
        {
          "duration": 0.4500000000000455,
          "durationTicks": 144,
          "midi": 83,
          "name": "B5",
          "ticks": 90240,
          "time": 276.56359399999997,
          "velocity": 0.6299212598425197
        },
        {
          "duration": 0.4500000000000455,
          "durationTicks": 144,
          "midi": 86,
          "name": "D6",
          "ticks": 90480,
          "time": 277.31359399999997,
          "velocity": 0.6535433070866141
        },
        {
          "duration": 1.0687500000000227,
          "durationTicks": 342,
          "midi": 66,
          "name": "F#4",
          "ticks": 90720,
          "time": 278.06359399999997,
          "velocity": 0.6299212598425197
        },
        {
          "duration": 0.3562500000000455,
          "durationTicks": 114,
          "midi": 68,
          "name": "G#4",
          "ticks": 91080,
          "time": 279.18859399999997,
          "velocity": 0.6299212598425197
        },
        {
          "duration": 0.7125000000000341,
          "durationTicks": 228,
          "midi": 66,
          "name": "F#4",
          "ticks": 91200,
          "time": 279.56359399999997,
          "velocity": 0.6299212598425197
        },
        {
          "duration": 1.5,
          "durationTicks": 480,
          "midi": 69,
          "name": "A4",
          "ticks": 91440,
          "time": 280.31359399999997,
          "velocity": 0.6299212598425197
        },
        {
          "duration": 0.75,
          "durationTicks": 240,
          "midi": 68,
          "name": "G#4",
          "ticks": 91920,
          "time": 281.81359399999997,
          "velocity": 0.6062992125984252
        },
        {
          "duration": 4.275000000000034,
          "durationTicks": 1368,
          "midi": 66,
          "name": "F#4",
          "ticks": 92160,
          "time": 282.56359399999997,
          "velocity": 0.5905511811023622
        },
        {
          "duration": 1.0687500000000227,
          "durationTicks": 342,
          "midi": 67,
          "name": "G4",
          "ticks": 93600,
          "time": 287.06359399999997,
          "velocity": 0.6299212598425197
        },
        {
          "duration": 0.3562500000000455,
          "durationTicks": 114,
          "midi": 69,
          "name": "A4",
          "ticks": 93960,
          "time": 288.18859399999997,
          "velocity": 0.6299212598425197
        },
        {
          "duration": 0.7125000000000341,
          "durationTicks": 228,
          "midi": 67,
          "name": "G4",
          "ticks": 94080,
          "time": 288.56359399999997,
          "velocity": 0.6299212598425197
        },
        {
          "duration": 0.7125000000000341,
          "durationTicks": 228,
          "midi": 67,
          "name": "G4",
          "ticks": 94320,
          "time": 289.31359399999997,
          "velocity": 0.6377952755905512
        },
        {
          "duration": 0.7125000000000341,
          "durationTicks": 228,
          "midi": 55,
          "name": "G3",
          "ticks": 94560,
          "time": 290.06359399999997,
          "velocity": 0.6377952755905512
        },
        {
          "duration": 0.7125000000000341,
          "durationTicks": 228,
          "midi": 55,
          "name": "G3",
          "ticks": 94800,
          "time": 290.81359399999997,
          "velocity": 0.6456692913385826
        },
        {
          "duration": 2.1375000000000455,
          "durationTicks": 684,
          "midi": 55,
          "name": "G3",
          "ticks": 95040,
          "time": 291.56359399999997,
          "velocity": 0.6535433070866141
        },
        {
          "duration": 1.4250000000000114,
          "durationTicks": 456,
          "midi": 86,
          "name": "D6",
          "ticks": 95760,
          "time": 293.81359399999997,
          "velocity": 0.7165354330708661
        },
        {
          "duration": 0.7125000000000341,
          "durationTicks": 228,
          "midi": 67,
          "name": "G4",
          "ticks": 96240,
          "time": 295.31359399999997,
          "velocity": 0.6299212598425197
        },
        {
          "duration": 1.0687500000000227,
          "durationTicks": 342,
          "midi": 66,
          "name": "F#4",
          "ticks": 96480,
          "time": 296.06359399999997,
          "velocity": 0.6299212598425197
        },
        {
          "duration": 0.3562500000000455,
          "durationTicks": 114,
          "midi": 68,
          "name": "G#4",
          "ticks": 96840,
          "time": 297.18859399999997,
          "velocity": 0.6299212598425197
        },
        {
          "duration": 0.7125000000000341,
          "durationTicks": 228,
          "midi": 66,
          "name": "F#4",
          "ticks": 96960,
          "time": 297.56359399999997,
          "velocity": 0.6299212598425197
        },
        {
          "duration": 1.5,
          "durationTicks": 480,
          "midi": 69,
          "name": "A4",
          "ticks": 97200,
          "time": 298.31359399999997,
          "velocity": 0.6220472440944882
        },
        {
          "duration": 0.75,
          "durationTicks": 240,
          "midi": 68,
          "name": "G#4",
          "ticks": 97680,
          "time": 299.81359399999997,
          "velocity": 0.5433070866141733
        },
        {
          "duration": 1.2000000000000455,
          "durationTicks": 384,
          "midi": 66,
          "name": "F#4",
          "ticks": 97920,
          "time": 300.56359399999997,
          "velocity": 0.5039370078740157
        },
        {
          "duration": 0.1875,
          "durationTicks": 60,
          "midi": 69,
          "name": "A4",
          "ticks": 110160,
          "time": 338.81359399999997,
          "velocity": 0.7795275590551181
        },
        {
          "duration": 2.0500000000000114,
          "durationTicks": 656,
          "midi": 81,
          "name": "A5",
          "ticks": 110220,
          "time": 339.00109399999997,
          "velocity": 0.7795275590551181
        },
        {
          "duration": 0.375,
          "durationTicks": 120,
          "midi": 83,
          "name": "B5",
          "ticks": 110880,
          "time": 341.06359399999997,
          "velocity": 0.7165354330708661
        },
        {
          "duration": 0.3000000000000682,
          "durationTicks": 96,
          "midi": 81,
          "name": "A5",
          "ticks": 111000,
          "time": 341.43859399999997,
          "velocity": 0.7086614173228346
        },
        {
          "duration": 0.375,
          "durationTicks": 120,
          "midi": 81,
          "name": "A5",
          "ticks": 111120,
          "time": 341.81359399999997,
          "velocity": 0.7086614173228346
        },
        {
          "duration": 0.3000000000000682,
          "durationTicks": 96,
          "midi": 80,
          "name": "G#5",
          "ticks": 111240,
          "time": 342.18859399999997,
          "velocity": 0.7086614173228346
        },
        {
          "duration": 0.375,
          "durationTicks": 120,
          "midi": 80,
          "name": "G#5",
          "ticks": 111360,
          "time": 342.56359399999997,
          "velocity": 0.7086614173228346
        },
        {
          "duration": 0.3000000000000682,
          "durationTicks": 96,
          "midi": 78,
          "name": "F#5",
          "ticks": 111480,
          "time": 342.93859399999997,
          "velocity": 0.7007874015748031
        },
        {
          "duration": 0.375,
          "durationTicks": 120,
          "midi": 78,
          "name": "F#5",
          "ticks": 111600,
          "time": 343.31359399999997,
          "velocity": 0.7007874015748031
        },
        {
          "duration": 0.3000000000000682,
          "durationTicks": 96,
          "midi": 77,
          "name": "F5",
          "ticks": 111720,
          "time": 343.68859399999997,
          "velocity": 0.7007874015748031
        },
        {
          "duration": 0.375,
          "durationTicks": 120,
          "midi": 77,
          "name": "F5",
          "ticks": 111840,
          "time": 344.06359399999997,
          "velocity": 0.7007874015748031
        },
        {
          "duration": 0.3000000000000682,
          "durationTicks": 96,
          "midi": 78,
          "name": "F#5",
          "ticks": 111960,
          "time": 344.43859399999997,
          "velocity": 0.6929133858267716
        },
        {
          "duration": 0.375,
          "durationTicks": 120,
          "midi": 78,
          "name": "F#5",
          "ticks": 112080,
          "time": 344.81359399999997,
          "velocity": 0.6929133858267716
        },
        {
          "duration": 0.3000000000000682,
          "durationTicks": 96,
          "midi": 80,
          "name": "G#5",
          "ticks": 112200,
          "time": 345.18859399999997,
          "velocity": 0.6929133858267716
        },
        {
          "duration": 1.8000000000000682,
          "durationTicks": 576,
          "midi": 73,
          "name": "C#5",
          "ticks": 112320,
          "time": 345.56359399999997,
          "velocity": 0.6929133858267716
        },
        {
          "duration": 2.625,
          "durationTicks": 840,
          "midi": 85,
          "name": "C#6",
          "ticks": 113040,
          "time": 347.81359399999997,
          "velocity": 0.7874015748031497
        },
        {
          "duration": 0.1875,
          "durationTicks": 60,
          "midi": 86,
          "name": "D6",
          "ticks": 113880,
          "time": 350.43859399999997,
          "velocity": 0.7007874015748031
        },
        {
          "duration": 0.1875,
          "durationTicks": 60,
          "midi": 85,
          "name": "C#6",
          "ticks": 113940,
          "time": 350.62609399999997,
          "velocity": 0.7007874015748031
        },
        {
          "duration": 0.75,
          "durationTicks": 240,
          "midi": 83,
          "name": "B5",
          "ticks": 114000,
          "time": 350.81359399999997,
          "velocity": 0.7007874015748031
        },
        {
          "duration": 0.75,
          "durationTicks": 240,
          "midi": 81,
          "name": "A5",
          "ticks": 114240,
          "time": 351.56359399999997,
          "velocity": 0.7007874015748031
        },
        {
          "duration": 0.375,
          "durationTicks": 120,
          "midi": 80,
          "name": "G#5",
          "ticks": 114480,
          "time": 352.31359399999997,
          "velocity": 0.7007874015748031
        },
        {
          "duration": 0.09375,
          "durationTicks": 30,
          "midi": 81,
          "name": "A5",
          "ticks": 114600,
          "time": 352.68859399999997,
          "velocity": 0.7007874015748031
        },
        {
          "duration": 0.09375,
          "durationTicks": 30,
          "midi": 80,
          "name": "G#5",
          "ticks": 114630,
          "time": 352.78234399999997,
          "velocity": 0.7007874015748031
        },
        {
          "duration": 0.09375,
          "durationTicks": 30,
          "midi": 78,
          "name": "F#5",
          "ticks": 114660,
          "time": 352.87609399999997,
          "velocity": 0.7007874015748031
        },
        {
          "duration": 0.09375,
          "durationTicks": 30,
          "midi": 80,
          "name": "G#5",
          "ticks": 114690,
          "time": 352.96984399999997,
          "velocity": 0.7007874015748031
        },
        {
          "duration": 0.75,
          "durationTicks": 240,
          "midi": 81,
          "name": "A5",
          "ticks": 114720,
          "time": 353.06359399999997,
          "velocity": 0.7007874015748031
        },
        {
          "duration": 0.75,
          "durationTicks": 240,
          "midi": 83,
          "name": "B5",
          "ticks": 114960,
          "time": 353.81359399999997,
          "velocity": 0.7007874015748031
        },
        {
          "duration": 1.46875,
          "durationTicks": 470,
          "midi": 77,
          "name": "F5",
          "ticks": 115200,
          "time": 354.56359399999997,
          "velocity": 0.7007874015748031
        },
        {
          "duration": 0.7375000000000114,
          "durationTicks": 236,
          "midi": 73,
          "name": "C#5",
          "ticks": 115680,
          "time": 356.06359399999997,
          "velocity": 0.7007874015748031
        },
        {
          "duration": 2.2062500000000114,
          "durationTicks": 706,
          "midi": 81,
          "name": "A5",
          "ticks": 115920,
          "time": 356.81359399999997,
          "velocity": 0.7086614173228346
        },
        {
          "duration": 2.206250000000068,
          "durationTicks": 706,
          "midi": 87,
          "name": "D#6",
          "ticks": 116640,
          "time": 359.06359399999997,
          "velocity": 0.7086614173228346
        },
        {
          "duration": 2.206250000000068,
          "durationTicks": 706,
          "midi": 80,
          "name": "G#5",
          "ticks": 117360,
          "time": 361.31359399999997,
          "velocity": 0.7086614173228346
        },
        {
          "duration": 2.206250000000068,
          "durationTicks": 706,
          "midi": 85,
          "name": "C#6",
          "ticks": 118080,
          "time": 363.56359399999997,
          "velocity": 0.7086614173228346
        },
        {
          "duration": 2.206250000000068,
          "durationTicks": 706,
          "midi": 78,
          "name": "F#5",
          "ticks": 118800,
          "time": 365.81359399999997,
          "velocity": 0.7086614173228346
        },
        {
          "duration": 1.1000000000000227,
          "durationTicks": 352,
          "midi": 83,
          "name": "B5",
          "ticks": 119520,
          "time": 368.06359399999997,
          "velocity": 0.7086614173228346
        },
        {
          "duration": 0.1812500000000341,
          "durationTicks": 58,
          "midi": 85,
          "name": "C#6",
          "ticks": 119880,
          "time": 369.18859399999997,
          "velocity": 0.7086614173228346
        },
        {
          "duration": 0.1812500000000341,
          "durationTicks": 58,
          "midi": 86,
          "name": "D6",
          "ticks": 119940,
          "time": 369.37609399999997,
          "velocity": 0.7086614173228346
        },
        {
          "duration": 0.1812500000000341,
          "durationTicks": 58,
          "midi": 85,
          "name": "C#6",
          "ticks": 120000,
          "time": 369.56359399999997,
          "velocity": 0.7086614173228346
        },
        {
          "duration": 0.1812500000000341,
          "durationTicks": 58,
          "midi": 83,
          "name": "B5",
          "ticks": 120060,
          "time": 369.75109399999997,
          "velocity": 0.7086614173228346
        },
        {
          "duration": 0.1812500000000341,
          "durationTicks": 58,
          "midi": 81,
          "name": "A5",
          "ticks": 120120,
          "time": 369.93859399999997,
          "velocity": 0.7086614173228346
        },
        {
          "duration": 0.1812500000000341,
          "durationTicks": 58,
          "midi": 80,
          "name": "G#5",
          "ticks": 120180,
          "time": 370.12609399999997,
          "velocity": 0.7086614173228346
        },
        {
          "duration": 0.3687500000000341,
          "durationTicks": 118,
          "midi": 78,
          "name": "F#5",
          "ticks": 120240,
          "time": 370.31359399999997,
          "velocity": 0.7086614173228346
        },
        {
          "duration": 0.3687500000000341,
          "durationTicks": 118,
          "midi": 77,
          "name": "F5",
          "ticks": 120360,
          "time": 370.68859399999997,
          "velocity": 0.7086614173228346
        },
        {
          "duration": 0.7375000000000114,
          "durationTicks": 236,
          "midi": 83,
          "name": "B5",
          "ticks": 120480,
          "time": 371.06359399999997,
          "velocity": 0.7086614173228346
        },
        {
          "duration": 0.7375000000000114,
          "durationTicks": 236,
          "midi": 77,
          "name": "F5",
          "ticks": 120720,
          "time": 371.81359399999997,
          "velocity": 0.6377952755905512
        },
        {
          "duration": 1.1428568000000041,
          "durationTicks": 384,
          "midi": 78,
          "name": "F#5",
          "ticks": 120960,
          "time": 372.56359399999997,
          "velocity": 0.5905511811023622
        },
        {
          "duration": 2.1011898458333462,
          "durationTicks": 706,
          "midi": 78,
          "name": "F#5",
          "ticks": 122400,
          "time": 376.84930699999995,
          "velocity": 0.6299212598425197
        },
        {
          "duration": 2.1011898458333462,
          "durationTicks": 706,
          "midi": 69,
          "name": "A4",
          "ticks": 123120,
          "time": 378.99216349999995,
          "velocity": 0.6299212598425197
        },
        {
          "duration": 3.541665604166667,
          "durationTicks": 1190,
          "midi": 68,
          "name": "G#4",
          "ticks": 123840,
          "time": 381.13501999999994,
          "velocity": 0.6220472440944882
        },
        {
          "duration": 0.42857129999998733,
          "durationTicks": 144,
          "midi": 86,
          "name": "D6",
          "ticks": 125040,
          "time": 384.70644749999997,
          "velocity": 0.6771653543307087
        },
        {
          "duration": 2.1011898458332894,
          "durationTicks": 706,
          "midi": 85,
          "name": "C#6",
          "ticks": 125280,
          "time": 385.420733,
          "velocity": 0.6850393700787402
        },
        {
          "duration": 2.1011898458333462,
          "durationTicks": 706,
          "midi": 77,
          "name": "F5",
          "ticks": 126000,
          "time": 387.5635895,
          "velocity": 0.6377952755905512
        },
        {
          "duration": 1.1428568000000041,
          "durationTicks": 384,
          "midi": 78,
          "name": "F#5",
          "ticks": 126720,
          "time": 389.70644599999997,
          "velocity": 0.5905511811023622
        },
        {
          "duration": 2.1011898458333462,
          "durationTicks": 706,
          "midi": 78,
          "name": "F#5",
          "ticks": 128160,
          "time": 393.99215899999996,
          "velocity": 0.6929133858267716
        },
        {
          "duration": 2.1011898458333462,
          "durationTicks": 706,
          "midi": 57,
          "name": "A3",
          "ticks": 128880,
          "time": 396.13501549999995,
          "velocity": 0.6929133858267716
        },
        {
          "duration": 3.541665604166667,
          "durationTicks": 1190,
          "midi": 55,
          "name": "G3",
          "ticks": 129600,
          "time": 398.27787199999995,
          "velocity": 0.6929133858267716
        },
        {
          "duration": 0.42857129999998733,
          "durationTicks": 144,
          "midi": 86,
          "name": "D6",
          "ticks": 130800,
          "time": 401.8492995,
          "velocity": 0.7165354330708661
        },
        {
          "duration": 1.7142851999999493,
          "durationTicks": 576,
          "midi": 85,
          "name": "C#6",
          "ticks": 131040,
          "time": 402.563585,
          "velocity": 0.7322834645669292
        },
        {
          "duration": 1.7142852000000062,
          "durationTicks": 576,
          "midi": 77,
          "name": "F5",
          "ticks": 131760,
          "time": 404.7064415,
          "velocity": 0.6850393700787402
        },
        {
          "duration": 1.1707311999999774,
          "durationTicks": 384,
          "midi": 78,
          "name": "F#5",
          "ticks": 132480,
          "time": 406.849298,
          "velocity": 0.6299212598425197
        },
        {
          "duration": 0.36585350000001426,
          "durationTicks": 120,
          "midi": 73,
          "name": "C#5",
          "ticks": 134760,
          "time": 413.80051449999996,
          "velocity": 0.6299212598425197
        },
        {
          "duration": 0.21951209999997445,
          "durationTicks": 72,
          "midi": 85,
          "name": "C#6",
          "ticks": 134880,
          "time": 414.166368,
          "velocity": 0.6377952755905512
        },
        {
          "duration": 0.21951209999997445,
          "durationTicks": 72,
          "midi": 85,
          "name": "C#6",
          "ticks": 135000,
          "time": 414.5322215,
          "velocity": 0.6456692913385826
        },
        {
          "duration": 0.2195121000000313,
          "durationTicks": 72,
          "midi": 85,
          "name": "C#6",
          "ticks": 135120,
          "time": 414.89807499999995,
          "velocity": 0.6535433070866141
        },
        {
          "duration": 0.2195121000000313,
          "durationTicks": 72,
          "midi": 85,
          "name": "C#6",
          "ticks": 135240,
          "time": 415.26392849999996,
          "velocity": 0.6614173228346457
        },
        {
          "duration": 1.097560499999986,
          "durationTicks": 360,
          "midi": 85,
          "name": "C#6",
          "ticks": 135360,
          "time": 415.629782,
          "velocity": 0.6692913385826772
        },
        {
          "duration": 0.36585350000001426,
          "durationTicks": 120,
          "midi": 81,
          "name": "A5",
          "ticks": 135720,
          "time": 416.72734249999996,
          "velocity": 0.6299212598425197
        },
        {
          "duration": 0.5853655999999887,
          "durationTicks": 192,
          "midi": 78,
          "name": "F#5",
          "ticks": 135840,
          "time": 417.093196,
          "velocity": 0.6141732283464567
        },
        {
          "duration": 0.36585350000001426,
          "durationTicks": 120,
          "midi": 73,
          "name": "C#5",
          "ticks": 137640,
          "time": 422.58099849999996,
          "velocity": 0.6220472440944882
        },
        {
          "duration": 0.21951209999997445,
          "durationTicks": 72,
          "midi": 85,
          "name": "C#6",
          "ticks": 137760,
          "time": 422.946852,
          "velocity": 0.6377952755905512
        },
        {
          "duration": 0.21951209999997445,
          "durationTicks": 72,
          "midi": 85,
          "name": "C#6",
          "ticks": 137880,
          "time": 423.3127055,
          "velocity": 0.6456692913385826
        },
        {
          "duration": 0.2195121000000313,
          "durationTicks": 72,
          "midi": 85,
          "name": "C#6",
          "ticks": 138000,
          "time": 423.67855899999995,
          "velocity": 0.6535433070866141
        },
        {
          "duration": 0.2195121000000313,
          "durationTicks": 72,
          "midi": 85,
          "name": "C#6",
          "ticks": 138120,
          "time": 424.04441249999996,
          "velocity": 0.6614173228346457
        },
        {
          "duration": 1.097560499999986,
          "durationTicks": 360,
          "midi": 85,
          "name": "C#6",
          "ticks": 138240,
          "time": 424.410266,
          "velocity": 0.6614173228346457
        },
        {
          "duration": 0.36585350000001426,
          "durationTicks": 120,
          "midi": 81,
          "name": "A5",
          "ticks": 138600,
          "time": 425.50782649999996,
          "velocity": 0.6220472440944882
        },
        {
          "duration": 0.5853655999999887,
          "durationTicks": 192,
          "midi": 78,
          "name": "F#5",
          "ticks": 138720,
          "time": 425.87368,
          "velocity": 0.6141732283464567
        },
        {
          "duration": 0.375,
          "durationTicks": 120,
          "midi": 73,
          "name": "C#5",
          "ticks": 139800,
          "time": 429.175508,
          "velocity": 0.6220472440944882
        },
        {
          "duration": 0.22500000000002274,
          "durationTicks": 72,
          "midi": 85,
          "name": "C#6",
          "ticks": 139920,
          "time": 429.550508,
          "velocity": 0.6220472440944882
        },
        {
          "duration": 0.22500000000002274,
          "durationTicks": 72,
          "midi": 85,
          "name": "C#6",
          "ticks": 140040,
          "time": 429.925508,
          "velocity": 0.6299212598425197
        },
        {
          "duration": 0.22500000000002274,
          "durationTicks": 72,
          "midi": 85,
          "name": "C#6",
          "ticks": 140160,
          "time": 430.300508,
          "velocity": 0.6377952755905512
        },
        {
          "duration": 0.22500000000002274,
          "durationTicks": 72,
          "midi": 85,
          "name": "C#6",
          "ticks": 140280,
          "time": 430.675508,
          "velocity": 0.6377952755905512
        },
        {
          "duration": 0.22948711666668942,
          "durationTicks": 72,
          "midi": 85,
          "name": "C#6",
          "ticks": 140400,
          "time": 431.050508,
          "velocity": 0.6456692913385826
        },
        {
          "duration": 0.2307691499999578,
          "durationTicks": 72,
          "midi": 85,
          "name": "C#6",
          "ticks": 140520,
          "time": 431.4338412166667,
          "velocity": 0.6535433070866141
        },
        {
          "duration": 0.2354925166666817,
          "durationTicks": 72,
          "midi": 85,
          "name": "C#6",
          "ticks": 140640,
          "time": 431.81845646666665,
          "velocity": 0.6299212598425197
        },
        {
          "duration": 0.23684205000000702,
          "durationTicks": 72,
          "midi": 85,
          "name": "C#6",
          "ticks": 140760,
          "time": 432.2118436833333,
          "velocity": 0.6062992125984252
        },
        {
          "duration": 0.24707593333334898,
          "durationTicks": 72,
          "midi": 85,
          "name": "C#6",
          "ticks": 140880,
          "time": 432.6065804333333,
          "velocity": 0.5905511811023622
        },
        {
          "duration": 0.24999989999997752,
          "durationTicks": 72,
          "midi": 85,
          "name": "C#6",
          "ticks": 141000,
          "time": 433.02032296666664,
          "velocity": 0.5669291338582677
        },
        {
          "duration": 0.650149899999974,
          "durationTicks": 192,
          "midi": 78,
          "name": "F#5",
          "ticks": 141120,
          "time": 433.43698946666666,
          "velocity": 0.5511811023622047
        },
        {
          "duration": 0.8108105000000023,
          "durationTicks": 240,
          "midi": 81,
          "name": "A5",
          "ticks": 141600,
          "time": 435.0601119666666,
          "velocity": 0.5433070866141733
        },
        {
          "duration": 0.6486484000000132,
          "durationTicks": 192,
          "midi": 78,
          "name": "F#5",
          "ticks": 141840,
          "time": 435.8709224666666,
          "velocity": 0.49606299212598426
        },
        {
          "duration": 0.857142500000009,
          "durationTicks": 240,
          "midi": 81,
          "name": "A5",
          "ticks": 142320,
          "time": 437.4987210666666,
          "velocity": 0.5275590551181102
        },
        {
          "duration": 0.6818178749999788,
          "durationTicks": 180,
          "midi": 78,
          "name": "F#5",
          "ticks": 142560,
          "time": 438.3558635666666,
          "velocity": 0.47244094488188976
        }
      ],
      "endOfTrackTicks": 142740
    },
    {
      "channel": 6,
      "controlChanges": {
        "7": [
          {
            "number": 7,
            "ticks": 0,
            "time": 0,
            "value": 0.9606299212598425
          }
        ],
        "91": [
          {
            "number": 91,
            "ticks": 0,
            "time": 0,
            "value": 0.7874015748031497
          },
          {
            "number": 91,
            "ticks": 0,
            "time": 0,
            "value": 0.7874015748031497
          }
        ]
      },
      "pitchBends": [],
      "instrument": {
        "family": "piano",
        "number": 0,
        "name": "acoustic grand piano"
      },
      "name": "",
      "notes": [
        {
          "duration": 1.46875,
          "durationTicks": 470,
          "midi": 54,
          "name": "F#3",
          "ticks": 1440,
          "time": 2.25,
          "velocity": 0.47244094488188976
        },
        {
          "duration": 1.46875,
          "durationTicks": 470,
          "midi": 57,
          "name": "A3",
          "ticks": 1440,
          "time": 2.25,
          "velocity": 0.47244094488188976
        },
        {
          "duration": 0.7374999999999998,
          "durationTicks": 236,
          "midi": 57,
          "name": "A3",
          "ticks": 1920,
          "time": 3.75,
          "velocity": 0.47244094488188976
        },
        {
          "duration": 0.7374999999999998,
          "durationTicks": 236,
          "midi": 54,
          "name": "F#3",
          "ticks": 1920,
          "time": 3.75,
          "velocity": 0.47244094488188976
        },
        {
          "duration": 1.46875,
          "durationTicks": 470,
          "midi": 54,
          "name": "F#3",
          "ticks": 2160,
          "time": 4.5,
          "velocity": 0.47244094488188976
        },
        {
          "duration": 1.46875,
          "durationTicks": 470,
          "midi": 57,
          "name": "A3",
          "ticks": 2160,
          "time": 4.5,
          "velocity": 0.47244094488188976
        },
        {
          "duration": 0.7374999999999998,
          "durationTicks": 236,
          "midi": 54,
          "name": "F#3",
          "ticks": 2640,
          "time": 6,
          "velocity": 0.47244094488188976
        },
        {
          "duration": 0.7374999999999998,
          "durationTicks": 236,
          "midi": 61,
          "name": "C#4",
          "ticks": 2640,
          "time": 6,
          "velocity": 0.47244094488188976
        },
        {
          "duration": 2.2062500000000007,
          "durationTicks": 706,
          "midi": 54,
          "name": "F#3",
          "ticks": 2880,
          "time": 6.75,
          "velocity": 0.47244094488188976
        },
        {
          "duration": 2.2062500000000007,
          "durationTicks": 706,
          "midi": 62,
          "name": "D4",
          "ticks": 2880,
          "time": 6.75,
          "velocity": 0.47244094488188976
        },
        {
          "duration": 0.7374999999999989,
          "durationTicks": 236,
          "midi": 41,
          "name": "F2",
          "ticks": 3600,
          "time": 9,
          "velocity": 0.47244094488188976
        },
        {
          "duration": 0.7374999999999989,
          "durationTicks": 236,
          "midi": 53,
          "name": "F3",
          "ticks": 4080,
          "time": 10.5,
          "velocity": 0.47244094488188976
        },
        {
          "duration": 0.7374999999999989,
          "durationTicks": 236,
          "midi": 61,
          "name": "C#4",
          "ticks": 4080,
          "time": 10.5,
          "velocity": 0.47244094488188976
        },
        {
          "duration": 1.46875,
          "durationTicks": 470,
          "midi": 54,
          "name": "F#3",
          "ticks": 4320,
          "time": 11.25,
          "velocity": 0.47244094488188976
        },
        {
          "duration": 1.46875,
          "durationTicks": 470,
          "midi": 61,
          "name": "C#4",
          "ticks": 4320,
          "time": 11.25,
          "velocity": 0.47244094488188976
        },
        {
          "duration": 0.7374999999999989,
          "durationTicks": 236,
          "midi": 49,
          "name": "C#3",
          "ticks": 4800,
          "time": 12.75,
          "velocity": 0.47244094488188976
        },
        {
          "duration": 0.7374999999999989,
          "durationTicks": 236,
          "midi": 45,
          "name": "A2",
          "ticks": 4800,
          "time": 12.75,
          "velocity": 0.47244094488188976
        },
        {
          "duration": 2.2375000000000007,
          "durationTicks": 716,
          "midi": 47,
          "name": "B2",
          "ticks": 5040,
          "time": 13.5,
          "velocity": 0.47244094488188976
        },
        {
          "duration": 1.46875,
          "durationTicks": 470,
          "midi": 50,
          "name": "D3",
          "ticks": 5040,
          "time": 13.5,
          "velocity": 0.47244094488188976
        },
        {
          "duration": 0.7375000000000007,
          "durationTicks": 236,
          "midi": 59,
          "name": "B3",
          "ticks": 5520,
          "time": 15,
          "velocity": 0.47244094488188976
        },
        {
          "duration": 2.9875000000000007,
          "durationTicks": 956,
          "midi": 49,
          "name": "C#3",
          "ticks": 5760,
          "time": 15.75,
          "velocity": 0.4566929133858268
        },
        {
          "duration": 2.2062500000000007,
          "durationTicks": 706,
          "midi": 57,
          "name": "A3",
          "ticks": 5760,
          "time": 15.75,
          "velocity": 0.4566929133858268
        },
        {
          "duration": 0.7375000000000007,
          "durationTicks": 236,
          "midi": 56,
          "name": "G#3",
          "ticks": 6480,
          "time": 18,
          "velocity": 0.4251968503937008
        },
        {
          "duration": 1.46875,
          "durationTicks": 470,
          "midi": 54,
          "name": "F#3",
          "ticks": 7200,
          "time": 20.25,
          "velocity": 0.47244094488188976
        },
        {
          "duration": 1.46875,
          "durationTicks": 470,
          "midi": 57,
          "name": "A3",
          "ticks": 7200,
          "time": 20.25,
          "velocity": 0.47244094488188976
        },
        {
          "duration": 0.7375000000000007,
          "durationTicks": 236,
          "midi": 54,
          "name": "F#3",
          "ticks": 7680,
          "time": 21.75,
          "velocity": 0.47244094488188976
        },
        {
          "duration": 0.7375000000000007,
          "durationTicks": 236,
          "midi": 57,
          "name": "A3",
          "ticks": 7680,
          "time": 21.75,
          "velocity": 0.47244094488188976
        },
        {
          "duration": 1.46875,
          "durationTicks": 470,
          "midi": 56,
          "name": "G#3",
          "ticks": 7920,
          "time": 22.5,
          "velocity": 0.47244094488188976
        },
        {
          "duration": 1.46875,
          "durationTicks": 470,
          "midi": 59,
          "name": "B3",
          "ticks": 7920,
          "time": 22.5,
          "velocity": 0.47244094488188976
        },
        {
          "duration": 0.7375000000000007,
          "durationTicks": 236,
          "midi": 56,
          "name": "G#3",
          "ticks": 8400,
          "time": 24,
          "velocity": 0.47244094488188976
        },
        {
          "duration": 0.7375000000000007,
          "durationTicks": 236,
          "midi": 59,
          "name": "B3",
          "ticks": 8400,
          "time": 24,
          "velocity": 0.47244094488188976
        },
        {
          "duration": 1.46875,
          "durationTicks": 470,
          "midi": 57,
          "name": "A3",
          "ticks": 8640,
          "time": 24.75,
          "velocity": 0.47244094488188976
        },
        {
          "duration": 1.46875,
          "durationTicks": 470,
          "midi": 64,
          "name": "E4",
          "ticks": 8640,
          "time": 24.75,
          "velocity": 0.47244094488188976
        },
        {
          "duration": 0.7375000000000007,
          "durationTicks": 236,
          "midi": 57,
          "name": "A3",
          "ticks": 9120,
          "time": 26.25,
          "velocity": 0.47244094488188976
        },
        {
          "duration": 0.7375000000000007,
          "durationTicks": 236,
          "midi": 64,
          "name": "E4",
          "ticks": 9120,
          "time": 26.25,
          "velocity": 0.47244094488188976
        },
        {
          "duration": 1.46875,
          "durationTicks": 470,
          "midi": 57,
          "name": "A3",
          "ticks": 9360,
          "time": 27,
          "velocity": 0.47244094488188976
        },
        {
          "duration": 1.46875,
          "durationTicks": 470,
          "midi": 54,
          "name": "F#3",
          "ticks": 9360,
          "time": 27,
          "velocity": 0.47244094488188976
        },
        {
          "duration": 0.7375000000000007,
          "durationTicks": 236,
          "midi": 57,
          "name": "A3",
          "ticks": 9840,
          "time": 28.5,
          "velocity": 0.47244094488188976
        },
        {
          "duration": 0.7375000000000007,
          "durationTicks": 236,
          "midi": 54,
          "name": "F#3",
          "ticks": 9840,
          "time": 28.5,
          "velocity": 0.47244094488188976
        },
        {
          "duration": 1.46875,
          "durationTicks": 470,
          "midi": 51,
          "name": "D#3",
          "ticks": 10080,
          "time": 29.25,
          "velocity": 0.47244094488188976
        },
        {
          "duration": 1.46875,
          "durationTicks": 470,
          "midi": 57,
          "name": "A3",
          "ticks": 10080,
          "time": 29.25,
          "velocity": 0.47244094488188976
        },
        {
          "duration": 0.7375000000000007,
          "durationTicks": 236,
          "midi": 57,
          "name": "A3",
          "ticks": 10560,
          "time": 30.75,
          "velocity": 0.48031496062992124
        },
        {
          "duration": 0.7375000000000007,
          "durationTicks": 236,
          "midi": 51,
          "name": "D#3",
          "ticks": 10560,
          "time": 30.75,
          "velocity": 0.48031496062992124
        },
        {
          "duration": 1.46875,
          "durationTicks": 470,
          "midi": 56,
          "name": "G#3",
          "ticks": 10800,
          "time": 31.5,
          "velocity": 0.4881889763779528
        },
        {
          "duration": 1.46875,
          "durationTicks": 470,
          "midi": 53,
          "name": "F3",
          "ticks": 10800,
          "time": 31.5,
          "velocity": 0.4881889763779528
        },
        {
          "duration": 0.7374999999999972,
          "durationTicks": 236,
          "midi": 56,
          "name": "G#3",
          "ticks": 11280,
          "time": 33,
          "velocity": 0.47244094488188976
        },
        {
          "duration": 0.7374999999999972,
          "durationTicks": 236,
          "midi": 53,
          "name": "F3",
          "ticks": 11280,
          "time": 33,
          "velocity": 0.47244094488188976
        },
        {
          "duration": 1.46875,
          "durationTicks": 470,
          "midi": 54,
          "name": "F#3",
          "ticks": 11520,
          "time": 33.75,
          "velocity": 0.4645669291338583
        },
        {
          "duration": 1.46875,
          "durationTicks": 470,
          "midi": 61,
          "name": "C#4",
          "ticks": 11520,
          "time": 33.75,
          "velocity": 0.4645669291338583
        },
        {
          "duration": 0.7374999999999972,
          "durationTicks": 236,
          "midi": 54,
          "name": "F#3",
          "ticks": 12000,
          "time": 35.25,
          "velocity": 0.4645669291338583
        },
        {
          "duration": 0.7374999999999972,
          "durationTicks": 236,
          "midi": 61,
          "name": "C#4",
          "ticks": 12000,
          "time": 35.25,
          "velocity": 0.4645669291338583
        },
        {
          "duration": 1.46875,
          "durationTicks": 470,
          "midi": 50,
          "name": "D3",
          "ticks": 12240,
          "time": 36,
          "velocity": 0.4645669291338583
        },
        {
          "duration": 1.46875,
          "durationTicks": 470,
          "midi": 54,
          "name": "F#3",
          "ticks": 12240,
          "time": 36,
          "velocity": 0.4645669291338583
        },
        {
          "duration": 0.7374999999999972,
          "durationTicks": 236,
          "midi": 50,
          "name": "D3",
          "ticks": 12720,
          "time": 37.5,
          "velocity": 0.44881889763779526
        },
        {
          "duration": 0.7374999999999972,
          "durationTicks": 236,
          "midi": 54,
          "name": "F#3",
          "ticks": 12720,
          "time": 37.5,
          "velocity": 0.44881889763779526
        },
        {
          "duration": 1.46875,
          "durationTicks": 470,
          "midi": 47,
          "name": "B2",
          "ticks": 12960,
          "time": 38.25,
          "velocity": 0.44881889763779526
        },
        {
          "duration": 1.46875,
          "durationTicks": 470,
          "midi": 50,
          "name": "D3",
          "ticks": 12960,
          "time": 38.25,
          "velocity": 0.44881889763779526
        },
        {
          "duration": 1.46875,
          "durationTicks": 470,
          "midi": 55,
          "name": "G3",
          "ticks": 12960,
          "time": 38.25,
          "velocity": 0.44881889763779526
        },
        {
          "duration": 0.7374999999999972,
          "durationTicks": 236,
          "midi": 55,
          "name": "G3",
          "ticks": 13440,
          "time": 39.75,
          "velocity": 0.4330708661417323
        },
        {
          "duration": 0.7374999999999972,
          "durationTicks": 236,
          "midi": 50,
          "name": "D3",
          "ticks": 13440,
          "time": 39.75,
          "velocity": 0.4330708661417323
        },
        {
          "duration": 0.7374999999999972,
          "durationTicks": 236,
          "midi": 47,
          "name": "B2",
          "ticks": 13440,
          "time": 39.75,
          "velocity": 0.4330708661417323
        },
        {
          "duration": 1.46875,
          "durationTicks": 470,
          "midi": 55,
          "name": "G3",
          "ticks": 13680,
          "time": 40.5,
          "velocity": 0.4330708661417323
        },
        {
          "duration": 1.46875,
          "durationTicks": 470,
          "midi": 47,
          "name": "B2",
          "ticks": 13680,
          "time": 40.5,
          "velocity": 0.4330708661417323
        },
        {
          "duration": 1.46875,
          "durationTicks": 470,
          "midi": 50,
          "name": "D3",
          "ticks": 13680,
          "time": 40.5,
          "velocity": 0.4330708661417323
        },
        {
          "duration": 0.7374999999999972,
          "durationTicks": 236,
          "midi": 55,
          "name": "G3",
          "ticks": 14160,
          "time": 42,
          "velocity": 0.41732283464566927
        },
        {
          "duration": 0.7374999999999972,
          "durationTicks": 236,
          "midi": 47,
          "name": "B2",
          "ticks": 14160,
          "time": 42,
          "velocity": 0.41732283464566927
        },
        {
          "duration": 0.7374999999999972,
          "durationTicks": 236,
          "midi": 50,
          "name": "D3",
          "ticks": 14160,
          "time": 42,
          "velocity": 0.41732283464566927
        },
        {
          "duration": 1.46875,
          "durationTicks": 470,
          "midi": 47,
          "name": "B2",
          "ticks": 14400,
          "time": 42.75,
          "velocity": 0.4251968503937008
        },
        {
          "duration": 1.46875,
          "durationTicks": 470,
          "midi": 50,
          "name": "D3",
          "ticks": 14400,
          "time": 42.75,
          "velocity": 0.4251968503937008
        },
        {
          "duration": 1.46875,
          "durationTicks": 470,
          "midi": 55,
          "name": "G3",
          "ticks": 14400,
          "time": 42.75,
          "velocity": 0.4251968503937008
        },
        {
          "duration": 1.46875,
          "durationTicks": 470,
          "midi": 49,
          "name": "C#3",
          "ticks": 15840,
          "time": 47.25,
          "velocity": 0.47244094488188976
        },
        {
          "duration": 1.46875,
          "durationTicks": 470,
          "midi": 57,
          "name": "A3",
          "ticks": 15840,
          "time": 47.25,
          "velocity": 0.47244094488188976
        },
        {
          "duration": 0.7374999999999972,
          "durationTicks": 236,
          "midi": 57,
          "name": "A3",
          "ticks": 16320,
          "time": 48.75,
          "velocity": 0.47244094488188976
        },
        {
          "duration": 0.7374999999999972,
          "durationTicks": 236,
          "midi": 49,
          "name": "C#3",
          "ticks": 16320,
          "time": 48.75,
          "velocity": 0.47244094488188976
        },
        {
          "duration": 1.5,
          "durationTicks": 480,
          "midi": 61,
          "name": "C#4",
          "ticks": 16560,
          "time": 49.5,
          "velocity": 0.47244094488188976
        },
        {
          "duration": 1.5,
          "durationTicks": 480,
          "midi": 66,
          "name": "F#4",
          "ticks": 16560,
          "time": 49.5,
          "velocity": 0.47244094488188976
        },
        {
          "duration": 1.46875,
          "durationTicks": 470,
          "midi": 49,
          "name": "C#3",
          "ticks": 16560,
          "time": 49.5,
          "velocity": 0.47244094488188976
        },
        {
          "duration": 0.7374999999999972,
          "durationTicks": 236,
          "midi": 49,
          "name": "C#3",
          "ticks": 17040,
          "time": 51,
          "velocity": 0.47244094488188976
        },
        {
          "duration": 0.75,
          "durationTicks": 240,
          "midi": 59,
          "name": "B3",
          "ticks": 17040,
          "time": 51,
          "velocity": 0.47244094488188976
        },
        {
          "duration": 0.75,
          "durationTicks": 240,
          "midi": 65,
          "name": "F4",
          "ticks": 17040,
          "time": 51,
          "velocity": 0.47244094488188976
        },
        {
          "duration": 0.7374999999999972,
          "durationTicks": 236,
          "midi": 57,
          "name": "A3",
          "ticks": 17280,
          "time": 51.75,
          "velocity": 0.47244094488188976
        },
        {
          "duration": 0.7374999999999972,
          "durationTicks": 236,
          "midi": 54,
          "name": "F#3",
          "ticks": 17280,
          "time": 51.75,
          "velocity": 0.47244094488188976
        },
        {
          "duration": 0.7125000000000057,
          "durationTicks": 228,
          "midi": 54,
          "name": "F#3",
          "ticks": 29280,
          "time": 89.25,
          "velocity": 0.47244094488188976
        },
        {
          "duration": 0.7125000000000057,
          "durationTicks": 228,
          "midi": 57,
          "name": "A3",
          "ticks": 29280,
          "time": 89.25,
          "velocity": 0.47244094488188976
        },
        {
          "duration": 1.4250000000000114,
          "durationTicks": 456,
          "midi": 57,
          "name": "A3",
          "ticks": 29520,
          "time": 90,
          "velocity": 0.47244094488188976
        },
        {
          "duration": 1.4250000000000114,
          "durationTicks": 456,
          "midi": 54,
          "name": "F#3",
          "ticks": 29520,
          "time": 90,
          "velocity": 0.47244094488188976
        },
        {
          "duration": 0.7125000000000057,
          "durationTicks": 228,
          "midi": 54,
          "name": "F#3",
          "ticks": 30000,
          "time": 91.5,
          "velocity": 0.47244094488188976
        },
        {
          "duration": 0.7125000000000057,
          "durationTicks": 228,
          "midi": 57,
          "name": "A3",
          "ticks": 30000,
          "time": 91.5,
          "velocity": 0.47244094488188976
        },
        {
          "duration": 1.4250000000000114,
          "durationTicks": 456,
          "midi": 56,
          "name": "G#3",
          "ticks": 30240,
          "time": 92.25,
          "velocity": 0.47244094488188976
        },
        {
          "duration": 1.4250000000000114,
          "durationTicks": 456,
          "midi": 59,
          "name": "B3",
          "ticks": 30240,
          "time": 92.25,
          "velocity": 0.47244094488188976
        },
        {
          "duration": 0.7125000000000057,
          "durationTicks": 228,
          "midi": 57,
          "name": "A3",
          "ticks": 30720,
          "time": 93.75,
          "velocity": 0.47244094488188976
        },
        {
          "duration": 0.7125000000000057,
          "durationTicks": 228,
          "midi": 54,
          "name": "F#3",
          "ticks": 30720,
          "time": 93.75,
          "velocity": 0.47244094488188976
        },
        {
          "duration": 1.4250000000000114,
          "durationTicks": 456,
          "midi": 56,
          "name": "G#3",
          "ticks": 30960,
          "time": 94.5,
          "velocity": 0.47244094488188976
        },
        {
          "duration": 1.4250000000000114,
          "durationTicks": 456,
          "midi": 53,
          "name": "F3",
          "ticks": 30960,
          "time": 94.5,
          "velocity": 0.47244094488188976
        },
        {
          "duration": 0.7125000000000057,
          "durationTicks": 228,
          "midi": 53,
          "name": "F3",
          "ticks": 31440,
          "time": 96,
          "velocity": 0.47244094488188976
        },
        {
          "duration": 0.7125000000000057,
          "durationTicks": 228,
          "midi": 56,
          "name": "G#3",
          "ticks": 31440,
          "time": 96,
          "velocity": 0.47244094488188976
        },
        {
          "duration": 1.4250000000000114,
          "durationTicks": 456,
          "midi": 54,
          "name": "F#3",
          "ticks": 31680,
          "time": 96.75,
          "velocity": 0.47244094488188976
        },
        {
          "duration": 1.4250000000000114,
          "durationTicks": 456,
          "midi": 57,
          "name": "A3",
          "ticks": 31680,
          "time": 96.75,
          "velocity": 0.47244094488188976
        },
        {
          "duration": 0.7124999999999915,
          "durationTicks": 228,
          "midi": 54,
          "name": "F#3",
          "ticks": 32160,
          "time": 98.25,
          "velocity": 0.47244094488188976
        },
        {
          "duration": 0.7124999999999915,
          "durationTicks": 228,
          "midi": 57,
          "name": "A3",
          "ticks": 32160,
          "time": 98.25,
          "velocity": 0.47244094488188976
        },
        {
          "duration": 1.4250000000000114,
          "durationTicks": 456,
          "midi": 57,
          "name": "A3",
          "ticks": 32400,
          "time": 99,
          "velocity": 0.47244094488188976
        },
        {
          "duration": 1.4250000000000114,
          "durationTicks": 456,
          "midi": 54,
          "name": "F#3",
          "ticks": 32400,
          "time": 99,
          "velocity": 0.47244094488188976
        },
        {
          "duration": 0.7124999999999915,
          "durationTicks": 228,
          "midi": 54,
          "name": "F#3",
          "ticks": 32880,
          "time": 100.5,
          "velocity": 0.47244094488188976
        },
        {
          "duration": 0.7124999999999915,
          "durationTicks": 228,
          "midi": 57,
          "name": "A3",
          "ticks": 32880,
          "time": 100.5,
          "velocity": 0.47244094488188976
        },
        {
          "duration": 1.4250000000000114,
          "durationTicks": 456,
          "midi": 56,
          "name": "G#3",
          "ticks": 33120,
          "time": 101.25,
          "velocity": 0.47244094488188976
        },
        {
          "duration": 1.4250000000000114,
          "durationTicks": 456,
          "midi": 59,
          "name": "B3",
          "ticks": 33120,
          "time": 101.25,
          "velocity": 0.47244094488188976
        },
        {
          "duration": 0.7124999999999915,
          "durationTicks": 228,
          "midi": 54,
          "name": "F#3",
          "ticks": 33600,
          "time": 102.75,
          "velocity": 0.47244094488188976
        },
        {
          "duration": 0.7124999999999915,
          "durationTicks": 228,
          "midi": 57,
          "name": "A3",
          "ticks": 33600,
          "time": 102.75,
          "velocity": 0.47244094488188976
        },
        {
          "duration": 1.4250000000000114,
          "durationTicks": 456,
          "midi": 53,
          "name": "F3",
          "ticks": 33840,
          "time": 103.5,
          "velocity": 0.47244094488188976
        },
        {
          "duration": 1.4250000000000114,
          "durationTicks": 456,
          "midi": 56,
          "name": "G#3",
          "ticks": 33840,
          "time": 103.5,
          "velocity": 0.47244094488188976
        },
        {
          "duration": 0.7124999999999915,
          "durationTicks": 228,
          "midi": 56,
          "name": "G#3",
          "ticks": 34320,
          "time": 105,
          "velocity": 0.47244094488188976
        },
        {
          "duration": 0.7124999999999915,
          "durationTicks": 228,
          "midi": 53,
          "name": "F3",
          "ticks": 34320,
          "time": 105,
          "velocity": 0.47244094488188976
        },
        {
          "duration": 1.4250000000000114,
          "durationTicks": 456,
          "midi": 54,
          "name": "F#3",
          "ticks": 34560,
          "time": 105.75,
          "velocity": 0.47244094488188976
        },
        {
          "duration": 1.4250000000000114,
          "durationTicks": 456,
          "midi": 57,
          "name": "A3",
          "ticks": 34560,
          "time": 105.75,
          "velocity": 0.47244094488188976
        },
        {
          "duration": 0.7124999999999915,
          "durationTicks": 228,
          "midi": 57,
          "name": "A3",
          "ticks": 35040,
          "time": 107.25,
          "velocity": 0.47244094488188976
        },
        {
          "duration": 0.7124999999999915,
          "durationTicks": 228,
          "midi": 54,
          "name": "F#3",
          "ticks": 35040,
          "time": 107.25,
          "velocity": 0.47244094488188976
        },
        {
          "duration": 1.4250000000000114,
          "durationTicks": 456,
          "midi": 54,
          "name": "F#3",
          "ticks": 35280,
          "time": 108,
          "velocity": 0.47244094488188976
        },
        {
          "duration": 1.4250000000000114,
          "durationTicks": 456,
          "midi": 57,
          "name": "A3",
          "ticks": 35280,
          "time": 108,
          "velocity": 0.47244094488188976
        },
        {
          "duration": 0.7124999999999915,
          "durationTicks": 228,
          "midi": 54,
          "name": "F#3",
          "ticks": 35760,
          "time": 109.5,
          "velocity": 0.47244094488188976
        },
        {
          "duration": 0.7124999999999915,
          "durationTicks": 228,
          "midi": 57,
          "name": "A3",
          "ticks": 35760,
          "time": 109.5,
          "velocity": 0.47244094488188976
        },
        {
          "duration": 1.4250000000000114,
          "durationTicks": 456,
          "midi": 56,
          "name": "G#3",
          "ticks": 36000,
          "time": 110.25,
          "velocity": 0.47244094488188976
        },
        {
          "duration": 1.4250000000000114,
          "durationTicks": 456,
          "midi": 59,
          "name": "B3",
          "ticks": 36000,
          "time": 110.25,
          "velocity": 0.47244094488188976
        },
        {
          "duration": 0.7124999999999915,
          "durationTicks": 228,
          "midi": 56,
          "name": "G#3",
          "ticks": 36480,
          "time": 111.75,
          "velocity": 0.47244094488188976
        },
        {
          "duration": 0.7124999999999915,
          "durationTicks": 228,
          "midi": 59,
          "name": "B3",
          "ticks": 36480,
          "time": 111.75,
          "velocity": 0.47244094488188976
        },
        {
          "duration": 1.4250000000000114,
          "durationTicks": 456,
          "midi": 59,
          "name": "B3",
          "ticks": 36720,
          "time": 112.5,
          "velocity": 0.47244094488188976
        },
        {
          "duration": 1.4250000000000114,
          "durationTicks": 456,
          "midi": 56,
          "name": "G#3",
          "ticks": 36720,
          "time": 112.5,
          "velocity": 0.47244094488188976
        },
        {
          "duration": 0.7124999999999915,
          "durationTicks": 228,
          "midi": 59,
          "name": "B3",
          "ticks": 37200,
          "time": 114,
          "velocity": 0.47244094488188976
        },
        {
          "duration": 0.7124999999999915,
          "durationTicks": 228,
          "midi": 56,
          "name": "G#3",
          "ticks": 37200,
          "time": 114,
          "velocity": 0.47244094488188976
        },
        {
          "duration": 1.4250000000000114,
          "durationTicks": 456,
          "midi": 57,
          "name": "A3",
          "ticks": 37440,
          "time": 114.75,
          "velocity": 0.47244094488188976
        },
        {
          "duration": 0.7124999999999915,
          "durationTicks": 228,
          "midi": 57,
          "name": "A3",
          "ticks": 37920,
          "time": 116.25,
          "velocity": 0.47244094488188976
        },
        {
          "duration": 1.4250000000000114,
          "durationTicks": 456,
          "midi": 49,
          "name": "C#3",
          "ticks": 38160,
          "time": 117,
          "velocity": 0.47244094488188976
        },
        {
          "duration": 1.4250000000000114,
          "durationTicks": 456,
          "midi": 57,
          "name": "A3",
          "ticks": 38160,
          "time": 117,
          "velocity": 0.47244094488188976
        },
        {
          "duration": 0.7124999999999915,
          "durationTicks": 228,
          "midi": 49,
          "name": "C#3",
          "ticks": 38640,
          "time": 118.5,
          "velocity": 0.47244094488188976
        },
        {
          "duration": 0.7124999999999915,
          "durationTicks": 228,
          "midi": 57,
          "name": "A3",
          "ticks": 38640,
          "time": 118.5,
          "velocity": 0.47244094488188976
        },
        {
          "duration": 1.4250000000000114,
          "durationTicks": 456,
          "midi": 50,
          "name": "D3",
          "ticks": 38880,
          "time": 119.25,
          "velocity": 0.47244094488188976
        },
        {
          "duration": 1.4250000000000114,
          "durationTicks": 456,
          "midi": 54,
          "name": "F#3",
          "ticks": 38880,
          "time": 119.25,
          "velocity": 0.47244094488188976
        },
        {
          "duration": 0.7124999999999915,
          "durationTicks": 228,
          "midi": 50,
          "name": "D3",
          "ticks": 39360,
          "time": 120.75,
          "velocity": 0.47244094488188976
        },
        {
          "duration": 0.7124999999999915,
          "durationTicks": 228,
          "midi": 54,
          "name": "F#3",
          "ticks": 39360,
          "time": 120.75,
          "velocity": 0.47244094488188976
        },
        {
          "duration": 1.4250000000000114,
          "durationTicks": 456,
          "midi": 54,
          "name": "F#3",
          "ticks": 39600,
          "time": 121.5,
          "velocity": 0.47244094488188976
        },
        {
          "duration": 1.4250000000000114,
          "durationTicks": 456,
          "midi": 51,
          "name": "D#3",
          "ticks": 39600,
          "time": 121.5,
          "velocity": 0.47244094488188976
        },
        {
          "duration": 0.7124999999999915,
          "durationTicks": 228,
          "midi": 54,
          "name": "F#3",
          "ticks": 40080,
          "time": 123,
          "velocity": 0.47244094488188976
        },
        {
          "duration": 0.7124999999999915,
          "durationTicks": 228,
          "midi": 51,
          "name": "D#3",
          "ticks": 40080,
          "time": 123,
          "velocity": 0.47244094488188976
        },
        {
          "duration": 1.4250000000000114,
          "durationTicks": 456,
          "midi": 52,
          "name": "E3",
          "ticks": 40320,
          "time": 123.75,
          "velocity": 0.47244094488188976
        },
        {
          "duration": 1.4250000000000114,
          "durationTicks": 456,
          "midi": 57,
          "name": "A3",
          "ticks": 40320,
          "time": 123.75,
          "velocity": 0.47244094488188976
        },
        {
          "duration": 0.7124999999999915,
          "durationTicks": 228,
          "midi": 52,
          "name": "E3",
          "ticks": 40800,
          "time": 125.25,
          "velocity": 0.47244094488188976
        },
        {
          "duration": 0.7124999999999915,
          "durationTicks": 228,
          "midi": 56,
          "name": "G#3",
          "ticks": 40800,
          "time": 125.25,
          "velocity": 0.47244094488188976
        },
        {
          "duration": 1.4250000000000114,
          "durationTicks": 456,
          "midi": 56,
          "name": "G#3",
          "ticks": 41040,
          "time": 126,
          "velocity": 0.47244094488188976
        },
        {
          "duration": 1.4250000000000114,
          "durationTicks": 456,
          "midi": 52,
          "name": "E3",
          "ticks": 41040,
          "time": 126,
          "velocity": 0.47244094488188976
        },
        {
          "duration": 0.7124999999999773,
          "durationTicks": 228,
          "midi": 56,
          "name": "G#3",
          "ticks": 41520,
          "time": 127.5,
          "velocity": 0.47244094488188976
        },
        {
          "duration": 0.7124999999999773,
          "durationTicks": 228,
          "midi": 52,
          "name": "E3",
          "ticks": 41520,
          "time": 127.5,
          "velocity": 0.47244094488188976
        },
        {
          "duration": 1.4250000000000114,
          "durationTicks": 456,
          "midi": 57,
          "name": "A3",
          "ticks": 41760,
          "time": 128.25,
          "velocity": 0.47244094488188976
        },
        {
          "duration": 1.4250000000000114,
          "durationTicks": 456,
          "midi": 52,
          "name": "E3",
          "ticks": 41760,
          "time": 128.25,
          "velocity": 0.47244094488188976
        },
        {
          "duration": 0.7124999999999773,
          "durationTicks": 228,
          "midi": 57,
          "name": "A3",
          "ticks": 42240,
          "time": 129.75,
          "velocity": 0.47244094488188976
        },
        {
          "duration": 0.7124999999999773,
          "durationTicks": 228,
          "midi": 52,
          "name": "E3",
          "ticks": 42240,
          "time": 129.75,
          "velocity": 0.47244094488188976
        },
        {
          "duration": 1.4250000000000114,
          "durationTicks": 456,
          "midi": 52,
          "name": "E3",
          "ticks": 42480,
          "time": 130.5,
          "velocity": 0.47244094488188976
        },
        {
          "duration": 1.4250000000000114,
          "durationTicks": 456,
          "midi": 57,
          "name": "A3",
          "ticks": 42480,
          "time": 130.5,
          "velocity": 0.47244094488188976
        },
        {
          "duration": 0.7124999999999773,
          "durationTicks": 228,
          "midi": 57,
          "name": "A3",
          "ticks": 42960,
          "time": 132,
          "velocity": 0.47244094488188976
        },
        {
          "duration": 0.7124999999999773,
          "durationTicks": 228,
          "midi": 52,
          "name": "E3",
          "ticks": 42960,
          "time": 132,
          "velocity": 0.47244094488188976
        },
        {
          "duration": 1.4250000000000114,
          "durationTicks": 456,
          "midi": 52,
          "name": "E3",
          "ticks": 43200,
          "time": 132.75,
          "velocity": 0.47244094488188976
        },
        {
          "duration": 1.4250000000000114,
          "durationTicks": 456,
          "midi": 56,
          "name": "G#3",
          "ticks": 43200,
          "time": 132.75,
          "velocity": 0.47244094488188976
        },
        {
          "duration": 0.7124999999999773,
          "durationTicks": 228,
          "midi": 56,
          "name": "G#3",
          "ticks": 43680,
          "time": 134.25,
          "velocity": 0.47244094488188976
        },
        {
          "duration": 0.7124999999999773,
          "durationTicks": 228,
          "midi": 52,
          "name": "E3",
          "ticks": 43680,
          "time": 134.25,
          "velocity": 0.47244094488188976
        },
        {
          "duration": 1.4250000000000114,
          "durationTicks": 456,
          "midi": 56,
          "name": "G#3",
          "ticks": 43920,
          "time": 135,
          "velocity": 0.47244094488188976
        },
        {
          "duration": 1.4250000000000114,
          "durationTicks": 456,
          "midi": 52,
          "name": "E3",
          "ticks": 43920,
          "time": 135,
          "velocity": 0.47244094488188976
        },
        {
          "duration": 0.7124999999999773,
          "durationTicks": 228,
          "midi": 56,
          "name": "G#3",
          "ticks": 44400,
          "time": 136.5,
          "velocity": 0.5354330708661418
        },
        {
          "duration": 0.7124999999999773,
          "durationTicks": 228,
          "midi": 52,
          "name": "E3",
          "ticks": 44400,
          "time": 136.5,
          "velocity": 0.5354330708661418
        },
        {
          "duration": 1.4250000000000114,
          "durationTicks": 456,
          "midi": 53,
          "name": "F3",
          "ticks": 44640,
          "time": 137.25,
          "velocity": 0.5669291338582677
        },
        {
          "duration": 1.4250000000000114,
          "durationTicks": 456,
          "midi": 57,
          "name": "A3",
          "ticks": 44640,
          "time": 137.25,
          "velocity": 0.5669291338582677
        },
        {
          "duration": 0.7124999999999773,
          "durationTicks": 228,
          "midi": 57,
          "name": "A3",
          "ticks": 45120,
          "time": 138.75,
          "velocity": 0.5511811023622047
        },
        {
          "duration": 0.7124999999999773,
          "durationTicks": 228,
          "midi": 53,
          "name": "F3",
          "ticks": 45120,
          "time": 138.75,
          "velocity": 0.5511811023622047
        },
        {
          "duration": 1.4250000000000114,
          "durationTicks": 456,
          "midi": 53,
          "name": "F3",
          "ticks": 45360,
          "time": 139.5,
          "velocity": 0.5354330708661418
        },
        {
          "duration": 1.4250000000000114,
          "durationTicks": 456,
          "midi": 57,
          "name": "A3",
          "ticks": 45360,
          "time": 139.5,
          "velocity": 0.5354330708661418
        },
        {
          "duration": 0.7124999999999773,
          "durationTicks": 228,
          "midi": 53,
          "name": "F3",
          "ticks": 45840,
          "time": 141,
          "velocity": 0.5039370078740157
        },
        {
          "duration": 0.7124999999999773,
          "durationTicks": 228,
          "midi": 57,
          "name": "A3",
          "ticks": 45840,
          "time": 141,
          "velocity": 0.5039370078740157
        },
        {
          "duration": 0.75,
          "durationTicks": 240,
          "midi": 52,
          "name": "E3",
          "ticks": 46080,
          "time": 141.75,
          "velocity": 0.5511811023622047
        },
        {
          "duration": 0.75,
          "durationTicks": 240,
          "midi": 56,
          "name": "G#3",
          "ticks": 46320,
          "time": 142.5,
          "velocity": 0.5511811023622047
        },
        {
          "duration": 0.75,
          "durationTicks": 240,
          "midi": 59,
          "name": "B3",
          "ticks": 46560,
          "time": 143.25,
          "velocity": 0.5511811023622047
        },
        {
          "duration": 0.75,
          "durationTicks": 240,
          "midi": 52,
          "name": "E3",
          "ticks": 46800,
          "time": 144,
          "velocity": 0.5511811023622047
        },
        {
          "duration": 0.75,
          "durationTicks": 240,
          "midi": 57,
          "name": "A3",
          "ticks": 47040,
          "time": 144.75,
          "velocity": 0.5511811023622047
        },
        {
          "duration": 0.75,
          "durationTicks": 240,
          "midi": 60,
          "name": "C4",
          "ticks": 47280,
          "time": 145.5,
          "velocity": 0.5511811023622047
        },
        {
          "duration": 0.75,
          "durationTicks": 240,
          "midi": 52,
          "name": "E3",
          "ticks": 47520,
          "time": 146.25,
          "velocity": 0.5511811023622047
        },
        {
          "duration": 0.75,
          "durationTicks": 240,
          "midi": 56,
          "name": "G#3",
          "ticks": 47760,
          "time": 147,
          "velocity": 0.5511811023622047
        },
        {
          "duration": 0.75,
          "durationTicks": 240,
          "midi": 59,
          "name": "B3",
          "ticks": 48000,
          "time": 147.75,
          "velocity": 0.5511811023622047
        },
        {
          "duration": 0.75,
          "durationTicks": 240,
          "midi": 52,
          "name": "E3",
          "ticks": 48240,
          "time": 148.5,
          "velocity": 0.5511811023622047
        },
        {
          "duration": 0.75,
          "durationTicks": 240,
          "midi": 57,
          "name": "A3",
          "ticks": 48480,
          "time": 149.25,
          "velocity": 0.5511811023622047
        },
        {
          "duration": 0.75,
          "durationTicks": 240,
          "midi": 60,
          "name": "C4",
          "ticks": 48720,
          "time": 150,
          "velocity": 0.5511811023622047
        },
        {
          "duration": 1.1999999999999886,
          "durationTicks": 384,
          "midi": 52,
          "name": "E3",
          "ticks": 48960,
          "time": 150.75,
          "velocity": 0.5511811023622047
        },
        {
          "duration": 0.1428570999999863,
          "durationTicks": 48,
          "midi": 52,
          "name": "E3",
          "ticks": 56160,
          "time": 172.5547245,
          "velocity": 0.5511811023622047
        },
        {
          "duration": 0.14285710000001473,
          "durationTicks": 48,
          "midi": 57,
          "name": "A3",
          "ticks": 56240,
          "time": 172.79281966666665,
          "velocity": 0.5511811023622047
        },
        {
          "duration": 0.1428570999999863,
          "durationTicks": 48,
          "midi": 61,
          "name": "C#4",
          "ticks": 56320,
          "time": 173.03091483333333,
          "velocity": 0.5511811023622047
        },
        {
          "duration": 0.14285710000001473,
          "durationTicks": 48,
          "midi": 64,
          "name": "E4",
          "ticks": 56400,
          "time": 173.26900999999998,
          "velocity": 0.5511811023622047
        },
        {
          "duration": 0.1428570999999863,
          "durationTicks": 48,
          "midi": 61,
          "name": "C#4",
          "ticks": 56480,
          "time": 173.50710516666666,
          "velocity": 0.5511811023622047
        },
        {
          "duration": 0.14285710000001473,
          "durationTicks": 48,
          "midi": 57,
          "name": "A3",
          "ticks": 56560,
          "time": 173.74520033333332,
          "velocity": 0.5511811023622047
        },
        {
          "duration": 0.1428570999999863,
          "durationTicks": 48,
          "midi": 52,
          "name": "E3",
          "ticks": 56640,
          "time": 173.9832955,
          "velocity": 0.5511811023622047
        },
        {
          "duration": 0.14285710000001473,
          "durationTicks": 48,
          "midi": 57,
          "name": "A3",
          "ticks": 56720,
          "time": 174.22139066666665,
          "velocity": 0.5511811023622047
        },
        {
          "duration": 0.1428570999999863,
          "durationTicks": 48,
          "midi": 61,
          "name": "C#4",
          "ticks": 56800,
          "time": 174.45948583333333,
          "velocity": 0.5511811023622047
        },
        {
          "duration": 0.1428570999999863,
          "durationTicks": 48,
          "midi": 52,
          "name": "E3",
          "ticks": 56880,
          "time": 174.69758099999999,
          "velocity": 0.5511811023622047
        },
        {
          "duration": 0.1428570999999863,
          "durationTicks": 48,
          "midi": 57,
          "name": "A3",
          "ticks": 56960,
          "time": 174.93567616666667,
          "velocity": 0.5511811023622047
        },
        {
          "duration": 0.14285710000001473,
          "durationTicks": 48,
          "midi": 61,
          "name": "C#4",
          "ticks": 57040,
          "time": 175.17377133333332,
          "velocity": 0.5511811023622047
        },
        {
          "duration": 0.14285710000001473,
          "durationTicks": 48,
          "midi": 64,
          "name": "E4",
          "ticks": 57120,
          "time": 175.41186649999997,
          "velocity": 0.5511811023622047
        },
        {
          "duration": 0.1428570999999863,
          "durationTicks": 48,
          "midi": 61,
          "name": "C#4",
          "ticks": 57200,
          "time": 175.64996166666666,
          "velocity": 0.5511811023622047
        },
        {
          "duration": 0.1428570999999863,
          "durationTicks": 48,
          "midi": 57,
          "name": "A3",
          "ticks": 57280,
          "time": 175.88805683333334,
          "velocity": 0.5511811023622047
        },
        {
          "duration": 0.1428570999999863,
          "durationTicks": 48,
          "midi": 52,
          "name": "E3",
          "ticks": 57360,
          "time": 176.126152,
          "velocity": 0.5511811023622047
        },
        {
          "duration": 0.14285710000001473,
          "durationTicks": 48,
          "midi": 57,
          "name": "A3",
          "ticks": 57440,
          "time": 176.36424716666664,
          "velocity": 0.5511811023622047
        },
        {
          "duration": 0.1428570999999863,
          "durationTicks": 48,
          "midi": 61,
          "name": "C#4",
          "ticks": 57520,
          "time": 176.60234233333333,
          "velocity": 0.5511811023622047
        },
        {
          "duration": 0.14285710000001473,
          "durationTicks": 48,
          "midi": 52,
          "name": "E3",
          "ticks": 57600,
          "time": 176.84043749999998,
          "velocity": 0.5511811023622047
        },
        {
          "duration": 0.1428570999999863,
          "durationTicks": 48,
          "midi": 56,
          "name": "G#3",
          "ticks": 57680,
          "time": 177.07853266666666,
          "velocity": 0.5511811023622047
        },
        {
          "duration": 0.14285710000001473,
          "durationTicks": 48,
          "midi": 59,
          "name": "B3",
          "ticks": 57760,
          "time": 177.3166278333333,
          "velocity": 0.5511811023622047
        },
        {
          "duration": 0.1428570999999863,
          "durationTicks": 48,
          "midi": 64,
          "name": "E4",
          "ticks": 57840,
          "time": 177.554723,
          "velocity": 0.5511811023622047
        },
        {
          "duration": 0.14285710000001473,
          "durationTicks": 48,
          "midi": 59,
          "name": "B3",
          "ticks": 57920,
          "time": 177.79281816666665,
          "velocity": 0.5511811023622047
        },
        {
          "duration": 0.1428570999999863,
          "durationTicks": 48,
          "midi": 56,
          "name": "G#3",
          "ticks": 58000,
          "time": 178.03091333333333,
          "velocity": 0.5511811023622047
        },
        {
          "duration": 0.14285710000001473,
          "durationTicks": 48,
          "midi": 52,
          "name": "E3",
          "ticks": 58080,
          "time": 178.26900849999998,
          "velocity": 0.5511811023622047
        },
        {
          "duration": 0.1428570999999863,
          "durationTicks": 48,
          "midi": 56,
          "name": "G#3",
          "ticks": 58160,
          "time": 178.50710366666667,
          "velocity": 0.5511811023622047
        },
        {
          "duration": 0.1428570999999863,
          "durationTicks": 48,
          "midi": 59,
          "name": "B3",
          "ticks": 58240,
          "time": 178.74519883333332,
          "velocity": 0.5511811023622047
        },
        {
          "duration": 0.1428570999999863,
          "durationTicks": 48,
          "midi": 52,
          "name": "E3",
          "ticks": 58320,
          "time": 178.983294,
          "velocity": 0.5511811023622047
        },
        {
          "duration": 0.14285710000001473,
          "durationTicks": 48,
          "midi": 56,
          "name": "G#3",
          "ticks": 58400,
          "time": 179.22138916666665,
          "velocity": 0.5511811023622047
        },
        {
          "duration": 0.14285710000001473,
          "durationTicks": 48,
          "midi": 59,
          "name": "B3",
          "ticks": 58480,
          "time": 179.4594843333333,
          "velocity": 0.5511811023622047
        },
        {
          "duration": 0.1428570999999863,
          "durationTicks": 48,
          "midi": 64,
          "name": "E4",
          "ticks": 58560,
          "time": 179.6975795,
          "velocity": 0.5511811023622047
        },
        {
          "duration": 0.1428570999999863,
          "durationTicks": 48,
          "midi": 59,
          "name": "B3",
          "ticks": 58640,
          "time": 179.93567466666667,
          "velocity": 0.5511811023622047
        },
        {
          "duration": 0.1428570999999863,
          "durationTicks": 48,
          "midi": 56,
          "name": "G#3",
          "ticks": 58720,
          "time": 180.17376983333332,
          "velocity": 0.5511811023622047
        },
        {
          "duration": 0.14285710000001473,
          "durationTicks": 48,
          "midi": 52,
          "name": "E3",
          "ticks": 58800,
          "time": 180.41186499999998,
          "velocity": 0.5511811023622047
        },
        {
          "duration": 0.1428570999999863,
          "durationTicks": 48,
          "midi": 56,
          "name": "G#3",
          "ticks": 58880,
          "time": 180.64996016666666,
          "velocity": 0.5511811023622047
        },
        {
          "duration": 0.14285710000001473,
          "durationTicks": 48,
          "midi": 59,
          "name": "B3",
          "ticks": 58960,
          "time": 180.8880553333333,
          "velocity": 0.5511811023622047
        },
        {
          "duration": 1.1428568000000041,
          "durationTicks": 384,
          "midi": 54,
          "name": "F#3",
          "ticks": 59040,
          "time": 181.1261505,
          "velocity": 0.47244094488188976
        },
        {
          "duration": 1.1428568000000041,
          "durationTicks": 384,
          "midi": 57,
          "name": "A3",
          "ticks": 59040,
          "time": 181.1261505,
          "velocity": 0.47244094488188976
        },
        {
          "duration": 1.1428568000000041,
          "durationTicks": 384,
          "midi": 50,
          "name": "D3",
          "ticks": 59760,
          "time": 183.269007,
          "velocity": 0.47244094488188976
        },
        {
          "duration": 1.1428568000000041,
          "durationTicks": 384,
          "midi": 59,
          "name": "B3",
          "ticks": 59760,
          "time": 183.269007,
          "velocity": 0.47244094488188976
        },
        {
          "duration": 1.1428568000000041,
          "durationTicks": 384,
          "midi": 54,
          "name": "F#3",
          "ticks": 59760,
          "time": 183.269007,
          "velocity": 0.47244094488188976
        },
        {
          "duration": 2.1428564999999935,
          "durationTicks": 720,
          "midi": 52,
          "name": "E3",
          "ticks": 60480,
          "time": 185.41186349999998,
          "velocity": 0.47244094488188976
        },
        {
          "duration": 1.4285710000000051,
          "durationTicks": 480,
          "midi": 61,
          "name": "C#4",
          "ticks": 60480,
          "time": 185.41186349999998,
          "velocity": 0.47244094488188976
        },
        {
          "duration": 0.7142854999999884,
          "durationTicks": 240,
          "midi": 62,
          "name": "D4",
          "ticks": 60960,
          "time": 186.8404345,
          "velocity": 0.47244094488188976
        },
        {
          "duration": 1.1428568000000041,
          "durationTicks": 384,
          "midi": 57,
          "name": "A3",
          "ticks": 61200,
          "time": 187.55471999999997,
          "velocity": 0.47244094488188976
        },
        {
          "duration": 1.1428568000000041,
          "durationTicks": 384,
          "midi": 61,
          "name": "C#4",
          "ticks": 61200,
          "time": 187.55471999999997,
          "velocity": 0.47244094488188976
        },
        {
          "duration": 0.6785712250000131,
          "durationTicks": 228,
          "midi": 54,
          "name": "F#3",
          "ticks": 64560,
          "time": 197.55471699999998,
          "velocity": 0.47244094488188976
        },
        {
          "duration": 0.6785712250000131,
          "durationTicks": 228,
          "midi": 57,
          "name": "A3",
          "ticks": 64560,
          "time": 197.55471699999998,
          "velocity": 0.47244094488188976
        },
        {
          "duration": 1.3571424499999978,
          "durationTicks": 456,
          "midi": 50,
          "name": "D3",
          "ticks": 64800,
          "time": 198.2690025,
          "velocity": 0.47244094488188976
        },
        {
          "duration": 1.3571424499999978,
          "durationTicks": 456,
          "midi": 54,
          "name": "F#3",
          "ticks": 64800,
          "time": 198.2690025,
          "velocity": 0.47244094488188976
        },
        {
          "duration": 0.6785712250000131,
          "durationTicks": 228,
          "midi": 52,
          "name": "E3",
          "ticks": 65280,
          "time": 199.69757349999998,
          "velocity": 0.47244094488188976
        },
        {
          "duration": 0.6785712250000131,
          "durationTicks": 228,
          "midi": 62,
          "name": "D4",
          "ticks": 65280,
          "time": 199.69757349999998,
          "velocity": 0.47244094488188976
        },
        {
          "duration": 1.1428568000000041,
          "durationTicks": 384,
          "midi": 57,
          "name": "A3",
          "ticks": 65520,
          "time": 200.411859,
          "velocity": 0.47244094488188976
        },
        {
          "duration": 1.1428568000000041,
          "durationTicks": 384,
          "midi": 61,
          "name": "C#4",
          "ticks": 65520,
          "time": 200.411859,
          "velocity": 0.47244094488188976
        },
        {
          "duration": 1.4285709999999767,
          "durationTicks": 480,
          "midi": 64,
          "name": "E4",
          "ticks": 66480,
          "time": 203.269001,
          "velocity": 0.4645669291338583
        },
        {
          "duration": 0.7142854999999884,
          "durationTicks": 240,
          "midi": 56,
          "name": "G#3",
          "ticks": 66480,
          "time": 203.269001,
          "velocity": 0.4645669291338583
        },
        {
          "duration": 0.7142854999999884,
          "durationTicks": 240,
          "midi": 57,
          "name": "A3",
          "ticks": 66720,
          "time": 203.9832865,
          "velocity": 0.4409448818897638
        },
        {
          "duration": 0.5714284000000021,
          "durationTicks": 192,
          "midi": 56,
          "name": "G#3",
          "ticks": 66960,
          "time": 204.69757199999998,
          "velocity": 0.41732283464566927
        },
        {
          "duration": 0.5714284000000021,
          "durationTicks": 192,
          "midi": 52,
          "name": "E3",
          "ticks": 66960,
          "time": 204.69757199999998,
          "velocity": 0.41732283464566927
        },
        {
          "duration": 0.7142855000000168,
          "durationTicks": 240,
          "midi": 49,
          "name": "C#3",
          "ticks": 67680,
          "time": 206.84042849999997,
          "velocity": 0.44881889763779526
        },
        {
          "duration": 0.7142855000000168,
          "durationTicks": 240,
          "midi": 45,
          "name": "A2",
          "ticks": 67680,
          "time": 206.84042849999997,
          "velocity": 0.44881889763779526
        },
        {
          "duration": 1.4285710000000051,
          "durationTicks": 480,
          "midi": 73,
          "name": "C#5",
          "ticks": 67680,
          "time": 206.84042849999997,
          "velocity": 0.44881889763779526
        },
        {
          "duration": 0.7142854999999884,
          "durationTicks": 240,
          "midi": 52,
          "name": "E3",
          "ticks": 67920,
          "time": 207.554714,
          "velocity": 0.4330708661417323
        },
        {
          "duration": 0.7142854999999884,
          "durationTicks": 240,
          "midi": 49,
          "name": "C#3",
          "ticks": 67920,
          "time": 207.554714,
          "velocity": 0.4330708661417323
        },
        {
          "duration": 0.7142855000000168,
          "durationTicks": 240,
          "midi": 52,
          "name": "E3",
          "ticks": 68160,
          "time": 208.26899949999998,
          "velocity": 0.4251968503937008
        },
        {
          "duration": 0.7142855000000168,
          "durationTicks": 240,
          "midi": 71,
          "name": "B4",
          "ticks": 68160,
          "time": 208.26899949999998,
          "velocity": 0.4251968503937008
        },
        {
          "duration": 0.7142855000000168,
          "durationTicks": 240,
          "midi": 56,
          "name": "G#3",
          "ticks": 68160,
          "time": 208.26899949999998,
          "velocity": 0.4251968503937008
        },
        {
          "duration": 0.5714283999999736,
          "durationTicks": 192,
          "midi": 54,
          "name": "F#3",
          "ticks": 68400,
          "time": 208.983285,
          "velocity": 0.41732283464566927
        },
        {
          "duration": 0.5714283999999736,
          "durationTicks": 192,
          "midi": 69,
          "name": "A4",
          "ticks": 68400,
          "time": 208.983285,
          "velocity": 0.41732283464566927
        },
        {
          "duration": 0.5714283999999736,
          "durationTicks": 192,
          "midi": 57,
          "name": "A3",
          "ticks": 68400,
          "time": 208.983285,
          "velocity": 0.41732283464566927
        },
        {
          "duration": 1.1428568000000041,
          "durationTicks": 384,
          "midi": 50,
          "name": "D3",
          "ticks": 69120,
          "time": 211.1261415,
          "velocity": 0.47244094488188976
        },
        {
          "duration": 1.1428568000000041,
          "durationTicks": 384,
          "midi": 51,
          "name": "D#3",
          "ticks": 69840,
          "time": 213.26899799999998,
          "velocity": 0.5118110236220472
        },
        {
          "duration": 1.1428567999999757,
          "durationTicks": 384,
          "midi": 52,
          "name": "E3",
          "ticks": 70560,
          "time": 215.4118545,
          "velocity": 0.5590551181102362
        },
        {
          "duration": 1.1428568000000041,
          "durationTicks": 384,
          "midi": 52,
          "name": "E3",
          "ticks": 71280,
          "time": 217.554711,
          "velocity": 0.5511811023622047
        },
        {
          "duration": 1.1428568000000041,
          "durationTicks": 384,
          "midi": 52,
          "name": "E3",
          "ticks": 72000,
          "time": 219.6975675,
          "velocity": 0.5511811023622047
        },
        {
          "duration": 1.1428568000000041,
          "durationTicks": 384,
          "midi": 52,
          "name": "E3",
          "ticks": 72720,
          "time": 221.84042399999998,
          "velocity": 0.5511811023622047
        },
        {
          "duration": 0.5853655999999887,
          "durationTicks": 192,
          "midi": 45,
          "name": "A2",
          "ticks": 73440,
          "time": 223.98328049999998,
          "velocity": 0.47244094488188976
        },
        {
          "duration": 1.4250000000000114,
          "durationTicks": 456,
          "midi": 54,
          "name": "F#3",
          "ticks": 76320,
          "time": 233.063594,
          "velocity": 0.44881889763779526
        },
        {
          "duration": 1.4250000000000114,
          "durationTicks": 456,
          "midi": 57,
          "name": "A3",
          "ticks": 76320,
          "time": 233.063594,
          "velocity": 0.44881889763779526
        },
        {
          "duration": 0.7125000000000057,
          "durationTicks": 228,
          "midi": 57,
          "name": "A3",
          "ticks": 76800,
          "time": 234.563594,
          "velocity": 0.44881889763779526
        },
        {
          "duration": 0.7125000000000057,
          "durationTicks": 228,
          "midi": 54,
          "name": "F#3",
          "ticks": 76800,
          "time": 234.563594,
          "velocity": 0.44881889763779526
        },
        {
          "duration": 1.4250000000000114,
          "durationTicks": 456,
          "midi": 54,
          "name": "F#3",
          "ticks": 77040,
          "time": 235.313594,
          "velocity": 0.44881889763779526
        },
        {
          "duration": 1.4250000000000114,
          "durationTicks": 456,
          "midi": 57,
          "name": "A3",
          "ticks": 77040,
          "time": 235.313594,
          "velocity": 0.44881889763779526
        },
        {
          "duration": 0.7125000000000057,
          "durationTicks": 228,
          "midi": 54,
          "name": "F#3",
          "ticks": 77520,
          "time": 236.813594,
          "velocity": 0.44881889763779526
        },
        {
          "duration": 0.7125000000000057,
          "durationTicks": 228,
          "midi": 61,
          "name": "C#4",
          "ticks": 77520,
          "time": 236.813594,
          "velocity": 0.44881889763779526
        },
        {
          "duration": 2.1374999999999886,
          "durationTicks": 684,
          "midi": 54,
          "name": "F#3",
          "ticks": 77760,
          "time": 237.563594,
          "velocity": 0.44881889763779526
        },
        {
          "duration": 2.1374999999999886,
          "durationTicks": 684,
          "midi": 62,
          "name": "D4",
          "ticks": 77760,
          "time": 237.563594,
          "velocity": 0.44881889763779526
        },
        {
          "duration": 0.7125000000000057,
          "durationTicks": 228,
          "midi": 41,
          "name": "F2",
          "ticks": 78480,
          "time": 239.813594,
          "velocity": 0.44881889763779526
        },
        {
          "duration": 0.7125000000000057,
          "durationTicks": 228,
          "midi": 61,
          "name": "C#4",
          "ticks": 78960,
          "time": 241.313594,
          "velocity": 0.44881889763779526
        },
        {
          "duration": 0.7125000000000057,
          "durationTicks": 228,
          "midi": 53,
          "name": "F3",
          "ticks": 78960,
          "time": 241.313594,
          "velocity": 0.44881889763779526
        },
        {
          "duration": 1.4250000000000114,
          "durationTicks": 456,
          "midi": 54,
          "name": "F#3",
          "ticks": 79200,
          "time": 242.063594,
          "velocity": 0.44881889763779526
        },
        {
          "duration": 1.4250000000000114,
          "durationTicks": 456,
          "midi": 61,
          "name": "C#4",
          "ticks": 79200,
          "time": 242.063594,
          "velocity": 0.44881889763779526
        },
        {
          "duration": 0.7125000000000057,
          "durationTicks": 228,
          "midi": 49,
          "name": "C#3",
          "ticks": 79680,
          "time": 243.563594,
          "velocity": 0.44881889763779526
        },
        {
          "duration": 0.7125000000000057,
          "durationTicks": 228,
          "midi": 45,
          "name": "A2",
          "ticks": 79680,
          "time": 243.563594,
          "velocity": 0.44881889763779526
        },
        {
          "duration": 2.2125000000000057,
          "durationTicks": 708,
          "midi": 47,
          "name": "B2",
          "ticks": 79920,
          "time": 244.313594,
          "velocity": 0.4409448818897638
        },
        {
          "duration": 1.4250000000000114,
          "durationTicks": 456,
          "midi": 50,
          "name": "D3",
          "ticks": 79920,
          "time": 244.313594,
          "velocity": 0.4409448818897638
        },
        {
          "duration": 0.7125000000000057,
          "durationTicks": 228,
          "midi": 59,
          "name": "B3",
          "ticks": 80400,
          "time": 245.813594,
          "velocity": 0.4330708661417323
        },
        {
          "duration": 2.8499999999999943,
          "durationTicks": 912,
          "midi": 49,
          "name": "C#3",
          "ticks": 80640,
          "time": 246.563594,
          "velocity": 0.4251968503937008
        },
        {
          "duration": 2.25,
          "durationTicks": 720,
          "midi": 57,
          "name": "A3",
          "ticks": 80640,
          "time": 246.563594,
          "velocity": 0.4251968503937008
        },
        {
          "duration": 0.5999999999999943,
          "durationTicks": 192,
          "midi": 56,
          "name": "G#3",
          "ticks": 81360,
          "time": 248.813594,
          "velocity": 0.3858267716535433
        },
        {
          "duration": 1.46875,
          "durationTicks": 470,
          "midi": 54,
          "name": "F#3",
          "ticks": 82080,
          "time": 251.063594,
          "velocity": 0.47244094488188976
        },
        {
          "duration": 1.46875,
          "durationTicks": 470,
          "midi": 57,
          "name": "A3",
          "ticks": 82080,
          "time": 251.063594,
          "velocity": 0.47244094488188976
        },
        {
          "duration": 0.7375000000000114,
          "durationTicks": 236,
          "midi": 54,
          "name": "F#3",
          "ticks": 82560,
          "time": 252.563594,
          "velocity": 0.47244094488188976
        },
        {
          "duration": 0.7375000000000114,
          "durationTicks": 236,
          "midi": 57,
          "name": "A3",
          "ticks": 82560,
          "time": 252.563594,
          "velocity": 0.47244094488188976
        },
        {
          "duration": 1.46875,
          "durationTicks": 470,
          "midi": 56,
          "name": "G#3",
          "ticks": 82800,
          "time": 253.313594,
          "velocity": 0.47244094488188976
        },
        {
          "duration": 1.46875,
          "durationTicks": 470,
          "midi": 59,
          "name": "B3",
          "ticks": 82800,
          "time": 253.313594,
          "velocity": 0.47244094488188976
        },
        {
          "duration": 0.7375000000000114,
          "durationTicks": 236,
          "midi": 56,
          "name": "G#3",
          "ticks": 83280,
          "time": 254.813594,
          "velocity": 0.47244094488188976
        },
        {
          "duration": 0.7375000000000114,
          "durationTicks": 236,
          "midi": 59,
          "name": "B3",
          "ticks": 83280,
          "time": 254.813594,
          "velocity": 0.47244094488188976
        },
        {
          "duration": 1.4687499999999716,
          "durationTicks": 470,
          "midi": 64,
          "name": "E4",
          "ticks": 83520,
          "time": 255.563594,
          "velocity": 0.4881889763779528
        },
        {
          "duration": 1.4687499999999716,
          "durationTicks": 470,
          "midi": 57,
          "name": "A3",
          "ticks": 83520,
          "time": 255.563594,
          "velocity": 0.4881889763779528
        },
        {
          "duration": 0.7375000000000114,
          "durationTicks": 236,
          "midi": 64,
          "name": "E4",
          "ticks": 84000,
          "time": 257.06359399999997,
          "velocity": 0.4645669291338583
        },
        {
          "duration": 0.7375000000000114,
          "durationTicks": 236,
          "midi": 57,
          "name": "A3",
          "ticks": 84000,
          "time": 257.06359399999997,
          "velocity": 0.4645669291338583
        },
        {
          "duration": 1.46875,
          "durationTicks": 470,
          "midi": 57,
          "name": "A3",
          "ticks": 84240,
          "time": 257.81359399999997,
          "velocity": 0.44881889763779526
        },
        {
          "duration": 1.46875,
          "durationTicks": 470,
          "midi": 54,
          "name": "F#3",
          "ticks": 84240,
          "time": 257.81359399999997,
          "velocity": 0.44881889763779526
        },
        {
          "duration": 0.7375000000000114,
          "durationTicks": 236,
          "midi": 54,
          "name": "F#3",
          "ticks": 84720,
          "time": 259.31359399999997,
          "velocity": 0.4251968503937008
        },
        {
          "duration": 0.7375000000000114,
          "durationTicks": 236,
          "midi": 57,
          "name": "A3",
          "ticks": 84720,
          "time": 259.31359399999997,
          "velocity": 0.4251968503937008
        },
        {
          "duration": 1.46875,
          "durationTicks": 470,
          "midi": 51,
          "name": "D#3",
          "ticks": 84960,
          "time": 260.06359399999997,
          "velocity": 0.47244094488188976
        },
        {
          "duration": 1.46875,
          "durationTicks": 470,
          "midi": 57,
          "name": "A3",
          "ticks": 84960,
          "time": 260.06359399999997,
          "velocity": 0.47244094488188976
        },
        {
          "duration": 0.7375000000000114,
          "durationTicks": 236,
          "midi": 51,
          "name": "D#3",
          "ticks": 85440,
          "time": 261.56359399999997,
          "velocity": 0.48031496062992124
        },
        {
          "duration": 0.7375000000000114,
          "durationTicks": 236,
          "midi": 57,
          "name": "A3",
          "ticks": 85440,
          "time": 261.56359399999997,
          "velocity": 0.48031496062992124
        },
        {
          "duration": 1.46875,
          "durationTicks": 470,
          "midi": 53,
          "name": "F3",
          "ticks": 85680,
          "time": 262.31359399999997,
          "velocity": 0.48031496062992124
        },
        {
          "duration": 1.46875,
          "durationTicks": 470,
          "midi": 56,
          "name": "G#3",
          "ticks": 85680,
          "time": 262.31359399999997,
          "velocity": 0.48031496062992124
        },
        {
          "duration": 0.7375000000000114,
          "durationTicks": 236,
          "midi": 53,
          "name": "F3",
          "ticks": 86160,
          "time": 263.81359399999997,
          "velocity": 0.49606299212598426
        },
        {
          "duration": 0.7375000000000114,
          "durationTicks": 236,
          "midi": 56,
          "name": "G#3",
          "ticks": 86160,
          "time": 263.81359399999997,
          "velocity": 0.49606299212598426
        },
        {
          "duration": 1.46875,
          "durationTicks": 470,
          "midi": 54,
          "name": "F#3",
          "ticks": 86400,
          "time": 264.56359399999997,
          "velocity": 0.49606299212598426
        },
        {
          "duration": 1.46875,
          "durationTicks": 470,
          "midi": 61,
          "name": "C#4",
          "ticks": 86400,
          "time": 264.56359399999997,
          "velocity": 0.49606299212598426
        },
        {
          "duration": 0.7375000000000114,
          "durationTicks": 236,
          "midi": 61,
          "name": "C#4",
          "ticks": 86880,
          "time": 266.06359399999997,
          "velocity": 0.48031496062992124
        },
        {
          "duration": 0.7375000000000114,
          "durationTicks": 236,
          "midi": 54,
          "name": "F#3",
          "ticks": 86880,
          "time": 266.06359399999997,
          "velocity": 0.48031496062992124
        },
        {
          "duration": 1.46875,
          "durationTicks": 470,
          "midi": 50,
          "name": "D3",
          "ticks": 87120,
          "time": 266.81359399999997,
          "velocity": 0.4645669291338583
        },
        {
          "duration": 1.46875,
          "durationTicks": 470,
          "midi": 54,
          "name": "F#3",
          "ticks": 87120,
          "time": 266.81359399999997,
          "velocity": 0.4645669291338583
        },
        {
          "duration": 0.7375000000000114,
          "durationTicks": 236,
          "midi": 50,
          "name": "D3",
          "ticks": 87600,
          "time": 268.31359399999997,
          "velocity": 0.4409448818897638
        },
        {
          "duration": 0.7375000000000114,
          "durationTicks": 236,
          "midi": 54,
          "name": "F#3",
          "ticks": 87600,
          "time": 268.31359399999997,
          "velocity": 0.4409448818897638
        },
        {
          "duration": 1.46875,
          "durationTicks": 470,
          "midi": 47,
          "name": "B2",
          "ticks": 87840,
          "time": 269.06359399999997,
          "velocity": 0.4330708661417323
        },
        {
          "duration": 1.46875,
          "durationTicks": 470,
          "midi": 55,
          "name": "G3",
          "ticks": 87840,
          "time": 269.06359399999997,
          "velocity": 0.4330708661417323
        },
        {
          "duration": 1.46875,
          "durationTicks": 470,
          "midi": 50,
          "name": "D3",
          "ticks": 87840,
          "time": 269.06359399999997,
          "velocity": 0.4330708661417323
        },
        {
          "duration": 0.7375000000000114,
          "durationTicks": 236,
          "midi": 55,
          "name": "G3",
          "ticks": 88320,
          "time": 270.56359399999997,
          "velocity": 0.4251968503937008
        },
        {
          "duration": 0.7375000000000114,
          "durationTicks": 236,
          "midi": 50,
          "name": "D3",
          "ticks": 88320,
          "time": 270.56359399999997,
          "velocity": 0.4251968503937008
        },
        {
          "duration": 0.7375000000000114,
          "durationTicks": 236,
          "midi": 47,
          "name": "B2",
          "ticks": 88320,
          "time": 270.56359399999997,
          "velocity": 0.4251968503937008
        },
        {
          "duration": 1.46875,
          "durationTicks": 470,
          "midi": 47,
          "name": "B2",
          "ticks": 88560,
          "time": 271.31359399999997,
          "velocity": 0.4251968503937008
        },
        {
          "duration": 1.46875,
          "durationTicks": 470,
          "midi": 55,
          "name": "G3",
          "ticks": 88560,
          "time": 271.31359399999997,
          "velocity": 0.4251968503937008
        },
        {
          "duration": 1.46875,
          "durationTicks": 470,
          "midi": 50,
          "name": "D3",
          "ticks": 88560,
          "time": 271.31359399999997,
          "velocity": 0.4251968503937008
        },
        {
          "duration": 0.7375000000000114,
          "durationTicks": 236,
          "midi": 55,
          "name": "G3",
          "ticks": 89040,
          "time": 272.81359399999997,
          "velocity": 0.41732283464566927
        },
        {
          "duration": 0.7375000000000114,
          "durationTicks": 236,
          "midi": 50,
          "name": "D3",
          "ticks": 89040,
          "time": 272.81359399999997,
          "velocity": 0.41732283464566927
        },
        {
          "duration": 0.7375000000000114,
          "durationTicks": 236,
          "midi": 47,
          "name": "B2",
          "ticks": 89040,
          "time": 272.81359399999997,
          "velocity": 0.41732283464566927
        },
        {
          "duration": 1.46875,
          "durationTicks": 470,
          "midi": 47,
          "name": "B2",
          "ticks": 89280,
          "time": 273.56359399999997,
          "velocity": 0.41732283464566927
        },
        {
          "duration": 1.46875,
          "durationTicks": 470,
          "midi": 50,
          "name": "D3",
          "ticks": 89280,
          "time": 273.56359399999997,
          "velocity": 0.41732283464566927
        },
        {
          "duration": 1.46875,
          "durationTicks": 470,
          "midi": 55,
          "name": "G3",
          "ticks": 89280,
          "time": 273.56359399999997,
          "velocity": 0.41732283464566927
        },
        {
          "duration": 1.4250000000000114,
          "durationTicks": 456,
          "midi": 49,
          "name": "C#3",
          "ticks": 90720,
          "time": 278.06359399999997,
          "velocity": 0.47244094488188976
        },
        {
          "duration": 1.4250000000000114,
          "durationTicks": 456,
          "midi": 57,
          "name": "A3",
          "ticks": 90720,
          "time": 278.06359399999997,
          "velocity": 0.47244094488188976
        },
        {
          "duration": 0.7125000000000341,
          "durationTicks": 228,
          "midi": 57,
          "name": "A3",
          "ticks": 91200,
          "time": 279.56359399999997,
          "velocity": 0.44881889763779526
        },
        {
          "duration": 0.7125000000000341,
          "durationTicks": 228,
          "midi": 49,
          "name": "C#3",
          "ticks": 91200,
          "time": 279.56359399999997,
          "velocity": 0.44881889763779526
        },
        {
          "duration": 1.4250000000000114,
          "durationTicks": 456,
          "midi": 61,
          "name": "C#4",
          "ticks": 91440,
          "time": 280.31359399999997,
          "velocity": 0.4409448818897638
        },
        {
          "duration": 1.5,
          "durationTicks": 480,
          "midi": 66,
          "name": "F#4",
          "ticks": 91440,
          "time": 280.31359399999997,
          "velocity": 0.4409448818897638
        },
        {
          "duration": 1.4250000000000114,
          "durationTicks": 456,
          "midi": 49,
          "name": "C#3",
          "ticks": 91440,
          "time": 280.31359399999997,
          "velocity": 0.4409448818897638
        },
        {
          "duration": 0.7125000000000341,
          "durationTicks": 228,
          "midi": 59,
          "name": "B3",
          "ticks": 91920,
          "time": 281.81359399999997,
          "velocity": 0.4330708661417323
        },
        {
          "duration": 0.75,
          "durationTicks": 240,
          "midi": 65,
          "name": "F4",
          "ticks": 91920,
          "time": 281.81359399999997,
          "velocity": 0.4330708661417323
        },
        {
          "duration": 0.7125000000000341,
          "durationTicks": 228,
          "midi": 49,
          "name": "C#3",
          "ticks": 91920,
          "time": 281.81359399999997,
          "velocity": 0.4330708661417323
        },
        {
          "duration": 4.275000000000034,
          "durationTicks": 1368,
          "midi": 50,
          "name": "D3",
          "ticks": 92160,
          "time": 282.56359399999997,
          "velocity": 0.4251968503937008
        },
        {
          "duration": 4.275000000000034,
          "durationTicks": 1368,
          "midi": 57,
          "name": "A3",
          "ticks": 92160,
          "time": 282.56359399999997,
          "velocity": 0.4251968503937008
        },
        {
          "duration": 1.2000000000000455,
          "durationTicks": 384,
          "midi": 47,
          "name": "B2",
          "ticks": 93600,
          "time": 287.06359399999997,
          "velocity": 0.47244094488188976
        },
        {
          "duration": 1.2000000000000455,
          "durationTicks": 384,
          "midi": 50,
          "name": "D3",
          "ticks": 93600,
          "time": 287.06359399999997,
          "velocity": 0.47244094488188976
        },
        {
          "duration": 0.6000000000000227,
          "durationTicks": 192,
          "midi": 50,
          "name": "D3",
          "ticks": 94080,
          "time": 288.56359399999997,
          "velocity": 0.47244094488188976
        },
        {
          "duration": 0.6000000000000227,
          "durationTicks": 192,
          "midi": 47,
          "name": "B2",
          "ticks": 94080,
          "time": 288.56359399999997,
          "velocity": 0.47244094488188976
        },
        {
          "duration": 1.2000000000000455,
          "durationTicks": 384,
          "midi": 47,
          "name": "B2",
          "ticks": 94320,
          "time": 289.31359399999997,
          "velocity": 0.47244094488188976
        },
        {
          "duration": 1.2000000000000455,
          "durationTicks": 384,
          "midi": 50,
          "name": "D3",
          "ticks": 94320,
          "time": 289.31359399999997,
          "velocity": 0.47244094488188976
        },
        {
          "duration": 0.6000000000000227,
          "durationTicks": 192,
          "midi": 47,
          "name": "B2",
          "ticks": 94800,
          "time": 290.81359399999997,
          "velocity": 0.47244094488188976
        },
        {
          "duration": 0.6000000000000227,
          "durationTicks": 192,
          "midi": 50,
          "name": "D3",
          "ticks": 94800,
          "time": 290.81359399999997,
          "velocity": 0.47244094488188976
        },
        {
          "duration": 1.2000000000000455,
          "durationTicks": 384,
          "midi": 47,
          "name": "B2",
          "ticks": 95040,
          "time": 291.56359399999997,
          "velocity": 0.47244094488188976
        },
        {
          "duration": 1.2000000000000455,
          "durationTicks": 384,
          "midi": 50,
          "name": "D3",
          "ticks": 95040,
          "time": 291.56359399999997,
          "velocity": 0.47244094488188976
        },
        {
          "duration": 1.4250000000000682,
          "durationTicks": 456,
          "midi": 49,
          "name": "C#3",
          "ticks": 96480,
          "time": 296.06359399999997,
          "velocity": 0.47244094488188976
        },
        {
          "duration": 1.4250000000000682,
          "durationTicks": 456,
          "midi": 57,
          "name": "A3",
          "ticks": 96480,
          "time": 296.06359399999997,
          "velocity": 0.47244094488188976
        },
        {
          "duration": 0.7125000000000341,
          "durationTicks": 228,
          "midi": 57,
          "name": "A3",
          "ticks": 96960,
          "time": 297.56359399999997,
          "velocity": 0.47244094488188976
        },
        {
          "duration": 0.7125000000000341,
          "durationTicks": 228,
          "midi": 49,
          "name": "C#3",
          "ticks": 96960,
          "time": 297.56359399999997,
          "velocity": 0.47244094488188976
        },
        {
          "duration": 1.4250000000000682,
          "durationTicks": 456,
          "midi": 61,
          "name": "C#4",
          "ticks": 97200,
          "time": 298.31359399999997,
          "velocity": 0.47244094488188976
        },
        {
          "duration": 1.5,
          "durationTicks": 480,
          "midi": 66,
          "name": "F#4",
          "ticks": 97200,
          "time": 298.31359399999997,
          "velocity": 0.47244094488188976
        },
        {
          "duration": 1.4250000000000682,
          "durationTicks": 456,
          "midi": 49,
          "name": "C#3",
          "ticks": 97200,
          "time": 298.31359399999997,
          "velocity": 0.47244094488188976
        },
        {
          "duration": 0.7125000000000341,
          "durationTicks": 228,
          "midi": 59,
          "name": "B3",
          "ticks": 97680,
          "time": 299.81359399999997,
          "velocity": 0.44881889763779526
        },
        {
          "duration": 0.75,
          "durationTicks": 240,
          "midi": 65,
          "name": "F4",
          "ticks": 97680,
          "time": 299.81359399999997,
          "velocity": 0.44881889763779526
        },
        {
          "duration": 0.7125000000000341,
          "durationTicks": 228,
          "midi": 49,
          "name": "C#3",
          "ticks": 97680,
          "time": 299.81359399999997,
          "velocity": 0.44881889763779526
        },
        {
          "duration": 0.6000000000000227,
          "durationTicks": 192,
          "midi": 54,
          "name": "F#3",
          "ticks": 97920,
          "time": 300.56359399999997,
          "velocity": 0.4330708661417323
        },
        {
          "duration": 0.6000000000000227,
          "durationTicks": 192,
          "midi": 57,
          "name": "A3",
          "ticks": 97920,
          "time": 300.56359399999997,
          "velocity": 0.4330708661417323
        },
        {
          "duration": 0.3687500000000341,
          "durationTicks": 118,
          "midi": 54,
          "name": "F#3",
          "ticks": 109440,
          "time": 336.56359399999997,
          "velocity": 0.47244094488188976
        },
        {
          "duration": 0.3687500000000341,
          "durationTicks": 118,
          "midi": 57,
          "name": "A3",
          "ticks": 109560,
          "time": 336.93859399999997,
          "velocity": 0.47244094488188976
        },
        {
          "duration": 0.3687500000000341,
          "durationTicks": 118,
          "midi": 61,
          "name": "C#4",
          "ticks": 109680,
          "time": 337.31359399999997,
          "velocity": 0.47244094488188976
        },
        {
          "duration": 0.3687500000000341,
          "durationTicks": 118,
          "midi": 57,
          "name": "A3",
          "ticks": 109800,
          "time": 337.68859399999997,
          "velocity": 0.47244094488188976
        },
        {
          "duration": 0.3687500000000341,
          "durationTicks": 118,
          "midi": 61,
          "name": "C#4",
          "ticks": 109920,
          "time": 338.06359399999997,
          "velocity": 0.47244094488188976
        },
        {
          "duration": 0.3687500000000341,
          "durationTicks": 118,
          "midi": 57,
          "name": "A3",
          "ticks": 110040,
          "time": 338.43859399999997,
          "velocity": 0.47244094488188976
        },
        {
          "duration": 0.3687500000000341,
          "durationTicks": 118,
          "midi": 54,
          "name": "F#3",
          "ticks": 110160,
          "time": 338.81359399999997,
          "velocity": 0.47244094488188976
        },
        {
          "duration": 0.3687500000000341,
          "durationTicks": 118,
          "midi": 57,
          "name": "A3",
          "ticks": 110280,
          "time": 339.18859399999997,
          "velocity": 0.47244094488188976
        },
        {
          "duration": 0.3687500000000341,
          "durationTicks": 118,
          "midi": 61,
          "name": "C#4",
          "ticks": 110400,
          "time": 339.56359399999997,
          "velocity": 0.47244094488188976
        },
        {
          "duration": 0.3687500000000341,
          "durationTicks": 118,
          "midi": 57,
          "name": "A3",
          "ticks": 110520,
          "time": 339.93859399999997,
          "velocity": 0.47244094488188976
        },
        {
          "duration": 0.3687500000000341,
          "durationTicks": 118,
          "midi": 61,
          "name": "C#4",
          "ticks": 110640,
          "time": 340.31359399999997,
          "velocity": 0.47244094488188976
        },
        {
          "duration": 0.3687500000000341,
          "durationTicks": 118,
          "midi": 57,
          "name": "A3",
          "ticks": 110760,
          "time": 340.68859399999997,
          "velocity": 0.47244094488188976
        },
        {
          "duration": 0.3687500000000341,
          "durationTicks": 118,
          "midi": 54,
          "name": "F#3",
          "ticks": 110880,
          "time": 341.06359399999997,
          "velocity": 0.47244094488188976
        },
        {
          "duration": 0.3687500000000341,
          "durationTicks": 118,
          "midi": 57,
          "name": "A3",
          "ticks": 111000,
          "time": 341.43859399999997,
          "velocity": 0.47244094488188976
        },
        {
          "duration": 0.3687500000000341,
          "durationTicks": 118,
          "midi": 61,
          "name": "C#4",
          "ticks": 111120,
          "time": 341.81359399999997,
          "velocity": 0.47244094488188976
        },
        {
          "duration": 0.3687500000000341,
          "durationTicks": 118,
          "midi": 57,
          "name": "A3",
          "ticks": 111240,
          "time": 342.18859399999997,
          "velocity": 0.47244094488188976
        },
        {
          "duration": 0.3687500000000341,
          "durationTicks": 118,
          "midi": 61,
          "name": "C#4",
          "ticks": 111360,
          "time": 342.56359399999997,
          "velocity": 0.47244094488188976
        },
        {
          "duration": 0.3687500000000341,
          "durationTicks": 118,
          "midi": 57,
          "name": "A3",
          "ticks": 111480,
          "time": 342.93859399999997,
          "velocity": 0.47244094488188976
        },
        {
          "duration": 0.3687500000000341,
          "durationTicks": 118,
          "midi": 56,
          "name": "G#3",
          "ticks": 111600,
          "time": 343.31359399999997,
          "velocity": 0.47244094488188976
        },
        {
          "duration": 0.3687500000000341,
          "durationTicks": 118,
          "midi": 59,
          "name": "B3",
          "ticks": 111720,
          "time": 343.68859399999997,
          "velocity": 0.47244094488188976
        },
        {
          "duration": 0.3687500000000341,
          "durationTicks": 118,
          "midi": 61,
          "name": "C#4",
          "ticks": 111840,
          "time": 344.06359399999997,
          "velocity": 0.47244094488188976
        },
        {
          "duration": 0.3687500000000341,
          "durationTicks": 118,
          "midi": 59,
          "name": "B3",
          "ticks": 111960,
          "time": 344.43859399999997,
          "velocity": 0.47244094488188976
        },
        {
          "duration": 0.3687500000000341,
          "durationTicks": 118,
          "midi": 61,
          "name": "C#4",
          "ticks": 112080,
          "time": 344.81359399999997,
          "velocity": 0.47244094488188976
        },
        {
          "duration": 0.3687500000000341,
          "durationTicks": 118,
          "midi": 59,
          "name": "B3",
          "ticks": 112200,
          "time": 345.18859399999997,
          "velocity": 0.47244094488188976
        },
        {
          "duration": 0.3687500000000341,
          "durationTicks": 118,
          "midi": 57,
          "name": "A3",
          "ticks": 112320,
          "time": 345.56359399999997,
          "velocity": 0.47244094488188976
        },
        {
          "duration": 0.3687500000000341,
          "durationTicks": 118,
          "midi": 59,
          "name": "B3",
          "ticks": 112440,
          "time": 345.93859399999997,
          "velocity": 0.47244094488188976
        },
        {
          "duration": 0.3687500000000341,
          "durationTicks": 118,
          "midi": 65,
          "name": "F4",
          "ticks": 112560,
          "time": 346.31359399999997,
          "velocity": 0.47244094488188976
        },
        {
          "duration": 0.3687500000000341,
          "durationTicks": 118,
          "midi": 59,
          "name": "B3",
          "ticks": 112680,
          "time": 346.68859399999997,
          "velocity": 0.47244094488188976
        },
        {
          "duration": 0.3687500000000341,
          "durationTicks": 118,
          "midi": 65,
          "name": "F4",
          "ticks": 112800,
          "time": 347.06359399999997,
          "velocity": 0.47244094488188976
        },
        {
          "duration": 0.3687500000000341,
          "durationTicks": 118,
          "midi": 59,
          "name": "B3",
          "ticks": 112920,
          "time": 347.43859399999997,
          "velocity": 0.47244094488188976
        },
        {
          "duration": 0.3687500000000341,
          "durationTicks": 118,
          "midi": 57,
          "name": "A3",
          "ticks": 113040,
          "time": 347.81359399999997,
          "velocity": 0.47244094488188976
        },
        {
          "duration": 0.3687500000000341,
          "durationTicks": 118,
          "midi": 61,
          "name": "C#4",
          "ticks": 113160,
          "time": 348.18859399999997,
          "velocity": 0.47244094488188976
        },
        {
          "duration": 0.3687500000000341,
          "durationTicks": 118,
          "midi": 66,
          "name": "F#4",
          "ticks": 113280,
          "time": 348.56359399999997,
          "velocity": 0.47244094488188976
        },
        {
          "duration": 0.3687500000000341,
          "durationTicks": 118,
          "midi": 61,
          "name": "C#4",
          "ticks": 113400,
          "time": 348.93859399999997,
          "velocity": 0.47244094488188976
        },
        {
          "duration": 0.3687500000000341,
          "durationTicks": 118,
          "midi": 66,
          "name": "F#4",
          "ticks": 113520,
          "time": 349.31359399999997,
          "velocity": 0.47244094488188976
        },
        {
          "duration": 0.3687500000000341,
          "durationTicks": 118,
          "midi": 61,
          "name": "C#4",
          "ticks": 113640,
          "time": 349.68859399999997,
          "velocity": 0.47244094488188976
        },
        {
          "duration": 0.3687500000000341,
          "durationTicks": 118,
          "midi": 59,
          "name": "B3",
          "ticks": 113760,
          "time": 350.06359399999997,
          "velocity": 0.47244094488188976
        },
        {
          "duration": 0.3687500000000341,
          "durationTicks": 118,
          "midi": 62,
          "name": "D4",
          "ticks": 113880,
          "time": 350.43859399999997,
          "velocity": 0.47244094488188976
        },
        {
          "duration": 0.3687500000000341,
          "durationTicks": 118,
          "midi": 66,
          "name": "F#4",
          "ticks": 114000,
          "time": 350.81359399999997,
          "velocity": 0.47244094488188976
        },
        {
          "duration": 0.3687500000000341,
          "durationTicks": 118,
          "midi": 62,
          "name": "D4",
          "ticks": 114120,
          "time": 351.18859399999997,
          "velocity": 0.47244094488188976
        },
        {
          "duration": 0.3687500000000341,
          "durationTicks": 118,
          "midi": 66,
          "name": "F#4",
          "ticks": 114240,
          "time": 351.56359399999997,
          "velocity": 0.47244094488188976
        },
        {
          "duration": 0.3687500000000341,
          "durationTicks": 118,
          "midi": 62,
          "name": "D4",
          "ticks": 114360,
          "time": 351.93859399999997,
          "velocity": 0.47244094488188976
        },
        {
          "duration": 0.3687500000000341,
          "durationTicks": 118,
          "midi": 59,
          "name": "B3",
          "ticks": 114480,
          "time": 352.31359399999997,
          "velocity": 0.47244094488188976
        },
        {
          "duration": 0.3687500000000341,
          "durationTicks": 118,
          "midi": 62,
          "name": "D4",
          "ticks": 114600,
          "time": 352.68859399999997,
          "velocity": 0.47244094488188976
        },
        {
          "duration": 0.3687500000000341,
          "durationTicks": 118,
          "midi": 68,
          "name": "G#4",
          "ticks": 114720,
          "time": 353.06359399999997,
          "velocity": 0.47244094488188976
        },
        {
          "duration": 0.3687500000000341,
          "durationTicks": 118,
          "midi": 62,
          "name": "D4",
          "ticks": 114840,
          "time": 353.43859399999997,
          "velocity": 0.47244094488188976
        },
        {
          "duration": 0.3687500000000341,
          "durationTicks": 118,
          "midi": 68,
          "name": "G#4",
          "ticks": 114960,
          "time": 353.81359399999997,
          "velocity": 0.47244094488188976
        },
        {
          "duration": 0.3687500000000341,
          "durationTicks": 118,
          "midi": 62,
          "name": "D4",
          "ticks": 115080,
          "time": 354.18859399999997,
          "velocity": 0.47244094488188976
        },
        {
          "duration": 0.2437500000000341,
          "durationTicks": 78,
          "midi": 49,
          "name": "C#3",
          "ticks": 115320,
          "time": 354.93859399999997,
          "velocity": 0.47244094488188976
        },
        {
          "duration": 0.2437500000000341,
          "durationTicks": 78,
          "midi": 53,
          "name": "F3",
          "ticks": 115440,
          "time": 355.31359399999997,
          "velocity": 0.47244094488188976
        },
        {
          "duration": 0.2437500000000341,
          "durationTicks": 78,
          "midi": 56,
          "name": "G#3",
          "ticks": 115560,
          "time": 355.68859399999997,
          "velocity": 0.47244094488188976
        },
        {
          "duration": 0.2437500000000341,
          "durationTicks": 78,
          "midi": 61,
          "name": "C#4",
          "ticks": 115680,
          "time": 356.06359399999997,
          "velocity": 0.47244094488188976
        },
        {
          "duration": 0.2437500000000341,
          "durationTicks": 78,
          "midi": 49,
          "name": "C#3",
          "ticks": 115800,
          "time": 356.43859399999997,
          "velocity": 0.47244094488188976
        },
        {
          "duration": 0.9750000000000227,
          "durationTicks": 312,
          "midi": 61,
          "name": "C#4",
          "ticks": 115920,
          "time": 356.81359399999997,
          "velocity": 0.47244094488188976
        },
        {
          "duration": 0.2437500000000341,
          "durationTicks": 78,
          "midi": 37,
          "name": "C#2",
          "ticks": 116760,
          "time": 359.43859399999997,
          "velocity": 0.47244094488188976
        },
        {
          "duration": 0.2437500000000341,
          "durationTicks": 78,
          "midi": 39,
          "name": "D#2",
          "ticks": 116880,
          "time": 359.81359399999997,
          "velocity": 0.47244094488188976
        },
        {
          "duration": 0.2437500000000341,
          "durationTicks": 78,
          "midi": 42,
          "name": "F#2",
          "ticks": 117000,
          "time": 360.18859399999997,
          "velocity": 0.47244094488188976
        },
        {
          "duration": 0.2437500000000341,
          "durationTicks": 78,
          "midi": 49,
          "name": "C#3",
          "ticks": 117120,
          "time": 360.56359399999997,
          "velocity": 0.47244094488188976
        },
        {
          "duration": 0.24374999999997726,
          "durationTicks": 78,
          "midi": 37,
          "name": "C#2",
          "ticks": 117240,
          "time": 360.93859399999997,
          "velocity": 0.47244094488188976
        },
        {
          "duration": 0.9750000000000227,
          "durationTicks": 312,
          "midi": 49,
          "name": "C#3",
          "ticks": 117360,
          "time": 361.31359399999997,
          "velocity": 0.47244094488188976
        },
        {
          "duration": 0.24374999999997726,
          "durationTicks": 78,
          "midi": 49,
          "name": "C#3",
          "ticks": 118200,
          "time": 363.93859399999997,
          "velocity": 0.47244094488188976
        },
        {
          "duration": 0.24374999999997726,
          "durationTicks": 78,
          "midi": 54,
          "name": "F#3",
          "ticks": 118320,
          "time": 364.31359399999997,
          "velocity": 0.47244094488188976
        },
        {
          "duration": 0.24374999999997726,
          "durationTicks": 78,
          "midi": 58,
          "name": "A#3",
          "ticks": 118440,
          "time": 364.68859399999997,
          "velocity": 0.47244094488188976
        },
        {
          "duration": 0.24374999999997726,
          "durationTicks": 78,
          "midi": 61,
          "name": "C#4",
          "ticks": 118560,
          "time": 365.06359399999997,
          "velocity": 0.47244094488188976
        },
        {
          "duration": 0.24374999999997726,
          "durationTicks": 78,
          "midi": 49,
          "name": "C#3",
          "ticks": 118680,
          "time": 365.43859399999997,
          "velocity": 0.47244094488188976
        },
        {
          "duration": 0.9750000000000227,
          "durationTicks": 312,
          "midi": 61,
          "name": "C#4",
          "ticks": 118800,
          "time": 365.81359399999997,
          "velocity": 0.47244094488188976
        },
        {
          "duration": 0.24374999999997726,
          "durationTicks": 78,
          "midi": 37,
          "name": "C#2",
          "ticks": 119640,
          "time": 368.43859399999997,
          "velocity": 0.47244094488188976
        },
        {
          "duration": 0.24374999999997726,
          "durationTicks": 78,
          "midi": 42,
          "name": "F#2",
          "ticks": 119760,
          "time": 368.81359399999997,
          "velocity": 0.47244094488188976
        },
        {
          "duration": 0.24374999999997726,
          "durationTicks": 78,
          "midi": 44,
          "name": "G#2",
          "ticks": 119880,
          "time": 369.18859399999997,
          "velocity": 0.47244094488188976
        },
        {
          "duration": 0.24374999999997726,
          "durationTicks": 78,
          "midi": 49,
          "name": "C#3",
          "ticks": 120000,
          "time": 369.56359399999997,
          "velocity": 0.47244094488188976
        },
        {
          "duration": 0.24374999999997726,
          "durationTicks": 78,
          "midi": 37,
          "name": "C#2",
          "ticks": 120120,
          "time": 369.93859399999997,
          "velocity": 0.47244094488188976
        },
        {
          "duration": 0.9750000000000227,
          "durationTicks": 312,
          "midi": 49,
          "name": "C#3",
          "ticks": 120240,
          "time": 370.31359399999997,
          "velocity": 0.47244094488188976
        },
        {
          "duration": 1.1428568000000041,
          "durationTicks": 384,
          "midi": 54,
          "name": "F#3",
          "ticks": 120960,
          "time": 372.56359399999997,
          "velocity": 0.44881889763779526
        },
        {
          "duration": 1.1428568000000041,
          "durationTicks": 384,
          "midi": 50,
          "name": "D3",
          "ticks": 122400,
          "time": 376.84930699999995,
          "velocity": 0.47244094488188976
        },
        {
          "duration": 1.1428568000000041,
          "durationTicks": 384,
          "midi": 47,
          "name": "B2",
          "ticks": 123840,
          "time": 381.13501999999994,
          "velocity": 0.47244094488188976
        },
        {
          "duration": 1.1428568000000041,
          "durationTicks": 384,
          "midi": 49,
          "name": "C#3",
          "ticks": 125280,
          "time": 385.420733,
          "velocity": 0.47244094488188976
        },
        {
          "duration": 1.1428568000000041,
          "durationTicks": 384,
          "midi": 54,
          "name": "F#3",
          "ticks": 126720,
          "time": 389.70644599999997,
          "velocity": 0.47244094488188976
        },
        {
          "duration": 1.1428568000000041,
          "durationTicks": 384,
          "midi": 50,
          "name": "D3",
          "ticks": 128160,
          "time": 393.99215899999996,
          "velocity": 0.5511811023622047
        },
        {
          "duration": 1.1428568000000041,
          "durationTicks": 384,
          "midi": 47,
          "name": "B2",
          "ticks": 129600,
          "time": 398.27787199999995,
          "velocity": 0.5511811023622047
        },
        {
          "duration": 1.1428568000000041,
          "durationTicks": 384,
          "midi": 49,
          "name": "C#3",
          "ticks": 131040,
          "time": 402.563585,
          "velocity": 0.5511811023622047
        },
        {
          "duration": 1.1707311999999774,
          "durationTicks": 384,
          "midi": 54,
          "name": "F#3",
          "ticks": 132480,
          "time": 406.849298,
          "velocity": 0.47244094488188976
        },
        {
          "duration": 1.1707312000000343,
          "durationTicks": 384,
          "midi": 45,
          "name": "A2",
          "ticks": 133200,
          "time": 409.04441899999995,
          "velocity": 0.47244094488188976
        },
        {
          "duration": 1.1707311999999774,
          "durationTicks": 384,
          "midi": 47,
          "name": "B2",
          "ticks": 133920,
          "time": 411.23954,
          "velocity": 0.47244094488188976
        },
        {
          "duration": 1.1707312000000343,
          "durationTicks": 384,
          "midi": 49,
          "name": "C#3",
          "ticks": 134640,
          "time": 413.43466099999995,
          "velocity": 0.47244094488188976
        },
        {
          "duration": 1.1707311999999774,
          "durationTicks": 384,
          "midi": 45,
          "name": "A2",
          "ticks": 135360,
          "time": 415.629782,
          "velocity": 0.47244094488188976
        },
        {
          "duration": 1.1707312000000343,
          "durationTicks": 384,
          "midi": 50,
          "name": "D3",
          "ticks": 136080,
          "time": 417.82490299999995,
          "velocity": 0.47244094488188976
        },
        {
          "duration": 1.1707311999999774,
          "durationTicks": 384,
          "midi": 47,
          "name": "B2",
          "ticks": 136800,
          "time": 420.020024,
          "velocity": 0.47244094488188976
        },
        {
          "duration": 1.1707312000000343,
          "durationTicks": 384,
          "midi": 49,
          "name": "C#3",
          "ticks": 137520,
          "time": 422.21514499999995,
          "velocity": 0.47244094488188976
        },
        {
          "duration": 1.1707311999999774,
          "durationTicks": 384,
          "midi": 45,
          "name": "A2",
          "ticks": 138240,
          "time": 424.410266,
          "velocity": 0.47244094488188976
        },
        {
          "duration": 1.1707312000000343,
          "durationTicks": 384,
          "midi": 48,
          "name": "C3",
          "ticks": 138960,
          "time": 426.60538699999995,
          "velocity": 0.47244094488188976
        },
        {
          "duration": 1.1999999999999886,
          "durationTicks": 384,
          "midi": 49,
          "name": "C#3",
          "ticks": 139680,
          "time": 428.800508,
          "velocity": 0.47244094488188976
        },
        {
          "duration": 0.6096093749999341,
          "durationTicks": 180,
          "midi": 54,
          "name": "F#3",
          "ticks": 141120,
          "time": 433.43698946666666,
          "velocity": 0.4330708661417323
        },
        {
          "duration": 0.8108105000000023,
          "durationTicks": 240,
          "midi": 73,
          "name": "C#5",
          "ticks": 141600,
          "time": 435.0601119666666,
          "velocity": 0.4566929133858268
        },
        {
          "duration": 0.6081078749999733,
          "durationTicks": 180,
          "midi": 54,
          "name": "F#3",
          "ticks": 141840,
          "time": 435.8709224666666,
          "velocity": 0.4251968503937008
        },
        {
          "duration": 0.6486484000000132,
          "durationTicks": 192,
          "midi": 69,
          "name": "A4",
          "ticks": 141840,
          "time": 435.8709224666666,
          "velocity": 0.4251968503937008
        },
        {
          "duration": 0.857142500000009,
          "durationTicks": 240,
          "midi": 73,
          "name": "C#5",
          "ticks": 142320,
          "time": 437.4987210666666,
          "velocity": 0.44881889763779526
        },
        {
          "duration": 0.6818178749999788,
          "durationTicks": 180,
          "midi": 54,
          "name": "F#3",
          "ticks": 142560,
          "time": 438.3558635666666,
          "velocity": 0.4015748031496063
        },
        {
          "duration": 0.6818178749999788,
          "durationTicks": 180,
          "midi": 69,
          "name": "A4",
          "ticks": 142560,
          "time": 438.3558635666666,
          "velocity": 0.4015748031496063
        }
      ],
      "endOfTrackTicks": 142740
    },
    {
      "channel": 0,
      "controlChanges": {
        "7": [
          {
            "number": 7,
            "ticks": 0,
            "time": 0,
            "value": 0.968503937007874
          }
        ],
        "91": [
          {
            "number": 91,
            "ticks": 0,
            "time": 0,
            "value": 0.7874015748031497
          }
        ]
      },
      "pitchBends": [],
      "instrument": {
        "family": "piano",
        "number": 0,
        "name": "acoustic grand piano"
      },
      "name": "",
      "notes": [],
      "endOfTrackTicks": 0
    },
    {
      "channel": 10,
      "controlChanges": {
        "7": [
          {
            "number": 7,
            "ticks": 0,
            "time": 0,
            "value": 0.8976377952755905
          }
        ],
        "10": [
          {
            "number": 10,
            "ticks": 0,
            "time": 0,
            "value": 0.2204724409448819
          }
        ],
        "91": [
          {
            "number": 91,
            "ticks": 0,
            "time": 0,
            "value": 0.6299212598425197
          }
        ]
      },
      "pitchBends": [],
      "instrument": {
        "family": "ensemble",
        "number": 48,
        "name": "string ensemble 1"
      },
      "name": "",
      "notes": [
        {
          "duration": 3,
          "durationTicks": 960,
          "midi": 69,
          "name": "A4",
          "ticks": 18000,
          "time": 54,
          "velocity": 0.47244094488188976
        },
        {
          "duration": 0.75,
          "durationTicks": 240,
          "midi": 68,
          "name": "G#4",
          "ticks": 18960,
          "time": 57,
          "velocity": 0.47244094488188976
        },
        {
          "duration": 0.75,
          "durationTicks": 240,
          "midi": 66,
          "name": "F#4",
          "ticks": 19200,
          "time": 57.75,
          "velocity": 0.47244094488188976
        },
        {
          "duration": 0.75,
          "durationTicks": 240,
          "midi": 65,
          "name": "F4",
          "ticks": 19440,
          "time": 58.5,
          "velocity": 0.47244094488188976
        },
        {
          "duration": 0.75,
          "durationTicks": 240,
          "midi": 66,
          "name": "F#4",
          "ticks": 19680,
          "time": 59.25,
          "velocity": 0.47244094488188976
        },
        {
          "duration": 0.75,
          "durationTicks": 240,
          "midi": 68,
          "name": "G#4",
          "ticks": 19920,
          "time": 60,
          "velocity": 0.47244094488188976
        },
        {
          "duration": 2.1374999999999957,
          "durationTicks": 684,
          "midi": 61,
          "name": "C#4",
          "ticks": 20160,
          "time": 60.75,
          "velocity": 0.47244094488188976
        },
        {
          "duration": 3,
          "durationTicks": 960,
          "midi": 73,
          "name": "C#5",
          "ticks": 20880,
          "time": 63,
          "velocity": 0.47244094488188976
        },
        {
          "duration": 0.75,
          "durationTicks": 240,
          "midi": 71,
          "name": "B4",
          "ticks": 21840,
          "time": 66,
          "velocity": 0.47244094488188976
        },
        {
          "duration": 0.75,
          "durationTicks": 240,
          "midi": 69,
          "name": "A4",
          "ticks": 22080,
          "time": 66.75,
          "velocity": 0.47244094488188976
        },
        {
          "duration": 0.75,
          "durationTicks": 240,
          "midi": 68,
          "name": "G#4",
          "ticks": 22320,
          "time": 67.5,
          "velocity": 0.47244094488188976
        },
        {
          "duration": 0.75,
          "durationTicks": 240,
          "midi": 69,
          "name": "A4",
          "ticks": 22560,
          "time": 68.25,
          "velocity": 0.47244094488188976
        },
        {
          "duration": 0.75,
          "durationTicks": 240,
          "midi": 71,
          "name": "B4",
          "ticks": 22800,
          "time": 69,
          "velocity": 0.47244094488188976
        },
        {
          "duration": 2.1374999999999886,
          "durationTicks": 684,
          "midi": 65,
          "name": "F4",
          "ticks": 23040,
          "time": 69.75,
          "velocity": 0.47244094488188976
        },
        {
          "duration": 3,
          "durationTicks": 960,
          "midi": 81,
          "name": "A5",
          "ticks": 23760,
          "time": 72,
          "velocity": 0.7086614173228346
        },
        {
          "duration": 0.75,
          "durationTicks": 240,
          "midi": 80,
          "name": "G#5",
          "ticks": 24720,
          "time": 75,
          "velocity": 0.7086614173228346
        },
        {
          "duration": 0.75,
          "durationTicks": 240,
          "midi": 78,
          "name": "F#5",
          "ticks": 24960,
          "time": 75.75,
          "velocity": 0.7086614173228346
        },
        {
          "duration": 0.75,
          "durationTicks": 240,
          "midi": 77,
          "name": "F5",
          "ticks": 25200,
          "time": 76.5,
          "velocity": 0.7086614173228346
        },
        {
          "duration": 0.75,
          "durationTicks": 240,
          "midi": 78,
          "name": "F#5",
          "ticks": 25440,
          "time": 77.25,
          "velocity": 0.7086614173228346
        },
        {
          "duration": 0.75,
          "durationTicks": 240,
          "midi": 80,
          "name": "G#5",
          "ticks": 25680,
          "time": 78,
          "velocity": 0.7086614173228346
        },
        {
          "duration": 3,
          "durationTicks": 960,
          "midi": 73,
          "name": "C#5",
          "ticks": 25920,
          "time": 78.75,
          "velocity": 0.7086614173228346
        },
        {
          "duration": 2.25,
          "durationTicks": 720,
          "midi": 71,
          "name": "B4",
          "ticks": 26880,
          "time": 81.75,
          "velocity": 0.7086614173228346
        },
        {
          "duration": 0.75,
          "durationTicks": 240,
          "midi": 73,
          "name": "C#5",
          "ticks": 27600,
          "time": 84,
          "velocity": 0.7086614173228346
        },
        {
          "duration": 1.5,
          "durationTicks": 480,
          "midi": 69,
          "name": "A4",
          "ticks": 27840,
          "time": 84.75,
          "velocity": 0.7086614173228346
        },
        {
          "duration": 0.44999999999998863,
          "durationTicks": 144,
          "midi": 71,
          "name": "B4",
          "ticks": 28320,
          "time": 86.25,
          "velocity": 0.6299212598425197
        },
        {
          "duration": 0.375,
          "durationTicks": 120,
          "midi": 68,
          "name": "G#4",
          "ticks": 28560,
          "time": 87,
          "velocity": 0.6299212598425197
        },
        {
          "duration": 1.4250000000000114,
          "durationTicks": 456,
          "midi": 66,
          "name": "F#4",
          "ticks": 28800,
          "time": 87.75,
          "velocity": 0.5511811023622047
        },
        {
          "duration": 4.5,
          "durationTicks": 1440,
          "midi": 74,
          "name": "D5",
          "ticks": 36000,
          "time": 110.25,
          "velocity": 0.47244094488188976
        },
        {
          "duration": 4.5,
          "durationTicks": 1440,
          "midi": 73,
          "name": "C#5",
          "ticks": 37440,
          "time": 114.75,
          "velocity": 0.47244094488188976
        },
        {
          "duration": 2.25,
          "durationTicks": 720,
          "midi": 71,
          "name": "B4",
          "ticks": 38880,
          "time": 119.25,
          "velocity": 0.47244094488188976
        },
        {
          "duration": 2.25,
          "durationTicks": 720,
          "midi": 73,
          "name": "C#5",
          "ticks": 39600,
          "time": 121.5,
          "velocity": 0.47244094488188976
        },
        {
          "duration": 1.5,
          "durationTicks": 480,
          "midi": 73,
          "name": "C#5",
          "ticks": 40320,
          "time": 123.75,
          "velocity": 0.47244094488188976
        },
        {
          "duration": 0.6000000000000085,
          "durationTicks": 192,
          "midi": 71,
          "name": "B4",
          "ticks": 40800,
          "time": 125.25,
          "velocity": 0.47244094488188976
        },
        {
          "duration": 0.75,
          "durationTicks": 240,
          "midi": 69,
          "name": "A4",
          "ticks": 42000,
          "time": 129,
          "velocity": 0.47244094488188976
        },
        {
          "duration": 0.75,
          "durationTicks": 240,
          "midi": 72,
          "name": "C5",
          "ticks": 42240,
          "time": 129.75,
          "velocity": 0.47244094488188976
        },
        {
          "duration": 0.6000000000000227,
          "durationTicks": 192,
          "midi": 76,
          "name": "E5",
          "ticks": 42480,
          "time": 130.5,
          "velocity": 0.47244094488188976
        },
        {
          "duration": 0.75,
          "durationTicks": 240,
          "midi": 68,
          "name": "G#4",
          "ticks": 43440,
          "time": 133.5,
          "velocity": 0.47244094488188976
        },
        {
          "duration": 0.75,
          "durationTicks": 240,
          "midi": 71,
          "name": "B4",
          "ticks": 43680,
          "time": 134.25,
          "velocity": 0.47244094488188976
        },
        {
          "duration": 0.6000000000000227,
          "durationTicks": 192,
          "midi": 76,
          "name": "E5",
          "ticks": 43920,
          "time": 135,
          "velocity": 0.47244094488188976
        },
        {
          "duration": 1.5,
          "durationTicks": 480,
          "midi": 76,
          "name": "E5",
          "ticks": 44640,
          "time": 137.25,
          "velocity": 0.5433070866141733
        },
        {
          "duration": 0.75,
          "durationTicks": 240,
          "midi": 75,
          "name": "D#5",
          "ticks": 45120,
          "time": 138.75,
          "velocity": 0.49606299212598426
        },
        {
          "duration": 1.5,
          "durationTicks": 480,
          "midi": 72,
          "name": "C5",
          "ticks": 45360,
          "time": 139.5,
          "velocity": 0.47244094488188976
        },
        {
          "duration": 0.75,
          "durationTicks": 240,
          "midi": 69,
          "name": "A4",
          "ticks": 45840,
          "time": 141,
          "velocity": 0.4251968503937008
        },
        {
          "duration": 1.1999999999999886,
          "durationTicks": 384,
          "midi": 68,
          "name": "G#4",
          "ticks": 46080,
          "time": 141.75,
          "velocity": 0.4015748031496063
        },
        {
          "duration": 0.7142855000000168,
          "durationTicks": 240,
          "midi": 74,
          "name": "D5",
          "ticks": 58800,
          "time": 180.41186499999998,
          "velocity": 0.47244094488188976
        },
        {
          "duration": 0.5714284000000021,
          "durationTicks": 192,
          "midi": 73,
          "name": "C#5",
          "ticks": 59040,
          "time": 181.1261505,
          "velocity": 0.47244094488188976
        },
        {
          "duration": 0.5714284000000021,
          "durationTicks": 192,
          "midi": 71,
          "name": "B4",
          "ticks": 59760,
          "time": 183.269007,
          "velocity": 0.47244094488188976
        },
        {
          "duration": 0.7142854999999884,
          "durationTicks": 240,
          "midi": 76,
          "name": "E5",
          "ticks": 60720,
          "time": 186.126149,
          "velocity": 0.47244094488188976
        },
        {
          "duration": 0.7142854999999884,
          "durationTicks": 240,
          "midi": 68,
          "name": "G#4",
          "ticks": 60960,
          "time": 186.8404345,
          "velocity": 0.47244094488188976
        },
        {
          "duration": 0.5714284000000021,
          "durationTicks": 192,
          "midi": 69,
          "name": "A4",
          "ticks": 61200,
          "time": 187.55471999999997,
          "velocity": 0.47244094488188976
        },
        {
          "duration": 0.3571427500000084,
          "durationTicks": 120,
          "midi": 78,
          "name": "F#5",
          "ticks": 65040,
          "time": 198.983288,
          "velocity": 0.5669291338582677
        },
        {
          "duration": 0.28571420000000103,
          "durationTicks": 96,
          "midi": 74,
          "name": "D5",
          "ticks": 65160,
          "time": 199.34043075,
          "velocity": 0.5590551181102362
        },
        {
          "duration": 0.3571427500000084,
          "durationTicks": 120,
          "midi": 74,
          "name": "D5",
          "ticks": 65280,
          "time": 199.69757349999998,
          "velocity": 0.5511811023622047
        },
        {
          "duration": 0.28571420000000103,
          "durationTicks": 96,
          "midi": 71,
          "name": "B4",
          "ticks": 65400,
          "time": 200.05471624999998,
          "velocity": 0.5433070866141733
        },
        {
          "duration": 0.5714284000000021,
          "durationTicks": 192,
          "midi": 69,
          "name": "A4",
          "ticks": 65520,
          "time": 200.411859,
          "velocity": 0.4251968503937008
        },
        {
          "duration": 1.4285710000000051,
          "durationTicks": 480,
          "midi": 62,
          "name": "D4",
          "ticks": 66240,
          "time": 202.5547155,
          "velocity": 0.4881889763779528
        },
        {
          "duration": 0.7142854999999884,
          "durationTicks": 240,
          "midi": 61,
          "name": "C#4",
          "ticks": 66720,
          "time": 203.9832865,
          "velocity": 0.47244094488188976
        },
        {
          "duration": 0.5714284000000021,
          "durationTicks": 192,
          "midi": 59,
          "name": "B3",
          "ticks": 66960,
          "time": 204.69757199999998,
          "velocity": 0.4566929133858268
        },
        {
          "duration": 1.4285710000000051,
          "durationTicks": 480,
          "midi": 64,
          "name": "E4",
          "ticks": 67680,
          "time": 206.84042849999997,
          "velocity": 0.4881889763779528
        },
        {
          "duration": 0.7142855000000168,
          "durationTicks": 240,
          "midi": 62,
          "name": "D4",
          "ticks": 68160,
          "time": 208.26899949999998,
          "velocity": 0.47244094488188976
        },
        {
          "duration": 0.5714283999999736,
          "durationTicks": 192,
          "midi": 61,
          "name": "C#4",
          "ticks": 68400,
          "time": 208.983285,
          "velocity": 0.4409448818897638
        },
        {
          "duration": 0.35714274999997997,
          "durationTicks": 120,
          "midi": 66,
          "name": "F#4",
          "ticks": 69240,
          "time": 211.48328425,
          "velocity": 0.47244094488188976
        },
        {
          "duration": 0.3571427500000084,
          "durationTicks": 120,
          "midi": 69,
          "name": "A4",
          "ticks": 69360,
          "time": 211.84042699999998,
          "velocity": 0.47244094488188976
        },
        {
          "duration": 0.3571427500000084,
          "durationTicks": 120,
          "midi": 66,
          "name": "F#4",
          "ticks": 69480,
          "time": 212.19756974999999,
          "velocity": 0.47244094488188976
        },
        {
          "duration": 0.35714274999997997,
          "durationTicks": 120,
          "midi": 69,
          "name": "A4",
          "ticks": 69600,
          "time": 212.5547125,
          "velocity": 0.47244094488188976
        },
        {
          "duration": 0.3571427500000084,
          "durationTicks": 120,
          "midi": 66,
          "name": "F#4",
          "ticks": 69720,
          "time": 212.91185524999997,
          "velocity": 0.47244094488188976
        },
        {
          "duration": 0.3571427500000084,
          "durationTicks": 120,
          "midi": 66,
          "name": "F#4",
          "ticks": 69960,
          "time": 213.62614075,
          "velocity": 0.47244094488188976
        },
        {
          "duration": 0.35714274999997997,
          "durationTicks": 120,
          "midi": 69,
          "name": "A4",
          "ticks": 70080,
          "time": 213.9832835,
          "velocity": 0.47244094488188976
        },
        {
          "duration": 0.3571427500000084,
          "durationTicks": 120,
          "midi": 66,
          "name": "F#4",
          "ticks": 70200,
          "time": 214.34042624999998,
          "velocity": 0.47244094488188976
        },
        {
          "duration": 0.3571427500000084,
          "durationTicks": 120,
          "midi": 69,
          "name": "A4",
          "ticks": 70320,
          "time": 214.697569,
          "velocity": 0.47244094488188976
        },
        {
          "duration": 0.3571427500000084,
          "durationTicks": 120,
          "midi": 66,
          "name": "F#4",
          "ticks": 70440,
          "time": 215.05471175,
          "velocity": 0.47244094488188976
        },
        {
          "duration": 0.5714283999999736,
          "durationTicks": 192,
          "midi": 64,
          "name": "E4",
          "ticks": 70560,
          "time": 215.4118545,
          "velocity": 0.47244094488188976
        },
        {
          "duration": 0.5714284000000021,
          "durationTicks": 192,
          "midi": 73,
          "name": "C#5",
          "ticks": 70800,
          "time": 216.12614,
          "velocity": 0.47244094488188976
        },
        {
          "duration": 0.5714284000000021,
          "durationTicks": 192,
          "midi": 73,
          "name": "C#5",
          "ticks": 71040,
          "time": 216.84042549999998,
          "velocity": 0.47244094488188976
        },
        {
          "duration": 0.5714284000000021,
          "durationTicks": 192,
          "midi": 73,
          "name": "C#5",
          "ticks": 71280,
          "time": 217.554711,
          "velocity": 0.47244094488188976
        },
        {
          "duration": 0.5714284000000021,
          "durationTicks": 192,
          "midi": 73,
          "name": "C#5",
          "ticks": 71520,
          "time": 218.2689965,
          "velocity": 0.47244094488188976
        },
        {
          "duration": 0.5714284000000021,
          "durationTicks": 192,
          "midi": 73,
          "name": "C#5",
          "ticks": 71760,
          "time": 218.98328199999997,
          "velocity": 0.47244094488188976
        },
        {
          "duration": 0.5714284000000021,
          "durationTicks": 192,
          "midi": 71,
          "name": "B4",
          "ticks": 72000,
          "time": 219.6975675,
          "velocity": 0.47244094488188976
        },
        {
          "duration": 0.5714283999999736,
          "durationTicks": 192,
          "midi": 71,
          "name": "B4",
          "ticks": 72240,
          "time": 220.411853,
          "velocity": 0.47244094488188976
        },
        {
          "duration": 0.5714284000000021,
          "durationTicks": 192,
          "midi": 71,
          "name": "B4",
          "ticks": 72480,
          "time": 221.12613849999997,
          "velocity": 0.47244094488188976
        },
        {
          "duration": 0.5714284000000021,
          "durationTicks": 192,
          "midi": 71,
          "name": "B4",
          "ticks": 72720,
          "time": 221.84042399999998,
          "velocity": 0.47244094488188976
        },
        {
          "duration": 0.5714284000000021,
          "durationTicks": 192,
          "midi": 71,
          "name": "B4",
          "ticks": 72960,
          "time": 222.5547095,
          "velocity": 0.47244094488188976
        },
        {
          "duration": 0.5714284000000021,
          "durationTicks": 192,
          "midi": 71,
          "name": "B4",
          "ticks": 73200,
          "time": 223.268995,
          "velocity": 0.47244094488188976
        },
        {
          "duration": 1.1707312000000059,
          "durationTicks": 384,
          "midi": 69,
          "name": "A4",
          "ticks": 73440,
          "time": 223.98328049999998,
          "velocity": 0.47244094488188976
        },
        {
          "duration": 3,
          "durationTicks": 960,
          "midi": 69,
          "name": "A4",
          "ticks": 98640,
          "time": 302.81359399999997,
          "velocity": 0.47244094488188976
        },
        {
          "duration": 0.75,
          "durationTicks": 240,
          "midi": 68,
          "name": "G#4",
          "ticks": 99600,
          "time": 305.81359399999997,
          "velocity": 0.47244094488188976
        },
        {
          "duration": 0.75,
          "durationTicks": 240,
          "midi": 66,
          "name": "F#4",
          "ticks": 99840,
          "time": 306.56359399999997,
          "velocity": 0.47244094488188976
        },
        {
          "duration": 0.75,
          "durationTicks": 240,
          "midi": 65,
          "name": "F4",
          "ticks": 100080,
          "time": 307.31359399999997,
          "velocity": 0.47244094488188976
        },
        {
          "duration": 0.75,
          "durationTicks": 240,
          "midi": 66,
          "name": "F#4",
          "ticks": 100320,
          "time": 308.06359399999997,
          "velocity": 0.47244094488188976
        },
        {
          "duration": 0.75,
          "durationTicks": 240,
          "midi": 68,
          "name": "G#4",
          "ticks": 100560,
          "time": 308.81359399999997,
          "velocity": 0.47244094488188976
        },
        {
          "duration": 2.25,
          "durationTicks": 720,
          "midi": 61,
          "name": "C#4",
          "ticks": 100800,
          "time": 309.56359399999997,
          "velocity": 0.47244094488188976
        },
        {
          "duration": 3,
          "durationTicks": 960,
          "midi": 73,
          "name": "C#5",
          "ticks": 101520,
          "time": 311.81359399999997,
          "velocity": 0.47244094488188976
        },
        {
          "duration": 0.75,
          "durationTicks": 240,
          "midi": 71,
          "name": "B4",
          "ticks": 102480,
          "time": 314.81359399999997,
          "velocity": 0.47244094488188976
        },
        {
          "duration": 0.75,
          "durationTicks": 240,
          "midi": 69,
          "name": "A4",
          "ticks": 102720,
          "time": 315.56359399999997,
          "velocity": 0.47244094488188976
        },
        {
          "duration": 0.75,
          "durationTicks": 240,
          "midi": 68,
          "name": "G#4",
          "ticks": 102960,
          "time": 316.31359399999997,
          "velocity": 0.47244094488188976
        },
        {
          "duration": 0.75,
          "durationTicks": 240,
          "midi": 69,
          "name": "A4",
          "ticks": 103200,
          "time": 317.06359399999997,
          "velocity": 0.47244094488188976
        },
        {
          "duration": 0.75,
          "durationTicks": 240,
          "midi": 71,
          "name": "B4",
          "ticks": 103440,
          "time": 317.81359399999997,
          "velocity": 0.47244094488188976
        },
        {
          "duration": 1.8000000000000682,
          "durationTicks": 576,
          "midi": 65,
          "name": "F4",
          "ticks": 103680,
          "time": 318.56359399999997,
          "velocity": 0.47244094488188976
        },
        {
          "duration": 3,
          "durationTicks": 960,
          "midi": 81,
          "name": "A5",
          "ticks": 104400,
          "time": 320.81359399999997,
          "velocity": 0.7086614173228346
        },
        {
          "duration": 0.75,
          "durationTicks": 240,
          "midi": 80,
          "name": "G#5",
          "ticks": 105360,
          "time": 323.81359399999997,
          "velocity": 0.7086614173228346
        },
        {
          "duration": 0.75,
          "durationTicks": 240,
          "midi": 78,
          "name": "F#5",
          "ticks": 105600,
          "time": 324.56359399999997,
          "velocity": 0.7086614173228346
        },
        {
          "duration": 0.75,
          "durationTicks": 240,
          "midi": 77,
          "name": "F5",
          "ticks": 105840,
          "time": 325.31359399999997,
          "velocity": 0.7086614173228346
        },
        {
          "duration": 0.75,
          "durationTicks": 240,
          "midi": 78,
          "name": "F#5",
          "ticks": 106080,
          "time": 326.06359399999997,
          "velocity": 0.7086614173228346
        },
        {
          "duration": 0.75,
          "durationTicks": 240,
          "midi": 80,
          "name": "G#5",
          "ticks": 106320,
          "time": 326.81359399999997,
          "velocity": 0.7086614173228346
        },
        {
          "duration": 3,
          "durationTicks": 960,
          "midi": 73,
          "name": "C#5",
          "ticks": 106560,
          "time": 327.56359399999997,
          "velocity": 0.7086614173228346
        },
        {
          "duration": 2.25,
          "durationTicks": 720,
          "midi": 71,
          "name": "B4",
          "ticks": 107520,
          "time": 330.56359399999997,
          "velocity": 0.7086614173228346
        },
        {
          "duration": 0.6000000000000227,
          "durationTicks": 192,
          "midi": 73,
          "name": "C#5",
          "ticks": 108240,
          "time": 332.81359399999997,
          "velocity": 0.7086614173228346
        },
        {
          "duration": 1.5,
          "durationTicks": 480,
          "midi": 69,
          "name": "A4",
          "ticks": 108480,
          "time": 333.56359399999997,
          "velocity": 0.7086614173228346
        },
        {
          "duration": 0.4500000000000455,
          "durationTicks": 144,
          "midi": 71,
          "name": "B4",
          "ticks": 108960,
          "time": 335.06359399999997,
          "velocity": 0.7086614173228346
        },
        {
          "duration": 0.375,
          "durationTicks": 120,
          "midi": 68,
          "name": "G#4",
          "ticks": 109200,
          "time": 335.81359399999997,
          "velocity": 0.6299212598425197
        },
        {
          "duration": 1.4250000000000682,
          "durationTicks": 456,
          "midi": 66,
          "name": "F#4",
          "ticks": 109440,
          "time": 336.56359399999997,
          "velocity": 0.5511811023622047
        },
        {
          "duration": 2.25,
          "durationTicks": 720,
          "midi": 73,
          "name": "C#5",
          "ticks": 110880,
          "time": 341.06359399999997,
          "velocity": 0.47244094488188976
        },
        {
          "duration": 3,
          "durationTicks": 960,
          "midi": 71,
          "name": "B4",
          "ticks": 111600,
          "time": 343.31359399999997,
          "velocity": 0.47244094488188976
        },
        {
          "duration": 0.75,
          "durationTicks": 240,
          "midi": 69,
          "name": "A4",
          "ticks": 112560,
          "time": 346.31359399999997,
          "velocity": 0.47244094488188976
        },
        {
          "duration": 0.75,
          "durationTicks": 240,
          "midi": 68,
          "name": "G#4",
          "ticks": 112800,
          "time": 347.06359399999997,
          "velocity": 0.47244094488188976
        },
        {
          "duration": 0.75,
          "durationTicks": 240,
          "midi": 66,
          "name": "F#4",
          "ticks": 113040,
          "time": 347.81359399999997,
          "velocity": 0.47244094488188976
        },
        {
          "duration": 0.75,
          "durationTicks": 240,
          "midi": 68,
          "name": "G#4",
          "ticks": 113280,
          "time": 348.56359399999997,
          "velocity": 0.47244094488188976
        },
        {
          "duration": 0.75,
          "durationTicks": 240,
          "midi": 69,
          "name": "A4",
          "ticks": 113520,
          "time": 349.31359399999997,
          "velocity": 0.47244094488188976
        },
        {
          "duration": 2.25,
          "durationTicks": 720,
          "midi": 62,
          "name": "D4",
          "ticks": 113760,
          "time": 350.06359399999997,
          "velocity": 0.47244094488188976
        },
        {
          "duration": 2.25,
          "durationTicks": 720,
          "midi": 74,
          "name": "D5",
          "ticks": 114480,
          "time": 352.31359399999997,
          "velocity": 0.47244094488188976
        },
        {
          "duration": 1.2000000000000455,
          "durationTicks": 384,
          "midi": 68,
          "name": "G#4",
          "ticks": 115200,
          "time": 354.56359399999997,
          "velocity": 0.47244094488188976
        },
        {
          "duration": 0.23214278750003814,
          "durationTicks": 78,
          "midi": 66,
          "name": "F#4",
          "ticks": 121080,
          "time": 372.92073674999995,
          "velocity": 0.47244094488188976
        },
        {
          "duration": 0.2321427874999813,
          "durationTicks": 78,
          "midi": 69,
          "name": "A4",
          "ticks": 121320,
          "time": 373.63502224999996,
          "velocity": 0.47244094488188976
        },
        {
          "duration": 0.2321427874999813,
          "durationTicks": 78,
          "midi": 73,
          "name": "C#5",
          "ticks": 121560,
          "time": 374.34930775,
          "velocity": 0.47244094488188976
        },
        {
          "duration": 0.23214278750003814,
          "durationTicks": 78,
          "midi": 69,
          "name": "A4",
          "ticks": 121800,
          "time": 375.06359324999994,
          "velocity": 0.47244094488188976
        },
        {
          "duration": 0.23214278750003814,
          "durationTicks": 78,
          "midi": 66,
          "name": "F#4",
          "ticks": 122040,
          "time": 375.77787874999996,
          "velocity": 0.47244094488188976
        },
        {
          "duration": 0.2321427874999813,
          "durationTicks": 78,
          "midi": 61,
          "name": "C#4",
          "ticks": 122280,
          "time": 376.49216425,
          "velocity": 0.47244094488188976
        },
        {
          "duration": 0.2321427874999813,
          "durationTicks": 78,
          "midi": 62,
          "name": "D4",
          "ticks": 122520,
          "time": 377.20644975,
          "velocity": 0.47244094488188976
        },
        {
          "duration": 0.23214278750003814,
          "durationTicks": 78,
          "midi": 66,
          "name": "F#4",
          "ticks": 122760,
          "time": 377.92073524999995,
          "velocity": 0.47244094488188976
        },
        {
          "duration": 0.2321427874999813,
          "durationTicks": 78,
          "midi": 69,
          "name": "A4",
          "ticks": 123000,
          "time": 378.63502074999997,
          "velocity": 0.47244094488188976
        },
        {
          "duration": 0.2321427874999813,
          "durationTicks": 78,
          "midi": 66,
          "name": "F#4",
          "ticks": 123240,
          "time": 379.34930625,
          "velocity": 0.47244094488188976
        },
        {
          "duration": 0.23214278750003814,
          "durationTicks": 78,
          "midi": 62,
          "name": "D4",
          "ticks": 123480,
          "time": 380.06359174999994,
          "velocity": 0.47244094488188976
        },
        {
          "duration": 0.2321427874999813,
          "durationTicks": 78,
          "midi": 57,
          "name": "A3",
          "ticks": 123720,
          "time": 380.77787724999996,
          "velocity": 0.47244094488188976
        },
        {
          "duration": 0.2321427874999813,
          "durationTicks": 78,
          "midi": 59,
          "name": "B3",
          "ticks": 123960,
          "time": 381.49216275,
          "velocity": 0.47244094488188976
        },
        {
          "duration": 0.2321427874999813,
          "durationTicks": 78,
          "midi": 62,
          "name": "D4",
          "ticks": 124200,
          "time": 382.20644825,
          "velocity": 0.47244094488188976
        },
        {
          "duration": 0.23214278750003814,
          "durationTicks": 78,
          "midi": 61,
          "name": "C#4",
          "ticks": 124440,
          "time": 382.92073374999995,
          "velocity": 0.47244094488188976
        },
        {
          "duration": 0.2321427874999813,
          "durationTicks": 78,
          "midi": 59,
          "name": "B3",
          "ticks": 124680,
          "time": 383.63501924999997,
          "velocity": 0.47244094488188976
        },
        {
          "duration": 0.2321427874999813,
          "durationTicks": 78,
          "midi": 57,
          "name": "A3",
          "ticks": 124920,
          "time": 384.34930475,
          "velocity": 0.47244094488188976
        },
        {
          "duration": 0.23214278750003814,
          "durationTicks": 78,
          "midi": 56,
          "name": "G#3",
          "ticks": 125160,
          "time": 385.06359024999995,
          "velocity": 0.47244094488188976
        },
        {
          "duration": 0.2321427874999813,
          "durationTicks": 78,
          "midi": 61,
          "name": "C#4",
          "ticks": 125400,
          "time": 385.77787574999996,
          "velocity": 0.47244094488188976
        },
        {
          "duration": 0.2321427874999813,
          "durationTicks": 78,
          "midi": 66,
          "name": "F#4",
          "ticks": 125640,
          "time": 386.49216125,
          "velocity": 0.47244094488188976
        },
        {
          "duration": 0.23214278750003814,
          "durationTicks": 78,
          "midi": 69,
          "name": "A4",
          "ticks": 125880,
          "time": 387.20644674999994,
          "velocity": 0.47244094488188976
        },
        {
          "duration": 0.2321427874999813,
          "durationTicks": 78,
          "midi": 61,
          "name": "C#4",
          "ticks": 126120,
          "time": 387.92073224999996,
          "velocity": 0.47244094488188976
        },
        {
          "duration": 0.2321427874999813,
          "durationTicks": 78,
          "midi": 65,
          "name": "F4",
          "ticks": 126360,
          "time": 388.63501775,
          "velocity": 0.47244094488188976
        },
        {
          "duration": 0.2321427874999813,
          "durationTicks": 78,
          "midi": 68,
          "name": "G#4",
          "ticks": 126600,
          "time": 389.34930325,
          "velocity": 0.47244094488188976
        },
        {
          "duration": 0.23214278750003814,
          "durationTicks": 78,
          "midi": 66,
          "name": "F#4",
          "ticks": 126840,
          "time": 390.06358874999995,
          "velocity": 0.47244094488188976
        },
        {
          "duration": 0.2321427874999813,
          "durationTicks": 78,
          "midi": 69,
          "name": "A4",
          "ticks": 127080,
          "time": 390.77787424999997,
          "velocity": 0.47244094488188976
        },
        {
          "duration": 0.2321427874999813,
          "durationTicks": 78,
          "midi": 73,
          "name": "C#5",
          "ticks": 127320,
          "time": 391.49215975,
          "velocity": 0.47244094488188976
        },
        {
          "duration": 0.23214278750003814,
          "durationTicks": 78,
          "midi": 69,
          "name": "A4",
          "ticks": 127560,
          "time": 392.20644524999994,
          "velocity": 0.47244094488188976
        },
        {
          "duration": 0.2321427874999813,
          "durationTicks": 78,
          "midi": 66,
          "name": "F#4",
          "ticks": 127800,
          "time": 392.92073074999996,
          "velocity": 0.47244094488188976
        },
        {
          "duration": 0.2321427874999813,
          "durationTicks": 78,
          "midi": 61,
          "name": "C#4",
          "ticks": 128040,
          "time": 393.63501625,
          "velocity": 0.47244094488188976
        },
        {
          "duration": 0.2321427874999813,
          "durationTicks": 78,
          "midi": 62,
          "name": "D4",
          "ticks": 128280,
          "time": 394.34930175,
          "velocity": 0.47244094488188976
        },
        {
          "duration": 0.23214278750003814,
          "durationTicks": 78,
          "midi": 66,
          "name": "F#4",
          "ticks": 128520,
          "time": 395.06358724999996,
          "velocity": 0.47244094488188976
        },
        {
          "duration": 0.2321427874999813,
          "durationTicks": 78,
          "midi": 69,
          "name": "A4",
          "ticks": 128760,
          "time": 395.77787275,
          "velocity": 0.47244094488188976
        },
        {
          "duration": 0.2321427874999813,
          "durationTicks": 78,
          "midi": 66,
          "name": "F#4",
          "ticks": 129000,
          "time": 396.49215825,
          "velocity": 0.47244094488188976
        },
        {
          "duration": 0.23214278750003814,
          "durationTicks": 78,
          "midi": 62,
          "name": "D4",
          "ticks": 129240,
          "time": 397.20644374999995,
          "velocity": 0.47244094488188976
        },
        {
          "duration": 0.2321427874999813,
          "durationTicks": 78,
          "midi": 57,
          "name": "A3",
          "ticks": 129480,
          "time": 397.92072924999997,
          "velocity": 0.47244094488188976
        },
        {
          "duration": 0.2321427874999813,
          "durationTicks": 78,
          "midi": 59,
          "name": "B3",
          "ticks": 129720,
          "time": 398.63501475,
          "velocity": 0.47244094488188976
        },
        {
          "duration": 0.23214278750003814,
          "durationTicks": 78,
          "midi": 62,
          "name": "D4",
          "ticks": 129960,
          "time": 399.34930024999994,
          "velocity": 0.47244094488188976
        },
        {
          "duration": 0.2321427874999813,
          "durationTicks": 78,
          "midi": 67,
          "name": "G4",
          "ticks": 130200,
          "time": 400.06358574999996,
          "velocity": 0.47244094488188976
        },
        {
          "duration": 0.2321427874999813,
          "durationTicks": 78,
          "midi": 71,
          "name": "B4",
          "ticks": 130440,
          "time": 400.77787125,
          "velocity": 0.47244094488188976
        },
        {
          "duration": 0.2321427874999813,
          "durationTicks": 78,
          "midi": 67,
          "name": "G4",
          "ticks": 130680,
          "time": 401.49215675,
          "velocity": 0.47244094488188976
        },
        {
          "duration": 0.23214278750003814,
          "durationTicks": 78,
          "midi": 59,
          "name": "B3",
          "ticks": 130920,
          "time": 402.20644224999995,
          "velocity": 0.47244094488188976
        },
        {
          "duration": 0.2321427874999813,
          "durationTicks": 78,
          "midi": 61,
          "name": "C#4",
          "ticks": 131160,
          "time": 402.92072774999997,
          "velocity": 0.47244094488188976
        },
        {
          "duration": 0.2321427874999813,
          "durationTicks": 78,
          "midi": 66,
          "name": "F#4",
          "ticks": 131400,
          "time": 403.63501325,
          "velocity": 0.47244094488188976
        },
        {
          "duration": 0.23214278750003814,
          "durationTicks": 78,
          "midi": 69,
          "name": "A4",
          "ticks": 131640,
          "time": 404.34929874999995,
          "velocity": 0.47244094488188976
        },
        {
          "duration": 0.23214278750003814,
          "durationTicks": 78,
          "midi": 61,
          "name": "C#4",
          "ticks": 131880,
          "time": 405.06358424999996,
          "velocity": 0.47244094488188976
        },
        {
          "duration": 0.2321427874999813,
          "durationTicks": 78,
          "midi": 65,
          "name": "F4",
          "ticks": 132120,
          "time": 405.77786975,
          "velocity": 0.47244094488188976
        },
        {
          "duration": 0.2321427874999813,
          "durationTicks": 78,
          "midi": 68,
          "name": "G#4",
          "ticks": 132360,
          "time": 406.49215525,
          "velocity": 0.47244094488188976
        },
        {
          "duration": 0.3658534999999574,
          "durationTicks": 120,
          "midi": 57,
          "name": "A3",
          "ticks": 132600,
          "time": 407.2151515,
          "velocity": 0.47244094488188976
        },
        {
          "duration": 0.36585350000001426,
          "durationTicks": 120,
          "midi": 61,
          "name": "C#4",
          "ticks": 132720,
          "time": 407.58100499999995,
          "velocity": 0.47244094488188976
        },
        {
          "duration": 0.36585350000001426,
          "durationTicks": 120,
          "midi": 66,
          "name": "F#4",
          "ticks": 132840,
          "time": 407.94685849999996,
          "velocity": 0.47244094488188976
        },
        {
          "duration": 0.36585350000001426,
          "durationTicks": 120,
          "midi": 61,
          "name": "C#4",
          "ticks": 132960,
          "time": 408.312712,
          "velocity": 0.47244094488188976
        },
        {
          "duration": 0.3658534999999574,
          "durationTicks": 120,
          "midi": 57,
          "name": "A3",
          "ticks": 133080,
          "time": 408.6785655,
          "velocity": 0.47244094488188976
        },
        {
          "duration": 0.36585350000001426,
          "durationTicks": 120,
          "midi": 61,
          "name": "C#4",
          "ticks": 133320,
          "time": 409.41027249999996,
          "velocity": 0.47244094488188976
        },
        {
          "duration": 0.36585350000001426,
          "durationTicks": 120,
          "midi": 66,
          "name": "F#4",
          "ticks": 133440,
          "time": 409.776126,
          "velocity": 0.47244094488188976
        },
        {
          "duration": 0.3658534999999574,
          "durationTicks": 120,
          "midi": 69,
          "name": "A4",
          "ticks": 133560,
          "time": 410.1419795,
          "velocity": 0.47244094488188976
        },
        {
          "duration": 0.36585350000001426,
          "durationTicks": 120,
          "midi": 66,
          "name": "F#4",
          "ticks": 133680,
          "time": 410.50783299999995,
          "velocity": 0.47244094488188976
        },
        {
          "duration": 0.36585350000001426,
          "durationTicks": 120,
          "midi": 61,
          "name": "C#4",
          "ticks": 133800,
          "time": 410.87368649999996,
          "velocity": 0.47244094488188976
        },
        {
          "duration": 0.3658534999999574,
          "durationTicks": 120,
          "midi": 62,
          "name": "D4",
          "ticks": 134040,
          "time": 411.6053935,
          "velocity": 0.47244094488188976
        },
        {
          "duration": 0.36585350000001426,
          "durationTicks": 120,
          "midi": 66,
          "name": "F#4",
          "ticks": 134160,
          "time": 411.97124699999995,
          "velocity": 0.47244094488188976
        },
        {
          "duration": 0.36585350000001426,
          "durationTicks": 120,
          "midi": 68,
          "name": "G#4",
          "ticks": 134280,
          "time": 412.33710049999996,
          "velocity": 0.47244094488188976
        },
        {
          "duration": 0.36585350000001426,
          "durationTicks": 120,
          "midi": 66,
          "name": "F#4",
          "ticks": 134400,
          "time": 412.702954,
          "velocity": 0.47244094488188976
        },
        {
          "duration": 0.3658534999999574,
          "durationTicks": 120,
          "midi": 62,
          "name": "D4",
          "ticks": 134520,
          "time": 413.0688075,
          "velocity": 0.47244094488188976
        },
        {
          "duration": 0.36585350000001426,
          "durationTicks": 120,
          "midi": 61,
          "name": "C#4",
          "ticks": 134760,
          "time": 413.80051449999996,
          "velocity": 0.47244094488188976
        },
        {
          "duration": 0.36585350000001426,
          "durationTicks": 120,
          "midi": 65,
          "name": "F4",
          "ticks": 134880,
          "time": 414.166368,
          "velocity": 0.47244094488188976
        },
        {
          "duration": 0.3658534999999574,
          "durationTicks": 120,
          "midi": 68,
          "name": "G#4",
          "ticks": 135000,
          "time": 414.5322215,
          "velocity": 0.47244094488188976
        },
        {
          "duration": 0.36585350000001426,
          "durationTicks": 120,
          "midi": 65,
          "name": "F4",
          "ticks": 135120,
          "time": 414.89807499999995,
          "velocity": 0.47244094488188976
        },
        {
          "duration": 0.36585350000001426,
          "durationTicks": 120,
          "midi": 61,
          "name": "C#4",
          "ticks": 135240,
          "time": 415.26392849999996,
          "velocity": 0.47244094488188976
        },
        {
          "duration": 0.3658534999999574,
          "durationTicks": 120,
          "midi": 61,
          "name": "C#4",
          "ticks": 135480,
          "time": 415.9956355,
          "velocity": 0.47244094488188976
        },
        {
          "duration": 0.36585350000001426,
          "durationTicks": 120,
          "midi": 66,
          "name": "F#4",
          "ticks": 135600,
          "time": 416.36148899999995,
          "velocity": 0.47244094488188976
        },
        {
          "duration": 0.36585350000001426,
          "durationTicks": 120,
          "midi": 69,
          "name": "A4",
          "ticks": 135720,
          "time": 416.72734249999996,
          "velocity": 0.47244094488188976
        },
        {
          "duration": 0.36585350000001426,
          "durationTicks": 120,
          "midi": 66,
          "name": "F#4",
          "ticks": 135840,
          "time": 417.093196,
          "velocity": 0.47244094488188976
        },
        {
          "duration": 0.3658534999999574,
          "durationTicks": 120,
          "midi": 61,
          "name": "C#4",
          "ticks": 135960,
          "time": 417.4590495,
          "velocity": 0.47244094488188976
        },
        {
          "duration": 0.36585350000001426,
          "durationTicks": 120,
          "midi": 62,
          "name": "D4",
          "ticks": 136200,
          "time": 418.19075649999996,
          "velocity": 0.47244094488188976
        },
        {
          "duration": 0.36585350000001426,
          "durationTicks": 120,
          "midi": 66,
          "name": "F#4",
          "ticks": 136320,
          "time": 418.55661,
          "velocity": 0.47244094488188976
        },
        {
          "duration": 0.3658534999999574,
          "durationTicks": 120,
          "midi": 69,
          "name": "A4",
          "ticks": 136440,
          "time": 418.9224635,
          "velocity": 0.47244094488188976
        },
        {
          "duration": 0.36585350000001426,
          "durationTicks": 120,
          "midi": 66,
          "name": "F#4",
          "ticks": 136560,
          "time": 419.28831699999995,
          "velocity": 0.47244094488188976
        },
        {
          "duration": 0.36585350000001426,
          "durationTicks": 120,
          "midi": 62,
          "name": "D4",
          "ticks": 136680,
          "time": 419.65417049999996,
          "velocity": 0.47244094488188976
        },
        {
          "duration": 0.3658534999999574,
          "durationTicks": 120,
          "midi": 62,
          "name": "D4",
          "ticks": 136920,
          "time": 420.3858775,
          "velocity": 0.47244094488188976
        },
        {
          "duration": 0.36585350000001426,
          "durationTicks": 120,
          "midi": 66,
          "name": "F#4",
          "ticks": 137040,
          "time": 420.75173099999995,
          "velocity": 0.47244094488188976
        },
        {
          "duration": 0.36585350000001426,
          "durationTicks": 120,
          "midi": 68,
          "name": "G#4",
          "ticks": 137160,
          "time": 421.11758449999996,
          "velocity": 0.47244094488188976
        },
        {
          "duration": 0.36585350000001426,
          "durationTicks": 120,
          "midi": 66,
          "name": "F#4",
          "ticks": 137280,
          "time": 421.483438,
          "velocity": 0.47244094488188976
        },
        {
          "duration": 0.3658534999999574,
          "durationTicks": 120,
          "midi": 62,
          "name": "D4",
          "ticks": 137400,
          "time": 421.8492915,
          "velocity": 0.47244094488188976
        },
        {
          "duration": 0.36585350000001426,
          "durationTicks": 120,
          "midi": 61,
          "name": "C#4",
          "ticks": 137640,
          "time": 422.58099849999996,
          "velocity": 0.47244094488188976
        },
        {
          "duration": 0.36585350000001426,
          "durationTicks": 120,
          "midi": 65,
          "name": "F4",
          "ticks": 137760,
          "time": 422.946852,
          "velocity": 0.47244094488188976
        },
        {
          "duration": 0.3658534999999574,
          "durationTicks": 120,
          "midi": 68,
          "name": "G#4",
          "ticks": 137880,
          "time": 423.3127055,
          "velocity": 0.47244094488188976
        },
        {
          "duration": 0.36585350000001426,
          "durationTicks": 120,
          "midi": 65,
          "name": "F4",
          "ticks": 138000,
          "time": 423.67855899999995,
          "velocity": 0.47244094488188976
        },
        {
          "duration": 0.36585350000001426,
          "durationTicks": 120,
          "midi": 61,
          "name": "C#4",
          "ticks": 138120,
          "time": 424.04441249999996,
          "velocity": 0.47244094488188976
        },
        {
          "duration": 0.3658534999999574,
          "durationTicks": 120,
          "midi": 61,
          "name": "C#4",
          "ticks": 138360,
          "time": 424.7761195,
          "velocity": 0.47244094488188976
        },
        {
          "duration": 0.36585350000001426,
          "durationTicks": 120,
          "midi": 66,
          "name": "F#4",
          "ticks": 138480,
          "time": 425.14197299999995,
          "velocity": 0.47244094488188976
        },
        {
          "duration": 0.36585350000001426,
          "durationTicks": 120,
          "midi": 69,
          "name": "A4",
          "ticks": 138600,
          "time": 425.50782649999996,
          "velocity": 0.47244094488188976
        },
        {
          "duration": 0.36585350000001426,
          "durationTicks": 120,
          "midi": 66,
          "name": "F#4",
          "ticks": 138720,
          "time": 425.87368,
          "velocity": 0.47244094488188976
        },
        {
          "duration": 0.3658534999999574,
          "durationTicks": 120,
          "midi": 61,
          "name": "C#4",
          "ticks": 138840,
          "time": 426.2395335,
          "velocity": 0.47244094488188976
        },
        {
          "duration": 0.36585350000001426,
          "durationTicks": 120,
          "midi": 63,
          "name": "D#4",
          "ticks": 139080,
          "time": 426.97124049999996,
          "velocity": 0.47244094488188976
        },
        {
          "duration": 0.36585350000001426,
          "durationTicks": 120,
          "midi": 66,
          "name": "F#4",
          "ticks": 139200,
          "time": 427.337094,
          "velocity": 0.47244094488188976
        },
        {
          "duration": 0.3658534999999574,
          "durationTicks": 120,
          "midi": 69,
          "name": "A4",
          "ticks": 139320,
          "time": 427.7029475,
          "velocity": 0.47244094488188976
        },
        {
          "duration": 0.36585350000001426,
          "durationTicks": 120,
          "midi": 66,
          "name": "F#4",
          "ticks": 139440,
          "time": 428.06880099999995,
          "velocity": 0.47244094488188976
        },
        {
          "duration": 0.36585350000001426,
          "durationTicks": 120,
          "midi": 63,
          "name": "D#4",
          "ticks": 139560,
          "time": 428.43465449999997,
          "velocity": 0.47244094488188976
        },
        {
          "duration": 0.375,
          "durationTicks": 120,
          "midi": 61,
          "name": "C#4",
          "ticks": 139800,
          "time": 429.175508,
          "velocity": 0.47244094488188976
        },
        {
          "duration": 0.375,
          "durationTicks": 120,
          "midi": 66,
          "name": "F#4",
          "ticks": 139920,
          "time": 429.550508,
          "velocity": 0.47244094488188976
        },
        {
          "duration": 0.375,
          "durationTicks": 120,
          "midi": 69,
          "name": "A4",
          "ticks": 140040,
          "time": 429.925508,
          "velocity": 0.47244094488188976
        },
        {
          "duration": 0.375,
          "durationTicks": 120,
          "midi": 66,
          "name": "F#4",
          "ticks": 140160,
          "time": 430.300508,
          "velocity": 0.47244094488188976
        },
        {
          "duration": 0.375,
          "durationTicks": 120,
          "midi": 61,
          "name": "C#4",
          "ticks": 140280,
          "time": 430.675508,
          "velocity": 0.47244094488188976
        },
        {
          "duration": 0.38461524999996755,
          "durationTicks": 120,
          "midi": 61,
          "name": "C#4",
          "ticks": 140520,
          "time": 431.4338412166667,
          "velocity": 0.47244094488188976
        },
        {
          "duration": 0.3933872166666674,
          "durationTicks": 120,
          "midi": 65,
          "name": "F4",
          "ticks": 140640,
          "time": 431.81845646666665,
          "velocity": 0.47244094488188976
        },
        {
          "duration": 0.39473674999999275,
          "durationTicks": 120,
          "midi": 68,
          "name": "G#4",
          "ticks": 140760,
          "time": 432.2118436833333,
          "velocity": 0.47244094488188976
        },
        {
          "duration": 0.413742533333334,
          "durationTicks": 120,
          "midi": 65,
          "name": "F4",
          "ticks": 140880,
          "time": 432.6065804333333,
          "velocity": 0.47244094488188976
        },
        {
          "duration": 0.41666650000001937,
          "durationTicks": 120,
          "midi": 61,
          "name": "C#4",
          "ticks": 141000,
          "time": 433.02032296666664,
          "velocity": 0.47244094488188976
        },
        {
          "duration": 0.6096093749999341,
          "durationTicks": 180,
          "midi": 61,
          "name": "C#4",
          "ticks": 141120,
          "time": 433.43698946666666,
          "velocity": 0.4094488188976378
        },
        {
          "duration": 0.6081078749999733,
          "durationTicks": 180,
          "midi": 73,
          "name": "C#5",
          "ticks": 141840,
          "time": 435.8709224666666,
          "velocity": 0.3858267716535433
        },
        {
          "duration": 0.6818178749999788,
          "durationTicks": 180,
          "midi": 78,
          "name": "F#5",
          "ticks": 142560,
          "time": 438.3558635666666,
          "velocity": 0.3700787401574803
        }
      ],
      "endOfTrackTicks": 142740
    },
    {
      "channel": 11,
      "controlChanges": {
        "7": [
          {
            "number": 7,
            "ticks": 0,
            "time": 0,
            "value": 0.7952755905511811
          }
        ],
        "10": [
          {
            "number": 10,
            "ticks": 0,
            "time": 0,
            "value": 0.31496062992125984
          }
        ],
        "91": [
          {
            "number": 91,
            "ticks": 0,
            "time": 0,
            "value": 0.6299212598425197
          }
        ]
      },
      "pitchBends": [],
      "instrument": {
        "family": "ensemble",
        "number": 48,
        "name": "string ensemble 1"
      },
      "name": "",
      "notes": [
        {
          "duration": 0.375,
          "durationTicks": 120,
          "midi": 57,
          "name": "A3",
          "ticks": 17400,
          "time": 52.125,
          "velocity": 0.47244094488188976
        },
        {
          "duration": 0.375,
          "durationTicks": 120,
          "midi": 61,
          "name": "C#4",
          "ticks": 17520,
          "time": 52.5,
          "velocity": 0.47244094488188976
        },
        {
          "duration": 0.375,
          "durationTicks": 120,
          "midi": 66,
          "name": "F#4",
          "ticks": 17640,
          "time": 52.875,
          "velocity": 0.47244094488188976
        },
        {
          "duration": 0.375,
          "durationTicks": 120,
          "midi": 61,
          "name": "C#4",
          "ticks": 17760,
          "time": 53.25,
          "velocity": 0.47244094488188976
        },
        {
          "duration": 0.375,
          "durationTicks": 120,
          "midi": 57,
          "name": "A3",
          "ticks": 17880,
          "time": 53.625,
          "velocity": 0.47244094488188976
        },
        {
          "duration": 0.375,
          "durationTicks": 120,
          "midi": 57,
          "name": "A3",
          "ticks": 18120,
          "time": 54.375,
          "velocity": 0.47244094488188976
        },
        {
          "duration": 0.375,
          "durationTicks": 120,
          "midi": 61,
          "name": "C#4",
          "ticks": 18240,
          "time": 54.75,
          "velocity": 0.47244094488188976
        },
        {
          "duration": 0.375,
          "durationTicks": 120,
          "midi": 66,
          "name": "F#4",
          "ticks": 18360,
          "time": 55.125,
          "velocity": 0.47244094488188976
        },
        {
          "duration": 0.375,
          "durationTicks": 120,
          "midi": 61,
          "name": "C#4",
          "ticks": 18480,
          "time": 55.5,
          "velocity": 0.47244094488188976
        },
        {
          "duration": 0.375,
          "durationTicks": 120,
          "midi": 57,
          "name": "A3",
          "ticks": 18600,
          "time": 55.875,
          "velocity": 0.47244094488188976
        },
        {
          "duration": 0.375,
          "durationTicks": 120,
          "midi": 57,
          "name": "A3",
          "ticks": 18840,
          "time": 56.625,
          "velocity": 0.47244094488188976
        },
        {
          "duration": 0.375,
          "durationTicks": 120,
          "midi": 61,
          "name": "C#4",
          "ticks": 18960,
          "time": 57,
          "velocity": 0.47244094488188976
        },
        {
          "duration": 0.375,
          "durationTicks": 120,
          "midi": 66,
          "name": "F#4",
          "ticks": 19080,
          "time": 57.375,
          "velocity": 0.47244094488188976
        },
        {
          "duration": 0.375,
          "durationTicks": 120,
          "midi": 61,
          "name": "C#4",
          "ticks": 19200,
          "time": 57.75,
          "velocity": 0.47244094488188976
        },
        {
          "duration": 0.375,
          "durationTicks": 120,
          "midi": 57,
          "name": "A3",
          "ticks": 19320,
          "time": 58.125,
          "velocity": 0.47244094488188976
        },
        {
          "duration": 0.375,
          "durationTicks": 120,
          "midi": 59,
          "name": "B3",
          "ticks": 19560,
          "time": 58.875,
          "velocity": 0.47244094488188976
        },
        {
          "duration": 0.375,
          "durationTicks": 120,
          "midi": 61,
          "name": "C#4",
          "ticks": 19680,
          "time": 59.25,
          "velocity": 0.47244094488188976
        },
        {
          "duration": 0.375,
          "durationTicks": 120,
          "midi": 65,
          "name": "F4",
          "ticks": 19800,
          "time": 59.625,
          "velocity": 0.47244094488188976
        },
        {
          "duration": 0.375,
          "durationTicks": 120,
          "midi": 61,
          "name": "C#4",
          "ticks": 19920,
          "time": 60,
          "velocity": 0.47244094488188976
        },
        {
          "duration": 0.375,
          "durationTicks": 120,
          "midi": 59,
          "name": "B3",
          "ticks": 20040,
          "time": 60.375,
          "velocity": 0.47244094488188976
        },
        {
          "duration": 0.375,
          "durationTicks": 120,
          "midi": 59,
          "name": "B3",
          "ticks": 20280,
          "time": 61.125,
          "velocity": 0.47244094488188976
        },
        {
          "duration": 0.375,
          "durationTicks": 120,
          "midi": 61,
          "name": "C#4",
          "ticks": 20400,
          "time": 61.5,
          "velocity": 0.47244094488188976
        },
        {
          "duration": 0.375,
          "durationTicks": 120,
          "midi": 65,
          "name": "F4",
          "ticks": 20520,
          "time": 61.875,
          "velocity": 0.47244094488188976
        },
        {
          "duration": 0.375,
          "durationTicks": 120,
          "midi": 61,
          "name": "C#4",
          "ticks": 20640,
          "time": 62.25,
          "velocity": 0.47244094488188976
        },
        {
          "duration": 0.375,
          "durationTicks": 120,
          "midi": 59,
          "name": "B3",
          "ticks": 20760,
          "time": 62.625,
          "velocity": 0.47244094488188976
        },
        {
          "duration": 0.375,
          "durationTicks": 120,
          "midi": 57,
          "name": "A3",
          "ticks": 21000,
          "time": 63.375,
          "velocity": 0.47244094488188976
        },
        {
          "duration": 0.375,
          "durationTicks": 120,
          "midi": 61,
          "name": "C#4",
          "ticks": 21120,
          "time": 63.75,
          "velocity": 0.47244094488188976
        },
        {
          "duration": 0.375,
          "durationTicks": 120,
          "midi": 66,
          "name": "F#4",
          "ticks": 21240,
          "time": 64.125,
          "velocity": 0.47244094488188976
        },
        {
          "duration": 0.375,
          "durationTicks": 120,
          "midi": 61,
          "name": "C#4",
          "ticks": 21360,
          "time": 64.5,
          "velocity": 0.47244094488188976
        },
        {
          "duration": 0.375,
          "durationTicks": 120,
          "midi": 57,
          "name": "A3",
          "ticks": 21480,
          "time": 64.875,
          "velocity": 0.47244094488188976
        },
        {
          "duration": 0.375,
          "durationTicks": 120,
          "midi": 62,
          "name": "D4",
          "ticks": 21720,
          "time": 65.625,
          "velocity": 0.47244094488188976
        },
        {
          "duration": 0.375,
          "durationTicks": 120,
          "midi": 66,
          "name": "F#4",
          "ticks": 21840,
          "time": 66,
          "velocity": 0.47244094488188976
        },
        {
          "duration": 0.375,
          "durationTicks": 120,
          "midi": 71,
          "name": "B4",
          "ticks": 21960,
          "time": 66.375,
          "velocity": 0.47244094488188976
        },
        {
          "duration": 0.375,
          "durationTicks": 120,
          "midi": 66,
          "name": "F#4",
          "ticks": 22080,
          "time": 66.75,
          "velocity": 0.47244094488188976
        },
        {
          "duration": 0.375,
          "durationTicks": 120,
          "midi": 62,
          "name": "D4",
          "ticks": 22200,
          "time": 67.125,
          "velocity": 0.47244094488188976
        },
        {
          "duration": 0.375,
          "durationTicks": 120,
          "midi": 59,
          "name": "B3",
          "ticks": 22440,
          "time": 67.875,
          "velocity": 0.47244094488188976
        },
        {
          "duration": 0.375,
          "durationTicks": 120,
          "midi": 62,
          "name": "D4",
          "ticks": 22560,
          "time": 68.25,
          "velocity": 0.47244094488188976
        },
        {
          "duration": 0.375,
          "durationTicks": 120,
          "midi": 66,
          "name": "F#4",
          "ticks": 22680,
          "time": 68.625,
          "velocity": 0.47244094488188976
        },
        {
          "duration": 0.375,
          "durationTicks": 120,
          "midi": 62,
          "name": "D4",
          "ticks": 22800,
          "time": 69,
          "velocity": 0.47244094488188976
        },
        {
          "duration": 0.375,
          "durationTicks": 120,
          "midi": 59,
          "name": "B3",
          "ticks": 22920,
          "time": 69.375,
          "velocity": 0.47244094488188976
        },
        {
          "duration": 0.375,
          "durationTicks": 120,
          "midi": 59,
          "name": "B3",
          "ticks": 23160,
          "time": 70.125,
          "velocity": 0.47244094488188976
        },
        {
          "duration": 0.375,
          "durationTicks": 120,
          "midi": 61,
          "name": "C#4",
          "ticks": 23280,
          "time": 70.5,
          "velocity": 0.47244094488188976
        },
        {
          "duration": 0.375,
          "durationTicks": 120,
          "midi": 68,
          "name": "G#4",
          "ticks": 23400,
          "time": 70.875,
          "velocity": 0.47244094488188976
        },
        {
          "duration": 0.375,
          "durationTicks": 120,
          "midi": 61,
          "name": "C#4",
          "ticks": 23520,
          "time": 71.25,
          "velocity": 0.47244094488188976
        },
        {
          "duration": 0.375,
          "durationTicks": 120,
          "midi": 59,
          "name": "B3",
          "ticks": 23640,
          "time": 71.625,
          "velocity": 0.47244094488188976
        },
        {
          "duration": 0.30000000000001137,
          "durationTicks": 96,
          "midi": 57,
          "name": "A3",
          "ticks": 23880,
          "time": 72.375,
          "velocity": 0.6299212598425197
        },
        {
          "duration": 0.30000000000001137,
          "durationTicks": 96,
          "midi": 61,
          "name": "C#4",
          "ticks": 24000,
          "time": 72.75,
          "velocity": 0.6299212598425197
        },
        {
          "duration": 0.30000000000001137,
          "durationTicks": 96,
          "midi": 66,
          "name": "F#4",
          "ticks": 24120,
          "time": 73.125,
          "velocity": 0.6299212598425197
        },
        {
          "duration": 0.30000000000001137,
          "durationTicks": 96,
          "midi": 61,
          "name": "C#4",
          "ticks": 24240,
          "time": 73.5,
          "velocity": 0.6299212598425197
        },
        {
          "duration": 0.30000000000001137,
          "durationTicks": 96,
          "midi": 57,
          "name": "A3",
          "ticks": 24360,
          "time": 73.875,
          "velocity": 0.6299212598425197
        },
        {
          "duration": 0.375,
          "durationTicks": 120,
          "midi": 63,
          "name": "D#4",
          "ticks": 24600,
          "time": 74.625,
          "velocity": 0.6299212598425197
        },
        {
          "duration": 0.375,
          "durationTicks": 120,
          "midi": 66,
          "name": "F#4",
          "ticks": 24720,
          "time": 75,
          "velocity": 0.6299212598425197
        },
        {
          "duration": 0.375,
          "durationTicks": 120,
          "midi": 68,
          "name": "G#4",
          "ticks": 24840,
          "time": 75.375,
          "velocity": 0.6299212598425197
        },
        {
          "duration": 0.375,
          "durationTicks": 120,
          "midi": 66,
          "name": "F#4",
          "ticks": 24960,
          "time": 75.75,
          "velocity": 0.6299212598425197
        },
        {
          "duration": 0.375,
          "durationTicks": 120,
          "midi": 63,
          "name": "D#4",
          "ticks": 25080,
          "time": 76.125,
          "velocity": 0.6299212598425197
        },
        {
          "duration": 0.375,
          "durationTicks": 120,
          "midi": 68,
          "name": "G#4",
          "ticks": 25320,
          "time": 76.875,
          "velocity": 0.6299212598425197
        },
        {
          "duration": 0.375,
          "durationTicks": 120,
          "midi": 71,
          "name": "B4",
          "ticks": 25440,
          "time": 77.25,
          "velocity": 0.6299212598425197
        },
        {
          "duration": 0.375,
          "durationTicks": 120,
          "midi": 74,
          "name": "D5",
          "ticks": 25560,
          "time": 77.625,
          "velocity": 0.6299212598425197
        },
        {
          "duration": 0.375,
          "durationTicks": 120,
          "midi": 71,
          "name": "B4",
          "ticks": 25680,
          "time": 78,
          "velocity": 0.6299212598425197
        },
        {
          "duration": 0.375,
          "durationTicks": 120,
          "midi": 68,
          "name": "G#4",
          "ticks": 25800,
          "time": 78.375,
          "velocity": 0.6299212598425197
        },
        {
          "duration": 0.375,
          "durationTicks": 120,
          "midi": 61,
          "name": "C#4",
          "ticks": 26040,
          "time": 79.125,
          "velocity": 0.6299212598425197
        },
        {
          "duration": 0.375,
          "durationTicks": 120,
          "midi": 64,
          "name": "E4",
          "ticks": 26160,
          "time": 79.5,
          "velocity": 0.6299212598425197
        },
        {
          "duration": 0.375,
          "durationTicks": 120,
          "midi": 66,
          "name": "F#4",
          "ticks": 26280,
          "time": 79.875,
          "velocity": 0.6299212598425197
        },
        {
          "duration": 0.375,
          "durationTicks": 120,
          "midi": 64,
          "name": "E4",
          "ticks": 26400,
          "time": 80.25,
          "velocity": 0.6299212598425197
        },
        {
          "duration": 0.375,
          "durationTicks": 120,
          "midi": 61,
          "name": "C#4",
          "ticks": 26520,
          "time": 80.625,
          "velocity": 0.6299212598425197
        },
        {
          "duration": 0.375,
          "durationTicks": 120,
          "midi": 59,
          "name": "B3",
          "ticks": 26760,
          "time": 81.375,
          "velocity": 0.6299212598425197
        },
        {
          "duration": 0.375,
          "durationTicks": 120,
          "midi": 62,
          "name": "D4",
          "ticks": 26880,
          "time": 81.75,
          "velocity": 0.6299212598425197
        },
        {
          "duration": 0.375,
          "durationTicks": 120,
          "midi": 67,
          "name": "G4",
          "ticks": 27000,
          "time": 82.125,
          "velocity": 0.6299212598425197
        },
        {
          "duration": 0.375,
          "durationTicks": 120,
          "midi": 62,
          "name": "D4",
          "ticks": 27120,
          "time": 82.5,
          "velocity": 0.6299212598425197
        },
        {
          "duration": 0.375,
          "durationTicks": 120,
          "midi": 59,
          "name": "B3",
          "ticks": 27240,
          "time": 82.875,
          "velocity": 0.6299212598425197
        },
        {
          "duration": 0.375,
          "durationTicks": 120,
          "midi": 61,
          "name": "C#4",
          "ticks": 27480,
          "time": 83.625,
          "velocity": 0.6299212598425197
        },
        {
          "duration": 0.375,
          "durationTicks": 120,
          "midi": 65,
          "name": "F4",
          "ticks": 27600,
          "time": 84,
          "velocity": 0.6299212598425197
        },
        {
          "duration": 0.375,
          "durationTicks": 120,
          "midi": 68,
          "name": "G#4",
          "ticks": 27720,
          "time": 84.375,
          "velocity": 0.6299212598425197
        },
        {
          "duration": 0.375,
          "durationTicks": 120,
          "midi": 66,
          "name": "F#4",
          "ticks": 27840,
          "time": 84.75,
          "velocity": 0.6299212598425197
        },
        {
          "duration": 0.375,
          "durationTicks": 120,
          "midi": 61,
          "name": "C#4",
          "ticks": 27960,
          "time": 85.125,
          "velocity": 0.6299212598425197
        },
        {
          "duration": 0.375,
          "durationTicks": 120,
          "midi": 66,
          "name": "F#4",
          "ticks": 28200,
          "time": 85.875,
          "velocity": 0.6299212598425197
        },
        {
          "duration": 0.375,
          "durationTicks": 120,
          "midi": 62,
          "name": "D4",
          "ticks": 28320,
          "time": 86.25,
          "velocity": 0.6299212598425197
        },
        {
          "duration": 0.375,
          "durationTicks": 120,
          "midi": 66,
          "name": "F#4",
          "ticks": 28440,
          "time": 86.625,
          "velocity": 0.6299212598425197
        },
        {
          "duration": 0.375,
          "durationTicks": 120,
          "midi": 65,
          "name": "F4",
          "ticks": 28560,
          "time": 87,
          "velocity": 0.6299212598425197
        },
        {
          "duration": 0.375,
          "durationTicks": 120,
          "midi": 59,
          "name": "B3",
          "ticks": 28680,
          "time": 87.375,
          "velocity": 0.6299212598425197
        },
        {
          "duration": 1.4250000000000114,
          "durationTicks": 456,
          "midi": 57,
          "name": "A3",
          "ticks": 28800,
          "time": 87.75,
          "velocity": 0.5511811023622047
        },
        {
          "duration": 4.5,
          "durationTicks": 1440,
          "midi": 71,
          "name": "B4",
          "ticks": 36000,
          "time": 110.25,
          "velocity": 0.47244094488188976
        },
        {
          "duration": 9,
          "durationTicks": 2880,
          "midi": 69,
          "name": "A4",
          "ticks": 37440,
          "time": 114.75,
          "velocity": 0.47244094488188976
        },
        {
          "duration": 1.5,
          "durationTicks": 480,
          "midi": 69,
          "name": "A4",
          "ticks": 40320,
          "time": 123.75,
          "velocity": 0.47244094488188976
        },
        {
          "duration": 0.6000000000000085,
          "durationTicks": 192,
          "midi": 68,
          "name": "G#4",
          "ticks": 40800,
          "time": 125.25,
          "velocity": 0.47244094488188976
        },
        {
          "duration": 0.75,
          "durationTicks": 240,
          "midi": 60,
          "name": "C4",
          "ticks": 42000,
          "time": 129,
          "velocity": 0.47244094488188976
        },
        {
          "duration": 0.75,
          "durationTicks": 240,
          "midi": 69,
          "name": "A4",
          "ticks": 42240,
          "time": 129.75,
          "velocity": 0.47244094488188976
        },
        {
          "duration": 0.6000000000000227,
          "durationTicks": 192,
          "midi": 72,
          "name": "C5",
          "ticks": 42480,
          "time": 130.5,
          "velocity": 0.47244094488188976
        },
        {
          "duration": 0.75,
          "durationTicks": 240,
          "midi": 59,
          "name": "B3",
          "ticks": 43440,
          "time": 133.5,
          "velocity": 0.47244094488188976
        },
        {
          "duration": 0.75,
          "durationTicks": 240,
          "midi": 68,
          "name": "G#4",
          "ticks": 43680,
          "time": 134.25,
          "velocity": 0.47244094488188976
        },
        {
          "duration": 0.6000000000000227,
          "durationTicks": 192,
          "midi": 68,
          "name": "G#4",
          "ticks": 43920,
          "time": 135,
          "velocity": 0.47244094488188976
        },
        {
          "duration": 2.25,
          "durationTicks": 720,
          "midi": 69,
          "name": "A4",
          "ticks": 44640,
          "time": 137.25,
          "velocity": 0.5826771653543307
        },
        {
          "duration": 2.25,
          "durationTicks": 720,
          "midi": 63,
          "name": "D#4",
          "ticks": 45360,
          "time": 139.5,
          "velocity": 0.5039370078740157
        },
        {
          "duration": 1.1999999999999886,
          "durationTicks": 384,
          "midi": 64,
          "name": "E4",
          "ticks": 46080,
          "time": 141.75,
          "velocity": 0.4330708661417323
        },
        {
          "duration": 0.7142855000000168,
          "durationTicks": 240,
          "midi": 68,
          "name": "G#4",
          "ticks": 58800,
          "time": 180.41186499999998,
          "velocity": 0.47244094488188976
        },
        {
          "duration": 0.5714284000000021,
          "durationTicks": 192,
          "midi": 69,
          "name": "A4",
          "ticks": 59040,
          "time": 181.1261505,
          "velocity": 0.47244094488188976
        },
        {
          "duration": 0.5714284000000021,
          "durationTicks": 192,
          "midi": 66,
          "name": "F#4",
          "ticks": 59760,
          "time": 183.269007,
          "velocity": 0.47244094488188976
        },
        {
          "duration": 0.7142854999999884,
          "durationTicks": 240,
          "midi": 64,
          "name": "E4",
          "ticks": 60720,
          "time": 186.126149,
          "velocity": 0.47244094488188976
        },
        {
          "duration": 0.7142854999999884,
          "durationTicks": 240,
          "midi": 62,
          "name": "D4",
          "ticks": 60960,
          "time": 186.8404345,
          "velocity": 0.47244094488188976
        },
        {
          "duration": 0.5714284000000021,
          "durationTicks": 192,
          "midi": 61,
          "name": "C#4",
          "ticks": 61200,
          "time": 187.55471999999997,
          "velocity": 0.47244094488188976
        },
        {
          "duration": 0.3571427500000084,
          "durationTicks": 120,
          "midi": 74,
          "name": "D5",
          "ticks": 65040,
          "time": 198.983288,
          "velocity": 0.4881889763779528
        },
        {
          "duration": 0.28571420000000103,
          "durationTicks": 96,
          "midi": 71,
          "name": "B4",
          "ticks": 65160,
          "time": 199.34043075,
          "velocity": 0.4881889763779528
        },
        {
          "duration": 0.3571427500000084,
          "durationTicks": 120,
          "midi": 71,
          "name": "B4",
          "ticks": 65280,
          "time": 199.69757349999998,
          "velocity": 0.48031496062992124
        },
        {
          "duration": 0.28571420000000103,
          "durationTicks": 96,
          "midi": 68,
          "name": "G#4",
          "ticks": 65400,
          "time": 200.05471624999998,
          "velocity": 0.47244094488188976
        },
        {
          "duration": 0.5714284000000021,
          "durationTicks": 192,
          "midi": 69,
          "name": "A4",
          "ticks": 65520,
          "time": 200.411859,
          "velocity": 0.33858267716535434
        },
        {
          "duration": 1.4285710000000051,
          "durationTicks": 480,
          "midi": 59,
          "name": "B3",
          "ticks": 66240,
          "time": 202.5547155,
          "velocity": 0.4645669291338583
        },
        {
          "duration": 0.7142854999999884,
          "durationTicks": 240,
          "midi": 57,
          "name": "A3",
          "ticks": 66720,
          "time": 203.9832865,
          "velocity": 0.4566929133858268
        },
        {
          "duration": 0.5714284000000021,
          "durationTicks": 192,
          "midi": 56,
          "name": "G#3",
          "ticks": 66960,
          "time": 204.69757199999998,
          "velocity": 0.44881889763779526
        },
        {
          "duration": 1.4285710000000051,
          "durationTicks": 480,
          "midi": 61,
          "name": "C#4",
          "ticks": 67680,
          "time": 206.84042849999997,
          "velocity": 0.47244094488188976
        },
        {
          "duration": 0.7142855000000168,
          "durationTicks": 240,
          "midi": 59,
          "name": "B3",
          "ticks": 68160,
          "time": 208.26899949999998,
          "velocity": 0.4566929133858268
        },
        {
          "duration": 0.5714283999999736,
          "durationTicks": 192,
          "midi": 57,
          "name": "A3",
          "ticks": 68400,
          "time": 208.983285,
          "velocity": 0.4409448818897638
        },
        {
          "duration": 0.35714274999997997,
          "durationTicks": 120,
          "midi": 57,
          "name": "A3",
          "ticks": 69240,
          "time": 211.48328425,
          "velocity": 0.47244094488188976
        },
        {
          "duration": 0.3571427500000084,
          "durationTicks": 120,
          "midi": 66,
          "name": "F#4",
          "ticks": 69360,
          "time": 211.84042699999998,
          "velocity": 0.47244094488188976
        },
        {
          "duration": 0.3571427500000084,
          "durationTicks": 120,
          "midi": 57,
          "name": "A3",
          "ticks": 69480,
          "time": 212.19756974999999,
          "velocity": 0.47244094488188976
        },
        {
          "duration": 0.35714274999997997,
          "durationTicks": 120,
          "midi": 66,
          "name": "F#4",
          "ticks": 69600,
          "time": 212.5547125,
          "velocity": 0.47244094488188976
        },
        {
          "duration": 0.3571427500000084,
          "durationTicks": 120,
          "midi": 57,
          "name": "A3",
          "ticks": 69720,
          "time": 212.91185524999997,
          "velocity": 0.47244094488188976
        },
        {
          "duration": 0.3571427500000084,
          "durationTicks": 120,
          "midi": 57,
          "name": "A3",
          "ticks": 69960,
          "time": 213.62614075,
          "velocity": 0.47244094488188976
        },
        {
          "duration": 0.35714274999997997,
          "durationTicks": 120,
          "midi": 66,
          "name": "F#4",
          "ticks": 70080,
          "time": 213.9832835,
          "velocity": 0.47244094488188976
        },
        {
          "duration": 0.3571427500000084,
          "durationTicks": 120,
          "midi": 57,
          "name": "A3",
          "ticks": 70200,
          "time": 214.34042624999998,
          "velocity": 0.47244094488188976
        },
        {
          "duration": 0.3571427500000084,
          "durationTicks": 120,
          "midi": 66,
          "name": "F#4",
          "ticks": 70320,
          "time": 214.697569,
          "velocity": 0.47244094488188976
        },
        {
          "duration": 0.3571427500000084,
          "durationTicks": 120,
          "midi": 57,
          "name": "A3",
          "ticks": 70440,
          "time": 215.05471175,
          "velocity": 0.47244094488188976
        },
        {
          "duration": 0.5714283999999736,
          "durationTicks": 192,
          "midi": 57,
          "name": "A3",
          "ticks": 70560,
          "time": 215.4118545,
          "velocity": 0.47244094488188976
        },
        {
          "duration": 0.5714284000000021,
          "durationTicks": 192,
          "midi": 69,
          "name": "A4",
          "ticks": 70800,
          "time": 216.12614,
          "velocity": 0.47244094488188976
        },
        {
          "duration": 0.5714284000000021,
          "durationTicks": 192,
          "midi": 69,
          "name": "A4",
          "ticks": 71040,
          "time": 216.84042549999998,
          "velocity": 0.47244094488188976
        },
        {
          "duration": 0.5714284000000021,
          "durationTicks": 192,
          "midi": 69,
          "name": "A4",
          "ticks": 71280,
          "time": 217.554711,
          "velocity": 0.47244094488188976
        },
        {
          "duration": 0.5714284000000021,
          "durationTicks": 192,
          "midi": 69,
          "name": "A4",
          "ticks": 71520,
          "time": 218.2689965,
          "velocity": 0.47244094488188976
        },
        {
          "duration": 0.5714284000000021,
          "durationTicks": 192,
          "midi": 69,
          "name": "A4",
          "ticks": 71760,
          "time": 218.98328199999997,
          "velocity": 0.47244094488188976
        },
        {
          "duration": 0.5714284000000021,
          "durationTicks": 192,
          "midi": 69,
          "name": "A4",
          "ticks": 72000,
          "time": 219.6975675,
          "velocity": 0.47244094488188976
        },
        {
          "duration": 0.5714283999999736,
          "durationTicks": 192,
          "midi": 69,
          "name": "A4",
          "ticks": 72240,
          "time": 220.411853,
          "velocity": 0.47244094488188976
        },
        {
          "duration": 0.5714284000000021,
          "durationTicks": 192,
          "midi": 69,
          "name": "A4",
          "ticks": 72480,
          "time": 221.12613849999997,
          "velocity": 0.47244094488188976
        },
        {
          "duration": 0.5714284000000021,
          "durationTicks": 192,
          "midi": 68,
          "name": "G#4",
          "ticks": 72720,
          "time": 221.84042399999998,
          "velocity": 0.47244094488188976
        },
        {
          "duration": 0.5714284000000021,
          "durationTicks": 192,
          "midi": 68,
          "name": "G#4",
          "ticks": 72960,
          "time": 222.5547095,
          "velocity": 0.47244094488188976
        },
        {
          "duration": 0.5714284000000021,
          "durationTicks": 192,
          "midi": 68,
          "name": "G#4",
          "ticks": 73200,
          "time": 223.268995,
          "velocity": 0.47244094488188976
        },
        {
          "duration": 1.1707312000000059,
          "durationTicks": 384,
          "midi": 69,
          "name": "A4",
          "ticks": 73440,
          "time": 223.98328049999998,
          "velocity": 0.2677165354330709
        },
        {
          "duration": 0.375,
          "durationTicks": 120,
          "midi": 57,
          "name": "A3",
          "ticks": 98040,
          "time": 300.93859399999997,
          "velocity": 0.47244094488188976
        },
        {
          "duration": 0.375,
          "durationTicks": 120,
          "midi": 61,
          "name": "C#4",
          "ticks": 98160,
          "time": 301.31359399999997,
          "velocity": 0.47244094488188976
        },
        {
          "duration": 0.375,
          "durationTicks": 120,
          "midi": 66,
          "name": "F#4",
          "ticks": 98280,
          "time": 301.68859399999997,
          "velocity": 0.47244094488188976
        },
        {
          "duration": 0.375,
          "durationTicks": 120,
          "midi": 61,
          "name": "C#4",
          "ticks": 98400,
          "time": 302.06359399999997,
          "velocity": 0.47244094488188976
        },
        {
          "duration": 0.375,
          "durationTicks": 120,
          "midi": 57,
          "name": "A3",
          "ticks": 98520,
          "time": 302.43859399999997,
          "velocity": 0.47244094488188976
        },
        {
          "duration": 0.375,
          "durationTicks": 120,
          "midi": 57,
          "name": "A3",
          "ticks": 98760,
          "time": 303.18859399999997,
          "velocity": 0.47244094488188976
        },
        {
          "duration": 0.375,
          "durationTicks": 120,
          "midi": 61,
          "name": "C#4",
          "ticks": 98880,
          "time": 303.56359399999997,
          "velocity": 0.47244094488188976
        },
        {
          "duration": 0.375,
          "durationTicks": 120,
          "midi": 66,
          "name": "F#4",
          "ticks": 99000,
          "time": 303.93859399999997,
          "velocity": 0.47244094488188976
        },
        {
          "duration": 0.375,
          "durationTicks": 120,
          "midi": 61,
          "name": "C#4",
          "ticks": 99120,
          "time": 304.31359399999997,
          "velocity": 0.47244094488188976
        },
        {
          "duration": 0.375,
          "durationTicks": 120,
          "midi": 57,
          "name": "A3",
          "ticks": 99240,
          "time": 304.68859399999997,
          "velocity": 0.47244094488188976
        },
        {
          "duration": 0.375,
          "durationTicks": 120,
          "midi": 57,
          "name": "A3",
          "ticks": 99480,
          "time": 305.43859399999997,
          "velocity": 0.47244094488188976
        },
        {
          "duration": 0.375,
          "durationTicks": 120,
          "midi": 61,
          "name": "C#4",
          "ticks": 99600,
          "time": 305.81359399999997,
          "velocity": 0.47244094488188976
        },
        {
          "duration": 0.375,
          "durationTicks": 120,
          "midi": 66,
          "name": "F#4",
          "ticks": 99720,
          "time": 306.18859399999997,
          "velocity": 0.47244094488188976
        },
        {
          "duration": 0.375,
          "durationTicks": 120,
          "midi": 61,
          "name": "C#4",
          "ticks": 99840,
          "time": 306.56359399999997,
          "velocity": 0.47244094488188976
        },
        {
          "duration": 0.375,
          "durationTicks": 120,
          "midi": 57,
          "name": "A3",
          "ticks": 99960,
          "time": 306.93859399999997,
          "velocity": 0.47244094488188976
        },
        {
          "duration": 0.375,
          "durationTicks": 120,
          "midi": 59,
          "name": "B3",
          "ticks": 100200,
          "time": 307.68859399999997,
          "velocity": 0.47244094488188976
        },
        {
          "duration": 0.375,
          "durationTicks": 120,
          "midi": 61,
          "name": "C#4",
          "ticks": 100320,
          "time": 308.06359399999997,
          "velocity": 0.47244094488188976
        },
        {
          "duration": 0.375,
          "durationTicks": 120,
          "midi": 65,
          "name": "F4",
          "ticks": 100440,
          "time": 308.43859399999997,
          "velocity": 0.47244094488188976
        },
        {
          "duration": 0.375,
          "durationTicks": 120,
          "midi": 61,
          "name": "C#4",
          "ticks": 100560,
          "time": 308.81359399999997,
          "velocity": 0.47244094488188976
        },
        {
          "duration": 0.375,
          "durationTicks": 120,
          "midi": 59,
          "name": "B3",
          "ticks": 100680,
          "time": 309.18859399999997,
          "velocity": 0.47244094488188976
        },
        {
          "duration": 0.375,
          "durationTicks": 120,
          "midi": 59,
          "name": "B3",
          "ticks": 100920,
          "time": 309.93859399999997,
          "velocity": 0.47244094488188976
        },
        {
          "duration": 0.375,
          "durationTicks": 120,
          "midi": 61,
          "name": "C#4",
          "ticks": 101040,
          "time": 310.31359399999997,
          "velocity": 0.47244094488188976
        },
        {
          "duration": 0.375,
          "durationTicks": 120,
          "midi": 65,
          "name": "F4",
          "ticks": 101160,
          "time": 310.68859399999997,
          "velocity": 0.47244094488188976
        },
        {
          "duration": 0.375,
          "durationTicks": 120,
          "midi": 61,
          "name": "C#4",
          "ticks": 101280,
          "time": 311.06359399999997,
          "velocity": 0.47244094488188976
        },
        {
          "duration": 0.375,
          "durationTicks": 120,
          "midi": 59,
          "name": "B3",
          "ticks": 101400,
          "time": 311.43859399999997,
          "velocity": 0.47244094488188976
        },
        {
          "duration": 0.375,
          "durationTicks": 120,
          "midi": 57,
          "name": "A3",
          "ticks": 101640,
          "time": 312.18859399999997,
          "velocity": 0.47244094488188976
        },
        {
          "duration": 0.375,
          "durationTicks": 120,
          "midi": 61,
          "name": "C#4",
          "ticks": 101760,
          "time": 312.56359399999997,
          "velocity": 0.47244094488188976
        },
        {
          "duration": 0.375,
          "durationTicks": 120,
          "midi": 66,
          "name": "F#4",
          "ticks": 101880,
          "time": 312.93859399999997,
          "velocity": 0.47244094488188976
        },
        {
          "duration": 0.375,
          "durationTicks": 120,
          "midi": 61,
          "name": "C#4",
          "ticks": 102000,
          "time": 313.31359399999997,
          "velocity": 0.47244094488188976
        },
        {
          "duration": 0.375,
          "durationTicks": 120,
          "midi": 57,
          "name": "A3",
          "ticks": 102120,
          "time": 313.68859399999997,
          "velocity": 0.47244094488188976
        },
        {
          "duration": 0.375,
          "durationTicks": 120,
          "midi": 62,
          "name": "D4",
          "ticks": 102360,
          "time": 314.43859399999997,
          "velocity": 0.47244094488188976
        },
        {
          "duration": 0.375,
          "durationTicks": 120,
          "midi": 66,
          "name": "F#4",
          "ticks": 102480,
          "time": 314.81359399999997,
          "velocity": 0.47244094488188976
        },
        {
          "duration": 0.375,
          "durationTicks": 120,
          "midi": 69,
          "name": "A4",
          "ticks": 102600,
          "time": 315.18859399999997,
          "velocity": 0.47244094488188976
        },
        {
          "duration": 0.375,
          "durationTicks": 120,
          "midi": 66,
          "name": "F#4",
          "ticks": 102720,
          "time": 315.56359399999997,
          "velocity": 0.47244094488188976
        },
        {
          "duration": 0.375,
          "durationTicks": 120,
          "midi": 62,
          "name": "D4",
          "ticks": 102840,
          "time": 315.93859399999997,
          "velocity": 0.47244094488188976
        },
        {
          "duration": 0.375,
          "durationTicks": 120,
          "midi": 59,
          "name": "B3",
          "ticks": 103080,
          "time": 316.68859399999997,
          "velocity": 0.47244094488188976
        },
        {
          "duration": 0.375,
          "durationTicks": 120,
          "midi": 62,
          "name": "D4",
          "ticks": 103200,
          "time": 317.06359399999997,
          "velocity": 0.47244094488188976
        },
        {
          "duration": 0.375,
          "durationTicks": 120,
          "midi": 66,
          "name": "F#4",
          "ticks": 103320,
          "time": 317.43859399999997,
          "velocity": 0.47244094488188976
        },
        {
          "duration": 0.375,
          "durationTicks": 120,
          "midi": 62,
          "name": "D4",
          "ticks": 103440,
          "time": 317.81359399999997,
          "velocity": 0.47244094488188976
        },
        {
          "duration": 0.375,
          "durationTicks": 120,
          "midi": 59,
          "name": "B3",
          "ticks": 103560,
          "time": 318.18859399999997,
          "velocity": 0.47244094488188976
        },
        {
          "duration": 0.375,
          "durationTicks": 120,
          "midi": 59,
          "name": "B3",
          "ticks": 103800,
          "time": 318.93859399999997,
          "velocity": 0.47244094488188976
        },
        {
          "duration": 0.375,
          "durationTicks": 120,
          "midi": 61,
          "name": "C#4",
          "ticks": 103920,
          "time": 319.31359399999997,
          "velocity": 0.47244094488188976
        },
        {
          "duration": 0.375,
          "durationTicks": 120,
          "midi": 68,
          "name": "G#4",
          "ticks": 104040,
          "time": 319.68859399999997,
          "velocity": 0.47244094488188976
        },
        {
          "duration": 0.375,
          "durationTicks": 120,
          "midi": 61,
          "name": "C#4",
          "ticks": 104160,
          "time": 320.06359399999997,
          "velocity": 0.47244094488188976
        },
        {
          "duration": 0.375,
          "durationTicks": 120,
          "midi": 59,
          "name": "B3",
          "ticks": 104280,
          "time": 320.43859399999997,
          "velocity": 0.47244094488188976
        },
        {
          "duration": 0.375,
          "durationTicks": 120,
          "midi": 57,
          "name": "A3",
          "ticks": 104520,
          "time": 321.18859399999997,
          "velocity": 0.6299212598425197
        },
        {
          "duration": 0.375,
          "durationTicks": 120,
          "midi": 61,
          "name": "C#4",
          "ticks": 104640,
          "time": 321.56359399999997,
          "velocity": 0.6299212598425197
        },
        {
          "duration": 0.375,
          "durationTicks": 120,
          "midi": 66,
          "name": "F#4",
          "ticks": 104760,
          "time": 321.93859399999997,
          "velocity": 0.6299212598425197
        },
        {
          "duration": 0.375,
          "durationTicks": 120,
          "midi": 61,
          "name": "C#4",
          "ticks": 104880,
          "time": 322.31359399999997,
          "velocity": 0.6299212598425197
        },
        {
          "duration": 0.375,
          "durationTicks": 120,
          "midi": 57,
          "name": "A3",
          "ticks": 105000,
          "time": 322.68859399999997,
          "velocity": 0.6299212598425197
        },
        {
          "duration": 0.375,
          "durationTicks": 120,
          "midi": 63,
          "name": "D#4",
          "ticks": 105240,
          "time": 323.43859399999997,
          "velocity": 0.6299212598425197
        },
        {
          "duration": 0.375,
          "durationTicks": 120,
          "midi": 66,
          "name": "F#4",
          "ticks": 105360,
          "time": 323.81359399999997,
          "velocity": 0.6299212598425197
        },
        {
          "duration": 0.375,
          "durationTicks": 120,
          "midi": 68,
          "name": "G#4",
          "ticks": 105480,
          "time": 324.18859399999997,
          "velocity": 0.6299212598425197
        },
        {
          "duration": 0.375,
          "durationTicks": 120,
          "midi": 66,
          "name": "F#4",
          "ticks": 105600,
          "time": 324.56359399999997,
          "velocity": 0.6299212598425197
        },
        {
          "duration": 0.375,
          "durationTicks": 120,
          "midi": 63,
          "name": "D#4",
          "ticks": 105720,
          "time": 324.93859399999997,
          "velocity": 0.6299212598425197
        },
        {
          "duration": 0.375,
          "durationTicks": 120,
          "midi": 68,
          "name": "G#4",
          "ticks": 105960,
          "time": 325.68859399999997,
          "velocity": 0.6299212598425197
        },
        {
          "duration": 0.375,
          "durationTicks": 120,
          "midi": 71,
          "name": "B4",
          "ticks": 106080,
          "time": 326.06359399999997,
          "velocity": 0.6299212598425197
        },
        {
          "duration": 0.375,
          "durationTicks": 120,
          "midi": 74,
          "name": "D5",
          "ticks": 106200,
          "time": 326.43859399999997,
          "velocity": 0.6299212598425197
        },
        {
          "duration": 0.375,
          "durationTicks": 120,
          "midi": 71,
          "name": "B4",
          "ticks": 106320,
          "time": 326.81359399999997,
          "velocity": 0.6299212598425197
        },
        {
          "duration": 0.375,
          "durationTicks": 120,
          "midi": 68,
          "name": "G#4",
          "ticks": 106440,
          "time": 327.18859399999997,
          "velocity": 0.6299212598425197
        },
        {
          "duration": 0.375,
          "durationTicks": 120,
          "midi": 61,
          "name": "C#4",
          "ticks": 106680,
          "time": 327.93859399999997,
          "velocity": 0.6299212598425197
        },
        {
          "duration": 0.375,
          "durationTicks": 120,
          "midi": 64,
          "name": "E4",
          "ticks": 106800,
          "time": 328.31359399999997,
          "velocity": 0.6299212598425197
        },
        {
          "duration": 0.375,
          "durationTicks": 120,
          "midi": 66,
          "name": "F#4",
          "ticks": 106920,
          "time": 328.68859399999997,
          "velocity": 0.6299212598425197
        },
        {
          "duration": 0.375,
          "durationTicks": 120,
          "midi": 64,
          "name": "E4",
          "ticks": 107040,
          "time": 329.06359399999997,
          "velocity": 0.6299212598425197
        },
        {
          "duration": 0.375,
          "durationTicks": 120,
          "midi": 61,
          "name": "C#4",
          "ticks": 107160,
          "time": 329.43859399999997,
          "velocity": 0.6299212598425197
        },
        {
          "duration": 0.375,
          "durationTicks": 120,
          "midi": 59,
          "name": "B3",
          "ticks": 107400,
          "time": 330.18859399999997,
          "velocity": 0.6299212598425197
        },
        {
          "duration": 0.375,
          "durationTicks": 120,
          "midi": 62,
          "name": "D4",
          "ticks": 107520,
          "time": 330.56359399999997,
          "velocity": 0.6299212598425197
        },
        {
          "duration": 0.375,
          "durationTicks": 120,
          "midi": 67,
          "name": "G4",
          "ticks": 107640,
          "time": 330.93859399999997,
          "velocity": 0.6299212598425197
        },
        {
          "duration": 0.375,
          "durationTicks": 120,
          "midi": 62,
          "name": "D4",
          "ticks": 107760,
          "time": 331.31359399999997,
          "velocity": 0.6299212598425197
        },
        {
          "duration": 0.375,
          "durationTicks": 120,
          "midi": 59,
          "name": "B3",
          "ticks": 107880,
          "time": 331.68859399999997,
          "velocity": 0.6299212598425197
        },
        {
          "duration": 0.375,
          "durationTicks": 120,
          "midi": 61,
          "name": "C#4",
          "ticks": 108120,
          "time": 332.43859399999997,
          "velocity": 0.6299212598425197
        },
        {
          "duration": 0.375,
          "durationTicks": 120,
          "midi": 65,
          "name": "F4",
          "ticks": 108240,
          "time": 332.81359399999997,
          "velocity": 0.6299212598425197
        },
        {
          "duration": 0.375,
          "durationTicks": 120,
          "midi": 68,
          "name": "G#4",
          "ticks": 108360,
          "time": 333.18859399999997,
          "velocity": 0.6299212598425197
        },
        {
          "duration": 0.375,
          "durationTicks": 120,
          "midi": 66,
          "name": "F#4",
          "ticks": 108480,
          "time": 333.56359399999997,
          "velocity": 0.6299212598425197
        },
        {
          "duration": 0.375,
          "durationTicks": 120,
          "midi": 61,
          "name": "C#4",
          "ticks": 108600,
          "time": 333.93859399999997,
          "velocity": 0.6299212598425197
        },
        {
          "duration": 0.375,
          "durationTicks": 120,
          "midi": 66,
          "name": "F#4",
          "ticks": 108840,
          "time": 334.68859399999997,
          "velocity": 0.6299212598425197
        },
        {
          "duration": 0.375,
          "durationTicks": 120,
          "midi": 62,
          "name": "D4",
          "ticks": 108960,
          "time": 335.06359399999997,
          "velocity": 0.6299212598425197
        },
        {
          "duration": 0.375,
          "durationTicks": 120,
          "midi": 66,
          "name": "F#4",
          "ticks": 109080,
          "time": 335.43859399999997,
          "velocity": 0.6299212598425197
        },
        {
          "duration": 0.375,
          "durationTicks": 120,
          "midi": 65,
          "name": "F4",
          "ticks": 109200,
          "time": 335.81359399999997,
          "velocity": 0.6299212598425197
        },
        {
          "duration": 0.375,
          "durationTicks": 120,
          "midi": 59,
          "name": "B3",
          "ticks": 109320,
          "time": 336.18859399999997,
          "velocity": 0.6299212598425197
        },
        {
          "duration": 1.4250000000000682,
          "durationTicks": 456,
          "midi": 57,
          "name": "A3",
          "ticks": 109440,
          "time": 336.56359399999997,
          "velocity": 0.5511811023622047
        },
        {
          "duration": 2.25,
          "durationTicks": 720,
          "midi": 69,
          "name": "A4",
          "ticks": 110880,
          "time": 341.06359399999997,
          "velocity": 0.47244094488188976
        },
        {
          "duration": 3,
          "durationTicks": 960,
          "midi": 68,
          "name": "G#4",
          "ticks": 111600,
          "time": 343.31359399999997,
          "velocity": 0.47244094488188976
        },
        {
          "duration": 0.75,
          "durationTicks": 240,
          "midi": 61,
          "name": "C#4",
          "ticks": 112560,
          "time": 346.31359399999997,
          "velocity": 0.47244094488188976
        },
        {
          "duration": 0.75,
          "durationTicks": 240,
          "midi": 59,
          "name": "B3",
          "ticks": 112800,
          "time": 347.06359399999997,
          "velocity": 0.47244094488188976
        },
        {
          "duration": 0.75,
          "durationTicks": 240,
          "midi": 57,
          "name": "A3",
          "ticks": 113040,
          "time": 347.81359399999997,
          "velocity": 0.47244094488188976
        },
        {
          "duration": 0.75,
          "durationTicks": 240,
          "midi": 59,
          "name": "B3",
          "ticks": 113280,
          "time": 348.56359399999997,
          "velocity": 0.47244094488188976
        },
        {
          "duration": 0.75,
          "durationTicks": 240,
          "midi": 61,
          "name": "C#4",
          "ticks": 113520,
          "time": 349.31359399999997,
          "velocity": 0.47244094488188976
        },
        {
          "duration": 2.25,
          "durationTicks": 720,
          "midi": 59,
          "name": "B3",
          "ticks": 113760,
          "time": 350.06359399999997,
          "velocity": 0.47244094488188976
        },
        {
          "duration": 2.25,
          "durationTicks": 720,
          "midi": 68,
          "name": "G#4",
          "ticks": 114480,
          "time": 352.31359399999997,
          "velocity": 0.47244094488188976
        },
        {
          "duration": 1.2000000000000455,
          "durationTicks": 384,
          "midi": 65,
          "name": "F4",
          "ticks": 115200,
          "time": 354.56359399999997,
          "velocity": 0.47244094488188976
        },
        {
          "duration": 0.23214278750003814,
          "durationTicks": 78,
          "midi": 66,
          "name": "F#4",
          "ticks": 121080,
          "time": 372.92073674999995,
          "velocity": 0.2677165354330709
        },
        {
          "duration": 0.2321427874999813,
          "durationTicks": 78,
          "midi": 69,
          "name": "A4",
          "ticks": 121320,
          "time": 373.63502224999996,
          "velocity": 0.2677165354330709
        },
        {
          "duration": 0.2321427874999813,
          "durationTicks": 78,
          "midi": 73,
          "name": "C#5",
          "ticks": 121560,
          "time": 374.34930775,
          "velocity": 0.2677165354330709
        },
        {
          "duration": 0.23214278750003814,
          "durationTicks": 78,
          "midi": 69,
          "name": "A4",
          "ticks": 121800,
          "time": 375.06359324999994,
          "velocity": 0.2677165354330709
        },
        {
          "duration": 0.23214278750003814,
          "durationTicks": 78,
          "midi": 66,
          "name": "F#4",
          "ticks": 122040,
          "time": 375.77787874999996,
          "velocity": 0.2677165354330709
        },
        {
          "duration": 0.2321427874999813,
          "durationTicks": 78,
          "midi": 61,
          "name": "C#4",
          "ticks": 122280,
          "time": 376.49216425,
          "velocity": 0.2677165354330709
        },
        {
          "duration": 0.2321427874999813,
          "durationTicks": 78,
          "midi": 62,
          "name": "D4",
          "ticks": 122520,
          "time": 377.20644975,
          "velocity": 0.2677165354330709
        },
        {
          "duration": 0.23214278750003814,
          "durationTicks": 78,
          "midi": 66,
          "name": "F#4",
          "ticks": 122760,
          "time": 377.92073524999995,
          "velocity": 0.2677165354330709
        },
        {
          "duration": 0.2321427874999813,
          "durationTicks": 78,
          "midi": 69,
          "name": "A4",
          "ticks": 123000,
          "time": 378.63502074999997,
          "velocity": 0.2677165354330709
        },
        {
          "duration": 0.2321427874999813,
          "durationTicks": 78,
          "midi": 66,
          "name": "F#4",
          "ticks": 123240,
          "time": 379.34930625,
          "velocity": 0.2677165354330709
        },
        {
          "duration": 0.23214278750003814,
          "durationTicks": 78,
          "midi": 62,
          "name": "D4",
          "ticks": 123480,
          "time": 380.06359174999994,
          "velocity": 0.2677165354330709
        },
        {
          "duration": 0.2321427874999813,
          "durationTicks": 78,
          "midi": 57,
          "name": "A3",
          "ticks": 123720,
          "time": 380.77787724999996,
          "velocity": 0.2677165354330709
        },
        {
          "duration": 0.2321427874999813,
          "durationTicks": 78,
          "midi": 59,
          "name": "B3",
          "ticks": 123960,
          "time": 381.49216275,
          "velocity": 0.2677165354330709
        },
        {
          "duration": 0.2321427874999813,
          "durationTicks": 78,
          "midi": 62,
          "name": "D4",
          "ticks": 124200,
          "time": 382.20644825,
          "velocity": 0.2677165354330709
        },
        {
          "duration": 0.23214278750003814,
          "durationTicks": 78,
          "midi": 61,
          "name": "C#4",
          "ticks": 124440,
          "time": 382.92073374999995,
          "velocity": 0.2677165354330709
        },
        {
          "duration": 0.2321427874999813,
          "durationTicks": 78,
          "midi": 59,
          "name": "B3",
          "ticks": 124680,
          "time": 383.63501924999997,
          "velocity": 0.2677165354330709
        },
        {
          "duration": 0.2321427874999813,
          "durationTicks": 78,
          "midi": 57,
          "name": "A3",
          "ticks": 124920,
          "time": 384.34930475,
          "velocity": 0.2677165354330709
        },
        {
          "duration": 0.23214278750003814,
          "durationTicks": 78,
          "midi": 56,
          "name": "G#3",
          "ticks": 125160,
          "time": 385.06359024999995,
          "velocity": 0.2677165354330709
        },
        {
          "duration": 0.2321427874999813,
          "durationTicks": 78,
          "midi": 61,
          "name": "C#4",
          "ticks": 125400,
          "time": 385.77787574999996,
          "velocity": 0.2677165354330709
        },
        {
          "duration": 0.2321427874999813,
          "durationTicks": 78,
          "midi": 66,
          "name": "F#4",
          "ticks": 125640,
          "time": 386.49216125,
          "velocity": 0.2677165354330709
        },
        {
          "duration": 0.23214278750003814,
          "durationTicks": 78,
          "midi": 69,
          "name": "A4",
          "ticks": 125880,
          "time": 387.20644674999994,
          "velocity": 0.2677165354330709
        },
        {
          "duration": 0.2321427874999813,
          "durationTicks": 78,
          "midi": 61,
          "name": "C#4",
          "ticks": 126120,
          "time": 387.92073224999996,
          "velocity": 0.2677165354330709
        },
        {
          "duration": 0.2321427874999813,
          "durationTicks": 78,
          "midi": 65,
          "name": "F4",
          "ticks": 126360,
          "time": 388.63501775,
          "velocity": 0.2677165354330709
        },
        {
          "duration": 0.2321427874999813,
          "durationTicks": 78,
          "midi": 68,
          "name": "G#4",
          "ticks": 126600,
          "time": 389.34930325,
          "velocity": 0.2677165354330709
        },
        {
          "duration": 0.23214278750003814,
          "durationTicks": 78,
          "midi": 66,
          "name": "F#4",
          "ticks": 126840,
          "time": 390.06358874999995,
          "velocity": 0.2677165354330709
        },
        {
          "duration": 0.2321427874999813,
          "durationTicks": 78,
          "midi": 69,
          "name": "A4",
          "ticks": 127080,
          "time": 390.77787424999997,
          "velocity": 0.2677165354330709
        },
        {
          "duration": 0.2321427874999813,
          "durationTicks": 78,
          "midi": 73,
          "name": "C#5",
          "ticks": 127320,
          "time": 391.49215975,
          "velocity": 0.2677165354330709
        },
        {
          "duration": 0.23214278750003814,
          "durationTicks": 78,
          "midi": 69,
          "name": "A4",
          "ticks": 127560,
          "time": 392.20644524999994,
          "velocity": 0.2677165354330709
        },
        {
          "duration": 0.2321427874999813,
          "durationTicks": 78,
          "midi": 66,
          "name": "F#4",
          "ticks": 127800,
          "time": 392.92073074999996,
          "velocity": 0.2677165354330709
        },
        {
          "duration": 0.2321427874999813,
          "durationTicks": 78,
          "midi": 61,
          "name": "C#4",
          "ticks": 128040,
          "time": 393.63501625,
          "velocity": 0.2677165354330709
        },
        {
          "duration": 0.2321427874999813,
          "durationTicks": 78,
          "midi": 62,
          "name": "D4",
          "ticks": 128280,
          "time": 394.34930175,
          "velocity": 0.2677165354330709
        },
        {
          "duration": 0.23214278750003814,
          "durationTicks": 78,
          "midi": 66,
          "name": "F#4",
          "ticks": 128520,
          "time": 395.06358724999996,
          "velocity": 0.2677165354330709
        },
        {
          "duration": 0.2321427874999813,
          "durationTicks": 78,
          "midi": 69,
          "name": "A4",
          "ticks": 128760,
          "time": 395.77787275,
          "velocity": 0.2677165354330709
        },
        {
          "duration": 0.2321427874999813,
          "durationTicks": 78,
          "midi": 66,
          "name": "F#4",
          "ticks": 129000,
          "time": 396.49215825,
          "velocity": 0.2677165354330709
        },
        {
          "duration": 0.23214278750003814,
          "durationTicks": 78,
          "midi": 62,
          "name": "D4",
          "ticks": 129240,
          "time": 397.20644374999995,
          "velocity": 0.2677165354330709
        },
        {
          "duration": 0.2321427874999813,
          "durationTicks": 78,
          "midi": 57,
          "name": "A3",
          "ticks": 129480,
          "time": 397.92072924999997,
          "velocity": 0.2677165354330709
        },
        {
          "duration": 0.2321427874999813,
          "durationTicks": 78,
          "midi": 59,
          "name": "B3",
          "ticks": 129720,
          "time": 398.63501475,
          "velocity": 0.2677165354330709
        },
        {
          "duration": 0.23214278750003814,
          "durationTicks": 78,
          "midi": 62,
          "name": "D4",
          "ticks": 129960,
          "time": 399.34930024999994,
          "velocity": 0.2677165354330709
        },
        {
          "duration": 0.2321427874999813,
          "durationTicks": 78,
          "midi": 67,
          "name": "G4",
          "ticks": 130200,
          "time": 400.06358574999996,
          "velocity": 0.2677165354330709
        },
        {
          "duration": 0.2321427874999813,
          "durationTicks": 78,
          "midi": 71,
          "name": "B4",
          "ticks": 130440,
          "time": 400.77787125,
          "velocity": 0.2677165354330709
        },
        {
          "duration": 0.2321427874999813,
          "durationTicks": 78,
          "midi": 67,
          "name": "G4",
          "ticks": 130680,
          "time": 401.49215675,
          "velocity": 0.2677165354330709
        },
        {
          "duration": 0.23214278750003814,
          "durationTicks": 78,
          "midi": 59,
          "name": "B3",
          "ticks": 130920,
          "time": 402.20644224999995,
          "velocity": 0.2677165354330709
        },
        {
          "duration": 0.2321427874999813,
          "durationTicks": 78,
          "midi": 61,
          "name": "C#4",
          "ticks": 131160,
          "time": 402.92072774999997,
          "velocity": 0.2677165354330709
        },
        {
          "duration": 0.2321427874999813,
          "durationTicks": 78,
          "midi": 66,
          "name": "F#4",
          "ticks": 131400,
          "time": 403.63501325,
          "velocity": 0.2677165354330709
        },
        {
          "duration": 0.23214278750003814,
          "durationTicks": 78,
          "midi": 69,
          "name": "A4",
          "ticks": 131640,
          "time": 404.34929874999995,
          "velocity": 0.2677165354330709
        },
        {
          "duration": 0.23214278750003814,
          "durationTicks": 78,
          "midi": 61,
          "name": "C#4",
          "ticks": 131880,
          "time": 405.06358424999996,
          "velocity": 0.2677165354330709
        },
        {
          "duration": 0.2321427874999813,
          "durationTicks": 78,
          "midi": 65,
          "name": "F4",
          "ticks": 132120,
          "time": 405.77786975,
          "velocity": 0.2677165354330709
        },
        {
          "duration": 0.2321427874999813,
          "durationTicks": 78,
          "midi": 68,
          "name": "G#4",
          "ticks": 132360,
          "time": 406.49215525,
          "velocity": 0.2677165354330709
        },
        {
          "duration": 1.1707311999999774,
          "durationTicks": 384,
          "midi": 66,
          "name": "F#4",
          "ticks": 132480,
          "time": 406.849298,
          "velocity": 0.47244094488188976
        },
        {
          "duration": 2.195120999999972,
          "durationTicks": 720,
          "midi": 74,
          "name": "D5",
          "ticks": 133920,
          "time": 411.23954,
          "velocity": 0.47244094488188976
        },
        {
          "duration": 2.9268280000000004,
          "durationTicks": 960,
          "midi": 59,
          "name": "B3",
          "ticks": 134640,
          "time": 413.43466099999995,
          "velocity": 0.47244094488188976
        },
        {
          "duration": 0.43902420000000575,
          "durationTicks": 144,
          "midi": 57,
          "name": "A3",
          "ticks": 135600,
          "time": 416.36148899999995,
          "velocity": 0.47244094488188976
        },
        {
          "duration": 0.43902420000000575,
          "durationTicks": 144,
          "midi": 57,
          "name": "A3",
          "ticks": 135840,
          "time": 417.093196,
          "velocity": 0.47244094488188976
        },
        {
          "duration": 2.195120999999972,
          "durationTicks": 720,
          "midi": 74,
          "name": "D5",
          "ticks": 136800,
          "time": 420.020024,
          "velocity": 0.47244094488188976
        },
        {
          "duration": 2.9268280000000004,
          "durationTicks": 960,
          "midi": 59,
          "name": "B3",
          "ticks": 137520,
          "time": 422.21514499999995,
          "velocity": 0.47244094488188976
        },
        {
          "duration": 0.43902420000000575,
          "durationTicks": 144,
          "midi": 57,
          "name": "A3",
          "ticks": 138480,
          "time": 425.14197299999995,
          "velocity": 0.47244094488188976
        },
        {
          "duration": 0.43902420000000575,
          "durationTicks": 144,
          "midi": 57,
          "name": "A3",
          "ticks": 138720,
          "time": 425.87368,
          "velocity": 0.47244094488188976
        },
        {
          "duration": 2.25,
          "durationTicks": 720,
          "midi": 69,
          "name": "A4",
          "ticks": 139680,
          "time": 428.800508,
          "velocity": 0.47244094488188976
        },
        {
          "duration": 2.3864814666666803,
          "durationTicks": 720,
          "midi": 68,
          "name": "G#4",
          "ticks": 140400,
          "time": 431.050508,
          "velocity": 0.47244094488188976
        },
        {
          "duration": 0.6096093749999341,
          "durationTicks": 180,
          "midi": 66,
          "name": "F#4",
          "ticks": 141120,
          "time": 433.43698946666666,
          "velocity": 0.4251968503937008
        },
        {
          "duration": 0.6081078749999733,
          "durationTicks": 180,
          "midi": 69,
          "name": "A4",
          "ticks": 141840,
          "time": 435.8709224666666,
          "velocity": 0.4094488188976378
        },
        {
          "duration": 0.6818178749999788,
          "durationTicks": 180,
          "midi": 73,
          "name": "C#5",
          "ticks": 142560,
          "time": 438.3558635666666,
          "velocity": 0.3937007874015748
        }
      ],
      "endOfTrackTicks": 142740
    },
    {
      "channel": 12,
      "controlChanges": {
        "7": [
          {
            "number": 7,
            "ticks": 0,
            "time": 0,
            "value": 0.7637795275590551
          }
        ],
        "10": [
          {
            "number": 10,
            "ticks": 0,
            "time": 0,
            "value": 0.7716535433070866
          }
        ],
        "91": [
          {
            "number": 91,
            "ticks": 0,
            "time": 0,
            "value": 0.6299212598425197
          }
        ]
      },
      "pitchBends": [],
      "instrument": {
        "family": "ensemble",
        "number": 48,
        "name": "string ensemble 1"
      },
      "name": "",
      "notes": [
        {
          "duration": 13.5,
          "durationTicks": 4320,
          "midi": 49,
          "name": "C#3",
          "ticks": 17280,
          "time": 51.75,
          "velocity": 0.47244094488188976
        },
        {
          "duration": 2.25,
          "durationTicks": 720,
          "midi": 54,
          "name": "F#3",
          "ticks": 21600,
          "time": 65.25,
          "velocity": 0.47244094488188976
        },
        {
          "duration": 4.5,
          "durationTicks": 1440,
          "midi": 56,
          "name": "G#3",
          "ticks": 22320,
          "time": 67.5,
          "velocity": 0.47244094488188976
        },
        {
          "duration": 2.25,
          "durationTicks": 720,
          "midi": 54,
          "name": "F#3",
          "ticks": 23760,
          "time": 72,
          "velocity": 0.6299212598425197
        },
        {
          "duration": 2.25,
          "durationTicks": 720,
          "midi": 60,
          "name": "C4",
          "ticks": 24480,
          "time": 74.25,
          "velocity": 0.6299212598425197
        },
        {
          "duration": 2.25,
          "durationTicks": 720,
          "midi": 59,
          "name": "B3",
          "ticks": 25200,
          "time": 76.5,
          "velocity": 0.6299212598425197
        },
        {
          "duration": 2.25,
          "durationTicks": 720,
          "midi": 58,
          "name": "A#3",
          "ticks": 25920,
          "time": 78.75,
          "velocity": 0.6299212598425197
        },
        {
          "duration": 0.75,
          "durationTicks": 240,
          "midi": 59,
          "name": "B3",
          "ticks": 26640,
          "time": 81,
          "velocity": 0.6299212598425197
        },
        {
          "duration": 0.75,
          "durationTicks": 240,
          "midi": 55,
          "name": "G3",
          "ticks": 26880,
          "time": 81.75,
          "velocity": 0.6299212598425197
        },
        {
          "duration": 0.75,
          "durationTicks": 240,
          "midi": 54,
          "name": "F#3",
          "ticks": 27120,
          "time": 82.5,
          "velocity": 0.6299212598425197
        },
        {
          "duration": 0.75,
          "durationTicks": 240,
          "midi": 53,
          "name": "F3",
          "ticks": 27360,
          "time": 83.25,
          "velocity": 0.6299212598425197
        },
        {
          "duration": 0.75,
          "durationTicks": 240,
          "midi": 49,
          "name": "C#3",
          "ticks": 27600,
          "time": 84,
          "velocity": 0.6299212598425197
        },
        {
          "duration": 0.75,
          "durationTicks": 240,
          "midi": 54,
          "name": "F#3",
          "ticks": 27840,
          "time": 84.75,
          "velocity": 0.6299212598425197
        },
        {
          "duration": 0.75,
          "durationTicks": 240,
          "midi": 62,
          "name": "D4",
          "ticks": 28080,
          "time": 85.5,
          "velocity": 0.6299212598425197
        },
        {
          "duration": 0.75,
          "durationTicks": 240,
          "midi": 59,
          "name": "B3",
          "ticks": 28320,
          "time": 86.25,
          "velocity": 0.6299212598425197
        },
        {
          "duration": 0.75,
          "durationTicks": 240,
          "midi": 61,
          "name": "C#4",
          "ticks": 28560,
          "time": 87,
          "velocity": 0.6299212598425197
        },
        {
          "duration": 1.4250000000000114,
          "durationTicks": 456,
          "midi": 54,
          "name": "F#3",
          "ticks": 28800,
          "time": 87.75,
          "velocity": 0.5511811023622047
        },
        {
          "duration": 9,
          "durationTicks": 2880,
          "midi": 64,
          "name": "E4",
          "ticks": 36000,
          "time": 110.25,
          "velocity": 0.47244094488188976
        },
        {
          "duration": 4.5,
          "durationTicks": 1440,
          "midi": 66,
          "name": "F#4",
          "ticks": 38880,
          "time": 119.25,
          "velocity": 0.47244094488188976
        },
        {
          "duration": 0.6000000000000085,
          "durationTicks": 192,
          "midi": 64,
          "name": "E4",
          "ticks": 40320,
          "time": 123.75,
          "velocity": 0.47244094488188976
        },
        {
          "duration": 0.6000000000000085,
          "durationTicks": 192,
          "midi": 64,
          "name": "E4",
          "ticks": 41040,
          "time": 126,
          "velocity": 0.47244094488188976
        },
        {
          "duration": 0.6000000000000227,
          "durationTicks": 192,
          "midi": 64,
          "name": "E4",
          "ticks": 41760,
          "time": 128.25,
          "velocity": 0.47244094488188976
        },
        {
          "duration": 0.6000000000000227,
          "durationTicks": 192,
          "midi": 64,
          "name": "E4",
          "ticks": 42480,
          "time": 130.5,
          "velocity": 0.47244094488188976
        },
        {
          "duration": 0.6000000000000227,
          "durationTicks": 192,
          "midi": 64,
          "name": "E4",
          "ticks": 43200,
          "time": 132.75,
          "velocity": 0.47244094488188976
        },
        {
          "duration": 0.6000000000000227,
          "durationTicks": 192,
          "midi": 64,
          "name": "E4",
          "ticks": 43920,
          "time": 135,
          "velocity": 0.47244094488188976
        },
        {
          "duration": 2.25,
          "durationTicks": 720,
          "midi": 60,
          "name": "C4",
          "ticks": 44640,
          "time": 137.25,
          "velocity": 0.5748031496062992
        },
        {
          "duration": 2.25,
          "durationTicks": 720,
          "midi": 57,
          "name": "A3",
          "ticks": 45360,
          "time": 139.5,
          "velocity": 0.5118110236220472
        },
        {
          "duration": 1.1999999999999886,
          "durationTicks": 384,
          "midi": 59,
          "name": "B3",
          "ticks": 46080,
          "time": 141.75,
          "velocity": 0.4566929133858268
        },
        {
          "duration": 0.7142855000000168,
          "durationTicks": 240,
          "midi": 59,
          "name": "B3",
          "ticks": 58800,
          "time": 180.41186499999998,
          "velocity": 0.47244094488188976
        },
        {
          "duration": 0.5714284000000021,
          "durationTicks": 192,
          "midi": 57,
          "name": "A3",
          "ticks": 59040,
          "time": 181.1261505,
          "velocity": 0.47244094488188976
        },
        {
          "duration": 0.5714284000000021,
          "durationTicks": 192,
          "midi": 62,
          "name": "D4",
          "ticks": 59760,
          "time": 183.269007,
          "velocity": 0.47244094488188976
        },
        {
          "duration": 0.7142854999999884,
          "durationTicks": 240,
          "midi": 61,
          "name": "C#4",
          "ticks": 60720,
          "time": 186.126149,
          "velocity": 0.47244094488188976
        },
        {
          "duration": 0.7142854999999884,
          "durationTicks": 240,
          "midi": 59,
          "name": "B3",
          "ticks": 60960,
          "time": 186.8404345,
          "velocity": 0.47244094488188976
        },
        {
          "duration": 0.5714284000000021,
          "durationTicks": 192,
          "midi": 57,
          "name": "A3",
          "ticks": 61200,
          "time": 187.55471999999997,
          "velocity": 0.47244094488188976
        },
        {
          "duration": 0.7142854999999884,
          "durationTicks": 240,
          "midi": 66,
          "name": "F#4",
          "ticks": 65040,
          "time": 198.983288,
          "velocity": 0.47244094488188976
        },
        {
          "duration": 0.7142855000000168,
          "durationTicks": 240,
          "midi": 64,
          "name": "E4",
          "ticks": 65280,
          "time": 199.69757349999998,
          "velocity": 0.47244094488188976
        },
        {
          "duration": 0.5714284000000021,
          "durationTicks": 192,
          "midi": 64,
          "name": "E4",
          "ticks": 65520,
          "time": 200.411859,
          "velocity": 0.47244094488188976
        },
        {
          "duration": 5.714283999999992,
          "durationTicks": 1920,
          "midi": 52,
          "name": "E3",
          "ticks": 66240,
          "time": 202.5547155,
          "velocity": 0.47244094488188976
        },
        {
          "duration": 0.7142855000000168,
          "durationTicks": 240,
          "midi": 56,
          "name": "G#3",
          "ticks": 68160,
          "time": 208.26899949999998,
          "velocity": 0.47244094488188976
        },
        {
          "duration": 0.5714283999999736,
          "durationTicks": 192,
          "midi": 57,
          "name": "A3",
          "ticks": 68400,
          "time": 208.983285,
          "velocity": 0.47244094488188976
        },
        {
          "duration": 2.1428564999999935,
          "durationTicks": 720,
          "midi": 59,
          "name": "B3",
          "ticks": 69120,
          "time": 211.1261415,
          "velocity": 0.47244094488188976
        },
        {
          "duration": 2.142856500000022,
          "durationTicks": 720,
          "midi": 60,
          "name": "C4",
          "ticks": 69840,
          "time": 213.26899799999998,
          "velocity": 0.47244094488188976
        },
        {
          "duration": 0.5714283999999736,
          "durationTicks": 192,
          "midi": 61,
          "name": "C#4",
          "ticks": 70560,
          "time": 215.4118545,
          "velocity": 0.47244094488188976
        },
        {
          "duration": 0.5714284000000021,
          "durationTicks": 192,
          "midi": 64,
          "name": "E4",
          "ticks": 70800,
          "time": 216.12614,
          "velocity": 0.47244094488188976
        },
        {
          "duration": 0.5714284000000021,
          "durationTicks": 192,
          "midi": 64,
          "name": "E4",
          "ticks": 71040,
          "time": 216.84042549999998,
          "velocity": 0.47244094488188976
        },
        {
          "duration": 0.5714284000000021,
          "durationTicks": 192,
          "midi": 64,
          "name": "E4",
          "ticks": 71280,
          "time": 217.554711,
          "velocity": 0.47244094488188976
        },
        {
          "duration": 0.5714284000000021,
          "durationTicks": 192,
          "midi": 64,
          "name": "E4",
          "ticks": 71520,
          "time": 218.2689965,
          "velocity": 0.47244094488188976
        },
        {
          "duration": 0.5714284000000021,
          "durationTicks": 192,
          "midi": 64,
          "name": "E4",
          "ticks": 71760,
          "time": 218.98328199999997,
          "velocity": 0.47244094488188976
        },
        {
          "duration": 0.5714284000000021,
          "durationTicks": 192,
          "midi": 64,
          "name": "E4",
          "ticks": 72000,
          "time": 219.6975675,
          "velocity": 0.47244094488188976
        },
        {
          "duration": 0.5714283999999736,
          "durationTicks": 192,
          "midi": 64,
          "name": "E4",
          "ticks": 72240,
          "time": 220.411853,
          "velocity": 0.47244094488188976
        },
        {
          "duration": 0.5714284000000021,
          "durationTicks": 192,
          "midi": 64,
          "name": "E4",
          "ticks": 72480,
          "time": 221.12613849999997,
          "velocity": 0.47244094488188976
        },
        {
          "duration": 0.5714284000000021,
          "durationTicks": 192,
          "midi": 62,
          "name": "D4",
          "ticks": 72720,
          "time": 221.84042399999998,
          "velocity": 0.47244094488188976
        },
        {
          "duration": 0.5714284000000021,
          "durationTicks": 192,
          "midi": 64,
          "name": "E4",
          "ticks": 72720,
          "time": 221.84042399999998,
          "velocity": 0.47244094488188976
        },
        {
          "duration": 0.5714284000000021,
          "durationTicks": 192,
          "midi": 62,
          "name": "D4",
          "ticks": 72960,
          "time": 222.5547095,
          "velocity": 0.47244094488188976
        },
        {
          "duration": 0.5714284000000021,
          "durationTicks": 192,
          "midi": 64,
          "name": "E4",
          "ticks": 72960,
          "time": 222.5547095,
          "velocity": 0.47244094488188976
        },
        {
          "duration": 0.5714284000000021,
          "durationTicks": 192,
          "midi": 62,
          "name": "D4",
          "ticks": 73200,
          "time": 223.268995,
          "velocity": 0.47244094488188976
        },
        {
          "duration": 0.5714284000000021,
          "durationTicks": 192,
          "midi": 64,
          "name": "E4",
          "ticks": 73200,
          "time": 223.268995,
          "velocity": 0.47244094488188976
        },
        {
          "duration": 1.1707312000000059,
          "durationTicks": 384,
          "midi": 61,
          "name": "C#4",
          "ticks": 73440,
          "time": 223.98328049999998,
          "velocity": 0.47244094488188976
        },
        {
          "duration": 1.1707312000000059,
          "durationTicks": 384,
          "midi": 64,
          "name": "E4",
          "ticks": 73440,
          "time": 223.98328049999998,
          "velocity": 0.47244094488188976
        },
        {
          "duration": 13.5,
          "durationTicks": 4320,
          "midi": 49,
          "name": "C#3",
          "ticks": 97920,
          "time": 300.56359399999997,
          "velocity": 0.47244094488188976
        },
        {
          "duration": 2.25,
          "durationTicks": 720,
          "midi": 54,
          "name": "F#3",
          "ticks": 102240,
          "time": 314.06359399999997,
          "velocity": 0.47244094488188976
        },
        {
          "duration": 4.5,
          "durationTicks": 1440,
          "midi": 56,
          "name": "G#3",
          "ticks": 102960,
          "time": 316.31359399999997,
          "velocity": 0.47244094488188976
        },
        {
          "duration": 2.25,
          "durationTicks": 720,
          "midi": 54,
          "name": "F#3",
          "ticks": 104400,
          "time": 320.81359399999997,
          "velocity": 0.6299212598425197
        },
        {
          "duration": 2.25,
          "durationTicks": 720,
          "midi": 60,
          "name": "C4",
          "ticks": 105120,
          "time": 323.06359399999997,
          "velocity": 0.6299212598425197
        },
        {
          "duration": 2.25,
          "durationTicks": 720,
          "midi": 59,
          "name": "B3",
          "ticks": 105840,
          "time": 325.31359399999997,
          "velocity": 0.6299212598425197
        },
        {
          "duration": 2.25,
          "durationTicks": 720,
          "midi": 58,
          "name": "A#3",
          "ticks": 106560,
          "time": 327.56359399999997,
          "velocity": 0.6299212598425197
        },
        {
          "duration": 0.75,
          "durationTicks": 240,
          "midi": 59,
          "name": "B3",
          "ticks": 107280,
          "time": 329.81359399999997,
          "velocity": 0.6299212598425197
        },
        {
          "duration": 0.75,
          "durationTicks": 240,
          "midi": 55,
          "name": "G3",
          "ticks": 107520,
          "time": 330.56359399999997,
          "velocity": 0.6299212598425197
        },
        {
          "duration": 0.75,
          "durationTicks": 240,
          "midi": 54,
          "name": "F#3",
          "ticks": 107760,
          "time": 331.31359399999997,
          "velocity": 0.6299212598425197
        },
        {
          "duration": 0.75,
          "durationTicks": 240,
          "midi": 53,
          "name": "F3",
          "ticks": 108000,
          "time": 332.06359399999997,
          "velocity": 0.6299212598425197
        },
        {
          "duration": 0.75,
          "durationTicks": 240,
          "midi": 49,
          "name": "C#3",
          "ticks": 108240,
          "time": 332.81359399999997,
          "velocity": 0.6299212598425197
        },
        {
          "duration": 0.75,
          "durationTicks": 240,
          "midi": 54,
          "name": "F#3",
          "ticks": 108480,
          "time": 333.56359399999997,
          "velocity": 0.6299212598425197
        },
        {
          "duration": 0.75,
          "durationTicks": 240,
          "midi": 62,
          "name": "D4",
          "ticks": 108720,
          "time": 334.31359399999997,
          "velocity": 0.6299212598425197
        },
        {
          "duration": 0.75,
          "durationTicks": 240,
          "midi": 59,
          "name": "B3",
          "ticks": 108960,
          "time": 335.06359399999997,
          "velocity": 0.6299212598425197
        },
        {
          "duration": 0.75,
          "durationTicks": 240,
          "midi": 61,
          "name": "C#4",
          "ticks": 109200,
          "time": 335.81359399999997,
          "velocity": 0.6299212598425197
        },
        {
          "duration": 1.4250000000000682,
          "durationTicks": 456,
          "midi": 54,
          "name": "F#3",
          "ticks": 109440,
          "time": 336.56359399999997,
          "velocity": 0.5511811023622047
        },
        {
          "duration": 2.25,
          "durationTicks": 720,
          "midi": 61,
          "name": "C#4",
          "ticks": 110880,
          "time": 341.06359399999997,
          "velocity": 0.47244094488188976
        },
        {
          "duration": 4.5,
          "durationTicks": 1440,
          "midi": 65,
          "name": "F4",
          "ticks": 111600,
          "time": 343.31359399999997,
          "velocity": 0.47244094488188976
        },
        {
          "duration": 2.25,
          "durationTicks": 720,
          "midi": 66,
          "name": "F#4",
          "ticks": 113040,
          "time": 347.81359399999997,
          "velocity": 0.47244094488188976
        },
        {
          "duration": 2.25,
          "durationTicks": 720,
          "midi": 54,
          "name": "F#3",
          "ticks": 113760,
          "time": 350.06359399999997,
          "velocity": 0.47244094488188976
        },
        {
          "duration": 2.25,
          "durationTicks": 720,
          "midi": 59,
          "name": "B3",
          "ticks": 114480,
          "time": 352.31359399999997,
          "velocity": 0.47244094488188976
        },
        {
          "duration": 1.2000000000000455,
          "durationTicks": 384,
          "midi": 61,
          "name": "C#4",
          "ticks": 115200,
          "time": 354.56359399999997,
          "velocity": 0.47244094488188976
        },
        {
          "duration": 2.195120999999972,
          "durationTicks": 720,
          "midi": 71,
          "name": "B4",
          "ticks": 133920,
          "time": 411.23954,
          "velocity": 0.47244094488188976
        },
        {
          "duration": 2.9268280000000004,
          "durationTicks": 960,
          "midi": 56,
          "name": "G#3",
          "ticks": 134640,
          "time": 413.43466099999995,
          "velocity": 0.47244094488188976
        },
        {
          "duration": 0.43902420000000575,
          "durationTicks": 144,
          "midi": 54,
          "name": "F#3",
          "ticks": 135600,
          "time": 416.36148899999995,
          "velocity": 0.47244094488188976
        },
        {
          "duration": 0.43902420000000575,
          "durationTicks": 144,
          "midi": 54,
          "name": "F#3",
          "ticks": 135840,
          "time": 417.093196,
          "velocity": 0.47244094488188976
        },
        {
          "duration": 2.195120999999972,
          "durationTicks": 720,
          "midi": 71,
          "name": "B4",
          "ticks": 136800,
          "time": 420.020024,
          "velocity": 0.47244094488188976
        },
        {
          "duration": 2.9268280000000004,
          "durationTicks": 960,
          "midi": 56,
          "name": "G#3",
          "ticks": 137520,
          "time": 422.21514499999995,
          "velocity": 0.47244094488188976
        },
        {
          "duration": 0.43902420000000575,
          "durationTicks": 144,
          "midi": 54,
          "name": "F#3",
          "ticks": 138480,
          "time": 425.14197299999995,
          "velocity": 0.47244094488188976
        },
        {
          "duration": 0.43902420000000575,
          "durationTicks": 144,
          "midi": 54,
          "name": "F#3",
          "ticks": 138720,
          "time": 425.87368,
          "velocity": 0.47244094488188976
        },
        {
          "duration": 2.25,
          "durationTicks": 720,
          "midi": 61,
          "name": "C#4",
          "ticks": 139680,
          "time": 428.800508,
          "velocity": 0.47244094488188976
        },
        {
          "duration": 2.3864814666666803,
          "durationTicks": 720,
          "midi": 59,
          "name": "B3",
          "ticks": 140400,
          "time": 431.050508,
          "velocity": 0.47244094488188976
        },
        {
          "duration": 0.6096093749999341,
          "durationTicks": 180,
          "midi": 57,
          "name": "A3",
          "ticks": 141120,
          "time": 433.43698946666666,
          "velocity": 0.4251968503937008
        },
        {
          "duration": 0.6081078749999733,
          "durationTicks": 180,
          "midi": 66,
          "name": "F#4",
          "ticks": 141840,
          "time": 435.8709224666666,
          "velocity": 0.4094488188976378
        },
        {
          "duration": 0.6818178749999788,
          "durationTicks": 180,
          "midi": 69,
          "name": "A4",
          "ticks": 142560,
          "time": 438.3558635666666,
          "velocity": 0.4015748031496063
        }
      ],
      "endOfTrackTicks": 142740
    },
    {
      "channel": 13,
      "controlChanges": {
        "7": [
          {
            "number": 7,
            "ticks": 0,
            "time": 0,
            "value": 0.7952755905511811
          }
        ],
        "10": [
          {
            "number": 10,
            "ticks": 0,
            "time": 0,
            "value": 0.6614173228346457
          }
        ],
        "91": [
          {
            "number": 91,
            "ticks": 0,
            "time": 0,
            "value": 0.6299212598425197
          }
        ]
      },
      "pitchBends": [],
      "instrument": {
        "family": "ensemble",
        "number": 48,
        "name": "string ensemble 1"
      },
      "name": "",
      "notes": [
        {
          "duration": 0.5999999999999943,
          "durationTicks": 192,
          "midi": 54,
          "name": "F#3",
          "ticks": 17280,
          "time": 51.75,
          "velocity": 0.47244094488188976
        },
        {
          "duration": 0.5999999999999943,
          "durationTicks": 192,
          "midi": 54,
          "name": "F#3",
          "ticks": 18000,
          "time": 54,
          "velocity": 0.47244094488188976
        },
        {
          "duration": 0.5999999999999943,
          "durationTicks": 192,
          "midi": 54,
          "name": "F#3",
          "ticks": 18720,
          "time": 56.25,
          "velocity": 0.47244094488188976
        },
        {
          "duration": 0.5999999999999943,
          "durationTicks": 192,
          "midi": 56,
          "name": "G#3",
          "ticks": 19440,
          "time": 58.5,
          "velocity": 0.47244094488188976
        },
        {
          "duration": 0.5999999999999943,
          "durationTicks": 192,
          "midi": 57,
          "name": "A3",
          "ticks": 20160,
          "time": 60.75,
          "velocity": 0.47244094488188976
        },
        {
          "duration": 0.5999999999999943,
          "durationTicks": 192,
          "midi": 45,
          "name": "A2",
          "ticks": 20880,
          "time": 63,
          "velocity": 0.47244094488188976
        },
        {
          "duration": 0.5999999999999943,
          "durationTicks": 192,
          "midi": 47,
          "name": "B2",
          "ticks": 21600,
          "time": 65.25,
          "velocity": 0.47244094488188976
        },
        {
          "duration": 0.5999999999999943,
          "durationTicks": 192,
          "midi": 59,
          "name": "B3",
          "ticks": 22320,
          "time": 67.5,
          "velocity": 0.47244094488188976
        },
        {
          "duration": 0.5999999999999943,
          "durationTicks": 192,
          "midi": 61,
          "name": "C#4",
          "ticks": 23040,
          "time": 69.75,
          "velocity": 0.47244094488188976
        },
        {
          "duration": 0.5999999999999943,
          "durationTicks": 192,
          "midi": 54,
          "name": "F#3",
          "ticks": 23760,
          "time": 72,
          "velocity": 0.7086614173228346
        },
        {
          "duration": 0.5999999999999943,
          "durationTicks": 192,
          "midi": 48,
          "name": "C3",
          "ticks": 24480,
          "time": 74.25,
          "velocity": 0.7086614173228346
        },
        {
          "duration": 0.5999999999999943,
          "durationTicks": 192,
          "midi": 47,
          "name": "B2",
          "ticks": 25200,
          "time": 76.5,
          "velocity": 0.7086614173228346
        },
        {
          "duration": 2.25,
          "durationTicks": 720,
          "midi": 46,
          "name": "A#2",
          "ticks": 25920,
          "time": 78.75,
          "velocity": 0.7086614173228346
        },
        {
          "duration": 0.75,
          "durationTicks": 240,
          "midi": 47,
          "name": "B2",
          "ticks": 26640,
          "time": 81,
          "velocity": 0.7086614173228346
        },
        {
          "duration": 0.75,
          "durationTicks": 240,
          "midi": 55,
          "name": "G3",
          "ticks": 26880,
          "time": 81.75,
          "velocity": 0.7086614173228346
        },
        {
          "duration": 0.75,
          "durationTicks": 240,
          "midi": 54,
          "name": "F#3",
          "ticks": 27120,
          "time": 82.5,
          "velocity": 0.7086614173228346
        },
        {
          "duration": 0.75,
          "durationTicks": 240,
          "midi": 53,
          "name": "F3",
          "ticks": 27360,
          "time": 83.25,
          "velocity": 0.7086614173228346
        },
        {
          "duration": 0.75,
          "durationTicks": 240,
          "midi": 49,
          "name": "C#3",
          "ticks": 27600,
          "time": 84,
          "velocity": 0.7086614173228346
        },
        {
          "duration": 0.75,
          "durationTicks": 240,
          "midi": 54,
          "name": "F#3",
          "ticks": 27840,
          "time": 84.75,
          "velocity": 0.7086614173228346
        },
        {
          "duration": 0.75,
          "durationTicks": 240,
          "midi": 50,
          "name": "D3",
          "ticks": 28080,
          "time": 85.5,
          "velocity": 0.7086614173228346
        },
        {
          "duration": 0.75,
          "durationTicks": 240,
          "midi": 47,
          "name": "B2",
          "ticks": 28320,
          "time": 86.25,
          "velocity": 0.7086614173228346
        },
        {
          "duration": 0.75,
          "durationTicks": 240,
          "midi": 49,
          "name": "C#3",
          "ticks": 28560,
          "time": 87,
          "velocity": 0.7086614173228346
        },
        {
          "duration": 1.4250000000000114,
          "durationTicks": 456,
          "midi": 42,
          "name": "F#2",
          "ticks": 28800,
          "time": 87.75,
          "velocity": 0.6299212598425197
        },
        {
          "duration": 4.5,
          "durationTicks": 1440,
          "midi": 56,
          "name": "G#3",
          "ticks": 36000,
          "time": 110.25,
          "velocity": 0.47244094488188976
        },
        {
          "duration": 2.25,
          "durationTicks": 720,
          "midi": 57,
          "name": "A3",
          "ticks": 37440,
          "time": 114.75,
          "velocity": 0.47244094488188976
        },
        {
          "duration": 2.25,
          "durationTicks": 720,
          "midi": 49,
          "name": "C#3",
          "ticks": 38160,
          "time": 117,
          "velocity": 0.47244094488188976
        },
        {
          "duration": 2.25,
          "durationTicks": 720,
          "midi": 50,
          "name": "D3",
          "ticks": 38880,
          "time": 119.25,
          "velocity": 0.47244094488188976
        },
        {
          "duration": 2.25,
          "durationTicks": 720,
          "midi": 51,
          "name": "D#3",
          "ticks": 39600,
          "time": 121.5,
          "velocity": 0.47244094488188976
        },
        {
          "duration": 0.6000000000000085,
          "durationTicks": 192,
          "midi": 52,
          "name": "E3",
          "ticks": 40320,
          "time": 123.75,
          "velocity": 0.47244094488188976
        },
        {
          "duration": 0.6000000000000085,
          "durationTicks": 192,
          "midi": 52,
          "name": "E3",
          "ticks": 41040,
          "time": 126,
          "velocity": 0.47244094488188976
        },
        {
          "duration": 0.6000000000000227,
          "durationTicks": 192,
          "midi": 52,
          "name": "E3",
          "ticks": 41760,
          "time": 128.25,
          "velocity": 0.47244094488188976
        },
        {
          "duration": 0.6000000000000227,
          "durationTicks": 192,
          "midi": 52,
          "name": "E3",
          "ticks": 42480,
          "time": 130.5,
          "velocity": 0.47244094488188976
        },
        {
          "duration": 0.6000000000000227,
          "durationTicks": 192,
          "midi": 52,
          "name": "E3",
          "ticks": 43200,
          "time": 132.75,
          "velocity": 0.47244094488188976
        },
        {
          "duration": 0.6000000000000227,
          "durationTicks": 192,
          "midi": 52,
          "name": "E3",
          "ticks": 43920,
          "time": 135,
          "velocity": 0.47244094488188976
        },
        {
          "duration": 0.6000000000000227,
          "durationTicks": 192,
          "midi": 53,
          "name": "F3",
          "ticks": 44640,
          "time": 137.25,
          "velocity": 0.5590551181102362
        },
        {
          "duration": 0.6000000000000227,
          "durationTicks": 192,
          "midi": 53,
          "name": "F3",
          "ticks": 45360,
          "time": 139.5,
          "velocity": 0.49606299212598426
        },
        {
          "duration": 10.199999999999989,
          "durationTicks": 3264,
          "midi": 52,
          "name": "E3",
          "ticks": 46080,
          "time": 141.75,
          "velocity": 0.4409448818897638
        },
        {
          "duration": 1.3571424499999978,
          "durationTicks": 456,
          "midi": 57,
          "name": "A3",
          "ticks": 50400,
          "time": 155.4118725,
          "velocity": 0.47244094488188976
        },
        {
          "duration": 0.6785712249999847,
          "durationTicks": 228,
          "midi": 57,
          "name": "A3",
          "ticks": 50880,
          "time": 156.8404435,
          "velocity": 0.47244094488188976
        },
        {
          "duration": 1.3571424499999978,
          "durationTicks": 456,
          "midi": 57,
          "name": "A3",
          "ticks": 51120,
          "time": 157.55472899999998,
          "velocity": 0.47244094488188976
        },
        {
          "duration": 0.6785712250000131,
          "durationTicks": 228,
          "midi": 57,
          "name": "A3",
          "ticks": 51600,
          "time": 158.98329999999999,
          "velocity": 0.47244094488188976
        },
        {
          "duration": 1.3571424500000262,
          "durationTicks": 456,
          "midi": 56,
          "name": "G#3",
          "ticks": 51840,
          "time": 159.69758549999997,
          "velocity": 0.47244094488188976
        },
        {
          "duration": 0.6785712250000131,
          "durationTicks": 228,
          "midi": 56,
          "name": "G#3",
          "ticks": 52320,
          "time": 161.12615649999998,
          "velocity": 0.47244094488188976
        },
        {
          "duration": 1.3571424499999978,
          "durationTicks": 456,
          "midi": 56,
          "name": "G#3",
          "ticks": 52560,
          "time": 161.840442,
          "velocity": 0.47244094488188976
        },
        {
          "duration": 0.6785712250000131,
          "durationTicks": 228,
          "midi": 56,
          "name": "G#3",
          "ticks": 53040,
          "time": 163.26901299999997,
          "velocity": 0.47244094488188976
        },
        {
          "duration": 1.1428568000000041,
          "durationTicks": 384,
          "midi": 57,
          "name": "A3",
          "ticks": 53280,
          "time": 163.9832985,
          "velocity": 0.47244094488188976
        },
        {
          "duration": 0.5714284000000021,
          "durationTicks": 192,
          "midi": 52,
          "name": "E3",
          "ticks": 54720,
          "time": 168.26901149999998,
          "velocity": 0.47244094488188976
        },
        {
          "duration": 0.5714284000000021,
          "durationTicks": 192,
          "midi": 52,
          "name": "E3",
          "ticks": 54960,
          "time": 168.983297,
          "velocity": 0.47244094488188976
        },
        {
          "duration": 0.5714284000000021,
          "durationTicks": 192,
          "midi": 52,
          "name": "E3",
          "ticks": 55200,
          "time": 169.69758249999998,
          "velocity": 0.47244094488188976
        },
        {
          "duration": 0.5714284000000021,
          "durationTicks": 192,
          "midi": 52,
          "name": "E3",
          "ticks": 55440,
          "time": 170.411868,
          "velocity": 0.47244094488188976
        },
        {
          "duration": 0.7142855000000168,
          "durationTicks": 240,
          "midi": 52,
          "name": "E3",
          "ticks": 58800,
          "time": 180.41186499999998,
          "velocity": 0.47244094488188976
        },
        {
          "duration": 0.5714284000000021,
          "durationTicks": 192,
          "midi": 54,
          "name": "F#3",
          "ticks": 59040,
          "time": 181.1261505,
          "velocity": 0.47244094488188976
        },
        {
          "duration": 0.5714284000000021,
          "durationTicks": 192,
          "midi": 50,
          "name": "D3",
          "ticks": 59760,
          "time": 183.269007,
          "velocity": 0.47244094488188976
        },
        {
          "duration": 2.1428564999999935,
          "durationTicks": 720,
          "midi": 52,
          "name": "E3",
          "ticks": 60480,
          "time": 185.41186349999998,
          "velocity": 0.47244094488188976
        },
        {
          "duration": 0.5714284000000021,
          "durationTicks": 192,
          "midi": 45,
          "name": "A2",
          "ticks": 61200,
          "time": 187.55471999999997,
          "velocity": 0.47244094488188976
        },
        {
          "duration": 0.7142854999999884,
          "durationTicks": 240,
          "midi": 50,
          "name": "D3",
          "ticks": 65040,
          "time": 198.983288,
          "velocity": 0.47244094488188976
        },
        {
          "duration": 0.7142855000000168,
          "durationTicks": 240,
          "midi": 52,
          "name": "E3",
          "ticks": 65280,
          "time": 199.69757349999998,
          "velocity": 0.47244094488188976
        },
        {
          "duration": 0.5714284000000021,
          "durationTicks": 192,
          "midi": 45,
          "name": "A2",
          "ticks": 65520,
          "time": 200.411859,
          "velocity": 0.47244094488188976
        },
        {
          "duration": 0.7142854999999884,
          "durationTicks": 240,
          "midi": 44,
          "name": "G#2",
          "ticks": 66480,
          "time": 203.269001,
          "velocity": 0.47244094488188976
        },
        {
          "duration": 0.7142854999999884,
          "durationTicks": 240,
          "midi": 45,
          "name": "A2",
          "ticks": 66720,
          "time": 203.9832865,
          "velocity": 0.47244094488188976
        },
        {
          "duration": 0.5714284000000021,
          "durationTicks": 192,
          "midi": 52,
          "name": "E3",
          "ticks": 66960,
          "time": 204.69757199999998,
          "velocity": 0.47244094488188976
        },
        {
          "duration": 0.7142855000000168,
          "durationTicks": 240,
          "midi": 45,
          "name": "A2",
          "ticks": 67680,
          "time": 206.84042849999997,
          "velocity": 0.47244094488188976
        },
        {
          "duration": 0.7142854999999884,
          "durationTicks": 240,
          "midi": 49,
          "name": "C#3",
          "ticks": 67920,
          "time": 207.554714,
          "velocity": 0.47244094488188976
        },
        {
          "duration": 0.7142855000000168,
          "durationTicks": 240,
          "midi": 52,
          "name": "E3",
          "ticks": 68160,
          "time": 208.26899949999998,
          "velocity": 0.47244094488188976
        },
        {
          "duration": 0.5714283999999736,
          "durationTicks": 192,
          "midi": 54,
          "name": "F#3",
          "ticks": 68400,
          "time": 208.983285,
          "velocity": 0.47244094488188976
        },
        {
          "duration": 2.1428564999999935,
          "durationTicks": 720,
          "midi": 50,
          "name": "D3",
          "ticks": 69120,
          "time": 211.1261415,
          "velocity": 0.47244094488188976
        },
        {
          "duration": 2.142856500000022,
          "durationTicks": 720,
          "midi": 51,
          "name": "D#3",
          "ticks": 69840,
          "time": 213.26899799999998,
          "velocity": 0.47244094488188976
        },
        {
          "duration": 1.1428567999999757,
          "durationTicks": 384,
          "midi": 52,
          "name": "E3",
          "ticks": 70560,
          "time": 215.4118545,
          "velocity": 0.47244094488188976
        },
        {
          "duration": 1.1428568000000041,
          "durationTicks": 384,
          "midi": 52,
          "name": "E3",
          "ticks": 71280,
          "time": 217.554711,
          "velocity": 0.47244094488188976
        },
        {
          "duration": 1.1428568000000041,
          "durationTicks": 384,
          "midi": 52,
          "name": "E3",
          "ticks": 72000,
          "time": 219.6975675,
          "velocity": 0.47244094488188976
        },
        {
          "duration": 1.1428568000000041,
          "durationTicks": 384,
          "midi": 52,
          "name": "E3",
          "ticks": 72720,
          "time": 221.84042399999998,
          "velocity": 0.47244094488188976
        },
        {
          "duration": 0.5853655999999887,
          "durationTicks": 192,
          "midi": 45,
          "name": "A2",
          "ticks": 73440,
          "time": 223.98328049999998,
          "velocity": 0.47244094488188976
        },
        {
          "duration": 0.5853655999999887,
          "durationTicks": 192,
          "midi": 47,
          "name": "B2",
          "ticks": 74160,
          "time": 226.17840149999998,
          "velocity": 0.47244094488188976
        },
        {
          "duration": 0.5853655999999887,
          "durationTicks": 192,
          "midi": 49,
          "name": "C#3",
          "ticks": 74880,
          "time": 228.37352249999998,
          "velocity": 0.47244094488188976
        },
        {
          "duration": 0.6315787999999998,
          "durationTicks": 192,
          "midi": 49,
          "name": "C#3",
          "ticks": 75600,
          "time": 230.60616749999997,
          "velocity": 0.47244094488188976
        },
        {
          "duration": 1.1999999999999886,
          "durationTicks": 384,
          "midi": 54,
          "name": "F#3",
          "ticks": 76320,
          "time": 233.063594,
          "velocity": 0.47244094488188976
        },
        {
          "duration": 0.6000000000000227,
          "durationTicks": 192,
          "midi": 54,
          "name": "F#3",
          "ticks": 97920,
          "time": 300.56359399999997,
          "velocity": 0.47244094488188976
        },
        {
          "duration": 0.6000000000000227,
          "durationTicks": 192,
          "midi": 54,
          "name": "F#3",
          "ticks": 98640,
          "time": 302.81359399999997,
          "velocity": 0.47244094488188976
        },
        {
          "duration": 0.6000000000000227,
          "durationTicks": 192,
          "midi": 54,
          "name": "F#3",
          "ticks": 99360,
          "time": 305.06359399999997,
          "velocity": 0.47244094488188976
        },
        {
          "duration": 0.6000000000000227,
          "durationTicks": 192,
          "midi": 56,
          "name": "G#3",
          "ticks": 100080,
          "time": 307.31359399999997,
          "velocity": 0.47244094488188976
        },
        {
          "duration": 0.6000000000000227,
          "durationTicks": 192,
          "midi": 57,
          "name": "A3",
          "ticks": 100800,
          "time": 309.56359399999997,
          "velocity": 0.47244094488188976
        },
        {
          "duration": 0.6000000000000227,
          "durationTicks": 192,
          "midi": 45,
          "name": "A2",
          "ticks": 101520,
          "time": 311.81359399999997,
          "velocity": 0.47244094488188976
        },
        {
          "duration": 0.6000000000000227,
          "durationTicks": 192,
          "midi": 47,
          "name": "B2",
          "ticks": 102240,
          "time": 314.06359399999997,
          "velocity": 0.47244094488188976
        },
        {
          "duration": 0.6000000000000227,
          "durationTicks": 192,
          "midi": 59,
          "name": "B3",
          "ticks": 102960,
          "time": 316.31359399999997,
          "velocity": 0.47244094488188976
        },
        {
          "duration": 0.6000000000000227,
          "durationTicks": 192,
          "midi": 61,
          "name": "C#4",
          "ticks": 103680,
          "time": 318.56359399999997,
          "velocity": 0.47244094488188976
        },
        {
          "duration": 0.6000000000000227,
          "durationTicks": 192,
          "midi": 54,
          "name": "F#3",
          "ticks": 104400,
          "time": 320.81359399999997,
          "velocity": 0.7086614173228346
        },
        {
          "duration": 0.75,
          "durationTicks": 240,
          "midi": 48,
          "name": "C3",
          "ticks": 105120,
          "time": 323.06359399999997,
          "velocity": 0.7086614173228346
        },
        {
          "duration": 0.75,
          "durationTicks": 240,
          "midi": 47,
          "name": "B2",
          "ticks": 105840,
          "time": 325.31359399999997,
          "velocity": 0.7086614173228346
        },
        {
          "duration": 2.25,
          "durationTicks": 720,
          "midi": 46,
          "name": "A#2",
          "ticks": 106560,
          "time": 327.56359399999997,
          "velocity": 0.7086614173228346
        },
        {
          "duration": 0.75,
          "durationTicks": 240,
          "midi": 47,
          "name": "B2",
          "ticks": 107280,
          "time": 329.81359399999997,
          "velocity": 0.7086614173228346
        },
        {
          "duration": 0.75,
          "durationTicks": 240,
          "midi": 55,
          "name": "G3",
          "ticks": 107520,
          "time": 330.56359399999997,
          "velocity": 0.7086614173228346
        },
        {
          "duration": 0.75,
          "durationTicks": 240,
          "midi": 54,
          "name": "F#3",
          "ticks": 107760,
          "time": 331.31359399999997,
          "velocity": 0.7086614173228346
        },
        {
          "duration": 0.75,
          "durationTicks": 240,
          "midi": 53,
          "name": "F3",
          "ticks": 108000,
          "time": 332.06359399999997,
          "velocity": 0.7086614173228346
        },
        {
          "duration": 0.75,
          "durationTicks": 240,
          "midi": 49,
          "name": "C#3",
          "ticks": 108240,
          "time": 332.81359399999997,
          "velocity": 0.7086614173228346
        },
        {
          "duration": 0.75,
          "durationTicks": 240,
          "midi": 54,
          "name": "F#3",
          "ticks": 108480,
          "time": 333.56359399999997,
          "velocity": 0.7086614173228346
        },
        {
          "duration": 0.75,
          "durationTicks": 240,
          "midi": 50,
          "name": "D3",
          "ticks": 108720,
          "time": 334.31359399999997,
          "velocity": 0.7086614173228346
        },
        {
          "duration": 0.75,
          "durationTicks": 240,
          "midi": 47,
          "name": "B2",
          "ticks": 108960,
          "time": 335.06359399999997,
          "velocity": 0.7086614173228346
        },
        {
          "duration": 0.75,
          "durationTicks": 240,
          "midi": 49,
          "name": "C#3",
          "ticks": 109200,
          "time": 335.81359399999997,
          "velocity": 0.7086614173228346
        },
        {
          "duration": 0.6000000000000227,
          "durationTicks": 192,
          "midi": 42,
          "name": "F#2",
          "ticks": 109440,
          "time": 336.56359399999997,
          "velocity": 0.6299212598425197
        },
        {
          "duration": 0.6000000000000227,
          "durationTicks": 192,
          "midi": 54,
          "name": "F#3",
          "ticks": 110160,
          "time": 338.81359399999997,
          "velocity": 0.47244094488188976
        },
        {
          "duration": 0.6000000000000227,
          "durationTicks": 192,
          "midi": 54,
          "name": "F#3",
          "ticks": 110880,
          "time": 341.06359399999997,
          "velocity": 0.47244094488188976
        },
        {
          "duration": 0.6000000000000227,
          "durationTicks": 192,
          "midi": 56,
          "name": "G#3",
          "ticks": 111600,
          "time": 343.31359399999997,
          "velocity": 0.47244094488188976
        },
        {
          "duration": 0.6000000000000227,
          "durationTicks": 192,
          "midi": 57,
          "name": "A3",
          "ticks": 112320,
          "time": 345.56359399999997,
          "velocity": 0.47244094488188976
        },
        {
          "duration": 0.6000000000000227,
          "durationTicks": 192,
          "midi": 57,
          "name": "A3",
          "ticks": 113040,
          "time": 347.81359399999997,
          "velocity": 0.47244094488188976
        },
        {
          "duration": 0.6000000000000227,
          "durationTicks": 192,
          "midi": 59,
          "name": "B3",
          "ticks": 113760,
          "time": 350.06359399999997,
          "velocity": 0.47244094488188976
        },
        {
          "duration": 0.6000000000000227,
          "durationTicks": 192,
          "midi": 47,
          "name": "B2",
          "ticks": 114480,
          "time": 352.31359399999997,
          "velocity": 0.47244094488188976
        },
        {
          "duration": 17.912500000000023,
          "durationTicks": 5732,
          "midi": 49,
          "name": "C#3",
          "ticks": 115200,
          "time": 354.56359399999997,
          "velocity": 0.47244094488188976
        },
        {
          "duration": 0.5853656000000456,
          "durationTicks": 192,
          "midi": 45,
          "name": "A2",
          "ticks": 133200,
          "time": 409.04441899999995,
          "velocity": 0.47244094488188976
        },
        {
          "duration": 0.5853655999999887,
          "durationTicks": 192,
          "midi": 47,
          "name": "B2",
          "ticks": 133920,
          "time": 411.23954,
          "velocity": 0.47244094488188976
        },
        {
          "duration": 0.5853656000000456,
          "durationTicks": 192,
          "midi": 49,
          "name": "C#3",
          "ticks": 134640,
          "time": 413.43466099999995,
          "velocity": 0.47244094488188976
        },
        {
          "duration": 0.5853655999999887,
          "durationTicks": 192,
          "midi": 45,
          "name": "A2",
          "ticks": 135360,
          "time": 415.629782,
          "velocity": 0.47244094488188976
        },
        {
          "duration": 0.5853656000000456,
          "durationTicks": 192,
          "midi": 50,
          "name": "D3",
          "ticks": 136080,
          "time": 417.82490299999995,
          "velocity": 0.47244094488188976
        },
        {
          "duration": 0.5853655999999887,
          "durationTicks": 192,
          "midi": 47,
          "name": "B2",
          "ticks": 136800,
          "time": 420.020024,
          "velocity": 0.47244094488188976
        },
        {
          "duration": 0.5853656000000456,
          "durationTicks": 192,
          "midi": 49,
          "name": "C#3",
          "ticks": 137520,
          "time": 422.21514499999995,
          "velocity": 0.47244094488188976
        },
        {
          "duration": 0.5853655999999887,
          "durationTicks": 192,
          "midi": 45,
          "name": "A2",
          "ticks": 138240,
          "time": 424.410266,
          "velocity": 0.47244094488188976
        },
        {
          "duration": 0.5853656000000456,
          "durationTicks": 192,
          "midi": 48,
          "name": "C3",
          "ticks": 138960,
          "time": 426.60538699999995,
          "velocity": 0.47244094488188976
        },
        {
          "duration": 0.6000000000000227,
          "durationTicks": 192,
          "midi": 49,
          "name": "C#3",
          "ticks": 139680,
          "time": 428.800508,
          "velocity": 0.47244094488188976
        },
        {
          "duration": 0.614102366666657,
          "durationTicks": 192,
          "midi": 49,
          "name": "C#3",
          "ticks": 140400,
          "time": 431.050508,
          "velocity": 0.47244094488188976
        },
        {
          "duration": 0.6096093749999341,
          "durationTicks": 180,
          "midi": 54,
          "name": "F#3",
          "ticks": 141120,
          "time": 433.43698946666666,
          "velocity": 0.4330708661417323
        },
        {
          "duration": 0.6081078749999733,
          "durationTicks": 180,
          "midi": 54,
          "name": "F#3",
          "ticks": 141840,
          "time": 435.8709224666666,
          "velocity": 0.41732283464566927
        },
        {
          "duration": 0.6818178749999788,
          "durationTicks": 180,
          "midi": 54,
          "name": "F#3",
          "ticks": 142560,
          "time": 438.3558635666666,
          "velocity": 0.4094488188976378
        }
      ],
      "endOfTrackTicks": 142740
    },
    {
      "channel": 14,
      "controlChanges": {
        "7": [
          {
            "number": 7,
            "ticks": 0,
            "time": 0,
            "value": 0.6220472440944882
          }
        ],
        "10": [
          {
            "number": 10,
            "ticks": 0,
            "time": 0,
            "value": 0.7559055118110236
          }
        ],
        "91": [
          {
            "number": 91,
            "ticks": 0,
            "time": 0,
            "value": 0.7874015748031497
          }
        ]
      },
      "pitchBends": [],
      "instrument": {
        "family": "strings",
        "number": 43,
        "name": "contrabass"
      },
      "name": "",
      "notes": [
        {
          "duration": 0.5999999999999943,
          "durationTicks": 192,
          "midi": 42,
          "name": "F#2",
          "ticks": 17280,
          "time": 51.75,
          "velocity": 0.47244094488188976
        },
        {
          "duration": 0.5999999999999943,
          "durationTicks": 192,
          "midi": 42,
          "name": "F#2",
          "ticks": 18000,
          "time": 54,
          "velocity": 0.47244094488188976
        },
        {
          "duration": 0.5999999999999943,
          "durationTicks": 192,
          "midi": 42,
          "name": "F#2",
          "ticks": 18720,
          "time": 56.25,
          "velocity": 0.47244094488188976
        },
        {
          "duration": 0.5999999999999943,
          "durationTicks": 192,
          "midi": 44,
          "name": "G#2",
          "ticks": 19440,
          "time": 58.5,
          "velocity": 0.47244094488188976
        },
        {
          "duration": 0.5999999999999943,
          "durationTicks": 192,
          "midi": 45,
          "name": "A2",
          "ticks": 20160,
          "time": 60.75,
          "velocity": 0.47244094488188976
        },
        {
          "duration": 0.5999999999999943,
          "durationTicks": 192,
          "midi": 33,
          "name": "A1",
          "ticks": 20880,
          "time": 63,
          "velocity": 0.47244094488188976
        },
        {
          "duration": 0.5999999999999943,
          "durationTicks": 192,
          "midi": 35,
          "name": "B1",
          "ticks": 21600,
          "time": 65.25,
          "velocity": 0.47244094488188976
        },
        {
          "duration": 0.5999999999999943,
          "durationTicks": 192,
          "midi": 47,
          "name": "B2",
          "ticks": 22320,
          "time": 67.5,
          "velocity": 0.47244094488188976
        },
        {
          "duration": 0.5999999999999943,
          "durationTicks": 192,
          "midi": 49,
          "name": "C#3",
          "ticks": 23040,
          "time": 69.75,
          "velocity": 0.47244094488188976
        },
        {
          "duration": 0.5999999999999943,
          "durationTicks": 192,
          "midi": 42,
          "name": "F#2",
          "ticks": 23760,
          "time": 72,
          "velocity": 0.7086614173228346
        },
        {
          "duration": 0.5999999999999943,
          "durationTicks": 192,
          "midi": 36,
          "name": "C2",
          "ticks": 24480,
          "time": 74.25,
          "velocity": 0.7086614173228346
        },
        {
          "duration": 0.5999999999999943,
          "durationTicks": 192,
          "midi": 35,
          "name": "B1",
          "ticks": 25200,
          "time": 76.5,
          "velocity": 0.7086614173228346
        },
        {
          "duration": 2.25,
          "durationTicks": 720,
          "midi": 34,
          "name": "A#1",
          "ticks": 25920,
          "time": 78.75,
          "velocity": 0.7086614173228346
        },
        {
          "duration": 0.75,
          "durationTicks": 240,
          "midi": 35,
          "name": "B1",
          "ticks": 26640,
          "time": 81,
          "velocity": 0.7086614173228346
        },
        {
          "duration": 0.75,
          "durationTicks": 240,
          "midi": 43,
          "name": "G2",
          "ticks": 26880,
          "time": 81.75,
          "velocity": 0.7086614173228346
        },
        {
          "duration": 0.75,
          "durationTicks": 240,
          "midi": 42,
          "name": "F#2",
          "ticks": 27120,
          "time": 82.5,
          "velocity": 0.7086614173228346
        },
        {
          "duration": 0.75,
          "durationTicks": 240,
          "midi": 41,
          "name": "F2",
          "ticks": 27360,
          "time": 83.25,
          "velocity": 0.7086614173228346
        },
        {
          "duration": 0.75,
          "durationTicks": 240,
          "midi": 37,
          "name": "C#2",
          "ticks": 27600,
          "time": 84,
          "velocity": 0.7086614173228346
        },
        {
          "duration": 0.75,
          "durationTicks": 240,
          "midi": 42,
          "name": "F#2",
          "ticks": 27840,
          "time": 84.75,
          "velocity": 0.7086614173228346
        },
        {
          "duration": 0.75,
          "durationTicks": 240,
          "midi": 38,
          "name": "D2",
          "ticks": 28080,
          "time": 85.5,
          "velocity": 0.7086614173228346
        },
        {
          "duration": 0.75,
          "durationTicks": 240,
          "midi": 35,
          "name": "B1",
          "ticks": 28320,
          "time": 86.25,
          "velocity": 0.7086614173228346
        },
        {
          "duration": 0.75,
          "durationTicks": 240,
          "midi": 37,
          "name": "C#2",
          "ticks": 28560,
          "time": 87,
          "velocity": 0.7086614173228346
        },
        {
          "duration": 1.4250000000000114,
          "durationTicks": 456,
          "midi": 30,
          "name": "F#1",
          "ticks": 28800,
          "time": 87.75,
          "velocity": 0.6299212598425197
        },
        {
          "duration": 4.5,
          "durationTicks": 1440,
          "midi": 44,
          "name": "G#2",
          "ticks": 36000,
          "time": 110.25,
          "velocity": 0.47244094488188976
        },
        {
          "duration": 2.25,
          "durationTicks": 720,
          "midi": 45,
          "name": "A2",
          "ticks": 37440,
          "time": 114.75,
          "velocity": 0.47244094488188976
        },
        {
          "duration": 2.25,
          "durationTicks": 720,
          "midi": 37,
          "name": "C#2",
          "ticks": 38160,
          "time": 117,
          "velocity": 0.47244094488188976
        },
        {
          "duration": 2.25,
          "durationTicks": 720,
          "midi": 38,
          "name": "D2",
          "ticks": 38880,
          "time": 119.25,
          "velocity": 0.47244094488188976
        },
        {
          "duration": 2.25,
          "durationTicks": 720,
          "midi": 39,
          "name": "D#2",
          "ticks": 39600,
          "time": 121.5,
          "velocity": 0.47244094488188976
        },
        {
          "duration": 0.6000000000000085,
          "durationTicks": 192,
          "midi": 40,
          "name": "E2",
          "ticks": 40320,
          "time": 123.75,
          "velocity": 0.47244094488188976
        },
        {
          "duration": 0.6000000000000085,
          "durationTicks": 192,
          "midi": 40,
          "name": "E2",
          "ticks": 41040,
          "time": 126,
          "velocity": 0.47244094488188976
        },
        {
          "duration": 0.6000000000000227,
          "durationTicks": 192,
          "midi": 40,
          "name": "E2",
          "ticks": 41760,
          "time": 128.25,
          "velocity": 0.47244094488188976
        },
        {
          "duration": 0.6000000000000227,
          "durationTicks": 192,
          "midi": 40,
          "name": "E2",
          "ticks": 42480,
          "time": 130.5,
          "velocity": 0.47244094488188976
        },
        {
          "duration": 0.6000000000000227,
          "durationTicks": 192,
          "midi": 40,
          "name": "E2",
          "ticks": 43200,
          "time": 132.75,
          "velocity": 0.47244094488188976
        },
        {
          "duration": 0.6000000000000227,
          "durationTicks": 192,
          "midi": 40,
          "name": "E2",
          "ticks": 43920,
          "time": 135,
          "velocity": 0.47244094488188976
        },
        {
          "duration": 0.6000000000000227,
          "durationTicks": 192,
          "midi": 41,
          "name": "F2",
          "ticks": 44640,
          "time": 137.25,
          "velocity": 0.5590551181102362
        },
        {
          "duration": 0.6000000000000227,
          "durationTicks": 192,
          "midi": 41,
          "name": "F2",
          "ticks": 45360,
          "time": 139.5,
          "velocity": 0.5039370078740157
        },
        {
          "duration": 10.199999999999989,
          "durationTicks": 3264,
          "midi": 40,
          "name": "E2",
          "ticks": 46080,
          "time": 141.75,
          "velocity": 0.44881889763779526
        },
        {
          "duration": 1.3571424499999978,
          "durationTicks": 456,
          "midi": 45,
          "name": "A2",
          "ticks": 50400,
          "time": 155.4118725,
          "velocity": 0.47244094488188976
        },
        {
          "duration": 0.6785712249999847,
          "durationTicks": 228,
          "midi": 45,
          "name": "A2",
          "ticks": 50880,
          "time": 156.8404435,
          "velocity": 0.47244094488188976
        },
        {
          "duration": 1.3571424499999978,
          "durationTicks": 456,
          "midi": 45,
          "name": "A2",
          "ticks": 51120,
          "time": 157.55472899999998,
          "velocity": 0.47244094488188976
        },
        {
          "duration": 0.6785712250000131,
          "durationTicks": 228,
          "midi": 45,
          "name": "A2",
          "ticks": 51600,
          "time": 158.98329999999999,
          "velocity": 0.47244094488188976
        },
        {
          "duration": 1.3571424500000262,
          "durationTicks": 456,
          "midi": 44,
          "name": "G#2",
          "ticks": 51840,
          "time": 159.69758549999997,
          "velocity": 0.47244094488188976
        },
        {
          "duration": 0.6785712250000131,
          "durationTicks": 228,
          "midi": 44,
          "name": "G#2",
          "ticks": 52320,
          "time": 161.12615649999998,
          "velocity": 0.47244094488188976
        },
        {
          "duration": 1.3571424499999978,
          "durationTicks": 456,
          "midi": 44,
          "name": "G#2",
          "ticks": 52560,
          "time": 161.840442,
          "velocity": 0.47244094488188976
        },
        {
          "duration": 0.6785712250000131,
          "durationTicks": 228,
          "midi": 44,
          "name": "G#2",
          "ticks": 53040,
          "time": 163.26901299999997,
          "velocity": 0.47244094488188976
        },
        {
          "duration": 1.1428568000000041,
          "durationTicks": 384,
          "midi": 45,
          "name": "A2",
          "ticks": 53280,
          "time": 163.9832985,
          "velocity": 0.47244094488188976
        },
        {
          "duration": 0.5714284000000021,
          "durationTicks": 192,
          "midi": 40,
          "name": "E2",
          "ticks": 54720,
          "time": 168.26901149999998,
          "velocity": 0.47244094488188976
        },
        {
          "duration": 0.5714284000000021,
          "durationTicks": 192,
          "midi": 40,
          "name": "E2",
          "ticks": 54960,
          "time": 168.983297,
          "velocity": 0.47244094488188976
        },
        {
          "duration": 0.5714284000000021,
          "durationTicks": 192,
          "midi": 40,
          "name": "E2",
          "ticks": 55200,
          "time": 169.69758249999998,
          "velocity": 0.47244094488188976
        },
        {
          "duration": 0.5714284000000021,
          "durationTicks": 192,
          "midi": 40,
          "name": "E2",
          "ticks": 55440,
          "time": 170.411868,
          "velocity": 0.47244094488188976
        },
        {
          "duration": 0.7142855000000168,
          "durationTicks": 240,
          "midi": 40,
          "name": "E2",
          "ticks": 58800,
          "time": 180.41186499999998,
          "velocity": 0.47244094488188976
        },
        {
          "duration": 0.5714284000000021,
          "durationTicks": 192,
          "midi": 42,
          "name": "F#2",
          "ticks": 59040,
          "time": 181.1261505,
          "velocity": 0.47244094488188976
        },
        {
          "duration": 0.5714284000000021,
          "durationTicks": 192,
          "midi": 38,
          "name": "D2",
          "ticks": 59760,
          "time": 183.269007,
          "velocity": 0.47244094488188976
        },
        {
          "duration": 2.1428564999999935,
          "durationTicks": 720,
          "midi": 40,
          "name": "E2",
          "ticks": 60480,
          "time": 185.41186349999998,
          "velocity": 0.47244094488188976
        },
        {
          "duration": 0.5714284000000021,
          "durationTicks": 192,
          "midi": 33,
          "name": "A1",
          "ticks": 61200,
          "time": 187.55471999999997,
          "velocity": 0.47244094488188976
        },
        {
          "duration": 0.7142854999999884,
          "durationTicks": 240,
          "midi": 38,
          "name": "D2",
          "ticks": 65040,
          "time": 198.983288,
          "velocity": 0.47244094488188976
        },
        {
          "duration": 0.7142855000000168,
          "durationTicks": 240,
          "midi": 40,
          "name": "E2",
          "ticks": 65280,
          "time": 199.69757349999998,
          "velocity": 0.47244094488188976
        },
        {
          "duration": 0.5714284000000021,
          "durationTicks": 192,
          "midi": 33,
          "name": "A1",
          "ticks": 65520,
          "time": 200.411859,
          "velocity": 0.47244094488188976
        },
        {
          "duration": 0.7142854999999884,
          "durationTicks": 240,
          "midi": 32,
          "name": "G#1",
          "ticks": 66480,
          "time": 203.269001,
          "velocity": 0.47244094488188976
        },
        {
          "duration": 0.7142854999999884,
          "durationTicks": 240,
          "midi": 33,
          "name": "A1",
          "ticks": 66720,
          "time": 203.9832865,
          "velocity": 0.47244094488188976
        },
        {
          "duration": 0.5714284000000021,
          "durationTicks": 192,
          "midi": 40,
          "name": "E2",
          "ticks": 66960,
          "time": 204.69757199999998,
          "velocity": 0.47244094488188976
        },
        {
          "duration": 0.7142855000000168,
          "durationTicks": 240,
          "midi": 33,
          "name": "A1",
          "ticks": 67680,
          "time": 206.84042849999997,
          "velocity": 0.47244094488188976
        },
        {
          "duration": 0.7142854999999884,
          "durationTicks": 240,
          "midi": 37,
          "name": "C#2",
          "ticks": 67920,
          "time": 207.554714,
          "velocity": 0.47244094488188976
        },
        {
          "duration": 0.7142855000000168,
          "durationTicks": 240,
          "midi": 40,
          "name": "E2",
          "ticks": 68160,
          "time": 208.26899949999998,
          "velocity": 0.47244094488188976
        },
        {
          "duration": 0.5714283999999736,
          "durationTicks": 192,
          "midi": 42,
          "name": "F#2",
          "ticks": 68400,
          "time": 208.983285,
          "velocity": 0.47244094488188976
        },
        {
          "duration": 2.1428564999999935,
          "durationTicks": 720,
          "midi": 38,
          "name": "D2",
          "ticks": 69120,
          "time": 211.1261415,
          "velocity": 0.47244094488188976
        },
        {
          "duration": 2.142856500000022,
          "durationTicks": 720,
          "midi": 39,
          "name": "D#2",
          "ticks": 69840,
          "time": 213.26899799999998,
          "velocity": 0.47244094488188976
        },
        {
          "duration": 1.1428567999999757,
          "durationTicks": 384,
          "midi": 40,
          "name": "E2",
          "ticks": 70560,
          "time": 215.4118545,
          "velocity": 0.47244094488188976
        },
        {
          "duration": 1.1428568000000041,
          "durationTicks": 384,
          "midi": 40,
          "name": "E2",
          "ticks": 71280,
          "time": 217.554711,
          "velocity": 0.47244094488188976
        },
        {
          "duration": 1.1428568000000041,
          "durationTicks": 384,
          "midi": 40,
          "name": "E2",
          "ticks": 72000,
          "time": 219.6975675,
          "velocity": 0.47244094488188976
        },
        {
          "duration": 1.1428568000000041,
          "durationTicks": 384,
          "midi": 40,
          "name": "E2",
          "ticks": 72720,
          "time": 221.84042399999998,
          "velocity": 0.47244094488188976
        },
        {
          "duration": 0.5853655999999887,
          "durationTicks": 192,
          "midi": 33,
          "name": "A1",
          "ticks": 73440,
          "time": 223.98328049999998,
          "velocity": 0.47244094488188976
        },
        {
          "duration": 0.5853655999999887,
          "durationTicks": 192,
          "midi": 35,
          "name": "B1",
          "ticks": 74160,
          "time": 226.17840149999998,
          "velocity": 0.47244094488188976
        },
        {
          "duration": 0.5853655999999887,
          "durationTicks": 192,
          "midi": 37,
          "name": "C#2",
          "ticks": 74880,
          "time": 228.37352249999998,
          "velocity": 0.47244094488188976
        },
        {
          "duration": 0.6315787999999998,
          "durationTicks": 192,
          "midi": 37,
          "name": "C#2",
          "ticks": 75600,
          "time": 230.60616749999997,
          "velocity": 0.47244094488188976
        },
        {
          "duration": 1.1999999999999886,
          "durationTicks": 384,
          "midi": 42,
          "name": "F#2",
          "ticks": 76320,
          "time": 233.063594,
          "velocity": 0.47244094488188976
        },
        {
          "duration": 0.6000000000000227,
          "durationTicks": 192,
          "midi": 42,
          "name": "F#2",
          "ticks": 97920,
          "time": 300.56359399999997,
          "velocity": 0.47244094488188976
        },
        {
          "duration": 0.6000000000000227,
          "durationTicks": 192,
          "midi": 42,
          "name": "F#2",
          "ticks": 98640,
          "time": 302.81359399999997,
          "velocity": 0.47244094488188976
        },
        {
          "duration": 0.6000000000000227,
          "durationTicks": 192,
          "midi": 42,
          "name": "F#2",
          "ticks": 99360,
          "time": 305.06359399999997,
          "velocity": 0.47244094488188976
        },
        {
          "duration": 0.6000000000000227,
          "durationTicks": 192,
          "midi": 44,
          "name": "G#2",
          "ticks": 100080,
          "time": 307.31359399999997,
          "velocity": 0.47244094488188976
        },
        {
          "duration": 0.6000000000000227,
          "durationTicks": 192,
          "midi": 45,
          "name": "A2",
          "ticks": 100800,
          "time": 309.56359399999997,
          "velocity": 0.47244094488188976
        },
        {
          "duration": 0.6000000000000227,
          "durationTicks": 192,
          "midi": 33,
          "name": "A1",
          "ticks": 101520,
          "time": 311.81359399999997,
          "velocity": 0.47244094488188976
        },
        {
          "duration": 0.6000000000000227,
          "durationTicks": 192,
          "midi": 35,
          "name": "B1",
          "ticks": 102240,
          "time": 314.06359399999997,
          "velocity": 0.47244094488188976
        },
        {
          "duration": 0.6000000000000227,
          "durationTicks": 192,
          "midi": 47,
          "name": "B2",
          "ticks": 102960,
          "time": 316.31359399999997,
          "velocity": 0.47244094488188976
        },
        {
          "duration": 0.6000000000000227,
          "durationTicks": 192,
          "midi": 49,
          "name": "C#3",
          "ticks": 103680,
          "time": 318.56359399999997,
          "velocity": 0.47244094488188976
        },
        {
          "duration": 0.6000000000000227,
          "durationTicks": 192,
          "midi": 42,
          "name": "F#2",
          "ticks": 104400,
          "time": 320.81359399999997,
          "velocity": 0.7086614173228346
        },
        {
          "duration": 0.75,
          "durationTicks": 240,
          "midi": 36,
          "name": "C2",
          "ticks": 105120,
          "time": 323.06359399999997,
          "velocity": 0.7086614173228346
        },
        {
          "duration": 0.75,
          "durationTicks": 240,
          "midi": 35,
          "name": "B1",
          "ticks": 105840,
          "time": 325.31359399999997,
          "velocity": 0.7086614173228346
        },
        {
          "duration": 2.25,
          "durationTicks": 720,
          "midi": 34,
          "name": "A#1",
          "ticks": 106560,
          "time": 327.56359399999997,
          "velocity": 0.7086614173228346
        },
        {
          "duration": 0.75,
          "durationTicks": 240,
          "midi": 35,
          "name": "B1",
          "ticks": 107280,
          "time": 329.81359399999997,
          "velocity": 0.7086614173228346
        },
        {
          "duration": 0.75,
          "durationTicks": 240,
          "midi": 43,
          "name": "G2",
          "ticks": 107520,
          "time": 330.56359399999997,
          "velocity": 0.7086614173228346
        },
        {
          "duration": 0.75,
          "durationTicks": 240,
          "midi": 42,
          "name": "F#2",
          "ticks": 107760,
          "time": 331.31359399999997,
          "velocity": 0.7086614173228346
        },
        {
          "duration": 0.75,
          "durationTicks": 240,
          "midi": 41,
          "name": "F2",
          "ticks": 108000,
          "time": 332.06359399999997,
          "velocity": 0.7086614173228346
        },
        {
          "duration": 0.75,
          "durationTicks": 240,
          "midi": 37,
          "name": "C#2",
          "ticks": 108240,
          "time": 332.81359399999997,
          "velocity": 0.7086614173228346
        },
        {
          "duration": 0.75,
          "durationTicks": 240,
          "midi": 42,
          "name": "F#2",
          "ticks": 108480,
          "time": 333.56359399999997,
          "velocity": 0.7086614173228346
        },
        {
          "duration": 0.75,
          "durationTicks": 240,
          "midi": 38,
          "name": "D2",
          "ticks": 108720,
          "time": 334.31359399999997,
          "velocity": 0.7086614173228346
        },
        {
          "duration": 0.75,
          "durationTicks": 240,
          "midi": 35,
          "name": "B1",
          "ticks": 108960,
          "time": 335.06359399999997,
          "velocity": 0.7086614173228346
        },
        {
          "duration": 0.75,
          "durationTicks": 240,
          "midi": 37,
          "name": "C#2",
          "ticks": 109200,
          "time": 335.81359399999997,
          "velocity": 0.7086614173228346
        },
        {
          "duration": 0.6000000000000227,
          "durationTicks": 192,
          "midi": 30,
          "name": "F#1",
          "ticks": 109440,
          "time": 336.56359399999997,
          "velocity": 0.6299212598425197
        },
        {
          "duration": 0.6000000000000227,
          "durationTicks": 192,
          "midi": 42,
          "name": "F#2",
          "ticks": 110160,
          "time": 338.81359399999997,
          "velocity": 0.47244094488188976
        },
        {
          "duration": 0.6000000000000227,
          "durationTicks": 192,
          "midi": 42,
          "name": "F#2",
          "ticks": 110880,
          "time": 341.06359399999997,
          "velocity": 0.47244094488188976
        },
        {
          "duration": 0.6000000000000227,
          "durationTicks": 192,
          "midi": 44,
          "name": "G#2",
          "ticks": 111600,
          "time": 343.31359399999997,
          "velocity": 0.47244094488188976
        },
        {
          "duration": 0.6000000000000227,
          "durationTicks": 192,
          "midi": 45,
          "name": "A2",
          "ticks": 112320,
          "time": 345.56359399999997,
          "velocity": 0.47244094488188976
        },
        {
          "duration": 0.6000000000000227,
          "durationTicks": 192,
          "midi": 45,
          "name": "A2",
          "ticks": 113040,
          "time": 347.81359399999997,
          "velocity": 0.47244094488188976
        },
        {
          "duration": 0.6000000000000227,
          "durationTicks": 192,
          "midi": 47,
          "name": "B2",
          "ticks": 113760,
          "time": 350.06359399999997,
          "velocity": 0.47244094488188976
        },
        {
          "duration": 0.6000000000000227,
          "durationTicks": 192,
          "midi": 35,
          "name": "B1",
          "ticks": 114480,
          "time": 352.31359399999997,
          "velocity": 0.47244094488188976
        },
        {
          "duration": 17.912500000000023,
          "durationTicks": 5732,
          "midi": 37,
          "name": "C#2",
          "ticks": 115200,
          "time": 354.56359399999997,
          "velocity": 0.47244094488188976
        },
        {
          "duration": 0.5853656000000456,
          "durationTicks": 192,
          "midi": 33,
          "name": "A1",
          "ticks": 133200,
          "time": 409.04441899999995,
          "velocity": 0.47244094488188976
        },
        {
          "duration": 0.5853655999999887,
          "durationTicks": 192,
          "midi": 35,
          "name": "B1",
          "ticks": 133920,
          "time": 411.23954,
          "velocity": 0.47244094488188976
        },
        {
          "duration": 0.5853656000000456,
          "durationTicks": 192,
          "midi": 37,
          "name": "C#2",
          "ticks": 134640,
          "time": 413.43466099999995,
          "velocity": 0.47244094488188976
        },
        {
          "duration": 0.5853655999999887,
          "durationTicks": 192,
          "midi": 33,
          "name": "A1",
          "ticks": 135360,
          "time": 415.629782,
          "velocity": 0.47244094488188976
        },
        {
          "duration": 0.5853656000000456,
          "durationTicks": 192,
          "midi": 38,
          "name": "D2",
          "ticks": 136080,
          "time": 417.82490299999995,
          "velocity": 0.47244094488188976
        },
        {
          "duration": 0.5853655999999887,
          "durationTicks": 192,
          "midi": 35,
          "name": "B1",
          "ticks": 136800,
          "time": 420.020024,
          "velocity": 0.47244094488188976
        },
        {
          "duration": 0.5853656000000456,
          "durationTicks": 192,
          "midi": 37,
          "name": "C#2",
          "ticks": 137520,
          "time": 422.21514499999995,
          "velocity": 0.47244094488188976
        },
        {
          "duration": 0.5853655999999887,
          "durationTicks": 192,
          "midi": 33,
          "name": "A1",
          "ticks": 138240,
          "time": 424.410266,
          "velocity": 0.47244094488188976
        },
        {
          "duration": 0.5853656000000456,
          "durationTicks": 192,
          "midi": 35,
          "name": "B1",
          "ticks": 138960,
          "time": 426.60538699999995,
          "velocity": 0.47244094488188976
        },
        {
          "duration": 0.6000000000000227,
          "durationTicks": 192,
          "midi": 37,
          "name": "C#2",
          "ticks": 139680,
          "time": 428.800508,
          "velocity": 0.47244094488188976
        },
        {
          "duration": 0.614102366666657,
          "durationTicks": 192,
          "midi": 37,
          "name": "C#2",
          "ticks": 140400,
          "time": 431.050508,
          "velocity": 0.47244094488188976
        },
        {
          "duration": 0.6096093749999341,
          "durationTicks": 180,
          "midi": 42,
          "name": "F#2",
          "ticks": 141120,
          "time": 433.43698946666666,
          "velocity": 0.4330708661417323
        },
        {
          "duration": 0.6081078749999733,
          "durationTicks": 180,
          "midi": 42,
          "name": "F#2",
          "ticks": 141840,
          "time": 435.8709224666666,
          "velocity": 0.4330708661417323
        },
        {
          "duration": 0.6818178749999788,
          "durationTicks": 180,
          "midi": 42,
          "name": "F#2",
          "ticks": 142560,
          "time": 438.3558635666666,
          "velocity": 0.4330708661417323
        },
        {
          "duration": 2.181817200000012,
          "durationTicks": 576,
          "midi": 30,
          "name": "F#1",
          "ticks": 144000,
          "time": 443.8104065666666,
          "velocity": 0.007874015748031496
        }
      ],
      "endOfTrackTicks": 144576
    },
    {
      "channel": 8,
      "controlChanges": {
        "7": [
          {
            "number": 7,
            "ticks": 0,
            "time": 0,
            "value": 0.6220472440944882
          }
        ],
        "10": [
          {
            "number": 10,
            "ticks": 0,
            "time": 0,
            "value": 0.7716535433070866
          }
        ],
        "91": [
          {
            "number": 91,
            "ticks": 0,
            "time": 0,
            "value": 0.7874015748031497
          }
        ]
      },
      "pitchBends": [],
      "instrument": {
        "family": "strings",
        "number": 45,
        "name": "pizzicato strings"
      },
      "name": "",
      "notes": [
        {
          "duration": 0.5714284000000021,
          "durationTicks": 192,
          "midi": 66,
          "name": "F#4",
          "ticks": 120960,
          "time": 372.56359399999997,
          "velocity": 0.6299212598425197
        },
        {
          "duration": 0.5714284000000021,
          "durationTicks": 192,
          "midi": 69,
          "name": "A4",
          "ticks": 121200,
          "time": 373.2778795,
          "velocity": 0.47244094488188976
        },
        {
          "duration": 0.5714284000000021,
          "durationTicks": 192,
          "midi": 73,
          "name": "C#5",
          "ticks": 121440,
          "time": 373.99216499999994,
          "velocity": 0.47244094488188976
        },
        {
          "duration": 0.5714284000000021,
          "durationTicks": 192,
          "midi": 69,
          "name": "A4",
          "ticks": 121680,
          "time": 374.70645049999996,
          "velocity": 0.47244094488188976
        },
        {
          "duration": 0.5714284000000021,
          "durationTicks": 192,
          "midi": 66,
          "name": "F#4",
          "ticks": 121920,
          "time": 375.420736,
          "velocity": 0.47244094488188976
        },
        {
          "duration": 0.5714283999999452,
          "durationTicks": 192,
          "midi": 61,
          "name": "C#4",
          "ticks": 122160,
          "time": 376.1350215,
          "velocity": 0.47244094488188976
        },
        {
          "duration": 0.5714284000000021,
          "durationTicks": 192,
          "midi": 62,
          "name": "D4",
          "ticks": 122400,
          "time": 376.84930699999995,
          "velocity": 0.47244094488188976
        },
        {
          "duration": 0.5714284000000021,
          "durationTicks": 192,
          "midi": 66,
          "name": "F#4",
          "ticks": 122640,
          "time": 377.56359249999997,
          "velocity": 0.47244094488188976
        },
        {
          "duration": 0.5714284000000021,
          "durationTicks": 192,
          "midi": 69,
          "name": "A4",
          "ticks": 122880,
          "time": 378.277878,
          "velocity": 0.47244094488188976
        },
        {
          "duration": 0.5714284000000021,
          "durationTicks": 192,
          "midi": 66,
          "name": "F#4",
          "ticks": 123120,
          "time": 378.99216349999995,
          "velocity": 0.47244094488188976
        },
        {
          "duration": 0.5714284000000021,
          "durationTicks": 192,
          "midi": 62,
          "name": "D4",
          "ticks": 123360,
          "time": 379.70644899999996,
          "velocity": 0.47244094488188976
        },
        {
          "duration": 0.5714284000000021,
          "durationTicks": 192,
          "midi": 57,
          "name": "A3",
          "ticks": 123600,
          "time": 380.4207345,
          "velocity": 0.47244094488188976
        },
        {
          "duration": 0.5714284000000021,
          "durationTicks": 192,
          "midi": 59,
          "name": "B3",
          "ticks": 123840,
          "time": 381.13501999999994,
          "velocity": 0.47244094488188976
        },
        {
          "duration": 0.5714284000000021,
          "durationTicks": 192,
          "midi": 62,
          "name": "D4",
          "ticks": 124080,
          "time": 381.84930549999996,
          "velocity": 0.47244094488188976
        },
        {
          "duration": 0.5714284000000021,
          "durationTicks": 192,
          "midi": 61,
          "name": "C#4",
          "ticks": 124320,
          "time": 382.563591,
          "velocity": 0.47244094488188976
        },
        {
          "duration": 0.5714284000000021,
          "durationTicks": 192,
          "midi": 59,
          "name": "B3",
          "ticks": 124560,
          "time": 383.2778765,
          "velocity": 0.47244094488188976
        },
        {
          "duration": 0.5714284000000021,
          "durationTicks": 192,
          "midi": 57,
          "name": "A3",
          "ticks": 124800,
          "time": 383.99216199999995,
          "velocity": 0.47244094488188976
        },
        {
          "duration": 0.5714284000000021,
          "durationTicks": 192,
          "midi": 56,
          "name": "G#3",
          "ticks": 125040,
          "time": 384.70644749999997,
          "velocity": 0.47244094488188976
        },
        {
          "duration": 0.5714284000000021,
          "durationTicks": 192,
          "midi": 61,
          "name": "C#4",
          "ticks": 125280,
          "time": 385.420733,
          "velocity": 0.47244094488188976
        },
        {
          "duration": 0.5714284000000021,
          "durationTicks": 192,
          "midi": 66,
          "name": "F#4",
          "ticks": 125520,
          "time": 386.13501849999994,
          "velocity": 0.47244094488188976
        },
        {
          "duration": 0.5714284000000021,
          "durationTicks": 192,
          "midi": 69,
          "name": "A4",
          "ticks": 125760,
          "time": 386.84930399999996,
          "velocity": 0.47244094488188976
        },
        {
          "duration": 0.5714284000000021,
          "durationTicks": 192,
          "midi": 61,
          "name": "C#4",
          "ticks": 126000,
          "time": 387.5635895,
          "velocity": 0.47244094488188976
        },
        {
          "duration": 0.5714283999999452,
          "durationTicks": 192,
          "midi": 65,
          "name": "F4",
          "ticks": 126240,
          "time": 388.277875,
          "velocity": 0.47244094488188976
        },
        {
          "duration": 0.5714284000000021,
          "durationTicks": 192,
          "midi": 68,
          "name": "G#4",
          "ticks": 126480,
          "time": 388.99216049999995,
          "velocity": 0.47244094488188976
        },
        {
          "duration": 0.5714284000000021,
          "durationTicks": 192,
          "midi": 66,
          "name": "F#4",
          "ticks": 126720,
          "time": 389.70644599999997,
          "velocity": 0.47244094488188976
        },
        {
          "duration": 0.5714284000000021,
          "durationTicks": 192,
          "midi": 69,
          "name": "A4",
          "ticks": 126960,
          "time": 390.4207315,
          "velocity": 0.47244094488188976
        },
        {
          "duration": 0.5714284000000021,
          "durationTicks": 192,
          "midi": 73,
          "name": "C#5",
          "ticks": 127200,
          "time": 391.13501699999995,
          "velocity": 0.47244094488188976
        },
        {
          "duration": 0.5714284000000021,
          "durationTicks": 192,
          "midi": 69,
          "name": "A4",
          "ticks": 127440,
          "time": 391.84930249999996,
          "velocity": 0.47244094488188976
        },
        {
          "duration": 0.5714284000000021,
          "durationTicks": 192,
          "midi": 66,
          "name": "F#4",
          "ticks": 127680,
          "time": 392.563588,
          "velocity": 0.47244094488188976
        },
        {
          "duration": 0.5714284000000021,
          "durationTicks": 192,
          "midi": 61,
          "name": "C#4",
          "ticks": 127920,
          "time": 393.27787349999994,
          "velocity": 0.47244094488188976
        },
        {
          "duration": 0.5714284000000021,
          "durationTicks": 192,
          "midi": 62,
          "name": "D4",
          "ticks": 128160,
          "time": 393.99215899999996,
          "velocity": 0.47244094488188976
        },
        {
          "duration": 0.5714284000000021,
          "durationTicks": 192,
          "midi": 66,
          "name": "F#4",
          "ticks": 128400,
          "time": 394.7064445,
          "velocity": 0.47244094488188976
        },
        {
          "duration": 0.5714284000000021,
          "durationTicks": 192,
          "midi": 69,
          "name": "A4",
          "ticks": 128640,
          "time": 395.42073,
          "velocity": 0.47244094488188976
        },
        {
          "duration": 0.5714284000000021,
          "durationTicks": 192,
          "midi": 66,
          "name": "F#4",
          "ticks": 128880,
          "time": 396.13501549999995,
          "velocity": 0.47244094488188976
        },
        {
          "duration": 0.5714284000000021,
          "durationTicks": 192,
          "midi": 62,
          "name": "D4",
          "ticks": 129120,
          "time": 396.84930099999997,
          "velocity": 0.47244094488188976
        },
        {
          "duration": 0.5714284000000021,
          "durationTicks": 192,
          "midi": 57,
          "name": "A3",
          "ticks": 129360,
          "time": 397.5635865,
          "velocity": 0.47244094488188976
        },
        {
          "duration": 0.5714284000000021,
          "durationTicks": 192,
          "midi": 59,
          "name": "B3",
          "ticks": 129600,
          "time": 398.27787199999995,
          "velocity": 0.47244094488188976
        },
        {
          "duration": 0.5714284000000021,
          "durationTicks": 192,
          "midi": 62,
          "name": "D4",
          "ticks": 129840,
          "time": 398.99215749999996,
          "velocity": 0.47244094488188976
        },
        {
          "duration": 0.5714284000000021,
          "durationTicks": 192,
          "midi": 67,
          "name": "G4",
          "ticks": 130080,
          "time": 399.706443,
          "velocity": 0.47244094488188976
        },
        {
          "duration": 0.5714283999999452,
          "durationTicks": 192,
          "midi": 71,
          "name": "B4",
          "ticks": 130320,
          "time": 400.4207285,
          "velocity": 0.47244094488188976
        },
        {
          "duration": 0.5714284000000021,
          "durationTicks": 192,
          "midi": 67,
          "name": "G4",
          "ticks": 130560,
          "time": 401.13501399999996,
          "velocity": 0.47244094488188976
        },
        {
          "duration": 0.5714284000000021,
          "durationTicks": 192,
          "midi": 59,
          "name": "B3",
          "ticks": 130800,
          "time": 401.8492995,
          "velocity": 0.47244094488188976
        },
        {
          "duration": 0.5714284000000021,
          "durationTicks": 192,
          "midi": 61,
          "name": "C#4",
          "ticks": 131040,
          "time": 402.563585,
          "velocity": 0.47244094488188976
        },
        {
          "duration": 0.5714284000000021,
          "durationTicks": 192,
          "midi": 66,
          "name": "F#4",
          "ticks": 131280,
          "time": 403.27787049999995,
          "velocity": 0.47244094488188976
        },
        {
          "duration": 0.5714284000000021,
          "durationTicks": 192,
          "midi": 69,
          "name": "A4",
          "ticks": 131520,
          "time": 403.99215599999997,
          "velocity": 0.47244094488188976
        },
        {
          "duration": 0.5714284000000021,
          "durationTicks": 192,
          "midi": 61,
          "name": "C#4",
          "ticks": 131760,
          "time": 404.7064415,
          "velocity": 0.47244094488188976
        },
        {
          "duration": 0.5714284000000021,
          "durationTicks": 192,
          "midi": 65,
          "name": "F4",
          "ticks": 132000,
          "time": 405.42072699999994,
          "velocity": 0.47244094488188976
        },
        {
          "duration": 0.5714284000000021,
          "durationTicks": 192,
          "midi": 68,
          "name": "G#4",
          "ticks": 132240,
          "time": 406.13501249999996,
          "velocity": 0.47244094488188976
        },
        {
          "duration": 1.1707311999999774,
          "durationTicks": 384,
          "midi": 66,
          "name": "F#4",
          "ticks": 132480,
          "time": 406.849298,
          "velocity": 0.47244094488188976
        }
      ],
      "endOfTrackTicks": 132864
    },
    {
      "channel": 15,
      "controlChanges": {
        "7": [
          {
            "number": 7,
            "ticks": 0,
            "time": 0,
            "value": 0.6220472440944882
          }
        ],
        "10": [
          {
            "number": 10,
            "ticks": 0,
            "time": 0,
            "value": 0.7322834645669292
          }
        ],
        "91": [
          {
            "number": 91,
            "ticks": 0,
            "time": 0,
            "value": 0.7874015748031497
          }
        ]
      },
      "pitchBends": [],
      "instrument": {
        "family": "strings",
        "number": 45,
        "name": "pizzicato strings"
      },
      "name": "",
      "notes": [
        {
          "duration": 0.5714284000000021,
          "durationTicks": 192,
          "midi": 42,
          "name": "F#2",
          "ticks": 120960,
          "time": 372.56359399999997,
          "velocity": 0.6299212598425197
        },
        {
          "duration": 0.5714284000000021,
          "durationTicks": 192,
          "midi": 54,
          "name": "F#3",
          "ticks": 120960,
          "time": 372.56359399999997,
          "velocity": 0.6299212598425197
        },
        {
          "duration": 0.5714284000000021,
          "durationTicks": 192,
          "midi": 45,
          "name": "A2",
          "ticks": 121200,
          "time": 373.2778795,
          "velocity": 0.47244094488188976
        },
        {
          "duration": 0.5714284000000021,
          "durationTicks": 192,
          "midi": 57,
          "name": "A3",
          "ticks": 121200,
          "time": 373.2778795,
          "velocity": 0.47244094488188976
        },
        {
          "duration": 0.5714284000000021,
          "durationTicks": 192,
          "midi": 61,
          "name": "C#4",
          "ticks": 121440,
          "time": 373.99216499999994,
          "velocity": 0.47244094488188976
        },
        {
          "duration": 0.5714284000000021,
          "durationTicks": 192,
          "midi": 49,
          "name": "C#3",
          "ticks": 121440,
          "time": 373.99216499999994,
          "velocity": 0.47244094488188976
        },
        {
          "duration": 0.5714284000000021,
          "durationTicks": 192,
          "midi": 57,
          "name": "A3",
          "ticks": 121680,
          "time": 374.70645049999996,
          "velocity": 0.47244094488188976
        },
        {
          "duration": 0.5714284000000021,
          "durationTicks": 192,
          "midi": 45,
          "name": "A2",
          "ticks": 121680,
          "time": 374.70645049999996,
          "velocity": 0.47244094488188976
        },
        {
          "duration": 0.5714284000000021,
          "durationTicks": 192,
          "midi": 42,
          "name": "F#2",
          "ticks": 121920,
          "time": 375.420736,
          "velocity": 0.47244094488188976
        },
        {
          "duration": 0.5714284000000021,
          "durationTicks": 192,
          "midi": 54,
          "name": "F#3",
          "ticks": 121920,
          "time": 375.420736,
          "velocity": 0.47244094488188976
        },
        {
          "duration": 0.5714283999999452,
          "durationTicks": 192,
          "midi": 37,
          "name": "C#2",
          "ticks": 122160,
          "time": 376.1350215,
          "velocity": 0.47244094488188976
        },
        {
          "duration": 0.5714283999999452,
          "durationTicks": 192,
          "midi": 49,
          "name": "C#3",
          "ticks": 122160,
          "time": 376.1350215,
          "velocity": 0.47244094488188976
        },
        {
          "duration": 0.5714284000000021,
          "durationTicks": 192,
          "midi": 38,
          "name": "D2",
          "ticks": 122400,
          "time": 376.84930699999995,
          "velocity": 0.47244094488188976
        },
        {
          "duration": 0.5714284000000021,
          "durationTicks": 192,
          "midi": 50,
          "name": "D3",
          "ticks": 122400,
          "time": 376.84930699999995,
          "velocity": 0.47244094488188976
        },
        {
          "duration": 0.5714284000000021,
          "durationTicks": 192,
          "midi": 54,
          "name": "F#3",
          "ticks": 122640,
          "time": 377.56359249999997,
          "velocity": 0.47244094488188976
        },
        {
          "duration": 0.5714284000000021,
          "durationTicks": 192,
          "midi": 42,
          "name": "F#2",
          "ticks": 122640,
          "time": 377.56359249999997,
          "velocity": 0.47244094488188976
        },
        {
          "duration": 0.5714284000000021,
          "durationTicks": 192,
          "midi": 57,
          "name": "A3",
          "ticks": 122880,
          "time": 378.277878,
          "velocity": 0.47244094488188976
        },
        {
          "duration": 0.5714284000000021,
          "durationTicks": 192,
          "midi": 45,
          "name": "A2",
          "ticks": 122880,
          "time": 378.277878,
          "velocity": 0.47244094488188976
        },
        {
          "duration": 0.5714284000000021,
          "durationTicks": 192,
          "midi": 42,
          "name": "F#2",
          "ticks": 123120,
          "time": 378.99216349999995,
          "velocity": 0.47244094488188976
        },
        {
          "duration": 0.5714284000000021,
          "durationTicks": 192,
          "midi": 54,
          "name": "F#3",
          "ticks": 123120,
          "time": 378.99216349999995,
          "velocity": 0.47244094488188976
        },
        {
          "duration": 0.5714284000000021,
          "durationTicks": 192,
          "midi": 38,
          "name": "D2",
          "ticks": 123360,
          "time": 379.70644899999996,
          "velocity": 0.47244094488188976
        },
        {
          "duration": 0.5714284000000021,
          "durationTicks": 192,
          "midi": 50,
          "name": "D3",
          "ticks": 123360,
          "time": 379.70644899999996,
          "velocity": 0.47244094488188976
        },
        {
          "duration": 0.5714284000000021,
          "durationTicks": 192,
          "midi": 45,
          "name": "A2",
          "ticks": 123600,
          "time": 380.4207345,
          "velocity": 0.47244094488188976
        },
        {
          "duration": 0.5714284000000021,
          "durationTicks": 192,
          "midi": 33,
          "name": "A1",
          "ticks": 123600,
          "time": 380.4207345,
          "velocity": 0.47244094488188976
        },
        {
          "duration": 0.5714284000000021,
          "durationTicks": 192,
          "midi": 35,
          "name": "B1",
          "ticks": 123840,
          "time": 381.13501999999994,
          "velocity": 0.47244094488188976
        },
        {
          "duration": 0.5714284000000021,
          "durationTicks": 192,
          "midi": 47,
          "name": "B2",
          "ticks": 123840,
          "time": 381.13501999999994,
          "velocity": 0.47244094488188976
        },
        {
          "duration": 0.5714284000000021,
          "durationTicks": 192,
          "midi": 50,
          "name": "D3",
          "ticks": 124080,
          "time": 381.84930549999996,
          "velocity": 0.47244094488188976
        },
        {
          "duration": 0.5714284000000021,
          "durationTicks": 192,
          "midi": 38,
          "name": "D2",
          "ticks": 124080,
          "time": 381.84930549999996,
          "velocity": 0.47244094488188976
        },
        {
          "duration": 0.5714284000000021,
          "durationTicks": 192,
          "midi": 49,
          "name": "C#3",
          "ticks": 124320,
          "time": 382.563591,
          "velocity": 0.47244094488188976
        },
        {
          "duration": 0.5714284000000021,
          "durationTicks": 192,
          "midi": 37,
          "name": "C#2",
          "ticks": 124320,
          "time": 382.563591,
          "velocity": 0.47244094488188976
        },
        {
          "duration": 0.5714284000000021,
          "durationTicks": 192,
          "midi": 47,
          "name": "B2",
          "ticks": 124560,
          "time": 383.2778765,
          "velocity": 0.47244094488188976
        },
        {
          "duration": 0.5714284000000021,
          "durationTicks": 192,
          "midi": 35,
          "name": "B1",
          "ticks": 124560,
          "time": 383.2778765,
          "velocity": 0.47244094488188976
        },
        {
          "duration": 0.5714284000000021,
          "durationTicks": 192,
          "midi": 45,
          "name": "A2",
          "ticks": 124800,
          "time": 383.99216199999995,
          "velocity": 0.47244094488188976
        },
        {
          "duration": 0.5714284000000021,
          "durationTicks": 192,
          "midi": 33,
          "name": "A1",
          "ticks": 124800,
          "time": 383.99216199999995,
          "velocity": 0.47244094488188976
        },
        {
          "duration": 0.5714284000000021,
          "durationTicks": 192,
          "midi": 32,
          "name": "G#1",
          "ticks": 125040,
          "time": 384.70644749999997,
          "velocity": 0.47244094488188976
        },
        {
          "duration": 0.5714284000000021,
          "durationTicks": 192,
          "midi": 44,
          "name": "G#2",
          "ticks": 125040,
          "time": 384.70644749999997,
          "velocity": 0.47244094488188976
        },
        {
          "duration": 0.5714284000000021,
          "durationTicks": 192,
          "midi": 37,
          "name": "C#2",
          "ticks": 125280,
          "time": 385.420733,
          "velocity": 0.47244094488188976
        },
        {
          "duration": 0.5714284000000021,
          "durationTicks": 192,
          "midi": 49,
          "name": "C#3",
          "ticks": 125280,
          "time": 385.420733,
          "velocity": 0.47244094488188976
        },
        {
          "duration": 0.5714284000000021,
          "durationTicks": 192,
          "midi": 54,
          "name": "F#3",
          "ticks": 125520,
          "time": 386.13501849999994,
          "velocity": 0.47244094488188976
        },
        {
          "duration": 0.5714284000000021,
          "durationTicks": 192,
          "midi": 42,
          "name": "F#2",
          "ticks": 125520,
          "time": 386.13501849999994,
          "velocity": 0.47244094488188976
        },
        {
          "duration": 0.5714284000000021,
          "durationTicks": 192,
          "midi": 57,
          "name": "A3",
          "ticks": 125760,
          "time": 386.84930399999996,
          "velocity": 0.47244094488188976
        },
        {
          "duration": 0.5714284000000021,
          "durationTicks": 192,
          "midi": 45,
          "name": "A2",
          "ticks": 125760,
          "time": 386.84930399999996,
          "velocity": 0.47244094488188976
        },
        {
          "duration": 0.5714284000000021,
          "durationTicks": 192,
          "midi": 49,
          "name": "C#3",
          "ticks": 126000,
          "time": 387.5635895,
          "velocity": 0.47244094488188976
        },
        {
          "duration": 0.5714284000000021,
          "durationTicks": 192,
          "midi": 37,
          "name": "C#2",
          "ticks": 126000,
          "time": 387.5635895,
          "velocity": 0.47244094488188976
        },
        {
          "duration": 0.5714283999999452,
          "durationTicks": 192,
          "midi": 41,
          "name": "F2",
          "ticks": 126240,
          "time": 388.277875,
          "velocity": 0.47244094488188976
        },
        {
          "duration": 0.5714283999999452,
          "durationTicks": 192,
          "midi": 53,
          "name": "F3",
          "ticks": 126240,
          "time": 388.277875,
          "velocity": 0.47244094488188976
        },
        {
          "duration": 0.5714284000000021,
          "durationTicks": 192,
          "midi": 44,
          "name": "G#2",
          "ticks": 126480,
          "time": 388.99216049999995,
          "velocity": 0.47244094488188976
        },
        {
          "duration": 0.5714284000000021,
          "durationTicks": 192,
          "midi": 56,
          "name": "G#3",
          "ticks": 126480,
          "time": 388.99216049999995,
          "velocity": 0.47244094488188976
        },
        {
          "duration": 0.5714284000000021,
          "durationTicks": 192,
          "midi": 54,
          "name": "F#3",
          "ticks": 126720,
          "time": 389.70644599999997,
          "velocity": 0.47244094488188976
        },
        {
          "duration": 0.5714284000000021,
          "durationTicks": 192,
          "midi": 42,
          "name": "F#2",
          "ticks": 126720,
          "time": 389.70644599999997,
          "velocity": 0.47244094488188976
        },
        {
          "duration": 0.5714284000000021,
          "durationTicks": 192,
          "midi": 45,
          "name": "A2",
          "ticks": 126960,
          "time": 390.4207315,
          "velocity": 0.47244094488188976
        },
        {
          "duration": 0.5714284000000021,
          "durationTicks": 192,
          "midi": 57,
          "name": "A3",
          "ticks": 126960,
          "time": 390.4207315,
          "velocity": 0.47244094488188976
        },
        {
          "duration": 0.5714284000000021,
          "durationTicks": 192,
          "midi": 61,
          "name": "C#4",
          "ticks": 127200,
          "time": 391.13501699999995,
          "velocity": 0.47244094488188976
        },
        {
          "duration": 0.5714284000000021,
          "durationTicks": 192,
          "midi": 49,
          "name": "C#3",
          "ticks": 127200,
          "time": 391.13501699999995,
          "velocity": 0.47244094488188976
        },
        {
          "duration": 0.5714284000000021,
          "durationTicks": 192,
          "midi": 45,
          "name": "A2",
          "ticks": 127440,
          "time": 391.84930249999996,
          "velocity": 0.47244094488188976
        },
        {
          "duration": 0.5714284000000021,
          "durationTicks": 192,
          "midi": 57,
          "name": "A3",
          "ticks": 127440,
          "time": 391.84930249999996,
          "velocity": 0.47244094488188976
        },
        {
          "duration": 0.5714284000000021,
          "durationTicks": 192,
          "midi": 42,
          "name": "F#2",
          "ticks": 127680,
          "time": 392.563588,
          "velocity": 0.47244094488188976
        },
        {
          "duration": 0.5714284000000021,
          "durationTicks": 192,
          "midi": 54,
          "name": "F#3",
          "ticks": 127680,
          "time": 392.563588,
          "velocity": 0.47244094488188976
        },
        {
          "duration": 0.5714284000000021,
          "durationTicks": 192,
          "midi": 37,
          "name": "C#2",
          "ticks": 127920,
          "time": 393.27787349999994,
          "velocity": 0.47244094488188976
        },
        {
          "duration": 0.5714284000000021,
          "durationTicks": 192,
          "midi": 49,
          "name": "C#3",
          "ticks": 127920,
          "time": 393.27787349999994,
          "velocity": 0.47244094488188976
        },
        {
          "duration": 0.5714284000000021,
          "durationTicks": 192,
          "midi": 38,
          "name": "D2",
          "ticks": 128160,
          "time": 393.99215899999996,
          "velocity": 0.47244094488188976
        },
        {
          "duration": 0.5714284000000021,
          "durationTicks": 192,
          "midi": 50,
          "name": "D3",
          "ticks": 128160,
          "time": 393.99215899999996,
          "velocity": 0.47244094488188976
        },
        {
          "duration": 0.5714284000000021,
          "durationTicks": 192,
          "midi": 42,
          "name": "F#2",
          "ticks": 128400,
          "time": 394.7064445,
          "velocity": 0.47244094488188976
        },
        {
          "duration": 0.5714284000000021,
          "durationTicks": 192,
          "midi": 54,
          "name": "F#3",
          "ticks": 128400,
          "time": 394.7064445,
          "velocity": 0.47244094488188976
        },
        {
          "duration": 0.5714284000000021,
          "durationTicks": 192,
          "midi": 57,
          "name": "A3",
          "ticks": 128640,
          "time": 395.42073,
          "velocity": 0.47244094488188976
        },
        {
          "duration": 0.5714284000000021,
          "durationTicks": 192,
          "midi": 45,
          "name": "A2",
          "ticks": 128640,
          "time": 395.42073,
          "velocity": 0.47244094488188976
        },
        {
          "duration": 0.5714284000000021,
          "durationTicks": 192,
          "midi": 42,
          "name": "F#2",
          "ticks": 128880,
          "time": 396.13501549999995,
          "velocity": 0.47244094488188976
        },
        {
          "duration": 0.5714284000000021,
          "durationTicks": 192,
          "midi": 54,
          "name": "F#3",
          "ticks": 128880,
          "time": 396.13501549999995,
          "velocity": 0.47244094488188976
        },
        {
          "duration": 0.5714284000000021,
          "durationTicks": 192,
          "midi": 38,
          "name": "D2",
          "ticks": 129120,
          "time": 396.84930099999997,
          "velocity": 0.47244094488188976
        },
        {
          "duration": 0.5714284000000021,
          "durationTicks": 192,
          "midi": 50,
          "name": "D3",
          "ticks": 129120,
          "time": 396.84930099999997,
          "velocity": 0.47244094488188976
        },
        {
          "duration": 0.5714284000000021,
          "durationTicks": 192,
          "midi": 33,
          "name": "A1",
          "ticks": 129360,
          "time": 397.5635865,
          "velocity": 0.47244094488188976
        },
        {
          "duration": 0.5714284000000021,
          "durationTicks": 192,
          "midi": 45,
          "name": "A2",
          "ticks": 129360,
          "time": 397.5635865,
          "velocity": 0.47244094488188976
        },
        {
          "duration": 0.5714284000000021,
          "durationTicks": 192,
          "midi": 47,
          "name": "B2",
          "ticks": 129600,
          "time": 398.27787199999995,
          "velocity": 0.47244094488188976
        },
        {
          "duration": 0.5714284000000021,
          "durationTicks": 192,
          "midi": 35,
          "name": "B1",
          "ticks": 129600,
          "time": 398.27787199999995,
          "velocity": 0.47244094488188976
        },
        {
          "duration": 0.5714284000000021,
          "durationTicks": 192,
          "midi": 38,
          "name": "D2",
          "ticks": 129840,
          "time": 398.99215749999996,
          "velocity": 0.47244094488188976
        },
        {
          "duration": 0.5714284000000021,
          "durationTicks": 192,
          "midi": 50,
          "name": "D3",
          "ticks": 129840,
          "time": 398.99215749999996,
          "velocity": 0.47244094488188976
        },
        {
          "duration": 0.5714284000000021,
          "durationTicks": 192,
          "midi": 43,
          "name": "G2",
          "ticks": 130080,
          "time": 399.706443,
          "velocity": 0.47244094488188976
        },
        {
          "duration": 0.5714284000000021,
          "durationTicks": 192,
          "midi": 55,
          "name": "G3",
          "ticks": 130080,
          "time": 399.706443,
          "velocity": 0.47244094488188976
        },
        {
          "duration": 0.5714283999999452,
          "durationTicks": 192,
          "midi": 59,
          "name": "B3",
          "ticks": 130320,
          "time": 400.4207285,
          "velocity": 0.47244094488188976
        },
        {
          "duration": 0.5714283999999452,
          "durationTicks": 192,
          "midi": 47,
          "name": "B2",
          "ticks": 130320,
          "time": 400.4207285,
          "velocity": 0.47244094488188976
        },
        {
          "duration": 0.5714284000000021,
          "durationTicks": 192,
          "midi": 43,
          "name": "G2",
          "ticks": 130560,
          "time": 401.13501399999996,
          "velocity": 0.47244094488188976
        },
        {
          "duration": 0.5714284000000021,
          "durationTicks": 192,
          "midi": 55,
          "name": "G3",
          "ticks": 130560,
          "time": 401.13501399999996,
          "velocity": 0.47244094488188976
        },
        {
          "duration": 0.5714284000000021,
          "durationTicks": 192,
          "midi": 35,
          "name": "B1",
          "ticks": 130800,
          "time": 401.8492995,
          "velocity": 0.47244094488188976
        },
        {
          "duration": 0.5714284000000021,
          "durationTicks": 192,
          "midi": 47,
          "name": "B2",
          "ticks": 130800,
          "time": 401.8492995,
          "velocity": 0.47244094488188976
        },
        {
          "duration": 0.5714284000000021,
          "durationTicks": 192,
          "midi": 37,
          "name": "C#2",
          "ticks": 131040,
          "time": 402.563585,
          "velocity": 0.47244094488188976
        },
        {
          "duration": 0.5714284000000021,
          "durationTicks": 192,
          "midi": 49,
          "name": "C#3",
          "ticks": 131040,
          "time": 402.563585,
          "velocity": 0.47244094488188976
        },
        {
          "duration": 0.5714284000000021,
          "durationTicks": 192,
          "midi": 54,
          "name": "F#3",
          "ticks": 131280,
          "time": 403.27787049999995,
          "velocity": 0.47244094488188976
        },
        {
          "duration": 0.5714284000000021,
          "durationTicks": 192,
          "midi": 42,
          "name": "F#2",
          "ticks": 131280,
          "time": 403.27787049999995,
          "velocity": 0.47244094488188976
        },
        {
          "duration": 0.5714284000000021,
          "durationTicks": 192,
          "midi": 57,
          "name": "A3",
          "ticks": 131520,
          "time": 403.99215599999997,
          "velocity": 0.47244094488188976
        },
        {
          "duration": 0.5714284000000021,
          "durationTicks": 192,
          "midi": 45,
          "name": "A2",
          "ticks": 131520,
          "time": 403.99215599999997,
          "velocity": 0.47244094488188976
        },
        {
          "duration": 0.5714284000000021,
          "durationTicks": 192,
          "midi": 49,
          "name": "C#3",
          "ticks": 131760,
          "time": 404.7064415,
          "velocity": 0.47244094488188976
        },
        {
          "duration": 0.5714284000000021,
          "durationTicks": 192,
          "midi": 37,
          "name": "C#2",
          "ticks": 131760,
          "time": 404.7064415,
          "velocity": 0.47244094488188976
        },
        {
          "duration": 0.5714284000000021,
          "durationTicks": 192,
          "midi": 41,
          "name": "F2",
          "ticks": 132000,
          "time": 405.42072699999994,
          "velocity": 0.47244094488188976
        },
        {
          "duration": 0.5714284000000021,
          "durationTicks": 192,
          "midi": 53,
          "name": "F3",
          "ticks": 132000,
          "time": 405.42072699999994,
          "velocity": 0.47244094488188976
        },
        {
          "duration": 0.5714284000000021,
          "durationTicks": 192,
          "midi": 44,
          "name": "G#2",
          "ticks": 132240,
          "time": 406.13501249999996,
          "velocity": 0.47244094488188976
        },
        {
          "duration": 0.5714284000000021,
          "durationTicks": 192,
          "midi": 56,
          "name": "G#3",
          "ticks": 132240,
          "time": 406.13501249999996,
          "velocity": 0.47244094488188976
        },
        {
          "duration": 0.5853655999999887,
          "durationTicks": 192,
          "midi": 54,
          "name": "F#3",
          "ticks": 132480,
          "time": 406.849298,
          "velocity": 0.47244094488188976
        },
        {
          "duration": 0.5853655999999887,
          "durationTicks": 192,
          "midi": 42,
          "name": "F#2",
          "ticks": 132480,
          "time": 406.849298,
          "velocity": 0.47244094488188976
        }
      ],
      "endOfTrackTicks": 132672
    }
  ]
}