{
    "header": {
      "keySignatures": [
        {
          "key": "A",
          "scale": "major",
          "ticks": 0
        }
      ],
      "meta": [],
      "name": "莫扎特钢协第23首-第2乐章",
      "ppq": 480,
      "tempos": [
        {
          "bpm": 40,
          "ticks": 0
        }
      ],
      "timeSignatures": [
        {
          "ticks": 0,
          "timeSignature": [
            6,
            8
          ],
          "measures": 0
        }
      ]
    },
    "tracks": [
      {
        "channel": 0,
        "controlChanges": {},
        "pitchBends": [],
        "instrument": {
          "family": "piano",
          "number": 0,
          "name": "acoustic grand piano"
        },
        "name": "Piano Concerto n23 K488 2mov",
        "notes": [],
        "endOfTrackTicks": 144000
      },
      {
        "channel": 0,
        "controlChanges": {
          "7": [
            {
              "number": 7,
              "ticks": 0,
              "time": 0,
              "value": 0.5984251968503937
            }
          ],
          "10": [
            {
              "number": 10,
              "ticks": 0,
              "time": 0,
              "value": 0.4409448818897638
            }
          ],
          "91": [
            {
              "number": 91,
              "ticks": 0,
              "time": 0,
              "value": 0.7480314960629921
            }
          ]
        },
        "pitchBends": [],
        "instrument": {
          "family": "pipe",
          "number": 73,
          "name": "flute"
        },
        "name": "",
        "notes": [
          {
            "duration": 3,
            "durationTicks": 960,
            "midi": 85,
            "name": "C#6",
            "ticks": 20880,
            "time": 65.25,
            "velocity": 0.6299212598425197
          },
          {
            "duration": 0.75,
            "durationTicks": 240,
            "midi": 83,
            "name": "B5",
            "ticks": 21840,
            "time": 68.25,
            "velocity": 0.6299212598425197
          },
          {
            "duration": 0.75,
            "durationTicks": 240,
            "midi": 81,
            "name": "A5",
            "ticks": 22080,
            "time": 69,
            "velocity": 0.6299212598425197
          },
          {
            "duration": 0.75,
            "durationTicks": 240,
            "midi": 80,
            "name": "G#5",
            "ticks": 22320,
            "time": 69.75,
            "velocity": 0.6299212598425197
          },
          {
            "duration": 0.75,
            "durationTicks": 240,
            "midi": 81,
            "name": "A5",
            "ticks": 22560,
            "time": 70.5,
            "velocity": 0.6299212598425197
          },
          {
            "duration": 0.75,
            "durationTicks": 240,
            "midi": 83,
            "name": "B5",
            "ticks": 22800,
            "time": 71.25,
            "velocity": 0.6299212598425197
          },
          {
            "duration": 1.8000000000000114,
            "durationTicks": 576,
            "midi": 77,
            "name": "F5",
            "ticks": 23040,
            "time": 72,
            "velocity": 0.47244094488188976
          },
          {
            "duration": 2.1374999999999886,
            "durationTicks": 684,
            "midi": 85,
            "name": "C#6",
            "ticks": 23760,
            "time": 74.25,
            "velocity": 0.47244094488188976
          },
          {
            "duration": 2.25,
            "durationTicks": 720,
            "midi": 87,
            "name": "D#6",
            "ticks": 24480,
            "time": 76.5,
            "velocity": 0.6299212598425197
          },
          {
            "duration": 2.1374999999999886,
            "durationTicks": 684,
            "midi": 86,
            "name": "D6",
            "ticks": 25200,
            "time": 78.75,
            "velocity": 0.6299212598425197
          },
          {
            "duration": 3,
            "durationTicks": 960,
            "midi": 85,
            "name": "C#6",
            "ticks": 25920,
            "time": 81,
            "velocity": 0.6299212598425197
          },
          {
            "duration": 2.25,
            "durationTicks": 720,
            "midi": 83,
            "name": "B5",
            "ticks": 26880,
            "time": 84,
            "velocity": 0.6299212598425197
          },
          {
            "duration": 0.75,
            "durationTicks": 240,
            "midi": 85,
            "name": "C#6",
            "ticks": 27600,
            "time": 86.25,
            "velocity": 0.6299212598425197
          },
          {
            "duration": 1.5,
            "durationTicks": 480,
            "midi": 81,
            "name": "A5",
            "ticks": 27840,
            "time": 87,
            "velocity": 0.6299212598425197
          },
          {
            "duration": 0.44999999999998863,
            "durationTicks": 144,
            "midi": 83,
            "name": "B5",
            "ticks": 28320,
            "time": 88.5,
            "velocity": 0.6299212598425197
          },
          {
            "duration": 0.375,
            "durationTicks": 120,
            "midi": 80,
            "name": "G#5",
            "ticks": 28560,
            "time": 89.25,
            "velocity": 0.6299212598425197
          },
          {
            "duration": 1.4250000000000114,
            "durationTicks": 456,
            "midi": 78,
            "name": "F#5",
            "ticks": 28800,
            "time": 90,
            "velocity": 0.5511811023622047
          },
          {
            "duration": 2.25,
            "durationTicks": 720,
            "midi": 76,
            "name": "E5",
            "ticks": 50400,
            "time": 157.5,
            "velocity": 0.5511811023622047
          },
          {
            "duration": 1.5,
            "durationTicks": 480,
            "midi": 73,
            "name": "C#5",
            "ticks": 51120,
            "time": 159.75,
            "velocity": 0.5511811023622047
          },
          {
            "duration": 0.1875,
            "durationTicks": 60,
            "midi": 74,
            "name": "D5",
            "ticks": 51600,
            "time": 161.25,
            "velocity": 0.5511811023622047
          },
          {
            "duration": 0.1875,
            "durationTicks": 60,
            "midi": 73,
            "name": "C#5",
            "ticks": 51660,
            "time": 161.4375,
            "velocity": 0.5511811023622047
          },
          {
            "duration": 0.1875,
            "durationTicks": 60,
            "midi": 71,
            "name": "B4",
            "ticks": 51720,
            "time": 161.625,
            "velocity": 0.5511811023622047
          },
          {
            "duration": 0.1875,
            "durationTicks": 60,
            "midi": 73,
            "name": "C#5",
            "ticks": 51780,
            "time": 161.8125,
            "velocity": 0.5511811023622047
          },
          {
            "duration": 0.44999999999998863,
            "durationTicks": 144,
            "midi": 74,
            "name": "D5",
            "ticks": 51840,
            "time": 162,
            "velocity": 0.5511811023622047
          },
          {
            "duration": 0.44999999999998863,
            "durationTicks": 144,
            "midi": 74,
            "name": "D5",
            "ticks": 52080,
            "time": 162.75,
            "velocity": 0.5511811023622047
          },
          {
            "duration": 0.44999999999998863,
            "durationTicks": 144,
            "midi": 74,
            "name": "D5",
            "ticks": 52320,
            "time": 163.5,
            "velocity": 0.5511811023622047
          },
          {
            "duration": 0.6000000000000227,
            "durationTicks": 192,
            "midi": 74,
            "name": "D5",
            "ticks": 52560,
            "time": 164.25,
            "velocity": 0.5511811023622047
          },
          {
            "duration": 0.375,
            "durationTicks": 120,
            "midi": 85,
            "name": "C#6",
            "ticks": 54360,
            "time": 169.875,
            "velocity": 0.5511811023622047
          },
          {
            "duration": 0.375,
            "durationTicks": 120,
            "midi": 86,
            "name": "D6",
            "ticks": 54480,
            "time": 170.25,
            "velocity": 0.5511811023622047
          },
          {
            "duration": 0.375,
            "durationTicks": 120,
            "midi": 87,
            "name": "D#6",
            "ticks": 54600,
            "time": 170.625,
            "velocity": 0.5511811023622047
          },
          {
            "duration": 0.375,
            "durationTicks": 120,
            "midi": 88,
            "name": "E6",
            "ticks": 54720,
            "time": 171,
            "velocity": 0.5511811023622047
          },
          {
            "duration": 0.375,
            "durationTicks": 120,
            "midi": 87,
            "name": "D#6",
            "ticks": 54840,
            "time": 171.375,
            "velocity": 0.5511811023622047
          },
          {
            "duration": 0.375,
            "durationTicks": 120,
            "midi": 88,
            "name": "E6",
            "ticks": 54960,
            "time": 171.75,
            "velocity": 0.5511811023622047
          },
          {
            "duration": 0.375,
            "durationTicks": 120,
            "midi": 87,
            "name": "D#6",
            "ticks": 55080,
            "time": 172.125,
            "velocity": 0.5511811023622047
          },
          {
            "duration": 0.375,
            "durationTicks": 120,
            "midi": 88,
            "name": "E6",
            "ticks": 55200,
            "time": 172.5,
            "velocity": 0.5511811023622047
          },
          {
            "duration": 0.375,
            "durationTicks": 120,
            "midi": 85,
            "name": "C#6",
            "ticks": 55320,
            "time": 172.875,
            "velocity": 0.5511811023622047
          },
          {
            "duration": 0.6000000000000227,
            "durationTicks": 192,
            "midi": 83,
            "name": "B5",
            "ticks": 55440,
            "time": 173.25,
            "velocity": 0.5511811023622047
          },
          {
            "duration": 2.25,
            "durationTicks": 720,
            "midi": 88,
            "name": "E6",
            "ticks": 56160,
            "time": 175.5,
            "velocity": 0.5511811023622047
          },
          {
            "duration": 1.5,
            "durationTicks": 480,
            "midi": 85,
            "name": "C#6",
            "ticks": 56880,
            "time": 177.75,
            "velocity": 0.5511811023622047
          },
          {
            "duration": 0.1875,
            "durationTicks": 60,
            "midi": 86,
            "name": "D6",
            "ticks": 57360,
            "time": 179.25,
            "velocity": 0.5511811023622047
          },
          {
            "duration": 0.1875,
            "durationTicks": 60,
            "midi": 85,
            "name": "C#6",
            "ticks": 57420,
            "time": 179.4375,
            "velocity": 0.5511811023622047
          },
          {
            "duration": 0.1875,
            "durationTicks": 60,
            "midi": 83,
            "name": "B5",
            "ticks": 57480,
            "time": 179.625,
            "velocity": 0.5511811023622047
          },
          {
            "duration": 0.1875,
            "durationTicks": 60,
            "midi": 85,
            "name": "C#6",
            "ticks": 57540,
            "time": 179.8125,
            "velocity": 0.5511811023622047
          },
          {
            "duration": 0.44999999999998863,
            "durationTicks": 144,
            "midi": 86,
            "name": "D6",
            "ticks": 57600,
            "time": 180,
            "velocity": 0.5511811023622047
          },
          {
            "duration": 0.44999999999998863,
            "durationTicks": 144,
            "midi": 86,
            "name": "D6",
            "ticks": 57840,
            "time": 180.75,
            "velocity": 0.5511811023622047
          },
          {
            "duration": 0.44999999999998863,
            "durationTicks": 144,
            "midi": 86,
            "name": "D6",
            "ticks": 58080,
            "time": 181.5,
            "velocity": 0.5511811023622047
          },
          {
            "duration": 0.6000000000000227,
            "durationTicks": 192,
            "midi": 86,
            "name": "D6",
            "ticks": 58320,
            "time": 182.25,
            "velocity": 0.5511811023622047
          },
          {
            "duration": 0.16250000000002274,
            "durationTicks": 52,
            "midi": 86,
            "name": "D6",
            "ticks": 67040,
            "time": 209.5,
            "velocity": 0.6299212598425197
          },
          {
            "duration": 0.16249999999999432,
            "durationTicks": 52,
            "midi": 85,
            "name": "C#6",
            "ticks": 67120,
            "time": 209.75,
            "velocity": 0.6299212598425197
          },
          {
            "duration": 0.1624999999999659,
            "durationTicks": 52,
            "midi": 83,
            "name": "B5",
            "ticks": 67200,
            "time": 210,
            "velocity": 0.6299212598425197
          },
          {
            "duration": 0.16250000000002274,
            "durationTicks": 52,
            "midi": 81,
            "name": "A5",
            "ticks": 67280,
            "time": 210.25,
            "velocity": 0.6299212598425197
          },
          {
            "duration": 0.16249999999999432,
            "durationTicks": 52,
            "midi": 80,
            "name": "G#5",
            "ticks": 67360,
            "time": 210.5,
            "velocity": 0.6299212598425197
          },
          {
            "duration": 0.1624999999999659,
            "durationTicks": 52,
            "midi": 78,
            "name": "F#5",
            "ticks": 67440,
            "time": 210.75,
            "velocity": 0.6299212598425197
          },
          {
            "duration": 0.16250000000002274,
            "durationTicks": 52,
            "midi": 76,
            "name": "E5",
            "ticks": 67520,
            "time": 211,
            "velocity": 0.6299212598425197
          },
          {
            "duration": 0.16249999999999432,
            "durationTicks": 52,
            "midi": 74,
            "name": "D5",
            "ticks": 67600,
            "time": 211.25,
            "velocity": 0.6299212598425197
          },
          {
            "duration": 0.16250000000002274,
            "durationTicks": 52,
            "midi": 88,
            "name": "E6",
            "ticks": 68480,
            "time": 214,
            "velocity": 0.6299212598425197
          },
          {
            "duration": 0.16249999999999432,
            "durationTicks": 52,
            "midi": 86,
            "name": "D6",
            "ticks": 68560,
            "time": 214.25,
            "velocity": 0.6299212598425197
          },
          {
            "duration": 0.1624999999999659,
            "durationTicks": 52,
            "midi": 85,
            "name": "C#6",
            "ticks": 68640,
            "time": 214.5,
            "velocity": 0.6299212598425197
          },
          {
            "duration": 0.16250000000002274,
            "durationTicks": 52,
            "midi": 83,
            "name": "B5",
            "ticks": 68720,
            "time": 214.75,
            "velocity": 0.6299212598425197
          },
          {
            "duration": 0.16249999999999432,
            "durationTicks": 52,
            "midi": 81,
            "name": "A5",
            "ticks": 68800,
            "time": 215,
            "velocity": 0.6299212598425197
          },
          {
            "duration": 0.1624999999999659,
            "durationTicks": 52,
            "midi": 80,
            "name": "G#5",
            "ticks": 68880,
            "time": 215.25,
            "velocity": 0.6299212598425197
          },
          {
            "duration": 0.16250000000002274,
            "durationTicks": 52,
            "midi": 78,
            "name": "F#5",
            "ticks": 68960,
            "time": 215.5,
            "velocity": 0.6299212598425197
          },
          {
            "duration": 0.16249999999999432,
            "durationTicks": 52,
            "midi": 76,
            "name": "E5",
            "ticks": 69040,
            "time": 215.75,
            "velocity": 0.6299212598425197
          },
          {
            "duration": 0.75,
            "durationTicks": 240,
            "midi": 73,
            "name": "C#5",
            "ticks": 73680,
            "time": 230.25,
            "velocity": 0.47244094488188976
          },
          {
            "duration": 0.75,
            "durationTicks": 240,
            "midi": 85,
            "name": "C#6",
            "ticks": 73920,
            "time": 231,
            "velocity": 0.47244094488188976
          },
          {
            "duration": 0.75,
            "durationTicks": 240,
            "midi": 74,
            "name": "D5",
            "ticks": 74400,
            "time": 232.5,
            "velocity": 0.47244094488188976
          },
          {
            "duration": 0.75,
            "durationTicks": 240,
            "midi": 86,
            "name": "D6",
            "ticks": 74640,
            "time": 233.25,
            "velocity": 0.47244094488188976
          },
          {
            "duration": 0.1875,
            "durationTicks": 60,
            "midi": 73,
            "name": "C#5",
            "ticks": 75060,
            "time": 234.5625,
            "velocity": 0.47244094488188976
          },
          {
            "duration": 0.75,
            "durationTicks": 240,
            "midi": 85,
            "name": "C#6",
            "ticks": 75120,
            "time": 234.75,
            "velocity": 0.47244094488188976
          },
          {
            "duration": 0.75,
            "durationTicks": 240,
            "midi": 78,
            "name": "F#5",
            "ticks": 75360,
            "time": 235.5,
            "velocity": 0.47244094488188976
          },
          {
            "duration": 0.1875,
            "durationTicks": 60,
            "midi": 71,
            "name": "B4",
            "ticks": 75780,
            "time": 236.8125,
            "velocity": 0.47244094488188976
          },
          {
            "duration": 0.75,
            "durationTicks": 240,
            "midi": 83,
            "name": "B5",
            "ticks": 75840,
            "time": 237,
            "velocity": 0.47244094488188976
          },
          {
            "duration": 0.75,
            "durationTicks": 240,
            "midi": 77,
            "name": "F5",
            "ticks": 76080,
            "time": 237.75,
            "velocity": 0.4251968503937008
          },
          {
            "duration": 1.200000000000017,
            "durationTicks": 384,
            "midi": 78,
            "name": "F#5",
            "ticks": 76320,
            "time": 238.5,
            "velocity": 0.3858267716535433
          },
          {
            "duration": 4.5,
            "durationTicks": 1440,
            "midi": 78,
            "name": "F#5",
            "ticks": 92160,
            "time": 288,
            "velocity": 0.47244094488188976
          },
          {
            "duration": 0.6000000000000227,
            "durationTicks": 192,
            "midi": 79,
            "name": "G5",
            "ticks": 93600,
            "time": 292.5,
            "velocity": 0.47244094488188976
          },
          {
            "duration": 3,
            "durationTicks": 960,
            "midi": 85,
            "name": "C#6",
            "ticks": 101520,
            "time": 317.25,
            "velocity": 0.6299212598425197
          },
          {
            "duration": 0.75,
            "durationTicks": 240,
            "midi": 83,
            "name": "B5",
            "ticks": 102480,
            "time": 320.25,
            "velocity": 0.6299212598425197
          },
          {
            "duration": 0.75,
            "durationTicks": 240,
            "midi": 81,
            "name": "A5",
            "ticks": 102720,
            "time": 321,
            "velocity": 0.6299212598425197
          },
          {
            "duration": 0.75,
            "durationTicks": 240,
            "midi": 80,
            "name": "G#5",
            "ticks": 102960,
            "time": 321.75,
            "velocity": 0.6299212598425197
          },
          {
            "duration": 0.75,
            "durationTicks": 240,
            "midi": 81,
            "name": "A5",
            "ticks": 103200,
            "time": 322.5,
            "velocity": 0.6299212598425197
          },
          {
            "duration": 0.75,
            "durationTicks": 240,
            "midi": 83,
            "name": "B5",
            "ticks": 103440,
            "time": 323.25,
            "velocity": 0.6299212598425197
          },
          {
            "duration": 2.25,
            "durationTicks": 720,
            "midi": 77,
            "name": "F5",
            "ticks": 103680,
            "time": 324,
            "velocity": 0.6299212598425197
          },
          {
            "duration": 2.25,
            "durationTicks": 720,
            "midi": 85,
            "name": "C#6",
            "ticks": 104400,
            "time": 326.25,
            "velocity": 0.6299212598425197
          },
          {
            "duration": 2.25,
            "durationTicks": 720,
            "midi": 87,
            "name": "D#6",
            "ticks": 105120,
            "time": 328.5,
            "velocity": 0.6299212598425197
          },
          {
            "duration": 2.25,
            "durationTicks": 720,
            "midi": 86,
            "name": "D6",
            "ticks": 105840,
            "time": 330.75,
            "velocity": 0.6299212598425197
          },
          {
            "duration": 3,
            "durationTicks": 960,
            "midi": 85,
            "name": "C#6",
            "ticks": 106560,
            "time": 333,
            "velocity": 0.6299212598425197
          },
          {
            "duration": 2.25,
            "durationTicks": 720,
            "midi": 83,
            "name": "B5",
            "ticks": 107520,
            "time": 336,
            "velocity": 0.6299212598425197
          },
          {
            "duration": 0.7124999999999773,
            "durationTicks": 228,
            "midi": 85,
            "name": "C#6",
            "ticks": 108240,
            "time": 338.25,
            "velocity": 0.6299212598425197
          },
          {
            "duration": 1.5,
            "durationTicks": 480,
            "midi": 81,
            "name": "A5",
            "ticks": 108480,
            "time": 339,
            "velocity": 0.6299212598425197
          },
          {
            "duration": 0.4500000000000455,
            "durationTicks": 144,
            "midi": 83,
            "name": "B5",
            "ticks": 108960,
            "time": 340.5,
            "velocity": 0.6299212598425197
          },
          {
            "duration": 0.4500000000000455,
            "durationTicks": 144,
            "midi": 80,
            "name": "G#5",
            "ticks": 109200,
            "time": 341.25,
            "velocity": 0.6299212598425197
          },
          {
            "duration": 1.4249999999999545,
            "durationTicks": 456,
            "midi": 78,
            "name": "F#5",
            "ticks": 109440,
            "time": 342,
            "velocity": 0.5511811023622047
          },
          {
            "duration": 4.5,
            "durationTicks": 1440,
            "midi": 78,
            "name": "F#5",
            "ticks": 115920,
            "time": 362.25,
            "velocity": 0.47244094488188976
          },
          {
            "duration": 1.5,
            "durationTicks": 480,
            "midi": 77,
            "name": "F5",
            "ticks": 117360,
            "time": 366.75,
            "velocity": 0.47244094488188976
          },
          {
            "duration": 0.75,
            "durationTicks": 240,
            "midi": 74,
            "name": "D5",
            "ticks": 117840,
            "time": 368.25,
            "velocity": 0.47244094488188976
          },
          {
            "duration": 4.5,
            "durationTicks": 1440,
            "midi": 73,
            "name": "C#5",
            "ticks": 118080,
            "time": 369,
            "velocity": 0.47244094488188976
          },
          {
            "duration": 0.75,
            "durationTicks": 240,
            "midi": 71,
            "name": "B4",
            "ticks": 119520,
            "time": 373.5,
            "velocity": 0.47244094488188976
          },
          {
            "duration": 0.75,
            "durationTicks": 240,
            "midi": 73,
            "name": "C#5",
            "ticks": 119760,
            "time": 374.25,
            "velocity": 0.47244094488188976
          },
          {
            "duration": 1.5,
            "durationTicks": 480,
            "midi": 74,
            "name": "D5",
            "ticks": 120000,
            "time": 375,
            "velocity": 0.47244094488188976
          },
          {
            "duration": 0.75,
            "durationTicks": 240,
            "midi": 73,
            "name": "C#5",
            "ticks": 120480,
            "time": 376.5,
            "velocity": 0.47244094488188976
          },
          {
            "duration": 0.75,
            "durationTicks": 240,
            "midi": 71,
            "name": "B4",
            "ticks": 120720,
            "time": 377.25,
            "velocity": 0.47244094488188976
          },
          {
            "duration": 1.2000000000000455,
            "durationTicks": 384,
            "midi": 69,
            "name": "A4",
            "ticks": 120960,
            "time": 378,
            "velocity": 0.47244094488188976
          },
          {
            "duration": 9,
            "durationTicks": 2880,
            "midi": 81,
            "name": "A5",
            "ticks": 126720,
            "time": 396,
            "velocity": 0.47244094488188976
          },
          {
            "duration": 2.25,
            "durationTicks": 720,
            "midi": 86,
            "name": "D6",
            "ticks": 129600,
            "time": 405,
            "velocity": 0.47244094488188976
          },
          {
            "duration": 2.25,
            "durationTicks": 720,
            "midi": 83,
            "name": "B5",
            "ticks": 130320,
            "time": 407.25,
            "velocity": 0.47244094488188976
          },
          {
            "duration": 2.25,
            "durationTicks": 720,
            "midi": 81,
            "name": "A5",
            "ticks": 131040,
            "time": 409.5,
            "velocity": 0.47244094488188976
          },
          {
            "duration": 2.25,
            "durationTicks": 720,
            "midi": 80,
            "name": "G#5",
            "ticks": 131760,
            "time": 411.75,
            "velocity": 0.47244094488188976
          },
          {
            "duration": 0.5999999999999659,
            "durationTicks": 192,
            "midi": 78,
            "name": "F#5",
            "ticks": 132480,
            "time": 414,
            "velocity": 0.47244094488188976
          },
          {
            "duration": 3,
            "durationTicks": 960,
            "midi": 81,
            "name": "A5",
            "ticks": 133200,
            "time": 416.25,
            "velocity": 0.5511811023622047
          },
          {
            "duration": 0.75,
            "durationTicks": 240,
            "midi": 80,
            "name": "G#5",
            "ticks": 134160,
            "time": 419.25,
            "velocity": 0.5511811023622047
          },
          {
            "duration": 0.75,
            "durationTicks": 240,
            "midi": 78,
            "name": "F#5",
            "ticks": 134400,
            "time": 420,
            "velocity": 0.5511811023622047
          },
          {
            "duration": 0.75,
            "durationTicks": 240,
            "midi": 77,
            "name": "F5",
            "ticks": 134640,
            "time": 420.75,
            "velocity": 0.5511811023622047
          },
          {
            "duration": 0.75,
            "durationTicks": 240,
            "midi": 78,
            "name": "F#5",
            "ticks": 134880,
            "time": 421.5,
            "velocity": 0.5511811023622047
          },
          {
            "duration": 0.75,
            "durationTicks": 240,
            "midi": 80,
            "name": "G#5",
            "ticks": 135120,
            "time": 422.25,
            "velocity": 0.5511811023622047
          },
          {
            "duration": 2.1375000000000455,
            "durationTicks": 684,
            "midi": 73,
            "name": "C#5",
            "ticks": 135360,
            "time": 423,
            "velocity": 0.5511811023622047
          },
          {
            "duration": 3,
            "durationTicks": 960,
            "midi": 81,
            "name": "A5",
            "ticks": 136080,
            "time": 425.25,
            "velocity": 0.5511811023622047
          },
          {
            "duration": 0.75,
            "durationTicks": 240,
            "midi": 80,
            "name": "G#5",
            "ticks": 137040,
            "time": 428.25,
            "velocity": 0.5511811023622047
          },
          {
            "duration": 0.75,
            "durationTicks": 240,
            "midi": 78,
            "name": "F#5",
            "ticks": 137280,
            "time": 429,
            "velocity": 0.5511811023622047
          },
          {
            "duration": 0.75,
            "durationTicks": 240,
            "midi": 77,
            "name": "F5",
            "ticks": 137520,
            "time": 429.75,
            "velocity": 0.5511811023622047
          },
          {
            "duration": 0.75,
            "durationTicks": 240,
            "midi": 78,
            "name": "F#5",
            "ticks": 137760,
            "time": 430.5,
            "velocity": 0.5511811023622047
          },
          {
            "duration": 0.75,
            "durationTicks": 240,
            "midi": 80,
            "name": "G#5",
            "ticks": 138000,
            "time": 431.25,
            "velocity": 0.5511811023622047
          },
          {
            "duration": 2.1375000000000455,
            "durationTicks": 684,
            "midi": 73,
            "name": "C#5",
            "ticks": 138240,
            "time": 432,
            "velocity": 0.5511811023622047
          },
          {
            "duration": 3,
            "durationTicks": 960,
            "midi": 81,
            "name": "A5",
            "ticks": 138960,
            "time": 434.25,
            "velocity": 0.5511811023622047
          },
          {
            "duration": 0.75,
            "durationTicks": 240,
            "midi": 80,
            "name": "G#5",
            "ticks": 139920,
            "time": 437.25,
            "velocity": 0.5511811023622047
          },
          {
            "duration": 0.75,
            "durationTicks": 240,
            "midi": 78,
            "name": "F#5",
            "ticks": 140160,
            "time": 438,
            "velocity": 0.5511811023622047
          },
          {
            "duration": 0.75,
            "durationTicks": 240,
            "midi": 77,
            "name": "F5",
            "ticks": 140400,
            "time": 438.75,
            "velocity": 0.5511811023622047
          },
          {
            "duration": 0.75,
            "durationTicks": 240,
            "midi": 78,
            "name": "F#5",
            "ticks": 140640,
            "time": 439.5,
            "velocity": 0.5511811023622047
          },
          {
            "duration": 0.75,
            "durationTicks": 240,
            "midi": 80,
            "name": "G#5",
            "ticks": 140880,
            "time": 440.25,
            "velocity": 0.5511811023622047
          },
          {
            "duration": 0.4500000000000455,
            "durationTicks": 144,
            "midi": 78,
            "name": "F#5",
            "ticks": 141120,
            "time": 441,
            "velocity": 0.4409448818897638
          },
          {
            "duration": 0.4500000000000455,
            "durationTicks": 144,
            "midi": 78,
            "name": "F#5",
            "ticks": 141360,
            "time": 441.75,
            "velocity": 0.4409448818897638
          },
          {
            "duration": 0.4500000000000455,
            "durationTicks": 144,
            "midi": 85,
            "name": "C#6",
            "ticks": 141840,
            "time": 443.25,
            "velocity": 0.4409448818897638
          },
          {
            "duration": 0.4500000000000455,
            "durationTicks": 144,
            "midi": 85,
            "name": "C#6",
            "ticks": 142080,
            "time": 444,
            "velocity": 0.4409448818897638
          },
          {
            "duration": 0.4124999999999659,
            "durationTicks": 132,
            "midi": 90,
            "name": "F#6",
            "ticks": 142560,
            "time": 445.5,
            "velocity": 0.4409448818897638
          },
          {
            "duration": 0.4124999999999659,
            "durationTicks": 132,
            "midi": 90,
            "name": "F#6",
            "ticks": 142800,
            "time": 446.25,
            "velocity": 0.4409448818897638
          }
        ]
      },
      {
        "channel": 0,
        "controlChanges": {},
        "pitchBends": [],
        "instrument": {
          "family": "piano",
          "number": 0,
          "name": "acoustic grand piano"
        },
        "name": "Piano Concerto n23 K488 2mov",
        "notes": [],
        "endOfTrackTicks": 144000
      },
      {
        "channel": 1,
        "controlChanges": {
          "7": [
            {
              "number": 7,
              "ticks": 0,
              "time": 0,
              "value": 0.5984251968503937
            }
          ],
          "10": [
            {
              "number": 10,
              "ticks": 0,
              "time": 0,
              "value": 0.5039370078740157
            }
          ],
          "91": [
            {
              "number": 91,
              "ticks": 0,
              "time": 0,
              "value": 0.7480314960629921
            }
          ]
        },
        "pitchBends": [],
        "instrument": {
          "family": "reed",
          "number": 71,
          "name": "clarinet"
        },
        "name": "",
        "notes": [
          {
            "duration": 3,
            "durationTicks": 960,
            "midi": 81,
            "name": "A5",
            "ticks": 18000,
            "time": 56.25,
            "velocity": 0.6299212598425197
          },
          {
            "duration": 0.75,
            "durationTicks": 240,
            "midi": 80,
            "name": "G#5",
            "ticks": 18960,
            "time": 59.25,
            "velocity": 0.6299212598425197
          },
          {
            "duration": 0.75,
            "durationTicks": 240,
            "midi": 78,
            "name": "F#5",
            "ticks": 19200,
            "time": 60,
            "velocity": 0.6299212598425197
          },
          {
            "duration": 0.75,
            "durationTicks": 240,
            "midi": 77,
            "name": "F5",
            "ticks": 19440,
            "time": 60.75,
            "velocity": 0.6299212598425197
          },
          {
            "duration": 0.75,
            "durationTicks": 240,
            "midi": 78,
            "name": "F#5",
            "ticks": 19680,
            "time": 61.5,
            "velocity": 0.6299212598425197
          },
          {
            "duration": 0.75,
            "durationTicks": 240,
            "midi": 80,
            "name": "G#5",
            "ticks": 19920,
            "time": 62.25,
            "velocity": 0.6299212598425197
          },
          {
            "duration": 2.1374999999999886,
            "durationTicks": 684,
            "midi": 73,
            "name": "C#5",
            "ticks": 20160,
            "time": 63,
            "velocity": 0.47244094488188976
          },
          {
            "duration": 3,
            "durationTicks": 960,
            "midi": 81,
            "name": "A5",
            "ticks": 23760,
            "time": 74.25,
            "velocity": 0.6299212598425197
          },
          {
            "duration": 0.75,
            "durationTicks": 240,
            "midi": 80,
            "name": "G#5",
            "ticks": 24720,
            "time": 77.25,
            "velocity": 0.6299212598425197
          },
          {
            "duration": 0.75,
            "durationTicks": 240,
            "midi": 78,
            "name": "F#5",
            "ticks": 24960,
            "time": 78,
            "velocity": 0.6299212598425197
          },
          {
            "duration": 0.75,
            "durationTicks": 240,
            "midi": 77,
            "name": "F5",
            "ticks": 25200,
            "time": 78.75,
            "velocity": 0.6299212598425197
          },
          {
            "duration": 0.75,
            "durationTicks": 240,
            "midi": 78,
            "name": "F#5",
            "ticks": 25440,
            "time": 79.5,
            "velocity": 0.6299212598425197
          },
          {
            "duration": 0.75,
            "durationTicks": 240,
            "midi": 80,
            "name": "G#5",
            "ticks": 25680,
            "time": 80.25,
            "velocity": 0.6299212598425197
          },
          {
            "duration": 0.75,
            "durationTicks": 240,
            "midi": 79,
            "name": "G5",
            "ticks": 25920,
            "time": 81,
            "velocity": 0.6299212598425197
          },
          {
            "duration": 0.75,
            "durationTicks": 240,
            "midi": 78,
            "name": "F#5",
            "ticks": 26160,
            "time": 81.75,
            "velocity": 0.6299212598425197
          },
          {
            "duration": 0.75,
            "durationTicks": 240,
            "midi": 76,
            "name": "E5",
            "ticks": 26400,
            "time": 82.5,
            "velocity": 0.6299212598425197
          },
          {
            "duration": 2.25,
            "durationTicks": 720,
            "midi": 74,
            "name": "D5",
            "ticks": 26640,
            "time": 83.25,
            "velocity": 0.6299212598425197
          },
          {
            "duration": 0.75,
            "durationTicks": 240,
            "midi": 73,
            "name": "C#5",
            "ticks": 27360,
            "time": 85.5,
            "velocity": 0.6299212598425197
          },
          {
            "duration": 0.75,
            "durationTicks": 240,
            "midi": 71,
            "name": "B4",
            "ticks": 27600,
            "time": 86.25,
            "velocity": 0.6299212598425197
          },
          {
            "duration": 1.5,
            "durationTicks": 480,
            "midi": 69,
            "name": "A4",
            "ticks": 27840,
            "time": 87,
            "velocity": 0.6299212598425197
          },
          {
            "duration": 0.44999999999998863,
            "durationTicks": 144,
            "midi": 71,
            "name": "B4",
            "ticks": 28320,
            "time": 88.5,
            "velocity": 0.6299212598425197
          },
          {
            "duration": 0.375,
            "durationTicks": 120,
            "midi": 68,
            "name": "G#4",
            "ticks": 28560,
            "time": 89.25,
            "velocity": 0.6299212598425197
          },
          {
            "duration": 1.4250000000000114,
            "durationTicks": 456,
            "midi": 66,
            "name": "F#4",
            "ticks": 28800,
            "time": 90,
            "velocity": 0.5511811023622047
          },
          {
            "duration": 2.25,
            "durationTicks": 720,
            "midi": 71,
            "name": "B4",
            "ticks": 46080,
            "time": 144,
            "velocity": 0.47244094488188976
          },
          {
            "duration": 2.25,
            "durationTicks": 720,
            "midi": 72,
            "name": "C5",
            "ticks": 46800,
            "time": 146.25,
            "velocity": 0.47244094488188976
          },
          {
            "duration": 0.6000000000000227,
            "durationTicks": 192,
            "midi": 71,
            "name": "B4",
            "ticks": 47520,
            "time": 148.5,
            "velocity": 0.47244094488188976
          },
          {
            "duration": 2.25,
            "durationTicks": 720,
            "midi": 73,
            "name": "C#5",
            "ticks": 50400,
            "time": 157.5,
            "velocity": 0.47244094488188976
          },
          {
            "duration": 1.5,
            "durationTicks": 480,
            "midi": 69,
            "name": "A4",
            "ticks": 51120,
            "time": 159.75,
            "velocity": 0.47244094488188976
          },
          {
            "duration": 0.1875,
            "durationTicks": 60,
            "midi": 71,
            "name": "B4",
            "ticks": 51600,
            "time": 161.25,
            "velocity": 0.47244094488188976
          },
          {
            "duration": 0.1875,
            "durationTicks": 60,
            "midi": 69,
            "name": "A4",
            "ticks": 51660,
            "time": 161.4375,
            "velocity": 0.47244094488188976
          },
          {
            "duration": 0.1875,
            "durationTicks": 60,
            "midi": 68,
            "name": "G#4",
            "ticks": 51720,
            "time": 161.625,
            "velocity": 0.47244094488188976
          },
          {
            "duration": 0.1875,
            "durationTicks": 60,
            "midi": 69,
            "name": "A4",
            "ticks": 51780,
            "time": 161.8125,
            "velocity": 0.47244094488188976
          },
          {
            "duration": 0.44999999999998863,
            "durationTicks": 144,
            "midi": 71,
            "name": "B4",
            "ticks": 51840,
            "time": 162,
            "velocity": 0.47244094488188976
          },
          {
            "duration": 0.44999999999998863,
            "durationTicks": 144,
            "midi": 71,
            "name": "B4",
            "ticks": 52080,
            "time": 162.75,
            "velocity": 0.47244094488188976
          },
          {
            "duration": 0.44999999999998863,
            "durationTicks": 144,
            "midi": 71,
            "name": "B4",
            "ticks": 52320,
            "time": 163.5,
            "velocity": 0.47244094488188976
          },
          {
            "duration": 0.6000000000000227,
            "durationTicks": 192,
            "midi": 71,
            "name": "B4",
            "ticks": 52560,
            "time": 164.25,
            "velocity": 0.47244094488188976
          },
          {
            "duration": 0.375,
            "durationTicks": 120,
            "midi": 73,
            "name": "C#5",
            "ticks": 53400,
            "time": 166.875,
            "velocity": 0.5511811023622047
          },
          {
            "duration": 0.375,
            "durationTicks": 120,
            "midi": 74,
            "name": "D5",
            "ticks": 53520,
            "time": 167.25,
            "velocity": 0.5511811023622047
          },
          {
            "duration": 0.375,
            "durationTicks": 120,
            "midi": 76,
            "name": "E5",
            "ticks": 53640,
            "time": 167.625,
            "velocity": 0.5511811023622047
          },
          {
            "duration": 0.375,
            "durationTicks": 120,
            "midi": 78,
            "name": "F#5",
            "ticks": 53760,
            "time": 168,
            "velocity": 0.5511811023622047
          },
          {
            "duration": 0.375,
            "durationTicks": 120,
            "midi": 80,
            "name": "G#5",
            "ticks": 53880,
            "time": 168.375,
            "velocity": 0.5511811023622047
          },
          {
            "duration": 0.375,
            "durationTicks": 120,
            "midi": 81,
            "name": "A5",
            "ticks": 54000,
            "time": 168.75,
            "velocity": 0.5511811023622047
          },
          {
            "duration": 0.375,
            "durationTicks": 120,
            "midi": 83,
            "name": "B5",
            "ticks": 54120,
            "time": 169.125,
            "velocity": 0.5511811023622047
          },
          {
            "duration": 0.375,
            "durationTicks": 120,
            "midi": 85,
            "name": "C#6",
            "ticks": 54240,
            "time": 169.5,
            "velocity": 0.5511811023622047
          },
          {
            "duration": 0.375,
            "durationTicks": 120,
            "midi": 73,
            "name": "C#5",
            "ticks": 54360,
            "time": 169.875,
            "velocity": 0.5511811023622047
          },
          {
            "duration": 0.375,
            "durationTicks": 120,
            "midi": 74,
            "name": "D5",
            "ticks": 54480,
            "time": 170.25,
            "velocity": 0.5511811023622047
          },
          {
            "duration": 0.375,
            "durationTicks": 120,
            "midi": 75,
            "name": "D#5",
            "ticks": 54600,
            "time": 170.625,
            "velocity": 0.5511811023622047
          },
          {
            "duration": 0.375,
            "durationTicks": 120,
            "midi": 76,
            "name": "E5",
            "ticks": 54720,
            "time": 171,
            "velocity": 0.5511811023622047
          },
          {
            "duration": 0.375,
            "durationTicks": 120,
            "midi": 75,
            "name": "D#5",
            "ticks": 54840,
            "time": 171.375,
            "velocity": 0.5511811023622047
          },
          {
            "duration": 0.375,
            "durationTicks": 120,
            "midi": 76,
            "name": "E5",
            "ticks": 54960,
            "time": 171.75,
            "velocity": 0.5511811023622047
          },
          {
            "duration": 0.375,
            "durationTicks": 120,
            "midi": 75,
            "name": "D#5",
            "ticks": 55080,
            "time": 172.125,
            "velocity": 0.5511811023622047
          },
          {
            "duration": 0.375,
            "durationTicks": 120,
            "midi": 76,
            "name": "E5",
            "ticks": 55200,
            "time": 172.5,
            "velocity": 0.5511811023622047
          },
          {
            "duration": 0.375,
            "durationTicks": 120,
            "midi": 73,
            "name": "C#5",
            "ticks": 55320,
            "time": 172.875,
            "velocity": 0.5511811023622047
          },
          {
            "duration": 0.6000000000000227,
            "durationTicks": 192,
            "midi": 71,
            "name": "B4",
            "ticks": 55440,
            "time": 173.25,
            "velocity": 0.5511811023622047
          },
          {
            "duration": 2.25,
            "durationTicks": 720,
            "midi": 76,
            "name": "E5",
            "ticks": 56160,
            "time": 175.5,
            "velocity": 0.47244094488188976
          },
          {
            "duration": 1.5,
            "durationTicks": 480,
            "midi": 73,
            "name": "C#5",
            "ticks": 56880,
            "time": 177.75,
            "velocity": 0.47244094488188976
          },
          {
            "duration": 0.1875,
            "durationTicks": 60,
            "midi": 74,
            "name": "D5",
            "ticks": 57360,
            "time": 179.25,
            "velocity": 0.47244094488188976
          },
          {
            "duration": 0.1875,
            "durationTicks": 60,
            "midi": 73,
            "name": "C#5",
            "ticks": 57420,
            "time": 179.4375,
            "velocity": 0.47244094488188976
          },
          {
            "duration": 0.1875,
            "durationTicks": 60,
            "midi": 71,
            "name": "B4",
            "ticks": 57480,
            "time": 179.625,
            "velocity": 0.47244094488188976
          },
          {
            "duration": 0.1875,
            "durationTicks": 60,
            "midi": 73,
            "name": "C#5",
            "ticks": 57540,
            "time": 179.8125,
            "velocity": 0.47244094488188976
          },
          {
            "duration": 0.44999999999998863,
            "durationTicks": 144,
            "midi": 74,
            "name": "D5",
            "ticks": 57600,
            "time": 180,
            "velocity": 0.47244094488188976
          },
          {
            "duration": 0.44999999999998863,
            "durationTicks": 144,
            "midi": 74,
            "name": "D5",
            "ticks": 57840,
            "time": 180.75,
            "velocity": 0.47244094488188976
          },
          {
            "duration": 0.44999999999998863,
            "durationTicks": 144,
            "midi": 74,
            "name": "D5",
            "ticks": 58080,
            "time": 181.5,
            "velocity": 0.47244094488188976
          },
          {
            "duration": 0.6000000000000227,
            "durationTicks": 192,
            "midi": 74,
            "name": "D5",
            "ticks": 58320,
            "time": 182.25,
            "velocity": 0.47244094488188976
          },
          {
            "duration": 1.5,
            "durationTicks": 480,
            "midi": 74,
            "name": "D5",
            "ticks": 61920,
            "time": 193.5,
            "velocity": 0.5511811023622047
          },
          {
            "duration": 0.75,
            "durationTicks": 240,
            "midi": 73,
            "name": "C#5",
            "ticks": 62400,
            "time": 195,
            "velocity": 0.5196850393700787
          },
          {
            "duration": 0.6000000000000227,
            "durationTicks": 192,
            "midi": 71,
            "name": "B4",
            "ticks": 62640,
            "time": 195.75,
            "velocity": 0.5118110236220472
          },
          {
            "duration": 1.5,
            "durationTicks": 480,
            "midi": 76,
            "name": "E5",
            "ticks": 63360,
            "time": 198,
            "velocity": 0.5748031496062992
          },
          {
            "duration": 0.75,
            "durationTicks": 240,
            "midi": 74,
            "name": "D5",
            "ticks": 63840,
            "time": 199.5,
            "velocity": 0.5354330708661418
          },
          {
            "duration": 0.6000000000000227,
            "durationTicks": 192,
            "midi": 73,
            "name": "C#5",
            "ticks": 64080,
            "time": 200.25,
            "velocity": 0.5275590551181102
          },
          {
            "duration": 2.25,
            "durationTicks": 720,
            "midi": 73,
            "name": "C#5",
            "ticks": 73440,
            "time": 229.5,
            "velocity": 0.47244094488188976
          },
          {
            "duration": 2.25,
            "durationTicks": 720,
            "midi": 71,
            "name": "B4",
            "ticks": 74160,
            "time": 231.75,
            "velocity": 0.47244094488188976
          },
          {
            "duration": 2.25,
            "durationTicks": 720,
            "midi": 69,
            "name": "A4",
            "ticks": 74880,
            "time": 234,
            "velocity": 0.47244094488188976
          },
          {
            "duration": 1.5,
            "durationTicks": 480,
            "midi": 68,
            "name": "G#4",
            "ticks": 75600,
            "time": 236.25,
            "velocity": 0.4645669291338583
          },
          {
            "duration": 0.75,
            "durationTicks": 240,
            "midi": 71,
            "name": "B4",
            "ticks": 76080,
            "time": 237.75,
            "velocity": 0.4409448818897638
          },
          {
            "duration": 1.200000000000017,
            "durationTicks": 384,
            "midi": 69,
            "name": "A4",
            "ticks": 76320,
            "time": 238.5,
            "velocity": 0.4330708661417323
          },
          {
            "duration": 4.5,
            "durationTicks": 1440,
            "midi": 66,
            "name": "F#4",
            "ticks": 92160,
            "time": 288,
            "velocity": 0.47244094488188976
          },
          {
            "duration": 5.100000000000023,
            "durationTicks": 1632,
            "midi": 74,
            "name": "D5",
            "ticks": 92160,
            "time": 288,
            "velocity": 0.47244094488188976
          },
          {
            "duration": 0.6000000000000227,
            "durationTicks": 192,
            "midi": 67,
            "name": "G4",
            "ticks": 93600,
            "time": 292.5,
            "velocity": 0.47244094488188976
          },
          {
            "duration": 3,
            "durationTicks": 960,
            "midi": 81,
            "name": "A5",
            "ticks": 98640,
            "time": 308.25,
            "velocity": 0.6299212598425197
          },
          {
            "duration": 0.75,
            "durationTicks": 240,
            "midi": 80,
            "name": "G#5",
            "ticks": 99600,
            "time": 311.25,
            "velocity": 0.6299212598425197
          },
          {
            "duration": 0.75,
            "durationTicks": 240,
            "midi": 78,
            "name": "F#5",
            "ticks": 99840,
            "time": 312,
            "velocity": 0.6299212598425197
          },
          {
            "duration": 0.75,
            "durationTicks": 240,
            "midi": 77,
            "name": "F5",
            "ticks": 100080,
            "time": 312.75,
            "velocity": 0.6299212598425197
          },
          {
            "duration": 0.75,
            "durationTicks": 240,
            "midi": 78,
            "name": "F#5",
            "ticks": 100320,
            "time": 313.5,
            "velocity": 0.6299212598425197
          },
          {
            "duration": 0.75,
            "durationTicks": 240,
            "midi": 80,
            "name": "G#5",
            "ticks": 100560,
            "time": 314.25,
            "velocity": 0.6299212598425197
          },
          {
            "duration": 2.25,
            "durationTicks": 720,
            "midi": 73,
            "name": "C#5",
            "ticks": 100800,
            "time": 315,
            "velocity": 0.47244094488188976
          },
          {
            "duration": 3,
            "durationTicks": 960,
            "midi": 81,
            "name": "A5",
            "ticks": 104400,
            "time": 326.25,
            "velocity": 0.6299212598425197
          },
          {
            "duration": 0.75,
            "durationTicks": 240,
            "midi": 80,
            "name": "G#5",
            "ticks": 105360,
            "time": 329.25,
            "velocity": 0.6299212598425197
          },
          {
            "duration": 0.75,
            "durationTicks": 240,
            "midi": 78,
            "name": "F#5",
            "ticks": 105600,
            "time": 330,
            "velocity": 0.6299212598425197
          },
          {
            "duration": 0.75,
            "durationTicks": 240,
            "midi": 77,
            "name": "F5",
            "ticks": 105840,
            "time": 330.75,
            "velocity": 0.6299212598425197
          },
          {
            "duration": 0.75,
            "durationTicks": 240,
            "midi": 78,
            "name": "F#5",
            "ticks": 106080,
            "time": 331.5,
            "velocity": 0.6299212598425197
          },
          {
            "duration": 0.75,
            "durationTicks": 240,
            "midi": 80,
            "name": "G#5",
            "ticks": 106320,
            "time": 332.25,
            "velocity": 0.6299212598425197
          },
          {
            "duration": 0.75,
            "durationTicks": 240,
            "midi": 79,
            "name": "G5",
            "ticks": 106560,
            "time": 333,
            "velocity": 0.6299212598425197
          },
          {
            "duration": 0.75,
            "durationTicks": 240,
            "midi": 78,
            "name": "F#5",
            "ticks": 106800,
            "time": 333.75,
            "velocity": 0.6299212598425197
          },
          {
            "duration": 0.75,
            "durationTicks": 240,
            "midi": 76,
            "name": "E5",
            "ticks": 107040,
            "time": 334.5,
            "velocity": 0.6299212598425197
          },
          {
            "duration": 2.25,
            "durationTicks": 720,
            "midi": 74,
            "name": "D5",
            "ticks": 107280,
            "time": 335.25,
            "velocity": 0.6299212598425197
          },
          {
            "duration": 0.75,
            "durationTicks": 240,
            "midi": 73,
            "name": "C#5",
            "ticks": 108000,
            "time": 337.5,
            "velocity": 0.6299212598425197
          },
          {
            "duration": 0.7124999999999773,
            "durationTicks": 228,
            "midi": 71,
            "name": "B4",
            "ticks": 108240,
            "time": 338.25,
            "velocity": 0.6299212598425197
          },
          {
            "duration": 1.5,
            "durationTicks": 480,
            "midi": 69,
            "name": "A4",
            "ticks": 108480,
            "time": 339,
            "velocity": 0.6299212598425197
          },
          {
            "duration": 0.4500000000000455,
            "durationTicks": 144,
            "midi": 71,
            "name": "B4",
            "ticks": 108960,
            "time": 340.5,
            "velocity": 0.6299212598425197
          },
          {
            "duration": 0.4500000000000455,
            "durationTicks": 144,
            "midi": 68,
            "name": "G#4",
            "ticks": 109200,
            "time": 341.25,
            "velocity": 0.6299212598425197
          },
          {
            "duration": 1.4249999999999545,
            "durationTicks": 456,
            "midi": 66,
            "name": "F#4",
            "ticks": 109440,
            "time": 342,
            "velocity": 0.5511811023622047
          },
          {
            "duration": 4.5,
            "durationTicks": 1440,
            "midi": 81,
            "name": "A5",
            "ticks": 115920,
            "time": 362.25,
            "velocity": 0.47244094488188976
          },
          {
            "duration": 4.5,
            "durationTicks": 1440,
            "midi": 80,
            "name": "G#5",
            "ticks": 117360,
            "time": 366.75,
            "velocity": 0.47244094488188976
          },
          {
            "duration": 4.5,
            "durationTicks": 1440,
            "midi": 78,
            "name": "F#5",
            "ticks": 118800,
            "time": 371.25,
            "velocity": 0.47244094488188976
          },
          {
            "duration": 2.25,
            "durationTicks": 720,
            "midi": 77,
            "name": "F5",
            "ticks": 120240,
            "time": 375.75,
            "velocity": 0.47244094488188976
          },
          {
            "duration": 1.2000000000000455,
            "durationTicks": 384,
            "midi": 78,
            "name": "F#5",
            "ticks": 120960,
            "time": 378,
            "velocity": 0.47244094488188976
          },
          {
            "duration": 9,
            "durationTicks": 2880,
            "midi": 78,
            "name": "F#5",
            "ticks": 126720,
            "time": 396,
            "velocity": 0.47244094488188976
          },
          {
            "duration": 4.5,
            "durationTicks": 1440,
            "midi": 79,
            "name": "G5",
            "ticks": 129600,
            "time": 405,
            "velocity": 0.47244094488188976
          },
          {
            "duration": 2.25,
            "durationTicks": 720,
            "midi": 78,
            "name": "F#5",
            "ticks": 131040,
            "time": 409.5,
            "velocity": 0.47244094488188976
          },
          {
            "duration": 2.25,
            "durationTicks": 720,
            "midi": 77,
            "name": "F5",
            "ticks": 131760,
            "time": 411.75,
            "velocity": 0.47244094488188976
          },
          {
            "duration": 0.5999999999999659,
            "durationTicks": 192,
            "midi": 78,
            "name": "F#5",
            "ticks": 132480,
            "time": 414,
            "velocity": 0.47244094488188976
          },
          {
            "duration": 3,
            "durationTicks": 960,
            "midi": 69,
            "name": "A4",
            "ticks": 136080,
            "time": 425.25,
            "velocity": 0.47244094488188976
          },
          {
            "duration": 0.75,
            "durationTicks": 240,
            "midi": 68,
            "name": "G#4",
            "ticks": 137040,
            "time": 428.25,
            "velocity": 0.47244094488188976
          },
          {
            "duration": 0.75,
            "durationTicks": 240,
            "midi": 66,
            "name": "F#4",
            "ticks": 137280,
            "time": 429,
            "velocity": 0.47244094488188976
          },
          {
            "duration": 0.75,
            "durationTicks": 240,
            "midi": 65,
            "name": "F4",
            "ticks": 137520,
            "time": 429.75,
            "velocity": 0.47244094488188976
          },
          {
            "duration": 0.75,
            "durationTicks": 240,
            "midi": 66,
            "name": "F#4",
            "ticks": 137760,
            "time": 430.5,
            "velocity": 0.47244094488188976
          },
          {
            "duration": 0.75,
            "durationTicks": 240,
            "midi": 68,
            "name": "G#4",
            "ticks": 138000,
            "time": 431.25,
            "velocity": 0.47244094488188976
          },
          {
            "duration": 2.1375000000000455,
            "durationTicks": 684,
            "midi": 61,
            "name": "C#4",
            "ticks": 138240,
            "time": 432,
            "velocity": 0.47244094488188976
          },
          {
            "duration": 3,
            "durationTicks": 960,
            "midi": 69,
            "name": "A4",
            "ticks": 138960,
            "time": 434.25,
            "velocity": 0.47244094488188976
          },
          {
            "duration": 0.75,
            "durationTicks": 240,
            "midi": 68,
            "name": "G#4",
            "ticks": 139920,
            "time": 437.25,
            "velocity": 0.47244094488188976
          },
          {
            "duration": 0.75,
            "durationTicks": 240,
            "midi": 66,
            "name": "F#4",
            "ticks": 140160,
            "time": 438,
            "velocity": 0.47244094488188976
          },
          {
            "duration": 0.75,
            "durationTicks": 240,
            "midi": 65,
            "name": "F4",
            "ticks": 140400,
            "time": 438.75,
            "velocity": 0.47244094488188976
          },
          {
            "duration": 0.75,
            "durationTicks": 240,
            "midi": 66,
            "name": "F#4",
            "ticks": 140640,
            "time": 439.5,
            "velocity": 0.47244094488188976
          },
          {
            "duration": 0.75,
            "durationTicks": 240,
            "midi": 68,
            "name": "G#4",
            "ticks": 140880,
            "time": 440.25,
            "velocity": 0.47244094488188976
          },
          {
            "duration": 0.4500000000000455,
            "durationTicks": 144,
            "midi": 66,
            "name": "F#4",
            "ticks": 141120,
            "time": 441,
            "velocity": 0.4330708661417323
          },
          {
            "duration": 0.4500000000000455,
            "durationTicks": 144,
            "midi": 73,
            "name": "C#5",
            "ticks": 141360,
            "time": 441.75,
            "velocity": 0.4330708661417323
          },
          {
            "duration": 0.4500000000000455,
            "durationTicks": 144,
            "midi": 78,
            "name": "F#5",
            "ticks": 141840,
            "time": 443.25,
            "velocity": 0.4330708661417323
          },
          {
            "duration": 0.4500000000000455,
            "durationTicks": 144,
            "midi": 78,
            "name": "F#5",
            "ticks": 142080,
            "time": 444,
            "velocity": 0.4330708661417323
          },
          {
            "duration": 0.4124999999999659,
            "durationTicks": 132,
            "midi": 81,
            "name": "A5",
            "ticks": 142560,
            "time": 445.5,
            "velocity": 0.4330708661417323
          },
          {
            "duration": 0.4124999999999659,
            "durationTicks": 132,
            "midi": 81,
            "name": "A5",
            "ticks": 142800,
            "time": 446.25,
            "velocity": 0.4330708661417323
          }
        ]
      },
      {
        "channel": 0,
        "controlChanges": {},
        "pitchBends": [],
        "instrument": {
          "family": "piano",
          "number": 0,
          "name": "acoustic grand piano"
        },
        "name": "Piano Concerto n23 K488 2mov",
        "notes": [],
        "endOfTrackTicks": 144000
      },
      {
        "channel": 2,
        "controlChanges": {
          "7": [
            {
              "number": 7,
              "ticks": 0,
              "time": 0,
              "value": 0.5905511811023622
            }
          ],
          "10": [
            {
              "number": 10,
              "ticks": 0,
              "time": 0,
              "value": 0.5039370078740157
            }
          ],
          "91": [
            {
              "number": 91,
              "ticks": 0,
              "time": 0,
              "value": 0.7480314960629921
            }
          ]
        },
        "pitchBends": [],
        "instrument": {
          "family": "reed",
          "number": 71,
          "name": "clarinet"
        },
        "name": "",
        "notes": [
          {
            "duration": 2.25,
            "durationTicks": 720,
            "midi": 73,
            "name": "C#5",
            "ticks": 23760,
            "time": 74.25,
            "velocity": 0.6299212598425197
          },
          {
            "duration": 2.25,
            "durationTicks": 720,
            "midi": 75,
            "name": "D#5",
            "ticks": 24480,
            "time": 76.5,
            "velocity": 0.6299212598425197
          },
          {
            "duration": 2.25,
            "durationTicks": 720,
            "midi": 74,
            "name": "D5",
            "ticks": 25200,
            "time": 78.75,
            "velocity": 0.6299212598425197
          },
          {
            "duration": 3,
            "durationTicks": 960,
            "midi": 73,
            "name": "C#5",
            "ticks": 25920,
            "time": 81,
            "velocity": 0.6299212598425197
          },
          {
            "duration": 0.75,
            "durationTicks": 240,
            "midi": 71,
            "name": "B4",
            "ticks": 26880,
            "time": 84,
            "velocity": 0.6299212598425197
          },
          {
            "duration": 0.75,
            "durationTicks": 240,
            "midi": 69,
            "name": "A4",
            "ticks": 27120,
            "time": 84.75,
            "velocity": 0.6299212598425197
          },
          {
            "duration": 0.75,
            "durationTicks": 240,
            "midi": 68,
            "name": "G#4",
            "ticks": 27360,
            "time": 85.5,
            "velocity": 0.6299212598425197
          },
          {
            "duration": 0.75,
            "durationTicks": 240,
            "midi": 65,
            "name": "F4",
            "ticks": 27600,
            "time": 86.25,
            "velocity": 0.6299212598425197
          },
          {
            "duration": 1.5,
            "durationTicks": 480,
            "midi": 66,
            "name": "F#4",
            "ticks": 27840,
            "time": 87,
            "velocity": 0.6299212598425197
          },
          {
            "duration": 0.44999999999998863,
            "durationTicks": 144,
            "midi": 68,
            "name": "G#4",
            "ticks": 28320,
            "time": 88.5,
            "velocity": 0.6299212598425197
          },
          {
            "duration": 0.375,
            "durationTicks": 120,
            "midi": 65,
            "name": "F4",
            "ticks": 28560,
            "time": 89.25,
            "velocity": 0.6299212598425197
          },
          {
            "duration": 2.25,
            "durationTicks": 720,
            "midi": 68,
            "name": "G#4",
            "ticks": 46080,
            "time": 144,
            "velocity": 0.47244094488188976
          },
          {
            "duration": 2.25,
            "durationTicks": 720,
            "midi": 69,
            "name": "A4",
            "ticks": 46800,
            "time": 146.25,
            "velocity": 0.47244094488188976
          },
          {
            "duration": 0.6000000000000227,
            "durationTicks": 192,
            "midi": 68,
            "name": "G#4",
            "ticks": 47520,
            "time": 148.5,
            "velocity": 0.47244094488188976
          },
          {
            "duration": 0.14999999999997726,
            "durationTicks": 48,
            "midi": 52,
            "name": "E3",
            "ticks": 50400,
            "time": 157.5,
            "velocity": 0.5511811023622047
          },
          {
            "duration": 0.15000000000000568,
            "durationTicks": 48,
            "midi": 57,
            "name": "A3",
            "ticks": 50480,
            "time": 157.75,
            "velocity": 0.5511811023622047
          },
          {
            "duration": 0.15000000000000568,
            "durationTicks": 48,
            "midi": 61,
            "name": "C#4",
            "ticks": 50560,
            "time": 158,
            "velocity": 0.5511811023622047
          },
          {
            "duration": 0.14999999999997726,
            "durationTicks": 48,
            "midi": 64,
            "name": "E4",
            "ticks": 50640,
            "time": 158.25,
            "velocity": 0.5511811023622047
          },
          {
            "duration": 0.15000000000000568,
            "durationTicks": 48,
            "midi": 61,
            "name": "C#4",
            "ticks": 50720,
            "time": 158.5,
            "velocity": 0.5511811023622047
          },
          {
            "duration": 0.15000000000000568,
            "durationTicks": 48,
            "midi": 57,
            "name": "A3",
            "ticks": 50800,
            "time": 158.75,
            "velocity": 0.5511811023622047
          },
          {
            "duration": 0.14999999999997726,
            "durationTicks": 48,
            "midi": 52,
            "name": "E3",
            "ticks": 50880,
            "time": 159,
            "velocity": 0.5511811023622047
          },
          {
            "duration": 0.15000000000000568,
            "durationTicks": 48,
            "midi": 57,
            "name": "A3",
            "ticks": 50960,
            "time": 159.25,
            "velocity": 0.5511811023622047
          },
          {
            "duration": 0.15000000000000568,
            "durationTicks": 48,
            "midi": 61,
            "name": "C#4",
            "ticks": 51040,
            "time": 159.5,
            "velocity": 0.5511811023622047
          },
          {
            "duration": 0.14999999999997726,
            "durationTicks": 48,
            "midi": 52,
            "name": "E3",
            "ticks": 51120,
            "time": 159.75,
            "velocity": 0.5511811023622047
          },
          {
            "duration": 0.15000000000000568,
            "durationTicks": 48,
            "midi": 57,
            "name": "A3",
            "ticks": 51200,
            "time": 160,
            "velocity": 0.5511811023622047
          },
          {
            "duration": 0.15000000000000568,
            "durationTicks": 48,
            "midi": 61,
            "name": "C#4",
            "ticks": 51280,
            "time": 160.25,
            "velocity": 0.5511811023622047
          },
          {
            "duration": 0.14999999999997726,
            "durationTicks": 48,
            "midi": 64,
            "name": "E4",
            "ticks": 51360,
            "time": 160.5,
            "velocity": 0.5511811023622047
          },
          {
            "duration": 0.15000000000000568,
            "durationTicks": 48,
            "midi": 61,
            "name": "C#4",
            "ticks": 51440,
            "time": 160.75,
            "velocity": 0.5511811023622047
          },
          {
            "duration": 0.15000000000000568,
            "durationTicks": 48,
            "midi": 57,
            "name": "A3",
            "ticks": 51520,
            "time": 161,
            "velocity": 0.5511811023622047
          },
          {
            "duration": 0.14999999999997726,
            "durationTicks": 48,
            "midi": 52,
            "name": "E3",
            "ticks": 51600,
            "time": 161.25,
            "velocity": 0.5511811023622047
          },
          {
            "duration": 0.15000000000000568,
            "durationTicks": 48,
            "midi": 57,
            "name": "A3",
            "ticks": 51680,
            "time": 161.5,
            "velocity": 0.5511811023622047
          },
          {
            "duration": 0.15000000000000568,
            "durationTicks": 48,
            "midi": 61,
            "name": "C#4",
            "ticks": 51760,
            "time": 161.75,
            "velocity": 0.5511811023622047
          },
          {
            "duration": 0.14999999999997726,
            "durationTicks": 48,
            "midi": 52,
            "name": "E3",
            "ticks": 51840,
            "time": 162,
            "velocity": 0.5511811023622047
          },
          {
            "duration": 0.15000000000000568,
            "durationTicks": 48,
            "midi": 56,
            "name": "G#3",
            "ticks": 51920,
            "time": 162.25,
            "velocity": 0.5511811023622047
          },
          {
            "duration": 0.15000000000000568,
            "durationTicks": 48,
            "midi": 59,
            "name": "B3",
            "ticks": 52000,
            "time": 162.5,
            "velocity": 0.5511811023622047
          },
          {
            "duration": 0.14999999999997726,
            "durationTicks": 48,
            "midi": 64,
            "name": "E4",
            "ticks": 52080,
            "time": 162.75,
            "velocity": 0.5511811023622047
          },
          {
            "duration": 0.15000000000000568,
            "durationTicks": 48,
            "midi": 59,
            "name": "B3",
            "ticks": 52160,
            "time": 163,
            "velocity": 0.5511811023622047
          },
          {
            "duration": 0.15000000000000568,
            "durationTicks": 48,
            "midi": 56,
            "name": "G#3",
            "ticks": 52240,
            "time": 163.25,
            "velocity": 0.5511811023622047
          },
          {
            "duration": 0.14999999999997726,
            "durationTicks": 48,
            "midi": 52,
            "name": "E3",
            "ticks": 52320,
            "time": 163.5,
            "velocity": 0.5511811023622047
          },
          {
            "duration": 0.15000000000000568,
            "durationTicks": 48,
            "midi": 56,
            "name": "G#3",
            "ticks": 52400,
            "time": 163.75,
            "velocity": 0.5511811023622047
          },
          {
            "duration": 0.15000000000000568,
            "durationTicks": 48,
            "midi": 59,
            "name": "B3",
            "ticks": 52480,
            "time": 164,
            "velocity": 0.5511811023622047
          },
          {
            "duration": 0.14999999999997726,
            "durationTicks": 48,
            "midi": 52,
            "name": "E3",
            "ticks": 52560,
            "time": 164.25,
            "velocity": 0.5511811023622047
          },
          {
            "duration": 0.15000000000000568,
            "durationTicks": 48,
            "midi": 56,
            "name": "G#3",
            "ticks": 52640,
            "time": 164.5,
            "velocity": 0.5511811023622047
          },
          {
            "duration": 0.15000000000000568,
            "durationTicks": 48,
            "midi": 59,
            "name": "B3",
            "ticks": 52720,
            "time": 164.75,
            "velocity": 0.5511811023622047
          },
          {
            "duration": 0.14999999999997726,
            "durationTicks": 48,
            "midi": 64,
            "name": "E4",
            "ticks": 52800,
            "time": 165,
            "velocity": 0.5511811023622047
          },
          {
            "duration": 0.15000000000000568,
            "durationTicks": 48,
            "midi": 59,
            "name": "B3",
            "ticks": 52880,
            "time": 165.25,
            "velocity": 0.5511811023622047
          },
          {
            "duration": 0.15000000000000568,
            "durationTicks": 48,
            "midi": 56,
            "name": "G#3",
            "ticks": 52960,
            "time": 165.5,
            "velocity": 0.5511811023622047
          },
          {
            "duration": 0.14999999999997726,
            "durationTicks": 48,
            "midi": 52,
            "name": "E3",
            "ticks": 53040,
            "time": 165.75,
            "velocity": 0.5511811023622047
          },
          {
            "duration": 0.15000000000000568,
            "durationTicks": 48,
            "midi": 56,
            "name": "G#3",
            "ticks": 53120,
            "time": 166,
            "velocity": 0.5511811023622047
          },
          {
            "duration": 0.15000000000000568,
            "durationTicks": 48,
            "midi": 59,
            "name": "B3",
            "ticks": 53200,
            "time": 166.25,
            "velocity": 0.5511811023622047
          },
          {
            "duration": 0.6000000000000227,
            "durationTicks": 192,
            "midi": 57,
            "name": "A3",
            "ticks": 53280,
            "time": 166.5,
            "velocity": 0.47244094488188976
          },
          {
            "duration": 0.375,
            "durationTicks": 120,
            "midi": 69,
            "name": "A4",
            "ticks": 54360,
            "time": 169.875,
            "velocity": 0.47244094488188976
          },
          {
            "duration": 0.375,
            "durationTicks": 120,
            "midi": 71,
            "name": "B4",
            "ticks": 54480,
            "time": 170.25,
            "velocity": 0.47244094488188976
          },
          {
            "duration": 0.375,
            "durationTicks": 120,
            "midi": 72,
            "name": "C5",
            "ticks": 54600,
            "time": 170.625,
            "velocity": 0.47244094488188976
          },
          {
            "duration": 0.375,
            "durationTicks": 120,
            "midi": 73,
            "name": "C#5",
            "ticks": 54720,
            "time": 171,
            "velocity": 0.47244094488188976
          },
          {
            "duration": 0.375,
            "durationTicks": 120,
            "midi": 72,
            "name": "C5",
            "ticks": 54840,
            "time": 171.375,
            "velocity": 0.47244094488188976
          },
          {
            "duration": 0.375,
            "durationTicks": 120,
            "midi": 73,
            "name": "C#5",
            "ticks": 54960,
            "time": 171.75,
            "velocity": 0.47244094488188976
          },
          {
            "duration": 0.375,
            "durationTicks": 120,
            "midi": 72,
            "name": "C5",
            "ticks": 55080,
            "time": 172.125,
            "velocity": 0.47244094488188976
          },
          {
            "duration": 0.375,
            "durationTicks": 120,
            "midi": 73,
            "name": "C#5",
            "ticks": 55200,
            "time": 172.5,
            "velocity": 0.47244094488188976
          },
          {
            "duration": 0.375,
            "durationTicks": 120,
            "midi": 69,
            "name": "A4",
            "ticks": 55320,
            "time": 172.875,
            "velocity": 0.47244094488188976
          },
          {
            "duration": 0.6000000000000227,
            "durationTicks": 192,
            "midi": 68,
            "name": "G#4",
            "ticks": 55440,
            "time": 173.25,
            "velocity": 0.47244094488188976
          },
          {
            "duration": 2.25,
            "durationTicks": 720,
            "midi": 73,
            "name": "C#5",
            "ticks": 56160,
            "time": 175.5,
            "velocity": 0.47244094488188976
          },
          {
            "duration": 1.5,
            "durationTicks": 480,
            "midi": 69,
            "name": "A4",
            "ticks": 56880,
            "time": 177.75,
            "velocity": 0.47244094488188976
          },
          {
            "duration": 0.1875,
            "durationTicks": 60,
            "midi": 71,
            "name": "B4",
            "ticks": 57360,
            "time": 179.25,
            "velocity": 0.47244094488188976
          },
          {
            "duration": 0.1875,
            "durationTicks": 60,
            "midi": 69,
            "name": "A4",
            "ticks": 57420,
            "time": 179.4375,
            "velocity": 0.47244094488188976
          },
          {
            "duration": 0.1875,
            "durationTicks": 60,
            "midi": 68,
            "name": "G#4",
            "ticks": 57480,
            "time": 179.625,
            "velocity": 0.47244094488188976
          },
          {
            "duration": 0.1875,
            "durationTicks": 60,
            "midi": 69,
            "name": "A4",
            "ticks": 57540,
            "time": 179.8125,
            "velocity": 0.47244094488188976
          },
          {
            "duration": 0.44999999999998863,
            "durationTicks": 144,
            "midi": 71,
            "name": "B4",
            "ticks": 57600,
            "time": 180,
            "velocity": 0.47244094488188976
          },
          {
            "duration": 0.44999999999998863,
            "durationTicks": 144,
            "midi": 71,
            "name": "B4",
            "ticks": 57840,
            "time": 180.75,
            "velocity": 0.47244094488188976
          },
          {
            "duration": 0.44999999999998863,
            "durationTicks": 144,
            "midi": 71,
            "name": "B4",
            "ticks": 58080,
            "time": 181.5,
            "velocity": 0.47244094488188976
          },
          {
            "duration": 0.6000000000000227,
            "durationTicks": 192,
            "midi": 71,
            "name": "B4",
            "ticks": 58320,
            "time": 182.25,
            "velocity": 0.47244094488188976
          },
          {
            "duration": 1.5,
            "durationTicks": 480,
            "midi": 71,
            "name": "B4",
            "ticks": 61920,
            "time": 193.5,
            "velocity": 0.5196850393700787
          },
          {
            "duration": 0.75,
            "durationTicks": 240,
            "midi": 69,
            "name": "A4",
            "ticks": 62400,
            "time": 195,
            "velocity": 0.47244094488188976
          },
          {
            "duration": 0.6000000000000227,
            "durationTicks": 192,
            "midi": 68,
            "name": "G#4",
            "ticks": 62640,
            "time": 195.75,
            "velocity": 0.4645669291338583
          },
          {
            "duration": 1.5,
            "durationTicks": 480,
            "midi": 73,
            "name": "C#5",
            "ticks": 63360,
            "time": 198,
            "velocity": 0.5118110236220472
          },
          {
            "duration": 0.75,
            "durationTicks": 240,
            "midi": 71,
            "name": "B4",
            "ticks": 63840,
            "time": 199.5,
            "velocity": 0.4645669291338583
          },
          {
            "duration": 0.6000000000000227,
            "durationTicks": 192,
            "midi": 69,
            "name": "A4",
            "ticks": 64080,
            "time": 200.25,
            "velocity": 0.4566929133858268
          },
          {
            "duration": 3,
            "durationTicks": 960,
            "midi": 69,
            "name": "A4",
            "ticks": 73440,
            "time": 229.5,
            "velocity": 0.47244094488188976
          },
          {
            "duration": 2.25,
            "durationTicks": 720,
            "midi": 68,
            "name": "G#4",
            "ticks": 74400,
            "time": 232.5,
            "velocity": 0.47244094488188976
          },
          {
            "duration": 2.25,
            "durationTicks": 720,
            "midi": 66,
            "name": "F#4",
            "ticks": 75120,
            "time": 234.75,
            "velocity": 0.47244094488188976
          },
          {
            "duration": 0.75,
            "durationTicks": 240,
            "midi": 65,
            "name": "F4",
            "ticks": 75840,
            "time": 237,
            "velocity": 0.44881889763779526
          },
          {
            "duration": 0.75,
            "durationTicks": 240,
            "midi": 68,
            "name": "G#4",
            "ticks": 76080,
            "time": 237.75,
            "velocity": 0.4251968503937008
          },
          {
            "duration": 1.200000000000017,
            "durationTicks": 384,
            "midi": 66,
            "name": "F#4",
            "ticks": 76320,
            "time": 238.5,
            "velocity": 0.3937007874015748
          },
          {
            "duration": 2.25,
            "durationTicks": 720,
            "midi": 73,
            "name": "C#5",
            "ticks": 104400,
            "time": 326.25,
            "velocity": 0.6299212598425197
          },
          {
            "duration": 2.25,
            "durationTicks": 720,
            "midi": 75,
            "name": "D#5",
            "ticks": 105120,
            "time": 328.5,
            "velocity": 0.6299212598425197
          },
          {
            "duration": 2.25,
            "durationTicks": 720,
            "midi": 74,
            "name": "D5",
            "ticks": 105840,
            "time": 330.75,
            "velocity": 0.6299212598425197
          },
          {
            "duration": 3,
            "durationTicks": 960,
            "midi": 73,
            "name": "C#5",
            "ticks": 106560,
            "time": 333,
            "velocity": 0.6299212598425197
          },
          {
            "duration": 0.75,
            "durationTicks": 240,
            "midi": 71,
            "name": "B4",
            "ticks": 107520,
            "time": 336,
            "velocity": 0.6299212598425197
          },
          {
            "duration": 0.75,
            "durationTicks": 240,
            "midi": 69,
            "name": "A4",
            "ticks": 107760,
            "time": 336.75,
            "velocity": 0.6299212598425197
          },
          {
            "duration": 0.75,
            "durationTicks": 240,
            "midi": 68,
            "name": "G#4",
            "ticks": 108000,
            "time": 337.5,
            "velocity": 0.6299212598425197
          },
          {
            "duration": 0.7124999999999773,
            "durationTicks": 228,
            "midi": 65,
            "name": "F4",
            "ticks": 108240,
            "time": 338.25,
            "velocity": 0.6299212598425197
          },
          {
            "duration": 1.5,
            "durationTicks": 480,
            "midi": 66,
            "name": "F#4",
            "ticks": 108480,
            "time": 339,
            "velocity": 0.6299212598425197
          },
          {
            "duration": 0.4500000000000455,
            "durationTicks": 144,
            "midi": 68,
            "name": "G#4",
            "ticks": 108960,
            "time": 340.5,
            "velocity": 0.6299212598425197
          },
          {
            "duration": 0.4500000000000455,
            "durationTicks": 144,
            "midi": 65,
            "name": "F4",
            "ticks": 109200,
            "time": 341.25,
            "velocity": 0.6299212598425197
          },
          {
            "duration": 4.5,
            "durationTicks": 1440,
            "midi": 73,
            "name": "C#5",
            "ticks": 115200,
            "time": 360,
            "velocity": 0.47244094488188976
          },
          {
            "duration": 2.25,
            "durationTicks": 720,
            "midi": 72,
            "name": "C5",
            "ticks": 116640,
            "time": 364.5,
            "velocity": 0.47244094488188976
          },
          {
            "duration": 2.25,
            "durationTicks": 720,
            "midi": 71,
            "name": "B4",
            "ticks": 117360,
            "time": 366.75,
            "velocity": 0.47244094488188976
          },
          {
            "duration": 2.25,
            "durationTicks": 720,
            "midi": 70,
            "name": "A#4",
            "ticks": 118080,
            "time": 369,
            "velocity": 0.47244094488188976
          },
          {
            "duration": 2.25,
            "durationTicks": 720,
            "midi": 69,
            "name": "A4",
            "ticks": 118800,
            "time": 371.25,
            "velocity": 0.47244094488188976
          },
          {
            "duration": 4.5,
            "durationTicks": 1440,
            "midi": 68,
            "name": "G#4",
            "ticks": 119520,
            "time": 373.5,
            "velocity": 0.47244094488188976
          },
          {
            "duration": 1.2000000000000455,
            "durationTicks": 384,
            "midi": 66,
            "name": "F#4",
            "ticks": 120960,
            "time": 378,
            "velocity": 0.47244094488188976
          },
          {
            "duration": 4.5,
            "durationTicks": 1440,
            "midi": 73,
            "name": "C#5",
            "ticks": 126720,
            "time": 396,
            "velocity": 0.47244094488188976
          },
          {
            "duration": 4.5,
            "durationTicks": 1440,
            "midi": 74,
            "name": "D5",
            "ticks": 128160,
            "time": 400.5,
            "velocity": 0.47244094488188976
          },
          {
            "duration": 4.5,
            "durationTicks": 1440,
            "midi": 67,
            "name": "G4",
            "ticks": 129600,
            "time": 405,
            "velocity": 0.47244094488188976
          },
          {
            "duration": 2.25,
            "durationTicks": 720,
            "midi": 69,
            "name": "A4",
            "ticks": 131040,
            "time": 409.5,
            "velocity": 0.47244094488188976
          },
          {
            "duration": 2.25,
            "durationTicks": 720,
            "midi": 68,
            "name": "G#4",
            "ticks": 131760,
            "time": 411.75,
            "velocity": 0.47244094488188976
          },
          {
            "duration": 0.5999999999999659,
            "durationTicks": 192,
            "midi": 66,
            "name": "F#4",
            "ticks": 132480,
            "time": 414,
            "velocity": 0.47244094488188976
          },
          {
            "duration": 0.4500000000000455,
            "durationTicks": 144,
            "midi": 69,
            "name": "A4",
            "ticks": 141360,
            "time": 441.75,
            "velocity": 0.4251968503937008
          },
          {
            "duration": 0.4500000000000455,
            "durationTicks": 144,
            "midi": 69,
            "name": "A4",
            "ticks": 141840,
            "time": 443.25,
            "velocity": 0.4251968503937008
          },
          {
            "duration": 0.4500000000000455,
            "durationTicks": 144,
            "midi": 69,
            "name": "A4",
            "ticks": 142080,
            "time": 444,
            "velocity": 0.4251968503937008
          },
          {
            "duration": 0.4124999999999659,
            "durationTicks": 132,
            "midi": 73,
            "name": "C#5",
            "ticks": 142560,
            "time": 445.5,
            "velocity": 0.4251968503937008
          },
          {
            "duration": 0.4124999999999659,
            "durationTicks": 132,
            "midi": 73,
            "name": "C#5",
            "ticks": 142800,
            "time": 446.25,
            "velocity": 0.4251968503937008
          }
        ]
      },
      {
        "channel": 0,
        "controlChanges": {},
        "pitchBends": [],
        "instrument": {
          "family": "piano",
          "number": 0,
          "name": "acoustic grand piano"
        },
        "name": "Piano Concerto n23 K488 2mov",
        "notes": [],
        "endOfTrackTicks": 144000
      },
      {
        "channel": 3,
        "controlChanges": {
          "7": [
            {
              "number": 7,
              "ticks": 0,
              "time": 0,
              "value": 0.5984251968503937
            }
          ],
          "10": [
            {
              "number": 10,
              "ticks": 0,
              "time": 0,
              "value": 0.6299212598425197
            }
          ],
          "91": [
            {
              "number": 91,
              "ticks": 0,
              "time": 0,
              "value": 0.7480314960629921
            }
          ]
        },
        "pitchBends": [],
        "instrument": {
          "family": "reed",
          "number": 70,
          "name": "bassoon"
        },
        "name": "",
        "notes": [
          {
            "duration": 3,
            "durationTicks": 960,
            "midi": 59,
            "name": "B3",
            "ticks": 19440,
            "time": 60.75,
            "velocity": 0.47244094488188976
          },
          {
            "duration": 0.75,
            "durationTicks": 240,
            "midi": 57,
            "name": "A3",
            "ticks": 20400,
            "time": 63.75,
            "velocity": 0.47244094488188976
          },
          {
            "duration": 0.75,
            "durationTicks": 240,
            "midi": 56,
            "name": "G#3",
            "ticks": 20640,
            "time": 64.5,
            "velocity": 0.47244094488188976
          },
          {
            "duration": 0.75,
            "durationTicks": 240,
            "midi": 54,
            "name": "F#3",
            "ticks": 20880,
            "time": 65.25,
            "velocity": 0.47244094488188976
          },
          {
            "duration": 0.75,
            "durationTicks": 240,
            "midi": 56,
            "name": "G#3",
            "ticks": 21120,
            "time": 66,
            "velocity": 0.47244094488188976
          },
          {
            "duration": 0.75,
            "durationTicks": 240,
            "midi": 57,
            "name": "A3",
            "ticks": 21360,
            "time": 66.75,
            "velocity": 0.47244094488188976
          },
          {
            "duration": 2.1374999999999886,
            "durationTicks": 684,
            "midi": 50,
            "name": "D3",
            "ticks": 21600,
            "time": 67.5,
            "velocity": 0.47244094488188976
          },
          {
            "duration": 3,
            "durationTicks": 960,
            "midi": 62,
            "name": "D4",
            "ticks": 22320,
            "time": 69.75,
            "velocity": 0.47244094488188976
          },
          {
            "duration": 0.75,
            "durationTicks": 240,
            "midi": 61,
            "name": "C#4",
            "ticks": 23280,
            "time": 72.75,
            "velocity": 0.47244094488188976
          },
          {
            "duration": 0.75,
            "durationTicks": 240,
            "midi": 59,
            "name": "B3",
            "ticks": 23520,
            "time": 73.5,
            "velocity": 0.47244094488188976
          },
          {
            "duration": 0.75,
            "durationTicks": 240,
            "midi": 57,
            "name": "A3",
            "ticks": 23760,
            "time": 74.25,
            "velocity": 0.47244094488188976
          },
          {
            "duration": 0.75,
            "durationTicks": 240,
            "midi": 56,
            "name": "G#3",
            "ticks": 24000,
            "time": 75,
            "velocity": 0.6299212598425197
          },
          {
            "duration": 0.75,
            "durationTicks": 240,
            "midi": 54,
            "name": "F#3",
            "ticks": 24240,
            "time": 75.75,
            "velocity": 0.6299212598425197
          },
          {
            "duration": 2.25,
            "durationTicks": 720,
            "midi": 63,
            "name": "D#4",
            "ticks": 24480,
            "time": 76.5,
            "velocity": 0.6299212598425197
          },
          {
            "duration": 2.25,
            "durationTicks": 720,
            "midi": 62,
            "name": "D4",
            "ticks": 25200,
            "time": 78.75,
            "velocity": 0.6299212598425197
          },
          {
            "duration": 0.75,
            "durationTicks": 240,
            "midi": 67,
            "name": "G4",
            "ticks": 25920,
            "time": 81,
            "velocity": 0.6299212598425197
          },
          {
            "duration": 0.75,
            "durationTicks": 240,
            "midi": 66,
            "name": "F#4",
            "ticks": 26160,
            "time": 81.75,
            "velocity": 0.6299212598425197
          },
          {
            "duration": 0.75,
            "durationTicks": 240,
            "midi": 64,
            "name": "E4",
            "ticks": 26400,
            "time": 82.5,
            "velocity": 0.6299212598425197
          },
          {
            "duration": 2.25,
            "durationTicks": 720,
            "midi": 62,
            "name": "D4",
            "ticks": 26640,
            "time": 83.25,
            "velocity": 0.6299212598425197
          },
          {
            "duration": 0.75,
            "durationTicks": 240,
            "midi": 61,
            "name": "C#4",
            "ticks": 27360,
            "time": 85.5,
            "velocity": 0.6299212598425197
          },
          {
            "duration": 0.75,
            "durationTicks": 240,
            "midi": 59,
            "name": "B3",
            "ticks": 27600,
            "time": 86.25,
            "velocity": 0.6299212598425197
          },
          {
            "duration": 1.5,
            "durationTicks": 480,
            "midi": 57,
            "name": "A3",
            "ticks": 27840,
            "time": 87,
            "velocity": 0.6299212598425197
          },
          {
            "duration": 0.44999999999998863,
            "durationTicks": 144,
            "midi": 59,
            "name": "B3",
            "ticks": 28320,
            "time": 88.5,
            "velocity": 0.6299212598425197
          },
          {
            "duration": 0.375,
            "durationTicks": 120,
            "midi": 56,
            "name": "G#3",
            "ticks": 28560,
            "time": 89.25,
            "velocity": 0.6299212598425197
          },
          {
            "duration": 1.4250000000000114,
            "durationTicks": 456,
            "midi": 54,
            "name": "F#3",
            "ticks": 28800,
            "time": 90,
            "velocity": 0.5511811023622047
          },
          {
            "duration": 2.25,
            "durationTicks": 720,
            "midi": 56,
            "name": "G#3",
            "ticks": 47520,
            "time": 148.5,
            "velocity": 0.47244094488188976
          },
          {
            "duration": 2.25,
            "durationTicks": 720,
            "midi": 59,
            "name": "B3",
            "ticks": 47520,
            "time": 148.5,
            "velocity": 0.47244094488188976
          },
          {
            "duration": 2.25,
            "durationTicks": 720,
            "midi": 57,
            "name": "A3",
            "ticks": 48240,
            "time": 150.75,
            "velocity": 0.47244094488188976
          },
          {
            "duration": 2.25,
            "durationTicks": 720,
            "midi": 60,
            "name": "C4",
            "ticks": 48240,
            "time": 150.75,
            "velocity": 0.47244094488188976
          },
          {
            "duration": 1.1999999999999886,
            "durationTicks": 384,
            "midi": 56,
            "name": "G#3",
            "ticks": 48960,
            "time": 153,
            "velocity": 0.47244094488188976
          },
          {
            "duration": 1.1999999999999886,
            "durationTicks": 384,
            "midi": 59,
            "name": "B3",
            "ticks": 48960,
            "time": 153,
            "velocity": 0.47244094488188976
          },
          {
            "duration": 0.375,
            "durationTicks": 120,
            "midi": 57,
            "name": "A3",
            "ticks": 53400,
            "time": 166.875,
            "velocity": 0.47244094488188976
          },
          {
            "duration": 0.375,
            "durationTicks": 120,
            "midi": 59,
            "name": "B3",
            "ticks": 53520,
            "time": 167.25,
            "velocity": 0.47244094488188976
          },
          {
            "duration": 0.375,
            "durationTicks": 120,
            "midi": 61,
            "name": "C#4",
            "ticks": 53640,
            "time": 167.625,
            "velocity": 0.47244094488188976
          },
          {
            "duration": 0.375,
            "durationTicks": 120,
            "midi": 62,
            "name": "D4",
            "ticks": 53760,
            "time": 168,
            "velocity": 0.47244094488188976
          },
          {
            "duration": 0.375,
            "durationTicks": 120,
            "midi": 59,
            "name": "B3",
            "ticks": 53880,
            "time": 168.375,
            "velocity": 0.47244094488188976
          },
          {
            "duration": 0.375,
            "durationTicks": 120,
            "midi": 61,
            "name": "C#4",
            "ticks": 54000,
            "time": 168.75,
            "velocity": 0.47244094488188976
          },
          {
            "duration": 0.375,
            "durationTicks": 120,
            "midi": 56,
            "name": "G#3",
            "ticks": 54120,
            "time": 169.125,
            "velocity": 0.47244094488188976
          },
          {
            "duration": 0.375,
            "durationTicks": 120,
            "midi": 57,
            "name": "A3",
            "ticks": 54240,
            "time": 169.5,
            "velocity": 0.47244094488188976
          },
          {
            "duration": 0.375,
            "durationTicks": 120,
            "midi": 61,
            "name": "C#4",
            "ticks": 54360,
            "time": 169.875,
            "velocity": 0.47244094488188976
          },
          {
            "duration": 0.375,
            "durationTicks": 120,
            "midi": 62,
            "name": "D4",
            "ticks": 54480,
            "time": 170.25,
            "velocity": 0.47244094488188976
          },
          {
            "duration": 0.375,
            "durationTicks": 120,
            "midi": 63,
            "name": "D#4",
            "ticks": 54600,
            "time": 170.625,
            "velocity": 0.47244094488188976
          },
          {
            "duration": 0.375,
            "durationTicks": 120,
            "midi": 64,
            "name": "E4",
            "ticks": 54720,
            "time": 171,
            "velocity": 0.47244094488188976
          },
          {
            "duration": 0.375,
            "durationTicks": 120,
            "midi": 63,
            "name": "D#4",
            "ticks": 54840,
            "time": 171.375,
            "velocity": 0.47244094488188976
          },
          {
            "duration": 0.375,
            "durationTicks": 120,
            "midi": 64,
            "name": "E4",
            "ticks": 54960,
            "time": 171.75,
            "velocity": 0.47244094488188976
          },
          {
            "duration": 0.375,
            "durationTicks": 120,
            "midi": 63,
            "name": "D#4",
            "ticks": 55080,
            "time": 172.125,
            "velocity": 0.47244094488188976
          },
          {
            "duration": 0.375,
            "durationTicks": 120,
            "midi": 64,
            "name": "E4",
            "ticks": 55200,
            "time": 172.5,
            "velocity": 0.47244094488188976
          },
          {
            "duration": 0.375,
            "durationTicks": 120,
            "midi": 61,
            "name": "C#4",
            "ticks": 55320,
            "time": 172.875,
            "velocity": 0.47244094488188976
          },
          {
            "duration": 0.6000000000000227,
            "durationTicks": 192,
            "midi": 59,
            "name": "B3",
            "ticks": 55440,
            "time": 173.25,
            "velocity": 0.47244094488188976
          },
          {
            "duration": 1.4250000000000114,
            "durationTicks": 456,
            "midi": 45,
            "name": "A2",
            "ticks": 56160,
            "time": 175.5,
            "velocity": 0.47244094488188976
          },
          {
            "duration": 1.4250000000000114,
            "durationTicks": 456,
            "midi": 57,
            "name": "A3",
            "ticks": 56160,
            "time": 175.5,
            "velocity": 0.47244094488188976
          },
          {
            "duration": 0.7124999999999773,
            "durationTicks": 228,
            "midi": 45,
            "name": "A2",
            "ticks": 56640,
            "time": 177,
            "velocity": 0.47244094488188976
          },
          {
            "duration": 0.7124999999999773,
            "durationTicks": 228,
            "midi": 57,
            "name": "A3",
            "ticks": 56640,
            "time": 177,
            "velocity": 0.47244094488188976
          },
          {
            "duration": 1.4250000000000114,
            "durationTicks": 456,
            "midi": 45,
            "name": "A2",
            "ticks": 56880,
            "time": 177.75,
            "velocity": 0.47244094488188976
          },
          {
            "duration": 1.4250000000000114,
            "durationTicks": 456,
            "midi": 57,
            "name": "A3",
            "ticks": 56880,
            "time": 177.75,
            "velocity": 0.47244094488188976
          },
          {
            "duration": 0.7124999999999773,
            "durationTicks": 228,
            "midi": 45,
            "name": "A2",
            "ticks": 57360,
            "time": 179.25,
            "velocity": 0.47244094488188976
          },
          {
            "duration": 0.7124999999999773,
            "durationTicks": 228,
            "midi": 57,
            "name": "A3",
            "ticks": 57360,
            "time": 179.25,
            "velocity": 0.47244094488188976
          },
          {
            "duration": 0.44999999999998863,
            "durationTicks": 144,
            "midi": 44,
            "name": "G#2",
            "ticks": 57600,
            "time": 180,
            "velocity": 0.47244094488188976
          },
          {
            "duration": 0.44999999999998863,
            "durationTicks": 144,
            "midi": 56,
            "name": "G#3",
            "ticks": 57600,
            "time": 180,
            "velocity": 0.47244094488188976
          },
          {
            "duration": 0.44999999999998863,
            "durationTicks": 144,
            "midi": 44,
            "name": "G#2",
            "ticks": 57840,
            "time": 180.75,
            "velocity": 0.47244094488188976
          },
          {
            "duration": 0.44999999999998863,
            "durationTicks": 144,
            "midi": 56,
            "name": "G#3",
            "ticks": 57840,
            "time": 180.75,
            "velocity": 0.47244094488188976
          },
          {
            "duration": 0.44999999999998863,
            "durationTicks": 144,
            "midi": 44,
            "name": "G#2",
            "ticks": 58080,
            "time": 181.5,
            "velocity": 0.47244094488188976
          },
          {
            "duration": 0.44999999999998863,
            "durationTicks": 144,
            "midi": 56,
            "name": "G#3",
            "ticks": 58080,
            "time": 181.5,
            "velocity": 0.47244094488188976
          },
          {
            "duration": 0.6000000000000227,
            "durationTicks": 192,
            "midi": 44,
            "name": "G#2",
            "ticks": 58320,
            "time": 182.25,
            "velocity": 0.47244094488188976
          },
          {
            "duration": 0.6000000000000227,
            "durationTicks": 192,
            "midi": 56,
            "name": "G#3",
            "ticks": 58320,
            "time": 182.25,
            "velocity": 0.47244094488188976
          },
          {
            "duration": 0.75,
            "durationTicks": 240,
            "midi": 44,
            "name": "G#2",
            "ticks": 62160,
            "time": 194.25,
            "velocity": 0.5590551181102362
          },
          {
            "duration": 0.75,
            "durationTicks": 240,
            "midi": 56,
            "name": "G#3",
            "ticks": 62160,
            "time": 194.25,
            "velocity": 0.5590551181102362
          },
          {
            "duration": 0.75,
            "durationTicks": 240,
            "midi": 45,
            "name": "A2",
            "ticks": 62400,
            "time": 195,
            "velocity": 0.5354330708661418
          },
          {
            "duration": 0.75,
            "durationTicks": 240,
            "midi": 57,
            "name": "A3",
            "ticks": 62400,
            "time": 195,
            "velocity": 0.5354330708661418
          },
          {
            "duration": 0.6000000000000227,
            "durationTicks": 192,
            "midi": 40,
            "name": "E2",
            "ticks": 62640,
            "time": 195.75,
            "velocity": 0.5196850393700787
          },
          {
            "duration": 0.6000000000000227,
            "durationTicks": 192,
            "midi": 52,
            "name": "E3",
            "ticks": 62640,
            "time": 195.75,
            "velocity": 0.5196850393700787
          },
          {
            "duration": 0.75,
            "durationTicks": 240,
            "midi": 45,
            "name": "A2",
            "ticks": 63360,
            "time": 198,
            "velocity": 0.5669291338582677
          },
          {
            "duration": 0.75,
            "durationTicks": 240,
            "midi": 57,
            "name": "A3",
            "ticks": 63360,
            "time": 198,
            "velocity": 0.5669291338582677
          },
          {
            "duration": 0.75,
            "durationTicks": 240,
            "midi": 49,
            "name": "C#3",
            "ticks": 63600,
            "time": 198.75,
            "velocity": 0.5433070866141733
          },
          {
            "duration": 0.75,
            "durationTicks": 240,
            "midi": 61,
            "name": "C#4",
            "ticks": 63600,
            "time": 198.75,
            "velocity": 0.5433070866141733
          },
          {
            "duration": 0.75,
            "durationTicks": 240,
            "midi": 52,
            "name": "E3",
            "ticks": 63840,
            "time": 199.5,
            "velocity": 0.5354330708661418
          },
          {
            "duration": 0.75,
            "durationTicks": 240,
            "midi": 56,
            "name": "G#3",
            "ticks": 63840,
            "time": 199.5,
            "velocity": 0.5354330708661418
          },
          {
            "duration": 0.6000000000000227,
            "durationTicks": 192,
            "midi": 57,
            "name": "A3",
            "ticks": 64080,
            "time": 200.25,
            "velocity": 0.5275590551181102
          },
          {
            "duration": 0.16250000000002274,
            "durationTicks": 52,
            "midi": 59,
            "name": "B3",
            "ticks": 67040,
            "time": 209.5,
            "velocity": 0.6299212598425197
          },
          {
            "duration": 0.16249999999999432,
            "durationTicks": 52,
            "midi": 57,
            "name": "A3",
            "ticks": 67120,
            "time": 209.75,
            "velocity": 0.6299212598425197
          },
          {
            "duration": 0.1624999999999659,
            "durationTicks": 52,
            "midi": 56,
            "name": "G#3",
            "ticks": 67200,
            "time": 210,
            "velocity": 0.6299212598425197
          },
          {
            "duration": 0.16250000000002274,
            "durationTicks": 52,
            "midi": 54,
            "name": "F#3",
            "ticks": 67280,
            "time": 210.25,
            "velocity": 0.6299212598425197
          },
          {
            "duration": 0.16249999999999432,
            "durationTicks": 52,
            "midi": 52,
            "name": "E3",
            "ticks": 67360,
            "time": 210.5,
            "velocity": 0.6299212598425197
          },
          {
            "duration": 0.1624999999999659,
            "durationTicks": 52,
            "midi": 50,
            "name": "D3",
            "ticks": 67440,
            "time": 210.75,
            "velocity": 0.6299212598425197
          },
          {
            "duration": 0.16250000000002274,
            "durationTicks": 52,
            "midi": 49,
            "name": "C#3",
            "ticks": 67520,
            "time": 211,
            "velocity": 0.6299212598425197
          },
          {
            "duration": 0.16249999999999432,
            "durationTicks": 52,
            "midi": 47,
            "name": "B2",
            "ticks": 67600,
            "time": 211.25,
            "velocity": 0.6299212598425197
          },
          {
            "duration": 0.16250000000002274,
            "durationTicks": 52,
            "midi": 61,
            "name": "C#4",
            "ticks": 68480,
            "time": 214,
            "velocity": 0.6299212598425197
          },
          {
            "duration": 0.16249999999999432,
            "durationTicks": 52,
            "midi": 59,
            "name": "B3",
            "ticks": 68560,
            "time": 214.25,
            "velocity": 0.6299212598425197
          },
          {
            "duration": 0.1624999999999659,
            "durationTicks": 52,
            "midi": 57,
            "name": "A3",
            "ticks": 68640,
            "time": 214.5,
            "velocity": 0.6299212598425197
          },
          {
            "duration": 0.16250000000002274,
            "durationTicks": 52,
            "midi": 56,
            "name": "G#3",
            "ticks": 68720,
            "time": 214.75,
            "velocity": 0.6299212598425197
          },
          {
            "duration": 0.16249999999999432,
            "durationTicks": 52,
            "midi": 54,
            "name": "F#3",
            "ticks": 68800,
            "time": 215,
            "velocity": 0.6299212598425197
          },
          {
            "duration": 0.1624999999999659,
            "durationTicks": 52,
            "midi": 52,
            "name": "E3",
            "ticks": 68880,
            "time": 215.25,
            "velocity": 0.6299212598425197
          },
          {
            "duration": 0.16250000000002274,
            "durationTicks": 52,
            "midi": 50,
            "name": "D3",
            "ticks": 68960,
            "time": 215.5,
            "velocity": 0.6299212598425197
          },
          {
            "duration": 0.16249999999999432,
            "durationTicks": 52,
            "midi": 49,
            "name": "C#3",
            "ticks": 69040,
            "time": 215.75,
            "velocity": 0.6299212598425197
          },
          {
            "duration": 4.5,
            "durationTicks": 1440,
            "midi": 61,
            "name": "C#4",
            "ticks": 70560,
            "time": 220.5,
            "velocity": 0.47244094488188976
          },
          {
            "duration": 4.5,
            "durationTicks": 1440,
            "midi": 59,
            "name": "B3",
            "ticks": 72000,
            "time": 225,
            "velocity": 0.47244094488188976
          },
          {
            "duration": 0.6000000000000227,
            "durationTicks": 192,
            "midi": 57,
            "name": "A3",
            "ticks": 73440,
            "time": 229.5,
            "velocity": 0.5511811023622047
          },
          {
            "duration": 0.75,
            "durationTicks": 240,
            "midi": 57,
            "name": "A3",
            "ticks": 73920,
            "time": 231,
            "velocity": 0.5511811023622047
          },
          {
            "duration": 0.6000000000000227,
            "durationTicks": 192,
            "midi": 59,
            "name": "B3",
            "ticks": 74160,
            "time": 231.75,
            "velocity": 0.5511811023622047
          },
          {
            "duration": 0.75,
            "durationTicks": 240,
            "midi": 59,
            "name": "B3",
            "ticks": 74640,
            "time": 233.25,
            "velocity": 0.5511811023622047
          },
          {
            "duration": 0.6000000000000227,
            "durationTicks": 192,
            "midi": 61,
            "name": "C#4",
            "ticks": 74880,
            "time": 234,
            "velocity": 0.5511811023622047
          },
          {
            "duration": 0.75,
            "durationTicks": 240,
            "midi": 61,
            "name": "C#4",
            "ticks": 75360,
            "time": 235.5,
            "velocity": 0.5511811023622047
          },
          {
            "duration": 0.6000000000000227,
            "durationTicks": 192,
            "midi": 49,
            "name": "C#3",
            "ticks": 75600,
            "time": 236.25,
            "velocity": 0.5433070866141733
          },
          {
            "duration": 0.75,
            "durationTicks": 240,
            "midi": 49,
            "name": "C#3",
            "ticks": 76080,
            "time": 237.75,
            "velocity": 0.47244094488188976
          },
          {
            "duration": 1.200000000000017,
            "durationTicks": 384,
            "midi": 54,
            "name": "F#3",
            "ticks": 76320,
            "time": 238.5,
            "velocity": 0.4409448818897638
          },
          {
            "duration": 4.5,
            "durationTicks": 1440,
            "midi": 50,
            "name": "D3",
            "ticks": 92160,
            "time": 288,
            "velocity": 0.47244094488188976
          },
          {
            "duration": 5.100000000000023,
            "durationTicks": 1632,
            "midi": 62,
            "name": "D4",
            "ticks": 92160,
            "time": 288,
            "velocity": 0.47244094488188976
          },
          {
            "duration": 0.6000000000000227,
            "durationTicks": 192,
            "midi": 47,
            "name": "B2",
            "ticks": 93600,
            "time": 292.5,
            "velocity": 0.47244094488188976
          },
          {
            "duration": 3,
            "durationTicks": 960,
            "midi": 59,
            "name": "B3",
            "ticks": 100080,
            "time": 312.75,
            "velocity": 0.47244094488188976
          },
          {
            "duration": 0.75,
            "durationTicks": 240,
            "midi": 57,
            "name": "A3",
            "ticks": 101040,
            "time": 315.75,
            "velocity": 0.47244094488188976
          },
          {
            "duration": 0.75,
            "durationTicks": 240,
            "midi": 56,
            "name": "G#3",
            "ticks": 101280,
            "time": 316.5,
            "velocity": 0.47244094488188976
          },
          {
            "duration": 0.75,
            "durationTicks": 240,
            "midi": 54,
            "name": "F#3",
            "ticks": 101520,
            "time": 317.25,
            "velocity": 0.47244094488188976
          },
          {
            "duration": 0.75,
            "durationTicks": 240,
            "midi": 56,
            "name": "G#3",
            "ticks": 101760,
            "time": 318,
            "velocity": 0.47244094488188976
          },
          {
            "duration": 0.75,
            "durationTicks": 240,
            "midi": 57,
            "name": "A3",
            "ticks": 102000,
            "time": 318.75,
            "velocity": 0.47244094488188976
          },
          {
            "duration": 2.25,
            "durationTicks": 720,
            "midi": 50,
            "name": "D3",
            "ticks": 102240,
            "time": 319.5,
            "velocity": 0.47244094488188976
          },
          {
            "duration": 3,
            "durationTicks": 960,
            "midi": 62,
            "name": "D4",
            "ticks": 102960,
            "time": 321.75,
            "velocity": 0.47244094488188976
          },
          {
            "duration": 0.75,
            "durationTicks": 240,
            "midi": 61,
            "name": "C#4",
            "ticks": 103920,
            "time": 324.75,
            "velocity": 0.47244094488188976
          },
          {
            "duration": 0.75,
            "durationTicks": 240,
            "midi": 59,
            "name": "B3",
            "ticks": 104160,
            "time": 325.5,
            "velocity": 0.47244094488188976
          },
          {
            "duration": 0.75,
            "durationTicks": 240,
            "midi": 57,
            "name": "A3",
            "ticks": 104400,
            "time": 326.25,
            "velocity": 0.6299212598425197
          },
          {
            "duration": 0.75,
            "durationTicks": 240,
            "midi": 56,
            "name": "G#3",
            "ticks": 104640,
            "time": 327,
            "velocity": 0.6299212598425197
          },
          {
            "duration": 0.75,
            "durationTicks": 240,
            "midi": 54,
            "name": "F#3",
            "ticks": 104880,
            "time": 327.75,
            "velocity": 0.6299212598425197
          },
          {
            "duration": 2.25,
            "durationTicks": 720,
            "midi": 63,
            "name": "D#4",
            "ticks": 105120,
            "time": 328.5,
            "velocity": 0.6299212598425197
          },
          {
            "duration": 2.25,
            "durationTicks": 720,
            "midi": 62,
            "name": "D4",
            "ticks": 105840,
            "time": 330.75,
            "velocity": 0.6299212598425197
          },
          {
            "duration": 0.75,
            "durationTicks": 240,
            "midi": 67,
            "name": "G4",
            "ticks": 106560,
            "time": 333,
            "velocity": 0.6299212598425197
          },
          {
            "duration": 0.75,
            "durationTicks": 240,
            "midi": 66,
            "name": "F#4",
            "ticks": 106800,
            "time": 333.75,
            "velocity": 0.6299212598425197
          },
          {
            "duration": 0.75,
            "durationTicks": 240,
            "midi": 64,
            "name": "E4",
            "ticks": 107040,
            "time": 334.5,
            "velocity": 0.6299212598425197
          },
          {
            "duration": 2.25,
            "durationTicks": 720,
            "midi": 62,
            "name": "D4",
            "ticks": 107280,
            "time": 335.25,
            "velocity": 0.6299212598425197
          },
          {
            "duration": 0.75,
            "durationTicks": 240,
            "midi": 61,
            "name": "C#4",
            "ticks": 108000,
            "time": 337.5,
            "velocity": 0.6299212598425197
          },
          {
            "duration": 0.7124999999999773,
            "durationTicks": 228,
            "midi": 59,
            "name": "B3",
            "ticks": 108240,
            "time": 338.25,
            "velocity": 0.6299212598425197
          },
          {
            "duration": 1.5,
            "durationTicks": 480,
            "midi": 57,
            "name": "A3",
            "ticks": 108480,
            "time": 339,
            "velocity": 0.6299212598425197
          },
          {
            "duration": 0.4500000000000455,
            "durationTicks": 144,
            "midi": 59,
            "name": "B3",
            "ticks": 108960,
            "time": 340.5,
            "velocity": 0.6299212598425197
          },
          {
            "duration": 0.4500000000000455,
            "durationTicks": 144,
            "midi": 56,
            "name": "G#3",
            "ticks": 109200,
            "time": 341.25,
            "velocity": 0.6299212598425197
          },
          {
            "duration": 1.4249999999999545,
            "durationTicks": 456,
            "midi": 54,
            "name": "F#3",
            "ticks": 109440,
            "time": 342,
            "velocity": 0.5511811023622047
          },
          {
            "duration": 0.24374999999997726,
            "durationTicks": 78,
            "midi": 49,
            "name": "C#3",
            "ticks": 116040,
            "time": 362.625,
            "velocity": 0.5511811023622047
          },
          {
            "duration": 0.24374999999997726,
            "durationTicks": 78,
            "midi": 54,
            "name": "F#3",
            "ticks": 116160,
            "time": 363,
            "velocity": 0.5511811023622047
          },
          {
            "duration": 0.24374999999997726,
            "durationTicks": 78,
            "midi": 57,
            "name": "A3",
            "ticks": 116280,
            "time": 363.375,
            "velocity": 0.5511811023622047
          },
          {
            "duration": 0.24374999999997726,
            "durationTicks": 78,
            "midi": 61,
            "name": "C#4",
            "ticks": 116400,
            "time": 363.75,
            "velocity": 0.5511811023622047
          },
          {
            "duration": 0.24374999999997726,
            "durationTicks": 78,
            "midi": 49,
            "name": "C#3",
            "ticks": 116520,
            "time": 364.125,
            "velocity": 0.5511811023622047
          },
          {
            "duration": 0.24374999999997726,
            "durationTicks": 78,
            "midi": 49,
            "name": "C#3",
            "ticks": 117480,
            "time": 367.125,
            "velocity": 0.5511811023622047
          },
          {
            "duration": 0.24374999999997726,
            "durationTicks": 78,
            "midi": 53,
            "name": "F3",
            "ticks": 117600,
            "time": 367.5,
            "velocity": 0.5511811023622047
          },
          {
            "duration": 0.24374999999997726,
            "durationTicks": 78,
            "midi": 56,
            "name": "G#3",
            "ticks": 117720,
            "time": 367.875,
            "velocity": 0.5511811023622047
          },
          {
            "duration": 0.24374999999997726,
            "durationTicks": 78,
            "midi": 61,
            "name": "C#4",
            "ticks": 117840,
            "time": 368.25,
            "velocity": 0.5511811023622047
          },
          {
            "duration": 0.24374999999997726,
            "durationTicks": 78,
            "midi": 49,
            "name": "C#3",
            "ticks": 117960,
            "time": 368.625,
            "velocity": 0.5511811023622047
          },
          {
            "duration": 0.24374999999997726,
            "durationTicks": 78,
            "midi": 49,
            "name": "C#3",
            "ticks": 118920,
            "time": 371.625,
            "velocity": 0.5511811023622047
          },
          {
            "duration": 0.24374999999997726,
            "durationTicks": 78,
            "midi": 54,
            "name": "F#3",
            "ticks": 119040,
            "time": 372,
            "velocity": 0.5511811023622047
          },
          {
            "duration": 0.24374999999997726,
            "durationTicks": 78,
            "midi": 57,
            "name": "A3",
            "ticks": 119160,
            "time": 372.375,
            "velocity": 0.5511811023622047
          },
          {
            "duration": 0.24374999999997726,
            "durationTicks": 78,
            "midi": 61,
            "name": "C#4",
            "ticks": 119280,
            "time": 372.75,
            "velocity": 0.5511811023622047
          },
          {
            "duration": 0.24374999999997726,
            "durationTicks": 78,
            "midi": 49,
            "name": "C#3",
            "ticks": 119400,
            "time": 373.125,
            "velocity": 0.5511811023622047
          },
          {
            "duration": 0.24374999999997726,
            "durationTicks": 78,
            "midi": 49,
            "name": "C#3",
            "ticks": 120360,
            "time": 376.125,
            "velocity": 0.5511811023622047
          },
          {
            "duration": 0.24374999999997726,
            "durationTicks": 78,
            "midi": 53,
            "name": "F3",
            "ticks": 120480,
            "time": 376.5,
            "velocity": 0.5511811023622047
          },
          {
            "duration": 0.24374999999997726,
            "durationTicks": 78,
            "midi": 56,
            "name": "G#3",
            "ticks": 120600,
            "time": 376.875,
            "velocity": 0.5511811023622047
          },
          {
            "duration": 0.24374999999997726,
            "durationTicks": 78,
            "midi": 61,
            "name": "C#4",
            "ticks": 120720,
            "time": 377.25,
            "velocity": 0.5511811023622047
          },
          {
            "duration": 0.24374999999997726,
            "durationTicks": 78,
            "midi": 49,
            "name": "C#3",
            "ticks": 120840,
            "time": 377.625,
            "velocity": 0.5511811023622047
          },
          {
            "duration": 1.2000000000000455,
            "durationTicks": 384,
            "midi": 54,
            "name": "F#3",
            "ticks": 120960,
            "time": 378,
            "velocity": 0.5511811023622047
          },
          {
            "duration": 4.5,
            "durationTicks": 1440,
            "midi": 61,
            "name": "C#4",
            "ticks": 126720,
            "time": 396,
            "velocity": 0.47244094488188976
          },
          {
            "duration": 9,
            "durationTicks": 2880,
            "midi": 66,
            "name": "F#4",
            "ticks": 126720,
            "time": 396,
            "velocity": 0.47244094488188976
          },
          {
            "duration": 4.5,
            "durationTicks": 1440,
            "midi": 62,
            "name": "D4",
            "ticks": 128160,
            "time": 400.5,
            "velocity": 0.47244094488188976
          },
          {
            "duration": 4.5,
            "durationTicks": 1440,
            "midi": 59,
            "name": "B3",
            "ticks": 129600,
            "time": 405,
            "velocity": 0.47244094488188976
          },
          {
            "duration": 4.5,
            "durationTicks": 1440,
            "midi": 62,
            "name": "D4",
            "ticks": 129600,
            "time": 405,
            "velocity": 0.47244094488188976
          },
          {
            "duration": 2.25,
            "durationTicks": 720,
            "midi": 66,
            "name": "F#4",
            "ticks": 131040,
            "time": 409.5,
            "velocity": 0.47244094488188976
          },
          {
            "duration": 2.25,
            "durationTicks": 720,
            "midi": 65,
            "name": "F4",
            "ticks": 131760,
            "time": 411.75,
            "velocity": 0.47244094488188976
          },
          {
            "duration": 0.5999999999999659,
            "durationTicks": 192,
            "midi": 66,
            "name": "F#4",
            "ticks": 132480,
            "time": 414,
            "velocity": 0.47244094488188976
          },
          {
            "duration": 3,
            "durationTicks": 960,
            "midi": 57,
            "name": "A3",
            "ticks": 138960,
            "time": 434.25,
            "velocity": 0.47244094488188976
          },
          {
            "duration": 0.75,
            "durationTicks": 240,
            "midi": 56,
            "name": "G#3",
            "ticks": 139920,
            "time": 437.25,
            "velocity": 0.47244094488188976
          },
          {
            "duration": 0.75,
            "durationTicks": 240,
            "midi": 54,
            "name": "F#3",
            "ticks": 140160,
            "time": 438,
            "velocity": 0.47244094488188976
          },
          {
            "duration": 0.75,
            "durationTicks": 240,
            "midi": 53,
            "name": "F3",
            "ticks": 140400,
            "time": 438.75,
            "velocity": 0.47244094488188976
          },
          {
            "duration": 0.75,
            "durationTicks": 240,
            "midi": 54,
            "name": "F#3",
            "ticks": 140640,
            "time": 439.5,
            "velocity": 0.47244094488188976
          },
          {
            "duration": 0.75,
            "durationTicks": 240,
            "midi": 56,
            "name": "G#3",
            "ticks": 140880,
            "time": 440.25,
            "velocity": 0.47244094488188976
          },
          {
            "duration": 0.4500000000000455,
            "durationTicks": 144,
            "midi": 54,
            "name": "F#3",
            "ticks": 141120,
            "time": 441,
            "velocity": 0.4330708661417323
          },
          {
            "duration": 0.4500000000000455,
            "durationTicks": 144,
            "midi": 54,
            "name": "F#3",
            "ticks": 141360,
            "time": 441.75,
            "velocity": 0.4330708661417323
          },
          {
            "duration": 0.4500000000000455,
            "durationTicks": 144,
            "midi": 57,
            "name": "A3",
            "ticks": 141360,
            "time": 441.75,
            "velocity": 0.4330708661417323
          },
          {
            "duration": 0.4500000000000455,
            "durationTicks": 144,
            "midi": 54,
            "name": "F#3",
            "ticks": 141840,
            "time": 443.25,
            "velocity": 0.4330708661417323
          },
          {
            "duration": 0.4500000000000455,
            "durationTicks": 144,
            "midi": 66,
            "name": "F#4",
            "ticks": 141840,
            "time": 443.25,
            "velocity": 0.4330708661417323
          },
          {
            "duration": 0.4500000000000455,
            "durationTicks": 144,
            "midi": 54,
            "name": "F#3",
            "ticks": 142080,
            "time": 444,
            "velocity": 0.4330708661417323
          },
          {
            "duration": 0.4500000000000455,
            "durationTicks": 144,
            "midi": 66,
            "name": "F#4",
            "ticks": 142080,
            "time": 444,
            "velocity": 0.4330708661417323
          },
          {
            "duration": 0.4124999999999659,
            "durationTicks": 132,
            "midi": 54,
            "name": "F#3",
            "ticks": 142560,
            "time": 445.5,
            "velocity": 0.4330708661417323
          },
          {
            "duration": 0.4124999999999659,
            "durationTicks": 132,
            "midi": 66,
            "name": "F#4",
            "ticks": 142560,
            "time": 445.5,
            "velocity": 0.4330708661417323
          },
          {
            "duration": 0.4124999999999659,
            "durationTicks": 132,
            "midi": 54,
            "name": "F#3",
            "ticks": 142800,
            "time": 446.25,
            "velocity": 0.4330708661417323
          },
          {
            "duration": 0.4124999999999659,
            "durationTicks": 132,
            "midi": 66,
            "name": "F#4",
            "ticks": 142800,
            "time": 446.25,
            "velocity": 0.4330708661417323
          }
        ]
      },
      {
        "channel": 0,
        "controlChanges": {},
        "pitchBends": [],
        "instrument": {
          "family": "piano",
          "number": 0,
          "name": "acoustic grand piano"
        },
        "name": "Piano Concerto n23 K488 2mov",
        "notes": [],
        "endOfTrackTicks": 133920
      },
      {
        "channel": 3,
        "controlChanges": {
          "7": [
            {
              "number": 7,
              "ticks": 0,
              "time": 0,
              "value": 0.5905511811023622
            }
          ],
          "10": [
            {
              "number": 10,
              "ticks": 0,
              "time": 0,
              "value": 0.6299212598425197
            }
          ],
          "91": [
            {
              "number": 91,
              "ticks": 0,
              "time": 0,
              "value": 0.7480314960629921
            }
          ]
        },
        "pitchBends": [],
        "instrument": {
          "family": "reed",
          "number": 70,
          "name": "bassoon"
        },
        "name": "",
        "notes": [
          {
            "duration": 6.75,
            "durationTicks": 2160,
            "midi": 42,
            "name": "F#2",
            "ticks": 17280,
            "time": 54,
            "velocity": 0.47244094488188976
          },
          {
            "duration": 2.25,
            "durationTicks": 720,
            "midi": 44,
            "name": "G#2",
            "ticks": 19440,
            "time": 60.75,
            "velocity": 0.47244094488188976
          },
          {
            "duration": 4.5,
            "durationTicks": 1440,
            "midi": 45,
            "name": "A2",
            "ticks": 20160,
            "time": 63,
            "velocity": 0.47244094488188976
          },
          {
            "duration": 3.5999999999999943,
            "durationTicks": 1152,
            "midi": 47,
            "name": "B2",
            "ticks": 21600,
            "time": 67.5,
            "velocity": 0.47244094488188976
          },
          {
            "duration": 1.8000000000000114,
            "durationTicks": 576,
            "midi": 49,
            "name": "C#3",
            "ticks": 23040,
            "time": 72,
            "velocity": 0.47244094488188976
          },
          {
            "duration": 1.8000000000000114,
            "durationTicks": 576,
            "midi": 42,
            "name": "F#2",
            "ticks": 23760,
            "time": 74.25,
            "velocity": 0.6299212598425197
          },
          {
            "duration": 2.25,
            "durationTicks": 720,
            "midi": 48,
            "name": "C3",
            "ticks": 24480,
            "time": 76.5,
            "velocity": 0.6299212598425197
          },
          {
            "duration": 2.25,
            "durationTicks": 720,
            "midi": 47,
            "name": "B2",
            "ticks": 25200,
            "time": 78.75,
            "velocity": 0.6299212598425197
          },
          {
            "duration": 2.25,
            "durationTicks": 720,
            "midi": 46,
            "name": "A#2",
            "ticks": 25920,
            "time": 81,
            "velocity": 0.6299212598425197
          },
          {
            "duration": 0.75,
            "durationTicks": 240,
            "midi": 47,
            "name": "B2",
            "ticks": 26640,
            "time": 83.25,
            "velocity": 0.6299212598425197
          },
          {
            "duration": 0.75,
            "durationTicks": 240,
            "midi": 59,
            "name": "B3",
            "ticks": 26880,
            "time": 84,
            "velocity": 0.6299212598425197
          },
          {
            "duration": 0.75,
            "durationTicks": 240,
            "midi": 57,
            "name": "A3",
            "ticks": 27120,
            "time": 84.75,
            "velocity": 0.6299212598425197
          },
          {
            "duration": 0.75,
            "durationTicks": 240,
            "midi": 56,
            "name": "G#3",
            "ticks": 27360,
            "time": 85.5,
            "velocity": 0.6299212598425197
          },
          {
            "duration": 0.75,
            "durationTicks": 240,
            "midi": 53,
            "name": "F3",
            "ticks": 27600,
            "time": 86.25,
            "velocity": 0.6299212598425197
          },
          {
            "duration": 1.5,
            "durationTicks": 480,
            "midi": 54,
            "name": "F#3",
            "ticks": 27840,
            "time": 87,
            "velocity": 0.6299212598425197
          },
          {
            "duration": 0.44999999999998863,
            "durationTicks": 144,
            "midi": 56,
            "name": "G#3",
            "ticks": 28320,
            "time": 88.5,
            "velocity": 0.6299212598425197
          },
          {
            "duration": 0.375,
            "durationTicks": 120,
            "midi": 53,
            "name": "F3",
            "ticks": 28560,
            "time": 89.25,
            "velocity": 0.6299212598425197
          },
          {
            "duration": 0.375,
            "durationTicks": 120,
            "midi": 57,
            "name": "A3",
            "ticks": 54360,
            "time": 169.875,
            "velocity": 0.47244094488188976
          },
          {
            "duration": 0.375,
            "durationTicks": 120,
            "midi": 59,
            "name": "B3",
            "ticks": 54480,
            "time": 170.25,
            "velocity": 0.47244094488188976
          },
          {
            "duration": 0.375,
            "durationTicks": 120,
            "midi": 60,
            "name": "C4",
            "ticks": 54600,
            "time": 170.625,
            "velocity": 0.47244094488188976
          },
          {
            "duration": 0.375,
            "durationTicks": 120,
            "midi": 61,
            "name": "C#4",
            "ticks": 54720,
            "time": 171,
            "velocity": 0.47244094488188976
          },
          {
            "duration": 0.375,
            "durationTicks": 120,
            "midi": 60,
            "name": "C4",
            "ticks": 54840,
            "time": 171.375,
            "velocity": 0.47244094488188976
          },
          {
            "duration": 0.375,
            "durationTicks": 120,
            "midi": 61,
            "name": "C#4",
            "ticks": 54960,
            "time": 171.75,
            "velocity": 0.47244094488188976
          },
          {
            "duration": 0.375,
            "durationTicks": 120,
            "midi": 60,
            "name": "C4",
            "ticks": 55080,
            "time": 172.125,
            "velocity": 0.47244094488188976
          },
          {
            "duration": 0.375,
            "durationTicks": 120,
            "midi": 61,
            "name": "C#4",
            "ticks": 55200,
            "time": 172.5,
            "velocity": 0.47244094488188976
          },
          {
            "duration": 0.375,
            "durationTicks": 120,
            "midi": 57,
            "name": "A3",
            "ticks": 55320,
            "time": 172.875,
            "velocity": 0.47244094488188976
          },
          {
            "duration": 0.6000000000000227,
            "durationTicks": 192,
            "midi": 56,
            "name": "G#3",
            "ticks": 55440,
            "time": 173.25,
            "velocity": 0.47244094488188976
          },
          {
            "duration": 6.75,
            "durationTicks": 2160,
            "midi": 57,
            "name": "A3",
            "ticks": 70560,
            "time": 220.5,
            "velocity": 0.47244094488188976
          },
          {
            "duration": 2.25,
            "durationTicks": 720,
            "midi": 56,
            "name": "G#3",
            "ticks": 72720,
            "time": 227.25,
            "velocity": 0.47244094488188976
          },
          {
            "duration": 6.75,
            "durationTicks": 2160,
            "midi": 42,
            "name": "F#2",
            "ticks": 97920,
            "time": 306,
            "velocity": 0.47244094488188976
          },
          {
            "duration": 2.25,
            "durationTicks": 720,
            "midi": 44,
            "name": "G#2",
            "ticks": 100080,
            "time": 312.75,
            "velocity": 0.47244094488188976
          },
          {
            "duration": 4.5,
            "durationTicks": 1440,
            "midi": 45,
            "name": "A2",
            "ticks": 100800,
            "time": 315,
            "velocity": 0.47244094488188976
          },
          {
            "duration": 4.5,
            "durationTicks": 1440,
            "midi": 47,
            "name": "B2",
            "ticks": 102240,
            "time": 319.5,
            "velocity": 0.47244094488188976
          },
          {
            "duration": 2.25,
            "durationTicks": 720,
            "midi": 49,
            "name": "C#3",
            "ticks": 103680,
            "time": 324,
            "velocity": 0.47244094488188976
          },
          {
            "duration": 2.25,
            "durationTicks": 720,
            "midi": 42,
            "name": "F#2",
            "ticks": 104400,
            "time": 326.25,
            "velocity": 0.47244094488188976
          },
          {
            "duration": 2.25,
            "durationTicks": 720,
            "midi": 48,
            "name": "C3",
            "ticks": 105120,
            "time": 328.5,
            "velocity": 0.6299212598425197
          },
          {
            "duration": 2.25,
            "durationTicks": 720,
            "midi": 47,
            "name": "B2",
            "ticks": 105840,
            "time": 330.75,
            "velocity": 0.6299212598425197
          },
          {
            "duration": 2.25,
            "durationTicks": 720,
            "midi": 46,
            "name": "A#2",
            "ticks": 106560,
            "time": 333,
            "velocity": 0.6299212598425197
          },
          {
            "duration": 0.75,
            "durationTicks": 240,
            "midi": 47,
            "name": "B2",
            "ticks": 107280,
            "time": 335.25,
            "velocity": 0.6299212598425197
          },
          {
            "duration": 0.75,
            "durationTicks": 240,
            "midi": 59,
            "name": "B3",
            "ticks": 107520,
            "time": 336,
            "velocity": 0.6299212598425197
          },
          {
            "duration": 0.75,
            "durationTicks": 240,
            "midi": 57,
            "name": "A3",
            "ticks": 107760,
            "time": 336.75,
            "velocity": 0.6299212598425197
          },
          {
            "duration": 0.75,
            "durationTicks": 240,
            "midi": 56,
            "name": "G#3",
            "ticks": 108000,
            "time": 337.5,
            "velocity": 0.6299212598425197
          },
          {
            "duration": 0.7124999999999773,
            "durationTicks": 228,
            "midi": 53,
            "name": "F3",
            "ticks": 108240,
            "time": 338.25,
            "velocity": 0.6299212598425197
          },
          {
            "duration": 1.5,
            "durationTicks": 480,
            "midi": 54,
            "name": "F#3",
            "ticks": 108480,
            "time": 339,
            "velocity": 0.6299212598425197
          },
          {
            "duration": 0.4500000000000455,
            "durationTicks": 144,
            "midi": 56,
            "name": "G#3",
            "ticks": 108960,
            "time": 340.5,
            "velocity": 0.6299212598425197
          },
          {
            "duration": 0.4500000000000455,
            "durationTicks": 144,
            "midi": 53,
            "name": "F3",
            "ticks": 109200,
            "time": 341.25,
            "velocity": 0.6299212598425197
          },
          {
            "duration": 4.5,
            "durationTicks": 1440,
            "midi": 61,
            "name": "C#4",
            "ticks": 131040,
            "time": 409.5,
            "velocity": 0.6299212598425197
          },
          {
            "duration": 0.5999999999999659,
            "durationTicks": 192,
            "midi": 57,
            "name": "A3",
            "ticks": 132480,
            "time": 414,
            "velocity": 0.47244094488188976
          }
        ]
      },
      {
        "channel": 0,
        "controlChanges": {},
        "pitchBends": [],
        "instrument": {
          "family": "piano",
          "number": 0,
          "name": "acoustic grand piano"
        },
        "name": "Piano Concerto n23 K488 2mov",
        "notes": [],
        "endOfTrackTicks": 144000
      },
      {
        "channel": 4,
        "controlChanges": {
          "7": [
            {
              "number": 7,
              "ticks": 0,
              "time": 0,
              "value": 0.7637795275590551
            }
          ],
          "10": [
            {
              "number": 10,
              "ticks": 0,
              "time": 0,
              "value": 0.28346456692913385
            }
          ],
          "91": [
            {
              "number": 91,
              "ticks": 0,
              "time": 0,
              "value": 0.6299212598425197
            }
          ]
        },
        "pitchBends": [],
        "instrument": {
          "family": "brass",
          "number": 60,
          "name": "french horn"
        },
        "name": "",
        "notes": [
          {
            "duration": 1.8000000000000114,
            "durationTicks": 576,
            "midi": 61,
            "name": "C#4",
            "ticks": 27360,
            "time": 85.5,
            "velocity": 0.6299212598425197
          },
          {
            "duration": 0.5999999999999943,
            "durationTicks": 192,
            "midi": 61,
            "name": "C#4",
            "ticks": 28560,
            "time": 89.25,
            "velocity": 0.6299212598425197
          },
          {
            "duration": 1.4250000000000114,
            "durationTicks": 456,
            "midi": 61,
            "name": "C#4",
            "ticks": 28800,
            "time": 90,
            "velocity": 0.5511811023622047
          },
          {
            "duration": 13.412499999999994,
            "durationTicks": 4292,
            "midi": 52,
            "name": "E3",
            "ticks": 40320,
            "time": 126,
            "velocity": 0.47244094488188976
          },
          {
            "duration": 13.412499999999994,
            "durationTicks": 4292,
            "midi": 64,
            "name": "E4",
            "ticks": 40320,
            "time": 126,
            "velocity": 0.47244094488188976
          },
          {
            "duration": 10.199999999999989,
            "durationTicks": 3264,
            "midi": 52,
            "name": "E3",
            "ticks": 46080,
            "time": 144,
            "velocity": 0.47244094488188976
          },
          {
            "duration": 10.199999999999989,
            "durationTicks": 3264,
            "midi": 64,
            "name": "E4",
            "ticks": 46080,
            "time": 144,
            "velocity": 0.47244094488188976
          },
          {
            "duration": 4.949999999999989,
            "durationTicks": 1584,
            "midi": 52,
            "name": "E3",
            "ticks": 56160,
            "time": 175.5,
            "velocity": 0.47244094488188976
          },
          {
            "duration": 4.949999999999989,
            "durationTicks": 1584,
            "midi": 64,
            "name": "E4",
            "ticks": 56160,
            "time": 175.5,
            "velocity": 0.47244094488188976
          },
          {
            "duration": 0.44999999999998863,
            "durationTicks": 144,
            "midi": 52,
            "name": "E3",
            "ticks": 57840,
            "time": 180.75,
            "velocity": 0.47244094488188976
          },
          {
            "duration": 0.44999999999998863,
            "durationTicks": 144,
            "midi": 64,
            "name": "E4",
            "ticks": 57840,
            "time": 180.75,
            "velocity": 0.47244094488188976
          },
          {
            "duration": 0.44999999999998863,
            "durationTicks": 144,
            "midi": 52,
            "name": "E3",
            "ticks": 58080,
            "time": 181.5,
            "velocity": 0.47244094488188976
          },
          {
            "duration": 0.44999999999998863,
            "durationTicks": 144,
            "midi": 64,
            "name": "E4",
            "ticks": 58080,
            "time": 181.5,
            "velocity": 0.47244094488188976
          },
          {
            "duration": 0.6000000000000227,
            "durationTicks": 192,
            "midi": 52,
            "name": "E3",
            "ticks": 58320,
            "time": 182.25,
            "velocity": 0.47244094488188976
          },
          {
            "duration": 0.6000000000000227,
            "durationTicks": 192,
            "midi": 64,
            "name": "E4",
            "ticks": 58320,
            "time": 182.25,
            "velocity": 0.47244094488188976
          },
          {
            "duration": 2.25,
            "durationTicks": 720,
            "midi": 64,
            "name": "E4",
            "ticks": 60480,
            "time": 189,
            "velocity": 0.47244094488188976
          },
          {
            "duration": 0.75,
            "durationTicks": 240,
            "midi": 57,
            "name": "A3",
            "ticks": 61200,
            "time": 191.25,
            "velocity": 0.5511811023622047
          },
          {
            "duration": 0.75,
            "durationTicks": 240,
            "midi": 69,
            "name": "A4",
            "ticks": 61200,
            "time": 191.25,
            "velocity": 0.5511811023622047
          },
          {
            "duration": 0.75,
            "durationTicks": 240,
            "midi": 61,
            "name": "C#4",
            "ticks": 61440,
            "time": 192,
            "velocity": 0.5511811023622047
          },
          {
            "duration": 0.75,
            "durationTicks": 240,
            "midi": 73,
            "name": "C#5",
            "ticks": 61440,
            "time": 192,
            "velocity": 0.5511811023622047
          },
          {
            "duration": 0.75,
            "durationTicks": 240,
            "midi": 57,
            "name": "A3",
            "ticks": 61680,
            "time": 192.75,
            "velocity": 0.5511811023622047
          },
          {
            "duration": 0.75,
            "durationTicks": 240,
            "midi": 69,
            "name": "A4",
            "ticks": 61680,
            "time": 192.75,
            "velocity": 0.5511811023622047
          },
          {
            "duration": 6.75,
            "durationTicks": 2160,
            "midi": 52,
            "name": "E3",
            "ticks": 61920,
            "time": 193.5,
            "velocity": 0.47244094488188976
          },
          {
            "duration": 6.75,
            "durationTicks": 2160,
            "midi": 64,
            "name": "E4",
            "ticks": 61920,
            "time": 193.5,
            "velocity": 0.47244094488188976
          },
          {
            "duration": 0.6000000000000227,
            "durationTicks": 192,
            "midi": 57,
            "name": "A3",
            "ticks": 64080,
            "time": 200.25,
            "velocity": 0.4330708661417323
          },
          {
            "duration": 0.6000000000000227,
            "durationTicks": 192,
            "midi": 69,
            "name": "A4",
            "ticks": 64080,
            "time": 200.25,
            "velocity": 0.4330708661417323
          },
          {
            "duration": 9,
            "durationTicks": 2880,
            "midi": 52,
            "name": "E3",
            "ticks": 70560,
            "time": 220.5,
            "velocity": 0.47244094488188976
          },
          {
            "duration": 9,
            "durationTicks": 2880,
            "midi": 64,
            "name": "E4",
            "ticks": 70560,
            "time": 220.5,
            "velocity": 0.47244094488188976
          },
          {
            "duration": 1.200000000000017,
            "durationTicks": 384,
            "midi": 57,
            "name": "A3",
            "ticks": 73440,
            "time": 229.5,
            "velocity": 0.47244094488188976
          },
          {
            "duration": 4.412499999999994,
            "durationTicks": 1412,
            "midi": 61,
            "name": "C#4",
            "ticks": 74880,
            "time": 234,
            "velocity": 0.47244094488188976
          },
          {
            "duration": 1.200000000000017,
            "durationTicks": 384,
            "midi": 61,
            "name": "C#4",
            "ticks": 76320,
            "time": 238.5,
            "velocity": 0.4251968503937008
          },
          {
            "duration": 4.5,
            "durationTicks": 1440,
            "midi": 57,
            "name": "A3",
            "ticks": 92160,
            "time": 288,
            "velocity": 0.47244094488188976
          },
          {
            "duration": 4.5,
            "durationTicks": 1440,
            "midi": 69,
            "name": "A4",
            "ticks": 92160,
            "time": 288,
            "velocity": 0.47244094488188976
          },
          {
            "duration": 0.6000000000000227,
            "durationTicks": 192,
            "midi": 71,
            "name": "B4",
            "ticks": 93600,
            "time": 292.5,
            "velocity": 0.47244094488188976
          },
          {
            "duration": 2.2062500000000114,
            "durationTicks": 706,
            "midi": 61,
            "name": "C#4",
            "ticks": 108000,
            "time": 337.5,
            "velocity": 0.6299212598425197
          },
          {
            "duration": 0.4500000000000455,
            "durationTicks": 144,
            "midi": 61,
            "name": "C#4",
            "ticks": 109200,
            "time": 341.25,
            "velocity": 0.6299212598425197
          },
          {
            "duration": 13.412500000000023,
            "durationTicks": 4292,
            "midi": 61,
            "name": "C#4",
            "ticks": 109440,
            "time": 342,
            "velocity": 0.47244094488188976
          },
          {
            "duration": 19.200000000000045,
            "durationTicks": 6144,
            "midi": 61,
            "name": "C#4",
            "ticks": 115200,
            "time": 360,
            "velocity": 0.47244094488188976
          },
          {
            "duration": 4.5,
            "durationTicks": 1440,
            "midi": 61,
            "name": "C#4",
            "ticks": 126720,
            "time": 396,
            "velocity": 0.47244094488188976
          },
          {
            "duration": 9,
            "durationTicks": 2880,
            "midi": 69,
            "name": "A4",
            "ticks": 126720,
            "time": 396,
            "velocity": 0.47244094488188976
          },
          {
            "duration": 4.5,
            "durationTicks": 1440,
            "midi": 57,
            "name": "A3",
            "ticks": 128160,
            "time": 400.5,
            "velocity": 0.47244094488188976
          },
          {
            "duration": 4.5,
            "durationTicks": 1440,
            "midi": 71,
            "name": "B4",
            "ticks": 129600,
            "time": 405,
            "velocity": 0.47244094488188976
          },
          {
            "duration": 5.099999999999966,
            "durationTicks": 1632,
            "midi": 61,
            "name": "C#4",
            "ticks": 131040,
            "time": 409.5,
            "velocity": 0.47244094488188976
          },
          {
            "duration": 5.099999999999966,
            "durationTicks": 1632,
            "midi": 73,
            "name": "C#5",
            "ticks": 131040,
            "time": 409.5,
            "velocity": 0.47244094488188976
          },
          {
            "duration": 4.412500000000023,
            "durationTicks": 1412,
            "midi": 61,
            "name": "C#4",
            "ticks": 139680,
            "time": 436.5,
            "velocity": 0.47244094488188976
          },
          {
            "duration": 0.4500000000000455,
            "durationTicks": 144,
            "midi": 61,
            "name": "C#4",
            "ticks": 141120,
            "time": 441,
            "velocity": 0.47244094488188976
          },
          {
            "duration": 0.4500000000000455,
            "durationTicks": 144,
            "midi": 61,
            "name": "C#4",
            "ticks": 141360,
            "time": 441.75,
            "velocity": 0.47244094488188976
          },
          {
            "duration": 0.4500000000000455,
            "durationTicks": 144,
            "midi": 57,
            "name": "A3",
            "ticks": 141840,
            "time": 443.25,
            "velocity": 0.47244094488188976
          },
          {
            "duration": 0.4500000000000455,
            "durationTicks": 144,
            "midi": 61,
            "name": "C#4",
            "ticks": 141840,
            "time": 443.25,
            "velocity": 0.47244094488188976
          },
          {
            "duration": 0.4500000000000455,
            "durationTicks": 144,
            "midi": 57,
            "name": "A3",
            "ticks": 142080,
            "time": 444,
            "velocity": 0.47244094488188976
          },
          {
            "duration": 0.4500000000000455,
            "durationTicks": 144,
            "midi": 61,
            "name": "C#4",
            "ticks": 142080,
            "time": 444,
            "velocity": 0.47244094488188976
          },
          {
            "duration": 0.4124999999999659,
            "durationTicks": 132,
            "midi": 61,
            "name": "C#4",
            "ticks": 142560,
            "time": 445.5,
            "velocity": 0.47244094488188976
          },
          {
            "duration": 0.4124999999999659,
            "durationTicks": 132,
            "midi": 69,
            "name": "A4",
            "ticks": 142560,
            "time": 445.5,
            "velocity": 0.47244094488188976
          },
          {
            "duration": 0.4124999999999659,
            "durationTicks": 132,
            "midi": 61,
            "name": "C#4",
            "ticks": 142800,
            "time": 446.25,
            "velocity": 0.47244094488188976
          },
          {
            "duration": 0.4124999999999659,
            "durationTicks": 132,
            "midi": 69,
            "name": "A4",
            "ticks": 142800,
            "time": 446.25,
            "velocity": 0.47244094488188976
          }
        ]
      },
      {
        "channel": 5,
        "controlChanges": {
          "7": [
            {
              "number": 7,
              "ticks": 0,
              "time": 0,
              "value": 0.9921259842519685
            }
          ],
          "91": [
            {
              "number": 91,
              "ticks": 0,
              "time": 0,
              "value": 0.7874015748031497
            }
          ]
        },
        "pitchBends": [],
        "instrument": {
          "family": "piano",
          "number": 0,
          "name": "acoustic grand piano"
        },
        "name": "Piano Concerto n23 K488 2mov",
        "notes": [
          {
            "duration": 1.0687499999999996,
            "durationTicks": 342,
            "midi": 73,
            "name": "C#5",
            "ticks": 1440,
            "time": 4.5,
            "velocity": 0.6299212598425197
          },
          {
            "duration": 0.3562499999999993,
            "durationTicks": 114,
            "midi": 74,
            "name": "D5",
            "ticks": 1800,
            "time": 5.625,
            "velocity": 0.6299212598425197
          },
          {
            "duration": 0.7124999999999995,
            "durationTicks": 228,
            "midi": 73,
            "name": "C#5",
            "ticks": 1920,
            "time": 6,
            "velocity": 0.6299212598425197
          },
          {
            "duration": 0.75,
            "durationTicks": 240,
            "midi": 73,
            "name": "C#5",
            "ticks": 2160,
            "time": 6.75,
            "velocity": 0.6299212598425197
          },
          {
            "duration": 0.75,
            "durationTicks": 240,
            "midi": 78,
            "name": "F#5",
            "ticks": 2400,
            "time": 7.5,
            "velocity": 0.6299212598425197
          },
          {
            "duration": 0.7374999999999989,
            "durationTicks": 236,
            "midi": 81,
            "name": "A5",
            "ticks": 2640,
            "time": 8.25,
            "velocity": 0.6299212598425197
          },
          {
            "duration": 0.75,
            "durationTicks": 240,
            "midi": 81,
            "name": "A5",
            "ticks": 2880,
            "time": 9,
            "velocity": 0.6299212598425197
          },
          {
            "duration": 0.4499999999999993,
            "durationTicks": 144,
            "midi": 71,
            "name": "B4",
            "ticks": 3120,
            "time": 9.75,
            "velocity": 0.6299212598425197
          },
          {
            "duration": 0.4499999999999993,
            "durationTicks": 144,
            "midi": 80,
            "name": "G#5",
            "ticks": 3360,
            "time": 10.5,
            "velocity": 0.6299212598425197
          },
          {
            "duration": 1.8687500000000004,
            "durationTicks": 598,
            "midi": 71,
            "name": "B4",
            "ticks": 3840,
            "time": 12,
            "velocity": 0.6299212598425197
          },
          {
            "duration": 0.36875000000000036,
            "durationTicks": 118,
            "midi": 69,
            "name": "A4",
            "ticks": 4440,
            "time": 13.875,
            "velocity": 0.6299212598425197
          },
          {
            "duration": 2.2375000000000007,
            "durationTicks": 716,
            "midi": 78,
            "name": "F#5",
            "ticks": 4560,
            "time": 14.25,
            "velocity": 0.6299212598425197
          },
          {
            "duration": 0.75,
            "durationTicks": 240,
            "midi": 68,
            "name": "G#4",
            "ticks": 5280,
            "time": 16.5,
            "velocity": 0.6299212598425197
          },
          {
            "duration": 0.75,
            "durationTicks": 240,
            "midi": 74,
            "name": "D5",
            "ticks": 5520,
            "time": 17.25,
            "velocity": 0.6299212598425197
          },
          {
            "duration": 1.46875,
            "durationTicks": 470,
            "midi": 66,
            "name": "F#4",
            "ticks": 5760,
            "time": 18,
            "velocity": 0.5669291338582677
          },
          {
            "duration": 0.1875,
            "durationTicks": 60,
            "midi": 65,
            "name": "F4",
            "ticks": 6240,
            "time": 19.5,
            "velocity": 0.5275590551181102
          },
          {
            "duration": 0.1875,
            "durationTicks": 60,
            "midi": 66,
            "name": "F#4",
            "ticks": 6300,
            "time": 19.6875,
            "velocity": 0.5196850393700787
          },
          {
            "duration": 0.1875,
            "durationTicks": 60,
            "midi": 68,
            "name": "G#4",
            "ticks": 6360,
            "time": 19.875,
            "velocity": 0.5196850393700787
          },
          {
            "duration": 0.1875,
            "durationTicks": 60,
            "midi": 66,
            "name": "F#4",
            "ticks": 6420,
            "time": 20.0625,
            "velocity": 0.5118110236220472
          },
          {
            "duration": 0.7375000000000007,
            "durationTicks": 236,
            "midi": 65,
            "name": "F4",
            "ticks": 6480,
            "time": 20.25,
            "velocity": 0.5039370078740157
          },
          {
            "duration": 1.0999999999999979,
            "durationTicks": 352,
            "midi": 74,
            "name": "D5",
            "ticks": 7200,
            "time": 22.5,
            "velocity": 0.6299212598425197
          },
          {
            "duration": 0.3687499999999986,
            "durationTicks": 118,
            "midi": 76,
            "name": "E5",
            "ticks": 7560,
            "time": 23.625,
            "velocity": 0.6299212598425197
          },
          {
            "duration": 0.7375000000000007,
            "durationTicks": 236,
            "midi": 74,
            "name": "D5",
            "ticks": 7680,
            "time": 24,
            "velocity": 0.6299212598425197
          },
          {
            "duration": 0.09375,
            "durationTicks": 30,
            "midi": 74,
            "name": "D5",
            "ticks": 7920,
            "time": 24.75,
            "velocity": 0.6299212598425197
          },
          {
            "duration": 0.09375,
            "durationTicks": 30,
            "midi": 76,
            "name": "E5",
            "ticks": 7950,
            "time": 24.84375,
            "velocity": 0.6299212598425197
          },
          {
            "duration": 0.9375,
            "durationTicks": 300,
            "midi": 78,
            "name": "F#5",
            "ticks": 7980,
            "time": 24.9375,
            "velocity": 0.6299212598425197
          },
          {
            "duration": 0.3687499999999986,
            "durationTicks": 118,
            "midi": 76,
            "name": "E5",
            "ticks": 8280,
            "time": 25.875,
            "velocity": 0.6299212598425197
          },
          {
            "duration": 0.7375000000000007,
            "durationTicks": 236,
            "midi": 74,
            "name": "D5",
            "ticks": 8400,
            "time": 26.25,
            "velocity": 0.6299212598425197
          },
          {
            "duration": 2.25,
            "durationTicks": 720,
            "midi": 72,
            "name": "C5",
            "ticks": 8640,
            "time": 27,
            "velocity": 0.6299212598425197
          },
          {
            "duration": 0.7125000000000021,
            "durationTicks": 228,
            "midi": 73,
            "name": "C#5",
            "ticks": 9360,
            "time": 29.25,
            "velocity": 0.5905511811023622
          },
          {
            "duration": 0.375,
            "durationTicks": 120,
            "midi": 73,
            "name": "C#5",
            "ticks": 10080,
            "time": 31.5,
            "velocity": 0.6299212598425197
          },
          {
            "duration": 0.29999999999999716,
            "durationTicks": 96,
            "midi": 71,
            "name": "B4",
            "ticks": 10200,
            "time": 31.875,
            "velocity": 0.6377952755905512
          },
          {
            "duration": 0.375,
            "durationTicks": 120,
            "midi": 70,
            "name": "A#4",
            "ticks": 10320,
            "time": 32.25,
            "velocity": 0.6456692913385826
          },
          {
            "duration": 0.29999999999999716,
            "durationTicks": 96,
            "midi": 71,
            "name": "B4",
            "ticks": 10440,
            "time": 32.625,
            "velocity": 0.6535433070866141
          },
          {
            "duration": 0.375,
            "durationTicks": 120,
            "midi": 70,
            "name": "A#4",
            "ticks": 10560,
            "time": 33,
            "velocity": 0.6614173228346457
          },
          {
            "duration": 0.29999999999999716,
            "durationTicks": 96,
            "midi": 71,
            "name": "B4",
            "ticks": 10680,
            "time": 33.375,
            "velocity": 0.6692913385826772
          },
          {
            "duration": 0.375,
            "durationTicks": 120,
            "midi": 81,
            "name": "A5",
            "ticks": 10800,
            "time": 33.75,
            "velocity": 0.6771653543307087
          },
          {
            "duration": 0.29999999999999716,
            "durationTicks": 96,
            "midi": 80,
            "name": "G#5",
            "ticks": 10920,
            "time": 34.125,
            "velocity": 0.6692913385826772
          },
          {
            "duration": 0.375,
            "durationTicks": 120,
            "midi": 78,
            "name": "F#5",
            "ticks": 11040,
            "time": 34.5,
            "velocity": 0.6535433070866141
          },
          {
            "duration": 0.29999999999999716,
            "durationTicks": 96,
            "midi": 77,
            "name": "F5",
            "ticks": 11160,
            "time": 34.875,
            "velocity": 0.6456692913385826
          },
          {
            "duration": 0.375,
            "durationTicks": 120,
            "midi": 74,
            "name": "D5",
            "ticks": 11280,
            "time": 35.25,
            "velocity": 0.6299212598425197
          },
          {
            "duration": 0.29999999999999716,
            "durationTicks": 96,
            "midi": 73,
            "name": "C#5",
            "ticks": 11400,
            "time": 35.625,
            "velocity": 0.6220472440944882
          },
          {
            "duration": 1.5,
            "durationTicks": 480,
            "midi": 71,
            "name": "B4",
            "ticks": 11520,
            "time": 36,
            "velocity": 0.6062992125984252
          },
          {
            "duration": 0.7125000000000057,
            "durationTicks": 228,
            "midi": 70,
            "name": "A#4",
            "ticks": 12000,
            "time": 37.5,
            "velocity": 0.5590551181102362
          },
          {
            "duration": 0.7125000000000057,
            "durationTicks": 228,
            "midi": 69,
            "name": "A4",
            "ticks": 12240,
            "time": 38.25,
            "velocity": 0.5354330708661418
          },
          {
            "duration": 1.1000000000000014,
            "durationTicks": 352,
            "midi": 67,
            "name": "G4",
            "ticks": 12960,
            "time": 40.5,
            "velocity": 0.5511811023622047
          },
          {
            "duration": 0.3687499999999986,
            "durationTicks": 118,
            "midi": 69,
            "name": "A4",
            "ticks": 13320,
            "time": 41.625,
            "velocity": 0.5511811023622047
          },
          {
            "duration": 0.7374999999999972,
            "durationTicks": 236,
            "midi": 67,
            "name": "G4",
            "ticks": 13440,
            "time": 42,
            "velocity": 0.5511811023622047
          },
          {
            "duration": 1.46875,
            "durationTicks": 470,
            "midi": 67,
            "name": "G4",
            "ticks": 13680,
            "time": 42.75,
            "velocity": 0.5511811023622047
          },
          {
            "duration": 0.7374999999999972,
            "durationTicks": 236,
            "midi": 67,
            "name": "G4",
            "ticks": 14160,
            "time": 44.25,
            "velocity": 0.5511811023622047
          },
          {
            "duration": 0.45000000000000284,
            "durationTicks": 144,
            "midi": 67,
            "name": "G4",
            "ticks": 14400,
            "time": 45,
            "velocity": 0.5511811023622047
          },
          {
            "duration": 0.45000000000000284,
            "durationTicks": 144,
            "midi": 71,
            "name": "B4",
            "ticks": 14640,
            "time": 45.75,
            "velocity": 0.5748031496062992
          },
          {
            "duration": 0.45000000000000284,
            "durationTicks": 144,
            "midi": 74,
            "name": "D5",
            "ticks": 14880,
            "time": 46.5,
            "velocity": 0.5905511811023622
          },
          {
            "duration": 0.45000000000000284,
            "durationTicks": 144,
            "midi": 79,
            "name": "G5",
            "ticks": 15120,
            "time": 47.25,
            "velocity": 0.6141732283464567
          },
          {
            "duration": 0.44999999999999574,
            "durationTicks": 144,
            "midi": 83,
            "name": "B5",
            "ticks": 15360,
            "time": 48,
            "velocity": 0.6299212598425197
          },
          {
            "duration": 0.44999999999999574,
            "durationTicks": 144,
            "midi": 86,
            "name": "D6",
            "ticks": 15600,
            "time": 48.75,
            "velocity": 0.6456692913385826
          },
          {
            "duration": 1.1000000000000014,
            "durationTicks": 352,
            "midi": 66,
            "name": "F#4",
            "ticks": 15840,
            "time": 49.5,
            "velocity": 0.6299212598425197
          },
          {
            "duration": 0.3687499999999915,
            "durationTicks": 118,
            "midi": 68,
            "name": "G#4",
            "ticks": 16200,
            "time": 50.625,
            "velocity": 0.6299212598425197
          },
          {
            "duration": 0.7374999999999972,
            "durationTicks": 236,
            "midi": 66,
            "name": "F#4",
            "ticks": 16320,
            "time": 51,
            "velocity": 0.6299212598425197
          },
          {
            "duration": 1.5,
            "durationTicks": 480,
            "midi": 69,
            "name": "A4",
            "ticks": 16560,
            "time": 51.75,
            "velocity": 0.6299212598425197
          },
          {
            "duration": 0.75,
            "durationTicks": 240,
            "midi": 68,
            "name": "G#4",
            "ticks": 17040,
            "time": 53.25,
            "velocity": 0.5433070866141733
          },
          {
            "duration": 1.46875,
            "durationTicks": 470,
            "midi": 66,
            "name": "F#4",
            "ticks": 17280,
            "time": 54,
            "velocity": 0.5039370078740157
          },
          {
            "duration": 0.1875,
            "durationTicks": 60,
            "midi": 73,
            "name": "C#5",
            "ticks": 29220,
            "time": 91.3125,
            "velocity": 0.6299212598425197
          },
          {
            "duration": 0.1875,
            "durationTicks": 60,
            "midi": 74,
            "name": "D5",
            "ticks": 29280,
            "time": 91.5,
            "velocity": 0.6299212598425197
          },
          {
            "duration": 0.1875,
            "durationTicks": 60,
            "midi": 73,
            "name": "C#5",
            "ticks": 29340,
            "time": 91.6875,
            "velocity": 0.6299212598425197
          },
          {
            "duration": 0.1875,
            "durationTicks": 60,
            "midi": 72,
            "name": "C5",
            "ticks": 29400,
            "time": 91.875,
            "velocity": 0.6299212598425197
          },
          {
            "duration": 0.1875,
            "durationTicks": 60,
            "midi": 73,
            "name": "C#5",
            "ticks": 29460,
            "time": 92.0625,
            "velocity": 0.6299212598425197
          },
          {
            "duration": 0.9000000000000057,
            "durationTicks": 288,
            "midi": 81,
            "name": "A5",
            "ticks": 29520,
            "time": 92.25,
            "velocity": 0.6299212598425197
          },
          {
            "duration": 0.30000000000001137,
            "durationTicks": 96,
            "midi": 80,
            "name": "G#5",
            "ticks": 29880,
            "time": 93.375,
            "velocity": 0.6299212598425197
          },
          {
            "duration": 0.5999999999999943,
            "durationTicks": 192,
            "midi": 78,
            "name": "F#5",
            "ticks": 30000,
            "time": 93.75,
            "velocity": 0.6299212598425197
          },
          {
            "duration": 0.44999999999998863,
            "durationTicks": 144,
            "midi": 77,
            "name": "F5",
            "ticks": 30240,
            "time": 94.5,
            "velocity": 0.6299212598425197
          },
          {
            "duration": 0.44999999999998863,
            "durationTicks": 144,
            "midi": 76,
            "name": "E5",
            "ticks": 30480,
            "time": 95.25,
            "velocity": 0.6299212598425197
          },
          {
            "duration": 0.44999999999998863,
            "durationTicks": 144,
            "midi": 75,
            "name": "D#5",
            "ticks": 30720,
            "time": 96,
            "velocity": 0.6299212598425197
          },
          {
            "duration": 0.44999999999998863,
            "durationTicks": 144,
            "midi": 74,
            "name": "D5",
            "ticks": 30960,
            "time": 96.75,
            "velocity": 0.6299212598425197
          },
          {
            "duration": 0.44999999999998863,
            "durationTicks": 144,
            "midi": 73,
            "name": "C#5",
            "ticks": 31200,
            "time": 97.5,
            "velocity": 0.6299212598425197
          },
          {
            "duration": 0.44999999999998863,
            "durationTicks": 144,
            "midi": 73,
            "name": "C#5",
            "ticks": 31440,
            "time": 98.25,
            "velocity": 0.6299212598425197
          },
          {
            "duration": 0.6000000000000085,
            "durationTicks": 192,
            "midi": 73,
            "name": "C#5",
            "ticks": 31680,
            "time": 99,
            "velocity": 0.6299212598425197
          },
          {
            "duration": 0.1875,
            "durationTicks": 60,
            "midi": 73,
            "name": "C#5",
            "ticks": 32100,
            "time": 100.3125,
            "velocity": 0.6299212598425197
          },
          {
            "duration": 0.1875,
            "durationTicks": 60,
            "midi": 74,
            "name": "D5",
            "ticks": 32160,
            "time": 100.5,
            "velocity": 0.6299212598425197
          },
          {
            "duration": 0.1875,
            "durationTicks": 60,
            "midi": 73,
            "name": "C#5",
            "ticks": 32220,
            "time": 100.6875,
            "velocity": 0.6299212598425197
          },
          {
            "duration": 0.1875,
            "durationTicks": 60,
            "midi": 72,
            "name": "C5",
            "ticks": 32280,
            "time": 100.875,
            "velocity": 0.6299212598425197
          },
          {
            "duration": 0.1875,
            "durationTicks": 60,
            "midi": 73,
            "name": "C#5",
            "ticks": 32340,
            "time": 101.0625,
            "velocity": 0.6299212598425197
          },
          {
            "duration": 0.8999999999999915,
            "durationTicks": 288,
            "midi": 81,
            "name": "A5",
            "ticks": 32400,
            "time": 101.25,
            "velocity": 0.6299212598425197
          },
          {
            "duration": 0.30000000000001137,
            "durationTicks": 96,
            "midi": 80,
            "name": "G#5",
            "ticks": 32760,
            "time": 102.375,
            "velocity": 0.6299212598425197
          },
          {
            "duration": 0.6000000000000085,
            "durationTicks": 192,
            "midi": 78,
            "name": "F#5",
            "ticks": 32880,
            "time": 102.75,
            "velocity": 0.6299212598425197
          },
          {
            "duration": 0.375,
            "durationTicks": 120,
            "midi": 78,
            "name": "F#5",
            "ticks": 33120,
            "time": 103.5,
            "velocity": 0.6299212598425197
          },
          {
            "duration": 0.22500000000000853,
            "durationTicks": 72,
            "midi": 77,
            "name": "F5",
            "ticks": 33240,
            "time": 103.875,
            "velocity": 0.6299212598425197
          },
          {
            "duration": 0.22500000000000853,
            "durationTicks": 72,
            "midi": 77,
            "name": "F5",
            "ticks": 33360,
            "time": 104.25,
            "velocity": 0.6299212598425197
          },
          {
            "duration": 0.22500000000000853,
            "durationTicks": 72,
            "midi": 76,
            "name": "E5",
            "ticks": 33480,
            "time": 104.625,
            "velocity": 0.6299212598425197
          },
          {
            "duration": 0.22500000000000853,
            "durationTicks": 72,
            "midi": 75,
            "name": "D#5",
            "ticks": 33600,
            "time": 105,
            "velocity": 0.6299212598425197
          },
          {
            "duration": 0.22500000000000853,
            "durationTicks": 72,
            "midi": 74,
            "name": "D5",
            "ticks": 33720,
            "time": 105.375,
            "velocity": 0.6299212598425197
          },
          {
            "duration": 0.375,
            "durationTicks": 120,
            "midi": 74,
            "name": "D5",
            "ticks": 33840,
            "time": 105.75,
            "velocity": 0.6299212598425197
          },
          {
            "duration": 0.22500000000000853,
            "durationTicks": 72,
            "midi": 73,
            "name": "C#5",
            "ticks": 33960,
            "time": 106.125,
            "velocity": 0.6299212598425197
          },
          {
            "duration": 0.22500000000000853,
            "durationTicks": 72,
            "midi": 73,
            "name": "C#5",
            "ticks": 34080,
            "time": 106.5,
            "velocity": 0.6299212598425197
          },
          {
            "duration": 0.22500000000000853,
            "durationTicks": 72,
            "midi": 73,
            "name": "C#5",
            "ticks": 34200,
            "time": 106.875,
            "velocity": 0.6299212598425197
          },
          {
            "duration": 0.22500000000000853,
            "durationTicks": 72,
            "midi": 73,
            "name": "C#5",
            "ticks": 34320,
            "time": 107.25,
            "velocity": 0.6299212598425197
          },
          {
            "duration": 0.22500000000000853,
            "durationTicks": 72,
            "midi": 73,
            "name": "C#5",
            "ticks": 34440,
            "time": 107.625,
            "velocity": 0.6299212598425197
          },
          {
            "duration": 0.6000000000000085,
            "durationTicks": 192,
            "midi": 73,
            "name": "C#5",
            "ticks": 34560,
            "time": 108,
            "velocity": 0.6299212598425197
          },
          {
            "duration": 0.1875,
            "durationTicks": 60,
            "midi": 73,
            "name": "C#5",
            "ticks": 34980,
            "time": 109.3125,
            "velocity": 0.6299212598425197
          },
          {
            "duration": 0.1875,
            "durationTicks": 60,
            "midi": 74,
            "name": "D5",
            "ticks": 35040,
            "time": 109.5,
            "velocity": 0.6299212598425197
          },
          {
            "duration": 0.1875,
            "durationTicks": 60,
            "midi": 73,
            "name": "C#5",
            "ticks": 35100,
            "time": 109.6875,
            "velocity": 0.6299212598425197
          },
          {
            "duration": 0.1875,
            "durationTicks": 60,
            "midi": 72,
            "name": "C5",
            "ticks": 35160,
            "time": 109.875,
            "velocity": 0.6299212598425197
          },
          {
            "duration": 0.1875,
            "durationTicks": 60,
            "midi": 73,
            "name": "C#5",
            "ticks": 35220,
            "time": 110.0625,
            "velocity": 0.6299212598425197
          },
          {
            "duration": 0.8999999999999915,
            "durationTicks": 288,
            "midi": 81,
            "name": "A5",
            "ticks": 35280,
            "time": 110.25,
            "velocity": 0.6299212598425197
          },
          {
            "duration": 0.30000000000001137,
            "durationTicks": 96,
            "midi": 80,
            "name": "G#5",
            "ticks": 35640,
            "time": 111.375,
            "velocity": 0.6299212598425197
          },
          {
            "duration": 0.6000000000000085,
            "durationTicks": 192,
            "midi": 78,
            "name": "F#5",
            "ticks": 35760,
            "time": 111.75,
            "velocity": 0.6299212598425197
          },
          {
            "duration": 0.375,
            "durationTicks": 120,
            "midi": 78,
            "name": "F#5",
            "ticks": 36000,
            "time": 112.5,
            "velocity": 0.6299212598425197
          },
          {
            "duration": 0.30000000000001137,
            "durationTicks": 96,
            "midi": 76,
            "name": "E5",
            "ticks": 36120,
            "time": 112.875,
            "velocity": 0.6299212598425197
          },
          {
            "duration": 0.6000000000000085,
            "durationTicks": 192,
            "midi": 76,
            "name": "E5",
            "ticks": 36240,
            "time": 113.25,
            "velocity": 0.6299212598425197
          },
          {
            "duration": 0.6000000000000085,
            "durationTicks": 192,
            "midi": 76,
            "name": "E5",
            "ticks": 36480,
            "time": 114,
            "velocity": 0.6299212598425197
          },
          {
            "duration": 0.75,
            "durationTicks": 240,
            "midi": 76,
            "name": "E5",
            "ticks": 36720,
            "time": 114.75,
            "velocity": 0.6299212598425197
          },
          {
            "duration": 0.75,
            "durationTicks": 240,
            "midi": 78,
            "name": "F#5",
            "ticks": 36960,
            "time": 115.5,
            "velocity": 0.6299212598425197
          },
          {
            "duration": 0.75,
            "durationTicks": 240,
            "midi": 74,
            "name": "D5",
            "ticks": 37200,
            "time": 116.25,
            "velocity": 0.6299212598425197
          },
          {
            "duration": 0.7124999999999915,
            "durationTicks": 228,
            "midi": 73,
            "name": "C#5",
            "ticks": 37440,
            "time": 117,
            "velocity": 0.6299212598425197
          },
          {
            "duration": 0.7124999999999915,
            "durationTicks": 228,
            "midi": 76,
            "name": "E5",
            "ticks": 37920,
            "time": 118.5,
            "velocity": 0.6299212598425197
          },
          {
            "duration": 1.0687500000000085,
            "durationTicks": 342,
            "midi": 76,
            "name": "E5",
            "ticks": 38160,
            "time": 119.25,
            "velocity": 0.6299212598425197
          },
          {
            "duration": 0.35624999999998863,
            "durationTicks": 114,
            "midi": 74,
            "name": "D5",
            "ticks": 38520,
            "time": 120.375,
            "velocity": 0.6299212598425197
          },
          {
            "duration": 0.7124999999999915,
            "durationTicks": 228,
            "midi": 73,
            "name": "C#5",
            "ticks": 38640,
            "time": 120.75,
            "velocity": 0.6299212598425197
          },
          {
            "duration": 0.75,
            "durationTicks": 240,
            "midi": 71,
            "name": "B4",
            "ticks": 38880,
            "time": 121.5,
            "velocity": 0.6299212598425197
          },
          {
            "duration": 0.75,
            "durationTicks": 240,
            "midi": 74,
            "name": "D5",
            "ticks": 39120,
            "time": 122.25,
            "velocity": 0.6299212598425197
          },
          {
            "duration": 0.75,
            "durationTicks": 240,
            "midi": 78,
            "name": "F#5",
            "ticks": 39360,
            "time": 123,
            "velocity": 0.6299212598425197
          },
          {
            "duration": 0.6000000000000085,
            "durationTicks": 192,
            "midi": 81,
            "name": "A5",
            "ticks": 39600,
            "time": 123.75,
            "velocity": 0.6299212598425197
          },
          {
            "duration": 0.6000000000000085,
            "durationTicks": 192,
            "midi": 73,
            "name": "C#5",
            "ticks": 40080,
            "time": 125.25,
            "velocity": 0.6299212598425197
          },
          {
            "duration": 1.125,
            "durationTicks": 360,
            "midi": 76,
            "name": "E5",
            "ticks": 40320,
            "time": 126,
            "velocity": 0.6299212598425197
          },
          {
            "duration": 0.30000000000001137,
            "durationTicks": 96,
            "midi": 73,
            "name": "C#5",
            "ticks": 40680,
            "time": 127.125,
            "velocity": 0.6299212598425197
          },
          {
            "duration": 0.6000000000000227,
            "durationTicks": 192,
            "midi": 71,
            "name": "B4",
            "ticks": 40800,
            "time": 127.5,
            "velocity": 0.6299212598425197
          },
          {
            "duration": 0.30000000000001137,
            "durationTicks": 96,
            "midi": 64,
            "name": "E4",
            "ticks": 41160,
            "time": 128.625,
            "velocity": 0.6141732283464567
          },
          {
            "duration": 0.30000000000001137,
            "durationTicks": 96,
            "midi": 68,
            "name": "G#4",
            "ticks": 41280,
            "time": 129,
            "velocity": 0.6220472440944882
          },
          {
            "duration": 0.30000000000001137,
            "durationTicks": 96,
            "midi": 71,
            "name": "B4",
            "ticks": 41400,
            "time": 129.375,
            "velocity": 0.6299212598425197
          },
          {
            "duration": 0.30000000000001137,
            "durationTicks": 96,
            "midi": 76,
            "name": "E5",
            "ticks": 41520,
            "time": 129.75,
            "velocity": 0.6377952755905512
          },
          {
            "duration": 0.30000000000001137,
            "durationTicks": 96,
            "midi": 71,
            "name": "B4",
            "ticks": 41640,
            "time": 130.125,
            "velocity": 0.6456692913385826
          },
          {
            "duration": 0.75,
            "durationTicks": 240,
            "midi": 74,
            "name": "D5",
            "ticks": 41760,
            "time": 130.5,
            "velocity": 0.6377952755905512
          },
          {
            "duration": 0.6000000000000227,
            "durationTicks": 192,
            "midi": 72,
            "name": "C5",
            "ticks": 42000,
            "time": 131.25,
            "velocity": 0.6141732283464567
          },
          {
            "duration": 0.30000000000001137,
            "durationTicks": 96,
            "midi": 64,
            "name": "E4",
            "ticks": 42600,
            "time": 133.125,
            "velocity": 0.6220472440944882
          },
          {
            "duration": 0.30000000000001137,
            "durationTicks": 96,
            "midi": 69,
            "name": "A4",
            "ticks": 42720,
            "time": 133.5,
            "velocity": 0.6299212598425197
          },
          {
            "duration": 0.30000000000001137,
            "durationTicks": 96,
            "midi": 72,
            "name": "C5",
            "ticks": 42840,
            "time": 133.875,
            "velocity": 0.6456692913385826
          },
          {
            "duration": 0.30000000000001137,
            "durationTicks": 96,
            "midi": 76,
            "name": "E5",
            "ticks": 42960,
            "time": 134.25,
            "velocity": 0.6535433070866141
          },
          {
            "duration": 0.30000000000001137,
            "durationTicks": 96,
            "midi": 72,
            "name": "C5",
            "ticks": 43080,
            "time": 134.625,
            "velocity": 0.6692913385826772
          },
          {
            "duration": 0.75,
            "durationTicks": 240,
            "midi": 70,
            "name": "A#4",
            "ticks": 43200,
            "time": 135,
            "velocity": 0.6535433070866141
          },
          {
            "duration": 0.6000000000000227,
            "durationTicks": 192,
            "midi": 71,
            "name": "B4",
            "ticks": 43440,
            "time": 135.75,
            "velocity": 0.6377952755905512
          },
          {
            "duration": 0.6000000000000227,
            "durationTicks": 192,
            "midi": 64,
            "name": "E4",
            "ticks": 44160,
            "time": 138,
            "velocity": 0.6614173228346457
          },
          {
            "duration": 0.6000000000000227,
            "durationTicks": 192,
            "midi": 88,
            "name": "E6",
            "ticks": 44400,
            "time": 138.75,
            "velocity": 0.7716535433070866
          },
          {
            "duration": 1.5,
            "durationTicks": 480,
            "midi": 88,
            "name": "E6",
            "ticks": 44640,
            "time": 139.5,
            "velocity": 0.7952755905511811
          },
          {
            "duration": 0.6000000000000227,
            "durationTicks": 192,
            "midi": 87,
            "name": "D#6",
            "ticks": 45120,
            "time": 141,
            "velocity": 0.7480314960629921
          },
          {
            "duration": 0.375,
            "durationTicks": 120,
            "midi": 69,
            "name": "A4",
            "ticks": 45720,
            "time": 142.875,
            "velocity": 0.7086614173228346
          },
          {
            "duration": 0.375,
            "durationTicks": 120,
            "midi": 72,
            "name": "C5",
            "ticks": 45840,
            "time": 143.25,
            "velocity": 0.7086614173228346
          },
          {
            "duration": 0.375,
            "durationTicks": 120,
            "midi": 69,
            "name": "A4",
            "ticks": 45960,
            "time": 143.625,
            "velocity": 0.7086614173228346
          },
          {
            "duration": 1.1999999999999886,
            "durationTicks": 384,
            "midi": 76,
            "name": "E5",
            "ticks": 46080,
            "time": 144,
            "velocity": 0.7086614173228346
          },
          {
            "duration": 0.375,
            "durationTicks": 120,
            "midi": 81,
            "name": "A5",
            "ticks": 47160,
            "time": 147.375,
            "velocity": 0.7086614173228346
          },
          {
            "duration": 0.375,
            "durationTicks": 120,
            "midi": 84,
            "name": "C6",
            "ticks": 47280,
            "time": 147.75,
            "velocity": 0.7086614173228346
          },
          {
            "duration": 0.375,
            "durationTicks": 120,
            "midi": 81,
            "name": "A5",
            "ticks": 47400,
            "time": 148.125,
            "velocity": 0.7086614173228346
          },
          {
            "duration": 1.1999999999999886,
            "durationTicks": 384,
            "midi": 88,
            "name": "E6",
            "ticks": 47520,
            "time": 148.5,
            "velocity": 0.7086614173228346
          },
          {
            "duration": 0.375,
            "durationTicks": 120,
            "midi": 69,
            "name": "A4",
            "ticks": 48600,
            "time": 151.875,
            "velocity": 0.7086614173228346
          },
          {
            "duration": 0.375,
            "durationTicks": 120,
            "midi": 72,
            "name": "C5",
            "ticks": 48720,
            "time": 152.25,
            "velocity": 0.7086614173228346
          },
          {
            "duration": 0.375,
            "durationTicks": 120,
            "midi": 69,
            "name": "A4",
            "ticks": 48840,
            "time": 152.625,
            "velocity": 0.7086614173228346
          },
          {
            "duration": 0.44999999999998863,
            "durationTicks": 144,
            "midi": 76,
            "name": "E5",
            "ticks": 48960,
            "time": 153,
            "velocity": 0.7086614173228346
          },
          {
            "duration": 0.44999999999998863,
            "durationTicks": 144,
            "midi": 76,
            "name": "E5",
            "ticks": 49200,
            "time": 153.75,
            "velocity": 0.7086614173228346
          },
          {
            "duration": 0.44999999999998863,
            "durationTicks": 144,
            "midi": 76,
            "name": "E5",
            "ticks": 49440,
            "time": 154.5,
            "velocity": 0.7086614173228346
          },
          {
            "duration": 0.375,
            "durationTicks": 120,
            "midi": 75,
            "name": "D#5",
            "ticks": 49680,
            "time": 155.25,
            "velocity": 0.7086614173228346
          },
          {
            "duration": 0.375,
            "durationTicks": 120,
            "midi": 76,
            "name": "E5",
            "ticks": 49800,
            "time": 155.625,
            "velocity": 0.7086614173228346
          },
          {
            "duration": 0.375,
            "durationTicks": 120,
            "midi": 78,
            "name": "F#5",
            "ticks": 49920,
            "time": 156,
            "velocity": 0.7086614173228346
          },
          {
            "duration": 0.375,
            "durationTicks": 120,
            "midi": 76,
            "name": "E5",
            "ticks": 50040,
            "time": 156.375,
            "velocity": 0.7086614173228346
          },
          {
            "duration": 0.375,
            "durationTicks": 120,
            "midi": 74,
            "name": "D5",
            "ticks": 50160,
            "time": 156.75,
            "velocity": 0.7007874015748031
          },
          {
            "duration": 0.375,
            "durationTicks": 120,
            "midi": 71,
            "name": "B4",
            "ticks": 50280,
            "time": 157.125,
            "velocity": 0.6850393700787402
          },
          {
            "duration": 1.1999999999999886,
            "durationTicks": 384,
            "midi": 69,
            "name": "A4",
            "ticks": 50400,
            "time": 157.5,
            "velocity": 0.6220472440944882
          },
          {
            "duration": 0.375,
            "durationTicks": 120,
            "midi": 70,
            "name": "A#4",
            "ticks": 55560,
            "time": 173.625,
            "velocity": 0.6299212598425197
          },
          {
            "duration": 0.375,
            "durationTicks": 120,
            "midi": 71,
            "name": "B4",
            "ticks": 55680,
            "time": 174,
            "velocity": 0.6299212598425197
          },
          {
            "duration": 0.375,
            "durationTicks": 120,
            "midi": 73,
            "name": "C#5",
            "ticks": 55800,
            "time": 174.375,
            "velocity": 0.6299212598425197
          },
          {
            "duration": 0.375,
            "durationTicks": 120,
            "midi": 74,
            "name": "D5",
            "ticks": 55920,
            "time": 174.75,
            "velocity": 0.6299212598425197
          },
          {
            "duration": 0.375,
            "durationTicks": 120,
            "midi": 75,
            "name": "D#5",
            "ticks": 56040,
            "time": 175.125,
            "velocity": 0.6299212598425197
          },
          {
            "duration": 2.25,
            "durationTicks": 720,
            "midi": 76,
            "name": "E5",
            "ticks": 56160,
            "time": 175.5,
            "velocity": 0.6299212598425197
          },
          {
            "duration": 1.5,
            "durationTicks": 480,
            "midi": 73,
            "name": "C#5",
            "ticks": 56880,
            "time": 177.75,
            "velocity": 0.6299212598425197
          },
          {
            "duration": 0.1875,
            "durationTicks": 60,
            "midi": 74,
            "name": "D5",
            "ticks": 57360,
            "time": 179.25,
            "velocity": 0.6299212598425197
          },
          {
            "duration": 0.1875,
            "durationTicks": 60,
            "midi": 73,
            "name": "C#5",
            "ticks": 57420,
            "time": 179.4375,
            "velocity": 0.6299212598425197
          },
          {
            "duration": 0.1875,
            "durationTicks": 60,
            "midi": 71,
            "name": "B4",
            "ticks": 57480,
            "time": 179.625,
            "velocity": 0.6299212598425197
          },
          {
            "duration": 0.1875,
            "durationTicks": 60,
            "midi": 73,
            "name": "C#5",
            "ticks": 57540,
            "time": 179.8125,
            "velocity": 0.6299212598425197
          },
          {
            "duration": 0.44999999999998863,
            "durationTicks": 144,
            "midi": 74,
            "name": "D5",
            "ticks": 57600,
            "time": 180,
            "velocity": 0.6299212598425197
          },
          {
            "duration": 0.44999999999998863,
            "durationTicks": 144,
            "midi": 74,
            "name": "D5",
            "ticks": 57840,
            "time": 180.75,
            "velocity": 0.6299212598425197
          },
          {
            "duration": 0.44999999999998863,
            "durationTicks": 144,
            "midi": 74,
            "name": "D5",
            "ticks": 58080,
            "time": 181.5,
            "velocity": 0.6299212598425197
          },
          {
            "duration": 0.6000000000000227,
            "durationTicks": 192,
            "midi": 74,
            "name": "D5",
            "ticks": 58320,
            "time": 182.25,
            "velocity": 0.6299212598425197
          },
          {
            "duration": 0.75,
            "durationTicks": 240,
            "midi": 73,
            "name": "C#5",
            "ticks": 59280,
            "time": 185.25,
            "velocity": 0.6299212598425197
          },
          {
            "duration": 0.75,
            "durationTicks": 240,
            "midi": 81,
            "name": "A5",
            "ticks": 59520,
            "time": 186,
            "velocity": 0.6299212598425197
          },
          {
            "duration": 0.375,
            "durationTicks": 120,
            "midi": 71,
            "name": "B4",
            "ticks": 59880,
            "time": 187.125,
            "velocity": 0.6299212598425197
          },
          {
            "duration": 0.375,
            "durationTicks": 120,
            "midi": 73,
            "name": "C#5",
            "ticks": 60000,
            "time": 187.5,
            "velocity": 0.6299212598425197
          },
          {
            "duration": 0.375,
            "durationTicks": 120,
            "midi": 74,
            "name": "D5",
            "ticks": 60120,
            "time": 187.875,
            "velocity": 0.6299212598425197
          },
          {
            "duration": 0.375,
            "durationTicks": 120,
            "midi": 76,
            "name": "E5",
            "ticks": 60240,
            "time": 188.25,
            "velocity": 0.6299212598425197
          },
          {
            "duration": 0.375,
            "durationTicks": 120,
            "midi": 78,
            "name": "F#5",
            "ticks": 60360,
            "time": 188.625,
            "velocity": 0.6299212598425197
          },
          {
            "duration": 1.5,
            "durationTicks": 480,
            "midi": 69,
            "name": "A4",
            "ticks": 60480,
            "time": 189,
            "velocity": 0.6299212598425197
          },
          {
            "duration": 0.375,
            "durationTicks": 120,
            "midi": 73,
            "name": "C#5",
            "ticks": 60960,
            "time": 190.5,
            "velocity": 0.6299212598425197
          },
          {
            "duration": 0.375,
            "durationTicks": 120,
            "midi": 71,
            "name": "B4",
            "ticks": 61080,
            "time": 190.875,
            "velocity": 0.6141732283464567
          },
          {
            "duration": 1.200000000000017,
            "durationTicks": 384,
            "midi": 69,
            "name": "A4",
            "ticks": 61200,
            "time": 191.25,
            "velocity": 0.6062992125984252
          },
          {
            "duration": 0.1875,
            "durationTicks": 60,
            "midi": 83,
            "name": "B5",
            "ticks": 62700,
            "time": 195.9375,
            "velocity": 0.6299212598425197
          },
          {
            "duration": 0.1875,
            "durationTicks": 60,
            "midi": 86,
            "name": "D6",
            "ticks": 62760,
            "time": 196.125,
            "velocity": 0.6299212598425197
          },
          {
            "duration": 0.1875,
            "durationTicks": 60,
            "midi": 85,
            "name": "C#6",
            "ticks": 62820,
            "time": 196.3125,
            "velocity": 0.6299212598425197
          },
          {
            "duration": 0.1875,
            "durationTicks": 60,
            "midi": 83,
            "name": "B5",
            "ticks": 62880,
            "time": 196.5,
            "velocity": 0.6299212598425197
          },
          {
            "duration": 0.1875,
            "durationTicks": 60,
            "midi": 81,
            "name": "A5",
            "ticks": 62940,
            "time": 196.6875,
            "velocity": 0.6299212598425197
          },
          {
            "duration": 0.1875,
            "durationTicks": 60,
            "midi": 80,
            "name": "G#5",
            "ticks": 63000,
            "time": 196.875,
            "velocity": 0.6299212598425197
          },
          {
            "duration": 0.1875,
            "durationTicks": 60,
            "midi": 78,
            "name": "F#5",
            "ticks": 63060,
            "time": 197.0625,
            "velocity": 0.6299212598425197
          },
          {
            "duration": 0.1875,
            "durationTicks": 60,
            "midi": 76,
            "name": "E5",
            "ticks": 63120,
            "time": 197.25,
            "velocity": 0.6299212598425197
          },
          {
            "duration": 0.1875,
            "durationTicks": 60,
            "midi": 74,
            "name": "D5",
            "ticks": 63180,
            "time": 197.4375,
            "velocity": 0.6299212598425197
          },
          {
            "duration": 0.1875,
            "durationTicks": 60,
            "midi": 73,
            "name": "C#5",
            "ticks": 63240,
            "time": 197.625,
            "velocity": 0.6299212598425197
          },
          {
            "duration": 0.1875,
            "durationTicks": 60,
            "midi": 71,
            "name": "B4",
            "ticks": 63300,
            "time": 197.8125,
            "velocity": 0.6299212598425197
          },
          {
            "duration": 0.1875,
            "durationTicks": 60,
            "midi": 85,
            "name": "C#6",
            "ticks": 64140,
            "time": 200.4375,
            "velocity": 0.6299212598425197
          },
          {
            "duration": 0.1875,
            "durationTicks": 60,
            "midi": 88,
            "name": "E6",
            "ticks": 64200,
            "time": 200.625,
            "velocity": 0.6299212598425197
          },
          {
            "duration": 0.1875,
            "durationTicks": 60,
            "midi": 86,
            "name": "D6",
            "ticks": 64260,
            "time": 200.8125,
            "velocity": 0.6299212598425197
          },
          {
            "duration": 0.1875,
            "durationTicks": 60,
            "midi": 85,
            "name": "C#6",
            "ticks": 64320,
            "time": 201,
            "velocity": 0.6299212598425197
          },
          {
            "duration": 0.1875,
            "durationTicks": 60,
            "midi": 83,
            "name": "B5",
            "ticks": 64380,
            "time": 201.1875,
            "velocity": 0.6299212598425197
          },
          {
            "duration": 0.1875,
            "durationTicks": 60,
            "midi": 81,
            "name": "A5",
            "ticks": 64440,
            "time": 201.375,
            "velocity": 0.6299212598425197
          },
          {
            "duration": 0.1875,
            "durationTicks": 60,
            "midi": 80,
            "name": "G#5",
            "ticks": 64500,
            "time": 201.5625,
            "velocity": 0.6299212598425197
          },
          {
            "duration": 0.1875,
            "durationTicks": 60,
            "midi": 78,
            "name": "F#5",
            "ticks": 64560,
            "time": 201.75,
            "velocity": 0.6299212598425197
          },
          {
            "duration": 0.1875,
            "durationTicks": 60,
            "midi": 76,
            "name": "E5",
            "ticks": 64620,
            "time": 201.9375,
            "velocity": 0.6299212598425197
          },
          {
            "duration": 0.1875,
            "durationTicks": 60,
            "midi": 74,
            "name": "D5",
            "ticks": 64680,
            "time": 202.125,
            "velocity": 0.6299212598425197
          },
          {
            "duration": 0.1875,
            "durationTicks": 60,
            "midi": 73,
            "name": "C#5",
            "ticks": 64740,
            "time": 202.3125,
            "velocity": 0.6299212598425197
          },
          {
            "duration": 0.75,
            "durationTicks": 240,
            "midi": 71,
            "name": "B4",
            "ticks": 64800,
            "time": 202.5,
            "velocity": 0.6299212598425197
          },
          {
            "duration": 0.75,
            "durationTicks": 240,
            "midi": 74,
            "name": "D5",
            "ticks": 65040,
            "time": 203.25,
            "velocity": 0.6299212598425197
          },
          {
            "duration": 0.75,
            "durationTicks": 240,
            "midi": 68,
            "name": "G#4",
            "ticks": 65280,
            "time": 204,
            "velocity": 0.6299212598425197
          },
          {
            "duration": 0.22500000000002274,
            "durationTicks": 72,
            "midi": 69,
            "name": "A4",
            "ticks": 65520,
            "time": 204.75,
            "velocity": 0.6299212598425197
          },
          {
            "duration": 0.375,
            "durationTicks": 120,
            "midi": 69,
            "name": "A4",
            "ticks": 65640,
            "time": 205.125,
            "velocity": 0.6299212598425197
          },
          {
            "duration": 0.375,
            "durationTicks": 120,
            "midi": 68,
            "name": "G#4",
            "ticks": 65760,
            "time": 205.5,
            "velocity": 0.6299212598425197
          },
          {
            "duration": 0.375,
            "durationTicks": 120,
            "midi": 69,
            "name": "A4",
            "ticks": 65880,
            "time": 205.875,
            "velocity": 0.6299212598425197
          },
          {
            "duration": 0.375,
            "durationTicks": 120,
            "midi": 71,
            "name": "B4",
            "ticks": 66000,
            "time": 206.25,
            "velocity": 0.6299212598425197
          },
          {
            "duration": 0.375,
            "durationTicks": 120,
            "midi": 73,
            "name": "C#5",
            "ticks": 66120,
            "time": 206.625,
            "velocity": 0.6299212598425197
          },
          {
            "duration": 0.375,
            "durationTicks": 120,
            "midi": 76,
            "name": "E5",
            "ticks": 66240,
            "time": 207,
            "velocity": 0.6614173228346457
          },
          {
            "duration": 0.375,
            "durationTicks": 120,
            "midi": 75,
            "name": "D#5",
            "ticks": 66360,
            "time": 207.375,
            "velocity": 0.6456692913385826
          },
          {
            "duration": 0.75,
            "durationTicks": 240,
            "midi": 74,
            "name": "D5",
            "ticks": 66480,
            "time": 207.75,
            "velocity": 0.6377952755905512
          },
          {
            "duration": 0.75,
            "durationTicks": 240,
            "midi": 73,
            "name": "C#5",
            "ticks": 66720,
            "time": 208.5,
            "velocity": 0.6141732283464567
          },
          {
            "duration": 0.6000000000000227,
            "durationTicks": 192,
            "midi": 71,
            "name": "B4",
            "ticks": 66960,
            "time": 209.25,
            "velocity": 0.5905511811023622
          },
          {
            "duration": 1.125,
            "durationTicks": 360,
            "midi": 76,
            "name": "E5",
            "ticks": 67680,
            "time": 211.5,
            "velocity": 0.6614173228346457
          },
          {
            "duration": 0.09375,
            "durationTicks": 30,
            "midi": 78,
            "name": "F#5",
            "ticks": 68040,
            "time": 212.625,
            "velocity": 0.6377952755905512
          },
          {
            "duration": 0.09375,
            "durationTicks": 30,
            "midi": 76,
            "name": "E5",
            "ticks": 68070,
            "time": 212.71875,
            "velocity": 0.6377952755905512
          },
          {
            "duration": 0.09375,
            "durationTicks": 30,
            "midi": 74,
            "name": "D5",
            "ticks": 68100,
            "time": 212.8125,
            "velocity": 0.6377952755905512
          },
          {
            "duration": 0.09375,
            "durationTicks": 30,
            "midi": 76,
            "name": "E5",
            "ticks": 68130,
            "time": 212.90625,
            "velocity": 0.6299212598425197
          },
          {
            "duration": 0.375,
            "durationTicks": 120,
            "midi": 78,
            "name": "F#5",
            "ticks": 68160,
            "time": 213,
            "velocity": 0.6299212598425197
          },
          {
            "duration": 0.375,
            "durationTicks": 120,
            "midi": 74,
            "name": "D5",
            "ticks": 68280,
            "time": 213.375,
            "velocity": 0.6220472440944882
          },
          {
            "duration": 0.6000000000000227,
            "durationTicks": 192,
            "midi": 73,
            "name": "C#5",
            "ticks": 68400,
            "time": 213.75,
            "velocity": 0.6220472440944882
          },
          {
            "duration": 1.5,
            "durationTicks": 480,
            "midi": 71,
            "name": "B4",
            "ticks": 69120,
            "time": 216,
            "velocity": 0.6771653543307087
          },
          {
            "duration": 0.6000000000000227,
            "durationTicks": 192,
            "midi": 78,
            "name": "F#5",
            "ticks": 69600,
            "time": 217.5,
            "velocity": 0.7165354330708661
          },
          {
            "duration": 1.125,
            "durationTicks": 360,
            "midi": 78,
            "name": "F#5",
            "ticks": 69840,
            "time": 218.25,
            "velocity": 0.7322834645669292
          },
          {
            "duration": 0.1875,
            "durationTicks": 60,
            "midi": 80,
            "name": "G#5",
            "ticks": 70200,
            "time": 219.375,
            "velocity": 0.7637795275590551
          },
          {
            "duration": 0.1875,
            "durationTicks": 60,
            "midi": 81,
            "name": "A5",
            "ticks": 70260,
            "time": 219.5625,
            "velocity": 0.7637795275590551
          },
          {
            "duration": 0.22500000000002274,
            "durationTicks": 72,
            "midi": 80,
            "name": "G#5",
            "ticks": 70320,
            "time": 219.75,
            "velocity": 0.7716535433070866
          },
          {
            "duration": 0.1875,
            "durationTicks": 60,
            "midi": 78,
            "name": "F#5",
            "ticks": 70440,
            "time": 220.125,
            "velocity": 0.7795275590551181
          },
          {
            "duration": 0.6000000000000227,
            "durationTicks": 192,
            "midi": 76,
            "name": "E5",
            "ticks": 70560,
            "time": 220.5,
            "velocity": 0.8031496062992126
          },
          {
            "duration": 1.799999999999983,
            "durationTicks": 576,
            "midi": 88,
            "name": "E6",
            "ticks": 70800,
            "time": 221.25,
            "velocity": 0.84251968503937
          },
          {
            "duration": 0.29999999999998295,
            "durationTicks": 96,
            "midi": 85,
            "name": "C#6",
            "ticks": 71400,
            "time": 223.125,
            "velocity": 0.7874015748031497
          },
          {
            "duration": 0.29999999999998295,
            "durationTicks": 96,
            "midi": 81,
            "name": "A5",
            "ticks": 71520,
            "time": 223.5,
            "velocity": 0.7716535433070866
          },
          {
            "duration": 0.29999999999998295,
            "durationTicks": 96,
            "midi": 76,
            "name": "E5",
            "ticks": 71640,
            "time": 223.875,
            "velocity": 0.7480314960629921
          },
          {
            "duration": 0.29999999999998295,
            "durationTicks": 96,
            "midi": 73,
            "name": "C#5",
            "ticks": 71760,
            "time": 224.25,
            "velocity": 0.7322834645669292
          },
          {
            "duration": 0.29999999999998295,
            "durationTicks": 96,
            "midi": 69,
            "name": "A4",
            "ticks": 71880,
            "time": 224.625,
            "velocity": 0.7165354330708661
          },
          {
            "duration": 0.09375,
            "durationTicks": 30,
            "midi": 73,
            "name": "C#5",
            "ticks": 72000,
            "time": 225,
            "velocity": 0.6929133858267716
          },
          {
            "duration": 0.09375,
            "durationTicks": 30,
            "midi": 71,
            "name": "B4",
            "ticks": 72030,
            "time": 225.09375,
            "velocity": 0.6929133858267716
          },
          {
            "duration": 0.09375,
            "durationTicks": 30,
            "midi": 73,
            "name": "C#5",
            "ticks": 72060,
            "time": 225.1875,
            "velocity": 0.6850393700787402
          },
          {
            "duration": 0.09375,
            "durationTicks": 30,
            "midi": 71,
            "name": "B4",
            "ticks": 72090,
            "time": 225.28125,
            "velocity": 0.6771653543307087
          },
          {
            "duration": 0.09375,
            "durationTicks": 30,
            "midi": 73,
            "name": "C#5",
            "ticks": 72120,
            "time": 225.375,
            "velocity": 0.6771653543307087
          },
          {
            "duration": 0.09375,
            "durationTicks": 30,
            "midi": 71,
            "name": "B4",
            "ticks": 72150,
            "time": 225.46875,
            "velocity": 0.6692913385826772
          },
          {
            "duration": 0.09375,
            "durationTicks": 30,
            "midi": 73,
            "name": "C#5",
            "ticks": 72180,
            "time": 225.5625,
            "velocity": 0.6692913385826772
          },
          {
            "duration": 0.09375,
            "durationTicks": 30,
            "midi": 71,
            "name": "B4",
            "ticks": 72210,
            "time": 225.65625,
            "velocity": 0.6614173228346457
          },
          {
            "duration": 0.09375,
            "durationTicks": 30,
            "midi": 73,
            "name": "C#5",
            "ticks": 72240,
            "time": 225.75,
            "velocity": 0.6535433070866141
          },
          {
            "duration": 0.09375,
            "durationTicks": 30,
            "midi": 71,
            "name": "B4",
            "ticks": 72270,
            "time": 225.84375,
            "velocity": 0.6535433070866141
          },
          {
            "duration": 0.09375,
            "durationTicks": 30,
            "midi": 73,
            "name": "C#5",
            "ticks": 72300,
            "time": 225.9375,
            "velocity": 0.6456692913385826
          },
          {
            "duration": 0.09375,
            "durationTicks": 30,
            "midi": 71,
            "name": "B4",
            "ticks": 72330,
            "time": 226.03125,
            "velocity": 0.6456692913385826
          },
          {
            "duration": 0.09375,
            "durationTicks": 30,
            "midi": 73,
            "name": "C#5",
            "ticks": 72360,
            "time": 226.125,
            "velocity": 0.6377952755905512
          },
          {
            "duration": 0.09375,
            "durationTicks": 30,
            "midi": 71,
            "name": "B4",
            "ticks": 72390,
            "time": 226.21875,
            "velocity": 0.6299212598425197
          },
          {
            "duration": 0.09375,
            "durationTicks": 30,
            "midi": 73,
            "name": "C#5",
            "ticks": 72420,
            "time": 226.3125,
            "velocity": 0.6299212598425197
          },
          {
            "duration": 0.09375,
            "durationTicks": 30,
            "midi": 71,
            "name": "B4",
            "ticks": 72450,
            "time": 226.40625,
            "velocity": 0.6299212598425197
          },
          {
            "duration": 0.09375,
            "durationTicks": 30,
            "midi": 73,
            "name": "C#5",
            "ticks": 72480,
            "time": 226.5,
            "velocity": 0.6299212598425197
          },
          {
            "duration": 0.09375,
            "durationTicks": 30,
            "midi": 71,
            "name": "B4",
            "ticks": 72510,
            "time": 226.59375,
            "velocity": 0.6299212598425197
          },
          {
            "duration": 0.09375,
            "durationTicks": 30,
            "midi": 73,
            "name": "C#5",
            "ticks": 72540,
            "time": 226.6875,
            "velocity": 0.6299212598425197
          },
          {
            "duration": 0.09375,
            "durationTicks": 30,
            "midi": 71,
            "name": "B4",
            "ticks": 72570,
            "time": 226.78125,
            "velocity": 0.6299212598425197
          },
          {
            "duration": 0.09375,
            "durationTicks": 30,
            "midi": 73,
            "name": "C#5",
            "ticks": 72600,
            "time": 226.875,
            "velocity": 0.6299212598425197
          },
          {
            "duration": 0.09375,
            "durationTicks": 30,
            "midi": 71,
            "name": "B4",
            "ticks": 72630,
            "time": 226.96875,
            "velocity": 0.6299212598425197
          },
          {
            "duration": 0.09375,
            "durationTicks": 30,
            "midi": 73,
            "name": "C#5",
            "ticks": 72660,
            "time": 227.0625,
            "velocity": 0.6299212598425197
          },
          {
            "duration": 0.09375,
            "durationTicks": 30,
            "midi": 71,
            "name": "B4",
            "ticks": 72690,
            "time": 227.15625,
            "velocity": 0.6299212598425197
          },
          {
            "duration": 0.09375,
            "durationTicks": 30,
            "midi": 73,
            "name": "C#5",
            "ticks": 72720,
            "time": 227.25,
            "velocity": 0.6299212598425197
          },
          {
            "duration": 0.09375,
            "durationTicks": 30,
            "midi": 71,
            "name": "B4",
            "ticks": 72750,
            "time": 227.34375,
            "velocity": 0.6299212598425197
          },
          {
            "duration": 0.09375,
            "durationTicks": 30,
            "midi": 73,
            "name": "C#5",
            "ticks": 72780,
            "time": 227.4375,
            "velocity": 0.6299212598425197
          },
          {
            "duration": 0.09375,
            "durationTicks": 30,
            "midi": 71,
            "name": "B4",
            "ticks": 72810,
            "time": 227.53125,
            "velocity": 0.6299212598425197
          },
          {
            "duration": 0.09375,
            "durationTicks": 30,
            "midi": 73,
            "name": "C#5",
            "ticks": 72840,
            "time": 227.625,
            "velocity": 0.6299212598425197
          },
          {
            "duration": 0.09375,
            "durationTicks": 30,
            "midi": 71,
            "name": "B4",
            "ticks": 72870,
            "time": 227.71875,
            "velocity": 0.6299212598425197
          },
          {
            "duration": 0.09375,
            "durationTicks": 30,
            "midi": 73,
            "name": "C#5",
            "ticks": 72900,
            "time": 227.8125,
            "velocity": 0.6299212598425197
          },
          {
            "duration": 0.09375,
            "durationTicks": 30,
            "midi": 71,
            "name": "B4",
            "ticks": 72930,
            "time": 227.90625,
            "velocity": 0.6299212598425197
          },
          {
            "duration": 0.09375,
            "durationTicks": 30,
            "midi": 73,
            "name": "C#5",
            "ticks": 72960,
            "time": 228,
            "velocity": 0.6299212598425197
          },
          {
            "duration": 0.09375,
            "durationTicks": 30,
            "midi": 71,
            "name": "B4",
            "ticks": 72990,
            "time": 228.09375,
            "velocity": 0.6299212598425197
          },
          {
            "duration": 0.09375,
            "durationTicks": 30,
            "midi": 73,
            "name": "C#5",
            "ticks": 73020,
            "time": 228.1875,
            "velocity": 0.6299212598425197
          },
          {
            "duration": 0.09375,
            "durationTicks": 30,
            "midi": 71,
            "name": "B4",
            "ticks": 73050,
            "time": 228.28125,
            "velocity": 0.6299212598425197
          },
          {
            "duration": 0.09375,
            "durationTicks": 30,
            "midi": 73,
            "name": "C#5",
            "ticks": 73080,
            "time": 228.375,
            "velocity": 0.6299212598425197
          },
          {
            "duration": 0.09375,
            "durationTicks": 30,
            "midi": 71,
            "name": "B4",
            "ticks": 73110,
            "time": 228.46875,
            "velocity": 0.6299212598425197
          },
          {
            "duration": 0.09375,
            "durationTicks": 30,
            "midi": 73,
            "name": "C#5",
            "ticks": 73140,
            "time": 228.5625,
            "velocity": 0.6299212598425197
          },
          {
            "duration": 0.09375,
            "durationTicks": 30,
            "midi": 71,
            "name": "B4",
            "ticks": 73170,
            "time": 228.65625,
            "velocity": 0.6299212598425197
          },
          {
            "duration": 0.09375,
            "durationTicks": 30,
            "midi": 73,
            "name": "C#5",
            "ticks": 73200,
            "time": 228.75,
            "velocity": 0.6299212598425197
          },
          {
            "duration": 0.09375,
            "durationTicks": 30,
            "midi": 71,
            "name": "B4",
            "ticks": 73230,
            "time": 228.84375,
            "velocity": 0.6299212598425197
          },
          {
            "duration": 0.09375,
            "durationTicks": 30,
            "midi": 73,
            "name": "C#5",
            "ticks": 73260,
            "time": 228.9375,
            "velocity": 0.6299212598425197
          },
          {
            "duration": 0.09375,
            "durationTicks": 30,
            "midi": 71,
            "name": "B4",
            "ticks": 73290,
            "time": 229.03125,
            "velocity": 0.6141732283464567
          },
          {
            "duration": 0.1875,
            "durationTicks": 60,
            "midi": 69,
            "name": "A4",
            "ticks": 73320,
            "time": 229.125,
            "velocity": 0.6062992125984252
          },
          {
            "duration": 0.1875,
            "durationTicks": 60,
            "midi": 71,
            "name": "B4",
            "ticks": 73380,
            "time": 229.3125,
            "velocity": 0.5905511811023622
          },
          {
            "duration": 1.200000000000017,
            "durationTicks": 384,
            "midi": 69,
            "name": "A4",
            "ticks": 73440,
            "time": 229.5,
            "velocity": 0.5748031496062992
          },
          {
            "duration": 1.0687500000000227,
            "durationTicks": 342,
            "midi": 73,
            "name": "C#5",
            "ticks": 76320,
            "time": 238.5,
            "velocity": 0.6299212598425197
          },
          {
            "duration": 0.35625000000001705,
            "durationTicks": 114,
            "midi": 74,
            "name": "D5",
            "ticks": 76680,
            "time": 239.625,
            "velocity": 0.6299212598425197
          },
          {
            "duration": 0.7124999999999773,
            "durationTicks": 228,
            "midi": 73,
            "name": "C#5",
            "ticks": 76800,
            "time": 240,
            "velocity": 0.6299212598425197
          },
          {
            "duration": 0.75,
            "durationTicks": 240,
            "midi": 73,
            "name": "C#5",
            "ticks": 77040,
            "time": 240.75,
            "velocity": 0.6299212598425197
          },
          {
            "duration": 0.75,
            "durationTicks": 240,
            "midi": 78,
            "name": "F#5",
            "ticks": 77280,
            "time": 241.5,
            "velocity": 0.6299212598425197
          },
          {
            "duration": 0.75,
            "durationTicks": 240,
            "midi": 81,
            "name": "A5",
            "ticks": 77520,
            "time": 242.25,
            "velocity": 0.6299212598425197
          },
          {
            "duration": 0.75,
            "durationTicks": 240,
            "midi": 81,
            "name": "A5",
            "ticks": 77760,
            "time": 243,
            "velocity": 0.6299212598425197
          },
          {
            "duration": 0.45000000000001705,
            "durationTicks": 144,
            "midi": 71,
            "name": "B4",
            "ticks": 78000,
            "time": 243.75,
            "velocity": 0.6299212598425197
          },
          {
            "duration": 0.375,
            "durationTicks": 120,
            "midi": 80,
            "name": "G#5",
            "ticks": 78240,
            "time": 244.5,
            "velocity": 0.6299212598425197
          },
          {
            "duration": 1.875,
            "durationTicks": 600,
            "midi": 71,
            "name": "B4",
            "ticks": 78720,
            "time": 246,
            "velocity": 0.6299212598425197
          },
          {
            "duration": 0.35625000000001705,
            "durationTicks": 114,
            "midi": 69,
            "name": "A4",
            "ticks": 79320,
            "time": 247.875,
            "velocity": 0.6299212598425197
          },
          {
            "duration": 2.2124999999999773,
            "durationTicks": 708,
            "midi": 78,
            "name": "F#5",
            "ticks": 79440,
            "time": 248.25,
            "velocity": 0.6299212598425197
          },
          {
            "duration": 0.75,
            "durationTicks": 240,
            "midi": 68,
            "name": "G#4",
            "ticks": 80160,
            "time": 250.5,
            "velocity": 0.6299212598425197
          },
          {
            "duration": 0.7124999999999773,
            "durationTicks": 228,
            "midi": 74,
            "name": "D5",
            "ticks": 80400,
            "time": 251.25,
            "velocity": 0.6062992125984252
          },
          {
            "duration": 1.5,
            "durationTicks": 480,
            "midi": 66,
            "name": "F#4",
            "ticks": 80640,
            "time": 252,
            "velocity": 0.5590551181102362
          },
          {
            "duration": 0.1875,
            "durationTicks": 60,
            "midi": 65,
            "name": "F4",
            "ticks": 81120,
            "time": 253.5,
            "velocity": 0.5039370078740157
          },
          {
            "duration": 0.1875,
            "durationTicks": 60,
            "midi": 66,
            "name": "F#4",
            "ticks": 81180,
            "time": 253.6875,
            "velocity": 0.5039370078740157
          },
          {
            "duration": 0.1875,
            "durationTicks": 60,
            "midi": 68,
            "name": "G#4",
            "ticks": 81240,
            "time": 253.875,
            "velocity": 0.49606299212598426
          },
          {
            "duration": 0.1875,
            "durationTicks": 60,
            "midi": 66,
            "name": "F#4",
            "ticks": 81300,
            "time": 254.0625,
            "velocity": 0.49606299212598426
          },
          {
            "duration": 0.6000000000000227,
            "durationTicks": 192,
            "midi": 65,
            "name": "F4",
            "ticks": 81360,
            "time": 254.25,
            "velocity": 0.49606299212598426
          },
          {
            "duration": 1.099999999999966,
            "durationTicks": 352,
            "midi": 74,
            "name": "D5",
            "ticks": 82080,
            "time": 256.5,
            "velocity": 0.6299212598425197
          },
          {
            "duration": 0.36874999999997726,
            "durationTicks": 118,
            "midi": 76,
            "name": "E5",
            "ticks": 82440,
            "time": 257.625,
            "velocity": 0.6299212598425197
          },
          {
            "duration": 0.7375000000000114,
            "durationTicks": 236,
            "midi": 74,
            "name": "D5",
            "ticks": 82560,
            "time": 258,
            "velocity": 0.6299212598425197
          },
          {
            "duration": 0.09375,
            "durationTicks": 30,
            "midi": 74,
            "name": "D5",
            "ticks": 82800,
            "time": 258.75,
            "velocity": 0.6299212598425197
          },
          {
            "duration": 0.09375,
            "durationTicks": 30,
            "midi": 76,
            "name": "E5",
            "ticks": 82830,
            "time": 258.84375,
            "velocity": 0.6299212598425197
          },
          {
            "duration": 0.9375,
            "durationTicks": 300,
            "midi": 78,
            "name": "F#5",
            "ticks": 82860,
            "time": 258.9375,
            "velocity": 0.6299212598425197
          },
          {
            "duration": 0.36874999999997726,
            "durationTicks": 118,
            "midi": 76,
            "name": "E5",
            "ticks": 83160,
            "time": 259.875,
            "velocity": 0.6299212598425197
          },
          {
            "duration": 0.7375000000000114,
            "durationTicks": 236,
            "midi": 74,
            "name": "D5",
            "ticks": 83280,
            "time": 260.25,
            "velocity": 0.6299212598425197
          },
          {
            "duration": 2.25,
            "durationTicks": 720,
            "midi": 72,
            "name": "C5",
            "ticks": 83520,
            "time": 261,
            "velocity": 0.6220472440944882
          },
          {
            "duration": 0.7124999999999773,
            "durationTicks": 228,
            "midi": 73,
            "name": "C#5",
            "ticks": 84240,
            "time": 263.25,
            "velocity": 0.5905511811023622
          },
          {
            "duration": 0.375,
            "durationTicks": 120,
            "midi": 73,
            "name": "C#5",
            "ticks": 84960,
            "time": 265.5,
            "velocity": 0.6220472440944882
          },
          {
            "duration": 0.2999999999999545,
            "durationTicks": 96,
            "midi": 71,
            "name": "B4",
            "ticks": 85080,
            "time": 265.875,
            "velocity": 0.6220472440944882
          },
          {
            "duration": 0.375,
            "durationTicks": 120,
            "midi": 70,
            "name": "A#4",
            "ticks": 85200,
            "time": 266.25,
            "velocity": 0.6299212598425197
          },
          {
            "duration": 0.2999999999999545,
            "durationTicks": 96,
            "midi": 71,
            "name": "B4",
            "ticks": 85320,
            "time": 266.625,
            "velocity": 0.6299212598425197
          },
          {
            "duration": 0.375,
            "durationTicks": 120,
            "midi": 70,
            "name": "A#4",
            "ticks": 85440,
            "time": 267,
            "velocity": 0.6377952755905512
          },
          {
            "duration": 0.2999999999999545,
            "durationTicks": 96,
            "midi": 71,
            "name": "B4",
            "ticks": 85560,
            "time": 267.375,
            "velocity": 0.6377952755905512
          },
          {
            "duration": 0.375,
            "durationTicks": 120,
            "midi": 81,
            "name": "A5",
            "ticks": 85680,
            "time": 267.75,
            "velocity": 0.6456692913385826
          },
          {
            "duration": 0.2999999999999545,
            "durationTicks": 96,
            "midi": 80,
            "name": "G#5",
            "ticks": 85800,
            "time": 268.125,
            "velocity": 0.6535433070866141
          },
          {
            "duration": 0.375,
            "durationTicks": 120,
            "midi": 78,
            "name": "F#5",
            "ticks": 85920,
            "time": 268.5,
            "velocity": 0.6377952755905512
          },
          {
            "duration": 0.2999999999999545,
            "durationTicks": 96,
            "midi": 77,
            "name": "F5",
            "ticks": 86040,
            "time": 268.875,
            "velocity": 0.6220472440944882
          },
          {
            "duration": 0.375,
            "durationTicks": 120,
            "midi": 74,
            "name": "D5",
            "ticks": 86160,
            "time": 269.25,
            "velocity": 0.6141732283464567
          },
          {
            "duration": 0.2999999999999545,
            "durationTicks": 96,
            "midi": 73,
            "name": "C#5",
            "ticks": 86280,
            "time": 269.625,
            "velocity": 0.5984251968503937
          },
          {
            "duration": 1.5,
            "durationTicks": 480,
            "midi": 71,
            "name": "B4",
            "ticks": 86400,
            "time": 270,
            "velocity": 0.5905511811023622
          },
          {
            "duration": 0.7124999999999773,
            "durationTicks": 228,
            "midi": 70,
            "name": "A#4",
            "ticks": 86880,
            "time": 271.5,
            "velocity": 0.5118110236220472
          },
          {
            "duration": 0.7124999999999773,
            "durationTicks": 228,
            "midi": 69,
            "name": "A4",
            "ticks": 87120,
            "time": 272.25,
            "velocity": 0.47244094488188976
          },
          {
            "duration": 1.099999999999966,
            "durationTicks": 352,
            "midi": 67,
            "name": "G4",
            "ticks": 87840,
            "time": 274.5,
            "velocity": 0.5511811023622047
          },
          {
            "duration": 0.36874999999997726,
            "durationTicks": 118,
            "midi": 69,
            "name": "A4",
            "ticks": 88200,
            "time": 275.625,
            "velocity": 0.5511811023622047
          },
          {
            "duration": 0.7375000000000114,
            "durationTicks": 236,
            "midi": 67,
            "name": "G4",
            "ticks": 88320,
            "time": 276,
            "velocity": 0.5511811023622047
          },
          {
            "duration": 1.46875,
            "durationTicks": 470,
            "midi": 67,
            "name": "G4",
            "ticks": 88560,
            "time": 276.75,
            "velocity": 0.5511811023622047
          },
          {
            "duration": 0.7375000000000114,
            "durationTicks": 236,
            "midi": 67,
            "name": "G4",
            "ticks": 89040,
            "time": 278.25,
            "velocity": 0.5511811023622047
          },
          {
            "duration": 0.4500000000000455,
            "durationTicks": 144,
            "midi": 67,
            "name": "G4",
            "ticks": 89280,
            "time": 279,
            "velocity": 0.5590551181102362
          },
          {
            "duration": 0.4500000000000455,
            "durationTicks": 144,
            "midi": 71,
            "name": "B4",
            "ticks": 89520,
            "time": 279.75,
            "velocity": 0.5748031496062992
          },
          {
            "duration": 0.4500000000000455,
            "durationTicks": 144,
            "midi": 74,
            "name": "D5",
            "ticks": 89760,
            "time": 280.5,
            "velocity": 0.5905511811023622
          },
          {
            "duration": 0.4500000000000455,
            "durationTicks": 144,
            "midi": 79,
            "name": "G5",
            "ticks": 90000,
            "time": 281.25,
            "velocity": 0.6141732283464567
          },
          {
            "duration": 0.4500000000000455,
            "durationTicks": 144,
            "midi": 83,
            "name": "B5",
            "ticks": 90240,
            "time": 282,
            "velocity": 0.6299212598425197
          },
          {
            "duration": 0.4500000000000455,
            "durationTicks": 144,
            "midi": 86,
            "name": "D6",
            "ticks": 90480,
            "time": 282.75,
            "velocity": 0.6535433070866141
          },
          {
            "duration": 1.0687500000000227,
            "durationTicks": 342,
            "midi": 66,
            "name": "F#4",
            "ticks": 90720,
            "time": 283.5,
            "velocity": 0.6299212598425197
          },
          {
            "duration": 0.3562500000000455,
            "durationTicks": 114,
            "midi": 68,
            "name": "G#4",
            "ticks": 91080,
            "time": 284.625,
            "velocity": 0.6299212598425197
          },
          {
            "duration": 0.7124999999999773,
            "durationTicks": 228,
            "midi": 66,
            "name": "F#4",
            "ticks": 91200,
            "time": 285,
            "velocity": 0.6299212598425197
          },
          {
            "duration": 1.5,
            "durationTicks": 480,
            "midi": 69,
            "name": "A4",
            "ticks": 91440,
            "time": 285.75,
            "velocity": 0.6299212598425197
          },
          {
            "duration": 0.75,
            "durationTicks": 240,
            "midi": 68,
            "name": "G#4",
            "ticks": 91920,
            "time": 287.25,
            "velocity": 0.6062992125984252
          },
          {
            "duration": 4.274999999999977,
            "durationTicks": 1368,
            "midi": 66,
            "name": "F#4",
            "ticks": 92160,
            "time": 288,
            "velocity": 0.5905511811023622
          },
          {
            "duration": 1.0687500000000227,
            "durationTicks": 342,
            "midi": 67,
            "name": "G4",
            "ticks": 93600,
            "time": 292.5,
            "velocity": 0.6299212598425197
          },
          {
            "duration": 0.3562500000000455,
            "durationTicks": 114,
            "midi": 69,
            "name": "A4",
            "ticks": 93960,
            "time": 293.625,
            "velocity": 0.6299212598425197
          },
          {
            "duration": 0.7124999999999773,
            "durationTicks": 228,
            "midi": 67,
            "name": "G4",
            "ticks": 94080,
            "time": 294,
            "velocity": 0.6299212598425197
          },
          {
            "duration": 0.7124999999999773,
            "durationTicks": 228,
            "midi": 67,
            "name": "G4",
            "ticks": 94320,
            "time": 294.75,
            "velocity": 0.6377952755905512
          },
          {
            "duration": 0.7124999999999773,
            "durationTicks": 228,
            "midi": 55,
            "name": "G3",
            "ticks": 94560,
            "time": 295.5,
            "velocity": 0.6377952755905512
          },
          {
            "duration": 0.7124999999999773,
            "durationTicks": 228,
            "midi": 55,
            "name": "G3",
            "ticks": 94800,
            "time": 296.25,
            "velocity": 0.6456692913385826
          },
          {
            "duration": 2.1375000000000455,
            "durationTicks": 684,
            "midi": 55,
            "name": "G3",
            "ticks": 95040,
            "time": 297,
            "velocity": 0.6535433070866141
          },
          {
            "duration": 1.4249999999999545,
            "durationTicks": 456,
            "midi": 86,
            "name": "D6",
            "ticks": 95760,
            "time": 299.25,
            "velocity": 0.7165354330708661
          },
          {
            "duration": 0.7124999999999773,
            "durationTicks": 228,
            "midi": 67,
            "name": "G4",
            "ticks": 96240,
            "time": 300.75,
            "velocity": 0.6299212598425197
          },
          {
            "duration": 1.0687500000000227,
            "durationTicks": 342,
            "midi": 66,
            "name": "F#4",
            "ticks": 96480,
            "time": 301.5,
            "velocity": 0.6299212598425197
          },
          {
            "duration": 0.3562500000000455,
            "durationTicks": 114,
            "midi": 68,
            "name": "G#4",
            "ticks": 96840,
            "time": 302.625,
            "velocity": 0.6299212598425197
          },
          {
            "duration": 0.7124999999999773,
            "durationTicks": 228,
            "midi": 66,
            "name": "F#4",
            "ticks": 96960,
            "time": 303,
            "velocity": 0.6299212598425197
          },
          {
            "duration": 1.5,
            "durationTicks": 480,
            "midi": 69,
            "name": "A4",
            "ticks": 97200,
            "time": 303.75,
            "velocity": 0.6220472440944882
          },
          {
            "duration": 0.75,
            "durationTicks": 240,
            "midi": 68,
            "name": "G#4",
            "ticks": 97680,
            "time": 305.25,
            "velocity": 0.5433070866141733
          },
          {
            "duration": 1.2000000000000455,
            "durationTicks": 384,
            "midi": 66,
            "name": "F#4",
            "ticks": 97920,
            "time": 306,
            "velocity": 0.5039370078740157
          },
          {
            "duration": 0.1875,
            "durationTicks": 60,
            "midi": 69,
            "name": "A4",
            "ticks": 110160,
            "time": 344.25,
            "velocity": 0.7795275590551181
          },
          {
            "duration": 2.0500000000000114,
            "durationTicks": 656,
            "midi": 81,
            "name": "A5",
            "ticks": 110220,
            "time": 344.4375,
            "velocity": 0.7795275590551181
          },
          {
            "duration": 0.375,
            "durationTicks": 120,
            "midi": 83,
            "name": "B5",
            "ticks": 110880,
            "time": 346.5,
            "velocity": 0.7165354330708661
          },
          {
            "duration": 0.2999999999999545,
            "durationTicks": 96,
            "midi": 81,
            "name": "A5",
            "ticks": 111000,
            "time": 346.875,
            "velocity": 0.7086614173228346
          },
          {
            "duration": 0.375,
            "durationTicks": 120,
            "midi": 81,
            "name": "A5",
            "ticks": 111120,
            "time": 347.25,
            "velocity": 0.7086614173228346
          },
          {
            "duration": 0.2999999999999545,
            "durationTicks": 96,
            "midi": 80,
            "name": "G#5",
            "ticks": 111240,
            "time": 347.625,
            "velocity": 0.7086614173228346
          },
          {
            "duration": 0.375,
            "durationTicks": 120,
            "midi": 80,
            "name": "G#5",
            "ticks": 111360,
            "time": 348,
            "velocity": 0.7086614173228346
          },
          {
            "duration": 0.2999999999999545,
            "durationTicks": 96,
            "midi": 78,
            "name": "F#5",
            "ticks": 111480,
            "time": 348.375,
            "velocity": 0.7007874015748031
          },
          {
            "duration": 0.375,
            "durationTicks": 120,
            "midi": 78,
            "name": "F#5",
            "ticks": 111600,
            "time": 348.75,
            "velocity": 0.7007874015748031
          },
          {
            "duration": 0.2999999999999545,
            "durationTicks": 96,
            "midi": 77,
            "name": "F5",
            "ticks": 111720,
            "time": 349.125,
            "velocity": 0.7007874015748031
          },
          {
            "duration": 0.375,
            "durationTicks": 120,
            "midi": 77,
            "name": "F5",
            "ticks": 111840,
            "time": 349.5,
            "velocity": 0.7007874015748031
          },
          {
            "duration": 0.2999999999999545,
            "durationTicks": 96,
            "midi": 78,
            "name": "F#5",
            "ticks": 111960,
            "time": 349.875,
            "velocity": 0.6929133858267716
          },
          {
            "duration": 0.375,
            "durationTicks": 120,
            "midi": 78,
            "name": "F#5",
            "ticks": 112080,
            "time": 350.25,
            "velocity": 0.6929133858267716
          },
          {
            "duration": 0.2999999999999545,
            "durationTicks": 96,
            "midi": 80,
            "name": "G#5",
            "ticks": 112200,
            "time": 350.625,
            "velocity": 0.6929133858267716
          },
          {
            "duration": 1.7999999999999545,
            "durationTicks": 576,
            "midi": 73,
            "name": "C#5",
            "ticks": 112320,
            "time": 351,
            "velocity": 0.6929133858267716
          },
          {
            "duration": 2.625,
            "durationTicks": 840,
            "midi": 85,
            "name": "C#6",
            "ticks": 113040,
            "time": 353.25,
            "velocity": 0.7874015748031497
          },
          {
            "duration": 0.1875,
            "durationTicks": 60,
            "midi": 86,
            "name": "D6",
            "ticks": 113880,
            "time": 355.875,
            "velocity": 0.7007874015748031
          },
          {
            "duration": 0.1875,
            "durationTicks": 60,
            "midi": 85,
            "name": "C#6",
            "ticks": 113940,
            "time": 356.0625,
            "velocity": 0.7007874015748031
          },
          {
            "duration": 0.75,
            "durationTicks": 240,
            "midi": 83,
            "name": "B5",
            "ticks": 114000,
            "time": 356.25,
            "velocity": 0.7007874015748031
          },
          {
            "duration": 0.75,
            "durationTicks": 240,
            "midi": 81,
            "name": "A5",
            "ticks": 114240,
            "time": 357,
            "velocity": 0.7007874015748031
          },
          {
            "duration": 0.375,
            "durationTicks": 120,
            "midi": 80,
            "name": "G#5",
            "ticks": 114480,
            "time": 357.75,
            "velocity": 0.7007874015748031
          },
          {
            "duration": 0.09375,
            "durationTicks": 30,
            "midi": 81,
            "name": "A5",
            "ticks": 114600,
            "time": 358.125,
            "velocity": 0.7007874015748031
          },
          {
            "duration": 0.09375,
            "durationTicks": 30,
            "midi": 80,
            "name": "G#5",
            "ticks": 114630,
            "time": 358.21875,
            "velocity": 0.7007874015748031
          },
          {
            "duration": 0.09375,
            "durationTicks": 30,
            "midi": 78,
            "name": "F#5",
            "ticks": 114660,
            "time": 358.3125,
            "velocity": 0.7007874015748031
          },
          {
            "duration": 0.09375,
            "durationTicks": 30,
            "midi": 80,
            "name": "G#5",
            "ticks": 114690,
            "time": 358.40625,
            "velocity": 0.7007874015748031
          },
          {
            "duration": 0.75,
            "durationTicks": 240,
            "midi": 81,
            "name": "A5",
            "ticks": 114720,
            "time": 358.5,
            "velocity": 0.7007874015748031
          },
          {
            "duration": 0.75,
            "durationTicks": 240,
            "midi": 83,
            "name": "B5",
            "ticks": 114960,
            "time": 359.25,
            "velocity": 0.7007874015748031
          },
          {
            "duration": 1.46875,
            "durationTicks": 470,
            "midi": 77,
            "name": "F5",
            "ticks": 115200,
            "time": 360,
            "velocity": 0.7007874015748031
          },
          {
            "duration": 0.7375000000000114,
            "durationTicks": 236,
            "midi": 73,
            "name": "C#5",
            "ticks": 115680,
            "time": 361.5,
            "velocity": 0.7007874015748031
          },
          {
            "duration": 2.2062500000000114,
            "durationTicks": 706,
            "midi": 81,
            "name": "A5",
            "ticks": 115920,
            "time": 362.25,
            "velocity": 0.7086614173228346
          },
          {
            "duration": 2.2062500000000114,
            "durationTicks": 706,
            "midi": 87,
            "name": "D#6",
            "ticks": 116640,
            "time": 364.5,
            "velocity": 0.7086614173228346
          },
          {
            "duration": 2.2062500000000114,
            "durationTicks": 706,
            "midi": 80,
            "name": "G#5",
            "ticks": 117360,
            "time": 366.75,
            "velocity": 0.7086614173228346
          },
          {
            "duration": 2.2062500000000114,
            "durationTicks": 706,
            "midi": 85,
            "name": "C#6",
            "ticks": 118080,
            "time": 369,
            "velocity": 0.7086614173228346
          },
          {
            "duration": 2.2062500000000114,
            "durationTicks": 706,
            "midi": 78,
            "name": "F#5",
            "ticks": 118800,
            "time": 371.25,
            "velocity": 0.7086614173228346
          },
          {
            "duration": 1.099999999999966,
            "durationTicks": 352,
            "midi": 83,
            "name": "B5",
            "ticks": 119520,
            "time": 373.5,
            "velocity": 0.7086614173228346
          },
          {
            "duration": 0.18124999999997726,
            "durationTicks": 58,
            "midi": 85,
            "name": "C#6",
            "ticks": 119880,
            "time": 374.625,
            "velocity": 0.7086614173228346
          },
          {
            "duration": 0.18124999999997726,
            "durationTicks": 58,
            "midi": 86,
            "name": "D6",
            "ticks": 119940,
            "time": 374.8125,
            "velocity": 0.7086614173228346
          },
          {
            "duration": 0.18124999999997726,
            "durationTicks": 58,
            "midi": 85,
            "name": "C#6",
            "ticks": 120000,
            "time": 375,
            "velocity": 0.7086614173228346
          },
          {
            "duration": 0.18124999999997726,
            "durationTicks": 58,
            "midi": 83,
            "name": "B5",
            "ticks": 120060,
            "time": 375.1875,
            "velocity": 0.7086614173228346
          },
          {
            "duration": 0.18124999999997726,
            "durationTicks": 58,
            "midi": 81,
            "name": "A5",
            "ticks": 120120,
            "time": 375.375,
            "velocity": 0.7086614173228346
          },
          {
            "duration": 0.18124999999997726,
            "durationTicks": 58,
            "midi": 80,
            "name": "G#5",
            "ticks": 120180,
            "time": 375.5625,
            "velocity": 0.7086614173228346
          },
          {
            "duration": 0.36874999999997726,
            "durationTicks": 118,
            "midi": 78,
            "name": "F#5",
            "ticks": 120240,
            "time": 375.75,
            "velocity": 0.7086614173228346
          },
          {
            "duration": 0.36874999999997726,
            "durationTicks": 118,
            "midi": 77,
            "name": "F5",
            "ticks": 120360,
            "time": 376.125,
            "velocity": 0.7086614173228346
          },
          {
            "duration": 0.7375000000000114,
            "durationTicks": 236,
            "midi": 83,
            "name": "B5",
            "ticks": 120480,
            "time": 376.5,
            "velocity": 0.7086614173228346
          },
          {
            "duration": 0.7375000000000114,
            "durationTicks": 236,
            "midi": 77,
            "name": "F5",
            "ticks": 120720,
            "time": 377.25,
            "velocity": 0.6377952755905512
          },
          {
            "duration": 1.2000000000000455,
            "durationTicks": 384,
            "midi": 78,
            "name": "F#5",
            "ticks": 120960,
            "time": 378,
            "velocity": 0.5905511811023622
          },
          {
            "duration": 2.206250000000068,
            "durationTicks": 706,
            "midi": 78,
            "name": "F#5",
            "ticks": 122400,
            "time": 382.5,
            "velocity": 0.6299212598425197
          },
          {
            "duration": 2.206250000000068,
            "durationTicks": 706,
            "midi": 69,
            "name": "A4",
            "ticks": 123120,
            "time": 384.75,
            "velocity": 0.6299212598425197
          },
          {
            "duration": 3.71875,
            "durationTicks": 1190,
            "midi": 68,
            "name": "G#4",
            "ticks": 123840,
            "time": 387,
            "velocity": 0.6220472440944882
          },
          {
            "duration": 0.4500000000000455,
            "durationTicks": 144,
            "midi": 86,
            "name": "D6",
            "ticks": 125040,
            "time": 390.75,
            "velocity": 0.6771653543307087
          },
          {
            "duration": 2.206250000000068,
            "durationTicks": 706,
            "midi": 85,
            "name": "C#6",
            "ticks": 125280,
            "time": 391.5,
            "velocity": 0.6850393700787402
          },
          {
            "duration": 2.206250000000068,
            "durationTicks": 706,
            "midi": 77,
            "name": "F5",
            "ticks": 126000,
            "time": 393.75,
            "velocity": 0.6377952755905512
          },
          {
            "duration": 1.2000000000000455,
            "durationTicks": 384,
            "midi": 78,
            "name": "F#5",
            "ticks": 126720,
            "time": 396,
            "velocity": 0.5905511811023622
          },
          {
            "duration": 2.206250000000068,
            "durationTicks": 706,
            "midi": 78,
            "name": "F#5",
            "ticks": 128160,
            "time": 400.5,
            "velocity": 0.6929133858267716
          },
          {
            "duration": 2.206250000000068,
            "durationTicks": 706,
            "midi": 57,
            "name": "A3",
            "ticks": 128880,
            "time": 402.75,
            "velocity": 0.6929133858267716
          },
          {
            "duration": 3.71875,
            "durationTicks": 1190,
            "midi": 55,
            "name": "G3",
            "ticks": 129600,
            "time": 405,
            "velocity": 0.6929133858267716
          },
          {
            "duration": 0.4500000000000455,
            "durationTicks": 144,
            "midi": 86,
            "name": "D6",
            "ticks": 130800,
            "time": 408.75,
            "velocity": 0.7165354330708661
          },
          {
            "duration": 1.7999999999999545,
            "durationTicks": 576,
            "midi": 85,
            "name": "C#6",
            "ticks": 131040,
            "time": 409.5,
            "velocity": 0.7322834645669292
          },
          {
            "duration": 1.7999999999999545,
            "durationTicks": 576,
            "midi": 77,
            "name": "F5",
            "ticks": 131760,
            "time": 411.75,
            "velocity": 0.6850393700787402
          },
          {
            "duration": 1.2000000000000455,
            "durationTicks": 384,
            "midi": 78,
            "name": "F#5",
            "ticks": 132480,
            "time": 414,
            "velocity": 0.6299212598425197
          },
          {
            "duration": 0.375,
            "durationTicks": 120,
            "midi": 73,
            "name": "C#5",
            "ticks": 134760,
            "time": 421.125,
            "velocity": 0.6299212598425197
          },
          {
            "duration": 0.2249999999999659,
            "durationTicks": 72,
            "midi": 85,
            "name": "C#6",
            "ticks": 134880,
            "time": 421.5,
            "velocity": 0.6377952755905512
          },
          {
            "duration": 0.2249999999999659,
            "durationTicks": 72,
            "midi": 85,
            "name": "C#6",
            "ticks": 135000,
            "time": 421.875,
            "velocity": 0.6456692913385826
          },
          {
            "duration": 0.2249999999999659,
            "durationTicks": 72,
            "midi": 85,
            "name": "C#6",
            "ticks": 135120,
            "time": 422.25,
            "velocity": 0.6535433070866141
          },
          {
            "duration": 0.2249999999999659,
            "durationTicks": 72,
            "midi": 85,
            "name": "C#6",
            "ticks": 135240,
            "time": 422.625,
            "velocity": 0.6614173228346457
          },
          {
            "duration": 1.125,
            "durationTicks": 360,
            "midi": 85,
            "name": "C#6",
            "ticks": 135360,
            "time": 423,
            "velocity": 0.6692913385826772
          },
          {
            "duration": 0.375,
            "durationTicks": 120,
            "midi": 81,
            "name": "A5",
            "ticks": 135720,
            "time": 424.125,
            "velocity": 0.6299212598425197
          },
          {
            "duration": 0.5999999999999659,
            "durationTicks": 192,
            "midi": 78,
            "name": "F#5",
            "ticks": 135840,
            "time": 424.5,
            "velocity": 0.6141732283464567
          },
          {
            "duration": 0.375,
            "durationTicks": 120,
            "midi": 73,
            "name": "C#5",
            "ticks": 137640,
            "time": 430.125,
            "velocity": 0.6220472440944882
          },
          {
            "duration": 0.2249999999999659,
            "durationTicks": 72,
            "midi": 85,
            "name": "C#6",
            "ticks": 137760,
            "time": 430.5,
            "velocity": 0.6377952755905512
          },
          {
            "duration": 0.2249999999999659,
            "durationTicks": 72,
            "midi": 85,
            "name": "C#6",
            "ticks": 137880,
            "time": 430.875,
            "velocity": 0.6456692913385826
          },
          {
            "duration": 0.2249999999999659,
            "durationTicks": 72,
            "midi": 85,
            "name": "C#6",
            "ticks": 138000,
            "time": 431.25,
            "velocity": 0.6535433070866141
          },
          {
            "duration": 0.2249999999999659,
            "durationTicks": 72,
            "midi": 85,
            "name": "C#6",
            "ticks": 138120,
            "time": 431.625,
            "velocity": 0.6614173228346457
          },
          {
            "duration": 1.125,
            "durationTicks": 360,
            "midi": 85,
            "name": "C#6",
            "ticks": 138240,
            "time": 432,
            "velocity": 0.6614173228346457
          },
          {
            "duration": 0.375,
            "durationTicks": 120,
            "midi": 81,
            "name": "A5",
            "ticks": 138600,
            "time": 433.125,
            "velocity": 0.6220472440944882
          },
          {
            "duration": 0.5999999999999659,
            "durationTicks": 192,
            "midi": 78,
            "name": "F#5",
            "ticks": 138720,
            "time": 433.5,
            "velocity": 0.6141732283464567
          },
          {
            "duration": 0.375,
            "durationTicks": 120,
            "midi": 73,
            "name": "C#5",
            "ticks": 139800,
            "time": 436.875,
            "velocity": 0.6220472440944882
          },
          {
            "duration": 0.2249999999999659,
            "durationTicks": 72,
            "midi": 85,
            "name": "C#6",
            "ticks": 139920,
            "time": 437.25,
            "velocity": 0.6220472440944882
          },
          {
            "duration": 0.2249999999999659,
            "durationTicks": 72,
            "midi": 85,
            "name": "C#6",
            "ticks": 140040,
            "time": 437.625,
            "velocity": 0.6299212598425197
          },
          {
            "duration": 0.2249999999999659,
            "durationTicks": 72,
            "midi": 85,
            "name": "C#6",
            "ticks": 140160,
            "time": 438,
            "velocity": 0.6377952755905512
          },
          {
            "duration": 0.2249999999999659,
            "durationTicks": 72,
            "midi": 85,
            "name": "C#6",
            "ticks": 140280,
            "time": 438.375,
            "velocity": 0.6377952755905512
          },
          {
            "duration": 0.2249999999999659,
            "durationTicks": 72,
            "midi": 85,
            "name": "C#6",
            "ticks": 140400,
            "time": 438.75,
            "velocity": 0.6456692913385826
          },
          {
            "duration": 0.2249999999999659,
            "durationTicks": 72,
            "midi": 85,
            "name": "C#6",
            "ticks": 140520,
            "time": 439.125,
            "velocity": 0.6535433070866141
          },
          {
            "duration": 0.2249999999999659,
            "durationTicks": 72,
            "midi": 85,
            "name": "C#6",
            "ticks": 140640,
            "time": 439.5,
            "velocity": 0.6299212598425197
          },
          {
            "duration": 0.2249999999999659,
            "durationTicks": 72,
            "midi": 85,
            "name": "C#6",
            "ticks": 140760,
            "time": 439.875,
            "velocity": 0.6062992125984252
          },
          {
            "duration": 0.2249999999999659,
            "durationTicks": 72,
            "midi": 85,
            "name": "C#6",
            "ticks": 140880,
            "time": 440.25,
            "velocity": 0.5905511811023622
          },
          {
            "duration": 0.2249999999999659,
            "durationTicks": 72,
            "midi": 85,
            "name": "C#6",
            "ticks": 141000,
            "time": 440.625,
            "velocity": 0.5669291338582677
          },
          {
            "duration": 0.5999999999999659,
            "durationTicks": 192,
            "midi": 78,
            "name": "F#5",
            "ticks": 141120,
            "time": 441,
            "velocity": 0.5511811023622047
          },
          {
            "duration": 0.75,
            "durationTicks": 240,
            "midi": 81,
            "name": "A5",
            "ticks": 141600,
            "time": 442.5,
            "velocity": 0.5433070866141733
          },
          {
            "duration": 0.5999999999999659,
            "durationTicks": 192,
            "midi": 78,
            "name": "F#5",
            "ticks": 141840,
            "time": 443.25,
            "velocity": 0.49606299212598426
          },
          {
            "duration": 0.75,
            "durationTicks": 240,
            "midi": 81,
            "name": "A5",
            "ticks": 142320,
            "time": 444.75,
            "velocity": 0.5275590551181102
          },
          {
            "duration": 0.5625,
            "durationTicks": 180,
            "midi": 78,
            "name": "F#5",
            "ticks": 142560,
            "time": 445.5,
            "velocity": 0.47244094488188976
          }
        ],
        "endOfTrackTicks": 144000
      },
      {
        "channel": 6,
        "controlChanges": {
          "7": [
            {
              "number": 7,
              "ticks": 0,
              "time": 0,
              "value": 0.9606299212598425
            }
          ],
          "91": [
            {
              "number": 91,
              "ticks": 0,
              "time": 0,
              "value": 0.7874015748031497
            },
            {
              "number": 91,
              "ticks": 0,
              "time": 0,
              "value": 0.7874015748031497
            }
          ]
        },
        "pitchBends": [],
        "instrument": {
          "family": "piano",
          "number": 0,
          "name": "acoustic grand piano"
        },
        "name": "Piano Concerto n23 K488 2mov",
        "notes": [
          {
            "duration": 1.46875,
            "durationTicks": 470,
            "midi": 54,
            "name": "F#3",
            "ticks": 1440,
            "time": 4.5,
            "velocity": 0.47244094488188976
          },
          {
            "duration": 1.46875,
            "durationTicks": 470,
            "midi": 57,
            "name": "A3",
            "ticks": 1440,
            "time": 4.5,
            "velocity": 0.47244094488188976
          },
          {
            "duration": 0.7374999999999989,
            "durationTicks": 236,
            "midi": 54,
            "name": "F#3",
            "ticks": 1920,
            "time": 6,
            "velocity": 0.47244094488188976
          },
          {
            "duration": 0.7374999999999989,
            "durationTicks": 236,
            "midi": 57,
            "name": "A3",
            "ticks": 1920,
            "time": 6,
            "velocity": 0.47244094488188976
          },
          {
            "duration": 1.46875,
            "durationTicks": 470,
            "midi": 54,
            "name": "F#3",
            "ticks": 2160,
            "time": 6.75,
            "velocity": 0.47244094488188976
          },
          {
            "duration": 1.46875,
            "durationTicks": 470,
            "midi": 57,
            "name": "A3",
            "ticks": 2160,
            "time": 6.75,
            "velocity": 0.47244094488188976
          },
          {
            "duration": 0.7374999999999989,
            "durationTicks": 236,
            "midi": 54,
            "name": "F#3",
            "ticks": 2640,
            "time": 8.25,
            "velocity": 0.47244094488188976
          },
          {
            "duration": 0.7374999999999989,
            "durationTicks": 236,
            "midi": 61,
            "name": "C#4",
            "ticks": 2640,
            "time": 8.25,
            "velocity": 0.47244094488188976
          },
          {
            "duration": 2.2062500000000007,
            "durationTicks": 706,
            "midi": 54,
            "name": "F#3",
            "ticks": 2880,
            "time": 9,
            "velocity": 0.47244094488188976
          },
          {
            "duration": 2.2062500000000007,
            "durationTicks": 706,
            "midi": 62,
            "name": "D4",
            "ticks": 2880,
            "time": 9,
            "velocity": 0.47244094488188976
          },
          {
            "duration": 0.7374999999999989,
            "durationTicks": 236,
            "midi": 41,
            "name": "F2",
            "ticks": 3600,
            "time": 11.25,
            "velocity": 0.47244094488188976
          },
          {
            "duration": 0.7375000000000007,
            "durationTicks": 236,
            "midi": 53,
            "name": "F3",
            "ticks": 4080,
            "time": 12.75,
            "velocity": 0.47244094488188976
          },
          {
            "duration": 0.7375000000000007,
            "durationTicks": 236,
            "midi": 61,
            "name": "C#4",
            "ticks": 4080,
            "time": 12.75,
            "velocity": 0.47244094488188976
          },
          {
            "duration": 1.46875,
            "durationTicks": 470,
            "midi": 54,
            "name": "F#3",
            "ticks": 4320,
            "time": 13.5,
            "velocity": 0.47244094488188976
          },
          {
            "duration": 1.46875,
            "durationTicks": 470,
            "midi": 61,
            "name": "C#4",
            "ticks": 4320,
            "time": 13.5,
            "velocity": 0.47244094488188976
          },
          {
            "duration": 0.7375000000000007,
            "durationTicks": 236,
            "midi": 45,
            "name": "A2",
            "ticks": 4800,
            "time": 15,
            "velocity": 0.47244094488188976
          },
          {
            "duration": 0.7375000000000007,
            "durationTicks": 236,
            "midi": 49,
            "name": "C#3",
            "ticks": 4800,
            "time": 15,
            "velocity": 0.47244094488188976
          },
          {
            "duration": 2.2375000000000007,
            "durationTicks": 716,
            "midi": 47,
            "name": "B2",
            "ticks": 5040,
            "time": 15.75,
            "velocity": 0.47244094488188976
          },
          {
            "duration": 1.46875,
            "durationTicks": 470,
            "midi": 50,
            "name": "D3",
            "ticks": 5040,
            "time": 15.75,
            "velocity": 0.47244094488188976
          },
          {
            "duration": 0.7375000000000007,
            "durationTicks": 236,
            "midi": 59,
            "name": "B3",
            "ticks": 5520,
            "time": 17.25,
            "velocity": 0.47244094488188976
          },
          {
            "duration": 2.9875000000000007,
            "durationTicks": 956,
            "midi": 49,
            "name": "C#3",
            "ticks": 5760,
            "time": 18,
            "velocity": 0.4566929133858268
          },
          {
            "duration": 2.2062500000000007,
            "durationTicks": 706,
            "midi": 57,
            "name": "A3",
            "ticks": 5760,
            "time": 18,
            "velocity": 0.4566929133858268
          },
          {
            "duration": 0.7375000000000007,
            "durationTicks": 236,
            "midi": 56,
            "name": "G#3",
            "ticks": 6480,
            "time": 20.25,
            "velocity": 0.4251968503937008
          },
          {
            "duration": 1.46875,
            "durationTicks": 470,
            "midi": 54,
            "name": "F#3",
            "ticks": 7200,
            "time": 22.5,
            "velocity": 0.47244094488188976
          },
          {
            "duration": 1.46875,
            "durationTicks": 470,
            "midi": 57,
            "name": "A3",
            "ticks": 7200,
            "time": 22.5,
            "velocity": 0.47244094488188976
          },
          {
            "duration": 0.7375000000000007,
            "durationTicks": 236,
            "midi": 54,
            "name": "F#3",
            "ticks": 7680,
            "time": 24,
            "velocity": 0.47244094488188976
          },
          {
            "duration": 0.7375000000000007,
            "durationTicks": 236,
            "midi": 57,
            "name": "A3",
            "ticks": 7680,
            "time": 24,
            "velocity": 0.47244094488188976
          },
          {
            "duration": 1.46875,
            "durationTicks": 470,
            "midi": 56,
            "name": "G#3",
            "ticks": 7920,
            "time": 24.75,
            "velocity": 0.47244094488188976
          },
          {
            "duration": 1.46875,
            "durationTicks": 470,
            "midi": 59,
            "name": "B3",
            "ticks": 7920,
            "time": 24.75,
            "velocity": 0.47244094488188976
          },
          {
            "duration": 0.7375000000000007,
            "durationTicks": 236,
            "midi": 56,
            "name": "G#3",
            "ticks": 8400,
            "time": 26.25,
            "velocity": 0.47244094488188976
          },
          {
            "duration": 0.7375000000000007,
            "durationTicks": 236,
            "midi": 59,
            "name": "B3",
            "ticks": 8400,
            "time": 26.25,
            "velocity": 0.47244094488188976
          },
          {
            "duration": 1.46875,
            "durationTicks": 470,
            "midi": 57,
            "name": "A3",
            "ticks": 8640,
            "time": 27,
            "velocity": 0.47244094488188976
          },
          {
            "duration": 1.46875,
            "durationTicks": 470,
            "midi": 64,
            "name": "E4",
            "ticks": 8640,
            "time": 27,
            "velocity": 0.47244094488188976
          },
          {
            "duration": 0.7375000000000007,
            "durationTicks": 236,
            "midi": 57,
            "name": "A3",
            "ticks": 9120,
            "time": 28.5,
            "velocity": 0.47244094488188976
          },
          {
            "duration": 0.7375000000000007,
            "durationTicks": 236,
            "midi": 64,
            "name": "E4",
            "ticks": 9120,
            "time": 28.5,
            "velocity": 0.47244094488188976
          },
          {
            "duration": 1.46875,
            "durationTicks": 470,
            "midi": 54,
            "name": "F#3",
            "ticks": 9360,
            "time": 29.25,
            "velocity": 0.47244094488188976
          },
          {
            "duration": 1.46875,
            "durationTicks": 470,
            "midi": 57,
            "name": "A3",
            "ticks": 9360,
            "time": 29.25,
            "velocity": 0.47244094488188976
          },
          {
            "duration": 0.7375000000000007,
            "durationTicks": 236,
            "midi": 54,
            "name": "F#3",
            "ticks": 9840,
            "time": 30.75,
            "velocity": 0.47244094488188976
          },
          {
            "duration": 0.7375000000000007,
            "durationTicks": 236,
            "midi": 57,
            "name": "A3",
            "ticks": 9840,
            "time": 30.75,
            "velocity": 0.47244094488188976
          },
          {
            "duration": 1.46875,
            "durationTicks": 470,
            "midi": 51,
            "name": "D#3",
            "ticks": 10080,
            "time": 31.5,
            "velocity": 0.47244094488188976
          },
          {
            "duration": 1.46875,
            "durationTicks": 470,
            "midi": 57,
            "name": "A3",
            "ticks": 10080,
            "time": 31.5,
            "velocity": 0.47244094488188976
          },
          {
            "duration": 0.7374999999999972,
            "durationTicks": 236,
            "midi": 51,
            "name": "D#3",
            "ticks": 10560,
            "time": 33,
            "velocity": 0.48031496062992124
          },
          {
            "duration": 0.7374999999999972,
            "durationTicks": 236,
            "midi": 57,
            "name": "A3",
            "ticks": 10560,
            "time": 33,
            "velocity": 0.48031496062992124
          },
          {
            "duration": 1.46875,
            "durationTicks": 470,
            "midi": 53,
            "name": "F3",
            "ticks": 10800,
            "time": 33.75,
            "velocity": 0.4881889763779528
          },
          {
            "duration": 1.46875,
            "durationTicks": 470,
            "midi": 56,
            "name": "G#3",
            "ticks": 10800,
            "time": 33.75,
            "velocity": 0.4881889763779528
          },
          {
            "duration": 0.7374999999999972,
            "durationTicks": 236,
            "midi": 53,
            "name": "F3",
            "ticks": 11280,
            "time": 35.25,
            "velocity": 0.47244094488188976
          },
          {
            "duration": 0.7374999999999972,
            "durationTicks": 236,
            "midi": 56,
            "name": "G#3",
            "ticks": 11280,
            "time": 35.25,
            "velocity": 0.47244094488188976
          },
          {
            "duration": 1.46875,
            "durationTicks": 470,
            "midi": 54,
            "name": "F#3",
            "ticks": 11520,
            "time": 36,
            "velocity": 0.4645669291338583
          },
          {
            "duration": 1.46875,
            "durationTicks": 470,
            "midi": 61,
            "name": "C#4",
            "ticks": 11520,
            "time": 36,
            "velocity": 0.4645669291338583
          },
          {
            "duration": 0.7374999999999972,
            "durationTicks": 236,
            "midi": 54,
            "name": "F#3",
            "ticks": 12000,
            "time": 37.5,
            "velocity": 0.4645669291338583
          },
          {
            "duration": 0.7374999999999972,
            "durationTicks": 236,
            "midi": 61,
            "name": "C#4",
            "ticks": 12000,
            "time": 37.5,
            "velocity": 0.4645669291338583
          },
          {
            "duration": 1.46875,
            "durationTicks": 470,
            "midi": 50,
            "name": "D3",
            "ticks": 12240,
            "time": 38.25,
            "velocity": 0.4645669291338583
          },
          {
            "duration": 1.46875,
            "durationTicks": 470,
            "midi": 54,
            "name": "F#3",
            "ticks": 12240,
            "time": 38.25,
            "velocity": 0.4645669291338583
          },
          {
            "duration": 0.7374999999999972,
            "durationTicks": 236,
            "midi": 50,
            "name": "D3",
            "ticks": 12720,
            "time": 39.75,
            "velocity": 0.44881889763779526
          },
          {
            "duration": 0.7374999999999972,
            "durationTicks": 236,
            "midi": 54,
            "name": "F#3",
            "ticks": 12720,
            "time": 39.75,
            "velocity": 0.44881889763779526
          },
          {
            "duration": 1.46875,
            "durationTicks": 470,
            "midi": 47,
            "name": "B2",
            "ticks": 12960,
            "time": 40.5,
            "velocity": 0.44881889763779526
          },
          {
            "duration": 1.46875,
            "durationTicks": 470,
            "midi": 50,
            "name": "D3",
            "ticks": 12960,
            "time": 40.5,
            "velocity": 0.44881889763779526
          },
          {
            "duration": 1.46875,
            "durationTicks": 470,
            "midi": 55,
            "name": "G3",
            "ticks": 12960,
            "time": 40.5,
            "velocity": 0.44881889763779526
          },
          {
            "duration": 0.7374999999999972,
            "durationTicks": 236,
            "midi": 47,
            "name": "B2",
            "ticks": 13440,
            "time": 42,
            "velocity": 0.4330708661417323
          },
          {
            "duration": 0.7374999999999972,
            "durationTicks": 236,
            "midi": 50,
            "name": "D3",
            "ticks": 13440,
            "time": 42,
            "velocity": 0.4330708661417323
          },
          {
            "duration": 0.7374999999999972,
            "durationTicks": 236,
            "midi": 55,
            "name": "G3",
            "ticks": 13440,
            "time": 42,
            "velocity": 0.4330708661417323
          },
          {
            "duration": 1.46875,
            "durationTicks": 470,
            "midi": 47,
            "name": "B2",
            "ticks": 13680,
            "time": 42.75,
            "velocity": 0.4330708661417323
          },
          {
            "duration": 1.46875,
            "durationTicks": 470,
            "midi": 50,
            "name": "D3",
            "ticks": 13680,
            "time": 42.75,
            "velocity": 0.4330708661417323
          },
          {
            "duration": 1.46875,
            "durationTicks": 470,
            "midi": 55,
            "name": "G3",
            "ticks": 13680,
            "time": 42.75,
            "velocity": 0.4330708661417323
          },
          {
            "duration": 0.7374999999999972,
            "durationTicks": 236,
            "midi": 47,
            "name": "B2",
            "ticks": 14160,
            "time": 44.25,
            "velocity": 0.41732283464566927
          },
          {
            "duration": 0.7374999999999972,
            "durationTicks": 236,
            "midi": 50,
            "name": "D3",
            "ticks": 14160,
            "time": 44.25,
            "velocity": 0.41732283464566927
          },
          {
            "duration": 0.7374999999999972,
            "durationTicks": 236,
            "midi": 55,
            "name": "G3",
            "ticks": 14160,
            "time": 44.25,
            "velocity": 0.41732283464566927
          },
          {
            "duration": 1.46875,
            "durationTicks": 470,
            "midi": 47,
            "name": "B2",
            "ticks": 14400,
            "time": 45,
            "velocity": 0.4251968503937008
          },
          {
            "duration": 1.46875,
            "durationTicks": 470,
            "midi": 50,
            "name": "D3",
            "ticks": 14400,
            "time": 45,
            "velocity": 0.4251968503937008
          },
          {
            "duration": 1.46875,
            "durationTicks": 470,
            "midi": 55,
            "name": "G3",
            "ticks": 14400,
            "time": 45,
            "velocity": 0.4251968503937008
          },
          {
            "duration": 1.46875,
            "durationTicks": 470,
            "midi": 49,
            "name": "C#3",
            "ticks": 15840,
            "time": 49.5,
            "velocity": 0.47244094488188976
          },
          {
            "duration": 1.46875,
            "durationTicks": 470,
            "midi": 57,
            "name": "A3",
            "ticks": 15840,
            "time": 49.5,
            "velocity": 0.47244094488188976
          },
          {
            "duration": 0.7374999999999972,
            "durationTicks": 236,
            "midi": 49,
            "name": "C#3",
            "ticks": 16320,
            "time": 51,
            "velocity": 0.47244094488188976
          },
          {
            "duration": 0.7374999999999972,
            "durationTicks": 236,
            "midi": 57,
            "name": "A3",
            "ticks": 16320,
            "time": 51,
            "velocity": 0.47244094488188976
          },
          {
            "duration": 1.46875,
            "durationTicks": 470,
            "midi": 49,
            "name": "C#3",
            "ticks": 16560,
            "time": 51.75,
            "velocity": 0.47244094488188976
          },
          {
            "duration": 1.5,
            "durationTicks": 480,
            "midi": 61,
            "name": "C#4",
            "ticks": 16560,
            "time": 51.75,
            "velocity": 0.47244094488188976
          },
          {
            "duration": 1.5,
            "durationTicks": 480,
            "midi": 66,
            "name": "F#4",
            "ticks": 16560,
            "time": 51.75,
            "velocity": 0.47244094488188976
          },
          {
            "duration": 0.7374999999999972,
            "durationTicks": 236,
            "midi": 49,
            "name": "C#3",
            "ticks": 17040,
            "time": 53.25,
            "velocity": 0.47244094488188976
          },
          {
            "duration": 0.75,
            "durationTicks": 240,
            "midi": 59,
            "name": "B3",
            "ticks": 17040,
            "time": 53.25,
            "velocity": 0.47244094488188976
          },
          {
            "duration": 0.75,
            "durationTicks": 240,
            "midi": 65,
            "name": "F4",
            "ticks": 17040,
            "time": 53.25,
            "velocity": 0.47244094488188976
          },
          {
            "duration": 0.7374999999999972,
            "durationTicks": 236,
            "midi": 54,
            "name": "F#3",
            "ticks": 17280,
            "time": 54,
            "velocity": 0.47244094488188976
          },
          {
            "duration": 0.7374999999999972,
            "durationTicks": 236,
            "midi": 57,
            "name": "A3",
            "ticks": 17280,
            "time": 54,
            "velocity": 0.47244094488188976
          },
          {
            "duration": 0.7125000000000057,
            "durationTicks": 228,
            "midi": 54,
            "name": "F#3",
            "ticks": 29280,
            "time": 91.5,
            "velocity": 0.47244094488188976
          },
          {
            "duration": 0.7125000000000057,
            "durationTicks": 228,
            "midi": 57,
            "name": "A3",
            "ticks": 29280,
            "time": 91.5,
            "velocity": 0.47244094488188976
          },
          {
            "duration": 1.4250000000000114,
            "durationTicks": 456,
            "midi": 54,
            "name": "F#3",
            "ticks": 29520,
            "time": 92.25,
            "velocity": 0.47244094488188976
          },
          {
            "duration": 1.4250000000000114,
            "durationTicks": 456,
            "midi": 57,
            "name": "A3",
            "ticks": 29520,
            "time": 92.25,
            "velocity": 0.47244094488188976
          },
          {
            "duration": 0.7125000000000057,
            "durationTicks": 228,
            "midi": 54,
            "name": "F#3",
            "ticks": 30000,
            "time": 93.75,
            "velocity": 0.47244094488188976
          },
          {
            "duration": 0.7125000000000057,
            "durationTicks": 228,
            "midi": 57,
            "name": "A3",
            "ticks": 30000,
            "time": 93.75,
            "velocity": 0.47244094488188976
          },
          {
            "duration": 1.4250000000000114,
            "durationTicks": 456,
            "midi": 56,
            "name": "G#3",
            "ticks": 30240,
            "time": 94.5,
            "velocity": 0.47244094488188976
          },
          {
            "duration": 1.4250000000000114,
            "durationTicks": 456,
            "midi": 59,
            "name": "B3",
            "ticks": 30240,
            "time": 94.5,
            "velocity": 0.47244094488188976
          },
          {
            "duration": 0.7124999999999915,
            "durationTicks": 228,
            "midi": 54,
            "name": "F#3",
            "ticks": 30720,
            "time": 96,
            "velocity": 0.47244094488188976
          },
          {
            "duration": 0.7124999999999915,
            "durationTicks": 228,
            "midi": 57,
            "name": "A3",
            "ticks": 30720,
            "time": 96,
            "velocity": 0.47244094488188976
          },
          {
            "duration": 1.4250000000000114,
            "durationTicks": 456,
            "midi": 53,
            "name": "F3",
            "ticks": 30960,
            "time": 96.75,
            "velocity": 0.47244094488188976
          },
          {
            "duration": 1.4250000000000114,
            "durationTicks": 456,
            "midi": 56,
            "name": "G#3",
            "ticks": 30960,
            "time": 96.75,
            "velocity": 0.47244094488188976
          },
          {
            "duration": 0.7124999999999915,
            "durationTicks": 228,
            "midi": 53,
            "name": "F3",
            "ticks": 31440,
            "time": 98.25,
            "velocity": 0.47244094488188976
          },
          {
            "duration": 0.7124999999999915,
            "durationTicks": 228,
            "midi": 56,
            "name": "G#3",
            "ticks": 31440,
            "time": 98.25,
            "velocity": 0.47244094488188976
          },
          {
            "duration": 1.4250000000000114,
            "durationTicks": 456,
            "midi": 54,
            "name": "F#3",
            "ticks": 31680,
            "time": 99,
            "velocity": 0.47244094488188976
          },
          {
            "duration": 1.4250000000000114,
            "durationTicks": 456,
            "midi": 57,
            "name": "A3",
            "ticks": 31680,
            "time": 99,
            "velocity": 0.47244094488188976
          },
          {
            "duration": 0.7124999999999915,
            "durationTicks": 228,
            "midi": 54,
            "name": "F#3",
            "ticks": 32160,
            "time": 100.5,
            "velocity": 0.47244094488188976
          },
          {
            "duration": 0.7124999999999915,
            "durationTicks": 228,
            "midi": 57,
            "name": "A3",
            "ticks": 32160,
            "time": 100.5,
            "velocity": 0.47244094488188976
          },
          {
            "duration": 1.4250000000000114,
            "durationTicks": 456,
            "midi": 54,
            "name": "F#3",
            "ticks": 32400,
            "time": 101.25,
            "velocity": 0.47244094488188976
          },
          {
            "duration": 1.4250000000000114,
            "durationTicks": 456,
            "midi": 57,
            "name": "A3",
            "ticks": 32400,
            "time": 101.25,
            "velocity": 0.47244094488188976
          },
          {
            "duration": 0.7124999999999915,
            "durationTicks": 228,
            "midi": 54,
            "name": "F#3",
            "ticks": 32880,
            "time": 102.75,
            "velocity": 0.47244094488188976
          },
          {
            "duration": 0.7124999999999915,
            "durationTicks": 228,
            "midi": 57,
            "name": "A3",
            "ticks": 32880,
            "time": 102.75,
            "velocity": 0.47244094488188976
          },
          {
            "duration": 1.4250000000000114,
            "durationTicks": 456,
            "midi": 56,
            "name": "G#3",
            "ticks": 33120,
            "time": 103.5,
            "velocity": 0.47244094488188976
          },
          {
            "duration": 1.4250000000000114,
            "durationTicks": 456,
            "midi": 59,
            "name": "B3",
            "ticks": 33120,
            "time": 103.5,
            "velocity": 0.47244094488188976
          },
          {
            "duration": 0.7124999999999915,
            "durationTicks": 228,
            "midi": 54,
            "name": "F#3",
            "ticks": 33600,
            "time": 105,
            "velocity": 0.47244094488188976
          },
          {
            "duration": 0.7124999999999915,
            "durationTicks": 228,
            "midi": 57,
            "name": "A3",
            "ticks": 33600,
            "time": 105,
            "velocity": 0.47244094488188976
          },
          {
            "duration": 1.4250000000000114,
            "durationTicks": 456,
            "midi": 53,
            "name": "F3",
            "ticks": 33840,
            "time": 105.75,
            "velocity": 0.47244094488188976
          },
          {
            "duration": 1.4250000000000114,
            "durationTicks": 456,
            "midi": 56,
            "name": "G#3",
            "ticks": 33840,
            "time": 105.75,
            "velocity": 0.47244094488188976
          },
          {
            "duration": 0.7124999999999915,
            "durationTicks": 228,
            "midi": 53,
            "name": "F3",
            "ticks": 34320,
            "time": 107.25,
            "velocity": 0.47244094488188976
          },
          {
            "duration": 0.7124999999999915,
            "durationTicks": 228,
            "midi": 56,
            "name": "G#3",
            "ticks": 34320,
            "time": 107.25,
            "velocity": 0.47244094488188976
          },
          {
            "duration": 1.4250000000000114,
            "durationTicks": 456,
            "midi": 54,
            "name": "F#3",
            "ticks": 34560,
            "time": 108,
            "velocity": 0.47244094488188976
          },
          {
            "duration": 1.4250000000000114,
            "durationTicks": 456,
            "midi": 57,
            "name": "A3",
            "ticks": 34560,
            "time": 108,
            "velocity": 0.47244094488188976
          },
          {
            "duration": 0.7124999999999915,
            "durationTicks": 228,
            "midi": 54,
            "name": "F#3",
            "ticks": 35040,
            "time": 109.5,
            "velocity": 0.47244094488188976
          },
          {
            "duration": 0.7124999999999915,
            "durationTicks": 228,
            "midi": 57,
            "name": "A3",
            "ticks": 35040,
            "time": 109.5,
            "velocity": 0.47244094488188976
          },
          {
            "duration": 1.4250000000000114,
            "durationTicks": 456,
            "midi": 54,
            "name": "F#3",
            "ticks": 35280,
            "time": 110.25,
            "velocity": 0.47244094488188976
          },
          {
            "duration": 1.4250000000000114,
            "durationTicks": 456,
            "midi": 57,
            "name": "A3",
            "ticks": 35280,
            "time": 110.25,
            "velocity": 0.47244094488188976
          },
          {
            "duration": 0.7124999999999915,
            "durationTicks": 228,
            "midi": 54,
            "name": "F#3",
            "ticks": 35760,
            "time": 111.75,
            "velocity": 0.47244094488188976
          },
          {
            "duration": 0.7124999999999915,
            "durationTicks": 228,
            "midi": 57,
            "name": "A3",
            "ticks": 35760,
            "time": 111.75,
            "velocity": 0.47244094488188976
          },
          {
            "duration": 1.4250000000000114,
            "durationTicks": 456,
            "midi": 56,
            "name": "G#3",
            "ticks": 36000,
            "time": 112.5,
            "velocity": 0.47244094488188976
          },
          {
            "duration": 1.4250000000000114,
            "durationTicks": 456,
            "midi": 59,
            "name": "B3",
            "ticks": 36000,
            "time": 112.5,
            "velocity": 0.47244094488188976
          },
          {
            "duration": 0.7124999999999915,
            "durationTicks": 228,
            "midi": 56,
            "name": "G#3",
            "ticks": 36480,
            "time": 114,
            "velocity": 0.47244094488188976
          },
          {
            "duration": 0.7124999999999915,
            "durationTicks": 228,
            "midi": 59,
            "name": "B3",
            "ticks": 36480,
            "time": 114,
            "velocity": 0.47244094488188976
          },
          {
            "duration": 1.4250000000000114,
            "durationTicks": 456,
            "midi": 56,
            "name": "G#3",
            "ticks": 36720,
            "time": 114.75,
            "velocity": 0.47244094488188976
          },
          {
            "duration": 1.4250000000000114,
            "durationTicks": 456,
            "midi": 59,
            "name": "B3",
            "ticks": 36720,
            "time": 114.75,
            "velocity": 0.47244094488188976
          },
          {
            "duration": 0.7124999999999915,
            "durationTicks": 228,
            "midi": 56,
            "name": "G#3",
            "ticks": 37200,
            "time": 116.25,
            "velocity": 0.47244094488188976
          },
          {
            "duration": 0.7124999999999915,
            "durationTicks": 228,
            "midi": 59,
            "name": "B3",
            "ticks": 37200,
            "time": 116.25,
            "velocity": 0.47244094488188976
          },
          {
            "duration": 1.4250000000000114,
            "durationTicks": 456,
            "midi": 57,
            "name": "A3",
            "ticks": 37440,
            "time": 117,
            "velocity": 0.47244094488188976
          },
          {
            "duration": 0.7124999999999915,
            "durationTicks": 228,
            "midi": 57,
            "name": "A3",
            "ticks": 37920,
            "time": 118.5,
            "velocity": 0.47244094488188976
          },
          {
            "duration": 1.4250000000000114,
            "durationTicks": 456,
            "midi": 49,
            "name": "C#3",
            "ticks": 38160,
            "time": 119.25,
            "velocity": 0.47244094488188976
          },
          {
            "duration": 1.4250000000000114,
            "durationTicks": 456,
            "midi": 57,
            "name": "A3",
            "ticks": 38160,
            "time": 119.25,
            "velocity": 0.47244094488188976
          },
          {
            "duration": 0.7124999999999915,
            "durationTicks": 228,
            "midi": 49,
            "name": "C#3",
            "ticks": 38640,
            "time": 120.75,
            "velocity": 0.47244094488188976
          },
          {
            "duration": 0.7124999999999915,
            "durationTicks": 228,
            "midi": 57,
            "name": "A3",
            "ticks": 38640,
            "time": 120.75,
            "velocity": 0.47244094488188976
          },
          {
            "duration": 1.4250000000000114,
            "durationTicks": 456,
            "midi": 50,
            "name": "D3",
            "ticks": 38880,
            "time": 121.5,
            "velocity": 0.47244094488188976
          },
          {
            "duration": 1.4250000000000114,
            "durationTicks": 456,
            "midi": 54,
            "name": "F#3",
            "ticks": 38880,
            "time": 121.5,
            "velocity": 0.47244094488188976
          },
          {
            "duration": 0.7124999999999915,
            "durationTicks": 228,
            "midi": 50,
            "name": "D3",
            "ticks": 39360,
            "time": 123,
            "velocity": 0.47244094488188976
          },
          {
            "duration": 0.7124999999999915,
            "durationTicks": 228,
            "midi": 54,
            "name": "F#3",
            "ticks": 39360,
            "time": 123,
            "velocity": 0.47244094488188976
          },
          {
            "duration": 1.4250000000000114,
            "durationTicks": 456,
            "midi": 51,
            "name": "D#3",
            "ticks": 39600,
            "time": 123.75,
            "velocity": 0.47244094488188976
          },
          {
            "duration": 1.4250000000000114,
            "durationTicks": 456,
            "midi": 54,
            "name": "F#3",
            "ticks": 39600,
            "time": 123.75,
            "velocity": 0.47244094488188976
          },
          {
            "duration": 0.7124999999999915,
            "durationTicks": 228,
            "midi": 51,
            "name": "D#3",
            "ticks": 40080,
            "time": 125.25,
            "velocity": 0.47244094488188976
          },
          {
            "duration": 0.7124999999999915,
            "durationTicks": 228,
            "midi": 54,
            "name": "F#3",
            "ticks": 40080,
            "time": 125.25,
            "velocity": 0.47244094488188976
          },
          {
            "duration": 1.4250000000000114,
            "durationTicks": 456,
            "midi": 52,
            "name": "E3",
            "ticks": 40320,
            "time": 126,
            "velocity": 0.47244094488188976
          },
          {
            "duration": 1.4250000000000114,
            "durationTicks": 456,
            "midi": 57,
            "name": "A3",
            "ticks": 40320,
            "time": 126,
            "velocity": 0.47244094488188976
          },
          {
            "duration": 0.7124999999999773,
            "durationTicks": 228,
            "midi": 52,
            "name": "E3",
            "ticks": 40800,
            "time": 127.5,
            "velocity": 0.47244094488188976
          },
          {
            "duration": 0.7124999999999773,
            "durationTicks": 228,
            "midi": 56,
            "name": "G#3",
            "ticks": 40800,
            "time": 127.5,
            "velocity": 0.47244094488188976
          },
          {
            "duration": 1.4250000000000114,
            "durationTicks": 456,
            "midi": 52,
            "name": "E3",
            "ticks": 41040,
            "time": 128.25,
            "velocity": 0.47244094488188976
          },
          {
            "duration": 1.4250000000000114,
            "durationTicks": 456,
            "midi": 56,
            "name": "G#3",
            "ticks": 41040,
            "time": 128.25,
            "velocity": 0.47244094488188976
          },
          {
            "duration": 0.7124999999999773,
            "durationTicks": 228,
            "midi": 52,
            "name": "E3",
            "ticks": 41520,
            "time": 129.75,
            "velocity": 0.47244094488188976
          },
          {
            "duration": 0.7124999999999773,
            "durationTicks": 228,
            "midi": 56,
            "name": "G#3",
            "ticks": 41520,
            "time": 129.75,
            "velocity": 0.47244094488188976
          },
          {
            "duration": 1.4250000000000114,
            "durationTicks": 456,
            "midi": 52,
            "name": "E3",
            "ticks": 41760,
            "time": 130.5,
            "velocity": 0.47244094488188976
          },
          {
            "duration": 1.4250000000000114,
            "durationTicks": 456,
            "midi": 57,
            "name": "A3",
            "ticks": 41760,
            "time": 130.5,
            "velocity": 0.47244094488188976
          },
          {
            "duration": 0.7124999999999773,
            "durationTicks": 228,
            "midi": 52,
            "name": "E3",
            "ticks": 42240,
            "time": 132,
            "velocity": 0.47244094488188976
          },
          {
            "duration": 0.7124999999999773,
            "durationTicks": 228,
            "midi": 57,
            "name": "A3",
            "ticks": 42240,
            "time": 132,
            "velocity": 0.47244094488188976
          },
          {
            "duration": 1.4250000000000114,
            "durationTicks": 456,
            "midi": 52,
            "name": "E3",
            "ticks": 42480,
            "time": 132.75,
            "velocity": 0.47244094488188976
          },
          {
            "duration": 1.4250000000000114,
            "durationTicks": 456,
            "midi": 57,
            "name": "A3",
            "ticks": 42480,
            "time": 132.75,
            "velocity": 0.47244094488188976
          },
          {
            "duration": 0.7124999999999773,
            "durationTicks": 228,
            "midi": 52,
            "name": "E3",
            "ticks": 42960,
            "time": 134.25,
            "velocity": 0.47244094488188976
          },
          {
            "duration": 0.7124999999999773,
            "durationTicks": 228,
            "midi": 57,
            "name": "A3",
            "ticks": 42960,
            "time": 134.25,
            "velocity": 0.47244094488188976
          },
          {
            "duration": 1.4250000000000114,
            "durationTicks": 456,
            "midi": 52,
            "name": "E3",
            "ticks": 43200,
            "time": 135,
            "velocity": 0.47244094488188976
          },
          {
            "duration": 1.4250000000000114,
            "durationTicks": 456,
            "midi": 56,
            "name": "G#3",
            "ticks": 43200,
            "time": 135,
            "velocity": 0.47244094488188976
          },
          {
            "duration": 0.7124999999999773,
            "durationTicks": 228,
            "midi": 52,
            "name": "E3",
            "ticks": 43680,
            "time": 136.5,
            "velocity": 0.47244094488188976
          },
          {
            "duration": 0.7124999999999773,
            "durationTicks": 228,
            "midi": 56,
            "name": "G#3",
            "ticks": 43680,
            "time": 136.5,
            "velocity": 0.47244094488188976
          },
          {
            "duration": 1.4250000000000114,
            "durationTicks": 456,
            "midi": 52,
            "name": "E3",
            "ticks": 43920,
            "time": 137.25,
            "velocity": 0.47244094488188976
          },
          {
            "duration": 1.4250000000000114,
            "durationTicks": 456,
            "midi": 56,
            "name": "G#3",
            "ticks": 43920,
            "time": 137.25,
            "velocity": 0.47244094488188976
          },
          {
            "duration": 0.7124999999999773,
            "durationTicks": 228,
            "midi": 52,
            "name": "E3",
            "ticks": 44400,
            "time": 138.75,
            "velocity": 0.5354330708661418
          },
          {
            "duration": 0.7124999999999773,
            "durationTicks": 228,
            "midi": 56,
            "name": "G#3",
            "ticks": 44400,
            "time": 138.75,
            "velocity": 0.5354330708661418
          },
          {
            "duration": 1.4250000000000114,
            "durationTicks": 456,
            "midi": 53,
            "name": "F3",
            "ticks": 44640,
            "time": 139.5,
            "velocity": 0.5669291338582677
          },
          {
            "duration": 1.4250000000000114,
            "durationTicks": 456,
            "midi": 57,
            "name": "A3",
            "ticks": 44640,
            "time": 139.5,
            "velocity": 0.5669291338582677
          },
          {
            "duration": 0.7124999999999773,
            "durationTicks": 228,
            "midi": 53,
            "name": "F3",
            "ticks": 45120,
            "time": 141,
            "velocity": 0.5511811023622047
          },
          {
            "duration": 0.7124999999999773,
            "durationTicks": 228,
            "midi": 57,
            "name": "A3",
            "ticks": 45120,
            "time": 141,
            "velocity": 0.5511811023622047
          },
          {
            "duration": 1.4250000000000114,
            "durationTicks": 456,
            "midi": 53,
            "name": "F3",
            "ticks": 45360,
            "time": 141.75,
            "velocity": 0.5354330708661418
          },
          {
            "duration": 1.4250000000000114,
            "durationTicks": 456,
            "midi": 57,
            "name": "A3",
            "ticks": 45360,
            "time": 141.75,
            "velocity": 0.5354330708661418
          },
          {
            "duration": 0.7124999999999773,
            "durationTicks": 228,
            "midi": 53,
            "name": "F3",
            "ticks": 45840,
            "time": 143.25,
            "velocity": 0.5039370078740157
          },
          {
            "duration": 0.7124999999999773,
            "durationTicks": 228,
            "midi": 57,
            "name": "A3",
            "ticks": 45840,
            "time": 143.25,
            "velocity": 0.5039370078740157
          },
          {
            "duration": 0.75,
            "durationTicks": 240,
            "midi": 52,
            "name": "E3",
            "ticks": 46080,
            "time": 144,
            "velocity": 0.5511811023622047
          },
          {
            "duration": 0.75,
            "durationTicks": 240,
            "midi": 56,
            "name": "G#3",
            "ticks": 46320,
            "time": 144.75,
            "velocity": 0.5511811023622047
          },
          {
            "duration": 0.75,
            "durationTicks": 240,
            "midi": 59,
            "name": "B3",
            "ticks": 46560,
            "time": 145.5,
            "velocity": 0.5511811023622047
          },
          {
            "duration": 0.75,
            "durationTicks": 240,
            "midi": 52,
            "name": "E3",
            "ticks": 46800,
            "time": 146.25,
            "velocity": 0.5511811023622047
          },
          {
            "duration": 0.75,
            "durationTicks": 240,
            "midi": 57,
            "name": "A3",
            "ticks": 47040,
            "time": 147,
            "velocity": 0.5511811023622047
          },
          {
            "duration": 0.75,
            "durationTicks": 240,
            "midi": 60,
            "name": "C4",
            "ticks": 47280,
            "time": 147.75,
            "velocity": 0.5511811023622047
          },
          {
            "duration": 0.75,
            "durationTicks": 240,
            "midi": 52,
            "name": "E3",
            "ticks": 47520,
            "time": 148.5,
            "velocity": 0.5511811023622047
          },
          {
            "duration": 0.75,
            "durationTicks": 240,
            "midi": 56,
            "name": "G#3",
            "ticks": 47760,
            "time": 149.25,
            "velocity": 0.5511811023622047
          },
          {
            "duration": 0.75,
            "durationTicks": 240,
            "midi": 59,
            "name": "B3",
            "ticks": 48000,
            "time": 150,
            "velocity": 0.5511811023622047
          },
          {
            "duration": 0.75,
            "durationTicks": 240,
            "midi": 52,
            "name": "E3",
            "ticks": 48240,
            "time": 150.75,
            "velocity": 0.5511811023622047
          },
          {
            "duration": 0.75,
            "durationTicks": 240,
            "midi": 57,
            "name": "A3",
            "ticks": 48480,
            "time": 151.5,
            "velocity": 0.5511811023622047
          },
          {
            "duration": 0.75,
            "durationTicks": 240,
            "midi": 60,
            "name": "C4",
            "ticks": 48720,
            "time": 152.25,
            "velocity": 0.5511811023622047
          },
          {
            "duration": 1.1999999999999886,
            "durationTicks": 384,
            "midi": 52,
            "name": "E3",
            "ticks": 48960,
            "time": 153,
            "velocity": 0.5511811023622047
          },
          {
            "duration": 0.14999999999997726,
            "durationTicks": 48,
            "midi": 52,
            "name": "E3",
            "ticks": 56160,
            "time": 175.5,
            "velocity": 0.5511811023622047
          },
          {
            "duration": 0.15000000000000568,
            "durationTicks": 48,
            "midi": 57,
            "name": "A3",
            "ticks": 56240,
            "time": 175.75,
            "velocity": 0.5511811023622047
          },
          {
            "duration": 0.15000000000000568,
            "durationTicks": 48,
            "midi": 61,
            "name": "C#4",
            "ticks": 56320,
            "time": 176,
            "velocity": 0.5511811023622047
          },
          {
            "duration": 0.14999999999997726,
            "durationTicks": 48,
            "midi": 64,
            "name": "E4",
            "ticks": 56400,
            "time": 176.25,
            "velocity": 0.5511811023622047
          },
          {
            "duration": 0.15000000000000568,
            "durationTicks": 48,
            "midi": 61,
            "name": "C#4",
            "ticks": 56480,
            "time": 176.5,
            "velocity": 0.5511811023622047
          },
          {
            "duration": 0.15000000000000568,
            "durationTicks": 48,
            "midi": 57,
            "name": "A3",
            "ticks": 56560,
            "time": 176.75,
            "velocity": 0.5511811023622047
          },
          {
            "duration": 0.14999999999997726,
            "durationTicks": 48,
            "midi": 52,
            "name": "E3",
            "ticks": 56640,
            "time": 177,
            "velocity": 0.5511811023622047
          },
          {
            "duration": 0.15000000000000568,
            "durationTicks": 48,
            "midi": 57,
            "name": "A3",
            "ticks": 56720,
            "time": 177.25,
            "velocity": 0.5511811023622047
          },
          {
            "duration": 0.15000000000000568,
            "durationTicks": 48,
            "midi": 61,
            "name": "C#4",
            "ticks": 56800,
            "time": 177.5,
            "velocity": 0.5511811023622047
          },
          {
            "duration": 0.14999999999997726,
            "durationTicks": 48,
            "midi": 52,
            "name": "E3",
            "ticks": 56880,
            "time": 177.75,
            "velocity": 0.5511811023622047
          },
          {
            "duration": 0.15000000000000568,
            "durationTicks": 48,
            "midi": 57,
            "name": "A3",
            "ticks": 56960,
            "time": 178,
            "velocity": 0.5511811023622047
          },
          {
            "duration": 0.15000000000000568,
            "durationTicks": 48,
            "midi": 61,
            "name": "C#4",
            "ticks": 57040,
            "time": 178.25,
            "velocity": 0.5511811023622047
          },
          {
            "duration": 0.14999999999997726,
            "durationTicks": 48,
            "midi": 64,
            "name": "E4",
            "ticks": 57120,
            "time": 178.5,
            "velocity": 0.5511811023622047
          },
          {
            "duration": 0.15000000000000568,
            "durationTicks": 48,
            "midi": 61,
            "name": "C#4",
            "ticks": 57200,
            "time": 178.75,
            "velocity": 0.5511811023622047
          },
          {
            "duration": 0.15000000000000568,
            "durationTicks": 48,
            "midi": 57,
            "name": "A3",
            "ticks": 57280,
            "time": 179,
            "velocity": 0.5511811023622047
          },
          {
            "duration": 0.14999999999997726,
            "durationTicks": 48,
            "midi": 52,
            "name": "E3",
            "ticks": 57360,
            "time": 179.25,
            "velocity": 0.5511811023622047
          },
          {
            "duration": 0.15000000000000568,
            "durationTicks": 48,
            "midi": 57,
            "name": "A3",
            "ticks": 57440,
            "time": 179.5,
            "velocity": 0.5511811023622047
          },
          {
            "duration": 0.15000000000000568,
            "durationTicks": 48,
            "midi": 61,
            "name": "C#4",
            "ticks": 57520,
            "time": 179.75,
            "velocity": 0.5511811023622047
          },
          {
            "duration": 0.14999999999997726,
            "durationTicks": 48,
            "midi": 52,
            "name": "E3",
            "ticks": 57600,
            "time": 180,
            "velocity": 0.5511811023622047
          },
          {
            "duration": 0.15000000000000568,
            "durationTicks": 48,
            "midi": 56,
            "name": "G#3",
            "ticks": 57680,
            "time": 180.25,
            "velocity": 0.5511811023622047
          },
          {
            "duration": 0.15000000000000568,
            "durationTicks": 48,
            "midi": 59,
            "name": "B3",
            "ticks": 57760,
            "time": 180.5,
            "velocity": 0.5511811023622047
          },
          {
            "duration": 0.14999999999997726,
            "durationTicks": 48,
            "midi": 64,
            "name": "E4",
            "ticks": 57840,
            "time": 180.75,
            "velocity": 0.5511811023622047
          },
          {
            "duration": 0.15000000000000568,
            "durationTicks": 48,
            "midi": 59,
            "name": "B3",
            "ticks": 57920,
            "time": 181,
            "velocity": 0.5511811023622047
          },
          {
            "duration": 0.15000000000000568,
            "durationTicks": 48,
            "midi": 56,
            "name": "G#3",
            "ticks": 58000,
            "time": 181.25,
            "velocity": 0.5511811023622047
          },
          {
            "duration": 0.14999999999997726,
            "durationTicks": 48,
            "midi": 52,
            "name": "E3",
            "ticks": 58080,
            "time": 181.5,
            "velocity": 0.5511811023622047
          },
          {
            "duration": 0.15000000000000568,
            "durationTicks": 48,
            "midi": 56,
            "name": "G#3",
            "ticks": 58160,
            "time": 181.75,
            "velocity": 0.5511811023622047
          },
          {
            "duration": 0.15000000000000568,
            "durationTicks": 48,
            "midi": 59,
            "name": "B3",
            "ticks": 58240,
            "time": 182,
            "velocity": 0.5511811023622047
          },
          {
            "duration": 0.14999999999997726,
            "durationTicks": 48,
            "midi": 52,
            "name": "E3",
            "ticks": 58320,
            "time": 182.25,
            "velocity": 0.5511811023622047
          },
          {
            "duration": 0.15000000000000568,
            "durationTicks": 48,
            "midi": 56,
            "name": "G#3",
            "ticks": 58400,
            "time": 182.5,
            "velocity": 0.5511811023622047
          },
          {
            "duration": 0.15000000000000568,
            "durationTicks": 48,
            "midi": 59,
            "name": "B3",
            "ticks": 58480,
            "time": 182.75,
            "velocity": 0.5511811023622047
          },
          {
            "duration": 0.14999999999997726,
            "durationTicks": 48,
            "midi": 64,
            "name": "E4",
            "ticks": 58560,
            "time": 183,
            "velocity": 0.5511811023622047
          },
          {
            "duration": 0.15000000000000568,
            "durationTicks": 48,
            "midi": 59,
            "name": "B3",
            "ticks": 58640,
            "time": 183.25,
            "velocity": 0.5511811023622047
          },
          {
            "duration": 0.15000000000000568,
            "durationTicks": 48,
            "midi": 56,
            "name": "G#3",
            "ticks": 58720,
            "time": 183.5,
            "velocity": 0.5511811023622047
          },
          {
            "duration": 0.14999999999997726,
            "durationTicks": 48,
            "midi": 52,
            "name": "E3",
            "ticks": 58800,
            "time": 183.75,
            "velocity": 0.5511811023622047
          },
          {
            "duration": 0.15000000000000568,
            "durationTicks": 48,
            "midi": 56,
            "name": "G#3",
            "ticks": 58880,
            "time": 184,
            "velocity": 0.5511811023622047
          },
          {
            "duration": 0.15000000000000568,
            "durationTicks": 48,
            "midi": 59,
            "name": "B3",
            "ticks": 58960,
            "time": 184.25,
            "velocity": 0.5511811023622047
          },
          {
            "duration": 1.1999999999999886,
            "durationTicks": 384,
            "midi": 54,
            "name": "F#3",
            "ticks": 59040,
            "time": 184.5,
            "velocity": 0.47244094488188976
          },
          {
            "duration": 1.1999999999999886,
            "durationTicks": 384,
            "midi": 57,
            "name": "A3",
            "ticks": 59040,
            "time": 184.5,
            "velocity": 0.47244094488188976
          },
          {
            "duration": 1.1999999999999886,
            "durationTicks": 384,
            "midi": 50,
            "name": "D3",
            "ticks": 59760,
            "time": 186.75,
            "velocity": 0.47244094488188976
          },
          {
            "duration": 1.1999999999999886,
            "durationTicks": 384,
            "midi": 54,
            "name": "F#3",
            "ticks": 59760,
            "time": 186.75,
            "velocity": 0.47244094488188976
          },
          {
            "duration": 1.1999999999999886,
            "durationTicks": 384,
            "midi": 59,
            "name": "B3",
            "ticks": 59760,
            "time": 186.75,
            "velocity": 0.47244094488188976
          },
          {
            "duration": 2.25,
            "durationTicks": 720,
            "midi": 52,
            "name": "E3",
            "ticks": 60480,
            "time": 189,
            "velocity": 0.47244094488188976
          },
          {
            "duration": 1.5,
            "durationTicks": 480,
            "midi": 61,
            "name": "C#4",
            "ticks": 60480,
            "time": 189,
            "velocity": 0.47244094488188976
          },
          {
            "duration": 0.75,
            "durationTicks": 240,
            "midi": 62,
            "name": "D4",
            "ticks": 60960,
            "time": 190.5,
            "velocity": 0.47244094488188976
          },
          {
            "duration": 1.200000000000017,
            "durationTicks": 384,
            "midi": 57,
            "name": "A3",
            "ticks": 61200,
            "time": 191.25,
            "velocity": 0.47244094488188976
          },
          {
            "duration": 1.200000000000017,
            "durationTicks": 384,
            "midi": 61,
            "name": "C#4",
            "ticks": 61200,
            "time": 191.25,
            "velocity": 0.47244094488188976
          },
          {
            "duration": 0.7124999999999773,
            "durationTicks": 228,
            "midi": 54,
            "name": "F#3",
            "ticks": 64560,
            "time": 201.75,
            "velocity": 0.47244094488188976
          },
          {
            "duration": 0.7124999999999773,
            "durationTicks": 228,
            "midi": 57,
            "name": "A3",
            "ticks": 64560,
            "time": 201.75,
            "velocity": 0.47244094488188976
          },
          {
            "duration": 1.424999999999983,
            "durationTicks": 456,
            "midi": 50,
            "name": "D3",
            "ticks": 64800,
            "time": 202.5,
            "velocity": 0.47244094488188976
          },
          {
            "duration": 1.424999999999983,
            "durationTicks": 456,
            "midi": 54,
            "name": "F#3",
            "ticks": 64800,
            "time": 202.5,
            "velocity": 0.47244094488188976
          },
          {
            "duration": 0.7124999999999773,
            "durationTicks": 228,
            "midi": 52,
            "name": "E3",
            "ticks": 65280,
            "time": 204,
            "velocity": 0.47244094488188976
          },
          {
            "duration": 0.7124999999999773,
            "durationTicks": 228,
            "midi": 62,
            "name": "D4",
            "ticks": 65280,
            "time": 204,
            "velocity": 0.47244094488188976
          },
          {
            "duration": 1.200000000000017,
            "durationTicks": 384,
            "midi": 57,
            "name": "A3",
            "ticks": 65520,
            "time": 204.75,
            "velocity": 0.47244094488188976
          },
          {
            "duration": 1.200000000000017,
            "durationTicks": 384,
            "midi": 61,
            "name": "C#4",
            "ticks": 65520,
            "time": 204.75,
            "velocity": 0.47244094488188976
          },
          {
            "duration": 0.75,
            "durationTicks": 240,
            "midi": 56,
            "name": "G#3",
            "ticks": 66480,
            "time": 207.75,
            "velocity": 0.4645669291338583
          },
          {
            "duration": 1.5,
            "durationTicks": 480,
            "midi": 64,
            "name": "E4",
            "ticks": 66480,
            "time": 207.75,
            "velocity": 0.4645669291338583
          },
          {
            "duration": 0.75,
            "durationTicks": 240,
            "midi": 57,
            "name": "A3",
            "ticks": 66720,
            "time": 208.5,
            "velocity": 0.4409448818897638
          },
          {
            "duration": 0.6000000000000227,
            "durationTicks": 192,
            "midi": 52,
            "name": "E3",
            "ticks": 66960,
            "time": 209.25,
            "velocity": 0.41732283464566927
          },
          {
            "duration": 0.6000000000000227,
            "durationTicks": 192,
            "midi": 56,
            "name": "G#3",
            "ticks": 66960,
            "time": 209.25,
            "velocity": 0.41732283464566927
          },
          {
            "duration": 0.75,
            "durationTicks": 240,
            "midi": 45,
            "name": "A2",
            "ticks": 67680,
            "time": 211.5,
            "velocity": 0.44881889763779526
          },
          {
            "duration": 0.75,
            "durationTicks": 240,
            "midi": 49,
            "name": "C#3",
            "ticks": 67680,
            "time": 211.5,
            "velocity": 0.44881889763779526
          },
          {
            "duration": 1.5,
            "durationTicks": 480,
            "midi": 73,
            "name": "C#5",
            "ticks": 67680,
            "time": 211.5,
            "velocity": 0.44881889763779526
          },
          {
            "duration": 0.75,
            "durationTicks": 240,
            "midi": 49,
            "name": "C#3",
            "ticks": 67920,
            "time": 212.25,
            "velocity": 0.4330708661417323
          },
          {
            "duration": 0.75,
            "durationTicks": 240,
            "midi": 52,
            "name": "E3",
            "ticks": 67920,
            "time": 212.25,
            "velocity": 0.4330708661417323
          },
          {
            "duration": 0.75,
            "durationTicks": 240,
            "midi": 52,
            "name": "E3",
            "ticks": 68160,
            "time": 213,
            "velocity": 0.4251968503937008
          },
          {
            "duration": 0.75,
            "durationTicks": 240,
            "midi": 56,
            "name": "G#3",
            "ticks": 68160,
            "time": 213,
            "velocity": 0.4251968503937008
          },
          {
            "duration": 0.75,
            "durationTicks": 240,
            "midi": 71,
            "name": "B4",
            "ticks": 68160,
            "time": 213,
            "velocity": 0.4251968503937008
          },
          {
            "duration": 0.6000000000000227,
            "durationTicks": 192,
            "midi": 54,
            "name": "F#3",
            "ticks": 68400,
            "time": 213.75,
            "velocity": 0.41732283464566927
          },
          {
            "duration": 0.6000000000000227,
            "durationTicks": 192,
            "midi": 57,
            "name": "A3",
            "ticks": 68400,
            "time": 213.75,
            "velocity": 0.41732283464566927
          },
          {
            "duration": 0.6000000000000227,
            "durationTicks": 192,
            "midi": 69,
            "name": "A4",
            "ticks": 68400,
            "time": 213.75,
            "velocity": 0.41732283464566927
          },
          {
            "duration": 1.200000000000017,
            "durationTicks": 384,
            "midi": 50,
            "name": "D3",
            "ticks": 69120,
            "time": 216,
            "velocity": 0.47244094488188976
          },
          {
            "duration": 1.200000000000017,
            "durationTicks": 384,
            "midi": 51,
            "name": "D#3",
            "ticks": 69840,
            "time": 218.25,
            "velocity": 0.5118110236220472
          },
          {
            "duration": 1.200000000000017,
            "durationTicks": 384,
            "midi": 52,
            "name": "E3",
            "ticks": 70560,
            "time": 220.5,
            "velocity": 0.5590551181102362
          },
          {
            "duration": 1.200000000000017,
            "durationTicks": 384,
            "midi": 52,
            "name": "E3",
            "ticks": 71280,
            "time": 222.75,
            "velocity": 0.5511811023622047
          },
          {
            "duration": 1.200000000000017,
            "durationTicks": 384,
            "midi": 52,
            "name": "E3",
            "ticks": 72000,
            "time": 225,
            "velocity": 0.5511811023622047
          },
          {
            "duration": 1.200000000000017,
            "durationTicks": 384,
            "midi": 52,
            "name": "E3",
            "ticks": 72720,
            "time": 227.25,
            "velocity": 0.5511811023622047
          },
          {
            "duration": 0.6000000000000227,
            "durationTicks": 192,
            "midi": 45,
            "name": "A2",
            "ticks": 73440,
            "time": 229.5,
            "velocity": 0.47244094488188976
          },
          {
            "duration": 1.424999999999983,
            "durationTicks": 456,
            "midi": 54,
            "name": "F#3",
            "ticks": 76320,
            "time": 238.5,
            "velocity": 0.44881889763779526
          },
          {
            "duration": 1.424999999999983,
            "durationTicks": 456,
            "midi": 57,
            "name": "A3",
            "ticks": 76320,
            "time": 238.5,
            "velocity": 0.44881889763779526
          },
          {
            "duration": 0.7124999999999773,
            "durationTicks": 228,
            "midi": 54,
            "name": "F#3",
            "ticks": 76800,
            "time": 240,
            "velocity": 0.44881889763779526
          },
          {
            "duration": 0.7124999999999773,
            "durationTicks": 228,
            "midi": 57,
            "name": "A3",
            "ticks": 76800,
            "time": 240,
            "velocity": 0.44881889763779526
          },
          {
            "duration": 1.424999999999983,
            "durationTicks": 456,
            "midi": 54,
            "name": "F#3",
            "ticks": 77040,
            "time": 240.75,
            "velocity": 0.44881889763779526
          },
          {
            "duration": 1.424999999999983,
            "durationTicks": 456,
            "midi": 57,
            "name": "A3",
            "ticks": 77040,
            "time": 240.75,
            "velocity": 0.44881889763779526
          },
          {
            "duration": 0.7124999999999773,
            "durationTicks": 228,
            "midi": 54,
            "name": "F#3",
            "ticks": 77520,
            "time": 242.25,
            "velocity": 0.44881889763779526
          },
          {
            "duration": 0.7124999999999773,
            "durationTicks": 228,
            "midi": 61,
            "name": "C#4",
            "ticks": 77520,
            "time": 242.25,
            "velocity": 0.44881889763779526
          },
          {
            "duration": 2.137500000000017,
            "durationTicks": 684,
            "midi": 54,
            "name": "F#3",
            "ticks": 77760,
            "time": 243,
            "velocity": 0.44881889763779526
          },
          {
            "duration": 2.137500000000017,
            "durationTicks": 684,
            "midi": 62,
            "name": "D4",
            "ticks": 77760,
            "time": 243,
            "velocity": 0.44881889763779526
          },
          {
            "duration": 0.7124999999999773,
            "durationTicks": 228,
            "midi": 41,
            "name": "F2",
            "ticks": 78480,
            "time": 245.25,
            "velocity": 0.44881889763779526
          },
          {
            "duration": 0.7124999999999773,
            "durationTicks": 228,
            "midi": 53,
            "name": "F3",
            "ticks": 78960,
            "time": 246.75,
            "velocity": 0.44881889763779526
          },
          {
            "duration": 0.7124999999999773,
            "durationTicks": 228,
            "midi": 61,
            "name": "C#4",
            "ticks": 78960,
            "time": 246.75,
            "velocity": 0.44881889763779526
          },
          {
            "duration": 1.424999999999983,
            "durationTicks": 456,
            "midi": 54,
            "name": "F#3",
            "ticks": 79200,
            "time": 247.5,
            "velocity": 0.44881889763779526
          },
          {
            "duration": 1.424999999999983,
            "durationTicks": 456,
            "midi": 61,
            "name": "C#4",
            "ticks": 79200,
            "time": 247.5,
            "velocity": 0.44881889763779526
          },
          {
            "duration": 0.7124999999999773,
            "durationTicks": 228,
            "midi": 45,
            "name": "A2",
            "ticks": 79680,
            "time": 249,
            "velocity": 0.44881889763779526
          },
          {
            "duration": 0.7124999999999773,
            "durationTicks": 228,
            "midi": 49,
            "name": "C#3",
            "ticks": 79680,
            "time": 249,
            "velocity": 0.44881889763779526
          },
          {
            "duration": 2.2124999999999773,
            "durationTicks": 708,
            "midi": 47,
            "name": "B2",
            "ticks": 79920,
            "time": 249.75,
            "velocity": 0.4409448818897638
          },
          {
            "duration": 1.424999999999983,
            "durationTicks": 456,
            "midi": 50,
            "name": "D3",
            "ticks": 79920,
            "time": 249.75,
            "velocity": 0.4409448818897638
          },
          {
            "duration": 0.7124999999999773,
            "durationTicks": 228,
            "midi": 59,
            "name": "B3",
            "ticks": 80400,
            "time": 251.25,
            "velocity": 0.4330708661417323
          },
          {
            "duration": 2.8500000000000227,
            "durationTicks": 912,
            "midi": 49,
            "name": "C#3",
            "ticks": 80640,
            "time": 252,
            "velocity": 0.4251968503937008
          },
          {
            "duration": 2.25,
            "durationTicks": 720,
            "midi": 57,
            "name": "A3",
            "ticks": 80640,
            "time": 252,
            "velocity": 0.4251968503937008
          },
          {
            "duration": 0.6000000000000227,
            "durationTicks": 192,
            "midi": 56,
            "name": "G#3",
            "ticks": 81360,
            "time": 254.25,
            "velocity": 0.3858267716535433
          },
          {
            "duration": 1.46875,
            "durationTicks": 470,
            "midi": 54,
            "name": "F#3",
            "ticks": 82080,
            "time": 256.5,
            "velocity": 0.47244094488188976
          },
          {
            "duration": 1.46875,
            "durationTicks": 470,
            "midi": 57,
            "name": "A3",
            "ticks": 82080,
            "time": 256.5,
            "velocity": 0.47244094488188976
          },
          {
            "duration": 0.7375000000000114,
            "durationTicks": 236,
            "midi": 54,
            "name": "F#3",
            "ticks": 82560,
            "time": 258,
            "velocity": 0.47244094488188976
          },
          {
            "duration": 0.7375000000000114,
            "durationTicks": 236,
            "midi": 57,
            "name": "A3",
            "ticks": 82560,
            "time": 258,
            "velocity": 0.47244094488188976
          },
          {
            "duration": 1.46875,
            "durationTicks": 470,
            "midi": 56,
            "name": "G#3",
            "ticks": 82800,
            "time": 258.75,
            "velocity": 0.47244094488188976
          },
          {
            "duration": 1.46875,
            "durationTicks": 470,
            "midi": 59,
            "name": "B3",
            "ticks": 82800,
            "time": 258.75,
            "velocity": 0.47244094488188976
          },
          {
            "duration": 0.7375000000000114,
            "durationTicks": 236,
            "midi": 56,
            "name": "G#3",
            "ticks": 83280,
            "time": 260.25,
            "velocity": 0.47244094488188976
          },
          {
            "duration": 0.7375000000000114,
            "durationTicks": 236,
            "midi": 59,
            "name": "B3",
            "ticks": 83280,
            "time": 260.25,
            "velocity": 0.47244094488188976
          },
          {
            "duration": 1.46875,
            "durationTicks": 470,
            "midi": 57,
            "name": "A3",
            "ticks": 83520,
            "time": 261,
            "velocity": 0.4881889763779528
          },
          {
            "duration": 1.46875,
            "durationTicks": 470,
            "midi": 64,
            "name": "E4",
            "ticks": 83520,
            "time": 261,
            "velocity": 0.4881889763779528
          },
          {
            "duration": 0.7375000000000114,
            "durationTicks": 236,
            "midi": 57,
            "name": "A3",
            "ticks": 84000,
            "time": 262.5,
            "velocity": 0.4645669291338583
          },
          {
            "duration": 0.7375000000000114,
            "durationTicks": 236,
            "midi": 64,
            "name": "E4",
            "ticks": 84000,
            "time": 262.5,
            "velocity": 0.4645669291338583
          },
          {
            "duration": 1.46875,
            "durationTicks": 470,
            "midi": 54,
            "name": "F#3",
            "ticks": 84240,
            "time": 263.25,
            "velocity": 0.44881889763779526
          },
          {
            "duration": 1.46875,
            "durationTicks": 470,
            "midi": 57,
            "name": "A3",
            "ticks": 84240,
            "time": 263.25,
            "velocity": 0.44881889763779526
          },
          {
            "duration": 0.7375000000000114,
            "durationTicks": 236,
            "midi": 54,
            "name": "F#3",
            "ticks": 84720,
            "time": 264.75,
            "velocity": 0.4251968503937008
          },
          {
            "duration": 0.7375000000000114,
            "durationTicks": 236,
            "midi": 57,
            "name": "A3",
            "ticks": 84720,
            "time": 264.75,
            "velocity": 0.4251968503937008
          },
          {
            "duration": 1.46875,
            "durationTicks": 470,
            "midi": 51,
            "name": "D#3",
            "ticks": 84960,
            "time": 265.5,
            "velocity": 0.47244094488188976
          },
          {
            "duration": 1.46875,
            "durationTicks": 470,
            "midi": 57,
            "name": "A3",
            "ticks": 84960,
            "time": 265.5,
            "velocity": 0.47244094488188976
          },
          {
            "duration": 0.7375000000000114,
            "durationTicks": 236,
            "midi": 51,
            "name": "D#3",
            "ticks": 85440,
            "time": 267,
            "velocity": 0.48031496062992124
          },
          {
            "duration": 0.7375000000000114,
            "durationTicks": 236,
            "midi": 57,
            "name": "A3",
            "ticks": 85440,
            "time": 267,
            "velocity": 0.48031496062992124
          },
          {
            "duration": 1.46875,
            "durationTicks": 470,
            "midi": 53,
            "name": "F3",
            "ticks": 85680,
            "time": 267.75,
            "velocity": 0.48031496062992124
          },
          {
            "duration": 1.46875,
            "durationTicks": 470,
            "midi": 56,
            "name": "G#3",
            "ticks": 85680,
            "time": 267.75,
            "velocity": 0.48031496062992124
          },
          {
            "duration": 0.7375000000000114,
            "durationTicks": 236,
            "midi": 53,
            "name": "F3",
            "ticks": 86160,
            "time": 269.25,
            "velocity": 0.49606299212598426
          },
          {
            "duration": 0.7375000000000114,
            "durationTicks": 236,
            "midi": 56,
            "name": "G#3",
            "ticks": 86160,
            "time": 269.25,
            "velocity": 0.49606299212598426
          },
          {
            "duration": 1.46875,
            "durationTicks": 470,
            "midi": 54,
            "name": "F#3",
            "ticks": 86400,
            "time": 270,
            "velocity": 0.49606299212598426
          },
          {
            "duration": 1.46875,
            "durationTicks": 470,
            "midi": 61,
            "name": "C#4",
            "ticks": 86400,
            "time": 270,
            "velocity": 0.49606299212598426
          },
          {
            "duration": 0.7375000000000114,
            "durationTicks": 236,
            "midi": 54,
            "name": "F#3",
            "ticks": 86880,
            "time": 271.5,
            "velocity": 0.48031496062992124
          },
          {
            "duration": 0.7375000000000114,
            "durationTicks": 236,
            "midi": 61,
            "name": "C#4",
            "ticks": 86880,
            "time": 271.5,
            "velocity": 0.48031496062992124
          },
          {
            "duration": 1.46875,
            "durationTicks": 470,
            "midi": 50,
            "name": "D3",
            "ticks": 87120,
            "time": 272.25,
            "velocity": 0.4645669291338583
          },
          {
            "duration": 1.46875,
            "durationTicks": 470,
            "midi": 54,
            "name": "F#3",
            "ticks": 87120,
            "time": 272.25,
            "velocity": 0.4645669291338583
          },
          {
            "duration": 0.7375000000000114,
            "durationTicks": 236,
            "midi": 50,
            "name": "D3",
            "ticks": 87600,
            "time": 273.75,
            "velocity": 0.4409448818897638
          },
          {
            "duration": 0.7375000000000114,
            "durationTicks": 236,
            "midi": 54,
            "name": "F#3",
            "ticks": 87600,
            "time": 273.75,
            "velocity": 0.4409448818897638
          },
          {
            "duration": 1.46875,
            "durationTicks": 470,
            "midi": 47,
            "name": "B2",
            "ticks": 87840,
            "time": 274.5,
            "velocity": 0.4330708661417323
          },
          {
            "duration": 1.46875,
            "durationTicks": 470,
            "midi": 50,
            "name": "D3",
            "ticks": 87840,
            "time": 274.5,
            "velocity": 0.4330708661417323
          },
          {
            "duration": 1.46875,
            "durationTicks": 470,
            "midi": 55,
            "name": "G3",
            "ticks": 87840,
            "time": 274.5,
            "velocity": 0.4330708661417323
          },
          {
            "duration": 0.7375000000000114,
            "durationTicks": 236,
            "midi": 47,
            "name": "B2",
            "ticks": 88320,
            "time": 276,
            "velocity": 0.4251968503937008
          },
          {
            "duration": 0.7375000000000114,
            "durationTicks": 236,
            "midi": 50,
            "name": "D3",
            "ticks": 88320,
            "time": 276,
            "velocity": 0.4251968503937008
          },
          {
            "duration": 0.7375000000000114,
            "durationTicks": 236,
            "midi": 55,
            "name": "G3",
            "ticks": 88320,
            "time": 276,
            "velocity": 0.4251968503937008
          },
          {
            "duration": 1.46875,
            "durationTicks": 470,
            "midi": 47,
            "name": "B2",
            "ticks": 88560,
            "time": 276.75,
            "velocity": 0.4251968503937008
          },
          {
            "duration": 1.46875,
            "durationTicks": 470,
            "midi": 50,
            "name": "D3",
            "ticks": 88560,
            "time": 276.75,
            "velocity": 0.4251968503937008
          },
          {
            "duration": 1.46875,
            "durationTicks": 470,
            "midi": 55,
            "name": "G3",
            "ticks": 88560,
            "time": 276.75,
            "velocity": 0.4251968503937008
          },
          {
            "duration": 0.7375000000000114,
            "durationTicks": 236,
            "midi": 47,
            "name": "B2",
            "ticks": 89040,
            "time": 278.25,
            "velocity": 0.41732283464566927
          },
          {
            "duration": 0.7375000000000114,
            "durationTicks": 236,
            "midi": 50,
            "name": "D3",
            "ticks": 89040,
            "time": 278.25,
            "velocity": 0.41732283464566927
          },
          {
            "duration": 0.7375000000000114,
            "durationTicks": 236,
            "midi": 55,
            "name": "G3",
            "ticks": 89040,
            "time": 278.25,
            "velocity": 0.41732283464566927
          },
          {
            "duration": 1.46875,
            "durationTicks": 470,
            "midi": 47,
            "name": "B2",
            "ticks": 89280,
            "time": 279,
            "velocity": 0.41732283464566927
          },
          {
            "duration": 1.46875,
            "durationTicks": 470,
            "midi": 50,
            "name": "D3",
            "ticks": 89280,
            "time": 279,
            "velocity": 0.41732283464566927
          },
          {
            "duration": 1.46875,
            "durationTicks": 470,
            "midi": 55,
            "name": "G3",
            "ticks": 89280,
            "time": 279,
            "velocity": 0.41732283464566927
          },
          {
            "duration": 1.4249999999999545,
            "durationTicks": 456,
            "midi": 49,
            "name": "C#3",
            "ticks": 90720,
            "time": 283.5,
            "velocity": 0.47244094488188976
          },
          {
            "duration": 1.4249999999999545,
            "durationTicks": 456,
            "midi": 57,
            "name": "A3",
            "ticks": 90720,
            "time": 283.5,
            "velocity": 0.47244094488188976
          },
          {
            "duration": 0.7124999999999773,
            "durationTicks": 228,
            "midi": 49,
            "name": "C#3",
            "ticks": 91200,
            "time": 285,
            "velocity": 0.44881889763779526
          },
          {
            "duration": 0.7124999999999773,
            "durationTicks": 228,
            "midi": 57,
            "name": "A3",
            "ticks": 91200,
            "time": 285,
            "velocity": 0.44881889763779526
          },
          {
            "duration": 1.4249999999999545,
            "durationTicks": 456,
            "midi": 49,
            "name": "C#3",
            "ticks": 91440,
            "time": 285.75,
            "velocity": 0.4409448818897638
          },
          {
            "duration": 1.4249999999999545,
            "durationTicks": 456,
            "midi": 61,
            "name": "C#4",
            "ticks": 91440,
            "time": 285.75,
            "velocity": 0.4409448818897638
          },
          {
            "duration": 1.5,
            "durationTicks": 480,
            "midi": 66,
            "name": "F#4",
            "ticks": 91440,
            "time": 285.75,
            "velocity": 0.4409448818897638
          },
          {
            "duration": 0.7124999999999773,
            "durationTicks": 228,
            "midi": 49,
            "name": "C#3",
            "ticks": 91920,
            "time": 287.25,
            "velocity": 0.4330708661417323
          },
          {
            "duration": 0.7124999999999773,
            "durationTicks": 228,
            "midi": 59,
            "name": "B3",
            "ticks": 91920,
            "time": 287.25,
            "velocity": 0.4330708661417323
          },
          {
            "duration": 0.75,
            "durationTicks": 240,
            "midi": 65,
            "name": "F4",
            "ticks": 91920,
            "time": 287.25,
            "velocity": 0.4330708661417323
          },
          {
            "duration": 4.274999999999977,
            "durationTicks": 1368,
            "midi": 50,
            "name": "D3",
            "ticks": 92160,
            "time": 288,
            "velocity": 0.4251968503937008
          },
          {
            "duration": 4.274999999999977,
            "durationTicks": 1368,
            "midi": 57,
            "name": "A3",
            "ticks": 92160,
            "time": 288,
            "velocity": 0.4251968503937008
          },
          {
            "duration": 1.2000000000000455,
            "durationTicks": 384,
            "midi": 47,
            "name": "B2",
            "ticks": 93600,
            "time": 292.5,
            "velocity": 0.47244094488188976
          },
          {
            "duration": 1.2000000000000455,
            "durationTicks": 384,
            "midi": 50,
            "name": "D3",
            "ticks": 93600,
            "time": 292.5,
            "velocity": 0.47244094488188976
          },
          {
            "duration": 0.6000000000000227,
            "durationTicks": 192,
            "midi": 47,
            "name": "B2",
            "ticks": 94080,
            "time": 294,
            "velocity": 0.47244094488188976
          },
          {
            "duration": 0.6000000000000227,
            "durationTicks": 192,
            "midi": 50,
            "name": "D3",
            "ticks": 94080,
            "time": 294,
            "velocity": 0.47244094488188976
          },
          {
            "duration": 1.2000000000000455,
            "durationTicks": 384,
            "midi": 47,
            "name": "B2",
            "ticks": 94320,
            "time": 294.75,
            "velocity": 0.47244094488188976
          },
          {
            "duration": 1.2000000000000455,
            "durationTicks": 384,
            "midi": 50,
            "name": "D3",
            "ticks": 94320,
            "time": 294.75,
            "velocity": 0.47244094488188976
          },
          {
            "duration": 0.6000000000000227,
            "durationTicks": 192,
            "midi": 47,
            "name": "B2",
            "ticks": 94800,
            "time": 296.25,
            "velocity": 0.47244094488188976
          },
          {
            "duration": 0.6000000000000227,
            "durationTicks": 192,
            "midi": 50,
            "name": "D3",
            "ticks": 94800,
            "time": 296.25,
            "velocity": 0.47244094488188976
          },
          {
            "duration": 1.2000000000000455,
            "durationTicks": 384,
            "midi": 47,
            "name": "B2",
            "ticks": 95040,
            "time": 297,
            "velocity": 0.47244094488188976
          },
          {
            "duration": 1.2000000000000455,
            "durationTicks": 384,
            "midi": 50,
            "name": "D3",
            "ticks": 95040,
            "time": 297,
            "velocity": 0.47244094488188976
          },
          {
            "duration": 1.4249999999999545,
            "durationTicks": 456,
            "midi": 49,
            "name": "C#3",
            "ticks": 96480,
            "time": 301.5,
            "velocity": 0.47244094488188976
          },
          {
            "duration": 1.4249999999999545,
            "durationTicks": 456,
            "midi": 57,
            "name": "A3",
            "ticks": 96480,
            "time": 301.5,
            "velocity": 0.47244094488188976
          },
          {
            "duration": 0.7124999999999773,
            "durationTicks": 228,
            "midi": 49,
            "name": "C#3",
            "ticks": 96960,
            "time": 303,
            "velocity": 0.47244094488188976
          },
          {
            "duration": 0.7124999999999773,
            "durationTicks": 228,
            "midi": 57,
            "name": "A3",
            "ticks": 96960,
            "time": 303,
            "velocity": 0.47244094488188976
          },
          {
            "duration": 1.4249999999999545,
            "durationTicks": 456,
            "midi": 49,
            "name": "C#3",
            "ticks": 97200,
            "time": 303.75,
            "velocity": 0.47244094488188976
          },
          {
            "duration": 1.4249999999999545,
            "durationTicks": 456,
            "midi": 61,
            "name": "C#4",
            "ticks": 97200,
            "time": 303.75,
            "velocity": 0.47244094488188976
          },
          {
            "duration": 1.5,
            "durationTicks": 480,
            "midi": 66,
            "name": "F#4",
            "ticks": 97200,
            "time": 303.75,
            "velocity": 0.47244094488188976
          },
          {
            "duration": 0.7124999999999773,
            "durationTicks": 228,
            "midi": 49,
            "name": "C#3",
            "ticks": 97680,
            "time": 305.25,
            "velocity": 0.44881889763779526
          },
          {
            "duration": 0.7124999999999773,
            "durationTicks": 228,
            "midi": 59,
            "name": "B3",
            "ticks": 97680,
            "time": 305.25,
            "velocity": 0.44881889763779526
          },
          {
            "duration": 0.75,
            "durationTicks": 240,
            "midi": 65,
            "name": "F4",
            "ticks": 97680,
            "time": 305.25,
            "velocity": 0.44881889763779526
          },
          {
            "duration": 0.6000000000000227,
            "durationTicks": 192,
            "midi": 54,
            "name": "F#3",
            "ticks": 97920,
            "time": 306,
            "velocity": 0.4330708661417323
          },
          {
            "duration": 0.6000000000000227,
            "durationTicks": 192,
            "midi": 57,
            "name": "A3",
            "ticks": 97920,
            "time": 306,
            "velocity": 0.4330708661417323
          },
          {
            "duration": 0.36874999999997726,
            "durationTicks": 118,
            "midi": 54,
            "name": "F#3",
            "ticks": 109440,
            "time": 342,
            "velocity": 0.47244094488188976
          },
          {
            "duration": 0.36874999999997726,
            "durationTicks": 118,
            "midi": 57,
            "name": "A3",
            "ticks": 109560,
            "time": 342.375,
            "velocity": 0.47244094488188976
          },
          {
            "duration": 0.36874999999997726,
            "durationTicks": 118,
            "midi": 61,
            "name": "C#4",
            "ticks": 109680,
            "time": 342.75,
            "velocity": 0.47244094488188976
          },
          {
            "duration": 0.36874999999997726,
            "durationTicks": 118,
            "midi": 57,
            "name": "A3",
            "ticks": 109800,
            "time": 343.125,
            "velocity": 0.47244094488188976
          },
          {
            "duration": 0.36874999999997726,
            "durationTicks": 118,
            "midi": 61,
            "name": "C#4",
            "ticks": 109920,
            "time": 343.5,
            "velocity": 0.47244094488188976
          },
          {
            "duration": 0.36874999999997726,
            "durationTicks": 118,
            "midi": 57,
            "name": "A3",
            "ticks": 110040,
            "time": 343.875,
            "velocity": 0.47244094488188976
          },
          {
            "duration": 0.36874999999997726,
            "durationTicks": 118,
            "midi": 54,
            "name": "F#3",
            "ticks": 110160,
            "time": 344.25,
            "velocity": 0.47244094488188976
          },
          {
            "duration": 0.36874999999997726,
            "durationTicks": 118,
            "midi": 57,
            "name": "A3",
            "ticks": 110280,
            "time": 344.625,
            "velocity": 0.47244094488188976
          },
          {
            "duration": 0.36874999999997726,
            "durationTicks": 118,
            "midi": 61,
            "name": "C#4",
            "ticks": 110400,
            "time": 345,
            "velocity": 0.47244094488188976
          },
          {
            "duration": 0.36874999999997726,
            "durationTicks": 118,
            "midi": 57,
            "name": "A3",
            "ticks": 110520,
            "time": 345.375,
            "velocity": 0.47244094488188976
          },
          {
            "duration": 0.36874999999997726,
            "durationTicks": 118,
            "midi": 61,
            "name": "C#4",
            "ticks": 110640,
            "time": 345.75,
            "velocity": 0.47244094488188976
          },
          {
            "duration": 0.36874999999997726,
            "durationTicks": 118,
            "midi": 57,
            "name": "A3",
            "ticks": 110760,
            "time": 346.125,
            "velocity": 0.47244094488188976
          },
          {
            "duration": 0.36874999999997726,
            "durationTicks": 118,
            "midi": 54,
            "name": "F#3",
            "ticks": 110880,
            "time": 346.5,
            "velocity": 0.47244094488188976
          },
          {
            "duration": 0.36874999999997726,
            "durationTicks": 118,
            "midi": 57,
            "name": "A3",
            "ticks": 111000,
            "time": 346.875,
            "velocity": 0.47244094488188976
          },
          {
            "duration": 0.36874999999997726,
            "durationTicks": 118,
            "midi": 61,
            "name": "C#4",
            "ticks": 111120,
            "time": 347.25,
            "velocity": 0.47244094488188976
          },
          {
            "duration": 0.36874999999997726,
            "durationTicks": 118,
            "midi": 57,
            "name": "A3",
            "ticks": 111240,
            "time": 347.625,
            "velocity": 0.47244094488188976
          },
          {
            "duration": 0.36874999999997726,
            "durationTicks": 118,
            "midi": 61,
            "name": "C#4",
            "ticks": 111360,
            "time": 348,
            "velocity": 0.47244094488188976
          },
          {
            "duration": 0.36874999999997726,
            "durationTicks": 118,
            "midi": 57,
            "name": "A3",
            "ticks": 111480,
            "time": 348.375,
            "velocity": 0.47244094488188976
          },
          {
            "duration": 0.36874999999997726,
            "durationTicks": 118,
            "midi": 56,
            "name": "G#3",
            "ticks": 111600,
            "time": 348.75,
            "velocity": 0.47244094488188976
          },
          {
            "duration": 0.36874999999997726,
            "durationTicks": 118,
            "midi": 59,
            "name": "B3",
            "ticks": 111720,
            "time": 349.125,
            "velocity": 0.47244094488188976
          },
          {
            "duration": 0.36874999999997726,
            "durationTicks": 118,
            "midi": 61,
            "name": "C#4",
            "ticks": 111840,
            "time": 349.5,
            "velocity": 0.47244094488188976
          },
          {
            "duration": 0.36874999999997726,
            "durationTicks": 118,
            "midi": 59,
            "name": "B3",
            "ticks": 111960,
            "time": 349.875,
            "velocity": 0.47244094488188976
          },
          {
            "duration": 0.36874999999997726,
            "durationTicks": 118,
            "midi": 61,
            "name": "C#4",
            "ticks": 112080,
            "time": 350.25,
            "velocity": 0.47244094488188976
          },
          {
            "duration": 0.36874999999997726,
            "durationTicks": 118,
            "midi": 59,
            "name": "B3",
            "ticks": 112200,
            "time": 350.625,
            "velocity": 0.47244094488188976
          },
          {
            "duration": 0.36874999999997726,
            "durationTicks": 118,
            "midi": 57,
            "name": "A3",
            "ticks": 112320,
            "time": 351,
            "velocity": 0.47244094488188976
          },
          {
            "duration": 0.36874999999997726,
            "durationTicks": 118,
            "midi": 59,
            "name": "B3",
            "ticks": 112440,
            "time": 351.375,
            "velocity": 0.47244094488188976
          },
          {
            "duration": 0.36874999999997726,
            "durationTicks": 118,
            "midi": 65,
            "name": "F4",
            "ticks": 112560,
            "time": 351.75,
            "velocity": 0.47244094488188976
          },
          {
            "duration": 0.36874999999997726,
            "durationTicks": 118,
            "midi": 59,
            "name": "B3",
            "ticks": 112680,
            "time": 352.125,
            "velocity": 0.47244094488188976
          },
          {
            "duration": 0.36874999999997726,
            "durationTicks": 118,
            "midi": 65,
            "name": "F4",
            "ticks": 112800,
            "time": 352.5,
            "velocity": 0.47244094488188976
          },
          {
            "duration": 0.36874999999997726,
            "durationTicks": 118,
            "midi": 59,
            "name": "B3",
            "ticks": 112920,
            "time": 352.875,
            "velocity": 0.47244094488188976
          },
          {
            "duration": 0.36874999999997726,
            "durationTicks": 118,
            "midi": 57,
            "name": "A3",
            "ticks": 113040,
            "time": 353.25,
            "velocity": 0.47244094488188976
          },
          {
            "duration": 0.36874999999997726,
            "durationTicks": 118,
            "midi": 61,
            "name": "C#4",
            "ticks": 113160,
            "time": 353.625,
            "velocity": 0.47244094488188976
          },
          {
            "duration": 0.36874999999997726,
            "durationTicks": 118,
            "midi": 66,
            "name": "F#4",
            "ticks": 113280,
            "time": 354,
            "velocity": 0.47244094488188976
          },
          {
            "duration": 0.36874999999997726,
            "durationTicks": 118,
            "midi": 61,
            "name": "C#4",
            "ticks": 113400,
            "time": 354.375,
            "velocity": 0.47244094488188976
          },
          {
            "duration": 0.36874999999997726,
            "durationTicks": 118,
            "midi": 66,
            "name": "F#4",
            "ticks": 113520,
            "time": 354.75,
            "velocity": 0.47244094488188976
          },
          {
            "duration": 0.36874999999997726,
            "durationTicks": 118,
            "midi": 61,
            "name": "C#4",
            "ticks": 113640,
            "time": 355.125,
            "velocity": 0.47244094488188976
          },
          {
            "duration": 0.36874999999997726,
            "durationTicks": 118,
            "midi": 59,
            "name": "B3",
            "ticks": 113760,
            "time": 355.5,
            "velocity": 0.47244094488188976
          },
          {
            "duration": 0.36874999999997726,
            "durationTicks": 118,
            "midi": 62,
            "name": "D4",
            "ticks": 113880,
            "time": 355.875,
            "velocity": 0.47244094488188976
          },
          {
            "duration": 0.36874999999997726,
            "durationTicks": 118,
            "midi": 66,
            "name": "F#4",
            "ticks": 114000,
            "time": 356.25,
            "velocity": 0.47244094488188976
          },
          {
            "duration": 0.36874999999997726,
            "durationTicks": 118,
            "midi": 62,
            "name": "D4",
            "ticks": 114120,
            "time": 356.625,
            "velocity": 0.47244094488188976
          },
          {
            "duration": 0.36874999999997726,
            "durationTicks": 118,
            "midi": 66,
            "name": "F#4",
            "ticks": 114240,
            "time": 357,
            "velocity": 0.47244094488188976
          },
          {
            "duration": 0.36874999999997726,
            "durationTicks": 118,
            "midi": 62,
            "name": "D4",
            "ticks": 114360,
            "time": 357.375,
            "velocity": 0.47244094488188976
          },
          {
            "duration": 0.36874999999997726,
            "durationTicks": 118,
            "midi": 59,
            "name": "B3",
            "ticks": 114480,
            "time": 357.75,
            "velocity": 0.47244094488188976
          },
          {
            "duration": 0.36874999999997726,
            "durationTicks": 118,
            "midi": 62,
            "name": "D4",
            "ticks": 114600,
            "time": 358.125,
            "velocity": 0.47244094488188976
          },
          {
            "duration": 0.36874999999997726,
            "durationTicks": 118,
            "midi": 68,
            "name": "G#4",
            "ticks": 114720,
            "time": 358.5,
            "velocity": 0.47244094488188976
          },
          {
            "duration": 0.36874999999997726,
            "durationTicks": 118,
            "midi": 62,
            "name": "D4",
            "ticks": 114840,
            "time": 358.875,
            "velocity": 0.47244094488188976
          },
          {
            "duration": 0.36874999999997726,
            "durationTicks": 118,
            "midi": 68,
            "name": "G#4",
            "ticks": 114960,
            "time": 359.25,
            "velocity": 0.47244094488188976
          },
          {
            "duration": 0.36874999999997726,
            "durationTicks": 118,
            "midi": 62,
            "name": "D4",
            "ticks": 115080,
            "time": 359.625,
            "velocity": 0.47244094488188976
          },
          {
            "duration": 0.24374999999997726,
            "durationTicks": 78,
            "midi": 49,
            "name": "C#3",
            "ticks": 115320,
            "time": 360.375,
            "velocity": 0.47244094488188976
          },
          {
            "duration": 0.24374999999997726,
            "durationTicks": 78,
            "midi": 53,
            "name": "F3",
            "ticks": 115440,
            "time": 360.75,
            "velocity": 0.47244094488188976
          },
          {
            "duration": 0.24374999999997726,
            "durationTicks": 78,
            "midi": 56,
            "name": "G#3",
            "ticks": 115560,
            "time": 361.125,
            "velocity": 0.47244094488188976
          },
          {
            "duration": 0.24374999999997726,
            "durationTicks": 78,
            "midi": 61,
            "name": "C#4",
            "ticks": 115680,
            "time": 361.5,
            "velocity": 0.47244094488188976
          },
          {
            "duration": 0.24374999999997726,
            "durationTicks": 78,
            "midi": 49,
            "name": "C#3",
            "ticks": 115800,
            "time": 361.875,
            "velocity": 0.47244094488188976
          },
          {
            "duration": 0.9750000000000227,
            "durationTicks": 312,
            "midi": 61,
            "name": "C#4",
            "ticks": 115920,
            "time": 362.25,
            "velocity": 0.47244094488188976
          },
          {
            "duration": 0.24374999999997726,
            "durationTicks": 78,
            "midi": 37,
            "name": "C#2",
            "ticks": 116760,
            "time": 364.875,
            "velocity": 0.47244094488188976
          },
          {
            "duration": 0.24374999999997726,
            "durationTicks": 78,
            "midi": 39,
            "name": "D#2",
            "ticks": 116880,
            "time": 365.25,
            "velocity": 0.47244094488188976
          },
          {
            "duration": 0.24374999999997726,
            "durationTicks": 78,
            "midi": 42,
            "name": "F#2",
            "ticks": 117000,
            "time": 365.625,
            "velocity": 0.47244094488188976
          },
          {
            "duration": 0.24374999999997726,
            "durationTicks": 78,
            "midi": 49,
            "name": "C#3",
            "ticks": 117120,
            "time": 366,
            "velocity": 0.47244094488188976
          },
          {
            "duration": 0.24374999999997726,
            "durationTicks": 78,
            "midi": 37,
            "name": "C#2",
            "ticks": 117240,
            "time": 366.375,
            "velocity": 0.47244094488188976
          },
          {
            "duration": 0.9750000000000227,
            "durationTicks": 312,
            "midi": 49,
            "name": "C#3",
            "ticks": 117360,
            "time": 366.75,
            "velocity": 0.47244094488188976
          },
          {
            "duration": 0.24374999999997726,
            "durationTicks": 78,
            "midi": 49,
            "name": "C#3",
            "ticks": 118200,
            "time": 369.375,
            "velocity": 0.47244094488188976
          },
          {
            "duration": 0.24374999999997726,
            "durationTicks": 78,
            "midi": 54,
            "name": "F#3",
            "ticks": 118320,
            "time": 369.75,
            "velocity": 0.47244094488188976
          },
          {
            "duration": 0.24374999999997726,
            "durationTicks": 78,
            "midi": 58,
            "name": "A#3",
            "ticks": 118440,
            "time": 370.125,
            "velocity": 0.47244094488188976
          },
          {
            "duration": 0.24374999999997726,
            "durationTicks": 78,
            "midi": 61,
            "name": "C#4",
            "ticks": 118560,
            "time": 370.5,
            "velocity": 0.47244094488188976
          },
          {
            "duration": 0.24374999999997726,
            "durationTicks": 78,
            "midi": 49,
            "name": "C#3",
            "ticks": 118680,
            "time": 370.875,
            "velocity": 0.47244094488188976
          },
          {
            "duration": 0.9750000000000227,
            "durationTicks": 312,
            "midi": 61,
            "name": "C#4",
            "ticks": 118800,
            "time": 371.25,
            "velocity": 0.47244094488188976
          },
          {
            "duration": 0.24374999999997726,
            "durationTicks": 78,
            "midi": 37,
            "name": "C#2",
            "ticks": 119640,
            "time": 373.875,
            "velocity": 0.47244094488188976
          },
          {
            "duration": 0.24374999999997726,
            "durationTicks": 78,
            "midi": 42,
            "name": "F#2",
            "ticks": 119760,
            "time": 374.25,
            "velocity": 0.47244094488188976
          },
          {
            "duration": 0.24374999999997726,
            "durationTicks": 78,
            "midi": 44,
            "name": "G#2",
            "ticks": 119880,
            "time": 374.625,
            "velocity": 0.47244094488188976
          },
          {
            "duration": 0.24374999999997726,
            "durationTicks": 78,
            "midi": 49,
            "name": "C#3",
            "ticks": 120000,
            "time": 375,
            "velocity": 0.47244094488188976
          },
          {
            "duration": 0.24374999999997726,
            "durationTicks": 78,
            "midi": 37,
            "name": "C#2",
            "ticks": 120120,
            "time": 375.375,
            "velocity": 0.47244094488188976
          },
          {
            "duration": 0.9750000000000227,
            "durationTicks": 312,
            "midi": 49,
            "name": "C#3",
            "ticks": 120240,
            "time": 375.75,
            "velocity": 0.47244094488188976
          },
          {
            "duration": 1.2000000000000455,
            "durationTicks": 384,
            "midi": 54,
            "name": "F#3",
            "ticks": 120960,
            "time": 378,
            "velocity": 0.44881889763779526
          },
          {
            "duration": 1.2000000000000455,
            "durationTicks": 384,
            "midi": 50,
            "name": "D3",
            "ticks": 122400,
            "time": 382.5,
            "velocity": 0.47244094488188976
          },
          {
            "duration": 1.2000000000000455,
            "durationTicks": 384,
            "midi": 47,
            "name": "B2",
            "ticks": 123840,
            "time": 387,
            "velocity": 0.47244094488188976
          },
          {
            "duration": 1.2000000000000455,
            "durationTicks": 384,
            "midi": 49,
            "name": "C#3",
            "ticks": 125280,
            "time": 391.5,
            "velocity": 0.47244094488188976
          },
          {
            "duration": 1.2000000000000455,
            "durationTicks": 384,
            "midi": 54,
            "name": "F#3",
            "ticks": 126720,
            "time": 396,
            "velocity": 0.47244094488188976
          },
          {
            "duration": 1.2000000000000455,
            "durationTicks": 384,
            "midi": 50,
            "name": "D3",
            "ticks": 128160,
            "time": 400.5,
            "velocity": 0.5511811023622047
          },
          {
            "duration": 1.2000000000000455,
            "durationTicks": 384,
            "midi": 47,
            "name": "B2",
            "ticks": 129600,
            "time": 405,
            "velocity": 0.5511811023622047
          },
          {
            "duration": 1.2000000000000455,
            "durationTicks": 384,
            "midi": 49,
            "name": "C#3",
            "ticks": 131040,
            "time": 409.5,
            "velocity": 0.5511811023622047
          },
          {
            "duration": 1.2000000000000455,
            "durationTicks": 384,
            "midi": 54,
            "name": "F#3",
            "ticks": 132480,
            "time": 414,
            "velocity": 0.47244094488188976
          },
          {
            "duration": 1.2000000000000455,
            "durationTicks": 384,
            "midi": 45,
            "name": "A2",
            "ticks": 133200,
            "time": 416.25,
            "velocity": 0.47244094488188976
          },
          {
            "duration": 1.2000000000000455,
            "durationTicks": 384,
            "midi": 47,
            "name": "B2",
            "ticks": 133920,
            "time": 418.5,
            "velocity": 0.47244094488188976
          },
          {
            "duration": 1.2000000000000455,
            "durationTicks": 384,
            "midi": 49,
            "name": "C#3",
            "ticks": 134640,
            "time": 420.75,
            "velocity": 0.47244094488188976
          },
          {
            "duration": 1.2000000000000455,
            "durationTicks": 384,
            "midi": 45,
            "name": "A2",
            "ticks": 135360,
            "time": 423,
            "velocity": 0.47244094488188976
          },
          {
            "duration": 1.2000000000000455,
            "durationTicks": 384,
            "midi": 50,
            "name": "D3",
            "ticks": 136080,
            "time": 425.25,
            "velocity": 0.47244094488188976
          },
          {
            "duration": 1.2000000000000455,
            "durationTicks": 384,
            "midi": 47,
            "name": "B2",
            "ticks": 136800,
            "time": 427.5,
            "velocity": 0.47244094488188976
          },
          {
            "duration": 1.2000000000000455,
            "durationTicks": 384,
            "midi": 49,
            "name": "C#3",
            "ticks": 137520,
            "time": 429.75,
            "velocity": 0.47244094488188976
          },
          {
            "duration": 1.2000000000000455,
            "durationTicks": 384,
            "midi": 45,
            "name": "A2",
            "ticks": 138240,
            "time": 432,
            "velocity": 0.47244094488188976
          },
          {
            "duration": 1.2000000000000455,
            "durationTicks": 384,
            "midi": 48,
            "name": "C3",
            "ticks": 138960,
            "time": 434.25,
            "velocity": 0.47244094488188976
          },
          {
            "duration": 1.2000000000000455,
            "durationTicks": 384,
            "midi": 49,
            "name": "C#3",
            "ticks": 139680,
            "time": 436.5,
            "velocity": 0.47244094488188976
          },
          {
            "duration": 0.5625,
            "durationTicks": 180,
            "midi": 54,
            "name": "F#3",
            "ticks": 141120,
            "time": 441,
            "velocity": 0.4330708661417323
          },
          {
            "duration": 0.75,
            "durationTicks": 240,
            "midi": 73,
            "name": "C#5",
            "ticks": 141600,
            "time": 442.5,
            "velocity": 0.4566929133858268
          },
          {
            "duration": 0.5625,
            "durationTicks": 180,
            "midi": 54,
            "name": "F#3",
            "ticks": 141840,
            "time": 443.25,
            "velocity": 0.4251968503937008
          },
          {
            "duration": 0.5999999999999659,
            "durationTicks": 192,
            "midi": 69,
            "name": "A4",
            "ticks": 141840,
            "time": 443.25,
            "velocity": 0.4251968503937008
          },
          {
            "duration": 0.75,
            "durationTicks": 240,
            "midi": 73,
            "name": "C#5",
            "ticks": 142320,
            "time": 444.75,
            "velocity": 0.44881889763779526
          },
          {
            "duration": 0.5625,
            "durationTicks": 180,
            "midi": 54,
            "name": "F#3",
            "ticks": 142560,
            "time": 445.5,
            "velocity": 0.4015748031496063
          },
          {
            "duration": 0.5625,
            "durationTicks": 180,
            "midi": 69,
            "name": "A4",
            "ticks": 142560,
            "time": 445.5,
            "velocity": 0.4015748031496063
          }
        ],
        "endOfTrackTicks": 144000
      },
      {
        "channel": 0,
        "controlChanges": {
          "7": [
            {
              "number": 7,
              "ticks": 0,
              "time": 0,
              "value": 0.968503937007874
            }
          ],
          "91": [
            {
              "number": 91,
              "ticks": 0,
              "time": 0,
              "value": 0.7874015748031497
            }
          ]
        },
        "pitchBends": [],
        "instrument": {
          "family": "piano",
          "number": 0,
          "name": "acoustic grand piano"
        },
        "name": "Piano Concerto n23 K488 2mov",
        "notes": [],
        "endOfTrackTicks": 1440
      },
      {
        "channel": 0,
        "controlChanges": {},
        "pitchBends": [],
        "instrument": {
          "family": "piano",
          "number": 0,
          "name": "acoustic grand piano"
        },
        "name": "Piano Concerto n23 K488 2mov",
        "notes": [],
        "endOfTrackTicks": 144000
      },
      {
        "channel": 10,
        "controlChanges": {
          "7": [
            {
              "number": 7,
              "ticks": 0,
              "time": 0,
              "value": 0.8976377952755905
            }
          ],
          "10": [
            {
              "number": 10,
              "ticks": 0,
              "time": 0,
              "value": 0.2204724409448819
            }
          ],
          "91": [
            {
              "number": 91,
              "ticks": 0,
              "time": 0,
              "value": 0.6299212598425197
            }
          ]
        },
        "pitchBends": [],
        "instrument": {
          "family": "ensemble",
          "number": 48,
          "name": "string ensemble 1"
        },
        "name": "",
        "notes": [
          {
            "duration": 3,
            "durationTicks": 960,
            "midi": 69,
            "name": "A4",
            "ticks": 18000,
            "time": 56.25,
            "velocity": 0.47244094488188976
          },
          {
            "duration": 0.75,
            "durationTicks": 240,
            "midi": 68,
            "name": "G#4",
            "ticks": 18960,
            "time": 59.25,
            "velocity": 0.47244094488188976
          },
          {
            "duration": 0.75,
            "durationTicks": 240,
            "midi": 66,
            "name": "F#4",
            "ticks": 19200,
            "time": 60,
            "velocity": 0.47244094488188976
          },
          {
            "duration": 0.75,
            "durationTicks": 240,
            "midi": 65,
            "name": "F4",
            "ticks": 19440,
            "time": 60.75,
            "velocity": 0.47244094488188976
          },
          {
            "duration": 0.75,
            "durationTicks": 240,
            "midi": 66,
            "name": "F#4",
            "ticks": 19680,
            "time": 61.5,
            "velocity": 0.47244094488188976
          },
          {
            "duration": 0.75,
            "durationTicks": 240,
            "midi": 68,
            "name": "G#4",
            "ticks": 19920,
            "time": 62.25,
            "velocity": 0.47244094488188976
          },
          {
            "duration": 2.1374999999999886,
            "durationTicks": 684,
            "midi": 61,
            "name": "C#4",
            "ticks": 20160,
            "time": 63,
            "velocity": 0.47244094488188976
          },
          {
            "duration": 3,
            "durationTicks": 960,
            "midi": 73,
            "name": "C#5",
            "ticks": 20880,
            "time": 65.25,
            "velocity": 0.47244094488188976
          },
          {
            "duration": 0.75,
            "durationTicks": 240,
            "midi": 71,
            "name": "B4",
            "ticks": 21840,
            "time": 68.25,
            "velocity": 0.47244094488188976
          },
          {
            "duration": 0.75,
            "durationTicks": 240,
            "midi": 69,
            "name": "A4",
            "ticks": 22080,
            "time": 69,
            "velocity": 0.47244094488188976
          },
          {
            "duration": 0.75,
            "durationTicks": 240,
            "midi": 68,
            "name": "G#4",
            "ticks": 22320,
            "time": 69.75,
            "velocity": 0.47244094488188976
          },
          {
            "duration": 0.75,
            "durationTicks": 240,
            "midi": 69,
            "name": "A4",
            "ticks": 22560,
            "time": 70.5,
            "velocity": 0.47244094488188976
          },
          {
            "duration": 0.75,
            "durationTicks": 240,
            "midi": 71,
            "name": "B4",
            "ticks": 22800,
            "time": 71.25,
            "velocity": 0.47244094488188976
          },
          {
            "duration": 2.1374999999999886,
            "durationTicks": 684,
            "midi": 65,
            "name": "F4",
            "ticks": 23040,
            "time": 72,
            "velocity": 0.47244094488188976
          },
          {
            "duration": 3,
            "durationTicks": 960,
            "midi": 81,
            "name": "A5",
            "ticks": 23760,
            "time": 74.25,
            "velocity": 0.7086614173228346
          },
          {
            "duration": 0.75,
            "durationTicks": 240,
            "midi": 80,
            "name": "G#5",
            "ticks": 24720,
            "time": 77.25,
            "velocity": 0.7086614173228346
          },
          {
            "duration": 0.75,
            "durationTicks": 240,
            "midi": 78,
            "name": "F#5",
            "ticks": 24960,
            "time": 78,
            "velocity": 0.7086614173228346
          },
          {
            "duration": 0.75,
            "durationTicks": 240,
            "midi": 77,
            "name": "F5",
            "ticks": 25200,
            "time": 78.75,
            "velocity": 0.7086614173228346
          },
          {
            "duration": 0.75,
            "durationTicks": 240,
            "midi": 78,
            "name": "F#5",
            "ticks": 25440,
            "time": 79.5,
            "velocity": 0.7086614173228346
          },
          {
            "duration": 0.75,
            "durationTicks": 240,
            "midi": 80,
            "name": "G#5",
            "ticks": 25680,
            "time": 80.25,
            "velocity": 0.7086614173228346
          },
          {
            "duration": 3,
            "durationTicks": 960,
            "midi": 73,
            "name": "C#5",
            "ticks": 25920,
            "time": 81,
            "velocity": 0.7086614173228346
          },
          {
            "duration": 2.25,
            "durationTicks": 720,
            "midi": 71,
            "name": "B4",
            "ticks": 26880,
            "time": 84,
            "velocity": 0.7086614173228346
          },
          {
            "duration": 0.75,
            "durationTicks": 240,
            "midi": 73,
            "name": "C#5",
            "ticks": 27600,
            "time": 86.25,
            "velocity": 0.7086614173228346
          },
          {
            "duration": 1.5,
            "durationTicks": 480,
            "midi": 69,
            "name": "A4",
            "ticks": 27840,
            "time": 87,
            "velocity": 0.7086614173228346
          },
          {
            "duration": 0.44999999999998863,
            "durationTicks": 144,
            "midi": 71,
            "name": "B4",
            "ticks": 28320,
            "time": 88.5,
            "velocity": 0.6299212598425197
          },
          {
            "duration": 0.375,
            "durationTicks": 120,
            "midi": 68,
            "name": "G#4",
            "ticks": 28560,
            "time": 89.25,
            "velocity": 0.6299212598425197
          },
          {
            "duration": 1.4250000000000114,
            "durationTicks": 456,
            "midi": 66,
            "name": "F#4",
            "ticks": 28800,
            "time": 90,
            "velocity": 0.5511811023622047
          },
          {
            "duration": 4.5,
            "durationTicks": 1440,
            "midi": 74,
            "name": "D5",
            "ticks": 36000,
            "time": 112.5,
            "velocity": 0.47244094488188976
          },
          {
            "duration": 4.5,
            "durationTicks": 1440,
            "midi": 73,
            "name": "C#5",
            "ticks": 37440,
            "time": 117,
            "velocity": 0.47244094488188976
          },
          {
            "duration": 2.25,
            "durationTicks": 720,
            "midi": 71,
            "name": "B4",
            "ticks": 38880,
            "time": 121.5,
            "velocity": 0.47244094488188976
          },
          {
            "duration": 2.25,
            "durationTicks": 720,
            "midi": 73,
            "name": "C#5",
            "ticks": 39600,
            "time": 123.75,
            "velocity": 0.47244094488188976
          },
          {
            "duration": 1.5,
            "durationTicks": 480,
            "midi": 73,
            "name": "C#5",
            "ticks": 40320,
            "time": 126,
            "velocity": 0.47244094488188976
          },
          {
            "duration": 0.6000000000000227,
            "durationTicks": 192,
            "midi": 71,
            "name": "B4",
            "ticks": 40800,
            "time": 127.5,
            "velocity": 0.47244094488188976
          },
          {
            "duration": 0.75,
            "durationTicks": 240,
            "midi": 69,
            "name": "A4",
            "ticks": 42000,
            "time": 131.25,
            "velocity": 0.47244094488188976
          },
          {
            "duration": 0.75,
            "durationTicks": 240,
            "midi": 72,
            "name": "C5",
            "ticks": 42240,
            "time": 132,
            "velocity": 0.47244094488188976
          },
          {
            "duration": 0.6000000000000227,
            "durationTicks": 192,
            "midi": 76,
            "name": "E5",
            "ticks": 42480,
            "time": 132.75,
            "velocity": 0.47244094488188976
          },
          {
            "duration": 0.75,
            "durationTicks": 240,
            "midi": 68,
            "name": "G#4",
            "ticks": 43440,
            "time": 135.75,
            "velocity": 0.47244094488188976
          },
          {
            "duration": 0.75,
            "durationTicks": 240,
            "midi": 71,
            "name": "B4",
            "ticks": 43680,
            "time": 136.5,
            "velocity": 0.47244094488188976
          },
          {
            "duration": 0.6000000000000227,
            "durationTicks": 192,
            "midi": 76,
            "name": "E5",
            "ticks": 43920,
            "time": 137.25,
            "velocity": 0.47244094488188976
          },
          {
            "duration": 1.5,
            "durationTicks": 480,
            "midi": 76,
            "name": "E5",
            "ticks": 44640,
            "time": 139.5,
            "velocity": 0.5433070866141733
          },
          {
            "duration": 0.75,
            "durationTicks": 240,
            "midi": 75,
            "name": "D#5",
            "ticks": 45120,
            "time": 141,
            "velocity": 0.49606299212598426
          },
          {
            "duration": 1.5,
            "durationTicks": 480,
            "midi": 72,
            "name": "C5",
            "ticks": 45360,
            "time": 141.75,
            "velocity": 0.47244094488188976
          },
          {
            "duration": 0.75,
            "durationTicks": 240,
            "midi": 69,
            "name": "A4",
            "ticks": 45840,
            "time": 143.25,
            "velocity": 0.4251968503937008
          },
          {
            "duration": 1.1999999999999886,
            "durationTicks": 384,
            "midi": 68,
            "name": "G#4",
            "ticks": 46080,
            "time": 144,
            "velocity": 0.4015748031496063
          },
          {
            "duration": 0.75,
            "durationTicks": 240,
            "midi": 74,
            "name": "D5",
            "ticks": 58800,
            "time": 183.75,
            "velocity": 0.47244094488188976
          },
          {
            "duration": 0.6000000000000227,
            "durationTicks": 192,
            "midi": 73,
            "name": "C#5",
            "ticks": 59040,
            "time": 184.5,
            "velocity": 0.47244094488188976
          },
          {
            "duration": 0.6000000000000227,
            "durationTicks": 192,
            "midi": 71,
            "name": "B4",
            "ticks": 59760,
            "time": 186.75,
            "velocity": 0.47244094488188976
          },
          {
            "duration": 0.75,
            "durationTicks": 240,
            "midi": 76,
            "name": "E5",
            "ticks": 60720,
            "time": 189.75,
            "velocity": 0.47244094488188976
          },
          {
            "duration": 0.75,
            "durationTicks": 240,
            "midi": 68,
            "name": "G#4",
            "ticks": 60960,
            "time": 190.5,
            "velocity": 0.47244094488188976
          },
          {
            "duration": 0.6000000000000227,
            "durationTicks": 192,
            "midi": 69,
            "name": "A4",
            "ticks": 61200,
            "time": 191.25,
            "velocity": 0.47244094488188976
          },
          {
            "duration": 0.375,
            "durationTicks": 120,
            "midi": 78,
            "name": "F#5",
            "ticks": 65040,
            "time": 203.25,
            "velocity": 0.5669291338582677
          },
          {
            "duration": 0.29999999999998295,
            "durationTicks": 96,
            "midi": 74,
            "name": "D5",
            "ticks": 65160,
            "time": 203.625,
            "velocity": 0.5590551181102362
          },
          {
            "duration": 0.375,
            "durationTicks": 120,
            "midi": 74,
            "name": "D5",
            "ticks": 65280,
            "time": 204,
            "velocity": 0.5511811023622047
          },
          {
            "duration": 0.29999999999998295,
            "durationTicks": 96,
            "midi": 71,
            "name": "B4",
            "ticks": 65400,
            "time": 204.375,
            "velocity": 0.5433070866141733
          },
          {
            "duration": 0.6000000000000227,
            "durationTicks": 192,
            "midi": 69,
            "name": "A4",
            "ticks": 65520,
            "time": 204.75,
            "velocity": 0.4251968503937008
          },
          {
            "duration": 1.5,
            "durationTicks": 480,
            "midi": 62,
            "name": "D4",
            "ticks": 66240,
            "time": 207,
            "velocity": 0.4881889763779528
          },
          {
            "duration": 0.75,
            "durationTicks": 240,
            "midi": 61,
            "name": "C#4",
            "ticks": 66720,
            "time": 208.5,
            "velocity": 0.47244094488188976
          },
          {
            "duration": 0.6000000000000227,
            "durationTicks": 192,
            "midi": 59,
            "name": "B3",
            "ticks": 66960,
            "time": 209.25,
            "velocity": 0.4566929133858268
          },
          {
            "duration": 1.5,
            "durationTicks": 480,
            "midi": 64,
            "name": "E4",
            "ticks": 67680,
            "time": 211.5,
            "velocity": 0.4881889763779528
          },
          {
            "duration": 0.75,
            "durationTicks": 240,
            "midi": 62,
            "name": "D4",
            "ticks": 68160,
            "time": 213,
            "velocity": 0.47244094488188976
          },
          {
            "duration": 0.6000000000000227,
            "durationTicks": 192,
            "midi": 61,
            "name": "C#4",
            "ticks": 68400,
            "time": 213.75,
            "velocity": 0.4409448818897638
          },
          {
            "duration": 0.375,
            "durationTicks": 120,
            "midi": 66,
            "name": "F#4",
            "ticks": 69240,
            "time": 216.375,
            "velocity": 0.47244094488188976
          },
          {
            "duration": 0.375,
            "durationTicks": 120,
            "midi": 69,
            "name": "A4",
            "ticks": 69360,
            "time": 216.75,
            "velocity": 0.47244094488188976
          },
          {
            "duration": 0.375,
            "durationTicks": 120,
            "midi": 66,
            "name": "F#4",
            "ticks": 69480,
            "time": 217.125,
            "velocity": 0.47244094488188976
          },
          {
            "duration": 0.375,
            "durationTicks": 120,
            "midi": 69,
            "name": "A4",
            "ticks": 69600,
            "time": 217.5,
            "velocity": 0.47244094488188976
          },
          {
            "duration": 0.375,
            "durationTicks": 120,
            "midi": 66,
            "name": "F#4",
            "ticks": 69720,
            "time": 217.875,
            "velocity": 0.47244094488188976
          },
          {
            "duration": 0.375,
            "durationTicks": 120,
            "midi": 66,
            "name": "F#4",
            "ticks": 69960,
            "time": 218.625,
            "velocity": 0.47244094488188976
          },
          {
            "duration": 0.375,
            "durationTicks": 120,
            "midi": 69,
            "name": "A4",
            "ticks": 70080,
            "time": 219,
            "velocity": 0.47244094488188976
          },
          {
            "duration": 0.375,
            "durationTicks": 120,
            "midi": 66,
            "name": "F#4",
            "ticks": 70200,
            "time": 219.375,
            "velocity": 0.47244094488188976
          },
          {
            "duration": 0.375,
            "durationTicks": 120,
            "midi": 69,
            "name": "A4",
            "ticks": 70320,
            "time": 219.75,
            "velocity": 0.47244094488188976
          },
          {
            "duration": 0.375,
            "durationTicks": 120,
            "midi": 66,
            "name": "F#4",
            "ticks": 70440,
            "time": 220.125,
            "velocity": 0.47244094488188976
          },
          {
            "duration": 0.6000000000000227,
            "durationTicks": 192,
            "midi": 64,
            "name": "E4",
            "ticks": 70560,
            "time": 220.5,
            "velocity": 0.47244094488188976
          },
          {
            "duration": 0.6000000000000227,
            "durationTicks": 192,
            "midi": 73,
            "name": "C#5",
            "ticks": 70800,
            "time": 221.25,
            "velocity": 0.47244094488188976
          },
          {
            "duration": 0.6000000000000227,
            "durationTicks": 192,
            "midi": 73,
            "name": "C#5",
            "ticks": 71040,
            "time": 222,
            "velocity": 0.47244094488188976
          },
          {
            "duration": 0.6000000000000227,
            "durationTicks": 192,
            "midi": 73,
            "name": "C#5",
            "ticks": 71280,
            "time": 222.75,
            "velocity": 0.47244094488188976
          },
          {
            "duration": 0.6000000000000227,
            "durationTicks": 192,
            "midi": 73,
            "name": "C#5",
            "ticks": 71520,
            "time": 223.5,
            "velocity": 0.47244094488188976
          },
          {
            "duration": 0.6000000000000227,
            "durationTicks": 192,
            "midi": 73,
            "name": "C#5",
            "ticks": 71760,
            "time": 224.25,
            "velocity": 0.47244094488188976
          },
          {
            "duration": 0.6000000000000227,
            "durationTicks": 192,
            "midi": 71,
            "name": "B4",
            "ticks": 72000,
            "time": 225,
            "velocity": 0.47244094488188976
          },
          {
            "duration": 0.6000000000000227,
            "durationTicks": 192,
            "midi": 71,
            "name": "B4",
            "ticks": 72240,
            "time": 225.75,
            "velocity": 0.47244094488188976
          },
          {
            "duration": 0.6000000000000227,
            "durationTicks": 192,
            "midi": 71,
            "name": "B4",
            "ticks": 72480,
            "time": 226.5,
            "velocity": 0.47244094488188976
          },
          {
            "duration": 0.6000000000000227,
            "durationTicks": 192,
            "midi": 71,
            "name": "B4",
            "ticks": 72720,
            "time": 227.25,
            "velocity": 0.47244094488188976
          },
          {
            "duration": 0.6000000000000227,
            "durationTicks": 192,
            "midi": 71,
            "name": "B4",
            "ticks": 72960,
            "time": 228,
            "velocity": 0.47244094488188976
          },
          {
            "duration": 0.6000000000000227,
            "durationTicks": 192,
            "midi": 71,
            "name": "B4",
            "ticks": 73200,
            "time": 228.75,
            "velocity": 0.47244094488188976
          },
          {
            "duration": 1.200000000000017,
            "durationTicks": 384,
            "midi": 69,
            "name": "A4",
            "ticks": 73440,
            "time": 229.5,
            "velocity": 0.47244094488188976
          },
          {
            "duration": 3,
            "durationTicks": 960,
            "midi": 69,
            "name": "A4",
            "ticks": 98640,
            "time": 308.25,
            "velocity": 0.47244094488188976
          },
          {
            "duration": 0.75,
            "durationTicks": 240,
            "midi": 68,
            "name": "G#4",
            "ticks": 99600,
            "time": 311.25,
            "velocity": 0.47244094488188976
          },
          {
            "duration": 0.75,
            "durationTicks": 240,
            "midi": 66,
            "name": "F#4",
            "ticks": 99840,
            "time": 312,
            "velocity": 0.47244094488188976
          },
          {
            "duration": 0.75,
            "durationTicks": 240,
            "midi": 65,
            "name": "F4",
            "ticks": 100080,
            "time": 312.75,
            "velocity": 0.47244094488188976
          },
          {
            "duration": 0.75,
            "durationTicks": 240,
            "midi": 66,
            "name": "F#4",
            "ticks": 100320,
            "time": 313.5,
            "velocity": 0.47244094488188976
          },
          {
            "duration": 0.75,
            "durationTicks": 240,
            "midi": 68,
            "name": "G#4",
            "ticks": 100560,
            "time": 314.25,
            "velocity": 0.47244094488188976
          },
          {
            "duration": 2.25,
            "durationTicks": 720,
            "midi": 61,
            "name": "C#4",
            "ticks": 100800,
            "time": 315,
            "velocity": 0.47244094488188976
          },
          {
            "duration": 3,
            "durationTicks": 960,
            "midi": 73,
            "name": "C#5",
            "ticks": 101520,
            "time": 317.25,
            "velocity": 0.47244094488188976
          },
          {
            "duration": 0.75,
            "durationTicks": 240,
            "midi": 71,
            "name": "B4",
            "ticks": 102480,
            "time": 320.25,
            "velocity": 0.47244094488188976
          },
          {
            "duration": 0.75,
            "durationTicks": 240,
            "midi": 69,
            "name": "A4",
            "ticks": 102720,
            "time": 321,
            "velocity": 0.47244094488188976
          },
          {
            "duration": 0.75,
            "durationTicks": 240,
            "midi": 68,
            "name": "G#4",
            "ticks": 102960,
            "time": 321.75,
            "velocity": 0.47244094488188976
          },
          {
            "duration": 0.75,
            "durationTicks": 240,
            "midi": 69,
            "name": "A4",
            "ticks": 103200,
            "time": 322.5,
            "velocity": 0.47244094488188976
          },
          {
            "duration": 0.75,
            "durationTicks": 240,
            "midi": 71,
            "name": "B4",
            "ticks": 103440,
            "time": 323.25,
            "velocity": 0.47244094488188976
          },
          {
            "duration": 1.7999999999999545,
            "durationTicks": 576,
            "midi": 65,
            "name": "F4",
            "ticks": 103680,
            "time": 324,
            "velocity": 0.47244094488188976
          },
          {
            "duration": 3,
            "durationTicks": 960,
            "midi": 81,
            "name": "A5",
            "ticks": 104400,
            "time": 326.25,
            "velocity": 0.7086614173228346
          },
          {
            "duration": 0.75,
            "durationTicks": 240,
            "midi": 80,
            "name": "G#5",
            "ticks": 105360,
            "time": 329.25,
            "velocity": 0.7086614173228346
          },
          {
            "duration": 0.75,
            "durationTicks": 240,
            "midi": 78,
            "name": "F#5",
            "ticks": 105600,
            "time": 330,
            "velocity": 0.7086614173228346
          },
          {
            "duration": 0.75,
            "durationTicks": 240,
            "midi": 77,
            "name": "F5",
            "ticks": 105840,
            "time": 330.75,
            "velocity": 0.7086614173228346
          },
          {
            "duration": 0.75,
            "durationTicks": 240,
            "midi": 78,
            "name": "F#5",
            "ticks": 106080,
            "time": 331.5,
            "velocity": 0.7086614173228346
          },
          {
            "duration": 0.75,
            "durationTicks": 240,
            "midi": 80,
            "name": "G#5",
            "ticks": 106320,
            "time": 332.25,
            "velocity": 0.7086614173228346
          },
          {
            "duration": 3,
            "durationTicks": 960,
            "midi": 73,
            "name": "C#5",
            "ticks": 106560,
            "time": 333,
            "velocity": 0.7086614173228346
          },
          {
            "duration": 2.25,
            "durationTicks": 720,
            "midi": 71,
            "name": "B4",
            "ticks": 107520,
            "time": 336,
            "velocity": 0.7086614173228346
          },
          {
            "duration": 0.6000000000000227,
            "durationTicks": 192,
            "midi": 73,
            "name": "C#5",
            "ticks": 108240,
            "time": 338.25,
            "velocity": 0.7086614173228346
          },
          {
            "duration": 1.5,
            "durationTicks": 480,
            "midi": 69,
            "name": "A4",
            "ticks": 108480,
            "time": 339,
            "velocity": 0.7086614173228346
          },
          {
            "duration": 0.4500000000000455,
            "durationTicks": 144,
            "midi": 71,
            "name": "B4",
            "ticks": 108960,
            "time": 340.5,
            "velocity": 0.7086614173228346
          },
          {
            "duration": 0.375,
            "durationTicks": 120,
            "midi": 68,
            "name": "G#4",
            "ticks": 109200,
            "time": 341.25,
            "velocity": 0.6299212598425197
          },
          {
            "duration": 1.4249999999999545,
            "durationTicks": 456,
            "midi": 66,
            "name": "F#4",
            "ticks": 109440,
            "time": 342,
            "velocity": 0.5511811023622047
          },
          {
            "duration": 2.25,
            "durationTicks": 720,
            "midi": 73,
            "name": "C#5",
            "ticks": 110880,
            "time": 346.5,
            "velocity": 0.47244094488188976
          },
          {
            "duration": 3,
            "durationTicks": 960,
            "midi": 71,
            "name": "B4",
            "ticks": 111600,
            "time": 348.75,
            "velocity": 0.47244094488188976
          },
          {
            "duration": 0.75,
            "durationTicks": 240,
            "midi": 69,
            "name": "A4",
            "ticks": 112560,
            "time": 351.75,
            "velocity": 0.47244094488188976
          },
          {
            "duration": 0.75,
            "durationTicks": 240,
            "midi": 68,
            "name": "G#4",
            "ticks": 112800,
            "time": 352.5,
            "velocity": 0.47244094488188976
          },
          {
            "duration": 0.75,
            "durationTicks": 240,
            "midi": 66,
            "name": "F#4",
            "ticks": 113040,
            "time": 353.25,
            "velocity": 0.47244094488188976
          },
          {
            "duration": 0.75,
            "durationTicks": 240,
            "midi": 68,
            "name": "G#4",
            "ticks": 113280,
            "time": 354,
            "velocity": 0.47244094488188976
          },
          {
            "duration": 0.75,
            "durationTicks": 240,
            "midi": 69,
            "name": "A4",
            "ticks": 113520,
            "time": 354.75,
            "velocity": 0.47244094488188976
          },
          {
            "duration": 2.25,
            "durationTicks": 720,
            "midi": 62,
            "name": "D4",
            "ticks": 113760,
            "time": 355.5,
            "velocity": 0.47244094488188976
          },
          {
            "duration": 2.25,
            "durationTicks": 720,
            "midi": 74,
            "name": "D5",
            "ticks": 114480,
            "time": 357.75,
            "velocity": 0.47244094488188976
          },
          {
            "duration": 1.2000000000000455,
            "durationTicks": 384,
            "midi": 68,
            "name": "G#4",
            "ticks": 115200,
            "time": 360,
            "velocity": 0.47244094488188976
          },
          {
            "duration": 0.24374999999997726,
            "durationTicks": 78,
            "midi": 66,
            "name": "F#4",
            "ticks": 121080,
            "time": 378.375,
            "velocity": 0.47244094488188976
          },
          {
            "duration": 0.24374999999997726,
            "durationTicks": 78,
            "midi": 69,
            "name": "A4",
            "ticks": 121320,
            "time": 379.125,
            "velocity": 0.47244094488188976
          },
          {
            "duration": 0.24374999999997726,
            "durationTicks": 78,
            "midi": 73,
            "name": "C#5",
            "ticks": 121560,
            "time": 379.875,
            "velocity": 0.47244094488188976
          },
          {
            "duration": 0.24374999999997726,
            "durationTicks": 78,
            "midi": 69,
            "name": "A4",
            "ticks": 121800,
            "time": 380.625,
            "velocity": 0.47244094488188976
          },
          {
            "duration": 0.24374999999997726,
            "durationTicks": 78,
            "midi": 66,
            "name": "F#4",
            "ticks": 122040,
            "time": 381.375,
            "velocity": 0.47244094488188976
          },
          {
            "duration": 0.24374999999997726,
            "durationTicks": 78,
            "midi": 61,
            "name": "C#4",
            "ticks": 122280,
            "time": 382.125,
            "velocity": 0.47244094488188976
          },
          {
            "duration": 0.24374999999997726,
            "durationTicks": 78,
            "midi": 62,
            "name": "D4",
            "ticks": 122520,
            "time": 382.875,
            "velocity": 0.47244094488188976
          },
          {
            "duration": 0.24374999999997726,
            "durationTicks": 78,
            "midi": 66,
            "name": "F#4",
            "ticks": 122760,
            "time": 383.625,
            "velocity": 0.47244094488188976
          },
          {
            "duration": 0.2437500000000341,
            "durationTicks": 78,
            "midi": 69,
            "name": "A4",
            "ticks": 123000,
            "time": 384.375,
            "velocity": 0.47244094488188976
          },
          {
            "duration": 0.2437500000000341,
            "durationTicks": 78,
            "midi": 66,
            "name": "F#4",
            "ticks": 123240,
            "time": 385.125,
            "velocity": 0.47244094488188976
          },
          {
            "duration": 0.2437500000000341,
            "durationTicks": 78,
            "midi": 62,
            "name": "D4",
            "ticks": 123480,
            "time": 385.875,
            "velocity": 0.47244094488188976
          },
          {
            "duration": 0.2437500000000341,
            "durationTicks": 78,
            "midi": 57,
            "name": "A3",
            "ticks": 123720,
            "time": 386.625,
            "velocity": 0.47244094488188976
          },
          {
            "duration": 0.2437500000000341,
            "durationTicks": 78,
            "midi": 59,
            "name": "B3",
            "ticks": 123960,
            "time": 387.375,
            "velocity": 0.47244094488188976
          },
          {
            "duration": 0.2437500000000341,
            "durationTicks": 78,
            "midi": 62,
            "name": "D4",
            "ticks": 124200,
            "time": 388.125,
            "velocity": 0.47244094488188976
          },
          {
            "duration": 0.2437500000000341,
            "durationTicks": 78,
            "midi": 61,
            "name": "C#4",
            "ticks": 124440,
            "time": 388.875,
            "velocity": 0.47244094488188976
          },
          {
            "duration": 0.2437500000000341,
            "durationTicks": 78,
            "midi": 59,
            "name": "B3",
            "ticks": 124680,
            "time": 389.625,
            "velocity": 0.47244094488188976
          },
          {
            "duration": 0.2437500000000341,
            "durationTicks": 78,
            "midi": 57,
            "name": "A3",
            "ticks": 124920,
            "time": 390.375,
            "velocity": 0.47244094488188976
          },
          {
            "duration": 0.2437500000000341,
            "durationTicks": 78,
            "midi": 56,
            "name": "G#3",
            "ticks": 125160,
            "time": 391.125,
            "velocity": 0.47244094488188976
          },
          {
            "duration": 0.2437500000000341,
            "durationTicks": 78,
            "midi": 61,
            "name": "C#4",
            "ticks": 125400,
            "time": 391.875,
            "velocity": 0.47244094488188976
          },
          {
            "duration": 0.2437500000000341,
            "durationTicks": 78,
            "midi": 66,
            "name": "F#4",
            "ticks": 125640,
            "time": 392.625,
            "velocity": 0.47244094488188976
          },
          {
            "duration": 0.2437500000000341,
            "durationTicks": 78,
            "midi": 69,
            "name": "A4",
            "ticks": 125880,
            "time": 393.375,
            "velocity": 0.47244094488188976
          },
          {
            "duration": 0.2437500000000341,
            "durationTicks": 78,
            "midi": 61,
            "name": "C#4",
            "ticks": 126120,
            "time": 394.125,
            "velocity": 0.47244094488188976
          },
          {
            "duration": 0.2437500000000341,
            "durationTicks": 78,
            "midi": 65,
            "name": "F4",
            "ticks": 126360,
            "time": 394.875,
            "velocity": 0.47244094488188976
          },
          {
            "duration": 0.2437500000000341,
            "durationTicks": 78,
            "midi": 68,
            "name": "G#4",
            "ticks": 126600,
            "time": 395.625,
            "velocity": 0.47244094488188976
          },
          {
            "duration": 0.2437500000000341,
            "durationTicks": 78,
            "midi": 66,
            "name": "F#4",
            "ticks": 126840,
            "time": 396.375,
            "velocity": 0.47244094488188976
          },
          {
            "duration": 0.2437500000000341,
            "durationTicks": 78,
            "midi": 69,
            "name": "A4",
            "ticks": 127080,
            "time": 397.125,
            "velocity": 0.47244094488188976
          },
          {
            "duration": 0.2437500000000341,
            "durationTicks": 78,
            "midi": 73,
            "name": "C#5",
            "ticks": 127320,
            "time": 397.875,
            "velocity": 0.47244094488188976
          },
          {
            "duration": 0.2437500000000341,
            "durationTicks": 78,
            "midi": 69,
            "name": "A4",
            "ticks": 127560,
            "time": 398.625,
            "velocity": 0.47244094488188976
          },
          {
            "duration": 0.2437500000000341,
            "durationTicks": 78,
            "midi": 66,
            "name": "F#4",
            "ticks": 127800,
            "time": 399.375,
            "velocity": 0.47244094488188976
          },
          {
            "duration": 0.2437500000000341,
            "durationTicks": 78,
            "midi": 61,
            "name": "C#4",
            "ticks": 128040,
            "time": 400.125,
            "velocity": 0.47244094488188976
          },
          {
            "duration": 0.2437500000000341,
            "durationTicks": 78,
            "midi": 62,
            "name": "D4",
            "ticks": 128280,
            "time": 400.875,
            "velocity": 0.47244094488188976
          },
          {
            "duration": 0.2437500000000341,
            "durationTicks": 78,
            "midi": 66,
            "name": "F#4",
            "ticks": 128520,
            "time": 401.625,
            "velocity": 0.47244094488188976
          },
          {
            "duration": 0.2437500000000341,
            "durationTicks": 78,
            "midi": 69,
            "name": "A4",
            "ticks": 128760,
            "time": 402.375,
            "velocity": 0.47244094488188976
          },
          {
            "duration": 0.2437500000000341,
            "durationTicks": 78,
            "midi": 66,
            "name": "F#4",
            "ticks": 129000,
            "time": 403.125,
            "velocity": 0.47244094488188976
          },
          {
            "duration": 0.2437500000000341,
            "durationTicks": 78,
            "midi": 62,
            "name": "D4",
            "ticks": 129240,
            "time": 403.875,
            "velocity": 0.47244094488188976
          },
          {
            "duration": 0.2437500000000341,
            "durationTicks": 78,
            "midi": 57,
            "name": "A3",
            "ticks": 129480,
            "time": 404.625,
            "velocity": 0.47244094488188976
          },
          {
            "duration": 0.2437500000000341,
            "durationTicks": 78,
            "midi": 59,
            "name": "B3",
            "ticks": 129720,
            "time": 405.375,
            "velocity": 0.47244094488188976
          },
          {
            "duration": 0.2437500000000341,
            "durationTicks": 78,
            "midi": 62,
            "name": "D4",
            "ticks": 129960,
            "time": 406.125,
            "velocity": 0.47244094488188976
          },
          {
            "duration": 0.2437500000000341,
            "durationTicks": 78,
            "midi": 67,
            "name": "G4",
            "ticks": 130200,
            "time": 406.875,
            "velocity": 0.47244094488188976
          },
          {
            "duration": 0.2437500000000341,
            "durationTicks": 78,
            "midi": 71,
            "name": "B4",
            "ticks": 130440,
            "time": 407.625,
            "velocity": 0.47244094488188976
          },
          {
            "duration": 0.2437500000000341,
            "durationTicks": 78,
            "midi": 67,
            "name": "G4",
            "ticks": 130680,
            "time": 408.375,
            "velocity": 0.47244094488188976
          },
          {
            "duration": 0.2437500000000341,
            "durationTicks": 78,
            "midi": 59,
            "name": "B3",
            "ticks": 130920,
            "time": 409.125,
            "velocity": 0.47244094488188976
          },
          {
            "duration": 0.2437500000000341,
            "durationTicks": 78,
            "midi": 61,
            "name": "C#4",
            "ticks": 131160,
            "time": 409.875,
            "velocity": 0.47244094488188976
          },
          {
            "duration": 0.2437500000000341,
            "durationTicks": 78,
            "midi": 66,
            "name": "F#4",
            "ticks": 131400,
            "time": 410.625,
            "velocity": 0.47244094488188976
          },
          {
            "duration": 0.2437500000000341,
            "durationTicks": 78,
            "midi": 69,
            "name": "A4",
            "ticks": 131640,
            "time": 411.375,
            "velocity": 0.47244094488188976
          },
          {
            "duration": 0.2437500000000341,
            "durationTicks": 78,
            "midi": 61,
            "name": "C#4",
            "ticks": 131880,
            "time": 412.125,
            "velocity": 0.47244094488188976
          },
          {
            "duration": 0.2437500000000341,
            "durationTicks": 78,
            "midi": 65,
            "name": "F4",
            "ticks": 132120,
            "time": 412.875,
            "velocity": 0.47244094488188976
          },
          {
            "duration": 0.2437500000000341,
            "durationTicks": 78,
            "midi": 68,
            "name": "G#4",
            "ticks": 132360,
            "time": 413.625,
            "velocity": 0.47244094488188976
          },
          {
            "duration": 0.375,
            "durationTicks": 120,
            "midi": 57,
            "name": "A3",
            "ticks": 132600,
            "time": 414.375,
            "velocity": 0.47244094488188976
          },
          {
            "duration": 0.375,
            "durationTicks": 120,
            "midi": 61,
            "name": "C#4",
            "ticks": 132720,
            "time": 414.75,
            "velocity": 0.47244094488188976
          },
          {
            "duration": 0.375,
            "durationTicks": 120,
            "midi": 66,
            "name": "F#4",
            "ticks": 132840,
            "time": 415.125,
            "velocity": 0.47244094488188976
          },
          {
            "duration": 0.375,
            "durationTicks": 120,
            "midi": 61,
            "name": "C#4",
            "ticks": 132960,
            "time": 415.5,
            "velocity": 0.47244094488188976
          },
          {
            "duration": 0.375,
            "durationTicks": 120,
            "midi": 57,
            "name": "A3",
            "ticks": 133080,
            "time": 415.875,
            "velocity": 0.47244094488188976
          },
          {
            "duration": 0.375,
            "durationTicks": 120,
            "midi": 61,
            "name": "C#4",
            "ticks": 133320,
            "time": 416.625,
            "velocity": 0.47244094488188976
          },
          {
            "duration": 0.375,
            "durationTicks": 120,
            "midi": 66,
            "name": "F#4",
            "ticks": 133440,
            "time": 417,
            "velocity": 0.47244094488188976
          },
          {
            "duration": 0.375,
            "durationTicks": 120,
            "midi": 69,
            "name": "A4",
            "ticks": 133560,
            "time": 417.375,
            "velocity": 0.47244094488188976
          },
          {
            "duration": 0.375,
            "durationTicks": 120,
            "midi": 66,
            "name": "F#4",
            "ticks": 133680,
            "time": 417.75,
            "velocity": 0.47244094488188976
          },
          {
            "duration": 0.375,
            "durationTicks": 120,
            "midi": 61,
            "name": "C#4",
            "ticks": 133800,
            "time": 418.125,
            "velocity": 0.47244094488188976
          },
          {
            "duration": 0.375,
            "durationTicks": 120,
            "midi": 62,
            "name": "D4",
            "ticks": 134040,
            "time": 418.875,
            "velocity": 0.47244094488188976
          },
          {
            "duration": 0.375,
            "durationTicks": 120,
            "midi": 66,
            "name": "F#4",
            "ticks": 134160,
            "time": 419.25,
            "velocity": 0.47244094488188976
          },
          {
            "duration": 0.375,
            "durationTicks": 120,
            "midi": 68,
            "name": "G#4",
            "ticks": 134280,
            "time": 419.625,
            "velocity": 0.47244094488188976
          },
          {
            "duration": 0.375,
            "durationTicks": 120,
            "midi": 66,
            "name": "F#4",
            "ticks": 134400,
            "time": 420,
            "velocity": 0.47244094488188976
          },
          {
            "duration": 0.375,
            "durationTicks": 120,
            "midi": 62,
            "name": "D4",
            "ticks": 134520,
            "time": 420.375,
            "velocity": 0.47244094488188976
          },
          {
            "duration": 0.375,
            "durationTicks": 120,
            "midi": 61,
            "name": "C#4",
            "ticks": 134760,
            "time": 421.125,
            "velocity": 0.47244094488188976
          },
          {
            "duration": 0.375,
            "durationTicks": 120,
            "midi": 65,
            "name": "F4",
            "ticks": 134880,
            "time": 421.5,
            "velocity": 0.47244094488188976
          },
          {
            "duration": 0.375,
            "durationTicks": 120,
            "midi": 68,
            "name": "G#4",
            "ticks": 135000,
            "time": 421.875,
            "velocity": 0.47244094488188976
          },
          {
            "duration": 0.375,
            "durationTicks": 120,
            "midi": 65,
            "name": "F4",
            "ticks": 135120,
            "time": 422.25,
            "velocity": 0.47244094488188976
          },
          {
            "duration": 0.375,
            "durationTicks": 120,
            "midi": 61,
            "name": "C#4",
            "ticks": 135240,
            "time": 422.625,
            "velocity": 0.47244094488188976
          },
          {
            "duration": 0.375,
            "durationTicks": 120,
            "midi": 61,
            "name": "C#4",
            "ticks": 135480,
            "time": 423.375,
            "velocity": 0.47244094488188976
          },
          {
            "duration": 0.375,
            "durationTicks": 120,
            "midi": 66,
            "name": "F#4",
            "ticks": 135600,
            "time": 423.75,
            "velocity": 0.47244094488188976
          },
          {
            "duration": 0.375,
            "durationTicks": 120,
            "midi": 69,
            "name": "A4",
            "ticks": 135720,
            "time": 424.125,
            "velocity": 0.47244094488188976
          },
          {
            "duration": 0.375,
            "durationTicks": 120,
            "midi": 66,
            "name": "F#4",
            "ticks": 135840,
            "time": 424.5,
            "velocity": 0.47244094488188976
          },
          {
            "duration": 0.375,
            "durationTicks": 120,
            "midi": 61,
            "name": "C#4",
            "ticks": 135960,
            "time": 424.875,
            "velocity": 0.47244094488188976
          },
          {
            "duration": 0.375,
            "durationTicks": 120,
            "midi": 62,
            "name": "D4",
            "ticks": 136200,
            "time": 425.625,
            "velocity": 0.47244094488188976
          },
          {
            "duration": 0.375,
            "durationTicks": 120,
            "midi": 66,
            "name": "F#4",
            "ticks": 136320,
            "time": 426,
            "velocity": 0.47244094488188976
          },
          {
            "duration": 0.375,
            "durationTicks": 120,
            "midi": 69,
            "name": "A4",
            "ticks": 136440,
            "time": 426.375,
            "velocity": 0.47244094488188976
          },
          {
            "duration": 0.375,
            "durationTicks": 120,
            "midi": 66,
            "name": "F#4",
            "ticks": 136560,
            "time": 426.75,
            "velocity": 0.47244094488188976
          },
          {
            "duration": 0.375,
            "durationTicks": 120,
            "midi": 62,
            "name": "D4",
            "ticks": 136680,
            "time": 427.125,
            "velocity": 0.47244094488188976
          },
          {
            "duration": 0.375,
            "durationTicks": 120,
            "midi": 62,
            "name": "D4",
            "ticks": 136920,
            "time": 427.875,
            "velocity": 0.47244094488188976
          },
          {
            "duration": 0.375,
            "durationTicks": 120,
            "midi": 66,
            "name": "F#4",
            "ticks": 137040,
            "time": 428.25,
            "velocity": 0.47244094488188976
          },
          {
            "duration": 0.375,
            "durationTicks": 120,
            "midi": 68,
            "name": "G#4",
            "ticks": 137160,
            "time": 428.625,
            "velocity": 0.47244094488188976
          },
          {
            "duration": 0.375,
            "durationTicks": 120,
            "midi": 66,
            "name": "F#4",
            "ticks": 137280,
            "time": 429,
            "velocity": 0.47244094488188976
          },
          {
            "duration": 0.375,
            "durationTicks": 120,
            "midi": 62,
            "name": "D4",
            "ticks": 137400,
            "time": 429.375,
            "velocity": 0.47244094488188976
          },
          {
            "duration": 0.375,
            "durationTicks": 120,
            "midi": 61,
            "name": "C#4",
            "ticks": 137640,
            "time": 430.125,
            "velocity": 0.47244094488188976
          },
          {
            "duration": 0.375,
            "durationTicks": 120,
            "midi": 65,
            "name": "F4",
            "ticks": 137760,
            "time": 430.5,
            "velocity": 0.47244094488188976
          },
          {
            "duration": 0.375,
            "durationTicks": 120,
            "midi": 68,
            "name": "G#4",
            "ticks": 137880,
            "time": 430.875,
            "velocity": 0.47244094488188976
          },
          {
            "duration": 0.375,
            "durationTicks": 120,
            "midi": 65,
            "name": "F4",
            "ticks": 138000,
            "time": 431.25,
            "velocity": 0.47244094488188976
          },
          {
            "duration": 0.375,
            "durationTicks": 120,
            "midi": 61,
            "name": "C#4",
            "ticks": 138120,
            "time": 431.625,
            "velocity": 0.47244094488188976
          },
          {
            "duration": 0.375,
            "durationTicks": 120,
            "midi": 61,
            "name": "C#4",
            "ticks": 138360,
            "time": 432.375,
            "velocity": 0.47244094488188976
          },
          {
            "duration": 0.375,
            "durationTicks": 120,
            "midi": 66,
            "name": "F#4",
            "ticks": 138480,
            "time": 432.75,
            "velocity": 0.47244094488188976
          },
          {
            "duration": 0.375,
            "durationTicks": 120,
            "midi": 69,
            "name": "A4",
            "ticks": 138600,
            "time": 433.125,
            "velocity": 0.47244094488188976
          },
          {
            "duration": 0.375,
            "durationTicks": 120,
            "midi": 66,
            "name": "F#4",
            "ticks": 138720,
            "time": 433.5,
            "velocity": 0.47244094488188976
          },
          {
            "duration": 0.375,
            "durationTicks": 120,
            "midi": 61,
            "name": "C#4",
            "ticks": 138840,
            "time": 433.875,
            "velocity": 0.47244094488188976
          },
          {
            "duration": 0.375,
            "durationTicks": 120,
            "midi": 63,
            "name": "D#4",
            "ticks": 139080,
            "time": 434.625,
            "velocity": 0.47244094488188976
          },
          {
            "duration": 0.375,
            "durationTicks": 120,
            "midi": 66,
            "name": "F#4",
            "ticks": 139200,
            "time": 435,
            "velocity": 0.47244094488188976
          },
          {
            "duration": 0.375,
            "durationTicks": 120,
            "midi": 69,
            "name": "A4",
            "ticks": 139320,
            "time": 435.375,
            "velocity": 0.47244094488188976
          },
          {
            "duration": 0.375,
            "durationTicks": 120,
            "midi": 66,
            "name": "F#4",
            "ticks": 139440,
            "time": 435.75,
            "velocity": 0.47244094488188976
          },
          {
            "duration": 0.375,
            "durationTicks": 120,
            "midi": 63,
            "name": "D#4",
            "ticks": 139560,
            "time": 436.125,
            "velocity": 0.47244094488188976
          },
          {
            "duration": 0.375,
            "durationTicks": 120,
            "midi": 61,
            "name": "C#4",
            "ticks": 139800,
            "time": 436.875,
            "velocity": 0.47244094488188976
          },
          {
            "duration": 0.375,
            "durationTicks": 120,
            "midi": 66,
            "name": "F#4",
            "ticks": 139920,
            "time": 437.25,
            "velocity": 0.47244094488188976
          },
          {
            "duration": 0.375,
            "durationTicks": 120,
            "midi": 69,
            "name": "A4",
            "ticks": 140040,
            "time": 437.625,
            "velocity": 0.47244094488188976
          },
          {
            "duration": 0.375,
            "durationTicks": 120,
            "midi": 66,
            "name": "F#4",
            "ticks": 140160,
            "time": 438,
            "velocity": 0.47244094488188976
          },
          {
            "duration": 0.375,
            "durationTicks": 120,
            "midi": 61,
            "name": "C#4",
            "ticks": 140280,
            "time": 438.375,
            "velocity": 0.47244094488188976
          },
          {
            "duration": 0.375,
            "durationTicks": 120,
            "midi": 61,
            "name": "C#4",
            "ticks": 140520,
            "time": 439.125,
            "velocity": 0.47244094488188976
          },
          {
            "duration": 0.375,
            "durationTicks": 120,
            "midi": 65,
            "name": "F4",
            "ticks": 140640,
            "time": 439.5,
            "velocity": 0.47244094488188976
          },
          {
            "duration": 0.375,
            "durationTicks": 120,
            "midi": 68,
            "name": "G#4",
            "ticks": 140760,
            "time": 439.875,
            "velocity": 0.47244094488188976
          },
          {
            "duration": 0.375,
            "durationTicks": 120,
            "midi": 65,
            "name": "F4",
            "ticks": 140880,
            "time": 440.25,
            "velocity": 0.47244094488188976
          },
          {
            "duration": 0.375,
            "durationTicks": 120,
            "midi": 61,
            "name": "C#4",
            "ticks": 141000,
            "time": 440.625,
            "velocity": 0.47244094488188976
          },
          {
            "duration": 0.5625,
            "durationTicks": 180,
            "midi": 61,
            "name": "C#4",
            "ticks": 141120,
            "time": 441,
            "velocity": 0.4094488188976378
          },
          {
            "duration": 0.5625,
            "durationTicks": 180,
            "midi": 73,
            "name": "C#5",
            "ticks": 141840,
            "time": 443.25,
            "velocity": 0.3858267716535433
          },
          {
            "duration": 0.5625,
            "durationTicks": 180,
            "midi": 78,
            "name": "F#5",
            "ticks": 142560,
            "time": 445.5,
            "velocity": 0.3700787401574803
          }
        ]
      },
      {
        "channel": 0,
        "controlChanges": {},
        "pitchBends": [],
        "instrument": {
          "family": "piano",
          "number": 0,
          "name": "acoustic grand piano"
        },
        "name": "Piano Concerto n23 K488 2mov",
        "notes": [],
        "endOfTrackTicks": 144000
      },
      {
        "channel": 11,
        "controlChanges": {
          "7": [
            {
              "number": 7,
              "ticks": 0,
              "time": 0,
              "value": 0.7952755905511811
            }
          ],
          "10": [
            {
              "number": 10,
              "ticks": 0,
              "time": 0,
              "value": 0.31496062992125984
            }
          ],
          "91": [
            {
              "number": 91,
              "ticks": 0,
              "time": 0,
              "value": 0.6299212598425197
            }
          ]
        },
        "pitchBends": [],
        "instrument": {
          "family": "ensemble",
          "number": 48,
          "name": "string ensemble 1"
        },
        "name": "",
        "notes": [
          {
            "duration": 0.375,
            "durationTicks": 120,
            "midi": 57,
            "name": "A3",
            "ticks": 17400,
            "time": 54.375,
            "velocity": 0.47244094488188976
          },
          {
            "duration": 0.375,
            "durationTicks": 120,
            "midi": 61,
            "name": "C#4",
            "ticks": 17520,
            "time": 54.75,
            "velocity": 0.47244094488188976
          },
          {
            "duration": 0.375,
            "durationTicks": 120,
            "midi": 66,
            "name": "F#4",
            "ticks": 17640,
            "time": 55.125,
            "velocity": 0.47244094488188976
          },
          {
            "duration": 0.375,
            "durationTicks": 120,
            "midi": 61,
            "name": "C#4",
            "ticks": 17760,
            "time": 55.5,
            "velocity": 0.47244094488188976
          },
          {
            "duration": 0.375,
            "durationTicks": 120,
            "midi": 57,
            "name": "A3",
            "ticks": 17880,
            "time": 55.875,
            "velocity": 0.47244094488188976
          },
          {
            "duration": 0.375,
            "durationTicks": 120,
            "midi": 57,
            "name": "A3",
            "ticks": 18120,
            "time": 56.625,
            "velocity": 0.47244094488188976
          },
          {
            "duration": 0.375,
            "durationTicks": 120,
            "midi": 61,
            "name": "C#4",
            "ticks": 18240,
            "time": 57,
            "velocity": 0.47244094488188976
          },
          {
            "duration": 0.375,
            "durationTicks": 120,
            "midi": 66,
            "name": "F#4",
            "ticks": 18360,
            "time": 57.375,
            "velocity": 0.47244094488188976
          },
          {
            "duration": 0.375,
            "durationTicks": 120,
            "midi": 61,
            "name": "C#4",
            "ticks": 18480,
            "time": 57.75,
            "velocity": 0.47244094488188976
          },
          {
            "duration": 0.375,
            "durationTicks": 120,
            "midi": 57,
            "name": "A3",
            "ticks": 18600,
            "time": 58.125,
            "velocity": 0.47244094488188976
          },
          {
            "duration": 0.375,
            "durationTicks": 120,
            "midi": 57,
            "name": "A3",
            "ticks": 18840,
            "time": 58.875,
            "velocity": 0.47244094488188976
          },
          {
            "duration": 0.375,
            "durationTicks": 120,
            "midi": 61,
            "name": "C#4",
            "ticks": 18960,
            "time": 59.25,
            "velocity": 0.47244094488188976
          },
          {
            "duration": 0.375,
            "durationTicks": 120,
            "midi": 66,
            "name": "F#4",
            "ticks": 19080,
            "time": 59.625,
            "velocity": 0.47244094488188976
          },
          {
            "duration": 0.375,
            "durationTicks": 120,
            "midi": 61,
            "name": "C#4",
            "ticks": 19200,
            "time": 60,
            "velocity": 0.47244094488188976
          },
          {
            "duration": 0.375,
            "durationTicks": 120,
            "midi": 57,
            "name": "A3",
            "ticks": 19320,
            "time": 60.375,
            "velocity": 0.47244094488188976
          },
          {
            "duration": 0.375,
            "durationTicks": 120,
            "midi": 59,
            "name": "B3",
            "ticks": 19560,
            "time": 61.125,
            "velocity": 0.47244094488188976
          },
          {
            "duration": 0.375,
            "durationTicks": 120,
            "midi": 61,
            "name": "C#4",
            "ticks": 19680,
            "time": 61.5,
            "velocity": 0.47244094488188976
          },
          {
            "duration": 0.375,
            "durationTicks": 120,
            "midi": 65,
            "name": "F4",
            "ticks": 19800,
            "time": 61.875,
            "velocity": 0.47244094488188976
          },
          {
            "duration": 0.375,
            "durationTicks": 120,
            "midi": 61,
            "name": "C#4",
            "ticks": 19920,
            "time": 62.25,
            "velocity": 0.47244094488188976
          },
          {
            "duration": 0.375,
            "durationTicks": 120,
            "midi": 59,
            "name": "B3",
            "ticks": 20040,
            "time": 62.625,
            "velocity": 0.47244094488188976
          },
          {
            "duration": 0.375,
            "durationTicks": 120,
            "midi": 59,
            "name": "B3",
            "ticks": 20280,
            "time": 63.375,
            "velocity": 0.47244094488188976
          },
          {
            "duration": 0.375,
            "durationTicks": 120,
            "midi": 61,
            "name": "C#4",
            "ticks": 20400,
            "time": 63.75,
            "velocity": 0.47244094488188976
          },
          {
            "duration": 0.375,
            "durationTicks": 120,
            "midi": 65,
            "name": "F4",
            "ticks": 20520,
            "time": 64.125,
            "velocity": 0.47244094488188976
          },
          {
            "duration": 0.375,
            "durationTicks": 120,
            "midi": 61,
            "name": "C#4",
            "ticks": 20640,
            "time": 64.5,
            "velocity": 0.47244094488188976
          },
          {
            "duration": 0.375,
            "durationTicks": 120,
            "midi": 59,
            "name": "B3",
            "ticks": 20760,
            "time": 64.875,
            "velocity": 0.47244094488188976
          },
          {
            "duration": 0.375,
            "durationTicks": 120,
            "midi": 57,
            "name": "A3",
            "ticks": 21000,
            "time": 65.625,
            "velocity": 0.47244094488188976
          },
          {
            "duration": 0.375,
            "durationTicks": 120,
            "midi": 61,
            "name": "C#4",
            "ticks": 21120,
            "time": 66,
            "velocity": 0.47244094488188976
          },
          {
            "duration": 0.375,
            "durationTicks": 120,
            "midi": 66,
            "name": "F#4",
            "ticks": 21240,
            "time": 66.375,
            "velocity": 0.47244094488188976
          },
          {
            "duration": 0.375,
            "durationTicks": 120,
            "midi": 61,
            "name": "C#4",
            "ticks": 21360,
            "time": 66.75,
            "velocity": 0.47244094488188976
          },
          {
            "duration": 0.375,
            "durationTicks": 120,
            "midi": 57,
            "name": "A3",
            "ticks": 21480,
            "time": 67.125,
            "velocity": 0.47244094488188976
          },
          {
            "duration": 0.375,
            "durationTicks": 120,
            "midi": 62,
            "name": "D4",
            "ticks": 21720,
            "time": 67.875,
            "velocity": 0.47244094488188976
          },
          {
            "duration": 0.375,
            "durationTicks": 120,
            "midi": 66,
            "name": "F#4",
            "ticks": 21840,
            "time": 68.25,
            "velocity": 0.47244094488188976
          },
          {
            "duration": 0.375,
            "durationTicks": 120,
            "midi": 71,
            "name": "B4",
            "ticks": 21960,
            "time": 68.625,
            "velocity": 0.47244094488188976
          },
          {
            "duration": 0.375,
            "durationTicks": 120,
            "midi": 66,
            "name": "F#4",
            "ticks": 22080,
            "time": 69,
            "velocity": 0.47244094488188976
          },
          {
            "duration": 0.375,
            "durationTicks": 120,
            "midi": 62,
            "name": "D4",
            "ticks": 22200,
            "time": 69.375,
            "velocity": 0.47244094488188976
          },
          {
            "duration": 0.375,
            "durationTicks": 120,
            "midi": 59,
            "name": "B3",
            "ticks": 22440,
            "time": 70.125,
            "velocity": 0.47244094488188976
          },
          {
            "duration": 0.375,
            "durationTicks": 120,
            "midi": 62,
            "name": "D4",
            "ticks": 22560,
            "time": 70.5,
            "velocity": 0.47244094488188976
          },
          {
            "duration": 0.375,
            "durationTicks": 120,
            "midi": 66,
            "name": "F#4",
            "ticks": 22680,
            "time": 70.875,
            "velocity": 0.47244094488188976
          },
          {
            "duration": 0.375,
            "durationTicks": 120,
            "midi": 62,
            "name": "D4",
            "ticks": 22800,
            "time": 71.25,
            "velocity": 0.47244094488188976
          },
          {
            "duration": 0.375,
            "durationTicks": 120,
            "midi": 59,
            "name": "B3",
            "ticks": 22920,
            "time": 71.625,
            "velocity": 0.47244094488188976
          },
          {
            "duration": 0.375,
            "durationTicks": 120,
            "midi": 59,
            "name": "B3",
            "ticks": 23160,
            "time": 72.375,
            "velocity": 0.47244094488188976
          },
          {
            "duration": 0.375,
            "durationTicks": 120,
            "midi": 61,
            "name": "C#4",
            "ticks": 23280,
            "time": 72.75,
            "velocity": 0.47244094488188976
          },
          {
            "duration": 0.375,
            "durationTicks": 120,
            "midi": 68,
            "name": "G#4",
            "ticks": 23400,
            "time": 73.125,
            "velocity": 0.47244094488188976
          },
          {
            "duration": 0.375,
            "durationTicks": 120,
            "midi": 61,
            "name": "C#4",
            "ticks": 23520,
            "time": 73.5,
            "velocity": 0.47244094488188976
          },
          {
            "duration": 0.375,
            "durationTicks": 120,
            "midi": 59,
            "name": "B3",
            "ticks": 23640,
            "time": 73.875,
            "velocity": 0.47244094488188976
          },
          {
            "duration": 0.30000000000001137,
            "durationTicks": 96,
            "midi": 57,
            "name": "A3",
            "ticks": 23880,
            "time": 74.625,
            "velocity": 0.6299212598425197
          },
          {
            "duration": 0.30000000000001137,
            "durationTicks": 96,
            "midi": 61,
            "name": "C#4",
            "ticks": 24000,
            "time": 75,
            "velocity": 0.6299212598425197
          },
          {
            "duration": 0.30000000000001137,
            "durationTicks": 96,
            "midi": 66,
            "name": "F#4",
            "ticks": 24120,
            "time": 75.375,
            "velocity": 0.6299212598425197
          },
          {
            "duration": 0.30000000000001137,
            "durationTicks": 96,
            "midi": 61,
            "name": "C#4",
            "ticks": 24240,
            "time": 75.75,
            "velocity": 0.6299212598425197
          },
          {
            "duration": 0.30000000000001137,
            "durationTicks": 96,
            "midi": 57,
            "name": "A3",
            "ticks": 24360,
            "time": 76.125,
            "velocity": 0.6299212598425197
          },
          {
            "duration": 0.375,
            "durationTicks": 120,
            "midi": 63,
            "name": "D#4",
            "ticks": 24600,
            "time": 76.875,
            "velocity": 0.6299212598425197
          },
          {
            "duration": 0.375,
            "durationTicks": 120,
            "midi": 66,
            "name": "F#4",
            "ticks": 24720,
            "time": 77.25,
            "velocity": 0.6299212598425197
          },
          {
            "duration": 0.375,
            "durationTicks": 120,
            "midi": 68,
            "name": "G#4",
            "ticks": 24840,
            "time": 77.625,
            "velocity": 0.6299212598425197
          },
          {
            "duration": 0.375,
            "durationTicks": 120,
            "midi": 66,
            "name": "F#4",
            "ticks": 24960,
            "time": 78,
            "velocity": 0.6299212598425197
          },
          {
            "duration": 0.375,
            "durationTicks": 120,
            "midi": 63,
            "name": "D#4",
            "ticks": 25080,
            "time": 78.375,
            "velocity": 0.6299212598425197
          },
          {
            "duration": 0.375,
            "durationTicks": 120,
            "midi": 68,
            "name": "G#4",
            "ticks": 25320,
            "time": 79.125,
            "velocity": 0.6299212598425197
          },
          {
            "duration": 0.375,
            "durationTicks": 120,
            "midi": 71,
            "name": "B4",
            "ticks": 25440,
            "time": 79.5,
            "velocity": 0.6299212598425197
          },
          {
            "duration": 0.375,
            "durationTicks": 120,
            "midi": 74,
            "name": "D5",
            "ticks": 25560,
            "time": 79.875,
            "velocity": 0.6299212598425197
          },
          {
            "duration": 0.375,
            "durationTicks": 120,
            "midi": 71,
            "name": "B4",
            "ticks": 25680,
            "time": 80.25,
            "velocity": 0.6299212598425197
          },
          {
            "duration": 0.375,
            "durationTicks": 120,
            "midi": 68,
            "name": "G#4",
            "ticks": 25800,
            "time": 80.625,
            "velocity": 0.6299212598425197
          },
          {
            "duration": 0.375,
            "durationTicks": 120,
            "midi": 61,
            "name": "C#4",
            "ticks": 26040,
            "time": 81.375,
            "velocity": 0.6299212598425197
          },
          {
            "duration": 0.375,
            "durationTicks": 120,
            "midi": 64,
            "name": "E4",
            "ticks": 26160,
            "time": 81.75,
            "velocity": 0.6299212598425197
          },
          {
            "duration": 0.375,
            "durationTicks": 120,
            "midi": 66,
            "name": "F#4",
            "ticks": 26280,
            "time": 82.125,
            "velocity": 0.6299212598425197
          },
          {
            "duration": 0.375,
            "durationTicks": 120,
            "midi": 64,
            "name": "E4",
            "ticks": 26400,
            "time": 82.5,
            "velocity": 0.6299212598425197
          },
          {
            "duration": 0.375,
            "durationTicks": 120,
            "midi": 61,
            "name": "C#4",
            "ticks": 26520,
            "time": 82.875,
            "velocity": 0.6299212598425197
          },
          {
            "duration": 0.375,
            "durationTicks": 120,
            "midi": 59,
            "name": "B3",
            "ticks": 26760,
            "time": 83.625,
            "velocity": 0.6299212598425197
          },
          {
            "duration": 0.375,
            "durationTicks": 120,
            "midi": 62,
            "name": "D4",
            "ticks": 26880,
            "time": 84,
            "velocity": 0.6299212598425197
          },
          {
            "duration": 0.375,
            "durationTicks": 120,
            "midi": 67,
            "name": "G4",
            "ticks": 27000,
            "time": 84.375,
            "velocity": 0.6299212598425197
          },
          {
            "duration": 0.375,
            "durationTicks": 120,
            "midi": 62,
            "name": "D4",
            "ticks": 27120,
            "time": 84.75,
            "velocity": 0.6299212598425197
          },
          {
            "duration": 0.375,
            "durationTicks": 120,
            "midi": 59,
            "name": "B3",
            "ticks": 27240,
            "time": 85.125,
            "velocity": 0.6299212598425197
          },
          {
            "duration": 0.375,
            "durationTicks": 120,
            "midi": 61,
            "name": "C#4",
            "ticks": 27480,
            "time": 85.875,
            "velocity": 0.6299212598425197
          },
          {
            "duration": 0.375,
            "durationTicks": 120,
            "midi": 65,
            "name": "F4",
            "ticks": 27600,
            "time": 86.25,
            "velocity": 0.6299212598425197
          },
          {
            "duration": 0.375,
            "durationTicks": 120,
            "midi": 68,
            "name": "G#4",
            "ticks": 27720,
            "time": 86.625,
            "velocity": 0.6299212598425197
          },
          {
            "duration": 0.375,
            "durationTicks": 120,
            "midi": 66,
            "name": "F#4",
            "ticks": 27840,
            "time": 87,
            "velocity": 0.6299212598425197
          },
          {
            "duration": 0.375,
            "durationTicks": 120,
            "midi": 61,
            "name": "C#4",
            "ticks": 27960,
            "time": 87.375,
            "velocity": 0.6299212598425197
          },
          {
            "duration": 0.375,
            "durationTicks": 120,
            "midi": 66,
            "name": "F#4",
            "ticks": 28200,
            "time": 88.125,
            "velocity": 0.6299212598425197
          },
          {
            "duration": 0.375,
            "durationTicks": 120,
            "midi": 62,
            "name": "D4",
            "ticks": 28320,
            "time": 88.5,
            "velocity": 0.6299212598425197
          },
          {
            "duration": 0.375,
            "durationTicks": 120,
            "midi": 66,
            "name": "F#4",
            "ticks": 28440,
            "time": 88.875,
            "velocity": 0.6299212598425197
          },
          {
            "duration": 0.375,
            "durationTicks": 120,
            "midi": 65,
            "name": "F4",
            "ticks": 28560,
            "time": 89.25,
            "velocity": 0.6299212598425197
          },
          {
            "duration": 0.375,
            "durationTicks": 120,
            "midi": 59,
            "name": "B3",
            "ticks": 28680,
            "time": 89.625,
            "velocity": 0.6299212598425197
          },
          {
            "duration": 1.4250000000000114,
            "durationTicks": 456,
            "midi": 57,
            "name": "A3",
            "ticks": 28800,
            "time": 90,
            "velocity": 0.5511811023622047
          },
          {
            "duration": 4.5,
            "durationTicks": 1440,
            "midi": 71,
            "name": "B4",
            "ticks": 36000,
            "time": 112.5,
            "velocity": 0.47244094488188976
          },
          {
            "duration": 9,
            "durationTicks": 2880,
            "midi": 69,
            "name": "A4",
            "ticks": 37440,
            "time": 117,
            "velocity": 0.47244094488188976
          },
          {
            "duration": 1.5,
            "durationTicks": 480,
            "midi": 69,
            "name": "A4",
            "ticks": 40320,
            "time": 126,
            "velocity": 0.47244094488188976
          },
          {
            "duration": 0.6000000000000227,
            "durationTicks": 192,
            "midi": 68,
            "name": "G#4",
            "ticks": 40800,
            "time": 127.5,
            "velocity": 0.47244094488188976
          },
          {
            "duration": 0.75,
            "durationTicks": 240,
            "midi": 60,
            "name": "C4",
            "ticks": 42000,
            "time": 131.25,
            "velocity": 0.47244094488188976
          },
          {
            "duration": 0.75,
            "durationTicks": 240,
            "midi": 69,
            "name": "A4",
            "ticks": 42240,
            "time": 132,
            "velocity": 0.47244094488188976
          },
          {
            "duration": 0.6000000000000227,
            "durationTicks": 192,
            "midi": 72,
            "name": "C5",
            "ticks": 42480,
            "time": 132.75,
            "velocity": 0.47244094488188976
          },
          {
            "duration": 0.75,
            "durationTicks": 240,
            "midi": 59,
            "name": "B3",
            "ticks": 43440,
            "time": 135.75,
            "velocity": 0.47244094488188976
          },
          {
            "duration": 0.75,
            "durationTicks": 240,
            "midi": 68,
            "name": "G#4",
            "ticks": 43680,
            "time": 136.5,
            "velocity": 0.47244094488188976
          },
          {
            "duration": 0.6000000000000227,
            "durationTicks": 192,
            "midi": 68,
            "name": "G#4",
            "ticks": 43920,
            "time": 137.25,
            "velocity": 0.47244094488188976
          },
          {
            "duration": 2.25,
            "durationTicks": 720,
            "midi": 69,
            "name": "A4",
            "ticks": 44640,
            "time": 139.5,
            "velocity": 0.5826771653543307
          },
          {
            "duration": 2.25,
            "durationTicks": 720,
            "midi": 63,
            "name": "D#4",
            "ticks": 45360,
            "time": 141.75,
            "velocity": 0.5039370078740157
          },
          {
            "duration": 1.1999999999999886,
            "durationTicks": 384,
            "midi": 64,
            "name": "E4",
            "ticks": 46080,
            "time": 144,
            "velocity": 0.4330708661417323
          },
          {
            "duration": 0.75,
            "durationTicks": 240,
            "midi": 68,
            "name": "G#4",
            "ticks": 58800,
            "time": 183.75,
            "velocity": 0.47244094488188976
          },
          {
            "duration": 0.6000000000000227,
            "durationTicks": 192,
            "midi": 69,
            "name": "A4",
            "ticks": 59040,
            "time": 184.5,
            "velocity": 0.47244094488188976
          },
          {
            "duration": 0.6000000000000227,
            "durationTicks": 192,
            "midi": 66,
            "name": "F#4",
            "ticks": 59760,
            "time": 186.75,
            "velocity": 0.47244094488188976
          },
          {
            "duration": 0.75,
            "durationTicks": 240,
            "midi": 64,
            "name": "E4",
            "ticks": 60720,
            "time": 189.75,
            "velocity": 0.47244094488188976
          },
          {
            "duration": 0.75,
            "durationTicks": 240,
            "midi": 62,
            "name": "D4",
            "ticks": 60960,
            "time": 190.5,
            "velocity": 0.47244094488188976
          },
          {
            "duration": 0.6000000000000227,
            "durationTicks": 192,
            "midi": 61,
            "name": "C#4",
            "ticks": 61200,
            "time": 191.25,
            "velocity": 0.47244094488188976
          },
          {
            "duration": 0.375,
            "durationTicks": 120,
            "midi": 74,
            "name": "D5",
            "ticks": 65040,
            "time": 203.25,
            "velocity": 0.4881889763779528
          },
          {
            "duration": 0.29999999999998295,
            "durationTicks": 96,
            "midi": 71,
            "name": "B4",
            "ticks": 65160,
            "time": 203.625,
            "velocity": 0.4881889763779528
          },
          {
            "duration": 0.375,
            "durationTicks": 120,
            "midi": 71,
            "name": "B4",
            "ticks": 65280,
            "time": 204,
            "velocity": 0.48031496062992124
          },
          {
            "duration": 0.29999999999998295,
            "durationTicks": 96,
            "midi": 68,
            "name": "G#4",
            "ticks": 65400,
            "time": 204.375,
            "velocity": 0.47244094488188976
          },
          {
            "duration": 0.6000000000000227,
            "durationTicks": 192,
            "midi": 69,
            "name": "A4",
            "ticks": 65520,
            "time": 204.75,
            "velocity": 0.33858267716535434
          },
          {
            "duration": 1.5,
            "durationTicks": 480,
            "midi": 59,
            "name": "B3",
            "ticks": 66240,
            "time": 207,
            "velocity": 0.4645669291338583
          },
          {
            "duration": 0.75,
            "durationTicks": 240,
            "midi": 57,
            "name": "A3",
            "ticks": 66720,
            "time": 208.5,
            "velocity": 0.4566929133858268
          },
          {
            "duration": 0.6000000000000227,
            "durationTicks": 192,
            "midi": 56,
            "name": "G#3",
            "ticks": 66960,
            "time": 209.25,
            "velocity": 0.44881889763779526
          },
          {
            "duration": 1.5,
            "durationTicks": 480,
            "midi": 61,
            "name": "C#4",
            "ticks": 67680,
            "time": 211.5,
            "velocity": 0.47244094488188976
          },
          {
            "duration": 0.75,
            "durationTicks": 240,
            "midi": 59,
            "name": "B3",
            "ticks": 68160,
            "time": 213,
            "velocity": 0.4566929133858268
          },
          {
            "duration": 0.6000000000000227,
            "durationTicks": 192,
            "midi": 57,
            "name": "A3",
            "ticks": 68400,
            "time": 213.75,
            "velocity": 0.4409448818897638
          },
          {
            "duration": 0.375,
            "durationTicks": 120,
            "midi": 57,
            "name": "A3",
            "ticks": 69240,
            "time": 216.375,
            "velocity": 0.47244094488188976
          },
          {
            "duration": 0.375,
            "durationTicks": 120,
            "midi": 66,
            "name": "F#4",
            "ticks": 69360,
            "time": 216.75,
            "velocity": 0.47244094488188976
          },
          {
            "duration": 0.375,
            "durationTicks": 120,
            "midi": 57,
            "name": "A3",
            "ticks": 69480,
            "time": 217.125,
            "velocity": 0.47244094488188976
          },
          {
            "duration": 0.375,
            "durationTicks": 120,
            "midi": 66,
            "name": "F#4",
            "ticks": 69600,
            "time": 217.5,
            "velocity": 0.47244094488188976
          },
          {
            "duration": 0.375,
            "durationTicks": 120,
            "midi": 57,
            "name": "A3",
            "ticks": 69720,
            "time": 217.875,
            "velocity": 0.47244094488188976
          },
          {
            "duration": 0.375,
            "durationTicks": 120,
            "midi": 57,
            "name": "A3",
            "ticks": 69960,
            "time": 218.625,
            "velocity": 0.47244094488188976
          },
          {
            "duration": 0.375,
            "durationTicks": 120,
            "midi": 66,
            "name": "F#4",
            "ticks": 70080,
            "time": 219,
            "velocity": 0.47244094488188976
          },
          {
            "duration": 0.375,
            "durationTicks": 120,
            "midi": 57,
            "name": "A3",
            "ticks": 70200,
            "time": 219.375,
            "velocity": 0.47244094488188976
          },
          {
            "duration": 0.375,
            "durationTicks": 120,
            "midi": 66,
            "name": "F#4",
            "ticks": 70320,
            "time": 219.75,
            "velocity": 0.47244094488188976
          },
          {
            "duration": 0.375,
            "durationTicks": 120,
            "midi": 57,
            "name": "A3",
            "ticks": 70440,
            "time": 220.125,
            "velocity": 0.47244094488188976
          },
          {
            "duration": 0.6000000000000227,
            "durationTicks": 192,
            "midi": 57,
            "name": "A3",
            "ticks": 70560,
            "time": 220.5,
            "velocity": 0.47244094488188976
          },
          {
            "duration": 0.6000000000000227,
            "durationTicks": 192,
            "midi": 69,
            "name": "A4",
            "ticks": 70800,
            "time": 221.25,
            "velocity": 0.47244094488188976
          },
          {
            "duration": 0.6000000000000227,
            "durationTicks": 192,
            "midi": 69,
            "name": "A4",
            "ticks": 71040,
            "time": 222,
            "velocity": 0.47244094488188976
          },
          {
            "duration": 0.6000000000000227,
            "durationTicks": 192,
            "midi": 69,
            "name": "A4",
            "ticks": 71280,
            "time": 222.75,
            "velocity": 0.47244094488188976
          },
          {
            "duration": 0.6000000000000227,
            "durationTicks": 192,
            "midi": 69,
            "name": "A4",
            "ticks": 71520,
            "time": 223.5,
            "velocity": 0.47244094488188976
          },
          {
            "duration": 0.6000000000000227,
            "durationTicks": 192,
            "midi": 69,
            "name": "A4",
            "ticks": 71760,
            "time": 224.25,
            "velocity": 0.47244094488188976
          },
          {
            "duration": 0.6000000000000227,
            "durationTicks": 192,
            "midi": 69,
            "name": "A4",
            "ticks": 72000,
            "time": 225,
            "velocity": 0.47244094488188976
          },
          {
            "duration": 0.6000000000000227,
            "durationTicks": 192,
            "midi": 69,
            "name": "A4",
            "ticks": 72240,
            "time": 225.75,
            "velocity": 0.47244094488188976
          },
          {
            "duration": 0.6000000000000227,
            "durationTicks": 192,
            "midi": 69,
            "name": "A4",
            "ticks": 72480,
            "time": 226.5,
            "velocity": 0.47244094488188976
          },
          {
            "duration": 0.6000000000000227,
            "durationTicks": 192,
            "midi": 68,
            "name": "G#4",
            "ticks": 72720,
            "time": 227.25,
            "velocity": 0.47244094488188976
          },
          {
            "duration": 0.6000000000000227,
            "durationTicks": 192,
            "midi": 68,
            "name": "G#4",
            "ticks": 72960,
            "time": 228,
            "velocity": 0.47244094488188976
          },
          {
            "duration": 0.6000000000000227,
            "durationTicks": 192,
            "midi": 68,
            "name": "G#4",
            "ticks": 73200,
            "time": 228.75,
            "velocity": 0.47244094488188976
          },
          {
            "duration": 1.200000000000017,
            "durationTicks": 384,
            "midi": 69,
            "name": "A4",
            "ticks": 73440,
            "time": 229.5,
            "velocity": 0.2677165354330709
          },
          {
            "duration": 0.375,
            "durationTicks": 120,
            "midi": 57,
            "name": "A3",
            "ticks": 98040,
            "time": 306.375,
            "velocity": 0.47244094488188976
          },
          {
            "duration": 0.375,
            "durationTicks": 120,
            "midi": 61,
            "name": "C#4",
            "ticks": 98160,
            "time": 306.75,
            "velocity": 0.47244094488188976
          },
          {
            "duration": 0.375,
            "durationTicks": 120,
            "midi": 66,
            "name": "F#4",
            "ticks": 98280,
            "time": 307.125,
            "velocity": 0.47244094488188976
          },
          {
            "duration": 0.375,
            "durationTicks": 120,
            "midi": 61,
            "name": "C#4",
            "ticks": 98400,
            "time": 307.5,
            "velocity": 0.47244094488188976
          },
          {
            "duration": 0.375,
            "durationTicks": 120,
            "midi": 57,
            "name": "A3",
            "ticks": 98520,
            "time": 307.875,
            "velocity": 0.47244094488188976
          },
          {
            "duration": 0.375,
            "durationTicks": 120,
            "midi": 57,
            "name": "A3",
            "ticks": 98760,
            "time": 308.625,
            "velocity": 0.47244094488188976
          },
          {
            "duration": 0.375,
            "durationTicks": 120,
            "midi": 61,
            "name": "C#4",
            "ticks": 98880,
            "time": 309,
            "velocity": 0.47244094488188976
          },
          {
            "duration": 0.375,
            "durationTicks": 120,
            "midi": 66,
            "name": "F#4",
            "ticks": 99000,
            "time": 309.375,
            "velocity": 0.47244094488188976
          },
          {
            "duration": 0.375,
            "durationTicks": 120,
            "midi": 61,
            "name": "C#4",
            "ticks": 99120,
            "time": 309.75,
            "velocity": 0.47244094488188976
          },
          {
            "duration": 0.375,
            "durationTicks": 120,
            "midi": 57,
            "name": "A3",
            "ticks": 99240,
            "time": 310.125,
            "velocity": 0.47244094488188976
          },
          {
            "duration": 0.375,
            "durationTicks": 120,
            "midi": 57,
            "name": "A3",
            "ticks": 99480,
            "time": 310.875,
            "velocity": 0.47244094488188976
          },
          {
            "duration": 0.375,
            "durationTicks": 120,
            "midi": 61,
            "name": "C#4",
            "ticks": 99600,
            "time": 311.25,
            "velocity": 0.47244094488188976
          },
          {
            "duration": 0.375,
            "durationTicks": 120,
            "midi": 66,
            "name": "F#4",
            "ticks": 99720,
            "time": 311.625,
            "velocity": 0.47244094488188976
          },
          {
            "duration": 0.375,
            "durationTicks": 120,
            "midi": 61,
            "name": "C#4",
            "ticks": 99840,
            "time": 312,
            "velocity": 0.47244094488188976
          },
          {
            "duration": 0.375,
            "durationTicks": 120,
            "midi": 57,
            "name": "A3",
            "ticks": 99960,
            "time": 312.375,
            "velocity": 0.47244094488188976
          },
          {
            "duration": 0.375,
            "durationTicks": 120,
            "midi": 59,
            "name": "B3",
            "ticks": 100200,
            "time": 313.125,
            "velocity": 0.47244094488188976
          },
          {
            "duration": 0.375,
            "durationTicks": 120,
            "midi": 61,
            "name": "C#4",
            "ticks": 100320,
            "time": 313.5,
            "velocity": 0.47244094488188976
          },
          {
            "duration": 0.375,
            "durationTicks": 120,
            "midi": 65,
            "name": "F4",
            "ticks": 100440,
            "time": 313.875,
            "velocity": 0.47244094488188976
          },
          {
            "duration": 0.375,
            "durationTicks": 120,
            "midi": 61,
            "name": "C#4",
            "ticks": 100560,
            "time": 314.25,
            "velocity": 0.47244094488188976
          },
          {
            "duration": 0.375,
            "durationTicks": 120,
            "midi": 59,
            "name": "B3",
            "ticks": 100680,
            "time": 314.625,
            "velocity": 0.47244094488188976
          },
          {
            "duration": 0.375,
            "durationTicks": 120,
            "midi": 59,
            "name": "B3",
            "ticks": 100920,
            "time": 315.375,
            "velocity": 0.47244094488188976
          },
          {
            "duration": 0.375,
            "durationTicks": 120,
            "midi": 61,
            "name": "C#4",
            "ticks": 101040,
            "time": 315.75,
            "velocity": 0.47244094488188976
          },
          {
            "duration": 0.375,
            "durationTicks": 120,
            "midi": 65,
            "name": "F4",
            "ticks": 101160,
            "time": 316.125,
            "velocity": 0.47244094488188976
          },
          {
            "duration": 0.375,
            "durationTicks": 120,
            "midi": 61,
            "name": "C#4",
            "ticks": 101280,
            "time": 316.5,
            "velocity": 0.47244094488188976
          },
          {
            "duration": 0.375,
            "durationTicks": 120,
            "midi": 59,
            "name": "B3",
            "ticks": 101400,
            "time": 316.875,
            "velocity": 0.47244094488188976
          },
          {
            "duration": 0.375,
            "durationTicks": 120,
            "midi": 57,
            "name": "A3",
            "ticks": 101640,
            "time": 317.625,
            "velocity": 0.47244094488188976
          },
          {
            "duration": 0.375,
            "durationTicks": 120,
            "midi": 61,
            "name": "C#4",
            "ticks": 101760,
            "time": 318,
            "velocity": 0.47244094488188976
          },
          {
            "duration": 0.375,
            "durationTicks": 120,
            "midi": 66,
            "name": "F#4",
            "ticks": 101880,
            "time": 318.375,
            "velocity": 0.47244094488188976
          },
          {
            "duration": 0.375,
            "durationTicks": 120,
            "midi": 61,
            "name": "C#4",
            "ticks": 102000,
            "time": 318.75,
            "velocity": 0.47244094488188976
          },
          {
            "duration": 0.375,
            "durationTicks": 120,
            "midi": 57,
            "name": "A3",
            "ticks": 102120,
            "time": 319.125,
            "velocity": 0.47244094488188976
          },
          {
            "duration": 0.375,
            "durationTicks": 120,
            "midi": 62,
            "name": "D4",
            "ticks": 102360,
            "time": 319.875,
            "velocity": 0.47244094488188976
          },
          {
            "duration": 0.375,
            "durationTicks": 120,
            "midi": 66,
            "name": "F#4",
            "ticks": 102480,
            "time": 320.25,
            "velocity": 0.47244094488188976
          },
          {
            "duration": 0.375,
            "durationTicks": 120,
            "midi": 69,
            "name": "A4",
            "ticks": 102600,
            "time": 320.625,
            "velocity": 0.47244094488188976
          },
          {
            "duration": 0.375,
            "durationTicks": 120,
            "midi": 66,
            "name": "F#4",
            "ticks": 102720,
            "time": 321,
            "velocity": 0.47244094488188976
          },
          {
            "duration": 0.375,
            "durationTicks": 120,
            "midi": 62,
            "name": "D4",
            "ticks": 102840,
            "time": 321.375,
            "velocity": 0.47244094488188976
          },
          {
            "duration": 0.375,
            "durationTicks": 120,
            "midi": 59,
            "name": "B3",
            "ticks": 103080,
            "time": 322.125,
            "velocity": 0.47244094488188976
          },
          {
            "duration": 0.375,
            "durationTicks": 120,
            "midi": 62,
            "name": "D4",
            "ticks": 103200,
            "time": 322.5,
            "velocity": 0.47244094488188976
          },
          {
            "duration": 0.375,
            "durationTicks": 120,
            "midi": 66,
            "name": "F#4",
            "ticks": 103320,
            "time": 322.875,
            "velocity": 0.47244094488188976
          },
          {
            "duration": 0.375,
            "durationTicks": 120,
            "midi": 62,
            "name": "D4",
            "ticks": 103440,
            "time": 323.25,
            "velocity": 0.47244094488188976
          },
          {
            "duration": 0.375,
            "durationTicks": 120,
            "midi": 59,
            "name": "B3",
            "ticks": 103560,
            "time": 323.625,
            "velocity": 0.47244094488188976
          },
          {
            "duration": 0.375,
            "durationTicks": 120,
            "midi": 59,
            "name": "B3",
            "ticks": 103800,
            "time": 324.375,
            "velocity": 0.47244094488188976
          },
          {
            "duration": 0.375,
            "durationTicks": 120,
            "midi": 61,
            "name": "C#4",
            "ticks": 103920,
            "time": 324.75,
            "velocity": 0.47244094488188976
          },
          {
            "duration": 0.375,
            "durationTicks": 120,
            "midi": 68,
            "name": "G#4",
            "ticks": 104040,
            "time": 325.125,
            "velocity": 0.47244094488188976
          },
          {
            "duration": 0.375,
            "durationTicks": 120,
            "midi": 61,
            "name": "C#4",
            "ticks": 104160,
            "time": 325.5,
            "velocity": 0.47244094488188976
          },
          {
            "duration": 0.375,
            "durationTicks": 120,
            "midi": 59,
            "name": "B3",
            "ticks": 104280,
            "time": 325.875,
            "velocity": 0.47244094488188976
          },
          {
            "duration": 0.375,
            "durationTicks": 120,
            "midi": 57,
            "name": "A3",
            "ticks": 104520,
            "time": 326.625,
            "velocity": 0.6299212598425197
          },
          {
            "duration": 0.375,
            "durationTicks": 120,
            "midi": 61,
            "name": "C#4",
            "ticks": 104640,
            "time": 327,
            "velocity": 0.6299212598425197
          },
          {
            "duration": 0.375,
            "durationTicks": 120,
            "midi": 66,
            "name": "F#4",
            "ticks": 104760,
            "time": 327.375,
            "velocity": 0.6299212598425197
          },
          {
            "duration": 0.375,
            "durationTicks": 120,
            "midi": 61,
            "name": "C#4",
            "ticks": 104880,
            "time": 327.75,
            "velocity": 0.6299212598425197
          },
          {
            "duration": 0.375,
            "durationTicks": 120,
            "midi": 57,
            "name": "A3",
            "ticks": 105000,
            "time": 328.125,
            "velocity": 0.6299212598425197
          },
          {
            "duration": 0.375,
            "durationTicks": 120,
            "midi": 63,
            "name": "D#4",
            "ticks": 105240,
            "time": 328.875,
            "velocity": 0.6299212598425197
          },
          {
            "duration": 0.375,
            "durationTicks": 120,
            "midi": 66,
            "name": "F#4",
            "ticks": 105360,
            "time": 329.25,
            "velocity": 0.6299212598425197
          },
          {
            "duration": 0.375,
            "durationTicks": 120,
            "midi": 68,
            "name": "G#4",
            "ticks": 105480,
            "time": 329.625,
            "velocity": 0.6299212598425197
          },
          {
            "duration": 0.375,
            "durationTicks": 120,
            "midi": 66,
            "name": "F#4",
            "ticks": 105600,
            "time": 330,
            "velocity": 0.6299212598425197
          },
          {
            "duration": 0.375,
            "durationTicks": 120,
            "midi": 63,
            "name": "D#4",
            "ticks": 105720,
            "time": 330.375,
            "velocity": 0.6299212598425197
          },
          {
            "duration": 0.375,
            "durationTicks": 120,
            "midi": 68,
            "name": "G#4",
            "ticks": 105960,
            "time": 331.125,
            "velocity": 0.6299212598425197
          },
          {
            "duration": 0.375,
            "durationTicks": 120,
            "midi": 71,
            "name": "B4",
            "ticks": 106080,
            "time": 331.5,
            "velocity": 0.6299212598425197
          },
          {
            "duration": 0.375,
            "durationTicks": 120,
            "midi": 74,
            "name": "D5",
            "ticks": 106200,
            "time": 331.875,
            "velocity": 0.6299212598425197
          },
          {
            "duration": 0.375,
            "durationTicks": 120,
            "midi": 71,
            "name": "B4",
            "ticks": 106320,
            "time": 332.25,
            "velocity": 0.6299212598425197
          },
          {
            "duration": 0.375,
            "durationTicks": 120,
            "midi": 68,
            "name": "G#4",
            "ticks": 106440,
            "time": 332.625,
            "velocity": 0.6299212598425197
          },
          {
            "duration": 0.375,
            "durationTicks": 120,
            "midi": 61,
            "name": "C#4",
            "ticks": 106680,
            "time": 333.375,
            "velocity": 0.6299212598425197
          },
          {
            "duration": 0.375,
            "durationTicks": 120,
            "midi": 64,
            "name": "E4",
            "ticks": 106800,
            "time": 333.75,
            "velocity": 0.6299212598425197
          },
          {
            "duration": 0.375,
            "durationTicks": 120,
            "midi": 66,
            "name": "F#4",
            "ticks": 106920,
            "time": 334.125,
            "velocity": 0.6299212598425197
          },
          {
            "duration": 0.375,
            "durationTicks": 120,
            "midi": 64,
            "name": "E4",
            "ticks": 107040,
            "time": 334.5,
            "velocity": 0.6299212598425197
          },
          {
            "duration": 0.375,
            "durationTicks": 120,
            "midi": 61,
            "name": "C#4",
            "ticks": 107160,
            "time": 334.875,
            "velocity": 0.6299212598425197
          },
          {
            "duration": 0.375,
            "durationTicks": 120,
            "midi": 59,
            "name": "B3",
            "ticks": 107400,
            "time": 335.625,
            "velocity": 0.6299212598425197
          },
          {
            "duration": 0.375,
            "durationTicks": 120,
            "midi": 62,
            "name": "D4",
            "ticks": 107520,
            "time": 336,
            "velocity": 0.6299212598425197
          },
          {
            "duration": 0.375,
            "durationTicks": 120,
            "midi": 67,
            "name": "G4",
            "ticks": 107640,
            "time": 336.375,
            "velocity": 0.6299212598425197
          },
          {
            "duration": 0.375,
            "durationTicks": 120,
            "midi": 62,
            "name": "D4",
            "ticks": 107760,
            "time": 336.75,
            "velocity": 0.6299212598425197
          },
          {
            "duration": 0.375,
            "durationTicks": 120,
            "midi": 59,
            "name": "B3",
            "ticks": 107880,
            "time": 337.125,
            "velocity": 0.6299212598425197
          },
          {
            "duration": 0.375,
            "durationTicks": 120,
            "midi": 61,
            "name": "C#4",
            "ticks": 108120,
            "time": 337.875,
            "velocity": 0.6299212598425197
          },
          {
            "duration": 0.375,
            "durationTicks": 120,
            "midi": 65,
            "name": "F4",
            "ticks": 108240,
            "time": 338.25,
            "velocity": 0.6299212598425197
          },
          {
            "duration": 0.375,
            "durationTicks": 120,
            "midi": 68,
            "name": "G#4",
            "ticks": 108360,
            "time": 338.625,
            "velocity": 0.6299212598425197
          },
          {
            "duration": 0.375,
            "durationTicks": 120,
            "midi": 66,
            "name": "F#4",
            "ticks": 108480,
            "time": 339,
            "velocity": 0.6299212598425197
          },
          {
            "duration": 0.375,
            "durationTicks": 120,
            "midi": 61,
            "name": "C#4",
            "ticks": 108600,
            "time": 339.375,
            "velocity": 0.6299212598425197
          },
          {
            "duration": 0.375,
            "durationTicks": 120,
            "midi": 66,
            "name": "F#4",
            "ticks": 108840,
            "time": 340.125,
            "velocity": 0.6299212598425197
          },
          {
            "duration": 0.375,
            "durationTicks": 120,
            "midi": 62,
            "name": "D4",
            "ticks": 108960,
            "time": 340.5,
            "velocity": 0.6299212598425197
          },
          {
            "duration": 0.375,
            "durationTicks": 120,
            "midi": 66,
            "name": "F#4",
            "ticks": 109080,
            "time": 340.875,
            "velocity": 0.6299212598425197
          },
          {
            "duration": 0.375,
            "durationTicks": 120,
            "midi": 65,
            "name": "F4",
            "ticks": 109200,
            "time": 341.25,
            "velocity": 0.6299212598425197
          },
          {
            "duration": 0.375,
            "durationTicks": 120,
            "midi": 59,
            "name": "B3",
            "ticks": 109320,
            "time": 341.625,
            "velocity": 0.6299212598425197
          },
          {
            "duration": 1.4249999999999545,
            "durationTicks": 456,
            "midi": 57,
            "name": "A3",
            "ticks": 109440,
            "time": 342,
            "velocity": 0.5511811023622047
          },
          {
            "duration": 2.25,
            "durationTicks": 720,
            "midi": 69,
            "name": "A4",
            "ticks": 110880,
            "time": 346.5,
            "velocity": 0.47244094488188976
          },
          {
            "duration": 3,
            "durationTicks": 960,
            "midi": 68,
            "name": "G#4",
            "ticks": 111600,
            "time": 348.75,
            "velocity": 0.47244094488188976
          },
          {
            "duration": 0.75,
            "durationTicks": 240,
            "midi": 61,
            "name": "C#4",
            "ticks": 112560,
            "time": 351.75,
            "velocity": 0.47244094488188976
          },
          {
            "duration": 0.75,
            "durationTicks": 240,
            "midi": 59,
            "name": "B3",
            "ticks": 112800,
            "time": 352.5,
            "velocity": 0.47244094488188976
          },
          {
            "duration": 0.75,
            "durationTicks": 240,
            "midi": 57,
            "name": "A3",
            "ticks": 113040,
            "time": 353.25,
            "velocity": 0.47244094488188976
          },
          {
            "duration": 0.75,
            "durationTicks": 240,
            "midi": 59,
            "name": "B3",
            "ticks": 113280,
            "time": 354,
            "velocity": 0.47244094488188976
          },
          {
            "duration": 0.75,
            "durationTicks": 240,
            "midi": 61,
            "name": "C#4",
            "ticks": 113520,
            "time": 354.75,
            "velocity": 0.47244094488188976
          },
          {
            "duration": 2.25,
            "durationTicks": 720,
            "midi": 59,
            "name": "B3",
            "ticks": 113760,
            "time": 355.5,
            "velocity": 0.47244094488188976
          },
          {
            "duration": 2.25,
            "durationTicks": 720,
            "midi": 68,
            "name": "G#4",
            "ticks": 114480,
            "time": 357.75,
            "velocity": 0.47244094488188976
          },
          {
            "duration": 1.2000000000000455,
            "durationTicks": 384,
            "midi": 65,
            "name": "F4",
            "ticks": 115200,
            "time": 360,
            "velocity": 0.47244094488188976
          },
          {
            "duration": 0.24374999999997726,
            "durationTicks": 78,
            "midi": 66,
            "name": "F#4",
            "ticks": 121080,
            "time": 378.375,
            "velocity": 0.2677165354330709
          },
          {
            "duration": 0.24374999999997726,
            "durationTicks": 78,
            "midi": 69,
            "name": "A4",
            "ticks": 121320,
            "time": 379.125,
            "velocity": 0.2677165354330709
          },
          {
            "duration": 0.24374999999997726,
            "durationTicks": 78,
            "midi": 73,
            "name": "C#5",
            "ticks": 121560,
            "time": 379.875,
            "velocity": 0.2677165354330709
          },
          {
            "duration": 0.24374999999997726,
            "durationTicks": 78,
            "midi": 69,
            "name": "A4",
            "ticks": 121800,
            "time": 380.625,
            "velocity": 0.2677165354330709
          },
          {
            "duration": 0.24374999999997726,
            "durationTicks": 78,
            "midi": 66,
            "name": "F#4",
            "ticks": 122040,
            "time": 381.375,
            "velocity": 0.2677165354330709
          },
          {
            "duration": 0.24374999999997726,
            "durationTicks": 78,
            "midi": 61,
            "name": "C#4",
            "ticks": 122280,
            "time": 382.125,
            "velocity": 0.2677165354330709
          },
          {
            "duration": 0.24374999999997726,
            "durationTicks": 78,
            "midi": 62,
            "name": "D4",
            "ticks": 122520,
            "time": 382.875,
            "velocity": 0.2677165354330709
          },
          {
            "duration": 0.24374999999997726,
            "durationTicks": 78,
            "midi": 66,
            "name": "F#4",
            "ticks": 122760,
            "time": 383.625,
            "velocity": 0.2677165354330709
          },
          {
            "duration": 0.2437500000000341,
            "durationTicks": 78,
            "midi": 69,
            "name": "A4",
            "ticks": 123000,
            "time": 384.375,
            "velocity": 0.2677165354330709
          },
          {
            "duration": 0.2437500000000341,
            "durationTicks": 78,
            "midi": 66,
            "name": "F#4",
            "ticks": 123240,
            "time": 385.125,
            "velocity": 0.2677165354330709
          },
          {
            "duration": 0.2437500000000341,
            "durationTicks": 78,
            "midi": 62,
            "name": "D4",
            "ticks": 123480,
            "time": 385.875,
            "velocity": 0.2677165354330709
          },
          {
            "duration": 0.2437500000000341,
            "durationTicks": 78,
            "midi": 57,
            "name": "A3",
            "ticks": 123720,
            "time": 386.625,
            "velocity": 0.2677165354330709
          },
          {
            "duration": 0.2437500000000341,
            "durationTicks": 78,
            "midi": 59,
            "name": "B3",
            "ticks": 123960,
            "time": 387.375,
            "velocity": 0.2677165354330709
          },
          {
            "duration": 0.2437500000000341,
            "durationTicks": 78,
            "midi": 62,
            "name": "D4",
            "ticks": 124200,
            "time": 388.125,
            "velocity": 0.2677165354330709
          },
          {
            "duration": 0.2437500000000341,
            "durationTicks": 78,
            "midi": 61,
            "name": "C#4",
            "ticks": 124440,
            "time": 388.875,
            "velocity": 0.2677165354330709
          },
          {
            "duration": 0.2437500000000341,
            "durationTicks": 78,
            "midi": 59,
            "name": "B3",
            "ticks": 124680,
            "time": 389.625,
            "velocity": 0.2677165354330709
          },
          {
            "duration": 0.2437500000000341,
            "durationTicks": 78,
            "midi": 57,
            "name": "A3",
            "ticks": 124920,
            "time": 390.375,
            "velocity": 0.2677165354330709
          },
          {
            "duration": 0.2437500000000341,
            "durationTicks": 78,
            "midi": 56,
            "name": "G#3",
            "ticks": 125160,
            "time": 391.125,
            "velocity": 0.2677165354330709
          },
          {
            "duration": 0.2437500000000341,
            "durationTicks": 78,
            "midi": 61,
            "name": "C#4",
            "ticks": 125400,
            "time": 391.875,
            "velocity": 0.2677165354330709
          },
          {
            "duration": 0.2437500000000341,
            "durationTicks": 78,
            "midi": 66,
            "name": "F#4",
            "ticks": 125640,
            "time": 392.625,
            "velocity": 0.2677165354330709
          },
          {
            "duration": 0.2437500000000341,
            "durationTicks": 78,
            "midi": 69,
            "name": "A4",
            "ticks": 125880,
            "time": 393.375,
            "velocity": 0.2677165354330709
          },
          {
            "duration": 0.2437500000000341,
            "durationTicks": 78,
            "midi": 61,
            "name": "C#4",
            "ticks": 126120,
            "time": 394.125,
            "velocity": 0.2677165354330709
          },
          {
            "duration": 0.2437500000000341,
            "durationTicks": 78,
            "midi": 65,
            "name": "F4",
            "ticks": 126360,
            "time": 394.875,
            "velocity": 0.2677165354330709
          },
          {
            "duration": 0.2437500000000341,
            "durationTicks": 78,
            "midi": 68,
            "name": "G#4",
            "ticks": 126600,
            "time": 395.625,
            "velocity": 0.2677165354330709
          },
          {
            "duration": 0.2437500000000341,
            "durationTicks": 78,
            "midi": 66,
            "name": "F#4",
            "ticks": 126840,
            "time": 396.375,
            "velocity": 0.2677165354330709
          },
          {
            "duration": 0.2437500000000341,
            "durationTicks": 78,
            "midi": 69,
            "name": "A4",
            "ticks": 127080,
            "time": 397.125,
            "velocity": 0.2677165354330709
          },
          {
            "duration": 0.2437500000000341,
            "durationTicks": 78,
            "midi": 73,
            "name": "C#5",
            "ticks": 127320,
            "time": 397.875,
            "velocity": 0.2677165354330709
          },
          {
            "duration": 0.2437500000000341,
            "durationTicks": 78,
            "midi": 69,
            "name": "A4",
            "ticks": 127560,
            "time": 398.625,
            "velocity": 0.2677165354330709
          },
          {
            "duration": 0.2437500000000341,
            "durationTicks": 78,
            "midi": 66,
            "name": "F#4",
            "ticks": 127800,
            "time": 399.375,
            "velocity": 0.2677165354330709
          },
          {
            "duration": 0.2437500000000341,
            "durationTicks": 78,
            "midi": 61,
            "name": "C#4",
            "ticks": 128040,
            "time": 400.125,
            "velocity": 0.2677165354330709
          },
          {
            "duration": 0.2437500000000341,
            "durationTicks": 78,
            "midi": 62,
            "name": "D4",
            "ticks": 128280,
            "time": 400.875,
            "velocity": 0.2677165354330709
          },
          {
            "duration": 0.2437500000000341,
            "durationTicks": 78,
            "midi": 66,
            "name": "F#4",
            "ticks": 128520,
            "time": 401.625,
            "velocity": 0.2677165354330709
          },
          {
            "duration": 0.2437500000000341,
            "durationTicks": 78,
            "midi": 69,
            "name": "A4",
            "ticks": 128760,
            "time": 402.375,
            "velocity": 0.2677165354330709
          },
          {
            "duration": 0.2437500000000341,
            "durationTicks": 78,
            "midi": 66,
            "name": "F#4",
            "ticks": 129000,
            "time": 403.125,
            "velocity": 0.2677165354330709
          },
          {
            "duration": 0.2437500000000341,
            "durationTicks": 78,
            "midi": 62,
            "name": "D4",
            "ticks": 129240,
            "time": 403.875,
            "velocity": 0.2677165354330709
          },
          {
            "duration": 0.2437500000000341,
            "durationTicks": 78,
            "midi": 57,
            "name": "A3",
            "ticks": 129480,
            "time": 404.625,
            "velocity": 0.2677165354330709
          },
          {
            "duration": 0.2437500000000341,
            "durationTicks": 78,
            "midi": 59,
            "name": "B3",
            "ticks": 129720,
            "time": 405.375,
            "velocity": 0.2677165354330709
          },
          {
            "duration": 0.2437500000000341,
            "durationTicks": 78,
            "midi": 62,
            "name": "D4",
            "ticks": 129960,
            "time": 406.125,
            "velocity": 0.2677165354330709
          },
          {
            "duration": 0.2437500000000341,
            "durationTicks": 78,
            "midi": 67,
            "name": "G4",
            "ticks": 130200,
            "time": 406.875,
            "velocity": 0.2677165354330709
          },
          {
            "duration": 0.2437500000000341,
            "durationTicks": 78,
            "midi": 71,
            "name": "B4",
            "ticks": 130440,
            "time": 407.625,
            "velocity": 0.2677165354330709
          },
          {
            "duration": 0.2437500000000341,
            "durationTicks": 78,
            "midi": 67,
            "name": "G4",
            "ticks": 130680,
            "time": 408.375,
            "velocity": 0.2677165354330709
          },
          {
            "duration": 0.2437500000000341,
            "durationTicks": 78,
            "midi": 59,
            "name": "B3",
            "ticks": 130920,
            "time": 409.125,
            "velocity": 0.2677165354330709
          },
          {
            "duration": 0.2437500000000341,
            "durationTicks": 78,
            "midi": 61,
            "name": "C#4",
            "ticks": 131160,
            "time": 409.875,
            "velocity": 0.2677165354330709
          },
          {
            "duration": 0.2437500000000341,
            "durationTicks": 78,
            "midi": 66,
            "name": "F#4",
            "ticks": 131400,
            "time": 410.625,
            "velocity": 0.2677165354330709
          },
          {
            "duration": 0.2437500000000341,
            "durationTicks": 78,
            "midi": 69,
            "name": "A4",
            "ticks": 131640,
            "time": 411.375,
            "velocity": 0.2677165354330709
          },
          {
            "duration": 0.2437500000000341,
            "durationTicks": 78,
            "midi": 61,
            "name": "C#4",
            "ticks": 131880,
            "time": 412.125,
            "velocity": 0.2677165354330709
          },
          {
            "duration": 0.2437500000000341,
            "durationTicks": 78,
            "midi": 65,
            "name": "F4",
            "ticks": 132120,
            "time": 412.875,
            "velocity": 0.2677165354330709
          },
          {
            "duration": 0.2437500000000341,
            "durationTicks": 78,
            "midi": 68,
            "name": "G#4",
            "ticks": 132360,
            "time": 413.625,
            "velocity": 0.2677165354330709
          },
          {
            "duration": 1.2000000000000455,
            "durationTicks": 384,
            "midi": 66,
            "name": "F#4",
            "ticks": 132480,
            "time": 414,
            "velocity": 0.47244094488188976
          },
          {
            "duration": 2.25,
            "durationTicks": 720,
            "midi": 74,
            "name": "D5",
            "ticks": 133920,
            "time": 418.5,
            "velocity": 0.47244094488188976
          },
          {
            "duration": 3,
            "durationTicks": 960,
            "midi": 59,
            "name": "B3",
            "ticks": 134640,
            "time": 420.75,
            "velocity": 0.47244094488188976
          },
          {
            "duration": 0.4500000000000455,
            "durationTicks": 144,
            "midi": 57,
            "name": "A3",
            "ticks": 135600,
            "time": 423.75,
            "velocity": 0.47244094488188976
          },
          {
            "duration": 0.4500000000000455,
            "durationTicks": 144,
            "midi": 57,
            "name": "A3",
            "ticks": 135840,
            "time": 424.5,
            "velocity": 0.47244094488188976
          },
          {
            "duration": 2.25,
            "durationTicks": 720,
            "midi": 74,
            "name": "D5",
            "ticks": 136800,
            "time": 427.5,
            "velocity": 0.47244094488188976
          },
          {
            "duration": 3,
            "durationTicks": 960,
            "midi": 59,
            "name": "B3",
            "ticks": 137520,
            "time": 429.75,
            "velocity": 0.47244094488188976
          },
          {
            "duration": 0.4500000000000455,
            "durationTicks": 144,
            "midi": 57,
            "name": "A3",
            "ticks": 138480,
            "time": 432.75,
            "velocity": 0.47244094488188976
          },
          {
            "duration": 0.4500000000000455,
            "durationTicks": 144,
            "midi": 57,
            "name": "A3",
            "ticks": 138720,
            "time": 433.5,
            "velocity": 0.47244094488188976
          },
          {
            "duration": 2.25,
            "durationTicks": 720,
            "midi": 69,
            "name": "A4",
            "ticks": 139680,
            "time": 436.5,
            "velocity": 0.47244094488188976
          },
          {
            "duration": 2.25,
            "durationTicks": 720,
            "midi": 68,
            "name": "G#4",
            "ticks": 140400,
            "time": 438.75,
            "velocity": 0.47244094488188976
          },
          {
            "duration": 0.5625,
            "durationTicks": 180,
            "midi": 66,
            "name": "F#4",
            "ticks": 141120,
            "time": 441,
            "velocity": 0.4251968503937008
          },
          {
            "duration": 0.5625,
            "durationTicks": 180,
            "midi": 69,
            "name": "A4",
            "ticks": 141840,
            "time": 443.25,
            "velocity": 0.4094488188976378
          },
          {
            "duration": 0.5625,
            "durationTicks": 180,
            "midi": 73,
            "name": "C#5",
            "ticks": 142560,
            "time": 445.5,
            "velocity": 0.3937007874015748
          }
        ]
      },
      {
        "channel": 0,
        "controlChanges": {},
        "pitchBends": [],
        "instrument": {
          "family": "piano",
          "number": 0,
          "name": "acoustic grand piano"
        },
        "name": "Piano Concerto n23 K488 2mov",
        "notes": [],
        "endOfTrackTicks": 144000
      },
      {
        "channel": 12,
        "controlChanges": {
          "7": [
            {
              "number": 7,
              "ticks": 0,
              "time": 0,
              "value": 0.7637795275590551
            }
          ],
          "10": [
            {
              "number": 10,
              "ticks": 0,
              "time": 0,
              "value": 0.7716535433070866
            }
          ],
          "91": [
            {
              "number": 91,
              "ticks": 0,
              "time": 0,
              "value": 0.6299212598425197
            }
          ]
        },
        "pitchBends": [],
        "instrument": {
          "family": "ensemble",
          "number": 48,
          "name": "string ensemble 1"
        },
        "name": "",
        "notes": [
          {
            "duration": 13.5,
            "durationTicks": 4320,
            "midi": 49,
            "name": "C#3",
            "ticks": 17280,
            "time": 54,
            "velocity": 0.47244094488188976
          },
          {
            "duration": 2.25,
            "durationTicks": 720,
            "midi": 54,
            "name": "F#3",
            "ticks": 21600,
            "time": 67.5,
            "velocity": 0.47244094488188976
          },
          {
            "duration": 4.5,
            "durationTicks": 1440,
            "midi": 56,
            "name": "G#3",
            "ticks": 22320,
            "time": 69.75,
            "velocity": 0.47244094488188976
          },
          {
            "duration": 2.25,
            "durationTicks": 720,
            "midi": 54,
            "name": "F#3",
            "ticks": 23760,
            "time": 74.25,
            "velocity": 0.6299212598425197
          },
          {
            "duration": 2.25,
            "durationTicks": 720,
            "midi": 60,
            "name": "C4",
            "ticks": 24480,
            "time": 76.5,
            "velocity": 0.6299212598425197
          },
          {
            "duration": 2.25,
            "durationTicks": 720,
            "midi": 59,
            "name": "B3",
            "ticks": 25200,
            "time": 78.75,
            "velocity": 0.6299212598425197
          },
          {
            "duration": 2.25,
            "durationTicks": 720,
            "midi": 58,
            "name": "A#3",
            "ticks": 25920,
            "time": 81,
            "velocity": 0.6299212598425197
          },
          {
            "duration": 0.75,
            "durationTicks": 240,
            "midi": 59,
            "name": "B3",
            "ticks": 26640,
            "time": 83.25,
            "velocity": 0.6299212598425197
          },
          {
            "duration": 0.75,
            "durationTicks": 240,
            "midi": 55,
            "name": "G3",
            "ticks": 26880,
            "time": 84,
            "velocity": 0.6299212598425197
          },
          {
            "duration": 0.75,
            "durationTicks": 240,
            "midi": 54,
            "name": "F#3",
            "ticks": 27120,
            "time": 84.75,
            "velocity": 0.6299212598425197
          },
          {
            "duration": 0.75,
            "durationTicks": 240,
            "midi": 53,
            "name": "F3",
            "ticks": 27360,
            "time": 85.5,
            "velocity": 0.6299212598425197
          },
          {
            "duration": 0.75,
            "durationTicks": 240,
            "midi": 49,
            "name": "C#3",
            "ticks": 27600,
            "time": 86.25,
            "velocity": 0.6299212598425197
          },
          {
            "duration": 0.75,
            "durationTicks": 240,
            "midi": 54,
            "name": "F#3",
            "ticks": 27840,
            "time": 87,
            "velocity": 0.6299212598425197
          },
          {
            "duration": 0.75,
            "durationTicks": 240,
            "midi": 62,
            "name": "D4",
            "ticks": 28080,
            "time": 87.75,
            "velocity": 0.6299212598425197
          },
          {
            "duration": 0.75,
            "durationTicks": 240,
            "midi": 59,
            "name": "B3",
            "ticks": 28320,
            "time": 88.5,
            "velocity": 0.6299212598425197
          },
          {
            "duration": 0.75,
            "durationTicks": 240,
            "midi": 61,
            "name": "C#4",
            "ticks": 28560,
            "time": 89.25,
            "velocity": 0.6299212598425197
          },
          {
            "duration": 1.4250000000000114,
            "durationTicks": 456,
            "midi": 54,
            "name": "F#3",
            "ticks": 28800,
            "time": 90,
            "velocity": 0.5511811023622047
          },
          {
            "duration": 9,
            "durationTicks": 2880,
            "midi": 64,
            "name": "E4",
            "ticks": 36000,
            "time": 112.5,
            "velocity": 0.47244094488188976
          },
          {
            "duration": 4.5,
            "durationTicks": 1440,
            "midi": 66,
            "name": "F#4",
            "ticks": 38880,
            "time": 121.5,
            "velocity": 0.47244094488188976
          },
          {
            "duration": 0.6000000000000085,
            "durationTicks": 192,
            "midi": 64,
            "name": "E4",
            "ticks": 40320,
            "time": 126,
            "velocity": 0.47244094488188976
          },
          {
            "duration": 0.6000000000000227,
            "durationTicks": 192,
            "midi": 64,
            "name": "E4",
            "ticks": 41040,
            "time": 128.25,
            "velocity": 0.47244094488188976
          },
          {
            "duration": 0.6000000000000227,
            "durationTicks": 192,
            "midi": 64,
            "name": "E4",
            "ticks": 41760,
            "time": 130.5,
            "velocity": 0.47244094488188976
          },
          {
            "duration": 0.6000000000000227,
            "durationTicks": 192,
            "midi": 64,
            "name": "E4",
            "ticks": 42480,
            "time": 132.75,
            "velocity": 0.47244094488188976
          },
          {
            "duration": 0.6000000000000227,
            "durationTicks": 192,
            "midi": 64,
            "name": "E4",
            "ticks": 43200,
            "time": 135,
            "velocity": 0.47244094488188976
          },
          {
            "duration": 0.6000000000000227,
            "durationTicks": 192,
            "midi": 64,
            "name": "E4",
            "ticks": 43920,
            "time": 137.25,
            "velocity": 0.47244094488188976
          },
          {
            "duration": 2.25,
            "durationTicks": 720,
            "midi": 60,
            "name": "C4",
            "ticks": 44640,
            "time": 139.5,
            "velocity": 0.5748031496062992
          },
          {
            "duration": 2.25,
            "durationTicks": 720,
            "midi": 57,
            "name": "A3",
            "ticks": 45360,
            "time": 141.75,
            "velocity": 0.5118110236220472
          },
          {
            "duration": 1.1999999999999886,
            "durationTicks": 384,
            "midi": 59,
            "name": "B3",
            "ticks": 46080,
            "time": 144,
            "velocity": 0.4566929133858268
          },
          {
            "duration": 0.75,
            "durationTicks": 240,
            "midi": 59,
            "name": "B3",
            "ticks": 58800,
            "time": 183.75,
            "velocity": 0.47244094488188976
          },
          {
            "duration": 0.6000000000000227,
            "durationTicks": 192,
            "midi": 57,
            "name": "A3",
            "ticks": 59040,
            "time": 184.5,
            "velocity": 0.47244094488188976
          },
          {
            "duration": 0.6000000000000227,
            "durationTicks": 192,
            "midi": 62,
            "name": "D4",
            "ticks": 59760,
            "time": 186.75,
            "velocity": 0.47244094488188976
          },
          {
            "duration": 0.75,
            "durationTicks": 240,
            "midi": 61,
            "name": "C#4",
            "ticks": 60720,
            "time": 189.75,
            "velocity": 0.47244094488188976
          },
          {
            "duration": 0.75,
            "durationTicks": 240,
            "midi": 59,
            "name": "B3",
            "ticks": 60960,
            "time": 190.5,
            "velocity": 0.47244094488188976
          },
          {
            "duration": 0.6000000000000227,
            "durationTicks": 192,
            "midi": 57,
            "name": "A3",
            "ticks": 61200,
            "time": 191.25,
            "velocity": 0.47244094488188976
          },
          {
            "duration": 0.75,
            "durationTicks": 240,
            "midi": 66,
            "name": "F#4",
            "ticks": 65040,
            "time": 203.25,
            "velocity": 0.47244094488188976
          },
          {
            "duration": 0.75,
            "durationTicks": 240,
            "midi": 64,
            "name": "E4",
            "ticks": 65280,
            "time": 204,
            "velocity": 0.47244094488188976
          },
          {
            "duration": 0.6000000000000227,
            "durationTicks": 192,
            "midi": 64,
            "name": "E4",
            "ticks": 65520,
            "time": 204.75,
            "velocity": 0.47244094488188976
          },
          {
            "duration": 6,
            "durationTicks": 1920,
            "midi": 52,
            "name": "E3",
            "ticks": 66240,
            "time": 207,
            "velocity": 0.47244094488188976
          },
          {
            "duration": 0.75,
            "durationTicks": 240,
            "midi": 56,
            "name": "G#3",
            "ticks": 68160,
            "time": 213,
            "velocity": 0.47244094488188976
          },
          {
            "duration": 0.6000000000000227,
            "durationTicks": 192,
            "midi": 57,
            "name": "A3",
            "ticks": 68400,
            "time": 213.75,
            "velocity": 0.47244094488188976
          },
          {
            "duration": 2.25,
            "durationTicks": 720,
            "midi": 59,
            "name": "B3",
            "ticks": 69120,
            "time": 216,
            "velocity": 0.47244094488188976
          },
          {
            "duration": 2.25,
            "durationTicks": 720,
            "midi": 60,
            "name": "C4",
            "ticks": 69840,
            "time": 218.25,
            "velocity": 0.47244094488188976
          },
          {
            "duration": 0.6000000000000227,
            "durationTicks": 192,
            "midi": 61,
            "name": "C#4",
            "ticks": 70560,
            "time": 220.5,
            "velocity": 0.47244094488188976
          },
          {
            "duration": 0.6000000000000227,
            "durationTicks": 192,
            "midi": 64,
            "name": "E4",
            "ticks": 70800,
            "time": 221.25,
            "velocity": 0.47244094488188976
          },
          {
            "duration": 0.6000000000000227,
            "durationTicks": 192,
            "midi": 64,
            "name": "E4",
            "ticks": 71040,
            "time": 222,
            "velocity": 0.47244094488188976
          },
          {
            "duration": 0.6000000000000227,
            "durationTicks": 192,
            "midi": 64,
            "name": "E4",
            "ticks": 71280,
            "time": 222.75,
            "velocity": 0.47244094488188976
          },
          {
            "duration": 0.6000000000000227,
            "durationTicks": 192,
            "midi": 64,
            "name": "E4",
            "ticks": 71520,
            "time": 223.5,
            "velocity": 0.47244094488188976
          },
          {
            "duration": 0.6000000000000227,
            "durationTicks": 192,
            "midi": 64,
            "name": "E4",
            "ticks": 71760,
            "time": 224.25,
            "velocity": 0.47244094488188976
          },
          {
            "duration": 0.6000000000000227,
            "durationTicks": 192,
            "midi": 64,
            "name": "E4",
            "ticks": 72000,
            "time": 225,
            "velocity": 0.47244094488188976
          },
          {
            "duration": 0.6000000000000227,
            "durationTicks": 192,
            "midi": 64,
            "name": "E4",
            "ticks": 72240,
            "time": 225.75,
            "velocity": 0.47244094488188976
          },
          {
            "duration": 0.6000000000000227,
            "durationTicks": 192,
            "midi": 64,
            "name": "E4",
            "ticks": 72480,
            "time": 226.5,
            "velocity": 0.47244094488188976
          },
          {
            "duration": 0.6000000000000227,
            "durationTicks": 192,
            "midi": 62,
            "name": "D4",
            "ticks": 72720,
            "time": 227.25,
            "velocity": 0.47244094488188976
          },
          {
            "duration": 0.6000000000000227,
            "durationTicks": 192,
            "midi": 64,
            "name": "E4",
            "ticks": 72720,
            "time": 227.25,
            "velocity": 0.47244094488188976
          },
          {
            "duration": 0.6000000000000227,
            "durationTicks": 192,
            "midi": 62,
            "name": "D4",
            "ticks": 72960,
            "time": 228,
            "velocity": 0.47244094488188976
          },
          {
            "duration": 0.6000000000000227,
            "durationTicks": 192,
            "midi": 64,
            "name": "E4",
            "ticks": 72960,
            "time": 228,
            "velocity": 0.47244094488188976
          },
          {
            "duration": 0.6000000000000227,
            "durationTicks": 192,
            "midi": 62,
            "name": "D4",
            "ticks": 73200,
            "time": 228.75,
            "velocity": 0.47244094488188976
          },
          {
            "duration": 0.6000000000000227,
            "durationTicks": 192,
            "midi": 64,
            "name": "E4",
            "ticks": 73200,
            "time": 228.75,
            "velocity": 0.47244094488188976
          },
          {
            "duration": 1.200000000000017,
            "durationTicks": 384,
            "midi": 61,
            "name": "C#4",
            "ticks": 73440,
            "time": 229.5,
            "velocity": 0.47244094488188976
          },
          {
            "duration": 1.200000000000017,
            "durationTicks": 384,
            "midi": 64,
            "name": "E4",
            "ticks": 73440,
            "time": 229.5,
            "velocity": 0.47244094488188976
          },
          {
            "duration": 13.5,
            "durationTicks": 4320,
            "midi": 49,
            "name": "C#3",
            "ticks": 97920,
            "time": 306,
            "velocity": 0.47244094488188976
          },
          {
            "duration": 2.25,
            "durationTicks": 720,
            "midi": 54,
            "name": "F#3",
            "ticks": 102240,
            "time": 319.5,
            "velocity": 0.47244094488188976
          },
          {
            "duration": 4.5,
            "durationTicks": 1440,
            "midi": 56,
            "name": "G#3",
            "ticks": 102960,
            "time": 321.75,
            "velocity": 0.47244094488188976
          },
          {
            "duration": 2.25,
            "durationTicks": 720,
            "midi": 54,
            "name": "F#3",
            "ticks": 104400,
            "time": 326.25,
            "velocity": 0.6299212598425197
          },
          {
            "duration": 2.25,
            "durationTicks": 720,
            "midi": 60,
            "name": "C4",
            "ticks": 105120,
            "time": 328.5,
            "velocity": 0.6299212598425197
          },
          {
            "duration": 2.25,
            "durationTicks": 720,
            "midi": 59,
            "name": "B3",
            "ticks": 105840,
            "time": 330.75,
            "velocity": 0.6299212598425197
          },
          {
            "duration": 2.25,
            "durationTicks": 720,
            "midi": 58,
            "name": "A#3",
            "ticks": 106560,
            "time": 333,
            "velocity": 0.6299212598425197
          },
          {
            "duration": 0.75,
            "durationTicks": 240,
            "midi": 59,
            "name": "B3",
            "ticks": 107280,
            "time": 335.25,
            "velocity": 0.6299212598425197
          },
          {
            "duration": 0.75,
            "durationTicks": 240,
            "midi": 55,
            "name": "G3",
            "ticks": 107520,
            "time": 336,
            "velocity": 0.6299212598425197
          },
          {
            "duration": 0.75,
            "durationTicks": 240,
            "midi": 54,
            "name": "F#3",
            "ticks": 107760,
            "time": 336.75,
            "velocity": 0.6299212598425197
          },
          {
            "duration": 0.75,
            "durationTicks": 240,
            "midi": 53,
            "name": "F3",
            "ticks": 108000,
            "time": 337.5,
            "velocity": 0.6299212598425197
          },
          {
            "duration": 0.75,
            "durationTicks": 240,
            "midi": 49,
            "name": "C#3",
            "ticks": 108240,
            "time": 338.25,
            "velocity": 0.6299212598425197
          },
          {
            "duration": 0.75,
            "durationTicks": 240,
            "midi": 54,
            "name": "F#3",
            "ticks": 108480,
            "time": 339,
            "velocity": 0.6299212598425197
          },
          {
            "duration": 0.75,
            "durationTicks": 240,
            "midi": 62,
            "name": "D4",
            "ticks": 108720,
            "time": 339.75,
            "velocity": 0.6299212598425197
          },
          {
            "duration": 0.75,
            "durationTicks": 240,
            "midi": 59,
            "name": "B3",
            "ticks": 108960,
            "time": 340.5,
            "velocity": 0.6299212598425197
          },
          {
            "duration": 0.75,
            "durationTicks": 240,
            "midi": 61,
            "name": "C#4",
            "ticks": 109200,
            "time": 341.25,
            "velocity": 0.6299212598425197
          },
          {
            "duration": 1.4249999999999545,
            "durationTicks": 456,
            "midi": 54,
            "name": "F#3",
            "ticks": 109440,
            "time": 342,
            "velocity": 0.5511811023622047
          },
          {
            "duration": 2.25,
            "durationTicks": 720,
            "midi": 61,
            "name": "C#4",
            "ticks": 110880,
            "time": 346.5,
            "velocity": 0.47244094488188976
          },
          {
            "duration": 4.5,
            "durationTicks": 1440,
            "midi": 65,
            "name": "F4",
            "ticks": 111600,
            "time": 348.75,
            "velocity": 0.47244094488188976
          },
          {
            "duration": 2.25,
            "durationTicks": 720,
            "midi": 66,
            "name": "F#4",
            "ticks": 113040,
            "time": 353.25,
            "velocity": 0.47244094488188976
          },
          {
            "duration": 2.25,
            "durationTicks": 720,
            "midi": 54,
            "name": "F#3",
            "ticks": 113760,
            "time": 355.5,
            "velocity": 0.47244094488188976
          },
          {
            "duration": 2.25,
            "durationTicks": 720,
            "midi": 59,
            "name": "B3",
            "ticks": 114480,
            "time": 357.75,
            "velocity": 0.47244094488188976
          },
          {
            "duration": 1.2000000000000455,
            "durationTicks": 384,
            "midi": 61,
            "name": "C#4",
            "ticks": 115200,
            "time": 360,
            "velocity": 0.47244094488188976
          },
          {
            "duration": 2.25,
            "durationTicks": 720,
            "midi": 71,
            "name": "B4",
            "ticks": 133920,
            "time": 418.5,
            "velocity": 0.47244094488188976
          },
          {
            "duration": 3,
            "durationTicks": 960,
            "midi": 56,
            "name": "G#3",
            "ticks": 134640,
            "time": 420.75,
            "velocity": 0.47244094488188976
          },
          {
            "duration": 0.4500000000000455,
            "durationTicks": 144,
            "midi": 54,
            "name": "F#3",
            "ticks": 135600,
            "time": 423.75,
            "velocity": 0.47244094488188976
          },
          {
            "duration": 0.4500000000000455,
            "durationTicks": 144,
            "midi": 54,
            "name": "F#3",
            "ticks": 135840,
            "time": 424.5,
            "velocity": 0.47244094488188976
          },
          {
            "duration": 2.25,
            "durationTicks": 720,
            "midi": 71,
            "name": "B4",
            "ticks": 136800,
            "time": 427.5,
            "velocity": 0.47244094488188976
          },
          {
            "duration": 3,
            "durationTicks": 960,
            "midi": 56,
            "name": "G#3",
            "ticks": 137520,
            "time": 429.75,
            "velocity": 0.47244094488188976
          },
          {
            "duration": 0.4500000000000455,
            "durationTicks": 144,
            "midi": 54,
            "name": "F#3",
            "ticks": 138480,
            "time": 432.75,
            "velocity": 0.47244094488188976
          },
          {
            "duration": 0.4500000000000455,
            "durationTicks": 144,
            "midi": 54,
            "name": "F#3",
            "ticks": 138720,
            "time": 433.5,
            "velocity": 0.47244094488188976
          },
          {
            "duration": 2.25,
            "durationTicks": 720,
            "midi": 61,
            "name": "C#4",
            "ticks": 139680,
            "time": 436.5,
            "velocity": 0.47244094488188976
          },
          {
            "duration": 2.25,
            "durationTicks": 720,
            "midi": 59,
            "name": "B3",
            "ticks": 140400,
            "time": 438.75,
            "velocity": 0.47244094488188976
          },
          {
            "duration": 0.5625,
            "durationTicks": 180,
            "midi": 57,
            "name": "A3",
            "ticks": 141120,
            "time": 441,
            "velocity": 0.4251968503937008
          },
          {
            "duration": 0.5625,
            "durationTicks": 180,
            "midi": 66,
            "name": "F#4",
            "ticks": 141840,
            "time": 443.25,
            "velocity": 0.4094488188976378
          },
          {
            "duration": 0.5625,
            "durationTicks": 180,
            "midi": 69,
            "name": "A4",
            "ticks": 142560,
            "time": 445.5,
            "velocity": 0.4015748031496063
          }
        ]
      },
      {
        "channel": 0,
        "controlChanges": {},
        "pitchBends": [],
        "instrument": {
          "family": "piano",
          "number": 0,
          "name": "acoustic grand piano"
        },
        "name": "Piano Concerto n23 K488 2mov",
        "notes": [],
        "endOfTrackTicks": 144000
      },
      {
        "channel": 13,
        "controlChanges": {
          "7": [
            {
              "number": 7,
              "ticks": 0,
              "time": 0,
              "value": 0.7952755905511811
            }
          ],
          "10": [
            {
              "number": 10,
              "ticks": 0,
              "time": 0,
              "value": 0.6614173228346457
            }
          ],
          "91": [
            {
              "number": 91,
              "ticks": 0,
              "time": 0,
              "value": 0.6299212598425197
            }
          ]
        },
        "pitchBends": [],
        "instrument": {
          "family": "ensemble",
          "number": 48,
          "name": "string ensemble 1"
        },
        "name": "",
        "notes": [
          {
            "duration": 0.5999999999999943,
            "durationTicks": 192,
            "midi": 54,
            "name": "F#3",
            "ticks": 17280,
            "time": 54,
            "velocity": 0.47244094488188976
          },
          {
            "duration": 0.5999999999999943,
            "durationTicks": 192,
            "midi": 54,
            "name": "F#3",
            "ticks": 18000,
            "time": 56.25,
            "velocity": 0.47244094488188976
          },
          {
            "duration": 0.5999999999999943,
            "durationTicks": 192,
            "midi": 54,
            "name": "F#3",
            "ticks": 18720,
            "time": 58.5,
            "velocity": 0.47244094488188976
          },
          {
            "duration": 0.5999999999999943,
            "durationTicks": 192,
            "midi": 56,
            "name": "G#3",
            "ticks": 19440,
            "time": 60.75,
            "velocity": 0.47244094488188976
          },
          {
            "duration": 0.5999999999999943,
            "durationTicks": 192,
            "midi": 57,
            "name": "A3",
            "ticks": 20160,
            "time": 63,
            "velocity": 0.47244094488188976
          },
          {
            "duration": 0.5999999999999943,
            "durationTicks": 192,
            "midi": 45,
            "name": "A2",
            "ticks": 20880,
            "time": 65.25,
            "velocity": 0.47244094488188976
          },
          {
            "duration": 0.5999999999999943,
            "durationTicks": 192,
            "midi": 47,
            "name": "B2",
            "ticks": 21600,
            "time": 67.5,
            "velocity": 0.47244094488188976
          },
          {
            "duration": 0.5999999999999943,
            "durationTicks": 192,
            "midi": 59,
            "name": "B3",
            "ticks": 22320,
            "time": 69.75,
            "velocity": 0.47244094488188976
          },
          {
            "duration": 0.5999999999999943,
            "durationTicks": 192,
            "midi": 61,
            "name": "C#4",
            "ticks": 23040,
            "time": 72,
            "velocity": 0.47244094488188976
          },
          {
            "duration": 0.5999999999999943,
            "durationTicks": 192,
            "midi": 54,
            "name": "F#3",
            "ticks": 23760,
            "time": 74.25,
            "velocity": 0.7086614173228346
          },
          {
            "duration": 0.5999999999999943,
            "durationTicks": 192,
            "midi": 48,
            "name": "C3",
            "ticks": 24480,
            "time": 76.5,
            "velocity": 0.7086614173228346
          },
          {
            "duration": 0.5999999999999943,
            "durationTicks": 192,
            "midi": 47,
            "name": "B2",
            "ticks": 25200,
            "time": 78.75,
            "velocity": 0.7086614173228346
          },
          {
            "duration": 2.25,
            "durationTicks": 720,
            "midi": 46,
            "name": "A#2",
            "ticks": 25920,
            "time": 81,
            "velocity": 0.7086614173228346
          },
          {
            "duration": 0.75,
            "durationTicks": 240,
            "midi": 47,
            "name": "B2",
            "ticks": 26640,
            "time": 83.25,
            "velocity": 0.7086614173228346
          },
          {
            "duration": 0.75,
            "durationTicks": 240,
            "midi": 55,
            "name": "G3",
            "ticks": 26880,
            "time": 84,
            "velocity": 0.7086614173228346
          },
          {
            "duration": 0.75,
            "durationTicks": 240,
            "midi": 54,
            "name": "F#3",
            "ticks": 27120,
            "time": 84.75,
            "velocity": 0.7086614173228346
          },
          {
            "duration": 0.75,
            "durationTicks": 240,
            "midi": 53,
            "name": "F3",
            "ticks": 27360,
            "time": 85.5,
            "velocity": 0.7086614173228346
          },
          {
            "duration": 0.75,
            "durationTicks": 240,
            "midi": 49,
            "name": "C#3",
            "ticks": 27600,
            "time": 86.25,
            "velocity": 0.7086614173228346
          },
          {
            "duration": 0.75,
            "durationTicks": 240,
            "midi": 54,
            "name": "F#3",
            "ticks": 27840,
            "time": 87,
            "velocity": 0.7086614173228346
          },
          {
            "duration": 0.75,
            "durationTicks": 240,
            "midi": 50,
            "name": "D3",
            "ticks": 28080,
            "time": 87.75,
            "velocity": 0.7086614173228346
          },
          {
            "duration": 0.75,
            "durationTicks": 240,
            "midi": 47,
            "name": "B2",
            "ticks": 28320,
            "time": 88.5,
            "velocity": 0.7086614173228346
          },
          {
            "duration": 0.75,
            "durationTicks": 240,
            "midi": 49,
            "name": "C#3",
            "ticks": 28560,
            "time": 89.25,
            "velocity": 0.7086614173228346
          },
          {
            "duration": 1.4250000000000114,
            "durationTicks": 456,
            "midi": 42,
            "name": "F#2",
            "ticks": 28800,
            "time": 90,
            "velocity": 0.6299212598425197
          },
          {
            "duration": 4.5,
            "durationTicks": 1440,
            "midi": 56,
            "name": "G#3",
            "ticks": 36000,
            "time": 112.5,
            "velocity": 0.47244094488188976
          },
          {
            "duration": 2.25,
            "durationTicks": 720,
            "midi": 57,
            "name": "A3",
            "ticks": 37440,
            "time": 117,
            "velocity": 0.47244094488188976
          },
          {
            "duration": 2.25,
            "durationTicks": 720,
            "midi": 49,
            "name": "C#3",
            "ticks": 38160,
            "time": 119.25,
            "velocity": 0.47244094488188976
          },
          {
            "duration": 2.25,
            "durationTicks": 720,
            "midi": 50,
            "name": "D3",
            "ticks": 38880,
            "time": 121.5,
            "velocity": 0.47244094488188976
          },
          {
            "duration": 2.25,
            "durationTicks": 720,
            "midi": 51,
            "name": "D#3",
            "ticks": 39600,
            "time": 123.75,
            "velocity": 0.47244094488188976
          },
          {
            "duration": 0.6000000000000085,
            "durationTicks": 192,
            "midi": 52,
            "name": "E3",
            "ticks": 40320,
            "time": 126,
            "velocity": 0.47244094488188976
          },
          {
            "duration": 0.6000000000000227,
            "durationTicks": 192,
            "midi": 52,
            "name": "E3",
            "ticks": 41040,
            "time": 128.25,
            "velocity": 0.47244094488188976
          },
          {
            "duration": 0.6000000000000227,
            "durationTicks": 192,
            "midi": 52,
            "name": "E3",
            "ticks": 41760,
            "time": 130.5,
            "velocity": 0.47244094488188976
          },
          {
            "duration": 0.6000000000000227,
            "durationTicks": 192,
            "midi": 52,
            "name": "E3",
            "ticks": 42480,
            "time": 132.75,
            "velocity": 0.47244094488188976
          },
          {
            "duration": 0.6000000000000227,
            "durationTicks": 192,
            "midi": 52,
            "name": "E3",
            "ticks": 43200,
            "time": 135,
            "velocity": 0.47244094488188976
          },
          {
            "duration": 0.6000000000000227,
            "durationTicks": 192,
            "midi": 52,
            "name": "E3",
            "ticks": 43920,
            "time": 137.25,
            "velocity": 0.47244094488188976
          },
          {
            "duration": 0.6000000000000227,
            "durationTicks": 192,
            "midi": 53,
            "name": "F3",
            "ticks": 44640,
            "time": 139.5,
            "velocity": 0.5590551181102362
          },
          {
            "duration": 0.6000000000000227,
            "durationTicks": 192,
            "midi": 53,
            "name": "F3",
            "ticks": 45360,
            "time": 141.75,
            "velocity": 0.49606299212598426
          },
          {
            "duration": 10.199999999999989,
            "durationTicks": 3264,
            "midi": 52,
            "name": "E3",
            "ticks": 46080,
            "time": 144,
            "velocity": 0.4409448818897638
          },
          {
            "duration": 1.4250000000000114,
            "durationTicks": 456,
            "midi": 57,
            "name": "A3",
            "ticks": 50400,
            "time": 157.5,
            "velocity": 0.47244094488188976
          },
          {
            "duration": 0.7124999999999773,
            "durationTicks": 228,
            "midi": 57,
            "name": "A3",
            "ticks": 50880,
            "time": 159,
            "velocity": 0.47244094488188976
          },
          {
            "duration": 1.4250000000000114,
            "durationTicks": 456,
            "midi": 57,
            "name": "A3",
            "ticks": 51120,
            "time": 159.75,
            "velocity": 0.47244094488188976
          },
          {
            "duration": 0.7124999999999773,
            "durationTicks": 228,
            "midi": 57,
            "name": "A3",
            "ticks": 51600,
            "time": 161.25,
            "velocity": 0.47244094488188976
          },
          {
            "duration": 1.4250000000000114,
            "durationTicks": 456,
            "midi": 56,
            "name": "G#3",
            "ticks": 51840,
            "time": 162,
            "velocity": 0.47244094488188976
          },
          {
            "duration": 0.7124999999999773,
            "durationTicks": 228,
            "midi": 56,
            "name": "G#3",
            "ticks": 52320,
            "time": 163.5,
            "velocity": 0.47244094488188976
          },
          {
            "duration": 1.4250000000000114,
            "durationTicks": 456,
            "midi": 56,
            "name": "G#3",
            "ticks": 52560,
            "time": 164.25,
            "velocity": 0.47244094488188976
          },
          {
            "duration": 0.7124999999999773,
            "durationTicks": 228,
            "midi": 56,
            "name": "G#3",
            "ticks": 53040,
            "time": 165.75,
            "velocity": 0.47244094488188976
          },
          {
            "duration": 1.1999999999999886,
            "durationTicks": 384,
            "midi": 57,
            "name": "A3",
            "ticks": 53280,
            "time": 166.5,
            "velocity": 0.47244094488188976
          },
          {
            "duration": 0.6000000000000227,
            "durationTicks": 192,
            "midi": 52,
            "name": "E3",
            "ticks": 54720,
            "time": 171,
            "velocity": 0.47244094488188976
          },
          {
            "duration": 0.6000000000000227,
            "durationTicks": 192,
            "midi": 52,
            "name": "E3",
            "ticks": 54960,
            "time": 171.75,
            "velocity": 0.47244094488188976
          },
          {
            "duration": 0.6000000000000227,
            "durationTicks": 192,
            "midi": 52,
            "name": "E3",
            "ticks": 55200,
            "time": 172.5,
            "velocity": 0.47244094488188976
          },
          {
            "duration": 0.6000000000000227,
            "durationTicks": 192,
            "midi": 52,
            "name": "E3",
            "ticks": 55440,
            "time": 173.25,
            "velocity": 0.47244094488188976
          },
          {
            "duration": 0.75,
            "durationTicks": 240,
            "midi": 52,
            "name": "E3",
            "ticks": 58800,
            "time": 183.75,
            "velocity": 0.47244094488188976
          },
          {
            "duration": 0.6000000000000227,
            "durationTicks": 192,
            "midi": 54,
            "name": "F#3",
            "ticks": 59040,
            "time": 184.5,
            "velocity": 0.47244094488188976
          },
          {
            "duration": 0.6000000000000227,
            "durationTicks": 192,
            "midi": 50,
            "name": "D3",
            "ticks": 59760,
            "time": 186.75,
            "velocity": 0.47244094488188976
          },
          {
            "duration": 2.25,
            "durationTicks": 720,
            "midi": 52,
            "name": "E3",
            "ticks": 60480,
            "time": 189,
            "velocity": 0.47244094488188976
          },
          {
            "duration": 0.6000000000000227,
            "durationTicks": 192,
            "midi": 45,
            "name": "A2",
            "ticks": 61200,
            "time": 191.25,
            "velocity": 0.47244094488188976
          },
          {
            "duration": 0.75,
            "durationTicks": 240,
            "midi": 50,
            "name": "D3",
            "ticks": 65040,
            "time": 203.25,
            "velocity": 0.47244094488188976
          },
          {
            "duration": 0.75,
            "durationTicks": 240,
            "midi": 52,
            "name": "E3",
            "ticks": 65280,
            "time": 204,
            "velocity": 0.47244094488188976
          },
          {
            "duration": 0.6000000000000227,
            "durationTicks": 192,
            "midi": 45,
            "name": "A2",
            "ticks": 65520,
            "time": 204.75,
            "velocity": 0.47244094488188976
          },
          {
            "duration": 0.75,
            "durationTicks": 240,
            "midi": 44,
            "name": "G#2",
            "ticks": 66480,
            "time": 207.75,
            "velocity": 0.47244094488188976
          },
          {
            "duration": 0.75,
            "durationTicks": 240,
            "midi": 45,
            "name": "A2",
            "ticks": 66720,
            "time": 208.5,
            "velocity": 0.47244094488188976
          },
          {
            "duration": 0.6000000000000227,
            "durationTicks": 192,
            "midi": 52,
            "name": "E3",
            "ticks": 66960,
            "time": 209.25,
            "velocity": 0.47244094488188976
          },
          {
            "duration": 0.75,
            "durationTicks": 240,
            "midi": 45,
            "name": "A2",
            "ticks": 67680,
            "time": 211.5,
            "velocity": 0.47244094488188976
          },
          {
            "duration": 0.75,
            "durationTicks": 240,
            "midi": 49,
            "name": "C#3",
            "ticks": 67920,
            "time": 212.25,
            "velocity": 0.47244094488188976
          },
          {
            "duration": 0.75,
            "durationTicks": 240,
            "midi": 52,
            "name": "E3",
            "ticks": 68160,
            "time": 213,
            "velocity": 0.47244094488188976
          },
          {
            "duration": 0.6000000000000227,
            "durationTicks": 192,
            "midi": 54,
            "name": "F#3",
            "ticks": 68400,
            "time": 213.75,
            "velocity": 0.47244094488188976
          },
          {
            "duration": 2.25,
            "durationTicks": 720,
            "midi": 50,
            "name": "D3",
            "ticks": 69120,
            "time": 216,
            "velocity": 0.47244094488188976
          },
          {
            "duration": 2.25,
            "durationTicks": 720,
            "midi": 51,
            "name": "D#3",
            "ticks": 69840,
            "time": 218.25,
            "velocity": 0.47244094488188976
          },
          {
            "duration": 1.200000000000017,
            "durationTicks": 384,
            "midi": 52,
            "name": "E3",
            "ticks": 70560,
            "time": 220.5,
            "velocity": 0.47244094488188976
          },
          {
            "duration": 1.200000000000017,
            "durationTicks": 384,
            "midi": 52,
            "name": "E3",
            "ticks": 71280,
            "time": 222.75,
            "velocity": 0.47244094488188976
          },
          {
            "duration": 1.200000000000017,
            "durationTicks": 384,
            "midi": 52,
            "name": "E3",
            "ticks": 72000,
            "time": 225,
            "velocity": 0.47244094488188976
          },
          {
            "duration": 1.200000000000017,
            "durationTicks": 384,
            "midi": 52,
            "name": "E3",
            "ticks": 72720,
            "time": 227.25,
            "velocity": 0.47244094488188976
          },
          {
            "duration": 0.6000000000000227,
            "durationTicks": 192,
            "midi": 45,
            "name": "A2",
            "ticks": 73440,
            "time": 229.5,
            "velocity": 0.47244094488188976
          },
          {
            "duration": 0.6000000000000227,
            "durationTicks": 192,
            "midi": 47,
            "name": "B2",
            "ticks": 74160,
            "time": 231.75,
            "velocity": 0.47244094488188976
          },
          {
            "duration": 0.6000000000000227,
            "durationTicks": 192,
            "midi": 49,
            "name": "C#3",
            "ticks": 74880,
            "time": 234,
            "velocity": 0.47244094488188976
          },
          {
            "duration": 0.6000000000000227,
            "durationTicks": 192,
            "midi": 49,
            "name": "C#3",
            "ticks": 75600,
            "time": 236.25,
            "velocity": 0.47244094488188976
          },
          {
            "duration": 1.200000000000017,
            "durationTicks": 384,
            "midi": 54,
            "name": "F#3",
            "ticks": 76320,
            "time": 238.5,
            "velocity": 0.47244094488188976
          },
          {
            "duration": 0.6000000000000227,
            "durationTicks": 192,
            "midi": 54,
            "name": "F#3",
            "ticks": 97920,
            "time": 306,
            "velocity": 0.47244094488188976
          },
          {
            "duration": 0.6000000000000227,
            "durationTicks": 192,
            "midi": 54,
            "name": "F#3",
            "ticks": 98640,
            "time": 308.25,
            "velocity": 0.47244094488188976
          },
          {
            "duration": 0.6000000000000227,
            "durationTicks": 192,
            "midi": 54,
            "name": "F#3",
            "ticks": 99360,
            "time": 310.5,
            "velocity": 0.47244094488188976
          },
          {
            "duration": 0.6000000000000227,
            "durationTicks": 192,
            "midi": 56,
            "name": "G#3",
            "ticks": 100080,
            "time": 312.75,
            "velocity": 0.47244094488188976
          },
          {
            "duration": 0.6000000000000227,
            "durationTicks": 192,
            "midi": 57,
            "name": "A3",
            "ticks": 100800,
            "time": 315,
            "velocity": 0.47244094488188976
          },
          {
            "duration": 0.6000000000000227,
            "durationTicks": 192,
            "midi": 45,
            "name": "A2",
            "ticks": 101520,
            "time": 317.25,
            "velocity": 0.47244094488188976
          },
          {
            "duration": 0.6000000000000227,
            "durationTicks": 192,
            "midi": 47,
            "name": "B2",
            "ticks": 102240,
            "time": 319.5,
            "velocity": 0.47244094488188976
          },
          {
            "duration": 0.6000000000000227,
            "durationTicks": 192,
            "midi": 59,
            "name": "B3",
            "ticks": 102960,
            "time": 321.75,
            "velocity": 0.47244094488188976
          },
          {
            "duration": 0.6000000000000227,
            "durationTicks": 192,
            "midi": 61,
            "name": "C#4",
            "ticks": 103680,
            "time": 324,
            "velocity": 0.47244094488188976
          },
          {
            "duration": 0.6000000000000227,
            "durationTicks": 192,
            "midi": 54,
            "name": "F#3",
            "ticks": 104400,
            "time": 326.25,
            "velocity": 0.7086614173228346
          },
          {
            "duration": 0.75,
            "durationTicks": 240,
            "midi": 48,
            "name": "C3",
            "ticks": 105120,
            "time": 328.5,
            "velocity": 0.7086614173228346
          },
          {
            "duration": 0.75,
            "durationTicks": 240,
            "midi": 47,
            "name": "B2",
            "ticks": 105840,
            "time": 330.75,
            "velocity": 0.7086614173228346
          },
          {
            "duration": 2.25,
            "durationTicks": 720,
            "midi": 46,
            "name": "A#2",
            "ticks": 106560,
            "time": 333,
            "velocity": 0.7086614173228346
          },
          {
            "duration": 0.75,
            "durationTicks": 240,
            "midi": 47,
            "name": "B2",
            "ticks": 107280,
            "time": 335.25,
            "velocity": 0.7086614173228346
          },
          {
            "duration": 0.75,
            "durationTicks": 240,
            "midi": 55,
            "name": "G3",
            "ticks": 107520,
            "time": 336,
            "velocity": 0.7086614173228346
          },
          {
            "duration": 0.75,
            "durationTicks": 240,
            "midi": 54,
            "name": "F#3",
            "ticks": 107760,
            "time": 336.75,
            "velocity": 0.7086614173228346
          },
          {
            "duration": 0.75,
            "durationTicks": 240,
            "midi": 53,
            "name": "F3",
            "ticks": 108000,
            "time": 337.5,
            "velocity": 0.7086614173228346
          },
          {
            "duration": 0.75,
            "durationTicks": 240,
            "midi": 49,
            "name": "C#3",
            "ticks": 108240,
            "time": 338.25,
            "velocity": 0.7086614173228346
          },
          {
            "duration": 0.75,
            "durationTicks": 240,
            "midi": 54,
            "name": "F#3",
            "ticks": 108480,
            "time": 339,
            "velocity": 0.7086614173228346
          },
          {
            "duration": 0.75,
            "durationTicks": 240,
            "midi": 50,
            "name": "D3",
            "ticks": 108720,
            "time": 339.75,
            "velocity": 0.7086614173228346
          },
          {
            "duration": 0.75,
            "durationTicks": 240,
            "midi": 47,
            "name": "B2",
            "ticks": 108960,
            "time": 340.5,
            "velocity": 0.7086614173228346
          },
          {
            "duration": 0.75,
            "durationTicks": 240,
            "midi": 49,
            "name": "C#3",
            "ticks": 109200,
            "time": 341.25,
            "velocity": 0.7086614173228346
          },
          {
            "duration": 0.6000000000000227,
            "durationTicks": 192,
            "midi": 42,
            "name": "F#2",
            "ticks": 109440,
            "time": 342,
            "velocity": 0.6299212598425197
          },
          {
            "duration": 0.6000000000000227,
            "durationTicks": 192,
            "midi": 54,
            "name": "F#3",
            "ticks": 110160,
            "time": 344.25,
            "velocity": 0.47244094488188976
          },
          {
            "duration": 0.6000000000000227,
            "durationTicks": 192,
            "midi": 54,
            "name": "F#3",
            "ticks": 110880,
            "time": 346.5,
            "velocity": 0.47244094488188976
          },
          {
            "duration": 0.6000000000000227,
            "durationTicks": 192,
            "midi": 56,
            "name": "G#3",
            "ticks": 111600,
            "time": 348.75,
            "velocity": 0.47244094488188976
          },
          {
            "duration": 0.6000000000000227,
            "durationTicks": 192,
            "midi": 57,
            "name": "A3",
            "ticks": 112320,
            "time": 351,
            "velocity": 0.47244094488188976
          },
          {
            "duration": 0.6000000000000227,
            "durationTicks": 192,
            "midi": 57,
            "name": "A3",
            "ticks": 113040,
            "time": 353.25,
            "velocity": 0.47244094488188976
          },
          {
            "duration": 0.6000000000000227,
            "durationTicks": 192,
            "midi": 59,
            "name": "B3",
            "ticks": 113760,
            "time": 355.5,
            "velocity": 0.47244094488188976
          },
          {
            "duration": 0.6000000000000227,
            "durationTicks": 192,
            "midi": 47,
            "name": "B2",
            "ticks": 114480,
            "time": 357.75,
            "velocity": 0.47244094488188976
          },
          {
            "duration": 17.912500000000023,
            "durationTicks": 5732,
            "midi": 49,
            "name": "C#3",
            "ticks": 115200,
            "time": 360,
            "velocity": 0.47244094488188976
          },
          {
            "duration": 0.5999999999999659,
            "durationTicks": 192,
            "midi": 45,
            "name": "A2",
            "ticks": 133200,
            "time": 416.25,
            "velocity": 0.47244094488188976
          },
          {
            "duration": 0.5999999999999659,
            "durationTicks": 192,
            "midi": 47,
            "name": "B2",
            "ticks": 133920,
            "time": 418.5,
            "velocity": 0.47244094488188976
          },
          {
            "duration": 0.5999999999999659,
            "durationTicks": 192,
            "midi": 49,
            "name": "C#3",
            "ticks": 134640,
            "time": 420.75,
            "velocity": 0.47244094488188976
          },
          {
            "duration": 0.5999999999999659,
            "durationTicks": 192,
            "midi": 45,
            "name": "A2",
            "ticks": 135360,
            "time": 423,
            "velocity": 0.47244094488188976
          },
          {
            "duration": 0.5999999999999659,
            "durationTicks": 192,
            "midi": 50,
            "name": "D3",
            "ticks": 136080,
            "time": 425.25,
            "velocity": 0.47244094488188976
          },
          {
            "duration": 0.5999999999999659,
            "durationTicks": 192,
            "midi": 47,
            "name": "B2",
            "ticks": 136800,
            "time": 427.5,
            "velocity": 0.47244094488188976
          },
          {
            "duration": 0.5999999999999659,
            "durationTicks": 192,
            "midi": 49,
            "name": "C#3",
            "ticks": 137520,
            "time": 429.75,
            "velocity": 0.47244094488188976
          },
          {
            "duration": 0.5999999999999659,
            "durationTicks": 192,
            "midi": 45,
            "name": "A2",
            "ticks": 138240,
            "time": 432,
            "velocity": 0.47244094488188976
          },
          {
            "duration": 0.5999999999999659,
            "durationTicks": 192,
            "midi": 48,
            "name": "C3",
            "ticks": 138960,
            "time": 434.25,
            "velocity": 0.47244094488188976
          },
          {
            "duration": 0.5999999999999659,
            "durationTicks": 192,
            "midi": 49,
            "name": "C#3",
            "ticks": 139680,
            "time": 436.5,
            "velocity": 0.47244094488188976
          },
          {
            "duration": 0.5999999999999659,
            "durationTicks": 192,
            "midi": 49,
            "name": "C#3",
            "ticks": 140400,
            "time": 438.75,
            "velocity": 0.47244094488188976
          },
          {
            "duration": 0.5625,
            "durationTicks": 180,
            "midi": 54,
            "name": "F#3",
            "ticks": 141120,
            "time": 441,
            "velocity": 0.4330708661417323
          },
          {
            "duration": 0.5625,
            "durationTicks": 180,
            "midi": 54,
            "name": "F#3",
            "ticks": 141840,
            "time": 443.25,
            "velocity": 0.41732283464566927
          },
          {
            "duration": 0.5625,
            "durationTicks": 180,
            "midi": 54,
            "name": "F#3",
            "ticks": 142560,
            "time": 445.5,
            "velocity": 0.4094488188976378
          }
        ]
      },
      {
        "channel": 0,
        "controlChanges": {},
        "pitchBends": [],
        "instrument": {
          "family": "piano",
          "number": 0,
          "name": "acoustic grand piano"
        },
        "name": "Piano Concerto n23 K488 2mov",
        "notes": [],
        "endOfTrackTicks": 145440
      },
      {
        "channel": 14,
        "controlChanges": {
          "7": [
            {
              "number": 7,
              "ticks": 0,
              "time": 0,
              "value": 0.6220472440944882
            }
          ],
          "10": [
            {
              "number": 10,
              "ticks": 0,
              "time": 0,
              "value": 0.7559055118110236
            }
          ],
          "91": [
            {
              "number": 91,
              "ticks": 0,
              "time": 0,
              "value": 0.7874015748031497
            }
          ]
        },
        "pitchBends": [],
        "instrument": {
          "family": "strings",
          "number": 43,
          "name": "contrabass"
        },
        "name": "",
        "notes": [
          {
            "duration": 0.5999999999999943,
            "durationTicks": 192,
            "midi": 42,
            "name": "F#2",
            "ticks": 17280,
            "time": 54,
            "velocity": 0.47244094488188976
          },
          {
            "duration": 0.5999999999999943,
            "durationTicks": 192,
            "midi": 42,
            "name": "F#2",
            "ticks": 18000,
            "time": 56.25,
            "velocity": 0.47244094488188976
          },
          {
            "duration": 0.5999999999999943,
            "durationTicks": 192,
            "midi": 42,
            "name": "F#2",
            "ticks": 18720,
            "time": 58.5,
            "velocity": 0.47244094488188976
          },
          {
            "duration": 0.5999999999999943,
            "durationTicks": 192,
            "midi": 44,
            "name": "G#2",
            "ticks": 19440,
            "time": 60.75,
            "velocity": 0.47244094488188976
          },
          {
            "duration": 0.5999999999999943,
            "durationTicks": 192,
            "midi": 45,
            "name": "A2",
            "ticks": 20160,
            "time": 63,
            "velocity": 0.47244094488188976
          },
          {
            "duration": 0.5999999999999943,
            "durationTicks": 192,
            "midi": 33,
            "name": "A1",
            "ticks": 20880,
            "time": 65.25,
            "velocity": 0.47244094488188976
          },
          {
            "duration": 0.5999999999999943,
            "durationTicks": 192,
            "midi": 35,
            "name": "B1",
            "ticks": 21600,
            "time": 67.5,
            "velocity": 0.47244094488188976
          },
          {
            "duration": 0.5999999999999943,
            "durationTicks": 192,
            "midi": 47,
            "name": "B2",
            "ticks": 22320,
            "time": 69.75,
            "velocity": 0.47244094488188976
          },
          {
            "duration": 0.5999999999999943,
            "durationTicks": 192,
            "midi": 49,
            "name": "C#3",
            "ticks": 23040,
            "time": 72,
            "velocity": 0.47244094488188976
          },
          {
            "duration": 0.5999999999999943,
            "durationTicks": 192,
            "midi": 42,
            "name": "F#2",
            "ticks": 23760,
            "time": 74.25,
            "velocity": 0.7086614173228346
          },
          {
            "duration": 0.5999999999999943,
            "durationTicks": 192,
            "midi": 36,
            "name": "C2",
            "ticks": 24480,
            "time": 76.5,
            "velocity": 0.7086614173228346
          },
          {
            "duration": 0.5999999999999943,
            "durationTicks": 192,
            "midi": 35,
            "name": "B1",
            "ticks": 25200,
            "time": 78.75,
            "velocity": 0.7086614173228346
          },
          {
            "duration": 2.25,
            "durationTicks": 720,
            "midi": 34,
            "name": "A#1",
            "ticks": 25920,
            "time": 81,
            "velocity": 0.7086614173228346
          },
          {
            "duration": 0.75,
            "durationTicks": 240,
            "midi": 35,
            "name": "B1",
            "ticks": 26640,
            "time": 83.25,
            "velocity": 0.7086614173228346
          },
          {
            "duration": 0.75,
            "durationTicks": 240,
            "midi": 43,
            "name": "G2",
            "ticks": 26880,
            "time": 84,
            "velocity": 0.7086614173228346
          },
          {
            "duration": 0.75,
            "durationTicks": 240,
            "midi": 42,
            "name": "F#2",
            "ticks": 27120,
            "time": 84.75,
            "velocity": 0.7086614173228346
          },
          {
            "duration": 0.75,
            "durationTicks": 240,
            "midi": 41,
            "name": "F2",
            "ticks": 27360,
            "time": 85.5,
            "velocity": 0.7086614173228346
          },
          {
            "duration": 0.75,
            "durationTicks": 240,
            "midi": 37,
            "name": "C#2",
            "ticks": 27600,
            "time": 86.25,
            "velocity": 0.7086614173228346
          },
          {
            "duration": 0.75,
            "durationTicks": 240,
            "midi": 42,
            "name": "F#2",
            "ticks": 27840,
            "time": 87,
            "velocity": 0.7086614173228346
          },
          {
            "duration": 0.75,
            "durationTicks": 240,
            "midi": 38,
            "name": "D2",
            "ticks": 28080,
            "time": 87.75,
            "velocity": 0.7086614173228346
          },
          {
            "duration": 0.75,
            "durationTicks": 240,
            "midi": 35,
            "name": "B1",
            "ticks": 28320,
            "time": 88.5,
            "velocity": 0.7086614173228346
          },
          {
            "duration": 0.75,
            "durationTicks": 240,
            "midi": 37,
            "name": "C#2",
            "ticks": 28560,
            "time": 89.25,
            "velocity": 0.7086614173228346
          },
          {
            "duration": 1.4250000000000114,
            "durationTicks": 456,
            "midi": 30,
            "name": "F#1",
            "ticks": 28800,
            "time": 90,
            "velocity": 0.6299212598425197
          },
          {
            "duration": 4.5,
            "durationTicks": 1440,
            "midi": 44,
            "name": "G#2",
            "ticks": 36000,
            "time": 112.5,
            "velocity": 0.47244094488188976
          },
          {
            "duration": 2.25,
            "durationTicks": 720,
            "midi": 45,
            "name": "A2",
            "ticks": 37440,
            "time": 117,
            "velocity": 0.47244094488188976
          },
          {
            "duration": 2.25,
            "durationTicks": 720,
            "midi": 37,
            "name": "C#2",
            "ticks": 38160,
            "time": 119.25,
            "velocity": 0.47244094488188976
          },
          {
            "duration": 2.25,
            "durationTicks": 720,
            "midi": 38,
            "name": "D2",
            "ticks": 38880,
            "time": 121.5,
            "velocity": 0.47244094488188976
          },
          {
            "duration": 2.25,
            "durationTicks": 720,
            "midi": 39,
            "name": "D#2",
            "ticks": 39600,
            "time": 123.75,
            "velocity": 0.47244094488188976
          },
          {
            "duration": 0.6000000000000085,
            "durationTicks": 192,
            "midi": 40,
            "name": "E2",
            "ticks": 40320,
            "time": 126,
            "velocity": 0.47244094488188976
          },
          {
            "duration": 0.6000000000000227,
            "durationTicks": 192,
            "midi": 40,
            "name": "E2",
            "ticks": 41040,
            "time": 128.25,
            "velocity": 0.47244094488188976
          },
          {
            "duration": 0.6000000000000227,
            "durationTicks": 192,
            "midi": 40,
            "name": "E2",
            "ticks": 41760,
            "time": 130.5,
            "velocity": 0.47244094488188976
          },
          {
            "duration": 0.6000000000000227,
            "durationTicks": 192,
            "midi": 40,
            "name": "E2",
            "ticks": 42480,
            "time": 132.75,
            "velocity": 0.47244094488188976
          },
          {
            "duration": 0.6000000000000227,
            "durationTicks": 192,
            "midi": 40,
            "name": "E2",
            "ticks": 43200,
            "time": 135,
            "velocity": 0.47244094488188976
          },
          {
            "duration": 0.6000000000000227,
            "durationTicks": 192,
            "midi": 40,
            "name": "E2",
            "ticks": 43920,
            "time": 137.25,
            "velocity": 0.47244094488188976
          },
          {
            "duration": 0.6000000000000227,
            "durationTicks": 192,
            "midi": 41,
            "name": "F2",
            "ticks": 44640,
            "time": 139.5,
            "velocity": 0.5590551181102362
          },
          {
            "duration": 0.6000000000000227,
            "durationTicks": 192,
            "midi": 41,
            "name": "F2",
            "ticks": 45360,
            "time": 141.75,
            "velocity": 0.5039370078740157
          },
          {
            "duration": 10.199999999999989,
            "durationTicks": 3264,
            "midi": 40,
            "name": "E2",
            "ticks": 46080,
            "time": 144,
            "velocity": 0.44881889763779526
          },
          {
            "duration": 1.4250000000000114,
            "durationTicks": 456,
            "midi": 45,
            "name": "A2",
            "ticks": 50400,
            "time": 157.5,
            "velocity": 0.47244094488188976
          },
          {
            "duration": 0.7124999999999773,
            "durationTicks": 228,
            "midi": 45,
            "name": "A2",
            "ticks": 50880,
            "time": 159,
            "velocity": 0.47244094488188976
          },
          {
            "duration": 1.4250000000000114,
            "durationTicks": 456,
            "midi": 45,
            "name": "A2",
            "ticks": 51120,
            "time": 159.75,
            "velocity": 0.47244094488188976
          },
          {
            "duration": 0.7124999999999773,
            "durationTicks": 228,
            "midi": 45,
            "name": "A2",
            "ticks": 51600,
            "time": 161.25,
            "velocity": 0.47244094488188976
          },
          {
            "duration": 1.4250000000000114,
            "durationTicks": 456,
            "midi": 44,
            "name": "G#2",
            "ticks": 51840,
            "time": 162,
            "velocity": 0.47244094488188976
          },
          {
            "duration": 0.7124999999999773,
            "durationTicks": 228,
            "midi": 44,
            "name": "G#2",
            "ticks": 52320,
            "time": 163.5,
            "velocity": 0.47244094488188976
          },
          {
            "duration": 1.4250000000000114,
            "durationTicks": 456,
            "midi": 44,
            "name": "G#2",
            "ticks": 52560,
            "time": 164.25,
            "velocity": 0.47244094488188976
          },
          {
            "duration": 0.7124999999999773,
            "durationTicks": 228,
            "midi": 44,
            "name": "G#2",
            "ticks": 53040,
            "time": 165.75,
            "velocity": 0.47244094488188976
          },
          {
            "duration": 1.1999999999999886,
            "durationTicks": 384,
            "midi": 45,
            "name": "A2",
            "ticks": 53280,
            "time": 166.5,
            "velocity": 0.47244094488188976
          },
          {
            "duration": 0.6000000000000227,
            "durationTicks": 192,
            "midi": 40,
            "name": "E2",
            "ticks": 54720,
            "time": 171,
            "velocity": 0.47244094488188976
          },
          {
            "duration": 0.6000000000000227,
            "durationTicks": 192,
            "midi": 40,
            "name": "E2",
            "ticks": 54960,
            "time": 171.75,
            "velocity": 0.47244094488188976
          },
          {
            "duration": 0.6000000000000227,
            "durationTicks": 192,
            "midi": 40,
            "name": "E2",
            "ticks": 55200,
            "time": 172.5,
            "velocity": 0.47244094488188976
          },
          {
            "duration": 0.6000000000000227,
            "durationTicks": 192,
            "midi": 40,
            "name": "E2",
            "ticks": 55440,
            "time": 173.25,
            "velocity": 0.47244094488188976
          },
          {
            "duration": 0.75,
            "durationTicks": 240,
            "midi": 40,
            "name": "E2",
            "ticks": 58800,
            "time": 183.75,
            "velocity": 0.47244094488188976
          },
          {
            "duration": 0.6000000000000227,
            "durationTicks": 192,
            "midi": 42,
            "name": "F#2",
            "ticks": 59040,
            "time": 184.5,
            "velocity": 0.47244094488188976
          },
          {
            "duration": 0.6000000000000227,
            "durationTicks": 192,
            "midi": 38,
            "name": "D2",
            "ticks": 59760,
            "time": 186.75,
            "velocity": 0.47244094488188976
          },
          {
            "duration": 2.25,
            "durationTicks": 720,
            "midi": 40,
            "name": "E2",
            "ticks": 60480,
            "time": 189,
            "velocity": 0.47244094488188976
          },
          {
            "duration": 0.6000000000000227,
            "durationTicks": 192,
            "midi": 33,
            "name": "A1",
            "ticks": 61200,
            "time": 191.25,
            "velocity": 0.47244094488188976
          },
          {
            "duration": 0.75,
            "durationTicks": 240,
            "midi": 38,
            "name": "D2",
            "ticks": 65040,
            "time": 203.25,
            "velocity": 0.47244094488188976
          },
          {
            "duration": 0.75,
            "durationTicks": 240,
            "midi": 40,
            "name": "E2",
            "ticks": 65280,
            "time": 204,
            "velocity": 0.47244094488188976
          },
          {
            "duration": 0.6000000000000227,
            "durationTicks": 192,
            "midi": 33,
            "name": "A1",
            "ticks": 65520,
            "time": 204.75,
            "velocity": 0.47244094488188976
          },
          {
            "duration": 0.75,
            "durationTicks": 240,
            "midi": 32,
            "name": "G#1",
            "ticks": 66480,
            "time": 207.75,
            "velocity": 0.47244094488188976
          },
          {
            "duration": 0.75,
            "durationTicks": 240,
            "midi": 33,
            "name": "A1",
            "ticks": 66720,
            "time": 208.5,
            "velocity": 0.47244094488188976
          },
          {
            "duration": 0.6000000000000227,
            "durationTicks": 192,
            "midi": 40,
            "name": "E2",
            "ticks": 66960,
            "time": 209.25,
            "velocity": 0.47244094488188976
          },
          {
            "duration": 0.75,
            "durationTicks": 240,
            "midi": 33,
            "name": "A1",
            "ticks": 67680,
            "time": 211.5,
            "velocity": 0.47244094488188976
          },
          {
            "duration": 0.75,
            "durationTicks": 240,
            "midi": 37,
            "name": "C#2",
            "ticks": 67920,
            "time": 212.25,
            "velocity": 0.47244094488188976
          },
          {
            "duration": 0.75,
            "durationTicks": 240,
            "midi": 40,
            "name": "E2",
            "ticks": 68160,
            "time": 213,
            "velocity": 0.47244094488188976
          },
          {
            "duration": 0.6000000000000227,
            "durationTicks": 192,
            "midi": 42,
            "name": "F#2",
            "ticks": 68400,
            "time": 213.75,
            "velocity": 0.47244094488188976
          },
          {
            "duration": 2.25,
            "durationTicks": 720,
            "midi": 38,
            "name": "D2",
            "ticks": 69120,
            "time": 216,
            "velocity": 0.47244094488188976
          },
          {
            "duration": 2.25,
            "durationTicks": 720,
            "midi": 39,
            "name": "D#2",
            "ticks": 69840,
            "time": 218.25,
            "velocity": 0.47244094488188976
          },
          {
            "duration": 1.200000000000017,
            "durationTicks": 384,
            "midi": 40,
            "name": "E2",
            "ticks": 70560,
            "time": 220.5,
            "velocity": 0.47244094488188976
          },
          {
            "duration": 1.200000000000017,
            "durationTicks": 384,
            "midi": 40,
            "name": "E2",
            "ticks": 71280,
            "time": 222.75,
            "velocity": 0.47244094488188976
          },
          {
            "duration": 1.200000000000017,
            "durationTicks": 384,
            "midi": 40,
            "name": "E2",
            "ticks": 72000,
            "time": 225,
            "velocity": 0.47244094488188976
          },
          {
            "duration": 1.200000000000017,
            "durationTicks": 384,
            "midi": 40,
            "name": "E2",
            "ticks": 72720,
            "time": 227.25,
            "velocity": 0.47244094488188976
          },
          {
            "duration": 0.6000000000000227,
            "durationTicks": 192,
            "midi": 33,
            "name": "A1",
            "ticks": 73440,
            "time": 229.5,
            "velocity": 0.47244094488188976
          },
          {
            "duration": 0.6000000000000227,
            "durationTicks": 192,
            "midi": 35,
            "name": "B1",
            "ticks": 74160,
            "time": 231.75,
            "velocity": 0.47244094488188976
          },
          {
            "duration": 0.6000000000000227,
            "durationTicks": 192,
            "midi": 37,
            "name": "C#2",
            "ticks": 74880,
            "time": 234,
            "velocity": 0.47244094488188976
          },
          {
            "duration": 0.6000000000000227,
            "durationTicks": 192,
            "midi": 37,
            "name": "C#2",
            "ticks": 75600,
            "time": 236.25,
            "velocity": 0.47244094488188976
          },
          {
            "duration": 1.200000000000017,
            "durationTicks": 384,
            "midi": 42,
            "name": "F#2",
            "ticks": 76320,
            "time": 238.5,
            "velocity": 0.47244094488188976
          },
          {
            "duration": 0.6000000000000227,
            "durationTicks": 192,
            "midi": 42,
            "name": "F#2",
            "ticks": 97920,
            "time": 306,
            "velocity": 0.47244094488188976
          },
          {
            "duration": 0.6000000000000227,
            "durationTicks": 192,
            "midi": 42,
            "name": "F#2",
            "ticks": 98640,
            "time": 308.25,
            "velocity": 0.47244094488188976
          },
          {
            "duration": 0.6000000000000227,
            "durationTicks": 192,
            "midi": 42,
            "name": "F#2",
            "ticks": 99360,
            "time": 310.5,
            "velocity": 0.47244094488188976
          },
          {
            "duration": 0.6000000000000227,
            "durationTicks": 192,
            "midi": 44,
            "name": "G#2",
            "ticks": 100080,
            "time": 312.75,
            "velocity": 0.47244094488188976
          },
          {
            "duration": 0.6000000000000227,
            "durationTicks": 192,
            "midi": 45,
            "name": "A2",
            "ticks": 100800,
            "time": 315,
            "velocity": 0.47244094488188976
          },
          {
            "duration": 0.6000000000000227,
            "durationTicks": 192,
            "midi": 33,
            "name": "A1",
            "ticks": 101520,
            "time": 317.25,
            "velocity": 0.47244094488188976
          },
          {
            "duration": 0.6000000000000227,
            "durationTicks": 192,
            "midi": 35,
            "name": "B1",
            "ticks": 102240,
            "time": 319.5,
            "velocity": 0.47244094488188976
          },
          {
            "duration": 0.6000000000000227,
            "durationTicks": 192,
            "midi": 47,
            "name": "B2",
            "ticks": 102960,
            "time": 321.75,
            "velocity": 0.47244094488188976
          },
          {
            "duration": 0.6000000000000227,
            "durationTicks": 192,
            "midi": 49,
            "name": "C#3",
            "ticks": 103680,
            "time": 324,
            "velocity": 0.47244094488188976
          },
          {
            "duration": 0.6000000000000227,
            "durationTicks": 192,
            "midi": 42,
            "name": "F#2",
            "ticks": 104400,
            "time": 326.25,
            "velocity": 0.7086614173228346
          },
          {
            "duration": 0.75,
            "durationTicks": 240,
            "midi": 36,
            "name": "C2",
            "ticks": 105120,
            "time": 328.5,
            "velocity": 0.7086614173228346
          },
          {
            "duration": 0.75,
            "durationTicks": 240,
            "midi": 35,
            "name": "B1",
            "ticks": 105840,
            "time": 330.75,
            "velocity": 0.7086614173228346
          },
          {
            "duration": 2.25,
            "durationTicks": 720,
            "midi": 34,
            "name": "A#1",
            "ticks": 106560,
            "time": 333,
            "velocity": 0.7086614173228346
          },
          {
            "duration": 0.75,
            "durationTicks": 240,
            "midi": 35,
            "name": "B1",
            "ticks": 107280,
            "time": 335.25,
            "velocity": 0.7086614173228346
          },
          {
            "duration": 0.75,
            "durationTicks": 240,
            "midi": 43,
            "name": "G2",
            "ticks": 107520,
            "time": 336,
            "velocity": 0.7086614173228346
          },
          {
            "duration": 0.75,
            "durationTicks": 240,
            "midi": 42,
            "name": "F#2",
            "ticks": 107760,
            "time": 336.75,
            "velocity": 0.7086614173228346
          },
          {
            "duration": 0.75,
            "durationTicks": 240,
            "midi": 41,
            "name": "F2",
            "ticks": 108000,
            "time": 337.5,
            "velocity": 0.7086614173228346
          },
          {
            "duration": 0.75,
            "durationTicks": 240,
            "midi": 37,
            "name": "C#2",
            "ticks": 108240,
            "time": 338.25,
            "velocity": 0.7086614173228346
          },
          {
            "duration": 0.75,
            "durationTicks": 240,
            "midi": 42,
            "name": "F#2",
            "ticks": 108480,
            "time": 339,
            "velocity": 0.7086614173228346
          },
          {
            "duration": 0.75,
            "durationTicks": 240,
            "midi": 38,
            "name": "D2",
            "ticks": 108720,
            "time": 339.75,
            "velocity": 0.7086614173228346
          },
          {
            "duration": 0.75,
            "durationTicks": 240,
            "midi": 35,
            "name": "B1",
            "ticks": 108960,
            "time": 340.5,
            "velocity": 0.7086614173228346
          },
          {
            "duration": 0.75,
            "durationTicks": 240,
            "midi": 37,
            "name": "C#2",
            "ticks": 109200,
            "time": 341.25,
            "velocity": 0.7086614173228346
          },
          {
            "duration": 0.6000000000000227,
            "durationTicks": 192,
            "midi": 30,
            "name": "F#1",
            "ticks": 109440,
            "time": 342,
            "velocity": 0.6299212598425197
          },
          {
            "duration": 0.6000000000000227,
            "durationTicks": 192,
            "midi": 42,
            "name": "F#2",
            "ticks": 110160,
            "time": 344.25,
            "velocity": 0.47244094488188976
          },
          {
            "duration": 0.6000000000000227,
            "durationTicks": 192,
            "midi": 42,
            "name": "F#2",
            "ticks": 110880,
            "time": 346.5,
            "velocity": 0.47244094488188976
          },
          {
            "duration": 0.6000000000000227,
            "durationTicks": 192,
            "midi": 44,
            "name": "G#2",
            "ticks": 111600,
            "time": 348.75,
            "velocity": 0.47244094488188976
          },
          {
            "duration": 0.6000000000000227,
            "durationTicks": 192,
            "midi": 45,
            "name": "A2",
            "ticks": 112320,
            "time": 351,
            "velocity": 0.47244094488188976
          },
          {
            "duration": 0.6000000000000227,
            "durationTicks": 192,
            "midi": 45,
            "name": "A2",
            "ticks": 113040,
            "time": 353.25,
            "velocity": 0.47244094488188976
          },
          {
            "duration": 0.6000000000000227,
            "durationTicks": 192,
            "midi": 47,
            "name": "B2",
            "ticks": 113760,
            "time": 355.5,
            "velocity": 0.47244094488188976
          },
          {
            "duration": 0.6000000000000227,
            "durationTicks": 192,
            "midi": 35,
            "name": "B1",
            "ticks": 114480,
            "time": 357.75,
            "velocity": 0.47244094488188976
          },
          {
            "duration": 17.912500000000023,
            "durationTicks": 5732,
            "midi": 37,
            "name": "C#2",
            "ticks": 115200,
            "time": 360,
            "velocity": 0.47244094488188976
          },
          {
            "duration": 0.5999999999999659,
            "durationTicks": 192,
            "midi": 33,
            "name": "A1",
            "ticks": 133200,
            "time": 416.25,
            "velocity": 0.47244094488188976
          },
          {
            "duration": 0.5999999999999659,
            "durationTicks": 192,
            "midi": 35,
            "name": "B1",
            "ticks": 133920,
            "time": 418.5,
            "velocity": 0.47244094488188976
          },
          {
            "duration": 0.5999999999999659,
            "durationTicks": 192,
            "midi": 37,
            "name": "C#2",
            "ticks": 134640,
            "time": 420.75,
            "velocity": 0.47244094488188976
          },
          {
            "duration": 0.5999999999999659,
            "durationTicks": 192,
            "midi": 33,
            "name": "A1",
            "ticks": 135360,
            "time": 423,
            "velocity": 0.47244094488188976
          },
          {
            "duration": 0.5999999999999659,
            "durationTicks": 192,
            "midi": 38,
            "name": "D2",
            "ticks": 136080,
            "time": 425.25,
            "velocity": 0.47244094488188976
          },
          {
            "duration": 0.5999999999999659,
            "durationTicks": 192,
            "midi": 35,
            "name": "B1",
            "ticks": 136800,
            "time": 427.5,
            "velocity": 0.47244094488188976
          },
          {
            "duration": 0.5999999999999659,
            "durationTicks": 192,
            "midi": 37,
            "name": "C#2",
            "ticks": 137520,
            "time": 429.75,
            "velocity": 0.47244094488188976
          },
          {
            "duration": 0.5999999999999659,
            "durationTicks": 192,
            "midi": 33,
            "name": "A1",
            "ticks": 138240,
            "time": 432,
            "velocity": 0.47244094488188976
          },
          {
            "duration": 0.5999999999999659,
            "durationTicks": 192,
            "midi": 35,
            "name": "B1",
            "ticks": 138960,
            "time": 434.25,
            "velocity": 0.47244094488188976
          },
          {
            "duration": 0.5999999999999659,
            "durationTicks": 192,
            "midi": 37,
            "name": "C#2",
            "ticks": 139680,
            "time": 436.5,
            "velocity": 0.47244094488188976
          },
          {
            "duration": 0.5999999999999659,
            "durationTicks": 192,
            "midi": 37,
            "name": "C#2",
            "ticks": 140400,
            "time": 438.75,
            "velocity": 0.47244094488188976
          },
          {
            "duration": 0.5625,
            "durationTicks": 180,
            "midi": 42,
            "name": "F#2",
            "ticks": 141120,
            "time": 441,
            "velocity": 0.4330708661417323
          },
          {
            "duration": 0.5625,
            "durationTicks": 180,
            "midi": 42,
            "name": "F#2",
            "ticks": 141840,
            "time": 443.25,
            "velocity": 0.4330708661417323
          },
          {
            "duration": 0.5625,
            "durationTicks": 180,
            "midi": 42,
            "name": "F#2",
            "ticks": 142560,
            "time": 445.5,
            "velocity": 0.4330708661417323
          },
          {
            "duration": 1.7999999999999545,
            "durationTicks": 576,
            "midi": 30,
            "name": "F#1",
            "ticks": 144000,
            "time": 450,
            "velocity": 0.007874015748031496
          }
        ]
      },
      {
        "channel": 0,
        "controlChanges": {},
        "pitchBends": [],
        "instrument": {
          "family": "piano",
          "number": 0,
          "name": "acoustic grand piano"
        },
        "name": "Piano Concerto n23 K488 2mov",
        "notes": [],
        "endOfTrackTicks": 133920
      },
      {
        "channel": 8,
        "controlChanges": {
          "7": [
            {
              "number": 7,
              "ticks": 0,
              "time": 0,
              "value": 0.6220472440944882
            }
          ],
          "10": [
            {
              "number": 10,
              "ticks": 0,
              "time": 0,
              "value": 0.7716535433070866
            }
          ],
          "91": [
            {
              "number": 91,
              "ticks": 0,
              "time": 0,
              "value": 0.7874015748031497
            }
          ]
        },
        "pitchBends": [],
        "instrument": {
          "family": "strings",
          "number": 45,
          "name": "pizzicato strings"
        },
        "name": "",
        "notes": [
          {
            "duration": 0.6000000000000227,
            "durationTicks": 192,
            "midi": 66,
            "name": "F#4",
            "ticks": 120960,
            "time": 378,
            "velocity": 0.6299212598425197
          },
          {
            "duration": 0.6000000000000227,
            "durationTicks": 192,
            "midi": 69,
            "name": "A4",
            "ticks": 121200,
            "time": 378.75,
            "velocity": 0.47244094488188976
          },
          {
            "duration": 0.6000000000000227,
            "durationTicks": 192,
            "midi": 73,
            "name": "C#5",
            "ticks": 121440,
            "time": 379.5,
            "velocity": 0.47244094488188976
          },
          {
            "duration": 0.6000000000000227,
            "durationTicks": 192,
            "midi": 69,
            "name": "A4",
            "ticks": 121680,
            "time": 380.25,
            "velocity": 0.47244094488188976
          },
          {
            "duration": 0.6000000000000227,
            "durationTicks": 192,
            "midi": 66,
            "name": "F#4",
            "ticks": 121920,
            "time": 381,
            "velocity": 0.47244094488188976
          },
          {
            "duration": 0.6000000000000227,
            "durationTicks": 192,
            "midi": 61,
            "name": "C#4",
            "ticks": 122160,
            "time": 381.75,
            "velocity": 0.47244094488188976
          },
          {
            "duration": 0.6000000000000227,
            "durationTicks": 192,
            "midi": 62,
            "name": "D4",
            "ticks": 122400,
            "time": 382.5,
            "velocity": 0.47244094488188976
          },
          {
            "duration": 0.6000000000000227,
            "durationTicks": 192,
            "midi": 66,
            "name": "F#4",
            "ticks": 122640,
            "time": 383.25,
            "velocity": 0.47244094488188976
          },
          {
            "duration": 0.5999999999999659,
            "durationTicks": 192,
            "midi": 69,
            "name": "A4",
            "ticks": 122880,
            "time": 384,
            "velocity": 0.47244094488188976
          },
          {
            "duration": 0.5999999999999659,
            "durationTicks": 192,
            "midi": 66,
            "name": "F#4",
            "ticks": 123120,
            "time": 384.75,
            "velocity": 0.47244094488188976
          },
          {
            "duration": 0.5999999999999659,
            "durationTicks": 192,
            "midi": 62,
            "name": "D4",
            "ticks": 123360,
            "time": 385.5,
            "velocity": 0.47244094488188976
          },
          {
            "duration": 0.5999999999999659,
            "durationTicks": 192,
            "midi": 57,
            "name": "A3",
            "ticks": 123600,
            "time": 386.25,
            "velocity": 0.47244094488188976
          },
          {
            "duration": 0.5999999999999659,
            "durationTicks": 192,
            "midi": 59,
            "name": "B3",
            "ticks": 123840,
            "time": 387,
            "velocity": 0.47244094488188976
          },
          {
            "duration": 0.5999999999999659,
            "durationTicks": 192,
            "midi": 62,
            "name": "D4",
            "ticks": 124080,
            "time": 387.75,
            "velocity": 0.47244094488188976
          },
          {
            "duration": 0.5999999999999659,
            "durationTicks": 192,
            "midi": 61,
            "name": "C#4",
            "ticks": 124320,
            "time": 388.5,
            "velocity": 0.47244094488188976
          },
          {
            "duration": 0.5999999999999659,
            "durationTicks": 192,
            "midi": 59,
            "name": "B3",
            "ticks": 124560,
            "time": 389.25,
            "velocity": 0.47244094488188976
          },
          {
            "duration": 0.5999999999999659,
            "durationTicks": 192,
            "midi": 57,
            "name": "A3",
            "ticks": 124800,
            "time": 390,
            "velocity": 0.47244094488188976
          },
          {
            "duration": 0.5999999999999659,
            "durationTicks": 192,
            "midi": 56,
            "name": "G#3",
            "ticks": 125040,
            "time": 390.75,
            "velocity": 0.47244094488188976
          },
          {
            "duration": 0.5999999999999659,
            "durationTicks": 192,
            "midi": 61,
            "name": "C#4",
            "ticks": 125280,
            "time": 391.5,
            "velocity": 0.47244094488188976
          },
          {
            "duration": 0.5999999999999659,
            "durationTicks": 192,
            "midi": 66,
            "name": "F#4",
            "ticks": 125520,
            "time": 392.25,
            "velocity": 0.47244094488188976
          },
          {
            "duration": 0.5999999999999659,
            "durationTicks": 192,
            "midi": 69,
            "name": "A4",
            "ticks": 125760,
            "time": 393,
            "velocity": 0.47244094488188976
          },
          {
            "duration": 0.5999999999999659,
            "durationTicks": 192,
            "midi": 61,
            "name": "C#4",
            "ticks": 126000,
            "time": 393.75,
            "velocity": 0.47244094488188976
          },
          {
            "duration": 0.5999999999999659,
            "durationTicks": 192,
            "midi": 65,
            "name": "F4",
            "ticks": 126240,
            "time": 394.5,
            "velocity": 0.47244094488188976
          },
          {
            "duration": 0.5999999999999659,
            "durationTicks": 192,
            "midi": 68,
            "name": "G#4",
            "ticks": 126480,
            "time": 395.25,
            "velocity": 0.47244094488188976
          },
          {
            "duration": 0.5999999999999659,
            "durationTicks": 192,
            "midi": 66,
            "name": "F#4",
            "ticks": 126720,
            "time": 396,
            "velocity": 0.47244094488188976
          },
          {
            "duration": 0.5999999999999659,
            "durationTicks": 192,
            "midi": 69,
            "name": "A4",
            "ticks": 126960,
            "time": 396.75,
            "velocity": 0.47244094488188976
          },
          {
            "duration": 0.5999999999999659,
            "durationTicks": 192,
            "midi": 73,
            "name": "C#5",
            "ticks": 127200,
            "time": 397.5,
            "velocity": 0.47244094488188976
          },
          {
            "duration": 0.5999999999999659,
            "durationTicks": 192,
            "midi": 69,
            "name": "A4",
            "ticks": 127440,
            "time": 398.25,
            "velocity": 0.47244094488188976
          },
          {
            "duration": 0.5999999999999659,
            "durationTicks": 192,
            "midi": 66,
            "name": "F#4",
            "ticks": 127680,
            "time": 399,
            "velocity": 0.47244094488188976
          },
          {
            "duration": 0.5999999999999659,
            "durationTicks": 192,
            "midi": 61,
            "name": "C#4",
            "ticks": 127920,
            "time": 399.75,
            "velocity": 0.47244094488188976
          },
          {
            "duration": 0.5999999999999659,
            "durationTicks": 192,
            "midi": 62,
            "name": "D4",
            "ticks": 128160,
            "time": 400.5,
            "velocity": 0.47244094488188976
          },
          {
            "duration": 0.5999999999999659,
            "durationTicks": 192,
            "midi": 66,
            "name": "F#4",
            "ticks": 128400,
            "time": 401.25,
            "velocity": 0.47244094488188976
          },
          {
            "duration": 0.5999999999999659,
            "durationTicks": 192,
            "midi": 69,
            "name": "A4",
            "ticks": 128640,
            "time": 402,
            "velocity": 0.47244094488188976
          },
          {
            "duration": 0.5999999999999659,
            "durationTicks": 192,
            "midi": 66,
            "name": "F#4",
            "ticks": 128880,
            "time": 402.75,
            "velocity": 0.47244094488188976
          },
          {
            "duration": 0.5999999999999659,
            "durationTicks": 192,
            "midi": 62,
            "name": "D4",
            "ticks": 129120,
            "time": 403.5,
            "velocity": 0.47244094488188976
          },
          {
            "duration": 0.5999999999999659,
            "durationTicks": 192,
            "midi": 57,
            "name": "A3",
            "ticks": 129360,
            "time": 404.25,
            "velocity": 0.47244094488188976
          },
          {
            "duration": 0.5999999999999659,
            "durationTicks": 192,
            "midi": 59,
            "name": "B3",
            "ticks": 129600,
            "time": 405,
            "velocity": 0.47244094488188976
          },
          {
            "duration": 0.5999999999999659,
            "durationTicks": 192,
            "midi": 62,
            "name": "D4",
            "ticks": 129840,
            "time": 405.75,
            "velocity": 0.47244094488188976
          },
          {
            "duration": 0.5999999999999659,
            "durationTicks": 192,
            "midi": 67,
            "name": "G4",
            "ticks": 130080,
            "time": 406.5,
            "velocity": 0.47244094488188976
          },
          {
            "duration": 0.5999999999999659,
            "durationTicks": 192,
            "midi": 71,
            "name": "B4",
            "ticks": 130320,
            "time": 407.25,
            "velocity": 0.47244094488188976
          },
          {
            "duration": 0.5999999999999659,
            "durationTicks": 192,
            "midi": 67,
            "name": "G4",
            "ticks": 130560,
            "time": 408,
            "velocity": 0.47244094488188976
          },
          {
            "duration": 0.5999999999999659,
            "durationTicks": 192,
            "midi": 59,
            "name": "B3",
            "ticks": 130800,
            "time": 408.75,
            "velocity": 0.47244094488188976
          },
          {
            "duration": 0.5999999999999659,
            "durationTicks": 192,
            "midi": 61,
            "name": "C#4",
            "ticks": 131040,
            "time": 409.5,
            "velocity": 0.47244094488188976
          },
          {
            "duration": 0.5999999999999659,
            "durationTicks": 192,
            "midi": 66,
            "name": "F#4",
            "ticks": 131280,
            "time": 410.25,
            "velocity": 0.47244094488188976
          },
          {
            "duration": 0.5999999999999659,
            "durationTicks": 192,
            "midi": 69,
            "name": "A4",
            "ticks": 131520,
            "time": 411,
            "velocity": 0.47244094488188976
          },
          {
            "duration": 0.5999999999999659,
            "durationTicks": 192,
            "midi": 61,
            "name": "C#4",
            "ticks": 131760,
            "time": 411.75,
            "velocity": 0.47244094488188976
          },
          {
            "duration": 0.5999999999999659,
            "durationTicks": 192,
            "midi": 65,
            "name": "F4",
            "ticks": 132000,
            "time": 412.5,
            "velocity": 0.47244094488188976
          },
          {
            "duration": 0.5999999999999659,
            "durationTicks": 192,
            "midi": 68,
            "name": "G#4",
            "ticks": 132240,
            "time": 413.25,
            "velocity": 0.47244094488188976
          },
          {
            "duration": 1.2000000000000455,
            "durationTicks": 384,
            "midi": 66,
            "name": "F#4",
            "ticks": 132480,
            "time": 414,
            "velocity": 0.47244094488188976
          }
        ]
      },
      {
        "channel": 0,
        "controlChanges": {},
        "pitchBends": [],
        "instrument": {
          "family": "piano",
          "number": 0,
          "name": "acoustic grand piano"
        },
        "name": "Piano Concerto n23 K488 2mov",
        "notes": [],
        "endOfTrackTicks": 133920
      },
      {
        "channel": 15,
        "controlChanges": {
          "7": [
            {
              "number": 7,
              "ticks": 0,
              "time": 0,
              "value": 0.6220472440944882
            }
          ],
          "10": [
            {
              "number": 10,
              "ticks": 0,
              "time": 0,
              "value": 0.7322834645669292
            }
          ],
          "91": [
            {
              "number": 91,
              "ticks": 0,
              "time": 0,
              "value": 0.7874015748031497
            }
          ]
        },
        "pitchBends": [],
        "instrument": {
          "family": "strings",
          "number": 45,
          "name": "pizzicato strings"
        },
        "name": "",
        "notes": [
          {
            "duration": 0.6000000000000227,
            "durationTicks": 192,
            "midi": 42,
            "name": "F#2",
            "ticks": 120960,
            "time": 378,
            "velocity": 0.6299212598425197
          },
          {
            "duration": 0.6000000000000227,
            "durationTicks": 192,
            "midi": 54,
            "name": "F#3",
            "ticks": 120960,
            "time": 378,
            "velocity": 0.6299212598425197
          },
          {
            "duration": 0.6000000000000227,
            "durationTicks": 192,
            "midi": 45,
            "name": "A2",
            "ticks": 121200,
            "time": 378.75,
            "velocity": 0.47244094488188976
          },
          {
            "duration": 0.6000000000000227,
            "durationTicks": 192,
            "midi": 57,
            "name": "A3",
            "ticks": 121200,
            "time": 378.75,
            "velocity": 0.47244094488188976
          },
          {
            "duration": 0.6000000000000227,
            "durationTicks": 192,
            "midi": 49,
            "name": "C#3",
            "ticks": 121440,
            "time": 379.5,
            "velocity": 0.47244094488188976
          },
          {
            "duration": 0.6000000000000227,
            "durationTicks": 192,
            "midi": 61,
            "name": "C#4",
            "ticks": 121440,
            "time": 379.5,
            "velocity": 0.47244094488188976
          },
          {
            "duration": 0.6000000000000227,
            "durationTicks": 192,
            "midi": 45,
            "name": "A2",
            "ticks": 121680,
            "time": 380.25,
            "velocity": 0.47244094488188976
          },
          {
            "duration": 0.6000000000000227,
            "durationTicks": 192,
            "midi": 57,
            "name": "A3",
            "ticks": 121680,
            "time": 380.25,
            "velocity": 0.47244094488188976
          },
          {
            "duration": 0.6000000000000227,
            "durationTicks": 192,
            "midi": 42,
            "name": "F#2",
            "ticks": 121920,
            "time": 381,
            "velocity": 0.47244094488188976
          },
          {
            "duration": 0.6000000000000227,
            "durationTicks": 192,
            "midi": 54,
            "name": "F#3",
            "ticks": 121920,
            "time": 381,
            "velocity": 0.47244094488188976
          },
          {
            "duration": 0.6000000000000227,
            "durationTicks": 192,
            "midi": 37,
            "name": "C#2",
            "ticks": 122160,
            "time": 381.75,
            "velocity": 0.47244094488188976
          },
          {
            "duration": 0.6000000000000227,
            "durationTicks": 192,
            "midi": 49,
            "name": "C#3",
            "ticks": 122160,
            "time": 381.75,
            "velocity": 0.47244094488188976
          },
          {
            "duration": 0.6000000000000227,
            "durationTicks": 192,
            "midi": 38,
            "name": "D2",
            "ticks": 122400,
            "time": 382.5,
            "velocity": 0.47244094488188976
          },
          {
            "duration": 0.6000000000000227,
            "durationTicks": 192,
            "midi": 50,
            "name": "D3",
            "ticks": 122400,
            "time": 382.5,
            "velocity": 0.47244094488188976
          },
          {
            "duration": 0.6000000000000227,
            "durationTicks": 192,
            "midi": 42,
            "name": "F#2",
            "ticks": 122640,
            "time": 383.25,
            "velocity": 0.47244094488188976
          },
          {
            "duration": 0.6000000000000227,
            "durationTicks": 192,
            "midi": 54,
            "name": "F#3",
            "ticks": 122640,
            "time": 383.25,
            "velocity": 0.47244094488188976
          },
          {
            "duration": 0.5999999999999659,
            "durationTicks": 192,
            "midi": 45,
            "name": "A2",
            "ticks": 122880,
            "time": 384,
            "velocity": 0.47244094488188976
          },
          {
            "duration": 0.5999999999999659,
            "durationTicks": 192,
            "midi": 57,
            "name": "A3",
            "ticks": 122880,
            "time": 384,
            "velocity": 0.47244094488188976
          },
          {
            "duration": 0.5999999999999659,
            "durationTicks": 192,
            "midi": 42,
            "name": "F#2",
            "ticks": 123120,
            "time": 384.75,
            "velocity": 0.47244094488188976
          },
          {
            "duration": 0.5999999999999659,
            "durationTicks": 192,
            "midi": 54,
            "name": "F#3",
            "ticks": 123120,
            "time": 384.75,
            "velocity": 0.47244094488188976
          },
          {
            "duration": 0.5999999999999659,
            "durationTicks": 192,
            "midi": 38,
            "name": "D2",
            "ticks": 123360,
            "time": 385.5,
            "velocity": 0.47244094488188976
          },
          {
            "duration": 0.5999999999999659,
            "durationTicks": 192,
            "midi": 50,
            "name": "D3",
            "ticks": 123360,
            "time": 385.5,
            "velocity": 0.47244094488188976
          },
          {
            "duration": 0.5999999999999659,
            "durationTicks": 192,
            "midi": 33,
            "name": "A1",
            "ticks": 123600,
            "time": 386.25,
            "velocity": 0.47244094488188976
          },
          {
            "duration": 0.5999999999999659,
            "durationTicks": 192,
            "midi": 45,
            "name": "A2",
            "ticks": 123600,
            "time": 386.25,
            "velocity": 0.47244094488188976
          },
          {
            "duration": 0.5999999999999659,
            "durationTicks": 192,
            "midi": 35,
            "name": "B1",
            "ticks": 123840,
            "time": 387,
            "velocity": 0.47244094488188976
          },
          {
            "duration": 0.5999999999999659,
            "durationTicks": 192,
            "midi": 47,
            "name": "B2",
            "ticks": 123840,
            "time": 387,
            "velocity": 0.47244094488188976
          },
          {
            "duration": 0.5999999999999659,
            "durationTicks": 192,
            "midi": 38,
            "name": "D2",
            "ticks": 124080,
            "time": 387.75,
            "velocity": 0.47244094488188976
          },
          {
            "duration": 0.5999999999999659,
            "durationTicks": 192,
            "midi": 50,
            "name": "D3",
            "ticks": 124080,
            "time": 387.75,
            "velocity": 0.47244094488188976
          },
          {
            "duration": 0.5999999999999659,
            "durationTicks": 192,
            "midi": 37,
            "name": "C#2",
            "ticks": 124320,
            "time": 388.5,
            "velocity": 0.47244094488188976
          },
          {
            "duration": 0.5999999999999659,
            "durationTicks": 192,
            "midi": 49,
            "name": "C#3",
            "ticks": 124320,
            "time": 388.5,
            "velocity": 0.47244094488188976
          },
          {
            "duration": 0.5999999999999659,
            "durationTicks": 192,
            "midi": 35,
            "name": "B1",
            "ticks": 124560,
            "time": 389.25,
            "velocity": 0.47244094488188976
          },
          {
            "duration": 0.5999999999999659,
            "durationTicks": 192,
            "midi": 47,
            "name": "B2",
            "ticks": 124560,
            "time": 389.25,
            "velocity": 0.47244094488188976
          },
          {
            "duration": 0.5999999999999659,
            "durationTicks": 192,
            "midi": 33,
            "name": "A1",
            "ticks": 124800,
            "time": 390,
            "velocity": 0.47244094488188976
          },
          {
            "duration": 0.5999999999999659,
            "durationTicks": 192,
            "midi": 45,
            "name": "A2",
            "ticks": 124800,
            "time": 390,
            "velocity": 0.47244094488188976
          },
          {
            "duration": 0.5999999999999659,
            "durationTicks": 192,
            "midi": 32,
            "name": "G#1",
            "ticks": 125040,
            "time": 390.75,
            "velocity": 0.47244094488188976
          },
          {
            "duration": 0.5999999999999659,
            "durationTicks": 192,
            "midi": 44,
            "name": "G#2",
            "ticks": 125040,
            "time": 390.75,
            "velocity": 0.47244094488188976
          },
          {
            "duration": 0.5999999999999659,
            "durationTicks": 192,
            "midi": 37,
            "name": "C#2",
            "ticks": 125280,
            "time": 391.5,
            "velocity": 0.47244094488188976
          },
          {
            "duration": 0.5999999999999659,
            "durationTicks": 192,
            "midi": 49,
            "name": "C#3",
            "ticks": 125280,
            "time": 391.5,
            "velocity": 0.47244094488188976
          },
          {
            "duration": 0.5999999999999659,
            "durationTicks": 192,
            "midi": 42,
            "name": "F#2",
            "ticks": 125520,
            "time": 392.25,
            "velocity": 0.47244094488188976
          },
          {
            "duration": 0.5999999999999659,
            "durationTicks": 192,
            "midi": 54,
            "name": "F#3",
            "ticks": 125520,
            "time": 392.25,
            "velocity": 0.47244094488188976
          },
          {
            "duration": 0.5999999999999659,
            "durationTicks": 192,
            "midi": 45,
            "name": "A2",
            "ticks": 125760,
            "time": 393,
            "velocity": 0.47244094488188976
          },
          {
            "duration": 0.5999999999999659,
            "durationTicks": 192,
            "midi": 57,
            "name": "A3",
            "ticks": 125760,
            "time": 393,
            "velocity": 0.47244094488188976
          },
          {
            "duration": 0.5999999999999659,
            "durationTicks": 192,
            "midi": 37,
            "name": "C#2",
            "ticks": 126000,
            "time": 393.75,
            "velocity": 0.47244094488188976
          },
          {
            "duration": 0.5999999999999659,
            "durationTicks": 192,
            "midi": 49,
            "name": "C#3",
            "ticks": 126000,
            "time": 393.75,
            "velocity": 0.47244094488188976
          },
          {
            "duration": 0.5999999999999659,
            "durationTicks": 192,
            "midi": 41,
            "name": "F2",
            "ticks": 126240,
            "time": 394.5,
            "velocity": 0.47244094488188976
          },
          {
            "duration": 0.5999999999999659,
            "durationTicks": 192,
            "midi": 53,
            "name": "F3",
            "ticks": 126240,
            "time": 394.5,
            "velocity": 0.47244094488188976
          },
          {
            "duration": 0.5999999999999659,
            "durationTicks": 192,
            "midi": 44,
            "name": "G#2",
            "ticks": 126480,
            "time": 395.25,
            "velocity": 0.47244094488188976
          },
          {
            "duration": 0.5999999999999659,
            "durationTicks": 192,
            "midi": 56,
            "name": "G#3",
            "ticks": 126480,
            "time": 395.25,
            "velocity": 0.47244094488188976
          },
          {
            "duration": 0.5999999999999659,
            "durationTicks": 192,
            "midi": 42,
            "name": "F#2",
            "ticks": 126720,
            "time": 396,
            "velocity": 0.47244094488188976
          },
          {
            "duration": 0.5999999999999659,
            "durationTicks": 192,
            "midi": 54,
            "name": "F#3",
            "ticks": 126720,
            "time": 396,
            "velocity": 0.47244094488188976
          },
          {
            "duration": 0.5999999999999659,
            "durationTicks": 192,
            "midi": 45,
            "name": "A2",
            "ticks": 126960,
            "time": 396.75,
            "velocity": 0.47244094488188976
          },
          {
            "duration": 0.5999999999999659,
            "durationTicks": 192,
            "midi": 57,
            "name": "A3",
            "ticks": 126960,
            "time": 396.75,
            "velocity": 0.47244094488188976
          },
          {
            "duration": 0.5999999999999659,
            "durationTicks": 192,
            "midi": 49,
            "name": "C#3",
            "ticks": 127200,
            "time": 397.5,
            "velocity": 0.47244094488188976
          },
          {
            "duration": 0.5999999999999659,
            "durationTicks": 192,
            "midi": 61,
            "name": "C#4",
            "ticks": 127200,
            "time": 397.5,
            "velocity": 0.47244094488188976
          },
          {
            "duration": 0.5999999999999659,
            "durationTicks": 192,
            "midi": 45,
            "name": "A2",
            "ticks": 127440,
            "time": 398.25,
            "velocity": 0.47244094488188976
          },
          {
            "duration": 0.5999999999999659,
            "durationTicks": 192,
            "midi": 57,
            "name": "A3",
            "ticks": 127440,
            "time": 398.25,
            "velocity": 0.47244094488188976
          },
          {
            "duration": 0.5999999999999659,
            "durationTicks": 192,
            "midi": 42,
            "name": "F#2",
            "ticks": 127680,
            "time": 399,
            "velocity": 0.47244094488188976
          },
          {
            "duration": 0.5999999999999659,
            "durationTicks": 192,
            "midi": 54,
            "name": "F#3",
            "ticks": 127680,
            "time": 399,
            "velocity": 0.47244094488188976
          },
          {
            "duration": 0.5999999999999659,
            "durationTicks": 192,
            "midi": 37,
            "name": "C#2",
            "ticks": 127920,
            "time": 399.75,
            "velocity": 0.47244094488188976
          },
          {
            "duration": 0.5999999999999659,
            "durationTicks": 192,
            "midi": 49,
            "name": "C#3",
            "ticks": 127920,
            "time": 399.75,
            "velocity": 0.47244094488188976
          },
          {
            "duration": 0.5999999999999659,
            "durationTicks": 192,
            "midi": 38,
            "name": "D2",
            "ticks": 128160,
            "time": 400.5,
            "velocity": 0.47244094488188976
          },
          {
            "duration": 0.5999999999999659,
            "durationTicks": 192,
            "midi": 50,
            "name": "D3",
            "ticks": 128160,
            "time": 400.5,
            "velocity": 0.47244094488188976
          },
          {
            "duration": 0.5999999999999659,
            "durationTicks": 192,
            "midi": 42,
            "name": "F#2",
            "ticks": 128400,
            "time": 401.25,
            "velocity": 0.47244094488188976
          },
          {
            "duration": 0.5999999999999659,
            "durationTicks": 192,
            "midi": 54,
            "name": "F#3",
            "ticks": 128400,
            "time": 401.25,
            "velocity": 0.47244094488188976
          },
          {
            "duration": 0.5999999999999659,
            "durationTicks": 192,
            "midi": 45,
            "name": "A2",
            "ticks": 128640,
            "time": 402,
            "velocity": 0.47244094488188976
          },
          {
            "duration": 0.5999999999999659,
            "durationTicks": 192,
            "midi": 57,
            "name": "A3",
            "ticks": 128640,
            "time": 402,
            "velocity": 0.47244094488188976
          },
          {
            "duration": 0.5999999999999659,
            "durationTicks": 192,
            "midi": 42,
            "name": "F#2",
            "ticks": 128880,
            "time": 402.75,
            "velocity": 0.47244094488188976
          },
          {
            "duration": 0.5999999999999659,
            "durationTicks": 192,
            "midi": 54,
            "name": "F#3",
            "ticks": 128880,
            "time": 402.75,
            "velocity": 0.47244094488188976
          },
          {
            "duration": 0.5999999999999659,
            "durationTicks": 192,
            "midi": 38,
            "name": "D2",
            "ticks": 129120,
            "time": 403.5,
            "velocity": 0.47244094488188976
          },
          {
            "duration": 0.5999999999999659,
            "durationTicks": 192,
            "midi": 50,
            "name": "D3",
            "ticks": 129120,
            "time": 403.5,
            "velocity": 0.47244094488188976
          },
          {
            "duration": 0.5999999999999659,
            "durationTicks": 192,
            "midi": 33,
            "name": "A1",
            "ticks": 129360,
            "time": 404.25,
            "velocity": 0.47244094488188976
          },
          {
            "duration": 0.5999999999999659,
            "durationTicks": 192,
            "midi": 45,
            "name": "A2",
            "ticks": 129360,
            "time": 404.25,
            "velocity": 0.47244094488188976
          },
          {
            "duration": 0.5999999999999659,
            "durationTicks": 192,
            "midi": 35,
            "name": "B1",
            "ticks": 129600,
            "time": 405,
            "velocity": 0.47244094488188976
          },
          {
            "duration": 0.5999999999999659,
            "durationTicks": 192,
            "midi": 47,
            "name": "B2",
            "ticks": 129600,
            "time": 405,
            "velocity": 0.47244094488188976
          },
          {
            "duration": 0.5999999999999659,
            "durationTicks": 192,
            "midi": 38,
            "name": "D2",
            "ticks": 129840,
            "time": 405.75,
            "velocity": 0.47244094488188976
          },
          {
            "duration": 0.5999999999999659,
            "durationTicks": 192,
            "midi": 50,
            "name": "D3",
            "ticks": 129840,
            "time": 405.75,
            "velocity": 0.47244094488188976
          },
          {
            "duration": 0.5999999999999659,
            "durationTicks": 192,
            "midi": 43,
            "name": "G2",
            "ticks": 130080,
            "time": 406.5,
            "velocity": 0.47244094488188976
          },
          {
            "duration": 0.5999999999999659,
            "durationTicks": 192,
            "midi": 55,
            "name": "G3",
            "ticks": 130080,
            "time": 406.5,
            "velocity": 0.47244094488188976
          },
          {
            "duration": 0.5999999999999659,
            "durationTicks": 192,
            "midi": 47,
            "name": "B2",
            "ticks": 130320,
            "time": 407.25,
            "velocity": 0.47244094488188976
          },
          {
            "duration": 0.5999999999999659,
            "durationTicks": 192,
            "midi": 59,
            "name": "B3",
            "ticks": 130320,
            "time": 407.25,
            "velocity": 0.47244094488188976
          },
          {
            "duration": 0.5999999999999659,
            "durationTicks": 192,
            "midi": 43,
            "name": "G2",
            "ticks": 130560,
            "time": 408,
            "velocity": 0.47244094488188976
          },
          {
            "duration": 0.5999999999999659,
            "durationTicks": 192,
            "midi": 55,
            "name": "G3",
            "ticks": 130560,
            "time": 408,
            "velocity": 0.47244094488188976
          },
          {
            "duration": 0.5999999999999659,
            "durationTicks": 192,
            "midi": 35,
            "name": "B1",
            "ticks": 130800,
            "time": 408.75,
            "velocity": 0.47244094488188976
          },
          {
            "duration": 0.5999999999999659,
            "durationTicks": 192,
            "midi": 47,
            "name": "B2",
            "ticks": 130800,
            "time": 408.75,
            "velocity": 0.47244094488188976
          },
          {
            "duration": 0.5999999999999659,
            "durationTicks": 192,
            "midi": 37,
            "name": "C#2",
            "ticks": 131040,
            "time": 409.5,
            "velocity": 0.47244094488188976
          },
          {
            "duration": 0.5999999999999659,
            "durationTicks": 192,
            "midi": 49,
            "name": "C#3",
            "ticks": 131040,
            "time": 409.5,
            "velocity": 0.47244094488188976
          },
          {
            "duration": 0.5999999999999659,
            "durationTicks": 192,
            "midi": 42,
            "name": "F#2",
            "ticks": 131280,
            "time": 410.25,
            "velocity": 0.47244094488188976
          },
          {
            "duration": 0.5999999999999659,
            "durationTicks": 192,
            "midi": 54,
            "name": "F#3",
            "ticks": 131280,
            "time": 410.25,
            "velocity": 0.47244094488188976
          },
          {
            "duration": 0.5999999999999659,
            "durationTicks": 192,
            "midi": 45,
            "name": "A2",
            "ticks": 131520,
            "time": 411,
            "velocity": 0.47244094488188976
          },
          {
            "duration": 0.5999999999999659,
            "durationTicks": 192,
            "midi": 57,
            "name": "A3",
            "ticks": 131520,
            "time": 411,
            "velocity": 0.47244094488188976
          },
          {
            "duration": 0.5999999999999659,
            "durationTicks": 192,
            "midi": 37,
            "name": "C#2",
            "ticks": 131760,
            "time": 411.75,
            "velocity": 0.47244094488188976
          },
          {
            "duration": 0.5999999999999659,
            "durationTicks": 192,
            "midi": 49,
            "name": "C#3",
            "ticks": 131760,
            "time": 411.75,
            "velocity": 0.47244094488188976
          },
          {
            "duration": 0.5999999999999659,
            "durationTicks": 192,
            "midi": 41,
            "name": "F2",
            "ticks": 132000,
            "time": 412.5,
            "velocity": 0.47244094488188976
          },
          {
            "duration": 0.5999999999999659,
            "durationTicks": 192,
            "midi": 53,
            "name": "F3",
            "ticks": 132000,
            "time": 412.5,
            "velocity": 0.47244094488188976
          },
          {
            "duration": 0.5999999999999659,
            "durationTicks": 192,
            "midi": 44,
            "name": "G#2",
            "ticks": 132240,
            "time": 413.25,
            "velocity": 0.47244094488188976
          },
          {
            "duration": 0.5999999999999659,
            "durationTicks": 192,
            "midi": 56,
            "name": "G#3",
            "ticks": 132240,
            "time": 413.25,
            "velocity": 0.47244094488188976
          },
          {
            "duration": 0.5999999999999659,
            "durationTicks": 192,
            "midi": 42,
            "name": "F#2",
            "ticks": 132480,
            "time": 414,
            "velocity": 0.47244094488188976
          },
          {
            "duration": 0.5999999999999659,
            "durationTicks": 192,
            "midi": 54,
            "name": "F#3",
            "ticks": 132480,
            "time": 414,
            "velocity": 0.47244094488188976
          }
        ]
      }
    ]
  }